<?xml version="1.0" encoding="UTF-8" standalone="no"?>
<!-- Created with Inkscape (http://www.inkscape.org/) -->

<svg
   xmlns:dc="http://purl.org/dc/elements/1.1/"
   xmlns:cc="http://creativecommons.org/ns#"
   xmlns:rdf="http://www.w3.org/1999/02/22-rdf-syntax-ns#"
   xmlns:svg="http://www.w3.org/2000/svg"
   xmlns="http://www.w3.org/2000/svg"
   xmlns:sodipodi="http://sodipodi.sourceforge.net/DTD/sodipodi-0.dtd"
   xmlns:inkscape="http://www.inkscape.org/namespaces/inkscape"
   version="1.0"
   width="580"
   height="580"
   id="svg2"
   sodipodi:version="0.32"
   inkscape:version="0.47 r22583"
   sodipodi:docname="food_fastfood2.svg"
   inkscape:output_extension="org.inkscape.output.svg.inkscape">
  <metadata
     id="metadata2975">
    <rdf:RDF>
      <cc:Work
         rdf:about="">
        <dc:format>image/svg+xml</dc:format>
        <dc:type
           rdf:resource="http://purl.org/dc/dcmitype/StillImage" />
        <cc:license
           rdf:resource="http://web.resource.org/cc/PublicDomain" />
        <dc:language>en</dc:language>
        <dc:title />
      </cc:Work>
    </rdf:RDF>
  </metadata>
  <sodipodi:namedview
     inkscape:window-height="947"
     inkscape:window-width="1048"
     inkscape:pageshadow="2"
     inkscape:pageopacity="0.0"
     guidetolerance="10.0"
     gridtolerance="10.0"
     objecttolerance="10.0"
     borderopacity="1.0"
     bordercolor="#666666"
     pagecolor="#ffffff"
     id="base"
     inkscape:zoom="0.65172414"
     inkscape:cx="386.22617"
     inkscape:cy="170.17714"
     inkscape:window-x="11"
     inkscape:window-y="13"
     inkscape:current-layer="svg2"
     showgrid="false"
     inkscape:window-maximized="0" />
  <defs
     id="defs4">
    <inkscape:perspective
       sodipodi:type="inkscape:persp3d"
       inkscape:vp_x="0 : 290 : 1"
       inkscape:vp_y="0 : 1000 : 0"
       inkscape:vp_z="580 : 290 : 1"
       inkscape:persp3d-origin="290 : 193.33333 : 1"
       id="perspective2441" />
    <inkscape:perspective
       id="perspective3452"
       inkscape:persp3d-origin="30 : 20 : 1"
       inkscape:vp_z="60 : 30 : 1"
       inkscape:vp_y="0 : 1000 : 0"
       inkscape:vp_x="0 : 30 : 1"
       sodipodi:type="inkscape:persp3d" />
    <symbol
       viewBox="244.5 110 489 219.9"
       id="symbol-university">
      <path
         id="path4460"
         d="M79,43l57,119c0,0,21-96,104-96s124,106,124,106l43-133l82-17L0,17L79,43z" />
      <path
         id="path4462"
         d="M94,176l-21,39"
         stroke-width="20"
         stroke="#000000"
         fill="none" />
      <path
         id="path4464"
         d="M300,19c0,10.5-22.6,19-50.5,19S199,29.5,199,19s22.6-19,50.5-19S300,8.5,300,19z" />
      <path
         id="path4466"
         d="M112,216l-16-38L64,88c0,0-9-8-4-35s16-24,16-24"
         stroke-width="20"
         stroke="#000000"
         ill="none" />
    </symbol>
    <inkscape:perspective
       id="perspective4471"
       inkscape:persp3d-origin="372.04724 : 350.78739 : 1"
       inkscape:vp_z="744.09448 : 526.18109 : 1"
       inkscape:vp_y="0 : 1000 : 0"
       inkscape:vp_x="0 : 526.18109 : 1"
       sodipodi:type="inkscape:persp3d" />
    <inkscape:perspective
       id="perspective4668"
       inkscape:persp3d-origin="6 : 4 : 1"
       inkscape:vp_z="12 : 6 : 1"
       inkscape:vp_y="0 : 1000 : 0"
       inkscape:vp_x="0 : 6 : 1"
       sodipodi:type="inkscape:persp3d" />
    <inkscape:perspective
       id="perspective4904"
       inkscape:persp3d-origin="16 : 10.666667 : 1"
       inkscape:vp_z="32 : 16 : 1"
       inkscape:vp_y="0 : 1000 : 0"
       inkscape:vp_x="0 : 16 : 1"
       sodipodi:type="inkscape:persp3d" />
    <marker
       style="overflow:visible;"
       id="Arrow2Lend"
       refX="0.0"
       refY="0.0"
       orient="auto"
       inkscape:stockid="Arrow2Lend">
      <path
         transform="scale(1.1) rotate(180) translate(1,0)"
         d="M 8.7185878,4.0337352 L -2.2072895,0.016013256 L 8.7185884,-4.0017078 C 6.9730900,-1.6296469 6.9831476,1.6157441 8.7185878,4.0337352 z "
         style="font-size:12.0;fill-rule:evenodd;stroke-width:0.62500000;stroke-linejoin:round;"
         id="path4137" />
    </marker>
    <marker
       style="overflow:visible;"
       id="Arrow1Mend"
       refX="0.0"
       refY="0.0"
       orient="auto"
       inkscape:stockid="Arrow1Mend">
      <path
         transform="scale(0.4) rotate(180) translate(10,0)"
         style="fill-rule:evenodd;stroke:#000000;stroke-width:1.0pt;marker-start:none;"
         d="M 0.0,0.0 L 5.0,-5.0 L -12.5,0.0 L 5.0,5.0 L 0.0,0.0 z "
         id="path4125" />
    </marker>
    <marker
       style="overflow:visible"
       id="TriangleOutL"
       refX="0.0"
       refY="0.0"
       orient="auto"
       inkscape:stockid="TriangleOutL">
      <path
         transform="scale(0.8)"
         style="fill-rule:evenodd;stroke:#000000;stroke-width:1.0pt;marker-start:none"
         d="M 5.77,0.0 L -2.88,5.0 L -2.88,-5.0 L 5.77,0.0 z "
         id="path4214" />
    </marker>
    <marker
       style="overflow:visible;"
       id="Arrow1Lend"
       refX="0.0"
       refY="0.0"
       orient="auto"
       inkscape:stockid="Arrow1Lend">
      <path
         transform="scale(0.8) rotate(180) translate(12.5,0)"
         style="fill-rule:evenodd;stroke:#000000;stroke-width:1.0pt;marker-start:none;"
         d="M 0.0,0.0 L 5.0,-5.0 L -12.5,0.0 L 5.0,5.0 L 0.0,0.0 z "
         id="path4119" />
    </marker>
    <marker
       style="overflow:visible"
       id="Tail"
       refX="0.0"
       refY="0.0"
       orient="auto"
       inkscape:stockid="Tail">
      <g
         transform="scale(-1.2)"
         id="g4152">
        <path
           style="fill:none;fill-rule:evenodd;stroke:#000000;stroke-width:0.8;marker-start:none;marker-end:none;stroke-linecap:round"
           d="M -3.8048674,-3.9585227 L 0.54352094,0"
           id="path4154" />
        <path
           style="fill:none;fill-rule:evenodd;stroke:#000000;stroke-width:0.8;marker-start:none;marker-end:none;stroke-linecap:round"
           d="M -1.2866832,-3.9585227 L 3.0617053,0"
           id="path4156" />
        <path
           style="fill:none;fill-rule:evenodd;stroke:#000000;stroke-width:0.8;marker-start:none;marker-end:none;stroke-linecap:round"
           d="M 1.3053582,-3.9585227 L 5.6537466,0"
           id="path4158" />
        <path
           style="fill:none;fill-rule:evenodd;stroke:#000000;stroke-width:0.8;marker-start:none;marker-end:none;stroke-linecap:round"
           d="M -3.8048674,4.1775838 L 0.54352094,0.21974226"
           id="path4160" />
        <path
           style="fill:none;fill-rule:evenodd;stroke:#000000;stroke-width:0.8;marker-start:none;marker-end:none;stroke-linecap:round"
           d="M -1.2866832,4.1775838 L 3.0617053,0.21974226"
           id="path4162" />
        <path
           style="fill:none;fill-rule:evenodd;stroke:#000000;stroke-width:0.8;marker-start:none;marker-end:none;stroke-linecap:round"
           d="M 1.3053582,4.1775838 L 5.6537466,0.21974226"
           id="path4164" />
      </g>
    </marker>
    <marker
       style="overflow:visible"
       id="Arrow1Sstart"
       refX="0.0"
       refY="0.0"
       orient="auto"
       inkscape:stockid="Arrow1Sstart">
      <path
         transform="scale(0.2) translate(6,0)"
         style="fill-rule:evenodd;stroke:#000000;stroke-width:1.0pt;marker-start:none"
         d="M 0.0,0.0 L 5.0,-5.0 L -12.5,0.0 L 5.0,5.0 L 0.0,0.0 z "
         id="path4128" />
    </marker>
    <marker
       style="overflow:visible;"
       id="Arrow1Send"
       refX="0.0"
       refY="0.0"
       orient="auto"
       inkscape:stockid="Arrow1Send">
      <path
         transform="scale(0.2) rotate(180) translate(6,0)"
         style="fill-rule:evenodd;stroke:#000000;stroke-width:1.0pt;marker-start:none;"
         d="M 0.0,0.0 L 5.0,-5.0 L -12.5,0.0 L 5.0,5.0 L 0.0,0.0 z "
         id="path4131" />
    </marker>
    <marker
       style="overflow:visible"
       id="SemiCircleOut"
       refX="0.0"
       refY="0.0"
       orient="auto"
       inkscape:stockid="SemiCircleOut">
      <path
         transform="scale(0.6) translate(7.125493,0.763446)"
         style="fill-rule:evenodd;stroke:#000000;stroke-width:1.0pt;marker-start:none;marker-end:none"
         d="M -2.5,-0.80913858 C -2.5,1.9508614 -4.7400000,4.1908614 -7.5,4.1908614 L -7.5,-5.8091386 C -4.7400000,-5.8091386 -2.5,-3.5691386 -2.5,-0.80913858 z "
         id="path4235" />
    </marker>
    <marker
       style="overflow:visible;"
       id="Arrow2Send"
       refX="0.0"
       refY="0.0"
       orient="auto"
       inkscape:stockid="Arrow2Send">
      <path
         transform="scale(0.3) rotate(180) translate(-2.3,0)"
         d="M 8.7185878,4.0337352 L -2.2072895,0.016013256 L 8.7185884,-4.0017078 C 6.9730900,-1.6296469 6.9831476,1.6157441 8.7185878,4.0337352 z "
         style="font-size:12.0;fill-rule:evenodd;stroke-width:0.62500000;stroke-linejoin:round;"
         id="path4149" />
    </marker>
    <marker
       style="overflow:visible"
       id="TriangleOutS"
       refX="0.0"
       refY="0.0"
       orient="auto"
       inkscape:stockid="TriangleOutS">
      <path
         transform="scale(0.2)"
         style="fill-rule:evenodd;stroke:#000000;stroke-width:1.0pt;marker-start:none"
         d="M 5.77,0.0 L -2.88,5.0 L -2.88,-5.0 L 5.77,0.0 z "
         id="path4220" />
    </marker>
    <marker
       style="overflow:visible"
       id="CurveIn"
       refX="0.0"
       refY="0.0"
       orient="auto"
       inkscape:stockid="CurveIn">
      <path
         transform="scale(0.6)"
         style="fill-rule:evenodd;stroke:#000000;stroke-width:1.0pt;marker-start:none;marker-end:none;fill:none"
         d="M 4.6254930,-5.0456926 C 1.8654930,-5.0456926 -0.37450702,-2.8056926 -0.37450702,-0.045692580 C -0.37450702,2.7143074 1.8654930,4.9543074 4.6254930,4.9543074"
         id="path4238" />
    </marker>
    <marker
       orient="auto"
       refY="0"
       refX="0"
       id="InfiniteLineStart"
       inkscape:stockid="InfiniteLineStart"
       style="overflow:visible">
      <g
         transform="translate(-13,0)"
         id="g4298">
        <circle
           cx="3"
           cy="0"
           r="0.8"
           id="circle4300"
           d="M 3.8,0 C 3.8,0.44182781 3.4418278,0.80000001 3,0.80000001 2.5581722,0.80000001 2.2,0.44182781 2.2,0 c 0,-0.44182781 0.3581722,-0.80000001 0.8,-0.80000001 0.4418278,0 0.8,0.3581722 0.8,0.80000001 z" />
        <circle
           cx="6.5"
           cy="0"
           r="0.8"
           id="circle4302"
           d="M 7.3,0 C 7.3,0.44182781 6.9418278,0.80000001 6.5,0.80000001 6.0581722,0.80000001 5.7,0.44182781 5.7,0 c 0,-0.44182781 0.3581722,-0.80000001 0.8,-0.80000001 0.4418278,0 0.8,0.3581722 0.8,0.80000001 z" />
        <circle
           cx="10"
           cy="0"
           r="0.8"
           id="circle4304"
           d="M 10.8,0 C 10.8,0.44182781 10.441828,0.80000001 10,0.80000001 9.5581722,0.80000001 9.2,0.44182781 9.2,0 c 0,-0.44182781 0.3581722,-0.80000001 0.8,-0.80000001 0.441828,0 0.8,0.3581722 0.8,0.80000001 z" />
      </g>
    </marker>
    <marker
       style="overflow:visible"
       id="StopS"
       refX="0.0"
       refY="0.0"
       orient="auto"
       inkscape:stockid="StopS">
      <path
         transform="scale(0.2)"
         style="fill:none;fill-opacity:0.75000000;fill-rule:evenodd;stroke:#000000;stroke-width:1.0pt"
         d="M 0.0,5.65 L 0.0,-5.65"
         id="path4229" />
    </marker>
    <marker
       style="overflow:visible"
       id="Arrow2Sstart"
       refX="0.0"
       refY="0.0"
       orient="auto"
       inkscape:stockid="Arrow2Sstart">
      <path
         transform="scale(0.3) translate(-2.3,0)"
         d="M 8.7185878,4.0337352 L -2.2072895,0.016013256 L 8.7185884,-4.0017078 C 6.9730900,-1.6296469 6.9831476,1.6157441 8.7185878,4.0337352 z "
         style="font-size:12.0;fill-rule:evenodd;stroke-width:0.62500000;stroke-linejoin:round"
         id="path4146" />
    </marker>
    <marker
       style="overflow:visible"
       id="DiamondS"
       refX="0.0"
       refY="0.0"
       orient="auto"
       inkscape:stockid="DiamondS">
      <path
         transform="scale(0.2)"
         style="fill-rule:evenodd;stroke:#000000;stroke-width:1.0pt;marker-start:none"
         d="M 0,-7.0710768 L -7.0710894,0 L 0,7.0710589 L 7.0710462,0 L 0,-7.0710768 z "
         id="path4202" />
    </marker>
    <marker
       orient="auto"
       refY="0"
       refX="0"
       id="RazorWire"
       inkscape:stockid="RazorWire">
       style=&quot;overflow:visible&quot;&gt;
      <path
   d="M 0.022727273,-0.74009011 L 0.022727273,0.69740989 L -7.7585227,3.0099099 L 10.678977,3.0099099 L 3.4914773,0.69740989 L 3.4914773,-0.74009011 L 10.741477,-2.8963401 L -7.7272727,-2.8963401 L 0.022727273,-0.74009011 z "
   style="fill:#808080;fill-opacity:1;fill-rule:evenodd;stroke:#000000;stroke-width:0.1pt"
   transform="scale(0.8,0.8)"
   id="path4286" />
</marker>
    <inkscape:perspective
       id="perspective5233"
       inkscape:persp3d-origin="16 : 10.666667 : 1"
       inkscape:vp_z="32 : 16 : 1"
       inkscape:vp_y="0 : 1000 : 0"
       inkscape:vp_x="0 : 16 : 1"
       sodipodi:type="inkscape:persp3d" />
    <inkscape:perspective
       id="perspective5412"
       inkscape:persp3d-origin="250 : 166.66667 : 1"
       inkscape:vp_z="500 : 250 : 1"
       inkscape:vp_y="0 : 1000 : 0"
       inkscape:vp_x="0 : 250 : 1"
       sodipodi:type="inkscape:persp3d" />
    <inkscape:perspective
       id="perspective5571"
       inkscape:persp3d-origin="202.85715 : 136.19048 : 1"
       inkscape:vp_z="405.71429 : 204.28572 : 1"
       inkscape:vp_y="0 : 1000 : 0"
       inkscape:vp_x="0 : 204.28572 : 1"
       sodipodi:type="inkscape:persp3d" />
    <inkscape:perspective
       id="perspective6552"
       inkscape:persp3d-origin="64 : 42.666667 : 1"
       inkscape:vp_z="128 : 64 : 1"
       inkscape:vp_y="0 : 1000 : 0"
       inkscape:vp_x="0 : 64 : 1"
       sodipodi:type="inkscape:persp3d" />
    <inkscape:perspective
       id="perspective4729"
       inkscape:persp3d-origin="0.5 : 0.33333333 : 1"
       inkscape:vp_z="1 : 0.5 : 1"
       inkscape:vp_y="0 : 1000 : 0"
       inkscape:vp_x="0 : 0.5 : 1"
       sodipodi:type="inkscape:persp3d" />
  </defs>
  <g
     id="g1327">
    <path
       d="M 66.275,1.768 C 24.94,1.768 1.704,23.139 1.704,66.804 L 1.704,516.927 C 1.704,557.771 22.599,579.156 63.896,579.156 L 515.92,579.156 C 557.227,579.156 578.149,558.841 578.149,516.927 L 578.149,66.804 C 578.149,24.203 557.227,1.768 514.628,1.768 C 514.624,1.768 66.133,1.625 66.275,1.768 z "
       style="fill:#111;stroke:#eee;stroke-width:3.40799999"
       id="path1329" />
  </g>
  <path
     style="fill:#ffffff;fill-opacity:1"
     d="M 290.375 61.09375 C 238.56437 61.1014 184.96507 74.987134 140.40625 98.59375 C 96.199301 122.03207 60.757664 155.05792 45.34375 194.09375 C 37.319336 201.43735 31.446875 209.34441 28.21875 217.8125 C 23.896735 228.39187 21.6951 241.30838 21.6875 254.6875 C 21.6875 267.12573 23.617921 279.96134 27.6875 291.71875 C 26.379421 299.67432 25.8125 307.68977 25.8125 315.5 C 25.8125 328.44309 27.389536 340.84478 29.90625 351.53125 C 32.438262 362.24066 35.834065 371.21969 39.78125 377.5 L 40.0625 377.96875 C 41.141092 379.85055 42.316269 381.703 43.59375 383.53125 C 44.603495 398.20315 46.954533 414.23573 52.15625 424.9375 L 53.1875 427.09375 L 53.21875 427.09375 C 65.771718 452.11554 95.942725 472.93097 136.90625 488.03125 C 179.1396 503.5293 233.08095 512.78125 291.90625 512.78125 C 350.73155 512.78125 404.70415 503.5293 446.9375 488.03125 C 487.90102 472.93097 518.04079 452.11554 530.59375 427.09375 L 530.625 427.09375 L 531.6875 424.9375 C 534.78559 418.61129 536.77233 410.50308 538.1875 401.84375 C 539.53383 393.54395 540.28777 384.79232 540.59375 376.875 C 544.37264 370.62529 547.62229 361.90473 550.0625 351.5625 C 552.57157 340.86838 554.15625 328.47434 554.15625 315.53125 C 554.15625 307.73632 553.57403 299.73747 552.28125 291.8125 C 556.36613 280.03214 558.3045 267.15632 558.3125 254.6875 C 558.30485 241.20129 556.07071 228.19542 551.6875 217.5625 C 548.8189 210.1577 543.88349 203.22024 537.3125 196.6875 C 523.40555 156.0988 488.03067 122.40951 443.25 98.71875 C 398.11746 74.867347 343.27953 61.10135 290.375 61.09375 z M 290.375 68.75 C 349.28445 68.734695 411.04993 86.372516 457.78125 115.96875 C 481.13543 130.74776 500.74474 148.49438 514.4375 168.40625 C 528.13026 188.33342 535.9375 210.37042 535.9375 234 C 535.92985 243.01885 533.43284 251.04035 528.8125 258.4375 C 524.56698 265.26094 518.41554 271.50386 510.78125 277.1875 C 509.9551 276.64439 509.22167 276.48144 508.625 276.34375 C 507.91359 276.20601 507.31802 276.1875 506.84375 276.1875 C 506.26238 276.1875 505.88832 276.2347 505.78125 276.25 L 505.625 276.25 L 505.5 276.28125 C 498.30175 277.58933 493.09918 279.70822 488.21875 281.78125 C 483.31537 283.86194 478.73488 285.86867 472.15625 287.40625 C 466.57205 288.72962 459.52136 289.90826 453.1875 292.9375 C 450.02823 294.45977 447.00336 296.49876 444.59375 299.375 C 442.77314 301.53219 441.3172 304.15061 440.4375 307.1875 C 422.50688 311.83079 403.46722 315.4081 384.6875 318.0625 C 348.23723 323.22597 312.76366 325 288.09375 325 C 251.55169 325.0153 191.92067 318.29772 140.875 304.03125 C 140.20183 302.81497 139.402 301.69089 138.46875 300.75 C 134.46801 296.68042 129.03912 294.81948 123.90625 293.3125 C 118.76574 291.85143 113.69575 290.81702 110.78125 289.5625 C 106.75758 287.89488 101.38578 284.27402 95.65625 281 C 89.888464 277.75657 83.68574 274.6786 77 274.625 C 75.362994 274.625 73.707159 274.84588 72.0625 275.3125 C 71.748859 275.10596 71.407392 274.89403 71.09375 274.6875 C 62.748055 269.02681 56.123607 262.9416 51.65625 256.53125 C 47.181239 250.1056 44.85135 243.4489 44.84375 236.28125 C 44.851392 213.0571 52.635699 191.08016 66.34375 171 C 86.882888 140.89889 120.77832 115.24117 160.625 97.21875 C 200.46404 79.173389 246.22925 68.742391 290.375 68.75 z M 77 282.25 C 81.107827 282.19645 86.482043 284.51927 91.875 287.625 C 97.306205 290.69248 102.69558 294.40597 107.84375 296.59375 C 110.6129 297.74884 113.74063 298.50995 116.96875 299.34375 C 121.79564 300.56768 126.79043 301.93331 130.15625 303.9375 C 131.83916 304.93195 133.10304 306.04137 133.90625 307.25 C 134.61001 308.32094 135.08041 309.47969 135.1875 311.09375 L 135.15625 311.09375 C 130.60475 311.13965 124.95724 309.25926 119.28125 308.59375 C 113.62821 307.97413 107.59037 307.65625 101.5625 307.65625 C 99.16818 307.65625 96.769971 307.70541 94.40625 307.8125 C 87.437479 308.11083 80.883011 310.0759 74.65625 312.90625 C 71.336331 314.43617 68.683219 316.60404 66.28125 318.1875 C 65.034368 319.02895 63.923645 319.67302 62.90625 320.09375 C 62.477873 318.88512 62.022778 317.8146 61.625 316.8125 C 60.860042 314.90775 60.276037 313.29309 60.03125 311.28125 C 60.008301 311.05941 60 310.84619 60 310.59375 C 59.984701 309.27037 60.451185 307.37284 61.09375 305.4375 C 61.721016 303.47921 62.502125 301.53479 62.96875 299.5 C 64.07029 294.62721 64.996772 292.68665 66.3125 290.8125 C 67.574681 289.0072 69.641011 287.0009 72.59375 283.375 L 73.34375 282.90625 C 74.491188 282.46257 75.676622 282.25 77 282.25 z M 505.3125 284.125 C 505.24365 285.77731 505.11474 287.99533 505 290.34375 C 504.80111 294.11499 504.6014 298.27057 504.59375 301.4375 C 504.59375 302.11831 504.6333 302.76238 504.65625 303.34375 C 504.74805 305.60803 505.16472 308.41722 505.5625 311.5 C 505.96793 314.55983 506.34375 317.80604 506.34375 320.4375 C 506.382 322.72473 505.94759 324.54607 505.6875 324.875 C 505.17498 325.7394 504.62905 326.20427 503.71875 326.625 C 502.82375 327.02278 501.53626 327.25765 499.9375 327.25 C 496.33455 327.27295 491.43546 325.97181 486.9375 324.28125 C 482.4166 322.59834 478.29796 320.60024 475.78125 319.4375 C 469.91402 316.72955 463.86785 313.11732 456.5625 311.65625 C 454.95609 311.33497 453.45538 311.24235 452.09375 311.25 C 450.13546 311.25765 448.46059 311.4388 447.34375 311.5 L 447.34375 311.46875 C 447.83332 308.32477 448.91523 306.1095 450.4375 304.28125 C 452.71708 301.55035 456.23853 299.64157 460.46875 298.21875 C 464.68367 296.79593 469.47714 295.90769 473.90625 294.875 C 481.181 293.17679 486.36826 290.88619 491.1875 288.84375 C 495.61661 286.96195 499.73595 285.28774 505.3125 284.125 z M 39.09375 306.96875 C 40.072897 308.52161 41.117208 310.03064 42.21875 311.46875 C 72.021531 355.20908 171.66094 387.3125 290 387.3125 C 408.30846 387.3125 507.92427 355.21737 537.75 311.5 L 537.78125 311.5 C 538.87515 310.05423 539.89585 308.55287 540.875 307 C 524.16065 354.95524 448.40508 393.35911 350.40625 404.71875 C 350.56689 404.22152 350.6735 403.69937 350.75 403.15625 L 351.03125 401.0625 L 349.40625 399.71875 C 345.10718 396.2229 339.65386 395.49935 334.40625 395.46875 C 328.04944 395.4764 321.61221 396.68459 317.34375 397.28125 C 308.33254 398.57404 298.56606 400.633 289.5625 400.625 C 287.94844 400.625 286.33412 400.5516 284.78125 400.40625 C 274.40076 399.48065 264.14918 396.59941 252.8125 395.03125 C 250.71651 394.74056 248.62659 394.5 246.5 394.5 C 243.07299 394.49235 239.47292 395.14945 236 397.03125 C 234.66897 397.75795 233.06182 398.78762 231.5625 400.1875 C 230.82049 400.89126 230.08836 401.66946 229.46875 402.65625 C 229.12452 403.21467 228.8156 403.88299 228.59375 404.625 C 131.04626 393.10472 55.716299 354.771 39.09375 306.96875 z M 532.65625 382.21875 C 532.35792 386.94619 531.90021 391.84401 531.25 396.625 C 530.07961 405.25374 528.24441 413.51673 525.78125 419.4375 L 525.71875 419.4375 L 524.71875 421.6875 C 514.5295 444.5368 485.51251 465.76642 444.28125 480.84375 C 403.10354 495.97462 349.92835 505.125 291.90625 505.125 C 233.88415 505.125 180.7166 495.97462 139.53125 480.84375 C 98.299991 465.77406 69.282988 444.5368 59.09375 421.6875 L 58.09375 419.4375 L 58.03125 419.4375 C 55.568087 413.51673 53.725234 405.25374 52.5625 396.625 C 52.15707 393.64167 51.822584 390.62364 51.5625 387.625 C 87.55379 430.18729 180.72569 460.5 290 460.5 C 403.85641 460.5 500.20672 427.59609 532.65625 382.21875 z M 246.5 402.15625 C 248.08346 402.15625 249.85355 402.32601 251.78125 402.59375 C 262.44477 404.04717 272.78002 406.98326 284.09375 408.03125 C 285.9067 408.19189 287.71065 408.25 289.53125 408.25 C 299.6287 408.2347 309.74692 406.09128 318.40625 404.875 C 322.9195 404.22479 328.98969 403.11735 334.375 403.125 C 337.29714 403.10205 339.92501 403.44484 341.90625 404.15625 C 341.69971 404.35514 341.47884 404.56706 341.21875 404.78125 C 339.14571 406.50241 335.35409 408.29545 331.4375 410.0625 C 327.51326 411.8831 323.43353 413.6537 320.3125 416.46875 C 316.41121 420.087 312.77059 424.83228 308.96875 429.0625 C 305.19751 433.30037 301.29111 436.90563 297.71875 438.34375 C 296.25003 438.94807 294.78822 439.2111 293.28125 439.21875 C 289.47176 439.24935 285.08357 437.36029 280.9375 434.46875 C 276.78378 431.60016 272.92279 427.83978 270.03125 424.71875 C 266.26765 420.66447 261.5632 416.22795 256.09375 412.625 C 250.6243 409.03735 244.35403 406.27213 237.5 405.84375 L 236.75 405.78125 C 236.94124 405.59001 237.16911 405.37874 237.40625 405.1875 C 238.14061 404.60613 239.01303 404.07893 239.625 403.75 C 241.84338 402.57196 243.92209 402.17155 246.5 402.15625 z "
     id="path5" />
  <path
     id="path4780"
     d="m 290.375,61.09375 c -51.81063,0.0076 -105.40993,13.893384 -149.96875,37.5 -44.206949,23.43832 -79.648586,56.46417 -95.0625,95.5 -8.024414,7.3436 -13.896875,15.25066 -17.125,23.71875 -4.322015,10.57937 -6.52365,23.49588 -6.53125,36.875 0,12.43823 1.930421,25.27384 6,37.03125 -1.308079,7.95557 -1.875,15.97102 -1.875,23.78125 0,12.94309 1.577036,25.34478 4.09375,36.03125 2.532012,10.70941 5.927815,19.68844 9.875,25.96875 l 0.28125,0.46875 c 1.078592,1.8818 2.253769,3.73425 3.53125,5.5625 1.009745,14.6719 3.360783,30.70448 8.5625,41.40625 l 1.03125,2.15625 0.03125,0 c 12.552968,25.02179 42.723975,45.83722 83.6875,60.9375 42.23335,15.49805 96.1747,24.75 155,24.75 58.8253,0 112.7979,-9.25195 155.03125,-24.75 40.96352,-15.10028 71.10329,-35.91571 83.65625,-60.9375 l 0.0312,0 1.0625,-2.15625 c 3.09809,-6.32621 5.08483,-14.43442 6.5,-23.09375 1.34633,-8.2998 2.10027,-17.05143 2.40625,-24.96875 3.77889,-6.24971 7.02854,-14.97027 9.46875,-25.3125 2.50907,-10.69412 4.09375,-23.08816 4.09375,-36.03125 0,-7.79493 -0.58222,-15.79378 -1.875,-23.71875 4.08488,-11.78036 6.02325,-24.65618 6.03125,-37.125 -0.008,-13.48621 -2.24179,-26.49208 -6.625,-37.125 -2.8686,-7.4048 -7.80401,-14.34226 -14.375,-20.875 C 523.40555,156.0988 488.03067,122.40951 443.25,98.71875 398.11746,74.867347 343.27953,61.10135 290.375,61.09375 z"
     style="fill:#ffffff;fill-opacity:1;opacity:0.25"
     sodipodi:nodetypes="ccccccsccccccccscccccccscccccc" />
</svg>
