<?xml version="1.0" standalone="no"?>
<!DOCTYPE svg PUBLIC "-//W3C//DTD SVG 20001102//EN" "http://www.w3.org/TR/2000/CR-SVG-20001102/DTD/svg-20001102.dtd">
<svg xmlns="http://www.w3.org/2000/svg" width="500" x="0" y="0" height="500" id="/hardmnt/tigre0/ssi/blazek/devel/qgis/cvs/plugins/grass/modules/v.net.nodes.2" >
 <rect width="500" x="0" y="0" height="500" style="stroke:rgb(0,0,0);stroke-width:0;fill:rgb(255,255,255);" />
 <g style="stroke:rgb(0,0,0);stroke-width:0.9;fill:none;" >
  <clipPath id="clip1" >
   <rect width="495" x="0" y="0" height="495" />
  </clipPath>
  <g style="clip-path:url(#clip1)" >
   <polyline points="257 224 132 112" style="stroke:rgb(0,0,0);stroke-width:15;fill:none;" />
   <polyline points="257 224 389 220" style="stroke:rgb(0,0,0);stroke-width:15;fill:none;" />
   <polyline points="257 224 214 381" style="stroke:rgb(0,0,0);stroke-width:15;fill:none;" />
   <polyline points="214 381 93 272" style="stroke:rgb(0,0,0);stroke-width:15;fill:none;" />
   <polyline points="93 272 132 112" style="stroke:rgb(0,0,0);stroke-width:15;fill:none;" />
   <polyline points="132 112 27 9" style="stroke:rgb(0,0,0);stroke-width:15;fill:none;" />
   <polyline points="132 112 243 78" style="stroke:rgb(0,0,0);stroke-width:15;fill:none;" />
   <polyline points="243 78 352 103" style="stroke:rgb(0,0,0);stroke-width:15;fill:none;" />
   <polyline points="352 103 389 220" style="stroke:rgb(0,0,0);stroke-width:15;fill:none;" />
   <polyline points="352 103 465 17" style="stroke:rgb(0,0,0);stroke-width:15;fill:none;" />
   <polyline points="243 78 237 14" style="stroke:rgb(0,0,0);stroke-width:15;fill:none;" />
   <polyline points="389 220 355 375" style="stroke:rgb(0,0,0);stroke-width:15;fill:none;" />
   <polyline points="355 375 214 381" style="stroke:rgb(0,0,0);stroke-width:15;fill:none;" />
   <polyline points="355 375 442 483" style="stroke:rgb(0,0,0);stroke-width:15;fill:none;" />
   <polyline points="214 381 122 468" style="stroke:rgb(0,0,0);stroke-width:15;fill:none;" />
   <polyline points="93 272 30 306" style="stroke:rgb(0,0,0);stroke-width:15;fill:none;" />
   <polyline points="389 220 471 217" style="stroke:rgb(0,0,0);stroke-width:15;fill:none;" />
   <polygon points="255 78 255 78 255 82 253 85 251 87 248 89 244 90 241 90 238 89 235 87 233 84 231 81 231 77 231 74 233 71 235 68 238 66 241 65 245 65 248 67 251 68 253 71 255 74 255 78" style="stroke:rgb(0,0,0);stroke-width:0;fill:rgb(0,255,0);" />
   <polygon points="255 78 255 78 255 82 253 85 251 87 248 89 244 90 241 90 238 89 235 87 233 84 231 81 231 77 231 74 233 71 235 68 238 66 241 65 245 65 248 67 251 68 253 71 255 74 255 78" style="stroke:rgb(0,255,0);stroke-width:15;fill:none;" />
   <polygon points="364 103 364 103 363 107 362 110 359 112 356 114 353 115 350 115 346 114 344 112 341 109 340 106 340 102 340 99 342 96 344 93 347 91 350 90 354 90 357 91 360 93 362 96 364 99 364 103" style="stroke:rgb(0,0,0);stroke-width:0;fill:rgb(0,255,0);" />
   <polygon points="364 103 364 103 363 107 362 110 359 112 356 114 353 115 350 115 346 114 344 112 341 109 340 106 340 102 340 99 342 96 344 93 347 91 350 90 354 90 357 91 360 93 362 96 364 99 364 103" style="stroke:rgb(0,255,0);stroke-width:15;fill:none;" />
   <polygon points="477 17 477 18 477 21 475 24 473 27 470 28 466 29 463 29 460 28 457 26 455 23 453 20 453 17 453 13 455 10 457 8 460 6 464 5 467 5 470 6 473 8 475 10 477 14 477 17" style="stroke:rgb(0,0,0);stroke-width:0;fill:rgb(0,255,0);" />
   <polygon points="477 17 477 18 477 21 475 24 473 27 470 28 466 29 463 29 460 28 457 26 455 23 453 20 453 17 453 13 455 10 457 8 460 6 464 5 467 5 470 6 473 8 475 10 477 14 477 17" style="stroke:rgb(0,255,0);stroke-width:15;fill:none;" />
   <polygon points="249 14 249 15 248 18 247 21 244 24 241 26 238 26 235 26 231 25 228 23 226 21 225 17 225 14 225 11 227 7 229 5 232 3 235 2 239 2 242 3 245 5 247 8 249 11 249 14" style="stroke:rgb(0,0,0);stroke-width:0;fill:rgb(0,255,0);" />
   <polygon points="249 14 249 15 248 18 247 21 244 24 241 26 238 26 235 26 231 25 228 23 226 21 225 17 225 14 225 11 227 7 229 5 232 3 235 2 239 2 242 3 245 5 247 8 249 11 249 14" style="stroke:rgb(0,255,0);stroke-width:15;fill:none;" />
   <polygon points="144 112 144 113 143 116 142 120 139 122 136 124 133 125 129 124 126 123 123 121 121 119 120 115 119 112 120 109 121 106 124 103 127 101 130 100 133 100 137 101 140 103 142 106 143 109 144 112" style="stroke:rgb(0,0,0);stroke-width:0;fill:rgb(0,255,0);" />
   <polygon points="144 112 144 113 143 116 142 120 139 122 136 124 133 125 129 124 126 123 123 121 121 119 120 115 119 112 120 109 121 106 124 103 127 101 130 100 133 100 137 101 140 103 142 106 143 109 144 112" style="stroke:rgb(0,255,0);stroke-width:15;fill:none;" />
   <polygon points="39 9 39 10 39 13 37 16 35 19 32 20 28 21 25 21 22 20 19 18 17 15 15 12 15 9 16 5 17 2 19 -1 22 -2 26 -3 29 -3 32 -2 35 0 38 2 39 5 39 9" style="stroke:rgb(0,0,0);stroke-width:0;fill:rgb(0,255,0);" />
   <polygon points="39 9 39 10 39 13 37 16 35 19 32 20 28 21 25 21 22 20 19 18 17 15 15 12 15 9 16 5 17 2 19 -1 22 -2 26 -3 29 -3 32 -2 35 0 38 2 39 5 39 9" style="stroke:rgb(0,255,0);stroke-width:15;fill:none;" />
   <polygon points="402 220 402 221 401 224 399 227 397 230 394 232 391 232 387 232 384 231 381 229 379 227 377 223 377 220 378 217 379 213 381 211 384 209 388 208 391 208 395 209 397 211 400 214 401 217 402 220" style="stroke:rgb(0,0,0);stroke-width:0;fill:rgb(0,255,0);" />
   <polygon points="402 220 402 221 401 224 399 227 397 230 394 232 391 232 387 232 384 231 381 229 379 227 377 223 377 220 378 217 379 213 381 211 384 209 388 208 391 208 395 209 397 211 400 214 401 217 402 220" style="stroke:rgb(0,255,0);stroke-width:15;fill:none;" />
   <polygon points="484 217 484 217 483 221 481 224 479 226 476 228 473 229 469 229 466 228 463 226 461 223 460 220 459 216 460 213 461 210 464 207 466 205 470 205 473 205 477 206 479 208 482 210 483 213 484 217" style="stroke:rgb(0,0,0);stroke-width:0;fill:rgb(0,255,0);" />
   <polygon points="484 217 484 217 483 221 481 224 479 226 476 228 473 229 469 229 466 228 463 226 461 223 460 220 459 216 460 213 461 210 464 207 466 205 470 205 473 205 477 206 479 208 482 210 483 213 484 217" style="stroke:rgb(0,255,0);stroke-width:15;fill:none;" />
   <polygon points="367 375 367 376 366 380 364 383 362 385 359 387 356 388 352 388 349 386 346 384 344 382 343 379 342 375 343 372 344 369 347 366 350 364 353 363 356 363 360 364 363 366 365 369 366 372 367 375" style="stroke:rgb(0,0,0);stroke-width:0;fill:rgb(0,255,0);" />
   <polygon points="367 375 367 376 366 380 364 383 362 385 359 387 356 388 352 388 349 386 346 384 344 382 343 379 342 375 343 372 344 369 347 366 350 364 353 363 356 363 360 364 363 366 365 369 366 372 367 375" style="stroke:rgb(0,255,0);stroke-width:15;fill:none;" />
   <polygon points="454 483 454 483 453 487 452 490 450 492 447 494 443 495 440 495 436 493 434 491 431 489 430 486 430 482 430 479 432 476 434 473 437 471 440 470 444 470 447 471 450 473 452 476 454 479 454 483" style="stroke:rgb(0,0,0);stroke-width:0;fill:rgb(0,255,0);" />
   <polygon points="454 483 454 483 453 487 452 490 450 492 447 494 443 495 440 495 436 493 434 491 431 489 430 486 430 482 430 479 432 476 434 473 437 471 440 470 444 470 447 471 450 473 452 476 454 479 454 483" style="stroke:rgb(0,255,0);stroke-width:15;fill:none;" />
   <polygon points="226 381 226 382 225 385 224 388 221 390 218 392 215 393 211 393 208 392 205 390 203 387 202 384 201 380 202 377 203 374 206 371 209 370 212 369 216 369 219 370 222 372 224 374 225 377 226 381" style="stroke:rgb(0,0,0);stroke-width:0;fill:rgb(0,255,0);" />
   <polygon points="226 381 226 382 225 385 224 388 221 390 218 392 215 393 211 393 208 392 205 390 203 387 202 384 201 380 202 377 203 374 206 371 209 370 212 369 216 369 219 370 222 372 224 374 225 377 226 381" style="stroke:rgb(0,255,0);stroke-width:15;fill:none;" />
   <polygon points="105 272 105 273 105 276 103 279 101 282 98 283 94 284 91 284 88 283 85 281 83 278 81 275 81 272 82 268 83 265 85 263 88 261 92 260 95 260 98 261 101 263 104 265 105 269 105 272" style="stroke:rgb(0,0,0);stroke-width:0;fill:rgb(0,255,0);" />
   <polygon points="105 272 105 273 105 276 103 279 101 282 98 283 94 284 91 284 88 283 85 281 83 278 81 275 81 272 82 268 83 265 85 263 88 261 92 260 95 260 98 261 101 263 104 265 105 269 105 272" style="stroke:rgb(0,255,0);stroke-width:15;fill:none;" />
   <polygon points="134 468 134 469 133 472 132 475 129 478 126 480 123 480 120 480 116 479 113 477 111 475 110 471 109 468 110 464 112 461 114 459 117 457 120 456 124 456 127 457 130 459 132 462 134 465 134 468" style="stroke:rgb(0,0,0);stroke-width:0;fill:rgb(0,255,0);" />
   <polygon points="134 468 134 469 133 472 132 475 129 478 126 480 123 480 120 480 116 479 113 477 111 475 110 471 109 468 110 464 112 461 114 459 117 457 120 456 124 456 127 457 130 459 132 462 134 465 134 468" style="stroke:rgb(0,255,0);stroke-width:15;fill:none;" />
   <polygon points="270 224 270 225 269 228 267 231 265 233 262 235 259 236 255 236 252 235 249 233 247 230 245 227 245 224 246 220 247 217 249 214 252 213 256 212 259 212 263 213 265 215 268 217 269 220 270 224" style="stroke:rgb(0,0,0);stroke-width:0;fill:rgb(0,255,0);" />
   <polygon points="270 224 270 225 269 228 267 231 265 233 262 235 259 236 255 236 252 235 249 233 247 230 245 227 245 224 246 220 247 217 249 214 252 213 256 212 259 212 263 213 265 215 268 217 269 220 270 224" style="stroke:rgb(0,255,0);stroke-width:15;fill:none;" />
   <polygon points="42 306 42 307 41 310 40 313 37 316 34 317 31 318 28 318 24 317 22 315 19 312 18 309 18 306 18 302 20 299 22 296 25 295 28 294 32 294 35 295 38 297 40 299 42 302 42 306" style="stroke:rgb(0,0,0);stroke-width:0;fill:rgb(0,255,0);" />
   <polygon points="42 306 42 307 41 310 40 313 37 316 34 317 31 318 28 318 24 317 22 315 19 312 18 309 18 306 18 302 20 299 22 296 25 295 28 294 32 294 35 295 38 297 40 299 42 302 42 306" style="stroke:rgb(0,255,0);stroke-width:15;fill:none;" />
   <polygon points="255 78 255 78 255 82 253 85 251 87 248 89 244 90 241 90 238 89 235 87 233 84 231 81 231 77 231 74 233 71 235 68 238 66 241 65 245 65 248 67 251 68 253 71 255 74 255 78" style="stroke:rgb(0,0,0);stroke-width:0;fill:rgb(0,255,0);" />
   <polygon points="255 78 255 78 255 82 253 85 251 87 248 89 244 90 241 90 238 89 235 87 233 84 231 81 231 77 231 74 233 71 235 68 238 66 241 65 245 65 248 67 251 68 253 71 255 74 255 78" style="stroke:rgb(0,255,0);stroke-width:15;fill:none;" />
   <polygon points="367 375 367 376 366 380 364 383 362 385 359 387 356 388 352 388 349 386 346 384 344 382 343 379 342 375 343 372 344 369 347 366 350 364 353 363 356 363 360 364 363 366 365 369 366 372 367 375" style="stroke:rgb(0,0,0);stroke-width:0;fill:rgb(0,255,0);" />
   <polygon points="367 375 367 376 366 380 364 383 362 385 359 387 356 388 352 388 349 386 346 384 344 382 343 379 342 375 343 372 344 369 347 366 350 364 353 363 356 363 360 364 363 366 365 369 366 372 367 375" style="stroke:rgb(0,255,0);stroke-width:15;fill:none;" />
   <polygon points="105 272 105 273 105 276 103 279 101 282 98 283 94 284 91 284 88 283 85 281 83 278 81 275 81 272 82 268 83 265 85 263 88 261 92 260 95 260 98 261 101 263 104 265 105 269 105 272" style="stroke:rgb(0,0,0);stroke-width:0;fill:rgb(0,255,0);" />
   <polygon points="105 272 105 273 105 276 103 279 101 282 98 283 94 284 91 284 88 283 85 281 83 278 81 275 81 272 82 268 83 265 85 263 88 261 92 260 95 260 98 261 101 263 104 265 105 269 105 272" style="stroke:rgb(0,255,0);stroke-width:15;fill:none;" />
  </g>
 </g>
</svg>
