<?xml version="1.0" standalone="no"?>
<!DOCTYPE svg PUBLIC "-//W3C//DTD SVG 20001102//EN" "http://www.w3.org/TR/2000/CR-SVG-20001102/DTD/svg-20001102.dtd">
<svg xmlns="http://www.w3.org/2000/svg" width="500" x="0" y="0" height="500" id="/hardmnt/tigre0/ssi/blazek/devel/qgis/cvs/plugins/grass/modules/v.net.steiner.2" >
 <rect width="500" x="0" y="0" height="500" style="stroke:rgb(0,0,0);stroke-width:0;fill:rgb(255,255,255);" />
 <g style="stroke:rgb(0,0,0);stroke-width:0.9;fill:none;" >
  <clipPath id="clip1" >
   <rect width="495" x="0" y="0" height="495" />
  </clipPath>
  <g style="clip-path:url(#clip1)" >
   <polyline points="257 224 132 112" style="stroke:rgb(0,0,0);stroke-width:15;fill:none;" />
   <polyline points="257 224 389 220" style="stroke:rgb(0,0,0);stroke-width:15;fill:none;" />
   <polyline points="257 224 214 381" style="stroke:rgb(0,0,0);stroke-width:15;fill:none;" />
   <polyline points="214 381 93 272" style="stroke:rgb(0,0,0);stroke-width:15;fill:none;" />
   <polyline points="93 272 132 112" style="stroke:rgb(0,0,0);stroke-width:15;fill:none;" />
   <polyline points="132 112 27 9" style="stroke:rgb(0,0,0);stroke-width:15;fill:none;" />
   <polyline points="132 112 243 78" style="stroke:rgb(0,0,0);stroke-width:15;fill:none;" />
   <polyline points="243 78 352 103" style="stroke:rgb(0,0,0);stroke-width:15;fill:none;" />
   <polyline points="352 103 389 220" style="stroke:rgb(0,0,0);stroke-width:15;fill:none;" />
   <polyline points="352 103 465 17" style="stroke:rgb(0,0,0);stroke-width:15;fill:none;" />
   <polyline points="243 78 237 14" style="stroke:rgb(0,0,0);stroke-width:15;fill:none;" />
   <polyline points="389 220 355 375" style="stroke:rgb(0,0,0);stroke-width:15;fill:none;" />
   <polyline points="355 375 214 381" style="stroke:rgb(0,0,0);stroke-width:15;fill:none;" />
   <polyline points="355 375 442 483" style="stroke:rgb(0,0,0);stroke-width:15;fill:none;" />
   <polyline points="214 381 122 468" style="stroke:rgb(0,0,0);stroke-width:15;fill:none;" />
   <polyline points="93 272 30 306" style="stroke:rgb(0,0,0);stroke-width:15;fill:none;" />
   <polyline points="389 220 471 217" style="stroke:rgb(0,0,0);stroke-width:15;fill:none;" />
   <polyline points="214 381 93 272" style="stroke:rgb(255,0,0);stroke-width:15;fill:none;" />
   <polyline points="93 272 132 112" style="stroke:rgb(255,0,0);stroke-width:15;fill:none;" />
   <polyline points="132 112 243 78" style="stroke:rgb(255,0,0);stroke-width:15;fill:none;" />
   <polyline points="355 375 214 381" style="stroke:rgb(255,0,0);stroke-width:15;fill:none;" />
  </g>
 </g>
</svg>
