<?xml version="1.0" encoding="utf-8"?>
<!-- Generator: Adobe Illustrator 16.0.0, SVG Export Plug-In . SVG Version: 6.00 Build 0)  -->
<!DOCTYPE svg PUBLIC "-//W3C//DTD SVG 1.1//EN" "http://www.w3.org/Graphics/SVG/1.1/DTD/svg11.dtd">
<svg version="1.1"
	 id="svg2" xmlns:dc="http://purl.org/dc/elements/1.1/" xmlns:cc="http://creativecommons.org/ns#" xmlns:rdf="http://www.w3.org/1999/02/22-rdf-syntax-ns#" xmlns:svg="http://www.w3.org/2000/svg" xmlns:sodipodi="http://sodipodi.sourceforge.net/DTD/sodipodi-0.dtd" xmlns:inkscape="http://www.inkscape.org/namespaces/inkscape" inkscape:output_extension="org.inkscape.output.svg.inkscape" sodipodi:docbase="s:\Data\FacilityIcons" sodipodi:docname="toilets_men.svg" inkscape:version="0.46" sodipodi:version="0.32"
	 xmlns="http://www.w3.org/2000/svg" xmlns:xlink="http://www.w3.org/1999/xlink" x="0px" y="0px" width="580px" height="580px"
	 viewBox="0 0 580 580" enable-background="new 0 0 580 580" xml:space="preserve">
<sodipodi:namedview  showgrid="false" inkscape:cy="281.19503" inkscape:cx="301.5186" inkscape:zoom="0.92167712" pagecolor="#ffffff" bordercolor="#666666" guidetolerance="10.0" objecttolerance="10.0" gridtolerance="10.0" borderopacity="1.0" id="base" inkscape:current-layer="svg2" inkscape:window-y="25" inkscape:window-x="91" inkscape:pageopacity="0.0" inkscape:pageshadow="2" inkscape:window-height="947" inkscape:window-width="1048">
	</sodipodi:namedview>
<defs>
	
	
		<inkscape:perspective  inkscape:vp_z="580 : 290 : 1" inkscape:vp_y="0 : 1000 : 0" inkscape:vp_x="0 : 290 : 1" sodipodi:type="inkscape:persp3d" id="perspective2441" inkscape:persp3d-origin="290 : 193.33333 : 1">
		</inkscape:perspective>
	
		<inkscape:perspective  inkscape:vp_z="60 : 30 : 1" inkscape:vp_y="0 : 1000 : 0" inkscape:vp_x="0 : 30 : 1" sodipodi:type="inkscape:persp3d" id="perspective3452" inkscape:persp3d-origin="30 : 20 : 1">
		</inkscape:perspective>
	
		<inkscape:perspective  inkscape:vp_z="744.09448 : 526.18109 : 1" inkscape:vp_y="0 : 1000 : 0" inkscape:vp_x="0 : 526.18109 : 1" sodipodi:type="inkscape:persp3d" id="perspective4471" inkscape:persp3d-origin="372.04724 : 350.78739 : 1">
		</inkscape:perspective>
	
		<inkscape:perspective  inkscape:vp_z="12 : 6 : 1" inkscape:vp_y="0 : 1000 : 0" inkscape:vp_x="0 : 6 : 1" sodipodi:type="inkscape:persp3d" id="perspective4668" inkscape:persp3d-origin="6 : 4 : 1">
		</inkscape:perspective>
</defs>
<g id="layer3" transform="matrix(48.14969,0,0,48.14969,-536.27327,-33.306752)" inkscape:label="Layout" display="none">
	<rect id="rect4134" x="1" y="1" display="inline" fill="none" stroke="#757575" stroke-width="0.1" width="10" height="10"/>
	<rect id="rect4136" x="2" y="2" display="inline" fill="none" stroke="#757575" stroke-width="0.1" width="8" height="8"/>
</g>
<path fill="param(fill) #FFF" stroke="param(outline) #000" stroke-width="param(outline-width) 1" d="M150.768,118.234c11.203,0,20.88-4.075,29.031-12.225
	c8.149-8.15,12.225-17.827,12.225-29.031c0-11.701-4.076-21.498-12.225-29.393c-8.151-7.893-17.828-11.84-29.031-11.841
	c-11.204,0-20.877,3.948-29.019,11.841c-8.143,7.895-12.214,17.692-12.214,29.393c0,11.204,4.071,20.881,12.214,29.031
	C129.891,114.16,139.564,118.235,150.768,118.234z"/>
<path fill="param(fill) #FFF" stroke="param(outline) #000" stroke-width="param(outline-width) 1" d="M258.478,307.641v-126.03c-0.001-14.762-4.965-27.617-14.895-38.564
	c-9.93-10.947-22.789-16.421-38.576-16.421H95.783c-14.763,0-27.365,5.221-37.807,15.663
	c-10.443,10.443-15.664,23.301-15.664,38.576v126.776c0,12.229,5.602,18.344,16.806,18.344c10.69,0,16.036-6.114,16.036-18.344
	V183.919h19.859v336.064c0,15.275,7.637,22.913,22.913,22.913c15.274,0,22.912-7.638,22.913-22.913V325.215h19.859v194.768
	c0,15.275,7.637,22.913,22.912,22.913c15.787,0,23.681-7.638,23.682-22.913V183.919h19.09v123.722
	c0,12.727,5.345,19.09,16.037,19.09C253.124,326.731,258.477,320.367,258.478,307.641z"/>
<polygon fill="param(fill) #FFF" stroke="param(outline) #000" stroke-width="param(outline-width) 1" points="369.634,485.374 350.088,414.853 313.147,414.853 
	293.688,485.374 280.341,414.853 243.314,414.853 271.386,541.086 309.617,541.086 331.661,461.608 353.79,541.086 392.022,541.086 
	419.835,414.853 382.98,414.853 "/>
<path fill="param(fill) #FFF" stroke="param(outline) #000" stroke-width="param(outline-width) 1" d="M516.705,489.507c-1.722,7.979-4.492,14.064-8.31,18.255
	c-3.817,4.19-9.457,6.286-16.92,6.286c-7.692,0-13.662-2.598-17.91-7.793s-6.372-14.796-6.372-28.803
	c0-11.309,1.779-19.604,5.339-24.885c4.707-7.118,11.48-10.678,20.321-10.678c3.903,0,7.434,0.804,10.591,2.411
	s5.827,3.903,8.008,6.889c1.32,1.78,2.584,4.593,3.789,8.438l34.443-7.663c-4.421-13.318-11.18-23.191-20.278-29.621
	s-21.599-9.645-37.5-9.645c-20.321,0-36.036,5.611-47.144,16.834c-11.108,11.224-16.662,27.282-16.662,48.178
	c0,15.671,3.157,28.53,9.472,38.576s13.82,17.063,22.518,21.053c8.696,3.989,19.905,5.984,33.625,5.984
	c11.309,0,20.622-1.636,27.941-4.908c7.319-3.271,13.447-8.122,18.384-14.552s8.554-14.438,10.85-24.024L516.705,489.507z"/>
</svg>
