<svg enable-background="new 0 0 580 580" height="580" viewBox="0 0 580 580" width="580" xmlns="http://www.w3.org/2000/svg">
<path d="m289.938 4.844c-14.384-.032-31.142 4.359-43.156 11.281-1.656.954-4.719 2.677-6.813 3.844s-7.497 4.309-12 6.969c-12.577 7.428-23.646 12.809-32.094 15.625-16.816 5.607-31.771 7.919-50.281 7.719-15.77-.17-22.998.712-28.625 3.531-4.019 2.013-6.289 4.164-7.969 7.563-1.303 2.637-1.438 3.169-1.594 6.938-.185 4.489.273 7.501 1.5 9.813.836 1.574 3.459 4.919 7.563 9.688 1.362 1.583 3.66 4.313 5.125 6.063s4.49 5.24 6.688 7.75 4.663 5.375 5.5 6.375c1.774 2.12 9.236 10.433 12.594 14.031 1.275 1.367 4.6 5.048 7.375 8.188 3.059 3.46 6.158 6.919 9.313 10.438 5.361-4.531 10.986-8.801 16.813-12.75-.297-.339-.49-.542-.781-.875-5.226-5.977-11.96-13.703-14.969-17.156-7.008-8.044-11.942-13.687-14.344-16.375-1.046-1.172-3.294-3.72-4.969-5.688-1.675-1.968-3.826-4.442-4.781-5.5s-2.146-2.474-2.656-3.125-2.017-2.417-3.344-3.938c-2.08-2.385-2.34-2.848-1.875-3.313.629-.629 4.938-.802 26.188-1.063 20.308-.249 22.098-.505 35.938-5.063 7.95-2.618 14.128-5.361 23.813-10.594 8.039-4.343 17.417-9.458 21.5-11.75 10.168-5.707 20.877-10.889 26.25-12.688 4.327-1.449 11.894-3.497 16.031-4.313 5.554-1.095 15.43-1.193 20.688-.219 12.289 2.277 28.368 8.552 40 15.594 2.598 1.572 5.636 3.313 6.75 3.875s5.381 2.93 9.5 5.25 8.359 4.676 9.406 5.25 4.205 2.339 7.031 3.938c11.503 6.504 23.621 11.8 34.531 15.063 7.907 2.365 12.098 3 22.75 3.438 17.938.737 25.695 1.403 26.219 2.25.095.154-3.969 4.472-9.031 9.594-8.624 8.725-27.082 27.016-42.125 41.813 5.972 4.39 11.69 9.107 17.125 14.125 5.787-5.796 11.464-11.511 18.469-18.5 23.705-23.652 36.702-36.881 37.563-38.25 2.154-3.43 2.313-4.065 2.344-10.156.023-4.569-.12-6.047-.719-7.875-.908-2.775-3.345-5.592-6-6.938-6.936-3.515-13.386-4.847-27.281-5.656-16.42-.957-19.459-1.263-26.594-2.656-10.884-2.126-21.676-5.762-33.344-11.219-4.554-2.129-6.521-3.251-19.75-11.219-4.841-2.916-10.583-6.311-12.781-7.563s-5.968-3.459-8.375-4.906c-11.972-7.196-27.883-13.513-38.563-15.313-4.841-.816-12.281-1.329-19.753-1.345zm-209.532 91.031c-3.626-.09-7.759.432-10.531 1.469-6.875 2.572-9.574 10.685-10.5 31.75-.761 17.304-.898 18.389-4 29.719-2.763 10.091-5.622 17.379-11.781 30-4.581 8.882-9.385 18.279-15.406 26.094 0 .694-2.872 6.577-3.813 7.813-1.21 1.589-9.371 17.503-11.313 22.063-5.295 12.435-7.98 23.268-8.875 36.031-.831 11.855.597 21.166 5.594 36.656 2.032 6.299 6.618 16.143 15.625 33.5 12.922 24.902 16.209 32.098 20.031 43.875 5.248 16.172 6.281 23.51 6.063 42.906-.091 8.127.023 13.921.281 15.594 1.774 11.495 7.733 18.033 17.031 18.688 2.799.197 3.086.145 5.688-1.125 3.578-1.746 5.893-3.249 13.25-8.563 5.722-4.134 8.779-6.531 16.281-12.719 1.712-1.412 4.067-3.276 5.219-4.156s3.383-2.806 4.969-4.281 4.979-4.489 7.563-6.688c7.97-6.782 12.588-10.765 17.688-15.281-4.705-5.573-9.113-11.426-13.188-17.5-.115.104-.378.354-.469.438-1.262 1.159-3.172 2.801-4.219 3.625s-3.887 3.215-6.313 5.313c-5.962 5.157-12.899 11.078-18 15.344-3.963 3.314-5.332 4.495-13.531 11.563-1.781 1.535-4.833 4.097-6.75 5.719-1.917 1.622-3.557 2.969-3.656 2.969-.674 0-.84-3.218-.875-17.906-.025-10.936-.168-17.459-.469-19.219-1.348-7.887-4.433-18.014-8.219-27-1.915-4.545-7.819-16.158-17-33.5-11.442-21.614-14.521-28.353-17.781-39-5.509-17.988-5.591-29.74-.375-46.625 3.666-11.866 8.643-22.28 18.844-39.406 15.09-25.334 19.15-33.064 24.875-47.281 6.149-15.27 6.523-17.629 7.875-49 .252-5.854.323-6.271 1.031-6.406.583-.111 8.909 8.031 35.875 35.156 5.835 5.869 11.043 11.127 15.781 15.938 4.33-5.714 8.994-11.17 13.906-16.375-.438-.442-.734-.729-1.188-1.188-19.474-19.679-38.555-40.252-59.656-58.156-1.391-.507-3.386-.794-5.562-.848zm425.25 11.781c-2.293.058-3.68.469-4.906 1.281-.84.556-4.947 4.106-9.125 7.906s-8.646 7.847-9.938 8.969-5.403 4.892-9.156 8.375c-13.341 12.382-18.43 17.024-22.5 20.594-2.268 1.988-5.271 4.65-6.656 5.906-.751.681-1.786 1.586-2.625 2.344 4.782 5.572 9.259 11.416 13.406 17.5 1.325-1.22 2.854-2.612 3.813-3.5 2.71-2.512 6.661-6.078 8.781-7.938s6.143-5.545 8.969-8.188 6.513-6.007 8.188-7.469 5.464-4.87 8.406-7.594c11.387-10.542 14.407-13.123 14.813-12.719.254.253.455 6.365.594 17.188.273 21.346.339 21.771 4.813 36.063 3.299 10.539 4.747 13.747 18.688 41.844 11.93 24.045 13.11 26.716 17.781 39.781 5.514 15.422 7.041 27.498 4.969 39.313-1.219 6.948-1.778 9.016-4 14.813-4.684 12.217-7.709 18.052-20.5 39.5-3.87 6.488-7.976 13.418-9.125 15.406s-2.679 4.65-3.406 5.906c-3.771 6.514-11.235 23.235-12.813 28.719-1.927 6.701-2.938 13.163-3.281 21.125-.526 12.191-1.191 22.723-1.5 23.781-.152.523-.533 1.002-.844 1.063-.983.19-.948.226-18.031-16.094-4.602-4.396-14.943-14.235-23-21.875-3.751-3.557-6.196-5.898-9.094-8.656-4.185 5.525-8.646 10.824-13.375 15.875 5.251 5.063 10.737 10.354 12.406 12 1.697 1.675 6.303 6.139 10.25 9.906s9.257 8.826 11.781 11.25 9.044 8.593 14.5 13.719c11.44 10.748 10.767 10.363 17.719 10.156 4.009-.119 4.544-.226 6.875-1.375 1.672-.824 3.208-1.962 4.5-3.375 4.614-5.049 6.339-11.404 7.219-26.375 1.001-17.03 1.077-17.595 2.469-23.781 3.839-17.061 10.433-32.651 22.469-53.094 6.854-11.641 10.417-17.664 12.281-20.719 2.675-4.383 6.948-12.577 8.469-16.219 4.319-10.349 4.859-11.794 6.438-18.094 4.474-17.863 4.085-34.614-1.188-52.125-3.403-11.303-6.308-17.942-20.469-47-9.101-18.674-8.66-17.678-12.344-27.375-4.801-12.639-7.302-21.323-9.031-31.281-.689-3.974-.855-6.957-1.094-19.344-.268-13.906-.32-14.884-1.281-19.219-1.799-8.117-2.999-10.928-5.688-13.406-2.155-1.987-4.398-2.694-10.344-3.219-2.193-.192-3.907-.283-5.283-.249zm-351.5 327.188c-11.737 12.143-26.018 26.78-34.719 35.531-19.849 19.962-21.754 22.32-22.781 28.219-1 5.741.101 10.503 3.281 14.219 4.511 5.27 11.687 7.702 24.344 8.25 20.569.891 23.621 1.311 35.781 4.781 14.945 4.266 31.861 12.33 52.875 25.188 1.884 1.152 4.463 2.675 5.719 3.375 1.256.701 4.332 2.476 6.844 3.969 17.502 10.404 31.823 15.314 48.344 16.563 3.137.237 5.768.513 5.875.625.365.383 15.398-.259 19.031-.813 11.692-1.782 21.691-4.732 31.219-9.25 2.198-1.042 7.159-3.396 11.031-5.219s10.636-5.063 15.031-7.219c9.032-4.431 19.135-9.192 21.125-9.938.732-.274 2.618-1.032 4.188-1.688 10.771-4.499 19.506-7.116 31.969-9.625 9.523-1.917 9.257-1.919 22.875-1.844 11.927.065 12.593.041 17.5-.906 5.42-1.047 11.704-2.883 13.281-3.875 2.185-1.374 3.88-4.144 4.5-7.344.224-1.151.519-4.222.656-6.844.198-3.791.138-5.049-.313-6.125-.537-1.284-8.148-10.352-13.563-16.156-2.965-3.179-10.968-12.146-21.938-24.531-4.356-4.919-11.007-12.278-14.781-16.344-1.308-1.409-2.698-2.921-4.063-4.406-5.306 4.442-10.838 8.595-16.594 12.469 2.784 3.051 5.11 5.532 7.156 7.688 1.796 1.892 6.466 7.042 10.406 11.438s8.657 9.522 10.469 11.406 4.319 4.63 5.563 6.094 3.646 4.126 5.344 5.906c4.085 4.282 8.14 9.185 7.906 9.563-.548.886-4 1.115-17.531 1.094-14.298-.023-14.44-.029-20.906 1.094-10.411 1.809-22.375 5.288-31.563 9.188-1.884.8-13.08 6.244-24.906 12.094-29.04 14.363-27.838 13.83-40.438 18-7.397 2.448-12.359 3.677-18.375 4.563-3.588.528-6.764.728-11.594.688-7.167-.06-6.996-.05-12.906-.938-7.775-1.168-23.374-6.823-32-11.594-3.422-1.893-15.347-8.775-15.813-9.125-.778-.585-22.045-12.941-27-15.688-7.29-4.04-18.004-8.66-26.719-11.531-9.264-3.052-13.808-3.648-36.719-4.781-4.954-.245-9.208-.589-9.469-.75-.351-.217-.217-.625.563-1.563 1.339-1.611 12.146-12.859 26.469-27.563 3.663-3.76 11.535-11.896 17.5-18.063 1.477-1.526 2.598-2.674 4.188-4.313-5.693-4.365-11.159-9.024-16.342-13.969z" fill="param(fill)" stroke="param(outline)" stroke-miterlimit="10" stroke-width="param(outline-width)"/>
<path d="m295.313 81.875c.671 4.799 1.242 9.619 2.344 14.156.706 3.545 1.667 6.98 2.813 10.344 98.016 5.11 175.813 86.078 175.813 185.375 0 65.486-33.842 122.992-85 156.031-.011.009-.021.022-.031.031-.82.657-1.719 1.229-2.656 1.688-.063.03-.125.064-.188.094-9.804 6.08-20.214 11.276-31.125 15.469-8.957 12.026-19.126 23.049-30.031 33.406 98.357-17.369 173.313-103.46 173.313-206.719-.002-114.175-91.667-207.37-205.252-209.875zm-35.813 2.219c-101.042 15.084-178.781 102.483-178.781 207.656 0 107.078 80.601 195.676 184.313 208.344-13.698-9.278-26.348-20.405-36.594-33.375-71.963-25.546-123.438-94.192-123.438-174.969 0-90.477 64.573-165.724 150.188-182.25 1.007-8.591 2.511-17.094 4.312-25.406zm21.844 393.031c-.862 8.063-1.095 16.181-.625 24.281 1.89.088 3.785.149 5.688.188 2.4-8.048 4.678-16.121 6.625-24.25-.805.011-1.6.031-2.406.031-3.113 0-6.208-.099-9.282-.25z" fill="param(fill)" stroke="param(outline)" stroke-miterlimit="10" stroke-width="param(outline-width)"/>
<path d="m198.671 425.135c-27.905-15.739-44.913-52.539-32.354-107.539 8.81-38.584 34.48-86.202 14.807-125.852 23.865 16.496 48.678 55.721 73.702 100.024 1.726-47.911-23.136-79.302-5.264-144.772 12.262 80.995 61.452 86.016 86.425 159.688 10.622-34.639 32.718-46.04 21.935-132.05 108.582 148.29 46.696 200.968 25.007 254.01l7.019-73.703c-34.055 98.442-61.34 116.604-85.985 138.631 13.774-46.21 19.206-92.42-8.774-138.631-6.793 75.872-25.965 60.084-29.832 121.083-38.335-28.934-46.208-58.613-53.083-107.044-5.218 5.667-14.025 29.354-13.603 56.155z" fill="param(fill)" stroke="param(outline)" stroke-miterlimit="10" stroke-width="param(outline-width)"/>
<path d="m278.077 71.1c-28.396 115.307 23.448 114.293 52.206 182.063 20.171-104.498-40.173-80.986-52.206-182.063z" fill="param(fill)" stroke="param(outline)" stroke-miterlimit="10" stroke-width="param(outline-width)"/>
</svg>
