<svg enable-background="new 0 0 580 580" height="580" viewBox="0 0 580 580" width="580" xmlns="http://www.w3.org/2000/svg">
<path d="m117.853 49.031c-10.577.001-19.8 3.838-27.635 11.474-7.834 7.637-11.744 16.907-11.744 27.866 0 10.972 3.91 20.306 11.744 27.943 7.834 7.637 17.058 11.436 27.635 11.436.39 0 .771-.01 1.157-.019.39.01.782.019 1.177.019 10.576 0 19.761-3.798 27.596-11.436 7.834-7.637 11.744-16.971 11.744-27.943-.001-10.959-3.911-20.229-11.744-27.866-7.835-7.637-17.02-11.474-27.596-11.474-.394 0-.786.029-1.177.039-.386-.01-.768-.039-1.157-.039zm-29.969 81.121c-2.38 0-4.547.255-6.479.771-1.271-.116-2.549-.166-3.838-.135-18.516.438-33.189 15.81-32.764 34.326l.694 78.236c-.07 12.104 6.387 23.303 16.893 29.313 2.149 1.229 4.402 2.195 6.711 2.912v10.24 2.97l49.908-1.466 49.928 1.466v-2.97-11.744c1.121-.51 2.206-1.077 3.278-1.717 10.398-6.195 16.656-17.501 16.373-29.601l-.675-78.256c.047-9.066-3.578-17.773-10.047-24.125-5.828-5.722-13.523-9.089-21.618-9.546-1.836-.453-3.865-.675-6.094-.675h-62.27z" fill="param(fill)" opacity=".5" stroke="param(outline)" stroke-width="param(outline-width)" transform="matrix(1.871692 0 0 1.871692 79.48837 -14.535408)"/>
<path d="m534.666 48.007c.176-.777.219-1.585.101-2.392-.205-1.394-.064-3.597.072-5.728.309-4.821.659-10.286-2.3-14.424-1.226-1.714-3.202-2.731-5.31-2.731h-473.176c-1.897 0-3.701.825-4.94 2.261s-1.794 3.34-1.517 5.217c.205 1.394.064 3.597-.073 5.728-.224 3.487-.462 7.309.54 10.725-.289.75-.448 1.552-.448 2.376v485.171c-.107.656-.119 1.33-.02 2.002.008.056.012.12.02.178v4.047c-.028.497-.06 1.002-.092 1.503-.309 4.821-.659 10.285 2.3 14.424 1.226 1.714 3.203 2.73 5.31 2.73h473.176c1.897 0 3.7-.825 4.94-2.261 1.24-1.437 1.794-3.341 1.518-5.218-.205-1.394-.064-3.597.072-5.727.19-2.979.396-6.203-.173-9.209zm-160.872 369.696c-.926 1.14-1.479 2.593-1.479 4.172v106.858h-142.349v-105.64c0-2.031-.918-3.859-2.372-5.078 1.454-1.219 2.372-3.047 2.372-5.078v-359.843h142.349v360.438c0 1.576.553 3.03 1.479 4.171zm-174.167-364.609v337.531c0 3.293 2.42 6.086 5.68 6.555 5.577.803 9.83 7.748 11 13.876.013.068.027.137.042.204.155.693.291 1.5.428 2.539.224 1.708 1.083 3.186 2.315 4.217-1.229 1.029-2.088 2.503-2.314 4.207-.542 4.09-2.72 13.74-11.242 16.287-.027.003-.055.006-.082.01-3.326.402-5.827 3.225-5.827 6.574v83.64h-121.651v-475.64zm203.026 475.639v-83.671c0-3.259-2.37-6.033-5.59-6.541-6.312-.997-11.133-9.756-11.513-16.993-.076-1.453-.615-2.774-1.47-3.825.774-.953 1.292-2.13 1.438-3.435.809-7.222 4.356-15.506 11.886-17.103 3.061-.648 5.249-3.351 5.249-6.479v-337.592h101.652v475.64h-101.652z" fill="param(fill)" stroke="param(outline)" stroke-miterlimit="10" stroke-width="param(outline-width)"/>
</svg>
