<?xml version="1.0" encoding="UTF-8" standalone="no"?>
<!-- Created with Inkscape (http://www.inkscape.org/) -->
<svg
   xmlns:dc="http://purl.org/dc/elements/1.1/"
   xmlns:cc="http://creativecommons.org/ns#"
   xmlns:rdf="http://www.w3.org/1999/02/22-rdf-syntax-ns#"
   xmlns:svg="http://www.w3.org/2000/svg"
   xmlns="http://www.w3.org/2000/svg"
   xmlns:sodipodi="http://sodipodi.sourceforge.net/DTD/sodipodi-0.dtd"
   xmlns:inkscape="http://www.inkscape.org/namespaces/inkscape"
   version="1.0"
   width="580"
   height="580"
   id="svg2"
   sodipodi:version="0.32"
   inkscape:version="0.46"
   sodipodi:docname="toilets_disabled.svg"
   sodipodi:docbase="s:\Data\FacilityIcons"
   inkscape:output_extension="org.inkscape.output.svg.inkscape">
  <metadata
     id="metadata2975">
    <rdf:RDF>
      <cc:Work
         rdf:about="">
        <dc:format>image/svg+xml</dc:format>
        <dc:type
           rdf:resource="http://purl.org/dc/dcmitype/StillImage" />
			  <cc:license
           rdf:resource="http://web.resource.org/cc/PublicDomain" />
        <dc:language>en</dc:language>
      </cc:Work>
    </rdf:RDF>
  </metadata>
  <sodipodi:namedview
     inkscape:window-height="947"
     inkscape:window-width="1048"
     inkscape:pageshadow="2"
     inkscape:pageopacity="0.0"
     guidetolerance="10.0"
     gridtolerance="10.0"
     objecttolerance="10.0"
     borderopacity="1.0"
     bordercolor="#666666"
     pagecolor="#ffffff"
     id="base"
     inkscape:zoom="0.92167712"
     inkscape:cx="313.12267"
     inkscape:cy="281.19503"
     inkscape:window-x="91"
     inkscape:window-y="25"
     inkscape:current-layer="svg2"
     showgrid="false" />
  <defs
     id="defs4">
    <inkscape:perspective
       sodipodi:type="inkscape:persp3d"
       inkscape:vp_x="0 : 290 : 1"
       inkscape:vp_y="0 : 1000 : 0"
       inkscape:vp_z="580 : 290 : 1"
       inkscape:persp3d-origin="290 : 193.33333 : 1"
       id="perspective2441" />
    <inkscape:perspective
       id="perspective3452"
       inkscape:persp3d-origin="30 : 20 : 1"
       inkscape:vp_z="60 : 30 : 1"
       inkscape:vp_y="0 : 1000 : 0"
       inkscape:vp_x="0 : 30 : 1"
       sodipodi:type="inkscape:persp3d" />
    <symbol
       viewBox="244.5 110 489 219.9"
       id="symbol-university">
      <path
         id="path4460"
         d="M79,43l57,119c0,0,21-96,104-96s124,106,124,106l43-133l82-17L0,17L79,43z" />
      <path
         id="path4462"
         d="M94,176l-21,39"
         stroke-width="20"
         stroke="#000000"
         fill="none" />
      <path
         id="path4464"
         d="M300,19c0,10.5-22.6,19-50.5,19S199,29.5,199,19s22.6-19,50.5-19S300,8.5,300,19z" />
      <path
         id="path4466"
         d="M112,216l-16-38L64,88c0,0-9-8-4-35s16-24,16-24"
         stroke-width="20"
         stroke="#000000"
         ill="none" />
    </symbol>
    <inkscape:perspective
       id="perspective4471"
       inkscape:persp3d-origin="372.04724 : 350.78739 : 1"
       inkscape:vp_z="744.09448 : 526.18109 : 1"
       inkscape:vp_y="0 : 1000 : 0"
       inkscape:vp_x="0 : 526.18109 : 1"
       sodipodi:type="inkscape:persp3d" />
    <inkscape:perspective
       id="perspective4668"
       inkscape:persp3d-origin="6 : 4 : 1"
       inkscape:vp_z="12 : 6 : 1"
       inkscape:vp_y="0 : 1000 : 0"
       inkscape:vp_x="0 : 6 : 1"
       sodipodi:type="inkscape:persp3d" />
    <inkscape:perspective
       sodipodi:type="inkscape:persp3d"
       inkscape:vp_x="0 : 240 : 1"
       inkscape:vp_y="0 : 1000 : 0"
       inkscape:vp_z="480 : 240 : 1"
       inkscape:persp3d-origin="240 : 160 : 1"
       id="perspective2541" />
    <inkscape:perspective
       sodipodi:type="inkscape:persp3d"
       inkscape:vp_x="0 : 290 : 1"
       inkscape:vp_y="0 : 1000 : 0"
       inkscape:vp_z="580 : 290 : 1"
       inkscape:persp3d-origin="290 : 193.33333 : 1"
       id="perspective6954" />
    <inkscape:perspective
       sodipodi:type="inkscape:persp3d"
       inkscape:vp_x="0 : 29.116032 : 1"
       inkscape:vp_y="0 : 1000 : 0"
       inkscape:vp_z="58.232063 : 29.116032 : 1"
       inkscape:persp3d-origin="29.116032 : 19.410688 : 1"
       id="perspective6807" />
    <style
       id="style6"
       type="text/css">
   
    .fil0 {fill:#EF7900}
   
  </style>
    <inkscape:perspective
       id="perspective12"
       inkscape:persp3d-origin="290 : 193.33333 : 1"
       inkscape:vp_z="580 : 290 : 1"
       inkscape:vp_y="0 : 1000 : 0"
       inkscape:vp_x="0 : 290 : 1"
       sodipodi:type="inkscape:persp3d" />
  </defs>
  <g
     id="g1327">
    <path
       d="M 66.275,1.768 C 24.94,1.768 1.704,23.139 1.704,66.804 L 1.704,516.927 C 1.704,557.771 22.599,579.156 63.896,579.156 L 515.92,579.156 C 557.227,579.156 578.149,558.841 578.149,516.927 L 578.149,66.804 C 578.149,24.203 557.227,1.768 514.628,1.768 C 514.624,1.768 66.133,1.625 66.275,1.768 z "
       style="fill:#111;stroke:#eee;stroke-width:3.40799999"
       id="path1329" />
  </g>
  <g
     id="layer3"
     inkscape:label="Layout"
     style="display:none;stroke:#757575;stroke-opacity:1"
     transform="matrix(48.14969,0,0,48.14969,-536.27327,-33.306752)">
    <rect
       style="fill:none;stroke:#757575;stroke-width:0.10000000000000001;stroke-miterlimit:4;stroke-dasharray:none;stroke-opacity:1;display:inline"
       id="rect4134"
       width="10"
       height="10"
       x="1"
       y="1" />
    <rect
       style="fill:none;stroke:#757575;stroke-width:0.10000000000000001;stroke-miterlimit:4;stroke-dasharray:none;stroke-opacity:1;display:inline"
       id="rect4136"
       width="8"
       height="8"
       x="2"
       y="2" />
  </g>
  <g
     transform="matrix(1.1036393,0,0,1.0674681,-199.60691,-196.49434)"
     inkscape:label="Ebene 1"
     id="layer1"
     style="fill:#ffffff">
    <path
       style="fill:#ffffff"
       sodipodi:nodetypes="cccccccccccccccccccccccccccc"
       id="path1631"
       d="M 475.14239,512.18475 C 455.98022,507.82608 355.63011,511.46176 326.61273,511.45765 C 325.71817,448.40152 325.49175,385.33666 324.95769,322.27616 C 306.90185,303.3047 316.35912,268.99957 341.47238,261.63101 C 366.33467,251.38896 397.00821,274.41644 392.9612,301.45924 C 394.05008,322.82207 369.20964,328.02258 360.82849,339.80159 C 360.22642,364.7506 359.67445,389.78618 361.1968,414.70072 C 394.99835,417.41822 429.25883,415.41662 463.26461,415.88181 C 463.26461,426.84659 463.26461,437.81138 463.26461,448.77616 C 429.95472,448.77616 396.64484,448.77616 363.33495,448.77616 C 355.12082,467.7601 363.27055,483.41896 361.46514,481.67273 C 399.06092,481.85538 460.65743,481.74632 498.25356,481.77616 C 519.8184,526.09655 540.56669,571.03397 562.33619,615.10231 C 585.20389,612.33784 601.8056,599.41482 610.49782,598.85868 C 620.02186,598.03601 620.26631,628.40996 619.21194,627.50546 C 598.78942,634.85834 566.55746,650.7486 546.02023,657.77617 C 540.84192,649.38539 494.42324,551.84326 475.14239,512.18475 z M 358.74924,701.28513 C 313.89925,696.29491 282.53144,682.88945 258.60122,661.39393 C 224.38105,631.56517 204.61044,585.48831 209.87972,539.92978 C 212.43349,488.27629 246.91682,441.52959 292.5749,418.84829 C 299.82092,425.55951 294.94651,442.87901 296.24292,454.29174 C 298.17472,464.19329 285.0523,466.91187 280.24747,473.7567 C 246.33625,506.2488 238.90725,561.67428 260.34286,603.08127 C 283.01946,650.13041 340.39421,679.64452 391.57378,665.24716 C 429.9463,655.60354 460.34575,626.64192 480.54345,593.67296 C 488.98781,600.44577 506.98711,629.12461 488.76424,641.77672 C 457.9627,680.46369 408.61325,704.72754 358.74924,701.28513 z" />
  </g>
  <path
     style="font-size:176.34767151px;font-style:normal;font-variant:normal;font-weight:normal;font-stretch:normal;text-align:start;line-height:100%;writing-mode:lr-tb;text-anchor:start;fill:#ffffff;fill-opacity:1;stroke:none;stroke-width:1px;stroke-linecap:butt;stroke-linejoin:miter;stroke-opacity:1;font-family:Arial Black;-inkscape-font-specification:Arial Black"
     d="M 248.38977,29.174988 L 285.41589,29.174988 L 298.76252,99.696835 L 318.22276,29.174988 L 355.16277,29.174988 L 374.70912,99.696835 L 388.05575,29.174988 L 424.90965,29.174988 L 397.09701,155.40823 L 358.86539,155.40823 L 336.73582,75.931231 L 314.69236,155.40823 L 276.46074,155.40823 L 248.38977,29.174988 z M 521.78032,103.82998 L 555.96491,114.16286 C 553.66858,123.7495 550.05208,131.75746 545.11539,138.18678 C 540.17846,144.61613 534.0505,149.46684 526.73149,152.73891 C 519.41228,156.01098 510.09835,157.64702 498.78968,157.64702 C 485.06987,157.64702 473.86158,155.6522 465.1648,151.66257 C 456.46793,147.67294 448.96226,140.6552 442.64775,130.60934 C 436.33321,120.56353 433.17594,107.70486 433.17595,92.033289 C 433.17594,71.138011 438.72986,55.079023 449.83771,43.856276 C 460.94551,32.633753 476.66007,27.022435 496.98143,27.022307 C 512.88249,27.022435 525.38238,30.237103 534.48114,36.66632 C 543.57969,43.095775 550.33911,52.969397 554.7594,66.287218 L 520.3165,73.950764 C 519.1109,70.104725 517.848,67.291891 516.52778,65.512253 C 514.34631,62.527294 511.67698,60.231102 508.51981,58.623672 C 505.36246,57.016435 501.83206,56.212768 497.92861,56.212668 C 489.0882,56.212768 482.31444,59.771864 477.6073,66.889969 C 474.04815,72.171297 472.2686,80.466289 472.26865,91.774967 C 472.2686,105.7818 474.39258,115.38275 478.64059,120.57785 C 482.88849,125.77301 488.85858,128.37058 496.5509,128.37055 C 504.01345,128.37058 509.65347,126.27531 513.47097,122.08472 C 517.2883,117.89421 520.05808,111.8093 521.78032,103.82998 L 521.78032,103.82998 z"
     id="text5207" />
</svg>
