<svg enable-background="new 0 0 580 580" height="580" viewBox="0 0 580 580" width="580" xmlns="http://www.w3.org/2000/svg">
<path d="m187.957 205.075c-136.719 191.014-82.72 288.898-60.842 303.502l88.727-127.261c-17.758-12.381-7.85-34.209 15.909-76.933 15.721-28.27 37.722-61.492 63.833-91.558 18.325-21.095 38.077-40.383 56.675-27.417l90.836-130.532c-23.009-12.491-125.35-31.128-255.138 150.199z" fill="param(fill)" fill-opacity="param(fill-opacity)" stroke="param(outline)" stroke-opacity="param(outline-opacity)" stroke-width="param(outline-width)"/>
<path d="m261.698 413.132l-36.05-25.134-88.956 127.59c0 0 35.923 25.128 35.974 25.119l.076.015c8.226 5.735 18.798 3.146 24.034-4.363l.101-.019c0 0 69.095-99.229 69.137-99.288 5.486-7.868 3.433-18.518-4.316-23.92z" fill="param(fill)" fill-opacity="param(fill-opacity)" stroke="param(outline)" stroke-opacity="param(outline-opacity)" stroke-width="param(outline-width)"/>
<path d="m489.108 86.958l-36.05-25.134-90.951 130.452c0 0 35.923 25.128 35.974 25.119l.076.015c8.226 5.735 18.798 3.147 24.034-4.364l.101-.018c0 0 71.09-102.09 71.131-102.15 5.486-7.869 3.434-18.518-4.315-23.92z" fill="param(fill)" fill-opacity="param(fill-opacity)" stroke="param(outline)" stroke-opacity="param(outline-opacity)" stroke-width="param(outline-width)"/>
</svg>
