<svg enable-background="new 0 0 580 580" height="580" viewBox="0 0 580 580" width="580" xmlns="http://www.w3.org/2000/svg">
<path d="m122.818 93.71c.089.126.184.248.284.366 13.298 15.567 25.456 29.167 37.168 41.575 1.026 1.087 2.481 1.655 3.976 1.556 1.444-.098 2.772-.817 3.645-1.967.31-.284 1.207-.833 1.808-1.201 2.403-1.472 5.693-3.488 5.792-7.423.04-1.593-.492-3.867-3.131-5.926-4.838-5.748-9.935-11.396-14.868-16.863-9.117-10.103-18.534-20.538-26.38-31.709.055-.216.147-.322.211-.396.735-.848 3.131-1.707 6.29-1.707.609 0 1.202.032 1.762.096.2.022.399.026.602.032 2.316-.018 4.645-.019 6.981-.021 20.013-.011 40.705-.022 59.306-10.082 8.528-3.895 16.919-8.605 25.035-13.162 20.209-11.346 39.301-22.063 61.642-22.284 23.168.472 43.906 12.527 63.964 24.186 6.268 3.644 12.747 7.41 19.211 10.771 22.293 12.595 42.773 18.719 62.604 18.719.975 0 1.948-.015 2.925-.045 1.747.125 3.54.141 5.277.157 4.905.044 9.561.085 12.339 2.424.161 1.371-.925 2.709-4.442 5.88-1.596 1.438-3.242 2.922-4.581 4.663-10.712 10.73-22.14 22.1-37.005 36.817-1.187 1.174-1.743 2.847-1.427 4.486.317 1.639 1.396 2.995 2.935 3.643.387.216 1.293 1.131 1.892 1.737 1.918 1.938 4.304 4.349 7.731 4.349 1.307 0 3.239-.372 5.087-2.209 5.568-5.741 11.421-11.445 17.081-16.961 11.584-11.29 23.562-22.964 34.034-35.834.354-.434.632-.925.822-1.451 1.983-5.469 1.259-12.021-1.846-16.692-2.53-3.806-6.373-6.079-10.858-6.437-8.687-1.928-17.54-2.56-26.106-3.171-10.772-.77-20.947-1.496-30.766-4.58-.069-.022-.14-.042-.209-.061-16.707-4.461-31.381-13.319-46.915-22.698-16.16-9.756-32.87-19.845-51.966-24.397-.038-.009-.077-.018-.115-.026-6.359-1.357-13.513-2.017-21.866-2.017-1.133 0-2.265.011-3.316.032-22.291.062-41.002 11.166-59.098 21.904-4.02 2.385-8.176 4.852-12.23 7.101-20.891 10.922-44.973 16.694-69.649 16.695-2.979 0-5.999-.085-8.977-.254-.158-.009-.316-.011-.473-.004l-1.072.04c-8.941.321-23.905.858-27.3 14.124-.015.058-.029.116-.042.175-2.209 10.129 4.325 17.081 9.575 22.666 1.767 1.875 3.437 3.652 4.659 5.384z" fill="param(fill)" fill-opacity="param(fill-opacity)" stroke="param(outline)" stroke-opacity="param(outline-opacity)" stroke-width="param(outline-width)"/>
<path d="m135.975 418.202c-.034-1.452-.69-2.812-1.812-3.735-.334-.305-1.036-1.417-1.5-2.153-1.63-2.585-3.864-6.125-8.033-6.125-2.394 0-4.499 1.203-6.267 3.578-5.269 4.355-10.483 8.903-15.532 13.307-9.562 8.34-19.436 16.952-29.811 24.344-.119-.055-.221-.145-.343-.288-1.086-1.277-1.627-4.675-1.181-7.42.036-.219.057-.44.063-.662.53-18.782.273-38.613-8.945-56.501-4.317-9.985-9.618-19.774-14.746-29.243-11.802-21.795-22.951-42.383-23.994-66.29-.026-25.184 13.27-47.605 26.127-69.288 3.255-5.489 6.621-11.165 9.699-16.772 13.508-23.435 19.785-44.657 19.181-64.863.15-1.722.148-3.519.147-5.26-.003-4.941.143-8.416 1.979-10.078.081-.007.161-.01.238-.01 1.882 0 3.997 2.354 6.236 4.845 1.646 1.832 3.345 3.723 5.403 5.208 4.729 4.634 9.449 9.427 14.017 14.066 7.166 7.277 14.575 14.802 22.251 21.954 1.025.956 2.405 1.434 3.804 1.326 1.398-.111 2.686-.804 3.547-1.911.427-.547 1.024-1.178 1.657-1.845 2.195-2.316 5.202-5.488 4.482-9.714-.422-2.482-2.013-4.54-4.733-6.126-4.012-4.035-8.038-8.197-11.936-12.227-12.729-13.161-25.893-26.77-40.794-38.275-.756-.583-1.663-.938-2.614-1.023-1.141-.101-2.342-.148-3.78-.148-.849 0-1.698.017-2.546.035h-.103c-3.582 0-6.781 1.321-9.252 3.819-4.9 4.954-5.47 12.879-5.465 16.352-.408 4.168-.7 8.407-.982 12.51-.999 14.503-1.942 28.201-7.591 40.735-.054.121-.104.243-.148.367-5.026 14.018-12.889 27.419-20.492 40.38-12.014 20.479-24.437 41.654-26.932 66.722-2.773 28.401 11.129 54.339 23.396 77.223l.857 1.599c12.944 24.271 25.791 53.21 22.93 83.829-.007.077-.012.154-.016.231-.337 7.224-1.128 24.141 11.892 29.539.195.081.395.149.598.205 1.322.361 2.666.544 3.995.544 6.102 0 10.606-3.643 14.58-6.857 1.688-1.365 3.283-2.654 4.768-3.467.2-.109.392-.232.575-.368 16.328-12.087 31.418-25.523 45.475-38.25 1.077-.977 1.685-2.366 1.651-3.819z" fill="param(fill)" fill-opacity="param(fill-opacity)" stroke="param(outline)" stroke-opacity="param(outline-opacity)" stroke-width="param(outline-width)"/>
<path d="m559.745 242.869c-2.011-4.227-4.119-8.535-6.159-12.702-13.681-27.955-27.827-56.861-26.373-88.059.008-.157.008-.314 0-.471-.067-1.425-.095-2.913-.124-4.487-.152-8.358-.342-18.759-7.655-25.912-.462-.451-1.006-.809-1.604-1.053-3.45-1.411-6.889-1.398-10.133-1.364-.815.009-1.626.018-2.421-.006-.806-.024-1.608.146-2.335.5-5.137 2.494-8.855 6.315-12.451 10.01-2.508 2.577-4.876 5.01-7.548 6.795-.219.146-.425.309-.618.487-4.363 4.035-8.843 8.105-13.174 12.042-7.713 7.01-15.688 14.258-23.361 21.618-1.088 1.043-1.647 2.522-1.521 4.025.122 1.458.876 2.788 2.061 3.641.322.334.948 1.343 1.368 2.018 1.564 2.519 3.706 5.969 7.775 5.969 1.503 0 3.656-.523 5.617-2.927 5.392-4.738 10.704-9.724 15.846-14.549 9.608-9.018 19.534-18.333 30.165-26.186.116.03.236.111.417.331 1.032 1.256 1.551 4.326 1.108 6.57-.055.281-.086.565-.093.851-.46 19.96.458 41.019 10.18 59.832 4.027 9.567 8.841 19.043 13.496 28.21 11.182 22.015 22.743 44.778 23.633 69.621-.7 23.61-13.424 44.525-25.729 64.754-3.451 5.673-7.019 11.538-10.26 17.364-13.141 22.141-19.189 42.483-18.486 62.18-.162 1.721-.19 3.519-.218 5.261-.087 5.44-.318 9.245-2.501 11.107-.158.025-.311.037-.46.037-1.989 0-4.396-2.546-6.725-5.008-1.477-1.561-3-3.172-4.714-4.48-11.409-10.881-22.821-21.758-34.236-32.632-1.185-1.128-2.848-1.604-4.446-1.279-1.562.317-2.876 1.36-3.542 2.804-.23.331-.966 1.038-1.459 1.511-1.939 1.864-4.596 4.417-4.102 8.171.196 1.49.983 3.553 3.555 5.188 5.719 5.302 11.378 10.923 16.854 16.362 11.545 11.467 23.483 23.324 36.892 33.147.629.461 1.356.769 2.126.897.866.146 1.741.22 2.603.22h.001c4.165 0 8.164-1.745 11.262-4.914 3.596-3.679 5.714-8.938 5.718-14.146.811-5.582 1.238-11.255 1.651-16.745.895-11.88 1.74-23.101 6.139-33.526.056-.131.105-.265.149-.399 4.969-15.309 13.475-29.582 21.7-43.387 9.619-16.142 19.565-32.834 24.449-51.818.011-.042.021-.084.03-.127 5.415-23.593 1.03-50.345-12.347-75.346z" fill="param(fill)" fill-opacity="param(fill-opacity)" stroke="param(outline)" stroke-opacity="param(outline-opacity)" stroke-width="param(outline-width)"/>
<path d="m464.066 496.99c-7.668-9.086-15.808-18.048-23.684-26.718-6.51-7.168-13.242-14.579-19.63-21.978-1.052-1.219-2.639-1.854-4.227-1.713-1.446.129-2.756.878-3.602 2.039-.396.304-1.337.841-1.921 1.175-2.573 1.47-6.099 3.483-5.93 7.496.053 1.256.565 3.469 3.232 5.127 4.853 5.582 10.012 11.074 15.007 16.392 8.682 9.241 17.651 18.79 25.18 28.998.049.279-.023.386-.086.478-.64.939-2.912 1.945-5.273 1.945-.357 0-.689-.024-.987-.073-.148-.023-.297-.041-.447-.052-3.542-.253-7.121-.381-10.636-.381-21.938 0-42.34 4.764-60.64 14.159-6.063 2.832-12.213 5.95-18.16 8.967-22.275 11.297-45.309 22.979-70.045 22.979-1.537 0-3.089-.046-4.567-.132-23.14-1.571-42.606-13.301-63.216-25.719-8.919-5.375-18.143-10.933-27.52-15.473-16.085-8.146-34.614-12.452-53.585-12.452-.462 0-.922.002-1.324.007l-1.677.002c-8.014 0-9.217-1.272-9.415-2.228.652-2.529 3.008-4.642 5.711-7.063 2.097-1.879 4.262-3.818 6.01-6.279 4.698-4.856 9.387-9.72 14.077-14.582 6.142-6.369 12.283-12.737 18.44-19.088 1.101-1.137 1.601-2.726 1.345-4.287-.255-1.562-1.233-2.909-2.64-3.635-.393-.214-1.308-1.131-1.914-1.738-1.917-1.921-4.302-4.312-7.726-4.312-1.922 0-4.581.756-6.644 4.229l-1.789 1.845c-.055.056-.108.113-.16.172-5.656 6.41-11.98 12.533-18.095 18.455-10.217 9.894-20.782 20.124-29.049 32.368-.277.41-.492.859-.637 1.333-1.476 4.818-.539 9.993 2.57 14.197 3.502 4.736 9.285 7.68 15.089 7.68.001 0 .002 0 .003 0 .197 0 .394-.003.591-.01 5.245.667 10.572 1.025 15.728 1.373 12.255.825 23.83 1.604 34.561 6.169.137.059.276.111.418.156 15.043 4.867 29.174 13.22 42.839 21.297 15.042 8.892 30.596 18.085 47.956 23.164.044.013.088.025.133.037 8.299 2.181 16.99 3.286 25.833 3.286 20.642 0 41.59-5.89 60.589-17.031l3.444-1.681c27.283-13.322 55.494-27.097 85.539-27.097 2.07 0 4.155.066 6.197.197.191.013.38.013.572.005 1.223-.062 2.481-.1 3.759-.138 8.194-.248 17.481-.528 24.442-6.631.479-.419.872-.926 1.16-1.492 4.159-8.163 1.961-18.046-5.199-23.744z" fill="param(fill)" fill-opacity="param(fill-opacity)" stroke="param(outline)" stroke-opacity="param(outline-opacity)" stroke-width="param(outline-width)"/>
<path d="m364.797 157.543c11.893 94.867-12.479 107.442-24.194 145.648-27.544-81.259-81.799-86.796-95.324-176.132-19.712 72.212 7.709 106.836 5.806 159.681-27.601-48.865-54.969-92.13-81.292-110.325 21.7 43.733-6.614 96.254-16.331 138.812-13.851 60.664 4.908 101.254 35.687 118.613-.466-29.561 9.248-55.686 15-61.937 7.583 53.418 16.267 86.154 58.55 118.066 4.265-67.281 25.412-49.866 32.904-133.551 30.861 50.969 24.871 101.938 9.678 152.906 27.184-24.296 57.279-44.327 94.841-152.906l-7.742 81.292c23.921-58.503 92.18-116.606-27.583-280.167z" fill="param(fill)" fill-opacity="param(fill-opacity)" stroke="param(outline)" stroke-opacity="param(outline-opacity)" stroke-width="param(outline-width)"/>
<path d="m276.73 43.348c-31.321 127.18 25.863 126.063 57.582 200.811 22.249-115.259-44.309-89.326-57.582-200.811z" fill="param(fill)" fill-opacity="param(fill-opacity)" stroke="param(outline)" stroke-opacity="param(outline-opacity)" stroke-width="param(outline-width)"/>
</svg>
