<?xml version="1.0" encoding="utf-8"?>
<!-- Generator: Adobe Illustrator 16.0.0, SVG Export Plug-In . SVG Version: 6.00 Build 0)  -->
<!DOCTYPE svg PUBLIC "-//W3C//DTD SVG 1.1//EN" "http://www.w3.org/Graphics/SVG/1.1/DTD/svg11.dtd">
<svg version="1.1"
	 id="svg2" xmlns:dc="http://purl.org/dc/elements/1.1/" xmlns:cc="http://creativecommons.org/ns#" xmlns:rdf="http://www.w3.org/1999/02/22-rdf-syntax-ns#" xmlns:svg="http://www.w3.org/2000/svg" xmlns:sodipodi="http://sodipodi.sourceforge.net/DTD/sodipodi-0.dtd" xmlns:inkscape="http://www.inkscape.org/namespaces/inkscape" inkscape:output_extension="org.inkscape.output.svg.inkscape" sodipodi:docbase="s:\Data\FacilityIcons" sodipodi:docname="amenity_firestation2.svg" inkscape:version="0.46" sodipodi:version="0.32"
	 xmlns="http://www.w3.org/2000/svg" xmlns:xlink="http://www.w3.org/1999/xlink" x="0px" y="0px" width="580px" height="580px"
	 viewBox="0 0 580 580" enable-background="new 0 0 580 580" xml:space="preserve">
<sodipodi:namedview  showgrid="false" inkscape:cy="290.00963" inkscape:cx="305.74659" inkscape:zoom="1.1952453" pagecolor="#ffffff" bordercolor="#666666" guidetolerance="10.0" objecttolerance="10.0" gridtolerance="10.0" borderopacity="1.0" id="base" inkscape:current-layer="svg2" inkscape:window-y="20" inkscape:window-x="0" inkscape:pageopacity="0.0" inkscape:pageshadow="2" inkscape:window-height="1003" inkscape:window-width="1400">
	</sodipodi:namedview>
<defs>
	
	
		<inkscape:perspective  inkscape:vp_z="580 : 290 : 1" inkscape:vp_y="0 : 1000 : 0" inkscape:vp_x="0 : 290 : 1" sodipodi:type="inkscape:persp3d" id="perspective3653" inkscape:persp3d-origin="290 : 193.33333 : 1">
		</inkscape:perspective>
	
		<inkscape:perspective  inkscape:vp_z="355.02399 : 217.53 : 1" inkscape:vp_y="0 : 1000 : 0" inkscape:vp_x="0 : 217.53 : 1" sodipodi:type="inkscape:persp3d" id="perspective2512" inkscape:persp3d-origin="177.51199 : 145.02 : 1">
		</inkscape:perspective>
	
		<inkscape:perspective  inkscape:vp_z="744.09448 : 526.18109 : 1" inkscape:vp_y="0 : 1000 : 0" inkscape:vp_x="0 : 526.18109 : 1" sodipodi:type="inkscape:persp3d" id="perspective3305" inkscape:persp3d-origin="372.04724 : 350.78739 : 1">
		</inkscape:perspective>
	
		<inkscape:perspective  inkscape:vp_z="744.09448 : 526.18109 : 1" inkscape:vp_y="0 : 1000 : 0" inkscape:vp_x="0 : 526.18109 : 1" sodipodi:type="inkscape:persp3d" id="perspective3354" inkscape:persp3d-origin="372.04724 : 350.78739 : 1">
		</inkscape:perspective>
	
		<inkscape:perspective  inkscape:vp_z="744.09448 : 526.18109 : 1" inkscape:vp_y="0 : 1000 : 0" inkscape:vp_x="0 : 526.18109 : 1" sodipodi:type="inkscape:persp3d" id="perspective3569" inkscape:persp3d-origin="372.04724 : 350.78739 : 1">
		</inkscape:perspective>
	
		<inkscape:perspective  inkscape:vp_z="744.09448 : 526.18109 : 1" inkscape:vp_y="0 : 1000 : 0" inkscape:vp_x="0 : 526.18109 : 1" sodipodi:type="inkscape:persp3d" id="perspective3604" inkscape:persp3d-origin="372.04724 : 350.78739 : 1">
		</inkscape:perspective>
	
		<inkscape:perspective  inkscape:vp_z="744.09448 : 526.18109 : 1" inkscape:vp_y="0 : 1000 : 0" inkscape:vp_x="0 : 526.18109 : 1" sodipodi:type="inkscape:persp3d" id="perspective4346" inkscape:persp3d-origin="372.04724 : 350.78739 : 1">
		</inkscape:perspective>
</defs>
<g id="g2119">
	<g id="g2121">
		<g id="path2125">
			<path fill="#FFFB3D" stroke="#1EFF31" stroke-width="4.4444" d="M80.128,34.576"/>
		</g>
	</g>
	<g id="g2127">
		<g id="path2131">
			<path fill="#FFFB3D" stroke="#1EFF31" stroke-width="4.4444" d="M80.128,34.576"/>
		</g>
	</g>
</g>
<path id="path3575" fill="#FFFB3D" stroke="#1EFF31" stroke-width="4.4444" stroke-miterlimit="10" d="M289.938,4.844
	c-14.384-0.032-31.142,4.359-43.156,11.281c-1.656,0.954-4.719,2.677-6.813,3.844s-7.497,4.309-12,6.969
	c-12.577,7.428-23.646,12.809-32.094,15.625c-16.816,5.607-31.771,7.919-50.281,7.719c-15.77-0.17-22.998,0.712-28.625,3.531
	c-4.019,2.013-6.289,4.164-7.969,7.563c-1.303,2.637-1.438,3.169-1.594,6.938c-0.185,4.489,0.273,7.501,1.5,9.813
	c0.836,1.574,3.459,4.919,7.563,9.688c1.362,1.583,3.66,4.313,5.125,6.063s4.49,5.24,6.688,7.75s4.663,5.375,5.5,6.375
	c1.774,2.12,9.236,10.433,12.594,14.031c1.275,1.367,4.6,5.048,7.375,8.188c3.059,3.46,6.158,6.919,9.313,10.438
	c5.361-4.531,10.986-8.801,16.813-12.75c-0.297-0.339-0.49-0.542-0.781-0.875c-5.226-5.977-11.96-13.703-14.969-17.156
	c-7.008-8.044-11.942-13.687-14.344-16.375c-1.046-1.172-3.294-3.72-4.969-5.688c-1.675-1.968-3.826-4.442-4.781-5.5
	s-2.146-2.474-2.656-3.125s-2.017-2.417-3.344-3.938c-2.08-2.385-2.34-2.848-1.875-3.313c0.629-0.629,4.938-0.802,26.188-1.063
	c20.308-0.249,22.098-0.505,35.938-5.063c7.95-2.618,14.128-5.361,23.813-10.594c8.039-4.343,17.417-9.458,21.5-11.75
	c10.168-5.707,20.877-10.889,26.25-12.688c4.327-1.449,11.894-3.497,16.031-4.313c5.554-1.095,15.43-1.193,20.688-0.219
	c12.289,2.277,28.368,8.552,40,15.594c2.598,1.572,5.636,3.313,6.75,3.875s5.381,2.93,9.5,5.25s8.359,4.676,9.406,5.25
	s4.205,2.339,7.031,3.938c11.503,6.504,23.621,11.8,34.531,15.063c7.907,2.365,12.098,3,22.75,3.438
	c17.938,0.737,25.695,1.403,26.219,2.25c0.095,0.154-3.969,4.472-9.031,9.594c-8.624,8.725-27.082,27.016-42.125,41.813
	c5.972,4.39,11.69,9.107,17.125,14.125c5.787-5.796,11.464-11.511,18.469-18.5c23.705-23.652,36.702-36.881,37.563-38.25
	c2.154-3.43,2.313-4.065,2.344-10.156c0.023-4.569-0.12-6.047-0.719-7.875c-0.908-2.775-3.345-5.592-6-6.938
	c-6.936-3.515-13.386-4.847-27.281-5.656c-16.42-0.957-19.459-1.263-26.594-2.656c-10.884-2.126-21.676-5.762-33.344-11.219
	c-4.554-2.129-6.521-3.251-19.75-11.219c-4.841-2.916-10.583-6.311-12.781-7.563s-5.968-3.459-8.375-4.906
	c-11.972-7.196-27.883-13.513-38.563-15.313C304.85,5.373,297.41,4.86,289.938,4.844z M80.406,95.875
	c-3.626-0.09-7.759,0.432-10.531,1.469c-6.875,2.572-9.574,10.685-10.5,31.75c-0.761,17.304-0.898,18.389-4,29.719
	c-2.763,10.091-5.622,17.379-11.781,30c-4.581,8.882-9.385,18.279-15.406,26.094c0,0.694-2.872,6.577-3.813,7.813
	c-1.21,1.589-9.371,17.503-11.313,22.063c-5.295,12.435-7.98,23.268-8.875,36.031c-0.831,11.855,0.597,21.166,5.594,36.656
	c2.032,6.299,6.618,16.143,15.625,33.5c12.922,24.902,16.209,32.098,20.031,43.875c5.248,16.172,6.281,23.51,6.063,42.906
	c-0.091,8.127,0.023,13.921,0.281,15.594c1.774,11.495,7.733,18.033,17.031,18.688c2.799,0.197,3.086,0.145,5.688-1.125
	c3.578-1.746,5.893-3.249,13.25-8.563c5.722-4.134,8.779-6.531,16.281-12.719c1.712-1.412,4.067-3.276,5.219-4.156
	s3.383-2.806,4.969-4.281s4.979-4.489,7.563-6.688c7.97-6.782,12.588-10.765,17.688-15.281c-4.705-5.573-9.113-11.426-13.188-17.5
	c-0.115,0.104-0.378,0.354-0.469,0.438c-1.262,1.159-3.172,2.801-4.219,3.625s-3.887,3.215-6.313,5.313
	c-5.962,5.157-12.899,11.078-18,15.344c-3.963,3.314-5.332,4.495-13.531,11.563c-1.781,1.535-4.833,4.097-6.75,5.719
	c-1.917,1.622-3.557,2.969-3.656,2.969c-0.674,0-0.84-3.218-0.875-17.906c-0.025-10.936-0.168-17.459-0.469-19.219
	c-1.348-7.887-4.433-18.014-8.219-27c-1.915-4.545-7.819-16.158-17-33.5c-11.442-21.614-14.521-28.353-17.781-39
	c-5.509-17.988-5.591-29.74-0.375-46.625c3.666-11.866,8.643-22.28,18.844-39.406c15.09-25.334,19.15-33.064,24.875-47.281
	c6.149-15.27,6.523-17.629,7.875-49c0.252-5.854,0.323-6.271,1.031-6.406c0.583-0.111,8.909,8.031,35.875,35.156
	c5.835,5.869,11.043,11.127,15.781,15.938c4.33-5.714,8.994-11.17,13.906-16.375c-0.438-0.442-0.734-0.729-1.188-1.188
	c-19.474-19.679-38.555-40.252-59.656-58.156C84.577,96.216,82.582,95.929,80.406,95.875z M505.656,107.656
	c-2.293,0.058-3.68,0.469-4.906,1.281c-0.84,0.556-4.947,4.106-9.125,7.906s-8.646,7.847-9.938,8.969s-5.403,4.892-9.156,8.375
	c-13.341,12.382-18.43,17.024-22.5,20.594c-2.268,1.988-5.271,4.65-6.656,5.906c-0.751,0.681-1.786,1.586-2.625,2.344
	c4.782,5.572,9.259,11.416,13.406,17.5c1.325-1.22,2.854-2.612,3.813-3.5c2.71-2.512,6.661-6.078,8.781-7.938
	s6.143-5.545,8.969-8.188s6.513-6.007,8.188-7.469s5.464-4.87,8.406-7.594c11.387-10.542,14.407-13.123,14.813-12.719
	c0.254,0.253,0.455,6.365,0.594,17.188c0.273,21.346,0.339,21.771,4.813,36.063c3.299,10.539,4.747,13.747,18.688,41.844
	c11.93,24.045,13.11,26.716,17.781,39.781c5.514,15.422,7.041,27.498,4.969,39.313c-1.219,6.948-1.778,9.016-4,14.813
	c-4.684,12.217-7.709,18.052-20.5,39.5c-3.87,6.488-7.976,13.418-9.125,15.406s-2.679,4.65-3.406,5.906
	c-3.771,6.514-11.235,23.235-12.813,28.719c-1.927,6.701-2.938,13.163-3.281,21.125c-0.526,12.191-1.191,22.723-1.5,23.781
	c-0.152,0.523-0.533,1.002-0.844,1.063c-0.983,0.19-0.948,0.226-18.031-16.094c-4.602-4.396-14.943-14.235-23-21.875
	c-3.751-3.557-6.196-5.898-9.094-8.656c-4.185,5.525-8.646,10.824-13.375,15.875c5.251,5.063,10.737,10.354,12.406,12
	c1.697,1.675,6.303,6.139,10.25,9.906s9.257,8.826,11.781,11.25s9.044,8.593,14.5,13.719c11.44,10.748,10.767,10.363,17.719,10.156
	c4.009-0.119,4.544-0.226,6.875-1.375c1.672-0.824,3.208-1.962,4.5-3.375c4.614-5.049,6.339-11.404,7.219-26.375
	c1.001-17.03,1.077-17.595,2.469-23.781c3.839-17.061,10.433-32.651,22.469-53.094c6.854-11.641,10.417-17.664,12.281-20.719
	c2.675-4.383,6.948-12.577,8.469-16.219c4.319-10.349,4.859-11.794,6.438-18.094c4.474-17.863,4.085-34.614-1.188-52.125
	c-3.403-11.303-6.308-17.942-20.469-47c-9.101-18.674-8.66-17.678-12.344-27.375c-4.801-12.639-7.302-21.323-9.031-31.281
	c-0.689-3.974-0.855-6.957-1.094-19.344c-0.268-13.906-0.32-14.884-1.281-19.219c-1.799-8.117-2.999-10.928-5.688-13.406
	c-2.155-1.987-4.398-2.694-10.344-3.219C508.746,107.713,507.032,107.622,505.656,107.656z M154.156,434.844
	c-11.737,12.143-26.018,26.78-34.719,35.531c-19.849,19.962-21.754,22.32-22.781,28.219c-1,5.741,0.101,10.503,3.281,14.219
	c4.511,5.27,11.687,7.702,24.344,8.25c20.569,0.891,23.621,1.311,35.781,4.781c14.945,4.266,31.861,12.33,52.875,25.188
	c1.884,1.152,4.463,2.675,5.719,3.375c1.256,0.701,4.332,2.476,6.844,3.969c17.502,10.404,31.823,15.314,48.344,16.563
	c3.137,0.237,5.768,0.513,5.875,0.625c0.365,0.383,15.398-0.259,19.031-0.813c11.692-1.782,21.691-4.732,31.219-9.25
	c2.198-1.042,7.159-3.396,11.031-5.219s10.636-5.063,15.031-7.219c9.032-4.431,19.135-9.192,21.125-9.938
	c0.732-0.274,2.618-1.032,4.188-1.688c10.771-4.499,19.506-7.116,31.969-9.625c9.523-1.917,9.257-1.919,22.875-1.844
	c11.927,0.065,12.593,0.041,17.5-0.906c5.42-1.047,11.704-2.883,13.281-3.875c2.185-1.374,3.88-4.144,4.5-7.344
	c0.224-1.151,0.519-4.222,0.656-6.844c0.198-3.791,0.138-5.049-0.313-6.125c-0.537-1.284-8.148-10.352-13.563-16.156
	c-2.965-3.179-10.968-12.146-21.938-24.531c-4.356-4.919-11.007-12.278-14.781-16.344c-1.308-1.409-2.698-2.921-4.063-4.406
	c-5.306,4.442-10.838,8.595-16.594,12.469c2.784,3.051,5.11,5.532,7.156,7.688c1.796,1.892,6.466,7.042,10.406,11.438
	s8.657,9.522,10.469,11.406s4.319,4.63,5.563,6.094s3.646,4.126,5.344,5.906c4.085,4.282,8.14,9.185,7.906,9.563
	c-0.548,0.886-4,1.115-17.531,1.094c-14.298-0.023-14.44-0.029-20.906,1.094c-10.411,1.809-22.375,5.288-31.563,9.188
	c-1.884,0.8-13.08,6.244-24.906,12.094c-29.04,14.363-27.838,13.83-40.438,18c-7.397,2.448-12.359,3.677-18.375,4.563
	c-3.588,0.528-6.764,0.728-11.594,0.688c-7.167-0.06-6.996-0.05-12.906-0.938c-7.775-1.168-23.374-6.823-32-11.594
	c-3.422-1.893-15.347-8.775-15.813-9.125c-0.778-0.585-22.045-12.941-27-15.688c-7.29-4.04-18.004-8.66-26.719-11.531
	c-9.264-3.052-13.808-3.648-36.719-4.781c-4.954-0.245-9.208-0.589-9.469-0.75c-0.351-0.217-0.217-0.625,0.563-1.563
	c1.339-1.611,12.146-12.859,26.469-27.563c3.663-3.76,11.535-11.896,17.5-18.063c1.477-1.526,2.598-2.674,4.188-4.313
	C164.805,444.448,159.339,439.789,154.156,434.844z"/>
<path id="path4317" fill="#FFFB3D" stroke="#1EFF31" stroke-width="4.4444" stroke-miterlimit="10" d="M295.313,81.875
	c0.671,4.799,1.242,9.619,2.344,14.156c0.706,3.545,1.667,6.98,2.813,10.344c98.016,5.11,175.813,86.078,175.813,185.375
	c0,65.486-33.842,122.992-85,156.031c-0.011,0.009-0.021,0.022-0.031,0.031c-0.82,0.657-1.719,1.229-2.656,1.688
	c-0.063,0.03-0.125,0.064-0.188,0.094c-9.804,6.08-20.214,11.276-31.125,15.469c-8.957,12.026-19.126,23.049-30.031,33.406
	c98.357-17.369,173.313-103.46,173.313-206.719C500.563,177.575,408.898,84.38,295.313,81.875z M259.5,84.094
	C158.458,99.178,80.719,186.577,80.719,291.75c0,107.078,80.601,195.676,184.313,208.344c-13.698-9.278-26.348-20.405-36.594-33.375
	C156.475,441.173,105,372.527,105,291.75c0-90.477,64.573-165.724,150.188-182.25C256.195,100.909,257.699,92.406,259.5,84.094z
	 M281.344,477.125c-0.862,8.063-1.095,16.181-0.625,24.281c1.89,0.088,3.785,0.149,5.688,0.188c2.4-8.048,4.678-16.121,6.625-24.25
	c-0.805,0.011-1.6,0.031-2.406,0.031C287.513,477.375,284.418,477.276,281.344,477.125z"/>
<path id="path4356" sodipodi:nodetypes="cscccccccccccc" fill="#FFFB3D" stroke="#1EFF31" stroke-width="4.4444" stroke-miterlimit="10" d="
	M198.671,425.135c-27.905-15.739-44.913-52.539-32.354-107.539c8.81-38.584,34.48-86.202,14.807-125.852
	c23.865,16.496,48.678,55.721,73.702,100.024c1.726-47.911-23.136-79.302-5.264-144.772c12.262,80.995,61.452,86.016,86.425,159.688
	c10.622-34.639,32.718-46.04,21.935-132.05c108.582,148.29,46.696,200.968,25.007,254.01l7.019-73.703
	c-34.055,98.442-61.34,116.604-85.985,138.631c13.774-46.21,19.206-92.42-8.774-138.631c-6.793,75.872-25.965,60.084-29.832,121.083
	c-38.335-28.934-46.208-58.613-53.083-107.044C207.056,374.647,198.249,398.334,198.671,425.135z"/>
<path id="path4358" sodipodi:nodetypes="ccc" fill="#FFFB3D" stroke="#1EFF31" stroke-width="4.4444" stroke-miterlimit="10" d="
	M278.077,71.1c-28.396,115.307,23.448,114.293,52.206,182.063C350.454,148.665,290.11,172.177,278.077,71.1z"/>
</svg>
