<?xml version="1.0" encoding="utf-8"?>
<!-- Generator: Adobe Illustrator 16.0.0, SVG Export Plug-In . SVG Version: 6.00 Build 0)  -->
<!DOCTYPE svg PUBLIC "-//W3C//DTD SVG 1.1//EN" "http://www.w3.org/Graphics/SVG/1.1/DTD/svg11.dtd">
<svg version="1.1"
	 id="svg2" xmlns:dc="http://purl.org/dc/elements/1.1/" xmlns:cc="http://creativecommons.org/ns#" xmlns:rdf="http://www.w3.org/1999/02/22-rdf-syntax-ns#" xmlns:svg="http://www.w3.org/2000/svg" xmlns:sodipodi="http://sodipodi.sourceforge.net/DTD/sodipodi-0.dtd" xmlns:inkscape="http://www.inkscape.org/namespaces/inkscape" inkscape:output_extension="org.inkscape.output.svg.inkscape" sodipodi:docbase="s:\Data\FacilityIcons" sodipodi:docname="amenity_police2.svg" inkscape:version="0.46" sodipodi:version="0.32"
	 xmlns="http://www.w3.org/2000/svg" xmlns:xlink="http://www.w3.org/1999/xlink" x="0px" y="0px" width="580px" height="580px"
	 viewBox="0 0 580 580" enable-background="new 0 0 580 580" xml:space="preserve">
<sodipodi:namedview  showgrid="false" inkscape:cy="266.79381" inkscape:cx="437.65767" inkscape:zoom="0.79627887" pagecolor="#ffffff" bordercolor="#666666" guidetolerance="10.0" objecttolerance="10.0" gridtolerance="10.0" borderopacity="1.0" id="base" inkscape:current-layer="svg2" inkscape:window-y="169" inkscape:window-x="174" inkscape:pageopacity="0.0" inkscape:pageshadow="2" inkscape:window-width="1024" inkscape:window-height="721">
	</sodipodi:namedview>
<defs>
	
	
		<inkscape:perspective  inkscape:vp_z="580 : 290 : 1" inkscape:vp_y="0 : 1000 : 0" inkscape:vp_x="0 : 290 : 1" sodipodi:type="inkscape:persp3d" id="perspective3653" inkscape:persp3d-origin="290 : 193.33333 : 1">
		</inkscape:perspective>
	
		<inkscape:perspective  inkscape:vp_z="355.02399 : 217.53 : 1" inkscape:vp_y="0 : 1000 : 0" inkscape:vp_x="0 : 217.53 : 1" sodipodi:type="inkscape:persp3d" id="perspective2512" inkscape:persp3d-origin="177.51199 : 145.02 : 1">
		</inkscape:perspective>
	
		<inkscape:perspective  inkscape:vp_z="744.09448 : 526.18109 : 1" inkscape:vp_y="0 : 1000 : 0" inkscape:vp_x="0 : 526.18109 : 1" sodipodi:type="inkscape:persp3d" id="perspective3305" inkscape:persp3d-origin="372.04724 : 350.78739 : 1">
		</inkscape:perspective>
	
		<inkscape:perspective  inkscape:vp_z="744.09448 : 526.18109 : 1" inkscape:vp_y="0 : 1000 : 0" inkscape:vp_x="0 : 526.18109 : 1" sodipodi:type="inkscape:persp3d" id="perspective3354" inkscape:persp3d-origin="372.04724 : 350.78739 : 1">
		</inkscape:perspective>
</defs>
<path id="path3325" sodipodi:nodetypes="csccssccc" opacity="0.8" fill="param(fill)" fill-opacity="param(fill-opacity)" stroke="param(outline)" stroke-opacity="param(outline-opacity)" stroke-width="param(outline-width)" enable-background="new    " d="
	M122.804,257.127c-52.073,25.002-74.262,87.989-49.26,140.063c18.391,38.304,54.83,65.132,94.886,64.172l3.545-47.739
	c-26.598,6.995-46.991-2.767-61.042-32.032c-17.058-35.528-5.596-74.877,29.932-91.935c9.892-4.75,15.425-2.511,27.15-3.673
	l-7.397-38.877C147.84,248.007,135.014,251.265,122.804,257.127z"/>
<path id="path3556" sodipodi:nodetypes="csccssccc" opacity="0.8" fill="param(fill)" fill-opacity="param(fill-opacity)" stroke="param(outline)" stroke-opacity="param(outline-opacity)" stroke-width="param(outline-width)" enable-background="new    " d="
	M342.125,97.004c55.106-17.319,114.343,13.516,131.662,68.622c12.74,40.536,4.461,85.021-25.444,111.687l-35.205-32.438
	c24.201-13.063,32.424-34.125,22.689-65.096c-11.816-37.598-47.069-58.5-84.667-46.683c-10.469,3.29-12.979,8.706-22.335,15.867
	l-21.16-33.443C317.612,107.45,329.204,101.065,342.125,97.004z"/>
<path fill="param(fill)" fill-opacity="param(fill-opacity)" stroke="param(outline)" stroke-opacity="param(outline-opacity)" stroke-width="param(outline-width)" d="M186.674,190.281c1.126-0.083,2.248-0.295,3.342-0.679
	L186.674,190.281z"/>
<path fill="param(fill)" fill-opacity="param(fill-opacity)" stroke="param(outline)" stroke-opacity="param(outline-opacity)" stroke-width="param(outline-width)" d="M163.605,126.694c0.73-0.054,1.462-0.044,2.193,0.021
	c0.593-0.321,1.205-0.614,1.854-0.842L163.605,126.694z"/>
<path fill="param(fill)" fill-opacity="param(fill-opacity)" stroke="param(outline)" stroke-opacity="param(outline-opacity)" stroke-width="param(outline-width)" d="M186.674,190.281c-0.731,0.053-1.463,0.044-2.193-0.021
	c-0.593,0.321-1.204,0.614-1.854,0.842L186.674,190.281z"/>
<polygon fill="param(fill)" fill-opacity="param(fill-opacity)" stroke="param(outline)" stroke-opacity="param(outline-opacity)" stroke-width="param(outline-width)" points="180.031,302.361 173.507,301.173 166.976,300.092 "/>
<path fill="param(fill)" fill-opacity="param(fill-opacity)" stroke="param(outline)" stroke-opacity="param(outline-opacity)" stroke-width="param(outline-width)" d="M456.542,257.135c-0.929-5.092-3.274-9.986-7.073-14.046
	c-10.085-10.779-26.699-11.775-37.984-2.61c-8.431,5.025-12.739,14.782-23.657,18.213c-34.843,10.951-65.983-7.025-76.935-41.869
	c-2.533-8.059-3.704-15.881-3.602-23.289c7.126-3.858,14.212-11.038,21.768-21.735l6.119-7.972l6.011-8.1
	c14.491-17.988,18.878-31.58,13.34-43.727c-0.176-0.647-0.375-1.267-0.603-1.849c-2.745-4.625-7.795-12.402-13.201-14.179
	c-0.413-0.324-0.819-0.648-1.248-0.972c-14.568-10.996-41.488-1.283-58.665,6.934c-0.301-0.241-0.596-0.487-0.914-0.714
	l-27.79-19.89c-8.141-5.826-18.964-5.223-23.808,1.328l-1.791,2.421l-30.175,2.594c-0.075,0.006-0.146,0.021-0.22,0.029
	l-1.998-1.542c-6.448-4.979-16.82-2.445-22.815,5.572l-20.464,27.369c-5.995,8.018-5.617,18.852,0.831,23.83l6.195,4.783
	c0.558,0.431,1.153,0.785,1.765,1.104l9.711,27.676c-2.484,3.546-3.744,8.232-3.119,13.114l3.781,29.53
	c-18.11,5.825-43.56,17.043-46.632,34.715c-0.093,0.537-0.169,1.058-0.251,1.583c-2.722,4.995-1.103,14.105,0.051,19.353
	c0.232,0.582,0.511,1.171,0.825,1.766c4.256,12.65,16.746,19.578,39.614,22.813l9.899,1.804l9.938,1.645
	c12.825,2.649,22.905,3.051,30.745,0.999c5.135,5.34,9.625,11.852,13.281,19.467c15.809,32.926,5.351,67.328-27.575,83.137
	c-10.317,4.954-20.13,0.771-29.721,2.863c-14.501,1.018-25.952,13.096-25.952,27.856c0,5.56,1.63,10.734,4.43,15.087
	c2.306,5.227,6.986,9.843,16.098,11.848c1.771,0.485,3.613,0.801,5.506,0.929c15.572,1.969,27.262-2.644,43.201-10.296
	c54.675-26.251,80.399-96.018,54.147-150.693c-7.736-16.113-18.503-29.45-31.239-39.581c-3.126-13.905-17.345-27.771-29.411-37.376
	c1.291-2.99,1.834-6.451,1.378-10.013l-4.135-32.297c-1.002-7.825-6.549-13.959-13.079-15.258l-9.866-28.116l19.888-26.6
	c1.133-1.516,2.037-3.132,2.717-4.791l21.972-1.889c1.106,1.297,2.394,2.499,3.864,3.551l27.79,19.89
	c0.828,0.593,1.689,1.102,2.564,1.562c-2.188,15.181-2.989,34.689,4.141,46.829c-2.378,16.099-1.128,33.194,4.23,50.246
	c18.185,57.86,84.634,91.231,142.495,73.047c16.993-5.342,28.734-9.968,38.811-22.249c1.201-1.317,2.255-2.722,3.159-4.196
	C458.164,269.09,458.429,262.525,456.542,257.135z M180.177,103.053c-0.004,0.41-0.003,0.82,0.032,1.234l0.067-1.311
	c0.658-0.507,1.275-0.915,1.834-1.2c1.375,2.591,3.579,4.765,6.301,6.288c-1.838,5.726-9.392,16.26-15.075,21.456
	c-2.302-1.596-4.9-2.571-7.539-2.806c-0.958,0.518-1.836,1.15-2.635,1.879c-0.006-0.161-0.011-0.31-0.017-0.481
	c-0.014-0.392,0.045-0.851,0.159-1.358l0.301-0.061c-0.096,0.007-0.192,0.003-0.288,0.013
	C164.684,120.772,174.131,107.769,180.177,103.053z M193.517,217.283c-2.839-1.883-4.599-2.936-4.599-2.936l-0.607-0.105
	c0,0-1.861,0.367-4.946,1.12c-2.543-7.155-3.936-20.466-2.373-25.84c1.14,0.393,2.311,0.634,3.489,0.739
	c1.588-0.859,2.975-2.024,4.113-3.432c0.096,0.086,0.184,0.164,0.285,0.254C192.777,190.565,195.596,210.581,193.517,217.283z
	 M241.82,103.679c2.476-1.924,4.345-4.411,5.327-7.184c-0.174-0.699-0.401-1.378-0.686-2.035c0.366,0.13,0.746,0.278,1.14,0.443
	c-0.12,0.54-0.27,1.07-0.455,1.592c0.163,0.655,0.294,1.32,0.354,2.006l0.183-3.563c6.029,2.556,15.135,9.003,19.847,13.992
	c-1.626,0.943-2.541,1.512-2.541,1.512l-0.372,0.493c0,0-0.804,2.798-1.829,7.348C256.706,115.985,246.685,108.948,241.82,103.679z"
	/>
<polygon fill="param(fill)" fill-opacity="param(fill-opacity)" stroke="param(outline)" stroke-opacity="param(outline-opacity)" stroke-width="param(outline-width)" points="339.224,158.558 335.178,163.828 331.24,169.134 "/>
<path fill="param(fill)" fill-opacity="param(fill-opacity)" stroke="param(outline)" stroke-opacity="param(outline-opacity)" stroke-width="param(outline-width)" d="M534.274,261.814c-10.72-22.083-22.869-47.111-29.199-85.044
	c-5.916-35.45,26.984-103.11,27.317-103.79c1.079-2.2,0.444-4.857-1.512-6.332l-65.378-49.286c-1.7-1.281-4.013-1.375-5.812-0.237
	C427.05,37.793,354.803,58.763,291.072,6.275c-1.948-1.604-4.772-1.547-6.654,0.133c-61.521,54.929-134.575,36.673-168.042,17.227
	c-1.841-1.068-4.149-0.886-5.799,0.459L47.25,75.769c-1.9,1.551-2.431,4.233-1.264,6.392c0.36,0.667,35.983,67.059,31.51,102.703
	c-4.786,38.136-15.91,63.596-25.724,86.058c-11.181,25.591-21.743,49.763-19.905,86.005
	c5.466,109.142,90.581,143.143,172.893,176.024c31.607,12.626,64.291,25.682,91.225,42.804c0.851,0.54,1.8,0.798,2.737,0.798
	c0.438,0,0.873-0.056,1.294-0.165c0.898-0.056,1.794-0.348,2.589-0.896c26.218-18.107,58.346-32.366,89.415-46.155
	c80.923-35.914,164.601-73.052,165.634-182.322C558.019,310.729,546.484,286.969,534.274,261.814z M387.873,519.991
	c-30.648,13.603-62.313,27.656-88.876,45.585c-27.225-16.864-59.349-29.697-90.445-42.119
	c-82.97-33.145-161.338-64.45-166.477-167.046c-1.715-33.841,7.914-55.879,19.063-81.397c10.092-23.097,21.53-49.276,26.5-88.878
	c4.284-34.137-22.934-90.015-30.691-105.086l57.393-46.832c23.072,12.585,51.755,19.4,79.254,18.774
	c34.837-0.797,67.368-13.265,94.361-36.115c27.896,21.77,60.886,32.956,95.743,32.465c27.527-0.408,55.895-8.292,78.433-21.719
	l59.268,44.679c-7.141,15.349-32.072,72.198-26.405,106.151c6.572,39.387,19.063,65.121,30.085,87.825
	c12.177,25.086,22.694,46.752,22.353,80.635C546.461,449.608,469.429,483.796,387.873,519.991z"/>
</svg>
