<?xml version="1.0" encoding="utf-8"?>
<!-- Generator: Adobe Illustrator 16.0.0, SVG Export Plug-In . SVG Version: 6.00 Build 0)  -->
<!DOCTYPE svg PUBLIC "-//W3C//DTD SVG 1.1//EN" "http://www.w3.org/Graphics/SVG/1.1/DTD/svg11.dtd">
<svg version="1.1"
	 id="svg2" xmlns:dc="http://purl.org/dc/elements/1.1/" xmlns:cc="http://creativecommons.org/ns#" xmlns:rdf="http://www.w3.org/1999/02/22-rdf-syntax-ns#" xmlns:svg="http://www.w3.org/2000/svg" xmlns:sodipodi="http://sodipodi.sourceforge.net/DTD/sodipodi-0.dtd" xmlns:inkscape="http://www.inkscape.org/namespaces/inkscape" inkscape:output_extension="org.inkscape.output.svg.inkscape" sodipodi:docbase="s:\Data\FacilityIcons" sodipodi:docname="toilets_women.svg" inkscape:version="0.46" sodipodi:version="0.32"
	 xmlns="http://www.w3.org/2000/svg" xmlns:xlink="http://www.w3.org/1999/xlink" x="0px" y="0px" width="580px" height="580px"
	 viewBox="0 0 580 580" enable-background="new 0 0 580 580" xml:space="preserve">
<sodipodi:namedview  showgrid="false" inkscape:cy="281.19503" inkscape:cx="301.5186" inkscape:zoom="0.92167712" pagecolor="#ffffff" bordercolor="#666666" guidetolerance="10.0" objecttolerance="10.0" gridtolerance="10.0" borderopacity="1.0" id="base" inkscape:current-layer="svg2" inkscape:window-y="25" inkscape:window-x="91" inkscape:pageopacity="0.0" inkscape:pageshadow="2" inkscape:window-height="947" inkscape:window-width="1048">
	</sodipodi:namedview>
<defs>
	
	
		<inkscape:perspective  inkscape:vp_z="580 : 290 : 1" inkscape:vp_y="0 : 1000 : 0" inkscape:vp_x="0 : 290 : 1" sodipodi:type="inkscape:persp3d" id="perspective2441" inkscape:persp3d-origin="290 : 193.33333 : 1">
		</inkscape:perspective>
	
		<inkscape:perspective  inkscape:vp_z="60 : 30 : 1" inkscape:vp_y="0 : 1000 : 0" inkscape:vp_x="0 : 30 : 1" sodipodi:type="inkscape:persp3d" id="perspective3452" inkscape:persp3d-origin="30 : 20 : 1">
		</inkscape:perspective>
	
		<inkscape:perspective  inkscape:vp_z="744.09448 : 526.18109 : 1" inkscape:vp_y="0 : 1000 : 0" inkscape:vp_x="0 : 526.18109 : 1" sodipodi:type="inkscape:persp3d" id="perspective4471" inkscape:persp3d-origin="372.04724 : 350.78739 : 1">
		</inkscape:perspective>
	
		<inkscape:perspective  inkscape:vp_z="12 : 6 : 1" inkscape:vp_y="0 : 1000 : 0" inkscape:vp_x="0 : 6 : 1" sodipodi:type="inkscape:persp3d" id="perspective4668" inkscape:persp3d-origin="6 : 4 : 1">
		</inkscape:perspective>
</defs>
<g id="layer3" transform="matrix(48.14969,0,0,48.14969,-536.27327,-33.306752)" inkscape:label="Layout" display="none">
	<rect id="rect4134" x="1" y="1" display="inline" fill="none" stroke="#757575" stroke-width="0.1" width="10" height="10"/>
	<rect id="rect4136" x="2" y="2" display="inline" fill="none" stroke="#757575" stroke-width="0.1" width="8" height="8"/>
</g>
<path fill="#FFFB3D" stroke="#1EFF31" stroke-width="4.4444" d="M203.062,182.543h19.004l33.269,110.93
	c2.643,9.51,8.188,14.266,16.635,14.266c12.153,0,18.23-6.077,18.23-18.231c0-2.643-0.524-5.021-1.572-7.133l-36.461-121.206
	c-2.644-8.462-8.712-16.65-18.206-24.565c-11.622-9.509-24.299-14.265-38.032-14.265h-84.769c-13.218,0-25.105,4.755-35.663,14.265
	c-7.931,7.383-13.209,15.571-15.837,24.565L23.2,282.375c-1.047,2.644-1.571,5.021-1.571,7.133c0,12.154,6.068,18.231,18.206,18.231
	c8.462,0,14.015-4.756,16.659-14.266l33.27-110.93h18.206l-54.667,197.27h53.096v153.702c0,13.733,6.601,20.6,19.802,20.6
	s19.802-6.866,19.802-20.6V379.039h19.826v155.273c0,13.201,6.601,19.802,19.802,19.802s19.802-6.601,19.802-19.802v-154.5h53.071
	L203.062,182.543z"/>
<path fill="#FFFB3D" stroke="#1EFF31" stroke-width="4.4444" d="M155.528,113.61c12.137,0,22.433-4.223,30.888-12.669
	c8.454-8.446,12.681-18.48,12.681-30.102c0-12.153-4.227-22.453-12.681-30.9c-8.455-8.446-18.75-12.669-30.888-12.669
	c-11.622,0-21.66,4.224-30.114,12.669c-8.455,8.447-12.682,18.747-12.682,30.9c0,11.622,4.227,21.656,12.682,30.102
	C133.868,109.388,143.906,113.611,155.528,113.61z"/>
<path fill="#FFFB3D" stroke="#1EFF31" stroke-width="4.4444" d="M518.875,492.763c-1.722,7.979-4.492,14.063-8.31,18.254
	c-3.817,4.191-9.457,6.286-16.92,6.286c-7.692,0-13.662-2.598-17.91-7.793c-4.248-5.194-6.372-14.796-6.372-28.803
	c0-11.309,1.779-19.604,5.339-24.885c4.707-7.118,11.48-10.677,20.321-10.678c3.903,0.001,7.434,0.804,10.591,2.411
	s5.827,3.904,8.008,6.889c1.32,1.78,2.584,4.593,3.789,8.438l34.443-7.663c-4.421-13.318-11.18-23.191-20.278-29.621
	c-9.099-6.429-21.599-9.644-37.5-9.644c-20.321,0-36.036,5.611-47.144,16.833c-11.108,11.224-16.662,27.282-16.662,48.178
	c0,15.671,3.157,28.53,9.472,38.576s13.82,17.063,22.518,21.053c8.696,3.99,19.905,5.984,33.625,5.984
	c11.309,0,20.622-1.636,27.941-4.908c7.319-3.271,13.447-8.122,18.384-14.552s8.554-14.438,10.85-24.024L518.875,492.763z"/>
<polygon fill="#FFFB3D" stroke="#1EFF31" stroke-width="4.4444" points="371.804,488.629 352.258,418.107 315.317,418.107 
	295.857,488.629 282.511,418.107 245.484,418.107 273.556,544.341 311.787,544.341 333.831,464.863 355.96,544.341 394.191,544.341 
	422.005,418.107 385.15,418.107 "/>
</svg>
