<svg enable-background="new 0 0 580 580" height="580" viewBox="0 0 580 580" width="580" xmlns="http://www.w3.org/2000/svg">
<path d="m228.021 50.13c-14.283 0-24.991 6.243-32.125 18.727l-62.227 107.075c23.635 13.833 52.411 30.341 86.325 49.524 20.068-34.35 41.703-71.825 64.902-112.425l-24.752-44.174c-7.133-12.484-17.841-18.726-32.123-18.727z" fill="param(fill)" fill-opacity="param(fill-opacity)" stroke="param(outline)" stroke-opacity="param(outline-opacity)" stroke-width="param(outline-width)"/>
<path d="m215.298 353.28l-62.227-108.423h-125.149l50.872 29.449-31.45 54.201c-2.683 4.915-4.023 10.048-4.023 15.398s1.341 10.483 4.023 15.398l49.503 86.325c2.233-6.249 4.466-11.606 6.699-16.072l61.574-105.727z" fill="param(fill)" fill-opacity="param(fill-opacity)" stroke="param(outline)" stroke-opacity="param(outline-opacity)" stroke-width="param(outline-width)"/>
<path d="m137.672 413.506l-15.378 26.773c-3.581 5.8-5.371 12.042-5.371 18.728 0 10.266 3.683 18.966 11.049 26.1 7.365 7.134 16.174 10.701 26.426 10.701h123.147v-99.702h-129.825c-.899 1.784-4.248 7.584-10.048 17.4z" fill="param(fill)" fill-opacity="param(fill-opacity)" stroke="param(outline)" stroke-opacity="param(outline-opacity)" stroke-width="param(outline-width)"/>
<path d="m288.92 193.332h124.474l62.902-108.402-50.852 29.449-31.472-54.221c-5.8-10.251-14.718-15.377-26.753-15.378h-99.048c4.016 4.453 7.365 8.912 10.048 13.377l60.879 105.727-10.028 6.024z" fill="param(fill)" fill-opacity="param(fill-opacity)" stroke="param(outline)" stroke-opacity="param(outline-opacity)" stroke-width="param(outline-width)"/>
<path d="m541.872 318.481l-61.553-107.075c-2.233 1.334-31.016 17.843-86.347 49.524 27.665 47.734 49.531 85.433 65.597 113.099h50.178c14.731 0 25.664-6.249 32.799-18.748 6.684-12.049 6.46-24.316-.674-36.8z" fill="param(fill)" fill-opacity="param(fill-opacity)" stroke="param(outline)" stroke-opacity="param(outline-opacity)" stroke-width="param(outline-width)"/>
<path d="m387.969 394.758v-12.049-46.154l-62.247 108.401 62.247 107.748v-58.224h62.228c12.048 0 21.19-5.133 27.427-15.398l49.524-86.326c-6.686 1.784-12.261 2.676-16.726 2.676z" fill="param(fill)" fill-opacity="param(fill-opacity)" stroke="param(outline)" stroke-opacity="param(outline-opacity)" stroke-width="param(outline-width)"/>
</svg>
