<svg enable-background="new 0 0 580 580" height="580" viewBox="0 0 580 580" width="580" xmlns="http://www.w3.org/2000/svg">
<path d="m122.804 257.127c-52.073 25.002-74.262 87.989-49.26 140.063 18.391 38.304 54.83 65.132 94.886 64.172l3.545-47.739c-26.598 6.995-46.991-2.767-61.042-32.032-17.058-35.528-5.596-74.877 29.932-91.935 9.892-4.75 15.425-2.511 27.15-3.673l-7.397-38.877c-12.778.901-25.604 4.159-37.814 10.021z" fill="param(fill)" opacity=".8" stroke="param(outline)" stroke-width="param(outline-width)"/>
<path d="m342.125 97.004c55.106-17.319 114.343 13.516 131.662 68.622 12.74 40.536 4.461 85.021-25.444 111.687l-35.205-32.438c24.201-13.063 32.424-34.125 22.689-65.096-11.816-37.598-47.069-58.5-84.667-46.683-10.469 3.29-12.979 8.706-22.335 15.867l-21.16-33.443c9.947-8.07 21.539-14.455 34.46-18.516z" fill="param(fill)" opacity=".8" stroke="param(outline)" stroke-width="param(outline-width)"/>
<path d="m186.674 190.281c1.126-.083 2.248-.295 3.342-.679z" fill="param(fill)" fill-opacity="param(fill-opacity)" stroke="param(outline)" stroke-opacity="param(outline-opacity)" stroke-width="param(outline-width)"/>
<path d="m163.605 126.694c.73-.054 1.462-.044 2.193.021.593-.321 1.205-.614 1.854-.842z" fill="param(fill)" fill-opacity="param(fill-opacity)" stroke="param(outline)" stroke-opacity="param(outline-opacity)" stroke-width="param(outline-width)"/>
<path d="m186.674 190.281c-.731.053-1.463.044-2.193-.021-.593.321-1.204.614-1.854.842z" fill="param(fill)" fill-opacity="param(fill-opacity)" stroke="param(outline)" stroke-opacity="param(outline-opacity)" stroke-width="param(outline-width)"/>
<path d="m180.031 302.361l-6.524-1.188-6.531-1.081z" fill="param(fill)" fill-opacity="param(fill-opacity)" stroke="param(outline)" stroke-opacity="param(outline-opacity)" stroke-width="param(outline-width)"/>
<path d="m456.542 257.135c-.929-5.092-3.274-9.986-7.073-14.046-10.085-10.779-26.699-11.775-37.984-2.61-8.431 5.025-12.739 14.782-23.657 18.213-34.843 10.951-65.983-7.025-76.935-41.869-2.533-8.059-3.704-15.881-3.602-23.289 7.126-3.858 14.212-11.038 21.768-21.735l6.119-7.972 6.011-8.1c14.491-17.988 18.878-31.58 13.34-43.727-.176-.647-.375-1.267-.603-1.849-2.745-4.625-7.795-12.402-13.201-14.179-.413-.324-.819-.648-1.248-.972-14.568-10.996-41.488-1.283-58.665 6.934-.301-.241-.596-.487-.914-.714l-27.79-19.89c-8.141-5.826-18.964-5.223-23.808 1.328l-1.791 2.421-30.175 2.594c-.075.006-.146.021-.22.029l-1.998-1.542c-6.448-4.979-16.82-2.445-22.815 5.572l-20.464 27.369c-5.995 8.018-5.617 18.852.831 23.83l6.195 4.783c.558.431 1.153.785 1.765 1.104l9.711 27.676c-2.484 3.546-3.744 8.232-3.119 13.114l3.781 29.53c-18.11 5.825-43.56 17.043-46.632 34.715-.093.537-.169 1.058-.251 1.583-2.722 4.995-1.103 14.105.051 19.353.232.582.511 1.171.825 1.766 4.256 12.65 16.746 19.578 39.614 22.813l9.899 1.804 9.938 1.645c12.825 2.649 22.905 3.051 30.745.999 5.135 5.34 9.625 11.852 13.281 19.467 15.809 32.926 5.351 67.328-27.575 83.137-10.317 4.954-20.13.771-29.721 2.863-14.501 1.018-25.952 13.096-25.952 27.856 0 5.56 1.63 10.734 4.43 15.087 2.306 5.227 6.986 9.843 16.098 11.848 1.771.485 3.613.801 5.506.929 15.572 1.969 27.262-2.644 43.201-10.296 54.675-26.251 80.399-96.018 54.147-150.693-7.736-16.113-18.503-29.45-31.239-39.581-3.126-13.905-17.345-27.771-29.411-37.376 1.291-2.99 1.834-6.451 1.378-10.013l-4.135-32.297c-1.002-7.825-6.549-13.959-13.079-15.258l-9.866-28.116 19.888-26.6c1.133-1.516 2.037-3.132 2.717-4.791l21.972-1.889c1.106 1.297 2.394 2.499 3.864 3.551l27.79 19.89c.828.593 1.689 1.102 2.564 1.562-2.188 15.181-2.989 34.689 4.141 46.829-2.378 16.099-1.128 33.194 4.23 50.246 18.185 57.86 84.634 91.231 142.495 73.047 16.993-5.342 28.734-9.968 38.811-22.249 1.201-1.317 2.255-2.722 3.159-4.196 5.28-7.683 5.545-14.248 3.658-19.638zm-276.365-154.082c-.004.41-.003.82.032 1.234l.067-1.311c.658-.507 1.275-.915 1.834-1.2 1.375 2.591 3.579 4.765 6.301 6.288-1.838 5.726-9.392 16.26-15.075 21.456-2.302-1.596-4.9-2.571-7.539-2.806-.958.518-1.836 1.15-2.635 1.879-.006-.161-.011-.31-.017-.481-.014-.392.045-.851.159-1.358l.301-.061c-.096.007-.192.003-.288.013 1.367-5.934 10.814-18.937 16.86-23.653zm13.34 114.23c-2.839-1.883-4.599-2.936-4.599-2.936l-.607-.105c0 0-1.861.367-4.946 1.12-2.543-7.155-3.936-20.466-2.373-25.84 1.14.393 2.311.634 3.489.739 1.588-.859 2.975-2.024 4.113-3.432.096.086.184.164.285.254 3.898 3.482 6.717 23.498 4.638 30.2zm48.303-113.604c2.476-1.924 4.345-4.411 5.327-7.184-.174-.699-.401-1.378-.686-2.035.366.13.746.278 1.14.443-.12.54-.27 1.07-.455 1.592.163.655.294 1.32.354 2.006l.183-3.563c6.029 2.556 15.135 9.003 19.847 13.992-1.626.943-2.541 1.512-2.541 1.512l-.372.493c0 0-.804 2.798-1.829 7.348-6.082-2.298-16.103-9.335-20.968-14.604z" fill="param(fill)" fill-opacity="param(fill-opacity)" stroke="param(outline)" stroke-opacity="param(outline-opacity)" stroke-width="param(outline-width)"/>
<path d="m339.224 158.558l-4.046 5.27-3.938 5.306z" fill="param(fill)" fill-opacity="param(fill-opacity)" stroke="param(outline)" stroke-opacity="param(outline-opacity)" stroke-width="param(outline-width)"/>
<path d="m534.274 261.814c-10.72-22.083-22.869-47.111-29.199-85.044-5.916-35.45 26.984-103.11 27.317-103.79 1.079-2.2.444-4.857-1.512-6.332l-65.378-49.286c-1.7-1.281-4.013-1.375-5.812-.237-32.64 20.668-104.887 41.638-168.618-10.85-1.948-1.604-4.772-1.547-6.654.133-61.521 54.929-134.575 36.673-168.042 17.227-1.841-1.068-4.149-.886-5.799.459l-63.327 51.675c-1.9 1.551-2.431 4.233-1.264 6.392.36.667 35.983 67.059 31.51 102.703-4.786 38.136-15.91 63.596-25.724 86.058-11.181 25.591-21.743 49.763-19.905 86.005 5.466 109.142 90.581 143.143 172.893 176.024 31.607 12.626 64.291 25.682 91.225 42.804.851.54 1.8.798 2.737.798.438 0 .873-.056 1.294-.165.898-.056 1.794-.348 2.589-.896 26.218-18.107 58.346-32.366 89.415-46.155 80.923-35.914 164.601-73.052 165.634-182.322.365-36.286-11.17-60.046-23.38-85.201zm-146.401 258.177c-30.648 13.603-62.313 27.656-88.876 45.585-27.225-16.864-59.349-29.697-90.445-42.119-82.97-33.145-161.338-64.45-166.477-167.046-1.715-33.841 7.914-55.879 19.063-81.397 10.092-23.097 21.53-49.276 26.5-88.878 4.284-34.137-22.934-90.015-30.691-105.086l57.393-46.832c23.072 12.585 51.755 19.4 79.254 18.774 34.837-.797 67.368-13.265 94.361-36.115 27.896 21.77 60.886 32.956 95.743 32.465 27.527-.408 55.895-8.292 78.433-21.719l59.268 44.679c-7.141 15.349-32.072 72.198-26.405 106.151 6.572 39.387 19.063 65.121 30.085 87.825 12.177 25.086 22.694 46.752 22.353 80.635-.971 102.695-78.003 136.883-159.559 173.078z" fill="param(fill)" fill-opacity="param(fill-opacity)" stroke="param(outline)" stroke-opacity="param(outline-opacity)" stroke-width="param(outline-width)"/>
</svg>
