<svg enable-background="new 0 0 580 580" height="580" viewBox="0 0 580 580" width="580" xmlns="http://www.w3.org/2000/svg">
<path d="m459.177 426.611l-119.95-252.831c-.146-.308-.317-.594-.478-.889 1.127-4.215 1.743-8.651 1.743-13.24 0-11.991-4.121-22.979-10.958-31.514h38.947c12.45 0 22.543-10.093 22.543-22.543s-10.093-22.543-22.543-22.543h-145.973c-12.45 0-22.543 10.093-22.543 22.543s10.093 22.543 22.543 22.543h34.786c-6.837 8.535-10.959 19.523-10.959 31.514 0 5.839.981 11.438 2.773 16.635-.844 1.058-1.592 2.215-2.197 3.49l-119.951 252.832c-4.24 8.938-.432 19.621 8.506 23.861 2.479 1.176 5.092 1.733 7.666 1.733 6.703 0 13.131-3.78 16.196-10.239l115.38-243.198c.282.128.565.251.85.374l-.915 308.613c-.03 9.922 7.989 17.988 17.91 18.018.019 0 .037 0 .055 0 9.896 0 17.934-8.008 17.963-17.91l.915-308.809c.81-.352 1.609-.723 2.395-1.12l112.929 238.036c3.064 6.459 9.492 10.239 16.196 10.239 2.572 0 5.187-.558 7.665-1.733 8.937-4.241 12.746-14.924 8.506-23.862z" fill="param(fill)" fill-opacity="param(fill-opacity)" stroke="param(outline)" stroke-opacity="param(outline-opacity)" stroke-width="param(outline-width)"/>
</svg>
