<svg enable-background="new 0 0 580 580" height="580" viewBox="0 0 580 580" width="580" xmlns="http://www.w3.org/2000/svg">
<path d="m203.062 182.543h19.004l33.269 110.93c2.643 9.51 8.188 14.266 16.635 14.266 12.153 0 18.23-6.077 18.23-18.231 0-2.643-.524-5.021-1.572-7.133l-36.461-121.206c-2.644-8.462-8.712-16.65-18.206-24.565-11.622-9.509-24.299-14.265-38.032-14.265h-84.769c-13.218 0-25.105 4.755-35.663 14.265-7.931 7.383-13.209 15.571-15.837 24.565l-36.46 121.206c-1.047 2.644-1.571 5.021-1.571 7.133 0 12.154 6.068 18.231 18.206 18.231 8.462 0 14.015-4.756 16.659-14.266l33.27-110.93h18.206l-54.667 197.27h53.096v153.702c0 13.733 6.601 20.6 19.802 20.6s19.802-6.866 19.802-20.6v-154.476h19.826v155.273c0 13.201 6.601 19.802 19.802 19.802s19.802-6.601 19.802-19.802v-154.5h53.071z" fill="param(fill)" fill-opacity="param(fill-opacity)" stroke="param(outline)" stroke-opacity="param(outline-opacity)" stroke-width="param(outline-width)"/>
<path d="m155.528 113.61c12.137 0 22.433-4.223 30.888-12.669 8.454-8.446 12.681-18.48 12.681-30.102 0-12.153-4.227-22.453-12.681-30.9-8.455-8.446-18.75-12.669-30.888-12.669-11.622 0-21.66 4.224-30.114 12.669-8.455 8.447-12.682 18.747-12.682 30.9 0 11.622 4.227 21.656 12.682 30.102 8.454 8.447 18.492 12.67 30.114 12.669z" fill="param(fill)" fill-opacity="param(fill-opacity)" stroke="param(outline)" stroke-opacity="param(outline-opacity)" stroke-width="param(outline-width)"/>
<path d="m518.875 492.763c-1.722 7.979-4.492 14.063-8.31 18.254-3.817 4.191-9.457 6.286-16.92 6.286-7.692 0-13.662-2.598-17.91-7.793-4.248-5.194-6.372-14.796-6.372-28.803 0-11.309 1.779-19.604 5.339-24.885 4.707-7.118 11.48-10.677 20.321-10.678 3.903.001 7.434.804 10.591 2.411s5.827 3.904 8.008 6.889c1.32 1.78 2.584 4.593 3.789 8.438l34.443-7.663c-4.421-13.318-11.18-23.191-20.278-29.621-9.099-6.429-21.599-9.644-37.5-9.644-20.321 0-36.036 5.611-47.144 16.833-11.108 11.224-16.662 27.282-16.662 48.178 0 15.671 3.157 28.53 9.472 38.576s13.82 17.063 22.518 21.053c8.696 3.99 19.905 5.984 33.625 5.984 11.309 0 20.622-1.636 27.941-4.908 7.319-3.271 13.447-8.122 18.384-14.552s8.554-14.438 10.85-24.024z" fill="param(fill)" fill-opacity="param(fill-opacity)" stroke="param(outline)" stroke-opacity="param(outline-opacity)" stroke-width="param(outline-width)"/>
<path d="m371.804 488.629l-19.546-70.522h-36.941l-19.46 70.522-13.346-70.522h-37.027l28.072 126.234h38.231l22.044-79.478 22.129 79.478h38.231l27.814-126.234h-36.855z" fill="param(fill)" fill-opacity="param(fill-opacity)" stroke="param(outline)" stroke-opacity="param(outline-opacity)" stroke-width="param(outline-width)"/>
</svg>
