<?xml version="1.0" encoding="utf-8"?>
<!-- Generator: Adobe Illustrator 16.0.0, SVG Export Plug-In . SVG Version: 6.00 Build 0)  -->
<!DOCTYPE svg PUBLIC "-//W3C//DTD SVG 1.1//EN" "http://www.w3.org/Graphics/SVG/1.1/DTD/svg11.dtd">
<svg version="1.1"
	 id="svg2" xmlns:dc="http://purl.org/dc/elements/1.1/" xmlns:cc="http://creativecommons.org/ns#" xmlns:rdf="http://www.w3.org/1999/02/22-rdf-syntax-ns#" xmlns:svg="http://www.w3.org/2000/svg" xmlns:sodipodi="http://sodipodi.sourceforge.net/DTD/sodipodi-0.dtd" xmlns:inkscape="http://www.inkscape.org/namespaces/inkscape" inkscape:output_extension="org.inkscape.output.svg.inkscape" sodipodi:docbase="s:\Data\FacilityIcons" sodipodi:docname="amenity_firestation3.svg" inkscape:version="0.46" sodipodi:version="0.32"
	 xmlns="http://www.w3.org/2000/svg" xmlns:xlink="http://www.w3.org/1999/xlink" x="0px" y="0px" width="580px" height="580px"
	 viewBox="0 0 580 580" enable-background="new 0 0 580 580" xml:space="preserve">
<sodipodi:namedview  showgrid="false" inkscape:cy="290.00963" inkscape:cx="305.74659" inkscape:zoom="1.1952453" pagecolor="#ffffff" bordercolor="#666666" guidetolerance="10.0" objecttolerance="10.0" gridtolerance="10.0" borderopacity="1.0" id="base" inkscape:current-layer="svg2" inkscape:window-y="20" inkscape:window-x="0" inkscape:pageopacity="0.0" inkscape:pageshadow="2" inkscape:window-width="1400" inkscape:window-height="1003">
	</sodipodi:namedview>
<defs>
	
	
		<inkscape:perspective  inkscape:vp_z="580 : 290 : 1" inkscape:vp_y="0 : 1000 : 0" inkscape:vp_x="0 : 290 : 1" sodipodi:type="inkscape:persp3d" id="perspective3653" inkscape:persp3d-origin="290 : 193.33333 : 1">
		</inkscape:perspective>
	
		<inkscape:perspective  inkscape:vp_z="355.02399 : 217.53 : 1" inkscape:vp_y="0 : 1000 : 0" inkscape:vp_x="0 : 217.53 : 1" sodipodi:type="inkscape:persp3d" id="perspective2512" inkscape:persp3d-origin="177.51199 : 145.02 : 1">
		</inkscape:perspective>
	
		<inkscape:perspective  inkscape:vp_z="744.09448 : 526.18109 : 1" inkscape:vp_y="0 : 1000 : 0" inkscape:vp_x="0 : 526.18109 : 1" sodipodi:type="inkscape:persp3d" id="perspective3305" inkscape:persp3d-origin="372.04724 : 350.78739 : 1">
		</inkscape:perspective>
	
		<inkscape:perspective  inkscape:vp_z="744.09448 : 526.18109 : 1" inkscape:vp_y="0 : 1000 : 0" inkscape:vp_x="0 : 526.18109 : 1" sodipodi:type="inkscape:persp3d" id="perspective3354" inkscape:persp3d-origin="372.04724 : 350.78739 : 1">
		</inkscape:perspective>
	
		<inkscape:perspective  inkscape:vp_z="744.09448 : 526.18109 : 1" inkscape:vp_y="0 : 1000 : 0" inkscape:vp_x="0 : 526.18109 : 1" sodipodi:type="inkscape:persp3d" id="perspective3569" inkscape:persp3d-origin="372.04724 : 350.78739 : 1">
		</inkscape:perspective>
	
		<inkscape:perspective  inkscape:vp_z="744.09448 : 526.18109 : 1" inkscape:vp_y="0 : 1000 : 0" inkscape:vp_x="0 : 526.18109 : 1" sodipodi:type="inkscape:persp3d" id="perspective3604" inkscape:persp3d-origin="372.04724 : 350.78739 : 1">
		</inkscape:perspective>
	
		<inkscape:perspective  inkscape:vp_z="744.09448 : 526.18109 : 1" inkscape:vp_y="0 : 1000 : 0" inkscape:vp_x="0 : 526.18109 : 1" sodipodi:type="inkscape:persp3d" id="perspective4346" inkscape:persp3d-origin="372.04724 : 350.78739 : 1">
		</inkscape:perspective>
</defs>
<path fill="param(fill) #000" stroke="param(outline) #FFF" stroke-width="param(outline-width) 0" d="M122.818,93.71c0.089,0.126,0.184,0.248,0.284,0.366
	c13.298,15.567,25.456,29.167,37.168,41.575c1.026,1.087,2.481,1.655,3.976,1.556c1.444-0.098,2.772-0.817,3.645-1.967
	c0.31-0.284,1.207-0.833,1.808-1.201c2.403-1.472,5.693-3.488,5.792-7.423c0.04-1.593-0.492-3.867-3.131-5.926
	c-4.838-5.748-9.935-11.396-14.868-16.863c-9.117-10.103-18.534-20.538-26.38-31.709c0.055-0.216,0.147-0.322,0.211-0.396
	c0.735-0.848,3.131-1.707,6.29-1.707c0.609,0,1.202,0.032,1.762,0.096c0.2,0.022,0.399,0.026,0.602,0.032
	c2.316-0.018,4.645-0.019,6.981-0.021c20.013-0.011,40.705-0.022,59.306-10.082c8.528-3.895,16.919-8.605,25.035-13.162
	c20.209-11.346,39.301-22.063,61.642-22.284c23.168,0.472,43.906,12.527,63.964,24.186c6.268,3.644,12.747,7.41,19.211,10.771
	c22.293,12.595,42.773,18.719,62.604,18.719c0.975,0,1.948-0.015,2.925-0.045c1.747,0.125,3.54,0.141,5.277,0.157
	c4.905,0.044,9.561,0.085,12.339,2.424c0.161,1.371-0.925,2.709-4.442,5.88c-1.596,1.438-3.242,2.922-4.581,4.663
	c-10.712,10.73-22.14,22.1-37.005,36.817c-1.187,1.174-1.743,2.847-1.427,4.486c0.317,1.639,1.396,2.995,2.935,3.643
	c0.387,0.216,1.293,1.131,1.892,1.737c1.918,1.938,4.304,4.349,7.731,4.349c1.307,0,3.239-0.372,5.087-2.209
	c5.568-5.741,11.421-11.445,17.081-16.961c11.584-11.29,23.562-22.964,34.034-35.834c0.354-0.434,0.632-0.925,0.822-1.451
	c1.983-5.469,1.259-12.021-1.846-16.692c-2.53-3.806-6.373-6.079-10.858-6.437c-8.687-1.928-17.54-2.56-26.106-3.171
	c-10.772-0.77-20.947-1.496-30.766-4.58c-0.069-0.022-0.14-0.042-0.209-0.061c-16.707-4.461-31.381-13.319-46.915-22.698
	c-16.16-9.756-32.87-19.845-51.966-24.397c-0.038-0.009-0.077-0.018-0.115-0.026c-6.359-1.357-13.513-2.017-21.866-2.017
	c-1.133,0-2.265,0.011-3.316,0.032c-22.291,0.062-41.002,11.166-59.098,21.904c-4.02,2.385-8.176,4.852-12.23,7.101
	c-20.891,10.922-44.973,16.694-69.649,16.695c-2.979,0-5.999-0.085-8.977-0.254c-0.158-0.009-0.316-0.011-0.473-0.004l-1.072,0.04
	c-8.941,0.321-23.905,0.858-27.3,14.124c-0.015,0.058-0.029,0.116-0.042,0.175c-2.209,10.129,4.325,17.081,9.575,22.666
	C119.926,90.201,121.596,91.978,122.818,93.71z"/>
<path fill="param(fill) #000" stroke="param(outline) #FFF" stroke-width="param(outline-width) 0" d="M135.975,418.202c-0.034-1.452-0.69-2.812-1.812-3.735
	c-0.334-0.305-1.036-1.417-1.5-2.153c-1.63-2.585-3.864-6.125-8.033-6.125c-2.394,0-4.499,1.203-6.267,3.578
	c-5.269,4.355-10.483,8.903-15.532,13.307c-9.562,8.34-19.436,16.952-29.811,24.344c-0.119-0.055-0.221-0.145-0.343-0.288
	c-1.086-1.277-1.627-4.675-1.181-7.42c0.036-0.219,0.057-0.44,0.063-0.662c0.53-18.782,0.273-38.613-8.945-56.501
	c-4.317-9.985-9.618-19.774-14.746-29.243c-11.802-21.795-22.951-42.383-23.994-66.29c-0.026-25.184,13.27-47.605,26.127-69.288
	c3.255-5.489,6.621-11.165,9.699-16.772c13.508-23.435,19.785-44.657,19.181-64.863c0.15-1.722,0.148-3.519,0.147-5.26
	c-0.003-4.941,0.143-8.416,1.979-10.078c0.081-0.007,0.161-0.01,0.238-0.01c1.882,0,3.997,2.354,6.236,4.845
	c1.646,1.832,3.345,3.723,5.403,5.208c4.729,4.634,9.449,9.427,14.017,14.066c7.166,7.277,14.575,14.802,22.251,21.954
	c1.025,0.956,2.405,1.434,3.804,1.326c1.398-0.111,2.686-0.804,3.547-1.911c0.427-0.547,1.024-1.178,1.657-1.845
	c2.195-2.316,5.202-5.488,4.482-9.714c-0.422-2.482-2.013-4.54-4.733-6.126c-4.012-4.035-8.038-8.197-11.936-12.227
	c-12.729-13.161-25.893-26.77-40.794-38.275c-0.756-0.583-1.663-0.938-2.614-1.023c-1.141-0.101-2.342-0.148-3.78-0.148
	c-0.849,0-1.698,0.017-2.546,0.035l-0.103,0c-3.582,0-6.781,1.321-9.252,3.819c-4.9,4.954-5.47,12.879-5.465,16.352
	c-0.408,4.168-0.7,8.407-0.982,12.51c-0.999,14.503-1.942,28.201-7.591,40.735c-0.054,0.121-0.104,0.243-0.148,0.367
	c-5.026,14.018-12.889,27.419-20.492,40.38c-12.014,20.479-24.437,41.654-26.932,66.722c-2.773,28.401,11.129,54.339,23.396,77.223
	l0.857,1.599c12.944,24.271,25.791,53.21,22.93,83.829c-0.007,0.077-0.012,0.154-0.016,0.231
	c-0.337,7.224-1.128,24.141,11.892,29.539c0.195,0.081,0.395,0.149,0.598,0.205c1.322,0.361,2.666,0.544,3.995,0.544
	c6.102,0,10.606-3.643,14.58-6.857c1.688-1.365,3.283-2.654,4.768-3.467c0.2-0.109,0.392-0.232,0.575-0.368
	c16.328-12.087,31.418-25.523,45.475-38.25C135.401,421.044,136.009,419.655,135.975,418.202z"/>
<path fill="param(fill) #000" stroke="param(outline) #FFF" stroke-width="param(outline-width) 0" d="M559.745,242.869c-2.011-4.227-4.119-8.535-6.159-12.702
	c-13.681-27.955-27.827-56.861-26.373-88.059c0.008-0.157,0.008-0.314,0-0.471c-0.067-1.425-0.095-2.913-0.124-4.487
	c-0.152-8.358-0.342-18.759-7.655-25.912c-0.462-0.451-1.006-0.809-1.604-1.053c-3.45-1.411-6.889-1.398-10.133-1.364
	c-0.815,0.009-1.626,0.018-2.421-0.006c-0.806-0.024-1.608,0.146-2.335,0.5c-5.137,2.494-8.855,6.315-12.451,10.01
	c-2.508,2.577-4.876,5.01-7.548,6.795c-0.219,0.146-0.425,0.309-0.618,0.487c-4.363,4.035-8.843,8.105-13.174,12.042
	c-7.713,7.01-15.688,14.258-23.361,21.618c-1.088,1.043-1.647,2.522-1.521,4.025c0.122,1.458,0.876,2.788,2.061,3.641
	c0.322,0.334,0.948,1.343,1.368,2.018c1.564,2.519,3.706,5.969,7.775,5.969c1.503,0,3.656-0.523,5.617-2.927
	c5.392-4.738,10.704-9.724,15.846-14.549c9.608-9.018,19.534-18.333,30.165-26.186c0.116,0.03,0.236,0.111,0.417,0.331
	c1.032,1.256,1.551,4.326,1.108,6.57c-0.055,0.281-0.086,0.565-0.093,0.851c-0.46,19.96,0.458,41.019,10.18,59.832
	c4.027,9.567,8.841,19.043,13.496,28.21c11.182,22.015,22.743,44.778,23.633,69.621c-0.7,23.61-13.424,44.525-25.729,64.754
	c-3.451,5.673-7.019,11.538-10.26,17.364c-13.141,22.141-19.189,42.483-18.486,62.18c-0.162,1.721-0.19,3.519-0.218,5.261
	c-0.087,5.44-0.318,9.245-2.501,11.107c-0.158,0.025-0.311,0.037-0.46,0.037c-1.989,0-4.396-2.546-6.725-5.008
	c-1.477-1.561-3-3.172-4.714-4.48c-11.409-10.881-22.821-21.758-34.236-32.632c-1.185-1.128-2.848-1.604-4.446-1.279
	c-1.562,0.317-2.876,1.36-3.542,2.804c-0.23,0.331-0.966,1.038-1.459,1.511c-1.939,1.864-4.596,4.417-4.102,8.171
	c0.196,1.49,0.983,3.553,3.555,5.188c5.719,5.302,11.378,10.923,16.854,16.362c11.545,11.467,23.483,23.324,36.892,33.147
	c0.629,0.461,1.356,0.769,2.126,0.897c0.866,0.146,1.741,0.22,2.603,0.22h0.001c4.165,0,8.164-1.745,11.262-4.914
	c3.596-3.679,5.714-8.938,5.718-14.146c0.811-5.582,1.238-11.255,1.651-16.745c0.895-11.88,1.74-23.101,6.139-33.526
	c0.056-0.131,0.105-0.265,0.149-0.399c4.969-15.309,13.475-29.582,21.7-43.387c9.619-16.142,19.565-32.834,24.449-51.818
	c0.011-0.042,0.021-0.084,0.03-0.127C577.507,294.622,573.122,267.87,559.745,242.869z"/>
<path fill="param(fill) #000" stroke="param(outline) #FFF" stroke-width="param(outline-width) 0" d="M464.066,496.99c-7.668-9.086-15.808-18.048-23.684-26.718
	c-6.51-7.168-13.242-14.579-19.63-21.978c-1.052-1.219-2.639-1.854-4.227-1.713c-1.446,0.129-2.756,0.878-3.602,2.039
	c-0.396,0.304-1.337,0.841-1.921,1.175c-2.573,1.47-6.099,3.483-5.93,7.496c0.053,1.256,0.565,3.469,3.232,5.127
	c4.853,5.582,10.012,11.074,15.007,16.392c8.682,9.241,17.651,18.79,25.18,28.998c0.049,0.279-0.023,0.386-0.086,0.478
	c-0.64,0.939-2.912,1.945-5.273,1.945c-0.357,0-0.689-0.024-0.987-0.073c-0.148-0.023-0.297-0.041-0.447-0.052
	c-3.542-0.253-7.121-0.381-10.636-0.381c-21.938,0-42.34,4.764-60.64,14.159c-6.063,2.832-12.213,5.95-18.16,8.967
	c-22.275,11.297-45.309,22.979-70.045,22.979c-1.537,0-3.089-0.046-4.567-0.132c-23.14-1.571-42.606-13.301-63.216-25.719
	c-8.919-5.375-18.143-10.933-27.52-15.473c-16.085-8.146-34.614-12.452-53.585-12.452c-0.462,0-0.922,0.002-1.324,0.007
	l-1.677,0.002c-8.014,0-9.217-1.272-9.415-2.228c0.652-2.529,3.008-4.642,5.711-7.063c2.097-1.879,4.262-3.818,6.01-6.279
	c4.698-4.856,9.387-9.72,14.077-14.582c6.142-6.369,12.283-12.737,18.44-19.088c1.101-1.137,1.601-2.726,1.345-4.287
	c-0.255-1.562-1.233-2.909-2.64-3.635c-0.393-0.214-1.308-1.131-1.914-1.738c-1.917-1.921-4.302-4.312-7.726-4.312
	c-1.922,0-4.581,0.756-6.644,4.229l-1.789,1.845c-0.055,0.056-0.108,0.113-0.16,0.172c-5.656,6.41-11.98,12.533-18.095,18.455
	c-10.217,9.894-20.782,20.124-29.049,32.368c-0.277,0.41-0.492,0.859-0.637,1.333c-1.476,4.818-0.539,9.993,2.57,14.197
	c3.502,4.736,9.285,7.68,15.089,7.68c0.001,0,0.002,0,0.003,0c0.197,0,0.394-0.003,0.591-0.01
	c5.245,0.667,10.572,1.025,15.728,1.373c12.255,0.825,23.83,1.604,34.561,6.169c0.137,0.059,0.276,0.111,0.418,0.156
	c15.043,4.867,29.174,13.22,42.839,21.297c15.042,8.892,30.596,18.085,47.956,23.164c0.044,0.013,0.088,0.025,0.133,0.037
	c8.299,2.181,16.99,3.286,25.833,3.286c20.642,0,41.59-5.89,60.589-17.031l3.444-1.681c27.283-13.322,55.494-27.097,85.539-27.097
	c2.07,0,4.155,0.066,6.197,0.197c0.191,0.013,0.38,0.013,0.572,0.005c1.223-0.062,2.481-0.1,3.759-0.138
	c8.194-0.248,17.481-0.528,24.442-6.631c0.479-0.419,0.872-0.926,1.16-1.492C473.424,512.571,471.226,502.688,464.066,496.99z"/>
<path fill="param(fill) #000" stroke="param(outline) #FFF" stroke-width="param(outline-width) 0" d="M364.797,157.543c11.893,94.867-12.479,107.442-24.194,145.648
	c-27.544-81.259-81.799-86.796-95.324-176.132c-19.712,72.212,7.709,106.836,5.806,159.681
	c-27.601-48.865-54.969-92.13-81.292-110.325c21.7,43.733-6.614,96.254-16.331,138.812c-13.851,60.664,4.908,101.254,35.687,118.613
	c-0.466-29.561,9.248-55.686,15-61.937c7.583,53.418,16.267,86.154,58.55,118.066c4.265-67.281,25.412-49.866,32.904-133.551
	c30.861,50.969,24.871,101.938,9.678,152.906c27.184-24.296,57.279-44.327,94.841-152.906l-7.742,81.292
	C416.301,379.207,484.56,321.104,364.797,157.543z"/>
<path fill="param(fill) #000" stroke="param(outline) #FFF" stroke-width="param(outline-width) 0" d="M276.73,43.348c-31.321,127.18,25.863,126.063,57.582,200.811
	C356.561,128.9,290.003,154.833,276.73,43.348z"/>
</svg>
