<?xml version="1.0" encoding="utf-8"?>
<!-- Generator: Adobe Illustrator 16.0.0, SVG Export Plug-In . SVG Version: 6.00 Build 0)  -->
<!DOCTYPE svg PUBLIC "-//W3C//DTD SVG 1.1//EN" "http://www.w3.org/Graphics/SVG/1.1/DTD/svg11.dtd">
<svg version="1.1"
	 id="svg2" xmlns:dc="http://purl.org/dc/elements/1.1/" xmlns:cc="http://creativecommons.org/ns#" xmlns:rdf="http://www.w3.org/1999/02/22-rdf-syntax-ns#" xmlns:svg="http://www.w3.org/2000/svg" xmlns:sodipodi="http://sodipodi.sourceforge.net/DTD/sodipodi-0.dtd" xmlns:inkscape="http://www.inkscape.org/namespaces/inkscape" inkscape:output_extension="org.inkscape.output.svg.inkscape" sodipodi:docbase="s:\Data\FacilityIcons" sodipodi:docname="amenity_recycling.svg" inkscape:version="0.46" sodipodi:version="0.32"
	 xmlns="http://www.w3.org/2000/svg" xmlns:xlink="http://www.w3.org/1999/xlink" x="0px" y="0px" width="580px" height="580px"
	 viewBox="0 0 580 580" enable-background="new 0 0 580 580" xml:space="preserve">
<sodipodi:namedview  showgrid="false" inkscape:cy="281.19503" inkscape:cx="361.50137" inkscape:zoom="0.92167712" pagecolor="#ffffff" bordercolor="#666666" guidetolerance="10.0" objecttolerance="10.0" gridtolerance="10.0" borderopacity="1.0" id="base" inkscape:current-layer="svg2" inkscape:window-y="25" inkscape:window-x="91" inkscape:pageopacity="0.0" inkscape:pageshadow="2" inkscape:window-height="947" inkscape:window-width="1048">
	</sodipodi:namedview>
<defs>
	
	
		<inkscape:perspective  inkscape:vp_z="580 : 290 : 1" inkscape:vp_y="0 : 1000 : 0" inkscape:vp_x="0 : 290 : 1" sodipodi:type="inkscape:persp3d" id="perspective2441" inkscape:persp3d-origin="290 : 193.33333 : 1">
		</inkscape:perspective>
	
		<inkscape:perspective  inkscape:vp_z="60 : 30 : 1" inkscape:vp_y="0 : 1000 : 0" inkscape:vp_x="0 : 30 : 1" sodipodi:type="inkscape:persp3d" id="perspective3452" inkscape:persp3d-origin="30 : 20 : 1">
		</inkscape:perspective>
	
		<inkscape:perspective  inkscape:vp_z="744.09448 : 526.18109 : 1" inkscape:vp_y="0 : 1000 : 0" inkscape:vp_x="0 : 526.18109 : 1" sodipodi:type="inkscape:persp3d" id="perspective4471" inkscape:persp3d-origin="372.04724 : 350.78739 : 1">
		</inkscape:perspective>
	
		<inkscape:perspective  inkscape:vp_z="12 : 6 : 1" inkscape:vp_y="0 : 1000 : 0" inkscape:vp_x="0 : 6 : 1" sodipodi:type="inkscape:persp3d" id="perspective4668" inkscape:persp3d-origin="6 : 4 : 1">
		</inkscape:perspective>
</defs>
<g id="layer3" transform="matrix(48.14969,0,0,48.14969,-536.27327,-33.306752)" inkscape:label="Layout" display="none">
	<rect id="rect4134" x="1" y="1" display="inline" fill="none" stroke="#757575" stroke-width="0.1" width="10" height="10"/>
	<rect id="rect4136" x="2" y="2" display="inline" fill="none" stroke="#757575" stroke-width="0.1" width="8" height="8"/>
</g>
<path fill="#FFFB3D" stroke="#1EFF31" stroke-width="4.4444" d="M228.021,50.13c-14.283,0-24.991,6.243-32.125,18.727
	l-62.227,107.075c23.635,13.833,52.411,30.341,86.325,49.524c20.068-34.35,41.703-71.825,64.902-112.425l-24.752-44.174
	C253.011,56.373,242.303,50.131,228.021,50.13z"/>
<path fill="#FFFB3D" stroke="#1EFF31" stroke-width="4.4444" d="M215.298,353.28l-62.227-108.423H27.922l50.872,29.449
	l-31.45,54.201c-2.683,4.915-4.023,10.048-4.023,15.398s1.341,10.483,4.023,15.398l49.503,86.325
	c2.233-6.249,4.466-11.606,6.699-16.072l61.574-105.727L215.298,353.28z"/>
<path fill="#FFFB3D" stroke="#1EFF31" stroke-width="4.4444" d="M137.672,413.506l-15.378,26.773
	c-3.581,5.8-5.371,12.042-5.371,18.728c0,10.266,3.683,18.966,11.049,26.1c7.365,7.134,16.174,10.701,26.426,10.701h123.147v-99.702
	H147.72C146.821,397.89,143.472,403.69,137.672,413.506z"/>
<path fill="#FFFB3D" stroke="#1EFF31" stroke-width="4.4444" d="M288.92,193.332h124.474L476.296,84.93l-50.852,29.449
	l-31.472-54.221c-5.8-10.251-14.718-15.377-26.753-15.378h-99.048c4.016,4.453,7.365,8.912,10.048,13.377l60.879,105.727
	l-10.028,6.024L288.92,193.332z"/>
<path fill="#FFFB3D" stroke="#1EFF31" stroke-width="4.4444" d="M541.872,318.481l-61.553-107.075
	c-2.233,1.334-31.016,17.843-86.347,49.524c27.665,47.734,49.531,85.433,65.597,113.099h50.178c14.731,0,25.664-6.249,32.799-18.748
	C549.23,343.232,549.006,330.965,541.872,318.481z"/>
<path fill="#FFFB3D" stroke="#1EFF31" stroke-width="4.4444" d="M387.969,394.758v-12.049v-46.154l-62.247,108.401l62.247,107.748
	v-58.224h62.228c12.048,0,21.19-5.133,27.427-15.398l49.524-86.326c-6.686,1.784-12.261,2.676-16.726,2.676L387.969,394.758z"/>
</svg>
