<svg enable-background="new 0 0 580 580" height="580" viewBox="0 0 580 580" width="580" xmlns="http://www.w3.org/2000/svg">
<path d="m550.782 375.493c-1.029-1.195-2.527-1.883-4.104-1.883h-1.286l-79.826-192.078c30.638-6.637 47.148-23.932 60.31-41.981.829-1.137.648-2.72-.415-3.641-1.063-.922-2.655-.875-3.663.107-12.837 12.52-45.262 27.641-66.271 27.642-1.034 0-2.04-.038-2.991-.112-.065-.005-.131-.008-.196-.008-23.157-.137-48.395-8.994-74.98-26.307-21.3-14.276-47.133-22.986-78.804-26.552l-2.05-54.249c-.111-2.942-2.57-5.251-5.498-5.209-.033 0-.064.01-.098.011-.032-.001-.063-.011-.097-.011-.029 0-.059 0-.089 0-2.904 0-5.299 2.297-5.409 5.21l-2.05 54.249c-31.67 3.565-57.502 12.274-78.773 26.532-26.616 17.333-51.854 26.19-75.011 26.327-.065 0-.131.003-.196.008-.95.074-1.956.112-2.991.112-21.009 0-53.434-15.122-66.272-27.642-1.008-.981-2.6-1.031-3.663-.107-1.063.921-1.244 2.504-.415 3.641 13.16 18.049 29.672 35.345 60.311 41.981l-79.829 192.077h-1.286c-1.577 0-3.076.688-4.104 1.883-1.029 1.195-1.485 2.779-1.25 4.339 5.433 36.052 44.737 63.238 91.425 63.238 46.688 0 85.993-27.187 91.426-63.238.235-1.56-.221-3.144-1.25-4.339-1.028-1.195-2.527-1.883-4.104-1.883h-1.23l-77.821-190.131c.33.037.649.082.981.117.094.01.188.015.283.015.015 0 .029 0 .044 0 36.268-.586 55.436-10.783 73.972-20.644 1.187-.631 2.373-1.262 3.563-1.891 7.81-2.897 15.355-6.561 22.653-10.104 16.537-8.03 32.156-15.614 51.424-15.614.39 0 .786.026 1.178.033l-13.388 354.272h-106.946c-2.99 0-5.415 2.425-5.415 5.415v24.217c0 2.99 2.424 5.415 5.415 5.415h126.547 4.73 126.548c2.99 0 5.415-2.425 5.415-5.415v-24.217c0-2.99-2.425-5.415-5.415-5.415h-106.945l-13.387-354.273c.391-.006.787-.033 1.177-.033 19.269 0 34.888 7.584 51.424 15.614 7.299 3.544 14.844 7.208 22.654 10.105 1.19.629 2.377 1.26 3.563 1.891 18.536 9.861 37.704 20.058 73.972 20.644.015 0 .029 0 .044 0 .095 0 .188-.005.283-.015.332-.035.652-.08.981-.117l-77.821 190.131h-1.23c-1.577 0-3.075.688-4.104 1.883-1.028 1.195-1.484 2.779-1.25 4.339 5.433 36.052 44.737 63.238 91.426 63.238s85.993-27.187 91.426-63.238c.233-1.56-.223-3.144-1.252-4.339zm-502.629-1.883l73.658-177.232 72.541 177.232zm411.855-177.232l73.656 177.232h-146.198z" fill="param(fill)" fill-opacity="param(fill-opacity)" stroke="param(outline)" stroke-opacity="param(outline-opacity)" stroke-width="param(outline-width)"/>
</svg>
