<?xml version="1.0" encoding="utf-8"?>
<!-- Generator: Adobe Illustrator 16.0.0, SVG Export Plug-In . SVG Version: 6.00 Build 0)  -->
<!DOCTYPE svg PUBLIC "-//W3C//DTD SVG 1.1//EN" "http://www.w3.org/Graphics/SVG/1.1/DTD/svg11.dtd">
<svg version="1.1" id="Layer_1" xmlns="http://www.w3.org/2000/svg" xmlns:xlink="http://www.w3.org/1999/xlink" x="0px" y="0px"
	 width="580px" height="580px" viewBox="0 0 580 580" enable-background="new 0 0 580 580" xml:space="preserve">
<path fill="param(fill) #000" stroke="param(outline) #FFF" stroke-width="param(outline-width) 0" d="M290,34.5C148.891,34.5,34.5,148.891,34.5,290
	c0,141.108,114.391,255.5,255.5,255.5c141.108,0,255.5-114.392,255.5-255.5C545.5,148.891,431.108,34.5,290,34.5z M451.977,451.977
	c-21.046,21.046-45.547,37.565-72.821,49.102c-28.224,11.938-58.22,17.991-89.155,17.991s-60.932-6.053-89.156-17.991
	c-27.274-11.536-51.774-28.056-72.82-49.102s-37.566-45.547-49.102-72.821C66.984,350.932,60.931,320.936,60.931,290
	s6.053-60.932,17.991-89.156c11.536-27.274,28.056-51.774,49.102-72.82s45.546-37.566,72.82-49.102
	c23.17-9.801,47.538-15.626,72.636-17.401V290h33.039V61.521c25.099,1.775,49.465,7.601,72.636,17.401
	c27.274,11.536,51.775,28.056,72.821,49.102c21.045,21.046,37.565,45.546,49.102,72.82c11.938,28.224,17.991,58.22,17.991,89.156
	s-6.054,60.932-17.991,89.155C489.542,406.43,473.021,430.931,451.977,451.977z"/>
</svg>
