<svg viewBox="0 0 30.982 88.35" xmlns="http://www.w3.org/2000/svg" xmlns:xlink="http://www.w3.org/1999/xlink">
<text fill="param(fill)" font-family="OPEN SANS" font-size="34.981" letter-spacing="0" line-height="125%" transform="matrix(1.3993 0 0 .71464 -16.508 20.498)" word-spacing="0" x="14.802" y="41.814">
<tspan font-family="Adobe Heiti Std R" font-size="22.738" x="14.802" y="41.814">N</tspan>
</text>
<g transform="translate(-15.07 -14.07)">
<g transform="matrix(.50522 0 0 .57874 15.12 .348)">
<path id="a" d="m32 35v-32" fill="none" stroke="param(outline)" stroke-width=".25" transform="translate(-1.438 34.573)"/>
<path id="b" d="m32-9.453l28.938 73.826-29-29-29 29z" fill="param(fill)" stroke="param(outline)" stroke-width="3" transform="translate(-1.438 34.573)"/>
<path id="c" d="m32-9.453l29 73.45-29-29-29 29z" fill="none" stroke="param(outline)" stroke-linecap="square" transform="translate(-1.438 34.573)"/>
<path id="d" d="m4 92.82l6.74-3.891" fill="none" stroke="param(outline)" stroke-width=".25"/>
<path id="e" d="m4.603 90.7l10.397-6" fill="none" stroke="param(outline)" stroke-width=".25"/>
<path id="f" d="m3 95.17l4-2.309" fill="none" stroke="param(outline)" stroke-width=".25"/>
<path id="g" d="m5.442 88.45l13.856-8" fill="none" stroke="param(outline)" stroke-width=".25"/>
<path id="h" d="m12 72.26l18.686-10.812" fill="none" stroke="param(outline)" stroke-width=".25"/>
<path id="i" d="m14.593 65.45l16.09-9.291" fill="none" stroke="param(outline)" stroke-width=".25"/>
<path id="j" d="m15.343 63.24l15.343-8.858" fill="none" stroke="param(outline)" stroke-width=".25"/>
<path id="k" d="m16.877 60.58l13.809-7.972" fill="none" stroke="param(outline)" stroke-width=".25"/>
<path id="l" d="m17.511 58.45l13.174-7.606" fill="none" stroke="param(outline)" stroke-width=".25"/>
<path id="m" d="m18.412 56.15l12.274-7.087" fill="none" stroke="param(outline)" stroke-width=".25"/>
<path id="n" d="m19 54.04l11.427-6.597" fill="none" stroke="param(outline)" stroke-width=".25"/>
<path id="o" d="m20 51.757l10.822-6.311" fill="none" stroke="param(outline)" stroke-width=".25"/>
<path id="p" d="m20.826 49.45l9.86-5.693" fill="none" stroke="param(outline)" stroke-width=".25"/>
<path id="q" d="m21.48 47.3l9.206-5.315" fill="none" stroke="param(outline)" stroke-width=".25"/>
<path id="r" d="m23 44.647l7.686-4.437" fill="none" stroke="param(outline)" stroke-width=".25"/>
<path id="s" d="m23.744 42.45l6.928-4" fill="none" stroke="param(outline)" stroke-width=".25"/>
<path id="t" d="m24.549 40.21l6.137-3.543" fill="none" stroke="param(outline)" stroke-width=".25"/>
<path id="u" d="m25 38.18l5.686-3.283" fill="none" stroke="param(outline)" stroke-width=".25"/>
<path id="v" d="m26.663 35.446l4.02-2.323" fill="none" stroke="param(outline)" stroke-width=".25"/>
<path id="w" d="m27.617 33.12l3.069-1.772" fill="none" stroke="param(outline)" stroke-width=".25"/>
<path id="x" d="m28 31.13l2.686-1.551" fill="none" stroke="param(outline)" stroke-width=".25"/>
<path id="y" d="m29.15 28.694l1.534-.886" fill="none" stroke="param(outline)" stroke-width=".25"/>
<path id="z" d="m13 69.909l17.686-10.211" fill="none" stroke="param(outline)" stroke-width=".25"/>
<path id="A" d="m9.206 79.19l21.48-12.402" fill="none" stroke="param(outline)" stroke-width=".25"/>
<path id="B" d="m8.36 81.45l22.326-12.89" fill="none" stroke="param(outline)" stroke-width=".25"/>
<path id="C" d="m7.671 83.62l19.946-11.516" fill="none" stroke="param(outline)" stroke-width=".25"/>
<path id="D" d="m6.137 86.27l17.02-9.827" fill="none" stroke="param(outline)" stroke-width=".25"/>
<path id="E" d="m10 76.956l20.686-11.943" fill="none" stroke="param(outline)" stroke-width=".25"/>
<path id="F" d="m11.279 74.45l19.407-11.205" fill="none" stroke="param(outline)" stroke-width=".25"/>
<path id="G" d="m14 67.56l16.686-9.634" fill="none" stroke="param(outline)" stroke-width=".25"/>
<path id="H" d="m30.562 65.744v-43.566" fill="none" stroke="param(outline)" stroke-width=".25" transform="translate(0 3.829)"/>
</g>
<g transform="matrix(-.50522 0 0 -.57874 45.998 116.15)">
<use xlink:href="#a"/>
<use xlink:href="#b"/>
<use xlink:href="#c"/>
<use xlink:href="#d"/>
<use xlink:href="#e"/>
<use xlink:href="#f"/>
<use xlink:href="#g"/>
<use xlink:href="#h"/>
<use xlink:href="#i"/>
<use xlink:href="#j"/>
<use xlink:href="#k"/>
<use xlink:href="#l"/>
<use xlink:href="#m"/>
<use xlink:href="#n"/>
<use xlink:href="#o"/>
<use xlink:href="#p"/>
<use xlink:href="#q"/>
<use xlink:href="#r"/>
<use xlink:href="#s"/>
<use xlink:href="#t"/>
<use xlink:href="#u"/>
<use xlink:href="#v"/>
<use xlink:href="#w"/>
<use xlink:href="#x"/>
<use xlink:href="#y"/>
<use xlink:href="#z"/>
<use xlink:href="#A"/>
<use xlink:href="#B"/>
<use xlink:href="#C"/>
<use xlink:href="#D"/>
<use xlink:href="#E"/>
<use xlink:href="#F"/>
<use xlink:href="#G"/>
<use xlink:href="#H"/>
</g>
</g>
</svg>
