<svg viewBox="0 0 19.46875 19.46875" xmlns="http://www.w3.org/2000/svg">
  <g>
    <path fill="param(fill)"  fill-opacity="0.5" stroke="none" d="m 3.69375,3.69375 2.28125,4 1.34375,-0.375 0.34375,-1.3125 -3.96875,-2.3125 z"  />
    <path fill="param(fill)"  fill-opacity="0.5" stroke="none" d="m 15.775,3.69375 -4,2.28125 0.375,1.34375 1.34375,0.375 2.28125,-4 z"  />
    <path fill="param(fill)"  fill-opacity="0.5" stroke="none" d="M 6.00625,11.80625 3.69375,15.775 7.6625,13.4625 7.31875,12.15 6.00625,11.80625 z"  />
    <path fill="param(fill)"  fill-opacity="0.5" stroke="none" d="M 13.4625,11.80625 12.15,12.15 l -0.375,1.34375 4,2.28125 -2.3125,-3.96875 z"  />
  </g>
  <g>
    <path fill="param(outline)" fill-opacity="param(outline-opacity)" stroke="param(outline)" stroke-opacity="param(outline-opacity)" stroke-width="0.2375" d="m 9.7375,0.11875 c -5.3108819,0 -9.61875,4.3078672 -9.61875,9.6187503 0,5.3108817 4.3078681,9.6187497 9.61875,9.6187497 5.310882,0 9.61875,-4.307868 9.61875,-9.6187497 0,-5.3108831 -4.307868,-9.6187503 -9.61875,-9.6187503 z m 0,19 c -5.1825274,0 -9.38125,-4.198723 -9.38125,-9.3812497 0,-5.1825286 4.1987226,-9.3812503 9.38125,-9.3812503 5.182527,0 9.38125,4.1987217 9.38125,9.3812503 0,5.1825267 -4.198723,9.3812497 -9.38125,9.3812497"/>
    <path fill="param(fill)" fill-opacity="param(fill-opacity)" stroke="param(fill)" stroke-opacity="255" d="M 40,26.620001 32.12132,28.741321 30,36.620001 27.87868,28.741321 20,26.620001 27.87868,24.498681 30,16.620001 32.12132,24.49868 z" transform="matrix(0.9076178,0,0,0.90807237,-17.497969,-14.436479)" />
  </g>
</svg>
