<?xml version="1.0" encoding="UTF-8"?>
<svg viewBox="0 0 22.03 21.745" xmlns="http://www.w3.org/2000/svg">
 <g transform="translate(1.6385 1.1018)" fill="param(fill)" stroke="param(outline)" stroke-linecap="square" stroke-width=".19956">
  <path d="m5.1875 8.6758-4 1.0625 4 1.0625c-0.080816-0.34504-0.125-0.69276-0.125-1.0625 0-0.35905 0.048664-0.72662 0.125-1.0625z"/>
  <path d="m9.75 1.1875l-1.0625 3.875c.3430414-.077713.6960088-.125 1.0625-.125.356873 0 .696504.051204 1.03125.125z"/>
  <path d="m8.7109 14.406 1.0312 3.875 1-3.8438c-0.32242 0.06819-0.65732 0.125-1 0.125-0.35605 0-0.69722-0.08278-1.0312-0.15625z"/>
  <path d="m14.406 8.707c0.07347 0.33404 0.15625 0.6752 0.15625 1.0312 0 0.35687-0.08245 0.6965-0.15625 1.0313l3.875-1.0313z"/>
 </g>
 <g transform="translate(1.6385 1.1018)" fill="param(fill)" fill-opacity="param(fill-opacity)">
  <path d="m9.7375 5.6289c-2.2685 0-4.1086 1.8401-4.1086 4.1086 0 2.2685 1.8401 4.1086 4.1086 4.1086 2.2685 0 4.1086-1.8401 4.1086-4.1086 0-2.2685-1.8401-4.1086-4.1086-4.1086z" fill="none" overflow="visible" stroke="param(outline)" stroke-width=".42715"/>
  <text x="8.9161758" y=".32985753" font-family="OPEN SANS" font-size="40" letter-spacing="0" word-spacing="0" line-height="125%" xml:space="preserve"><tspan x="8.9161758" y=".32985753" font-family="arial black" font-size="2">N</tspan></text>
  <text x="9.0205507" y="20.61916" font-family="OPEN SANS" font-size="40" letter-spacing="0" word-spacing="0" line-height="125%" xml:space="preserve"><tspan x="9.0205507" y="20.61916" font-family="arial black" font-size="2">S</tspan></text>
  <text x="19.039063" y="10.454102" font-family="OPEN SANS" font-size="40" letter-spacing="0" word-spacing="0" line-height="125%" xml:space="preserve"><tspan x="19.039063" y="10.454102" font-family="arial black" font-size="2">E</tspan></text>
  <text x="-1.6375005" y="10.454102" font-family="OPEN SANS" font-size="40" letter-spacing="0" word-spacing="0" line-height="125%" xml:space="preserve"><tspan x="-1.6375005" y="10.454102" font-family="arial black" font-size="2">W</tspan></text>
 </g>
</svg>
