/* XPM */
static const char *icon[] = {
/* columns rows colors chars-per-pixel */
"22 22 139 2",
"   c #0F0F17",
".  c #17171E",
"X  c #003100",
"o  c #2E2E31",
"O  c #333335",
"+  c #112048",
"@  c #1B3974",
"#  c #51565D",
"$  c #605F60",
"%  c #6C6C6C",
"&  c #6D6D6D",
"*  c gray43",
"=  c #6F6F6F",
"-  c #797979",
";  c gray48",
":  c #7B7B7B",
">  c gray49",
",  c gray50",
"<  c #3F77E2",
"1  c #586B84",
"2  c #4969B4",
"3  c #517ECB",
"4  c #728EAD",
"5  c #5690F0",
"6  c gray52",
"7  c #888888",
"8  c gray54",
"9  c #8B8B8B",
"0  c #8D8D8D",
"q  c #8E8E8E",
"w  c gray57",
"e  c #929292",
"r  c #939393",
"t  c #959595",
"y  c #979797",
"u  c #989898",
"i  c gray60",
"p  c #9A9A9A",
"a  c #9B9B9B",
"s  c gray61",
"d  c #9D9D9D",
"f  c gray62",
"g  c #9F9F9F",
"h  c #A0A0A0",
"j  c gray63",
"k  c #A2A2A2",
"l  c gray64",
"z  c #A5A5A5",
"x  c gray65",
"c  c #A7A7A7",
"v  c gray66",
"b  c #A9A9A9",
"n  c #AAAAAA",
"m  c gray67",
"M  c #ACACAC",
"N  c gray68",
"B  c #AEAEAE",
"V  c #AFAFAF",
"C  c gray69",
"Z  c #B1B1B1",
"A  c #B2B2B2",
"S  c gray70",
"D  c #B4B4B4",
"F  c gray71",
"G  c #B6B6B6",
"H  c #B7B7B7",
"J  c gray72",
"K  c #B9B9B9",
"L  c gray73",
"P  c #BBBBBB",
"I  c #BBBCBB",
"U  c #BCBCBC",
"Y  c gray74",
"T  c gray",
"R  c gray75",
"E  c #84A2E8",
"W  c #8EB1E4",
"Q  c #BFBFC0",
"!  c #B0C2DA",
"~  c #B1C5DD",
"^  c #BFC8D8",
"/  c #C0C0BF",
"(  c #C0C0C0",
")  c #C1C1C1",
"_  c gray76",
"`  c gray77",
"'  c #C4C4C5",
"]  c #C5C5C5",
"[  c #C6C6C6",
"{  c gray78",
"}  c #C8C8C8",
"|  c gray79",
" . c #CACACA",
".. c #CBCBCB",
"X. c gray80",
"o. c #CECECE",
"O. c gray81",
"+. c #CCCFD5",
"@. c #D0D0D0",
"#. c gray82",
"$. c #D2D2D2",
"%. c gray83",
"&. c #D5D5D5",
"*. c gray84",
"=. c #D7D7D7",
"-. c #D8D8D8",
";. c gray85",
":. c #DADADA",
">. c gray86",
",. c gainsboro",
"<. c #DFDFDF",
"1. c gray88",
"2. c #E1E1E1",
"3. c #E2E2E2",
"4. c #E4E4E4",
"5. c gray90",
"6. c #E4E5E7",
"7. c #E6E6E6",
"8. c #E7E7E6",
"9. c #E7E7E7",
"0. c #E5E7EC",
"q. c gray91",
"w. c #E9E9E9",
"e. c #EAEAEA",
"r. c gray92",
"t. c #EBECED",
"y. c #ECECEC",
"u. c gray93",
"i. c #EEEEEE",
"p. c #EFEFEF",
"a. c gray94",
"s. c #F1F1F1",
"d. c gray95",
"f. c #F6F6F6",
"g. c gray97",
"h. c #F8F8F8",
"j. c gray99",
"k. c gray100",
"l. c None",
/* pixels */
"l.l.l.l.l.l.l.l.l.l.l.l.l.l.l.l.l.l.l.l.l.l.",
"l.l.l.l.l.l.l.l.l.l.l.l.l.l.l.l.l.l.l.l.l.l.",
"l.l.l.l.l.l.l.l.l.l.l.l.l.l.l.l.l.l.l.l.l.l.",
"l.l.l.l.l.l.l.l.l.l.l.l.l.l.l.l.l.l.l.l.l.l.",
"l.l.l.l.l.l.l.l.l.l.l.l.l.l.l.l.l.l.l.l.l.l.",
"l.l.l.l.l.l.l.l.l.l.l.l.l.l.l.l.l.l.l.l.l.l.",
"l.l.l.l.l.l.l.l.l.l.l.l.l.l.l.l.l.l.l.l.l.l.",
"l.U ) d i j [ | | | [ 3.i.r.r.i.r.6.i.0.U l.",
"l.$.j.j.h.s.i.9.2.>.| =.q.3.2.$...^ W 3 ` l.",
"l.=.j.j.f.i.r.2.,.) s.h.,.>.2.s.o.+.~ ! Q l.",
"l.| 2.,.=.O.o.[ U s.4.L / U m H 2.) >.=.P l.",
"l.L S V v x v d ` h.| G o   $ x L $.{ =.H l.",
"l.G V M v j x i 2.3.3.O 2 E + , x $.R $.G l.",
"l.G V v x g x i 3.9.i.. < 5 @ % c | j t 6 l.",
"l.S M v j d j t =.3.3.t 1 4 # d M ` 6 : * l.",
"l.V v x j i d r v s.>.3.| H H M U M , : * l.",
"l.M x l d y a w q ) 2.$.o.| U U L 7 : : * l.",
"l.M j d i t i q 7 6 V $.o.[ ` V 7 , : : * l.",
"l.o.=.=.$.o.o.[ [ ) U [ [ ) ) U L G V V t l.",
"l.{ $.o.| | [ ) ) U L G V V M M c x l d d l.",
"l.l.l.l.l.l.l.l.l.l.l.l.l.l.l.l.l.l.l.l.l.l.",
"l.l.l.l.l.l.l.l.l.l.l.l.l.l.l.l.l.l.l.l.l.l."
};
