<svg enable-background="new 0 0 579.997 580.457" height="580.457" viewBox="0 0 579.997 580.457" width="579.997" xmlns="http://www.w3.org/2000/svg">
<path d="m376.025 245.082l42.292 39.013-42.292 200.43c-17.954 60.956 85.615 87.637 85.615 4.328v-435.543c-45.556 0-85.615 106.176-85.615 191.772z" fill="param(fill)" fill-opacity="param(fill-opacity)" stroke="param(outline)" stroke-opacity="param(outline-opacity)" stroke-width="param(outline-width)"/>
<path d="m249.872 57.939h-4.256v90.653c0 9.792-8.338 18.132-18.132 18.132-9.793 0-17.066-8.34-17.066-18.132v-90.653h-40.517v90.653c0 9.792-7.293 18.132-17.068 18.132-9.792 0-18.13-8.34-18.13-18.132v-90.653h-4.276c-20.453 0-37.324 16.872-37.324 37.326v107.72c0 20.455 16.871 37.324 37.324 37.324h25.688l-22.477 244.215c0 28.774 23.488 52.263 52.245 52.263h8.532c28.777 0 52.264-23.488 52.264-52.263l-24.621-244.214h27.814c20.474 0 37.345-16.869 37.345-37.324v-107.72c0-20.454-16.871-37.327-37.345-37.327z" fill="param(fill)" fill-opacity="param(fill-opacity)" stroke="param(outline)" stroke-opacity="param(outline-opacity)" stroke-width="param(outline-width)"/>
</svg>
