<svg enable-background="new 0 0 579.997 580.457" height="580.457" viewBox="0 0 579.997 580.457" width="579.997" xmlns="http://www.w3.org/2000/svg">
<path d="m191.412 155.646c-26.369.018-47.714 21.399-47.714 47.751 0 .018 0 .018 0 .035.018 26.368 21.398 47.715 47.749 47.715 26.352-.018 47.715-21.398 47.697-47.75 0-.018 0-.035 0-.035.001-26.369-21.38-47.716-47.732-47.716z" fill="param(fill)" fill-opacity="param(fill-opacity)" stroke="param(outline)" stroke-opacity="param(outline-opacity)" stroke-width="param(outline-width)"/>
<path d="m190.263 310.198c-26.352 0-47.715 21.364-47.697 47.751 0 0 0 0 0 .035.019 26.35 21.381 47.714 47.75 47.714 26.352-.035 47.716-21.399 47.698-47.749 0-.036 0-.036 0-.071 0-26.352-21.382-47.68-47.751-47.68z" fill="param(fill)" fill-opacity="param(fill-opacity)" stroke="param(outline)" stroke-opacity="param(outline-opacity)" stroke-width="param(outline-width)"/>
<path d="m328.898 255.639c-26.352.02-47.716 21.399-47.698 47.751 0 .018 0 .018 0 .034 0 26.369 21.382 47.733 47.732 47.733 26.352-.035 47.715-21.435 47.715-47.768 0-.018 0-.035 0-.035 0-26.369-21.399-47.715-47.749-47.715z" fill="param(fill)" fill-opacity="param(fill-opacity)" stroke="param(outline)" stroke-opacity="param(outline-opacity)" stroke-width="param(outline-width)"/>
<path d="m503.994 358.721c-27.486-92.77-78.904-170.038-148.696-223.453-70.499-53.956-158.565-82.618-254.678-82.884-.026 0-.051 0-.077 0-14.966 0-27.121 12.112-27.162 27.089 0 .113.007.226.008.338-.014.273-.042.543-.043.817l-1.15 410.192c-.017 5.723 2.673 11.115 7.253 14.546 3.171 2.374 6.988 3.614 10.857 3.614 1.721 0 3.452-.245 5.142-.745l393.302-116.474c4.896-1.449 8.707-4.79 10.898-8.983 4.994-6.642 6.887-15.479 4.346-24.057zm-394.503-251.882c163.296 3.85 289.362 99.863 339.804 258.832l-340.812 100.93z" fill="param(fill)" fill-opacity="param(fill-opacity)" stroke="param(outline)" stroke-opacity="param(outline-opacity)" stroke-width="param(outline-width)"/>
</svg>
