<?xml version="1.0" encoding="UTF-8"?>
<svg width="580" height="580.46" enable-background="new 0 0 579.997 580.457" viewBox="0 0 580 580.46" xmlns="http://www.w3.org/2000/svg">
 <path d="m191.41 155.65c-26.369 0.018-47.714 21.399-47.714 47.751v0.035c0.018 26.368 21.398 47.715 47.749 47.715 26.352-0.018 47.715-21.398 47.697-47.75v-0.035c1e-3 -26.369-21.38-47.716-47.732-47.716z" fill="param(fill)" fill-opacity="param(fill-opacity)" stroke="param(outline)" stroke-opacity="param(outline-opacity)" stroke-width="param(outline-width)"/>
 <path d="m190.26 310.2c-26.352 0-47.715 21.364-47.697 47.751v0.035c0.019 26.35 21.381 47.714 47.75 47.714 26.352-0.035 47.716-21.399 47.698-47.749v-0.071c0-26.352-21.382-47.68-47.751-47.68z" fill="param(fill)" fill-opacity="param(fill-opacity)" stroke="param(outline)" stroke-opacity="param(outline-opacity)" stroke-width="param(outline-width)"/>
 <path d="m328.9 255.64c-26.352 0.02-47.716 21.399-47.698 47.751v0.034c0 26.369 21.382 47.733 47.732 47.733 26.352-0.035 47.715-21.435 47.715-47.768v-0.035c0-26.369-21.399-47.715-47.749-47.715z" fill="param(fill)" fill-opacity="param(fill-opacity)" stroke="param(outline)" stroke-opacity="param(outline-opacity)" stroke-width="param(outline-width)"/>
 <path d="m503.99 358.72c-27.486-92.77-78.904-170.04-148.7-223.45-70.499-53.956-158.56-82.618-254.68-82.884h-0.077c-14.966 0-27.121 12.112-27.162 27.089 0 0.113 7e-3 0.226 8e-3 0.338-0.014 0.273-0.042 0.543-0.043 0.817l-1.15 410.19c-0.017 5.723 2.673 11.115 7.253 14.546 3.171 2.374 6.988 3.614 10.857 3.614 1.721 0 3.452-0.245 5.142-0.745l393.3-116.47c4.896-1.449 8.707-4.79 10.898-8.983 4.994-6.642 6.887-15.479 4.346-24.057zm-394.5-251.88c163.3 3.85 289.36 99.863 339.8 258.83l-340.81 100.93z" fill="param(fill)" fill-opacity="param(fill-opacity)" stroke="param(outline)" stroke-opacity="param(outline-opacity)" stroke-width="param(outline-width)"/>
</svg>
