<?xml version="1.0" encoding="utf-8"?>
<!-- Generator: Adobe Illustrator 16.0.0, SVG Export Plug-In . SVG Version: 6.00 Build 0)  -->
<!DOCTYPE svg PUBLIC "-//W3C//DTD SVG 1.1//EN" "http://www.w3.org/Graphics/SVG/1.1/DTD/svg11.dtd">
<svg version="1.1"
	 id="svg3427" xmlns:dc="http://purl.org/dc/elements/1.1/" xmlns:cc="http://creativecommons.org/ns#" xmlns:rdf="http://www.w3.org/1999/02/22-rdf-syntax-ns#" xmlns:svg="http://www.w3.org/2000/svg" xmlns:sodipodi="http://sodipodi.sourceforge.net/DTD/sodipodi-0.dtd" xmlns:inkscape="http://www.inkscape.org/namespaces/inkscape" inkscape:export-filename="/home/matt/Programming/openstreetmap/icons/amenity=restaurant.png" inkscape:export-xdpi="90" inkscape:export-ydpi="90" inkscape:output_extension="org.inkscape.output.svg.inkscape" sodipodi:docname="amenity=restaurant.svg" inkscape:version="0.46" sodipodi:version="0.32"
	 xmlns="http://www.w3.org/2000/svg" xmlns:xlink="http://www.w3.org/1999/xlink" x="0px" y="0px" width="579.997px"
	 height="580.457px" viewBox="0 0 579.997 580.457" enable-background="new 0 0 579.997 580.457" xml:space="preserve">
<defs>
	
	
		<inkscape:perspective  inkscape:vp_z="16 : 8 : 1" inkscape:vp_y="0 : 1000 : 0" inkscape:vp_x="0 : 8 : 1" sodipodi:type="inkscape:persp3d" id="perspective3435" inkscape:persp3d-origin="8 : 5.3333333 : 1">
		</inkscape:perspective>
</defs>
<sodipodi:namedview  showgrid="true" inkscape:cy="7.7474869" inkscape:cx="1.6784314" inkscape:zoom="31.875" pagecolor="#ffffff" bordercolor="#666666" borderopacity="1.0" id="base" inkscape:document-units="px" inkscape:grid-bbox="true" inkscape:current-layer="layer3" inkscape:window-y="0" inkscape:window-x="0" inkscape:pageopacity="0.0" inkscape:pageshadow="2" inkscape:window-height="723" inkscape:window-width="1280">
	</sodipodi:namedview>
<path fill="param(fill)" fill-opacity="param(fill-opacity)" stroke="param(outline)" stroke-opacity="param(outline-opacity)" stroke-width="param(outline-width)" d="M376.025,245.082l42.292,39.013l-42.292,200.43
	c-17.954,60.956,85.615,87.637,85.615,4.328V53.31C416.084,53.31,376.025,159.486,376.025,245.082z"/>
<path fill="param(fill)" fill-opacity="param(fill-opacity)" stroke="param(outline)" stroke-opacity="param(outline-opacity)" stroke-width="param(outline-width)" d="M249.872,57.939h-4.256v90.653c0,9.792-8.338,18.132-18.132,18.132
	c-9.793,0-17.066-8.34-17.066-18.132V57.939h-40.517v90.653c0,9.792-7.293,18.132-17.068,18.132c-9.792,0-18.13-8.34-18.13-18.132
	V57.939h-4.276c-20.453,0-37.324,16.872-37.324,37.326v107.72c0,20.455,16.871,37.324,37.324,37.324h25.688l-22.477,244.215
	c0,28.774,23.488,52.263,52.245,52.263h8.532c28.777,0,52.264-23.488,52.264-52.263L222.058,240.31h27.814
	c20.474,0,37.345-16.869,37.345-37.324V95.266C287.217,74.812,270.346,57.939,249.872,57.939z"/>
</svg>
