{
	"asset":{
		"generator":"Khronos glTF Blender I/O v5.1.19",
		"version":"2.0"
	},
	"scene":0,
	"scenes":[
		{
			"name":"Scene",
			"nodes":[
				0,
				1,
				2,
				3
			]
		}
	],
	"nodes":[
		{
			"mesh":0,
			"name":"Curve.003_Mesh.001",
			"rotation":[
				0.7071068286895752,
				0,
				0,
				0.7071068286895752
			]
		},
		{
			"mesh":1,
			"name":"Curve.004_Mesh.003",
			"rotation":[
				0.7071068286895752,
				0,
				0,
				0.7071068286895752
			]
		},
		{
			"mesh":2,
			"name":"Curve.005_Mesh.002",
			"rotation":[
				0.7071068286895752,
				0,
				0,
				0.7071068286895752
			]
		},
		{
			"mesh":3,
			"name":"Curve.006_Mesh",
			"rotation":[
				0.7071068286895752,
				0,
				0,
				0.7071068286895752
			]
		}
	],
	"materials":[
		{
			"doubleSided":true,
			"name":"SVGMat.008",
			"pbrMetallicRoughness":{
				"baseColorFactor":[
					0.6839939951896667,
					0.15296100080013275,
					0.005210000090301037,
					1
				],
				"metallicFactor":0,
				"roughnessFactor":0.6900347471237183
			}
		},
		{
			"doubleSided":true,
			"name":"Material.001",
			"pbrMetallicRoughness":{
				"baseColorFactor":[
					0.09357699751853943,
					0.25851500034332275,
					0.023645000532269478,
					1
				],
				"metallicFactor":0.5,
				"roughnessFactor":0.6899999976158142
			}
		},
		{
			"doubleSided":true,
			"name":"SVGMat.009",
			"pbrMetallicRoughness":{
				"baseColorFactor":[
					0.6970940232276917,
					0.6330379843711853,
					0.05478300154209137,
					1
				],
				"metallicFactor":0,
				"roughnessFactor":0.6900347471237183
			}
		}
	],
	"meshes":[
		{
			"name":"Curve.003_Mesh.001",
			"primitives":[
				{
					"attributes":{
						"POSITION":0,
						"NORMAL":1
					},
					"indices":2,
					"material":0
				}
			]
		},
		{
			"name":"Curve.004_Mesh.003",
			"primitives":[
				{
					"attributes":{
						"POSITION":3,
						"NORMAL":4
					},
					"indices":5,
					"material":1
				}
			]
		},
		{
			"name":"Curve.005_Mesh.002",
			"primitives":[
				{
					"attributes":{
						"POSITION":6,
						"NORMAL":7
					},
					"indices":8,
					"material":2
				}
			]
		},
		{
			"name":"Curve.006_Mesh",
			"primitives":[
				{
					"attributes":{
						"POSITION":9,
						"NORMAL":10
					},
					"indices":11,
					"material":1
				}
			]
		}
	],
	"accessors":[
		{
			"bufferView":0,
			"componentType":5126,
			"count":38,
			"max":[
				0.1772720068693161,
				0.20081500709056854,
				0.0035540000535547733
			],
			"min":[
				-0.0883290022611618,
				-0.061980001628398895,
				-0.1964460015296936
			],
			"type":"VEC3"
		},
		{
			"bufferView":1,
			"componentType":5126,
			"count":38,
			"type":"VEC3"
		},
		{
			"bufferView":2,
			"componentType":5123,
			"count":60,
			"type":"SCALAR"
		},
		{
			"bufferView":3,
			"componentType":5126,
			"count":38,
			"max":[
				0.4850560128688812,
				0.4957909882068634,
				0.0035540000535547733
			],
			"min":[
				0.097632996737957,
				0.11619699746370316,
				-0.1964460015296936
			],
			"type":"VEC3"
		},
		{
			"bufferView":4,
			"componentType":5126,
			"count":38,
			"type":"VEC3"
		},
		{
			"bufferView":5,
			"componentType":5123,
			"count":60,
			"type":"SCALAR"
		},
		{
			"bufferView":6,
			"componentType":5126,
			"count":38,
			"max":[
				0.2361370027065277,
				0.2587999999523163,
				0.0035540000535547733
			],
			"min":[
				0.035645999014377594,
				0.05422300100326538,
				-0.1964460015296936
			],
			"type":"VEC3"
		},
		{
			"bufferView":7,
			"componentType":5126,
			"count":38,
			"type":"VEC3"
		},
		{
			"bufferView":8,
			"componentType":5123,
			"count":60,
			"type":"SCALAR"
		},
		{
			"bufferView":9,
			"componentType":5126,
			"count":810,
			"max":[
				0.4947569966316223,
				0.46609699726104736,
				0.0035540000535547733
			],
			"min":[
				-0.49599799513816833,
				-0.4681679904460907,
				-0.15648800134658813
			],
			"type":"VEC3"
		},
		{
			"bufferView":10,
			"componentType":5126,
			"count":810,
			"type":"VEC3"
		},
		{
			"bufferView":11,
			"componentType":5123,
			"count":1716,
			"type":"SCALAR"
		}
	],
	"bufferViews":[
		{
			"buffer":0,
			"byteLength":456,
			"byteOffset":0,
			"target":34962
		},
		{
			"buffer":0,
			"byteLength":456,
			"byteOffset":456,
			"target":34962
		},
		{
			"buffer":0,
			"byteLength":120,
			"byteOffset":912,
			"target":34963
		},
		{
			"buffer":0,
			"byteLength":456,
			"byteOffset":1032,
			"target":34962
		},
		{
			"buffer":0,
			"byteLength":456,
			"byteOffset":1488,
			"target":34962
		},
		{
			"buffer":0,
			"byteLength":120,
			"byteOffset":1944,
			"target":34963
		},
		{
			"buffer":0,
			"byteLength":456,
			"byteOffset":2064,
			"target":34962
		},
		{
			"buffer":0,
			"byteLength":456,
			"byteOffset":2520,
			"target":34962
		},
		{
			"buffer":0,
			"byteLength":120,
			"byteOffset":2976,
			"target":34963
		},
		{
			"buffer":0,
			"byteLength":9720,
			"byteOffset":3096,
			"target":34962
		},
		{
			"buffer":0,
			"byteLength":9720,
			"byteOffset":12816,
			"target":34962
		},
		{
			"buffer":0,
			"byteLength":3432,
			"byteOffset":22536,
			"target":34963
		}
	],
	"buffers":[
		{
			"byteLength":25968,
			"uri":"qgis_logo.bin"
		}
	]
}
