<?xml version="1.0" encoding="utf-8"?>
<!-- Generator: Adobe Illustrator 16.0.0, SVG Export Plug-In . SVG Version: 6.00 Build 0)  -->
<!DOCTYPE svg PUBLIC "-//W3C//DTD SVG 1.1//EN" "http://www.w3.org/Graphics/SVG/1.1/DTD/svg11.dtd">
<svg version="1.1"
	 id="svg3427" xmlns:dc="http://purl.org/dc/elements/1.1/" xmlns:cc="http://creativecommons.org/ns#" xmlns:rdf="http://www.w3.org/1999/02/22-rdf-syntax-ns#" xmlns:svg="http://www.w3.org/2000/svg" xmlns:sodipodi="http://sodipodi.sourceforge.net/DTD/sodipodi-0.dtd" xmlns:inkscape="http://www.inkscape.org/namespaces/inkscape" inkscape:export-filename="/home/matt/Programming/openstreetmap/icons/amenity=atm.png" inkscape:export-ydpi="90" inkscape:export-xdpi="90" inkscape:output_extension="org.inkscape.output.svg.inkscape" sodipodi:docname="amenity=post_box.svg" inkscape:version="0.46" sodipodi:version="0.32"
	 xmlns="http://www.w3.org/2000/svg" xmlns:xlink="http://www.w3.org/1999/xlink" x="0px" y="0px" width="579.997px"
	 height="579.997px" viewBox="0 0 579.997 579.997" enable-background="new 0 0 579.997 579.997" xml:space="preserve">
<defs>
	
	
		<inkscape:perspective  inkscape:vp_z="16 : 8 : 1" inkscape:vp_y="0 : 1000 : 0" inkscape:vp_x="0 : 8 : 1" sodipodi:type="inkscape:persp3d" id="perspective3435" inkscape:persp3d-origin="8 : 5.3333333 : 1">
		</inkscape:perspective>
</defs>
<sodipodi:namedview  showgrid="true" inkscape:cy="8" inkscape:cx="8" inkscape:zoom="31.875" pagecolor="#ffffff" bordercolor="#666666" borderopacity="1.0" id="base" inkscape:document-units="px" inkscape:grid-bbox="true" inkscape:current-layer="layer5" inkscape:window-y="0" inkscape:window-x="0" inkscape:pageopacity="0.0" inkscape:pageshadow="2" inkscape:window-width="1280" inkscape:window-height="723">
	<inkscape:grid  type="xygrid" id="grid3166"></inkscape:grid>
</sodipodi:namedview>
<polygon fill="#FFFB3D" stroke="#1EFF31" stroke-width="4.4444" points="200.006,212.018 272.001,336.734 286.723,328.23 
	214.728,203.514 "/>
<polygon fill="#FFFB3D" stroke="#1EFF31" stroke-width="4.4444" points="224.542,197.846 296.537,322.561 311.294,314.059 
	239.28,189.342 "/>
<polygon fill="#FFFB3D" stroke="#1EFF31" stroke-width="4.4444" points="175.452,226.189 247.447,350.906 262.169,342.402 
	190.174,217.688 "/>
<path fill="#FFFB3D" stroke="#1EFF31" stroke-width="4.4444" d="M517.429,380.916L423.847,218.82h72.749h12.472V206.35v-83.9
	v-12.473h-12.472H86.167H73.695v12.473v83.9v12.471h12.472h2.55l177.367,307.219l9.07,15.695l15.714-9.068l219.936-126.984
	l15.695-9.07L517.429,380.916z M484.124,193.877h-74.678l-33.382-57.822h108.06V193.877z M184.167,136.055l-85.528,49.382v-49.382
	H184.167z M288.44,492.203l-162.13-280.842l130.439-75.307h77.446l142.771,247.305L288.44,492.203z"/>
<polygon fill="#FFFB3D" stroke="#1EFF31" stroke-width="4.4444" points="381.375,411.35 443.237,375.637 406.956,312.783 
	345.095,348.496 "/>
</svg>
