<?xml version="1.0" encoding="UTF-8"?>
<svg width="580" height="580" enable-background="new 0 0 579.997 579.997" viewBox="0 0 580 580" xmlns="http://www.w3.org/2000/svg">
 <path d="m351.52 205.04 21.24 41.117-48.392 24.516 111.48 3.664 60.039-91.582-52.959 27.205-29.807-53.223c-77.172-131.04-167.1-107.72-208.19-49.968l-59.968 98.271c60.127-97.369 150.36-98.307 206.56 0z" fill="param(fill)" fill-opacity="param(fill-opacity)" stroke="param(outline)" stroke-opacity="param(outline-opacity)" stroke-width="param(outline-width)"/>
 <path d="m518.54 344.8-55.083-101.07c54.233 100.78 9.912 179.37-103.3 178.88l-46.232-2.125 2.974-54.197-58.924 94.73 49.295 97.811 2.903-59.543 61.029 0.85c152.04-1.344 176.82-90.871 147.34-155.34z" fill="param(fill)" fill-opacity="param(fill-opacity)" stroke="param(outline)" stroke-opacity="param(outline-opacity)" stroke-width="param(outline-width)"/>
 <path d="m159.62 325.47 24.975-38.939 45.419 29.664-52.569-98.412-109.33-6.195 50.074 32.268-31.224 52.41c-74.889 132.36-9.717 198.6 60.836 205.28l115.09 2.832c-114.4-3.4-160.31-81.103-103.26-178.91z" fill="param(fill)" fill-opacity="param(fill-opacity)" stroke="param(outline)" stroke-opacity="param(outline-opacity)" stroke-width="param(outline-width)"/>
</svg>
