<?xml version="1.0" encoding="UTF-8" standalone="no"?>
<!-- Created with Inkscape (http://www.inkscape.org/) -->
<svg
   xmlns:dc="http://purl.org/dc/elements/1.1/"
   xmlns:cc="http://creativecommons.org/ns#"
   xmlns:rdf="http://www.w3.org/1999/02/22-rdf-syntax-ns#"
   xmlns:svg="http://www.w3.org/2000/svg"
   xmlns="http://www.w3.org/2000/svg"
   xmlns:sodipodi="http://sodipodi.sourceforge.net/DTD/sodipodi-0.dtd"
   xmlns:inkscape="http://www.inkscape.org/namespaces/inkscape"
   width="16px"
   height="16px"
   id="svg3427"
   sodipodi:version="0.32"
   inkscape:version="0.46"
   sodipodi:docname="amenity=post_box.svg"
   inkscape:output_extension="org.inkscape.output.svg.inkscape"
   inkscape:export-filename="/home/matt/Programming/openstreetmap/icons/amenity=atm.png"
   inkscape:export-xdpi="90"
   inkscape:export-ydpi="90">
  <defs
     id="defs3429">
    <inkscape:perspective
       sodipodi:type="inkscape:persp3d"
       inkscape:vp_x="0 : 8 : 1"
       inkscape:vp_y="0 : 1000 : 0"
       inkscape:vp_z="16 : 8 : 1"
       inkscape:persp3d-origin="8 : 5.3333333 : 1"
       id="perspective3435" />
  </defs>
  <sodipodi:namedview
     id="base"
     pagecolor="#ffffff"
     bordercolor="#666666"
     borderopacity="1.0"
     inkscape:pageopacity="0.0"
     inkscape:pageshadow="2"
     inkscape:zoom="31.875"
     inkscape:cx="8"
     inkscape:cy="8"
     inkscape:current-layer="layer5"
     showgrid="true"
     inkscape:grid-bbox="true"
     inkscape:document-units="px"
     inkscape:window-width="1280"
     inkscape:window-height="723"
     inkscape:window-x="0"
     inkscape:window-y="0">
    <inkscape:grid
       type="xygrid"
       id="grid3166" />
  </sodipodi:namedview>
  <metadata
     id="metadata3432">
    <rdf:RDF>
      <cc:Work
         rdf:about="">
        <dc:format>image/svg+xml</dc:format>
        <dc:type
           rdf:resource="http://purl.org/dc/dcmitype/StillImage" />
        <cc:license
           rdf:resource="http://creativecommons.org/licenses/publicdomain/" />
        <dc:title>amenity=post_box</dc:title>
        <dc:creator>
          <cc:Agent>
            <dc:title>Matt Amos</dc:title>
          </cc:Agent>
        </dc:creator>
        <dc:rights>
          <cc:Agent>
            <dc:title>Matt Amos asserts the moral right to be identified as the author of this work.</dc:title>
          </cc:Agent>
        </dc:rights>
      </cc:Work>
      <cc:License
         rdf:about="http://creativecommons.org/licenses/publicdomain/">
        <cc:permits
           rdf:resource="http://creativecommons.org/ns#Reproduction" />
        <cc:permits
           rdf:resource="http://creativecommons.org/ns#Distribution" />
        <cc:permits
           rdf:resource="http://creativecommons.org/ns#DerivativeWorks" />
      </cc:License>
    </rdf:RDF>
  </metadata>
  <g
     id="layer1"
     inkscape:label="Layer 1"
     inkscape:groupmode="layer"
     sodipodi:insensitive="true">
    <rect
       style="fill:#60de4e;fill-opacity:1;stroke:none;stroke-width:1;stroke-linejoin:round;stroke-miterlimit:4;stroke-dasharray:none;stroke-opacity:1"
       id="rect3946"
       width="16"
       height="16"
       x="0"
       y="0"
       rx="4" />
  </g>
  <g
     inkscape:groupmode="layer"
     id="layer5"
     inkscape:label="top">
    <g
       id="g3242"
       transform="matrix(0.8660254,-0.5,0.5,0.8660254,-2.8782612,4.8106158)">
      <rect
         y="3.6078432"
         x="4.7058825"
         height="9.6627455"
         width="6.6509805"
         id="rect3240"
         style="fill:#60de4e;fill-opacity:1;stroke:none;stroke-width:1;stroke-linecap:round;stroke-linejoin:miter;stroke-miterlimit:4;stroke-dasharray:none;stroke-opacity:1" />
      <path
         id="rect3211"
         d="M 4,3.058825 L 4,3.558825 L 4,13.49631 L 4,13.99631 L 4.5,13.99631 L 11.5,13.99631 L 12,13.99631 L 12,13.49631 L 12,3.558825 L 12,3.058825 L 11.5,3.058825 L 4.5,3.058825 L 4,3.058825 z M 5,4.058825 L 11,4.058825 L 11,12.99631 L 5,12.99631 L 5,4.058825 z M 5.96875,5.090075 L 5.96875,9.058825 L 6.4375,9.058825 L 6.4375,5.090075 L 5.96875,5.090075 z M 6.75,5.090075 L 6.75,9.058825 L 7.21875,9.058825 L 7.21875,5.090075 L 6.75,5.090075 z M 7.53125,5.090075 L 7.53125,9.058825 L 8,9.058825 L 8,5.090075 L 7.53125,5.090075 z M 8.3327561,10.347199 L 8.3327561,12.347199 L 10.301506,12.347199 L 10.301506,10.347199 L 8.3327561,10.347199 z"
         style="fill:#ffffff;fill-opacity:1;stroke:none;stroke-width:1;stroke-linecap:round;stroke-linejoin:miter;stroke-miterlimit:4;stroke-dasharray:none;stroke-opacity:1"
         sodipodi:nodetypes="cccccccccccccccccccccccccccccccccccccc" />
    </g>
    <rect
       style="fill:#60de4e;fill-opacity:1;stroke:none;stroke-width:1;stroke-linecap:round;stroke-linejoin:miter;stroke-miterlimit:4;stroke-dasharray:none;stroke-opacity:1"
       id="rect3246"
       width="6.0862746"
       height="2.4470589"
       x="4.8000002"
       y="1.0039216" />
    <path
       style="opacity:1;fill:#ffffff;fill-opacity:1;stroke:none;stroke-width:0.69999999;stroke-linecap:round;stroke-linejoin:miter;stroke-miterlimit:4;stroke-dasharray:none;stroke-opacity:1"
       d="M 2.03125,3.03125 L 2.03125,3.375 L 2.03125,5.6875 L 2.03125,6.03125 L 2.375,6.03125 L 3.40625,6.03125 L 3.15625,5.65625 L 3.71875,5.34375 L 2.71875,5.34375 L 2.71875,3.75 L 13.34375,3.75 L 13.34375,5.34375 L 11.15625,5.34375 L 11.59375,6.03125 L 13.6875,6.03125 L 14.03125,6.03125 L 14.03125,5.6875 L 14.03125,3.375 L 14.03125,3.03125 L 13.6875,3.03125 L 2.375,3.03125 L 2.03125,3.03125 z"
       id="rect3179" />
  </g>
</svg>
