<svg enable-background="new 0 0 579.997 579.997" height="579.997" viewBox="0 0 579.997 579.997" width="579.997" xmlns="http://www.w3.org/2000/svg">
<path d="m518.654 262.01c-3.426-4.765-8.936-7.59-14.804-7.59h-43.349c.024-.399.057-.797.055-1.202-.244-50.812-17.943-98.636-49.838-134.663-32.466-36.674-75.747-56.871-121.875-56.871-46.305.01-89.7 20.344-122.191 57.257-31.918 36.261-49.496 84.325-49.496 135.339 0 .048.007.094.007.141h-43.301c-5.868 0-11.379 2.825-14.804 7.59-3.426 4.766-4.349 10.888-2.479 16.451l72.906 216.932c2.494 7.423 9.451 12.424 17.282 12.424h284.193c7.832 0 14.788-5.002 17.283-12.426l72.889-216.932c1.871-5.564.948-11.686-2.478-16.45zm-365.248-7.731c0-86.194 60.761-156.33 135.441-156.346 74.281 0 135.049 69.738 135.459 155.458.002.348.036.686.057 1.028h-270.964c0-.046.007-.092.007-.14zm90.18 105.971l-5.749-69.365h99.836l-5.973 69.365zm84.862 37.77l-6.314 73.332h-69.339l-6.078-73.332zm-129.186-107.135l5.749 69.365h-80.934v4.583l-24.853-73.948zm-64.032 107.135h72.911l6.078 73.332h-54.344zm282.624 73.332h-57.362l6.313-73.332h75.688zm37.33-111.102h-85.127l5.973-69.365h102.46z" fill="param(fill)" fill-opacity="param(fill-opacity)" stroke="param(outline)" stroke-opacity="param(outline-opacity)" stroke-width="param(outline-width)"/>
</svg>
