<?xml version="1.0" encoding="utf-8"?>
<!-- Generator: Adobe Illustrator 16.0.0, SVG Export Plug-In . SVG Version: 6.00 Build 0)  -->
<!DOCTYPE svg PUBLIC "-//W3C//DTD SVG 1.1//EN" "http://www.w3.org/Graphics/SVG/1.1/DTD/svg11.dtd">
<svg version="1.1"
	 id="svg3427" xmlns:dc="http://purl.org/dc/elements/1.1/" xmlns:cc="http://creativecommons.org/ns#" xmlns:rdf="http://www.w3.org/1999/02/22-rdf-syntax-ns#" xmlns:svg="http://www.w3.org/2000/svg" xmlns:sodipodi="http://sodipodi.sourceforge.net/DTD/sodipodi-0.dtd" xmlns:inkscape="http://www.inkscape.org/namespaces/inkscape" inkscape:export-filename="/home/matt/Programming/openstreetmap/icons/shop=convenience.png" inkscape:export-ydpi="90" inkscape:export-xdpi="90" inkscape:output_extension="org.inkscape.output.svg.inkscape" sodipodi:docname="shop=convenience.svg" inkscape:version="0.46" sodipodi:version="0.32"
	 xmlns="http://www.w3.org/2000/svg" xmlns:xlink="http://www.w3.org/1999/xlink" x="0px" y="0px" width="579.997px"
	 height="579.997px" viewBox="0 0 579.997 579.997" enable-background="new 0 0 579.997 579.997" xml:space="preserve">
<defs>
	
	
		<inkscape:perspective  inkscape:vp_z="16 : 8 : 1" inkscape:vp_y="0 : 1000 : 0" inkscape:vp_x="0 : 8 : 1" sodipodi:type="inkscape:persp3d" id="perspective3435" inkscape:persp3d-origin="8 : 5.3333333 : 1">
		</inkscape:perspective>
</defs>
<sodipodi:namedview  showgrid="true" inkscape:cy="8" inkscape:cx="8" inkscape:zoom="31.875" pagecolor="#ffffff" bordercolor="#666666" borderopacity="1.0" id="base" inkscape:document-units="px" inkscape:grid-bbox="true" inkscape:current-layer="g4353" inkscape:window-y="0" inkscape:window-x="0" inkscape:pageopacity="0.0" inkscape:pageshadow="2" inkscape:window-width="1280" inkscape:window-height="723">
	</sodipodi:namedview>
<path fill="param(fill)" fill-opacity="param(fill-opacity)" stroke="param(outline)" stroke-opacity="param(outline-opacity)" stroke-width="param(outline-width)" d="M518.654,262.01c-3.426-4.765-8.936-7.59-14.804-7.59h-43.349
	c0.024-0.399,0.057-0.797,0.055-1.202c-0.244-50.812-17.943-98.636-49.838-134.663c-32.466-36.674-75.747-56.871-121.875-56.871
	c-46.305,0.01-89.7,20.344-122.191,57.257c-31.918,36.261-49.496,84.325-49.496,135.339c0,0.048,0.007,0.094,0.007,0.141H73.862
	c-5.868,0-11.379,2.825-14.804,7.59c-3.426,4.766-4.349,10.888-2.479,16.451l72.906,216.932c2.494,7.423,9.451,12.424,17.282,12.424
	h284.193c7.832,0,14.788-5.002,17.283-12.426l72.889-216.932C523.003,272.896,522.08,266.774,518.654,262.01z M153.406,254.279
	c0-86.194,60.761-156.33,135.441-156.346c74.281,0,135.049,69.738,135.459,155.458c0.002,0.348,0.036,0.686,0.057,1.028H153.399
	C153.399,254.373,153.406,254.327,153.406,254.279z M243.586,360.25l-5.749-69.365h99.836L331.7,360.25H243.586z M328.448,398.02
	l-6.314,73.332h-69.339l-6.078-73.332H328.448z M199.262,290.885l5.749,69.365h-80.934v4.583l-24.853-73.948H199.262z
	 M135.23,398.02h72.911l6.078,73.332h-54.344L135.23,398.02z M417.854,471.352h-57.362l6.313-73.332h75.688L417.854,471.352z
	 M455.184,360.25h-85.127l5.973-69.365H478.49L455.184,360.25z"/>
</svg>
