/* XPM */
static const char *icon_wmi[]={
"22 22 349 2",
".U c #67381f",
"#3 c #79432d",
"#D c #7a4f36",
"#4 c #824634",
".v c #82503a",
".O c #834f37",
"#2 c #87533d",
"#i c #885f47",
"bm c #8c644f",
"a6 c #8e5c46",
"dl c #8f927d",
".C c #907052",
".7 c #916249",
"#j c #916850",
".N c #92644a",
".H c #93785a",
"cm c #939381",
"#C c #946e54",
"cb c #949582",
".0 c #957559",
"c. c #959381",
"cc c #969986",
"#5 c #996752",
"#1 c #9a6e57",
"#a c #9a7259",
"co c #9a9b85",
"cj c #9a9b8a",
"cg c #9a9f8b",
"ca c #9b9c89",
"ch c #9b9f89",
"cn c #9c9c89",
"bn c #9d7962",
"c# c #9d9d8c",
"c8 c #9d9f8b",
".8 c #9e775a",
"c4 c #9ea08e",
".w c #9f765d",
"#b c #9f7b60",
".u c #a07b62",
".1 c #a17e64",
"aV c #a2785e",
"#p c #a27c61",
"dy c #a3a494",
"a. c #a5866b",
"a7 c #a67e63",
"#9 c #a67f65",
"aP c #a6836a",
"aU c #a78169",
"aY c #a7866b",
"dz c #a7a896",
"ck c #a7a898",
"ar c #a88a70",
"dt c #a8a998",
"cP c #a8aa94",
"#s c #aa846a",
"#o c #aa8569",
".T c #aa8d71",
"dk c #aaac93",
"cf c #aaaf9d",
"aX c #ab836d",
"#8 c #ac866c",
"a# c #ac9275",
"aW c #ad7d68",
"#k c #ad8c70",
"as c #ad9478",
"#t c #ae8a70",
"dp c #aeaf9e",
"aq c #af8d73",
"dc c #afb09a",
".6 c #b08c6f",
"cF c #b0af9a",
"aT c #b1927b",
"cL c #b1b29f",
".P c #b28f72",
"## c #b29175",
"aw c #b29278",
"c5 c #b2b4a1",
"cd c #b2b7a5",
"aQ c #b3957a",
"bF c #b3a087",
"cY c #b3b39e",
"dd c #b3b49e",
"cz c #b4b39f",
"#0 c #b5947a",
"#B c #b59a7c",
"cV c #b5b79f",
"cp c #b6ad7e",
"cM c #b6b7a4",
"cW c #b6b8a0",
"a5 c #b79b82",
"ax c #b79d7f",
"c3 c #b7b8a2",
"dq c #b7b8a6",
"aa c #b8a486",
"dh c #b8b9a3",
".2 c #b99d80",
"at c #b9a688",
"cX c #b9baa3",
"cl c #b9baa9",
"ci c #babba7",
"ds c #babcaa",
"ad c #bba084",
"#h c #bba385",
"cy c #bbbaa6",
"cS c #bbbba6",
"ae c #bca486",
"cU c #bcbda5",
"d# c #bcbeaa",
"ap c #bda185",
"#H c #bda487",
"de c #bdbea8",
"df c #bdbea9",
"aZ c #bea06d",
"bG c #bead92",
"cC c #bebfa7",
"cs c #bebfaa",
"cw c #bec2ad",
"cB c #bfbfa8",
"db c #bfc0a9",
"#r c #c0a286",
"aS c #c0ac92",
"cR c #c0c0ab",
"#G c #c1a98b",
"#W c #c1af90",
"dr c #c1c2b0",
"d. c #c1c3ae",
"#6 c #c29a6b",
"#X c #c2ac8f",
"di c #c2b98b",
"cD c #c2c2ab",
"dv c #c2c3b0",
"bV c #c2c4a8",
"cE c #c3c2ad",
"ct c #c3c4af",
"bW c #c3c5aa",
"dA c #c5bd91",
"c0 c #c5c5ad",
"do c #c5c8b0",
"ce c #c5cab8",
"cH c #c6c7af",
"da c #c6c7b2",
"cA c #c7c7b2",
"bU c #c7c9ae",
"#n c #c8b08f",
"#N c #c9b494",
"c1 c #c9c090",
"bB c #c9cbaf",
"dm c #c9cbb2",
"c6 c #c9cbb5",
"#O c #caac79",
"ak c #cab595",
"bC c #caccaf",
"#Q c #cbb294",
"cK c #cbccb5",
"du c #cbccb9",
"c7 c #cbcdb6",
"al c #ccb798",
"bl c #ccb79d",
"bf c #cccbaf",
"dg c #ccccb6",
"bA c #ccceb4",
"bS c #ccceb6",
"aj c #cdb697",
"#F c #cdba9b",
"by c #cdccb1",
"bT c #cdcfb5",
"cN c #cdcfb9",
"ab c #cec2a3",
"au c #cec4a5",
"cG c #ceceb9",
"bi c #cfd0b4",
"cu c #cfd1ba",
"aO c #d0bea0",
"cT c #d0d0ba",
"bh c #d0d1b6",
"bz c #d0d1b8",
"ai c #d1ba9d",
"#l c #d1bf9b",
"cI c #d1c798",
"bR c #d1d0b6",
"c9 c #d1d2bd",
"dn c #d1d3b9",
"ba c #d2c4a8",
"az c #d2c5a8",
"cv c #d2d5bd",
"b9 c #d3be7a",
"#. c #d3bf9f",
"cO c #d3d5be",
"bX c #d4d5b9",
"aA c #d5c2a5",
"bb c #d5c8ac",
"bE c #d5caaf",
"bj c #d5d5b8",
"cr c #d5d6bf",
"dx c #d5d6c5",
"dw c #d5d7c3",
"aB c #d6c2a4",
"ah c #d6c2a6",
".3 c #d6c4a2",
"am c #d6c5a5",
"bg c #d6d6bb",
"bD c #d6d7b9",
"b2 c #d6d8ba",
"bY c #d6d8bb",
"aC c #d7c4a4",
"#A c #d7caa7",
"#E c #d8caa8",
"cx c #d8d9c5",
"cZ c #d9d9c2",
"bZ c #d9dbbd",
".S c #daceab",
"aF c #dacfad",
".M c #dbc7a3",
"cQ c #dbddc6",
"aE c #dcceae",
"#Z c #dccfb0",
"#7 c #ddb972",
"dj c #ddca83",
".I c #ddcead",
"ag c #ddd2b4",
"b3 c #dddec0",
"aD c #deccac",
"b5 c #dedec0",
"b0 c #dfe0c1",
"#u c #e0cdae",
"b7 c #e2e2c1",
"c2 c #e3cf89",
".V c #e3d1b0",
"ao c #e4c57d",
"aG c #e4d39d",
"#R c #e4d7b4",
".G c #e5dbb9",
"b8 c #e6dca6",
"bc c #e6dec1",
"an c #e7d29d",
"av c #e7d6ba",
"b1 c #e7e9ca",
"#P c #e8c980",
".B c #e8dfbb",
"be c #e9d58d",
"b# c #e9ddc0",
"b6 c #e9e9c9",
"b4 c #e9e9cb",
"bx c #ead68e",
".D c #eadebb",
".Z c #eae1be",
"bk c #eae9ca",
"cJ c #ebd791",
"bQ c #ecd890",
"#c c #ece2bf",
"#w c #eceac4",
"#V c #edeac6",
"#Y c #eedec0",
"#x c #eee2a9",
"#J c #eee6c3",
"bJ c #eef1cf",
".f c #efcc6f",
"cq c #efdb95",
"#I c #eff0cb",
".x c #f0e0c0",
"ac c #f0e5c6",
"aR c #f0eac6",
".j c #f1d072",
"#m c #f1ebc3",
".5 c #f2e7bf",
"#S c #f2eac7",
".p c #f2ecc7",
"#U c #f2edc9",
"#v c #f2eec9",
"bt c #f2f0cf",
".g c #f3d073",
".e c #f3d174",
".4 c #f3edc4",
".J c #f3edc8",
"#g c #f3eec9",
"bu c #f3f0ce",
"ay c #f3f4ce",
"bK c #f3f4d2",
"b. c #f4eccf",
"#K c #f4edc9",
"bH c #f4edcf",
"#T c #f4eeca",
"af c #f4f1cd",
"aN c #f4f8d5",
"bd c #f5e9b4",
"#M c #f5f5ce",
"bI c #f5f7d4",
"#q c #f6f0cd",
"bM c #f6f6d4",
"bP c #f7edb5",
"#d c #f7f7d0",
".z c #f7fcd3",
".W c #f8f3cd",
".9 c #f8f5cf",
"bv c #f8f5d2",
"bs c #f8f5d4",
".R c #f8f7cf",
"bO c #f8f7d3",
"#z c #f8f9d2",
".A c #f8fad2",
".Q c #f8fbd0",
".F c #f9e197",
".o c #f9f3ce",
"a8 c #f9f6d1",
".q c #f9f7d0",
"bL c #f9f8d7",
"#L c #f9f9d2",
".r c #f9fbd2",
".s c #f9fbd3",
"bo c #faefd1",
"#e c #faf3b8",
"a9 c #faf5d7",
"br c #faf8d7",
".K c #faf9d0",
"bp c #faf9d7",
"bq c #faf9d8",
"aI c #fafbd7",
".y c #fafcd3",
".i c #fbdd7e",
".Y c #fbe499",
"aM c #fbf9d8",
".L c #fbfacf",
".k c #fcdc7e",
".n c #fce69a",
"#y c #fce89c",
"aH c #fce99e",
"bw c #fcf0b9",
".X c #fcf3b8",
".E c #fcf4b9",
"a4 c #fcfada",
"bN c #fcfbd8",
"aJ c #fcfcd8",
".h c #fddd7e",
".b c #fdde7f",
".a c #fdde80",
".c c #fddf80",
"#f c #fde89c",
".t c #fdf9d3",
"aK c #fdfad7",
"a3 c #fdfada",
"a1 c #fdfddb",
".# c #fedd7a",
".m c #fedf7e",
".l c #fedf80",
".d c #fee081",
"a0 c #feea9f",
"aL c #fefad8",
"a2 c #fefbda",
"Qt c #ffdd76",
"QtQtQtQtQtQtQtQtQtQtQtQtQtQtQtQtQtQtQtQtQtQt",
"Qt.#.a.b.c.d.d.d.e.f.g.h.d.d.d.i.j.k.l.mQtQt",
"Qt.n.o.p.q.r.s.t.u.v.w.x.y.z.A.B.C.D.q.EQtQt",
"Qt.F.G.H.I.J.K.L.M.N.O.P.Q.R.S.T.U.V.W.XQtQt",
"Qt.Y.Z.0.1.2.3.4.5.6.7.8.9#.###a#b#c#d#eQtQt",
"Qt#f#g#h#i#j#k#l#m#n#o#p#q#r#s#t#u#v#w#xQtQt",
"Qt#y#z#z#A#B#C#D#E#F#G#H#I#J#K#L#M.B#N#OQtQt",
"Qt#P#Q#R#S#T#U#V#w#W#X#Y#Z#0#1#2#3#4#5#6QtQt",
"Qt#7#8#9a.a#aaabacadaeafagahaiajakalamanQtQt",
"QtaoapaqarasatauavawaxayazaAaBaCaDaEaFaGQtQt",
"QtaHaIaJaKaLaMaNaOaPaQaRaSaTaUaVaWaXaYaZQtQt",
"Qta0a1a1a1a2a3a4a5a6a7a8aMa9b.b#babbbcbdQtQt",
"QtbebfbgbhbibjbkblbmbnbobpbqbrbsbtbubvbwQtQt",
"QtbxbybzbAbBbCbDbEbFbGbHbIbJbKbLbMbNbObPQtQt",
"QtbQbRbSbTbUbVbWbXbYbZb0b1b2b3b4b5b6b7b8QtQt",
"Qtb9c.c#cacbcccdcecfcgchcicjckclcmcncocpQtQt",
"QtcqcrcsctcucvcwcxcyczcAcBcCcDcEcFcGcHcIQtQt",
"QtcJcKcLcMcNcOcPcQcRcScTcUcVcWcXcYcZc0c1QtQt",
"Qtc2c3c4c5c6c7c8c9d.d#dadbdcdddedfdgdhdiQtQt",
"QtdjdkdldmdndodpdqdrdsdtdudqdvdwdxdydzdAQtQt",
"QtQtQtQtQtQtQtQtQtQtQtQtQtQtQtQtQtQtQtQtQtQt",
"QtQtQtQtQtQtQtQtQtQtQtQtQtQtQtQtQtQtQtQtQtQt"};
