<?xml version="1.0" encoding="UTF-8" standalone="no"?>
<svg
   xmlns:dc="http://purl.org/dc/elements/1.1/"
   xmlns:cc="http://creativecommons.org/ns#"
   xmlns:rdf="http://www.w3.org/1999/02/22-rdf-syntax-ns#"
   xmlns:svg="http://www.w3.org/2000/svg"
   xmlns="http://www.w3.org/2000/svg"
   xmlns:sodipodi="http://sodipodi.sourceforge.net/DTD/sodipodi-0.dtd"
   xmlns:inkscape="http://www.inkscape.org/namespaces/inkscape"
   viewBox="0 0 6.34992 6.34992"
   height="24"
   width="24"
   version="1.1"
   id="svg18"
   sodipodi:docname="dbmanager.svg"
   inkscape:version="0.92.1 unknown">
  <metadata
     id="metadata24">
    <rdf:RDF>
      <cc:Work
         rdf:about="">
        <dc:format>image/svg+xml</dc:format>
        <dc:type
           rdf:resource="http://purl.org/dc/dcmitype/StillImage" />
      </cc:Work>
    </rdf:RDF>
  </metadata>
  <defs
     id="defs22" />
  <sodipodi:namedview
     pagecolor="#ffffff"
     bordercolor="#666666"
     borderopacity="1"
     objecttolerance="10"
     gridtolerance="10"
     guidetolerance="10"
     inkscape:pageopacity="0"
     inkscape:pageshadow="2"
     inkscape:window-width="1799"
     inkscape:window-height="994"
     id="namedview20"
     showgrid="false"
     inkscape:zoom="9.8333333"
     inkscape:cx="12"
     inkscape:cy="12"
     inkscape:window-x="65"
     inkscape:window-y="24"
     inkscape:window-maximized="1"
     inkscape:current-layer="g16" />
  <g
     transform="matrix(0.99975123,0,0,0.9999734,4.9991201e-4,5.0203187e-4)"
     id="g16">
    <path
       d="m 0.265,1.058 h 5.82 V 5.29 c -2.152,0.91 -3.968,0.795 -5.82,0 z"
       id="path2"
       inkscape:connector-curvature="0"
       style="fill:#6d97c4" />
    <path
       d="M 0.265,1.058 V 5.29 l 0.53,0.266 V 1.058 Z"
       style="color:#000000;line-height:normal;font-family:sans-serif;font-variant-ligatures:normal;font-variant-position:normal;font-variant-caps:normal;font-variant-numeric:normal;font-variant-alternates:normal;font-feature-settings:normal;text-indent:0;text-align:start;text-decoration:none;text-decoration-line:none;text-decoration-style:solid;text-decoration-color:#000000;text-transform:none;text-orientation:mixed;white-space:normal;shape-padding:0;overflow:visible;isolation:auto;mix-blend-mode:normal;solid-color:#000000;fill:#bacee3"
       overflow="visible"
       id="path4"
       inkscape:connector-curvature="0" />
    <path
       d="M 6.086,1.058 V 5.29 L 5.028,5.688 v -4.63 z"
       style="color:#000000;line-height:normal;font-family:sans-serif;font-variant-ligatures:normal;font-variant-position:normal;font-variant-caps:normal;font-variant-numeric:normal;font-variant-alternates:normal;font-feature-settings:normal;text-indent:0;text-align:start;text-decoration:none;text-decoration-line:none;text-decoration-style:solid;text-decoration-color:#000000;text-transform:none;text-orientation:mixed;white-space:normal;shape-padding:0;overflow:visible;isolation:auto;mix-blend-mode:normal;solid-color:#000000;fill:#55769a"
       overflow="visible"
       id="path6"
       inkscape:connector-curvature="0" />
    <path
       d="M 6.0859792,1.0578461 H 6.351 V 5.0266517 H 6.0869792 Z m -6.0864792364,0 H 0.26452082 V 5.0266517 H -5.000364e-4 Z"
       id="path8"
       inkscape:connector-curvature="0"
       style="fill:#415a75;stroke-width:0.9998889" />
    <path
       style="color:#000000;line-height:normal;font-family:sans-serif;font-variant-ligatures:normal;font-variant-position:normal;font-variant-caps:normal;font-variant-numeric:normal;font-variant-alternates:normal;font-feature-settings:normal;text-indent:0;text-align:start;text-decoration:none;text-decoration-line:none;text-decoration-style:solid;text-decoration-color:#000000;text-transform:none;text-orientation:mixed;white-space:normal;shape-padding:0;overflow:visible;isolation:auto;mix-blend-mode:normal;solid-color:#000000;fill:#415a75"
       d="m 0.265,3.704 v 0.45 C 0.5,4.304 0.76,4.43 0.979,4.497 1.545,4.67 2.322,4.762 3.173,4.762 4.023,4.762 4.721,4.67 5.29,4.497 5.55,4.407 5.883,4.293 6.084,4.153 v -0.45 c 0,0.07 -0.05,0.17 -0.185,0.265 C 5.763,4.066 5.553,4.152 5.289,4.233 4.754,4.395 4.002,4.497 3.173,4.497 2.343,4.497 1.589,4.395 1.056,4.233 0.79,4.153 0.556,4.066 0.421,3.968 0.286,3.871 0.263,3.773 0.263,3.704 Z m 0,-1.324 V 2.83 C 0.495,2.99 0.76,3.107 0.979,3.174 1.545,3.347 2.322,3.439 3.173,3.439 4.023,3.439 4.8,3.345 5.369,3.172 5.631,3.082 5.884,2.975 6.084,2.828 v -0.45 c 0,0.07 -0.05,0.17 -0.185,0.264 C 5.764,2.74 5.557,2.826 5.291,2.907 4.758,3.067 4.003,3.17 3.174,3.17 2.344,3.17 1.59,3.068 1.057,2.906 0.792,2.83 0.585,2.74 0.45,2.643 0.315,2.548 0.265,2.45 0.265,2.38 Z"
       overflow="visible"
       id="path10"
       inkscape:connector-curvature="0" />
    <ellipse
       cx="3.175"
       cy="1.058"
       rx="3.043"
       ry="0.926"
       id="ellipse12"
       style="fill:#bacee3;stroke:#415a75;stroke-width:0.26499999;stroke-linecap:round;stroke-linejoin:round" />
    <path
       style="color:#000000;line-height:normal;font-family:sans-serif;font-variant-ligatures:normal;font-variant-position:normal;font-variant-caps:normal;font-variant-numeric:normal;font-variant-alternates:normal;font-feature-settings:normal;text-indent:0;text-align:start;text-decoration:none;text-decoration-line:none;text-decoration-style:solid;text-decoration-color:#000000;text-transform:none;text-orientation:mixed;white-space:normal;shape-padding:0;overflow:visible;isolation:auto;mix-blend-mode:normal;solid-color:#000000;fill:#415a75"
       d="m 0,5.026 c 0,0.187 0.092,0.353 0.265,0.477 0.172,0.124 0.43,0.23 0.714,0.317 0.566,0.173 1.343,0.265 2.194,0.265 0.85,0 1.6,-0.092 2.17,-0.265 0.284,-0.086 0.54,-0.193 0.714,-0.317 0.17,-0.124 0.29,-0.29 0.29,-0.476 H 6.083 c 0,0 -0.04,0.164 -0.186,0.264 C 5.762,5.391 5.555,5.477 5.289,5.558 4.756,5.72 4.001,5.822 3.172,5.822 2.342,5.822 1.588,5.722 1.055,5.559 0.791,5.479 0.585,5.392 0.449,5.292 0.313,5.196 0.265,5.098 0.265,5.029 Z"
       overflow="visible"
       id="path14"
       inkscape:connector-curvature="0" />
  </g>
</svg>
