<svg xmlns="http://www.w3.org/2000/svg" viewBox="0 0 6.34992 6.34992" height="24" width="24"><g><path d="M.265 1.058h5.82V5.29c-2.152.91-3.968.795-5.82 0z" fill="#6d97c4"/><path d="M.265 1.058V5.29l.53.266V1.058z" style="line-height:normal;font-variant-ligatures:normal;font-variant-position:normal;font-variant-caps:normal;font-variant-numeric:normal;font-variant-alternates:normal;font-feature-settings:normal;text-indent:0;text-align:start;text-decoration-line:none;text-decoration-style:solid;text-decoration-color:#000000;text-transform:none;text-orientation:mixed;shape-padding:0;isolation:auto;mix-blend-mode:normal" color="#000" font-family="sans-serif" white-space="normal" overflow="visible" solid-color="#000000" fill="#bacee3"/><path d="M6.085 1.058V5.29l-1.058.398v-4.63z" style="line-height:normal;font-variant-ligatures:normal;font-variant-position:normal;font-variant-caps:normal;font-variant-numeric:normal;font-variant-alternates:normal;font-feature-settings:normal;text-indent:0;text-align:start;text-decoration-line:none;text-decoration-style:solid;text-decoration-color:#000000;text-transform:none;text-orientation:mixed;shape-padding:0;isolation:auto;mix-blend-mode:normal" color="#000" font-family="sans-serif" white-space="normal" overflow="visible" solid-color="#000000" fill="#55769a"/><path d="M6.085 1.058h.265v3.97h-.265zM0 1.058h.265v3.97H0z" fill="#415a75"/><path style="line-height:normal;font-variant-ligatures:normal;font-variant-position:normal;font-variant-caps:normal;font-variant-numeric:normal;font-variant-alternates:normal;font-feature-settings:normal;text-indent:0;text-align:start;text-decoration-line:none;text-decoration-style:solid;text-decoration-color:#000000;text-transform:none;text-orientation:mixed;shape-padding:0;isolation:auto;mix-blend-mode:normal" d="M.265 3.704v.45c.235.15.495.276.714.343.567.173 1.344.265 2.195.265.85 0 1.548-.092 2.117-.265.258-.09.592-.204.793-.344v-.45c0 .07-.05.17-.185.265-.135.098-.345.184-.61.265-.534.162-1.286.264-2.115.264-.83 0-1.584-.102-2.117-.264-.266-.08-.5-.167-.635-.265-.135-.097-.158-.195-.158-.264zM.265 2.38v.45c.23.16.495.277.714.344.567.173 1.344.265 2.195.265.85 0 1.627-.093 2.196-.266.262-.09.515-.197.715-.344v-.45c0 .07-.05.17-.185.265-.135.098-.342.184-.608.265-.533.162-1.288.264-2.117.264-.83 0-1.584-.102-2.117-.264-.266-.08-.473-.167-.608-.265C.315 2.548.265 2.45.265 2.38z" color="#000" font-family="sans-serif" white-space="normal" overflow="visible" solid-color="#000000" fill="#415a75"/><ellipse cx="3.175" cy="1.058" rx="3.043" ry=".926" fill="#bacee3" stroke="#415a75" stroke-width=".265" stroke-linecap="round" stroke-linejoin="round"/><path style="line-height:normal;font-variant-ligatures:normal;font-variant-position:normal;font-variant-caps:normal;font-variant-numeric:normal;font-variant-alternates:normal;font-feature-settings:normal;text-indent:0;text-align:start;text-decoration-line:none;text-decoration-style:solid;text-decoration-color:#000000;text-transform:none;text-orientation:mixed;shape-padding:0;isolation:auto;mix-blend-mode:normal" d="M0 5.026c0 .187.092.353.265.477.172.124.43.23.714.317.567.173 1.344.265 2.195.265.85 0 1.6-.092 2.17-.265.284-.086.54-.193.714-.317.17-.124.29-.29.29-.476h-.264s-.04.164-.186.264c-.135.1-.342.185-.608.266-.533.162-1.288.264-2.117.264-.83 0-1.584-.102-2.117-.264C.792 5.476.585 5.39.45 5.29c-.136-.096-.184-.194-.184-.263z" color="#000" font-family="sans-serif" white-space="normal" overflow="visible" solid-color="#000000" fill="#415a75"/></g></svg>