<svg height="64" viewBox="0 0 16.933333 16.933334" width="64" xmlns="http://www.w3.org/2000/svg" xmlns:xlink="http://www.w3.org/1999/xlink">
<linearGradient id="a">
<stop offset="0" stop-color="#78a3e2"/>
<stop offset="1" stop-color="#d1e0ff"/>
</linearGradient>
<linearGradient id="b" gradientTransform="matrix(1.0030751 0 0 1.0229281 -.05003824 -5.6321307)" gradientUnits="userSpaceOnUse" x1="9.8159962" x2="12.982647" xlink:href="#a" y1="283.43033" y2="287.82614"/>
<linearGradient id="c" gradientTransform="matrix(1.0031007 0 0 1.0229573 -.00205057 -7.2957563)" gradientUnits="userSpaceOnUse" x1="3.5413208" x2="8.2772484" xlink:href="#a" y1="289.65009" y2="294.25168"/>
<g transform="translate(0 -280.06665)">
<path d="m2.2489579 282.05103h8.2020831v8.20208h-8.2020831z" fill="#eeeeec" stroke="#888a85" stroke-linecap="round" stroke-linejoin="round" stroke-width=".26458335"/>
<path d="m6.3499997 290.3854v-4.23333l4.2333333-.00028" fill="none" stroke="#000" stroke-opacity=".23618092" stroke-width=".5291667"/>
<path d="m6.7468747 286.54895h8.2020833v8.20208h-8.2020833z" fill="#eeeeec" stroke="#888a85" stroke-linecap="round" stroke-linejoin="round" stroke-width=".26458335"/>
<path d="m4.0168066 286.54883l3.355469 3.44537h-2.2369794v1.9135h3.7283498v2.31426h-5.9652784l-.0000531-4.22757h-2.23697932z" style="fill-rule:evenodd;stroke:#214f93;stroke-width:.264375;stroke-linecap:round;stroke-linejoin:round;fill:url(#c)"/>
<path d="m12.916508 290.5177l-3.3553842-3.43949h2.2369222v-1.91923h-3.7282546v-2.3142h5.9651276l.000053 4.23324h2.236922z" style="fill-rule:evenodd;stroke:#214f93;stroke-width:.26458335;stroke-linecap:round;stroke-linejoin:round;fill:url(#b)"/>
<path d="m6.7468745 288.7979l.0000005 2.11667" fill="none" stroke="#888a85" stroke-width=".26458335"/>
<path d="m6.8791666 289.06247h1.3229167v1.5875001h-1.3229167z" fill="#eeeeec"/>
</g>
</svg>
