<svg width="32" height="32" xmlns="http://www.w3.org/2000/svg"><path d="m16 2.65-.654.0957c-.509 2.18.453 4.64 1.04 6.41l-.18 5.96-.425 4.23-.852-1.37c-.399-2.71-.704-5.4-1.07-7.77.0201 2.25.062 4.8.303 6.72-1.82-2.83-3.27-5.18-5.05-7.65h-.0527c1.3 3.79 3.26 6.73 5.27 9.9.175 1.89.797 3.64 1.07 5.51-1.61-4.64-3.9-9.13-7.01-12.1 3.4 5.13 5.73 9.76 6.99 15l.639.648.219-.234c-.16-1.74-.113-3.95.279-5.23.685 1.2 1.35 2.04 1.62 3.33l1.01-.986.508-3.82 1.07-5.17.688-3.51 1.39-2.77c.501-.999.148-1.88-.338-2.65.444 1.47-.0756 2.18-.768 3.42.177-1.35.479-2.66.322-4.02l-.707 4.71c-.331.589-.668 1.17-1 1.76.0521-.33-.0296-.849-.0391-1.06-1.02 2.49-2.85 4.84-3.95 6.78l.277-3.92.205-5.04h.002c.905-2.66.0133-4.6-.801-7.17zm4.64 11.4c-1.05 3.63-1.27 6.35-2.32 9.7-.361-.842-.899-1.26-1.33-2.06 1.21-2.61 2.46-5.36 3.66-7.63zm1.07 2.56c-.601 2.81-1.67 5.66-2.05 7.96l.893-.906c.175-2.58 1.1-4.62 1.16-7.05zm-13 .977.0371.0391-.00781-.0195zm.0371.0391c.988 1.95 1.96 4.14 2.54 5.84l2.14 2.14c-1.26-2.84-3.01-5.71-4.68-7.98z" fill="#009000"/><path d="m4.68 18-.455.455 3.42 3.42-.451.451 3.42 3.42-.455.455 5.84 5.84 5.84-5.84-.455-.455 3.42-3.42-.451-.451 3.42-3.42-.455-.455-11.3 11.3z" color="#000000"/><rect transform="rotate(45)" x="11.5" y="-11.1" width="19.7" height="19.7" fill="none" stroke="#000" stroke-width=".3"/><path d="m5 31h9" fill="none" stroke="#000" stroke-width=".3"/><path d="m18 31h9" fill="none" stroke="#000" stroke-width=".3"/><g transform="matrix(-.987 0 0 .987 99.1 -3.19)" stroke-width="1.01"><path d="m91.9 19.4c0 4.61-3.74 8.35-8.35 8.35-4.61 0-8.35-3.74-8.35-8.35s3.74-8.35 8.35-8.35c4.61 0 8.35 3.74 8.35 8.35z" fill="#e6e6e6" opacity=".8" stroke="#505050" stroke-dashoffset="7" stroke-linecap="round" stroke-linejoin="round"/><path d="m76.2 24.6c0 2.09 2.09 2.09 2.09 2.09l-7.3 7.3-2.09-2.09z" fill="#ffcc30" fill-rule="evenodd" stroke="#505050" stroke-linejoin="round"/><path d="m74.6 26.2 2.09-2.09 2.09 2.09-2.09 2.09z" fill-rule="evenodd" stroke="#505050" stroke-linejoin="round"/><path d="m78.8 14.7c2.09-3.13 4.64-3.55 6.26-2.09 1.63 1.46-2.09 1.04-4.17 3.13-2.09 2.09 0 6.26-2.09 6.26-2.09 0-2.09-4.17 0-7.3z" fill="#fcffff" fill-rule="evenodd" opacity=".7"/><path d="m70.5 31.4 4.17-4.17" opacity=".5" stroke="#fcffff" stroke-linecap="round" stroke-linejoin="round"/></g></svg>
