<svg height="32" width="32" xmlns="http://www.w3.org/2000/svg"><path d="m16 3.03-.614.0898c-.478 2.05.425 4.35.976 6.01l-.169 5.59-.399 3.97-.799-1.29c-.374-2.54-.66-5.07-1-7.29.0189 2.11.0582 4.5.284 6.3-1.71-2.65-3.07-4.86-4.74-7.18h-.0494c1.22 3.56 3.06 6.31 4.94 9.29.164 1.77.748 3.41 1 5.17-1.51-4.35-3.66-8.57-6.58-11.4 3.19 4.81 5.38 9.16 6.56 14.1l.599.608.205-.22c-.15-1.63-.106-3.71.262-4.91.643 1.13 1.27 1.91 1.52 3.12l.948-.925.477-3.58 1-4.85.645-3.29 1.3-2.6c.47-.937.139-1.76-.317-2.49.417 1.38-.0709 2.05-.721 3.21.166-1.27.449-2.5.302-3.77l-.663 4.42c-.311.553-.627 1.1-.938 1.65.0489-.31-.0278-.796-.0367-.994-.957 2.34-2.67 4.54-3.71 6.36l.26-3.68.192-4.73h.0019c.849-2.5.0124-4.32-.751-6.73zm4.35 10.7c-.985 3.41-1.19 5.96-2.18 9.1-.339-.79-.843-1.18-1.25-1.93 1.14-2.45 2.31-5.03 3.43-7.16zm1 2.4c-.564 2.64-1.57 5.31-1.92 7.47l.838-.85c.164-2.42 1.03-4.33 1.09-6.61zm-12.2.917.0348.0367-.00733-.0183zm.0348.0367c.927 1.83 1.84 3.88 2.38 5.48l2.01 2.01c-1.18-2.66-2.82-5.36-4.39-7.49z" fill="#009000"/><path d="m4.68 17.2-.455.455 3.42 3.42-.451.451 3.42 3.42-.455.455 5.84 5.84 5.84-5.84-.455-.455 3.42-3.42-.451-.451 3.42-3.42-.455-.455-11.3 11.3z"/><g fill="none" stroke="#000" stroke-width=".5"><path d="m11.9-10.7h18.5v18.5h-18.5z" transform="matrix(.70710678 .70710678 -.70710678 .70710678 0 0)"/><path d="m5 29.7h8"/><path d="m19 29.7h8"/></g><g stroke-width="1.17" transform="matrix(-.916 0 0 .916 92.6 -1.89)"><g stroke="#505050"><path d="m91.9 19.4c0 4.61-3.74 8.35-8.35 8.35s-8.35-3.74-8.35-8.35 3.74-8.35 8.35-8.35 8.35 3.74 8.35 8.35z" fill="#e6e6e6" opacity=".8" stroke-dashoffset="7" stroke-linecap="round" stroke-linejoin="round"/><path d="m76.2 24.6c0 2.09 2.09 2.09 2.09 2.09l-7.3 7.3-2.09-2.09z" fill="#ffcc30" fill-rule="evenodd" stroke-linejoin="round"/><path d="m74.6 26.2 2.09-2.09 2.09 2.09-2.09 2.09z" fill-rule="evenodd" stroke-linejoin="round"/></g><path d="m78.8 14.7c2.09-3.13 4.64-3.55 6.26-2.09 1.63 1.46-2.09 1.04-4.17 3.13-2.09 2.09 0 6.26-2.09 6.26s-2.09-4.17 0-7.3z" fill="#fcffff" fill-rule="evenodd" opacity=".7"/><path d="m70.5 31.4 4.17-4.17" opacity=".5" stroke="#fcffff" stroke-linecap="round" stroke-linejoin="round"/></g></svg>