<svg height="24" width="24" xmlns="http://www.w3.org/2000/svg"><g fill="none" stroke="#d0d0d0" stroke-opacity=".996" transform="matrix(.99986 0 0 1 1.993 1.99)"><rect height="20" rx=".728" stroke-linejoin="round" width="20" x="1.51" y="1.51"/><path d="m1.47 5.85h20.5m-20.44 6.35 20.3.027m-20.22 5.573 20.3-.027m-16.41-16.273v20m6-20v20m6-20v20"/></g><g fill="none" stroke="#000" transform="matrix(.99986 0 0 1 1.993 1.99)"><rect height="20" rx=".728" stroke-linejoin="round" width="20" x=".507" y=".507"/><path d="m.473 4.85h20.5m-20.446 6.35 20.3.027m-20.218 5.573 20.3-.027m-16.409-16.273v20m6-20v20m6-20v20"/></g><g stroke-width="1.067" transform="matrix(.76923 0 0 .76923 -.615 -.615)"><rect fill="#5a8c5a" height="13" rx="2.789" width="13" x="19" y="19"/><g fill-rule="evenodd"><path d="m21.6 25.5h7.8m-3.9 3.9v-7.8" fill="#fff" stroke="#fff" stroke-linecap="round" stroke-linejoin="round" stroke-width="2.773"/><path d="m20.3 25.5h10.4v-2.6c0-2.6-.65-2.6-5.2-2.6s-5.2 0-5.2 2.6z" fill="#fcffff" opacity=".3"/></g></g></svg>