<?xml version="1.0" encoding="UTF-8"?>
<svg width="24" height="24" viewBox="0 0 24 24" xmlns="http://www.w3.org/2000/svg">
 <path transform="matrix(.78565 0 0 .70667 2.7836 3.5099)" d="m11.068 18.608c-0.02638-2.5852 0.2638-3.2975 1.9521-4.7484 2.5852-2.2951 3.1656-3.192 3.1656-5.0386 0-2.7435-2.0313-4.5901-5.0386-4.5901-2.9809 0-5.1441 1.6356-5.1441 3.9042 0 1.1607 0.73864 2.0313 1.7147 2.0313 0.84416 0 1.5037-0.63312 1.5037-1.4509 0-0.5276-0.2638-0.97606-0.76502-1.3981-0.3957-0.31656-0.42208-0.36932-0.42208-0.58036 0-0.68588 1.1607-1.319 2.427-1.319 1.873 0 2.9546 1.2135 2.9546 3.2447 0 1.0816-0.31656 2.084-0.84416 2.849-1.9521 2.6644-1.9521 2.6644-2.2951 3.5877-0.2638 0.73864-0.36932 1.4245-0.36932 2.6644v0.84416zm-0.63312 2.1368c-0.9233 0-1.6619 0.73864-1.6619 1.6356 0 0.9233 0.73864 1.6619 1.6356 1.6619 0.9233 0 1.6619-0.73864 1.6619-1.6619 0-0.89692-0.73864-1.6356-1.6356-1.6356" fill="#fff"/>
 <path d="m2.2645 1.4841h19.41v20.348h-19.41z" fill="#6d97c4" stroke="#1f1b1e" stroke-width=".867"/>
 <path d="m2.4263 1.4679h4.4817v20.348h-4.4817z" fill="#2d3e4d" stroke="#1f1b1e" stroke-width=".867"/>
 <path transform="scale(1.0231 .97739)" d="m13.944 17.702c-0.26182-1e-6 -0.48587-0.09314-0.67215-0.27944-0.18126-0.19132-0.27188-0.41789-0.27188-0.6797-4e-6 -0.26685 0.09062-0.49341 0.27188-0.6797 0.18629-0.18629 0.41034-0.27943 0.67215-0.27943 0.26181 1e-6 0.48586 0.09315 0.67215 0.27943 0.19132 0.18629 0.28698 0.41286 0.28699 0.6797-5e-6 0.25678-0.09315 0.48083-0.27943 0.67215-0.18629 0.19132-0.41286 0.28699-0.6797 0.28699m0.33985-3.8819v0.59663h-0.61929v-1.0649c-4e-6 -0.39271 0.05034-0.72501 0.15104-0.9969 0.10069-0.27188 0.3046-0.60418 0.61174-0.9969 0.03524-0.05034 0.08811-0.11831 0.1586-0.20391 0.71494-0.9113 1.0724-1.7395 1.0724-2.4847-6e-6 -0.65452-0.14853-1.1429-0.44558-1.4651-0.29203-0.32222-0.73509-0.48333-1.3292-0.48335-0.36251 1.08e-5 -0.68474 0.085603-0.96669 0.25678-0.28196 0.1712-0.42293 0.35748-0.42293 0.55887-3e-6 0.060428 0.1158 0.19637 0.3474 0.40782 0.2316 0.21147 0.3474 0.46322 0.3474 0.75523-3e-6 0.26686-0.08308 0.48335-0.24922 0.6495-0.16112 0.16112-0.37762 0.24168-0.6495 0.24167-0.29706 7.9e-6 -0.53621-0.10824-0.71747-0.32475-0.18126-0.21649-0.27188-0.50348-0.27188-0.86096-2e-6 -0.66459 0.28447-1.226 0.85341-1.6842 0.56894-0.45816 1.2839-0.68725 2.1448-0.68726 0.86599 1.15e-5 1.5709 0.2442 2.1146 0.73257 0.54879 0.48839 0.82319 1.1177 0.8232 1.8881-8e-6 0.94656-0.59664 1.9485-1.7899 3.0058-0.15105 0.13091-0.26434 0.23161-0.33985 0.30209-0.32727 0.29706-0.54629 0.57901-0.65705 0.84585-0.11077 0.26182-0.16615 0.59915-0.16615 1.012" fill="#fff"/>
 <g transform="matrix(.56626 .32693 -.32693 .56626 15.571 5.8562)" enable-background="new" stroke-dashoffset=".5" stroke-linejoin="round">
  <path d="m8.0961 18.028h6l-3.1249 6.991-2.8751-6.991z" fill="#505050" overflow="visible" stroke="#505050" stroke-linecap="round" stroke-width=".75"/>
  <path d="m8.0961 1.0284 6-1e-6 1e-6 17h-6l-1.9e-6 -17" fill="#de6b37" overflow="visible" stroke="#c04317" stroke-linecap="round" stroke-width=".75"/>
  <path d="m10.577 2.1008 1e-6 15.795" fill="none" opacity=".5" overflow="visible" stroke="#f8b008" stroke-width="2.106"/>
  <path d="m12.686 2.0551-0.080979 16.149" fill-opacity=".58824" opacity=".25" overflow="visible" stroke="#632923" stroke-width="2.1593"/>
  <path d="m12.096 2.0284 1e-6 16" fill="#fc894f" opacity=".5" stroke="#a7481e" stroke-linecap="round" stroke-width=".75"/>
  <path d="m11.463 23.229 1.997-4.9438-1.997-1e-6v4.9438z" fill="#969696" overflow="visible" stroke="#969696" stroke-linecap="square" stroke-width=".5"/>
  <path d="m9.5961 2.0284 1.5e-6 16" fill="#db562d" opacity=".5" stroke="#9b3819" stroke-linecap="round" stroke-width=".75"/>
  <path d="m7.8653-0.087277h6.4615v2.1791h-6.4615z" fill="#e6e6e6" overflow="visible" stroke="#969696" stroke-linecap="round" stroke-width=".5"/>
  <path d="m10.729 23.387-1.997-5.1021h1.997v5.1021z" fill="#e6e6e6" overflow="visible" stroke="#e6e6e6" stroke-linecap="square" stroke-width=".5"/>
 </g>
</svg>
