<svg height="24" viewBox="0 0 24 24" width="24" xmlns="http://www.w3.org/2000/svg"><g transform="translate(0 -1028.3622)"><path d="m9.499986 1031.8622-6 7.5 6 7.5v-5h5c2.693494 2.6067.970927 5-2 5v2c3.407831 0 8-1.3157 8-7.5 0-2.1042-1.725463-4.5-6-4.5h-5z" fill="#e37e39" fill-rule="evenodd"/><path d="m3.64389 1039.4245 5.3554685 7.2774v-2.25l-4.9999998-6.25zm6.3554747 1.2774v1h4.0000003c1.349775 1.3063 1.588697 2.5576 1.11914 3.4824 1.462016-.8405 1.822867-2.603-.11914-4.4824zm8.5410153 5.3593c-1.610492 1.2625-3.738184 1.6407-5.541015 1.6407v-1.1016c-.312828.064-.646484.1016-1 .1016v2c2.210076 0 4.910324-.5648 6.541015-2.6407z" fill="#f2c990" fill-rule="evenodd"/><path d="m9.499986 1031.8622-6 7.5 6 7.5v-5h5c2.693494 2.6067.970927 5-2 5v2c3.407831 0 8-1.3157 8-7.5 0-2.1042-1.725463-4.5-6-4.5h-5z" fill="none" stroke="#d06935" stroke-linejoin="round"/></g></svg>