<?xml version="1.0" encoding="UTF-8"?>
<svg width="24" height="24" viewBox="0 0 24 24" xmlns="http://www.w3.org/2000/svg">
 <linearGradient x1="-10" x2="-10" y1="15" y2="21" gradientUnits="userSpaceOnUse">
  <stop stop-color="#555753" offset="0"/>
  <stop stop-color="#555753" stop-opacity="0" offset="1"/>
 </linearGradient>
 <g transform="translate(0 -8)">
  <g transform="translate(33 8)">
   <rect x="-20" y="13" width="11" height="11" rx="2.0115" fill="#c4a000"/>
   <path d="m-15 14v2.0625c-0.53766 0.11104-1.0247 0.38329-1.375 0.78125l-1.7812-1.0312-0.5 0.875 1.7812 1.0312c-0.082063 0.24743-0.125 0.5064-0.125 0.78125s0.04294 0.53382 0.125 0.78125l-1.7812 1.0312 0.5 0.875 1.7812-1.0312c0.3525 0.40042 0.83268 0.67018 1.375 0.78125v2.0625h1v-2.0625c0.53766-0.11104 1.0247-0.38329 1.375-0.78125l1.7812 1.0312 0.5-0.875-1.7812-1.0312c0.082063-0.24743 0.125-0.5064 0.125-0.78125s-0.04294-0.53382-0.125-0.78125l1.7812-1.0312-0.5-0.875-1.7812 1.0312c-0.3525-0.40042-0.83268-0.67018-1.375-0.78125v-2.0625zm0.5 3.5c0.552 0 1 0.448 1 1s-0.448 1-1 1-1-0.448-1-1 0.448-1 1-1z" fill="#fcffff"/>
   <path d="m-19 19 9-0.0096v-2c0-2.9904-1-2.9904-4.5-2.9904s-4.5 0-4.5 3v2z" fill="#fcffff" fill-rule="evenodd" opacity=".3"/>
  </g>
  <path transform="translate(0 8)" d="m8.0273 1.502c-2.8183 0.046637-5.287 1.2539-6.2832 4.1934-0.98847 2.9168 1.1706 8.1833 5.9316 5.8418 7.9077-3.889 7.9039 0.96289 9.8809 0.96289 2.4386 0 4.9414-1.699 4.9414-3.873 0-1.9445 0.0964-3.8062-0.99219-4.877-1.9769-1.9445-2.9737 0.98601-8.2891-1.1855-1.694-0.69207-3.4984-1.0905-5.1895-1.0625zm1.3438 1.9043c2.6718 0.20971 3.4212 1.4912 3.2539 2.8438-0.15298 0.80124-0.11218 1.7572-2.3125 2.125-2.2667 0.31163-2.8421 1.8976-5.375 0.4375-1.2344-0.80689-1.2032-1.9589-0.75-2.875 1.0021-1.6981 2.6725-2.6084 5.1836-2.5312z" fill="#8cbe8c" fill-rule="evenodd" stroke="#555753" stroke-linecap="round" stroke-linejoin="round"/>
 </g>
</svg>
