<svg height="24" viewBox="0 0 24 24" width="24" xmlns="http://www.w3.org/2000/svg">
<linearGradient gradientUnits="userSpaceOnUse" x1="-10" x2="-10" y1="15" y2="21">
<stop offset="0" stop-color="#555753"/>
<stop offset="1" stop-color="#555753" stop-opacity="0"/>
</linearGradient>
<g transform="translate(0 -8)">
<path d="m2.5 10.5l6.5 12.5 6-10h6" fill="none" stroke="#8cbe8c" stroke-linecap="round" stroke-linejoin="round" stroke-width="2"/>
<g transform="translate(33 8)">
<rect fill="#c4a000" height="11" rx="2.0114901" width="11" x="-20" y="13"/>
<path d="m-15 14v2.0625c-.537663.111041-1.024662.383291-1.375.78125l-1.78125-1.03125-.5.875 1.78125 1.03125c-.082063.247432-.125.506395-.125.78125 0 .274855.04294.533818.125.78125l-1.78125 1.03125.5.875 1.78125-1.03125c.352503.40042.832682.670182 1.375.78125v2.0625h1v-2.0625c.537663-.111041 1.024662-.383291 1.375-.78125l1.78125 1.03125.5-.875-1.78125-1.03125c.082063-.247432.125-.506395.125-.78125 0-.274855-.04294-.533818-.125-.78125l1.78125-1.03125-.5-.875-1.78125 1.03125c-.352503-.40042-.832682-.670182-1.375-.78125v-2.0625zm.5 3.5c.552 0 1 .448 1 1 0 .552-.448 1-1 1-.552 0-1-.448-1-1 0-.552.448-1 1-1z" fill="#fcffff"/>
<path d="m-19 19l9-.0096c0 0 0 0 0-2 0-2.9904-1-2.9904-4.5-2.9904-3.5 0-4.5 0-4.5 3 0 2 0 2 0 2z" fill="#fcffff" fill-rule="evenodd" opacity=".3"/>
</g>
<path d="m1.5 9.5h3v3h-3z" fill="#bebebe" stroke="#8c8c8c" stroke-width=".99999994"/>
<path d="m7.5 21.5h3v3h-3z" fill="#bebebe" stroke="#8c8c8c" stroke-width=".99999994"/>
<path d="m13.5 11.5h3v3h-3z" fill="#bebebe" stroke="#8c8c8c" stroke-width=".99999994"/>
<path d="m19.5 11.5h3v3h-3z" fill="#bebebe" stroke="#8c8c8c" stroke-width=".99999994"/>
</g>
</svg>
