<?xml version="1.0" encoding="UTF-8"?>
<svg width="24" height="24" xmlns="http://www.w3.org/2000/svg">
 <linearGradient x1="23" x2="23" y1="1043.4" y2="1049.4" gradientUnits="userSpaceOnUse">
  <stop stop-color="#555753" offset="0"/>
  <stop stop-color="#555753" stop-opacity="0" offset="1"/>
 </linearGradient>
 <linearGradient id="a" x1="12" x2="12" y1="18" y2="24" gradientTransform="matrix(.68421 0 0 .76923 .79155 1025.5)" gradientUnits="userSpaceOnUse">
  <stop stop-color="#4dadee" offset="0"/>
  <stop stop-color="#c7e5f9" offset="1"/>
 </linearGradient>
 <linearGradient id="b" x1="9" x2="9" y1="21" y2="24" gradientTransform="matrix(.66667 0 0 .77776 1 1025.1)" gradientUnits="userSpaceOnUse">
  <stop stop-color="#d8cd7e" offset="0"/>
  <stop stop-color="#ab983d" offset="1"/>
 </linearGradient>
 <g transform="translate(0 -1028.4)">
  <path d="m1.5 1049.9v-21h10l5 5v16z" fill="#fff" fill-rule="evenodd" stroke="#979797" stroke-linejoin="round"/>
  <path d="m2.5021 1035.9h13v10h-13z" fill="url(#a)" stroke="#597284"/>
  <path d="m3 1040.7 3.3333-2.3334 8.6667 3.8888v3.1112h-12z" fill="url(#b)" fill-rule="evenodd"/>
  <rect x="13" y="1041.4" width="11" height="11" rx="2.0115" fill="#3c5a6e"/>
  <path d="m14 1047.4 9-0.01v-2c0-2.9904-1-2.9904-4.5-2.9904s-4.5 0-4.5 3c0 2 0 2 1e-6 2z" fill="#fcffff" fill-rule="evenodd" opacity=".3"/>
  <path d="m21.004 1044.9 1.4957 1.9943-1.4957 1.9943" fill="none" stroke="#fff" stroke-linecap="round" stroke-linejoin="round"/>
  <path d="m11.5 1028.9v5h5z" fill="#f0f0f0" fill-rule="evenodd" stroke="#979797" stroke-linejoin="round"/>
  <path d="m17.75 1045.4v-1.25h-2.5v5.5h2.5v-1" fill="none" stroke="#fff" stroke-linecap="round" stroke-linejoin="round" stroke-width="1.5"/>
  <path d="m17 1046.9h4.3932" fill="none" stroke="#fff" stroke-linecap="round" stroke-linejoin="round"/>
 </g>
</svg>
