<svg height="24" width="24" xmlns="http://www.w3.org/2000/svg"><path d="m23.4 10.5c0 5.48-5.11 9.91-11.4 9.91-6.3 0-11.4-4.44-11.4-9.91 0-5.48 5.11-9.91 11.4-9.91 6.3 0 11.4 4.44 11.4 9.91z" fill="#aec7e2" stroke="#2e4e72" stroke-width="1.18"/><g stroke="#fff"><path d="m7.98 2.66c-.272.101-.468.292-.773.304-.372.131.0432.358.184.424.256-.0881.432-.349.821-.409.463-.192.123.282-.169.168.288.132.584.402.562.804.0971.342-.441.109-.211.476-.0453.302.329.944.457.346.0869-.337.446-.438.676-.623.365-.0154.59-.206.527-.584.135-.111.398-.132.35-.416.381-.189.0886-.498-.215-.349-.422.0805-.825-.114-1.21-.0257-.331.0155-.651-.0441-.972-.121zm8.4.684c-.415-.0499-.598.333-1.03.338.0028.115.0283.708-.147.302-.261-.606.239.528-.131.284.163-.27-.354-.859-.286-.343.382.423-.261.315-.399.14-.189.296-.511.00422-.749.32-.159.178-.329.515-.475.119-.221-.309.543.0367.222-.318-.341-.148-.884-.444-1.15-.0269-.251.289-.471.634-.627.835-.0024.134-.0225.403.0923.161.266.102.355.765.574.224.111-.252-.104-.802.347-.813-.0614.231-.169.614.221.461.172.324-.354.0131-.176.303.0305.253-.241.0428-.188.363-.167.0715-.342.21-.5.0434-.183.0879-.211-.0719-.317.15-.243.0862-.256.479-.574.5-.27.00288.236.255-.148.203.161.142.284.492.021.576-.454-.385-.416.453-.33.709.405.267.528-.24.667-.501.103-.141.158-.345.372-.259.0126-.41.319.258.493.333.218.162-.286.549.0593.272.0437-.284.249-.143.0369-.417-.232-.058-.433-.729-.0962-.345.318.239.303.59.486.934.302-.0503-.146-.529.2-.444.251-.189-.0374.616.404.51.498-.185.411.371.236.65-.293.0644-.738.0478-.907-.244.0396.538-.311.251-.554.117-.292-.1-.102-.466-.186-.615-.25.106-.575.188-.845.228-.116.0534-.218.0213-.25.00324-.037.16-.185.254-.252.383-.0127.408-.41.669-.479 1.08-.114.417-.0505.866-.0981 1.28.127.368.266.873.624 1.12.222-.0229.412-.116.639-.211.217-.156.335.186.453.198.244.0554.215.449.153.653.0984.409.343.835.327 1.29.0538.34-.278.662-.0889.993.228.454.0929.992.344 1.43.0363.343.111.77.492.482.261-.145.424-.482.549-.752.192-.362.272-.618.249-1 .199-.37.519-.684.372-1.15-.141-.431-.101-.869.176-1.24.179-.415.473-.782.567-1.23.209-.476-.268-.175-.549-.205-.0295-.479-.406-.828-.487-1.29-.1-.356-.19-.715-.308-1.07.354.192.398.735.574 1.12.278.216.0646.964.476.891.292-.243.666-.443.766-.849.338-.283-.162-.496-.13-.807-.0812.361-.492.403-.482-.0196-.0591-.178-.163-.782.0544-.328.195.257.505.216.689.461.235.0137.55-.0294.627.268.132.113.183.46.372.215.0246.412.117.827.246 1.23-.0446.319.225.631.312.176-.0561-.433.000721-.896.347-1.19.139-.532.593-.185.62.199.201.103.049.531.289.322.146.212.0201.941.148.854-.0345-.265.044-.775.206-.297.106.37.351.352.462-.0208.216-.476-.557-.838-.196-1.27.312-.233.109.8.284.273.0548-.472.676-.56.598-1.1.0553-.39-.481-.664-.252-1.04.0792-.179-.546.0858-.276-.263.0948-.333.245-.351.292-.0286.234-.309.129.236.365.271-.0874.332.231.392.262.0493-.234-.22-.436-.679-.115-.879.29-.0919.238-.722.115-.958-.021-.495-.778-.0448-.571-.626.017-.432.451-.417.731-.24.048-.254.0859-.471.303-.35.287-.259.052.466.121.62.164.143.236.618.412.6.0494-.346.0109-.697-.207-.921.0654-.199.332-.36.247-.0579.111-.256.193-.263.329-.363-.203-.11-.421-.315-.127-.39.186.0996.566.234.237-.0766-.4-.0208-.797-.299-1.18-.278-.0901.271-.52-.157-.769-.0403-.291-.219-.78.0444-1.02-.317-.0912.478-.652.147-.923.052-.33.13-.611-.036-.94-.0362.163-.219.102-.384-.186-.31-.069-.00841-.0326-.13-.158-.0547zm-11.2.207c-.252.146-.17.294.0767.286-.0858.439.449.234.671.186.105-.125.0894-.492-.15-.25-.293.127-.288-.309-.598-.223zm1.77.0566c-.212.093-.0776.535.0583.249.436.0166.5.577.177.77.0981.217.557.398.367.00347.195.0926.148-.0896.0694-.271.21.179.161-.212.0619-.313-.0121-.278-.375-.539-.673-.342-.0202-.0319-.0404-.0638-.0605-.0957zm-.449.225c-.282.0897-.247.731-.646.366-.291-.149-.359.275-.522.0741-.263-.163-.576-.255-.942-.216-.247.127-.621.261-.648-.139-.426-.0319-.846.0924-1.24.211-.27.0458.0812.501-.294.268-.268.0777-.042.285.102.158-.0941.286-.663.201-.503.611.248.0868.00587.287.314.119.156-.0591.288-.313.316-.139.18-.208.602-.0748.723.107.265.212-.0165.68.117.983.00947.29-.159.585-.301.882-.223.392-.248.966.0824 1.31-.0175.386.0896.76.211 1.12.0597-.331-.245-.726-.0829-.997.117.403.227.799.389 1.19-.0563.368.297.838.671.779.181.074.374.292.553.376.114.243.143.505.39.644.201.05-.287-.362-.147-.548.0659-.234.0803-.648-.292-.462.0547-.182.269-.901-.0645-.629-.053.636-.754.12-.496-.298.0158-.341.201-.895.572-.821.155.259.274-.365.498-.00715.125.146.095.868.247.341-.174-.448.114-.789.437-1.06.0931-.427.467-.631.615-.934.0935-.169.592-.52.322-.148-.0531.346.218-.236.394-.17.2-.251-.47.0926-.206-.24.235-.236-.534.0571-.183-.221.299-.127.998-.0645.835-.578-.243.0718-.11-.548-.232-.641-.195.272-.333.176-.311-.111-.166-.299-.378-.0538-.48.099-.135.133.0923.639-.326.671.0814.274-.273.46-.237.0968.223-.361-.574-.197-.437-.654.0476-.442.73-.397.697-.822.104.256.35-.141.517-.219.0639-.379-.427.347-.364-.105-.1-.0184-.016-.175-.0488-.242zm-.66 7.16c-.168.258-.454.551-.297.899-.0868.282-.216.56-.315.838.125.271-.168.518.129.783.131.416.231.844.565 1.15.371.171.201.604.229.941.0267.65.0571 1.3.0879 1.96.27.317.115.687.216 1.02-.00942.215.437.764.413.403.0109-.22.165-.58-.0593-.657.193-.186-.0348-.577.0615-.64.24.122-.00339-.46.292-.276.225-.225.0494-.403-.0252-.624.286.348.419-.26.464-.447.164-.344-.0335-.837.468-.9.251-.235.193-.668.242-.995-.0379-.432.262-.746.268-1.16-.117-.161-.292-.34-.482-.408-.236.0556-.411-.256-.501-.258-.106-.103-.391.154-.146-.176.0983-.423-.295-.493-.467-.733-.137-.194-.385-.365-.466-.503-.295.159-.52-.432-.529.102-.0933.291-.0324-.328-.148-.319zm13.8.74c-.149.246-.359.414-.409.692-.236-.0568-.0801.698.242.534.22-.0651.339-.499.246-.742.0377-.172.134-.38-.0793-.485zm-1.49.158c.122.391.338.832.491 1.25.257.49.264-.292.068-.446-.106-.327-.349-.569-.559-.801zm2.7.734c-.276.0272.0983.253-.0017.399.345-.0177.376.393.437.513.144.187.292.113.424.0163.013.214.612.569.322.187-.249-.251-.117-.611-.523-.776-.264-.213-.338-.144-.516.0603-.125-.0991-.0445-.319-.143-.4zm.627 1.38c-.0807.183-.0048.77-.326.717-.369-.17.1-.766-.404-.648-.226.147-.246.679-.427.227-.202.0967-.208.494-.33.392.0047.471-.714.404-.712.851-.0754.437.0091.959-.0732 1.34.267.0248.541-.164.792-.264.22-.238.591-.0644.553.227.157-.0655.313-.317.185.031.0399.273.0293.567.352.537.2.0464.601-.549.728-.84.163-.321.31-.862.0717-1.14-.194-.36-.255-.687-.304-1.1-.0517-.104-.0698-.219-.105-.328zm-6.76.133c.000669.38-.547.39-.368.802-.0165.279-.202.548-.0183.827.384-.13.21-.712.391-1.03.0299-.203.0608-.396-.0045-.595z" fill="#2e4e72" stroke-width=".075"/><path d="m12 .808c7.1 3.52 6.09 16.7 0 19.4" fill="none" stroke-width=".45"/><path d="m.842 10.5h22.3" fill="none" stroke-width=".45"/><path d="m2.21 5.2c5.68.757 13.8.757 19.5 0" fill="none" stroke-width=".45"/><path d="m2.21 15.8c5.68-.757 13.8-.757 19.5 0" fill="none" stroke-width=".45"/><path d="m12 .808c-6.09 2.64-7.1 15.9 0 19.4" fill="none" stroke-width=".45"/></g><path d="m23.4 10.5c0 5.48-5.11 9.91-11.4 9.91-6.3 0-11.4-4.44-11.4-9.91 0-5.48 5.11-9.91 11.4-9.91 6.3 0 11.4 4.44 11.4 9.91z" fill="none" stroke="#6e96c4" stroke-width="1.18"/><g transform="matrix(.692 0 0 .692 1.85 1.85)"><rect fill="#5a8c5a" height="13" rx="2.61" width="13" x="19" y="19"/><g fill-rule="evenodd"><path d="m21.6 25.5h7.8" fill="#fff" stroke="#fff" stroke-linecap="round" stroke-linejoin="round" stroke-width="2.6"/><path d="m25.5 29.4v-7.8" fill="#fff" stroke="#fff" stroke-linecap="round" stroke-linejoin="round" stroke-width="2.6"/><path d="m20.3 25.5h10.4v-2.6c0-2.6-.65-2.6-5.2-2.6s-5.2 0-5.2 2.6z" fill="#fcffff" opacity=".3"/></g></g></svg>