<?xml version="1.0" encoding="UTF-8"?>
<svg width="24" height="24" xmlns="http://www.w3.org/2000/svg" xmlns:xlink="http://www.w3.org/1999/xlink">
 <defs>
  <linearGradient id="b" x1="3.5" x2="11.5" y1="19.5" y2="19.5" gradientTransform="matrix(1 0 0 1 0 -8)" gradientUnits="userSpaceOnUse">
   <stop stop-color="#b7b7b7" offset="0"/>
   <stop stop-color="#e6e6e6" offset="1"/>
  </linearGradient>
 </defs>
 <path d="M21.5 21.5h-17c-1 0-1.978-1.42-2-2.5V2.5h19z" fill="url(#b)" fill-rule="evenodd" stroke="#9a9a9a"/>
 <g fill="none" stroke="#373737" stroke-width=".895">
  <path transform="matrix(1.1176 0 0 1.1172 -29.91 -.844)" d="M29.228 15.13c.633.624 1.828 1.29 2.456 1.29h10.737M46 3l-3.579 3.574H32.58M42.421 6.574v9.846l3.58 3.58"/>
 </g>
 <path d="M21.5 21.5h-17c-1 0-1.978-1.42-2-2.5V2.5h19z" fill="none" stroke="#9a9a9a"/>
 <path d="m6.5 2c-1-1-3-1-4 0v16c1-1 3-1 4 0z" fill="#e6e6e6" fill-rule="evenodd" stroke="#9a9a9a"/>
 <path d="M17.5.5l6 6.5-6 6.5v-5h-3.999c-4.749 1.5-4.498 4.66-4.024 5.955C8.814 13.195 8.5 13.354 8.5 11c0-2.104 1.882-5.5 5-5.5H17.5z" fill="#e37e39" fill-rule="evenodd"/>
 <path transform="matrix(-1.0001 0 0 1 27.001 -1031.4)" d="M9.5 1031.862l-6 6.5 6 6.5v-5h3.998c5.235 1.5 3.998 4.546 3.998 6 .474-.474 1.002-.985 1.002-3.5 0-2.104-2.276-5.5-5-5.5H9.5z" fill="none" stroke="#d06935" stroke-linejoin="round"/>
</svg>
