<svg height="24" width="24" xmlns="http://www.w3.org/2000/svg">
<g transform="translate(0 -8)">
<path d="m17.96122 7c0 3.354712-2.668929 6.074244-5.96122 6.074244-3.292291 0-5.9612203-2.719532-5.9612203-6.074244 0-3.3547121 2.6689293-6.07424355 5.9612203-6.07424355 3.292291 0 5.96122 2.71953145 5.96122 6.07424355z" style="opacity:.8;fill:#e6e6e6;stroke:#505050;stroke-width:.75218332;stroke-linecap:round;stroke-linejoin:round;stroke-dashoffset:7" transform="matrix(1.3420071 0 0 1.3170365 -1.6040853 8.2791092)"/>
<path d="m10 13c2-3 4.442248-3.398055 6-2 1.557752 1.398055-2 1-4 3-2 2 0 6-2 6-1.9999999 0-1.9999999-4 0-7z" fill="#fcffff" fill-rule="evenodd" opacity=".7"/>
<path d="m2.0000001 29l4-4" opacity=".5" overflow="visible" stroke="#fcffff" stroke-linecap="round" stroke-linejoin="round"/>
<path d="m10.5 17.5l8 0" style="fill:none;stroke:#000;stroke-width:2.9000001;stroke-linecap:round;stroke-linejoin:round;overflow:visible"/>
<path d="m10.5 17.5l8 0" style="fill:none;stroke:#6d97c4;stroke-width:2.5;stroke-linecap:round;stroke-linejoin:round;overflow:visible"/>
<g stroke-linejoin="round" transform="translate(8.7360334 4.906424)">
<path d="m-1.2360334 17.593576c0 2 2.00000001 2 2.00000001 2 0 0-7.00000001 7-7.00000001 7l-2-2z" fill="#ffcc30" fill-rule="evenodd" stroke="#505050"/>
<path d="m-2.7360334 19.093576l2.00000001-2 1.99999989 2-1.99999989 2z" fill-rule="evenodd" stroke="#505050"/>
<path d="m-6.7360334 24.093576l4-4" opacity=".5" overflow="visible" stroke="#fcffff" stroke-linecap="round"/>
</g>
</g>
</svg>
