<svg xmlns="http://www.w3.org/2000/svg" height="24" width="24"><g transform="translate(1.846 1.846) scale(.6923)"><rect y="19" x="19" width="13" ry="2.615" rx="2.615" height="13" fill="#c4a000"/><path d="M20.3 25.5h10.4v-2.6c0-2.6-.65-2.6-5.2-2.6s-5.2 0-5.2 2.6v2.6z" opacity=".3" fill="#fcffff" fill-rule="evenodd"/><path transform="matrix(.60272 0 0 .60366 29.09 29.54)" d="M-6.457-5.813v.76c0 1.04-.16 1.76-.64 2.68-.72 1.56-.8 1.76-.8 2.36 0 1.16.88 2.12 1.92 2.12 1.08 0 1.92-.96 1.92-2.16 0-.4-.12-.92-.4-1.44-.92-1.96-1-2.28-1-3.56v-.76l.64.4c.84.48 1.48 1.04 2.04 1.84 1.32 1.8 1.76 2.16 2.84 2.16 1 0 1.8-.76 1.8-1.76 0-1.24-1.04-2.16-2.6-2.28-1.96-.12-2.32-.2-3.56-.88l-.64-.36.64-.36c.92-.52 1.6-.76 2.64-.8 1.6-.16 1.72-.16 2.2-.36.8-.4 1.32-1.12 1.32-1.96 0-1.04-.84-1.84-1.88-1.84-.88 0-1.6.44-2.24 1.4-1.12 1.68-1.36 1.92-2.56 2.64l-.64.4v-.76c0-1 .16-1.76.64-2.68.76-1.6.8-1.76.8-2.32 0-1.2-.88-2.16-1.96-2.16-1.04 0-1.92.96-1.92 2.12 0 .44.12.96.4 1.48.96 2 1.04 2.28 1.04 3.56v.76l-.64-.4c-.92-.52-1.44-1.04-2.04-1.88-.8-1.2-.8-1.2-1.12-1.52-.44-.4-1.08-.64-1.6-.64-1.08 0-1.92.84-1.92 1.84 0 1.24 1 2.12 2.56 2.24 2.04.12 2.36.2 3.6.88l.64.36-.64.4c-.84.48-1.64.72-2.64.8-1.56.08-1.68.12-2.2.32-.8.36-1.32 1.12-1.32 1.96 0 1 .84 1.84 1.88 1.84.88 0 1.64-.48 2.24-1.4 1.08-1.6 1.4-1.96 2.56-2.64z" fill="#fff" stroke="#fff" stroke-width=".497"/></g><path d="M2.575 2.575l6.351 15.296 6.985-15.153 5.744-.022" overflow="visible" fill="none" stroke="#2b3b4d" stroke-linecap="round" stroke-linejoin="round" stroke-width="1.5"/><path d="M4.257 2.575a1.681 1.681 0 1 1-3.363 0 1.681 1.681 0 1 1 3.363 0zm6.372 14.495a1.681 1.681 0 1 1-3.363 0 1.681 1.681 0 1 1 3.363 0zm6.786-14.388a1.681 1.681 0 1 1-3.363 0 1.681 1.681 0 1 1 3.363 0zm5.921.014a1.681 1.681 0 1 1-3.363 0 1.681 1.681 0 1 1 3.363 0z" overflow="visible" fill="#eeeeec" fill-rule="evenodd" stroke="#2b3b4d" stroke-linecap="round" stroke-linejoin="round"/></svg>
