<svg xmlns="http://www.w3.org/2000/svg" height="24" width="24"><path d="M2.575 2.575l6.351 15.296 6.985-15.153 5.744-.022" overflow="visible" fill="none" stroke="#2b3b4d" stroke-width="2" stroke-linecap="round" stroke-linejoin="round"/><path d="M4.257 2.575a1.681 1.681 0 1 1-3.363 0 1.681 1.681 0 1 1 3.363 0zM10.629 17.07a1.681 1.681 0 1 1-3.363 0 1.681 1.681 0 1 1 3.363 0zM17.415 2.682a1.681 1.681 0 1 1-3.363 0 1.681 1.681 0 1 1 3.363 0zM23.336 2.696a1.681 1.681 0 1 1-3.363 0 1.681 1.681 0 1 1 3.363 0z" overflow="visible" fill="#eeeeec" fill-rule="evenodd" stroke="#2b3b4d" stroke-linecap="round" stroke-linejoin="round"/><g transform="matrix(.6923 0 0 .6923 1.846 1.846)"><rect y="19" x="19" width="13" ry="2.615" rx="2.615" height="13" fill="#5a8c5a"/><path d="M21.6 25.5h7.8M25.5 29.4v-7.8" overflow="visible" fill="#fff" fill-rule="evenodd" stroke="#fff" stroke-width="2.6" stroke-linecap="round" stroke-linejoin="round"/><path d="M20.3 25.5h10.4v-2.6c0-2.6-.65-2.6-5.2-2.6s-5.2 0-5.2 2.6v2.6z" opacity=".3" fill="#fcffff" fill-rule="evenodd"/></g></svg>
