<svg height="24" viewBox="0 0 24 24" width="24" xmlns="http://www.w3.org/2000/svg"><g transform="translate(0 -8)"><path d="m2.5 15.5h19v14h-19z" fill="#e6e6e6" stroke="#6e97c4"/><path d="m2.5 10.5h19v5h-19z" fill="#bad9ec" stroke="#6e97c4"/><path d="m5 13h4" fill="none" stroke="#6e97c4" stroke-width="2"/><path d="m11 13h7.999999" fill="none" stroke="#6e97c4" stroke-width="2"/><path d="m1.4999999 15.499999h21v4h-21z" fill="#e0ce7c" fill-rule="evenodd" stroke="#c4a000" stroke-linecap="round"/><g fill="none"><path d="m5 17.5h4" stroke="#fff"/><path d="m11 17.5h7.999999" stroke="#fff"/><path d="m5 20.5h4" stroke="#6e97c4"/><path d="m11 20.5h7.999999" stroke="#6e97c4"/><path d="m5 23.5h4" stroke="#6e97c4"/><path d="m11 23.5h7.999999" stroke="#6e97c4"/><path d="m5 26.5h4" stroke="#6e97c4"/><path d="m11 26.5h7.999999" stroke="#6e97c4"/></g><g transform="translate(33 8)"><rect fill="#c4a000" height="11" rx="2.01149" width="11" x="-20" y="13"/><g fill="#fcffff"><path d="m-15 14v2.0625c-.537663.111041-1.024662.383291-1.375.78125l-1.78125-1.03125-.5.875 1.78125 1.03125c-.082063.247432-.125.506395-.125.78125s.04294.533818.125.78125l-1.78125 1.03125.5.875 1.78125-1.03125c.352503.40042.832682.670182 1.375.78125v2.0625h1v-2.0625c.537663-.111041 1.024662-.383291 1.375-.78125l1.78125 1.03125.5-.875-1.78125-1.03125c.082063-.247432.125-.506395.125-.78125s-.04294-.533818-.125-.78125l1.78125-1.03125-.5-.875-1.78125 1.03125c-.352503-.40042-.832682-.670182-1.375-.78125v-2.0625zm.5 3.5c.552 0 1 .448 1 1s-.448 1-1 1-1-.448-1-1 .448-1 1-1z"/><path d="m-19 19 9-.0096s0 0 0-2c0-2.9904-1-2.9904-4.5-2.9904s-4.5 0-4.5 3z" fill-rule="evenodd" opacity=".3"/></g></g></g></svg>