<?xml version="1.0" encoding="UTF-8"?>
<svg id="svg12556" width="24" height="24" version="1.1" xmlns="http://www.w3.org/2000/svg" xmlns:cc="http://creativecommons.org/ns#" xmlns:dc="http://purl.org/dc/elements/1.1/" xmlns:rdf="http://www.w3.org/1999/02/22-rdf-syntax-ns#" xmlns:xlink="http://www.w3.org/1999/xlink">
 <metadata id="metadata12562">
  <rdf:RDF>
   <cc:Work rdf:about="">
    <dc:format>image/svg+xml</dc:format>
    <dc:type rdf:resource="http://purl.org/dc/dcmitype/StillImage"/>
    <dc:title/>
   </cc:Work>
  </rdf:RDF>
 </metadata>
 <linearGradient id="c" x1="6.262" x2="7.318" y1="5.295" y2="9.918" gradientUnits="userSpaceOnUse">
  <stop id="stop12514" stop-color="#264976" offset="0"/>
  <stop id="stop12516" stop-color="#3f689d" offset=".333"/>
  <stop id="stop12518" stop-color="#5689ca" stop-opacity="0" offset="1"/>
 </linearGradient>
 <linearGradient id="d" x1="37.128" x2="37.065" y1="29.73" y2="26.194" gradientTransform="matrix(-.54367 0 0 -.54367 24.52 24.602)" gradientUnits="userSpaceOnUse">
  <stop id="stop12521" stop-color="#3465a4" offset="0"/>
  <stop id="stop12523" stop-color="#3465a4" stop-opacity="0" offset="1"/>
 </linearGradient>
 <linearGradient id="e" x1="62.514" x2="15.985" y1="36.061" y2="20.609" gradientTransform="matrix(-.31481 -.26598 -.26598 .31481 29.403 6.676)" gradientUnits="userSpaceOnUse">
  <stop id="stop12526" stop-color="#8cb0d8" offset="0"/>
  <stop id="stop12528" stop-color="#4580bf" offset="1"/>
 </linearGradient>
 <linearGradient id="f" x1="46.835" x2="45.38" y1="45.264" y2="50.94" gradientTransform="matrix(-.31481 -.26598 -.26598 .31481 29.403 6.676)" gradientUnits="userSpaceOnUse">
  <stop id="stop12499" stop-color="#3465a4" offset="0"/>
  <stop id="stop12501" stop-color="#3465a4" offset="1"/>
 </linearGradient>
 <linearGradient id="l" x1="5.965" x2="52.854" y1="26.048" y2="26.048" gradientTransform="matrix(-.27647 -.23359 -.23359 .27647 27.523 6.943)" gradientUnits="userSpaceOnUse">
  <stop id="stop12494" stop-color="#fff" offset="0"/>
  <stop id="stop12496" stop-color="#fff" stop-opacity="0" offset="1"/>
 </linearGradient>
 <g id="g16284" transform="matrix(0 -.77922 -1.4863 0 21.81 20.092)">
  <path id="path12542" d="m2.095 10.705c-1.997-9.462 8.106-13.016 16.912-6.069l2.596-2.85-0.052 9.315-8.134-8e-3 2.707-3.044c-6.193-4.694-14.126-4.342-14.03 2.656z" display="block" fill="url(#e)" overflow="visible" stroke="url(#f)" stroke-width=".544"/>
  <g id="g16276">
   <g id="g16270">
    <path id="path12540" d="m9.638 5.336s-4.859-0.34-3.364 5.369h-4.18s0.273-6.456 7.544-5.369z" display="block" fill="url(#c)" overflow="visible" stroke="url(#d)" stroke-width=".544"/>
    <path id="path12552" d="m2.451 7.797c1.034-6.338 9.16-8.407 16.825-2.102l1.953-2.15 0.014 7.275-6.383 2e-3 2.258-2.571c-5.133-4.157-12.168-5.105-14.667-0.454z" display="block" fill="none" opacity=".5" overflow="visible" stroke="url(#l)" stroke-width=".544"/>
    <path id="path12554" d="m2.385 8.647c1.954-5.676 8.94-3.34 10.976-2.446 2.27 0.115 3.085-1.541 4.893-1.631-7.639-5.323-15.665-3.534-15.869 4.077z" fill="#fff" opacity=".272" overflow="visible"/>
   </g>
  </g>
 </g>
</svg>
