<svg height="24" width="24" xmlns="http://www.w3.org/2000/svg" xmlns:xlink="http://www.w3.org/1999/xlink">
<linearGradient id="a" gradientUnits="userSpaceOnUse" x1="12" x2="12" y1="18" y2="24">
<stop offset="0" stop-color="#4dadee"/>
<stop offset="1" stop-color="#c7e5f9"/>
</linearGradient>
<linearGradient id="b" gradientUnits="userSpaceOnUse" x1="9" x2="9" y1="21" y2="24">
<stop offset="0" stop-color="#d8cd7e"/>
<stop offset="1" stop-color="#ab983d"/>
</linearGradient>
<g transform="translate(0 -8)">
<path d="m2.5 13.5h19v13h-19z" fill="url(#a)" stroke="#9a9a9a"/>
<path d="m3 20l5-3 13 5v4h-18z" fill="url(#b)" fill-rule="evenodd"/>
<g transform="matrix(.69230769 0 0 .69230769 1.8461539 9.8461539)">
<rect fill="#5a8c5a" height="13" rx="2.6149371" ry="2.6149368" width="13" x="19" y="19"/>
<path d="m21.6 25.499999l7.8 0" style="fill:#fff;fill-rule:evenodd;stroke:#fff;stroke-width:2.5999999;stroke-linecap:round;stroke-linejoin:round;overflow:visible"/>
<path d="m25.5 29.399999l0-7.799999" style="fill:#fff;fill-rule:evenodd;stroke:#fff;stroke-width:2.5999999;stroke-linecap:round;stroke-linejoin:round;overflow:visible"/>
<path d="m20.3 25.499999h10.4c0 0 0 0 0-2.6 0-2.599999-.65-2.599999-5.2-2.599999-4.55 0-5.2 0-5.2 2.599999 0 2.6 0 2.6 0 2.6z" fill="#fcffff" fill-rule="evenodd" opacity=".3"/>
</g>
</g>
</svg>
