<svg width="48" height="48" version="1.1" xmlns="http://www.w3.org/2000/svg" xmlns:xlink="http://www.w3.org/1999/xlink"><linearGradient id="j" x1="64" x2="64" y1="21.9" y2="104" gradientUnits="userSpaceOnUse"><stop stop-color="#dadada" offset="0"/><stop stop-color="#ccc" offset="1"/></linearGradient><linearGradient id="i" x1="64" x2="64" y1="21.5" y2="103" gradientUnits="userSpaceOnUse" xlink:href="#j"><stop stop-color="#d9d9d9" offset="0"/><stop stop-color="#ccc" offset="1"/></linearGradient><linearGradient id="p" x1="64" x2="64" y1="21.5" y2="103" gradientTransform="matrix(.323 0 0 .323 -.569 -.317)" gradientUnits="userSpaceOnUse" xlink:href="#i"/><linearGradient id="o" x1="49.3" x2="49.4" y1="22.3" y2="102" gradientTransform="matrix(.323 0 0 .323 -.569 -.317)" gradientUnits="userSpaceOnUse" xlink:href="#i"/><linearGradient id="n" x1="64" x2="64" y1="21.9" y2="104" gradientTransform="matrix(.28 0 0 .28 2.19 2.64)" gradientUnits="userSpaceOnUse" xlink:href="#j"/><linearGradient id="m" x1="86.1" x2="84.6" y1="105" y2="20.9" gradientTransform="matrix(.28 0 0 .28 2.19 2.64)" gradientUnits="userSpaceOnUse"><stop stop-color="#fff" offset="0"/><stop stop-color="#959595" offset="1"/></linearGradient><linearGradient id="l" x1="20.1" x2="20.1" y1="2.24" y2="38.3" gradientUnits="userSpaceOnUse"><stop stop-color="#f2f2f2" offset="0"/><stop stop-color="#d8d8d8" offset="1"/></linearGradient><radialGradient id="k" cx="6.7" cy="73.6" r="7.23" gradientTransform="matrix(2.65 0 0 .844 2.36 -26.5)" gradientUnits="userSpaceOnUse"><stop offset="0"/><stop stop-opacity="0" offset="1"/></radialGradient><path d="m39.3 35.7c0 3.37-8.58 6.1-19.2 6.1-10.6 0-19.2-2.73-19.2-6.1 0-3.37 8.57-6.1 19.2-6.1 10.6 0 19.2 2.73 19.2 6.1z" fill="url(#k)" opacity=".4"/><path d="m37.6 15.8h-1.48c-.399 0-.859-.331-.986-.708-.0071-.0196-.917-2.22-.917-2.22-.187-.376-.0967-.934.185-1.22l1.04-1.04c.24-.24.373-.56.373-.901 0-.341-.133-.661-.373-.9l-4.11-4.1c-.24-.239-.561-.372-.902-.372-.342 0-.662.132-.902.372l-1.04 1.04c-.282.281-.842.372-1.2.194-.02-.0091-2.22-.917-2.22-.917-.398-.134-.73-.594-.73-.992v-1.47c-.000871-.702-.573-1.27-1.28-1.27h-5.81c-.704 0-1.28.571-1.28 1.27v1.47c0 .398-.332.858-.709.985-.0196.0074-2.22.915-2.22.915-.377.187-.936.0962-1.22-.185l-1.04-1.04c-.24-.24-.561-.372-.902-.372-.342 0-.662.132-.902.372l-4.11 4.1c-.497.497-.497 1.3 0 1.8l1.04 1.04c.281.281.372.84.194 1.2-.0092.0199-.919 2.22-.919 2.22-.134.397-.595.728-.993.728h-1.09c-.703 0-1.66.572-1.66 1.27v5.8c0 .702.572 1.27 1.28 1.27h1.48c.399 0 .859.331.986.708.0074.0196.917 2.22.917 2.22.187.376.0964.934-.185 1.22l-1.04 1.04c-.497.497-.497 1.3 0 1.8l4.11 4.1c.24.24.56.372.902.372.342 0 .662-.132.902-.372l1.04-1.04c.282-.281.841-.372 1.2-.194.0199.0092 2.22.917 2.22.917.397.134.729.594.729.992v1.47c0 .702.572 1.27 1.28 1.27h5.81c.703 0 1.28-.571 1.28-1.27v-1.47c0-.398.332-.858.71-.985.0196-.0071 2.22-.915 2.22-.915.377-.187.936-.0965 1.22.185l1.04 1.04c.24.24.56.372.902.372.342 0 .662-.132.902-.372l4.11-4.1c.24-.24.373-.559.373-.9 0-.341-.133-.661-.373-.9l-1.04-1.04c-.282-.281-.372-.84-.194-1.2.0092-.0199.919-2.22.919-2.22.134-.397.595-.728.993-.728h1.48c.704 0 1.28-.571 1.28-1.27v-5.8c.000958-.702-.571-1.27-1.27-1.27zm-17.4 9.6c-2.99 0-5.43-2.43-5.43-5.42s2.44-5.42 5.43-5.42c2.99 0 5.43 2.43 5.43 5.42 0 2.99-2.43 5.42-5.43 5.42z" fill="#030303" opacity=".1" stroke-width="2.67"/><path d="m37.6 15.8h-1.48c-.399 0-.859-.332-.986-.709-.0071-.0196-.917-2.22-.917-2.22-.187-.376-.0967-.936.185-1.22l1.04-1.04c.24-.24.373-.561.373-.902 0-.341-.133-.662-.373-.902l-4.11-4.11c-.24-.24-.56-.373-.902-.373-.342 0-.662.132-.902.373l-1.04 1.04c-.282.282-.842.372-1.2.194-.02-.0092-2.22-.918-2.22-.918-.398-.134-.73-.595-.73-.993v-1.48c-.00087-.704-.573-1.28-1.28-1.28h-5.81c-.704 0-1.28.572-1.28 1.28v1.48c0 .399-.332.86-.709.986-.0196.0074-2.22.917-2.22.917-.377.187-.936.0965-1.22-.185l-1.04-1.04c-.24-.24-.561-.373-.902-.373-.342 0-.662.133-.902.373l-4.11 4.11c-.497.497-.497 1.31 0 1.8l1.04 1.04c.281.282.372.841.194 1.2-.0092.0199-.919 2.22-.919 2.22-.134.398-.595.729-.993.729h-1.09c-.703-.000306-1.66.572-1.66 1.28v5.81c0 .703.572 1.28 1.28 1.28h1.48c.399 0 .859.331.986.709.0074.0196.917 2.22.917 2.22.187.376.0964.936-.185 1.22l-1.04 1.04c-.497.497-.497 1.31 0 1.8l4.11 4.11c.24.24.56.373.902.373.342 0 .662-.132.902-.373l1.04-1.04c.282-.282.841-.373 1.2-.194.0199.0089 2.22.918 2.22.918.397.134.729.595.729.993v1.48c0 .704.572 1.28 1.28 1.28h5.81c.703 0 1.28-.572 1.28-1.28v-1.48c0-.399.332-.86.71-.986.0196-.0071 2.22-.917 2.22-.917.377-.187.936-.0962 1.22.185l1.04 1.04c.24.24.56.373.902.373.342 0 .662-.132.902-.373l4.11-4.11c.24-.24.373-.56.373-.902 0-.342-.133-.662-.373-.902l-1.04-1.04c-.282-.282-.372-.842-.194-1.2.0092-.0202.919-2.22.919-2.22.134-.398.595-.729.993-.729h1.48c.704 0 1.28-.572 1.28-1.28v-5.81c.000958-.704-.571-1.28-1.27-1.28zm-17.4 10c-3.25 0-5.89-2.64-5.89-5.88 0-3.24 2.64-5.88 5.89-5.88 3.25 0 5.89 2.64 5.89 5.88 0 3.24-2.64 5.88-5.89 5.88z" fill="url(#l)" stroke="#262626" stroke-linecap="round" stroke-linejoin="round" stroke-width="1.2"/><path d="m20.1 8.63c-6.43 0-11.7 5.22-11.7 11.6 0 6.42 5.23 11.6 11.7 11.6 6.43 0 11.7-5.22 11.7-11.6 0-6.42-5.23-11.6-11.7-11.6zm0 20.2c-4.73 0-8.57-3.83-8.57-8.56s3.84-8.56 8.57-8.56c4.73 0 8.57 3.83 8.57 8.56 0 4.73-3.84 8.56-8.57 8.56z" fill="url(#n)" stroke="url(#m)" stroke-width=".87"/><path d="m20.1 10c-5.54 0-10 4.48-10 10 0 5.53 4.49 10 10 10 5.54 0 10-4.48 10-10 0-5.53-4.49-10-10-10zm0 16.6c-3.66 0-6.63-2.96-6.63-6.62 0-3.65 2.97-6.62 6.63-6.62 3.66 0 6.63 2.96 6.63 6.62 0 3.65-2.97 6.62-6.63 6.62z" fill="url(#p)" stroke="url(#o)" stroke-width=".87"/><path transform="matrix(.712 0 0 .871 -7.93 11.3)" d="m54.9 10.2a15.4 12.9 0 1 1 -30.7 0 15.4 12.9 0 1 1 30.7 0z" fill="#6d97c4" stroke="#000" stroke-linecap="round" stroke-linejoin="round"/><path transform="matrix(1.28 .0643 -.0671 1.23 46.4 -25.7)" d="m-14.7 38.1l-5.77 3.74-.352-6.87z" fill="#fff" stroke="#fff" stroke-linejoin="round" stroke-width="1.52"/><path d="m45.7 34.7l-19.9-10.9 8.56 21.2 3.41-5.51 6.74 7.36 2.55-2.48-6.89-7.29z" fill="#fff" fill-rule="evenodd" stroke="#262626" stroke-linecap="round" stroke-linejoin="round" stroke-width="1.2"/></svg>
