<svg height="24" width="24" xmlns="http://www.w3.org/2000/svg">
<g transform="translate(0 -8)">
<path d="m17.96122 7c0 3.354712-2.668929 6.074244-5.96122 6.074244-3.292291 0-5.9612203-2.719532-5.9612203-6.074244 0-3.3547121 2.6689293-6.07424355 5.9612203-6.07424355 3.292291 0 5.96122 2.71953145 5.96122 6.07424355z" style="opacity:.8;fill:#e6e6e6;stroke:#505050;stroke-width:.75218332;stroke-linecap:round;stroke-linejoin:round;stroke-dashoffset:7" transform="matrix(1.3420071 0 0 1.3170365 -1.6040853 8.2791092)"/>
<path d="m23.5 27.918h-7.777832l2.59261-2.592609-2.59261-2.592609 2.592607-2.59261 2.592613 2.59261 2.592609-2.59261z" fill="#6d97c4" fill-rule="evenodd" stroke="#415a75" stroke-linejoin="round"/>
<path d="m7.5000001 22.5c0 2 2 2 2 2 0 0-7 7-7 7l-2.00000001-2z" fill="#ffcc30" fill-rule="evenodd" stroke="#505050" stroke-linejoin="round"/>
<path d="m6.0000001 24l2-2 1.9999999 2-1.9999999 2z" fill-rule="evenodd" stroke="#505050" stroke-linejoin="round"/>
<path d="m10 13c2-3 4.442248-3.398055 6-2 1.557752 1.398055-2 1-4 3-2 2 0 6-2 6-1.9999999 0-1.9999999-4 0-7z" fill="#fcffff" fill-rule="evenodd" opacity=".7"/>
<path d="m2.0000001 29l4-4" opacity=".5" overflow="visible" stroke="#fcffff" stroke-linecap="round" stroke-linejoin="round"/>
<path d="m23.499999 8.5l.000001 7.777834-2.592612-2.592614-2.59261 2.592614-2.59261-2.592612 2.59261-2.59261-2.59261-2.5926114z" fill="#6d97c4" fill-rule="evenodd" stroke="#415a75" stroke-linejoin="round"/>
<path d="m4.082 8.5h7.777832l-2.592612 2.59261 2.592612 2.59261-2.592611 2.59261-2.5926105-2.59261-2.5926102 2.59261z" fill="#6d97c4" fill-rule="evenodd" stroke="#415a75" stroke-linejoin="round"/>
</g>
</svg>
