<svg height="24" width="24" xmlns="http://www.w3.org/2000/svg"><path d="m9.791 10.658 2.285-1.176 2.285 1.176v2.534l-2.285 1.267-2.285-1.267zm2.319-1.956-1.877-1.412-.44-5.025c.522-2.213 3.794-2.49 4.43 0l-.437 5.01zm-.208 6.596 1.879 1.412.44 5.025c-.523 2.213-3.795 2.49-4.43 0l.437-5.01zm3.011-4.883.308-2.301 4.22-2.886c2.216-.663 4.096 1.977 2.214 3.76l-4.645 2.136zm0 3.269 2.187-.89 4.66 2.14a2.225 2.225 0 0 1 -2.216 3.76l-4.208-2.876zm-5.828-3.269-.308-2.301-4.219-2.886c-2.216-.663-4.097 1.977-2.215 3.76l4.645 2.136zm0 3.269-2.187-.89-4.659 2.14a2.225 2.225 0 0 0 2.215 3.76l4.209-2.876z" fill="#6d97c4" stroke="#466280"/><g transform="matrix(.6923 0 0 .6923 1.846 1.846)"><rect fill="#5a8c5a" height="13" rx="2.615" width="13" x="19" y="19"/><g fill-rule="evenodd"><path d="m21.6 25.5h7.8m-3.9 3.9v-7.8" fill="#fff" stroke="#fff" stroke-linecap="round" stroke-linejoin="round" stroke-width="2.6"/><path d="m20.3 25.5h10.4v-2.6c0-2.6-.65-2.6-5.2-2.6s-5.2 0-5.2 2.6z" fill="#fcffff" opacity=".3"/></g></g></svg>