<?xml version="1.0" encoding="utf-8"?>
<!-- Generator: Adobe Illustrator 15.0.2, SVG Export Plug-In . SVG Version: 6.00 Build 0)  -->
<!DOCTYPE svg PUBLIC "-//W3C//DTD SVG 1.0//EN" "http://www.w3.org/TR/2001/REC-SVG-20010904/DTD/svg10.dtd">
<svg version="1.0" xmlns="http://www.w3.org/2000/svg" xmlns:xlink="http://www.w3.org/1999/xlink" x="0px" y="0px" width="24px"
	 height="24px" viewBox="0 0 24 24" enable-background="new 0 0 24 24" xml:space="preserve">
<g id="svg5692" sodipodi:docname="mActionDeselectAll.svg" inkscape:version="0.48.3.1 r9886" inkscape:export-filename="/mnt/home1/robert/svn/graphics/trunk/toolbar-icons/24x24/select-remove.png" inkscape:export-xdpi="90" inkscape:export-ydpi="90" xmlns:inkscape="http://www.inkscape.org/namespaces/inkscape" xmlns:sodipodi="http://sodipodi.sourceforge.net/DTD/sodipodi-0.dtd" xmlns:svg="http://www.w3.org/2000/svg" xmlns:rdf="http://www.w3.org/1999/02/22-rdf-syntax-ns#" xmlns:cc="http://creativecommons.org/ns#" xmlns:dc="http://purl.org/dc/elements/1.1/">
	<g id="layer4" transform="translate(0,-8)" inkscape:groupmode="layer" inkscape:label="1">
		
			<path id="rect2902" fill="#FCE94F" stroke="#C4A000" stroke-width="1.25" stroke-linecap="round" stroke-linejoin="round" stroke-dasharray="1,2" d="
			M4.5,11.5h11.999c0.553,0,1.001,0.447,1.001,1v11.999c0,0.553-0.448,1.001-1.001,1.001H4.5c-0.552,0-1-0.448-1-1.001V12.5
			C3.5,11.948,3.948,11.5,4.5,11.5z"/>
		<g id="g3026" transform="translate(-1.5000001e-8,8.0000001)">
			
				<path id="rect15022-0-4-8-5-6-4-4-4" opacity="0.9" fill="#CC0000" stroke="#CC0000" stroke-linecap="square" stroke-linejoin="round" enable-background="new    " d="
				M14.357,13.5h8.285c0.474,0,0.857,0.384,0.857,0.857v8.285c0,0.474-0.384,0.857-0.857,0.857h-8.285
				c-0.474,0-0.857-0.384-0.857-0.857v-8.285C13.5,13.884,13.884,13.5,14.357,13.5z"/>
			
				<path id="path15024-9-6-7-7-2-9-8-9" sodipodi:nodetypes="ccssssc" inkscape:connector-curvature="0" opacity="0.5" fill="#FCFFFF" enable-background="new    " d="
				M13.5,18.5h10v-3.334c0-1.666,0-1.666-2.5-1.666c-0.582,0-5.061,0-5.834,0c-1.666,0-1.666,0-1.666,1.666
				C13.5,16,13.5,16.834,13.5,18.5z"/>
			<path id="path4019-83" fill="none" stroke="#EEEEEC" stroke-width="1.5" stroke-linecap="round" d="M16.373,20.65l4.254-4.301"/>
			
				<path id="path2982" sodipodi:ry="4.5" sodipodi:rx="4.5" sodipodi:cy="19" sodipodi:cx="19" sodipodi:type="arc" fill="none" stroke="#EEEEEC" stroke-width="1.6875" stroke-linecap="round" d="
				M22.5,18.5c0,2.209-1.791,4-4,4s-4-1.791-4-4s1.791-4,4-4S22.5,16.291,22.5,18.5z"/>
		</g>
	</g>
</g>
<g id="Isolation_Mode">
</g>
</svg>
