<svg height="24" viewBox="0 0 24 24" width="24" xmlns="http://www.w3.org/2000/svg"><g fill="none" fill-rule="evenodd"><g transform="matrix(.97968799 .21974286 -.21926605 .99808243 2.374032 -1.566994)"><g transform="matrix(.82903757 -.5591929 .5591929 .82903757 -5.219616 7.507405)"><path d="m2.705 5.327h13.925v13.925h-13.925z" fill="#d06935" height="100%" transform="" width="100%"/><path d="m3.0803977 5.701775v13.174934h13.1749343v-13.174934z" stroke="#864422" stroke-width=".75"/></g><g transform="matrix(.94551858 -.32556815 .32556815 .94551858 -2.295324 4.075683)"><path d="m4.067 1.933h13.925v13.925h-13.925z" fill="#ecc61d" height="100%" transform="" width="100%"/><path d="m4.4422133 2.3080574v13.1749346h13.1749347v-13.1749346z" stroke="#907b1b" stroke-width=".75"/></g><path d="m8.073.046h13.925v13.925h-13.925z" fill="#6d97c4" height="100%" transform="" width="100%"/><path d="m8.448.421h13.175v13.175h-13.175z" stroke="#3d5064" stroke-width=".75"/></g><g transform="matrix(.69230769 0 0 .69230769 1.802224 1.750017)"><rect fill="#5a8c5a" height="13" rx="2.614937" width="13" x="19" y="19"/><g fill-rule="evenodd"><path d="m21.6 25.499999h7.8" fill="#fff" stroke="#fff" stroke-linecap="round" stroke-linejoin="round" stroke-width="2.6"/><path d="m25.5 29.399999v-7.799999" fill="#fff" stroke="#fff" stroke-linecap="round" stroke-linejoin="round" stroke-width="2.6"/><path d="m20.3 25.499999h10.4s0 0 0-2.6c0-2.599999-.65-2.599999-5.2-2.599999s-5.2 0-5.2 2.599999z" fill="#fcffff" opacity=".3"/></g></g></g></svg>