<svg xmlns="http://www.w3.org/2000/svg" height="24" width="24"><path fill="#eeeeec" stroke="#888a85" stroke-linecap="round" d="M7.5 1.5h9v9h-9zM1.5 13.5h9v9h-9zM13.5 13.5h9v9h-9z"/><path d="M8.513 10L8.5 2.5l7.5.02" fill="none" stroke="#fff" stroke-linecap="square"/><path fill="none" stroke="#888a85" stroke-linecap="round" d="M7.5 1.5h9v9h-9z"/><path d="M2.513 22L2.5 14.5c0-.287-.28 0 0 0l7.5.02" fill="none" stroke="#fff" stroke-linecap="square" stroke-linejoin="round"/><path fill="none" stroke="#888a85" stroke-linecap="round" d="M1.5 13.5h9v9h-9z"/><path d="M14.513 22l-.013-7.5c0-.287-.28 0 0 0l7.5.02" fill="none" stroke="#fff" stroke-linecap="square" stroke-linejoin="round"/><path fill="none" stroke="#888a85" stroke-linecap="round" d="M13.5 13.5h9v9h-9z"/></svg>