<?xml version="1.0" encoding="UTF-8"?>
<svg width="24" height="24" viewBox="0 0 24 24" xmlns="http://www.w3.org/2000/svg">
 <linearGradient x1="50.5" x2="50.5" y1="17" y2="23" gradientUnits="userSpaceOnUse">
  <stop stop-color="#555753" offset="0"/>
  <stop stop-color="#555753" stop-opacity="0" offset="1"/>
 </linearGradient>
 <g transform="translate(0 -8)">
  <path d="m10.046 9.0869c-2.4758 0.04097-4.6452 1.1027-5.5203 3.6849-0.86834 2.5623 1.0291 7.1876 5.2116 5.1307 6.9467-3.4164 6.9432 0.8463 8.6799 0.8463 2.1422 0 4.3399-1.493 4.3399-3.4028 0-1.7082 0.08467-3.3438-0.87162-4.2844-1.7367-1.7082-2.6123 0.86739-7.2817-1.0402-1.4881-0.60796-3.0724-0.95904-4.5579-0.93445z" fill="#a6cca6" fill-rule="evenodd" stroke="#696b67" stroke-linecap="round" stroke-linejoin="round" stroke-width=".87847"/>
  <path d="m6.6328 13.832c-2.4758 0.04097-4.6452 1.1027-5.5203 3.6849-0.86834 2.5623 1.0291 7.1876 5.2116 5.1307 6.9467-3.4164 6.9432 0.8463 8.6799 0.8463 2.1422 0 4.3399-1.493 4.3399-3.4028 0-1.7082 0.08467-3.3438-0.87162-4.2844-1.7367-1.7082-2.6123 0.86739-7.2817-1.0402-1.4881-0.60796-3.0724-0.95904-4.5579-0.93445z" fill="#72b072" fill-rule="evenodd" stroke="#41433f" stroke-linecap="round" stroke-linejoin="round" stroke-width=".878"/>
  <g transform="translate(-27.5 6)">
   <rect x="40.5" y="15" width="11" height="11" rx="2.0115" fill="#3c5a6e"/>
   <path d="m41.5 21 9-0.009599v-2c0-2.9904-1-2.9904-4.5-2.9904s-4.5 0-4.5 3c0 2 0 2 1e-6 2z" fill="#fcffff" fill-rule="evenodd" opacity=".3"/>
   <path d="m45.5 16v3h-4v3h4v3l5-4z" fill="#fff" fill-rule="evenodd"/>
  </g>
 </g>
</svg>
