<svg xmlns="http://www.w3.org/2000/svg" width="24" height="24"><defs><linearGradient id="b" x1="21.9" x2="24.9" y1="13.6" y2="14.8" gradientTransform="translate(-.17 -.29)" gradientUnits="userSpaceOnUse"><stop stop-color="#fff" offset="0"/><stop stop-color="#959595" offset=".852"/><stop stop-color="#6f6f6f" offset=".918"/><stop stop-color="#4a4a4a" offset="1"/></linearGradient><linearGradient id="a" x1="16.5" x2="12.5" y1="22.5" y2="16.5" gradientUnits="userSpaceOnUse" gradientTransform="translate(0 -8)"><stop stop-color="#8fbeee" offset="0"/><stop stop-color="#dbecff" offset="1" stop-opacity=".973"/></linearGradient></defs><path d="M.5 9.5l4-5h16v10h-16z" fill="url(#a)" fill-rule="evenodd" stroke="#519af0" stroke-linecap="round" stroke-linejoin="round"/><text style="line-height:0%" word-spacing="0" letter-spacing="0" font-weight="700" y="12.293" x="4.187" font-family="FreeSans" fill="#2e3436"><tspan style="line-height:1" font-size="8" y="12.293" x="4.187">ab</tspan></text><path d="M20.5 17.6a1.742 1.742 0 0 1-.593-.167 1.739 1.739 0 0 1-.891-1 1.723 1.723 0 0 1 .078-1.33l5.7-11.8a1.76 1.76 0 0 1 1.74-.981c.206.02.406.076.593.167a1.752 1.752 0 0 1 .814 2.339l-5.7 11.8c-.16.331-.415.6-.74.775-.31.168-.655.239-1 .205z" fill="url(#b)" stroke="#333" stroke-width=".667" transform="matrix(-.61 .437 -.437 -.61 37 10.6)"/><circle stroke-miterlimit="10" r="4.5" cy="20.599" cx="15.841" transform="rotate(-8.916)" fill="#a12727" stroke="#8a0000" stroke-width=".375"/><path d="M23.1 18.7c-.652 2.7-3.19 3.86-5.29 3.35-.681-.164-1.5-.722-1.5-.722s2.78.232 4.57-1.07c1.79-1.3 2.27-2.67 2.27-2.67s.023.797-.052 1.11z" fill="#8d2727"/><circle r="1.5" cy="18.599" cx="15.241" transform="rotate(-8.916)" fill="#de6767"/></svg>