<?xml version="1.0" encoding="UTF-8"?>
<svg width="24" height="24" viewBox="0 0 24 24" xmlns="http://www.w3.org/2000/svg">
 <g transform="translate(0 -8)" stroke-linecap="round">
  <path d="m8.2643 18.035c-4.4682 5.3385 1.4788 7.3055 4.8614 10.386" fill="none" stroke="#383838"/>
  <path d="m8.0273 9.502c-2.8183 0.046637-5.287 1.2539-6.2832 4.1934-0.98847 2.9168 1.1706 8.1833 5.9316 5.8418 1.0302-0.50664 1.9216-0.85962 2.7051-1.0996l1.0078-8.4746c-1.1278-0.30315-2.2675-0.47904-3.3613-0.46094z" fill="#8cbe8c" fill-rule="evenodd" stroke="#555753" stroke-linejoin="round"/>
  <path d="m13.852 10.799 0.53125 7.5352c1.5824 0.66155 2.0724 2.166 3.1738 2.166 2.4386 0 4.9414-1.699 4.9414-3.873 0-1.9445 0.0964-3.8062-0.99219-4.877-1.8941-1.8631-2.8992 0.73661-7.6543-0.95117z" fill="#8cbe8c" fill-rule="evenodd" stroke="#555753" stroke-linejoin="round"/>
  <path d="m9.4867 12.875c2.1566-1.4397 3.9243-1.0382 5.6455-0.41697" fill="none" stroke="#383838" stroke-linejoin="round"/>
  <path d="m9.2588 15.144c2.0829-1.0426 4.1458-0.99667 6.1992-0.42548" fill="none" stroke="#383838" stroke-linejoin="round"/>
  <path d="m9.1711 17.518c2.2448-1.0795 4.4669-0.95751 6.6825-0.48673" fill="none" stroke="#383838" stroke-linejoin="round"/>
 </g>
</svg>
