<?xml version="1.0" encoding="UTF-8"?>
<svg width="48" height="48" viewBox="0 0 48 48" xmlns="http://www.w3.org/2000/svg">
 <g transform="translate(0 -1004.4)">
  <g transform="translate(-4.1338 2.1078)">
   <path d="m25.516 1006.8 8.1177 10.147-8.1177 10.147v-6.7648h-6.7647c-3.6441 3.5268-1.3136 6.7648 2.7059 6.7648v2.7058c-4.6106 0-10.824-1.78-10.824-10.147 0-2.8469 2.3345-6.0883 8.1177-6.0883h6.7647z" fill="#8cbe8c" fill-rule="evenodd" stroke="#639563" stroke-linejoin="round"/>
   <path d="m25.722 1007.1v6.7647h-6.7647c-5.7832 0-8.1177 3.2413-8.1177 6.0882 0 3.9412 1.3867 6.4068 3.3269 7.9274-1.1954-1.5221-1.9739-3.6341-1.9739-6.5745 0-4.1454 1.8815-6.0882 8.1177-6.0882h5.891c0.63504 0 0.87369-0.3905 0.87369-0.8616v-5.5649z" fill="#afd5c1" fill-rule="evenodd"/>
   <path d="m25.516 1006.8 8.1177 10.147-8.1177 10.147v-6.7648h-6.7647c-3.6441 3.5268-1.3136 6.7648 2.7059 6.7648v2.7058c-4.6106 0-10.824-1.78-10.824-10.147 0-2.8469 2.3345-6.0883 8.1177-6.0883h6.7647z" fill="none" stroke="#639563" stroke-linejoin="round"/>
  </g>
  <g transform="translate(-4.8897 1.3896)">
   <path d="m33.507 1022.5-8.1177 10.147 8.1177 10.147v-6.7647h6.7647c3.6441 3.5267 1.3136 6.7647-2.7059 6.7647v2.7058c4.6106 0 10.824-1.78 10.824-10.147 0-2.8469-2.3345-6.0882-8.1177-6.0882h-6.7647z" fill="#e37e39" fill-rule="evenodd"/>
   <path d="m25.553 1032.6 7.2773 9.9145v-3.0441l-6.7647-8.4559zm8.6303 1.7968v1.353h5.4118c1.8262 1.7673 2.1494 3.4603 1.5141 4.7115 1.978-1.1372 2.4662-3.5217-0.16119-6.0645zm11.555 7.2509c-2.1789 1.708-5.0575 2.2197-7.4967 2.2197v-1.4904c-0.42324 0.087-0.87466 0.1375-1.3529 0.1375v2.7059c2.9901 0 6.6434-0.7642 8.8496-3.5727z" fill="#f2c990" fill-rule="evenodd"/>
   <path d="m33.507 1022.5-8.1177 10.147 8.1177 10.147v-6.7647h6.7647c3.6441 3.5267 1.3136 6.7647-2.7059 6.7647v2.7058c4.6106 0 10.824-1.78 10.824-10.147 0-2.8469-2.3345-6.0882-8.1177-6.0882h-6.7647z" fill="none" stroke="#d06935" stroke-linejoin="round"/>
  </g>
 </g>
</svg>
