<svg height="24" width="24" xmlns="http://www.w3.org/2000/svg" xmlns:xlink="http://www.w3.org/1999/xlink"><linearGradient id="a"><stop offset="0" stop-color="#6e97c4"/><stop offset="1" stop-color="#aec7e2"/></linearGradient><linearGradient id="b" gradientUnits="userSpaceOnUse" x1="7.373" x2="7.449" xlink:href="#a" y1="10" y2="15"/><linearGradient id="c" gradientUnits="userSpaceOnUse" x1="1.729" x2="7" xlink:href="#a" y1="15.458" y2="15.458"/><linearGradient id="d" gradientUnits="userSpaceOnUse" x1="18" x2="16" xlink:href="#a" y1="14.322" y2="13"/><linearGradient id="e" gradientUnits="userSpaceOnUse" x1="18" x2="15.288" y1="14.322" y2="12"><stop offset="0" stop-color="#6e97c4"/><stop offset="1" stop-color="#e7eff5"/></linearGradient><linearGradient id="f" gradientUnits="userSpaceOnUse" x1="4.53" x2="4.458" y1="22.364" y2="25.133"><stop offset="0" stop-color="#aec7e2"/><stop offset="1" stop-color="#6e97c4"/></linearGradient><linearGradient id="g" gradientUnits="userSpaceOnUse" x1="4.53" x2="4.458" y1="22.364" y2="25.133"><stop offset="0" stop-color="#e7eff5"/><stop offset="1" stop-color="#6e97c4"/></linearGradient><path d="m2 22v3.569h5v-3.569z" fill="url(#f)" transform="translate(0 -8)"/><path d="m8 22v3.569h5v-3.569z" fill="url(#f)" transform="translate(0 -8)"/><path d="m22 21v-11l-8 11z" fill="url(#e)" transform="translate(0 -8)"/><path d="m14 10v11l8-11z" fill="url(#d)" transform="translate(0 -8)"/><path d="m13 21-5.479-5.46-5.521 5.46z" fill="url(#c)" transform="translate(0 -8)"/><path d="m1.727 21 5.461-5.479-5.46-5.521z" fill="url(#c)" transform="translate(0 -8)"/><path d="m2 10 5.479 5.46 5.521-5.46z" fill="url(#b)" transform="translate(0 -8)"/><g transform="matrix(.6923 0 0 .6923 1.846 1.846)"><rect fill="#5a8c5a" height="13" rx="2.615" width="13" x="19" y="19"/><g fill-rule="evenodd"><path d="m21.6 25.5h7.8m-3.9 3.9v-7.8" fill="#fff" stroke="#fff" stroke-linecap="round" stroke-linejoin="round" stroke-width="2.6"/><path d="m20.3 25.5h10.4v-2.6c0-2.6-.65-2.6-5.2-2.6s-5.2 0-5.2 2.6z" fill="#fcffff" opacity=".3"/></g></g><path d="m13 2-11 11m0-11 11 11m-11.5-11.5h12v12h-12z" fill="none" stroke="#253e5b" stroke-linecap="round"/><path d="m13.46 2-5.462 5.479 5.462 5.521z" fill="#aec7e2"/><path d="m13.5 1.5h9v12h-9zm-12 12h12v9h-12zm20.5-11.5-8 11m-6.5 1v8" fill="none" stroke="#253e5b" stroke-linecap="round"/><path d="m2 26.431v3.569h5v-3.569z" fill="url(#g)" transform="translate(0 -8)"/><path d="m13 18h-11" fill="none" stroke="#253e5b" stroke-linecap="round"/><path d="m8 26.431v3.569h5v-3.569z" fill="url(#g)" transform="translate(0 -8)"/></svg>