<svg height="24" viewBox="0 0 24 24" width="24" xmlns="http://www.w3.org/2000/svg"><path d="M 4.5166046,3.2669443 C 0.27071724,23.290128 7.2377188,11.645595 21.516604,20.266943" fill="none" stroke="#8cbe8c" stroke-width="1.4" stroke-dasharray="2.8,1.4"/><path d="m 2.5,5.5 h 3 v -3 h -3 z" fill="#bebebe" stroke="#8c8c8c"/><g stroke-linecap="round" stroke-width=".355"><path d="m 19.461512,9.2175166 -2.259422,1.3635194 2.663548,1.925751 z" fill="#505050" stroke="#505050" transform="matrix(1.2651778,0,0,1.2651778,-4.343335,2.9656137)"/><path d="M 15.362026,1.9819405 12.900159,3.4032995 16.927342,10.37859 19.38921,8.9572295 Z" fill="#fce94f" stroke="#8b7617" transform="matrix(1.2651778,0,0,1.2651778,-4.343335,2.9656137)"/><path d="m 13.957675,3.3398245 3.79029,6.564978" fill="#fce94f" opacity=".5" stroke="#8b7617" transform="matrix(1.2651778,0,0,1.2651778,-4.343335,2.9656137)"/></g><path d="M 19.369733,12.033342 17.379211,10.47792 18.198585,10.004853 Z" fill="#969696" stroke="#969696" stroke-linecap="square" stroke-width=".237" transform="matrix(1.2651778,0,0,1.2651778,-4.343335,2.9656137)"/><path d="m 14.983453,2.7475915 3.790289,6.564978" fill="#fce94f" opacity=".5" stroke="#8b7617" stroke-linecap="round" stroke-width=".355" transform="matrix(1.2651778,0,0,1.2651778,-4.343335,2.9656137)"/><path d="m 15.192412,1.4694895 -2.651241,1.530695 0.516222,0.894122 2.65124,-1.530695 z" fill="#e6e6e6" stroke="#969696" stroke-linecap="round" stroke-width=".237" transform="matrix(1.2651778,0,0,1.2651778,-4.343335,2.9656137)"/><path d="M 19.70856,11.92433 19.319283,9.3578195 18.499909,9.8308845 Z" fill="#e6e6e6" stroke="#e6e6e6" stroke-linecap="square" stroke-width=".237" transform="matrix(1.2651778,0,0,1.2651778,-4.343335,2.9656137)"/></svg>