<svg height="32" width="32" xmlns="http://www.w3.org/2000/svg" xmlns:xlink="http://www.w3.org/1999/xlink">
<linearGradient id="a" gradientUnits="userSpaceOnUse" x1="33.051174" x2="4.6237812" y1="35.070534" y2="4.7282839">
<stop offset="0" stop-color="#6e97c4"/>
<stop offset="1" stop-color="#ecedef"/>
</linearGradient>
<g>
<path d="m4.2228977 2.2500001l23.5542053 0c1.097272 0 1.972898.8809181 1.972898 1.9848207l0 23.4972802c0 1.103903-.875626 2.0179-1.972898 2.0179l-23.5542053 0c-1.0972719 0-1.9728976-.913997-1.9728976-2.0179l0-23.4972802c0-1.1039026.8756257-1.9848207 1.9728976-1.9848207z" fill="url(#a)" overflow="visible" stroke="#2e4e72" stroke-width=".5"/>
<path d="m3.5 3.5l8 19.999993 9-19.999993 8 0" style="overflow:visible;fill:none;stroke:#415a75;stroke-width:1.5;stroke-linecap:round;stroke-linejoin:round"/>
<ellipse cx="11.5" cy="23.5" rx="2.5" ry="2.5000002" style="overflow:visible;fill:#eeeeec;fill-rule:evenodd;stroke:#415a75;stroke-width:1.99999988;stroke-linecap:round;stroke-linejoin:round"/>
<path d="m6.0636289 2.2912548l-.4793152 2.7126667-1.427451 1.0352942-1.7811408.2777585.054671-2.5551509.6079887-1.0837978 1.1276699-.2855026z" fill="#eeeeec" fill-rule="evenodd"/>
<path d="m4.0898438 2.0605469c-.0477156 0-.0918493.0103889-.1386719.0136719.6119863.1885047 1.0488281.744493 1.0488281 1.4257812 0 .840272-.6597283 1.5-1.5 1.5-.6302038 0-1.1578762-.3720711-1.3828125-.9121094l0 2.6210938c.4253103.1852753.892288.2910156 1.3828125.2910156 1.921152 0 3.5-1.578848 3.5-3.5 0-.5134876-.1202934-.9984843-.3222656-1.4394531l-2.5878906 0z" fill="#415a75" fill-rule="evenodd" overflow="visible"/>
<path d="m18.200809 2.2904666l.221837 2.3887728 2.628334 1.34429 1.945098-.5019608.695579-3.2935206z" fill="#eeeeec" fill-rule="evenodd"/>
<path d="m17.24218 2.25c-.15144.3899814-.24218.8089832-.24218 1.25 0 1.921152 1.57885 3.5 3.5 3.5 1.92115 0 3.5-1.578848 3.5-3.5 0-.4410168-.0927-.8600186-.24415-1.25l-2.41992 0c .40253.2664644.66407.7216687.66407 1.25 0 .840272-.65973 1.5-1.5 1.5-.84028 0-1.5-.659728-1.5-1.5 0-.5283499.26151-.9835396.66406-1.25l-2.42188 0z" fill="#415a75" fill-rule="evenodd" overflow="visible"/>
<path d="m26.61311 2.3091707l.493428 2.7218555 2.6024 1.0758555-.0479-2.658896-.60087-.7227626-.959688-.3721467z" fill="#eeeeec" fill-rule="evenodd"/>
<path d="m26.24414 2.25c-.151373.3899031-.24414.8090898-.24414 1.25 0 1.9211521 1.578848 3.5 3.5 3.5.08537 0 .166086-.019263.25-.025391l0-2c-.08137.013196-.16437.025391-.25.025391-.840272 0-1.5-.659728-1.5-1.5 0-.4471521.190749-.8405958.492187-1.1132812-.221692-.085848-.461459-.1367188-.714843-.1367188l-1.533204 0z" fill="#415a75" fill-rule="evenodd" overflow="visible"/>
<path d="m4.2228977 2.25l23.5542053 0c1.097273 0 1.972898.880918 1.972898 1.9848207l0 23.4972793c0 1.103902-.875625 2.0179-1.972898 2.0179l-23.5542053 0c-1.0972719 0-1.9728976-.913998-1.9728976-2.0179l0-23.4972793c0-1.1039027.8756257-1.9848207 1.9728976-1.9848207z" fill="none" overflow="visible" stroke="#2e4e72" stroke-width=".5"/>
<g>
<rect fill="#5a8c5a" height="13" rx="2.6149371" ry="2.6149368" width="13" x="19" y="19"/>
<path d="m21.6 25.499999l7.8 0" style="fill:#fff;fill-rule:evenodd;stroke:#fff;stroke-width:2.5999999;stroke-linecap:round;stroke-linejoin:round;overflow:visible"/>
<path d="m25.5 29.399999l0-7.799999" style="fill:#fff;fill-rule:evenodd;stroke:#fff;stroke-width:2.5999999;stroke-linecap:round;stroke-linejoin:round;overflow:visible"/>
<path d="m20.3 25.499999h10.4c0 0 0 0 0-2.6 0-2.599999-.65-2.599999-5.2-2.599999-4.55 0-5.2 0-5.2 2.599999 0 2.6 0 2.6 0 2.6z" fill="#fcffff" fill-rule="evenodd" opacity=".3"/>
</g>
</g>
</svg>
