<?xml version="1.0" encoding="UTF-8" standalone="no"?>
<svg
   height="24"
   width="24"
   version="1.1"
   id="svg6"
   sodipodi:docname="mActionNewMapDataViewer.svg"
   inkscape:version="1.4.2 (ebf0e940d0, 2025-05-08)"
   xmlns:inkscape="http://www.inkscape.org/namespaces/inkscape"
   xmlns:sodipodi="http://sodipodi.sourceforge.net/DTD/sodipodi-0.dtd"
   xmlns="http://www.w3.org/2000/svg"
   xmlns:svg="http://www.w3.org/2000/svg">
  <defs
     id="defs6" />
  <sodipodi:namedview
     id="namedview6"
     pagecolor="#ffffff"
     bordercolor="#000000"
     borderopacity="0.25"
     inkscape:showpageshadow="2"
     inkscape:pageopacity="0.0"
     inkscape:pagecheckerboard="0"
     inkscape:deskcolor="#d1d1d1"
     inkscape:zoom="16.770833"
     inkscape:cx="9.510559"
     inkscape:cy="18.275776"
     inkscape:window-width="1920"
     inkscape:window-height="1014"
     inkscape:window-x="0"
     inkscape:window-y="0"
     inkscape:window-maximized="1"
     inkscape:current-layer="svg6" />
  <linearGradient
     id="a"
     gradientUnits="userSpaceOnUse"
     x1="3.5"
     x2="11.5"
     y1="11.5"
     y2="11.5"
     gradientTransform="matrix(0.69136927,0,0,0.66114933,-0.40022286,0.25787328)">
    <stop
       offset="0"
       stop-color="#b7b7b7"
       id="stop1" />
    <stop
       offset="1"
       stop-color="#e6e6e6"
       id="stop2" />
  </linearGradient>
  <path
     d="M 14.464217,14.472584 H 2.7109388 c -0.6913692,0 -1.3674012,-0.939246 -1.3827385,-1.652874 V 1.9107466 H 14.464217 Z"
     fill="url(#a)"
     fill-rule="evenodd"
     stroke="#9a9a9a"
     id="path2"
     style="fill:url(#a);stroke-width:0.67609" />
  <path
     d="m 4.0936774,1.5801717 c -0.6913693,-0.66114902 -2.0741078,-0.66114902 -2.7654771,0 V 12.158561 c 0.6913693,-0.661149 2.0741078,-0.661149 2.7654771,0 z"
     fill="#e6e6e6"
     fill-rule="evenodd"
     stroke="#9a9a9a"
     id="path3"
     style="stroke-width:0.67609" />
  <g
     transform="matrix(0.69136927,0,0,0.66114933,22.414963,0.25787328)"
     id="g6"
     style="display:inline">
    <rect
       fill="#c4a000"
       height="11"
       rx="2.0114901"
       width="11"
       x="-20"
       y="13"
       id="rect3"
       style="display:inline" />
    <g
       fill="#fcffff"
       id="g5">
      <path
         d="m -15,14 v 2.0625 c -0.537663,0.111041 -1.024662,0.383291 -1.375,0.78125 l -1.78125,-1.03125 -0.5,0.875 1.78125,1.03125 C -16.957063,17.966182 -17,18.225145 -17,18.5 c 0,0.274855 0.04294,0.533818 0.125,0.78125 l -1.78125,1.03125 0.5,0.875 1.78125,-1.03125 c 0.352503,0.40042 0.832682,0.670182 1.375,0.78125 V 23 h 1 v -2.0625 c 0.537663,-0.111041 1.024662,-0.383291 1.375,-0.78125 l 1.78125,1.03125 0.5,-0.875 -1.78125,-1.03125 C -12.042937,19.033818 -12,18.774855 -12,18.5 c 0,-0.274855 -0.04294,-0.533818 -0.125,-0.78125 l 1.78125,-1.03125 -0.5,-0.875 -1.78125,1.03125 C -12.977503,16.44333 -13.457682,16.173568 -14,16.0625 V 14 Z m 0.5,3.5 c 0.552,0 1,0.448 1,1 0,0.552 -0.448,1 -1,1 -0.552,0 -1,-0.448 -1,-1 0,-0.552 0.448,-1 1,-1 z"
         id="path4"
         style="display:none" />
      <path
         d="m -19,19 9,-0.0096 c 0,0 0,0 0,-2 C -10,14 -11,14 -14.5,14 -18,14 -19,14 -19,17 Z"
         fill-rule="evenodd"
         opacity="0.3"
         id="path5" />
    </g>
  </g>
  <path
     d="m 10.606866,11.056336 2.93423,2.805974 m -2.194805,0.693077 2.797791,-0.123463 0.128371,-2.6762"
     fill="none"
     stroke="#333333"
     stroke-linecap="round"
     id="path2-3-3-1"
     style="display:inline;stroke:#ffffff;stroke-width:1.01449;stroke-opacity:1" />
</svg>
