<svg height="24" width="24" xmlns="http://www.w3.org/2000/svg">
<path d="m9.3797641.75499793c-.982122 0-1.8925021.62609527-1.8925021 1.49615247-.0000027.00101-.0000027.00202 0 .00303l.0582614 8.1966126-.9338533-2.0915926c-.0251985-.0571285-.0597716-.11122-.1023871-.16019-.3676306-.417893-.8495781-.7054664-1.3558261-.7768027-.5063017-.0713838-.9215368.0295376-1.3222488.1148398-.6076399.1293725-.9562193.5700338-1.0945572.9853708-.1314355.394696-.114703.820638.061796 1.2331811h-.00177l2.0284108 6.0814056c.01635.04943.039516.09723.068864.14206l3.4071564 5.182189.8226844 2.369697c.094212.270356.4118979.471091.7414497.468494l7.8153118-.05439c.346661-.0029.672884-.232329.743219-.522935l2.127319-8.753353c.0027-.01052.0051-.02109.0071-.03171.105254-.57349.06782-1.537511.04235-2.531403-.01276-.496946-.029-.978127-.04059-1.351097-.01166-.372921-.0087-.72369-.01414-.654387.0012-.01508.0018-.03019.0018-.0453v-2.933438c.000163-.047717-.0058-.095447-.01768-.1420631-.092603-.3569701-.222213-.6929683-.519046-.9868387-.275902-.2731347-.762435-.4452061-1.219864-.4231944v-.00601c-.02104 0-.04092.00535-.0618.00601-.01403.00129-.02844-.00161-.04235 0v .00455c-.319316.017561-.619681.1108161-.866813.256946v-.1934672c0-.8705782-.911708-1.4961849-1.894267-1.4961849h-.0053c-.560586 0-1.091519.2088514-1.449377.5456083v-.8810871c0-.8691577-.911321-1.4946719-1.892446-1.4946719-.487525 0-.957875.1537523-1.308166.4156202v-.4754938c0-.8686375-.908617-1.49615727-1.8907353-1.49615727z" fill="#ccc" stroke-width="1.14897895"/>
<path d="m9.7362401.34032241c-.9821192 0-1.8925026.62609028-1.8925026 1.49614789-.0000027.00101-.0000027.00202 0 .00303l.0582638 8.091862-.9339086-2.0915934c-.0251988-.0571275-.0597719-.111218-.1023871-.1601873-.3675777-.4178937-.8495256-.7054681-1.355827-.7768045-.5062455-.0713838-.9215377.0295385-1.3222488.1148407-.6075849.1293714-.9562192.5700329-1.0945027.9853708-.1314906.3946961-.1147024.8206367.0617414 1.2331791h-.00171l2.02841 6.0814083c.016334.04944.039481.09723.068811.142057l3.4072099 5.182189.8226855 2.369699c.094211.270357.4118967.471092.7414491.468497l7.815316-.05439c.346662-.0029.672882-.232329.743217-.522935l2.127266-8.753304c.0027-.01054.005-.02112.0071-.03177.105314-.57344.06787-1.537511.04242-2.531401-.01276-.496944-.029-.978127-.04064-1.351096-.01159-.3729232-.0086-.7236913-.01414-.6543431.0012-.015094.0018-.03023.0018-.045354v-2.9333886c.000175-.047714-.0058-.095444-.01765-.1420597-.09261-.3570071-.222215-.693006-.519106-.9868753-.275904-.273137-.762436-.4452072-1.219864-.423147v-.00607c-.02099 0-.04087.00534-.0618.00607-.01403.00124-.02839-.00166-.04236 0v .00449c-.319254.017566-.61962.1108193-.866807.2569483v-.1934654c0-.8705792-.911656-1.4961397-1.894215-1.4961397h-.0053c-.56059 0-1.091575.2088052-1.449377.545561v-.8810851c0-.8691588-.911377-1.4946719-1.892503-1.4946719-.487472 0-.957874.1537505-1.308111.4156202v-.3707439c0-.86863692-.90867-1.49615338-1.8907349-1.49615338z" fill="#999" stroke-width="1.14897895"/>
<path d="m10.291029.06303052c-.960084 0-1.8500346.61286024-1.8500346 1.46449338-.0000027.0009965-.0000027.00199 0 .00299l.0569371 7.9963521-.9129231-2.0473325c-.0246403-.0559304-.0584487-.1088866-.1001219-.1568272-.3593471-.4090401-.830471-.6905081-1.3253975-.7603303-.4949252-.0698686-.9008822.0289246-1.2925935.1124254-.5939995.126628-.9347919.5579643-1.0699824.9644949-.1285082.3863195-.1121064.8032633.0604158 1.2070975h-.00176l1.9829592 5.9526482c.015968.04838.038596.09516.067265.139031l3.3307772 5.07251.8041867 2.319522c.09211.264626.40267.461099.724825.458552l7.640031-.05326c.338866-.0028.657758-.227376.726541-.511808l2.079606-8.568028c.0026-.01032.0049-.02069.0069-.0311.102885-.561323.06632-1.504945.04142-2.47777-.01248-.486435-.02833-.957442-.03971-1.3225051-.01138-.3650653-.0083-.7084011-.0138-.6405203.0011-.014778.0018-.029589.0018-.044401v-2.8712826c.000159-.046695-.0057-.093404-.01728-.1390223-.090559-.3494454-.217244-.6783447-.507454-.966011-.26972-.2673614-.745316-.4357397-1.192525-.4142017v-.00591c-.02049 0-.03998.00525-.06037.00591-.01375.00124-.02782-.00161-.04142 0v .00445c-.312129.017184-.60576.1084513-.847371.2514559v-.1893483c0-.8521168-.891217-1.4644708-1.851746-1.4644708h-.0052c-.548052 0-1.067054.2044019-1.41685.5340109v-.8624354c0-.850744-.890942-1.4630026-1.850033-1.4630026-.476591 0-.936393.1505313-1.278842.4068156v-.438697c0-.85024612-.888238-1.46449341-1.848268-1.46449341l0 0z" stroke="#000" stroke-width=".03530137"/>
<path d="m10.290257.80959703c-.6092983 0-1.1004663.36643757-1.1004663.82210417l.06555 9.3816458c-.0171747.388827-.6921882.457749-.8194258.173302l-1.5494454-3.4774835c-.5773206-.6572292-1.070203-.5749111-1.8378279-.4112659-.5216001.1112418-.7375848.8098446-.4726154 1.372541l1.9816346 5.9526974 3.3723074 5.13613.8292568 2.387969 7.639094-.0533 2.080598-8.56883c.137012-.747173-.04247-4.0967016-.01938-4.3864068v-2.8705721c-.152148-.5875495-.437495-.9467901-.969091-.8838806-.6104 0-.923911.4282129-.923911.8838795v2.8411758c.106528.3851373-.813685.4854894-.774364-.00194v-4.2914437c0-.4556679-.491777-.8227677-1.102179-.8227677h-.0052c-.610401 0-1.101295.3670998-1.101295.8227677v3.4464279c.111221.4166163-1.09003.53846-1.063467-.00194v-5.2372416c0-.4556676-.491779-.8221511-1.102179-.8221511-.610456 0-1.102232.3664835-1.102232.8221511v5.5051713c.04827.3819148-.901381.4781515-.925792-.00129v-6.8953548c0-.4556666-.490286-.82210383-1.09958-.82210383l0 0 0 0 0 0 0 0z" fill="#fff" stroke="#000" stroke-width=".01642426"/>
</svg>
