<svg xmlns="http://www.w3.org/2000/svg" width="16" height="16"><path d="M1.5 2.501V13.75s.019.75.75.75h11.5s.749 0 .749-.75L14.5 4.5H9.2l-2-2H1.5z" fill="#eee" stroke="#888a85"/><g transform="matrix(.54545 0 0 .54545 19.91 1.91)"><rect y="13" x="-20" width="11" rx="2.011" height="11" fill="#c4a000"/><path d="M-15 14v2.063a2.501 2.501 0 0 0-1.375.78l-1.781-1.03-.5.874 1.781 1.032A2.46 2.46 0 0 0-17 18.5c0 .275.043.534.125.781l-1.781 1.032.5.875 1.781-1.032c.353.4.833.67 1.375.782V23h1v-2.063a2.501 2.501 0 0 0 1.375-.78l1.781 1.03.5-.875-1.781-1.03A2.46 2.46 0 0 0-12 18.5a2.46 2.46 0 0 0-.125-.781l1.781-1.032-.5-.875-1.781 1.032A2.49 2.49 0 0 0-14 16.062V14zm.5 3.5a1 1 0 1 1 0 2 1 1 0 0 1 0-2z" fill="#fcffff"/><path d="M-19 19l9-.01v-2C-10 14-11 14-14.5 14s-4.5 0-4.5 3z" opacity=".3" fill="#fcffff" fill-rule="evenodd"/></g></svg>