<svg height="24" width="24" xmlns="http://www.w3.org/2000/svg"><circle cx="12" cy="12" fill="#6d97c4" r="9.5" stroke="#445e75" stroke-miterlimit="10"/><g fill="#fff"><path d="m4.3057227 13.721911c.2424856-2.788914.7870842-4.46213 2.5189339-6.1939793 1.8703187-1.87032 3.6025004-2.7382322 6.8753914-3.4829155 1.607958-.365715-1.177314-1.5781419-5.0315735-.1361492-2.070403.7744965-4.1719438 2.7958718-4.9093385 5.741475-.8934195 3.566391.4356126 5.348593.5465867 4.071569z" opacity=".3" stroke-width=".658328"/><path d="m14.277442 15.998692-.235198-.234536c-.214326-.213996-.624764-.171594-.794371.08216-.106336.159338-.597933.668161-.907665.907334.03843-.158677.111968-.401161.250436-.794703l1.242242-3.526642c.291842-.835117.468076-1.339301.468076-1.769282 0-.680417-.501534-1.120336-1.277024-1.120336-1.958766 0-3.4918577 1.768951-4.0593134 2.528871-.00728.0096-.013913.01889-.019877.02716-.097722.110973-.1364805.259048-.1060038.410768.02352.117267.087785.230891.186171.329277l.1762324.175901c.1053415.105342.2421536.163313.3855913.163313.1069983 0 .2673302-.03346.4250115-.192796l.02916-.03411c.20439-.272299.586338-.684062.865593-.937478-.04804.162982-.115942.363065-.195778.593295l-.8636069 2.517278c-.6151585 1.778558-.8453869 2.444069-.8453869 2.814754 0 .484639.3097321 1.002074 1.1789698 1.002074 2.70146 0 4.033142-2.006798 4.17923-2.240341.148739-.249111.120249-.497891-.08249-.701949z" stroke="#34497d" stroke-miterlimit="10" stroke-width=".5"/><path d="m13.180294 5.5009239c-.868575 0-1.630152.7523016-1.630152 1.6102767 0 .9782234.655241 1.6102749 1.669242 1.6102749.99545 0 1.767295-.918264 1.767295-1.7083301.000331-.6973112-.472715-1.5122215-1.806385-1.5122215z" stroke="#34497d" stroke-miterlimit="10" stroke-width=".5"/></g></svg>