<svg height="48" width="48" xmlns="http://www.w3.org/2000/svg"><circle cx="17.20898504" cy="17.70901504" fill="#6d97c4" r="16.422656013" stroke="#445e75" stroke-miterlimit="10" stroke-width=".57265697"/><g fill="#fff"><path d="m3.9078817 20.685686c.419185-4.821199 1.360633-7.713689 4.354483-10.7075388 3.2332213-3.233222 6.2276453-4.733583 11.8854963-6.020917 2.779677-.632213-2.035223-2.7281361-8.698087-.235362-3.5791073 1.338872-7.2120423 4.833225-8.4867773 9.9252918-1.5444549 6.165223.753044 9.246119.944885 7.038526z" opacity=".3"/><path d="m21.146001 24.621557-.406586-.405442c-.370508-.369935-1.080031-.296635-1.373231.14202-.183823.275448-1.033646 1.155049-1.56908 1.568507.06643-.274303.193557-.693487.432928-1.373803l2.147463-6.096507c.504511-1.443668.809166-2.315252.809166-3.05856 0-1.176238-.867003-1.936727-2.207594-1.936727-3.38612 0-6.036377 3.057988-7.017338 4.371664-.0126.0166-.02405.03265-.03436.04696-.168933.191839-.235934.447817-.183249.710094.04066.20272.151754.399142.321834.569222l.304653.304081c.182104.182104.418611.282319.666572.282319.184968 0 .462134-.05785.734718-.333286l.05041-.05898c.35333-.470723 1.013603-1.182536 1.496353-1.620619-.08304.281747-.200431.627632-.338441 1.025629l-1.492915 4.351621c-1.063425 3.074594-1.461421 4.225062-1.461421 4.865866 0 .837796.535434 1.732286 2.038086 1.732286 4.670018 0 6.972098-3.469155 7.224639-3.872879.257124-.430638.207876-.860703-.142592-1.21346z" stroke="#34497d" stroke-miterlimit="10" stroke-width=".572657"/><path d="m19.249362 6.4740582c-1.501507 0-2.818045 1.300504-2.818045 2.783686 0 1.6910558 1.132715 2.7836848 2.885619 2.7836848 1.720834 0 3.055124-1.587405 3.055124-2.9531918.000572-1.205443-.817182-2.614179-3.122698-2.614179z" stroke="#34497d" stroke-miterlimit="10" stroke-width=".572657"/><path d="m45.323671 32.905232-22.310674-12.209237 9.580075 23.794352 3.814307-6.17746 7.541837 8.245634 2.856281-2.783856-7.710506-8.166641 6.228682-2.702792z" fill-rule="evenodd" stroke="#000" stroke-linecap="round" stroke-linejoin="round" stroke-width="1.2"/></g></svg>