<svg height="24" width="24" xmlns="http://www.w3.org/2000/svg" xmlns:xlink="http://www.w3.org/1999/xlink"><linearGradient id="a" gradientTransform="matrix(1 0 0 1.00003 0 -8)" gradientUnits="userSpaceOnUse" x1="3.5" x2="11.5" y1="19.5" y2="19.5"><stop offset="0" stop-color="#b7b7b7"/><stop offset="1" stop-color="#e6e6e6"/></linearGradient><path d="m21.5 21.5h-17c-1 0-1.978-1.42-2-2.5v-16.5h19z" fill="url(#a)" fill-rule="evenodd" stroke="#9a9a9a"/><path d="m29.228 15.13c.633.624 1.828 1.29 2.456 1.29h10.737m3.579-13.42-3.579 3.574h-9.841m9.841 0v9.846l3.58 3.58" fill="none" stroke="#373737" stroke-width=".895" transform="matrix(1.11762 0 0 1.11721 -29.91 -.844)"/><path d="m21.5 21.5h-17c-1 0-1.978-1.42-2-2.5v-16.5h19z" fill="none" stroke="#9a9a9a"/><path d="m6.5 2c-1-1-3-1-4 0v16c1-1 3-1 4 0z" fill="#e6e6e6" fill-rule="evenodd" stroke="#9a9a9a"/><path d="m17.5 10.5-6.5 6-6.5-6h5v-5c-1.5-4.749-9-.97-9 2 0-3.408 2.324-7 6.5-7 2.104 0 5.5 1.882 5.5 5v5z" fill="#e37e39" fill-rule="evenodd"/><path d="m9.5 1031.862-6 6.5 6 6.5v-5h5c5.235 1.5.97 9-2 9 3.408 0 7-3.074 7-6.5 0-2.104-2.276-5.5-5-5.5h-5z" fill="none" stroke="#d06935" stroke-linejoin="round" transform="matrix(0 -1 -1 0 1049.367 20)"/></svg>