<?xml version="1.0" encoding="UTF-8"?>
<svg id="svg14115" width="24" height="24" version="1.1" xmlns="http://www.w3.org/2000/svg" xmlns:cc="http://creativecommons.org/ns#" xmlns:dc="http://purl.org/dc/elements/1.1/" xmlns:rdf="http://www.w3.org/1999/02/22-rdf-syntax-ns#" xmlns:xlink="http://www.w3.org/1999/xlink">
 <metadata id="metadata14121">
  <rdf:RDF>
   <cc:Work rdf:about="">
    <dc:format>image/svg+xml</dc:format>
    <dc:type rdf:resource="http://purl.org/dc/dcmitype/StillImage"/>
    <dc:title/>
   </cc:Work>
  </rdf:RDF>
 </metadata>
 <defs id="defs14119">
  <linearGradient id="linearGradient1110" x1=".41562" x2="23.584" y1="10.903" y2="10.903" gradientUnits="userSpaceOnUse">
   <stop id="stop1104" stop-color="#9e9e9e" stop-opacity=".56849" offset="0"/>
   <stop id="stop1112" stop-color="#9e9e9e" offset=".5"/>
   <stop id="stop1106" stop-color="#9e9e9e" stop-opacity=".57192" offset="1"/>
  </linearGradient>
 </defs>
 <path id="path1524-6-5-67-9-3" d="m14.893 19.974v4.0264h2v-4.0264z" color="#000000" color-rendering="auto" dominant-baseline="auto" fill="#498049" image-rendering="auto" shape-rendering="auto" solid-color="#000000" style="font-feature-settings:normal;font-variant-alternates:normal;font-variant-caps:normal;font-variant-ligatures:normal;font-variant-numeric:normal;font-variant-position:normal;isolation:auto;mix-blend-mode:normal;shape-padding:0;text-decoration-color:#000000;text-decoration-line:none;text-decoration-style:solid;text-indent:0;text-orientation:mixed;text-transform:none;white-space:normal"/>
 <path id="path981" d="m1.4299 10.903h21.14" fill="none" stroke="url(#linearGradient1110)" stroke-linecap="round" stroke-width="2"/>
 <path id="path1524-9-1-9-5-7-6" d="m9.334-0.029459v10.701h2v-10.701z" color="#000000" color-rendering="auto" dominant-baseline="auto" fill="#498049" image-rendering="auto" shape-rendering="auto" solid-color="#000000" style="font-feature-settings:normal;font-variant-alternates:normal;font-variant-caps:normal;font-variant-ligatures:normal;font-variant-numeric:normal;font-variant-position:normal;isolation:auto;mix-blend-mode:normal;shape-padding:0;text-decoration-color:#000000;text-decoration-line:none;text-decoration-style:solid;text-indent:0;text-orientation:mixed;text-transform:none;white-space:normal"/>
 <path id="path1524-9-3-8-2-3-3-1" d="m10.333 19.624v-8.0393" fill="#ffe6d5" stroke="#ffcba8" stroke-width="2"/>
 <path id="path1524-62-9-2-5-6-0" d="m15.893 20v-9.577" fill="#8cbe8c" stroke="#cee3ce" stroke-width="2"/>
 <path id="path1524-62-9-2-5-6-0-6" d="m15.608 10.424v9.5762h0.56932v-9.5762z" color="#000000" color-rendering="auto" dominant-baseline="auto" fill="#5ba15b" image-rendering="auto" shape-rendering="auto" solid-color="#000000" style="font-feature-settings:normal;font-variant-alternates:normal;font-variant-caps:normal;font-variant-ligatures:normal;font-variant-numeric:normal;font-variant-position:normal;isolation:auto;mix-blend-mode:normal;shape-padding:0;text-decoration-color:#000000;text-decoration-line:none;text-decoration-style:solid;text-indent:0;text-orientation:mixed;text-transform:none;white-space:normal"/>
 <path id="path1524-9-3-8-2-3-3-1-3" d="m10.1 11.584v8.0402h0.46713v-8.0402z" color="#000000" color-rendering="auto" dominant-baseline="auto" fill="#e80000" image-rendering="auto" shape-rendering="auto" solid-color="#000000" style="font-feature-settings:normal;font-variant-alternates:normal;font-variant-caps:normal;font-variant-ligatures:normal;font-variant-numeric:normal;font-variant-position:normal;isolation:auto;mix-blend-mode:normal;shape-padding:0;text-decoration-color:#000000;text-decoration-line:none;text-decoration-style:solid;text-indent:0;text-orientation:mixed;text-transform:none;white-space:normal"/>
 <rect id="rect919-6-5-6-7-4-7" x="8.928" y="9.5409" width="2.8104" height="2.8104" fill="#fff" opacity=".997" stroke="#7e7e7e" stroke-linecap="round" stroke-linejoin="round" stroke-width="1.1896" style="paint-order:stroke fill markers"/>
 <rect id="rect919-6-5-6-7-4-5-6" x="14.488" y="9.5409" width="2.8104" height="2.8104" fill="#fff" opacity=".997" stroke="#7e7e7e" stroke-linecap="round" stroke-linejoin="round" stroke-width="1.1896" style="paint-order:stroke fill markers"/>
 <rect id="rect919-6-5-6-7-4-5-6-2" x="14.778" y="19.052" width="2.2462" height="2.2462" fill="#fff" opacity=".536" stroke="#7e7e7e" stroke-linecap="round" stroke-linejoin="round" stroke-width=".95077" style="paint-order:stroke fill markers"/>
 <rect id="rect919-6-5-6-7-4-5-6-2-6" x="9.2238" y="17.995" width="2.2462" height="2.2462" fill="#fff" opacity=".536" stroke="#7e7e7e" stroke-linecap="round" stroke-linejoin="round" stroke-width=".95077" style="paint-order:stroke fill markers"/>
 <g id="g1368" transform="matrix(.7 0 0 .7 -32.672 30.638)">
  <g id="g1379">
   <rect id="rect1223" x="47.89" y="-20.178" width="10" height="10" rx="2.0115" fill="#d26464"/>
   <path id="path1225" d="m48.89-15.178h8v-2c0-2-0.5-2-4-2-3.5 0-4 0-4 2v2z" fill="#fcffff" fill-rule="evenodd" opacity=".3"/>
   <path id="path1227-9" d="m50.768-13.056 4.2426-4.2426" fill="#fff" fill-rule="evenodd" stroke="#fff" stroke-linecap="round" stroke-linejoin="round" stroke-width="2"/>
   <path id="path1229" d="m50.768-17.299 4.2426 4.2426" fill="#fff" fill-rule="evenodd" stroke="#fff" stroke-linecap="round" stroke-linejoin="round" stroke-width="2"/>
  </g>
 </g>
 <g id="g1373" transform="matrix(.63636 0 0 .63636 30.841 21.941)">
  <rect id="rect1320" x="-23.785" y="-32.722" width="11" height="11" rx="2.0115" fill="#c4a000"/>
  <path id="path1322" d="m-18.785-31.722v2.0625c-0.53766 0.11104-1.0247 0.38329-1.375 0.78125l-1.7812-1.0312-0.5 0.875 1.7812 1.0312c-0.08206 0.24743-0.125 0.5064-0.125 0.78125s0.04294 0.53382 0.125 0.78125l-1.7812 1.0312 0.5 0.875 1.7812-1.0312c0.3525 0.40042 0.83268 0.67018 1.375 0.78125v2.0625h1v-2.0625c0.53766-0.11104 1.0247-0.38329 1.375-0.78125l1.7812 1.0312 0.5-0.875-1.7812-1.0312c0.08206-0.24743 0.125-0.5064 0.125-0.78125s-0.04294-0.53382-0.125-0.78125l1.7812-1.0312-0.5-0.875-1.7812 1.0312c-0.3525-0.40042-0.83268-0.67018-1.375-0.78125v-2.0625zm0.5 3.5c0.552 0 1 0.448 1 1s-0.448 1-1 1-1-0.448-1-1 0.448-1 1-1z" fill="#fcffff"/>
  <path id="path1324" d="m-22.785-26.722 9-0.0096v-2c0-2.9904-1-2.9904-4.5-2.9904s-4.5 0-4.5 3v2z" fill="#fcffff" fill-rule="evenodd" opacity=".3"/>
 </g>
</svg>
