<svg xmlns="http://www.w3.org/2000/svg" xmlns:xlink="http://www.w3.org/1999/xlink" width="24" height="24"><defs><linearGradient id="a"><stop style="stop-color:#555;stop-opacity:1" offset="0"/><stop style="stop-color:#666;stop-opacity:1" offset="1"/></linearGradient><linearGradient id="d"><stop style="stop-color:#000;stop-opacity:1" offset="0"/><stop style="stop-color:#000;stop-opacity:0" offset="1"/></linearGradient><linearGradient id="c"><stop style="stop-color:#000;stop-opacity:1" offset="0"/><stop style="stop-color:#000;stop-opacity:0" offset="1"/></linearGradient><linearGradient id="b"><stop style="stop-color:#000;stop-opacity:0" offset="0"/><stop offset=".5" style="stop-color:#000;stop-opacity:1"/><stop style="stop-color:#000;stop-opacity:0" offset="1"/></linearGradient><linearGradient xlink:href="#b" id="i" gradientUnits="userSpaceOnUse" gradientTransform="translate(-8 1.5)" x1="25" y1="45" x2="25" y2="42"/><linearGradient id="e"><stop style="stop-color:#737373;stop-opacity:1" offset="0"/><stop style="stop-color:#636363;stop-opacity:1" offset=".262"/><stop style="stop-color:#4b4b4b;stop-opacity:1" offset=".705"/><stop style="stop-color:#3f3f3f;stop-opacity:1" offset="1"/></linearGradient><radialGradient xlink:href="#c" id="h" gradientUnits="userSpaceOnUse" gradientTransform="matrix(1 0 0 .75 -4 12.375)" cx="9" cy="43.5" fx="9" fy="43.5" r="2"/><radialGradient xlink:href="#d" id="g" gradientUnits="userSpaceOnUse" gradientTransform="matrix(1 0 0 .75 -21 12.375)" cx="40" cy="43.5" fx="40" fy="43.5" r="2"/><radialGradient xlink:href="#e" id="f" cx="12" cy="21.844" fx="12" fy="21.844" r="9.5" gradientTransform="matrix(-4.21048 0 0 -5.05258 62.526 135.366)" gradientUnits="userSpaceOnUse"/></defs><path style="color:#000;font-style:normal;font-variant:normal;font-weight:400;font-stretch:normal;line-height:normal;font-family:Sans;-inkscape-font-specification:Sans;text-indent:0;text-align:start;text-decoration:none;text-decoration-line:none;letter-spacing:normal;word-spacing:normal;text-transform:none;direction:ltr;block-progression:tb;writing-mode:lr-tb;baseline-shift:baseline;text-anchor:start;display:inline;overflow:visible;visibility:visible;fill:url(#f);fill-opacity:1;stroke:none;stroke-width:2;marker:none;enable-background:accumulate" d="M5.5 28.5v4h8c.082 0 .39.133.625.375s.375.583.375.625v1h-7c-1.518 0-2.877.632-3.75 1.625l-.031.031A5.023 5.023 0 0 0 2.5 39.5c.01 1.2.462 2.414 1.313 3.375.865.977 2.181 1.625 3.687 1.625h14v-11c0-2.72-2.209-5-5-5h-11zm5 10h4v2h-4c-.505 0-.543-.051-.719-.25a1.269 1.269 0 0 1-.281-.75c-.002-.29.133-.617.25-.75.158-.18.208-.25.75-.25Z" transform="translate(0 -24)"/><path d="M5.5 28.5v4h8c.082 0 .39.133.625.375s.375.583.375.625v1h-7c-1.518 0-2.877.632-3.75 1.625l-.031.031A5.023 5.023 0 0 0 2.5 39.5c.01 1.2.462 2.414 1.313 3.375.865.977 2.181 1.625 3.687 1.625h14v-11c0-2.72-2.209-5-5-5h-11zm5 10h4v2h-4c-.505 0-.543-.051-.719-.25a1.269 1.269 0 0 1-.281-.75c-.002-.29.133-.617.25-.75.158-.18.208-.25.75-.25Z" style="color:#000;font-style:normal;font-variant:normal;font-weight:400;font-stretch:normal;line-height:normal;font-family:Sans;-inkscape-font-specification:Sans;text-indent:0;text-align:start;text-decoration:none;text-decoration-line:none;letter-spacing:normal;word-spacing:normal;text-transform:none;direction:ltr;block-progression:tb;writing-mode:lr-tb;baseline-shift:baseline;text-anchor:start;display:inline;overflow:visible;visibility:visible;opacity:.61000001;fill:none;stroke:#000;stroke-width:1;stroke-miterlimit:4;stroke-dasharray:none;stroke-opacity:1;marker:none;enable-background:accumulate" transform="translate(0 -24)"/><path style="color:#000;font-style:normal;font-variant:normal;font-weight:400;font-stretch:normal;line-height:normal;font-family:Sans;-inkscape-font-specification:Sans;text-indent:0;text-align:start;text-decoration:none;text-decoration-line:none;letter-spacing:normal;word-spacing:normal;text-transform:none;direction:ltr;block-progression:tb;writing-mode:lr-tb;baseline-shift:baseline;text-anchor:start;display:inline;overflow:visible;visibility:visible;opacity:.2;fill:#fff;fill-opacity:1;stroke:none;stroke-width:2;marker:none;enable-background:accumulate" d="M6 29v1h10.5a4.5 4.5 0 0 1 4.5 4.5v-1a4.5 4.5 0 0 0-4.5-4.5H6zm1.5 6c-1.38 0-2.602.59-3.375 1.469h-.031l-.032.031A4.566 4.566 0 0 0 3 39.5c.001.135.049.271.063.406.1-.854.406-1.705 1-2.406l.03-.031h.032C4.898 36.59 6.121 36 7.5 36H15v-1H7.5zm1.563 5a1.82 1.82 0 0 0-.063.5c.004.428.15.805.406 1.094.086.096.227.228.438.312.21.084.387.094.656.094H15v-1h-4.5c-.27 0-.445-.01-.656-.094a1.154 1.154 0 0 1-.438-.312A1.634 1.634 0 0 1 9.062 40Z" transform="translate(0 -24)"/><path d="M19 43.5v3h.5c.831 0 1.5-.669 1.5-1.5s-.669-1.5-1.5-1.5H19z" style="opacity:.2;fill:url(#g);fill-opacity:1;stroke:none" transform="translate(1 -24)"/><path d="M4.406 43.5C3.627 43.5 3 44.127 3 44.906v.188c0 .779.627 1.406 1.406 1.406H5v-3h-.594z" style="opacity:.2;fill:url(#h);fill-opacity:1;stroke:none" transform="translate(1 -24)"/><path d="M5 43.5h14v3H5z" style="opacity:.2;fill:url(#i);fill-opacity:1;stroke:none" transform="translate(1 -24)"/></svg>