<svg enable-background="new 0 0 24 24" height="24" viewBox="0 0 24 24" width="24" xmlns="http://www.w3.org/2000/svg"><g transform="translate(0 -8)"><path d="m2.5384614 10.538462h12.923078v12.923077h-12.923078z" fill="#fce94f" stroke="#c4a000" stroke-linecap="round" stroke-width="1.076923"/><g transform="translate(0 8)"><path d="m14.357 13.5h8.285c.474 0 .857.384.857.857v8.285c0 .474-.384.857-.857.857h-8.285c-.474 0-.857-.384-.857-.857v-8.285c0-.473.384-.857.857-.857z" fill="#c00" opacity=".9" stroke="#c00" stroke-linecap="square" stroke-linejoin="round"/><path d="m13.5 18.5h10v-3.334c0-1.666 0-1.666-2.5-1.666-.582 0-5.061 0-5.834 0-1.666 0-1.666 0-1.666 1.666z" fill="#fcffff" opacity=".5"/><g fill="none" stroke="#eeeeec" stroke-linecap="round"><path d="m16.373 20.65 4.254-4.301" stroke-width="1.5"/><circle cx="18.5" cy="18.5" r="4.15625" stroke-width="1.6875"/></g></g></g></svg>