<svg height="24" width="24" xmlns="http://www.w3.org/2000/svg" xmlns:xlink="http://www.w3.org/1999/xlink"><linearGradient id="a" gradientUnits="userSpaceOnUse" x1="16.5" x2="12.5" y1="22.5" y2="16.5"><stop offset="0" stop-color="#edd400"/><stop offset="1" stop-color="#fff17a"/></linearGradient><g transform="translate(0 -8)"><text font-family="Georgia" letter-spacing="0" transform="translate(0 8)" word-spacing="0" x="11.26257" xml:space="preserve" y="17.329609"><tspan font-size="8" x="11.26257" y="17.329609"></tspan></text><path d="m.5 17.5 4-5h16v10h-16z" fill="url(#a)" fill-rule="evenodd" stroke="#c4a000" stroke-linecap="round" stroke-linejoin="round"/><text fill="#2e3436" font-family="FreeSans" font-weight="bold" letter-spacing="0" word-spacing="0" x="4.187468" y="20.292719"><tspan font-size="8" x="4.187468" y="20.292719">abc</tspan></text><rect fill="#c4a000" height="11" rx="2.01" width="11" x="13" y="21"/><path d="m32.8 15.8v2.06c-.538.111-1.02.383-1.38.781l-1.78-1.03-.5.875 1.78 1.03c-.0821.247-.125.506-.125.781s.0429.534.125.781l-1.78 1.03.5.875 1.78-1.03c.353.4.833.67 1.38.781v2.06h1v-2.06c.538-.111 1.02-.383 1.38-.781l1.78 1.03.5-.875-1.78-1.03c.0821-.247.125-.506.125-.781s-.0429-.534-.125-.781l1.78-1.03-.5-.875-1.78 1.03c-.353-.4-.833-.67-1.38-.781v-2.06zm.5 3.5c.552 0 1 .448 1 1s-.448 1-1 1-1-.448-1-1 .448-1 1-1z" fill="#fcffff"/><path d="m14 27 9-.0096v-2c0-2.99-1-2.99-4.5-2.99s-4.5 0-4.5 3v2z" fill="#fcffff" fill-rule="evenodd" opacity=".3"/><path d="m14.6 30.9c.474-1.12.851-2.32.95-3.75l2.31 2.28c-1.32.254-2.31.846-3.26 1.47z" fill="#fff"/><path d="m16.3 26.4 2.3 2.25 4.25-5.3-1.1-1.15z" fill="#fff"/><path d="m16.4 28.7 1.82-1.82" fill="none" stroke="#fff"/></g></svg>