<svg height="24" width="24" xmlns="http://www.w3.org/2000/svg" xmlns:xlink="http://www.w3.org/1999/xlink"><linearGradient id="b"><stop offset="0" stop-color="#fff"/><stop offset="1" stop-color="#fff" stop-opacity="0"/></linearGradient><linearGradient id="a"><stop offset="0" stop-color="#3465a4"/><stop offset="1" stop-color="#3465a4"/></linearGradient><linearGradient id="g" gradientUnits="userSpaceOnUse" x1="16.431" x2="18.865" y1="17.169" y2="13.958"><stop offset="0" stop-color="#c4d7eb"/><stop offset="1" stop-color="#c4d7eb" stop-opacity="0"/></linearGradient><linearGradient id="h" gradientUnits="userSpaceOnUse" x1="18.642" x2="18.865" y1="17.554" y2="13.958"><stop offset="0" stop-color="#2b5b95"/><stop offset="1" stop-color="#5c8fce" stop-opacity="0"/></linearGradient><linearGradient id="c" gradientUnits="userSpaceOnUse" x1="6.262" x2="7.318" y1="5.295" y2="9.918"><stop offset="0" stop-color="#264976"/><stop offset=".333" stop-color="#3f689d"/><stop offset="1" stop-color="#5689ca" stop-opacity="0"/></linearGradient><linearGradient id="d" gradientTransform="matrix(-.54367 0 0 -.54367 24.52 24.602)" gradientUnits="userSpaceOnUse" x1="37.128" x2="37.065" y1="29.73" y2="26.194"><stop offset="0" stop-color="#3465a4"/><stop offset="1" stop-color="#3465a4" stop-opacity="0"/></linearGradient><linearGradient id="e" gradientTransform="matrix(-.31481 -.26598 -.26598 .31481 29.625 6.946)" gradientUnits="userSpaceOnUse" x1="62.514" x2="15.985" y1="36.061" y2="20.609"><stop offset="0" stop-color="#8cb0d8"/><stop offset="1" stop-color="#4580bf"/></linearGradient><linearGradient id="f" gradientTransform="matrix(-.31481 -.26598 -.26598 .31481 29.625 6.946)" gradientUnits="userSpaceOnUse" x1="46.835" x2="45.38" xlink:href="#a" y1="45.264" y2="50.94"/><linearGradient id="l" gradientTransform="matrix(-.27647 -.23359 -.23359 .27647 27.523 6.943)" gradientUnits="userSpaceOnUse" x1="5.965" x2="52.854" xlink:href="#b" y1="26.048" y2="26.048"/><linearGradient id="i" gradientTransform="matrix(.31481 .26598 .26598 -.31481 -5.625 17.054)" gradientUnits="userSpaceOnUse" x1="18.936" x2="53.589" y1="23.668" y2="26.649"><stop offset="0" stop-color="#4580bf"/><stop offset="1" stop-color="#376da5"/></linearGradient><linearGradient id="j" gradientTransform="matrix(.31481 .26598 .26598 -.31481 -5.625 17.054)" gradientUnits="userSpaceOnUse" x1="46.835" x2="45.38" xlink:href="#a" y1="45.264" y2="50.94"/><linearGradient id="k" gradientUnits="userSpaceOnUse" x1="5.965" x2="52.854" xlink:href="#b" y1="26.048" y2="26.048"/><path d="M9.638 5.336s-4.859-.34-3.364 5.369h-4.18s.273-6.456 7.544-5.369z" display="block" fill="url(#c)" overflow="visible" stroke="url(#d)" stroke-width=".544"/><path d="M2.317 10.975C.32 1.513 10.423-2.041 19.229 4.906l2.596-2.85-.052 9.315-8.134-.008 2.707-3.044C10.153 3.625 2.22 3.977 2.316 10.975z" display="block" fill="url(#e)" overflow="visible" stroke="url(#f)" stroke-width=".544"/><path d="M14.108 18.631s4.86.34 3.364-5.369H21.7c0 .817-.32 6.456-7.592 5.37z" display="block" fill="url(#g)" overflow="visible" stroke="url(#h)" stroke-width=".544"/><path d="M21.683 13.025c1.996 9.462-8.106 13.016-16.912 6.069l-2.528 2.951.018-9.348 7.965-.06-2.572 3.044c6.193 4.694 14.126 4.342 14.03-2.656z" display="block" fill="url(#i)" overflow="visible" stroke="url(#j)" stroke-width=".544"/><path d="M2.521 21.214l.034-8.088 7.034-.203-2.386 2.815 2.102 1.29c-1.63 1.224-2.473 1.317-3.017 2.71l-1.531-1.147-2.236 2.623z" fill="#e6e6e6" opacity=".272" overflow="visible"/><path d="M51.09 45.944c9.12-15.22-4.458-33.743-31.605-33.995l.028-8.246L6.534 19.297l12.834 10.972.055-9.007c17.528-.224 35.195 10.103 31.667 24.682z" transform="matrix(.27647 .23359 .23359 -.27647 -3.478 17.056)" fill="none" stroke-width="1.502" display="block" overflow="visible" stroke="url(#k)" opacity=".5"/><path d="M2.451 7.797c1.034-6.338 9.16-8.407 16.825-2.102l1.953-2.15.014 7.275-6.383.002 2.258-2.571C11.985 4.094 4.95 3.146 2.451 7.797z" opacity=".5" fill="none" stroke-width=".544" display="block" overflow="visible" stroke="url(#l)"/><path d="M2.385 8.647c1.954-5.676 8.94-3.34 10.976-2.446 2.27.115 3.085-1.541 4.893-1.631C10.615-.753 2.589 1.036 2.385 8.647z" fill="#fff" opacity=".272" overflow="visible"/></svg>
