<?xml version="1.0" encoding="UTF-8"?>
<svg width="24" height="24" xmlns="http://www.w3.org/2000/svg">
 <g transform="translate(0 -8)">
  <path transform="matrix(.6875 0 0 .6875 6.1562 14.156)" d="m16.5 8.5c0 4.4183-3.5817 8-8 8s-8-3.5817-8-8 3.5817-8 8-8 8 3.5817 8 8z" fill="#edd400" stroke="#edd400" stroke-linecap="round" stroke-linejoin="round" stroke-width="1.4545"/>
  <rect x="13" y="21" width="11" height="11" rx="2.0115" fill="#4e9a06" opacity=".9"/>
  <path d="m15.5 29.5 3-6 3 6h-6z" fill="#fff" opacity=".9" stroke="#fff" stroke-linecap="round" stroke-linejoin="round"/>
  <path d="m14 27 9-0.0096v-2c0-2.9904-1-2.9904-4.5-2.9904s-4.5 0-4.5 3v2z" fill="#fcffff" fill-rule="evenodd" opacity=".3"/>
  <path d="m1.5 20h3" fill="#edd400" opacity=".9" stroke="#edd400" stroke-linecap="round" stroke-linejoin="round" stroke-width="1.5"/>
  <path d="m19.5 20h3" fill="#edd400" opacity=".9" stroke="#edd400" stroke-linecap="round" stroke-linejoin="round" stroke-width="1.5"/>
  <path d="m12 9.5v3" fill="#edd400" opacity=".9" stroke="#edd400" stroke-linecap="round" stroke-linejoin="round" stroke-width="1.5"/>
  <path d="m12 27.5v3" fill="#edd400" opacity=".9" stroke="#edd400" stroke-linecap="round" stroke-linejoin="round" stroke-width="1.5"/>
  <path d="m4.7929 12.793 1.4142 1.4142" fill="#edd400" opacity=".9" stroke="#edd400" stroke-linecap="round" stroke-linejoin="round" stroke-width="1.5"/>
  <path d="m5.0858 27 1.4142-1.4142" fill="#edd400" opacity=".9" stroke="#edd400" stroke-linecap="round" stroke-linejoin="round" stroke-width="1.5"/>
  <path d="m17.586 14.414 1.4142-1.4142" fill="#edd400" opacity=".9" stroke="#edd400" stroke-linecap="round" stroke-linejoin="round" stroke-width="1.5"/>
 </g>
</svg>
