<?xml version="1.0" encoding="UTF-8"?>
<svg width="24" height="24" xmlns="http://www.w3.org/2000/svg">
 <g transform="translate(0 -8)">
  <path d="m1.1886 8.6719c5.9635 11.577 5.1338 14.555-0.51672 20.351 6.4833-4.7866 15.045-6.6295 22.656-9.8177-2.8869-9.5444-9.2318-8.6344-22.139-10.533z" fill="#6e97c4" stroke="#284361" stroke-linecap="round" stroke-linejoin="round" stroke-width="1.3438"/>
  <path d="m6.9486 9.5409c3.773 7.5941 4.2616 11.979 0.75053 15.447" fill="none" stroke="#284361" stroke-width="1.3438"/>
  <path d="m13.276 10.608c2.2749 5.9153 2.3156 8.8628 0.90617 11.745" fill="none" stroke="#284361" stroke-width="1.3438"/>
  <path d="m18.613 12.377c1.7669 4.6325 0.69289 7.5784 0.23232 8.373" fill="none" stroke="#284361" stroke-width="1.3438"/>
  <g transform="matrix(.69231 0 0 .69231 1.8462 9.8462)">
   <rect x="19" y="19" width="13" height="13" rx="2.6149" ry="2.6149" fill="#5a8c5a"/>
   <path d="m21.6 25.5h7.8" fill="#fff" fill-rule="evenodd" stroke="#fff" stroke-linecap="round" stroke-linejoin="round" stroke-width="2.6"/>
   <path d="m25.5 29.4v-7.8" fill="#fff" fill-rule="evenodd" stroke="#fff" stroke-linecap="round" stroke-linejoin="round" stroke-width="2.6"/>
   <path d="m20.3 25.5h10.4v-2.6c0-2.6-0.65-2.6-5.2-2.6s-5.2 0-5.2 2.6v2.6z" fill="#fcffff" fill-rule="evenodd" opacity=".3"/>
  </g>
 </g>
</svg>
