<svg xmlns="http://www.w3.org/2000/svg" height="24" width="24"><path d="M1.5 21.5h21V7.664l-5-5.164h-16z" fill="#fff" fill-rule="evenodd" stroke="#727272" stroke-linejoin="round"/><path d="M3.949 4h12.994v.998H3.949zM3 19.002h18V20H3z" fill="#7399ec" fill-opacity=".44"/><path d="M22.5 7.514h-5v-5z" fill="#f0f0f0" fill-rule="evenodd" stroke="#727272" stroke-linejoin="round"/><g transform="translate(33)"><rect y="13" x="-20" width="11" rx="2.011" height="11" fill="#c4a000"/><path d="M-15 14v2.063a2.501 2.501 0 0 0-1.375.78l-1.781-1.03-.5.874 1.781 1.032A2.46 2.46 0 0 0-17 18.5c0 .275.043.534.125.781l-1.781 1.032.5.875 1.781-1.032c.353.4.833.67 1.375.782V23h1v-2.063a2.501 2.501 0 0 0 1.375-.78l1.781 1.03.5-.875-1.781-1.03A2.46 2.46 0 0 0-12 18.5a2.46 2.46 0 0 0-.125-.781l1.781-1.032-.5-.875-1.781 1.032A2.49 2.49 0 0 0-14 16.062V14zm.5 3.5a1 1 0 1 1 0 2 1 1 0 0 1 0-2z" fill="#fcffff"/><path d="M-19 19l9-.01v-2C-10 14-11 14-14.5 14s-4.5 0-4.5 3v2z" opacity=".3" fill="#fcffff" fill-rule="evenodd"/></g><path d="M3.498 3.51V22.5h4.016V8.561l4.96.036v-5.05l-4.96-.036z" fill="#ffe680" stroke="#d4aa00" stroke-linecap="square"/><path d="M4.027 3.574L8 7.014l-.85.766-3.972-3.44z" fill="#d4aa00" fill-opacity=".647"/><path d="M3 8.014h3v1H3zm0 2h3v1H3zm0 2h3v1H3zm0 2h3v1H3zm0 2h3v1H3z" fill="#b29000"/><path d="M21 15.014v-7h-1v7z" fill="#7399ec" fill-opacity=".44"/><path d="M3.024 18.006h3v1h-3z" fill="#b29000"/></svg>
