<?xml version="1.0" encoding="UTF-8" standalone="no"?>
<svg
   xmlns:dc="http://purl.org/dc/elements/1.1/"
   xmlns:cc="http://creativecommons.org/ns#"
   xmlns:rdf="http://www.w3.org/1999/02/22-rdf-syntax-ns#"
   xmlns:svg="http://www.w3.org/2000/svg"
   xmlns="http://www.w3.org/2000/svg"
   id="svg24"
   version="1.1"
   width="24"
   viewBox="0 0 6.3499999 6.3500002"
   height="24">
  <metadata
     id="metadata30">
    <rdf:RDF>
      <cc:Work
         rdf:about="">
        <dc:format>image/svg+xml</dc:format>
        <dc:type
           rdf:resource="http://purl.org/dc/dcmitype/StillImage" />
        <dc:title></dc:title>
      </cc:Work>
    </rdf:RDF>
  </metadata>
  <defs
     id="defs28" />
  <path
     id="path2"
     overflow="visible"
     fill-rule="evenodd"
     fill="#888a85"
     d="m .21387155.81343653v.41939607h5.87154485v-.41939607z" />
  <path
     id="path4"
     overflow="visible"
     fill-rule="evenodd"
     fill="#b2b2b2"
     d="m .63347422 1.2328326v4.6133566h.41939608v-4.6133566z" />
  <path
     id="path6"
     overflow="visible"
     fill-rule="evenodd"
     fill="#b2b2b2"
     d="m1.0526637 1.9591893v.4193961h.8389984v-.4193961z" />
  <path
     id="path8"
     overflow="visible"
     fill-rule="evenodd"
     fill="#b2b2b2"
     d="m1.0379072 4.9783355v.4193958h.838792v-.4193958z" />
  <path
     id="path10"
     stroke-width=".19291691"
     stroke="#afcc00"
     fill-rule="evenodd"
     fill="#fce94f"
     d="m3.3727126 4.7698011h2.4481208v.83646154h-2.4481208z" />
  <path
     id="path12"
     overflow="visible"
     fill-rule="evenodd"
     fill="#b2b2b2"
     d="m1.0130849 3.4805437v.4193961h.8389983v-.4193961z" />
  <path
     id="path14"
     stroke-width=".1929169"
     stroke="#afcc00"
     fill-rule="evenodd"
     fill="#fce94f"
     d="m3.3727129 3.272011h2.4481208v.83646154h-2.4481208z" />
  <path
     fill="#fce94f"
     fill-rule="evenodd"
     stroke="#afcc00"
     stroke-width=".1929169"
     id="path16"
     d="m3.3727124 1.7506566h2.4481208v.83646154h-2.4481208z" />
  <path
     id="path18"
     stroke-width=".22048612"
     stroke="#415a75"
     fill="none"
     d="m2.0725693 4.8947917l.4409723.6614584.6614583-1.1024306" />
  <path
     id="path20"
     stroke-width=".22048612"
     stroke="#415a75"
     fill="none"
     d="m2.0725693 3.4616319l.4409722.6614585.6614584-1.1024306" />
  <path
     id="path22"
     stroke-width=".22048612"
     stroke="#415a75"
     fill="none"
     d="m2.0725693 2.0284723l.4409723.6614583.6614583-1.1024306" />
  <rect
     ry="0"
     style="stroke-width:0.25568426;fill:none"
     y="1.5940872"
     x="1.9596746"
     height="1.2170833"
     width="1.2176619"
     id="rect32" />
  <g
     id="g12"
     transform="matrix(0.26458334,0,0,0.26458334,0.00237445,0.00237444)">
    <path
       d="m 14.357,13.5 h 8.285 c 0.474,0 0.857,0.384 0.857,0.857 v 8.285 c 0,0.474 -0.384,0.857 -0.857,0.857 h -8.285 c -0.474,0 -0.857,-0.384 -0.857,-0.857 v -8.285 c 0,-0.473 0.384,-0.857 0.857,-0.857 z"
       id="path4-2"
       style="opacity:0.9;fill:#cc0000;stroke:#cc0000;stroke-linecap:square;stroke-linejoin:round" />
    <path
       d="m 13.5,18.5 h 10 v -3.334 c 0,-1.666 0,-1.666 -2.5,-1.666 -0.582,0 -5.061,0 -5.834,0 -1.666,0 -1.666,0 -1.666,1.666 0,0.834 0,1.668 0,3.334 z"
       id="path6-9"
       style="opacity:0.5;fill:#fcffff" />
    <path
       d="m 16.373,20.65 4.254,-4.301"
       id="path8-1"
       style="fill:none;stroke:#eeeeec;stroke-width:1.5;stroke-linecap:round" />
    <circle
       cx="18.5"
       cy="18.5"
       r="4.15625"
       id="circle10"
       style="fill:none;stroke:#eeeeec;stroke-width:1.6875;stroke-linecap:round" />
  </g>
</svg>
