<?xml version="1.0" encoding="UTF-8"?>
<svg id="svg23" width="24" height="24" version="1.1" xmlns="http://www.w3.org/2000/svg" xmlns:cc="http://creativecommons.org/ns#" xmlns:dc="http://purl.org/dc/elements/1.1/" xmlns:rdf="http://www.w3.org/1999/02/22-rdf-syntax-ns#">
 <metadata id="metadata29">
  <rdf:RDF>
   <cc:Work rdf:about="">
    <dc:format>image/svg+xml</dc:format>
    <dc:type rdf:resource="http://purl.org/dc/dcmitype/StillImage"/>
   </cc:Work>
  </rdf:RDF>
 </metadata>
 <linearGradient id="a" x1="3.5" x2="11.5" y1="19.5" y2="19.5" gradientTransform="translate(0,-8)" gradientUnits="userSpaceOnUse">
  <stop id="stop2" stop-color="#b7b7b7" offset="0"/>
  <stop id="stop4" stop-color="#e6e6e6" offset="1"/>
 </linearGradient>
 <path id="path7" d="m21.5 21.5h-17c-1 0-1.9778-1.4206-2-2.5v-16.5h19z" fill="url(#a)" fill-rule="evenodd" stroke="#9a9a9a"/>
 <path id="path9" d="m6.5 2c-1-1-3-1-4 0v16c1-1 3-1 4 0z" fill="#e6e6e6" fill-rule="evenodd" stroke="#9a9a9a"/>
 <g id="g16" transform="translate(33)">
  <rect id="rect10" x="-20" y="13" width="11" height="11" rx="2.0115" fill="#c4a000"/>
  <path id="path12" d="m-15 14v2.0625c-0.53766 0.11104-1.0247 0.38329-1.375 0.78125l-1.7812-1.0312-0.5 0.875 1.7812 1.0312c-0.082063 0.24743-0.125 0.5064-0.125 0.78125s0.04294 0.53382 0.125 0.78125l-1.7812 1.0312 0.5 0.875 1.7812-1.0312c0.3525 0.40042 0.83268 0.67018 1.375 0.78125v2.0625h1v-2.0625c0.53766-0.11104 1.0247-0.38329 1.375-0.78125l1.7812 1.0312 0.5-0.875-1.7812-1.0312c0.082063-0.24743 0.125-0.5064 0.125-0.78125s-0.04294-0.53382-0.125-0.78125l1.7812-1.0312-0.5-0.875-1.7812 1.0312c-0.3525-0.40042-0.83268-0.67018-1.375-0.78125v-2.0625zm0.5 3.5c0.552 0 1 0.448 1 1s-0.448 1-1 1-1-0.448-1-1 0.448-1 1-1z" fill="#fcffff"/>
  <path id="path14" d="m-19 19 9-0.0096v-2c0-2.9904-1-2.9904-4.5-2.9904s-4.5 0-4.5 3v2z" fill="#fcffff" fill-rule="evenodd" opacity=".3"/>
 </g>
</svg>
