<svg height="24" width="24" xmlns="http://www.w3.org/2000/svg"><g stroke-linecap="round"><g fill="none" stroke="#5b6775" stroke-linejoin="bevel" stroke-width="1.001575" transform="translate(36.080801 -6.377072)"><g transform="translate(1.53601 -4.184115)"><path d="m-35.041811 13.136187-1.269685 20.357015 21.122373-.23733-.772688-19.998685-5.744.022-6.985 15.153z"/><path d="m-36.311496 33.493202 7.620685-5.061015 13.501688 4.823685-6.516688-19.976685"/></g><path d="m-33.505801 8.9520718 13.336.143"/></g><g stroke="#c4a000" stroke-linejoin="round"><path d="m2.575 2.575 6.351 15.296 6.985-15.153 5.744-.022" fill="none" stroke-width="1.5"/><path d="m4.257 2.575a1.681 1.681 0 1 1 -3.363 0 1.681 1.681 0 1 1 3.363 0zm6.372 14.495a1.681 1.681 0 1 1 -3.363 0 1.681 1.681 0 1 1 3.363 0zm6.786-14.388a1.681 1.681 0 1 1 -3.363 0 1.681 1.681 0 1 1 3.363 0zm5.921.014a1.681 1.681 0 1 1 -3.363 0 1.681 1.681 0 1 1 3.363 0z" fill="#eeeeec" fill-rule="evenodd"/></g></g></svg>