<svg width="24" height="24" xmlns="http://www.w3.org/2000/svg"><title>label</title><defs><linearGradient id="b" x1="16.5" x2="12.5" y1="22.5" y2="16.5" gradientUnits="userSpaceOnUse"><stop stop-color="#edd400" offset="0"/><stop stop-color="#fff17a" offset="1"/></linearGradient><linearGradient id="a" x1="21.9" x2="24.9" y1="13.6" y2="14.8" gradientTransform="translate(-.17 -.29)" gradientUnits="userSpaceOnUse"><stop stop-color="#fff" offset="0"/><stop stop-color="#959595" offset=".852"/><stop stop-color="#6f6f6f" offset=".918"/><stop stop-color="#4a4a4a" offset="1"/></linearGradient></defs><g transform="translate(0,-8)"><text transform="translate(0,8)" x="11.26257" y="17.329609" fill="#000000" font-family="Georgia" letter-spacing="0px" word-spacing="0px" style="line-height:0%" xml:space="preserve"><tspan x="11.26257" y="17.329609" font-size="8px" style="line-height:1"> </tspan></text><path d="m.5 17.5 4-5h16v10h-16l-4-5z" enable-background="new" fill="url(#b)" fill-rule="evenodd" stroke="#c4a000" stroke-linecap="round" stroke-linejoin="round" stroke-width="1px"/><text x="4.1874685" y="20.292719" fill="#2e3436" font-family="FreeSans" font-weight="bold" letter-spacing="0px" word-spacing="0px" style="line-height:0%" xml:space="preserve"><tspan x="4.1874685" y="20.292719" font-size="8px" style="line-height:1">ab</tspan></text><g transform="matrix(.867 0 0 .948 5.37 6.09)"><g transform="matrix(.855 -.123 .134 .782 -7.02 14.9)"><g transform="matrix(-.893 .45 -.45 -.893 50 5.71)"><path d="m20.5 17.6c-.206-.0199-.406-.0764-.593-.167-.42-.203-.738-.559-.891-1-.153-.439-.126-.911.0778-1.33l5.7-11.8c.32-.657 1.02-1.05 1.74-.981.206.0199.406.0764.593.167.42.203.737.558.891.999.153.441.126.916-.077 1.34l-5.7 11.8c-.16.331-.415.6-.74.775-.31.168-.655.239-1 .205z" fill="url(#a)" stroke="#333" stroke-width=".667"/></g><circle transform="translate(-.993 5.23)" cx="25.6" cy="6.29" r="6" fill="#a12727" stroke="#8a0000" stroke-miterlimit="10" stroke-width=".5"/><path d="m30 13.5c-1.42 3.42-5 4.43-7.65 3.32-.863-.357-1.83-1.26-1.83-1.26s3.61.879 6.24-.466c2.63-1.35 3.54-3.05 3.54-3.05s-.135 1.06-.297 1.45z" fill="#8d2727"/><circle transform="translate(-1.37 4.76)" cx="25.1" cy="4.16" r="2" fill="#de6767"/></g></g></g></svg>
