<svg width="24" height="24" xmlns="http://www.w3.org/2000/svg"><title>label</title><defs><linearGradient id="a" x1="16.5" x2="12.5" y1="22.5" y2="16.5" gradientUnits="userSpaceOnUse"><stop stop-color="#edd400" offset="0"/><stop stop-color="#fff17a" offset="1"/></linearGradient></defs><g transform="translate(0,-8)"><text transform="translate(0,8)" x="11.26257" y="17.329609" fill="#000000" font-family="Georgia" letter-spacing="0px" word-spacing="0px" style="line-height:0%" xml:space="preserve"><tspan x="11.26257" y="17.329609" font-size="8px" style="line-height:1"> </tspan></text><path d="m.5 17.5 4-5h16v10h-16l-4-5z" enable-background="new" fill="url(#a)" fill-rule="evenodd" stroke="#c4a000" stroke-linecap="round" stroke-linejoin="round" stroke-width="1px"/><text x="4.1874685" y="20.292719" fill="#2e3436" font-family="FreeSans" font-weight="bold" letter-spacing="0px" word-spacing="0px" style="line-height:0%" xml:space="preserve"><tspan x="4.1874685" y="20.292719" font-size="8px" style="line-height:1">abc</tspan></text><g transform="matrix(.867 0 0 .948 5.37 6.09)"></g><rect x="13" y="21" width="11" height="11" rx="2.01" ry="2.01" enable-background="new" fill="#c4a000" stroke-width="0"/><path d="m32.8 15.8v2.06c-.538.111-1.02.383-1.38.781l-1.78-1.03-.5.875 1.78 1.03c-.0821.247-.125.506-.125.781s.0429.534.125.781l-1.78 1.03.5.875 1.78-1.03c.353.4.833.67 1.38.781v2.06h1v-2.06c.538-.111 1.02-.383 1.38-.781l1.78 1.03.5-.875-1.78-1.03c.0821-.247.125-.506.125-.781s-.0429-.534-.125-.781l1.78-1.03-.5-.875-1.78 1.03c-.353-.4-.833-.67-1.38-.781v-2.06zm.5 3.5c.552 0 1 .448 1 1s-.448 1-1 1-1-.448-1-1 .448-1 1-1z" enable-background="new" fill="#fcffff" stroke-width="0"/><path d="m14 27 9-.0096v-2c0-2.99-1-2.99-4.5-2.99s-4.5 0-4.5 3v2z" enable-background="new" fill="#fcffff" fill-rule="evenodd" opacity=".3"/><path d="m14.6 30.9c.474-1.12.851-2.32.95-3.75l2.31 2.28c-1.32.254-2.31.846-3.26 1.47z" fill="#fff"/><path d="m16.3 26.4 2.3 2.25 4.25-5.3-1.1-1.15z" fill="#fff"/><path d="m16.4 28.7 1.82-1.82" fill="none" stroke="#fff" stroke-width="1px"/></g></svg>
