<?xml version="1.0" encoding="UTF-8"?>
<svg id="svg36" width="24" height="24" version="1.1" viewBox="0 0 24 24" xmlns="http://www.w3.org/2000/svg" xmlns:cc="http://creativecommons.org/ns#" xmlns:dc="http://purl.org/dc/elements/1.1/" xmlns:rdf="http://www.w3.org/1999/02/22-rdf-syntax-ns#">
 <metadata id="metadata42">
  <rdf:RDF>
   <cc:Work rdf:about="">
    <dc:format>image/svg+xml</dc:format>
    <dc:type rdf:resource="http://purl.org/dc/dcmitype/StillImage"/>
    <dc:title/>
   </cc:Work>
  </rdf:RDF>
 </metadata>
 <g id="g34" transform="translate(0 -8)">
  <g id="g32" transform="matrix(.75889 0 0 1.1003 -2.5134 -.7169)">
   <path id="path18" d="m6.5 27.5v-15h7l4 4v11z" fill="#fff" fill-rule="evenodd" stroke="#5b5b5c" stroke-linejoin="round"/>
   <path id="path20" d="m13.5 12.5v4h4z" fill="#f0f0f0" fill-rule="evenodd" stroke="#5b5b5c" stroke-linejoin="round"/>
   <path id="path22" d="m8 17.5h6.5" fill="none" stroke="#969696"/>
   <path id="path24" d="m8 19.5h7.5" fill="none" stroke="#969696"/>
   <path id="path26" d="m8 21.5h5" fill="none" stroke="#969696"/>
   <path id="path28" d="m8 23.5h7" fill="none" stroke="#969696"/>
   <path id="path30" d="m8 25.5h7" fill="none" stroke="#969696"/>
  </g>
  <path id="path8-7" d="m15.76 12.289c-1.1052 0.07594-2.0736 2.0438-2.4642 6.8299-0.38762 4.7491 0.45939 13.322 2.3264 9.5095 3.101-6.3321 3.0994 1.5686 3.8746 1.5686 0.95627 0 1.9373-2.7672 1.9373-6.307 0-3.1661 0.03779-6.1976-0.38909-7.9409-0.77524-3.1661-1.1661 1.6077-3.2505-1.928-0.6643-1.1268-1.3715-1.7775-2.0346-1.732z" fill="#a6cca6" fill-rule="evenodd" stroke="#696b67" stroke-linecap="round" stroke-linejoin="round" stroke-width=".79905"/>
  <path id="path2-6" d="m15.682 23.787-2.8052 2.66 0.0104-1.7888-4.7725-0.04077 0.010395-1.79 4.7725 0.04077 0.01039-1.7888 2.774 2.7076z" fill="#fce94f" fill-rule="evenodd" stroke="#a9b318" stroke-linecap="round" stroke-linejoin="round" stroke-width=".60092"/>
  <g id="g75" transform="matrix(.36019 0 0 .32868 11.076 18.965)">
   <rect id="rect69" x="19" y="19" width="13" height="13" rx="2.6149" ry="2.6149" fill="#c4a000"/>
   <path id="path71" d="m20.3 25.5h10.4v-2.6c0-2.6-0.65-2.6-5.2-2.6s-5.2 0-5.2 2.6v2.6z" fill="#fcffff" fill-rule="evenodd" opacity=".3"/>
   <path id="path73" transform="matrix(.60272 0 0 .60366 29.09 29.54)" d="m-6.4567-5.8132v0.76c0 1.04-0.16 1.76-0.64 2.68-0.72 1.56-0.8 1.76-0.8 2.36 0 1.16 0.88 2.12 1.92 2.12 1.08 0 1.92-0.96 1.92-2.16 0-0.4-0.12-0.92-0.4-1.44-0.92-1.96-1-2.28-1-3.56v-0.76l0.64 0.4c0.84 0.48 1.48 1.04 2.04 1.84 1.32 1.8 1.76 2.16 2.84 2.16 1 0 1.8-0.76 1.8-1.76 0-1.24-1.04-2.16-2.6-2.28-1.96-0.12-2.32-0.2-3.56-0.88l-0.64-0.36 0.64-0.36c0.92-0.52 1.6-0.76 2.64-0.8 1.6-0.16 1.72-0.16 2.2-0.36 0.8-0.4 1.32-1.12 1.32-1.96 0-1.04-0.84-1.84-1.88-1.84-0.88 0-1.6 0.44-2.24 1.4-1.12 1.68-1.36 1.92-2.56 2.64l-0.64 0.4v-0.76c0-1 0.16-1.76 0.64-2.68 0.76-1.6 0.8-1.76 0.8-2.32 0-1.2-0.88-2.16-1.96-2.16-1.04 0-1.92 0.96-1.92 2.12 0 0.44 0.12 0.96 0.4 1.48 0.96 2 1.04 2.28 1.04 3.56v0.76l-0.64-0.4c-0.92-0.52-1.44-1.04-2.04-1.88-0.8-1.2-0.8-1.2-1.12-1.52-0.44-0.4-1.08-0.64-1.6-0.64-1.08 0-1.92 0.84-1.92 1.84 0 1.24 1 2.12 2.56 2.24 2.04 0.12 2.36 0.2 3.6 0.88l0.64 0.36-0.64 0.4c-0.84 0.48-1.64 0.72-2.64 0.8-1.56 0.08-1.68 0.12-2.2 0.32-0.8 0.36-1.32 1.12-1.32 1.96 0 1 0.84 1.84 1.88 1.84 0.88 0 1.64-0.48 2.24-1.4 1.08-1.6 1.4-1.96 2.56-2.64z" fill="#fff" stroke="#fff" stroke-width=".49736"/>
  </g>
 </g>
</svg>
