<svg height="24" viewBox="0 0 6.3499999 6.3500002" width="24" xmlns="http://www.w3.org/2000/svg"><g fill-rule="evenodd"><path d="m.21387155.81343653v.41939607h5.87154485v-.41939607z" fill="#888a85"/><path d="m.63347422 1.2328326v4.6133566h.41939608v-4.6133566z" fill="#b2b2b2"/><path d="m1.0526637 1.9591893v.4193961h.8389984v-.4193961z" fill="#b2b2b2"/><path d="m1.0379072 4.9783355v.4193958h.838792v-.4193958z" fill="#b2b2b2"/><path d="m3.3727126 4.7698011h2.4481208v.83646154h-2.4481208z" fill="#fce94f" stroke="#afcc00" stroke-width=".192917"/><path d="m1.0130849 3.4805437v.4193961h.8389983v-.4193961z" fill="#b2b2b2"/><path d="m3.3727129 3.272011h2.4481208v.83646154h-2.4481208z" fill="#fce94f" stroke="#afcc00" stroke-width=".192917"/><path d="m3.3727124 1.7506566h2.4481208v.83646154h-2.4481208z" fill="#fce94f" stroke="#afcc00" stroke-width=".192917"/></g><path d="m2.0725693 4.8947917.4409723.6614584.6614583-1.1024306" fill="none" stroke="#415a75" stroke-width=".220486"/><path d="m2.0725693 3.4616319.4409722.6614585.6614584-1.1024306" fill="none" stroke="#415a75" stroke-width=".220486"/><path d="m2.0725693 2.0284723.4409723.6614583.6614583-1.1024306" fill="none" stroke="#415a75" stroke-width=".220486"/><path d="m1.959675 1.594087h1.217662v1.217083h-1.217662z" fill="none" stroke-width=".255684"/><g transform="matrix(.26458334 0 0 .26458334 .002374 .002374)"><path d="m14.357 13.5h8.285c.474 0 .857.384.857.857v8.285c0 .474-.384.857-.857.857h-8.285c-.474 0-.857-.384-.857-.857v-8.285c0-.473.384-.857.857-.857z" fill="#c00" opacity=".9" stroke="#c00" stroke-linecap="square" stroke-linejoin="round"/><path d="m13.5 18.5h10v-3.334c0-1.666 0-1.666-2.5-1.666-.582 0-5.061 0-5.834 0-1.666 0-1.666 0-1.666 1.666z" fill="#fcffff" opacity=".5"/><g fill="none" stroke="#eeeeec" stroke-linecap="round"><path d="m16.373 20.65 4.254-4.301" stroke-width="1.5"/><circle cx="18.5" cy="18.5" r="4.15625" stroke-width="1.6875"/></g></g></svg>