<svg height="24" width="24" xmlns:xlink="http://www.w3.org/1999/xlink" xmlns="http://www.w3.org/2000/svg"><defs><linearGradient id="a" gradientUnits="userSpaceOnUse" x1="-18.900923" x2="-10.900922" y1="10.221774" y2="10.221774"><stop offset="0" stop-color="#ececec"/><stop offset="1" stop-color="#f1f1f1"/></linearGradient><linearGradient xlink:href="#a" id="b" x1="1.000002" y1="12" x2="22.999998" y2="12" gradientUnits="userSpaceOnUse"/></defs><path d="M 1.4999995,1.4999975 H 22.500001 V 22.500002 H 1.4999995 Z" fill="url(#b)" stroke="#9a9a9a" stroke-width=".999995"/><path d="m 2.9749119,12.114504 v 1.462962 H 21.304026 v -1.462962 z m 0,2.925925 v 1.462963 H 16.721748 v -1.462963 z m 0,2.925926 v 1.462963 H 19.7766 v -1.462963 z" fill="#333" fill-opacity=".28898793"/><path d="M 7.3758592,4.371852 4,7.685926 7.3758592,11 M 13,11 16.375859,7.685926 13,4.371852 M 9.0631009,11 11.312758,4.371852" stroke="#ececec" stroke-width="3.00001" fill="none" stroke-linecap="round" stroke-linejoin="round"/><path d="M 7.3758592,4.371852 4,7.685926 7.3758592,11 M 13,11 16.375859,7.685926 13,4.371852 M 9.0631009,11 11.312758,4.371852" stroke="#854cc1" stroke-width="1.2" fill="none" stroke-linecap="round" stroke-linejoin="round"/><g stroke-dashoffset="0.5" stroke-linejoin="round"><path d="m 12.03,17.13 3.877,2.239 -4.627,3.351 z" fill="#505050" stroke="#505050" stroke-linecap="round" stroke-width="0.559545" transform="matrix(0.81753454,0,0,0.81753454,4.9648775,0.68372814)"/><path d="M 18.372,6.147 22.248,8.385 15.907,19.369 12.03,17.131 Z" fill="#fce94f" stroke="#8b7617" stroke-linecap="round" stroke-width="0.559545" transform="matrix(0.81753454,0,0,0.81753454,4.9648775,0.68372814)"/><path d="m 19.614,7.726 -5.596,9.691" fill="none" opacity="0.5" stroke="#fcffff" stroke-width="1.49212" transform="matrix(0.81753454,0,0,0.81753454,4.9648775,0.68372814)"/><path d="m 20.906,8.472 -5.595,9.691" fill-opacity="0.588" opacity="0.25" stroke="#000" stroke-width="1.49212" transform="matrix(0.81753454,0,0,0.81753454,4.9648775,0.68372814)"/><path d="M 20.583,8.285 14.614,18.623" fill="#fce94f" opacity="0.5" stroke="#8b7617" stroke-linecap="round" stroke-width="0.559545" transform="matrix(0.81753454,0,0,0.81753454,4.9648775,0.68372814)"/><path d="M 12.266,21.747 15.4,19.297 14.11,18.553 Z" fill="#969696" stroke="#969696" stroke-linecap="square" stroke-width="0.37303" transform="matrix(0.81753454,0,0,0.81753454,4.9648775,0.68372814)"/><path d="M 18.968,7.353 12.999,17.69" fill="#fce94f" opacity="0.5" stroke="#8b7617" stroke-linecap="round" stroke-width="0.559545" transform="matrix(0.81753454,0,0,0.81753454,4.9648775,0.68372814)"/><g fill="#e6e6e6" stroke-width="0.37303"><path d="m 18.639,5.34 4.174,2.41 -0.812,1.408 -4.175,-2.41 z" stroke="#969696" stroke-linecap="round" transform="matrix(0.81753454,0,0,0.81753454,4.9648775,0.68372814)"/><path d="m 11.732,21.575 0.613,-4.041 1.29,0.745 z" stroke="#e6e6e6" stroke-linecap="square" transform="matrix(0.81753454,0,0,0.81753454,4.9648775,0.68372814)"/></g></g></svg>