<?xml version="1.0" encoding="UTF-8"?>
<svg width="24" height="24" xmlns="http://www.w3.org/2000/svg">
 <g transform="translate(0 -8)">
  <path d="m2.4962 17.496h19.008v5.0076h-19.008z" fill="#fce94f" overflow="visible" stroke="#c4a000" stroke-linecap="round" stroke-width=".99241"/>
  <path d="m2.5385 10.538h18.923v4.9231h-18.923z" fill="#fce94f" overflow="visible" stroke="#c4a000" stroke-linecap="round" stroke-width="1.0769"/>
  <path d="m2.5385 24.538h18.923v4.9231h-18.923z" fill="#fce94f" overflow="visible" stroke="#c4a000" stroke-linecap="round" stroke-width="1.0769"/>
  <path d="m9.2102 23.866 4.993 2.8944-5.9593 4.3337 0.96627-7.2281z" fill="#505050" stroke="#2a2a2a" stroke-dashoffset=".5" stroke-linecap="round" stroke-linejoin="round" stroke-width=".75"/>
  <path d="m17.378 9.6615 4.993 2.8944-8.1677 14.204-4.993-2.8944 8.1677-14.204" fill="#fb7123" stroke="#474747" stroke-dashoffset=".5" stroke-linecap="round" stroke-linejoin="round" stroke-width=".75"/>
  <path d="m18.978 11.703-7.2068 12.533" fill="none" opacity=".5" stroke="#fcffff" stroke-dashoffset=".5" stroke-linejoin="round" stroke-width="2"/>
  <path d="m20.642 12.668-7.2068 12.533" fill-opacity=".70647" opacity=".363" stroke="#000" stroke-dashoffset=".5" stroke-linejoin="round" stroke-width="2"/>
  <path d="m9.5137 29.835 4.0371-3.1674-1.6618-0.96333-2.3753 4.1307z" fill="#969696" stroke="#969696" stroke-dashoffset=".5" stroke-linecap="square" stroke-linejoin="round" stroke-width=".5"/>
  <path transform="matrix(.86515 .50151 -.49849 .8669 0 0)" d="m19.659-1.432h6.2152v2.1003h-6.2152z" fill="#e6e6e6" stroke="#969696" stroke-dashoffset=".5" stroke-linecap="round" stroke-linejoin="round" stroke-width=".5"/>
  <path d="m8.8265 29.613 0.78951-5.2263 1.6618 0.96332-2.4513 4.263z" fill="#e6e6e6" stroke="#e6e6e6" stroke-dashoffset=".5" stroke-linecap="square" stroke-linejoin="round" stroke-width=".5"/>
 </g>
</svg>
