<svg width="32" height="32" xmlns="http://www.w3.org/2000/svg"><g><path d="m.769 8.45h29.5v21.5h-29.5z" fill="#e6e6e6" stroke="#6e97c4" stroke-width="1.5"/><path d="m.769.768h29.5v7.68h-29.5z" fill="#bad9ec" stroke="#6e97c4" stroke-width="1.5"/><path d="m5 4.5h6" fill="none" overflow="visible" stroke="#6e97c4" stroke-width="3"/><path d="m14 4.5h12" fill="none" stroke="#6e97c4" stroke-width="3"/><path d="m5 11.2h6" fill="none" overflow="visible" stroke="#6e97c4" stroke-width="1.5"/><path d="m14 11.2h12" fill="none" stroke="#6e97c4" stroke-width="1.5"/><path d="m5 16.2h6" fill="none" overflow="visible" stroke="#c00" stroke-width="1.5"/><path d="m14 16.2h12" fill="none" stroke="#c00" stroke-width="1.5"/><path d="m5 21.2h6" fill="none" overflow="visible" stroke="#6e97c4" stroke-width="1.5"/><path d="m14 21.2h12" fill="none" stroke="#6e97c4" stroke-width="1.5"/><path d="m5 25.2h6" fill="none" overflow="visible" stroke="#6e97c4" stroke-width="1.5"/><path d="m14 25.2h12" fill="none" stroke="#6e97c4" stroke-width="1.5"/></g><rect x="17" y="17" width="15" height="15" rx="3" fill="#d26464" stroke-width="1.5"/><path d="m20 18c-1.11 0-2 .892-2 2v4.5h13v-4.5c0-1.11-.892-2-2-2z" fill="#fff" opacity=".3" stroke-width="1.5"/><path d="m21 28 6.97-6.97" fill="#fff" fill-rule="evenodd" stroke="#fff" stroke-linecap="round" stroke-linejoin="round" stroke-width="3"/><path d="m21 21 6.97 6.97" fill="#fff" fill-rule="evenodd" stroke="#fff" stroke-linecap="round" stroke-linejoin="round" stroke-width="3"/></svg>
