<svg xmlns="http://www.w3.org/2000/svg" height="24" width="24"><path d="M.5 19.5h21V5.664L16.5.5H.5z" fill="#fff" fill-rule="evenodd" stroke="#727272" stroke-linejoin="round"/><path fill="#7399ec" fill-opacity=".44" d="M3 2h13v1H3zM2.051 17.038h18.008v1H2.051z"/><path d="M21.5 5.5h-5v-5z" fill="#f0f0f0" fill-rule="evenodd" stroke="#727272" stroke-linejoin="round"/><g transform="translate(33)"><rect y="13" x="-20" width="11" rx="2.011" height="11" fill="#c4a000"/><path d="M-15 14v2.063a2.501 2.501 0 0 0-1.375.78l-1.781-1.03-.5.874 1.781 1.032A2.46 2.46 0 0 0-17 18.5c0 .275.043.534.125.781l-1.781 1.032.5.875 1.781-1.032c.353.4.833.67 1.375.782V23h1v-2.063a2.501 2.501 0 0 0 1.375-.78l1.781 1.03.5-.875-1.781-1.03A2.46 2.46 0 0 0-12 18.5a2.46 2.46 0 0 0-.125-.781l1.781-1.032-.5-.875-1.781 1.032c-.353-.4-.833-.67-1.375-.782V14zm.5 3.5a1 1 0 1 1 0 2 1 1 0 0 1 0-2z" fill="#fcffff"/><path d="M-19 19l9-.01v-2C-10 14-11 14-14.5 14s-4.5 0-4.5 3v2z" opacity=".3" fill="#fcffff" fill-rule="evenodd"/></g><path d="M2.498 2.496v18.99h4.016V7.547l4.96.036v-5.05l-4.96-.036z" fill="#ffe680" stroke="#d4aa00" stroke-linecap="square"/><path fill="#d4aa00" fill-opacity=".647" d="M3.027 2.56L7 6l-.85.766-3.972-3.44z"/><path fill="#b29000" d="M2 7h3v1H2zM2 9h3v1H2zM2 11h3v1H2zM2 13h3v1H2zM2 15h3v1H2z"/><path fill="#7399ec" fill-opacity=".44" d="M20 13V6h-1v7z"/><path fill="#b29000" d="M2.024 16.992h3v1h-3z"/></svg>