<svg height="24" width="24" xmlns="http://www.w3.org/2000/svg"><g transform="translate(0 -8)"><path d="m16.5 8.5c0 4.418278-3.581722 8-8 8s-8-3.581722-8-8 3.581722-8 8-8 8 3.581722 8 8z" fill="#edd400" stroke="#edd400" stroke-linecap="round" stroke-linejoin="round" stroke-width="1.454546" transform="matrix(.68750004 0 0 .68750004 6.15625 14.15625)"/><rect fill="#4e9a06" height="11" opacity=".9" rx="2.01149" width="11" x="13" y="21"/><path d="m15.5 29.5 3-6 3 6z" fill="#fff" opacity=".9" stroke="#fff" stroke-linecap="round" stroke-linejoin="round"/><path d="m14 27 9-.0096s0 0 0-2c0-2.9904-1-2.9904-4.5-2.9904s-4.5 0-4.5 3z" fill="#fcffff" fill-rule="evenodd" opacity=".3"/><g fill="#edd400" stroke="#edd400" stroke-linecap="round" stroke-linejoin="round" stroke-width="1.5"><path d="m1.5 20h3" opacity=".9"/><path d="m19.5 20h3" opacity=".9"/><path d="m12 9.5v3" opacity=".9"/><path d="m12 27.5v3" opacity=".9"/><path d="m4.7928932 12.792893 1.4142136 1.414214" opacity=".9"/><path d="m5.0857862 27 1.414214-1.414214" opacity=".9"/><path d="m17.585786 14.414214 1.414214-1.414214" opacity=".9"/></g></g></svg>