<svg height="24" width="24" xmlns="http://www.w3.org/2000/svg"><path d="m0 0h5.5v5.5000003h-5.5z" fill="#6d97c4" stroke-width=".846154"/><path d="m0 0h19.499998v19.499998h-19.499998z" fill="none"/><g transform="matrix(.69230769 0 0 .69230769 1.846154 1.846154)"><rect fill="#5a8c5a" height="13" rx="2.614937" width="13" x="19" y="19"/><g fill-rule="evenodd"><path d="m21.6 25.499999h7.8" fill="#fff" stroke="#fff" stroke-linecap="round" stroke-linejoin="round" stroke-width="2.6"/><path d="m25.5 29.399999v-7.799999" fill="#fff" stroke="#fff" stroke-linecap="round" stroke-linejoin="round" stroke-width="2.6"/><path d="m20.3 25.499999h10.4s0 0 0-2.6c0-2.599999-.65-2.599999-5.2-2.599999s-5.2 0-5.2 2.599999z" fill="#fcffff" opacity=".3"/></g></g><g fill="#6d97c4" stroke-width=".846154"><path d="m7.5-.00000023h5.5v5.50000023h-5.5z"/><path d="m15 0h5.5v5.5000002h-5.5z"/><path d="m0 7.5h5.5v5.5h-5.5z"/><path d="m7.5 7.4999998h5.5v5.5000002h-5.5z"/><path d="m15 7.5h5.5v5.5h-5.5z"/><path d="m-.0000002 15h5.5000002v5.5h-5.5000002z"/><path d="m7.5 15h5.5v5.5h-5.5z"/></g></svg>