<?xml version="1.0" encoding="UTF-8"?>
<svg width="24" height="24" viewBox="0 0 6.35 6.35" xmlns="http://www.w3.org/2000/svg">
 <path d="m0.21387 0.81344v0.4194h5.8715v-0.4194z" fill="#888a85" fill-rule="evenodd" overflow="visible"/>
 <path d="m0.63347 1.2328v4.6134h0.4194v-4.6134z" fill="#b2b2b2" fill-rule="evenodd" overflow="visible"/>
 <path d="m1.0527 1.9592v0.4194h0.839v-0.4194z" fill="#b2b2b2" fill-rule="evenodd" overflow="visible"/>
 <path d="m1.0379 4.9783v0.4194h0.83879v-0.4194z" fill="#b2b2b2" fill-rule="evenodd" overflow="visible"/>
 <path d="m3.3727 4.7698h2.4481v0.83646h-2.4481z" fill="#fce94f" fill-rule="evenodd" stroke="#afcc00" stroke-width=".19292"/>
 <path d="m1.0131 3.4805v0.4194h0.839v-0.4194z" fill="#b2b2b2" fill-rule="evenodd" overflow="visible"/>
 <path d="m3.3727 3.272h2.4481v0.83646h-2.4481z" fill="#fce94f" fill-rule="evenodd" stroke="#afcc00" stroke-width=".19292"/>
 <path d="m3.3727 1.7507h2.4481v0.83646h-2.4481z" fill="#fce94f" fill-rule="evenodd" stroke="#afcc00" stroke-width=".19292"/>
 <path d="m2.0726 4.8948 0.44097 0.66146 0.66146-1.1024" fill="none" stroke="#415a75" stroke-width=".22049"/>
 <path d="m2.0726 3.4616 0.44097 0.66146 0.66146-1.1024" fill="none" stroke="#415a75" stroke-width=".22049"/>
 <path d="m2.0726 2.0285 0.44097 0.66146 0.66146-1.1024" fill="none" stroke="#415a75" stroke-width=".22049"/>
</svg>
