<?xml version="1.0" encoding="UTF-8"?>
<svg width="24" height="24" xmlns="http://www.w3.org/2000/svg">
 <g transform="translate(0 -8)">
  <circle transform="matrix(.29412 0 0 .29412 4.9706 5.1176)" cx="12" cy="20" r="8.5" fill="#2a7fff" stroke="#333" stroke-linejoin="round" stroke-miterlimit=".4" stroke-opacity=".97255" stroke-width="1.0017"/>
  <circle transform="matrix(.29412 0 0 .29412 16.971 11.118)" cx="12" cy="20" r="8.5" fill="#2a7fff" stroke="#333" stroke-linejoin="round" stroke-miterlimit=".4" stroke-opacity=".97255" stroke-width="1.0017"/>
  <circle transform="matrix(.29412 0 0 .29412 -.029412 22.118)" cx="12" cy="20" r="8.5" fill="#2a7fff" stroke="#333" stroke-linejoin="round" stroke-miterlimit=".4" stroke-opacity=".97255" stroke-width="1.0017"/>
  <path transform="translate(0 8)" d="m7.7946 5.3984-3.5892 12.203" fill="none" stroke="#000"/>
  <path d="m10.765 12.059 7.5103 3.7876" fill="none" stroke="#000"/>
  <path d="m5.6839 26.762 12.715-8.4121" fill="none" stroke="#000" stroke-dasharray="1 1"/>
  <g transform="translate(-.16181 -.92426)">
   <g transform="translate(38 24.5)" fill-rule="evenodd" stroke-width=".6">
    <path d="m-17.5 7-10-10 2-2 10 10z" fill="#b9770e" fill-opacity=".9902" stroke="#986005"/>
    <path d="m-26 .5h-1l-1-1v-1l3.5-3.5 3-1 1 1z" fill="#d5d5d5" stroke="#717171"/>
   </g>
   <g transform="matrix(.23888 0 0 .23884 24.846 14.811)" stroke-width="2.5119">
    <path d="m-35.439 40.244s18.021-18.034 18.199-18.213c0.05144-0.22201 0.39362-2.1682 0.39362-2.1682 0.0255-0.10966 0.09125-0.20545 0.18429-0.26901l5.3729-3.5025c0.07604-0.05192 0.16371-0.07744 0.25138-0.07744 0.1154 0 0.22991 0.04476 0.31624 0.13115l2.0786 2.08c0.15476 0.15442 0.17489 0.39837 0.04786 0.57652l-3.6794 5.3771c-0.0662 0.09265-0.16505 0.15666-0.27643 0.17904 0 0-1.8357 0.26006-2.0687 0.30706-0.18965 0.18934-18.194 18.207-18.194 18.207-0.08409 0.08415-0.19726 0.13115-0.31624 0.13115s-0.23259-0.047-0.31624-0.13115l-1.9936-1.995c-0.17444-0.17546-0.17444-0.4588 4.87e-4 -0.63336z" fill="#d5d5d5" stroke="#717171"/>
    <path d="m-61.566 61.28 16.754-16.766c0.88922-0.88984 1.9855-1.3554 3.1561-1.3554 0.22007 0 0.44461 0.03581 0.66915 0.06893 0.22722-0.22694 1.205-1.2059 1.3839-1.3849 0.02728-0.29542 0.32831-3.5943 0.32831-3.5943 0.0022-0.02372 0.0063-0.047 0.01207-0.07027 0.12211-0.47894 0.4124-0.81375 0.79529-0.91894 0.08364-0.02283 0.16863-0.03402 0.25406-0.03402 0.30818 0 0.62487 0.14502 0.89816 0.41896l7.0994 7.1053c0.34934 0.34958 0.48979 0.76988 0.38467 1.153-0.10511 0.38315-0.43969 0.6741-0.91874 0.79629-0.02326 0.0063-0.04652 0.01029-0.07023 0.01208 0 0-3.2957 0.30169-3.5909 0.3281-0.17892 0.17904-1.1567 1.158-1.3835 1.3853 0.20978 1.4194-0.22857 2.7725-1.286 3.8275l-16.754 16.766c-0.9013 0.90193-2.0092 1.3786-3.2044 1.3786-1.4143 0-2.8519-0.66022-4.0489-1.8576-2.2758-2.2779-2.4726-5.263-0.47816-7.2588z" fill="#fce94f" stroke="#c4a000"/>
   </g>
  </g>
 </g>
</svg>
