<svg xmlns="http://www.w3.org/2000/svg" height="24" width="24"><g stroke-width=".632"><path d="M7.5 1.498l9 .002.133 14.5L12 21.5l-4.5-5z" fill="#6d97c4" fill-rule="evenodd"/><path d="M8 2h1v15.405l-1-1.062z" fill="#bacee3" fill-rule="evenodd"/><path d="M8.377 3.579l7.247.001v12.154L12 19.785l-3.624-4.051z" fill="none" stroke="#415a75" stroke-width=".808" transform="matrix(1.24205 0 0 1.23418 -2.905 -2.919)"/></g><g transform="translate(33)"><rect y="13" x="-20" width="11" rx="2.011" height="11" fill="#c4a000"/><path d="M-15 14v2.063a2.501 2.501 0 0 0-1.375.78l-1.781-1.03-.5.874 1.781 1.032A2.46 2.46 0 0 0-17 18.5c0 .275.043.534.125.781l-1.781 1.032.5.875 1.781-1.032c.353.4.833.67 1.375.782V23h1v-2.063a2.501 2.501 0 0 0 1.375-.78l1.781 1.03.5-.875-1.781-1.03A2.46 2.46 0 0 0-12 18.5a2.46 2.46 0 0 0-.125-.781l1.781-1.032-.5-.875-1.781 1.032A2.49 2.49 0 0 0-14 16.062V14zm.5 3.5a1 1 0 1 1 0 2 1 1 0 0 1 0-2z" fill="#fcffff"/><path d="M-19 19l9-.01v-2C-10 14-11 14-14.5 14s-4.5 0-4.5 3v2z" opacity=".3" fill="#fcffff" fill-rule="evenodd"/></g></svg>
