<svg height="24" viewBox="0 0 6.3499999 6.3500002" width="24" xmlns="http://www.w3.org/2000/svg"><path d="m1.715-.03c-1.498 0-1.715.215-1.715 1.712v1.863c0 1.499.217 1.715 1.715 1.715h1.862c1.503 0 1.715-.216 1.715-1.714v-1.863c0-1.497-.212-1.713-1.715-1.713z" fill="#6d97c4"/><path d="m.822 1.738v1.798h.267q.337 0 .494-.217.157-.218.157-.685 0-.465-.156-.68-.157-.217-.495-.217zm-.222-.258h.455q.475 0 .697.282.223.278.223.873 0 .597-.224.878-.222.28-.695.28h-.456zm1.947 1.21v.846h.355q.18 0 .264-.104.087-.105.087-.32 0-.217-.087-.32-.085-.103-.264-.103zm0-.952v.697h.328q.162 0 .24-.085.08-.087.08-.263 0-.175-.08-.262-.078-.087-.24-.087zm-.22-.257h.564q.254 0 .39.15.138.15.138.423 0 .212-.07.337-.07.126-.206.156.163.05.253.208.09.156.09.392 0 .31-.148.478-.15.17-.424.17h-.587zm1.747 2.049h.772v.263h-1.038v-.263q.126-.185.343-.494.22-.31.274-.4.107-.17.148-.286.043-.118.043-.23 0-.185-.092-.3-.09-.117-.238-.117-.104 0-.22.05-.115.052-.246.156v-.317q.132-.076.248-.115.117-.04.213-.04.255 0 .406.18.15.18.15.48 0 .143-.037.272-.038.127-.138.3-.027.045-.174.26l-.414.6z" fill="#fff" stroke-width=".222"/><g transform="matrix(.18317 0 0 .18317 .488 .488)"><rect fill="#5a8c5a" height="13" rx="2.615" width="13" x="19" y="19"/><g fill-rule="evenodd"><path d="m21.6 25.5h7.8m-3.9 3.9v-7.8" fill="#fff" stroke="#fff" stroke-linecap="round" stroke-linejoin="round" stroke-width="2.6"/><path d="m20.3 25.5h10.4v-2.6c0-2.6-.65-2.6-5.2-2.6s-5.2 0-5.2 2.6z" fill="#fcffff" opacity=".3"/></g></g></svg>