<svg height="24" width="24" xmlns="http://www.w3.org/2000/svg">
<g transform="translate(0 -8)">
<g transform="matrix(.69230769 0 0 .69230769 1.8461539 9.8461539)">
<rect fill="#5a8c5a" height="13" rx="2.6149371" ry="2.6149368" width="13" x="19" y="19"/>
<path d="m21.6 25.499999l7.8 0" style="fill:#fff;fill-rule:evenodd;stroke:#fff;stroke-width:2.5999999;stroke-linecap:round;stroke-linejoin:round;overflow:visible"/>
<path d="m25.5 29.399999l0-7.799999" style="fill:#fff;fill-rule:evenodd;stroke:#fff;stroke-width:2.5999999;stroke-linecap:round;stroke-linejoin:round;overflow:visible"/>
<path d="m20.3 25.499999h10.4c0 0 0 0 0-2.6 0-2.599999-.65-2.599999-5.2-2.599999-4.55 0-5.2 0-5.2 2.599999 0 2.6 0 2.6 0 2.6z" fill="#fcffff" fill-rule="evenodd" opacity=".3"/>
</g>
<path d="m16.021573 15.513931c-.000008 0-.160008.04-.48.12-.360008.08-.740007.12-1.14.12-1.080006 0-1.940005-.26-2.58-.78-.640004-.559999-.960003-1.319998-.96-2.28-.000003-.999996.319996-1.819995.96-2.46.679995-.6399938 1.539994-.9599935 2.58-.9599996 1.359992.0000061 2.499991.5200056 3.42 1.5599996.919989 1.000004 1.379988 2.260003 1.38 3.78-.000012 1.799999-.620011 3.539998-1.86 5.22-1.240009 1.679994-2.860007 3.019993-4.86 4.02l-.54-1.14c3.279992-2.240005 4.919991-4.360003 4.92-6.36-.000009-.56-.280009-.84-.84-.84" fill="#6e97c4" stroke="#315479" stroke-width=".9158597" transform="matrix(1.196301 0 0 1.0941149 -8.5062083 .53215924)"/>
</g>
</svg>
