<svg height="24" width="24" xmlns="http://www.w3.org/2000/svg"><path d="m.87923617.79021565 4.23001403 10.85909935.733002 2.9484.08775 2.2286 16.1624398 5.0508-3.21986-11.0485 4.04061-9.7227993-10.829921 4.0172z" fill="#e5e5e5"/><path d="m.87923517.79023865 4.23001403 10.85913835.820749 5.177032 16.1624398 5.050762-3.21986-11.048543 4.04061-9.7227173-10.695993 4.106471z" fill="none" stroke="#424242" stroke-dasharray="4 1"/><g transform="matrix(1.1228004 0 0 1.1225886 -41.27947 -28.832162)"><circle cx="43.444469" cy="32.365807" fill="#6d97c4" r="6.127575" stroke="#445e75" stroke-miterlimit="10" stroke-width=".213668"/><g fill="#fff"><path d="m38.481599 33.476456c.156406-1.798872.507676-2.87811 1.624733-3.995167 1.20637-1.20637 2.323641-1.766181 4.434682-2.246507 1.037146-.23589-.759376-1.017915-3.245405-.08782-1.335426.499556-2.690937 1.803359-3.166562 3.703297-.576263 2.30035.280973 3.449886.352552 2.626195z" opacity=".3" stroke-width=".373117"/><path d="m44.913438 34.944997-.151705-.151277c-.138243-.138029-.402978-.11068-.512376.05299-.06859.102774-.385671.430968-.58545.585237.02479-.102348.07222-.258752.161532-.51259l.801256-2.274711c.188241-.538658.301913-.863861.301913-1.141202 0-.438874-.323493-.722626-.823691-.722626-1.263419 0-2.252276 1.140988-2.618289 1.631143-.0047.0062-.009.01218-.01282.01752-.06303.07158-.08803.167088-.06837.264948.01517.07564.05662.148927.120082.212387l.113671.113458c.06795.06795.156191.105338.24871.105338.06901 0 .17243-.02159.274136-.124355l.01881-.02201c.131833-.175635.378192-.441224.558315-.604681-.03098.105125-.07479.234181-.126279.38268l-.557032 1.623665c-.396782 1.147183-.545281 1.576443-.545281 1.815538 0 .312596.19978.646345.760445.646345 1.742464 0 2.601409-1.294401 2.695637-1.445037.09594-.160679.07756-.321143-.0532-.452763z" stroke="#34497d" stroke-miterlimit="10" stroke-width=".213668"/><path d="m44.205769 28.173854c-.560238 0-1.051461.48524-1.051461 1.038641 0 .630962.422635 1.03864 1.076674 1.03864.642073 0 1.139919-.592288 1.139919-1.101886.000214-.449772-.304904-.975395-1.165132-.975395z" stroke="#34497d" stroke-miterlimit="10" stroke-width=".213668"/></g></g><path d="m22.774364 15.845515-12.756464-6.9790993 5.477553 13.6013993 2.180887-3.5312 4.312159 4.7134 1.633122-1.5913-4.408599-4.6683z" style="fill:#fff;fill-rule:evenodd;stroke:#000;stroke-width:.7;stroke-linecap:round;stroke-linejoin:round"/></svg>