<svg height="24" width="24" xmlns="http://www.w3.org/2000/svg"><g transform="translate(0 -1028.3622)"><path d="m1.5 1049.8622v-21h10l5 5v16.0004z" fill="#fff" fill-rule="evenodd" stroke="#979797" stroke-linejoin="round"/><path d="m3.5047406 1046.2188c-.2942849-.1796-.4047406-.3702-.4047406-.6992 0-.5307.7614257-1.2413 2.0678887-1.9303.778568-.4105.8366267-.3006.1142817.2161-.876715.6272-1.6413677 1.5777-1.6472632 2.0478-.00256.1973.096007.1656.5139284-.1647 1.1643017-.9204 3.5011448-4.7347 4.3229629-7.0559l.1336215-.3775-.2892968-1.1426c-.2235417-.883-.2960729-1.3332-.3191491-1.9806-.033561-.9445.017752-1.1113.4280636-1.3879.8113342-.5467 1.4616452.2114 1.3513312 1.5754-.02553.3159-.163811 1.0108-.307242 1.5443l-.26078.9698.255792.5339c.509002 1.062 1.4088461 2.1689 2.1857431 2.6882l.399727.2673.723567-.101c.872569-.1218 2.219443-.1388 2.59836-.034.151413.042.365626.1603.476043.2627.388402.3599.216506 1.0943-.355325 1.518-.158279.1178-.357475.1653-.772141.1862-.833297.042-1.565246-.2078-2.81961-.9634l-.45377-.2731-.99339.2021c-.5463711.1117-1.4702347.3476-2.0530533.5255-1.0592739.3232-1.0597403.3234-1.2567345.6585-.9122163 1.5513-1.8753395 2.6993-2.4751178 2.95-.3746952.1566-.8728272.141-1.1636281-.036zm11.8709654-3.5863c.387133-.1076.618863-.3074.553562-.4775-.02877-.074-.193573-.2117-.366455-.3042-.2869-.1534-.410611-.1669-1.418719-.1545-.607423.013-1.190086.047-1.294828.089-.177623.07-.146216.095.468191.3863.582818.276 1.332803.5166 1.664469.5338.06284 0 .240036-.031.39378-.072zm-5.7266921-.7951c.3567761-.1032.7943621-.211.9724001-.2385.178038-.027.32371-.056.32371-.062 0-.013-.17485-.1996-.388545-.4282-.460028-.4919-1.0503601-1.3097-1.3860301-1.9199-.1324948-.241-.2587062-.4375-.2804609-.4368-.021765.0007-.1584602.3828-.3038088.8491-.2067624.6636-.8065406 2.2391-1.1170616 2.9344-.022161.05.3132152-.044.7453607-.2088.4321572-.165 1.0776596-.3847 1.4344356-.4886zm-.216273-5.9373c.188986-.7207.16547-1.3211-.06375-1.6283-.6041575-.8093-.8239022.8806-.3545849 2.7264.044053.1731.05792.1594.1543139-.1524.05831-.1885.177066-.6141.264044-.9457z" fill="#ec2606" stroke="#ec2606" stroke-width=".2"/><path d="m11.5 1028.8622v5h5z" fill="#f0f0f0" fill-rule="evenodd" stroke="#979797" stroke-linejoin="round"/><rect fill="#3c5a6e" height="11" rx="2.01149" width="11" x="13" y="1041.3622"/><path d="m14.000001 1047.3622 8.999999-.01s0 0 0-2c0-2.9904-1-2.9904-4.5-2.9904s-4.5 0-4.5 3c0 2 0 2 .000001 2z" fill="#fcffff" fill-rule="evenodd" opacity=".3"/><g fill="none" stroke="#fff" stroke-linecap="round" stroke-linejoin="round"><path d="m21.004293 1044.8679 1.495712 1.9943-1.495712 1.9943"/><path d="m17.75 1045.3622v-1.25h-2.5v5.5h2.5v-1" stroke-width="1.5"/><path d="m17 1046.8622h4.393183"/></g></g></svg>