<svg height="24" viewBox="0 0 24 24" width="24" xmlns="http://www.w3.org/2000/svg"><g transform="translate(0 -8)"><path d="m2.5 10.5 6.5 12.5 6-10h6" fill="none" stroke="#8cbe8c" stroke-linecap="round" stroke-linejoin="round" stroke-width="2"/><g fill="#bebebe" stroke="#8c8c8c"><path d="m1.5 9.5h3v3h-3z"/><path d="m7.5 21.5h3v3h-3z"/><path d="m13.5 11.5h3v3h-3z"/><path d="m19.5 11.5h3v3h-3z"/></g><g transform="translate(-27.5 6.000001)"><rect fill="#3c5a6e" height="11" rx="2.01149" width="11" x="40.5" y="14.999999"/><g fill-rule="evenodd"><path d="m41.500001 20.999999 8.999999-.009599s0 0 0-2c0-2.990401-1-2.990401-4.5-2.990401s-4.5 0-4.5 3c0 2 0 2 .000001 2z" fill="#fcffff" opacity=".3"/><path d="m45.5 15.999999v3.000001h-4v3h4v2.999999l5-4z" fill="#fff"/></g></g></g></svg>