<svg height="24" width="24" xmlns="http://www.w3.org/2000/svg"><g transform="translate(0 -8)"><rect fill="#f7f93d" height="21.286964" ry="2.332138" width="21.381363" x="1.091639" y="9.075578"/><g transform="matrix(.94107443 0 0 .93686547 -3.586654 2.604854)"><rect fill="#82a0b4" fill-rule="evenodd" height="20" rx="1.477591" stroke="#3c5a6e" stroke-linecap="round" stroke-linejoin="round" width="20" x="5.5" y="7.5"/><g stroke="#969696"><path d="m8.5 8.5h14v8h-14z" fill="#e6e6e6" fill-rule="evenodd" stroke-linecap="round" stroke-linejoin="round"/><path d="m10.5 10.5h10" fill="none"/><path d="m10.5 12.5h10" fill="none"/><path d="m10.5 14.5h10" fill="none"/><path d="m9.5 20.5h12v7h-12z" fill="#e6e6e6" fill-rule="evenodd" stroke-linecap="round" stroke-linejoin="round"/></g><path d="m10.5 21.5h4v5h-4z" fill="#82a0b4" fill-rule="evenodd" stroke="#e6e6e6" stroke-linecap="round" stroke-linejoin="round"/></g><g enable-background="new" stroke-dashoffset=".5" stroke-linejoin="round" transform="matrix(.56625909 .32692978 -.32692978 .56625909 15.571125 13.856155)"><path d="m8.0961023 18.028419h5.9999997l-3.12491 6.990956z" fill="#505050" stroke="#505050" stroke-linecap="round" stroke-width=".75"/><path d="m8.0961004 1.0284199 6.0000006-.000001.000001 17.0000001h-5.9999997z" fill="#de6b37" stroke="#c04317" stroke-linecap="round" stroke-width=".75"/><path d="m10.576704 2.1008083.000001 15.7948847" fill="none" opacity=".5" stroke="#f8b008" stroke-width="2.105985"/><path d="m12.686221 2.0551469-.080979 16.1486211" fill-opacity=".588235" opacity=".25" stroke="#632923" stroke-width="2.159348"/><path d="m12.096101 2.0284193.000001 15.9999997" fill="#fc894f" opacity=".5" stroke="#a7481e" stroke-linecap="round" stroke-width=".75"/><path d="m11.463292 23.228968 1.996957-4.943779-1.996957-.000001z" fill="#969696" stroke="#969696" stroke-linecap="square" stroke-width=".5"/><path d="m9.5961007 2.0284198.0000015 15.9999982" fill="#db562d" opacity=".5" stroke="#9b3819" stroke-linecap="round" stroke-width=".75"/><g fill="#e6e6e6" stroke-width=".5"><path d="m7.8653316-.08727704h6.4615374v2.1791313h-6.4615374z" stroke="#969696" stroke-linecap="round"/><path d="m10.728912 23.38728-1.9969556-5.102091h1.9969556z" stroke="#e6e6e6" stroke-linecap="square"/></g></g></g></svg>