<svg xmlns="http://www.w3.org/2000/svg" height="24" width="24"><linearGradient id="c" gradientTransform="matrix(-.67482 .52737 .29432 .37836 77.718 981.122)" gradientUnits="userSpaceOnUse" x1="97.442" x2="90.221" y1="35.152" y2="35.079"><stop offset="0" stop-color="#f8e27e"/><stop offset="1" stop-color="#e3d189"/></linearGradient><linearGradient id="b" gradientTransform="matrix(-.26413 .20666 .26875 .3456 4.795 4.707)" gradientUnits="userSpaceOnUse" x1="-6.308" x2="-9.775" y1="44.229" y2="44.14"><stop offset="0"/><stop offset="1" stop-opacity="0"/></linearGradient><linearGradient id="a" gradientTransform="matrix(-.08352 .68021 .6768 .0831 -2.327 -203.568)" gradientUnits="userSpaceOnUse" x1="304.76" x2="335.3" y1="64.295" y2="81.926"><stop offset="0" stop-color="#d3d7cf"/><stop offset=".183" stop-color="#babdb6"/><stop offset=".319" stop-color="#fff"/><stop offset=".876" stop-color="#babdb6"/><stop offset="1" stop-color="#eeeeec"/></linearGradient><path d="M1.5 21.5h21v-14l-5-5h-16z" fill="#fff" fill-rule="evenodd" stroke="#727272" stroke-linejoin="round"/><path d="M22.5 7.5h-5v-5z" fill="#f0f0f0" fill-rule="evenodd" stroke="#727272" stroke-linejoin="round"/><path d="M3 4h14v1H3zm0 15h18v1H3z" fill="#7399ec" fill-opacity=".44"/><path d="M22.5 7.5h-5v-5z" fill="#f0f0f0" fill-rule="evenodd" stroke="#727272" stroke-linejoin="round"/><path d="M21 19V8h-1v11z" fill="#7399ec" fill-opacity=".44"/><path d="M8.173 10.32c-.043-.663.49-.194.678 0 .794.575 1.572 1.174 2.375 1.734.561.199 1.101-.241 1.475-.613.535-.598 1.057-1.37.96-2.21-.078-.427-.526-.586-.821-.842-.735-.542-1.475-1.08-2.206-1.626.038-.415.713-.333 1.046-.351 1.394.025 2.913.48 3.754 1.663.692.963.849 2.253.5 3.376.192 1.05.58 2.078 1.242 2.923l-2.45 1.801c-.576-.751-1.29-1.404-2.124-1.857-1.237.18-2.501-.402-3.248-1.387-.59-.755-1.027-1.66-1.181-2.607z" fill="url(#a)" fill-rule="evenodd" stroke="#3b3b3b" stroke-width=".795" stroke-linecap="round" stroke-linejoin="round" stroke-dashoffset=".361"/><path d="M15.003 14.465a.665.665 0 0 0-.124.932l4.085 5.983c.224.288.992.06 1.285-.17.292-.23.701-.92.477-1.208L15.94 14.57a.66.66 0 0 0-.931-.105z" opacity=".231" fill="url(#b)"/><path d="M8.42 10.354c.003.013.02.008.02 0l2.541 1.866c.343.251.795.156 1.187-.05.396-.206.798-.552 1.135-1.025.338-.474.536-.991.606-1.436.07-.444-.006-.878-.335-1.12L11.012 6.72c0-.01.004-.023.003-.022-.017.013.01.008.021 0 1.245-.133 2.626.185 3.485.816 1.176.865 1.597 2.42 1.159 3.854-.44 1.428-1.857 2.52-3.1 2.684-.803.1-1.63-.086-2.31-.586-.857-.63-1.585-1.874-1.85-3.119z" fill="#f0f3f2" fill-rule="evenodd"/><path d="M21.97 1036.91l9.581 11.101c.57.734-.032 2.138-1.341 3.16-1.308 1.023-2.814 1.267-3.385.534l-8.4-12.025 3.547-2.77zm6.345 11.821c-.65.509-.786 1.432-.461 1.849.324.417 1.282.485 1.933-.023.65-.509.754-1.407.43-1.824-.325-.417-1.251-.51-1.902 0z" fill="url(#c)" stroke="#3b3b3b" stroke-width=".867" stroke-linecap="round" stroke-linejoin="round" stroke-dashoffset=".7" transform="translate(-.924 -790.997) scale(.7743)"/><path d="M14.875 16.078l2.28-1.565.296.336-2.28 1.564z" fill="#fff" fill-opacity=".578" stroke="#3b3b3b" stroke-width=".994"/><path d="M3 19V5h1v14z" fill="#7399ec" fill-opacity=".44"/></svg>
