<svg height="16" width="16" xmlns="http://www.w3.org/2000/svg"><g fill-rule="evenodd"><path d="m14.5 13.5h-5.0000207l1.6666737-1.666673-1.6666737-1.666674 1.6666717-1.666673 1.666675 1.666673 1.666672-1.666673z" fill="#6d97c4" stroke="#415a75" stroke-linejoin="round"/><path d="m6.0854127 4.570286c1.2542366-1.881355 2.7858151-2.1309826 3.76271-1.2542367.9768953.8767459-1.2542368.6271183-2.5084734 1.881355-1.2542366 1.2542366 0 3.7627099-1.2542366 3.7627099s-1.2542366-2.5084733 0-4.3898282z" fill="#fcffff" opacity=".7"/><path d="m14.5 1.5000002v5.0000207l-1.666674-1.6666753-1.666674 1.6666753-1.6666727-1.6666741 1.6666727-1.6666727-1.6666727-1.6666735z" fill="#6d97c4" stroke="#415a75" stroke-linejoin="round"/><path d="m2.5 1.5000002h5.0000208l-1.6666744 1.6666737 1.6666744 1.6666736-1.6666738 1.6666735-1.6666735-1.6666735-1.6666733 1.6666735z" fill="#6d97c4" stroke="#415a75" stroke-linejoin="round"/><path d="m2.5 14.499999v-5.0000192l1.6666739 1.6666742 1.6666728-1.6666742 1.6666739 1.6666732-1.6666739 1.666672 1.6666739 1.666673z" fill="#6d97c4" stroke="#415a75" stroke-linejoin="round"/></g><path d="m3.3724264 8.3336432c.085803-2.6211191.6864044-3.8077441 2.7626686-3.6479173 2.0760303.1594424 2.542885 1.4270866 2.4566982 4.0484157" fill="none" stroke="#888a85" stroke-linecap="square" stroke-linejoin="round" stroke-width="3"/><path d="m3.3712993 8.3336432c.0847842-2.7018897.6782543-3.9563521 2.7298655-3.7916002 2.0513802.1643556 2.5126915 1.5023339 2.4275282 4.2044401" fill="none" stroke="#eeeeec" stroke-linecap="square" stroke-linejoin="round"/><rect fill="#f1db1e" height="6.000001" rx=".692308" ry=".857143" stroke="#c4a000" stroke-linecap="square" width="9" x="1.5" y="8.49962"/></svg>