<svg height="24" width="24" xmlns="http://www.w3.org/2000/svg"><g transform="translate(0 -8)"><g stroke="#555753" stroke-linecap="round" stroke-linejoin="round" stroke-width=".92127" transform="matrix(1.0854576 0 0 1.0854576 2.77361 2.08995)"><path d="m16.5 8.5c0 4.418278-3.581722 8-8 8s-8-3.581722-8-8 3.581722-8 8-8 8 3.581722 8 8z" fill="none" transform="translate(0 8)"/><path d="m11.691987 11.445594c-2.9295419-1.6913716-6.6755333-.687636-8.3669053 2.241906-1.691372 2.929542-.6876366 6.675534 2.2419056 8.366906z" fill="#555753"/></g><rect fill="#4e9a06" height="11" opacity=".9" rx="2.01149" width="11" x="13" y="21"/><path d="m15.5 29.5 3-6 3 6z" fill="#fff" opacity=".9" stroke="#fff" stroke-linecap="round" stroke-linejoin="round"/><path d="m14 27 9-.0096s0 0 0-2c0-2.9904-1-2.9904-4.5-2.9904s-4.5 0-4.5 3z" fill="#fcffff" fill-rule="evenodd" opacity=".3"/></g></svg>