<svg height="5.28" viewBox="0 0 22 22" width="5.28" xmlns="http://www.w3.org/2000/svg" xmlns:xlink="http://www.w3.org/1999/xlink"><linearGradient id="a"><stop offset="0" stop-color="#589632"/><stop offset="1" stop-color="#93b023"/></linearGradient><linearGradient id="b" gradientUnits="userSpaceOnUse" x1="16.734" x2="16.45" xlink:href="#a" y1="20.11" y2="1.378"/><linearGradient id="c" gradientUnits="userSpaceOnUse" x1="11.153" x2="10.87" xlink:href="#a" y1="20.403" y2="1.827"/><path d="m0 0h22v22h-22z" fill="none"/><path d="m11.757 11.278h2.713l-2.296-2.27h-2.813v2.703l2.396 2.388z" fill="#ee7913"/><path d="m20.458 17.199-4.84-4.786h-2.726v2.817l4.638 4.624h2.928z" fill="url(#b)"/><path d="m12.892 12.413h2.726l-1.148-1.135h-2.713v2.821l1.135 1.131z" fill="#f0e64a"/><path d="m12.326 16.194c-.411.095-.839.146-1.28.146-3.153 0-5.835-2.593-5.835-5.955s2.652-5.898 5.835-5.898 5.718 2.536 5.718 5.898c0 .547-.068 1.073-.194 1.572l2.918 2.918c.753-1.319 1.174-2.852 1.174-4.512 0-5.182-4.136-9.062-9.675-9.062-5.514 0-9.649 3.854-9.649 9.062 0 5.233 4.136 9.164 9.649 9.164 1.424 0 2.754-.262 3.946-.739z" fill="url(#c)"/><path d="m9.361 9.008 11.097 10.846v-2.656l-4.84-4.785-1.148-1.135-2.296-2.27z" fill="#fff" fill-opacity=".172"/></svg>