<?xml version="1.0" encoding="UTF-8"?>
<svg width="24" height="24" viewBox="0 0 24 24" xmlns="http://www.w3.org/2000/svg">
 <g transform="translate(0 -8)">
  <path d="m2.5 15.5h19v14h-19z" fill="#e6e6e6" stroke="#6e97c4"/>
  <path d="m2.5 10.5h19v5h-19z" fill="#bad9ec" stroke="#6e97c4"/>
  <path d="m5 13h4" fill="none" overflow="visible" stroke="#6e97c4" stroke-width="2"/>
  <path d="m11 13h8" fill="none" stroke="#6e97c4" stroke-width="2"/>
  <path d="m5 17.5h4" fill="none" overflow="visible" stroke="#6e97c4"/>
  <path d="m11 17.5h8" fill="none" stroke="#6e97c4"/>
  <path d="m5 20.5h4" fill="none" overflow="visible" stroke="#6e97c4"/>
  <path d="m11 20.5h8" fill="none" stroke="#6e97c4"/>
  <path d="m5 23.5h4" fill="none" overflow="visible" stroke="#6e97c4"/>
  <path d="m11 23.5h8" fill="none" stroke="#6e97c4"/>
  <path d="m5 26.5h4" fill="none" overflow="visible" stroke="#6e97c4"/>
  <path d="m11 26.5h8" fill="none" stroke="#6e97c4"/>
  <path d="m6.5 9.5h5v21h-5z" fill="#de9292" fill-rule="evenodd" stroke="#d26464" stroke-linecap="round"/>
  <path d="m8 13h2" fill="none" overflow="visible" stroke="#fff" stroke-width="2"/>
  <rect x="14" y="22" width="10" height="10" rx="2.0115" fill="#d26464"/>
  <path d="m16.879 29.121 4.2426-4.2426" fill="#fcffff" fill-rule="evenodd" stroke="#fff" stroke-linecap="round" stroke-linejoin="round" stroke-width="2"/>
  <path d="m15 27h8v-2c0-2-0.5-2-4-2-3.5 0-4 0-4 2v2z" fill="#fcffff" fill-rule="evenodd" opacity=".3"/>
  <path d="m16.879 24.879 4.2426 4.2426" fill="#fcffff" fill-rule="evenodd" stroke="#fff" stroke-linecap="round" stroke-linejoin="round" stroke-width="2"/>
 </g>
</svg>
