<?xml version="1.0" encoding="UTF-8"?>
<svg width="24" height="24" viewBox="0 0 24 24" xmlns="http://www.w3.org/2000/svg">
 <g transform="translate(0 -8)">
  <path d="m8.0276 9.5014c-2.8183 0.046637-5.2878 1.2553-6.284 4.1947-0.98847 2.9168 1.1715 8.182 5.9326 5.8405 7.9077-3.889 7.9038 0.96338 9.8807 0.96338 2.4386 0 4.9404-1.6996 4.9404-3.8736 0-1.9445 0.09638-3.8064-0.99221-4.8771-1.9769-1.9445-2.9737 0.9874-8.2891-1.1842-1.694-0.69207-3.4974-1.0917-5.1884-1.0637z" fill="#bebebe" fill-rule="evenodd" stroke="#555753" stroke-linecap="round" stroke-linejoin="round"/>
  <path d="m1.5133 28.025c1.64-3.1607 4.0321-5.7472 6.9867-7.0248 5.0813-1.5545 2.9057 9.4317-0.93206 9.4996-3.4067 0.099735-6.4509-1.5765-6.0546-2.4749z" fill="#8cbe8c" stroke="#555753"/>
  <rect x="14" y="22" width="10" height="10" rx="2.0115" fill="#d26464"/>
  <path d="m15 27h8v-2c0-2-0.5-2-4-2-3.5 0-4 0-4 2v2z" fill="#fcffff" fill-rule="evenodd" opacity=".3"/>
  <path d="m16.879 29.121 4.2426-4.2426" fill="#fff" fill-rule="evenodd" stroke="#fff" stroke-linecap="round" stroke-linejoin="round" stroke-width="2"/>
  <path d="m16.879 24.879 4.2426 4.2426" fill="#fff" fill-rule="evenodd" stroke="#fff" stroke-linecap="round" stroke-linejoin="round" stroke-width="2"/>
 </g>
</svg>
