<svg height="24" width="24" xmlns="http://www.w3.org/2000/svg"><g transform="translate(0 -8)"><path d="m2.496207 17.496208h19.007586v5.007586h-19.007586z" fill="#fce94f" stroke="#c4a000" stroke-linecap="round" stroke-width=".992414"/><path d="m2.5384619 10.538462h18.923077v4.9230766h-18.923077z" fill="#fce94f" stroke="#c4a000" stroke-linecap="round" stroke-width="1.076923"/><path d="m2.5384619 24.538462h18.923077v4.9230766h-18.923077z" fill="#fce94f" stroke="#c4a000" stroke-linecap="round" stroke-width="1.076923"/><g stroke-dashoffset=".5" stroke-linejoin="round"><path d="m9.2102138 23.865618 4.9930182 2.894382-5.9592838 4.333749z" fill="#505050" stroke="#2a2a2a" stroke-linecap="round" stroke-width=".75"/><path d="m17.37792 9.6615045 4.993023 2.8943805-8.167711 14.204115-4.9930182-2.894382z" fill="#fb7123" stroke="#474747" stroke-linecap="round" stroke-width=".75"/><path d="m18.977893 11.703032-7.206802 12.533043" fill="none" opacity=".5" stroke="#fcffff" stroke-width="2"/><path d="m20.642234 12.667825-7.206801 12.533045" fill-opacity=".706468" opacity=".363" stroke="#000" stroke-width="2"/><path d="m9.5136663 29.835188 4.0370637-3.167381-1.661807-.963326-2.3752567 4.130708z" fill="#969696" stroke="#969696" stroke-linecap="square" stroke-width=".5"/><path d="m19.659159-1.4319731h6.2152262v2.1002984h-6.2152262z" fill="#e6e6e6" stroke="#969696" stroke-linecap="round" stroke-width=".500001" transform="matrix(.86514924 .50151449 -.49848688 .86689724 0 0)"/><path d="m8.8264755 29.613199.7895102-5.226305 1.6618073.963325z" fill="#e6e6e6" stroke="#e6e6e6" stroke-linecap="square" stroke-width=".5"/></g></g></svg>