<?xml version="1.0" encoding="UTF-8" standalone="no"?>
<svg
   height="24"
   width="24"
   version="1.1"
   id="svg4282"
   sodipodi:docname="mActionMeshSelectExpression.svg"
   inkscape:version="1.1.1 (3bf5ae0d25, 2021-09-20)"
   xmlns:inkscape="http://www.inkscape.org/namespaces/inkscape"
   xmlns:sodipodi="http://sodipodi.sourceforge.net/DTD/sodipodi-0.dtd"
   xmlns="http://www.w3.org/2000/svg"
   xmlns:svg="http://www.w3.org/2000/svg">
  <defs
     id="defs4286" />
  <sodipodi:namedview
     id="namedview4284"
     pagecolor="#ffffff"
     bordercolor="#666666"
     borderopacity="1.0"
     inkscape:pageshadow="2"
     inkscape:pageopacity="0.0"
     inkscape:pagecheckerboard="0"
     showgrid="false"
     inkscape:zoom="34.166667"
     inkscape:cx="4.8585366"
     inkscape:cy="11.970732"
     inkscape:window-width="1920"
     inkscape:window-height="996"
     inkscape:window-x="0"
     inkscape:window-y="0"
     inkscape:window-maximized="1"
     inkscape:current-layer="svg4282" />
  <g
     stroke-linecap="round"
     id="g4268">
    <g
       fill="none"
       stroke="#6d7281"
       stroke-width="1.003672"
       transform="matrix(1.013697 0 0 .98287877 -.369842 -.425299)"
       id="g4250">
      <path
         d="m13 2-11 11m0-11 11 11m-11.5-11.5h12v12h-12z"
         id="path4244" />
      <path
         d="m13.5 1.5h9v12h-9zm-12 12h12v9h-12zm20.5-11.5-8 11m-6.5 1v8"
         id="path4246" />
      <path
         d="m13 18h-11"
         id="path4248" />
    </g>
    <g
       fill="#fce94f"
       stroke="#c4a000"
       stroke-linejoin="round"
       stroke-width="1.077"
       id="g4266">
      <path
         d="m1.1507031 1.0490189 5.9317031 5.9446938-5.9317031 5.8498513z"
         id="path4252" />
      <path
         d="m1.1507031 1.0490189h12.1643639l-6.2326608 5.9446938z"
         id="path4254" />
      <path
         d="m1.1507031 12.843564 5.9317031-5.8498513 6.2326608 5.8498513z"
         id="path4256" />
      <path
         d="m13.315067 12.843564-6.2326608-5.8498513 6.2326608-5.9446938z"
         id="path4258" />
      <path
         d="m13.315067 12.843564v-11.7945451h9.123273z"
         id="path4260" />
      <path
         d="m13.315067 12.843564 9.123273-11.7945451v11.7945451z"
         id="path4262" />
      <path
         d="m7.2 12.831149 6.115067.01242v4.344658l-6.0958115.03813z"
         id="path4264" />
    </g>
  </g>
  <path
     d="m 15.550607,16.020894 c -1.92383,-0.683586 -2.885744,-1.718741 -2.885742,-3.105469 -2e-6,-1.093739 0.50781,-1.967761 1.523438,-2.62207 1.025386,-0.654284 2.294916,-0.981432 3.808593,-0.981445 1.376945,1.3e-5 2.470694,0.229505 3.28125,0.688476 0.810536,0.449232 1.215809,0.991223 1.215821,1.625977 -1.2e-5,0.332042 -0.126965,0.625011 -0.38086,0.878906 -0.253917,0.244151 -0.546885,0.366221 -0.878906,0.366211 -0.546885,10e-6 -0.996103,-0.380849 -1.347656,-1.142578 -0.48829,-1.054675 -1.220711,-1.582019 -2.197266,-1.582031 -0.77149,1.2e-5 -1.406255,0.253918 -1.904297,0.761718 -0.498051,0.507824 -0.747074,1.215832 -0.74707,2.124024 -4e-6,1.787117 0.922847,2.680671 2.768555,2.680664 0.195305,7e-6 0.419914,-0.01952 0.673828,-0.05859 0.439445,-0.05859 0.781242,-0.08788 1.02539,-0.08789 0.595694,8e-6 0.893546,0.170906 0.893555,0.512696 -9e-6,0.380866 -0.302743,0.571295 -0.908203,0.571289 -0.214852,6e-6 -0.537117,-0.03417 -0.966797,-0.102539 -0.322273,-0.05859 -0.571296,-0.08788 -0.74707,-0.08789 -1.95313,7e-6 -2.929692,0.996099 -2.929688,2.988281 -4e-6,0.9668 0.258785,1.748049 0.776368,2.34375 0.517572,0.585939 1.240228,0.878907 2.167968,0.878907 1.162102,0 1.933585,-0.600585 2.314453,-1.801758 0.195304,-0.634763 0.410147,-1.074216 0.644532,-1.31836 0.24413,-0.244136 0.566396,-0.366207 0.966797,-0.366211 0.33202,4e-6 0.629871,0.122075 0.893554,0.366211 0.273426,0.234379 0.410144,0.537113 0.410156,0.908204 -1.2e-5,0.888673 -0.498058,1.625977 -1.49414,2.211914 -0.996104,0.576171 -2.202157,0.864257 -3.618164,0.864257 -1.55274,0 -2.934575,-0.371093 -4.145508,-1.113281 -1.201173,-0.742186 -1.801759,-1.733396 -1.801758,-2.973633 -1e-6,-1.552729 1.196287,-2.695306 3.588867,-3.427734"
     fill="#5c3566"
     id="path4270"
     style="fill:#6e97c4;fill-opacity:1" />
</svg>
