<?xml version="1.0" encoding="UTF-8"?>
<svg width="32" height="32" xmlns="http://www.w3.org/2000/svg">
 <path transform="matrix(.085691 0 0 .084794 -10.91 -10.507)" d="m421 163.65c-29.26 0.19554-57.457 9.3417-86.177 12.999-11.987 1.5264-24.341 1.9009-36.348 0.48145-15.964-1.8872-31.42-6.9005-47.373-9.1473-14.257-2.0079-28.693-4.104-43.04-4.1885-25.072-0.14756-49.321 7.7022-73.9 11.94 0 7.1903-1.4602 16.419 2.2146 21.472 3.7904 5.2121 10.185 9.9792 11.843 17.043 3.9335 16.751 9.5177 33.172 16.658 48.914 3.4698 7.65 10.019 12.984 17.332 16.658 17.61 8.8473 38.453 10.148 57.772 7.3659 27.512-3.9621 42.437-24.605 53.825-48.192 4.2624-9.588 4.7378-20.653 10.351-29.416 3.334-5.2047 11.076-3.0139 16.609-3.033 5.5333-0.0191 10.223 9.184 11.94 15.31 6.0772 21.679 16.21 44.68 36.349 56.039 30.073 16.963 77.45 13.79 96.961-16.802 7.636-11.973 9.7453-26.5 13.576-40.055 2.3324-8.2524 4.4156-18.091 12.71-22.628 3.3474-1.831 0.99835-9.1373 1.4924-13.384 0.53833-4.6276 1.5763-8.7198-5.007-9.6287-11.483-1.5856-22.622-6.4079-34.375-8.04-11.137-1.5467-22.049-3.783-33.412-3.7071zm-193.44 7.703c8.3056-0.0529 16.576 0.5551 24.65 2.2627 48.1 10.174 49.073 29.992 29.271 70.964-16.136 33.386-49.56 41.751-83.24 33.749-15.526-3.6888-26.142-14.526-31.149-29.368-5.2844-15.664-9.2818-32.306-8.377-48.769 1.2118-22.046 26.148-25.145 44.003-27.153 8.1932-0.92154 16.536-1.6322 24.842-1.685zm175.63 0c8.3057 0.0528 16.649 0.76349 24.842 1.685 17.855 2.0082 42.792 5.1066 44.003 27.153 0.90494 16.463-3.0924 33.106-8.3769 48.769-5.007 14.841-15.624 25.679-31.149 29.368-33.68 8.0024-67.105-0.36276-83.24-33.749-19.802-40.972-18.829-60.789 29.271-70.964 8.0732-1.7076 16.344-2.3155 24.65-2.2627z" stroke="#000" stroke-width="13.182"/>
 <g transform="matrix(1.1636 0 0 1.1636 3.9738 -5.3349)">
  <rect x="13" y="21" width="11" height="11" rx=".85941" fill="#f05050" stroke="#000" stroke-linejoin="round" stroke-width=".17188"/>
  <path d="m20.967 24.033-4.9332 4.9332" fill="#fcffff" fill-rule="evenodd" stroke="#fff" stroke-linecap="round" stroke-linejoin="round" stroke-width="1.2891"/>
  <path transform="matrix(1.1167 0 0 .98695 8.1111 7.784)" d="m12.728 18.963c0 2.1402-1.5334 3.8753-3.4249 3.8753-1.8915 0-3.4249-1.735-3.4249-3.8753 0-2.1402 1.5334-3.8753 3.4249-3.8753 1.8915 0 3.4249 1.735 3.4249 3.8753z" fill="none" stroke="#fff" stroke-width="1.2279"/>
 </g>
</svg>
