<svg xmlns="http://www.w3.org/2000/svg" height="24" width="24"><path d="M.5 21.5h21V7.664l-5-5.164H.5z" fill="#ccc" fill-rule="evenodd" stroke="#727272" stroke-linejoin="round"/><path d="M3.5 18.5h20V5.392L18.738.5H3.5z" fill="#fff" fill-rule="evenodd" stroke="#727272" stroke-linejoin="round"/><path fill="#7399ec" fill-opacity=".44" d="M4.983 2h13v1h-13zM5 16h16v1H5z"/><path d="M23.483 5.5h-5v-5z" fill="#f0f0f0" fill-rule="evenodd" stroke="#727272" stroke-linejoin="round"/><g transform="translate(33)"><rect y="13" x="-20" width="11" rx="2.011" height="11" fill="#c4a000"/><path d="M-15 14v2.063a2.501 2.501 0 0 0-1.375.78l-1.781-1.03-.5.874 1.781 1.032A2.46 2.46 0 0 0-17 18.5c0 .275.043.534.125.781l-1.781 1.032.5.875 1.781-1.032c.353.4.833.67 1.375.782V23h1v-2.063a2.501 2.501 0 0 0 1.375-.78l1.781 1.03.5-.875-1.781-1.03A2.46 2.46 0 0 0-12 18.5a2.46 2.46 0 0 0-.125-.781l1.781-1.032-.5-.875-1.781 1.032c-.353-.4-.833-.67-1.375-.782V14zm.5 3.5a1 1 0 1 1 0 2 1 1 0 0 1 0-2z" fill="#fcffff"/><path d="M-19 19l9-.01v-2C-10 14-11 14-14.5 14s-4.5 0-4.5 3v2z" opacity=".3" fill="#fcffff" fill-rule="evenodd"/></g><path fill="#7399ec" fill-opacity=".44" d="M21.983 13V6h-1v7zM6 16V3H5v13z"/></svg>