<?xml version="1.0" encoding="UTF-8"?>
<svg width="24" height="24" xmlns="http://www.w3.org/2000/svg" xmlns:xlink="http://www.w3.org/1999/xlink">
 <linearGradient id="a" x1="1.729" x2="7" y1="15.458" y2="15.458" gradientTransform="matrix(.65196 0 0 .6516 1.174 -6.025)" gradientUnits="userSpaceOnUse" xlink:href="#b"/>
 <linearGradient id="b">
  <stop stop-color="#6e97c4" offset="0"/>
  <stop stop-color="#aec7e2" offset="1"/>
 </linearGradient>
 <linearGradient id="c" x1="7.373" x2="7.449" y1="10" y2="15" gradientTransform="matrix(.65196 0 0 .6516 1.174 1.975)" gradientUnits="userSpaceOnUse" xlink:href="#b"/>
 <linearGradient id="d" x1="4.53" x2="4.458" y1="22.364" y2="25.133" gradientTransform="matrix(3.8476 0 0 3.2814 -4.4365 -70.387)" gradientUnits="userSpaceOnUse">
  <stop stop-color="#eee" offset="0"/>
  <stop stop-color="#aec7e2" offset="1"/>
 </linearGradient>
 <path d="m2.478 8.49c-.87 9.558-.435 4.779 0 0z" fill="url(#c)"/>
 <g transform="matrix(1.457 0 0 1.457 -1.0931 -1.4213)">
  <path d="m0.75027 0.96742v13.384h13.384v-13.384z" fill="url(#d)" stroke-width="1.6989"/>
  <path d="m2.478 7.658c-.87 4.778-.435 2.39 0 0z" fill="url(#a)"/>
  <path d="m2.3 7.658c-.75 4.778-.376 2.39 0 0z" fill="url(#a)"/>
  <g fill="none" stroke="#2b3b4d" stroke-linecap="round" stroke-width=".833">
   <path d="m1.174 1.442h4.167v4.167h-4.168z"/>
   <path d="m5.342 1.442h4.167v4.167h-4.168z"/>
   <path d="m9.509 1.442h4.167v4.167h-4.168z"/>
   <path d="m1.174 5.609h4.167v4.167h-4.168z"/>
   <path d="m1.174 9.776h4.167v4.167h-4.168z"/>
   <path d="m5.341 5.609h4.167v4.167h-4.168z"/>
   <path d="m9.509 5.609h4.167v4.167h-4.168z"/>
   <path d="m5.341 9.776h4.167v4.167h-4.168z"/>
   <path d="m9.508 9.776h4.167v4.167h-4.168z"/>
  </g>
 </g>
 <g transform="matrix(.69231 0 0 .69231 1.8462 1.8462)">
  <rect x="19" y="19" width="13" height="13" rx="2.6149" fill="#5a8c5a"/>
  <g fill-rule="evenodd">
   <path d="m21.6 25.5h7.8" fill="#fff" stroke="#fff" stroke-linecap="round" stroke-linejoin="round" stroke-width="2.6"/>
   <path d="m25.5 29.4v-7.8" fill="#fff" stroke="#fff" stroke-linecap="round" stroke-linejoin="round" stroke-width="2.6"/>
   <path d="m20.3 25.5h10.4s0 0 0-2.6c0-2.6-0.65-2.6-5.2-2.6s-5.2 0-5.2 2.6z" fill="#fcffff" opacity=".3"/>
  </g>
 </g>
</svg>
