<?xml version="1.0" encoding="UTF-8"?>
<svg width="24" height="24" viewBox="0 0 24 24" xmlns="http://www.w3.org/2000/svg">
 <linearGradient x1="-10" x2="-10" y1="15" y2="21" gradientUnits="userSpaceOnUse">
  <stop stop-color="#555753" offset="0"/>
  <stop stop-color="#555753" stop-opacity="0" offset="1"/>
 </linearGradient>
 <g transform="translate(0 -8)">
  <g transform="translate(33 8)">
   <rect x="-20" y="13" width="11" height="11" rx="2.0115" fill="#c4a000"/>
   <path d="m-15 14v2.0625c-0.53766 0.11104-1.0247 0.38329-1.375 0.78125l-1.7812-1.0312-0.5 0.875 1.7812 1.0312c-0.082063 0.24743-0.125 0.5064-0.125 0.78125s0.04294 0.53382 0.125 0.78125l-1.7812 1.0312 0.5 0.875 1.7812-1.0312c0.3525 0.40042 0.83268 0.67018 1.375 0.78125v2.0625h1v-2.0625c0.53766-0.11104 1.0247-0.38329 1.375-0.78125l1.7812 1.0312 0.5-0.875-1.7812-1.0312c0.082063-0.24743 0.125-0.5064 0.125-0.78125s-0.04294-0.53382-0.125-0.78125l1.7812-1.0312-0.5-0.875-1.7812 1.0312c-0.3525-0.40042-0.83268-0.67018-1.375-0.78125v-2.0625zm0.5 3.5c0.552 0 1 0.448 1 1s-0.448 1-1 1-1-0.448-1-1 0.448-1 1-1z" fill="#fcffff"/>
   <path d="m-19 19 9-0.0096v-2c0-2.9904-1-2.9904-4.5-2.9904s-4.5 0-4.5 3v2z" fill="#fcffff" fill-rule="evenodd" opacity=".3"/>
  </g>
  <path d="m8.0276 9.5014c-2.8183 0.046637-5.2878 1.2553-6.284 4.1947-0.98847 2.9168 1.1715 8.182 5.9326 5.8405 7.9077-3.889 7.9038 0.96338 9.8807 0.96338 2.4386 0 4.9404-1.6996 4.9404-3.8736 0-1.9445 0.09638-3.8064-0.99221-4.8771-1.9769-1.9445-2.9737 0.9874-8.2891-1.1842-1.694-0.69207-3.4974-1.0917-5.1884-1.0637z" fill="#8cbe8c" fill-rule="evenodd" stroke="#555753" stroke-linecap="round" stroke-linejoin="round"/>
 </g>
</svg>
