<svg xmlns="http://www.w3.org/2000/svg" height="24" width="24"><path d="M2.5 2.646l13-.146v13h-13V2.646z" opacity=".99" fill="#eeeeec" stroke="#898b86" stroke-dashoffset=".96"/><path d="M7.5 14.5c0 2 2 2 2 2l-7 7-2-2z" fill="#ffcc30" fill-rule="evenodd" stroke="#505050" stroke-linejoin="round"/><path d="M17.961 7A5.961 6.074 0 1 1 6.04 7 5.961 6.074 0 1 1 17.96 7z" transform="matrix(1.342 0 0 1.31704 -1.604 .28)" opacity=".8" fill="#e6e6e6" stroke="#505050" stroke-width=".752" stroke-linecap="round" stroke-linejoin="round" stroke-dashoffset="7"/><path d="M6 16l2-2 2 2-2 2z" fill-rule="evenodd" stroke="#505050" stroke-linejoin="round"/><path d="M10 5c2-3 4.442-3.398 6-2 1.558 1.398-2 1-4 3s0 6-2 6-2-4 0-7z" fill="#fcffff" fill-rule="evenodd" opacity=".7"/><path d="M2 21l4-4" opacity=".5" overflow="visible" stroke="#fcffff" stroke-linecap="round" stroke-linejoin="round"/><g fill="#2e3436"><path d="M12.415 13.099h-1.51V7.41a5.203 5.203 0 0 1-1.95 1.144v-1.37c.394-.129.822-.372 1.284-.73.462-.362.78-.783.95-1.262h1.226zM13.768 8.904v-1.51h1.51v1.51zm0 4.195v-1.51h1.51v1.51zM19.771 13.099h-1.509V7.41a5.203 5.203 0 0 1-1.95 1.144v-1.37c.394-.129.822-.372 1.284-.73.462-.362.779-.783.95-1.262h1.225z"/></g></svg>