<?xml version="1.0" encoding="UTF-8"?>
<svg width="24" height="24" enable-background="new 0 0 24 24" viewBox="0 0 24 24" xmlns="http://www.w3.org/2000/svg">
 <linearGradient id="a" x1="3.0864" x2="20.912" y1="14.025" y2="10.882" gradientUnits="userSpaceOnUse">
  <stop stop-color="#c8e6fa" offset="0"/>
  <stop stop-color="#b7ddf6" offset=".2857"/>
  <stop stop-color="#8ac7eb" offset=".8515"/>
  <stop stop-color="#7dc1e8" offset="1"/>
 </linearGradient>
 <linearGradient id="b" x1=".9834" x2="23.611" y1="6.6646" y2="8.6442" gradientUnits="userSpaceOnUse">
  <stop stop-color="#f5f5f5" offset="0"/>
  <stop stop-color="#e4e4e4" offset=".2503"/>
  <stop stop-color="#c9c9c9" offset=".7217"/>
  <stop stop-color="#bfbfbf" offset="1"/>
 </linearGradient>
 <path d="m21.049 12.457c0 4.987-4.054 9.039-9.049 9.039-4.998 0-9.049-4.052-9.049-9.039 0-4.995 4.052-9.046 9.049-9.046 4.995 0 9.049 4.051 9.049 9.046z" fill="url(#a)" stroke="#4774b4" stroke-linecap="round" stroke-linejoin="round" stroke-width=".75"/>
 <path d="m12 3.887c4.762 4.763 4.762 12.37 0 17.135" fill="none" stroke="#4774b4" stroke-linecap="round" stroke-linejoin="round" stroke-width=".75"/>
 <path d="m12 3.887c-4.763 4.763-4.763 12.37 0 17.135" fill="none" stroke="#4774b4" stroke-linecap="round" stroke-linejoin="round" stroke-width=".75"/>
 <path d="m3.427 12.457h17.146" fill="none" stroke="#4774b4" stroke-linecap="round" stroke-linejoin="round" stroke-width=".75"/>
 <path d="m18.667 6.745c-2.675 1.918-10.309 2.067-13.335 0" fill="none" stroke="#4774b4" stroke-linecap="round" stroke-linejoin="round" stroke-width=".75"/>
 <path d="m18.667 18.163c-3.447-1.867-9.708-1.995-13.335 0" fill="none" stroke="#4774b4" stroke-linecap="round" stroke-linejoin="round" stroke-width=".75"/>
 <path d="m23.4 11.046s-4.453 2.013-11.4 2.013c-6.948 0-11.4-2.013-11.4-2.013l8.479-8.729s1.75 0.425 2.921 0.425 2.922-0.425 2.922-0.425z" fill="url(#b)" fill-opacity=".8" stroke="#404040" stroke-linecap="round" stroke-width=".5"/>
 <path d="m12 13.059v-10.318" fill="none" stroke="#404040" stroke-linecap="round" stroke-linejoin="round" stroke-width=".5"/>
 <path d="m20.41 8.064s-3.283 1.375-8.41 1.375c-5.126 0-8.41-1.375-8.41-1.375" fill="none" stroke="#404040" stroke-linecap="round" stroke-linejoin="round" stroke-width=".5"/>
 <path d="m17.561 4.997c0 0-2.17.802-5.561.802-3.39 0-5.562-.802-5.562-.802" fill="none" stroke="#404040" stroke-linecap="round" stroke-linejoin="round" stroke-width=".5"/>
 <path d="m13.266 2.632 4.81 9.903" fill="none" stroke="#404040" stroke-linecap="round" stroke-linejoin="round" stroke-width=".5"/>
 <path d="m10.736 2.632-4.813 9.903" fill="none" stroke="#404040" stroke-linecap="round" stroke-linejoin="round" stroke-width=".5"/>
 <path d="m15.012 13h6.977c1.111 0 2.011.9 2.011 2.012v6.977c0 1.111-.9 2.011-2.012 2.011h-6.977c-1.111 0-2.011-.9-2.011-2.012v-6.977c0-1.111.9-2.011 2.012-2.011z" fill="#c4a000"/>
 <path d="m14 19 9-0.01v-2c0-2.99-1-2.99-4.5-2.99s-4.5 0-4.5 3v2z" fill="#fcffff" opacity=".3"/>
 <path d="m16.572 18.586 4.938-4.148 1.016 1.059-3.961 4.874z" fill="#fcffff" stroke="#fcffff" stroke-linejoin="round" stroke-width=".25"/>
 <path d="m15.701 19.146 2.137 2.178-3.401 1.224z" fill="#fcffff" stroke="#fcffff" stroke-linejoin="round" stroke-width=".25"/>
</svg>
