<?xml version="1.0" encoding="UTF-8"?>
<svg width="16" height="16" viewBox="0 0 16 16" xmlns="http://www.w3.org/2000/svg">
 <path d="m1 2v1h14v-1z" fill="#888a85" fill-rule="evenodd" overflow="visible"/>
 <path d="m5.4998 5.4998h2.0003v2.0003h-2.0003z" fill="#e8d74b" fill-rule="evenodd" stroke="#f7941d" stroke-dashoffset="2.2" stroke-width=".9997"/>
 <path d="m2.0005 3v11h1v-11z" fill="#b2b2b2" fill-rule="evenodd" overflow="visible"/>
 <path d="m3 6v1h2.0005v-1z" fill="#b2b2b2" fill-rule="evenodd" overflow="visible"/>
 <path d="m3 12v1h2v-1z" fill="#b2b2b2" fill-rule="evenodd" overflow="visible"/>
 <path d="m5.4998 11.5h2.0003v2.0003h-2.0003z" fill="#e8d74b" fill-rule="evenodd" stroke="#f7941d" stroke-dashoffset="2.2" stroke-width=".9997"/>
 <path d="m10.994 14.222-4.4395-4.6875h2.959v-8.0195h2.9609v8.0195h2.959z" fill="#6d97c4" fill-rule="evenodd" stroke="#415a75" stroke-linecap="round" stroke-linejoin="round" stroke-width="1.0018"/>
 <path d="m8.7337 8.8337-2.8934-0.84952-2.3395 1.9036-0.086943-3.0163-2.5322-1.6385 2.8397-1.0146 0.77448-2.9162 1.842 2.3892 3.0109-0.16387-1.7013 2.4912z" fill="#fffd00" fill-rule="evenodd" opacity=".838" stroke="#fff" stroke-dashoffset="2.2" stroke-linecap="square" stroke-linejoin="round" stroke-miterlimit="10" stroke-width="3.2393"/>
 <path d="m8.7337 8.8337-2.8934-0.84952-2.3395 1.9036-0.086943-3.0163-2.5322-1.6385 2.8397-1.0146 0.77448-2.9162 1.842 2.3892 3.0109-0.16387-1.7013 2.4912z" fill="#fffd00" fill-rule="evenodd" stroke="#f8a70a" stroke-dashoffset="2.2" stroke-linecap="square" stroke-linejoin="round" stroke-miterlimit="10" stroke-width="1.0449"/>
</svg>
