<svg xmlns="http://www.w3.org/2000/svg" xmlns:xlink="http://www.w3.org/1999/xlink" width="24" height="24"><defs><linearGradient id="a"><stop style="stop-color:#555;stop-opacity:1" offset="0"/><stop style="stop-color:#666;stop-opacity:1" offset="1"/></linearGradient><linearGradient xlink:href="#a" id="k" x1="12" y1="22" x2="12" y2="0" gradientUnits="userSpaceOnUse" gradientTransform="translate(1 26)"/><linearGradient xlink:href="#a" id="l" x1="12" y1="22" x2="12" y2="0" gradientUnits="userSpaceOnUse"/><linearGradient id="b"><stop style="stop-color:#000;stop-opacity:1" offset="0"/><stop style="stop-color:#000;stop-opacity:0" offset="1"/></linearGradient><linearGradient id="c"><stop style="stop-color:#000;stop-opacity:1" offset="0"/><stop style="stop-color:#000;stop-opacity:0" offset="1"/></linearGradient><linearGradient id="d"><stop style="stop-color:#000;stop-opacity:0" offset="0"/><stop offset=".5" style="stop-color:#000;stop-opacity:1"/><stop style="stop-color:#000;stop-opacity:0" offset="1"/></linearGradient><linearGradient id="e"><stop style="stop-color:#000;stop-opacity:1" offset="0"/><stop style="stop-color:#000;stop-opacity:0" offset="1"/></linearGradient><linearGradient id="f"><stop style="stop-color:#000;stop-opacity:1" offset="0"/><stop style="stop-color:#000;stop-opacity:0" offset="1"/></linearGradient><linearGradient id="g"><stop style="stop-color:#000;stop-opacity:0" offset="0"/><stop offset=".5" style="stop-color:#000;stop-opacity:1"/><stop style="stop-color:#000;stop-opacity:0" offset="1"/></linearGradient><linearGradient y2="42" x2="25" y1="45" x1="25" gradientTransform="translate(-9 -1)" gradientUnits="userSpaceOnUse" id="o" xlink:href="#g"/><linearGradient id="h"><stop style="stop-color:#000;stop-opacity:1" offset="0"/><stop style="stop-color:#000;stop-opacity:0" offset="1"/></linearGradient><linearGradient id="i"><stop style="stop-color:#000;stop-opacity:1" offset="0"/><stop style="stop-color:#000;stop-opacity:0" offset="1"/></linearGradient><linearGradient id="j"><stop style="stop-color:#000;stop-opacity:0" offset="0"/><stop offset=".5" style="stop-color:#000;stop-opacity:1"/><stop style="stop-color:#000;stop-opacity:0" offset="1"/></linearGradient><linearGradient y2="42" x2="25" y1="45" x1="25" gradientTransform="translate(-9 -1)" gradientUnits="userSpaceOnUse" id="r" xlink:href="#j"/><radialGradient xlink:href="#e" id="m" gradientUnits="userSpaceOnUse" gradientTransform="matrix(1 0 0 .75 -22 9.875)" cx="40" cy="43.5" fx="40" fy="43.5" r="2"/><radialGradient xlink:href="#f" id="n" gradientUnits="userSpaceOnUse" gradientTransform="matrix(1 0 0 .75 -4 9.875)" cx="9" cy="43.5" fx="9" fy="43.5" r="2"/><radialGradient xlink:href="#h" id="p" gradientUnits="userSpaceOnUse" gradientTransform="matrix(1 0 0 .75 -22 9.875)" cx="40" cy="43.5" fx="40" fy="43.5" r="2"/><radialGradient xlink:href="#i" id="q" gradientUnits="userSpaceOnUse" gradientTransform="matrix(1 0 0 .75 -4 9.875)" cx="9" cy="43.5" fx="9" fy="43.5" r="2"/></defs><path style="color:#000;font-style:normal;font-variant:normal;font-weight:400;font-stretch:normal;line-height:normal;font-family:Sans;-inkscape-font-specification:Sans;text-indent:0;text-align:start;text-decoration:none;text-decoration-line:none;letter-spacing:normal;word-spacing:normal;text-transform:none;direction:ltr;block-progression:tb;writing-mode:lr-tb;baseline-shift:baseline;text-anchor:start;display:inline;overflow:visible;visibility:visible;fill:url(#k);fill-opacity:1;stroke:none;stroke-width:2;marker:none;enable-background:accumulate;stroke-linejoin:round" d="M5.5 28.5v4h9c.082 0 .39.133.625.375s.375.583.375.625v1h-7c-1.518 0-2.877.632-3.75 1.625l-.031.031A5.022 5.022 0 0 0 3.5 39.5a5.15 5.15 0 0 0 1.281 3.375c.866.977 2.213 1.625 3.719 1.625h11v-1.75h-.031a1.08 1.08 0 0 0 0-.25h.031v-9c0-2.72-2.209-5-5-5h-9zm3 10h7v2h-7c-.505 0-.543-.051-.719-.25a1.269 1.269 0 0 1-.281-.75c-.002-.29.133-.617.25-.75.158-.18.208-.25.75-.25Z" transform="translate(0 -24)"/><path d="M5.5 28.5v4h9c.082 0 .39.133.625.375s.375.583.375.625v1h-7c-1.518 0-2.877.632-3.75 1.625l-.031.031A5.022 5.022 0 0 0 3.5 39.5a5.15 5.15 0 0 0 1.281 3.375c.866.977 2.213 1.625 3.719 1.625h11v-1.75h-.031a1.08 1.08 0 0 0 0-.25h.031v-9c0-2.72-2.209-5-5-5h-9zm3 10h7v2h-7c-.505 0-.543-.051-.719-.25a1.269 1.269 0 0 1-.281-.75c-.002-.29.133-.617.25-.75.158-.18.208-.25.75-.25Z" style="color:#000;font-style:normal;font-variant:normal;font-weight:400;font-stretch:normal;line-height:normal;font-family:Sans;-inkscape-font-specification:Sans;text-indent:0;text-align:start;text-decoration:none;text-decoration-line:none;letter-spacing:normal;word-spacing:normal;text-transform:none;direction:ltr;block-progression:tb;writing-mode:lr-tb;baseline-shift:baseline;text-anchor:start;display:inline;overflow:visible;visibility:visible;opacity:.61000001;fill:none;stroke:#000;stroke-width:1;stroke-miterlimit:4;stroke-dasharray:none;stroke-opacity:1;marker:none;enable-background:accumulate;stroke-linejoin:round" transform="translate(0 -24)"/><path style="color:#000;font-style:normal;font-variant:normal;font-weight:400;font-stretch:normal;line-height:normal;font-family:Sans;-inkscape-font-specification:Sans;text-indent:0;text-align:start;text-decoration:none;text-decoration-line:none;letter-spacing:normal;word-spacing:normal;text-transform:none;direction:ltr;block-progression:tb;writing-mode:lr-tb;baseline-shift:baseline;text-anchor:start;display:inline;overflow:visible;visibility:visible;opacity:.2;fill:#fff;fill-opacity:1;stroke:none;stroke-width:2;marker:none;enable-background:accumulate;stroke-linejoin:round" d="M6 29v1h8.5a4.5 4.5 0 0 1 4.5 4.5v-1a4.5 4.5 0 0 0-4.5-4.5H6Zm2.5 6c-1.38 0-2.602.59-3.375 1.469h-.031l-.032.031A4.566 4.566 0 0 0 4 39.5c.001.167.012.334.031.5a4.528 4.528 0 0 1 1.032-2.5l.03-.031h.032C5.898 36.59 7.121 36 8.5 36H16v-1H8.5zm-1.438 5a1.82 1.82 0 0 0-.062.5c.004.428.15.805.406 1.094.086.096.227.228.438.312.21.084.387.094.656.094H16v-1H8.5c-.27 0-.445-.01-.656-.094a1.154 1.154 0 0 1-.438-.312A1.634 1.634 0 0 1 7.063 40Zm11.813 3 .094.563c.001.008.008.045 0 .156l-.032.281H19v-.75h-.063V43h-.062z" transform="translate(0 -24)"/><g style="stroke-linejoin:round"><path transform="translate(1 2)" d="M1.5 8.5v3h19v-3h-19z" style="fill:url(#l);fill-opacity:1;stroke:none;stroke-linejoin:round"/><path style="opacity:.61000001;fill:none;stroke:#000;stroke-width:1;stroke-miterlimit:4;stroke-dasharray:none;stroke-opacity:1;stroke-linejoin:round" d="M1.5 8.5v3h19v-3h-19z" transform="translate(1 2)"/><path transform="translate(1 2)" d="M2 9v1h18V9H2Z" style="opacity:.2;fill:#fff;fill-opacity:1;stroke:none;stroke-linejoin:round"/></g><g style="stroke-linejoin:round"><path d="M18 41v3h.5c.831 0 1.5-.669 1.5-1.5s-.669-1.5-1.5-1.5H18Z" style="opacity:.2;fill:url(#m);fill-opacity:1;stroke:none;stroke-linejoin:round" transform="translate(1 -21.5)"/><path d="M4.406 41C3.627 41 3 41.627 3 42.406v.188C3 43.373 3.627 44 4.406 44H5v-3h-.594Z" style="opacity:.2;fill:url(#n);fill-opacity:1;stroke:none;stroke-linejoin:round" transform="translate(1 -21.5)"/><path d="M5 41h13v3H5z" style="opacity:.2;fill:url(#o);fill-opacity:1;stroke:none;stroke-linejoin:round" transform="translate(1 -21.5)"/></g><g style="stroke-linejoin:round"><path d="M18 41v3h.5c.831 0 1.5-.669 1.5-1.5s-.669-1.5-1.5-1.5H18Z" style="opacity:.2;fill:url(#p);fill-opacity:1;stroke:none;stroke-linejoin:round" transform="translate(0 -28.5)"/><path d="M4.406 41C3.627 41 3 41.627 3 42.406v.188C3 43.373 3.627 44 4.406 44H5v-3h-.594Z" style="opacity:.2;fill:url(#q);fill-opacity:1;stroke:none;stroke-linejoin:round" transform="translate(0 -28.5)"/><path d="M5 41h13v3H5z" style="opacity:.2;fill:url(#r);fill-opacity:1;stroke:none;stroke-linejoin:round" transform="translate(0 -28.5)"/></g></svg>