<svg height="24" viewBox="0 0 24 24" width="24" xmlns="http://www.w3.org/2000/svg"><ellipse cx="5.672256" cy="14.812654" fill="none" rx="7.724184" ry="4.724184" stroke="#8cbe8c" stroke-width="2.551632" transform="matrix(.92190879 -.387407 .387407 .92190879 0 0)"/><g fill="#bebebe" stroke="#8c8c8c"><path d="m5.7335306 12.017971 2.7657264-1.162221 1.162221 2.765727-2.7657265 1.162221z"/><path d="m12.255866 9.3001243 2.765727-1.1622216 1.16222 2.7657263-2.765726 1.162221z"/><path d="m6.915383 6.3403384 2.7657262-1.1622211 1.1622208 2.765727-2.7657258 1.162221z"/></g><g transform="translate(33)"><rect fill="#c4a000" height="11" rx="2.01149" width="11" x="-20" y="13"/><g fill="#fcffff"><path d="m-15 14v2.0625c-.537663.111041-1.024662.383291-1.375.78125l-1.78125-1.03125-.5.875 1.78125 1.03125c-.082063.247432-.125.506395-.125.78125s.04294.533818.125.78125l-1.78125 1.03125.5.875 1.78125-1.03125c.352503.40042.832682.670182 1.375.78125v2.0625h1v-2.0625c.537663-.111041 1.024662-.383291 1.375-.78125l1.78125 1.03125.5-.875-1.78125-1.03125c.082063-.247432.125-.506395.125-.78125s-.04294-.533818-.125-.78125l1.78125-1.03125-.5-.875-1.78125 1.03125c-.352503-.40042-.832682-.670182-1.375-.78125v-2.0625zm.5 3.5c.552 0 1 .448 1 1s-.448 1-1 1-1-.448-1-1 .448-1 1-1z"/><path d="m-19 19 9-.0096s0 0 0-2c0-2.9904-1-2.9904-4.5-2.9904s-4.5 0-4.5 3z" fill-rule="evenodd" opacity=".3"/></g></g></svg>