<svg height="24" width="24" xmlns="http://www.w3.org/2000/svg"><g stroke="#505050"><path d="m17.961 7a5.961 6.074 0 0 1 -5.961 6.074 5.961 6.074 0 0 1 -5.961-6.074 5.961 6.074 0 0 1 5.961-6.074 5.961 6.074 0 0 1 5.961 6.074z" style="opacity:.8;fill:#e6e6e6;stroke-width:.752;stroke-linecap:round;stroke-linejoin:round;stroke-dashoffset:7" transform="matrix(1.40036 0 0 1.3742 -1.674 -.75)"/><path d="m7.826 14.088c0 2.086 2.087 2.086 2.087 2.086l-7.304 7.304-2.087-2.087z" fill="#ffcc30" fill-rule="evenodd" stroke-linejoin="round" stroke-width="1.043"/><path d="m6.26 15.653 2.088-2.087 2.087 2.087-2.087 2.087z" fill-rule="evenodd" stroke-linejoin="round" stroke-width="1.043"/></g><path d="m10.435 4.175c2.087-3.13 4.635-3.545 6.26-2.087 1.626 1.46-2.086 1.044-4.173 3.13-2.087 2.088 0 6.261-2.087 6.261s-2.087-4.173 0-7.304z" fill="#fcffff" fill-rule="evenodd" opacity=".7"/><path d="m2.087 20.87 4.174-4.174" opacity=".5" stroke="#fcffff" stroke-linecap="round" stroke-linejoin="round" stroke-width="1.043"/></svg>