<?xml version="1.0" encoding="UTF-8"?>
<svg width="24" height="24" viewBox="0 0 6.35 6.35" xmlns="http://www.w3.org/2000/svg">
 <g transform="translate(0 -290.65)">
  <path d="m90.285 76.773h5.0271v5.0271h-5.0271z" fill="#eeeeec" stroke="#888a85" stroke-linecap="round" stroke-linejoin="round" stroke-width=".26458"/>
  <path d="m91.955 79.785h1.3229v1.3229h-1.3229z" fill="#f7941d" fill-rule="evenodd" stroke-width="0"/>
  <path d="m91.947 77.489h1.3229v1.3229h-1.3229z" fill="#f7941d" fill-rule="evenodd" stroke-width="0"/>
  <path d="m91.072 76.904v3.6832" fill="none" stroke="#b2b2b2" stroke-width=".26079"/>
  <path d="m91.124 78.15h0.57817" fill="none" stroke="#b2b2b2" stroke-width=".27907"/>
  <path d="m91.124 80.446h0.57817" fill="none" stroke="#b2b2b2" stroke-width=".27907"/>
  <path d="m94.224 76.772 1.4551 1.4551h-0.9701l-2e-6 2.4575h-0.97009v-2.4575h-0.97009z" fill="#6d97c4" fill-rule="evenodd" stroke="#415a75" stroke-linejoin="round" stroke-width=".26458"/>
  <path d="m2.0661 294.35h1.3229v1.3229h-1.3229z" fill="#f7941d" fill-rule="evenodd" stroke-width="0"/>
  <path d="m1.9844 292.11h3.7042v1.3229h-3.7042z" fill="#eeeeec" fill-rule="evenodd" stroke="#888a85" stroke-dashoffset="2.2" stroke-width=".26458"/>
  <path d="m1.9844 294.49h3.7042v1.3229h-3.7042z" fill="#eeeeec" fill-rule="evenodd" stroke="#888a85" stroke-dashoffset="2.2" stroke-width=".26458"/>
  <path d="m0.26459 292.24h1.3229v1.0583h-1.3229z" fill="#888a85" fill-rule="evenodd" stroke-width="0"/>
  <path d="m0.26459 294.62h1.3229v1.0583h-1.3229z" fill="#888a85" fill-rule="evenodd" stroke-width="0"/>
  <path d="m2.3812 292.77h2.3812" fill="#415a75" fill-rule="evenodd" stroke="#415a75" stroke-width=".52917"/>
  <path d="m2.3812 295.15h2.9104" fill="#415a75" fill-rule="evenodd" stroke="#415a75" stroke-width=".52917"/>
 </g>
</svg>
