<svg height="24" width="24" xmlns="http://www.w3.org/2000/svg"><g stroke="#6e97c4"><path d="m2.5 7.5h19v14h-19z" fill="#e6e6e6"/><path d="m2.5 2.5h19v5h-19z" fill="#bad9ec"/><path d="m5 5h4" fill="none" stroke-width="2"/><path d="m11 5h8" fill="none" stroke-width="2"/><path d="m5 9.5h4" fill="none"/><path d="m11 9.5h8" fill="none"/><path d="m5 12.5h4" fill="none"/><path d="m11 12.5h8" fill="none"/><path d="m5 15.5h4" fill="none"/><path d="m11 15.5h8" fill="none"/><path d="m5 18.5h4" fill="none"/><path d="m11 18.5h8" fill="none"/></g><g transform="translate(30.287 .805)"><rect fill="#d26464" height="10" rx="2.011" width="10" x="-16.287" y="13.195"/><g fill-rule="evenodd"><path d="m-15.287 18.195h8v-2c0-2-.5-2-4-2s-4 0-4 2z" fill="#fcffff" opacity=".3"/><path d="m-13.409 20.316 4.243-4.242m-4.243 0 4.243 4.242" fill="#fff" stroke="#fff" stroke-linecap="round" stroke-linejoin="round" stroke-width="2"/></g></g></svg>