<svg height="24" width="24" xmlns="http://www.w3.org/2000/svg"><g stroke-linecap="round"><rect fill="#6d97c4" fill-rule="evenodd" height="20.5" rx="1.889" ry="1.5" stroke="#415a75" stroke-linejoin="round" stroke-width=".8" width="19.2" x="2.4" y="1.4"/><rect fill="#ededed" fill-rule="evenodd" height="9" rx=".5" stroke="#666" stroke-linejoin="round" stroke-width=".5" width="14" x="5" y="2"/><path d="m7 4.5h10" fill="none" stroke="#666"/><path d="m6.01 14.517h11.99v6.983h-11.99z" fill="#ededed" fill-rule="evenodd" stroke="#666" stroke-linejoin="round" stroke-width=".6"/><path d="m7.009 15.41h3.993v4.969h-3.993z" fill="#415a75" fill-rule="evenodd" stroke="#e6e6e6" stroke-linejoin="round" stroke-width=".996"/></g><g transform="matrix(.76923 0 0 .76923 -.615 -.615)"><rect fill="#5a8c5a" height="13" rx="2.615" width="13" x="19" y="19"/><g fill-rule="evenodd"><path d="m20.3 25.5h10.4v-2.6c0-2.6-.65-2.6-5.2-2.6s-5.2 0-5.2 2.6z" fill="#fcffff" opacity=".3"/><path d="m22.936 28.064 5.128-5.128" fill="#fff" stroke="#fff" stroke-linecap="round" stroke-linejoin="round" stroke-width="2.871"/></g></g><path d="m7 6.5h10m-10 2h10" fill="none" stroke="#666" stroke-linecap="round"/></svg>