<svg height="24" width="24" xmlns="http://www.w3.org/2000/svg"><path d="m9.7 14.868 2.756-2.152-1.134-.654z" style="stroke-width:.5;stroke-linecap:square;stroke:#969696;fill:#969696;stroke-linejoin:round;stroke-dashoffset:.5"/><path d="m15.593 2.22-5.248 9.084" style="opacity:.5;fill:#fce94f;stroke:#8b7617;stroke-width:.75;stroke-linecap:round;stroke-linejoin:round;stroke-dashoffset:.5"/><path d="m9.231 14.717.54-3.55 1.133.654z" style="stroke-width:.5;stroke-linecap:square;stroke:#e6e6e6;fill:#e6e6e6;stroke-linejoin:round;stroke-dashoffset:.5"/><path d="m2.5 7.5h19v14h-19z" fill="#e6e6e6" stroke="#6e97c4"/><path d="m2.5 2.5h19v5h-19z" fill="#bad9ec" stroke="#6e97c4"/><g fill="none"><path d="m5 5h6" stroke="#6e97c4" stroke-width="2"/><path d="m5 9.5h3" stroke="#999"/><path d="m11 9.5h8" stroke="#999"/><path d="m5 12.5h3m-3 3h4" stroke="#999"/></g><g stroke-width=".9" transform="matrix(.76923 0 0 .76923 -.615 -.615)"><rect fill="#5a8c5a" height="13" rx="2.353" width="13" x="19" y="19"/><g fill-rule="evenodd"><path d="m21.6 25.5h7.8m-3.9 3.9v-7.8" fill="#fff" stroke="#fff" stroke-linecap="round" stroke-linejoin="round" stroke-width="2.34"/><path d="m20.3 25.5h10.4v-2.6c0-2.6-.65-2.6-5.2-2.6s-5.2 0-5.2 2.6z" fill="#fcffff" opacity=".3"/></g></g><g stroke-dashoffset=".5" stroke-linejoin="round"><path d="m9.882 10.937 3.408 1.967-4.068 2.945z" fill="#505050" stroke="#505050" stroke-linecap="round" stroke-width=".75"/><path d="m15.458 1.286 3.408 1.966-5.576 9.652-3.408-1.967z" fill="#fcb64f" stroke="#b56411" stroke-linecap="round" stroke-width=".75"/><g stroke-width="2"><path d="m16.843 2.383-5.368 9.208" fill="none" opacity=".5" stroke="#fcffff"/><path d="m18 3-5.386 9.244" fill-opacity=".588" opacity=".25" stroke="#000"/></g></g></svg>