<?xml version="1.0" encoding="UTF-8"?>
<svg width="24" height="24" xmlns="http://www.w3.org/2000/svg" xmlns:xlink="http://www.w3.org/1999/xlink">
 <defs>
  <linearGradient id="b" x1="3.5" x2="11.5" y1="19.5" y2="19.5" gradientTransform="matrix(1 0 0 1 0 -8)" gradientUnits="userSpaceOnUse">
   <stop stop-color="#b7b7b7" offset="0"/>
   <stop stop-color="#e6e6e6" offset="1"/>
  </linearGradient>
 </defs>
 <path d="M21.5 21.5h-17c-1 0-1.978-1.42-2-2.5V2.5h19z" fill="url(#b)" fill-rule="evenodd" stroke="#9a9a9a"/>
 <g fill="none" stroke="#373737" stroke-width=".895">
  <path transform="matrix(1.1176 0 0 1.1172 -29.91 -.844)" d="M29.228 15.13c.633.624 1.828 1.29 2.456 1.29h10.737M46 3l-3.579 3.574H32.58M42.421 6.574v9.846l3.58 3.58"/>
 </g>
 <path d="M21.5 21.5h-17c-1 0-1.978-1.42-2-2.5V2.5h19z" fill="none" stroke="#9a9a9a"/>
 <path d="m6.5 2c-1-1-3-1-4 0v16c1-1 3-1 4 0z" fill="#e6e6e6" fill-rule="evenodd" stroke="#9a9a9a"/>
 <path d="M17.5 10.5l-6.5 6-6.5-6h5v-5C8 .751.5 4.53.5 7.5c0-3.408 2.324-7 6.5-7 2.104 0 5.5 1.882 5.5 5v5z" fill="#e37e39" fill-rule="evenodd"/>
 <path transform="matrix(0 -1 -1 0 1049.4 20)" d="m9.5 1031.9-6 6.5 6 6.5v-5h5c5.235 1.5 0.97 9-2 9 3.408 0 7-3.074 7-6.5 0-2.104-2.276-5.5-5-5.5h-5z" fill="none" stroke="#d06935" stroke-linejoin="round"/>
</svg>
