<svg xmlns="http://www.w3.org/2000/svg" width="24" height="24"><circle cy="12" cx="12" r="10.5" fill="#efefed"/><path d="M8 22C-1.351 10 8 0 18.027 4.14l-1.894-1.837-3.81-.706-3.042.369-2.649 1.327-3.205 2.828L1 11l1.894 5.696 2.253 3.32z" fill="#fafafa"/><circle r="10.5" cx="12" cy="12" fill="none" stroke="#505050"/><g style="line-height:1.25"><path style="-inkscape-font-specification:Ubuntu" d="M8.304 292.97q0 .302-.202.526-.201.224-.548.224-.347 0-.549-.224-.201-.224-.201-.526 0-.303.201-.526.202-.224.549-.224.347 0 .548.224.202.223.202.526z" aria-label="." font-weight="400" font-size="6.667" letter-spacing="0" word-spacing="0" font-family="Ubuntu" transform="matrix(8.6667 0 0 8.6666 -53.468 -2527.053)" fill="#d00000" stroke="#860000" stroke-width=".115"/></g></svg>
