<svg height="24" width="24" xmlns="http://www.w3.org/2000/svg"><g fill-rule="evenodd"><path d="m9.4 23.7 4.97-6.21-4.97-6.21v4.14l-2.7.0221c-3.22-.0404-3.05-4.08.219-4.16v-1.66c-2.82 0-6.62 1.09-6.62 6.21 0 1.74 1.43 3.73 4.97 3.73h4.14z" fill="#8cbe8c" stroke="#639563" stroke-linejoin="round" stroke-width=".6"/><path d="m9.71 22.8-.00495-3.19c-.0076-.281-.179-.376-.345-.37l-3.91-.0051c-3.54-.0046-4.85-1.81-4.85-3.47.0113-2.41.833-3.73 2.02-4.66-.731.931-1.38 2.08-1.38 3.88 0 2.54 1.15 3.73 4.97 3.73h3.6c.389 0 .535.239.535.527v2.78z" fill="#afd5c1" stroke-width=".612"/><path d="m14.3.623-4.97 6.21 4.97 6.21v-4.14l2.7-.0221c3.22.0404 3.05 4.08-.219 4.16v1.66c2.82 0 6.62-1.09 6.62-6.21 0-1.74-1.43-3.73-4.97-3.73h-4.14z" fill="#8cbe8c" stroke="#639563" stroke-linejoin="round" stroke-width=".6"/><path d="m14 1.51.005 3.19c.0076.281.179.376.345.37l3.91.0051c3.54.0046 4.85 1.81 4.85 3.47-.0113 2.41-.833 3.73-2.02 4.66.731-.931 1.38-2.08 1.38-3.88 0-2.54-1.15-3.73-4.97-3.73h-3.6c-.389 0-.535-.239-.535-.527v-2.78z" fill="#afd5c1" stroke-width=".612"/></g></svg>