<svg height="24" width="24" xmlns="http://www.w3.org/2000/svg" xmlns:xlink="http://www.w3.org/1999/xlink"><linearGradient id="a" gradientTransform="matrix(.667 0 0 .778 .998 .776)" gradientUnits="userSpaceOnUse" x1="9" x2="9" y1="21" y2="24"><stop offset="0" stop-color="#d8cd7e"/><stop offset="1" stop-color="#ab983d"/></linearGradient><linearGradient id="b" gradientTransform="matrix(.687 0 0 .696 .76 3.08)" gradientUnits="userSpaceOnUse" x1="12" x2="12" y1="18" y2="24"><stop offset="0" stop-color="#4dadee"/><stop offset="1" stop-color="#c7e5f9"/></linearGradient><g fill="#ff9600" stroke="#fff"><path d="m8.12 8.61v.519c0 .71-.112 1.2-.45 1.83-.506 1.06-.562 1.2-.562 1.61 0 .792.618 1.45 1.35 1.45.759 0 1.35-.655 1.35-1.47 0-.273-.0843-.628-.281-.983-.646-1.34-.702-1.56-.702-2.43v-.519l.45.273c.59.328 1.04.71 1.43 1.26.927 1.23 1.24 1.47 1.99 1.47.702 0 1.26-.519 1.26-1.2 0-.847-.73-1.47-1.83-1.56-1.38-.0819-1.63-.137-2.5-.601l-.45-.246.45-.246c.646-.355 1.12-.519 1.85-.546 1.12-.109 1.21-.109 1.55-.246.562-.273.927-.765.927-1.34 0-.71-.59-1.26-1.32-1.26-.618 0-1.12.3-1.57.956-.787 1.15-.955 1.31-1.8 1.8l-.45.273v-.519c0-.683.112-1.2.45-1.83.534-1.09.562-1.2.562-1.58 0-.819-.618-1.47-1.38-1.47-.73 0-1.35.655-1.35 1.45 0 .3.0843.655.281 1.01.674 1.37.73 1.56.73 2.43v.519l-.45-.273c-.646-.355-1.01-.71-1.43-1.28-.562-.819-.562-.819-.787-1.04-.309-.273-.759-.437-1.12-.437-.759 0-1.35.573-1.35 1.26 0 .847.702 1.45 1.8 1.53 1.43.0819 1.66.137 2.53.601l.45.246-.45.273c-.59.328-1.15.492-1.85.546-1.1.0546-1.18.0819-1.55.218-.562.246-.927.765-.927 1.34 0 .683.59 1.26 1.32 1.26.618 0 1.15-.328 1.57-.956.759-1.09.983-1.34 1.8-1.8z"/><path d="m8.11 8.61v.519c0 .71-.112 1.2-.45 1.83-.506 1.06-.562 1.2-.562 1.61 0 .792.618 1.45 1.35 1.45.759 0 1.35-.655 1.35-1.47 0-.273-.0843-.628-.281-.983-.646-1.34-.702-1.56-.702-2.43v-.519l.45.273c.59.328 1.04.71 1.43 1.26.927 1.23 1.24 1.47 1.99 1.47.702 0 1.26-.519 1.26-1.2 0-.847-.73-1.47-1.83-1.56-1.38-.0819-1.63-.137-2.5-.601l-.45-.246.45-.246c.646-.355 1.12-.519 1.85-.546 1.12-.109 1.21-.109 1.55-.246.562-.273.927-.765.927-1.34 0-.71-.59-1.26-1.32-1.26-.618 0-1.12.3-1.57.956-.787 1.15-.955 1.31-1.8 1.8l-.45.273v-.519c0-.683.112-1.2.45-1.83.534-1.09.562-1.2.562-1.58 0-.819-.618-1.47-1.38-1.47-.73 0-1.35.655-1.35 1.45 0 .3.0843.655.281 1.01.674 1.37.73 1.56.73 2.43v.519l-.45-.273c-.646-.355-1.01-.71-1.43-1.28-.562-.819-.562-.819-.787-1.04-.309-.273-.759-.437-1.12-.437-.759 0-1.35.573-1.35 1.26 0 .847.702 1.45 1.8 1.53 1.43.0819 1.66.137 2.53.601l.45.246-.45.273c-.59.328-1.15.492-1.85.546-1.1.0546-1.18.0819-1.55.218-.562.246-.927.765-.927 1.34 0 .683.59 1.26 1.32 1.26.618 0 1.15-.328 1.57-.956.759-1.09.983-1.34 1.8-1.8z"/></g><g fill="#ff9600"><path d="m8.12 8.61v.519c0 .71-.112 1.2-.45 1.83-.506 1.06-.562 1.2-.562 1.61 0 .792.618 1.45 1.35 1.45.759 0 1.35-.655 1.35-1.47 0-.273-.0843-.628-.281-.983-.646-1.34-.702-1.56-.702-2.43v-.519l.45.273c.59.328 1.04.71 1.43 1.26.927 1.23 1.24 1.47 1.99 1.47.702 0 1.26-.519 1.26-1.2 0-.847-.73-1.47-1.83-1.56-1.38-.0819-1.63-.137-2.5-.601l-.45-.246.45-.246c.646-.355 1.12-.519 1.85-.546 1.12-.109 1.21-.109 1.55-.246.562-.273.927-.765.927-1.34 0-.71-.59-1.26-1.32-1.26-.618 0-1.12.3-1.57.956-.787 1.15-.955 1.31-1.8 1.8l-.45.273v-.519c0-.683.112-1.2.45-1.83.534-1.09.562-1.2.562-1.58 0-.819-.618-1.47-1.38-1.47-.73 0-1.35.655-1.35 1.45 0 .3.0843.655.281 1.01.674 1.37.73 1.56.73 2.43v.519l-.45-.273c-.646-.355-1.01-.71-1.43-1.28-.562-.819-.562-.819-.787-1.04-.309-.273-.759-.437-1.12-.437-.759 0-1.35.573-1.35 1.26 0 .847.702 1.45 1.8 1.53 1.43.0819 1.66.137 2.53.601l.45.246-.45.273c-.59.328-1.15.492-1.85.546-1.1.0546-1.18.0819-1.55.218-.562.246-.927.765-.927 1.34 0 .683.59 1.26 1.32 1.26.618 0 1.15-.328 1.57-.956.759-1.09.983-1.34 1.8-1.8z" stroke="#fff"/><path d="m8.11 8.61v.519c0 .71-.112 1.2-.45 1.83-.506 1.06-.562 1.2-.562 1.61 0 .792.618 1.45 1.35 1.45.759 0 1.35-.655 1.35-1.47 0-.273-.0843-.628-.281-.983-.646-1.34-.702-1.56-.702-2.43v-.519l.45.273c.59.328 1.04.71 1.43 1.26.927 1.23 1.24 1.47 1.99 1.47.702 0 1.26-.519 1.26-1.2 0-.847-.73-1.47-1.83-1.56-1.38-.0819-1.63-.137-2.5-.601l-.45-.246.45-.246c.646-.355 1.12-.519 1.85-.546 1.12-.109 1.21-.109 1.55-.246.562-.273.927-.765.927-1.34 0-.71-.59-1.26-1.32-1.26-.618 0-1.12.3-1.57.956-.787 1.15-.955 1.31-1.8 1.8l-.45.273v-.519c0-.683.112-1.2.45-1.83.534-1.09.562-1.2.562-1.58 0-.819-.618-1.47-1.38-1.47-.73 0-1.35.655-1.35 1.45 0 .3.0843.655.281 1.01.674 1.37.73 1.56.73 2.43v.519l-.45-.273c-.646-.355-1.01-.71-1.43-1.28-.562-.819-.562-.819-.787-1.04-.309-.273-.759-.437-1.12-.437-.759 0-1.35.573-1.35 1.26 0 .847.702 1.45 1.8 1.53 1.43.0819 1.66.137 2.53.601l.45.246-.45.273c-.59.328-1.15.492-1.85.546-1.1.0546-1.18.0819-1.55.218-.562.246-.927.765-.927 1.34 0 .683.59 1.26 1.32 1.26.618 0 1.15-.328 1.57-.956.759-1.09.983-1.34 1.8-1.8z" stroke-width=".692"/></g><path d="m2.48 12.5h13v9.05h-13z" fill="url(#b)" stroke="#597284" stroke-width=".953"/><path d="m3 17.3 3.33-2.33 8.67 3.89v2.11h-12z" fill="url(#a)" fill-rule="evenodd"/><g fill="#ec2606"><path d="m10.4 14.7c-.294-.18-.405-.37-.405-.699 0-.531.761-1.24 2.07-1.93.779-.41.837-.301.114.216-.877.627-1.64 1.58-1.65 2.05-.0026.197.096.166.514-.165 1.16-.92 3.5-4.73 4.32-7.06l.134-.378-.289-1.14c-.224-.883-.296-1.33-.319-1.98-.0336-.944.0178-1.11.428-1.39.811-.547 1.46.211 1.35 1.58-.0255.316-.164 1.01-.307 1.54l-.261.97.256.534c.509 1.06 1.41 2.17 2.19 2.69l.4.267.724-.101c.873-.122 2.22-.139 2.6-.034.151.042.366.16.476.263.388.36.217 1.09-.355 1.52-.158.118-.357.165-.772.186-.833.042-1.57-.208-2.82-.963l-.454-.273-.993.202c-.546.112-1.47.348-2.05.526-1.06.323-1.06.323-1.26.658-.912 1.55-1.88 2.7-2.48 2.95-.375.157-.873.141-1.16-.036zm11.9-3.59c.387-.108.619-.307.554-.478-.0288-.074-.194-.212-.366-.304-.287-.153-.411-.167-1.42-.154-.607.013-1.19.047-1.29.089-.178.07-.146.095.468.386.583.276 1.33.517 1.66.534.0628 0 .24-.031.394-.072zm-5.73-.795c.357-.103.794-.211.972-.238s.324-.056.324-.062c0-.013-.175-.2-.389-.428-.46-.492-1.05-1.31-1.39-1.92-.132-.241-.259-.438-.28-.437-.0218.0007-.158.383-.304.849-.207.664-.807 2.24-1.12 2.93-.0222.05.313-.044.745-.209s1.08-.385 1.43-.489zm-.216-5.94c.189-.721.165-1.32-.0638-1.63-.604-.809-.824.881-.355 2.73.044.173.0579.159.154-.152.0583-.188.177-.614.264-.946z" stroke="#fff" stroke-linejoin="bevel" stroke-width="1.2"/><path d="m10.4 14.7c-.294-.18-.405-.37-.405-.699 0-.531.761-1.24 2.07-1.93.779-.41.837-.301.114.216-.877.627-1.64 1.58-1.65 2.05-.0026.197.096.166.514-.165 1.16-.92 3.5-4.73 4.32-7.06l.134-.378-.289-1.14c-.224-.883-.296-1.33-.319-1.98-.0336-.944.0178-1.11.428-1.39.811-.547 1.46.211 1.35 1.58-.0255.316-.164 1.01-.307 1.54l-.261.97.256.534c.509 1.06 1.41 2.17 2.19 2.69l.4.267.724-.101c.873-.122 2.22-.139 2.6-.034.151.042.366.16.476.263.388.36.217 1.09-.355 1.52-.158.118-.357.165-.772.186-.833.042-1.57-.208-2.82-.963l-.454-.273-.993.202c-.546.112-1.47.348-2.05.526-1.06.323-1.06.323-1.26.658-.912 1.55-1.88 2.7-2.48 2.95-.375.157-.873.141-1.16-.036zm11.9-3.59c.387-.108.619-.307.554-.478-.0288-.074-.194-.212-.366-.304-.287-.153-.411-.167-1.42-.154-.607.013-1.19.047-1.29.089-.178.07-.146.095.468.386.583.276 1.33.517 1.66.534.0628 0 .24-.031.394-.072zm-5.73-.795c.357-.103.794-.211.972-.238s.324-.056.324-.062c0-.013-.175-.2-.389-.428-.46-.492-1.05-1.31-1.39-1.92-.132-.241-.259-.438-.28-.437-.0218.0007-.158.383-.304.849-.207.664-.807 2.24-1.12 2.93-.0222.05.313-.044.745-.209s1.08-.385 1.43-.489zm-.216-5.94c.189-.721.165-1.32-.0638-1.63-.604-.809-.824.881-.355 2.73.044.173.0579.159.154-.152.0583-.188.177-.614.264-.946z" stroke="#ec2606" stroke-width=".2"/></g><rect fill="#3c5a6e" height="11" rx="2.01" width="11" x="13" y="13"/><path d="m14 19 9-.01v-2c0-2.99-1-2.99-4.5-2.99s-4.5 0-4.5 3c0 2 0 2 .000001 2z" fill="#fcffff" fill-rule="evenodd" opacity=".3"/><g fill="none" stroke="#fff" stroke-linecap="round" stroke-linejoin="round"><path d="m21 16.5 1.5 1.99-1.5 1.99"/><path d="m17.7 17v-1.25h-2.5v5.5h2.5v-1" stroke-width="1.5"/><path d="m17 18.5h4.39"/></g></svg>