<svg height="24" width="24" xmlns="http://www.w3.org/2000/svg" xmlns:xlink="http://www.w3.org/1999/xlink">
<filter id="a" height="1.5" width="1.5" x="-.25" y="-.25">
<feGaussianBlur in="SourceAlpha" result="blur" stdDeviation="2"/>
<feColorMatrix result="bluralpha" type="matrix" values="1 0 0 0 0 0 1 0 0 0 0 0 1 0 0 0 0 0 0.351000 0"/>
<feOffset dx="7.5" dy="7.5" in="bluralpha" result="offsetBlur"/>
<feMerge>
<feMergeNode in="offsetBlur"/>
<feMergeNode in="SourceGraphic"/>
</feMerge>
</filter>
<g transform="translate(0 -8)">
<g fill="none" filter="url(#a)" stroke="#415a75" transform="matrix(.05336966 0 0 .05336966 -68.033684 42.105048)"/>
<rect fill="#6d97c4" height="10" rx="2" stroke="#415a75" stroke-linecap="round" width="19" x="2.5" y="14.5"/>
<path d="m3 15v3c0 1 2 1 3 1h12c1 0 3 0 3-1v-3z" fill="#90b1d1"/>
<path d="m6.5 20.5h11v4h-11z" fill="#7c7c7c" stroke="#545658" stroke-linecap="round" stroke-width=".99999994"/>
<rect fill="none" height="10" rx="2" stroke="#415a75" stroke-linecap="round" width="19" x="2.5" y="14.5"/>
<path d="m7.5 10.5h9v6h-9z" fill="#ededed" stroke="#959595" stroke-linecap="round"/>
<path d="m7.5 21.5h9v7.9999995h-9z" fill="#fbfefe" stroke="#959595" stroke-linecap="round"/>
<path d="m9 25.5h6" fill="none" stroke="#969696"/>
<path d="m9 27.5h6" fill="none" stroke="#969696"/>
<path d="m9 23.5h6" fill="none" stroke="#969696"/>
<path d="m7.0000002 21.500001h9.9999998" fill="none" stroke="#767676" stroke-width="1.00000012"/>
<path d="m7.0000002 22.5h9.9999998" fill="none" opacity=".5" stroke="#767676" stroke-width="1.00000012"/>
</g>
</svg>
