<svg height="24" width="24" xmlns="http://www.w3.org/2000/svg">
<g transform="translate(0 -1028.3622)">
<path d="m .75761482 1029.0024l4.23001378 10.8591.7330028 2.9484.087746 2.2286 16.1624395 5.0508-3.21986-11.0485 4.04061-9.7228-10.829921 4.0172z" fill="#e5e5e5"/>
<path d="m7.4128275 1034.6134h7.9310994v8.2807293h-7.9310994z" fill="#fce94f" stroke="#262626" stroke-linecap="round" stroke-width=".4"/>
<path d="m2.5384617 1030.9006h12.923078v12.923077h-12.923078z" fill="#fce94f" overflow="visible" stroke="#c4a000" stroke-linecap="round" stroke-width="1.07692313"/>
<path d="m .7576144.64022256l4.2300138 10.85913944.8207489 5.177032 16.1624399 5.050762-3.21986-11.048543 4.04061-9.72271778-10.695993 4.10647058z" fill="none" stroke="#424242" stroke-dasharray="4 1" transform="translate(0 1028.3622)"/>
<path d="m22.652743 1044.0577l-12.756464-6.9791 5.477553 13.6014 2.180887-3.5312 4.312159 4.7134 1.633122-1.5913-4.408599-4.6683 3.561343-1.5449z" style="fill:#fff;fill-rule:evenodd;stroke:#000;stroke-width:.69999999;stroke-linecap:round;stroke-linejoin:round"/>
</g>
</svg>
