<svg xmlns="http://www.w3.org/2000/svg" xmlns:xlink="http://www.w3.org/1999/xlink" width="24" height="24"><defs><linearGradient id="c"><stop style="stop-color:#000;stop-opacity:1" offset="0"/><stop style="stop-color:#000;stop-opacity:0" offset="1"/></linearGradient><linearGradient id="b"><stop style="stop-color:#90dbec;stop-opacity:1" offset="0"/><stop style="stop-color:#55c1ec;stop-opacity:1" offset=".262"/><stop style="stop-color:#3689e6;stop-opacity:1" offset=".705"/><stop style="stop-color:#2b63a0;stop-opacity:1" offset="1"/></linearGradient><linearGradient gradientTransform="matrix(0 -.44324 -.4587 0 32.385 24.993)" gradientUnits="userSpaceOnUse" xlink:href="#a" id="f" y2="60.881" x2="27.058" y1="60.881" x1="34.257"/><linearGradient id="a"><stop offset="0" style="stop-color:#fff;stop-opacity:1"/><stop offset=".373" style="stop-color:#fff;stop-opacity:.23529412"/><stop offset=".687" style="stop-color:#fff;stop-opacity:.15686275"/><stop offset="1" style="stop-color:#fff;stop-opacity:.39215687"/></linearGradient><linearGradient gradientTransform="matrix(-.40683 0 0 .37867 16.452 4.458)" gradientUnits="userSpaceOnUse" xlink:href="#b" id="e" y2="39.735" x2="23.732" y1="5.394" x1="23.732"/><radialGradient gradientTransform="matrix(.35132 0 0 -.15983 -2.905 20.593)" gradientUnits="userSpaceOnUse" xlink:href="#c" id="d" fy="36.421" fx="24.837" r="15.645" cy="36.421" cx="24.837"/></defs><path style="color:#000;clip-rule:nonzero;display:inline;overflow:visible;visibility:visible;opacity:.4;isolation:auto;mix-blend-mode:normal;color-interpolation:sRGB;color-interpolation-filters:linearRGB;solid-color:#000;solid-opacity:1;fill:#4d4d4d;fill-opacity:1;fill-rule:nonzero;stroke:none;stroke-width:1;stroke-linecap:butt;stroke-linejoin:miter;stroke-miterlimit:4;stroke-dasharray:none;stroke-dashoffset:0;stroke-opacity:1;marker:none;color-rendering:auto;image-rendering:auto;shape-rendering:auto;text-rendering:auto;enable-background:accumulate" d="M14 3v1h2V3h-2zM4 5v1h8V5H4zm10 0v1h9V5h-9zM4 16v1h8v-1H4zm10 0v1h9v-1h-9zM4 18v1h8v-1H4zm10 0v1h3v-1h-3zm0 2v1h2v-1h-2z"/><path style="color:#000;clip-rule:nonzero;display:inline;overflow:visible;visibility:visible;opacity:1;isolation:auto;mix-blend-mode:normal;color-interpolation:sRGB;color-interpolation-filters:linearRGB;solid-color:#000;solid-opacity:1;fill:#4d4d4d;fill-opacity:1;fill-rule:nonzero;stroke:none;stroke-width:1;stroke-linecap:butt;stroke-linejoin:miter;stroke-miterlimit:4;stroke-dasharray:none;stroke-dashoffset:0;stroke-opacity:1;marker:none;color-rendering:auto;image-rendering:auto;shape-rendering:auto;text-rendering:auto;enable-background:accumulate" d="M14 8v2h9V8h-9zm0 4v2h7v-2h-7z"/><path d="M11.318 14.772a5.496 2.5 0 1 0-10.993 0 5.496 2.5 0 0 0 10.993 0z" style="display:inline;overflow:visible;visibility:visible;opacity:.2;fill:url(#d);fill-opacity:1;fill-rule:evenodd;stroke:none;stroke-width:1;marker:none"/><path d="m6.5 16.5-6-5 6-5v3h5v4h-5z" style="color:#000;display:block;overflow:visible;visibility:visible;fill:url(#e);fill-opacity:1;fill-rule:nonzero;stroke:none;stroke-width:.96392483;marker:none;enable-background:accumulate"/><path d="m6.5 16.5-6-5 6-5v3h5v4h-5z" style="color:#000;display:block;overflow:visible;visibility:visible;opacity:.5;fill:none;stroke:#004372;stroke-width:1;stroke-linecap:butt;stroke-linejoin:round;stroke-miterlimit:7;stroke-dasharray:none;stroke-dashoffset:0;stroke-opacity:1;marker:none;enable-background:accumulate"/><path d="M5.5 14.344 2.045 11.5 5.5 8.667V10.5h5v2h-5z" style="color:#000;display:block;overflow:visible;visibility:visible;opacity:.40100002;fill:none;stroke:url(#f);stroke-width:1;stroke-linecap:butt;stroke-linejoin:miter;stroke-miterlimit:7;stroke-dasharray:none;stroke-dashoffset:0;stroke-opacity:1;marker:none;enable-background:accumulate"/></svg>