<?xml version="1.0" encoding="UTF-8"?>
<svg width="24" height="24" viewBox="0 0 24 24" xmlns="http://www.w3.org/2000/svg">
 <g transform="translate(0 -8)">
  <path transform="translate(0 8)" d="m8.0273 1.502c-2.8183 0.046637-5.287 1.2539-6.2832 4.1934-0.98847 2.9168 1.1706 8.1833 5.9316 5.8418 7.9077-3.889 7.9039 0.96289 9.8809 0.96289 2.4386 0 4.9414-1.699 4.9414-3.873 0-1.9445 0.0964-3.8062-0.99219-4.877-1.9769-1.9445-2.9737 0.98601-8.2891-1.1855-1.694-0.69207-3.4984-1.0905-5.1895-1.0625zm1.3438 1.9043c2.6718 0.20971 3.4212 1.4912 3.2539 2.8438-0.15298 0.80124-0.11218 1.7572-2.3125 2.125-2.2667 0.31163-2.8421 1.8976-5.375 0.4375-1.2344-0.80689-1.2032-1.9589-0.75-2.875 1.0021-1.6981 2.6725-2.6084 5.1836-2.5312z" fill="#8cbe8c" fill-rule="evenodd" stroke="#555753" stroke-linecap="round" stroke-linejoin="round"/>
  <rect x="14" y="22" width="10" height="10" rx="2.0115" fill="#d26464"/>
  <path d="m16.879 29.121 4.2426-4.2426" fill="#fcffff" fill-rule="evenodd" stroke="#fff" stroke-linecap="round" stroke-linejoin="round" stroke-width="2"/>
  <path d="m15 27h8v-2c0-2-0.5-2-4-2-3.5 0-4 0-4 2v2z" fill="#fcffff" fill-rule="evenodd" opacity=".3"/>
  <path d="m16.879 24.879 4.2426 4.2426" fill="#fcffff" fill-rule="evenodd" stroke="#fff" stroke-linecap="round" stroke-linejoin="round" stroke-width="2"/>
 </g>
</svg>
