<?xml version="1.0" encoding="UTF-8"?>
<svg id="svg4016" width="24" height="24" version="1.1" viewBox="0 0 24 24" xmlns="http://www.w3.org/2000/svg" xmlns:cc="http://creativecommons.org/ns#" xmlns:dc="http://purl.org/dc/elements/1.1/" xmlns:rdf="http://www.w3.org/1999/02/22-rdf-syntax-ns#">
 <metadata id="metadata4022">
  <rdf:RDF>
   <cc:Work rdf:about="">
    <dc:format>image/svg+xml</dc:format>
    <dc:type rdf:resource="http://purl.org/dc/dcmitype/StillImage"/>
    <dc:title/>
   </cc:Work>
  </rdf:RDF>
 </metadata>
 <g id="g6483">
  <g id="g6469" transform="rotate(-.61445 -345.87 83.398)" style="">
   <ellipse id="path4032" cx="11" cy="14" rx="7.7242" ry="4.7242" fill="none" stroke="#8cbe8c" stroke-width="2.5516"/>
   <path id="path4008" d="m18.5 6.5h3v3h-3z" fill="#bebebe" stroke="#8c8c8c"/>
   <path id="path4012" d="m9.9341 12.658h3v3h-3z" fill="#bebebe" stroke="#8c8c8c"/>
  </g>
  <g id="g4004" transform="translate(33)">
   <rect id="rect3998" x="-20" y="13" width="11" height="11" rx="2.0115" fill="#c4a000"/>
   <path id="path4000" d="m-15 14v2.0625c-0.53766 0.11104-1.0247 0.38329-1.375 0.78125l-1.7812-1.0312-0.5 0.875 1.7812 1.0312c-0.082063 0.24743-0.125 0.5064-0.125 0.78125s0.04294 0.53382 0.125 0.78125l-1.7812 1.0312 0.5 0.875 1.7812-1.0312c0.3525 0.40042 0.83268 0.67018 1.375 0.78125v2.0625h1v-2.0625c0.53766-0.11104 1.0247-0.38329 1.375-0.78125l1.7812 1.0312 0.5-0.875-1.7812-1.0312c0.082063-0.24743 0.125-0.5064 0.125-0.78125s-0.04294-0.53382-0.125-0.78125l1.7812-1.0312-0.5-0.875-1.7812 1.0312c-0.3525-0.40042-0.83268-0.67018-1.375-0.78125v-2.0625zm0.5 3.5c0.552 0 1 0.448 1 1s-0.448 1-1 1-1-0.448-1-1 0.448-1 1-1z" fill="#fcffff"/>
   <path id="path4002" d="m-19 19 9-0.0096v-2c0-2.9904-1-2.9904-4.5-2.9904s-4.5 0-4.5 3v2z" fill="#fcffff" fill-rule="evenodd" opacity=".3"/>
  </g>
 </g>
</svg>
