<svg height="32" width="32" xmlns="http://www.w3.org/2000/svg"><path d="m201.45399 112.872-183.068579-100.1569 78.608601 195.1939 31.298008-50.676 61.88398 67.642 23.43701-22.83701-63.26799-66.99398 51.10898-22.17201z" style="fill:#fff;fill-rule:evenodd;stroke:#000;stroke-width:10.450872;stroke-linecap:round;stroke-linejoin:round" transform="matrix(.09242537 .02476532 -.02476532 .09242537 .891621 .245488)"/><path d="m24.041963 23.121183c-.03224-3.159045.322354-4.0294 2.385404-5.802334 3.159046-2.804459 3.868223-3.900461 3.868223-6.156922 0-3.3524563-2.482113-5.608923-6.156921-5.608923-3.642573 0-6.285863 1.9985846-6.285863 4.770808 0 1.418347.902587 2.48211 2.095288 2.48211 1.031525 0 1.837406-.773646 1.837406-1.772936 0-.644703-.322353-1.1927021-.934821-1.7084647-.483527-.3868219-.515763-.4512929-.515763-.7091742 0-.8381141 1.41835-1.6117595 2.965638-1.6117595 2.288696 0 3.610341 1.4828212 3.610341 3.9649284 0 1.321642-.386823 2.546581-1.031526 3.481401-2.385402 3.255751-2.385405 3.255755-2.804462 4.383986-.322351.902584-.451292 1.740702-.451292 3.255754v1.031526zm-.773645 2.611051c-1.12823 0-2.030817.902586-2.030817 1.998582 0 1.12823.902587 2.030817 1.998582 2.030817 1.128231 0 2.030817-.902587 2.030817-2.030817 0-1.095996-.902586-1.998582-1.998582-1.998582"/></svg>