<?xml version="1.0" encoding="UTF-8"?>
<svg width="24" height="24" viewBox="0 0 24 24" xmlns="http://www.w3.org/2000/svg">
 <linearGradient x1="23" x2="23" y1="23" y2="29" gradientUnits="userSpaceOnUse">
  <stop stop-color="#555753" offset="0"/>
  <stop stop-color="#555753" stop-opacity="0" offset="1"/>
 </linearGradient>
 <g transform="translate(0 -8)">
  <path d="m8.0276 9.5014c-2.8183 0.046637-5.2878 1.2553-6.284 4.1947-0.98847 2.9168 1.1715 8.182 5.9326 5.8405 7.9077-3.889 7.9038 0.96338 9.8807 0.96338 2.4386 0 4.9404-1.6996 4.9404-3.8736 0-1.9445 0.09638-3.8064-0.99221-4.8771-1.9769-1.9445-2.9737 0.9874-8.2891-1.1842-1.694-0.69207-3.4974-1.0917-5.1884-1.0637z" fill="#8cbe8c" fill-rule="evenodd" stroke="#555753" stroke-linecap="round" stroke-linejoin="round"/>
  <rect x="13" y="21" width="11" height="11" rx="2.0115" fill="#3c5a6e"/>
  <path d="m14 27 9-0.009599v-2c0-2.9904-1-2.9904-4.5-2.9904s-4.5 0-4.5 3c0 2 0 2 1e-6 2z" fill="#fcffff" fill-rule="evenodd" opacity=".3"/>
  <path d="m21.499 26.238c0-1.5208-1.2403-2.7507-2.9994-2.7374-1.8982-0.01537-2.9994 1.2476-2.9994 2.9999 0 1.4399 1.5003 2.5 3 2.5" fill="none" stroke="#fff" stroke-linecap="square" stroke-width="1.5"/>
  <path d="m18.581 27 1.5 2-1.5 2" fill="none" stroke="#fff" stroke-linecap="round" stroke-linejoin="round" stroke-width="1.5"/>
 </g>
</svg>
