<?xml version="1.0" encoding="UTF-8"?>
<svg width="24" height="24" viewBox="0 0 24 24" xmlns="http://www.w3.org/2000/svg">
 <g transform="translate(0 -8)">
  <path d="m1.5549 16.285s0.25797 5.8174 1.5701 9.9022c0.729 2.2695 1.7219 2.6709 2.25 2.75 0.80936 0.12121 1.9261 0.22411 2.625-0.8125 0.6882-1.0208 1.2939-5.9653 1.7266-6.8359 0.34416-0.69253 2.2286-1.6612 3.4119-1.7573 2.0515-0.16645 3.7058 0.95074 3.7738 0.81482l0.65024-4.9716z" fill="#d5bc4c" stroke="#555753"/>
  <path transform="translate(0 8)" d="m8.0273 1.502c-2.8183 0.046637-5.287 1.2539-6.2832 4.1934-0.98847 2.9168 1.1706 8.1833 5.9316 5.8418 7.9077-3.889 7.9039 0.96289 9.8809 0.96289 2.4386 0 4.9414-1.699 4.9414-3.873 0-1.9445 0.0964-3.8062-0.99219-4.877-1.9769-1.9445-2.9737 0.98601-8.2891-1.1855-1.694-0.69207-3.4984-1.0905-5.1895-1.0625z" fill="#8cbe8c" fill-rule="evenodd" stroke="#555753" stroke-linecap="round" stroke-linejoin="round"/>
  <path d="m1.7055 16.762c-0.043931 0.24894 0.74916 1.934 1.37 2.3754 1.3278 0.94414 1.9285 1.0465 2.4488 0.98522 1.7389-0.20486 4.5632-1.8791 5.9441-1.9335 0.74816-0.02947 1.442-0.13157 1.9887-0.11048 0.50352 0.01942 1.8562 0.7292 1.9666 0.90598 0.11048 0.17678 1.2816 1.0607 1.2816 1.0607" fill="none" stroke="#8cbe8c" stroke-dasharray="1.20000005 2.4000001" stroke-linecap="round" stroke-linejoin="round" stroke-width="1.2"/>
 </g>
</svg>
