<svg height="24" viewBox="0 0 24 24" width="24" xmlns="http://www.w3.org/2000/svg"><path d="m11.068112 18.608277c-.02638-2.58523.263801-3.297492 1.952114-4.748386 2.58523-2.295051 3.165591-3.191972 3.165591-5.0385645 0-2.7435088-2.031257-4.5901059-5.038565-4.5901059-2.9809278 0-5.1440841 1.6355573-5.1440841 3.904228 0 1.1607153.7386387 2.0312534 1.7146947 2.0312534.8441566 0 1.5036554-.6331185 1.5036554-1.4508951 0-.5275979-.2637997-.9760575-.7650177-1.3981357-.3956984-.3165588-.4220787-.3693191-.4220787-.5803583 0-.6858772 1.1607177-1.3189959 2.4269524-1.3189959 1.872973 0 2.954551 1.2134783 2.954551 3.24473 0 1.0815756-.316559 2.084014-.844157 2.849031-1.952112 2.664369-1.952115 2.664373-2.295053 3.587669-.263799.738637-.3693191 1.424517-.3693191 2.664372v.844158zm-.633118 2.136773c-.923296 0-1.6619346.738639-1.6619346 1.635555 0 .923296.7386386 1.661935 1.6355546 1.661935.923297 0 1.661935-.738639 1.661935-1.661935 0-.896916-.738638-1.635555-1.635555-1.635555" fill="#fff" transform="matrix(.78565017 0 0 .70666671 2.78361 3.509937)"/><path d="m2.2645314 1.4840879h19.410269v20.348433h-19.410269z" fill="#6d97c4" stroke="#1f1b1e" stroke-width=".867"/><path d="m2.4262834 1.4679123h4.481678v20.348433h-4.481678z" fill="#2d3e4d" stroke="#1f1b1e" stroke-width=".867"/><path d="m13.944461 17.701892c-.261816-.000001-.485867-.09314-.672153-.279435-.181258-.191324-.271885-.417892-.271881-.679704-.000004-.266846.09062-.493414.271881-.679705.186286-.186288.410337-.279433.672153-.279434.261808.000001.485858.09315.672152.279434.19132.186291.286982.412859.286987.679705-.000005.256777-.09315.480828-.279434.672152-.186294.191324-.412863.286986-.679705.286987m.339852-3.88187v.59663h-.619286v-1.064871c-.000004-.392714.05034-.725013.151045-.9969.100693-.271877.304604-.604176.611735-.9969.03524-.05034.08811-.118313.158597-.203912.714943-.9113 1.072417-1.7395324 1.072423-2.4846983-.000006-.654521-.148534-1.142901-.445584-1.4651414-.292026-.3222197-.735093-.4833348-1.3292-.4833456-.362513.0000108-.684743.085603-.966691.2567774-.281955.1711952-.422931.3574845-.422928.5588683-.000003.060428.115799.1963689.347405.4078229.2316.211473.347401.4632153.347404.7552275-.000003.2668556-.08308.4833539-.249225.6494956-.161118.1611232-.377616.2416807-.649495.2416728-.297059.0000079-.536214-.1082412-.717466-.3247478-.181257-.2164901-.271884-.5034763-.271882-.8609593-.000002-.6645905.284467-1.2259757.853407-1.6841574.568935-.4581601 1.283883-.6872455 2.144846-.687257.865989.0000115 1.570867.2442015 2.114637.7325707.548791.4883907.82319 1.1177463.823198 1.8880687-.000008.9465597-.596637 1.9484939-1.789889 3.0058059-.151051.130911-.264335.231608-.339853.302091-.32727.297061-.546286.579012-.657048.845854-.110771.261817-.166154.599152-.16615 1.012005" fill="#fff" transform="scale(1.0231315 .97739146)"/></svg>