<?xml version="1.0" encoding="UTF-8"?>
<svg width="24" height="24" xmlns="http://www.w3.org/2000/svg">
 <linearGradient id="a" x1="3.5" x2="11.5" y1="19.5" y2="19.5" gradientUnits="userSpaceOnUse">
  <stop stop-color="#b7b7b7" offset="0"/>
  <stop stop-color="#e6e6e6" offset="1"/>
 </linearGradient>
 <g transform="translate(0 -8)">
  <path d="m21.5 29.5h-17c-1 0-1.9778-1.4206-2-2.5v-16.5h19z" fill="url(#a)" fill-rule="evenodd" stroke="#9a9a9a"/>
  <path d="m16.5 29.5v-3h-3v3z" fill="#6d97c4" fill-rule="evenodd" stroke="#415a75" stroke-linejoin="round"/>
  <path d="m4 23 4.5 4.5v-3h3v-3h-3v-3z" fill="#6d97c4" fill-rule="evenodd" stroke="#415a75" stroke-linejoin="round"/>
  <path d="m15 12 4.5 4.5h-3v3h-3v-3h-3z" fill="#6d97c4" fill-rule="evenodd" stroke="#415a75" stroke-linejoin="round"/>
  <path d="m21.5 24.5h-3v-3h3z" fill="#6d97c4" fill-rule="evenodd" stroke="#415a75" stroke-linejoin="round"/>
  <path d="m21.5 29.5h-17c-1 0-1.9778-1.4206-2-2.5v-16.5h19z" fill="none" stroke="#9a9a9a"/>
  <path d="m6.5 10c-1-1-3-1-4 0v16c1-1 3-1 4 0z" fill="#e6e6e6" fill-rule="evenodd" stroke="#9a9a9a"/>
 </g>
</svg>
