<svg height="24" width="24" xmlns="http://www.w3.org/2000/svg">
<g transform="translate(0 -8)">
<g transform="matrix(.69230769 0 0 .69230769 1.8461539 9.8461539)">
<rect fill="#5a8c5a" height="13" rx="2.6149371" ry="2.6149368" width="13" x="19" y="19"/>
<path d="m21.6 25.499999l7.8 0" style="fill:#fff;fill-rule:evenodd;stroke:#fff;stroke-width:2.5999999;stroke-linecap:round;stroke-linejoin:round;overflow:visible"/>
<path d="m25.5 29.399999l0-7.799999" style="fill:#fff;fill-rule:evenodd;stroke:#fff;stroke-width:2.5999999;stroke-linecap:round;stroke-linejoin:round;overflow:visible"/>
<path d="m20.3 25.499999h10.4c0 0 0 0 0-2.6 0-2.599999-.65-2.599999-5.2-2.599999-4.55 0-5.2 0-5.2 2.599999 0 2.6 0 2.6 0 2.6z" fill="#fcffff" fill-rule="evenodd" opacity=".3"/>
</g>
<path d="m5.5991742 18.641711l12.8016518-8.283421" fill="none" stroke="#000" stroke-dasharray="1 1" transform="translate(0 8)"/>
<path d="m18.263443 7.8817218l-7.526886-3.7634432" fill="none" stroke="#000" transform="translate(0 8)"/>
<circle cx="12" cy="20" r="8.5" style="fill:#2a7fff;stroke:#333;stroke-width:1.00173461;stroke-linejoin:round;stroke-miterlimit:.40000001;stroke-opacity:.97254902" transform="matrix(.29411765 0 0 .29411762 4.9705882 5.1176476)"/>
<circle cx="12" cy="20" r="8.5" style="fill:#2a7fff;stroke:#333;stroke-width:1.00173461;stroke-linejoin:round;stroke-miterlimit:.40000001;stroke-opacity:.97254902" transform="matrix(.29411765 0 0 .29411762 16.970588 11.117648)"/>
<circle cx="12" cy="20" r="8.5" style="fill:#2a7fff;stroke:#333;stroke-width:1.00173461;stroke-linejoin:round;stroke-miterlimit:.40000001;stroke-opacity:.97254902" transform="matrix(.29411765 0 0 .29411762 -.02941183 22.117648)"/>
<path d="m7.7944002 5.3990395l-3.5888004 12.2019215" fill="none" stroke="#000" transform="translate(0 8)"/>
</g>
</svg>
