<svg width="24" height="24" xmlns="http://www.w3.org/2000/svg"><linearGradient id="d" x1="1.08" x2="4.39" y1="9.48" y2="9.48" gradientUnits="userSpaceOnUse"><stop stop-color="#fff" stop-opacity=".992" offset="0"/><stop stop-color="#828282" stop-opacity=".996" offset="1"/></linearGradient><linearGradient id="c" x1="1.08" x2="19.1" y1="10.5" y2="10.4" gradientUnits="userSpaceOnUse"><stop stop-color="#3b5068" offset="0"/><stop stop-color="#6e97c4" stop-opacity=".535" offset=".5"/><stop stop-color="#6e97c4" stop-opacity="0" offset="1"/></linearGradient><path d="m22.7 3.79l.0228 13.5-19.6-.046c-.733 0-1.84-.154-1.84-.826l.0968-12.6z" fill="url(#c)" stroke="#000" stroke-width=".381"/><path d="m8.27 5.11c-.195.0137-.331.159-.521.169-.112.0145-.224.029-.336.0434-.167.11.0379.217.163.207-.00709.0722.216.0743.283-.0143.0522.0894.122-.157.25-.103.207-.0429.413-.109.622-.137.0333.171-.211.148-.346.14-.152.0681.174.0953.237.112.162.112.26.281.275.479.00944.217-.379.00529-.223.251.0169.183.107.378.29.445.191-.0917.178-.41.428-.414.194-.0174.244-.217.457-.196.184-.0598.543-.0131.457-.313-.0011-.229.408-.0377.346-.317.0546-.132.338-.125.167-.252-.204-.0681-.41.0221-.632-.00446-.192-.00295-.384.0104-.576-.0139-.135-.103-.295.0222-.45-.00449-.149.00238-.298.00362-.444-.0324-.151.0159-.299-.0501-.447-.0438zm8.32.453c-.206.00903-.39-.0072-.538.15-.146.0552-.451-.0171-.505.137.101.101.0047.366-.104.161-.0362-.0743-.141-.263-.0766-.0695.047.102.173.307-.0452.262-.044-.135-.0267-.394-.241-.391-.212-.045-.0186.257.0777.276-.127.168-.371.0403-.491-.0645-.134.0917-.27.162-.429.0874-.169.0705-.371.117-.508.255-.126.215-.285.00954-.382-.105.105-.115.369.102.343-.109-.181-.0682-.357-.14-.553-.159-.204-.0258-.448-.0876-.609.083-.151.124-.323.229-.446.381.0073.197-.283.0202-.218.244-.0111.0928.0185.197.0733.0633.145.0475.294.134.338.277.16.0889.327-.199.305-.294-.0993-.191.0759-.372.267-.388.113.0906-.221.303.0366.341.0938-.0543.361-.0108.172.102-.0875.0403-.222-.102-.141.0784.0538.194-.219-.0126-.157.193-.0573.163-.261.0179-.354.146-.0985-.0764-.216-.0639-.334-.0365-.0452-.124-.117.125-.196.0731-.138.0028-.0881.168-.222.165-.0709.175-.293.128-.4.197.1.0417.175.108.0132.0853-.165.0291.215.155.101.271-.028.218-.266.047-.405.0429-.149.104-.101.346-.0963.507.0825.0666.252.107.353.0873.138-.0685.237-.152.245-.305.0958-.0602.167-.129.233-.226.104-.0449.269.0601.249-.126.154.0231.199.21.373.245.151.0637.25.287.0164.296-.0065.116.244-.0507.204-.175.204.0527-.0711-.179-.166-.209-.099-.0414-.25-.34-.0343-.206.116.108.277.182.362.288.0242.135.115.342.24.386.043-.0288.0324-.115.0898-.129-.111-.0389-.113-.247.0227-.146.095-.0742.201-.0913.15.061-.0338.223.234.288.407.251.182-.0404.342.0322.229.236-.0292.231-.263.269-.451.207-.192.012-.402-.0215-.547-.148-.0394-.0117-.0308.281-.17.202-.154-.0182-.282-.176-.44-.162-.0803-.0852-.194-.139-.114-.285.108-.189-.173-.0426-.218-.0499-.179.00544-.361.0371-.514.103-.128-.0533-.296.0698-.361-.0184-.0614.099-.139.188-.248.233-.0534.164-.0831.304-.25.404-.14.131-.228.301-.293.478-.0484.169.0685.358-.0418.525-.0724.182.0258.34.167.452.0889.212.242.429.474.49.157-.0165.279-.0725.436-.0901.141-.0384.287-.119.427-.0486.0917.0456.133.171.245.14.126.015.165.191.14.299-.157.214.139.315.163.514.106.165.0922.351.128.527-.0045.166-.168.282-.141.455.0467.169.162.337.21.516.0306.186.000505.397.164.53.101.117.0351.498.265.403.147-.0136.317-.049.431-.152.126-.155.31-.257.381-.447.021-.189.329-.254.183-.435-.0208-.216.172-.378.334-.488.136-.159.0729-.399.0271-.585-.0862-.204-.0606-.417.116-.566.124-.167.234-.34.388-.481.0936-.168.247-.31.281-.506.0663-.146.0069-.186-.118-.11-.142-.0666-.407.115-.46-.053-.0366-.207-.195-.362-.328-.513-.0958-.177-.177-.362-.244-.553-.0374-.128-.18-.347-.176-.403.0897.0788.219.0354.26.192.156.173.172.429.344.592.161.147.118.408.27.539.103.0396.216-.0322.299-.0893.172-.101.372-.152.5-.317.0403-.139.382-.319.149-.418-.151-.0392-.117-.431-.258-.186-.0964.171-.357.133-.374-.0749-.0241-.0924-.165-.363-.0599-.363.091.132.249.267.421.256.17-.0254.214.186.391.166.157.0294.336-.0405.476.0597.138.0732.217.294.373.315.182-.171.137.169.153.278.0828.183.166.369.218.559.0104.151.131.306.25.121.121-.147-.0481-.365.0648-.524.0451-.223.296-.252.399-.439.104-.175.356-.107.441.0504.0246.184.263.208.227.405.0479.066.17-.128.185.0531.107.169-.0162.376.0944.541.0756-.0668-.0537-.38.118-.398.0923.126.191.325.344.359.159-.108.367-.33.176-.508-.0424-.199-.419-.299-.191-.504.154-.231.28.117.249.24.115-.134.122-.334.297-.398.221-.0211.35-.248.365-.449-.009-.224-.198-.329-.301-.508-.0828-.0726.201-.301-.0237-.212-.158.0167-.353-.0164-.168-.182.0388-.117.216-.258.216-.0467.0325.185.177-.137.232.0613-.0362.165.268.126.191.342.132.17.373-.204.125-.248-.158-.0595-.229-.217-.0979-.345-.0432-.206.275-.0147.256-.225.0709-.133.0498-.312.0308-.457-.115-.146-.225-.316-.445-.251-.193.0573-.24-.135-.176-.294.0988-.197.303-.21.494-.144.128.0268.298.102.264-.113.0359-.122.123-.13.197-.043.0852-.0774.21-.129.217.0453-.0243.133-.153.32.0383.428.112.0817.16.272.318.343.0058-.175.0905-.412-.0794-.542-.231-.0138-.0433-.24.0884-.261.0996-.0443-.0429.24.0937.073.111-.108.096-.179.243-.146.0573-.0902-.181-.129-.254-.203-.0437-.0289.112-.0623.128-.107.1-.00905.384.148.391.0667-.122-.176-.35-.159-.538-.153-.186-.101-.405-.0966-.607-.146-.102-.048-.169-.0014-.21.0836-.221-.0956-.47-.0962-.707-.11-.157-.113-.373-.0422-.556-.0603-.165.0375-.353-.135-.464-.123-.0853.244-.352.0991-.537.106-.178-.00831-.32-.149-.506-.0978-.186.107-.371-.00158-.553-.0241-.127.0391-.354.0162-.154-.132.0913-.125-.218-.0617-.295-.0776-.0114-.0522-.0835-.0265-.128-.0317zm-11.1.137c-.0969-.0142-.353.178-.139.166.107.0288.193-.00556.15.139.125.164.326-.0295.475.0688.14-.0438.308-.0423.252-.235-.00611-.12-.195.0562-.282.0151-.181.0539-.256-.213-.456-.154zm1.7.0371c-.114.044-.178.21-.0273.24.0742-.149.295-.0109.404.0216.106.143.0971.336-.111.358-.0921.129.228.215.335.225.0964-.016-.102-.219.0564-.175.217.13-.107-.27.0855-.15.0943.0494.069-.115.0387-.171-.0634-.066-.142-.117-.0863-.204-.204-.037-.379-.218-.596-.0936-.0464.0396-.0673-.0315-.0986-.0523zm-.473.15c-.202-.0181-.177.38-.387.307-.169-.0745-.41-.108-.569-.0202-.0656.156-.177-.0636-.309-.0255-.0614-.137-.3-.0548-.452-.0974-.202-.0762-.428-.00521-.625.0568-.144.0742-.284.00958-.35-.123-.0888-.115-.354-.0328-.501-.0195-.213.0334-.423.0306-.627.0935-.11.0163-.317.0641-.184.191-.0442.136-.378-.11-.334.12.0436.118.279-.118.184.048-.119.159-.389.0215-.471.225-.104.173.235.125.105.265.159-.0399.36-.11.498-.199.000504.148.212-.123.314-.0142.153.0156.358.0402.448.129.164.0966.0681.325.0614.475.0276.152.109.329-.0353.406-.0392.191-.223.304-.291.483-.156.119-.0814.351-.0525.52.0472.163.278.205.207.412.0219.137.0618.273.122.4.0653.0564.0938.246.0686.0582.0122-.193-.195-.39-.0945-.558.138.0826.111.312.212.445.0881.131.182.28.231.435-.0732.222.24.296.382.407.161.0832.338-.0625.454.115.107.136.321.0271.384.208.0798.0983.0804.301.254.308.041.0146.155.113.152.0651-.0857-.118-.249-.189-.208-.369.0396-.155.0743-.379-.162-.331-.128.0436-.148.0108-.0844-.106.0779-.132.173-.426-.0906-.322-.0279.232-.307.333-.47.158-.14-.155-.0174-.365.0303-.532.00893-.205.235-.3.411-.339.0909-.066.178.172.262.0153.0587-.158.273-.0641.349.0227.0968.0708.0039.278.132.345.191-.139-.0472-.386.0806-.545.145-.13.326-.218.467-.35.047-.163.225-.246.3-.384.0839-.098.249.00204.242-.169.0998-.132.355-.227.449-.242-.127.00139-.155.32-.00758.146.0556-.151.342-.0549.327-.224-.0684.0555-.448.0431-.205-.0947.118-.16-.366.0642-.274-.1.21-.121.458-.0954.689-.107.123-.0352.379-.296.156-.311-.0326.0216-.171-.163-.128-.243.0443-.114-.00341-.257-.127-.137-.114.118-.247.0844-.217-.084-.0907-.171-.355-.171-.439.0159-.206-.0283-.0289.297-.138.37-.182.0154-.27.126-.3.292-.181.0803-.23-.177-.107-.262-.173-.0285-.351-.0467-.477-.175-.0975-.217.183-.347.342-.415.135-.0767.358-.0595.326-.261.115.171.208-.0794.377-.0606.148.0162.201-.263.0483-.134-.0822.0218-.308.184-.241-.00705-.153.0213-.0148-.179-.108-.174zm-.627 4.75c-.0721.151-.31.213-.342.398.00955.108.112.175.00586.27-.0403.123-.13.225-.186.342-.129.0919-.0468.199-.0279.304-.18.0928.000409.255.0725.357.102.147.133.327.229.476.165.12.29.323.498.366.145.144.0337.356.0592.546.0141.211.0256.421.0411.633.0119.222.0295.443.0448.664.103.123.237.311.173.463-.0901.0974.056.196.0813.295.0733.145.221.299.397.266-.0897-.132.0892-.307.0262-.468-.1.0048-.151-.0533-.0684-.153.178-.0932-.135-.301.0169-.325.146.123.11-.127.136-.181.0728-.0107.177.0697.209-.0697.134-.0796.0635-.191-.0639-.242-.102-.204.205.0932.264-.0719.0874-.156.202-.236.201-.414.136-.11.0527-.284.108-.397.137-.0865.396-.0488.45-.223.0891-.165.101-.337.121-.519.0153-.17.0458-.367.154-.489.109-.102.193-.324.018-.397-.134-.0437-.253-.189-.408-.177-.168.0241-.252-.0708-.383-.151-.0956.0047-.0825.0197-.1-.0356-.0789-.0488-.33.104-.173-.0391.134-.149-.0328-.363-.179-.431-.194.0544-.26-.227-.436-.262-.125-.0192-.214-.137-.238-.191-.189.0282-.342.0045-.489-.115.00421.0966-.158.372-.118.126-.0355-.0462-.0486-.117-.0943-.152zm13.7.49c-.059.198-.324.14-.334.354-.0548.054-.0364.153-.153.081-.0646.133.0314.432.227.365.119.0347.256.0288.254-.118.0888-.106.179-.221.0834-.359.0574-.129.105-.268-.0775-.322zm-1.47.105c.0247.131.193.286.25.441.136.162.188.397.371.516.2-.115-.0101-.319-.0793-.45-.0572-.174-.206-.229-.336-.323-.057-.0925-.0908-.171-.206-.183zm2.67.486c-.137-.00049-.141.0519-.0356.113.108.0493-.0883.115.0582.158.155.0235.424.0962.35.303-.00074.0749.127-.0028.154.0917.135.0585.198-.0068.307-.058.116.0968.296.32.443.227-.0816-.124-.346-.196-.26-.344-.0834-.072-.139-.218-.293-.217-.129-.0481-.301-.186-.424-.136-.056.233-.294.075-.255-.107-.0038-.0194-.0236-.0345-.0433-.0308zm.621.916c-.0455.136-.0629.346-.18.461-.133.0818-.274-.0807-.33-.184.0047-.107.13-.262-.0684-.227-.172-.0537-.375.122-.372.27-.147.0592-.183-.258-.32-.0393-.0459.071-.11.126-.132.197-.107-.151-.0901.21-.247.191-.151.0887-.333.0958-.465.214-.121.126-.0593.362-.114.53.0012.128.0779.365-.0344.437.0555.187.35-.0418.502-.0235.121-.0503.278-.0777.399-.152.169-.0059.326-.0634.424.111-.0489.202.172.0207.246-.0193-.0897.149.0248.254.0026.406.0664.122.31.0185.304.117.195-.0794.383-.178.503-.357.153-.12.304-.285.345-.477.0611-.153.123-.445-.0581-.512-.121-.0945-.0964-.305-.249-.36.0669-.195-.0703-.38-.145-.551zm-6.7.0879c-.0249.108-.0928.191-.197.227-.128.0663-.23.0943-.162.264.0307.194-.187.303-.0815.496.0358.144.174.0669.261.0135-.0116-.209.116-.38.178-.57.0095-.128.076-.258.0154-.383-.0045-.0155-.009-.031-.0135-.0464z" fill="#dbdbdb" stroke="#000" stroke-width=".0439"/><path d="m2.74 15.5c.733 0 1.47.168 1.47.672v-12.8c0-.504-.733-.672-1.47-.672-.733 0-1.47.168-1.47.672v12.8c0-.672.733-.672 1.47-.672z" fill="url(#d)" stroke="#000" stroke-linecap="round" stroke-linejoin="round" stroke-width=".381"/><path d="m20.4 14.2l-13.8-7.55 5.92 14.7 2.36-3.82 4.66 5.1 1.77-1.72-4.77-5.05 3.85-1.67z" fill="#fff" fill-rule="evenodd" stroke="#000" stroke-linecap="round" stroke-linejoin="round" stroke-width="1.14"/></svg>
