<?xml version="1.0" encoding="UTF-8"?>
<svg width="24" height="24" version="1.1" xmlns="http://www.w3.org/2000/svg">
 <g fill="none" stroke="#5b6775" stroke-linecap="round" stroke-width="1.0018">
  <path d="m21.882 5.67-9.3597 1.0248m4.0441-5.1771 1.2716 9.3294m-1.3294-9.7535 5.7989 4.5298-4.4117 5.6477-5.7989-4.5298z"/>
  <path d="m10.5 14.708-7.8874 7.5484m0-7.5484 7.8874 7.5484m-8.2459-7.8915h8.6044v8.2346h-8.6044z"/>
  <path d="m9.2713 2.6065-6.2013 6.2975m0-6.2975 6.2013 6.2975m-6.4832-6.5837h6.7651v6.8699h-6.7651z"/>
 </g>
 <path d="m15.378 15.997c-1.9238-0.68359-2.8857-1.7187-2.8857-3.1055-2e-6 -1.0937 0.50781-1.9678 1.5234-2.6221 1.0254-0.65428 2.2949-0.98143 3.8086-0.98144 1.3769 1.3e-5 2.4707 0.2295 3.2813 0.68848 0.81054 0.44923 1.2158 0.99122 1.2158 1.626-1.2e-5 0.33204-0.12696 0.62501-0.38086 0.87891-0.25392 0.24415-0.54688 0.36622-0.87891 0.36621-0.54688 1e-5 -0.9961-0.38085-1.3477-1.1426-0.48829-1.0547-1.2207-1.582-2.1973-1.582-0.77149 1.2e-5 -1.4063 0.25392-1.9043 0.76172-0.49805 0.50782-0.74707 1.2158-0.74707 2.124-4e-6 1.7871 0.92285 2.6807 2.7686 2.6807 0.1953 7e-6 0.41991-0.01952 0.67383-0.05859 0.43944-0.05859 0.78124-0.08788 1.0254-0.08789 0.59569 8e-6 0.89355 0.17091 0.89356 0.5127-9e-6 0.38087-0.30274 0.5713-0.9082 0.57129-0.21485 6e-6 -0.53712-0.03417-0.9668-0.10254-0.32227-0.05859-0.5713-0.08788-0.74707-0.08789-1.9531 7e-6 -2.9297 0.9961-2.9297 2.9883-4e-6 0.9668 0.25878 1.748 0.77637 2.3438 0.51757 0.58594 1.2402 0.87891 2.168 0.87891 1.1621 0 1.9336-0.60058 2.3145-1.8018 0.1953-0.63476 0.41015-1.0742 0.64453-1.3184 0.24413-0.24414 0.5664-0.36621 0.9668-0.36621 0.33202 4e-6 0.62987 0.12208 0.89355 0.36621 0.27343 0.23438 0.41014 0.53711 0.41016 0.9082-1.2e-5 0.88867-0.49806 1.626-1.4941 2.2119-0.9961 0.57617-2.2022 0.86426-3.6182 0.86426-1.5527 0-2.9346-0.37109-4.1455-1.1133-1.2012-0.74219-1.8018-1.7334-1.8018-2.9736-1e-6 -1.5527 1.1963-2.6953 3.5889-3.4277" fill="#6e97c4"/>
</svg>
