<?xml version="1.0" encoding="UTF-8"?>
<!DOCTYPE svg  PUBLIC '-//W3C//DTD SVG 1.1//EN'  'http://www.w3.org/Graphics/SVG/1.1/DTD/svg11.dtd'>
<svg width="5.28" height="5.28" version="1.1" viewBox="0 0 22 22" xmlns="http://www.w3.org/2000/svg">
 <g id="Background">
  <rect width="22" height="22" fill-opacity="0"/>
 </g>
 <defs>
  <linearGradient id="Gradient_1" x1="16.734" x2="16.45" y1="20.11" y2="1.378" gradientUnits="userSpaceOnUse">
   <stop stop-color="#589632" offset="0"/>
   <stop stop-color="#93B023" offset="1"/>
  </linearGradient>
  <linearGradient id="Gradient_2" x1="11.153" x2="10.87" y1="20.403" y2="1.827" gradientUnits="userSpaceOnUse">
   <stop stop-color="#589632" offset="0"/>
   <stop stop-color="#93B023" offset="1"/>
  </linearGradient>
 </defs>
 <g id="Layer_1">
  <path id="polygon3" d="m11.757 11.278h2.713l-2.296-2.27h-2.813v2.703l2.396 2.388z" fill="#EE7913"/>
  <path id="polygon10" d="m20.458 17.199-4.84-4.786h-2.726v2.817l4.638 4.624h2.928z" fill="url(#Gradient_1)"/>
  <path id="polygon12" d="m12.892 12.413h2.726l-1.148-1.135h-2.713v2.821l1.135 1.131z" fill="#F0E64A"/>
  <path id="path19" d="m12.326 16.194c-0.411 0.095-0.839 0.146-1.28 0.146-3.153 0-5.835-2.593-5.835-5.955s2.652-5.898 5.835-5.898 5.718 2.536 5.718 5.898c0 0.547-0.068 1.073-0.194 1.572l2.918 2.918c0.753-1.319 1.174-2.852 1.174-4.512 0-5.182-4.136-9.062-9.675-9.062-5.514 0-9.649 3.854-9.649 9.062 0 5.233 4.136 9.164 9.649 9.164 1.424 0 2.754-0.262 3.946-0.739l-2.607-2.594z" fill="url(#Gradient_2)"/>
  <path id="polygon4153" d="m9.361 9.008 11.097 10.846v-2.656l-4.84-4.785-3.444-3.405z" fill="#fff" fill-opacity=".172"/>
 </g>
</svg>
