<svg height="24" width="24" xmlns="http://www.w3.org/2000/svg"><g transform="translate(0 -1028.3622)"><path d="m1.1364216 1030.0126c-2.237601 1.3008 3.8896384 5.4906 1.9674915 8.3984-1.3990735 3.001-2.51776726 6.2623-2.4036758 9.5985.0159939 2.6146 3.5401896 4.8272 5.2587602 2.2272 1.3167158-1.7194 2.7091903-3.8997 5.1595055-3.8763 3.013784-.1235 6.461621 1.5325 9.107356-.6126 2.525558-2.8416-11.4181656-6.5347 2.238618-10.1965 1.311373-2.9919-1.738346-6.7068-4.936741-5.7421-3.586821 1.3974-5.596346 4.0061-9.2530467 1.9457-1.4354323-.8662-5.3693265-2.5441-7.1382677-1.7423z" fill="#ebebeb"/><path d="m2.5384617 1030.9006h12.923078v12.923077h-12.923078z" fill="#fce94f" stroke="#c4a000" stroke-linecap="round" stroke-width="1.076923"/><path d="m1.1364216 1030.0126c-2.237601 1.3008 3.8896384 5.4906 1.9674915 8.3984-1.3990735 3.001-2.51776724 6.2623-2.40367578 9.5985.0159939 2.6146 3.54018958 4.8272 5.25876018 2.2272 1.3167158-1.7194 2.7091903-3.8997 5.1595055-3.8763 3.013784-.1235 6.461621 1.5325 9.107356-.6126 2.525558-2.8416-11.4181656-6.5347 2.238618-10.1965 1.311373-2.9919-1.738346-6.7068-4.936741-5.7421-3.586821 1.3974-5.596346 4.0061-9.2530467 1.9457-1.4354323-.8662-5.3693265-2.5441-7.1382677-1.7423z" fill="none" stroke="#424242" stroke-dasharray="2.4 1.2" stroke-width="1.2"/><path d="m22.652743 1044.0577-12.756464-6.9791 5.477553 13.6014 2.180887-3.5312 4.312159 4.7134 1.633122-1.5913-4.408599-4.6683 3.561343-1.5449z" style="fill:#fff;fill-rule:evenodd;stroke:#000;stroke-width:.7;stroke-linecap:round;stroke-linejoin:round"/></g></svg>