<svg height="24" width="24" xmlns="http://www.w3.org/2000/svg">
<g stroke-dashoffset=".5" stroke-linejoin="round" transform="translate(0 -8)">
<g enable-background="new" transform="matrix(.80221693 .46316007 -.46316007 .80221693 5.4854499 4.753009)">
<path d="m8.0961023 18.028419l5.9999997 0-3.12491 6.990956-2.8750897-6.990956z" fill="#505050" overflow="visible" stroke="#505050" stroke-linecap="round" stroke-width=".75"/>
<path d="m8.0961004 1.0284199l6.0000006-.000001.000001 17.0000001-5.9999997 0-.0000019-16.9999991" fill="#b37b62" overflow="visible" stroke="#9e5439" stroke-linecap="round" stroke-width=".74999994"/>
<path d="m10.576704 2.1008083l.000001 15.7948847" fill="none" opacity=".5" overflow="visible" stroke="#b09350" stroke-width="2.10598469"/>
<path d="m12.686221 2.0551469l-.080979 16.1486211" fill-opacity=".58823529" opacity=".25" overflow="visible" stroke="#6e3b36" stroke-width="2.15934753"/>
<path d="m12.096101 2.0284193l.000001 15.9999997" style="opacity:.5;fill:#fc894f;stroke:#805745;stroke-width:.75000006;stroke-linecap:round;overflow:visible"/>
<path d="m11.463292 23.228968l1.996957-4.943779-1.996957-.000001 0 4.94378z" fill="#b2adad" overflow="visible" stroke="#b1aeae" stroke-linecap="square" stroke-width=".49999997"/>
<path d="m9.5961007 2.0284198l.0000015 15.9999982" style="opacity:.5;fill:#9a786e;stroke:#8f3f25;stroke-width:.74999994;stroke-linecap:round;overflow:visible"/>
<path d="m7.8653316-.08727704h6.4615374v2.1791313h-6.4615374z" fill="#c9c9c9" overflow="visible" stroke="#969696" stroke-linecap="round" stroke-width=".5"/>
<path d="m10.728912 23.38728l-1.9969556-5.102091 1.9969556 0 0 5.102091z" fill="#b2adad" overflow="visible" stroke="#b1aeae" stroke-linecap="square" stroke-width=".49999997"/>
</g>
<g enable-background="new" transform="matrix(.8660254 .4999999 -.4999999 .8660254 10.526237 4.432455)">
<path d="m8.0961023 18.028419l5.9999997 0-3.12491 6.990956-2.8750897-6.990956z" fill="#505050" overflow="visible" stroke="#505050" stroke-linecap="round" stroke-width=".75"/>
<path d="m8.0961004 1.0284199l6.0000006-.000001.000001 17.0000001-5.9999997 0-.0000019-16.9999991" fill="#de6b37" overflow="visible" stroke="#c04317" stroke-linecap="round" stroke-width=".74999994"/>
<path d="m10.576704 2.1008083l.000001 15.7948847" fill="none" opacity=".5" overflow="visible" stroke="#f8b008" stroke-width="2.10598469"/>
<path d="m12.686221 2.0551469l-.080979 16.1486211" fill-opacity=".58823529" opacity=".25" overflow="visible" stroke="#632923" stroke-width="2.15934753"/>
<path d="m12.096101 2.0284193l.000001 15.9999997" style="opacity:.5;fill:#fc894f;stroke:#a7481e;stroke-width:.75000006;stroke-linecap:round;overflow:visible"/>
<path d="m11.463292 23.228968l1.996957-4.943779-1.996957-.000001 0 4.94378z" fill="#969696" overflow="visible" stroke="#969696" stroke-linecap="square" stroke-width=".49999997"/>
<path d="m9.5961007 2.0284198l.0000015 15.9999982" style="opacity:.5;fill:#db562d;stroke:#9b3819;stroke-width:.74999994;stroke-linecap:round;overflow:visible"/>
<path d="m7.8653316-.08727704h6.4615374v2.1791313h-6.4615374z" fill="#e6e6e6" overflow="visible" stroke="#969696" stroke-linecap="round" stroke-width=".5"/>
<path d="m10.728912 23.38728l-1.9969556-5.102091 1.9969556 0 0 5.102091z" fill="#e6e6e6" overflow="visible" stroke="#e6e6e6" stroke-linecap="square" stroke-width=".49999997"/>
</g>
</g>
</svg>
