<svg height="24" width="24" xmlns="http://www.w3.org/2000/svg"><g stroke-linecap="round" stroke-linejoin="round" stroke-width=".75" transform="translate(0 -8)"><g fill="#73d216" transform="translate(-4)"><path d="m11.5 1c-1.380712 0-2.5 1.1192881-2.5 2.5 0 .3597817.363178.6908983.5 1h-5v5c.3091017-.1368217.6402183-.5 1-.5 1.3807119 0 2.5 1.119288 2.5 2.5s-1.1192881 2.5-2.5 2.5c-.3597817 0-.6908983-.363178-1-.5v5h14v-5c.309102.136822.640218.5 1 .5 1.380712 0 2.5-1.119288 2.5-2.5s-1.119288-2.5-2.5-2.5c-.359782 0-.690898.363178-1 .5v-5h-5c.136822-.3091017.5-.6402183.5-1 0-1.3807119-1.119288-2.5-2.5-2.5z" stroke="#4e9a06" transform="translate(0 8)"/><g stroke="#eeeeec"><path d="m5.5 15.5v-2h3"/><path d="m5.5 17.5v-2" transform="translate(0 8)"/><path d="m13.5 5.5h3" transform="translate(0 8)"/></g></g><g fill="#ef2929" stroke="#a40000" transform="matrix(-.70710678 .70710678 -.70710678 -.70710678 35.42031 27.257359)"><path d="m14.5 22.5h-2" fill="#e9b96e" stroke="#eeeeec" transform="matrix(0 -1 1 0 -12 36)"/><path d="m11.5 1c-1.380712 0-2.5 1.1192881-2.5 2.5 0 .3597817.363178.6908983.5 1h-5v5c.3091017-.1368217.6402183-.5 1-.5 1.3807119 0 2.5 1.119288 2.5 2.5s-1.1192881 2.5-2.5 2.5c-.3597817 0-.6908983-.363178-1-.5v5h14v-5c.309102.136822.640218.5 1 .5 1.380712 0 2.5-1.119288 2.5-2.5s-1.119288-2.5-2.5-2.5c-.359782 0-.690898.363178-1 .5v-5h-5c.136822-.3091017.5-.6402183.5-1 0-1.3807119-1.119288-2.5-2.5-2.5z" fill="#729fcf" stroke="#3465a4" transform="translate(0 8)"/><g stroke="#eeeeec"><path d="m5.5 23.5v2h12" fill="none"/><path d="m5.5 15.5v-2" fill="#ef2929"/></g></g></g></svg>