<svg height="24" width="24" xmlns="http://www.w3.org/2000/svg">
<g transform="matrix(2.0979294 0 0 2.0979294 -27.846021 -44.723572)">
<path d="m15.143 22.5h7.715c.354 0 .643.288.643.643v7.715c0 .354-.288.643-.643.643h-7.715c-.354 0-.643-.288-.643-.643v-7.715c0-.355.288-.643.643-.643z" fill="#c00" opacity=".9" stroke="#c00" stroke-linecap="square" stroke-linejoin="round"/>
<path d="m14.5 27h9v-3c0-1.5 0-1.5-2.25-1.5-.523 0-4.555 0-5.25 0-1.5 0-1.5 0-1.5 1.5 0 .75 0 1.5 0 3z" fill="#fcffff" opacity=".3"/>
<path d="m16 24l6.001 6" fill="#5c3566" stroke="#eeeeec" stroke-linecap="round" stroke-width="1.70560002"/>
<path d="m16 30l6.001-6" fill="#5c3566" stroke="#eeeeec" stroke-linecap="round" stroke-width="1.70560002"/>
</g>
</svg>
