<?xml version="1.0" encoding="UTF-8"?>
<svg width="24" height="24" viewBox="0 0 24 24" xmlns="http://www.w3.org/2000/svg">
 <path d="m11.5 11.5h12v12h-12z" fill="#fce94f" overflow="visible" stroke="#c4a000" stroke-linecap="round"/>
 <g transform="translate(0 -8)">
  <path d="m23.921 22.589s-0.2046-0.65222-1.1839-1.7416c-0.62678-0.69728 1.134-4.7597-4.204-7.4626-2.843-1.4396-8.9684 0.11582-11.257 0.51567-5.0919 0.8896-4.9405 1.4612-5.4662 2.8325-0.39478 1.0299-0.20576 4.2107-0.19348 4.4894-0.01888 0.23013 1.2145 2.1525 2.8674 3.3255 1.5087 1.0708 3.5926 2.3366 5.903 2.7329 2.7958 0.47952 3.8215 0.37978 6.4812-0.46987 1.3994-0.44706 3.8881-2.5709 3.8881-2.5709s0.52104-0.34832 1.3329-0.95189c0.70016-0.52051 1.8319-0.69917 1.8319-0.69917z" fill="#eeeeec" fill-rule="evenodd"/>
  <path d="m1.1431 15.424c5.006-1.4954 8.5535-2.0621 10.993-2.2859 5.2221-0.47922 7.0622 0.40018 8.4026 1.3882 1.4485 1.0676 1.7631 1.76 1.7631 1.76" fill="none" stroke="#888a85"/>
  <path d="m23.514 22.589c-0.0074-1.6212-1.4898-0.70922-2.1214-0.36664-1.3455 0.58396-4.054 3.1759-5.9227 3.5687-2.1505 0.452-4.6508 0.14488-6.7883-0.76558-2.0911-0.89072-3.6035-2.1571-5.1224-3.2925-0.98328-0.73495-1.9558-0.41432-1.9435-0.13562-0.01888 0.23013 1.2145 1.7775 2.8674 2.9505 1.5087 1.0708 3.5926 2.3366 5.903 2.7329 2.7958 0.47952 3.8215 0.37978 6.4812-0.46987 1.3994-0.44706 3.8881-2.5709 3.8881-2.5709s0.52104-0.34832 1.3329-0.95189c0.70016-0.52051 1.4257-0.69917 1.4257-0.69917z" fill="none" stroke="#888a85"/>
 </g>
</svg>
