<svg height="24" viewBox="0 0 24 24" width="24" xmlns="http://www.w3.org/2000/svg">
<g transform="translate(0 -8)">
<g opacity=".5" transform="translate(2 -2)">
<path d="m6.5 27.5v-15h7l4 4v11z" fill="#fff" fill-rule="evenodd" stroke="#5b5b5c" stroke-linejoin="round"/>
<path d="m13.5 12.5v4h4z" fill="#f0f0f0" fill-rule="evenodd" stroke="#5b5b5c" stroke-linejoin="round"/>
<path d="m8 17.5h6.5" fill="none" stroke="#969696"/>
<path d="m8 19.5h7.5" fill="none" stroke="#969696"/>
<path d="m8 21.5h5" fill="none" stroke="#6a6a6a"/>
<path d="m8 23.5h7" fill="none" stroke="#969696"/>
<path d="m8 25.5h7" fill="none" stroke="#969696"/>
</g>
<g transform="translate(-2 2)">
<path d="m6.5 27.5v-15h7l4 4v11z" fill="#fff" fill-rule="evenodd" stroke="#5b5b5c" stroke-linejoin="round"/>
<path d="m13.5 12.5v4h4z" fill="#f0f0f0" fill-rule="evenodd" stroke="#5b5b5c" stroke-linejoin="round"/>
<path d="m8 17.5h6.5" fill="none" stroke="#969696"/>
<path d="m8 19.5h7.5" fill="none" stroke="#969696"/>
<path d="m8 21.5h5" fill="none" stroke="#969696"/>
<path d="m8 23.5h7" fill="none" stroke="#969696"/>
<path d="m8 25.5h7" fill="none" stroke="#969696"/>
</g>
</g>
</svg>
