<svg height="24" width="24" xmlns="http://www.w3.org/2000/svg"><ellipse cx="12.099533" cy="11.909529" fill="#ebebeb" rx="10.509376" ry="10.509375"/><circle cx="12" cy="11.999983" fill="none" r="10.500425" stroke="#424242" stroke-dasharray="1.998297 .999148" stroke-dashoffset=".168449" stroke-width=".999148"/><g transform="matrix(1.1228012 0 0 1.122588 -41.279507 -28.832145)"><circle cx="43.444469" cy="32.365807" fill="#6d97c4" r="6.127575" stroke="#445e75" stroke-miterlimit="10" stroke-width=".213668"/><g fill="#fff"><path d="m38.481599 33.476456c.156406-1.798872.507676-2.87811 1.624733-3.995167 1.20637-1.20637 2.323641-1.766181 4.434682-2.246507 1.037146-.23589-.759376-1.017915-3.245405-.08782-1.335426.499556-2.690937 1.803359-3.166562 3.703297-.576263 2.30035.280973 3.449886.352552 2.626195z" opacity=".3" stroke-width=".373117"/><path d="m44.913438 34.944997-.151705-.151277c-.138243-.138029-.402978-.11068-.512376.05299-.06859.102774-.385671.430968-.58545.585237.02479-.102348.07222-.258752.161532-.51259l.801256-2.274711c.188241-.538658.301913-.863861.301913-1.141202 0-.438874-.323493-.722626-.823691-.722626-1.263419 0-2.252276 1.140988-2.618289 1.631143-.0047.0062-.009.01218-.01282.01752-.06303.07158-.08803.167088-.06837.264948.01517.07564.05662.148927.120082.212387l.113671.113458c.06795.06795.156191.105338.24871.105338.06901 0 .17243-.02159.274136-.124355l.01881-.02201c.131833-.175635.378192-.441224.558315-.604681-.03098.105125-.07479.234181-.126279.38268l-.557032 1.623665c-.396782 1.147183-.545281 1.576443-.545281 1.815538 0 .312596.19978.646345.760445.646345 1.742464 0 2.601409-1.294401 2.695637-1.445037.09594-.160679.07756-.321143-.0532-.452763z" stroke="#34497d" stroke-miterlimit="10" stroke-width=".213668"/><path d="m44.205769 28.173854c-.560238 0-1.051461.48524-1.051461 1.038641 0 .630962.422635 1.03864 1.076674 1.03864.642073 0 1.139919-.592288 1.139919-1.101886.000214-.449772-.304904-.975395-1.165132-.975395z" stroke="#34497d" stroke-miterlimit="10" stroke-width=".213668"/></g></g><path d="m22.652743 15.6955-12.756464-6.9791 5.477553 13.6014 2.180887-3.5312 4.312159 4.7134 1.633122-1.5913-4.408599-4.6683 3.561343-1.5449z" style="fill:#fff;fill-rule:evenodd;stroke:#000;stroke-width:.7;stroke-linecap:round;stroke-linejoin:round"/></svg>