<?xml version="1.0" encoding="UTF-8" standalone="no"?>
<!-- Created with Inkscape (http://www.inkscape.org/) -->

<svg
   xmlns:dc="http://purl.org/dc/elements/1.1/"
   xmlns:cc="http://creativecommons.org/ns#"
   xmlns:rdf="http://www.w3.org/1999/02/22-rdf-syntax-ns#"
   xmlns:svg="http://www.w3.org/2000/svg"
   xmlns="http://www.w3.org/2000/svg"
   xmlns:sodipodi="http://sodipodi.sourceforge.net/DTD/sodipodi-0.dtd"
   xmlns:inkscape="http://www.inkscape.org/namespaces/inkscape"
   width="24"
   height="24"
   id="svg2"
   version="1.1"
   inkscape:version="0.91 r13725"
   sodipodi:docname="mActionSelectFreehand.svg">
  <defs
     id="defs4" />
  <sodipodi:namedview
     id="base"
     pagecolor="#ffffff"
     bordercolor="#666666"
     borderopacity="1.0"
     inkscape:pageopacity="0.0"
     inkscape:pageshadow="2"
     inkscape:zoom="15.839192"
     inkscape:cx="14.336377"
     inkscape:cy="11.14921"
     inkscape:document-units="px"
     inkscape:current-layer="layer1"
     showgrid="false"
     inkscape:window-width="1547"
     inkscape:window-height="876"
     inkscape:window-x="53"
     inkscape:window-y="24"
     inkscape:window-maximized="1" />
  <metadata
     id="metadata7">
    <rdf:RDF>
      <cc:Work
         rdf:about="">
        <dc:format>image/svg+xml</dc:format>
        <dc:type
           rdf:resource="http://purl.org/dc/dcmitype/StillImage" />
        <dc:title />
      </cc:Work>
    </rdf:RDF>
  </metadata>
  <g
     inkscape:label="Layer 1"
     inkscape:groupmode="layer"
     id="layer1"
     transform="translate(0,-1028.3622)">
    <path
       style="fill:#ebebeb;stroke:none;stroke-width:1.2;stroke-linecap:butt;stroke-linejoin:miter;stroke-opacity:1;stroke-miterlimit:4;stroke-dasharray:2.4, 1.19999999999999996;stroke-dashoffset:0;fill-opacity:1"
       d="m 1.1364216,1030.0126 c -2.237601,1.3008 3.8896384,5.4906 1.9674915,8.3984 -1.3990735,3.001 -2.51776726,6.2623 -2.4036758,9.5985 0.0159939,2.6146 3.5401896,4.8272 5.2587602,2.2272 1.3167158,-1.7194 2.7091903,-3.8997 5.1595055,-3.8763 3.013784,-0.1235 6.461621,1.5325 9.107356,-0.6126 2.525558,-2.8416 -11.4181656,-6.5347 2.238618,-10.1965 1.311373,-2.9919 -1.738346,-6.7068 -4.936741,-5.7421 -3.586821,1.3974 -5.596346,4.0061 -9.2530467,1.9457 -1.4354323,-0.8662 -5.3693265,-2.5441 -7.1382677,-1.7423 z"
       id="path4396"
       inkscape:connector-curvature="0"
       sodipodi:nodetypes="cccccccccc" />
    <rect
       style="color:#000000;display:inline;overflow:visible;visibility:visible;fill:#fce94f;stroke:#c4a000;stroke-width:1.07692313;stroke-linecap:round;stroke-linejoin:miter;stroke-miterlimit:4;stroke-dasharray:none;stroke-dashoffset:0;stroke-opacity:1;marker:none;enable-background:accumulate"
       id="rect2902"
       width="12.923078"
       height="12.923077"
       x="2.5384617"
       y="1030.9006" />
    <path
       style="fill:none;fill-opacity:1;stroke:#424242;stroke-width:1.20000005;stroke-linecap:butt;stroke-linejoin:miter;stroke-miterlimit:4;stroke-dasharray:2.4, 1.19999999999999996;stroke-dashoffset:0;stroke-opacity:1"
       d="m 1.1364216,1030.0126 c -2.237601,1.3008 3.8896384,5.4906 1.9674915,8.3984 -1.3990735,3.001 -2.51776724,6.2623 -2.40367578,9.5985 0.0159939,2.6146 3.54018958,4.8272 5.25876018,2.2272 1.3167158,-1.7194 2.7091903,-3.8997 5.1595055,-3.8763 3.013784,-0.1235 6.461621,1.5325 9.107356,-0.6126 2.525558,-2.8416 -11.4181656,-6.5347 2.238618,-10.1965 1.311373,-2.9919 -1.738346,-6.7068 -4.936741,-5.7421 -3.586821,1.3974 -5.596346,4.0061 -9.2530467,1.9457 -1.4354323,-0.8662 -5.3693265,-2.5441 -7.1382677,-1.7423 z"
       id="path4396-9"
       inkscape:connector-curvature="0"
       sodipodi:nodetypes="cccccccccc" />
    <path
       d="m 22.652743,1044.0577 -12.756464,-6.9791 5.477553,13.6014 2.180887,-3.5312 4.312159,4.7134 1.633122,-1.5913 -4.408599,-4.6683 3.561343,-1.5449 z"
       id="path827"
       inkscape:connector-curvature="0"
       style="fill:#ffffff;fill-rule:evenodd;stroke:#000000;stroke-width:0.69999999;stroke-linecap:round;stroke-linejoin:round;stroke-miterlimit:4;stroke-dasharray:none" />
  </g>
</svg>
