<svg height="24" width="24" xmlns="http://www.w3.org/2000/svg"><g stroke="#6e97c4"><path d="m2.5 7.5h19v14h-19z" fill="#e6e6e6"/><path d="m2.5 2.5h19v5h-19z" fill="#bad9ec"/><path d="m5 5h4" fill="none" stroke-width="2"/><path d="m11 5h8" fill="none" stroke-width="2"/><path d="m5 9.5h4" fill="none"/><path d="m11 9.5h8" fill="none"/><path d="m5 12.5h4" fill="none"/><path d="m11 12.5h8" fill="none"/><path d="m5 15.5h4" fill="none"/><path d="m11 15.5h8" fill="none"/><path d="m5 18.5h4" fill="none"/><path d="m11 18.5h8" fill="none"/></g><g stroke-width=".9" transform="matrix(.76923 0 0 .76923 -.615 -.615)"><rect fill="#5a8c5a" height="13" rx="2.353" width="13" x="19" y="19"/><g fill-rule="evenodd"><path d="m21.6 25.5h7.8m-3.9 3.9v-7.8" fill="#fff" stroke="#fff" stroke-linecap="round" stroke-linejoin="round" stroke-width="2.34"/><path d="m20.3 25.5h10.4v-2.6c0-2.6-.65-2.6-5.2-2.6s-5.2 0-5.2 2.6z" fill="#fcffff" opacity=".3"/></g></g></svg>