<?xml version="1.0" encoding="UTF-8" standalone="no"?>
<svg
   height="24"
   viewBox="0 0 24 24"
   width="24"
   version="1.1"
   id="svg6"
   sodipodi:docname="mActionEllipseCenter3Points.svg"
   inkscape:version="1.4.2 (ebf0e940d0, 2025-05-08)"
   xmlns:inkscape="http://www.inkscape.org/namespaces/inkscape"
   xmlns:sodipodi="http://sodipodi.sourceforge.net/DTD/sodipodi-0.dtd"
   xmlns="http://www.w3.org/2000/svg"
   xmlns:svg="http://www.w3.org/2000/svg">
  <defs
     id="defs6" />
  <sodipodi:namedview
     id="namedview6"
     pagecolor="#ffffff"
     bordercolor="#000000"
     borderopacity="0.25"
     inkscape:showpageshadow="2"
     inkscape:pageopacity="0.0"
     inkscape:pagecheckerboard="0"
     inkscape:deskcolor="#d1d1d1"
     inkscape:zoom="48.291667"
     inkscape:cx="11.989646"
     inkscape:cy="12"
     inkscape:window-width="3440"
     inkscape:window-height="1368"
     inkscape:window-x="0"
     inkscape:window-y="0"
     inkscape:window-maximized="1"
     inkscape:current-layer="svg6" />
  <g
     id="g8">
    <ellipse
       cx="5.6722555"
       cy="14.812654"
       fill="none"
       rx="7.724184"
       ry="4.724184"
       stroke="#8cbe8c"
       stroke-width="2.55163"
       id="ellipse1"
       transform="rotate(-22.793251)" />
    <g
       id="g7">
      <path
         d="M 0.71476417,14.044782 3.4804907,12.88256 4.6427116,15.648287 1.8769852,16.810508 Z"
         id="path1"
         style="fill:#bebebe;stroke:#8c8c8c" />
      <path
         d="M 8.716992,10.329615 11.482719,9.1673934 12.64494,11.93312 9.879213,13.095341 Z"
         id="path2"
         style="fill:#bebebe;stroke:#8c8c8c" />
      <path
         d="M 6.9153834,6.3403384 9.6811096,5.1781174 10.843331,7.9438444 8.0776046,9.1060653 Z"
         id="path3"
         style="fill:#bebebe;stroke:#8c8c8c" />
      <path
         d="m 16.326789,9.8790014 2.765727,-1.162221 1.162221,2.7657266 -2.765726,1.162221 z"
         id="path3-0"
         style="fill:#bebebe;stroke:#8c8c8c" />
    </g>
    <g
       transform="translate(33)"
       id="g6">
      <rect
         fill="#c4a000"
         height="11"
         rx="2.01149"
         width="11"
         x="-20"
         y="13"
         id="rect4" />
      <g
         fill="#fcffff"
         id="g5">
        <path
           d="m-15 14v2.0625c-.537663.111041-1.024662.383291-1.375.78125l-1.78125-1.03125-.5.875 1.78125 1.03125c-.082063.247432-.125.506395-.125.78125s.04294.533818.125.78125l-1.78125 1.03125.5.875 1.78125-1.03125c.352503.40042.832682.670182 1.375.78125v2.0625h1v-2.0625c.537663-.111041 1.024662-.383291 1.375-.78125l1.78125 1.03125.5-.875-1.78125-1.03125c.082063-.247432.125-.506395.125-.78125s-.04294-.533818-.125-.78125l1.78125-1.03125-.5-.875-1.78125 1.03125c-.352503-.40042-.832682-.670182-1.375-.78125v-2.0625zm.5 3.5c.552 0 1 .448 1 1s-.448 1-1 1-1-.448-1-1 .448-1 1-1z"
           id="path4" />
        <path
           d="m-19 19 9-.0096s0 0 0-2c0-2.9904-1-2.9904-4.5-2.9904s-4.5 0-4.5 3z"
           fill-rule="evenodd"
           opacity=".3"
           id="path5" />
      </g>
    </g>
  </g>
</svg>
