<svg xmlns="http://www.w3.org/2000/svg" width="24" height="24" viewBox="0 0 6.3499999 6.3500002"><path d="M3.59 1.927c-.062.25-.303.4-.54.335-.235-.064-.378-.317-.318-.565.06-.25.302-.4.538-.335.237.063.38.316.32.565" fill="#fff"/><path d="M3.59 1.927c-.062.25-.303.4-.54.335-.235-.064-.378-.317-.318-.565.06-.25.302-.4.538-.335.237.063.38.316.32.565z" fill="none" stroke="#a7a5a6" stroke-width=".132"/><path d="M3.178 1.912L4 .78l.117.09.335-.87-.704.58.118.093-.82 1.133z" fill="#9a9a99"/><path d="M2.743 3.13c-.06.248-.302.398-.54.334-.235-.064-.378-.317-.317-.565.06-.25.3-.4.538-.336.236.063.38.316.32.565" fill="#fff"/><path d="M2.743 3.13c-.06.248-.302.398-.54.334-.235-.064-.378-.317-.317-.565.06-.25.3-.4.538-.336.236.063.38.316.32.565z" fill="none" stroke="#a7a5a6" stroke-width=".132"/><path d="M2.266 2.906l-.756 1.07-.117-.094-.335.872.704-.58-.118-.093.755-1.068z" fill="#9a9a99"/><path d="M2.437 3.58c-.06.25-.3.4-.538.336-.237-.064-.38-.318-.32-.566.06-.25.302-.4.54-.335.235.064.377.317.317.566" fill="#fff"/><path d="M2.437 3.58c-.06.25-.3.4-.538.336-.237-.064-.38-.318-.32-.566.06-.25.302-.4.54-.335.235.064.377.317.317.566z" fill="none" stroke="#100f0d" stroke-width=".132"/><path d="M3.936 1.5c-.06.25-.3.4-.538.335-.236-.064-.38-.317-.318-.565.06-.25.3-.4.538-.335.236.063.38.317.318.565" fill="#fff"/><path d="M3.936 1.5c-.06.25-.3.4-.538.335-.236-.064-.38-.317-.318-.565.06-.25.3-.4.538-.335.236.063.38.317.318.565z" fill="none" stroke="#100f0d" stroke-width=".132"/><path d="M5.426 5.92s-.134-.855-.136-.948c0-.092-.008-.678.045-.925.075-.344.137-.772-.067-.854-.08-.033-.17-.203-.17-.203s-.053-.133-.11-.158c-.13-.057-.303-.045-.303-.045s-.05-.054-.057-.08c-.005-.027-.133-.207-.27-.23-.116-.022-.24.202-.244.127-.002-.037-.003-.254-.155-.59-.14-.312-.233-.634-.26-.686-.053-.102-.098-.148-.21-.113-.11.035-.168.06-.148.25.01.08.105.425.173.676.11.41.073.89.06.96-.02.126-.054.528-.24.585-.185.058-.305.036-.613-.226s-.475-.312-.607-.262c-.13.05-.327.16-.29.26.036.1-.023.032.294.24.315.207.393.37.508.52.116.153.605.8.896.947.293.147.447.9.42 1.17" fill="#fff"/><path d="M5.16 6.085c.106 0 .273-.06.243-.164-.08-.283-.11-.878-.113-.948 0-.092-.008-.678.045-.925.075-.344.137-.772-.067-.854-.08-.033-.17-.203-.17-.203s-.053-.133-.11-.158c-.13-.057-.303-.045-.303-.045s-.05-.054-.057-.08c-.005-.027-.133-.207-.27-.23-.116-.022-.24.202-.244.127-.002-.037-.003-.254-.155-.59-.14-.312-.233-.634-.26-.686-.053-.102-.098-.148-.21-.113-.11.035-.168.06-.148.25.01.08.105.425.173.676.11.41.073.89.06.96-.02.126-.054.528-.24.585-.185.058-.305.036-.613-.226s-.475-.312-.607-.262c-.13.05-.327.16-.29.26.036.1-.023.032.294.24.315.207.393.37.508.52.116.153.605.8.896.947.216.11.357.547.404.878.017.117.993.042 1.258.042" fill="none" stroke="#100f0d" stroke-width=".265"/></svg>