<svg xmlns="http://www.w3.org/2000/svg" height="24" width="24"><path d="M2.5 7.5h19v14h-19z" fill="#e6e6e6" stroke="#6e97c4"/><path d="M2.5 2.5h19v5h-19z" fill="#bad9ec" stroke="#6e97c4"/><path overflow="visible" d="M5 5h4" fill="none" stroke="#6e97c4" stroke-width="2"/><path d="M11 5h8" fill="none" stroke="#6e97c4" stroke-width="2"/><path overflow="visible" d="M5 9.5h4" fill="none" stroke="#6e97c4"/><path d="M11 9.5h8" fill="none" stroke="#6e97c4"/><path overflow="visible" d="M5 12.5h4" fill="none" stroke="#6e97c4"/><path d="M11 12.5h8" fill="none" stroke="#6e97c4"/><path overflow="visible" d="M5 15.5h4" fill="none" stroke="#6e97c4"/><path d="M11 15.5h8" fill="none" stroke="#6e97c4"/><path overflow="visible" d="M5 18.5h4" fill="none" stroke="#6e97c4"/><path d="M11 18.5h8" fill="none" stroke="#6e97c4"/><g transform="translate(-.615 -.615) scale(.76923)" stroke-width=".9"><rect y="19" x="19" width="13" ry="2.353" rx="2.353" height="13" fill="#5a8c5a"/><path d="M21.6 25.5h7.8M25.5 29.4v-7.8" overflow="visible" fill="#fff" fill-rule="evenodd" stroke="#fff" stroke-width="2.34" stroke-linecap="round" stroke-linejoin="round"/><path d="M20.3 25.5h10.4v-2.6c0-2.6-.65-2.6-5.2-2.6s-5.2 0-5.2 2.6v2.6z" opacity=".3" fill="#fcffff" fill-rule="evenodd"/></g></svg>
