<svg height="16" viewBox="0 0 4.2333333 4.2333335" width="16" xmlns="http://www.w3.org/2000/svg"><g stroke-width=".264583"><path d="m1.4552084.66145835h2.1166667v2.11666665h-2.1166667z" fill="#eeeeec" stroke="#888a85" stroke-linecap="round" stroke-linejoin="round"/><path d="m.9260417 1.190625h2.1166667v2.1166666h-2.1166667z" fill="#eeeeec" stroke="#888a85" stroke-linecap="round" stroke-linejoin="round"/><path d="m1.9843547 1.5875.0000406 1.0583261c.00603.1622428.524478.1760075.5291464.0000146v-2.2303419c0-.30092221-.5291667-.28575163-.5291667-.00001449v.11368236" fill="none" stroke="#415a75"/><path d="m.3968752 2.5026501v1.3338083h1.5983331" fill="none" stroke="#888a85"/></g><g transform="matrix(.12211529 0 0 .12211529 .06106 .325644)"><rect fill="#5a8c5a" height="13" rx="2.614937" width="13" x="19" y="19"/><g fill-rule="evenodd"><path d="m21.6 25.499999h7.8" fill="#fff" stroke="#fff" stroke-linecap="round" stroke-linejoin="round" stroke-width="2.6"/><path d="m25.5 29.399999v-7.799999" fill="#fff" stroke="#fff" stroke-linecap="round" stroke-linejoin="round" stroke-width="2.6"/><path d="m20.3 25.499999h10.4s0 0 0-2.6c0-2.599999-.65-2.599999-5.2-2.599999s-5.2 0-5.2 2.599999z" fill="#fcffff" opacity=".3"/></g></g></svg>