<?xml version="1.0" encoding="UTF-8" standalone="no"?>
<svg
   xmlns:dc="http://purl.org/dc/elements/1.1/"
   xmlns:cc="http://creativecommons.org/ns#"
   xmlns:rdf="http://www.w3.org/1999/02/22-rdf-syntax-ns#"
   xmlns:svg="http://www.w3.org/2000/svg"
   xmlns="http://www.w3.org/2000/svg"
   xmlns:sodipodi="http://sodipodi.sourceforge.net/DTD/sodipodi-0.dtd"
   xmlns:inkscape="http://www.inkscape.org/namespaces/inkscape"
   height="24"
   viewBox="0 0 24 24"
   width="24"
   version="1.1"
   id="svg36"
   sodipodi:docname="mActionDuplicateFeatureDigitized.svg"
   inkscape:version="0.92.2 (5c3e80d, 2017-08-06)">
  <metadata
     id="metadata42">
    <rdf:RDF>
      <cc:Work
         rdf:about="">
        <dc:format>image/svg+xml</dc:format>
        <dc:type
           rdf:resource="http://purl.org/dc/dcmitype/StillImage" />
        <dc:title></dc:title>
      </cc:Work>
    </rdf:RDF>
  </metadata>
  <defs
     id="defs40" />
  <sodipodi:namedview
     pagecolor="#ffffff"
     bordercolor="#666666"
     borderopacity="1"
     objecttolerance="10"
     gridtolerance="10"
     guidetolerance="10"
     inkscape:pageopacity="0"
     inkscape:pageshadow="2"
     inkscape:window-width="1897"
     inkscape:window-height="981"
     id="namedview38"
     showgrid="false"
     inkscape:measure-start="0,0"
     inkscape:measure-end="0,0"
     inkscape:zoom="9.8333333"
     inkscape:cx="12.305085"
     inkscape:cy="11.59322"
     inkscape:window-x="721"
     inkscape:window-y="122"
     inkscape:window-maximized="0"
     inkscape:current-layer="g34" />
  <g
     transform="translate(0 -8)"
     id="g34">
    <g
       transform="matrix(0.75888502,0,0,1.1002515,-2.5133999,-0.71689563)"
       id="g32">
      <path
         d="m 6.5,27.5 v -15 h 7 l 4,4 v 11 z"
         id="path18"
         inkscape:connector-curvature="0"
         style="fill:#ffffff;fill-rule:evenodd;stroke:#5b5b5c;stroke-linejoin:round" />
      <path
         d="m 13.5,12.5 v 4 h 4 z"
         id="path20"
         inkscape:connector-curvature="0"
         style="fill:#f0f0f0;fill-rule:evenodd;stroke:#5b5b5c;stroke-linejoin:round" />
      <path
         d="m 8,17.5 h 6.5"
         id="path22"
         inkscape:connector-curvature="0"
         style="fill:none;stroke:#969696" />
      <path
         d="m 8,19.5 h 7.5"
         id="path24"
         inkscape:connector-curvature="0"
         style="fill:none;stroke:#969696" />
      <path
         d="m 8,21.5 h 5"
         id="path26"
         inkscape:connector-curvature="0"
         style="fill:none;stroke:#969696" />
      <path
         d="m 8,23.5 h 7"
         id="path28"
         inkscape:connector-curvature="0"
         style="fill:none;stroke:#969696" />
      <path
         d="m 8,25.5 h 7"
         id="path30"
         inkscape:connector-curvature="0"
         style="fill:none;stroke:#969696" />
    </g>
    <path
       inkscape:connector-curvature="0"
       d="m 15.759906,12.288654 c -1.105191,0.07594 -2.073576,2.043811 -2.464212,6.82986 -0.387619,4.749093 0.459389,13.321964 2.326411,9.509521 3.100955,-6.332122 3.099411,1.56858 3.874649,1.56858 0.956266,0 1.937325,-2.767237 1.937325,-6.307002 0,-3.166063 0.03779,-6.19757 -0.389086,-7.940936 -0.775238,-3.166063 -1.166103,1.607679 -3.25049,-1.92805 -0.664295,-1.126837 -1.371481,-1.777535 -2.034597,-1.731973 z"
       style="fill:#a6cca6;fill-rule:evenodd;stroke:#696b67;stroke-width:0.79905313;stroke-linecap:round;stroke-linejoin:round"
       id="path8-7" />
    <path
       inkscape:connector-curvature="0"
       d="m 15.681954,23.786542 -2.805168,2.659955 0.0104,-1.788798 -4.772531,-0.04077 0.010395,-1.789979 4.772532,0.04077 0.01039,-1.788794 2.774022,2.707613 z"
       style="fill:#fce94f;fill-rule:evenodd;stroke:#a9b318;stroke-width:0.60092479;stroke-linecap:round;stroke-linejoin:round"
       id="path2-6" />
    <g
       transform="matrix(0.36018867,0,0,0.32867538,11.075657,18.965438)"
       id="g75">
      <rect
         style="fill:#c4a000"
         height="13"
         rx="2.6149371"
         ry="2.6149368"
         width="13"
         x="19"
         y="19"
         id="rect69" />
      <path
         style="opacity:0.3;fill:#fcffff;fill-rule:evenodd"
         inkscape:connector-curvature="0"
         d="m 20.3,25.499999 h 10.4 c 0,0 0,0 0,-2.6 C 30.7,20.3 30.05,20.3 25.5,20.3 c -4.55,0 -5.2,0 -5.2,2.599999 0,2.6 0,2.6 0,2.6 z"
         id="path71" />
      <path
         style="fill:#ffffff;stroke:#ffffff;stroke-width:0.49735793"
         inkscape:connector-curvature="0"
         d="m -6.4566626,-5.8131979 v 0.76 c 0,1.039999 -0.1600005,1.7600009 -0.64,2.68 -0.7199993,1.55999844 -0.8,1.7600006 -0.8,2.36 0,1.1599988 0.880001,2.12 1.92,2.12 1.0799989,0 1.92,-0.9600012 1.92,-2.16 0,-0.3999996 -0.1200003,-0.92000052 -0.4,-1.44 -0.9199991,-1.959998 -1,-2.2800013 -1,-3.56 v -0.76 l 0.64,0.4 c 0.8399992,0.4799995 1.4800006,1.0400008 2.04,1.84 1.3199987,1.7999982 1.7600011,2.16 2.84,2.16 0.999999,0 1.8,-0.760001 1.8,-1.76 0,-1.2399988 -1.04000156,-2.1600001 -2.6,-2.28 -1.959998,-0.1199999 -2.3200012,-0.2000007 -3.56,-0.88 l -0.64,-0.36 0.64,-0.36 c 0.9199991,-0.5199995 1.600001,-0.76 2.64,-0.8 1.5999984,-0.1599998 1.72000048,-0.1600002 2.2,-0.36 0.7999992,-0.3999996 1.32,-1.1200008 1.32,-1.9600001 0,-1.039999 -0.840001,-1.84 -1.88,-1.84 -0.87999912,0 -1.6000006,0.440001 -2.24,1.4 -1.1199989,1.6799984 -1.3600012,1.9200008 -2.56,2.6400001 l -0.64,0.4 v -0.76 c 0,-0.999999 0.1600005,-1.7600011 0.64,-2.6800001 0.7599992,-1.599998 0.8,-1.76 0.8,-2.32 0,-1.199999 -0.8800011,-2.16 -1.96,-2.16 -1.039999,0 -1.92,0.960001 -1.92,2.12 0,0.44 0.1200003,0.960001 0.4,1.48 0.959999,1.9999981 1.04,2.2800014 1.04,3.5600001 v 0.76 l -0.64,-0.4 c -0.9199991,-0.5199995 -1.4400006,-1.0400008 -2.04,-1.88 -0.7999992,-1.1999991 -0.8000003,-1.2000001 -1.1200004,-1.5200001 -0.439999,-0.399999 -1.08,-0.64 -1.6,-0.64 -1.079999,0 -1.92,0.840001 -1.92,1.84 0,1.2399989 1.000002,2.1200002 2.56,2.2400001 2.0399984,0.1199999 2.3600016,0.2000007 3.6000004,0.88 l 0.64,0.36 -0.64,0.4 c -0.8399992,0.4799995 -1.640001,0.7200001 -2.6400004,0.8 -1.559998,0.08 -1.68,0.1200002 -2.2,0.32 -0.799999,0.3599996 -1.32,1.1200008 -1.32,1.96 0,0.999999 0.840001,1.84 1.88,1.84 0.88,0 1.640001,-0.4800009 2.2400004,-1.4 1.0799989,-1.5999984 1.4000012,-1.9600007 2.56,-2.64 z"
         transform="matrix(0.60271547,0,0,0.60365952,29.090173,29.540413)"
         id="path73" />
    </g>
  </g>
</svg>
