<svg height="24" width="24" xmlns="http://www.w3.org/2000/svg" xmlns:xlink="http://www.w3.org/1999/xlink"><linearGradient id="a" gradientUnits="userSpaceOnUse" x1="21.73" x2="24.73" y1="13.31" y2="14.51"><stop offset="0" stop-color="#fff"/><stop offset=".852" stop-color="#959595"/><stop offset=".918" stop-color="#6f6f6f"/><stop offset="1" stop-color="#4a4a4a"/></linearGradient><linearGradient id="b" gradientUnits="userSpaceOnUse" x1="16.5" x2="12.5" y1="14.5" y2="8.5"><stop offset="0" stop-color="#8fbeee"/><stop offset="1" stop-color="#dbecff" stop-opacity=".973"/></linearGradient><path d="m.5 9.5 4-5h16v10h-16z" fill="url(#b)" fill-rule="evenodd" stroke="#519af0" stroke-linecap="round" stroke-linejoin="round"/><text fill="#2e3436" font-family="FreeSans" font-weight="700" letter-spacing="0" word-spacing="0" x="4.187" y="12.293"><tspan font-size="8" x="4.187" y="12.293">ab</tspan></text><path d="m20.5 17.6a1.742 1.742 0 0 1 -.593-.167 1.739 1.739 0 0 1 -.891-1 1.723 1.723 0 0 1 .078-1.33l5.7-11.8a1.76 1.76 0 0 1 1.74-.981c.206.02.406.076.593.167a1.752 1.752 0 0 1 .814 2.339l-5.7 11.8c-.16.331-.415.6-.74.775-.31.168-.655.239-1 .205z" fill="url(#a)" stroke="#333" stroke-width=".667" transform="matrix(-.61 .437 -.437 -.61 37 10.6)"/><circle cx="15.841" cy="20.599" fill="#a12727" r="4.5" stroke="#8a0000" stroke-miterlimit="10" stroke-width=".375" transform="matrix(.98791662 -.15498627 .15498627 .98791662 0 0)"/><path d="m23.1 18.7c-.652 2.7-3.19 3.86-5.29 3.35-.681-.164-1.5-.722-1.5-.722s2.78.232 4.57-1.07c1.79-1.3 2.27-2.67 2.27-2.67s.023.797-.052 1.11z" fill="#8d2727"/><circle cx="15.241" cy="18.599" fill="#de6767" r="1.5" transform="matrix(.98791662 -.15498627 .15498627 .98791662 0 0)"/></svg>