<svg height="24" width="24" xmlns="http://www.w3.org/2000/svg"><path d="m1.1364216 1.6504c-2.237601 1.3008 3.8896384 5.4906 1.9674915 8.3984-1.3990735 3.001-2.51776726 6.2623-2.4036758 9.5985.0159939 2.6146 3.5401896 4.8272 5.2587602 2.2272 1.3167158-1.7194 2.7091903-3.8997 5.1595055-3.8763 3.013784-.1235 6.461621 1.5325 9.107356-.6126 2.525558-2.8416-11.4181656-6.5347 2.238618-10.1965 1.311373-2.9919-1.738346-6.7068-4.936741-5.7421-3.586821 1.3974-5.596346 4.0061-9.2530467 1.9457-1.4354323-.8662-5.3693265-2.5441-7.1382677-1.7423z" fill="#ebebeb"/><path d="m1.1364216 1.6504c-2.237601 1.3008 3.8896384 5.4906 1.9674915 8.3984-1.3990735 3.001-2.51776724 6.2623-2.40367578 9.5985.0159939 2.6146 3.54018958 4.8272 5.25876018 2.2272 1.3167158-1.7194 2.7091903-3.8997 5.1595055-3.8763 3.013784-.1235 6.461621 1.5325 9.107356-.6126 2.525558-2.8416-11.4181656-6.5347 2.238618-10.1965 1.311373-2.9919-1.738346-6.7068-4.936741-5.7421-3.586821 1.3974-5.596346 4.0061-9.2530467 1.9457-1.4354323-.8662-5.3693265-2.5441-7.1382677-1.7423z" fill="none" stroke="#424242" stroke-dasharray="2.4 1.2" stroke-width="1.2"/><g transform="matrix(1.1228004 0 0 1.1225886 -41.27947 -28.832162)"><circle cx="43.444469" cy="32.365807" fill="#6d97c4" r="6.127575" stroke="#445e75" stroke-miterlimit="10" stroke-width=".213668"/><g fill="#fff"><path d="m38.481599 33.476456c.156406-1.798872.507676-2.87811 1.624733-3.995167 1.20637-1.20637 2.323641-1.766181 4.434682-2.246507 1.037146-.23589-.759376-1.017915-3.245405-.08782-1.335426.499556-2.690937 1.803359-3.166562 3.703297-.576263 2.30035.280973 3.449886.352552 2.626195z" opacity=".3" stroke-width=".373117"/><path d="m44.913438 34.944997-.151705-.151277c-.138243-.138029-.402978-.11068-.512376.05299-.06859.102774-.385671.430968-.58545.585237.02479-.102348.07222-.258752.161532-.51259l.801256-2.274711c.188241-.538658.301913-.863861.301913-1.141202 0-.438874-.323493-.722626-.823691-.722626-1.263419 0-2.252276 1.140988-2.618289 1.631143-.0047.0062-.009.01218-.01282.01752-.06303.07158-.08803.167088-.06837.264948.01517.07564.05662.148927.120082.212387l.113671.113458c.06795.06795.156191.105338.24871.105338.06901 0 .17243-.02159.274136-.124355l.01881-.02201c.131833-.175635.378192-.441224.558315-.604681-.03098.105125-.07479.234181-.126279.38268l-.557032 1.623665c-.396782 1.147183-.545281 1.576443-.545281 1.815538 0 .312596.19978.646345.760445.646345 1.742464 0 2.601409-1.294401 2.695637-1.445037.09594-.160679.07756-.321143-.0532-.452763z" stroke="#34497d" stroke-miterlimit="10" stroke-width=".213668"/><path d="m44.205769 28.173854c-.560238 0-1.051461.48524-1.051461 1.038641 0 .630962.422635 1.03864 1.076674 1.03864.642073 0 1.139919-.592288 1.139919-1.101886.000214-.449772-.304904-.975395-1.165132-.975395z" stroke="#34497d" stroke-miterlimit="10" stroke-width=".213668"/></g></g><path d="m22.652743 15.6955-12.756464-6.9791 5.477553 13.6014 2.180887-3.5312 4.312159 4.7134 1.633122-1.5913-4.408599-4.6683 3.561343-1.5449z" style="fill:#fff;fill-rule:evenodd;stroke:#000;stroke-width:.7;stroke-linecap:round;stroke-linejoin:round"/></svg>