<svg xmlns="http://www.w3.org/2000/svg" width="24" height="24"><circle cx="12" cy="12" r="3" fill="#6d97c4" stroke="#415a75" stroke-linecap="round" stroke-linejoin="round" stroke-width="2" style="paint-order:stroke fill markers"/><g fill="none" fill-opacity="0" stroke="#415a75"><path stroke-width="2" d="M5.04 4.68c-3.496 3.392-4.573 10.077 0 14.647"/><path d="M7.6 6.93c-2.81 2.878-2.82 7.114-.03 10.157"/><path stroke-width="2" d="M18.962 19.319c3.496-3.39 4.574-10.076 0-14.646"/><path d="M16.383 17.069c2.809-2.877 2.82-7.114.03-10.157"/></g><path fill="#bacee3" d="M12 15c-1.023-.327-1.512-1.668-1.5-3 .013-1.355.544-2.7 1.5-3-1.933.03-3.011 1.555-3 3 .01 1.409.987 2.923 3 3Z"/><g transform="matrix(.6923 0 0 .6923 1.846 1.846)"><rect width="13" height="13" x="19" y="19" fill="#5a8c5a" rx="2.615"/><g fill-rule="evenodd"><path fill="#fff" stroke="#fff" stroke-linecap="round" stroke-linejoin="round" stroke-width="2.6" d="M21.6 25.5h7.8M25.5 29.4v-7.8"/><path fill="#fcffff" d="M20.3 25.5h10.4v-2.6c0-2.6-.65-2.6-5.2-2.6s-5.2 0-5.2 2.6z" opacity=".3"/></g></g></svg>