<svg xmlns="http://www.w3.org/2000/svg" height="24" width="24"><path d="M2.5 21.5l17-.05V7.65L14.495 2.5 2.5 2.55z" fill="#fff" fill-rule="evenodd" stroke="#919191" stroke-width=".999" stroke-linejoin="round"/><path d="M4.5 19.5l17-.05V5.65L16.495.5 4.5.55z" fill="#fff" fill-rule="evenodd" stroke="#727272" stroke-width=".999" stroke-linejoin="round"/><path fill="#7399ec" fill-opacity=".44" d="M6 2h10v1H6zM5.966 17.038h14.093v1H5.966z"/><path d="M21.5 5.5h-5v-5z" fill="#f0f0f0" fill-rule="evenodd" stroke="#727272" stroke-linejoin="round"/><path fill="#7399ec" fill-opacity=".44" d="M20 17V6h-1v11zM7 17V3H6v14z"/><path fill="#999" d="M8 10h1v6H8z"/><path fill="#6d97c4" d="M10 15h2v-3h-2z"/><path fill="#de8787" d="M13 10h2v6h-2z"/><path fill="#d06935" d="M16 16h2v-5.007h-2z"/><path fill="#999" fill-opacity=".793" d="M8 5h7V4H8zM8 7h7V6H8zM8 9h10V8H8z"/><path fill="#999" fill-opacity=".979" d="M9 16h9v-1H9z"/><g transform="translate(33)"><rect y="13" x="-20" width="11" rx="2.011" height="11" fill="#c4a000"/><path d="M-15 14v2.063a2.501 2.501 0 0 0-1.375.78l-1.781-1.03-.5.874 1.781 1.032A2.46 2.46 0 0 0-17 18.5c0 .275.043.534.125.781l-1.781 1.032.5.875 1.781-1.032c.353.4.833.67 1.375.782V23h1v-2.063a2.501 2.501 0 0 0 1.375-.78l1.781 1.03.5-.875-1.781-1.03A2.46 2.46 0 0 0-12 18.5a2.46 2.46 0 0 0-.125-.781l1.781-1.032-.5-.875-1.781 1.032c-.353-.4-.833-.67-1.375-.782V14zm.5 3.5a1 1 0 1 1 0 2 1 1 0 0 1 0-2z" fill="#fcffff"/><path d="M-19 19l9-.01v-2C-10 14-11 14-14.5 14s-4.5 0-4.5 3v2z" opacity=".3" fill="#fcffff" fill-rule="evenodd"/></g></svg>