<?xml version="1.0" encoding="UTF-8"?>
<svg width="32" height="32" xmlns="http://www.w3.org/2000/svg">
 <path transform="matrix(.092425 .024765 -.024765 .092425 .89162 .24549)" d="m201.45 112.87-183.07-100.16 78.609 195.19 31.298-50.676 61.884 67.642 23.437-22.837-63.268-66.994 51.109-22.172z" fill="#fff" fill-rule="evenodd" stroke="#000" stroke-linecap="round" stroke-linejoin="round" stroke-width="10.451"/>
 <path d="m24.042 23.121c-0.03224-3.159 0.32235-4.0294 2.3854-5.8023 3.159-2.8045 3.8682-3.9005 3.8682-6.1569 0-3.3525-2.4821-5.6089-6.1569-5.6089-3.6426 0-6.2859 1.9986-6.2859 4.7708 0 1.4183 0.90259 2.4821 2.0953 2.4821 1.0315 0 1.8374-0.77365 1.8374-1.7729 0-0.6447-0.32235-1.1927-0.93482-1.7085-0.48353-0.38682-0.51576-0.45129-0.51576-0.70917 0-0.83811 1.4184-1.6118 2.9656-1.6118 2.2887 0 3.6103 1.4828 3.6103 3.9649 0 1.3216-0.38682 2.5466-1.0315 3.4814-2.3854 3.2558-2.3854 3.2558-2.8045 4.384-0.32235 0.90258-0.45129 1.7407-0.45129 3.2558v1.0315zm-0.77364 2.6111c-1.1282 0-2.0308 0.90259-2.0308 1.9986 0 1.1282 0.90259 2.0308 1.9986 2.0308 1.1282 0 2.0308-0.90259 2.0308-2.0308 0-1.096-0.90259-1.9986-1.9986-1.9986"/>
</svg>
