<svg height="24" viewBox="0 0 24 24" width="24" xmlns="http://www.w3.org/2000/svg">
<linearGradient gradientUnits="userSpaceOnUse" x1="-10" x2="-10" y1="15" y2="21">
<stop offset="0" stop-color="#555753"/>
<stop offset="1" stop-color="#555753" stop-opacity="0"/>
</linearGradient>
<g transform="translate(0 -8)">
<path d="m13 14c-.901102 2.466663-2.689588 4.130041-5.5265221 3.782055-2.3514856-.288439-5.4656693-2.167916-3.4540767-5.673083 1.7934064-3.12498 10.3622298-1.891027 8.9805988 1.891028z" style="overflow:visible;fill:#8cbe8c;fill-rule:evenodd;stroke:#555753;stroke-width:.80819273;stroke-linecap:round;stroke-linejoin:round"/>
<g transform="translate(33 8)">
<rect fill="#c4a000" height="11" rx="2.0114901" width="11" x="-20" y="13"/>
<path d="m-15 14v2.0625c-.537663.111041-1.024662.383291-1.375.78125l-1.78125-1.03125-.5.875 1.78125 1.03125c-.082063.247432-.125.506395-.125.78125 0 .274855.04294.533818.125.78125l-1.78125 1.03125.5.875 1.78125-1.03125c.352503.40042.832682.670182 1.375.78125v2.0625h1v-2.0625c.537663-.111041 1.024662-.383291 1.375-.78125l1.78125 1.03125.5-.875-1.78125-1.03125c.082063-.247432.125-.506395.125-.78125 0-.274855-.04294-.533818-.125-.78125l1.78125-1.03125-.5-.875-1.78125 1.03125c-.352503-.40042-.832682-.670182-1.375-.78125v-2.0625zm.5 3.5c.552 0 1 .448 1 1 0 .552-.448 1-1 1-.552 0-1-.448-1-1 0-.552.448-1 1-1z" fill="#fcffff"/>
<path d="m-19 19l9-.0096c0 0 0 0 0-2 0-2.9904-1-2.9904-4.5-2.9904-3.5 0-4.5 0-4.5 3 0 2 0 2 0 2z" fill="#fcffff" fill-rule="evenodd" opacity=".3"/>
</g>
<path d="m8.0273438 9.5019527c-2.8183472.046637-5.2870436 1.2538893-6.2832032 4.1933593-.98846778 2.916771 1.1705509 8.183302 5.9316406 5.841797 7.9077408-3.889027 7.9039248.962891 9.8808598.962891 2.438571 0 4.941406-1.699014 4.941406-3.873047 0-1.944514.0964-3.806221-.992188-4.876953-1.976935-1.9445144-2.973668.986007-8.289062-1.185547-1.694017-.6920749-3.4984442-1.0904833-5.1894532-1.0625003zm1.34375 1.9042973c2.6717632.209714 3.4212382 1.491217 3.2539062 2.84375-.152982.801242-.112181 1.757194-2.3125 2.125-2.2667232.311628-2.8421214 1.897626-5.375.4375-1.2343757-.806891-1.2032043-1.958912-.75-2.875 1.002077-1.698078 2.6725424-2.608437 5.1835938-2.53125z" fill="#bebebe" fill-rule="evenodd" stroke="#555753" stroke-linecap="round" stroke-linejoin="round"/>
</g>
</svg>
