<?xml version="1.0" encoding="UTF-8"?>
<svg width="24" height="24" xmlns="http://www.w3.org/2000/svg">
 <g transform="translate(0 -1028.4)">
  <path d="m1.1364 1030c-2.2376 1.3008 3.8896 5.4906 1.9675 8.3984-1.3991 3.001-2.5178 6.2623-2.4037 9.5985 0.015994 2.6146 3.5402 4.8272 5.2588 2.2272 1.3167-1.7194 2.7092-3.8997 5.1595-3.8763 3.0138-0.1235 6.4616 1.5325 9.1074-0.6126 2.5256-2.8416-11.418-6.5347 2.2386-10.196 1.3114-2.9919-1.7383-6.7068-4.9367-5.7421-3.5868 1.3974-5.5963 4.0061-9.253 1.9457-1.4354-0.8662-5.3693-2.5441-7.1383-1.7423z" fill="#ebebeb"/>
  <path d="m2.5385 1030.9h12.923v12.923h-12.923z" fill="#fce94f" overflow="visible" stroke="#c4a000" stroke-linecap="round" stroke-width="1.0769"/>
  <path d="m1.1364 1030c-2.2376 1.3008 3.8896 5.4906 1.9675 8.3984-1.3991 3.001-2.5178 6.2623-2.4037 9.5985 0.015994 2.6146 3.5402 4.8272 5.2588 2.2272 1.3167-1.7194 2.7092-3.8997 5.1595-3.8763 3.0138-0.1235 6.4616 1.5325 9.1074-0.6126 2.5256-2.8416-11.418-6.5347 2.2386-10.196 1.3114-2.9919-1.7383-6.7068-4.9367-5.7421-3.5868 1.3974-5.5963 4.0061-9.253 1.9457-1.4354-0.8662-5.3693-2.5441-7.1383-1.7423z" fill="none" stroke="#424242" stroke-dasharray="2.4 1.2" stroke-width="1.2"/>
  <path d="m22.653 1044.1-12.756-6.9791 5.4776 13.601 2.1809-3.5312 4.3122 4.7134 1.6331-1.5913-4.4086-4.6683 3.5613-1.5449z" fill="#fff" fill-rule="evenodd" stroke="#000" stroke-linecap="round" stroke-linejoin="round" stroke-width=".7"/>
 </g>
</svg>
