<svg height="24" viewBox="0 0 24 24" width="24" xmlns="http://www.w3.org/2000/svg"><g transform="translate(0 -8)"><path d="m8.0275933 9.5013891c-2.8183472.0466368-5.2878242 1.2552559-6.2839838 4.1947259-.98846785 2.916771 1.1714865 8.182008 5.9325763 5.840503 7.9077412-3.889027 7.9038032.963382 9.8807382.963382 2.438571 0 4.94037-1.699566 4.94037-3.873599 0-1.944514.09638-3.806388-.992208-4.87712-1.976935-1.944514-2.973677.987396-8.289071-1.184158-1.694017-.6920746-3.4974127-1.0917169-5.1884217-1.0637339z" fill="#bebebe" fill-rule="evenodd" stroke="#555753" stroke-linecap="round" stroke-linejoin="round"/><path d="m1.51334 28.024759c1.6399634-3.16073 4.0320604-5.747178 6.98666-7.024759 5.081278-1.554467 2.905722 9.431718-.932058 9.499633-3.4066944.099735-6.4508754-1.576501-6.054602-2.474874z" fill="#8cbe8c" stroke="#555753"/><rect fill="#d26464" height="10.000001" rx="2.01149" width="9.999999" x="14.000001" y="22"/><g fill-rule="evenodd"><path d="m15.000001 27h7.999999s0 0 0-2-.5-2-4-2c-3.499999 0-3.999999 0-3.999999 2z" fill="#fcffff" opacity=".3"/><path d="m16.87868 29.12132 4.24264-4.24264" fill="#fff" stroke="#fff" stroke-linecap="round" stroke-linejoin="round" stroke-width="2"/><path d="m16.87868 24.87868 4.24264 4.24264" fill="#fff" stroke="#fff" stroke-linecap="round" stroke-linejoin="round" stroke-width="2"/></g></g></svg>