<?xml version="1.0" encoding="UTF-8"?>
<svg width="24" height="24" viewBox="0 0 24 24" xmlns="http://www.w3.org/2000/svg">
 <g transform="translate(0 -8)" fill-rule="evenodd">
  <path d="m19.747 25.88c-0.56415-1.1309-2.107-2.2506-4.2295-3.1295l-0.45532 0.82784c1.9639 0.81324 3.3212 1.8067 3.7732 2.7128 0.45202 0.90614 0.2925 1.6654-0.01128 2.0008-0.15189 0.16768-0.32017 0.2497-0.55916 0.2587-0.23899 9e-3 -0.56823-0.07313-0.95829-0.34564-0.78012-0.54502-1.7491-1.8495-2.5215-4.258l-0.95848 0.29675c0.80519 2.5107 1.8085 3.9669 2.8442 4.6905 0.51785 0.36179 1.0572 0.54012 1.5789 0.52048 0.52171-0.01964 1.0064-0.25485 1.3301-0.61224 0.64746-0.71479 0.73131-1.8316 0.16716-2.9625z" fill="#d00000" overflow="visible" stroke="#4a0000" stroke-width=".4"/>
  <path d="m15.526 22.839-1.9172-1.3443-3.2516-12.135c-1.8125 0.98351-0.96652 5.3686-0.11237 8.3913l1.3007 4.8543 2.8994 2.0102z" fill="#d5d5d5" stroke="#717171" stroke-linejoin="round" stroke-width=".6"/>
  <path d="m8.0273 9.502c-2.8183 0.046637-5.287 1.2539-6.2832 4.1934-0.98847 2.9168 1.1706 8.1833 5.9316 5.8418 1.0302-0.50664 1.9216-0.85962 2.7051-1.0996l1.0078-8.4746c-1.1278-0.30315-2.2675-0.47904-3.3613-0.46094z" fill="#8cbe8c" stroke="#555753" stroke-linecap="round" stroke-linejoin="round"/>
  <path d="m13.852 10.799 0.53125 7.5352c1.5824 0.66155 2.0724 2.166 3.1738 2.166 2.4386 0 4.9414-1.699 4.9414-3.873 0-1.9445 0.0964-3.8062-0.99219-4.877-1.8941-1.8631-2.8992 0.73661-7.6543-0.95117z" fill="#8cbe8c" stroke="#555753" stroke-linecap="round" stroke-linejoin="round"/>
  <path d="m12.471 25.062-0.99521 0.02352c-0.0856 2.518-0.68169 4.0844-1.3112 4.761-0.31474 0.33832-0.61631 0.48352-0.87652 0.527-0.26021 0.04349-0.49831-0.0082-0.72031-0.15356-0.44399-0.29063-0.78036-0.98971-0.52787-1.9398 0.25248-0.95008 1.099-2.1549 3.024-3.3397l-0.52689-0.74067c-2.0847 1.2831-3.1368 2.6774-3.4658 3.9153-0.32899 1.238 0.070313 2.3159 0.88511 2.8493 0.4074 0.26668 0.92947 0.38868 1.461 0.29986 0.5315-0.08882 1.0532-0.38195 1.494-0.85574 0.88156-0.94759 1.4701-2.708 1.5598-5.3466z" fill="#d00000" overflow="visible" stroke="#4a0000" stroke-width=".4"/>
  <path d="m10.316 24.7 6.2008-15.597c0.04869 5.7353-2.4466 11.044-4.3998 16.508z" fill="#d5d5d5" stroke="#717171" stroke-linejoin="round" stroke-width=".6"/>
 </g>
</svg>
