<svg xmlns="http://www.w3.org/2000/svg" width="24" height="24"><path fill="#929292" fill-rule="evenodd" d="M14.3 18.349a7.492 7.492 0 1 1 1.763-1.763l4.922 4.923c.485.485.48 1.26 0 1.742l-.021.02c-.48.48-1.261.481-1.742 0l-4.923-4.922Zm-4.343-.377a5.73 5.73 0 1 0 0-11.458 5.73 5.73 0 0 0 0 11.458z" style="stroke-width:.56015"/><g stroke-dashoffset=".5" stroke-linejoin="round"><path fill="#505050" stroke="#505050" stroke-linecap="round" stroke-width=".490395" d="m9.538 11.13 3.397 1.962-4.055 2.937z"/><path fill="#de6b37" stroke="#c04317" stroke-linecap="round" stroke-width=".490395" d="m15.096 1.504 3.397 1.962-5.558 9.626-3.397-1.962Z"/><path fill="none" stroke="#f8b008" stroke-width="1.37702916" d="m16.15 2.922-5.164 8.944" opacity=".5"/><path fill-opacity=".588" stroke="#632923" stroke-width="1.41168374" d="m17.36 3.586-5.326 9.118" opacity=".25"/><path fill="#fc894f" stroke="#a7481e" stroke-linecap="round" stroke-width=".490395" d="m17.034 3.378-5.231 9.06" opacity=".5"/><path fill="#969696" stroke="#969696" stroke-linecap="square" stroke-width=".32693" d="m9.744 15.176 2.747-2.146-1.13-.653z"/><path fill="#db562d" stroke="#9b3819" stroke-linecap="round" stroke-width=".490395" d="m15.618 2.56-5.23 9.06" opacity=".5"/><g fill="#e6e6e6" stroke-width=".5"><path stroke="#969696" stroke-linecap="round" stroke-width=".32693" d="m15.33.797 3.659 2.112-.713 1.234-3.659-2.112Z"/><path stroke="#e6e6e6" stroke-linecap="square" stroke-width=".32693" d="m9.277 15.026.537-3.542 1.13.653z"/></g></g></svg>