<svg height="24" viewBox="0 0 24 24" width="24" xmlns="http://www.w3.org/2000/svg" xmlns:xlink="http://www.w3.org/1999/xlink"><radialGradient id="a" cx="16.5" cy="-12.5" gradientTransform="matrix(.71392723 1.0641605 -.69302733 .45911438 -10.291955 4.615561)" gradientUnits="userSpaceOnUse" r="7"><stop offset="0" stop-color="#bed1e5"/><stop offset="1" stop-color="#6d97c4"/></radialGradient><path d="m11.5 11.5h12v12h-12z" fill="#fce94f" stroke="#c4a000" stroke-linecap="round"/><g transform="translate(0 -8)"><path d="m23.920726 22.589049s-1.892101-.277217-2.871364-1.366642c-.626778-.697285-3.678535-3.947217-5.453989-4.650095-2.962962-1.172997-5.321805-1.134553-7.5695483-.546833-2.09114.546775-3.530204 1.337547-4.903697 2.645046-.639528.608801-1.518255 2.273176-1.505979 2.551883-.01888.230131 1.214539 2.152487 2.867438 3.325547 1.508743 1.070752 3.592552 2.336622 5.9029663 2.73289 2.79582.479522 3.821514.379776 6.481198-.469869 1.39945-.447059 3.888123-2.570867 3.888123-2.570867s.521038-.348323 1.332925-.951893c.700164-.520511 1.831927-.699167 1.831927-.699167z" fill="#eeeeec" fill-rule="evenodd"/><path d="m10.703793 15.636921c-.7881923.02907-1.0668593.04567-1.9065573.207793-.480734.09555-1.032406.24279-1.259721.314658-.82902.985202-1.232344 2.302381-1.232555 3.586626.000334 3.02468 2.467746 5.476585 5.5115563 5.476917 3.043809-.000333 5.511221-2.452237 5.511555-5.476917-.0019-.802706.04206-1.574914-.302154-2.301101-.523643-.400667-1.160508-.754077-1.584197-.91776-1.870192-.722509-3.334895-.941964-4.737927-.890216z" fill="url(#a)" stroke="#415a75" stroke-linecap="round" stroke-linejoin="round"/><ellipse cx="11.816514" cy="19.659227" rx="2.226378" ry="2.212386"/><path d="m1.1431106 15.424331c5.0059781-1.495379 8.5535321-2.062068 10.9931454-2.285946 5.222126-.479224 7.062158.400175 8.402611 1.388166 1.448462 1.0676 1.763071 1.760039 1.763071 1.760039" fill="none" stroke="#888a85"/><path d="m23.920726 22.589049s-1.892101-.277217-2.871364-1.366642c-.626778-.697285-3.678535-3.947217-5.453989-4.650095-2.962962-1.172997-5.321805-1.134553-7.5695483-.546833-2.09114.546775-3.530204 1.337547-4.903697 2.645046-.639528.608801-1.518255 2.273177-1.505979 2.551883-.01888.230131 1.214539 2.152488 2.867438 3.325547 1.508743 1.070753 3.592552 2.336622 5.9029663 2.73289 2.79582.479522 3.821514.379776 6.481198-.469869 1.39945-.447059 3.888123-2.570867 3.888123-2.570867s.521038-.348323 1.332925-.951893c.700164-.520511 1.831927-.699167 1.831927-.699167z" fill="none" stroke="#888a85"/><ellipse cx="11.169984" cy="18.742189" fill="#eeeeec" rx=".890551" ry=".884954"/></g><g><path d="m11.84375 5.0742188c-1.854051.2695175-3.5762987.6528492-4.5683594.8261718-5.0919021.889605-4.9391704 1.4606843-5.4648437 2.8320313-.3947767 1.029871-.2075885 4.2115271-.1953125 4.4902341-.01888.230131 1.2162416 2.153112 2.8691406 3.326172 1.508743 1.070752 3.5919295 2.336154 5.902344 2.732422.560088.09606 1.011653.151022 1.457031.199219z" fill="#eeeeec" fill-rule="evenodd"/><g fill="none" stroke="#888a85"><path d="m1.1431106 7.4243307c5.0059781-1.495379 8.5535321-2.062068 10.9931454-2.285946 5.222126-.479224 7.062158.400175 8.402611 1.388166 1.448462 1.0676 1.763071 1.760039 1.763071 1.760039"/><path d="m23.514476 14.589049c-.0074-1.621158-1.489833-.70922-2.121364-.366642-1.345528.583965-4.05405 3.175877-5.922739 3.568655-2.150462.452003-4.650818.144881-6.7882983-.765583-2.09114-.890725-3.6035308-2.157143-5.122447-3.292454-.983278-.734949-1.955755-.414323-1.943479-.135617-.01888.230131 1.214539 1.777488 2.867438 2.950547 1.508743 1.070753 3.592552 2.336622 5.9029663 2.73289 2.79582.479522 3.821514.379776 6.481198-.469869 1.39945-.447059 3.888123-2.570867 3.888123-2.570867s.521038-.348323 1.332925-.951893c.700164-.520511 1.425677-.699167 1.425677-.699167z"/></g></g><path d="m10 1v22h1.998047v-22z" fill="#5a8c5a"/></svg>