<svg height="24" viewBox="0 0 24 24" width="24" xmlns="http://www.w3.org/2000/svg"><g transform="translate(0 -8)"><g opacity=".5" transform="matrix(.77484054 0 0 1.0984051 8.231575 -.713334)"><path d="m6.5 27.5v-15h7l4 4v11z" fill="#fff" fill-rule="evenodd" stroke="#5b5b5c" stroke-linejoin="round"/><path d="m13.5 12.5v4h4z" fill="#f0f0f0" fill-rule="evenodd" stroke="#5b5b5c" stroke-linejoin="round"/><g fill="none"><path d="m8 17.5h6.5" stroke="#969696"/><path d="m8 19.5h7.5" stroke="#969696"/><path d="m8 21.5h5" stroke="#6a6a6a"/><path d="m8 23.5h7" stroke="#969696"/><path d="m8 25.5h7" stroke="#969696"/></g></g><g transform="matrix(.75888502 0 0 1.1002515 -2.5134 -.716896)"><path d="m6.5 27.5v-15h7l4 4v11z" fill="#fff" fill-rule="evenodd" stroke="#5b5b5c" stroke-linejoin="round"/><path d="m13.5 12.5v4h4z" fill="#f0f0f0" fill-rule="evenodd" stroke="#5b5b5c" stroke-linejoin="round"/><g fill="none" stroke="#969696"><path d="m8 17.5h6.5"/><path d="m8 19.5h7.5"/><path d="m8 21.5h5"/><path d="m8 23.5h7"/><path d="m8 25.5h7"/></g></g><path d="m17.204281 23.413182-2.805168 2.659955.0104-1.788798-4.7725306-.04077.010395-1.789979 4.7725316.04077.01039-1.788795 2.774022 2.707613z" style="fill:#fce94f;fill-rule:evenodd;stroke:#a9b318;stroke-width:.600925;stroke-linecap:round;stroke-linejoin:round"/></g></svg>