<?xml version="1.0" encoding="UTF-8"?>
<svg width="24" height="24" enable-background="new 0 0 24 24" viewBox="0 0 24 24" xmlns="http://www.w3.org/2000/svg">
 <g transform="translate(0 -8)">
  <path d="m2.5385 10.538h12.923v12.923h-12.923z" fill="#fce94f" overflow="visible" stroke="#c4a000" stroke-linecap="round" stroke-width="1.0769"/>
  <path d="m6.5385 14.538h12.923v12.923h-12.923z" fill="#fce94f" overflow="visible" stroke="#c4a000" stroke-linecap="round" stroke-width="1.0769"/>
  <g transform="translate(-2e-8 8)">
   <path d="m14.357 13.5h8.285c.474 0 .857.384.857.857v8.285c0 .474-.384.857-.857.857h-8.285c-.474 0-.857-.384-.857-.857v-8.285c0-.473.384-.857.857-.857z" fill="#c00" opacity=".9" stroke="#c00" stroke-linecap="square" stroke-linejoin="round"/>
   <path d="m13.5 18.5h10v-3.334c0-1.666 0-1.666-2.5-1.666h-5.834c-1.666 0-1.666 0-1.666 1.666v3.334z" fill="#fcffff" opacity=".5"/>
   <path d="m16.373 20.65 4.254-4.301" fill="none" stroke="#eeeeec" stroke-linecap="round" stroke-width="1.5"/>
   <circle cx="18.5" cy="18.5" r="4.1562" fill="none" stroke="#eeeeec" stroke-linecap="round" stroke-width="1.6875"/>
  </g>
 </g>
</svg>
