<?xml version="1.0" encoding="UTF-8"?>
<svg width="24" height="24" xmlns="http://www.w3.org/2000/svg">
 <g transform="translate(0 -8)">
  <g transform="matrix(1.7964 0 0 1.7964 -22.233 -28.711)">
   <rect x="13.5" y="21.536" width="10" height="10" rx=".85714" fill="#ce5c00" opacity=".9" stroke="#ce5c00" stroke-linecap="square" stroke-linejoin="round"/>
   <path d="m13.5 26.536h10v-3.3333c0-1.6667 0-1.6667-2.5-1.6667h-5.8333c-1.6667 0-1.6667 0-1.6667 1.6667v3.3333z" fill="#fcffff" fill-rule="evenodd" opacity=".5"/>
   <path d="m22.5 30.5c-0.03545-3.4126-2.5663-3.0936-5-3v3l-3-3.9637 3-4.0363v3c4 0 5 0 5 5z" fill="#eeeeec" stroke="#eeeeec" stroke-linejoin="round"/>
  </g>
  <g transform="matrix(.56626 .32693 -.32693 .56626 15.571 13.856)" enable-background="new" stroke-dashoffset=".5" stroke-linejoin="round">
   <path d="m8.0961 18.028h6l-3.1249 6.991-2.8751-6.991z" fill="#505050" overflow="visible" stroke="#505050" stroke-linecap="round" stroke-width=".75"/>
   <path d="m8.0961 1.0284 6-1e-6 1e-6 17h-6l-1.9e-6 -17" fill="#de6b37" overflow="visible" stroke="#c04317" stroke-linecap="round" stroke-width=".75"/>
   <path d="m10.577 2.1008 1e-6 15.795" fill="none" opacity=".5" overflow="visible" stroke="#f8b008" stroke-width="2.106"/>
   <path d="m12.686 2.0551-0.080979 16.149" fill-opacity=".58824" opacity=".25" overflow="visible" stroke="#632923" stroke-width="2.1593"/>
   <path d="m12.096 2.0284 1e-6 16" fill="#fc894f" opacity=".5" stroke="#a7481e" stroke-linecap="round" stroke-width=".75"/>
   <path d="m11.463 23.229 1.997-4.9438-1.997-1e-6v4.9438z" fill="#969696" overflow="visible" stroke="#969696" stroke-linecap="square" stroke-width=".5"/>
   <path d="m9.5961 2.0284 1.5e-6 16" fill="#db562d" opacity=".5" stroke="#9b3819" stroke-linecap="round" stroke-width=".75"/>
   <path d="m7.8653-0.087277h6.4615v2.1791h-6.4615z" fill="#e6e6e6" overflow="visible" stroke="#969696" stroke-linecap="round" stroke-width=".5"/>
   <path d="m10.729 23.387-1.997-5.1021h1.997v5.1021z" fill="#e6e6e6" overflow="visible" stroke="#e6e6e6" stroke-linecap="square" stroke-width=".5"/>
  </g>
 </g>
</svg>
