<?xml version="1.0" encoding="UTF-8"?>
<svg width="24" height="24" xmlns="http://www.w3.org/2000/svg">
 <filter id="a" x="-.25" y="-.25" width="1.5" height="1.5" color-interpolation-filters="sRGB">
  <feGaussianBlur in="SourceAlpha" result="blur" stdDeviation="2"/>
  <feColorMatrix result="bluralpha" values="1 0 0 0 0 0 1 0 0 0 0 0 1 0 0 0 0 0 0.351000 0"/>
  <feOffset dx="7.5" dy="7.5" in="bluralpha" result="offsetBlur"/>
  <feMerge>
   <feMergeNode in="offsetBlur"/>
   <feMergeNode in="SourceGraphic"/>
  </feMerge>
 </filter>
 <g transform="translate(0 -8)">
  <path d="m16.944 18.995c-2.1476 0.42736-2.2952-0.2741-2.2952-0.2741 2.2675-3.2459 3.2154-7.3661 2.3974-8.3745-2.2316-2.7507-6.0947-1.4498-6.1592-1.416l-0.02073 0.00358c-0.42431-0.08497-0.89916-0.13559-1.4328-0.14399-0.97177-0.015361-1.7089 0.24576-2.2682 0.65496 0 0-6.8913-2.7388-6.5708 3.4445 0.068186 1.3154 1.9544 9.9532 4.2042 7.3442 0.82229-0.95403 1.6168-1.7607 1.6168-1.7607 0.39462 0.25289 0.86704 0.38189 1.3623 0.33556l0.038446-0.03149c-0.011969 0.11845-0.00596 0.23432 0.015449 0.37147-0.57958 0.62468-0.40927 0.73437-1.5679 0.96444-1.1723 0.23308-0.48364 0.64804-0.033983 0.75649 0.54512 0.13152 1.8063 0.3178 2.6584-0.83297l-0.03401 0.1313c0.22709 0.17546 0.38655 1.1413 0.35983 2.0169-0.026734 0.8756-0.044574 1.4767 0.13436 1.9463 0.17893 0.46954 0.35727 1.526 1.8804 1.2112 1.2727-0.2631 1.9322-0.94492 2.0239-2.0822 0.0651-0.80855 0.21245-0.68902 0.22176-1.4119l0.11818-0.34223c0.13628-1.096 0.02165-1.4496 0.80573-1.2852l0.19054 0.01616c0.5771 0.02529 1.3324-0.08954 1.7757-0.28831 0.95456-0.42736 1.5207-1.1409 0.57949-0.9534h8.6e-5z" fill="#6e97c4" stroke="#415a75" stroke-linecap="round" stroke-linejoin="round" stroke-width="1.1362"/>
  <path d="m8.9801 19.623c-0.059111 2.0394 0.014875 4.0931 0.22171 4.5922 0.20698 0.49911 0.64993 1.4699 2.1731 1.1551 1.2726-0.26319 1.7356-0.77251 1.9365-1.8967 0.14798-0.82713 0.43326-3.1242 0.46985-3.5949" fill="#6e97c4" stroke="#2e4e72" stroke-linecap="round" stroke-linejoin="round" stroke-width="1.1362"/>
  <path d="m7.1544 9.3992s-6.896-2.719-6.5754 3.4642c0.068179 1.3154 1.9545 9.9535 4.2042 7.3444 0.82212-0.95414 1.5656-1.7025 1.5656-1.7025" fill="#6e97c4" stroke="#2e4e72" stroke-linecap="round" stroke-linejoin="round" stroke-width="1.1362"/>
  <path d="m10.879 8.903c-0.2387 0.0722 3.836-1.437 6.1517 1.4175 0.81798 1.0084-0.12992 5.1286-2.3974 8.3746" fill="#6e97c4" stroke="#2e4e72" stroke-linecap="round" stroke-linejoin="round" stroke-width="1.1362"/>
  <path d="m14.634 18.695s0.14776 0.70167 2.2954 0.27402c0.94098-0.18748 0.37469 0.52613-0.57966 0.95369-0.78323 0.35067-2.5392 0.44054-2.5679-0.04403-0.073765-1.2502 0.9242-0.87041 0.85218-1.1837-0.065084-0.28214-0.51144-0.55904-0.80667-1.2495-0.25774-0.6027-3.5349-5.2246 0.90883-4.5381 0.1628-0.032498-1.159-4.0776-5.3177-4.1434-4.1578-0.065776-4.0214 4.9327-4.0214 4.9327" fill="#6e97c4" stroke="#2e4e72" stroke-linecap="round" stroke-linejoin="bevel" stroke-width="1.1362"/>
  <path d="m7.8161 19.123c-0.57966 0.62465-0.40919 0.73433-1.5679 0.96448-1.1723 0.23312-0.48356 0.648-0.034028 0.75641 0.54512 0.1316 1.8063 0.31789 2.6584-0.83317 0.25949-0.35046-0.00147-0.90967-0.358-1.0522-0.17223-0.06884-0.40252-0.15507-0.69852 0.1645v0z" fill="#6e97c4" stroke="#2e4e72" stroke-linecap="round" stroke-linejoin="round" stroke-width="1.1362"/>
  <path d="m7.7782 19.112c-0.058412-0.36726 0.12509-0.8043 0.32175-1.3156 0.29553-0.76715 0.9774-1.5344 0.43194-3.968-0.40658-1.8134-3.1336-0.3774-3.1353-0.13151-0.00168 0.24581 0.12334 1.2463-0.045552 2.4114-0.22039 1.5203 1.0028 2.8062 2.4113 2.6746" fill="#6e97c4" stroke="#2e4e72" stroke-linecap="round" stroke-linejoin="round" stroke-width="1.1362"/>
  <path d="m14.736 12.907c0.03683 0.65875-0.14708 1.1074-0.17026 1.8087-0.03436 1.0193 0.50375 2.186-0.30701 3.3541" fill="#7eb2e5" stroke="#2e4e72" stroke-linecap="round" stroke-linejoin="round" stroke-width="1.1362"/>
  <g transform="matrix(.69231 0 0 .69231 1.8462 9.8462)">
   <rect x="19" y="19" width="13" height="13" rx="2.6149" ry="2.6149" fill="#5a8c5a"/>
   <path d="m21.6 25.5h7.8" fill="#fff" fill-rule="evenodd" stroke="#fff" stroke-linecap="round" stroke-linejoin="round" stroke-width="2.6"/>
   <path d="m25.5 29.4v-7.8" fill="#fff" fill-rule="evenodd" stroke="#fff" stroke-linecap="round" stroke-linejoin="round" stroke-width="2.6"/>
   <path d="m20.3 25.5h10.4v-2.6c0-2.6-0.65-2.6-5.2-2.6s-5.2 0-5.2 2.6v2.6z" fill="#fcffff" fill-rule="evenodd" opacity=".3"/>
  </g>
 </g>
</svg>
