<svg height="24" width="24" xmlns="http://www.w3.org/2000/svg" xmlns:xlink="http://www.w3.org/1999/xlink"><linearGradient id="a" gradientTransform="matrix(.476 0 0 .518 .336 -3.21)" gradientUnits="userSpaceOnUse" x1="16.1" x2="10.9" y1="13" y2="9.09"><stop offset="0" stop-color="#aec7e2"/><stop offset="1" stop-color="#eee"/></linearGradient><linearGradient id="b" gradientTransform="matrix(.719 0 0 2.45 .0312 -52.3)" gradientUnits="userSpaceOnUse" x1="4.53" x2="4.46" y1="22.4" y2="25.1"><stop offset="0" stop-color="#eee"/><stop offset="1" stop-color="#aec7e2"/></linearGradient><path d="m4.5 9h1.5v2h-1.5z" fill="#cfcfcf"/><path d="m1 1v10h2.5v-10z" fill="url(#b)"/><path d="m4.5 1v7h5.5v-7z" fill="url(#a)"/><path d="m7 8.5h15" fill="none" stroke="#5b5b5c"/><path d="m7 13.5h15" fill="none" stroke="#5b5b5c"/><path d="m7 18.5h15" fill="none" stroke="#5b5b5c"/><circle cx="13" cy="8.5" fill="#f7aeae" fill-opacity=".996" fill-rule="evenodd" r="1.5" stroke="#a20404"/><path d="m22.5 7.01v15" fill="none" stroke="#5b5b5c" stroke-linecap="round"/><path d="m6.5 7.01v15" fill="none" stroke="#5b5b5c" stroke-linecap="round"/><g fill-rule="evenodd"><circle cx="15" cy="13.5" fill="#c5f7c5" r="1.5" stroke="#619361"/><circle cx="11" cy="13.5" fill="#c5f7c5" r="1.5" stroke="#619361"/><circle cx="11" cy="18.5" fill="#c2e0f4" r="1.5" stroke="#3f5e71"/><circle cx="15" cy="18.5" fill="#c2e0f4" r="1.5" stroke="#3f5e71"/><circle cx="19" cy="18.5" fill="#c2e0f4" r="1.5" stroke="#3f5e71"/></g><path d="m5 22h19v2h-19z" fill="#5b5b5c"/><circle cx="19" cy="8.5" fill="#f7aeae" fill-opacity=".996" fill-rule="evenodd" r="1.5" stroke="#a20404"/><path d="m10.5 8v-7.5h-10v11h5.5" fill="none" stroke="#2b3b4d"/><path d="m4 11v-10" stroke="#2b3b4d"/><path d="m1 8.5h5" stroke="#2b3b4d"/><path d="m4 8.5 6.5-8" stroke="#2b3b4d"/></svg>