<svg xmlns="http://www.w3.org/2000/svg" viewBox="0 0 16 16"><defs><linearGradient gradientTransform="matrix(0 -.6892 .7 0 -8.25 11.115)" y2="16.23" y1="22.23" x2="7.883" x1="11.883" gradientUnits="userSpaceOnUse" id="a"><stop stop-color="#edd400" offset="0"/><stop stop-color="#fff17a" offset="1"/></linearGradient></defs><path d="M4 10.77L.5 8.014V2.5h7v5.514z" fill="url(#a)" fill-rule="evenodd" stroke="#c4a000" stroke-linecap="round" stroke-linejoin="round"/><path d="M3.34 7.743q-.519 0-.834-.29-.315-.298-.315-.781 0-.947 1.113-1.125l.392-.066q.014 0 .14-.014l.161-.026q.035-.013.133-.033.105-.02.147-.046.042-.027.098-.067.063-.046.084-.099.021-.06.021-.132 0-.357-.567-.357-.364 0-.51.105-.148.106-.183.384h-.945Q2.366 3.96 3.892 3.96q1.547 0 1.547 1.098v1.985q0 .245.224.437v.112H4.6q-.112-.132-.112-.357-.259.251-.546.377-.287.132-.602.132zm1.14-1.588v-.251q-.133.06-.413.113l-.336.06q-.308.059-.434.171-.126.113-.126.318 0 .198.14.317.147.113.392.113.371 0 .574-.219.203-.218.203-.622z" font-size="8" aria-label="a" font-weight="700" font-family="FreeSans" letter-spacing="0" word-spacing="0" fill="#2e3436"/><path stroke-width="1.8" stroke-linejoin="round" stroke-linecap="round" stroke="#8cbe8c" fill="none" d="M3 14c3.306-3.346 6.549.069 10.684-3.24"/><path d="M2.5 12.5h2v2h-2z" fill="#7c96a8" stroke="#517083"/></svg>