<?xml version="1.0" encoding="UTF-8"?>
<svg width="24" height="24" xmlns="http://www.w3.org/2000/svg">
 <g transform="translate(0 -8)">
  <g transform="matrix(.69231 0 0 .69231 1.8462 9.8462)">
   <rect x="19" y="19" width="13" height="13" rx="2.6149" ry="2.6149" fill="#5a8c5a"/>
   <path d="m21.6 25.5h7.8" fill="#fff" fill-rule="evenodd" stroke="#fff" stroke-linecap="round" stroke-linejoin="round" stroke-width="2.6"/>
   <path d="m25.5 29.4v-7.8" fill="#fff" fill-rule="evenodd" stroke="#fff" stroke-linecap="round" stroke-linejoin="round" stroke-width="2.6"/>
   <path d="m20.3 25.5h10.4v-2.6c0-2.6-0.65-2.6-5.2-2.6s-5.2 0-5.2 2.6v2.6z" fill="#fcffff" fill-rule="evenodd" opacity=".3"/>
  </g>
  <circle transform="matrix(.29412 0 0 .29412 .47059 5.6176)" cx="12" cy="20" r="8.5" fill="#2a7fff" stroke="#333" stroke-linejoin="round" stroke-miterlimit=".4" stroke-opacity=".97255" stroke-width="1.0017"/>
  <circle transform="matrix(.29412 0 0 .29412 15.971 5.1176)" cx="12" cy="20" r="8.5" fill="#2a7fff" stroke="#333" stroke-linejoin="round" stroke-miterlimit=".4" stroke-opacity=".97255" stroke-width="1.0017"/>
  <circle transform="matrix(.29412 0 0 .29412 -.029412 18.118)" cx="12" cy="20" r="8.5" fill="#2a7fff" stroke="#333" stroke-linejoin="round" stroke-miterlimit=".4" stroke-opacity=".97255" stroke-width="1.0017"/>
  <circle transform="matrix(.29412 0 0 .29412 7.4706 22.618)" cx="12" cy="20" r="8.5" fill="#2a7fff" stroke="#333" stroke-linejoin="round" stroke-miterlimit=".4" stroke-opacity=".97255" stroke-width="1.0017"/>
  <path transform="translate(0 8)" d="m3.5999 13.502 0.30016-7.5039" fill="none" stroke="#000"/>
  <path transform="translate(0 8)" d="m6.4987 3.4194 10.503-0.33879" fill="none" stroke="#000"/>
  <path transform="translate(0 8)" d="m18.407 5.2493-6.315 13.001" fill="none" stroke="#000"/>
  <path transform="translate(0 8)" d="m8.8559 19.214-3.2119-1.9271" fill="none" stroke="#000"/>
 </g>
</svg>
