<svg height="32" width="32" xmlns="http://www.w3.org/2000/svg"><path d="m1.5 27v-22.5h9v3h16v19.5z" fill="#fcd94f" stroke="#b29a37" stroke-linejoin="round"/><path d="m3.5.5h18v17h-18z" fill="#fff" stroke="#999"/><g stroke-width=".663"><path d="m12.5 1.829c-3.843 0-3.603 1.684-3.603 1.684l.006 1.353h3.663v.76h-5.104s-2.462-.132-2.462 3.778c0 3.914 2.147 3.762 2.147 3.762h1.28v-1.805s-.068-2.17 2.117-2.17h3.633s2.041.035 2.041-1.987v-3.354s.31-2.018-3.708-2.018zm-2.027 1.166a.66.66 0 0 1 .658.665.66.663 0 1 1 -1.314 0 .66.66 0 0 1 .658-.665z" fill="#366c99"/><path d="m12.5 17c3.843 0 3.603-1.684 3.603-1.684l-.006-1.745h-3.663v-.525h5.104s2.462.281 2.462-3.626c0-3.914-2.147-3.762-2.147-3.762h-1.28v1.805s.068 2.17-2.117 2.17h-3.633s-2.041-.033-2.041 1.987v3.353s-.31 2.018 3.708 2.018zm2.027-1.167a.66.663 0 0 1 -.658-.664.66.663 0 1 1 1.314 0 .66.663 0 0 1 -.658.664z" fill="#ffcb3a"/></g><path d="m1.5 27 4-16h25l-4 16z" fill="#fcd94f" stroke="#b29a37" stroke-linecap="round" stroke-linejoin="round"/></svg>