<svg height="24" viewBox="0 0 24 24" width="24" xmlns="http://www.w3.org/2000/svg"><g transform="matrix(.92190879 -.387407 .387407 .92190879 -4.88641 3.0384)"><path d="m2.040877 7.940877h18.018248v12.018247h-18.018248z" fill="none" stroke="#bebebe" stroke-width=".081753"/><ellipse cx="11" cy="14" fill="none" rx="7.724184" ry="4.724184" stroke="#8cbe8c" stroke-width="2.551632"/><g fill="#bebebe" stroke="#8c8c8c"><path d="m18.5 6.5000001h3v2.9999999h-3z"/><path d="m.49999997 18.5h3.00000003v3h-3.00000003z"/></g></g><g transform="translate(33)"><rect fill="#c4a000" height="11" rx="2.01149" width="11" x="-20" y="13"/><g fill="#fcffff"><path d="m-15 14v2.0625c-.537663.111041-1.024662.383291-1.375.78125l-1.78125-1.03125-.5.875 1.78125 1.03125c-.082063.247432-.125.506395-.125.78125s.04294.533818.125.78125l-1.78125 1.03125.5.875 1.78125-1.03125c.352503.40042.832682.670182 1.375.78125v2.0625h1v-2.0625c.537663-.111041 1.024662-.383291 1.375-.78125l1.78125 1.03125.5-.875-1.78125-1.03125c.082063-.247432.125-.506395.125-.78125s-.04294-.533818-.125-.78125l1.78125-1.03125-.5-.875-1.78125 1.03125c-.352503-.40042-.832682-.670182-1.375-.78125v-2.0625zm.5 3.5c.552 0 1 .448 1 1s-.448 1-1 1-1-.448-1-1 .448-1 1-1z"/><path d="m-19 19 9-.0096s0 0 0-2c0-2.9904-1-2.9904-4.5-2.9904s-4.5 0-4.5 3z" fill-rule="evenodd" opacity=".3"/></g></g></svg>