<?xml version="1.0" encoding="UTF-8"?>
<svg width="24" height="24" xmlns="http://www.w3.org/2000/svg">
 <g transform="translate(0 -8)">
  <path transform="matrix(1.342 0 0 1.317 -1.6041 8.2791)" d="m17.961 7c0 3.3547-2.6689 6.0742-5.9612 6.0742s-5.9612-2.7195-5.9612-6.0742c0-3.3547 2.6689-6.0742 5.9612-6.0742s5.9612 2.7195 5.9612 6.0742z" fill="#e6e6e6" opacity=".8" stroke="#505050" stroke-dashoffset="7" stroke-linecap="round" stroke-linejoin="round" stroke-width=".75218"/>
  <path d="m10 13c2-3 4.4422-3.3981 6-2s-2 1-4 3 0 6-2 6c-2 0-2-4 0-7z" fill="#fcffff" fill-rule="evenodd" opacity=".7"/>
  <path d="m14.5 13.2v8.6" fill="none" stroke="#000" stroke-linecap="round" stroke-linejoin="round" stroke-width="2.9"/>
  <path d="m2 29 4-4" opacity=".5" overflow="visible" stroke="#fcffff" stroke-linecap="round" stroke-linejoin="round"/>
  <path d="m10.2 17.5h8.6" fill="none" stroke="#000" stroke-linecap="round" stroke-linejoin="round" stroke-width="2.9"/>
  <path d="m10.2 17.5h8.6" fill="none" stroke="#6d97c4" stroke-linecap="round" stroke-linejoin="round" stroke-width="2.5"/>
  <g transform="translate(8.736 4.9064)" stroke-linejoin="round">
   <path d="m-1.236 17.594c0 2 2 2 2 2l-7 7-2-2z" fill="#ffcc30" fill-rule="evenodd" stroke="#505050"/>
   <path d="m-2.736 19.094 2-2 2 2-2 2z" fill-rule="evenodd" stroke="#505050"/>
   <path d="m-6.736 24.094 4-4" opacity=".5" overflow="visible" stroke="#fcffff" stroke-linecap="round"/>
  </g>
  <path d="m14.5 13.2v8.6" fill="none" stroke="#6d97c4" stroke-linecap="round" stroke-linejoin="round" stroke-width="2.5"/>
 </g>
</svg>
