<svg height="24" width="24" xmlns="http://www.w3.org/2000/svg" xmlns:xlink="http://www.w3.org/1999/xlink"><linearGradient id="a" gradientTransform="matrix(.78185227 0 0 .7818667 -.53814 -.510535)" gradientUnits="userSpaceOnUse" x1="33.051174" x2="4.623781" y1="35.070534" y2="4.728284"><stop offset="0" stop-color="#6e97c4"/><stop offset="1" stop-color="#ecedef"/></linearGradient><path d="m2.7635417 1.2486651h18.4159093c.857905 0 1.542514.6887606 1.542514 1.5518652v18.3717417c0 .863104-.684609 1.577728-1.542514 1.577728h-18.4159093c-.8579045 0-1.5425144-.714624-1.5425144-1.577728v-18.3717417c0-.8631046.6846099-1.5518652 1.5425144-1.5518652z" fill="url(#a)" stroke="#2e4e72" stroke-width=".5"/><path d="m2.1983425 2.2259985 6.2548183 15.6373285 7.0366702-15.6373285h6.254818" fill="none" stroke="#415a75" stroke-linecap="round" stroke-linejoin="round" stroke-width="1.5"/><g fill-rule="evenodd"><ellipse cx="8.45316" cy="17.863331" fill="#eeeeec" rx="1.954631" ry="1.954667" stroke="#415a75" stroke-linecap="round" stroke-linejoin="round"/><path d="m4.2027216 1.2809209-.3747537 2.1209437-1.1160558.8094621-1.392589.21717.0427447-1.9977873.4753573-.8473854.8816713-.223225z" fill="#eeeeec"/><path d="m2.6595133 1.100538c-.037307 0-.071813.00812-.108421.01069.4784828.1473855.8200286.5820943.8200286 1.1147709 0 .6569806-.51581 1.1728-1.1727784 1.1728-.4927263 0-.9052881-.29091-1.0811551-.713148v2.049346c.3325298.1448605.6976374.2275353 1.0811551.2275353 1.502057 0 2.7364829-1.2344486 2.7364829-2.7365333 0-.4014789-.094052-.7806817-.2519641-1.1254605z" fill="#415a75"/><path d="m13.692203 1.2803045.173445 1.867702 2.054968 1.0510556 1.520779-.3924665.54384-2.5750941z" fill="#eeeeec"/><path d="m12.942698 1.248665c-.118404.3049135-.189349.6325171-.189349.9773335 0 1.5020847 1.234427 2.7365333 2.736482 2.7365333 1.502056 0 2.736483-1.2344486 2.736483-2.7365333 0-.3448164-.07248-.67242-.190889-.9773335h-1.89202c.314719.2083397.519204.5642488.519204.9773335 0 .6569806-.515811 1.1728-1.172778 1.1728-.656975 0-1.172778-.5158194-1.172778-1.1728 0-.4130993.204462-.7689969.519197-.9773335z" fill="#415a75"/><path d="m20.26938 1.2949286.385788 2.1281282 2.034692.8411757-.037451-2.0789023-.469791-.565104-.750334-.2909692z" fill="#eeeeec"/><path d="m19.9809 1.248665c-.118351.3048523-.190881.6326004-.190881.9773335 0 1.5020848 1.234426 2.7365333 2.736482 2.7365333.06675 0 .129856-.015061.195464-.019852v-1.5637337c-.06362.010317-.128513.019852-.195464.019852-.656968 0-1.172778-.5158194-1.172778-1.1728 0-.3496134.149137-.6572339.384818-.8704376-.173331-.0671213-.360793-.1068955-.558902-.1068955z" fill="#415a75"/></g><path d="m2.7635417 1.248665h18.4159093c.857905 0 1.542514.6887605 1.542514 1.5518652v18.3717408c0 .863103-.684609 1.577728-1.542514 1.577728h-18.4159093c-.8579045 0-1.5425144-.714625-1.5425144-1.577728v-18.3717408c0-.8631047.6846099-1.5518652 1.5425144-1.5518652z" fill="none" stroke="#2e4e72" stroke-width=".5"/><g transform="matrix(.692 0 0 .692 1.86 1.82)"><rect fill="#c4a000" height="13" rx="2.61" width="13" x="19" y="19"/><path d="m20.3 25.5h10.4v-2.6c0-2.6-.65-2.6-5.2-2.6s-5.2 0-5.2 2.6z" fill="#fcffff" fill-rule="evenodd" opacity=".3"/><path d="m-6.46-5.81v.76c0 1.04-.16 1.76-.64 2.68-.72 1.56-.8 1.76-.8 2.36 0 1.16.88 2.12 1.92 2.12 1.08 0 1.92-.96 1.92-2.16 0-.4-.12-.92-.4-1.44-.92-1.96-1-2.28-1-3.56v-.76l.64.4c.84.48 1.48 1.04 2.04 1.84 1.32 1.8 1.76 2.16 2.84 2.16 1 0 1.8-.76 1.8-1.76 0-1.24-1.04-2.16-2.6-2.28-1.96-.12-2.32-.2-3.56-.88l-.64-.36.64-.36c.92-.52 1.6-.76 2.64-.8 1.6-.16 1.72-.16 2.2-.36.8-.4 1.32-1.12 1.32-1.96 0-1.04-.84-1.84-1.88-1.84-.88 0-1.6.44-2.24 1.4-1.12 1.68-1.36 1.92-2.56 2.64l-.64.4v-.76c0-1 .16-1.76.64-2.68.76-1.6.8-1.76.8-2.32 0-1.2-.88-2.16-1.96-2.16-1.04 0-1.92.96-1.92 2.12 0 .44.12.96.4 1.48.96 2 1.04 2.28 1.04 3.56v.76l-.64-.4c-.92-.52-1.44-1.04-2.04-1.88-.8-1.2-.8-1.2-1.12-1.52-.44-.4-1.08-.64-1.6-.64-1.08 0-1.92.84-1.92 1.84 0 1.24 1 2.12 2.56 2.24 2.04.12 2.36.2 3.6.88l.64.36-.64.4c-.84.48-1.64.72-2.64.8-1.56.08-1.68.12-2.2.32-.8.36-1.32 1.12-1.32 1.96 0 1 .84 1.84 1.88 1.84.88 0 1.64-.48 2.24-1.4 1.08-1.6 1.4-1.96 2.56-2.64z" fill="#fff" stroke="#fff" stroke-width=".497" transform="matrix(.603 0 0 .604 29.1 29.5)"/></g></svg>