<?xml version="1.0" encoding="UTF-8"?>
<svg id="svg19181" width="32" height="32" version="1.1" xmlns="http://www.w3.org/2000/svg" xmlns:cc="http://creativecommons.org/ns#" xmlns:dc="http://purl.org/dc/elements/1.1/" xmlns:rdf="http://www.w3.org/1999/02/22-rdf-syntax-ns#">
 <metadata id="metadata19205">
  <rdf:RDF>
   <cc:Work rdf:about="">
    <dc:format>image/svg+xml</dc:format>
    <dc:type rdf:resource="http://purl.org/dc/dcmitype/StillImage"/>
   </cc:Work>
  </rdf:RDF>
 </metadata>
 <path id="path19183" d="m25.166 10.851c-2.5073 0.01658-4.9235 0.79212-7.3846 1.1022-1.0272 0.12943-2.0858 0.16118-3.1147 0.04082-1.368-0.16002-2.6924-0.58512-4.0594-0.77563-1.2217-0.17026-2.4588-0.348-3.6882-0.35516-2.1484-0.01251-4.2264 0.6531-6.3326 1.0124 0 0.60969-0.12513 1.3922 0.18977 1.8207 0.3248 0.44196 0.87273 0.84617 1.0149 1.4451 0.33706 1.4204 0.81558 2.8128 1.4274 4.1476 0.29733 0.64867 0.85853 1.1009 1.4852 1.4125 1.509 0.75019 3.295 0.86051 4.9506 0.62458 2.3575-0.33596 3.6365-2.0864 4.6123-4.0864 0.36525-0.813 0.40599-1.7513 0.88697-2.4943 0.28569-0.44132 0.94912-0.25556 1.4233-0.25718 0.47415-0.0016 0.87598 0.77874 1.0231 1.2982 0.52076 1.8383 1.3891 3.7886 3.1147 4.7518 2.577 1.4384 6.6367 1.1693 8.3087-1.4247 0.65433-1.0152 0.83508-2.247 1.1634-3.3965 0.19986-0.69975 0.37837-1.534 1.0891-1.9187 0.28684-0.15526 0.08555-0.77478 0.12789-1.1349 0.04613-0.39239 0.13507-0.73938-0.42905-0.81646-0.984-0.13444-1.9385-0.54334-2.9456-0.68174-0.95436-0.13115-1.8894-0.32077-2.8631-0.31434zm-16.576 0.65316c0.71172-0.0045 1.4204 0.04707 2.1122 0.19187 4.1218 0.86271 4.2051 2.5431 2.5083 6.0173-1.3827 2.8309-4.2468 3.5402-7.1329 2.8617-1.3304-0.31278-2.2401-1.2317-2.6692-2.4902-0.45283-1.3282-0.79537-2.7394-0.71783-4.1353 0.10384-1.8694 2.2407-2.1321 3.7707-2.3024 0.70208-0.078141 1.417-0.1384 2.1287-0.14288zm15.05 0c0.71172 0.0045 1.4267 0.06474 2.1287 0.14288 1.53 0.17028 3.6668 0.43301 3.7707 2.3024 0.07755 1.396-0.26499 2.8072-0.71782 4.1353-0.42905 1.2584-1.3388 2.1774-2.6692 2.4902-2.8861 0.67856-5.7502-0.03076-7.1329-2.8617-1.6968-3.4742-1.6135-5.1546 2.5083-6.0173 0.6918-0.1448 1.4005-0.19634 2.1122-0.19187z" stroke="#000" stroke-width="1.1237"/>
</svg>
