<?xml version="1.0" encoding="UTF-8"?>
<svg width="24" height="24" xmlns="http://www.w3.org/2000/svg">
 <linearGradient id="a" x1="3.5" x2="11.5" y1="19.5" y2="19.5" gradientUnits="userSpaceOnUse">
  <stop stop-color="#b7b7b7" offset="0"/>
  <stop stop-color="#e6e6e6" offset="1"/>
 </linearGradient>
 <g transform="translate(0 -8)">
  <path d="m21.5 29.5h-17c-1 0-1.9778-1.4206-2-2.5v-16.5h19z" fill="url(#a)" fill-rule="evenodd" stroke="#9a9a9a"/>
  <path d="m6.5 10c-1-1-3-1-4 0v16c1-1 3-1 4 0z" fill="#e6e6e6" fill-rule="evenodd" stroke="#9a9a9a"/>
  <g transform="matrix(.69231 0 0 .69231 1.8462 9.8462)">
   <rect x="19" y="19" width="13" height="13" rx="2.6149" ry="2.6149" fill="#5a8c5a"/>
   <path d="m21.6 25.5h7.8" fill="#fff" fill-rule="evenodd" stroke="#fff" stroke-linecap="round" stroke-linejoin="round" stroke-width="2.6"/>
   <path d="m25.5 29.4v-7.8" fill="#fff" fill-rule="evenodd" stroke="#fff" stroke-linecap="round" stroke-linejoin="round" stroke-width="2.6"/>
   <path d="m20.3 25.5h10.4v-2.6c0-2.6-0.65-2.6-5.2-2.6s-5.2 0-5.2 2.6v2.6z" fill="#fcffff" fill-rule="evenodd" opacity=".3"/>
  </g>
 </g>
</svg>
