<svg height="24" width="24" xmlns="http://www.w3.org/2000/svg">
<g transform="translate(0 -8)">
<path d="m6.50005 27.492879v-3.05208" fill="#2e4e72" fill-rule="evenodd" stroke="#2e4e72" stroke-linecap="round"/>
<path d="m9.5000496 27.492879v-3.05208" fill="#2e4e72" fill-rule="evenodd" overflow="visible" stroke="#2e4e72" stroke-linecap="round"/>
<path d="m12.50005 27.492879v-3.05208" fill="#2e4e72" fill-rule="evenodd" stroke="#2e4e72" stroke-linecap="round"/>
<path d="m15.50005 27.492879v-3.05208" fill="#2e4e72" fill-rule="evenodd" stroke="#2e4e72" stroke-linecap="round"/>
<path d="m18.50005 27.492879v-3.05208" fill="#2e4e72" fill-rule="evenodd" stroke="#2e4e72" stroke-linecap="round"/>
<rect fill="#aec7e2" fill-rule="evenodd" height="10" overflow="visible" rx="1" stroke="#2e4e72" stroke-width=".99999994" width="18" x="3.5" y="14.5"/>
<rect fill="#6e96c4" fill-rule="evenodd" height="8" overflow="visible" rx=".49999994" ry=".5" width="16" x="5" y="16"/>
<path d="m6.50005 14.025879v-3.05208" fill="#2e4e72" fill-rule="evenodd" stroke="#2e4e72" stroke-linecap="round"/>
<path d="m9.5000496 14.025879v-3.05208" fill="#2e4e72" fill-rule="evenodd" overflow="visible" stroke="#2e4e72" stroke-linecap="round"/>
<path d="m12.50005 14.025879v-3.05208" fill="#2e4e72" fill-rule="evenodd" stroke="#2e4e72" stroke-linecap="round"/>
<path d="m15.50005 14.025879v-3.05208" fill="#2e4e72" fill-rule="evenodd" stroke="#2e4e72" stroke-linecap="round"/>
<path d="m18.50005 14.025879v-3.05208" fill="#2e4e72" fill-rule="evenodd" stroke="#2e4e72" stroke-linecap="round"/>
<g transform="matrix(.69230769 0 0 .69230769 1.8461544 9.8461539)">
<rect fill="#c4a000" height="13" rx="2.6149371" ry="2.6149368" width="13" x="19" y="19"/>
<path d="m20.3 25.499999h10.4c0 0 0 0 0-2.6 0-2.599999-.65-2.599999-5.2-2.599999-4.55 0-5.2 0-5.2 2.599999 0 2.6 0 2.6 0 2.6z" fill="#fcffff" fill-rule="evenodd" opacity=".3"/>
<path d="m-6.4566626-5.8131979v.76c0 1.039999-.1600005 1.7600009-.64 2.68-.7199993 1.55999844-.8 1.7600006-.8 2.36 0 1.1599988.880001 2.12 1.92 2.12 1.0799989 0 1.92-.9600012 1.92-2.16 0-.3999996-.1200003-.92000052-.4-1.44-.9199991-1.959998-1-2.2800013-1-3.56v-.76l.64.4c.8399992.4799995 1.4800006 1.0400008 2.04 1.84 1.3199987 1.7999982 1.7600011 2.16 2.84 2.16.999999 0 1.8-.760001 1.8-1.76 0-1.2399988-1.04000156-2.1600001-2.6-2.28-1.959998-.1199999-2.3200012-.2000007-3.56-.88l-.64-.36.64-.36c.9199991-.5199995 1.600001-.76 2.64-.8 1.5999984-.1599998 1.72000048-.1600002 2.2-.36.7999992-.3999996 1.32-1.1200008 1.32-1.9600001 0-1.039999-.840001-1.84-1.88-1.84-.87999912 0-1.6000006.440001-2.24 1.4-1.1199989 1.6799984-1.3600012 1.9200008-2.56 2.6400001l-.64.4v-.76c0-.999999.1600005-1.7600011.64-2.6800001.7599992-1.599998.8-1.76.8-2.32 0-1.199999-.8800011-2.16-1.96-2.16-1.039999 0-1.92.960001-1.92 2.12 0 .44.1200003.960001.4 1.48.959999 1.9999981 1.04 2.2800014 1.04 3.5600001v.76l-.64-.4c-.9199991-.5199995-1.4400006-1.0400008-2.04-1.88-.7999992-1.1999991-.8000003-1.2000001-1.1200004-1.5200001-.439999-.399999-1.08-.64-1.6-.64-1.079999 0-1.92.840001-1.92 1.84 0 1.2399989 1.000002 2.1200002 2.56 2.2400001 2.0399984.1199999 2.3600016.2000007 3.6000004.88l.64.36-.64.4c-.8399992.4799995-1.640001.7200001-2.6400004.8-1.559998.08-1.68.1200002-2.2.32-.799999.3599996-1.32 1.1200008-1.32 1.96 0 .999999.840001 1.84 1.88 1.84.88 0 1.640001-.4800009 2.2400004-1.4 1.0799989-1.5999984 1.4000012-1.9600007 2.56-2.64z" fill="#fff" stroke="#fff" stroke-width=".49735793" transform="matrix(.60271547 0 0 .60365952 29.090173 29.540413)"/>
</g>
</g>
</svg>
