<?xml version="1.0" encoding="UTF-8" standalone="no"?>
<svg
   xmlns:dc="http://purl.org/dc/elements/1.1/"
   xmlns:cc="http://creativecommons.org/ns#"
   xmlns:rdf="http://www.w3.org/1999/02/22-rdf-syntax-ns#"
   xmlns:svg="http://www.w3.org/2000/svg"
   xmlns="http://www.w3.org/2000/svg"
   xmlns:xlink="http://www.w3.org/1999/xlink"
   width="24"
   height="24"
   id="svg3495"
   version="1.1">
  <defs
     id="defs3497">
    <linearGradient
       id="linearGradient3952">
      <stop
         style="stop-color:#000000;stop-opacity:1;"
         offset="0"
         id="stop3954" />
      <stop
         style="stop-color:#000000;stop-opacity:0;"
         offset="1"
         id="stop3956" />
    </linearGradient>
    <linearGradient
       id="linearGradient2867-449-88-871-390-598-476-591-434-148-57-177">
      <stop
         id="stop3750"
         style="stop-color:#90dbec;stop-opacity:1"
         offset="0" />
      <stop
         id="stop3752"
         style="stop-color:#55c1ec;stop-opacity:1"
         offset="0.26238" />
      <stop
         id="stop3754"
         style="stop-color:#3689e6;stop-opacity:1"
         offset="0.704952" />
      <stop
         id="stop3756"
         style="stop-color:#2b63a0;stop-opacity:1"
         offset="1" />
    </linearGradient>
    <linearGradient
       gradientTransform="matrix(0,-0.44324004,-0.45870569,0,32.384791,24.993361)"
       gradientUnits="userSpaceOnUse"
       xlink:href="#linearGradient4297"
       id="linearGradient4125"
       y2="60.880592"
       x2="27.058388"
       y1="60.880592"
       x1="34.256763" />
    <linearGradient
       id="linearGradient4297">
      <stop
         offset="0"
         style="stop-color:#ffffff;stop-opacity:1"
         id="stop4299" />
      <stop
         offset="0.37316024"
         style="stop-color:#ffffff;stop-opacity:0.23529412"
         id="stop4301" />
      <stop
         offset="0.68658012"
         style="stop-color:#ffffff;stop-opacity:0.15686275"
         id="stop4303" />
      <stop
         offset="1"
         style="stop-color:#ffffff;stop-opacity:0.39215687"
         id="stop4305" />
    </linearGradient>
    <linearGradient
       gradientTransform="matrix(-0.40682978,0,0,0.37867213,16.451677,4.4580964)"
       gradientUnits="userSpaceOnUse"
       xlink:href="#linearGradient2867-449-88-871-390-598-476-591-434-148-57-177"
       id="linearGradient4129"
       y2="39.735077"
       x2="23.731871"
       y1="5.3943448"
       x1="23.731871" />
    <radialGradient
       gradientTransform="matrix(0.35132358,0,0,-0.1598281,-2.9045921,20.593033)"
       gradientUnits="userSpaceOnUse"
       xlink:href="#linearGradient3952"
       id="radialGradient4132"
       fy="36.421127"
       fx="24.837126"
       r="15.644737"
       cy="36.421127"
       cx="24.837126" />
  </defs>
  <metadata
     id="metadata3500">
    <rdf:RDF>
      <cc:Work
         rdf:about="">
        <dc:format>image/svg+xml</dc:format>
        <dc:type
           rdf:resource="http://purl.org/dc/dcmitype/StillImage" />
        <dc:title />
      </cc:Work>
    </rdf:RDF>
  </metadata>
  <path
     style="color:#000000;clip-rule:nonzero;display:inline;overflow:visible;visibility:visible;opacity:0.4;isolation:auto;mix-blend-mode:normal;color-interpolation:sRGB;color-interpolation-filters:linearRGB;solid-color:#000000;solid-opacity:1;fill:#4d4d4d;fill-opacity:1;fill-rule:nonzero;stroke:none;stroke-width:1;stroke-linecap:butt;stroke-linejoin:miter;stroke-miterlimit:4;stroke-dasharray:none;stroke-dashoffset:0;stroke-opacity:1;marker:none;color-rendering:auto;image-rendering:auto;shape-rendering:auto;text-rendering:auto;enable-background:accumulate"
     d="M 14 3 L 14 4 L 16 4 L 16 3 L 14 3 z M 4 5 L 4 6 L 12 6 L 12 5 L 4 5 z M 14 5 L 14 6 L 23 6 L 23 5 L 14 5 z M 4 16 L 4 17 L 12 17 L 12 16 L 4 16 z M 14 16 L 14 17 L 23 17 L 23 16 L 14 16 z M 4 18 L 4 19 L 12 19 L 12 18 L 4 18 z M 14 18 L 14 19 L 17 19 L 17 18 L 14 18 z M 14 20 L 14 21 L 16 21 L 16 20 L 14 20 z "
     id="rect4370-8" />
  <path
     style="color:#000000;clip-rule:nonzero;display:inline;overflow:visible;visibility:visible;opacity:1;isolation:auto;mix-blend-mode:normal;color-interpolation:sRGB;color-interpolation-filters:linearRGB;solid-color:#000000;solid-opacity:1;fill:#4d4d4d;fill-opacity:1;fill-rule:nonzero;stroke:none;stroke-width:1;stroke-linecap:butt;stroke-linejoin:miter;stroke-miterlimit:4;stroke-dasharray:none;stroke-dashoffset:0;stroke-opacity:1;marker:none;color-rendering:auto;image-rendering:auto;shape-rendering:auto;text-rendering:auto;enable-background:accumulate"
     d="M 14 8 L 14 10 L 23 10 L 23 8 L 14 8 z M 14 12 L 14 14 L 21 14 L 21 12 L 14 12 z "
     id="rect4370" />
  <path
     d="m 11.31764,14.771911 a 5.4963653,2.50047 0 1 0 -10.9927301,0 5.4963653,2.50047 0 0 0 10.9927301,0 z"
     id="path3501-4"
     style="display:inline;overflow:visible;visibility:visible;opacity:0.2;fill:url(#radialGradient4132);fill-opacity:1;fill-rule:evenodd;stroke:none;stroke-width:1;marker:none" />
  <path
     d="m 6.5000039,16.5 -6,-5 6,-5 0,3 5.0000001,0 0,4 -5.0000001,0 z"
     id="path3288-2-2"
     style="color:#000000;display:block;overflow:visible;visibility:visible;fill:url(#linearGradient4129);fill-opacity:1;fill-rule:nonzero;stroke:none;stroke-width:0.96392483;marker:none;enable-background:accumulate" />
  <path
     d="m 6.4997695,16.5 -5.9997976,-5 5.9997975,-5.0000593 0,3.0000593 5.0002346,0 4.69e-4,4 -5.0002346,0 z"
     id="path3288-2-2-80"
     style="color:#000000;display:block;overflow:visible;visibility:visible;opacity:0.5;fill:none;stroke:#004372;stroke-width:1;stroke-linecap:butt;stroke-linejoin:round;stroke-miterlimit:7;stroke-dasharray:none;stroke-dashoffset:0;stroke-opacity:1;marker:none;enable-background:accumulate" />
  <path
     d="M 5.5000039,14.344173 2.0449419,11.5 l 3.455062,-2.8330289 0,1.8330289 5.0000001,0 0,2 -5.0000001,0 z"
     id="path3288-2-2-8"
     style="color:#000000;display:block;overflow:visible;visibility:visible;opacity:0.40100002;fill:none;stroke:url(#linearGradient4125);stroke-width:1;stroke-linecap:butt;stroke-linejoin:miter;stroke-miterlimit:7;stroke-dasharray:none;stroke-dashoffset:0;stroke-opacity:1;marker:none;enable-background:accumulate" />
</svg>
