<?xml version="1.0" encoding="UTF-8"?>
<svg id="svg14" width="24" height="24" version="1.1" xmlns="http://www.w3.org/2000/svg" xmlns:cc="http://creativecommons.org/ns#" xmlns:dc="http://purl.org/dc/elements/1.1/" xmlns:rdf="http://www.w3.org/1999/02/22-rdf-syntax-ns#">
 <metadata id="metadata20">
  <rdf:RDF>
   <cc:Work rdf:about="">
    <dc:format>image/svg+xml</dc:format>
    <dc:type rdf:resource="http://purl.org/dc/dcmitype/StillImage"/>
    <dc:title/>
   </cc:Work>
  </rdf:RDF>
 </metadata>
 <path id="path2-9" d="m0.87924 0.79022 4.23 10.859 0.733 2.9484 0.08775 2.2286 16.162 5.0508-3.2199-11.048 4.0406-9.7228-10.83 4.0172z" fill="#e5e5e5"/>
 <path id="path8-0" d="m0.87924 0.79024 4.23 10.859 0.82075 5.177 16.162 5.0508-3.2199-11.049 4.0406-9.7227-10.696 4.1065z" fill="none" stroke="#424242" stroke-dasharray="4, 1"/>
 <g id="g921" transform="matrix(1.1228 0 0 1.1226 -41.279 -28.832)">
  <circle id="circle2" cx="43.444" cy="32.366" r="6.1276" fill="#6d97c4" stroke="#445e75" stroke-miterlimit="10" stroke-width=".21367"/>
  <path id="path4-2" d="m38.482 33.476c0.15641-1.7989 0.50768-2.8781 1.6247-3.9952 1.2064-1.2064 2.3236-1.7662 4.4347-2.2465 1.0371-0.23589-0.75938-1.0179-3.2454-0.08782-1.3354 0.49956-2.6909 1.8034-3.1666 3.7033-0.57626 2.3004 0.28097 3.4499 0.35255 2.6262z" fill="#fff" opacity=".3" stroke-width=".37312"/>
  <path id="path6-6" d="m44.913 34.945-0.1517-0.15128c-0.13824-0.13803-0.40298-0.11068-0.51238 0.05299-0.06859 0.10277-0.38567 0.43097-0.58545 0.58524 0.02479-0.10235 0.07222-0.25875 0.16153-0.51259l0.80126-2.2747c0.18824-0.53866 0.30191-0.86386 0.30191-1.1412 0-0.43887-0.32349-0.72263-0.82369-0.72263-1.2634 0-2.2523 1.141-2.6183 1.6311-0.0047 0.0062-9e-3 0.01218-0.01282 0.01752-0.06303 0.07158-0.08803 0.16709-0.06837 0.26495 0.01517 0.07564 0.05662 0.14893 0.12008 0.21239l0.11367 0.11346c0.06795 0.06795 0.15619 0.10534 0.24871 0.10534 0.06901 0 0.17243-0.02159 0.27414-0.12436l0.01881-0.02201c0.13183-0.17564 0.37819-0.44122 0.55832-0.60468-0.03098 0.10512-0.07479 0.23418-0.12628 0.38268l-0.55703 1.6237c-0.39678 1.1472-0.54528 1.5764-0.54528 1.8155 0 0.3126 0.19978 0.64634 0.76044 0.64634 1.7425 0 2.6014-1.2944 2.6956-1.445 0.09594-0.16068 0.07756-0.32114-0.0532-0.45276z" fill="#fff" stroke="#34497d" stroke-miterlimit="10" stroke-width=".21367"/>
  <path id="path8-1" d="m44.206 28.174c-0.56024 0-1.0515 0.48524-1.0515 1.0386 0 0.63096 0.42264 1.0386 1.0767 1.0386 0.64207 0 1.1399-0.59229 1.1399-1.1019 2.14e-4 -0.44977-0.3049-0.9754-1.1651-0.9754z" fill="#fff" stroke="#34497d" stroke-miterlimit="10" stroke-width=".21367"/>
 </g>
 <path id="path10-6" d="m22.774 15.846-12.756-6.9791 5.4776 13.601 2.1809-3.5312 4.3122 4.7134 1.6331-1.5913-4.4086-4.6683z" fill="#fff" fill-rule="evenodd" stroke="#000" stroke-linecap="round" stroke-linejoin="round" stroke-width=".7"/>
</svg>
