<svg height="24" width="24" xmlns="http://www.w3.org/2000/svg">
<g transform="translate(0 -8)">
<g transform="matrix(.75161647 0 0 .75161647 -.02586348 7.9745661)">
<path d="m16.000001 1.0775438c9.467477 4.6992805 8.114981 22.3215822 0 25.8460432" fill="none" stroke="#749fcf"/>
<path d="m1.1225356 14.000566h29.7549294" fill="none" stroke="#749fcf"/>
<path d="m2.9484075 6.9340877c7.5739815 1.0094969 18.3939565 1.0094969 25.9679385 0" fill="none" stroke="#749fcf"/>
<path d="m2.9484075 21.067042c7.5739815-1.009496 18.3939565-1.009496 25.9679385 0" fill="none" stroke="#749fcf"/>
<path d="m16.000001 1.0775438c-8.1149812 3.5244605-9.467478 21.1467632 0 25.8460432" fill="none" stroke="#749fcf"/>
<path d="m6.9656949 13.809332c0 6.713955-5.4228716 12.15669-12.1123228 12.15669-6.6894511 0-12.1123231-5.442735-12.1123231-12.15669 0-6.7139549 5.422872-12.1566907 12.1123231-12.1566907 6.6894512 0 12.1123228 5.4427358 12.1123228 12.1566907z" fill="none" stroke="#5488c4" stroke-width="1.28353083" transform="matrix(1.2562074 0 0 1.0871977 22.465232 -1.0129089)"/>
<path d="m7.3400991 7.2779254l5.8453019 14.7485086 6.428455-14.6109639 5.285714-.0209549" style="fill:none;stroke:#172739;stroke-width:1.29794168;stroke-linecap:round;stroke-linejoin:round;overflow:visible"/>
<path d="m4.5 12.5c0 .552285-.4477153 1-1 1-.5522847 0-1-.447715-1-1 0-.552285.4477153-1 1-1 .5522847 0 1 .447715 1 1z" style="fill:#fff;fill-rule:evenodd;stroke:#172739;stroke-width:.94698602;stroke-linecap:round;stroke-linejoin:round;overflow:visible" transform="matrix(1.5475161 0 0 1.6212881 1.923793 -12.988176)"/>
<path d="m4.5 12.5c0 .552285-.4477153 1-1 1-.5522847 0-1-.447715-1-1 0-.552285.4477153-1 1-1 .5522847 0 1 .447715 1 1z" style="fill:#fff;fill-rule:evenodd;stroke:#172739;stroke-width:.93603462;stroke-linecap:round;stroke-linejoin:round;overflow:visible" transform="matrix(1.5839392 0 0 1.6212881 7.641614 1.7603321)"/>
<path d="m4.5 12.5c0 .552285-.4477153 1-1 1-.5522847 0-1-.447715-1-1 0-.552285.4477153-1 1-1 .5522847 0 1 .447715 1 1z" style="fill:#fff;fill-rule:evenodd;stroke:#172739;stroke-width:.94698602;stroke-linecap:round;stroke-linejoin:round;overflow:visible" transform="matrix(1.5475161 0 0 1.6212881 14.034218 -12.884972)"/>
<path d="m4.5 12.5c0 .552285-.4477153 1-1 1-.5522847 0-1-.447715-1-1 0-.552285.4477153-1 1-1 .5522847 0 1 .447715 1 1z" style="fill:#fff;fill-rule:evenodd;stroke:#172739;stroke-width:.94698602;stroke-linecap:round;stroke-linejoin:round;overflow:visible" transform="matrix(1.5475161 0 0 1.6212881 19.483264 -12.871586)"/>
</g>
<g transform="matrix(.69230769 0 0 .69230769 1.8461539 9.8461539)">
<rect fill="#5a8c5a" height="13" rx="2.6149371" ry="2.6149368" width="13" x="19" y="19"/>
<path d="m21.6 25.499999l7.8 0" style="fill:#fff;fill-rule:evenodd;stroke:#fff;stroke-width:2.5999999;stroke-linecap:round;stroke-linejoin:round;overflow:visible"/>
<path d="m25.5 29.399999l0-7.799999" style="fill:#fff;fill-rule:evenodd;stroke:#fff;stroke-width:2.5999999;stroke-linecap:round;stroke-linejoin:round;overflow:visible"/>
<path d="m20.3 25.499999h10.4c0 0 0 0 0-2.6 0-2.599999-.65-2.599999-5.2-2.599999-4.55 0-5.2 0-5.2 2.599999 0 2.6 0 2.6 0 2.6z" fill="#fcffff" fill-rule="evenodd" opacity=".3"/>
</g>
</g>
</svg>
