<svg height="24" width="24" xmlns="http://www.w3.org/2000/svg">
<g enable-background="new" stroke-dashoffset=".5" stroke-linejoin="round" transform="matrix(.8660254 .4999999 -.4999999 .8660254 7.3411415 -3.567545)">
<path d="m8.0961023 18.028419l5.9999997 0-3.12491 6.990956-2.8750897-6.990956z" fill="#505050" overflow="visible" stroke="#505050" stroke-linecap="round" stroke-width=".75"/>
<path d="m8.0961004 1.0284199l6.0000006-.000001.000001 17.0000001-5.9999997 0-.0000019-16.9999991" fill="#fce94f" overflow="visible" stroke="#8b7617" stroke-linecap="round" stroke-width=".74999994"/>
<path d="m10.596101 2.0284194l.000001 14.9999996" fill="none" opacity=".5" overflow="visible" stroke="#fcffff" stroke-width="1.99999988"/>
<path d="m12.596101 2.0284192l.000002 14.9999998" fill-opacity=".58823529" opacity=".25" overflow="visible" stroke="#000" stroke-width="1.99999988"/>
<path d="m12.096101 2.0284193l.000001 15.9999997" style="opacity:.5;fill:#fce94f;stroke:#8b7617;stroke-width:.74999994;stroke-linecap:round;overflow:visible"/>
<path d="m11.463292 23.228968l1.996957-4.943779-1.996957-.000001 0 4.94378z" fill="#969696" overflow="visible" stroke="#969696" stroke-linecap="square" stroke-width=".49999997"/>
<path d="m9.5961007 2.0284198l.0000015 15.9999982" style="opacity:.5;fill:#fce94f;stroke:#8b7617;stroke-width:.74999994;stroke-linecap:round;overflow:visible"/>
<path d="m7.8653316-.08727704h6.4615374v2.1791313h-6.4615374z" fill="#e6e6e6" overflow="visible" stroke="#969696" stroke-linecap="round" stroke-width=".5"/>
<path d="m10.728912 23.38728l-1.9969556-5.102091 1.9969556 0 0 5.102091z" fill="#e6e6e6" overflow="visible" stroke="#e6e6e6" stroke-linecap="square" stroke-width=".49999997"/>
</g>
</svg>
