<svg height="24" width="24" xmlns="http://www.w3.org/2000/svg" xmlns:xlink="http://www.w3.org/1999/xlink"><linearGradient id="a" gradientTransform="matrix(1 0 0 1.00003 0 -8)" gradientUnits="userSpaceOnUse" x1="3.5" x2="11.5" y1="19.5" y2="19.5"><stop offset="0" stop-color="#b7b7b7"/><stop offset="1" stop-color="#e6e6e6"/></linearGradient><path d="m21.5 21.5h-17c-1 0-1.978-1.42-2-2.5v-16.5h19z" fill="url(#a)" fill-rule="evenodd" stroke="#9a9a9a"/><path d="m21.5 21.5h-17c-1 0-1.978-1.42-2-2.5v-16.5h19z" fill="none" stroke="#9a9a9a"/><path d="m5.213 19.352h1.023v-3.714l-1.1.248v-.6l1.093-.24h.658v4.306h1.009v.554h-2.683zm4.392-2.907h.82v.987h-.82zm0 2.468h.82v.993h-.82zm3.435.439h2.232v.554h-2.952v-.554q.609-.641 1.064-1.132.456-.492.629-.694.325-.397.439-.641.114-.248.114-.505 0-.407-.24-.638-.239-.23-.655-.23-.296 0-.622.107-.325.107-.69.325v-.664q.335-.16.657-.24.326-.082.642-.082.713 0 1.146.38.436.378.436.993 0 .313-.147.625-.143.313-.468.69-.183.212-.531.587-.345.374-1.055 1.12zm5.322-2.047q.478.127.732.452.254.323.254.808 0 .67-.453 1.054-.449.381-1.246.381-.336 0-.684-.062-.348-.062-.684-.179v-.654q.333.172.655.257.322.085.641.085.54 0 .83-.244.29-.245.29-.704 0-.423-.29-.67-.29-.25-.784-.25h-.502v-.541h.502q.452 0 .706-.199.254-.198.254-.553 0-.374-.238-.573-.234-.202-.67-.202-.29 0-.6.065-.309.065-.647.196v-.606q.394-.104.7-.156.31-.052.547-.052.71 0 1.133.358.426.355.426.944 0 .4-.225.667-.221.267-.647.378z" fill="#373737" stroke="#373737" stroke-width=".2"/><path d="m6.5 2c-1-1-3-1-4 0v16c1-1 3-1 4 0z" fill="#e6e6e6" fill-rule="evenodd" stroke="#9a9a9a"/><path d="m17.5.5 6 6.5-6 6.5v-5h-3.999c-4.749 1.5-4.498 4.66-4.024 5.955-.663-1.26-.977-1.101-.977-3.455 0-2.104 1.882-5.5 5-5.5h4z" fill="#e37e39" fill-rule="evenodd"/><path d="m9.5 1031.862-6 6.5 6 6.5v-5h3.998c5.235 1.5 3.998 4.546 3.998 6 .474-.474 1.002-.985 1.002-3.5 0-2.104-2.276-5.5-5-5.5h-3.998z" fill="none" stroke="#d06935" stroke-linejoin="round" transform="matrix(-1.00013 0 0 1 27.001 -1031.367)"/></svg>