<?xml version="1.0" encoding="UTF-8"?>
<svg width="24" height="24" xmlns="http://www.w3.org/2000/svg">
 <filter id="a" x="-.25" y="-.25" width="1.5" height="1.5" color-interpolation-filters="sRGB">
  <feGaussianBlur in="SourceAlpha" result="blur" stdDeviation="2"/>
  <feColorMatrix result="bluralpha" values="1 0 0 0 0 0 1 0 0 0 0 0 1 0 0 0 0 0 0.351000 0"/>
  <feOffset dx="7.5" dy="7.5" in="bluralpha" result="offsetBlur"/>
  <feMerge>
   <feMergeNode in="offsetBlur"/>
   <feMergeNode in="SourceGraphic"/>
  </feMerge>
 </filter>
 <g transform="translate(0 -8)">
  <g transform="matrix(1.0533 0 0 1.0533 -.8752 -.65309)" fill-rule="evenodd">
   <path d="m2.4968 25.72c0.5533-1.8105 1.3717-2.751 2.3396-4.3513 1.2168-1.7908 1.9207-3.4436 3.563-5.0939 1.7475-2.0651 4.4113-5.0199 7.195-5.4568 2.8225-0.18802 6.1021-2.4623 6.607-2.3178-0.89632 1.7508 0.16841 3.7126-0.4078 5.5979-0.41985 1.2004-5.9305 4.3382-6.6935 4.6939-0.91972 0.56403-4.194 4.0169-5.0929 4.6458-1.0019 0.88102-0.801 1.997-2.3594 1.9492-0.059987-0.01469-3.2629 0.3939-4.5122 0.56658-0.47802 1.2857 3.5528-0.08636 1.4613 0.85564-0.97902 0.44137-2.677 0.44813-2.1001-1.0893z" fill="#6d97c4" stroke="#2b3b4d" stroke-linejoin="round" stroke-width=".55595"/>
   <path d="m4.6632 23.885c0.36006 0.02435 3.4669 0.21707 5.1486-0.65693-2.7851 0.35679-4.4579 0.129-4.7714 0.17445-0.073511 0.09414-0.23489 0.35268-0.3772 0.48249z" fill="#fff" stroke-width="1pt"/>
   <path d="m3.7492 25.408c0.36006 0.02435 3.7481-0.33028 5.4299-1.2043-2.7851 0.35679-4.6888 0.57703-5.0984 0.64682-0.020928 0.14673-0.18917 0.42768-0.33148 0.55748z" fill="#fff" stroke-width="1pt"/>
   <path d="m5.5564 22.703c0.36005 0.02435 4.0533 0.28042 5.7351-0.59358-2.7851 0.35679-4.9746 0.03936-5.2881 0.0848-0.073508 0.09414-0.30461 0.37898-0.44692 0.50878z" fill="#fff" stroke-width="1pt"/>
   <path d="m6.6903 21.348c0.36006 0.02435 4.1105 0.40024 5.7922-0.47376-2.7851 0.35679-4.9792-0.10675-5.2927-0.06131-0.073508 0.09414-0.3572 0.40527-0.4995 0.53507z" fill="#fff" stroke-width="1pt"/>
   <path d="m7.9956 19.96c0.36006 0.02435 4.075 0.54829 5.7568-0.32571-2.7851 0.35679-4.9437-0.22851-5.2573-0.18306-0.073511 0.094142-0.3572 0.37898-0.4995 0.50878z" fill="#fff" stroke-width="1pt"/>
   <path d="m9.525 18.353c0.36006 0.02435 4.4785 0.17913 6.0642-0.08608-2.161-0.2033-5.2249-0.46814-5.5384-0.4227-0.073509 0.09414-0.38349 0.37898-0.52579 0.50878z" fill="#fff" stroke-width="1pt"/>
   <path d="m11.131 16.768c0.36006 0.02435 4.9118 0.71875 6.4975 0.35613-2.233-0.252-5.6318-0.88405-5.9454-0.83861-0.07351 0.09414-0.40978 0.35268-0.55209 0.48248z" fill="#fff" stroke-width="1pt"/>
   <path d="m12.72 15.384c0.36006 0.02436 5.1381 0.88338 6.6278 0.56947-1.5849-0.15459-5.6833-1.15-5.9968-1.1045-0.07351 0.09414-0.48866 0.40527-0.63096 0.53507z" fill="#fff" stroke-width="1pt"/>
   <path d="m14.546 13.969c0.36006 0.02435 5.0592 0.93597 6.3569 0.76816-1.7769-0.13024-5.3735-1.1724-5.687-1.1269-0.12152 0.14285-0.52751 0.22899-0.66982 0.35879z" fill="#fff" stroke-width="1pt"/>
   <path d="m16.707 12.827c0.36006 0.02435 3.6807 0.71486 5.0024 0.74187-1.8009-0.27635-3.9424-1.148-4.256-1.1026-0.07351 0.09414-0.6041 0.23093-0.7464 0.36073z" fill="#fff" stroke-width="1pt"/>
   <path d="m18.581 11.924c0.36006 0.02436 1.9021 0.42459 3.2478 0.18373-1.4649-0.03283-2.3628-0.54313-2.6763-0.49769-0.07352 0.09414-0.42921 0.18417-0.57152 0.31397z" fill="#fff" stroke-width="1pt"/>
   <path d="m20.067185 10.902978c.360059.02435.983132-.0868 1.488686-.425062-.696771.137625-.747644-.03175-1.061192.01369-.07352.09414-.285186.281572-.427493.411373z" fill="#fff" stroke-width="1pt"/>
   <path d="m21.068 9.8841c0.36006 0.024345 0.80712-0.62834 0.90461-1.1858-0.2407 0.33244-0.28359 0.50204-0.40511 0.57183-0.073519 0.094144-0.3572 0.48414-0.4995 0.61394z" fill="#fff" stroke-width="1pt"/>
   <path d="m14.625 12.95-0.63101 0.3155c-0.07887-0.15775 0.23663-1.6564 0.86763-2.0508-0.3155 0.55213-0.57842 1.7353-0.23663 1.7353z" fill="#fff"/>
   <path d="m16.693 11.833-0.44696 0.26292c-0.07887-0.15775-0.05259-0.89393 0.60472-1.262-0.3418 0.3418-0.49955 0.99909-0.15775 0.99909z" fill="#fff"/>
   <path d="m18.586 10.991-0.44696 0.26292c-0.07888-0.15775 0.49955-0.84134 0.94651-1.2094-0.47325 0.60471-0.60471 0.86764-0.49955 0.94651z" fill="#fff"/>
   <path d="m20.058 10.045-0.44696 0.26292c-0.07887-0.15775 0.52584-0.6573 0.9728-1.0254-0.39438 0.47325-0.86764 0.76247-0.52584 0.76247z" fill="#fff"/>
   <path d="m12.591 14.304-0.52584 0.36809c-0.07887-0.15775 0.02629-1.8667 0.47325-2.2348-0.28921 0.60471-0.28921 1.8667 0.05259 1.8667z" fill="#fff"/>
   <path d="m10.777 15.881-0.39438 0.3418c-0.07887-0.15775-0.02629-1.709 0.49955-2.34-0.23663 0.47326-0.44696 1.9982-0.10517 1.9982z" fill="#fff"/>
   <path d="m9.0679 17.433-0.39438 0.3418c-0.078875-0.15775 0.13146-1.7616 0.57842-2.1296-0.3155 0.52584-0.52584 1.7879-0.18404 1.7879z" fill="#fff"/>
   <path d="m7.6744 18.931-0.44697 0.3418c-0.05259-0.21034 0.026291-1.4724 0.47326-1.8404-0.26292 0.60471-0.36809 1.4986-0.026291 1.4986z" fill="#fff"/>
   <path d="m6.3072 20.377-0.39438 0.34179c-0.078872-0.15775 0.28921-1.3409 0.68359-1.8404-0.3155 0.55213-0.63101 1.4986-0.28921 1.4986z" fill="#fff"/>
   <path d="m4.9926 21.797-0.26292 0.3155c-0.078875-0.15775 0.28921-0.73617 0.76247-1.2883-0.078876 0.57842-0.84134 0.9728-0.49955 0.9728z" fill="#fff"/>
   <path d="m17.822 11.627c-1.5563 0.71246-3.5526 1.6003-5.2228 2.9628-3.8149 3.1763-5.1102 4.8618-6.9294 6.7299 0 0-3.7933 4.2949-4.542 8.4021-0.15379 1.4178 0.67786 1.1997 0.88241 0.16359 0.71515-3.9231 2.8049-6.7578 4.1747-8.2113 1.6485-1.7947 3.2771-4.0537 7.2116-7.0773 1.4653-1.2235 3.0308-1.9134 4.6136-2.6381 1.7821-0.68477 2.0954-1.3906 3.6282-2.9355-0.63101 0.52584-2.26 1.8913-3.8163 2.6038z" fill="#6d97c4" stroke="#2b3b4d" stroke-linejoin="round" stroke-width=".55515"/>
  </g>
  <g transform="matrix(.69231 0 0 .69231 1.8462 9.8462)">
   <rect x="19" y="19" width="13" height="13" rx="2.6149" ry="2.6149" fill="#5a8c5a"/>
   <path d="m21.6 25.5h7.8" fill="#fff" fill-rule="evenodd" stroke="#fff" stroke-linecap="round" stroke-linejoin="round" stroke-width="2.6"/>
   <path d="m25.5 29.4v-7.8" fill="#fff" fill-rule="evenodd" stroke="#fff" stroke-linecap="round" stroke-linejoin="round" stroke-width="2.6"/>
   <path d="m20.3 25.5h10.4v-2.6c0-2.6-0.65-2.6-5.2-2.6s-5.2 0-5.2 2.6v2.6z" fill="#fcffff" fill-rule="evenodd" opacity=".3"/>
  </g>
 </g>
</svg>
