<?xml version="1.0" encoding="UTF-8"?>
<svg width="24" height="24" version="1.1" xml:space="preserve" xmlns="http://www.w3.org/2000/svg"><path d="m2.5 2h19.5v19.5h-19.5z" fill="#e6e6e6"/><path d="m22 9h-19v-1h19zm0 7h-19v-1h19z" fill="#d0d0d0" stroke-linecap="round" stroke-linejoin="round" stroke-opacity=".20694" stroke-width="2"/><rect x="16.5" y="12.5" width="4" height="8" fill="#00ba58" stroke="#005338"/><path d="m2 2v20h20v-1h-1-18v-18-1h-1z" fill="#6e97c4" style="-inkscape-stroke:none"/><rect x="10.5" y="4.5" width="4" height="16" fill="#ff4900" stroke="#bd2c00"/><g transform="translate(1.846 1.846) scale(.6923)"><rect x="19" y="19" width="13" height="13" rx="2.615" fill="#5a8c5a"/><g fill-rule="evenodd"><path d="m21.6 25.5h7.8m-3.9 3.9v-7.8" fill="#fff" stroke="#fff" stroke-linecap="round" stroke-linejoin="round" stroke-width="2.6"/><path d="M20.3 25.5h10.4v-2.6c0-2.6-.65-2.6-5.2-2.6s-5.2 0-5.2 2.6z" fill="#fcffff" opacity=".3"/></g></g><rect x="4.5" y="9.5" width="4" height="11" fill="#00ba58" stroke="#005338"/></svg>
