<svg xmlns="http://www.w3.org/2000/svg" viewBox="0 0 16 16"><linearGradient id="a" gradientUnits="userSpaceOnUse" x1="11.883" x2="7.883" y1="22.23" y2="16.23" gradientTransform="matrix(0 -.6892 .7 0 -4.25 10.115)"><stop offset="0" stop-color="#edd400"/><stop offset="1" stop-color="#fff17a"/></linearGradient><path stroke-linejoin="round" stroke-linecap="round" stroke="#c4a000" fill-rule="evenodd" fill="url(#a)" d="M8 9.77L4.5 7.014V1.5h7v5.514z"/><path fill="#2e3436" word-spacing="0" letter-spacing="0" font-family="FreeSans" font-weight="700" aria-label="a" font-size="8" d="M7.34 6.743q-.519 0-.834-.29-.315-.298-.315-.781 0-.947 1.113-1.125l.392-.066q.014 0 .14-.014l.161-.026q.035-.013.133-.033.105-.02.147-.046.042-.027.098-.067.063-.046.084-.099.021-.06.021-.132 0-.357-.567-.357-.364 0-.51.105-.148.106-.183.384h-.945Q6.366 2.96 7.892 2.96q1.547 0 1.547 1.098v1.985q0 .245.224.437v.112H8.6q-.112-.132-.112-.357-.259.251-.546.377-.287.132-.602.132zm1.14-1.588v-.251q-.133.06-.413.113l-.336.06q-.308.059-.434.171-.126.113-.126.318 0 .198.14.317.147.113.392.113.371 0 .574-.219.203-.218.203-.622z"/><path d="M1.694 14.346c2.065-4.412 7.855-.277 11.99-3.585" fill="none" stroke="#8cbe8c" stroke-linecap="round" stroke-linejoin="round" stroke-width="1.8"/><path stroke="#517083" fill="#7c96a8" d="M7.5 11.5h2v2h-2z"/></svg>