<svg width="24" height="24" xmlns="http://www.w3.org/2000/svg"><path d="m23.4 10.5a11.4 9.96 0 0 1 -11.4 9.96 11.4 9.96 0 0 1 -11.4 -9.96 11.4 9.96 0 0 1 11.4 -9.96 11.4 9.96 0 0 1 11.4 9.96z" fill="#aec7e2" stroke="#2e4e72" stroke-width="1.17"/><path d="m7.98 2.66c-.232.0415-.382.285-.632.275l-.236.0471c-.2.196.189.427.364.372.206-.162.413-.299.674-.35.11-.136.435-.0808.231.0962-.0889.0019-.457.031-.239.114.288.0834.438.378.458.66.0436.152-.0399.364-.228.325.00109.274.0565.563.204.794.288.108.235-.332.38-.456.279-.116.433-.426.755-.44.284.000507.363-.247.336-.483.0325-.216.341-.104.344-.358.00319-.157.173-.288.203-.376-.184-.244-.498-.0106-.739-.083-.295.0789-.559-.116-.844-.0417-.345.0766-.689-.0622-1.03-.0969zm8.4.684c-.258-.0533-.454.129-.634.241-.225-.00786-.534.142-.372.401-.0056.254-.232.0255-.202-.116-.12-.168.0326.213.0474.278.0656.15-.188.237-.145.0355.0148-.172-.0825-.59-.308-.42-.0511.173.332.478-.0265.51-.152-.0566-.323-.344-.452-.0951-.216.0452-.455-.0084-.62.186-.118.191-.402.487-.511.12-.128-.294.416.0633.265-.254-.205-.183-.515-.237-.784-.278-.268-.0355-.429.234-.57.418-.133.132-.213.294-.293.459-.184.0245-.228.275-.123.4.235-.165.266.314.468.365.249-.171.204-.493.189-.748-.0171-.152.339-.417.289-.16-.11.185-.0393.463.212.355.221.0986-.179.205-.147.21.0339.0943-.0088.301-.141.21.0746.239-.197.314-.356.362-.112-.0441-.228-.129-.331-.0389-.0984-.111-.174.176-.298.182-.119.165-.238.408-.467.438-.18.00642.171.21-.0808.181-.0314.146.268.33.08.514-.161.1-.476-.174-.464.148-.0086.236-.124.657.221.69.311.0472.324-.303.417-.504.115-.127.165-.396.393-.29-.0024-.146.136-.244.188-.0563.111.199.487.33.373.598-.0901.0586-.145.193-.0011.112.0627-.194.256-.363.0342-.511-.102-.103-.332-.312-.224-.43.214.0949.37.337.461.544.0676.131.0657.493.251.448.165-.135-.184-.43.122-.397.257-.133.0112.336.202.422.161.199.681-.0928.583.323.0214.293-.223.566-.52.431-.197.019-.405-.13-.528-.197.0025.158-.118.431-.269.196-.2-.128-.542-.239-.452-.548.0657-.136-.0296-.268-.16-.141-.266.00883-.507.156-.771.177-.131.0937-.156-.154-.19.0353-.113.186-.289.335-.285.569-.0807.248-.304.416-.375.672-.121.267-.155.556-.1.844-.0453.302-.157.648.051.921.179.249.186.621.475.788.245.0446.475-.117.7-.195.255-.134.285.209.494.234.268.156.0637.51.102.75.155.255.233.548.291.841.0219.296.0627.605-.0886.876-.0974.354.162.66.183 1 .0362.267.0242.546.155.791.163.189-.021.722.358.622.279-.0617.433-.311.567-.54.191-.206.155-.531.363-.722.0762-.229-.0821-.575.144-.79.19-.201.331-.454.275-.738-.0115-.286-.112-.565-.0999-.852.0736-.283.254-.524.364-.793.13-.22.266-.437.351-.681.0468-.166.264-.521.0631-.612-.167.0362-.554.172-.542-.124-.0669-.401-.393-.702-.448-1.11-.0877-.346-.187-.69-.293-1.03.191.11.301.288.359.496.0804.262.144.532.287.769.155.211.0833.5.213.705.277.124.441-.241.658-.351.195-.187.305-.451.407-.695-.0154-.19-.234-.282-.22-.498-.0901-.136-.106.225-.266.199-.294.0372-.207-.392-.308-.572-.0278-.112-.0361-.351.0641-.132.117.29.451.239.614.453.183.207.495-.0254.664.206.139.178.265.496.474.419.0465.303.0303.615.166.899.115.204.0112.573.238.677.271-.174.0903-.522.14-.777-.000997-.327.289-.487.414-.757.0958-.295.43-.173.468.0858.101.197.201.383.267.587.237-.0821.18.353.193.524-.037.0982.0612.477.0758.196-.0377-.112.0065-.58.15-.304.0583.176.266.589.42.253.202-.254.104-.599-.0581-.843-.187-.162-.237-.556.043-.625.181.0576.0452.374.154.394.069-.269.191-.518.447-.66.17-.145.181-.388.181-.595-.0136-.239-.146-.444-.278-.633-.094-.152.163-.509-.123-.399-.304-.0272-.1-.347.0152-.477.167-.126.042.361.26.151.105.0327.117.306.256.366-.0242.162.125.413.238.16.129-.289-.375-.426-.232-.717-.0364-.3.344-.258.331-.542.0093-.28.0734-.592-.11-.834-.103-.262-.486-.0256-.547-.306-.0047-.226.0728-.567.356-.566.158.0766.529.213.438-.108-.0014-.195.195-.113.221-.0987.21-.207.237.188.153.315-.0973.285.144.471.235.707.0229.12.212.325.181.0716.0495-.27.0257-.551-.184-.733-.088-.202.283-.428.252-.162.0409-.147.209-.261.276-.332-.111-.104-.397-.275-.121-.382.108-.023.425.254.342.00536-.238-.211-.598-.142-.867-.296-.15-.054-.403-.159-.479.0537-.239-.19-.577-.0837-.831-.243-.24-.0688-.546.0856-.736-.132-.196-.199-.204.236-.435.15-.278.0274-.474-.253-.745-.189-.249.117-.464-.0652-.716-.0297-.241-.0378.14-.328-.133-.342-.125.0595-.205-.059-.322-.043zm-11.2.207c-.19.0595-.174.34.0514.291-.0303.22.164.329.353.246.239.0926.552-.179.342-.381-.173.141-.383.0915-.508-.0976-.0652-.0694-.158-.0403-.238-.0587zm1.76.0566c-.19.0485-.104.494.0676.261.309-.0212.514.412.288.626-.246.131.0456.394.228.366.117-.0421-.0937-.289.115-.233.129.047-.114-.391.0922-.203.0953-.207-.102-.442-.143-.617-.169-.117-.365-.256-.565-.123-.0441.00437-.0773-.0389-.0824-.0784zm-.447.225c-.286.0053-.177.665-.541.401-.193-.126-.422-.00902-.545.0957-.23-.148-.462-.279-.749-.26-.251-.124-.459.105-.697.129-.197-.0652-.232-.408-.514-.294-.345.0877-.717.0963-1.03.278-.015.133-.00202.383-.206.223-.206-.0725-.133.355.026.15.172.117-.201.253-.311.243-.229.109-.113.411-.00431.507.0784.14.341-.145.457-.211.0931.0809.268-.143.433-.0352.263.0319.504.243.462.527-.103.297.0555.613-.0164.904-.117.248-.2.512-.339.749-.105.231-.146.498-.0767.745.0197.286.308.499.229.804.0298.253.104.498.195.735-.0158-.284-.0738-.564-.151-.838.109-.261.169.19.187.287.0462.303.255.563.282.867-.0419.299.226.533.448.682.209-.0077.391.0337.498.226.247.0612.373.245.382.491.0341.123.302.345.311.288-.168-.238-.24-.531-.147-.811.0445-.218-.182-.205-.304-.248-.0428-.203.221-.439.0645-.621-.287-.0743-.109.49-.448.358-.256-.0686-.249-.36-.209-.568.0371-.204.0728-.416.15-.606.114-.182.347-.357.521-.177.122-.0844.242-.31.389-.103.178.122.0103.521.214.547.147-.26-.109-.585.0935-.828.209-.218.441-.424.538-.72.0715-.242.297-.362.439-.536.0452-.215.251-.335.436-.407-.14.0612-.0985.408.0228.186.0467-.149.392-.115.288-.316-.109.188-.395-.0784-.159-.156-.0142-.164-.468.0631-.238-.18.226-.179.572-.00109.773-.232.131-.0992.155-.373-.0219-.37-.156-.162.00514-.498-.144-.597-.0838.0823-.319.259-.275.00843.0489-.268-.384-.394-.436-.103-.295.127.0335.466-.216.625-.249.0213-.131.358-.329.412-.251-.0619.116-.483-.217-.447-.305-.0506-.418-.467-.175-.664.167-.216.565-.238.578-.555.108.154.346-.12.467-.212.115-.286-.204.0498-.296.00503-.0261-.133-.119-.235-.081-.377zm-.662 7.16c-.091.249-.438.432-.31.731.0483.356-.205.65-.29.977.0828.208-.0782.417.00936.621.254.324.196.796.482 1.11.151.258.519.403.432.752-.036.498.0231.997.0327 1.5.0178.295.0264.59.0424.885.14.236.234.515.153.787.045.237.119.498.284.678.141.17.273.016.189-.147.0478-.201.144-.423-.0379-.58.0454-.195.131-.409-.0116-.573.0718-.0528.257-.0054.173-.179-.0381-.168.104-.136.164-.13.169-.151.167-.4-.0161-.526-.00253-.175.206.113.276-.064.157-.22.173-.505.261-.755.0704-.221-.0327-.545.29-.584.315-.0888.276-.488.326-.746.0337-.376.0241-.783.238-1.11.169-.267-.0291-.516-.252-.657-.161-.15-.422-.0516-.539-.266-.115-.119-.23-.123-.381-.0913.191-.214.1-.627-.183-.714-.204-.151-.316-.398-.534-.529-.0909-.267-.393-.0683-.534-.286-.147-.0906-.0494.354-.178.241.0223-.118-.0307-.233-.0857-.335zm13.8.742c-.0981.248-.393.39-.404.673-.226.0057-.113.45.0603.52.314.182.36-.216.449-.421-.0349-.231.0446-.472-.0047-.697-.0238-.036-.0619-.06-.101-.0758zm-1.49.156c.115.409.341.777.456 1.19.0264.157.267.331.258.067-.0574-.263-.153-.539-.306-.761-.19-.129-.21-.381-.408-.493zm2.7.734c-.232.0154.0658.269-.00039.364.221.104.445.274.411.531.104.152.337.168.427.0407.134.0777.264.478.42.295-.0703-.179-.323-.303-.242-.515-.0924-.223-.304-.335-.495-.456-.139-.135-.258-.0159-.31.105-.221.0924-.0987-.291-.211-.364zm.627 1.38c-.075.223-.0134.654-.28.709-.281-.0802-.218-.396-.21-.597-.197-.156-.434.0739-.454.279-.0763.295-.218-.253-.331.0156-.1.087-.0613.341-.198.276-.0455.288-.287.418-.53.532-.236.114-.197.384-.217.599-.0288.229-.0389.462.003.689-.0426.152-.111.5.161.357.282-.0778.519-.262.791-.355.239-.0713.318.195.348.335.0818-.0445.281-.242.191-.0219.0149.204-.0391.609.269.559.127.165.3-.101.4-.19.273-.358.541-.753.569-1.22.0971-.299-.0886-.538-.205-.787-.141-.252-.134-.515-.185-.788-.0389-.132-.0921-.26-.122-.394zm-6.76.133c.037.319-.513.391-.354.735.0114.268-.207.527-.082.794.209.253.284-.191.296-.345.0738-.389.261-.785.14-1.18z" fill="#2e4e72" stroke="#fff" stroke-width=".075"/><path d="m12 .808c7.1 3.52 6.09 16.7 0 19.4m-11.2-9.69h22.3m-20.9-5.3c5.68.758 13.8.758 19.5 0m-19.5 10.6c5.68-.758 13.8-.758 19.5 0m-9.69-15c-6.09 2.64-7.1 15.9 0 19.4" fill="none" stroke="#fff" stroke-width=".45"/><path d="m23.4 10.5a11.4 9.96 0 0 1 -11.4 9.96 11.4 9.96 0 0 1 -11.4 -9.96 11.4 9.96 0 0 1 11.4 -9.96 11.4 9.96 0 0 1 11.4 9.96z" fill="none" stroke="#6e96c4" stroke-width="1.17"/><rect x="15" y="15" width="9" height="9" rx="1.81" ry="1.81" fill="#5a8c5a" stroke-width=".692"/><path d="m16.8 19.5h5.4m-2.7 2.7v-5.4" fill="#fff" fill-rule="evenodd" overflow="visible" stroke="#fff" stroke-linecap="round" stroke-linejoin="round" stroke-width="1.8"/><path d="m15.9 19.5h7.2v-1.8c0-1.8-.45-1.8-3.6-1.8s-3.6 0-3.6 1.8z" fill="#fcffff" fill-rule="evenodd" opacity=".3" stroke-width=".692"/><path d="M13.5 17a6.5 6.5 0 1 1-13 0 6.5 6.5 0 0 1 13 0" fill="#fff"/><path d="m4.82 13.1c-.394.016-.771.068-1.15.124a5.09 5.09 0 0 0 -1.8 3.73c.302.317.7 1.03 1.16 1.45.061-.027.127-.05.197-.072-.225-.261-.54-.607-.587-.767-.232-.78.037-1.51.617-1.57.52-.052.966-.825 1.33-1.33.754-1.04 1.91-.869 1.86-1.39-.067-.305-.248-.398-.478-.398-.346 0-.802.21-1.15.224" fill="#2b3b4d"/><path d="m3.45 18.3c-.075.021-.149.041-.219.062-.063.017-.112.042-.197.072a.549 .549 0 0 0 -.355 .485c-.057.496.415.885.813.999.505.144.547-.025.812.333.185.25.22.713.315 1.02.053.17.125.34.21.506.36.168.744.295 1.14.375.1-.588.054-1.38.186-1.72.27-.702.422-1.01.058-1.74-.803-.226-1.05-.298-1.86-.464a1.85 1.85 0 0 0 -.36 -.05c-.144 0-.263.04-.552.125m4.97-4.07c-.237.338-1.07.43-1.33.81-.207.297.007.88-.173 1.22-.084.155-.045.605.056.751.32.465.851.207 1.25.374.488.204.544.769.948 1.18.405.414-.517 1.05.236 2.56.08.162.174.28.275.361.509-.316.957-.72 1.33-1.19.114-.76-.143-1 .178-1.7.198-.428.538-1.17.904-1.68a5.09 5.09 0 0 0 -1.68 -3.56 .825 .825 0 0 1 -.368 .001 2.03 2.03 0 0 0 -.372 -.036c-.756 0-.982.52-1.25.904" fill="#2b3b4d"/><path d="m6.4 22.5c-.17-.097-.382-.247-.58-.378-.082.073-.148.18-.214.265.227.077.533.084.794.113m-.894-.606c-.362-.27-1.26-1.12-1.63-1.63-.137.08-.29.3-.487.337-.078.015-.253.036-.304.015-.052-.022.011-.131.067-.204.097-.126.238-.29.445-.45-.442-.647-.652-1.12-.953-1.9-.174.108-.3.204-.452.325-.05.04-.191.065-.26.004-.123-.11-.125-.306.049-.43.071-.05.425-.294.507-.363-.217-.626-.4-1.45-.447-1.88a5.09 5.09 0 0 1 -.406 .308c-.082.023-.138-.003-.161-.008-.083.886.012 1.86.276 2.74.453 1.51 1.72 2.96 3.44 3.49.04-.06.237-.287.32-.36m-3.52-6.63a138 138 0 0 1 -.048 -.776c-.24.523-.385.838-.452 1.45.169-.299.5-.674.5-.674m2.57-3.74c.995-.412 1.96-.638 3.08-.485.125.017.114.122-.018.124l-.158.004c-.901.014-2.23.3-2.91.688-.015.457.072 1.18.164 1.76.623-.262 1.59-.53 2.32-.61a8.55 8.55 0 0 0 -1.05 -.908c-.068-.048-.102-.13-.102-.237.01-.2.18-.224.273-.2.304-.06.607-.126 1.12-.11 2.18-.096 4.17 1.14 4.93 2.54 1.93 3.04 0 7.24-2.52 8.36-1.08.477-2 .684-3.71.446s-3.1-1.07-4.19-2.83c-1.34-2.16-.584-4.68-.396-5.21.805-1.9 2.12-2.9 3.16-3.34m-2.26 2.3c-.029.228.002.648.059 1.15.464-.414 1.36-.954 2.11-1.28-.086-.57-.178-1.48-.169-1.72-.692.38-1.45 1.14-2.01 1.93m.114 1.54c.066.452.283 1.43.478 1.92.464-.349 1.52-.996 2.11-1.26-.208-.757-.348-1.23-.465-2-.84.373-1.73.953-2.12 1.34m.66 2.36c.275.785.541 1.38.89 1.88.406-.353 1.24-.91 1.88-1.22-.21-.451-.514-1.29-.725-1.93-.821.403-1.44.796-2.04 1.26m1.15 2.22c.431.554 1.11 1.26 1.58 1.65.446-.358.95-.693 1.37-.897-.362-.561-.898-1.38-1.12-1.88-.804.356-1.26.655-1.83 1.13m1.86 1.89c.172.173.851.623.851.623a7.35 7.35 0 0 0 1.43 -.105c-.224-.256-.786-1.05-.956-1.32a5.96 5.96 0 0 0 -1.33 .8m2.76.401c.229-.073.813-.338.934-.418.029-.47.024-1 .005-1.32-.614 0-1.48.179-1.97.386.287.462.683.971 1.03 1.36m1.26-.592c.46-.287.894-.617 1.21-1.01-.27-.068-.875-.15-1.17-.13 0 0-.01.717-.034 1.14m1.35-1.2a1.74 1.74 0 0 0 .268 -.379c.05-.436.052-1.33.033-1.59-.526-.213-1.34-.382-1.94-.426.194.709.29 1.75.305 2.09.285.03 1 .175 1.33.306m.773-2.02c-.025.083-.17.166-.238.145.01.147-.024.875-.062 1.16.101-.208.294-.723.352-.941l.082-.32a5.14 5.14 0 0 0 .107 -2.45c-.266-1.37-.763-1.86-.937-2.08-.443-.24-1.11-.458-1.11-.458.607.82.817 1.2 1.18 2.18.21.109.591.32.639.378.038.046.039.128-.081.126-.1 0-.293-.096-.443-.136.16.532.283 1.52.274 2.19 0 0 .263.127.239.21m-1.02-4.95c-.84-1.03-2.74-1.9-4.86-1.77.473.312.867.782 1.21 1.17.53-.048 1.64.039 2.06.154-.071-.084-.158-.167-.181-.217-.06-.127.083-.154.198-.081.145.092.312.203.445.338.245.055.85.262 1.13.408m.539 4.64c-.037-.663-.138-1.55-.385-2.17-.652-.262-1.54-.425-2.33-.433.242.563.523 1.5.66 2.11.565.067 1.45.227 2.05.491m-1.83-4.74a9.88 9.88 0 0 0 -2.09 -.137c.435.602.754 1.13 1.05 1.87.807.02 1.9.26 2.35.436-.268-.714-.778-1.62-1.32-2.17m-3.7 4.84a6.92 6.92 0 0 1 3.08 -.61c-.29-1-.456-1.47-.703-2.08a7.91 7.91 0 0 0 -3.11 .776s.338 1.09.73 1.92m3.19-.189c-1.2-.014-2.25.273-2.97.626.303.654.905 1.52 1.13 1.88a6.23 6.23 0 0 1 1.14 -.306c.326-.05.76-.098 1.06-.093-.054-.762-.143-1.28-.353-2.1m-4.05-2.14a9.58 9.58 0 0 1 3.08 -.77 6.77 6.77 0 0 0 -1.1 -1.83 8.41 8.41 0 0 0 -2.53 .632c.108.575.313 1.27.549 1.96" fill="#2b3b4d"/></svg>
