<?xml version="1.0" encoding="UTF-8"?>
<svg viewBox="0 0 24 24" xmlns="http://www.w3.org/2000/svg">
 <radialGradient id="a" cx="421.85" cy="411.71" r="74.362" gradientTransform="matrix(3.005 -.17398 .32376 5.5918 -976.83 -1829.5)" gradientUnits="userSpaceOnUse">
  <stop stop-opacity="0" offset="0"/>
  <stop stop-opacity=".53125" offset="1"/>
  <stop offset="1"/>
 </radialGradient>
 <radialGradient id="b" cx="429.15" cy="399.39" r="74.362" gradientTransform="matrix(1 0 0 1.2002 0 -86.091)" gradientUnits="userSpaceOnUse">
  <stop stop-color="#fff" offset="0"/>
  <stop stop-color="#fff" stop-opacity=".66406" offset=".65625"/>
  <stop stop-color="#fff" stop-opacity=".33594" offset="1"/>
 </radialGradient>
 <g transform="matrix(.10403 0 0 .10403 -30.28 -35.395)">
  <path d="m404.53 340.87c-40.148 1.0159-71.999 27.049-72.469 74.168-.46975 47.111 37.401 37.258 38.406 104.18.007.44807 35.505-.40359 71.669-.0152 1.3142-66.55 38.644-57.648 38.644-104.17.00001-46.522-33.315-74.168-74.344-74.168-.60318 0-1.2311-.0171-1.9062 0" fill="#ffff02" fill-rule="evenodd" stroke="#000" stroke-miterlimit="0" stroke-width="1.25"/>
  <g transform="translate(0 .625)">
   <path d="m375.36 519h62.124v38.386h-62.124z" fill="#b8b8b8" fill-rule="evenodd" stroke="#000" stroke-miterlimit="0" stroke-width="1.25"/>
   <path d="m375.77 520 61.619 5.5558" fill="none" stroke="#626262" stroke-width="2.5"/>
   <path d="m375.77 528 61.619 5.5558" fill="none" stroke="#626262" stroke-width="2.5"/>
   <path d="m375.77 536 61.619 5.5558" fill="none" stroke="#626262" stroke-width="2.5"/>
   <path d="m375.77 551 61.619 5.5558" fill="none" stroke="#626262" stroke-width="2.5"/>
   <path d="m375.77 544 61.619 5.5558" fill="none" stroke="#626262" stroke-width="2.5"/>
  </g>
  <path d="m398.56 560.59h15.728v9.7183h-15.728z" fill="#b8b8b8" fill-rule="evenodd" stroke="#000" stroke-miterlimit="0" stroke-width="1.25"/>
  <path d="m375.04 558.2l62.844-.12627-8.5863 9.2857h-46.429l-7.8287-9.1594z" fill="#282828" fill-rule="evenodd"/>
  <path d="m404.53 340.87c-40.148 1.0159-71.999 27.049-72.469 74.168-.46975 47.111 37.401 37.258 38.406 104.18.007.44807 35.505-.40359 71.669-.0152 1.3142-66.55 38.644-57.648 38.644-104.17.00001-46.522-33.315-74.168-74.344-74.168-.60318 0-1.2311-.0171-1.9062 0" fill="url(#a)" fill-rule="evenodd" opacity=".83051"/>
  <path d="m404.53 340.87c-40.148 1.0159-71.999 27.049-72.469 74.168-.46975 47.111 37.401 37.258 38.406 104.18.007.44807 35.505-.40359 71.669-.0152 1.3142-66.55 38.644-57.648 38.644-104.17.00001-46.522-33.315-74.168-74.344-74.168-.60318 0-1.2311-.0171-1.9062 0" fill="url(#b)" fill-rule="evenodd"/>
 </g>
</svg>
