<svg xmlns="http://www.w3.org/2000/svg" xmlns:xlink="http://www.w3.org/1999/xlink" height="24" width="24"><defs><linearGradient id="d"><stop offset="0" style="stop-color:#000;stop-opacity:1"/><stop offset="1" style="stop-color:#fff;stop-opacity:1"/></linearGradient><linearGradient id="a"><stop style="stop-color:#cdf87e;stop-opacity:1" offset="0"/><stop style="stop-color:#a2e34f;stop-opacity:1" offset=".262"/><stop style="stop-color:#68b723;stop-opacity:1" offset=".661"/><stop style="stop-color:#1d7e0d;stop-opacity:1" offset="1"/></linearGradient><linearGradient gradientTransform="matrix(.2818 0 0 .2801 12.197 12.015)" gradientUnits="userSpaceOnUse" xlink:href="#b" id="j" y2="35.623" x2="24.139" y1="10.631" x1="24.139"/><linearGradient id="b"><stop offset="0" style="stop-color:#fff;stop-opacity:1"/><stop offset="0" style="stop-color:#fff;stop-opacity:.23529412"/><stop offset="1" style="stop-color:#fff;stop-opacity:.15686275"/><stop offset="1" style="stop-color:#fff;stop-opacity:.39215687"/></linearGradient><linearGradient gradientTransform="matrix(.2818 0 0 .2801 12.179 12.022)" gradientUnits="userSpaceOnUse" xlink:href="#c" id="k" y2="24.912" x2="24.139" y1="21.342" x1="24.139"/><linearGradient id="c"><stop style="stop-color:#fff;stop-opacity:1" offset="0"/><stop style="stop-color:#fff;stop-opacity:.23529412" offset="0"/><stop style="stop-color:#fff;stop-opacity:.15686275" offset="1"/><stop style="stop-color:#fff;stop-opacity:.39215687" offset="1"/></linearGradient><linearGradient gradientTransform="translate(-8.855 29.99)" xlink:href="#d" id="l" x1="32.5" y1="-20" x2="42.5" y2="-20" gradientUnits="userSpaceOnUse"/><linearGradient xlink:href="#d" id="m" gradientUnits="userSpaceOnUse" x1="32.5" y1="-20" x2="42.5" y2="-20" gradientTransform="translate(5.145 29.99)"/><linearGradient gradientTransform="translate(-8.855 29.99)" xlink:href="#d" id="n" x1="41" y1="-20" x2="46" y2="-20" gradientUnits="userSpaceOnUse"/><linearGradient id="e"><stop offset="0" style="stop-color:#3d3d3d;stop-opacity:1"/><stop offset=".5" style="stop-color:#686868;stop-opacity:.49803922"/><stop offset="1" style="stop-color:#686868;stop-opacity:0"/></linearGradient><linearGradient id="f"><stop offset="0" style="stop-color:#000;stop-opacity:1"/><stop offset="1" style="stop-color:#000;stop-opacity:0"/></linearGradient><radialGradient gradientTransform="matrix(0 .52545 -.57163 0 46.193 -21.124)" gradientUnits="userSpaceOnUse" xlink:href="#a" id="i" fy="48.216" fx="65.297" r="31" cy="48.216" cx="65.297"/><radialGradient gradientTransform="matrix(.06345 0 0 .04038 -.292 13.535)" gradientUnits="userSpaceOnUse" xlink:href="#e" id="g" fy="186.171" fx="99.157" r="62.769" cy="186.171" cx="99.157"/><radialGradient gradientTransform="matrix(.47059 0 0 .28235 -23.47 19.694)" gradientUnits="userSpaceOnUse" xlink:href="#f" id="h" fy="4.625" fx="62.625" r="10.625" cy="4.625" cx="62.625"/></defs><path style="fill:url(#g);fill-opacity:1;stroke:none;stroke-width:1" d="M9.983 21.052a3.983 2.535 0 1 1-7.966 0 3.983 2.535 0 1 1 7.966 0z"/><path style="display:inline;overflow:visible;visibility:visible;opacity:.3;fill:url(#h);fill-opacity:1;fill-rule:evenodd;stroke:none;stroke-width:.99999988;marker:none" d="M11 21c0 1.657-2.239 3-5 3s-5-1.343-5-3 2.239-3 5-3 5 1.343 5 3z"/><path d="M16.482 16.507v-3h4v3h3v4h-3v3h-4v-3h-2.99v-4h2.99z" style="color:#000;display:inline;overflow:visible;visibility:visible;fill:url(#i);fill-opacity:1;fill-rule:nonzero;stroke:none;stroke-width:.98542744;marker:none;enable-background:accumulate"/><path d="M17.5 18.004V14.5h2V18m0 1v3.5h-2V19" style="display:inline;opacity:.5;fill:none;stroke:url(#j);stroke-width:1;stroke-linecap:butt;stroke-linejoin:miter;stroke-miterlimit:4;stroke-dasharray:none;stroke-opacity:1"/><path d="M16.482 16.507v-3h4v3h3v4h-3v3h-4v-3h-2.99v-4h2.99z" style="color:#000;clip-rule:nonzero;display:inline;overflow:visible;visibility:visible;opacity:.5;isolation:auto;mix-blend-mode:normal;color-interpolation:sRGB;color-interpolation-filters:linearRGB;solid-color:#000;solid-opacity:1;fill:none;fill-opacity:1;fill-rule:nonzero;stroke:#0f5a00;stroke-width:1;stroke-linecap:round;stroke-linejoin:round;stroke-miterlimit:4;stroke-dasharray:none;stroke-dashoffset:0;stroke-opacity:1;marker:none;color-rendering:auto;image-rendering:auto;shape-rendering:auto;text-rendering:auto;enable-background:accumulate"/><path d="m20 17.507 2.482-.007v2L20 19.507m-3 0-2.5-.007v-2l2.5.007" style="display:inline;opacity:.5;fill:none;stroke:url(#k);stroke-width:1;stroke-linecap:butt;stroke-linejoin:miter;stroke-miterlimit:4;stroke-dasharray:none;stroke-opacity:1"/><g transform="rotate(-45 26.249 39.538)"><path d="M26.27 6.49a2.62 2.62 0 0 0-2.625 2.625v1.75a2.62 2.62 0 0 0 2.625 2.625h4.75a2.62 2.62 0 0 0 2.625-2.625v-1.75A2.62 2.62 0 0 0 31.02 6.49zm.313 2h4.125c.52 0 .937.418.937.938v1.125c0 .519-.418.937-.937.937h-4.125a.935.935 0 0 1-.938-.937V9.428c0-.52.418-.938.938-.938z" style="opacity:1;fill:#d4d4d4;fill-opacity:1;stroke:#000;stroke-width:1;stroke-linecap:round;stroke-linejoin:bevel;stroke-opacity:.42745098"/><path style="opacity:.2;fill:url(#l);fill-opacity:1;stroke:none;stroke-width:1;stroke-linecap:round;stroke-linejoin:bevel;stroke-opacity:.42745098" d="M26.27 6.49a2.62 2.62 0 0 0-2.625 2.625v1.75a2.62 2.62 0 0 0 2.625 2.625h4.75a2.62 2.62 0 0 0 2.625-2.625v-1.75A2.62 2.62 0 0 0 31.02 6.49zm.313 2h4.125c.52 0 .937.418.937.938v1.125c0 .519-.418.937-.937.937h-4.125a.935.935 0 0 1-.938-.937V9.428c0-.52.418-.938.938-.938z"/><path d="M40.27 6.49a2.62 2.62 0 0 0-2.625 2.625v1.75a2.62 2.62 0 0 0 2.625 2.625h4.75a2.62 2.62 0 0 0 2.625-2.625v-1.75A2.62 2.62 0 0 0 45.02 6.49zm.313 2h4.125c.52 0 .937.418.937.938v1.125c0 .519-.418.937-.937.937h-4.125a.935.935 0 0 1-.938-.937V9.428c0-.52.418-.938.938-.938z" style="opacity:1;fill:#d4d4d4;fill-opacity:1;stroke:#000;stroke-width:1;stroke-linecap:round;stroke-linejoin:bevel;stroke-opacity:.42745098"/><path d="M40.27 6.49a2.62 2.62 0 0 0-2.625 2.625v1.75a2.62 2.62 0 0 0 2.625 2.625h4.75a2.62 2.62 0 0 0 2.625-2.625v-1.75A2.62 2.62 0 0 0 45.02 6.49zm.313 2h4.125c.52 0 .937.418.937.938v1.125c0 .519-.418.937-.937.937h-4.125a.935.935 0 0 1-.938-.937V9.428c0-.52.418-.938.938-.938z" style="opacity:.2;fill:url(#m);fill-opacity:1;stroke:none;stroke-width:1;stroke-linecap:round;stroke-linejoin:bevel;stroke-opacity:.42745098"/><path d="M40.27 7.49h4.75c.9 0 1.625.725 1.625 1.625v1.75M45.02 12.49h-4.75c-.9 0-1.625-.725-1.625-1.625M31.02 12.49h-4.75c-.9 0-1.625-.725-1.625-1.625v-1.75M26.27 7.49h4.75c.9 0 1.625.725 1.625 1.625" style="opacity:.4;fill:none;fill-opacity:1;stroke:#fff;stroke-width:1;stroke-linecap:round;stroke-linejoin:bevel;stroke-opacity:1"/><rect ry="1.5" rx="1.5" y="8.99" x="30.645" height="2" width="10" style="opacity:1;fill:#d4d4d4;fill-opacity:1;stroke:#000;stroke-width:1;stroke-linecap:round;stroke-linejoin:bevel;stroke-opacity:.42745098"/><rect style="opacity:.2;fill:url(#n);fill-opacity:1;stroke:none;stroke-width:1;stroke-linecap:round;stroke-linejoin:bevel;stroke-opacity:.42745098" width="10" height="2" x="30.645" y="8.99" rx="1.5" ry="1.5"/><path d="M31.645 9.99h8" style="opacity:.4;fill:none;stroke:#fff;stroke-width:1px;stroke-linecap:round;stroke-linejoin:round;stroke-opacity:1"/></g></svg>