<?xml version="1.0" encoding="UTF-8" standalone="no"?>
<svg
   height="40"
   width="40"
   version="1.1"
   id="svg17"
   sodipodi:docname="mActionListActions.svg"
   inkscape:version="1.4 (e7c3feb100, 2024-10-09)"
   xmlns:inkscape="http://www.inkscape.org/namespaces/inkscape"
   xmlns:sodipodi="http://sodipodi.sourceforge.net/DTD/sodipodi-0.dtd"
   xmlns:xlink="http://www.w3.org/1999/xlink"
   xmlns="http://www.w3.org/2000/svg"
   xmlns:svg="http://www.w3.org/2000/svg">
  <defs
     id="defs17" />
  <sodipodi:namedview
     id="namedview17"
     pagecolor="#ffffff"
     bordercolor="#000000"
     borderopacity="0.25"
     inkscape:showpageshadow="2"
     inkscape:pageopacity="0.0"
     inkscape:pagecheckerboard="0"
     inkscape:deskcolor="#d1d1d1"
     inkscape:zoom="20.0625"
     inkscape:cx="24"
     inkscape:cy="24"
     inkscape:window-width="1920"
     inkscape:window-height="1008"
     inkscape:window-x="0"
     inkscape:window-y="0"
     inkscape:window-maximized="1"
     inkscape:current-layer="svg17" />
  <linearGradient
     id="a"
     gradientUnits="userSpaceOnUse"
     x1="64"
     x2="64"
     y1="21.9"
     y2="104">
    <stop
       offset="0"
       stop-color="#dadada"
       id="stop1" />
    <stop
       offset="1"
       stop-color="#ccc"
       id="stop2" />
  </linearGradient>
  <linearGradient
     id="b"
     gradientUnits="userSpaceOnUse"
     x1="64"
     x2="64"
     xlink:href="#a"
     y1="21.5"
     y2="103">
    <stop
       offset="0"
       stop-color="#d9d9d9"
       id="stop3" />
    <stop
       offset="1"
       stop-color="#ccc"
       id="stop4" />
  </linearGradient>
  <linearGradient
     id="c"
     gradientUnits="userSpaceOnUse"
     x1="20.103001"
     x2="20.103001"
     xlink:href="#b"
     y1="6.6275001"
     y2="32.952" />
  <linearGradient
     id="d"
     gradientUnits="userSpaceOnUse"
     x1="15.3549"
     x2="15.3872"
     xlink:href="#b"
     y1="6.8859"
     y2="32.629002" />
  <linearGradient
     id="e"
     gradientUnits="userSpaceOnUse"
     x1="20.110001"
     x2="20.110001"
     xlink:href="#a"
     y1="8.7720003"
     y2="31.76" />
  <linearGradient
     id="f"
     gradientUnits="userSpaceOnUse"
     x1="26.298"
     x2="25.878"
     y1="32.040001"
     y2="8.4919996">
    <stop
       offset="0"
       stop-color="#fff"
       id="stop5" />
    <stop
       offset="1"
       stop-color="#959595"
       id="stop6" />
  </linearGradient>
  <linearGradient
     id="g"
     gradientUnits="userSpaceOnUse"
     x1="20.1"
     x2="20.1"
     y1="2.24"
     y2="38.299999">
    <stop
       offset="0"
       stop-color="#f2f2f2"
       id="stop7" />
    <stop
       offset="1"
       stop-color="#d8d8d8"
       id="stop8" />
  </linearGradient>
  <radialGradient
     id="h"
     cx="6.6999998"
     cy="73.599998"
     gradientTransform="matrix(2.65,0,0,0.844,2.36,-26.5)"
     gradientUnits="userSpaceOnUse"
     r="7.23">
    <stop
       offset="0"
       id="stop9" />
    <stop
       offset="1"
       stop-opacity="0"
       id="stop10" />
  </radialGradient>
  <path
     d="m 37.6,15.8 h -1.48 c -0.399,0 -0.859,-0.331 -0.986,-0.708 -0.0071,-0.0196 -0.917,-2.22 -0.917,-2.22 -0.187,-0.376 -0.0967,-0.934 0.185,-1.22 l 1.04,-1.04 c 0.24,-0.24 0.373,-0.56 0.373,-0.901 0,-0.341 -0.133,-0.661 -0.373,-0.9 l -4.11,-4.1 C 31.092,4.472 30.771,4.339 30.43,4.339 c -0.342,0 -0.662,0.132 -0.902,0.372 l -1.04,1.04 c -0.282,0.281 -0.842,0.372 -1.2,0.194 -0.02,-0.0091 -2.22,-0.917 -2.22,-0.917 -0.398,-0.134 -0.73,-0.594 -0.73,-0.992 v -1.47 c -8.71e-4,-0.702 -0.573,-1.27 -1.28,-1.27 h -5.81 c -0.704,0 -1.28,0.571 -1.28,1.27 v 1.47 c 0,0.398 -0.332,0.858 -0.709,0.985 -0.0196,0.0074 -2.22,0.915 -2.22,0.915 -0.377,0.187 -0.936,0.0962 -1.22,-0.185 l -1.04,-1.04 C 10.539,4.471 10.218,4.339 9.877,4.339 9.535,4.339 9.215,4.471 8.975,4.711 l -4.11,4.1 c -0.497,0.497 -0.497,1.3 0,1.8 l 1.04,1.04 c 0.281,0.281 0.372,0.84 0.194,1.2 -0.0092,0.0199 -0.919,2.22 -0.919,2.22 -0.134,0.397 -0.595,0.728 -0.993,0.728 h -1.09 c -0.703,0 -1.66,0.572 -1.66,1.27 v 5.8 c 0,0.702 0.572,1.27 1.28,1.27 h 1.48 c 0.399,0 0.859,0.331 0.986,0.708 0.0074,0.0196 0.917,2.22 0.917,2.22 0.187,0.376 0.0964,0.934 -0.185,1.22 l -1.04,1.04 c -0.497,0.497 -0.497,1.3 0,1.8 l 4.11,4.1 c 0.24,0.24 0.56,0.372 0.902,0.372 0.342,0 0.662,-0.132 0.902,-0.372 l 1.04,-1.04 c 0.282,-0.281 0.841,-0.372 1.2,-0.194 0.0199,0.0092 2.22,0.917 2.22,0.917 0.397,0.134 0.729,0.594 0.729,0.992 v 1.47 c 0,0.702 0.572,1.27 1.28,1.27 h 5.81 c 0.703,0 1.28,-0.571 1.28,-1.27 v -1.47 c 0,-0.398 0.332,-0.858 0.71,-0.985 0.0196,-0.0071 2.22,-0.915 2.22,-0.915 0.377,-0.187 0.936,-0.0965 1.22,0.185 l 1.04,1.04 c 0.24,0.24 0.56,0.372 0.902,0.372 0.342,0 0.662,-0.132 0.902,-0.372 l 4.11,-4.1 c 0.24,-0.24 0.373,-0.559 0.373,-0.9 0,-0.341 -0.133,-0.661 -0.373,-0.9 l -1.04,-1.04 c -0.282,-0.281 -0.372,-0.84 -0.194,-1.2 0.0092,-0.0199 0.919,-2.22 0.919,-2.22 0.134,-0.397 0.595,-0.728 0.993,-0.728 h 1.48 c 0.704,0 1.28,-0.571 1.28,-1.27 v -5.8 c 9.58e-4,-0.702 -0.571,-1.27 -1.27,-1.27 z m -17.4,9.6 c -2.99,0 -5.43,-2.43 -5.43,-5.42 0,-2.99 2.44,-5.42 5.43,-5.42 2.99,0 5.43,2.43 5.43,5.42 0,2.99 -2.43,5.42 -5.43,5.42 z"
     fill="#030303"
     opacity="0.1"
     stroke-width="2.67"
     id="path11" />
  <path
     d="m 37.6,15.8 h -1.48 c -0.399,0 -0.859,-0.332 -0.986,-0.709 -0.0071,-0.0196 -0.917,-2.22 -0.917,-2.22 -0.187,-0.376 -0.0967,-0.936 0.185,-1.22 l 1.04,-1.04 c 0.24,-0.24 0.373,-0.561 0.373,-0.902 0,-0.341 -0.133,-0.662 -0.373,-0.902 l -4.11,-4.11 c -0.24,-0.24 -0.56,-0.373 -0.902,-0.373 -0.342,0 -0.662,0.132 -0.902,0.373 l -1.04,1.04 C 28.206,6.019 27.646,6.109 27.288,5.931 27.268,5.9218 25.068,5.013 25.068,5.013 24.67,4.879 24.338,4.418 24.338,4.02 V 2.54 C 24.33713,1.836 23.765,1.26 23.058,1.26 h -5.81 c -0.704,0 -1.28,0.572 -1.28,1.28 v 1.48 c 0,0.399 -0.332,0.86 -0.709,0.986 -0.0196,0.0074 -2.22,0.917 -2.22,0.917 -0.377,0.187 -0.936,0.0965 -1.22,-0.185 l -1.04,-1.04 C 10.539,4.458 10.218,4.325 9.877,4.325 9.535,4.325 9.215,4.458 8.975,4.698 l -4.11,4.11 c -0.497,0.497 -0.497,1.31 0,1.8 l 1.04,1.04 c 0.281,0.282 0.372,0.841 0.194,1.2 -0.0092,0.0199 -0.919,2.22 -0.919,2.22 -0.134,0.398 -0.595,0.729 -0.993,0.729 h -1.09 c -0.703,-3.06e-4 -1.66,0.572 -1.66,1.28 v 5.81 c 0,0.703 0.572,1.28 1.28,1.28 h 1.48 c 0.399,0 0.859,0.331 0.986,0.709 0.0074,0.0196 0.917,2.22 0.917,2.22 0.187,0.376 0.0964,0.936 -0.185,1.22 l -1.04,1.04 c -0.497,0.497 -0.497,1.31 0,1.8 l 4.11,4.11 c 0.24,0.24 0.56,0.373 0.902,0.373 0.342,0 0.662,-0.132 0.902,-0.373 l 1.04,-1.04 c 0.282,-0.282 0.841,-0.373 1.2,-0.194 0.0199,0.0089 2.22,0.918 2.22,0.918 0.397,0.134 0.729,0.595 0.729,0.993 v 1.48 c 0,0.704 0.572,1.28 1.28,1.28 h 5.81 c 0.703,0 1.28,-0.572 1.28,-1.28 v -1.48 c 0,-0.399 0.332,-0.86 0.71,-0.986 0.0196,-0.0071 2.22,-0.917 2.22,-0.917 0.377,-0.187 0.936,-0.0962 1.22,0.185 l 1.04,1.04 c 0.24,0.24 0.56,0.373 0.902,0.373 0.342,0 0.662,-0.132 0.902,-0.373 l 4.11,-4.11 c 0.24,-0.24 0.373,-0.56 0.373,-0.902 0,-0.342 -0.133,-0.662 -0.373,-0.902 l -1.04,-1.04 c -0.282,-0.282 -0.372,-0.842 -0.194,-1.2 0.0092,-0.0202 0.919,-2.22 0.919,-2.22 0.134,-0.398 0.595,-0.729 0.993,-0.729 h 1.48 c 0.704,0 1.28,-0.572 1.28,-1.28 v -5.81 c 9.58e-4,-0.704 -0.571,-1.28 -1.27,-1.28 z m -17.4,10 c -3.25,0 -5.89,-2.64 -5.89,-5.88 0,-3.24 2.64,-5.88 5.89,-5.88 3.25,0 5.89,2.64 5.89,5.88 0,3.24 -2.64,5.88 -5.89,5.88 z"
     fill="url(#g)"
     stroke="#262626"
     stroke-linecap="round"
     stroke-linejoin="round"
     stroke-width="1.2"
     id="path12"
     style="fill:url(#g)" />
  <path
     d="m 20.1,8.63 c -6.43,0 -11.7,5.22 -11.7,11.6 0,6.42 5.23,11.6 11.7,11.6 6.43,0 11.7,-5.22 11.7,-11.6 0,-6.42 -5.23,-11.6 -11.7,-11.6 z m 0,20.2 c -4.73,0 -8.57,-3.83 -8.57,-8.56 0,-4.73 3.84,-8.56 8.57,-8.56 4.73,0 8.57,3.83 8.57,8.56 0,4.73 -3.84,8.56 -8.57,8.56 z"
     fill="url(#e)"
     stroke="url(#f)"
     stroke-width="0.87"
     id="path13"
     style="fill:url(#e);stroke:url(#f)" />
  <path
     d="m 20.1,10 c -5.54,0 -10,4.48 -10,10 0,5.53 4.49,10 10,10 5.54,0 10,-4.48 10,-10 0,-5.53 -4.49,-10 -10,-10 z m 0,16.6 c -3.66,0 -6.63,-2.96 -6.63,-6.62 0,-3.65 2.97,-6.62 6.63,-6.62 3.66,0 6.63,2.96 6.63,6.62 0,3.65 -2.97,6.62 -6.63,6.62 z"
     fill="url(#c)"
     stroke="url(#d)"
     stroke-width="0.87"
     id="path14"
     style="fill:url(#c);stroke:url(#d)" />
  <g
     stroke-linejoin="round"
     id="g17">
    <path
       d="m 54.9,10.2 a 15.4,12.9 0 1 1 -30.7,0 15.4,12.9 0 1 1 30.7,0 z"
       fill="#8cbe8c"
       stroke="#000000"
       stroke-linecap="round"
       transform="matrix(0.712,0,0,0.871,-7.93,11.3)"
       id="path15" />
    <path
       d="m -14.7,38.1 -5.77,3.74 -0.352,-6.87 z"
       fill="#ffffff"
       stroke="#ffffff"
       stroke-width="1.52"
       transform="matrix(1.28,0.0643,-0.0671,1.23,46.4,-25.7)"
       id="path16" />
  </g>
</svg>
