<?xml version="1.0" encoding="UTF-8"?>
<svg id="svg23" width="24" height="24" version="1.1" xmlns="http://www.w3.org/2000/svg" xmlns:cc="http://creativecommons.org/ns#" xmlns:dc="http://purl.org/dc/elements/1.1/" xmlns:rdf="http://www.w3.org/1999/02/22-rdf-syntax-ns#" xmlns:xlink="http://www.w3.org/1999/xlink">
 <metadata id="metadata29">
  <rdf:RDF>
   <cc:Work rdf:about="">
    <dc:format>image/svg+xml</dc:format>
    <dc:type rdf:resource="http://purl.org/dc/dcmitype/StillImage"/>
   </cc:Work>
  </rdf:RDF>
 </metadata>
 <defs id="defs27">
  <linearGradient id="linearGradient920" x1="3.1229" x2="8.2751" y1="12.47" y2="14.921" gradientUnits="userSpaceOnUse">
   <stop id="stop914" stop-color="#bfbfbf" offset="0"/>
   <stop id="stop916" stop-color="#e1e1e1" offset="1"/>
  </linearGradient>
 </defs>
 <path id="path847-3" d="m21.221 4.8049-0.9832 0.43846-3.1634-0.43079-2.5478 0.12861-4.6466-0.55179-3.426 2.2064-1.4454-0.013066-1.161 4.6603-2.873 4.437 3.1441 0.06429 9.5406 2.5722 7.8502-0.56354z" fill="url(#linearGradient920)"/>
 <g id="g952" fill="none" stroke="#aaa" stroke-width=".5">
  <path id="path849-6" d="m13.053 4.7153-3.6737 3.634-2.6583 3.2622-0.99124 1.8178-1.5483 2.315"/>
  <path id="path851-7" d="m17.257 5.0413-4.3932 5.1728-1.8641 2.7215-0.95192 4.1059"/>
  <path id="path853-5" d="m20.238 5.2433-0.4818 3.4229-2.1925 3.0912-2.1557 1.6235-0.75843 2.046-0.73547 2.8896"/>
  <path id="path855-3" d="m4.0595 11.594 2.6619 0.01761 4.2779 1.3241c2.1949-0.35033 4.3777-0.77882 6.5643-1.1782l3.6296 3.2482"/>
  <path id="path857-5" d="m6.2173 6.886 4.0433 0.6004 2.6822 2.5229 6.8133-1.3431 1.7936 1.9438"/>
 </g>
 <path id="path847-3-9" d="m21.221 4.8049-1.4147 0.3306-2.732-0.32293-2.5478 0.12861-4.6466-0.55179-3.426 2.2064-1.4454-0.013066-1.161 4.6603-2.873 4.437 3.1441 0.06429 9.5406 2.5722 7.8502-0.56354z" fill="none" stroke="#9a9a9a" stroke-linecap="round" stroke-linejoin="round"/>
 <g id="g19" transform="matrix(.69231 0 0 .69231 1.8462 1.8462)">
  <rect id="rect11" x="19" y="19" width="13" height="13" rx="2.6149" ry="2.6149" fill="#5a8c5a"/>
  <path id="path13" d="m21.6 25.5h7.8" fill="#fff" fill-rule="evenodd" stroke="#fff" stroke-linecap="round" stroke-linejoin="round" stroke-width="2.6"/>
  <path id="path15" d="m25.5 29.4v-7.8" fill="#fff" fill-rule="evenodd" stroke="#fff" stroke-linecap="round" stroke-linejoin="round" stroke-width="2.6"/>
  <path id="path17" d="m20.3 25.5h10.4v-2.6c0-2.6-0.65-2.6-5.2-2.6s-5.2 0-5.2 2.6v2.6z" fill="#fcffff" fill-rule="evenodd" opacity=".3"/>
 </g>
</svg>
