<svg height="24" viewBox="0 0 24 24" width="24" xmlns="http://www.w3.org/2000/svg"><circle cx="6.042991" cy="11.51405" fill="none" r="5.058033" stroke="#8cbe8c" stroke-width="2.13653"/><circle cx="13.458003" cy="8.390945" fill="none" r="6.419018" stroke="#8cbe8c" stroke-width="2.71142"/><rect fill="#c4a000" height="11" rx="2.01149" width="11" x="13" y="13"/><g fill="#fcffff" transform="translate(33)"><path d="m-15 14v2.0625c-.537663.111041-1.024662.383291-1.375.78125l-1.78125-1.03125-.5.875 1.78125 1.03125c-.082063.247432-.125.506395-.125.78125s.04294.533818.125.78125l-1.78125 1.03125.5.875 1.78125-1.03125c.352503.40042.832682.670182 1.375.78125v2.0625h1v-2.0625c.537663-.111041 1.024662-.383291 1.375-.78125l1.78125 1.03125.5-.875-1.78125-1.03125c.082063-.247432.125-.506395.125-.78125s-.04294-.533818-.125-.78125l1.78125-1.03125-.5-.875-1.78125 1.03125c-.352503-.40042-.832682-.670182-1.375-.78125v-2.0625zm.5 3.5c.552 0 1 .448 1 1s-.448 1-1 1-1-.448-1-1 .448-1 1-1z"/><path d="m-19 19 9-.0096s0 0 0-2c0-2.9904-1-2.9904-4.5-2.9904s-4.5 0-4.5 3z" fill-rule="evenodd" opacity=".3"/></g><path d="m5.5136774 5.11638h3v3h-3z" fill="#b9ffff" stroke="#3c5a6e"/><path d="m9.2104313 12.566545h2.9999997v3h-2.9999997z" fill="#bebebe" stroke="#8c8c8c"/></svg>