<svg xmlns="http://www.w3.org/2000/svg" width="24" height="24" version="1"><path d="M.994 20.406v.392c0 .65.523 1.173 1.173 1.173h19.554a1.17 1.17 0 0 0 1.173-1.173v-.392c0 .65-.054-2.013-.054-2.013l-21.775.424s-.071 2.24-.071 1.59z" opacity=".2"/><rect width="21.9" height="18.772" x=".994" y="2.012" rx="1.173" ry="1.173" fill="#4f4f4f"/><path d="M2.167 2.012A1.17 1.17 0 0 0 .994 3.185v.39c0-.65.523-1.172 1.173-1.172h19.554c.65 0 1.173.523 1.173 1.173v-.391a1.17 1.17 0 0 0-1.173-1.173z" opacity=".1" fill="#fff"/><path d="M3.1 5.399v-1.13L8 7.156v1.03l-4.9 2.888v-1.13l3.937-2.266z" aria-label="&gt;" style="fill:#e6e6e6" font-weight="400" font-size="40" font-family="sans-serif" letter-spacing="0" word-spacing="0" fill="#e6e6e6"/><path fill="#e6e6e6" d="M9 10h4v1H9z"/></svg>