<svg height="24" width="24" xmlns="http://www.w3.org/2000/svg">
<g transform="translate(0 -8)">
<path d="m2.5 13.5h19v13h-19z" fill="#f0f0f0" stroke="#9a9a9a"/>
<g transform="matrix(.69230769 0 0 .69230769 1.8461539 9.8461539)">
<rect fill="#5a8c5a" height="13" rx="2.6149371" ry="2.6149368" width="13" x="19" y="19"/>
<path d="m21.6 25.499999l7.8 0" style="fill:#fff;fill-rule:evenodd;stroke:#fff;stroke-width:2.5999999;stroke-linecap:round;stroke-linejoin:round;overflow:visible"/>
<path d="m25.5 29.399999l0-7.799999" style="fill:#fff;fill-rule:evenodd;stroke:#fff;stroke-width:2.5999999;stroke-linecap:round;stroke-linejoin:round;overflow:visible"/>
<path d="m20.3 25.499999h10.4c0 0 0 0 0-2.6 0-2.599999-.65-2.599999-5.2-2.599999-4.55 0-5.2 0-5.2 2.599999 0 2.6 0 2.6 0 2.6z" fill="#fcffff" fill-rule="evenodd" opacity=".3"/>
</g>
<path d="m12 23.5v-7" fill="none" stroke="#424242"/>
<path d="m15.5 18v-1.5h-7v1.5" fill="none" stroke="#424242"/>
<path d="m11 23.5h2" fill="none" stroke="#424242"/>
</g>
</svg>
