<?xml version="1.0" encoding="UTF-8"?>
<svg width="16" height="16" xmlns="http://www.w3.org/2000/svg">
 <g transform="translate(0 -16)">
  <path d="m1.5 19.5h11v11h-11z" fill="#a5a59b" stroke="#5a5c58" stroke-linecap="round" stroke-linejoin="round"/>
  <path d="m3.5 17.5h11v11h-11z" fill="#eeeeec" stroke="#888a85" stroke-linecap="round" stroke-linejoin="round"/>
  <g transform="matrix(.46154 0 0 .46154 .23078 16.231)">
   <rect x="19" y="19" width="13" height="13" rx="2.6149" ry="2.6149" fill="#c4a000"/>
   <path d="m20.3 25.5h10.4v-2.6c0-2.6-0.65-2.6-5.2-2.6s-5.2 0-5.2 2.6v2.6z" fill="#fcffff" fill-rule="evenodd" opacity=".3"/>
   <path transform="matrix(.60272 0 0 .60366 29.09 29.54)" d="m-6.4567-5.8132v0.76c0 1.04-0.16 1.76-0.64 2.68-0.72 1.56-0.8 1.76-0.8 2.36 0 1.16 0.88 2.12 1.92 2.12 1.08 0 1.92-0.96 1.92-2.16 0-0.4-0.12-0.92-0.4-1.44-0.92-1.96-1-2.28-1-3.56v-0.76l0.64 0.4c0.84 0.48 1.48 1.04 2.04 1.84 1.32 1.8 1.76 2.16 2.84 2.16 1 0 1.8-0.76 1.8-1.76 0-1.24-1.04-2.16-2.6-2.28-1.96-0.12-2.32-0.2-3.56-0.88l-0.64-0.36 0.64-0.36c0.92-0.52 1.6-0.76 2.64-0.8 1.6-0.16 1.72-0.16 2.2-0.36 0.8-0.4 1.32-1.12 1.32-1.96 0-1.04-0.84-1.84-1.88-1.84-0.88 0-1.6 0.44-2.24 1.4-1.12 1.68-1.36 1.92-2.56 2.64l-0.64 0.4v-0.76c0-1 0.16-1.76 0.64-2.68 0.76-1.6 0.8-1.76 0.8-2.32 0-1.2-0.88-2.16-1.96-2.16-1.04 0-1.92 0.96-1.92 2.12 0 0.44 0.12 0.96 0.4 1.48 0.96 2 1.04 2.28 1.04 3.56v0.76l-0.64-0.4c-0.92-0.52-1.44-1.04-2.04-1.88-0.8-1.2-0.8-1.2-1.12-1.52-0.44-0.4-1.08-0.64-1.6-0.64-1.08 0-1.92 0.84-1.92 1.84 0 1.24 1 2.12 2.56 2.24 2.04 0.12 2.36 0.2 3.6 0.88l0.64 0.36-0.64 0.4c-0.84 0.48-1.64 0.72-2.64 0.8-1.56 0.08-1.68 0.12-2.2 0.32-0.8 0.36-1.32 1.12-1.32 1.96 0 1 0.84 1.84 1.88 1.84 0.88 0 1.64-0.48 2.24-1.4 1.08-1.6 1.4-1.96 2.56-2.64z" fill="#fff" stroke="#fff" stroke-width=".49736"/>
  </g>
 </g>
</svg>
