<?xml version="1.0" encoding="UTF-8"?>
<svg viewBox="0 0 24 24" xmlns="http://www.w3.org/2000/svg">
 <radialGradient id="a" cx="421.85" cy="411.71" r="74.362" gradientTransform="matrix(3.005 -.17398 .32376 5.5918 -976.83 -1829.5)" gradientUnits="userSpaceOnUse">
  <stop stop-opacity="0" offset="0"/>
  <stop stop-opacity=".53125" offset="1"/>
  <stop offset="1"/>
 </radialGradient>
 <radialGradient id="b" cx="429.15" cy="399.39" r="74.362" gradientTransform="matrix(1 0 0 1.2002 0 -86.091)" gradientUnits="userSpaceOnUse">
  <stop stop-color="#fff" offset="0"/>
  <stop stop-color="#fff" stop-opacity=".66406" offset=".65625"/>
  <stop stop-color="#fff" stop-opacity=".33594" offset="1"/>
 </radialGradient>
 <g transform="matrix(3.1015 0 0 3.1015 -1027.9 -1746.7)">
  <g transform="matrix(.027207 0 0 .027207 324.91 554.99)">
   <path d="m404.53 340.87c-40.148 1.0159-71.999 27.049-72.469 74.168-.46975 47.111 37.401 37.258 38.406 104.18.007.44807 35.505-.40359 71.669-.0152 1.3142-66.55 38.644-57.648 38.644-104.17.00001-46.522-33.315-74.168-74.344-74.168-.60318 0-1.2311-.0171-1.9062 0" fill="#ffff02" fill-rule="evenodd" stroke="#000" stroke-miterlimit="0" stroke-width="1.25"/>
   <g transform="translate(0 .625)">
    <path d="m375.36 519h62.124v38.386h-62.124z" fill="#b8b8b8" fill-rule="evenodd" stroke="#000" stroke-miterlimit="0" stroke-width="1.25"/>
    <path d="m375.77 520 61.619 5.5558" fill="none" stroke="#626262" stroke-width="2.5"/>
    <path d="m375.77 528 61.619 5.5558" fill="none" stroke="#626262" stroke-width="2.5"/>
    <path d="m375.77 536 61.619 5.5558" fill="none" stroke="#626262" stroke-width="2.5"/>
    <path d="m375.77 551 61.619 5.5558" fill="none" stroke="#626262" stroke-width="2.5"/>
    <path d="m375.77 544 61.619 5.5558" fill="none" stroke="#626262" stroke-width="2.5"/>
   </g>
   <path d="m398.56 560.59h15.728v9.7183h-15.728z" fill="#b8b8b8" fill-rule="evenodd" stroke="#000" stroke-miterlimit="0" stroke-width="1.25"/>
   <path d="m375.04 558.2l62.844-.12627-8.5863 9.2857h-46.429l-7.8287-9.1594z" fill="#282828" fill-rule="evenodd"/>
   <path d="m404.53 340.87c-40.148 1.0159-71.999 27.049-72.469 74.168-.46975 47.111 37.401 37.258 38.406 104.18.007.44807 35.505-.40359 71.669-.0152 1.3142-66.55 38.644-57.648 38.644-104.17.00001-46.522-33.315-74.168-74.344-74.168-.60318 0-1.2311-.0171-1.9062 0" fill="url(#a)" fill-rule="evenodd" opacity=".83051"/>
   <path d="m404.53 340.87c-40.148 1.0159-71.999 27.049-72.469 74.168-.46975 47.111 37.401 37.258 38.406 104.18.007.44807 35.505-.40359 71.669-.0152 1.3142-66.55 38.644-57.648 38.644-104.17.00001-46.522-33.315-74.168-74.344-74.168-.60318 0-1.2311-.0171-1.9062 0" fill="url(#b)" fill-rule="evenodd"/>
  </g>
  <path transform="matrix(.41153 0 0 .40385 330.92 563.38)" d="m17.961 7a5.9612 6.0742 0 1 1-11.922 0 5.9612 6.0742 0 1 1 11.922 0z" fill="#e6e6e6" opacity=".8" stroke="#505050" stroke-dashoffset="7" stroke-linecap="round" stroke-linejoin="round" stroke-width=".75218"/>
  <path d="m333.71 567.74c0 0.61327 0.6133 0.61327 0.6133 0.61327l-2.1466 2.1464-0.6133-0.61325z" fill="#ffcc30" fill-rule="evenodd" stroke="#505050" stroke-linejoin="round" stroke-width=".30664"/>
  <path d="m333.25166 568.20004l.6133-.61327.61331.61327-.61331.61326z" fill-rule="evenodd" stroke="#505050" stroke-linejoin="round" stroke-width=".30664"/>
  <path d="m334.48 564.83c0.61331-0.9199 1.3622-1.042 1.8399-0.61327 0.47769 0.42869-0.6133 0.30664-1.2266 0.9199-0.61331 0.61327 0 1.8398-0.61331 1.8398s-0.61331-1.2265 0-2.1464z" fill="#fcffff" fill-rule="evenodd" opacity=".7"/>
  <path d="m332.03 569.73 1.2266-1.2265" opacity=".5" stroke="#fcffff" stroke-linecap="round" stroke-linejoin="round" stroke-width=".30664"/>
 </g>
</svg>
