<svg height="24" width="24" xmlns="http://www.w3.org/2000/svg"><path d="m2.575 2.575 6.351 15.296 6.985-15.153 5.744-.022" fill="none" stroke="#2b3b4d" stroke-linecap="round" stroke-linejoin="round" stroke-width="1.5"/><path d="m4.257 2.575a1.681 1.681 0 1 1 -3.363 0 1.681 1.681 0 1 1 3.363 0zm6.372 14.495a1.681 1.681 0 1 1 -3.363 0 1.681 1.681 0 1 1 3.363 0zm6.786-14.388a1.681 1.681 0 1 1 -3.363 0 1.681 1.681 0 1 1 3.363 0zm5.921.014a1.681 1.681 0 1 1 -3.363 0 1.681 1.681 0 1 1 3.363 0z" fill="#eeeeec" fill-rule="evenodd" stroke="#2b3b4d" stroke-linecap="round" stroke-linejoin="round"/><g transform="matrix(.6923 0 0 .6923 1.846 1.846)"><rect fill="#5a8c5a" height="13" rx="2.615" width="13" x="19" y="19"/><g fill-rule="evenodd"><path d="m21.6 25.5h7.8m-3.9 3.9v-7.8" fill="#fff" stroke="#fff" stroke-linecap="round" stroke-linejoin="round" stroke-width="2.6"/><path d="m20.3 25.5h10.4v-2.6c0-2.6-.65-2.6-5.2-2.6s-5.2 0-5.2 2.6z" fill="#fcffff" opacity=".3"/></g></g></svg>