<?xml version="1.0" encoding="UTF-8"?>
<svg id="svg39" width="24" height="24" version="1.1" xmlns="http://www.w3.org/2000/svg" xmlns:cc="http://creativecommons.org/ns#" xmlns:dc="http://purl.org/dc/elements/1.1/" xmlns:rdf="http://www.w3.org/1999/02/22-rdf-syntax-ns#">
 <metadata id="metadata45">
  <rdf:RDF>
   <cc:Work rdf:about="">
    <dc:format>image/svg+xml</dc:format>
    <dc:type rdf:resource="http://purl.org/dc/dcmitype/StillImage"/>
    <dc:title/>
   </cc:Work>
  </rdf:RDF>
 </metadata>
 <linearGradient id="a" x1="33.051" x2="4.6238" y1="35.071" y2="4.7283" gradientTransform="matrix(.78185 0 0 .78187 -.53814 -.51054)" gradientUnits="userSpaceOnUse">
  <stop id="stop2" stop-color="#6e97c4" offset="0"/>
  <stop id="stop4" stop-color="#ecedef" offset="1"/>
 </linearGradient>
 <path id="path7" d="m2.7635 1.2487h18.416c0.8579 0 1.5425 0.68876 1.5425 1.5519v18.372c0 0.8631-0.68461 1.5777-1.5425 1.5777h-18.416c-0.8579 0-1.5425-0.71462-1.5425-1.5777v-18.372c0-0.8631 0.68461-1.5519 1.5425-1.5519z" fill="url(#a)" overflow="visible" stroke="#2e4e72" stroke-width=".5"/>
 <path id="path9" d="m2.1983 2.226 6.2548 15.637 7.0367-15.637h6.2548" fill="none" stroke="#415a75" stroke-linecap="round" stroke-linejoin="round" stroke-width="1.5"/>
 <ellipse id="ellipse11" cx="8.4532" cy="17.863" rx="1.9546" ry="1.9547" fill="#eeeeec" fill-rule="evenodd" stroke="#415a75" stroke-linecap="round" stroke-linejoin="round"/>
 <path id="path13" d="m4.2027 1.2809-0.37475 2.1209-1.1161 0.80946-1.3926 0.21717 0.042745-1.9978 0.47536-0.84739 0.88167-0.22322z" fill="#eeeeec" fill-rule="evenodd"/>
 <path id="path15" d="m2.6595 1.1005c-0.037307 0-0.071813 0.00812-0.10842 0.01069 0.47848 0.14739 0.82003 0.58209 0.82003 1.1148 0 0.65698-0.51581 1.1728-1.1728 1.1728-0.49273 0-0.90529-0.29091-1.0812-0.71315v2.0493c0.33253 0.14486 0.69764 0.22754 1.0812 0.22754 1.5021 0 2.7365-1.2344 2.7365-2.7365 0-0.40148-0.094052-0.78068-0.25196-1.1255z" fill="#415a75" fill-rule="evenodd" overflow="visible"/>
 <path id="path17" d="m13.692 1.2803 0.17344 1.8677 2.055 1.0511 1.5208-0.39247 0.54384-2.5751z" fill="#eeeeec" fill-rule="evenodd"/>
 <path id="path19" d="m12.943 1.2487c-0.1184 0.30491-0.18935 0.63252-0.18935 0.97733 0 1.5021 1.2344 2.7365 2.7365 2.7365 1.5021 0 2.7365-1.2344 2.7365-2.7365 0-0.34482-0.07248-0.67242-0.19089-0.97733h-1.892c0.31472 0.20834 0.5192 0.56425 0.5192 0.97733 0 0.65698-0.51581 1.1728-1.1728 1.1728-0.65698 0-1.1728-0.51582-1.1728-1.1728 0-0.4131 0.20446-0.769 0.5192-0.97733z" fill="#415a75" fill-rule="evenodd" overflow="visible"/>
 <path id="path21" d="m20.269 1.2949 0.38579 2.1281 2.0347 0.84118-0.037451-2.0789-0.46979-0.5651-0.75033-0.29097z" fill="#eeeeec" fill-rule="evenodd"/>
 <path id="path23" d="m19.981 1.2487c-0.11835 0.30485-0.19088 0.6326-0.19088 0.97733 0 1.5021 1.2344 2.7365 2.7365 2.7365 0.06675 0 0.12986-0.015061 0.19546-0.019852v-1.5637c-0.06362 0.010317-0.12851 0.019852-0.19546 0.019852-0.65697 0-1.1728-0.51582-1.1728-1.1728 0-0.34961 0.14914-0.65723 0.38482-0.87044-0.17333-0.067121-0.36079-0.1069-0.5589-0.1069z" fill="#415a75" fill-rule="evenodd" overflow="visible"/>
 <path id="path25" d="m2.7635 1.2487h18.416c0.8579 0 1.5425 0.68876 1.5425 1.5519v18.372c0 0.8631-0.68461 1.5777-1.5425 1.5777h-18.416c-0.8579 0-1.5425-0.71462-1.5425-1.5777v-18.372c0-0.8631 0.68461-1.5519 1.5425-1.5519z" fill="none" overflow="visible" stroke="#2e4e72" stroke-width=".5"/>
 <g id="g74" transform="matrix(.692 0 0 .692 1.86 1.82)">
  <rect id="rect68" x="19" y="19" width="13" height="13" rx="2.61" ry="2.61" fill="#c4a000"/>
  <path id="path70" d="m20.3 25.5h10.4v-2.6c0-2.6-0.65-2.6-5.2-2.6s-5.2 0-5.2 2.6z" fill="#fcffff" fill-rule="evenodd" opacity=".3"/>
  <path id="path72" transform="matrix(.603 0 0 .604 29.1 29.5)" d="m-6.46-5.81v0.76c0 1.04-0.16 1.76-0.64 2.68-0.72 1.56-0.8 1.76-0.8 2.36 0 1.16 0.88 2.12 1.92 2.12 1.08 0 1.92-0.96 1.92-2.16 0-0.4-0.12-0.92-0.4-1.44-0.92-1.96-1-2.28-1-3.56v-0.76l0.64 0.4c0.84 0.48 1.48 1.04 2.04 1.84 1.32 1.8 1.76 2.16 2.84 2.16 1 0 1.8-0.76 1.8-1.76 0-1.24-1.04-2.16-2.6-2.28-1.96-0.12-2.32-0.2-3.56-0.88l-0.64-0.36 0.64-0.36c0.92-0.52 1.6-0.76 2.64-0.8 1.6-0.16 1.72-0.16 2.2-0.36 0.8-0.4 1.32-1.12 1.32-1.96 0-1.04-0.84-1.84-1.88-1.84-0.88 0-1.6 0.44-2.24 1.4-1.12 1.68-1.36 1.92-2.56 2.64l-0.64 0.4v-0.76c0-1 0.16-1.76 0.64-2.68 0.76-1.6 0.8-1.76 0.8-2.32 0-1.2-0.88-2.16-1.96-2.16-1.04 0-1.92 0.96-1.92 2.12 0 0.44 0.12 0.96 0.4 1.48 0.96 2 1.04 2.28 1.04 3.56v0.76l-0.64-0.4c-0.92-0.52-1.44-1.04-2.04-1.88-0.8-1.2-0.8-1.2-1.12-1.52-0.44-0.4-1.08-0.64-1.6-0.64-1.08 0-1.92 0.84-1.92 1.84 0 1.24 1 2.12 2.56 2.24 2.04 0.12 2.36 0.2 3.6 0.88l0.64 0.36-0.64 0.4c-0.84 0.48-1.64 0.72-2.64 0.8-1.56 0.08-1.68 0.12-2.2 0.32-0.8 0.36-1.32 1.12-1.32 1.96 0 1 0.84 1.84 1.88 1.84 0.88 0 1.64-0.48 2.24-1.4 1.08-1.6 1.4-1.96 2.56-2.64z" fill="#fff" stroke="#fff" stroke-width=".497"/>
 </g>
</svg>
