<svg height="24" width="24" xmlns="http://www.w3.org/2000/svg">
<g transform="translate(0 -8)">
<path d="m16.5 8.5c0 4.418278-3.581722 8-8 8-4.418278 0-8-3.581722-8-8 0-4.418278 3.581722-8 8-8 4.418278 0 8 3.581722 8 8z" style="fill:#edd400;stroke:#edd400;stroke-width:1.4545455;stroke-linecap:round;stroke-linejoin:round;overflow:visible" transform="matrix(.68750004 0 0 .68750004 6.1562497 14.15625)"/>
<rect fill="#4e9a06" height="11" opacity=".9" rx="2.0114901" width="11" x="13" y="21"/>
<path d="m15.5 23.5l3 6 3-6-6 0z" style="opacity:.9;fill:#fff;stroke:#fff;stroke-linecap:round;stroke-linejoin:round;overflow:visible"/>
<path d="m14 27l9-.0096c0 0 0 0 0-2 0-2.9904-1-2.9904-4.5-2.9904-3.5 0-4.5 0-4.5 3 0 2 0 2 0 2z" fill="#fcffff" fill-rule="evenodd" opacity=".3"/>
<path d="m1.5 20l3 0" style="opacity:.9;fill:#edd400;stroke:#edd400;stroke-width:1.5;stroke-linecap:round;stroke-linejoin:round;overflow:visible"/>
<path d="m19.5 20l3 0" style="opacity:.9;fill:#edd400;stroke:#edd400;stroke-width:1.5;stroke-linecap:round;stroke-linejoin:round;overflow:visible"/>
<path d="m12 9.5l0 3" style="opacity:.9;fill:#edd400;stroke:#edd400;stroke-width:1.5;stroke-linecap:round;stroke-linejoin:round;overflow:visible"/>
<path d="m12 27.5l0 3" style="opacity:.9;fill:#edd400;stroke:#edd400;stroke-width:1.5;stroke-linecap:round;stroke-linejoin:round;overflow:visible"/>
<path d="m4.7928932 12.792893l1.4142136 1.414214" style="opacity:.9;fill:#edd400;stroke:#edd400;stroke-width:1.5;stroke-linecap:round;stroke-linejoin:round;overflow:visible"/>
<path d="m5.0857862 27l1.414214-1.414214" style="opacity:.9;fill:#edd400;stroke:#edd400;stroke-width:1.5;stroke-linecap:round;stroke-linejoin:round;overflow:visible"/>
<path d="m17.585786 14.414214l1.414214-1.414214" style="opacity:.9;fill:#edd400;stroke:#edd400;stroke-width:1.5;stroke-linecap:round;stroke-linejoin:round;overflow:visible"/>
</g>
</svg>
