<svg enable-background="new" height="24" width="24" xmlns="http://www.w3.org/2000/svg" xmlns:xlink="http://www.w3.org/1999/xlink"><filter id="a" color-interpolation-filters="sRGB"><feFlood flood-opacity=".5" result="flood"/><feComposite in="flood" in2="SourceGraphic" operator="in" result="composite1"/><feGaussianBlur result="blur" stdDeviation="2"/><feOffset dx="1.5" dy="1.5" result="offset"/><feComposite in="SourceGraphic" in2="offset" result="composite2"/></filter><clipPath id="b"><path d="m41.456 282.456h170.306v157.495h-170.306z"/></clipPath><g clip-path="url(#b)" filter="url(#a)" stroke-width=".719" transform="matrix(.09395 0 0 .1016 .105 -25.695)"><path d="m17.678 270.142h218.192v181.828h-218.192z" fill="#b9df4f" stroke="#f4e9d4" stroke-width="4.527"/><path d="m149.643 297.429 56.786 46.071-47.143 61.071-58.572-48.571z" fill="#159401" stroke="#000"/><g stroke="#fcfcb4"><path d="m7.87 281.042 204.507 168.257" fill="#fcfc48" stroke-width="11.072"/><path d="m67.68 331.256-70.71 86.368" fill="none" stroke-width="7.186"/><path d="m157.584 406.513 106.57-134.856" fill="none" stroke-width="3.593"/><path d="m100.005 358.53 81.317-100.005" fill="none" stroke-width="7.186"/><path d="m150.008 297.416 56.568 45.962 19.193 103.036" fill="none" stroke-width="3.593"/></g><path d="m118.188 375.703-112.632 31.315" fill="none" stroke="#fcfcb0" stroke-width="3.593"/></g><path d="m2.5 1.5h19v19h-19z" fill="none" opacity=".579" stroke="#159401"/><rect fill="#3c5a6e" height="11" rx="2.01" width="11" x="13" y="13"/><path d="m14 19 9-.01v-2c0-2.99-1-2.99-4.5-2.99s-4.5 0-4.5 3z" fill="#fcffff" fill-rule="evenodd" opacity=".3"/><g fill="none" stroke="#fff" stroke-linecap="round" stroke-linejoin="round"><path d="m17.7 15.75h-2.5v5.5h2.5" stroke-width="1.5"/><path d="m19.493 20.48-1.5-1.99 1.5-1.99m3.007 1.98h-3.397"/></g></svg>