<?xml version="1.0" encoding="UTF-8"?>
<svg width="16" height="16" version="1.1" xml:space="preserve" xmlns="http://www.w3.org/2000/svg"><g fill="none" stroke="#555" stroke-dashoffset="3" stroke-linecap="round" stroke-width="2"><path d="m1 10.104c1.0261-1.4376 0.85887-2.5083 0.93806-3.6547 0.04493-1.9019 1.7774-6.1798 7.392-5.3474 5.8599 1.1946 6.0618 5.7292 5.4033 10.772"/><path d="m3.2076 12.601c1.0254-1.3354 1.3352-2.926 1.4893-4.0965 0.1837-2.1095 1.0723-3.8576 1.8516-3.9504"/><path d="m9.205 4.1187c2.881 0.66462 3.0912 3.8443 2.9786 5.5447"/><path d="m12.003 12.075c-0.06085 0.50495-0.12515 1.5543-1.0345 2.9249"/><path d="m7.5484 14.929c0.92568-2.0887 2.1082-3.4638 2.1352-5.9374-0.22421-1.0988-1.4786-2.3054-2.3487-1.2018-0.36052 0.53075-0.55027 2.7805-0.79694 3.4874"/></g></svg>
