<?xml version="1.0" encoding="UTF-8"?>
<svg width="16" height="16" version="1.1" xml:space="preserve" xmlns="http://www.w3.org/2000/svg"><path d="m14.983 6.3249h-0.59274c-0.1598 0-0.34403-0.133-0.3949-0.28403-0.0028-0.0078-0.36726-0.88935-0.36726-0.88935-0.0749-0.15063-0.03873-0.37497 0.07409-0.48874l0.41652-0.41663c0.09612-0.096152 0.14939-0.22474 0.14939-0.36135s-0.05327-0.2652-0.14939-0.36135l-1.6461-1.6465c-0.09612-0.096152-0.22428-0.14943-0.36125-0.14943s-0.26513 0.052885-0.36125 0.14943l-0.41652 0.41663c-0.11294 0.11297-0.33722 0.14903-0.4806 0.077716-0.008007-0.0036487-0.88911-0.36776-0.88911-0.36776-0.1594-0.053686-0.29237-0.23836-0.29237-0.3978v-0.5929c-3.486e-4 -0.28203-0.22949-0.51278-0.51264-0.51278h-2.3269c-0.28195 0-0.51264 0.22915-0.51264 0.51278v0.5929c0 0.15984-0.13297 0.34452-0.28396 0.395-0.0078 0.0029392-0.88911 0.36736-0.88911 0.36736-0.15099 0.074909-0.37487 0.038655-0.48861-0.074108l-0.41652-0.41663c-0.096122-0.096152-0.22468-0.14943-0.36125-0.14943-0.13697 0-0.26513 0.05328-0.36125 0.14943l-1.6461 1.6465c-0.19905 0.1991-0.19905 0.5248 0 0.7211l0.41652 0.41663c0.11254 0.11297 0.14899 0.33691 0.077696 0.48073-0.0036487 0.0080068-0.36806 0.88935-0.36806 0.88935-0.053666 0.15944-0.2383 0.29204-0.3977 0.29204h-0.43654c-0.28155-1.227e-4 -0.66483 0.22915-0.66483 0.51278v2.3275c0 0.28163 0.22909 0.51278 0.51264 0.51278h0.59274c0.1598 0 0.34403 0.1326 0.39489 0.28403 0.00294 0.00784 0.36726 0.88935 0.36726 0.88935 0.074889 0.15063 0.038605 0.37497-0.074088 0.48874l-0.41652 0.41663c-0.19905 0.1991-0.19905 0.5248 0 0.7211l1.6461 1.6465c0.096122 0.09615 0.22428 0.14943 0.36125 0.14943s0.26513-0.05288 0.36125-0.14943l0.41652-0.41663c0.11294-0.11297 0.33682-0.14943 0.4806-0.07772 0.00801 0.0035 0.88911 0.36776 0.88911 0.36776 0.159 0.05369 0.29197 0.23836 0.29197 0.3978v0.5929c0 0.28203 0.22909 0.51278 0.51264 0.51278h2.3269c0.28155 0 0.51264-0.22915 0.51264-0.51278v-0.5929c0-0.15984 0.13297-0.34452 0.28436-0.395 0.0078-0.0028 0.88911-0.36736 0.88911-0.36736 0.15099-0.07491 0.37487-0.03853 0.48861 0.07411l0.41652 0.41663c0.09612 0.09614 0.22428 0.14943 0.36125 0.14943s0.26513-0.05288 0.36125-0.14943l1.6461-1.6465c0.09612-0.09614 0.14939-0.22434 0.14939-0.36135s-0.05327-0.2652-0.14939-0.36135l-0.41652-0.41663c-0.11294-0.11297-0.14899-0.33731-0.0777-0.48073 0.0036-0.0081 0.36806-0.88935 0.36806-0.88935 0.05367-0.15944 0.2383-0.29204 0.3977-0.29204h0.59274c0.28196 0 0.51265-0.22915 0.51265-0.51278v-2.3275c3.84e-4 -0.28203-0.22869-0.51278-0.50864-0.51278zm-6.9687 4.0061c-1.3016 0-2.359-1.0576-2.359-2.3556s1.0573-2.3556 2.359-2.3556c1.3016 0 2.359 1.0576 2.359 2.3556s-1.0573 2.3556-2.359 2.3556z" fill="#b4b4b4" fill-opacity=".2" stroke="#555" stroke-linecap="round" stroke-linejoin="round"/><ellipse cx="8" cy="8" rx="4" ry="4" fill="#9a9a9a"/><path d="m9.9221 8.0934-3.0177 1.6717 0.0041-3.349z" fill="#fff" stroke="#fff" stroke-linejoin="round" stroke-width="1.91"/></svg>
