<svg xmlns="http://www.w3.org/2000/svg" xmlns:xlink="http://www.w3.org/1999/xlink" width="24" height="24"><defs><path id="a" d="M10.142 13.944L0 7.892V.128L10.142 6.18z"/><path id="b" d="M20.283 13.944L10.142 7.892V.128L20.283 6.18z"/></defs><g transform="matrix(-1.07085 0 0 -1.07027 22.8 15.3)" fill="none" fill-rule="evenodd" stroke-width=".934"><use height="100%" width="100%" xlink:href="#a" fill="#806600"/><path d="M.25.569v7.18l9.642 5.754v-7.18z" stroke="#000" stroke-width=".467"/><g transform="matrix(-1 0 0 1 30.425 0)"><use height="100%" width="100%" xlink:href="#b" fill="#806600"/><path d="M10.392.569v7.18l9.641 5.754v-7.18z" stroke="#000" stroke-width=".467"/></g></g><g transform="matrix(1.07085 0 0 1.07027 3.867 -.293)" fill="none" fill-rule="evenodd" stroke-width=".934"><circle r="7.599" cy="7.876" cx="7.627" fill="#6e96c4"/><g transform="translate(.95 1.199)"><circle r="6.536" cy="6.598" cx="6.73" fill="#2e4e72"/><path d="M12.463 4.246l-.17-.188-.033-.301-.175.095-.094.37-.253-.27-.01-.254-.244-.21-.09-.09h-.284l.09.253.34.19.06.063-.074.037.003.2-.166.069-.141-.031-.09-.126.23.013.063-.084-.51-.344-.04-.148-.207.188-.21-.043-.32.416-.063.163-.205.019-.303.001-.181-.084-.053-.36.064-.171.309-.068.336.068.04-.186-.142-.034.05-.29.337-.052.237-.335.243-.04.221.032h.081l-.044-.314-.268.108-.094-.234-.156-.022-.03-.161.128-.139.301-.118.078-.138A6.525 6.525 0 0 0 7.947.182L7.868.168C7.748.146 7.626.13 7.503.116a6.557 6.557 0 0 0-.797-.054 6.504 6.504 0 0 0-3.842 1.252h.056l.274-.002.147.081.277.06.021.109.44.016-.06-.141-.39-.011.092-.087-.033-.103h-.353l.386-.289h.37l.173.24.289.016.173-.169.13.066-.238.233-.316.006c.017 0 .028.228.028.228l.402-.01.043-.11.277-.016.033-.162-.163-.028.054-.147.125-.038.435.021-.24.218.039.169.25.038-.017-.304.24-.125.424-.05.614.272v.234l.195.049-.098.185h-.276l-.083.211-.634-.149.498-.265-.19-.161-.429.054-.038.039H5.79l-.006.008-.124.128-.204.017.017.102.071.03-.003.033-.166.024-.012.097-.16.008-.028-.192-.286.087-.582.342.064.24.163.106.326.045v.37l.15-.024.14-.29.347-.109v-.445l.192-.145.467.11-.034.294h.126l.342-.169.017.386.25.152-.011.229-.24.08.017.077.288.13-.006.158-.083.007-.001-.004-.364-.112-.015-.117.106-.073v-.106l-.114-.029-.028.098-.201.031-.02-.007v.01l-.07.011-.056-.114-.065-.029H5.85l-.065.054v.118l.122.04.121.017-.027.012-.11.122-.048-.06-.107-.029-.29.273.039.03-.428.237-.403.419-.027.186-.403.265-.2.201.023.402-.278-.13.002-.234h-.77l-.4.202-.174.32-.069.254.113.246.314.038.5-.335.044.166-.152.288.38.065.039.588.048.008h.004l.47.08.33-.382.403.081.141.197.386-.023.01-.114.213.103.24.374.412.006.153.267.021.325.457.174.576.006.168.277.256.082-.05.228-.28.356-.08.787-.254.2-.374-.012-.126.218.093.408-.407.522-.131.24-.389.186-.255.039-.01.108.179.052-.023.116-.16.155.098.123.193.006-.011.149-.051.147-.017.12.286.24-.038.125-.39-.007-.387-.338L5 11.79l.042-.512-.228-.304.092-.516-.135-.039V9.3s-.381-.288-.403-.288c-.022 0-.201-.048-.201-.048l-.038-.212-.495-.62.05-.222.016-.364.342-.24-.049-.408-.5-.037-.391-.446-.277-.076-.18-.033.022-.163-.229-.032v.092l-.57-.141-.23-.352.08-.144-.095-.001-.028-.092.067-.034-.292-.426-.062-.386H1.16L1.21 5l.25.386-.028.153-.212-.033-.26-.444v-.518l-.272-.13v-.373a6.472 6.472 0 0 0-.36 1.124l.014-.003.09-.018.053.255.112.181.075.085.135.053-.127.152-.247.024H.247l.02-.22.155-.032-.013-.104-.128-.08-.01-.008A6.55 6.55 0 0 0 .167 6.6v.035a6.547 6.547 0 0 0 6.54 6.505 6.53 6.53 0 0 0 5.072-2.417h-.215v-.435l-.25-.336V9.43l-.191-.19-.016-.217.24-.463-.458-.81.054-.548-.412-.043-.153-.152h-.277l-.141.13H9.47l-.017.044h-.272l-.624-.712.005-.555.103-.038.039-.212h-.147l-.06-.223.723-.522v-.37l.354-.196.143.015h.29l.23-.123.733-.057v.375l.58.147.113.082h.106v-.204l.335-.033.317.237h.522l.036-.034a6.44 6.44 0 0 0-.176-.518z" fill="#aec7e2" fill-rule="nonzero"/></g></g><g fill="none" fill-rule="evenodd" stroke-width=".934"><path fill="#d4aa00" d="M11.942 13.8v9.093L1.234 15.997V7.152z"/><path fill="#ffff7a" d="M11.942 13.793v9.1l10.709-6.896V7.152z"/><path d="M10 6.75v7.77" stroke="#000" stroke-width=".467" stroke-linecap="square" transform="matrix(1.07085 0 0 1.07027 1.234 7.006)"/><path stroke="#000" stroke-width=".467" d="M.015.232v8.171l10.022 6.266 10.041-6.266V.232L10.047 6.339z" transform="matrix(1.07085 0 0 1.07027 1.234 7.006)"/></g></svg>
