<svg xmlns="http://www.w3.org/2000/svg" xmlns:xlink="http://www.w3.org/1999/xlink" xml:space="preserve" width="16" height="16"><defs><linearGradient id="d"><stop offset="0" style="stop-color:#cbd9ef;stop-opacity:1"/><stop offset="1" style="stop-color:#93b1d1;stop-opacity:1"/></linearGradient><linearGradient id="c"><stop offset="0" style="stop-color:#ccdaef;stop-opacity:1"/><stop offset="1" style="stop-color:#b3c5dd;stop-opacity:1"/></linearGradient><linearGradient id="b"><stop offset="0" style="stop-color:#aec3dc;stop-opacity:1"/><stop offset="1" style="stop-color:#8babcd;stop-opacity:1"/></linearGradient><linearGradient id="a"><stop offset="0" style="stop-color:#aec5df;stop-opacity:1"/><stop offset="1" style="stop-color:#89aad1;stop-opacity:1"/></linearGradient><linearGradient xlink:href="#d" id="e" x1="5.406" x2="13.188" y1="4.938" y2="11.531" gradientUnits="userSpaceOnUse"/></defs><path d="M7.729 3.634a3.503 3.503 0 0 0-3.45 3.476v.168l-.158-.045a1.661 1.661 0 0 0-1.744.547 1.659 1.659 0 0 0-.336 1.385l.016.076-.06.047a1.54 1.54 0 0 0 .958 2.742H13.28c.776 0 1.43-.579 1.525-1.35.15-1.222-.852-1.502-1.205-1.646.25-.797-.023-1.331-.508-1.972a2.181 2.181 0 0 0-1.68-.786h-.091l-.141.01-.027-.097h.002a3.504 3.504 0 0 0-3.426-2.555Z" style="stroke:#476280;stroke-width:1;stroke-linecap:round;stroke-linejoin:miter;stroke-opacity:1;stroke-dasharray:none;fill-opacity:1;fill:url(#e)"/><path d="M4.254 7.071c.099.854.09 1.11.42 1.757M14.355 9.43c-.64-.627-2.027-.672-2.027-.672" style="fill:none;fill-opacity:1;stroke:#476280;stroke-width:1;stroke-linecap:round;stroke-linejoin:miter;stroke-dasharray:none;stroke-opacity:1"/></svg>