<?xml version="1.0" encoding="UTF-8"?>
<svg width="24" height="24" xmlns="http://www.w3.org/2000/svg">
 <filter id="a" x="-.25" y="-.25" width="1.5" height="1.5" color-interpolation-filters="sRGB">
  <feGaussianBlur in="SourceAlpha" result="blur" stdDeviation="2"/>
  <feColorMatrix result="bluralpha" values="1 0 0 0 0 0 1 0 0 0 0 0 1 0 0 0 0 0 0.351000 0"/>
  <feOffset dx="7.5" dy="7.5" in="bluralpha" result="offsetBlur"/>
  <feMerge>
   <feMergeNode in="offsetBlur"/>
   <feMergeNode in="SourceGraphic"/>
  </feMerge>
 </filter>
 <g transform="translate(0 -8)" stroke-linecap="round" stroke-width="1.5149">
  <path d="m22.595 22.66c-2.8635 0.56981-3.0603-0.36547-3.0603-0.36547 3.0234-4.3279 4.2873-9.8214 3.1966-11.166-2.9755-3.6676-8.1263-1.9331-8.2122-1.888l-0.02764 0.00478c-0.56574-0.1133-1.1989-0.18079-1.9104-0.19199-1.2957-0.020481-2.2785 0.32769-3.0243 0.87328 0 0-9.1885-3.6517-8.7611 4.5927 0.090914 1.7539 2.6058 13.271 5.6055 9.7923 1.0964-1.272 2.1557-2.3476 2.1557-2.3476 0.52617 0.33719 1.156 0.50919 1.8164 0.44741l0.05126-0.04199c-0.01596 0.15794-0.0079 0.31242 0.0206 0.49529-0.77277 0.83291-0.5457 0.97916-2.0905 1.2859-1.5631 0.31077-0.64486 0.86406-0.045311 1.0086 0.72683 0.17535 2.4084 0.42374 3.5445-1.1106l-0.04535 0.17507c0.30279 0.23394 0.5154 1.5218 0.47977 2.6892-0.03565 1.1675-0.05943 1.969 0.17914 2.595 0.23858 0.62605 0.47636 2.0347 2.5071 1.6149 1.6969-0.3508 2.5762-1.2599 2.6986-2.7763 0.0868-1.0781 0.28326-0.91869 0.29567-1.8825l0.15757-0.4563c0.18171-1.4614 0.02887-1.9328 1.0743-1.7136l0.25406 0.02154c0.76947 0.03372 1.7765-0.11939 2.3676-0.38441 1.2727-0.56982 2.0276-1.5212 0.77265-1.2712h1.15e-4z" fill="#6e97c4" stroke="#415a75" stroke-linejoin="round"/>
  <path d="m11.977 23.497c-0.07882 2.7192 0.01983 5.4574 0.29562 6.1229 0.27598 0.66548 0.86658 1.9598 2.8975 1.5401 1.6967-0.35092 2.3141-1.03 2.582-2.529 0.1973-1.1028 0.57768-4.1656 0.62646-4.7932" fill="#6e97c4" stroke="#476280" stroke-linejoin="round"/>
  <path d="m9.5429 9.8657s-9.1947-3.6254-8.7673 4.619c0.090906 1.7539 2.606 13.271 5.6057 9.7925 1.0962-1.2722 2.0875-2.27 2.0875-2.27" fill="#6e97c4" stroke="#476280" stroke-linejoin="round"/>
  <path d="m14.509 9.204c-0.31827 0.096267 5.1147-1.916 8.2023 1.8901 1.0906 1.3446-0.17322 6.8381-3.1966 11.166" fill="#6e97c4" stroke="#476280" stroke-linejoin="round"/>
  <path d="m19.515 22.26s0.19702 0.93556 3.0606 0.36536c1.2546-0.24998 0.49959 0.7015-0.77288 1.2716-1.0443 0.46756-3.3856 0.58738-3.4239-0.05871-0.09835-1.667 1.2323-1.1606 1.1362-1.5782-0.08678-0.37618-0.68192-0.74538-1.0756-1.6661-0.34366-0.8036-4.7132-6.9661 1.2118-6.0509 0.21706-0.04333-1.5453-5.4368-7.0903-5.5245-5.5437-0.087701-5.3618 6.5769-5.3618 6.5769" fill="#6e97c4" stroke="#466280" stroke-linejoin="bevel"/>
  <path d="m10.425 22.83c-0.77289 0.83287-0.54558 0.97911-2.0905 1.286-1.5631 0.31083-0.64474 0.864-0.045371 1.0085 0.72683 0.17546 2.4084 0.42385 3.5445-1.1109 0.34599-0.46729-2e-3 -1.2129-0.47733-1.403-0.22964-0.09178-0.5367-0.20676-0.93136 0.21933z" fill="#6e97c4" stroke="#476280" stroke-linejoin="round"/>
  <path d="m10.375 22.816c-0.07788-0.48968 0.16679-1.0724 0.429-1.7541 0.39404-1.0229 1.3032-2.0459 0.57592-5.2906-0.5421-2.4179-4.1781-0.5032-4.1804-0.17535-0.00224 0.32774 0.16446 1.6618-0.060736 3.2152-0.29385 2.0271 1.3371 3.7416 3.2151 3.5662" fill="#6e97c4" stroke="#476280" stroke-linejoin="round"/>
  <path d="m19.651 14.543c0.0491 0.87834-0.19611 1.4766-0.22702 2.4116-0.04581 1.3591 0.67167 2.9146-0.40935 4.4721" fill="#7eb2e5" stroke="#476280" stroke-linejoin="round"/>
 </g>
</svg>
