<svg xmlns="http://www.w3.org/2000/svg" viewBox="0 0 22 22">
  <defs id="defs3051">
    <style type="text/css" id="current-color-scheme">
      .ColorScheme-Text {
        color:#4d4d4d;
      }
      </style>
  </defs>
 <path 
    style="fill:currentColor;fill-opacity:1;stroke:none" 
    d="M 6 3 L 6 5 L 5 5 L 5 6 L 3 6 L 3 7 L 5 7 L 5 9 L 3 9 L 3 10 L 5 10 L 5 12 L 3 12 L 3 13 L 5 13 L 5 15 L 3 15 L 3 16 L 5 16 L 5 17 L 6 17 L 6 19 L 7 19 L 7 17 L 9 17 L 9 19 L 10 19 L 10 17 L 12 17 L 12 19 L 13 19 L 13 17 L 15 17 L 15 19 L 16 19 L 16 17 L 17 17 L 17 16 L 19 16 L 19 15 L 17 15 L 17 13 L 19 13 L 19 12 L 17 12 L 17 10 L 19 10 L 19 9 L 17 9 L 17 7 L 19 7 L 19 6 L 17 6 L 17 5 L 16 5 L 16 3 L 15 3 L 15 5 L 13 5 L 13 3 L 12 3 L 12 5 L 10 5 L 10 3 L 9 3 L 9 5 L 7 5 L 7 3 L 6 3 z "
    class="ColorScheme-Text"
    />  
</svg>
