<?xml version="1.0" encoding="UTF-8"?>
<svg width="64" height="64" xmlns="http://www.w3.org/2000/svg" xmlns:xlink="http://www.w3.org/1999/xlink">
 <linearGradient id="a" x1="304.76" x2="335.3" y1="64.295" y2="81.926" gradientTransform="matrix(0 2.0368 2.0201 0 -107.82 -632.18)" gradientUnits="userSpaceOnUse">
  <stop stop-color="#d3d7cf" offset="0"/>
  <stop stop-color="#babdb6" offset=".18304"/>
  <stop stop-color="#fff" offset=".31893"/>
  <stop stop-color="#babdb6" offset=".87644"/>
  <stop stop-color="#eeeeec" offset="1"/>
 </linearGradient>
 <linearGradient id="b" x1="302.29" x2="308.65" y1="58.443" y2="60.768" gradientTransform="matrix(0 2.0368 2.0201 0 -107.82 -632.18)" gradientUnits="userSpaceOnUse">
  <stop stop-color="#babdb6" offset="0"/>
  <stop stop-color="#fff" offset="1"/>
 </linearGradient>
 <linearGradient id="c" x1="326.6" x2="317.16" y1="75.575" y2="88.006" gradientTransform="matrix(0 2.0368 2.0201 0 -107.82 -632.18)" gradientUnits="userSpaceOnUse">
  <stop stop-color="#fff" offset="0"/>
  <stop stop-color="#fff" stop-opacity="0" offset="1"/>
 </linearGradient>
 <linearGradient id="d">
  <stop offset="0"/>
  <stop stop-opacity="0" offset="1"/>
 </linearGradient>
 <linearGradient id="e" x1="-6.3078" x2="-9.7747" y1="44.229" y2="44.14" gradientTransform="matrix(-.82894 .83728 1.0804 1.0947 -9.1547 3.7468)" gradientUnits="userSpaceOnUse" xlink:href="#d"/>
 <linearGradient id="f" x1="97.442" x2="90.221" y1="35.152" y2="35.079" gradientTransform="matrix(-1.64 1.6546 .91612 .92793 164.56 -145.81)" gradientUnits="userSpaceOnUse">
  <stop stop-color="#f8b17e" offset="0"/>
  <stop stop-color="#e35d4f" offset=".26238"/>
  <stop stop-color="#c6262e" offset=".66347"/>
  <stop stop-color="#690b54" offset="1"/>
 </linearGradient>
 <linearGradient id="g" x1="29.278" x2="36.001" y1="34.023" y2="27.273" gradientTransform="matrix(-.36015 1.6504 1.6343 -.36108 5.3171 2.6266)" gradientUnits="userSpaceOnUse">
  <stop stop-color="#791235" offset="0"/>
  <stop stop-color="#dd3b27" offset="1"/>
 </linearGradient>
 <linearGradient id="h" x1="-6.3078" x2="-9.7747" y1="44.229" y2="44.14" gradientTransform="matrix(-.99683 1.0063 1.0798 1.0953 -11.948 3.8486)" gradientUnits="userSpaceOnUse" xlink:href="#d"/>
 <g transform="matrix(.94615 0 0 .93805 2.1063 2.62)">
  <g transform="matrix(1.1807 0 0 1.1871 4.6337 27.936)">
   <path d="m-3.3807-10.581c-0.3662-1.9401 1.3741-0.74698 1.992-0.25684 2.5411 1.4106 5.0466 2.8924 7.6103 4.2577 1.7221 0.37965 3.1491-1.1124 4.1143-2.3454 1.3587-1.9572 2.6143-4.4238 2.0232-6.8685-0.38152-1.2307-1.7553-1.5354-2.7174-2.1854-2.3558-1.3342-4.7275-2.6492-7.0727-3.9954-0.036311-1.239 1.9767-1.2432 2.9519-1.4158 4.1061-0.43133 8.7361 0.35977 11.638 3.5474 2.3826 2.5889 3.3088 6.3388 2.6874 9.776 0.9452 3.0253 2.456 5.9202 4.7106 8.1723-2.1853 2.0671-4.3705 4.1343-6.5559 6.2014-1.9652-2.0068-4.301-3.6733-6.9173-4.7082-3.5715 0.98088-7.5007-0.28062-10.049-2.9173-2.0085-2.0125-3.6218-4.5242-4.4156-7.2626z" fill="url(#a)" fill-rule="evenodd" stroke="#393939" stroke-dashoffset=".3612" stroke-linecap="round" stroke-linejoin="round" stroke-width="1.3449"/>
   <path d="m-2.643-10.576c0.014099 0.03809 0.063024 0.01419 0.063235 0l8.1437 4.5828c1.0971 0.61822 2.3927 0.17231 3.4721-0.57285 1.09-0.75256 2.1462-1.9186 2.9671-3.4371 0.82265-1.5217 1.2177-3.1178 1.2626-4.4555 0.04483-1.3348-0.33314-2.5876-1.3888-3.1825l-8.2068-4.5828c-0.00397-0.02627 0.00397-0.06802 0-0.06376-0.044447 0.04195 0.032324 0.0081 0.063223 0 3.6123-0.8451 7.7874-0.40678 10.543 1.1457 3.7689 2.1235 5.5691 6.5572 4.7978 10.948-0.77626 4.3706-4.5512 8.1069-8.1437 9.0389-2.3264 0.58844-4.8259 0.33771-7.0074-0.89109-2.7473-1.5483-5.3356-4.9542-6.5655-8.529l-2.023e-4 1.02e-4z" fill="url(#b)" fill-rule="evenodd"/>
   <path d="m-2.0538-10.052c2.7223 1.5705 5.1697 3.1059 7.9794 4.5162 1.9633 0.47197 3.7613-0.97414 4.9759-2.3623 1.8389-2.3356 3.2279-5.4783 2.3967-8.4765-0.65141-1.5248-2.3573-1.9871-3.6485-2.8165l-5.0831-2.898c3.8496-0.81995 8.1044-0.124 11.559 2.689 2.3738 2.345 3.1944 5.9273 2.6304 9.1577 0.24824 2.4837 3.1984 6.5749 4.742 8.5323l-5.2306 5.3246c-2.2844-2.2893-3.8263-3.864-6.8905-5.029-1.812 0.26046-3.6825 0.50931-5.4654-0.068575-3.2383-0.94431-5.5495-3.5304-7.0214-6.4081l-0.94343-2.1608z" fill="none" opacity=".7" stroke="url(#c)" stroke-dashoffset=".3612" stroke-linecap="round" stroke-width=".81944"/>
   <path d="m17.157-1.2645c0.01738-0.21045 0.058-0.39626 0.18545-0.52843l0.97358-0.96079c0.50972-0.52868 1.7634-0.14336 2.7817 0.91274l3.1062 3.2666-2.828 2.8824-3.1062-3.2186c-0.7669-0.79216-1.1679-1.7226-1.1153-2.354z" fill-rule="evenodd" opacity=".1"/>
  </g>
  <path d="m30.02 30.026c-0.91844 0.92772-0.93442 2.4076-0.03583 3.3181l16.735 19.197c0.89859 0.91052 3.469-0.22106 4.3875-1.1488 0.91844-0.92772 2.0426-3.5259 1.144-4.4363l-18.934-16.962c-0.89859-0.91052-2.3615-0.89664-3.28 0.03108z" fill="url(#e)" opacity=".23106"/>
  <path d="m33.109 24.019 29.422 26.91c1.7765 1.7992 0.61773 5.8077-2.5623 9.0161-3.18 3.2085-7.1473 4.3719-8.9237 2.5727l-26.549-29.809 8.6187-8.6919zm20.961 29.941c-1.5809 1.595-1.6402 4.1425-0.63051 5.165 1.0097 1.0226 3.6073 0.88953 5.1881-0.70547 1.5809-1.595 1.5645-4.0663 0.55488-5.0888-1.0097-1.0226-3.5316-0.96568-5.1125 0.62932z" fill="url(#f)" stroke="url(#g)" stroke-dashoffset=".7" stroke-linecap="round" stroke-linejoin="round" stroke-width="1.27"/>
  <path d="m28.552 28.793c-1.1045 1.115-1.2706 2.7461-0.37248 3.6571l16.502 19.432c0.8981 0.91101 3.8421-0.59676 4.9467-1.7118 1.1045-1.115 2.6031-4.0903 1.7049-5.0012l-19.147-16.748c-0.89811-0.91101-2.5104-0.74671-3.6149 0.36833z" fill="url(#h)" opacity=".23106"/>
 </g>
</svg>
