<svg xmlns="http://www.w3.org/2000/svg" xmlns:xlink="http://www.w3.org/1999/xlink" width="16" height="16"><defs><linearGradient xlink:href="#a" id="b" x1="12.007" x2="9.248" y1="12.806" y2="9.681" gradientTransform="matrix(.6933 -.18611 .1874 .68853 2.04 6.428)" gradientUnits="userSpaceOnUse"/><linearGradient id="a"><stop offset="0" stop-color="#cacaca"/><stop offset="1" stop-color="#dcdcdc" stop-opacity="0"/></linearGradient></defs><path fill="#aec7e2" d="M4.666 2h2.667v2.666H4.666Z" style="stroke-width:.615266"/><path fill="#2b3b4d" d="M2 2h2.666v2.666H2Zm2.666 2.666h2.667v2.667H4.666ZM7.333 2h2.665v2.666H7.333Z" style="stroke-width:.615266"/><path fill="#aec7e2" d="M2 4.666h2.666v2.667H2Zm5.333 0h2.665v2.667H7.333ZM4.666 7.333h2.667v2.665H4.666Z" style="stroke-width:.615266"/><path fill="#2b3b4d" d="M2 7.333h2.666v2.665H2Z" style="stroke-width:.615266"/><path fill="#eeeeec" fill-rule="evenodd" stroke="#888a85" stroke-linecap="round" stroke-linejoin="round" d="M6.716 7.772a.69.69 0 1 1-1.382 0 .69.69 0 0 1 1.382 0" style="stroke-width:.690684"/><path fill="none" stroke="#888a85" stroke-linecap="round" stroke-linejoin="round" d="M6.025 13.988 9.478 6.39h4.144" style="stroke-width:.690684"/><path fill="#eeeeec" fill-rule="evenodd" stroke="#888a85" stroke-linecap="round" stroke-linejoin="round" d="M10.17 6.39a.69.69 0 1 1-1.382 0 .69.69 0 0 1 1.381 0m4.143 0a.69.69 0 1 1-1.381 0 .69.69 0 0 1 1.381 0m-7.597 7.598a.69.69 0 1 1-1.382 0 .69.69 0 0 1 1.382 0" style="stroke-width:.690684"/><path fill="url(#b)" stroke="#888a85" stroke-width=".691" d="M12.468 9.33c-2.36 2.136-4.427 2.016-3.768 4.062.615 1.91 4.83 1.334 5.444-.48.632-1.869-.146-4.965-1.676-3.581Z" style="fill:url(#b)"/></svg>