<svg height="373" viewBox="0 0 413.435 365.722" width="420" xmlns="http://www.w3.org/2000/svg" xmlns:xlink="http://www.w3.org/1999/xlink">
<radialGradient id="a" cx="173.78099" cy="150.8327" gradientTransform="matrix(-.6101056 .6619819 -.6829184 -.6294014 402.98608 80.149634)" gradientUnits="userSpaceOnUse" r="206.90388">
<stop offset="0" stop-color="#fff" stop-opacity=".62886596"/>
<stop offset="1" stop-color="#fff" stop-opacity="0"/>
</radialGradient>
<path d="m222.96725 25.584927c0 0-5.08917-11.009168-15.54612-11.008183-10.45694 0-15.55891 11.007199-15.55891 11.007199l-173.39834 300.352227c0 0-6.988026 9.9116-1.76005 18.96877 5.228962 9.05618 17.313059 7.96944 17.313059 7.96944l346.812421.01082c0 0 12.07819 1.09659 17.30617-7.95958 5.22896-9.05521-1.75316-18.97665-1.75316-18.97665z" fill="#ff0" stroke="#df1800" stroke-linecap="round" stroke-linejoin="round" stroke-width="21.65608788"/>
<g transform="matrix(.9843676 0 0 .9843676 3.9346133 3.7486992)">
<path d="m244.087 136.653c-1.066 4.434-20.398 85.254-22.799 94.755-2.4 9.502-4.668 18.506-6.807 27.011 0 0-1.111 5.366-6.923 5.366h-1.752c-5.812 0-6.923-5.366-6.923-5.366-2.139-8.505-4.406-17.509-6.807-27.011-2.4-9.501-21.729-90.321-22.798-94.755-13.697-56.799 88.888-58.37 74.809 0z"/>
<circle cx="206.717" cy="308.54599" r="24.256001"/>
</g>
<path d="m207.42187 3.7486992c-16.63266 0-23.8644 14.1152908-24.94757 16.4266348l-173.4025179 300.355186h.0307615c-1.4836084 2.12838-10.0855663 15.39543-1.7841664 29.77712 8.3221268 14.41332 24.1723808 13.59831 26.7009728 13.38125.041497-.00356.150685.00317.184569 0l346.620471.03076v-.03076c2.57607.22046 18.3955 1.03671 26.70097-13.35049 8.33158-14.42812-.34665-27.75027-1.78416-29.80788h.03076l-173.31023-300.139855-.12305-.215331c-1.09705-2.341335-8.30365-16.4281987-24.91681-16.4266348z" fill="url(#a)"/>
</svg>
