<svg width="24" height="24" xmlns="http://www.w3.org/2000/svg" xmlns:xlink="http://www.w3.org/1999/xlink">
<g id="mIconDameng" stroke="none" stroke-width="1" fill="none" fill-rule="evenodd">
<g id="group" transform="translate(0.000000, 3.000000)">
<path d="M4.75276041,5.0366001 C5.40231009,4.49861092 6.11444299,3.95505634 6.85003376,3.48241852 C6.29154569,5.2792855 6.18585537,9.14606161 10.4307803,9.7971297 C13.6184557,10.2861264 14.4231217,11.2711188 14.0496133,16.1874798 C13.3932254,16.4889392 12.7418579,16.7392982 12.0758618,16.9717803 C12.4974978,14.9336614 12.963193,11.2776961 9.92492094,10.6821135 C6.22324948,9.95658699 4.3016073,9.4802389 4.75276041,5.0366001" id="Fill-1" fill="#C4271F"></path><path d="M7.35388488,3.16046826 C7.98465094,2.77013097 8.60857873,2.43190612 9.3089394,2.06661315 C8.58789078,5.35762279 8.82896166,8.21157947 12.7842553,8.81348648 C15.1264081,9.17026269 16.9436584,9.9954605 16.4743276,14.8916679 C15.8530832,15.2791382 15.2844675,15.5805976 14.6543074,15.9038971 C15.0013283,13.9500182 15.0105037,10.0056637 12.2364141,9.58952322 C8.0661909,8.96375242 6.80448565,7.85396002 7.35388488,3.16046826" id="Fill-3" fill="#C4271F"></path><path d="M9.8933004,1.79422873 C10.5498615,1.5081163 11.4675755,1.12545253 11.8308697,1.02738334 C11.1145819,3.50238652 11.4788283,7.41882965 14.7370505,7.93885775 C17.784498,8.42566206 19.1847866,10.0822134 18.862522,13.2357744 C18.242576,13.713556 17.6732679,14.1227819 17.0401647,14.5370673 C17.5800422,11.5021506 16.4216036,8.91988691 14.2676332,8.61530746 C9.64201539,7.96128802 9.1240376,6.07529023 9.8933004,1.79422873" id="Fill-5" fill="#C4271F"></path><path d="M3.79687327,5.9117938 C0.793571597,8.67459589 -0.816020131,12.364038 0.417639525,15.0475752 C1.82381417,18.106187 6.97762388,18.6671124 10.9812182,17.2880724 C11.8315016,13.6746909 12.2631786,11.667772 8.85659176,11.0290996 C3.89434034,10.0979061 3.83617172,8.18467158 3.79687327,5.9117938" id="Fill-11" fill="#0000D2"></path><path d="M20.0103916,12.2230224 C22.9493788,9.42455111 24.9856271,5.617055 23.5043179,2.79522589 C21.8301521,-0.394594562 16.5415678,-0.482376181 12.9242928,0.6921773 C11.8606378,3.5150183 12.153645,7.03083658 15.1326232,7.45296414 C19.458309,8.06549602 19.6307374,9.83023543 20.0103916,12.2230224" id="Fill-13" fill="#0000D2"></path><path d="M4.75276041,5.03606042 C5.40231009,4.49807125 6.11444299,3.95451667 6.85003376,3.4813729 C6.29154569,5.27899879 6.18585537,9.14501599 10.4307803,9.79625272 C13.6184557,10.2850808 14.4231217,11.2705792 14.0496133,16.1864342 C13.3932254,16.4883996 12.7418579,16.7387585 12.0758618,16.9712406 C12.4974978,14.9331218 12.963193,11.2773251 9.92492094,10.6815738 C6.22324948,9.95604731 4.3016073,9.47986787 4.75276041,5.03606042" id="Fill-15" fill="#EC1B34"></path><path d="M7.35388488,3.15992858 C7.98465094,2.76900103 8.60857873,2.43136644 9.3089394,2.06565186 C8.58789078,5.35708312 8.82896166,8.2110398 12.7842553,8.81319978 C15.1264081,9.16972301 16.9436584,9.9948365 16.4743276,14.8911283 C15.8530832,15.2785985 15.2844675,15.580058 14.6543074,15.9033574 C15.0013283,13.9494786 15.0105037,10.0051241 12.2364141,9.58864624 C8.0661909,8.9633814 6.80448565,7.85342035 7.35388488,3.15992858" id="Fill-17" fill="#EC1B34"></path><path d="M9.8933004,1.79369749 C10.5498615,1.50707912 11.4675755,1.12433102 11.8308697,1.02626183 C11.1145819,3.50185528 11.4788283,7.41829841 14.7370505,7.93832651 C17.784498,8.42479352 19.1847866,10.0818508 18.862522,13.2352431 C18.242576,13.7124345 17.6732679,14.121829 17.0401647,14.5361144 C17.5800422,11.5016194 16.4216036,8.91935567 14.2676332,8.61418595 C9.64201539,7.96041948 9.1240376,6.07492764 9.8933004,1.79369749" id="Fill-19" fill="#EC1B34"></path></g></g></svg>