<?xml version="1.0" encoding="UTF-8"?>
<svg width="24" height="24" viewBox="0 0 24 24" xmlns="http://www.w3.org/2000/svg">
 <linearGradient id="a" x1="304.76" x2="335.3" y1="64.295" y2="81.926" gradientTransform="matrix(-.12774 1.0393 1.0352 .12696 -286.22 632.75)" gradientUnits="userSpaceOnUse">
  <stop stop-color="#d3d7cf" offset="0"/>
  <stop stop-color="#babdb6" offset=".18304"/>
  <stop stop-color="#fff" offset=".31893"/>
  <stop stop-color="#babdb6" offset=".87644"/>
  <stop stop-color="#eeeeec" offset="1"/>
 </linearGradient>
 <linearGradient id="b" x1="-6.3078" x2="-9.7747" y1="44.229" y2="44.14" gradientTransform="matrix(-.40399 .31575 .41105 .52802 -275.32 950.96)" gradientUnits="userSpaceOnUse">
  <stop offset="0"/>
  <stop stop-opacity="0" offset="1"/>
 </linearGradient>
 <linearGradient id="c" x1="97.442" x2="90.221" y1="35.152" y2="35.079" gradientTransform="matrix(-.79919 .62388 .34857 .4476 -192.03 895.93)" gradientUnits="userSpaceOnUse">
  <stop stop-color="#f8e27e" offset="0"/>
  <stop stop-color="#e3d189" offset="1"/>
 </linearGradient>
 <g transform="translate(0 -8)">
  <path d="m2.5 13.5 6.5 12.5 6-10h6" fill="none" stroke="#8cbe8c" stroke-linecap="round" stroke-linejoin="round" stroke-width="2"/>
  <path d="m1.5 12.5h3v3h-3z" fill="#bebebe" stroke="#8c8c8c"/>
  <path d="m7.5 24.5h3v3h-3z" fill="#bebebe" stroke="#8c8c8c"/>
  <path d="m13.5 14.5h3v3h-3z" fill="#bebebe" stroke="#8c8c8c"/>
  <path d="m19.5 14.5h3v3h-3z" fill="#bebebe" stroke="#8c8c8c"/>
  <g transform="matrix(.65381 0 0 .65452 .97231 -658.67)">
   <path d="m10.457 1032.3c-0.0557-0.8562 0.63412-0.2492 0.87549 0 1.0248 0.7434 2.0304 1.5156 3.0673 2.2407 0.72504 0.2552 1.4215-0.3125 1.9044-0.793 0.69153-0.772 1.3654-1.7692 1.2391-2.855-0.0999-0.5511-0.67819-0.7556-1.06-1.087-0.94865-0.7006-1.9052-1.3938-2.8487-2.099 0.0499-0.5363 0.9211-0.4312 1.3522-0.4538 1.7995 0.032 3.7609 0.6193 4.8477 2.1483 0.89379 1.2432 1.096 2.9098 0.64509 4.3593 0.24876 1.355 0.74913 2.6839 1.6054 3.7751-1.055 0.7755-2.11 1.5509-3.165 2.3264-0.74403-0.9699-1.6664-1.8128-2.7437-2.3982-1.5973 0.2334-3.2306-0.5195-4.1936-1.7921-0.76244-0.9748-1.3275-2.1438-1.5259-3.3671z" fill="url(#a)" fill-rule="evenodd" stroke="#3b3b3b" stroke-dashoffset=".3612" stroke-linecap="round" stroke-linejoin="round" stroke-width="1.2151"/>
   <path d="m20.57 1039c-0.37796 0.2957-0.44983 0.8327-0.16115 1.2039l5.2765 7.7275c0.28868 0.3713 1.2811 0.076 1.6591-0.2199 0.37796-0.2957 0.90583-1.1891 0.61712-1.5603l-6.1817-7.0148c-0.28868-0.3712-0.82539-0.432-1.2034-0.1363z" fill="url(#b)" opacity=".23106"/>
   <path d="m10.776308 1032.3503c.0041.017.02652.01.02736 0l3.280939 2.4093c.441955.3249 1.026164.2014 1.532663-.063.511499-.2667 1.030216-.7135 1.465827-1.3248.436534-.6127.691989-1.2801.782256-1.8547.09008-.5733-.0071-1.1337-.432392-1.4464l-3.308254-2.4126c-.000327-.012.0053-.029.0034-.028-.02145.016.01356.01.02736 0 1.60773-.1726 3.391001.2382 4.500933 1.0542 1.518297 1.1161 2.06238 3.1241 1.496172 4.9767-.567334 1.8439-2.398541 3.2549-4.002325 3.466-1.037771.1302-2.105965-.1107-2.984774-.7566-1.106711-.8138-2.046256-2.4203-2.389076-4.0275h-.000093z" fill="#f0f3f2" fill-rule="evenodd"/>
   <path d="m21.97 1036.9 9.5816 11.101c0.57073 0.7337-0.03271 2.1379-1.3412 3.1605-1.3085 1.0226-2.8142 1.2668-3.385 0.5331l-8.3994-12.025 3.5461-2.7701zm6.3457 11.821c-0.65048 0.5084-0.78586 1.4312-0.46147 1.8482 0.32441 0.4169 1.2822 0.4855 1.9327-0.023 0.65048-0.5084 0.75474-1.407 0.43036-1.8239-0.32441-0.417-1.2511-0.5098-1.9016 0z" fill="url(#c)" stroke="#3b3b3b" stroke-dashoffset=".7" stroke-linecap="round" stroke-linejoin="round" stroke-width="1.0262"/>
   <path transform="matrix(.82456 -.56578 .66206 .74945 0 0)" d="m-679.11 874.67h3.571v0.57711h-3.571z" fill="#fff" fill-opacity=".57759" stroke="#3b3b3b" stroke-width="1.5262"/>
  </g>
 </g>
</svg>
