<?xml version="1.0" encoding="UTF-8"?>
<svg width="24" height="24" xmlns="http://www.w3.org/2000/svg">
 <g transform="translate(0 -8)" fill="none">
  <path d="m12 10.287c7.1159 3.5321 6.0994 16.777 0 19.426" stroke="#5489c4" stroke-width=".8"/>
  <path d="m0.81785 20h22.364" stroke="#5489c4" stroke-width=".8"/>
  <path d="m2.1902 14.689c5.6927 0.75876 13.825 0.75876 19.518 0" stroke="#5489c4" stroke-width=".8"/>
  <path d="m2.1902 25.311c5.6927-0.75875 13.825-0.75875 19.518 0" stroke="#5489c4" stroke-width=".8"/>
  <path d="m12 10.287c-6.0994 2.649-7.1159 15.894 0 19.426" stroke="#5489c4" stroke-width=".8"/>
  <path transform="matrix(.94419 0 0 .81716 16.859 8.7156)" d="m6.9657 13.809a12.112 12.157 0 1 1-24.225 0 12.112 12.157 0 1 1 24.225 0z" stroke="#3e74b2" stroke-width="1.2835"/>
 </g>
</svg>
