<?xml version="1.0" encoding="UTF-8"?>
<svg width="16" height="16" enable-background="new 0 0 24 24" viewBox="0 0 16 16" xmlns="http://www.w3.org/2000/svg">
 <linearGradient id="a" x1=".9834" x2="23.611" y1="6.6646" y2="8.6442" gradientTransform="matrix(.66608 0 0 .65964 .0069755 .13907)" gradientUnits="userSpaceOnUse">
  <stop stop-color="#f5f5f5" offset="0"/>
  <stop stop-color="#e4e4e4" offset=".2503"/>
  <stop stop-color="#c9c9c9" offset=".7217"/>
  <stop stop-color="#bfbfbf" offset="1"/>
 </linearGradient>
 <path d="m14.027 8.3562c0 3.2896-2.7003 5.9625-6.0274 5.9625-3.3291 0-6.0274-2.6729-6.0274-5.9625 0-3.2949 2.699-5.9671 6.0274-5.9671 3.3271 0 6.0274 2.6722 6.0274 5.9671z" fill="#e6e6e6" stroke="#808080" stroke-linecap="round" stroke-linejoin="round"/>
 <path d="m8 2.7031c3.1719 3.1419 3.1719 8.1597 0 11.303" fill="none" stroke="#808080" stroke-linecap="round" stroke-linejoin="round"/>
 <path d="m8 2.7031c-3.1726 3.1419-3.1726 8.1597 0 11.303" fill="none" stroke="#808080" stroke-linecap="round" stroke-linejoin="round"/>
 <path d="m2.2896 8.3562h11.421" fill="none" stroke="#808080" stroke-linecap="round" stroke-linejoin="round"/>
 <path d="m12.441 4.5883c-1.7818 1.2652-6.8667 1.3635-8.8822 0" fill="none" stroke="#808080" stroke-linecap="round" stroke-linejoin="round" stroke-width=".75"/>
 <path d="m12.441 12.12c-2.296-1.2315-6.4663-1.316-8.8822 0" fill="none" stroke="#808080" stroke-linecap="round" stroke-linejoin="round"/>
 <path d="m15.593 7.4255s-2.9661 1.3279-7.5934 1.3279c-1.9595 0-3.6209-0.23804-4.8854-0.51255-1.722-0.37384-2.7079-0.8153-2.7079-0.8153l5.6477-5.758s1.1656 0.28035 1.9456 0.28035 1.9463-0.28035 1.9463-0.28035z" fill="url(#a)" fill-opacity=".8" stroke="#666" stroke-linecap="round" stroke-linejoin="bevel"/>
 <path d="m8 8.7533v-6.8062" fill="none" stroke="#666" stroke-linecap="round" stroke-linejoin="round"/>
 <path d="m13.602 5.4584s-2.1868 0.90701-5.6018 0.90701c-3.4143 0-5.6018-0.90701-5.6018-0.90701" fill="none" stroke="#666" stroke-linecap="round" stroke-linejoin="round"/>
 <path d="m11.704 3.4353s-1.4454 0.52903-3.7041 0.52903c-2.258 0-3.7048-0.52903-3.7048-0.52903" fill="none" stroke="#666" stroke-linecap="round" stroke-linejoin="round"/>
 <path d="m8.8433 1.8752 3.2039 6.5324" fill="none" stroke="#666" stroke-linecap="round" stroke-linejoin="round"/>
 <path d="m7.1581 1.8752-3.2059 6.5324" fill="none" stroke="#666" stroke-linecap="round" stroke-linejoin="round"/>
</svg>
