<?xml version="1.0" encoding="UTF-8"?>
<svg width="24" height="24" enable-background="new 4 4 24 24" version="1.1" viewBox="4 4 24 24" xmlns="http://www.w3.org/2000/svg">
 <path d="m12.258 15.101c-3.2513-1.0001-4.8799-2.5172-4.8799-4.5462 0-1.6009 0.85912-2.8802 2.5745-3.839 1.7327-0.95631 3.8805-1.4357 6.4376-1.4357 2.3228 0 4.1654 0.33671 5.5365 1.0064 1.3726 0.6584 2.0581 1.4532 2.0581 2.382 0 0.48566-0.21261 0.9125-0.64506 1.2868-0.42667 0.35674-0.9242 0.53573-1.4839 0.53573-0.92565 0-1.685-0.55826-2.2794-1.6735-0.82007-1.5434-2.0538-2.3157-3.7012-2.3157-1.3031 0-2.3792 0.37051-3.221 1.114-0.84321 0.74352-1.2655 1.7812-1.2655 3.1105 0 2.6148 1.5635 3.9241 4.6847 3.9241 0.32832 0 0.70581-0.02879 1.1325-0.08637 0.74197-0.08386 1.3176-0.12767 1.7298-0.12767 1.0023 0 1.5071 0.24909 1.5071 0.74978 0 0.55701-0.512 0.83489-1.5346 0.83489-0.36158 0-0.90251-0.05007-1.6271-0.1502-0.54527-0.08637-0.9647-0.12893-1.2598-0.12893-3.3049 0-4.9551 1.452-4.9551 4.3622 0 1.4144 0.43824 2.5585 1.3147 3.4309 0.87358 0.85742 2.1001 1.2868 3.665 1.2868 1.9598 0 3.2557-0.88121 3.9007-2.6399 0.33121-0.92752 0.69279-1.5722 1.0891-1.9301 0.4151-0.35549 0.96036-0.53573 1.6387-0.53573 0.56118 0 1.0602 0.18025 1.51 0.53573 0.46282 0.34297 0.69279 0.78733 0.69279 1.3293 0 1.3018-0.84321 2.3808-2.5267 3.2407-1.6864 0.84115-3.7214 1.263-6.1093 1.263-2.6222 0-4.9609-0.54199-7.0046-1.6285-2.0306-1.0877-3.0474-2.5397-3.0474-4.3535 0-2.2681 2.0234-3.9329 6.0688-5.0018" fill="#6e97c4"/>
</svg>
