<svg xmlns="http://www.w3.org/2000/svg" xmlns:xlink="http://www.w3.org/1999/xlink" height="16" width="16"><defs><linearGradient id="e"><stop stop-color="#eee" offset="0"/><stop stop-color="#cfcfcf" offset="1"/></linearGradient><linearGradient id="a"><stop stop-color="#6e97c4" offset="0"/><stop stop-color="#aec7e2" offset="1"/></linearGradient><linearGradient id="b"><stop stop-color="#6e97c4" offset="0"/><stop stop-color="#aec7e2" offset="1"/></linearGradient><linearGradient id="c"><stop stop-color="#6e97c4" offset="0"/><stop stop-color="#aec7e2" offset="1"/></linearGradient><linearGradient id="d"><stop stop-color="#cfcfcf" offset="0"/><stop stop-color="#eee" offset="1"/></linearGradient><linearGradient xlink:href="#a" id="j" x1="7.373" y1="10" x2="7.449" y2="15" gradientUnits="userSpaceOnUse" gradientTransform="matrix(.65196 0 0 .6516 .174 -5.025)"/><linearGradient xlink:href="#b" id="i" x1="1.729" y1="15.458" x2="7" y2="15.458" gradientUnits="userSpaceOnUse" gradientTransform="matrix(.65196 0 0 .6516 .174 -5.025)"/><linearGradient xlink:href="#c" id="h" x1="1.729" y1="15.458" x2="7" y2="15.458" gradientUnits="userSpaceOnUse" gradientTransform="matrix(.65196 0 0 .6516 .174 -5.025)"/><linearGradient xlink:href="#d" id="g" x1="18" y1="14.322" x2="13.172" y2="10.525" gradientUnits="userSpaceOnUse" gradientTransform="matrix(.65196 0 0 .6516 .174 -5.025)"/><linearGradient xlink:href="#e" id="f" x1="4.53" y1="22.364" x2="4.458" y2="25.133" gradientUnits="userSpaceOnUse" gradientTransform="matrix(1.4995 0 0 3.83399 -1.847 -83.183)"/></defs><path d="M.174.188v15.638H5.39V.188z" fill="url(#f)"/><path d="M15.432 10.328L15.271.754l-9.455 9.633z" fill="#cfcfcf"/><path d="M5.879.269l-.155 9.876L15.373.554z" fill="url(#g)"/><path d="M1.478 8.658c-.87 4.778-.435 2.39 0 0z" fill="url(#h)"/><path d="M1.3 8.658c-.75 4.778-.376 2.39 0 0z" fill="url(#i)"/><path d="M1.478 1.49c-.87 9.558-.435 4.779 0 0z" fill="url(#j)"/><path d="M.5.513L5.5.5v10h-5zM5.5.5h10v10h-10zm10 0l-10 10m-5 0h5v5h-5z" fill="none" stroke="#888a85" stroke-linecap="round"/><path d="M5.5 10.5h5v5h-5z" fill="#cfcfcf" stroke="#888a85" stroke-linecap="round"/></svg>
