<?xml version="1.0" encoding="UTF-8" standalone="no"?>
<!-- Creator: CorelDRAW X6 -->

<svg
   xmlns:dc="http://purl.org/dc/elements/1.1/"
   xmlns:cc="http://creativecommons.org/ns#"
   xmlns:rdf="http://www.w3.org/1999/02/22-rdf-syntax-ns#"
   xmlns:svg="http://www.w3.org/2000/svg"
   xmlns="http://www.w3.org/2000/svg"
   xmlns:sodipodi="http://sodipodi.sourceforge.net/DTD/sodipodi-0.dtd"
   xmlns:inkscape="http://www.inkscape.org/namespaces/inkscape"
   xml:space="preserve"
   width="24"
   height="24"
   version="1.1"
   viewBox="0 0 266.66667 266.66773"
   id="svg2"
   inkscape:version="0.91 r13725"
   sodipodi:docname="mIconDb2.svg"
   style="clip-rule:evenodd;fill-rule:evenodd;image-rendering:optimizeQuality;shape-rendering:geometricPrecision;text-rendering:geometricPrecision"><metadata
     id="metadata31"><rdf:RDF><cc:Work
         rdf:about=""><dc:format>image/svg+xml</dc:format><dc:type
           rdf:resource="http://purl.org/dc/dcmitype/StillImage" /><dc:title></dc:title></cc:Work></rdf:RDF></metadata><sodipodi:namedview
     pagecolor="#ffffff"
     bordercolor="#666666"
     borderopacity="1"
     objecttolerance="10"
     gridtolerance="10"
     guidetolerance="10"
     inkscape:pageopacity="0"
     inkscape:pageshadow="2"
     inkscape:window-width="1332"
     inkscape:window-height="926"
     id="namedview29"
     showgrid="false"
     units="px"
     inkscape:zoom="21.5"
     inkscape:cx="14.818675"
     inkscape:cy="13.03175"
     inkscape:window-x="557"
     inkscape:window-y="102"
     inkscape:window-maximized="0"
     inkscape:current-layer="svg2" /><defs
     id="defs4"><linearGradient
       id="id0"
       gradientUnits="userSpaceOnUse"
       x1="500"
       y1="999.992"
       x2="500"
       y2="0"><stop
         offset="0"
         stop-color="#039935"
         id="stop7" /><stop
         offset="1"
         stop-color="#75E69B"
         id="stop9" /></linearGradient><mask
       id="id1"><linearGradient
         id="id2"
         gradientUnits="userSpaceOnUse"
         x1="500"
         y1="58.480301"
         x2="500"
         y2="307.01599"><stop
           offset="0"
           stop-opacity="1"
           stop-color="white"
           id="stop13" /><stop
           offset="0.141176"
           stop-opacity="77.8"
           stop-color="white"
           id="stop15" /><stop
           offset="1"
           stop-opacity="0"
           stop-color="white"
           id="stop17" /></linearGradient><rect
         width="1000"
         height="365"
         id="rect19"
         x="0"
         y="0"
         style="fill:url(#id2)" /></mask></defs><g
     id="Layer_x0020_1"
     transform="matrix(0.26666772,0,0,0.26666772,0,-1.5712542e-5)"
     style="fill:#6d97c4;fill-opacity:1"><metadata
       id="CorelCorpID_0Corel-Layer" /><g
       id="_144357312"
       style="fill:#6d97c4;fill-opacity:1"><path
         id="Background"
         d="M 0,676 0,324 C 0,41 41,0 324,0 l 352,0 c 284,0 324,41 324,324 l 0,352 c 0,283 -40,324 -324,324 l -352,0 C 41,1000 0,959 0,676 Z"
         inkscape:connector-curvature="0"
         style="fill:#6d97c4;fill-opacity:1" /><path
         mask="url(#id1)"
         d="M 0,365 0,324 C 0,41 41,0 324,0 l 352,0 c 284,0 324,41 324,324 l 0,41 C 1000,82 960,41 676,41 L 324,41 C 41,41 0,82 0,365 Z"
         id="path25"
         inkscape:connector-curvature="0"
         style="fill:#6d97c4;fill-opacity:1" /><path
         d="m 373,489 c 0,55 -7,96 -21,121 -16,28 -43,42 -81,42 l -106,0 0,-313 104,0 c 35,0 60,9 75,27 19,22 29,64 29,123 z m -66,4 c 0,-43 -4,-72 -12,-87 -7,-13 -21,-20 -42,-20 l -25,0 0,219 25,0 c 20,0 34,-8 42,-22 8,-16 12,-46 12,-90 z m 308,70 c 0,29 -8,51 -24,66 -16,15 -38,23 -66,23 l -114,0 0,-313 112,0 c 24,0 44,6 58,17 17,14 25,34 25,61 0,21 -6,38 -17,50 -10,11 -20,17 -31,19 l 0,1 c 12,0 24,5 35,15 15,14 22,35 22,61 z M 542,427 c 0,-27 -12,-41 -37,-41 l -31,0 0,82 31,0 c 10,0 19,-3 25,-10 8,-7 12,-17 12,-31 z m 7,131 c 0,-32 -15,-48 -44,-48 l -31,0 0,95 31,0 c 30,0 44,-16 44,-47 z m 286,94 -191,0 c 1,-47 20,-88 57,-124 l 38,-36 c 12,-11 20,-20 24,-28 5,-10 8,-23 8,-38 0,-27 -10,-41 -31,-41 -11,0 -19,3 -24,10 -6,10 -10,26 -10,49 l -61,0 c 0,-37 8,-63 25,-79 15,-16 39,-23 72,-23 62,0 93,28 93,86 0,35 -12,63 -35,84 l -41,38 c -20,18 -34,36 -42,52 l 118,0 0,50 z"
         id="path27"
         inkscape:connector-curvature="0"
         style="fill:#6d97c4;fill-rule:nonzero;fill-opacity:1" /></g></g><text
     xml:space="preserve"
     style="font-style:normal;font-weight:normal;font-size:108.85260773px;line-height:125%;font-family:sans-serif;letter-spacing:0px;word-spacing:0px;fill:#ffffff;fill-opacity:1;stroke:none;stroke-width:1px;stroke-linecap:butt;stroke-linejoin:miter;stroke-opacity:1;"
     x="11.770355"
     y="177.04869"
     id="text4159"
     sodipodi:linespacing="125%"
     transform="scale(1.0910442,0.91655315)"><tspan
       sodipodi:role="line"
       id="tspan4161"
       x="11.770355"
       y="177.04869">DB2</tspan></text>
</svg>