<svg height="128" viewBox="0 0 128 128" width="128" xmlns="http://www.w3.org/2000/svg">
<path d="m43.016397 46.163935h16.786879v16.786886h-16.786879zm25.180329 0h16.786879v16.786886h-16.786879zm25.180333 0h16.786871v16.786886h-16.786871zm-75.54099 50.360658h16.786879v16.786887h-16.786879zm25.180328 0h16.786879v16.786887h-16.786879zm25.180329 0h16.786879v16.786887h-16.786879zm-25.180329-25.180329h16.786879v16.786886h-16.786879zm25.180329 0h16.786879v16.786886h-16.786879zm25.180333 0h16.786871v16.786886h-16.786871zm-75.54099 0h16.786879v16.786886h-16.786879zm92.327861-71.344264v8.3934426h-16.786871v-8.3934426h-58.754111v8.3934426h-16.786879v-8.3934426h-14.688529v128h121.70492v-128zm8.39346 121.70492h-109.114771v-92.327871h109.114771z"/>
<g transform="matrix(1.08 0 0 1.08 -128.63068 -23.452229)">
<circle cx="203.59322" cy="109.67799" fill="#fff" r="21.300215" stroke="#000" stroke-width="2"/>
<path d="m203.59322 84.677977c13.76924 0 25 11.153859 25 25.000013 0 13.76922-11.23076 25-25 25-13.84615 0-25-11.23078-25-25 0-13.846154 11.15385-25.000013 25-25.000013zm0 44.461543c10.76923 0 19.46154-8.76923 19.46154-19.53845 0-10.769242-8.69231-19.461544-19.46154-19.461544-10.76923 0-19.53846 8.692302-19.53846 19.461544 0 10.76922 8.76923 19.53845 19.53846 19.53845zm7.38462-16.46154h-7.84616c-.84615 0-1.53846-.30769-2-.92308l-8.84615-9.61536c-2.38461-2.538482 1.53846-6.230784 3.99999-3.769254l8.00001 8.769244h6.69231c3.76922 0 3.38461 5.53845 0 5.53845zm-8.92308-17.692293c0-.769228.69231-1.461538 1.46154-1.461538.76923 0 1.46154.69231 1.46154 1.461538 0 .769229-.69231 1.461534-1.46154 1.461534-.76923 0-1.46154-.692305-1.46154-1.461534zm10.23077 3.999985c0-.76923.69231-1.461542 1.46154-1.461542.76923 0 1.46153.692312 1.46153 1.461542 0 .76923-.6923 1.461538-1.46153 1.461538-.76923 0-1.46154-.692308-1.46154-1.461538zm4.53846 10.538478c0-.76924.69231-1.46154 1.46153-1.46154.76924 0 1.46155.6923 1.46155 1.46154 0 .76922-.69231 1.46153-1.46155 1.46153-.76922 0-1.46153-.69231-1.46153-1.46153zm-4.07692 10.30767c0-.76922.6923-1.46153 1.46153-1.46153.76924 0 1.46154.69231 1.46154 1.46153 0 .76924-.6923 1.46154-1.46154 1.46154-.76923 0-1.46153-.6923-1.46153-1.46154zm-10.76923 4.46156c0-.76924.6923-1.46153 1.46153-1.46153.76923 0 1.46154.69229 1.46154 1.46153 0 .76923-.69231 1.46155-1.46154 1.46155-.76923 0-1.46153-.69232-1.46153-1.46155zm-10-4.00001c0-.76922.6923-1.46153 1.46153-1.46153.76923 0 1.46154.69231 1.46154 1.46153 0 .76923-.69231 1.46154-1.46154 1.46154-.76923 0-1.46153-.69231-1.46153-1.46154zm-4.61538-10.76922c0-.76924.6923-1.46154 1.46153-1.46154.76923 0 1.46153.6923 1.46153 1.46154 0 .76922-.6923 1.46153-1.46153 1.46153-.76923 0-1.46153-.69231-1.46153-1.46153z"/>
</g>
</svg>
