<svg height="6.773334mm" viewBox="0 0 24.000001 24.000001" width="6.773334mm" xmlns="http://www.w3.org/2000/svg"><g transform="translate(-845.32635 -969.08167)"><path d="m850.32635 971.5817c-1.36408 0-2.5 1.13592-2.5 2.5v8c0 1.36409 1.13592 2.5 2.5 2.5h4s.40959 1.04767 0 2.45581c-.41914 1.44095-2 2.54419-2 2.54419s4.10002-.55306 5.5-2c.98337-1.01635 1.17915-1.8983 1.5-3h5c1.36408 0 2.5-1.13591 2.5-2.5v-8c0-1.36408-1.13592-2.5-2.5-2.5z" fill="#fff" fill-opacity=".588235" stroke="#999" stroke-linejoin="round"/><path d="m850.34845 979.08167-.0221-3c0-2 0-2 2-2h4" fill="none" stroke="#fff" stroke-linecap="round" stroke-opacity=".784314" stroke-width="2"/></g></svg>