<svg height="24" width="24" xmlns="http://www.w3.org/2000/svg"><g transform="matrix(0 -1 1 0 -8.499182 23.5)"><path d="m7.5000001 22.5c0 2 2 2 2 2s-7 7-7 7l-2.00000001-2z" fill="#ffcc30" fill-rule="evenodd" stroke="#505050" stroke-linejoin="round"/><path d="m17.96122 7c0 3.354712-2.668929 6.074244-5.96122 6.074244s-5.9612203-2.719532-5.9612203-6.074244c0-3.3547121 2.6689293-6.07424355 5.9612203-6.07424355s5.96122 2.71953145 5.96122 6.07424355z" style="opacity:.8;fill:#e6e6e6;stroke:#505050;stroke-width:.752183;stroke-linecap:round;stroke-linejoin:round;stroke-dashoffset:7" transform="matrix(1.3420071 0 0 1.3170365 -1.604085 8.279109)"/><path d="m10 13c2-3 4.442248-3.398055 6-2s-2 1-4 3 0 6-2 6c-1.9999999 0-1.9999999-4 0-7z" fill="#fcffff" fill-rule="evenodd" opacity=".7"/><path d="m2.0000001 29 4-4" opacity=".5" stroke="#fcffff" stroke-linecap="round" stroke-linejoin="round"/></g></svg>