<svg xmlns="http://www.w3.org/2000/svg" width="16" height="16"><path d="M5.775 10.883q-.938 0-1.549-.392-.6-.4-.902-1.12-.291-.729-.291-1.695 0-1.084.346-1.858.355-.784 1.039-1.203.692-.419 1.694-.419.474 0 .83.1.364.092.737.274l-.437 1.084q-.337-.173-.629-.237-.282-.064-.546-.064-.629 0-1.003.283-.373.282-.537.792-.155.51-.155 1.194 0 1.075.383 1.594.382.51 1.239.51.319 0 .647-.082.337-.082.783-.282v1.184q-.392.173-.82.255-.419.082-.829.082zm5.357 0q-1.257 0-1.859-.628-.592-.638-.592-1.886 0-1.294.62-1.968.628-.674 1.876-.674.374 0 .793.073.419.063.81.237l-.382 1.047q-.364-.146-.665-.191-.3-.046-.483-.046-1.23 0-1.23 1.476 0 .756.32 1.102.327.338.928.338.283 0 .62-.082.346-.092.738-.328v1.184q-.392.2-.747.273-.356.073-.747.073z" style="color:#000;fill:#555;-inkscape-stroke:none"/><path d="M6.111 3.988c-.697 0-1.3.147-1.8.45h-.002c-.492.3-.868.74-1.12 1.294-.245.55-.365 1.199-.365 1.944 0 .665.1 1.258.307 1.773l.002.002c.214.513.543.923.978 1.213v.002h.002c.448.287 1.008.426 1.662.426.287 0 .576-.03.868-.086.3-.058.59-.148.865-.27l.125-.054V9.039l-.295.133c-.29.13-.539.219-.746.27H6.59c-.203.05-.401.076-.596.076-.53 0-.862-.146-1.072-.426-.214-.291-.342-.779-.342-1.47 0-.44.051-.817.147-1.132v-.002c.098-.304.251-.525.462-.685.205-.155.49-.24.877-.24.16 0 .326.019.5.058h.002c.173.038.366.11.578.219l.204.103.595-1.476-.175-.084a3.973 3.973 0 0 0-.772-.287 3.278 3.278 0 0 0-.887-.108zm0 .416c.301 0 .56.034.774.094h.006c.168.042.342.117.515.191l-.281.7c-.158-.068-.318-.144-.467-.176a2.68 2.68 0 0 0-.592-.068c-.45 0-.833.102-1.127.324a1.782 1.782 0 0 0-.61.896v.002c-.112.365-.165.783-.165 1.254 0 .741.126 1.317.422 1.719h.002v.002c.3.4.794.594 1.406.594.23 0 .463-.032.697-.09.155-.038.344-.118.524-.188v.737c-.21.083-.424.157-.65.2a4.1 4.1 0 0 1-.79.079c-.596 0-1.07-.123-1.435-.358a2.214 2.214 0 0 1-.822-1.023v-.002c-.183-.456-.276-.993-.276-1.615 0-.7.112-1.29.328-1.774.222-.488.538-.852.957-1.109.424-.256.946-.389 1.584-.389zm5.067 1.114c-.87 0-1.564.242-2.03.742h-.002c-.457.498-.673 1.213-.673 2.11 0 .864.207 1.552.648 2.026v.002h.002c.451.472 1.135.694 2.008.694.274 0 .537-.027.789-.078a3.16 3.16 0 0 0 .8-.291l.114-.059V8.982l-.316.192c-.248.15-.478.25-.684.305-.21.05-.4.076-.566.076-.361 0-.604-.097-.778-.276-.16-.175-.261-.485-.261-.957 0-.463.098-.779.26-.972.16-.194.393-.293.761-.293.104 0 .257.013.451.043.18.027.388.085.62.177l.199.08.523-1.433-.178-.078a3.39 3.39 0 0 0-.86-.252h-.003a4.84 4.84 0 0 0-.824-.076zm0 .418c.235 0 .487.023.756.07h.005c.197.03.384.097.57.166l-.24.66c-.173-.059-.348-.12-.505-.144a3.553 3.553 0 0 0-.514-.05c-.452 0-.833.146-1.082.444-.249.299-.355.72-.355 1.24 0 .534.109.958.373 1.244l.002.002.001.002c.264.27.639.4 1.079.4.208 0 .432-.03.67-.087h.003c.153-.04.317-.135.477-.211v.72a2.776 2.776 0 0 1-.582.213 3.501 3.501 0 0 1-.705.069c-.803 0-1.354-.197-1.705-.563-.348-.375-.535-.944-.535-1.742 0-.829.196-1.426.564-1.826.372-.398.929-.607 1.723-.607z" style="color:#000;fill:#555;-inkscape-stroke:none"/></svg>