<svg height="16" viewBox="0 0 16 16" width="16" xmlns="http://www.w3.org/2000/svg" xmlns:xlink="http://www.w3.org/1999/xlink"><filter id="a" color-interpolation-filters="sRGB" height="1.532857" width="1.509277" x="-.254638" y="-.266428"><feGaussianBlur stdDeviation="1.0089486"/></filter><g transform="translate(0 -1036.3622)"><path d="m12.883927 1050.5587-2.9620445-1.5003-2.9151302 1.5896.5115366-3.2807-2.4125535-2.2813 3.2781918-.5273 1.4240902-2.9994 1.5144976 2.9548 3.292689.4275-2.342181 2.3535z" fill="#333" filter="url(#a)" opacity=".836" stroke="#1a1a1a"/><path d="m10.875404 1048.6632-3.41302-1.7287-3.3589627 1.8315.5894187-3.7801-2.779868-2.6286 3.777301-.6076 1.6409098-3.4561 1.7450817 3.4047 3.7940055.4926-2.698781 2.7118z" fill="#ff6a00" stroke="#fff" stroke-width="2.852"/><path d="m10.830761 1048.6454-3.41302-1.7287-3.3589626 1.8315.5894187-3.7802-2.779868-2.6286 3.777301-.6075 1.6409098-3.4561 1.7450816 3.4047 3.7940065.4926-2.698782 2.7117z" fill="#fff400" stroke="#ea9615" stroke-width="1.152251"/></g></svg>