<svg xmlns="http://www.w3.org/2000/svg" height="24" viewBox="4 7 24 24" width="24"><g fill="#82a0b4" stroke="#3c5a6e" stroke-width=".994" stroke-linejoin="round"><path d="M30.61 39.576l3.495-3.5h-2.331v-2.334h-2.331v2.334H27.11zM22.652 31.623l3.5 3.497v-2.332h2.333v-2.331h-2.333v-2.334zM30.61 23.664l3.495 3.5h-2.331v2.333h-2.331v-2.333H27.11zM38.563 31.623l-3.502 3.497v-2.332h-2.333v-2.331h2.333v-2.334z" transform="matrix(1.0056 0 0 1.00555 -17.279 -15.295)"/></g><path d="M17.722 14.5v3.03c-.16.058-.32.123-.472.195l-2.14-2.14-2.528 2.529 2.14 2.139a5.107 5.107 0 0 0-.194.471H11.5v3.555h3.028c.057.159.123.32.195.472l-2.14 2.139 2.528 2.527 2.14-2.139c.152.072.31.138.471.195V30.5h3.556v-3.027c.16-.058.32-.123.472-.195l2.14 2.139 2.527-2.527-2.14-2.139c.071-.151.139-.313.195-.472H27.5v-3.555h-3.028a5.524 5.524 0 0 0-.195-.471l2.14-2.139-2.528-2.529-2.14 2.14a4.955 4.955 0 0 0-.471-.195V14.5zm1.778 5.864c1.18 0 2.14.958 2.14 2.138s-.96 2.14-2.14 2.14a2.14 2.14 0 0 1 0-4.277z" fill="#fce94f" stroke="#c4a000" stroke-linecap="round" stroke-linejoin="round"/></svg>
