<svg height="19.2pt" width="19.2pt" xmlns="http://www.w3.org/2000/svg"><g fill="none"><g><rect fill="#6e97c4" height="4.902383pt" width="4.986699pt" x="9.63613" y="1.806779"/><rect fill="#2b3b4d" height="4.902383pt" width="4.986699pt" x="15.86956" y="1.806779"/><rect fill="#2b3b4d" height="4.902383pt" width="4.986699pt" x="9.63613" y="7.934759"/><rect fill="#6d97c4" height="4.902383pt" width="4.986699pt" x="15.86956" y="7.934759"/><rect fill="#2d3e4d" height="4.902383pt" width="4.986699pt" x="3.40276" y="1.806779"/><rect fill="#6d97c4" height="4.902383pt" width="4.986699pt" x="3.40276" y="7.934759"/><rect fill="#6d97c4" height="4.902383pt" width="4.986699pt" x="9.63613" y="14.062779"/><rect fill="#2b3b4d" height="4.902383pt" width="4.986699pt" x="3.40276" y="14.062779"/><rect fill="#2b3b4d" height="4.902383pt" width="4.986699pt" x="15.86556" y="14.058879"/><rect fill="none" height="14.70715pt" stroke="#fff" stroke-linejoin="round" stroke-width="1.262483" width="14.960098pt" x="3.40276" y="1.806779"/></g><g><rect fill="#6e97c4" height="4.617314pt" width="4.528983pt" x="7.40778" y="5.1192"/><rect fill="#2b3b4d" height="4.617314pt" width="4.528983pt" x="13.06901" y="5.1192"/><rect fill="#2b3b4d" height="4.617314pt" width="4.528983pt" x="7.40778" y="10.89084"/><rect fill="#6d97c4" height="4.617314pt" width="4.528983pt" x="13.06901" y="10.89084"/><rect fill="#2d3e4d" height="4.617314pt" width="4.528983pt" x="1.746551" y="5.1192"/><rect fill="#6d97c4" height="4.617314pt" width="4.528983pt" x="1.746551" y="10.89084"/><rect fill="#6d97c4" height="4.617314pt" width="4.528983pt" x="7.40778" y="16.66245"/><rect fill="#2b3b4d" height="4.617314pt" width="4.528983pt" x="1.746551" y="16.66245"/><rect fill="#2b3b4d" height="4.617314pt" width="4.528983pt" x="13.06541" y="16.65885"/><rect fill="none" height="13.851944pt" stroke="#fff" stroke-miterlimit="0" stroke-width="1.262483" width="13.586949pt" x="1.746551" y="5.1192"/></g><path d="m0 0c3.7918.0171509 5.56841.0171509 5.32981 0 .04039 10.3588.04039 15.5383 0 15.5383-.04038 0-1.77661-.0007-5.208678-.0021v-6.93231" stroke="#ff7f50" stroke-linecap="round" stroke-linejoin="round" stroke-width="2.538075" transform="translate(9.15433 1.50565)"/></g></svg>