<svg height="16" width="16" xmlns="http://www.w3.org/2000/svg" xmlns:xlink="http://www.w3.org/1999/xlink"><linearGradient id="a"><stop offset="0" stop-color="#6e97c4"/><stop offset="1" stop-color="#aec7e2"/></linearGradient><linearGradient id="b" gradientTransform="matrix(.65196 0 0 .6516 1.174 -6.025)" gradientUnits="userSpaceOnUse" x1="7.373" x2="7.449" xlink:href="#a" y1="10" y2="15"/><linearGradient id="c" gradientTransform="matrix(.65196 0 0 .6516 1.174 -6.025)" gradientUnits="userSpaceOnUse" x1="1.729" x2="7" xlink:href="#a" y1="15.458" y2="15.458"/><linearGradient id="d" gradientTransform="matrix(3.8476185 0 0 3.28136 -4.436498 -70.386576)" gradientUnits="userSpaceOnUse" x1="4.53" x2="4.458" y1="22.364" y2="25.133"><stop offset="0" stop-color="#eee"/><stop offset="1" stop-color="#aec7e2"/></linearGradient><path d="m2.478.49c-.87 9.558-.435 4.779 0 0z" fill="url(#b)"/><g transform="translate(.557729 .336538)"><path d="m.75027119.96742373v13.38400027h13.38399981v-13.38400027z" fill="url(#d)" stroke-width="1.698926"/><path d="m2.478 7.658c-.87 4.778-.435 2.39 0 0z" fill="url(#c)"/><path d="m2.3 7.658c-.75 4.778-.376 2.39 0 0z" fill="url(#c)"/><g fill="none" stroke="#2b3b4d" stroke-linecap="round" stroke-width=".833"><path d="m1.174 1.442h4.167v4.167h-4.168z"/><path d="m5.342 1.442h4.1669999v4.167h-4.1679999z"/><path d="m9.5089999 1.442h4.1669991v4.167h-4.1679991z"/><path d="m1.1739999 5.609h4.1670001v4.1670001h-4.1680001z"/><path d="m1.174 9.7760001h4.167v4.1669999h-4.168z"/><path d="m5.341 5.609h4.1669996v4.1669995h-4.1679996z"/><path d="m9.5089999 5.609h4.1670001v4.167h-4.1680001z"/><path d="m5.341 9.7760001h4.167v4.1669999h-4.168z"/><path d="m9.508 9.7760001h4.167v4.1669999h-4.168z"/></g></g></svg>