<svg height="16" width="16" xmlns:xlink="http://www.w3.org/1999/xlink" xmlns="http://www.w3.org/2000/svg"><defs><linearGradient id="a"><stop offset="0" stop-color="#cacaca"/><stop offset="1" stop-color="#dcdcdc" stop-opacity="0"/></linearGradient><linearGradient xlink:href="#a" id="b" x1="12.006927" y1="12.805515" x2="9.2484741" y2="9.6814499" gradientUnits="userSpaceOnUse" gradientTransform="matrix(1.0037905,-0.26945676,0.27132599,0.99687517,-3.2704122,2.5543236)"/></defs><path d="m 3.4999989,4.5 c 0,0.552285 -0.447715,1 -0.9999993,1 C 1.947715,5.5 1.5,5.052285 1.5,4.5 c 0,-0.552285 0.447715,-1 0.9999996,-1 0.5522843,0 0.9999993,0.447715 0.9999993,1 z" fill="#eeeeec" fill-rule="evenodd" stroke="#888a85" stroke-linecap="round" stroke-linejoin="round"/><path d="m 2.5,13.5 5,-11 h 6" fill="none" stroke="#888a85" stroke-linecap="round" stroke-linejoin="round"/><path d="M8.4999999 2.5c0 .552285-.4477149 1-.9999999 1-.552285 0-1-.447715-1-1 0-.552285.447715-1 1-1 .552285 0 .9999999.447715.9999999 1zM14.5 2.5c0 .552285-.447715 1-1 1-.552285 0-1-.447715-1-1 0-.552285.447715-1 1-1 .552285 0 1 .447715 1 1zM3.5 13.5c0 .552285-.4477153 1-1 1-.5522847 0-1-.447715-1-1 0-.552285.4477153-1 1-1 .5522847 0 1 .447715 1 1z" fill="#eeeeec" fill-rule="evenodd" stroke="#888a85" stroke-linecap="round" stroke-linejoin="round"/><path d="M 11.829094,6.7573667 C 8.4117643,9.8484443 5.4184443,9.6744778 6.3727245,12.636412 7.2634844,15.401189 13.365552,14.568224 14.255026,11.940964 15.170522,9.236842 14.043663,4.7542223 11.829094,6.7573667 Z" fill="url(#b)" stroke="#888a85" stroke-width="1px"/></svg>