<?xml version="1.0" encoding="UTF-8"?>
<svg width="16" height="16" xmlns="http://www.w3.org/2000/svg">
 <radialGradient id="a" cx="1.833e-5" cy="1037.4" r="8" gradientTransform="matrix(-2.17e-6 2 -2 -2.17e-6 2074.7 1037.4)" gradientUnits="userSpaceOnUse">
  <stop stop-color="#fafafa" offset="0"/>
  <stop stop-color="#bababa" offset="1"/>
 </radialGradient>
 <g transform="translate(0 -1036.4)">
  <path d="m0 1036.4h16v16h-16z" fill="url(#a)" stroke-linecap="square" stroke-linejoin="round" stroke-width="1.142"/>
  <path d="m2 1038.4h3v3h-3z" fill="#ff0303" stroke-linecap="square" stroke-linejoin="round" stroke-width="1.142"/>
  <path d="m6 1038.4h4v3h-4z" fill="#ff8c00" stroke-linecap="square" stroke-linejoin="round" stroke-width="1.142"/>
  <path d="m11 1038.4h3v3h-3z" fill="#feb500" stroke-linecap="square" stroke-linejoin="round" stroke-width="1.142"/>
  <path d="m2 1047.4h3v3h-3z" fill="#6400f5" stroke-linecap="square" stroke-linejoin="round" stroke-width="1.142"/>
  <path d="m6 1047.4h4v4h-4z" fill="#904cff" stroke-linecap="square" stroke-linejoin="round" stroke-width="1.142"/>
  <path d="m11 1047.4h4v4h-4z" fill="#a57ff8" stroke-linecap="square" stroke-linejoin="round" stroke-width="1.142"/>
  <path d="m2 1042.4h3v4h-3z" fill="#aa003d" stroke-linecap="square" stroke-linejoin="round" stroke-width="1.142"/>
  <path d="m6 1042.4h4v4h-4z" fill="#e53c99" stroke-linecap="square" stroke-linejoin="round" stroke-width="1.142"/>
  <path d="m11 1042.4h3v4h-3z" fill="#ff80bb" stroke-linecap="square" stroke-linejoin="round" stroke-width="1.142"/>
  <path transform="translate(0 1036.4)" d="m6 1v4h1v-3h3v-1h-3z" fill="#fff" opacity=".12757"/>
  <path d="m11 1037.4v4h1v-3h3v-1h-3z" fill="#fff" opacity=".19753"/>
  <path d="m6 1042.4v4h1v-3h3v-1h-3z" fill="#fff" opacity=".14403"/>
  <path d="m11 1042.4v4h1v-3h3v-1h-3z" fill="#fff" opacity=".082305"/>
  <path transform="translate(0 1036.4)" d="m9 2v2h-2v1h3v-3z" opacity=".090535"/>
  <path d="m14 1038.4v2h-2v1h3v-3z" opacity=".074074"/>
  <path d="m4 1038.4v2h-2v1h3v-3z" opacity=".15638"/>
  <path d="m9 1048.4v2h-2v1h3v-3z" opacity=".13992"/>
  <path d="m14 1048.4v2h-2v1h3v-3z" opacity=".11523"/>
  <path d="m4 1048.4v2h-2v1h3v-3z" fill="#045" opacity=".11934"/>
  <path d="m9 1043.4v2h-2v1h3v-3z" opacity=".082305"/>
  <path d="m14 1043.4v2h-2v1h3v-3z" opacity=".10288"/>
  <path d="m4 1043.4v2h-2v1h3v-3z" opacity=".25514"/>
  <path d="m0.49977 1037.9h14v13h-14z" fill="none" stroke="#f9f9f9" stroke-linecap="round" stroke-width=".99954"/>
  <path d="m0.50011 1036.9h15v15h-15z" fill="none" stroke="#999" stroke-linecap="round" stroke-width="1.0002"/>
  <path d="m11 1047.4v4h1v-3h3v-1h-3z" fill="#fff" opacity=".037037"/>
  <path d="m13 1047.4v2h-2v1h3v-3z" opacity=".082305"/>
  <path d="m13 1038.4v2h-2v1h3v-3z" opacity=".037037"/>
 </g>
</svg>
