<svg xmlns="http://www.w3.org/2000/svg" version="1" width="24" height="24" viewBox="0 0 240 240"><path d="M97.914 106.584l22.848-11.764 22.849 11.764v25.34l-22.849 12.669-22.848-12.67zM121.105 87.018l-18.788-14.122-4.403-50.247c5.23-22.13 37.95-24.898 44.299 0l-4.363 50.109zM119.021 152.982l18.788 14.122 4.404 50.247c-5.231 22.13-37.951 24.898-44.3 0l4.363-50.109zM149.13 104.15l3.082-23.01 42.19-28.862c22.166-6.624 40.971 19.77 22.15 37.608l-46.451 21.35zM149.13 136.836l21.87-8.889 46.593 21.385c16.935 15.506 3.02 44.667-22.15 37.608l-42.087-28.758zM90.854 104.15l-3.082-23.01-42.19-28.862c-22.166-6.624-40.971 19.77-22.15 37.608l46.45 21.35zM90.854 136.836l-21.87-8.889-46.593 21.385C5.456 164.838 19.37 194 44.54 186.94l42.087-28.758z" fill="#6d97c4" stroke="#466280" stroke-width="10"/></svg>
