<svg height="16" width="16" xmlns="http://www.w3.org/2000/svg"><path d="m7.959 2.434c-2.819.046-5.287 1.254-6.283 4.193-.989 2.917.361 8.833 5.404 7.184 3.977-1.3 6.81-1.927 7.724-4.646.914-2.718.399-4.876-1.656-5.669-1.694-.692-3.498-1.09-5.19-1.062zm1.344 1.904c2.671.21 3.42 1.491 3.254 2.844-.153.801-.544 1.374-2.313 2.125-1.116.503-2.506.651-3.937.198-.563-.424-1.347-1.576-.894-2.492.667-1.362 1.379-2.752 3.89-2.675z" fill="#7c9dc4" fill-rule="evenodd"/><path d="m7.959 2.434c-2.819.046-5.287 1.254-6.283 4.193-.989 2.917.361 8.833 5.404 7.184 3.977-1.3 6.81-1.927 7.724-4.646.914-2.718.399-4.876-1.656-5.669-1.694-.692-3.498-1.09-5.19-1.062z" fill="none" stroke="#000" stroke-linecap="round" stroke-linejoin="round"/></svg>