<svg height="24" viewBox="0 0 24 24" width="24" xmlns="http://www.w3.org/2000/svg"><g stroke-linecap="round" transform="translate(.040858 -7.931636)"><path d="m20.566062 23.218131-16.0783487-8.240646 4.593988 12.082787-7.0817013 2.939728" fill="none" stroke="#8cbe8c" stroke-linejoin="round" stroke-width="2"/><ellipse cx="-14.75" cy="14" fill="#322825" rx=".75" ry="2.5" stroke="#fff" stroke-width="2"/><g fill="#bebebe" stroke="#8c8c8c" stroke-width="1.031"><circle cx="8.610297" cy="26.858242" r="2.034729"/><circle cx="4.487713" cy="15.179515" r="2.034729"/></g></g><g transform="matrix(1.2651778 0 0 1.2651778 -4.626524 -.705913)"><g stroke-linecap="round" stroke-width=".35534"><path d="m19.461512 9.2175166-2.259422 1.3635194 2.663548 1.925751z" fill="#505050" stroke="#505050"/><path d="m15.362026 1.9819405-2.461867 1.421359 4.027183 6.9752905 2.461868-1.4213605z" fill="#fce94f" stroke="#8b7617"/><path d="m13.957675 3.3398245 3.79029 6.564978" fill="#fce94f" opacity=".5" stroke="#8b7617"/></g><path d="m19.369733 12.033342-1.990522-1.555422.819374-.473067z" fill="#969696" stroke="#969696" stroke-linecap="square" stroke-width=".236893"/><path d="m14.983453 2.7475915 3.790289 6.564978" fill="#fce94f" opacity=".5" stroke="#8b7617" stroke-linecap="round" stroke-width=".35534"/><path d="m15.192412 1.4694895-2.651241 1.530695.516222.894122 2.65124-1.530695z" fill="#e6e6e6" stroke="#969696" stroke-linecap="round" stroke-width=".236893"/><path d="m19.70856 11.92433-.389277-2.5665105-.819374.473065z" fill="#e6e6e6" stroke="#e6e6e6" stroke-linecap="square" stroke-width=".236893"/></g></svg>