<svg height="24" viewBox="0 0 24 24" width="24" xmlns="http://www.w3.org/2000/svg"><path d="m13.178333 7.3757775 3.707633 3.8795835c2.42837 2.42837-.69923 5.643032-3.334371 3.197319l-3.900157-3.550008-2.116137 2.116137 4.10594 4.062746.304487.295282c2.01388 1.895018 5.296031 1.700951 7.371786-.435881 2.091969-2.140268 2.281205-5.47878.315809-7.4422485l-.202267-.2030563-4.136586-4.0360106z" fill="#d00000" stroke="#860000" stroke-linecap="square" stroke-linejoin="round" stroke-width=".671999"/><path d="m11.740021 13.228218-1.9807648-1.972854-1.7545838 1.750721 1.9994536 1.998255z" fill="#eeeeec" stroke-width="1.067201"/><path d="m17.324822 7.7284671-2.027526-2.0001318-1.669248 1.6732936 2.019112 2.0671403z" fill="#eeeeec" stroke-width="1.067201"/><path d="m4.445718 3.381155h18.76606v.670924h-18.76606z" fill="#860000"/><path d="m4.445718 19.853975h18.76606v.670924h-18.76606z" fill="#860000"/><path d="m-3.848034.574487h3.377034v22.784304h-3.377034z" fill="#860000" transform="scale(-1 1)"/><g fill="#fff" transform="rotate(90)"><path d="m.574487-2.159518h6.070116v1.29886h-6.070116z"/><path d="m6.644603-3.458377h6.070116v1.29886h-6.070116z"/><path d="m12.714718-2.159518h6.070116v1.29886h-6.070116z"/><path d="m18.784834-3.458378h4.74495v1.29886h-4.74495z"/></g><g fill="none" stroke="#860000" stroke-linecap="round" stroke-width=".7" transform="translate(-18.851552 -7.224291)"><path d="m31.120024 8.4827354 1.560276 1.5602756"/><path d="m34.240576 8.4827354-1.560276 1.5602756"/></g><g fill="none" stroke="#860000" stroke-linecap="round" stroke-width=".7" transform="matrix(-1 0 0 -1 46.509048 31.1832)"><path d="m31.120024 8.4827354 1.560276 1.5602756"/><path d="m34.240576 8.4827354-1.560276 1.5602756"/></g></svg>