<svg height="24" width="24" xmlns="http://www.w3.org/2000/svg" xmlns:xlink="http://www.w3.org/1999/xlink">
<radialGradient id="a" cx="236.69156" cy="444.39349" gradientUnits="userSpaceOnUse" r="75.695871" spreadMethod="pad">
<stop offset="0" stop-color="#b9e0f7"/>
<stop offset="1" stop-color="#007ac2"/>
</radialGradient>
<linearGradient id="b">
<stop offset="0" stop-color="#b2d234"/>
<stop offset=".96067798" stop-color="#009e46"/>
<stop offset="1" stop-color="#009e46"/>
</linearGradient>
<radialGradient id="c" cx="232.4796" cy="445.44742" gradientUnits="userSpaceOnUse" r="92.86613" spreadMethod="pad" xlink:href="#b"/>
<radialGradient id="d" cx="255.953" cy="439.3845" gradientUnits="userSpaceOnUse" r="118.03195" spreadMethod="pad" xlink:href="#b"/>
<radialGradient id="e" cx="264.60722" cy="389.0191" gradientUnits="userSpaceOnUse" r="156.01587" spreadMethod="pad" xlink:href="#b"/>
<g transform="translate(0 -8)">
<g transform="matrix(.75161647 0 0 .75161647 -.02586348 9.4769448)">
<path d="m16.000001 1.0775438c9.467477 4.6992805 8.114981 22.3215822 0 25.8460432" fill="none" stroke="#749fcf"/>
<path d="m1.1225356 14.000566h29.7549294" fill="none" stroke="#749fcf"/>
<path d="m2.9484075 6.9340877c7.5739815 1.0094969 18.3939565 1.0094969 25.9679385 0" fill="none" stroke="#749fcf"/>
<path d="m2.9484075 21.067042c7.5739815-1.009496 18.3939565-1.009496 25.9679385 0" fill="none" stroke="#749fcf"/>
<path d="m16.000001 1.0775438c-8.1149812 3.5244605-9.467478 21.1467632 0 25.8460432" fill="none" stroke="#749fcf"/>
<path d="m6.9656949 13.809332a12.112323 12.156691 0 0 1 -12.1123228 12.15669 12.112323 12.156691 0 0 1 -12.1123231-12.15669 12.112323 12.156691 0 0 1  12.1123231-12.1566907 12.112323 12.156691 0 0 1  12.1123228 12.1566907z" fill="none" stroke="#5488c4" stroke-width="1.28353083" transform="matrix(1.2562074 0 0 1.0871977 22.465232 -1.0129089)"/>
<path d="m7.3400991 7.2779254l5.8453019 14.7485086 6.428455-14.6109639 5.285714-.0209549" style="fill:none;stroke:#172739;stroke-width:1.29794168;stroke-linecap:round;stroke-linejoin:round;overflow:visible"/>
<path d="m4.5 12.5a1 1 0 0 1 -1 1 1 1 0 0 1 -1-1 1 1 0 0 1  1-1 1 1 0 0 1  1 1z" style="fill:#fff;fill-rule:evenodd;stroke:#172739;stroke-width:.94698602;stroke-linecap:round;stroke-linejoin:round;overflow:visible" transform="matrix(1.5475161 0 0 1.6212881 1.923793 -12.988176)"/>
<path d="m4.5 12.5a1 1 0 0 1 -1 1 1 1 0 0 1 -1-1 1 1 0 0 1  1-1 1 1 0 0 1  1 1z" style="fill:#fff;fill-rule:evenodd;stroke:#172739;stroke-width:.93603462;stroke-linecap:round;stroke-linejoin:round;overflow:visible" transform="matrix(1.5839392 0 0 1.6212881 7.641614 1.7603321)"/>
<path d="m4.5 12.5a1 1 0 0 1 -1 1 1 1 0 0 1 -1-1 1 1 0 0 1  1-1 1 1 0 0 1  1 1z" style="fill:#fff;fill-rule:evenodd;stroke:#172739;stroke-width:.94698602;stroke-linecap:round;stroke-linejoin:round;overflow:visible" transform="matrix(1.5475161 0 0 1.6212881 14.034218 -12.884972)"/>
<path d="m4.5 12.5a1 1 0 0 1 -1 1 1 1 0 0 1 -1-1 1 1 0 0 1  1-1 1 1 0 0 1  1 1z" style="fill:#fff;fill-rule:evenodd;stroke:#172739;stroke-width:.94698602;stroke-linecap:round;stroke-linejoin:round;overflow:visible" transform="matrix(1.5475161 0 0 1.6212881 19.483264 -12.871586)"/>
</g>
<g transform="matrix(.04787622 0 0 .04782246 -6.9786356 3.8921483)">
<path d="m393.47325 463.20793c0 68.38904-55.44618 123.85069-123.85843 123.85069-68.39677 0-123.85069-55.46165-123.85069-123.85069 0-68.41224 55.45392-123.85843 123.85069-123.85843 68.41225 0 123.85843 55.44619 123.85843 123.85843" fill="#fff"/>
<path d="m163.98625 464.40322c0 58.95074 47.8027 106.73796 106.73796 106.73796l0 0c58.95073 0 106.74569-47.78722 106.74569-106.73796l0 0c0-58.94299-47.79496-106.73795-106.74569-106.73795l0 0c-58.93526 0-106.73796 47.79496-106.73796 106.73795" fill="url(#a)"/>
<path d="m225.6679 380.41777c-8.23144.3404-16.11475 1.43896-23.97484 2.60714l0 0c-22.26512 18.90756-36.65467 46.7583-37.62171 78.02075l0 0c6.28962 6.62229 14.59843 21.61527 24.18372 30.27995l0 0c1.26876-.56507 2.64582-1.04441 4.11573-1.49311l0 0c-4.70369-5.46184-11.27955-12.70304-12.2698-16.03739l0 0c-4.843-16.33136.76583-31.61832 12.88096-32.82519l0 0c10.86179-1.09082 20.18399-17.25198 27.84301-27.85074l0 0c15.75114-21.7932 39.95807-18.15713 38.74341-29.06534l0 0c-1.39248-6.37472-5.1678-8.31654-9.97205-8.31654l0 0c-7.22578-.006-16.75686 4.40196-23.92843 4.68047" fill="url(#c)"/>
<path d="m196.94296 488.53279c-1.57821.44871-3.11.86647-4.57216 1.29971l0 0c-1.31518.35587-2.33637.8742-4.11573 1.49311l0 0c-3.91457 1.7484-6.7538 4.42517-7.41912 10.14231l0 0c-1.1914 10.3744 8.67241 18.513 16.98121 20.89579l0 0c10.5446 3.01716 11.42654-.5106 16.95801 6.96268l0 0c3.86042 5.22202 4.61084 14.91562 6.5836 21.29034l0 0c1.1063 3.56645 2.59941 7.10968 4.38649 10.58329l0 0c7.53511 3.50455 15.52679 6.17358 23.88975 7.84462l0 0c2.07333-12.29301 1.13724-28.88741 3.88363-36.05897l0 0c5.63978-14.68353 8.8194-21.15883 1.21454-36.31427l0 0c-16.77227-4.73463-21.85509-6.23547-38.75115-9.70134l0 0c-3.44266-.70401-5.59335-1.05988-7.52743-1.05988l0 0c-3.00169 0-5.47732.85873-11.51164 2.62261" fill="url(#d)"/>
<path d="m300.74112 403.43331c-4.94351 7.06326-22.28833 8.99734-27.85074 16.94254l0 0c-4.33234 6.20452.1473 18.39696-3.62834 25.42927l0 0c-1.74067 3.24152-.93609 12.64888 1.1836 15.72019l0 0c6.6765 9.71682 17.77805 4.31687 26.1256 7.81368l0 0c10.18867 4.25498 11.35691 16.06833 19.80497 24.71753l0 0c8.46353 8.65694-10.7999 21.99435 4.92804 53.46569l0 0c1.67878 3.38077 3.636 5.85639 5.73261 7.55064l0 0c10.63743-6.61455 19.99831-15.04713 27.69601-24.86452l0 0c2.38278-15.89813-2.98622-20.98089 3.7289-35.5329l0 0c4.13893-8.97413 11.23307-24.50865 18.88435-35.04551l0 0c-1.29976-29.47537-14.53654-55.84074-35.00683-74.37695l0 0c-1.91861.5335-4.36328.62664-7.69763.0248l0 0c-2.86244-.53412-5.43864-.75816-7.775-.75816l0 0c-15.78982 0-20.49357 10.86952-26.12554 18.91529" fill="url(#e)"/>
<path d="m258.53332 577.67757c-3.5355-2.02692-7.9684-5.16786-12.10733-7.90652-1.71747 1.51632-3.10233 3.74438-4.47166 5.53147 4.74243 1.62462 11.13262 1.76388 16.57899 2.37505m-18.66773-12.67983c-7.57385-5.64751-26.31121-23.41783-34.07854-34.13263-2.85464 1.67878-6.03426 6.25095-10.16545 7.04005-1.62463.30203-5.27617.75042-6.35926.30203-1.07541-.44871.24757-2.73092 1.41575-4.25498 2.01918-2.63808 4.96671-6.06527 9.28358-9.40736-9.23716-13.53855-13.62365-23.42556-19.90554-39.74919-3.62834 2.26674-6.26642 4.28592-9.43057 6.80796-1.06761.83552-3.99968 1.36933-5.42316.0928-2.58393-2.32089-2.62261-6.39793 1.00572-8.98186 1.49311-1.06761 8.87355-6.16584 10.59875-7.6048-4.54121-13.08985-8.33975-30.29541-9.34547-39.21539-3.0249 2.63035-7.27987 5.6243-8.47906 6.43662-1.7174.4877-2.87011-.0619-3.36524-.1473-1.7252 18.513.26304 38.8982 5.77129 57.30289 9.46152 31.64928 35.99709 61.82865 71.80849 73.05404.83553-1.24555 4.95125-6.01112 6.66871-7.54291m-73.51048-138.71986c-.44871-6.84664-.99798-16.22305-.99798-16.22305-5.02861 10.93915-8.03804 17.53049-9.43831 30.30315 3.52002-6.23547 10.43629-14.0801 10.43629-14.0801m53.73645-78.30699c20.80296-8.61052 41.0489-13.33741 64.42799-10.14231 2.59946.35587 2.38284 2.56072-.37877 2.58392l-3.29574.0854c-18.83013.29398-46.52614 6.27416-60.8538 14.38955-.30141 9.55435 1.50858 24.74074 3.42719 36.70882 13.02022-5.47731 33.15011-11.10161 48.43708-12.78039-8.68015-9.22169-20.48577-17.94826-21.89378-18.96171-1.41581-1.01346-2.11975-2.73866-2.11975-4.96672.20114-4.16214 3.77532-4.68047 5.69393-4.18534 6.35925-1.24555 12.68756-2.62262 23.46425-2.30543 45.54369-1.98823 87.15734 23.7737 103.04 53.1485 40.23652 63.6312.0124 151.41518-52.66885 174.79433-22.52815 10.00306-41.85347 14.31219-77.47153 9.34547-35.68757-4.98219-64.86122-22.42758-87.52089-59.09772-27.91263-45.18782-12.20017-97.83346-8.27786-108.87318 16.80328-39.62541 44.34457-60.62178 65.99078-69.74289m-47.08322 48.15084c-.61086 4.76557.0248 13.56176 1.22234 24.06768 9.6858-8.66467 28.40002-19.96743 44.04285-26.86823-1.8103-11.92166-3.73664-30.93753-3.5355-35.99708-14.46691 7.93746-30.34957 23.89748-41.98499 40.25979m2.38279 32.19082c1.36932 9.44604 5.90281 29.81576 9.98758 40.15148 9.69361-7.29535 31.6338-20.8339 44.05053-26.31121-4.34002-15.82077-7.26434-25.80836-9.69355-41.77611-17.5537 7.80594-36.11312 19.93648-44.34456 27.93584m13.77064 49.28807c5.75582 16.41646 11.31823 28.94156 18.58263 39.27728 8.49448-7.38819 25.91666-19.05455 39.2386-25.43701-4.38655-9.43057-10.72254-27.06164-15.13224-40.26753-17.15915 8.42485-29.97049 16.63308-42.68899 26.42726m24.01353 46.44884c9.02828 11.58127 23.17026 26.28027 33.01086 34.4034 9.31452-7.48875 19.86686-14.48238 28.64758-18.74509-7.57385-11.74373-18.7683-28.80231-23.45651-39.29275-16.80328 7.45007-26.34216 13.69328-38.20193 23.63444m38.80536 39.51711c3.58191 3.62059 17.77806 13.02022 17.77806 13.02022 9.44604.40971 21.37544-.70401 29.89312-2.18938-4.69594-5.36127-16.4242-21.9634-19.9829-27.54902-9.08244 3.80626-20.57861 10.81537-27.68828 16.71818m57.62009 8.40937c4.78878-1.53952 16.98121-7.07099 19.51872-8.74203.60343-9.83286.50317-20.99637.10088-27.68054-12.81907 0-30.87564 3.75211-41.21909 8.08445 6.00338 9.66266 14.28124 20.30783 21.59979 28.33812m26.28027-12.38584c9.62398-6.00338 18.66773-12.90418 25.22813-21.20524-5.64751-1.41575-18.26544-3.13321-24.52412-2.73092 0 0-.20115 15.00071-.70401 23.93616m28.25303-25.05793c1.81803-1.81803 4.54122-5.67072 5.60109-7.91425 1.05988-9.12112 1.09082-27.81979.70401-33.2739-11.00104-4.46385-27.99773-7.99161-40.41452-8.9045 4.03836 14.81505 6.05754 36.60825 6.35925 43.71019 5.95697.60343 20.98863 3.65154 27.75017 6.38246m16.14569-42.2867c-.50317 1.72519-3.53549 3.45813-4.95124 3.0249.20857 3.06358-.50317 18.28865-1.30744 24.16051 2.11202-4.34007 6.15037-15.11676 7.36498-19.67345l1.70972-6.69191c1.70199-5.69393 7.21798-25.35191 2.22026-51.21442-5.53914-28.73268-15.93675-38.99104-19.57282-43.55546-9.23716-5.02087-23.20895-9.57756-23.20895-9.57756 12.66435 17.14368 17.05085 25.21265 24.6247 45.62879 4.39423 2.28222 12.36263 6.69965 13.35282 7.91425.80464.95157.81237 2.66903-1.68646 2.63035-2.08106-.0124-6.11942-2.0037-9.24489-2.83923 3.32661 11.12483 5.90274 31.89684 5.70934 45.81447 0 0 5.49284 2.66129 4.98998 4.37876m-21.18977-103.52739c-17.56144-21.50696-57.31063-39.80335-101.56236-37.04922 9.88701 6.52171 18.11845 16.36231 25.3287 24.46997 11.04746-1.01346 34.25641.81231 42.98297 3.22604-1.48537-1.75614-3.31114-3.49681-3.78306-4.53348-1.23781-2.66129 1.74068-3.23378 4.1312-1.70973 3.03263 1.93408 6.52165 4.24724 9.29131 7.071 5.12918 1.15271 17.75485 5.47731 23.61124 8.52542m11.24861 96.97473c-.75816-13.87122-2.87791-32.3997-8.02256-45.29614-13.62366-5.46957-32.23724-8.88903-48.58407-9.04375 5.04408 11.7592 10.9082 31.41718 13.77064 44.06606 11.80562 1.41574 30.27221 4.75783 42.83599 10.27383m-38.29477-99.21053c-12.30848-2.22806-30.26447-3.65154-43.58641-2.84696 9.08244 12.57925 15.74341 23.53387 21.99435 39.14576 16.8497.41776 39.74919 5.44637 49.14102 9.13659-5.60103-14.93883-16.24626-33.90828-27.54896-45.43539m-77.19297 101.30707c20.08348-9.22943 42.13198-13.38383 64.32747-12.7804-6.05753-20.98862-9.53114-30.72865-14.68352-43.50131-24.66338 1.06762-45.70616 7.14836-64.87675 16.2308 0 0 7.06325 22.70609 15.2328 40.05091m66.60195-3.95326c-25.12755-.30141-47.06001 5.7094-62.05299 13.08211 6.35151 13.68554 18.91529 31.804 23.61123 39.26954 8.16956-3.04037 16.95027-5.32258 23.75823-6.39019 6.8157-1.05988 15.8904-2.05786 22.0485-1.94956-1.11402-15.92907-2.97848-26.67482-7.36497-44.0119m-84.68172-44.73138c18.16487-7.71311 37.8538-13.88669 64.3971-16.11475-6.76154-16.22306-14.22709-27.68054-23.00781-38.17872-19.56514 1.57047-37.42829 6.84664-52.86998 13.2291 2.26674 12.02224 6.56039 26.56651 11.48069 41.06437"/>
</g>
</g>
</svg>
