<?xml version="1.0" encoding="utf-8"?>
<!-- Generator: Adobe Illustrator 15.0.2, SVG Export Plug-In . SVG Version: 6.00 Build 0)  -->
<!DOCTYPE svg PUBLIC "-//W3C//DTD SVG 1.0//EN" "http://www.w3.org/TR/2001/REC-SVG-20010904/DTD/svg10.dtd">
<svg version="1.0" id="Layer_1" xmlns:sketch="http://www.bohemiancoding.com/sketch/ns"
	 xmlns="http://www.w3.org/2000/svg" xmlns:xlink="http://www.w3.org/1999/xlink" x="0px" y="0px" width="64px" height="64px"
	 viewBox="-16 -16 64 64" enable-background="new -16 -16 64 64" xml:space="preserve">
<linearGradient id="SVGID_1_" gradientUnits="userSpaceOnUse" x1="16.3203" y1="-9.0908" x2="16.3203" y2="32.3999">
	<stop  offset="0" style="stop-color:#FFFFFF"/>
	<stop  offset="1" style="stop-color:#666666"/>
</linearGradient>
<rect x="-13.25" y="-9.091" fill="url(#SVGID_1_)" stroke="#666666" stroke-width="1.5" stroke-miterlimit="10" width="59.142" height="41.49"/>
<path fill="none" stroke="#9B9DA0" stroke-width="2" stroke-linecap="round" stroke-miterlimit="10" d="M39.338,6.916"/>
<path fill="none" stroke="#9B9DA0" stroke-width="2" stroke-linecap="round" stroke-miterlimit="10" d="M-6.697,6.916"/>
<line fill="none" stroke="#9B9DA0" stroke-linecap="round" stroke-miterlimit="10" x1="-6.697" y1="12.654" x2="37.75" y2="12.654"/>
<line fill="none" stroke="#9B9DA0" stroke-linecap="round" stroke-miterlimit="10" x1="6.928" y1="17.375" x2="24.125" y2="17.375"/>
<line fill="none" stroke="#9B9DA0" stroke-linecap="round" stroke-miterlimit="10" x1="-6.697" y1="8.75" x2="37.75" y2="8.75"/>
<g>
	<path fill="#666666" d="M-2.887-0.258c0.084-0.084,0.48-0.468,0.612-0.468c0.12,0,0.18,0.084,0.12,0.276l0.024,0.024
		c1.163-1.007,1.919-2.087,1.919-2.482c0-0.204-0.132-0.288-0.324-0.24c-0.216,0.06-1.583,0.108-4.27,3.25
		c-0.839,0.983-1.451,2.315-1.451,3.226c0,0.852,0.408,1.355,1.271,1.355c1.511,0,4.15-1.967,5.289-2.975
		C0.34,2.32,0.148,2.488-0.308,2.92c-2.338,2.255-4.33,2.975-5.457,2.975c-1.331,0-2.291-0.828-2.291-2.207
		c0-1.763,1.475-3.658,2.71-4.821c1.02-0.972,3.538-2.891,4.965-2.891c0.72,0,1.188,0.384,1.223,1.14
		c0.084,1.619-3.01,4.689-4.521,4.917C-4.026,2.081-4.35,1.841-4.35,1.457c0-0.36,0.324-0.72,0.576-0.936L-2.887-0.258z"/>
	<path fill="#666666" d="M5.082,2.536C4.35,3.388,3.031,4.515,1.844,4.515c-0.875,0-1.283-0.78-1.308-1.571
		c-0.048-1.571,1.691-3.178,3.25-3.166c0.384,0,0.863,0.096,0.863,0.576c0,0.587-0.587,1.475-2.89,2.23L1.736,2.848
		C1.7,3.304,2.096,3.46,2.479,3.46c0.852,0,1.859-0.876,2.495-1.379L5.082,2.536z M3.595,0.605c0-0.084-0.06-0.156-0.144-0.132
		c-0.6,0.156-1.295,0.732-1.619,1.523C2.887,1.637,3.606,0.809,3.595,0.605z"/>
	<path fill="#666666" d="M5.755,1.721C5.336,2.38,4.832,2.692,4.316,3.208L4.269,2.68C4.58,2.428,4.832,2.128,5.06,1.805
		c-0.252-0.024-0.324-0.12-0.324-0.372c0-0.863,1.223-1.727,1.511-1.727c0.12,0,0.216,0.096,0.216,0.204
		c0,0.12-0.036,0.228-0.084,0.336c1.127-0.156,1.787-0.3,1.907-0.156c0.18,0.228,0.264,0.42,0.288,0.636
		c0,0.372-0.228,0.552-0.504,0.78c-0.348,0.3-0.936,0.887-0.936,1.367c0,0.192,0.192,0.336,0.372,0.336
		c0.516,0,1.271-0.78,1.667-1.08l0.084,0.444C8.802,3.088,7.423,4.419,6.739,4.419c-0.504,0-0.816-0.467-0.816-0.923
		c0-0.815,0.624-1.451,1.104-2.027L7.003,1.445L5.755,1.721z"/>
	<path fill="#666666" d="M13.253-0.678c-0.563,1.14-0.66,1.583-1.979,1.5c-0.408,0.527-1.091,1.511-1.091,2.23
		c0,0.264,0.084,0.42,0.36,0.42c0.384,0,0.815-0.36,2.063-1.247l0.06,0.527C11.958,3.4,10.663,4.683,9.644,4.683
		c-0.468,0-0.756-0.324-0.756-0.804c0-0.396,0.156-0.852,0.312-1.199L9.176,2.656L8.564,3.148L8.432,2.692
		c0.72-0.552,1.379-1.164,1.823-1.919c-0.732,0-0.504-0.048-1.14,0.048l0.132-0.216C9.896-0.45,9.991-0.642,11.274-0.69
		c0.36-0.492,0.624-1.056,1.319-1.056c0.156,0,0.384,0.036,0.384,0.228c0,0.216-0.348,0.612-0.468,0.78L13.253-0.678z"/>
	<path fill="#666666" d="M15.978,2.764c-0.54,0.66-1.595,1.739-2.507,1.739c-0.708,0-1.031-0.815-1.031-1.427
		c0-1.463,1.499-2.891,2.219-2.891c0.204,0,0.528,0.072,0.528,0.336c0,0.6-1.188,1.667-1.691,2.015
		c-0.096,0.492,0.084,0.756,0.636,0.756c0.636,0,1.259-0.636,1.739-0.983L15.978,2.764z M14.827-0.57
		c0-0.492,0.576-0.923,1.043-0.923c0.216,0,0.396,0.156,0.396,0.372c0,0.479-0.444,1.067-0.959,1.067
		C15.019-0.054,14.827-0.282,14.827-0.57z"/>
	<path fill="#666666" d="M21.593,0.186c0.204,0,0.527,0.072,0.527,0.336c0,0.6-1.188,1.667-1.691,2.015
		c-0.096,0.492,0.084,0.756,0.636,0.756c0.636,0,1.26-0.636,1.739-0.983l0.108,0.456c-0.54,0.66-1.596,1.739-2.507,1.739
		c-0.708,0-1.031-0.815-1.031-1.427c0-0.036,0-0.06,0.012-0.072L19.361,2.98c-0.323,0.3-0.684,0.588-1.115,0.792
		c0.048,0.228,0.024,0.444,0.013,0.66c-0.097,1.427-1.775,2.747-2.651,2.878C15.056,7.394,14.9,6.278,14.9,5.882
		c0-0.779,0.516-1.727,0.839-2.411c-0.192-0.204-0.348-0.384-0.348-0.684c0-0.479,0.324-0.612,0.671-0.804
		c0.708-0.384,1.092-0.947,1.463-1.631c0.312-0.588,1.859-3.442,2.471-3.442c0.265,0,0.288,0.336,0.288,0.528
		c0,0.468-0.359,1.307-0.624,1.679l-2.242,3.13c0.348,0.204,0.468,0.6,0.624,0.947l1.486-0.923
		C19.901,1.121,21.005,0.186,21.593,0.186z M17.371,4c-0.384,0.024-0.576,0.012-0.863-0.096c-0.312,0.528-0.504,0.959-0.552,1.355
		c-0.048,0.384,0.06,0.72,0.24,1.067C16.939,5.834,17.479,4.899,17.371,4z M21.761-0.57c0-0.492,0.575-0.923,1.043-0.923
		c0.216,0,0.396,0.156,0.396,0.372c0,0.479-0.443,1.067-0.959,1.067C21.952-0.054,21.761-0.282,21.761-0.57z"/>
	<path fill="#666666" d="M24.187,2.068c-0.264,0.192-0.479,0.372-0.479,0.708c0,0.276,0.287,0.648,0.911,0.648
		c0.911,0,1.955-0.84,2.65-1.379l0.145,0.468c-0.732,0.78-2.075,1.967-3.215,1.967c-0.923,0-1.367-0.863-1.367-1.751
		c0-1.007,0.36-1.379,1.14-1.967c0.54-0.408,1.691-1.056,2.362-1.056c0.372,0,0.54,0.192,0.54,0.552c0,0.66-0.947,1.583-1.271,1.583
		c-0.275,0-0.396-0.3-0.407-0.528L24.187,2.068z"/>
	<path fill="#666666" d="M29.13,3.508c-0.228,0.18-0.995,0.803-1.271,0.803c-0.336,0-1.031-0.792-1.056-1.415
		c-0.048-1.499,3.07-3.034,4.462-3.07c0.552-0.012,0.779,0.432,0.779,0.576s-0.312,0.264-0.42,0.3
		c0.229,0.096,0.349,0.228,0.349,0.492c0,0.384-1.044,1.224-1.044,1.787c0,0.204,0.18,0.288,0.372,0.288
		c0.504,0,1.188-0.611,1.703-0.959L33.1,2.752c-0.516,0.588-2.123,1.871-2.711,1.871c-0.396,0-0.575-0.288-0.575-0.636
		c0-0.384,0.288-1.02,0.443-1.343L30.233,2.62L29.13,3.508z M27.679,3.196c0.012,0.06,0.06,0.276,0.239,0.24
		c0.24-0.048,0.612-0.012,2.986-2.411l-0.023-0.024C28.026,1.876,27.679,2.608,27.679,3.196z"/>
	<path fill="#666666" d="M37.181-0.678c-0.564,1.14-0.66,1.583-1.979,1.5c-0.407,0.527-1.091,1.511-1.091,2.23
		c0,0.264,0.084,0.42,0.359,0.42c0.384,0,0.815-0.36,2.062-1.247l0.061,0.527C35.885,3.4,34.59,4.683,33.57,4.683
		c-0.468,0-0.756-0.324-0.756-0.804c0-0.396,0.156-0.852,0.312-1.199l-0.024-0.024l-0.611,0.492l-0.132-0.456
		c0.719-0.552,1.379-1.164,1.822-1.919c-0.731,0-0.504-0.048-1.139,0.048l0.132-0.216c0.647-1.056,0.743-1.248,2.026-1.295
		c0.36-0.492,0.624-1.056,1.319-1.056c0.156,0,0.384,0.036,0.384,0.228c0,0.216-0.348,0.612-0.468,0.78L37.181-0.678z"/>
	<path fill="#666666" d="M40.972,2.536c-0.731,0.852-2.051,1.979-3.238,1.979c-0.875,0-1.283-0.78-1.307-1.571
		c-0.048-1.571,1.69-3.178,3.25-3.166c0.384,0,0.863,0.096,0.863,0.576c0,0.587-0.588,1.475-2.891,2.23l-0.023,0.264
		C37.59,3.304,37.985,3.46,38.369,3.46c0.852,0,1.859-0.876,2.495-1.379L40.972,2.536z M39.484,0.605
		c0-0.084-0.06-0.156-0.144-0.132c-0.6,0.156-1.295,0.732-1.619,1.523C38.777,1.637,39.497,0.809,39.484,0.605z"/>
</g>
<path fill="none" stroke="#666666" stroke-linecap="round" stroke-linejoin="round" d="M23.451,22.681
	c0.006-0.869,0.535-1.759,1.248-2.215c-0.001,0.521-0.086,1.034-0.2,1.545c0.95,0.373,1.983-1.284,2.727-1.716
	c0.024,0.895,0.563,1.914,0.956,2.692c0.665-0.479,1.228-1.196,1.783-1.813c-0.129,1.017,0.275,1.439,0.94,2.015
	c0.002,0.002,1.171,0.639,1.18,0.641c1.031,0.205,1.911-0.381,2.927-0.562c0.696-0.125,1.476-0.081,2.204-0.199
	c-0.039-0.519-0.004-1.047,0.202-1.525c0.238,0.627,0.596,1.31,1.033,1.764"/>
<path fill="none" stroke="#666666" stroke-linecap="round" stroke-linejoin="round" d="M-5.5,21.25
	c0.817-0.091,1.379-0.771,2.136-1.002c-0.23,1.323-1.464,2.197-1.832,3.468c2.935-1.776,6.125-2.578,9.421-3.349
	c-0.699,0.463-1.101,1.227-1.727,1.706C1.44,22.885-0.28,23.154-1.454,23.92c1.138-0.902,2.061-2.287,3.353-2.964
	c0.21,0.299,0.343,0.752,0.357,1.168c2.06-0.099,4.075,0.563,6.173,0.367c1.339-0.126,1.739-0.423,2.946,0.134"/>
</svg>
