<svg height="24" width="24" xmlns="http://www.w3.org/2000/svg"><path d="m1.5 20.5h21v-13.836l-5-5.164h-16z" fill="#fff" fill-rule="evenodd" stroke="#727272" stroke-linejoin="round"/><path d="m4 3h13v1h-13z" fill="#b3b3b3" fill-opacity=".44"/><path d="m3 18h18v1h-18z" fill="#999" fill-opacity=".44"/><path d="m22.619 6.568h-5v-5z" fill="#f0f0f0" fill-rule="evenodd" stroke="#727272" stroke-linejoin="round"/><path d="m3.502 3.5v18.99h4.016v-13.94l4.96.037v-5.05l-4.959-.037z" fill="#e6e6e6" stroke="#999" stroke-linecap="square"/><path d="m4.019 3.565 3.914 4.38-.837.977-3.914-4.381z" fill="#999" fill-opacity=".647"/><path d="m3.004 8.004h3v1h-3zm0 2h3v1h-3zm0 2h3v1h-3zm0 2h3v1h-3zm0 2h3v1h-3z" fill="#999"/><path d="m21 18v-11h-1v11z" fill="#b3b3b3" fill-opacity=".44"/><path d="m3.028 17.996h3v1h-3z" fill="#999"/></svg>