<?xml version="1.0" encoding="utf-8"?>
<!-- Generator: Adobe Illustrator 15.0.2, SVG Export Plug-In . SVG Version: 6.00 Build 0)  -->
<!DOCTYPE svg PUBLIC "-//W3C//DTD SVG 1.0//EN" "http://www.w3.org/TR/2001/REC-SVG-20010904/DTD/svg10.dtd">
<svg version="1.0"
	 id="labelquadrant" sodipodi:docname="label.svg" inkscape:version="0.47 r22583" xmlns:dc="http://purl.org/dc/elements/1.1/" xmlns:cc="http://creativecommons.org/ns#" xmlns:svg="http://www.w3.org/2000/svg" xmlns:rdf="http://www.w3.org/1999/02/22-rdf-syntax-ns#" xmlns:sodipodi="http://sodipodi.sourceforge.net/DTD/sodipodi-0.dtd" inkscape:export-ydpi="90" xmlns:inkscape="http://www.inkscape.org/namespaces/inkscape" inkscape:export-filename="/mnt/home1/robert/svn/graphics/trunk/toolbar-icons/24x24/label.png" inkscape:export-xdpi="90"
	 xmlns="http://www.w3.org/2000/svg" xmlns:xlink="http://www.w3.org/1999/xlink" x="0px" y="0px" width="22px" height="16px"
	 viewBox="21 24 22 16" enable-background="new 21 24 22 16" xml:space="preserve">
<circle stroke="#000000" stroke-width="2" stroke-miterlimit="10" cx="32.298" cy="32" r="6.956"/>
<g enable-background="new    ">
	
		<linearGradient id="path4080-2_1_" gradientUnits="userSpaceOnUse" x1="-40.9458" y1="120.1816" x2="-43.7345" y2="124.3646" gradientTransform="matrix(1.3333 0 0 -1.3333 90.9203 197.4109)">
		<stop  offset="0" style="stop-color:#DBDBDB"/>
		<stop  offset="0.6087" style="stop-color:#F4F4F4"/>
		<stop  offset="1" style="stop-color:#FFFFFF"/>
	</linearGradient>
	
		<path id="path4080-2_2_" sodipodi:nodetypes="cccccc" inkscape:connector-curvature="0" fill="url(#path4080-2_1_)" stroke="#808080" stroke-linecap="round" stroke-linejoin="round" d="
		M22.116,32.102l3.708-4.659h14.843v9.316H25.824L22.116,32.102z"/>
	<path fill="#2E3436" d="M29.856,34.662v0.142h-1.27c-0.088-0.134-0.134-0.286-0.134-0.455c-0.413,0.431-0.868,0.646-1.371,0.646
		c-0.434,0-0.789-0.142-1.061-0.425c-0.213-0.229-0.317-0.539-0.317-0.935c0-0.806,0.442-1.28,1.336-1.435l0.47-0.084
		c0.377-0.06,0.608-0.11,0.691-0.15c0.006-0.005,0.02-0.013,0.042-0.024c0.133-0.073,0.2-0.191,0.2-0.352
		c0-0.304-0.227-0.454-0.677-0.454c-0.378,0-0.62,0.089-0.73,0.269l-0.075,0.202l-0.024,0.151h-1.136
		c0.073-1.046,0.719-1.571,1.938-1.571c1.232,0,1.848,0.464,1.848,1.394v2.527c0,0.189,0.072,0.357,0.218,0.504
		C29.825,34.629,29.842,34.646,29.856,34.662z M28.446,32.979v-0.321c-0.108,0.05-0.272,0.102-0.494,0.145l-0.402,0.076
		c-0.369,0.076-0.585,0.219-0.646,0.422l-0.024,0.202c0,0.273,0.138,0.447,0.413,0.52c0.067,0.021,0.143,0.024,0.227,0.024
		c0.484,0,0.777-0.23,0.883-0.696C28.431,33.237,28.446,33.116,28.446,32.979z"/>
	<path fill="#2E3436" d="M30.469,28.675h1.169v2.176c0.278-0.442,0.694-0.664,1.242-0.664c0.471,0,0.879,0.167,1.218,0.504
		c0.074,0.073,0.14,0.149,0.194,0.227c0.322,0.471,0.486,1.028,0.486,1.673c0,0.771-0.222,1.391-0.66,1.861
		c-0.352,0.363-0.764,0.547-1.238,0.547c-0.547,0-0.962-0.22-1.242-0.655v0.461h-1.169V28.675L30.469,28.675z M32.62,31.169
		c-0.363,0-0.64,0.199-0.824,0.597l-0.1,0.295c-0.04,0.162-0.059,0.334-0.059,0.514c0,0.615,0.167,1.041,0.503,1.279
		c0.139,0.11,0.298,0.16,0.48,0.16c0.357,0,0.633-0.19,0.819-0.578c0.111-0.242,0.167-0.521,0.167-0.835
		c0-0.575-0.157-0.988-0.47-1.247C32.981,31.23,32.809,31.169,32.62,31.169z"/>
	<path fill="#2E3436" d="M39.435,31.96h-1.119c-0.093-0.432-0.265-0.69-0.51-0.773l-0.231-0.051c-0.027,0-0.057,0-0.093,0
		c-0.343,0-0.584,0.128-0.726,0.386c-0.148,0.285-0.225,0.652-0.225,1.104c0,0.687,0.185,1.127,0.553,1.322
		c0.124,0.065,0.254,0.101,0.399,0.101c0.334,0,0.571-0.152,0.714-0.464c0.048-0.099,0.084-0.219,0.118-0.352h1.119
		c-0.073,0.694-0.374,1.196-0.91,1.506c-0.307,0.174-0.656,0.259-1.049,0.259c-0.879,0-1.494-0.346-1.838-1.043
		c-0.186-0.37-0.277-0.811-0.277-1.333c0-1.046,0.333-1.766,0.995-2.159c0.319-0.184,0.696-0.278,1.135-0.278
		c0.768,0,1.322,0.274,1.661,0.825c0.107,0.185,0.185,0.389,0.234,0.612C39.409,31.73,39.425,31.841,39.435,31.96z"/>
</g>
</svg>
