<?xml version="1.0" encoding="UTF-8" standalone="no"?>
<!-- Generator: Adobe Illustrator 15.0.2, SVG Export Plug-In . SVG Version: 6.00 Build 0)  -->

<svg
   xmlns:dc="http://purl.org/dc/elements/1.1/"
   xmlns:cc="http://creativecommons.org/ns#"
   xmlns:rdf="http://www.w3.org/1999/02/22-rdf-syntax-ns#"
   xmlns:svg="http://www.w3.org/2000/svg"
   xmlns="http://www.w3.org/2000/svg"
   xmlns:sodipodi="http://sodipodi.sourceforge.net/DTD/sodipodi-0.dtd"
   xmlns:inkscape="http://www.inkscape.org/namespaces/inkscape"
   version="1.0"
   id="svg5692"
   inkscape:export-xdpi="90"
   inkscape:export-ydpi="90"
   inkscape:export-filename="/media/home1/robert/svn/graphics/trunk/toolbar-icons/32x32/table-field-create.png"
   sodipodi:docname="mIconDataDefineExpression.svg"
   inkscape:version="0.48.4 r9939"
   x="0px"
   y="0px"
   width="24px"
   height="24px"
   viewBox="4 4 24 24"
   enable-background="new 4 4 24 24"
   xml:space="preserve"><metadata
     id="metadata41"><rdf:RDF><cc:Work
         rdf:about=""><dc:format>image/svg+xml</dc:format><dc:type
           rdf:resource="http://purl.org/dc/dcmitype/StillImage" /></cc:Work></rdf:RDF></metadata><defs
     id="defs39" /><sodipodi:namedview
     pagecolor="#ffffff"
     bordercolor="#666666"
     borderopacity="1"
     objecttolerance="10"
     gridtolerance="10"
     guidetolerance="10"
     inkscape:pageopacity="0"
     inkscape:pageshadow="2"
     inkscape:window-width="837"
     inkscape:window-height="545"
     id="namedview37"
     showgrid="true"
     inkscape:zoom="9.8333333"
     inkscape:cx="4.0570016"
     inkscape:cy="12"
     inkscape:window-x="65"
     inkscape:window-y="24"
     inkscape:window-maximized="0"
     inkscape:current-layer="svg5692"><inkscape:grid
       type="xygrid"
       id="grid3018" /></sodipodi:namedview><path
     inkscape:connector-curvature="0"
     d="m 9.5,19.892 c 0,0.836 -0.284,1.193 -0.631,0.792 L 5.098,16.333 C 4.75,15.932 4.75,15.275 5.098,14.874 L 8.869,10.515 C 9.216,10.113 9.5,10.47 9.5,11.307 v 8.585 z"
     id="path3-5"
     style="fill:#939598;stroke:#4f5052;stroke-width:1;stroke-miterlimit:4;stroke-opacity:1;stroke-dasharray:none" /><path
     style="fill:none"
     inkscape:connector-curvature="0"
     id="path7926_2_-1"
     d="M 9.341,8.1989997 V 23.355 H 21.855 V 8.1989997 H 9.341 l 0,0 z" /><path
     id="rect8772_1_-9"
     sodipodi:nodetypes="ccccccccc"
     d="m 9.5001508,8.5001504 v 9.3739456 2.499125 3.126628 H 21.499849 V 20.373221 17.874096 8.5001504 H 9.5001508 z"
     inkscape:connector-curvature="0"
     style="fill:#ffffff;fill-opacity:0.70319633;stroke:#878984;stroke-width:1.00030172;stroke-linecap:round;stroke-linejoin:round;stroke-miterlimit:4;stroke-opacity:1;stroke-dasharray:none" /><path
     id="rect8772_1_"
     sodipodi:nodetypes="ccccccccc"
     display="none"
     fill="#EDB2B2"
     stroke="#C40000"
     stroke-linecap="round"
     stroke-linejoin="round"
     d="  M9.341,8.199v9.471v2.525v3.159h12.514v-3.159V17.67V8.199H9.341z" /><path
     id="rect8772"
     sodipodi:nodetypes="ccccccccc"
     display="none"
     fill="#FBF091"
     stroke="#C4A000"
     stroke-linecap="round"
     stroke-linejoin="round"
     d="  M9.341,8.199v9.471v2.525v3.159h12.514v-3.159V17.67V8.199H9.341z" /><g
     display="none"
     id="g8"><rect
       id="rect8700_1_"
       x="9.343"
       y="8.219"
       display="inline"
       fill="none"
       stroke="#C40000"
       stroke-linecap="round"
       stroke-linejoin="round"
       width="12.51"
       height="7.559" /><rect
       id="rect8700_2_"
       x="9.343"
       y="8.219"
       display="inline"
       fill="none"
       stroke="#C4A000"
       stroke-linecap="round"
       stroke-linejoin="round"
       width="12.51"
       height="7.559" /><g
       display="inline"
       id="g12"><path
         id="path8729"
         sodipodi:nodetypes="cc"
         fill="none"
         stroke="#58595B"
         stroke-width="2"
         stroke-linecap="round"
         stroke-linejoin="round"
         d="    M12.325,11.955H18.9" /><path
         id="path8742"
         sodipodi:nodetypes="cc"
         fill="none"
         stroke="#58595B"
         stroke-linecap="round"
         stroke-linejoin="round"
         d="    M12.494,19.404h6.577" /></g></g><path
     style="fill:#58595b"
     inkscape:connector-curvature="0"
     d="m 13.948,15.357 c -1.573,-0.56 -2.361,-1.408 -2.361,-2.542 0,-0.896 0.416,-1.611 1.246,-2.147 0.839,-0.535 1.878,-0.803 3.116,-0.803 1.125,0 2.016,0.188 2.68,0.563 0.664,0.369 0.996,0.812 0.996,1.332 0,0.271 -0.104,0.511 -0.312,0.72 -0.207,0.2 -0.447,0.3 -0.719,0.3 -0.447,0 -0.816,-0.312 -1.104,-0.936 -0.397,-0.863 -0.995,-1.295 -1.792,-1.295 -0.63,0 -1.151,0.208 -1.559,0.623 -0.408,0.416 -0.612,0.996 -0.612,1.74 0,1.462 0.757,2.195 2.268,2.195 0.159,0 0.342,-0.016 0.549,-0.048 0.359,-0.047 0.637,-0.071 0.837,-0.071 0.485,0 0.729,0.14 0.729,0.419 0,0.312 -0.248,0.467 -0.742,0.467 -0.175,0 -0.438,-0.028 -0.789,-0.084 -0.264,-0.048 -0.467,-0.071 -0.609,-0.071 -1.6,0 -2.398,0.812 -2.398,2.44 0,0.791 0.212,1.431 0.636,1.919 0.424,0.479 1.017,0.72 1.774,0.72 0.949,0 1.577,-0.492 1.888,-1.477 0.16,-0.519 0.336,-0.879 0.527,-1.079 0.201,-0.199 0.465,-0.3 0.793,-0.3 0.271,0 0.514,0.101 0.73,0.3 0.225,0.192 0.336,0.44 0.336,0.744 0,0.728 -0.408,1.331 -1.223,1.812 -0.816,0.471 -1.802,0.707 -2.958,0.707 -1.27,0 -2.401,-0.304 -3.391,-0.911 -0.983,-0.608 -1.475,-1.42 -1.475,-2.435 0.002,-1.272 0.981,-2.203 2.939,-2.802"
     id="path3002_1_" /><path
     style="opacity:0.5;fill:#ffffff"
     inkscape:connector-curvature="0"
     d="m 12.954,11.868 c -1.483,1.602 -1.146,-0.264 -0.257,-0.906 0.921,-0.666 1.438,-0.649 1.431,-0.446 -0.008,0.238 -0.707,0.848 -1.174,1.352 z"
     enable-background="new    "
     sodipodi:nodetypes="csss"
     id="path3778_1_" /><path
     style="opacity:0.5;fill:#ffffff"
     inkscape:connector-curvature="0"
     d="m 12.456,17.028 c -1.485,1.601 -1.23,0.119 -0.34,-0.52 0.92,-0.663 1.437,-0.646 1.43,-0.443 -0.008,0.238 -0.626,0.462 -1.09,0.963 z"
     enable-background="new    "
     sodipodi:nodetypes="csss"
     id="path3807_1_" /><path
     style="opacity:0.5;fill:#ffffff"
     inkscape:connector-curvature="0"
     d="m 18.973,18.817 c -1.432,1.598 -1.322,0.08 -0.402,-0.509 0.702,-0.449 0.909,-0.06 0.402,0.509 z"
     enable-background="new    "
     sodipodi:nodetypes="css"
     id="path3809_1_" /><g
     display="none"
     id="g23"><path
       id="path3002"
       display="inline"
       fill="#5C3566"
       d="M13.948,15.357c-1.573-0.56-2.361-1.408-2.361-2.542   c0-0.896,0.416-1.611,1.246-2.147c0.839-0.535,1.878-0.803,3.116-0.803c1.125,0,2.016,0.188,2.68,0.563   c0.664,0.369,0.996,0.812,0.996,1.332c0,0.271-0.104,0.511-0.312,0.72c-0.207,0.2-0.447,0.3-0.719,0.3   c-0.447,0-0.816-0.312-1.104-0.936c-0.397-0.863-0.995-1.295-1.792-1.295c-0.63,0-1.151,0.208-1.559,0.623   c-0.408,0.416-0.612,0.996-0.612,1.74c0,1.462,0.757,2.195,2.268,2.195c0.159,0,0.342-0.016,0.549-0.048   c0.359-0.047,0.637-0.071,0.837-0.071c0.485,0,0.729,0.14,0.729,0.419c0,0.312-0.248,0.467-0.742,0.467   c-0.175,0-0.438-0.028-0.789-0.084c-0.264-0.048-0.467-0.071-0.609-0.071c-1.6,0-2.398,0.812-2.398,2.44   c0,0.791,0.212,1.431,0.636,1.919c0.424,0.479,1.017,0.72,1.774,0.72c0.949,0,1.577-0.492,1.888-1.477   c0.16-0.519,0.336-0.879,0.527-1.079c0.201-0.199,0.465-0.3,0.793-0.3c0.271,0,0.514,0.101,0.73,0.3   c0.225,0.192,0.336,0.44,0.336,0.744c0,0.728-0.408,1.331-1.223,1.812c-0.816,0.471-1.802,0.707-2.958,0.707   c-1.27,0-2.401-0.304-3.391-0.911c-0.983-0.608-1.475-1.42-1.475-2.435C11.011,16.887,11.99,15.956,13.948,15.357" /><path
       id="path3778"
       sodipodi:nodetypes="csss"
       display="inline"
       opacity="0.5"
       fill="#FFFFFF"
       enable-background="new    "
       d="   M12.954,11.868c-1.483,1.602-1.146-0.264-0.257-0.906c0.921-0.666,1.438-0.649,1.431-0.446   C14.12,10.754,13.421,11.364,12.954,11.868z" /><path
       id="path3807"
       sodipodi:nodetypes="csss"
       display="inline"
       opacity="0.5"
       fill="#FFFFFF"
       enable-background="new    "
       d="   M12.456,17.028c-1.485,1.601-1.23,0.119-0.34-0.52c0.92-0.663,1.437-0.646,1.43-0.443C13.538,16.303,12.92,16.527,12.456,17.028z" /><path
       id="path3809"
       sodipodi:nodetypes="css"
       display="inline"
       opacity="0.5"
       fill="#FFFFFF"
       enable-background="new    "
       d="   M18.973,18.817c-1.432,1.598-1.322,0.08-0.402-0.509C19.273,17.859,19.48,18.248,18.973,18.817z" /></g><g
     display="none"
     id="g29"><path
       id="path7926"
       display="inline"
       fill="none"
       stroke="#878984"
       stroke-linecap="round"
       stroke-linejoin="round"
       d="   M9.341,8.199v15.156h12.514V8.199H9.341L9.341,8.199z" /><rect
       id="rect8700"
       x="9.342"
       y="8.22"
       display="inline"
       fill="none"
       stroke="#878984"
       stroke-linecap="round"
       stroke-linejoin="round"
       width="12.511"
       height="7.559" /><g
       display="inline"
       id="g33"><path
         id="path8729_1_"
         sodipodi:nodetypes="cc"
         fill="none"
         stroke="#555753"
         stroke-width="2"
         stroke-linecap="round"
         stroke-linejoin="round"
         d="    M12.325,11.955H18.9" /><path
         id="path8742_1_"
         sodipodi:nodetypes="cc"
         fill="none"
         stroke="#555753"
         stroke-linecap="round"
         stroke-linejoin="round"
         d="    M12.494,19.405h6.577" /></g></g></svg>