<svg xmlns="http://www.w3.org/2000/svg" width="16" height="16"><path fill="#eeeeec" stroke="#888a85" d="M1.5 1.5h13v13h-13z"/><path d="M5 2v4c0 1.1.895 2 2 2s2-.9 2-2V2z" fill="#888a85"/><path d="M7 2v1h1V2zm0 1H6v1h1zm0 1v1h1V4zm0 1H6v1h1zm0 1v1c.552 0 1-.5 1-1z" fill="#555"/><path d="M6 2v1h1V2zm0 2v1h1V4zm0 2c0 .5.448 1 1 1V6z" fill="#ddd"/><path d="M7 3h1v1H7zm0 2h1v1H7z" fill="#cfcfcf"/><path d="M7 7c-1.105 0-2 .9-2 2v4c0 1.1.895 2 2 2s2-.9 2-2V9c0-1.1-.895-2-2-2zm0 1c.552 0 1 .4 1 1 0 .5-.448 1-1 1s-1-.5-1-1c0-.6.448-1 1-1zm0 3c.552 0 1 .4 1 1v1c0 .5-.448 1-1 1s-1-.5-1-1v-1c0-.6.448-1 1-1zM6 1h1v1H6z" fill="#555"/><path fill="#cfcfcf" d="M7 1h1v1H7z"/></svg>
