<svg xmlns="http://www.w3.org/2000/svg" width="24" height="24"><linearGradient id="a" x1="4.033" x2="13.489" y1="11.187" y2="18.128" gradientUnits="userSpaceOnUse"><stop offset="0" stop-color="#bfbfbf" style="stop-color:#7a7a7a;stop-opacity:1"/><stop offset="1" stop-color="#e1e1e1" style="stop-color:#afb1b0;stop-opacity:1"/></linearGradient><path fill="url(#a)" d="m21.221 4.805-.983.438-3.164-.43-2.547.128L9.88 4.39 6.454 6.596 5.01 6.583l-1.161 4.66L.975 15.68l3.144.064 9.54 2.573 7.85-.564z" style="fill:url(#a)"/><path d="m8.719 15.604 2.193-2.896L14.6 9.636l1.433-.85L18.579 6.3" style="fill:none;fill-opacity:1;stroke:#334659;stroke-width:3.5;stroke-linecap:round;stroke-dasharray:none;stroke-opacity:1"/><path d="m8.28 16.161 2.632-3.453L14.6 9.636l1.433-.85 2.926-2.867" style="fill:none;fill-opacity:1;stroke:#66809c;stroke-width:2;stroke-linecap:round;stroke-dasharray:none;stroke-opacity:1"/><path fill="none" stroke="#9a9a9a" stroke-linecap="round" stroke-linejoin="round" d="m21.221 4.805-1.415.33-2.732-.322-2.547.128L9.88 4.39 6.454 6.596 5.01 6.583l-1.161 4.66L.975 15.68l3.144.064 9.54 2.573 7.85-.564z" style="stroke:#454545;stroke-opacity:1;stroke-width:1.3;stroke-dasharray:none"/></svg>