<svg xmlns="http://www.w3.org/2000/svg" width="24" height="24"><path d="m15.183 4.48-.397 1.546a6.415 6.415 0 0 1 3.945 7.153 6.417 6.417 0 0 1-7.498 5.142 6.418 6.418 0 0 1-5.144-7.5A6.406 6.406 0 0 1 8.86 6.637l-.473-1.561A8.001 8.001 0 0 0 4.53 10.53c-.81 4.344 2.069 8.54 6.412 9.35 4.343.81 8.54-2.068 9.35-6.412.726-3.892-1.511-7.665-5.11-8.99Z" style="color:#000;fill:#555;fill-opacity:1;stroke-width:1;-inkscape-stroke:none"/><path d="m10.125 4.202-5.828.19a.793.793 45 0 0-.767.82.793.793 45 0 0 .819.767l4.243-.138.139 4.328a.793.793 45 0 0 .818.767.793.793 45 0 0 .768-.818z" style="color:#000;fill:#555;fill-opacity:1;stroke-width:1;stroke-linecap:round;-inkscape-stroke:none"/></svg>