<svg height="16" width="16" xmlns="http://www.w3.org/2000/svg"><g stroke="#888a85" stroke-linecap="round" stroke-linejoin="round" transform="translate(0 -16)"><path d="m1.5 4.5 4 9 5-11h4" fill="none" transform="translate(0 16)"/><g fill="#eeeeec" fill-rule="evenodd"><path d="m4.5 12.5c0 .552285-.4477153 1-1 1s-1-.447715-1-1 .4477153-1 1-1 1 .447715 1 1z" transform="translate(2 17)"/><path d="m4.5 12.5c0 .552285-.4477153 1-1 1s-1-.447715-1-1 .4477153-1 1-1 1 .447715 1 1z" transform="translate(11 6)"/><path d="m4.5 12.5c0 .552285-.4477153 1-1 1s-1-.447715-1-1 .4477153-1 1-1 1 .447715 1 1z" transform="translate(7 6)"/><path d="m4.5 12.5c0 .552285-.4477153 1-1 1s-1-.447715-1-1 .4477153-1 1-1 1 .447715 1 1z" transform="translate(-2 8)"/></g></g></svg>