<svg width="32" height="32" xmlns="http://www.w3.org/2000/svg"><defs><linearGradient id="a" x1="305" x2="335" y1="64.3" y2="81.9" gradientTransform="matrix(.1 .804 -.811 .0982 42.1 -237)" gradientUnits="userSpaceOnUse"><stop stop-color="#d3d7cf" offset="0"/><stop stop-color="#babdb6" offset=".183"/><stop stop-color="#fff" offset=".319"/><stop stop-color="#babdb6" offset=".876"/><stop stop-color="#eeeeec" offset="1"/></linearGradient><linearGradient id="b" x1="97.4" x2="90.2" y1="35.2" y2="35.1" gradientTransform="matrix(.626 .482 -.273 .346 -31.6 -33.6)" gradientUnits="userSpaceOnUse"><stop stop-color="#f8e27e" offset="0"/><stop stop-color="#e3d189" offset="1"/></linearGradient></defs><path d="m30.8 13.2c.0516-.783-.588-.228-.812 0-.95.68-1.88 1.39-2.84 2.05-.672.233-1.32-.286-1.77-.725-.641-.706-1.27-1.62-1.15-2.61.0926-.504.629-.691.983-.994.88-.641 1.77-1.28 2.64-1.92-.0463-.491-.854-.394-1.25-.415-1.67.0293-3.49.567-4.5 1.97-.829 1.14-1.02 2.66-.598 3.99-.231 1.24-.695 2.46-1.49 3.45.978.709 1.96 1.42 2.93 2.13.69-.887 1.55-1.66 2.54-2.19 1.48.214 3-.475 3.89-1.64.707-.892 1.23-1.96 1.41-3.08z" fill="url(#a)" fill-rule="evenodd" stroke="#3b3b3b" stroke-dashoffset=".361" stroke-linecap="round" stroke-linejoin="round"/><path d="m30.5 13.2c-.0038.0156-.0246.0091-.0254 0l-3.04 2.2c-.41.297-.952.184-1.42-.0576-.474-.244-.955-.653-1.36-1.21-.405-.561-.642-1.17-.725-1.7-.0835-.524.0066-1.04.401-1.32l3.07-2.21c.000303-.011-.0049-.0265-.0032-.0256.0199.0146-.0126.00915-.0254 0-1.49-.158-3.14.218-4.17.964-1.41 1.02-1.91 2.86-1.39 4.55.526 1.69 2.22 2.98 3.71 3.17.962.119 1.95-.101 2.77-.692 1.03-.744 1.9-2.21 2.22-3.68h8.6e-5z" fill="#f0f3f2" fill-rule="evenodd" stroke-width=".921"/><path d="m20.1 17.4-8.89 10.2c-.529.671.0303 1.96 1.24 2.89 1.21.935 2.61 1.16 3.14.488l7.79-11-3.29-2.53zm-5.74 10.5c.603.465.729 1.31.428 1.69-.301.381-1.19.444-1.79-.021-.603-.465-.7-1.29-.399-1.67.301-.381 1.16-.466 1.76 0z" fill="url(#b)" stroke="#3b3b3b" stroke-dashoffset=".7" stroke-linecap="round" stroke-linejoin="round" stroke-width=".8"/><path d="m22.7 20-2.73-1.85-.354.396 2.73 1.85z" fill="#fff" fill-opacity=".578" stroke="#3b3b3b" stroke-width="1.18"/><path d="m5.92 9 7.58-7.5v5l5 .00216v5l-5-.0022v5z" fill="#6d97c4" fill-rule="evenodd" stroke="#415a75" stroke-linejoin="round"/><rect x=".5" y="7" width="4" height="4" rx="2.5" fill="#6d97c4" stroke="#415a75" stroke-linecap="round"/><path d="m28.9 28.9-16.3-16.7" fill="#f00" fill-rule="evenodd" opacity=".8" stroke="#f00" stroke-linecap="square" stroke-width="4.47"/><path d="m28.9 28.9-16.3-16.7" fill="#f00" fill-rule="evenodd" stroke="#fff" stroke-linecap="square"/></svg>
