<?xml version="1.0" encoding="UTF-8"?>
<svg id="svg6" width="24" height="24" version="1.0" xmlns="http://www.w3.org/2000/svg" xmlns:cc="http://creativecommons.org/ns#" xmlns:dc="http://purl.org/dc/elements/1.1/" xmlns:rdf="http://www.w3.org/1999/02/22-rdf-syntax-ns#">
 <metadata id="metadata12">
  <rdf:RDF>
   <cc:Work rdf:about="">
    <dc:format>image/svg+xml</dc:format>
    <dc:type rdf:resource="http://purl.org/dc/dcmitype/StillImage"/>
    <dc:title/>
   </cc:Work>
  </rdf:RDF>
 </metadata>
 <path id="path2" d="m12.678 1.771c-0.433 0.05-0.858 0.275-1.147 0.645l-1.955 2.473 0.055-0.065c-0.29 0.307-0.467 0.734-0.467 1.182s0.18 0.876 0.467 1.18l-0.055-0.063 1.955 2.475c0.578 0.739 1.673 0.86 2.403 0.287v-2e-3c0.6-0.47 0.674-1.252 0.418-1.932l4.699-2e-3v7.067l-0.072 0.035h-1.979a0.95 0.95 0 0 0-0.95 0.949v2a0.95 0.95 0 0 0 0.95 0.951h2.2c2.056 0 3.75-1.695 3.75-3.752v-7.398a3.768 3.768 0 0 0-3.75-3.75h-4.846c0.253-0.678 0.177-1.454-0.418-1.922a1.719 1.719 0 0 0-1.258-0.358zm-0.955 3.467a0.95 0.95 0 0 0 0.918 0.713l6.558-2e-3c1.011 0 1.852 0.841 1.852 1.852v7.398a1.867 1.867 0 0 1-1.852 1.852h-1.25v-0.1h1.25a0.95 0.95 0 0 0 0.393-0.086c0.196-0.089 0.458-0.181 0.76-0.424 0.301-0.242 0.597-0.75 0.597-1.242v-7.398c0-0.929-0.821-1.75-1.75-1.75h-6.566a0.95 0.95 0 0 0-0.92 0.71l-0.598-0.755zm-6.923-1.188a3.768 3.768 0 0 0-3.75 3.75l-1e-3 7.4c0 2.056 1.695 3.75 3.752 3.75h4.845c-0.253 0.677-0.177 1.453 0.418 1.921a1.724 1.724 0 0 0 2.405-0.287l1.953-2.47-0.055 0.062c0.29-0.307 0.469-0.734 0.469-1.182a1.74 1.74 0 0 0-0.469-1.18l0.057 0.065-1.955-2.477a1.725 1.725 0 0 0-2.403-0.287v2e-3c-0.6 0.47-0.675 1.253-0.418 1.934h-4.698v-7.102h2.05a0.95 0.95 0 0 0 0.95-0.949v-2a0.95 0.95 0 0 0-0.95-0.95zm0 1.9h1.25v0.1h-1.25c-0.928 0-1.75 0.822-1.75 1.75l-1e-3 7.4c0 0.928 0.823 1.75 1.752 1.75h6.566a0.95 0.95 0 0 0 0.92-0.714l0.598 0.758-0.608 0.768a0.95 0.95 0 0 0-0.918-0.711h-6.558a1.867 1.867 0 0 1-1.852-1.852v-7.398c0-1.011 0.841-1.852 1.852-1.852z" fill="#5a8c5a"/>
 <path id="path4" d="m12.787 2.715a0.751 0.751 0 0 0-0.507 0.285l-1.957 2.477a0.765 0.765 0 0 0-0.209 0.53c0 0.206 0.08 0.389 0.21 0.526l1.956 2.479c0.26 0.333 0.74 0.385 1.069 0.125a0.762 0.762 0 0 0 0.127-1.072l-0.843-1.065h6.566c0.46 0 0.801 0.34 0.801 0.8v7.4c0 0.46-0.382 0.61-0.8 0.8h-2.2v2h2.2c1.533 0 2.8-1.266 2.8-2.8v-7.4c0-1.532-1.267-2.8-2.8-2.8h-6.56l0.835-1.058a0.758 0.758 0 0 0-0.127-1.069 0.76 0.76 0 0 0-0.56-0.158zm-7.986 2.285a2.818 2.818 0 0 0-2.801 2.8v7.4c0 1.532 1.267 2.8 2.8 2.8h6.559l-0.834 1.058a0.758 0.758 0 0 0 0.127 1.069c0.33 0.26 0.808 0.206 1.068-0.127l1.957-2.477a0.765 0.765 0 0 0 0.21-0.529 0.76 0.76 0 0 0-0.21-0.527l-1.957-2.479a0.758 0.758 0 0 0-1.068-0.125 0.762 0.762 0 0 0-0.127 1.072l0.842 1.065h-6.567c-0.46 0-0.8-0.34-0.8-0.8v-7.4c0-0.46 0.34-0.8 0.8-0.8h2.2v-2z" fill="#8cbe8c"/>
</svg>
