<svg enable-background="new 21 24 22 16" height="16" viewBox="21 24 22 16" width="22" xmlns="http://www.w3.org/2000/svg" xmlns:xlink="http://www.w3.org/1999/xlink">
<linearGradient id="a" gradientTransform="matrix(1.3333 0 0 -1.3333 90.9203 197.4109)" gradientUnits="userSpaceOnUse" x1="-40.9458" x2="-43.7345" y1="120.1816" y2="124.3646">
<stop offset="0" stop-color="#dbdbdb"/>
<stop offset=".6087" stop-color="#f4f4f4"/>
<stop offset="1" stop-color="#fff"/>
</linearGradient>
<circle cx="32.298" cy="32" r="6.956" stroke="#000" stroke-miterlimit="10" stroke-width="2"/>
<g enable-background="new">
<path d="m22.116 32.102l3.708-4.659h14.843v9.316h-14.843z" fill="url(#a)" stroke="#808080" stroke-linecap="round" stroke-linejoin="round"/>
<path d="m29.856 34.662v.142h-1.27c-.088-.134-.134-.286-.134-.455-.413.431-.868.646-1.371.646-.434 0-.789-.142-1.061-.425-.213-.229-.317-.539-.317-.935 0-.806.442-1.28 1.336-1.435l.47-.084c.377-.06.608-.11.691-.15.006-.005.02-.013.042-.024.133-.073.2-.191.2-.352 0-.304-.227-.454-.677-.454-.378 0-.62.089-.73.269l-.075.202-.024.151h-1.136c.073-1.046.719-1.571 1.938-1.571 1.232 0 1.848.464 1.848 1.394v2.527c0 .189.072.357.218.504.021.017.038.034.052.05zm-1.41-1.683v-.321c-.108.05-.272.102-.494.145l-.402.076c-.369.076-.585.219-.646.422l-.024.202c0 .273.138.447.413.52.067.021.143.024.227.024.484 0 .777-.23.883-.696.028-.114.043-.235.043-.372z" fill="#2e3436"/>
<path d="m30.469 28.675h1.169v2.176c.278-.442.694-.664 1.242-.664.471 0 .879.167 1.218.504.074.073.14.149.194.227.322.471.486 1.028.486 1.673 0 .771-.222 1.391-.66 1.861-.352.363-.764.547-1.238.547-.547 0-.962-.22-1.242-.655v.461h-1.169zm2.151 2.494c-.363 0-.64.199-.824.597l-.1.295c-.04.162-.059.334-.059.514 0 .615.167 1.041.503 1.279.139.11.298.16.48.16.357 0 .633-.19.819-.578.111-.242.167-.521.167-.835 0-.575-.157-.988-.47-1.247-.155-.124-.327-.185-.516-.185z" fill="#2e3436"/>
<path d="m39.435 31.96h-1.119c-.093-.432-.265-.69-.51-.773l-.231-.051c-.027 0-.057 0-.093 0-.343 0-.584.128-.726.386-.148.285-.225.652-.225 1.104 0 .687.185 1.127.553 1.322.124.065.254.101.399.101.334 0 .571-.152.714-.464.048-.099.084-.219.118-.352h1.119c-.073.694-.374 1.196-.91 1.506-.307.174-.656.259-1.049.259-.879 0-1.494-.346-1.838-1.043-.186-.37-.277-.811-.277-1.333 0-1.046.333-1.766.995-2.159.319-.184.696-.278 1.135-.278.768 0 1.322.274 1.661.825.107.185.185.389.234.612.024.108.04.219.05.338z" fill="#2e3436"/>
</g>
</svg>
