<svg width="32" height="32" xmlns="http://www.w3.org/2000/svg"><path d="m5.92 9 7.58-7.5v5l5 .00216v5l-5-.0022v5z" fill="#6d97c4" fill-rule="evenodd" stroke="#415a75" stroke-linejoin="round"/><rect x=".5" y="7" width="4" height="4" rx="2.5" fill="#6d97c4" stroke="#415a75" stroke-linecap="round"/><g transform="matrix(.938 .567 -.542 .981 17.1 .661)" enable-background="new" stroke-dashoffset=".5" stroke-linejoin="round"><path d="m8.1 18h6l-3.12 6.99z" fill="#505050" overflow="visible" stroke="#505050" stroke-linecap="round" stroke-width=".75"/><path d="m8.1 1.03 6-1e-6 1e-6 17h-6l-1.9e-6-17" fill="#fce94f" overflow="visible" stroke="#8b7617" stroke-linecap="round" stroke-width=".75"/><path d="m10.6 2.03 1e-6 15" fill="none" opacity=".5" overflow="visible" stroke="#fcffff" stroke-width="2"/><path d="m12.6 2.03 2e-6 15" fill-opacity=".588" opacity=".25" overflow="visible" stroke="#000" stroke-width="2"/><path d="m12.1 2.03 1e-6 16" fill="#fce94f" opacity=".5" stroke="#8b7617" stroke-linecap="round" stroke-width=".75"/><path d="m11.5 23.2 2-4.94-2-1e-6z" fill="#969696" overflow="visible" stroke="#969696" stroke-linecap="square" stroke-width=".5"/><path d="m9.6 2.03 1.5e-6 16" fill="#fce94f" opacity=".5" stroke="#8b7617" stroke-linecap="round" stroke-width=".75"/><path d="m7.87-.0873h6.46v2.18h-6.46z" fill="#e6e6e6" overflow="visible" stroke="#969696" stroke-linecap="round" stroke-width=".5"/><path d="m10.7 23.4-2-5.1h2z" fill="#e6e6e6" overflow="visible" stroke="#e6e6e6" stroke-linecap="square" stroke-width=".5"/></g><path d="m28.9 28.9-16.3-16.7" fill="#f00" fill-rule="evenodd" opacity=".8" stroke="#f00" stroke-linecap="square" stroke-width="4.47"/><path d="m28.9 28.9-16.3-16.7" fill="#f00" fill-rule="evenodd" stroke="#fff" stroke-linecap="square"/></svg>
