<svg xmlns="http://www.w3.org/2000/svg" height="24" width="24"><linearGradient id="a"><stop offset="0" stop-color="#b2d234"/><stop offset=".961" stop-color="#009e46"/><stop offset="1" stop-color="#009e46"/></linearGradient><path transform="matrix(.94219 0 0 .81552 16.85 .738)" d="M6.966 13.81A12.112 12.157 0 0 1-5.147 25.965a12.112 12.157 0 0 1-12.112-12.157A12.112 12.157 0 0 1-5.147 1.653 12.112 12.157 0 0 1 6.966 13.809z" fill="#aec7e2" stroke="#2e4e72" stroke-width="1.341"/><g fill="#2e4e72" stroke="#fff" stroke-width="2.295"><path d="M346.725 131.376l-3.377 4.501-2.25 2.251-4.501 2.475-.676 2.026s-1.801 1.801-1.575 2.927c.226 1.126.226 3.151.226 3.151s-3.151 2.926-4.502 3.826c-1.351.9-3.152 2.926-3.152 2.926s-1.125 1.351-1.8 1.801c-.675.449-1.8 1.8-2.701 3.151-.901 1.351-1.801 2.25-2.251 2.925-.45.675-1.801 2.251-2.476 4.727-.675 2.477-2.476 5.402-2.476 5.402l-.451 1.125c.226 3.827.225 4.502.676 5.853.45 1.35.901.899.45 3.826-.45 2.925-.45 4.051-.9 5.402-.45 1.349-1.801 3.825-2.25 4.952-.451 1.125.9 3.15.9 3.15s.676 2.927.225 3.602c-.45.676.225 2.026.225 2.026s2.701 1.575 3.602 2.476c.9.9 2.476 2.251 2.701 2.926.226.676 2.026 3.827 2.251 4.502.225.675 2.026 3.15 2.476 3.826.45.676 2.701 3.152 2.701 3.152s2.926 2.249 3.602 3.15c.675.9 2.701 1.35 3.375 2.025.676.675 2.251.449 3.151 1.126.901.675 2.701-.451 3.602 0 .9.45 3.377-.45 4.052-.9.675-.45 2.25-2.025 3.376-1.351 1.125.674 1.8 0 2.701.225.899.225 2.25-.899 3.15-.899.901 0 3.151-.901 3.826-.901.676 0 2.927-1.352 3.828-1.352.899 0 2.025-.898 3.15-.449s.675-.899 2.701-.225 2.701 0 3.376.674c.676.676 1.577.002 2.252.902.675.899 1.8 1.574 2.025 2.475.224.901 1.575 1.802 1.575 1.802l1.351.224s1.802-1.35 2.251-.449c.45.9 2.476.676 2.476.676l2.025 2.25.676.9s1.351 3.602 1.125 4.952c-.225 1.35-.225 4.276-.9 4.951-.675.676-1.125 3.602-1.125 3.602s-.901.9 1.125 2.701c2.026 1.802 3.377 3.376 4.052 4.275.676.901 2.477 3.378 2.7 4.953.226 1.575.676 2.475 1.577 4.501.9 2.026 2.025 2.251 2.25 4.503.226 2.25.675 2.251.45 3.825-.225 1.576-.9 1.801-.225 2.926.675 1.126 1.574 3.152 1.351 3.827-.225.675-.676 3.601-.676 3.601l-.45 1.351-2.025 3.828-1.351 2.024c-.45 1.575-1.35 3.151-1.125 5.402.224 2.251-1.125 2.25.675 4.5 1.801 2.252 2.7 4.728 3.826 6.754 1.126 2.025 1.801 4.051 2.025 5.401.226 1.351 1.126 1.802 1.576 3.602.449 1.801.675 2.7.675 3.826 0 1.125-.226 4.052.226 4.727.449.675.675 2.702.9 3.602.225.901-.676 1.126.675 2.702 1.351 1.575 2.251 2.475 3.151 3.601.9 1.126.675.675 1.351 2.251.675 1.575 1.575 2.477 1.801 3.826.225 1.35.449 4.726 1.125 6.302a35.696 35.696 0 0 0 1.575 3.152s2.477 1.575 3.377 1.35c.899-.225 2.701-2.249 4.052-1.575 1.351.675 2.476 0 3.601 0s2.251-1.351 3.377-1.351c1.125 0 2.7-1.801 3.602-1.35.9.449 2.024-.452 3.15-1.577 1.126-1.124 1.801-2.024 3.826-3.825 2.026-1.801 1.801-1.802 3.151-2.927 1.351-1.126 2.702-3.602 4.277-4.052 1.575-.45 2.025-2.024 2.475-3.15.451-1.126.675-1.801 1.351-2.702.676-.899.225.228 1.351-2.7 1.126-2.927 2.478-4.051 3.603-4.727 1.125-.675 1.8-2.025 2.475-2.251.675-.226 1.801.675 1.351-1.351-.449-2.025 0-4.951-.449-5.626-.451-.677-1.127 1.574-.901-1.803.227-3.375 2.701-6.752 2.701-6.752s3.376-4.276 4.502-4.951c1.126-.675 1.35-1.35 2.927-2.251 1.574-.899 4.951-3.15 4.951-4.276s1.351-4.052 1.351-4.728c0-.675 0-1.35-.449-5.177-.451-3.825.449-2.926-.901-6.527s-1.577-8.103-2.476-9.228c-.901-1.126-.451-4.053-.451-4.952 0-.9 1.577-3.151 2.252-4.051.675-.901 3.601-4.503 3.601-4.503s4.501-5.176 6.077-7.651c1.576-2.477 3.151-4.727 4.276-5.627 1.126-.9 3.827-2.928 5.402-5.178 1.576-2.25 4.727-6.526 4.953-7.203.224-.674 2.024-2.925 2.024-2.925s2.476-2.927 2.927-4.502c.449-1.576 2.699-10.354 2.249-9.904-.448.451-3.15.9-4.051 1.125-.899.226 1.352 1.125-5.177.676-6.526-.451-9.902.675-9.902.675-2.027-.451-3.602 1.8-4.278-1.351-.675-3.15-1.126-4.951-2.475-7.202-1.351-2.251-2.252-3.151-4.276-6.078-2.025-2.925-1.802-1.576-3.603-3.825-1.8-2.251-2.251-1.577-3.376-4.502-1.125-2.926-2.025-1.8-3.376-5.852-1.351-4.053-2.251-4.503-2.926-6.753-.676-2.25-1.575-2.927-2.026-4.952-.45-2.026-5.626-12.379-6.302-13.055-.676-.674-1.801-4.277-1.576-3.601.226.675 3.377 2.926 3.377 2.926s1.8-.676 2.476-.676c.675 0 3.376 2.477 3.376 3.376 0 .901 4.729 5.178 5.853 8.329 1.125 3.151 2.478 5.402 2.701 6.302.223.9 2.476 4.502 3.377 5.853.899 1.351 3.825 4.051 4.275 5.402.45 1.351 4.728 5.852 4.728 8.778s2.024 6.752 2.25 7.652c.226.9 4.276 2.027 4.276 2.027l5.403-1.351s8.102-5.178 9.003-5.178c.899 0 8.104-3.376 8.104-3.376s2.925-2.7 4.95-4.275c2.026-1.576 4.277-4.501 4.728-5.853.449-1.351 1.35-1.575 3.15-3.602 1.801-2.026 4.277-4.051 2.702-5.402-1.576-1.35-2.477-.9-4.727-3.151-2.251-2.25-2.026-1.8-3.602-4.727-1.576-2.925.225-6.302-3.152-2.925-3.375 3.376-2.025 4.276-5.402 4.953-3.375.674-4.727 2.925-6.302.674-1.575-2.251-3.15-.9-4.052-4.277-.9-3.376-1.576-3.602-1.8-4.951-.224-1.351 0-1.351-1.801-4.728-1.8-3.376-.45-8.553.675-5.627 1.126 2.926 2.926 3.376 5.853 5.402 2.925 2.025 4.277 3.602 6.977 3.827 2.701.224 4.952 0 5.402.449.45.451.9-.224 2.026.225 1.126.451 1.574-.674 2.025 1.125.45 1.801 2.926 2.026 4.051 3.151 1.126 1.125 1.126.676 4.053 1.125 2.927.451 6.979.451 6.979.451l4.275-.226 4.952.449s3.603 2.026 4.502 2.026c.9 0 1.125 2.477 3.376 3.827 2.251 1.351 2.701 1.575 4.051 3.151 1.353 1.576 1.126 2.251 2.926 3.826 1.802 1.577 4.729-.224 5.179-.898.448-.676 2.699-1.801 2.251 0-.451 1.8 2.249 1.124 1.574 5.402-.675 4.275-1.126 3.15 0 6.077 1.125 2.926 6.077 11.929 6.303 14.63.226 2.701 1.575 1.801 1.8 4.278.226 2.475 1.575 3.375 1.575 5.176 0 1.801 1.577 2.25 1.801 3.602.227 1.351 2.702.224 3.377 0 .676-.226 3.826-3.152 3.826-3.152s1.353-.449 1.126-2.701c-.226-2.249 0-1.8 0-5.176 0-3.376-1.35-3.376-.675-6.751.675-3.376 2.475-5.403 2.926-6.978.45-1.575 2.251-4.276 3.15-4.502.9-.225 5.853-2.7 6.979-4.277 1.125-1.575 2.926-3.376 4.727-5.176 1.8-1.8 4.951-4.051 5.627-3.376.675.675.45.45 1.576.45 1.125 0 3.151.901 4.726 1.126 1.576.225 4.728 4.051 5.403 6.077.675 2.026.225 1.575 2.701 4.502 2.476 2.925 4.727 1.124 4.727 4.726s0 3.376 1.126 4.727c1.125 1.351 2.475-2.476 3.825-2.025 1.35.451 1.575-.45 2.7 3.151 1.125 3.602 1.8 3.602 2.027 7.203.224 3.601-.226.225-.226 3.15 0 2.927-.226 3.152.226 5.852.449 2.703 2.023 3.603 1.8 4.053 0 0 1.35-3.826.899-6.528-.448-2.7 0-6.526 1.126-7.651 1.125-1.127 2.252-2.251 3.151.675.901 2.925 1.351.675 3.376 4.051 2.027 3.377 3.827 2.7 4.052 4.276.225 1.576 1.353 1.802 2.926 3.151 1.576 1.351 2.926-.224 4.727-1.575 1.802-1.351 6.752-6.303 6.979-8.329.224-2.025 2.25-1.576-1.352-6.751-3.602-5.177-3.602-6.978-7.428-10.129-3.824-3.151-6.076-3.376-3.149-7.428 2.926-4.052 4.277-6.752 6.077-5.626 1.801 1.125 4.95.899 4.95 5.402 0 4.501-.9 9.453 2.251 4.051 3.151-5.402 4.728-8.553 3.826-7.651-.899.9 2.026-1.801 2.026-1.801s.226-2.026 4.053-2.926c3.825-.902 4.95-1.351 6.302-2.026 1.35-.676 5.177-5.178 5.852-7.203.675-2.026 2.476-5.627 2.026-7.202-.45-1.577-2.702-9.228-3.152-9.004-.449.226-.224.226-3.149-2.925-2.928-3.151-4.953-5.402-5.403-6.753-.45-1.351-1.576-1.576-.226-3.376 1.352-1.8 2.027-1.575 2.252-3.151.224-1.575 2.024-2.926-1.352-1.8-3.375 1.125-.9.451-3.826.226-2.926-.226-10.578 1.575-6.751-3.151 3.825-4.727 4.949-7.652 5.625-7.652.677 0 4.053-3.827 4.277-.226.226 3.601 1.575 2.7 1.801 4.951.226 2.251 4.727-2.475 4.727-2.475s1.575.45 2.7 1.575c1.126 1.125 1.126 4.727 1.126 4.727s-.9-1.126 1.576.675c2.477 1.802 5.176.9 5.176 4.727 0 3.826 0 4.052 1.576 4.952 1.577.9 3.15.451 4.503-.675 1.35-1.125 3.6-5.177 3.6-5.177s.225-1.576-3.376-3.827c-3.601-2.25-5.852-3.825-7.201-4.951-1.352-1.125-.901-4.501.448-5.853 1.353-1.351 2.026-2.026 1.576-3.826-.451-1.802.676-3.152 4.052-2.927 3.376.226 4.051-.224 4.051-.224s.677.449.677-.901 4.275-7.653 3.149-7.653c-1.125 0 .228-1.575-.45-4.051-.675-2.477 2.251-6.302-.224-8.103-2.476-1.801-3.152-2.702-4.727-5.402-1.575-2.702-1.352-3.151-7.203-3.827-5.852-.675-8.553 1.351-9.904-.449-1.351-1.801-2.025 2.7-2.925-2.702-.9-5.402 1.351-9.004 1.351-9.004s3.601-2.25 4.5-3.826c.9-1.576 4.501-2.251 7.43-1.125 2.926 1.125 7.201.9 10.804 1.577 3.601.674 3.376 2.925 5.177 0 1.8-2.928 0-4.277 1.35-5.853 1.352-1.576 2.926-4.052 4.051-2.477 1.125 1.577 3.379 3.151 5.18 1.125 1.8-2.025 2.475-2.25 2.475-2.25l.898.901s2.026-1.127 2.026.898c0 2.027 2.027 4.278.901 5.853-1.127 1.577-2.7 1.351-2.7 5.177 0 3.828 0 3.152 2.474 6.304 2.477 3.15 4.052.449 4.502 3.826.451 3.376.899 2.702 3.377 4.952 2.476 2.25 2.024 2.25 3.826 3.601 1.801 1.351 2.702 2.702 2.702.451s.225-3.376 0-5.402c-.227-2.025 1.801-3.602.448-6.978-1.35-3.376-.224-3.151-2.925-5.627-2.702-2.475-4.503.451-5.401-3.151-.901-3.601 4.275-5.177 5.627-5.627 1.35-.449 3.374-3.151 3.824-1.35.451 1.8-3.375 8.328 3.153 1.35 6.526-6.977 3.601-4.051 3.601-4.051s3.376-.45 4.051 0c.674.451 2.478-2.026 1.8-1.8-.675.226-7.2-3.602-7.2-3.602l-4.729-2.7s1.577-1.126 2.702-.9c1.126.225 1.352-2.251 2.478-2.477 1.125-.225 8.777 1.577 10.354 2.477 1.575.9 7.201 1.125 6.525.675-.675-.451-4.275-3.151-4.501-4.052-.224-.9-8.103-2.701-10.578-2.476-2.477.224-4.726.899-6.752.224-2.027-.675-4.952-2.476-6.528-2.476-1.575 0-21.382-3.826-22.282-3.601-.9.225-2.252 4.501-2.927 3.826-.675-.675-1.8-.676-4.953-1.576-3.149-.9-7.427-1.576-13.055-2.025-5.626-.45-9.451.45-11.027-1.351-1.576-1.8-4.951-1.125-8.778-1.351-3.826-.224-8.328 0-10.354 0s-6.751-.224-7.877-.45c-1.126-.226-2.476-1.801-3.826-2.025-1.352-.226-1.127-.675-3.827-1.125-2.701-.451-2.476-3.376-3.376-.901-.9 2.477-.451 1.801-1.801 2.701-1.351.901-2.701 2.701-3.602 2.701-.899 0-4.5.225-5.177-.225-.676-.45-1.801-.9-4.052-.9-2.25 0-2.251.224-5.177-.226-2.926-.45-5.177-.226-7.878-1.575-2.701-1.351-2.701-2.251-4.952-2.026-2.249.226-2.249-.45-5.402-.45-3.15 0-6.976 1.801-9.003 2.026-2.024.225-6.526-.226-8.102-.901-1.577-.675-2.026-2.25-7.879-1.576-5.852.676-9.228.676-8.103-1.125 1.126-1.8 2.476-3.601 3.151-3.826.676-.225 2.25-1.35 1.124-1.8-1.124-.451-2.25-1.125-4.95-1.351-2.702-.225-2.478.9-6.528.45-4.051-.45 2.251-1.575-6.076-1.35-8.328.226-10.354.9-11.254.9-.901 0-2.027-1.8-4.277.9-2.251 2.701-5.404 4.276-9.904 4.501-4.501.226-4.727-.45-9.002 1.125-4.277 1.575-6.979-.45-6.078 3.151.899 3.601 2.026 4.952 2.026 5.627 0 .675-2.026 5.177-4.501 2.476-2.478-2.701-6.979-13.28-4.953-6.077 2.025 7.202 6.526 9.679 2.251 10.804-4.276 1.125-3.828-.45-4.503-.901-.674-.45 0-3.601-.225-5.402-.226-1.8-.675-2.926-1.575-3.826-.899-.901-.676-2.251-2.476-2.701-1.801-.45-.225-1.351-3.151-1.351-2.926 0-5.401-1.801-4.726 2.251.674 4.051 1.349 1.351 3.149 5.177 1.8 3.826 5.177 1.125 2.702 3.826-2.476 2.701-9.003 1.801-10.579.676-1.576-1.126-1.125.45-4.053-1.576-2.926-2.026-2.024-3.602-5.4-2.026-3.376 1.576-4.502 4.502-5.853 3.376-1.35-1.126-4.501 1.575-5.627.226-1.126-1.351-5.628-1.351-6.527 0-.901 1.35-3.602 1.125-7.428 2.926-3.826 1.8-2.702.224-7.428 4.051-4.728 3.826-7.429 6.977-9.003 4.501-1.576-2.475-10.13-6.752-6.753-7.428 3.377-.675 4.952-2.025 6.753-.45 1.801 1.575 4.728 1.126 5.176 0 .45-1.126 2.477-2.251-.225-3.601-2.701-1.351-2.926-.451-7.202-2.026-4.277-1.576 0-1.125-5.853-2.026-5.852-.9-8.329-1.35-9.904-1.8-1.574-.45-3.826 0-6.076-.225-2.252-.225-3.826-.675-5.853-.45-2.025.225-3.15-.225-5.852 1.801-2.702 2.026-4.728 2.926-6.528 4.501-1.8 1.575-6.526 4.727-7.877 5.853-1.351 1.125-6.078 4.726-6.528 6.077-.45 1.351.45 2.476-1.351 3.376-1.801.9-3.601.9-4.952 1.125-1.351.225 0-2.026-1.351.225-1.35 2.251-.9 10.354.225 9.228 1.125-1.126.45-4.726 5.402-1.349 4.952 3.375 8.104 2.925 7.878 6.076-.225 3.151 3.376 2.926 3.826 3.602.45.674 2.701-.901 2.701-.901s4.952-3.151 4.952-4.726c0-1.576 3.151-5.177 3.151-5.177s-2.252-1.125-2.252-3.376c0-2.25.677-2.927 1.126-5.178.45-2.25-2.476.001 4.277-4.277 6.751-4.276 7.202-1.349 7.202-1.349s.899.9-.226 2.25c-1.125 1.351-3.151 4.953-3.601 5.402-.451.451 2.026 4.052 3.15 4.052 1.126 0 3.377-.901 4.728-.676 1.351.226 3.601-.674 4.276-.224.676.45 2.251 1.8 1.125 2.926-1.125 1.125-3.602 2.475-5.401 2.026-1.802-.449-4.503-3.602-2.927.9s-.225 5.627-1.576 5.402c-1.349-.225-4.276-2.475-3.826.901.451 3.375-2.925 5.626-3.601 5.626-.676 0-2.025-.225-2.025-.225s-2.027-.226-3.151-.226c-1.126 0-3.377 1.125-4.052 2.026-.676.9-1.576.226-2.701.226s0-1.351-2.251-1.801c-2.25-.45-3.601-.9-4.951 0-1.351.9-3.376 1.35-4.277.675-.9-.675.451-2.252-1.351-1.35-1.8.9-3.151 3.376-3.826 3.602-.675.224 2.026 0-.675.224-2.701.226-3.826.902-5.177 1.351-1.351.451.45 3.151-2.026 4.051-2.476.9-.674-1.125-3.151.9-2.476 2.027-2.927 3.827-3.826 4.052-.901.226-.675.675-2.701.9-2.026.225-1.8.45-2.927.675-1.125.225.226.676-2.25.225-2.477-.45-4.277.451-3.827 1.351.45.9 8.778 3.376 2.476 3.151-6.302-.225-4.276.9-2.926 1.8 1.351.9 2.025 1.8 2.701 2.026.676.225 1.8 2.927 1.8 2.927s1.801-.226.676 1.35.45 2.026-.676 4.052c-1.125 2.026-1.125.675-2.025 1.125-.9.449-2.251 2.026-4.728.675-2.476-1.351-4.275-2.026-7.202-2.25-2.926-.226-.901-.675-2.926.899-2.026 1.577-2.476 3.377-2.25 5.402.225 2.025.45 4.727-.226 6.078-.675 1.35-.675 2.701-.226 4.727.451 2.025 1.802 2.927 1.802 2.927s3.151.449 3.826.675c.675.225 2.026-.45 3.826.674 1.801 1.126 3.602 1.577 4.727.226 1.125-1.35 5.627-2.926 6.979-4.276 1.35-1.351 2.25-1.8 1.575-3.151-.675-1.351 1.351-4.727 2.476-5.402 1.125-.675 3.601-1.351 3.601-1.351l2.701-4.051s2.251-2.477 3.376-2.251c1.125.225 7.427 2.477 6.978-.449-.45-2.927.45-3.827 1.125-2.702s2.476.675 2.476.675.9-.449 1.575.226c.675.674 1.575 3.602 2.926 4.276 1.351.676 2.476 1.351 3.377 1.8.9.451 1.801 0 3.602 1.576 1.8 1.576 3.601 2.477 3.825 3.151.227.675 1.802 2.251 1.802 2.251s1.575.45 1.125 1.351c-.45.9-2.7 3.602-3.826 4.051-1.126.45-4.051-.451-2.926.45 1.124.9 2.701 2.026 3.376 1.35.676-.675 4.951-5.177 4.951-5.177s-.225.225 0-1.126c.226-1.349 0-2.925 1.126-2.25 1.125.676 1.801 1.576 2.251.676.45-.901.9-.45-.226-1.125-1.126-.676-3.826-4.502-5.177-4.727-1.351-.226-4.728-2.477-4.728-2.477s-.674-.675-2.25-2.475c-1.576-1.801-2.025-1.351-2.477-2.927-.449-1.575-1.801-3.601.676-3.151 2.477.45 4.051 2.025 6.302 3.376 2.251 1.351 1.802 1.8 3.827 3.151 2.025 1.351 2.252 2.702 3.826 2.477 1.575-.225 3.377.9 3.377 2.926 0 2.026.449 4.276.899 4.727.451.451 1.8 1.351 2.251 2.251.45.9 1.351 3.151 2.025 4.051.676.9 1.351 1.576 2.026 2.702.675 1.125.9-.226 1.575.225.676.45 1.576.224 1.576-.676s.224-2.476.224-2.476 3.153-.9 2.253-1.351c-.901-.45-3.603-3.151-3.377-4.051.225-.9 0-2.7 1.124-2.475 1.126.224 2.252 2.25 4.728.449s5.402-2.701 4.501 0c-.899 2.701.227 3.15 0 6.077-.224 2.927.902 2.026 2.478 3.602 1.575 1.576 2.7 1.802 3.825 2.251 1.126.451 2.926.226 4.728.451 1.801.225 2.926-.676 4.502-.225 1.574.45 5.176-.226 5.852.225.676.45 3.377-.9 3.601.675.225 1.576 1.126-.225.451 3.376-.675 3.601-1.576 6.077-1.576 6.077-2.476 4.727-3.376 5.853-4.502 6.078-1.124.225-1.8.9-3.825.675-2.026-.226-4.502 0-7.428-.675-2.926-.676-8.329.675-10.579-.676-2.251-1.35-5.402-.225-6.754-1.8-1.35-1.576-3.6-1.351-4.501-2.251-.9-.9-1.35-3.375-1.35.226 0 3.602-2.026 3.826-2.476 5.627-.451 1.8.674.9-1.802.675-2.476-.226-3.151 1.125-6.752-1.575-3.602-2.701-5.402-2.701-7.202-3.827-1.802-1.126-3.602 2.025-5.402-1.575-1.801-3.602-4.277-.676-4.502-3.602-.225-2.927 0-2.7.225-4.501.227-1.801 2.701-3.376 1.576-4.051-1.126-.675-.226-1.801-1.801-1.125-1.576.675-3.826.9-5.627 1.575-1.801.676 4.051 0-4.727.676-8.778.675-11.255 1.575-11.255 1.575s-.675-.45-1.801.45c-1.125.9-2.701 2.251-4.276 1.576-1.575-.676-2.476-.451-3.826-.225-1.351.225-2.25-1.125-3.826 0-1.576 1.124-3.376 1.575-4.052 1.124-.677-.456-1.803-2.256-1.803-2.256z" transform="matrix(.026 0 0 .0411 1.763 4.152)"/><path d="M497.305 279.479c-.675 2.477-3.151 6.077-3.151 6.077l-4.503 2.251s-1.573 1.351-2.475 1.576c-.9.224-3.151 1.351-3.151 1.351s-2.025-.451-1.351 1.574c.675 2.026.901 4.503.675 5.177-.224.676-.224 2.027-.224 3.828 0 1.8-.675 4.05-1.801 4.5-1.125.451-2.251.901-2.026 2.477.226 1.576.226 6.302.226 6.302l2.927 4.502s.9-.675 2.701-.675c1.799 0 3.601-1.574 3.601-1.574s2.027.448 1.8-2.026c-.225-2.477.902-5.402.675-6.078-.224-.675 2.027-3.602 2.027-4.276 0-.676 2.251-3.825 2.251-4.952 0-1.125 1.575-2.926 1.8-4.275.225-1.352.45-4.502.9-5.402.451-.9.676-1.801.676-2.701v-2.701zM673.544 309.866c-.675.899-1.125 10.579-1.575 11.704-.45 1.125-1.351 6.978-.899 8.327.449 1.352 1.124 6.303.675 7.879-.451 1.575.225 6.527-.902 6.302-1.124-.226-1.573.226-1.573.9 0 .676 1.573 2.025 1.573 2.025s2.703.001 3.828-.225c1.125-.225 3.376-1.351 5.177-1.351 1.801 0 2.927-1.351 4.501-1.351 1.576 0 4.953-1.124 5.853-.675.9.449 2.25-2.701 3.826-2.025 1.576.675 4.953-1.576 6.528-1.576 1.574 0 2.251-2.477 4.052-2.025 1.8.45 5.177-.9 6.753-.227 1.573.677 4.051-2.25 5.176 0 1.126 2.252 4.503 3.152 4.503 4.277s-.228 3.602-.228 3.602l2.702-.226s4.275-2.701 4.952-2.701c.675 0 2.251-2.25 2.251-1.124 0 1.124-1.352 3.602-1.801 4.726-.45 1.126.449 2.477.449 2.477s2.253 1.125 1.352 3.15c-.901 2.026.224 1.577 0 3.151-.226 1.576 0 .9.898 1.8.902.901 2.479 2.479 3.828 2.252 1.352-.226 1.8-1.575 2.926-.9 1.125.675 3.375.225 4.05 1.126.678.899-4.275 3.15 4.278-.675 8.553-3.828 9.451-4.728 10.577-6.079 1.129-1.35 2.479-2.7 3.377-3.601.901-.9.227-.675 2.926-2.701 2.701-2.025 2.701-1.125 5.179-4.952 2.476-3.825 4.275-5.176 4.727-5.852.45-.676 1.35-.9 1.575-3.603.225-2.7 2.025-5.176 2.025-6.076 0-.899.675-2.249.45-3.826-.225-1.576.901-3.825-.45-6.076-1.351-2.252.675-3.15-1.351-4.053-2.026-.9-3.376-.449-3.826-2.025-.451-1.576-2.252-1.351-2.927-5.627-.675-4.276-3.376-4.728-3.376-4.728s-2.701-1.125-2.026-1.574c.677-.451.901-3.603.677-4.503-.226-.9-.226-2.926-.9-4.275-.675-1.352-1.126-3.151-1.801-4.728-.675-1.575-1.8-2.026-2.251-3.826-.451-1.8-1.126-2.477-1.35-2.926-.227-.45-.678-2.7-1.126-.226-.45 2.476-1.352 7.202-1.352 7.202s-1.801 3.828-2.476 4.953c-.675 1.124-1.35 4.051-2.475 3.825-1.126-.225-1.803 1.127-2.701.9-.901-.226-2.251.226-2.926-.449-.675-.676-2.476-2.476-3.377-2.702-.9-.224-1.575-2.024-2.251-2.024-.677 0-1.801-1.577-1.575-2.477.224-.9.449-2.925.675-3.826.224-.9 1.576-2.927 1.576-2.927s0-1.35-1.126-1.35c-1.125 0-1.351 0-3.827-.226-2.475-.226-3.149-.45-4.052-.45-.898 0 .902-.45-1.575.225-2.475.677-3.601 2.477-5.177 4.053-1.573 1.575-.224 1.124-1.573 1.575-1.353.451-1.126-1.126-2.027 1.351-.901 2.476.451 3.15-.227 3.601-.675.451-5.4-1.575-5.4-1.575s1.125-.226.224-1.351c-.899-1.126-1.8-2.7-3.149-2.025-1.353.675-2.479 1.126-3.377 2.251-.901 1.125-.901 2.025-1.576 2.925-.675.9-2.475.9-2.701 1.801-.225.901-.225 3.151-.899 3.376-.675.226-.9-.898-1.575-1.124-.675-.225-.451-2.026-.9-.9-.45 1.125-.9.899-1.575 2.7-.677 1.801-.901 3.377-1.576 3.602-.675.226 0 .45-2.027 1.576-2.024 1.125-2.475 1.125-5.4 2.476-2.925 1.351-2.25 1.351-4.276 1.575-2.025.226-2.477.901-3.827 1.126-1.352.225-2.25.449-3.602 1.8-1.35 1.351-2.475 1.8-3.375 2.026-.9.226-1.805 1.127-1.805 1.127zM686.823 220.958c-.899 1.352-3.825 5.402-4.95 5.628-1.126.224-2.252 1.351-3.152 1.125-.9-.226-2.926 0-3.601 2.926-.675 2.926-1.801 4.502-2.478 4.276-.675-.225 1.125 4.276-2.7 2.477-3.825-1.801-2.475 1.576-2.926 2.477-.45.899.675 3.376.9 4.276.227.9.9 2.476 1.801 3.825.9 1.351 1.575 2.926 3.151 2.478 1.576-.452 6.526 0 6.526 0s1.803.675 2.927.675c1.125 0 1.351-.45 2.025-.45.674 0 2.025-2.252 1.801-2.476-.225-.227-.899-.901.45-2.252 1.351-1.351 2.926-1.8 3.152-3.376.225-1.575-.45-1.575.225-2.477.675-.9 2.25-.673 1.801-1.575-.451-.9.449-.675-.451-2.477-.899-1.8-2.026-2.476-1.126-4.727.901-2.25 1.803-2.701 1.577-4.051-.226-1.352 1.125-1.801-.451-3.377-1.574-1.574-2.25-2.025-3.376-2.477l-1.125-.448zM730.939 243.467c.902-.225 4.052-2.476 4.278 1.576.225 4.051.448 2.925 1.801 5.176 1.35 2.251 2.248 2.928 3.824 1.802 1.575-1.127 3.376-1.127 3.826-3.151.451-2.026.451-2.026 1.801-2.026 1.353 0 1.801-.225 2.48.677.673.898 1.121-.002 4.05 1.574 2.925 1.576 5.4 1.124 7.203 2.701 1.801 1.575 2.701 1.352 5.176 2.251 2.476.9 1.35-.45 3.601 2.026 2.252 2.475 1.353 3.15 2.476 4.276 1.125 1.125 2.027-.901 1.576 1.8-.451 2.701-3.6 0 1.126 3.825 4.726 3.828 5.402 4.504 6.976 5.628 1.577 1.126 2.702 2.477 1.353 2.477-1.353 0-5.628 0-6.077-.676-.451-.675-2.476-1.126-3.828-2.701-1.349-1.574-4.275-2.701-4.949-4.051-.677-1.352-1.577-1.801-2.702-1.801s-2.25 1.35-3.827 2.926c-1.576 1.575-.898-.899-2.926-.225-2.027.676-4.275-.226-5.402-1.126-1.126-.9-.899-2.25-2.699-1.575-1.803.675-2.926.225-2.251-1.125.675-1.352.224-3.152.224-3.152s.677-2.251-.898-2.7c-1.576-.449-1.576-2.025-3.152-2.477-1.577-.449-4.05-1.575-4.05-1.575s-.226 0-.902-.225c-.675-.226-.675-.226-2.476-.675-1.8-.451-3.152-.002-4.051-1.126-.902-1.125-.451-2.701-.451-2.701s3.601.45 0-2.251l-3.601-2.7s.448-.226.224-.676c-.227-.452 2.247 0 2.247 0zM629.653 224.784s1.125 1.127 2.926.901c1.8-.226 3.149 3.601 4.277 4.951 1.124 1.351 1.801 2.026 4.276 3.602 2.475 1.575 2.25-1.351 5.627 3.376 3.376 4.726 1.8 1.801 3.376 4.726 1.575 2.929 2.476 4.503 3.376 5.18.899.675 1.576 2.474 1.802 3.15.224.675 1.799 2.7 1.799 3.376 0 .675.451 2.476-.899 4.051-1.351 1.576-2.477 1.801-2.477 1.801s-2.701-1.351-3.601-2.701c-.901-1.35-2.025-2.476-3.602-5.176-1.575-2.702-3.376-5.628-4.276-6.978-.9-1.352-2.251-2.703-2.926-4.052-.675-1.352-2.476-5.402-3.376-5.853-.9-.451-1.126-1.8-2.702-3.376-1.574-1.576-1.35-2.926-2.025-3.826-.675-.9-2.25-2.928-2.25-2.928zM191.868 400.35c-1.576-.9-4.952-2.476-6.077-3.376-1.125-.9-4.501-5.854-4.501-5.854l-2.477-4.727s-2.925-3.601-2.25-4.951c.675-1.351 2.026-2.251 2.026-2.926 0-.675 1.35-2.477.224-3.151-1.125-.676-1.125-.9-1.801-2.926-.675-2.025-.675-3.828-1.575-4.277-.901-.449-1.576-3.376-2.476-3.601-.9-.226-1.801-1.801-1.801-1.801l-1.351-18.232s-.451-8.327-.9-10.129c-.451-1.8.675-5.626-.451-9.003-1.125-3.376.226-7.427-.45-8.778-.675-1.351.45-5.176-.225-8.777-.675-3.601 2.701-8.103 0-9.453-2.701-1.352-.675-3.377-2.926-3.377-2.25 0-3.826-1.126-5.852-2.7-2.026-1.576-5.853-4.503-6.978-5.629-1.125-1.124-4.727-4.051-5.852-4.951-1.125-.9-2.251-4.727-3.151-5.853-.9-1.124-1.35-4.5-2.701-6.526-1.351-2.025-3.151-5.401-3.602-6.077-.45-.675-5.402-6.527-5.402-6.527l.45-3.601s3.376-2.026 2.926-2.701c-.45-.676.226-1.352-1.351-2.701-1.576-1.352-1.351-3.828 0-4.952 1.351-1.127 3.376-4.728 3.376-4.728l3.376-5.626s2.702-2.928 2.702-4.953c0-2.025 3.826-3.375 1.575-5.176-2.251-1.802-1.125-3.377-1.801-4.728-.676-1.35-.225-2.25 1.801-3.601s5.627-6.302 5.627-6.302 2.701-.676 3.376-.676c.675 0 1.801-7.204 3.827-2.477s2.701 2.251 2.026 5.627c-.676 3.376.9 2.702 1.8 1.802.9-.902-.451.675 1.35-3.378 1.8-4.051 1.126-5.401 2.251-4.275 1.125 1.126 1.575 1.351 3.601 2.026 2.025.675 2.701.449 3.375 1.8.675 1.351.451-.45 4.277.226s9.228-1.351 8.553.899c-.675 2.251-2.026-.225 1.125 2.251 3.151 2.477 3.602 2.926 5.402 3.377 1.8.45 3.376.225 6.078 2.926 2.701 2.7 3.376 2.926 4.051 4.275.675 1.352 1.8.451 2.926 1.801 1.125 1.352 2.701 1.352 4.276 1.352 1.575 0 0-1.352 2.476.45 2.477 1.8 4.277 2.024 5.402 5.626 1.125 3.604 3.376 3.377 1.575 6.979-1.8 3.602-5.401 5.177-3.826 4.952 1.575-.226 4.502-1.577 5.402-1.351.9.224 1.35-.675 2.701 0s1.576-.9 1.351.675c-.226 1.576-.226 0-.226 1.576 0 1.575-.45-1.576 2.251-.9 2.701.675 1.125-1.352 4.276 1.575 3.152 2.927 3.152 2.027 4.276 3.602 1.126 1.574 2.251-.899 2.927-.225.676.674 2.701.224 4.727.675 2.026.449.675-1.35 3.827.675 3.15 2.025 6.302 1.35 6.977 3.151.675 1.8 2.477 1.125 3.376 2.251s1.35-.451 2.251 1.126c.9 1.574 3.602 1.124 3.151 2.699-.451 1.577.674.676.224 2.926-.449 2.253-2.026 5.854-3.375 6.753-1.351.901-1.35 2.026-2.251 3.151-.9 1.127-.675-1.125-1.801 2.026-1.125 3.152-.9 3.602-1.8 6.527-.9 2.925-.225 0-.9 2.926s-.225 4.727-.9 8.104c-.675 3.375-.45 3.376-.9 5.852-.45 2.476 1.125-1.124-.901 4.051-2.025 5.178-2.25 4.951-2.925 7.203-.676 2.252.225.45-2.251 1.801-2.476 1.352-1.125.9-4.052 1.801-2.925.9-6.527 1.802-7.652 2.026-1.125.224-5.627 1.575-4.276 4.275 1.351 2.702 1.351 3.152 0 6.529-1.351 3.375-3.376 4.502-3.376 6.076 0 1.575-.901 3.15-1.125 4.276-.226 1.126 2.025-1.126-.675 2.251-2.701 3.376-2.926 2.476-3.827 4.502-.9 2.025 0 .449-.9 2.025-.9 1.575-3.151 2.25-3.151 2.25s.224 1.126-.676.676c-.901-.449-.675.225-4.052-.676-3.376-.9-3.826-3.149-4.276-1.575-.45 1.575.225 2.477 2.251 4.052 2.025 1.576 5.402 2.025 4.501 3.602-.9 1.576-.9 1.576-1.575 2.476-.676.901.9.225-.676.901-1.575.675-2.476 3.602-3.151 3.602-.675 0-1.126 1.125-2.026.675-.9-.451-3.15-2.026-3.601-1.126-.45.899-1.351-1.126-1.126 2.025.226 3.151.676 4.952-.45 5.628-1.125.675-3.827 0-3.827 0l-.45-1.126-1.575.45s-.675 2.701.45 3.151c1.125.45.9.899 2.025 2.25 1.126 1.351.451 3.827.451 3.827s0 .676-1.125 1.801-1.576 2.026-1.801 2.701c-.226.675-1.576 3.602.45 3.376 2.025-.226 3.602-1.351 3.602 2.251 0 3.601.9 2.702-.225 5.177-1.126 2.476-2.026 2.701-2.251 4.951-.224 2.251.226 2.476.676 3.827.45 1.351 1.576.675.45 1.351-1.123.675-4.499.001-4.499.001zM133.796 217.132l-1.575-2.25s-.675-1.352-1.801-1.576c-1.126-.224-3.602-3.151-3.602-3.151s-1.125-.9-1.125-2.475c0-1.576-.901-4.051-.226-6.752.676-2.7.901-6.077.676-6.978-.226-.9 1.125-1.125-.45-2.026-1.576-.9-4.727-1.125-6.753-1.125-2.025 0-4.502.676-4.952.9-.45.225 2.476-6.752 2.926-7.877.45-1.125 2.476-6.078 2.476-6.752 0-.676.675-.901-.675-1.8-1.35-.901-3.601-1.351-4.952-.676-1.35.676-1.125-.9-2.25 1.8-1.125 2.702-2.251 5.628-3.602 6.078-1.35.451-4.051 1.801-4.051 1.801s-3.376-.225-4.502-.45c-1.125-.225-5.852-2.701-6.752-4.276-.9-1.576-1.35-4.953-1.35-6.527 0-1.576 2.475-6.302 2.25-7.428-.225-1.125 2.477-5.627 2.251-6.303-.226-.675.45-2.926 1.125-3.826.675-.9 4.052-2.026 4.952-2.926.9-.901 2.476-2.025 4.051-2.476 1.575-.451 2.927-.9 4.052-.9 1.125 0 4.051-2.476 4.501 0 .451 2.475 2.477 1.575 3.602 1.8 1.125.226 1.351 1.351 3.151-1.575 1.801-2.927 3.601-3.827 3.601-3.152 0 .676 2.926-.224 3.376.451.45.675 1.351-.451 2.926.9 1.576 1.351 3.826 1.576 3.601 2.25-.225.675.9.675.9 1.351 0 .675.901-1.576.901 2.475 0 4.052 1.125 6.528 1.125 6.528s1.575 3.377 2.25 2.701c.675-.675 2.025-2.475 2.025-2.475s2.251-1.351.676-6.078c-1.576-4.726-.45-6.077-.9-7.653-.451-1.576-.451-2.477 2.25-4.502s9.228-6.527 10.804-7.427c1.575-.9 5.176-3.376 5.176-3.376s1.35-.675 1.576-2.476c.225-1.8 4.501-4.952 4.727-5.852.226-.9 3.152-3.15 3.152-3.15s3.15-1.802 2.925-2.926c-.225-1.125 4.052-3.15 4.727-3.15.675 0 4.277 1.124 4.277-.902 0-2.025 0-2.476 2.251-4.276 2.25-1.8 5.176-4.502 6.302-4.502 1.125 0 4.952-2.024 6.527-2.475 1.576-.451 6.528-2.702 2.026 0-4.502 2.7-1.576 1.125-2.476 3.376-.899 2.25-1.576 5.177 2.701 1.8 4.277-3.376 4.051-4.052 5.627-4.276 1.576-.225.45.675 3.826-.451 3.377-1.125 3.602-1.575 3.602-1.575s1.576-1.351.675-2.025c-.9-.676.901-1.576-2.476-.226-3.376 1.351-3.151 1.576-5.402.9-2.25-.675-5.627-.451-3.151-2.702 2.476-2.25 5.627-2.926 3.601-3.826-2.025-.9-7.202.226-7.877.45-.676.225-2.251-.225-3.602 0-1.35.225-.9-1.799 0-2.25.901-.451 3.827-1.802 7.428-2.702 3.601-.9 12.38-1.125 14.405-1.125 2.025 0 4.726.451 6.302-.675 1.575-1.125 4.727-2.925 5.177-3.827.451-.9 2.251-2.25 2.251-2.25s2.025-2.026.9-2.926c-1.125-.9-2.251-2.926-3.151-2.476-.9.45-.224 3.152-2.025.225-1.801-2.925-1.576-3.376-2.476-4.051-.9-.675-1.801-.226-1.125-3.376.675-3.151.45-4.502.45-4.502s.675-2.7 0-2.925c-.676-.226-1.125-.9-2.25-.226-1.126.675-7.428 3.827-8.778 4.502-1.351.675-3.152-2.701-2.477-4.276.676-1.577.225-.676-.675-2.926-.9-2.251-4.501-2.702-5.852-2.702s-4.501-2.026-5.402-.675c-.9 1.35-5.626 5.626-6.528 6.077-.9.451-2.25-3.826-2.925 3.151-.676 6.979 2.476 9.004-1.125 9.454-3.601.45-6.753 2.475-6.753 2.475s-2.925.226-2.925 2.026c0 1.802-1.125 6.077-2.477 6.527-1.35.451-4.727-.224-5.852-1.575s.225-6.302.225-6.302l2.026-2.026s-14.405-2.25-14.181-3.151c.226-.9-4.276-2.475-4.726-3.826-.45-1.351-.676-4.277-.225-5.402.45-1.125 6.527-6.527 9.678-7.652 3.151-1.126 8.553-3.601 10.129-4.052 1.576-.45 4.276-.225 5.177-1.35.9-1.126 1.125-3.151 1.125-3.151s-.45-3.152.45-2.702c.9.451 2.476 1.126 2.701 1.801.226.675.226 2.251 1.801.449 1.576-1.8 3.602-2.476 5.402-3.375 1.801-.901 4.501-.675 6.078-1.575 1.575-.9 4.276-1.801 4.501-4.052.225-2.25-.675-1.575-1.801-1.801-1.125-.224.45.226-3.376 2.026-3.827 1.8-2.701.45-5.402 1.8-2.701 1.351-2.927 1.576-3.151.451-.226-1.126.45-2.926.45-2.926s.226-.226-1.35-.675c-1.576-.45-1.576.225-1.801-1.8-.225-2.026 1.125-4.952-1.125-4.052-2.251.9-4.276-.675-5.852 3.826-1.576 4.501-6.978 9.229-8.329 8.103-1.35-1.125-1.575-1.351-2.701-1.351-1.126 0-2.701-1.35-4.727-1.575-2.026-.225-8.104-.225-9.678 0-1.576.226-3.376-.9-4.728.451-1.35 1.35-3.375 3.151-3.375 3.827 0 .675-2.026-2.477-2.701-2.251-.675.225-2.477-.9-4.501-.9-2.026 0-3.377-1.126-4.051-1.126-.675 0 .674-1.801 0-2.026-.675-.224-15.307-.675-15.307-.675s-4.726-1.8-6.526-1.575c-1.801.225-6.752.449-10.58 1.125-3.827.675-9.454 2.926-11.254 3.151-1.801.226-5.852.226-6.527-.9-.676-1.125.225-.9-.676-1.125-.9-.224-.224-.675-2.25-2.25-2.026-1.576.901-2.926-3.151-2.926-4.051 0-6.527-.226-10.128 0-3.602.225-11.029 2.025-11.929 1.8-.9-.225-8.103 1.126-9.229.451-1.125-.676-6.753 2.475-7.877 2.25-1.125-.225-5.402.226-6.527.901-1.126.676-6.528 2.025-4.727 3.151 1.8 1.125 1.575 2.25 1.8 2.926.226.675-1.8 2.25-1.8 2.25s-.451 0-2.926-.9c-2.476-.901-5.177-1.35-6.303-.675-1.125.675-3.151 2.027-2.701 2.927.451.9 3.601 2.926 4.052 2.25.45-.675 1.576-2.025 2.926-1.8 1.351.226 3.377-.9 1.576 1.351-1.801 2.25-3.377 3.376-4.502 3.602-1.125.224-3.826.449-6.302.675-2.477.226-2.252-.9-4.502 1.351-2.25 2.25-3.151.9-3.601 3.376-.45 2.475-.9 2.475 0 3.151.9.675-1.801.9.225 1.575 2.025.676 4.501 1.351 4.276 2.025-.226.676 2.251-.899.9.9-1.351 1.802-2.25 3.376.45 1.576 2.701-1.8 4.276-.451 6.527-1.576 2.251-1.125 4.502-1.35 5.852-2.25 1.351-.901 2.026-2.25 4.052-2.927 2.026-.675.675.226.9 1.351.225 1.125 0 1.35 1.351.449 1.35-.9 1.35-.224 3.151-1.35 1.8-1.125 3.826-2.251 5.177-1.576 1.35.676 1.8.676 2.701.676.9 0-1.125-.226.9 0 2.026.224-.9-.676 5.852.9 6.753 1.575 8.554.45 9.003 2.926.451 2.476 1.351-.226 2.476 1.35 1.125 1.575 1.801.226 2.476 2.926.675 2.702 0 10.129-.45 11.029-.45.9-.675.9-.45 2.926.225 2.025 2.926 11.705 2.026 12.379-.9.674-2.926.9-2.926.9l-1.125 4.051s-1.8 3.376-3.376 5.177c-1.576 1.8-3.601 4.052-4.727 5.626-1.125 1.576-2.026 4.278-3.601 5.853-1.575 1.575-2.926.9-2.476 4.276.45 3.376 0 6.977.45 9.454.451 2.476 1.576 5.852 2.476 7.203.9 1.35 1.576 1.35 3.151 2.475 1.576 1.125 3.602 2.477 3.376 3.602-.225 1.125.225 8.104.225 8.104s1.351 2.25 1.575 4.726c.226 2.477 1.801 4.952 1.801 4.952l1.351 2.927s.675.226 1.576 2.025c.9 1.801.9 1.801 1.125 2.7.226.902.226.676.226.902 0 .224-.226-3.827-.676-4.953-.45-1.125-.45-2.475-.9-3.826s.225-2.927-1.125-4.952-1.35-2.251-2.025-4.277c-.675-2.025-1.576-4.276-.675-4.727.9-.449 1.575-3.375 3.376 0 1.8 3.376 2.026 2.477 2.251 5.178.224 2.701.9 3.602 1.575 4.726.675 1.125 2.25 4.953 3.151 6.527.9 1.576 0-.9 2.025 2.251 2.026 3.151 2.252 3.826 3.377 6.302 1.125 2.476 1.801 2.476 2.476 4.276.675 1.802.225 1.351-.226 3.376-.45 2.025.45 4.277.45 4.277s3.151 1.125 3.376 1.8c.225.675 3.376 1.8 3.827 2.701.45.901 3.376 2.025 3.376 2.025s2.476 1.576 3.375 2.026c.901.45 3.603.901 3.603.901s1.8.451 2.475.675c.675.225 2.701.225 2.701.225s1.801-1.35 2.476-.9c.675.449 2.251-.901 2.926.224.675 1.126 2.026 1.126 2.701 2.027.675.9 1.35.9 2.476 2.025s2.251.9 3.376 1.8 2.025.9 3.376.9c1.35 0 1.35 0 2.251.226.899.225 1.35-.676 2.25.451.9 1.125 1.575 1.8 2.25 2.925.675 1.125 2.251 1.125 2.476 2.926.225 1.8.675 1.577.675 3.151 0 1.576.9 2.251 1.576 2.702.674.449 3.15 2.699 3.15 2.699l3.376.676 2.701 2.026zM205.935 8.03l13.505-1.688s4.726 0 7.09-1.688c2.363-1.688 0-1.688 7.09-3.038 7.09-1.351 5.065-2.026 8.779-1.351 3.713.676 4.726.676 8.778 1.351 4.051.675 5.064-.337 8.777.675 3.714 1.013 5.402.675 8.441.675h9.453c4.727 0 9.116-2.701 10.804-1.013 1.688 1.688 2.701 1.013 8.441 1.688 5.739.675 8.103-.676 10.466 0 2.364.675 6.416-.337 11.142 0 4.726.337 7.09-.337 8.778-.337 1.688 0 3.375-2.364 5.739-.338s5.402-.675 5.739 2.026c.338 2.701 4.727.675.338 2.701s-3.714 1.688-6.753 4.389c-3.038 2.701 2.026 5.064-4.389 7.428-6.415 2.363-7.428-1.351-9.116 2.701-1.688 4.051 0 5.064-.337 7.09-.338 2.025-1.013 2.363-3.039 4.051-2.025 1.688-2.025 0-6.752 1.013s-8.103 2.026-10.128 2.026c-2.026 0-6.415 1.688-7.766 2.363-1.351.676 2.364 1.688-4.727 3.714-7.09 2.026-8.779 1.689-10.804 4.389-2.026 2.702-1.351 3.04-2.701 4.728-1.351 1.688-5.402 8.441-7.428 6.753-2.025-1.688-3.039-1.351-4.727-3.039-1.688-1.688-2.701-4.051-3.714-5.402s-1.351-4.727-1.688-6.753c-.337-2.026-3.377-6.752 0-6.077 3.376.675 5.402.338 6.415-.337 1.013-.676 2.026-3.039 2.026-3.039s-.337-3.714-1.351-5.74c-1.013-2.026-.337-3.714-2.025-5.739-1.688-2.026-1.688-1.688-4.052-3.714-2.363-2.026-1.688-3.039-5.402-3.376-3.714-.337-4.727-1.351-6.078-1.013-1.35.337-5.739-2.364-1.013-2.701 4.727-.338 9.116.337 9.116.337s6.077-2.701 4.052-3.038c-2.025-.338 3.038-3.377-1.688-2.364-4.727 1.013-10.128 2.364-11.479 2.701-1.35.337-4.727.675-8.103 1.688-3.375 1.013-7.428.676-9.453 3.039-2.026 2.363 0 2.701-2.026 2.363-2.025-.337 1.688-2.363-3.038 0-4.727 2.364-3.376 2.026-5.739 1.351-2.364-.675-4.052-1.688-4.052-1.688s3.04-.338-1.35-.675c-4.389-.337-4.389-.337-6.077-2.364-1.688-2.026-.675-2.026.337-2.701 1.014-.676 1.689-2.027 1.689-2.027z" transform="matrix(.026 0 0 .0411 1.763 4.152)"/><path d="M198.507 23.223c-1.688 1.688-5.74 4.052-4.726 5.065 1.013 1.013 1.688 4.727 3.714 3.714 2.025-1.013-.338-4.389 7.427-1.688 7.766 2.701 7.09-.337 8.778 3.714 1.688 4.051 3.038 7.089 2.025 8.103-1.012 1.013-1.35 2.026-4.727 3.039-3.376 1.013-4.727 2.364-2.363 4.051 2.363 1.688 6.753 3.376 8.778 4.39 2.026 1.012 8.103 1.351 5.064-2.025-3.039-3.376.675-4.39.675-4.39s5.74 4.39 3.715-.675c-2.026-5.064-3.377-5.064-2.026-5.064s4.051 1.688 4.051 1.688l1.351-2.701-1.351-4.389-4.389-4.389s3.713-3.376-1.351-4.051c-5.064-.675-4.727-.675-7.428-2.364-2.701-1.688-3.038-2.363-8.103-1.35-5.064 1.013-6.752 1.688-6.752 1.688zM123.218 27.275c2.026-2.026 7.428-6.752 9.454-5.402 2.025 1.35 5.063-1.013 7.427 1.013 2.363 2.026 5.064 4.389 7.09 5.064 2.026.675 4.389-1.688 6.415-.675 2.025 1.013 9.115-5.064 7.765-.337-1.351 4.727 1.688 6.077-2.026 6.415-3.714.338-7.765 3.039-9.454 2.026-1.688-1.013-3.039-2.026-5.74-.675-2.701 1.35-1.35 1.35-4.389.675-3.038-.675-3.713.675-4.388-.338-.676-1.012-2.701-.675-2.364-3.714.337-3.038 1.35-2.701-.676-2.701-2.025 0-3.713.338-5.064-.675-1.35-1.013-4.05-.676-4.05-.676z" transform="matrix(.026 0 0 .0411 1.763 4.152)"/></g><path d="M12 2.306c7.1 3.525 6.086 16.744 0 19.388M.842 12h22.316M2.211 6.7c5.68.757 13.796.757 19.477 0M2.211 17.3c5.68-.757 13.796-.757 19.477 0M12 2.306C5.914 4.95 4.9 18.17 12 21.694" fill="none" stroke="#fff" stroke-width=".45003599999999994"/><path transform="matrix(.94219 0 0 .81552 16.85 .738)" d="M6.966 13.81A12.112 12.157 0 0 1-5.147 25.965a12.112 12.157 0 0 1-12.112-12.157A12.112 12.157 0 0 1-5.147 1.653 12.112 12.157 0 0 1 6.966 13.809z" fill="none" stroke="#6e96c4" stroke-width="1.341"/><g><path d="M13.5 17a6.5 6.5 0 1 1-13 0 6.5 6.5 0 0 1 13 0" fill="#fff"/><path d="M4.825 13.085c-.394.016-.771.068-1.147.124a5.088 5.088 0 0 0-1.802 3.731c.302.317.7 1.034 1.158 1.449.061-.027.127-.05.197-.072-.225-.261-.54-.607-.587-.767-.232-.78.037-1.512.617-1.57.52-.052.966-.825 1.333-1.331.754-1.043 1.913-.869 1.855-1.39-.067-.305-.248-.398-.478-.398-.346 0-.802.21-1.146.224" fill="#2b3b4d"/><path d="M3.45 18.255c-.075.021-.149.041-.219.062-.063.017-.112.042-.197.072a.549.549 0 0 0-.355.485c-.057.496.415.885.813.999.505.144.547-.025.812.333.185.25.22.713.315 1.018.053.17.125.34.21.506.36.168.744.295 1.144.375.1-.588.054-1.381.186-1.724.27-.702.422-1.012.058-1.737-.803-.226-1.046-.298-1.855-.464a1.854 1.854 0 0 0-.36-.05c-.144 0-.263.04-.552.125M8.42 14.185c-.237.338-1.067.43-1.334.81-.207.297.007.88-.173 1.217-.084.155-.045.605.056.751.32.465.851.207 1.251.374.488.204.544.769.948 1.182.405.414-.517 1.052.236 2.557.08.162.174.28.275.361.509-.316.957-.72 1.326-1.189.114-.76-.143-1.003.178-1.7.198-.428.538-1.171.904-1.675a5.09 5.09 0 0 0-1.676-3.557.825.825 0 0 1-.368.001 2.027 2.027 0 0 0-.372-.036c-.756 0-.982.52-1.251.904" fill="#2b3b4d"/><path d="M6.399 22.518c-.17-.097-.382-.247-.58-.378-.082.073-.148.18-.214.265.227.077.533.084.794.113m-.894-.606c-.362-.27-1.26-1.12-1.631-1.633-.137.08-.29.3-.487.337-.078.015-.253.036-.304.015-.052-.022.011-.131.067-.204.097-.126.238-.29.445-.45-.442-.647-.652-1.12-.953-1.9-.174.108-.3.204-.452.325-.05.04-.191.065-.26.004-.123-.11-.125-.306.049-.43.071-.05.425-.294.507-.363-.217-.626-.4-1.449-.447-1.875a5.088 5.088 0 0 1-.406.308c-.082.023-.138-.003-.161-.008-.083.886.012 1.86.276 2.74.453 1.514 1.723 2.958 3.438 3.494.04-.06.237-.287.32-.36m-3.52-6.634a137.74 137.74 0 0 1-.048-.776c-.24.523-.385.838-.452 1.45.169-.299.5-.674.5-.674m2.573-3.745c.995-.412 1.965-.638 3.084-.485.125.017.114.122-.018.124l-.158.004c-.901.014-2.227.3-2.913.688-.015.457.072 1.183.164 1.755.623-.262 1.587-.53 2.319-.61a8.55 8.55 0 0 0-1.048-.908c-.068-.048-.102-.13-.102-.237.01-.2.18-.224.273-.2.304-.06.607-.126 1.123-.11 2.18-.096 4.173 1.136 4.933 2.541 1.927 3.043 0 7.241-2.521 8.36-1.079.477-2.004.684-3.71.446-1.708-.238-3.105-1.072-4.19-2.826-1.336-2.161-.584-4.679-.396-5.207.805-1.895 2.123-2.899 3.16-3.335m-2.255 2.303c-.029.228.002.648.059 1.15.464-.414 1.36-.954 2.108-1.284-.086-.57-.178-1.48-.169-1.722-.692.38-1.453 1.143-2.01 1.926m.114 1.539c.066.452.283 1.426.478 1.92.464-.349 1.515-.996 2.11-1.258-.208-.757-.348-1.234-.465-1.998-.84.373-1.729.953-2.123 1.336m.66 2.357c.275.785.541 1.384.89 1.878.406-.353 1.24-.91 1.878-1.216-.21-.451-.514-1.294-.725-1.926-.821.403-1.435.796-2.043 1.264m1.15 2.221c.431.554 1.108 1.257 1.58 1.646.446-.358.95-.693 1.371-.897-.362-.561-.898-1.377-1.123-1.879-.804.356-1.261.655-1.829 1.13m1.858 1.89c.172.173.851.623.851.623a7.346 7.346 0 0 0 1.431-.105c-.224-.256-.786-1.05-.956-1.317a5.957 5.957 0 0 0-1.326.8m2.759.401c.229-.073.813-.338.934-.418.029-.47.024-1.004.005-1.323-.614 0-1.478.179-1.973.386.287.462.683.971 1.034 1.355m1.258-.592c.46-.287.894-.617 1.208-1.014-.27-.068-.875-.15-1.174-.13 0 0-.01.717-.034 1.144m1.353-1.198a1.74 1.74 0 0 0 .268-.379c.05-.436.052-1.33.033-1.591-.526-.213-1.34-.382-1.935-.426.194.709.29 1.75.305 2.09.285.03 1.005.175 1.329.306m.773-2.023c-.025.083-.17.166-.238.145.01.147-.024.875-.062 1.156.101-.208.294-.723.352-.941l.082-.32a5.143 5.143 0 0 0 .107-2.45c-.266-1.374-.763-1.864-.937-2.082-.443-.24-1.112-.458-1.112-.458.607.82.817 1.205 1.18 2.182.21.109.591.32.639.378.038.046.039.128-.081.126-.1 0-.293-.096-.443-.136.16.532.283 1.525.274 2.191 0 0 .263.127.239.21M11.2 13.551c-.84-1.029-2.744-1.904-4.862-1.772.473.312.867.782 1.212 1.17.53-.048 1.64.039 2.058.154-.071-.084-.158-.167-.181-.217-.06-.127.083-.154.198-.081.145.092.312.203.445.338.245.055.85.262 1.13.408m.539 4.637c-.037-.663-.138-1.55-.385-2.166-.652-.262-1.543-.425-2.326-.433.242.563.523 1.503.66 2.108.565.067 1.45.227 2.05.491m-1.833-4.744a9.883 9.883 0 0 0-2.087-.137c.435.602.754 1.126 1.053 1.873.807.02 1.903.26 2.353.436-.268-.714-.778-1.621-1.319-2.172M6.21 18.289a6.923 6.923 0 0 1 3.08-.61c-.29-1.005-.456-1.47-.703-2.081a7.914 7.914 0 0 0-3.106.776s.338 1.086.73 1.915m3.188-.189c-1.203-.014-2.253.273-2.97.626.303.654.905 1.52 1.13 1.878a6.227 6.227 0 0 1 1.137-.306c.326-.05.76-.098 1.056-.093-.054-.762-.143-1.276-.353-2.105m-4.054-2.139a9.58 9.58 0 0 1 3.083-.77 6.774 6.774 0 0 0-1.102-1.826 8.408 8.408 0 0 0-2.53.632c.108.575.313 1.27.549 1.964" fill="#2b3b4d"/></g></svg>
