<?xml version="1.0" encoding="UTF-8"?>
<svg width="19.2pt" height="19.2pt" xmlns="http://www.w3.org/2000/svg">
 <g transform="translate(3.4028 .76788)">
  <rect transform="translate(6.2334 1.0389)" width="4.9867pt" height="4.9024pt" fill="#6e97c4"/>
  <rect transform="translate(12.467 1.0389)" width="4.9867pt" height="4.9024pt" fill="#2b3b4d"/>
  <rect transform="translate(6.2334 7.1669)" width="4.9867pt" height="4.9024pt" fill="#2b3b4d"/>
  <rect transform="translate(12.467 7.1669)" width="4.9867pt" height="4.9024pt" fill="#6d97c4"/>
  <rect transform="translate(0 1.0389)" width="4.9867pt" height="4.9024pt" fill="#2d3e4d"/>
  <rect transform="translate(0 7.1669)" width="4.9867pt" height="4.9024pt" fill="#6d97c4"/>
  <rect transform="translate(6.2334 13.295)" width="4.9867pt" height="4.9024pt" fill="#6d97c4"/>
  <rect transform="translate(0 13.295)" width="4.9867pt" height="4.9024pt" fill="#2b3b4d"/>
  <rect transform="translate(12.463 13.291)" width="4.9867pt" height="4.9024pt" fill="#2b3b4d"/>
  <rect transform="translate(0 1.0389)" width="14.96pt" height="14.707pt" fill="none" stroke="#fff" stroke-linejoin="round" stroke-width="1.2625"/>
 </g>
 <g transform="translate(1.1153 2.38)">
  <rect transform="translate(6.2925 2.7392)" width="4.529pt" height="4.6173pt" fill="#6e97c4"/>
  <rect transform="translate(11.954 2.7392)" width="4.529pt" height="4.6173pt" fill="#2b3b4d"/>
  <rect transform="translate(6.2925 8.5108)" width="4.529pt" height="4.6173pt" fill="#2b3b4d"/>
  <rect transform="translate(11.954 8.5108)" width="4.529pt" height="4.6173pt" fill="#6d97c4"/>
  <rect transform="translate(.63124 2.7392)" width="4.529pt" height="4.6173pt" fill="#2d3e4d"/>
  <rect transform="translate(.63124 8.5108)" width="4.529pt" height="4.6173pt" fill="#6d97c4"/>
  <rect transform="translate(6.2925 14.282)" width="4.529pt" height="4.6173pt" fill="#6d97c4"/>
  <rect transform="translate(.63124 14.282)" width="4.529pt" height="4.6173pt" fill="#2b3b4d"/>
  <rect transform="translate(11.95 14.279)" width="4.529pt" height="4.6173pt" fill="#2b3b4d"/>
  <rect transform="translate(.63124 2.7392)" width="13.587pt" height="13.852pt" fill="none" stroke="#fff" stroke-miterlimit="0" stroke-width="1.2625"/>
 </g>
 <path transform="translate(9.1543 1.5056)" d="m0 0c3.7918 0.017151 5.5684 0.017151 5.3298 0 0.04039 10.359 0.04039 15.538 0 15.538-0.04038 0-1.7766-7e-4 -5.2087-0.0021v-6.9323" fill="none" stroke="#ff7f50" stroke-linecap="round" stroke-linejoin="round" stroke-width="2.5381"/>
</svg>
