<svg xmlns="http://www.w3.org/2000/svg" viewBox="0 0 512 512"><text style="line-height:1.25" x="307.191" y="356.606" transform="scale(.95762 1.04425)" font-weight="400" font-size="43.78" font-family="sans-serif" letter-spacing="0" word-spacing="0" fill="#589632" stroke-width="1.095"/><g fill="#ee7913" stroke="#4d4d4d" stroke-width="20"><path d="M292.881 329.22h85.695v1.085h-85.695z" transform="matrix(3.85176 0 0 4.83838 -1075.846 -1448.544)"/><path d="M364.704 343.457V316.068l11.86 6.848 11.859 6.847-11.86 6.847z" transform="matrix(3.85176 0 0 4.83838 -1075.846 -1448.544)"/></g><g fill="#ee7913" stroke="#4d4d4d" stroke-width="20"><path d="M292.881 329.22h85.695v1.085h-85.695z" transform="matrix(-3.85176 0 0 4.83838 1586.895 -1232.32)"/><path d="M364.704 343.457V316.068l11.86 6.848 11.859 6.847-11.86 6.847z" transform="matrix(-3.85176 0 0 4.83838 1586.895 -1232.32)"/></g><path d="M313.6 325.186l122.544 115.136" fill="#999" stroke="#999" stroke-width="109.819"/><ellipse cx="226.202" cy="218.246" rx="116.757" ry="125.329" fill="none" stroke="#589632" stroke-width="84.499"/></svg>