<svg xmlns="http://www.w3.org/2000/svg" height="16" width="16"><path d="M8.004.088a7.932 7.932 0 0 1 7.932 7.932c0 4.369-3.563 7.932-7.932 7.932A7.932 7.932 0 0 1 .072 8.02 7.916 7.916 0 0 1 8.004.088zm0 14.107c3.417 0 6.175-2.783 6.175-6.2a6.166 6.166 0 0 0-6.175-6.174c-3.417 0-6.2 2.758-6.2 6.174 0 3.417 2.783 6.2 6.2 6.2zm2.343-5.223h-2.49c-.268 0-.487-.098-.634-.293L4.416 5.628c-.756-.805.488-1.977 1.27-1.196l2.538 2.782h2.123c1.196 0 1.074 1.758 0 1.758zM7.516 3.358a.48.48 0 0 1 .464-.464.48.48 0 0 1 .463.464.48.48 0 0 1-.463.464.48.48 0 0 1-.464-.464zm3.246 1.27a.48.48 0 0 1 .464-.464.48.48 0 0 1 .463.463.48.48 0 0 1-.463.464.48.48 0 0 1-.464-.464zm1.44 3.343a.48.48 0 0 1 .464-.464.48.48 0 0 1 .464.464.48.48 0 0 1-.464.464.48.48 0 0 1-.464-.464zm-1.293 3.27a.48.48 0 0 1 .463-.463.48.48 0 0 1 .464.464.48.48 0 0 1-.464.463.48.48 0 0 1-.463-.463zM7.49 12.658a.48.48 0 0 1 .464-.464.48.48 0 0 1 .464.464.48.48 0 0 1-.464.464.48.48 0 0 1-.463-.464zm-3.172-1.27a.48.48 0 0 1 .463-.463.48.48 0 0 1 .464.464.48.48 0 0 1-.464.464.48.48 0 0 1-.463-.464zM2.854 7.972a.48.48 0 0 1 .464-.464.48.48 0 0 1 .464.464.48.48 0 0 1-.464.464.48.48 0 0 1-.464-.464z" fill="#555"/></svg>