<svg width="24" height="24" xmlns="http://www.w3.org/2000/svg" xmlns:xlink="http://www.w3.org/1999/xlink"><defs><clipPath id="n"><rect transform="matrix(.955 0 0 .893 -4.64 -1.37)" x="-126" y="-6" width="48" height="22" fill="#a40000"/></clipPath><filter id="m" x="-.0655" y="-.344" width="1.13" height="1.69" color-interpolation-filters="sRGB"><feGaussianBlur stdDeviation="1.1456439"/></filter><linearGradient id="l" x1=".5" x2="15.5" y1="12" y2="12" gradientTransform="matrix(.89 0 0 1.36 1.07 1.22)" gradientUnits="userSpaceOnUse" xlink:href="#a"/><linearGradient id="a"><stop stop-color="#e7e7e7" offset="0"/><stop stop-color="#c0c0c0" offset="1"/></linearGradient><linearGradient id="k" x1="-122" x2="-81.5" y1="27" y2="27" gradientTransform="matrix(.325 0 0 .528 41.4 4.58)" gradientUnits="userSpaceOnUse" xlink:href="#d"/><linearGradient id="d"><stop stop-color="#dcdcdc" offset="0"/><stop stop-color="#545454" offset="1"/></linearGradient><linearGradient id="j" x1="-122" x2="-82" y1="23.5" y2="23.5" gradientTransform="matrix(.325 0 0 .528 41.4 5.11)" gradientUnits="userSpaceOnUse" xlink:href="#c"/><linearGradient id="c"><stop stop-color="#fff" stop-opacity=".6" offset="0"/><stop stop-color="#fff" stop-opacity=".208" offset="1"/></linearGradient><linearGradient id="i" x1="-121" x2="-102" y1="30" y2="30" gradientTransform="matrix(.325 0 0 .528 41.4 .884)" gradientUnits="userSpaceOnUse" xlink:href="#b"/><linearGradient id="b"><stop stop-opacity=".8" offset="0"/><stop stop-opacity=".154" offset="1"/></linearGradient><linearGradient id="h" x1=".5" x2="15.5" y1="12" y2="12" gradientTransform="matrix(.89 0 0 1.36 1.07 -4.59)" gradientUnits="userSpaceOnUse" xlink:href="#a"/><linearGradient id="g" x1="-122" x2="-81.5" y1="27" y2="27" gradientTransform="matrix(.325 0 0 .528 41.4 -1.23)" gradientUnits="userSpaceOnUse" xlink:href="#d"/><linearGradient id="f" x1="-122" x2="-82" y1="23.5" y2="23.5" gradientTransform="matrix(.325 0 0 .528 41.4 -.701)" gradientUnits="userSpaceOnUse" xlink:href="#c"/><linearGradient id="e" x1="-121" x2="-102" y1="30" y2="30" gradientTransform="matrix(.325 0 0 .528 41.4 -4.93)" gradientUnits="userSpaceOnUse" xlink:href="#b"/></defs><g fill-rule="evenodd" stroke="#727272" stroke-linejoin="round"><path d="m7.61 22.6v-21h10l5 5v16z" fill="#fff"/><path d="m17.6 1.59v5h5z" fill="#f0f0f0"/></g><ellipse transform="matrix(.341 0 0 .726 43 16.3)" cx="-102" cy="6" rx="21" ry="4" clip-path="url(#n)" fill="#2e3436" fill-opacity=".8" filter="url(#m)"/><path d="m8.19 12.8c-3.69 0-6.67 1.22-6.67 2.72v4.07c0 1.5 2.99 2.72 6.67 2.72 3.69 0 6.67-1.22 6.67-2.72v-4.07c0-1.5-2.99-2.72-6.67-2.72z" fill="url(#l)"/><path d="m1.56 14.9c-.0341.111-.0509.232-.0509.347v4.32c0 1.5 2.99 2.72 6.67 2.72 3.69 0 6.67-1.22 6.67-2.72v-4.32c0-.115-.0168-.235-.0509-.347-.41 1.34-3.22 2.38-6.62 2.38-3.4 0-6.21-1.04-6.62-2.38z" fill="url(#k)"/><path d="m8.19 13c-1.83 0-3.48.309-4.67.792-.593.242-1.08.506-1.39.809-.314.302-.448.613-.448.858v4.06c0 .245.133.556.448.858.314.303.8.567 1.39.809 1.19.483 2.84.792 4.67.792 1.83 0 3.48-.309 4.67-.792.593-.242 1.08-.506 1.39-.809.314-.303.448-.613.448-.858v-4.06c0-.245-.133-.556-.448-.858-.314-.303-.8-.567-1.39-.809-1.19-.483-2.84-.792-4.67-.792zm0 .528c1.8 0 3.43.257 4.58.726.572.234 1.01.5 1.28.759.267.259.325.444.325.429v4.09c0-.0144-.0583.17-.325.429-.267.259-.71.525-1.28.759-1.14.469-2.77.726-4.58.726-1.8 0-3.43-.257-4.58-.726-.572-.234-1.01-.5-1.28-.759-.267-.259-.325-.444-.325-.429v-4.09c0 .0144.0583-.17.325-.429.267-.259.71-.525 1.28-.759 1.14-.469 2.77-.726 4.58-.726z" color="#000000" fill="url(#j)" style="text-decoration-line:none;text-indent:0;text-transform:none"/><path d="m8.19 12.8c-3.69 0-6.67 1.22-6.67 2.72v4.07c0 1.5 2.99 2.72 6.67 2.72 3.69 0 6.67-1.22 6.67-2.72v-4.07c0-1.5-2.99-2.72-6.67-2.72z" fill="none" stroke="#3f3f3f" stroke-width=".415"/><path d="m2 15.6v.528c.993.993 3.39 1.7 6.18 1.7 2.8 0 5.19-.707 6.18-1.7v-.528c-.993.993-3.39 1.7-6.18 1.7-2.8 0-5.19-.707-6.18-1.7z" fill="url(#i)"/><path d="m8.19 6.96c-3.69 0-6.67 1.22-6.67 2.72v4.07c0 1.5 2.99 2.72 6.67 2.72 3.69 0 6.67-1.22 6.67-2.72v-4.07c0-1.5-2.99-2.72-6.67-2.72z" fill="url(#h)"/><path d="m1.56 9.07c-.0341.111-.0509.232-.0509.347v4.32c0 1.5 2.99 2.72 6.67 2.72 3.69 0 6.67-1.22 6.67-2.72v-4.32c0-.115-.0168-.235-.0509-.347-.41 1.34-3.22 2.38-6.62 2.38-3.4 0-6.21-1.04-6.62-2.38z" fill="url(#g)"/><path d="m8.19 7.22c-1.83 0-3.48.309-4.67.792-.593.242-1.08.506-1.39.809-.314.303-.448.613-.448.858v4.06c0 .245.133.556.448.858.314.303.8.567 1.39.809 1.19.483 2.84.792 4.67.792 1.83 0 3.48-.309 4.67-.792.593-.242 1.08-.506 1.39-.809.314-.303.448-.613.448-.858v-4.06c0-.245-.133-.556-.448-.858-.314-.303-.8-.567-1.39-.809-1.19-.483-2.84-.792-4.67-.792zm0 .528c1.8 0 3.43.257 4.58.726.572.234 1.01.5 1.28.759.267.259.325.444.325.429v4.09c0-.0144-.0583.17-.325.429-.267.259-.71.525-1.28.759-1.14.469-2.77.726-4.58.726-1.8 0-3.43-.257-4.58-.726-.572-.234-1.01-.5-1.28-.759-.267-.259-.325-.444-.325-.429v-4.09c0 .0144.0583-.17.325-.429.267-.259.71-.525 1.28-.759 1.14-.469 2.77-.726 4.58-.726z" color="#000000" fill="url(#f)" style="text-decoration-line:none;text-indent:0;text-transform:none"/><path d="m8.19 6.96c-3.69 0-6.67 1.22-6.67 2.72v4.07c0 1.5 2.99 2.72 6.67 2.72 3.69 0 6.67-1.22 6.67-2.72v-4.07c0-1.5-2.99-2.72-6.67-2.72z" fill="none" stroke="#3f3f3f" stroke-width=".415"/><path d="m2 9.75v.528c.993.993 3.39 1.7 6.18 1.7 2.8 0 5.19-.707 6.18-1.7v-.528c-.993.993-3.39 1.7-6.18 1.7-2.8 0-5.19-.707-6.18-1.7z" fill="url(#e)"/></svg>
