<svg height="24" width="24" xmlns="http://www.w3.org/2000/svg"><ellipse cx="12.385" cy="13.087" fill="#fff" rx="9.385" ry="9.379"/><g fill="#262626"><path d="m12.236 2.83c-5.608 0-10.177 4.528-10.177 10.085.001 5.557 4.571 10.085 10.177 10.085 5.607 0 10.176-4.528 10.176-10.085s-4.569-10.085-10.176-10.085zm0 1.029c5.062 0 9.138 4.04 9.138 9.056 0 4.991-4.076 9.056-9.138 9.056-5.063 0-9.138-4.065-9.138-9.056 0-5.017 4.075-9.056 9.138-9.056z"/><path d="m11.717 2.058v1.286h1.038v-1.286z"/><path d="m10.315 1.003a.58.58 0 0 0 -.571.309.58.58 0 0 0 0 .643.646.646 0 0 0 .57.335h3.843a.646.646 0 0 0 .571-.335.58.58 0 0 0 0-.643.58.58 0 0 0 -.571-.309zm9.631 3.473c-.208 0-.39.103-.545.232l-.467.489c-.208.18-.286.463-.208.746a.726.726 0 0 0 .545.54c.286.077.571 0 .753-.206l.493-.463c.234-.231.286-.566.182-.874-.13-.283-.441-.464-.753-.464z"/></g><path d="m12.236 12.375c-.156.025-.286.077-.364.18-.104.077-.155.206-.155.36v4.785c0 .18.103.36.26.438a.475.475 0 0 0 .518 0 .497.497 0 0 0 .26-.438v-4.785a.521.521 0 0 0 -.156-.386c-.104-.077-.233-.154-.363-.154z" fill="#a00"/><path d="m15.61 8.979c-.13 0-.259.051-.363.154l-3.375 3.422a.566.566 0 0 0 -.155.489c.051.18.207.334.389.36.182.051.363 0 .493-.129l3.401-3.422a.557.557 0 0 0 .104-.566c-.078-.205-.286-.308-.493-.308z" fill="#a00"/></svg>