<svg height="24" width="24" xmlns="http://www.w3.org/2000/svg" xmlns:xlink="http://www.w3.org/1999/xlink"><filter id="a" color-interpolation-filters="sRGB" height="1.5" width="1.5" x="-.25" y="-.25"><feGaussianBlur in="SourceAlpha" result="blur" stdDeviation="2"/><feColorMatrix result="bluralpha" type="matrix" values="1 0 0 0 0 0 1 0 0 0 0 0 1 0 0 0 0 0 0.351000 0"/><feOffset dx="7.5" dy="7.5" in="bluralpha" result="offsetBlur"/><feMerge><feMergeNode in="offsetBlur"/><feMergeNode in="SourceGraphic"/></feMerge></filter><g fill="none" filter="url(#a)" stroke="#415a75" transform="matrix(.05336966 0 0 .05336966 -25.394738 -6.898659)"/><g fill-rule="evenodd" transform="matrix(1.0532888 0 0 1.0532733 -.875197 -8.653088)"><path d="m2.4967632 25.719803c.5533036-1.810469 1.3717001-2.751016 2.3395996-4.351341 1.2168338-1.79079 1.9206733-3.443645 3.5629555-5.09386 1.7474887-2.065056 4.4113197-5.019948 7.1950337-5.456824 2.822517-.188019 6.102135-2.4622698 6.606974-2.317778-.896315 1.750794.168406 3.712601-.407798 5.5979-.419848 1.200397-5.930514 4.338158-6.693464 4.693904-.919715.564033-4.194041 4.016912-5.092867 4.645799-1.001922.88102-.8009958 1.996952-2.3594326 1.949237-.059987-.01469-3.2629169.393902-4.5121762.566578-.4780231 1.285744 3.5527663-.08636 1.4613101.855639-.9790157.44137-2.6770392.448133-2.1001351-1.089254z" fill="#6d97c4" stroke="#2b3b4d" stroke-linejoin="round" stroke-width=".555952"/><g fill="#fff"><path d="m4.6631855 23.884593c.3600559.02435 3.4669066.21707 5.1486433-.656932-2.7850945.356788-4.4579005.129005-4.7714483.174446-.073511.09414-.2348885.352685-.377195.482486z" stroke-width="1pt"/><path d="m3.7492361 25.408274c.3600561.02435 3.7481361-.330276 5.4298686-1.204305-2.7850936.356788-4.6888301.577032-5.0983927.646825-.020928.146729-.1891692.42768-.3314759.55748z" stroke-width="1pt"/><path d="m5.55638 22.703325c.3600549.02435 4.0533158.280421 5.735053-.593579-2.7850947.356788-4.9745886.03936-5.2881355.0848-.073508.09414-.3046111.378978-.4469177.508779z" stroke-width="1pt"/><path d="m6.6902524 21.347802c.3600558.02435 4.1104766.400237 5.7922136-.473765-2.7850944.356787-4.979164-.10675-5.292712-.06131-.073508.09414-.3571954.405269-.4995021.535071z" stroke-width="1pt"/><path d="m7.9956063 19.95977c.3600551.02435 4.0750327.548286 5.7567707-.325714-2.785097.356786-4.9437219-.228506-5.2572683-.183065-.0735112.094142-.3571967.378976-.4995024.508779z" stroke-width="1pt"/><path d="m9.5249794 18.352573c.3600553.02435 4.4785196.179134 6.0642396-.08608-2.160998-.203297-5.2249-.46814-5.538446-.422698-.073509.09414-.3834856.378975-.5257936.508777z" stroke-width="1pt"/><path d="m11.130939 16.76779c.360058.02435 4.911754.718748 6.497476.356127-2.233009-.251999-5.63184-.884054-5.94539-.838612-.07351.09414-.409778.352685-.552086.482485z" stroke-width="1pt"/><path d="m12.719762 15.38364c.360057.02436 5.138061.883385 6.627767.569467-1.584909-.154592-5.683258-1.149978-5.996806-1.104536-.07351.09414-.488655.405268-.630961.535069z" stroke-width="1pt"/><path d="m14.546332 13.969317c.360057.02435 5.059186.935968 6.356863.76816-1.776938-.130242-5.373499-1.172389-5.687046-1.126948-.121518.142847-.527509.228987-.669817.358788z" stroke-width="1pt"/><path d="m16.706669 12.826741c.360055.02435 3.680697.714864 5.002378.741867-1.800942-.27635-3.942429-1.148038-4.255976-1.102596-.07351.09414-.604095.230927-.746402.360729z" stroke-width="1pt"/><path d="m18.581243 11.923796c.360057.02436 1.902139.424589 3.247822.183726-1.464889-.03283-2.362758-.543133-2.676306-.497693-.07352.09414-.429209.184166-.571516.313967z" stroke-width="1pt"/><path d="m20.067185 10.902978c.360059.02435.983132-.0868 1.488686-.425062-.696771.137625-.747644-.03175-1.061192.01369-.07352.09414-.285186.281572-.427493.411373z" stroke-width="1pt"/><path d="m21.068478 9.8840968c.360058.024345.80712-.6283437.90461-1.1857757-.240703.3324364-.283588.5020385-.405108.5718309-.073519.094144-.357196.4841444-.499502.6139448z" stroke-width="1pt"/><path d="m14.62506 12.949935-.631007.315503c-.07887-.157752.236627-1.656393.867633-2.050772-.315503.552131-.578423 1.735269-.236626 1.735269z"/><path d="m16.692543 11.832526-.446965.26292c-.07887-.157751-.05259-.893926.604716-1.262014-.341796.341795-.499547.999094-.157751.999094z"/><path d="m18.585563 10.991184-.446964.262919c-.07888-.157751.499546-.841342.94651-1.209429-.473254.604714-.604714.867635-.499546.94651z"/><path d="m20.057911 10.044673-.446963.262919c-.07887-.157751.525838-.6572972.972802-1.0253842-.394378.4732548-.867635.7624662-.525839.7624652z"/><path d="m12.591 14.303969-.525841.368087c-.07887-.157751.02629-1.866728.473254-2.234815-.28921.604714-.289211 1.866728.05259 1.866728z"/><path d="m10.776853 15.881486-.394379.341796c-.07887-.157752-.02629-1.708977.499547-2.339984-.236626.473256-.446963 1.998187-.105168 1.998188z"/><path d="m9.0678792 17.432711-.3943809.341795c-.078875-.157751.1314593-1.76156.5784233-2.129647-.3155032.525838-.5258394 1.787853-.1840424 1.787852z"/><path d="m7.6744057 18.931351-.4469654.341796c-.05259-.210335.026291-1.47235.4732563-1.840436-.2629193.604714-.3680879 1.498641-.026291 1.49864z"/><path d="m6.3072229 20.37741-.3943789.341794c-.078872-.157753.2892122-1.34089.6835895-1.840437-.3155018.552132-.6310056 1.498642-.2892106 1.498643z"/><path d="m4.9926263 21.797174-.2629197.315502c-.078875-.157751.2892115-.736174.7624669-1.288304-.078876.578422-.8413427.972802-.4995472.972802z"/></g><path d="m17.821514 11.627108c-1.556295.712455-3.552564 1.600255-5.222807 2.962778-3.8148767 3.176348-5.1101731 4.861848-6.9294022 6.729867 0 0-3.7932544 4.294941-4.5419616 8.402111-.15378775 1.417771.6778602 1.199653.8824125.163589.7151549-3.923111 2.8048552-6.757751 4.1746633-8.211256 1.6485183-1.794709 3.277146-4.053684 7.211596-7.077315 1.465266-1.22352 3.030762-1.913435 4.613629-2.638052 1.782122-.684766 2.095397-1.390551 3.628194-2.9355138-.631007.5258404-2.260026 1.8913368-3.816324 2.6037918z" fill="#6d97c4" stroke="#2b3b4d" stroke-linejoin="round" stroke-width=".555148"/></g></svg>