<?xml version="1.0" encoding="UTF-8" standalone="no"?>
<svg
   height="24"
   width="24"
   version="1.1"
   id="svg4440"
   sodipodi:docname="mIconExpressionPreview.svg"
   inkscape:version="1.1.1 (3bf5ae0d25, 2021-09-20)"
   xmlns:inkscape="http://www.inkscape.org/namespaces/inkscape"
   xmlns:sodipodi="http://sodipodi.sourceforge.net/DTD/sodipodi-0.dtd"
   xmlns="http://www.w3.org/2000/svg"
   xmlns:svg="http://www.w3.org/2000/svg">
  <defs
     id="defs4444" />
  <sodipodi:namedview
     id="namedview4442"
     pagecolor="#ffffff"
     bordercolor="#666666"
     borderopacity="1.0"
     inkscape:pageshadow="2"
     inkscape:pageopacity="0.0"
     inkscape:pagecheckerboard="0"
     showgrid="false"
     inkscape:zoom="34.166667"
     inkscape:cx="4.8585366"
     inkscape:cy="11.970732"
     inkscape:window-width="1920"
     inkscape:window-height="996"
     inkscape:window-x="0"
     inkscape:window-y="0"
     inkscape:window-maximized="1"
     inkscape:current-layer="svg4440" />
  <path
     d="M 6.5,8.5 C 4.57617,7.816414 3.614256,6.781259 3.614258,5.394531 3.614256,4.300792 4.122068,3.42677 5.137696,2.772461 6.163082,2.118177 7.432612,1.791029 8.946289,1.791016 c 1.376945,1.3e-5 2.470694,0.229505 3.281251,0.688476 0.810535,0.449232 1.215808,0.991223 1.21582,1.625977 -1.2e-5,0.332042 -0.126965,0.625011 -0.38086,0.878906 -0.253917,0.244151 -0.546885,0.366221 -0.878906,0.366211 -0.546885,1e-5 -0.996103,-0.380849 -1.347656,-1.142578 C 10.347648,3.153333 9.615227,2.625989 8.638672,2.625977 7.867182,2.625989 7.232417,2.879895 6.734375,3.387695 6.236324,3.895519 5.987301,4.603527 5.987305,5.511719 c -4e-6,1.787117 0.922847,2.680671 2.768555,2.680664 0.195305,7e-6 0.419914,-0.01952 0.6738279,-0.05859 0.4394451,-0.05859 0.7812421,-0.08788 1.0253901,-0.08789 0.595694,8e-6 0.893546,0.170906 0.893555,0.512696 -9e-6,0.380866 -0.302743,0.571295 -0.908203,0.571289 -0.214852,6e-6 -0.5371173,-0.03417 -0.9667968,-0.102539 C 9.15136,8.968759 8.902337,8.939469 8.726563,8.939459 c -1.95313,7e-6 -2.929692,0.996099 -2.929688,2.988281 -4e-6,0.9668 0.258785,1.748049 0.776368,2.34375 0.517572,0.585939 1.240228,0.878907 2.167968,0.878907 1.1621017,0 1.933585,-0.600585 2.314453,-1.801758 0.195304,-0.634763 0.410147,-1.074216 0.644532,-1.31836 0.24413,-0.244136 0.566396,-0.366207 0.966797,-0.366211 0.33202,4e-6 0.629871,0.122075 0.893554,0.366211 0.273426,0.234379 0.410144,0.537113 0.410156,0.908204 -1.2e-5,0.888673 -0.498058,1.625977 -1.49414,2.211914 -0.996104,0.576171 -2.202157,0.864257 -3.618164,0.864257 -1.55274,0 -2.934575,-0.371093 -4.145508,-1.113281 C 3.511718,14.159187 2.911132,13.167977 2.911133,11.92774 2.911132,10.375011 4.10742,9.232434 6.5,8.500006"
     fill="#5c3566"
     id="path4414"
     style="fill:#6e97c4;fill-opacity:1" />
  <g
     enable-background="new"
     transform="matrix(.51268116 0 0 .51268116 11.873188 11.797101)"
     id="g4438">
    <g
       stroke="#505050"
       id="g4432">
      <path
         d="m7.5000001 14.5c0 2 2 2 2 2s-7 7-7 7l-2.00000001-2z"
         fill="#ffcc30"
         fill-rule="evenodd"
         stroke-linejoin="round"
         id="path4426" />
      <path
         d="m17.96122 7c0 3.354712-2.668929 6.074244-5.96122 6.074244s-5.9612203-2.719532-5.9612203-6.074244c0-3.3547121 2.6689293-6.07424355 5.9612203-6.07424355s5.96122 2.71953145 5.96122 6.07424355z"
         style="opacity:.8;fill:#e6e6e6;stroke-width:.752183;stroke-linecap:round;stroke-linejoin:round;stroke-dashoffset:7"
         transform="matrix(1.3420071 0 0 1.3170365 -1.604085 .279109)"
         id="path4428" />
      <path
         d="m6.0000001 16 2-2 1.9999999 2-1.9999999 2z"
         fill-rule="evenodd"
         stroke-linejoin="round"
         id="path4430" />
    </g>
    <path
       d="m10 5c2-3 4.442248-3.398055 6-2s-2 1-4 3 0 6-2 6c-1.9999999 0-1.9999999-4 0-7z"
       fill="#fcffff"
       fill-rule="evenodd"
       opacity=".7"
       id="path4434" />
    <path
       d="m2.0000001 21 4-4"
       opacity=".5"
       stroke="#fcffff"
       stroke-linecap="round"
       stroke-linejoin="round"
       id="path4436" />
  </g>
</svg>
