<svg height="24" width="24" xmlns="http://www.w3.org/2000/svg" xmlns:xlink="http://www.w3.org/1999/xlink"><clipPath id="a"><path d="m-126-6h48v22h-48z" transform="matrix(.955 0 0 .893 -4.64 -1.37)"/></clipPath><filter id="b" color-interpolation-filters="sRGB" height="1.69" width="1.13" x="-.0655" y="-.344"><feGaussianBlur stdDeviation="1.1456439"/></filter><linearGradient id="c" gradientTransform="matrix(.89 0 0 1.36 1.07 1.22)" gradientUnits="userSpaceOnUse" x1=".5" x2="15.5" xlink:href="#d" y1="12" y2="12"/><linearGradient id="d"><stop offset="0" stop-color="#e7e7e7"/><stop offset="1" stop-color="#c0c0c0"/></linearGradient><linearGradient id="e" gradientTransform="matrix(.325 0 0 .528 41.4 4.58)" gradientUnits="userSpaceOnUse" x1="-122" x2="-81.5" xlink:href="#f" y1="27" y2="27"/><linearGradient id="f"><stop offset="0" stop-color="#dcdcdc"/><stop offset="1" stop-color="#545454"/></linearGradient><linearGradient id="g" gradientTransform="matrix(.325 0 0 .528 41.4 5.11)" gradientUnits="userSpaceOnUse" x1="-122" x2="-82" xlink:href="#h" y1="23.5" y2="23.5"/><linearGradient id="h"><stop offset="0" stop-color="#fff" stop-opacity=".6"/><stop offset="1" stop-color="#fff" stop-opacity=".208"/></linearGradient><linearGradient id="i" gradientTransform="matrix(.325 0 0 .528 41.4 .884)" gradientUnits="userSpaceOnUse" x1="-121" x2="-102" xlink:href="#j" y1="30" y2="30"/><linearGradient id="j"><stop offset="0" stop-opacity=".8"/><stop offset="1" stop-opacity=".154"/></linearGradient><linearGradient id="k" gradientTransform="matrix(.89 0 0 1.36 1.07 -4.59)" gradientUnits="userSpaceOnUse" x1=".5" x2="15.5" xlink:href="#d" y1="12" y2="12"/><linearGradient id="l" gradientTransform="matrix(.325 0 0 .528 41.4 -1.23)" gradientUnits="userSpaceOnUse" x1="-122" x2="-81.5" xlink:href="#f" y1="27" y2="27"/><linearGradient id="m" gradientTransform="matrix(.325 0 0 .528 41.4 -.701)" gradientUnits="userSpaceOnUse" x1="-122" x2="-82" xlink:href="#h" y1="23.5" y2="23.5"/><linearGradient id="n" gradientTransform="matrix(.325 0 0 .528 41.4 -4.93)" gradientUnits="userSpaceOnUse" x1="-121" x2="-102" xlink:href="#j" y1="30" y2="30"/><g fill-rule="evenodd" stroke="#727272" stroke-linejoin="round"><path d="m7.61 22.6v-21h10l5 5v16z" fill="#fff"/><path d="m17.6 1.59v5h5z" fill="#f0f0f0"/></g><ellipse clip-path="url(#a)" cx="-102" cy="6" fill="#2e3436" fill-opacity=".8" filter="url(#b)" rx="21" ry="4" transform="matrix(.341 0 0 .726 43 16.3)"/><path d="m8.19 12.8c-3.69 0-6.67 1.22-6.67 2.72v4.07c0 1.5 2.99 2.72 6.67 2.72 3.69 0 6.67-1.22 6.67-2.72v-4.07c0-1.5-2.99-2.72-6.67-2.72z" fill="url(#c)"/><path d="m1.56 14.9c-.0341.111-.0509.232-.0509.347v4.32c0 1.5 2.99 2.72 6.67 2.72 3.69 0 6.67-1.22 6.67-2.72v-4.32c0-.115-.0168-.235-.0509-.347-.41 1.34-3.22 2.38-6.62 2.38s-6.21-1.04-6.62-2.38z" fill="url(#e)"/><path d="m8.19 13c-1.83 0-3.48.309-4.67.792-.593.242-1.08.506-1.39.809-.314.302-.448.613-.448.858v4.06c0 .245.133.556.448.858.314.303.8.567 1.39.809 1.19.483 2.84.792 4.67.792s3.48-.309 4.67-.792c.593-.242 1.08-.506 1.39-.809.314-.303.448-.613.448-.858v-4.06c0-.245-.133-.556-.448-.858-.314-.303-.8-.567-1.39-.809-1.19-.483-2.84-.792-4.67-.792zm0 .528c1.8 0 3.43.257 4.58.726.572.234 1.01.5 1.28.759.267.259.325.444.325.429v4.09c0-.0144-.0583.17-.325.429-.267.259-.71.525-1.28.759-1.14.469-2.77.726-4.58.726-1.8 0-3.43-.257-4.58-.726-.572-.234-1.01-.5-1.28-.759-.267-.259-.325-.444-.325-.429v-4.09c0 .0144.0583-.17.325-.429.267-.259.71-.525 1.28-.759 1.14-.469 2.77-.726 4.58-.726z" fill="url(#g)"/><path d="m8.19 12.8c-3.69 0-6.67 1.22-6.67 2.72v4.07c0 1.5 2.99 2.72 6.67 2.72 3.69 0 6.67-1.22 6.67-2.72v-4.07c0-1.5-2.99-2.72-6.67-2.72z" fill="none" stroke="#3f3f3f" stroke-width=".415"/><path d="m2 15.6v.528c.993.993 3.39 1.7 6.18 1.7 2.8 0 5.19-.707 6.18-1.7v-.528c-.993.993-3.39 1.7-6.18 1.7-2.8 0-5.19-.707-6.18-1.7z" fill="url(#i)"/><path d="m8.19 6.96c-3.69 0-6.67 1.22-6.67 2.72v4.07c0 1.5 2.99 2.72 6.67 2.72 3.69 0 6.67-1.22 6.67-2.72v-4.07c0-1.5-2.99-2.72-6.67-2.72z" fill="url(#k)"/><path d="m1.56 9.07c-.0341.111-.0509.232-.0509.347v4.32c0 1.5 2.99 2.72 6.67 2.72 3.69 0 6.67-1.22 6.67-2.72v-4.32c0-.115-.0168-.235-.0509-.347-.41 1.34-3.22 2.38-6.62 2.38s-6.21-1.04-6.62-2.38z" fill="url(#l)"/><path d="m8.19 7.22c-1.83 0-3.48.309-4.67.792-.593.242-1.08.506-1.39.809-.314.303-.448.613-.448.858v4.06c0 .245.133.556.448.858.314.303.8.567 1.39.809 1.19.483 2.84.792 4.67.792s3.48-.309 4.67-.792c.593-.242 1.08-.506 1.39-.809.314-.303.448-.613.448-.858v-4.06c0-.245-.133-.556-.448-.858-.314-.303-.8-.567-1.39-.809-1.19-.483-2.84-.792-4.67-.792zm0 .528c1.8 0 3.43.257 4.58.726.572.234 1.01.5 1.28.759.267.259.325.444.325.429v4.09c0-.0144-.0583.17-.325.429-.267.259-.71.525-1.28.759-1.14.469-2.77.726-4.58.726-1.8 0-3.43-.257-4.58-.726-.572-.234-1.01-.5-1.28-.759-.267-.259-.325-.444-.325-.429v-4.09c0 .0144.0583-.17.325-.429.267-.259.71-.525 1.28-.759 1.14-.469 2.77-.726 4.58-.726z" fill="url(#m)"/><path d="m8.19 6.96c-3.69 0-6.67 1.22-6.67 2.72v4.07c0 1.5 2.99 2.72 6.67 2.72 3.69 0 6.67-1.22 6.67-2.72v-4.07c0-1.5-2.99-2.72-6.67-2.72z" fill="none" stroke="#3f3f3f" stroke-width=".415"/><path d="m2 9.75v.528c.993.993 3.39 1.7 6.18 1.7 2.8 0 5.19-.707 6.18-1.7v-.528c-.993.993-3.39 1.7-6.18 1.7-2.8 0-5.19-.707-6.18-1.7z" fill="url(#n)"/></svg>