<svg xmlns="http://www.w3.org/2000/svg" width="16" height="16"><rect width="13.481" height="13.507" x="1.211" y="1.167" fill="#aec7e2" ry="3.178" style="stroke-width:.682443;stroke:none"/><path fill="#2e4e72" d="M5.38 3.206c-.127.014-.2.143-.323.15l-.209.04c-.098.09.013.19.102.183-.001.071.138.057.182-.01.022.071.065-.136.149-.093.128-.033.267-.111.387-.116.016.147-.142.119-.238.123-.004.113.209.04.234.182.08.103.122.277.085.408-.046.073-.194-.025-.124.128.02.14.036.308.15.39.116.07.136-.219.207-.292.104-.047.203-.09.263-.184.122-.073.292-.038.386-.152.023-.103-.024-.32.131-.273.139-.034.057-.265.212-.302.058-.022-.03-.126-.081-.101-.09-.065-.216.045-.325.003-.127-.002-.255.013-.38-.02-.073-.078-.176.03-.268.003-.083 0-.168.01-.248-.026-.1.014-.195-.045-.292-.04Zm5.152.403c-.123.018-.243-.023-.313.12-.093.068-.307-.003-.333.137.05.066.024.305-.056.163-.025-.064-.097-.267-.056-.084.032.08.106.294-.036.222-.013-.116-.004-.296-.124-.335-.153-.052-.038.217.031.244-.071.148-.24.034-.304-.057-.081.079-.164.145-.266.077-.105.061-.235.111-.313.228-.048.093-.121.123-.164.01-.084-.056-.087-.148.025-.143.075.129.193-.086.053-.093a1.1 1.1 0 0 0-.363-.124c-.136-.045-.257.016-.343.141-.079.114-.226.195-.237.354-.097.042-.146.046-.128.193-.002.083.02.107.046.015.097.043.186.13.209.247.11.071.16-.141.198-.227-.05-.11-.03-.301.094-.356.163-.086.012.149.026.22.017.14.27-.054.187.131-.047.092-.165-.087-.112.07.032.093-.027.13-.087.095.018.126-.06.202-.16.169-.077.14-.15-.083-.243.028-.046-.008-.046-.086-.09.012-.02.082-.155.03-.137.163-.095.021-.126.202-.249.174-.11-.013-.026.07.016.103-.063.001-.152.006-.058.08.081.073.083.257-.035.278-.104-.12-.265-.066-.221.123-.01.125-.049.34.12.314.092.086.254-.088.235-.213.02-.097.119-.105.136-.207.026-.133.197.054.165-.113.011-.055.121.008.116.083.078.079.232.158.224.29-.005.091-.17.06-.055.123.065-.047.089-.157.107-.213.098.064-.044-.15-.095-.157-.064-.03-.194-.315-.043-.202.073.095.174.165.225.256a.67.67 0 0 0 .132.337c.055.022.023-.102.071-.108-.072-.06-.07-.205.027-.135.158-.166.022.17.124.222.088.117.236.037.35.065.05.119-.013.276-.067.384-.116.046-.26.01-.375-.016-.075.014-.163-.111-.187-.11.02.155-.1.262-.196.12-.07-.095-.175-.036-.215-.157-.123-.029.074-.3-.058-.264-.093.061-.205.032-.324.082-.08.083-.194.01-.283.071-.033-.111-.056.021-.088.062-.023.052-.075.073-.105.115-.038.12-.027.244-.135.324-.08.12-.155.25-.182.401-.066.116.01.248-.016.371-.025.145-.072.313 0 .44.109.1.108.283.202.397.06.1.175.195.276.121.065-.053.163-.022.237-.087.074-.043.183-.053.234.036.017.125.112.026.153.113.077.113.033.266.008.39q.119.186.166.412c.036.137.043.281.039.424-.027.113-.095.213-.08.337.01.133.1.252.109.393.06.141.007.316.075.451.1.121.074.295.129.437.06.07.116-.035.19-.01a.53.53 0 0 0 .246-.245.9.9 0 0 0 .178-.368c.064-.099.143-.165.091-.295-.032-.11.062-.276.139-.364.137-.088.115-.286.106-.44-.01-.172-.11-.357-.023-.519.071-.135.146-.267.207-.409.117-.13.167-.312.25-.469.012-.08.101-.353-.028-.232-.096-.016-.215.033-.296.01-.017-.195-.114-.358-.211-.51-.055-.139-.096-.285-.139-.432-.019-.136-.117-.348-.122-.416.044.077.137.017.15.148.108.165.111.389.225.55.102.139.07.352.167.478.065.036.138-.032.186-.08.108-.087.236-.144.309-.28.023-.118.186-.232.128-.345-.1-.036-.108-.233-.15-.268-.04.099-.166.26-.24.119-.046-.137-.11-.305-.087-.454.047.1.131.217.232.247.12-.03.148.091.238.14.094.03.19 0 .286.021.115.07.17.226.26.326.06-.019.096-.103.109.006-.006.17.028.334.09.493.038.14.06.285.107.422.134-.003.145-.202.127-.324-.022-.152.024-.354.144-.434.09-.059.124-.271.231-.26.156-.01.162.198.235.305.108.016.022.316.14.16.072.077.08.236.071.35-.017.086.047.322.048.11-.005-.064-.016-.296.062-.244.054.105.11.272.207.306.09-.099.217-.261.129-.41-.024-.155-.176-.25-.183-.392.03-.099.108-.256.18-.1.019.07-.011.323.055.137.048-.113.06-.263.187-.291.13-.052.174-.24.187-.383-.013-.156-.079-.267-.158-.388-.088-.092.011-.187.01-.277-.088.05-.296.033-.166-.12.014-.074.136-.265.133-.084.013.14.066.044.114.021.068.083.019.176.138.21.011.074.022.28.121.155.125-.144-.057-.236-.127-.338-.013-.102.04-.211.07-.29.124.052.152-.13.153-.221.004-.146.032-.287-.07-.396-.026-.183-.209-.07-.29-.136-.072-.006-.054-.252.014-.306.06-.167.199-.06.309-.054.083.082.135-.004.118-.11.018-.091.075-.125.122-.037.053-.068.122-.11.13.022.018.126-.106.269.015.387.087.065.09.225.191.3.056.012.005-.19.038-.259 0-.11-.046-.213-.134-.24-.044-.103.1-.197.145-.195-.008.055-.024.162.033.06.063-.085.06-.163.15-.129.04-.078-.112-.115-.158-.18-.033-.035.076-.034.069-.095.067-.014.247.133.253.059-.071-.18-.252-.106-.373-.162-.111-.064-.242-.069-.362-.11-.095-.063-.07.157-.165.05-.124-.065-.264-.043-.391-.075-.091-.092-.234-.029-.346-.047-.1.033-.214-.135-.27-.109-.04.203-.213.101-.334.096-.118-.01-.206-.146-.332-.082-.116.1-.226-.034-.34-.025-.088.042-.184-.008-.089-.11.086-.134-.17-.042-.213-.108h-.017zm-6.858.123c-.059-.009-.215.15-.086.148.079.017.118.01.093.123.07.144.204-.024.294.06.086-.039.195-.046.153-.188.028-.142-.112.023-.171-.007-.117.048-.149-.187-.282-.136Zm1.05.032c-.084.032-.1.225-.008.202.034-.113.183.002.24.031.052.117.078.287-.067.32-.059.103.143.208.22.193.004-.038-.056-.213.035-.138.116.054-.096-.271.057-.131.036-.015.027-.1.012-.145-.012-.05-.051-.084-.075-.127.07-.137-.146-.096-.19-.197-.081-.036-.183.114-.224-.008m-.294.134c-.135.009-.09.271-.225.29-.092-.095-.239-.087-.348-.061-.044.081-.054.11-.109.038-.064-.015-.131-.04-.138-.1-.126.003-.245-.029-.365-.047-.147-.022-.273.14-.415.086-.05-.085-.068-.208-.187-.164-.144-.009-.283.077-.426.054-.086.074-.252.036-.295.156.083.11-.037.146-.105.08-.144-.012-.049.22.026.088.094-.004-.058.172-.118.132-.105-.023-.18.118-.163.215.032.055.142.055.071.146a1.2 1.2 0 0 0 .307-.182c-.01.14.13-.107.194-.014.084.033.232.008.261.122.105.014.068.208.067.302-.048.137.053.298.006.423-.069.018-.032.144-.085.197-.07.103-.106.231-.17.337-.046.139-.019.325.02.473.101.093.126.218.116.366.024.098.034.199.071.293.044.06.054.21.042.051-.005-.16-.076-.306-.08-.461.091-.098.08.207.125.27.027.13.106.223.133.355.07.116-.02.28.12.343.083.1.21.21.328.157.092 0 .135.193.248.168.098.015.132.173.145.277.031.085.106.084.154.141.072.074.05-.016.002-.059-.116-.097-.077-.281-.067-.422.054-.166-.17-.1-.192-.124 0-.123.157-.323.033-.397-.128-.002-.086.32-.268.23-.126-.05-.155-.228-.11-.357.04-.16.033-.351.177-.436.067-.037.17-.126.197-.006.103.057.095-.19.202-.097.106.029.14.14.131.257.003.072.05.199.086.064.05-.137-.07-.316.027-.435.084-.098.18-.182.266-.276.03-.142.142-.235.195-.359.055-.081.162-.01.15-.15.067-.117.182-.177.287-.226-.093.018-.105.301-.003.128.029-.116.223-.05.191-.195-.074.093-.276.009-.114-.087.032-.114-.28.06-.166-.09.122-.093.273-.075.41-.083.073-.057.234-.213.105-.293-.026.095-.077-.116-.092-.15.017-.08.038-.299-.073-.172-.08.116-.156.054-.135-.074-.039-.132-.22-.164-.256-.006-.042.064-.095-.003-.083.12-.005.114.047.252-.094.262-.133.006-.037.311-.192.216-.104-.066.081-.243-.036-.237-.105-.02-.236-.067-.255-.204-.013-.162.142-.258.247-.323.09-.049.202-.068.175-.218.054.014.052.129.096.026.058-.069.31-.116.207-.233-.048.036-.233.206-.184.028-.098.004-.009-.147-.068-.154zm-.388 4.22c-.048.12-.15.181-.212.31.009.123.06.21-.002.324-.057.116-.092.246-.157.357-.004.091.073.175-.014.243-.025.12.093.197.112.311.067.143.065.33.18.44.072.109.169.213.258.275.086.144-.004.34.032.51-.002.172.012.342.02.513l.028.59a.84.84 0 0 1 .12.365c-.061.088-.015.176.02.264.036.102.077.212.166.262.075.064.126.013.076-.074.007-.1.12-.352-.032-.34.007-.118.115-.247.006-.347-.027-.157.121.06.107-.106-.036-.133.028-.129.096-.107.068-.081.144-.214.011-.275-.057-.077-.013-.12.043-.045.13.072.138-.16.213-.238-.008-.106.07-.244.086-.366-.082-.176.118-.189.21-.244.102-.054.103-.229.127-.341.018-.174.022-.35.06-.52.021-.13.137-.217.131-.365-.005-.118-.13-.146-.186-.226-.076-.065-.18-.072-.253-.068-.034-.088-.14-.146-.171-.122.023-.122-.244.082-.112-.067.079-.128-.009-.302-.106-.383-.122.04-.16-.165-.253-.226-.09-.015-.155-.124-.17-.178a.28.28 0 0 1-.302-.102c-.005.07-.084.324-.074.126a.5.5 0 0 0-.058-.151zm8.441.437c-.032.162-.209.14-.206.315-.036.043-.016.133-.095.07-.034.107 0 .371.14.326.085.04.163.008.158-.106.058-.098.11-.2.052-.32.026-.102.073-.234-.049-.284zm-.908.092c.015.116.114.248.149.378.07.14.114.297.192.431.108.114.117-.151.057-.22-.067-.108-.088-.26-.176-.348-.124-.011-.106-.228-.222-.241m1.652.434c-.087.001-.086.046-.024.098.066.043-.055.127.056.146.117.025.255.127.197.286.08.009.198.17.262.013.102.015.14.239.27.218.08-.028-.097-.151-.121-.212-.058-.042.033-.108-.04-.14-.026-.16-.187-.175-.285-.253-.066-.056-.141-.085-.157.04-.13.15-.101-.162-.157-.195Zm.385.815c-.026.125-.04.288-.104.41-.092.076-.162-.07-.21-.144-.005-.104.09-.255-.069-.224-.102-.025-.179.125-.21.206.011.113-.109-.003-.104-.062-.088-.01-.138.16-.164.243-.077-.132-.05.139-.142.158-.108.083-.235.107-.326.217-.036.143-.03.306-.05.456.004.119.04.295-.013.384-.024.148.18.01.25-.003a1 1 0 0 0 .266-.129c.086-.021.218-.091.266.037.05.052.01.193.103.09.038-.023.112-.12.07-.002-.043.104.035.188.01.298.036.109.197.016.188.104a.7.7 0 0 0 .313-.316 1 1 0 0 0 .206-.377c.025-.132.068-.274.026-.407.006-.114-.145-.139-.124-.283-.004-.1-.133-.105-.072-.219-.004-.155-.07-.292-.11-.436zm-4.15.079c-.014.087-.05.166-.122.202-.081.056-.14.09-.099.214.023.164-.098.255-.063.416.015.065.039.164.111.105.119-.06.04-.26.12-.37a1.7 1.7 0 0 0 .078-.41c.003-.054-.017-.105-.026-.158z" style="stroke:none;fill:#5d89bc;fill-opacity:1"/><path fill="none" stroke-width=".409" d="M1.533 5.191h12.954m-4.256-3.757v13.03M5.734 1.286v13.11m-4.28-3.694h13.012" style="stroke:#fff"/><rect width="13.027" height="13.027" x="1.487" y="1.487" fill="none" stroke="#385f8b" stroke-linejoin="round" ry="3.065" style="stroke:#425a75;stroke-width:.973166;stroke-dasharray:none;stroke-opacity:1"/></svg>