<svg xmlns="http://www.w3.org/2000/svg" width="16" height="16"><path fill="#fce94f" stroke="#c4a000" stroke-linecap="round" d="M1.5 1.5h9v9h-9z" style="stroke-width:1"/><path d="M11.014 2.994c-1.926-.06-2.833.716-3.473 1.688-.76 1.153-.865 2.42-.908 3.802l-.018.89c-.063.191-.12.635-.115.84l.019.805c.838-.035 4.527-.106 4.527-.106-.045-2.459.02-7.471-.032-7.92z" style="color:#000;opacity:.968444;fill:#f9f9f9;stroke-linecap:square;stroke-linejoin:round;-inkscape-stroke:none"/><path fill="none" stroke="#888a85" stroke-linejoin="round" stroke-width="3" d="M8.632 8.547c.079-2.528.627-3.672 2.525-3.518 1.897.154 2.323 1.376 2.244 3.904" style="stroke-linecap:square"/><path fill="none" stroke="#eeeeec" stroke-linejoin="round" d="M8.623 8.547C8.7 6.019 9.25 4.846 11.147 5c1.897.154 2.324 1.405 2.245 3.933" style="stroke-width:1;stroke-linecap:square"/><rect width="7" height="5" x="7.5" y="9.5" fill="#f1db1e" stroke="#c4a000" rx=".538" ry=".714" style="stroke-width:1;stroke-linecap:square"/></svg>