<svg enable-background="new 0 0 32 32" height="32" viewBox="0 0 32 32" width="32" xmlns="http://www.w3.org/2000/svg">
<rect x="0" y="0" width="32" height="32" style="fill:#fff;fill-opacity:0;"/>
<path d="M16,1.778c-7.436,0 -13.463,6.028 -13.463,13.463c0,7.435 6.027,13.463 13.463,13.463c7.434,0 13.463,-6.028 13.463,-13.463c0,-7.435 -6.029,-13.463 -13.463,-13.463Zm6.965,17.89c0.701,0.701 0.701,1.837 0,2.538c-0.351,0.351 -0.81,0.526 -1.269,0.526c-0.46,0 -0.918,-0.175 -1.269,-0.526l-4.427,-4.427l-4.426,4.427c-0.35,0.351 -0.809,0.526 -1.269,0.526c-0.46,0 -0.919,-0.176 -1.269,-0.526c-0.701,-0.701 -0.701,-1.837 0,-2.538l4.426,-4.427l-4.426,-4.426c-0.701,-0.701 -0.701,-1.837 0,-2.538c0.7,-0.701 1.838,-0.701 2.538,0l4.426,4.426l4.427,-4.426c0.701,-0.701 1.837,-0.701 2.538,0c0.701,0.701 0.701,1.837 0,2.538l-4.427,4.426l4.427,4.427Z" opacity=".65"/>
<path d="M18.538,15.24l4.427,-4.425c0.701,-0.701 0.701,-1.838 0,-2.539c-0.701,-0.701 -1.837,-0.701 -2.538,0l-4.427,4.426l-4.426,-4.426c-0.7,-0.701 -1.838,-0.701 -2.538,0c-0.701,0.701 -0.701,1.838 0,2.539l4.426,4.425l-4.426,4.427c-0.701,0.701 -0.701,1.838 0,2.539c0.35,0.35 0.809,0.526 1.269,0.526c0.46,0 0.919,-0.176 1.269,-0.526l4.426,-4.427l4.427,4.427c0.351,0.35 0.809,0.526 1.269,0.526c0.459,0 0.918,-0.176 1.269,-0.526c0.701,-0.701 0.701,-1.838 0,-2.539l-4.427,-4.427Z" fill="#A0A0A0" opacity=".9"/>
</svg>
