<?xml version="1.0" encoding="UTF-8"?>
<svg width="16" height="16" xmlns="http://www.w3.org/2000/svg">
 <linearGradient id="a" x1="11.5" x2="10.5" y1="22.5" y2="21.5" gradientUnits="userSpaceOnUse">
  <stop stop-color="#888a85" offset="0"/>
  <stop stop-color="#b3b4b1" offset="1"/>
 </linearGradient>
 <linearGradient id="b" x1="9.5" x2="8.5" y1="25.5" y2="24.5" gradientUnits="userSpaceOnUse">
  <stop stop-color="#babdb6" offset="0"/>
  <stop stop-color="#babdb6" stop-opacity="0" offset="1"/>
 </linearGradient>
 <g transform="translate(0 -16)" stroke-linecap="round" stroke-linejoin="round">
  <path transform="translate(0 16)" d="m6.5 11.5s-2 3-6 4c2.7777 0.04718 8 0 8-3l-2-1z" fill="#555753" fill-rule="evenodd" overflow="visible" stroke="#555753"/>
  <path d="m9 23 3 2-3 3s-1.4312-0.17833-2-1c-0.56885-0.82167 2.0632-3.9368 2-4z" fill="url(#b)" fill-rule="evenodd" overflow="visible" stroke="#888a85" stroke-width=".75"/>
  <path d="m9 23s5.6151-6.184 6.5-6.5-2.9312 8.0576-3.5 8.5-2.4526-1.0937-3-2z" fill="url(#a)" overflow="visible" stroke="#888a85" stroke-width=".75"/>
  <g transform="matrix(-1 0 0 1 16 0)" fill="none" stroke="#c00" stroke-width="2">
   <path transform="translate(0 16)" d="m14.5 8c0 3.5899-2.9101 6.5-6.5 6.5-3.5899 0-6.5-2.9101-6.5-6.5 0-3.5899 2.9101-6.5 6.5-6.5 3.5899 0 6.5 2.9101 6.5 6.5z" opacity=".8" overflow="visible"/>
   <path transform="translate(0 16)" d="m4.5 11.5 7-7" opacity=".8" overflow="visible"/>
  </g>
 </g>
</svg>
