<svg height="19.2pt" width="19.2pt" xmlns="http://www.w3.org/2000/svg">
<g fill="none" transform="translate(3.40276 .767879)">
<rect fill="#6e97c4" height="4.90238315pt" transform="translate(6.23337 1.0389)" width="4.98669926pt"/>
<rect fill="#2b3b4d" height="4.90238315pt" transform="translate(12.4668 1.0389)" width="4.98669926pt"/>
<rect fill="#2b3b4d" height="4.90238315pt" transform="translate(6.23337 7.16688)" width="4.98669926pt"/>
<rect fill="#6d97c4" height="4.90238315pt" transform="translate(12.4668 7.16688)" width="4.98669926pt"/>
<rect fill="#2d3e4d" height="4.90238315pt" transform="translate(0 1.0389)" width="4.98669926pt"/>
<rect fill="#6d97c4" height="4.90238315pt" transform="translate(0 7.16688)" width="4.98669926pt"/>
<rect fill="#6d97c4" height="4.90238315pt" transform="translate(6.23337 13.2949)" width="4.98669926pt"/>
<rect fill="#2b3b4d" height="4.90238315pt" transform="translate(0 13.2949)" width="4.98669926pt"/>
<rect fill="#2b3b4d" height="4.90238315pt" transform="translate(12.4628 13.291)" width="4.98669926pt"/>
<rect fill="none" height="14.70715007pt" stroke="#fff" stroke-linejoin="round" stroke-width="1.2624825" transform="translate(0 1.0389)" width="14.9600984pt"/>
</g>
<g fill="none" transform="translate(1.11531 2.38005)">
<rect fill="#6e97c4" height="4.61731433pt" transform="translate(6.29247 2.73915)" width="4.52898297pt"/>
<rect fill="#2b3b4d" height="4.61731433pt" transform="translate(11.9537 2.73915)" width="4.52898297pt"/>
<rect fill="#2b3b4d" height="4.61731433pt" transform="translate(6.29247 8.51079)" width="4.52898297pt"/>
<rect fill="#6d97c4" height="4.61731433pt" transform="translate(11.9537 8.51079)" width="4.52898297pt"/>
<rect fill="#2d3e4d" height="4.61731433pt" transform="translate(.631241 2.73915)" width="4.52898297pt"/>
<rect fill="#6d97c4" height="4.61731433pt" transform="translate(.631241 8.51079)" width="4.52898297pt"/>
<rect fill="#6d97c4" height="4.61731433pt" transform="translate(6.29247 14.2824)" width="4.52898297pt"/>
<rect fill="#2b3b4d" height="4.61731433pt" transform="translate(.631241 14.2824)" width="4.52898297pt"/>
<rect fill="#2b3b4d" height="4.61731433pt" transform="translate(11.9501 14.2788)" width="4.52898297pt"/>
<rect fill="none" height="13.85194357pt" stroke="#fff" stroke-miterlimit="0" stroke-width="1.2624825" transform="translate(.631241 2.73915)" width="13.58694948pt"/>
</g>
<path d="m0 0c3.7918.0171509 5.56841.0171509 5.32981 0 .04039 10.3588.04039 15.5383 0 15.5383-.04038 0-1.77661-.0007-5.208678-.0021v-6.93231" fill="none" stroke="#ff7f50" stroke-linecap="round" stroke-linejoin="round" stroke-width="2.53807526" transform="translate(9.15433 1.50565)"/>
</svg>
