<svg height="24" viewBox="0 0 24 24" width="24" xmlns="http://www.w3.org/2000/svg" xmlns:xlink="http://www.w3.org/1999/xlink">
<linearGradient id="a" gradientTransform="matrix(-.12774471 1.039264 1.0351741 .12696498 -286.21685 632.75028)" gradientUnits="userSpaceOnUse" x1="304.76001" x2="335.29999" y1="64.294998" y2="81.926003">
<stop offset="0" stop-color="#d3d7cf"/>
<stop offset=".18304" stop-color="#babdb6"/>
<stop offset=".31893" stop-color="#fff"/>
<stop offset=".87644" stop-color="#babdb6"/>
<stop offset="1" stop-color="#eeeeec"/>
</linearGradient>
<linearGradient id="b" gradientTransform="matrix(-.40399218 .31574974 .41105315 .52801907 -275.32404 950.96246)" gradientUnits="userSpaceOnUse" x1="-6.3077998" x2="-9.7747002" y1="44.229" y2="44.139999">
<stop offset="0"/>
<stop offset="1" stop-opacity="0"/>
</linearGradient>
<linearGradient id="c" gradientTransform="matrix(-.79918637 .62387949 .34856891 .44760288 -192.03035 895.92679)" gradientUnits="userSpaceOnUse" x1="97.442001" x2="90.221001" y1="35.152" y2="35.078999">
<stop offset="0" stop-color="#f8e27e"/>
<stop offset="1" stop-color="#e3d189"/>
</linearGradient>
<g transform="translate(0 -8)">
<path d="m2.5 13.5l6.5 12.5 6-10h6" fill="none" stroke="#8cbe8c" stroke-linecap="round" stroke-linejoin="round" stroke-width="2"/>
<path d="m1.5 12.5h3v3h-3z" fill="#bebebe" stroke="#8c8c8c" stroke-width=".99999994"/>
<path d="m7.5 24.5h3v3h-3z" fill="#bebebe" stroke="#8c8c8c" stroke-width=".99999994"/>
<path d="m13.5 14.5h3v3h-3z" fill="#bebebe" stroke="#8c8c8c" stroke-width=".99999994"/>
<path d="m19.5 14.5h3v3h-3z" fill="#bebebe" stroke="#8c8c8c" stroke-width=".99999994"/>
<g transform="matrix(.65380538 0 0 .65451819 .97231409 -658.67221)">
<path d="m10.457382 1032.309c-.0557-.8562.634116-.2492.875491 0 1.024776.7434 2.030407 1.5156 3.067343 2.2407.725037.2552 1.421475-.3125 1.904389-.793.69153-.772 1.365424-1.7692 1.239142-2.855-.0999-.5511-.678194-.7556-1.060023-1.087-.948649-.7006-1.905189-1.3938-2.848652-2.099.0499-.5363.921102-.4312 1.352206-.4538 1.799481.032 3.760889.6193 4.847708 2.1483.893786 1.2432 1.095967 2.9098.645088 4.3593.248756 1.355.749129 2.6839 1.605411 3.7751-1.055028.7755-2.110005 1.5509-3.165032 2.3264-.74403-.9699-1.666431-1.8128-2.743678-2.3982-1.597268.2334-3.230567-.5195-4.193648-1.7921-.762442-.9748-1.327479-2.1438-1.525916-3.3671z" style="fill-rule:evenodd;stroke:#3b3b3b;stroke-width:1.21514916;stroke-linecap:round;stroke-linejoin:round;stroke-dashoffset:.3612;fill:url(#a)"/>
<path d="m20.569654 1038.9536c-.377958.2957-.449831.8327-.161152 1.2039l5.276506 7.7275c.288677.3713 1.28112.076 1.659095-.2199.377957-.2957.905829-1.1891.617119-1.5603l-6.181727-7.0148c-.288677-.3712-.825389-.432-1.203364-.1363z" fill="url(#b)" opacity=".23106001"/>
<path d="m10.776308 1032.3503c.0041.017.02652.01.02736 0l3.280939 2.4093c.441955.3249 1.026164.2014 1.532663-.063.511499-.2667 1.030216-.7135 1.465827-1.3248.436534-.6127.691989-1.2801.782256-1.8547.09008-.5733-.0071-1.1337-.432392-1.4464l-3.308254-2.4126c-.000327-.012.0053-.029.0034-.028-.02145.016.01356.01.02736 0 1.60773-.1726 3.391001.2382 4.500933 1.0542 1.518297 1.1161 2.06238 3.1241 1.496172 4.9767-.567334 1.8439-2.398541 3.2549-4.002325 3.466-1.037771.1302-2.105965-.1107-2.984774-.7566-1.106711-.8138-2.046256-2.4203-2.389076-4.0275h-.000093z" fill="#f0f3f2" fill-rule="evenodd"/>
<path d="m21.969626 1036.9102l9.581585 11.1009c.570734.7337-.03271 2.1379-1.34119 3.1605-1.308483 1.0226-2.814237 1.2668-3.384954.5331l-8.399386-12.0247 3.546142-2.7701zm6.345662 11.8213c-.650481.5084-.785855 1.4312-.461469 1.8482.324412.4169 1.282238.4855 1.932707-.023.650479-.5084.754739-1.407.430357-1.8239-.324413-.417-1.251126-.5098-1.901595 0z" style="stroke:#3b3b3b;stroke-width:1.02622962;stroke-linecap:round;stroke-linejoin:round;stroke-dashoffset:.69999999;fill:url(#c)"/>
<path d="m-679.10767 874.67072h3.5710487v.5771094h-3.5710487z" fill="#fff" fill-opacity=".57758622" stroke="#3b3b3b" stroke-width="1.52615786" transform="matrix(.82455744 -.56577825 .66205623 .74945417 0 0)"/>
</g>
</g>
</svg>
