<svg height="24" viewBox="4 4 24 24" width="24" xmlns="http://www.w3.org/2000/svg"><path d="m9.5 19.892c0 .836-.284 1.193-.631.792l-3.771-4.351a1.15 1.15 0 0 1 0-1.459l3.771-4.359c.347-.402.631-.045.631.792z" fill="#939598" stroke="#4f5052"/><path d="m9.341 8.199v15.156h12.514v-15.156z" fill="#fff"/><path d="m9.5 8.5v15h12v-15z" fill="#fbf091" stroke="#c4a000" stroke-linecap="round" stroke-linejoin="round"/><g fill="none" stroke="#2c2c2c" stroke-opacity=".706"><path d="m18.5 18v1.605c0 2.474-6 2.525-6-.18v-2.397c-.054-1.277.458-2.528 3-2.528v2c-.645.02-.995.748-1 1.212v.436c0 1.852 2 1.56 2 .185v-.333"/><path d="m13.5 14v-1.605c0-2.474 6-2.525 6 .18v2.397c.054 1.277-.458 2.528-3 2.528v-2c.645-.02.995-.748 1-1.212v-.436c0-1.852-2-1.56-2-.185v.333"/></g></svg>