<svg height="19.2pt" width="19.2pt" xmlns="http://www.w3.org/2000/svg">
<rect fill="#6e97c4" height="6.3999992pt" transform="translate(8 -.0000005)" width="6.3999992pt"/>
<rect fill="#2b3b4d" height="6.3999992pt" transform="translate(16 -.0000005)" width="6.3999992pt"/>
<rect fill="#2b3b4d" height="6.3999992pt" transform="translate(8 8)" width="6.3999992pt"/>
<rect fill="#6d97c4" height="6.3999992pt" transform="translate(16 8)" width="6.3999992pt"/>
<rect fill="#2d3e4d" height="6.3999992pt" transform="translate(-.00000048 -.0000005)" width="6.3999992pt"/>
<rect fill="#6d97c4" height="6.3999992pt" transform="translate(-.00000048 8)" width="6.3999992pt"/>
<rect fill="#6d97c4" height="6.3999992pt" transform="translate(8 16)" width="6.3999992pt"/>
<rect fill="#2b3b4d" height="6.3999992pt" transform="translate(-.00000048 16)" width="6.3999992pt"/>
<rect fill="none" height="19.1999984pt" transform="translate(-.0553638 -.0553638)" width="19.1999984pt"/>
<path d="m9.77492 9.84033c-2.23872-3.63709-7.12176-6.74433-9.77492-8.15773.00446701-.00224.030774-.02525.0352421-.0275 3.1715779-1.1685 9.9674579-2.149377 13.8444579 3.01327 1.0122-1.36623 2.7502-2.99766 4.5944-4.66837-.0937 4.00446-.5082 7.86343 1.2932 14.0797-7.4407-1.205-11.45305 2.4158-14.64231 2.2981.83446-.988 1.85277-3.1084 4.64993-6.53747z" fill-rule="evenodd" stroke="#fff" stroke-linecap="square" stroke-miterlimit="2" stroke-width="1.89106627" transform="matrix(.228843 -.973463 .973463 .228843 2.81876 21.8383)"/>
</svg>
