<?xml version="1.0" encoding="UTF-8" standalone="no"?>
<svg
   enable-background="new 4 4 24 24"
   height="24"
   viewBox="4 4 24 24"
   width="24"
   version="1.1"
   id="svg4330"
   sodipodi:docname="mIconDataDefineExpression.svg"
   inkscape:version="1.1.1 (3bf5ae0d25, 2021-09-20)"
   xmlns:inkscape="http://www.inkscape.org/namespaces/inkscape"
   xmlns:sodipodi="http://sodipodi.sourceforge.net/DTD/sodipodi-0.dtd"
   xmlns="http://www.w3.org/2000/svg"
   xmlns:svg="http://www.w3.org/2000/svg">
  <defs
     id="defs4334" />
  <sodipodi:namedview
     id="namedview4332"
     pagecolor="#ffffff"
     bordercolor="#666666"
     borderopacity="1.0"
     inkscape:pageshadow="2"
     inkscape:pageopacity="0.0"
     inkscape:pagecheckerboard="0"
     showgrid="false"
     inkscape:zoom="34.166667"
     inkscape:cx="12"
     inkscape:cy="12"
     inkscape:window-width="1920"
     inkscape:window-height="996"
     inkscape:window-x="0"
     inkscape:window-y="0"
     inkscape:window-maximized="1"
     inkscape:current-layer="svg4330" />
  <path
     d="m9.5 19.892c0 .836-.284 1.193-.631.792l-3.771-4.351c-.348-.401-.348-1.058 0-1.459l3.771-4.359c.347-.402.631-.045.631.792z"
     fill="#939598"
     stroke="#4f5052"
     id="path4314" />
  <path
     d="m9.341 8.1989997v15.1560003h12.514v-15.1560003z"
     fill="none"
     id="path4316" />
  <path
     d="m9.5001508 8.5001504v9.3739456 2.499125 3.126628h11.9996982v-3.126628-2.499125-9.3739456z"
     style="fill:#fff;fill-opacity:.703196;stroke:#878984;stroke-width:1.000302;stroke-linecap:round;stroke-linejoin:round"
     id="path4318" />
  <path
     d="m13.948 15.357c-1.573-.56-2.361-1.408-2.361-2.542 0-.896.416-1.611 1.246-2.147.839-.535 1.878-.803 3.116-.803 1.125 0 2.016.188 2.68.563.664.369.996.812.996 1.332 0 .271-.104.511-.312.72-.207.2-.447.3-.719.3-.447 0-.816-.312-1.104-.936-.397-.863-.995-1.295-1.792-1.295-.63 0-1.151.208-1.559.623-.408.416-.612.996-.612 1.74 0 1.462.757 2.195 2.268 2.195.159 0 .342-.016.549-.048.359-.047.637-.071.837-.071.485 0 .729.14.729.419 0 .312-.248.467-.742.467-.175 0-.438-.028-.789-.084-.264-.048-.467-.071-.609-.071-1.6 0-2.398.812-2.398 2.44 0 .791.212 1.431.636 1.919.424.479 1.017.72 1.774.72.949 0 1.577-.492 1.888-1.477.16-.519.336-.879.527-1.079.201-.199.465-.3.793-.3.271 0 .514.101.73.3.225.192.336.44.336.744 0 .728-.408 1.331-1.223 1.812-.816.471-1.802.707-2.958.707-1.27 0-2.401-.304-3.391-.911-.983-.608-1.475-1.42-1.475-2.435.002-1.272.981-2.203 2.939-2.802"
     fill="#58595b"
     id="path4320" />
</svg>
