<?xml version="1.0" encoding="UTF-8"?>
<svg width="16" height="16" xmlns="http://www.w3.org/2000/svg">
 <linearGradient id="a" x1="10.517" x2="12.518" y1="1.6146" y2="3.9501" gradientUnits="userSpaceOnUse">
  <stop stop-color="#fff9f9" offset="0"/>
  <stop stop-color="#fff9f9" stop-opacity="0" offset="1"/>
 </linearGradient>
 <linearGradient id="b" x1="6.9687" x2="7.8877" y1="11.151" y2="6.8625" gradientUnits="userSpaceOnUse">
  <stop stop-color="#8ab3df" offset="0"/>
  <stop stop-color="#fff" offset="1"/>
 </linearGradient>
 <linearGradient id="c" x1="4.0111" x2="5.8739" y1="9.133" y2="11.12" gradientUnits="userSpaceOnUse">
  <stop stop-color="#5a5a5a" offset="0"/>
  <stop stop-color="#3b3b3b" offset="1"/>
 </linearGradient>
 <path d="m10.564 6.8984-6.2174 6.3254-2.372 1.5813-0.79067-0.79067 1.5813-2.372 6.2174-6.3254z" fill="url(#b)" fill-rule="evenodd" stroke="url(#c)" stroke-linecap="round" stroke-linejoin="round" stroke-width=".79067"/>
 <path d="m1 1.0254h13.98v13.98h-13.98z" fill="none"/>
 <path d="m3.5559 11.642 5.5347-5.5347" fill="none" stroke="#fff" stroke-linecap="round" stroke-width=".4744"/>
 <path d="m7.5092 4.5264 3.9534 3.9534 0.79067-0.79067-1.186-1.186c2.7674-0.39534 5.0314-3.368 3.45-4.9493-1.5813-1.5813-4.636 0.6006-5.0314 3.368l-1.186-1.186z" fill="#3a3a3a" fill-rule="evenodd" stroke="#474747" stroke-linecap="round" stroke-linejoin="round" stroke-width=".79067"/>
 <path d="m9.8813 4.5264c-0.32132-0.16066 0.12379-1.3976 1.186-2.372 1.4544-1.332 2.6341-0.92604 2.6594-0.6006 0.10801 1.3913-2.264 3.7633-3.8454 2.9726z" fill="url(#a)" fill-rule="evenodd"/>
</svg>
