<?xml version="1.0" encoding="UTF-8"?>
<svg width="24" height="24" xmlns="http://www.w3.org/2000/svg">
 <g transform="matrix(.75001 0 0 .75001 -.00022939 1.4996)">
  <path d="m28.917 6.934-7.3228 0.59729 0.875 3.375 0.1875 3.0625 8.2215 0.03154-0.15898-3.344z" fill="#2f5074"/>
  <path d="m28.917 21.067-7.3228-0.59729 0.875-3.375 0.1875-3.0625 8.2215-0.03154-0.15898 3.344z" fill="#6e97c4"/>
  <path d="m28.917 21.067-7.3228-0.59729-1.7812 3.4688-3.7258 3.3962 5.6569-0.97227 4.4857-2.2318z" fill="#2f5075"/>
  <path d="m16.087 27.334-3.4471-3.0052-2.0329-3.8449 5.5184-0.10857 5.4688 0.09375-1.7812 3.4688-3.7258 3.3962z" fill="#6e97c4"/>
  <path d="m10.607 20.484 10.987-0.01482 0.875-3.375 0.1875-3.0625-13.156-0.0625 0.1875 3.6875 0.9191 2.8273z" fill="#2f5075"/>
  <path d="m16.087 27.334-3.5355-0.35355-4.5078-1.812-3.8891-2.3865-1.37-1.7236 4.9939-0.53033 2.8284-0.04419 2.0329 3.8449z" fill="#2f5075"/>
  <path d="m2.9482 21.067-1.7607-3.6598-0.40336-3.4065 8.7159-0.03095 0.1875 3.6875 0.9191 2.8273-2.8284 0.04419z" fill="#6e97c4"/>
  <path d="m2.9482 6.934-1.7607 3.6598-0.40336 3.4065 8.7159 0.030954 0.1875-3.6875 0.9191-2.8273-2.8284-0.044194z" fill="#2f5074"/>
  <path d="m16.087 0.66633-3.5355 0.35355-4.5078 1.812-3.8891 2.3865-1.37 1.7236 4.9939 0.53033 2.8284 0.044194 2.0329-3.8449z" fill="#6e97c4"/>
  <path d="m16.087 0.66633-3.4471 3.0052-2.0329 3.8449 5.5184 0.10857 5.4688-0.09375-1.7812-3.4688z" fill="#2f5074"/>
  <path d="m28.917 6.934-7.3228 0.59729-1.7812-3.4688-3.7258-3.3962 5.6569 0.97227 4.4857 2.2318z" fill="#6e97c4"/>
  <path d="m10.607 7.5164 10.987 0.014822 0.875 3.375 0.1875 3.0625-13.156 0.0625 0.1875-3.6875 0.9191-2.8273z" fill="#6e97c4"/>
  <path d="m16 1.0775c-8.1151 3.5244-9.4676 21.146 0 25.846" fill="none" stroke="#fff" stroke-width="1.2"/>
  <path d="m16 1.0775c9.4676 4.6992 8.1151 22.321 0 25.846" fill="none" stroke="#fff" stroke-width="1.2"/>
  <path d="m1.1223 14h29.755" fill="none" stroke="#fff" stroke-width="1.2"/>
  <path d="m2.9482 6.934c7.5741 1.0095 18.394 1.0095 25.968 0" fill="none" stroke="#fff" stroke-width="1.2"/>
  <path d="m2.9482 21.067c7.5741-1.0095 18.394-1.0095 25.968 0" fill="none" stroke="#fff" stroke-width="1.2"/>
  <path transform="matrix(1.2562 0 0 1.0872 22.465 -1.0129)" d="m6.9657 13.809c0 6.714-5.4229 12.157-12.112 12.157-6.6895 0-12.112-5.4427-12.112-12.157 0-6.714 5.4229-12.157 12.112-12.157 6.6895 0 12.112 5.4427 12.112 12.157z" fill="none" stroke="#2b3b4d" stroke-width="1.3414"/>
 </g>
</svg>
