<svg xmlns="http://www.w3.org/2000/svg" height="128" width="128"><path d="M43.016 46.164h16.787V62.95H43.016zm25.18 0h16.788V62.95H68.197zm25.181 0h16.787V62.95H93.377zm-75.54 50.36h16.786v16.787H17.836zm25.18 0h16.786v16.787H43.016zm25.18 0h16.787v16.787H68.197zm-25.18-25.18h16.786v16.787H43.016zm25.18 0h16.787v16.787H68.197zm25.18 0h16.787v16.787H93.377zm-75.54 0h16.786v16.787H17.836zM110.163 0v8.393H93.377V0H34.623v8.393H17.836V0H3.148v128h121.704V0zm8.393 121.705H9.443V29.377h109.114z" fill="#555"/></svg>