<svg height="24" width="24" xmlns="http://www.w3.org/2000/svg"><g aria-label="Aa" style="font-weight:700;font-size:16.9465px;font-family:'DejaVu Sans Mono';letter-spacing:0;word-spacing:0;opacity:.599704;fill:#555;stroke:#c8c8c8;stroke-width:2;stroke-linecap:round;stroke-linejoin:round"><path d="m7.313 7.513-1.15 5.056H8.47ZM5.823 5.28h2.988l3.334 12.354h-2.44l-.762-3.053H5.675l-.745 3.053H2.489ZM18.21 13.28q-1.356 0-1.894.348-.538.348-.538 1.192 0 .629.372 1.001.373.373 1.01.373.96 0 1.49-.72.529-.729.529-2.028v-.165Zm3.377-.934v5.287h-2.408V16.6q-.439.612-1.126.943-.686.331-1.514.331-1.58 0-2.466-.835-.877-.836-.877-2.334 0-1.622 1.051-2.391 1.051-.778 3.252-.778h1.68v-.406q0-.587-.43-.885-.422-.306-1.25-.306-.869 0-1.688.223-.81.215-1.696.695V8.788q.802-.331 1.63-.488.827-.158 1.754-.158 2.259 0 3.17.919.918.918.918 3.285z"/></g><g aria-label="Aa" style="font-weight:700;font-size:16.9465px;font-family:'DejaVu Sans Mono';letter-spacing:0;word-spacing:0;fill:#2e3436"><path d="m7.313 7.513-1.15 5.056H8.47ZM5.823 5.28h2.988l3.334 12.354h-2.44l-.762-3.053H5.675l-.745 3.053H2.489ZM18.21 13.28q-1.356 0-1.894.348-.538.348-.538 1.192 0 .629.372 1.001.373.373 1.01.373.96 0 1.49-.72.529-.729.529-2.028v-.165Zm3.377-.934v5.287h-2.408V16.6q-.439.612-1.126.943-.686.331-1.514.331-1.58 0-2.466-.835-.877-.836-.877-2.334 0-1.622 1.051-2.391 1.051-.778 3.252-.778h1.68v-.406q0-.587-.43-.885-.422-.306-1.25-.306-.869 0-1.688.223-.81.215-1.696.695V8.788q.802-.331 1.63-.488.827-.158 1.754-.158 2.259 0 3.17.919.918.918.918 3.285z"/></g></svg>