<svg height="16" width="16" xmlns="http://www.w3.org/2000/svg"><g fill="#555"><path d="m4.182 4.765v1.288h1.748l-.017.93h-1.748l.017 2.434c.002.21.05.362.152.455.104.09.275.134.513.134h1.083v.947h-1.171c-.707 0-1.186-.112-1.435-.336-.25-.228-.37-.647-.375-1.259l-.017-2.375h-1.204l.017-.93h1.205v-1.288z" stroke="#555" stroke-width=".095"/><path d="m9.756 4.533h.93l-3.308 7.083h-.93z"/><path d="m13.19 5.704v.362h.8l-.018.93h-.798l.017 3.97h-1.14l-.017-3.97h-1.006l.017-.93h1.006v-.278c0-.567.11-.96.331-1.178.222-.22.632-.329 1.232-.329h.952v.947h-.921c-.174 0-.292.034-.356.101-.06.068-.093.193-.098.375z" stroke="#555" stroke-width=".095"/></g></svg>