<?xml version="1.0" encoding="UTF-8"?>
<svg width="16" height="16" xmlns="http://www.w3.org/2000/svg">
 <linearGradient id="a" x1="-75.266" x2="5.9989" y1="-53.135" y2="-134.4" gradientTransform="matrix(0 -.078916 -.051131 0 474.03 549.4)" gradientUnits="userSpaceOnUse">
  <stop stop-color="#f0f" offset="0"/>
  <stop stop-color="#f00" offset="1"/>
 </linearGradient>
 <linearGradient id="b" x1="-5.9989" x2="75.266" y1="-134.4" y2="-53.135" gradientTransform="matrix(0 -.078916 -.051131 0 474.03 549.91)" gradientUnits="userSpaceOnUse">
  <stop stop-color="#f00" offset="0"/>
  <stop stop-color="#ff0" offset="1"/>
 </linearGradient>
 <linearGradient id="c" x1="5.9989" x2="-75.266" y1="134.4" y2="53.135" gradientTransform="matrix(.0037399 -.078827 -.051073 -.0024231 474.91 549.57)" gradientUnits="userSpaceOnUse">
  <stop stop-color="#0ff" offset="0"/>
  <stop stop-color="#00f" offset="1"/>
 </linearGradient>
 <linearGradient id="d" x1="-216.33" x2="-216.33" y1="28.573" y2="-28.573" gradientTransform="matrix(-.0016537 -.031323 -.12846 .0067823 474.29 549.16)" gradientUnits="userSpaceOnUse">
  <stop stop-color="#00f" offset="0"/>
  <stop stop-color="#f0f" offset="1"/>
 </linearGradient>
 <linearGradient id="e" x1="75.266" x2="-5.9989" y1="53.135" y2="134.4" gradientTransform="matrix(0 -.078916 -.051131 0 474.85 549.65)" gradientUnits="userSpaceOnUse">
  <stop stop-color="#0f0" offset="0"/>
  <stop stop-color="#0ff" offset="1"/>
 </linearGradient>
 <linearGradient id="f" x1="159.18" x2="159.18" y1="-28.573" y2="28.573" gradientTransform="matrix(.0018422 -.031312 -.12842 -.0075555 474.19 549.96)" gradientUnits="userSpaceOnUse">
  <stop stop-color="#ff0" offset="0"/>
  <stop stop-color="#0f0" offset="1"/>
 </linearGradient>
 <radialGradient id="g" cx="9.125" cy="9.9342" r="6" gradientTransform="matrix(-.36015 3.4814 -3.625 -.375 49.548 -18.543)" gradientUnits="userSpaceOnUse">
  <stop stop-color="#b1b1b1" offset="0"/>
  <stop stop-color="#424242" offset="1"/>
 </radialGradient>
 <radialGradient id="h" cx="471.25" cy="547.23" r="3.5127" gradientTransform="matrix(7.22e-6 2.1875 -2.2189 1.454e-5 1686.5 -483.61)" gradientUnits="userSpaceOnUse">
  <stop stop-color="#fc0000" offset="0"/>
  <stop stop-color="#ff9b9b" offset="1"/>
 </radialGradient>
 <g transform="translate(-466.25 -541.41)">
  <path transform="matrix(1.3228 0 0 1.3228 455.79 530.96)" d="m20 14a6 6 0 1 1-12 0 6 6 0 1 1 12 0z" fill="url(#g)" opacity=".58848"/>
  <path transform="matrix(1.0019 0 0 .99135 460.12 535.42)" d="m20 14a6 6 0 1 1-12 0 6 6 0 1 1 12 0z" fill="#ebebeb"/>
  <path transform="matrix(1.1544 0 0 .91514 465.02 542.31)" d="m12 8a4 5 0 1 1-8 0 4 5 0 1 1 8 0z" fill="none" opacity=".79424" stroke="#8f8f8f"/>
  <path d="m477.7 544.69a6.3925 6.3121 3.3671 0 0-6.3815-0.37546" fill="none" stroke="url(#f)" stroke-width="2"/>
  <path d="m471.66 544.19a6.3925 6.3121 0 0 0-3.1963 5.4663" fill="none" stroke="url(#e)" stroke-width="2"/>
  <path d="m471.39 554.78a6.3121 6.3925 86.978 0 0 6.3836-0.33703" fill="none" stroke="url(#d)" stroke-width="2"/>
  <path d="m468.53 549.27a6.3925 6.3121 2.7163 0 0 2.9336 5.6116" fill="none" stroke="url(#c)" stroke-width="2"/>
  <path d="m480.43 549.91a6.3925 6.3121 0 0 0-3.1963-5.4663" fill="none" stroke="url(#b)" stroke-width="2"/>
  <path d="m477.23 554.87a6.3925 6.3121 0 0 0 3.1963-5.4663" fill="none" stroke="url(#a)" stroke-width="2"/>
  <path d="m472.31 546.03 0.0251 7.0908 6.2213-3.6569z" fill="url(#h)"/>
 </g>
</svg>
