<?xml version="1.0" encoding="UTF-8"?>
<svg width="16" height="16" version="1.1" xmlns="http://www.w3.org/2000/svg">
 <g transform="translate(0,-2.176e-4)" fill="#555" aria-label="[]">
  <path d="m2.0417 3.0781h3.2344v1.1719h-1.4635v7.5005h1.4635v1.1719h-3.2344z"/>
  <path d="m13.958 12.922h-3.2344v-1.1719h1.4635v-7.5005h-1.4635v-1.1719h3.2344z"/>
 </g>
 <g transform="matrix(.76181 0 0 .73869 1.9607 -4.8639)" fill="#555" stroke="#555" stroke-width=".56121" aria-label="1.2">
  <path d="m3.9677 18.811h0.922v-2.7073l-0.85774 0.21234v-0.74318l0.86332-0.20675h0.79627v3.4449h0.922v0.72642h-2.6458z"/>
  <path d="m7.6211 18.807h0.66322v0.73093h-0.66322z"/>
  <path d="m10.252 18.811h1.7574v0.72642h-2.6486v-0.70407l0.44703-0.47497q0.79627-0.84656 0.9667-1.0421 0.20954-0.24028 0.30174-0.42468 0.0922-0.18719 0.0922-0.3688 0-0.27939-0.17043-0.43026-0.16763-0.15366-0.47776-0.15366-0.22072 0-0.49732 0.0894-0.2738 0.08661-0.57275 0.25425v-0.76833q0.29895-0.10896 0.58393-0.16484 0.28778-0.05867 0.5504-0.05867 0.66215 0 1.0393 0.31013 0.37997 0.30733 0.37997 0.84097 0 0.24587-0.08382 0.461-0.08102 0.21513-0.28219 0.47776-0.14808 0.18999-0.81302 0.85494-0.36042 0.36042-0.57276 0.57555z"/>
 </g>
</svg>
