<svg xmlns="http://www.w3.org/2000/svg" width="16" height="16"><path fill="#fce94f" stroke="#c4a000" stroke-linecap="round" d="M1.5 1.5h9v9h-9z" style="stroke-width:1"/><path d="M10.992 1.341c-1.995.17-3.062 2.092-3.673 3.332l-.26.735c-.034.123.153 1.813.264 1.905.62.509 2.117 1.298 2.536 1.26C10.92 8.464 11 8.125 11 8.125s.038-5.3-.008-6.785z" style="color:#000;opacity:.968444;fill:#f9f9f9;stroke-linecap:square;stroke-linejoin:round;-inkscape-stroke:none"/><path fill="none" stroke="#888a85" stroke-linejoin="round" stroke-width="3" d="M9.458 5.86c1.118-2.268 2.067-2.946 3.73-2.02 1.664.924 1.546 2.214.428 4.482" style="stroke-linecap:square"/><path fill="none" stroke="#eeeeec" stroke-linejoin="round" d="M9.45 5.857c1.117-2.269 2.102-3.11 3.766-2.184 1.663.925 1.723 2.214.158 5.289" style="stroke-width:1;stroke-linecap:square"/><rect width="7" height="5" x="7.5" y="9.5" fill="#f1db1e" stroke="#c4a000" rx=".538" ry=".714" style="stroke-width:1;stroke-linecap:square"/></svg>