<svg enable-background="new 0 0 32 32" height="32" viewBox="0 0 32 32" width="32" xmlns="http://www.w3.org/2000/svg"><path d="m0 0h32v32h-32z" fill="none"/><path d="m16 1.778c-7.436 0-13.463 6.028-13.463 13.463s6.027 13.463 13.463 13.463c7.434 0 13.463-6.028 13.463-13.463s-6.029-13.463-13.463-13.463zm6.965 17.89c.701.701.701 1.837 0 2.538-.351.351-.81.526-1.269.526-.46 0-.918-.175-1.269-.526l-4.427-4.427-4.426 4.427c-.35.351-.809.526-1.269.526s-.919-.176-1.269-.526c-.701-.701-.701-1.837 0-2.538l4.426-4.427-4.426-4.426c-.701-.701-.701-1.837 0-2.538.7-.701 1.838-.701 2.538 0l4.426 4.426 4.427-4.426c.701-.701 1.837-.701 2.538 0s.701 1.837 0 2.538l-4.427 4.426z" opacity=".65"/><path d="m18.538 15.24 4.427-4.425c.701-.701.701-1.838 0-2.539s-1.837-.701-2.538 0l-4.427 4.426-4.426-4.426c-.7-.701-1.838-.701-2.538 0-.701.701-.701 1.838 0 2.539l4.426 4.425-4.426 4.427c-.701.701-.701 1.838 0 2.539.35.35.809.526 1.269.526s.919-.176 1.269-.526l4.426-4.427 4.427 4.427c.351.35.809.526 1.269.526.459 0 .918-.176 1.269-.526.701-.701.701-1.838 0-2.539z" fill="#a0a0a0" opacity=".9"/></svg>