<svg height="24" width="24" xmlns="http://www.w3.org/2000/svg"><path d="m12.678 1.771c-.433.05-.858.275-1.147.645l-1.955 2.473.055-.065c-.29.307-.467.734-.467 1.182s.18.876.467 1.18l-.055-.063 1.955 2.475c.578.739 1.673.86 2.403.287v-.002c.6-.47.674-1.252.418-1.932l4.699-.002v7.067l-.072.035h-1.979a.95.95 0 0 0 -.95.949v2a.95.95 0 0 0 .95.951h2.2c2.056 0 3.75-1.695 3.75-3.752v-7.398a3.768 3.768 0 0 0 -3.75-3.75h-4.846c.253-.678.177-1.454-.418-1.922a1.719 1.719 0 0 0 -1.258-.358zm-.955 3.467a.95.95 0 0 0 .918.713l6.558-.002c1.011 0 1.852.841 1.852 1.852v7.398a1.867 1.867 0 0 1 -1.852 1.852h-1.25v-.1h1.25a.95.95 0 0 0 .393-.086c.196-.089.458-.181.76-.424.301-.242.597-.75.597-1.242v-7.398c0-.929-.821-1.75-1.75-1.75h-6.566a.95.95 0 0 0 -.92.71l-.598-.755zm-6.923-1.188a3.768 3.768 0 0 0 -3.75 3.75l-.001 7.4c0 2.056 1.695 3.75 3.752 3.75h4.845c-.253.677-.177 1.453.418 1.921a1.724 1.724 0 0 0 2.405-.287l1.953-2.47-.055.062c.29-.307.469-.734.469-1.182a1.74 1.74 0 0 0 -.469-1.18l.057.065-1.955-2.477a1.725 1.725 0 0 0 -2.403-.287v.002c-.6.47-.675 1.253-.418 1.934h-4.698v-7.102h2.05a.95.95 0 0 0 .95-.949v-2a.95.95 0 0 0 -.95-.95zm0 1.9h1.25v.1h-1.25c-.928 0-1.75.822-1.75 1.75l-.001 7.4c0 .928.823 1.75 1.752 1.75h6.566a.95.95 0 0 0 .92-.714l.598.758-.608.768a.95.95 0 0 0 -.918-.711h-6.558a1.867 1.867 0 0 1 -1.852-1.852v-7.398c0-1.011.841-1.852 1.852-1.852z" fill="#5a8c5a"/><path d="m12.787 2.715a.751.751 0 0 0 -.507.285l-1.957 2.477a.765.765 0 0 0 -.209.53c0 .206.08.389.21.526l1.956 2.479c.26.333.74.385 1.069.125a.762.762 0 0 0 .127-1.072l-.843-1.065h6.566c.46 0 .801.34.801.8v7.4c0 .46-.382.61-.8.8h-2.2v2h2.2c1.533 0 2.8-1.266 2.8-2.8v-7.4c0-1.532-1.267-2.8-2.8-2.8h-6.56l.835-1.058a.758.758 0 0 0 -.127-1.069.76.76 0 0 0 -.56-.158zm-7.986 2.285a2.818 2.818 0 0 0 -2.801 2.8v7.4c0 1.532 1.267 2.8 2.8 2.8h6.559l-.834 1.058a.758.758 0 0 0 .127 1.069c.33.26.808.206 1.068-.127l1.957-2.477a.765.765 0 0 0 .21-.529.76.76 0 0 0 -.21-.527l-1.957-2.479a.758.758 0 0 0 -1.068-.125.762.762 0 0 0 -.127 1.072l.842 1.065h-6.567c-.46 0-.8-.34-.8-.8v-7.4c0-.46.34-.8.8-.8h2.2v-2z" fill="#8cbe8c"/></svg>