<?xml version="1.0" encoding="utf-8"?>
<!-- Generator: Adobe Illustrator 15.0.2, SVG Export Plug-In . SVG Version: 6.00 Build 0)  -->
<!DOCTYPE svg PUBLIC "-//W3C//DTD SVG 1.0//EN" "http://www.w3.org/TR/2001/REC-SVG-20010904/DTD/svg10.dtd">
<svg version="1.0"
	 id="svg5692" inkscape:export-xdpi="90" inkscape:export-ydpi="90" xmlns:inkscape="http://www.inkscape.org/namespaces/inkscape" xmlns:svg="http://www.w3.org/2000/svg" inkscape:export-filename="/media/home1/robert/svn/graphics/trunk/toolbar-icons/32x32/table-field-create.png" xmlns:cc="http://creativecommons.org/ns#" xmlns:rdf="http://www.w3.org/1999/02/22-rdf-syntax-ns#" xmlns:sodipodi="http://sodipodi.sourceforge.net/DTD/sodipodi-0.dtd" xmlns:dc="http://purl.org/dc/elements/1.1/" sodipodi:docname="table-field-add.svg" inkscape:version="0.47 r22583"
	 xmlns="http://www.w3.org/2000/svg" xmlns:xlink="http://www.w3.org/1999/xlink" x="0px" y="0px" width="24px" height="24px"
	 viewBox="4 4 24 24" enable-background="new 4 4 24 24" xml:space="preserve">
<path fill="#939598" stroke="#58595B" stroke-width="1.5" d="M9.664,19.892c0,0.836-0.284,1.193-0.631,0.792l-3.771-4.351
	c-0.348-0.401-0.348-1.058,0-1.459l3.771-4.359c0.347-0.402,0.631-0.045,0.631,0.792V19.892z"/>
<path id="path7926_2_" fill="#FFFFFF" d="M9.341,8.199v15.156h12.514V8.199H9.341L9.341,8.199z"/>
<path id="rect8772_1_" sodipodi:nodetypes="ccccccccc" display="none" fill="#EDB2B2" stroke="#C40000" stroke-linecap="round" stroke-linejoin="round" d="
	M9.341,8.199v9.471v2.525v3.159h12.514v-3.159V17.67V8.199H9.341z"/>
<path id="rect8772" sodipodi:nodetypes="ccccccccc" fill="#FBF091" stroke="#C4A000" stroke-linecap="round" stroke-linejoin="round" d="
	M9.341,8.199v9.471v2.525v3.159h12.514v-3.159V17.67V8.199H9.341z"/>
<g display="none">
	
		<rect id="rect8700_1_" x="9.343" y="8.219" display="inline" fill="none" stroke="#C40000" stroke-linecap="round" stroke-linejoin="round" width="12.51" height="7.559"/>
	
		<rect id="rect8700_2_" x="9.343" y="8.219" display="inline" fill="none" stroke="#C4A000" stroke-linecap="round" stroke-linejoin="round" width="12.51" height="7.559"/>
	<g display="inline">
		
			<path id="path8729" sodipodi:nodetypes="cc" fill="none" stroke="#58595B" stroke-width="2" stroke-linecap="round" stroke-linejoin="round" d="
			M12.325,11.955H18.9"/>
		<path id="path8742" sodipodi:nodetypes="cc" fill="none" stroke="#58595B" stroke-linecap="round" stroke-linejoin="round" d="
			M12.494,19.404h6.577"/>
	</g>
</g>
<g display="none">
	<path id="path7926_1_" display="inline" fill="none" stroke="#878984" stroke-linecap="round" stroke-linejoin="round" d="
		M9.341,8.199v15.156h12.514V8.199H9.341L9.341,8.199z"/>
	<path id="path3002_1_" display="inline" fill="#58595B" d="M13.948,15.357c-1.573-0.56-2.361-1.408-2.361-2.542
		c0-0.896,0.416-1.611,1.246-2.147c0.839-0.535,1.878-0.803,3.116-0.803c1.125,0,2.016,0.188,2.68,0.563
		c0.664,0.369,0.996,0.812,0.996,1.332c0,0.271-0.104,0.511-0.312,0.72c-0.207,0.2-0.447,0.3-0.719,0.3
		c-0.447,0-0.816-0.312-1.104-0.936c-0.397-0.863-0.995-1.295-1.792-1.295c-0.63,0-1.151,0.208-1.559,0.623
		c-0.408,0.416-0.612,0.996-0.612,1.74c0,1.462,0.757,2.195,2.268,2.195c0.159,0,0.342-0.016,0.549-0.048
		c0.359-0.047,0.637-0.071,0.837-0.071c0.485,0,0.729,0.14,0.729,0.419c0,0.312-0.248,0.467-0.742,0.467
		c-0.175,0-0.438-0.028-0.789-0.084c-0.264-0.048-0.467-0.071-0.609-0.071c-1.6,0-2.398,0.812-2.398,2.44
		c0,0.791,0.212,1.431,0.636,1.919c0.424,0.479,1.017,0.72,1.774,0.72c0.949,0,1.577-0.492,1.888-1.477
		c0.16-0.519,0.336-0.879,0.527-1.079c0.201-0.199,0.465-0.3,0.793-0.3c0.271,0,0.514,0.101,0.73,0.3
		c0.225,0.192,0.336,0.44,0.336,0.744c0,0.728-0.408,1.331-1.223,1.812c-0.816,0.471-1.802,0.707-2.958,0.707
		c-1.27,0-2.401-0.304-3.391-0.911c-0.983-0.608-1.475-1.42-1.475-2.435C11.011,16.887,11.99,15.956,13.948,15.357"/>
	<path id="path3778_1_" sodipodi:nodetypes="csss" display="inline" opacity="0.5" fill="#FFFFFF" enable-background="new    " d="
		M12.954,11.868c-1.483,1.602-1.146-0.264-0.257-0.906c0.921-0.666,1.438-0.649,1.431-0.446
		C14.12,10.754,13.421,11.364,12.954,11.868z"/>
	<path id="path3807_1_" sodipodi:nodetypes="csss" display="inline" opacity="0.5" fill="#FFFFFF" enable-background="new    " d="
		M12.456,17.028c-1.485,1.601-1.23,0.119-0.34-0.52c0.92-0.663,1.437-0.646,1.43-0.443C13.538,16.303,12.92,16.527,12.456,17.028z"
		/>
	<path id="path3809_1_" sodipodi:nodetypes="css" display="inline" opacity="0.5" fill="#FFFFFF" enable-background="new    " d="
		M18.973,18.817c-1.432,1.598-1.322,0.08-0.402-0.509C19.273,17.859,19.48,18.248,18.973,18.817z"/>
</g>
<g>
	<path id="path3002" fill="#5C3566" d="M13.948,15.357c-1.573-0.56-2.361-1.408-2.361-2.542c0-0.896,0.416-1.611,1.246-2.147
		c0.839-0.535,1.878-0.803,3.116-0.803c1.125,0,2.016,0.188,2.68,0.563c0.664,0.369,0.996,0.812,0.996,1.332
		c0,0.271-0.104,0.511-0.312,0.72c-0.207,0.2-0.447,0.3-0.719,0.3c-0.447,0-0.816-0.312-1.104-0.936
		c-0.397-0.863-0.995-1.295-1.792-1.295c-0.63,0-1.151,0.208-1.559,0.623c-0.408,0.416-0.612,0.996-0.612,1.74
		c0,1.462,0.757,2.195,2.268,2.195c0.159,0,0.342-0.016,0.549-0.048c0.359-0.047,0.637-0.071,0.837-0.071
		c0.485,0,0.729,0.14,0.729,0.419c0,0.312-0.248,0.467-0.742,0.467c-0.175,0-0.438-0.028-0.789-0.084
		c-0.264-0.048-0.467-0.071-0.609-0.071c-1.6,0-2.398,0.812-2.398,2.44c0,0.791,0.212,1.431,0.636,1.919
		c0.424,0.479,1.017,0.72,1.774,0.72c0.949,0,1.577-0.492,1.888-1.477c0.16-0.519,0.336-0.879,0.527-1.079
		c0.201-0.199,0.465-0.3,0.793-0.3c0.271,0,0.514,0.101,0.73,0.3c0.225,0.192,0.336,0.44,0.336,0.744
		c0,0.728-0.408,1.331-1.223,1.812c-0.816,0.471-1.802,0.707-2.958,0.707c-1.27,0-2.401-0.304-3.391-0.911
		c-0.983-0.608-1.475-1.42-1.475-2.435C11.011,16.887,11.99,15.956,13.948,15.357"/>
	<path id="path3778" sodipodi:nodetypes="csss" opacity="0.5" fill="#FFFFFF" enable-background="new    " d="M12.954,11.868
		c-1.483,1.602-1.146-0.264-0.257-0.906c0.921-0.666,1.438-0.649,1.431-0.446C14.12,10.754,13.421,11.364,12.954,11.868z"/>
	<path id="path3807" sodipodi:nodetypes="csss" opacity="0.5" fill="#FFFFFF" enable-background="new    " d="M12.456,17.028
		c-1.485,1.601-1.23,0.119-0.34-0.52c0.92-0.663,1.437-0.646,1.43-0.443C13.538,16.303,12.92,16.527,12.456,17.028z"/>
	<path id="path3809" sodipodi:nodetypes="css" opacity="0.5" fill="#FFFFFF" enable-background="new    " d="M18.973,18.817
		c-1.432,1.598-1.322,0.08-0.402-0.509C19.273,17.859,19.48,18.248,18.973,18.817z"/>
</g>
<g display="none">
	<path id="path7926" display="inline" fill="none" stroke="#878984" stroke-linecap="round" stroke-linejoin="round" d="
		M9.341,8.199v15.156h12.514V8.199H9.341L9.341,8.199z"/>
	
		<rect id="rect8700" x="9.342" y="8.22" display="inline" fill="none" stroke="#878984" stroke-linecap="round" stroke-linejoin="round" width="12.511" height="7.559"/>
	<g display="inline">
		
			<path id="path8729_1_" sodipodi:nodetypes="cc" fill="none" stroke="#555753" stroke-width="2" stroke-linecap="round" stroke-linejoin="round" d="
			M12.325,11.955H18.9"/>
		<path id="path8742_1_" sodipodi:nodetypes="cc" fill="none" stroke="#555753" stroke-linecap="round" stroke-linejoin="round" d="
			M12.494,19.405h6.577"/>
	</g>
</g>
</svg>
