<svg enable-background="new -16 -16 64 64" height="64" viewBox="-16 -16 64 64" width="64" xmlns="http://www.w3.org/2000/svg" xmlns:xlink="http://www.w3.org/1999/xlink"><linearGradient id="a" gradientUnits="userSpaceOnUse" x1="16.3203" x2="16.3203" y1="-9.0908" y2="32.3999"><stop offset="0" stop-color="#fff"/><stop offset="1" stop-color="#e6e6c7"/></linearGradient><path d="m-13.25-9.091h59.142v41.49h-59.142z" fill="url(#a)" stroke="#666" stroke-miterlimit="10" stroke-width="1.5"/><path d="m-6.697 12.654h44.447" fill="none" stroke="#9b9da0" stroke-linecap="round" stroke-miterlimit="10"/><path d="m6.928 17.375h17.197" fill="none" stroke="#9b9da0" stroke-linecap="round" stroke-miterlimit="10"/><path d="m-6.697 8.75h44.447" fill="none" stroke="#9b9da0" stroke-linecap="round" stroke-miterlimit="10"/><g fill="#666"><path d="m-2.887-.258c.084-.084.48-.468.612-.468.12 0 .18.084.12.276l.024.024c1.163-1.007 1.919-2.087 1.919-2.482 0-.204-.132-.288-.324-.24-.216.06-1.583.108-4.27 3.25-.839.983-1.451 2.315-1.451 3.226 0 .852.408 1.355 1.271 1.355 1.511 0 4.15-1.967 5.289-2.975.037.612-.155.78-.611 1.212-2.338 2.255-4.33 2.975-5.457 2.975-1.331 0-2.291-.828-2.291-2.207 0-1.763 1.475-3.658 2.71-4.821 1.02-.972 3.538-2.891 4.965-2.891.72 0 1.188.384 1.223 1.14.084 1.619-3.01 4.689-4.521 4.917-.347.048-.671-.192-.671-.576 0-.36.324-.72.576-.936z"/><path d="m5.082 2.536c-.732.852-2.051 1.979-3.238 1.979-.875 0-1.283-.78-1.308-1.571-.048-1.571 1.691-3.178 3.25-3.166.384 0 .863.096.863.576 0 .587-.587 1.475-2.89 2.23l-.023.264c-.036.456.36.612.743.612.852 0 1.859-.876 2.495-1.379zm-1.487-1.931c0-.084-.06-.156-.144-.132-.6.156-1.295.732-1.619 1.523 1.055-.359 1.774-1.187 1.763-1.391z"/><path d="m5.755 1.721c-.419.659-.923.971-1.439 1.487l-.047-.528c.311-.252.563-.552.791-.875-.252-.024-.324-.12-.324-.372 0-.863 1.223-1.727 1.511-1.727.12 0 .216.096.216.204 0 .12-.036.228-.084.336 1.127-.156 1.787-.3 1.907-.156.18.228.264.42.288.636 0 .372-.228.552-.504.78-.348.3-.936.887-.936 1.367 0 .192.192.336.372.336.516 0 1.271-.78 1.667-1.08l.084.444c-.455.515-1.834 1.846-2.518 1.846-.504 0-.816-.467-.816-.923 0-.815.624-1.451 1.104-2.027l-.024-.024z"/><path d="m13.253-.678c-.563 1.14-.66 1.583-1.979 1.5-.408.527-1.091 1.511-1.091 2.23 0 .264.084.42.36.42.384 0 .815-.36 2.063-1.247l.06.527c-.708.648-2.003 1.931-3.022 1.931-.468 0-.756-.324-.756-.804 0-.396.156-.852.312-1.199l-.024-.024-.612.492-.132-.456c.72-.552 1.379-1.164 1.823-1.919-.732 0-.504-.048-1.14.048l.132-.216c.649-1.055.744-1.247 2.027-1.295.36-.492.624-1.056 1.319-1.056.156 0 .384.036.384.228 0 .216-.348.612-.468.78z"/><path d="m15.978 2.764c-.54.66-1.595 1.739-2.507 1.739-.708 0-1.031-.815-1.031-1.427 0-1.463 1.499-2.891 2.219-2.891.204 0 .528.072.528.336 0 .6-1.188 1.667-1.691 2.015-.096.492.084.756.636.756.636 0 1.259-.636 1.739-.983zm-1.151-3.334c0-.492.576-.923 1.043-.923.216 0 .396.156.396.372 0 .479-.444 1.067-.959 1.067-.288 0-.48-.228-.48-.516z"/><path d="m21.593.186c.204 0 .527.072.527.336 0 .6-1.188 1.667-1.691 2.015-.096.492.084.756.636.756.636 0 1.26-.636 1.739-.983l.108.456c-.54.66-1.596 1.739-2.507 1.739-.708 0-1.031-.815-1.031-1.427 0-.036 0-.06.012-.072l-.025-.026c-.323.3-.684.588-1.115.792.048.228.024.444.013.66-.097 1.427-1.775 2.747-2.651 2.878-.552.084-.708-1.032-.708-1.428 0-.779.516-1.727.839-2.411-.192-.204-.348-.384-.348-.684 0-.479.324-.612.671-.804.708-.384 1.092-.947 1.463-1.631.312-.588 1.859-3.442 2.471-3.442.265 0 .288.336.288.528 0 .468-.359 1.307-.624 1.679l-2.242 3.13c.348.204.468.6.624.947l1.486-.923c.373-1.15 1.477-2.085 2.065-2.085zm-4.222 3.814c-.384.024-.576.012-.863-.096-.312.528-.504.959-.552 1.355-.048.384.06.72.24 1.067.743-.492 1.283-1.427 1.175-2.326zm4.39-4.57c0-.492.575-.923 1.043-.923.216 0 .396.156.396.372 0 .479-.443 1.067-.959 1.067-.289 0-.48-.228-.48-.516z"/><path d="m24.187 2.068c-.264.192-.479.372-.479.708 0 .276.287.648.911.648.911 0 1.955-.84 2.65-1.379l.145.468c-.732.78-2.075 1.967-3.215 1.967-.923 0-1.367-.863-1.367-1.751 0-1.007.36-1.379 1.14-1.967.54-.408 1.691-1.056 2.362-1.056.372 0 .54.192.54.552 0 .66-.947 1.583-1.271 1.583-.275 0-.396-.3-.407-.528z"/><path d="m29.13 3.508c-.228.18-.995.803-1.271.803-.336 0-1.031-.792-1.056-1.415-.048-1.499 3.07-3.034 4.462-3.07.552-.012.779.432.779.576s-.312.264-.42.3c.229.096.349.228.349.492 0 .384-1.044 1.224-1.044 1.787 0 .204.18.288.372.288.504 0 1.188-.611 1.703-.959l.096.442c-.516.588-2.123 1.871-2.711 1.871-.396 0-.575-.288-.575-.636 0-.384.288-1.02.443-1.343l-.024-.024zm-1.451-.312c.012.06.06.276.239.24.24-.048.612-.012 2.986-2.411l-.023-.024c-2.855.875-3.202 1.607-3.202 2.195z"/><path d="m37.181-.678c-.564 1.14-.66 1.583-1.979 1.5-.407.527-1.091 1.511-1.091 2.23 0 .264.084.42.359.42.384 0 .815-.36 2.062-1.247l.061.527c-.708.648-2.003 1.931-3.023 1.931-.468 0-.756-.324-.756-.804 0-.396.156-.852.312-1.199l-.024-.024-.611.492-.132-.456c.719-.552 1.379-1.164 1.822-1.919-.731 0-.504-.048-1.139.048l.132-.216c.647-1.056.743-1.248 2.026-1.295.36-.492.624-1.056 1.319-1.056.156 0 .384.036.384.228 0 .216-.348.612-.468.78z"/><path d="m40.972 2.536c-.731.852-2.051 1.979-3.238 1.979-.875 0-1.283-.78-1.307-1.571-.048-1.571 1.69-3.178 3.25-3.166.384 0 .863.096.863.576 0 .587-.588 1.475-2.891 2.23l-.023.264c-.036.456.359.612.743.612.852 0 1.859-.876 2.495-1.379zm-1.488-1.931c0-.084-.06-.156-.144-.132-.6.156-1.295.732-1.619 1.523 1.056-.359 1.776-1.187 1.763-1.391z"/></g><path d="m23.451 22.681c.006-.869.535-1.759 1.248-2.215-.001.521-.086 1.034-.2 1.545.95.373 1.983-1.284 2.727-1.716.024.895.563 1.914.956 2.692.665-.479 1.228-1.196 1.783-1.813-.129 1.017.275 1.439.94 2.015.002.002 1.171.639 1.18.641 1.031.205 1.911-.381 2.927-.562.696-.125 1.476-.081 2.204-.199-.039-.519-.004-1.047.202-1.525.238.627.596 1.31 1.033 1.764" fill="none" stroke="#666" stroke-linecap="round" stroke-linejoin="round"/><path d="m-5.5 21.25c.817-.091 1.379-.771 2.136-1.002-.23 1.323-1.464 2.197-1.832 3.468 2.935-1.776 6.125-2.578 9.421-3.349-.699.463-1.101 1.227-1.727 1.706-1.058.812-2.778 1.081-3.952 1.847 1.138-.902 2.061-2.287 3.353-2.964.21.299.343.752.357 1.168 2.06-.099 4.075.563 6.173.367 1.339-.126 1.739-.423 2.946.134" fill="none" stroke="#666" stroke-linecap="round" stroke-linejoin="round"/><circle cx="32.717" cy="25.395" fill="#009800" r="14.283"/><path d="m40.53 18.654.545.501c-1.376 1.345-2.548 2.917-4.325 5.427-2.016 2.846-2.905 4.452-3.862 6.806l-.927.694c-.765.593-1.283 1.024-1.55 1.298-.163-.341-.496-.886-.996-1.639l-.475-.685c-.679-.983-1.281-1.695-1.811-2.138-.531-.444-2.171-1.629-2.77-1.719.861-.984 1.699-1.534 2.507-1.639.697-.091 2.646 1.511 3.697 2.974l.522.733c1.242-2.345 3.546-5.149 4.683-6.36 1.079-1.146 2.624-2.869 4.762-4.253z" fill="#fff" stroke="#fff" stroke-linecap="round" stroke-linejoin="round" stroke-miterlimit="10"/></svg>