<svg height="128" width="128" xmlns="http://www.w3.org/2000/svg">
<path d="m64 0c35.249231 0 64 28.553846 64 64 0 35.249231-28.750769 64-64 64-35.446154 0-64-28.750769-64-64 0-35.446154 28.553846-64 64-64zm0 113.82154c27.569231 0 49.82154-22.449232 49.82154-50.018463 0-27.569231-22.252309-49.821539-49.82154-49.821539-27.569231 0-50.018462 22.252308-50.018462 49.821539 0 27.569231 22.449231 50.018463 50.018462 50.018463zm18.904615-42.14154h-20.086153c-2.166154 0-3.938462-.787692-5.12-2.363077l-22.646154-24.615385c-6.104616-6.498461 3.938461-15.950769 10.24-9.64923l20.48 22.44923h17.132307c9.649231 0 8.664616 14.178462 0 14.178462zm-22.843077-45.292308c0-1.96923 1.772308-3.741538 3.741539-3.741538 1.969231 0 3.741538 1.772308 3.741538 3.741538 0 1.969231-1.772307 3.741539-3.741538 3.741539-1.969231 0-3.741539-1.772308-3.741539-3.741539zm26.19077 10.24c0-1.96923 1.772307-3.741538 3.741538-3.741538 1.969231 0 3.741539 1.772308 3.741539 3.741538 0 1.969231-1.772308 3.741539-3.741539 3.741539-1.969231 0-3.741538-1.772308-3.741538-3.741539zm11.618461 26.978462c0-1.969231 1.772308-3.741539 3.741541-3.741539 1.96923 0 3.74154 1.772308 3.74154 3.741539 0 1.969231-1.77231 3.741538-3.74154 3.741538-1.969233 0-3.741541-1.772307-3.741541-3.741538zm-10.436923 26.387692c0-1.969231 1.772308-3.741538 3.741539-3.741538 1.96923 0 3.741538 1.772307 3.741538 3.741538 0 1.969231-1.772308 3.741539-3.741538 3.741539-1.969231 0-3.741539-1.772308-3.741539-3.741539zm-27.569231 11.421534c0-1.969226 1.772308-3.741534 3.741539-3.741534 1.969231 0 3.741538 1.772308 3.741538 3.741534 0 1.96924-1.772307 3.74154-3.741538 3.74154-1.969231 0-3.741539-1.7723-3.741539-3.74154zm-25.6-10.239995c0-1.969231 1.772308-3.741539 3.741539-3.741539 1.969231 0 3.741538 1.772308 3.741538 3.741539 0 1.96923-1.772307 3.741538-3.741538 3.741538-1.969231 0-3.741539-1.772308-3.741539-3.741538zm-11.815384-27.569231c0-1.969231 1.772307-3.741539 3.741538-3.741539 1.969231 0 3.741539 1.772308 3.741539 3.741539 0 1.969231-1.772308 3.741538-3.741539 3.741538-1.969231 0-3.741538-1.772307-3.741538-3.741538z"/>
</svg>
