<svg xmlns="http://www.w3.org/2000/svg" width="24" height="24"><path fill="#749fcf" d="M7.694 4.208c-.783.032-1.532.135-2.279.246a10.1 10.1 0 0 0-3.58 7.412c.6.63 1.39 2.054 2.3 2.878q.183-.078.392-.143c-.447-.518-1.073-1.206-1.166-1.523-.46-1.55.074-3.004 1.226-3.12C5.62 9.856 6.506 8.32 7.235 7.316c1.498-2.072 3.8-1.727 3.685-2.762-.133-.605-.493-.79-.95-.79-.687 0-1.593.417-2.276.445"/><path fill="#749fcf" d="M4.962 14.478q-.225.062-.435.123c-.125.034-.222.084-.391.143a1.09 1.09 0 0 0-.705.964c-.114.985.824 1.758 1.615 1.984 1.003.286 1.086-.05 1.613.662.367.496.437 1.416.625 2.022.106.338.249.676.418 1.005.715.334 1.478.586 2.272.745.199-1.168.107-2.743.37-3.424.536-1.395.838-2.01.115-3.451-1.595-.449-2.078-.592-3.685-.922a3.7 3.7 0 0 0-.715-.1c-.286 0-.523.08-1.097.25m9.873-8.086c-.47.671-2.12.854-2.65 1.61-.411.59.014 1.747-.343 2.417-.167.308-.09 1.202.11 1.492.636.923 1.691.41 2.486.743.97.405 1.08 1.527 1.883 2.348.805.822-1.027 2.09.469 5.08.159.321.346.555.546.716a10.2 10.2 0 0 0 2.634-2.362c.227-1.51-.284-1.992.354-3.377.393-.85 1.069-2.326 1.796-3.327a10.1 10.1 0 0 0-3.33-7.066 1.64 1.64 0 0 1-.73.002 4 4 0 0 0-.74-.072c-1.501 0-1.95 1.033-2.485 1.796"/><path fill="#749fcf" d="M10.82 22.947c-.337-.193-.758-.491-1.152-.751-.163.145-.294.357-.425.526.451.153 1.059.167 1.577.225m-1.776-1.204c-.719-.536-2.503-2.225-3.24-3.244-.272.159-.576.596-.967.67-.155.03-.503.07-.604.03-.103-.045.022-.261.133-.406.193-.25.473-.576.884-.894-.878-1.285-1.295-2.225-1.893-3.774a9 9 0 0 0-.898.645c-.1.08-.38.13-.516.008-.245-.218-.249-.608.097-.854.141-.1.844-.584 1.007-.721-.43-1.244-.794-2.879-.888-3.725a10 10 0 0 1-.806.612c-.163.046-.275-.006-.32-.016-.165 1.76.024 3.695.548 5.443.9 3.008 3.423 5.876 6.83 6.941.08-.12.47-.57.635-.715M2.054 8.564a274 274 0 0 1-.095-1.541c-.477 1.039-.765 1.664-.898 2.88.335-.594.993-1.339.993-1.339m5.111-7.44C9.142.307 11.07-.142 13.292.162c.248.034.226.243-.036.247l-.314.008c-1.79.027-4.424.595-5.787 1.366-.03.908.143 2.35.326 3.487 1.238-.52 3.153-1.053 4.607-1.212a17 17 0 0 0-2.082-1.804c-.135-.095-.203-.258-.203-.47.02-.398.358-.446.543-.398.604-.12 1.205-.25 2.23-.219 4.331-.19 8.29 2.257 9.8 5.048 3.828 6.045 0 14.385-5.008 16.608-2.143.947-3.981 1.358-7.37.886-3.393-.473-6.168-2.13-8.324-5.614C-.98 13.8.514 8.799.888 7.75c1.599-3.765 4.217-5.76 6.277-6.625M2.685 5.7c-.057.453.005 1.287.118 2.284.922-.822 2.701-1.895 4.187-2.55-.17-1.133-.353-2.94-.335-3.421-1.375.755-2.887 2.27-3.993 3.826m.226 3.057c.131.898.562 2.833.95 3.814.922-.693 3.01-1.978 4.191-2.499-.413-1.504-.691-2.451-.923-3.969-1.67.741-3.435 1.893-4.218 2.654M4.2 13.578c.547 1.56 1.075 2.75 1.768 3.731.807-.701 2.464-1.808 3.731-2.416-.417-.896-1.021-2.57-1.44-3.826-1.631.8-2.85 1.582-4.059 2.511m2.285 4.412a24 24 0 0 0 3.139 3.27c.886-.711 1.887-1.377 2.723-1.782-.719-1.114-1.784-2.735-2.23-3.732-1.598.707-2.506 1.3-3.634 2.244m3.69 3.755c.343.344 1.691 1.237 1.691 1.237a14.6 14.6 0 0 0 2.843-.208c-.445-.509-1.561-2.086-1.899-2.616a11.8 11.8 0 0 0-2.634 1.589m5.48.796c.456-.145 1.616-.671 1.856-.83.058-.934.048-1.994.01-2.628-1.22 0-2.936.355-3.92.767a19.6 19.6 0 0 0 2.055 2.691m2.499-1.176c.913-.57 1.776-1.225 2.4-2.014-.537-.135-1.739-.298-2.333-.258 0 0-.02 1.424-.067 2.272m2.687-2.38a3.5 3.5 0 0 0 .533-.752c.1-.866.103-2.642.065-3.16-1.045-.424-2.662-.76-3.844-.847.386 1.408.577 3.476.606 4.152.567.06 1.997.347 2.64.608m1.536-4.02c-.05.166-.338.33-.473.289.02.292-.047 1.738-.123 2.296.2-.413.584-1.436.7-1.869l.162-.636a10.2 10.2 0 0 0 .213-4.867c-.529-2.73-1.516-3.703-1.862-4.136-.88-.476-2.209-.91-2.209-.91 1.206 1.63 1.623 2.394 2.345 4.335.417.217 1.174.636 1.269.751.075.091.077.254-.161.25-.199 0-.582-.19-.88-.27.318 1.057.562 3.03.544 4.353 0 0 .523.252.475.417m-2.018-9.837c-1.669-2.045-5.451-3.783-9.659-3.52.94.62 1.723 1.553 2.408 2.324 1.053-.096 3.258.077 4.088.306-.14-.167-.314-.332-.36-.432-.119-.252.166-.305.394-.16.288.182.62.403.884.671.487.11 1.689.52 2.245.81m1.07 9.212c-.073-1.317-.274-3.08-.764-4.303-1.296-.52-3.066-.844-4.621-.86.48 1.118 1.039 2.986 1.311 4.188 1.123.133 2.88.45 4.073.975m-3.642-9.424a19.6 19.6 0 0 0-4.146-.272c.864 1.196 1.498 2.237 2.092 3.72 1.603.04 3.78.517 4.674.867-.532-1.419-1.545-3.22-2.62-4.315m-7.34 9.625a13.75 13.75 0 0 1 6.118-1.212c-.576-1.997-.905-2.92-1.396-4.134a15.7 15.7 0 0 0-6.17 1.541s.671 2.158 1.45 3.805m6.333-.376c-2.39-.028-4.476.543-5.9 1.244.602 1.299 1.798 3.02 2.245 3.73a12.4 12.4 0 0 1 2.258-.607c.648-.1 1.51-.195 2.098-.185-.107-1.514-.284-2.535-.701-4.182M8.727 9.921a19 19 0 0 1 6.124-1.53 13.5 13.5 0 0 0-2.19-3.627A16.7 16.7 0 0 0 7.637 6.02c.215 1.142.622 2.522 1.09 3.901"/><path fill="none" stroke="#fff" stroke-linecap="round" stroke-linejoin="round" stroke-width="2.5" d="m5.491 6.947 4.394 11.085 4.831-10.981 3.973-.016"/><path fill="#fff" fill-rule="evenodd" stroke="#fff" stroke-width="2.5" d="M6.654 6.947a1.163 1.219 0 1 1-2.326 0 1.163 1.219 0 0 1 2.326 0zM11.075 18.032a1.19 1.219 0 1 1-2.38 0 1.19 1.219 0 0 1 2.38 0zM15.756 7.024a1.163 1.219 0 1 1-2.326 0 1.163 1.219 0 0 1 2.326 0zM19.852 7.034a1.163 1.219 0 1 1-2.326 0 1.163 1.219 0 0 1 2.326 0z"/><path fill="none" stroke="#2b3b4d" stroke-linecap="round" stroke-linejoin="round" stroke-width="1.127" d="m5.491 6.947 4.394 11.085 4.831-10.981 3.973-.016"/><path fill="#fff" fill-rule="evenodd" stroke="#2b3b4d" stroke-width="1.127" d="M6.654 6.947a1.163 1.219 0 1 1-2.326 0 1.163 1.219 0 0 1 2.326 0z"/><path fill="#fff" fill-rule="evenodd" stroke="#2b3b4d" stroke-linecap="round" stroke-linejoin="round" stroke-width="1.127" d="M11.075 18.032a1.19 1.219 0 1 1-2.38 0 1.19 1.219 0 0 1 2.38 0M15.756 7.024a1.163 1.219 0 1 1-2.326 0 1.163 1.219 0 0 1 2.326 0M19.852 7.034a1.163 1.219 0 1 1-2.326 0 1.163 1.219 0 0 1 2.326 0"/></svg>