<svg xmlns="http://www.w3.org/2000/svg" xmlns:xlink="http://www.w3.org/1999/xlink" width="16" height="16"><defs><linearGradient id="b"><stop offset="0" stop-color="#cacaca" style="stop-color:#e8e8e8;stop-opacity:1"/><stop offset="1" stop-color="#dcdcdc" stop-opacity="0" style="stop-color:#fff;stop-opacity:1"/></linearGradient><linearGradient xlink:href="#a" id="c" x1="12.007" x2="9.248" y1="12.806" y2="9.681" gradientTransform="matrix(1.0038 -.26946 .27133 .99688 -3.229 2.284)" gradientUnits="userSpaceOnUse"/><linearGradient id="a"><stop offset="0" stop-color="#cacaca"/><stop offset="1" stop-color="#dcdcdc" stop-opacity="0"/></linearGradient><linearGradient xlink:href="#b" id="d" x1="12.007" x2="9.248" y1="12.806" y2="9.681" gradientTransform="matrix(1.0038 -.26946 .27133 .99688 -3.27 2.554)" gradientUnits="userSpaceOnUse"/></defs><path fill="#eeeeec" fill-rule="evenodd" stroke="#888a85" stroke-linecap="round" stroke-linejoin="round" d="M3.5 4.5a1 1 0 1 1-2 0 1 1 0 0 1 2 0z" style="stroke:#555;stroke-opacity:1"/><path fill="none" stroke="#888a85" stroke-linecap="round" stroke-linejoin="round" d="m2.5 13.5 5-11h6" style="stroke:#555;stroke-opacity:1"/><path fill="#eeeeec" fill-rule="evenodd" stroke="#888a85" stroke-linecap="round" stroke-linejoin="round" d="M8.5 2.5a1 1 0 1 1-2 0 1 1 0 0 1 2 0zm6 0a1 1 0 1 1-2 0 1 1 0 0 1 2 0zm-11 11a1 1 0 1 1-2 0 1 1 0 0 1 2 0z" style="stroke:#555;stroke-opacity:1;fill:#fff;fill-opacity:1"/><path fill="url(#c)" stroke="#888a85" d="M11.83 6.757c-3.418 3.091-6.412 2.917-5.457 5.88.89 2.764 6.993 1.931 7.882-.696.916-2.704-.211-7.187-2.426-5.184Z" style="fill:url(#d);stroke:#555;stroke-opacity:1"/></svg>