<svg xmlns="http://www.w3.org/2000/svg" height="24" viewBox="4 4 24 24" width="24"><path d="M9.5 19.892c0 .836-.284 1.193-.631.792l-3.771-4.351a1.15 1.15 0 0 1 0-1.459l3.771-4.359c.347-.402.631-.045.631.792z" fill="#939598" stroke="#4f5052"/><path d="M9.341 8.199v15.156h12.514V8.199z" fill="#fff"/><path d="M9.5 8.5v15h12v-15z" fill="#fbf091" stroke="#c4a000" stroke-linecap="round" stroke-linejoin="round"/><path d="M12 11h7v3h-7z" fill="#b3b3b3"/><path d="M18 11v2h-2v1h3v-3z" opacity=".156"/><path d="M19 11v2h-2v1h3v-3z" opacity=".074"/><path d="M12 14h7v4h-7z" fill="#999"/><path d="M18 14v3h-2v1h3v-4z" opacity=".156"/><path d="M19 14v3h-2v1h3v-4z" opacity=".074"/><path d="M12 18h7v3h-7z" fill="gray"/><path d="M18 18v2h-2v1h3v-3z" opacity=".156"/><path d="M19 18v2h-2v1h3v-3z" opacity=".074"/></svg>