<svg xmlns="http://www.w3.org/2000/svg" height="128" width="128"><path d="M43.016 46.164h16.787V62.95H43.016zm25.18 0h16.788V62.95H68.197zm25.181 0h16.787V62.95H93.377zm-75.54 50.36h16.786v16.787H17.836zm25.18 0h16.786v16.787H43.016zm25.18 0h16.787v16.787H68.197zm-25.18-25.18h16.786v16.787H43.016zm25.18 0h16.787v16.787H68.197zm25.18 0h16.787v16.787H93.377zm-75.54 0h16.786v16.787H17.836zM110.163 0v8.393H93.377V0H34.623v8.393H17.836V0H3.148v128h121.704V0zm8.393 121.705H9.443V29.377h109.114z" fill="#555"/><circle r="23.004" cy="95" cx="91.25" fill="#fff" stroke="#000" stroke-width="2.16"/><path d="M91.25 68c14.87 0 27 12.046 27 27 0 14.87-12.13 27-27 27-14.954 0-27-12.13-27-27 0-14.954 12.046-27 27-27zm0 48.018c11.63 0 21.018-9.47 21.018-21.101 0-11.63-9.387-21.019-21.018-21.019-11.63 0-21.102 9.388-21.102 21.019 0 11.63 9.471 21.101 21.102 21.101zm7.975-17.778h-8.473c-.914 0-1.662-.332-2.16-.997l-9.554-10.385c-2.576-2.741 1.661-6.729 4.32-4.07l8.64 9.47h7.227c4.071 0 3.656 5.982 0 5.982zm-9.637-19.108c0-.83.748-1.578 1.579-1.578.83 0 1.578.748 1.578 1.578 0 .831-.747 1.579-1.578 1.579-.83 0-1.579-.748-1.579-1.579zm11.05 4.32c0-.83.747-1.578 1.578-1.578.83 0 1.579.748 1.579 1.578 0 .831-.748 1.579-1.579 1.579-.83 0-1.578-.748-1.578-1.579zm4.901 11.382c0-.83.748-1.579 1.579-1.579.83 0 1.578.748 1.578 1.579 0 .83-.748 1.578-1.578 1.578-.831 0-1.579-.747-1.579-1.578zm-4.403 11.132c0-.83.748-1.578 1.579-1.578.83 0 1.578.747 1.578 1.578 0 .83-.748 1.579-1.578 1.579-.831 0-1.579-.748-1.579-1.579zm-11.63 4.819c0-.831.747-1.579 1.578-1.579.83 0 1.578.748 1.578 1.579 0 .83-.747 1.578-1.578 1.578-.83 0-1.579-.748-1.579-1.578zm-10.8-4.32c0-.831.747-1.579 1.578-1.579.83 0 1.578.748 1.578 1.579 0 .83-.747 1.578-1.578 1.578-.83 0-1.579-.748-1.579-1.578zM73.72 94.834c0-.83.747-1.579 1.578-1.579.831 0 1.579.748 1.579 1.579 0 .83-.748 1.578-1.579 1.578-.83 0-1.578-.747-1.578-1.578z" fill="#555"/></svg>