<svg xmlns="http://www.w3.org/2000/svg" height="16" width="16" xmlns:v="https://vecta.io/nano"><path d="M2.207 1.203l-.707.705.484.486h.002l.693.7c-.255.317-.523.63-.682 1-.45 1.048-.4 2.174.314 2.88l.002.002L4.373 9l.703-.002 4.23-4.23-.002-.707-2.06-2.03c-.35-.348-.815-.548-1.313-.598s-1.027.044-1.553.27c-.37.158-.68.427-.996.682l-.693-.7V1.7zm3.63 1.22a1.12 1.12 0 0 1 .707.314l.004.002 1.7 1.678-3.525 3.527-1.707-1.686c-.342-.343-.44-1-.102-1.78a3.75 3.75 0 0 1 1.861-1.861c.393-.17.76-.225 1.06-.195zm3.317 3.564l-.705.705.354.352.707.707.338.34L8.43 9.506l-.338-.34-.707-.707-.354-.352-.705.705.354.352.707.707.338.34-.727.727.002.707 2.058 2.026c.35.35.816.552 1.314.602s1.027-.046 1.553-.27c.37-.158.68-.425.996-.68l.695.7v.002l.484.484.705-.703-.484-.486-.695-.695c.254-.317.523-.627.682-.996.45-1.048.4-2.174-.314-2.88l-.002-.004-2.06-2.033-.703.004-.678.678-.338-.34-.707-.707zm2.432 1.775l1.705 1.686c.34.344.44 1 .102 1.777a3.75 3.75 0 0 1-1.859 1.863c-.393.17-.76.223-1.06.193s-.534-.138-.7-.312l-.002-.004-1.7-1.68z" fill-opacity=".706" fill="#2c2c2c" fill-rule="evenodd"/><path d="M2.7 1.7v.002l.283.28zm3.145.732c-.3-.03-.667.026-1.06.195a3.75 3.75 0 0 0-1.861 1.861c-.338.788-.24 1.436.102 1.78l.283.28c-.34-.344-.437-1-.1-1.775S4.27 3.24 5.058 2.9c.393-.17.76-.225 1.06-.195s.534.14.7.314h.002l1.416 1.396.002-.002-1.704-1.68a1.12 1.12 0 0 0-.707-.314zm3.47 1.643l.002.703-4.23 4.23L4.373 9l.285.283.703-.002 4.23-4.23-.004-.707zM8.697 6.94l-.002.002.354.352.707.707.1.092.002-.002-.338-.34-.707-.707zm2.9.822L8.06 11.285l.25.246 3.52-3.52 1.473 1.455c-.005-.006-.008-.014-.014-.02zm2.432 1.006c.68.707.736 1.817.3 2.852-.158.37-.427.68-.682.996l.248.248c.254-.316.522-.626.68-.994.45-1.048.4-2.174-.314-2.88v-.004zm-7.44.293l-.002.002.354.352.707.707.1.092.002-.002-.338-.34-.707-.707zm.672 2.826v.008L9.31 13.92c.35.35.816.552 1.314.602s1.027-.046 1.553-.27c.37-.158.68-.425.996-.68l.695.7-.246-.248v-.002l-.695-.7c-.316.254-.627.52-.996.68-.525.226-1.056.32-1.553.27s-.965-.252-1.314-.602l.002.004zm6.615 2.377l.484.486.705-.703-.248-.248-.703.7z" fill-opacity=".424" fill-rule="evenodd" fill="gray"/></svg>