<svg xmlns="http://www.w3.org/2000/svg" width="16" height="16"><path d="M8.496 5.068a.5.5 0 00-.5.5v2.873l2.14 1.305a.5.5 0 01-.195.922l.345.204a.5.5 0 10.521-.853l-1.81-1.1V5.57a.5.5 0 00-.5-.5z" style="line-height:normal;font-variant-ligatures:normal;font-variant-position:normal;font-variant-caps:normal;font-variant-numeric:normal;font-variant-alternates:normal;font-variant-east-asian:normal;font-feature-settings:normal;font-variation-settings:normal;text-indent:0;text-align:start;text-decoration-line:none;text-decoration-style:solid;text-decoration-color:#000;text-transform:none;text-orientation:mixed;white-space:normal;shape-padding:0;shape-margin:0;inline-size:0;isolation:auto;mix-blend-mode:normal;solid-color:#000;solid-opacity:1" color="#000" font-weight="400" font-family="sans-serif" overflow="visible" fill="gray" fill-opacity=".424"/><path d="M7.496 8.718V5.09m2.38 5.083L7.5 8.723" fill="none" stroke="#2c2c2c" stroke-linecap="round" stroke-opacity=".706"/><path d="M7.941 2.242c-3.397 0-6.127 2.662-6.127 5.942 0 3.28 2.73 5.941 6.127 5.941 3.398 0 6.127-2.662 6.127-5.941 0-3.28-2.73-5.942-6.127-5.942zm.284.832c3.132 0 5.648 2.453 5.648 5.475s-2.516 5.474-5.648 5.474c-3.133 0-5.649-2.452-5.649-5.474 0-3.022 2.516-5.475 5.649-5.475z" style="line-height:normal;font-variant-ligatures:normal;font-variant-position:normal;font-variant-caps:normal;font-variant-numeric:normal;font-variant-alternates:normal;font-variant-east-asian:normal;font-feature-settings:normal;font-variation-settings:normal;text-indent:0;text-align:start;text-decoration-line:none;text-decoration-style:solid;text-decoration-color:#000;text-transform:none;text-orientation:mixed;white-space:normal;shape-padding:0;shape-margin:0;inline-size:0;isolation:auto;mix-blend-mode:normal;solid-color:#000;solid-opacity:1;anonymous:0" color="#000" font-weight="400" font-family="sans-serif" overflow="visible" fill="gray" fill-opacity=".424"/><ellipse ry="6.421" rx="6.607" cy="8.184" cx="7.942" fill="none" stroke="#2c2c2c" stroke-width=".958" stroke-opacity=".706"/></svg>