<svg height="16" width="16" xmlns="http://www.w3.org/2000/svg"><g fill="none" stroke="#2c2c2c" stroke-opacity=".705882"><path d="m6 11.5h-3.0117381c-3.27511753 0-3.35996503-7 0-7h5.0060089c1.7619181-.0000502 2.4898002 2.0889993 2.5057292 3.500348l-2-.000348c-.0254852-.7725807-.3922873-1.4943369-1.0063305-1.5h-4.0048068c-1.3460082 0-1.3209711 3 0 3h1.5111373"/><path d="m10.005676 4.5h3.011738c3.275118 0 3.359965 7 0 7h-5.0060088c-1.7619181.00005-2.4898002-2.0889993-2.5057292-3.500348l2 .000348c.025485.7725807.3922873 1.4943369 1.0063305 1.5h4.0048065c1.346008 0 1.320971-3 0-3h-1.511137"/></g></svg>