<svg height="16" width="16" xmlns="http://www.w3.org/2000/svg"><path d="M 2.3398438 2.5 C 1.8744838 2.5 1.5 2.8744838 1.5 3.3398438 L 1.5 13.660156 C 1.5 14.125516 1.8744838 14.5 2.3398438 14.5 L 10.40625 14.5 L 14.5 10.40625 L 14.5 3.3398438 C 14.5 2.8744838 14.125516 2.5 13.660156 2.5 L 2.3398438 2.5 z" fill="none" stroke="#2c2c2c" stroke-opacity=".70588237"/><path d="M 5.5,11.5 H 8" fill="#2e4e72" fill-rule="evenodd" stroke="#2c2c2c" stroke-width=".999998" stroke-linecap="square" stroke-linejoin="bevel" stroke-opacity=".706"/><path d="M5.5 5.5h6M5.5 8.5h6M12.5 3.5v-2M9.5 3.5v-2M6.5 3.5v-2M3.5 3.5v-2" fill="#2e4e72" fill-rule="evenodd" stroke="#2c2c2c" stroke-linecap="square" stroke-linejoin="bevel" stroke-opacity=".706"/><path d="m 13.560003,2.935202 -11.0570028,0.055 c -0.3260001,-0.035 -0.5630002,0.089 -0.5020001,0.5 v 10.015625 c -0.064,0.594 0.3963172,0.508116 0.5,0.5 H 3.0000003 V 3.990202 H 14.000001 v -0.5 c 0,-0.178 0.04698,-0.55 -0.499998,-0.5 z" fill="gray" fill-opacity="0.424"/><path d="M 9.9999998,10.499999 H 14" fill="#2e4e72" fill-rule="evenodd" stroke="#2c2c2c" stroke-width=".999997" stroke-linejoin="bevel" stroke-opacity=".706"/><path d="m 10.500002,11 v 3" fill="#2e4e72" fill-rule="evenodd" stroke="#2c2c2c" stroke-width=".999996" stroke-linejoin="bevel" stroke-opacity=".706"/></svg>