<svg xmlns="http://www.w3.org/2000/svg" width="89.451" height="89.451" viewBox="0 0 23.667 23.667"><path fill="param(fill) #939598" d="M12 23.834q-2.45 0-4.59-.928-2.139-.903-3.789-2.527-1.624-1.65-2.552-3.79Q.166 14.45.166 12t.903-4.59q.928-2.139 2.552-3.763 1.65-1.65 3.79-2.553Q9.55.166 12 .166t4.59.928q2.139.903 3.763 2.553 1.65 1.624 2.553 3.764.928 2.14.928 4.589t-.928 4.59q-.903 2.139-2.553 3.789-1.624 1.624-3.764 2.527-2.14.928-4.589.928m0-2.218q1.985 0 3.713-.747 1.753-.748 3.068-2.063 1.34-1.34 2.088-3.068.748-1.753.748-3.738t-.748-3.713Q20.12 6.534 18.78 5.22q-1.315-1.34-3.068-2.088-1.728-.748-3.713-.748t-3.738.748q-1.728.748-3.068 2.088Q3.879 6.534 3.13 8.287 2.384 10.015 2.384 12t.747 3.738q.748 1.727 2.063 3.068 1.34 1.315 3.068 2.063 1.753.747 3.738.747m0-13.818q-.567 0-1.005-.259-.413-.283-.413-1.005 0-.774.438-1.006.464-.257.98-.257 1.392 0 1.392 1.263 0 .722-.438 1.006-.438.258-.954.258zM10.685 18.47V8.984h2.604v9.487z" aria-label="🛈" style="font-size:2.75px;stroke-width:2.14845" transform="translate(-.166 -.166)"/></svg>
