<svg enable-background="new 0 0 24 24" height="16" viewBox="0 0 16 16" width="16" xmlns="http://www.w3.org/2000/svg"><path d="m6.171875 1.181641-.4746094.1347656-1.6464844 1.6796876a.50004997.50004997 0 0 0 -.203125.2070312l-3.79882808 3.8730469.15429688.8046875s.47831416.2024958 1.2714844.4453125c-.0000695.00988-.00195.019392-.00195.029297 0 3.5630417 2.9306265 6.4628907 6.5273438 6.4628907 3.5948798 0 6.5273438-2.899646 6.5273438-6.4628907 0-.013195-.0018-.0259-.002-.039063.792704-.2400737 1.271484-.4355468 1.271484-.4355468l.154341-.8046872-3.779297-3.8535157a.50004997.50004997 0 0 0 -.240234-.2441406l-1.628907-1.6621094-.4726559-.1347656s-.4992809.1089648-1.0253906.1875a.50005.50005 0 0 0 -.070312.011719c-.2410096.034271-.4750983.058656-.6777344.0625a.50004997.50004997 0 0 0 -.064453-.00391.50004997.50004997 0 0 0 -.048828.00391.50004997.50004997 0 0 0 -.00195 0c-.197255-.00386-.4239917-.02763-.658207-.060547a.50004997.50004997 0 0 0 -.078125-.0117188c-.5300043-.0786144-1.0332031-.1894532-1.0332031-.1894532zm.064453 1.015625c.035633.00846.1356663.028722.1875.041016l-.5156249 1.052734c-.236099-.038537-.457077-.0712317-.6367187-.1113281zm3.5292969 0 .9628911.9824219c-.179134.03999-.399447.072878-.634766.1113281l-.515625-1.0527344c.051794-.012275.1520178-.032591.1874999-.0410156zm-2.3164062.21875c.016349.00165.034292.0004241.050781.00195v1.0214875c-.1863138-.007108-.3677476-.0160014-.5390622-.0292969zm1.1035156 0 .4863281.9941406c-.1713389.013295-.352705.022189-.5390624.029297v-1.0195313c.017133-.00159.035752-.00219.052734-.00391zm2.9882817 1.5898438 1.1875 1.2109375c-.371748.1126497-.840846.2411779-1.511719.3632812l-.664063-1.3535156c.421408-.07909.768045-.1579132.988282-.2207031zm-7.0800786.00195c.2208031.062783.567621.1399185.9882813.21875l-.6640625 1.3554718c-.6710973-.1220352-1.1395223-.2525287-1.5117187-.3652343zm2.0234376.37305c.3055104.032436.6636373.043701 1.015625.056641v.5253902.8867188c-.6044505-.0164088-1.1731261-.0548766-1.6796875-.1152344zm3.03125 0 .664063 1.3535156c-.5065893.0603578-1.0751343.0988256-1.679688.1152344v-.8867188-.5253906c.3520149-.01294.7102053-.024205 1.015625-.056641zm-7.0292969 1.6386718c.3062759.1093845.8987074.2969011 1.84375.4863282l-.6542969 1.3339844c-.1507766-.0293734-.3143382-.0573375-.4550781-.0878907-1.2116266-.263031-1.5169715-.4226489-1.8808593-.5644531zm11.0292969 0 1.15625 1.1796876c-.415694.1591766-1.187652.4317537-2.335937.6601562l-.664063-1.3554688c.946174-.1897969 1.538835-.3753429 1.84375-.484375zm-8.1582031.6582032c.6361218.089322 1.3553927.1510184 2.1425781.171875v1.3886718c-1.0312497-.0224864-1.9668854-.1058809-2.796875-.2265624zm5.2832031 0 .664063 1.3535156c-.796471.112624-1.7329618.1905749-2.804688.2109375v-1.3925781c.7864929-.020835 1.504975-.082692 2.140625-.171875zm-8.1425781 2.1777344h1.1679687c.010664.00197.020607.00389.03125.00586a.50004997.50004997 0 0 0 .3105469.060547h.00195c.3560675.0604258.7674942.1031328 1.1660187.1503898.052696.6190762.1627976 1.233702.3535157 1.832031-.7145761.148374-1.381059.380021-1.984375.679687-.5780734-.778747-.9537521-1.7123251-1.046875-2.7285148zm9.8085941 0h1.195312c-.09315 1.015591-.469091 1.9480548-1.046875 2.7265618-.595264-.291019-1.263903-.517658-1.988281-.667969.193317-.603995.303023-1.2244605.355469-1.8496085.408536-.049803.828843-.095012 1.195312-.1582031a.50007746.50007746 0 0 0 .216797-.035156c.02689-.0049.04563-.010675.07227-.015625zm-2.4882816.3105468c-.0606764.5384424-.1675636 1.072705-.3476563 1.591796-.4677006-.054872-.9419611-.090645-1.421875-.09375-.5105873-.003302-1.0190387.032563-1.5214843.089844-.1787714-.516062-.2851123-1.0468823-.3457032-1.5820306.5500547.041317 1.112752.07761 1.7226563.080078.00135.0000055.00256-.0000052.00391 0a.50004997.50004997 0 0 0 .1972619-.00195h.00195c.6086346-.0028 1.1648033-.041395 1.7109375-.083984zm-1.7773438 2.498046c.3430899.0022.6846643.0268 1.0214844.05859-.280719.544799-.637461 1.061673-1.0625 1.542973-.4278322-.48425-.7847201-1.00428-1.0664062-1.552734.3656382-.03275.7367073-.05123 1.1074218-.04883zm-2.1367187.195313c.3035963.660242.688194 1.294266 1.171875 1.876953-1.0839184-.179876-2.0574151-.667849-2.828125-1.373047.4974491-.215855 1.0511612-.389358 1.65625-.503906zm4.1855471.0098c.611968.116628 1.16734.285537 1.658203.49414-.770809.704619-1.743194 1.193367-2.826172 1.373047.4811608-.579765.8650543-1.210556 1.167969-1.867187z" fill="#808080" fill-opacity=".423529"/><path d="m7.8662584 1.3333052c-1.5570517 0-2.7681832.542464-3.5467091 1.6106739-.5974733.7966312-.8342882 1.6668044-.8523934 3.1514352h2.4630673v-.0376451c-.072421-1.4665254.7948671-2.5867583 1.9898139-2.5867583 1.0863153 0 1.9010791.9043965 1.9010791 2.0812379 0 .8147365-.2171024 1.1584071-1.2853123 2.0274592-1.4303149 1.2311572-1.8451485 2.0454078-1.7908327 3.584354h2.2452632c0-1.1949464.126396-1.3934185 1.2127106-2.153839 1.683788-1.1949468 2.172662-1.9909116 2.172662-3.5117529 0-2.4623144-1.847876-4.1651649-4.5093486-4.1651649zm-1.3041349 10.8283528v2.643226h2.7158273v-2.643226z" fill="#6a6a6a" stroke-width="1.376736"/></svg>