<svg xmlns="http://www.w3.org/2000/svg" width="16" height="16"><path fill="#f0f0f0" d="M1.5 1.5h13v13h-13z" style="stroke:none"/><path d="M2 5h12v1H2zM2 10h12v1H2z" style="fill:#d0d0d0;fill-opacity:1;stroke-width:2;stroke-linecap:round;stroke-linejoin:round;stroke-opacity:.206937"/><path d="M2-6h12v1H2zM2-11h12v1H2z" style="fill:#d0d0d0;fill-opacity:1;stroke-width:2;stroke-linecap:round;stroke-linejoin:round;stroke-opacity:.206937" transform="rotate(90)"/><path d="M1.71 10.717s1.451-1.845 2.511-2.13c.785-.211 1.605.603 2.4.43.713-.154 1.172-1.069 1.802-1.243.849-.235 1.242-.859 1.468-1.528.292-.866.746-2.175 1.66-2.183.835-.008 1.209 1.497 1.554 1.966.345.47.956 1.277.956 1.277" style="fill:none;fill-opacity:1;stroke:#595959;stroke-width:1;stroke-linecap:round;stroke-linejoin:round;stroke-dasharray:none;stroke-opacity:1"/><path d="M1 1v14h14V1Zm1 1h12v12H2Z" style="color:#000;fill:#9a9a9a;-inkscape-stroke:none"/></svg>