<svg height="16" width="16" xmlns="http://www.w3.org/2000/svg"><path d="m14.803 3.392-.67.295-2.157-.29-1.737.087-3.168-.372-2.336 1.487-.985-.009-.792 3.142-1.957 2.99 2.143.044 6.505 1.734 5.352-.38z" fill="#f0f0f0"/><g fill="none"><g stroke="#aaa" stroke-width=".738" transform="matrix(.68177 0 0 .67412 .335 .152)"><path d="m13.053 4.715-3.673 3.635-2.66 3.262-.99 1.817-1.55 2.315m13.077-10.703-4.394 5.173-1.863 2.722-.952 4.106m10.19-11.799-.482 3.423-2.192 3.091-2.156 1.624-.758 2.046-.736 2.89"/><path d="m4.06 11.594 2.661.018 4.279 1.324c2.195-.35 4.378-.78 6.565-1.179l3.63 3.249m-14.978-8.12 4.044.6 2.682 2.523 6.813-1.343 1.794 1.944"/></g><path d="m14.803 3.391-.964.223-1.863-.217-1.737.086-3.168-.372-2.335 1.489-.986-.01-.79 3.142-1.96 2.99 2.143.044 6.505 1.734 5.352-.38z" stroke="#9a9a9a" stroke-linecap="round" stroke-linejoin="round"/></g></svg>