<svg height="32" viewBox="0 0 32 32" width="32" xmlns="http://www.w3.org/2000/svg">
<path d="m16 2c-8.837 0-16.00000002 5.82-16.00000002 13 0 7.18 7.16300002 13 16.00000002 13 .849 0 1.682-.054 2.495-.158 3.437 3.437 7.539 4.053 11.505 4.144v-.841c-2.142-1.049-4-2.961-4-5.145 0-.305.024-.604.068-.897 3.619-2.383 5.932-6.024 5.932-10.103 0-7.18-7.163-13-16-13z" fill="#666"/>
<g fill="#fff" transform="translate(.32078538 .15286392)">
<path d="m-3.0278292 9.9146566c0 1.0820274-.8904466 1.9591834-1.9888682 1.9591834-1.0984216 0-1.9888682-.877156-1.9888682-1.9591834 0-1.0820272.8904466-1.9591837 1.9888682-1.9591837 1.0984216 0 1.9888682.8771565 1.9888682 1.9591837z" transform="matrix(1.2569963 0 0 1.2760417 14.371833 1.9363579)"/>
<path d="m-3.0278292 9.9146566c0 1.0820274-.8904466 1.9591834-1.9888682 1.9591834-1.0984216 0-1.9888682-.877156-1.9888682-1.9591834 0-1.0820272.8904466-1.9591837 1.9888682-1.9591837 1.0984216 0 1.9888682.8771565 1.9888682 1.9591837z" transform="matrix(1.2569963 0 0 1.2760417 21.94558 1.9363579)"/>
<path d="m-3.0278292 9.9146566c0 1.0820274-.8904466 1.9591834-1.9888682 1.9591834-1.0984216 0-1.9888682-.877156-1.9888682-1.9591834 0-1.0820272.8904466-1.9591837 1.9888682-1.9591837 1.0984216 0 1.9888682.8771565 1.9888682 1.9591837z" transform="matrix(1.2569963 0 0 1.2760417 29.519328 1.9363579)"/>
</g>
</svg>
