<?xml version="1.0" encoding="UTF-8"?>
<svg width="16" height="16" version="1.1" xml:space="preserve" xmlns="http://www.w3.org/2000/svg"><ellipse cx="8" cy="8" rx="2" ry="2" fill="#6d97c4" stroke="#415a75" stroke-linecap="round" stroke-linejoin="round" stroke-width="2" style="paint-order:stroke fill markers"/><g fill-opacity="0" stroke="#415a75" stroke-width="1px"><path d="m3.4 3.4026c-2.1961 2.13-2.8729 6.329 0 9.2001"/><path d="m4.8184 4.8156c-1.7645 1.8074-1.7713 4.4684-0.018388 6.3802"/><path d="m12.585 12.597c2.1961-2.13 2.8729-6.329 0-9.2001"/><path d="m11.167 11.184c1.7645-1.8074 1.7713-4.4684 0.01839-6.3802"/></g><path d="m8 10c-0.68223-0.21791-1.0082-1.1123-1-2 0.0083867-0.9033 0.36254-1.7999 1-2-1.2889 0.020622-2.0076 1.0366-2 2 0.007328 0.93908 0.65835 1.9488 2 2z" fill="#bacee3"/></svg>
