<svg height="24" width="24" xmlns="http://www.w3.org/2000/svg"><g transform="translate(0 -8)"><g stroke="#6e97c4"><path d="m2.5 15.5h19v14h-19z" fill="#e6e6e6"/><path d="m2.5 10.5h19v5h-19z" fill="#bad9ec"/><path d="m5 13h4" fill="none" stroke-width="2"/><path d="m11 13h8" fill="none" stroke-width="2"/><path d="m5 17.5h4" fill="none"/><path d="m11 17.5h8" fill="none"/><path d="m5 20.5h4" fill="none"/><path d="m11 20.5h8" fill="none"/><path d="m5 23.5h4" fill="none"/><path d="m11 23.5h8" fill="none"/><path d="m5 26.5h4" fill="none"/><path d="m11 26.5h8" fill="none"/></g><path d="m6.5 9.5h5v21h-5z" fill="#e0ce7c" fill-rule="evenodd" stroke="#c4a000" stroke-linecap="round"/><path d="m8 13h2" fill="none" stroke="#fff" stroke-width="2"/></g><path d="m7.49 23c.829-.0037 2.19-.0037 3.02 0 .829.0037.151.0068-1.51.0068-1.66 0-2.34-.003-1.51-.0068z" fill="#ff0" stroke-width=".0255"/><path d="m6.02 12v-11h5.98v22h-5.98zm4.99 0v-10h-4.02v20h4.02z" fill="#ff0" opacity=".716" stroke-width=".0255"/><path d="m7.01 12v-10h3.97v20h-3.97zm2.99-7v-1.01h-2.01l-.00667.98c-.00367.539-.00111.994.00568 1.01.00972.0253.225.0308 1.01.0255l1-.00666z" opacity="0" stroke-width=".0255"/><path d="m6.02 1.01v22h5.98v-3.12c-.0252-.0787-.0519-.149-.0742-.246-.0484-.21-.0394-.428-.0508-.643-.0107-.201-.0235-.404-.0137-.605.0198-.406.0678-.614.139-.861v-16.5h-2.99zm.967.992h4.02v20h-4.02v-10z" fill="#ff0" opacity=".651" stroke-width=".0255"/><g stroke-width=".0509"><path d="m6.02 12v-11h5.96v21.9h-5.96zm4.99 0v-10h-4.02v20h4.02z" opacity="0"/><path d="m6.02 12v-11h5.96v21.9h-5.96zm4.99 0v-10h-4.02v20h4.02z" opacity="0"/><path d="m6.02 12v-11h5.96v21.9h-5.96zm4.99 0v-10h-4.02v20h4.02z" opacity="0"/><path d="m6.02 12v-11h5.96v21.9h-5.96zm4.99 0v-10h-4.02v20h4.02z" fill="#ffff0c" opacity=".268"/><path d="m7.03 12v-10h3.97v20h-3.97zm3-7v-1.02h-2.04v2.04h2.04z" fill="#fffffe" opacity=".268"/><path d="m7.03 12v-10h3.97v20h-3.97zm2.98-7v-.993l-1.01-.0138-1.01-.0138v2.04l1.01-.0138 1.01-.0138z" fill="#fffffe" opacity=".268"/><path d="m6.01 12v-11l2.99.0000003 2.99.0000003v21.9h-2.99l-2.99-.000001zm4.99 0v-10h-4.02v20h4.02z" fill="#fffffe" opacity=".268"/><path d="m6.01 12v-11h5.96v21.9h-5.96zm4.99 0v-10h-4.02v20h4.02z" fill="#fffffe" opacity=".268"/><path d="m6.01 12v-11h5.96v21.9h-5.96zm4.99 0v-10h-4.02v20h4.02z" fill="#fffffe" opacity=".268"/><path d="m6.01 12v-11h5.96v21.9h-5.96zm4.99 0v-10h-4.02v20h4.02z" fill="#ffff40" opacity=".268"/><path d="m6.01 12v-11h5.96v21.9h-5.96zm4.99 0v-10h-4.02v20h4.02z" fill="#ffff40" opacity=".268"/><path d="m6.01 12v-11h5.96v21.9h-5.96zm4.99 0v-10h-4.02v20h4.02z" fill="#ffff3b" opacity=".268"/></g></svg>