<svg height="24" viewBox="0 0 24 24" width="24" xmlns="http://www.w3.org/2000/svg">
<path d="m12.685501 5.1983625c0 0-.224401-.4809417-.685503-.4808976-.461098 0-.686069.4808534-.686069.4808534l-7.6459722 13.1210397c0 0-.3081362.432995-.077603.828658.2305679.395625.7634195.348151.7634195.348151l15.2926327.000475c0 0 .532589.04792.763114-.347722.230568-.395581-.0773-.829005-.0773-.829005z" fill="#414141" stroke="#141414" stroke-linecap="round" stroke-linejoin="round"/>
<path d="m13.017717 16.940973a1.0543238 1.0543238 0 0 1 -1.054322 1.054324 1.0543238 1.0543238 0 0 1 -1.054324-1.054324 1.0543238 1.0543238 0 0 1  1.054324-1.054324 1.0543238 1.0543238 0 0 1  1.054322 1.054324z" fill="#fff" stroke-width=".03831315"/>
<path d="m11.839399 4.9687509l-7.9956492 13.7437911.2203525.349958.7554945-.063629 7.6179022-13.3302048z" fill="#dfdfdf" fill-opacity=".11023619"/>
<path d="m12.685501 5.1983626c0 0-.224401-.4809417-.685503-.4808976-.461098 0-.686069.4808534-.686069.4808534l-7.6459722 13.1210396c0 0-.3081362.432995-.077603.828658.2305679.395625.7634195.348151.7634195.348151l15.2926327.000475c0 0 .532589.04792.763114-.347722.230568-.395581-.0773-.829005-.0773-.829005z" fill="none" stroke="#141414" stroke-linecap="round" stroke-linejoin="round"/>
<path d="m11.328125 8.9179688c-.112159.0004133-.217681.202329-.214844.3144531l.154297 5.5019531c.0035.106058.206412.237795.3125.240234l.738281-.0078c.108389.0018.370346-.09873.375-.207031l.265625-5.5234399c.0051-.1136356-.116725-.3352534-.230468-.3339843z" fill="#fff" overflow="visible"/>
</svg>
