<?xml version="1.0" encoding="UTF-8"?>
<svg width="24" height="24" viewBox="0 0 24 24" xmlns="http://www.w3.org/2000/svg">
 <path d="m12.686 5.1984s-0.2244-0.48094-0.6855-0.4809c-0.4611 0-0.68607 0.48085-0.68607 0.48085l-7.646 13.121s-0.30814 0.433-0.077603 0.82866c0.23057 0.39562 0.76342 0.34815 0.76342 0.34815l15.293 4.75e-4s0.53259 0.04792 0.76311-0.34772c0.23057-0.39558-0.0773-0.829-0.0773-0.829z" fill="#414141" stroke="#141414" stroke-linecap="round" stroke-linejoin="round"/>
 <path d="m13.018 16.941a1.0543 1.0543 0 0 1-1.0543 1.0543 1.0543 1.0543 0 0 1-1.0543-1.0543 1.0543 1.0543 0 0 1 1.0543-1.0543 1.0543 1.0543 0 0 1 1.0543 1.0543z" fill="#fff" stroke-width=".038313"/>
 <path d="m11.839 4.9688-7.9956 13.744 0.22035 0.34996 0.75549-0.063629 7.6179-13.33z" fill="#dfdfdf" fill-opacity=".11024"/>
 <path d="m12.686 5.1984s-0.2244-0.48094-0.6855-0.4809c-0.4611 0-0.68607 0.48085-0.68607 0.48085l-7.646 13.121s-0.30814 0.433-0.077603 0.82866c0.23057 0.39562 0.76342 0.34815 0.76342 0.34815l15.293 4.75e-4s0.53259 0.04792 0.76311-0.34772c0.23057-0.39558-0.0773-0.829-0.0773-0.829z" fill="none" stroke="#141414" stroke-linecap="round" stroke-linejoin="round"/>
 <path d="m11.328 8.918c-0.11216 4.133e-4 -0.21768 0.20233-0.21484 0.31445l0.1543 5.502c0.0035 0.10606 0.20641 0.2378 0.3125 0.24023l0.73828-0.0078c0.10839 0.0018 0.37035-0.09873 0.375-0.20703l0.26562-5.5234c0.0051-0.11364-0.11672-0.33525-0.23047-0.33398z" fill="#fff" overflow="visible"/>
</svg>
