<?xml version="1.0" encoding="UTF-8"?>
<svg width="24" height="24" viewBox="0 0 24 24" xmlns="http://www.w3.org/2000/svg">
 <g transform="translate(-55 -17)">
  <circle cx="67.499" cy="28.471" r="6.975" fill="#414141" stroke="#141414" stroke-linecap="round" stroke-linejoin="round"/>
  <path d="m71.739 24.648 0.30908 0.28413c-0.78036 0.76278-1.445 1.6543-2.4528 3.0778-1.1433 1.614-1.6475 2.5248-2.1902 3.8599l-0.1999 1.0021c-0.43385 0.33631-1.0535-0.02779-1.2049 0.1276-0.09244-0.19339-0.2813-0.50247-0.56486-0.92952-0.74942-1.1148-1.8347-2.0965-2.8674-2.5759 0.4883-0.55805 0.96355-0.86997 1.4218-0.92952 0.39529-0.05161 1.5006 0.85693 2.0967 1.6866l0.29604 0.4157c0.70437-1.3299 2.011-2.9201 2.6559-3.6069 0.61193-0.64993 1.4881-1.6271 2.7007-2.412z" fill="#fff"/>
  <path d="m67.604 21.953c-3.6478 0-6.6172 2.9674-6.6172 6.6152 0 0.0929 0.0099 0.18341 0.01367 0.27539a10.266 9.4844 0 0 1 2.998-4.584c0.02447-0.02048 0.0494-0.04048 0.07422-0.06055a10.266 9.4844 0 0 1 4.498-2.166c-0.31637-0.04664-0.63767-0.08008-0.9668-0.08008z" fill="#dfdfdf" fill-opacity=".11024" overflow="visible"/>
  <ellipse cx="72.547" cy="32.75" rx="7.9844" ry="7.25" fill="none"/>
 </g>
</svg>
