<svg xmlns="http://www.w3.org/2000/svg" height="24" width="24" xmlns:v="https://vecta.io/nano"><path d="M6.203 8.849q-1.115 0-1.558.286-.442.286-.442.98 0 .517.306.823.307.307.831.307.789 0 1.225-.592Q7 10.054 7 8.986V8.85zm2.777-.768v4.348H7v-.849q-.361.503-.926.775-.564.272-1.245.272-1.299 0-2.028-.687-.721-.687-.721-1.919 0-1.334.864-1.966.864-.64 2.674-.64H7v-.334q0-.483-.354-.728-.347-.252-1.028-.252-.715 0-1.388.183-.666.177-1.395.572V5.155q.66-.272 1.34-.401.68-.13 1.442-.13 1.858 0 2.607.756.755.755.755 2.701z" opacity=".6" fill="#555" stroke="#c8c8c8" stroke-width="1.645" stroke-linejoin="round"/><path d="M6.254 8.847q-1.115 0-1.558.286-.442.286-.442.98 0 .517.306.823.307.307.831.307.789 0 1.225-.592.435-.599.435-1.668v-.136zm2.777-.768v4.348h-1.98v-.849q-.361.503-.926.775-.564.272-1.245.272-1.299 0-2.028-.687-.721-.687-.721-1.919 0-1.334.864-1.966.864-.64 2.674-.64h1.382v-.334q0-.483-.354-.728-.347-.252-1.028-.252-.715 0-1.388.183-.666.177-1.395.572V5.153q.66-.272 1.34-.401.68-.13 1.442-.13 1.858 0 2.607.756.755.755.755 2.701z" fill="#2e3436"/><path d="M17.58 11.945l-.946 4.158h1.897zm-1.225-1.836h2.457l2.742 10.159h-2.007l-.627-2.511h-2.688l-.613 2.511h-2.007z" opacity=".6" fill="#555" stroke="#c8c8c8" stroke-width="1.645" stroke-linejoin="round"/><path d="M17.572 12.003l-.946 4.158h1.897zm-1.225-1.836h2.457l2.742 10.159h-2.007l-.627-2.511h-2.687l-.613 2.511h-2.007z" fill="#2e3436"/><path d="M8.797 20.18L15.903 3.6" opacity=".6" fill="#555" stroke="#c8c8c8" stroke-width="3" stroke-linecap="round" stroke-linejoin="round"/><path d="M8.627 20.521l7.355-17.211" fill="#2e3436" stroke="#2e3436" stroke-width="1.5" stroke-linejoin="bevel"/></svg>