<svg height="16" width="16" xmlns="http://www.w3.org/2000/svg">
<g stroke-linecap="round" stroke-linejoin="round" stroke-width=".75" transform="translate(0 -16)">
<path d="m8 16.5c-1.7024958 0-3.2724385.575419-4.53125 1.53125l4.53125 4.53125 4.53125-4.53125c-1.258812-.955831-2.828754-1.53125-4.53125-1.53125z" fill="#ef2929" overflow="visible" stroke="#a40000"/>
<path d="m2.03125 19.46875c-.9558315 1.258811-1.53125 2.828754-1.53125 4.53125 0 3.804875 2.8281132 6.950887 6.5 7.4375l0-7-4.96875-4.96875z" fill="#8ae234" overflow="visible" stroke="#4e9a06"/>
<path d="m13.96875 19.46875l-4.75 4.75a1.016466 1.016466 0 0 1 -.21875.15625l0 7.0625c3.671887-.486613 6.5-3.632625 6.5-7.4375 0-1.702496-.575419-3.272439-1.53125-4.53125z" fill="#fce94f" overflow="visible" stroke="#c4a000"/>
</g>
</svg>
