<?xml version="1.0" encoding="UTF-8"?>
<svg width="16" height="16" xmlns="http://www.w3.org/2000/svg">
 <g transform="translate(0 -16)" stroke-linecap="round" stroke-linejoin="round" stroke-width=".75">
  <path d="m8 16.5c-1.7025 0-3.2724 0.57542-4.5312 1.5312l4.5312 4.5312 4.5312-4.5312c-1.2588-0.95583-2.8288-1.5312-4.5312-1.5312z" fill="#ef2929" overflow="visible" stroke="#a40000"/>
  <path d="m2.0312 19.469c-0.95583 1.2588-1.5312 2.8288-1.5312 4.5312 0 3.8049 2.8281 6.9509 6.5 7.4375v-7l-4.9688-4.9688z" fill="#8ae234" overflow="visible" stroke="#4e9a06"/>
  <path d="m13.969 19.469-4.75 4.75a1.0165 1.0165 0 0 1-0.21875 0.15625v7.0625c3.6719-0.48661 6.5-3.6326 6.5-7.4375 0-1.7025-0.57542-3.2724-1.5312-4.5312z" fill="#fce94f" overflow="visible" stroke="#c4a000"/>
 </g>
</svg>
