<svg xmlns="http://www.w3.org/2000/svg" height="24" width="24"><linearGradient id="a" gradientUnits="userSpaceOnUse" x1="7.556" x2="10.054" y1="-7.902" y2="-6.105" gradientTransform="translate(8 9)"><stop offset="0" stop-color="#ff8f8f"/><stop offset="1" stop-color="#898787" stop-opacity=".996"/></linearGradient><path d="M9.008 4.992a2.5 2.5 0 0 0-2.5 2.5c0 .36.364.69.5 1h-5v5c.31-.137.64-.5 1-.5a2.5 2.5 0 1 1 0 5c-.36 0-.69-.364-1-.5v5h14v-5c.31.136.64.5 1 .5a2.5 2.5 0 1 0 0-5c-.36 0-.69.363-1 .5v-5h-5c.137-.31.5-.64.5-1a2.5 2.5 0 0 0-2.5-2.5z" overflow="visible" fill="#afafaf" stroke="#3c3c3c" stroke-width=".75" stroke-linecap="round" stroke-linejoin="round"/><path d="M3.008 11.492v-2h3" overflow="visible" fill="#afafaf" stroke="#fff" stroke-width=".75" stroke-linecap="round" stroke-linejoin="round"/><path d="M3.008 21.492v-2M11.008 9.492h3" overflow="visible" fill="#e8e8e8" stroke="#fff" stroke-width=".75" stroke-linecap="round" stroke-linejoin="round"/><path overflow="visible" d="M18.402 11.693l-2.358-2.688-3.552.42L14.32 6.35l-1.497-3.248 3.489.788 2.626-2.427.329 3.561 3.12 1.748L19.1 8.186z" fill="#fafafa" stroke="#3c3c3c" stroke-width=".75" stroke-linecap="round" stroke-linejoin="round"/></svg>