<svg height="24" width="24" xmlns="http://www.w3.org/2000/svg"><g stroke-linecap="round" stroke-linejoin="round" stroke-width=".75"><path d="m9.47 3.913a2.5 2.5 0 0 0 -2.5 2.5c0 .36.364.69.5 1h-5v5c.31-.137.64-.5 1-.5a2.5 2.5 0 1 1 0 5c-.36 0-.69-.364-1-.5v5h14v-5c.31.136.64.5 1 .5a2.5 2.5 0 1 0 0-5c-.36 0-.69.363-1 .5v-5h-5c.137-.31.5-.64.5-1a2.5 2.5 0 0 0 -2.5-2.5z" fill="#afafaf" stroke="#3c3c3c"/><path d="m3.47 10.413v-2h3" fill="#afafaf" stroke="#fff"/><path d="m3.47 20.413v-2m8-10h3" fill="#e8e8e8" stroke="#fff"/><path d="m18.864 10.614-2.358-2.688-3.552.42 1.828-3.075-1.497-3.248 3.489.788 2.626-2.427.329 3.56 3.12 1.749-3.287 1.414z" fill="#fafafa" stroke="#3c3c3c"/></g></svg>