<svg width="32" height="32" xmlns="http://www.w3.org/2000/svg"><defs><linearGradient id="a" x1="16" x2="16" y1="21.6" y2="-2.32" gradientUnits="userSpaceOnUse"><stop stop-color="#d12a03" offset="0"/><stop stop-color="#fff" offset="1"/></linearGradient></defs><path d="m8.11 23.9 15.8-15.9" fill="none" overflow="visible" stroke="#961702" stroke-linecap="round" stroke-opacity=".906" stroke-width="6"/><path d="m29.5 16c0 7.46-6.04 13.5-13.5 13.5-7.46 0-13.5-6.04-13.5-13.5 0-7.46 6.04-13.5 13.5-13.5 7.46 0 13.5 6.04 13.5 13.5z" fill="none" overflow="visible" stroke="#961702" stroke-linecap="round" stroke-opacity=".906" stroke-width="5"/><path d="m16 .525c-8.52 0-15.5 6.95-15.5 15.5 0 8.52 6.95 15.5 15.5 15.5 8.52 0 15.5-6.95 15.5-15.5 0-8.52-6.95-15.5-15.5-15.5zm0 4c2.26 0 4.36.657 6.13 1.78l-15.8 15.8a2.5 2.5 0 0 0 -.0195 .0215c-1.13-1.78-1.8-3.89-1.8-6.17 0-6.36 5.11-11.5 11.5-11.5zm9.68 5.3c1.13 1.78 1.8 3.89 1.8 6.17 0 6.36-5.11 11.5-11.5 11.5-2.26 0-4.36-.657-6.13-1.78a2.5 2.5 0 0 0 .0195 -.0176l15.8-15.8z" color="#000000" color-rendering="auto" dominant-baseline="auto" fill="url(#a)" image-rendering="auto" shape-rendering="auto" solid-color="#000000" style="font-feature-settings:normal;font-variant-alternates:normal;font-variant-caps:normal;font-variant-ligatures:normal;font-variant-numeric:normal;font-variant-position:normal;isolation:auto;mix-blend-mode:normal;shape-padding:0;text-decoration-color:#000000;text-decoration-line:none;text-decoration-style:solid;text-indent:0;text-orientation:mixed;text-transform:none;white-space:normal"/></svg>
