<svg xmlns="http://www.w3.org/2000/svg" height="24" width="24"><path d="M17.5 7.5c3-3 5 0 5 3v-5c0-2-3-2-5-1v3z" stroke-linejoin="round" stroke-linecap="round" stroke-width=".75" stroke="#3c3c3c" fill="#cdcdcd"/><path d="M8.5 3A2.5 2.5 0 0 0 6 5.5c0 .36.363.69.5 1h-5v5c.31-.137.64-.5 1-.5a2.5 2.5 0 1 1 0 5c-.36 0-.69-.363-1-.5v5h14v-5c.31.137.64.5 1 .5a2.5 2.5 0 1 0 0-5c-.36 0-.69.363-1 .5v-5h-5c.137-.31.5-.64.5-1A2.5 2.5 0 0 0 8.5 3z" overflow="visible" stroke-linejoin="round" stroke-linecap="round" stroke-width=".75" stroke="#3c3c3c" fill="#afafaf"/><path d="M2.5 9.5v-2h3" overflow="visible" stroke-linejoin="round" stroke-linecap="round" stroke-width=".75" stroke="#fff" fill="#afafaf"/><path d="M2.5 19.5v-2m8-10h3" overflow="visible" stroke-linejoin="round" stroke-linecap="round" stroke-width=".75" stroke="#fff" fill="#dcdcdc"/><path d="M22.5 11.5c-.91 4.526-4.508 5.134-9 5v3l-7-6 7-6v3c3.716.064 8.055.517 9-4v5z" stroke-linejoin="round" stroke-linecap="round" stroke-width=".75" stroke="#3c3c3c" fill="#ebebeb"/></svg>