<svg xmlns="http://www.w3.org/2000/svg" viewBox="0 0 24 24" width="24" height="24"><path d="M11.158 1.5l-.803 2.234.012.13.39 1.94-2.26.934-1.095-1.646-.084-.098L5.17 3.98 3.98 5.17l1.014 2.148.098.084 1.646 1.096-.935 2.258-1.94-.39-.13-.01-2.233.802v1.684l2.234.803.13-.012 1.94-.39.934 2.26-1.646 1.095-.098.084L3.98 18.83l1.19 1.19 2.148-1.014.084-.098 1.096-1.646 2.258.935-.39 1.94-.01.13.802 2.233h1.684l.803-2.234-.012-.13-.39-1.94 2.26-.934 1.095 1.646.084.098 2.148 1.014 1.19-1.19-1.014-2.148-.098-.084-1.646-1.096.935-2.258 1.94.39.13.01 2.233-.802v-1.684l-2.234-.803-.13.012-1.94.39-.934-2.26 1.646-1.095.098-.084L20.02 5.17l-1.19-1.19-2.148 1.014-.084.098-1.096 1.646-2.258-.935.39-1.94.01-.13-.802-2.233h-1.684zm.842 8a2.5 2.5 0 0 1 2.5 2.5 2.5 2.5 0 0 1-2.5 2.5A2.5 2.5 0 0 1 9.5 12 2.5 2.5 0 0 1 12 9.5z" fill="#98b5d8" stroke="#457abe"/></svg>