<svg width="16" height="16" xmlns="http://www.w3.org/2000/svg"><path d="m.0113 4.78 2.6-1.67.425 1.61-2.6 1.67z" fill="#666667" stroke-width="0"/><path d="m4.85 1.62 2.51-1.61.441 1.6-2.51 1.61z" fill="#666667" stroke-width="0"/><circle cx="9" cy="10" r="6" fill="#71c9f1" stroke-width="0"/><path d="m10.8 4.27c.0042.00845.0781.105.119.141.115.099.262.16.404.217.0889.0355.116.0795.223.133.132.0659.254.134.395.182.0404.0138.143.0675.184.0391.018-.0126.0208-.0494.0156-.0898-.415-.259-.865-.469-1.34-.621zm-1.32.166c-.0761.00509-.15.0215-.209.0605-.0418.0275-.0661.0655-.0586.121.0131.0964.193.0794.26.0957.191.0466.348.134.498.262.225.191.426.358.703.469.0444.0178.133.0373.113-.0371-.0275-.105-.123-.0886-.141-.213-.0074-.0518.0011-.103-.0078-.154-.0488-.282-.4-.432-.635-.527-.0949-.0385-.2-.0662-.303-.0723-.0673-.00393-.145-.009-.221-.00391zm-.539.0332c-.0323.00857-.0631.0258-.0879.0371-.114.0522-.234.0187-.35.0547-.0301.00932-.0777.0334-.0801.0703-.00314.0483.066.0612.0996.0742.0521.0201.0943.063.154.0508.0481-.00975.0859-.0452.135-.0547.0563-.0109.113-.0191.156-.0605.0318-.0306.118-.121.0645-.162-.0259-.0199-.0595-.0183-.0918-.00977zm-2.09.266c-.0387-.0065-.0807-.00315-.131.0156-.142.0533-.229.126-.354.18-.12.0515-.255.0583-.375.115-.121.0577-.0506.273-.146.377-.117.127-.311.122-.469.137-.0394.00378-.298.00883-.305.0508-.01.0657.649-.00639.695-.0195.106-.0302.183-.107.285-.146.122-.0467.268-.0667.33.0664.0725.156.0143.309-.041.459-.0624.169-.0414.209.00391.377.0283.105.00917.171-.0352.27-.11.245-.415.679-.303.967.0858.22.278.409.428.586.102.12.0859.238.158.377.0683.131.169.257.252.381.119.177.145.406.287.568.125.142.505.396.701.402.0594.0019.113-.0554.17-.0488.179.0205.286.192.441.262.142.064.336.011.455.123.149.14.162.352.389.414.113.0307.258-.0208.363.0312.305.151.0986.505 0 .703-.102.206-.21.446-.166.682.0378.204.193.336.301.502.0934.144.121.333.277.428.123.0743.363.0802.434.219.0785.154-.0969.39-.135.539-.048.188-.107.375-.166.561-.0586.185-.157.314-.238.482-.0668.139-.255.685.0293.66.404-.0361.555-.568.9-.697.0711-.0266.667-.47.773-.559.107-.0888.373-.194.408-.301.0356-.107.17-.187.215-.373.0511-.214.388-.273.535-.418.201-.198.301-.49.406-.746.0893-.218.281-.385.336-.621.069-.298-.162-.368-.443-.395-.2-.019-.434.0051-.625-.0684-.221-.0854-.12-.274-.25-.428-.101-.12-.295-.157-.432-.227-.186-.0945-.366-.205-.568-.26-.21-.0571-.461.0089-.645.111-.0575.0321-.19.142-.258.0879-.0715-.0567.0538-.293-.111-.234-.151.0533-.221.283-.346.266-.148-.0212-.269-.065-.42-.0527-.132.0107-.261.0432-.354-.0801-.0975-.13-.00908-.294-.0703-.428-.105-.23-.376-.0085-.541-.111.118-.089.23-.245.236-.396.0064-.141-.0907-.247-.227-.156-.0745.0498-.0718.142-.127.203-.0954.106-.589.134-.625-.0566-.034-.178-.101-.51-.0156-.68.0656-.131.149-.285.297-.336.151-.0516.357.00781.525-.0352.145-.0369.307-.0851.449-.0156.145.0709.169.23.23.369.0355.0799.168.186.133-.0273-.0278-.167-.183-.37-.102-.533.0734-.146.25-.193.344-.318.0923-.123.0259-.281.0957-.41.0695-.129.233-.17.297-.305.0312-.0657.175-.453.316-.33.0602.0519.0229.118.117.0527.0385-.0268.183-.127.0977-.174-.0784-.0433-.215.0269-.258-.082-.0742-.188.273-.284.318-.42.0267-.0799.0267-.108-.178-.188-.14-.0549-.288-.357-.43-.348-.0789.00514-.0631.0931-.113.107-.119.034-.184-.147-.266-.209-.0592-.045-.281-.141-.354-.0859-.175.133.294.805-.0371.932-.0814.0311-.251-.315-.365-.361-.183-.0748-.495-.0493-.488-.338.00691-.281.36-.197.443-.389.0742-.17-.187-.432-.34-.393-.00835.0424.0208.142-.00586.174-.0836.0999-.606.00254-.721-.0332-.197-.0616-.407-.104-.588-.207-.118-.0669-.195-.178-.311-.197zm.955.0723c-.101.0562-.104.0833.00586.137.101.0492.203.0912.312.117.0608.0144.183.0136.125-.082-.049-.0807-.191-.114-.273-.145-.0447-.0165-.16-.0328-.17-.0273zm1.09.0684c-.0477.00266-.082.0192-.0859.0566-.0103.0977.185.113.244.129.0936.0245.244.099.27.203.0176.072-.0819.162.0566.162.0622 0 .195.0352.195.0352s.0639.0342.117.0254c.15-.0249-.0983-.261-.135-.301-.0683-.075-.103-.149-.201-.189-.0399-.0162-.318-.129-.461-.121zm3.54.209c-.000401.0161.0058.0416.0117.0684.0127.0566.027.124-.0039.148-.0563.0444-.14-.0372-.182-.0703-.0336-.0269-.101-.0995-.148-.0762-.0806.0397.197.239.221.262.0384.0365.0662.0841.107.117.082.0658.0975-.0125.156-.0527.0897-.0615.17.0533.213.115.0655.0956.107.203.18.295.0831.105.165.208.234.324.0724.122.144.246.236.354.06.0699.174.112.199.0898.0439-.0384-.021-.112-.0352-.15-.0392-.107-.112-.195-.164-.295-.0524-.1-.118-.334-.119-.342-.275-.292-.578-.555-.906-.787zm1.35 1.31c-.000454.0093.0029.207.0078.299.0094.171.0311.343.0859.506.0263.0784.0716.151.0996.229.066.183.0283.381.0645.568.0356.185.159.333.213.512.05.165.0194.357.0898.516.0402.0903.115.158.166.242.064.107.135.397.271.432.0964.0248.0882-.201.102-.258.0138-.0591.0343-.122.0508-.186-.131-1.06-.539-2.04-1.15-2.86z" fill="#359946" stroke-width="0"/><path d="m3 15.8c-.213.105-.667.21-1.03.21-.565 0-.99-.192-1.32-.586-.425-.49-.653-1.36-.638-2.38.022-2.14 1.05-3.03 2.1-3.03.374 0 .653.0875.807.175l-.169.988c-.139-.0787-.323-.131-.565-.131-.653 0-1.17.534-1.17 2.07 0 1.42.462 1.92.909 1.92.088 0 .154-.0087.191-.0262v-1.43h-.44v-.936h1.33z"/><path d="m4.02 10.1c.248-.0704.608-.114.999-.114.639 0 1.08.176 1.4.528.436.457.661 1.24.661 2.39 0 1.2-.263 2.05-.706 2.51-.338.387-.841.572-1.55.572-.308 0-.616-.0352-.811-.0616zm.984 4.93c.0451.0176.12.0176.173.0176.473 0 .886-.545.886-2.18 0-1.21-.27-1.95-.864-1.95-.0676 0-.135 0-.195.0264z"/><path d="m8.87 15.1-.213.927h-1.17l1.35-6h1.45l1.21 6h-1.17l-.204-.927zm1.13-.908-.469-3.06h-.0276l-.515 3.06z"/><path d="m12 10h1v5.01h1.48v.988h-2.48z"/><path d="m5.32 5.51-.0427 4.49c.721-2 2.03-2.39 4.43-2.77z" fill="none" stroke="#f00" stroke-linejoin="bevel" stroke-width=".3"/><path d="m5.07 3.57s-.39.108-.725.306c-.335.199-.617.488-.617.488l-1.06-1.79s.207-.384.549-.587c.329-.195.793-.208.793-.208z" stroke-width="0"/><path d="m4.34 4.26c.614-.401 1.28-.625 1.55-.526-.17-.078-.844-.337-1.56.0698-.742.421-.815 1.08-.814 1.32.0335-.211.345-.547.828-.862z" fill="#666667"/><path d="m6 3.92c.00433-.0306.00261-.0586-.00551-.0834-.00346-.0106-.00809-.0207-.0139-.0301-.00389-.00625-.0083-.0123-.0133-.018-.00989-.0114-.022-.0217-.0363-.0307-.0429-.0271-.103-.0412-.176-.0433-.0122-.000373-.0248-.000373-.0377-9.34e-5-.0259.00056-.0531.00249-.0817.0056-.0143.00159-.0289.00348-.0438.00566-.00747.00109-.015.00228-.0226.00354-.0152.00252-.0307.00531-.0465.00843-.0079.00159-.0159.00317-.0239.00488-.0161.0034-.0324.00712-.049.0111-.315.0762-.722.258-1.11.51-.375.245-.647.503-.765.704-.00637.0109-.0124.0216-.0178.0322-.00551.0105-.0105.0209-.0151.0311-.00454.0102-.00865.0202-.0123.03-.0128.0343-.0197.0663-.0205.0954-.000249.00834 3.11e-5.0164.000809.0243.00458.047.0275.0852.0704.112.229.145.94-.0818 1.59-.506.0203-.0133.0402-.0265.0599-.0398.452-.306.741-.626.769-.827z" fill="#989898" stroke-width=".1"/><circle cx="5.33" cy="5.52" r=".207" stroke-width="0"/><path d="m3.81 5 1.52.562.355-1.56" fill="none" stroke="#000" stroke-width=".1"/><path d="m4.67 4.26.661 1.3" fill="none" stroke="#000" stroke-width=".1"/><path d="m2.55 4 2.77-1.77" fill="none" stroke="#000" stroke-width=".3"/></svg>
