<?xml version="1.0" encoding="UTF-8" standalone="no"?>
<svg
   xmlns:dc="http://purl.org/dc/elements/1.1/"
   xmlns:cc="http://creativecommons.org/ns#"
   xmlns:rdf="http://www.w3.org/1999/02/22-rdf-syntax-ns#"
   xmlns:svg="http://www.w3.org/2000/svg"
   xmlns="http://www.w3.org/2000/svg"
   xmlns:sodipodi="http://sodipodi.sourceforge.net/DTD/sodipodi-0.dtd"
   xmlns:inkscape="http://www.inkscape.org/namespaces/inkscape"
   viewBox="0 0 64 64"
   id="svg3393"
   version="1.1"
   inkscape:version="0.91 r13725"
   sodipodi:docname="perl.svg">
  <metadata
     id="metadata3410">
    <rdf:RDF>
      <cc:Work
         rdf:about="">
        <dc:format>image/svg+xml</dc:format>
        <dc:type
           rdf:resource="http://purl.org/dc/dcmitype/StillImage" />
      </cc:Work>
    </rdf:RDF>
  </metadata>
  <sodipodi:namedview
     pagecolor="#ffffff"
     bordercolor="#666666"
     borderopacity="1"
     objecttolerance="10"
     gridtolerance="10"
     guidetolerance="10"
     inkscape:pageopacity="0"
     inkscape:pageshadow="2"
     inkscape:window-width="2560"
     inkscape:window-height="1387"
     id="namedview3408"
     showgrid="false"
     inkscape:zoom="18.796875"
     inkscape:cx="21.014131"
     inkscape:cy="32"
     inkscape:window-x="0"
     inkscape:window-y="0"
     inkscape:window-maximized="1"
     inkscape:current-layer="g3402" />
  <defs
     id="defs3395">
    <linearGradient
       id="0"
       x1="-75.077469"
       y1="56.43829"
       x2="-75.260002"
       y2="2.3559999"
       gradientUnits="userSpaceOnUse"
       gradientTransform="matrix(1.07499 0 0 1.02929 56.689-.015)">
      <stop
         stop-color="#197cf1"
         id="stop3398"
         style="stop-color:#199df1;stop-opacity:1" />
      <stop
         offset="1"
         stop-color="#20bcfa"
         id="stop3400"
         style="stop-color:#63f3fa;stop-opacity:1" />
    </linearGradient>
  </defs>
  <g
     transform="translate(56.39.089)"
     id="g3402">
    <rect
       width="44"
       height="60.53"
       x="-46.39"
       y="1.646"
       fill="url(#0)"
       rx="2.5"
       id="rect3404"
       style="opacity:1;fill:url(#0)" />
    <path
       d="m -5.7673411,13.431167 c -1.397206,-0.06873 -1.6406288,-1.801894 -3.006171,-1.881772 -0.7183932,-0.04272 -2.0760199,-0.100313 -3.2575099,0.302792 -1.316066,-0.845218 -3.006171,-1.879914 -0.536323,2.151128 -0.53632,2.719559 -2.325379,10.345102 -4.223285,10.37668 -1.895925,0.03344 -3.148661,-3.222974 -4.759605,-3.189537 -1.610945,0.03157 -1.610945,0.03157 -1.610945,0.03157 -1.895927,0 -3.144704,-3.14867 -6.978116,-3.256412 -2.398604,-0.06687 -4.294531,3.893578 -9.626083,4.330118 -1.430851,0.100313 -3.633528,0.624162 -3.855181,3.715246 0,0 -3.144705,2.758571 -1.66438,9.133932 0.370082,-3.172819 0.554134,-5.834793 1.66438,-7.569813 -0.08312,1.733163 0.492781,3.41431 0,5.208774 -0.492784,1.792606 -2.060189,4.859542 -2.060189,4.859542 0,0 -0.344353,0.637164 0.520491,2.836589 0.862862,2.197568 2.588592,7.644118 2.588592,7.644118 0.08708,0.956677 0.231547,1.460091 0.945984,1.896633 -0.180088,0.635307 -0.783702,1.913351 1.363563,1.913351 0.920256,0 0,0 2.081956,0 1.4546,0 0.981608,-1.174017 -1.367521,-2.249581 0.07124,-0.806209 -0.465075,-1.645854 -0.823283,-1.814898 -0.858906,-2.048956 -1.967173,-5.974114 -1.967173,-5.974114 0,0 -0.39383,-3.427314 0.965775,-4.57161 1.359606,-1.140579 3.002214,-2.214285 4.112458,-6.00941 0.03563,-0.269356 1.895927,1.344919 5.618514,2.349894 3.720608,1.008689 6.576371,-0.06873 6.991971,0.100313 0.4156,0.169039 1.310128,2.216143 1.310128,4.200085 0,1.982083 -0.752038,3.291708 -0.752038,4.064478 0,0.772772 0.607568,2.115833 0.607568,2.115833 0,0 0.358208,3.694812 -0.10687,5.777207 -0.322585,1.307767 -0.858906,1.972795 1.288359,1.97651 2.147264,0.0037 5.082191,0.440258 1.252736,-1.943073 0.320607,-0.739334 0.07124,-1.748023 -0.286962,-2.115832 -0.07124,-1.814897 0.144477,-3.596358 0.500699,-4.333834 0.358207,-0.739333 0.108847,-2.855167 0.180088,-3.928873 0.07124,-1.075563 1.110246,-4.937561 2.254134,-6.314059 1.145869,-1.378356 6.226081,-5.440977 7.086964,-9.405144 0.858907,-3.964167 1.7890587,-7.997067 4.2945313,-7.961773 1.5020968,0 1.7534346,0.806209 2.3966252,0.772772 0.6451697,-0.0353 1.7890586,-1.038412 1.7890586,-1.577122 0,-0.536853 -0.1424995,-1.638423 -2.9329475,-1.671861"
       id="path3406"
       inkscape:connector-curvature="0"
       style="fill:#0b3969" />
  </g>
</svg>
