<svg height="16" viewBox="0 0 16 16" width="16" xmlns="http://www.w3.org/2000/svg"><path d="m19.427116 21.427116c-1.389866.990364-3.090464 1.572884-4.927116 1.572884-4.6944206 0-8.5-3.805579-8.5-8.5 0-4.6944206 3.8055794-8.5 8.5-8.5 4.694421 0 8.5 3.8055794 8.5 8.5 0 1.836652-.58252 3.53725-1.572884 4.927116l5.584802 5.584802c.550201.550201.545613 1.430551-.0002 1.976363l-.02344.02344c-.544416.544417-1.430661.545902-1.976363.0002l-5.584802-5.584802zm-4.927116-.427116c3.589851 0 6.5-2.910149 6.5-6.5s-2.910149-6.5-6.5-6.5-6.5 2.910149-6.5 6.5 2.910149 6.5 6.5 6.5z" fill="#929292" fill-rule="evenodd" transform="matrix(.56015021 0 0 .56015021 -1.360901 -1.360283)"/></svg>