<svg height="22" width="22" xmlns="http://www.w3.org/2000/svg"><g stroke-linejoin="round"><path d="m1.5 21.5v-21h10l5 5v16z" fill="#fff" fill-rule="evenodd" stroke="#979797"/><path d="m11.5.5v5h5z" fill="#f0f0f0" fill-rule="evenodd" stroke="#979797"/><g stroke-dashoffset=".5" transform="translate(-.181)"><path d="m8.17 14.4 4.31 2.49-5.14 3.74z" fill="#505050" stroke="#505050" stroke-linecap="round" stroke-width=".75"/><path d="m15.2 2.15 4.31 2.49-7.05 12.2-4.31-2.49z" fill="#fce94f" stroke="#8b7617" stroke-linecap="round" stroke-width=".75"/><path d="m16.6 3.91-6.22 10.8" fill="none" opacity=".5" stroke="#fcffff" stroke-width="2"/><path d="m18 4.74-6.22 10.8" fill-opacity=".588" opacity=".25" stroke="#000" stroke-width="2"/><path d="m17.7 4.53-6.64 11.5" fill="#fce94f" opacity=".5" stroke="#8b7617" stroke-linecap="round" stroke-width=".75"/><path d="m8.43 19.5 3.48-2.73-1.43-.83z" fill="#969696" stroke="#969696" stroke-linecap="square" stroke-width=".5"/><path d="m15.9 3.49-6.64 11.5" fill="#fce94f" opacity=".5" stroke="#8b7617" stroke-linecap="round" stroke-width=".75"/><g fill="#e6e6e6" stroke-width=".5"><path d="m15.5 1.25 4.64 2.69-.904 1.57-4.64-2.69z" stroke="#969696" stroke-linecap="round"/><path d="m7.84 19.3.681-4.51 1.43.83z" stroke="#e6e6e6" stroke-linecap="square"/></g></g></g></svg>