<?xml version="1.0" encoding="UTF-8" standalone="no"?>
<svg
   xmlns:dc="http://purl.org/dc/elements/1.1/"
   xmlns:cc="http://creativecommons.org/ns#"
   xmlns:rdf="http://www.w3.org/1999/02/22-rdf-syntax-ns#"
   xmlns:svg="http://www.w3.org/2000/svg"
   xmlns="http://www.w3.org/2000/svg"
   xmlns:sodipodi="http://sodipodi.sourceforge.net/DTD/sodipodi-0.dtd"
   xmlns:inkscape="http://www.inkscape.org/namespaces/inkscape"
   height="24"
   width="24"
   version="1.1"
   id="svg26"
   sodipodi:docname="tilegrid.svg"
   inkscape:version="1.0.2 (e86c870879, 2021-01-15)">
  <metadata
     id="metadata32">
    <rdf:RDF>
      <cc:Work
         rdf:about="">
        <dc:format>image/svg+xml</dc:format>
        <dc:type
           rdf:resource="http://purl.org/dc/dcmitype/StillImage" />
        <dc:title></dc:title>
      </cc:Work>
    </rdf:RDF>
  </metadata>
  <defs
     id="defs30" />
  <sodipodi:namedview
     pagecolor="#ffffff"
     bordercolor="#666666"
     borderopacity="1"
     objecttolerance="10"
     gridtolerance="10"
     guidetolerance="10"
     inkscape:pageopacity="0"
     inkscape:pageshadow="2"
     inkscape:window-width="1929"
     inkscape:window-height="1515"
     id="namedview28"
     showgrid="false"
     inkscape:zoom="43.899546"
     inkscape:cx="13.621589"
     inkscape:cy="12"
     inkscape:window-x="0"
     inkscape:window-y="49"
     inkscape:window-maximized="0"
     inkscape:current-layer="svg26" />
  <g
     transform="translate(1.75 1.75)"
     id="g24">
    <path
       d="m0 0h5.5v5.5000003h-5.5z"
       fill="#6d97c4"
       stroke-width=".846154"
       id="path2" />
    <path
       d="m0 0h19.499998v19.499998h-19.499998z"
       fill="none"
       id="path4" />
    <g
       fill="#6d97c4"
       stroke-width=".846154"
       id="g22">
      <path
         d="m7.5-.00000023h5.5v5.50000023h-5.5z"
         id="path6" />
      <path
         d="m15 0h5.5v5.5000002h-5.5z"
         id="path8" />
      <path
         d="m0 7.5h5.5v5.5h-5.5z"
         id="path10" />
      <path
         d="m7.5 7.4999998h5.5v5.5000002h-5.5z"
         id="path12" />
      <path
         d="m15 7.5h5.5v5.5h-5.5z"
         id="path14" />
      <path
         d="m-.0000002 15h5.5000002v5.5h-5.5000002z"
         id="path16" />
      <path
         d="m7.5 15h5.5v5.5h-5.5z"
         id="path18" />
      <path
         d="m15 15h5.5v5.5h-5.5z"
         id="path20" />
    </g>
  </g>
  <g
     stroke-width="1.067"
     transform="matrix(0.76923,0,0,0.76923,-0.56099162,-0.60151068)"
     id="g54">
    <rect
       fill="#5a8c5a"
       height="13"
       rx="2.789"
       width="13"
       x="19"
       y="19"
       id="rect46" />
    <g
       fill-rule="evenodd"
       id="g52">
      <path
         d="m 21.6,25.5 h 7.8 m -3.9,3.9 v -7.8"
         fill="#ffffff"
         stroke="#ffffff"
         stroke-linecap="round"
         stroke-linejoin="round"
         stroke-width="2.773"
         id="path48" />
      <path
         d="m 20.3,25.5 h 10.4 v -2.6 c 0,-2.6 -0.65,-2.6 -5.2,-2.6 -4.55,0 -5.2,0 -5.2,2.6 z"
         fill="#fcffff"
         opacity="0.3"
         id="path50" />
    </g>
  </g>
</svg>
