<svg xmlns="http://www.w3.org/2000/svg" height="24" viewBox="0 0 22.5 22.5" width="24"><path d="M11.25 19.66V4.715M4.714 3.75h13.072" fill="none" stroke="#d0d0d0" stroke-width="3.75" stroke-linecap="round" stroke-opacity=".996"/><g transform="matrix(.72115 0 0 .72115 -.577 -.577)" stroke-width="1.067"><rect height="13" rx="2.789" ry="2.789" width="13" x="19" y="19" fill="#5a8c5a"/><path d="M21.6 25.5h7.8M25.5 29.4v-7.8" overflow="visible" fill="#fff" fill-rule="evenodd" stroke="#fff" stroke-width="2.773" stroke-linecap="round" stroke-linejoin="round"/><path d="M20.3 25.5h10.4v-2.6c0-2.6-.65-2.6-5.2-2.6s-5.2 0-5.2 2.6v2.6z" opacity=".3" fill="#fcffff" fill-rule="evenodd"/></g><path d="M12.4 5.541c-1.067 0-2.019.213-2.847.639a4.627 4.627 0 0 0-1.916 1.777c-.419.706-.631 1.51-.662 2.4a9.016 9.016 0 0 0 .625.028 9.016 9.016 0 0 0 1.435-.13c.057-.856.338-1.56.867-2.109.597-.613 1.412-.921 2.467-.921.656 0 1.203.123 1.649.365l.002.002c.02.011.038.025.058.037a9.016 9.016 0 0 0 1.09-1.379c-.765-.467-1.685-.709-2.768-.709z" overflow="visible" fill="none"/><path d="M11.25 19.66V4.688M4.7 3.737h13.1" fill="none" stroke="#000" stroke-width="1.875" stroke-linecap="round"/></svg>
