<svg height="24" viewBox="0 0 22.5 22.5" width="24" xmlns="http://www.w3.org/2000/svg"><path d="m11.25 19.66v-14.945m-6.536-.965h13.072" fill="none" stroke="#d0d0d0" stroke-linecap="round" stroke-opacity=".996" stroke-width="3.75"/><g stroke-width="1.067" transform="matrix(.72115 0 0 .72115 -.577 -.577)"><rect fill="#5a8c5a" height="13" rx="2.789" width="13" x="19" y="19"/><g fill-rule="evenodd"><path d="m21.6 25.5h7.8m-3.9 3.9v-7.8" fill="#fff" stroke="#fff" stroke-linecap="round" stroke-linejoin="round" stroke-width="2.773"/><path d="m20.3 25.5h10.4v-2.6c0-2.6-.65-2.6-5.2-2.6s-5.2 0-5.2 2.6z" fill="#fcffff" opacity=".3"/></g></g><g fill="none"><path d="m12.4 5.541c-1.067 0-2.019.213-2.847.639a4.627 4.627 0 0 0 -1.916 1.777c-.419.706-.631 1.51-.662 2.4a9.016 9.016 0 0 0 .625.028 9.016 9.016 0 0 0 1.435-.13c.057-.856.338-1.56.867-2.109.597-.613 1.412-.921 2.467-.921.656 0 1.203.123 1.649.365l.002.002c.02.011.038.025.058.037a9.016 9.016 0 0 0 1.09-1.379c-.765-.467-1.685-.709-2.768-.709z"/><path d="m11.25 19.66v-14.972m-6.55-.951h13.1" stroke="#000" stroke-linecap="round" stroke-width="1.875"/></g></svg>