<svg height="32" width="32" xmlns="http://www.w3.org/2000/svg"><g transform="matrix(1.23751 0 0 1.23751 -1.736 -1150.283)"><g fill="#b4a8a8" transform="matrix(1.2441348 0 0 1.0636724 -4.830185 -60.654504)"><path d="m19.100853 941.77982c-.092769.05762-.145152.23205-.166724.57384-.025753.76735-1.8175 5.38038-6.542958 3.86158-1.511412-.4755.581332 1.91175-.772892 4.83067 3.039519 4.22323 6.757192 4.15046 9.979497 2.65894 3.171597-1.46158 4.646828-7.18756 2.406267-10.17292-3.097404.41245-4.456224-2.02977-4.90319-1.75211zm-.924104 6.01119c1.897133-1.18804 3.692101 1.8548 1.714327 3.02206s-3.641389-1.88473-1.714327-3.02206z"/><path d="m9.7699276 935.86406s.5869594 1.22623 1.1764084 2.10913c.589447.88288 1.910451-.23864 1.602006-.87712-.329228-.55783-.867963-1.47065-1.28698-2.18062-.448946-.76068-1.9495284.05657-1.4914344.94861"/><path d="m18.287483 947.93116c1.852279-1.09319 3.281637 1.7223 1.558585 2.73923-1.766128 1.04235-3.410866-1.64603-1.558585-2.73923"/><path d="m8.9834083 932.90943c-.2834907.09894-2.6486674 1.76835-3.2164509 3.47098 1.7808604 5.10282 6.5554246 9.6012 9.8010026 7.6857 3.215649-1.96622 1.606022-8.40089-1.65464-12.76711-2.525658.12309-3.641325.78155-4.6763511 1.46078.4373116.97268.9968311 1.80486.9968311 1.80486s.901183-.32674 1.080761-.02247c.20951.35499 1.047543 1.77493 1.43663 2.43418.389089.65927-.392376 1.18885-.392376 1.18885s1.415846 2.51483 1.844011 3.35615c.444775-.05737-.327542.60357-.17292.17043-.269367-.45641-1.975364-3.347-1.975364-3.347s-.820544.34752-1.080765.02247c-.290148-.37577-1.2088253-1.81649-1.4665574-2.4849-.0690079-.23278-.1862387-.77898.5237314-1.19799-.3084453-.63848-.8795985-1.25866-1.0475427-1.77493"/><path d="m11.499432 950.8434c.650913-2.0252.507925-1.80405.181987-4.20999-.268566-1.96117 1.679357.99177 4.74287-.88466 3.093442-1.82571 1.733281-5.05717 3.17986-3.99639 1.476512 1.1115 1.83567 1.72005 4.310616 1.62689-.946119-1.83479-3.784394-3.16823-5.920242-8.06155-1.042568-2.46163-3.352938-4.17501-3.949849-4.02785.978536 1.54215 1.289468 1.83728 2.376087 3.79427 1.11655 2.0077 2.178295 7.3982-.712299 9.10419-2.890593 1.706-7.0366322-1.72742-8.1623283-3.86648-1.1764086-2.10913-.9303096-1.22872-1.9612427-3.90235-.4846544 1.38006.9378533 4.36959 1.5181543 5.12113 2.6113539 3.38191 3.3579927 7.65922 4.3963867 9.30279"/></g><path d="m2.3401831 947.06548c1.2605959-3.5232 4.2019863-3.39391 4.2019863-3.39391" fill="none" stroke="#000" stroke-dasharray="1.777763 1.777763" stroke-width="1.777763"/><path d="m17.596626 934.45951s3.393912 1.51918 5.171676-1.03434c1.777763-2.55351 2.262608-3.103 3.426235-3.16765" fill="none" stroke="#000" stroke-dasharray="1.777763 1.777763" stroke-width="1.777763"/><g transform="translate(-1.583825 -.226261)"><path d="m8.0298809 932.26863c-.2834907.09894-2.6486674 1.76835-3.2164509 3.47098 1.7808604 5.10282 6.555425 9.6012 9.801003 7.6857 3.215649-1.96622 1.606022-8.40089-1.65464-12.76711-2.525658.12309-3.6413255.78155-4.6763515 1.46078.4373116.97268.996831 1.80486.996831 1.80486s.9011835-.32674 1.0807615-.02247c.20951.35499 1.047543 1.77493 1.43663 2.43418.389089.65927-.392376 1.18885-.392376 1.18885s1.415846 2.51483 1.844011 3.35615c.444775-.05737-.327542.60357-.17292.17043-.269367-.45641-1.975364-3.347-1.975364-3.347s-.820544.34752-1.080765.02247c-.290148-.37577-1.2088257-1.81649-1.4665578-2.4849-.0690079-.23278-.1862387-.77898.5237316-1.19799-.3084455-.63848-.8795987-1.25866-1.0475429-1.77493" fill="#fff" stroke="#000" stroke-linejoin="round" stroke-width="1.513523"/><path d="m18.147326 941.13902c-.092769.05762-.145152.23205-.166724.57384-.025753.76735-1.8175 5.38038-6.542958 3.86158-1.5114123-.4755.581332 1.91175-.772892 4.83067 3.039519 4.22323 6.757192 4.15046 9.979497 2.65894 3.171597-1.46158 4.646828-7.18756 2.406267-10.17292-3.097404.41245-4.456224-2.02977-4.90319-1.75211zm-.924104 6.01119c1.897133-1.18804 3.692101 1.8548 1.714327 3.02206s-3.641389-1.88473-1.714327-3.02206z" fill="#fff" stroke="#000" stroke-linejoin="round" stroke-width="1.513523"/><path d="m8.8164002 935.22326s.5869593 1.22623 1.1764087 2.10913c.5894471.88288 1.9104511-.23864 1.6020061-.87712-.329228-.55783-.867963-1.47065-1.28698-2.18062-.4489463-.76068-1.9495288.05657-1.4914348.94861" fill="#241b1b"/><g fill="#fff" stroke="#000" stroke-linejoin="round" stroke-width="1.513523"><path d="m17.333956 947.29036c1.852279-1.09319 3.281637 1.7223 1.558585 2.73923-1.766128 1.04235-3.410866-1.64603-1.558585-2.73923"/><path d="m10.545905 950.2026c.650913-2.0252.507925-1.80405.181987-4.20999-.268566-1.96117 1.679357.99177 4.74287-.88466 3.093442-1.82571 1.733281-5.05717 3.17986-3.99639 1.476512 1.1115 1.83567 1.72005 4.310616 1.62689-.946119-1.83479-3.784394-3.16823-5.920242-8.06155-1.042568-2.46163-3.352938-4.17501-3.949849-4.02785.978536 1.54215 1.289468 1.83728 2.376087 3.79427 1.11655 2.0077 2.178295 7.3982-.712299 9.10419-2.890593 1.706-7.0366326-1.72742-8.1623287-3.86648-1.1764086-2.10913-.9303096-1.22872-1.9612427-3.90235-.4846544 1.38006.9378533 4.36959 1.5181543 5.12113 2.6113539 3.38191 3.3579924 7.65922 4.3963871 9.30279"/></g></g></g></svg>