<svg height="32" width="32" xmlns="http://www.w3.org/2000/svg" xmlns:xlink="http://www.w3.org/1999/xlink"><linearGradient id="a"><stop offset="0" stop-color="#040000"/><stop offset=".5" stop-color="#1d0c0c" stop-opacity=".767"/><stop offset="1" stop-color="#180c0c" stop-opacity=".79"/></linearGradient><linearGradient id="b" gradientUnits="userSpaceOnUse" x1="1.32" x2="28.7" xlink:href="#a" y1="16.3" y2="16.3"/><linearGradient id="c" gradientUnits="userSpaceOnUse" x1="1.97" x2="29.4" xlink:href="#a" y1="17.2" y2="17.2"/><g fill-rule="evenodd"><path d="m2.73 29.9c-.143-.22-.407-.753-.16-1 .149-.149.293-.293.44-.44.203-.203.575-.415.76-.6.2-.2.688-.424.96-.56.17-.0849.408-.288.52-.4.21-.21.684-.183.92-.36.162-.122.462-.151.64-.24.173-.0863.474-.04.68-.04.188 0 .462-.0456.6-.08.21-.0526.5-.04.64-.04.16 0 .426-.053.56-.12.143-.0717.315-.217.44-.28.0779-.0389.275-.355.36-.44.125-.125.27-.28.36-.4.134-.179.291-.322.44-.52.146-.194.24-.312.24-.56 0-.149.2-.355.2-.6 0-.174.0779-.472.12-.64.0548-.219.0268-.467.08-.68.0522-.209.08-.317.08-.56 0-.205-.0211-.402-.08-.52-.0459-.0917-.356-.179-.44-.2-.168-.042-.353-.0964-.48-.16-.189-.0943-.302-.222-.4-.32-.115-.115-.265-.253-.4-.32-.233-.117-.0943-.191-.32-.36-.167-.125-.273-.275-.44-.4s-.278-.318-.4-.44c-.249-.249-.378-.517-.56-.76-.148-.198-.245-.367-.36-.52-.0952-.127-.08-.487-.08-.64 0-.199-.0332-.493-.08-.68-.0572-.229.04-.488.04-.72 0-.239.04-.435.04-.68 0-.306-.121-.572.08-.84.262-.349.218-1.15.32-1.56.0761-.305.0878-.631.16-.92.0843-.337.12-.681.2-1.04.0659-.297.165-.58.24-.88.065-.26.264-.527.36-.72.163-.325.557-.677.76-.88.0979-.0979.199-.359.32-.48.167-.167.275-.315.44-.48.216-.216.341-.261.56-.48.2-.2.458-.436.6-.72.0279-.0558.647-.24.72-.24.171 0 .382-.235.56-.28.246-.0616.475-.0373.68-.16.2-.12.529-.16.76-.16.335 0 .611-.0581.92-.12.347-.0694.681-.12 1.04-.12.476 0 .95-.12 1.44-.12h1.24c.232 0 .472.0119.68-.04.168-.042.43-.00238.6.04.244.0609.419.179.56.32.127.127.345.273.52.36.221.111.346.339.48.44.171.128.386.233.56.32.169.0847.366.286.52.44.133.133.279.279.4.4.181.181.31.431.36.68.0703.352 0 .779 0 1.12 0 .305-.0475.385.08.64.0902.18.128.415.2.56.0716.143.04.471.04.64 0 .184.119.399.24.56.103.137.12.543.12.76 0 .289.08.671.08 1 0 .262.04.609.04.92 0 .345-.12.656-.12 1 0 .176.16.224.16.48v1.04c0 .545-.221.685-.08 1.32.0546.246-.0692.437-.12.64-.0769.308-.0996.559-.28.8-.136.181-.224.447-.32.64-.123.245-.448.488-.6.64-.167.167-.511.228-.72.28-.264.0659-.536.0541-.8.12-.185.0464-.426.193-.6.28-.182.0911-.154.268-.36.32-.221.0551-.0134.267.12.4.127.127.08.38.08.56 0 .148.0841.336.12.48.0471.189.0399.481 0 .64-.0441.176.000726.443.04.6.0543.217.08.368.08.6v.56c0 .201.18.3.28.4.14.14.309.189.44.32.0805.0805.343.168.44.24.119.0896.449.122.6.16.147.0367.392.04.6.04.17 0 .406.0315.6.08.218.0545.546.08.76.08.282 0 .439.18.64.28.213.106.337.188.52.28.174.087.24.3.48.36.227.0567.353.0966.56.2.2.1.299.149.48.24.166.0828.345.289.4.4.0875.175.179.194.24.44.0337.135.36.28.44.36.0521.0521.122.444.16.52.0201.0402-.219.141.12.12z" fill="url(#c)" stroke="#bbb2b2"/><path d="m2.08 29c-.143-.22-.407-.753-.16-1l.44-.44c.203-.203.575-.415.76-.6.2-.2.688-.424.96-.56.17-.0849.408-.288.52-.4.21-.21.684-.183.92-.36.162-.122.462-.151.64-.24.173-.0863.474-.04.68-.04.188 0 .462-.0456.6-.08.21-.0526.5-.04.64-.04.16 0 .426-.053.56-.12.143-.0717.315-.217.44-.28.0779-.0389.275-.355.36-.44.125-.125.27-.28.36-.4.134-.179.291-.322.44-.52.146-.194.24-.312.24-.56 0-.149.2-.355.2-.6 0-.174.0779-.472.12-.64.0548-.219.0268-.467.08-.68.0522-.209.08-.317.08-.56 0-.205-.0211-.402-.08-.52-.0459-.0917-.356-.179-.44-.2-.168-.042-.353-.0964-.48-.16-.189-.0943-.302-.222-.4-.32-.115-.115-.265-.253-.4-.32-.233-.117-.0943-.191-.32-.36-.167-.125-.273-.275-.44-.4s-.278-.318-.4-.44c-.249-.249-.378-.517-.56-.76-.148-.198-.245-.367-.36-.52-.0952-.127-.08-.487-.08-.64 0-.199-.0332-.493-.08-.68-.0572-.229.04-.488.04-.72 0-.239.04-.435.04-.68 0-.306-.121-.572.08-.84.262-.349.218-1.15.32-1.56.0761-.305.0878-.631.16-.92.0843-.337.12-.681.2-1.04.0659-.297.165-.58.24-.88.065-.26.264-.527.36-.72.163-.325.557-.677.76-.88.0979-.0979.199-.359.32-.48.167-.167.275-.315.44-.48.216-.216.341-.261.56-.48.2-.2.458-.436.6-.72.0279-.0558.647-.24.72-.24.171 0 .382-.235.56-.28.246-.0616.475-.0373.68-.16.2-.12.529-.16.76-.16.335 0 .611-.0581.92-.12.347-.0694.681-.12 1.04-.12.476 0 .95-.12 1.44-.12h1.24c.232 0 .472.0119.68-.04.168-.042.43-.00238.6.04.244.0609.419.179.56.32.127.127.345.273.52.36.221.111.346.339.48.44.171.128.386.233.56.32.169.0847.366.286.52.44.133.133.279.279.4.4.181.181.31.431.36.68.0703.352 0 .779 0 1.12 0 .305-.0475.385.08.64.0902.18.128.415.2.56.0716.143.04.471.04.64 0 .184.119.399.24.56.103.137.12.543.12.76 0 .289.08.671.08 1 0 .262.04.609.04.92 0 .345-.12.656-.12 1 0 .176.16.224.16.48v1.04c0 .545-.221.685-.08 1.32.0546.246-.0692.437-.12.64-.0769.308-.0996.559-.28.8-.136.181-.224.447-.32.64-.123.245-.448.488-.6.64-.167.167-.511.228-.72.28-.264.0659-.536.0541-.8.12-.185.0464-.426.193-.6.28-.182.0911-.154.268-.36.32-.221.0551-.0134.267.12.4.127.127.08.38.08.56 0 .148.0841.336.12.48.0471.189.0399.481 0 .64-.0441.176.000726.443.04.6.0543.217.08.368.08.6v.56c0 .201.18.3.28.4.14.14.309.189.44.32.0805.0805.343.168.44.24.119.0896.449.122.6.16.147.0367.392.04.6.04.17 0 .406.0315.6.08.218.0545.546.08.76.08.282 0 .439.18.64.28.213.106.337.188.52.28.174.087.24.3.48.36.227.0567.353.0966.56.2.2.1.299.149.48.24.166.0828.345.289.4.4.0875.175.179.194.24.44.0337.135.36.28.44.36.0521.0521.122.444.16.52.0201.0402-.219.141.12.12z" fill="url(#b)" stroke="#000"/></g></svg>