<svg height="24" width="24" xmlns="http://www.w3.org/2000/svg" xmlns:xlink="http://www.w3.org/1999/xlink">
<linearGradient id="a" gradientTransform="matrix(.19094498 0 0 .19541227 -.69244255 7.049408)" gradientUnits="userSpaceOnUse" x1="126.82207" x2="9.2386274" y1="125.44" y2="53.936554">
<stop offset="0" stop-color="#55d0ff"/>
<stop offset="1" stop-color="#1a94e5"/>
</linearGradient>
<g transform="translate(0 -8)">
<path d="m .38633145 17.054518l11.69794855-.138003 11.529389 14.697154h-18.7773978z" fill="url(#a)" fill-rule="evenodd" stroke="#000" stroke-linejoin="round" stroke-width=".77266276"/>
<g transform="matrix(0 -1 1 0 -8 32)">
<path d="m17.96122 7a5.9612203 6.0742435 0 1 1 -11.9224403 0 5.9612203 6.0742435 0 1 1  11.9224403 0z" style="opacity:.8;fill:#e6e6e6;stroke:#505050;stroke-width:.75218332;stroke-linecap:round;stroke-linejoin:round;stroke-dashoffset:7" transform="matrix(1.3420071 0 0 1.3170365 -1.1040853 7.7799271)"/>
<path d="m8.0000001 22.000818c0 2 1.9999999 2 1.9999999 2 0 0-6.9999999 7-6.9999999 7l-2-2z" fill="#ffcc30" fill-rule="evenodd" stroke="#505050" stroke-linejoin="round"/>
<path d="m10.5 12.500818c2-3.0000001 4.442248-3.3980551 6-2 1.557752 1.398055-2 1-4 3-2 2 0 6-2 6-1.9999999 0-1.9999999-4 0-7z" fill="#fcffff" fill-rule="evenodd" opacity=".7"/>
<path d="m2.5000001 28.500818l4-4" opacity=".5" overflow="visible" stroke="#fcffff" stroke-linecap="round" stroke-linejoin="round"/>
</g>
</g>
</svg>
