/* XPM */
static const char * icon[] = {
"22 22 3 1",
" 	c None",
".	c #0000FF",
"+	c #727272",
"                      ",
"  . .   . ... ... .   ",
" . +.. ..+.+.+.+.+ .  ",
". + .+. .+...+...+  . ",
" .  .+ +.+.+.+.+++ .  ",
"  . .+  .+.+.+.+  . + ",
"   + +   + + + +   +  ",
"                      ",
"      . ... ... ... . ",
"     . +.+.+.+.+.+++. ",
"    . + ...+.. +... . ",
"     .  .+.+.+. .+++. ",
"      . .+.+.+.+... . ",
"       + + + + + +++  ",
"                      ",
"      . ... ... ... . ",
"     . +.+.+.+.+.+++. ",
"    . + ...+.. +... . ",
"     .  .+.+.+. .+++. ",
"      . .+.+.+.+... . ",
"       + + + + + +++  ",
"                      "};
