/* XPM */
static char *zoomfull[]={
"22 22 153 2",
"Qt c None",
"#M c #000000",
"aw c #0b0b0b",
"#i c #0c0c0c",
".n c #1d1d1d",
"#t c #232323",
".R c #29292a",
"as c #313131",
"au c #323233",
"al c #363637",
"ak c #373738",
"ao c #39393a",
"#z c #398491",
"ap c #3a3f40",
".a c #3b3b3c",
".c c #3c3c3d",
"at c #3d3d3e",
"#q c #3d8996",
".b c #3e3e3f",
".d c #404041",
"#B c #404647",
"#T c #414648",
"aa c #414748",
"a# c #424849",
"#y c #4298a7",
".z c #434343",
"#j c #434344",
"#g c #4399a8",
".J c #444444",
".p c #444445",
"#J c #4496a5",
"#p c #449aa9",
"## c #454545",
".o c #474747",
"#C c #484848",
"#A c #489ead",
"af c #494949",
".g c #49494a",
"ae c #4a4a4a",
".A c #4c4c4d",
"#x c #4cb7cb",
"#5 c #4d4d4e",
"#o c #4dbace",
"ad c #4f4f4f",
"#K c #50a3b5",
".8 c #50a6b9",
"#I c #52a7b3",
"#h c #54acb9",
".e c #585859",
"#6 c #595959",
".# c #59595a",
"#V c #5b5b5b",
"#f c #5bb1c4",
".S c #5c5c5c",
"#O c #5c5d5c",
".f c #5d5d5e",
"#H c #60b3c5",
".2 c #626262",
"#4 c #635920",
"#r c #63b5c4",
"ag c #686868",
"#w c #68bdcf",
".9 c #6ab5c3",
"#2 c #6b7274",
"#u c #6c6c6c",
"#W c #6c6d6c",
".Z c #6cbacb",
".7 c #6cc3d9",
".y c #6f6f70",
"a. c #707071",
"ac c #717171",
"#9 c #717172",
"aq c #727273",
"#7 c #737374",
"ai c #747475",
"#e c #74c8dd",
"#8 c #757576",
"aj c #767677",
"am c #777778",
"#v c #78c3d3",
"#D c #797a79",
"#Y c #79989c",
"#G c #79bfcc",
".m c #7a7a7b",
".q c #7b7879",
"#X c #7b7c7b",
".0 c #7bc4d4",
".B c #7d7e7d",
"av c #7f7f80",
".O c #81c9d6",
".h c #868787",
".6 c #86d1e1",
"#R c #87cad6",
".Y c #87cddc",
"#1 c #88a8ad",
".N c #8acdd9",
"#L c #8acfe1",
"#N c #8e8e8e",
"ah c #928237",
"#n c #96d5e5",
"#d c #96d7e7",
"#Q c #99d4e0",
".X c #99d8e6",
".H c #9bd6e2",
".1 c #9da2a1",
".M c #9dd9e6",
".T c #a2a7a7",
"#F c #a4dbe9",
".G c #a5dcea",
"#k c #a6abaa",
"#c c #a8e1eb",
"#Z c #a9c7ce",
"#s c #abdfea",
"#U c #ac993f",
".W c #ace0eb",
".i c #afb4b4",
".P c #afe1ec",
"#m c #b1dbe4",
".L c #b1e2ec",
".l c #b2b7b7",
"#. c #b2c7cb",
"#0 c #b3cad0",
".3 c #bac0c1",
"#P c #bae4ef",
".j c #bbc4c6",
".k c #bbc5c6",
".I c #bbe7ee",
"ab c #bda44c",
"#S c #bde6f0",
".F c #bde7f0",
".V c #c3e9f0",
".K c #c5cfd2",
"#b c #c5e7ec",
".E c #c6edf5",
".5 c #cbe9f2",
".w c #cceff7",
"ar c #cecece",
".Q c #ced9d9",
".r c #cfdada",
"#E c #d7f0f4",
".v c #d7f3f8",
"#l c #d8edf1",
".x c #dce7e9",
".t c #dcf2f5",
".u c #ddf4fa",
"#3 c #dece9d",
"an c #e1e1e1",
"#a c #e3f2f4",
".s c #e5f0f2",
".U c #e5f4f8",
".4 c #e7f3f6",
".C c #e9f8fa",
".D c #ffffff",
"QtQtQtQtQt.#.a.b.c.d.eQtQtQtQtQtQtQtQtQtQtQt",
"QtQtQt.f.g.h.i.j.k.l.m.n.oQtQtQtQtQtQtQtQtQt",
"QtQt.p.q.r.s.t.u.v.w.u.x.y.zQtQtQtQtQtQtQtQt",
"Qt.A.B.x.C.D.C.E.F.G.H.I.x.B.JQtQtQtQtQtQtQt",
"Qt.g.K.C.D.D.D.C.L.M.N.O.P.Q.RQtQtQtQtQtQtQt",
".S.T.x.t.U.D.C.V.W.X.Y.Z.0.P.1.2QtQtQtQtQtQt",
".g.3.4.5.5.C.V.P.X.6.7.8.9.L#.##QtQtQtQtQtQt",
".g.j#a#b.I.L#c#d.6#e#f#g#h#c#.#iQtQtQtQtQtQt",
"#j#k#l#m.H.X#n.6#e#o#p#q#r#s.T#tQtQtQtQtQtQt",
"#u.B.r.P.N.O#v#w#x#y#z#A#n.r#BQtQtQtQtQtQtQt",
"Qt#C#D#E#F#G#H#I#J#q#K#L#l.1#MQtQtQtQtQtQtQt",
"Qt#N#O.B#l#P#Q#R#v.Y#S#l.B#T#M#UQtQtQtQtQtQt",
"QtQt#V#W#X#Y#Z#b#b#0#1#2#T#M.D#3#4QtQtQtQtQt",
"QtQtQt.S#5#6#7#8#9a.a#aa#Mab#3.D#7.bQtQtQtQt",
"QtQtQtQtQtac#5adaeafagQt#4aha#ai.DajakQtQtQt",
"QtQtQtQtQtQtQtQtQtQtQtQtQt#4ala#aman.maoQtQt",
"#M#MQtQt#M#MQtQtQtQtQtQtQtQtalalapaqar.yasQt",
"#MQtQtQtQt#MQtQtQtQtQtQtQtQtQt#Mala#a.ara.at",
"QtQtQtQtQtQtQtQtQtQtQtQtQtQtQtQtauala#a.av.d",
"QtQtQtQtQtQtQtQtQtQtQtQtQtQtQtQtQt#Mala#aw.d",
"#MQtQtQtQt#MQtQtQtQtQtQtQtQtQtQtQtQt#M#M.dQt",
"#M#MQtQt#M#MQtQtQtQtQtQtQtQtQtQtQtQtQtQtQtQt"};
