o all_faces
s off
v -0.456616 0.00187836 -0.413774
vn 0 1 0
v -0.4718 0.00187836 -0.0764642
vn 0 1 0
v -0.25705 0.00187836 -0.230477
vn 0 1 0
v -0.25705 0.00187836 -0.230477
vn 0 1 0
v -0.4718 0.00187836 -0.0764642
vn 0 1 0
v 0.0184382 0.00187836 0.177332
vn 0 1 0
v -0.25705 0.00187836 -0.230477
vn 0.828644 0 -0.559776
v 0.0184382 0.00187836 0.177332
vn 0.828644 0 -0.559776
v -0.25705 -0.00187836 -0.230477
vn 0.828644 0 -0.559776
v -0.25705 -0.00187836 -0.230477
vn 0.828644 0 -0.559776
v 0.0184382 0.00187836 0.177332
vn 0.828644 0 -0.559776
v 0.0184382 -0.00187836 0.177332
vn 0.828644 0 -0.559776
v 0.0184382 0.00187836 0.177332
vn -0.459744 0 0.888052
v -0.4718 0.00187836 -0.0764642
vn -0.459744 0 0.888052
v 0.0184382 -0.00187836 0.177332
vn -0.459744 0 0.888052
v 0.0184382 -0.00187836 0.177332
vn -0.459744 0 0.888052
v -0.4718 0.00187836 -0.0764642
vn -0.459744 0 0.888052
v -0.4718 -0.00187836 -0.0764642
vn -0.459744 0 0.888052
v -0.4718 0.00187836 -0.0764642
vn -0.998988 0 -0.0449705
v -0.456616 0.00187836 -0.413774
vn -0.998988 0 -0.0449705
v -0.4718 -0.00187836 -0.0764642
vn -0.998988 0 -0.0449705
v -0.4718 -0.00187836 -0.0764642
vn -0.998988 0 -0.0449705
v -0.456616 0.00187836 -0.413774
vn -0.998988 0 -0.0449705
v -0.456616 -0.00187836 -0.413774
vn -0.998988 0 -0.0449705
v -0.456616 0.00187836 -0.413774
vn 0.676449 0 -0.736489
v -0.25705 0.00187836 -0.230477
vn 0.676449 0 -0.736489
v -0.456616 -0.00187836 -0.413774
vn 0.676449 0 -0.736489
v -0.456616 -0.00187836 -0.413774
vn 0.676449 0 -0.736489
v -0.25705 0.00187836 -0.230477
vn 0.676449 0 -0.736489
v -0.25705 -0.00187836 -0.230477
vn 0.676449 0 -0.736489
f -30//-30 -29//-29 -28//-28
f -27//-27 -26//-26 -25//-25
f -24//-24 -23//-23 -22//-22
f -21//-21 -20//-20 -19//-19
f -18//-18 -17//-17 -16//-16
f -15//-15 -14//-14 -13//-13
f -12//-12 -11//-11 -10//-10
f -9//-9 -8//-8 -7//-7
f -6//-6 -5//-5 -4//-4
f -3//-3 -2//-2 -1//-1
