o sparse_faces
s off
v -0.2571 0.001878 -0.2305
vn 0.8286 0 -0.5598
v 0.01844 0.001878 0.1773
vn 0.8286 0 -0.5598
v -0.2571 -0.001878 -0.2305
vn 0.8286 0 -0.5598
v -0.2571 -0.001878 -0.2305
vn 0.8286 0 -0.5598
v 0.01844 0.001878 0.1773
vn 0.8286 0 -0.5598
v 0.01844 -0.001878 0.1773
vn 0.8286 0 -0.5598
v 0.01844 0.001878 0.1773
vn -0.4597 0 0.8881
v -0.4718 0.001878 -0.07646
vn -0.4597 0 0.8881
v 0.01844 -0.001878 0.1773
vn -0.4597 0 0.8881
v 0.01844 -0.001878 0.1773
vn -0.4597 0 0.8881
v -0.4718 0.001878 -0.07646
vn -0.4597 0 0.8881
v -0.4718 -0.001878 -0.07646
vn -0.4597 0 0.8881
v -0.4718 -0.001878 -0.07646
vn -0.999 0 -0.04497
v -0.4566 0.001878 -0.4138
vn -0.999 0 -0.04497
v -0.4566 -0.001878 -0.4138
vn -0.999 0 -0.04497
f -15//-15 -14//-14 -13//-13
f -12//-12 -11//-11 -10//-10
f -9//-9 -8//-8 -7//-7
f -6//-6 -5//-5 -4//-4
f -3//-3 -2//-2 -1//-1
