<?xml version="1.0" encoding="iso-8859-1"?>
<!-- Generator: Adobe Illustrator 9.0, SVG Export Plug-In  -->
<!DOCTYPE svg PUBLIC "-//W3C//DTD SVG 20000303 Stylable//EN"   "http://www.w3.org/TR/2000/03/WD-SVG-20000303/DTD/svg-20000303-stylable.dtd" [
	<!ENTITY st0 "fill:#FFFFFF;stroke:none;">
	<!ENTITY st1 "fill-rule:nonzero;clip-rule:nonzero;stroke:#000000;stroke-miterlimit:4;">
]>
<svg  width="46.698pt" height="120.583pt" viewBox="0 0 46.698 120.583" xml:space="preserve">
	<g id="Layer_x0020_1" style="&st1;">
		<path d="M30.379,120.083H15.478V33.995h14.901v86.087z"/>
		<path d="M23.35,0.884l11.2,16.319l11.199,16.319H23.35H0.95l11.2-16.319l11.2-16.319z"/>
		<path d="M42.187,90.756H3.669V62.375h38.518v28.382z"/>
		<path style="&st0;" d="M11.339,87.781V65.114h4.36l9.765,11.468c2.226,2.657,4.043,5.012,5.45,7.366l0.137-0.034c-0.364-3.027-0.453-5.784-0.453-9.282v-9.518h3.723v22.667h-3.997l-9.719-11.502c-2.135-2.521-4.179-5.112-5.679-7.565l-0.135,0.033
			c0.227,2.858,0.273,5.582,0.273,9.349v9.686h-3.725z"/>
	</g>
</svg>
