<?xml version="1.0" encoding="UTF-8" standalone="no"?>
<svg xmlns:rdf="http://www.w3.org/1999/02/22-rdf-syntax-ns#" xmlns="http://www.w3.org/2000/svg" version="1.0" xmlns:cc="http://creativecommons.org/ns#" xmlns:dc="http://purl.org/dc/elements/1.1/" viewBox="0 0 450 500">
	<title>North Arrow 17, Corner Arrow N/E</title>
	<metadata>
		<rdf:RDF>
			<cc:Work rdf:about="">
				<dc:format>image/svg+xml</dc:format>
				<dc:type rdf:resource="http://purl.org/dc/dcmitype/StillImage"/>
				<dc:title>North Arrow 17, Corner Arrow N/E</dc:title>
				<dc:description>North Arrow 17, Corner Arrow N/E</dc:description>
				<dc:date>2009-11-08</dc:date>
				<dc:creator>
					<cc:Agent>
						<dc:title>Silvio Grosso</dc:title>
					</cc:Agent>
				</dc:creator>
				<cc:license rdf:resource="http://creativecommons.org/licenses/publicdomain/"/>
			</cc:Work>
			<cc:License rdf:about="http://creativecommons.org/licenses/publicdomain/">
				<cc:permits rdf:resource="http://creativecommons.org/ns#Reproduction"/>
				<cc:permits rdf:resource="http://creativecommons.org/ns#Distribution"/>
				<cc:permits rdf:resource="http://creativecommons.org/ns#DerivativeWorks"/>
			</cc:License>
		</rdf:RDF>
	</metadata>
	<g transform="matrix(1.1122325,0,0,1.1813269,-211.4308,-322.58952)">
		<path id="character_n" fill="black" d="M325.51,277.65h33.2v8.55h-20.78v6.38h19.27v8.17h-19.27v7.9h21.38v9.08h-33.8v-40.08z" transform="translate(210.47753,252.2551)"/>
		<path id="character_e" fill="black" d="M325.62,277.65h11.57l15.09,22.17v-22.17h11.68v40.08h-11.68l-15.01-22.01v22.01h-11.65v-40.08z" transform="translate(-6.4618,86.3972)"/>
		<path id="arrow" d="M324.33,589.09v-111.63h-39.25l58.03-58.37,59.72,58.37h-39.25v58.63l78.5,0.7v-31.43l78.5,43.41-78.5,40.32v-27.91h-78.5v55.81h-39.25v-27.9z" stroke="black" stroke-linecap="butt" stroke-width="6.6" fill="none"/>
	</g>
</svg>
