<?xml version="1.0" encoding="iso-8859-1"?>
<!-- Generator: Adobe Illustrator 9.0, SVG Export Plug-In  -->
<!DOCTYPE svg PUBLIC "-//W3C//DTD SVG 20000303 Stylable//EN"   "http://www.w3.org/TR/2000/03/WD-SVG-20000303/DTD/svg-20000303-stylable.dtd" [
	<!ENTITY st0 "fill-rule:nonzero;clip-rule:nonzero;stroke:#000000;stroke-miterlimit:4;">
	<!ENTITY st1 "stroke:none;">
]>
<svg  width="98.381pt" height="113.703pt" viewBox="0 0 98.381 113.703" xml:space="preserve">
	<g id="Layer_x0020_1" style="&st0;">
		<path d="M49.19,17.524l3.16,44.981l45.997,3.09l-45.997,3.09l-3.16,44.982l-3.159-44.982l-45.998-3.09l45.998-3.09l3.159-44.981z"/>
		<path style="&st1;" d="M42.226,16V0h2.589l5.799,8.095c1.321,1.875,2.4,3.537,3.236,5.199l0.081-0.024c-0.216-2.137-0.27-4.083-0.27-6.552V0h2.211v16h-2.373l-5.771-8.119c-1.268-1.78-2.481-3.608-3.372-5.341l-0.081,0.024c0.135,2.018,0.162,3.94,0.162,6.599V16
			h-2.211z"/>
	</g>
</svg>
