<?xml version="1.0" encoding="UTF-8" standalone="no"?>
<svg xmlns:rdf="http://www.w3.org/1999/02/22-rdf-syntax-ns#" xmlns="http://www.w3.org/2000/svg" version="1.0" xmlns:cc="http://creativecommons.org/ns#" xmlns:dc="http://purl.org/dc/elements/1.1/" viewBox="0 0 450 500">
	<title>North Arrow 15, Checkerboard Corner Arrow</title>
	<metadata>
		<rdf:RDF>
			<cc:Work rdf:about="">
				<dc:format>image/svg+xml</dc:format>
				<dc:type rdf:resource="http://purl.org/dc/dcmitype/StillImage"/>
				<dc:title>North Arrow 15, Checkerboard Corner Arrow</dc:title>
				<dc:description>North Arrow 15, Checkerboard Corner Arrows</dc:description>
				<dc:contributor>
					<cc:Agent>
						<dc:title/>
					</cc:Agent>
				</dc:contributor>
				<dc:creator>
					<cc:Agent>
						<dc:title>Silvio Grosso</dc:title>
					</cc:Agent>
				</dc:creator>
				<dc:date>2009-11-08</dc:date>
				<cc:license rdf:resource="http://creativecommons.org/licenses/publicdomain/"/>
			</cc:Work>
			<cc:License rdf:about="http://creativecommons.org/licenses/publicdomain/">
				<cc:permits rdf:resource="http://creativecommons.org/ns#Reproduction"/>
				<cc:permits rdf:resource="http://creativecommons.org/ns#Distribution"/>
				<cc:permits rdf:resource="http://creativecommons.org/ns#DerivativeWorks"/>
			</cc:License>
		</rdf:RDF>
	</metadata>
	<g transform="translate(-84.852813,-216.17264)">
		<g transform="matrix(1.571043,0,0,1.579954,-346.75734,-400.58831)">
			<g id="inner_checkered_circle" stroke="black" transform="matrix(1.499409,0,0,1.417922,-191.9873,-156.6127)">
				<path d="M403.18,540.59a13.385,13.385,0,1,1,-26.77,0,13.385,13.385,0,1,1,26.77,0z" transform="matrix(1.195693,0,0,1.190976,-72.34677,-122.1065)" stroke-linecap="square" stroke-width="1.92" fill="none"/>
				<path d="M393.95,506.12v15.73h14.97c-1.11-8.45-2.96-16.3-14.97-15.73z" stroke-width="1.02" fill="none"/>
				<path d="M393.62,506.22v15.61h-14.98c1.12-8.38,2.97-16.17,14.98-15.61z" fill-rule="evenodd" stroke-linecap="butt" stroke-width="1.02" fill="black"/>
				<g transform="matrix(-1,0,0,-1,787.6156,1044.094)">
					<path d="M393.95,506.12v15.73h14.97c-1.11-8.45-2.96-16.3-14.97-15.73z" stroke-width="1.02" fill="none"/>
					<path d="M393.62,506.22v15.61h-14.98c1.12-8.38,2.97-16.17,14.98-15.61z" stroke-width="1.02" fill="black"/>
				</g>
			</g>
			<g id="top_part_of_arrow" stroke="black" transform="matrix(4.00614,0,0,4.277573,-1024.345,-1738.586)">
				<path d="M355.06,536.94v-20.16l-7.44,10.62,5.44-1.58v11.54l2-0.42z" stroke-width="0.5" fill="none"/>
				<path d="M355.59,536.74l0.15-19.16,5.63,9.17-4.07-0.63v11.08l-1.71-0.46z" stroke-width="0.88" fill="black"/>
			</g>
			<g id="right_arrow" stroke="black" transform="matrix(0,-4.00614,-4.277573,0,2719.64,2005.773)">
				<path d="M355.06,536.94v-20.16l-7.44,10.62,5.44-1.58v11.54l2-0.42z" stroke-width="0.5" fill="none"/>
				<path d="M355.59,536.74l0.15-19.16,5.63,9.17-4.07-0.63v11.08l-1.71-0.46z" stroke-width="0.88" fill="black"/>
			</g>
			<g id="lower_part_of_arrow" transform="matrix(1.903547,0,0,2.122449,-260.0025,-661.6547)">
				<path d="M341,597.05v20.87h4.91v-20.87h-4.91z" fill-rule="evenodd" stroke="none" fill="black"/>
				<path d="M345.5,597.45v20h5v-20h-5z" stroke="black" fill="none"/>
			</g>
		</g>
		<path id="character_e" fill="black" d="M325.51,277.65h33.2v8.55h-20.78v6.38h19.27v8.17h-19.27v7.9h21.38v9.08h-33.8v-40.08z" transform="translate(136.65162,223.71949)"/>
		<path id="character_n" fill="black" d="M325.62,277.65h11.57l15.09,22.17v-22.17h11.68v40.08h-11.68l-15.01-22.01v22.01h-11.65v-40.08z" transform="translate(-64.517638,17.31039)"/>
	</g>
</svg>
