<?xml version="1.0" encoding="UTF-8" standalone="no"?>
<svg xmlns:rdf="http://www.w3.org/1999/02/22-rdf-syntax-ns#" xmlns="http://www.w3.org/2000/svg" version="1.0" xmlns:cc="http://creativecommons.org/ns#" xmlns:dc="http://purl.org/dc/elements/1.1/" viewBox="0 0 450 500">
	<title>North Arrow, Triangular Arrows with Worldmap</title>
	<metadata>
		<rdf:RDF>
			<cc:Work rdf:about="">
				<dc:format>image/svg+xml</dc:format>
				<dc:type rdf:resource="http://purl.org/dc/dcmitype/StillImage"/>
				<dc:title>North Arrow, Triangular Arrows with Worldmap</dc:title>
				<dc:description>North Arrow, Triangular Arrows with Worldmap</dc:description>
				<dc:date>2008-11-08</dc:date>
				<dc:creator>
					<cc:Agent>
						<dc:title>Silvio Grosso</dc:title>
					</cc:Agent>
				</dc:creator>
				<cc:license rdf:resource="http://creativecommons.org/licenses/publicdomain/"/>
			</cc:Work>
			<cc:License rdf:about="http://creativecommons.org/licenses/publicdomain/">
				<cc:permits rdf:resource="http://creativecommons.org/ns#Reproduction"/>
				<cc:permits rdf:resource="http://creativecommons.org/ns#Distribution"/>
				<cc:permits rdf:resource="http://creativecommons.org/ns#DerivativeWorks"/>
			</cc:License>
		</rdf:RDF>
	</metadata>
	<path id="big_arrow" d="M144.63,264.06l67.58-172.54,66.74,172.54-67.58,172.54-66.74-172.54z" stroke="black" stroke-width="15.2" fill="none"/>
	<g id="inner_arrow" stroke="black" stroke-width="1.4" fill="none">
		<path d="M206.83,312.79l2.63,95.85-29.57-100.99c8.72,1.21,6.49,3.55,26.94,5.14z" />
		<path d="M215.44,212.71l-3.09-98.43,30.27,103.91c-8.72-1.21-6.73-3.89-27.18-5.48z" />
	</g>	
	<g id="small-arrows" fill="black" stroke-width="1.76" stroke="black">	
		<path id="arrow_west" d="M142.83,276.14v-24.71l-29.78,12.07,29.78,12.64z"/>
		<path id="arrow_east" d="M282,274.8v-24.72l29.82,12.08-29.82,12.64z"/>
	</g>
	<g id="worldmap" stroke="black" fill="black" stroke-width="0.78">
		<path id="earth_outline" d="M495,441.29a62.5,32.5,0,1,1,-125,0,62.5,32.5,0,1,1,125,0z" transform="matrix(0.98806,0,0,1.2714034,-214.42615,-299.72441)" stroke-width="5.2" fill="none"/>
		<path  d="M169.07,240.61c0.22-0.39,0.43-0.4,0.94-0.68,0.24-0.1,0.47-0.04,0.71,0,0.27,0.09,0.5,0.26,0.73,0.41,0.22,0.19,0.48,0.21,0.75,0.26,0.3-0.06,0.54,0.07,0.8,0.14,0.14,0.15,0.22,0.32,0.33,0.48,0.08,0.22,0.27,0.18,0.44,0.26,0.26,0.01,0.49,0.12,0.73,0.2,0.21,0.07,0.36,0.21,0.53,0.34,0.23,0.15,0.39,0.04,0.61,0.01-0.04-0.04-0.65,0.48,0.02-0.14,0.41-0.36,0.87-0.53,1.37-0.67,0.02-0.01-0.03,0-0.05,0.01,0.97-0.6,0.63-0.52,0.99-0.08,0.1,0.2,0.1,0.42,0.13,0.64,0.02,0.25,0,0.51,0,0.76-0.06,0.25-0.08,0.51-0.1,0.76-0.03,0.25-0.01,0.49-0.01,0.74,0.09,0.22,0.25,0.19,0.46,0.24,0.24,0.02,0.49,0.01,0.74,0.01h0.76c0.44,0.06,1.06-0.32,0.04,0.24,0.22-0.14,0.3-0.37,0.41-0.6,0.07-0.24,0.07-0.5,0.08-0.75-0.02-0.25,0.02-0.49,0.03-0.73,0.05-0.27,0.26-0.38,0.43-0.55,0.25-0.13,0.44-0.33,0.63-0.53,0.32-0.41,0.88-0.43,1.27-0.59,0.19,0.04,0.34,0.17,0.51,0.26,0.06,0.21,0.25,0.27,0.38,0.39,0.33,0.07,0.6,0.26,0.88,0.44,0.33,0.18,0.44,0.47,0.59,0.8,0.16,0.33,0.19,0.7,0.24,1.06-0.04,0.36,0.08,0.52,0.28,0.78,0.31,0.14,0.66,0.15,1,0.18,0.4,0.01,0.58,0.23,0.85,0.47,0.12,0.26,0.26,0.52,0.38,0.78,0.1,0-0.09,0.18-0.18,0.22,0.27-0.4,0.79-0.51,1.19-0.71,0.61-0.34-0.73,0.58,0.08-0.12,0.39-0.39,0.89-0.61,1.41-0.76,0.31-0.11,0.45,0.06,0.69,0.18,0.18,0.24,0.08,0.43,0.06,0.69-0.09,0.21-0.21,0.41-0.33,0.6-0.04,0.21-0.15,0.37-0.25,0.54-0.41,0.46-0.76,0.49-1.26,0.56-0.28,0.01-0.56,0-0.83,0h-0.78-0.76c-0.25-0.03-0.49,0.05-0.73,0.1-0.22,0.05-0.41,0.15-0.61,0.22,1.01-0.71,0.31-0.05,0.11,0.25-0.14,0.17-0.24,0.38-0.34,0.58-0.11,0.2-0.26,0.36-0.41,0.53-0.18,0.2-0.22,0.44-0.28,0.69-0.01,0.24-0.19,0.34-0.31,0.51-0.56,0.41-1.41,0.84-0.46,0.31-0.15,0.09-0.27,0.22-0.41,0.34-0.38,0.36-0.77,0.46-1.23,0.55-0.06-0.04,0.14,0.01,0.21,0-0.11,0.16-0.06,0.36-0.07,0.52,0.17,0.05,0.36,0.05,0.54,0.06,0.3,0.07,0.34,0.29,0.49,0.51,0.07,0.25,0.06,0.51,0.07,0.76,0.01,0.31-0.04,0.62-0.08,0.93,0.02,0.3-0.14,0.51-0.26,0.76-0.16,0.22-0.33,0.43-0.5,0.64-0.14,0.2-0.29,0.38-0.44,0.57-0.2,0.14-0.24,0.35-0.33,0.56-0.07,0.26-0.02,0.52,0.01,0.79,0,0.25,0.13,0.44,0.23,0.66,0.09,0.24,0.28,0.4,0.45,0.58,0.19,0.16,0.41,0.29,0.62,0.43,0.22,0.18,0.21,0.42,0.27,0.67-0.1,0.64-0.83,0.39-1.2,0.5-0.24,0-0.43-0.14-0.64-0.24-0.18-0.16-0.33-0.32-0.5-0.49-0.15-0.15-0.27-0.33-0.4-0.5-0.1-0.16-0.21-0.32-0.32-0.48-0.05-0.19-0.22-0.26-0.33-0.37-0.16-0.05-0.31-0.15-0.46-0.22-0.16-0.13-0.37-0.13-0.56-0.17-0.21,0.04-0.42,0.06-0.63,0.09,0.07-0.14-0.58,0.24-0.44,0.17,0.18-0.1,0.36-0.21,0.55-0.31-0.03,0.03-0.06,0.05-0.09,0.08-0.37,0.34-1.89,1.11-0.58,0.38-0.35,0.31-0.81,0.47-1.21,0.68-0.24,0.06-0.47,0.13-0.7,0.19,0.08-0.11-0.5,0.24-0.38,0.17,0.18-0.1,0.36-0.21,0.54-0.31-0.03,0.02-0.07,0.05-0.1,0.07-0.22,0.16-0.4,0.36-0.59,0.56-0.33,0.41-0.87,0.44-1.3,0.62-0.23-0.03-0.45-0.16-0.66-0.27,0.05-0.14-0.56,0.13-0.43,0.05,0.19-0.1,0.37-0.2,0.56-0.3-0.03,0.02-0.06,0.04-0.09,0.06-0.19,0.15-0.22,0.37-0.3,0.58-0.06,0.26-0.1,0.52-0.15,0.79-0.07,0.32-0.07,0.66-0.08,0.99-0.03,0.28,0.01,0.55,0.03,0.83,0.06,0.22,0.06,0.45,0.09,0.68,0.01,0.25,0,0.51,0.01,0.76v0.76c-0.02,0.26,0.06,0.51,0.12,0.76,0.09,0.27,0.25,0.25,0.47,0.34,0.06,0-0.01,0.12-0.06,0.14,0.19-0.16,0.26-0.39,0.36-0.6,0.1-0.23,0.17-0.48,0.24-0.72,0.72-0.62,0.67-0.62,1.06-0.21,0.09,0.29,0.08,0.6,0.09,0.9v0.9c-0.03,0.28,0.08,0.51,0.17,0.76,0.09,0.26,0.27,0.32,0.46,0.45,0.24-0.02,0.42,0.11,0.62,0.18,0.21,0.2,0.21,0.44,0.25,0.71,0.02,0.27,0.02,0.55,0.02,0.83-0.05,0.23,0.04,0.42,0.1,0.64,0.11,0.2,0.11,0.42,0.14,0.64-0.03,0.26,0.04,0.52,0.08,0.77,0.07,0.24,0.27,0.34,0.43,0.49,0.2,0.05,0.41,0.01,0.61,0,0.26-0.02,0.52-0.02,0.79-0.02,0.39-0.02,0.77,0,1.16,0.04,0.29-0.01,0.54,0.13,0.8,0.24,0.26,0.1,0.49,0.25,0.73,0.4,0.26,0.2,0.49,0.43,0.73,0.66,0.25,0.12,0.52,0.07,0.78,0.05,0.27-0.06,0.54-0.08,0.81-0.11,0.47-0.06,0.92,0.03,1.37,0.15,0.45,0.07,0.75,0.33,1.05,0.65,0.27,0.31,0.36,0.67,0.45,1.05,0.12,0.61,0.16,1.24,0.2,1.86,0,0.4,0.04,0.8,0.09,1.19,0.01,0.34,0.15,0.65,0.26,0.96,0.12,0.28,0.14,0.57,0.18,0.87,0.01,0.26,0.01,0.53,0.01,0.79v0.95c0,0.33,0,0.67-0.01,1,0.04,0.36-0.02,0.69-0.08,1.04-0.07,0.24-0.23,0.44-0.36,0.64-0.12,0.21-0.18,0.44-0.26,0.67-0.07,0.22-0.18,0.42-0.27,0.63-0.09,0.2-0.23,0.39-0.35,0.57-0.14,0.21-0.23,0.44-0.34,0.66-0.06,0.23-0.14,0.46-0.21,0.69-0.09,0.27-0.3,0.39-0.49,0.56-0.21,0.11-0.34,0.3-0.49,0.46-0.06,0.25-0.22,0.44-0.35,0.66-1.94,1.14,0.12-0.12-0.5,0.42-0.1,0.22-0.09,0.46-0.1,0.7v0.95c0.07,0.27-0.06,0.43-0.15,0.64-0.75,0.47-0.67,0.44-1.15,0.07-0.19-0.15-0.37-0.31-0.55-0.47-0.22-0.15-0.23-0.36-0.31-0.58-0.03-0.25-0.02-0.5-0.03-0.75-0.03-0.31,0.11-0.55,0.24-0.81,0.16-0.22,0.19-0.47,0.25-0.72,0.03-0.25,0.02-0.5,0.03-0.75,0-0.26-0.01-0.51-0.01-0.77v-0.79c0.01-0.28,0-0.57-0.01-0.84-0.06-0.25-0.15-0.49-0.23-0.73-0.05-0.22-0.25-0.26-0.39-0.38-0.15-0.12-0.33-0.17-0.49-0.26-0.19-0.11-0.32-0.28-0.46-0.42-0.15-0.12-0.25-0.28-0.37-0.43-0.1-0.11-0.18-0.23-0.27-0.34-0.09-0.2-0.22-0.37-0.34-0.55-0.13-0.23-0.35-0.37-0.55-0.54-0.19-0.13-0.42-0.12-0.64-0.15-0.25,0.05-0.5,0.08-0.75,0.11-0.25,0.02-0.35-0.13-0.53-0.26-0.14-0.12-0.23-0.28-0.34-0.42-0.1-0.18-0.21-0.35-0.31-0.52-0.05-0.22-0.18-0.4-0.28-0.6-0.16-0.19-0.35-0.35-0.53-0.52-0.22-0.2-0.28-0.48-0.38-0.75-0.07-0.29-0.08-0.57-0.11-0.86-0.04-0.32-0.1-0.64-0.15-0.96-0.06-0.38-0.07-0.77-0.08-1.16-0.01-0.31-0.01-0.62-0.01-0.93-0.02-0.28,0.07-0.54,0.14-0.8,0.13-0.26,0.28-0.51,0.43-0.76,0.14-0.19,0.22-0.4,0.32-0.61,0.11-0.19,0.07-0.4,0.09-0.6-0.05-0.2-0.12-0.38-0.18-0.57-0.09-0.19-0.23-0.34-0.36-0.49-0.16-0.11-0.24-0.29-0.35-0.44-0.11-0.37,0.05-0.66,0.2-1,0.28-0.24,0.15-0.55,0.17-0.76-0.21-0.08-0.43-0.05-0.65-0.06-0.25,0.01-0.51,0.01-0.77,0.01-0.26,0.04-0.44-0.11-0.66-0.22-0.19-0.13-0.33-0.31-0.48-0.48-0.18-0.18-0.35-0.37-0.53-0.55-0.04-0.24-0.28-0.18-0.38-0.25-0.16,0.04-0.25-0.14-0.37-0.2-0.08-0.19-0.19-0.35-0.3-0.52-0.12-0.15-0.27-0.29-0.42-0.42-0.16-0.18-0.26-0.39-0.39-0.59-0.13-0.26-0.15-0.54-0.18-0.82-0.02-0.27-0.02-0.53-0.02-0.8,0.03-0.25-0.04-0.49-0.08-0.74-0.12-0.22-0.3-0.19-0.51-0.24-0.25,0.02-0.37-0.13-0.54-0.26-0.14-0.15-0.2-0.35-0.28-0.53-0.19-0.14-0.22-0.35-0.31-0.54-0.06-0.24-0.05-0.49-0.05-0.74,0.02-0.23-0.04-0.45-0.08-0.68-0.04-0.27-0.04-0.55-0.05-0.82v-0.89c0.03-0.23-0.13-0.36-0.22-0.54-0.17-0.15-0.35-0.27-0.53-0.4-0.2-0.11-0.36-0.28-0.53-0.43-0.16-0.15-0.31-0.31-0.47-0.46s-0.21-0.37-0.29-0.57c-0.05-0.12-0.08-0.35-0.1-0.43,1.99-1.66,0.19-0.01,0.83-0.06,0.06,0.23,0.07,0.47,0.09,0.71,0.05,0.29,0.08,0.58,0.1,0.87,0.02,0.26,0.02,0.52,0.02,0.78,0.04,0.21,0.07,0.43,0.1,0.65,0.02,0.26,0.02,0.51,0.02,0.77-0.08,0.8-0.8,0.21-0.99,0.23-0.17-0.18-0.28-0.39-0.41-0.6-0.09-0.2-0.19-0.4-0.29-0.6-0.13-0.22-0.17-0.47-0.21-0.72-0.04-0.28-0.03-0.57-0.02-0.86,0.05-0.26,0.07-0.52,0.1-0.78-0.01-0.26,0.04-0.51,0.08-0.76,0.1-0.21-0.03-0.31-0.09-0.48-0.1-0.18-0.24-0.33-0.36-0.49-0.14-0.15-0.29-0.29-0.44-0.44-0.1-0.15-0.22-0.3-0.34-0.45-0.14-0.21-0.25-0.44-0.37-0.66-0.15-0.26-0.18-0.54-0.22-0.83-0.02-0.28-0.02-0.56-0.02-0.85-0.01-0.43,0.02-0.86,0.06-1.29,0.04-0.32,0.05-0.65,0.06-0.98-0.04-0.29,0.06-0.53,0.15-0.8,0.11-0.24,0.32-0.39,0.52-0.55,0.17-0.19,0.36-0.36,0.56-0.54,0.18-0.13,0.32-0.31,0.47-0.48,0.14-0.16,0.17-0.37,0.23-0.57,0.07-0.25,0.13-0.5,0.19-0.75-0.01-0.23,0.11-0.42,0.2-0.62,0.16-0.21,0.3-0.43,0.43-0.66,0.14-0.21,0.24-0.44,0.36-0.66,0.07-0.23,0.06-0.48,0.07-0.72,0.06-0.23-0.05-0.43-0.1-0.63-0.34-0.01-0.95,0.4,0.12-0.2-0.36,0.32-0.87,0.46-1.24,0.62-0.23-0.04-0.33-0.22-0.48-0.39-0.11-0.16-0.29-0.26-0.43-0.39-0.17-0.08-0.38-0.09-0.56-0.1-0.2-0.12,0.03-0.3,0.04-0.42,0.26-0.38,0.75-0.47,1.13-0.66,0.23-0.06,0.45,0.01,0.68,0.04,0.2-0.03,0.4-0.09,0.6-0.14,0.27-0.03,0.55-0.05,0.82-0.07,0.26-0.08,0.52-0.07,0.79-0.07,0.29,0.08,0.57,0.12,0.86,0.16,0.29,0.1,0.22,0.24,0.28,0.48l-0.68,0.33c-0.04-0.08,0.07-0.43-0.21-0.37-0.29-0.05-0.57-0.1-0.86-0.17-0.26,0.02-0.53,0.02-0.78,0.09-0.28,0.02-0.55,0.03-0.82,0.07-0.2,0.06-0.41,0.14-0.62,0.12-0.22-0.02-0.44-0.08-0.66-0.01,0.05-0.04,0.2-0.14,0.16-0.1-0.03,0.08-0.22,0.2-0.1,0.29,0.19,0.02,0.39,0.01,0.56,0.13,0.16,0.13,0.33,0.24,0.45,0.41,0.13,0.15,0.22,0.31,0.44,0.33-0.03,0.03-0.1,0.12-0.07,0.1,0.57-0.34,0.7-0.56,1.22-0.47,0.07,0.22,0.19,0.42,0.13,0.68-0.01,0.25,0,0.5-0.06,0.74-0.11,0.23-0.2,0.47-0.36,0.67-0.13,0.23-0.25,0.46-0.43,0.66-0.09,0.2-0.21,0.37-0.21,0.6-0.05,0.26-0.11,0.51-0.18,0.75-0.06,0.21-0.1,0.43-0.22,0.61-0.15,0.17-0.28,0.36-0.47,0.49-0.2,0.17-0.39,0.34-0.56,0.53-0.19,0.16-0.41,0.3-0.53,0.53-0.1,0.26-0.2,0.48-0.16,0.77-0.01,0.33-0.02,0.66-0.07,0.99-0.04,0.43-0.07,0.85-0.05,1.28,0,0.28-0.01,0.56,0.01,0.84,0.04,0.28,0.06,0.56,0.21,0.81,0.12,0.21,0.23,0.44,0.37,0.64,0.11,0.15,0.23,0.3,0.34,0.45,0.14,0.15,0.29,0.29,0.43,0.44,0.13,0.17,0.27,0.32,0.37,0.5,0.07,0.19,0.22,0.31,0.12,0.53-0.04,0.25-0.12,0.5-0.09,0.76-0.02,0.26-0.04,0.52-0.1,0.78-0.01,0.28-0.03,0.56,0.01,0.84,0.05,0.24,0.07,0.49,0.21,0.7,0.09,0.2,0.19,0.39,0.28,0.59,0.13,0.21,0.23,0.41,0.39,0.59-0.1,0.16-0.15,0.62-0.3,0.5-0.01-0.25,0-0.51-0.03-0.76-0.03-0.22-0.06-0.44-0.1-0.66,0-0.26,0-0.52-0.01-0.78-0.03-0.29-0.05-0.57-0.1-0.86-0.02-0.23-0.03-0.47-0.09-0.7,0.4-0.58-1.94,0.32,0.48-0.7,0.04,0.16,0.06,0.32,0.11,0.47,0.07,0.19,0.12,0.39,0.27,0.53l0.47,0.47c0.17,0.14,0.33,0.3,0.52,0.41,0.18,0.14,0.38,0.26,0.55,0.42,0.11,0.19,0.25,0.34,0.24,0.59v0.89c0.01,0.27,0.01,0.54,0.05,0.81,0.04,0.23,0.1,0.46,0.07,0.69,0.01,0.24,0,0.48,0.05,0.72,0.08,0.19,0.12,0.39,0.3,0.53,0.08,0.17,0.14,0.37,0.27,0.51,0.17,0.09,0.28,0.26,0.52,0.21,0.23,0.08,0.42,0.06,0.54,0.32,0.05,0.25,0.13,0.5,0.1,0.76,0,0.26,0,0.53,0.01,0.79,0.03,0.27,0.04,0.55,0.18,0.79,0.12,0.2,0.22,0.41,0.37,0.58,0.15,0.13,0.31,0.26,0.43,0.42,0.1,0.17,0.22,0.33,0.3,0.51,0.1,0.05,0.18,0.21,0.33,0.15,0.14,0.09,0.35,0.09,0.42,0.31,0.17,0.19,0.34,0.37,0.52,0.55,0.15,0.16,0.28,0.34,0.47,0.46,0.22,0.1,0.39,0.23,0.64,0.19,0.26,0,0.51-0.01,0.77-0.01,0.23,0.01,0.47-0.02,0.68,0.1,0.04,0.31,0.15,0.52-0.13,0.85-0.15,0.32-0.31,0.58-0.23,0.94,0.11,0.14,0.2,0.31,0.35,0.42,0.13,0.16,0.28,0.31,0.36,0.51,0.07,0.2,0.14,0.39,0.19,0.59,0,0.21,0.04,0.43-0.07,0.64-0.09,0.21-0.18,0.43-0.32,0.61-0.14,0.25-0.29,0.5-0.43,0.75-0.07,0.25-0.17,0.5-0.15,0.77v0.94c0.01,0.38,0.02,0.77,0.08,1.15,0.05,0.32,0.11,0.64,0.16,0.96,0.02,0.28,0.04,0.57,0.1,0.85,0.09,0.25,0.15,0.52,0.35,0.72,0.19,0.17,0.39,0.33,0.55,0.53,0.1,0.2,0.23,0.38,0.28,0.61,0.1,0.16,0.21,0.33,0.31,0.5,0.11,0.14,0.2,0.3,0.33,0.42,0.17,0.09,0.26,0.26,0.49,0.2,0.25-0.03,0.5-0.08,0.76-0.09,0.23,0.03,0.47,0.03,0.67,0.17,0.2,0.18,0.42,0.33,0.56,0.57,0.12,0.18,0.25,0.35,0.34,0.56,0.09,0.1,0.18,0.21,0.27,0.33,0.12,0.14,0.22,0.3,0.36,0.42,0.14,0.14,0.26,0.3,0.44,0.4,0.17,0.08,0.35,0.15,0.51,0.26,0.16,0.13,0.33,0.2,0.4,0.42,0.09,0.25,0.18,0.49,0.24,0.75,0.02,0.28,0.03,0.56,0.02,0.85v0.79,0.76c0,0.26,0.01,0.51-0.02,0.77-0.05,0.26-0.08,0.52-0.24,0.74-0.13,0.26-0.27,0.48-0.25,0.78,0,0.25-0.01,0.49,0.02,0.74,0.08,0.2,0.08,0.39,0.29,0.53,0.18,0.16,0.36,0.32,0.55,0.48,0.42,0.3,0.6,0.21-0.19,0.6,0.07-0.18,0.3-0.29,0.19-0.58,0-0.32-0.01-0.64-0.01-0.95,0.01-0.25,0-0.5,0.08-0.73,0.53-0.4,1.29-1.01,0.49-0.45,0.14-0.2,0.33-0.36,0.36-0.64,0.15-0.17,0.25-0.38,0.48-0.48,0.19-0.15,0.41-0.27,0.51-0.52,0.07-0.23,0.16-0.46,0.21-0.7,0.1-0.22,0.2-0.45,0.33-0.66,0.13-0.19,0.26-0.37,0.35-0.57,0.1-0.21,0.21-0.41,0.27-0.62,0.09-0.23,0.16-0.46,0.26-0.68,0.14-0.2,0.28-0.4,0.37-0.63,0.07-0.34,0.14-0.67,0.1-1.02v-1-0.95c0-0.26,0-0.52-0.01-0.78-0.03-0.29-0.05-0.58-0.16-0.86-0.12-0.31-0.26-0.62-0.28-0.97-0.04-0.4-0.08-0.8-0.07-1.2-0.04-0.62-0.08-1.24-0.2-1.86-0.09-0.36-0.18-0.71-0.44-1-0.31-0.29-0.57-0.56-1.02-0.62-0.45-0.11-0.9-0.19-1.36-0.12-0.27,0.03-0.54,0.06-0.81,0.11-0.28,0.01-0.56,0.05-0.81-0.11-0.24-0.22-0.47-0.45-0.73-0.65-0.24-0.14-0.47-0.29-0.73-0.39-0.25-0.1-0.49-0.23-0.77-0.22-0.39-0.03-0.78-0.05-1.17-0.03-0.26,0-0.53,0-0.79,0.02-0.21,0.01-0.42,0.06-0.63-0.03-0.17-0.16-0.38-0.28-0.46-0.53-0.04-0.26-0.12-0.52-0.09-0.79-0.03-0.21-0.02-0.43-0.12-0.62-0.07-0.23-0.17-0.43-0.12-0.67,0-0.28,0.01-0.55-0.01-0.83-0.04-0.24-0.03-0.47-0.22-0.65-0.2-0.06-0.4-0.15-0.61-0.16-0.2-0.15-0.4-0.23-0.49-0.5-0.1-0.26-0.22-0.5-0.19-0.79v-0.9c-0.01-0.29,0.01-0.59-0.07-0.87,0.01-0.03-0.47-0.85,0.27-0.47-0.07,0.24-0.16,0.48-0.23,0.72-0.1,0.22-0.18,0.45-0.35,0.63-0.39,0.24-0.76,0.67-1.25,0.57-0.23-0.12-0.43-0.12-0.52-0.41-0.06-0.26-0.14-0.51-0.13-0.78v-0.76c0-0.25,0-0.5-0.01-0.75-0.02-0.23-0.02-0.46-0.08-0.68-0.02-0.28-0.07-0.56-0.04-0.84,0.02-0.34,0.01-0.67,0.07-1.01,0.06-0.26,0.1-0.52,0.16-0.79,0.07-0.21,0.1-0.45,0.27-0.62,0.48-0.29,0.75-0.62,1.29-0.51,0.2,0.1,0.4,0.24,0.64,0.24,0,0.04-0.01,0.15,0,0.12,0.19-0.2,0.38-0.4,0.58-0.58,0.4-0.24,0.78-0.53,1.23-0.66,0.23-0.06,0.47-0.12,0.7-0.19-0.02,0.02-0.1,0.07-0.08,0.05,2.12-1.27-0.38,0.29,0.58-0.37,0.42-0.27,0.78-0.6,1.28-0.66,0.21-0.04,0.43-0.08,0.64-0.08,0.21,0.05,0.42,0.05,0.59,0.19,0.15,0.07,0.29,0.15,0.45,0.22,0.12,0.12,0.3,0.21,0.35,0.4,0.11,0.16,0.22,0.31,0.31,0.48,0.13,0.17,0.25,0.34,0.41,0.49,0.16,0.16,0.31,0.32,0.48,0.47,0.2,0.09,0.39,0.22,0.63,0.22-0.05,0.08-0.01,0.32-0.09,0.27-0.05-0.23-0.03-0.44-0.23-0.61-0.22-0.14-0.44-0.26-0.63-0.43-0.17-0.18-0.36-0.36-0.47-0.6-0.1-0.23-0.23-0.43-0.23-0.7-0.04-0.27-0.09-0.53-0.03-0.81,0.09-0.21,0.11-0.44,0.32-0.58,0.15-0.19,0.31-0.37,0.44-0.58,0.17-0.21,0.34-0.42,0.5-0.64,0.13-0.23,0.3-0.42,0.28-0.72,0.04-0.3,0.1-0.61,0.08-0.92-0.01-0.24,0.01-0.49-0.06-0.73-0.13-0.2-0.16-0.39-0.45-0.44-0.19-0.02-0.41,0-0.57-0.12,0-0.18-0.09-0.4,0.03-0.59,0.31-0.25,0.55-0.76,1.08-0.77,0.78-0.18-0.09,0.11-0.07,0.19,0.14-0.11,0.26-0.24,0.41-0.35,0.16-0.09,0.63-0.36,0.46-0.3,0.13-0.15,0.31-0.23,0.33-0.46,0.06-0.26,0.1-0.52,0.27-0.73,0.15-0.16,0.3-0.32,0.41-0.51,0.11-0.2,0.19-0.41,0.34-0.59,0.32-0.5,0.55-0.75,1.17-1.02,0.2-0.07,0.4-0.16,0.61-0.21,0.25-0.04,0.49-0.11,0.75-0.08h0.76,0.77c0.28,0,0.56,0.01,0.84-0.01,0.79-0.16,0.05,0.1-0.04,0.19,0.1-0.17,0.24-0.32,0.26-0.52,0.11-0.2,0.21-0.4,0.33-0.6,0.03-0.23,0.14-0.4-0.02-0.62-0.22-0.09-0.37-0.23-0.65-0.12-0.93,0.33,0.57-0.43-0.12,0.03-0.4,0.36-0.84,0.7-1.36,0.86,0.02-0.02,0.12-0.07,0.09-0.05-0.45,0.32-0.67,0.72-1.15,0.46-0.14-0.25-0.25-0.51-0.38-0.77-0.26-0.23-0.44-0.42-0.82-0.43-0.35-0.04-0.71-0.04-1.02-0.21-0.21-0.28-0.36-0.45-0.32-0.84-0.04-0.35-0.07-0.71-0.22-1.04-0.15-0.31-0.25-0.59-0.57-0.76-0.28-0.18-0.55-0.35-0.88-0.42-0.14-0.13-0.31-0.21-0.39-0.4-0.16-0.09-0.3-0.21-0.48-0.23,0.01-0.05,0.06-0.18,0.04-0.14-0.2,0.2-0.38,0.42-0.63,0.55-0.17,0.15-0.38,0.25-0.45,0.49-0.02,0.24-0.06,0.47-0.04,0.72-0.01,0.26-0.01,0.52-0.07,0.77-0.11,0.24-0.18,0.48-0.39,0.65-0.58,0.34-0.75,0.51-1.34,0.47h-0.77c-0.25,0-0.5,0.01-0.75-0.01-0.23-0.09-0.4-0.06-0.5-0.33-0.01-0.25-0.03-0.5,0-0.75,0.02-0.26,0.04-0.52,0.09-0.77,0.01-0.25,0.03-0.5,0.01-0.74-0.03-0.21-0.03-0.43-0.12-0.63,0.37-0.54-1.74,0.38,0.38-0.55-0.41,0.25-0.81,0.54-1.25,0.71-0.24,0.08-0.61,0.26-0.08-0.06-0.39,0.36-0.78,0.7-1.31,0.89-0.23,0-0.43,0.09-0.65-0.08-0.17-0.12-0.32-0.26-0.53-0.32-0.23-0.07-0.46-0.18-0.71-0.18-0.2-0.09-0.39-0.09-0.48-0.33-0.1-0.15-0.19-0.31-0.31-0.44-0.25-0.05-0.51-0.15-0.78-0.12-0.28-0.06-0.55-0.09-0.77-0.29-0.23-0.14-0.45-0.3-0.71-0.38-0.24-0.01-0.46-0.09-0.69,0.04,0.95-0.57,0.58-0.35,0.33-0.13l-0.68,0.34z" />
		<path  d="M198.31,229.47c-0.16,0.12-0.36,0.16-0.54,0.24,0.84-0.61,1.74-1.09,2.72-1.41,0.54-0.11,1.1-0.09,1.65-0.1,0.62,0.1,1.22,0.34,1.81,0.53,0.71-0.09,1.34-0.44,2-0.69,0.6-0.24,1.24-0.28,1.88-0.34,0.6-0.08,0.74,0.23,1.14,0.57,0.27,0.29,0.54,0.6,0.82,0.89,0.29,0.42,0.37,0.92,0.49,1.4,0.08,0.55,0.48,0.85,0.78,1.24,0.39,0.13,0.71,0.38,1.06,0.59,0.28,0.4,0.71,0.61,1.08,0.89,0.44,0.15,0.51,0.53,0.71,0.87,0.2,0.53,0.05,0.96-0.06,1.47-0.51,0.96-1.71,0.96-2.54,1.33-0.56-0.03-1.08,0.13-1.62,0.26-0.54,0.14-1.09,0.2-1.64,0.28,0.19,0.12,1.2-1.17,0.69,0.22-0.04,0.56-0.03,1.13-0.03,1.69,0.07,0.56-0.14,1.02-0.34,1.52-0.55,0.85-1.66,1.05-2.52,1.47-0.64,0.7,0.03-1.11,0,0.17-0.3,0.45-0.43,0.95-0.58,1.45,0.03,1.1-0.74,1.13-1.53,1.51-0.09-0.42-0.26-0.81-0.4-1.21-0.27-0.41-0.33-0.88-0.45-1.34-0.07-0.49-0.06-0.99-0.07-1.49,0-0.56,0-1.12,0.01-1.67,0.06-0.86,0.26-1.7,0.42-2.54,0.25-0.55,0.12-1.06,0.07-1.59-0.27-0.36-0.51-0.74-0.75-1.11-0.27-0.44-0.6-0.83-0.91-1.24-0.29-0.36-0.66-0.66-1-0.97-0.41-0.1-0.85-0.03-1.28-0.01-0.42,0.27-0.68-0.03-1.04-0.09-0.17-0.32-0.38-0.62-0.55-0.93-0.11-0.11-0.16-0.25-0.24-0.37l1.3-0.75c0.08,0.11,0.13,0.25,0.23,0.35,0.17,0.29,0.38,0.58,0.54,0.89,0.29,0,0.64,0.23,0.97,0.01,0.45-0.01,0.92-0.1,1.34,0.09,0.35,0.33,0.72,0.64,1.02,1.01,0.31,0.41,0.64,0.81,0.91,1.25,0.25,0.38,0.49,0.76,0.76,1.12,0.07,0.57,0.25,1.09-0.03,1.69-0.16,0.83-0.36,1.66-0.43,2.51v1.66c0.01,0.49-0.01,0.99,0.05,1.48,0.12,0.45,0.18,0.91,0.44,1.31,0.14,0.38,0.32,0.75,0.39,1.15-1.5,0.89-1.26,1.06-1.12-0.07,0.14-0.51,0.26-1.03,0.55-1.49,0.65-0.84,1.51-1.42,2.57-1.69-0.01,0.02-0.06,0.07-0.04,0.05,0.18-0.48,0.47-0.89,0.38-1.45,0-0.57-0.01-1.13,0.02-1.7,0.27-1.05,0.4-1.36,1.85-1.8,0.55-0.07,1.1-0.13,1.63-0.29,0.54-0.12,1.07-0.25,1.63-0.24-0.01,0.06-0.02,0.25-0.03,0.19,0.1-0.47,0.34-0.85,0.12-1.36-0.21-0.29-0.23-0.66-0.65-0.77-0.39-0.28-0.79-0.54-1.11-0.92-0.35-0.19-0.67-0.43-1.05-0.58-0.32-0.42-0.74-0.76-0.83-1.34-0.11-0.46-0.19-0.93-0.46-1.33-0.28-0.29-0.55-0.59-0.82-0.89-0.39-0.23-0.47-0.61-1.06-0.46-0.62,0.07-1.25,0.12-1.85,0.37-0.66,0.27-1.31,0.63-2.05,0.63-0.58-0.2-1.17-0.45-1.79-0.51-0.55,0.02-1.1,0-1.63,0.13-1.81,0.69,1.17-0.81-0.13-0.05-0.67,0.41-1.25,1.21-2.09,1.2l1.23-0.89z" />
		<path d="M214.25,264.9c-0.24-0.11-0.51-0.13-0.77-0.2-0.47-0.11-0.94-0.01-1.41,0.02-0.52,0.2-0.9-0.02-1.37-0.13-0.36-0.29-0.79-0.31-1.22-0.42-0.5-0.11-0.98,0.03-1.47,0.08-0.05,0.02,0.08-0.07,0.13-0.1-0.39,0.36-0.68,0.81-0.98,1.23-0.33,0.39-0.56,0.84-0.82,1.27-0.23,0.39-0.34,0.84-0.48,1.27-0.15,0.48-0.14,0.98-0.17,1.48-0.08,0.43-0.14,0.88-0.21,1.32-0.05,0.49-0.04,0.98-0.05,1.47v1.52c-0.02,0.5,0.01,0.99,0.03,1.49,0.12,0.47,0.41,0.86,0.68,1.26,0.23,0.48,0.6,0.51,1.02,0.7,0.46,0.01,0.9,0.12,1.35,0.19s0.91,0.11,1.36,0.15c0.35,0.16,0.75,0.23,1.1,0.35,0.17-0.03-0.15,0.34-0.3,0.42,0.27-0.44,0.38-0.95,0.52-1.44,0.24-1.09,0.98-1.04,1.95-1.4,0.23,0.34,0.4,0.72,0.59,1.08,0.22,0.48,0.24,0.99,0.3,1.5,0.07,0.55-0.02,1.09-0.08,1.63-0.15,0.64-0.43,1.24-0.68,1.84-0.25,0.53-0.42,1.09-0.6,1.64-0.16,0.51-0.1,1.03-0.08,1.55,0.03,0.52,0.36,0.75,0.67,1.11,0.42,0.39,0.62,0.9,0.85,1.41,0.16,0.56,0.16,1.15,0.19,1.73,0.05,0.56,0.17,1.1,0.27,1.66,0.12,0.59,0.48,1.06,0.8,1.55,0.4,0.34,0.87,0.28,1.35,0.34-0.09,0.26,1.05-0.36,0.81-0.22-0.38,0.21-0.76,0.42-1.14,0.63,0.04-0.03,0.09-0.07,0.14-0.11,0.43-0.14,0.45-0.54,0.66-0.85,0.1-0.47,0.07-0.95,0.09-1.43-0.07-0.6,0.2-1.06,0.45-1.57,0.47-0.87,1.51-1.11,2.33-1.54-0.44,0.27,0.89-0.51,1.34-0.76,0.59-0.22,1.21-0.22,1.82-0.26,0.11-0.02-0.13,0.16-0.23,0.19,0.14-0.45,0.1-0.92,0.12-1.39,0-0.51-0.01-1.02-0.01-1.53v-1.56c0.04-0.64,0.18-1.26,0.32-1.88,0.12-0.55,0.24-1.1,0.36-1.65,0.02-0.55,0.39-0.84,0.68-1.25,0.41-0.28,0.76-0.62,1.13-0.94,0.3-0.48,0.64-0.93,0.97-1.38,0.46-0.42,0.95-0.8,1.44-1.19,0.38-0.24,0.55-0.63,0.78-0.98,0.11-0.45,0.18-0.91,0.26-1.37,0.06-0.49,0.22-0.95,0.35-1.43,0.03-0.43-0.42,0.03-0.59,0.05-0.7,0.39,0.62-0.36,0.93-0.53,0.24-0.12-0.42,0.33-0.63,0.5-0.86,0.69-1.48,0.88-2.39,1.12-0.38-0.02-0.69-0.25-1.02-0.41-0.28-0.29-0.67-0.36-1.04-0.49-0.56-0.23-0.84-0.72-1.2-1.18-0.26-0.78,0.07-1.41,0.33-2.13,0.33-0.44,0.3-0.91,0.36-1.4-0.06-0.4-0.3-0.71-0.49-1.05-0.21-0.43-0.24-0.91-0.31-1.38,0.02-0.42-0.27-0.73-0.41-1.06-0.37-0.25-0.76-0.12-1.16-0.12,0.01-0.01,0.03,0.05,0.01,0.06-0.82,0.78-1.65,0.96-2.64,1.12-0.74,0.02-2.05,0.86,0.13-0.37-0.33,0.2-0.55,0.52-0.8,0.8-1.11,0.86-1.33,0.86-2.39,0.88-0.5-0.07-0.97,0.08-1.44,0.18-0.36,0.21-0.76,0.32-1.15,0.47l1.19-0.92c0.38-0.16,0.77-0.31,1.15-0.47,0.48-0.08,0.96-0.21,1.46-0.15,0.77-0.05,1.94-0.39-0.22,0.58,0.25-0.28,0.49-0.59,0.8-0.82,1-0.59,1.44-1,2.48-1.07,0.37-0.08,1.64-0.46,0.04,0.32,0.8-0.58,1.62-1.23,2.58-1.51,0.44,0.02,0.86-0.08,1.25,0.22,0.17,0.37,0.45,0.69,0.44,1.15,0.07,0.45,0.1,0.92,0.29,1.34,0.2,0.35,0.45,0.68,0.52,1.09-0.04,0.53,0.03,1.02-0.33,1.49-0.26,0.67-0.6,1.27-0.39,2,0.34,0.43,0.6,0.89,1.14,1.08,0.37,0.15,0.77,0.22,1.06,0.52,0.32,0.13,0.61,0.36,0.97,0.34,0.56-0.22,2.13-0.8-0.22,0.31,0.71-0.54,1.45-1.07,2.27-1.46,0.35,0.05,0.71-0.37,0.78,0.26-0.13,0.46-0.3,0.93-0.36,1.41-0.08,0.47-0.17,0.93-0.24,1.4-0.23,0.37-0.36,0.79-0.75,1.06-0.5,0.37-0.99,0.75-1.46,1.17-0.35,0.44-0.7,0.86-0.96,1.36-0.37,0.34-0.69,0.72-1.14,0.96-0.31,0.38-0.66,0.63-0.72,1.16-0.1,0.56-0.23,1.11-0.36,1.66-0.13,0.61-0.27,1.22-0.33,1.85,0.01,0.52,0.01,1.04,0.01,1.56,0,0.51,0,1.02,0.01,1.53-0.01,0.48,0.02,0.97-0.09,1.44-0.62,0.48-1.33,1.45-2.34,1.32-0.61,0.05-1.22,0.06-1.79,0.32,2.35-1.41-0.52,0.44-1.36,0.75,0.07-0.05,0.29-0.05,0.24,0.01-0.27,0.48-0.56,0.9-0.5,1.49-0.01,0.49,0.01,0.98-0.07,1.46-0.16,0.38-0.17,0.75-0.61,0.94-0.85,0.52-1.45,1.15-2.42,1.14-0.52-0.09-1.02-0.04-1.42-0.45-0.34-0.51-0.7-1-0.84-1.61-0.1-0.56-0.22-1.12-0.28-1.69-0.02-0.57-0.02-1.14-0.17-1.69-0.22-0.49-0.41-0.98-0.83-1.35-0.32-0.39-0.68-0.64-0.71-1.19-0.03-0.54-0.1-1.07,0.05-1.6,0.18-0.56,0.35-1.13,0.6-1.66,0.25-0.6,0.53-1.19,0.69-1.82,0.07-0.53,0.17-1.05,0.1-1.59-0.06-0.49-0.06-0.99-0.28-1.44-0.17-0.34-0.34-0.7-0.55-1.01,0.76-0.55,1.31-1.27,0.67-0.06-0.14,0.5-0.26,1.01-0.48,1.49-0.75,0.47-1.39,1.12-2.32,1.05-0.36-0.13-0.73-0.25-1.1-0.37-0.46-0.04-0.92-0.06-1.37-0.15-0.45-0.07-0.89-0.16-1.34-0.19-0.43-0.22-0.85-0.29-1.08-0.79-0.28-0.42-0.59-0.83-0.72-1.33-0.02-0.5-0.06-1-0.04-1.51v-1.52c0.01-0.49,0-0.99,0.04-1.48,0.07-0.44,0.11-0.88,0.22-1.32,0.02-0.5,0.03-1.01,0.15-1.51,0.14-0.44,0.25-0.89,0.47-1.3,0.26-0.43,0.47-0.9,0.82-1.28,0.3-0.43,0.58-0.88,0.95-1.26,0.79-0.49,1.53-1.18,2.47-1.37,0.5-0.07,0.99-0.15,1.5-0.04,0.43,0.12,0.88,0.16,1.25,0.45,0.44,0.08,0.84,0.24,1.31,0.06,0.48-0.02,0.96-0.1,1.44,0.01,0.26,0.06,0.51,0.14,0.77,0.17l-1.23,0.9z" />
		<path  d="M227.43,285.97c0.18-0.14,0.45-0.03,0.68-0.05-0.35,0.28-0.41,0.68-0.56,1.06-0.05,0.49-0.14,0.98-0.23,1.47-0.03,0.49-0.14,0.98-0.24,1.47-0.23,0.4-0.91,0.2-1.38,0.22,0.19-0.39,0.26-0.81,0.37-1.23,0.02-0.45,0.13-0.89,0.22-1.33,0.11-0.38,0.35-0.71,0.55-1.05,0.12-0.2,0.14-0.44,0.21-0.65l1.36-0.66c-0.07,0.23-0.09,0.48-0.2,0.69-0.2,0.33-0.4,0.67-0.57,1.01-0.1,0.44-0.2,0.88-0.22,1.33-0.1,0.42-0.14,0.85-0.37,1.23-0.24,0.2-0.97,2.14-1.32,1.09,0.1-0.48,0.22-0.96,0.25-1.46,0.08-0.49,0.18-0.98,0.21-1.47,0.14-0.41,0.17-0.83,0.54-1.12,0.67-0.53,0.51-1.57,1.93-1.44l-1.23,0.89z" />
		<path  d="M226.44,258.16c0.28,0.12,0.29,0.45,0.42,0.67,0.16,0.46,0.31,0.93,0.46,1.4,0.01,0.47,0.2,0.89,0.33,1.32,0.26,0.32,0.68,0.4,1.04,0.54,0.41,0.33,0.49,0.84,0.63,1.32,0.18,0.52,0.58,0.64,0.98,0.91,0.39,0.03,0.61,0.34,0.92,0.53,0.41,0.33,0.78,0.69,1.16,1.06,0.34,0.43,0.32,0.94,0.41,1.45-0.01,0.51,0.08,1.01,0.16,1.52-0.05,0.53,0.26,0.86,0.47,1.26,0.3,0.32,0.71,0.21,1.03,0.29-1.47,0.83,1.15-0.59,1.24-0.63,0.58-0.18,1.17-0.29,1.77-0.4,0.42-0.06,0.84,0.07,1.24,0.13-0.66,0.23-1.22,1.1-0.91-0.17-0.12-0.56,0.15-0.93,0.33-1.4,0.38-0.25,0.63-0.63,0.94-0.95,0.25-0.5,0.33-1.05,0.44-1.6,0.2-0.46-0.06-0.91-0.12-1.28-0.4,0.05-0.81,0.11-1.21,0.18-0.57,0.17-0.86-0.11-1.33-0.3-0.53-0.23-0.53-0.63-0.74-1.07-0.14-0.52-0.22-1.06-0.32-1.59-0.07-0.54-0.42-0.83-0.76-1.21-0.53-0.21-0.39-0.67-0.52-1.01,0.85-0.85,1.5-0.9,2.48-0.97,0.42,0.14,0.84,0.11,1.25,0.13,0.44-0.19,0.75,0.1,1.12,0.18,0.47,0.35,1.04,0.34,1.59,0.42,0.69,0.02,1.16,0.35,1.68,0.7,0.29,0.41,0.28,0.9,0.35,1.38,0.01,0.56,0.38,0.46,0.7,0.7-0.09,0.28,1.08-0.36,0.83-0.22-0.36,0.2-0.72,0.4-1.07,0.6,0.07-0.06,0.14-0.12,0.21-0.17,0.45-0.32,0.89-0.64,1.34-0.96,1.76-1.26,1.24-0.92,2.31-0.51,0.22,0.45,0.19,0.94,0.21,1.43,0.03,0.66,0.17,1.31,0.31,1.96,0.14,0.56,0.3,1.12,0.45,1.67,0.2,0.47,0.53,0.42,0.94,0.55,0.7,0.12,1.28,0.52,1.86,0.91,0.58,0.44,1.06,1,1.54,1.55,0.34,0.27-0.54,0.74-0.94,0.92-0.1-0.4-0.26-0.78-0.4-1.16-0.19-0.42-0.39-0.84-0.58-1.26-0.18-0.46-0.18-0.96-0.21-1.46-0.01-0.56-0.01-1.12-0.01-1.68-0.06-0.53,0.15-0.99,0.29-1.48,0.18-0.45,0.18-0.94,0.21-1.42,0.02-0.55,0.02-1.11,0.02-1.67-0.1-0.55,0.21-0.84,0.45-1.27,1.38-1.15,1.44-1.03,2.48-0.49,0.46,0.97,0.74,2.02,1.07,3.04,0.23,0.95,0.54,1.85,0.95,2.73,1.03,1.11-0.25,0.98-0.43,1.04,0.32-0.86,0.53-1.76,0.77-2.64,0.14-0.62,0.23-1.24,0.34-1.86,0.1-0.41,0.38-0.71,0.62-1.04,0.37-0.39,0.69-0.81,1.03-1.23,0.27-0.41,0.25-0.89,0.31-1.36,0.01-0.46-0.27-0.79-0.48-1.17-0.2-0.42-0.22-0.88-0.29-1.32-0.15-0.47-0.17-0.96-0.21-1.44-0.01-0.58-0.03-1.17-0.06-1.75-0.07-0.47-0.21-0.92-0.34-1.38-0.11-0.73-0.11-1.47-0.13-2.21,0.08-0.64-0.1-1.19-0.29-1.78-0.13-0.44-0.43-0.74-0.71-1.09-0.25-0.38-0.49-0.78-0.74-1.17-0.21-0.51-0.6-0.34-0.99-0.47-0.44,0.23-0.92,0.17-1.38,0.21-0.33-0.18-0.49-0.53-0.71-0.81-0.3-0.29-0.6-0.57-0.9-0.85-0.24-0.36-0.62-0.55-0.94-0.8-0.59-0.15-0.74-0.54-1.02-1-0.08-0.45-0.19-0.91-0.27-1.34-0.27-0.08-0.6,0.03-0.89,0.08-0.45-0.02-0.72-0.36-1.05-0.62-0.33-0.32-0.64-0.65-0.96-0.98-0.25-0.39-0.64-0.56-1.01-0.8-0.34-0.25-0.65-0.55-0.97-0.84-0.79-0.17-1.53,0.44,0.23-0.55-0.6,0.69-1.75,0.9-2.34,1.12-0.37-0.11-0.67-0.33-1-0.53-0.37-0.25-0.79-0.19-1.2-0.23-0.49,0.12-0.99,0.11-1.48,0.14-0.41-0.08-0.79-0.32-1.16-0.52-0.43-0.16-0.89-0.08-1.34-0.05-0.42-0.1-0.71-0.43-1.03-0.69-0.21-0.41-0.61-0.37-0.92-0.53-0.49,0.11-0.87-0.13-1.31-0.27-0.48-0.27-1.03-0.3-1.56-0.38-0.46-0.03-0.93,0.08-1.39,0.15-0.48,0.06-0.97,0.06-1.46,0.07h-1.52c-0.49-0.12-0.87,0.1-1.31,0.22,2.64-1.4-0.31,0.08-1.2,0.52-0.41,0.2-0.87,0.2-1.31,0.26-0.48-0.03-0.95,0.06-1.42,0.1,0.14,0.18,1.28-1.21,0.66,0.15-0.19,0.4-0.35,0.81-0.51,1.21-0.45,0.83-1.49,1.04-2.28,1.45-1.62,0.56-0.04-0.18,0-0.2-0.39,0.28-0.37,0.67-0.49,1.08-0.23,1.19-0.46,0.97-1.85,1.74,0.13-0.17,0.41,0.08,0.62,0.07-0.09,0.48-0.06,0.97-0.07,1.45-0.21,1.02-0.94,0.95-1.93,1.35-0.37-0.22-0.6-0.6-0.85-0.93-0.37-0.36-0.44-0.83-0.56-1.3-0.03-0.62-0.42-0.46-0.71-0.64,0.03-0.1,0.2,0.03,0.3,0.05-0.35,0.43-0.41,0.95-0.52,1.47-0.05,0.51-0.04,1.02-0.04,1.53v1.52c0.02,0.51-0.01,1.01-0.02,1.51-0.07,0.41-0.44,0.58-0.7,0.84-0.45,0.31-0.71,0.76-1.01,1.2-0.21,0.47,0.49,0.33,0.67,0.45,0.56,0.1,1.09-0.02,1.63-0.1-1.28,0.91-0.58-0.04-0.43-0.32,0.34-0.94,1.23-1.09,2.1-1.55-0.16-0.01-1.24,1.19-0.59-0.2,0.01-0.52,0.21-1,0.34-1.48,1.15-2.82,1.6-0.29,1.77-0.31,0.05,0.56,0.05,1.12,0.05,1.68,0.02,0.52-0.01,1.04-0.03,1.56-0.03,0.47-0.25,0.86-0.41,1.28-0.3,0.39-0.37,0.86-0.51,1.31,0.07,0.5-0.29,0.72-0.5,1.09-0.32,0.38-0.19,0.77-0.21,1.21-0.06,1.02-1,0.95-1.82,1.26-0.49-0.3-0.61-0.76-0.8-1.25-0.07-0.53-0.24-1.03-0.4-1.54-0.37-1.13-0.52-0.67,0.98-1.44-0.12,0.36-0.11,0.76-0.13,1.14-0.03,0.47-0.29,0.85-0.48,1.26-0.51,0.77-1.44,1.05-2.23,1.5,1.75-1.27,0.99-0.49,0.65,0.25-0.47,2.09-1.63,0.53-2.07,0.64-0.26-0.36-0.55-0.69-0.83-1.03-0.2-0.41-0.6-0.46-0.92-0.68-0.41,0.05-0.81,0.2-1.21,0.32-1.58,0.42,0.12-0.23,0.2-0.27-0.09,0.39-0.28,0.72-0.44,1.08-0.21,0.46-0.14,0.96-0.12,1.45-0.01,0.57-0.37,0.9-0.66,1.33-0.31,0.36-0.66,0.68-1.01,0.99-0.24,0.46-0.61,0.77-0.98,1.11-1.23,0.91-1.41,0.96-2.52,0.81,0.03-0.41,0.82-0.14,1.22-0.22,0.34,0.28,0.77,0.24,1.18,0.3,0.58-0.15,0.9,0.17,1.34,0.35,0.26,0.46,0.39,0.98,0.54,1.48-0.01,0.58,0.55,0.67,0.75,0.85-1.81,1.29-1.07,0.57-0.67-0.14,0.07-0.48,0.14-0.97,0.22-1.46,0.1-0.43,0.28-0.85,0.43-1.27,1.14-1.01,2.92-1.76,0.95-0.78,0.42-1,0.62-0.91,1.84-1.61,0.33,0.06,0.6,0.24,0.9,0.37,0.55,0.1,1.04,0.36,1.55,0.58,0.62,0.13,0.72,0.54,1.03,0.98,0.13,0.42,0.2,0.85,0.29,1.27,0.06,0.49,0.05,0.98,0.06,1.47-0.19,0.37,0.18,0.77,0.23,0.97,0.3-0.08,0.55-0.26,0.83-0.38-3.69,1.99,3.35-1.77-0.51,0.3,0.18-0.35,0.13-0.75,0.15-1.13-0.02-0.46-0.31-0.78-0.52-1.15-0.41-0.29-0.43-0.7-0.58-1.09,2.41-1.62,0.84-0.77,0.8-0.75,0.2-0.39,0.28-0.83,0.38-1.25,0.37-2.11,1.69-0.59,2.06-0.69,0.12,0.41,0.38,0.76,0.58,1.13,0.37,0.48,0.8,0.91,1.22,1.34,0.28,0.35,0.59,0.67,0.9,1,0.74,0.65,0.77,0.13-0.46,0.74,0.03-0.41,0.33-0.68,0.49-1.01,0.28-0.28,0.35-0.67,0.48-1.04,0.37-0.87,1.48-0.98,2.24-1.33,0.16,0.1-0.37-0.13-0.57-0.12,0.24-1.8,1.51-0.36,1.76-0.4,0.47,0.32,0.27,0.73,0.36,1.12-0.51,0.92-1,1.02-2.06,1.63-0.34-0.06,0.65-0.2,0.97-0.31,0.2-0.04-0.29,0.29-0.47,0.38,0.24-0.27,0.43-0.59,0.63-0.89,0.15-0.35,0.4-0.63,0.6-0.95,1.91-1.26,1.25-1.07,1.85-0.14,0.11,0.45-0.04,0.87-0.12,1.31-0.2,0.38-0.22,0.81-0.3,1.23-0.04,0.49,0.07,0.98,0.13,1.47-0.77,1.23,3.59-1.48-0.88,0.97,0.61-0.76,1.61-0.85,2.4-1.22,0.17,0.04-0.36-0.05-0.53-0.03,0.18-0.32,0.53-0.5,0.82-0.72,0.12-0.09,0.17-0.24,0.25-0.35l1.37-0.62c-0.08,0.13-0.11,0.29-0.23,0.4-0.29,0.2-0.57,0.46-0.84,0.66-0.57,0.5-1,1.56-2.04,1.57,0.06-0.08,0.11-0.31,0.2-0.25-3.69,2.18-0.64,0.62-1.84,0.29-0.07-0.5-0.18-1-0.16-1.5,0.07-0.43,0.08-0.87,0.29-1.26,0.09-0.42,0.26-0.81,0.15-1.25,0.88-1.14-3.66,0.85,0.87-1.13-0.2,0.3-0.5,0.54-0.61,0.92-0.2,0.3-0.38,0.62-0.63,0.9-0.69,0.46-1.31,1.26-2.18,1.04,0.02-0.02-0.34-2.03,1.47-1.46-2.03,1.21-0.84,0.61-0.48-0.06-0.05-0.34,0.19-0.67-0.28-0.96,0.29-0.36,0.49-1.26,0.89-1.05-0.53,0.52-0.84,1.74-2,1.68,0.1-0.08,0.41-0.3,0.33-0.21-0.12,0.38-0.21,0.78-0.45,1.1-0.18,0.33-0.53,0.51-0.5,0.98-1.02,0.66-1.28,1.29-2.2,0.65-0.31-0.33-0.62-0.65-0.91-1.01-0.42-0.43-0.85-0.87-1.22-1.35-0.21-0.37-0.47-0.71-0.59-1.13,0.2-0.23,0.31-0.76,0.61-0.69-0.11,0.41-0.23,0.85-0.37,1.27-1.71,1.19-1.79,1.27-0.83,0.68,0.14,0.31,0.12,0.76,0.52,0.99,0.23,0.4,0.54,0.75,0.57,1.24-0.02,0.4,0.01,0.82-0.1,1.21-4.47,2.84,2.47-1.58-2.05,1.24-0.3,0.12-0.58,0.35-0.92,0.29-0.12-0.35-0.48-0.65-0.3-1.14-0.01-0.48,0-0.96-0.06-1.44-0.09-0.42-0.16-0.84-0.28-1.25-0.28-0.4-0.38-0.76-0.96-0.88-0.51-0.22-1.01-0.45-1.56-0.57-0.26-0.11-0.52-0.33-0.83-0.27,1.84-1.1,1.04-0.81,0.73,0.08-0.23,0.16-2.29,1.36-0.96,0.76-0.15,0.4-0.35,0.8-0.45,1.23-0.08,0.49-0.17,0.97-0.21,1.47-0.46,1.02-0.45,1.07-1.9,1.68-0.36-0.28-0.77-0.44-0.85-1.03-0.15-0.48-0.27-0.98-0.52-1.42-0.4-0.12-0.77-0.37-1.27-0.26-0.45-0.08-0.9-0.05-1.25-0.4,0.31-0.37-1.76-1.86,1.32-1.41,0.66-0.03,1.96-0.15-0.13,0.6,0.37-0.33,0.8-0.57,1-1.07,0.34-0.32,0.67-0.66,1.01-0.99,0.29-0.4,0.66-0.71,0.71-1.24-0.02-0.5-0.1-1.02,0.08-1.51,0.15-0.37,0.41-0.68,0.44-1.09,0.74-0.52,1.4-1.2,2.37-1.25,0.41-0.13,0.82-0.32,1.25-0.25,0.36,0.22,0.74,0.35,0.97,0.75,0.28,0.33,0.56,0.66,0.82,1.01-0.21,0.25-0.28,0.83-0.59,0.76,0.45-1,0.58-1.22,1.9-1.81-0.09,0.06-0.39,0.14-0.31,0.07,0.2-0.39,0.46-0.76,0.5-1.21,0.03-0.41,0.06-0.81,0.09-1.22,1.65-0.92,1.32-1.07,1.73,0.13,0.16,0.51,0.33,1.01,0.4,1.54,0.2,0.44,0.24,0.89,0.74,1.14,0,0-1.39,1.45-0.77,0.27,0-0.46-0.13-0.9,0.16-1.32,0.23-0.35,0.58-0.52,0.53-1.02,0.13-0.46,0.17-0.95,0.49-1.35,0.17-0.4,0.4-0.78,0.43-1.23,0.02-0.51,0.07-1.03,0.05-1.55-0.01-0.55,0-1.1-0.05-1.65,0.12-0.13-0.16-1.9,0.93-1.01-0.14,0.46-0.37,0.92-0.36,1.43-0.36,1.05-0.46,1.38-1.95,1.78,0.13-0.08,0.55-0.13,0.46-0.01-0.47,0.98-0.82,1.51-2.12,1.88-0.56,0.06-1.11,0.14-1.68,0.05-0.48-0.21-0.75-0.08-0.8-0.7,0.28-0.46,0.52-0.92,0.97-1.26,0.27-0.23,0.6-0.4,0.75-0.74,0.02-0.49,0.06-0.99,0.04-1.48,0-0.51,0-1.02-0.01-1.53,0-0.51-0.01-1.03,0.04-1.54,0.09-0.55,0.15-1.08,0.48-1.55,0.71-0.52,1.22-1.53,2.29-1.54,0.4,0.24,0.73,0.21,0.82,0.82,0.13,0.44,0.15,0.9,0.52,1.23,0.24,0.31,0.45,0.69,0.81,0.86-0.01,0.01-1.42,1.42-0.65,0.19,0.01-0.49-0.01-0.98,0.05-1.47,0.38-0.93,0.59-1.3,1.92-1.66-1.71,1.03-0.86,0.79-0.68-0.14,0.1-0.44,0.07-0.87,0.45-1.19,0.84-0.51,1.6-1.1,2.58-1.28-0.08,0.05-0.35,0.18-0.28,0.1,0.16-0.4,0.32-0.81,0.52-1.19,0.34-0.97,0.56-1.35,1.9-1.71,0.48-0.03,0.95-0.09,1.43-0.09,0.43-0.07,0.88-0.09,1.28-0.29,2.06-0.93-3.14,1.96,1.19-0.54,0.45-0.08,0.88-0.25,1.36-0.15,0.5,0,1.01,0,1.52-0.01,0.48-0.01,0.97-0.01,1.45-0.08,0.46-0.07,0.93-0.19,1.4-0.12,0.55,0.09,1.1,0.14,1.59,0.42,0.44,0.11,0.82,0.31,1.29,0.22,0.35,0.18,0.72,0.24,0.97,0.62,0.3,0.24,0.56,0.55,0.97,0.59,0.47-0.01,0.92-0.1,1.37,0.1,0.36,0.2,0.72,0.44,1.13,0.48,0.49-0.04,0.98-0.06,1.47-0.15,0.43,0.07,0.88,0.03,1.26,0.31,0.33,0.17,0.62,0.41,0.98,0.49-0.1,0.09-0.42,0.37-0.31,0.28,1.46-0.86,1.28-1.07,2.44-0.81,0.31,0.29,0.61,0.59,0.96,0.83,0.37,0.26,0.77,0.43,1.03,0.83,0.31,0.33,0.63,0.66,0.96,0.98,0.31,0.23,0.55,0.54,0.98,0.51,0.35-0.02,0.68-0.21,0.98,0.06,0.09,0.44,0.23,0.9,0.28,1.37,0.3,0.39,0.39,0.79,0.97,0.9,0.33,0.26,0.7,0.48,0.96,0.83,0.3,0.29,0.61,0.57,0.9,0.87,0.21,0.26,0.34,0.59,0.67,0.72,0.44-0.06,0.91-0.09,1.36-0.23,0.45,0.15,0.82,0.1,1.07,0.61,0.24,0.38,0.48,0.77,0.73,1.14,0.28,0.36,0.6,0.67,0.73,1.14,0.2,0.61,0.4,1.17,0.31,1.83,0.01,0.73,0.01,1.46,0.12,2.18,0.14,0.46,0.27,0.92,0.35,1.4,0.03,0.58,0.05,1.16,0.06,1.75,0.04,0.48,0.06,0.96,0.2,1.42,0.07,0.43,0.09,0.87,0.28,1.27,0.22,0.41,0.51,0.77,0.51,1.26-0.05,0.48-0.03,0.98-0.28,1.42-0.33,0.43-0.64,0.87-1.02,1.25-0.24,0.31-0.51,0.61-0.65,0.98-0.11,0.62-0.21,1.25-0.35,1.87-0.24,0.88-0.47,1.78-0.74,2.66-1.19,0.89-1.56,1.77-2.24,0.32-0.41-0.89-0.72-1.8-0.93-2.76-0.33-1-0.62-2.02-1.07-2.96-1.26-0.51,0.04-0.67,0.19-0.88-0.27,0.4-0.58,0.63-0.51,1.17,0,0.56,0.01,1.12-0.01,1.68-0.03,0.49-0.02,0.99-0.19,1.46-0.15,0.47-0.37,0.91-0.31,1.43,0,0.56-0.01,1.12,0.01,1.68,0.02,0.47,0.01,0.95,0.18,1.41,0.19,0.42,0.39,0.84,0.58,1.26,0.14,0.39,0.3,0.78,0.42,1.17-0.25,0.19-1.21,1.63-1.68,0.57-0.47-0.54-0.92-1.09-1.51-1.51-0.57-0.38-1.13-0.76-1.83-0.85-0.44-0.18-0.82-0.17-1.02-0.69-0.16-0.56-0.31-1.13-0.46-1.69-0.14-0.66-0.28-1.32-0.32-1.99-0.02-0.45,0.01-0.92-0.18-1.34,0.37-0.75-3.49,1.05,0.39-0.8-0.45,0.31-0.9,0.62-1.35,0.94-0.85,0.53-1.56,1.28-2.6,1.21-0.39-0.27-0.72-0.28-0.79-0.85-0.06-0.45-0.05-0.91-0.3-1.3-0.52-0.27-0.96-0.65-1.61-0.62-0.58-0.09-1.16-0.1-1.65-0.47-0.34-0.05-0.67-0.27-1.06-0.1-0.41-0.04-0.84-0.05-1.25-0.14-1.45,0.17-0.31-0.12,0.11-0.52,0.07,0.13-0.1,0.72,0.41,0.82,0.35,0.39,0.73,0.72,0.82,1.29,0.09,0.53,0.17,1.07,0.31,1.59,0.2,0.42,0.19,0.76,0.69,0.96,0.44,0.16,0.74,0.4,1.26,0.22,0.43-0.07,0.88-0.22,1.3-0.07,0.11,0.45,0.37,0.86,0.17,1.41-0.1,0.56-0.18,1.12-0.41,1.65-0.29,0.34-0.49,0.76-0.93,0.97-0.22,0.45-0.5,0.74-0.37,1.32-0.17,1.06-0.16,1.21-1.65,1.73-0.41-0.06-0.8-0.23-1.22-0.12-0.59,0.12-1.18,0.23-1.75,0.42,1.11-0.75,0.62-0.33-1.26,0.62-0.38-0.1-0.79-0.1-1.11-0.41-0.22-0.43-0.56-0.79-0.52-1.35-0.07-0.51-0.17-1.01-0.16-1.53-0.08-0.48-0.05-0.96-0.37-1.37-0.37-0.35-0.74-0.71-1.15-1.03-0.3-0.18-0.53-0.45-0.9-0.5-0.41-0.3-0.84-0.47-1.03-1.01-0.13-0.44-0.2-0.93-0.57-1.23-0.41-0.16-0.84-0.22-1.1-0.61-0.13-0.44-0.34-0.86-0.34-1.36-0.14-0.46-0.29-0.93-0.46-1.39-0.1-0.15-0.08-0.48-0.33-0.49l1.23-0.9z" />
		<path  d="M263.22,253.47c-0.13,0.23-0.14,0.51-0.21,0.76-0.06,0.48-0.05,0.96-0.06,1.45-0.04,0.48,0.04,0.96,0.07,1.44,0.08,0.37,0.37,0.6,0.58,0.89,0.37,0.4,0.43,0.91,0.55,1.42,0.14,0.65-0.03,1.24-0.18,1.87-0.19,0.61-0.19,1.25-0.22,1.87,0.15,0.41-0.75,0.45-1.16,0.58-0.01-0.61,0.16-1.19,0.3-1.77,0.15-0.66,0.6-1.11,1.03-1.6,0.36-0.41,0.36-0.9,0.47-1.4,0.09-0.47-0.03-0.92-0.09-1.38-0.13-0.44-0.27-0.87-0.41-1.31-0.14-0.35-0.42-0.6-0.64-0.89-0.28-0.14-0.44-0.43-0.65-0.63l1.3-0.76c0.21,0.2,0.38,0.45,0.64,0.61,0.23,0.31,0.52,0.57,0.67,0.94,0.13,0.45,0.28,0.89,0.42,1.33,0.06,0.48,0.19,0.94,0.1,1.42-0.09,0.52-0.08,1.04-0.44,1.48-0.42,0.47-0.88,0.91-1.05,1.54-0.15,0.58-0.33,1.15-0.3,1.75-0.3,0.26-1.36,1.92-1.52,0.78,0.02-0.64,0.02-1.29,0.2-1.91,0.16-0.61,0.34-1.18,0.21-1.82-0.11-0.48-0.16-0.96-0.52-1.34-0.22-0.31-0.52-0.57-0.62-0.96-0.04-0.49-0.13-0.98-0.07-1.47,0-0.49,0-0.98,0.04-1.46,0.06-0.22-0.01-0.62,0.2-0.74l1.36-0.69z" />
		<path d="M262.68,250.04c0.12-0.05,0.18,0.1,0.26,0.15l-1.28,0.8c-0.07-0.02-0.13-0.1-0.21-0.06l1.23-0.89z"/>
		<path  d="M259.41,267.69c-0.08,0.29-0.38,0.47-0.58,0.67-0.34,0.25-0.63,0.54-0.94,0.82-0.31,0.34-0.6,0.7-0.89,1.06-0.34,0.31-0.21,0.72-0.27,1.08,0.34,0.28,0.81,0.27,1.23,0.34,0.37,0.22,0.77,0.32,1.17,0.45,1.59-0.09-0.07,0.43-0.08,0.44,0.31-0.42,0.2-0.87,0.22-1.34-0.1-0.52-0.23-1.02-0.34-1.53,0.04-0.48-0.17-0.88-0.3-1.28l1.29-0.77c0.14,0.43,0.39,0.83,0.33,1.34,0.11,0.52,0.24,1.02,0.35,1.54,0.02,0.5,0.1,0.97-0.17,1.45-0.95,0.62-1.46,1.3-2.54,1-0.39-0.14-0.79-0.24-1.16-0.44-0.48-0.1-0.97-0.08-1.32-0.47,0.01-0.43-0.12-0.83,0.21-1.22,0.29-0.36,0.58-0.72,0.88-1.07,0.3-0.29,0.59-0.59,0.93-0.84,0.2-0.18,0.44-0.39,0.63-0.54l1.35-0.69z" />
		<path  d="M244.65,280.19c-0.38,0.17-0.77,0.06-1.17,0.04-0.49-0.09-0.99-0.05-1.48-0.05-0.03-0.06,0.12,0.02,0.18,0.03-0.34,0.48-0.39,1.04-0.48,1.59-0.05,0.52-0.04,1.04-0.04,1.56-0.02,0.5,0.02,0.99,0.03,1.49,0.2,0.45,0.52,0.37,0.94,0.48,0.67,0.03,1.34,0.02,2.02,0.02,0.83,0.1,1.46-0.15,2.17-0.52-1.06,0.73,0.21-0.21,0.51-0.43,0.6-0.84,1.66-1.1,2.51-1.53,0.49-0.13,0.87,0.1,1.31,0.24,0.42,0.3,0.77,0.14,1.19,0.13-2.14,1.54-0.55,0-0.11-0.56,0.42-0.51,0.93-0.93,1.43-1.36,0.4-0.28,0.54-0.7,0.76-1.1,0.16-0.4-0.06-0.75-0.14-1.13-0.21-0.52-0.17-1.06-0.16-1.61,0-0.46-0.38-0.57-0.63-0.84-0.35-0.23-0.76-0.26-1.15-0.34-0.38-0.19-0.49-0.58-0.67-0.93-0.26-0.02,0.39-0.36,0.63-0.47-0.27,0.35-0.48,0.74-0.7,1.12-0.46,0.8-1.63,0.91-2.27,1.17-0.44-0.15-0.7-0.56-1.01-0.88-0.31-0.39-0.29-0.86-0.37-1.32,0.19-0.61-0.51-0.33-0.64-0.41,0.34,0,1.24-1.14,0.74,0.18-0.05,0.48-0.41,0.69-0.71,1.01-0.85,0.66-1.44,0.82-2.35,1.01-0.06,0.02-0.12,0.04-0.19,0.07,0.38-0.21,0.75-0.43,1.13-0.64,0.26-0.14-0.4,0.43-0.6,0.65-0.23,0.42-0.57,0.77-0.87,1.14-0.02-0.02-0.24,0.3-0.24,0.3l-1.38,0.61c0.08-0.11,0.12-0.25,0.23-0.33,0.31-0.36,0.66-0.69,0.89-1.12,0.61-0.76,1.06-1.36,2.22-1.61,0.65-0.13,2.04-0.61-0.24,0.48,0.31-0.28,0.67-0.47,0.76-0.91,0.29-1.01,0.39-1.3,1.81-1.75,0.36,0.2,0.72-0.04,0.77,0.63,0.07,0.43,0.04,0.87,0.33,1.24,0.29,0.3,0.53,0.67,0.96,0.79-0.12,0.1-0.45,0.41-0.34,0.3,0.22-0.39,0.43-0.77,0.68-1.14,0.69-0.47,1.31-1.45,2.06-0.88,0.18,0.31,0.24,0.7,0.61,0.83,0.41,0.1,0.83,0.12,1.18,0.39,0.31,0.3,0.65,0.47,0.69,0.97-0.01,0.53-0.05,1.05,0.15,1.55,0.11,0.41,0.3,0.79,0.18,1.23-0.21,0.43-0.31,0.87-0.74,1.18-0.49,0.42-1,0.84-1.44,1.33-0.74,0.97-1.16,1.58-2.45,2.08-0.42-0.04-0.84,0.05-1.25-0.22-0.43-0.12-0.78-0.32-1.25-0.17,0.02,0.02,0.09,0.03,0.07,0.05-2.53,1.93-0.96,0.52-3.06,1.93-0.73,0.35-1.39,0.56-2.22,0.47-0.68,0-1.36,0.02-2.04-0.03-0.47-0.17-0.83-0.1-1.04-0.65-0.01-0.5-0.06-1-0.04-1.51,0.01-0.52,0-1.05,0.04-1.57,0.08-0.58,0.13-1.15,0.45-1.66,0.61-0.76,1.36-1.42,2.39-1.53,0.51,0.02,1.01,0,1.51,0.08,0.38-0.01,0.77,0.1,1.13-0.12l-1.19,0.95z" />
		<path  d="M255.29,282.22c0.33-0.59,0.73-1.13,1.12-1.69,0.45-0.51,0.64-1.11,0.84-1.74,0.05-0.51,0.09-1.02,0.14-1.52,0.01-0.43,0.16-0.83,0.24-1.24,1.64-1.03,1.41-0.91,1.52,0.21-0.01,0.5,0.02,0.99,0.03,1.49,0.11,0.57,0.15,1.15,0.19,1.73,0.08,0.52-0.2,0.78-0.44,1.17-0.61,0.67-1.56,0.88-2.32,1.24-0.08-0.04,0.18-0.03,0.26-0.04-0.17,0.23-0.35,0.46-0.53,0.69l-1.38,0.59c0.17-0.23,0.38-0.45,0.53-0.7,0.73-0.5,1.35-1.34,2.32-1.45-0.09,0.07-0.36,0.32-0.27,0.24,0.21-0.36,0.6-0.52,0.5-1.05-0.04-0.58-0.07-1.16-0.19-1.72-0.02-0.5-0.05-1-0.04-1.5,0.96-1.17-2.51-0.19,1.22-1.49-0.1,0.35-0.33,0.75-0.3,1.16-0.04,0.52-0.11,1.02-0.14,1.54-0.18,0.65-0.35,1.27-0.82,1.8-0.38,0.54-0.78,1.08-1.1,1.66l-1.38,0.62z" />
		<path d="M202.07,247.81c0.12-0.12,0.33,0.01,0.5,0-0.21,0.34,0.29,0.31,0.39,0.42-0.1,0.16,0.69-0.31,0.52-0.22-0.26,0.14-0.53,0.29-0.8,0.44,0.03-0.04,0.06-0.07,0.09-0.11,0.1-0.12,0.1-0.28,0.14-0.42l0.96-0.46c-0.04,0.15-0.04,0.32-0.12,0.46-0.5,0.35-1.01,0.87-1.66,0.92-0.3-0.19-0.49-0.15-0.48-0.58,0.33-0.62,0.34-0.8,1.33-1.08l-0.87,0.63z"  />
		<path  d="M206.41,246.38c0.02,0.26-0.03,0.52-0.05,0.78-0.04,0.29-0.28,0.46-0.43,0.68-0.28,0.16-0.28,0.42-0.39,0.68-0.07,0.31-0.01,0.62,0.01,0.92,0.19,0.01,0.42-0.03,0.62-0.06,0.35,0.04,0.7,0.08,1.05,0.11,0.11,0.05-0.25,0.01-0.37,0.03,0.06-0.34,0.05-0.7,0.05-1.05,0.03-0.39-0.03-0.77-0.06-1.16-0.04-0.28-0.24-0.45-0.38-0.68-0.03-0.02-0.06-0.05-0.09-0.07l0.9-0.57c0.04,0.03,0.07,0.06,0.1,0.09,0.16,0.24,0.35,0.44,0.41,0.73,0.04,0.39,0.09,0.78,0.06,1.18,0,0.36,0.01,0.72-0.03,1.07-0.37,0.32-0.66,1.21-1.45,1.05-0.35-0.04-0.7-0.08-1.05-0.09-0.25,0.02-0.5,0.13-0.7-0.06-0.02-0.32-0.09-0.65-0.02-0.97,0.08-0.29,0.07-0.57,0.35-0.75,0.16-0.2,0.41-0.33,0.46-0.61,0.02-0.26,0.09-0.51,0.05-0.77l0.96-0.48z" />
	</g>
	<path id="letter_e" fill="black" d="M325.51,277.65h33.2v8.55h-20.78v6.38h19.27v8.17h-19.27v7.9h21.38v9.08h-33.8v-40.08z" transform="matrix(0.7095522,0,0,0.7110141,84.068549,50.679479)"/>
	<path id="letter_n" fill="black" d="M329.83,76.088h11.36l14.82,21.78v-21.78h11.47v39.372h-11.47l-14.74-21.62v21.62h-11.44v-39.372z" transform="matrix(0.7095522,0,0,0.7110141,-35.152043,-14.099956)"/>
</svg>
