<?xml version="1.0" encoding="UTF-8" standalone="no"?>
<svg xmlns:rdf="http://www.w3.org/1999/02/22-rdf-syntax-ns#" xmlns="http://www.w3.org/2000/svg" version="1.0" xmlns:cc="http://creativecommons.org/ns#" xmlns:dc="http://purl.org/dc/elements/1.1/" viewBox="0 0 450 500">
	<title>North Arrow, Big filled arrow with map layers</title>
	<metadata>
		<rdf:RDF>
			<cc:Work rdf:about="">
				<dc:format>image/svg+xml</dc:format>
				<dc:type rdf:resource="http://purl.org/dc/dcmitype/StillImage"/>
				<dc:title>North Arrow, Big filled arrow with map layers</dc:title>
				<dc:description>North Arrow, Big filled arrow with map layers</dc:description>
				<dc:date>2009-11-08</dc:date>
				<dc:creator>
					<cc:Agent>
						<dc:title>Silvio Grosso</dc:title>
					</cc:Agent>
				</dc:creator>
				<cc:license rdf:resource="http://creativecommons.org/licenses/publicdomain/"/>
			</cc:Work>
			<cc:License rdf:about="http://creativecommons.org/licenses/publicdomain/">
				<cc:permits rdf:resource="http://creativecommons.org/ns#Reproduction"/>
				<cc:permits rdf:resource="http://creativecommons.org/ns#Distribution"/>
				<cc:permits rdf:resource="http://creativecommons.org/ns#DerivativeWorks"/>
			</cc:License>
		</rdf:RDF>
	</metadata>
	<g transform="translate(9.9999996,-8.5714284)">
		<g id="top_map_layer" fill="black">
			<path  d="M167.98,223.04c0.31,0.91,1.75,1.71,2.98,2.51,1.31,0.97,3.33,1.36,5.83,1.8,1.86,0.1,3.76,0.13,5.62,0.17,0.27,0.05,0.53,0.09,0.79,0.14l-11.79,2.82c-0.19-0.02-0.39-0.03-0.58-0.05-1.94-0.05-3.92-0.02-5.77-0.27-2.56-0.57-4.84-1.09-6.21-2.13-1.37-0.87-2.81-1.72-3.64-2.68l12.77-2.31z"/>
			<path  d="M203.02,229.8c3.87-0.92,8.62-1.78-8.64,1.7-2.75,0.56,5.4-1.16,8.12-1.74,8.13-2.07,17.05-3.44,26.09-4.83,3-0.5,5.99-0.42,9.1-0.37,2.32,0.57,2.42,1.38,2.89,2.29,0.15,1.16,0.04,2.33-0.01,3.5,0.29,1.23-0.23,2.41-0.79,3.6-3.03,2.17-11.25,2.59-16.68,3.57-1.93,0.05-3.87,0.03-5.8,0.02-5.54,0.48-13.51,2.46,7.08-1.72-1.81,0.53-2.05,1.23-2.56,1.98-0.36,0.29,0.53,0.52,0.74,0.72l-12.2,2.6c-0.37-0.34-1.35-0.64-1.17-1.06,0.36-0.83,0.43-1.65,2.07-2.33,6.97-1.51,10.43-2.93,17.5-3.14,1.89-0.01,3.79,0.02,5.66-0.1-2.44,0.55-9.67,2.24-7.47,1.57,0.85-1.13,1.61-2.25,1.2-3.46-0.01-1.15,0.01-2.29-0.1-3.43-0.29-0.7-0.09-1.35-1.95-1.73-2.9,0.05-5.77,0.08-8.48,0.56-4.8,0.73-21.95,3.68-2.35,0.02-7.78,1.62-15.39,3.77-23.83,4.77l11.58-2.99z"/>
			<path  d="M282.34,229.79c1.73,0.09,3.04-0.24,4.56-0.5-3.55,0.72-14.16,2.89-10.64,2.15,5.01-1.04,20.11-4.09,15.09-3.07-19.13,3.9-12.05,2.47-7.89,1.59,40.78-8.51-7.02,1.66,6.35-1.34,1.73-0.47,1.88-1.08,2.32-1.79,3.21-2.46,10.87-3.68,17.36-2.79,1.97,0.62,2.24,1.41,2.77,2.26l-12.52,2.33c-0.37-0.72-0.43-1.36-2.12-1.87,2.44-0.69,8.35-3.16,7.26-2.11-0.38,0.74-0.51,1.5-1.94,2.1-7.71,1.91-30.35,6.24-6.37,1.41-46.6,9.79,19.21-4.08-20.69,4.24-1.72,0.18-3.26,0.48-5.13,0.39l11.59-3z"/>
			<path d="M293.48,219.53c-1.06,0.04-1.9-0.23-2.86-0.35l11.8-2.8c0.87,0.05,1.71,0.26,2.66,0.15l-11.6,3z"/>
			<path  d="M138.32,229.16c0.3,0.34,1.65,0.45,2.42,0.66,1.8,0.3,3.61,0.57,5.45,0.83,2.22,0.12,4.31,0.41,6.44,0.65,0.92,0.16,1.94,0.07,2.88,0.11l-11.49,2.95c-1.01-0.07-2.07-0.08-3.05-0.22-2.15-0.25-4.28-0.5-6.49-0.66-1.88-0.3-3.76-0.59-5.61-0.91-1.24-0.33-2.74-0.53-3.32-1.1l12.77-2.31z"/>
			<path  d="M162.84,201.18c24.59-4.42-2.2,0.71-6.87,1.71-13.71,3.24-27.12,6.59-40.13,10.05-6.23,1.73-12.24,3.51-18.801,5.13-6.205,1.28-13.138,2.23-19.768,3.32,22.665-3.74,0.391-0.06-6.93,1.05,17.713-3.42,10.949-1.95,7.258-0.87-1.673,0.47-2.559,1.09-3.594,1.68-1.192,0.5-1.745,1.06-2.319,1.63,3.417,2.76,12.113,4.94,18.698,7.11,18.406,5.92,34.016,12.48,48.916,19.16,7.76,3.53,15.73,7.01,24.65,10.31,9.11,3.36,17.19,6.92,26.05,10.33,5.08,1.64,9.35,4.03,16.79,4.73-17.46,3.37,2.83-1.96,9.11-3.79,14.15-3.94,27.71-8.05,40.87-12.26,11.2-3.81,23.2-7.4,35.46-10.93,12.25-3.49,24.5-6.99,36.46-10.57,4.75-1.39,8.99-2.91,13.09-4.46,1.74-0.54,3.09-1.16,4.47-1.78,0.88-0.87-0.9-1.54-2.27-2.3-2.49-1.4-5.11-2.77-7.75-4.15-1.79-0.96-4.39-1.76-6.63-2.63-2.98-1.15-5.73-2.36-8.44-3.57-4.18-2.08-8.99-4.04-13.62-6.03-3.14-1.43-6.98-2.7-11.31-3.83-4.42-1-9.19-1.84-13.62-2.83-2.68-0.91-3.86-2.07-6.16-3.06-1.56-0.6-3.83-0.94-5.99-1.33-2.04-0.35-3.81-0.19-6.01-0.09-2.38,0.12-4.79,0.15-7.19,0.19-1.87,0.02-3.74,0.01-5.61,0.02h-0.89l10.61-2.23h0.89c1.85,0,3.7,0,5.55-0.02,2.36-0.05,4.73-0.09,7.07-0.21,2.46-0.04,4.42-0.15,6.58,0.31,2.24,0.42,4.58,0.81,6.16,1.46,2.13,0.98,3.29,2.12,5.9,3,4.39,1,9.1,1.86,13.48,2.86,4.42,1.16,8.37,2.44,11.43,3.93,4.46,2.02,9.13,4,13.48,6.04,2.86,1.18,5.86,2.33,8.88,3.48,2.21,0.9,4.73,1.74,6.51,2.71,2.55,1.39,5.23,2.75,7.83,4.13,1.62,0.84,3.58,1.6,3.01,2.59-1.32,0.67-2.51,1.35-4.53,1.87-4.35,1.6-8.81,3.17-13.82,4.6-12.26,3.61-24.86,7.11-37.27,10.68-12.09,3.5-23.76,7.12-35.02,10.85-13.28,4.19-26.91,8.28-40.89,12.28-9.6,2.87-17.01,5.79-30.47,7.22-7.07-1.15-11.09-3.37-16.18-5.17-8.77-3.42-17.25-6.91-26.44-10.25-8.87-3.32-16.42-6.88-23.66-10.52-14.33-6.76-29.71-13.38-48.992-19.07-7.336-2.18-16.604-4.27-20.887-7.09,0.413-0.63,0.69-1.23,2.137-1.77,1.031-0.61,1.929-1.24,3.371-1.78,4.528-1.39,7.047-2.04,15.046-2.94,16.272-2.38-31.221,5.09,6.823-1.04,12.523-2-12.472,2.17-2.252,0.4,7.05-1.61,13.42-3.43,19.914-5.22,13.03-3.44,26.43-6.77,39.9-10.06,8.97-2,18.08-3.89,28.26-5.36l-10.34,2.38z"/>
			<path  d="M173.35,253.6c2.74-0.03,5.07-0.51,7.45-0.94-21.08,4.79-3.44,0.33,1.1-0.91,7.74-2,15.76-4.04,25.01-4.98,3.78-0.1,6.94,0.49,10.12,1.13,2.88,0.7,3.12,1.65,3.71,2.8,0.36,2.04-0.43,4.07-1.31,6.09-0.14,0.43-0.58,0.84-0.87,1.27l-12.68,2.12c0.35-0.41,0.89-0.8,1.03-1.24,1.06-1.95,2.03-3.93,1.51-5.93-0.55-0.99-0.7-1.8-3.19-2.39-3.01-0.58-5.88-1.07-9.43-0.83-10.82,1.39,15.48-3.5-1.16,0.15-7.97,2.15-15.25,4.4-24.72,5.83-2.63,0.39-5.2,0.85-8.14,0.82l11.57-2.99z"/>
			<path  d="M204.02,273.51c1.71-4.73,7.37-9.19,12.47-13.56,6.9-5.96,15.66-11.48,28.64-16.01,9.82-2.85,20.96-5.33,33.66-5.95,2.16-0.1,4.34-0.08,6.51-0.1l-11.32,2.93c-2.08,0.01-4.17-0.01-6.24,0.1-19.09,1.34,8.01-2.48-10.57,1.26-13.43,4.45-22.7,9.94-29.67,15.97-4.76,4.16-10.23,8.5-10.73,13.05l-12.75,2.31z"/>
			<path  d="M140.37,249.45c-2.74-0.12-4.69-0.87-6.79-1.45-7.7-2.65-14.19-5.69-21.01-8.61-3.09-1.36-6.14-2.72-9.13-4.11l11.66-2.45c2.8,1.41,5.68,2.81,8.74,4.16,6.75,2.91,13.32,5.93,21.42,8.39,2.18,0.51,3.96,1.15,6.71,1.08l-11.6,2.99z"/>		
		</g>
		<g id="middle_map_layer" fill="black">
			<path  d="M92.383,234.94c-2.394,1.83-6.275,3.54-9.476,5.24-6.888,3.66-13.626,7.36-19.37,11.26-3.173,2.26-5.976,4.58-8.608,6.92-1.984,1.44-1.992,2.22-0.148,3.66,7.093,4.86,13.032,9.92,19.97,14.81,6.748,4.92,18.497,8.32,30.829,11.4,6.29,1.61,12.79,3.07,20.05,4.03,4.13,0.07,7.7,0.48,11.5,1.03,5.82,1.03,12.24,1.44,18.42,2.12,10.75,1.12,21.03,2.8,31.93,3.72,4.04,0.33,8.13,0.23,12.2,0.11,3.24-0.3,6.16-0.15,9.29,0.17,14.32-2.19-14.47,3.84,8.04-1.77,15.07-3.72,30.27-7.37,44.14-11.64,9.97-3.2,16.41-7.32,22.91-11.42,9.22-5.72,20.5-10.97,31.98-16.14,5.46-2.49,11.56-4.78,17.76-7.04,3.06-0.7,3.62-1.7,4.37-2.6-2.03-0.76-4.17-1.49-6.28-2.23-1.82-0.71-3.81-1.34-5.88-1.95-1.05-0.34-1.93-0.73-2.87-1.11l12.12-2.6c0.91,0.36,1.73,0.75,2.77,1.06,2.03,0.64,3.98,1.29,5.8,2,2.23,0.76,4.51,1.51,6.59,2.32,0.47,1.47-0.18,2.1-3.96,3.25-6.46,2.29-12.83,4.62-18.65,7.12-11.7,5.06-23.03,10.27-31.89,16.04-6.39,4.19-12.96,8.33-22.99,11.6-13.81,4.28-29.01,7.92-43.98,11.67-9.37,2.4-19.91,6.11-31.61,6.27-3.01-0.17-5.84-0.32-8.9-0.04-4.12,0.07-8.22,0.13-12.23-0.32-10.62-1.16-20.8-2.81-31.59-3.81-6.42-0.6-13.1-0.92-19.02-2.05-3.82-0.47-7.57-0.73-11.53-0.98-7.01-1.13-13.25-2.71-19.408-4.35-12.317-3.19-24.408-6.58-30.929-11.63-6.761-4.91-12.668-9.99-20.91-14.62-2.42-1.53-2.824-2.41-0.469-4,2.796-2.39,5.751-4.75,9.038-7.06,5.81-3.91,12.665-7.59,19.384-11.3,2.906-1.62,5.646-3.29,8.838-4.83l12.769-2.31z"/>
			<path  d="M99.225,257.95c-1.109-0.13-1.988,0.18-2.962,0.26-2.905,0.13,5.157-0.99,7.727-1.49-1.91,0.36-3.41,0.9-4.979,1.41-1.688,0.67-3.235,1.38-4.846,2.07-1.649,0.57-2.751,1.26-3.9,1.94-1.074,0.51-0.26,1.06-0.232,1.51,1.026,0.27,2.212,0.47,3.27,0.71,1.783,0.17,3.387-0.08,5.101-0.27,2.166-0.09,4.246-0.27,6.336-0.45,1.87-0.31,3.9-0.37,5.91-0.47,2.15-0.17,3.97,0.06,5.94,0.22,3.12,0.63,5.43,1.58,7.67,2.55,1.54,0.74,2.05,1.63,2.68,2.5,0.53,0.69,0.6,1.41,0.74,2.11-0.12,0.75,0.21,1.47,0.49,2.2,0.7,0.81,2.02,1.53,3.15,2.27,1.14,0.62,2.05,1.28,3,1.94,0.8,0.66,0.85,1.38,1.03,2.09-0.06,0.74,0.11,1.48,0.25,2.22,0.32,0.72,0.52,1.44,0.73,2.17-0.2,0.58,1.26,1.08,1.75,1.41,0.93-0.54,2.61-0.59,4.1-0.81,4.57-0.04,21.14-3.72-7.27,1.86,1.21-0.49,1.02-1.1,1.25-1.71,0.22-0.59,0.48-1.19,0.75-1.78,0.19-0.66,0.16-1.31,0.2-1.97,1.01-2.75,2.75-1.75,13.93-3.93,1.33,0.35,2.88,0.36,4.41,0.49,2.23-0.03,4.34,0.14,6.46,0.29,1.65,0.42,1.88,1.08,2.52,1.71-0.08,0.68,1.57,1.02,2.31,1.43-9.7,1.01-10.85,3.87-12.12,0.66-0.47-0.74-1.48-1.4-2.32-2.09-0.85-0.47-2.03-0.82-3.14-1.2-1.26-0.38-2.13-0.86-3.11-1.32-0.84-0.4-1.83-0.76-2.74-1.13-1.1-0.42-2.25-0.82-3.36-1.23-1.69-0.34-2.65-0.87-3.78-1.41-1.21-0.63-1.44-1.36-1.81-2.09,0.19-0.63-0.73-1.08-1.37-1.61-0.81-0.51-2.2-0.79-3.41-1.15-1.77-0.46-2.26-1.13-3.07-1.81-0.49-0.83-1.14-1.66-1.74-2.48-0.66-0.7-0.79-1.43-0.99-2.16,0.93-0.75-1.24-0.73-1.76-1.04-1.91,0.09-3.3-0.27-4.95-0.46-1.6-0.38-3.04-0.83-4.51-1.27-1.04-0.41-2.57-0.43-3.85-0.64-1.76-0.08-3.53-0.06-5.3-0.07h-3.819l11.459-2.96h3.83c1.84,0.03,3.71,0,5.51,0.16,1.45,0.26,3.01,0.41,4.2,0.84,1.41,0.41,2.74,0.86,4.35,1.18,1.6,0.13,3.22,0.31,4.87,0.4,1.39,0.52,2.79,0.66,2.55,1.55,0.19,0.69,0.19,1.39,0.81,2.06,0.61,0.83,1.26,1.65,1.73,2.49,0.7,0.57,1.1,1.15,2.69,1.52,1.29,0.41,2.77,0.75,3.66,1.3,0.75,0.6,1.86,1.11,1.67,1.81,0.33,0.66,0.33,1.32,1.46,1.89,1.18,0.47,2.1,0.99,3.68,1.32,1.12,0.41,2.25,0.81,3.35,1.22,0.99,0.4,2.02,0.78,2.9,1.21,0.91,0.43,1.7,0.88,2.9,1.21,1.2,0.44,2.5,0.84,3.38,1.37,0.95,0.72,1.86,1.45,2.44,2.22,1.54,2.86-0.25,3.35-12.2,4.47-1.3-0.55-2.53-1.02-2.86-1.79-0.45-0.47-0.53-1.02-1.82-1.29-2.08-0.07-4.19-0.16-6.29-0.22-1.3-0.13-2.86-0.31-4.12-0.31,12.51-2.57,12.88-3.64,9.99-1.42-0.02,0.67,0.01,1.34-0.12,2-0.22,0.59-0.31,1.19-0.81,1.76-0.09,0.68-0.04,1.37-0.82,2.01-4.97,1.09-10.51,2.9-16.99,3.2-1.59,0.27-3.11,0.67-4.84,0.49-0.94-0.58-2.3-1.08-2.33-1.83-0.23-0.72-0.44-1.45-0.73-2.17-0.19-0.76-0.46-1.51-0.34-2.27-0.15-0.65-0.07-1.31-0.77-1.93-0.92-0.63-1.8-1.28-2.89-1.89-1.2-0.78-2.55-1.56-3.34-2.41-0.39-0.75-0.85-1.49-0.67-2.27-0.13-0.67-0.11-1.35-0.59-2.02-0.53-0.81-0.94-1.64-2.29-2.35-2.1-0.92-4.25-1.8-7.37-2.29-1.82-0.03-3.68-0.16-5.54-0.01-1.928,0.15-3.897,0.25-5.728,0.54-2.128,0.13-4.275,0.25-6.378,0.43-2.033,0.14-3.703,0.35-5.71,0.01-1.226-0.3-2.547-0.56-3.655-0.92-0.444-0.69-1.487-1.21-0.401-1.99,1.027-0.75,1.955-1.5,3.757-2.09,1.627-0.7,3.275-1.38,4.806-2.09,1.516-0.55,2.88-1.15,4.806-1.52,5.492-1.18,10.593-2.66,16.643-3.46,1.12-0.05,2.23-0.19,3.39-0.13l-11.595,2.99z"/>
			<path  d="M91.426,274.04c0.34,0.39,0.834,0.82,1.274,1.21,0.652,0.54,1.836,0.91,2.885,1.34,1.689,0.55,3.071,1.21,4.495,1.85,0.47,0.18,0.78,0.4,1.17,0.61l-12.225,2.53c-0.372-0.19-0.664-0.4-1.117-0.57-1.365-0.63-2.677-1.27-4.408-1.78-1.142-0.48-2.442-0.92-3.169-1.52-0.551-0.45-1.01-0.92-1.674-1.35l12.769-2.32z"/>
			<path  d="M143.1,288.67c-0.06,0.43-0.05,0.86-0.06,1.29-0.05,0.58,0.01,1.15,0.03,1.72-0.92-1.43-7.78,1.03-11.41,1.73,3.81-1.72,10.55-2.36,15.62-3.33,5.99-0.28,11.62-1.94-7.79,1.99,1.48-0.25-0.7-0.26-1-0.37-1.6-0.23-3.08-0.54-4.61-0.83-0.93-0.27-1.94-0.51-2.9-0.76l11.94-2.74c0.94,0.25,1.85,0.52,2.85,0.75,1.46,0.26,2.89,0.57,4.47,0.74,1.45,0.46,2.91,0.48,2.44,1.33-7.91,1.66-9.8,2.57-16.66,2.96,2.87-0.6,11.41-2.44,8.7-1.75-4.04,0.94-10.91,4.63-14.36,2.59,0.02-0.58,0.08-1.16,0.04-1.74-0.02-0.42-0.01-0.85-0.07-1.27l12.77-2.31z"/>
			<path  d="M78.173,265.43c-3.772,0.76-13.282,2.68,9.618-1.97-1.456,0.34-2.768,0.74-4.124,1.13-1.486,0.36-2.792,0.8-4.153,1.22-1.176,0.37-2.294,0.77-3.437,1.15-10.083,2.62-9.812,2.81-17.35,2.67-1.628-0.27-2.544-0.82-3.665-1.29l12.155-2.59c0.994,0.39,1.721,0.88,3.248,1.03,5.694-0.36,12.213-1.45-7.581,2.04,1.148-0.36,2.474-0.68,3.49-1.11,1.359-0.43,2.603-0.9,4.156-1.24,1.334-0.4,2.707-0.77,4.017-1.18,4.313-0.88,9.688-2.62,15.22-2.85l-11.594,2.99z"/>
			<path d="M119.8,257.23c0.03-0.96,0.85-1.89,1.5-2.82,0.66-1.2,2.26-2.16,4.12-3.14l13.13-1.87c-2.32,0.84-4.01,1.64-4.68,2.88-0.6,0.87-1.45,1.74-1.3,2.64l-12.77,2.31z"/>
			<path  d="M76.259,262.71c-1.504,0.01-2.573-0.37-3.773-0.64-1.539-0.51-3.026-1.05-4.495-1.59-1.651-0.48-2.3-1.12-3.11-1.77-0.673-0.81-0.363-1.63-0.267-2.46,0.048-1.04,1.118-1.93,2.339-2.85,2.035-1.14,4.765-2.09,7.481-3.02,5.151-1.73,11.471-2.71,18.013-3.42,1.656-0.19,3.361-0.3,5.058-0.43,2.298,0.09,3.065,0.61,4.355,1.19,0.85,0.65,0.84,1.37,0.98,2.07,0,0.86,0.7,1.69,1.26,2.52,0.48,1.05,1.93,1.88,3.54,2.71,1.2,0.33,2.67,0.25,4.06,0.32l-11.53,2.93c-1.684-0.13-3.299-0.16-4.609-0.62-1.643-0.94-3.214-1.85-3.781-2.97-0.66-0.85-1.511-1.7-1.538-2.59-0.119-0.63,0.012-1.27-0.684-1.86-1.161-0.3-1.435-0.88-3.392-0.67-1.644,0.16-3.298,0.31-4.951,0.46-5.699,0.73-10.552,1.69,6.24-1.53-2.766,0.9-5.568,1.79-7.692,2.89-1.348,0.85-2.439,1.65-2.509,2.65-0.141,0.76-0.489,1.51,0.068,2.26,0.775,0.56,1.158,1.15,2.728,1.55,1.408,0.52,2.794,1.06,4.36,1.53,1.149,0.15,2.082,0.49,3.443,0.35l-11.594,2.99z" />
			<path  d="M59.034,256.59c-0.526-0.38-1.917-0.21-2.822-0.31-1.523-0.15-2.583-0.57-3.782-0.91l12.04-2.67c1.086,0.25,1.907,0.65,3.33,0.66,0.923,0.1,1.859,0.23,2.828,0.24l-11.594,2.99z"/>
			<path  d="M87.269,247.71c0.078-0.5,0.058-1,0.077-1.5-0.254-0.77,0.528-1.41,1.245-2.09,0.877-0.5,2.009-0.94,3.098-1.38,0.687-0.34,0.911-0.77,1.366-1.15l12.825-2.14c-0.41,0.42-0.76,0.85-1.21,1.26-0.99,0.48-1.75,0.99-3.15,1.34-0.75,0.63-1.884,1.13-1.559,1.87,0.02,0.5-0.002,0.99,0.079,1.48l-12.771,2.31z"/>
			<path  d="M98.752,261.99c-0.472-0.45,0.953-0.64,1.398-0.94,9.58-2.26,9.98-2.85,17.58-2.48,2.83,0.33,2.51,0.95,3.3,1.71-2.28,2.48-11.7,2.24-16.62,3.04-1.65-0.21-3.13-0.55-4.621-0.87-1.552-0.35-2.772-0.84-4.096-1.28-0.334-0.59-2.43-0.16-2.527-0.17,3.91-0.79,7.824-1.58,11.724-2.38-1.21,0.59-0.88,1.27-0.88,1.95-0.09,1,2,0.35,2.42,0.42-16.285,3.94-12.984,3.22-9.617,1.27,3.997-1.84,10.977-2.56,16.827-3.55,1.93-0.29,3.93-0.55,5.87-0.8-3.96,0.81-7.92,1.63-11.88,2.44,0.91,0.01-0.79-0.19-0.92-0.22-1.76-0.26-3.36-0.03-5.06,0.03,30.96-8.73,9.69-1.93,7.36-0.9-1.33,0.52-0.64,1.16-0.75,1.67,1.35,0.26,2.85,0.12,4.27,0.12,1.95-0.23,3.86-0.16,5.84-0.13,1.99,0.14,3.29,0.6,4.81,1.03,1.89,0.62,3.13,1.4,4.48,2.17,1.28,0.73,1.87,1.53,2.53,2.34,0.33,0.92,1.4,1.73,2.49,2.55,1.51,0.87,2.48,1.82,3.48,2.76,0.73,0.84,2.07,1.57,3.33,2.31,1.03,0.63,1.92,1.29,2.8,1.94,1.03,0.65,2.71,0.62,4.37,0.83,3.17-0.2-5.82,0.99-8.72,1.48,0.84-0.49-0.23-0.79-0.53-1.2-1.22-0.44-2.2-0.94-3.3-1.42-0.73-0.43-1.77-0.77-2.69-1.15-1.05-0.29-2.26-0.48-3.4-0.73-0.77-0.48-2.26-0.75-3.3-1.11-2.08-0.37-3.38-1.01-4.83-1.63-1.43-0.64-2.24-1.39-3.13-2.13-0.72-0.84-0.61-1.71-0.68-2.58-0.18-0.82,0.06-1.63,0.33-2.45,0.19-0.3,0.26-0.61,0.38-0.92l12.7-2.24c-0.11,0.32-0.14,0.64-0.33,0.96-0.3,0.79-0.84,1.56-0.55,2.38,0.07,0.81-0.01,1.63,0.55,2.43,0.8,0.7,1.54,1.4,2.89,2,1.37,0.55,2.57,1.12,4.56,1.42,1.08,0.37,2.33,0.71,3.32,1.11,1.24,0.27,2.54,0.5,3.62,0.85,0.94,0.4,2,0.77,2.77,1.21,1.08,0.48,2.07,0.99,3.31,1.42,0.68,0.57,1.71,0.98,1.2,1.66-4.18,1.05-8.61,4.05-15.78,3.54-1.95-0.3-3.83-0.51-5.04-1.2-0.85-0.66-1.71-1.32-2.69-1.94-1.33-0.78-2.73-1.54-3.52-2.41-0.93-0.93-1.8-1.86-3.29-2.71-1.22-0.85-2.42-1.7-2.8-2.67-0.56-0.76-1.07-1.51-2.26-2.2-1.29-0.72-2.46-1.46-4.31-2.03-1.39-0.31-2.52-0.72-4.3-0.75-1.9,0.06-3.82,0.06-5.7,0.21-1.899-0.1-3.687-0.01-5.138-0.57-0.32-0.76-1.302-1.35,0.129-2.17,3.778-2.18,8.609-3.49,16.769-4.2,1.93-0.01,3.82-0.08,5.65,0.23,5.23,2,3.55,1.19-10.16,3.72-1.96,0.23-3.97,0.4-5.77,0.79-10.111,1.66,13.14-3.54,7.19-1.61-3.38,2.24-4.32,2.16-14.541,3.89-1.822-0.33-3.34-0.28-3.786-1.23-0.112-0.78-0.373-1.54,0.304-2.31,11.423-2.47,9.603-3.66,16.033-2.04,1.23,0.4,2.36,0.87,3.86,1.16,1.36,0.27,2.64,0.61,4.23,0.67-2.65,0.65-10.48,2.66-7.76,2.05-0.34-0.17,0.51-1.07-2.03-1-6.433,0.16-11.266,0.92,7.31-2.2-0.61,0.15-1.72,0.23-1.91,0.45l-12.768,2.31z"/>
			<path  d="M96.217,264.91c-0.635-0.11-1.195-0.26-1.763-0.4-0.721-0.2-1.556-0.33-2.385-0.46-0.685-0.11-1.365-0.23-2.04-0.35-0.295-0.13-0.522-0.29-0.735-0.44-0.377-0.07-0.689,0-1.068,0.04-0.672-0.05-0.667-0.17-0.853-0.38,0.031-0.22,0.258-0.42,0.445-0.63,0.246-0.34,0.757-0.64,1.26-0.94,1.305-0.77,2.788-0.94,5.123-1.39,0.642,0.18,0.507,0.4,0.458,0.66-0.116,0.34-0.308,0.66-0.501,0.99-0.141,0.26-0.486,0.5-0.829,0.73-1.09,0.61-2.354,0.73-4.35,1.14-0.819,0.08,1.481-0.3,2.224-0.44,1.932-0.09-3.548,1-1.788,0.25,0.506-0.34,0.615-0.71,0.7-1.08,0.12-0.21-0.214-0.34-0.45-0.49,3.989-0.96,2.807-0.73,2.109-0.18-0.32,0.3-0.319,0.6-0.164,0.91,0.343,0.26,0.863,0.28,1.562,0.34,0.901-0.01,1.799-0.03,2.699-0.05,0.762-0.04,1.468,0.03,2.178,0.1,0.48,0.12,1.02,0.22,1.539,0.33,0.622,0.1,0.992,0.26,1.392,0.45,0.25,0.62-2.578,0.64-3.828,0.86h-1.524-1.477c-0.68,0.02-1.082-0.1-1.596-0.23-0.59-0.5,0.477-0.98,1.145-1.44,1.968-1.32,4.376-2.54,6.87-3.74,1.34-0.65,2.84-1.26,4.35-1.86,0.69-0.32,2.02-0.36,3.06-0.5-0.59,0.24-1.09,0.51-1.61,0.78-0.32,0.21-0.71,0.4-1.11,0.59-1.2,0.45-2.78,0.66-4.36,0.83-0.53,0.04-1.082,0.04-1.625,0.04-1.266,0.05-4.546,0.78,1.625-0.39-0.64,0.25-1.15,0.53-1.666,0.81-1.07,0.65-1.749,0.64-4.125,1.12-0.584-0.12-0.5-0.27-0.555-0.49,0.078-0.29,0.528-0.53,0.96-0.77,1.17-0.56,2.638-0.74,4.483-1.12,0.693-0.01,0.883,0.15,1.273,0.33,0.78,0.24-1.617,0.48-2.553,0.64,0.005-0.23,0.116-0.45,0.235-0.67,0.219-0.76,4.828-1.02,2.858-0.33-0.81,0.26-1.59,0.54-2.383,0.8-1.256,0.39-3.131,0.64-4.382,0.87-0.514-0.27,0.047-0.42,0.609-0.64,1.678-0.48,3.479-0.86,5.576-0.95,0.67,0.04,1.1,0.2,1.58,0.35,0.38,0.11,0.69,0.25,1.01,0.38,2.14,0.51,4.57,0.86,6.94,1.21,2.06,0.22,3.99,0.4,5.72,0.87,1.59,0.48,2.85,1.08,4.49,1.54,2.26-0.16-1.8,0.57-2.08,0.64-0.75-0.27-0.01-0.63,0.41-0.94,1.3-1.05,1.83-1.14,4.97-1.73,0.44,0.31,0.36,0.66,0.37,1-1.25,0.73-3.03,0.96-4.04,0.28-0.43-0.33-0.74-0.68-1.06-1.03-0.89-0.46,2.97-1.2,2.52-0.36-0.13,0.53,0.21,1.04,0.67,1.54-0.91,0.21-2.88,1.09-2.65,0.07,0.05-0.35,0.02-0.69-0.04-1.04,4.09-1.07,4.2-0.24,6.39,0.97,1.21,0.74,2.72,1.44,3.55,2.25,0.39,1.71,0.92,3.42,1.61,5.12,0.87,2.24,2.25,4.44,3.43,6.65,0.47,1.25,0.66,2.51,1.07,3.76,0.4,0.9,0.57,1.82,1.47,2.67,0.72,0.55,1.72,1.05,2.94,1.46-3.36,0.77-2.39,0.37-3.13-0.77-0.46-0.69-1.03-1.37-1.59-2.05-0.27-0.29-0.33-0.59-0.4-0.89-0.31-0.61-0.66-0.15,2.73-0.8-0.6,0.29-0.69,0.66-0.86,1.01,0.02,0.48-2.23,0.57-3.53,0.7-0.17-0.53-0.16-1.07-0.19-1.61-0.02-0.47-0.01-0.94-0.14-1.41-0.67-1.74-1.74-3.44-2.97-5.14-1.28-1.61-2.66-3.21-3.62-4.85-0.26-0.61-0.89-1.08-2.1-1.5-1.21-0.39-2.69-0.66-3.69-1.12-0.6-0.33-1.22-0.65-1.86-0.97-0.98-0.39-1.47-0.85-1.87-1.34,0.04-0.93,2.5-1.08,4.68-1.51,1.79-0.05,4.7-0.65-0.4,0.36,0.53-0.15,0.55-0.33,0.64-0.55,0-0.24-0.42-0.3-0.81-0.43-0.66-0.05-1.06-0.2-1.52-0.36-0.92-0.42-2.12-0.72-3.34-1.02-0.92-0.22-1.96-0.32-3.02-0.41-1.32-0.09-2.67-0.11-4.02-0.12-0.98,0.01-1.94-0.02-2.9-0.07-1.11-0.09-2.2-0.2-3.3-0.3-0.45,0.01-0.82-0.07-1.24-0.12-0.41-0.01-0.77,0.08-1.14,0.15-0.62,0.09-1.117-0.02-1.708-0.1-0.498-0.16-1.086-0.13-1.609-0.16,4.527-0.99,2.707-0.68,1.986-0.09-0.515,0.41-0.678,0.86-0.831,1.3-0.142,0.43-0.282,0.85-0.472,1.28-0.068,0.21-0.397,0.36-0.707,0.53-0.55,0.29-0.87,0.62-1.2,0.95-0.29,0.32-0.358,0.65-0.416,0.98,0.078,0.19-0.099,0.37-0.206,0.55-1.122,0.45-2.334,0.57-4.079,0.91-0.515,0.07-0.978,0.03-1.473,0-0.514-0.18-0.382-0.41-0.352-0.66-0.007-0.23,0.08-0.46,0.14-0.69,0.698,0.18-0.257,0.13-0.378,0.18-0.475-0.06-0.967-0.1-1.46-0.15-0.687-0.06-1.368-0.12-2.045-0.19-0.488-0.08-0.861-0.21-1.245-0.34-0.248-0.1-0.553-0.17-0.833-0.26-0.354-0.15-0.79-0.28-1.208-0.41-0.461-0.18-0.846-0.38-1.248-0.57-0.314-0.09-0.583-0.2-0.865-0.31-0.887-0.6,2.241-0.68,3.338-0.88,0.656,0.11,1.247,0.26,1.844,0.4,0.771,0.16-1.615,0.28-2.445,0.41,0.099-0.15-0.184-0.26-0.323-0.39l3.047-0.64c0.206,0.15,0.477,0.29,0.453,0.47-0.182,0.57-2.093,1.09-3.693,0.83-0.555-0.13-1.093-0.29-1.763-0.35,0.827-0.19,2.645-0.85,2.59-0.5,0.286,0.11,0.569,0.22,0.855,0.32,0.38,0.19,0.738,0.38,1.199,0.54,0.423,0.14,0.859,0.26,1.235,0.42,0.29,0.08,0.596,0.16,0.844,0.27,0.363,0.11,0.68,0.23,1.141,0.29,0.671,0.06,1.341,0.12,2.016,0.18,0.451,0.04,0.927,0.1,1.385,0.1,0.41,0.01,0.607-0.23,0.792,0.05-0.121,0.21-0.313,0.43-0.245,0.66-0.014,0.17-0.174,0.39,0.162,0.51,0.443-0.01,0.9,0.01,1.319-0.07-5.27,1.09-2.997,0.67-1.95,0.38,0.176-0.17,0.412-0.3,0.311-0.5,0.069-0.34,0.142-0.69,0.406-1.02,0.318-0.33,0.623-0.66,1.12-0.97,0.296-0.15,0.634-0.3,0.785-0.49,0.23-0.42,0.416-0.85,0.55-1.28,0.136-0.44,0.243-0.9,0.72-1.32,0.787-0.73,1.275-0.74,4.026-1.19,0.59,0.06,1.17,0.11,1.71,0.23,0.58,0.05,0.99,0.12,1.56,0.01,0.46-0.07,0.8-0.14,1.3-0.08,0.4,0.05,0.76,0.12,1.19,0.12,1.08,0.11,2.15,0.23,3.25,0.31,0.96,0.03,1.92,0.04,2.88,0.04,1.36,0.03,2.72,0.05,4.05,0.15,1.1,0.09,2.14,0.2,3.07,0.45,1.25,0.29,2.4,0.64,3.42,1.03,0.47,0.14,0.9,0.26,1.51,0.32,0.49,0.16,0.9,0.29,0.99,0.55-0.06,0.24-0.05,0.46-0.51,0.66-2.28,0.47-3.33,0.71-5.61,0.87,4.78-1.02,1.2-0.5,1.1,0.16,0.36,0.48,0.82,0.92,1.81,1.29,0.65,0.32,1.28,0.64,1.84,0.97,1.09,0.42,2.37,0.75,3.64,1.11,1.3,0.45,1.91,0.94,2.09,1.59,0.75,1.66,2.01,3.29,3.29,4.91,1.24,1.68,2.39,3.36,3.44,5.06,0.22,0.47,0.13,0.95,0.13,1.43,0.02,0.52,0.03,1.05,0.26,1.57-0.33,0.09-3.7,1.33-2.71,0.43,0.18-0.36,0.34-0.73,0.68-1.08,2.49-0.49,3.44-1.05,3.72-0.24,0.04,0.29,0.07,0.59,0.3,0.87,0.48,0.69,1,1.38,1.51,2.07,0.89,1.23,1.4,1.41-2.78,2-1.16-0.46-2.21-0.97-2.95-1.53-0.94-0.87-0.94-1.82-1.34-2.73-0.42-1.25-0.74-2.5-1.1-3.75-0.87-2.25-1.96-4.49-3.02-6.73-0.79-1.66-1.61-3.32-2.16-4.99-0.77-0.81-2.11-1.53-3.36-2.26-2.17-1.14-4.92-1.34-0.39-2.1-0.03,0.33-0.06,0.69-0.06,1.03-0.05,0.65-1.41,1.58-3.5,1.1-0.41-0.52-0.72-1.06-0.71-1.6,0.07-0.62,2.87-1.56,3.66-0.8,0.28,0.35,0.56,0.7,1.01,1.03,1.08,0.67-2.08,0.93-2.13,0.89,0.03-0.27,0.07-0.55-0.12-0.82,5.21-1.09,1.9-0.41,1.02,0.49-0.2,0.16-0.99,0.6-0.62,0.69-1.11,0.33-2.56,1.06-3.75,0.77-1.5-0.51-2.76-1.1-4.4-1.56-1.71-0.43-3.65-0.6-5.6-0.86-2.43-0.38-4.93-0.72-7.2-1.2-0.34-0.13-0.67-0.26-1.041-0.38-0.429-0.13-0.762-0.27-1.385-0.27-2.605,0.19-1.109,0.24,0.481-0.26-0.266,0.09-0.887,0.29-0.97,0.36-0.839,0.18-1.673,0.36-2.517,0.53-0.268,0.06,1.073-0.21,0.784-0.17,0.805-0.27,1.613-0.53,2.381-0.81,1.229-0.2,2.597-0.34,3.617-0.66-0.2,0.21-0.36,0.4-0.29,0.63-1.01,0.27-2.843,1.28-3.675,0.55-0.383-0.16-0.392-0.23-0.969-0.17,5.234-1.09,2.436-0.6,1.48-0.16-0.428,0.21-0.873,0.43-1.018,0.7,0.015,0.07-0.163,0.31,0.191,0.27-4.779,1.01-2.781,0.71-1.865,0.16,0.515-0.28,1.023-0.57,1.615-0.83,1.379-0.31,2.711-0.85,4.481-0.83,0.53-0.01,1.07-0.01,1.58-0.06,1.14-0.15,4.02-0.65-1.72,0.41,0.46-0.17,0.87-0.35,1.18-0.57,0.5-0.27,1.02-0.54,1.57-0.8,1.17-0.23,4.96-1.23,3.37-0.46-1.6,0.61-3.18,1.23-4.6,1.89-2.52,1.18-4.928,2.39-6.8,3.71-0.52,0.37-1.476,0.84-1.146,1.26,0.475,0.09,0.859,0.18,1.448,0.15h1.481c0.5,0,1.002,0,1.501-0.01-0.713,0.16-2.795,0.69-2.107,0.51-0.369-0.15-0.665-0.31-1.244-0.39-0.518-0.1-1.038-0.2-1.542-0.32-0.673-0.04-1.348-0.09-2.044-0.05-0.921,0.01-1.849,0.05-2.77,0.03-0.79-0.09-1.4-0.17-1.755-0.46-0.188-0.33-0.24-0.65,0.065-0.98,0.586-0.58,2.085-1.19,4.054-1.03,0.378,0.19,0.653,0.35,0.584,0.61-0.074,0.39-0.188,0.77-0.627,1.13-0.866,0.53-2.805,1.2-4.471,0.9,0.228-0.54,1.182-0.72,3.591-0.99-4.991,1.04-2.544,0.64-1.611,0.16,0.355-0.23,0.719-0.45,0.872-0.7,0.217-0.32,0.433-0.64,0.538-0.97,0.032-0.14,0.227-0.4-0.139-0.45,5.499-1.14,1.79-0.48,0.838,0.12-0.486,0.29-0.965,0.58-1.218,0.9-0.174,0.2-0.373,0.39-0.491,0.59,0.116,0.05,0.011,0.32,0.514,0.2,0.516-0.01,0.861-0.09,1.301,0.07,0.197,0.13,0.415,0.28,0.668,0.41,0.662,0.11,1.325,0.23,1.994,0.34,0.84,0.14,1.669,0.28,2.407,0.48,0.531,0.13,1.064,0.29,1.709,0.32l-2.893,0.75z"/>
			<path  d="M81.057,270.86c-0.03,0.22-0.025,0.43-0.033,0.65-0.101,0.3,0.065,0.6,0.136,0.89,0.512,0.17,1.238,0.13,1.895,0.15,0.888,0.11,1.771,0.23,2.674,0.32,2.698,0.92,2.127,0.22-4.989,1.55,0.147-0.06-0.484-0.34-0.706-0.48-0.642-0.26-0.693-0.58-0.93-0.9,0.015-0.15-0.131-0.29-0.196-0.43l6.249-1.2c0.073,0.15,0.252,0.3,0.221,0.46,0.181,0.28,0.189,0.56,0.766,0.79,0.434,0.25,0.957,0.48,1.18,0.76-6.363,1.23-4.787,1.71-7.458,0.86-0.852-0.09-1.695-0.21-2.575-0.26-0.929-0.09-1.756-0.06-2.335-0.39-0.121-0.32-0.405-0.64-0.252-0.98-0.007-0.21-0.002-0.42-0.032-0.63l6.385-1.16z"/>	
		</g>
		<g id="bottom_map_layer" fill="black">
			<path d="M135.1,296.15c-1.02,0.38-1.83,0.83-2.7,1.26-1.15,0.56-2.02,1.18-2.93,1.79l-9.07,1.46c0.89-0.62,1.72-1.25,2.86-1.83,0.84-0.43,1.75-0.85,2.5-1.31l9.34-1.37z"/>
			<path d="M74.326,291.14c24.145-5.85,16.092-3.84,11.788,0.29-2.252,2.3-3.115,4.71-3.976,7.11-0.521,1.45-1.211,2.9-1.942,4.34-1.173,1.05-0.225,2.04,0.07,3.03,4.198,0.44,9.219-0.41,13.567-0.73,10.187-0.86,20.397-0.17,30.467,0.5,7.11,0.37,12.68,1.68,18.35,3.11,4.53,1.45,8.48,3.08,12.26,4.77,3.73,1.78,7.05,3.67,10.37,5.55,3.02,1.85,6.89,3.45,11.03,4.99,4.34,1.51,6.87,1.55,12.03,0.68,5.9-0.57,11.86,0.03,17.73,0.4,5.01,0.33,10.09,0.44,15.17,0.52,3.49,0.03,6.98,0.02,10.48,0.02,3.29,0.14,6.18-0.14,9.28-0.44-18.1,4.33-15.74,4.12-10.19,0.86,1.22-1.7,2.79-3.35,4.6-4.98,1.48-1.34,3.64-2.55,5.74-3.77,2.31-1.05,4.15-2.19,6.02-3.34,2.99-2.29,7.5-4.22,11.97-6.16,6.95-2.73,14.26-5.35,21.76-7.89,4.34-1.46,8.37-3.02,12.34-4.61,4.1-1.83,7.73-3.79,11.51-5.71,3.12-1.48,6.07-3,8.9-4.55,2.44-1.76,6.59-3.02,10.54-4.34,3.87-1.08,5.74-2.51,7.76-4.03,0.67-1.14,1.64-2.24,2.68-3.33,1.59-0.92,3.14-1.84,4.59-2.78,1.26-0.97,1.57-2.01,1.98-3.05,0.29-1.03-1.98-1.04-3.32-1.54-3.28-0.03-5.95-0.59-8.82-1.09-2.66-0.59-5.47-0.96-8.41-1.31-2.69,0.09-4.74-0.37-7.1-0.64-0.48-0.18-1.07-0.32-1.61-0.47l17.01-3.81c0.47,0.12,0.9,0.26,1.41,0.36,2.23,0.19,4.48,0.44,6.81,0.53,2.94,0.44,5.82,0.89,8.58,1.46,2.92,0.42,5.73,0.82,8.85,1.02,2,0.72,4.22,1.06,4.45,2.26-0.28,1.1-0.41,2.22-1.68,3.28-1.25,1.01-2.48,1.97-4.5,2.84-1.26,1.06-2.52,2.1-2.9,3.27-1.75,1.67-3.64,3.19-7.61,4.38-3.85,1.26-8.06,2.44-10.5,4.11-2.84,1.61-5.85,3.16-9.14,4.66-3.76,1.91-7.43,3.85-11.27,5.74-3.99,1.63-8.08,3.23-12.52,4.72-7.71,2.48-14.99,5.15-22.12,7.84-4.25,1.88-8.69,3.72-11.44,5.94-1.8,1.18-3.58,2.36-5.94,3.42-2.16,1.18-4.46,2.34-6.02,3.65-1.88,1.6-3.63,3.19-4.61,4.9-3.43,3.73-12.22,5.01-23.62,6.49-3.2,0.18-6.33,0.4-9.62,0.28-3.49-0.01-6.98,0-10.46-0.07-5.08-0.12-10.15-0.28-15.15-0.63-5.77-0.34-11.51-0.85-17.16-0.05-5.83,0.52-8.91,0.24-13.27-1.4-4.19-1.59-8.26-3.21-11.32-5.11-3.23-1.87-6.43-3.75-10.19-5.5-3.75-1.61-7.58-3.21-11.96-4.61-5.5-1.33-10.96-2.51-17.7-2.88-9.976-0.71-19.979-1.25-30.01-0.27-5.592,0.48-10.648,1.4-15.496,0.07-0.821-1.17-1.711-2.21-0.601-3.46,0.836-1.44,1.536-2.89,2.188-4.35,0.99-2.43,1.814-4.88,3.903-7.22,4.371-4.8,4.231-4.78,21.788-7.76l-15.796,4.49z"/>
			<path d="M313.01,273.82c-5.69,1.68-9.93,3.92-14.19,6.05-9.05,4.78-17.38,9.71-25.56,14.68-4.98,3.01-9.53,6.1-14,9.21-1.43,1.04-3,2.06-4.69,3.05-0.93,0.48-2.33,0.76-3.67,1.08-2.04,0.53-3.65,1.21-5.22,1.9-1.5,0.64-2.84,1.31-4.18,1.99-1,0.54-2.08,1.06-3.16,1.59-0.92,0.51-1.89,1.01-2.89,1.5-0.94,0.38-1.77,0.8-2.62,1.21-0.7,0.4-1.63,0.74-2.49,1.09-0.94,0.36-1.85,0.72-2.79,1.08-0.92,0.32-1.85,0.64-2.78,0.95-0.58,0.36-1.44,0.62-2.21,0.91-0.78,0.21-1.47,0.46-2.19,0.69-2.57,1.54-8.76,1.54-11.77,2.02-1.29-0.23-2.49-0.52-3.7-0.79-1.49-0.27-2.63-0.71-3.84-1.1-3.07-1.12-6.08-2.26-9.16-3.37-2.83-1.04-6.12-1.81-9.76-2.42-1.73-0.17-3.41-0.39-5.09-0.6-2.27-0.38-4.46-0.82-6.66-1.25-2-0.53-4.25-0.91-6.47-1.31-2.68-0.34-5.11-0.87-7.55-1.38-2.49-0.61-5.12-1.12-7.79-1.62-1.39-0.25-2.93-0.31-4.44-0.39-1.92-0.2-2.36-0.66-3.26-1.19-0.18-0.9,1.17-1.64,2.39-2.4,0.83-0.53,1.82-1.03,2.82-1.53,1.02-0.4,1.86-0.84,2.7-1.29,0.76-0.34,1.23-0.74,1.77-1.13,0.23-0.3,0.62-0.58,0.94-0.87l9.11-1.48c-0.32,0.29-0.84,0.54-0.95,0.85-0.5,0.41-0.9,0.85-1.7,1.19-0.82,0.47-1.61,0.93-2.67,1.33-1.04,0.49-2.11,0.96-2.96,1.5-1.15,0.67-2.48,1.34-2.67,2.14,0.8,0.37,1.01,0.78,2.7,0.84,1.57,0.1,3.13,0.19,4.52,0.49,2.63,0.53,5.22,1.08,7.74,1.67,2.45,0.49,4.91,0.98,7.58,1.31,2.23,0.41,4.36,0.87,6.45,1.36,2.2,0.42,4.39,0.85,6.7,1.19,1.68,0.19,3.36,0.4,5,0.63,3.61,0.69,6.91,1.52,9.77,2.57,3.08,1.12,6.15,2.24,9.38,3.31,1.22,0.36,2.39,0.76,3.81,1.02,1.15,0.26,2.26,0.55,3.56,0.69-1.92,0.46-7.49,1.95-5.76,1.39,0.71-0.24,1.32-0.52,2.12-0.74,0.87-0.25,1.77-0.46,2.34-0.82,0.86-0.36,1.69-0.71,2.72-1.01,0.96-0.35,1.96-0.69,2.79-1.08,0.9-0.34,1.93-0.63,2.55-1.05,0.86-0.41,1.73-0.81,2.6-1.22,1.09-0.47,2.12-0.94,2.98-1.48,1.08-0.52,2.12-1.06,3.17-1.59,1.35-0.68,2.65-1.38,4.21-2.01,1.52-0.72,3.14-1.4,5.04-2,1.3-0.31,2.68-0.57,3.8-0.97,1.91-0.97,3.58-2,5.13-3.06,4.81-3.14,9.62-6.28,14.77-9.35,8.27-4.94,16.66-9.85,25.41-14.68,3.95-2.08,7.92-4.19,12.87-6l9.4-1.3z"/>
			<path d="M201.19,316.29c0.09-1.72,1.34-3.39,2.48-5.06,2.3-3.17,5.32-6.27,9.1-9.26,3.27-2.41,7.16-4.69,11.17-6.95l8.79-1.37c-4.2,2.23-8.18,4.53-11.5,6.94-3.82,2.97-7.03,6.04-9.21,9.22-0.99,1.59-2.17,3.2-1.81,4.85l-9.02,1.63z"/>
			<path d="M178.51,312.74c-0.92-0.44-0.68-0.91-0.71-1.43,0.82-1.22,2.1-2.39,3.34-3.56,1.17-0.86,1.8-1.77,2.28-2.7,0.21-0.69,1.05-1.32,1.79-1.96,0.57-0.36,0.94-0.76,1.39-1.14l9.07-1.49c-0.44,0.39-0.82,0.79-1.39,1.16-0.75,0.61-1.67,1.21-1.93,1.88-0.48,0.96-1.06,1.9-2.28,2.78-1.29,1.14-2.57,2.27-3.36,3.47,0,0.15,0.03,1.04,0,0.88l-8.2,2.11z"/>
			<path d="M161.94,309.59c0.08-0.93,0.76-1.84,1.41-2.74,0.93-1.39,2.26-2.74,3.62-4.09,0.42-0.46,0.87-0.92,1.3-1.38l9.06-1.49c-0.49,0.46-0.99,0.92-1.41,1.39-1.46,1.34-2.94,2.68-3.84,4.09-0.61,0.84-1.22,1.71-1.11,2.58l-9.03,1.64z"/>
			<path d="M217.76,317.55c-1.02-0.48-1.1-1.03-1.3-1.61-0.51-1.74,0.64-3.46,1.65-5.15,1.84-2.56,4.14-5.07,5.7-7.65,0.72-1.18,0.99-2.38,1.23-3.58,0.27-0.87,1.23-1.65,2.22-2.44,0.63-0.49,1.32-0.98,2-1.46l8.99-1.45c-0.7,0.48-1.4,0.96-2.03,1.46-0.96,0.75-1.91,1.5-2.28,2.33-0.34,1.23-0.71,2.46-1.53,3.66-1.67,2.58-4.02,5.09-5.79,7.66-0.91,1.64-1.95,3.31-1.38,4.99,0.12,0.31,0.48,1.17,0.72,1.12l-8.2,2.12z"/>
			<path d="M249.94,304.34c-0.7-0.39-1.04-0.84-1.47-1.28-0.45-0.65-0.46-1.32-0.5-1.98-0.02-0.8-0.02-1.59-0.02-2.38-0.15-0.63,0.16-1.24,0.43-1.85,0.34-0.59,0.74-1.18,1.15-1.76,0.62-0.55,0.78-1.13,1-1.7,0.01-0.57,0.3-1.13,0.55-1.69,0.38-0.58,1.15-1.1,1.82-1.64,0.36-0.25,0.62-0.51,0.93-0.77l9.06-1.49c-0.3,0.26-0.54,0.54-0.88,0.8-0.69,0.51-1.47,1.01-1.9,1.57-0.31,0.53-0.69,1.07-0.64,1.63-0.18,0.6-0.28,1.21-0.91,1.77-0.47,0.58-0.87,1.15-1.19,1.74-0.31,0.59-0.7,1.18-0.56,1.79-0.01,0.79-0.03,1.58,0,2.37,0.07,0.63,0.05,1.27,0.43,1.89,0.41,0.42,0.71,0.85,1.49,1.2l-8.79,1.78z"/>
			<path d="M269.54,288.85c0.09-0.72,0.09-1.44,0.1-2.16,0.02-0.92-0.01-1.85-0.02-2.77-0.06-0.79,0.84-1.49,1.72-2.19l9.08-1.46c-0.89,0.66-1.92,1.3-1.96,2.05-0.01,0.93-0.03,1.85-0.02,2.77,0.01,0.71,0.01,1.42,0.1,2.13l-9,1.63z"/>
			<path d="M287.13,280.7c0.05-0.41,0.04-0.83,0.05-1.24-0.1-0.62,0.42-1.19,0.85-1.78l9.01-1.54c-0.42,0.56-1.01,1.12-0.95,1.7,0.01,0.41,0,0.82,0.05,1.23l-9.01,1.63z"/>
			<path d="M303.02,275.47c-0.9-0.22-1.75-0.47-2.63-0.69-1.1-0.31-1.94-0.72-2.83-1.1-0.77-0.4-1.69-0.75-2.61-1.1-1.97-0.91,0.93,0.41-0.84-0.37l8.59-1.84c0.27,0.12,0.57,0.24,0.81,0.36,0.93,0.36,1.86,0.72,2.64,1.12,0.86,0.36,1.67,0.75,2.75,1.05,0.69,0.16,1.53,0.45,2.31,0.45l-8.19,2.12z"/>
			<path d="M159.34,300.87c1.6,0.29,3.26,0.56,4.92,0.81,1.8,0.15,3.45,0.4,5.15,0.64,1.41,0.22,2.93,0.33,4.42,0.46,2.04,0.36,4,0.77,6,1.16,3.7,0.7,7.13,1.56,10.81,2.28,3.47,0.65,7.34,0.87,11.15,1.11,3.04,0.43,5.73,1.11,8.63,1.64,2.36,0.35,4.88,0.42,7.4,0.48,2.01,0.05,3.69,0.44,5.43,0.76,1.92,0.4,3.55,0.95,5.38,1.4,2.08,0.28,4.05,0.63,6.01,0.99,0.94,0.26,1.79,0.55,2.65,0.84l-8.49,1.88c-0.8-0.27-1.56-0.57-2.5-0.78-1.98-0.36-3.98-0.7-6-1.03-1.78-0.46-3.43-0.99-5.37-1.36-1.68-0.3-3.25-0.64-5.2-0.64-2.58-0.1-5.15-0.21-7.53-0.61-2.79-0.55-5.46-1.22-8.5-1.57-3.85-0.27-7.7-0.55-11.17-1.24-3.67-0.73-7.18-1.56-10.96-2.23-1.97-0.37-3.89-0.79-5.99-1.06-1.52-0.14-3.06-0.27-4.47-0.52-1.7-0.22-3.4-0.43-5.12-0.64-1.69-0.27-3.38-0.55-5.1-0.8l8.45-1.97z"/>
			<path d="M226.45,296.71c0.39,0.4,1.54,0.62,2.41,0.89,2.24,0.33,4.37,0.73,6.48,1.16,1.32,0.36,2.86,0.47,4.44,0.61,2.15,0.21,4.07,0.64,6.02,1.01,1.37,0.42,2.93,0.63,4.59,0.83,1.28,0.12,1.99,0.48,2.86,0.79,1.02,0.15,2.13,0.26,3.2,0.36,0.48,0.03,0.85,0.15,1.27,0.22l-8.38,1.95c-0.4-0.06-0.77-0.15-1.2-0.18-1.2-0.12-2.46-0.17-3.43-0.47-0.82-0.28-1.37-0.58-2.57-0.65-1.64-0.26-3.23-0.51-4.63-0.93-1.93-0.36-3.83-0.75-5.98-0.92-1.63-0.17-3.2-0.31-4.54-0.71-2.13-0.43-4.33-0.79-6.52-1.17-1.16-0.35-2.4-0.66-3.05-1.16l9.03-1.63z"/>
			<path d="M252.58,288.99c2.07-0.02,4.06,0.2,6.04,0.37,2.41,0.28,4.61,0.65,6.72,1.13,1.48,0.58,3.29,0.93,5.2,1.28,1.32,0.14,2.7,0.11,4.06,0.13,0.65,0.04,1.28-0.04,1.91-0.06l-8.03,2.14c-0.66,0-1.33,0.02-1.99,0-1.44-0.03-2.9-0.03-4.26-0.24-1.87-0.4-3.68-0.8-5.24-1.35-2.07-0.43-4.2-0.79-6.5-1.04-2.02-0.15-4.02-0.33-6.09-0.25l8.18-2.11z"/>
			<path d="M275.51,284.17c0.41,0.28,1.39,0.27,2.05,0.4,1.29,0.05,2.55,0.14,3.82,0.23,1.12,0.04,1.59,0.34,2.34,0.56l-8.6,1.84c-0.6-0.11-1.08-0.41-1.95-0.36-1.3-0.08-2.61-0.16-3.9-0.26-0.54-0.09-1.85-0.31-1.95-0.29l8.19-2.12z"/>
			<path d="M287.99,277.67c0.45,0.45,1.49,0.74,2.4,1.07,1.38,0.26,2.84,0.46,4.26,0.7,0.63,0.11,1.23,0.23,1.85,0.35l-8.41,1.94c-0.61-0.12-1.21-0.23-1.81-0.35-1.49-0.23-3.07-0.42-4.38-0.77-0.99-0.36-2.08-0.69-2.7-1.16l8.79-1.78z"/>
			<path d="M139.06,307.11c-0.76-0.32-1.63-0.6-2.48-0.89-1.34-0.41-2.64-0.84-3.95-1.27-1.06-0.39-2.09-0.79-3.13-1.19-1-0.24-1.77-0.55-2.62-0.85-1.63-0.48-3.29-0.94-4.98-1.39-1.97-0.52-4-1.01-6.02-1.51-1.68-0.25-2.49-0.68-3.46-1.17-0.51-0.47-0.47-0.96-0.53-1.45-0.01-0.48,0.01-0.96,0.02-1.45,0-0.24,0-0.48,0.01-0.72l8.92-1.61v0.72c-0.01,0.48-0.02,0.96-0.03,1.44,0.05,0.44-0.05,0.89,0.34,1.31,0.93,0.4,1.61,0.83,3.12,1.03,2,0.51,4.01,1.01,5.98,1.53,1.75,0.46,3.51,0.92,5.17,1.41,0.88,0.29,1.73,0.59,2.65,0.86,1.01,0.4,2,0.8,3.04,1.18,1.32,0.43,2.64,0.86,4,1.26,0.78,0.27,1.55,0.56,2.4,0.79l-8.45,1.97z"/>
			<path fill="#000000" d="M140.62,309.14c-0.5-0.18-1.16-0.29-1.77-0.44-0.85-0.31-1.74-0.6-2.63-0.89l8.56-1.86c0.85,0.28,1.69,0.57,2.58,0.84,0.42,0.06,1.39,0.33,1.46,0.23l-8.2,2.12z"/>
			<path d="M151.45,301.92c-1.06-0.01-2.12-0.01-3.18-0.01-1.56,0.07-3-0.05-4.46-0.15-1.03-0.16-1.58-0.5-2.24-0.81-0.75-0.28-1.26-0.62-1.85-0.94-0.54-0.37-1.6-0.55-2.52-0.79-1.24-0.24-2.3-0.58-3.39-0.89-1.06-0.34-1.96-0.74-2.89-1.11-0.47-0.22-0.97-0.42-1.46-0.63l8.59-1.82c0.47,0.2,0.95,0.4,1.41,0.61,0.93,0.36,1.83,0.75,2.87,1.08,1.08,0.29,2.13,0.6,3.32,0.85,1.06,0.27,2.19,0.5,2.79,0.94,0.57,0.29,1.06,0.61,1.76,0.87,0.61,0.24,0.96,0.56,1.93,0.65,1.39,0.03,2.81,0.09,4.22,0.05,1.1,0,2.2,0,3.29-0.02l-8.19,2.12z"/>		</g>
		<g id="arrow" fill="black" stroke-width="5.9" stroke="black">		
			<path d="M192.21,222.51h79.92c-13.32-16.08-13.32-32.76,0-50.03h41.39c-41.9-12.65-69.88-25.3-81.35-37.96-6.09,20.52-39.9,30.43-79.92,37.96h39.96c-10.72,16.68-3.75,33.35,0,50.03z" stroke-width="9" />
			<path d="M190.5,329.49l5.27,20.1-11.42,39.36-66.39,31.49c46.17-8.69,115.21-23.43,118.63-18.61l-6.77-72.34h-39.32z" />
			<path d="M268.19,307.26l-9.16,78.49c15.47,12.28,38.85,23.05,64.48,33.54,57.85,20.19-67.39-10.3-97.02-16.41l8.12-75.22,33.58-20.4z" />
		</g>
		<path id="character_n" fill="black" d="M325.7,317.73v-40.09h5.44l21.06,31.48v-31.48h5.09v40.09h-5.45l-21.05-31.5v31.5h-5.09z" transform="matrix(1.726659,0,0,1,-359.61779,-200.99515)"/>
	</g>
</svg>
