<?xml version="1.0" encoding="UTF-8" standalone="no"?>
<!-- Generator: Adobe Illustrator 9.0, SVG Export Plug-In  -->

<svg
   xmlns:dc="http://purl.org/dc/elements/1.1/"
   xmlns:cc="http://creativecommons.org/ns#"
   xmlns:rdf="http://www.w3.org/1999/02/22-rdf-syntax-ns#"
   xmlns:svg="http://www.w3.org/2000/svg"
   xmlns="http://www.w3.org/2000/svg"
   xmlns:sodipodi="http://sodipodi.sourceforge.net/DTD/sodipodi-0.dtd"
   xmlns:inkscape="http://www.inkscape.org/namespaces/inkscape"
   width="112.02pt"
   height="113.641pt"
   viewBox="0 0 112.02 113.641"
   xml:space="preserve"
   id="svg2495"
   sodipodi:version="0.32"
   inkscape:version="0.47 r22583"
   sodipodi:docname="NorthArrow_blackyellowblack.svg"
   inkscape:output_extension="org.inkscape.output.svg.inkscape"
   version="1.1"><metadata
   id="metadata2509"><rdf:RDF><cc:Work
       rdf:about=""><dc:format>image/svg+xml</dc:format><dc:type
         rdf:resource="http://purl.org/dc/dcmitype/StillImage" /><dc:title /></cc:Work></rdf:RDF></metadata><defs
   id="defs2507"><inkscape:perspective
     sodipodi:type="inkscape:persp3d"
     inkscape:vp_x="0 : 71.025627 : 1"
     inkscape:vp_y="0 : 1000 : 0"
     inkscape:vp_z="140.02499 : 71.025627 : 1"
     inkscape:persp3d-origin="70.012497 : 47.350418 : 1"
     id="perspective2511" /><inkscape:perspective
     id="perspective2927"
     inkscape:persp3d-origin="0.5 : 0.33333333 : 1"
     inkscape:vp_z="1 : 0.5 : 1"
     inkscape:vp_y="0 : 1000 : 0"
     inkscape:vp_x="0 : 0.5 : 1"
     sodipodi:type="inkscape:persp3d" /><inkscape:perspective
     id="perspective2961"
     inkscape:persp3d-origin="0.5 : 0.33333333 : 1"
     inkscape:vp_z="1 : 0.5 : 1"
     inkscape:vp_y="0 : 1000 : 0"
     inkscape:vp_x="0 : 0.5 : 1"
     sodipodi:type="inkscape:persp3d" /></defs><sodipodi:namedview
   inkscape:window-height="882"
   inkscape:window-width="1440"
   inkscape:pageshadow="2"
   inkscape:pageopacity="0.0"
   guidetolerance="10.0"
   gridtolerance="10.0"
   objecttolerance="10.0"
   borderopacity="1.0"
   bordercolor="#666666"
   pagecolor="#ffffff"
   id="base"
   showgrid="false"
   inkscape:zoom="5.4625545"
   inkscape:cx="45.900006"
   inkscape:cy="70.953176"
   inkscape:window-x="0"
   inkscape:window-y="1047"
   inkscape:current-layer="g3115"
   showguides="true"
   inkscape:guide-bbox="true"
   inkscape:window-maximized="1" />
	
<g
   id="g3725"><g
     transform="matrix(0.9967843,0,0,0.9968324,0.1611099,0.3592317)"
     id="g3115"><path
       sodipodi:type="arc"
       style="fill:#ffff00;fill-opacity:1;fill-rule:nonzero;stroke:none"
       id="path3021-9"
       sodipodi:cx="59.679817"
       sodipodi:cy="57.638145"
       sodipodi:rx="52.89159"
       sodipodi:ry="53.74012"
       d="m 112.57141,57.638145 a 52.89159,53.74012 0 1 1 -105.7831829,0 52.89159,53.74012 0 1 1 105.7831829,0 z"
       transform="matrix(0.77973765,0,0,0.77908308,9.4944623,11.735779)" /><path
       style="fill:#000000;fill-opacity:1;fill-rule:nonzero;stroke:none"
       d="m 55.949838,18.343583 -29.39268,29.531327 16.795818,-0.07923 0,38.22633 0,1.227993 c -0.0034,0.04368 -0.01981,0.07488 -0.01981,0.118837 0,0.04398 0.01663,0.09497 0.01981,0.138646 l 0,0.118837 0.01981,0 c 0.339498,2.503791 5.862122,4.496044 12.636475,4.496052 6.773391,8e-6 12.295554,-1.992761 12.636478,-4.496052 l 0.0396,0 0,-0.257483 0,-1.188379 c 0.01092,-0.05469 0.01981,-0.10307 0.01981,-0.158451 0,-0.05539 0.01095,-0.123566 0,-0.178258 l 0,-38.186717 16.795818,-0.07923 L 55.949836,18.34357 z"
       id="path3086" /><path
       style="fill:#000000;fill-opacity:1;fill-rule:nonzero;stroke:none"
       d="m 56.029066,-0.06393197 c -30.851418,0 -55.85461324,25.38456997 -55.85461324,56.70461897 0,31.320052 25.00319524,56.704613 55.85461324,56.704613 30.85142,0 55.854604,-25.384561 55.854604,-56.704613 0,-31.320049 -25.003184,-56.70461897 -55.854604,-56.70461897 z m 0,14.84702897 c 22.777087,0 41.232587,18.734523 41.232587,41.85759 0,23.123067 -18.4555,41.882671 -41.232587,41.882671 -22.777085,0 -41.232588,-18.759604 -41.232588,-41.882671 0,-23.123067 18.455503,-41.85759 41.232588,-41.85759 z"
       id="path3021-6" /></g></g></svg>