<?xml version="1.0" encoding="UTF-8" standalone="no"?>
<svg xmlns:rdf="http://www.w3.org/1999/02/22-rdf-syntax-ns#" xmlns="http://www.w3.org/2000/svg" version="1.0" xmlns:cc="http://creativecommons.org/ns#" xmlns:dc="http://purl.org/dc/elements/1.1/" viewBox="0 0 450 500">
	<title>North Arrow 11, Simple Corner with N and E letter</title>
	<metadata>
		<rdf:RDF>
			<cc:Work rdf:about="">
				<dc:format>image/svg+xml</dc:format>
				<dc:type rdf:resource="http://purl.org/dc/dcmitype/StillImage"/>
				<dc:title>North Arrow 11, Simple Corner with N and E letter</dc:title>
				<dc:description>North Arrow 11, Simple Corner with N and E letter</dc:description>
				<dc:date>2009-11-08</dc:date>
				<dc:creator>
					<cc:Agent>
						<dc:title>Silvio Grosso</dc:title>
					</cc:Agent>
				</dc:creator>
				<cc:license rdf:resource="http://creativecommons.org/licenses/publicdomain/"/>
			</cc:Work>
			<cc:License rdf:about="http://creativecommons.org/licenses/publicdomain/">
				<cc:permits rdf:resource="http://creativecommons.org/ns#Reproduction"/>
				<cc:permits rdf:resource="http://creativecommons.org/ns#Distribution"/>
				<cc:permits rdf:resource="http://creativecommons.org/ns#DerivativeWorks"/>
			</cc:License>
		</rdf:RDF>
	</metadata>
	<path id="character_e" fill="black" d="M325.51,277.65h33.2v8.55h-20.78v6.38h19.27v8.17h-19.27v7.9h21.38v9.08h-33.8v-40.08z" transform="translate(29.87327,68.56076)"/>
	<path id="character_n" fill="black" d="M325.62,277.65h11.57l15.09,22.17v-22.17h11.68v40.08h-11.68l-15.01-22.01v22.01h-11.65v-40.08z" transform="translate(-153.11321,-216.64025)"/>
	<g transform="matrix(6.566357,0,0,6.602753,-2189.5614,-3285.1837)" stroke="black" fill="black">
		<path d="M360.12,554.78v-24.1l-2.63,2.37,5-17.43,4.66,16.78-2.28-1.72v24.1z" stroke-width="1.5"/>
		<path d="M360.61,550.27h15.12l-1.49-2.71,10.94,5.16-10.53,4.8,1.08-2.36h-15.12z" stroke-width="1.5"/>
	</g>
</svg>
