<svg xmlns="http://www.w3.org/2000/svg" width="24" height="24"><path fill="none" stroke="#8cbe8c" stroke-linejoin="round" stroke-width="2" d="m3.001 20.264 6.365-10.196 12.505-4.17" style="stroke-linecap:round"/><path d="M9.952 10.095H8.98l.016 7.116c.002.526.43.951.956.95z" style="color:#000;fill:#5787bb;fill-opacity:1;stroke-width:1;stroke-linecap:round"/><path d="M9.913 1.874a.953.953 0 0 0-.95.955l.017 7.268h.972V1.88a.957.957 0 0 0-.04-.006z" style="color:#000;fill:#6d97c4;fill-opacity:1;stroke-width:1;stroke-linecap:round"/><path d="M10.887 10.079h-.935v8.082h.002a.953.953 0 0 0 .95-.956z" style="color:#000;fill:#4876a4;fill-opacity:1;stroke-width:1;stroke-linecap:round"/><path d="M9.952 1.88v8.234h.935l-.017-7.29a.953.953 0 0 0-.918-.944Z" style="color:#000;fill:#5787bb;fill-opacity:1;stroke-width:1;stroke-linecap:round"/><path d="M9.975 10.07H1.989v.003c.001.526.43.951.955.95l7.03-.017z" style="color:#000;fill:#5787bb;fill-opacity:1;stroke-width:1;stroke-linecap:round"/><path d="M9.964 10.07v.936l7.119-.016a.953.953 0 0 0 .948-.92z" style="color:#000;fill:#4876a4;fill-opacity:1;stroke-width:1;stroke-linecap:round"/><path d="m9.986 9.1-7.048.016a.953.953 0 0 0-.95.954h7.998z" style="color:#000;fill:#6d97c4;fill-opacity:1;stroke-width:1;stroke-linecap:round"/><path d="M9.964 9.1v.97h8.067l.002-.038a.953.953 0 0 0-.956-.95z" style="color:#000;fill:#5787bb;fill-opacity:1;stroke-width:1;stroke-linecap:round"/><path d="M15.91 7.66a6.459 6.459 0 0 0-3.754-3.732m-4.586.03a6.459 6.459 0 0 0-3.717 3.737m8.34 8.288a6.459 6.459 0 0 0 3.716-3.738m-12.042.036a6.459 6.459 0 0 0 3.739 3.715" style="fill:none;fill-opacity:1;stroke:#415a75;stroke-width:.999999;stroke-linecap:round;stroke-dasharray:none;stroke-opacity:1"/></svg>