<svg xmlns="http://www.w3.org/2000/svg" xml:space="preserve" width="24" height="24"><path d="M12.014 12.064h-.972l.016 9.994c.002.526.43.95.956.95z" style="color:#000;fill:#5787bb;fill-opacity:1;stroke-width:1;stroke-linecap:round"/><path d="M11.975 1.063a.953.953 0 0 0-.95.955l.017 9.992h.972V1.07a.957.957 0 0 0-.04-.006z" style="color:#000;fill:#6d97c4;fill-opacity:1;stroke-width:1;stroke-linecap:round"/><path d="M12.949 12.047h-.935v10.96h.002a.953.953 0 0 0 .95-.955z" style="color:#000;opacity:1;fill:#4876a4;fill-opacity:1;stroke-width:1;stroke-linecap:round"/><path d="M12.014 1.069v10.958h.935l-.017-10.014a.953.953 0 0 0-.918-.944ZM12 12.012H.975a.95.95 0 0 0 .956.953L12 12.95Z" style="color:#000;opacity:1;fill:#5787bb;fill-opacity:1;stroke-width:1;stroke-linecap:round"/><path d="M12 12.012v.936l10.122-.016a.953.953 0 0 0 .948-.92z" style="color:#000;opacity:1;fill:#4876a4;fill-opacity:1;stroke-width:1;stroke-linecap:round"/><path d="m12.01 11.042-10.085.016a.953.953 0 0 0-.95.954h11.036Z" style="color:#000;fill:#6d97c4;fill-opacity:1;stroke-width:1;stroke-linecap:round"/><path d="M12 11.042v.97h11.07l.002-.037a.953.953 0 0 0-.956-.95z" style="color:#000;fill:#5787bb;fill-opacity:1;stroke-width:1;stroke-linecap:round"/><path d="M16.704 8.841a5.67 5.67 0 0 0-1.586-1.573m-6.277.012a5.67 5.67 0 0 0-1.576 1.592m7.884 7.838a5.67 5.67 0 0 0 1.577-1.592h0m-9.446.03a5.67 5.67 0 0 0 1.592 1.578" style="opacity:1;fill:none;fill-opacity:1;stroke:#415a75;stroke-width:1;stroke-linecap:round;stroke-dasharray:none;stroke-opacity:1"/><path d="M19.545 9.104a8.079 8.079 0 0 0-4.696-4.668m-5.736.037a8.079 8.079 0 0 0-4.648 4.676m10.429 10.367a8.079 8.079 0 0 0 4.648-4.676h0m-15.06.044a8.079 8.079 0 0 0 4.676 4.648" style="opacity:1;fill:none;fill-opacity:1;stroke:#415a75;stroke-width:.999998;stroke-linecap:round;stroke-dasharray:none;stroke-opacity:1"/></svg>