<svg xmlns="http://www.w3.org/2000/svg" width="24" height="24"><path fill="none" stroke="#8cbe8c" stroke-dasharray="2.8, 1.4" stroke-width="1.4" d="M4.344 22.8 9.576 9.014l12.08-3.429"/><path d="M10.01 9.186h-.972l.016 7.116c.002.526.43.951.956.95z" style="color:#000;fill:#5787bb;fill-opacity:1;stroke-width:1;stroke-linecap:round"/><path d="M9.971.965a.953.953 0 0 0-.95.955l.017 7.268h.972V.971a.957.957 0 0 0-.04-.006z" style="color:#000;fill:#6d97c4;fill-opacity:1;stroke-width:1;stroke-linecap:round"/><path d="M10.945 9.17h-.935v8.082h.002a.953.953 0 0 0 .95-.956z" style="color:#000;fill:#4876a4;fill-opacity:1;stroke-width:1;stroke-linecap:round"/><path d="M10.01.971v8.234h.935l-.017-7.29a.953.953 0 0 0-.918-.944z" style="color:#000;fill:#5787bb;fill-opacity:1;stroke-width:1;stroke-linecap:round"/><path d="M10.033 9.161H2.047v.003c.001.526.43.951.955.95l7.03-.017z" style="color:#000;fill:#5787bb;fill-opacity:1;stroke-width:1;stroke-linecap:round"/><path d="M10.022 9.161v.936l7.12-.016a.953.953 0 0 0 .947-.92z" style="color:#000;fill:#4876a4;fill-opacity:1;stroke-width:1;stroke-linecap:round"/><path d="m10.044 8.191-7.048.016a.953.953 0 0 0-.95.954h7.998z" style="color:#000;fill:#6d97c4;fill-opacity:1;stroke-width:1;stroke-linecap:round"/><path d="M10.022 8.191v.97h8.067l.002-.038a.953.953 0 0 0-.956-.95z" style="color:#000;fill:#5787bb;fill-opacity:1;stroke-width:1;stroke-linecap:round"/><path d="M15.968 6.751a6.459 6.459 0 0 0-3.754-3.732m-4.586.03a6.459 6.459 0 0 0-3.717 3.737m8.34 8.288a6.459 6.459 0 0 0 3.716-3.738m-12.042.036a6.459 6.459 0 0 0 3.74 3.715" style="fill:none;fill-opacity:1;stroke:#415a75;stroke-width:.999999;stroke-linecap:round;stroke-dasharray:none;stroke-opacity:1"/><rect width="10" height="10" x="14" y="14" fill="#5a8c5a" rx="2.011"/><g fill="#fcffff" fill-rule="evenodd"><path stroke="#e6e6e6" stroke-linecap="round" stroke-linejoin="round" stroke-width="2" d="M16 19h6M19 22v-6"/><path d="M15 19h8v-2c0-2-.5-2-4-2s-4 0-4 2z" opacity=".3"/></g></svg>