<svg xmlns="http://www.w3.org/2000/svg" width="24" height="24"><path fill="none" stroke="#8cbe8c" stroke-dasharray="2.8, 1.4" stroke-width="1.4" d="m2.076 22.18 3.068-6.868 10.053-6.207"/><path d="M15.01 9.186h-.972l.016 7.116c.002.526.43.951.956.95z" style="color:#000;fill:#5787bb;fill-opacity:1;stroke-width:1;stroke-linecap:round"/><path d="M14.971.965a.953.953 0 0 0-.95.955l.017 7.268h.972V.971a.957.957 0 0 0-.04-.006z" style="color:#000;fill:#6d97c4;fill-opacity:1;stroke-width:1;stroke-linecap:round"/><path d="M15.945 9.17h-.935v8.082h.002a.953.953 0 0 0 .95-.956z" style="color:#000;fill:#4876a4;fill-opacity:1;stroke-width:1;stroke-linecap:round"/><path d="M15.01.971v8.234h.935l-.017-7.29a.953.953 0 0 0-.918-.944z" style="color:#000;fill:#5787bb;fill-opacity:1;stroke-width:1;stroke-linecap:round"/><path d="M15.033 9.161H7.047v.003c.001.526.43.951.955.95l7.03-.017z" style="color:#000;fill:#5787bb;fill-opacity:1;stroke-width:1;stroke-linecap:round"/><path d="M15.022 9.161v.936l7.12-.016a.953.953 0 0 0 .947-.92z" style="color:#000;fill:#4876a4;fill-opacity:1;stroke-width:1;stroke-linecap:round"/><path d="m15.044 8.191-7.048.016a.953.953 0 0 0-.95.954h7.998z" style="color:#000;fill:#6d97c4;fill-opacity:1;stroke-width:1;stroke-linecap:round"/><path d="M15.022 8.191v.97h8.067l.002-.038a.953.953 0 0 0-.956-.95z" style="color:#000;fill:#5787bb;fill-opacity:1;stroke-width:1;stroke-linecap:round"/><path d="M20.968 6.751a6.459 6.459 0 0 0-3.754-3.732m-4.586.03a6.459 6.459 0 0 0-3.717 3.737m8.34 8.288a6.459 6.459 0 0 0 3.716-3.738m-12.042.036a6.459 6.459 0 0 0 3.74 3.715" style="fill:none;fill-opacity:1;stroke:#415a75;stroke-width:.999999;stroke-linecap:round;stroke-dasharray:none;stroke-opacity:1"/></svg>