<svg xmlns="http://www.w3.org/2000/svg" width="24" height="24"><g fill-rule="evenodd"><path fill="#dde3ea" stroke="#2e4e72" d="M3.5 4.5h5v7h-5z"/><path fill="#6e96c4" stroke="#2e4e72" d="M8.5 2.5h5v11h-5z"/><path fill="#dde3ea" stroke="#2e4e72" d="M11.5 4.5h11v7h-11z"/><path fill="#2e4e72" stroke="#2e4e72" d="M11 8h-1"/><path fill="#aec7e2" d="M15 5h4v6h-4zM6 5h2v6H6Z"/></g><path fill="none" stroke="#2e4e72" d="M10.5 16v-3"/><rect width="9.091" height="9.091" x="1.455" y="13.455" fill="#c00" stroke="#c00" stroke-linecap="square" stroke-linejoin="round" opacity=".9" rx=".779" style="stroke-width:.909091"/><path fill="#fcffff" fill-rule="evenodd" d="M2 18h8v-2.667C10 14 10 14 8 14H3.333C2 14 2 14 2 15.333Z" opacity=".5" style="stroke-width:.8;opacity:.29743758"/><g fill="none" stroke="#eeeeec" stroke-linecap="round"><path stroke-width="1.259055" d="m4.223 19.855 3.57-3.61"/><path stroke-width="1.25943368" d="M9.365 18.05a3.357 3.357 0 1 1-6.715 0 3.357 3.357 0 0 1 6.715 0z"/></g></svg>