<svg height="24" width="24" xmlns="http://www.w3.org/2000/svg" xmlns:xlink="http://www.w3.org/1999/xlink"><radialGradient id="a" cx="11.72698" cy="30.008162" gradientTransform="matrix(1.90991 .00000002 -.00000002 .64864861 -11.397477 12.535247)" gradientUnits="userSpaceOnUse" r="13.875"><stop offset="0" stop-color="#9a9c96"/><stop offset="1" stop-color="#eff0ef"/></radialGradient><linearGradient id="b" gradientUnits="userSpaceOnUse" x1="11" x2="10.999999" y1="32" y2="23"><stop offset="0" stop-color="#9a9c96"/><stop offset="1" stop-color="#d8d9d7"/></linearGradient><linearGradient id="c" gradientUnits="userSpaceOnUse" x1="20.5" x2="3.5" y1="30.5" y2="30.5"><stop offset="0" stop-color="#f00"/><stop offset=".5" stop-color="#fff"/><stop offset="1" stop-color="#fff"/></linearGradient><g transform="translate(0 -8)"><path d="m-3.5 11c7-1.5 22-2.5 31-2.5v17.5h-31z" fill="#fff" stroke="#babdb6" stroke-linecap="round" stroke-linejoin="round" stroke-width=".75"/><path d="m-2 23s5.333861-1 13-1c8 0 14 1 14 1v10h-27z" fill="url(#a)" stroke="url(#b)" stroke-linecap="round" stroke-linejoin="round" stroke-width=".75"/><g stroke-width=".75" transform="translate(-3)"><path d="m20.5 31.5c0-5-3.5-7-8.5-7-6 0-8.5 2-8.5 7z" fill="url(#c)" fill-rule="evenodd" stroke="#babdb6"/><path d="m10.981843 30.625698 2.036314.874302 3-6z" fill="#eeeeec" stroke="#555753" stroke-linecap="round" stroke-linejoin="round"/></g><g fill="#fff" stroke="#babdb6" stroke-linecap="round" stroke-linejoin="round"><path d="m22.5 11.5v3" stroke-width="3"/><path d="m16.5 11.5h11v4h-11z" stroke-width=".75"/><path d="m8.5 16.5v2" stroke-width=".75" transform="translate(0 8)"/><path d="m3.5 17.5 1 1" stroke-width=".75" transform="translate(0 8)"/><path d="m1.3407821 20.446927 1.1592179 1.053073" stroke-width=".75" transform="translate(0 8)"/><path d="m16.5 19.5-2 1" stroke-width=".75" transform="translate(0 8)"/></g></g></svg>