<svg height="24" viewBox="0 0 6.35 6.35" width="24" xmlns="http://www.w3.org/2000/svg"><g stroke-width=".265"><path d="m2.142.662c-.64.01-1.2.271-1.425.908-.224.63.266 1.77 1.345 1.264 1.794-.842 1.793.209 2.241.209.553 0 1.12-.368 1.12-.839 0-.42.022-.824-.225-1.056-.448-.42-.674.214-1.88-.256a3.162 3.162 0 0 0 -1.176-.23z" fill="#8cbe8c" fill-rule="evenodd" stroke="#4b4c4b" stroke-linecap="round" stroke-linejoin="round"/><path d="m1.303 5.584c-.55-.232-.398-.807-.174-1.13l.912-.954c.323-.263.826-.236 1.02-.044.24.331.303.784.196 1.352a1.4 1.4 0 0 1 -.847.798c-.2.114-.718.113-1.107-.022z" fill="#8cbe8c" stroke="#4b4c4b"/><path d="m4.37 4.174a3 3 0 0 1 .015 1.535c-.063.326.301.15.655.222.478.075.85-.024.912-.638.011-.267-.245-.692-.37-1.04-.24-.385-1.31-.666-1.211-.079z" fill="#e6e6e6" stroke="#585956" stroke-opacity=".929"/><path d="m3.969.42c-.76-.215-1.589-.42-2.91-.156-.78.569-.913.984-.931 1.587.057.794.589 1.415.93 1.74-.368.381-.647.6-.793 1.561.023.5.709 1.015 1.322 1.083 1.462-.149 1.379-.279 1.853-.415.176-.373.38-.74.264-1.164.008-.49.013-.925.265-.953.531-.145 1.104-.268 1.425-.529.723-.575.496-.891.691-1.323.05-.584-.315-1.193-.529-1.22z" fill="none" stroke="#565a5d" stroke-dasharray=".264583 .529167" stroke-linecap="round"/></g></svg>