<svg height="24" viewBox="0 0 6.35 6.35" width="24" xmlns="http://www.w3.org/2000/svg"><g fill="#517083" fill-rule="evenodd" stroke="#000" stroke-width=".143"><path d="m.189.241h1.485v1.485h-1.485z"/><path d="m1.674.241h1.485v1.485h-1.485zm1.485 0h1.485v1.485h-1.485zm1.485 0h1.485v1.485h-1.485z"/><path d="m.189 1.725h1.485v1.485h-1.485z"/><path d="m1.674 1.725h1.485v1.485h-1.485zm1.485 0h1.485v1.485h-1.485zm1.485 0h1.485v1.485h-1.485zm-4.455 1.485h1.485v1.485h-1.485z"/><path d="m1.674 3.21h1.485v1.485h-1.485zm1.485 0h1.485v1.485h-1.485zm1.485 0h1.485v1.485h-1.485zm-4.455 1.485h1.485v1.485h-1.485z"/><path d="m1.674 4.695h1.485v1.485h-1.485zm1.485 0h1.485v1.485h-1.485zm1.485 0h1.485v1.485h-1.485z"/></g></svg>