<?xml version="1.0" encoding="UTF-8" standalone="no"?>
<svg
   xmlns:dc="http://purl.org/dc/elements/1.1/"
   xmlns:cc="http://creativecommons.org/ns#"
   xmlns:rdf="http://www.w3.org/1999/02/22-rdf-syntax-ns#"
   xmlns:svg="http://www.w3.org/2000/svg"
   xmlns="http://www.w3.org/2000/svg"
   xmlns:sodipodi="http://sodipodi.sourceforge.net/DTD/sodipodi-0.dtd"
   xmlns:inkscape="http://www.inkscape.org/namespaces/inkscape"
   id="svg3879"
   version="1.1"
   viewBox="0 0 6.3499999 6.3500002"
   height="24"
   width="24"
   sodipodi:docname="mAlgorithmFuzzifyNear.svg"
   inkscape:version="0.92.4 (f8dce91, 2019-08-02)">
  <sodipodi:namedview
     pagecolor="#ffffff"
     bordercolor="#666666"
     borderopacity="1"
     objecttolerance="10"
     gridtolerance="10"
     guidetolerance="10"
     inkscape:pageopacity="0"
     inkscape:pageshadow="2"
     inkscape:window-width="1853"
     inkscape:window-height="1025"
     id="namedview878"
     showgrid="false"
     inkscape:zoom="18.145833"
     inkscape:cx="-1.5013385"
     inkscape:cy="9.6429066"
     inkscape:window-x="1987"
     inkscape:window-y="27"
     inkscape:window-maximized="1"
     inkscape:current-layer="layer1" />
  <defs
     id="defs3873" />
  <metadata
     id="metadata3876">
    <rdf:RDF>
      <cc:Work
         rdf:about="">
        <dc:format>image/svg+xml</dc:format>
        <dc:type
           rdf:resource="http://purl.org/dc/dcmitype/StillImage" />
        <dc:title />
      </cc:Work>
    </rdf:RDF>
  </metadata>
  <g
     transform="translate(0,-290.64998)"
     id="layer1">
    <path
       id="path3881"
       d="m 1.8456982,291.32855 v 4.85761 h 4.554043"
       style="fill:none;stroke:#000000;stroke-width:0.23409459;stroke-linecap:butt;stroke-linejoin:miter;stroke-miterlimit:4;stroke-dasharray:none;stroke-opacity:1"
       inkscape:connector-curvature="0" />
    <g
       aria-label="0"
       transform="matrix(0.05610801,0,0,0.05610801,2.3941333,295.63546)"
       style="font-style:normal;font-weight:normal;font-size:40px;line-height:1.25;font-family:sans-serif;letter-spacing:0px;word-spacing:0px;fill:#000000;fill-opacity:1;stroke:none"
       id="flowRoot4690">
      <path
         d="m -31.392578,-3.2441406 q -3.046875,0 -4.589844,3.00781247 -1.523437,2.98828123 -1.523437,9.00390623 0,5.9960939 1.523437,9.0039059 1.542969,2.988282 4.589844,2.988282 3.066406,0 4.589844,-2.988282 1.542968,-3.007812 1.542968,-9.0039059 0,-6.015625 -1.542968,-9.00390623 -1.523438,-3.00781247 -4.589844,-3.00781247 z m 0,-3.125 q 4.902344,0 7.480469,3.8867187 2.597656,3.8671875 2.597656,11.25 0,7.3632809 -2.597656,11.2499999 -2.578125,3.867188 -7.480469,3.867188 -4.902344,0 -7.5,-3.867188 -2.578125,-3.886719 -2.578125,-11.2499999 0,-7.3828125 2.578125,-11.25 2.597656,-3.8867187 7.5,-3.8867187 z"
         id="path901"
         inkscape:connector-curvature="0" />
    </g>
    <g
       aria-label="1"
       transform="matrix(0.05502696,0,0,0.05502696,2.2065253,293.45942)"
       style="font-style:normal;font-weight:normal;font-size:40px;line-height:1.25;font-family:sans-serif;letter-spacing:0px;word-spacing:0px;fill:#000000;fill-opacity:1;stroke:none"
       id="flowRoot4698">
      <path
         d="m -37.103068,-23.929687 h 6.445312 v -22.246094 l -7.011718,1.40625 v -3.59375 l 6.972656,-1.40625 h 3.945312 v 25.839844 h 6.445313 v 3.320312 h -16.796875 z"
         id="path904"
         inkscape:connector-curvature="0" />
    </g>
    <path
       style="fill:none;stroke:#179c00;stroke-width:0.269875;stroke-linecap:butt;stroke-linejoin:miter;stroke-miterlimit:4;stroke-dasharray:none;stroke-opacity:1"
       d="m 1.9538463,295.82965 c 1.7796551,0 1.95903,-4.3703 2.2640764,-4.3703 0.2169756,0 0.4493932,4.32527 2.1393681,4.32527"
       id="path910"
       inkscape:connector-curvature="0"
       sodipodi:nodetypes="csc" />
  </g>
</svg>
