<svg height="24" viewBox="0 0 6.35 6.35" width="24" xmlns="http://www.w3.org/2000/svg"><g stroke-width=".265"><path d="m2.124.397c-.746.013-1.4.333-1.663 1.11-.261.772.31 2.165 1.57 1.545 2.092-1.029 2.091.255 2.614.255.645 0 1.307-.45 1.307-1.025 0-.514.026-1.007-.262-1.29-.523-.514-.787.261-2.193-.313a3.544 3.544 0 0 0 -1.373-.282z" style="fill:#e6e6e6;fill-rule:evenodd;stroke:#585a56;stroke-linecap:round;stroke-linejoin:round;stroke-opacity:.93"/><path d="m1.387 6.09c-.671-.285-.487-.987-.213-1.383l1.116-1.164c.395-.322 1.009-.289 1.247-.054.294.405.37.958.24 1.652a1.71 1.71 0 0 1 -1.036.976c-.246.14-.878.138-1.353-.028z" fill="#8cbe8c" stroke="#4b4c4b"/></g></svg>