<svg height="24" viewBox="0 0 6.35 6.35" width="24" xmlns="http://www.w3.org/2000/svg"><rect height="5.647" rx=".856" style="fill:#fff;stroke:#000;stroke-width:.148;stroke-linecap:round;stroke-linejoin:round;stroke-miterlimit:6.8;stroke-opacity:.97" width="5.647" x=".363" y=".339"/><path d="m5.507 3.189v.639q-.374.278-.696.403-.317.121-.663.121-.393 0-.914-.21l-.06-.025q-.022-.007-.075-.029-.553-.217-.889-.217-.313 0-.62.135-.307.136-.657.435v-.638q.375-.278.692-.4.321-.125.668-.125.392 0 .916.21l.058.026.074.028q.553.218.889.218.307 0 .606-.132.304-.136.671-.439zm0-1.388v.635q-.374.282-.696.407-.317.121-.663.121-.393 0-.914-.21l-.06-.025q-.022-.007-.075-.029-.553-.217-.889-.217-.313 0-.62.135-.307.136-.657.432v-.635q.375-.278.692-.4.321-.124.668-.124.392 0 .916.21l.054.021.078.033q.553.217.889.217.307 0 .606-.132.304-.135.671-.439z"/></svg>