<svg xmlns="http://www.w3.org/2000/svg" width="24" height="24" viewBox="0 0 6.35 6.35"><circle cx=".926" cy="1.191" r=".265" fill="#8cbe8c" stroke="#4b4c4b" stroke-width=".265" stroke-linecap="round"/><circle cx="3.043" cy="1.191" r=".265" fill="#8cbe8c" stroke="#4b4c4b" stroke-width=".265" stroke-linecap="round"/><circle cx=".926" cy="4.366" r=".265" fill="#8cbe8c" stroke="#4b4c4b" stroke-width=".265" stroke-linecap="round"/><circle cx=".926" cy="2.249" r=".265" fill="#8cbe8c" stroke="#4b4c4b" stroke-width=".265" stroke-linecap="round"/><circle cx=".926" cy="5.424" r=".265" fill="#8cbe8c" stroke="#4b4c4b" stroke-width=".265" stroke-linecap="round"/><circle cx="4.101" cy="1.191" r=".265" fill="#8cbe8c" stroke="#4b4c4b" stroke-width=".265" stroke-linecap="round"/><circle cx=".926" cy="3.307" r=".265" fill="#8cbe8c" stroke="#4b4c4b" stroke-width=".265" stroke-linecap="round"/><circle cx="1.984" cy="1.191" r=".265" fill="#8cbe8c" stroke="#4b4c4b" stroke-width=".265" stroke-linecap="round"/><circle cx="5.159" cy="1.191" r=".265" fill="#8cbe8c" stroke="#4b4c4b" stroke-width=".265" stroke-linecap="round"/><circle cx="3.043" cy="2.249" r=".265" fill="#8cbe8c" stroke="#4b4c4b" stroke-width=".265" stroke-linecap="round"/><circle cx="4.101" cy="2.249" r=".265" fill="#8cbe8c" stroke="#4b4c4b" stroke-width=".265" stroke-linecap="round"/><circle cx="1.984" cy="2.249" r=".265" fill="#8cbe8c" stroke="#4b4c4b" stroke-width=".265" stroke-linecap="round"/><circle cx="5.159" cy="2.249" r=".265" fill="#8cbe8c" stroke="#4b4c4b" stroke-width=".265" stroke-linecap="round"/><circle cx="3.043" cy="3.307" r=".265" fill="#8cbe8c" stroke="#4b4c4b" stroke-width=".265" stroke-linecap="round"/><circle cx="4.101" cy="3.307" r=".265" fill="#8cbe8c" stroke="#4b4c4b" stroke-width=".265" stroke-linecap="round"/><circle cx="1.984" cy="3.307" r=".265" fill="#8cbe8c" stroke="#4b4c4b" stroke-width=".265" stroke-linecap="round"/><circle cx="5.159" cy="3.307" r=".265" fill="#8cbe8c" stroke="#4b4c4b" stroke-width=".265" stroke-linecap="round"/><circle cx="3.043" cy="4.366" r=".265" fill="#8cbe8c" stroke="#4b4c4b" stroke-width=".265" stroke-linecap="round"/><circle cx="4.101" cy="4.366" r=".265" fill="#8cbe8c" stroke="#4b4c4b" stroke-width=".265" stroke-linecap="round"/><circle cx="1.984" cy="4.366" r=".265" fill="#8cbe8c" stroke="#4b4c4b" stroke-width=".265" stroke-linecap="round"/><circle cx="5.159" cy="4.366" r=".265" fill="#8cbe8c" stroke="#4b4c4b" stroke-width=".265" stroke-linecap="round"/><circle cx="3.043" cy="5.424" r=".265" fill="#8cbe8c" stroke="#4b4c4b" stroke-width=".265" stroke-linecap="round"/><circle cx="4.101" cy="5.424" r=".265" fill="#8cbe8c" stroke="#4b4c4b" stroke-width=".265" stroke-linecap="round"/><circle cx="1.984" cy="5.424" r=".265" fill="#8cbe8c" stroke="#4b4c4b" stroke-width=".265" stroke-linecap="round"/><circle cx="5.159" cy="5.424" r=".265" fill="#8cbe8c" stroke="#4b4c4b" stroke-width=".265" stroke-linecap="round"/></svg>
