<svg xmlns="http://www.w3.org/2000/svg" width="24" height="24" viewBox="0 0 6.35 6.35"><path d="M.661.662v5.027h5.027V.66H.662z" fill="#7c96a8" stroke="#517083" stroke-width=".265" stroke-linecap="round"/><path d="M2.142.661c-.64.01-1.2.272-1.425.908-.224.63.266 1.77 1.345 1.264 1.794-.842 1.793.21 2.241.21.553 0 1.12-.369 1.12-.84 0-.42.022-.823-.225-1.055-.448-.42-.674.214-1.88-.257a3.162 3.162 0 0 0-1.176-.23z" fill="#e6e6e6" fill-rule="evenodd" stroke="#5b5e5c" stroke-width=".265" stroke-linecap="round" stroke-linejoin="round"/><path d="M1.039 5.584c-.55-.232-.398-.807-.174-1.13l.912-.954c.323-.263.826-.236 1.02-.044.24.331.302.784.196 1.352a1.4 1.4 0 0 1-.847.798c-.2.114-.718.113-1.107-.022zM4.143 3.91a2.93 2.999 0 0 1 .014 1.534c-.061.326.294.15.64.222.467.075.83-.024.89-.638.012-.266-.238-.691-.36-1.04-.235-.384-1.28-.665-1.184-.078z" fill="#e6e6e6" stroke="#5b5e5c" stroke-width=".265"/></svg>
