<svg xmlns="http://www.w3.org/2000/svg" width="24" height="24" viewBox="0 0 6.35 6.35"><g fill="#7c96a8" stroke="#517083"><path style="font-variant-east_asian:normal" d="M.661 2.249v3.44h3.44V4.1a1.852 1.852 0 0 1-1.852-1.852H.661z" stroke-width=".26458"/><path style="font-variant-east_asian:normal" d="M4.101.397a1.852 1.852 0 0 0-1.852 1.852h1.852v1.852a1.852 1.852 0 0 0 1.852-1.852A1.852 1.852 0 0 0 4.101.397zM2.249 2.249a1.852 1.852 0 0 0 .008.159 1.852 1.852 0 0 1-.008-.159zm.02.25a1.852 1.852 0 0 0 .013.089 1.852 1.852 0 0 1-.014-.089zm.035.19a1.852 1.852 0 0 0 .02.078 1.852 1.852 0 0 1-.02-.079zm.052.174a1.852 1.852 0 0 0 .03.08 1.852 1.852 0 0 1-.03-.08zm.068.166a1.852 1.852 0 0 0 .041.086 1.852 1.852 0 0 1-.041-.086zm.084.162a1.852 1.852 0 0 0 .05.08 1.852 1.852 0 0 1-.05-.08zm.107.16a1.852 1.852 0 0 0 .053.068 1.852 1.852 0 0 1-.053-.068zm.115.14a1.852 1.852 0 0 0 .062.067 1.852 1.852 0 0 1-.062-.067zm.13.13a1.852 1.852 0 0 0 .07.061 1.852 1.852 0 0 1-.07-.062zm.139.114a1.852 1.852 0 0 0 .08.058A1.852 1.852 0 0 1 3 3.735zm.16.107a1.852 1.852 0 0 0 .076.043 1.852 1.852 0 0 1-.076-.043zm.162.084a1.852 1.852 0 0 0 .086.039 1.852 1.852 0 0 1-.086-.039zm.166.068a1.852 1.852 0 0 0 .096.032 1.852 1.852 0 0 1-.096-.032zm.175.052a1.852 1.852 0 0 0 .1.022 1.852 1.852 0 0 1-.1-.022zm.189.036a1.852 1.852 0 0 0 .091.011 1.852 1.852 0 0 1-.091-.011z" stroke-width=".26458"/><path style="font-variant-east_asian:normal" d="M2.249 2.249a1.852 1.852 0 0 0 1.852 1.852V2.25z" stroke-width=".265"/></g></svg>
