<svg xmlns="http://www.w3.org/2000/svg" width="24" height="24" viewBox="0 0 6.35 6.35"><path d="M2.124.397C1.378.41.724.73.461 1.507c-.261.772.31 2.165 1.57 1.545 2.092-1.029 2.091.255 2.614.255.645 0 1.307-.45 1.307-1.025 0-.514.026-1.007-.262-1.29-.523-.514-.787.261-2.193-.313A3.544 3.544 0 0 0 2.124.397z" fill="#e6e6e6" fill-rule="evenodd" stroke="#585a56" stroke-width=".265" stroke-linecap="round" stroke-linejoin="round" stroke-opacity=".93"/><path d="M1.387 6.09C.716 5.805.9 5.103 1.174 4.707L2.29 3.543c.395-.322 1.009-.289 1.247-.054.294.405.37.958.24 1.652a1.71 1.71 0 0 1-1.036.976c-.246.14-.878.138-1.353-.028z" fill="#8cbe8c" stroke="#4b4c4b" stroke-width=".265"/></svg>
