<svg xmlns="http://www.w3.org/2000/svg" height="24" width="24"><path overflow="visible" d="M2.538 2.538h12.924v12.924H2.538z" fill="#fce94f" stroke="#c4a000" stroke-width="1.077" stroke-linecap="round"/><path d="M19.5 12.5c-1.657 0-3 1.215-3 2.713s2.723 7.287 3.072 7.287c.254 0 2.928-5.79 2.928-7.287 0-1.498-1.343-2.713-3-2.713zm0 1a2 2 0 0 1 2 2 2 2 0 0 1-2 2 2 2 0 0 1-2-2 2 2 0 0 1 2-2z" fill="#7c96a8" stroke="#517083" stroke-linejoin="round"/><path d="M19.5 12.5c-1.657 0-3 1.215-3 2.713s2.723 7.287 3.072 7.287c.254 0 2.928-5.79 2.928-7.287 0-1.498-1.343-2.713-3-2.713zm0 1a2 2 0 0 1 2 2 2 2 0 0 1-2 2 2 2 0 0 1-2-2 2 2 0 0 1 2-2z" fill="#7c96a8"/></svg>