<svg height="24" viewBox="0 0 6.35 6.35" width="24" xmlns="http://www.w3.org/2000/svg"><g fill-rule="evenodd" stroke="#000" stroke-width=".143"><path d="m.189.241h1.485v1.485h-1.485z" fill="#f30"/><path d="m1.674.241h1.485v1.485h-1.485z" fill="#4cba00"/><path d="m3.159.241h1.485v1.485h-1.485z" fill="#e500ff"/><path d="m4.644.241h1.485v1.485h-1.485z" fill="#4cba00"/><path d="m.189 1.725h1.485v1.485h-1.485z" fill="#0308ff"/><path d="m1.674 1.725h1.485v1.485h-1.485z" fill="#da6200"/><path d="m3.159 1.725h1.485v1.485h-1.485z" fill="#f30"/><path d="m4.644 1.725h1.485v1.485h-1.485z" fill="#e500ff"/><path d="m.189 3.21h1.485v1.485h-1.485z" fill="#4cba00"/><path d="m1.674 3.21h1.485v1.485h-1.485z" fill="#e500ff"/><path d="m3.159 3.21h1.485v1.485h-1.485z" fill="#0308ff"/><path d="m4.644 3.21h1.485v1.485h-1.485zm-4.455 1.485h1.485v1.485h-1.485z" fill="#da6200"/><path d="m1.674 4.695h1.485v1.485h-1.485z" fill="#f30"/><path d="m3.159 4.695h1.485v1.485h-1.485z" fill="#4cba00"/><path d="m4.644 4.695h1.485v1.485h-1.485z" fill="#0308ff"/></g><path d="m.544.31c0 4.917.054 5.517 5.507 5.517" fill="none" stroke="#fff" stroke-width=".563"/><path d="m.256 5.825c1.302 0 1.69-2.97 2.901-2.97 1.24 0 1.345 2.972 2.894 2.972" fill="none" stroke="#fafafa" stroke-width=".563"/></svg>