<svg xmlns="http://www.w3.org/2000/svg" width="24" height="24" viewBox="0 0 6.35 6.35"><path d="M2.124.926C1.378.94.724 1.26.461 2.036c-.26.772.31 2.165 1.57 1.545 2.092-1.029 2.091.255 2.614.255.645 0 1.307-.45 1.307-1.025 0-.514.026-1.007-.262-1.29-.523-.514-.787.261-2.193-.313A3.544 3.544 0 0 0 2.124.926z" fill="#8cbe8c" fill-rule="evenodd" stroke="#61635f" stroke-width=".265" stroke-linecap="round" stroke-linejoin="round"/><g fill="#7c96a8" stroke-width="2.522"><path d="M5.08 11l.014.563 6.74 8.607-6.814 8.307L5 29l13.213-.07c.129-1.676.483-3.408.787-5.06l-.43-.11c-.4.925-.684 1.914-1.538 2.528-.936.674-2.172.589-3.257.589H7.692l6.201-7.675-5.591-7.162 3.255-.013c2.086 0 5.055-.517 5.88 2.053.141.44.24.895.275 1.357h.465L17.819 11z" fill="#517083" stroke="#517083" stroke-width="3.907" stroke-linecap="round" stroke-linejoin="round" transform="matrix(.10343 0 0 .10643 3.918 2.791)"/><path d="M4.444 3.962l.001.06.697.916-.705.884-.002.056 1.367-.008c.013-.178.05-.363.081-.538L5.84 5.32c-.041.098-.07.204-.16.269-.096.072-.224.063-.336.063h-.63l.642-.817-.578-.762.337-.002c.215 0 .522-.055.608.219a.648.648 0 0 1 .028.144h.048l-.037-.472z"/></g><path d="M.28 5.572L5.57.282" fill="#585a56" fill-opacity=".933" stroke="#585a56" stroke-width=".794" stroke-opacity=".933"/><path d="M.452 5.4L5.4.453" fill="none" stroke="#e6e6e6" stroke-width=".265"/><path d="M2.396 3.457l1.986-1.985" fill="none" stroke="#8cbe8c" stroke-width=".265"/><path d="M2.124.926C1.378.94.724 1.26.461 2.036c-.26.772.31 2.165 1.57 1.545 2.092-1.029 2.091.255 2.614.255.645 0 1.307-.45 1.307-1.025 0-.514.026-1.007-.262-1.29-.523-.514-.787.261-2.193-.313A3.544 3.544 0 0 0 2.124.926z" fill="none" stroke="#61635f" stroke-width=".265" stroke-linecap="round" stroke-linejoin="round"/><path d="M1.133 1.398L2.86 3.135" fill="none" stroke="#585a56" stroke-width=".794" stroke-opacity=".933"/><path d="M1.323 1.588L2.7 2.964" fill="none" stroke="#8cbe8c" stroke-width=".265"/></svg>
