<svg viewBox="0 0 100 100" xmlns="http://www.w3.org/2000/svg"><path d="m0 0v25h25v25h25v50h25v-50-25h-25v-25z" fill="#a8a8a8"/><path d="m50 0v25h25v75h25v-75-25z" fill="#666" stroke-width="1.41421"/><path d="m75 0h25v25h-25z" fill="#4a4a4a"/><path d="m0 25v75h25 25v-50h-25v-25z" fill="#666" stroke-width="1.73205"/><path d="m0 50h25v25h-25z" fill="#4a4a4a"/><circle cx="25" cy="12.5" fill="#fff" r="7"/><circle cx="25" cy="12.5" fill="#5b9bd5" r="4.5"/><circle cx="87.5" cy="12.5" fill="#fff" r="7"/><circle cx="87.5" cy="12.5" fill="#c00" r="4.5"/><circle cx="55" cy="42" fill="#fff" r="7"/><circle cx="55" cy="42" fill="#5b9bd5" r="4.5"/><circle cx="10" cy="65" fill="#fff" r="7"/><circle cx="10" cy="65" fill="#c00" r="4.5"/><circle cx="62.5" cy="90" fill="#fff" r="7"/><circle cx="62.5" cy="90" fill="#5b9bd5" r="4.5"/></svg>