<svg height="48" width="48" xmlns="http://www.w3.org/2000/svg" xmlns:xlink="http://www.w3.org/1999/xlink">
<linearGradient id="a" gradientUnits="userSpaceOnUse" x1="64" x2="64" y1="21.941" y2="104.06">
<stop offset="0" stop-color="#dadada"/>
<stop offset="1" stop-color="#ccc"/>
</linearGradient>
<linearGradient id="b" gradientUnits="userSpaceOnUse" x1="64" x2="64" xlink:href="#a" y1="21.523" y2="103.07">
<stop offset="0" stop-color="#d9d9d9"/>
<stop offset="1" stop-color="#ccc"/>
</linearGradient>
<linearGradient id="c" gradientTransform="scale(.375)" gradientUnits="userSpaceOnUse" x1="64" x2="64" y1="6.8743" y2="117.23">
<stop offset="0" stop-color="#f2f2f2"/>
<stop offset="1" stop-color="#d8d8d8"/>
</linearGradient>
<linearGradient id="d" gradientTransform="matrix(.28343236 -.12030991 .12010907 .2829592 2.4859227 9.1250937)" gradientUnits="userSpaceOnUse" x1="64" x2="64" xlink:href="#b" y1="21.523" y2="103.07"/>
<linearGradient id="e" gradientTransform="matrix(.28343236 -.12030991 .12010907 .2829592 2.4859227 9.1250937)" gradientUnits="userSpaceOnUse" x1="49.273" x2="49.374" xlink:href="#b" y1="22.275" y2="102.05"/>
<linearGradient id="f" gradientTransform="matrix(.24558489 -.10424462 .10406965 .2451728 6.0097698 10.691978)" gradientUnits="userSpaceOnUse" x1="64" x2="64" xlink:href="#a" y1="21.941" y2="104.06"/>
<linearGradient id="g">
<stop offset="0" stop-color="#fff"/>
<stop offset="1" stop-color="#959595"/>
</linearGradient>
<linearGradient id="h" gradientTransform="matrix(.24558489 -.10424462 .10406965 .2451728 6.0097698 10.691978)" gradientUnits="userSpaceOnUse" x1="86.133" x2="84.639" xlink:href="#g" y1="105.1" y2="20.895"/>
<linearGradient id="i" gradientTransform="matrix(.2862028 -.1214859 .1214859 .2862028 2.4198026 9.4751138)" gradientUnits="userSpaceOnUse" x1="64" x2="64" xlink:href="#c" y1="6.8743" y2="117.23"/>
<linearGradient id="j">
<stop offset="0"/>
<stop offset="1" stop-opacity="0"/>
</linearGradient>
<radialGradient id="k" cx="6.7027" cy="73.616" gradientTransform="matrix(2.5234219 0 0 .80403758 11.273995 -25.022728)" gradientUnits="userSpaceOnUse" r="7.2284" xlink:href="#j"/>
<linearGradient id="l" gradientTransform="matrix(.1403734 0 0 .14013905 .49993623 29.332891)" gradientUnits="userSpaceOnUse" x1="64" x2="64" xlink:href="#m" y1="21.523001" y2="103.07"/>
<linearGradient id="m" gradientUnits="userSpaceOnUse" x1="64" x2="64" xlink:href="#a" y1="21.523001" y2="103.07">
<stop offset="0" stop-color="#d9d9d9"/>
<stop offset="1" stop-color="#ccc"/>
</linearGradient>
<linearGradient id="n" gradientTransform="matrix(.1403734 0 0 .14013905 .49993623 29.332891)" gradientUnits="userSpaceOnUse" x1="49.272999" x2="49.374001" xlink:href="#m" y1="22.275" y2="102.05"/>
<linearGradient id="o" gradientTransform="matrix(.12162898 0 0 .12142486 1.6996094 30.618141)" gradientUnits="userSpaceOnUse" x1="64" x2="64" xlink:href="#a" y1="21.941" y2="104.06"/>
<linearGradient id="p" gradientTransform="matrix(.12162898 0 0 .12142486 1.6996094 30.618141)" gradientUnits="userSpaceOnUse" x1="86.133003" x2="84.639" xlink:href="#g" y1="105.1" y2="20.895"/>
<linearGradient id="q" gradientTransform="matrix(.1417455 0 0 .1417455 .40983923 29.467999)" gradientUnits="userSpaceOnUse" x1="64" x2="64" xlink:href="#c" y1="6.8743" y2="117.23"/>
<radialGradient id="r" cx="6.7027001" cy="73.615997" gradientTransform="matrix(1.1504064 0 0 .36655385 1.770596 17.977542)" gradientUnits="userSpaceOnUse" r="7.2284002" xlink:href="#j"/>
<path d="m46.428617 34.167207c0 3.210347-8.166817 5.812121-18.240606 5.812121-10.073788 0-18.2406052-2.601774-18.2406052-5.812121 0-3.209849 8.1665682-5.811955 18.2406052-5.811955 10.074038 0 18.240606 2.602106 18.240606 5.811955z" fill="url(#k)" opacity=".4"/>
<path d="m41.930076 9.0998299l-1.294709.5495634c-.349438.1483327-.876722.0295191-1.128124-.2539308-.013608-.0145156-1.628733-1.6030502-1.628733-1.6030502-.30397-.2598665-.432455-.7831781-.290228-1.1347506l.52752-1.3025285c.121098-.2995787.118298-.6292893-.008567-.9281609-.126879-.29891-.362098-.5299628-.661614-.6506862l-5.131854-2.0678384c-.29977-.1205441-.629773-.1171055-.929082.00959-.299406.1270894-.531116.3620501-.652211.6616272l-.527139 1.3023676c-.142739.351251-.599757.6390089-.978029.6157386-.02093-.0005249-2.2889.022942-2.2889.022942-.398581.030746-.860608-.2492604-1.008692-.5981218l-.548796-1.292872c-.262134-.6154331-.976178-.9034826-1.59285-.641721l-5.097159 2.1636151c-.616838.2618332-.905948.975669-.644564 1.5914477l.548796 1.2928716c.148091.3488601.02853.8756757-.255542 1.1271876-.01446.013782-1.606806 1.6287966-1.606806 1.6287966-.260537.3039304-.784961.4327171-1.136583.2910127l-1.302942-.5252789c-.299896-.1208503-.629902-.1174112-.929079.00959-.299409.1270899-.531006.3623176-.652213.6616273l-2.077466 5.128913c-.251274.620441.04933 1.328613.670186 1.578847l1.303415.525345c.351333.14183.638891.597887.61521.975912-.000602.0209.01995 2.286299.01995 2.286299.03019.397957-.250482.8594-.599887 1.007713l-.959272.407191c-.616598.261734-1.241221 1.118641-.979784 1.734549l2.159922 5.088458c.261392.615811.975692.90369 1.592545.641849l1.295015-.549693c.349441-.148332.876609-.02978 1.127895.254028.01387.0144 1.629038 1.60292 1.629038 1.60292.303971.259868.432182.783296.29023 1.134754l-.527522 1.302533c-.251274.62044.04934 1.328612.670187 1.578846l5.132154 2.068339c.299511.120727.629604.117537.929005-.0095.299674-.127199.531271-.362438.652513-.661765l.527525-1.302533c.142414-.351096.599342-.638869.977781-.615678.02093.0006 2.288924-.02268 2.288924-.02268.398185-.03051.860093.249168 1.00819.598062l.54866 1.292566c.26139.615813.975693.903691 1.592548.64185l5.096928-2.163516c.61656-.261723.905648-.975533.644262-1.591321l-.548661-1.292569c-.148079-.348863-.02851-.875683.25582-1.127303.01456-.01361 1.606808-1.628801 1.606808-1.628801.260533-.303928.785076-.433074 1.136468-.291273l1.303414.525347c.299511.120725.629603.11754.929001-.0095.299408-.127089.531007-.362324.652211-.661636l2.077015-5.128451c.121225-.299317.118418-.629016-.0085-.927935-.126876-.298912-.3621-.529963-.661616-.650685l-1.303393-.525408c-.351599-.141711-.638889-.597884-.615207-.975909.0006-.0209-.01995-2.2863-.01995-2.2863-.03007-.397685.250481-.859398.599962-1.007743l1.294698-.549569c.616838-.261842.905951-.975674.644571-1.591452l-2.160139-5.0890481c-.260553-.6161652-.974882-.9040326-1.591709-.6422066zm-11.720153 14.9026601c-2.62421 1.113913-5.663978-.111135-6.776014-2.730924-1.112037-2.619784.11829-5.65774 2.742425-6.771621 2.62444-1.114013 5.663852.111462 6.775918 2.731324 1.112163 2.620094-.117884 5.657209-2.742329 6.771221z" fill="#030303" opacity=".1" stroke-width="2.66669989"/>
<path d="m41.922905 9.0956669l-1.294705.5495756c-.349443.1483204-.87695.0289881-1.128578-.2550071-.013609-.0145141-1.630001-1.6060265-1.630001-1.6060265-.304202-.2604097-.433003-.7844771-.2909-1.1363583l.526835-1.3041337c.120981-.2998503.117954-.6300942-.009155-.9295384-.126992-.2991778-.362451-.5307609-.662204-.6520587l-5.134379-2.0737927c-.299734-.12126-.629824-.1180634-.929222.00902-.299407.1270903-.531009.3623182-.651988.6621618l-.526587 1.3036695c-.142513.3517858-.59953.6395437-.977901.6160449-.02096-.0006161-2.289487.021568-2.289487.021568-.398707.030441-.860931-.2500194-1.009241-.599416l-.5497-1.2950076c-.262619-.6165771-.976989-.9053901-1.593659-.6436287l-5.097159 2.1636153c-.616839.2618328-.905608.9764707-.643757 1.5933562l.549692 1.2950128c.148317.3493945.02907.877021-.254992 1.1284854-.01447.013786-1.606257 1.6300952-1.606257 1.6300952-.26042.3041968-.784846.4329791-1.136582.2910112l-1.303575-.5268102c-.300002-.1211464-.630095-.11795-.929534.00915-.299407.1270915-.530887.3625917-.651986.6621621l-2.074933 5.134866c-.250935.621242.05023 1.330748.671343 1.581593l1.30409.526954c.351448.142097.639349.598963.61602.977819-.0006.0209.02132 2.289505.02132 2.289505.03042.398494-.250024.860475-.599427 1.00879l-.959275.407189c-.61668.261447-1.241155 1.118585-.979287 1.735509l2.163552 5.097005c.26174.616617.976404.905368 1.593259.643529l1.295013-.549692c.349442-.148334.876839-.02926 1.128351.255104.01385.0144 1.630305 1.605897 1.630305 1.605897.304199.260411.43286.784897.291042 1.13666l-.52684 1.304136c-.251047.620971.05023 1.330748.671342 1.581597l5.134684 2.074293c.299738.121258.629826.118064.929228-.009.299673-.1272.531271-.362432.652291-.662292l.526973-1.303833c.142187-.351632.598999-.639677.977666-.615944.02081.000288 2.28941-.02154 2.28941-.02154.398289-.03032.860434.249968 1.008869.599664l.549565 1.294706c.261854.616885.976501.9056 1.593356.643759l5.096929-2.163518c.616566-.261722.905302-.976351.643453-1.593227l-.54957-1.294718c-.148426-.349671-.02909-.877021.255133-1.128906.01455-.01361 1.606253-1.630094 1.606253-1.630094.260418-.304204.78519-.432812 1.136584-.291017l1.303962.526645c.299739.121263.629827.118063.929226-.009.299408-.127081.531006-.362316.651987-.662161l2.0745-5.134404c.121108-.29958.118074-.629823-.009-.929305-.127104-.299447-.362553-.531033-.662204-.65206l-1.304091-.526945c-.351705-.14198-.639457-.599226-.615887-.977509.000481-.02117-.02132-2.289508-.02132-2.289508-.03054-.398761.249913-.860742.599392-1.009087l1.294704-.549573c.61683-.261839.905608-.97647.643853-1.593127l-2.163589-5.0970493c-.261007-.6172434-.975692-.9059399-1.592518-.6441141zm-11.557844 15.2850291c-2.846916 1.208444-6.144207-.120584-7.350512-2.962464-1.206435-2.842186.12803-6.137278 2.974944-7.345723 2.846612-1.208315 6.143976.120684 7.350412 2.962868 1.20634 2.841957-.128157 6.136972-2.974844 7.345319z" fill="url(#i)" stroke="#262626" stroke-linecap="round" stroke-linejoin="round" stroke-width="1.14286005"/>
<path d="m23.953709 9.265886c-5.633921 2.391459-8.275443 8.913173-5.888065 14.537478 2.387505 5.62461 8.913351 8.254646 14.54758 5.863059 5.633919-2.391456 8.275441-8.913169 5.888064-14.537478-2.387505-5.6246091-8.913353-8.2546458-14.547579-5.863059zm7.514307 17.702601c-4.150629 1.761838-8.940412-.168555-10.699429-4.312542-1.759018-4.143992.179713-8.930467 4.330263-10.692271 4.150629-1.761839 8.940509.168784 10.699431 4.312544 1.75892 4.143758-.179713 8.930462-4.330265 10.692269z" fill="url(#f)" stroke="url(#h)" stroke-width=".82876194"/>
<path d="m24.4692 10.480302c-4.852629 2.059817-7.119036 7.656693-5.062748 12.501 2.056415 4.844613 7.657023 7.101778 12.509344 5.04209 4.852627-2.059816 7.119034-7.656691 5.062747-12.500997-2.056417-4.844615-7.657025-7.1017814-12.509343-5.042093zm6.185735 14.572685c-3.209286 1.362262-6.912755-.130685-8.272619-3.334325-1.359993-3.203944.138846-6.904777 3.348133-8.267038 3.20898-1.362133 6.912624.130378 8.272616 3.334323 1.3599 3.203716-.13907 6.904875-3.34813 8.26704z" fill="url(#d)" stroke="url(#e)" stroke-width=".82876194"/>
<path d="m54.915255 10.220339a15.355932 12.864407 0 1 1 -30.711865 0 15.355932 12.864407 0 1 1  30.711865 0z" fill="#6d97c4" stroke="#000" stroke-linecap="round" stroke-linejoin="round" transform="matrix(.62412553 -.26492557 .32396238 .76320751 .36330993 22.072689)"/>
<path d="m-14.745763 38.135592l-5.773012 3.739829-.352281-6.869489z" fill="#fff" stroke="#fff" stroke-linejoin="round" stroke-width="1.52425003" transform="matrix(1.2190336 .06120627 -.06388686 1.1678851 53.258503 -24.148376)"/>
<path d="m17.797287 44.961727c0 1.46357-3.723182 2.649696-8.3157362 2.649696-4.5925538 0-8.3157357-1.186126-8.3157357-2.649696 0-1.463343 3.7230685-2.64962 8.3157357-2.64962 4.5926682 0 8.3157362 1.186277 8.3157362 2.64962z" fill="url(#r)" opacity=".4"/>
<path d="m17.057187 36.348515h-.641219c-.173066 0-.373176-.143783-.428185-.307516-.0031-.0085-.397946-.962849-.397946-.962849-.08127-.1632-.04197-.405695.08034-.527898l.453397-.45264c.104185-.104147.161741-.243009.161741-.391029 0-.148039-.05755-.2869-.161741-.390915l-1.785237-1.781911c-.104325-.103985-.243424-.161325-.391596-.161476-.148284 0-.287376.05732-.391557.161472l-.453208.452641c-.122468.121976-.365514.161325-.520111.08418-.0087-.004-.964626-.398097-.964626-.398097-.17274-.0581-.316753-.257904-.316753-.430682v-.640311c-.000379-.304961-.248717-.553035-.554131-.553035h-2.524434c-.305497 0-.5539788.248062-.5539788.553035v.640311c0 .172778-.1440216.372557-.3080264.427505-.00853.0032-.9644361.397302-.9644361.397302-.1634724.08114-.4064886.04176-.5288057-.08034l-.4532074-.452524c-.1043246-.104136-.2434241-.161477-.3915954-.161477-.1482848 0-.2873766.05746-.3915578.161473l-1.7854265 1.782289c-.2159672.215608-.2159672.56634 0 .781944l.4533971.452641c.1221728.122101.1616087.364709.084333.519128-.00401.0086-.3988909.963-.3988909.963-.058222.172378-.2582.316028-.4312467.316028h-.4750929c-.3053764 0-.7201428.248338-.7201428.553374v2.520122c0 .304987.2484741.553034.5539793.553034h.6413699c.173066 0 .3731761.143651.4280714.307516.00323.0085.3980969.962849.3980969.962849.081271.1632.041835.405695-.080337.527898l-.4533966.452641c-.2159673.215608-.2159673.566339 0 .781943l1.7852749 1.782176c.1041851.104015.2432773.161476.3915583.161476.1484165 0 .2875088-.05746.3917088-.161476l.4533967-.45264c.1223055-.121969.3653173-.161341.5199978-.0842.00866.004.9645873.39821.9645873.39821.1725331.05812.3165537.257773.3165537.430566v.64016c0 .304988.2484745.553035.5539793.553035h2.5243176c.305361 0 .553828-.248058.553828-.553035v-.64016c0-.172778.144021-.37256.308162-.427504.0085-.0031.964437-.397303.964437-.397303.163472-.08114.406601-.04189.528804.0802l.453397.45264c.104185.104015.243277.161477.391558.161477.148285 0 .287377-.05746.391558-.161477l1.785162-1.782175c.104188-.104015.161741-.242873.161741-.390916 0-.148038-.05755-.2869-.161741-.390915l-.453398-.452632c-.122305-.122102-.161608-.36471-.08433-.519129.004-.0086.398891-.963.398891-.963.05822-.172245.258199-.316028.431284-.316028h.641219c.305497 0 .553979-.248063.553979-.553034v-2.520387c.000416-.304986-.248073-.553034-.553563-.553034zm-7.5729902 4.166183c-1.2996737 0-2.3570953-1.055569-2.3570953-2.353051 0-1.297481 1.0574592-2.353202 2.3570953-2.353202 1.2997872 0 2.3569822 1.055683 2.3569822 2.353202 0 1.297634-1.057195 2.353051-2.3569822 2.353051z" fill="#030303" opacity=".1" stroke-width="2.66669989"/>
<path d="m17.054919 36.345491h-.641219c-.173066 0-.373176-.144047-.428185-.308049-.0031-.0085-.397946-.964323-.397946-.964323-.08127-.163469-.04197-.406337.08034-.528691l.453396-.453435c.104185-.104279.161742-.243405.161742-.391709 0-.148171-.05756-.287297-.161742-.391595l-1.785236-1.78486c-.104185-.104279-.243277-.161737-.391558-.161737-.148285 0-.287377.05746-.391558.161737l-.453208.453284c-.122468.122241-.365514.161589-.520111.08433-.0087-.004-.964626-.398778-.964626-.398778-.17274-.05825-.316754-.258279-.316754-.431322v-.64137c-.000378-.305527-.248716-.553979-.55413-.553979h-2.524433c-.3054976 0-.5539793.248459-.5539793.553979v.64137c0 .173043-.1440207.373222-.308026.428147-.00853.0032-.9644361.397946-.9644361.397946-.1634724.08127-.4064886.04189-.5288056-.08034l-.4532075-.453284c-.1043168-.104279-.2434091-.161737-.3917088-.161737-.1482848 0-.2873766.05759-.3915583.161737l-1.7854255 1.785238c-.2159673.216005-.2159673.567397 0 .783304l.4533961.453435c.1221733.122233.1616087.365241.084333.520073-.00401.0086-.3988904.964587-.3988904.964587-.058222.172646-.2582.316562-.4312467.316562h-.4750929c-.3053615-.000133-.7201051.248326-.7201051.553865v2.524355c0 .305388.2484745.553866.5539793.553866h.6413703c.173065 0 .3731761.143915.428071.308049.00323.0085.3980973.964323.3980973.964323.081271.163469.041835.406488-.080338.528843l-.4533967.453435c-.2159667.215872-.2159667.567397 0 .783304l1.785275 1.785124c.104185.104279.2432768.161737.3915582.161737.1484166 0 .2875089-.05746.3917089-.161737l.4533961-.453283c.122306-.122234.3653183-.161741.5199984-.08433.00866.0039.9645877.398777.9645877.398777.1725326.05826.3165537.258169.3165537.431359v.64122c0 .30552.2484741.553979.5539789.553979h2.524317c.305362 0 .553829-.248464.553829-.553979v-.64122c0-.173178.14402-.373221.308158-.428297.0085-.0031.964436-.397946.964436-.397946.163473-.08127.406602-.04176.528806.08034l.453396.453283c.104185.10428.243277.161737.391558.161737.148284 0 .287376-.05746.391558-.161737l1.785161-1.785124c.104189-.104146.161742-.243273.161742-.391595 0-.148304-.05755-.28743-.161742-.391596l-.453396-.453434c-.122302-.122234-.161609-.365374-.08433-.519922.004-.0088.39889-.964588.39889-.964588.05822-.172778.2582-.316693.431285-.316693h.641219c.305493 0 .553979-.24846.553979-.553867v-2.524354c.000416-.30552-.248074-.55398-.553564-.55398zm-7.5729902 4.355555c-1.4099704 0-2.5569373-1.145076-2.5569373-2.552552 0-1.407628 1.1469669-2.552705 2.5569373-2.552705 1.4098202 0 2.5568242 1.145077 2.5568242 2.552705 0 1.407513-1.146967 2.552552-2.5568242 2.552552z" fill="url(#q)" stroke="#262626" stroke-linecap="round" stroke-linejoin="round"/>
<path d="m9.4838188 33.216053c-2.7902693 0-5.0605026 2.266303-5.0605026 5.051809 0 2.785658 2.2700822 5.051809 5.0605026 5.051809 2.7902702 0 5.0605032-2.266302 5.0605032-5.051809 0-2.785658-2.270082-5.051809-5.0605032-5.051809zm0 8.767431c-2.0556495 0-3.7218207-1.663298-3.7218207-3.71566 0-2.052361 1.6662088-3.715659 3.7218207-3.715659 2.0556502 0 3.7218212 1.663411 3.7218212 3.715659 0 2.052248-1.666209 3.71566-3.7218212 3.71566z" fill="url(#o)" stroke="url(#p)" stroke-width=".37782547"/>
<path d="m9.4838188 33.817507c-2.4033228 0-4.3513978 1.945013-4.3513978 4.344217 0 2.399354 1.9482261 4.344215 4.3513978 4.344215 2.4033242 0 4.3513982-1.945013 4.3513982-4.344215 0-2.399355-1.948225-4.344217-4.3513982-4.344217zm0 7.217303c-1.5894392 0-2.8776599-1.286218-2.8776599-2.87286 0-1.586794 1.2882207-2.87286 2.8776599-2.87286 1.5892882 0 2.8776612 1.286066 2.8776612 2.87286 0 1.58668-1.288334 2.87286-2.8776612 2.87286z" fill="url(#l)" stroke="url(#n)" stroke-width=".37782547"/>
<path d="m54.915255 10.220339a15.355932 12.864407 0 1 1 -30.711865 0 15.355932 12.864407 0 1 1  30.711865 0z" fill="#6d97c4" stroke="#000" stroke-linecap="round" stroke-linejoin="round" transform="matrix(.30910592 0 0 .37798799 -2.6971869 34.38825)"/>
</svg>
