<svg enable-background="new 0 0 24 24" height="24" viewBox="0 0 24 24" width="24" xmlns="http://www.w3.org/2000/svg" xmlns:xlink="http://www.w3.org/1999/xlink">
<linearGradient id="a" gradientUnits="userSpaceOnUse" x1="3.0864" x2="20.9115" y1="14.0254" y2="10.8823">
<stop offset="0" stop-color="#c8e6fa"/>
<stop offset=".2857" stop-color="#b7ddf6"/>
<stop offset=".8515" stop-color="#8ac7eb"/>
<stop offset="1" stop-color="#7dc1e8"/>
</linearGradient>
<linearGradient id="b" gradientUnits="userSpaceOnUse" x1=".9834" x2="23.6108" y1="6.6646" y2="8.6442">
<stop offset="0" stop-color="#f5f5f5"/>
<stop offset=".2503" stop-color="#e4e4e4"/>
<stop offset=".7217" stop-color="#c9c9c9"/>
<stop offset="1" stop-color="#bfbfbf"/>
</linearGradient>
<path d="m21.049 12.457c0 4.987-4.054 9.039-9.049 9.039-4.998 0-9.049-4.052-9.049-9.039 0-4.995 4.052-9.046 9.049-9.046 4.995 0 9.049 4.051 9.049 9.046z" fill="url(#a)" stroke="#4774b4" stroke-linecap="round" stroke-linejoin="round" stroke-width=".75"/>
<path d="m12 3.887c4.762 4.763 4.762 12.37 0 17.135" fill="none" stroke="#4774b4" stroke-linecap="round" stroke-linejoin="round" stroke-width=".75"/>
<path d="m12 3.887c-4.763 4.763-4.763 12.37 0 17.135" fill="none" stroke="#4774b4" stroke-linecap="round" stroke-linejoin="round" stroke-width=".75"/>
<path d="m3.427 12.457c1.905 0 15.24 0 17.146 0" fill="none" stroke="#4774b4" stroke-linecap="round" stroke-linejoin="round" stroke-width=".75"/>
<path d="m18.667 6.745c-2.675 1.918-10.309 2.067-13.335 0" fill="none" stroke="#4774b4" stroke-linecap="round" stroke-linejoin="round" stroke-width=".75"/>
<path d="m18.667 18.163c-3.447-1.867-9.708-1.995-13.335 0" fill="none" stroke="#4774b4" stroke-linecap="round" stroke-linejoin="round" stroke-width=".75"/>
<path d="m23.4 11.046c0 0-4.453 2.013-11.4 2.013-6.948 0-11.4-2.013-11.4-2.013l8.479-8.729c0 0 1.75.425 2.921.425s2.922-.425 2.922-.425z" fill="url(#b)" fill-opacity=".8" stroke="#404040" stroke-linecap="round" stroke-width=".5"/>
<path d="m12 13.059v-5.747-4.571" fill="none" stroke="#404040" stroke-linecap="round" stroke-linejoin="round" stroke-width=".5"/>
<path d="m20.41 8.064c0 0-3.283 1.375-8.41 1.375-5.126 0-8.41-1.375-8.41-1.375" fill="none" stroke="#404040" stroke-linecap="round" stroke-linejoin="round" stroke-width=".5"/>
<path d="m17.561 4.997c0 0-2.17.802-5.561.802-3.39 0-5.562-.802-5.562-.802" fill="none" stroke="#404040" stroke-linecap="round" stroke-linejoin="round" stroke-width=".5"/>
<path d="m13.266 2.632l4.81 9.903" fill="none" stroke="#404040" stroke-linecap="round" stroke-linejoin="round" stroke-width=".5"/>
<path d="m10.736 2.632l-4.813 9.903" fill="none" stroke="#404040" stroke-linecap="round" stroke-linejoin="round" stroke-width=".5"/>
</svg>
