<svg width="64" height="64" xmlns="http://www.w3.org/2000/svg"><path d="m59.4 12.6.0595 34.9-51.2-.119c-1.91 0-4.81-.399-4.81-2.14l.252-32.7z" fill="#ececec" stroke="#000"/><path d="m21.8 15.8c-.511.438-2.41.179-1.96 1.07.997.553 2.13-1.05 2.97-.398-.92.233-.287.426.27.639.944.81-1.16 2.26.411 2.6 1.1-.245 1.59-1.53 2.87-1.42.833-.419 1.54-1.28 2-2.07-.785-.448-1.87-.043-2.78-.185-1.26-.041-2.53-.0418-3.78-.23zm21.7 1.18c-1.1-.0344-2.37.597-2.95 1.12-.328-.261.0153.958-.321.185-.235-.592-.989-.816-.812.0525-.82.276-1.84-.316-2.64.298-.339.435-1.63.733-1.44.153 1.17-.278-.798-.885-1.24-.766-1.12.116-2.75.908-2.74 2.16.541.826 1.82.606 1.7-.519-.0252-.751.875-.436.763.181.891.122-.368 1.07-.707 1.2-1.26.19-2.63.425-3.43 1.47.0443.746.201 1.12-.693.988-1.43.451.347 2.31 1.02.949.522-1.07 1.98-1.49 2.57-.23.642.844.336-.654-.216-.82-.179-.74.973.304 1.01.682.241.593.717.53.891.0244.576.249.778 1.16 1.63.824 1.1.542-.355 1.81-1.13 1.12-.937-.43-2.18.739-2.71-.481-.402-1.13-1.58-.44-2.44-.425-1.42.464-2.26 1.88-2.71 3.22-.344 1.15.0129 2.57 1.04 3.25.984.482 2.07-.246 3.06.0637.92.866 1.02 2.34 1.38 3.48-.332 1.27-.0168 2.47.405 3.64.13.943 1.1 2.12 2.04 1.26 1.15-.745 1.36-2.21 2.09-3.26 1.02-1.02-.164-2.67.853-3.73.525-.682 1.95-1.63 1.3-2.44-1.33.0248-1.99-1.34-2.42-2.4-.483-.364-.834-2.16.068-.999.802.837.811 3.31 2.51 2.48.877-.283 2.02-1.4 1.19-2.28-.729.102-2 .261-1.48-.958.743.325 1.48.763 2.35.832 1.13.23 2.29.922 2.52 2.13-.0354.558.693 2.09 1.05.932.048-1.13 1.06-2.87 2.33-1.9.661.472 1.21 1.77 1.32 2.21.21-1.42 1.1 1.06 1.66-.248.812-.881-1.49-1.69-.166-2.18.379.242.367.731.738.0559.647-.591 1.79-1.27 1.02-2.29-.362-.535-.538-1.17-1.05-1.49.515-1.31 1.49.705 2.1.645-.461-.655-.51-1.79.473-2.16.624-1.3-1.37-1.59-1.63-2.33.445-.963 1.92-.358 2.55-1.01.823.315.232 2.29 1.47 1.87.128-.614-.967-1.79.308-1.64 1.02-.312-.566-1.03.479-1.04 1.23.0128-.683-.467-1.11-.469-1.65-.223-3.33-.204-4.97-.491-1.26-.222-2.49.289-3.78-.213-.964.33-1.81-.174-2.53-.653-.188.0124-.388.0222-.564-.063zm8.47 7.67.002.0176zm-37.5-7.31c-.586.909 1.6 1.51 1.95.559-.43-.196-1.38-.402-1.95-.559zm4.56.0957c-.443.847 2.11.491.893 1.53-.464.851 1.44.698.976-.196.636-.769-.905-1.44-1.6-1.32l-.137-.0065-.131-.0055zm-1.16.391c-.803.98-2.26.857-3.36.566-1.15-.223-2.33-.0804-3.5-.123-1.19-.554-2.63-.289-3.72.355-.27.072-1 .426-.377.574-.811-.193-1.67 1.47-.396 1.09.873-.311 2.12-.722 2.8.154.681 1.15-.0798 2.39-.721 3.37-.666 1.04.779 3.1.792 3.39-.145-.393-.15-1.47.253-.557.41 1.1.848 2.58 2.19 2.8 1.1-.209 2.02 1.4 2.54 1.52-.336-.516-.029-1.9-1.01-1.62.747-.576-.291-1.54-.641-.573-1.59-.0697-.823-2.53.527-2.39.69-.332 1.7-.0465 1.82.796.193-1.06.709-1.89 1.66-2.46.784-.68 1.62-1.87 2.68-1.46.553-.344.323-.509-.144-.644.302-.391-.727-.386.0297-.541.77-.058 2.13-.185 1.48-1.3-.378-.616-1.51-1.28-2.25-.911-.32.463-.9 2.17-1.56 1.39-.322-.291-1.7-.969-.684-1.56.699-.634 1.99-.524 2.44-1.39-.43.219-1.12.196-.851-.478zm-1.71 12.4c-.991.78-1.07 2.25-1.54 3.33-.101 1.5 1.2 2.4 2.1 3.3.572 1.2.103 2.56.418 3.81.101.879.485 1.7.555 2.57-.028.941 1.69 1.27 1.17.101-.49-1.03.558-2.11.934-2.59-.279-.649 1.26-.488.909-1.37.052-1.28 1.73-1.57 1.82-2.78-.0616-.859.502-1.71.613-2.38-.599-1.01-2.01-.62-2.8-1.33-.205-1.48-2.02-1.69-3.01-2.47-.503-.111-1.01.572-1.17-.199zm35.7 1.28c-1.17.188-1.68 2.79-.0804 1.91.494-.483.624-1.41.0804-1.91zm-3.84.271c.489.602.969 2.51 1.73 1.99-.154-.939-1.06-1.44-1.73-1.99zm6.96 1.27c-.0925.926 1.25 1.48 1.92 1.76.445.0712 1.65.633.914-.179-.508-.973-1.62-1.35-2.57-1.07-.147-.129-.197-.33-.258-.507zm1.6 2.38c.615 1.12-1.79 1.52-1.29.206-.748-.345-1.32.751-2.01.623-.667.896-2.05 1.11-2.43 2.18-.323.762-.043 2.43 1.09 1.84.79-.736 1.93-.422 2.64-.0557.254.475.338 1.47 1.24 1.03 1.24-.367 2.51-1.83 1.92-3.17-.327-.907-.952-1.69-1.15-2.65zm-17.5.236c-.608.616-1.81 1.92-.877 2.61.965-.312.9-1.79.877-2.61z" fill="#b3b3b3"/><path d="m7.33 43c1.91 0 3.83.439 3.83 1.76v-33.4c0-1.32-1.91-1.76-3.83-1.76-1.91 0-3.83.439-3.83 1.76v33.4c0-1.76 1.91-1.76 3.83-1.76z" fill="#ececec" stroke="#000" stroke-linecap="round" stroke-linejoin="round"/><path d="m37.2 29.5c-.16-.621-.759-1.03-.868-1.67-.176-.547-.274-1.14-.614-1.61-.43-.285-.958-.0537-1.43-.0793-.496-.085-.963.212-1.44.112-.359-.209-.919-.16-1.12-.574-.0934-.325.355-.741-.142-.922-.353-.111-.701.0844-.985.275-.586.322-1.31-.0916-1.87.302-.228.224-.371.528-.64.718-.632.518-1.29 1.14-1.43 1.98-.0654.506.188.974.267 1.46.0728.377.116.774.36 1.09.233.349.555.641.684 1.05.0912.385.537.548.833.277.359-.19.763-.349 1.18-.29.479-.118.972.0052 1.36.291.388.303.149.826.148 1.23.0986.407.482.652.666 1.02.275.436.527 1.01.258 1.51-.152.367-.442.73-.367 1.15.175.38.545.669.534 1.13.0566.47.027.956.192 1.41.0524.407.193.902.648 1.01.418.102.832-.129 1.16-.36.529-.49 1.19-.811 1.85-1.08.437-.0764.861-.243 1.29-.315.358.0051.794.238 1.09-.057.297-.411.169-.957.159-1.43-.0303-.322-.0782-.642-.103-.965" fill="none" stroke="#000" stroke-width=".6"/><g stroke-dashoffset=".5" stroke-linejoin="round"><path d="m35.4 32.5 5.65 2.59-5.96 5.25z" fill="#505050" overflow="visible" stroke="#505050" stroke-linecap="round" stroke-width=".75"/><path d="m48.1 5.17 5.65 2.59-12.7 27.3-5.65-2.59 12.7-27.3" fill="#fce94f" overflow="visible" stroke="#8b7617" stroke-linecap="round" stroke-width=".75"/><path d="m50.4 6.19-12.1 26.5" fill="none" opacity=".5" overflow="visible" stroke="#fcffff" stroke-width="2"/><path d="m52.2 7.06-12.1 26.5" fill-opacity=".588" opacity=".25" overflow="visible" stroke="#000" stroke-width="2"/><path d="m51.8 7.06-12.6 27.2" fill="#fce94f" opacity=".5" stroke="#8b7617" stroke-linecap="round" stroke-width=".75"/><path d="m36.4 38.9 4.01-3.8-1.88-.866z" fill="#969696" overflow="visible" stroke="#969696" stroke-linecap="square" stroke-width=".5"/><path d="m49.4 5.98-12.6 27.2" fill="#fce94f" opacity=".5" stroke="#8b7617" stroke-linecap="round" stroke-width=".75"/><path d="m48.7 3.26 6.09 2.8-.941 2.06-6.09-2.8z" fill="#e6e6e6" overflow="visible" stroke="#969696" stroke-linecap="round" stroke-width=".5"/><path d="m35.6 38.7.32-5.69 1.88.866z" fill="#e6e6e6" overflow="visible" stroke="#e6e6e6" stroke-linecap="square" stroke-width=".5"/></g></svg>
