<?xml version="1.0" encoding="utf-8"?>
<!-- Generator: Adobe Illustrator 15.0.2, SVG Export Plug-In . SVG Version: 6.00 Build 0)  -->
<!DOCTYPE svg PUBLIC "-//W3C//DTD SVG 1.0//EN" "http://www.w3.org/TR/2001/REC-SVG-20010904/DTD/svg10.dtd">
<svg version="1.0" id="Layer_1" xmlns="http://www.w3.org/2000/svg" xmlns:xlink="http://www.w3.org/1999/xlink" x="0px" y="0px"
	 width="19.202px" height="19.202px" viewBox="0 0 19.202 19.202" enable-background="new 0 0 19.202 19.202" xml:space="preserve">
<path opacity="0.9" fill="#F5EA90" stroke="#BD9A1D" stroke-width="0.5" stroke-linecap="round" stroke-linejoin="round" stroke-miterlimit="10" d="
	M17.167,9.438c0,1.65-1.35,3-3,3h-3.421c-0.729,0.042-0.664,0.624-1.486,1.572s-3.351,2.845-3.518,2.47s0.669-1.685,1.142-2.436
	c0.762-1.211,0.22-1.606,0.22-1.606H4.958c-1.65,0-3-1.35-3-3V5.021c0-1.65,1.35-3,3-3h9.208c1.65,0,3,1.35,3,3V9.438z"/>
<path fill="#FFFFFF" d="M9.958,3.906c0-0.27-0.45-0.39-1-0.39l-2.708-0.1c-2.146,0-2.885,1.605-2.885,2.885l0.1,1.407
	c0,0.55,0.151,1,0.457,1c0.307,0,0.458-0.45,0.458-1l0.183-1.229c0.088-0.812,0.75-1.754,1.875-1.883l2.521-0.3
	C9.508,4.296,9.958,4.176,9.958,3.906z"/>
</svg>
