<svg enable-background="new 0 0 64 64" height="64" viewBox="0 0 64 64" width="64" xmlns="http://www.w3.org/2000/svg"><path d="m11.5 58.5v-53c0-1.2185071.879495-2 2-2h25.363635l15.636363 15.199999v39.800001c0 .936644-.907868 2-1.999998 2h-39c-.972872 0-2-.973856-2-2z" fill="#fff" fill-rule="evenodd" stroke="#5b5b5c" stroke-linejoin="round"/><path d="m39.5 3.9999282v13.5000718c0 .968865.485879 1.5 1.5 1.5h13.500072z" fill="#f0f0f0" fill-rule="evenodd" stroke="#5b5b5c" stroke-linejoin="round"/><g fill="none" stroke="#969696" stroke-width="2"><path d="m17.30047 22.498622h25.117303"/><path d="m17.30047 30.099724h28.981503"/><path d="m17.30047 37.700827h19.321002"/><path d="m17.30047 45.30193h27.049403"/><path d="m17.30047 52.903032h27.049403"/></g><g enable-background="new" stroke-dashoffset=".5" stroke-linejoin="round" stroke-width=".41466" transform="matrix(1.3708735 .78539358 -.79147405 1.3603418 41.628111 2.228526)"><path d="m8.0961023 18.028419h5.9999997l-3.12491 6.990956z" fill="#505050" stroke="#505050" stroke-linecap="round" stroke-width=".310995"/><path d="m8.0961004 1.0284199 6.0000006-.000001.000001 17.0000001h-5.9999997z" fill="#de6b37" stroke="#c04317" stroke-linecap="round" stroke-width=".310995"/><path d="m10.576704 2.1008083.000001 15.7948847" fill="none" opacity=".5" stroke="#f8b008" stroke-width=".873268"/><path d="m12.686221 2.0551469-.080979 16.1486211" fill-opacity=".588235" opacity=".25" stroke="#632923" stroke-width=".895396"/><path d="m12.096101 2.0284193.000001 15.9999997" fill="#fc894f" opacity=".5" stroke="#a7481e" stroke-linecap="round" stroke-width=".310995"/><path d="m11.463292 23.228968 1.996957-4.943779-1.996957-.000001z" fill="#969696" stroke="#969696" stroke-linecap="square" stroke-width=".20733"/><path d="m9.5961007 2.0284198.0000015 15.9999982" fill="#db562d" opacity=".5" stroke="#9b3819" stroke-linecap="round" stroke-width=".310995"/><g fill="#e6e6e6" stroke-width=".20733"><path d="m7.8653316-.08727704h6.4615374v2.17913134h-6.4615374z" stroke="#969696" stroke-linecap="round"/><path d="m10.728912 23.38728-1.9969556-5.102091h1.9969556z" stroke="#e6e6e6" stroke-linecap="square"/></g></g></svg>