<?xml version="1.0" encoding="UTF-8"?>
<svg width="64" height="64" xmlns="http://www.w3.org/2000/svg" xmlns:xlink="http://www.w3.org/1999/xlink">
 <defs>
  <linearGradient id="a">
   <stop stop-color="#fff" offset="0"/>
   <stop stop-color="#fff" stop-opacity="0" offset="1"/>
  </linearGradient>
  <linearGradient id="b">
   <stop offset="0"/>
   <stop stop-opacity="0" offset="1"/>
  </linearGradient>
  <linearGradient id="c" x1="637.03" x2="638.3" y1="69.99" y2="118.3" gradientTransform="matrix(.053649 .05402 -.11803 .10804 37.515 -20.965)" gradientUnits="userSpaceOnUse" xlink:href="#a"/>
  <linearGradient id="d" x1="512.7" x2="615.59" y1="254.36" y2="254.83" gradientTransform="matrix(.043295 .041866 -.18777 .19447 38.341 -27.642)" gradientUnits="userSpaceOnUse" xlink:href="#a"/>
  <linearGradient id="e" x1="543.1" x2="419.88" y1="286.56" y2="286.56" gradientTransform="matrix(.053542 .053912 -.15022 .15126 39.253 -27.053)" gradientUnits="userSpaceOnUse" xlink:href="#b"/>
  <linearGradient id="f" x1="577.03" x2="626.1" y1="124" y2="124" gradientTransform="matrix(.041578 .041866 -.19314 .19447 39.253 -27.053)" gradientUnits="userSpaceOnUse" xlink:href="#a"/>
  <linearGradient id="g" x1="2483" x2="2375.5" y1="6145.3" y2="6037.5" gradientTransform="matrix(.53649 0 0 .5402 -3.044 -2.8523)" gradientUnits="userSpaceOnUse" xlink:href="#b"/>
  <linearGradient id="h" x1="64.586" x2="73.504" y1="53.105" y2="62.023" gradientUnits="userSpaceOnUse">
   <stop stop-color="#f36600" offset="0"/>
   <stop stop-color="#e69c2e" offset=".1798"/>
   <stop stop-color="#d66628" offset=".5056"/>
   <stop stop-color="#f36600" offset="1"/>
  </linearGradient>
  <linearGradient id="i" x1="71.991" x2="80.866" y1="115.97" y2="124.85" gradientTransform="matrix(.9027 -.086 -.086 .9027 -18.48 -14.163)" gradientUnits="userSpaceOnUse">
   <stop stop-color="#e0e0e0" offset="0"/>
   <stop stop-color="#fff" offset=".2921"/>
   <stop stop-color="#636363" offset="1"/>
  </linearGradient>
  <linearGradient id="j" x1="9.0532" x2="17.506" y1="110.16" y2="118.62" gradientUnits="userSpaceOnUse">
   <stop stop-color="#fff" offset="0"/>
   <stop stop-color="#b1b1b1" offset="1"/>
  </linearGradient>
  <linearGradient id="k" x1="41.261" x2="41.991" y1="153.61" y2="134.86" gradientTransform="matrix(.9204 -.0796 -.0796 .9204 -13.459 -13.458)" gradientUnits="userSpaceOnUse">
   <stop stop-color="#b9b9b9" offset="0"/>
   <stop stop-color="#f0f0f0" offset="1"/>
  </linearGradient>
  <linearGradient id="l">
   <stop stop-color="#f36600" offset="0"/>
   <stop stop-color="#ad5220" offset=".2697"/>
   <stop stop-color="#d66628" offset=".6573"/>
   <stop stop-color="#f36600" offset="1"/>
  </linearGradient>
  <linearGradient id="m" x1="47.877" x2="52.301" y1="-8.1499" y2="-3.7261" gradientTransform="matrix(4.4341 .69901 .69901 4.4341 208.93 201.49)" gradientUnits="userSpaceOnUse" xlink:href="#l"/>
  <linearGradient id="n" x1="1180.5" x2="1184.9" y1="-1103.5" y2="-1099" gradientTransform="matrix(2.4039 1.9688 1.9688 2.4039 -361.65 642.8)" gradientUnits="userSpaceOnUse" xlink:href="#l"/>
  <linearGradient id="o">
   <stop stop-color="#f36600" offset=".2079"/>
   <stop stop-color="#f77207" offset=".27"/>
   <stop stop-color="#fc800e" offset=".3726"/>
   <stop stop-color="#fe8813" offset=".5031"/>
   <stop stop-color="#ff8a14" offset=".7528"/>
   <stop stop-color="#f36600" offset=".9719"/>
  </linearGradient>
  <linearGradient id="p" x1="-523.89" x2="-527.37" y1="23.862" y2="20.379" gradientTransform="matrix(-3.6068 -.0077178 -.0077178 -3.6068 -1450.3 302.72)" gradientUnits="userSpaceOnUse" xlink:href="#o"/>
  <linearGradient id="q" x1="-492.05" x2="-495.4" y1="-8.2593" y2="-11.609" gradientTransform="matrix(-3.6068 -.0077178 -.0077178 -3.6068 -1450.3 302.72)" gradientUnits="userSpaceOnUse" xlink:href="#o"/>
  <linearGradient id="r">
   <stop stop-color="#f36600" offset="0"/>
   <stop stop-color="#fc3" offset=".4775"/>
   <stop stop-color="#f36600" offset=".7865"/>
  </linearGradient>
  <linearGradient id="s" x1="69.661" x2="73.695" y1="2.6816" y2="6.715" gradientTransform="matrix(3.9541 .35502 .35502 3.9541 123.71 147.09)" gradientUnits="userSpaceOnUse" xlink:href="#r"/>
  <linearGradient id="t" x1="285.9" x2="301.99" y1="296.77" y2="312.86" gradientUnits="userSpaceOnUse" xlink:href="#r"/>
  <linearGradient id="u" x1="284.71" x2="299.26" y1="333.89" y2="348.44" gradientUnits="userSpaceOnUse">
   <stop stop-color="#ccc" offset="0"/>
   <stop stop-color="#999" offset="1"/>
  </linearGradient>
  <path id="v" d="m55.8 12 0.76 0.16c8.84-2.94 28.68 8.64 24.26 18.96-1.12 1.62-0.93 4.5 0.42 6.31l-24.81 24.82c-1.39-1.39-4.48-1.36-5.9 0l-41.03 39.38c-3.74 3.59-0.8 6.64 0.78 8.25l7.36 7.36c1.61 1.6 5.86 3.76 8.88 0.56l38.72-40.81c1.35-1.42 1.36-4.47 0-5.87 0 0 0.01-0.02 0-0.02l24.91-24.9c2.63 2.37 5.1138 2.5749 7.47 1.93 4.5506-1.2454 7.0872 3.2066 9.81 6.46l-1.23 1.21c-1.82 1.84-1.65 4.94 0.39 6.98s5.15 2.21 6.97 0.39l8.14-8.13c1.82-1.84 1.65-4.94-0.4-6.97-1.84-1.85-4.51-2.09-6.37-0.77-5.58-6.26-2.65-7.2-10.01-15.35l-13.79-14.09c-9.93-9.74-22.83-9.73-35.33-5.86z"/>
 </defs>
 <g transform="matrix(.86441 0 0 .86441 4.339 4.339)">
  <use transform="matrix(.53649 0 0 .5402 -3.044 -2.8523)" width="128" height="128" opacity=".5" stroke="#000" stroke-linejoin="round" stroke-width="4" xlink:href="#v"/>
  <path d="m41.442 16.46-15.8 15.909 4.7372 4.77 15.8-15.904z" fill="#d3d7cf"/>
  <path d="m44.666 19.707-15.8 15.904 1.5129 1.5288 15.8-15.904z" fill="url(#g)" opacity=".5"/>
  <path d="m43.341 17.157-15.735 15.844 2.0333 2.0474 15.333-16.249z" fill="url(#f)"/>
  <path d="m26.892 3.6302 0.40773 0.086433c4.7426-1.5882 15.387 4.6674 13.015 10.242-0.60087 0.87513-0.49894 2.4309 0.22533 3.4087l4.7801 4.7376c1.411 1.2803 2.7415 1.3883 4.0076 1.0426 2.441-0.66445 3.7983 1.7287 5.263 3.4897l-0.65988 0.65365c-0.97641 0.99398-0.88521 2.6686 0.20923 3.7706 1.0944 1.102 2.7629 1.1939 3.7393 0.21068l4.367-4.3919c0.97641-0.99398 0.88521-2.6686-0.2146-3.7652-0.98714-0.99938-2.4196-1.129-3.4174-0.41596-2.9936-3.3817-1.4217-3.8895-5.3703-8.2921l-7.3982-7.6115c-5.3273-5.2616-12.248-5.2562-18.954-3.1656z" fill="#2e3436"/>
  <path d="m27.23 30.775c-0.74572-0.75088-2.4035-0.73468-3.1653 0l-22.012 21.273c-2.0065 1.9393-0.43992 3.587 0.41846 4.4567l3.9486 3.9759c0.86375 0.86433 3.1438 2.0312 4.764 0.30251l20.773-22.046c0.72426-0.76709 0.72963-2.4147 0-3.171 0 0 0.0054-0.01081 0-0.01081l-4.7265-4.7808z" fill="#3465a4"/>
  <path d="m2.4657 56.5 3.9486 3.9813c0.86375 0.86433 3.0741 2.1014 4.6943 0.38354l20.853-22.132c0.72426-0.77249 0.74572-2.4309 0-3.1764l-4.7372-4.7754z" fill="url(#e)" opacity=".5"/>
  <path d="m24.424 32.639-20.859 20.549c-0.86911 0.84272-0.57404 2.0258 0.053649 2.6416l2.2157 2.1446 22.731-23.553-2.103-1.988c-0.45065-0.43216-1.5022-0.30792-2.0387 0.20528z" fill="url(#d)" opacity=".5"/>
  <path d="m61.576 23.758c0.8101 0.77789 0.96568 1.8583-0.15022 2.8955l-2.0762 1.9609c-1.1159 1.0534-4.0344-1.7557-2.9239-2.8037l2.0816-1.9609c1.1105-1.0534 2.2586-0.86973 3.0687-0.09183z" fill="url(#c)"/>
 </g>
 <g transform="matrix(0 .12179 -.12171 0 71.512 -6.3133)">
  <path d="m466.84 111.96-137.66 137.66c-7.3025 7.3062-11.125 16.314-11.125 25.932 0 1.8082 0.29402 3.6531 0.56598 5.498l-11.371 11.371c-2.4256 0.22419-29.512 2.6976-29.512 2.6976-0.19478 0.0184-0.38589 0.0514-0.577 0.0992-3.9324 1.0033-6.6814 3.3885-7.5451 6.5344-0.18744 0.68726-0.27932 1.3855-0.27932 2.0875 0 2.5322 1.1908 5.1342 3.44 7.3797l58.339 58.332c2.8666 2.8703 6.3213 4.0243 9.4635 3.1606 3.1496-0.85998 5.5348-3.6127 6.5418-7.5488 0.0478-0.1911 0.0808-0.38221 0.0992-0.577 0 0 2.4734-27.079 2.6939-29.504 1.4701-1.4701 9.504-9.5076 11.371-11.371 11.658 1.7236 22.768-1.878 31.426-10.566l137.66-137.66c7.4091-7.4054 11.319-16.509 11.319-26.329 0-11.621-5.4172-23.433-15.248-33.268-18.703-18.696-43.216-20.313-59.604-3.9251z" fill="#333" opacity=".2"/>
  <path d="m523.85 118.49c-16.042-16.042-38.361-19.974-54.407-3.9324l-137.66 137.66c-8.8976 8.8976-11.492 19.666-9.3386 30.21l-13.532 13.532-30.835 2.8225c-5.4944 1.4039-6.7072 5.8361-2.6976 9.8457l58.339 58.332c4.0096 4.0096 8.4382 2.7968 9.8494-2.6976l2.8188-30.831 13.532-13.532c10.54 2.15 21.309-0.44469 30.206-9.3422l137.66-137.66c16.035-16.046 12.102-38.365-3.9361-54.403z" fill="#333" opacity=".2"/>
  <path d="m523.85 114.81c-16.042-16.042-38.361-19.974-54.407-3.9324l-137.66 137.66c-8.8976 8.8976-11.492 19.666-9.3386 30.21l-13.532 13.532-30.835 2.8225c-5.4944 1.4039-6.7072 5.8362-2.6976 9.8457l58.339 58.332c4.0096 4.0096 8.4382 2.7968 9.8494-2.6976l2.8188-30.831 13.532-13.532c10.54 2.15 21.309-0.44469 30.206-9.3422l137.66-137.66c16.035-16.046 12.102-38.365-3.9361-54.403z" fill="#333" opacity=".2"/>
  <path d="m462.8 108.65-137.66 137.66c-7.3062 7.3062-11.128 16.314-11.128 25.932 0 1.8082 0.29401 3.6531 0.56597 5.498-1.8633 1.867-9.9009 9.9009-11.371 11.371-2.4256 0.22419-29.512 2.6976-29.512 2.6976-0.19478 0.0184-0.38589 0.0514-0.577 0.0992-3.9324 1.0033-6.6814 3.3885-7.5451 6.5344-0.18743 0.68726-0.27931 1.3855-0.27931 2.0875 0 2.5322 1.1908 5.1342 3.4399 7.3797l58.339 58.332c2.8703 2.8703 6.3213 4.0243 9.4672 3.1606s5.5348-3.6127 6.5381-7.5488c0.0515-0.1911 0.0845-0.38221 0.0992-0.577 0 0 2.4771-27.079 2.6939-29.504 1.4701-1.4701 9.5076-9.504 11.375-11.367 11.654 1.7236 22.764-1.878 31.426-10.566l137.66-137.66c7.4054-7.4054 11.319-16.509 11.319-26.329 0-11.621-5.4209-23.433-15.252-33.268-18.703-18.699-43.212-20.316-59.6-3.9287z" fill="#993903" opacity=".8"/>
  <path d="m287.48 324.4s-147.32 147.32-148.8 148.79c-1.8082 0.41897-16.777 2.9953-16.777 2.9953-1.8045 0.41529-3.3738 1.4921-4.4175 3.0283l-28.758 44.146c0 0.011-1.2716 4.1272-1.2716 4.1272 0 1.9625 0.76443 3.8075 2.1536 5.1967l17.078 17.078c2.5432 2.5469 6.5271 2.8813 9.4635 0.79016l44.15-30.232c1.5325-1.0989 2.5726-2.7086 2.9401-4.5425 0 0 1.9221-14.01 2.3006-15.906 1.5509-1.5546 148.7-148.7 148.7-148.7 1.3892-1.3892 2.1536-3.2341 2.1536-5.1967 0-1.9625-0.76443-3.8075-2.1536-5.1967l-16.38-16.38c-1.3892-1.3892-3.2341-2.1536-5.1967-2.1536s-3.8038 0.76811-5.193 2.1573z" fill="#333" opacity=".2"/>
  <path d="m290.08 323.32s-148.07 148.06-149.54 149.53c-1.8229 0.42265-17.802 3.2341-17.802 3.2341-0.90041 0.20949-1.6869 0.74973-2.2088 1.5142l-28.758 44.146c-0.42632 0.62478-0.6358 1.3451-0.6358 2.0654 0 0.94819 0.36752 1.889 1.0768 2.5983l17.078 17.078c1.2679 1.2716 3.2709 1.437 4.7336 0.39324l44.15-30.232c0.76075-0.54393 1.2863-1.3561 1.4701-2.2712 0 0 2.1353-15.083 2.5212-16.998 1.5546-1.5583 149.49-149.49 149.49-149.49 0.69093-0.69093 1.0768-1.6207 1.0768-2.5983s-0.38589-1.9111-1.0768-2.5983l-16.38-16.38c-1.4407-1.4333-3.767-1.4333-5.2004 4e-3z" fill="#333" opacity=".5"/>
  <path d="m290.08 327s-148.07 148.06-149.54 149.53c-1.8229 0.42264-17.802 3.2341-17.802 3.2341-0.90041 0.20948-1.6869 0.74973-2.2088 1.5142l-28.758 44.146c-0.42632 0.62477-0.6358 1.3451-0.6358 2.0654 0 0.94819 0.36752 1.889 1.0768 2.5983l17.078 17.078c1.2679 1.2716 3.2709 1.437 4.7336 0.39324l44.15-30.232c0.76075-0.54392 1.2863-1.3561 1.4701-2.2712 0 0 2.1353-15.083 2.5212-16.998 1.5546-1.5583 149.49-149.49 149.49-149.49 0.69093-0.69093 1.0768-1.6208 1.0768-2.5983s-0.38589-1.9111-1.0768-2.5983l-16.38-16.38c-1.4407-1.4333-3.767-1.4333-5.2004 4e-3z" fill="#333" opacity=".2"/>
  <path transform="matrix(3.6752 0 0 3.6752 77.245 87.054)" d="m83.059 55.208-10.197-10.195-16.368 16.368 10.194 10.196z" fill="url(#h)"/>
  <path d="m330.04 363.28c4.0096 4.0096 8.4382 2.7968 9.8494-2.6976l2.8188-30.831-37.472-37.468-30.835 2.8225c-5.4944 1.4039-6.7072 5.8362-2.6976 9.8457z" fill="#f36600"/>
  <path d="m386.44 306.88 137.66-137.66c16.042-16.042 12.11-38.361-3.9287-54.4-16.042-16.042-38.361-19.974-54.407-3.9324l-137.66 137.65c-16.038 16.042-11.665 38.163 4.2558 54.08 15.917 15.921 38.038 20.302 54.08 4.2595z" fill="#f36600"/>
  <path transform="matrix(3.6752 0 0 3.6752 77.245 87.054)" d="m62.648 69.88-4.457-4.457-40.569 40.569 4.455 4.457z" fill="url(#i)"/>
  <path transform="matrix(3.6752 0 0 3.6752 77.245 87.054)" d="m17.728 105.89 4.457 4.456-0.745 4.922-12.013 8.225-4.647-4.647 7.825-12.012z" fill="url(#j)"/>
  <path transform="matrix(3.6752 0 0 3.6752 77.245 87.054)" d="m18.139 106.3 3.747 3.746-1.045 4.621-11.743 8.496-3.908-3.908 8.127-11.71z" fill="url(#k)"/>
  <path d="m517.68 120.84c5.8435 5.8435 4.7777 16.468-2.3742 23.617l-154.15 154.15c-7.1445 7.1482-17.773 8.214-23.613 2.3705-5.8435-5.8435-4.7777-16.468 2.3742-23.617l154.15-154.15c7.1445-7.1482 17.773-8.214 23.613-2.3705z" fill="url(#m)"/>
  <path d="m324.44 314.08c4.9762 4.9762 4.3293 13.771-1.4443 19.537-5.7663 5.77-14.557 6.4168-19.533 1.4407s-4.3293-13.767 1.4407-19.537c5.77-5.77 14.557-6.4168 19.537-1.4407z" fill="url(#n)"/>
  <path d="m361.27 312.65c-4.9027-2.5983-3.0688-10.57 4.0757-17.718l147.59-147.59c7.1482-7.1482 15.296-9.1585 18.111-4.469 2.8115 4.6858-0.73135 14.37-7.8832 21.514l-139.99 139.99c-7.1445 7.1482-17.009 10.867-21.911 8.2728z" fill="url(#p)"/>
  <path d="m322.06 351.86c-3.6862-3.8148-2.3888-10.779 2.8813-15.472 5.2738-4.6968 10.412-7.4753 11.422-6.1816 1.007 1.301 1.8339 6.1412 1.8339 10.757 0 4.616-2.1242 10.518-4.7189 13.113s-7.7362 1.5987-11.419-2.2161z" fill="url(#q)"/>
  <path d="m494.21 106.81c5.623 3.3187 4.3808 11.878-2.7674 19.026l-147.59 147.59c-7.1445 7.1482-15.884 8.5705-19.416 3.1606-3.5355-5.4098-0.58067-15.682 6.5675-22.826l139.99-139.99c7.1445-7.1445 17.597-10.276 23.22-6.9608z" fill="url(#s)"/>
  <path d="m285 314.79c4.2154 4.0684 11.172 3.892 15.458-0.39691l3.2011-3.2011c4.2889-4.2889 5.9832-9.6069 3.7744-11.816-2.2124-2.2124-7.6406-3.5539-12.062-2.9842-4.4212 0.57332-10.287 3.2819-13.036 6.0199-2.749 2.738-1.5509 8.3058 2.6645 12.378z" fill="url(#t)"/>
  <path d="m291.11 327.49 16.38 16.38-12.797 12.793s15.425-9.6326-3.5833-29.173z" fill="url(#u)"/>
 </g>
</svg>
