<svg height="64" width="64" xmlns="http://www.w3.org/2000/svg" xmlns:xlink="http://www.w3.org/1999/xlink">
<defs>
<linearGradient id="a">
<stop offset="0" stop-color="#fff"/>
<stop offset="1" stop-color="#fff" stop-opacity="0"/>
</linearGradient>
<linearGradient id="b">
<stop offset="0"/>
<stop offset="1" stop-opacity="0"/>
</linearGradient>
<linearGradient id="c" gradientTransform="matrix(.05364901 .05402047 -.11802782 .10804094 37.514626 -20.965348)" gradientUnits="userSpaceOnUse" x1="637.03003" x2="638.29999" xlink:href="#a" y1="69.989998" y2="118.3"/>
<linearGradient id="d" gradientTransform="matrix(.04329475 .04186587 -.18777153 .1944737 38.340821 -27.642279)" gradientUnits="userSpaceOnUse" x1="512.70001" x2="615.59003" xlink:href="#a" y1="254.36" y2="254.83"/>
<linearGradient id="e" gradientTransform="matrix(.05354171 .05391243 -.15021722 .15125732 39.252854 -27.053455)" gradientUnits="userSpaceOnUse" spreadMethod="pad" x1="543.09998" x2="419.88" xlink:href="#b" y1="286.56" y2="286.56"/>
<linearGradient id="f" gradientTransform="matrix(.04157798 .04186587 -.19313643 .1944737 39.252854 -27.053455)" gradientUnits="userSpaceOnUse" spreadMethod="pad" x1="577.03003" x2="626.09998" xlink:href="#a" y1="124" y2="124"/>
<linearGradient id="g" gradientTransform="matrix(.53649008 0 0 .54020471 -3.044024 -2.8522844)" gradientUnits="userSpaceOnUse" x1="2482.957" x2="2375.4978" xlink:href="#b" y1="6145.3076" y2="6037.5259"/>
<linearGradient id="h" gradientUnits="userSpaceOnUse" x1="64.586403" x2="73.503799" y1="53.105499" y2="62.0233">
<stop offset="0" stop-color="#f36600"/>
<stop offset=".1798" stop-color="#e69c2e"/>
<stop offset=".5056" stop-color="#d66628"/>
<stop offset="1" stop-color="#f36600"/>
</linearGradient>
<linearGradient id="i" gradientTransform="matrix(.9027 -.086 -.086 .9027 -18.4803 -14.1634)" gradientUnits="userSpaceOnUse" x1="71.991203" x2="80.866203" y1="115.9727" y2="124.8477">
<stop offset="0" stop-color="#e0e0e0"/>
<stop offset=".2921" stop-color="#fff"/>
<stop offset="1" stop-color="#636363"/>
</linearGradient>
<linearGradient id="j" gradientUnits="userSpaceOnUse" x1="9.0531998" x2="17.5065" y1="110.1631" y2="118.6163">
<stop offset="0" stop-color="#fff"/>
<stop offset="1" stop-color="#b1b1b1"/>
</linearGradient>
<linearGradient id="k" gradientTransform="matrix(.9204 -.0796 -.0796 .9204 -13.4588 -13.4578)" gradientUnits="userSpaceOnUse" x1="41.2607" x2="41.991199" y1="153.6055" y2="134.8568">
<stop offset="0" stop-color="#b9b9b9"/>
<stop offset="1" stop-color="#f0f0f0"/>
</linearGradient>
<linearGradient id="l">
<stop offset="0" stop-color="#f36600"/>
<stop offset=".2697" stop-color="#ad5220"/>
<stop offset=".6573" stop-color="#d66628"/>
<stop offset="1" stop-color="#f36600"/>
</linearGradient>
<linearGradient id="m" gradientTransform="matrix(4.4340751 .69901457 .69901457 4.4340751 208.93295 201.49344)" gradientUnits="userSpaceOnUse" x1="47.877399" x2="52.3013" xlink:href="#l" y1="-8.1499004" y2="-3.7261"/>
<linearGradient id="n" gradientTransform="matrix(2.4039192 1.9687808 1.9687808 2.4039192 -361.65441 642.79729)" gradientUnits="userSpaceOnUse" x1="1180.4746" x2="1184.8984" xlink:href="#l" y1="-1103.4536" y2="-1099.0298"/>
<linearGradient id="o">
<stop offset=".2079" stop-color="#f36600"/>
<stop offset=".27" stop-color="#f77207"/>
<stop offset=".3726" stop-color="#fc800e"/>
<stop offset=".5031" stop-color="#fe8813"/>
<stop offset=".7528" stop-color="#ff8a14"/>
<stop offset=".9719" stop-color="#f36600"/>
</linearGradient>
<linearGradient id="p" gradientTransform="matrix(-3.6067976 -.00771783 -.00771783 -3.6067976 -1450.3159 302.71898)" gradientUnits="userSpaceOnUse" x1="-523.88568" x2="-527.36761" xlink:href="#o" y1="23.861799" y2="20.379101"/>
<linearGradient id="q" gradientTransform="matrix(-3.6067976 -.00771783 -.00771783 -3.6067976 -1450.3159 302.71898)" gradientUnits="userSpaceOnUse" x1="-492.05319" x2="-495.40201" xlink:href="#o" y1="-8.2593002" y2="-11.609"/>
<linearGradient id="r">
<stop offset="0" stop-color="#f36600"/>
<stop offset=".4775" stop-color="#fc3"/>
<stop offset=".7865" stop-color="#f36600"/>
</linearGradient>
<linearGradient id="s" gradientTransform="matrix(3.9540998 .35502002 .35502002 3.9540998 123.7083 147.09085)" gradientUnits="userSpaceOnUse" x1="69.661102" x2="73.694504" xlink:href="#r" y1="2.6816001" y2="6.7150002"/>
<linearGradient id="t" gradientUnits="userSpaceOnUse" x1="285.89989374" x2="301.99009571" xlink:href="#r" y1="296.77331578" y2="312.86315391"/>
<linearGradient id="u" gradientUnits="userSpaceOnUse" x1="284.71024591" x2="299.25834896" y1="333.89276119" y2="348.4423343">
<stop offset="0" stop-color="#ccc"/>
<stop offset="1" stop-color="#999"/>
</linearGradient>
<path id="v" d="m55.8 12l .76.16c8.84-2.94 28.68 8.64 24.26 18.96-1.12 1.62-.93 4.5.42 6.31l-24.81 24.82c-1.39-1.39-4.48-1.36-5.9 0l-41.03 39.38c-3.74 3.59-.8 6.64.78 8.25l7.36 7.36c1.61 1.6 5.86 3.76 8.88.56l38.72-40.81c1.35-1.42 1.36-4.47 0-5.87 0 0 .01-.02 0-.02l24.91-24.9c2.63 2.37 5.113827 2.574854 7.47 1.93 4.55057-1.245432 7.08725 3.206643 9.81 6.46l-1.23 1.21c-1.82 1.84-1.65 4.94.39 6.98 2.04 2.04 5.15 2.21 6.97.39l8.14-8.13c1.82-1.84 1.65-4.94-.4-6.97-1.84-1.85-4.51-2.09-6.37-.77-5.58-6.26-2.65-7.2-10.01-15.35l-13.79-14.09c-9.93-9.74-22.83-9.73-35.33-5.86z"/>
</defs>
<g transform="matrix(.86440678 0 0 .86440678 4.3389831 4.3389831)">
<use height="128" opacity=".5" stroke="#000" stroke-linejoin="round" stroke-width="4" transform="matrix(.53649008 0 0 .54020471 -3.044024 -2.8522844)" width="128" xlink:href="#v"/>
<path d="m41.441733 16.460034l-15.799632 15.909029 4.737207 4.770007 15.799633-15.903626z" fill="#d3d7cf"/>
<path d="m44.666039 19.706664l-15.799633 15.903627 1.512902 1.528779 15.799633-15.903626z" fill="url(#g)" opacity=".5"/>
<path d="m43.340908 17.156898l-15.735254 15.844204 2.033298 2.047376 15.332886-16.249358z" fill="url(#f)"/>
<path d="m26.892122 3.6301721l.407733.086433c4.742572-1.5882021 15.386535 4.6673684 13.015249 10.2422809-.600869.875132-.498936 2.430921.225326 3.408692l4.780127 4.737595c1.410969 1.280285 2.741464 1.388326 4.007581 1.042595 2.441029-.664452 3.798349 1.728655 5.262967 3.489723l-.659883.653647c-.976411.993977-.885208 2.668612.209232 3.770629 1.094439 1.102018 2.762924 1.193853 3.739335.21068l4.36703-4.391864c.976412-.993977.885208-2.668611-.214596-3.765227-.987142-.999379-2.419571-1.129028-3.417442-.415958-2.993615-3.381681-1.421699-3.889474-5.370266-8.292142l-7.398198-7.6114843c-5.327347-5.2615939-12.248069-5.2561918-18.954195-3.1655996z" fill="#2e3436"/>
<path d="m27.230111 30.775459c-.745721-.750885-2.403475-.734679-3.165291 0l-22.0121882 21.273261c-2.00647294 1.939335-.4399219 3.58696.4184622 4.456689l3.948567 3.975907c.863749.864327 3.1438319 2.031169 4.764032.302514l20.772896-22.045754c.724261-.767091.729626-2.414715 0-3.171001 0 0 .0054-.01081 0-.01081l-4.726478-4.780811z" fill="#3465a4"/>
<path d="m2.4657291 56.500007l3.948567 3.981309c.863749.864327 3.0740882 2.101396 4.6942879.383545l20.85337-22.132187c.724261-.772493.745721-2.430921 0-3.176404l-4.737208-4.775409z" fill="url(#e)" opacity=".5"/>
<path d="m24.424268 32.639165l-20.8587342 20.549387c-.8691139.84272-.5740444 2.025768.053649 2.641601l2.215704 2.144613 22.7310852-23.552925-2.103042-1.987954c-.450651-.432164-1.502172-.307916-2.038662.205278z" fill="url(#d)" opacity=".5"/>
<path d="m61.576206 23.7582c.8101.777894.965682 1.858304-.150217 2.895497l-2.076217 1.960943c-1.115899 1.053399-4.034405-1.755665-2.923871-2.803663l2.081582-1.960943c1.110534-1.053399 2.258623-.869729 3.068723-.09183z" fill="url(#c)"/>
</g>
<g transform="matrix(0 .12179278 -.12170743 0 71.512176 -6.3132667)">
<path d="m466.84103 111.9571l-137.6603 137.65662c-7.30253 7.30621-11.1247 16.31402-11.1247 25.9319 0 1.80818.29402 3.6531.56598 5.49803-1.86698 1.86698-9.90087 9.90087-11.37093 11.37093-2.4256.22419-29.5115 2.69757-29.5115 2.69757-.19478.0184-.38589.0514-.577.0992-3.93242 1.00331-6.68143 3.38849-7.54509 6.53442-.18744.68726-.27932 1.38554-.27932 2.08749 0 2.53218 1.19075 5.13419 3.43995 7.37971l58.33942 58.33207c2.86662 2.8703 6.32126 4.02429 9.46352 3.16063 3.14961-.85998 5.53479-3.61267 6.54178-7.54877.0478-.1911.0808-.38221.0992-.577 0 0 2.47338-27.07854 2.69389-29.50414 1.47006-1.47007 9.50395-9.50763 11.37093-11.37093 11.65759 1.72364 22.76759-1.87801 31.42625-10.56608l137.6603-137.66029c7.40911-7.40544 11.31948-16.5088 11.31948-26.32882 0-11.62084-5.41718-23.43279-15.24822-33.2675-18.70287-18.695521-43.21615-20.312589-59.60367-3.92507z" fill="#333" opacity=".2"/>
<path d="m523.84636 118.48785c-16.04205-16.04205-38.36127-19.97447-54.407-3.93242l-137.66029 137.65663c-8.89756 8.89755-11.49222 19.66575-9.33857 30.20977l-13.53193 13.53193-30.83455 2.82252c-5.49436 1.40391-6.70716 5.83614-2.69757 9.84574l58.33942 58.33206c4.0096 4.0096 8.43816 2.7968 9.84942-2.69756l2.81884-30.83088 0 0 13.53193-13.53192c10.54034 2.14997 21.30855-.44469 30.2061-9.34225l137.6603-137.66029c16.0347-16.04573 12.10228-38.36495-3.9361-54.40333z" fill="#333" opacity=".2"/>
<path d="m523.84636 114.81269c-16.04205-16.042049-38.36127-19.974465-54.407-3.93241l-137.66029 137.65662c-8.89756 8.89755-11.49222 19.66576-9.33857 30.20978l-13.53193 13.53192-30.83455 2.82252c-5.49436 1.40391-6.70716 5.83615-2.69757 9.84574l58.33942 58.33207c4.0096 4.00959 8.43816 2.79679 9.84942-2.69756l2.81884-30.83088 0 0 13.53193-13.53193c10.54034 2.14997 21.30855-.44469 30.2061-9.34224l137.6603-137.6603c16.0347-16.04573 12.10228-38.36495-3.9361-54.40333z" fill="#333" opacity=".2"/>
<path d="m462.79836 108.64946l-137.6603 137.65662c-7.30621 7.30621-11.12837 16.31402-11.12837 25.9319 0 1.80818.29401 3.6531.56597 5.49803-1.8633 1.86698-9.90087 9.90087-11.37093 11.37093-2.4256.22419-29.5115 2.69757-29.5115 2.69757-.19478.0184-.38589.0514-.577.0992-3.93241 1.00331-6.68143 3.38849-7.54509 6.53442-.18743.68726-.27931 1.38554-.27931 2.08749 0 2.53218 1.19075 5.13419 3.43994 7.37971l58.33942 58.33207c2.8703 2.8703 6.32127 4.02429 9.4672 3.16063 3.14593-.86366 5.53479-3.61267 6.5381-7.54877.0515-.1911.0845-.38221.0992-.577 0 0 2.47706-27.07854 2.69389-29.50414 1.47006-1.47007 9.50763-9.50396 11.37461-11.36726 11.65392 1.72365 22.76391-1.878 31.42625-10.56607l137.6603-137.6603c7.40544-7.40544 11.31948-16.5088 11.31948-26.32881 0-11.62084-5.42086-23.43279-15.2519-33.26751-18.70286-18.699191-43.21247-20.316259-59.59999-3.92874z" fill="#993903" opacity=".8"/>
<path d="m287.48242 324.39946l0 0c0 0-147.32229 147.31861-148.79602 148.79234-1.80818.41897-16.77709 2.99526-16.77709 2.99526-1.8045.41529-3.37379 1.49211-4.41753 3.02832l-28.758095 44.14597c0 .011-1.271604 4.1272-1.271604 4.1272 0 1.96253.764432 3.80746 2.153641 5.19667l17.078448 17.07845c2.54321 2.54688 6.52708 2.88132 9.46352.79016 0 0 44.14965-30.23183 44.14965-30.23183 1.53254-1.09887 2.57261-2.70859 2.94012-4.54249 0 0 1.92211-14.0097 2.30065-15.90608 1.55091-1.55459 148.70414-148.70414 148.70414-148.70414 1.38921-1.38921 2.15364-3.23413 2.15364-5.19667 0-1.96253-.76443-3.80746-2.15364-5.19667l-16.38017-16.38017c-1.38921-1.3892-3.23414-2.15364-5.19667-2.15364-1.96253 0-3.80378.76811-5.19299 2.15732z" fill="#333" opacity=".2"/>
<path d="m290.08075 323.32264c0 0-148.06834 148.06466-149.5384 149.53472-1.82288.42265-17.80245 3.23414-17.80245 3.23414-.90041.20949-1.6869.74973-2.20877 1.51417l-28.758092 44.14596c-.426318.62478-.635802 1.34511-.635802 2.06544 0 .94819.367516 1.88903 1.076821 2.59833l17.078443 17.07845c1.26793 1.27161 3.27089 1.43699 4.7336.39324l44.14965-30.23182c.76075-.54393 1.2863-1.35614 1.47006-2.27125 0 0 2.13526-15.08284 2.52116-16.99759 1.55459-1.55827 149.49429-149.49063 149.49429-149.49063.69093-.69093 1.07682-1.62074 1.07682-2.59833l0 0c0-.97759-.38589-1.91108-1.07682-2.59834l-16.38016-16.38017c-1.44066-1.43331-3.76704-1.43331-5.20035.004z" fill="#333" opacity=".5"/>
<path d="m290.08075 326.99779c0 0-148.06834 148.06467-149.5384 149.53473-1.82288.42264-17.80245 3.23414-17.80245 3.23414-.90041.20948-1.6869.74973-2.20877 1.51416l-28.758092 44.14597c-.426318.62477-.635802 1.3451-.635802 2.06544 0 .94819.367516 1.88903 1.076821 2.59833l17.078443 17.07845c1.26793 1.2716 3.27089 1.43698 4.7336.39324l44.14965-30.23183c.76075-.54392 1.2863-1.35613 1.47006-2.27125 0 0 2.13526-15.08283 2.52116-16.99759 1.55459-1.55827 149.49429-149.49062 149.49429-149.49062.69093-.69093 1.07682-1.62075 1.07682-2.59834l0 0c0-.97759-.38589-1.91108-1.07682-2.59833l-16.38016-16.38017c-1.44066-1.43331-3.76704-1.43331-5.20035.004z" fill="#333" opacity=".2"/>
<path d="m83.059 55.208l-10.197-10.195-16.368 16.368 10.194 10.196z" fill="url(#h)" transform="matrix(3.6751555 0 0 3.6751555 77.245149 87.054246)"/>
<path d="m330.03704 363.27525c4.0096 4.0096 8.43816 2.7968 9.84942-2.69756l2.81884-30.83088-37.47188-37.46821-30.83456 2.82252c-5.49435 1.40391-6.70716 5.83615-2.69756 9.84574z" fill="#f36600"/>
<path d="m386.43965 306.87632l137.6603-137.6603c16.04205-16.04205 12.10964-38.36127-3.92874-54.39965-16.04205-16.042054-38.36127-19.97447-54.407-3.93242l-137.6603 137.65295c-16.03838 16.04205-11.66494 38.16282 4.25583 54.07991 15.9171 15.92078 38.03786 20.30156 54.07991 4.25951z" fill="#f36600"/>
<path d="m62.648 69.88l-4.457-4.457-40.569 40.569 4.455 4.457z" fill="url(#i)" transform="matrix(3.6751555 0 0 3.6751555 77.245149 87.054246)"/>
<path d="m17.728 105.886l4.457 4.456-.745 4.922-12.013 8.225-4.647-4.647 7.825-12.012z" fill="url(#j)" transform="matrix(3.6751555 0 0 3.6751555 77.245149 87.054246)"/>
<path d="m18.139 106.297l3.747 3.746-1.045 4.621-11.743 8.496-3.908-3.908 8.127-11.71z" fill="url(#k)" transform="matrix(3.6751555 0 0 3.6751555 77.245149 87.054246)"/>
<path d="m517.67945 120.83995c5.8435 5.8435 4.77771 16.46837-2.37415 23.61655l-154.14704 154.14704c-7.1445 7.14818-17.77305 8.21398-23.61288 2.37048-5.84349-5.8435-4.7777-16.46837 2.37415-23.61655l154.14705-154.14704c7.1445-7.14818 17.77305-8.21398 23.61287-2.37048z" fill="url(#m)"/>
<path d="m324.4361 314.0833c4.97616 4.97616 4.32934 13.77081-1.44433 19.53713-5.76632 5.76999-14.55729 6.41682-19.53345 1.44066-4.97616-4.97616-4.32934-13.76714 1.44066-19.53713 5.76999-5.76999 14.55729-6.41682 19.53712-1.44066z" fill="url(#n)"/>
<path d="m361.27219 312.64999c-4.90266-2.59834-3.06876-10.56975 4.07574-17.71793l147.59425-147.59056c7.14818-7.14818 15.29599-9.15849 18.11116-4.46899 2.8115 4.68582-.73135 14.36985-7.8832 21.51436l-139.98668 139.99034c-7.1445 7.14818-17.00862 10.86744-21.91127 8.27278z" fill="url(#p)"/>
<path d="m322.05828 351.8639c-3.68618-3.81481-2.38885-10.77923 2.88132-15.47241 5.27385-4.69685 10.41172-7.47526 11.42238-6.18161 1.007 1.30101 1.83391 6.14119 1.83391 10.75718 0 4.616-2.12424 10.5183-4.7189 13.11296-2.59466 2.59466-7.73621 1.59869-11.41871-2.21612z" fill="url(#q)"/>
<path d="m494.21359 106.81188c5.62298 3.31867 4.38078 11.8781-2.7674 19.02628l-147.59424 147.59057c-7.1445 7.14818-15.88402 8.57046-19.41585 3.16063-3.5355-5.40983-.58067-15.68189 6.56751-22.82639l139.99034-139.99034c7.14451-7.14451 17.59665-10.27574 23.21964-6.96075z" fill="url(#s)"/>
<path d="m284.99801 314.7926c4.2154 4.0684 11.17247 3.89199 15.45771-.39691l3.20106-3.20106c4.2889-4.28891 5.98315-9.60686 3.77438-11.81563-2.21244-2.21244-7.64065-3.55387-12.06186-2.98422-4.42121.57332-10.28676 3.28191-13.03578 6.0199-2.74901 2.73799-1.55091 8.30585 2.66449 12.37792z" fill="url(#t)"/>
<path d="m291.10612 327.49394l16.38017 16.38017-12.79689 12.79321c0 0 15.42462-9.63258-3.58328-29.17338z" fill="url(#u)"/>
</g>
</svg>
