<svg xmlns="http://www.w3.org/2000/svg" width="64" height="64"><path d="M59.5 12.5v35l-51 .001c-1.91 0-5-.254-5-2v-33z" fill="#ececec" stroke="#9a9a9a"/><path d="M7.33 43c1.91 0 3.83.439 3.83 1.76v-33.4c0-1.32-1.91-1.76-3.83-1.76-1.91 0-3.83.439-3.83 1.76v33.4C3.5 43 5.41 43 7.33 43z" fill="#ececec" stroke="#9a9a9a" stroke-linecap="round" stroke-linejoin="round"/><path d="M15.5 15.5v28h39" fill="none" stroke="#000"/><path d="M14.5 31.5l8-8 8 6 8 6 8-7 9 7" fill="none" stroke="#31588f"/><circle cx="14.5" cy="31.5" r="1.5" fill="#31588f"/><circle cx="22.5" cy="23.5" r="1.5" fill="#31588f"/><circle cx="30.5" cy="29.5" r="1.5" fill="#31588f"/><circle cx="38.5" cy="35.5" r="1.5" fill="#31588f"/><circle cx="46.5" cy="28.5" r="1.5" fill="#31588f"/><circle cx="55.5" cy="35.5" r="1.5" fill="#31588f"/></svg>
