<svg xmlns="http://www.w3.org/2000/svg" height="64" width="64"><path d="M25.36 20.645h3.883v7.181c.924-1.46 2.302-2.191 4.129-2.191 1.57 0 2.924.555 4.051 1.663.242.241.457.491.642.749 1.077 1.554 1.612 3.395 1.612 5.52 0 2.532-.731 4.574-2.197 6.13-1.165 1.201-2.532 1.803-4.103 1.803-1.832 0-3.208-.722-4.134-2.164v1.524h-3.882zm7.155 8.236c-1.224 0-2.136.656-2.747 1.969l-.333.969a7.096 7.096 0 0 0-.195 1.691c0 2.016.555 3.422 1.665 4.216.464.354.996.525 1.607.525 1.183 0 2.09-.636 2.717-1.913.369-.794.555-1.709.555-2.744 0-1.887-.518-3.254-1.552-4.105a2.715 2.715 0 0 0-1.717-.608zm-11.268 11.51v.47h-4.215a2.644 2.644 0 0 1-.445-1.499c-1.367 1.423-2.886 2.137-4.554 2.137-1.426 0-2.59-.47-3.494-1.413-.703-.757-1.055-1.783-1.055-3.077 0-2.645 1.47-4.217 4.409-4.717l1.557-.277c1.26-.202 2.028-.368 2.305-.5a.566.566 0 0 1 .139-.082c.443-.242.664-.627.664-1.164 0-1-.748-1.497-2.246-1.497-1.263 0-2.068.296-2.419.887l-.25.667-.083.5H7.817c.238-3.458 2.375-5.188 6.414-5.188 4.084 0 6.129 1.535 6.129 4.604v8.318c0 .629.24 1.184.721 1.663.055.058.112.115.166.168zm-4.687-5.543v-1.056c-.352.168-.896.325-1.635.471l-1.336.249c-1.226.258-1.937.722-2.138 1.387l-.084.667c0 .904.451 1.477 1.359 1.719.222.055.473.082.751.082 1.611 0 2.592-.769 2.943-2.301a4.98 4.98 0 0 0 .14-1.218zm39.955-3.359h-3.716c-.312-1.424-.881-2.273-1.69-2.553l-.78-.166h-.304c-1.145 0-1.946.426-2.413 1.275-.497.942-.745 2.154-.745 3.635 0 2.255.607 3.705 1.83 4.353a2.74 2.74 0 0 0 1.33.334c1.11 0 1.901-.509 2.385-1.527.147-.332.275-.72.388-1.161h3.716c-.241 2.287-1.248 3.945-3.022 4.963-1.017.572-2.18.858-3.494.858-2.924 0-4.956-1.145-6.103-3.438-.607-1.222-.913-2.68-.913-4.383 0-3.455 1.1-5.832 3.3-7.127 1.054-.609 2.311-.916 3.771-.916 2.551 0 4.392.905 5.519 2.721.353.609.61 1.283.778 2.023.066.351.127.72.163 1.109z" fill="#999" stroke="#c8c8c8" stroke-width="5" stroke-linejoin="round" opacity=".6"/><path d="M25.36 20.646h3.883v7.18c.924-1.46 2.302-2.19 4.129-2.19 1.57 0 2.924.555 4.051 1.663.242.24.457.49.642.749 1.077 1.554 1.612 3.395 1.612 5.52 0 2.532-.731 4.574-2.197 6.13-1.165 1.2-2.532 1.803-4.103 1.803-1.832 0-3.208-.722-4.134-2.164v1.523h-3.882zm7.155 8.236c-1.224 0-2.136.656-2.747 1.969l-.333.969a7.096 7.096 0 0 0-.195 1.69c0 2.017.555 3.423 1.665 4.217.464.354.996.525 1.607.525 1.183 0 2.09-.636 2.717-1.913.369-.794.555-1.71.555-2.744 0-1.887-.518-3.254-1.552-4.105a2.715 2.715 0 0 0-1.717-.608zm-11.268 11.51v.47h-4.215a2.644 2.644 0 0 1-.445-1.5c-1.367 1.423-2.886 2.137-4.554 2.137-1.426 0-2.59-.47-3.494-1.413-.703-.756-1.055-1.782-1.055-3.076 0-2.645 1.47-4.217 4.409-4.717l1.557-.277c1.26-.202 2.028-.368 2.305-.5a.566.566 0 0 1 .139-.082c.443-.242.664-.627.664-1.164 0-1-.748-1.497-2.246-1.497-1.263 0-2.068.296-2.419.887l-.25.667-.083.5H7.817c.238-3.458 2.375-5.188 6.414-5.188 4.084 0 6.129 1.535 6.129 4.604v8.318c0 .629.24 1.184.721 1.663.055.058.112.115.166.168zm-4.687-5.544v-1.055c-.352.168-.896.325-1.635.47l-1.336.25c-1.226.258-1.937.722-2.138 1.387l-.084.667c0 .904.451 1.477 1.359 1.719.222.055.473.082.751.082 1.611 0 2.592-.77 2.943-2.301a4.98 4.98 0 0 0 .14-1.218zm39.955-3.358h-3.716c-.312-1.424-.881-2.273-1.69-2.553l-.78-.167h-.304c-1.145 0-1.946.426-2.413 1.275-.497.942-.745 2.154-.745 3.635 0 2.255.607 3.705 1.83 4.353a2.74 2.74 0 0 0 1.33.334c1.11 0 1.901-.508 2.385-1.526.147-.333.275-.72.388-1.162h3.716c-.241 2.287-1.248 3.945-3.022 4.963-1.017.572-2.18.858-3.494.858-2.924 0-4.956-1.145-6.103-3.438-.607-1.222-.913-2.68-.913-4.383 0-3.455 1.1-5.832 3.3-7.127 1.054-.609 2.311-.916 3.771-.916 2.551 0 4.392.905 5.519 2.721.353.61.61 1.283.778 2.023.066.351.127.72.163 1.11z" fill="#2e3436" stroke="#2e3436"/></svg>
