<svg enable-background="new 0 0 64 64" height="64" viewBox="0 0 64 64" width="64" xmlns="http://www.w3.org/2000/svg">
<g fill="#1a1a1a" opacity=".75">
<path d="m35.229 59.171c-4.516 0-9.358-2.012-14.394-5.98-1.441-1.139-2.762-2.329-3.923-3.536-5.014-5.215-7.557-11.266-7.557-17.983 0-2.405.52-5.093 1.544-7.988l.354-1h-.051c1.18-3.071 2.663-5.69 4.426-7.82 6.961 2.311 8.636 2.582 9.287 2.582 1.362 0 3.149-.512 5.465-1.565 2.088-.947 3.694-1.428 4.773-1.428 1.131 0 2.79.481 4.932 1.431 2.359 1.051 4.146 1.562 5.461 1.562.676 0 2.386-.272 9.359-2.585 1.983 2.318 3.57 5.279 4.722 8.809l.169.518h.089c.908 2.716 1.368 5.231 1.368 7.485 0 8.311-3.885 15.57-11.546 21.577-4.996 3.929-9.866 5.921-14.478 5.921z"/>
<path d="m35.152 15.202c.705 0 2.08.237 4.625 1.365 2.459 1.095 4.345 1.628 5.768 1.628.817 0 2.557-.301 9.11-2.462 1.771 2.184 3.2 4.926 4.258 8.168l.341 1.035h.085c.772 2.442 1.163 4.704 1.163 6.735 0 8.069-3.788 15.129-11.261 20.988-4.858 3.823-9.573 5.762-14.013 5.762-4.343 0-9.03-1.958-13.929-5.818-1.415-1.118-2.71-2.285-3.848-3.469-4.875-5.07-7.347-10.945-7.347-17.462 0-2.319.505-4.923 1.501-7.738l.708-2h-.003c.996-2.368 2.193-4.443 3.574-6.194 6.534 2.156 8.241 2.457 9.029 2.457 1.471 0 3.36-.534 5.774-1.632 2.481-1.127 3.797-1.363 4.465-1.363m0-1.5c-1.197 0-2.896.503-5.083 1.495-2.187.995-3.908 1.498-5.154 1.498-.963 0-4.146-.907-9.531-2.704-2.062 2.375-3.756 5.347-5.063 8.907-.073.176-.135.355-.2.535h.072c-1.06 2.995-1.587 5.739-1.587 8.238 0 6.954 2.589 13.119 7.766 18.502 1.195 1.243 2.528 2.443 3.999 3.605 5.198 4.097 10.146 6.142 14.858 6.142 4.813 0 9.793-2.032 14.94-6.083 7.888-6.184 11.833-13.577 11.833-22.167 0-2.5-.53-5.24-1.583-8.235h-.004-.072-.004c-1.253-3.843-2.988-6.99-5.199-9.445-5.388 1.797-8.586 2.704-9.595 2.704-1.207 0-2.925-.503-5.157-1.498-2.239-.991-3.979-1.494-5.236-1.494z"/>
</g>
<path d="m29.767 51.385c-4.343 0-9.031-1.958-13.932-5.82-1.412-1.115-2.706-2.281-3.846-3.467-4.944-5.143-7.348-10.853-7.348-17.458 0-2.32.505-4.924 1.501-7.739l.708-2h0c1.003-2.381 2.198-4.45 3.573-6.194 6.531 2.156 8.239 2.457 9.03 2.457 1.473 0 3.362-.534 5.775-1.633 2.477-1.124 3.795-1.36 4.464-1.36.704 0 2.077.237 4.618 1.366 2.457 1.095 4.344 1.627 5.767 1.627.819 0 2.56-.301 9.11-2.462 1.771 2.185 3.202 4.928 4.259 8.168l.337 1.035h.088c.772 2.44 1.163 4.702 1.163 6.736 0 8.179-3.683 15.042-11.258 20.981-4.86 3.824-9.573 5.763-14.009 5.763z" fill="#eef3fe"/>
<path d="m29.691 9.669c.369 0 1.497.121 4.007 1.235 2.691 1.199 4.718 1.758 6.378 1.758.872 0 2.346-.183 8.566-2.206 1.372 1.899 2.505 4.205 3.376 6.877l.678 2.07h.054c.521 1.891.783 3.646.783 5.236 0 7.688-3.494 14.165-10.688 19.804-4.587 3.61-8.987 5.441-13.079 5.441-3.998 0-8.373-1.85-13.001-5.497-1.359-1.073-2.603-2.193-3.695-3.33-4.662-4.849-6.929-10.219-6.929-16.418 0-2.149.476-4.584 1.416-7.238l.709-2.003c.781-1.842 1.688-3.492 2.711-4.932 6.188 2.014 7.631 2.196 8.475 2.196 1.691 0 3.784-.578 6.394-1.766 2.44-1.107 3.502-1.227 3.845-1.227m0-3c-1.198 0-2.899.503-5.085 1.495-2.186.995-3.908 1.498-5.154 1.498-.964 0-4.146-.906-9.531-2.704-2.061 2.375-3.756 5.347-5.063 8.907-.072.176-.135.355-.2.535h.072c-1.06 2.995-1.587 5.739-1.587 8.239 0 6.953 2.589 13.114 7.766 18.498 1.196 1.244 2.528 2.444 3.999 3.605 5.198 4.097 10.146 6.143 14.86 6.143 4.806 0 9.787-2.032 14.934-6.084 7.887-6.184 11.832-13.572 11.832-22.162 0-2.5-.529-5.241-1.583-8.236h-.003-.073-.003c-1.253-3.843-2.989-6.99-5.2-9.445-5.387 1.797-8.585 2.704-9.595 2.704-1.206 0-2.924-.503-5.157-1.498-2.234-.992-3.975-1.495-5.229-1.495z" fill="#acc3fc"/>
</svg>
