<svg enable-background="new 0 0 64 64" height="64" viewBox="0 0 64 64" width="64" xmlns="http://www.w3.org/2000/svg">
<path d="m59.217 17.11h-.083c-1.369-4.199-3.267-7.639-5.683-10.323-5.889 1.964-9.385 2.955-10.487 2.955-1.318 0-3.195-.549-5.638-1.637-2.446-1.084-4.347-1.633-5.716-1.633-1.31 0-3.168.549-5.558 1.633-2.389 1.088-4.271 1.637-5.634 1.637-1.053 0-4.531-.99-10.417-2.955-2.254 2.597-4.105 5.845-5.535 9.735-.079.193-.147.388-.219.584h.079c-1.159 3.273-1.735 6.273-1.735 9.005 0 9.353 4.287 17.404 12.855 24.162 5.683 4.478 11.09 6.714 16.242 6.714 5.256 0 10.698-2.217 16.324-6.65 8.622-6.759 12.934-14.834 12.934-24.229.005-2.729-.577-5.728-1.729-8.998z" fill="#ed1c24"/>
<path d="m59.138 17.11h.083c1.151 3.274 1.73 6.27 1.73 9.002 0 9.391-4.312 17.47-12.933 24.23-5.627 4.429-11.069 6.648-16.326 6.648-5.151 0-10.559-2.235-16.242-6.713-8.571-6.761-12.858-14.815-12.858-24.165 0-2.732.576-5.728 1.735-9.002z" fill="#0072bc"/>
<path d="m31.61 7.971c1.137 0 2.854.506 5.105 1.503 2.669 1.189 4.713 1.767 6.248 1.767.837 0 2.742-.317 10.005-2.714 1.975 2.413 3.566 5.452 4.739 9.047l.341 1.035h.094c.869 2.72 1.309 5.24 1.309 7.502 0 8.865-4.158 16.62-12.36 23.051-5.334 4.198-10.515 6.327-15.398 6.327-4.779 0-9.931-2.15-15.313-6.391-1.546-1.22-2.965-2.498-4.217-3.802-5.355-5.569-8.07-12.025-8.07-19.186 0-2.552.555-5.414 1.649-8.505l.708-2h-.016c1.124-2.716 2.487-5.086 4.067-7.073 7.242 2.392 9.111 2.708 9.917 2.708 1.59 0 3.637-.58 6.253-1.771 2.733-1.238 4.194-1.498 4.939-1.498m0-1.5c-1.31 0-3.168.549-5.558 1.633-2.389 1.088-4.271 1.637-5.634 1.637-1.053 0-4.531-.99-10.417-2.955-2.254 2.597-4.105 5.845-5.535 9.735-.079.193-.147.388-.219.584h.079c-1.159 3.273-1.735 6.273-1.735 9.005 0 7.6 2.831 14.34 8.489 20.226 1.306 1.358 2.763 2.672 4.37 3.939 5.683 4.478 11.09 6.713 16.242 6.713 5.256 0 10.699-2.22 16.326-6.648 8.621-6.76 12.933-14.839 12.933-24.23 0-2.732-.579-5.728-1.73-9.002h-.004-.079-.004c-1.369-4.199-3.267-7.639-5.683-10.323-5.889 1.964-9.385 2.955-10.487 2.955-1.318 0-3.195-.549-5.638-1.637-2.446-1.082-4.347-1.632-5.716-1.632z" fill="#231f20"/>
</svg>
