<svg xmlns="http://www.w3.org/2000/svg" height="64" width="64"><g fill="#95b2fb" stroke="#95b2fb" stroke-width="2"><path d="M12.495 46.15c-3.353 0-6.309-1.234-8.547-3.569l-.075-.079C2.538 41.065.947 38.538.947 34.66c0-1.461.226-2.828.655-4.076a7.004 7.004 0 0 1-.308-2.589c.492-7.11 5.748-11.704 13.389-11.704 9.69 0 13.128 6.251 13.128 11.604v6.733a6.998 6.998 0 0 1 .89 3.415v.47a7 7 0 0 1-7 7h-4.216c-.293 0-.584-.019-.872-.055a12.564 12.564 0 0 1-4.118.692z"/><path d="M34.268 46.155c-1.431 0-2.784-.218-4.035-.641l-.1.001h-3.882a7 7 0 0 1-7-7l-.001-20.214a6.999 6.999 0 0 1 7-7h3.883a7.001 7.001 0 0 1 6.781 5.257c2.367.488 4.514 1.642 6.307 3.405a12.933 12.933 0 0 1 1.431 1.675l.062.09c1.889 2.737 2.847 5.932 2.847 9.496 0 4.293-1.412 8.069-4.085 10.917l-.081.086c-2.494 2.57-5.65 3.928-9.127 3.928z"/><path d="M49.516 46.153c-5.536 0-10.043-2.664-12.364-7.309-1.098-2.209-1.651-4.732-1.651-7.513 0-7.993 4.228-11.676 6.748-13.16 2.176-1.259 4.624-1.883 7.323-1.883 4.98 0 9.052 2.141 11.466 6.027l.112.187a14.241 14.241 0 0 1 1.594 4.213c.072.377.131.727.177 1.063.087.44.132.896.132 1.361 0 .743-.115 1.458-.329 2.13.274.894.371 1.843.271 2.794-.476 4.511-2.784 8.169-6.501 10.301-2.123 1.198-4.454 1.789-6.978 1.789z"/></g><g fill="#2e3436"><path d="M21.712 38.043v.47h-4.216a2.643 2.643 0 0 1-.444-1.499c-1.367 1.423-2.884 2.137-4.547 2.137-1.425 0-2.589-.47-3.494-1.413-.703-.757-1.054-1.783-1.054-3.077 0-2.645 1.469-4.217 4.409-4.717l1.553-.277c1.256-.202 2.024-.368 2.301-.5a.574.574 0 0 1 .138-.082c.444-.242.665-.627.665-1.164 0-1-.749-1.497-2.247-1.497-1.256 0-2.061.296-2.412.887l-.25.667-.083.5H8.288c.239-3.458 2.375-5.188 6.406-5.188 4.085 0 6.128 1.535 6.128 4.604v8.318c0 .629.24 1.184.722 1.663.056.058.113.114.168.168zM17.025 32.5v-1.056c-.352.168-.897.325-1.636.471l-1.332.249c-1.222.258-1.933.722-2.135 1.387l-.084.667c0 .904.452 1.477 1.359 1.719.222.055.472.082.748.082 1.607 0 2.588-.769 2.94-2.301.093-.369.14-.776.14-1.218zM26.26 18.3h3.883v7.182c.924-1.46 2.302-2.191 4.13-2.191 1.57 0 2.924.555 4.051 1.663.242.241.456.492.64.749 1.072 1.554 1.607 3.394 1.607 5.52 0 2.532-.731 4.574-2.19 6.129-1.165 1.201-2.532 1.803-4.103 1.803-1.833 0-3.208-.722-4.135-2.164v1.524h-3.882zm7.155 8.237c-1.224 0-2.136.656-2.747 1.969l-.333.968a7.11 7.11 0 0 0-.195 1.692c0 2.015.555 3.421 1.665 4.215.463.354.996.525 1.607.525 1.184 0 2.091-.636 2.718-1.913.369-.794.555-1.709.555-2.744 0-1.887-.518-3.254-1.552-4.106a2.731 2.731 0 0 0-1.718-.606zM56.042 29.142h-3.716c-.312-1.424-.881-2.272-1.69-2.553l-.78-.165h-.304c-1.145 0-1.946.425-2.413 1.275-.497.942-.745 2.154-.745 3.634 0 2.255.607 3.705 1.83 4.353a2.74 2.74 0 0 0 1.33.334c1.11 0 1.901-.509 2.385-1.527.147-.332.275-.72.388-1.161h3.716c-.241 2.287-1.248 3.945-3.022 4.963-1.017.572-2.18.858-3.494.858-2.924 0-4.956-1.145-6.103-3.438-.607-1.222-.913-2.68-.913-4.383 0-3.456 1.1-5.832 3.3-7.127 1.054-.609 2.311-.915 3.771-.915 2.551 0 4.392.905 5.519 2.72.353.609.61 1.283.778 2.024.067.351.127.719.163 1.108z"/></g></svg>
