<?xml version="1.0" encoding="utf-8"?>
<!-- Generator: Adobe Illustrator 15.0.2, SVG Export Plug-In . SVG Version: 6.00 Build 0)  -->
<!DOCTYPE svg PUBLIC "-//W3C//DTD SVG 1.0//EN" "http://www.w3.org/TR/2001/REC-SVG-20010904/DTD/svg10.dtd">
<svg version="1.0"
	 id="buffer" inkscape:version="0.47 r22583" sodipodi:docname="label.svg" inkscape:export-filename="/mnt/home1/robert/svn/graphics/trunk/toolbar-icons/24x24/label.png" inkscape:export-xdpi="90" inkscape:export-ydpi="90" xmlns:inkscape="http://www.inkscape.org/namespaces/inkscape" xmlns:sodipodi="http://sodipodi.sourceforge.net/DTD/sodipodi-0.dtd" xmlns:rdf="http://www.w3.org/1999/02/22-rdf-syntax-ns#" xmlns:svg="http://www.w3.org/2000/svg" xmlns:cc="http://creativecommons.org/ns#" xmlns:dc="http://purl.org/dc/elements/1.1/"
	 xmlns="http://www.w3.org/2000/svg" xmlns:xlink="http://www.w3.org/1999/xlink" x="0px" y="0px" width="64px" height="64px"
	 viewBox="0 0 64 64" enable-background="new 0 0 64 64" xml:space="preserve">
<g id="g3173">
	<g opacity="0.75">
		<path fill="#1A1A1A" d="M35.229,59.171c-4.516,0-9.358-2.012-14.394-5.98c-1.441-1.139-2.762-2.329-3.923-3.536
			c-5.014-5.215-7.557-11.266-7.557-17.983c0-2.405,0.52-5.093,1.544-7.988l0.354-1h-0.051c1.18-3.071,2.663-5.69,4.426-7.82
			c6.961,2.311,8.636,2.582,9.287,2.582c1.362,0,3.149-0.512,5.465-1.565c2.088-0.947,3.694-1.428,4.773-1.428
			c1.131,0,2.79,0.481,4.932,1.431c2.359,1.051,4.146,1.562,5.461,1.562c0.676,0,2.386-0.272,9.359-2.585
			c1.983,2.318,3.57,5.279,4.722,8.809l0.169,0.518h0.089c0.908,2.716,1.368,5.231,1.368,7.485c0,8.311-3.885,15.57-11.546,21.577
			C44.711,57.179,39.841,59.171,35.229,59.171z"/>
		<path fill="#1A1A1A" d="M35.152,15.202c0.705,0,2.08,0.237,4.625,1.365c2.459,1.095,4.345,1.628,5.768,1.628
			c0.817,0,2.557-0.301,9.11-2.462c1.771,2.184,3.2,4.926,4.258,8.168l0.341,1.035h0.085c0.772,2.442,1.163,4.704,1.163,6.735
			c0,8.069-3.788,15.129-11.261,20.988c-4.858,3.823-9.573,5.762-14.013,5.762c-4.343,0-9.03-1.958-13.929-5.818
			c-1.415-1.118-2.71-2.285-3.848-3.469c-4.875-5.07-7.347-10.945-7.347-17.462c0-2.319,0.505-4.923,1.501-7.738l0.708-2h-0.003
			c0.996-2.368,2.193-4.443,3.574-6.194c6.534,2.156,8.241,2.457,9.029,2.457c1.471,0,3.36-0.534,5.774-1.632
			C33.168,15.438,34.484,15.202,35.152,15.202 M35.152,13.702c-1.197,0-2.896,0.503-5.083,1.495
			c-2.187,0.995-3.908,1.498-5.154,1.498c-0.963,0-4.146-0.907-9.531-2.704c-2.062,2.375-3.756,5.347-5.063,8.907
			c-0.073,0.176-0.135,0.355-0.2,0.535h0.072c-1.06,2.995-1.587,5.739-1.587,8.238c0,6.954,2.589,13.119,7.766,18.502
			c1.195,1.243,2.528,2.443,3.999,3.605c5.198,4.097,10.146,6.142,14.858,6.142c4.813,0,9.793-2.032,14.94-6.083
			c7.888-6.184,11.833-13.577,11.833-22.167c0-2.5-0.53-5.24-1.583-8.235h-0.004h-0.072h-0.004c-1.253-3.843-2.988-6.99-5.199-9.445
			c-5.388,1.797-8.586,2.704-9.595,2.704c-1.207,0-2.925-0.503-5.157-1.498C38.149,14.205,36.409,13.702,35.152,13.702
			L35.152,13.702z"/>
	</g>
	<g>
		<path fill="#EEF3FE" d="M29.767,51.385c-4.343,0-9.031-1.958-13.932-5.82c-1.412-1.115-2.706-2.281-3.846-3.467
			c-4.944-5.143-7.348-10.853-7.348-17.458c0-2.32,0.505-4.924,1.501-7.739l0.708-2H6.85c1.003-2.381,2.198-4.45,3.573-6.194
			c6.531,2.156,8.239,2.457,9.03,2.457c1.473,0,3.362-0.534,5.775-1.633c2.477-1.124,3.795-1.36,4.464-1.36
			c0.704,0,2.077,0.237,4.618,1.366c2.457,1.095,4.344,1.627,5.767,1.627c0.819,0,2.56-0.301,9.11-2.462
			c1.771,2.185,3.202,4.928,4.259,8.168l0.337,1.035h0.088c0.772,2.44,1.163,4.702,1.163,6.736c0,8.179-3.683,15.042-11.258,20.981
			C38.916,49.446,34.203,51.385,29.767,51.385z"/>
		<path fill="#ACC3FC" d="M29.691,9.669c0.369,0,1.497,0.121,4.007,1.235c2.691,1.199,4.718,1.758,6.378,1.758
			c0.872,0,2.346-0.183,8.566-2.206c1.372,1.899,2.505,4.205,3.376,6.877l0.678,2.07h0.054c0.521,1.891,0.783,3.646,0.783,5.236
			c0,7.688-3.494,14.165-10.688,19.804c-4.587,3.61-8.987,5.441-13.079,5.441c-3.998,0-8.373-1.85-13.001-5.497
			c-1.359-1.073-2.603-2.193-3.695-3.33c-4.662-4.849-6.929-10.219-6.929-16.418c0-2.149,0.476-4.584,1.416-7.238l0.709-2.003
			c0.781-1.842,1.688-3.492,2.711-4.932c6.188,2.014,7.631,2.196,8.475,2.196c1.691,0,3.784-0.578,6.394-1.766
			C28.286,9.789,29.348,9.669,29.691,9.669 M29.691,6.669c-1.198,0-2.899,0.503-5.085,1.495c-2.186,0.995-3.908,1.498-5.154,1.498
			c-0.964,0-4.146-0.906-9.531-2.704c-2.061,2.375-3.756,5.347-5.063,8.907c-0.072,0.176-0.135,0.355-0.2,0.535h0.072
			c-1.06,2.995-1.587,5.739-1.587,8.239c0,6.953,2.589,13.114,7.766,18.498c1.196,1.244,2.528,2.444,3.999,3.605
			c5.198,4.097,10.146,6.143,14.86,6.143c4.806,0,9.787-2.032,14.934-6.084c7.887-6.184,11.832-13.572,11.832-22.162
			c0-2.5-0.529-5.241-1.583-8.236h-0.003h-0.073h-0.003c-1.253-3.843-2.989-6.99-5.2-9.445c-5.387,1.797-8.585,2.704-9.595,2.704
			c-1.206,0-2.924-0.503-5.157-1.498C32.686,7.172,30.945,6.669,29.691,6.669L29.691,6.669z"/>
	</g>
</g>
</svg>
