<svg height="64" width="64" xmlns="http://www.w3.org/2000/svg" xmlns:xlink="http://www.w3.org/1999/xlink"><linearGradient id="a" gradientUnits="userSpaceOnUse" x1="5.598" x2="50.198" xlink:href="#b" y1="14.9" y2="14.9"/><linearGradient id="b"><stop offset="0" stop-color="#7f0b0b"/><stop offset=".176" stop-color="#ea2c2c"/><stop offset="1" stop-color="#a31111"/></linearGradient><linearGradient id="c" gradientUnits="userSpaceOnUse" x1="5.598" x2="50.198" y1="25.4" y2="25.4"><stop offset="0" stop-color="#cea80b"/><stop offset=".176" stop-color="#fbe74c"/><stop offset="1" stop-color="#ddbe05"/></linearGradient><linearGradient id="d" gradientUnits="userSpaceOnUse" x1="5.598" x2="50.198" y1="36" y2="36"><stop offset="0" stop-color="#3b6290" stop-opacity=".992"/><stop offset=".176" stop-color="#6f9bcc"/><stop offset="1" stop-color="#3e6391" stop-opacity=".996"/></linearGradient><linearGradient id="e" gradientUnits="userSpaceOnUse" x1="15.6" x2="60.2" y1="30" y2="30"><stop offset="0" stop-color="#4f9b06"/><stop offset=".176" stop-color="#88e032"/><stop offset="1" stop-color="#519d07"/></linearGradient><linearGradient id="f" gradientUnits="userSpaceOnUse" x1="15.6" x2="60.2" y1="40.5" y2="40.5"><stop offset="0" stop-color="#aaa"/><stop offset=".176" stop-color="#e1e1e1"/><stop offset="1" stop-color="#ababab"/></linearGradient><linearGradient id="g" gradientUnits="userSpaceOnUse" x1="15.6" x2="60.2" xlink:href="#b" y1="51" y2="51"/><g stroke="#808080" stroke-linejoin="bevel" stroke-opacity=".599"><path d="m32.3 19.9c-8-.491-10.5-1.93-16.6-1.93-6.03 0-10.1 2.9-10.1 2.9v-10.5s4.03-2.9 10.1-2.9c6.03 0 8.56 1.44 16.6 1.93s18 .491 18 .491v10.5s-10 0-18-.491z" fill="url(#a)"/><path d="m32.3 30.5c-8-.491-10.5-1.93-16.6-1.93-6.03 0-10.1 2.9-10.1 2.9v-10.5s4.03-2.9 10.1-2.9c6.03 0 8.56 1.44 16.6 1.93s18 .491 18 .491v10.5s-10 0-18-.491z" fill="url(#c)"/><path d="m32.3 41c-8-.491-10.5-1.93-16.6-1.93-6.03 0-10.1 2.9-10.1 2.9v-10.5s4.03-2.9 10.1-2.9c6.03 0 8.56 1.44 16.6 1.93s18 .491 18 .491v10.5s-10 0-18-.491z" fill="url(#d)"/><path d="m42.3 35c-8-.491-10.5-1.93-16.6-1.93s-10.1 2.9-10.1 2.9v-10.5s4.03-2.9 10.1-2.9 8.56 1.44 16.6 1.93 18 .491 18 .491v10.5s-10 0-18-.491z" fill="url(#e)"/><path d="m42.3 45.5c-8-.491-10.5-1.93-16.6-1.93s-10.1 2.9-10.1 2.9v-10.5s4.03-2.9 10.1-2.9 8.56 1.44 16.6 1.93 18 .491 18 .491v10.5s-10 0-18-.491z" fill="url(#f)"/><path d="m42.3 56.1c-8-.491-10.5-1.93-16.6-1.93s-10.1 2.9-10.1 2.9v-10.5s4.03-2.9 10.1-2.9 8.56 1.44 16.6 1.93c8 .491 18 .491 18 .491v10.5s-10 0-18-.491z" fill="url(#g)"/></g></svg>