<svg viewBox="0 0 16 16" xmlns="http://www.w3.org/2000/svg"><g transform="translate(0 -1036.4)"><path d="m2.5 1038.4a.50005.50005 0 0 0 -.34766.8594l8.502 8.5019-1.6543 1.6719 5.5 1.4668-1.5098-5.5-1.6328 1.6504-8.498-8.4981a.50005.50005 0 0 0 -.35938-.1523z" fill="none" stroke="#fff" stroke-linecap="round" stroke-opacity=".50196" stroke-width="2"/><path d="m2.5 2a.50005.50005 0 0 0 -.34766.85938l8.502 8.502-1.6543 1.6719 5.5 1.4668-1.5098-5.5-1.6328 1.6504-8.498-8.498a.50005.50005 0 0 0 -.35938-.15234z" fill="#b3b3b3" transform="translate(0 1036.4)"/></g></svg>