<?xml version="1.0" encoding="UTF-8"?>
<svg version="1.1" viewBox="0 0 16 16" xmlns="http://www.w3.org/2000/svg" xmlns:cc="http://creativecommons.org/ns#" xmlns:dc="http://purl.org/dc/elements/1.1/" xmlns:rdf="http://www.w3.org/1999/02/22-rdf-syntax-ns#">
<metadata>
<rdf:RDF>
<cc:Work rdf:about="">
<dc:format>image/svg+xml</dc:format>
<dc:type rdf:resource="http://purl.org/dc/dcmitype/StillImage"/>
<dc:title/>
</cc:Work>
</rdf:RDF>
</metadata>
<path d="m8.4824 3.9998a0.50005 0.50005 0 0 0-0.27344 0.09375l-7 5a0.50005 0.50005 0 0 0-0.013672 0.80274l6.5 5a0.50005 0.50005 0 0 0 0.67188-0.05664l6.5-7a0.50005 0.50005 0 0 0-0.14453-0.78711l-6-3a0.50005 0.50005 0 0 0-0.24023-0.052734zm2.4746 2.2871 2.7227 1.3613-2.8711 3.0938-2.8086-1.7422-2.9082 2.6328-2.752-2.1172 3.1055-2.2187 2.5547 1.7031z" color="#000000" color-rendering="auto" dominant-baseline="auto" fill="#323232" fill-opacity=".38824" image-rendering="auto" shape-rendering="auto" solid-color="#000000" style="font-feature-settings:normal;font-variant-alternates:normal;font-variant-caps:normal;font-variant-ligatures:normal;font-variant-numeric:normal;font-variant-position:normal;isolation:auto;mix-blend-mode:normal;shape-padding:0;text-decoration-color:#000000;text-decoration-line:none;text-decoration-style:solid;text-indent:0;text-orientation:mixed;text-transform:none;white-space:normal"/>
<path d="m8.4824 1a0.50005 0.50005 0 0 0-0.27344 0.09375l-7 5a0.50005 0.50005 0 0 0-0.013672 0.80273l6.5 5a0.50005 0.50005 0 0 0 0.67188-0.05664l6.5-7a0.50005 0.50005 0 0 0-0.14453-0.78711l-6-3a0.50005 0.50005 0 0 0-0.24023-0.052734zm2.4746 2.2871 2.7227 1.3613-2.8711 3.0938-2.8086-1.7422-2.9082 2.6328-2.752-2.1172 3.1055-2.2188 2.5547 1.7031z" color="#000000" color-rendering="auto" dominant-baseline="auto" fill="none" image-rendering="auto" shape-rendering="auto" solid-color="#000000" stroke="#fff" stroke-linecap="round" stroke-linejoin="round" stroke-opacity=".50196" stroke-width="2" style="font-feature-settings:normal;font-variant-alternates:normal;font-variant-caps:normal;font-variant-ligatures:normal;font-variant-numeric:normal;font-variant-position:normal;isolation:auto;mix-blend-mode:normal;shape-padding:0;text-decoration-color:#000000;text-decoration-line:none;text-decoration-style:solid;text-indent:0;text-orientation:mixed;text-transform:none;white-space:normal"/>
<path d="m17.41 3.957-1.906 1.797-2.794-1.255 1.974-1.784 2.726 1.242m-3.275-1.493-1.988 1.782-2.843-1.276 2.059-1.77 2.772 1.264m-7.265-4.061 6.162-4.909-1.662 6.969-4.5-2.06" fill="none"/>
<path d="m17.206-4.512-5.836 4.975 1.662-6.969 4.174 1.994m-5.281 5.229 5.867-1.188 0.138 3.937-6.005-2.749m6.152 2.816-0.1-3.931 5.462-1.138-5.362 5.069m5.226-5.133-5.448 1.102-0.133-3.768 5.58 2.665" fill="none"/>
<path d="m17.485-4.38 0.087 3.763-5.902 1.217 5.815-4.98" fill="none"/>
<path d="m15.032 6.198-2.002 1.889-2.884-1.27 2.076-1.876 2.81 1.257m-3.377-1.51-2.09 1.874-2.936-1.292 2.165-1.862 2.86 1.28" fill="none"/>
<path d="m8.4824 1a0.50005 0.50005 0 0 0-0.27344 0.09375l-7 5a0.50005 0.50005 0 0 0-0.013672 0.80273l6.5 5a0.50005 0.50005 0 0 0 0.67188-0.05664l6.5-7a0.50005 0.50005 0 0 0-0.14453-0.78711l-6-3a0.50005 0.50005 0 0 0-0.24023-0.052734zm2.4746 2.2871 2.7227 1.3613-2.8711 3.0938-2.8086-1.7422-2.9082 2.6328-2.752-2.1172 3.1055-2.2188 2.5547 1.7031 2.957-2.7129z" color="#000000" color-rendering="auto" dominant-baseline="auto" image-rendering="auto" shape-rendering="auto" solid-color="#000000" style="font-feature-settings:normal;font-variant-alternates:normal;font-variant-caps:normal;font-variant-ligatures:normal;font-variant-numeric:normal;font-variant-position:normal;isolation:auto;mix-blend-mode:normal;shape-padding:0;text-decoration-color:#000000;text-decoration-line:none;text-decoration-style:solid;text-indent:0;text-orientation:mixed;text-transform:none;white-space:normal"/>
<path d="m4.2877 9 6.9818-6" fill="#f00"/>
<path d="m2.3398 6.5156 3.1055-2.2188 2.5547 1.7031-2.9082 2.6328z" fill="#c8c8c8"/>
<path d="m10.957 3.2871 2.7227 1.3613-2.8711 3.0938-2.8086-1.7422 2.957-2.7129" fill="#c8c8c8"/>
<path d="m8 6 2.8086 1.7422-2.8086 3.0921-2.9082-2.2015z" fill="#5a5a5a"/>
<path d="m5.4453 4.2969 3.1063-2.2969 2.4055 1.2871-2.957 2.7129-2.5547-1.7031" fill="#5a5a5a"/>
</svg>
