<?xml version="1.0" encoding="UTF-8"?>
<svg version="1.1" viewBox="0 0 16 16" xmlns="http://www.w3.org/2000/svg" xmlns:cc="http://creativecommons.org/ns#" xmlns:dc="http://purl.org/dc/elements/1.1/" xmlns:rdf="http://www.w3.org/1999/02/22-rdf-syntax-ns#" xmlns:xlink="http://www.w3.org/1999/xlink">
<metadata>
<rdf:RDF>
<cc:Work rdf:about="">
<dc:format>image/svg+xml</dc:format>
<dc:type rdf:resource="http://purl.org/dc/dcmitype/StillImage"/>
<dc:title/>
</cc:Work>
</rdf:RDF>
</metadata>
<g transform="translate(0 -1036.4)" shape-rendering="auto">
<path d="m1 1037.4v14h14v-14h-13zm1 1h3v3h-3zm4 0h4v3h-4zm5 0h3v3h-3zm-9 4h3v4h-3zm4 0h4v4h-4zm5 0h3v4h-3zm-9 5h3v3h-3zm4 0h4v3h-4zm5 0h3v3h-3z" color="#000000" color-rendering="auto" dominant-baseline="auto" image-rendering="auto" solid-color="#000000" stroke="#fff" stroke-linecap="square" stroke-opacity=".50196" stroke-width="2" style="font-feature-settings:normal;font-variant-alternates:normal;font-variant-caps:normal;font-variant-ligatures:normal;font-variant-numeric:normal;font-variant-position:normal;isolation:auto;mix-blend-mode:normal;shape-padding:0;text-decoration-color:#000000;text-decoration-line:none;text-decoration-style:solid;text-indent:0;text-orientation:mixed;text-transform:none;white-space:normal"/>
<path transform="translate(0 1036.4)" d="m1 1v0.5 0.5 3 1 4 1 3.5 0.5h1 12.5 0.5v-1-8-1-3.5-0.5h-0.5-12.5-1zm1 1h3v3h-3v-3zm4 0h4v3h-4v-3zm5 0h3v3h-3v-3zm-9 4h3v4h-3v-4zm4 0h4v4h-4v-4zm5 0h3v4h-3v-4zm-9 5h3v3h-3v-3zm4 0h4v3h-4v-3zm5 0h3v3h-3v-3z" color="#000000" color-rendering="auto" dominant-baseline="auto" image-rendering="auto" solid-color="#000000" style="font-feature-settings:normal;font-variant-alternates:normal;font-variant-caps:normal;font-variant-ligatures:normal;font-variant-numeric:normal;font-variant-position:normal;isolation:auto;mix-blend-mode:normal;shape-padding:0;text-decoration-color:#000000;text-decoration-line:none;text-decoration-style:solid;text-indent:0;text-orientation:mixed;text-transform:none;white-space:normal"/>
</g>
</svg>
