<svg enable-background="new 0 0 64 64" height="64" viewBox="0 0 64 64" width="64" xmlns="http://www.w3.org/2000/svg">
<circle cx="32" cy="32" fill="#6d9ccf" r="28.678" stroke="#34497d" stroke-miterlimit="10"/>
<path d="m8.773 37.198c.732-8.419 2.376-13.47 7.604-18.698 5.646-5.646 10.875-8.266 20.755-10.514 4.854-1.104-3.554-4.764-15.189-.411-6.25 2.338-12.594 8.44-14.82 17.332-2.697 10.766 1.315 16.146 1.65 12.291z" fill="#fff" opacity=".3"/>
<path d="m38.875 44.071l-.71-.708c-.647-.646-1.886-.518-2.398.248-.321.481-1.805 2.017-2.74 2.739.116-.479.338-1.211.756-2.399l3.75-10.646c.881-2.521 1.413-4.043 1.413-5.341 0-2.054-1.514-3.382-3.855-3.382-5.913 0-10.541 5.34-12.254 7.634-.022.029-.042.057-.06.082-.295.335-.412.782-.32 1.24.071.354.265.697.562.994l.532.531c.318.318.731.493 1.164.493.323 0 .807-.101 1.283-.582l.088-.103c.617-.822 1.77-2.065 2.613-2.83-.145.492-.35 1.096-.591 1.791l-2.607 7.599c-1.857 5.369-2.552 7.378-2.552 8.497 0 1.463.935 3.025 3.559 3.025 8.155 0 12.175-6.058 12.616-6.763.449-.752.363-1.503-.249-2.119z" fill="#fff" stroke="#34497d" stroke-miterlimit="10"/>
<path d="m35.563 12.381c-2.622 0-4.921 2.271-4.921 4.861 0 2.953 1.978 4.861 5.039 4.861 3.005 0 5.335-2.772 5.335-5.157.001-2.105-1.427-4.565-5.453-4.565z" fill="#fff" stroke="#34497d" stroke-miterlimit="10"/>
</svg>
