<?xml version="1.0" encoding="utf-8"?>
<!-- Generator: Adobe Illustrator 15.0.2, SVG Export Plug-In . SVG Version: 6.00 Build 0)  -->
<!DOCTYPE svg PUBLIC "-//W3C//DTD SVG 1.0//EN" "http://www.w3.org/TR/2001/REC-SVG-20010904/DTD/svg10.dtd">
<svg version="1.0" id="Layer_1" xmlns="http://www.w3.org/2000/svg" xmlns:xlink="http://www.w3.org/1999/xlink" x="0px" y="0px"
	 width="64px" height="64px" viewBox="0 0 64 64" enable-background="new 0 0 64 64" xml:space="preserve">
<circle fill="#6D9CCF" stroke="#34497D" stroke-miterlimit="10" cx="32" cy="32" r="28.678"/>
<path opacity="0.3" fill="#FFFFFF" d="M8.773,37.198c0.732-8.419,2.376-13.47,7.604-18.698c5.646-5.646,10.875-8.266,20.755-10.514
	c4.854-1.104-3.554-4.764-15.189-0.411c-6.25,2.338-12.594,8.44-14.82,17.332C4.426,35.673,8.438,41.053,8.773,37.198z"/>
<path fill="#FFFFFF" stroke="#34497D" stroke-miterlimit="10" d="M38.875,44.071l-0.71-0.708c-0.647-0.646-1.886-0.518-2.398,0.248
	c-0.321,0.481-1.805,2.017-2.74,2.739c0.116-0.479,0.338-1.211,0.756-2.399l3.75-10.646c0.881-2.521,1.413-4.043,1.413-5.341
	c0-2.054-1.514-3.382-3.855-3.382c-5.913,0-10.541,5.34-12.254,7.634c-0.022,0.029-0.042,0.057-0.06,0.082
	c-0.295,0.335-0.412,0.782-0.32,1.24c0.071,0.354,0.265,0.697,0.562,0.994l0.532,0.531c0.318,0.318,0.731,0.493,1.164,0.493
	c0.323,0,0.807-0.101,1.283-0.582l0.088-0.103c0.617-0.822,1.77-2.065,2.613-2.83c-0.145,0.492-0.35,1.096-0.591,1.791l-2.607,7.599
	c-1.857,5.369-2.552,7.378-2.552,8.497c0,1.463,0.935,3.025,3.559,3.025c8.155,0,12.175-6.058,12.616-6.763
	C39.573,45.438,39.487,44.687,38.875,44.071z"/>
<path fill="#FFFFFF" stroke="#34497D" stroke-miterlimit="10" d="M35.563,12.381c-2.622,0-4.921,2.271-4.921,4.861
	c0,2.953,1.978,4.861,5.039,4.861c3.005,0,5.335-2.772,5.335-5.157C41.017,14.841,39.589,12.381,35.563,12.381z"/>
</svg>
