<svg width="64" height="64" xmlns="http://www.w3.org/2000/svg" xmlns:xlink="http://www.w3.org/1999/xlink"><defs><g id="k"><rect x="3" y="24" width="21" height="20.5" ry="2.65" fill="#d3d7cf" stroke="#000" stroke-linejoin="bevel" stroke-opacity=".599" style="paint-order:stroke markers fill"/><rect x="5" y="26" width="17" height="14" ry="1" fill="#6885ae" stroke="#000" stroke-linejoin="round" stroke-opacity=".599" style="paint-order:stroke markers fill"/><rect x="3" y="45" width="21" height="4" ry=".539" fill="#d3d7cf" stroke="#000" stroke-linejoin="round" stroke-opacity=".599" style="paint-order:stroke markers fill"/><path d="m22 29.9v9.09c0 .554-.446 1-1 1h-15c-.554 0-1-.446-1-1v-3.66c7 .172 13.1-.647 17-5.43z" fill="#204a87" style="paint-order:stroke markers fill"/><rect x="15" y="46" width="8" height="2" ry="0" fill="#a4a9a1" style="paint-order:stroke markers fill"/></g></defs><rect x="23" y="41" width="18" height="2" ry="0" fill="#fff" stroke="#808080" stroke-linejoin="round" style="paint-order:stroke markers fill"/><rect x="34.4" y="30" width="2.24" height="10.5" fill="#fff" stroke="#808080" stroke-linejoin="round" style="paint-order:stroke markers fill"/><circle cx="35.5" cy="41.8" r="1.72" fill="#fff" stroke="#808080" stroke-linejoin="round" style="paint-order:stroke markers fill"/><use xlink:href="#k" x="0" y="0"/><use xlink:href="#k" x="25" y="-17"/><use xlink:href="#k" x="37" y="12"/></svg>
