<svg width="64" height="64" xmlns="http://www.w3.org/2000/svg"><path d="m59.5 12.5-.00085 35-51 .00118c-1.91 0-5-.254-5-2v-33z" fill="#ececec" stroke="#000"/><path d="m21.8 15.8c-.411.353-1.7.263-1.96.676h1.89c.388-.168.759-.256 1.08-.00391-.00529.00134-.00458.00257-.00977.00391h5.39c.0543-.0849.117-.17.166-.254-.785-.448-1.87-.0435-2.78-.186-1.26-.041-2.53-.0423-3.78-.23v-.00586zm-12.2 2.17c-.808-.00102-1.63.254-2.31.656-.27.072-1 .426-.377.574-.811-.193-1.67 1.47-.395 1.09.873-.311 2.12-.722 2.8.154.681 1.15-.0795 2.39-.721 3.37-.666 1.04.78 3.1.793 3.39-.145-.393-.151-1.47.252-.557.33.886.688 2.01 1.51 2.53v-10.9c-.0475-.00116-.0951.00173-.143 0-.446-.208-.927-.302-1.41-.303zm44.6.297v1.44c.0163-.0144.0374-.0213.0527-.0371.823.315.233 2.29 1.47 1.87.128-.614-.966-1.79.309-1.64 1.02-.312-.566-1.03.479-1.04 1.23.0128-.682-.469-1.11-.471-.399-.0539-.8-.0916-1.2-.125zm.828 14.8c-.0925.926 1.25 1.48 1.92 1.76.445.0712 1.65.632.914-.18-.508-.973-1.62-1.35-2.57-1.07-.147-.129-.197-.331-.258-.508l-.00586-.00391zm1.6 2.38c.0178.0325.0262.0625.0391.0938-.00734-.0309-.0228-.0585-.0293-.0898l-.00977-.00391zm.0391.0938c.0125.0528.032.102.0469.154-.00882-.0491-.0251-.102-.0469-.154zm.0469.154c.166.924-1.84 1.17-1.38-.041-.748-.345-1.32.751-2.01.623-.667.896-2.05 1.11-2.43 2.18-.323.762-.0432 2.43 1.09 1.84.79-.736 1.93-.421 2.64-.0547.254.475.338 1.47 1.24 1.03 1.24-.367 2.51-1.83 1.92-3.17-.298-.827-.83-1.56-1.07-2.41zm-39.1 6.8c.06.251.112.505.133.762-.028.941 1.69 1.27 1.17.0996-.137-.289-.145-.579-.0898-.861h-1.21z" fill="#b3b3b3"/><path d="m7.33 43c1.91 0 3.83.439 3.83 1.76v-33.4c0-1.32-1.91-1.76-3.83-1.76-1.91 0-3.83.439-3.83 1.76v33.4c0-1.76 1.91-1.76 3.83-1.76z" fill="#ececec" stroke="#000" stroke-linecap="round" stroke-linejoin="round"/><path d="m11.1 37.5s2.45-1 4-2 2-3 2-3 0-2.69 1-3.34 3-.656 3-.656 1.31 0 2.34 2 2.09 3.53 2.66 6 .625 6 .625 6h-15.6z" fill="#729fcf"/><path d="m22.1 16.5s-1.47.75-2 2.38 0 3.03 0 3.03.5 1.59 2.5 1.59 2.97-.75 4.5-.375 3 1.38 4 2.38 1.94 2 4.47 2 3.53-.562 5.03-2 1.03-3.56 1.5-5 2.41-2 2.41-2 1.59 0 2.09-1 .188-1 .188-1z" fill="#729fcf"/><path d="m47.1 32s-.428-3.11 1.29-4.8c1.71-1.69 5.71-1.41 5.71-1.41v6.26z" fill="#729fcf"/><path d="m11.1 16.5 43.4-.000257v15.5l-11.9 10.5h-31.5z" fill="none" stroke="#000"/><path d="m42.6 42.5v-10.4h11.5z" fill="#808080" stroke="#000" stroke-linejoin="round" stroke-width="1px"/></svg>
