<svg xmlns="http://www.w3.org/2000/svg" width="64" height="64"><path d="M59.5 12.5v35l-51 .001c-1.91 0-5-.254-5-2v-33z" fill="#ececec" stroke="#9a9a9a"/><path d="M21.8 15.8c-.411.353-1.7.263-1.96.676h1.89c.388-.168.759-.256 1.08-.004l-.01.004h5.39c.055-.085.117-.17.166-.254-.785-.448-1.87-.044-2.78-.186-1.26-.041-2.53-.042-3.78-.23V15.8zM9.6 17.97c-.808-.001-1.63.254-2.31.656-.27.072-1 .426-.377.574-.811-.193-1.67 1.47-.395 1.09.873-.311 2.12-.722 2.8.154.681 1.15-.08 2.39-.721 3.37-.666 1.04.78 3.1.793 3.39-.145-.393-.151-1.47.252-.557.33.886.688 2.01 1.51 2.53v-10.9c-.047-.001-.095.002-.143 0a3.338 3.338 0 0 0-1.41-.303zm44.6.297v1.44c.016-.014.037-.021.053-.037.823.315.233 2.29 1.47 1.87.128-.614-.966-1.79.309-1.64 1.02-.312-.566-1.03.479-1.04 1.23.013-.682-.47-1.11-.471a23.68 23.68 0 0 0-1.2-.125zm.828 14.8c-.092.926 1.25 1.48 1.92 1.76.445.071 1.65.632.914-.18-.508-.973-1.62-1.35-2.57-1.07-.147-.129-.197-.331-.258-.508l-.006-.004zm1.6 2.38c.018.033.026.063.04.094-.008-.031-.024-.059-.03-.09l-.01-.004zm.04.094c.012.053.031.102.046.154a.748.748 0 0 0-.047-.154zm.046.154c.166.924-1.84 1.17-1.38-.041-.748-.345-1.32.75-2.01.623-.667.896-2.05 1.11-2.43 2.18-.323.762-.043 2.43 1.09 1.84.79-.736 1.93-.421 2.64-.055.254.475.338 1.47 1.24 1.03 1.24-.367 2.51-1.83 1.92-3.17-.298-.827-.83-1.56-1.07-2.41zm-39.1 6.8c.06.25.112.505.133.762-.028.94 1.69 1.27 1.17.1a1.347 1.347 0 0 1-.09-.862h-1.21z" fill="#b3b3b3"/><path d="M7.33 43c1.91 0 3.83.439 3.83 1.76v-33.4c0-1.32-1.91-1.76-3.83-1.76-1.91 0-3.83.439-3.83 1.76v33.4C3.5 43 5.41 43 7.33 43z" fill="#ececec" stroke="#9a9a9a" stroke-linecap="round" stroke-linejoin="round"/><path d="M11.1 37.5s2.45-1 4-2 2-3 2-3 0-2.69 1-3.34 3-.656 3-.656 1.31 0 2.34 2 2.09 3.53 2.66 6 .625 6 .625 6h-15.6zM22.1 16.5s-1.47.75-2 2.38 0 3.03 0 3.03.5 1.59 2.5 1.59 2.97-.75 4.5-.375 3 1.38 4 2.38 1.94 2 4.47 2 3.53-.562 5.03-2 1.03-3.56 1.5-5 2.41-2 2.41-2 1.59 0 2.09-1 .188-1 .188-1zM47.1 32s-.428-3.11 1.29-4.8c1.71-1.69 5.71-1.41 5.71-1.41v6.26z" fill="#729fcf"/><path d="M11.1 16.5h43.4V32L42.6 42.5H11.1z" fill="none" stroke="#000"/><path d="M42.6 42.5V32.1h11.5z" fill="gray" stroke="#000" stroke-linejoin="round"/></svg>
