<?xml version="1.0" encoding="UTF-8"?>
<svg width="24" height="24" xmlns="http://www.w3.org/2000/svg">
 <g transform="translate(0 -8)" stroke-linecap="round" stroke-linejoin="round" stroke-width=".75">
  <g transform="translate(-4)" fill="#73d216">
   <path transform="translate(0 8)" d="m11.5 1c-1.3807 0-2.5 1.1193-2.5 2.5 0 0.35978 0.36318 0.6909 0.5 1h-5v5c0.3091-0.13682 0.64022-0.5 1-0.5 1.3807 0 2.5 1.1193 2.5 2.5s-1.1193 2.5-2.5 2.5c-0.35978 0-0.6909-0.36318-1-0.5v5h14v-5c0.3091 0.13682 0.64022 0.5 1 0.5 1.3807 0 2.5-1.1193 2.5-2.5s-1.1193-2.5-2.5-2.5c-0.35978 0-0.6909 0.36318-1 0.5v-5h-5c0.13682-0.3091 0.5-0.64022 0.5-1 0-1.3807-1.1193-2.5-2.5-2.5z" overflow="visible" stroke="#4e9a06"/>
   <path d="m5.5 15.5v-2h3" overflow="visible" stroke="#eeeeec"/>
   <path transform="translate(0 8)" d="m5.5 17.5v-2" overflow="visible" stroke="#eeeeec"/>
   <path transform="translate(0 8)" d="m13.5 5.5h3" overflow="visible" stroke="#eeeeec"/>
  </g>
  <g transform="matrix(-.70711 .70711 -.70711 -.70711 35.42 27.257)">
   <path transform="matrix(0 -1 1 0 -12 36)" d="m14.5 22.5h-2" fill="#e9b96e" overflow="visible" stroke="#eeeeec"/>
   <path transform="translate(0 8)" d="m11.5 1c-1.3807 0-2.5 1.1193-2.5 2.5 0 0.35978 0.36318 0.6909 0.5 1h-5v5c0.3091-0.13682 0.64022-0.5 1-0.5 1.3807 0 2.5 1.1193 2.5 2.5s-1.1193 2.5-2.5 2.5c-0.35978 0-0.6909-0.36318-1-0.5v5h14v-5c0.3091 0.13682 0.64022 0.5 1 0.5 1.3807 0 2.5-1.1193 2.5-2.5s-1.1193-2.5-2.5-2.5c-0.35978 0-0.6909 0.36318-1 0.5v-5h-5c0.13682-0.3091 0.5-0.64022 0.5-1 0-1.3807-1.1193-2.5-2.5-2.5z" fill="#729fcf" overflow="visible" stroke="#3465a4"/>
   <path d="m5.5 23.5v2h12" fill="none" overflow="visible" stroke="#eeeeec"/>
   <path d="m5.5 15.5v-2" fill="#ef2929" overflow="visible" stroke="#eeeeec"/>
  </g>
 </g>
</svg>
