<svg height="24" width="24" xmlns="http://www.w3.org/2000/svg">
<g stroke-linecap="round" stroke-linejoin="round" stroke-width=".75" transform="translate(0 -8)">
<path d="m17.5 15.5c3-3 5 0 5 3 0-2 0-5 0-5 0-2-3-2-5-1 0 1 0 2 0 3z" fill="#c4a000" stroke="#555753"/>
<g fill="#73d216" transform="translate(-3 2)">
<path d="m11.5 1c-1.380712 0-2.5 1.1192881-2.5 2.5 0 .3597817.363178.6908983.5 1l-5 0 0 5c .3091017-.1368217.6402183-.5 1-.5 1.3807119 0 2.5 1.119288 2.5 2.5 0 1.380712-1.1192881 2.5-2.5 2.5-.3597817 0-.6908983-.363178-1-.5l0 5 14 0 0-5c .309102.136822.640218.5 1 .5 1.380712 0 2.5-1.119288 2.5-2.5 0-1.380712-1.119288-2.5-2.5-2.5-.359782 0-.690898.363178-1 .5l0-5-5 0c .136822-.3091017.5-.6402183.5-1 0-1.3807119-1.119288-2.5-2.5-2.5z" overflow="visible" stroke="#4e9a06" transform="translate(0 8)"/>
<path d="m5.5 15.5l0-2 3 0" overflow="visible" stroke="#eeeeec"/>
<path d="m5.5 17.5l0-2" overflow="visible" stroke="#eeeeec" transform="translate(0 8)"/>
<path d="m13.5 5.5l3 0 0 0 0 0" overflow="visible" stroke="#eeeeec" transform="translate(0 8)"/>
</g>
<path d="m22.5 19.5c-.909775 4.525589-4.50838 5.134078-9 5v3l-7-6 7-6v3c3.716163.06404 8.055017.517478 9-4 0 3 0 4 0 5z" fill="#fce94f" stroke="#555753"/>
</g>
</svg>
