<?xml version="1.0" encoding="UTF-8"?>
<svg width="24" height="24" xmlns="http://www.w3.org/2000/svg">
 <radialGradient id="a" cx="8.8063" cy="-5.7736" r="5.3221" gradientTransform="matrix(.32444 .41881 -.53557 .41489 1.2547 -5.1894)" gradientUnits="userSpaceOnUse">
  <stop stop-color="#fef3f3" offset="0"/>
  <stop stop-color="#f68888" stop-opacity=".99608" offset="1"/>
 </radialGradient>
 <linearGradient id="b" x1="7.5562" x2="10.054" y1="-7.9025" y2="-6.1047" gradientUnits="userSpaceOnUse">
  <stop stop-color="#ff8f8f" offset="0"/>
  <stop stop-color="#a40000" offset="1"/>
 </linearGradient>
 <g transform="translate(0 -8)" stroke-linecap="round" stroke-linejoin="round" stroke-width=".75">
  <g transform="translate(-3 2)" fill="#edd400">
   <path d="m11.5 11c-1.3807 0-2.5 1.1193-2.5 2.5 0 0.35978 0.36318 0.6909 0.5 1h-5v5c0.3091-0.13682 0.64022-0.5 1-0.5 1.3807 0 2.5 1.1193 2.5 2.5s-1.1193 2.5-2.5 2.5c-0.35978 0-0.6909-0.36318-1-0.5v5h14v-5c0.3091 0.13682 0.64022 0.5 1 0.5 1.3807 0 2.5-1.1193 2.5-2.5s-1.1193-2.5-2.5-2.5c-0.35978 0-0.6909 0.36318-1 0.5v-5h-5c0.13682-0.3091 0.5-0.64022 0.5-1 0-1.3807-1.1193-2.5-2.5-2.5z" overflow="visible" stroke="#c4a000"/>
   <path d="m5.5 17.5v-2h3" overflow="visible" stroke="#eeeeec"/>
   <path d="m5.5 27.5v-2" overflow="visible" stroke="#eeeeec"/>
   <path d="m13.5 15.5h3" overflow="visible" stroke="#eeeeec"/>
  </g>
  <path transform="translate(8 17)" d="m9.8938 2.7017-2.3587-2.6879-3.5514 0.41923 1.8275-3.0739-1.4962-3.2481 3.4882 0.78816 2.6268-2.4266 0.32832 3.561 3.1196 1.7483-3.2853 1.4127-0.69875 3.5072z" fill="url(#a)" overflow="visible" stroke="url(#b)"/>
 </g>
</svg>
