<svg height="24" width="24" xmlns="http://www.w3.org/2000/svg">
<g stroke-linecap="round" stroke-linejoin="round" stroke-width=".75" transform="translate(0 -8)">
<path d="m .5 20.5l23 0 0-14-23 0 0 14z" fill="#d3d7cf" overflow="visible" stroke="#d3d7cf" transform="translate(0 8)"/>
<path d="m .5 20.5l23 0" fill="#fcaf3e" overflow="visible" stroke="#888a85" transform="translate(0 8)"/>
<path d="m4.5 6.5l0-6 14 0 0 6-14 0z" fill="#d3d7cf" overflow="visible" stroke="#d3d7cf" transform="translate(0 8)"/>
<path d="m .5 6.5l23 0" fill="#fcaf3e" overflow="visible" stroke="#888a85" transform="translate(0 8)"/>
<path d="m4.5251397 6.4357542l-.0251397-5.9357542" fill="#d3d7cf" overflow="visible" stroke="#888a85" transform="translate(0 8)"/>
<path d="m18.51257 14.467877l-.02514-5.9357541" fill="#d3d7cf" overflow="visible" stroke="#888a85"/>
<g fill="#73d216" transform="translate(0 2)">
<path d="m11.5 1c-1.380712 0-2.5 1.1192881-2.5 2.5 0 .3597817.363178.6908983.5 1l-5 0 0 5c .3091017-.1368217.6402183-.5 1-.5 1.3807119 0 2.5 1.119288 2.5 2.5 0 1.380712-1.1192881 2.5-2.5 2.5-.3597817 0-.6908983-.363178-1-.5l0 5 14 0 0-5c .309102.136822.640218.5 1 .5 1.380712 0 2.5-1.119288 2.5-2.5 0-1.380712-1.119288-2.5-2.5-2.5-.359782 0-.690898.363178-1 .5l0-5-5 0c .136822-.3091017.5-.6402183.5-1 0-1.3807119-1.119288-2.5-2.5-2.5z" overflow="visible" stroke="#4e9a06" transform="translate(0 8)"/>
<path d="m5.5 15.5l0-2 3 0" overflow="visible" stroke="#eeeeec"/>
<path d="m5.5 17.5l0-2" overflow="visible" stroke="#eeeeec" transform="translate(0 8)"/>
<path d="m13.5 5.5l3 0 0 0 0 0" overflow="visible" stroke="#eeeeec" transform="translate(0 8)"/>
</g>
</g>
</svg>
