<svg width="64" height="64" xmlns="http://www.w3.org/2000/svg"><path d="m10.5 24.5-7 28h57l-7-28z" fill="#ececec" stroke="#000" stroke-linejoin="round" stroke-width="1px"/><path d="m46.7 28.4 1.39 5.17c.418.0955.927.912 1.29.876-.381-.542-.422-1.48.391-1.79.516-1.07-1.13-1.31-1.35-1.93.368-.796 1.59-.295 2.11-.834.681.26.192 1.89 1.22 1.55.106-.508-.8-1.48.254-1.36.843-.258-.468-.851.396-.86 1.02.0106-.564-.386-.917-.387-1.36-.184-2.75-.168-4.11-.406-.223-.0392-.442-.0428-.663-.0408zm-33.1.0963c-.668-.000839-1.34.21-1.91.543-.223.0595-.826.352-.311.474-.671-.16-1.38 1.22-.328.902.722-.257 1.75-.597 2.32.128.563.951-.0664 1.98-.597 2.79-.551.86.643 2.56.654 2.8-.12-.325-.124-1.22.209-.461.339.91.702 2.13 1.81 2.32.91-.173 1.67 1.16 2.1 1.26-.278-.427-.0225-1.57-.834-1.34.618-.476-.242-1.27-.532-.472-.842-.0368-.88-.882-.508-1.46h-.713l1.98-7.22c-.719-.0456-1.45.0134-2.17-.013-.369-.172-.766-.25-1.17-.25zm35 5.52.002.0148zm-.163 1.14.18.671c.0393-.203.000833-.424-.18-.671zm-30.4.81c.0143.0452.0336.0871.0408.137.0089-.0484.0266-.0899.0371-.137zm10.4 0c-.21.361-.393.738-.521 1.12-.284.951.0103 2.13.86 2.69.814.399 1.71-.204 2.53.0519.761.716.842 1.93 1.14 2.88-.275 1.05-.0134 2.04.335 3.01.107.78.911 1.75 1.69 1.04.951-.616 1.12-1.83 1.73-2.7.843-.843-.137-2.21.704-3.08.434-.564 1.61-1.35 1.07-2.02-1.1.0205-1.65-1.11-2-1.98-.233-.176-.422-.745-.396-1.01zm7.43 0c.0507.0493.1.0941.167.18.663.692.67 2.74 2.07 2.05.725-.234 1.67-1.16.984-1.89-.489.0684-1.26.158-1.31-.345zm3 0c.299.118.607.214.941.241.934.19 1.89.763 2.08 1.76-.0293.461.574 1.73.869.771.0397-.934.877-2.37 1.93-1.57.547.39 1 1.46 1.09 1.83.174-1.17.91.878 1.37-.204.671-.729-1.23-1.4-.137-1.8.313.2.303.605.61.0463.338-.309.838-.649 1-1.07zm-19.8 2.66c-.819.645-.886 1.86-1.27 2.75-.0835 1.24.994 1.98 1.74 2.73.473.992.0841 2.12.345 3.15.0835.727.402 1.41.459 2.13-.0232.778 1.4 1.05.967.0834-.405-.852.462-1.74.773-2.14-.231-.537 1.04-.403.752-1.13.043-1.06 1.43-1.3 1.5-2.3-.0509-.71.416-1.41.508-1.97-.495-.835-1.66-.513-2.32-1.1-.17-1.22-1.67-1.4-2.49-2.04-.414-.0914-.833.467-.967-.159zm29.5 1.06c-.967.155-1.39 2.31-.0667 1.58.408-.399.516-1.17.0667-1.58zm-3.18.224c.404.498.801 2.08 1.43 1.65-.127-.776-.876-1.19-1.43-1.65zm5.75 1.05c-.0765.766 1.03 1.22 1.59 1.45.368.0589 1.36.523.756-.148-.42-.805-1.34-1.12-2.13-.884-.122-.107-.163-.274-.213-.421zm1.32 1.97c.017.0309.0255.0594.0371.0888-.0072-.0297-.0216-.0568-.0278-.0872zm.0371.0889c.0095.0386.0243.0751.0352.113-.0066-.0364-.02-.0743-.0352-.113zm.0352.113c.141.765-1.52.971-1.14-.0315-.619-.285-1.09.621-1.66.515-.552.741-1.69.918-2.01 1.8-.267.63-.0365 2.01.9 1.52.653-.609 1.6-.349 2.18-.0463.21.393.279 1.22 1.02.852 1.03-.303 2.08-1.51 1.59-2.62-.247-.684-.686-1.29-.887-1.99zm-14.5-.0078c-.503.509-1.5 1.59-.726 2.16.798-.258.745-1.48.726-2.16z" fill="#ccc"/><path d="m19.5 19.5-4 16h33l-4-16z" fill="#ececec" stroke="#000" stroke-linejoin="round" stroke-width="1px"/><path d="m23.8 20.4c-.273.902 1.67.234.375.0957-.125-.0318-.25-.0617-.375-.0957zm15.5.203.494 1.84h-.625l.084.316h-7.9c.0381.652-1.35.904-.363 1.28.579-.0938.831-1.17 1.49-.438.584.616-.265-.971.387-.043.393.495.632.0447 1.08.496.991.384-.131.763-.643.598-.945.218-1.37-1.07-2.32-.371-.909.47-1.64 1.82-.906 2.73.67.868 2.14-.158 2.26 1.31.327 1.05-.289 2.62.986 3.17.971-.0578 1.15-1.38 1.58-2.09-.32-.997.658-1.58.861-2.4-.663-.169-1.64-1.63-1.21-1.79.185 1.11 1.76 1.81 2.02.381-.193-.25-1.52-.555-.557-.623 1.03.211 2.11.846 2.31 1.87.447-.398.72-1.81 1.54-.896.175.562.834 1.3 1.29.738.0753-.47-.604-1.14.234-.824.971-.48.452-1.4.125-2.13.561.0152 1 .854.82-.143.617-.63.174-1.15-.389-1.49.258-.675 1.63-.702 1.51.229.673.307-.035-.794.68-.896.49-.735-1.2-.489-1.77-.623-1.02-.173-2.04-.117-3.06-.195zm-17.7.109c-.421-.004-.837.0578-1.24.252-.205.271-1.18.806-.314.887 1.12-.79 1.69.773 1.05 1.61-.385.419-.115 1.38.252 1.54.0555-.287.356.959.83 1.07.489.229 1.14.738 1.51.787-.141-.42-.284-.809-.58-1.09-1.27.412.0151-1.94.789-.861.44.366.485-.923 1.04-1.02.369-.465 2.13-.882.775-1.12-.47.0594-.865.0966-.879-.312h-.604l.416-1.52c-.994.169-2.05-.209-3.06-.219zm20.4 3.24.002.0098zm-17.4 2.71c-.61.736-1.15 2.05-.188 2.74.841.662.564 1.74.709 2.65-.139.594.838 2 .76.752.199-.989.997-1.58 1.4-2.45.649-.636 1.08-2.15-.242-2.25-.714-.523-1.24-1.29-2.26-1.37zm17.4.625c-.974.0652-.198 1.78.162.535.0326-.189-.0138-.403-.162-.535zm-1.87.131c.0092.493 1.16 1.45.572.469-.171-.178-.382-.312-.572-.469zm3.38.619c-.118.836 2.21 1.34 1.02.334-.293-.238-.878.115-1.02-.334zm.777 1.16c.138.875-.807.19-.922.145-.803.261-2.53 1.25-1.62 2.12.784-.0856 1.72-.0821 2.08.594 1.14-.2 1.37-1.59.65-2.36-.0752-.159-.142-.324-.182-.496zm-8.51.115c-.686.145-.639 1.87-.0527.814.0736-.264.0567-.543.0527-.814z" fill="#b3b3b3"/><path d="m26.5 15.5-2 7h15l-2-7z" fill="#ececec" stroke="#000" stroke-linejoin="round" stroke-width="1px"/><path d="m29.9 16.1c-.301-.117-.445.431-.07.146.488-.158.232.994.805.501.275-.0659.823-.582.248-.622-.327.0147-.661.0612-.983-.0258zm4.62.251c-.449.0879-.866.304-1.32.36-.374.164-.671-.407-.998-.0492-.353.113-.0937.69.072.285.435-.0506-.0849.36-.285.351-.272.0369-.922.623-.402.675.198-.101.449-.4.647-.114-.0672-.281.364.215.522.149.4.346-.549.408-.701.148-.497-.311-1.09.255-1.09.764-.0777.694.762.417 1.06.807.248.392-.0234.905.221 1.31.407.575.928-.268.93-.701-.0791-.436.592-.827.211-1.21-.232.0253-.477-.545-.3-.496-.0557.57 1.13.461.716.0072-.518-.324.415-.2.511.0615.224.199.449.645.617.181.351-.303.566.15.736.36.456.0708.083-.578.424-.453.495-.17-.245-1.08.366-.803.14-.24.149-.541-.0649-.809-.0081-.433.557-.173.67.0664.11-.241.315-.634-.154-.619-.615-.0519-1.23-.0617-1.85-.115-.184-.0264-.367-.0741-.535-.155zm1.8 1.63.000406.0038zm-7.98-1.56c-.136.365.64.0522.14.0361l-.07-.0178zm.971.0204c.169.125.241.334.257.406.383.0192-.0493-.651-.257-.406zm-.247.0832c-.66.397-1.42-.13-2.11.0781-.313.0842-.491.543-.0084.377.654.125.0185.864.2 1.26.192.447.591.83 1.07.956.278-.338-.801-.423-.316-.736.497-.0608.857-.353 1.19-.693.329-.0938.913-.752.281-.808-.229.254-.918.34-.51-.132.153-.158.412-.0845.207-.301zm-.364 2.64c-.408.357-.391 1.11.0901 1.4.255.461-.0688 1.1.364 1.48.183-.392.357-.835.686-1.18.36-.379.397-.961-.153-1.17-.322-.232-.585-.461-.987-.535zm7.6.273c-.471-.0219.0698.759.0749.171-.0025-.0632-.0265-.128-.0749-.171zm-.818.0577c-.0801.226.504.487.191.15-.0614-.0527-.128-.0984-.191-.15zm1.48.27c-.148.396.887.477.392.118-.128-.043-.333.0564-.392-.118zm.341.507c-.137.381-.69-.127-.891.259-.477.204-.283.97.243.729.335.251.933.305.914-.262.000712-.267-.179-.484-.265-.725zm-3.73.0502c-.404-.0113-.0823.826-.0017.225.0061-.0749.0036-.15.0017-.225z" fill="#808080"/><path d="M 10.5,24.5 32,12 53.5,24.5" fill="none" stroke="#000" stroke-linejoin="round" stroke-width=".5"/><path d="M 3.5,52.5 32,12 60.5,52.5" fill="none" stroke="#000" stroke-linejoin="round" stroke-width=".5"/></svg>
