<svg height="24" width="24" xmlns="http://www.w3.org/2000/svg" xmlns:xlink="http://www.w3.org/1999/xlink"><linearGradient id="a" gradientUnits="userSpaceOnUse" x1="9.5" x2="15.5" y1="15.5" y2="23.5"><stop offset="0" stop-color="#fef5af"/><stop offset=".1986319" stop-color="#fbe741"/><stop offset=".71306628" stop-color="#fbe21e"/><stop offset="1" stop-color="#e3ca04"/></linearGradient><path d="m9.6759779 9.5418997v3.9581003c-.2087286.07473-.4181451.160012-.6173184.25419l-2.7960895-2.796089-3.3044694 3.304469 2.7960895 2.79609c-.093379.198487-.179669.408452-.25419.617318h-3.9581006v4.648045h3.9581006c.073869.207908.1615173.419283.25419.617318l-2.7960895 2.79609 3.3044694 3.304469 2.7960895-2.796089c.1993406.09403.4086735.179504.6173184.25419v3.9581h4.6480451v-3.9581c.208645-.07468.417977-.160166.617318-.25419l2.79609 2.796089 3.304469-3.304469-2.79609-2.79609c.09267-.198035.180317-.40941.25419-.617318h3.958101v-4.648045h-3.958101c-.074682-.208645-.160165-.417978-.25419-.617318l2.79609-2.79609-3.304469-3.304469-2.79609 2.796089c-.198036-.09267-.40941-.180316-.617318-.25419v-3.9581003zm2.3240221 7.6620113c1.542604 0 2.79609 1.253486 2.79609 2.79609 0 1.542603-1.253486 2.796089-2.79609 2.796089-1.542603 0-2.7960891-1.253486-2.7960891-2.796089 0-1.542604 1.2534861-2.79609 2.7960891-2.79609z" fill="url(#a)" fill-rule="evenodd" stroke="#c4a000" stroke-linecap="round" stroke-linejoin="round" transform="translate(0 -8)"/></svg>