<?xml version="1.0" encoding="UTF-8"?>
<svg width="64" height="64" viewBox="0 0 16.933 16.933" xmlns="http://www.w3.org/2000/svg">
 <linearGradient id="a" x1="11.125" x2="6.4813" y1="286.61" y2="286.01" gradientTransform="matrix(.72568 .68804 -.68804 .72568 200.63 73.348)" gradientUnits="userSpaceOnUse">
  <stop stop-color="#bf7b10" offset="0"/>
  <stop stop-color="#e8b86d" offset="1"/>
 </linearGradient>
 <linearGradient id="b" x1="11.509" x2="5.2471" y1="294.75" y2="291.61" gradientTransform="matrix(.72568 .68804 -.68804 .72568 200.63 73.348)" gradientUnits="userSpaceOnUse">
  <stop stop-color="#e2af61" offset="0"/>
  <stop stop-color="#f1d8b2" offset="1"/>
 </linearGradient>
 <linearGradient id="c" x1="5.0082" x2=".8977" y1="281.9" y2="280.77" gradientTransform="matrix(.98378 0 0 1 -.08939 .094531)" gradientUnits="userSpaceOnUse">
  <stop stop-color="#fce94f" offset="0"/>
  <stop stop-color="#fce94f" stop-opacity=".25743" offset="1"/>
 </linearGradient>
 <linearGradient id="d" x1="5.0082" x2=".8977" y1="281.9" y2="280.77" gradientTransform="matrix(.98378 0 0 1 -.08939 3.0049)" gradientUnits="userSpaceOnUse">
  <stop stop-color="#729ece" offset="0"/>
  <stop stop-color="#729ece" stop-opacity=".51485" offset="1"/>
 </linearGradient>
 <linearGradient id="e" x1="5.0082" x2=".8977" y1="281.9" y2="280.77" gradientTransform="matrix(.98378 0 0 1 -.08939 5.9154)" gradientUnits="userSpaceOnUse">
  <stop stop-color="#ec2d27" offset="0"/>
  <stop stop-color="#ef2929" stop-opacity=".44554" offset="1"/>
 </linearGradient>
 <g transform="translate(0 -280.07)">
  <g transform="matrix(.81318 .35396 -.39866 .9171 115.33 25.156)" fill-rule="evenodd" stroke-width="1.0619">
   <path d="m0.79375 280.86h10.319v2.9104h-10.319z" fill="url(#c)" overflow="visible"/>
   <path d="m0.79375 283.77h10.319v2.9104h-10.319z" fill="url(#d)" overflow="visible"/>
   <path d="m0.79375 286.68h10.319v2.9104h-10.319z" fill="url(#e)" overflow="visible"/>
  </g>
  <g transform="translate(2.9291 -.46454)" stroke="#976009">
   <path d="m7.3488 288.3 4.354-4.7632c0.63806-0.67296 1.8489 0.4389 1.1928 1.1309l-4.5246 4.6014c1.9745 1.8721 1.454 2.0493 0.72397 2.8193l-4.6-4.3614c0.73013-0.77008 0.91071-1.2694 2.8538 0.57293z" fill="url(#a)" fill-rule="evenodd" stroke-width=".26458"/>
   <path d="m4.4919 287.72-2.9127 3.072 4.608 4.369 2.9127-3.072z" fill="url(#b)" fill-rule="evenodd" stroke-width=".26458"/>
   <path d="m4.9765 288.36-2.7299 2.8792" fill="none" stroke-width=".13229"/>
   <path d="m5.5525 288.91-2.7299 2.8792" fill="none" stroke-width=".13229"/>
   <path d="m6.1285 289.45-2.7299 2.8792" fill="none" stroke-width=".13229"/>
   <path d="m6.7045 290-2.7299 2.8792" fill="none" stroke-width=".13229"/>
   <path d="m7.2805 290.55-2.7299 2.8792" fill="none" stroke-width=".13229"/>
   <path d="m7.8569 291.09-2.7306 2.88" fill="none" stroke-width=".13229"/>
   <path d="m8.4333 291.64-2.7306 2.88" fill="none" stroke-width=".13229"/>
  </g>
 </g>
</svg>
