<svg xmlns="http://www.w3.org/2000/svg" height="24" width="24"><g stroke="#000" transform="translate(0 -288.53)"><circle cy="300.53" cx="12" r="10.5" fill="#efefed" stroke="none"/><path d="M12 300.525l.002-6.995m3.998 10l-3.995-2.995" fill="#888a85" stroke="#898b86" stroke-width="1.5" stroke-linecap="round"/><path d="M8 310.53c-9.351-12 0-22 10.027-17.86l-1.894-1.837-3.81-.706-3.042.369-2.649 1.327-3.205 2.828L1 299.53l1.894 5.696 2.253 3.32z" fill="#fafafa" stroke="none"/><circle r="10.5" cx="12" cy="300.53" fill="none" stroke="#505050"/><g style="line-height:1.25"><path style="-inkscape-font-specification:Ubuntu" d="M12.75 291.78q0 .302-.201.526-.202.224-.549.224-.347 0-.549-.224-.201-.224-.201-.526 0-.302.201-.526.202-.224.549-.224.347 0 .549.224.201.224.201.526z" font-family="Ubuntu" aria-label="." font-weight="400" font-size="6.667" letter-spacing="0" word-spacing="0" fill="#415a75" stroke="none" stroke-width=".596"/></g><g style="line-height:1.25"><path style="-inkscape-font-specification:Ubuntu" d="M12.75 309.28q0 .302-.201.526-.202.224-.549.224-.347 0-.549-.224-.201-.224-.201-.526 0-.302.201-.526.202-.224.549-.224.347 0 .549.224.201.224.201.526z" font-family="Ubuntu" aria-label="." font-weight="400" font-size="6.667" letter-spacing="0" word-spacing="0" fill="#415a75" stroke="none" stroke-width=".596"/></g><g style="line-height:1.25"><path style="-inkscape-font-specification:Ubuntu" d="M21.5 300.53q0 .302-.201.526-.202.224-.549.224-.347 0-.549-.224-.201-.224-.201-.526 0-.302.201-.526.202-.224.549-.224.347 0 .549.224.201.224.201.526z" font-family="Ubuntu" aria-label="." font-weight="400" font-size="6.667" letter-spacing="0" word-spacing="0" fill="#415a75" stroke="none" stroke-width=".596"/></g><g style="line-height:1.25"><path style="-inkscape-font-specification:Ubuntu" d="M4 300.53q0 .302-.201.526-.202.224-.549.224-.347 0-.549-.224-.201-.224-.201-.526 0-.302.201-.526.202-.224.549-.224.347 0 .549.224.201.224.201.526z" font-family="Ubuntu" aria-label="." font-weight="400" font-size="6.667" letter-spacing="0" word-spacing="0" fill="#415a75" stroke="none" stroke-width=".596"/></g><g style="line-height:1.25"><path style="-inkscape-font-specification:Ubuntu" d="M17.455 293.16q0 .303-.201.527-.202.223-.549.223-.347 0-.548-.223-.202-.224-.202-.527 0-.302.202-.526.201-.224.548-.224.347 0 .549.224.201.224.201.526z" font-family="Ubuntu" aria-label="." font-weight="400" font-size="6.667" letter-spacing="0" word-spacing="0" fill="#6d97c4" stroke="none" stroke-width=".596"/></g><g style="line-height:1.25"><path style="-inkscape-font-specification:Ubuntu" d="M20.529 304.701q0 .303-.202.526-.201.224-.548.224-.347 0-.549-.224-.201-.223-.201-.526 0-.302.201-.526.202-.224.549-.224.347 0 .548.224.202.224.202.526z" font-family="Ubuntu" aria-label="." font-weight="400" font-size="6.667" letter-spacing="0" word-spacing="0" fill="#6d97c4" stroke="none" stroke-width=".596"/></g><g style="line-height:1.25"><path style="-inkscape-font-specification:Ubuntu" d="M8.62 308.313q0 .302-.201.526-.201.224-.548.224-.347 0-.549-.224-.201-.224-.201-.526 0-.303.201-.527.202-.223.549-.223.347 0 .548.223.202.224.202.527z" font-family="Ubuntu" aria-label="." font-weight="400" font-size="6.667" letter-spacing="0" word-spacing="0" fill="#6d97c4" stroke="none" stroke-width=".596"/></g><g style="line-height:1.25"><path style="-inkscape-font-specification:Ubuntu" d="M20.499 296.387q0 .302-.202.526-.201.224-.548.224-.347 0-.549-.224-.201-.224-.201-.526 0-.303.201-.526.202-.224.549-.224.347 0 .548.224.202.223.202.526z" font-family="Ubuntu" aria-label="." font-weight="400" font-size="6.667" letter-spacing="0" word-spacing="0" fill="#6d97c4" stroke="none" stroke-width=".596"/></g><g style="line-height:1.25"><path style="-inkscape-font-specification:Ubuntu" d="M17.57 307.819q0 .302-.202.526-.201.224-.548.224-.347 0-.549-.224-.201-.224-.201-.526 0-.302.201-.526.202-.224.549-.224.347 0 .548.224.202.224.202.526z" font-family="Ubuntu" aria-label="." font-weight="400" font-size="6.667" letter-spacing="0" word-spacing="0" fill="#6d97c4" stroke="none" stroke-width=".596"/></g><g style="line-height:1.25"><path style="-inkscape-font-specification:Ubuntu" d="M5.432 305.33q0 .303-.202.527-.201.223-.548.223-.347 0-.549-.223-.201-.224-.201-.527 0-.302.201-.526.202-.224.549-.224.347 0 .548.224.202.224.202.526z" font-family="Ubuntu" aria-label="." font-weight="400" font-size="6.667" letter-spacing="0" word-spacing="0" fill="#6d97c4" stroke="none" stroke-width=".596"/></g><g style="line-height:1.25"><path style="-inkscape-font-specification:Ubuntu" d="M5.194 296.126q0 .302-.202.526-.201.224-.548.224-.347 0-.549-.224-.201-.224-.201-.526 0-.302.201-.526.202-.224.549-.224.347 0 .548.224.202.224.202.526z" font-family="Ubuntu" aria-label="." font-weight="400" font-size="6.667" letter-spacing="0" word-spacing="0" fill="#6d97c4" stroke="none" stroke-width=".596"/></g><g style="line-height:1.25"><path style="-inkscape-font-specification:Ubuntu" d="M8.304 292.97q0 .302-.202.526-.201.224-.548.224-.347 0-.549-.224-.201-.224-.201-.526 0-.303.201-.526.202-.224.549-.224.347 0 .548.224.202.223.202.526z" font-family="Ubuntu" aria-label="." font-weight="400" font-size="6.667" letter-spacing="0" word-spacing="0" fill="#6d97c4" stroke="none" stroke-width=".596"/></g></g></svg>
