<?xml version="1.0" encoding="UTF-8"?><!DOCTYPE svg PUBLIC "-//W3C//DTD SVG 1.1//EN" "http://www.w3.org/Graphics/SVG/1.1/DTD/svg11.dtd"><svg xmlns="http://www.w3.org/2000/svg" xmlns:xlink="http://www.w3.org/1999/xlink" version="1.1" width="24" height="24" viewBox="0 0 24 24"><path d="M4,4H7L9,2H15L17,4H20C21.1,4 22,4.9 22,6V18C22,19.1 21.1,20 20,20H4C2.9,20 2,19.1 2,18V6C2,4.9 2.9,4 4,4M12,7C9.24,7 7,9.24 7,12C7,14.76 9.24,17 12,17C14.76,17 17,14.76 17,12C17,9.24 14.76,7 12,7M12,9C13.66,9 15,10.34 15,12C15,13.66 13.66,15 12,15C10.34,15 9,13.66 9,12C9,10.34 10.34,9 12,9Z" /></svg>