<?xml version="1.0" encoding="UTF-8" standalone="no"?>
<svg
   xmlns:dc="http://purl.org/dc/elements/1.1/"
   xmlns:cc="http://creativecommons.org/ns#"
   xmlns:rdf="http://www.w3.org/1999/02/22-rdf-syntax-ns#"
   xmlns:svg="http://www.w3.org/2000/svg"
   xmlns="http://www.w3.org/2000/svg"
   xmlns:xlink="http://www.w3.org/1999/xlink"
   xmlns:sodipodi="http://sodipodi.sourceforge.net/DTD/sodipodi-0.dtd"
   xmlns:inkscape="http://www.inkscape.org/namespaces/inkscape"
   viewBox="550 550 69.143946 76.252373"
   width="59.266239"
   height="65.359177"
   id="svg2"
   version="1.1"
   inkscape:version="0.91 r13725"
   sodipodi:docname="qgis_browser.svg"
   inkscape:export-filename="C:\Users\anita\Pictures\qgis_globe_draft1.png"
   inkscape:export-xdpi="90"
   inkscape:export-ydpi="90">
  <metadata
     id="metadata403">
    <rdf:RDF>
      <cc:Work
         rdf:about="">
        <dc:format>image/svg+xml</dc:format>
        <dc:type
           rdf:resource="http://purl.org/dc/dcmitype/StillImage" />
        <dc:title></dc:title>
      </cc:Work>
    </rdf:RDF>
  </metadata>
  <defs
     id="defs401">
    <linearGradient
       inkscape:collect="always"
       id="linearGradient4771">
      <stop
         id="stop4775"
         offset="0"
         style="stop-color:#ffffff;stop-opacity:1" />
      <stop
         id="stop4773"
         offset="1"
         style="stop-color:#e4f363;stop-opacity:1;" />
    </linearGradient>
    <clipPath
       clipPathUnits="userSpaceOnUse"
       id="clipPath4144">
      <rect
         style="fill:#000000;stroke:none"
         id="rect4146"
         width="42.875"
         height="39.625"
         x="565.16125"
         y="646.18127"
         transform="matrix(0.99990096,-0.01407388,0.01407388,0.99990096,0,0)" />
    </clipPath>
    <linearGradient
       id="linearGradient5342-4-9-7">
      <stop
         style="stop-color:#0d4100;stop-opacity:1;"
         offset="0"
         id="stop5344-0-0-6" />
      <stop
         style="stop-color:#129300;stop-opacity:1;"
         offset="1"
         id="stop5346-85-9-0" />
    </linearGradient>
    <linearGradient
       id="linearGradient5342-4-0-4">
      <stop
         id="stop5346-85-5-3"
         offset="0"
         style="stop-color:#0d7200;stop-opacity:1;" />
      <stop
         id="stop5344-0-9-7"
         offset="1"
         style="stop-color:#0d1d00;stop-opacity:1;" />
    </linearGradient>
    <radialGradient
       inkscape:collect="always"
       xlink:href="#linearGradient5342-4-0-4"
       id="radialGradient4777"
       cx="745.86865"
       cy="741.87976"
       fx="745.86865"
       fy="741.87976"
       r="350"
       gradientUnits="userSpaceOnUse"
       gradientTransform="matrix(0.11010059,0.19005404,-0.16733418,0.09693869,611.45477,359.57503)" />
    <filter
       style="color-interpolation-filters:sRGB"
       inkscape:label="Blur"
       id="filter4813">
      <feGaussianBlur
         stdDeviation="10 10"
         result="fbSourceGraphic"
         id="feGaussianBlur4815" />
      <feColorMatrix
         result="fbSourceGraphicAlpha"
         in="fbSourceGraphic"
         values="0 0 0 -1 0 0 0 0 -1 0 0 0 0 -1 0 0 0 0 1 0"
         id="feColorMatrix4817" />
      <feGaussianBlur
         id="feGaussianBlur4819"
         stdDeviation="10 10"
         result="blur"
         in="fbSourceGraphic" />
    </filter>
    <radialGradient
       inkscape:collect="always"
       xlink:href="#linearGradient4771"
       id="radialGradient4821"
       cx="922.88159"
       cy="891.1463"
       fx="922.88159"
       fy="891.1463"
       r="325.74777"
       gradientTransform="matrix(1,0,0,1.0498376,0,-44.412599)"
       gradientUnits="userSpaceOnUse" />
    <radialGradient
       inkscape:collect="always"
       xlink:href="#linearGradient4771"
       id="radialGradient4829"
       gradientUnits="userSpaceOnUse"
       gradientTransform="matrix(0.02190706,1.1210869,-1.2678229,0.02477441,1566.3313,-121.41178)"
       cx="717.8399"
       cy="683.70209"
       fx="717.8399"
       fy="683.70209"
       r="325.74777" />
  </defs>
  <sodipodi:namedview
     pagecolor="#ffffff"
     bordercolor="#666666"
     borderopacity="1"
     objecttolerance="10"
     gridtolerance="10"
     guidetolerance="10"
     inkscape:pageopacity="0"
     inkscape:pageshadow="2"
     inkscape:window-width="913"
     inkscape:window-height="1080"
     id="namedview399"
     showgrid="false"
     inkscape:zoom="9.3007649"
     inkscape:cx="31.687335"
     inkscape:cy="16.468578"
     inkscape:window-x="931"
     inkscape:window-y="33"
     inkscape:window-maximized="0"
     inkscape:current-layer="svg2"
     fit-margin-top="0"
     fit-margin-left="0"
     fit-margin-right="0"
     fit-margin-bottom="0" />
  <path
     style="fill:#000000;fill-opacity:1;filter:url(#filter4813)"
     d="m 1319.9999,969.99999 c 0,193.29991 -156.701,349.99991 -349.99991,349.99991 -193.3,0 -350,-156.7 -350,-349.99991 0,-193.3 156.7,-350 350,-350 193.29891,0 349.99991,156.7 349.99991,350 l 0,0 z"
     id="path4785"
     inkscape:connector-curvature="0"
     transform="matrix(0.078033,0,0,0.078033,508.89062,512.55229)" />
  <path
     id="path3517"
     d="m 611.53002,587.88014 c 0,15.08378 -12.22785,27.31155 -27.31155,27.31155 -15.08378,0 -27.31155,-12.22777 -27.31155,-27.31155 0,-15.08378 12.22777,-27.31155 27.31155,-27.31155 15.0837,0 27.31155,12.22777 27.31155,27.31155 l 0,0 z"
     style="fill:url(#radialGradient4777);fill-opacity:1"
     inkscape:connector-curvature="0"
     inkscape:export-xdpi="90"
     inkscape:export-ydpi="90" />
  <g
     id="layer3"
     transform="matrix(0.078033,0,0,0.078033,513.98877,517.65044)">
    <radialGradient
       id="polygon413_1_"
       cx="7976.3457"
       cy="-10508.842"
       r="13293.867"
       gradientTransform="matrix(0.0222,0,0,-0.0248,721.1671,674.6745)"
       gradientUnits="userSpaceOnUse">
      <stop
         offset="0"
         style="stop-color:#80FF80"
         id="stop388" />
      <stop
         offset="1"
         style="stop-color:#0f0"
         id="stop390" />
    </radialGradient>
    <path
       id="polygon413"
       d="m 738.059,824.52 -4.896,-2.991 3.183,4.563 1.697,-1.541 0.016,-0.031 m 315.115,-124.435 -0.383,1.419 1.727,0.363 -1.317,-1.773 -0.027,-0.009 m -257.087,112.336 -2.255,0.589 0.465,1.879 1.814,-2.44 -0.024,-0.028 m -70.86,-12.684 -3.059,0.086 3.033,-0.077 0.026,-0.009 m 507.893,171.781 -0.121,-1.182 0.118,1.188 0,-0.006 m 1.431,4.062 -0.34,-0.164 0.341,0.166 -10e-4,-0.002 m -490.636,-279.995 -1.29,-0.768 1.215,0.783 0.075,-0.015 m 461.488,304.626 1.548,-2.094 -1.536,2.067 -0.012,0.027 m -461.774,-304.148 -2.035,-0.956 2.023,0.955 0.012,10e-4 m 305.072,4.142 -1.344,-0.514 1.317,0.515 0.027,-10e-4 m 186.587,263.978 0,-0.003 -0.166,-0.673 0.163,0.676 m -97.138,-286.087 0.064,0.801 -0.063,-0.798 -10e-4,-0.003 m -373.039,161.109 -2.353,0.707 2.337,-0.677 0.016,-0.03 m 46.254,289.391 -0.434,-1.414 0.419,1.393 0.015,0.021 m -40.176,-62.291 -1.831,-0.333 1.871,0.346 -0.04,-0.013 m 61.266,62.881 1.77,0.989 -1.741,-0.978 -0.029,-0.011 m 399.868,-148.699 -0.027,1.02 0.03,-1.032 0,0.012 m -85.152,-270.635 1.13,0.812 -1.113,-0.81 -0.017,-0.002 m -427.622,49.937 -0.003,10e-4 -1.005,1.075 1.008,-1.076 m 9.885,37.886 -1.26,0.07 1.234,-0.036 0.026,-0.034 m 411.98,-115.919 -0.672,-1.176 0.654,1.173 0.018,0.003 m -343.025,536.588 0.573,0.66 -0.549,-0.659 -0.024,-10e-4 m 260.171,-528.531 1.178,0.889 -1.171,-0.889 -0.01,0 m -119.445,-121.01 -0.003,0 -0.188,0.437 0.191,-0.437 m -4.625,-9.775 -1.369,-0.157 1.377,0.166 -0.008,-0.009"
       inkscape:connector-curvature="0"
       style="fill:url(#polygon413_1_)" />
  </g>
  <g
     id="layer1"
     style="fill:url(#radialGradient4821);fill-opacity:1"
     transform="matrix(0.078033,0,0,0.078033,513.98877,517.65044)">
    <path
       style="fill:url(#radialGradient4829);fill-opacity:1"
       d="m 819.353,587.924 c 25.23263,-16.16335 62.13234,-10.4476 80.88894,-12.95268 14.02347,-3.63103 46.8515,12.86747 49.40387,14.70591 -28.94522,4.80305 30.42503,18.17105 39.0546,18.89569 20.17549,-6.44343 -6.37884,1.80037 11.98619,5.33288 -9.80296,9.00257 19.1346,-3.87005 16.1238,1.41094 42.7079,12.40979 -41.99481,-5.22374 -8.6058,9.84827 19.6626,-5.38734 8.9952,9.95365 21.6534,18.91699 -10.8949,2.06344 19.4217,19.27136 -2.1306,14.39361 22.4033,4.05771 22.0472,37.79538 6.0614,18.81317 11.1811,-21.17555 -25.2896,-3.70019 -27.2852,1.4407 -7.64635,14.43195 16.7274,38.30449 11.8962,49.44491 -0.9466,15.0282 3.4858,12.77017 15.9223,25.64546 1.2698,-25.24798 13.9733,1.81073 26.2092,-0.75101 1.206,-25.22456 -34.4424,-33.83792 -30.4119,-56.49836 10.6089,11.08574 24.4702,33.40567 33.0843,10.64308 -3.3188,9.62329 1.6302,15.85335 5.7926,22.29651 -5.6295,6.69382 17.2596,18.47359 -0.6485,27.23376 -4.2405,16.72696 -19.9586,2.97337 -24.2022,-3.91316 1.4039,14.65401 19.2894,17.07638 5.3838,32.05535 10.1813,21.4314 -33.1926,39.43825 2.5501,43.42131 18.4968,25.31979 -39.1262,19.74578 -13.4439,47.96692 5.323,32.36696 52.1987,2.67373 34.3488,-22.34262 1.5881,-22.748 14.9466,-41.55141 40.2737,-30.55912 15.4634,8.90695 17.0935,8.62846 11.1508,-6.42346 -17.0664,6.24828 -44.0289,-22.79284 -12.4753,-11.18096 17.8324,-0.50084 31.3632,19.81565 37.4349,14.91126 -4.4721,-9.81711 -16.7224,-20.40675 -3.7844,-29.06092 -7.8861,-12.81185 -28.6412,-45.96359 -6.5902,-37.36726 -1.8773,-2.78858 -11.4334,-32.41594 0.414,-10.95811 13.8432,-5.57503 31.9752,12.43587 11.6219,21.59874 -12.9597,19.15079 3.0575,62.51403 20.1806,27.55146 2.0497,-20.2749 25.9424,28.42039 10.2325,35.17172 -9.5699,14.95208 -31.9813,14.17077 -22.3788,37.31702 -18.0244,1.15538 -39.975,13.861 -42.4038,-11.93219 -22.9018,11.60688 -38.0545,36.58915 -58.4706,46.48625 -3.9269,29.73138 -15.5451,52.35363 -27.1216,81.38939 -7.3935,18.33881 9.7411,36.50425 1.5501,55.45935 6.8759,8.1917 25.5598,27.8622 46.2318,31.5803 24.2015,-1.9317 44.4469,-24.7108 63.6167,-36.8877 11.6286,7.6371 29.0818,-17.9663 24.3094,12.4776 -7.1881,17.2324 24.6593,28.934 5.2175,49.4125 -5.7472,11.5284 -20.6184,58.2595 -20.2978,50.2678 54.1932,-56.0123 89.5275,-130.4098 95.0464,-208.41936 3.6405,-26.56496 1.8583,-76.16505 -4.0068,-88.8888 5.7845,24.98493 -6.4368,31.68397 -19.8486,11.03259 -16.3719,-14.69855 -46.5052,-46.28194 -11.774,-22.98672 16.3592,0.60142 32.8356,50.18795 28.3231,13.07176 -3.399,-28.43173 -4.872,-68.47947 -26.7209,-85.92271 15.52,21.60166 -0.6043,29.75589 -10.905,7.57366 25.4231,3.73737 -4.8992,-52.7673 2.0311,-42.29024 8.0338,13.85467 21.8658,43.45213 6.9456,12.71654 -10.5225,-23.93194 -42.4278,-64.89584 -49.8987,-72.33874 5.9161,6.29957 22.0439,25.9523 33.0537,43.31488 -20.2651,-30.04832 -33.3956,-45.50248 -58.8255,-69.3133 -35.2127,-32.70795 -83.5461,-59.85489 -126.805,-73.51305 -16.97181,-5.20448 -21.62083,-6.41274 -6.3851,-2.04281 -31.77794,-10.58326 -81.31486,-16.60788 -104.77685,-14.43863 38.5127,0.47626 -25.22788,5.40229 -39.0848,6.74599 -12.95743,7.00067 -41.10247,15.78651 -11.70535,-1.34136 -18.47361,-1.22098 -19.57229,4.93439 -22.738,11.151 -10.55728,0.62953 -39.03011,22.8268 -11.15752,12.48529 -8.64791,6.42746 -34.84104,20.06766 -9.21854,11.47358 5.54037,-0.25825 10.80162,-1.90345 16.10796,-3.33087 z m -43.586,639.285 c 21.70671,8.6686 11.51894,3.2033 21.62359,5.1338 10.26649,1.07 28.21768,2.1931 12.31903,-5.0028 27.60142,12.5799 35.93972,-7.5473 55.96982,-13.8049 25.5875,4.0577 39.79206,-15.5163 45.32829,-35.7865 33.55185,-14.6432 13.12161,-39.1353 -14.69811,-39.5044 -25.65781,3.6226 -34.07541,-17.18 -59.71262,-7.9722 20.3636,-0.5423 2.61084,-12.6006 -6.07844,-6.14 23.63294,-32.968 -37.96239,-30.5162 -48.9096,-54.2818 -13.45298,-23.0231 -37.10212,-15.8975 -55.63484,-32.7449 -15.85994,21.4109 6.39367,-18.7736 -19.47012,-5.7923 -12.57341,4.6506 -15.7928,13.0223 -24.18625,-3.4578 -36.80021,-4.4524 1.02659,-51.15618 -34.41633,-59.59824 13.89682,-12.60783 16.41887,-41.3716 -9.02904,-21.93173 -25.99086,-11.61278 -12.26593,-67.87968 12.69926,-64.96546 8.98809,1.28711 17.72175,25.87608 18.05624,9.50416 26.55812,4.728 16.69796,36.44473 25.98327,48.07174 2.19798,-24.18365 9.93853,-46.99619 36.87134,-48.24779 1.88424,-6.08658 6.63897,-33.08536 5.93632,-8.55209 5.61488,-21.62891 30.94424,-8.02006 35.95233,-27.24037 13.1425,-4.39012 38.47288,-5.66257 15.06726,5.29651 15.36063,-1.1163 27.37848,-2.75095 9.94738,-13.66188 -2.53293,-15.6223 -3.00671,-5.77854 3.77317,-14.17888 -10.7156,-9.84852 -36.28341,10.4245 -10.29024,-6.06803 22.9366,3.44262 62.15953,-5.76821 42.15875,-18.42623 -1.04071,-6.10735 -9.19988,-21.18573 -6.82254,-33.39008 -0.9379,-9.60994 -21.41108,13.0227 -17.88692,-10.3638 15.30369,-4.57919 -15.95925,-32.57118 -15.975,-6.92 -7.41198,12.65222 -14.0709,22.80948 -25.33375,30.8938 -4.13207,26.5 -18.9462,-1.3248 -4.82728,-11.32226 -16.08635,-17.31261 -18.92501,-53.09205 13.64303,-51.55254 -7.55391,-14.78964 16.44308,9.5187 13.17261,-9.3169 15.3314,14.68927 39.58813,-23.28298 11.60946,-4.77418 -3.73985,-8.72811 16.98647,-37.90308 -3.55764,-15.84417 -14.28335,18.53862 -10.06619,-23.49204 -26.83128,-7.28061 1.40132,-16.52873 15.22583,-34.91848 2.3882,-47.55799 14.65908,-10.8548 39.77219,-49.08159 6.18486,-33.29821 10.6408,-19.29832 -17.86409,12.14989 -17.50901,-4.78514 -13.39123,4.78395 -29.27594,19.02343 -33.4072,10.7562 -3.42949,14.42684 22.14503,11.34477 3.725,17.467 10.07288,6.91878 -23.51009,30.05343 -14.34776,30.51839 -19.31628,15.00864 -23.01612,23.9393 -38.54226,36.63184 1.41043,8.53041 -23.64432,36.97434 -12.0307,16.30279 -20.97457,17.61672 -49.0818,37.89531 -52.75596,70.4322 -6.44093,25.30891 -22.26567,59.02617 -16.80036,78.94716 3.41765,-15.95178 7.32477,-51.24474 14.29477,-50.94416 -7.3745,34.06752 -13.02014,70.63413 -8.38221,104.47352 10.56925,34.01456 42.08025,56.24325 48.98394,91.12813 8.00313,15.655 17.77607,26.212 31.10619,27.645 16.43319,22.5883 -13.0936,30.3 -11.59591,45.9051 -1.32219,25.5453 19.85988,51.2238 37.0054,70.642 33.26155,12.1875 28.51779,72.657 58.16497,72.1783 2.34,0.9658 4.70231,1.8778 7.06689,2.7807 z M 885.66,779.943 c 11.07938,-14.40572 12.29552,-32.87905 30.34689,-42.17199 -0.18134,-6.22978 34.60977,-16.2967 7.78697,-17.60286 -4.35341,-11.34026 24.62002,2.94778 3.14314,-9.93315 -11.16794,-8.85549 14.49555,-5.28023 1.10522,-14.54164 1.30749,-10.07471 -10.15482,-15.59201 -5.07785,-31.95646 -18.18329,10.80357 -13.27144,-13.10209 -25.12829,-0.31067 -18.33428,1.59325 -39.33783,11.77592 -35.7574,24.35769 19.89798,4.70149 4.88289,27.75208 14.93596,31.89076 -4.04089,2.26374 1.97746,14.03501 -6.23112,15.11817 16.00256,-3.16855 -11.79273,4.9098 2.01454,6.56949 -5.14981,8.85735 -2.10503,19.59628 5.85395,32.17295 8.63518,-1.95815 3.04561,0.36086 7.00799,6.40771 z m -57.795,-21.505 c -11.31988,-19.71292 16.71534,4.73505 5.64124,-18.78318 2.70028,-11.14885 9.98066,7.18871 13.86242,-4.47964 -8.33615,-6.8714 -6.34445,-17.60244 -4.33659,-23.11076 -5.17151,-6.08701 -9.57319,-13.55031 -12.04904,-22.55864 -18.40281,7.26072 -16.35278,11.75322 -3.81708,21.1318 7.90362,15.74241 -12.50503,20.18818 -16.09233,25.99126 11.20006,1.72245 3.45729,17.0276 16.79138,21.80916 z m 46.872,-103.146 c -22.70508,-3.91639 -5.39812,9.17518 -15.45662,9.79805 -8.59203,1.31149 -26.91193,15.93142 -11.06638,10.70995 9.01943,-1.815 46.55481,-13.29861 26.523,-20.508 z m 167.491,145.922 c 0.065,-18.59384 -26.4871,-20.63784 -35.3841,-35.05821 -2.9763,21.32386 22.3656,15.90355 19.2437,36.57844 10.1562,-4.47678 -6.2159,21.29762 10.0052,1.94454 l 3.1171,-2.43674 3.0181,-1.02803 z m -204.82,50.769 c 10.6977,0.97042 8.55416,0.64995 7.71172,-10.74284 -15.92613,-1.81575 2.9837,-26.69426 -13.88483,-7.85515 -23.43942,11.78361 13.86081,12.29426 4.48457,17.88262 l 1.68854,0.71537 0,0 z M 779.698,672.52 c 9.79321,35.48987 38.71468,-16.81323 12.73603,-12.011 -7.91339,19.22325 -8.3381,-5.93173 -12.73603,12.011 z m 180.694,78.376 c 19.39769,-21.51138 -38.3692,-10.47807 -11.35547,2.22662 4.30301,0.44084 8.86465,2.61762 11.35547,-2.22662 z m 54.155,56.066 c 8.0193,-34.5376 -22.95389,-7.08683 -2.671,2.77711 l 2.671,-2.77711 z M 828.419,676.763 c 26.68876,35.23786 7.5045,-20.59256 0,0 z m -16.175,-21.211 c -2.75974,11.27064 20.31835,3.44201 4.88,2.962 7.22471,-7.11553 -1.69346,-6.45234 -4.88,-2.962 z m 33.583,6.377 c 0.70055,18.00299 19.64553,-14.96944 1.87862,-2.62123 -0.1723,1.54837 4.81995,7.74839 -1.87862,2.62123 z m 119.01,5.537 c 0.9237,-15.23078 -25.86945,-8.3397 -7.698,-2.243 -2.9256,-9.41308 4.12737,4.88177 7.698,2.243 z m 30.638,-34.101 c -13.05043,-8.09495 -24.45784,-13.01384 -6.83697,0.69679 7.85775,5.35635 15.82887,3.46907 6.83697,-0.69679 z M 711.254,981.938 c 3.10598,-11.11996 -37.28571,-44.13974 -32.12547,-32.23122 18.45045,5.93796 14.19498,28.74631 32.12547,32.23122 z m 16.555,18.333 c 29.89293,7.747 -12.58316,-24.62507 -11.14557,-8.04352 -6.61355,-1.45251 12.61649,12.84842 11.14557,8.04352 z m 146.269,-449.31 c 9.27837,-1.78522 22.11991,-2.57657 17.283,-0.785 -5.76099,0.26184 -11.52205,0.52233 -17.283,0.785 z m -66.003,132.783 c 23.4454,-10.6731 -13.67732,-12.43919 0,0 z m -10.755,52.367 c 12.14972,-27.63855 -24.59399,-8.96549 0,0 z m 217.865,-94.39 c -2.3191,-9.97174 -24.97229,-1.28085 -6.181,0.94303 l 6.181,-0.94303 z M 726.042,625.032 c -1.25458,7.66242 7.04869,-4.82443 0,0 z m 230.21,26.319 c -14.71999,3.45154 9.23401,9.31007 0,0 z m -134.78,18.808 c 15.17243,0.42495 3.19801,-11.17479 0,0 z m -28.104,-13.475 c 23.78718,8.23295 7.27412,-21.92677 -5.34146,-1.21095 l 1.45609,1.03646 3.88537,0.17449 z m -122.337,52.105 c -1.85873,19.51054 16.18449,-31.84407 0,0 z m 28.385,-33.872 c 0.10322,3.99452 12.99624,-15.65526 0,0 z m -10.506,6.554 c 15.12153,-11.56292 -9.53135,6.80037 0,0 z m 214.293,-99.042 c -15.93219,-3.0471 -4.74629,8.22084 1.36053,1.44422 L 903.203,582.429 Z m -85.748,271.714 c -2.54384,-8.84165 -13.8636,6.0707 0,0 z m 8.376,-204.834 c -13.53379,-8.50405 -7.05397,5.45765 0.16882,1.35574 L 825.831,649.309 Z m -5.257,47.812 c 25.21226,-20.7081 -17.94242,-7.9429 0,0 z m 237.453,62.845 c -3.8138,-15.82366 -4.5119,5.29628 0,0 z M 946.495,605.893 c -12.37168,-9.25157 -4.17202,8.47391 0,0 z m -109.359,56.223 c 11.04825,-7.19889 -1.60315,-12.81149 0,0 z M 712.91,663.23 715.09471,660.81721 712.91,663.23 Z m 98.408,21.717 c 14.63542,1.66321 13.6392,-12.23914 0,0 z m 156.106,-25.694 c -12.4252,-4.3048 4.43336,7.43505 0,0 z M 773.866,774.61 c 6.2446,1.69209 4.49256,-2.19116 0,0 z m 100.713,-48.962 c -3.4913,-11.279 -8.41032,3.70552 0,0 z m 284.724,99.196 c 11.3849,-14.14921 -11.1099,6.25748 0,0 z m -531.492,221.218 c 1.41923,-8.6321 -3.63792,-3.5345 0,0 z m 129.935,173.648 -1.91462,-1.1356 1.91462,1.1356 z M 703.527,674.683 c -3.27123,0.0754 -2.81674,3.99937 0,0 z m 242.95,-72.952 c -9.31103,-5.17948 -7.73961,6.38272 0,0 z m -2.542,7.229 c -10.1605,-6.06501 -5.22663,7.0791 0,0 z M 708.909,943.109 c 5.9465,1.08632 -1.22483,-11.71411 0,0 z m 394.662,-95.863 c 8.8534,-14.02019 -17.1861,-15.50214 0,0 z m -298.155,3.877 c 9.18181,-2.73643 -16.08663,-10.62623 0,0 z M 699.497,988.874 c 11.68258,0.99355 -17.90594,-10.82446 0,0 z m 34.154,-384.917 c 0.75219,5.58496 2.04295,-5.4473 0,0 z m 441.962,198.088 c 6.1015,-7.10561 -10.9028,-16.08319 0,0 z m -399.096,257.528 c 2.81873,-9.8548 -10.395,2.9545 0,0 z M 705.239,953.947 c -0.30007,-4.70776 -3.01953,1.27766 0,0 z M 834.038,693.894 c 10.23205,14.25721 5.01777,-12.01914 0,0 z m 192.916,-42.312 c -3.1445,-7.31773 -6.5201,2.63226 10e-4,0 M 814.114,834.057 c -2.96403,-11.57508 -13.19745,-4.96209 0,0 z m 334.924,-32.475 c 1.95,-4.93076 -5.0091,1.23364 0,0 z M 712.875,951.335 c 0.38399,6.11967 -3.0502,-13.1489 0,0 z m 64.568,-355.263 c 5.18036,1.25221 11.96802,-8.34353 0,0 z m -67.624,70.572 c -7.17114,2.3916 0.18598,5.11331 0,0 z m 44.241,342.94 c 3.03857,-7.297 -14.271,-0.6269 0,0 z m 297.65,-248.823 c 5.2856,8.94035 2.7352,-5.9648 0,0 z m 97.009,50.797 c -3.8522,-6.25986 -11.9285,2.9164 0,0 z m -147.592,-38.739 c 3.9063,3.63268 -1.52152,-8.78396 0,0 z m 4.846,-74.227 c 2.0024,-5.90413 -3.9392,-2.08858 0,0 z M 703.634,951.126 c 5.62795,-4.1303 -4.76637,-8.11914 0,0 z M 929.062,709.502 c 10.13308,5.06036 -4.27372,-6.61006 0,0 z m -241.139,-20.395 0.71842,0.32793 L 687.924,689.107 M 677.857,955.01 c 5.48283,3.33265 -0.74296,-7.34902 0,0 z M 994.931,620.025 c -6.23471,-1.71222 4.01266,3.58948 0,0 z m -187.736,51.34 c 8.14456,0.42013 -0.48608,-8.17939 0,0 z m 81.535,-88.123 c -22.77051,-6.88781 -7.72014,2.77531 0,0 z m 5.977,-4.842 c 1.04494,5.20142 10.63557,-3.58713 0,0 z m 189.96,279.008 c 3.7932,-8.14931 -7.7658,1.42952 0,0 z m 13.246,-24.39 c 2.1997,-11.02283 -11.2947,-9.1015 0,0 z M 792.075,691.505 c 0.73594,15.71534 12.2163,-9.7739 0,0 z m -80.111,-25.868 c 17.34505,-5.73237 -4.25749,-3.74407 0,0 z m 417.901,177.588 c 1.8965,-22.19251 -22.6325,9.6297 0,0 z M 757.783,602.253 c 8.87543,-1.42131 1.26128,-4.74889 0,0 z m -25.748,6.292 c -5.03725,5.99403 6.54985,-5.465 0,0 z m 92.515,111.858 c -7.05035,-7.89571 -6.10898,10.32708 0,0 z m -33.461,16.082 c -13.98917,2.69599 8.34112,2.41722 0,0 z m -14.939,290.692 c 7.01065,0.012 -3.99605,-5.3738 0,0 z m 55.021,-373.253 c -1.35867,-7.73135 -7.467,4.17184 0,0 z m 114.651,-45.175 -0.57343,1.52625 0.57343,-1.52625 z m -106.733,55.518 c 9.85937,-0.64595 -1.7862,-8.04115 0,0 z m 403.03,304.999 -0.1714,0.67856 0.1714,-0.67856 z m -222.637,-334.3 c -5.0861,-3.69549 -2.8469,5.44616 0,0 z m 40.401,88.74 c -1.185,4.22944 4.5707,-2.49265 0,0 z M 758.244,604.304 c 4.37441,-0.69411 -0.54958,-3.70631 0,0 z m 249.538,174.625 c -2.9266,4.51253 4.4688,-0.24951 0,0 z M 831.989,650.824 c 2.47986,5.60654 6.34152,-1.82435 0,0 z m 97.772,55.222 c -4.35064,-3.26599 -7.40287,2.44268 0,0 z m 281.12,52.359 c -2.466,-6.1738 2.5624,8.22894 0,0 z m 21.105,107.123 c 3.123,-2.00462 -2.785,-1.57419 0,0 z m -127.604,-61.565 c -4.7015,-1.23056 4.9063,1.82452 0,0 z M 608.04,829.171 c -3.12633,5.26011 2.97517,-0.994 0,0 z m 397.758,-53.915 c -7.31616,-6.12156 1.8855,4.33669 0,0 z m 53.696,-33.004 c 7.3449,12.87028 -2.7111,-6.12914 0,0 z m -54.807,-44.73 c -1.344,-4.78598 -3.0996,1.72881 0,0 z M 954.1,665.407 c 7.39063,1.54216 -7.27331,-2.65373 0,0 z m 184.936,156.336 c 4.7562,-0.51053 -3.8738,-3.98422 0,0 z m -374.238,401.088 -2.09433,-0.8896 2.09433,0.8896 z m -45.697,-252.81 c 3.95499,-4.39568 -5.64178,4.24682 0,0 z m 13.876,-335.816 c 5.33767,1.67609 -1.97951,-2.1331 0,0 z m 226.672,3.629 c -2.51115,-5.24146 -7.74703,-3.77212 0,0 z m -260.991,36.214 c -3.28032,3.93775 6.00249,-4.91241 0,0 z m 365.362,54.775 c 2.8644,-8.06844 -6.5966,-1.70004 0,0 z M 729.103,626.29 c 0.42632,4.36378 3.97911,-4.13917 0,0 z m 98.532,-36.968 c -8.14625,2.29725 1.9086,5.40243 0,0 z m 194.64,367.244 c 6.6435,-5.15285 -4.2751,-3.4966 0,0 z m -18.083,-265.771 -0.4372,1.66662 0.4372,-1.66662 z M 839.223,1121.84 c 7.0915,-1.9965 -6.7402,-2.7564 0,0 z M 829.195,762.201 c 4.92651,-0.95966 -3.86627,-3.12802 0,0 z m 11.562,-182.143 c 0.43847,3.14063 6.47184,-3.16241 0,0 z m -89.146,286.52 c 5.77953,3.47238 13.03957,-1.38858 0,0 z m 72.733,-193.519 c -0.35049,10.47515 9.44253,-6.58336 0,0 z m -116.28,-5.657 c 5.16741,-3.94867 -8.17493,4.15243 0,0 z m 0.8,-2.403 0.62701,-0.33975 -0.62701,0.33975 z m 101.92,-100.225 1.02993,-0.28525 -1.02993,0.28525 z m 430.317,262.668 c -0.9836,-8.54004 0.01,5.05271 0,0 z m -205.912,124.031 c 3.2325,-11.51123 -5.9442,7.03424 0,0 z M 804.342,709.075 c -2.98935,4.79217 4.77563,-4.72686 0,0 z m -4.176,12.907 c 3.30543,4.7544 -0.44485,-7.41123 0,0 z m -41.213,64.45 c 1.63492,8.26769 6.24155,-1.18319 0,0 z m -79.842,110.463 0.64418,0.37363 -0.64418,-0.37363 z m 483.275,-86.051 c 2.7061,-6.45177 -3.6951,-0.84829 0,0 z M 815.567,651.702 c 6.92688,0.59938 -4.01248,-2.86076 0,0 z m 22.92,-96.138 2.30811,-0.45111 -2.30811,0.45111 z m 322.873,477.795 c 6.2561,-0.319 -3.8827,-6.7654 0,0 z M 932.784,695.312 c 5.49963,0.81223 -2.78495,-5.33426 0,0 z m 24.909,-64.254 c 4.8039,1.83504 -0.85169,-4.12712 0,0 z m -282.904,454.79 c 3.43315,-0.7506 -3.49841,-2.7414 0,0 z m 46.543,-106.069 c 3.86265,-4.00513 -7.3407,0.14622 0,0 z m 38.745,70.784 -0.51259,-0.089 0.51259,0.089 z M 944.316,588.262 c -0.57124,-3.34412 -4.85868,1.28123 0,0 z m 92.376,357.825 c -0.061,-4.95051 -3.5198,6.32403 0,0 z M 802.549,741.045 c 5.27072,-0.16061 -3.04195,-4.50873 0,0 z m 192.182,298.177 c 4.99348,1.1066 -3.21727,-4.4138 0,0 z M 893.394,662.613 c 1.56894,6.53192 4.13132,-0.62072 0,0 z M 719.636,991.705 c -4.50284,-3.61361 3.16038,4.42155 0,0 z M 962.573,659.844 c -0.95926,-4.30714 -3.82397,1.75743 0,0 z m -141.08,49.034 c 5.82769,0.38392 -3.79627,-2.95944 0,0 z M 793.438,745.5 c 4.32848,0.54259 4.07851,-7.39441 0,0 z m -59.277,290.036 c 4.18948,5.3638 -2.42178,-3.9027 0,0 z m 294.626,-80.828 c -3.1372,-3.0352 -2.6084,4.78832 0,0 z m -121.753,-403.374 2.69621,0.0783 -2.69621,-0.0783 z m -104.393,35.284 c -4.68659,3.18988 4.88788,-2.8696 0,0 z m 28.204,72.444 c 4.89031,-5.01013 -4.61891,3.62308 0,0 z m 126.648,-29.925 c -4.31988,-3.60905 -3.67626,1.63575 0,0 z m -194.596,-47.809 -0.31343,0.1594 0.31343,-0.1594 z m 77.001,84.734 c -3.43663,-4.70814 -1.82301,4.10838 0,0 z m -12.858,55.392 c -4.58633,-4.94933 1.00683,4.66975 0,0 z m 326.672,332.394 c 0.6322,3.237 2.2602,-5.0138 0,0 z M 929.339,699.998 c 6.79196,2.20544 1.35675,-3.55782 0,0 z m -87.166,-30.613 c -1.89555,-3.53999 -2.70882,4.92143 0,0 z m 222.594,90.686 c -1.0815,-4.88412 -2.8139,3.31773 0,0 z M 827.042,563.543 c -5.08302,0.6407 0.18104,2.3882 0,0 z m 97.671,157.23 c 7.81132,0.19304 2.69116,-7.34635 0,0 z m 3.608,-13.476 c 4.98623,2.36742 3.42974,-2.92261 0,0 z M 754.913,585.957 c -2.45077,1.91361 3.90213,-2.04007 0,0 z m 307.104,153.772 c -0.6777,-5.53911 -7.0695,-7.90323 0,0 z m -369.543,-55.63 1.372,-1.251 -1.372,1.251 z m 6.817,276.918 0.99991,1.21856 -0.99991,-1.21856 z m 304.033,-265.603 -0.6734,-1.87361 0.6734,1.87361 z m -212.6,-6.134 -1.17835,1.35804 1.17835,-1.35804 z m 218.086,95.026 0.4559,-1.79973 -0.4559,1.79973 z m -401.025,38.97 -0.74195,3.78521 0.74195,-3.78521 z m 359.738,84.413 3.45592,-0.0301 -3.45592,0.0301 z m 144.591,-101.064 1.2125,-1.15973 -1.2125,1.15973 z m -400.623,152.782 1.23748,1.55381 -1.23748,-1.55381 z m 42.549,-372.963 -1.15328,0.94665 1.15328,-0.94665 z m 234.454,163.683 1.54844,1.10507 -1.54844,-1.10507 z m 15.755,-73.748 -1.2618,0.45303 1.2618,-0.45303 z m -49.05,-49.145 -3.32519,-1.11206 3.32519,1.11206 z m -353.917,196.601 0.953,-0.814 -0.953,0.814 z m 355.74,-185.118 -0.1807,-2.1642 0.1807,2.1642 z m -120.428,480.443 0.0847,1.329 -0.0847,-1.329 z m -9.331,-351.586 1.07716,1.09808 -1.07716,-1.09808 z m 8.223,-16.717 0.3496,1.95649 -0.3496,-1.95649 z m 167.838,-63.941 -0.6395,1.39368 0.6395,-1.39368 z m -274.257,-73.079 -1.43459,0.85745 1.43459,-0.85745 z m 102.711,142.729 1.62334,0.33107 -1.62334,-0.33107 z m 254.673,95.467 1.2254,-0.42153 -1.2254,0.42153 z m -401.807,-158.347 -1.03288,0.25092 1.03288,-0.25092 z m 133.928,71.855 0.1103,-1.75094 -0.1103,1.75094 z m 187.117,-67.194 0,0.002 -0.121,1.679 0.123,-1.681 0,0 z m -336.58,332.825 0.45111,1.5169 -0.45111,-1.5169 z M 805.73,740.648 805.83089,738.97775 805.73,740.648 Z m 202.631,22.147 1.1412,1.16991 -1.1412,-1.16991 z m -179.635,29.075 1.50158,0.68741 L 828.726,791.87 Z m 66.111,-31.193 1.82064,1.26242 -1.82064,-1.26242 z m -116.673,279.622 0.53272,-1.8151 -0.53272,1.8151 z m 336.586,-233.414 -0.9197,0.82574 0.9197,-0.82574 z m 109.879,-31.38 -0.9662,-2.37275 0.9662,2.37275 z M 954.832,602.43 l -1.42064,-0.0584 1.42064,0.0584 z m 99.933,117.327 -0.3017,-1.96059 0.3017,1.96059 z m -99.857,-87.603 0.76041,-1.68941 -0.76041,1.68941 z m -2.869,-1.351 1.25217,0.90142 -1.25217,-0.90142 z m -71.97,144.269 1.59519,-0.77706 -1.59519,0.77706 z m 127.709,-23.331 0.3938,1.2459 -0.3938,-1.2459 z m -154.013,469.999 0.735,-0.812 -0.735,0.812 z m -196.959,-248.585 -1.15069,-0.0481 1.15069,0.0481 z m -27.058,72.72 1.48355,0.9042 -1.48355,-0.9042 z m 364.685,-432.328 -1.5755,-1.26378 1.5755,1.26378 z m -18.506,-3.239 -1.76342,0.1957 1.76342,-0.1957 z m -301.101,98.655 -0.86485,1.90377 0.86485,-1.90377 z m 459.398,107.781 -1.8766,-0.96379 1.8766,0.96379 z m -474.08,133.379 1.31276,-0.10009 -1.31276,0.10009 z m 478.151,-130.733 -0.5259,-1.83941 0.5259,1.83941 z m -91.561,-94.641 1.2588,0.43337 -1.2588,-0.43337 z m -56.696,26.87 -1.78532,-1.01153 1.78532,1.01153 z m 19.435,30.455 0.398,-1.20196 -0.398,1.20196 z m -188.908,-69.971 2.54139,-0.70314 -2.54139,0.70314 z m 208.946,-90.212 -1.4652,-0.82791 1.4652,0.82791 z m -377.72,342.48 1.02021,-1.02171 -1.02021,1.02171 z m -2.146,-82.35 1.22106,-0.11635 -1.22106,0.11635 z m 84.483,-246.869 -0.22279,0.93855 0.22279,-0.93855 z m -23.799,27.671 1.74722,-0.72998 -1.74722,0.72998 z m 30.34,216.819 1.38569,-1.42007 -1.38569,1.42007 z m 35.802,150.253 0.9299,1.7363 -0.9299,-1.7363 z m -58.489,-62.734 1.42025,1.27105 -1.42025,-1.27105 z m 55.914,-376.078 -1.96735,0.96697 1.96735,-0.96697 z m 216.682,162.659 1.486,0.885 -1.486,-0.885 z m -59.48,-63.268 -2.45446,-3.18219 2.45446,3.18219 z m 58.893,340.476 2.10991,-0.087 -2.10991,0.087 z m 64.336,-266.935 -1.5564,-0.42545 1.5564,0.42545 z m -283.06,16.541 1.97963,0.38915 -1.97963,-0.38915 z m -66.848,-107.672 1.57935,-1.37905 -1.57935,1.37905 z m 510.154,107.419 -0.6091,-0.41957 0.6091,0.41957 z m -599.998,3.503 -0.067,-1.38098 0.067,1.38098 z m 390.345,-101.919 -0.9293,-1.57463 0.9293,1.57463 z m 96.343,121.108 1.42,1.55403 -1.42,-1.55403 z m -88.695,-92.057 -0.499,-1.22034 0.499,1.22034 z m 127.132,93.942 1.0523,-0.62561 -1.0523,0.62561 z m 11.041,6.053 -1.2637,-0.0208 1.2637,0.0208 z m -219.253,-113.929 -1.207,-1.309 1.206,1.312 0.001,-0.003 z m -290.076,185.422 1.96577,-0.38808 -1.96577,0.38808 z m 116.945,337.632 1.226,0.54 -1.228,-0.54 0.002,0 z m -33.479,-593.335 0.28823,0.57337 -0.28823,-0.57337 z m 415.899,195.86 1.4083,-0.2249 -1.4083,0.2249 z m -441.458,-145.802 -10e-4,0 1.436,-0.675 -1.435,0.675 0,0 z m 79.257,359.158 -0.89237,-1.8112 0.89237,1.8112 z m -147.668,-137.788 1.20776,-1.71086 -1.20776,1.71086 z m 328.283,-188.062 0.71933,-1.97294 -0.71933,1.97294 z m -179.776,344.212 -1.62939,0.1317 1.62939,-0.1317 z m 58.607,64.366 -0.50962,1.1012 0.50962,-1.1012 z m -122.478,-153.635 -0.95707,-4.52678 0.95707,4.52678 z m 516.443,-112.018 -0.5594,-0.0682 0.5594,0.0682 z m -634.813,-1.097 -0.0402,1.98201 0.0402,-1.98201 z m 554.248,-45.592 -1.3201,-1.82412 1.3201,1.82412 z m -343.98,-240.589 -2.32653,0.53409 2.32653,-0.53409 z m 193.177,209.604 1.2287,-0.77086 -1.2287,0.77086 z m -242.037,92.188 1.97969,0.35813 -1.97969,-0.35813 z m 80.476,-158.069 1.683,-0.514 -1.683,0.514 z m -141.193,249.922 1.55469,1.40766 -1.55469,-1.40766 z m 317.964,-233.262 0.7255,-1.27451 -0.7255,1.27451 z m -172.778,395.86 -2.37763,0.1218 2.37763,-0.1218 z m 237.472,-259.913 -0.9426,1.40716 0.9426,-1.40716 z m -50.525,-240.118 0.2624,0.95668 -0.2624,-0.95668 z m -300.81,4.115 0.914,-0.901 -0.914,0.901 z m 289.235,164.76 0.2064,-2.16112 -0.2064,2.16112 z m -3.509,162.947 1.1542,1.61207 -1.1542,-1.61207 z m 192.382,-122.596 0.6803,-0.4371 -0.6803,0.4371 z m 11.4,-53.889 -0.1662,-1.31572 0.1662,1.31572 z m -492.3,-161.719 0.79675,0.21079 -0.79675,-0.21079 z m -51.784,87.35 -1.10648,1.53076 1.10648,-1.53076 z m 70.738,-110.487 -2.25196,1.52013 2.25196,-1.52013 z m -10.362,299.347 -2.06865,2.94137 2.06865,-2.94137 z m 249.808,137.97 1.78628,-0.906 -1.78628,0.906 z m -174.672,-282.29 -1.31474,-0.83258 1.31474,0.83258 z m 23.093,373.871 2.08215,0.2807 -2.08215,-0.2807 z m 409.806,-157.786 -0.19,1.89235 0.19,-1.89235 z m -571.488,-249.23 -0.96544,1.07326 0.96544,-1.07326 z m 200.796,423.687 0.23098,-1.196 -0.23098,1.196 z m -99.368,-89.389 1.04425,-0.9738 -1.04425,0.9738 z m -112.751,-160.658 0.87779,1.01289 -0.87779,-1.01289 z m 357.073,-162.652 -0.746,1.66982 0.746,-1.66982 z m -316.028,-50.142 -1.26147,0.93638 1.26147,-0.93638 z m 127.181,-23.948 1.78475,-0.93304 -1.78475,0.93304 z m 301.649,197.506 1.1284,0.14174 -1.1284,-0.14174 z m -254.657,363.026 1.59548,0.045 -1.59548,-0.045 z m 84.365,-577.911 -1.46295,-0.36042 1.46295,0.36042 z m -118.202,203.002 1.53157,-0.28256 -1.53157,0.28256 z m -42.067,-116.936 -1.26956,1.9161 1.26956,-1.9161 z m -94.158,-47.043 1.42335,-1.43543 -1.42335,1.43543 z m 452.763,137.143 0.2443,-1.59518 -0.2443,1.59518 z m -3.242,-4.436 -0.9099,1.12293 0.9099,-1.12293 z m -285.356,407.782 1.267,-0.227 -1.268,0.225 10e-4,0 0,0 z m 1.693,-482.956 1.95096,-0.31903 -1.95096,0.31903 z m 284.518,81.886 -0.188,1.19183 0.188,-1.19183 z M 962.81,653.278 l 0.32489,-1.3141 -0.32489,1.3141 z m -227.026,-52.497 -0.21294,1.66431 0.21294,-1.66431 z m 162.53,-20.559 1.188,0.63 -1.186,-0.631 -0.002,10e-4 z m 263.76,235.031 -0.429,-1.61379 0.429,1.61379 z M 889.247,780.09 887.56965,779.15474 889.247,780.09 Z m -128.228,441.133 1.39724,0.6001 -1.39724,-0.6001 z m 69.715,-98.579 1.63142,-1.1333 -1.63142,1.1333 z m -123.203,-184.879 -3.64974,-0.52259 3.64974,0.52259 z m 313.72,-143.044 1.5356,-0.92159 -1.5356,0.92159 z m 38.085,-35.852 -0.525,1.219 0.525,-1.219 z m -60.53,273.959 1.07757,-1.3823 -1.07757,1.3823 z m -151.727,-298.566 1.2007,-0.81026 -1.2007,0.81026 z m -90.704,275.319 1.64684,0.3073 -1.64684,-0.3073 z m -118.558,-124.353 2.50136,-2.29875 -2.50136,2.29875 z m 68.916,-215.141 -0.83524,1.11748 0.83524,-1.11748 z m 199.421,-86.113 0.0665,1.19338 -0.0665,-1.19338 z m 247.467,225.34 0.1158,-1.84841 -0.1158,1.84841 z m -243.087,-257.849 -0.74614,0.0804 0.74614,-0.0804 z m -282.046,491.74 1.24668,1.2067 -1.24668,-1.2067 z m 409.36,-238.826 1.4808,-0.93383 -1.4808,0.93383 z m -32.555,-122.262 -0.9689,0.55902 0.9689,-0.55902 z m -177.84,-20.291 -1.46769,1.33688 1.46769,-1.33688 z m 303.02,92.862 -1.407,0.45009 1.407,-0.45009 z m -173.664,149.647 -1.53432,-0.3576 1.53432,0.3576 z m 36.605,-287.601 -0.78274,-0.83488 0.78274,0.83488 z m -33.766,286.779 1.53743,-0.0562 -1.53743,0.0562 z m -211.906,-312.76 -1.38996,1.40136 1.38996,-1.40136 z m -39.15,78.494 -1.11721,1.42911 1.11721,-1.42911 z m -48.286,274.197 1.23522,0.20261 -1.23522,-0.20261 z m 53.812,10.523 1.27265,3.78711 -1.27265,-3.78711 z m -25.922,-263.693 -1.02078,0.99691 1.02078,-0.99691 z m 379.74,69.208 -0.3431,1.44061 0.3431,-1.44061 z m -281.439,286.359 -0.95961,-1.46 0.95961,1.46 z m 56.011,-491.083 -0.886,0.162 0.886,-0.162 z m -18.259,108.752 1.95214,0.44653 L 824.249,663.51 Z m -131.572,19.525 -0.5308,1.05957 0.5308,-1.05957 z m 44.55,353.363 0.83879,1.5481 -0.83879,-1.5481 z m -96.608,-153.644 0.91589,-0.50125 -0.91589,0.50125 z m 94.002,-249.845 1.25986,0.041 -1.25986,-0.041 z m 92.897,38.901 -1.54494,-0.26795 1.54494,0.26795 z m -140.688,17.948 1.51089,-1.4904 -1.51089,1.4904 z m 41.611,206.661 1.62626,-0.9763 -1.62626,0.9763 z m 232.885,-261.073 -0.35871,0.80776 0.35871,-0.80776 z m -209.469,-47.208 -0.17211,-0.42614 0.17211,0.42614 z m 121.437,547.969 2.00169,-0.1689 -2.00169,0.1689 z m 141.628,-207.393 1.64,0.083 -1.64,-0.083 z m 226.008,48.625 0.5091,-2.23673 -0.5091,2.23673 z m -627.114,-188.166 -0.24248,1.69072 0.24248,-1.69072 z m 292.589,-208.779 1.13661,0.63666 -1.13661,-0.63666 z m -29.741,145.558 -0.05,-1.98037 0.05,1.98037 z m -78.655,-33.906 -0.45266,1.30234 0.45266,-1.30234 z m 346.381,105.012 -0.537,1.04825 0.537,-1.04825 z m -139.529,-97.136 0.2456,1.38103 -0.2456,-1.38103 z m -304.02,264.357 -0.26059,-1.94989 0.26059,1.94989 z m 349.63,-136.057 1.2378,-0.0894 -1.2378,0.0894 z m 81.992,-75.429 -0.7908,0.93087 0.7908,-0.93087 z m -349.869,-179.877 -1.01,0.526 1.012,-0.526 -0.002,0 z m -120.92,318.23 0.48718,1.18803 -0.48718,-1.18803 z m 184.821,-234.298 1.55299,-1.44665 -1.55299,1.44665 z m -86.918,356.148 1.85144,0.1043 -1.85144,-0.1043 z M 957.36,647.879 957.04057,646.56955 957.36,647.879 Z m -323.979,402.1 1.52729,0.2179 -1.52729,-0.2179 z m 608.449,-214.715 -0.034,-1.11996 0.034,1.11996 z M 671.812,714.13 671.30704,715.30354 671.812,714.13 Z m 392.638,40.264 -1.6603,-0.93623 1.6603,0.93623 z m -61.741,-72.156 0.28,-2.12387 -0.28,2.12387 z m -175.723,34.998 -0.76761,1.76018 0.76761,-1.76018 z m 170.988,311.174 0.71387,1.0995 -0.71387,-1.0995 z m -323.607,58.726 0.88567,-0.1402 -0.88567,0.1402 z m -21.869,-126.325 0.002,0 0.945,-1.135 -0.947,1.135 z m 116.181,-381.905 0.62977,-0.42873 -0.62977,0.42873 z m -65.481,356.878 0.79893,1.43609 -0.79893,-1.43609 z m 96.025,-252.351 -0.77199,1.20698 0.77199,-1.20698 z m 13.975,17.63 -0.84641,-1.31388 0.84641,1.31388 z m 5.206,-25.687 -1.73591,-1.13496 1.73591,1.13496 z m -192.931,365.669 1.03905,1.4254 -1.03905,-1.4254 z m 83.127,-103.967 1.18254,0.843 -1.18254,-0.843 z m 245.461,-307.988 -1.00753,-1.0078 1.00753,1.0078 z m -276.083,72.16 0.21257,1.11385 L 677.978,701.25 Z m -77.718,159.994 0.31234,-1.59322 -0.31234,1.59322 z m 237.991,-305.577 -0.92975,0.2101 0.92975,-0.2101 z m -27.222,288.945 2.42066,-1.25935 -2.42066,1.25935 z m 94.111,-96.011 1.79265,-0.64288 -1.79265,0.64288 z m -39.905,381.569 0.48983,-1.0878 -0.48983,1.0878 z M 842.21,849.177 841.21951,850.14765 842.21,849.177 Z m -89.207,18.766 1.38722,0.17991 -1.38722,-0.17991 z m -148.382,-12.585 0.29563,1.15306 -0.29563,-1.15306 z m 181.503,-283.387 -2.21805,0.79659 2.21805,-0.79659 z m 316.016,232.702 1.2456,0.60206 -1.2456,-0.60206 z m -268.92,318.878 0.95057,-0.8641 -0.95057,0.8641 z m 179.028,-340.225 1.2875,0.40894 -1.2875,-0.40894 z m 39.473,45.931 1.0568,0.79571 -1.0568,-0.79571 z m 0.011,-105.402 -2.1383,-0.95153 2.1383,0.95153 z m -176.873,-7.934 0.38639,1.20251 -0.38639,-1.20251 z m -104.67,301.88 1.18175,1.1377 -1.18175,-1.1377 z m 76.097,-335.186 0.93513,-0.92623 -0.93513,0.92623 z m -56.32,-90.166 -0.74909,0.75749 0.74909,-0.75749 z m -67.274,393.91 -1.58364,-1.0334 1.58364,1.0334 z m 463.689,-168.859 0.2697,-1.04246 -0.2697,1.04246 z m -23.2,292.66 9e-4,0.5547 -9e-4,-0.5547 z m -37.274,-241.901 -0.4901,1.31239 0.4901,-1.31239 z m -242.281,-89.294 0.85124,-1.12458 -0.85124,1.12458 z m 170.736,-15.853 1.2232,0.007 -1.2232,-0.007 z m -324.017,-122.906 -0.73,-0.453 0.73,0.453 z m 197.659,42.42 -0.27103,-1.20737 0.27103,1.20737 z m 169.112,141.244 0.7105,-1.17203 -0.7105,1.17203 z m -263.898,298.375 -0.82866,1.0361 0.82866,-1.0361 z m -15.565,-372.682 1.11398,1.81808 -1.11398,-1.81808 z m 1.202,-83.166 1.71335,-1.17435 -1.71335,1.17435 z m 14.701,454.494 1.3491,0.059 -1.3491,-0.059 z m -58.748,-347.775 2.01811,-0.96754 -2.01811,0.96754 z m 50.481,-63.134 -2.03057,0.37518 2.03057,-0.37518 z m 9.934,-48.946 -0.53836,-1.25673 0.53836,1.25673 z m -140.935,20.528 -0.26573,1.1222 0.26573,-1.1222 z m 129.435,-28.645 -1.07251,-0.4327 1.07251,0.4327 z m -142.166,317.297 1.38517,1.06086 -1.38517,-1.06086 z m 224.219,-395.73 c -4.20857,-2.18259 -1.18986,1.48104 0,0 z m 145.417,183.195 0.9979,0.96467 -0.9979,-0.96467 z m 92.671,41.611 -0.1915,1.84421 0.1915,-1.84421 z m -88.074,-37.528 0.6223,1.66839 -0.6223,-1.66839 z m -183.204,-51.551 -1.54064,0.831 1.54064,-0.831 z m -10.765,-29.364 -1.24031,-0.73573 1.24031,0.73573 z m 92.581,224.846 2.15794,0.14424 L 954.402,905.695 Z M 824.91,665.583 823.09991,664.93813 824.91,665.583 Z m -41.166,19.798 0.41035,0.89628 -0.41035,-0.89628 z m 205.779,-73.66 0.93351,-0.68283 -0.93351,0.68283 z m 58.557,167.815 0.772,-1.12338 -0.772,1.12338 z m 103.743,44.802 -0.8851,-1.01583 0.8851,1.01583 z m -314.549,-151.213 1.55478,-1.22728 -1.55478,1.22728 z m -113.503,299.038 1.19944,0.99482 -1.19944,-0.99482 z m 173.976,-219.551 1.46827,2.23499 -1.46827,-2.23499 z m -73.468,-87.904 -0.64594,-0.80688 0.64594,0.80688 z m -45.454,109.524 -1.5142,0.83595 1.5142,-0.83595 z m 20.684,-167.516 0.38477,0.5482 -0.38477,-0.5482 z M 960,631.861 958.26728,631.08847 960,631.861 Z m -87.17,101.522 1.76292,0.099 -1.76292,-0.099 z m -173.59,-53.38 -1.14463,0.0358 1.14463,-0.0358 z m 126.727,32.139 -0.8375,1.50152 0.8375,-1.50152 z m 196.959,34.176 -0.955,-1.12198 0.955,1.12198 z m -323.944,186.694 -0.42303,1.22553 0.42303,-1.22553 z m 130.931,-260.684 1.07881,-0.84088 -1.07881,0.84088 z m 59.92,-7.068 -1.08787,-1.57832 1.08787,1.57832 z m -17.241,51.719 0.95949,-0.9056 -0.95949,0.9056 z m 136.725,38.684 -2.0555,-3.25627 2.0555,3.25627 z M 900,660.756 l -1.146,-1.074 1.146,1.074 z m -0.907,0.607 -0.898,-0.89988 0.898,0.89988 z"
       id="polygon0"
       inkscape:connector-curvature="0" />
  </g>
  <radialGradient
     id="path3517_1_"
     cx="6513.3086"
     cy="-7210.5059"
     r="17986.939"
     gradientTransform="matrix(0.0195,1.352274e-4,1.352237e-4,-0.0195,774.1678,756.2928)"
     gradientUnits="userSpaceOnUse">
    <stop
       offset="0"
       style="stop-color:#000;stop-opacity:0"
       id="stop394" />
    <stop
       offset="1"
       style="stop-color:#000;stop-opacity:0.498"
       id="stop396" />
  </radialGradient>
</svg>
