<svg height="65.359177" viewBox="550 550 69.143946 76.252373" width="59.266239" xmlns="http://www.w3.org/2000/svg" xmlns:xlink="http://www.w3.org/1999/xlink">
<linearGradient id="a">
<stop offset="0" stop-color="#fff"/>
<stop offset="1" stop-color="#e4f363"/>
</linearGradient>
<radialGradient id="b" cx="745.86865" cy="741.87976" gradientTransform="matrix(.11010059 .19005404 -.16733418 .09693869 611.45477 359.57503)" gradientUnits="userSpaceOnUse" r="350">
<stop offset="0" stop-color="#0d7200"/>
<stop offset="1" stop-color="#0d1d00"/>
</radialGradient>
<filter id="c" color-interpolation-filters="sRGB">
<feGaussianBlur result="fbSourceGraphic" stdDeviation="10 10"/>
<feColorMatrix in="fbSourceGraphic" result="fbSourceGraphicAlpha" values="0 0 0 -1 0 0 0 0 -1 0 0 0 0 -1 0 0 0 0 1 0"/>
<feGaussianBlur in="fbSourceGraphic" result="blur" stdDeviation="10 10"/>
</filter>
<radialGradient cx="922.88159" cy="891.1463" gradientTransform="matrix(1 0 0 1.0498376 0 -44.412599)" gradientUnits="userSpaceOnUse" r="325.74777" xlink:href="#a"/>
<radialGradient id="d" cx="717.8399" cy="683.70209" gradientTransform="matrix(.02190706 1.1210869 -1.2678229 .02477441 1566.3313 -121.41178)" gradientUnits="userSpaceOnUse" r="325.74777" xlink:href="#a"/>
<radialGradient id="e" cx="7976.3457" cy="-10508.842" gradientTransform="matrix(.0222 0 0 -.0248 721.1671 674.6745)" gradientUnits="userSpaceOnUse" r="13293.867">
<stop offset="0" stop-color="#80ff80"/>
<stop offset="1" stop-color="#0f0"/>
</radialGradient>
<path d="m1319.9999 969.99999c0 193.29991-156.701 349.99991-349.99991 349.99991-193.3 0-350-156.7-350-349.99991 0-193.3 156.7-350 350-350 193.29891 0 349.99991 156.7 349.99991 350z" filter="url(#c)" transform="matrix(.078033 0 0 .078033 508.89062 512.55229)"/>
<path d="m611.53002 587.88014c0 15.08378-12.22785 27.31155-27.31155 27.31155-15.08378 0-27.31155-12.22777-27.31155-27.31155 0-15.08378 12.22777-27.31155 27.31155-27.31155 15.0837 0 27.31155 12.22777 27.31155 27.31155z" fill="url(#b)"/>
<path d="m738.059 824.52l-4.896-2.991 3.183 4.563 1.697-1.541zm315.115-124.435l-.383 1.419 1.727.363-1.317-1.773zm-257.087 112.336l-2.255.589.465 1.879 1.814-2.44zm-70.86-12.684l-3.059.086 3.033-.077zm507.893 171.781l-.121-1.182.118 1.188v-.006m1.431 4.062l-.34-.164.341.166zm-490.636-279.995l-1.29-.768 1.215.783zm461.488 304.626l1.548-2.094-1.536 2.067zm-461.774-304.148l-2.035-.956 2.023.955zm305.072 4.142l-1.344-.514 1.317.515zm186.587 263.978v-.003l-.166-.673.163.676m-97.138-286.087l.064.801-.063-.798zm-373.039 161.109l-2.353.707 2.337-.677zm46.254 289.391l-.434-1.414.419 1.393zm-40.176-62.291l-1.831-.333 1.871.346zm61.266 62.881l1.77.989-1.741-.978zm399.868-148.699l-.027 1.02.03-1.032v.012m-85.152-270.635l1.13.812-1.113-.81zm-427.622 49.937l-.003.001-1.005 1.075zm9.885 37.886l-1.26.07 1.234-.036zm411.98-115.919l-.672-1.176.654 1.173zm-343.025 536.588l.573.66-.549-.659zm260.171-528.531l1.178.889-1.171-.889h-.01m-119.445-121.01h-.003l-.188.437zm-4.625-9.775l-1.369-.157 1.377.166z" fill="url(#e)" transform="matrix(.078033 0 0 .078033 513.98877 517.65044)"/>
<path d="m819.353 587.924c25.23263-16.16335 62.13234-10.4476 80.88894-12.95268 14.02347-3.63103 46.8515 12.86747 49.40387 14.70591-28.94522 4.80305 30.42503 18.17105 39.0546 18.89569 20.17549-6.44343-6.37884 1.80037 11.98619 5.33288-9.80296 9.00257 19.1346-3.87005 16.1238 1.41094 42.7079 12.40979-41.99481-5.22374-8.6058 9.84827 19.6626-5.38734 8.9952 9.95365 21.6534 18.91699-10.8949 2.06344 19.4217 19.27136-2.1306 14.39361 22.4033 4.05771 22.0472 37.79538 6.0614 18.81317 11.1811-21.17555-25.2896-3.70019-27.2852 1.4407-7.64635 14.43195 16.7274 38.30449 11.8962 49.44491-.9466 15.0282 3.4858 12.77017 15.9223 25.64546 1.2698-25.24798 13.9733 1.81073 26.2092-.75101 1.206-25.22456-34.4424-33.83792-30.4119-56.49836 10.6089 11.08574 24.4702 33.40567 33.0843 10.64308-3.3188 9.62329 1.6302 15.85335 5.7926 22.29651-5.6295 6.69382 17.2596 18.47359-.6485 27.23376-4.2405 16.72696-19.9586 2.97337-24.2022-3.91316 1.4039 14.65401 19.2894 17.07638 5.3838 32.05535 10.1813 21.4314-33.1926 39.43825 2.5501 43.42131 18.4968 25.31979-39.1262 19.74578-13.4439 47.96692 5.323 32.36696 52.1987 2.67373 34.3488-22.34262 1.5881-22.748 14.9466-41.55141 40.2737-30.55912 15.4634 8.90695 17.0935 8.62846 11.1508-6.42346-17.0664 6.24828-44.0289-22.79284-12.4753-11.18096 17.8324-.50084 31.3632 19.81565 37.4349 14.91126-4.4721-9.81711-16.7224-20.40675-3.7844-29.06092-7.8861-12.81185-28.6412-45.96359-6.5902-37.36726-1.8773-2.78858-11.4334-32.41594.414-10.95811 13.8432-5.57503 31.9752 12.43587 11.6219 21.59874-12.9597 19.15079 3.0575 62.51403 20.1806 27.55146 2.0497-20.2749 25.9424 28.42039 10.2325 35.17172-9.5699 14.95208-31.9813 14.17077-22.3788 37.31702-18.0244 1.15538-39.975 13.861-42.4038-11.93219-22.9018 11.60688-38.0545 36.58915-58.4706 46.48625-3.9269 29.73138-15.5451 52.35363-27.1216 81.38939-7.3935 18.33881 9.7411 36.50425 1.5501 55.45935 6.8759 8.1917 25.5598 27.8622 46.2318 31.5803 24.2015-1.9317 44.4469-24.7108 63.6167-36.8877 11.6286 7.6371 29.0818-17.9663 24.3094 12.4776-7.1881 17.2324 24.6593 28.934 5.2175 49.4125-5.7472 11.5284-20.6184 58.2595-20.2978 50.2678 54.1932-56.0123 89.5275-130.4098 95.0464-208.41936 3.6405-26.56496 1.8583-76.16505-4.0068-88.8888 5.7845 24.98493-6.4368 31.68397-19.8486 11.03259-16.3719-14.69855-46.5052-46.28194-11.774-22.98672 16.3592.60142 32.8356 50.18795 28.3231 13.07176-3.399-28.43173-4.872-68.47947-26.7209-85.92271 15.52 21.60166-.6043 29.75589-10.905 7.57366 25.4231 3.73737-4.8992-52.7673 2.0311-42.29024 8.0338 13.85467 21.8658 43.45213 6.9456 12.71654-10.5225-23.93194-42.4278-64.89584-49.8987-72.33874 5.9161 6.29957 22.0439 25.9523 33.0537 43.31488-20.2651-30.04832-33.3956-45.50248-58.8255-69.3133-35.2127-32.70795-83.5461-59.85489-126.805-73.51305-16.97181-5.20448-21.62083-6.41274-6.3851-2.04281-31.77794-10.58326-81.31486-16.60788-104.77685-14.43863 38.5127.47626-25.22788 5.40229-39.0848 6.74599-12.95743 7.00067-41.10247 15.78651-11.70535-1.34136-18.47361-1.22098-19.57229 4.93439-22.738 11.151-10.55728.62953-39.03011 22.8268-11.15752 12.48529-8.64791 6.42746-34.84104 20.06766-9.21854 11.47358 5.54037-.25825 10.80162-1.90345 16.10796-3.33087zm-43.586 639.285c21.70671 8.6686 11.51894 3.2033 21.62359 5.1338 10.26649 1.07 28.21768 2.1931 12.31903-5.0028 27.60142 12.5799 35.93972-7.5473 55.96982-13.8049 25.5875 4.0577 39.79206-15.5163 45.32829-35.7865 33.55185-14.6432 13.12161-39.1353-14.69811-39.5044-25.65781 3.6226-34.07541-17.18-59.71262-7.9722 20.3636-.5423 2.61084-12.6006-6.07844-6.14 23.63294-32.968-37.96239-30.5162-48.9096-54.2818-13.45298-23.0231-37.10212-15.8975-55.63484-32.7449-15.85994 21.4109 6.39367-18.7736-19.47012-5.7923-12.57341 4.6506-15.7928 13.0223-24.18625-3.4578-36.80021-4.4524 1.02659-51.15618-34.41633-59.59824 13.89682-12.60783 16.41887-41.3716-9.02904-21.93173-25.99086-11.61278-12.26593-67.87968 12.69926-64.96546 8.98809 1.28711 17.72175 25.87608 18.05624 9.50416 26.55812 4.728 16.69796 36.44473 25.98327 48.07174 2.19798-24.18365 9.93853-46.99619 36.87134-48.24779 1.88424-6.08658 6.63897-33.08536 5.93632-8.55209 5.61488-21.62891 30.94424-8.02006 35.95233-27.24037 13.1425-4.39012 38.47288-5.66257 15.06726 5.29651 15.36063-1.1163 27.37848-2.75095 9.94738-13.66188-2.53293-15.6223-3.00671-5.77854 3.77317-14.17888-10.7156-9.84852-36.28341 10.4245-10.29024-6.06803 22.9366 3.44262 62.15953-5.76821 42.15875-18.42623-1.04071-6.10735-9.19988-21.18573-6.82254-33.39008-.9379-9.60994-21.41108 13.0227-17.88692-10.3638 15.30369-4.57919-15.95925-32.57118-15.975-6.92-7.41198 12.65222-14.0709 22.80948-25.33375 30.8938-4.13207 26.5-18.9462-1.3248-4.82728-11.32226-16.08635-17.31261-18.92501-53.09205 13.64303-51.55254-7.55391-14.78964 16.44308 9.5187 13.17261-9.3169 15.3314 14.68927 39.58813-23.28298 11.60946-4.77418-3.73985-8.72811 16.98647-37.90308-3.55764-15.84417-14.28335 18.53862-10.06619-23.49204-26.83128-7.28061 1.40132-16.52873 15.22583-34.91848 2.3882-47.55799 14.65908-10.8548 39.77219-49.08159 6.18486-33.29821 10.6408-19.29832-17.86409 12.14989-17.50901-4.78514-13.39123 4.78395-29.27594 19.02343-33.4072 10.7562-3.42949 14.42684 22.14503 11.34477 3.725 17.467 10.07288 6.91878-23.51009 30.05343-14.34776 30.51839-19.31628 15.00864-23.01612 23.9393-38.54226 36.63184 1.41043 8.53041-23.64432 36.97434-12.0307 16.30279-20.97457 17.61672-49.0818 37.89531-52.75596 70.4322-6.44093 25.30891-22.26567 59.02617-16.80036 78.94716 3.41765-15.95178 7.32477-51.24474 14.29477-50.94416-7.3745 34.06752-13.02014 70.63413-8.38221 104.47352 10.56925 34.01456 42.08025 56.24325 48.98394 91.12813 8.00313 15.655 17.77607 26.212 31.10619 27.645 16.43319 22.5883-13.0936 30.3-11.59591 45.9051-1.32219 25.5453 19.85988 51.2238 37.0054 70.642 33.26155 12.1875 28.51779 72.657 58.16497 72.1783 2.34.9658 4.70231 1.8778 7.06689 2.7807zm109.893-447.266c11.07938-14.40572 12.29552-32.87905 30.34689-42.17199-.18134-6.22978 34.60977-16.2967 7.78697-17.60286-4.35341-11.34026 24.62002 2.94778 3.14314-9.93315-11.16794-8.85549 14.49555-5.28023 1.10522-14.54164 1.30749-10.07471-10.15482-15.59201-5.07785-31.95646-18.18329 10.80357-13.27144-13.10209-25.12829-.31067-18.33428 1.59325-39.33783 11.77592-35.7574 24.35769 19.89798 4.70149 4.88289 27.75208 14.93596 31.89076-4.04089 2.26374 1.97746 14.03501-6.23112 15.11817 16.00256-3.16855-11.79273 4.9098 2.01454 6.56949-5.14981 8.85735-2.10503 19.59628 5.85395 32.17295 8.63518-1.95815 3.04561.36086 7.00799 6.40771zm-57.795-21.505c-11.31988-19.71292 16.71534 4.73505 5.64124-18.78318 2.70028-11.14885 9.98066 7.18871 13.86242-4.47964-8.33615-6.8714-6.34445-17.60244-4.33659-23.11076-5.17151-6.08701-9.57319-13.55031-12.04904-22.55864-18.40281 7.26072-16.35278 11.75322-3.81708 21.1318 7.90362 15.74241-12.50503 20.18818-16.09233 25.99126 11.20006 1.72245 3.45729 17.0276 16.79138 21.80916zm46.872-103.146c-22.70508-3.91639-5.39812 9.17518-15.45662 9.79805-8.59203 1.31149-26.91193 15.93142-11.06638 10.70995 9.01943-1.815 46.55481-13.29861 26.523-20.508zm167.491 145.922c.065-18.59384-26.4871-20.63784-35.3841-35.05821-2.9763 21.32386 22.3656 15.90355 19.2437 36.57844 10.1562-4.47678-6.2159 21.29762 10.0052 1.94454l3.1171-2.43674zm-204.82 50.769c10.6977.97042 8.55416.64995 7.71172-10.74284-15.92613-1.81575 2.9837-26.69426-13.88483-7.85515-23.43942 11.78361 13.86081 12.29426 4.48457 17.88262zm-57.71-179.463c9.79321 35.48987 38.71468-16.81323 12.73603-12.011-7.91339 19.22325-8.3381-5.93173-12.73603 12.011zm180.694 78.376c19.39769-21.51138-38.3692-10.47807-11.35547 2.22662 4.30301.44084 8.86465 2.61762 11.35547-2.22662zm54.155 56.066c8.0193-34.5376-22.95389-7.08683-2.671 2.77711zm-186.128-130.199c26.68876 35.23786 7.5045-20.59256 0 0zm-16.175-21.211c-2.75974 11.27064 20.31835 3.44201 4.88 2.962 7.22471-7.11553-1.69346-6.45234-4.88-2.962zm33.583 6.377c.70055 18.00299 19.64553-14.96944 1.87862-2.62123-.1723 1.54837 4.81995 7.74839-1.87862 2.62123zm119.01 5.537c.9237-15.23078-25.86945-8.3397-7.698-2.243-2.9256-9.41308 4.12737 4.88177 7.698 2.243zm30.638-34.101c-13.05043-8.09495-24.45784-13.01384-6.83697.69679 7.85775 5.35635 15.82887 3.46907 6.83697-.69679zm-284.221 348.573c3.10598-11.11996-37.28571-44.13974-32.12547-32.23122 18.45045 5.93796 14.19498 28.74631 32.12547 32.23122zm16.555 18.333c29.89293 7.747-12.58316-24.62507-11.14557-8.04352-6.61355-1.45251 12.61649 12.84842 11.14557 8.04352zm146.269-449.31c9.27837-1.78522 22.11991-2.57657 17.283-.785-5.76099.26184-11.52205.52233-17.283.785zm-66.003 132.783c23.4454-10.6731-13.67732-12.43919 0 0zm-10.755 52.367c12.14972-27.63855-24.59399-8.96549 0 0zm217.865-94.39c-2.3191-9.97174-24.97229-1.28085-6.181.94303zm-289.143-16.689c-1.25458 7.66242 7.04869-4.82443 0 0zm230.21 26.319c-14.71999 3.45154 9.23401 9.31007 0 0zm-134.78 18.808c15.17243.42495 3.19801-11.17479 0 0zm-28.104-13.475c23.78718 8.23295 7.27412-21.92677-5.34146-1.21095l1.45609 1.03646zm-122.337 52.105c-1.85873 19.51054 16.18449-31.84407 0 0zm28.385-33.872c.10322 3.99452 12.99624-15.65526 0 0zm-10.506 6.554c15.12153-11.56292-9.53135 6.80037 0 0zm214.293-99.042c-15.93219-3.0471-4.74629 8.22084 1.36053 1.44422zm-85.748 271.714c-2.54384-8.84165-13.8636 6.0707 0 0zm8.376-204.834c-13.53379-8.50405-7.05397 5.45765.16882 1.35574zm-5.257 47.812c25.21226-20.7081-17.94242-7.9429 0 0zm237.453 62.845c-3.8138-15.82366-4.5119 5.29628 0 0zm-111.532-154.073c-12.37168-9.25157-4.17202 8.47391 0 0zm-109.359 56.223c11.04825-7.19889-1.60315-12.81149 0 0zm-124.226 1.114l2.18471-2.41279zm98.408 21.717c14.63542 1.66321 13.6392-12.23914 0 0zm156.106-25.694c-12.4252-4.3048 4.43336 7.43505 0 0zm-193.558 115.357c6.2446 1.69209 4.49256-2.19116 0 0zm100.713-48.962c-3.4913-11.279-8.41032 3.70552 0 0zm284.724 99.196c11.3849-14.14921-11.1099 6.25748 0 0zm-531.492 221.218c1.41923-8.6321-3.63792-3.5345 0 0zm129.935 173.648l-1.91462-1.1356zm-54.219-545.027c-3.27123.0754-2.81674 3.99937 0 0zm242.95-72.952c-9.31103-5.17948-7.73961 6.38272 0 0zm-2.542 7.229c-10.1605-6.06501-5.22663 7.0791 0 0zm-235.026 334.149c5.9465 1.08632-1.22483-11.71411 0 0zm394.662-95.863c8.8534-14.02019-17.1861-15.50214 0 0zm-298.155 3.877c9.18181-2.73643-16.08663-10.62623 0 0zm-105.919 137.751c11.68258.99355-17.90594-10.82446 0 0zm34.154-384.917c.75219 5.58496 2.04295-5.4473 0 0zm441.962 198.088c6.1015-7.10561-10.9028-16.08319 0 0zm-399.096 257.528c2.81873-9.8548-10.395 2.9545 0 0zm-71.278-105.626c-.30007-4.70776-3.01953 1.27766 0 0zm128.799-260.053c10.23205 14.25721 5.01777-12.01914 0 0zm192.916-42.312c-3.1445-7.31773-6.5201 2.63226.001 0m-212.841 182.475c-2.96403-11.57508-13.19745-4.96209 0 0zm334.924-32.475c1.95-4.93076-5.0091 1.23364 0 0zm-436.163 149.753c.38399 6.11967-3.0502-13.1489 0 0zm64.568-355.263c5.18036 1.25221 11.96802-8.34353 0 0zm-67.624 70.572c-7.17114 2.3916.18598 5.11331 0 0zm44.241 342.94c3.03857-7.297-14.271-.6269 0 0zm297.65-248.823c5.2856 8.94035 2.7352-5.9648 0 0zm97.009 50.797c-3.8522-6.25986-11.9285 2.9164 0 0zm-147.592-38.739c3.9063 3.63268-1.52152-8.78396 0 0zm4.846-74.227c2.0024-5.90413-3.9392-2.08858 0 0zm-302.339 252.534c5.62795-4.1303-4.76637-8.11914 0 0zm225.428-241.624c10.13308 5.06036-4.27372-6.61006 0 0zm-241.139-20.395l.71842.32793-.71742-.32793m-10.067 265.903c5.48283 3.33265-.74296-7.34902 0 0zm317.074-334.985c-6.23471-1.71222 4.01266 3.58948 0 0zm-187.736 51.34c8.14456.42013-.48608-8.17939 0 0zm81.535-88.123c-22.77051-6.88781-7.72014 2.77531 0 0zm5.977-4.842c1.04494 5.20142 10.63557-3.58713 0 0zm189.96 279.008c3.7932-8.14931-7.7658 1.42952 0 0zm13.246-24.39c2.1997-11.02283-11.2947-9.1015 0 0zm-305.838-141.513c.73594 15.71534 12.2163-9.7739 0 0zm-80.111-25.868c17.34505-5.73237-4.25749-3.74407 0 0zm417.901 177.588c1.8965-22.19251-22.6325 9.6297 0 0zm-372.082-240.972c8.87543-1.42131 1.26128-4.74889 0 0zm-25.748 6.292c-5.03725 5.99403 6.54985-5.465 0 0zm92.515 111.858c-7.05035-7.89571-6.10898 10.32708 0 0zm-33.461 16.082c-13.98917 2.69599 8.34112 2.41722 0 0zm-14.939 290.692c7.01065.012-3.99605-5.3738 0 0zm55.021-373.253c-1.35867-7.73135-7.467 4.17184 0 0zm114.651-45.175l-.57343 1.52625zm-106.733 55.518c9.85937-.64595-1.7862-8.04115 0 0zm403.03 304.999l-.1714.67856zm-222.637-334.3c-5.0861-3.69549-2.8469 5.44616 0 0zm40.401 88.74c-1.185 4.22944 4.5707-2.49265 0 0zm-301.639-119.402c4.37441-.69411-.54958-3.70631 0 0zm249.538 174.625c-2.9266 4.51253 4.4688-.24951 0 0zm-175.793-128.105c2.47986 5.60654 6.34152-1.82435 0 0zm97.772 55.222c-4.35064-3.26599-7.40287 2.44268 0 0zm281.12 52.359c-2.466-6.1738 2.5624 8.22894 0 0zm21.105 107.123c3.123-2.00462-2.785-1.57419 0 0zm-127.604-61.565c-4.7015-1.23056 4.9063 1.82452 0 0zm-496.342 25.208c-3.12633 5.26011 2.97517-.994 0 0zm397.758-53.915c-7.31616-6.12156 1.8855 4.33669 0 0zm53.696-33.004c7.3449 12.87028-2.7111-6.12914 0 0zm-54.807-44.73c-1.344-4.78598-3.0996 1.72881 0 0zm-50.587-32.115c7.39063 1.54216-7.27331-2.65373 0 0zm184.936 156.336c4.7562-.51053-3.8738-3.98422 0 0zm-374.238 401.088l-2.09433-.8896zm-45.697-252.81c3.95499-4.39568-5.64178 4.24682 0 0zm13.876-335.816c5.33767 1.67609-1.97951-2.1331 0 0zm226.672 3.629c-2.51115-5.24146-7.74703-3.77212 0 0zm-260.991 36.214c-3.28032 3.93775 6.00249-4.91241 0 0zm365.362 54.775c2.8644-8.06844-6.5966-1.70004 0 0zm-334.917-102.533c.42632 4.36378 3.97911-4.13917 0 0zm98.532-36.968c-8.14625 2.29725 1.9086 5.40243 0 0zm194.64 367.244c6.6435-5.15285-4.2751-3.4966 0 0zm-18.083-265.771l-.4372 1.66662zm-164.969 431.045c7.0915-1.9965-6.7402-2.7564 0 0zm-10.028-359.639c4.92651-.95966-3.86627-3.12802 0 0zm11.562-182.143c.43847 3.14063 6.47184-3.16241 0 0zm-89.146 286.52c5.77953 3.47238 13.03957-1.38858 0 0zm72.733-193.519c-.35049 10.47515 9.44253-6.58336 0 0zm-116.28-5.657c5.16741-3.94867-8.17493 4.15243 0 0zm .8-2.403l.62701-.33975zm101.92-100.225l1.02993-.28525zm430.317 262.668c-.9836-8.54004.01 5.05271 0 0zm-205.912 124.031c3.2325-11.51123-5.9442 7.03424 0 0zm-230.847-242.398c-2.98935 4.79217 4.77563-4.72686 0 0zm-4.176 12.907c3.30543 4.7544-.44485-7.41123 0 0zm-41.213 64.45c1.63492 8.26769 6.24155-1.18319 0 0zm-79.842 110.463l.64418.37363zm483.275-86.051c2.7061-6.45177-3.6951-.84829 0 0zm-346.819-159.142c6.92688.59938-4.01248-2.86076 0 0zm22.92-96.138l2.30811-.45111zm322.873 477.795c6.2561-.319-3.8827-6.7654 0 0zm-228.576-338.047c5.49963.81223-2.78495-5.33426 0 0zm24.909-64.254c4.8039 1.83504-.85169-4.12712 0 0zm-282.904 454.79c3.43315-.7506-3.49841-2.7414 0 0zm46.543-106.069c3.86265-4.00513-7.3407.14622 0 0zm38.745 70.784l-.51259-.089zm184.239-462.301c-.57124-3.34412-4.85868 1.28123 0 0zm92.376 357.825c-.061-4.95051-3.5198 6.32403 0 0zm-234.143-205.042c5.27072-.16061-3.04195-4.50873 0 0zm192.182 298.177c4.99348 1.1066-3.21727-4.4138 0 0zm-101.337-376.609c1.56894 6.53192 4.13132-.62072 0 0zm-173.758 329.092c-4.50284-3.61361 3.16038 4.42155 0 0zm242.937-331.861c-.95926-4.30714-3.82397 1.75743 0 0zm-141.08 49.034c5.82769.38392-3.79627-2.95944 0 0zm-28.055 36.622c4.32848.54259 4.07851-7.39441 0 0zm-59.277 290.036c4.18948 5.3638-2.42178-3.9027 0 0zm294.626-80.828c-3.1372-3.0352-2.6084 4.78832 0 0zm-121.753-403.374l2.69621.0783zm-104.393 35.284c-4.68659 3.18988 4.88788-2.8696 0 0zm28.204 72.444c4.89031-5.01013-4.61891 3.62308 0 0zm126.648-29.925c-4.31988-3.60905-3.67626 1.63575 0 0zm-194.596-47.809l-.31343.1594zm77.001 84.734c-3.43663-4.70814-1.82301 4.10838 0 0zm-12.858 55.392c-4.58633-4.94933 1.00683 4.66975 0 0zm326.672 332.394c.6322 3.237 2.2602-5.0138 0 0zm-224.373-353.85c6.79196 2.20544 1.35675-3.55782 0 0zm-87.166-30.613c-1.89555-3.53999-2.70882 4.92143 0 0zm222.594 90.686c-1.0815-4.88412-2.8139 3.31773 0 0zm-237.725-196.528c-5.08302.6407.18104 2.3882 0 0zm97.671 157.23c7.81132.19304 2.69116-7.34635 0 0zm3.608-13.476c4.98623 2.36742 3.42974-2.92261 0 0zm-173.408-121.34c-2.45077 1.91361 3.90213-2.04007 0 0zm307.104 153.772c-.6777-5.53911-7.0695-7.90323 0 0zm-369.543-55.63l1.372-1.251zm6.817 276.918l.99991 1.21856zm304.033-265.603l-.6734-1.87361zm-212.6-6.134l-1.17835 1.35804zm218.086 95.026l.4559-1.79973zm-401.025 38.97l-.74195 3.78521zm359.738 84.413l3.45592-.0301zm144.591-101.064l1.2125-1.15973zm-400.623 152.782l1.23748 1.55381zm42.549-372.963l-1.15328.94665zm234.454 163.683l1.54844 1.10507zm15.755-73.748l-1.2618.45303zm-49.05-49.145l-3.32519-1.11206zm-353.917 196.601l.953-.814zm355.74-185.118l-.1807-2.1642zm-120.428 480.443l.0847 1.329zm-9.331-351.586l1.07716 1.09808zm8.223-16.717l.3496 1.95649zm167.838-63.941l-.6395 1.39368zm-274.257-73.079l-1.43459.85745zm102.711 142.729l1.62334.33107zm254.673 95.467l1.2254-.42153zm-401.807-158.347l-1.03288.25092zm133.928 71.855l.1103-1.75094zm187.117-67.194v.002l-.121 1.679.123-1.681 0 0zm-336.58 332.825l.45111 1.5169zm136.621-290.524l.10089-1.67025zm202.631 22.147l1.1412 1.16991zm-179.635 29.075l1.50158.68741zm66.111-31.193l1.82064 1.26242zm-116.673 279.622l.53272-1.8151zm336.586-233.414l-.9197.82574zm109.879-31.38l-.9662-2.37275zm-269.797-173.075l-1.42064-.0584zm99.933 117.327l-.3017-1.96059zm-99.857-87.603l.76041-1.68941zm-2.869-1.351l1.25217.90142zm-71.97 144.269l1.59519-.77706zm127.709-23.331l.3938 1.2459zm-154.013 469.999l.735-.812zm-196.959-248.585l-1.15069-.0481zm-27.058 72.72l1.48355.9042zm364.685-432.328l-1.5755-1.26378zm-18.506-3.239l-1.76342.1957zm-301.101 98.655l-.86485 1.90377zm459.398 107.781l-1.8766-.96379zm-474.08 133.379l1.31276-.10009zm478.151-130.733l-.5259-1.83941zm-91.561-94.641l1.2588.43337zm-56.696 26.87l-1.78532-1.01153zm19.435 30.455l.398-1.20196zm-188.908-69.971l2.54139-.70314zm208.946-90.212l-1.4652-.82791zm-377.72 342.48l1.02021-1.02171zm-2.146-82.35l1.22106-.11635zm84.483-246.869l-.22279.93855zm-23.799 27.671l1.74722-.72998zm30.34 216.819l1.38569-1.42007zm35.802 150.253l.9299 1.7363zm-58.489-62.734l1.42025 1.27105zm55.914-376.078l-1.96735.96697zm216.682 162.659l1.486.885zm-59.48-63.268l-2.45446-3.18219zm58.893 340.476l2.10991-.087zm64.336-266.935l-1.5564-.42545zm-283.06 16.541l1.97963.38915zm-66.848-107.672l1.57935-1.37905zm510.154 107.419l-.6091-.41957zm-599.998 3.503l-.067-1.38098zm390.345-101.919l-.9293-1.57463zm96.343 121.108l1.42 1.55403zm-88.695-92.057l-.499-1.22034zm127.132 93.942l1.0523-.62561zm11.041 6.053l-1.2637-.0208zm-219.253-113.929l-1.207-1.309 1.206 1.312zm-290.076 185.422l1.96577-.38808zm116.945 337.632l1.226.54-1.228-.54zm-33.479-593.335l.28823.57337zm415.899 195.86l1.4083-.2249zm-441.458-145.802h-.001l1.436-.675zm79.257 359.158l-.89237-1.8112zm-147.668-137.788l1.20776-1.71086zm328.283-188.062l.71933-1.97294zm-179.776 344.212l-1.62939.1317zm58.607 64.366l-.50962 1.1012zm-122.478-153.635l-.95707-4.52678zm516.443-112.018l-.5594-.0682zm-634.813-1.097l-.0402 1.98201zm554.248-45.592l-1.3201-1.82412zm-343.98-240.589l-2.32653.53409zm193.177 209.604l1.2287-.77086zm-242.037 92.188l1.97969.35813zm80.476-158.069l1.683-.514zm-141.193 249.922l1.55469 1.40766zm317.964-233.262l.7255-1.27451zm-172.778 395.86l-2.37763.1218zm237.472-259.913l-.9426 1.40716zm-50.525-240.118l.2624.95668zm-300.81 4.115l.914-.901zm289.235 164.76l.2064-2.16112zm-3.509 162.947l1.1542 1.61207zm192.382-122.596l.6803-.4371zm11.4-53.889l-.1662-1.31572zm-492.3-161.719l.79675.21079zm-51.784 87.35l-1.10648 1.53076zm70.738-110.487l-2.25196 1.52013zm-10.362 299.347l-2.06865 2.94137zm249.808 137.97l1.78628-.906zm-174.672-282.29l-1.31474-.83258zm23.093 373.871l2.08215.2807zm409.806-157.786l-.19 1.89235zm-571.488-249.23l-.96544 1.07326zm200.796 423.687l.23098-1.196zm-99.368-89.389l1.04425-.9738zm-112.751-160.658l.87779 1.01289zm357.073-162.652l-.746 1.66982zm-316.028-50.142l-1.26147.93638zm127.181-23.948l1.78475-.93304zm301.649 197.506l1.1284.14174zm-254.657 363.026l1.59548.045zm84.365-577.911l-1.46295-.36042zm-118.202 203.002l1.53157-.28256zm-42.067-116.936l-1.26956 1.9161zm-94.158-47.043l1.42335-1.43543zm452.763 137.143l.2443-1.59518zm-3.242-4.436l-.9099 1.12293zm-285.356 407.782l1.267-.227-1.268.225h.001l0 0zm1.693-482.956l1.95096-.31903zm284.518 81.886l-.188 1.19183zm-192.934-158.994l.32489-1.3141zm-227.026-52.497l-.21294 1.66431zm162.53-20.559l1.188.63-1.186-.631zm263.76 235.031l-.429-1.61379zm-272.827-35.163l-1.67735-.93526zm-128.228 441.133l1.39724.6001zm69.715-98.579l1.63142-1.1333zm-123.203-184.879l-3.64974-.52259zm313.72-143.044l1.5356-.92159zm38.085-35.852l-.525 1.219zm-60.53 273.959l1.07757-1.3823zm-151.727-298.566l1.2007-.81026zm-90.704 275.319l1.64684.3073zm-118.558-124.353l2.50136-2.29875zm68.916-215.141l-.83524 1.11748zm199.421-86.113l.0665 1.19338zm247.467 225.34l.1158-1.84841zm-243.087-257.849l-.74614.0804zm-282.046 491.74l1.24668 1.2067zm409.36-238.826l1.4808-.93383zm-32.555-122.262l-.9689.55902zm-177.84-20.291l-1.46769 1.33688zm303.02 92.862l-1.407.45009zm-173.664 149.647l-1.53432-.3576zm36.605-287.601l-.78274-.83488zm-33.766 286.779l1.53743-.0562zm-211.906-312.76l-1.38996 1.40136zm-39.15 78.494l-1.11721 1.42911zm-48.286 274.197l1.23522.20261zm53.812 10.523l1.27265 3.78711zm-25.922-263.693l-1.02078.99691zm379.74 69.208l-.3431 1.44061zm-281.439 286.359l-.95961-1.46zm56.011-491.083l-.886.162zm-18.259 108.752l1.95214.44653zm-131.572 19.525l-.5308 1.05957zm44.55 353.363l.83879 1.5481zm-96.608-153.644l.91589-.50125zm94.002-249.845l1.25986.041zm92.897 38.901l-1.54494-.26795zm-140.688 17.948l1.51089-1.4904zm41.611 206.661l1.62626-.9763zm232.885-261.073l-.35871.80776zm-209.469-47.208l-.17211-.42614zm121.437 547.969l2.00169-.1689zm141.628-207.393l1.64.083zm226.008 48.625l.5091-2.23673zm-627.114-188.166l-.24248 1.69072zm292.589-208.779l1.13661.63666zm-29.741 145.558l-.05-1.98037zm-78.655-33.906l-.45266 1.30234zm346.381 105.012l-.537 1.04825zm-139.529-97.136l.2456 1.38103zm-304.02 264.357l-.26059-1.94989zm349.63-136.057l1.2378-.0894zm81.992-75.429l-.7908.93087zm-349.869-179.877l-1.01.526 1.012-.526zm-120.92 318.23l.48718 1.18803zm184.821-234.298l1.55299-1.44665zm-86.918 356.148l1.85144.1043zm197.783-365.117l-.31943-1.30945zm-323.979 402.1l1.52729.2179zm608.449-214.715l-.034-1.11996zm-570.018-121.134l-.50496 1.17354zm392.638 40.264l-1.6603-.93623zm-61.741-72.156l.28-2.12387zm-175.723 34.998l-.76761 1.76018zm170.988 311.174l.71387 1.0995zm-323.607 58.726l.88567-.1402zm-21.869-126.325h.002l.945-1.135zm116.181-381.905l.62977-.42873zm-65.481 356.878l.79893 1.43609zm96.025-252.351l-.77199 1.20698zm13.975 17.63l-.84641-1.31388zm5.206-25.687l-1.73591-1.13496zm-192.931 365.669l1.03905 1.4254zm83.127-103.967l1.18254.843zm245.461-307.988l-1.00753-1.0078zm-276.083 72.16l.21257 1.11385zm-77.718 159.994l.31234-1.59322zm237.991-305.577l-.92975.2101zm-27.222 288.945l2.42066-1.25935zm94.111-96.011l1.79265-.64288zm-39.905 381.569l.48983-1.0878zm-23.025-280.993l-.99049.97065zm-89.207 18.766l1.38722.17991zm-148.382-12.585l.29563 1.15306zm181.503-283.387l-2.21805.79659zm316.016 232.702l1.2456.60206zm-268.92 318.878l.95057-.8641zm179.028-340.225l1.2875.40894zm39.473 45.931l1.0568.79571zm.011-105.402l-2.1383-.95153zm-176.873-7.934l.38639 1.20251zm-104.67 301.88l1.18175 1.1377zm76.097-335.186l.93513-.92623zm-56.32-90.166l-.74909.75749zm-67.274 393.91l-1.58364-1.0334zm463.689-168.859l.2697-1.04246zm-23.2 292.66l.0009.5547zm-37.274-241.901l-.4901 1.31239zm-242.281-89.294l.85124-1.12458zm170.736-15.853l1.2232.007zm-324.017-122.906l-.73-.453zm197.659 42.42l-.27103-1.20737zm169.112 141.244l.7105-1.17203zm-263.898 298.375l-.82866 1.0361zm-15.565-372.682l1.11398 1.81808zm1.202-83.166l1.71335-1.17435zm14.701 454.494l1.3491.059zm-58.748-347.775l2.01811-.96754zm50.481-63.134l-2.03057.37518zm9.934-48.946l-.53836-1.25673zm-140.935 20.528l-.26573 1.1222zm129.435-28.645l-1.07251-.4327zm-142.166 317.297l1.38517 1.06086zm224.219-395.73c-4.20857-2.18259-1.18986 1.48104 0 0zm145.417 183.195l.9979.96467zm92.671 41.611l-.1915 1.84421zm-88.074-37.528l.6223 1.66839zm-183.204-51.551l-1.54064.831zm-10.765-29.364l-1.24031-.73573zm92.581 224.846l2.15794.14424zm-129.492-240.112l-1.81009-.64487zm-41.166 19.798l.41035.89628zm205.779-73.66l.93351-.68283zm58.557 167.815l.772-1.12338zm103.743 44.802l-.8851-1.01583zm-314.549-151.213l1.55478-1.22728zm-113.503 299.038l1.19944.99482zm173.976-219.551l1.46827 2.23499zm-73.468-87.904l-.64594-.80688zm-45.454 109.524l-1.5142.83595zm20.684-167.516l.38477.5482zm160.491 25.145l-1.73272-.77253zm-87.17 101.522l1.76292.099zm-173.59-53.38l-1.14463.0358zm126.727 32.139l-.8375 1.50152zm196.959 34.176l-.955-1.12198zm-323.944 186.694l-.42303 1.22553zm130.931-260.684l1.07881-.84088zm59.92-7.068l-1.08787-1.57832zm-17.241 51.719l.95949-.9056zm136.725 38.684l-2.0555-3.25627zm-109.317-94.907l-1.146-1.074zm-.907.607l-.898-.89988z" fill="url(#d)" transform="matrix(.078033 0 0 .078033 513.98877 517.65044)"/>
</svg>
