<?xml version="1.0" encoding="UTF-8"?>
<svg width="59.266" height="65.359" viewBox="550 550 69.144 76.252" xmlns="http://www.w3.org/2000/svg" xmlns:xlink="http://www.w3.org/1999/xlink">
 <linearGradient id="a">
  <stop stop-color="#fff" offset="0"/>
  <stop stop-color="#e4f363" offset="1"/>
 </linearGradient>
 <radialGradient id="b" cx="745.87" cy="741.88" r="350" gradientTransform="matrix(.1101 .19005 -.16733 .096939 611.45 359.58)" gradientUnits="userSpaceOnUse">
  <stop stop-color="#0d7200" offset="0"/>
  <stop stop-color="#0d1d00" offset="1"/>
 </radialGradient>
 <filter id="c" color-interpolation-filters="sRGB">
  <feGaussianBlur result="fbSourceGraphic" stdDeviation="10 10"/>
  <feColorMatrix in="fbSourceGraphic" result="fbSourceGraphicAlpha" values="0 0 0 -1 0 0 0 0 -1 0 0 0 0 -1 0 0 0 0 1 0"/>
  <feGaussianBlur in="fbSourceGraphic" result="blur" stdDeviation="10 10"/>
 </filter>
 <radialGradient cx="922.88" cy="891.15" r="325.75" gradientTransform="matrix(1 0 0 1.0498 0 -44.413)" gradientUnits="userSpaceOnUse" xlink:href="#a"/>
 <radialGradient id="d" cx="717.84" cy="683.7" r="325.75" gradientTransform="matrix(.021907 1.1211 -1.2678 .024774 1566.3 -121.41)" gradientUnits="userSpaceOnUse" xlink:href="#a"/>
 <radialGradient id="e" cx="7976.3" cy="-10509" r="13294" gradientTransform="matrix(.0222 0 0 -.0248 721.17 674.67)" gradientUnits="userSpaceOnUse">
  <stop stop-color="#80ff80" offset="0"/>
  <stop stop-color="#0f0" offset="1"/>
 </radialGradient>
 <path transform="matrix(.078033 0 0 .078033 508.89 512.55)" d="m1320 970c0 193.3-156.7 350-350 350-193.3 0-350-156.7-350-350 0-193.3 156.7-350 350-350 193.3 0 350 156.7 350 350z" filter="url(#c)"/>
 <path d="m611.53 587.88c0 15.084-12.228 27.312-27.312 27.312-15.084 0-27.312-12.228-27.312-27.312s12.228-27.312 27.312-27.312c15.084 0 27.312 12.228 27.312 27.312z" fill="url(#b)"/>
 <path transform="matrix(.078033 0 0 .078033 513.99 517.65)" d="m738.059 824.52l-4.896-2.991 3.183 4.563 1.697-1.541zm315.115-124.435l-.383 1.419 1.727.363-1.317-1.773zm-257.087 112.336l-2.255.589.465 1.879 1.814-2.44zm-70.86-12.684l-3.059.086 3.033-.077zm507.893 171.781l-.121-1.182.118 1.188v-.006m1.431 4.062l-.34-.164.341.166zm-490.636-279.995l-1.29-.768 1.215.783zm461.488 304.626l1.548-2.094-1.536 2.067zm-461.774-304.148l-2.035-.956 2.023.955zm305.072 4.142l-1.344-.514 1.317.515zm186.587 263.978v-.003l-.166-.673.163.676m-97.138-286.087l.064.801-.063-.798zm-373.039 161.109l-2.353.707 2.337-.677zm46.254 289.391l-.434-1.414.419 1.393zm-40.176-62.291l-1.831-.333 1.871.346zm61.266 62.881l1.77.989-1.741-.978zm399.868-148.699l-.027 1.02.03-1.032v.012m-85.152-270.635l1.13.812-1.113-.81zm-427.622 49.937l-.003.001-1.005 1.075zm9.885 37.886l-1.26.07 1.234-.036zm411.98-115.919l-.672-1.176.654 1.173zm-343.025 536.588l.573.66-.549-.659zm260.171-528.531l1.178.889-1.171-.889h-.01m-119.445-121.01h-.003l-.188.437zm-4.625-9.775l-1.369-.157 1.377.166z" fill="url(#e)"/>
 <path transform="matrix(.078033 0 0 .078033 513.99 517.65)" d="m819.35 587.92c25.233-16.163 62.132-10.448 80.889-12.953 14.023-3.631 46.852 12.867 49.404 14.706-28.945 4.803 30.425 18.171 39.055 18.896 20.175-6.4434-6.3788 1.8004 11.986 5.3329-9.803 9.0026 19.135-3.87 16.124 1.4109 42.708 12.41-41.995-5.2237-8.6058 9.8483 19.663-5.3873 8.9952 9.9536 21.653 18.917-10.895 2.0634 19.422 19.271-2.1306 14.394 22.403 4.0577 22.047 37.795 6.0614 18.813 11.181-21.176-25.29-3.7002-27.285 1.4407-7.6464 14.432 16.727 38.304 11.896 49.445-0.9466 15.028 3.4858 12.77 15.922 25.645 1.2698-25.248 13.973 1.8107 26.209-0.75101 1.206-25.225-34.442-33.838-30.412-56.498 10.609 11.086 24.47 33.406 33.084 10.643-3.3188 9.6233 1.6302 15.853 5.7926 22.297-5.6295 6.6938 17.26 18.474-0.6485 27.234-4.2405 16.727-19.959 2.9734-24.202-3.9132 1.4039 14.654 19.289 17.076 5.3838 32.055 10.181 21.431-33.193 39.438 2.5501 43.421 18.497 25.32-39.126 19.746-13.444 47.967 5.323 32.367 52.199 2.6737 34.349-22.343 1.5881-22.748 14.947-41.551 40.274-30.559 15.463 8.907 17.094 8.6285 11.151-6.4235-17.066 6.2483-44.029-22.793-12.475-11.181 17.832-0.50084 31.363 19.816 37.435 14.911-4.4721-9.8171-16.722-20.407-3.7844-29.061-7.8861-12.812-28.641-45.964-6.5902-37.367-1.8773-2.7886-11.433-32.416 0.414-10.958 13.843-5.575 31.975 12.436 11.622 21.599-12.96 19.151 3.0575 62.514 20.181 27.551 2.0497-20.275 25.942 28.42 10.232 35.172-9.5699 14.952-31.981 14.171-22.379 37.317-18.024 1.1554-39.975 13.861-42.404-11.932-22.902 11.607-38.054 36.589-58.471 46.486-3.9269 29.731-15.545 52.354-27.122 81.389-7.3935 18.339 9.7411 36.504 1.5501 55.459 6.8759 8.1917 25.56 27.862 46.232 31.58 24.202-1.9317 44.447-24.711 63.617-36.888 11.629 7.6371 29.082-17.966 24.309 12.478-7.1881 17.232 24.659 28.934 5.2175 49.412-5.7472 11.528-20.618 58.26-20.298 50.268 54.193-56.012 89.528-130.41 95.046-208.42 3.6405-26.565 1.8583-76.165-4.0068-88.889 5.7845 24.985-6.4368 31.684-19.849 11.033-16.372-14.699-46.505-46.282-11.774-22.987 16.359 0.60142 32.836 50.188 28.323 13.072-3.399-28.432-4.872-68.479-26.721-85.923 15.52 21.602-0.6043 29.756-10.905 7.5737 25.423 3.7374-4.8992-52.767 2.0311-42.29 8.0338 13.855 21.866 43.452 6.9456 12.717-10.522-23.932-42.428-64.896-49.899-72.339 5.9161 6.2996 22.044 25.952 33.054 43.315-20.265-30.048-33.396-45.502-58.826-69.313-35.213-32.708-83.546-59.855-126.8-73.513-16.972-5.2045-21.621-6.4127-6.3851-2.0428-31.778-10.583-81.315-16.608-104.78-14.439 38.513 0.47626-25.228 5.4023-39.085 6.746-12.957 7.0007-41.102 15.787-11.705-1.3414-18.474-1.221-19.572 4.9344-22.738 11.151-10.557 0.62953-39.03 22.827-11.158 12.485-8.6479 6.4275-34.841 20.068-9.2185 11.474 5.5404-0.25825 10.802-1.9034 16.108-3.3309zm-43.586 639.28c21.707 8.6686 11.519 3.2033 21.624 5.1338 10.266 1.07 28.218 2.1931 12.319-5.0028 27.601 12.58 35.94-7.5473 55.97-13.805 25.588 4.0577 39.792-15.516 45.328-35.786 33.552-14.643 13.122-39.135-14.698-39.504-25.658 3.6226-34.075-17.18-59.713-7.9722 20.364-0.5423 2.6108-12.601-6.0784-6.14 23.633-32.968-37.962-30.516-48.91-54.282-13.453-23.023-37.102-15.898-55.635-32.745-15.86 21.411 6.3937-18.774-19.47-5.7923-12.573 4.6506-15.793 13.022-24.186-3.4578-36.8-4.4524 1.0266-51.156-34.416-59.598 13.897-12.608 16.419-41.372-9.029-21.932-25.991-11.613-12.266-67.88 12.699-64.965 8.9881 1.2871 17.722 25.876 18.056 9.5042 26.558 4.728 16.698 36.445 25.983 48.072 2.198-24.184 9.9385-46.996 36.871-48.248 1.8842-6.0866 6.639-33.085 5.9363-8.5521 5.6149-21.629 30.944-8.0201 35.952-27.24 13.142-4.3901 38.473-5.6626 15.067 5.2965 15.361-1.1163 27.378-2.751 9.9474-13.662-2.5329-15.622-3.0067-5.7785 3.7732-14.179-10.716-9.8485-36.283 10.424-10.29-6.068 22.937 3.4426 62.16-5.7682 42.159-18.426-1.0407-6.1074-9.1999-21.186-6.8225-33.39-0.9379-9.6099-21.411 13.023-17.887-10.364 15.304-4.5792-15.959-32.571-15.975-6.92-7.412 12.652-14.071 22.809-25.334 30.894-4.1321 26.5-18.946-1.3248-4.8273-11.322-16.086-17.313-18.925-53.092 13.643-51.553-7.5539-14.79 16.443 9.5187 13.173-9.3169 15.331 14.689 39.588-23.283 11.609-4.7742-3.7398-8.7281 16.986-37.903-3.5576-15.844-14.283 18.539-10.066-23.492-26.831-7.2806 1.4013-16.529 15.226-34.918 2.3882-47.558 14.659-10.855 39.772-49.082 6.1849-33.298 10.641-19.298-17.864 12.15-17.509-4.7851-13.391 4.784-29.276 19.023-33.407 10.756-3.4295 14.427 22.145 11.345 3.725 17.467 10.073 6.9188-23.51 30.053-14.348 30.518-19.316 15.009-23.016 23.939-38.542 36.632 1.4104 8.5304-23.644 36.974-12.031 16.303-20.975 17.617-49.082 37.895-52.756 70.432-6.4409 25.309-22.266 59.026-16.8 78.947 3.4176-15.952 7.3248-51.245 14.295-50.944-7.3745 34.068-13.02 70.634-8.3822 104.47 10.569 34.015 42.08 56.243 48.984 91.128 8.0031 15.655 17.776 26.212 31.106 27.645 16.433 22.588-13.094 30.3-11.596 45.905-1.3222 25.545 19.86 51.224 37.005 70.642 33.262 12.188 28.518 72.657 58.165 72.178 2.34 0.9658 4.7023 1.8778 7.0669 2.7807zm109.89-447.27c11.079-14.406 12.296-32.879 30.347-42.172-0.18134-6.2298 34.61-16.297 7.787-17.603-4.3534-11.34 24.62 2.9478 3.1431-9.9332-11.168-8.8555 14.496-5.2802 1.1052-14.542 1.3075-10.075-10.155-15.592-5.0778-31.956-18.183 10.804-13.271-13.102-25.128-0.31067-18.334 1.5932-39.338 11.776-35.757 24.358 19.898 4.7015 4.8829 27.752 14.936 31.891-4.0409 2.2637 1.9775 14.035-6.2311 15.118 16.003-3.1686-11.793 4.9098 2.0145 6.5695-5.1498 8.8574-2.105 19.596 5.854 32.173 8.6352-1.9582 3.0456 0.36086 7.008 6.4077zm-57.795-21.505c-11.32-19.713 16.715 4.735 5.6412-18.783 2.7003-11.149 9.9807 7.1887 13.862-4.4796-8.3362-6.8714-6.3444-17.602-4.3366-23.111-5.1715-6.087-9.5732-13.55-12.049-22.559-18.403 7.2607-16.353 11.753-3.8171 21.132 7.9036 15.742-12.505 20.188-16.092 25.991 11.2 1.7224 3.4573 17.028 16.791 21.809zm46.872-103.15c-22.705-3.9164-5.3981 9.1752-15.457 9.798-8.592 1.3115-26.912 15.931-11.066 10.71 9.0194-1.815 46.555-13.299 26.523-20.508zm167.49 145.92c0.065-18.594-26.487-20.638-35.384-35.058-2.9763 21.324 22.366 15.904 19.244 36.578 10.156-4.4768-6.2159 21.298 10.005 1.9445l3.1171-2.4367zm-204.82 50.769c10.698 0.97042 8.5542 0.64995 7.7117-10.743-15.926-1.8158 2.9837-26.694-13.885-7.8552-23.439 11.784 13.861 12.294 4.4846 17.883zm-57.71-179.46c9.7932 35.49 38.715-16.813 12.736-12.011-7.9134 19.223-8.3381-5.9317-12.736 12.011zm180.69 78.376c19.398-21.511-38.369-10.478-11.355 2.2266 4.303 0.44084 8.8646 2.6176 11.355-2.2266zm54.155 56.066c8.0193-34.538-22.954-7.0868-2.671 2.7771zm-186.13-130.2c26.689 35.238 7.5045-20.593 0 0zm-16.175-21.211c-2.7597 11.271 20.318 3.442 4.88 2.962 7.2247-7.1155-1.6935-6.4523-4.88-2.962zm33.583 6.377c0.70055 18.003 19.646-14.969 1.8786-2.6212-0.1723 1.5484 4.82 7.7484-1.8786 2.6212zm119.01 5.537c0.9237-15.231-25.869-8.3397-7.698-2.243-2.9256-9.4131 4.1274 4.8818 7.698 2.243zm30.638-34.101c-13.05-8.095-24.458-13.014-6.837 0.69679 7.8578 5.3564 15.829 3.4691 6.837-0.69679zm-284.22 348.57c3.106-11.12-37.286-44.14-32.125-32.231 18.45 5.938 14.195 28.746 32.125 32.231zm16.555 18.333c29.893 7.747-12.583-24.625-11.146-8.0435-6.6136-1.4525 12.616 12.848 11.146 8.0435zm146.27-449.31c9.2784-1.7852 22.12-2.5766 17.283-0.785-5.761 0.26184-11.522 0.52233-17.283 0.785zm-66.003 132.78c23.445-10.673-13.677-12.439 0 0zm-10.755 52.367c12.15-27.639-24.594-8.9655 0 0zm217.86-94.39c-2.3191-9.9717-24.972-1.2808-6.181 0.94303zm-289.14-16.689c-1.2546 7.6624 7.0487-4.8244 0 0zm230.21 26.319c-14.72 3.4515 9.234 9.3101 0 0zm-134.78 18.808c15.172 0.42495 3.198-11.175 0 0zm-28.104-13.475c23.787 8.233 7.2741-21.927-5.3415-1.211l1.4561 1.0365zm-122.34 52.105c-1.8587 19.511 16.184-31.844 0 0zm28.385-33.872c0.10322 3.9945 12.996-15.655 0 0zm-10.506 6.554c15.122-11.563-9.5314 6.8004 0 0zm214.29-99.042c-15.932-3.0471-4.7463 8.2208 1.3605 1.4442zm-85.748 271.71c-2.5438-8.8416-13.864 6.0707 0 0zm8.376-204.83c-13.534-8.504-7.054 5.4576 0.16882 1.3557zm-5.257 47.812c25.212-20.708-17.942-7.9429 0 0zm237.45 62.845c-3.8138-15.824-4.5119 5.2963 0 0zm-111.53-154.07c-12.372-9.2516-4.172 8.4739 0 0zm-109.36 56.223c11.048-7.1989-1.6032-12.811 0 0zm-124.23 1.114 2.1847-2.4128zm98.408 21.717c14.635 1.6632 13.639-12.239 0 0zm156.11-25.694c-12.425-4.3048 4.4334 7.435 0 0zm-193.56 115.36c6.2446 1.6921 4.4926-2.1912 0 0zm100.71-48.962c-3.4913-11.279-8.4103 3.7055 0 0zm284.72 99.196c11.385-14.149-11.11 6.2575 0 0zm-531.49 221.22c1.4192-8.6321-3.6379-3.5345 0 0zm129.94 173.65-1.9146-1.1356zm-54.219-545.03c-3.2712 0.0754-2.8167 3.9994 0 0zm242.95-72.952c-9.311-5.1795-7.7396 6.3827 0 0zm-2.542 7.229c-10.16-6.065-5.2266 7.0791 0 0zm-235.03 334.15c5.9465 1.0863-1.2248-11.714 0 0zm394.66-95.863c8.8534-14.02-17.186-15.502 0 0zm-298.16 3.877c9.1818-2.7364-16.087-10.626 0 0zm-105.92 137.75c11.683 0.99355-17.906-10.824 0 0zm34.154-384.92c0.75219 5.585 2.043-5.4473 0 0zm441.96 198.09c6.1015-7.1056-10.903-16.083 0 0zm-399.1 257.53c2.8187-9.8548-10.395 2.9545 0 0zm-71.278-105.63c-0.30007-4.7078-3.0195 1.2777 0 0zm128.8-260.05c10.232 14.257 5.0178-12.019 0 0zm192.92-42.312c-3.1445-7.3177-6.5201 2.6323 1e-3 0m-212.84 182.48c-2.964-11.575-13.197-4.9621 0 0zm334.92-32.475c1.95-4.9308-5.0091 1.2336 0 0zm-436.16 149.75c0.38399 6.1197-3.0502-13.149 0 0zm64.568-355.26c5.1804 1.2522 11.968-8.3435 0 0zm-67.624 70.572c-7.1711 2.3916 0.18598 5.1133 0 0zm44.241 342.94c3.0386-7.297-14.271-0.6269 0 0zm297.65-248.82c5.2856 8.9404 2.7352-5.9648 0 0zm97.009 50.797c-3.8522-6.2599-11.928 2.9164 0 0zm-147.59-38.739c3.9063 3.6327-1.5215-8.784 0 0zm4.846-74.227c2.0024-5.9041-3.9392-2.0886 0 0zm-302.34 252.53c5.628-4.1303-4.7664-8.1191 0 0zm225.43-241.62c10.133 5.0604-4.2737-6.6101 0 0zm-241.14-20.395 0.71842 0.32793-0.71742-0.32793m-10.067 265.9c5.4828 3.3326-0.74296-7.349 0 0zm317.07-334.98c-6.2347-1.7122 4.0127 3.5895 0 0zm-187.74 51.34c8.1446 0.42013-0.48608-8.1794 0 0zm81.535-88.123c-22.771-6.8878-7.7201 2.7753 0 0zm5.977-4.842c1.0449 5.2014 10.636-3.5871 0 0zm189.96 279.01c3.7932-8.1493-7.7658 1.4295 0 0zm13.246-24.39c2.1997-11.023-11.295-9.1015 0 0zm-305.84-141.51c0.73594 15.715 12.216-9.7739 0 0zm-80.111-25.868c17.345-5.7324-4.2575-3.7441 0 0zm417.9 177.59c1.8965-22.193-22.632 9.6297 0 0zm-372.08-240.97c8.8754-1.4213 1.2613-4.7489 0 0zm-25.748 6.292c-5.0372 5.994 6.5498-5.465 0 0zm92.515 111.86c-7.0504-7.8957-6.109 10.327 0 0zm-33.461 16.082c-13.989 2.696 8.3411 2.4172 0 0zm-14.939 290.69c7.0106 0.012-3.996-5.3738 0 0zm55.021-373.25c-1.3587-7.7314-7.467 4.1718 0 0zm114.65-45.175-0.57343 1.5262zm-106.73 55.518c9.8594-0.64595-1.7862-8.0412 0 0zm403.03 305-0.1714 0.67856zm-222.64-334.3c-5.0861-3.6955-2.8469 5.4462 0 0zm40.401 88.74c-1.185 4.2294 4.5707-2.4926 0 0zm-301.64-119.4c4.3744-0.69411-0.54958-3.7063 0 0zm249.54 174.62c-2.9266 4.5125 4.4688-0.24951 0 0zm-175.79-128.1c2.4799 5.6065 6.3415-1.8244 0 0zm97.772 55.222c-4.3506-3.266-7.4029 2.4427 0 0zm281.12 52.359c-2.466-6.1738 2.5624 8.2289 0 0zm21.105 107.12c3.123-2.0046-2.785-1.5742 0 0zm-127.6-61.565c-4.7015-1.2306 4.9063 1.8245 0 0zm-496.34 25.208c-3.1263 5.2601 2.9752-0.994 0 0zm397.76-53.915c-7.3162-6.1216 1.8855 4.3367 0 0zm53.696-33.004c7.3449 12.87-2.7111-6.1291 0 0zm-54.807-44.73c-1.344-4.786-3.0996 1.7288 0 0zm-50.587-32.115c7.3906 1.5422-7.2733-2.6537 0 0zm184.94 156.34c4.7562-0.51053-3.8738-3.9842 0 0zm-374.24 401.09-2.0943-0.8896zm-45.697-252.81c3.955-4.3957-5.6418 4.2468 0 0zm13.876-335.82c5.3377 1.6761-1.9795-2.1331 0 0zm226.67 3.629c-2.5112-5.2415-7.747-3.7721 0 0zm-260.99 36.214c-3.2803 3.9378 6.0025-4.9124 0 0zm365.36 54.775c2.8644-8.0684-6.5966-1.7 0 0zm-334.92-102.53c0.42632 4.3638 3.9791-4.1392 0 0zm98.532-36.968c-8.1462 2.2972 1.9086 5.4024 0 0zm194.64 367.24c6.6435-5.1528-4.2751-3.4966 0 0zm-18.083-265.77-0.4372 1.6666zm-164.97 431.04c7.0915-1.9965-6.7402-2.7564 0 0zm-10.028-359.64c4.9265-0.95966-3.8663-3.128 0 0zm11.562-182.14c0.43847 3.1406 6.4718-3.1624 0 0zm-89.146 286.52c5.7795 3.4724 13.04-1.3886 0 0zm72.733-193.52c-0.35049 10.475 9.4425-6.5834 0 0zm-116.28-5.657c5.1674-3.9487-8.1749 4.1524 0 0zm0.8-2.403 0.62701-0.33975zm101.92-100.22 1.0299-0.28525zm430.32 262.67c-0.9836-8.54 0.01 5.0527 0 0zm-205.91 124.03c3.2325-11.511-5.9442 7.0342 0 0zm-230.85-242.4c-2.9894 4.7922 4.7756-4.7269 0 0zm-4.176 12.907c3.3054 4.7544-0.44485-7.4112 0 0zm-41.213 64.45c1.6349 8.2677 6.2416-1.1832 0 0zm-79.842 110.46 0.64418 0.37363zm483.28-86.051c2.7061-6.4518-3.6951-0.84829 0 0zm-346.82-159.14c6.9269 0.59938-4.0125-2.8608 0 0zm22.92-96.138 2.3081-0.45111zm322.87 477.8c6.2561-0.319-3.8827-6.7654 0 0zm-228.58-338.05c5.4996 0.81223-2.785-5.3343 0 0zm24.909-64.254c4.8039 1.835-0.85169-4.1271 0 0zm-282.9 454.79c3.4332-0.7506-3.4984-2.7414 0 0zm46.543-106.07c3.8626-4.0051-7.3407 0.14622 0 0zm38.745 70.784-0.51259-0.089zm184.24-462.3c-0.57124-3.3441-4.8587 1.2812 0 0zm92.376 357.82c-0.061-4.9505-3.5198 6.324 0 0zm-234.14-205.04c5.2707-0.16061-3.042-4.5087 0 0zm192.18 298.18c4.9935 1.1066-3.2173-4.4138 0 0zm-101.34-376.61c1.5689 6.5319 4.1313-0.62072 0 0zm-173.76 329.09c-4.5028-3.6136 3.1604 4.4216 0 0zm242.94-331.86c-0.95926-4.3071-3.824 1.7574 0 0zm-141.08 49.034c5.8277 0.38392-3.7963-2.9594 0 0zm-28.055 36.622c4.3285 0.54259 4.0785-7.3944 0 0zm-59.277 290.04c4.1895 5.3638-2.4218-3.9027 0 0zm294.63-80.828c-3.1372-3.0352-2.6084 4.7883 0 0zm-121.75-403.37 2.6962 0.0783zm-104.39 35.284c-4.6866 3.1899 4.8879-2.8696 0 0zm28.204 72.444c4.8903-5.0101-4.6189 3.6231 0 0zm126.65-29.925c-4.3199-3.609-3.6763 1.6358 0 0zm-194.6-47.809-0.31343 0.1594zm77.001 84.734c-3.4366-4.7081-1.823 4.1084 0 0zm-12.858 55.392c-4.5863-4.9493 1.0068 4.6698 0 0zm326.67 332.39c0.6322 3.237 2.2602-5.0138 0 0zm-224.37-353.85c6.792 2.2054 1.3568-3.5578 0 0zm-87.166-30.613c-1.8956-3.54-2.7088 4.9214 0 0zm222.59 90.686c-1.0815-4.8841-2.8139 3.3177 0 0zm-237.72-196.53c-5.083 0.6407 0.18104 2.3882 0 0zm97.671 157.23c7.8113 0.19304 2.6912-7.3464 0 0zm3.608-13.476c4.9862 2.3674 3.4297-2.9226 0 0zm-173.41-121.34c-2.4508 1.9136 3.9021-2.0401 0 0zm307.1 153.77c-0.6777-5.5391-7.0695-7.9032 0 0zm-369.54-55.63 1.372-1.251zm6.817 276.92 0.99991 1.2186zm304.03-265.6-0.6734-1.8736zm-212.6-6.134-1.1784 1.358zm218.09 95.026 0.4559-1.7997zm-401.02 38.97-0.74195 3.7852zm359.74 84.413 3.4559-0.0301zm144.59-101.06 1.2125-1.1597zm-400.62 152.78 1.2375 1.5538zm42.549-372.96-1.1533 0.94665zm234.45 163.68 1.5484 1.1051zm15.755-73.748-1.2618 0.45303zm-49.05-49.145-3.3252-1.1121zm-353.92 196.6 0.953-0.814zm355.74-185.12-0.1807-2.1642zm-120.43 480.44 0.0847 1.329zm-9.331-351.59 1.0772 1.0981zm8.223-16.717 0.3496 1.9565zm167.84-63.941-0.6395 1.3937zm-274.26-73.079-1.4346 0.85745zm102.71 142.73 1.6233 0.33107zm254.67 95.467 1.2254-0.42153zm-401.81-158.35-1.0329 0.25092zm133.93 71.855 0.1103-1.7509zm187.12-67.194v2e-3l-0.121 1.679 0.123-1.681zm-336.58 332.82 0.45111 1.5169zm136.62-290.52 0.10089-1.6702zm202.63 22.147 1.1412 1.1699zm-179.64 29.075 1.5016 0.68741zm66.111-31.193 1.8206 1.2624zm-116.67 279.62 0.53272-1.8151zm336.59-233.41-0.9197 0.82574zm109.88-31.38-0.9662-2.3728zm-269.8-173.08-1.4206-0.0584zm99.933 117.33-0.3017-1.9606zm-99.857-87.603 0.76041-1.6894zm-2.869-1.351 1.2522 0.90142zm-71.97 144.27 1.5952-0.77706zm127.71-23.331 0.3938 1.2459zm-154.01 470 0.735-0.812zm-196.96-248.58-1.1507-0.0481zm-27.058 72.72 1.4836 0.9042zm364.68-432.33-1.5755-1.2638zm-18.506-3.239-1.7634 0.1957zm-301.1 98.655-0.86485 1.9038zm459.4 107.78-1.8766-0.96379zm-474.08 133.38 1.3128-0.10009zm478.15-130.73-0.5259-1.8394zm-91.561-94.641 1.2588 0.43337zm-56.696 26.87-1.7853-1.0115zm19.435 30.455 0.398-1.202zm-188.91-69.971 2.5414-0.70314zm208.95-90.212-1.4652-0.82791zm-377.72 342.48 1.0202-1.0217zm-2.146-82.35 1.2211-0.11635zm84.483-246.87-0.22279 0.93855zm-23.799 27.671 1.7472-0.72998zm30.34 216.82 1.3857-1.4201zm35.802 150.25 0.9299 1.7363zm-58.489-62.734 1.4202 1.271zm55.914-376.08-1.9674 0.96697zm216.68 162.66 1.486 0.885zm-59.48-63.268-2.4545-3.1822zm58.893 340.48 2.1099-0.087zm64.336-266.94-1.5564-0.42545zm-283.06 16.541 1.9796 0.38915zm-66.848-107.67 1.5794-1.379zm510.15 107.42-0.6091-0.41957zm-600 3.503-0.067-1.381zm390.34-101.92-0.9293-1.5746zm96.343 121.11 1.42 1.554zm-88.695-92.057-0.499-1.2203zm127.13 93.942 1.0523-0.62561zm11.041 6.053-1.2637-0.0208zm-219.25-113.93-1.207-1.309 1.206 1.312zm-290.08 185.42 1.9658-0.38808zm116.94 337.63 1.226 0.54-1.228-0.54zm-33.479-593.34 0.28823 0.57337zm415.9 195.86 1.4083-0.2249zm-441.46-145.8h-1e-3l1.436-0.675zm79.257 359.16-0.89237-1.8112zm-147.67-137.79 1.2078-1.7109zm328.28-188.06 0.71933-1.9729zm-179.78 344.21-1.6294 0.1317zm58.607 64.366-0.50962 1.1012zm-122.48-153.64-0.95707-4.5268zm516.44-112.02-0.5594-0.0682zm-634.81-1.097-0.0402 1.982zm554.25-45.592-1.3201-1.8241zm-343.98-240.59-2.3265 0.53409zm193.18 209.6 1.2287-0.77086zm-242.04 92.188 1.9797 0.35813zm80.476-158.07 1.683-0.514zm-141.19 249.92 1.5547 1.4077zm317.96-233.26 0.7255-1.2745zm-172.78 395.86-2.3776 0.1218zm237.47-259.91-0.9426 1.4072zm-50.525-240.12 0.2624 0.95668zm-300.81 4.115 0.914-0.901zm289.24 164.76 0.2064-2.1611zm-3.509 162.95 1.1542 1.6121zm192.38-122.6 0.6803-0.4371zm11.4-53.889-0.1662-1.3157zm-492.3-161.72 0.79675 0.21079zm-51.784 87.35-1.1065 1.5308zm70.738-110.49-2.252 1.5201zm-10.362 299.35-2.0686 2.9414zm249.81 137.97 1.7863-0.906zm-174.67-282.29-1.3147-0.83258zm23.093 373.87 2.0822 0.2807zm409.81-157.79-0.19 1.8924zm-571.49-249.23-0.96544 1.0733zm200.8 423.69 0.23098-1.196zm-99.368-89.389 1.0442-0.9738zm-112.75-160.66 0.87779 1.0129zm357.07-162.65-0.746 1.6698zm-316.03-50.142-1.2615 0.93638zm127.18-23.948 1.7848-0.93304zm301.65 197.51 1.1284 0.14174zm-254.66 363.03 1.5955 0.045zm84.365-577.91-1.463-0.36042zm-118.2 203 1.5316-0.28256zm-42.067-116.94-1.2696 1.9161zm-94.158-47.043 1.4234-1.4354zm452.76 137.14 0.2443-1.5952zm-3.242-4.436-0.9099 1.1229zm-285.36 407.78 1.267-0.227-1.268 0.225h1e-3zm1.693-482.96 1.951-0.31903zm284.52 81.886-0.188 1.1918zm-192.93-158.99 0.32489-1.3141zm-227.03-52.497-0.21294 1.6643zm162.53-20.559 1.188 0.63-1.186-0.631zm263.76 235.03-0.429-1.6138zm-272.83-35.163-1.6774-0.93526zm-128.23 441.13 1.3972 0.6001zm69.715-98.579 1.6314-1.1333zm-123.2-184.88-3.6497-0.52259zm313.72-143.04 1.5356-0.92159zm38.085-35.852-0.525 1.219zm-60.53 273.96 1.0776-1.3823zm-151.73-298.57 1.2007-0.81026zm-90.704 275.32 1.6468 0.3073zm-118.56-124.35 2.5014-2.2988zm68.916-215.14-0.83524 1.1175zm199.42-86.113 0.0665 1.1934zm247.47 225.34 0.1158-1.8484zm-243.09-257.85-0.74614 0.0804zm-282.05 491.74 1.2467 1.2067zm409.36-238.83 1.4808-0.93383zm-32.555-122.26-0.9689 0.55902zm-177.84-20.291-1.4677 1.3369zm303.02 92.862-1.407 0.45009zm-173.66 149.65-1.5343-0.3576zm36.605-287.6-0.78274-0.83488zm-33.766 286.78 1.5374-0.0562zm-211.91-312.76-1.39 1.4014zm-39.15 78.494-1.1172 1.4291zm-48.286 274.2 1.2352 0.20261zm53.812 10.523 1.2726 3.7871zm-25.922-263.69-1.0208 0.99691zm379.74 69.208-0.3431 1.4406zm-281.44 286.36-0.95961-1.46zm56.011-491.08-0.886 0.162zm-18.259 108.75 1.9521 0.44653zm-131.57 19.525-0.5308 1.0596zm44.55 353.36 0.83879 1.5481zm-96.608-153.64 0.91589-0.50125zm94.002-249.84 1.2599 0.041zm92.897 38.901-1.5449-0.26795zm-140.69 17.948 1.5109-1.4904zm41.611 206.66 1.6263-0.9763zm232.88-261.07-0.35871 0.80776zm-209.47-47.208-0.17211-0.42614zm121.44 547.97 2.0017-0.1689zm141.63-207.39 1.64 0.083zm226.01 48.625 0.5091-2.2367zm-627.11-188.17-0.24248 1.6907zm292.59-208.78 1.1366 0.63666zm-29.741 145.56-0.05-1.9804zm-78.655-33.906-0.45266 1.3023zm346.38 105.01-0.537 1.0482zm-139.53-97.136 0.2456 1.381zm-304.02 264.36-0.26059-1.9499zm349.63-136.06 1.2378-0.0894zm81.992-75.429-0.7908 0.93087zm-349.87-179.88-1.01 0.526 1.012-0.526zm-120.92 318.23 0.48718 1.188zm184.82-234.3 1.553-1.4466zm-86.918 356.15 1.8514 0.1043zm197.78-365.12-0.31943-1.3094zm-323.98 402.1 1.5273 0.2179zm608.45-214.72-0.034-1.12zm-570.02-121.13-0.50496 1.1735zm392.64 40.264-1.6603-0.93623zm-61.741-72.156 0.28-2.1239zm-175.72 34.998-0.76761 1.7602zm170.99 311.17 0.71387 1.0995zm-323.61 58.726 0.88567-0.1402zm-21.869-126.32h2e-3l0.945-1.135zm116.18-381.9 0.62977-0.42873zm-65.481 356.88 0.79893 1.4361zm96.025-252.35-0.77199 1.207zm13.975 17.63-0.84641-1.3139zm5.206-25.687-1.7359-1.135zm-192.93 365.67 1.039 1.4254zm83.127-103.97 1.1825 0.843zm245.46-307.99-1.0075-1.0078zm-276.08 72.16 0.21257 1.1138zm-77.718 159.99 0.31234-1.5932zm237.99-305.58-0.92975 0.2101zm-27.222 288.94 2.4207-1.2594zm94.111-96.011 1.7926-0.64288zm-39.905 381.57 0.48983-1.0878zm-23.025-280.99-0.99049 0.97065zm-89.207 18.766 1.3872 0.17991zm-148.38-12.585 0.29563 1.1531zm181.5-283.39-2.218 0.79659zm316.02 232.7 1.2456 0.60206zm-268.92 318.88 0.95057-0.8641zm179.03-340.22 1.2875 0.40894zm39.473 45.931 1.0568 0.79571zm0.011-105.4-2.1383-0.95153zm-176.87-7.934 0.38639 1.2025zm-104.67 301.88 1.1818 1.1377zm76.097-335.19 0.93513-0.92623zm-56.32-90.166-0.74909 0.75749zm-67.274 393.91-1.5836-1.0334zm463.69-168.86 0.2697-1.0425zm-23.2 292.66 9e-4 0.5547zm-37.274-241.9-0.4901 1.3124zm-242.28-89.294 0.85124-1.1246zm170.74-15.853 1.2232 7e-3zm-324.02-122.91-0.73-0.453zm197.66 42.42-0.27103-1.2074zm169.11 141.24 0.7105-1.172zm-263.9 298.38-0.82866 1.0361zm-15.565-372.68 1.114 1.8181zm1.202-83.166 1.7134-1.1744zm14.701 454.49 1.3491 0.059zm-58.748-347.78 2.0181-0.96754zm50.481-63.134-2.0306 0.37518zm9.934-48.946-0.53836-1.2567zm-140.94 20.528-0.26573 1.1222zm129.44-28.645-1.0725-0.4327zm-142.17 317.3 1.3852 1.0609zm224.22-395.73c-4.2086-2.1826-1.1899 1.481 0 0zm145.42 183.2 0.9979 0.96467zm92.671 41.611-0.1915 1.8442zm-88.074-37.528 0.6223 1.6684zm-183.2-51.551-1.5406 0.831zm-10.765-29.364-1.2403-0.73573zm92.581 224.85 2.1579 0.14424zm-129.49-240.11-1.8101-0.64487zm-41.166 19.798 0.41035 0.89628zm205.78-73.66 0.93351-0.68283zm58.557 167.82 0.772-1.1234zm103.74 44.802-0.8851-1.0158zm-314.55-151.21 1.5548-1.2273zm-113.5 299.04 1.1994 0.99482zm173.98-219.55 1.4683 2.235zm-73.468-87.904-0.64594-0.80688zm-45.454 109.52-1.5142 0.83595zm20.684-167.52 0.38477 0.5482zm160.49 25.145-1.7327-0.77253zm-87.17 101.52 1.7629 0.099zm-173.59-53.38-1.1446 0.0358zm126.73 32.139-0.8375 1.5015zm196.96 34.176-0.955-1.122zm-323.94 186.69-0.42303 1.2255zm130.93-260.68 1.0788-0.84088zm59.92-7.068-1.0879-1.5783zm-17.241 51.719 0.95949-0.9056zm136.72 38.684-2.0555-3.2563zm-109.32-94.907-1.146-1.074zm-0.907 0.607-0.898-0.89988z" fill="url(#d)"/>
</svg>
