<?xml version="1.0" encoding="UTF-8" standalone="no"?>
<!-- Created with Inkscape (http://www.inkscape.org/) -->

<svg
   xmlns:dc="http://purl.org/dc/elements/1.1/"
   xmlns:cc="http://creativecommons.org/ns#"
   xmlns:rdf="http://www.w3.org/1999/02/22-rdf-syntax-ns#"
   xmlns:svg="http://www.w3.org/2000/svg"
   xmlns="http://www.w3.org/2000/svg"
   xmlns:xlink="http://www.w3.org/1999/xlink"
   xmlns:sodipodi="http://sodipodi.sourceforge.net/DTD/sodipodi-0.dtd"
   xmlns:inkscape="http://www.inkscape.org/namespaces/inkscape"
   version="1.1"
   width="256"
   height="256"
   id="svg2"
   style="enable-background:new"
   inkscape:version="0.48.4 r9939"
   sodipodi:docname="qgis_shp_icon.svg">
  <sodipodi:namedview
     pagecolor="#ffffff"
     bordercolor="#666666"
     borderopacity="1"
     objecttolerance="10"
     gridtolerance="10"
     guidetolerance="10"
     inkscape:pageopacity="0"
     inkscape:pageshadow="2"
     inkscape:window-width="640"
     inkscape:window-height="480"
     id="namedview3109"
     showgrid="false"
     inkscape:zoom="0.4609375"
     inkscape:cx="67.447158"
     inkscape:cy="40.586239"
     inkscape:window-x="468"
     inkscape:window-y="76"
     inkscape:window-maximized="0"
     inkscape:current-layer="g5881" />
  <defs
     id="defs4">
    <linearGradient
       id="linearGradient4690">
      <stop
         id="stop4692"
         style="stop-color:#afafaf;stop-opacity:1"
         offset="0" />
      <stop
         id="stop4694"
         style="stop-color:#ffffff;stop-opacity:1"
         offset="1" />
    </linearGradient>
    <linearGradient
       id="linearGradient4494">
      <stop
         id="stop4520"
         style="stop-color:#f5f5f5;stop-opacity:1"
         offset="0" />
      <stop
         id="stop4524"
         style="stop-color:#ffffff;stop-opacity:1"
         offset="1" />
    </linearGradient>
    <linearGradient
       x1="190.52345"
       y1="30.799114"
       x2="180.14067"
       y2="41.59544"
       id="linearGradient4500"
       xlink:href="#linearGradient4690"
       gradientUnits="userSpaceOnUse" />
    <linearGradient
       x1="120.7066"
       y1="244.55363"
       x2="123.01035"
       y2="121.55801"
       id="linearGradient4518"
       xlink:href="#linearGradient4494"
       gradientUnits="userSpaceOnUse" />
    <linearGradient
       x1="-19.831818"
       y1="221.75748"
       x2="384.75043"
       y2="222.76762"
       id="linearGradient4554"
       xlink:href="#linearGradient4494"
       gradientUnits="userSpaceOnUse" />
    <filter
       color-interpolation-filters="sRGB"
       id="filter4640">
      <feFlood
         result="flood"
         flood-color="rgb(0,0,0)"
         flood-opacity="0.85144927536231885"
         id="feFlood4642" />
      <feComposite
         in2="SourceGraphic"
         operator="in"
         in="flood"
         result="composite1"
         id="feComposite4644" />
      <feGaussianBlur
         result="blur"
         stdDeviation="4"
         id="feGaussianBlur4646" />
      <feOffset
         result="offset"
         dy="1.8"
         dx="1.8"
         id="feOffset4648" />
      <feComposite
         in2="offset"
         operator="over"
         in="SourceGraphic"
         result="composite2"
         id="feComposite4650" />
    </filter>
    <filter
       color-interpolation-filters="sRGB"
       id="filter5517">
      <feFlood
         result="flood"
         flood-color="rgb(0,0,0)"
         flood-opacity="0.77536231884057971"
         id="feFlood5519" />
      <feComposite
         in2="SourceGraphic"
         operator="in"
         in="flood"
         result="composite1"
         id="feComposite5521" />
      <feGaussianBlur
         result="blur"
         stdDeviation="4"
         id="feGaussianBlur5523" />
      <feOffset
         result="offset"
         dy="1.8"
         dx="1.8"
         id="feOffset5525" />
      <feComposite
         in2="offset"
         operator="over"
         in="SourceGraphic"
         result="composite2"
         id="feComposite5527" />
    </filter>
    <linearGradient
       id="linearGradient5763-11-58">
      <stop
         id="stop3893-4-11"
         style="stop-color:#129300;stop-opacity:1"
         offset="0" />
      <stop
         id="stop3891-6-3"
         style="stop-color:#e4f363;stop-opacity:1"
         offset="1" />
    </linearGradient>
    <filter
       color-interpolation-filters="sRGB"
       id="filter3643-3-6">
      <feFlood
         result="flood"
         flood-color="rgb(0,0,0)"
         flood-opacity="0.419"
         id="feFlood3645-898-34" />
      <feComposite
         in2="SourceGraphic"
         operator="in"
         in="flood"
         result="composite1"
         id="feComposite3647-03-3" />
      <feGaussianBlur
         result="blur"
         stdDeviation="1.8"
         id="feGaussianBlur3649-6-2" />
      <feOffset
         result="offset"
         dy="3"
         dx="3"
         id="feOffset3651-5-66" />
      <feComposite
         in2="offset"
         operator="over"
         in="SourceGraphic"
         result="composite2"
         id="feComposite3653-9-2" />
    </filter>
    <filter
       color-interpolation-filters="sRGB"
       id="filter5735-7-0">
      <feFlood
         result="flood"
         flood-color="rgb(0,0,0)"
         flood-opacity="0.5"
         id="feFlood5737-3-4" />
      <feComposite
         in2="SourceGraphic"
         operator="in"
         in="flood"
         result="composite1"
         id="feComposite5739-6-1" />
      <feGaussianBlur
         result="blur"
         stdDeviation="2"
         id="feGaussianBlur5741-5-5" />
      <feOffset
         result="offset"
         dy="1.5"
         dx="1.5"
         id="feOffset5743-4-2" />
      <feComposite
         in2="offset"
         operator="over"
         in="SourceGraphic"
         result="composite2"
         id="feComposite5745-10-8" />
    </filter>
    <clipPath
       id="clipPath5693-1-8">
      <rect
         width="170.30554"
         height="157.49495"
         x="41.45607"
         y="282.45609"
         id="rect5695-9-9"
         style="fill:none;stroke:#000000;stroke-width:1.05499017;stroke-miterlimit:4;stroke-opacity:1;stroke-dasharray:none" />
    </clipPath>
    <linearGradient
       x1="61.441303"
       y1="161.2032"
       x2="63.125427"
       y2="273.62759"
       id="linearGradient5773"
       xlink:href="#linearGradient5763-11-58"
       gradientUnits="userSpaceOnUse" />
    <filter
       id="filter3585"
       style="color-interpolation-filters:sRGB;"
       inkscape:label="Drop Shadow">
      <feFlood
         id="feFlood3587"
         flood-opacity="0.5"
         flood-color="rgb(0,0,0)"
         result="flood" />
      <feComposite
         id="feComposite3589"
         in2="SourceGraphic"
         in="flood"
         operator="in"
         result="composite1" />
      <feGaussianBlur
         id="feGaussianBlur3591"
         in="composite"
         stdDeviation="1.5"
         result="blur" />
      <feOffset
         id="feOffset3593"
         dx="1.5"
         dy="1.5"
         result="offset" />
      <feComposite
         id="feComposite3595"
         in2="offset"
         in="SourceGraphic"
         operator="over"
         result="composite2" />
    </filter>
  </defs>
  <metadata
     id="metadata7">
    <rdf:RDF>
      <cc:Work
         rdf:about="">
        <dc:format>image/svg+xml</dc:format>
        <dc:type
           rdf:resource="http://purl.org/dc/dcmitype/StillImage" />
        <dc:title />
      </cc:Work>
    </rdf:RDF>
  </metadata>
  <g
     id="layer4"
     style="display:inline">
    <g
       id="g5881">
      <path
         d="m 34.837365,5.00045 131.100135,0 53.06463,54.048418 -0.15712,187.915102 -184.007645,0 z"
         id="path4010"
         style="color:#000000;fill:url(#linearGradient4518);fill-opacity:1;fill-rule:nonzero;stroke:url(#linearGradient4554);stroke-width:0;marker:none;visibility:visible;display:inline;overflow:visible;filter:url(#filter4640);enable-background:new" />
      <path
         d="m 219.32937,59.651599 c 0.12627,0 -7.3236,-6.060915 -11.49048,-8.207489 -4.16688,-2.146575 -8.94112,-3.519572 -13.63706,-3.535535 -20.02578,-0.06808 -20.07678,0.126269 -20.07678,0.126269 0,0 -0.39604,0.58032 -0.12627,-24.243661 0.0311,-2.86224 -1.51524,-6.944799 -2.65166,-9.47018 -2.24321,-4.3554815 -5.80837,-9.8489872 -5.80837,-9.8489872"
         id="path4492"
         style="fill:url(#linearGradient4500);fill-opacity:1;stroke:none;display:inline;filter:url(#filter5517)" />
      <path
         d="M 165.55869,4.7479137 219.38095,59.680215"
         id="path3998"
         style="color:#000000;fill:none;stroke:#c2c2c2;stroke-width:1;stroke-linecap:round;stroke-linejoin:round;stroke-miterlimit:0;stroke-opacity:1;stroke-dasharray:none;stroke-dashoffset:0;marker:none;visibility:visible;display:inline;overflow:visible;enable-background:new" />
      <path
         d="m 219.38095,59.680215 0.0323,187.851965 -184.954662,0"
         id="path3996"
         style="color:#000000;fill:none;stroke:#878787;stroke-width:2;stroke-linecap:round;stroke-linejoin:round;stroke-miterlimit:0;stroke-opacity:1;stroke-dasharray:none;stroke-dashoffset:0;marker:none;visibility:visible;display:inline;overflow:visible;enable-background:new" />
      <path
         d="m 34.458588,247.53218 -10e-7,-242.9105354 131.100133,0"
         id="rect3067-6"
         style="color:#000000;fill:none;stroke:#b6b6b6;stroke-width:2;stroke-linecap:round;stroke-linejoin:round;stroke-miterlimit:0;stroke-opacity:1;stroke-dasharray:none;stroke-dashoffset:0;marker:none;visibility:visible;display:inline;overflow:visible;enable-background:new" />
      <path
         d="m 219.32937,59.651603 c 0.12627,0 -7.3236,-6.060915 -11.49048,-8.207489 -4.16688,-2.146575 -8.94112,-3.519572 -13.63706,-3.535535 -20.02578,-0.06808 -20.07678,0.126269 -20.07678,0.126269"
         id="path4688"
         style="fill:none;stroke:#878787;stroke-width:2;stroke-linecap:round;stroke-linejoin:miter;stroke-miterlimit:4;stroke-opacity:1;stroke-dasharray:none;display:inline;filter:url(#filter4468)" />
      <path
         d="m 174.12505,48.034848 c 0,0 -0.39604,0.58032 -0.12627,-24.243661 0.0311,-2.86224 -1.51524,-6.944799 -2.65166,-9.47018 -2.24321,-4.3554813 -5.80837,-9.848987 -5.80837,-9.848987"
         id="path4492-2"
         style="fill:none;stroke:#b6b6b6;stroke-width:2;stroke-linecap:round;stroke-linejoin:miter;stroke-miterlimit:4;stroke-opacity:1;stroke-dasharray:none;display:inline;filter:url(#filter4468)" />
      <rect
         width="105"
         height="54.285713"
         x="17.142857"
         y="168.14285"
         transform="matrix(1.3025271,0,0,0.86324706,-5.1656273,-125.56827)"
         id="rect3421-7-0"
         style="fill:url(#linearGradient5773);fill-opacity:1;stroke:#006600;stroke-width:2.29999995;stroke-miterlimit:4;stroke-opacity:1;stroke-dasharray:none;display:inline;filter:url(#filter3643-3-6);enable-background:new" />
      <g
         style="font-size:40px;font-style:normal;font-weight:normal;line-height:125%;letter-spacing:0px;word-spacing:0px;fill:#ffffff;fill-opacity:1;stroke:none;font-family:Sans"
         id="text3044">
        <path
           d="m 65.381096,29.26284 0,6.171875 c -1.601585,-0.716123 -3.164083,-1.256487 -4.6875,-1.621093 -1.523455,-0.36456 -2.962256,-0.546851 -4.316406,-0.546875 -1.796889,2.4e-5 -3.125012,0.247419 -3.984375,0.742187 -0.859385,0.494815 -1.289073,1.263043 -1.289063,2.304688 -1e-5,0.78127 0.286448,1.393248 0.859375,1.835937 0.585927,0.429706 1.640613,0.8008 3.164063,1.113281 l 3.203125,0.644532 c 3.242167,0.651058 5.546852,1.64064 6.914062,2.96875 1.367162,1.328138 2.050756,3.216157 2.050781,5.664062 -2.5e-5,3.216152 -0.957056,5.611983 -2.871093,7.1875 -1.901063,1.5625 -4.811216,2.343749 -8.730469,2.34375 -1.848971,-1e-6 -3.704438,-0.175782 -5.566406,-0.527344 -1.861986,-0.351562 -3.723964,-0.872395 -5.585938,-1.5625 l 0,-6.347656 c 1.861974,0.98959 3.658848,1.738287 5.390625,2.246094 1.744782,0.494797 3.424467,0.742192 5.039063,0.742187 1.640609,5e-6 2.897119,-0.273432 3.769531,-0.820312 0.872378,-0.546869 1.308575,-1.328118 1.308594,-2.34375 -1.9e-5,-0.91145 -0.299498,-1.614574 -0.898438,-2.109375 -0.585955,-0.494781 -1.764339,-0.937489 -3.535156,-1.328125 l -2.910156,-0.644531 c -2.916675,-0.624988 -5.05209,-1.62108 -6.40625,-2.988282 -1.34115,-1.367171 -2.011722,-3.209617 -2.011719,-5.527343 -3e-6,-2.903623 0.937496,-5.136693 2.8125,-6.699219 1.874992,-1.562471 4.570302,-2.343721 8.085937,-2.34375 1.601548,2.9e-5 3.248681,0.123727 4.941407,0.371094 1.692688,0.234404 3.443988,0.592476 5.253906,1.074218"
           style="font-weight:bold;fill:#ffffff;-inkscape-font-specification:Sans Bold"
           id="path3598" />
        <path
           d="m 73.916252,28.344872 7.519531,0 0,11.113281 11.09375,0 0,-11.113281 7.519527,0 0,29.160156 -7.519527,0 0,-12.363281 -11.09375,0 0,12.363281 -7.519531,0 0,-29.160156"
           style="font-weight:bold;fill:#ffffff;-inkscape-font-specification:Sans Bold"
           id="path3600" />
        <path
           d="m 107.43188,28.344872 12.48047,0 c 3.71091,2.9e-5 6.55596,0.826851 8.53515,2.480468 1.99216,1.64065 2.98826,3.984398 2.98828,7.03125 -2e-5,3.059913 -0.99612,5.416681 -2.98828,7.070313 -1.97919,1.640636 -4.82424,2.460947 -8.53515,2.460937 l -4.96094,0 0,10.117188 -7.51953,0 0,-29.160156 m 7.51953,5.449218 0,8.144532 4.16015,0 c 1.45832,1.5e-5 2.58462,-0.351547 3.37891,-1.054688 0.79425,-0.716128 1.19139,-1.725242 1.19141,-3.027344 -2e-5,-1.302062 -0.39716,-2.304665 -1.19141,-3.007812 -0.79429,-0.703102 -1.92059,-1.054664 -3.37891,-1.054688 l -4.16015,0"
           style="font-weight:bold;fill:#ffffff;-inkscape-font-specification:Sans Bold"
           id="path3602" />
      </g>
      <g
         transform="matrix(5.8214285,0,0,5.8214285,59.428575,56.060321)"
         id="g3001"
         style="display:inline;filter:url(#filter3585)">
        <path
           d="m 2.3679157,10.367915 6.4127726,15.444072 7.0525377,-15.300041 5.798858,-0.02194"
           id="path2960"
           style="color:#000000;fill:none;stroke:#415a75;stroke-width:1.34032965;stroke-linecap:round;stroke-linejoin:round;stroke-miterlimit:4;stroke-opacity:1;stroke-dasharray:none;stroke-dashoffset:0;marker:none;visibility:visible;display:inline;overflow:visible;enable-background:accumulate" />
        <path
           d="m 4.5,12.5 a 1,1 0 1 1 -2,0 1,1 0 1 1 2,0 z"
           transform="matrix(1.6977509,0,0,1.6977509,-3.5742125,-10.853971)"
           id="path2958"
           style="color:#000000;fill:#eeeeec;fill-opacity:1;fill-rule:evenodd;stroke:#415a75;stroke-width:0.78947365;stroke-linecap:round;stroke-linejoin:round;stroke-miterlimit:4;stroke-opacity:1;stroke-dasharray:none;stroke-dashoffset:0;marker:none;visibility:visible;display:inline;overflow:visible;enable-background:accumulate" />
        <path
           d="m 4.5,12.5 a 1,1 0 1 1 -2,0 1,1 0 1 1 2,0 z"
           transform="matrix(1.6977509,0,0,1.6977509,2.8595836,3.7804708)"
           id="path2958-0"
           style="color:#000000;fill:#eeeeec;fill-opacity:1;fill-rule:evenodd;stroke:#415a75;stroke-width:1.05263162;stroke-linecap:round;stroke-linejoin:round;stroke-miterlimit:4;stroke-opacity:1;stroke-dasharray:none;stroke-dashoffset:0;marker:none;visibility:visible;display:inline;overflow:visible;enable-background:accumulate" />
        <path
           d="m 4.5,12.5 a 1,1 0 1 1 -2,0 1,1 0 1 1 2,0 z"
           transform="matrix(1.6977509,0,0,1.6977509,9.7119108,-10.7459)"
           id="path2958-9"
           style="color:#000000;fill:#eeeeec;fill-opacity:1;fill-rule:evenodd;stroke:#415a75;stroke-width:0.78947365;stroke-linecap:round;stroke-linejoin:round;stroke-miterlimit:4;stroke-opacity:1;stroke-dasharray:none;stroke-dashoffset:0;marker:none;visibility:visible;display:inline;overflow:visible;enable-background:accumulate" />
        <path
           d="m 4.5,12.5 a 1,1 0 1 1 -2,0 1,1 0 1 1 2,0 z"
           transform="matrix(1.6977509,0,0,1.6977509,15.689956,-10.731884)"
           id="path2958-6"
           style="color:#000000;fill:#eeeeec;fill-opacity:1;fill-rule:evenodd;stroke:#415a75;stroke-width:0.78947365;stroke-linecap:round;stroke-linejoin:round;stroke-miterlimit:4;stroke-opacity:1;stroke-dasharray:none;stroke-dashoffset:0;marker:none;visibility:visible;display:inline;overflow:visible;enable-background:accumulate" />
      </g>
    </g>
  </g>
</svg>
