<svg xmlns="http://www.w3.org/2000/svg" xmlns:xlink="http://www.w3.org/1999/xlink" enable-background="new" height="256" width="256"><linearGradient id="a"><stop offset="0" stop-color="#f5f5f5"/><stop offset="1" stop-color="#fff"/></linearGradient><linearGradient id="d" gradientUnits="userSpaceOnUse" x1="190.523" x2="180.141" y1="30.799" y2="41.595"><stop offset="0" stop-color="#afafaf"/><stop offset="1" stop-color="#fff"/></linearGradient><linearGradient id="b" gradientUnits="userSpaceOnUse" x1="120.707" x2="123.01" xlink:href="#a" y1="244.554" y2="121.558"/><filter id="c" color-interpolation-filters="sRGB"><feFlood flood-opacity=".851" result="flood"/><feComposite in="flood" in2="SourceGraphic" operator="in" result="composite1"/><feGaussianBlur result="blur" stdDeviation="4"/><feOffset dx="1.8" dy="1.8" result="offset"/><feComposite in="SourceGraphic" in2="offset" result="composite2"/></filter><filter id="e" color-interpolation-filters="sRGB"><feFlood flood-opacity=".775" result="flood"/><feComposite in="flood" in2="SourceGraphic" operator="in" result="composite1"/><feGaussianBlur result="blur" stdDeviation="4"/><feOffset dx="1.8" dy="1.8" result="offset"/><feComposite in="SourceGraphic" in2="offset" result="composite2"/></filter><filter id="i" color-interpolation-filters="sRGB"><feFlood flood-opacity=".419" result="flood"/><feComposite in="flood" in2="SourceGraphic" operator="in" result="composite1"/><feGaussianBlur result="blur" stdDeviation="1.8"/><feOffset dx="3" dy="3" result="offset"/><feComposite in="SourceGraphic" in2="offset" result="composite2"/></filter><filter id="f" color-interpolation-filters="sRGB"><feFlood flood-opacity=".5" result="flood"/><feComposite in="flood" in2="SourceGraphic" operator="in" result="composite1"/><feGaussianBlur result="blur" stdDeviation="2"/><feOffset dx="1.5" dy="1.5" result="offset"/><feComposite in="SourceGraphic" in2="offset" result="composite2"/></filter><clipPath id="g"><path d="M41.456 282.456h170.306v157.495H41.456z"/></clipPath><linearGradient id="h" gradientUnits="userSpaceOnUse" x1="61.441" x2="63.125" y1="161.203" y2="273.628"><stop offset="0" stop-color="#129300"/><stop offset="1" stop-color="#e4f363"/></linearGradient><path d="M34.837 5h131.1l53.065 54.049-.157 187.915H34.837z" fill="url(#b)" filter="url(#c)"/><path d="M219.33 59.652c.126 0-7.324-6.061-11.491-8.208-4.167-2.146-8.941-3.52-13.637-3.535-20.026-.069-20.077.126-20.077.126s-.396.58-.126-24.244c.03-2.862-1.515-6.945-2.652-9.47-2.243-4.355-5.808-9.849-5.808-9.849" fill="url(#d)" filter="url(#e)"/><g fill="none" stroke-linecap="round" stroke-linejoin="round" stroke-miterlimit="0"><path d="M165.559 4.748L219.38 59.68" stroke="#c2c2c2"/><path d="M219.381 59.68l.032 187.852H34.46" stroke="#878787" stroke-width="2"/><path d="M34.459 247.532V4.622h131.1" stroke="#b6b6b6" stroke-width="2"/></g><g filter="url(#f)" transform="translate(-5.555 -294.705)"><path d="M54.286 380.286h157.143V526H54.286z" fill="#fff" stroke="#b3b3b3"/><g clip-path="url(#g)" transform="translate(31.737 164.656) scale(.79868)"><path d="M17.678 270.142H235.87V451.97H17.678z" fill="#b9df4f" stroke="#f4e9d4" stroke-width="6.3"/><path d="M149.643 297.429l56.786 46.071-47.143 61.071L100.714 356z" fill="#159401" stroke="#000"/><g stroke="#fcfcb4"><path d="M7.87 281.042l204.507 168.257" fill="#fcfc48" stroke-width="15.407"/><path d="M67.68 331.256l-70.71 86.368" fill="none" stroke-width="10"/><path d="M157.584 406.513l106.57-134.856" fill="none" stroke-width="5"/><path d="M100.005 358.53l81.317-100.005" fill="none" stroke-width="10"/><path d="M150.008 297.416l56.568 45.962 19.193 103.036" fill="none" stroke-width="5"/></g><path d="M118.188 375.703L5.556 407.018" fill="none" stroke="#fcfcb0" stroke-width="5"/></g></g><path d="M17.143 168.143h105v54.286h-105z" fill="url(#h)" filter="url(#i)" stroke="#060" stroke-width="2.3" transform="matrix(1.30253 0 0 .86325 -5.166 -125.568)"/><path d="M57.332 57.33h-.586c-4.805 0-8.542-1.329-11.21-3.985-2.67-2.656-4.005-6.354-4.005-11.094 0-4.726 1.328-8.43 3.985-11.113 2.669-2.682 6.34-4.024 11.015-4.024 4.727 0 8.405 1.329 11.035 3.985 2.644 2.656 3.965 6.374 3.965 11.152 0 3.281-.703 6.107-2.109 8.477-1.393 2.37-3.405 4.153-6.035 5.351l5.879 6.563h-7.168zm-.8-24.766c-2.292 0-4.07.846-5.333 2.539-1.263 1.692-1.894 4.075-1.894 7.148 0 3.125.618 5.521 1.855 7.188 1.237 1.653 3.028 2.48 5.371 2.48 2.305 0 4.089-.846 5.352-2.539s1.894-4.069 1.894-7.129c0-3.073-.631-5.456-1.894-7.148-1.263-1.693-3.047-2.54-5.352-2.54" fill="#fff" fill-rule="evenodd"/><path d="M103.406 54.634a26.837 26.837 0 01-5.84 2.05 28.29 28.29 0 01-6.25.684c-4.856 0-8.704-1.354-11.542-4.062-2.839-2.721-4.258-6.406-4.258-11.055 0-4.7 1.445-8.398 4.336-11.094 2.89-2.695 6.849-4.043 11.875-4.043 1.94 0 3.795.183 5.566.547 1.784.365 3.464.905 5.04 1.621v6.036c-1.629-.925-3.25-1.615-4.864-2.07a17.553 17.553 0 00-4.824-.684c-2.995 0-5.306.84-6.934 2.52-1.615 1.666-2.422 4.055-2.422 7.167 0 3.086.781 5.469 2.344 7.149 1.562 1.68 3.782 2.52 6.66 2.52.781 0 1.504-.046 2.168-.138a8.592 8.592 0 001.816-.468V45.65h-4.59v-5.04h11.72z" fill="#fff"/><text style="line-height:1.25;-inkscape-font-specification:Trueno" x="106.934" y="57.092" font-weight="400" font-size="55.913" font-family="Trueno" letter-spacing="0" word-spacing="0" fill="#fff" stroke-width="8.784"><tspan x="106.934" y="57.092" style="-inkscape-font-specification:'Trueno Semi-Bold'" font-weight="600">z</tspan></text><path fill="#888a85" d="M143.512 24.789v20.834c0 5.73 4.661 10.417 10.417 10.417 5.755 0 10.417-4.688 10.417-10.417V24.789z"/><path fill="#555" d="M153.929 24.789v5.208h5.208V24.79zm0 5.208h-5.209v5.209h5.209zm0 5.209v5.208h5.208v-5.208zm0 5.208h-5.209v5.209h5.209zm0 5.209v5.208c2.875 0 5.208-2.604 5.208-5.208z"/><path fill="#ddd" d="M148.72 24.789v5.208h5.209V24.79zm0 10.417v5.208h5.209v-5.208zm0 10.417c0 2.604 2.334 5.208 5.209 5.208v-5.208z"/><path fill="#cfcfcf" d="M153.929 29.997h5.208v5.209h-5.208zm0 10.417h5.208v5.209h-5.208z"/><path fill="#555" d="M153.929 50.831c-5.756 0-10.417 4.688-10.417 10.417v20.834c0 5.73 4.661 10.417 10.417 10.417 5.755 0 10.417-4.688 10.417-10.417V61.248c0-5.73-4.662-10.417-10.417-10.417zm0 5.209c2.875 0 5.208 2.083 5.208 5.208 0 2.604-2.333 5.209-5.208 5.209s-5.209-2.605-5.209-5.209c0-3.125 2.334-5.208 5.209-5.208zm0 15.625c2.875 0 5.208 2.083 5.208 5.208v5.209c0 2.604-2.333 5.208-5.208 5.208s-5.209-2.604-5.209-5.208v-5.209c0-3.125 2.334-5.208 5.209-5.208zm-5.209-52.084h5.209v5.208h-5.209z"/><path d="M153.929 19.58h5.208v5.209h-5.208z" fill="#cfcfcf"/></svg>
