<?xml version="1.0" encoding="UTF-8"?>
<svg width="256" height="256" enable-background="new" xmlns="http://www.w3.org/2000/svg" xmlns:xlink="http://www.w3.org/1999/xlink">
 <linearGradient id="a">
  <stop stop-color="#f5f5f5" offset="0"/>
  <stop stop-color="#fff" offset="1"/>
 </linearGradient>
 <linearGradient id="b" x1="190.52" x2="180.14" y1="30.799" y2="41.595" gradientUnits="userSpaceOnUse">
  <stop stop-color="#afafaf" offset="0"/>
  <stop stop-color="#fff" offset="1"/>
 </linearGradient>
 <linearGradient id="c" x1="120.71" x2="123.01" y1="244.55" y2="121.56" gradientUnits="userSpaceOnUse" xlink:href="#a"/>
 <linearGradient id="d" x1="-19.832" x2="384.75" y1="221.76" y2="222.77" gradientUnits="userSpaceOnUse" xlink:href="#a"/>
 <filter id="e" color-interpolation-filters="sRGB">
  <feFlood flood-opacity=".85145" result="flood"/>
  <feComposite in="flood" in2="SourceGraphic" operator="in" result="composite1"/>
  <feGaussianBlur result="blur" stdDeviation="4"/>
  <feOffset dx="1.8" dy="1.8" result="offset"/>
  <feComposite in="SourceGraphic" in2="offset" result="composite2"/>
 </filter>
 <filter id="f" color-interpolation-filters="sRGB">
  <feFlood flood-opacity=".77536" result="flood"/>
  <feComposite in="flood" in2="SourceGraphic" operator="in" result="composite1"/>
  <feGaussianBlur result="blur" stdDeviation="4"/>
  <feOffset dx="1.8" dy="1.8" result="offset"/>
  <feComposite in="SourceGraphic" in2="offset" result="composite2"/>
 </filter>
 <filter id="g" color-interpolation-filters="sRGB">
  <feFlood flood-opacity=".419" result="flood"/>
  <feComposite in="flood" in2="SourceGraphic" operator="in" result="composite1"/>
  <feGaussianBlur result="blur" stdDeviation="1.8"/>
  <feOffset dx="3" dy="3" result="offset"/>
  <feComposite in="SourceGraphic" in2="offset" result="composite2"/>
 </filter>
 <filter id="h" color-interpolation-filters="sRGB">
  <feFlood flood-opacity=".5" result="flood"/>
  <feComposite in="flood" in2="SourceGraphic" operator="in" result="composite1"/>
  <feGaussianBlur result="blur" stdDeviation="2"/>
  <feOffset dx="1.5" dy="1.5" result="offset"/>
  <feComposite in="SourceGraphic" in2="offset" result="composite2"/>
 </filter>
 <clipPath id="i">
  <path d="m41.456 282.46h170.31v157.49h-170.31z"/>
 </clipPath>
 <linearGradient id="j" x1="61.441" x2="63.125" y1="161.2" y2="273.63" gradientUnits="userSpaceOnUse">
  <stop stop-color="#129300" offset="0"/>
  <stop stop-color="#e4f363" offset="1"/>
 </linearGradient>
 <path d="m34.837 5.0004h131.1l53.065 54.048-0.15712 187.92h-184.01z" fill="url(#c)" filter="url(#e)" overflow="visible" stroke="url(#d)" stroke-width="0"/>
 <path d="m219.33 59.652c0.12627 0-7.3236-6.0609-11.49-8.2075-4.1669-2.1466-8.9411-3.5196-13.637-3.5355-20.026-0.06808-20.077 0.12627-20.077 0.12627s-0.39604 0.58032-0.12627-24.244c0.0311-2.8622-1.5152-6.9448-2.6517-9.4702-2.2432-4.3555-5.8084-9.849-5.8084-9.849" fill="url(#b)" filter="url(#f)"/>
 <path d="m165.56 4.7479 53.822 54.932" fill="none" stroke="#c2c2c2" stroke-linecap="round" stroke-linejoin="round" stroke-miterlimit="0"/>
 <path d="m219.38 59.68 0.0323 187.85h-184.95" fill="none" stroke="#878787" stroke-linecap="round" stroke-linejoin="round" stroke-miterlimit="0" stroke-width="2"/>
 <path d="m34.459 247.53-1e-6 -242.91h131.1" fill="none" stroke="#b6b6b6" stroke-linecap="round" stroke-linejoin="round" stroke-miterlimit="0" stroke-width="2"/>
 <path d="m219.33 59.652c0.12627 0-7.3236-6.0609-11.49-8.2075-4.1669-2.1466-8.9411-3.5196-13.637-3.5355-20.026-0.06808-20.077 0.12627-20.077 0.12627" fill="none" stroke="#878787" stroke-linecap="round" stroke-width="2" visibility="hidden"/>
 <path d="m174.13 48.035s-0.39604 0.58032-0.12627-24.244c0.0311-2.8622-1.5152-6.9448-2.6517-9.4702-2.2432-4.3555-5.8084-9.849-5.8084-9.849" fill="none" stroke="#b6b6b6" stroke-linecap="round" stroke-width="2" visibility="hidden"/>
 <g transform="translate(-5.5551 -294.71)" enable-background="new" filter="url(#h)">
  <path d="m54.286 380.29h157.14v145.71h-157.14z" fill="#fff" stroke="#b3b3b3"/>
  <g transform="matrix(.79868 0 0 .79868 31.737 164.66)" clip-path="url(#i)">
   <path d="m17.678 270.14h218.19v181.83h-218.19z" fill="#b9df4f" stroke="#f4e9d4" stroke-width="6.3"/>
   <path d="m149.64 297.43 56.786 46.071-47.143 61.071-58.571-48.571z" fill="#159401" stroke="#000"/>
   <path d="m7.8694 281.04 204.51 168.26" fill="#fcfc48" stroke="#fcfcb4" stroke-width="15.407"/>
   <path d="m67.68 331.26-70.711 86.368" fill="none" stroke="#fcfcb4" stroke-width="10"/>
   <path d="m157.58 406.51 106.57-134.86" fill="none" stroke="#fcfcb4" stroke-width="5"/>
   <path d="m100.01 358.53 81.317-100.01" fill="none" stroke="#fcfcb4" stroke-width="10"/>
   <path d="m150.01 297.42 56.569 45.962 19.193 103.04" fill="none" stroke="#fcfcb4" stroke-width="5"/>
   <path d="m118.19 375.7-112.63 31.315" fill="none" stroke="#fcfcb0" stroke-width="5"/>
  </g>
 </g>
 <path transform="matrix(1.3025 0 0 .86325 -5.1656 -125.57)" d="m17.143 168.14h105v54.286h-105z" fill="url(#j)" filter="url(#g)" stroke="#060" stroke-width="2.3"/>
 <path d="m57.332 57.329h-0.58594c-4.8047 0-8.5417-1.3281-11.211-3.9844-2.6693-2.6562-4.0039-6.3542-4.0039-11.094-2e-6 -4.7265 1.3281-8.431 3.9844-11.113 2.6693-2.6823 6.3411-4.0234 11.016-4.0234 4.7265 3e-5 8.4049 1.3282 11.035 3.9844 2.6432 2.6563 3.9648 6.3737 3.9648 11.152-3.2e-5 3.2813-0.70316 6.1068-2.1094 8.4766-1.3933 2.3698-3.405 4.1536-6.0352 5.3516l5.8789 6.5625h-7.168zm-0.80078-24.766c-2.2917 2.4e-5 -4.069 0.84638-5.332 2.5391-1.263 1.6927-1.8945 4.0755-1.8945 7.1484-1e-5 3.125 0.61848 5.5208 1.8555 7.1875 1.237 1.6537 3.0273 2.4805 5.3711 2.4805 2.3047 5e-6 4.0885-0.84635 5.3516-2.5391 1.263-1.6927 1.8945-4.069 1.8945-7.1289-2.4e-5 -3.0729-0.63153-5.4557-1.8945-7.1484-1.263-1.6927-3.0469-2.539-5.3516-2.5391" fill="#fff" fill-rule="evenodd"/>
 <path d="m103.41 54.634c-1.875 0.91146-3.8216 1.5951-5.8398 2.0508-2.0183 0.45573-4.1016 0.68359-6.25 0.68359-4.8568-1e-6 -8.7044-1.3542-11.543-4.0625-2.8385-2.7213-4.2578-6.4062-4.2578-11.055-2e-6 -4.7005 1.4453-8.3984 4.3359-11.094 2.8906-2.6953 6.8489-4.0429 11.875-4.043 1.9401 3e-5 3.7956 0.18232 5.5664 0.54688 1.7838 0.36461 3.4635 0.90498 5.0391 1.6211v6.0352c-1.6276-0.92446-3.2487-1.6146-4.8633-2.0703-1.6016-0.4557-3.2097-0.68357-4.8242-0.68359-2.9948 2.4e-5 -5.306 0.83987-6.9336 2.5195-1.6146 1.6667-2.4219 4.056-2.4219 7.168-1e-5 3.0859 0.78124 5.4688 2.3438 7.1484 1.5625 1.6797 3.7825 2.5195 6.6602 2.5195 0.78123 5e-6 1.5039-0.04557 2.168-0.13672 0.67706-0.10416 1.2825-0.26041 1.8164-0.46875v-5.6641h-4.5898v-5.0391h11.719z" fill="#fff"/>
 <path d="m130.3 28.56v6.1719c-1.6016-0.71612-3.1641-1.2565-4.6875-1.6211-1.5235-0.36456-2.9623-0.54685-4.3164-0.54688-1.7969 2.4e-5 -3.125 0.24742-3.9844 0.74219-0.85939 0.49481-1.2891 1.263-1.2891 2.3047-1e-5 0.78127 0.28645 1.3932 0.85938 1.8359 0.58593 0.42971 1.6406 0.8008 3.1641 1.1133l3.2031 0.64453c3.2422 0.65106 5.5468 1.6406 6.9141 2.9688 1.3672 1.3281 2.0508 3.2162 2.0508 5.6641-3e-5 3.2162-0.95706 5.612-2.8711 7.1875-1.9011 1.5625-4.8112 2.3437-8.7305 2.3438-1.849-1e-6 -3.7044-0.17578-5.5664-0.52734-1.862-0.35156-3.724-0.8724-5.5859-1.5625v-6.3477c1.862 0.98959 3.6588 1.7383 5.3906 2.2461 1.7448 0.4948 3.4245 0.74219 5.0391 0.74219 1.6406 5e-6 2.8971-0.27343 3.7695-0.82031 0.87238-0.54687 1.3086-1.3281 1.3086-2.3438-2e-5 -0.91145-0.2995-1.6146-0.89844-2.1094-0.58596-0.49478-1.7643-0.93749-3.5352-1.3281l-2.9102-0.64453c-2.9167-0.62499-5.0521-1.6211-6.4062-2.9883-1.3412-1.3672-2.0117-3.2096-2.0117-5.5273-1e-5 -2.9036 0.93749-5.1367 2.8125-6.6992 1.875-1.5625 4.5703-2.3437 8.0859-2.3438 1.6015 3e-5 3.2487 0.12373 4.9414 0.37109 1.6927 0.2344 3.444 0.59248 5.2539 1.0742" fill="#fff"/>
</svg>
