<?xml version="1.0" encoding="UTF-8" standalone="no"?>
<!-- Created with Inkscape (http://www.inkscape.org/) -->

<svg
   xmlns:dc="http://purl.org/dc/elements/1.1/"
   xmlns:cc="http://creativecommons.org/ns#"
   xmlns:rdf="http://www.w3.org/1999/02/22-rdf-syntax-ns#"
   xmlns:svg="http://www.w3.org/2000/svg"
   xmlns="http://www.w3.org/2000/svg"
   xmlns:xlink="http://www.w3.org/1999/xlink"
   version="1.1"
   width="256"
   height="256"
   id="svg2"
   style="enable-background:new">
  <defs
     id="defs4">
    <linearGradient
       id="linearGradient4690">
      <stop
         id="stop4692"
         style="stop-color:#afafaf;stop-opacity:1"
         offset="0" />
      <stop
         id="stop4694"
         style="stop-color:#ffffff;stop-opacity:1"
         offset="1" />
    </linearGradient>
    <linearGradient
       id="linearGradient4494">
      <stop
         id="stop4520"
         style="stop-color:#f5f5f5;stop-opacity:1"
         offset="0" />
      <stop
         id="stop4524"
         style="stop-color:#ffffff;stop-opacity:1"
         offset="1" />
    </linearGradient>
    <linearGradient
       x1="190.52345"
       y1="30.799114"
       x2="180.14067"
       y2="41.59544"
       id="linearGradient4500"
       xlink:href="#linearGradient4690"
       gradientUnits="userSpaceOnUse" />
    <linearGradient
       x1="120.7066"
       y1="244.55363"
       x2="123.01035"
       y2="121.55801"
       id="linearGradient4518"
       xlink:href="#linearGradient4494"
       gradientUnits="userSpaceOnUse" />
    <linearGradient
       x1="-19.831818"
       y1="221.75748"
       x2="384.75043"
       y2="222.76762"
       id="linearGradient4554"
       xlink:href="#linearGradient4494"
       gradientUnits="userSpaceOnUse" />
    <filter
       color-interpolation-filters="sRGB"
       id="filter4640">
      <feFlood
         id="feFlood4642"
         flood-opacity="0.85144927536231885"
         flood-color="rgb(0,0,0)"
         result="flood" />
      <feComposite
         in2="SourceGraphic"
         operator="in"
         in="flood"
         result="composite1"
         id="feComposite4644" />
      <feGaussianBlur
         id="feGaussianBlur4646"
         stdDeviation="4"
         result="blur" />
      <feOffset
         id="feOffset4648"
         dx="1.8"
         dy="1.8"
         result="offset" />
      <feComposite
         in2="offset"
         operator="over"
         in="SourceGraphic"
         result="composite2"
         id="feComposite4650" />
    </filter>
    <filter
       color-interpolation-filters="sRGB"
       id="filter5517">
      <feFlood
         id="feFlood5519"
         flood-opacity="0.77536231884057971"
         flood-color="rgb(0,0,0)"
         result="flood" />
      <feComposite
         in2="SourceGraphic"
         operator="in"
         in="flood"
         result="composite1"
         id="feComposite5521" />
      <feGaussianBlur
         id="feGaussianBlur5523"
         stdDeviation="4"
         result="blur" />
      <feOffset
         id="feOffset5525"
         dx="1.8"
         dy="1.8"
         result="offset" />
      <feComposite
         in2="offset"
         operator="over"
         in="SourceGraphic"
         result="composite2"
         id="feComposite5527" />
    </filter>
    <linearGradient
       id="linearGradient5763-11-58">
      <stop
         id="stop3893-4-11"
         style="stop-color:#129300;stop-opacity:1"
         offset="0" />
      <stop
         id="stop3891-6-3"
         style="stop-color:#e4f363;stop-opacity:1"
         offset="1" />
    </linearGradient>
    <filter
       color-interpolation-filters="sRGB"
       id="filter3643-3-6">
      <feFlood
         id="feFlood3645-898-34"
         flood-opacity="0.419"
         flood-color="rgb(0,0,0)"
         result="flood" />
      <feComposite
         in2="SourceGraphic"
         operator="in"
         in="flood"
         result="composite1"
         id="feComposite3647-03-3" />
      <feGaussianBlur
         id="feGaussianBlur3649-6-2"
         stdDeviation="1.8"
         result="blur" />
      <feOffset
         id="feOffset3651-5-66"
         dx="3"
         dy="3"
         result="offset" />
      <feComposite
         in2="offset"
         operator="over"
         in="SourceGraphic"
         result="composite2"
         id="feComposite3653-9-2" />
    </filter>
    <filter
       color-interpolation-filters="sRGB"
       id="filter5735-7-0">
      <feFlood
         id="feFlood5737-3-4"
         flood-opacity="0.5"
         flood-color="rgb(0,0,0)"
         result="flood" />
      <feComposite
         in2="SourceGraphic"
         operator="in"
         in="flood"
         result="composite1"
         id="feComposite5739-6-1" />
      <feGaussianBlur
         id="feGaussianBlur5741-5-5"
         stdDeviation="2"
         result="blur" />
      <feOffset
         id="feOffset5743-4-2"
         dx="1.5"
         dy="1.5"
         result="offset" />
      <feComposite
         in2="offset"
         operator="over"
         in="SourceGraphic"
         result="composite2"
         id="feComposite5745-10-8" />
    </filter>
    <clipPath
       id="clipPath5693-1-8">
      <rect
         width="170.30554"
         height="157.49495"
         x="41.45607"
         y="282.45609"
         id="rect5695-9-9"
         style="fill:none;stroke:#000000;stroke-width:1.05499017;stroke-miterlimit:4;stroke-opacity:1;stroke-dasharray:none" />
    </clipPath>
    <linearGradient
       x1="61.441303"
       y1="161.2032"
       x2="63.125427"
       y2="273.62759"
       id="linearGradient5773"
       xlink:href="#linearGradient5763-11-58"
       gradientUnits="userSpaceOnUse" />
  </defs>
  <metadata
     id="metadata7">
    <rdf:RDF>
      <cc:Work
         rdf:about="">
        <dc:format>image/svg+xml</dc:format>
        <dc:type
           rdf:resource="http://purl.org/dc/dcmitype/StillImage" />
        <dc:title></dc:title>
      </cc:Work>
    </rdf:RDF>
  </metadata>
  <g
     id="layer4"
     style="display:inline">
    <g
       id="g5881">
      <path
         d="m 34.837365,5.00045 131.100135,0 53.06463,54.048418 -0.15712,187.915102 -184.007645,0 z"
         id="path4010"
         style="color:#000000;fill:url(#linearGradient4518);fill-opacity:1;fill-rule:nonzero;stroke:url(#linearGradient4554);stroke-width:0;marker:none;visibility:visible;display:inline;overflow:visible;filter:url(#filter4640);enable-background:new" />
      <path
         d="m 219.32937,59.651599 c 0.12627,0 -7.3236,-6.060915 -11.49048,-8.207489 -4.16688,-2.146575 -8.94112,-3.519572 -13.63706,-3.535535 -20.02578,-0.06808 -20.07678,0.126269 -20.07678,0.126269 0,0 -0.39604,0.58032 -0.12627,-24.243661 0.0311,-2.86224 -1.51524,-6.944799 -2.65166,-9.47018 -2.24321,-4.3554815 -5.80837,-9.8489872 -5.80837,-9.8489872"
         id="path4492"
         style="fill:url(#linearGradient4500);fill-opacity:1;stroke:none;display:inline;filter:url(#filter5517)" />
      <path
         d="M 165.55869,4.7479137 219.38095,59.680215"
         id="path3998"
         style="color:#000000;fill:none;stroke:#c2c2c2;stroke-width:1;stroke-linecap:round;stroke-linejoin:round;stroke-miterlimit:0;stroke-opacity:1;stroke-dasharray:none;stroke-dashoffset:0;marker:none;visibility:visible;display:inline;overflow:visible;enable-background:new" />
      <path
         d="m 219.38095,59.680215 0.0323,187.851965 -184.954662,0"
         id="path3996"
         style="color:#000000;fill:none;stroke:#878787;stroke-width:2;stroke-linecap:round;stroke-linejoin:round;stroke-miterlimit:0;stroke-opacity:1;stroke-dasharray:none;stroke-dashoffset:0;marker:none;visibility:visible;display:inline;overflow:visible;enable-background:new" />
      <path
         d="m 34.458588,247.53218 -10e-7,-242.9105354 131.100133,0"
         id="rect3067-6"
         style="color:#000000;fill:none;stroke:#b6b6b6;stroke-width:2;stroke-linecap:round;stroke-linejoin:round;stroke-miterlimit:0;stroke-opacity:1;stroke-dasharray:none;stroke-dashoffset:0;marker:none;visibility:visible;display:inline;overflow:visible;enable-background:new" />
      <path
         d="m 219.32937,59.651603 c 0.12627,0 -7.3236,-6.060915 -11.49048,-8.207489 -4.16688,-2.146575 -8.94112,-3.519572 -13.63706,-3.535535 -20.02578,-0.06808 -20.07678,0.126269 -20.07678,0.126269"
         id="path4688"
         style="fill:none;stroke:#878787;stroke-width:2;stroke-linecap:round;stroke-linejoin:miter;stroke-miterlimit:4;stroke-opacity:1;stroke-dasharray:none;display:inline;filter:url(#filter4468)" />
      <path
         d="m 174.12505,48.034848 c 0,0 -0.39604,0.58032 -0.12627,-24.243661 0.0311,-2.86224 -1.51524,-6.944799 -2.65166,-9.47018 -2.24321,-4.3554813 -5.80837,-9.848987 -5.80837,-9.848987"
         id="path4492-2"
         style="fill:none;stroke:#b6b6b6;stroke-width:2;stroke-linecap:round;stroke-linejoin:miter;stroke-miterlimit:4;stroke-opacity:1;stroke-dasharray:none;display:inline;filter:url(#filter4468)" />
      <g
         transform="translate(-5.5550973,-294.70523)"
         id="g5699-1-3"
         style="display:inline;filter:url(#filter5735-7-0);enable-background:new">
        <rect
           width="157.14285"
           height="145.71428"
           x="54.285713"
           y="380.28571"
           id="rect5697-21-1"
           style="fill:#ffffff;stroke:#b3b3b3;stroke-width:1;stroke-miterlimit:4;stroke-opacity:1;stroke-dasharray:none" />
        <g
           transform="matrix(0.79868116,0,0,0.79868116,31.737044,164.65637)"
           clip-path="url(#clipPath5693-1-8)"
           id="g5683-4-4">
          <rect
             width="218.19295"
             height="181.82745"
             x="17.67767"
             y="270.14215"
             id="rect5647-6-1"
             style="fill:#b9df4f;fill-opacity:1;stroke:#f4e9d4;stroke-width:6.30000019;stroke-miterlimit:4;stroke-opacity:1;stroke-dasharray:none" />
          <path
             d="M 149.64286,297.42857 206.42857,343.5 159.28571,404.57143 100.71429,356 z"
             id="path5649-3-1"
             style="fill:#159401;fill-opacity:1;stroke:#000000;stroke-width:1px;stroke-linecap:butt;stroke-linejoin:miter;stroke-opacity:1" />
          <path
             d="M 7.8693891,281.04198 212.37723,449.29913"
             id="path5635-16-4"
             style="fill:#fcfc48;stroke:#fcfcb4;stroke-width:15.40660095;stroke-linecap:butt;stroke-linejoin:miter;stroke-miterlimit:4;stroke-opacity:1;stroke-dasharray:none" />
          <path
             d="M 67.680221,331.25636 -3.0304576,417.62441"
             id="path5637-2-0"
             style="fill:none;stroke:#fcfcb4;stroke-width:10;stroke-linecap:butt;stroke-linejoin:miter;stroke-miterlimit:4;stroke-opacity:1;stroke-dasharray:none" />
          <path
             d="M 157.5838,406.51273 264.15489,271.65736"
             id="path5639-1-7"
             style="fill:none;stroke:#fcfcb4;stroke-width:5;stroke-linecap:butt;stroke-linejoin:miter;stroke-miterlimit:4;stroke-opacity:1;stroke-dasharray:none" />
          <path
             d="m 100.0051,358.53048 81.31728,-100.0051"
             id="path5641-51-1"
             style="fill:none;stroke:#fcfcb4;stroke-width:10;stroke-linecap:butt;stroke-linejoin:miter;stroke-miterlimit:4;stroke-opacity:1;stroke-dasharray:none" />
          <path
             d="m 150.00765,297.41625 56.56855,45.96195 19.19289,103.03555"
             id="path5643-6-9"
             style="fill:none;stroke:#fcfcb4;stroke-width:5;stroke-linecap:butt;stroke-linejoin:miter;stroke-miterlimit:4;stroke-opacity:1;stroke-dasharray:none" />
          <path
             d="M 118.18785,375.70308 5.555839,407.01781"
             id="path5645-4-3"
             style="fill:none;stroke:#fcfcb0;stroke-width:5;stroke-linecap:butt;stroke-linejoin:miter;stroke-miterlimit:4;stroke-opacity:1;stroke-dasharray:none" />
        </g>
      </g>
      <rect
         width="105"
         height="54.285713"
         x="17.142857"
         y="168.14285"
         transform="matrix(1.3025271,0,0,0.86324706,-5.1656273,-125.56827)"
         id="rect3421-7-0"
         style="fill:url(#linearGradient5773);fill-opacity:1;stroke:#006600;stroke-width:2.29999995;stroke-miterlimit:4;stroke-opacity:1;stroke-dasharray:none;display:inline;filter:url(#filter3643-3-6);enable-background:new" />
      <path
         d="m 57.332108,57.329296 -0.585938,0 c -4.8047,0 -8.541675,-1.328124 -11.210937,-3.984375 -2.669275,-2.656244 -4.003909,-6.354157 -4.003907,-11.09375 -2e-6,-4.726543 1.328122,-8.430966 3.984375,-11.113281 2.669262,-2.682263 6.341134,-4.023408 11.015625,-4.023438 4.726541,3e-5 8.404923,1.328154 11.035157,3.984375 2.643198,2.656273 3.964811,6.373718 3.964843,11.152344 -3.2e-5,3.281261 -0.703156,6.106779 -2.109375,8.476563 -1.393257,2.369795 -3.404974,4.153647 -6.035156,5.351562 l 5.878906,6.5625 -7.167968,0 -4.765625,-5.3125 M 56.531326,32.563671 c -2.291681,2.4e-5 -4.069023,0.846378 -5.332031,2.539063 -1.263031,1.692728 -1.894541,4.075538 -1.894531,7.148437 -10e-6,3.125012 0.618479,5.520842 1.855469,7.1875 1.236966,1.653652 3.027329,2.480474 5.371093,2.480469 2.304668,5e-6 4.088521,-0.846349 5.351563,-2.539063 1.262997,-1.692699 1.894507,-4.068999 1.894531,-7.128906 -2.4e-5,-3.072899 -0.631534,-5.455709 -1.894531,-7.148437 -1.263042,-1.692685 -3.046895,-2.539039 -5.351563,-2.539063"
         id="path4639"
         style="font-size:40px;font-style:normal;font-weight:bold;line-height:125%;letter-spacing:0px;word-spacing:0px;fill:#ffffff;fill-opacity:1;fill-rule:evenodd;stroke:none;font-family:Sans;-inkscape-font-specification:Sans Bold" />
      <path
         d="m 103.40633,54.633984 c -1.87503,0.911459 -3.821644,1.595052 -5.839847,2.050781 -2.018252,0.455729 -4.101583,0.683593 -6.25,0.683594 -4.856784,-10e-7 -8.704437,-1.354166 -11.542969,-4.0625 -2.838545,-2.721348 -4.257815,-6.40624 -4.257813,-11.054688 -2e-6,-4.700501 1.445309,-8.398414 4.335938,-11.09375 2.890616,-2.695284 6.848945,-4.042939 11.875,-4.042969 1.940084,3e-5 3.795551,0.182322 5.566406,0.546875 1.783829,0.364612 3.463515,0.904977 5.039065,1.621094 l 0,6.035156 c -1.62763,-0.924456 -3.248726,-1.61456 -4.863284,-2.070312 -1.601585,-0.455705 -3.209656,-0.68357 -4.824218,-0.683594 -2.994808,2.4e-5 -5.306004,0.839867 -6.933594,2.519531 -1.614594,1.666687 -2.421885,4.056008 -2.421875,7.167969 -1e-5,3.085949 0.781239,5.468759 2.34375,7.148438 1.562486,1.679693 3.782536,2.519536 6.660156,2.519531 0.78123,5e-6 1.503886,-0.04557 2.167969,-0.136719 0.677062,-0.104161 1.28253,-0.260411 1.816406,-0.46875 l 0,-5.664062 -4.589844,0 0,-5.039063 11.718754,0 0,14.023438"
         id="path4641"
         style="font-size:40px;font-style:normal;font-weight:bold;line-height:125%;letter-spacing:0px;word-spacing:0px;fill:#ffffff;fill-opacity:1;stroke:none;font-family:Sans;-inkscape-font-specification:Sans Bold" />
      <path
         d="m 130.30086,28.559765 0,6.171875 c -1.60159,-0.716123 -3.16409,-1.256487 -4.6875,-1.621094 -1.52346,-0.364559 -2.96226,-0.546851 -4.31641,-0.546875 -1.79689,2.4e-5 -3.12501,0.24742 -3.98437,0.742188 -0.85939,0.494814 -1.28908,1.263043 -1.28907,2.304687 -1e-5,0.781271 0.28645,1.393249 0.85938,1.835938 0.58593,0.429706 1.64061,0.800799 3.16406,1.113281 l 3.20313,0.644531 c 3.24216,0.651059 5.54685,1.640641 6.91406,2.96875 1.36716,1.328138 2.05075,3.216157 2.05078,5.664063 -3e-5,3.216151 -0.95706,5.611982 -2.87109,7.1875 -1.90107,1.5625 -4.81122,2.343749 -8.73047,2.34375 -1.84897,-10e-7 -3.70444,-0.175782 -5.56641,-0.527344 -1.86198,-0.351562 -3.72396,-0.872395 -5.58594,-1.5625 l 0,-6.347656 c 1.86198,0.98959 3.65885,1.738287 5.39063,2.246093 1.74478,0.494797 3.42447,0.742193 5.03906,0.742188 1.64061,5e-6 2.89712,-0.273432 3.76953,-0.820313 0.87238,-0.546868 1.30858,-1.328118 1.3086,-2.34375 -2e-5,-0.911449 -0.2995,-1.614573 -0.89844,-2.109375 -0.58596,-0.494781 -1.76434,-0.937489 -3.53516,-1.328125 l -2.91015,-0.644531 c -2.91668,-0.624987 -5.05209,-1.62108 -6.40625,-2.988281 -1.34115,-1.367171 -2.01173,-3.209617 -2.01172,-5.527344 -1e-5,-2.903622 0.93749,-5.136693 2.8125,-6.699219 1.87499,-1.562471 4.5703,-2.34372 8.08594,-2.34375 1.60154,3e-5 3.24868,0.123728 4.9414,0.371094 1.69269,0.234404 3.44399,0.592477 5.25391,1.074219"
         id="path4643"
         style="font-size:40px;font-style:normal;font-weight:bold;line-height:125%;letter-spacing:0px;word-spacing:0px;fill:#ffffff;fill-opacity:1;stroke:none;font-family:Sans;-inkscape-font-specification:Sans Bold" />
    </g>
  </g>
</svg>
