<?xml version="1.0" encoding="UTF-8"?>
<svg width="256" height="256" enable-background="new" xmlns="http://www.w3.org/2000/svg" xmlns:xlink="http://www.w3.org/1999/xlink">
 <linearGradient id="a">
  <stop stop-color="#f5f5f5" offset="0"/>
  <stop stop-color="#fff" offset="1"/>
 </linearGradient>
 <filter id="b" color-interpolation-filters="sRGB">
  <feFlood flood-opacity=".85145" result="flood"/>
  <feComposite in="flood" in2="SourceGraphic" operator="in" result="composite1"/>
  <feGaussianBlur result="blur" stdDeviation="4"/>
  <feOffset dx="1.8" dy="1.8" result="offset"/>
  <feComposite in="SourceGraphic" in2="offset" result="composite2"/>
 </filter>
 <filter id="c" color-interpolation-filters="sRGB">
  <feFlood flood-opacity=".77536" result="flood"/>
  <feComposite in="flood" in2="SourceGraphic" operator="in" result="composite1"/>
  <feGaussianBlur result="blur" stdDeviation="4"/>
  <feOffset dx="1.8" dy="1.8" result="offset"/>
  <feComposite in="SourceGraphic" in2="offset" result="composite2"/>
 </filter>
 <filter id="d" color-interpolation-filters="sRGB">
  <feFlood flood-opacity=".419" result="flood"/>
  <feComposite in="flood" in2="SourceGraphic" operator="in" result="composite1"/>
  <feGaussianBlur result="blur" stdDeviation="1.8"/>
  <feOffset dx="3" dy="3" result="offset"/>
  <feComposite in="SourceGraphic" in2="offset" result="composite2"/>
 </filter>
 <filter id="e" color-interpolation-filters="sRGB">
  <feBlend in2="BackgroundImage" mode="darken"/>
 </filter>
 <linearGradient id="f" x1="120.71" x2="123.01" y1="244.55" y2="121.56" gradientUnits="userSpaceOnUse" xlink:href="#a"/>
 <linearGradient id="g" x1="-19.832" x2="384.75" y1="221.76" y2="222.77" gradientUnits="userSpaceOnUse" xlink:href="#a"/>
 <linearGradient id="h" x1="190.52" x2="180.14" y1="30.799" y2="41.595" gradientUnits="userSpaceOnUse">
  <stop stop-color="#afafaf" offset="0"/>
  <stop stop-color="#fff" offset="1"/>
 </linearGradient>
 <linearGradient id="i" x1="61.441" x2="63.125" y1="161.2" y2="273.63" gradientUnits="userSpaceOnUse">
  <stop stop-color="#129300" offset="0"/>
  <stop stop-color="#e4f363" offset="1"/>
 </linearGradient>
 <path d="m34.837 5.0004h131.1l53.065 54.048-0.15712 187.92h-184.01z" fill="url(#f)" filter="url(#b)" overflow="visible" stroke="url(#g)" stroke-width="0"/>
 <path d="m219.33 59.652c0.12627 0-7.3236-6.0609-11.49-8.2075-4.1669-2.1466-8.9411-3.5196-13.637-3.5355-20.026-0.06808-20.077 0.12627-20.077 0.12627s-0.39604 0.58032-0.12627-24.244c0.0311-2.8622-1.5152-6.9448-2.6517-9.4702-2.2432-4.3555-5.8084-9.849-5.8084-9.849" fill="url(#h)" filter="url(#c)"/>
 <path d="m165.56 4.7479 53.822 54.932" fill="none" stroke="#c2c2c2" stroke-linecap="round" stroke-linejoin="round" stroke-miterlimit="0"/>
 <path d="m219.38 59.68 0.0323 187.85h-184.95" fill="none" stroke="#878787" stroke-linecap="round" stroke-linejoin="round" stroke-miterlimit="0" stroke-width="2"/>
 <path d="m34.459 247.53-1e-6 -242.91h131.1" fill="none" stroke="#b6b6b6" stroke-linecap="round" stroke-linejoin="round" stroke-miterlimit="0" stroke-width="2"/>
 <path d="m219.33 59.652c0.12627 0-7.3236-6.0609-11.49-8.2075-4.1669-2.1466-8.9411-3.5196-13.637-3.5355-20.026-0.06808-20.077 0.12627-20.077 0.12627" fill="none" stroke="#878787" stroke-linecap="round" stroke-width="2" visibility="hidden"/>
 <path d="m174.13 48.035s-0.39604 0.58032-0.12627-24.244c0.0311-2.8622-1.5152-6.9448-2.6517-9.4702-2.2432-4.3555-5.8084-9.849-5.8084-9.849" fill="none" stroke="#b6b6b6" stroke-linecap="round" stroke-width="2" visibility="hidden"/>
 <path transform="matrix(1.3025 0 0 .86325 -5.1656 -125.57)" d="m17.143 168.14h105v54.286h-105z" fill="url(#i)" filter="url(#d)" stroke="#060" stroke-width="2.3"/>
 <g transform="translate(-10.409 -301.65)" enable-background="new" filter="url(#e)">
  <g transform="matrix(4.1667 0 0 4.1667 -635.97 -1667.9)">
   <path d="m188.86 504h8v8h-8z" fill="#6e97c4"/>
   <path d="m196.86 504h8v8h-8z" fill="#2b3b4d"/>
   <path d="m188.86 512h8v8h-8z" fill="#2b3b4d"/>
   <path d="m196.86 512h8v8h-8z" fill="#6d97c4"/>
   <path d="m180.86 504h8v8h-8z" fill="#2d3e4d"/>
   <path d="m180.86 512h8v8h-8z" fill="#6d97c4"/>
   <path d="m188.86 520h8v8h-8z" fill="#6d97c4"/>
   <path d="m180.86 520h8v8h-8z" fill="#2b3b4d"/>
   <path d="m180.86 504h24v24h-24z" fill="none"/>
  </g>
  <g transform="matrix(5.7521 0 0 5.7521 55.572 349.91)" stroke="#415a75" stroke-linecap="round" stroke-linejoin="round">
   <path d="m2.3679 10.368 6.4128 15.444 7.0525-15.3 5.7989-0.02194" fill="none" overflow="visible" stroke-width="1.3403"/>
   <path transform="matrix(1.6978 0 0 1.6978 -3.5742 -10.854)" d="m4.5 12.5a1 1 0 1 1-2 0 1 1 0 1 1 2 0z" fill="#eeeeec" fill-rule="evenodd" overflow="visible" stroke-width=".78947"/>
   <path transform="matrix(1.6978 0 0 1.6978 9.7119 -10.746)" d="m4.5 12.5a1 1 0 1 1-2 0 1 1 0 1 1 2 0z" fill="#eeeeec" fill-rule="evenodd" overflow="visible" stroke-width=".78947"/>
   <path transform="matrix(1.6978 0 0 1.6978 15.69 -10.732)" d="m4.5 12.5a1 1 0 1 1-2 0 1 1 0 1 1 2 0z" fill="#eeeeec" fill-rule="evenodd" overflow="visible" stroke-width=".78947"/>
  </g>
 </g>
 <text x="40.305084" y="57.491524" fill="#fff" font-family="Sans" font-size="40" letter-spacing="0" word-spacing="0" line-height="125%" xml:space="preserve"><tspan x="40.305084" y="57.491524" fill="#fff" font-weight="bold">DDF</tspan></text>
</svg>
