<svg height="256" width="256" xmlns="http://www.w3.org/2000/svg" xmlns:xlink="http://www.w3.org/1999/xlink">
<linearGradient id="a">
<stop offset="0" stop-color="#f5f5f5"/>
<stop offset="1" stop-color="#fff"/>
</linearGradient>
<linearGradient id="b" gradientUnits="userSpaceOnUse" x1="190.52345" x2="180.14067" y1="30.799114" y2="41.59544">
<stop offset="0" stop-color="#afafaf"/>
<stop offset="1" stop-color="#fff"/>
</linearGradient>
<linearGradient id="c" gradientUnits="userSpaceOnUse" x1="120.7066" x2="123.01035" xlink:href="#a" y1="244.55363" y2="121.55801"/>
<linearGradient id="d" gradientUnits="userSpaceOnUse" x1="-19.831818" x2="384.75043" xlink:href="#a" y1="221.75748" y2="222.76762"/>
<filter id="e" color-interpolation-filters="sRGB">
<feFlood flood-opacity=".85144928" result="flood"/>
<feComposite in="flood" in2="SourceGraphic" operator="in" result="composite1"/>
<feGaussianBlur result="blur" stdDeviation="4"/>
<feOffset dx="1.8" dy="1.8" result="offset"/>
<feComposite in="SourceGraphic" in2="offset" operator="over" result="composite2"/>
</filter>
<filter id="f" color-interpolation-filters="sRGB">
<feFlood flood-opacity=".77536232" result="flood"/>
<feComposite in="flood" in2="SourceGraphic" operator="in" result="composite1"/>
<feGaussianBlur result="blur" stdDeviation="4"/>
<feOffset dx="1.8" dy="1.8" result="offset"/>
<feComposite in="SourceGraphic" in2="offset" operator="over" result="composite2"/>
</filter>
<filter id="g" color-interpolation-filters="sRGB">
<feFlood flood-opacity=".419" result="flood"/>
<feComposite in="flood" in2="SourceGraphic" operator="in" result="composite1"/>
<feGaussianBlur result="blur" stdDeviation="1.8"/>
<feOffset dx="3" dy="3" result="offset"/>
<feComposite in="SourceGraphic" in2="offset" operator="over" result="composite2"/>
</filter>
<linearGradient id="h" gradientUnits="userSpaceOnUse" x1="61.441303" x2="63.125427" y1="161.2032" y2="273.62759">
<stop offset="0" stop-color="#129300"/>
<stop offset="1" stop-color="#e4f363"/>
</linearGradient>
<filter id="i" color-interpolation-filters="sRGB">
<feFlood flood-opacity=".5" result="flood"/>
<feComposite in="flood" in2="SourceGraphic" operator="in" result="composite1"/>
<feGaussianBlur in="composite" result="blur" stdDeviation="1.5"/>
<feOffset dx="1.5" dy="1.5" result="offset"/>
<feComposite in="SourceGraphic" in2="offset" operator="over" result="composite2"/>
</filter>
<g>
<path d="m34.837365 5.00045l131.100135 0 53.06463 54.048418-.15712 187.915102-184.007645 0z" fill="url(#c)" filter="url(#e)" overflow="visible" stroke="url(#d)" stroke-width="0"/>
<path d="m219.32937 59.651599c.12627 0-7.3236-6.060915-11.49048-8.207489-4.16688-2.146575-8.94112-3.519572-13.63706-3.535535-20.02578-.06808-20.07678.126269-20.07678.126269 0 0-.39604.58032-.12627-24.243661.0311-2.86224-1.51524-6.944799-2.65166-9.47018-2.24321-4.3554815-5.80837-9.8489872-5.80837-9.8489872" fill="url(#b)" filter="url(#f)"/>
<path d="m165.55869 4.7479137l53.82226 54.9323013" style="fill:none;stroke:#c2c2c2;stroke-linecap:round;stroke-linejoin:round;stroke-miterlimit:0;overflow:visible"/>
<path d="m219.38095 59.680215l.0323 187.851965-184.954662 0" style="fill:none;stroke:#878787;stroke-width:2;stroke-linecap:round;stroke-linejoin:round;stroke-miterlimit:0;overflow:visible"/>
<path d="m34.458588 247.53218l-.000001-242.9105354 131.100133 0" style="fill:none;stroke:#b6b6b6;stroke-width:2;stroke-linecap:round;stroke-linejoin:round;stroke-miterlimit:0;overflow:visible"/>
<path d="m219.32937 59.651603c.12627 0-7.3236-6.060915-11.49048-8.207489-4.16688-2.146575-8.94112-3.519572-13.63706-3.535535-20.02578-.06808-20.07678.126269-20.07678.126269" fill="none" stroke="#878787" stroke-linecap="round" stroke-width="2" visibility="hidden"/>
<path d="m174.12505 48.034848c0 0-.39604.58032-.12627-24.243661.0311-2.86224-1.51524-6.944799-2.65166-9.47018-2.24321-4.3554813-5.80837-9.848987-5.80837-9.848987" fill="none" stroke="#b6b6b6" stroke-linecap="round" stroke-width="2" visibility="hidden"/>
<path d="m17.142857 168.14285h105v54.285713h-105z" fill="url(#h)" filter="url(#g)" stroke="#060" stroke-width="2.29999995" transform="matrix(1.3025271 0 0 .86324706 -5.1656273 -125.56827)"/>
<g fill="#fff">
<path d="m52.607658 34.028465v17.792969h2.695313c3.0729.000006 5.416647-.761712 7.03125-2.285156 1.627582-1.523428 2.441383-3.736968 2.441406-6.640625-.000023-2.890608-.807314-5.091126-2.421875-6.601563-1.614603-1.510394-3.964861-2.265601-7.050781-2.265625zm-7.519531-5.683593h7.929688c4.427067.000029 7.721334.319039 9.882812.957031 2.174456.625027 4.036433 1.692735 5.585938 3.203125 1.367159 1.315128 2.382783 2.832053 3.046875 4.550781.664031 1.718769.996062 3.665381.996093 5.839844-.000031 2.200533-.332062 4.166677-.996093 5.898437-.664092 1.718757-1.679716 3.235683-3.046875 4.550782-1.562526 1.510419-3.437524 2.584637-5.625 3.222656-2.18752.625-5.468766.9375-9.84375.9375h-7.929688z"/>
<path d="m94.541252 42.622215l10.117188 14.882813h-7.832032l-6.816406-9.960938-6.757812 9.960938h-7.871094l10.117187-14.882813-9.726562-14.277343h7.851562l6.386719 9.394531 6.367188-9.394531h7.89062z"/>
<path d="m109.15063 28.344872h20.29297v5.683593h-12.77344v5.429688h12.01172v5.683594h-12.01172v12.363281h-7.51953z"/>
</g>
<g filter="url(#i)" stroke="#415a75" stroke-linecap="round" stroke-linejoin="round" transform="matrix(5.8214285 0 0 5.8214285 59.428575 56.060321)">
<path d="m2.3679157 10.367915l6.4127726 15.444072 7.0525377-15.300041 5.798858-.02194" fill="none" overflow="visible" stroke-width="1.34032965"/>
<path d="m4.5 12.5a1 1 0 1 1 -2 0 1 1 0 1 1  2 0z" fill="#eeeeec" fill-rule="evenodd" overflow="visible" stroke-width=".78947365" transform="matrix(1.6977509 0 0 1.6977509 -3.5742125 -10.853971)"/>
<path d="m4.5 12.5a1 1 0 1 1 -2 0 1 1 0 1 1  2 0z" fill="#eeeeec" fill-rule="evenodd" overflow="visible" stroke-width="1.05263162" transform="matrix(1.6977509 0 0 1.6977509 2.8595836 3.7804708)"/>
<path d="m4.5 12.5a1 1 0 1 1 -2 0 1 1 0 1 1  2 0z" fill="#eeeeec" fill-rule="evenodd" overflow="visible" stroke-width=".78947365" transform="matrix(1.6977509 0 0 1.6977509 9.7119108 -10.7459)"/>
<path d="m4.5 12.5a1 1 0 1 1 -2 0 1 1 0 1 1  2 0z" fill="#eeeeec" fill-rule="evenodd" overflow="visible" stroke-width=".78947365" transform="matrix(1.6977509 0 0 1.6977509 15.689956 -10.731884)"/>
</g>
</g>
</svg>
