<?xml version="1.0" encoding="UTF-8"?>
<!DOCTYPE svg PUBLIC "-//W3C//DTD SVG 1.1//EN" "http://www.w3.org/Graphics/SVG/1.1/DTD/svg11.dtd">
<svg version="1.1" xmlns="http://www.w3.org/2000/svg" xmlns:xlink="http://www.w3.org/1999/xlink" x="0" y="0" width="59.266" height="65.359" viewBox="0, 0, 59.266, 65.359">
  <g id="Background">
    <rect x="0" y="0" width="59.266" height="65.359" fill="#000000" fill-opacity="0"/>
  </g>
  <defs>
    <linearGradient id="Gradient_1" gradientUnits="userSpaceOnUse" x1="45.866" y1="59.285" x2="45.044" y2="5.269" gradientTransform="matrix(1, 0, 0, 1, 0, 0)">
      <stop offset="0" stop-color="#589632"/>
      <stop offset="1" stop-color="#93B023"/>
    </linearGradient>
    <linearGradient id="Gradient_2" gradientUnits="userSpaceOnUse" x1="29.771" y1="60.128" x2="28.956" y2="6.563" gradientTransform="matrix(1, 0, 0, 1, 0, 0)">
      <stop offset="0" stop-color="#589632"/>
      <stop offset="1" stop-color="#93B023"/>
    </linearGradient>
  </defs>
  <g id="Layer_1">
    <path d="M31.513,33.817 L39.336,33.817 L32.715,27.271 L24.603,27.271 L24.603,35.065 L31.513,41.952 z" fill="#EE7913" id="polygon3"/>
    <path d="M56.605,50.889 L42.647,37.09 L34.785,37.09 L34.785,45.214 L48.161,58.545 L56.605,58.545 z" fill="url(#Gradient_1)" id="polygon10"/>
    <path d="M34.785,37.09 L42.647,37.09 L39.336,33.817 L31.513,33.817 L31.513,41.952 L34.785,45.214 z" fill="#F0E64A" id="polygon12"/>
    <path d="M33.153,47.993 C31.967,48.266 30.735,48.414 29.464,48.414 C20.371,48.414 12.637,40.937 12.637,31.242 C12.637,21.547 20.285,14.234 29.464,14.234 C38.642,14.234 45.95,21.546 45.95,31.242 C45.95,32.818 45.754,34.336 45.391,35.773 L53.807,44.188 C55.977,40.386 57.191,35.965 57.191,31.177 C57.191,16.234 45.266,5.046 29.294,5.046 C13.394,5.046 1.47,16.161 1.47,31.177 C1.47,46.266 13.394,57.602 29.294,57.602 C33.398,57.602 37.234,56.847 40.67,55.473 L33.153,47.993 z" fill="url(#Gradient_2)" id="path19"/>
    <path d="M24.603,27.271 L56.605,58.545 L56.605,50.889 L42.647,37.09 L39.336,33.817 L32.715,27.271 z" fill="#FFFFFF" fill-opacity="0.172" id="polygon4153"/>
  </g>
</svg>
