<svg height="65.359184" width="59.266239" xmlns="http://www.w3.org/2000/svg" xmlns:xlink="http://www.w3.org/1999/xlink">
<clipPath id="a">
<path d="m565.16125 646.18127h42.875v39.625h-42.875z" transform="matrix(.99990096 -.01407388 .01407388 .99990096 0 0)"/>
</clipPath>
<linearGradient id="b" gradientUnits="userSpaceOnUse" x1="569.49482" x2="579.73047" xlink:href="#c" y1="686.52284" y2="672.73423"/>
<linearGradient id="c">
<stop offset="0" stop-color="#0d4100"/>
<stop offset="1" stop-color="#129300"/>
</linearGradient>
<linearGradient id="d" gradientTransform="matrix(-.28268074 -.95921406 -.95921406 .28268074 1144.7424 948.30227)" gradientUnits="userSpaceOnUse" x1="413.40717" x2="423.64282" y1="477.57877" y2="463.79016">
<stop offset="0" stop-color="#0d1d00"/>
<stop offset="1" stop-color="#0d7200"/>
</linearGradient>
<clipPath id="e">
<path d="m485.06341 446.7935c-9.77401.51743-17.5625 8.97625-17.5625 19.3125 0 10.66968 8.28361 19.3125 18.5 19.3125 1.1046 0 2.16736-.11879 3.21875-.3125v3.09375c.085 1.31607 1.67268 4.12266 6.65625 4.15625 5.76986.0389 8.44866-3.49777 8.9375-4.5625.90942-2.43008.73396-3.98858.6875-4.96875-.019.58818-1.99576 4.1014-5.09375 4.21875-4.98011.18864-4.4375-.71244-4.4375-2.03125v-2.625c5.12836-3.43242 8.53125-9.44688 8.53125-16.28125 0-10.66968-8.28361-19.3125-18.5-19.3125-.31926 0-.62221-.0167-.9375 0zm .625 1.375c3.87037 0 7 7.86055 7 17.59375 0 2.16342-.15449 4.24122-.4375 6.15625-1.61816-.66461-3.68163-1.19682-6.1875-1.1875-3.70225.0138-5.98672.85933-6.875 1.46875-.3101-1.99278-.5-4.16771-.5-6.4375 0-9.7332 3.12963-17.59375 7-17.59375zm-1.28125 23.46875c3.73877.0637 4.8125 1.51573 4.8125 2.28125v7.0625c-1.03594 1.52517-2.24316 2.40625-3.53125 2.40625-2.82374 0-5.23629-4.19827-6.34375-10.25.89383-.63738 2.70035-1.54023 5.0625-1.5z"/>
</clipPath>
<filter id="f" color-interpolation-filters="sRGB" height="1.7867672" width="1.6636782" x="-.33183911" y="-.39338365">
<feGaussianBlur stdDeviation=".65194979"/>
</filter>
<filter id="g" color-interpolation-filters="sRGB">
<feGaussianBlur stdDeviation="1.0155639"/>
</filter>
<linearGradient id="h" gradientUnits="userSpaceOnUse" x1="569.49482" x2="579.73047" xlink:href="#c" y1="686.52284" y2="672.73423"/>
<filter id="i" color-interpolation-filters="sRGB">
<feGaussianBlur stdDeviation=".48785405"/>
</filter>
<g transform="translate(-293.22402 -451.11116)">
<path d="m445.49832 443.64178l-13.43694 5.46836 3.53559 2.34117c0 0-21.73596 25.20136-26.72117 31.08815l-9.37732 3.36622 7.94737 1.95465 2.1582 7.35242 2.83885-9.42158 26.7609-31.21072 2.97047 3.27344z" filter="url(#i)" opacity=".30041151" stroke="#060000" stroke-width=".60000002" transform="matrix(.99958439 -.02882794 .02882794 .99958439 -110.94886 30.451722)"/>
<g transform="matrix(.99990096 .01407388 -.01407388 .99990096 -243.10157 -197.70028)">
<path d="m597.71136 649.10637l-12.9375 6.3125 3.6875 2.09375c0 0-19.96054 26.62963-24.53125 32.84375l-9.125 4 8.03125 1.40625z" fill="url(#h)"/>
<path d="m597.69396 649.11595l-2.39786 14.19425-3.05074-2.94525c0 0-19.90106 26.67412-24.56967 32.81503l-1.25739 9.88354-3.61917-7.30616z" fill="url(#d)"/>
</g>
<path d="m324.14652 468.00363c-9.77401.51743-17.5625 8.97625-17.5625 19.3125 0 10.66968 8.28361 19.3125 18.5 19.3125 1.1046 0 2.16736-.11879 3.21875-.3125v3.09375c.085 1.31607 1.67268 4.12266 6.65625 4.15625 5.76986.0389 8.44866-3.49777 8.9375-4.5625.90942-2.43008.73396-3.98858.6875-4.96875-.019.58818-1.99576 4.1014-5.09375 4.21875-4.98011.18864-4.4375-.71244-4.4375-2.03125v-2.625c5.12836-3.43242 8.53125-9.44688 8.53125-16.28125 0-10.66968-8.28361-19.3125-18.5-19.3125-.31926 0-.62221-.0167-.9375 0zm .625 1.375c3.87037 0 7 7.86055 7 17.59375 0 2.16342-.15449 4.24122-.4375 6.15625-1.61816-.66461-3.68163-1.19682-6.1875-1.1875-3.70225.0138-5.98672.85933-6.875 1.46875-.3101-1.99278-.5-4.16771-.5-6.4375 0-9.7332 3.12963-17.59375 7-17.59375zm-1.28125 23.46875c3.73877.0637 4.8125 1.51573 4.8125 2.28125v7.0625c-1.03594 1.52517-2.24316 2.40625-3.53125 2.40625-2.82374 0-5.23629-4.19827-6.34375-10.25.89383-.63738 2.70035-1.54023 5.0625-1.5z" filter="url(#g)"/>
<path d="m323.61618 467.47329c-9.77401.51743-17.5625 8.97625-17.5625 19.3125 0 10.66968 8.28361 19.3125 18.5 19.3125 1.1046 0 2.16736-.11879 3.21875-.3125v3.09375c.085 1.31607 1.67268 4.12266 6.65625 4.15625 5.76986.0389 8.44866-3.49777 8.9375-4.5625.90942-2.43008.73396-3.98858.6875-4.96875-.019.58818-1.99576 4.1014-5.09375 4.21875-4.98011.18864-4.4375-.71244-4.4375-2.03125v-2.625c5.12836-3.43242 8.53125-9.44688 8.53125-16.28125 0-10.66968-8.28361-19.3125-18.5-19.3125-.31926 0-.62221-.0167-.9375 0zm .625 1.375c3.87037 0 7 7.86055 7 17.59375 0 2.16342-.15449 4.24122-.4375 6.15625-1.61816-.66461-3.68163-1.19682-6.1875-1.1875-3.70225.0138-5.98672.85933-6.875 1.46875-.3101-1.99278-.5-4.16771-.5-6.4375 0-9.7332 3.12963-17.59375 7-17.59375zm-1.28125 23.46875c3.73877.0637 4.8125 1.51573 4.8125 2.28125v7.0625c-1.03594 1.52517-2.24316 2.40625-3.53125 2.40625-2.82374 0-5.23629-4.19827-6.34375-10.25.89383-.63738 2.70035-1.54023 5.0625-1.5z" fill="#e4f363"/>
<path clip-path="url(#e)" d="m488.43401 448.93493c0 0 3.0052.53033 4.15425 1.23744 1.14905.70711.17678 2.65165.17678 2.65165l-2.12132.0884zm-8.93401 23.17725c0 0 2.375-1.25 4-1.4375 1.625-.1875 4.4375-.25 5.5625.0625 1.125.3125 3.3125.9375 3.5 1.25.1875.3125 1 3.25 1 3.25l-2.5625.25-1.8125-2.0625c0 0-2.6875-1.625-3.0625-1.625-.375 0-2.5625-.25-3.375-.125-.8125.125-3.5625.3125-3.5625.3125zm-10.50551-11.04186c-.0152-.28825.41404-1.95744.76266-2.40979.34862-.45234-1.01549 1.31997 1.48894-2.21065.3964-.55884 2.30192-2.23113 1.87609-1.6724-.57503.75451-1.69674 3.24294-1.84878 3.44985-.15205.2069-.43962 1.94011-.58236 2.71994-.29797 1.62698.78628 3.18584.71846 3.88506-.0679.69921-2.18969.99323-2.79525-.55484-.60552-1.54827.38023-3.20696.38023-3.20696zm2.84019-.47809c-.072-.27952.018-2.00067.27008-2.51312.25208-.51245-.73383 1.495 1.02141-2.46184.27782-.6263 1.43552-2.70976 1.50754-2.01096.072.6988-.51233 4.19984-.62036 4.43277-.10804.23293-.50416 1.30443-.54017 2.0964-.036.79197.0319 2.63542.10396 3.33422.072.6988-.57946 1.73885-1.47974.34125-.90028-1.3976-.26272-3.21872-.26272-3.21872zm-1.98207 2.65501c-.125-.48512.0313-3.47232.46875-4.36172.4375-.8894 1.46875-2.49709 2.15625-3.46735.6875-.97025 2.03125-2.74708 2.15625-1.53426.125 1.21282-.8125 4.52786-1 4.93214-.1875.40427-.875 2.26393-.9375 3.63846-.0625 1.37452 3.0625 10.39787 3.1875 11.61069.125 1.21282-.68502 2.96943-2.875 1.09083-8.875-7.61314-3.15625-11.90879-3.15625-11.90879zm19.70936-12.96734c0 0 3.9375.75963 5.375 4.62679 1.4375 3.86716 2.6875 6.9747 1.0625 11.80866-1.625 4.83395-3.25 7.87244-3.25 7.87244 0 0 .375-11.94678.25-13.8113-.125-1.86453-3.4375-10.49659-3.4375-10.49659z" fill="#fff" filter="url(#f)" opacity=".38271604" transform="translate(-161.44724 20.679802)"/>
<path d="m329.55368 484.31704l10.25-13.75 3.1875 3.0625 2.34375-14.40625-13.03125 6.375 3.6875 2.09375c0 0-4.79404 6.41727-10 13.375" fill="none"/>
<path d="m297.11526 458.49084h57.375v57.375h-57.375z" fill="none" opacity=".39506172"/>
<g clip-path="url(#a)" transform="matrix(.99990096 .01407388 -.01407388 .99990096 -243.10157 -197.70028)">
<path d="m597.71136 649.10637l-12.9375 6.3125 3.6875 2.09375c0 0-19.96054 26.62963-24.53125 32.84375l-9.125 4 8.03125 1.40625z" fill="url(#b)"/>
<path d="m597.69396 649.11595l-2.39786 14.19425-3.05074-2.94525c0 0-19.90106 26.67412-24.56967 32.81503l-1.25739 9.88354-3.61917-7.30616z" fill="url(#d)"/>
</g>
</g>
<g transform="matrix(.09512828 -.00909507 .00917091 .09308164 -1.629917 2.071778)">
<path d="m234.10295 28.783327c-28.10056 7.733968-56.90414 23.114414-77.16658 38.006479-20.26243 14.892057-73.190777 52.416304-85.274538 64.306944-11.715979 11.52873-25.555008 15.55018-31.610801 29.75626-2.335424 5.47857 15.83661 22.00519 19.397534 23.721 9.241286 4.45282 24.304529-3.44276 31.177964-3.91429 22.307191-1.53031 45.167011-4.49872 67.760351 10.79277-4.18054 4.22051 2.45801-.32326-6.08769 36.69347-3.01352 13.05342-9.59873 46.91908-1.50714 53.3804 8.03941 6.41966 12.94944-18.60581 20.93693-14.77435-.004.006-.002.0211-.005.0264-.002.005-.004.0222-.005.0264.00047.004-.006.0233-.005.0264.003.003.0211.003.0249.005.0243.007.0777.004.12879-.002.015.007.0346.002.0497.01.0565.0271.1079.0591.16488.0866l.0475-.12728c3.78138-.97727 33.26276-13.96581 60.17617-8.74298 15.17141 2.94415 39.36936-5.30957 53.29004-9.61521 22.07602-6.82803 53.06775-12.99841 72.72796-13.35072 14.48306-.25953 27.58714-8.45898 41.52062-9.41484 8.22039-.56393.59821-27.06599.4283-29.86559-.81659-13.45508-17.56507-34.13032-26.19103-52.50369-8.62596-18.37338-23.08213-41.697-39.00385-59.986157-15.92034-18.289939-37.40028-41.972174-52.5239-49.259355-15.12361-7.287181-17.9532-13.675443-48.45111-5.281661z" fill="#d00000" fill-rule="evenodd" stroke="#000" stroke-width=".83349466"/>
<path d="m166.95567 93.343683c-18.23272 4.41659-33.84758 62.691407-56.31899 72.821827-14.697321 6.62576-54.749039 16.69269-51.188115 18.4085 9.241286 4.45282 24.304529-3.44276 31.177964-3.91429 22.307191-1.53031 45.167011-4.49872 67.760351 10.79277-4.18054 4.22051 2.45801-.32326-6.08769 36.69347-3.01352 13.05342-9.59873 46.91908-1.50714 53.3804 8.03941 6.41966 12.94944-18.60581 20.93693-14.77435-.004.006-.002.0211-.005.0264-.002.005-.004.0222-.005.0264.00047.004-.006.0233-.005.0264.003.003.0211.003.0249.005.0243.007.0777.004.12879-.002.015.007.0346.002.0497.01.0565.0271.1079.0591.16488.0866l.0475-.12728c3.78138-.97727 33.26276-13.96581 60.17617-8.74298 15.17141 2.94415 39.36936-5.30957 53.29004-9.61521 22.07602-6.82803 53.06775-12.99841 72.72796-13.35072 14.48306-.25953 27.58714-8.45898 41.52062-9.41484 8.22039-.56393-51.08531 4.52064-27.44964-12.57577 10.48531-7.58433-104.98388 15.80767-149.31404-34.77677-43.89537-50.0883-37.45534-89.505577-56.12656-84.982777z" fill="#0e0000" fill-rule="evenodd" opacity=".10112359"/>
<path d="m41.923132 154.63221c3.550897 2.3529 27.397959 32.51694 30.215216 30.40575.340584-3.33088-2.440653-4.64208-4.39708-5.02241 2.619616-3.32925 3.113447-6.81056-1.432527-7.10965-5.040198-.88997-10.542525-1.51433-5.132485-6.93595 2.497843-3.03871-.167946-8.43506-1.701721-11.17993-4.029518-2.17638-7.065984-6.11435-8.717627-8.79126" fill-rule="evenodd" opacity=".26966289" stroke="#000" stroke-width=".83016068"/>
<path d="m365.59735 219.58638c-7.45124-2.6426-16.80117-5.69478-23.38958-5.28735-4.52499-3.82248-7.99822.88787-11.91885 2.14156-.65797-7.35971-11.51071 3.11231-16.29132 3.17249-3.39452 1.94833-1.05481-5.80054-7.13354-2.85309-7.55754.71399-12.23241 1.23324-17.83876 3.66049-1.34666 8.01279-13.44905 12.52661-15.26046 3.7443-6.59856 2.87141-18.86884 8.44118-18.94833-.64164-10.56431 8.19396-10.90033 15.59836-21.21381 19.55298.9126-7.09218-22.37063-10.90803-25.54443-3.46471-6.38963 2.57308 1.32915-9.32097-7.90455-6.05233-10.40062-3.02386-4.34704 17.93464-25.55362 9.36597-11.8077-.37983-5.2687 16.71929-13.06117 23.88224-2.0761 7.53231-11.08359-2.62404-14.72934-2.06009.84794 11.92658 3.40768 7.88228.71924 15.9966-1.60415 10.16538-3.75129 15.25548 7.43178 17.37239 3.62121-4.90361-.18204-2.829.62793 6.21747 6.45765-1.87978 14.94635-12.63999 14.07505-1.58144 4.38202-6.67329 18.25435-10.15139 18.07994-17.33913 7.02184.73709 14.90236 8.57944 20.82979-.95299 5.95076-7.0412 14.50445-10.30685 14.59427-4.86854 7.23377 6.7565 7.95724 5.38728 15.478 3.66781-1.93719-8.71166 17.59935-.59858 7.28271-9.27171 4.09757-4.10343 15.18748-6.50139 21.59622-5.07542 5.66947 8.25419 22.94407 8.93721 25.63186-1.74704.56398-8.40429 13.68224-11.27875 18.58724-5.46823 8.52969-7.4786 21.98421 3.38849 29.32409-2.3442-6.59758-8.56295 9.32443-14.15812 12.29788-7.59298 5.84169-3.13663 11.27804-14.42284 17.66836-6.34283 7.34987-2.39523 16.32468-5.72557 22.54222-8.22182 4.66667 7.69315 16.74733-.2211 11.51054-9.53228-2.83483-6.65069 9.30974 3.27444 6.00348-5.16367-3.76088-9.07689-9.04264-21.69181-15.51378-21.2748-8.8124-2.20185-14.03766 3.74492-14.40344 12.16045-.11143-6.14114-10.52227-.15499-15.9832 2.07193l-2.99388.71227-3.57688-2.52294" fill-rule="evenodd" opacity=".294045" stroke="#000" stroke-width=".60142648"/>
<path d="m370.52395 221.8307c-7.45124-2.6426-14.35623-3.01411-20.94463-2.60667-4.52499-3.82249-9.89492-2.56891-13.81555-1.31521-.65796-7.35972-9.61402 6.56907-14.39462 6.62925-3.39454 1.94834-1.05481-5.80052-7.13355-2.85309-7.55754.71399-16.31902-3.97224-21.92537-1.54499-1.34666 8.01279-13.44905 12.52661-15.26045 3.7443-6.59857 2.87142-14.78225 13.64667-14.86172 4.56385-12.38454-.5429-17.69005 11.63327-28.00354 15.58789.91261-7.09217-15.5809-6.94295-18.75471.50038-6.38962 2.57308-1.69916-13.4386-10.93286-10.16996-10.40061-3.02386-10.11666 17.69747-22.52531 13.48359-11.80769-.37983-10.15859 11.35793-17.95107 18.52087-2.07609 7.53232-6.19368 2.73734-9.83944 3.30129 5.99914 8.51379-18.39263 6.74041-11.15151 19.87036-1.60415 10.16538.84851 17.47186 12.03157 19.58876 3.62121-4.9036 7.08893-8.91913 7.8989.12733 6.45764-1.87977 14.94635-12.63998 14.07504-1.58143 4.38203-6.67329 18.25435-10.15139 18.07994-17.33913 7.02184.73709 14.90236 8.57943 20.82979-.953 5.95076-7.04119 6.93352-1.29602 7.02333 4.14228 7.23377 6.75651 15.52819-3.62354 23.04894-5.343-1.93719-8.71165 17.59935-.59858 7.28272-9.27172 4.09756-4.10342 15.18748-6.50139 21.59622-5.07542 5.62317 5.3341 22.94406 8.93722 25.63186-1.74704.56398-8.40429 13.68223-11.27874 18.58724-5.46823 8.52968-7.47859 21.9842 3.3885 29.32408-2.34419-6.59758-8.56296 9.32444-14.15812 12.29788-7.59298 5.84169-3.13663 11.27804-14.42284 17.66837-6.34283 7.34985-2.39523 16.32467-5.72558 22.54222-8.22183 4.66666 7.69315 16.74733-.2211 11.51053-9.53227-2.83483-6.65069 9.30974 3.27444 6.00349-5.16367.0738-9.65646-3.56311-24.59965-15.51378-21.2748-8.81241-2.20185-14.03766 3.74491-14.40345 12.16044-.11143-6.14113-14.02552-3.92353-19.48644-1.69661l-1.78895.9461-1.27857 1.01177" fill="#fff" fill-rule="evenodd" stroke="#000" stroke-width=".60142648"/>
<path d="m155.67981 210.88831c3.14012-40.84748 23.78547-59.45023 20.15126-92.12062-2.14808-19.310467-19.537-4.67273-13.86936 13.44173" fill="none" stroke="#000" stroke-width=".83349466"/>
<path d="m163.97802 266.61875c-2.07609 7.53231-6.19368 2.73733-9.83944 3.30128 5.99914 8.51379-18.39263 6.74042-11.15152 19.87037-1.60414 10.16538.84852 17.47185 12.03159 19.58875 3.6212-4.9036 7.08892-8.91913 7.89889.12734 6.45764-1.87978 14.94635-12.63999 14.07505-1.58144 4.38202-6.67328 18.25434-10.15139 18.07993-17.33912 7.02184.73708 14.56587 7.34967 20.4933-2.18275 5.95076-7.0412 7.27-.0663 7.35982 5.37202 7.23377 6.75652 15.52819-3.62353 23.04895-5.34299-1.9372-8.71166 8.86645-1.54524 7.2827-9.27172-1.03721-5.06015 33.64493-3.56205 28.65668-8.51045-14.90587-14.78677-38.19112 7.49212-41.55999 6.0701-3.36887-1.42201-7.09125-.55957-2.38487-2.71925 4.70639-2.15967-6.74248 1.39249-16.27743-1.99436-9.53496-3.38685-16.51439.89493-17.1513 9.34281-7.18176-4.46668-7.69633.60685-18.88509 3.71804 7.12945-10.42281-12.5996-2.76884-12.5996-2.76884 0 0 3.43729-11.42797-2.73938-9.91964 3.32068-5.96418-.36489-7.80159-.36489-7.80159 0 0 1.81907-5.12151-5.9734 2.04144z" fill-rule="evenodd" opacity=".11235956"/>
<path d="m46.944746 146.2449c-1.301678-2.31828-5.35751-2.9566-5.879409-4.92258.90649-2.28341-2.659108-.62717-3.361697-1.88241-4.194454 3.43361-9.9845 4.91989-13.092707 9.64254 1.652786-.36247 1.648832-2.77858-.157056-.99615-3.401098 1.68966-6.688157 4.65771-5.409253 8.89282.309772 2.17325-2.425553 4.04333.913564 4.55805-.435409 3.47934-5.654943 3.33284-5.658053 6.4037 1.15534 3.3495.647111 6.84015-2.100735 9.18954-2.7180283 2.54178-1.598648 6.28312-1.499585 9.37085-1.3669853 2.06531-2.1364273 3.98573-.334716 5.95301.381454 3.5482 3.326995 5.89755 3.348942 9.5893 1.240053 1.93493 3.726708 1.8152 4.99685 4.00177 3.710475.3154 3.982719 5.49648 7.517208 6.2151 3.036183.99028 6.628635.30362 9.364415 1.02979 2.243733 1.81902 4.819206 3.08691 7.64389 3.59772 3.550896 2.25998 4.757769-3.36478 6.906731-5.17595.111428-2.83195 2.146008-3.05232 3.508535-.6677 3.101 2.10235 6.314017-1.51811 8.537176-3.43384 2.173489-2.36905 4.611889-4.42 7.032089-6.49716 3.435924-3.87856 4.655818-9.42971 4.463567-14.53502.340584-3.19933-2.634125-3.37634-4.590549-3.74166.884588-2.68233 3.113445-6.54159-1.432528-6.82885-2.606958-.6809-8.517294-3.59356-5.132485-6.66202 2.497843-2.91871-.939756-6.84771-2.473531-9.48419-2.656218-2.11406-4.199508-5.05895-5.85115-7.63014-3.197679-.50952-6.194337-2.45275-7.009506-5.8451-.853644-2.69404-.236398-.69903.03297.61246" fill="#fff" fill-rule="evenodd" stroke="#000" stroke-width=".81360233"/>
<path d="m20.404837 181.84614c-1.601293-1.9684 4.721412-1.04116 4.199512-3.00714.90649-2.28339-.178267-2.37846-.880857-3.63371-4.194453 3.43361-3.206637-4.70088-6.314844.0218 1.652786-.36246 1.381011-6.33357-.424877-4.55114-3.401098 1.68965-2.680526-5.80591-2.683636-2.73505 1.15534 3.3495.647111 6.84015-2.100735 9.18954-2.7180283 2.54178-1.598648 6.28312-1.499585 9.37085-1.3669853 2.06531-2.1364273 3.98573-.334716 5.95301.381454 3.5482 3.326995 5.89755 3.348942 9.5893 1.240053 1.93493 3.726708 1.8152 4.99685 4.00177 3.710475.3154 3.982719 5.49648 7.517208 6.2151 3.036183.99028 6.628635.30362 9.364415 1.02979 2.243733 1.81902 4.819206 3.08691 7.64389 3.59772 3.550896 2.25998 4.757769-3.36478 6.906731-5.17595.111428-2.83195 2.146008-3.05232 3.508535-.6677 3.101 2.10235 6.314017-1.51811 8.537176-3.43384 2.173489-2.36905-8.345955.35931-5.925755-1.71784 3.43592-3.87857-7.75248 5.41378-7.944735.30847.340581-3.19932-12.370379 4.07056-9.678506-1.55391.884591-2.68233 1.535909-.7479-3.010064-1.03517-2.606958-.6809-9.803527-5.4936-6.418718-8.56206 2.497844-2.91871-1.342064.45638-2.875839-2.18009-2.656219-2.11406-.95965-.95001-2.611292-3.52118-3.197679-.50952-1.791784-1.81661-2.606953-5.20895-1.383361 3.98006-.981514-3.60508-.712147-2.29359z" fill-rule="evenodd" opacity=".0955056"/>
<path d="m157.67035 192.3615c0 0 13.14456-33.51164 16.30292-46.8815 2.955-12.50888 2.57264-31.60315-1.8531-35.13721-4.42575-3.53406-10.24707 2.57829-10.86062 9.81603-.61354 7.23773-1.12742 9.06164 1.8435 22.86746 1.34679 6.25851.67415 21.09312-1.15695 28.09458-1.8311 7.00146-5.82667 22.94607-4.27575 21.24064z" fill-opacity=".22346371" fill-rule="evenodd"/>
</g>
</svg>
