<?xml version="1.0" encoding="UTF-8" standalone="no"?>
<!-- Created with Inkscape (http://www.inkscape.org/) -->

<svg
   xmlns:dc="http://purl.org/dc/elements/1.1/"
   xmlns:cc="http://creativecommons.org/ns#"
   xmlns:rdf="http://www.w3.org/1999/02/22-rdf-syntax-ns#"
   xmlns:svg="http://www.w3.org/2000/svg"
   xmlns="http://www.w3.org/2000/svg"
   xmlns:xlink="http://www.w3.org/1999/xlink"
   version="1.1"
   width="256"
   height="256"
   id="svg2">
  <defs
     id="defs4">
    <linearGradient
       id="linearGradient4690">
      <stop
         id="stop4692"
         style="stop-color:#afafaf;stop-opacity:1"
         offset="0" />
      <stop
         id="stop4694"
         style="stop-color:#ffffff;stop-opacity:1"
         offset="1" />
    </linearGradient>
    <linearGradient
       id="linearGradient4494">
      <stop
         id="stop4520"
         style="stop-color:#f5f5f5;stop-opacity:1"
         offset="0" />
      <stop
         id="stop4524"
         style="stop-color:#ffffff;stop-opacity:1"
         offset="1" />
    </linearGradient>
    <linearGradient
       x1="190.52345"
       y1="30.799114"
       x2="180.14067"
       y2="41.59544"
       id="linearGradient4500"
       xlink:href="#linearGradient4690"
       gradientUnits="userSpaceOnUse" />
    <linearGradient
       x1="120.7066"
       y1="244.55363"
       x2="123.01035"
       y2="121.55801"
       id="linearGradient4518"
       xlink:href="#linearGradient4494"
       gradientUnits="userSpaceOnUse" />
    <linearGradient
       x1="-19.831818"
       y1="221.75748"
       x2="384.75043"
       y2="222.76762"
       id="linearGradient4554"
       xlink:href="#linearGradient4494"
       gradientUnits="userSpaceOnUse" />
    <filter
       color-interpolation-filters="sRGB"
       id="filter4640">
      <feFlood
         id="feFlood4642"
         flood-opacity="0.85144927536231885"
         flood-color="rgb(0,0,0)"
         result="flood" />
      <feComposite
         in2="SourceGraphic"
         operator="in"
         in="flood"
         result="composite1"
         id="feComposite4644" />
      <feGaussianBlur
         id="feGaussianBlur4646"
         stdDeviation="4"
         result="blur" />
      <feOffset
         id="feOffset4648"
         dx="1.8"
         dy="1.8"
         result="offset" />
      <feComposite
         in2="offset"
         operator="over"
         in="SourceGraphic"
         result="composite2"
         id="feComposite4650" />
    </filter>
    <filter
       color-interpolation-filters="sRGB"
       id="filter5517">
      <feFlood
         id="feFlood5519"
         flood-opacity="0.77536231884057971"
         flood-color="rgb(0,0,0)"
         result="flood" />
      <feComposite
         in2="SourceGraphic"
         operator="in"
         in="flood"
         result="composite1"
         id="feComposite5521" />
      <feGaussianBlur
         id="feGaussianBlur5523"
         stdDeviation="4"
         result="blur" />
      <feOffset
         id="feOffset5525"
         dx="1.8"
         dy="1.8"
         result="offset" />
      <feComposite
         in2="offset"
         operator="over"
         in="SourceGraphic"
         result="composite2"
         id="feComposite5527" />
    </filter>
    <linearGradient
       id="linearGradient5763-11-58">
      <stop
         id="stop3893-4-11"
         style="stop-color:#129300;stop-opacity:1"
         offset="0" />
      <stop
         id="stop3891-6-3"
         style="stop-color:#e4f363;stop-opacity:1"
         offset="1" />
    </linearGradient>
    <filter
       color-interpolation-filters="sRGB"
       id="filter3643-3-6">
      <feFlood
         id="feFlood3645-898-34"
         flood-opacity="0.419"
         flood-color="rgb(0,0,0)"
         result="flood" />
      <feComposite
         in2="SourceGraphic"
         operator="in"
         in="flood"
         result="composite1"
         id="feComposite3647-03-3" />
      <feGaussianBlur
         id="feGaussianBlur3649-6-2"
         stdDeviation="1.8"
         result="blur" />
      <feOffset
         id="feOffset3651-5-66"
         dx="3"
         dy="3"
         result="offset" />
      <feComposite
         in2="offset"
         operator="over"
         in="SourceGraphic"
         result="composite2"
         id="feComposite3653-9-2" />
    </filter>
    <filter
       color-interpolation-filters="sRGB"
       id="filter5735-7-0">
      <feFlood
         id="feFlood5737-3-4"
         flood-opacity="0.5"
         flood-color="rgb(0,0,0)"
         result="flood" />
      <feComposite
         in2="SourceGraphic"
         operator="in"
         in="flood"
         result="composite1"
         id="feComposite5739-6-1" />
      <feGaussianBlur
         id="feGaussianBlur5741-5-5"
         stdDeviation="2"
         result="blur" />
      <feOffset
         id="feOffset5743-4-2"
         dx="1.5"
         dy="1.5"
         result="offset" />
      <feComposite
         in2="offset"
         operator="over"
         in="SourceGraphic"
         result="composite2"
         id="feComposite5745-10-8" />
    </filter>
    <clipPath
       id="clipPath5693-1-8">
      <rect
         width="170.30554"
         height="157.49495"
         x="41.45607"
         y="282.45609"
         id="rect5695-9-9"
         style="fill:none;stroke:#000000;stroke-width:1.05499017;stroke-miterlimit:4;stroke-opacity:1;stroke-dasharray:none" />
    </clipPath>
    <linearGradient
       x1="61.441303"
       y1="161.2032"
       x2="63.125427"
       y2="273.62759"
       id="linearGradient5773"
       xlink:href="#linearGradient5763-11-58"
       gradientUnits="userSpaceOnUse" />
    <filter
       color-interpolation-filters="sRGB"
       id="filter3353">
      <feFlood
         id="feFlood3355"
         flood-opacity="0.5"
         flood-color="rgb(0,0,0)"
         result="flood" />
      <feComposite
         in2="SourceGraphic"
         operator="in"
         in="flood"
         result="composite1"
         id="feComposite3357" />
      <feGaussianBlur
         id="feGaussianBlur3359"
         stdDeviation="1.3"
         result="blur" />
      <feOffset
         id="feOffset3361"
         dx="1.1"
         dy="1.1"
         result="offset" />
      <feComposite
         in2="offset"
         operator="over"
         in="SourceGraphic"
         result="composite2"
         id="feComposite3363" />
    </filter>
  </defs>
  <metadata
     id="metadata7">
    <rdf:RDF>
      <cc:Work
         rdf:about="">
        <dc:format>image/svg+xml</dc:format>
        <dc:type
           rdf:resource="http://purl.org/dc/dcmitype/StillImage" />
        <dc:title></dc:title>
      </cc:Work>
    </rdf:RDF>
  </metadata>
  <g
     id="layer4"
     style="display:inline">
    <g
       id="g5881">
      <path
         d="m 34.837365,5.00045 131.100135,0 53.06463,54.048418 -0.15712,187.915102 -184.007645,0 z"
         id="path4010"
         style="color:#000000;fill:url(#linearGradient4518);fill-opacity:1;fill-rule:nonzero;stroke:url(#linearGradient4554);stroke-width:0;marker:none;visibility:visible;display:inline;overflow:visible;filter:url(#filter4640);enable-background:new" />
      <path
         d="m 219.32937,59.651599 c 0.12627,0 -7.3236,-6.060915 -11.49048,-8.207489 -4.16688,-2.146575 -8.94112,-3.519572 -13.63706,-3.535535 -20.02578,-0.06808 -20.07678,0.126269 -20.07678,0.126269 0,0 -0.39604,0.58032 -0.12627,-24.243661 0.0311,-2.86224 -1.51524,-6.944799 -2.65166,-9.47018 -2.24321,-4.3554815 -5.80837,-9.8489872 -5.80837,-9.8489872"
         id="path4492"
         style="fill:url(#linearGradient4500);fill-opacity:1;stroke:none;display:inline;filter:url(#filter5517)" />
      <path
         d="M 165.55869,4.7479137 219.38095,59.680215"
         id="path3998"
         style="color:#000000;fill:none;stroke:#c2c2c2;stroke-width:1;stroke-linecap:round;stroke-linejoin:round;stroke-miterlimit:0;stroke-opacity:1;stroke-dasharray:none;stroke-dashoffset:0;marker:none;visibility:visible;display:inline;overflow:visible;enable-background:new" />
      <path
         d="m 219.38095,59.680215 0.0323,187.851965 -184.954662,0"
         id="path3996"
         style="color:#000000;fill:none;stroke:#878787;stroke-width:2;stroke-linecap:round;stroke-linejoin:round;stroke-miterlimit:0;stroke-opacity:1;stroke-dasharray:none;stroke-dashoffset:0;marker:none;visibility:visible;display:inline;overflow:visible;enable-background:new" />
      <path
         d="m 34.458588,247.53218 -10e-7,-242.9105354 131.100133,0"
         id="rect3067-6"
         style="color:#000000;fill:none;stroke:#b6b6b6;stroke-width:2;stroke-linecap:round;stroke-linejoin:round;stroke-miterlimit:0;stroke-opacity:1;stroke-dasharray:none;stroke-dashoffset:0;marker:none;visibility:visible;display:inline;overflow:visible;enable-background:new" />
      <path
         d="m 219.32937,59.651603 c 0.12627,0 -7.3236,-6.060915 -11.49048,-8.207489 -4.16688,-2.146575 -8.94112,-3.519572 -13.63706,-3.535535 -20.02578,-0.06808 -20.07678,0.126269 -20.07678,0.126269"
         id="path4688"
         style="fill:none;stroke:#878787;stroke-width:2;stroke-linecap:round;stroke-linejoin:miter;stroke-miterlimit:4;stroke-opacity:1;stroke-dasharray:none;display:inline;filter:url(#filter4468)" />
      <path
         d="m 174.12505,48.034848 c 0,0 -0.39604,0.58032 -0.12627,-24.243661 0.0311,-2.86224 -1.51524,-6.944799 -2.65166,-9.47018 -2.24321,-4.3554813 -5.80837,-9.848987 -5.80837,-9.848987"
         id="path4492-2"
         style="fill:none;stroke:#b6b6b6;stroke-width:2;stroke-linecap:round;stroke-linejoin:miter;stroke-miterlimit:4;stroke-opacity:1;stroke-dasharray:none;display:inline;filter:url(#filter4468)" />
      <rect
         width="105"
         height="54.285713"
         x="17.142857"
         y="168.14285"
         transform="matrix(1.3025271,0,0,0.86324706,-5.1656273,-125.56827)"
         id="rect3421-7-0"
         style="fill:url(#linearGradient5773);fill-opacity:1;stroke:#006600;stroke-width:2.29999995;stroke-miterlimit:4;stroke-opacity:1;stroke-dasharray:none;display:inline;filter:url(#filter3643-3-6);enable-background:new" />
      <g
         id="text3044"
         style="font-size:40px;font-style:normal;font-weight:normal;line-height:125%;letter-spacing:0px;word-spacing:0px;fill:#ffffff;fill-opacity:1;stroke:none;font-family:Sans">
        <path
           d="m 53.759945,34.028465 0,17.792969 2.695312,0 c 3.0729,6e-6 5.416648,-0.761712 7.03125,-2.285156 1.627582,-1.523428 2.441383,-3.736968 2.441407,-6.640625 -2.4e-5,-2.890608 -0.807315,-5.091126 -2.421875,-6.601563 -1.614603,-1.510394 -3.964861,-2.265601 -7.050782,-2.265625 l -2.695312,0 m -7.519531,-5.683593 7.929687,0 c 4.427067,2.9e-5 7.721335,0.319039 9.882813,0.957031 2.174455,0.625027 4.036432,1.692735 5.585937,3.203125 1.367159,1.315128 2.382783,2.832053 3.046875,4.550781 0.664032,1.718769 0.996063,3.665381 0.996094,5.839844 -3.1e-5,2.200533 -0.332062,4.166677 -0.996094,5.898437 -0.664092,1.718757 -1.679716,3.235683 -3.046875,4.550782 -1.562525,1.510419 -3.437523,2.584637 -5.625,3.222656 -2.187519,0.625 -5.468766,0.9375 -9.84375,0.9375 l -7.929687,0 0,-29.160156"
           id="path3050"
           style="font-weight:bold;fill:#ffffff;-inkscape-font-specification:Sans Bold" />
        <path
           d="m 75.966976,28.344872 26.875004,0 0,5.683593 -9.667973,0 0,23.476563 -7.519531,0 0,-23.476563 -9.6875,0 0,-5.683593"
           id="path3052"
           style="font-weight:bold;fill:#ffffff;-inkscape-font-specification:Sans Bold" />
        <path
           d="m 121.43573,42.895653 c -2e-5,-3.645815 -0.34507,-6.210917 -1.03516,-7.695313 -0.6771,-1.497372 -1.82293,-2.246069 -3.4375,-2.246093 -1.6146,2.4e-5 -2.76694,0.748721 -3.45703,2.246093 -0.69012,1.484396 -1.03517,4.049498 -1.03516,7.695313 -10e-6,3.684907 0.34504,6.28256 1.03516,7.792969 0.69009,1.510421 1.84243,2.265629 3.45703,2.265625 1.60155,4e-6 2.74738,-0.755204 3.4375,-2.265625 0.69009,-1.510409 1.03514,-4.108062 1.03516,-7.792969 m 7.51953,0.05859 c -3e-5,4.830738 -1.04169,8.561203 -3.125,11.191406 -2.08336,2.617188 -5.03908,3.92578 -8.86719,3.925781 -3.84116,-10e-7 -6.80339,-1.308593 -8.88672,-3.925781 -2.08334,-2.630203 -3.125,-6.360668 -3.125,-11.191406 0,-4.843731 1.04166,-8.574196 3.125,-11.191407 2.08333,-2.63018 5.04556,-3.945283 8.88672,-3.945312 3.82811,2.9e-5 6.78383,1.315132 8.86719,3.945312 2.08331,2.617211 3.12497,6.347676 3.125,11.191407"
           id="path3054"
           style="font-weight:bold;fill:#ffffff;-inkscape-font-specification:Sans Bold" />
      </g>
      <g
         transform="matrix(5.6719552,0,0,5.6719552,59.720837,43.06087)"
         id="g3000"
         style="display:inline;filter:url(#filter3353)">
        <rect
           width="7.999999"
           height="7.999999"
           x="7.9999986"
           y="7.9999995"
           id="rect6419"
           style="fill:#6e97c4;fill-opacity:1;fill-rule:nonzero;stroke:none" />
        <rect
           width="7.999999"
           height="7.999999"
           x="16.000002"
           y="7.9999995"
           id="rect6419-6"
           style="fill:#2b3b4d;fill-opacity:1;fill-rule:nonzero;stroke:none;display:inline" />
        <rect
           width="7.999999"
           height="7.999999"
           x="7.9999986"
           y="16"
           id="rect6419-6-9"
           style="fill:#2b3b4d;fill-opacity:1;fill-rule:nonzero;stroke:none;display:inline" />
        <rect
           width="7.999999"
           height="7.999999"
           x="16.000002"
           y="16"
           id="rect6419-0"
           style="fill:#6d97c4;fill-opacity:1;fill-rule:nonzero;stroke:none;display:inline" />
        <rect
           width="7.999999"
           height="7.999999"
           x="-4.7683716e-07"
           y="7.9999995"
           id="rect6419-6-7"
           style="fill:#2d3e4d;fill-opacity:1;fill-rule:nonzero;stroke:none;display:inline" />
        <rect
           width="7.999999"
           height="7.999999"
           x="-4.7683716e-07"
           y="16"
           id="rect6419-3"
           style="fill:#6d97c4;fill-opacity:1;fill-rule:nonzero;stroke:none;display:inline" />
        <rect
           width="7.999999"
           height="7.999999"
           x="7.9999986"
           y="24.000002"
           id="rect6419-5"
           style="fill:#6d97c4;fill-opacity:1;fill-rule:nonzero;stroke:none;display:inline" />
        <rect
           width="7.999999"
           height="7.999999"
           x="-4.7683716e-07"
           y="24.000002"
           id="rect6419-6-6"
           style="fill:#2b3b4d;fill-opacity:1;fill-rule:nonzero;stroke:none;display:inline" />
        <rect
           width="23.999998"
           height="23.999998"
           x="-4.7683716e-07"
           y="7.9999995"
           id="rect6554"
           style="fill:none;stroke:none" />
      </g>
    </g>
  </g>
</svg>
