<?xml version="1.0" encoding="UTF-8"?>
<!DOCTYPE svg  PUBLIC '-//W3C//DTD SVG 1.1//EN'  'http://www.w3.org/Graphics/SVG/1.1/DTD/svg11.dtd'>
<svg width="256" height="256" version="1.1" viewBox="0 0 256 256" xmlns="http://www.w3.org/2000/svg">
 <g id="Background">
  <rect width="256" height="256" fill="#fff"/>
 </g>
 <defs>
  <linearGradient id="Gradient_1" x1="26.2" x2="121.41" y1="134.66" y2="134.66" gradientTransform="translate(0 -8)" gradientUnits="userSpaceOnUse">
   <stop stop-color="#B7B7B7" offset="0"/>
   <stop stop-color="#E6E6E6" offset="1"/>
  </linearGradient>
  <linearGradient id="Gradient_2" x1="189.01" x2="187.11" y1="222.71" y2="98.016" gradientUnits="userSpaceOnUse">
   <stop stop-color="#589632" offset="0"/>
   <stop stop-color="#93B023" offset="1"/>
  </linearGradient>
  <linearGradient id="Gradient_3" x1="151.85" x2="149.97" y1="224.65" y2="101" gradientUnits="userSpaceOnUse">
   <stop stop-color="#589632" offset="0"/>
   <stop stop-color="#93B023" offset="1"/>
  </linearGradient>
 </defs>
 <g id="Layer_1">
  <g id="path7">
   <path d="m240.42 245.68h-202.32c-11.901 0-23.539-16.907-23.803-29.753v-196.37h226.12z" fill="url(#Gradient_1)"/>
   <path d="m240.42 245.68h-202.32c-11.901 0-23.539-16.907-23.803-29.753v-196.37h226.12z" fill-opacity="0" stroke="#9A9A9A" stroke-width="9"/>
  </g>
  <g id="path9">
   <path d="m61.903 13.601c-11.901-11.901-35.703-11.901-47.605 0v190.42c11.902-11.902 35.704-11.902 47.605 0z" fill="#E6E6E6"/>
   <path d="m61.903 13.601c-11.901-11.901-35.703-11.901-47.605 0v190.42c11.902-11.902 35.704-11.902 47.605 0z" fill-opacity="0" stroke="#9A9A9A" stroke-width="10"/>
  </g>
 </g>
 <g id="Layer_3">
  <path id="polygon3" d="m155.88 163.92h18.059l-15.284-15.111h-18.726v17.992l15.951 15.898z" fill="#EE7913"/>
  <path id="polygon10" d="m213.8 203.33-32.221-31.854h-18.149v18.753l30.877 30.774h19.493z" fill="url(#Gradient_2)"/>
  <path id="polygon12" d="m163.43 171.47h18.149l-7.644-7.556h-18.059v18.779l7.554 7.53z" fill="#F0E64A"/>
  <path id="path19" d="m159.66 196.64c-2.738 0.631-5.582 0.972-8.516 0.972-20.99 0-38.844-17.26-38.844-39.64 0-22.381 17.655-39.262 38.844-39.262 21.187 0 38.057 16.879 38.057 39.262 0 3.638-0.452 7.142-1.29 10.459l19.428 19.426c5.009-8.777 7.811-18.982 7.811-30.035 0-34.495-27.528-60.322-64.398-60.322-36.704 0-64.23 25.658-64.23 60.322 0 34.832 27.526 61 64.23 61 9.474 0 18.329-1.743 26.261-4.915l-17.353-17.267z" fill="url(#Gradient_3)"/>
  <path id="polygon4153" d="m139.92 148.81 73.875 72.194v-17.673l-32.221-31.854-7.644-7.556-15.284-15.111z" fill="#fff" fill-opacity=".172"/>
 </g>
</svg>
