<?xml version="1.0" encoding="UTF-8"?>
<svg width="256" height="256" xmlns="http://www.w3.org/2000/svg" xmlns:xlink="http://www.w3.org/1999/xlink">
 <linearGradient id="a">
  <stop stop-color="#f5f5f5" offset="0"/>
  <stop stop-color="#fff" offset="1"/>
 </linearGradient>
 <linearGradient id="b" x1="190.52" x2="180.14" y1="30.799" y2="41.595" gradientUnits="userSpaceOnUse">
  <stop stop-color="#afafaf" offset="0"/>
  <stop stop-color="#fff" offset="1"/>
 </linearGradient>
 <linearGradient id="c" x1="120.71" x2="123.01" y1="244.55" y2="121.56" gradientUnits="userSpaceOnUse" xlink:href="#a"/>
 <linearGradient id="d" x1="-19.832" x2="384.75" y1="221.76" y2="222.77" gradientUnits="userSpaceOnUse" xlink:href="#a"/>
 <filter id="e" color-interpolation-filters="sRGB">
  <feFlood flood-opacity=".85145" result="flood"/>
  <feComposite in="flood" in2="SourceGraphic" operator="in" result="composite1"/>
  <feGaussianBlur result="blur" stdDeviation="4"/>
  <feOffset dx="1.8" dy="1.8" result="offset"/>
  <feComposite in="SourceGraphic" in2="offset" result="composite2"/>
 </filter>
 <filter id="f" color-interpolation-filters="sRGB">
  <feFlood flood-opacity=".77536" result="flood"/>
  <feComposite in="flood" in2="SourceGraphic" operator="in" result="composite1"/>
  <feGaussianBlur result="blur" stdDeviation="4"/>
  <feOffset dx="1.8" dy="1.8" result="offset"/>
  <feComposite in="SourceGraphic" in2="offset" result="composite2"/>
 </filter>
 <filter id="g" color-interpolation-filters="sRGB">
  <feFlood flood-opacity=".419" result="flood"/>
  <feComposite in="flood" in2="SourceGraphic" operator="in" result="composite1"/>
  <feGaussianBlur result="blur" stdDeviation="1.8"/>
  <feOffset dx="3" dy="3" result="offset"/>
  <feComposite in="SourceGraphic" in2="offset" result="composite2"/>
 </filter>
 <linearGradient id="h" x1="61.441" x2="63.125" y1="161.2" y2="273.63" gradientUnits="userSpaceOnUse">
  <stop stop-color="#129300" offset="0"/>
  <stop stop-color="#e4f363" offset="1"/>
 </linearGradient>
 <filter id="i" color-interpolation-filters="sRGB">
  <feFlood flood-opacity=".75" result="flood"/>
  <feComposite in="flood" in2="SourceGraphic" operator="in" result="composite1"/>
  <feGaussianBlur result="blur" stdDeviation="4"/>
  <feOffset dx="3.5" dy="3.5" result="offset"/>
  <feComposite in="SourceGraphic" in2="offset" result="composite2"/>
 </filter>
 <path d="m34.837 5.0004h131.1l53.065 54.048-0.15712 187.92h-184.01z" fill="url(#c)" filter="url(#e)" overflow="visible" stroke="url(#d)" stroke-width="0"/>
 <path d="m219.33 59.652c0.12627 0-7.3236-6.0609-11.49-8.2075-4.1669-2.1466-8.9411-3.5196-13.637-3.5355-20.026-0.06808-20.077 0.12627-20.077 0.12627s-0.39604 0.58032-0.12627-24.244c0.0311-2.8622-1.5152-6.9448-2.6517-9.4702-2.2432-4.3555-5.8084-9.849-5.8084-9.849" fill="url(#b)" filter="url(#f)"/>
 <path d="m165.56 4.7479 53.822 54.932" fill="none" stroke="#c2c2c2" stroke-linecap="round" stroke-linejoin="round" stroke-miterlimit="0"/>
 <path d="m219.38 59.68 0.0323 187.85h-184.95" fill="none" stroke="#878787" stroke-linecap="round" stroke-linejoin="round" stroke-miterlimit="0" stroke-width="2"/>
 <path d="m34.459 247.53-1e-6 -242.91h131.1" fill="none" stroke="#b6b6b6" stroke-linecap="round" stroke-linejoin="round" stroke-miterlimit="0" stroke-width="2"/>
 <path d="m219.33 59.652c0.12627 0-7.3236-6.0609-11.49-8.2075-4.1669-2.1466-8.9411-3.5196-13.637-3.5355-20.026-0.06808-20.077 0.12627-20.077 0.12627" fill="none" stroke="#878787" stroke-linecap="round" stroke-width="2" visibility="hidden"/>
 <path d="m174.13 48.035s-0.39604 0.58032-0.12627-24.244c0.0311-2.8622-1.5152-6.9448-2.6517-9.4702-2.2432-4.3555-5.8084-9.849-5.8084-9.849" fill="none" stroke="#b6b6b6" stroke-linecap="round" stroke-width="2" visibility="hidden"/>
 <path transform="matrix(1.3025 0 0 .86325 -5.1656 -125.57)" d="m17.143 168.14h105v54.286h-105z" fill="url(#h)" filter="url(#g)" stroke="#060" stroke-width="2.3"/>
 <text x="21.416252" y="53.505028" fill="#fff" font-family="Sans" font-size="40" letter-spacing="0" word-spacing="0" line-height="125%" xml:space="preserve"><tspan x="21.416252" y="53.505028" fill="#fff" font-size="28" font-weight="bold">MLDATA</tspan></text>
 <g transform="matrix(1.1086 0 0 1.1086 -11.781 -13.57)">
  <g transform="translate(3.5152 .23675)" stroke="#969696">
   <path d="m77.878 124.48h87.105v78.235h-87.105z" fill="#e6e6e6" overflow="visible" stroke-linecap="round" stroke-width="4.5243"/>
   <path d="m67.254 147.8v64.542h33.627" fill="none" stroke-width="4.5"/>
  </g>
  <g transform="translate(-181.98 -6.2717)" fill="#555753" filter="url(#i)">
   <g stroke="#555753" stroke-width="4.7">
    <path d="m283.42 185.62 0.38351-83.223"/>
    <path d="m299 185.62 0.38352-83.223"/>
    <path d="m314.58 185.62 0.38352-83.223"/>
    <path d="m330.16 185.62 0.38352-83.223"/>
    <path d="m345.74 185.62 0.38352-83.223"/>
   </g>
   <g transform="translate(29.051 -1.8352)" stroke-width="4.327">
    <rect x="244.66" y="123.28" width="82.111" height="45.294" ry="3.4516" overflow="visible" stroke="#555753"/>
    <path d="m248.03 163.3v-32.254c0-1.9122 1.5394-3.4516 3.4516-3.4516h58.783 10.672" overflow="visible" stroke="#a1a29f" stroke-linecap="round"/>
   </g>
  </g>
 </g>
</svg>
