<svg height="65.359184" width="59.266239" xmlns="http://www.w3.org/2000/svg" xmlns:xlink="http://www.w3.org/1999/xlink">
<clipPath id="a">
<path d="m565.16125 646.18127h42.875v39.625h-42.875z" transform="matrix(.99990096 -.01407388 .01407388 .99990096 0 0)"/>
</clipPath>
<linearGradient id="b" gradientUnits="userSpaceOnUse" x1="569.49482" x2="579.73047" xlink:href="#c" y1="686.52284" y2="672.73423"/>
<linearGradient id="c">
<stop offset="0" stop-color="#0d4100"/>
<stop offset="1" stop-color="#129300"/>
</linearGradient>
<linearGradient id="d" gradientTransform="matrix(-.28268074 -.95921406 -.95921406 .28268074 1144.7424 948.30227)" gradientUnits="userSpaceOnUse" x1="413.40717" x2="423.64282" y1="477.57877" y2="463.79016">
<stop offset="0" stop-color="#0d1d00"/>
<stop offset="1" stop-color="#0d7200"/>
</linearGradient>
<clipPath id="e">
<path d="m485.06341 446.7935c-9.77401.51743-17.5625 8.97625-17.5625 19.3125 0 10.66968 8.28361 19.3125 18.5 19.3125 1.1046 0 2.16736-.11879 3.21875-.3125v3.09375c.085 1.31607 1.67268 4.12266 6.65625 4.15625 5.76986.0389 8.44866-3.49777 8.9375-4.5625.90942-2.43008.73396-3.98858.6875-4.96875-.019.58818-1.99576 4.1014-5.09375 4.21875-4.98011.18864-4.4375-.71244-4.4375-2.03125v-2.625c5.12836-3.43242 8.53125-9.44688 8.53125-16.28125 0-10.66968-8.28361-19.3125-18.5-19.3125-.31926 0-.62221-.0167-.9375 0zm .625 1.375c3.87037 0 7 7.86055 7 17.59375 0 2.16342-.15449 4.24122-.4375 6.15625-1.61816-.66461-3.68163-1.19682-6.1875-1.1875-3.70225.0138-5.98672.85933-6.875 1.46875-.3101-1.99278-.5-4.16771-.5-6.4375 0-9.7332 3.12963-17.59375 7-17.59375zm-1.28125 23.46875c3.73877.0637 4.8125 1.51573 4.8125 2.28125v7.0625c-1.03594 1.52517-2.24316 2.40625-3.53125 2.40625-2.82374 0-5.23629-4.19827-6.34375-10.25.89383-.63738 2.70035-1.54023 5.0625-1.5z"/>
</clipPath>
<filter id="f" color-interpolation-filters="sRGB" height="1.7867672" width="1.6636782" x="-.33183911" y="-.39338365">
<feGaussianBlur stdDeviation=".65194979"/>
</filter>
<filter id="g" color-interpolation-filters="sRGB">
<feGaussianBlur stdDeviation="1.0155639"/>
</filter>
<linearGradient id="h" gradientUnits="userSpaceOnUse" x1="569.49482" x2="579.73047" xlink:href="#c" y1="686.52284" y2="672.73423"/>
<filter id="i" color-interpolation-filters="sRGB">
<feGaussianBlur stdDeviation=".48785405"/>
</filter>
<g transform="translate(-293.22402 -451.11116)">
<path d="m445.49832 443.64178l-13.43694 5.46836 3.53559 2.34117c0 0-21.73596 25.20136-26.72117 31.08815l-9.37732 3.36622 7.94737 1.95465 2.1582 7.35242 2.83885-9.42158 26.7609-31.21072 2.97047 3.27344z" filter="url(#i)" opacity=".30041151" stroke="#060000" stroke-width=".60000002" transform="matrix(.99958439 -.02882794 .02882794 .99958439 -112.94886 26.451722)"/>
<g transform="matrix(.99990096 .01407388 -.01407388 .99990096 -245.10157 -201.70028)">
<path d="m597.71136 649.10637l-12.9375 6.3125 3.6875 2.09375c0 0-19.96054 26.62963-24.53125 32.84375l-9.125 4 8.03125 1.40625z" fill="url(#h)"/>
<path d="m597.69396 649.11595l-2.39786 14.19425-3.05074-2.94525c0 0-19.90106 26.67412-24.56967 32.81503l-1.25739 9.88354-3.61917-7.30616z" fill="url(#d)"/>
</g>
<path d="m322.14652 464.00363c-9.77401.51743-17.5625 8.97625-17.5625 19.3125 0 10.66968 8.28361 19.3125 18.5 19.3125 1.1046 0 2.16736-.11879 3.21875-.3125v3.09375c.085 1.31607 1.67268 4.12266 6.65625 4.15625 5.76986.0389 8.44866-3.49777 8.9375-4.5625.90942-2.43008.73396-3.98858.6875-4.96875-.019.58818-1.99576 4.1014-5.09375 4.21875-4.98011.18864-4.4375-.71244-4.4375-2.03125v-2.625c5.12836-3.43242 8.53125-9.44688 8.53125-16.28125 0-10.66968-8.28361-19.3125-18.5-19.3125-.31926 0-.62221-.0167-.9375 0zm .625 1.375c3.87037 0 7 7.86055 7 17.59375 0 2.16342-.15449 4.24122-.4375 6.15625-1.61816-.66461-3.68163-1.19682-6.1875-1.1875-3.70225.0138-5.98672.85933-6.875 1.46875-.3101-1.99278-.5-4.16771-.5-6.4375 0-9.7332 3.12963-17.59375 7-17.59375zm-1.28125 23.46875c3.73877.0637 4.8125 1.51573 4.8125 2.28125v7.0625c-1.03594 1.52517-2.24316 2.40625-3.53125 2.40625-2.82374 0-5.23629-4.19827-6.34375-10.25.89383-.63738 2.70035-1.54023 5.0625-1.5z" filter="url(#g)"/>
<path d="m321.61618 463.47329c-9.77401.51743-17.5625 8.97625-17.5625 19.3125 0 10.66968 8.28361 19.3125 18.5 19.3125 1.1046 0 2.16736-.11879 3.21875-.3125v3.09375c.085 1.31607 1.67268 4.12266 6.65625 4.15625 5.76986.0389 8.44866-3.49777 8.9375-4.5625.90942-2.43008.73396-3.98858.6875-4.96875-.019.58818-1.99576 4.1014-5.09375 4.21875-4.98011.18864-4.4375-.71244-4.4375-2.03125v-2.625c5.12836-3.43242 8.53125-9.44688 8.53125-16.28125 0-10.66968-8.28361-19.3125-18.5-19.3125-.31926 0-.62221-.0167-.9375 0zm .625 1.375c3.87037 0 7 7.86055 7 17.59375 0 2.16342-.15449 4.24122-.4375 6.15625-1.61816-.66461-3.68163-1.19682-6.1875-1.1875-3.70225.0138-5.98672.85933-6.875 1.46875-.3101-1.99278-.5-4.16771-.5-6.4375 0-9.7332 3.12963-17.59375 7-17.59375zm-1.28125 23.46875c3.73877.0637 4.8125 1.51573 4.8125 2.28125v7.0625c-1.03594 1.52517-2.24316 2.40625-3.53125 2.40625-2.82374 0-5.23629-4.19827-6.34375-10.25.89383-.63738 2.70035-1.54023 5.0625-1.5z" fill="#e4f363"/>
<path clip-path="url(#e)" d="m488.43401 448.93493c0 0 3.0052.53033 4.15425 1.23744 1.14905.70711.17678 2.65165.17678 2.65165l-2.12132.0884zm-8.93401 23.17725c0 0 2.375-1.25 4-1.4375 1.625-.1875 4.4375-.25 5.5625.0625 1.125.3125 3.3125.9375 3.5 1.25.1875.3125 1 3.25 1 3.25l-2.5625.25-1.8125-2.0625c0 0-2.6875-1.625-3.0625-1.625-.375 0-2.5625-.25-3.375-.125-.8125.125-3.5625.3125-3.5625.3125zm-10.50551-11.04186c-.0152-.28825.41404-1.95744.76266-2.40979.34862-.45234-1.01549 1.31997 1.48894-2.21065.3964-.55884 2.30192-2.23113 1.87609-1.6724-.57503.75451-1.69674 3.24294-1.84878 3.44985-.15205.2069-.43962 1.94011-.58236 2.71994-.29797 1.62698.78628 3.18584.71846 3.88506-.0679.69921-2.18969.99323-2.79525-.55484-.60552-1.54827.38023-3.20696.38023-3.20696zm2.84019-.47809c-.072-.27952.018-2.00067.27008-2.51312.25208-.51245-.73383 1.495 1.02141-2.46184.27782-.6263 1.43552-2.70976 1.50754-2.01096.072.6988-.51233 4.19984-.62036 4.43277-.10804.23293-.50416 1.30443-.54017 2.0964-.036.79197.0319 2.63542.10396 3.33422.072.6988-.57946 1.73885-1.47974.34125-.90028-1.3976-.26272-3.21872-.26272-3.21872zm-1.98207 2.65501c-.125-.48512.0313-3.47232.46875-4.36172.4375-.8894 1.46875-2.49709 2.15625-3.46735.6875-.97025 2.03125-2.74708 2.15625-1.53426.125 1.21282-.8125 4.52786-1 4.93214-.1875.40427-.875 2.26393-.9375 3.63846-.0625 1.37452 3.0625 10.39787 3.1875 11.61069.125 1.21282-.68502 2.96943-2.875 1.09083-8.875-7.61314-3.15625-11.90879-3.15625-11.90879zm19.70936-12.96734c0 0 3.9375.75963 5.375 4.62679 1.4375 3.86716 2.6875 6.9747 1.0625 11.80866-1.625 4.83395-3.25 7.87244-3.25 7.87244 0 0 .375-11.94678.25-13.8113-.125-1.86453-3.4375-10.49659-3.4375-10.49659z" fill="#fff" filter="url(#f)" opacity=".38271604" transform="translate(-163.44724 16.679802)"/>
<path d="m327.55368 480.31704l10.25-13.75 3.1875 3.0625 2.34375-14.40625-13.03125 6.375 3.6875 2.09375c0 0-4.79404 6.41727-10 13.375" fill="none"/>
<path d="m295.11526 454.49084h57.375v57.375h-57.375z" fill="none" opacity=".39506172"/>
<g clip-path="url(#a)" transform="matrix(.99990096 .01407388 -.01407388 .99990096 -245.10157 -201.70028)">
<path d="m597.71136 649.10637l-12.9375 6.3125 3.6875 2.09375c0 0-19.96054 26.62963-24.53125 32.84375l-9.125 4 8.03125 1.40625z" fill="url(#b)"/>
<path d="m597.69396 649.11595l-2.39786 14.19425-3.05074-2.94525c0 0-19.90106 26.67412-24.56967 32.81503l-1.25739 9.88354-3.61917-7.30616z" fill="url(#d)"/>
</g>
</g>
</svg>
