<?xml version="1.0" encoding="UTF-8"?>
<svg width="256" height="256" enable-background="new" xmlns="http://www.w3.org/2000/svg" xmlns:xlink="http://www.w3.org/1999/xlink">
 <linearGradient id="a">
  <stop stop-color="#f5f5f5" offset="0"/>
  <stop stop-color="#fff" offset="1"/>
 </linearGradient>
 <linearGradient id="b" x1="190.52" x2="180.14" y1="30.799" y2="41.595" gradientUnits="userSpaceOnUse">
  <stop stop-color="#afafaf" offset="0"/>
  <stop stop-color="#fff" offset="1"/>
 </linearGradient>
 <linearGradient id="c" x1="120.71" x2="123.01" y1="244.55" y2="121.56" gradientUnits="userSpaceOnUse" xlink:href="#a"/>
 <linearGradient id="d" x1="-19.832" x2="384.75" y1="221.76" y2="222.77" gradientUnits="userSpaceOnUse" xlink:href="#a"/>
 <filter id="e" color-interpolation-filters="sRGB">
  <feFlood flood-opacity=".85145" result="flood"/>
  <feComposite in="flood" in2="SourceGraphic" operator="in" result="composite1"/>
  <feGaussianBlur result="blur" stdDeviation="4"/>
  <feOffset dx="1.8" dy="1.8" result="offset"/>
  <feComposite in="SourceGraphic" in2="offset" result="composite2"/>
 </filter>
 <filter id="f" color-interpolation-filters="sRGB">
  <feFlood flood-opacity=".77536" result="flood"/>
  <feComposite in="flood" in2="SourceGraphic" operator="in" result="composite1"/>
  <feGaussianBlur result="blur" stdDeviation="4"/>
  <feOffset dx="1.8" dy="1.8" result="offset"/>
  <feComposite in="SourceGraphic" in2="offset" result="composite2"/>
 </filter>
 <filter id="g" color-interpolation-filters="sRGB">
  <feFlood flood-opacity=".419" result="flood"/>
  <feComposite in="flood" in2="SourceGraphic" operator="in" result="composite1"/>
  <feGaussianBlur result="blur" stdDeviation="1.8"/>
  <feOffset dx="3" dy="3" result="offset"/>
  <feComposite in="SourceGraphic" in2="offset" result="composite2"/>
 </filter>
 <linearGradient id="h" x1="61.441" x2="63.125" y1="161.2" y2="273.63" gradientUnits="userSpaceOnUse">
  <stop stop-color="#129300" offset="0"/>
  <stop stop-color="#e4f363" offset="1"/>
 </linearGradient>
 <filter id="i" color-interpolation-filters="sRGB">
  <feFlood flood-opacity=".5" result="flood"/>
  <feComposite in="flood" in2="SourceGraphic" operator="in" result="composite1"/>
  <feGaussianBlur in="composite" result="blur" stdDeviation="1.5"/>
  <feOffset dx="1.5" dy="1.5" result="offset"/>
  <feComposite in="SourceGraphic" in2="offset" result="composite2"/>
 </filter>
 <path d="m34.837 5.0004h131.1l53.065 54.048-0.15712 187.92h-184.01z" fill="url(#c)" filter="url(#e)" overflow="visible" stroke="url(#d)" stroke-width="0"/>
 <path d="m219.33 59.652c0.12627 0-7.3236-6.0609-11.49-8.2075-4.1669-2.1466-8.9411-3.5196-13.637-3.5355-20.026-0.06808-20.077 0.12627-20.077 0.12627s-0.39604 0.58032-0.12627-24.244c0.0311-2.8622-1.5152-6.9448-2.6517-9.4702-2.2432-4.3555-5.8084-9.849-5.8084-9.849" fill="url(#b)" filter="url(#f)"/>
 <path d="m165.56 4.7479 53.822 54.932" fill="none" stroke="#c2c2c2" stroke-linecap="round" stroke-linejoin="round" stroke-miterlimit="0"/>
 <path d="m219.38 59.68 0.0323 187.85h-184.95" fill="none" stroke="#878787" stroke-linecap="round" stroke-linejoin="round" stroke-miterlimit="0" stroke-width="2"/>
 <path d="m34.459 247.53-1e-6 -242.91h131.1" fill="none" stroke="#b6b6b6" stroke-linecap="round" stroke-linejoin="round" stroke-miterlimit="0" stroke-width="2"/>
 <path d="m219.33 59.652c0.12627 0-7.3236-6.0609-11.49-8.2075-4.1669-2.1466-8.9411-3.5196-13.637-3.5355-20.026-0.06808-20.077 0.12627-20.077 0.12627" fill="none" stroke="#878787" stroke-linecap="round" stroke-width="2" visibility="hidden"/>
 <path d="m174.13 48.035s-0.39604 0.58032-0.12627-24.244c0.0311-2.8622-1.5152-6.9448-2.6517-9.4702-2.2432-4.3555-5.8084-9.849-5.8084-9.849" fill="none" stroke="#b6b6b6" stroke-linecap="round" stroke-width="2" visibility="hidden"/>
 <path transform="matrix(1.3025 0 0 .86325 -5.1656 -125.57)" d="m17.143 168.14h105v54.286h-105z" fill="url(#h)" filter="url(#g)" stroke="#060" stroke-width="2.3"/>
 <g fill="#fff">
  <path d="m65.381 29.263v6.1719c-1.6016-0.71612-3.1641-1.2565-4.6875-1.6211-1.5235-0.36456-2.9623-0.54685-4.3164-0.54688-1.7969 2.4e-5 -3.125 0.24742-3.9844 0.74219-0.85938 0.49482-1.2891 1.263-1.2891 2.3047-1e-5 0.78127 0.28645 1.3932 0.85938 1.8359 0.58593 0.42971 1.6406 0.8008 3.1641 1.1133l3.2031 0.64453c3.2422 0.65106 5.5469 1.6406 6.9141 2.9688 1.3672 1.3281 2.0508 3.2162 2.0508 5.6641-2.5e-5 3.2162-0.95706 5.612-2.8711 7.1875-1.9011 1.5625-4.8112 2.3437-8.7305 2.3438-1.849-1e-6 -3.7044-0.17578-5.5664-0.52734-1.862-0.35156-3.724-0.8724-5.5859-1.5625v-6.3477c1.862 0.98959 3.6588 1.7383 5.3906 2.2461 1.7448 0.4948 3.4245 0.74219 5.0391 0.74219 1.6406 5e-6 2.8971-0.27343 3.7695-0.82031 0.87238-0.54687 1.3086-1.3281 1.3086-2.3438-1.9e-5 -0.91145-0.2995-1.6146-0.89844-2.1094-0.58596-0.49478-1.7643-0.93749-3.5352-1.3281l-2.9102-0.64453c-2.9167-0.62499-5.0521-1.6211-6.4062-2.9883-1.3412-1.3672-2.0117-3.2096-2.0117-5.5273-3e-6 -2.9036 0.9375-5.1367 2.8125-6.6992 1.875-1.5625 4.5703-2.3437 8.0859-2.3438 1.6015 2.9e-5 3.2487 0.12373 4.9414 0.37109 1.6927 0.2344 3.444 0.59248 5.2539 1.0742"/>
  <path d="m73.916 28.345h7.5195v11.113h11.094v-11.113h7.5195v29.16h-7.5195v-12.363h-11.094v12.363h-7.5195z"/>
  <path d="m107.43 28.345h12.48c3.7109 2.9e-5 6.556 0.82685 8.5352 2.4805 1.9922 1.6406 2.9883 3.9844 2.9883 7.0312-2e-5 3.0599-0.99612 5.4167-2.9883 7.0703-1.9792 1.6406-4.8242 2.4609-8.5352 2.4609h-4.9609v10.117h-7.5195zm7.5195 5.4492v8.1445h4.1602c1.4583 1.5e-5 2.5846-0.35155 3.3789-1.0547 0.79425-0.71613 1.1914-1.7252 1.1914-3.0273-2e-5 -1.3021-0.39716-2.3047-1.1914-3.0078-0.79429-0.7031-1.9206-1.0547-3.3789-1.0547z"/>
 </g>
 <g transform="matrix(5.8214 0 0 5.8214 59.429 56.06)" filter="url(#i)" stroke="#415a75" stroke-linecap="round" stroke-linejoin="round">
  <path d="m2.3679 10.368 6.4128 15.444 7.0525-15.3 5.7989-0.02194" fill="none" overflow="visible" stroke-width="1.3403"/>
  <path transform="matrix(1.6978 0 0 1.6978 -3.5742 -10.854)" d="m4.5 12.5a1 1 0 1 1-2 0 1 1 0 1 1 2 0z" fill="#eeeeec" fill-rule="evenodd" overflow="visible" stroke-width=".78947"/>
  <path transform="matrix(1.6978 0 0 1.6978 2.8596 3.7805)" d="m4.5 12.5a1 1 0 1 1-2 0 1 1 0 1 1 2 0z" fill="#eeeeec" fill-rule="evenodd" overflow="visible" stroke-width="1.0526"/>
  <path transform="matrix(1.6978 0 0 1.6978 9.7119 -10.746)" d="m4.5 12.5a1 1 0 1 1-2 0 1 1 0 1 1 2 0z" fill="#eeeeec" fill-rule="evenodd" overflow="visible" stroke-width=".78947"/>
  <path transform="matrix(1.6978 0 0 1.6978 15.69 -10.732)" d="m4.5 12.5a1 1 0 1 1-2 0 1 1 0 1 1 2 0z" fill="#eeeeec" fill-rule="evenodd" overflow="visible" stroke-width=".78947"/>
 </g>
</svg>
