<svg enable-background="new" height="256" width="256" xmlns="http://www.w3.org/2000/svg" xmlns:xlink="http://www.w3.org/1999/xlink">
<linearGradient id="a">
<stop offset="0" stop-color="#f5f5f5"/>
<stop offset="1" stop-color="#fff"/>
</linearGradient>
<linearGradient id="b" gradientUnits="userSpaceOnUse" x1="190.52345" x2="180.14067" y1="30.799114" y2="41.59544">
<stop offset="0" stop-color="#afafaf"/>
<stop offset="1" stop-color="#fff"/>
</linearGradient>
<linearGradient id="c" gradientUnits="userSpaceOnUse" x1="120.7066" x2="123.01035" xlink:href="#a" y1="244.55363" y2="121.55801"/>
<linearGradient id="d" gradientUnits="userSpaceOnUse" x1="-19.831818" x2="384.75043" xlink:href="#a" y1="221.75748" y2="222.76762"/>
<filter id="e" color-interpolation-filters="sRGB">
<feFlood flood-opacity=".85144928" result="flood"/>
<feComposite in="flood" in2="SourceGraphic" operator="in" result="composite1"/>
<feGaussianBlur result="blur" stdDeviation="4"/>
<feOffset dx="1.8" dy="1.8" result="offset"/>
<feComposite in="SourceGraphic" in2="offset" operator="over" result="composite2"/>
</filter>
<filter id="f" color-interpolation-filters="sRGB">
<feFlood flood-opacity=".77536232" result="flood"/>
<feComposite in="flood" in2="SourceGraphic" operator="in" result="composite1"/>
<feGaussianBlur result="blur" stdDeviation="4"/>
<feOffset dx="1.8" dy="1.8" result="offset"/>
<feComposite in="SourceGraphic" in2="offset" operator="over" result="composite2"/>
</filter>
<filter id="g" color-interpolation-filters="sRGB">
<feFlood flood-opacity=".419" result="flood"/>
<feComposite in="flood" in2="SourceGraphic" operator="in" result="composite1"/>
<feGaussianBlur result="blur" stdDeviation="1.8"/>
<feOffset dx="3" dy="3" result="offset"/>
<feComposite in="SourceGraphic" in2="offset" operator="over" result="composite2"/>
</filter>
<linearGradient id="h" gradientUnits="userSpaceOnUse" x1="61.441303" x2="63.125427" y1="161.2032" y2="273.62759">
<stop offset="0" stop-color="#129300"/>
<stop offset="1" stop-color="#e4f363"/>
</linearGradient>
<filter id="i" color-interpolation-filters="sRGB">
<feBlend in2="BackgroundImage" mode="darken"/>
</filter>
<g>
<path d="m34.837365 5.00045l131.100135 0 53.06463 54.048418-.15712 187.915102-184.007645 0z" fill="url(#c)" filter="url(#e)" overflow="visible" stroke="url(#d)" stroke-width="0"/>
<path d="m219.32937 59.651599c.12627 0-7.3236-6.060915-11.49048-8.207489-4.16688-2.146575-8.94112-3.519572-13.63706-3.535535-20.02578-.06808-20.07678.126269-20.07678.126269 0 0-.39604.58032-.12627-24.243661.0311-2.86224-1.51524-6.944799-2.65166-9.47018-2.24321-4.3554815-5.80837-9.8489872-5.80837-9.8489872" fill="url(#b)" filter="url(#f)"/>
<path d="m165.55869 4.7479137l53.82226 54.9323013" style="fill:none;stroke:#c2c2c2;stroke-linecap:round;stroke-linejoin:round;stroke-miterlimit:0;overflow:visible"/>
<path d="m219.38095 59.680215l.0323 187.851965-184.954662 0" style="fill:none;stroke:#878787;stroke-width:2;stroke-linecap:round;stroke-linejoin:round;stroke-miterlimit:0;overflow:visible"/>
<path d="m34.458588 247.53218l-.000001-242.9105354 131.100133 0" style="fill:none;stroke:#b6b6b6;stroke-width:2;stroke-linecap:round;stroke-linejoin:round;stroke-miterlimit:0;overflow:visible"/>
<path d="m219.32937 59.651603c.12627 0-7.3236-6.060915-11.49048-8.207489-4.16688-2.146575-8.94112-3.519572-13.63706-3.535535-20.02578-.06808-20.07678.126269-20.07678.126269" fill="none" stroke="#878787" stroke-linecap="round" stroke-width="2" visibility="hidden"/>
<path d="m174.12505 48.034848c0 0-.39604.58032-.12627-24.243661.0311-2.86224-1.51524-6.944799-2.65166-9.47018-2.24321-4.3554813-5.80837-9.848987-5.80837-9.848987" fill="none" stroke="#b6b6b6" stroke-linecap="round" stroke-width="2" visibility="hidden"/>
<path d="m17.142857 168.14285h105v54.285713h-105z" fill="url(#h)" filter="url(#g)" stroke="#060" stroke-width="2.29999995" transform="matrix(1.3025271 0 0 .86324706 -5.1656273 -125.56827)"/>
<g enable-background="new" filter="url(#i)" transform="matrix(1.3235051 0 0 1.3235051 807.79084 -451.80693)">
<g filter="url(#i)" opacity=".2469136" transform="matrix(1.5019736 0 0 1.5019736 -889.59428 -87.118725)">
<path d="m269.45863 391.7294c-7.28893.27522-6.49694-1.04232-6.49694-2.97325v-3.84282c7.50852-5.02569 12.48883-13.82832 12.48883-23.8343 0-7.05763-2.49162-13.49454-6.58624-18.44703-2.55018 3.3202-6.49402 8.44689-10.83311 14.08743.0761 1.26192.12735 2.54286.12735 3.85747 0 3.16648-.22544 6.20854-.64119 9.01197-2.36865-.97351-5.39021-1.75087-9.05882-1.73916-5.41949.0205-8.76311 1.25753-10.06455 2.15053-.45381-2.91763-.73197-6.10168-.73197-9.4248 0-14.24847 4.58212-25.75645 10.24754-25.75645 3.08012 0 5.83378 3.41828 7.712 8.81434 2.26617-2.93958 4.23516-5.49122 5.6991-7.38847-3.84868-2.19151-8.26098-3.43878-12.95289-3.43878-.46699 0-.91057-.0248-1.37317 0-14.30702.75685-25.71106 13.14026-25.71106 28.27295 0 15.6187 12.12722 28.27294 27.08277 28.27294 1.61618 0 3.17381-.17274 4.7124-.4582v4.5294c.12444 1.92507 2.44916 6.03433 9.74394 6.08411 8.44836.0557 12.36878-5.12084 13.08464-6.67993 1.33217-3.55882 1.07452-5.83963 1.00719-7.27429-.0263.8608-2.92055 6.00359-7.45582 6.17634zm-16.37848-8.87436c-1.51665 2.23103-3.28361 3.52222-5.16915 3.52222-4.13269 0-7.66517-6.14559-9.2872-15.00532 1.31022-.93399 3.95262-2.25445 7.4119-2.1959 5.47364.0922 7.04591 2.21933 7.04591 3.33923v10.33977z"/>
<g transform="matrix(1.4639335 0 0 1.4639335 205.43204 314.70893)">
<path d="m37.166 10.773l3.657 2.145c0 0-9.979 12.929-17.557 22.787.02.186.028.37.051.555 1.38-.525 3.431-.95 6.07-.96.064 0 .126.007.19.007 7.093-9.205 14.989-19.483 14.989-19.483l3.009 2.988 2.596-14.142.021-.027z"/>
<path d="m23.785 39.187c.199.97.434 1.882.698 2.726.894-1.156 1.852-2.397 2.846-3.688-1.601.054-2.845.57-3.544.962z"/>
<path d="m15.23 45.668l-8.578 3.617 7.975 1.512-.001.001 3.516 7.356 1.276-9.018c-1.546-.955-2.954-2.12-4.188-3.468z"/>
</g>
</g>
</g>
<g fill="#fff">
<path d="m49.250586 56.934128h-.585938c-4.8047-.000001-8.541675-1.328124-11.210937-3.984375-2.669275-2.656244-4.003909-6.354157-4.003907-11.09375-.000002-4.726543 1.328122-8.430967 3.984375-11.113281 2.669262-2.682264 6.341134-4.023408 11.015625-4.023438 4.726541.00003 8.404923 1.328153 11.035157 3.984375 2.643198 2.656273 3.964811 6.373717 3.964843 11.152344-.000032 3.281261-.703156 6.106779-2.109375 8.476562-1.393257 2.369796-3.404974 4.153648-6.035156 5.351563l5.878906 6.5625h-7.167968zm-.800782-24.765625c-2.291681.000024-4.069023.846377-5.332031 2.539062-1.263031 1.692729-1.894541 4.075539-1.894531 7.148438-.00001 3.125011.618479 5.520842 1.855469 7.1875 1.236966 1.653651 3.027329 2.480473 5.371093 2.480469 2.304669.000004 4.088521-.846349 5.351563-2.539063 1.262997-1.692699 1.894507-4.068999 1.894531-7.128906-.000024-3.072899-.631534-5.455709-1.894531-7.148438-1.263042-1.692685-3.046894-2.539038-5.351563-2.539062"/>
<path d="m95.324804 54.238815c-1.875028.91146-3.82164 1.595053-5.839843 2.050782-2.018252.455728-4.101583.683593-6.25.683593-4.856784 0-8.704437-1.354166-11.542969-4.0625-2.838545-2.721348-4.257815-6.40624-4.257813-11.054687-.000002-4.700502 1.445309-8.398415 4.335938-11.09375 2.890616-2.695284 6.848945-4.042939 11.875-4.042969 1.940084.00003 3.795551.182321 5.566406.546875 1.783829.364612 3.463514.904976 5.039063 1.621094v6.035156c-1.627632-.924457-3.248724-1.61456-4.863282-2.070312-1.601585-.455706-3.209656-.68357-4.824218-.683594-2.994808.000024-5.306004.839867-6.933594 2.519531-1.614594 1.666687-2.421885 4.056007-2.421875 7.167969-.00001 3.085949.781239 5.468759 2.34375 7.148437 1.562486 1.679694 3.782536 2.519536 6.660156 2.519532.781231.000004 1.503886-.04557 2.167969-.136719.677062-.104162 1.28253-.260412 1.816406-.46875v-5.664063h-4.589844v-5.039062h11.71875z"/>
<path d="m101.92637 27.246628h7.51953v29.160156h-7.51953z"/>
<path d="m137.14121 28.164597v6.171875c-1.60158-.716123-3.16408-1.256488-4.6875-1.621094-1.52345-.364559-2.96226-.546851-4.31641-.546875-1.79688.000024-3.12501.24742-3.98437.742187-.85939.494815-1.28907 1.263043-1.28906 2.304688-.00001.78127.28645 1.393249.85937 1.835937.58593.429707 1.64061.8008 3.16406 1.113282l3.20313.644531c3.24217.651058 5.54685 1.640641 6.91406 2.96875 1.36716 1.328138 2.05076 3.216157 2.05078 5.664062-.00002 3.216152-.95705 5.611983-2.87109 7.1875-1.90106 1.562501-4.81122 2.34375-8.73047 2.34375-1.84897 0-3.70444-.175781-5.56641-.527343-1.86198-.351563-3.72396-.872395-5.58593-1.5625v-6.347657c1.86197.989591 3.65884 1.738288 5.39062 2.246094 1.74478.494797 3.42447.742192 5.03906.742188 1.64061.000004 2.89712-.273433 3.76954-.820313.87237-.546869 1.30857-1.328118 1.30859-2.34375-.00002-.911449-.2995-1.614574-.89844-2.109375-.58595-.494781-1.76434-.937489-3.53515-1.328125l-2.91016-.644531c-2.91668-.624987-5.05209-1.62108-6.40625-2.988281-1.34115-1.367171-2.01172-3.209618-2.01172-5.527344 0-2.903622.9375-5.136693 2.8125-6.699219 1.87499-1.562471 4.5703-2.34372 8.08594-2.34375 1.60155.00003 3.24868.123728 4.9414.371094 1.69269.234404 3.44399.592476 5.25391 1.074219"/>
</g>
</g>
</svg>
