<svg height="256" viewBox="0 0 256 256" width="256" xmlns="http://www.w3.org/2000/svg" xmlns:xlink="http://www.w3.org/1999/xlink"><linearGradient id="a" gradientUnits="userSpaceOnUse" x1="26.2" x2="121.409" y1="126.663" y2="126.663"><stop offset="0" stop-color="#b7b7b7"/><stop offset="1" stop-color="#e6e6e6"/></linearGradient><linearGradient id="b"><stop offset="0" stop-color="#589632"/><stop offset="1" stop-color="#93b023"/></linearGradient><linearGradient id="c" gradientUnits="userSpaceOnUse" x1="189.008" x2="187.111" xlink:href="#b" y1="222.708" y2="98.016"/><linearGradient id="d" gradientUnits="userSpaceOnUse" x1="151.854" x2="149.973" xlink:href="#b" y1="224.654" y2="101.003"/><path d="m0 0h256v256h-256z" fill="#fff"/><path d="m240.421 245.675h-202.32c-11.901 0-23.539-16.907-23.803-29.753v-196.37h226.123z" fill="url(#a)"/><path d="m240.421 245.675h-202.32c-11.901 0-23.539-16.907-23.803-29.753v-196.37h226.123z" fill="none" stroke="#9a9a9a" stroke-width="9"/><path d="m61.903 13.601c-11.901-11.901-35.703-11.901-47.605 0v190.42c11.902-11.902 35.704-11.902 47.605 0z" fill="#e6e6e6"/><path d="m61.903 13.601c-11.901-11.901-35.703-11.901-47.605 0v190.42c11.902-11.902 35.704-11.902 47.605 0z" fill="none" stroke="#9a9a9a" stroke-width="10"/><path d="m155.875 163.917h18.059l-15.284-15.111h-18.726v17.992l15.951 15.898z" fill="#ee7913"/><path d="m213.799 203.327-32.221-31.854h-18.149v18.753l30.877 30.774h19.493z" fill="url(#c)"/><path d="m163.429 171.473h18.149l-7.644-7.556h-18.059v18.779l7.554 7.53z" fill="#f0e64a"/><path d="m159.661 196.641c-2.738.631-5.582.972-8.516.972-20.99 0-38.844-17.26-38.844-39.64 0-22.381 17.655-39.262 38.844-39.262 21.187 0 38.057 16.879 38.057 39.262 0 3.638-.452 7.142-1.29 10.459l19.428 19.426c5.009-8.777 7.811-18.982 7.811-30.035 0-34.495-27.528-60.322-64.398-60.322-36.704 0-64.23 25.658-64.23 60.322 0 34.832 27.526 61 64.23 61 9.474 0 18.329-1.743 26.261-4.915z" fill="url(#d)"/><path d="m139.924 148.806 73.875 72.194v-17.673l-32.221-31.854-7.644-7.556-15.284-15.111z" fill="#fff" fill-opacity=".172"/></svg>