<?xml version="1.0" encoding="UTF-8" standalone="no"?>
<!-- Generator: Adobe Illustrator 16.0.0, SVG Export Plug-In . SVG Version: 6.00 Build 0)  -->

<svg
   xmlns:dc="http://purl.org/dc/elements/1.1/"
   xmlns:cc="http://creativecommons.org/ns#"
   xmlns:rdf="http://www.w3.org/1999/02/22-rdf-syntax-ns#"
   xmlns:svg="http://www.w3.org/2000/svg"
   xmlns="http://www.w3.org/2000/svg"
   xmlns:sodipodi="http://sodipodi.sourceforge.net/DTD/sodipodi-0.dtd"
   xmlns:inkscape="http://www.inkscape.org/namespaces/inkscape"
   version="1.1"
   id="svg2"
   inkscape:output_extension="org.inkscape.output.svg.inkscape"
   sodipodi:docname="shopping_hifi.svg"
   inkscape:version="0.91 r13725"
   sodipodi:version="0.32"
   x="0px"
   y="0px"
   width="580px"
   height="580px"
   viewBox="0 0 580 580"
   enable-background="new 0 0 580 580"
   xml:space="preserve"><metadata
     id="metadata29"><rdf:RDF><cc:Work
         rdf:about=""><dc:format>image/svg+xml</dc:format><dc:type
           rdf:resource="http://purl.org/dc/dcmitype/StillImage" /></cc:Work></rdf:RDF></metadata><sodipodi:namedview
     showgrid="false"
     inkscape:cy="494.93551"
     inkscape:cx="281.50501"
     inkscape:zoom="0.84868395"
     pagecolor="#ffffff"
     bordercolor="#666666"
     guidetolerance="10.0"
     objecttolerance="10.0"
     gridtolerance="10.0"
     borderopacity="1.0"
     id="base"
     inkscape:window-maximized="1"
     inkscape:current-layer="svg2"
     inkscape:window-y="24"
     inkscape:window-x="65"
     inkscape:pageopacity="0.0"
     inkscape:pageshadow="2"
     inkscape:window-width="1215"
     inkscape:window-height="776"
     inkscape:guide-bbox="true"
     showguides="true" /><defs
     id="defs4" /><g
     id="layer3"
     transform="matrix(48.14969,0,0,48.14969,-536.27327,-33.306752)"
     inkscape:label="Layout"
     display="none"><rect
       id="rect4134"
       x="1"
       y="1"
       display="inline"
       fill="none"
       stroke="#757575"
       stroke-width="0.1"
       width="10"
       height="10" /><rect
       id="rect4136"
       x="2"
       y="2"
       display="inline"
       fill="none"
       stroke="#757575"
       stroke-width="0.1"
       width="8"
       height="8" /></g><g
     id="g3338"
     transform="matrix(1.3973279,-0.2437849,0.2437849,1.3973279,-185.07402,-56.183307)" /><path
     fill="param(fill)" fill-opacity="param(fill-opacity)"
     stroke="param(outline)" stroke-opacity="param(outline-opacity)"
     stroke-width="param(outline-width)"
     d="M523.943,334.229H64.115c-8.931,0-16.125,7.195-16.125,16.125  v55.918c0,8.932,7.195,16.126,16.125,16.126h14.79c-0.56,1.585-0.879,3.282-0.879,5.059c0,8.405,6.814,15.22,15.219,15.22h55.804  c8.405,0,15.219-6.814,15.219-15.22c0-1.776-0.32-3.474-0.879-5.059H424.91c-0.559,1.585-0.879,3.282-0.879,5.059  c0,8.405,6.813,15.22,15.219,15.22h55.805c8.405,0,15.219-6.814,15.219-15.22c0-1.776-0.32-3.474-0.879-5.059h14.549  c8.931,0,16.126-7.194,16.126-16.126v-55.918C540.069,341.424,532.874,334.229,523.943,334.229z M63.205,386.466v-13.772  c0-6.385,5.15-11.535,11.535-11.535h67.007c6.385,0,11.497,5.15,11.497,11.535v13.772c0,6.385-5.112,11.534-11.497,11.534H74.739  C68.355,398,63.205,392.851,63.205,386.466z M274.66,386.466c0,6.385-5.112,11.534-11.497,11.534h-67.007  c-6.385,0-11.535-5.149-11.535-11.534v-13.772c0-6.385,5.15-11.535,11.535-11.535h67.007c6.385,0,11.497,5.15,11.497,11.535V386.466  z M396.076,386.466c0,6.385-5.111,11.534-11.496,11.534h-67.007c-6.385,0-11.535-5.149-11.535-11.534v-13.772  c0-6.385,5.15-11.535,11.535-11.535h67.007c6.385,0,11.496,5.15,11.496,11.535V386.466z M517.493,386.466  c0,6.385-5.111,11.534-11.496,11.534h-67.008c-6.385,0-11.534-5.149-11.534-11.534v-13.772c0-6.385,5.149-11.535,11.534-11.535  h67.008c6.385,0,11.496,5.15,11.496,11.535V386.466z"
     id="path25" /><path
     fill="param(fill)" fill-opacity="param(fill-opacity)"
     stroke="param(outline)" stroke-opacity="param(outline-opacity)"
     stroke-width="param(outline-width)"
     d="M523.943,150.62H64.115c-8.931,0-16.125,7.195-16.125,16.125v87.881  c0,8.931,7.195,16.125,16.125,16.125h14.797c-0.564,1.591-0.887,3.296-0.887,5.081c0,8.406,6.814,15.22,15.219,15.22h55.804  c8.405,0,15.219-6.814,15.219-15.22c0-1.784-0.323-3.489-0.887-5.081h261.538c-0.564,1.591-0.888,3.296-0.888,5.081  c0,8.406,6.813,15.22,15.219,15.22h55.805c8.405,0,15.219-6.814,15.219-15.22c0-1.784-0.323-3.489-0.888-5.081h14.558  c8.931,0,16.126-7.195,16.126-16.125v-87.881C540.069,157.815,532.874,150.62,523.943,150.62z M68.972,199.343V185.57  c0-6.385,5.112-11.535,11.497-11.535h67.007c6.385,0,11.535,5.15,11.535,11.535v13.773c0,6.385-5.15,11.535-11.535,11.535H80.469  C74.084,210.878,68.972,205.728,68.972,199.343z M466.84,260.469c-25.216,0-45.684-20.429-45.684-45.645  c0-25.216,20.468-45.645,45.684-45.645s45.645,20.429,45.645,45.645C512.484,240.04,492.056,260.469,466.84,260.469z"
     id="path27" /></svg>