<?xml version="1.0" encoding="UTF-8"?>
<svg width="580" height="580" enable-background="new 0 0 580 580" viewBox="0 0 580 580" xmlns="http://www.w3.org/2000/svg">
 <path d="m551.01 83.98c-3.835-6.77-12.432-9.145-19.2-5.312l-49.409 27.997c-3.418 1.937-5.871 5.211-6.77 9.036l-8.17 34.79h-411.27c-4.353 0-8.46 2.012-11.128 5.451-2.668 3.438-3.598 7.917-2.518 12.133l49.668 193.83c1.419 5.535 6.041 9.666 11.701 10.455l308.02 42.937v16.321h-274.79c-6.052 0-11.199 3.824-13.192 9.183-4.206 2.108-8.082 4.961-11.469 8.503-7.77 8.124-12.05 18.894-12.051 30.326-2e-3 23.772 18.688 43.115 41.664 43.118h4e-3c11.212 0 21.731-4.54 29.617-12.784 7.77-8.124 12.05-18.894 12.051-30.326v-8e-3c-1e-3 -7.151-1.703-13.895-4.694-19.838h172.06c-3.731 6.552-5.727 14.04-5.728 21.838-1e-3 23.773 18.689 43.115 41.665 43.118h5e-3c11.212 0 21.73-4.54 29.616-12.784 7.77-8.124 12.05-18.894 12.051-30.326v-8e-3c-1e-3 -7.966-2.109-15.429-5.766-21.838h3.037c7.78 0 14.087-6.307 14.087-14.087v-43.981l52.701-234.05c0.247-1.098 0.352-2.209 0.335-3.313l8.505-36.219 44.051-24.96c6.769-3.835 9.148-12.431 5.312-19.2zm-413.55 247.5h68.301v26.63l-69.851-9.737c0.977-1.481 1.549-3.254 1.549-5.161v-11.732zm-44.219-79.084h25.437v60.302h-9.984zm44.219 0h68.301v60.302h-68.301zm289.92 60.302h-22.664v-60.302h38.822l-14.21 60.507c-0.629-0.132-1.28-0.205-1.948-0.205zm-41.445 0h-70.303v-60.302h70.303zm-89.084 0h-72.302v-60.302h72.302zm18.781-79.084v-54.946h70.303v54.946zm-18.781 0h-72.302v-54.946h72.302zm-91.085 0h-68.301v-54.946h68.301zm18.782 97.866h72.302v39.326l-72.302-10.078zm91.084 40.683v-40.684h70.303v51.745l-70.396-9.813c0.055-0.409 0.093-0.824 0.093-1.248zm89.084 13.362v-54.046h20.25l-12.651 53.875c-0.117 0.499-0.202 1.004-0.264 1.512l-7.351-1.025c3e-3 -0.107 0.016-0.209 0.016-0.316zm43.142-151.52c-0.844-0.249-1.735-0.388-2.66-0.388h-40.481v-54.946h56.136zm-329.18-55.334v54.946h-30.25l-14.08-54.946zm-5.172 152.81h5.172v11.731c0 0.982 0.152 1.929 0.432 2.819l-1.944-0.271zm50.265 148.15v4e-3c0 6.258-2.311 12.119-6.504 16.504-4.076 4.262-9.461 6.608-15.164 6.608h-2e-3c-11.948-1e-3 -21.667-10.371-21.666-23.116 0-6.259 2.31-12.119 6.504-16.504 1.637-1.712 3.493-3.098 5.488-4.164 1.478 0.526 3.062 0.828 4.72 0.828h16.055c6.324 4.041 10.569 11.421 10.569 19.84zm244.98 2v4e-3c-1e-3 6.258-2.311 12.119-6.504 16.504-4.077 4.262-9.462 6.608-15.163 6.608h-3e-3c-11.948-1e-3 -21.668-10.371-21.667-23.116 1e-3 -6.258 2.311-12.119 6.504-16.504 2.338-2.443 5.113-4.233 8.124-5.336h14.117c8.482 3.136 14.591 11.739 14.592 21.84z" fill="param(fill)" fill-opacity="param(fill-opacity)" stroke="param(outline)" stroke-opacity="param(outline-opacity)" stroke-width="param(outline-width)"/>
</svg>
