<svg enable-background="new 0 0 580 580" height="580" viewBox="0 0 580 580" width="580" xmlns="http://www.w3.org/2000/svg">
<path d="m172.663 187.091l123.525 36.979.829-2.35.004 2.469v-2.481l1.053-2.982-116.603-47.618 6.118-11.1 123.106 36.853.829-2.35.004 2.469v-2.481l1.053-2.982-116.204-47.455 6.016-10.916 119.689 35.831.829-2.35.004 2.469v-2.481l1.053-2.982-112.955-46.128 5.074-9.207 118.884 36.802c2.185.675 4.508-.493 5.271-2.645.762-2.153-.312-4.524-2.433-5.372-10.83-4.328-106.378-42.287-126.027-42.287-.747 0-1.408.046-2.018.142-3.055.477-8.168 1.274-46.394 65.63-26.628 44.831-61.478 107.731-88.783 160.248-48.793 93.841-46.337 100.693-45.289 103.62 1.274 3.558 4.26 11.889 69.87 33.708 31.562 10.496 62.831 19.155 63.143 19.241.378.104.759.154 1.135.154.063 0 .126-.001.188-.004 2.271-.089 4.085-1.959 4.085-4.252 0-1.869-1.205-3.456-2.88-4.028l-120.184-49.9 5.422-9.838 127.715 38.233.829-2.35.004 2.469v-2.481l1.053-2.981-120.587-49.246 6.52-11.829 127.835 38.269.829-2.35.004 2.469v-2.481l1.053-2.981-120.701-49.293 7.369-13.37 127.634 38.209.829-2.35.004 2.469v-2.481l1.053-2.981-120.51-49.215 6.739-12.229 127.78 38.253.829-2.35.004 2.469v-2.481l1.053-2.981-120.649-49.271 6.488-11.773 126.838 37.971.829-2.35.004 2.469v-2.481l1.053-2.981-119.753-48.904 5.399-9.796 126.683 37.924.829-2.35.004 2.469v-2.481l1.053-2.981-119.605-48.844 6.432-11.669 127.677 38.222.829-2.35.004 2.469v-2.481l1.053-2.982-120.551-49.23 5.569-10.104 128.32 38.415.829-2.35.004 2.469v-2.481l1.053-2.982-121.163-49.48z" fill="param(fill)" fill-opacity="param(fill-opacity)" stroke="param(outline)" stroke-opacity="param(outline-opacity)" stroke-width="param(outline-width)"/>
<path d="m523.667 400.297c-9.109-6.432-19.119-9.692-29.751-9.692-13.38 0-24.538 5.158-30.583 8.669l-25.803-94.35c1.729-7.034 3.434-14.063 5.103-21.053 9.842-41.209 11.105-48.818 11.94-53.854.736-4.431 1.141-6.872 7.105-29.833 4.422-17.022 11.622-58.357 16.796-91.771 2.911-18.797 5.323-35.997 6.792-48.432 2.694-22.796 1.704-24.208.657-25.703-.728-1.039-1.854-1.701-3.091-1.818-.237-.022-.464-.033-.678-.033-1.858 0-3.425.809-4.298 2.219-.202.326-.356.68-.458 1.05l-56.748 207.507-57.116-208.848c-.102-.37-.256-.724-.458-1.05-.873-1.411-2.439-2.219-4.297-2.219-.216 0-.443.01-.679.033-1.236.117-2.362.779-3.091 1.818-1.047 1.495-2.037 2.906.657 25.703 1.469 12.435 3.881 29.635 6.792 48.431 5.174 33.414 12.374 74.749 16.796 91.771 5.965 22.961 6.369 25.402 7.105 29.833.835 5.035 2.099 12.645 11.94 53.854 1.781 7.458 3.602 14.961 5.451 22.468l-26.151 95.622c-6.045-3.511-17.204-8.669-30.584-8.669-10.632 0-20.642 3.261-29.75 9.692-25.397 17.931-31.711 47.355-18.261 85.093 7.24 20.315 24.637 33.442 44.317 33.441 11.543 0 22.156-4.583 29.885-12.904 10.591-11.402 29.092-68.827 47.44-136.769 18.229 67.355 36.557 124.098 47.077 135.424 7.729 8.322 18.342 12.905 29.885 12.905 19.682 0 37.077-13.127 44.317-33.442 13.454-37.74 7.139-67.163-18.258-85.093zm-25.36 7.455l.058 3.998c15.128.038 32.045 18.614 32.039 43.492-.027 25.147-17.274 44.652-32.136 44.652-14.442-.035-32.739-22.875-32.711-48.494.028-24.491 17.021-39.65 32.75-39.65zm-155.679 1.345v3.998c15.729 0 32.721 15.159 32.748 39.649.029 25.619-18.268 48.46-32.754 48.495-14.817-.002-32.064-19.507-32.092-44.727-.006-24.805 16.91-43.381 32.039-43.418z" fill="param(fill)" fill-opacity="param(fill-opacity)" stroke="param(outline)" stroke-opacity="param(outline-opacity)" stroke-width="param(outline-width)"/>
</svg>
