<svg enable-background="new 0 0 580 580" height="580" viewBox="0 0 580 580" width="580" xmlns="http://www.w3.org/2000/svg">
<path d="m443.127 67.153c-.076-10.965-9.608-19.554-21.7-19.554l-.179.001c-10.191 0-18.79 6.488-20.891 15.586-14.36-.915-21.136-3.602-28.298-6.441-8.834-3.503-17.969-7.125-41.421-8.282l-77.79-.72c-48.224.538-87.208 28.48-115.871 83.049-.269.512-.158 1.14.27 1.527.428.389 1.063.438 1.546.123l2.563-1.678c.188-.123.34-.293.44-.494 9.638-19.316 45.785-36.26 77.355-36.26 20.795 0 35.284 7.488 40.815 21.088 1.526 7.885 9.78 15.345 18.753 17.111l.232 136.159c-8.047.854-16.265 9.484-16.429 17.656l-4.264 224.286c-.129 6.844 1.612 12.169 5.175 15.83 5.975 6.138 15.568 6.214 21.3 6.259.004 0 .008 0 .012 0l41.061-.062c6.554-.03 15.794-2.78 21.66-8.855 4.101-4.246 6.084-9.527 5.896-15.693l-6.164-221.815c-.216-8.035-8.456-16.616-16.454-17.507l-.179-136.605c12.057-.934 20.348-6.056 26.027-16.053 4.234-7.45 10.999-10.773 21.935-10.773 4.717 0 9.758.598 14.633 1.176 2.118.251 4.297.51 6.422.715l-.037 5.658c.075 10.813 9.862 19.609 21.854 19.609 12.018-.019 21.782-8.835 21.767-19.652z" fill="param(fill)" fill-opacity="param(fill-opacity)" stroke="param(outline)" stroke-opacity="param(outline-opacity)" stroke-width="param(outline-width)"/>
</svg>
