<?xml version="1.0" encoding="utf-8"?>
<!-- Generator: Adobe Illustrator 16.0.0, SVG Export Plug-In . SVG Version: 6.00 Build 0)  -->
<!DOCTYPE svg PUBLIC "-//W3C//DTD SVG 1.1//EN" "http://www.w3.org/Graphics/SVG/1.1/DTD/svg11.dtd">
<svg version="1.1"
	 id="svg2" xmlns:dc="http://purl.org/dc/elements/1.1/" xmlns:cc="http://creativecommons.org/ns#" xmlns:rdf="http://www.w3.org/1999/02/22-rdf-syntax-ns#" xmlns:svg="http://www.w3.org/2000/svg" xmlns:sodipodi="http://sodipodi.sourceforge.net/DTD/sodipodi-0.dtd" xmlns:inkscape="http://www.inkscape.org/namespaces/inkscape" inkscape:output_extension="org.inkscape.output.svg.inkscape" sodipodi:docbase="s:\Data\FacilityIcons" sodipodi:docname="library.svg" inkscape:version="0.46" sodipodi:version="0.32"
	 xmlns="http://www.w3.org/2000/svg" xmlns:xlink="http://www.w3.org/1999/xlink" x="0px" y="0px" width="580px" height="580px"
	 viewBox="0 0 580 580" enable-background="new 0 0 580 580" xml:space="preserve">
<sodipodi:namedview  showgrid="false" inkscape:cy="705.04729" inkscape:cx="-1677.8644" inkscape:zoom="0.23041928" pagecolor="#ffffff" bordercolor="#666666" guidetolerance="10.0" objecttolerance="10.0" gridtolerance="10.0" borderopacity="1.0" id="base" inkscape:current-layer="svg2" inkscape:window-y="-4" inkscape:window-x="-4" inkscape:pageopacity="0.0" inkscape:pageshadow="2" inkscape:window-width="1400" inkscape:window-height="1003">
	</sodipodi:namedview>
<defs>
	
	
		<inkscape:perspective  inkscape:vp_z="580 : 290 : 1" inkscape:vp_y="0 : 1000 : 0" inkscape:vp_x="0 : 290 : 1" sodipodi:type="inkscape:persp3d" id="perspective2441" inkscape:persp3d-origin="290 : 193.33333 : 1">
		</inkscape:perspective>
	
		<inkscape:perspective  inkscape:vp_z="744.09448 : 526.18109 : 1" inkscape:vp_y="0 : 1000 : 0" inkscape:vp_x="0 : 526.18109 : 1" sodipodi:type="inkscape:persp3d" id="perspective2466" inkscape:persp3d-origin="372.04724 : 350.78739 : 1">
		</inkscape:perspective>
	
		<inkscape:perspective  inkscape:vp_z="744.09448 : 526.18109 : 1" inkscape:vp_y="0 : 1000 : 0" inkscape:vp_x="0 : 526.18109 : 1" sodipodi:type="inkscape:persp3d" id="perspective3333" inkscape:persp3d-origin="372.04724 : 350.78739 : 1">
		</inkscape:perspective>
	
		<inkscape:perspective  inkscape:vp_z="744.09448 : 526.18109 : 1" inkscape:vp_y="0 : 1000 : 0" inkscape:vp_x="0 : 526.18109 : 1" sodipodi:type="inkscape:persp3d" id="perspective3401" inkscape:persp3d-origin="372.04724 : 350.78739 : 1">
		</inkscape:perspective>
	
		<inkscape:perspective  inkscape:vp_z="744.09448 : 526.18109 : 1" inkscape:vp_y="0 : 1000 : 0" inkscape:vp_x="0 : 526.18109 : 1" sodipodi:type="inkscape:persp3d" id="perspective3464" inkscape:persp3d-origin="372.04724 : 350.78739 : 1">
		</inkscape:perspective>
</defs>
<path fill="param(fill) #FFF" stroke="param(outline) #000" stroke-width="param(outline-width) 1" d="M523.745,297.838c1.294-0.744,2.188-2.027,2.437-3.498
	c0.249-1.472-0.171-2.978-1.147-4.106L302.343,32.685c-1.544-1.787-4.13-2.247-6.197-1.107L71.516,155.51
	c-1.327,0.732-2.25,2.027-2.51,3.521c-0.26,1.494,0.171,3.024,1.173,4.162L298.68,422.678c0.978,1.109,2.356,1.695,3.755,1.695
	c0.852,0,1.711-0.217,2.491-0.666L523.745,297.838z"/>
<path fill="param(fill) #FFF" stroke="param(outline) #000" stroke-width="param(outline-width) 1" d="M291.281,444.163c-0.012-1.197-0.453-2.352-1.244-3.251
	L65.409,185.3c-1.368-1.557-3.554-2.106-5.496-1.387c-1.942,0.721-3.239,2.565-3.259,4.637l-0.968,96.339
	c-0.013,1.238,0.435,2.436,1.255,3.363l226.565,256.096c0.968,1.094,2.341,1.687,3.746,1.687c0.023,0,0.046,0,0.069,0
	c2.738-0.027,4.951-2.255,4.951-5c0-0.169-0.009-0.336-0.025-0.501L291.281,444.163z"/>
<path opacity="0.66" fill="param(fill) #FFF" stroke="param(outline) #000" stroke-width="param(outline-width) 1" d="M523.947,320.195
	c-2.609-1.67-5.931-1.733-8.603-0.167l-206.25,120.854c-2.408,1.411-3.938,3.946-4.065,6.735l-0.145,3.186
	c-0.137,3.017,1.388,5.866,3.974,7.427c1.309,0.79,2.782,1.185,4.257,1.185c1.439,0,2.879-0.376,4.165-1.13l206.077-120.767
	c2.279-1.336,3.78-3.684,4.035-6.313l0.317-3.272C528.009,324.851,526.555,321.862,523.947,320.195z"/>
<path opacity="0.66" fill="param(fill) #FFF" stroke="param(outline) #000" stroke-width="param(outline-width) 1" d="M523.947,360.195
	c-2.609-1.669-5.931-1.732-8.603-0.167l-206.25,120.854c-2.408,1.411-3.938,3.946-4.065,6.735l-0.145,3.186
	c-0.137,3.017,1.388,5.866,3.974,7.427c1.309,0.79,2.782,1.185,4.257,1.185c1.439,0,2.879-0.376,4.165-1.13l206.077-120.767
	c2.279-1.336,3.78-3.684,4.035-6.313l0.317-3.272C528.009,364.851,526.555,361.862,523.947,360.195z"/>
<path opacity="0.66" fill="param(fill) #FFF" stroke="param(outline) #000" stroke-width="param(outline-width) 1" d="M523.947,400.195
	c-2.609-1.668-5.931-1.732-8.603-0.167l-206.25,120.854c-2.408,1.411-3.938,3.946-4.065,6.735l-0.145,3.186
	c-0.137,3.017,1.388,5.866,3.974,7.427c1.309,0.79,2.782,1.185,4.257,1.185c1.439,0,2.879-0.376,4.165-1.13l206.077-120.767
	c2.279-1.336,3.78-3.684,4.035-6.313l0.317-3.272C528.009,404.851,526.555,401.862,523.947,400.195z"/>
</svg>
