<?xml version="1.0" encoding="UTF-8"?>
<svg width="580" height="580" enable-background="new 0 0 580 580" viewBox="0 0 580 580" xmlns="http://www.w3.org/2000/svg">
 <path d="m82.438 65.406v454.97h411.78v-454.97zm203.56 132.69c55.222 0 100.03 44.841 100.03 100.06s-44.809 100.03-100.03 100.03-100.06-44.81-100.06-100.03 44.841-100.06 100.06-100.06z" fill="param(fill)" opacity=".1"/>
 <path d="m386.03 298.15c6e-3 55.25-44.779 100.04-100.03 100.05s-100.04-44.779-100.05-100.03v-0.021c-6e-3 -55.25 44.779-100.04 100.03-100.05 55.25-5e-3 100.04 44.779 100.05 100.03v0.021z" fill="param(fill)" opacity=".2"/>
 <path d="m494.22 54.929h-411.78c-5.787 0-10.478 4.691-10.478 10.478v454.97c0 5.787 4.691 10.478 10.478 10.478h411.78c5.787 0 10.478-4.69 10.478-10.478v-454.97c-1e-3 -5.786-4.691-10.477-10.478-10.477zm-10.478 454.97h-390.83v-434.01h390.83z" fill="param(fill)" stroke="param(outline)" stroke-miterlimit="10" stroke-width="param(outline-width)"/>
 <path d="m180.98 332.66v20.02c0 5.154 4.178 9.333 9.333 9.333 1.694 0 3.279-0.459 4.648-1.248 19.957 28.911 53.317 47.898 91.034 47.898 57.146 0 104.3-43.601 109.94-99.282 1.364-2.696 2.15-5.735 2.15-8.964 0-2.891-0.63-5.63-1.738-8.108-3.05-58.246-51.381-104.69-110.35-104.69-39.256 0-73.793 20.572-93.411 51.498-0.729-0.183-1.487-0.29-2.272-0.29-5.154 0-9.333 4.178-9.333 9.333v15.483c-3.58 10.866-5.525 22.467-5.525 34.516 1e-3 12.044 1.946 23.643 5.526 34.505zm105.02-124.09c43.346 0 79.595 30.968 87.807 71.947h-16.459c-10.99 0-19.9 8.91-19.9 19.9s8.91 19.9 19.9 19.9h15.429c-9.889 38.695-45.044 67.391-86.776 67.391-41.133 0-75.875-27.858-86.35-65.689v-47.737c10.474-37.844 45.216-65.712 86.349-65.712z" fill="param(fill)" stroke="param(outline)" stroke-miterlimit="10" stroke-width="param(outline-width)"/>
 <path d="m383.48 139.82c11.996 0 21.755-9.759 21.755-21.755s-9.759-21.755-21.755-21.755-21.755 9.759-21.755 21.755 9.758 21.755 21.755 21.755zm0-25c1.789 0 3.245 1.456 3.245 3.245 0 1.79-1.456 3.245-3.245 3.245s-3.245-1.456-3.245-3.245c-1e-3 -1.79 1.456-3.245 3.245-3.245z" fill="param(fill)" stroke="param(outline)" stroke-miterlimit="10" stroke-width="param(outline-width)"/>
 <path d="m440.76 139.82c11.996 0 21.755-9.759 21.755-21.755s-9.759-21.755-21.755-21.755-21.756 9.759-21.756 21.755 9.76 21.755 21.756 21.755zm0-25c1.789 0 3.244 1.456 3.244 3.245 0 1.79-1.455 3.245-3.244 3.245s-3.245-1.456-3.245-3.245c0-1.79 1.456-3.245 3.245-3.245z" fill="param(fill)" stroke="param(outline)" stroke-miterlimit="10" stroke-width="param(outline-width)"/>
 <path d="m326.2 139.82c11.996 0 21.755-9.759 21.755-21.755s-9.759-21.755-21.755-21.755-21.755 9.759-21.755 21.755 9.759 21.755 21.755 21.755zm0-25c1.789 0 3.245 1.456 3.245 3.245 0 1.79-1.456 3.245-3.245 3.245s-3.245-1.456-3.245-3.245c0-1.79 1.456-3.245 3.245-3.245z" fill="param(fill)" stroke="param(outline)" stroke-miterlimit="10" stroke-width="param(outline-width)"/>
</svg>
