<?xml version="1.0" encoding="utf-8"?>
<!-- Generator: Adobe Illustrator 16.0.0, SVG Export Plug-In . SVG Version: 6.00 Build 0)  -->
<!DOCTYPE svg PUBLIC "-//W3C//DTD SVG 1.1//EN" "http://www.w3.org/Graphics/SVG/1.1/DTD/svg11.dtd">
<svg version="1.1"
	 id="svg2" xmlns:dc="http://purl.org/dc/elements/1.1/" xmlns:cc="http://creativecommons.org/ns#" xmlns:rdf="http://www.w3.org/1999/02/22-rdf-syntax-ns#" xmlns:svg="http://www.w3.org/2000/svg" xmlns:sodipodi="http://sodipodi.sourceforge.net/DTD/sodipodi-0.dtd" xmlns:inkscape="http://www.inkscape.org/namespaces/inkscape" inkscape:output_extension="org.inkscape.output.svg.inkscape" sodipodi:docname="shopping_hairdresser.svg" inkscape:version="0.47 r22583" sodipodi:version="0.32"
	 xmlns="http://www.w3.org/2000/svg" xmlns:xlink="http://www.w3.org/1999/xlink" x="0px" y="0px" width="580px" height="580px"
	 viewBox="0 0 580 580" enable-background="new 0 0 580 580" xml:space="preserve">
<sodipodi:namedview  showgrid="false" inkscape:cy="373.2098" inkscape:cx="351.80731" inkscape:zoom="0.92167712" pagecolor="#ffffff" bordercolor="#666666" guidetolerance="10.0" objecttolerance="10.0" gridtolerance="10.0" borderopacity="1.0" id="base" inkscape:window-maximized="1" inkscape:current-layer="svg2" inkscape:window-y="-4" inkscape:window-x="-4" inkscape:pageopacity="0.0" inkscape:pageshadow="2" inkscape:window-width="1280" inkscape:window-height="1005">
	</sodipodi:namedview>
<defs>
	
	
		<inkscape:perspective  inkscape:vp_z="580 : 290 : 1" inkscape:vp_y="0 : 1000 : 0" inkscape:vp_x="0 : 290 : 1" sodipodi:type="inkscape:persp3d" id="perspective2441" inkscape:persp3d-origin="290 : 193.33333 : 1">
		</inkscape:perspective>
	
		<inkscape:perspective  inkscape:vp_z="60 : 30 : 1" inkscape:vp_y="0 : 1000 : 0" inkscape:vp_x="0 : 30 : 1" sodipodi:type="inkscape:persp3d" id="perspective3452" inkscape:persp3d-origin="30 : 20 : 1">
		</inkscape:perspective>
	
		<inkscape:perspective  inkscape:vp_z="744.09448 : 526.18109 : 1" inkscape:vp_y="0 : 1000 : 0" inkscape:vp_x="0 : 526.18109 : 1" sodipodi:type="inkscape:persp3d" id="perspective4471" inkscape:persp3d-origin="372.04724 : 350.78739 : 1">
		</inkscape:perspective>
	
		<inkscape:perspective  inkscape:vp_z="12 : 6 : 1" inkscape:vp_y="0 : 1000 : 0" inkscape:vp_x="0 : 6 : 1" sodipodi:type="inkscape:persp3d" id="perspective4668" inkscape:persp3d-origin="6 : 4 : 1">
		</inkscape:perspective>
	
		<inkscape:perspective  inkscape:vp_z="1 : 0.5 : 1" inkscape:vp_y="0 : 1000 : 0" inkscape:vp_x="0 : 0.5 : 1" sodipodi:type="inkscape:persp3d" id="perspective2918" inkscape:persp3d-origin="0.5 : 0.33333333 : 1">
		</inkscape:perspective>
</defs>
<g id="layer3" transform="matrix(48.14969,0,0,48.14969,-536.27327,-33.306752)" inkscape:label="Layout" display="none">
	<rect id="rect4134" x="1" y="1" display="inline" fill="none" stroke="#757575" stroke-width="0.1" width="10" height="10"/>
	<rect id="rect4136" x="2" y="2" display="inline" fill="none" stroke="#757575" stroke-width="0.1" width="8" height="8"/>
</g>
<path fill="param(fill) #FFF" stroke="param(outline) #000" stroke-width="param(outline-width) 1" d="M36.24-220.405L149.555-175.7c1.069,0.422,2.191,0.629,3.308,0.629
	c1.811,0,3.606-0.545,5.137-1.606c2.475-1.716,3.93-4.554,3.878-7.565l-0.986-56.982c-0.074-4.234-3.083-7.847-7.235-8.682
	l-111.59-22.465c-3.13-0.629-6.361,0.443-8.493,2.821l-13.045,14.555c-2.655,2.962-3.055,7.313-0.984,10.709l12.306,20.187
	C32.873-222.422,34.414-221.125,36.24-220.405z"/>
<path fill="param(fill) #FFF" stroke="param(outline) #000" stroke-width="param(outline-width) 1" d="M172.663,187.091l123.525,36.979l0.829-2.35l0.004,2.469v-2.481
	l1.053-2.982l-116.603-47.618l6.118-11.1l123.106,36.853l0.829-2.35l0.004,2.469v-2.481l1.053-2.982l-116.204-47.455l6.016-10.916
	l119.689,35.831l0.829-2.35l0.004,2.469v-2.481l1.053-2.982l-112.955-46.128l5.074-9.207L334.971,145.1
	c2.185,0.675,4.508-0.493,5.271-2.645c0.762-2.153-0.312-4.524-2.433-5.372c-10.83-4.328-106.378-42.287-126.027-42.287
	c-0.747,0-1.408,0.046-2.018,0.142c-3.055,0.477-8.168,1.274-46.394,65.63c-26.628,44.831-61.478,107.731-88.783,160.248
	c-48.793,93.841-46.337,100.693-45.289,103.62c1.274,3.558,4.26,11.889,69.87,33.708c31.562,10.496,62.831,19.155,63.143,19.241
	c0.378,0.104,0.759,0.154,1.135,0.154c0.063,0,0.126-0.001,0.188-0.004c2.271-0.089,4.085-1.959,4.085-4.252
	c0-1.869-1.205-3.456-2.88-4.028l-120.184-49.9l5.422-9.838l127.715,38.233l0.829-2.35l0.004,2.469v-2.481l1.053-2.981
	L59.091,393.161l6.52-11.829l127.835,38.269l0.829-2.35l0.004,2.469v-2.481l1.053-2.981L74.631,364.965L82,351.595l127.634,38.209
	l0.829-2.35l0.004,2.469v-2.481l1.053-2.981L91.01,335.246l6.739-12.229l127.78,38.253l0.829-2.35l0.004,2.469v-2.481l1.053-2.981
	l-120.649-49.271l6.488-11.773l126.838,37.971l0.829-2.35l0.004,2.469v-2.481l1.053-2.981l-119.753-48.904l5.399-9.796
	l126.683,37.924l0.829-2.35l0.004,2.469v-2.481l1.053-2.981l-119.605-48.844l6.432-11.669l127.677,38.222l0.829-2.35l0.004,2.469
	v-2.481l1.053-2.982l-120.551-49.23l5.569-10.104l128.32,38.415l0.829-2.35l0.004,2.469v-2.481l1.053-2.982l-121.163-49.48
	L172.663,187.091z"/>
<path fill="param(fill) #FFF" stroke="param(outline) #000" stroke-width="param(outline-width) 1" d="M523.667,400.297c-9.109-6.432-19.119-9.692-29.751-9.692
	c-13.38,0-24.538,5.158-30.583,8.669l-25.803-94.35c1.729-7.034,3.434-14.063,5.103-21.053c9.842-41.209,11.105-48.818,11.94-53.854
	c0.736-4.431,1.141-6.872,7.105-29.833c4.422-17.022,11.622-58.357,16.796-91.771c2.911-18.797,5.323-35.997,6.792-48.432
	c2.694-22.796,1.704-24.208,0.657-25.703c-0.728-1.039-1.854-1.701-3.091-1.818c-0.237-0.022-0.464-0.033-0.678-0.033
	c-1.858,0-3.425,0.809-4.298,2.219c-0.202,0.326-0.356,0.68-0.458,1.05L420.65,243.203L363.534,34.355
	c-0.102-0.37-0.256-0.724-0.458-1.05c-0.873-1.411-2.439-2.219-4.297-2.219c-0.216,0-0.443,0.01-0.679,0.033
	c-1.236,0.117-2.362,0.779-3.091,1.818c-1.047,1.495-2.037,2.906,0.657,25.703c1.469,12.435,3.881,29.635,6.792,48.431
	c5.174,33.414,12.374,74.749,16.796,91.771c5.965,22.961,6.369,25.402,7.105,29.833c0.835,5.035,2.099,12.645,11.94,53.854
	c1.781,7.458,3.602,14.961,5.451,22.468l-26.151,95.622c-6.045-3.511-17.204-8.669-30.584-8.669c-10.632,0-20.642,3.261-29.75,9.692
	c-25.397,17.931-31.711,47.355-18.261,85.093c7.24,20.315,24.637,33.442,44.317,33.441c11.543,0,22.156-4.583,29.885-12.904
	c10.591-11.402,29.092-68.827,47.44-136.769c18.229,67.355,36.557,124.098,47.077,135.424c7.729,8.322,18.342,12.905,29.885,12.905
	c19.682,0,37.077-13.127,44.317-33.442C555.379,447.65,549.064,418.227,523.667,400.297z M498.307,407.752l0.058,3.998
	c15.128,0.038,32.045,18.614,32.039,43.492c-0.027,25.147-17.274,44.652-32.136,44.652c-14.442-0.035-32.739-22.875-32.711-48.494
	c0.028-24.491,17.021-39.65,32.75-39.65V407.752L498.307,407.752z M342.628,409.097v3.998c15.729,0,32.721,15.159,32.748,39.649
	c0.029,25.619-18.268,48.46-32.754,48.495c-14.817-0.002-32.064-19.507-32.092-44.727c-0.006-24.805,16.91-43.381,32.039-43.418
	L342.628,409.097L342.628,409.097z"/>
</svg>
