<svg enable-background="new 0 0 580 580" height="580" viewBox="0 0 580 580" width="580" xmlns="http://www.w3.org/2000/svg">
<path d="m523.745 297.838c1.294-.744 2.188-2.027 2.437-3.498.249-1.472-.171-2.978-1.147-4.106l-222.692-257.549c-1.544-1.787-4.13-2.247-6.197-1.107l-224.63 123.932c-1.327.732-2.25 2.027-2.51 3.521-.26 1.494.171 3.024 1.173 4.162l228.501 259.485c.978 1.109 2.356 1.695 3.755 1.695.852 0 1.711-.217 2.491-.666z" fill="param(fill)" fill-opacity="param(fill-opacity)" stroke="param(outline)" stroke-opacity="param(outline-opacity)" stroke-width="param(outline-width)"/>
<path d="m291.281 444.163c-.012-1.197-.453-2.352-1.244-3.251l-224.628-255.612c-1.368-1.557-3.554-2.106-5.496-1.387-1.942.721-3.239 2.565-3.259 4.637l-.968 96.339c-.013 1.238.435 2.436 1.255 3.363l226.565 256.096c.968 1.094 2.341 1.687 3.746 1.687.023 0 .046 0 .069 0 2.738-.027 4.951-2.255 4.951-5 0-.169-.009-.336-.025-.501z" fill="param(fill)" fill-opacity="param(fill-opacity)" stroke="param(outline)" stroke-opacity="param(outline-opacity)" stroke-width="param(outline-width)"/>
<path d="m523.947 320.195c-2.609-1.67-5.931-1.733-8.603-.167l-206.25 120.854c-2.408 1.411-3.938 3.946-4.065 6.735l-.145 3.186c-.137 3.017 1.388 5.866 3.974 7.427 1.309.79 2.782 1.185 4.257 1.185 1.439 0 2.879-.376 4.165-1.13l206.077-120.767c2.279-1.336 3.78-3.684 4.035-6.313l.317-3.272c.3-3.082-1.154-6.071-3.762-7.738z" fill="param(fill)" opacity=".66" stroke="param(outline)" stroke-width="param(outline-width)"/>
<path d="m523.947 360.195c-2.609-1.669-5.931-1.732-8.603-.167l-206.25 120.854c-2.408 1.411-3.938 3.946-4.065 6.735l-.145 3.186c-.137 3.017 1.388 5.866 3.974 7.427 1.309.79 2.782 1.185 4.257 1.185 1.439 0 2.879-.376 4.165-1.13l206.077-120.767c2.279-1.336 3.78-3.684 4.035-6.313l.317-3.272c.3-3.082-1.154-6.071-3.762-7.738z" fill="param(fill)" opacity=".66" stroke="param(outline)" stroke-width="param(outline-width)"/>
<path d="m523.947 400.195c-2.609-1.668-5.931-1.732-8.603-.167l-206.25 120.854c-2.408 1.411-3.938 3.946-4.065 6.735l-.145 3.186c-.137 3.017 1.388 5.866 3.974 7.427 1.309.79 2.782 1.185 4.257 1.185 1.439 0 2.879-.376 4.165-1.13l206.077-120.767c2.279-1.336 3.78-3.684 4.035-6.313l.317-3.272c.3-3.082-1.154-6.071-3.762-7.738z" fill="param(fill)" opacity=".66" stroke="param(outline)" stroke-width="param(outline-width)"/>
</svg>
