<?xml version="1.0" encoding="UTF-8" standalone="no"?>
<!-- Generator: Adobe Illustrator 16.0.0, SVG Export Plug-In . SVG Version: 6.00 Build 0)  -->

<svg
   xmlns:dc="http://purl.org/dc/elements/1.1/"
   xmlns:cc="http://creativecommons.org/ns#"
   xmlns:rdf="http://www.w3.org/1999/02/22-rdf-syntax-ns#"
   xmlns:svg="http://www.w3.org/2000/svg"
   xmlns="http://www.w3.org/2000/svg"
   xmlns:sodipodi="http://sodipodi.sourceforge.net/DTD/sodipodi-0.dtd"
   xmlns:inkscape="http://www.inkscape.org/namespaces/inkscape"
   version="1.1"
   id="svg2"
   inkscape:output_extension="org.inkscape.output.svg.inkscape"
   sodipodi:docname="shopping_gift.svg"
   inkscape:version="0.91 r13725"
   sodipodi:version="0.32"
   x="0px"
   y="0px"
   width="580px"
   height="580px"
   viewBox="0 0 580 580"
   enable-background="new 0 0 580 580"
   xml:space="preserve"><metadata
     id="metadata45"><rdf:RDF><cc:Work
         rdf:about=""><dc:format>image/svg+xml</dc:format><dc:type
           rdf:resource="http://purl.org/dc/dcmitype/StillImage" /></cc:Work></rdf:RDF></metadata><sodipodi:namedview
     showgrid="false"
     inkscape:cy="462.01951"
     inkscape:cx="284.09378"
     inkscape:zoom="0.77715196"
     pagecolor="#ffffff"
     bordercolor="#666666"
     guidetolerance="10.0"
     objecttolerance="10.0"
     gridtolerance="10.0"
     borderopacity="1.0"
     id="base"
     inkscape:window-maximized="1"
     inkscape:current-layer="svg2"
     inkscape:window-y="24"
     inkscape:window-x="65"
     inkscape:pageopacity="0.0"
     inkscape:pageshadow="2"
     inkscape:window-width="1215"
     inkscape:window-height="776"
     inkscape:guide-bbox="true"
     showguides="true" /><defs
     id="defs4" /><g
     id="layer3"
     transform="matrix(48.14969,0,0,48.14969,-536.27327,-33.306752)"
     inkscape:label="Layout"
     display="none"><rect
       id="rect4134"
       x="1"
       y="1"
       display="inline"
       fill="none"
       stroke="#757575"
       stroke-width="0.1"
       width="10"
       height="10" /><rect
       id="rect4136"
       x="2"
       y="2"
       display="inline"
       fill="none"
       stroke="#757575"
       stroke-width="0.1"
       width="8"
       height="8" /></g><g
     id="g3338"
     transform="matrix(1.3973279,-0.2437849,0.2437849,1.3973279,-185.07402,-56.183307)" /><path
     fill="param(fill)" fill-opacity="param(fill-opacity)"
     stroke="param(outline)" stroke-opacity="param(outline-opacity)"
     stroke-width="param(outline-width)"
     d="M488.001,226.381H341.664c-0.792,0-1.539,0.368-2.022,0.996  c-0.063,0.083-0.123,0.168-0.192,0.272c-1.401,1.8-2.874,3.45-4.501,5.044c-0.039,0.038-0.077,0.078-0.114,0.118  c-1.61,1.796-3.357,3.478-5.192,4.999c-1.815,1.506-3.746,2.889-5.737,4.109c-1.904,1.167-3.937,2.221-6.216,3.223  c-0.844,0.371-1.738,0.679-2.686,1.005c-0.338,0.117-0.677,0.233-1.014,0.353c-1.017,0.361-1.696,1.324-1.696,2.403v254.505h-42.021  V247.274c0-1.032-0.622-1.961-1.574-2.356c-2.14-0.886-4.171-1.849-6.037-2.861c-2.206-1.197-4.176-2.412-6.024-3.715  c-1.913-1.35-3.778-2.847-5.543-4.45c-1.792-1.628-3.383-3.27-4.864-5.019c-0.192-0.227-0.363-0.475-0.537-0.721  c-0.192-0.271-0.384-0.541-0.587-0.798c-0.484-0.614-1.222-0.973-2.004-0.973H87.511c-10.778,0-19.547,8.769-19.547,19.548v242.943  c0,10.779,8.769,19.548,19.547,19.548h153.178v0.089h101.897v-0.089h145.414c10.778,0,19.548-8.769,19.548-19.548V245.929  C507.549,235.15,498.779,226.381,488.001,226.381z M502.449,393.833H317.393v-48.707h185.057V393.833z M73.064,345.126h192.108  v48.707H73.064V345.126z"
     id="path25" /><path
     fill="param(fill)" fill-opacity="param(fill-opacity)"
     stroke="param(outline)" stroke-opacity="param(outline-opacity)"
     stroke-width="param(outline-width)"
     d="M292.344,224.417c21.587,0,39.148-17.562,39.148-39.149  c0-21.586-17.562-39.148-39.148-39.148c-21.586,0-39.148,17.562-39.148,39.148C253.195,206.855,270.757,224.417,292.344,224.417z"
     id="path27" /><path
     fill="param(fill)" fill-opacity="param(fill-opacity)"
     stroke="param(outline)" stroke-opacity="param(outline-opacity)"
     stroke-width="param(outline-width)"
     d="M376.68,162.215c3.785,0,7.887-0.166,12.19-0.494l0.192-0.014  l0.162-0.105c34.725-22.464,87.28-45.131,126.416-45.131c3.621,0,7.081,0.207,10.282,0.614l0.418,0.053l0.266-0.326  c3.163-3.881,4.473-8.168,3.892-12.74c-0.784-6.178-5.03-11.808-8.833-14.601c-2.636-2.356-7.407-3.581-14.183-3.64l-0.548-0.002  c-18.909,0-50.53,8.254-82.522,21.541c-34.876,14.484-63.143,32.008-77.55,48.078l-0.645,0.719l0.851,0.456  C353.995,160.334,363.958,162.215,376.68,162.215z"
     id="path29" /><path
     fill="param(fill)" fill-opacity="param(fill-opacity)"
     stroke="param(outline)" stroke-opacity="param(outline-opacity)"
     stroke-width="param(outline-width)"
     d="M528.239,93.269C525.189,89.523,524.108,88.955,528.239,93.269  L528.239,93.269z"
     id="path31" /><path
     fill="param(fill)" fill-opacity="param(fill-opacity)"
     stroke="param(outline)" stroke-opacity="param(outline-opacity)"
     stroke-width="param(outline-width)"
     d="M528.239,93.269c1.295,1.59,2.938,3.747,4.691,6.35  c-0.991-1.998-2.437-4.008-4.383-6.028C528.438,93.477,528.343,93.377,528.239,93.269z"
     id="path33" /><path
     fill="param(fill)" fill-opacity="param(fill-opacity)"
     stroke="param(outline)" stroke-opacity="param(outline-opacity)"
     stroke-width="param(outline-width)"
     d="M532.931,99.619c20.549,41.427-156.088,77.024-184.66,59.881  c9.614,15.123,9.124,30.246,1.815,45.368c-3.17,2.264,145.71-3.459,186.458-50.194C552.772,136.061,541.581,112.467,532.931,99.619z  "
     id="path35" /><path
     fill="param(fill)" fill-opacity="param(fill-opacity)"
     stroke="param(outline)" stroke-opacity="param(outline-opacity)"
     stroke-width="param(outline-width)"
     d="M80.013,84.198c-6.775,0.059-11.546,1.283-14.125,3.594  c-3.859,2.839-8.105,8.468-8.89,14.646c-0.581,4.573,0.729,8.859,3.892,12.741l0.266,0.326l0.417-0.053  c3.202-0.408,6.661-0.614,10.282-0.614c39.137,0,91.692,22.667,126.416,45.131l0.162,0.105l0.192,0.014  c4.304,0.328,8.406,0.494,12.19,0.494c12.722,0,22.685-1.882,29.611-5.592l0.851-0.456l-0.645-0.719  c-14.408-16.07-42.673-33.594-77.55-48.078C131.091,92.449,99.47,84.195,80.56,84.195L80.013,84.198z"
     id="path37" /><path
     fill="param(fill)" fill-opacity="param(fill-opacity)"
     stroke="param(outline)" stroke-opacity="param(outline-opacity)"
     stroke-width="param(outline-width)"
     d="M58.948,91.957c-1.946,2.019-3.391,4.03-4.382,6.027  c1.752-2.602,3.395-4.758,4.689-6.348C59.152,91.744,59.058,91.843,58.948,91.957z"
     id="path39" /><path
     fill="param(fill)" fill-opacity="param(fill-opacity)"
     stroke="param(outline)" stroke-opacity="param(outline-opacity)"
     stroke-width="param(outline-width)"
     d="M237.41,203.234c-7.309-15.123-7.799-30.246,1.814-45.368  c-28.572,17.143-205.211-18.455-184.659-59.882c-8.65,12.848-19.843,36.443-3.614,55.056  C91.7,199.775,240.579,205.499,237.41,203.234z"
     id="path41" /><path
     fill="param(fill)" fill-opacity="param(fill-opacity)"
     stroke="param(outline)" stroke-opacity="param(outline-opacity)"
     stroke-width="param(outline-width)"
     d="M59.255,91.636C63.388,87.321,62.306,87.889,59.255,91.636  L59.255,91.636z"
     id="path43" /></svg>