<svg enable-background="new 0 0 580 580" height="580" viewBox="0 0 580 580" width="580" xmlns="http://www.w3.org/2000/svg">
<path d="m540.531 306.188c6.14-18.828 12.433-41.819 20.688-59.938 4.717-8.309 5.584-16.723 1.781-16.813-.629-.015-3.282.963-6 2.219s-9.8 4.507-15.594 7.125-12.849 6.712-15.688 9.188c-16.914 11.087-35.235 16.465-55.812 15.594-22.999-4.607-52.801-8.219-75.781-23.906-35.322-18.993-38.363-20.479-53.031-25.656-7.975-2.815-14.82-5.475-15.188-5.875s1.624-2.789 4.406-5.344 4.831-5.967 4.531-7.531-8.724-5.854-18.688-9.656c-11.608-4.43-22.649-11.077-30.75-18.438-6.519-5.923-13.262-10.326-15.594-10.25-.155.005-.292.048-.406.094-1.839.727-11.613 11.524-21.719 24.031l-18.406 22.719-13.313 1c-60.887 7.377-110.523 32.322-156.219 72.438-9.473 10.012-45.17 43.256-42.969 51.313.757.807 9.244-.207 18.594 1 17.523 2.262 44.375 5.688 44.219 9.344-.081 1.899-15.148 3.721-42.688 7.219-23.609 3-23.395 7.969.688 16.469 28.827 10.176 66.718 16.521 127.969 12.063.698.008 1.391-.001 2.086-.001 15.831 15.405 36.259 29.554 52.188 30.587 41.814 2.714 28.771-17.727 26.99-43.674 15.829-4.324 31.603-9.006 47.705-12.85 3.011-.152 11.866-2.667 19.625-5.656 46.748-13.361 85.193-26.475 123.438-22.531 35.337 1.81 58.87 25.818 86.75 43.125 1.151.027 8.262 4.625 15.75 10.219 20.376 15.222 25.555 13.063 17.563-7.25-6.564-16.688-17.353-54.699-17.125-60.378zm-456.437 2.031c-5.093 0-9.219-4.125-9.219-9.219s4.125-9.219 9.219-9.219 9.219 4.125 9.219 9.219-4.126 9.219-9.219 9.219z" fill="param(fill)" fill-opacity="param(fill-opacity)" stroke="param(outline)" stroke-opacity="param(outline-opacity)" stroke-width="param(outline-width)"/>
</svg>
