<?xml version="1.0" encoding="utf-8"?>
<!-- Generator: Adobe Illustrator 16.0.0, SVG Export Plug-In . SVG Version: 6.00 Build 0)  -->
<!DOCTYPE svg PUBLIC "-//W3C//DTD SVG 1.1//EN" "http://www.w3.org/Graphics/SVG/1.1/DTD/svg11.dtd">
<svg version="1.1"
	 id="svg2" xmlns:dc="http://purl.org/dc/elements/1.1/" xmlns:cc="http://creativecommons.org/ns#" xmlns:rdf="http://www.w3.org/1999/02/22-rdf-syntax-ns#" xmlns:svg="http://www.w3.org/2000/svg" xmlns:sodipodi="http://sodipodi.sourceforge.net/DTD/sodipodi-0.dtd" xmlns:inkscape="http://www.inkscape.org/namespaces/inkscape" inkscape:output_extension="org.inkscape.output.svg.inkscape" sodipodi:docname="shopping_car.svg" inkscape:version="0.46" sodipodi:version="0.32"
	 xmlns="http://www.w3.org/2000/svg" xmlns:xlink="http://www.w3.org/1999/xlink" x="0px" y="0px" width="580px" height="580px"
	 viewBox="0 0 580 580" enable-background="new 0 0 580 580" xml:space="preserve">
<sodipodi:namedview  showgrid="false" inkscape:cy="399.03428" inkscape:cx="-28.16038" inkscape:zoom="0.70710678" pagecolor="#ffffff" bordercolor="#666666" guidetolerance="10.0" objecttolerance="10.0" gridtolerance="10.0" borderopacity="1.0" id="base" inkscape:current-layer="svg2" inkscape:window-y="18" inkscape:window-x="112" inkscape:pageopacity="0.0" inkscape:pageshadow="2" inkscape:window-width="1280" inkscape:window-height="1005">
	</sodipodi:namedview>
<defs>
	
	
		<inkscape:perspective  inkscape:vp_z="580 : 290 : 1" inkscape:vp_y="0 : 1000 : 0" inkscape:vp_x="0 : 290 : 1" sodipodi:type="inkscape:persp3d" id="perspective12" inkscape:persp3d-origin="290 : 193.33333 : 1">
		</inkscape:perspective>
	
		<inkscape:perspective  inkscape:vp_z="58.232063 : 29.116032 : 1" inkscape:vp_y="0 : 1000 : 0" inkscape:vp_x="0 : 29.116032 : 1" sodipodi:type="inkscape:persp3d" id="perspective6807" inkscape:persp3d-origin="29.116032 : 19.410688 : 1">
		</inkscape:perspective>
	
		<inkscape:perspective  inkscape:vp_z="580 : 290 : 1" inkscape:vp_y="0 : 1000 : 0" inkscape:vp_x="0 : 290 : 1" sodipodi:type="inkscape:persp3d" id="perspective6954" inkscape:persp3d-origin="290 : 193.33333 : 1">
		</inkscape:perspective>
	
		<inkscape:perspective  inkscape:vp_z="357.08099 : 237.7245 : 1" inkscape:vp_y="0 : 1000 : 0" inkscape:vp_x="0 : 237.7245 : 1" sodipodi:type="inkscape:persp3d" id="perspective7597" inkscape:persp3d-origin="178.5405 : 158.483 : 1">
		</inkscape:perspective>
</defs>
<g id="g2319" transform="translate(879.29125,36.805119)">
</g>
<path fill="#FFFB3D" stroke="#1EFF31" stroke-width="4.4444" d="M497.729,233.714l-41.293-106.507
	c-7.771-20.276-24.602-37.598-56.332-37.598h-58.311h-99.295h-59.015c-31.729,0-48.561,17.322-56.332,37.598L85.904,233.714
	c-16.352,2.097-45.338,21.291-45.338,57.651v135.443h40.149v43.315c0,53.29,75.417,52.663,75.417,0v-43.315h135.663h0.044h135.662
	v43.315c0,52.663,75.417,53.29,75.418,0v-43.315h40.148V291.365C543.067,255.005,514.081,235.811,497.729,233.714z M119.633,345.191
	c-19.239,0-34.828-16.096-34.828-35.928c0-19.831,15.589-35.884,34.828-35.884c19.241,0,34.828,16.053,34.828,35.884
	C154.461,329.096,138.874,345.191,119.633,345.191z M291.839,232.615h-0.044h-0.088H128.604l31.09-83.816
	c3.885-11.774,9.708-20.278,23.307-20.404h108.706h0.088h0.044h108.75c13.598,0.126,19.422,8.63,23.307,20.404l31.09,83.816H291.839
	z M464.001,345.191c-19.239,0-34.873-16.096-34.873-35.928c0-19.831,15.634-35.884,34.873-35.884
	c19.24,0,34.828,16.053,34.828,35.884C498.829,329.096,483.241,345.191,464.001,345.191z"/>
</svg>
