<?xml version="1.0" encoding="utf-8"?>
<!-- Generator: Adobe Illustrator 16.0.0, SVG Export Plug-In . SVG Version: 6.00 Build 0)  -->
<!DOCTYPE svg PUBLIC "-//W3C//DTD SVG 1.1//EN" "http://www.w3.org/Graphics/SVG/1.1/DTD/svg11.dtd">
<svg version="1.1"
	 id="svg2" xmlns:dc="http://purl.org/dc/elements/1.1/" xmlns:cc="http://creativecommons.org/ns#" xmlns:rdf="http://www.w3.org/1999/02/22-rdf-syntax-ns#" xmlns:svg="http://www.w3.org/2000/svg" xmlns:sodipodi="http://sodipodi.sourceforge.net/DTD/sodipodi-0.dtd" xmlns:inkscape="http://www.inkscape.org/namespaces/inkscape" inkscape:output_extension="org.inkscape.output.svg.inkscape" sodipodi:docname="shopping_fish.svg" inkscape:version="0.47 r22583" sodipodi:version="0.32"
	 xmlns="http://www.w3.org/2000/svg" xmlns:xlink="http://www.w3.org/1999/xlink" x="0px" y="0px" width="580px" height="580px"
	 viewBox="0 0 580 580" enable-background="new 0 0 580 580" xml:space="preserve">
<sodipodi:namedview  showgrid="false" inkscape:cy="91.815933" inkscape:cx="421.47134" inkscape:zoom="0.92167712" pagecolor="#ffffff" bordercolor="#666666" guidetolerance="10.0" objecttolerance="10.0" gridtolerance="10.0" borderopacity="1.0" id="base" inkscape:window-maximized="1" inkscape:current-layer="svg2" inkscape:window-y="45" inkscape:window-x="0" inkscape:pageopacity="0.0" inkscape:pageshadow="2" inkscape:window-width="1280" inkscape:window-height="1005">
	</sodipodi:namedview>
<defs>
	
	
		<inkscape:perspective  inkscape:vp_z="580 : 290 : 1" inkscape:vp_y="0 : 1000 : 0" inkscape:vp_x="0 : 290 : 1" sodipodi:type="inkscape:persp3d" id="perspective2441" inkscape:persp3d-origin="290 : 193.33333 : 1">
		</inkscape:perspective>
	
		<inkscape:perspective  inkscape:vp_z="60 : 30 : 1" inkscape:vp_y="0 : 1000 : 0" inkscape:vp_x="0 : 30 : 1" sodipodi:type="inkscape:persp3d" id="perspective3452" inkscape:persp3d-origin="30 : 20 : 1">
		</inkscape:perspective>
	
		<inkscape:perspective  inkscape:vp_z="744.09448 : 526.18109 : 1" inkscape:vp_y="0 : 1000 : 0" inkscape:vp_x="0 : 526.18109 : 1" sodipodi:type="inkscape:persp3d" id="perspective4471" inkscape:persp3d-origin="372.04724 : 350.78739 : 1">
		</inkscape:perspective>
	
		<inkscape:perspective  inkscape:vp_z="12 : 6 : 1" inkscape:vp_y="0 : 1000 : 0" inkscape:vp_x="0 : 6 : 1" sodipodi:type="inkscape:persp3d" id="perspective4668" inkscape:persp3d-origin="6 : 4 : 1">
		</inkscape:perspective>
	
		<inkscape:perspective  inkscape:vp_z="1 : 0.5 : 1" inkscape:vp_y="0 : 1000 : 0" inkscape:vp_x="0 : 0.5 : 1" sodipodi:type="inkscape:persp3d" id="perspective2918" inkscape:persp3d-origin="0.5 : 0.33333333 : 1">
		</inkscape:perspective>
	
		<inkscape:perspective  inkscape:vp_z="1 : 0.5 : 1" inkscape:vp_y="0 : 1000 : 0" inkscape:vp_x="0 : 0.5 : 1" sodipodi:type="inkscape:persp3d" id="perspective5519" inkscape:persp3d-origin="0.5 : 0.33333333 : 1">
		</inkscape:perspective>
</defs>
<g id="layer3" transform="matrix(48.14969,0,0,48.14969,-536.27327,-33.306752)" inkscape:label="Layout" display="none">
	<rect id="rect4134" x="1" y="1" display="inline" fill="none" stroke="#757575" stroke-width="0.1" width="10" height="10"/>
	<rect id="rect4136" x="2" y="2" display="inline" fill="none" stroke="#757575" stroke-width="0.1" width="8" height="8"/>
</g>
<path fill="param(fill) #FFF" stroke="param(outline) #000" stroke-width="param(outline-width) 1" d="M31.851-224.099c1.022,1.676,2.563,2.973,4.389,3.694L149.555-175.7
	c1.069,0.422,2.191,0.629,3.308,0.629c1.811,0,3.606-0.545,5.137-1.606c2.475-1.716,3.93-4.554,3.878-7.565l-0.986-56.982
	c-0.074-4.234-3.083-7.847-7.235-8.682l-111.59-22.465c-3.13-0.629-6.361,0.443-8.493,2.821l-13.045,14.555
	c-2.655,2.962-3.055,7.313-0.984,10.709L31.851-224.099z"/>
<path fill="param(fill) #FFF" stroke="param(outline) #000" stroke-width="param(outline-width) 1" d="M540.531,306.188c6.14-18.828,12.433-41.819,20.688-59.938
	c4.717-8.309,5.584-16.723,1.781-16.813c-0.629-0.015-3.282,0.963-6,2.219s-9.8,4.507-15.594,7.125s-12.849,6.712-15.688,9.188
	c-16.914,11.087-35.235,16.465-55.812,15.594c-22.999-4.607-52.801-8.219-75.781-23.906c-35.322-18.993-38.363-20.479-53.031-25.656
	c-7.975-2.815-14.82-5.475-15.188-5.875s1.624-2.789,4.406-5.344s4.831-5.967,4.531-7.531s-8.724-5.854-18.688-9.656
	c-11.608-4.43-22.649-11.077-30.75-18.438c-6.519-5.923-13.262-10.326-15.594-10.25c-0.155,0.005-0.292,0.048-0.406,0.094
	c-1.839,0.727-11.613,11.524-21.719,24.031l-18.406,22.719l-13.313,1c-60.887,7.377-110.523,32.322-156.219,72.438
	c-9.473,10.012-45.17,43.256-42.969,51.313c0.757,0.807,9.244-0.207,18.594,1c17.523,2.262,44.375,5.688,44.219,9.344
	c-0.081,1.899-15.148,3.721-42.688,7.219c-23.609,3-23.395,7.969,0.688,16.469c28.827,10.176,66.718,16.521,127.969,12.063
	c0.698,0.008,1.391-0.001,2.086-0.001c15.831,15.405,36.259,29.554,52.188,30.587c41.814,2.714,28.771-17.727,26.99-43.674
	c15.829-4.324,31.603-9.006,47.705-12.85c3.011-0.152,11.866-2.667,19.625-5.656c46.748-13.361,85.193-26.475,123.438-22.531
	c35.337,1.81,58.87,25.818,86.75,43.125c1.151,0.027,8.262,4.625,15.75,10.219c20.376,15.222,25.555,13.063,17.563-7.25
	C551.092,349.878,540.303,311.867,540.531,306.188z M84.094,308.219c-5.093,0-9.219-4.125-9.219-9.219s4.125-9.219,9.219-9.219
	s9.219,4.125,9.219,9.219S89.187,308.219,84.094,308.219z"/>
</svg>
