<svg enable-background="new 0 0 580 580" height="580" viewBox="0 0 580 580" width="580" xmlns="http://www.w3.org/2000/svg">
<path d="m82.438 65.406v454.969h411.781v-454.969zm203.562 132.688c55.222 0 100.031 44.841 100.031 100.063s-44.809 100.031-100.031 100.031-100.063-44.81-100.063-100.031 44.841-100.063 100.063-100.063z" fill="param(fill)" opacity=".1"/>
<path d="m386.027 298.146c.006 55.25-44.779 100.044-100.029 100.05s-100.044-44.779-100.05-100.029c0-.007 0-.014 0-.021-.006-55.25 44.779-100.044 100.029-100.05 55.25-.005 100.044 44.779 100.05 100.029 0 .006 0 .014 0 .021z" fill="param(fill)" opacity=".2"/>
<path d="m494.219 54.929h-411.781c-5.787 0-10.478 4.691-10.478 10.478v454.969c0 5.787 4.691 10.478 10.478 10.478h411.781c5.787 0 10.478-4.69 10.478-10.478v-454.97c-.001-5.786-4.691-10.477-10.478-10.477zm-10.478 454.969h-390.826v-434.014h390.826z" fill="param(fill)" stroke="param(outline)" stroke-miterlimit="10" stroke-width="param(outline-width)"/>
<path d="m180.985 332.662v20.02c0 5.154 4.178 9.333 9.333 9.333 1.694 0 3.279-.459 4.648-1.248 19.957 28.911 53.317 47.898 91.034 47.898 57.146 0 104.299-43.601 109.942-99.282 1.364-2.696 2.15-5.735 2.15-8.964 0-2.891-.63-5.63-1.738-8.108-3.05-58.246-51.381-104.694-110.354-104.694-39.256 0-73.793 20.572-93.411 51.498-.729-.183-1.487-.29-2.272-.29-5.154 0-9.333 4.178-9.333 9.333v15.483c-3.58 10.866-5.525 22.467-5.525 34.516.001 12.044 1.946 23.643 5.526 34.505zm105.015-124.091c43.346 0 79.595 30.968 87.807 71.947h-16.459c-10.99 0-19.9 8.91-19.9 19.9 0 10.99 8.91 19.9 19.9 19.9h15.429c-9.889 38.695-45.044 67.391-86.776 67.391-41.133 0-75.875-27.858-86.35-65.689v-47.737c10.474-37.844 45.216-65.712 86.349-65.712z" fill="param(fill)" stroke="param(outline)" stroke-miterlimit="10" stroke-width="param(outline-width)"/>
<path d="m383.478 139.82c11.996 0 21.755-9.759 21.755-21.755 0-11.996-9.759-21.755-21.755-21.755s-21.755 9.759-21.755 21.755c0 11.996 9.758 21.755 21.755 21.755zm0-25c1.789 0 3.245 1.456 3.245 3.245 0 1.79-1.456 3.245-3.245 3.245s-3.245-1.456-3.245-3.245c-.001-1.79 1.456-3.245 3.245-3.245z" fill="param(fill)" stroke="param(outline)" stroke-miterlimit="10" stroke-width="param(outline-width)"/>
<path d="m440.755 139.82c11.996 0 21.755-9.759 21.755-21.755 0-11.996-9.759-21.755-21.755-21.755s-21.756 9.759-21.756 21.755c0 11.996 9.76 21.755 21.756 21.755zm0-25c1.789 0 3.244 1.456 3.244 3.245 0 1.79-1.455 3.245-3.244 3.245s-3.245-1.456-3.245-3.245c0-1.79 1.456-3.245 3.245-3.245z" fill="param(fill)" stroke="param(outline)" stroke-miterlimit="10" stroke-width="param(outline-width)"/>
<path d="m326.2 139.82c11.996 0 21.755-9.759 21.755-21.755 0-11.996-9.759-21.755-21.755-21.755s-21.755 9.759-21.755 21.755c0 11.996 9.759 21.755 21.755 21.755zm0-25c1.789 0 3.245 1.456 3.245 3.245 0 1.79-1.456 3.245-3.245 3.245s-3.245-1.456-3.245-3.245c0-1.79 1.456-3.245 3.245-3.245z" fill="param(fill)" stroke="param(outline)" stroke-miterlimit="10" stroke-width="param(outline-width)"/>
</svg>
