<svg enable-background="new 0 0 580 580" height="580" viewBox="0 0 580 580" width="580" xmlns="http://www.w3.org/2000/svg">
<path d="m456.567 260.844c-12.175 0-23.791 2.433-34.395 6.83-.981-3.392-1.977-6.835-2.977-10.292-4.166-14.401-8.411-29.021-11.985-40.967-3.521-11.769-6.78-19.016-7.849-24.232-.832-4.064 4.317-3.716 9.743-8.237 4.098-3.415 7.574-9.183 8.638-15.054.887-5.163-.212-10.35-2.612-14.598-8.342-12.744-16.48-12.503-27.247-12.503-14.157 0-37.525 0-37.525 0l .089 22.993 36.001.073c4.296.009 6.523 6.049-1.873 8.398-3.679 1.019-7.777 5.4-9.148 10.828-1.372 5.429-.347 10.843 1.659 15.858.461 1.153 1.363 4.696 2.686 9.657l-163.439.825-9.651-23.625c10.898-2.493 35.9-8.489 39.362-11.785 4.112-3.745 0-9.379-3.186-9.379h-85.299c1.054 18.815 15.802 22.906 23.781 24.144l9.43 23.084c-1.014.834-1.88 1.86-2.524 3.055l-28.49 52.91c-10.375-4.178-21.697-6.484-33.549-6.484-49.673 0-90.084 40.411-90.084 90.084s40.412 90.084 90.084 90.084c46.716 0 85.236-35.745 89.657-81.321h8.934c2.971 9.21 9.926 16.822 18.993 21.097l-4.382 10.199-16.158.148c-3.462.032-6.243 2.864-6.212 6.327.032 3.442 2.833 6.212 6.269 6.212.019 0 .039 0 .059 0l36.27-.332c3.462-.032 6.243-2.864 6.212-6.327-.032-3.461-2.82-6.234-6.327-6.212l-10.306.095 3.112-7.243c2.665.563 5.433.871 8.278.871 20.615 0 37.387-15.634 37.387-34.85 0-3.963-.724-7.771-2.037-11.323l101.582-68.93c.945 3.273 1.879 6.514 2.794 9.686-20.617 16.522-33.846 41.902-33.846 70.317 0 49.673 40.411 90.085 90.084 90.085s90.084-40.412 90.084-90.085c-.003-49.669-40.414-90.081-90.087-90.081zm-70.929-30.744c1.856 6.271 3.852 13.084 5.891 20.091l-108.144 73.383c-1.154-.829-2.358-1.6-3.612-2.301l4.482-10.432 16.229-.149c3.463-.032 6.244-2.864 6.212-6.327-.031-3.443-2.832-6.212-6.269-6.212-.02 0-.039 0-.059 0l-36.27.333c-3.462.032-6.244 2.864-6.212 6.327.032 3.443 2.833 6.212 6.269 6.212.019 0 .039 0 .059 0l10.234-.094-2.967 6.907c-3.444-.979-7.095-1.509-10.877-1.509-.335 0-.666.016-.998.023l-34.903-85.44zm-185.188 6.459l35.977 88.068c-5.291 4.192-9.319 9.726-11.466 16.036h-9.438c-3.355-25.608-17.508-47.863-37.724-62.038zm-11.261 104.104h-44.796l20.958-38.92c12.197 9.442 20.902 23.174 23.838 38.92zm-62.982 75.851c-35.336 0-64.084-28.748-64.084-64.084s28.748-64.084 64.084-64.084c7.395 0 14.494 1.274 21.108 3.589l-29.146 54.127c-1.713 3.181-1.627 7.028.226 10.13s5.2 5.001 8.813 5.001h62.469c-4.288 31.203-31.108 55.321-63.47 55.321zm330.36-1.501c-35.336 0-64.084-28.748-64.084-64.085 0-16.192 6.049-30.99 15.989-42.283 1.066 3.598 2.023 6.776 2.826 9.405 1.137 3.724 1.712 5.81 2.673 8.175l.4.983.584.892c.417.668 4.521 12.215 15.612 21.729l.092.061.062.093c7.971 6.603 14.846 8.97 19.188 10.349 4.573 1.406 10.831.686 13.86-4.016 2.404-3.448.288-10.428-4.266-13.735-1.792-1.253-6.957-5.354-13.301-10.905-5.657-5.052-6.116-8.919-9.489-14.854.086.191-.848-2.498-1.905-5.962-1.086-3.556-2.5-8.302-4.119-13.83-.393-1.341-.798-2.729-1.215-4.157 8.235-3.858 17.413-6.027 27.092-6.027 35.336 0 64.084 28.748 64.084 64.083.001 35.336-28.747 64.084-64.083 64.084z" fill="param(fill)" fill-opacity="param(fill-opacity)" stroke="param(outline)" stroke-opacity="param(outline-opacity)" stroke-width="param(outline-width)"/>
</svg>
