<?xml version="1.0" encoding="utf-8"?>
<!-- Generator: Adobe Illustrator 16.0.0, SVG Export Plug-In . SVG Version: 6.00 Build 0)  -->
<!DOCTYPE svg PUBLIC "-//W3C//DTD SVG 1.1//EN" "http://www.w3.org/Graphics/SVG/1.1/DTD/svg11.dtd">
<svg version="1.1"
	 id="svg2" xmlns:dc="http://purl.org/dc/elements/1.1/" xmlns:cc="http://creativecommons.org/ns#" xmlns:rdf="http://www.w3.org/1999/02/22-rdf-syntax-ns#" xmlns:svg="http://www.w3.org/2000/svg" xmlns:sodipodi="http://sodipodi.sourceforge.net/DTD/sodipodi-0.dtd" xmlns:inkscape="http://www.inkscape.org/namespaces/inkscape" inkscape:output_extension="org.inkscape.output.svg.inkscape" sodipodi:docname="shopping_alcohol.svg" inkscape:version="0.47 r22583" sodipodi:version="0.32"
	 xmlns="http://www.w3.org/2000/svg" xmlns:xlink="http://www.w3.org/1999/xlink" x="0px" y="0px" width="580px" height="580px"
	 viewBox="0 0 580 580" enable-background="new 0 0 580 580" xml:space="preserve">
<sodipodi:namedview  showgrid="false" inkscape:cy="205.73491" inkscape:cx="294.77108" inkscape:zoom="0.65172414" pagecolor="#ffffff" bordercolor="#666666" guidetolerance="10.0" objecttolerance="10.0" gridtolerance="10.0" borderopacity="1.0" id="base" inkscape:window-maximized="1" inkscape:current-layer="svg2" inkscape:window-y="-4" inkscape:window-x="-4" inkscape:pageopacity="0.0" inkscape:pageshadow="2" inkscape:window-width="1280" inkscape:window-height="1005">
	</sodipodi:namedview>
<defs>
	
	
		<inkscape:perspective  inkscape:vp_z="580 : 290 : 1" inkscape:vp_y="6.1230318e-14 : 1000 : 0" inkscape:vp_x="0 : 290 : 1" sodipodi:type="inkscape:persp3d" id="perspective2441" inkscape:persp3d-origin="290 : 193.33333 : 1">
		</inkscape:perspective>
	
		<inkscape:perspective  inkscape:vp_z="60 : 30 : 1" inkscape:vp_y="0 : 1000 : 0" inkscape:vp_x="0 : 30 : 1" sodipodi:type="inkscape:persp3d" id="perspective3452" inkscape:persp3d-origin="30 : 20 : 1">
		</inkscape:perspective>
	
		<inkscape:perspective  inkscape:vp_z="744.09448 : 526.18109 : 1" inkscape:vp_y="0 : 1000 : 0" inkscape:vp_x="0 : 526.18109 : 1" sodipodi:type="inkscape:persp3d" id="perspective4471" inkscape:persp3d-origin="372.04724 : 350.78739 : 1">
		</inkscape:perspective>
	
		<inkscape:perspective  inkscape:vp_z="12 : 6 : 1" inkscape:vp_y="0 : 1000 : 0" inkscape:vp_x="0 : 6 : 1" sodipodi:type="inkscape:persp3d" id="perspective4668" inkscape:persp3d-origin="6 : 4 : 1">
		</inkscape:perspective>
	
		<inkscape:perspective  inkscape:vp_z="1 : 0.5 : 1" inkscape:vp_y="0 : 1000 : 0" inkscape:vp_x="0 : 0.5 : 1" sodipodi:type="inkscape:persp3d" id="perspective3826" inkscape:persp3d-origin="0.5 : 0.33333333 : 1">
		</inkscape:perspective>
	
		<inkscape:perspective  inkscape:vp_z="1 : 0.5 : 1" inkscape:vp_y="0 : 1000 : 0" inkscape:vp_x="0 : 0.5 : 1" sodipodi:type="inkscape:persp3d" id="perspective3855" inkscape:persp3d-origin="0.5 : 0.33333333 : 1">
		</inkscape:perspective>
	
		<inkscape:perspective  inkscape:vp_z="1 : 0.5 : 1" inkscape:vp_y="0 : 1000 : 0" inkscape:vp_x="0 : 0.5 : 1" sodipodi:type="inkscape:persp3d" id="perspective3909" inkscape:persp3d-origin="0.5 : 0.33333333 : 1">
		</inkscape:perspective>
</defs>
<g id="layer3" transform="matrix(48.14969,0,0,48.14969,-536.27327,-33.306752)" inkscape:label="Layout" display="none">
	<rect id="rect4134" x="1" y="1" display="inline" fill="none" stroke="#757575" stroke-width="0.1" width="10" height="10"/>
	<rect id="rect4136" x="2" y="2" display="inline" fill="none" stroke="#757575" stroke-width="0.1" width="8" height="8"/>
</g>
<g id="g3338" transform="matrix(1.3973279,-0.2437849,0.2437849,1.3973279,-185.07402,-56.183307)">
</g>
<path fill="#FFFB3D" stroke="#1EFF31" stroke-width="4.4444" d="M152.863-175.071c1.811,0,3.606-0.545,5.137-1.606
	c2.475-1.716,3.93-4.554,3.878-7.565l-0.986-56.982c-0.074-4.234-3.083-7.847-7.235-8.682l-111.59-22.465
	c-3.13-0.629-6.361,0.443-8.493,2.821l-13.045,14.555c-2.655,2.962-3.055,7.313-0.984,10.709l12.306,20.187
	c1.022,1.676,2.563,2.973,4.389,3.694L149.555-175.7C150.624-175.278,151.746-175.071,152.863-175.071z"/>
<path fill="#FFFB3D" stroke="#1EFF31" stroke-width="4.4444" d="M244.897,142.712c-5.551-3.063-12.103-6.376-18.884-9.163V29.944
	c0-4.225-3.425-7.649-7.649-7.649h-37.893c-4.225,0-7.649,3.425-7.649,7.649v103.23c-17.422,6.57-35.835,17.419-44.24,27.374
	c-6.854,8.117-8.216,15.891-7.848,21.666v333.124c0,7.179,3.334,13.95,9.025,18.327c18.134,13.947,55.303,15.453,70.441,15.453
	c16.654,0,47.799-1.753,69.28-13.491c7.418-4.055,12.033-11.835,12.033-20.289V181.148c0-2.989-0.579-5.949-1.706-8.717
	C278.163,168.397,274.317,158.949,244.897,142.712z"/>
<path fill="#FFFB3D" stroke="#1EFF31" stroke-width="4.4444" d="M413.399,503.696v-86.789c15.773-3.765,30.224-16.017,41.466-35.442
	c13.289-22.961,20.607-53.407,20.607-85.73c0-1.683-0.021-3.354-0.061-5.021c-0.044-1.819-1.29-3.387-3.052-3.84
	c-21.372-5.492-44.704-8.277-69.35-8.277c-24.875,0-50.238,3.022-69.587,8.292c-1.735,0.473-2.953,2.029-2.995,3.827
	c-0.039,1.666-0.061,3.337-0.061,5.019c0,32.323,7.318,62.77,20.607,85.73c10.516,18.17,23.838,30.061,38.424,34.604v87.57
	c-30.498,1.96-53.641,11.522-53.618,23.026c0,0.012,0,0.022,0,0.034c0.026,12.914,29.228,23.376,65.224,23.366
	c35.996-0.009,65.156-10.485,65.13-23.4c0-0.011,0-0.022,0-0.033C466.111,515.251,443.424,505.779,413.399,503.696z"/>
</svg>
