<?xml version="1.0" encoding="utf-8"?>
<!-- Generator: Adobe Illustrator 16.0.0, SVG Export Plug-In . SVG Version: 6.00 Build 0)  -->
<!DOCTYPE svg PUBLIC "-//W3C//DTD SVG 1.1//EN" "http://www.w3.org/Graphics/SVG/1.1/DTD/svg11.dtd">
<svg version="1.1"
	 id="svg2" xmlns:dc="http://purl.org/dc/elements/1.1/" xmlns:cc="http://creativecommons.org/ns#" xmlns:rdf="http://www.w3.org/1999/02/22-rdf-syntax-ns#" xmlns:svg="http://www.w3.org/2000/svg" xmlns:sodipodi="http://sodipodi.sourceforge.net/DTD/sodipodi-0.dtd" xmlns:inkscape="http://www.inkscape.org/namespaces/inkscape" inkscape:output_extension="org.inkscape.output.svg.inkscape" sodipodi:docname="tourist_cinema2.svg" inkscape:version="0.47 r22583" sodipodi:version="0.32"
	 xmlns="http://www.w3.org/2000/svg" xmlns:xlink="http://www.w3.org/1999/xlink" x="0px" y="0px" width="580px" height="580px"
	 viewBox="0 0 580 580" enable-background="new 0 0 580 580" xml:space="preserve">
<path id="rect3445" opacity="0.3317" fill="#FFFB3D" stroke="#1EFF31" stroke-width="4.4444" enable-background="new    " d="
	M312.377,199.067c-1.793,1.206-3.659,2.287-5.607,3.199c-15.809,7.053-36.242,3.473-51.85,10.093
	c-15.902,6.547-26.49,22.882-41.229,29.256c-13.962,5.842-30.525,1.798-44.33,7.388l36.183,75.201l135.627-65.273L312.377,199.067z"
	/>
<rect id="rect3447" x="235.544" y="297.269" transform="matrix(-0.9011 0.4336 -0.4336 -0.9011 751.0414 567.5414)" opacity="0.3317" fill="#FFFB3D" stroke="#1EFF31" stroke-width="4.4444" enable-background="new    " width="150.514" height="144.295"/>
<path id="rect3449" opacity="0.3317" fill="#FFFB3D" stroke="#1EFF31" stroke-width="4.4444" enable-background="new    " d="
	M416.076,414.646l-135.627,65.241l30.212,62.8c12.749-3.27,27.175-0.647,39.58-5.838c14.739-6.374,25.359-22.71,41.262-29.256
	c15.608-6.621,36.041-3.041,51.85-10.094c3.444-1.611,6.583-3.771,9.599-6.2L416.076,414.646z"/>
<sodipodi:namedview  showgrid="false" inkscape:cy="253.54186" inkscape:cx="60.568354" inkscape:zoom="0.79655172" pagecolor="#ffffff" bordercolor="#666666" guidetolerance="10.0" objecttolerance="10.0" gridtolerance="10.0" borderopacity="1.0" id="base" inkscape:window-maximized="0" inkscape:current-layer="svg2" inkscape:window-y="-4" inkscape:window-x="-4" inkscape:pageopacity="0.0" inkscape:pageshadow="2" inkscape:window-width="1400" inkscape:window-height="1003">
	</sodipodi:namedview>
<defs>
	
	
		<inkscape:perspective  inkscape:vp_z="580 : 290 : 1" inkscape:vp_y="0 : 1000 : 0" inkscape:vp_x="0 : 290 : 1" sodipodi:type="inkscape:persp3d" id="perspective12" inkscape:persp3d-origin="290 : 193.33333 : 1">
		</inkscape:perspective>
	
		<inkscape:perspective  inkscape:vp_z="32 : 16 : 1" inkscape:vp_y="0 : 1000 : 0" inkscape:vp_x="0 : 16 : 1" sodipodi:type="inkscape:persp3d" id="perspective2539" inkscape:persp3d-origin="16 : 10.666667 : 1">
		</inkscape:perspective>
	
		<inkscape:perspective  inkscape:vp_z="1 : 0.5 : 1" inkscape:vp_y="0 : 1000 : 0" inkscape:vp_x="0 : 0.5 : 1" sodipodi:type="inkscape:persp3d" id="perspective18697" inkscape:persp3d-origin="0.5 : 0.33333333 : 1">
		</inkscape:perspective>
	
		<inkscape:perspective  inkscape:vp_z="1 : 0.5 : 1" inkscape:vp_y="0 : 1000 : 0" inkscape:vp_x="0 : 0.5 : 1" sodipodi:type="inkscape:persp3d" id="perspective18782" inkscape:persp3d-origin="0.5 : 0.33333333 : 1">
		</inkscape:perspective>
</defs>
<path id="rect3391" fill="#FFFB3D" stroke="#1EFF31" stroke-width="4.4444" d="M340.247,174.66
	c-2.757,1.979-5.358,4.195-7.883,6.531l9.137,18.999l-14.579,7.025l-6.86-14.282c-2.475,2.232-4.996,4.326-7.685,6.135
	l28.794,59.864l-135.627,65.273l-36.183-75.201c-0.626,0.253-1.233,0.53-1.847,0.825c-6.093,2.977-11.612,7.969-16.987,13.292
	l11.775-5.673l11.346,23.517l-14.579,7.025l-10.852-22.561c-1.934,1.945-3.863,3.921-5.805,5.805l140.278,291.539
	c2.917-2.932,5.85-5.898,8.839-8.642l-3.562,1.715l-11.346-23.517l14.578-7.025l10.192,21.208c0.881-0.526,1.799-1.009,2.704-1.451
	c2.123-1.02,4.315-1.765,6.563-2.342l-30.212-62.833l135.627-65.241l36.875,76.653c9.419-7.59,17.432-17.975,28.068-24.111
	L340.247,174.66z M355.947,230.27l11.313,23.517l-14.546,6.992l-11.313-23.517L355.947,230.27z M347.339,271.795l62.569,130.02
	l-135.627,65.24l-62.569-130.02L347.339,271.795z M381.74,283.834l11.313,23.518l-14.579,6.992l-11.313-23.518L381.74,283.834z
	 M188.096,311.012l11.313,23.518l-14.545,7.025l-11.346-23.517L188.096,311.012z M407.5,337.398l11.313,23.518l-14.546,7.025
	l-11.313-23.55L407.5,337.398z M213.856,364.61l11.346,23.517l-14.579,6.992l-11.313-23.517L213.856,364.61z M433.293,390.964
	l11.313,23.517l-14.578,7.025l-11.313-23.517L433.293,390.964z M239.648,418.175l11.313,23.518l-14.545,6.992l-11.346-23.518
	L239.648,418.175z M459.053,444.528l11.313,23.55l-14.546,6.993l-11.313-23.518L459.053,444.528z M265.441,471.739l11.313,23.518
	l-14.579,7.025l-11.313-23.55L265.441,471.739z"/>
<path fill="#FFFB3D" stroke="#1EFF31" stroke-width="4.4444" d="M450.357,93.164c-1.843-1.57-3.583-3.053-4.503-4.455
	c-0.244-0.372-0.537-0.709-0.871-1.004c-1.593-1.406-3.203-3.196-4.908-5.091c-4.932-5.482-11.069-12.305-20.239-12.305
	c-1.219,0-2.465,0.124-3.712,0.369c-3.89,0.301-8.053,0.441-13.065,0.441c-4.085,0-8.283-0.095-12.343-0.188
	c-4.124-0.094-8.388-0.191-12.605-0.191c-3.021,0-5.737,0.049-8.303,0.15h-0.892c-9.264,0-18.693,0.055-27.813,0.108
	c-9.124,0.053-18.558,0.108-27.827,0.108c-22.206,0-39.277-0.33-55.011-1.066c-3.2-3.006-5.974-6.594-8.891-10.368
	c-5.231-6.768-10.639-13.763-19.117-18.067c-14.107-9.333-31.116-14.259-47.729-13.763l-0.35-0.001
	c-23.413,0-46.058,11.442-62.129,31.393c-16.1,19.985-22.481,44.598-17.518,67.549c3.186,18.481,13.118,35.831,27.976,48.862
	c15.117,13.26,33.727,20.562,52.401,20.562c2.306,0,4.635-0.113,6.926-0.335c27.083-1.704,52.583-17.381,66.825-41.016
	c2.239-1.494,5.04-2.167,8.936-2.167c2.277,0,4.662,0.215,7.186,0.443c2.633,0.238,5.356,0.483,8.084,0.483
	c4.4,0,10.903-0.562,16.554-5.42c0.117-0.1,0.229-0.206,0.336-0.316c2.121-2.195,4.142-4.558,6.095-6.843
	c5.101-5.966,9.939-11.625,16.263-14.285c3.201,1.394,5.75,4.225,8.645,7.439c2.706,3.005,5.504,6.112,9.213,8.371
	c1.633,0.995,3.688,0.971,5.298-0.061c3.272-2.096,5.831-4.986,8.306-7.781c3.698-4.177,6.284-6.914,9.704-7.461
	c2.713,1.896,5.125,4.418,7.658,7.069c2.882,3.015,5.862,6.132,9.557,8.595c1.653,1.101,3.799,1.12,5.468,0.051
	c3.383-2.165,6.053-5.17,8.636-8.077c3.956-4.453,6.764-7.339,10.335-7.894c2.275,1.563,4.325,3.763,6.477,6.072
	c3.396,3.643,6.906,7.409,11.991,9.594c1.796,0.772,3.873,0.426,5.322-0.881c9.676-8.727,21.717-19.587,31.237-31.825
	c0.688-0.885,1.06-1.975,1.054-3.095C458.979,100.509,454.199,96.437,450.357,93.164z M151.286,89.68
	c10.214-0.261,17.13,7.901,19.912,14.868c2.803,7.022,3.277,16.92-3.801,23.643c-0.089,0.084-0.175,0.172-0.257,0.263
	c-3.995,4.396-10.144,6.917-16.87,6.917c-8.847,0-19.06-4.521-21.936-14.619c-0.028-0.099-0.06-0.198-0.094-0.295
	c-2.383-6.751-1.018-14.967,3.563-21.441c4.251-6.009,10.429-9.456,16.948-9.456c0.632,0,1.275,0.033,1.913,0.096
	C150.87,89.676,151.076,89.685,151.286,89.68z"/>
</svg>
