<svg enable-background="new 0 0 580 580" height="580" viewBox="0 0 580 580" width="580" xmlns="http://www.w3.org/2000/svg">
<path d="m312.377 199.067c-1.793 1.206-3.659 2.287-5.607 3.199-15.809 7.053-36.242 3.473-51.85 10.093-15.902 6.547-26.49 22.882-41.229 29.256-13.962 5.842-30.525 1.798-44.33 7.388l36.183 75.201 135.627-65.273z" fill="param(fill)" opacity=".3317" stroke="param(outline)" stroke-width="param(outline-width)"/>
<path d="m235.544 297.269h150.514v144.295h-150.514z" fill="param(fill)" opacity=".3317" stroke="param(outline)" stroke-width="param(outline-width)" transform="matrix(-.9011 .4336 -.4336 -.9011 751.0414 567.5414)"/>
<path d="m416.076 414.646l-135.627 65.241 30.212 62.8c12.749-3.27 27.175-.647 39.58-5.838 14.739-6.374 25.359-22.71 41.262-29.256 15.608-6.621 36.041-3.041 51.85-10.094 3.444-1.611 6.583-3.771 9.599-6.2z" fill="param(fill)" opacity=".3317" stroke="param(outline)" stroke-width="param(outline-width)"/>
<path d="m340.247 174.66c-2.757 1.979-5.358 4.195-7.883 6.531l9.137 18.999-14.579 7.025-6.86-14.282c-2.475 2.232-4.996 4.326-7.685 6.135l28.794 59.864-135.627 65.273-36.183-75.201c-.626.253-1.233.53-1.847.825-6.093 2.977-11.612 7.969-16.987 13.292l11.775-5.673 11.346 23.517-14.579 7.025-10.852-22.561c-1.934 1.945-3.863 3.921-5.805 5.805l140.278 291.539c2.917-2.932 5.85-5.898 8.839-8.642l-3.562 1.715-11.346-23.517 14.578-7.025 10.192 21.208c.881-.526 1.799-1.009 2.704-1.451 2.123-1.02 4.315-1.765 6.563-2.342l-30.212-62.833 135.627-65.241 36.875 76.653c9.419-7.59 17.432-17.975 28.068-24.111zm15.7 55.61l11.313 23.517-14.546 6.992-11.313-23.517zm-8.608 41.525l62.569 130.02-135.627 65.24-62.569-130.02zm34.401 12.039l11.313 23.518-14.579 6.992-11.313-23.518zm-193.644 27.178l11.313 23.518-14.545 7.025-11.346-23.517zm219.404 26.386l11.313 23.518-14.546 7.025-11.313-23.55zm-193.644 27.212l11.346 23.517-14.579 6.992-11.313-23.517zm219.437 26.354l11.313 23.517-14.578 7.025-11.313-23.517zm-193.645 27.211l11.313 23.518-14.545 6.992-11.346-23.518zm219.405 26.353l11.313 23.55-14.546 6.993-11.313-23.518zm-193.612 27.211l11.313 23.518-14.579 7.025-11.313-23.55z" fill="param(fill)" fill-opacity="param(fill-opacity)" stroke="param(outline)" stroke-opacity="param(outline-opacity)" stroke-width="param(outline-width)"/>
<path d="m450.357 93.164c-1.843-1.57-3.583-3.053-4.503-4.455-.244-.372-.537-.709-.871-1.004-1.593-1.406-3.203-3.196-4.908-5.091-4.932-5.482-11.069-12.305-20.239-12.305-1.219 0-2.465.124-3.712.369-3.89.301-8.053.441-13.065.441-4.085 0-8.283-.095-12.343-.188-4.124-.094-8.388-.191-12.605-.191-3.021 0-5.737.049-8.303.15h-.892c-9.264 0-18.693.055-27.813.108-9.124.053-18.558.108-27.827.108-22.206 0-39.277-.33-55.011-1.066-3.2-3.006-5.974-6.594-8.891-10.368-5.231-6.768-10.639-13.763-19.117-18.067-14.107-9.333-31.116-14.259-47.729-13.763l-.35-.001c-23.413 0-46.058 11.442-62.129 31.393-16.1 19.985-22.481 44.598-17.518 67.549 3.186 18.481 13.118 35.831 27.976 48.862 15.117 13.26 33.727 20.562 52.401 20.562 2.306 0 4.635-.113 6.926-.335 27.083-1.704 52.583-17.381 66.825-41.016 2.239-1.494 5.04-2.167 8.936-2.167 2.277 0 4.662.215 7.186.443 2.633.238 5.356.483 8.084.483 4.4 0 10.903-.562 16.554-5.42.117-.1.229-.206.336-.316 2.121-2.195 4.142-4.558 6.095-6.843 5.101-5.966 9.939-11.625 16.263-14.285 3.201 1.394 5.75 4.225 8.645 7.439 2.706 3.005 5.504 6.112 9.213 8.371 1.633.995 3.688.971 5.298-.061 3.272-2.096 5.831-4.986 8.306-7.781 3.698-4.177 6.284-6.914 9.704-7.461 2.713 1.896 5.125 4.418 7.658 7.069 2.882 3.015 5.862 6.132 9.557 8.595 1.653 1.101 3.799 1.12 5.468.051 3.383-2.165 6.053-5.17 8.636-8.077 3.956-4.453 6.764-7.339 10.335-7.894 2.275 1.563 4.325 3.763 6.477 6.072 3.396 3.643 6.906 7.409 11.991 9.594 1.796.772 3.873.426 5.322-.881 9.676-8.727 21.717-19.587 31.237-31.825.688-.885 1.06-1.975 1.054-3.095-.035-6.358-4.815-10.43-8.657-13.703zm-299.071-3.484c10.214-.261 17.13 7.901 19.912 14.868 2.803 7.022 3.277 16.92-3.801 23.643-.089.084-.175.172-.257.263-3.995 4.396-10.144 6.917-16.87 6.917-8.847 0-19.06-4.521-21.936-14.619-.028-.099-.06-.198-.094-.295-2.383-6.751-1.018-14.967 3.563-21.441 4.251-6.009 10.429-9.456 16.948-9.456.632 0 1.275.033 1.913.096.206.02.412.029.622.024z" fill="param(fill)" fill-opacity="param(fill-opacity)" stroke="param(outline)" stroke-opacity="param(outline-opacity)" stroke-width="param(outline-width)"/>
</svg>
