<svg enable-background="new 0 0 580 580" height="580" viewBox="0 0 580 580" width="580" xmlns="http://www.w3.org/2000/svg">
<path d="m417.956 109.62l-76.45-50.096h-17.305-69.289-5.682l-76.45 50.096 60.893 113.026 61.694-7.403 61.696 7.403z" fill="param(fill)" opacity=".33" stroke="param(outline)" stroke-width="param(outline-width)"/>
<path d="m362.153 218.065l58.812-109.199-76.728-50.284-.159-1.335h-1.878-93.663-.766l-.049.534-77.949 51.084 58.746 109.079-1.078 7.786 4.95-.597 0 0 62.978-7.592 62.978 7.592v0l4.628.558zm-25.622-86.791l8.165 75.905-48.359-5.83h-.001l-.968-.117-.968.117h-.001l-48.037 5.791 10.507-75.866zm-141.169-9.044l45.378 7.471-8.46 61.08zm157.24 7.042l42.773-7.042-36.284 67.371zm35.901-22.32l-37.747 6.214-4.01-33.58zm-58.798-33.513l4.973 41.642h-75.988l3.849-41.642zm-87.132 40.154l-40.339-6.641 43.587-28.565z" fill="param(fill)" opacity=".66" stroke="param(outline)" stroke-width="param(outline-width)"/>
<path d="m295.114 509.804c-90.733 0-164.551-73.816-164.551-164.55 0-90.734 73.817-164.552 164.551-164.552s164.551 73.817 164.551 164.552c0 90.733-73.817 164.55-164.551 164.55zm0-268.715c-57.436 0-104.164 46.728-104.164 104.165 0 57.436 46.728 104.163 104.164 104.163 57.437 0 104.164-46.728 104.164-104.163 0-57.437-46.727-104.165-104.164-104.165z" fill="param(fill)" fill-opacity="param(fill-opacity)" stroke="param(outline)" stroke-opacity="param(outline-opacity)" stroke-width="param(outline-width)"/>
</svg>
