<svg enable-background="new 0 0 580 580" height="580" viewBox="0 0 580 580" width="580" xmlns="http://www.w3.org/2000/svg">
<path d="m204.732 139.377h172.625c.927 0 1.78-.503 2.23-1.313.449-.811.423-1.801-.067-2.587l-23.313-37.328c-.466-.746-1.283-1.199-2.163-1.199h-123.738c-.841 0-1.628.415-2.104 1.108l-25.574 37.328c-.535.781-.594 1.793-.152 2.63s1.31 1.361 2.256 1.361zm110.631-32.869v24.146h-46.77v-24.146z" fill="param(fill)" fill-opacity="param(fill-opacity)" stroke="param(outline)" stroke-opacity="param(outline-opacity)" stroke-width="param(outline-width)"/>
<path d="m428.7 139.131h68.214c.842 0 1.629-.415 2.104-1.109.475-.694.577-1.579.272-2.363l-8.263-21.295c-.38-.981-1.324-1.627-2.377-1.627h-50.9c-1.022 0-1.947.611-2.347 1.553l-9.05 21.295c-.335.788-.252 1.691.22 2.404.473.713 1.272 1.142 2.127 1.142z" fill="param(fill)" fill-opacity="param(fill-opacity)" stroke="param(outline)" stroke-opacity="param(outline-opacity)" stroke-width="param(outline-width)"/>
<path d="m101.108 138.983h45.886c.777 0 1.512-.354 1.996-.963.483-.608.664-1.404.488-2.162l-3.197-13.82c-.268-1.156-1.297-1.975-2.484-1.975h-38.263c-1.109 0-2.09.716-2.429 1.772l-4.426 13.82c-.248.776-.111 1.623.369 2.281.481.659 1.246 1.047 2.06 1.047z" fill="param(fill)" fill-opacity="param(fill-opacity)" stroke="param(outline)" stroke-opacity="param(outline-opacity)" stroke-width="param(outline-width)"/>
<path d="m504.813 148.844h-426.563c-24.651 0-44.5 19.849-44.5 44.5v237.813c0 24.651 19.849 44.5 44.5 44.5h426.563c24.651 0 44.5-19.849 44.5-44.5v-237.813c0-24.652-19.849-44.5-44.5-44.5zm-166.313 279.25c-65.251 0-118.156-52.904-118.156-118.156 0-65.251 52.905-118.125 118.156-118.125 65.251 0 118.156 52.874 118.156 118.125 0 65.252-52.905 118.156-118.156 118.156z" fill="param(fill)" fill-opacity="param(fill-opacity)" stroke="param(outline)" stroke-opacity="param(outline-opacity)" stroke-width="param(outline-width)"/>
<path d="m338.475 239.343c-38.981.012-70.572 31.623-70.559 70.604 0 .015 0 .029 0 .045.012 38.98 31.623 70.572 70.604 70.559 38.981-.012 70.572-31.623 70.56-70.604 0-.016 0-.03 0-.045-.013-38.981-31.624-70.572-70.605-70.559z" fill="param(fill)" fill-opacity="param(fill-opacity)" stroke="param(outline)" stroke-opacity="param(outline-opacity)" stroke-width="param(outline-width)"/>
</svg>
