<?xml version="1.0" encoding="utf-8"?>
<!-- Generator: Adobe Illustrator 16.0.0, SVG Export Plug-In . SVG Version: 6.00 Build 0)  -->
<!DOCTYPE svg PUBLIC "-//W3C//DTD SVG 1.1//EN" "http://www.w3.org/Graphics/SVG/1.1/DTD/svg11.dtd">
<svg version="1.1"
	 id="svg2" xmlns:dc="http://purl.org/dc/elements/1.1/" xmlns:cc="http://creativecommons.org/ns#" xmlns:rdf="http://www.w3.org/1999/02/22-rdf-syntax-ns#" xmlns:svg="http://www.w3.org/2000/svg" xmlns:sodipodi="http://sodipodi.sourceforge.net/DTD/sodipodi-0.dtd" xmlns:inkscape="http://www.inkscape.org/namespaces/inkscape" inkscape:output_extension="org.inkscape.output.svg.inkscape" sodipodi:docbase="s:\Data\FacilityIcons" sodipodi:docname="shopping_bakery.svg" inkscape:version="0.46" sodipodi:version="0.32"
	 xmlns="http://www.w3.org/2000/svg" xmlns:xlink="http://www.w3.org/1999/xlink" x="0px" y="0px" width="580px" height="580px"
	 viewBox="0 0 580 580" enable-background="new 0 0 580 580" xml:space="preserve">
<sodipodi:namedview  showgrid="false" inkscape:cy="668.15284" inkscape:cx="267.33891" inkscape:zoom="0.32586207" pagecolor="#ffffff" bordercolor="#666666" guidetolerance="10.0" objecttolerance="10.0" gridtolerance="10.0" borderopacity="1.0" id="base" inkscape:current-layer="svg2" inkscape:window-y="1" inkscape:window-x="1" inkscape:pageopacity="0.0" inkscape:pageshadow="2" inkscape:window-width="1014" inkscape:window-height="686">
	</sodipodi:namedview>
<defs>
	
	
		<inkscape:perspective  inkscape:vp_z="580 : 290 : 1" inkscape:vp_y="6.1230318e-14 : 1000 : 0" inkscape:vp_x="0 : 290 : 1" sodipodi:type="inkscape:persp3d" id="perspective2441" inkscape:persp3d-origin="290 : 193.33333 : 1">
		</inkscape:perspective>
	
		<inkscape:perspective  inkscape:vp_z="60 : 30 : 1" inkscape:vp_y="0 : 1000 : 0" inkscape:vp_x="0 : 30 : 1" sodipodi:type="inkscape:persp3d" id="perspective3452" inkscape:persp3d-origin="30 : 20 : 1">
		</inkscape:perspective>
	
		<inkscape:perspective  inkscape:vp_z="744.09448 : 526.18109 : 1" inkscape:vp_y="0 : 1000 : 0" inkscape:vp_x="0 : 526.18109 : 1" sodipodi:type="inkscape:persp3d" id="perspective4471" inkscape:persp3d-origin="372.04724 : 350.78739 : 1">
		</inkscape:perspective>
	
		<inkscape:perspective  inkscape:vp_z="12 : 6 : 1" inkscape:vp_y="0 : 1000 : 0" inkscape:vp_x="0 : 6 : 1" sodipodi:type="inkscape:persp3d" id="perspective4668" inkscape:persp3d-origin="6 : 4 : 1">
		</inkscape:perspective>
	
		<inkscape:perspective  inkscape:vp_z="744.09448 : 526.18109 : 1" inkscape:vp_y="0 : 1000 : 0" inkscape:vp_x="0 : 526.18109 : 1" sodipodi:type="inkscape:persp3d" id="perspective7157" inkscape:persp3d-origin="372.04724 : 350.78739 : 1">
		</inkscape:perspective>
</defs>
<g id="layer3" transform="matrix(48.14969,0,0,48.14969,-536.27327,-33.306752)" inkscape:label="Layout" display="none">
	<rect id="rect4134" x="1" y="1" display="inline" fill="none" stroke="#757575" stroke-width="0.1" width="10" height="10"/>
	<rect id="rect4136" x="2" y="2" display="inline" fill="none" stroke="#757575" stroke-width="0.1" width="8" height="8"/>
</g>
<g id="g3338" transform="matrix(1.3973279,-0.2437849,0.2437849,1.3973279,-185.07402,-56.183307)">
</g>
<path id="path7165" sodipodi:nodetypes="ccsccccsccccccccssccsccsccsccccccssccsccsccsccsccsccsccccccsscccssccssccccccccccccccsccsccssccsccsccsccsccsccccccssccsccccssccsccccssccsccsccsccccsccsccsccccssccsccccssccccccssccsccsccsccccccssccsc" fill="param(fill) #FFF" stroke="param(outline) #000" stroke-width="param(outline-width) 1" d="
	M200.531,120.56c-20.777,0.256-41.598,5.173-60.832,14.935c-0.216,0.1-0.418,0.216-0.633,0.316c-0.284,0.146-0.58,0.254-0.863,0.403
	v0.029c-81.294,38.604-104.57,140.66-66.789,215.875c52.473,109.814,186.724,147.358,294.319,112.687
	c98.66-27.239,180.913-124.362,160.482-234.063c-0.127-0.682-0.211-1.36-0.346-2.043h-0.058
	c-11.499-76.23-89.718-121.985-161.748-104.053c-25.893,6.447-48.955,17.161-69.551,30.848
	C268.229,132.181,234.497,120.142,200.531,120.56z M399.919,139.926c2.564-0.18,4.979,1.457,5.697,4.029l5.697,20.373
	c0.038,0.12,0.086,0.252,0.115,0.374c0.721,2.968-1.118,5.956-4.086,6.676c-2.968,0.72-5.955-1.118-6.676-4.086l-5.697-20.373
	c-0.82-2.94,0.887-5.971,3.827-6.791C399.164,140.025,399.553,139.952,399.919,139.926z M239.811,152.789
	c3.051-0.127,5.628,2.244,5.755,5.295c0.127,3.051-2.243,5.628-5.294,5.755l-21.093,1.611c-3.043,0.23-5.697-2.05-5.928-5.094
	c-0.23-3.043,2.05-5.697,5.093-5.928l21.093-1.611C239.561,152.804,239.686,152.794,239.811,152.789z M137.34,163.119
	c0.367,0.007,0.721,0.06,1.094,0.144l20.661,4.633c0.123,0.023,0.225,0.055,0.345,0.086c2.955,0.773,4.745,3.808,3.971,6.762
	c-0.773,2.955-3.808,4.716-6.762,3.942l-20.632-4.662c-2.977-0.673-4.845-3.613-4.172-6.59
	C132.432,164.831,134.77,163.067,137.34,163.119z M332.67,169.22c1.775,0.011,3.517,0.887,4.575,2.475
	c1.694,2.541,1.016,5.96-1.525,7.654l-17.208,12.345c-2.479,1.779-5.904,1.214-7.683-1.266c-1.778-2.48-1.214-5.933,1.266-7.712
	l17.18-12.345c0.099-0.076,0.184-0.132,0.288-0.201C330.515,169.534,331.605,169.213,332.67,169.22z M484.778,181.967
	c3.052-0.127,5.628,2.244,5.756,5.295c0.127,3.051-2.244,5.628-5.295,5.755l-21.093,1.612c-3.044,0.23-5.697-2.05-5.928-5.094
	c-0.23-3.043,2.05-5.697,5.093-5.928l21.093-1.611C484.528,181.982,484.653,181.973,484.778,181.967z M201.941,188.097
	c14.606,0.06,29.289,4.319,41.293,12.374c-33.371,37.135-61.888,89.807-80.458,131.333c-5.154,10.996-3.984,23.904,3.079,33.783
	s18.92,15.191,30.992,13.869c12.072-1.32,22.491-9.057,27.25-20.229c17.288-38.66,43.117-84.518,70.213-114.298
	c24.936,26.536,52.676,69.717,64.285,103.564c3.762,11.525,13.437,20.118,25.323,22.503s24.141-1.81,32.056-10.992
	c7.916-9.184,10.27-21.918,6.158-33.322c-14.367-41.887-45.688-91.709-75.019-123.881c10.499-5.564,21.51-10.043,33.179-12.949
	c4.314-1.074,8.711-1.646,13.121-1.755c30.876-0.766,62.136,21.095,66.214,51.566l0.144,1.036l0.201,1.036
	c13.624,68.934-45.366,139.927-113.463,158.728l-0.69,0.201l-0.69,0.202c-77.601,25.006-178.292-4.885-213.373-78.299l-0.144-0.289
	l-0.144-0.316c-21.503-42.808-6.642-105.646,36.344-125.462l0.748-0.345l0.748-0.403
	C179.265,190.545,190.582,188.05,201.941,188.097z M103.068,225.16c1.703,0.073,3.354,0.946,4.374,2.475
	c1.694,2.541,1.016,5.989-1.525,7.683l-17.179,12.345c-2.48,1.778-5.934,1.185-7.712-1.295c-1.779-2.48-1.214-5.934,1.266-7.712
	l17.179-12.316c0.099-0.076,0.212-0.161,0.316-0.23c0.794-0.529,1.673-0.84,2.561-0.921
	C102.593,225.167,102.825,225.149,103.068,225.16z M357.129,242.454c2.357,0.023,4.523,1.565,5.237,3.942
	c0.879,2.925-0.787,6.027-3.712,6.906l-20.028,6.762c-2.892,0.977-6.044-0.562-7.021-3.453s0.59-6.016,3.481-6.993l20.028-6.791
	c0.116-0.044,0.226-0.079,0.345-0.115C356.009,242.548,356.585,242.449,357.129,242.454z M255.292,245.706
	c3.051-0.127,5.628,2.244,5.755,5.295s-2.243,5.628-5.295,5.755l-21.092,1.612c-3.043,0.23-5.698-2.05-5.928-5.094
	c-0.23-3.043,2.05-5.697,5.093-5.928l21.092-1.611C255.042,245.721,255.167,245.711,255.292,245.706z M488.203,247.893
	c1.063-0.024,2.145,0.273,3.107,0.892l17.813,11.424c0.107,0.064,0.214,0.13,0.316,0.202c2.512,1.737,3.147,5.171,1.41,7.683
	c-1.737,2.511-5.2,3.147-7.712,1.41l-17.783-11.424c-2.568-1.65-3.319-5.087-1.67-7.654
	C484.717,248.82,486.43,247.933,488.203,247.893z M372.208,304.754c0.367,0.007,0.721,0.06,1.093,0.144l20.633,4.661
	c0.123,0.023,0.253,0.026,0.374,0.059c2.954,0.773,4.716,3.808,3.942,6.762c-0.773,2.955-3.779,4.716-6.733,3.942l-20.633-4.633
	c-2.977-0.673-4.845-3.642-4.172-6.618C367.3,306.465,369.638,304.701,372.208,304.754z M196.388,309.617
	c1.064-0.025,2.145,0.244,3.108,0.863l17.812,11.424c0.107,0.063,0.214,0.13,0.316,0.201c2.512,1.737,3.119,5.2,1.381,7.712
	c-1.737,2.511-5.171,3.147-7.683,1.409l-17.812-11.452c-2.567-1.65-3.291-5.058-1.64-7.626
	C192.901,310.545,194.614,309.657,196.388,309.617z M103.557,310.883c3.051-0.127,5.628,2.243,5.755,5.295
	c0.127,3.051-2.244,5.628-5.295,5.755l-21.093,1.611c-3.043,0.23-5.697-2.05-5.928-5.093c-0.23-3.044,2.05-5.697,5.093-5.928
	l21.093-1.611C103.308,310.898,103.432,310.889,103.557,310.883z M486.534,324.58c1.774,0.011,3.516,0.887,4.575,2.475
	c1.694,2.541,0.987,5.96-1.554,7.654l-17.18,12.345c-2.48,1.778-5.934,1.214-7.712-1.267c-1.778-2.479-1.214-5.933,1.267-7.711
	l17.208-12.346c0.099-0.076,0.184-0.131,0.287-0.201C484.379,324.895,485.469,324.574,486.534,324.58z M125.714,361.701
	c2.355,0.068,4.484,1.668,5.151,4.057l5.698,20.373c0.038,0.119,0.085,0.225,0.115,0.346c0.72,2.968-1.119,5.955-4.086,6.676
	s-5.956-1.09-6.676-4.057l-5.698-20.373c-0.82-2.94,0.916-6,3.856-6.82C124.626,361.748,125.171,361.685,125.714,361.701z
	 M431.429,374.305c3.049-0.135,5.62,2.246,5.755,5.295l0.949,21.121c0.01,0.125,0.027,0.249,0.029,0.374
	c0.031,3.054-2.442,5.552-5.496,5.583s-5.552-2.414-5.583-5.468l-0.949-21.122C425.999,377.039,428.379,374.44,431.429,374.305z
	 M180.792,416.375c0.367,0.008,0.75,0.06,1.122,0.144l20.632,4.661c0.123,0.023,0.253,0.056,0.374,0.087
	c2.954,0.773,4.716,3.779,3.942,6.733c-0.774,2.954-3.808,4.716-6.763,3.942l-20.632-4.633c-2.977-0.673-4.845-3.642-4.173-6.618
	C175.884,418.086,178.221,416.322,180.792,416.375z M373.762,425.814c3.051-0.127,5.628,2.243,5.755,5.295
	c0.127,3.051-2.243,5.628-5.295,5.755l-21.092,1.611c-3.044,0.23-5.698-2.05-5.929-5.094c-0.23-3.043,2.05-5.697,5.094-5.928
	l21.093-1.611C373.512,425.828,373.637,425.818,373.762,425.814z M262.687,431.165c1.064-0.023,2.145,0.245,3.108,0.863
	l17.812,11.425c0.108,0.063,0.214,0.13,0.317,0.201c2.511,1.737,3.119,5.2,1.381,7.712c-1.737,2.512-5.171,3.147-7.683,1.41
	l-17.812-11.453c-2.567-1.65-3.291-5.058-1.64-7.625C259.201,432.093,260.914,431.206,262.687,431.165z"/>
<path id="path7219" opacity="0.33" fill="param(fill) #FFF" enable-background="new    " d="M200.7,120.726
	c-20.777,0.256-41.598,5.173-60.832,14.935c-0.216,0.1-0.417,0.216-0.633,0.316c-0.284,0.146-0.58,0.255-0.863,0.403v0.029
	c-81.294,38.604-104.57,140.66-66.789,215.876c52.474,109.814,186.724,147.358,294.319,112.686
	c98.66-27.238,180.913-124.361,160.482-234.062c-0.127-0.682-0.21-1.36-0.346-2.043h-0.058
	c-11.499-76.23-89.718-121.985-161.748-104.053c-25.893,6.447-48.955,17.161-69.551,30.848
	C268.397,132.347,234.665,120.308,200.7,120.726z M393.583,188.262c30.876-0.765,62.136,21.095,66.214,51.566l0.144,1.036
	l0.201,1.036c13.624,68.934-45.365,139.927-113.463,158.727l-0.69,0.202l-0.69,0.201c-77.601,25.007-178.292-4.884-213.373-78.299
	l-0.144-0.288l-0.144-0.316c-21.503-42.809-6.642-105.646,36.344-125.462l0.748-0.346l0.749-0.403
	c22.755-11.898,52.583-9.6,73.925,4.719c-33.371,37.135-57.887,81.807-76.458,123.333c-5.154,10.996-3.972,23.918,3.091,33.796
	c7.063,9.878,18.909,15.176,30.98,13.854c12.072-1.32,22.491-9.055,27.25-20.227c17.289-38.661,39.117-76.518,66.214-106.298
	c24.935,26.536,44.675,57.717,56.285,91.564c3.761,11.525,13.44,20.13,25.327,22.515s24.136-1.82,32.052-11.004
	c7.915-9.182,10.269-21.918,6.157-33.323c-14.367-41.886-37.688-79.708-67.019-111.88c10.499-5.565,21.51-10.043,33.179-12.949
	C384.776,188.943,389.173,188.372,393.583,188.262z"/>
</svg>
