<svg enable-background="new 0 0 580 580" height="580" viewBox="0 0 580 580" width="580" xmlns="http://www.w3.org/2000/svg">
<path d="m225.229 108.238c1.809 4.242 3.805 6.674 3.805 6.674 7.422 10.729 19.835 17.652 33.87 17.652 22.767 0 41.292-18.526 41.292-41.292 0-5.24 1.31-9.98-.873-14.471h16.155c-6.861-26.447-31.001-46.033-59.506-46.033-34.057 0-61.564 27.383-61.564 61.377 0 5.738.686 10.978 2.121 16.093z" fill="param(fill)" fill-opacity="param(fill-opacity)" stroke="param(outline)" stroke-opacity="param(outline-opacity)" stroke-width="param(outline-width)"/>
<path d="m384.848 295.115l-92.564 26.572.062 133.795c10.043 0 18.962-5.053 25.449-11.602l90.258-103.107z" fill="param(fill)" fill-opacity="param(fill-opacity)" stroke="param(outline)" stroke-opacity="param(outline-opacity)" stroke-width="param(outline-width)"/>
<path d="m261.22 235.858c4.74 7.547 11.165 10.479 17.028 10.354l61.003-.25c24.826 0 24.826-32.311 0-32.186h-49.463l-49.713-75.911c-6.113-6.799-14.908-11.103-24.825-11.103-10.542 0-19.96 4.865-26.011 12.538l-73.479 112.215c-2.994 4.99-4.678 10.854-4.678 17.028 0 11.602 5.863 21.707 14.721 27.633l98.553 54.703v93.064c0 13.161 10.667 23.89 23.828 23.89 13.099 0 23.828-10.729 23.828-23.89v-116.206c0 0 3.119-18.525-17.902-28.63l-61.44-32.186 44.786-68.363z" fill="param(fill)" fill-opacity="param(fill-opacity)" stroke="param(outline)" stroke-opacity="param(outline-opacity)" stroke-width="param(outline-width)"/>
<path d="m474.855 291.996c12.288 0 18.962 2.807 29.504 7.299.623.249 1.122.249 1.934.249 2.931 0 5.364-2.433 5.364-5.364 0-1.622-.499-2.807-1.497-3.805-11.977-11.165-21.582-14.97-39.921-14.97-11.477 0-22.455 3.556-35.865 7.548l10.729 21.208c11.601-9.358 21.644-12.165 29.752-12.165z" fill="param(fill)" fill-opacity="param(fill-opacity)" stroke="param(outline)" stroke-opacity="param(outline-opacity)" stroke-width="param(outline-width)"/>
<path d="m100.354 306.717c-14.658-7.547-26.011-8.67-35.43-8.67-18.276 0-30.501 3.742-42.478 14.97-.936.998-1.559 2.246-1.559 3.806 0 2.932 2.495 5.363 5.426 5.363.687 0 1.248 0 1.934-.249 10.479-4.491 17.278-7.298 29.441-7.298 8.171 0 19.648 2.558 28.194 6.924l118.139 65.058-.25-22.892z" fill="param(fill)" fill-opacity="param(fill-opacity)" stroke="param(outline)" stroke-opacity="param(outline-opacity)" stroke-width="param(outline-width)"/>
<path d="m109.959 367.408c-48.59 0-88.012 39.484-88.012 88.074 0 48.591 39.421 88.074 88.012 88.074 48.653 0 88.074-39.483 88.074-88.074 0-48.589-39.421-88.074-88.074-88.074zm0 149.077c-33.683 0-61.003-27.32-61.003-61.065s27.32-61.065 61.003-61.065 61.003 27.32 61.003 61.065-27.32 61.065-61.003 61.065z" fill="param(fill)" fill-opacity="param(fill-opacity)" stroke="param(outline)" stroke-opacity="param(outline-opacity)" stroke-width="param(outline-width)"/>
<path d="m473.982 367.408c-48.653 0-88.012 39.484-88.012 88.074 0 48.591 39.358 88.074 88.012 88.074 48.59 0 88.012-39.483 88.012-88.074 0-48.589-39.422-88.074-88.012-88.074zm0 149.077c-33.683 0-61.003-27.32-61.003-61.065s27.258-61.065 61.003-61.065 61.065 27.32 61.065 61.065-27.382 61.065-61.065 61.065z" fill="param(fill)" fill-opacity="param(fill-opacity)" stroke="param(outline)" stroke-opacity="param(outline-opacity)" stroke-width="param(outline-width)"/>
<path d="m344.865 261.994c0 5.489 4.429 9.855 9.855 9.855l27.944-.125c4.678 0 9.917 3.181 11.913 7.797l40.295 82.086 19.647-6.799-42.789-85.517c-5.613-10.23-16.529-17.278-29.066-17.278h-27.944c-5.426.001-9.855 4.492-9.855 9.981z" fill="param(fill)" fill-opacity="param(fill-opacity)" stroke="param(outline)" stroke-opacity="param(outline-opacity)" stroke-width="param(outline-width)"/>
</svg>
