<svg enable-background="new 0 0 580 580" height="580" viewBox="0 0 580 580" width="580" xmlns="http://www.w3.org/2000/svg">
<path d="m39.059 156.858h507.77" fill="param(fill)" opacity=".3" stroke="param(outline)" stroke-width="param(outline-width)"/>
<path d="m39.059 216.858h507.77" fill="param(fill)" opacity=".3" stroke="param(outline)" stroke-width="param(outline-width)"/>
<path d="m39.059 276.858h507.77" fill="param(fill)" opacity=".3" stroke="param(outline)" stroke-width="param(outline-width)"/>
<path d="m39.059 336.858h507.77" fill="param(fill)" opacity=".3" stroke="param(outline)" stroke-width="param(outline-width)"/>
<path d="m39.059 396.858h507.77" fill="param(fill)" opacity=".3" stroke="param(outline)" stroke-width="param(outline-width)"/>
<path d="m39.059 456.858h507.77" fill="param(fill)" opacity=".3" stroke="param(outline)" stroke-width="param(outline-width)"/>
<path d="m39.059 516.858h507.77" fill="param(fill)" opacity=".3" stroke="param(outline)" stroke-width="param(outline-width)"/>
<path d="m455.203 342.154v-276.206c.056-5.984-2.341-11.834-6.579-16.06-4.163-4.152-9.928-6.534-15.814-6.534l-.341.002c-5.88.092-11.603 2.563-15.703 6.779-.054.055-.099.117-.151.172l-203.461 80.649c-5.016.631-9.766 2.961-13.303 6.601-4.082 4.198-6.388 9.959-6.334 15.814v218.943c-11.144-6.429-23.821-9.844-37.105-9.844-41.156 0-74.639 33.465-74.639 74.6 0 41.156 33.483 74.64 74.639 74.64 19.015 0 37.475-6.18 51.978-17.401 16.246-12.568 26.372-30.368 29.289-51.479.265-1.501.347-3.155.438-5.004.14-2.854.203-5.854.172-8.25v-265.553l172.145-68.235v189.105c-11.144-6.428-23.82-9.843-37.104-9.843-41.156 0-74.64 33.466-74.64 74.601 0 41.156 33.483 74.639 74.64 74.639 19.015 0 37.474-6.18 51.978-17.401 16.246-12.568 26.372-30.368 29.288-51.479.266-1.501.347-3.155.438-5.004.137-2.855.199-5.856.169-8.252z" fill="param(fill)" stroke="param(outline)" stroke-miterlimit="10" stroke-width="param(outline-width)"/>
</svg>
