<svg enable-background="new 0 0 580 580" height="580" viewBox="0 0 580 580" width="580" xmlns="http://www.w3.org/2000/svg">
<path d="m501.328 159.731c0-28.37 24.993-26.724 20.131-50.246-3.359-16.249-5.988-29.279-7.946-48.928-1.39-13.941-1.833-28.801-16.313-28.204-17.015.702-23.47 30.651-49.916 32.798-26.394 2.143-48.897-22.469-59.112-18.953-10.129 3.485-6.943 30.963-.938 50.479 9.438 30.674 30.025 70.56-7.506 76.564-37.532 6.005-102.086 12.01-148.625 73.562s-44.821 133.787-63.053 156.131c-61.189 74.989-123.892 44.199-123.892 106.59 0 27.932 47.327 48.04 54.833 39.032s-63.781-35.847 15.983-67.556c68.145-27.089 74.228-32.619 95.11-13.512h169.643c0-24.115-1.723-28.898-41.66-28.898 6.38-19.142 32.314-65.45 46.727-65.45 12.75 0 27.961.702 27.961 29.795 0 33.027 55.581 86.278 69.058 64.554 20.085-32.375-34.528-22.503-34.528-100.584 0-106.819 62.34-91.612 62.34-151.627-.002-30.026-8.297-34.081-8.297-55.547z" fill="param(fill)" fill-opacity="param(fill-opacity)" stroke="param(outline)" stroke-opacity="param(outline-opacity)" stroke-width="param(outline-width)"/>
</svg>
