<svg enable-background="new 0 0 580 580" height="580" viewBox="0 0 580 580" width="580" xmlns="http://www.w3.org/2000/svg">
<path d="m472.002 95.129c-135.441-21.685-148.86 89.987-148.841 89.907 111.048 38.182 148.841-89.907 148.841-89.907z" fill="param(fill)" fill-opacity="param(fill-opacity)" stroke="param(outline)" stroke-opacity="param(outline-opacity)" stroke-width="param(outline-width)"/>
<path d="m360.352 223.141c-29.095 0-55.3 11.452-74.49 30.436-19.396-18.983-45.601-30.436-74.592-30.436-58.911 0-106.679 47.562-106.679 106.369 0 2.271 0 4.127.31 6.294h.516c1.651 22.801 8.976 51.585 26.309 87.076 0 0 30.022 57.054 53.752 83.259l2.167 2.063c11.658 11.762 27.753 18.983 45.602 18.983 21.666 0 40.855-10.523 52.514-26.824h.31c11.658 16.301 30.848 26.824 52.514 26.824 17.643 0 33.943-7.325 45.498-18.983l2.167-2.063c23.936-26.205 53.752-83.259 53.752-83.259 17.333-35.491 24.658-64.069 26.515-87.076h.207c.103-2.27.103-4.127.103-6.294-.004-58.807-47.771-106.369-106.475-106.369z" fill="param(fill)" fill-opacity="param(fill-opacity)" stroke="param(outline)" stroke-opacity="param(outline-opacity)" stroke-width="param(outline-width)"/>
<path d="m248.144 143.213c.01.069-2.94-96.013-119.885-87.829 0 0 22.455 111.907 119.885 87.829z" fill="param(fill)" fill-opacity="param(fill-opacity)" stroke="param(outline)" stroke-opacity="param(outline-opacity)" stroke-width="param(outline-width)"/>
<path d="m280.341 231.073l4.795.421 27.368-146.56-1.482-.855c-.966-.557-23.789-13.646-36.158-13.646-3.725 0-6.395 1.15-7.934 3.418-1.975 2.908-1.779 7.231.597 13.214 11.601 29.215 12.804 142.863 12.814 144.008z" fill="param(fill)" fill-opacity="param(fill-opacity)" stroke="param(outline)" stroke-opacity="param(outline-opacity)" stroke-width="param(outline-width)"/>
</svg>
