/* XPM */
static const char *add_point[] = {
"16 16 3 1",
"- c None",
". c #000000",
"+ c #FFFFFF",
"----------------",
"-------+.+------",
"------++.++-----",
"-----+.....+----",
"----+.-----.+---",
"---+.---.---.+--",
"--+.----.----.+-",
"-++.----.----.++",
"-...-...+...-...",
"-++.----.----.++",
"--+.----.----.+-",
"---+.---.---.+--",
"---++.-----.+---",
"----++.....+----",
"------++.++-----",
"-------+.+------"};
