solid polygons_3/0/0_CHUNK_MESH_mesh_geometry
  facet normal 0 0 1
    outer loop
      vertex -0.448 -0.0892 0.000939
      vertex -0.486 -0.0298 0.000939
      vertex -0.5 -0.366 0.000939
    endloop
  endfacet
  facet normal 0 0 1
    outer loop
      vertex -0.486 -0.0298 0.000939
      vertex -0.448 -0.0892 0.000939
      vertex 0.0989 -0.314 0.000939
    endloop
  endfacet
  facet normal 0 0 1
    outer loop
      vertex -0.486 -0.0298 0.000939
      vertex 0.0989 -0.314 0.000939
      vertex 0.192 -0.318 0.000939
    endloop
  endfacet
  facet normal 0 0 1
    outer loop
      vertex 0.192 -0.318 0.000939
      vertex 0.0989 -0.314 0.000939
      vertex -0.0412 -0.414 0.000939
    endloop
  endfacet
  facet normal 0 0 1
    outer loop
      vertex 0.0989 -0.314 0.000939
      vertex -0.0501 -0.38 0.000939
      vertex -0.0412 -0.414 0.000939
    endloop
  endfacet
  facet normal 0 0 1
    outer loop
      vertex -0.0501 -0.38 0.000939
      vertex -0.453 -0.334 0.000939
      vertex -0.0412 -0.414 0.000939
    endloop
  endfacet
  facet normal 0 0 1
    outer loop
      vertex -0.0412 -0.414 0.000939
      vertex -0.453 -0.334 0.000939
      vertex -0.5 -0.366 0.000939
    endloop
  endfacet
  facet normal 0 0 1
    outer loop
      vertex -0.448 -0.0892 0.000939
      vertex -0.5 -0.366 0.000939
      vertex -0.453 -0.334 0.000939
    endloop
  endfacet
  facet normal 0.392 0.92 0
    outer loop
      vertex -0.486 -0.0298 0.000939
      vertex 0.192 -0.318 0.000939
      vertex -0.486 -0.0298 -0.000939
    endloop
  endfacet
  facet normal 0.392 0.92 0
    outer loop
      vertex -0.486 -0.0298 -0.000939
      vertex 0.192 -0.318 0.000939
      vertex 0.192 -0.318 -0.000939
    endloop
  endfacet
  facet normal 0.379 -0.925 0
    outer loop
      vertex 0.192 -0.318 0.000939
      vertex -0.0412 -0.414 0.000939
      vertex 0.192 -0.318 -0.000939
    endloop
  endfacet
  facet normal 0.379 -0.925 0
    outer loop
      vertex 0.192 -0.318 -0.000939
      vertex -0.0412 -0.414 0.000939
      vertex -0.0412 -0.414 -0.000939
    endloop
  endfacet
  facet normal -0.103 -0.995 0
    outer loop
      vertex -0.0412 -0.414 0.000939
      vertex -0.5 -0.366 0.000939
      vertex -0.0412 -0.414 -0.000939
    endloop
  endfacet
  facet normal -0.103 -0.995 0
    outer loop
      vertex -0.0412 -0.414 -0.000939
      vertex -0.5 -0.366 0.000939
      vertex -0.5 -0.366 -0.000939
    endloop
  endfacet
  facet normal -0.999 0.0419 0
    outer loop
      vertex -0.5 -0.366 0.000939
      vertex -0.486 -0.0298 0.000939
      vertex -0.5 -0.366 -0.000939
    endloop
  endfacet
  facet normal -0.999 0.0419 0
    outer loop
      vertex -0.5 -0.366 -0.000939
      vertex -0.486 -0.0298 0.000939
      vertex -0.486 -0.0298 -0.000939
    endloop
  endfacet
  facet normal 1 -0.023 0
    outer loop
      vertex -0.448 -0.0892 0.000939
      vertex -0.453 -0.334 0.000939
      vertex -0.448 -0.0892 -0.000939
    endloop
  endfacet
  facet normal 1 -0.023 0
    outer loop
      vertex -0.448 -0.0892 -0.000939
      vertex -0.453 -0.334 0.000939
      vertex -0.453 -0.334 -0.000939
    endloop
  endfacet
  facet normal 0.114 0.993 0
    outer loop
      vertex -0.453 -0.334 0.000939
      vertex -0.0501 -0.38 0.000939
      vertex -0.453 -0.334 -0.000939
    endloop
  endfacet
  facet normal 0.114 0.993 0
    outer loop
      vertex -0.453 -0.334 -0.000939
      vertex -0.0501 -0.38 0.000939
      vertex -0.0501 -0.38 -0.000939
    endloop
  endfacet
  facet normal -0.408 0.913 0
    outer loop
      vertex -0.0501 -0.38 0.000939
      vertex 0.0989 -0.314 0.000939
      vertex -0.0501 -0.38 -0.000939
    endloop
  endfacet
  facet normal -0.408 0.913 0
    outer loop
      vertex -0.0501 -0.38 -0.000939
      vertex 0.0989 -0.314 0.000939
      vertex 0.0989 -0.314 -0.000939
    endloop
  endfacet
  facet normal -0.38 -0.925 0
    outer loop
      vertex 0.0989 -0.314 0.000939
      vertex -0.448 -0.0892 0.000939
      vertex 0.0989 -0.314 -0.000939
    endloop
  endfacet
  facet normal -0.38 -0.925 0
    outer loop
      vertex 0.0989 -0.314 -0.000939
      vertex -0.448 -0.0892 0.000939
      vertex -0.448 -0.0892 -0.000939
    endloop
  endfacet
endsolid polygons_3/0/0_CHUNK_MESH_mesh_geometry
solid polygons_3/0/4_CHUNK_MESH_mesh_geometry
  facet normal 0 0 1
    outer loop
      vertex -0.457 0.414 0.000939
      vertex -0.472 0.0765 0.000939
      vertex -0.257 0.23 0.000939
    endloop
  endfacet
  facet normal 0 0 1
    outer loop
      vertex -0.257 0.23 0.000939
      vertex -0.472 0.0765 0.000939
      vertex 0.0184 -0.177 0.000939
    endloop
  endfacet
  facet normal 0.829 0.56 0
    outer loop
      vertex -0.257 0.23 0.000939
      vertex 0.0184 -0.177 0.000939
      vertex -0.257 0.23 -0.000939
    endloop
  endfacet
  facet normal 0.829 0.56 0
    outer loop
      vertex -0.257 0.23 -0.000939
      vertex 0.0184 -0.177 0.000939
      vertex 0.0184 -0.177 -0.000939
    endloop
  endfacet
  facet normal -0.46 -0.888 0
    outer loop
      vertex 0.0184 -0.177 0.000939
      vertex -0.472 0.0765 0.000939
      vertex 0.0184 -0.177 -0.000939
    endloop
  endfacet
  facet normal -0.46 -0.888 0
    outer loop
      vertex 0.0184 -0.177 -0.000939
      vertex -0.472 0.0765 0.000939
      vertex -0.472 0.0765 -0.000939
    endloop
  endfacet
  facet normal -0.999 0.045 0
    outer loop
      vertex -0.472 0.0765 0.000939
      vertex -0.457 0.414 0.000939
      vertex -0.472 0.0765 -0.000939
    endloop
  endfacet
  facet normal -0.999 0.045 0
    outer loop
      vertex -0.472 0.0765 -0.000939
      vertex -0.457 0.414 0.000939
      vertex -0.457 0.414 -0.000939
    endloop
  endfacet
  facet normal 0.676 0.736 0
    outer loop
      vertex -0.457 0.414 0.000939
      vertex -0.257 0.23 0.000939
      vertex -0.457 0.414 -0.000939
    endloop
  endfacet
  facet normal 0.676 0.736 0
    outer loop
      vertex -0.457 0.414 -0.000939
      vertex -0.257 0.23 0.000939
      vertex -0.257 0.23 -0.000939
    endloop
  endfacet
endsolid polygons_3/0/4_CHUNK_MESH_mesh_geometry
solid polygons_3/2/4_CHUNK_MESH_mesh_geometry
  facet normal 0 0 1
    outer loop
      vertex 0.0597 0.114 0.000939
      vertex -0.209 0.2 0.000939
      vertex 0.129 -0.143 0.000939
    endloop
  endfacet
  facet normal 0 0 1
    outer loop
      vertex 0.0597 0.114 0.000939
      vertex 0.129 -0.143 0.000939
      vertex 0.172 -0.135 0.000939
    endloop
  endfacet
  facet normal 0 0 1
    outer loop
      vertex 0.0597 0.114 0.000939
      vertex 0.172 -0.135 0.000939
      vertex 0.5 -0.032 0.000939
    endloop
  endfacet
  facet normal 0 0 1
    outer loop
      vertex 0.172 -0.135 0.000939
      vertex 0.215 -0.311 0.000939
      vertex 0.5 -0.032 0.000939
    endloop
  endfacet
  facet normal 0 0 1
    outer loop
      vertex 0.172 -0.135 0.000939
      vertex 0.161 -0.168 0.000939
      vertex 0.215 -0.311 0.000939
    endloop
  endfacet
  facet normal 0 0 1
    outer loop
      vertex 0.161 -0.168 0.000939
      vertex 0.129 -0.143 0.000939
      vertex 0.215 -0.311 0.000939
    endloop
  endfacet
  facet normal 0 0 1
    outer loop
      vertex 0.215 -0.311 0.000939
      vertex 0.129 -0.143 0.000939
      vertex -0.209 0.2 0.000939
    endloop
  endfacet
  facet normal 0.316 0.949 0
    outer loop
      vertex 0.0597 0.114 0.000939
      vertex 0.5 -0.032 0.000939
      vertex 0.0597 0.114 -0.000939
    endloop
  endfacet
  facet normal 0.316 0.949 0
    outer loop
      vertex 0.0597 0.114 -0.000939
      vertex 0.5 -0.032 0.000939
      vertex 0.5 -0.032 -0.000939
    endloop
  endfacet
  facet normal 0.699 -0.715 0
    outer loop
      vertex 0.5 -0.032 0.000939
      vertex 0.215 -0.311 0.000939
      vertex 0.5 -0.032 -0.000939
    endloop
  endfacet
  facet normal 0.699 -0.715 0
    outer loop
      vertex 0.5 -0.032 -0.000939
      vertex 0.215 -0.311 0.000939
      vertex 0.215 -0.311 -0.000939
    endloop
  endfacet
  facet normal -0.769 -0.639 0
    outer loop
      vertex 0.215 -0.311 0.000939
      vertex -0.209 0.2 0.000939
      vertex 0.215 -0.311 -0.000939
    endloop
  endfacet
  facet normal -0.769 -0.639 0
    outer loop
      vertex 0.215 -0.311 -0.000939
      vertex -0.209 0.2 0.000939
      vertex -0.209 0.2 -0.000939
    endloop
  endfacet
  facet normal 0.304 0.953 0
    outer loop
      vertex -0.209 0.2 0.000939
      vertex 0.0597 0.114 0.000939
      vertex -0.209 0.2 -0.000939
    endloop
  endfacet
  facet normal 0.304 0.953 0
    outer loop
      vertex -0.209 0.2 -0.000939
      vertex 0.0597 0.114 0.000939
      vertex 0.0597 0.114 -0.000939
    endloop
  endfacet
  facet normal 0.181 -0.983 0
    outer loop
      vertex 0.172 -0.135 0.000939
      vertex 0.129 -0.143 0.000939
      vertex 0.172 -0.135 -0.000939
    endloop
  endfacet
  facet normal 0.181 -0.983 0
    outer loop
      vertex 0.172 -0.135 -0.000939
      vertex 0.129 -0.143 0.000939
      vertex 0.129 -0.143 -0.000939
    endloop
  endfacet
  facet normal 0.618 0.786 0
    outer loop
      vertex 0.129 -0.143 0.000939
      vertex 0.161 -0.168 0.000939
      vertex 0.129 -0.143 -0.000939
    endloop
  endfacet
  facet normal 0.618 0.786 0
    outer loop
      vertex 0.129 -0.143 -0.000939
      vertex 0.161 -0.168 0.000939
      vertex 0.161 -0.168 -0.000939
    endloop
  endfacet
  facet normal -0.945 0.326 0
    outer loop
      vertex 0.161 -0.168 0.000939
      vertex 0.172 -0.135 0.000939
      vertex 0.161 -0.168 -0.000939
    endloop
  endfacet
  facet normal -0.945 0.326 0
    outer loop
      vertex 0.161 -0.168 -0.000939
      vertex 0.172 -0.135 0.000939
      vertex 0.172 -0.135 -0.000939
    endloop
  endfacet
endsolid polygons_3/2/4_CHUNK_MESH_mesh_geometry
