mtllib scene_export-1.mtl
o polygons_0/0/0_CHUNK_MESH_mesh_geometry
s off
v -0.4475 0.0009392 0.08918
vn 0 1 0
v -0.4859 0.0009392 0.02983
vn 0 1 0
v -0.5 0.0009392 0.3661
vn 0 1 0
v -0.4859 0.0009392 0.02983
vn 0 1 0
v -0.4475 0.0009392 0.08918
vn 0 1 0
v 0.09892 0.0009392 0.3139
vn 0 1 0
v -0.4859 0.0009392 0.02983
vn 0 1 0
v 0.09892 0.0009392 0.3139
vn 0 1 0
v 0.192 0.0009392 0.3183
vn 0 1 0
v 0.192 0.0009392 0.3183
vn 0 1 0
v 0.09892 0.0009392 0.3139
vn 0 1 0
v -0.04121 0.0009392 0.4138
vn 0 1 0
v 0.09892 0.0009392 0.3139
vn 0 1 0
v -0.05011 0.0009392 0.3805
vn 0 1 0
v -0.04121 0.0009392 0.4138
vn 0 1 0
v -0.05011 0.0009392 0.3805
vn 0 1 0
v -0.4532 0.0009392 0.3342
vn 0 1 0
v -0.04121 0.0009392 0.4138
vn 0 1 0
v -0.04121 0.0009392 0.4138
vn 0 1 0
v -0.4532 0.0009392 0.3342
vn 0 1 0
v -0.5 0.0009392 0.3661
vn 0 1 0
v -0.4475 0.0009392 0.08918
vn 0 1 0
v -0.5 0.0009392 0.3661
vn 0 1 0
v -0.4532 0.0009392 0.3342
vn 0 1 0
v -0.4859 0.0009392 0.02983
vn 0.3916 0 -0.9201
v 0.192 0.0009392 0.3183
vn 0.3916 0 -0.9201
v -0.4859 -0.0009392 0.02983
vn 0.3916 0 -0.9201
v -0.4859 -0.0009392 0.02983
vn 0.3916 0 -0.9201
v 0.192 0.0009392 0.3183
vn 0.3916 0 -0.9201
v 0.192 -0.0009392 0.3183
vn 0.3916 0 -0.9201
v 0.192 0.0009392 0.3183
vn 0.3788 0 0.9255
v -0.04121 0.0009392 0.4138
vn 0.3788 0 0.9255
v 0.192 -0.0009392 0.3183
vn 0.3788 0 0.9255
v 0.192 -0.0009392 0.3183
vn 0.3788 0 0.9255
v -0.04121 0.0009392 0.4138
vn 0.3788 0 0.9255
v -0.04121 -0.0009392 0.4138
vn 0.3788 0 0.9255
v -0.04121 0.0009392 0.4138
vn -0.1035 0 0.9946
v -0.5 0.0009392 0.3661
vn -0.1035 0 0.9946
v -0.04121 -0.0009392 0.4138
vn -0.1035 0 0.9946
v -0.04121 -0.0009392 0.4138
vn -0.1035 0 0.9946
v -0.5 0.0009392 0.3661
vn -0.1035 0 0.9946
v -0.5 -0.0009392 0.3661
vn -0.1035 0 0.9946
v -0.5 0.0009392 0.3661
vn -0.9991 0 -0.0419
v -0.4859 0.0009392 0.02983
vn -0.9991 0 -0.0419
v -0.5 -0.0009392 0.3661
vn -0.9991 0 -0.0419
v -0.5 -0.0009392 0.3661
vn -0.9991 0 -0.0419
v -0.4859 0.0009392 0.02983
vn -0.9991 0 -0.0419
v -0.4859 -0.0009392 0.02983
vn -0.9991 0 -0.0419
v -0.4475 0.0009392 0.08918
vn 0.9997 0 0.02304
v -0.4532 0.0009392 0.3342
vn 0.9997 0 0.02304
v -0.4475 -0.0009392 0.08918
vn 0.9997 0 0.02304
v -0.4475 -0.0009392 0.08918
vn 0.9997 0 0.02304
v -0.4532 0.0009392 0.3342
vn 0.9997 0 0.02304
v -0.4532 -0.0009392 0.3342
vn 0.9997 0 0.02304
v -0.4532 0.0009392 0.3342
vn 0.1141 0 -0.9935
v -0.05011 0.0009392 0.3805
vn 0.1141 0 -0.9935
v -0.4532 -0.0009392 0.3342
vn 0.1141 0 -0.9935
v -0.4532 -0.0009392 0.3342
vn 0.1141 0 -0.9935
v -0.05011 0.0009392 0.3805
vn 0.1141 0 -0.9935
v -0.05011 -0.0009392 0.3805
vn 0.1141 0 -0.9935
v -0.05011 0.0009392 0.3805
vn -0.4081 0 -0.913
v 0.09892 0.0009392 0.3139
vn -0.4081 0 -0.913
v -0.05011 -0.0009392 0.3805
vn -0.4081 0 -0.913
v -0.05011 -0.0009392 0.3805
vn -0.4081 0 -0.913
v 0.09892 0.0009392 0.3139
vn -0.4081 0 -0.913
v 0.09892 -0.0009392 0.3139
vn -0.4081 0 -0.913
v 0.09892 0.0009392 0.3139
vn -0.3803 0 0.9249
v -0.4475 0.0009392 0.08918
vn -0.3803 0 0.9249
v 0.09892 -0.0009392 0.3139
vn -0.3803 0 0.9249
v 0.09892 -0.0009392 0.3139
vn -0.3803 0 0.9249
v -0.4475 0.0009392 0.08918
vn -0.3803 0 0.9249
v -0.4475 -0.0009392 0.08918
vn -0.3803 0 0.9249
v 0.05965 0.0009392 -0.1144
vn 0 1 0
v -0.2093 0.0009392 -0.2001
vn 0 1 0
v 0.1294 0.0009392 0.1434
vn 0 1 0
v 0.05965 0.0009392 -0.1144
vn 0 1 0
v 0.1294 0.0009392 0.1434
vn 0 1 0
v 0.1723 0.0009392 0.1355
vn 0 1 0
v 0.05965 0.0009392 -0.1144
vn 0 1 0
v 0.1723 0.0009392 0.1355
vn 0 1 0
v 0.5 0.0009392 0.032
vn 0 1 0
v 0.1723 0.0009392 0.1355
vn 0 1 0
v 0.2148 0.0009392 0.3107
vn 0 1 0
v 0.5 0.0009392 0.032
vn 0 1 0
v 0.1723 0.0009392 0.1355
vn 0 1 0
v 0.161 0.0009392 0.1682
vn 0 1 0
v 0.2148 0.0009392 0.3107
vn 0 1 0
v 0.161 0.0009392 0.1682
vn 0 1 0
v 0.1294 0.0009392 0.1434
vn 0 1 0
v 0.2148 0.0009392 0.3107
vn 0 1 0
v 0.2148 0.0009392 0.3107
vn 0 1 0
v 0.1294 0.0009392 0.1434
vn 0 1 0
v -0.2093 0.0009392 -0.2001
vn 0 1 0
v 0.05965 0.0009392 -0.1144
vn 0.3155 0 -0.9489
v 0.5 0.0009392 0.032
vn 0.3155 0 -0.9489
v 0.05965 -0.0009392 -0.1144
vn 0.3155 0 -0.9489
v 0.05965 -0.0009392 -0.1144
vn 0.3155 0 -0.9489
v 0.5 0.0009392 0.032
vn 0.3155 0 -0.9489
v 0.5 -0.0009392 0.032
vn 0.3155 0 -0.9489
v 0.5 0.0009392 0.032
vn 0.6989 0 0.7152
v 0.2148 0.0009392 0.3107
vn 0.6989 0 0.7152
v 0.5 -0.0009392 0.032
vn 0.6989 0 0.7152
v 0.5 -0.0009392 0.032
vn 0.6989 0 0.7152
v 0.2148 0.0009392 0.3107
vn 0.6989 0 0.7152
v 0.2148 -0.0009392 0.3107
vn 0.6989 0 0.7152
v 0.2148 0.0009392 0.3107
vn -0.7694 0 0.6387
v -0.2093 0.0009392 -0.2001
vn -0.7694 0 0.6387
v 0.2148 -0.0009392 0.3107
vn -0.7694 0 0.6387
v 0.2148 -0.0009392 0.3107
vn -0.7694 0 0.6387
v -0.2093 0.0009392 -0.2001
vn -0.7694 0 0.6387
v -0.2093 -0.0009392 -0.2001
vn -0.7694 0 0.6387
v -0.2093 0.0009392 -0.2001
vn 0.3035 0 -0.9528
v 0.05965 0.0009392 -0.1144
vn 0.3035 0 -0.9528
v -0.2093 -0.0009392 -0.2001
vn 0.3035 0 -0.9528
v -0.2093 -0.0009392 -0.2001
vn 0.3035 0 -0.9528
v 0.05965 0.0009392 -0.1144
vn 0.3035 0 -0.9528
v 0.05965 -0.0009392 -0.1144
vn 0.3035 0 -0.9528
v 0.1723 0.0009392 0.1355
vn 0.1812 0 0.9835
v 0.1294 0.0009392 0.1434
vn 0.1812 0 0.9835
v 0.1723 -0.0009392 0.1355
vn 0.1812 0 0.9835
v 0.1723 -0.0009392 0.1355
vn 0.1812 0 0.9835
v 0.1294 0.0009392 0.1434
vn 0.1812 0 0.9835
v 0.1294 -0.0009392 0.1434
vn 0.1812 0 0.9835
v 0.1294 0.0009392 0.1434
vn 0.6178 0 -0.7863
v 0.161 0.0009392 0.1682
vn 0.6178 0 -0.7863
v 0.1294 -0.0009392 0.1434
vn 0.6178 0 -0.7863
v 0.1294 -0.0009392 0.1434
vn 0.6178 0 -0.7863
v 0.161 0.0009392 0.1682
vn 0.6178 0 -0.7863
v 0.161 -0.0009392 0.1682
vn 0.6178 0 -0.7863
v 0.161 0.0009392 0.1682
vn -0.9454 0 -0.326
v 0.1723 0.0009392 0.1355
vn -0.9454 0 -0.326
v 0.161 -0.0009392 0.1682
vn -0.9454 0 -0.326
v 0.161 -0.0009392 0.1682
vn -0.9454 0 -0.326
v 0.1723 0.0009392 0.1355
vn -0.9454 0 -0.326
v 0.1723 -0.0009392 0.1355
vn -0.9454 0 -0.326
v -0.4566 0.0009392 -0.4138
vn 0 1 0
v -0.4718 0.0009392 -0.07646
vn 0 1 0
v -0.257 0.0009392 -0.2305
vn 0 1 0
v -0.257 0.0009392 -0.2305
vn 0 1 0
v -0.4718 0.0009392 -0.07646
vn 0 1 0
v 0.01844 0.0009392 0.1773
vn 0 1 0
v -0.257 0.0009392 -0.2305
vn 0.8286 0 -0.5598
v 0.01844 0.0009392 0.1773
vn 0.8286 0 -0.5598
v -0.257 -0.0009392 -0.2305
vn 0.8286 0 -0.5598
v -0.257 -0.0009392 -0.2305
vn 0.8286 0 -0.5598
v 0.01844 0.0009392 0.1773
vn 0.8286 0 -0.5598
v 0.01844 -0.0009392 0.1773
vn 0.8286 0 -0.5598
v 0.01844 0.0009392 0.1773
vn -0.4597 0 0.8881
v -0.4718 0.0009392 -0.07646
vn -0.4597 0 0.8881
v 0.01844 -0.0009392 0.1773
vn -0.4597 0 0.8881
v 0.01844 -0.0009392 0.1773
vn -0.4597 0 0.8881
v -0.4718 0.0009392 -0.07646
vn -0.4597 0 0.8881
v -0.4718 -0.0009392 -0.07646
vn -0.4597 0 0.8881
v -0.4718 0.0009392 -0.07646
vn -0.999 0 -0.04497
v -0.4566 0.0009392 -0.4138
vn -0.999 0 -0.04497
v -0.4718 -0.0009392 -0.07646
vn -0.999 0 -0.04497
v -0.4718 -0.0009392 -0.07646
vn -0.999 0 -0.04497
v -0.4566 0.0009392 -0.4138
vn -0.999 0 -0.04497
v -0.4566 -0.0009392 -0.4138
vn -0.999 0 -0.04497
v -0.4566 0.0009392 -0.4138
vn 0.6764 0 -0.7365
v -0.257 0.0009392 -0.2305
vn 0.6764 0 -0.7365
v -0.4566 -0.0009392 -0.4138
vn 0.6764 0 -0.7365
v -0.4566 -0.0009392 -0.4138
vn 0.6764 0 -0.7365
v -0.257 0.0009392 -0.2305
vn 0.6764 0 -0.7365
v -0.257 -0.0009392 -0.2305
vn 0.6764 0 -0.7365
f -165//-165 -164//-164 -163//-163
f -162//-162 -161//-161 -160//-160
f -159//-159 -158//-158 -157//-157
f -156//-156 -155//-155 -154//-154
f -153//-153 -152//-152 -151//-151
f -150//-150 -149//-149 -148//-148
f -147//-147 -146//-146 -145//-145
f -144//-144 -143//-143 -142//-142
f -141//-141 -140//-140 -139//-139
f -138//-138 -137//-137 -136//-136
f -135//-135 -134//-134 -133//-133
f -132//-132 -131//-131 -130//-130
f -129//-129 -128//-128 -127//-127
f -126//-126 -125//-125 -124//-124
f -123//-123 -122//-122 -121//-121
f -120//-120 -119//-119 -118//-118
f -117//-117 -116//-116 -115//-115
f -114//-114 -113//-113 -112//-112
f -111//-111 -110//-110 -109//-109
f -108//-108 -107//-107 -106//-106
f -105//-105 -104//-104 -103//-103
f -102//-102 -101//-101 -100//-100
f -99//-99 -98//-98 -97//-97
f -96//-96 -95//-95 -94//-94
f -93//-93 -92//-92 -91//-91
f -90//-90 -89//-89 -88//-88
f -87//-87 -86//-86 -85//-85
f -84//-84 -83//-83 -82//-82
f -81//-81 -80//-80 -79//-79
f -78//-78 -77//-77 -76//-76
f -75//-75 -74//-74 -73//-73
f -72//-72 -71//-71 -70//-70
f -69//-69 -68//-68 -67//-67
f -66//-66 -65//-65 -64//-64
f -63//-63 -62//-62 -61//-61
f -60//-60 -59//-59 -58//-58
f -57//-57 -56//-56 -55//-55
f -54//-54 -53//-53 -52//-52
f -51//-51 -50//-50 -49//-49
f -48//-48 -47//-47 -46//-46
f -45//-45 -44//-44 -43//-43
f -42//-42 -41//-41 -40//-40
f -39//-39 -38//-38 -37//-37
f -36//-36 -35//-35 -34//-34
f -33//-33 -32//-32 -31//-31
f -30//-30 -29//-29 -28//-28
f -27//-27 -26//-26 -25//-25
f -24//-24 -23//-23 -22//-22
f -21//-21 -20//-20 -19//-19
f -18//-18 -17//-17 -16//-16
f -15//-15 -14//-14 -13//-13
f -12//-12 -11//-11 -10//-10
f -9//-9 -8//-8 -7//-7
f -6//-6 -5//-5 -4//-4
f -3//-3 -2//-2 -1//-1
