mtllib scene_export-5.mtl
o polygons_4/0/0_CHUNK_MESH_mesh_geometry
s off
v -0.448 -0.0892 0.000939
vn 0 0 1
v -0.486 -0.0298 0.000939
vn 0 0 1
v -0.5 -0.366 0.000939
vn 0 0 1
v -0.486 -0.0298 0.000939
vn 0 0 1
v -0.448 -0.0892 0.000939
vn 0 0 1
v 0.0989 -0.314 0.000939
vn 0 0 1
v -0.486 -0.0298 0.000939
vn 0 0 1
v 0.0989 -0.314 0.000939
vn 0 0 1
v 0.192 -0.318 0.000939
vn 0 0 1
v 0.192 -0.318 0.000939
vn 0 0 1
v 0.0989 -0.314 0.000939
vn 0 0 1
v -0.0412 -0.414 0.000939
vn 0 0 1
v 0.0989 -0.314 0.000939
vn 0 0 1
v -0.0501 -0.38 0.000939
vn 0 0 1
v -0.0412 -0.414 0.000939
vn 0 0 1
v -0.0501 -0.38 0.000939
vn 0 0 1
v -0.453 -0.334 0.000939
vn 0 0 1
v -0.0412 -0.414 0.000939
vn 0 0 1
v -0.0412 -0.414 0.000939
vn 0 0 1
v -0.453 -0.334 0.000939
vn 0 0 1
v -0.5 -0.366 0.000939
vn 0 0 1
v -0.448 -0.0892 0.000939
vn 0 0 1
v -0.5 -0.366 0.000939
vn 0 0 1
v -0.453 -0.334 0.000939
vn 0 0 1
v -0.486 -0.0298 0.000939
vn 0.392 0.92 0
v 0.192 -0.318 0.000939
vn 0.392 0.92 0
v -0.486 -0.0298 -0.000939
vn 0.392 0.92 0
v -0.486 -0.0298 -0.000939
vn 0.392 0.92 0
v 0.192 -0.318 0.000939
vn 0.392 0.92 0
v 0.192 -0.318 -0.000939
vn 0.392 0.92 0
v 0.192 -0.318 0.000939
vn 0.379 -0.925 0
v -0.0412 -0.414 0.000939
vn 0.379 -0.925 0
v 0.192 -0.318 -0.000939
vn 0.379 -0.925 0
v 0.192 -0.318 -0.000939
vn 0.379 -0.925 0
v -0.0412 -0.414 0.000939
vn 0.379 -0.925 0
v -0.0412 -0.414 -0.000939
vn 0.379 -0.925 0
v -0.0412 -0.414 0.000939
vn -0.103 -0.995 0
v -0.5 -0.366 0.000939
vn -0.103 -0.995 0
v -0.0412 -0.414 -0.000939
vn -0.103 -0.995 0
v -0.0412 -0.414 -0.000939
vn -0.103 -0.995 0
v -0.5 -0.366 0.000939
vn -0.103 -0.995 0
v -0.5 -0.366 -0.000939
vn -0.103 -0.995 0
v -0.5 -0.366 0.000939
vn -0.999 0.0419 0
v -0.486 -0.0298 0.000939
vn -0.999 0.0419 0
v -0.5 -0.366 -0.000939
vn -0.999 0.0419 0
v -0.5 -0.366 -0.000939
vn -0.999 0.0419 0
v -0.486 -0.0298 0.000939
vn -0.999 0.0419 0
v -0.486 -0.0298 -0.000939
vn -0.999 0.0419 0
v -0.448 -0.0892 0.000939
vn 1 -0.023 0
v -0.453 -0.334 0.000939
vn 1 -0.023 0
v -0.448 -0.0892 -0.000939
vn 1 -0.023 0
v -0.448 -0.0892 -0.000939
vn 1 -0.023 0
v -0.453 -0.334 0.000939
vn 1 -0.023 0
v -0.453 -0.334 -0.000939
vn 1 -0.023 0
v -0.453 -0.334 0.000939
vn 0.114 0.993 0
v -0.0501 -0.38 0.000939
vn 0.114 0.993 0
v -0.453 -0.334 -0.000939
vn 0.114 0.993 0
v -0.453 -0.334 -0.000939
vn 0.114 0.993 0
v -0.0501 -0.38 0.000939
vn 0.114 0.993 0
v -0.0501 -0.38 -0.000939
vn 0.114 0.993 0
v -0.0501 -0.38 0.000939
vn -0.408 0.913 0
v 0.0989 -0.314 0.000939
vn -0.408 0.913 0
v -0.0501 -0.38 -0.000939
vn -0.408 0.913 0
v -0.0501 -0.38 -0.000939
vn -0.408 0.913 0
v 0.0989 -0.314 0.000939
vn -0.408 0.913 0
v 0.0989 -0.314 -0.000939
vn -0.408 0.913 0
v 0.0989 -0.314 0.000939
vn -0.38 -0.925 0
v -0.448 -0.0892 0.000939
vn -0.38 -0.925 0
v 0.0989 -0.314 -0.000939
vn -0.38 -0.925 0
v 0.0989 -0.314 -0.000939
vn -0.38 -0.925 0
v -0.448 -0.0892 0.000939
vn -0.38 -0.925 0
v -0.448 -0.0892 -0.000939
vn -0.38 -0.925 0
f -72//-72 -71//-71 -70//-70
f -69//-69 -68//-68 -67//-67
f -66//-66 -65//-65 -64//-64
f -63//-63 -62//-62 -61//-61
f -60//-60 -59//-59 -58//-58
f -57//-57 -56//-56 -55//-55
f -54//-54 -53//-53 -52//-52
f -51//-51 -50//-50 -49//-49
f -48//-48 -47//-47 -46//-46
f -45//-45 -44//-44 -43//-43
f -42//-42 -41//-41 -40//-40
f -39//-39 -38//-38 -37//-37
f -36//-36 -35//-35 -34//-34
f -33//-33 -32//-32 -31//-31
f -30//-30 -29//-29 -28//-28
f -27//-27 -26//-26 -25//-25
f -24//-24 -23//-23 -22//-22
f -21//-21 -20//-20 -19//-19
f -18//-18 -17//-17 -16//-16
f -15//-15 -14//-14 -13//-13
f -12//-12 -11//-11 -10//-10
f -9//-9 -8//-8 -7//-7
f -6//-6 -5//-5 -4//-4
f -3//-3 -2//-2 -1//-1
o polygons_4/0/10_CHUNK_MESH_mesh_geometry
s off
v -0.457 0.414 0.000939
vn 0 0 1
v -0.472 0.0765 0.000939
vn 0 0 1
v -0.257 0.23 0.000939
vn 0 0 1
v -0.257 0.23 0.000939
vn 0 0 1
v -0.472 0.0765 0.000939
vn 0 0 1
v 0.0184 -0.177 0.000939
vn 0 0 1
v -0.257 0.23 0.000939
vn 0.829 0.56 0
v 0.0184 -0.177 0.000939
vn 0.829 0.56 0
v -0.257 0.23 -0.000939
vn 0.829 0.56 0
v -0.257 0.23 -0.000939
vn 0.829 0.56 0
v 0.0184 -0.177 0.000939
vn 0.829 0.56 0
v 0.0184 -0.177 -0.000939
vn 0.829 0.56 0
v 0.0184 -0.177 0.000939
vn -0.46 -0.888 0
v -0.472 0.0765 0.000939
vn -0.46 -0.888 0
v 0.0184 -0.177 -0.000939
vn -0.46 -0.888 0
v 0.0184 -0.177 -0.000939
vn -0.46 -0.888 0
v -0.472 0.0765 0.000939
vn -0.46 -0.888 0
v -0.472 0.0765 -0.000939
vn -0.46 -0.888 0
v -0.472 0.0765 0.000939
vn -0.999 0.045 0
v -0.457 0.414 0.000939
vn -0.999 0.045 0
v -0.472 0.0765 -0.000939
vn -0.999 0.045 0
v -0.472 0.0765 -0.000939
vn -0.999 0.045 0
v -0.457 0.414 0.000939
vn -0.999 0.045 0
v -0.457 0.414 -0.000939
vn -0.999 0.045 0
v -0.457 0.414 0.000939
vn 0.676 0.736 0
v -0.257 0.23 0.000939
vn 0.676 0.736 0
v -0.457 0.414 -0.000939
vn 0.676 0.736 0
v -0.457 0.414 -0.000939
vn 0.676 0.736 0
v -0.257 0.23 0.000939
vn 0.676 0.736 0
v -0.257 0.23 -0.000939
vn 0.676 0.736 0
f -30//-30 -29//-29 -28//-28
f -27//-27 -26//-26 -25//-25
f -24//-24 -23//-23 -22//-22
f -21//-21 -20//-20 -19//-19
f -18//-18 -17//-17 -16//-16
f -15//-15 -14//-14 -13//-13
f -12//-12 -11//-11 -10//-10
f -9//-9 -8//-8 -7//-7
f -6//-6 -5//-5 -4//-4
f -3//-3 -2//-2 -1//-1
o polygons_4/10/2_CHUNK_MESH_mesh_geometry
s off
v 0.0597 0.114 0.000939
vn 0 0 1
v -0.209 0.2 0.000939
vn 0 0 1
v 0.129 -0.143 0.000939
vn 0 0 1
v 0.0597 0.114 0.000939
vn 0 0 1
v 0.129 -0.143 0.000939
vn 0 0 1
v 0.172 -0.135 0.000939
vn 0 0 1
v 0.0597 0.114 0.000939
vn 0 0 1
v 0.172 -0.135 0.000939
vn 0 0 1
v 0.5 -0.032 0.000939
vn 0 0 1
v 0.172 -0.135 0.000939
vn 0 0 1
v 0.215 -0.311 0.000939
vn 0 0 1
v 0.5 -0.032 0.000939
vn 0 0 1
v 0.172 -0.135 0.000939
vn 0 0 1
v 0.161 -0.168 0.000939
vn 0 0 1
v 0.215 -0.311 0.000939
vn 0 0 1
v 0.161 -0.168 0.000939
vn 0 0 1
v 0.129 -0.143 0.000939
vn 0 0 1
v 0.215 -0.311 0.000939
vn 0 0 1
v 0.215 -0.311 0.000939
vn 0 0 1
v 0.129 -0.143 0.000939
vn 0 0 1
v -0.209 0.2 0.000939
vn 0 0 1
v 0.0597 0.114 0.000939
vn 0.316 0.949 0
v 0.5 -0.032 0.000939
vn 0.316 0.949 0
v 0.0597 0.114 -0.000939
vn 0.316 0.949 0
v 0.0597 0.114 -0.000939
vn 0.316 0.949 0
v 0.5 -0.032 0.000939
vn 0.316 0.949 0
v 0.5 -0.032 -0.000939
vn 0.316 0.949 0
v 0.5 -0.032 0.000939
vn 0.699 -0.715 0
v 0.215 -0.311 0.000939
vn 0.699 -0.715 0
v 0.5 -0.032 -0.000939
vn 0.699 -0.715 0
v 0.5 -0.032 -0.000939
vn 0.699 -0.715 0
v 0.215 -0.311 0.000939
vn 0.699 -0.715 0
v 0.215 -0.311 -0.000939
vn 0.699 -0.715 0
v 0.215 -0.311 0.000939
vn -0.769 -0.639 0
v -0.209 0.2 0.000939
vn -0.769 -0.639 0
v 0.215 -0.311 -0.000939
vn -0.769 -0.639 0
v 0.215 -0.311 -0.000939
vn -0.769 -0.639 0
v -0.209 0.2 0.000939
vn -0.769 -0.639 0
v -0.209 0.2 -0.000939
vn -0.769 -0.639 0
v -0.209 0.2 0.000939
vn 0.304 0.953 0
v 0.0597 0.114 0.000939
vn 0.304 0.953 0
v -0.209 0.2 -0.000939
vn 0.304 0.953 0
v -0.209 0.2 -0.000939
vn 0.304 0.953 0
v 0.0597 0.114 0.000939
vn 0.304 0.953 0
v 0.0597 0.114 -0.000939
vn 0.304 0.953 0
v 0.172 -0.135 0.000939
vn 0.181 -0.983 0
v 0.129 -0.143 0.000939
vn 0.181 -0.983 0
v 0.172 -0.135 -0.000939
vn 0.181 -0.983 0
v 0.172 -0.135 -0.000939
vn 0.181 -0.983 0
v 0.129 -0.143 0.000939
vn 0.181 -0.983 0
v 0.129 -0.143 -0.000939
vn 0.181 -0.983 0
v 0.129 -0.143 0.000939
vn 0.618 0.786 0
v 0.161 -0.168 0.000939
vn 0.618 0.786 0
v 0.129 -0.143 -0.000939
vn 0.618 0.786 0
v 0.129 -0.143 -0.000939
vn 0.618 0.786 0
v 0.161 -0.168 0.000939
vn 0.618 0.786 0
v 0.161 -0.168 -0.000939
vn 0.618 0.786 0
v 0.161 -0.168 0.000939
vn -0.945 0.326 0
v 0.172 -0.135 0.000939
vn -0.945 0.326 0
v 0.161 -0.168 -0.000939
vn -0.945 0.326 0
v 0.161 -0.168 -0.000939
vn -0.945 0.326 0
v 0.172 -0.135 0.000939
vn -0.945 0.326 0
v 0.172 -0.135 -0.000939
vn -0.945 0.326 0
f -63//-63 -62//-62 -61//-61
f -60//-60 -59//-59 -58//-58
f -57//-57 -56//-56 -55//-55
f -54//-54 -53//-53 -52//-52
f -51//-51 -50//-50 -49//-49
f -48//-48 -47//-47 -46//-46
f -45//-45 -44//-44 -43//-43
f -42//-42 -41//-41 -40//-40
f -39//-39 -38//-38 -37//-37
f -36//-36 -35//-35 -34//-34
f -33//-33 -32//-32 -31//-31
f -30//-30 -29//-29 -28//-28
f -27//-27 -26//-26 -25//-25
f -24//-24 -23//-23 -22//-22
f -21//-21 -20//-20 -19//-19
f -18//-18 -17//-17 -16//-16
f -15//-15 -14//-14 -13//-13
f -12//-12 -11//-11 -10//-10
f -9//-9 -8//-8 -7//-7
f -6//-6 -5//-5 -4//-4
f -3//-3 -2//-2 -1//-1
