<svg enable-background="new 0 0 580 580" height="580" viewBox="0 0 580 580" width="580" xmlns="http://www.w3.org/2000/svg">
<path d="m547.919 115.72l-1.137-.579-239.477-78.33c-3.901-1.646-7.727-2.017-10.374-2.017-3.375 0-6.652.593-9.575 1.724l-252.466 75.305-1.121.529c-8.058 3.802-13.686 12.68-13.686 21.59v21.123c0 4.849 1.666 9.458 4.692 12.98 3.573 4.159 8.792 6.544 14.321 6.544 2.43 0 4.826-.447 7.143-1.33l250.635-74.757 237.695 77.746c2.465 1.023 5.026 1.541 7.64 1.541 10.588 0 18.882-8.542 18.882-19.445v-21.124c-.001-8.706-5.417-17.547-13.172-21.5z" fill="param(fill)" fill-opacity="param(fill-opacity)" stroke="param(outline)" stroke-opacity="param(outline-opacity)" stroke-width="param(outline-width)"/>
</svg>
