<svg height="141.061mm" viewBox="0 0 172.05501 141.061" width="172.05501mm" xmlns="http://www.w3.org/2000/svg"><path d="m0 0h172.055v141.061h-172.055z" fill="#fff"/><g fill="#00fa00"><path d="m25.64 20.936 20.488.014-.317 19.116zm57.789-.5.258 19.781-37.876-.151.317-19.116z"/><path d="m83.429 20.436.258 19.781 44.402-.141.455-19.435zm74.58-.204-7.725 19.834-22.195.01.455-19.435zm-112.198 19.834 26.156 31.296 11.736-.11-.016-31.035z"/><path d="m128.079 71.13-44.376.123-.016-31.036 44.402-.141z"/><path d="m128.089 40.076 22.195-.01-15.81 48.354-6.395-17.29zm-56.123 31.286 11.737-.11-.094 17.497z"/><path d="m128.079 71.13-.02 17.46 6.415-.17zm-44.47 17.619.094-17.496 44.376-.123-.02 17.46z"/></g><path d="m91.924 102.507 36.135-.15-4.838 13.909-6.804 14.665-3.629 2.57-3.78-2.72-7.559-12.247z" fill="none"/><g fill="none" stroke="#000" transform="translate(-20.864 -39.158)"><path d="m148.923 141.514.055-94.191" stroke-width=".265"/><path d="m171.148 79.224-141.515.302" stroke-width=".268"/><path d="m104.473 127.907.036-81.004m-37.834 32.321.101-32.238" stroke-width=".265"/><path d="m160.715 110.369h-131.384" stroke-width=".273"/><path d="m148.923 141.514-118.836.302" stroke-width=".277"/></g><g transform="translate(-20.864 -39.158)"><path d="m30.318 46.764-.162.209c22.724 17.605 39.94 35.416 53.207 51.887 16.759 20.806 27.22 39.476 34.533 52.907 3.657 6.715 6.527 12.12 9.008 15.834 1.24 1.856 2.383 3.29 3.487 4.255 1.103.966 2.178 1.466 3.261 1.42 1.084-.045 2.153-.637 3.254-1.789 1.102-1.152 2.243-2.868 3.48-5.203 2.476-4.669 5.338-11.808 8.985-21.814 7.294-20.013 17.727-51.492 34.45-97.557l-.249-.09c-1.78 4.907-3.49 9.848-5.133 14.427-13.777 38.418-22.801 65.256-29.316 83.13-3.646 10.002-6.506 17.134-8.969 21.78-1.231 2.322-2.363 4.023-3.437 5.146s-2.081 1.665-3.076 1.707-2-.416-3.075-1.356c-1.074-.94-2.21-2.356-3.443-4.203-2.468-3.693-5.337-9.098-8.994-15.814-7.315-13.434-17.786-32.122-34.559-52.946-13.28-16.487-30.51-34.313-53.252-51.931z" fill="#50166a" stroke="#820300" stroke-linecap="round" stroke-linejoin="bevel" stroke-width="2.3"/><path d="m183.82 46.914-153.664.059" fill="none" stroke="#0000fd" stroke-linecap="round" stroke-width="2"/><g font-family="sans-serif" font-size="10.583" font-weight="400" stroke-width=".265"><text x="29.18" y="78.619003"><tspan x="29.18" y="78.619003">-1m</tspan></text><text x="28.726" y="109.462"><tspan x="28.726" y="109.462">-2m</tspan></text><text x="29.330999" y="140.91"><tspan x="29.330999" y="140.91">-3m</tspan></text></g></g></svg>