<svg xmlns="http://www.w3.org/2000/svg" height="24" width="24"><linearGradient id="b" gradientUnits="userSpaceOnUse" x1="89.137" x2="147.777" y1="111.921" y2="168.101"><stop offset="0" stop-color="#ffe052"/><stop offset="1" stop-color="#ffc331"/></linearGradient><linearGradient id="a" gradientUnits="userSpaceOnUse" x1="55.549" x2="110.149" y1="77.07" y2="131.853"><stop offset="0" stop-color="#387eb8"/><stop offset="1" stop-color="#366994"/></linearGradient><path overflow="visible" d="M99.75 67.47c-28.032 0-26.28 12.155-26.28 12.155l.03 12.594h26.75V96H62.875s-17.938-2.034-17.938 26.25 15.657 27.28 15.657 27.28h9.343v-13.124s-.503-15.656 15.407-15.656h26.53s14.907.24 14.907-14.406v-24.22s2.264-14.655-27.03-14.655zM85 75.937c2.66 0 4.813 2.15 4.813 4.812 0 2.66-2.152 4.813-4.813 4.813-2.66 0-4.813-2.152-4.813-4.813 0-2.66 2.152-4.813 4.813-4.813z" fill="url(#a)" transform="matrix(.18112 0 0 .18207 -6.14 -10.284)"/><path overflow="visible" d="M100.546 177.315c28.032 0 26.28-12.156 26.28-12.156l-.03-12.595h-26.75v-3.78h37.375s17.94 2.033 17.94-26.25c0-28.286-15.658-27.283-15.658-27.283h-9.343v13.125s.502 15.657-15.408 15.657h-26.53s-14.907-.24-14.907 14.406v24.22s-2.263 14.655 27.03 14.655zm14.75-8.47c-2.66 0-4.812-2.15-4.812-4.81 0-2.663 2.15-4.814 4.812-4.814 2.662 0 4.813 2.152 4.813 4.814 0 2.66-2.152 4.812-4.814 4.812z" fill="url(#b)" transform="matrix(.18112 0 0 .18207 -6.14 -10.284)"/></svg>