<svg height="400" width="600" xmlns="http://www.w3.org/2000/svg"><g transform="matrix(1 0 0 1.000076 -.04 -96.05513)"><g><path d="m.040048 96.04776h599.99994v399.96927h-599.99994z" fill="#fff" fill-rule="evenodd" stroke-width="1pt"/><path d="m600.04006 437.79746-513.970074-341.749277h-86.029986v56.934997l515.89648 343.03425h84.10358z" fill="#09c"/></g><g><path d="m296.64841 401.23465c-60.13404 0-58.18121-56.57472-58.18121-56.57472v-86.83278h116.36002v86.83278s2.03689 56.57472-58.17881 56.57472" fill="#005bbf"/><path d="m296.64841 401.23465c-60.13404 0-58.18121-56.57472-58.18121-56.57472v-86.83278h116.36002v86.83278s2.03689 56.57472-58.17881 56.57472z" fill="none" stroke="#000" stroke-width="1.006399"/><path d="m296.13678 203.17868s-12.40632-6.03575-24.14249 2.85096c0 0-21.11837-3.0479-22.67247 17.18017-.06245.81902-.18975 2.32736.18736 2.76689.37712.43954.75423 1.25855.75423 1.82058 0 .56683.37712.88146.50443 1.13125.12489.25219.43955.62928.50201 1.69808.06245 1.06882-.12491 1.57079.88154 2.6396 1.00403 1.0688 1.06648 4.15033 1.06648 5.0294 0 .87906.62933 3.33131 1.06888 3.8357.43957.50197 1.1938 1.75812 1.1938 2.82693 0 1.0688.43957 4.02304.24981 4.7748-.18735.75417 1.13134 1.69808 2.32753 2.07517 1.1938.37709 16.03095 5.21674 37.65614 4.83965 21.62759-.37708 29.41488-1.52755 38.35031-4.7772 1.38115-.50199 1.63336-1.63324 1.50846-2.26252-.12731-.62686 0-2.63718.37711-3.14157.37711-.50197 2.89201-4.52501 2.38759-5.27918-.50202-.75417-.50202-2.3898 0-3.01668.50442-.62928 2.07773-3.65316 2.38759-4.9045.31226-1.25374.35309-2.73086.92957-3.168.57888-.43713.77344-1.85419.88394-2.14962.11288-.29782.53324-1.22012 1.11933-1.64044 0 0 1.09051-5.11105.41794-7.62335-.66775-2.5147-4.44129-13.32767-19.78046-11.06276 0 0-11.39988-8.63452-28.16343-4.44336" fill="#d81126"/><path d="m296.13678 203.17868s-12.40632-6.03575-24.14249 2.85096c0 0-21.11837-3.0479-22.67247 17.18017-.06245.81902-.18975 2.32736.18736 2.76689.37712.43954.75423 1.25855.75423 1.82058 0 .56683.37712.88146.50443 1.13125.12489.25219.43955.62928.50201 1.69808.06245 1.06882-.12491 1.57079.88154 2.6396 1.00403 1.0688 1.06648 4.15033 1.06648 5.0294 0 .87906.62933 3.33131 1.06888 3.8357.43957.50197 1.1938 1.75812 1.1938 2.82693 0 1.0688.43957 4.02304.24981 4.7748-.18735.75417 1.13134 1.69808 2.32753 2.07517 1.1938.37709 16.03095 5.21674 37.65614 4.83965 21.62759-.37708 29.41488-1.52755 38.35031-4.7772 1.38115-.50199 1.63336-1.63324 1.50846-2.26252-.12731-.62686 0-2.63718.37711-3.14157.37711-.50197 2.89201-4.52501 2.38759-5.27918-.50202-.75417-.50202-2.3898 0-3.01668.50442-.62928 2.07773-3.65316 2.38759-4.9045.31226-1.25374.35309-2.73086.92957-3.168.57888-.43713.77344-1.85419.88394-2.14962.11288-.29782.53324-1.22012 1.11933-1.64044 0 0 1.09051-5.11105.41794-7.62335-.66775-2.5147-4.44129-13.32767-19.78046-11.06276 0 0-11.39988-8.63452-28.16343-4.44336z" fill="none" stroke="#000" stroke-width="1.508397"/><path d="m337.64332 240.83432c-47.108-14.92006-83.4142-.73976-83.4142-.73976s.33627 1.64525.75422 2.14722c.42035.50198 1.00644 1.67647 1.00644 2.55794 0 .87906.08407 2.13761.08407 2.80772 0 .6677-.51403 3.67477 2.1738 3.63875 0 0 32.74165-12.8425 75.37713.6605 0 0 1.16737-1.04719 1.21061-2.55554.04083-1.50834.29064-3.10074.87912-3.93897.58609-.83823 1.92641-3.45621 1.92641-4.57786" fill="#bcac0b"/><path d="m293.96778 319.34721h-20.45302s-2.01288 18.2706 13.74664 23.80438v1.67647h3.35319v2.17844s-5.78401 5.19512-.75663 11.14682v1.8446h.8407v2.93261h.91996v4.7748s-.75423 17.05769-17.47694 25.22866v1.00635h44.65076v-1.00635c-16.72032-8.17097-17.47694-25.22866-17.47694-25.22866v-4.7748h.91996v-2.93261h.8383v-1.8446c5.02978-5.9517-.75423-11.14682-.75423-11.14682v-2.17844h3.35318v-1.67647c15.75952-5.53378 13.74664-23.80438 13.74664-23.80438h-25.45397" fill="#c8b100" fill-opacity=".941176"/><path d="m293.96778 319.34721h-20.45302s-2.01288 18.2706 13.74664 23.80438v1.67647h3.35319v2.17844s-5.78401 5.19512-.75663 11.14682v1.8446h.8407v2.93261h.91996v4.7748s-.75423 17.05769-17.47694 25.22866v1.00635h44.65076v-1.00635c-16.72032-8.17097-17.47694-25.22866-17.47694-25.22866v-4.7748h.91996v-2.93261h.8383v-1.8446c5.02978-5.9517-.75423-11.14682-.75423-11.14682v-2.17844h3.35318v-1.67647c15.75952-5.53378 13.74664-23.80438 13.74664-23.80438h-25.45397z" fill="none" stroke="#000" stroke-width="1.006399"/><path d="m286.58884 342.8994h19.74203m-19.06947 1.50834h18.39931m-15.04612 2.5147h11.56802m-12.32465 11.43984h13.20378m-12.32225 1.40506h11.52719m-11.52719 2.85095h11.48396m-18.52421 23.15349h25.52363m-32.73203 5.90846h39.98367m-41.49213.87906h43.04142" fill="none" stroke="#000" stroke-width=".2522"/><path d="m296.6388 318.2688c7.20119 0 13.04045-5.83881 13.04045-13.03944 0-7.20065-5.83926-13.03945-13.04045-13.03945-7.2012 0-13.04045 5.8388-13.04045 13.03945 0 7.20063 5.83925 13.03944 13.04045 13.03944" fill="#ccc"/><path d="m296.6388 318.2688c7.20119 0 13.04045-5.83881 13.04045-13.03944 0-7.20065-5.83926-13.03945-13.04045-13.03945-7.2012 0-13.04045 5.8388-13.04045 13.03945 0 7.20063 5.83925 13.03944 13.04045 13.03944z" fill="none" stroke="#000" stroke-width="1.006399"/><path d="m266.29435 279.95507h-8.13076v-8.13255h-7.20841v8.13255h-8.13076v7.20543h8.13076v8.13015h7.20841v-8.13015h8.13076z" fill="#ccc"/><path d="m266.29435 279.95507h-8.13076v-8.13255h-7.20841v8.13255h-8.13076v7.20543h8.13076v8.13015h7.20841v-8.13015h8.13076z" fill="none" stroke="#000" stroke-width="1.006399"/><path d="m350.79906 279.95507h-8.13076v-8.13255h-7.2108v8.13255h-8.12836v7.20543h8.12836v8.13015h7.2108v-8.13015h8.13076z" fill="#ccc"/><path d="m350.79906 279.95507h-8.13076v-8.13255h-7.2108v8.13255h-8.12836v7.20543h8.12836v8.13015h7.2108v-8.13015h8.13076z" fill="none" stroke="#000" stroke-width="1.006399"/><path d="m307.97624 269.73775h-8.13077v-8.13014h-7.20839v8.13014h-8.13077v7.20785h8.13077v8.13013h7.20839v-8.13013h8.13077z" fill="#ccc"/><path d="m307.97624 269.73775h-8.13077v-8.13014h-7.20839v8.13014h-8.13077v7.20785h8.13077v8.13013h7.20839v-8.13013h8.13077z" fill="none" stroke="#000" stroke-width="1.006399"/><path d="m266.29435 315.15605h-8.13076v-8.13014h-7.20841v8.13014h-8.13076v7.20784h8.13076v8.13014h7.20841v-8.13014h8.13076z" fill="#ccc"/><path d="m266.29435 315.15605h-8.13076v-8.13014h-7.20841v8.13014h-8.13076v7.20784h8.13076v8.13014h7.20841v-8.13014h8.13076z" fill="none" stroke="#000" stroke-width="1.006399"/><path d="m350.79906 315.15605h-8.13076v-8.13014h-7.2108v8.13014h-8.12836v7.20784h8.12836v8.13014h7.2108v-8.13014h8.13076z" fill="#ccc"/><path d="m350.79906 315.15605h-8.13076v-8.13014h-7.2108v8.13014h-8.12836v7.20784h8.12836v8.13014h7.2108v-8.13014h8.13076z" fill="none" stroke="#000" stroke-width="1.006399"/><path d="m266.29435 350.70529h-8.13076v-8.13254h-7.20841v8.13254h-8.13076v7.20785h8.13076v8.12773h7.20841v-8.12773h8.13076z" fill="#ccc"/><path d="m266.29435 350.70529h-8.13076v-8.13254h-7.20841v8.13254h-8.13076v7.20785h8.13076v8.12773h7.20841v-8.12773h8.13076z" fill="none" stroke="#000" stroke-width="1.006399"/><path d="m350.79906 350.70529h-8.13076v-8.13254h-7.2108v8.13254h-8.12836v7.20785h8.12836v8.12773h7.2108v-8.12773h8.13076z" fill="#ccc"/><path d="m350.79906 350.70529h-8.13076v-8.13254h-7.2108v8.13254h-8.12836v7.20785h8.12836v8.12773h7.2108v-8.12773h8.13076z" fill="none" stroke="#000" stroke-width="1.006399"/><path d="m296.53311 185.77274c4.3212 0 7.82571-3.50184 7.82571-7.82271 0-4.32086-3.50451-7.82271-7.82571-7.82271-4.32119 0-7.82331 3.50185-7.82331 7.82271 0 4.32087 3.50212 7.82271 7.82331 7.82271" fill="#005bbf"/><path d="m296.53311 185.77274c4.3212 0 7.82571-3.50184 7.82571-7.82271 0-4.32086-3.50451-7.82271-7.82571-7.82271-4.32119 0-7.82331 3.50185-7.82331 7.82271 0 4.32087 3.50212 7.82271 7.82331 7.82271z" fill="none" stroke="#000" stroke-width="1.006399"/><path d="m303.82798 176.56659h-6.41333v-10.37103h2.45003v-2.07517h-2.45003v-2.45226h-2.07533v2.45226h-2.45245v2.07517h2.45245v10.37103h-6.09868v1.38344h6.09868v.06245h2.07533v-.06245h6.41333z" fill="#fc0"/><path d="m303.82798 176.56659h-6.41333v-10.37103h2.45003v-2.07517h-2.45003v-2.45226h-2.07533v2.45226h-2.45245v2.07517h2.45245v10.37103h-6.09868v1.38344h6.09868v.06245h2.07533v-.06245h6.41333z" fill="#bcac0b" stroke="#000" stroke-width=".501998"/><path d="m265.20625 195.13261s5.78401-.6701 9.1348.67011c0 0-3.8408 4.36889-3.01691 10.14046.42034 2.93501 1.00643 4.44335 1.84473 5.86763.8383 1.42668 1.75826 4.35929 1.25624 6.70585h1.09051s1.09051-4.7772-.75423-7.46003c-1.84473-2.68042-2.7671-6.36961-.92236-10.22452 1.84234-3.85491 4.52537-5.36325 4.52537-5.36325 3.10097 1.25615 9.64162.08166 11.48395-1.25854 1.84233-1.34262 2.7647-3.18481-.67015-3.35294-3.43486-.16812-9.30295-.08406-13.3263 2.93502 0 0-2.09694-2.43304-12.57446-1.25855-10.47751 1.17448-18.05102 5.64907-20.36895 15.08819-1.17217 4.77721 3.26912 14.8336 7.37654 17.26424 0 0-.12491-1.63324.29305-2.80772 0 0-6.99943-7.83712-4.90249-15.12903 2.09455-7.2919 10.47752-12.06911 19.53066-11.81692" fill="#fc0"/><path d="m265.20625 195.13261s5.78401-.6701 9.1348.67011c0 0-3.8408 4.36889-3.01691 10.14046.42034 2.93501 1.00643 4.44335 1.84473 5.86763.8383 1.42668 1.75826 4.35929 1.25624 6.70585h1.09051s1.09051-4.7772-.75423-7.46003c-1.84473-2.68042-2.7671-6.36961-.92236-10.22452 1.84234-3.85491 4.52537-5.36325 4.52537-5.36325 3.10097 1.25615 9.64162.08166 11.48395-1.25854 1.84233-1.34262 2.7647-3.18481-.67015-3.35294-3.43486-.16812-9.30295-.08406-13.3263 2.93502 0 0-2.09694-2.43304-12.57446-1.25855-10.47751 1.17448-18.05102 5.64907-20.36895 15.08819-1.17217 4.77721 3.26912 14.8336 7.37654 17.26424 0 0-.12491-1.63324.29305-2.80772 0 0-6.99943-7.83712-4.90249-15.12903 2.09455-7.2919 10.47752-12.06911 19.53066-11.81692z" fill="#bcac0b" stroke="#000" stroke-width=".653319"/><path d="m284.89783 193.68912c1.81111-.14651 3.26192-.46114 3.2427-.70853-.01922-.24259-1.50365-.32425-3.31476-.17774s-3.26191.46355-3.2427.70854c.01922.24498 1.50365.32424 3.31476.17773" fill="#fff"/><path d="m278.30195 195.42563s-2.07293 1.94787 0 0c2.07532-1.94787 6.41333-3.26887 8.86577-2.70204 2.45004.56443-.44197.87906-1.25865.94151s-2.45244.37709-4.84003 0" fill="none" stroke="#000" stroke-width=".653319"/><path d="m327.73508 195.75948s-5.78162-.6677-9.1348.67251c0 0 3.8432 4.3665 3.01691 10.14046-.41795 2.93501-1.00404 4.44335-1.84233 5.86763-.84071 1.42187-1.76067 4.35929-1.25866 6.70586h-1.0905s-1.08811-4.7772.75422-7.46003c1.84475-2.68282 2.76711-6.36961.92237-10.22452-1.84233-3.85731-4.52536-5.36565-4.52536-5.36565-3.10099 1.25855-9.63923.08406-11.48396-1.25615-1.83993-1.34261-2.7647-3.18481.67016-3.35293 3.43726-.16813 9.30534-.08406 13.32869 2.93261 0 0 2.09455-2.43063 12.57206-1.25614 10.47992 1.17208 18.05102 5.64906 20.36895 15.08579 1.17458 4.7772-3.26912 14.836-7.37653 17.26664 0 0 .12729-1.63324-.29305-2.80772 0 0 6.99942-7.83712 4.90488-15.12903-2.09695-7.29191-10.47751-12.06911-19.53305-11.81933" fill="#fc0"/><path d="m327.73508 195.75948s-5.78162-.6677-9.1348.67251c0 0 3.8432 4.3665 3.01691 10.14046-.41795 2.93501-1.00404 4.44335-1.84233 5.86763-.84071 1.42187-1.76067 4.35929-1.25866 6.70586h-1.0905s-1.08811-4.7772.75422-7.46003c1.84475-2.68282 2.76711-6.36961.92237-10.22452-1.84233-3.85731-4.52536-5.36565-4.52536-5.36565-3.10099 1.25855-9.63923.08406-11.48396-1.25615-1.83993-1.34261-2.7647-3.18481.67016-3.35293 3.43726-.16813 9.30534-.08406 13.32869 2.93261 0 0 2.09455-2.43063 12.57206-1.25614 10.47992 1.17208 18.05102 5.64906 20.36895 15.08579 1.17458 4.7772-3.26912 14.836-7.37653 17.26664 0 0 .12729-1.63324-.29305-2.80772 0 0 6.99942-7.83712 4.90488-15.12903-2.09695-7.29191-10.47751-12.06911-19.53305-11.81933z" fill="#bcac0b" stroke="#000" stroke-width=".653319"/><path d="m308.04349 194.31839c-1.8087-.14651-3.26191-.46355-3.2427-.70853.02162-.24498 1.50365-.32425 3.31476-.17773 1.81111.14651 3.26432.46355 3.2451.70854-.02162.24497-1.50605.32424-3.31716.17772" fill="#fff"/><path d="m314.63938 196.05491s2.07533 1.94787 0 0c-2.07293-1.95028-6.41093-3.26887-8.86338-2.70445-2.45244.56683.43957.88147 1.25625.94392.81908.06245 2.45244.37708 4.84243 0" fill="none" stroke="#000" stroke-width=".653319"/><path d="m291.107 189.34904v22.29604c-.25221 2.17845 2.68063 5.27919 4.77757 6.20148 0 0 4.94572-1.67646 5.27959-6.20148v-23.55459h-1.67658v20.36738c-.08168 2.09678-1.42439 5.86763-3.26913 6.45608 0 0-3.603-.58845-3.77113-6.37202v-19.86059z" fill="#fc0"/><path d="m291.107 189.34904v22.29604c-.25221 2.17845 2.68063 5.27919 4.77757 6.20148 0 0 4.94572-1.67646 5.27959-6.20148v-23.55459h-1.67658v20.36738c-.08168 2.09678-1.42439 5.86763-3.26913 6.45608 0 0-3.603-.58845-3.77113-6.37202v-19.86059z" fill="#bcac0b" stroke="#000" stroke-width=".653319"/><path d="m241.77715 219.84247c1.47242 0 2.66622-1.1937 2.66622-2.66601 0-1.46992-1.1938-2.66602-2.66622-2.66602-1.47243 0-2.66622 1.1937-2.66622 2.66602 0 1.47231 1.19379 2.66601 2.66622 2.66601" fill="#fff"/><path d="m241.77715 219.84247c1.47242 0 2.66622-1.1937 2.66622-2.66601 0-1.46992-1.1938-2.66602-2.66622-2.66602-1.47243 0-2.66622 1.1937-2.66622 2.66602 0 1.47231 1.19379 2.66601 2.66622 2.66601z" fill="none" stroke="#000" stroke-width="1.006399"/><path d="m240.11016 213.71304c1.47483 0 2.66862-1.19369 2.66862-2.66601 0-1.46992-1.19379-2.66602-2.66862-2.66602-1.47242 0-2.66622 1.1937-2.66622 2.66602s1.1938 2.66601 2.66622 2.66601" fill="#fff"/><path d="m240.11016 213.71304c1.47483 0 2.66862-1.19369 2.66862-2.66601 0-1.46992-1.19379-2.66602-2.66862-2.66602-1.47242 0-2.66622 1.1937-2.66622 2.66602s1.1938 2.66601 2.66622 2.66601z" fill="none" stroke="#000" stroke-width="1.006399"/><path d="m240.9917 206.29624c1.47242 0 2.66622-1.1937 2.66622-2.66842 0-1.4723-1.1938-2.66601-2.66622-2.66601-1.47243 0-2.66622 1.19371-2.66622 2.66601 0 1.47472 1.19379 2.66842 2.66622 2.66842" fill="#fff"/><path d="m240.9917 206.29624c1.47242 0 2.66622-1.1937 2.66622-2.66842 0-1.4723-1.1938-2.66601-2.66622-2.66601-1.47243 0-2.66622 1.19371-2.66622 2.66601 0 1.47472 1.19379 2.66842 2.66622 2.66842z" fill="none" stroke="#000" stroke-width="1.006399"/><path d="m245.13995 200.13559c1.47483 0 2.66862-1.19371 2.66862-2.66601 0-1.47472-1.19379-2.66842-2.66862-2.66842-1.47242 0-2.66622 1.1937-2.66622 2.66842 0 1.4723 1.1938 2.66601 2.66622 2.66601" fill="#fff"/><path d="m245.13995 200.13559c1.47483 0 2.66862-1.19371 2.66862-2.66601 0-1.47472-1.19379-2.66842-2.66862-2.66842-1.47242 0-2.66622 1.1937-2.66622 2.66842 0 1.4723 1.1938 2.66601 2.66622 2.66601z" fill="none" stroke="#000" stroke-width="1.006399"/><path d="m250.04483 195.6418c1.47242 0 2.66622-1.19371 2.66622-2.66842 0-1.47231-1.1938-2.66601-2.66622-2.66601s-2.66862 1.1937-2.66862 2.66601c0 1.47471 1.1962 2.66842 2.66862 2.66842" fill="#fff"/><path d="m250.04483 195.6418c1.47242 0 2.66622-1.19371 2.66622-2.66842 0-1.47231-1.1938-2.66601-2.66622-2.66601s-2.66862 1.1937-2.66862 2.66601c0 1.47471 1.1962 2.66842 2.66862 2.66842z" fill="none" stroke="#000" stroke-width="1.006399"/><path d="m256.36208 193.1271c1.47243 0 2.66622-1.1937 2.66622-2.66842 0-1.47231-1.19379-2.66602-2.66622-2.66602-1.47242 0-2.66622 1.19371-2.66622 2.66602 0 1.47472 1.1938 2.66842 2.66622 2.66842" fill="#fff"/><path d="m256.36208 193.1271c1.47243 0 2.66622-1.1937 2.66622-2.66842 0-1.47231-1.19379-2.66602-2.66622-2.66602-1.47242 0-2.66622 1.19371-2.66622 2.66602 0 1.47472 1.1938 2.66842 2.66622 2.66842z" fill="none" stroke="#000" stroke-width="1.006399"/><path d="m262.96278 191.9334c1.47242 0 2.66621-1.19611 2.66621-2.66842 0-1.47232-1.19379-2.66601-2.66621-2.66601-1.47243 0-2.66622 1.19369-2.66622 2.66601 0 1.47231 1.19379 2.66842 2.66622 2.66842" fill="#fff"/><path d="m262.96278 191.9334c1.47242 0 2.66621-1.19611 2.66621-2.66842 0-1.47232-1.19379-2.66601-2.66621-2.66601-1.47243 0-2.66622 1.19369-2.66622 2.66601 0 1.47231 1.19379 2.66842 2.66622 2.66842z" fill="none" stroke="#000" stroke-width="1.006399"/><path d="m269.25121 191.55631c1.47243 0 2.66622-1.1961 2.66622-2.66842 0-1.47231-1.19379-2.66601-2.66622-2.66601-1.47483 0-2.66862 1.1937-2.66862 2.66601 0 1.47232 1.19379 2.66842 2.66862 2.66842" fill="#fff"/><path d="m269.25121 191.55631c1.47243 0 2.66622-1.1961 2.66622-2.66842 0-1.47231-1.19379-2.66601-2.66622-2.66601-1.47483 0-2.66862 1.1937-2.66862 2.66601 0 1.47232 1.19379 2.66842 2.66862 2.66842z" fill="none" stroke="#000" stroke-width="1.006399"/><path d="m274.90792 192.05829c1.47242 0 2.66622-1.19371 2.66622-2.66601 0-1.47472-1.1938-2.66842-2.66622-2.66842-1.47243 0-2.66622 1.1937-2.66622 2.66842 0 1.4723 1.19379 2.66601 2.66622 2.66601" fill="#fff"/><path d="m274.90792 192.05829c1.47242 0 2.66622-1.19371 2.66622-2.66601 0-1.47472-1.1938-2.66842-2.66622-2.66842-1.47243 0-2.66622 1.1937-2.66622 2.66842 0 1.4723 1.19379 2.66601 2.66622 2.66601z" fill="none" stroke="#000" stroke-width="1.006399"/><path d="m291.03734 190.04557c1.47243 0 2.66862-1.19371 2.66862-2.66601 0-1.46992-1.19619-2.66602-2.66862-2.66602s-2.66622 1.1937-2.66622 2.66602c0 1.4723 1.19379 2.66601 2.66622 2.66601" fill="#fff"/><path d="m291.03734 190.04557c1.47243 0 2.66862-1.19371 2.66862-2.66601 0-1.46992-1.19619-2.66602-2.66862-2.66602s-2.66622 1.1937-2.66622 2.66602c0 1.4723 1.19379 2.66601 2.66622 2.66601z" fill="none" stroke="#000" stroke-width="1.006399"/><path d="m296.19203 191.42901c1.47243 0 2.66862-1.1937 2.66862-2.66601s-1.19619-2.66602-2.66862-2.66602-2.66622 1.19371-2.66622 2.66602 1.19379 2.66601 2.66622 2.66601" fill="#fff"/><path d="m296.19203 191.42901c1.47243 0 2.66862-1.1937 2.66862-2.66601s-1.19619-2.66602-2.66862-2.66602-2.66622 1.19371-2.66622 2.66602 1.19379 2.66601 2.66622 2.66601z" fill="none" stroke="#000" stroke-width="1.006399"/><path d="m296.19203 211.16712c1.47243 0 2.66862-1.19371 2.66862-2.66601 0-1.47232-1.19619-2.66602-2.66862-2.66602s-2.66622 1.1937-2.66622 2.66602c0 1.4723 1.19379 2.66601 2.66622 2.66601" fill="#fff"/><path d="m296.19203 211.16712c1.47243 0 2.66862-1.19371 2.66862-2.66601 0-1.47232-1.19619-2.66602-2.66862-2.66602s-2.66622 1.1937-2.66622 2.66602c0 1.4723 1.19379 2.66601 2.66622 2.66601z" fill="none" stroke="#000" stroke-width="1.006399"/><path d="m351.32751 221.54055c1.47242 0 2.66621-1.19369 2.66621-2.66841 0-1.47232-1.19379-2.66602-2.66621-2.66602-1.47483 0-2.66862 1.1937-2.66862 2.66602 0 1.47472 1.19379 2.66841 2.66862 2.66841" fill="#fff"/><path d="m351.32751 221.54055c1.47242 0 2.66621-1.19369 2.66621-2.66841 0-1.47232-1.19379-2.66602-2.66621-2.66602-1.47483 0-2.66862 1.1937-2.66862 2.66602 0 1.47472 1.19379 2.66841 2.66862 2.66841z" fill="none" stroke="#000" stroke-width="1.006399"/><path d="m352.70866 214.90674c1.47482 0 2.66862-1.1937 2.66862-2.66601s-1.1938-2.66602-2.66862-2.66602c-1.47243 0-2.66622 1.19371-2.66622 2.66602s1.19379 2.66601 2.66622 2.66601" fill="#fff"/><path d="m352.70866 214.90674c1.47482 0 2.66862-1.1937 2.66862-2.66601s-1.1938-2.66602-2.66862-2.66602c-1.47243 0-2.66622 1.19371-2.66622 2.66602s1.19379 2.66601 2.66622 2.66601z" fill="none" stroke="#000" stroke-width="1.006399"/><path d="m351.57731 207.99432c1.47483 0 2.66862-1.1937 2.66862-2.66841 0-1.47231-1.19379-2.66602-2.66862-2.66602-1.47242 0-2.66622 1.19371-2.66622 2.66602 0 1.47471 1.1938 2.66841 2.66622 2.66841" fill="#fff"/><path d="m351.57731 207.99432c1.47483 0 2.66862-1.1937 2.66862-2.66841 0-1.47231-1.19379-2.66602-2.66862-2.66602-1.47242 0-2.66622 1.19371-2.66622 2.66602 0 1.47471 1.1938 2.66841 2.66622 2.66841z" fill="none" stroke="#000" stroke-width="1.006399"/><path d="m348.68531 201.45659c1.47483 0 2.66862-1.19611 2.66862-2.66842 0-1.46991-1.19379-2.66601-2.66862-2.66601-1.47243 0-2.66622 1.1937-2.66622 2.66601s1.19379 2.66842 2.66622 2.66842" fill="#fff"/><path d="m348.68531 201.45659c1.47483 0 2.66862-1.19611 2.66862-2.66842 0-1.46991-1.19379-2.66601-2.66862-2.66601-1.47243 0-2.66622 1.1937-2.66622 2.66601s1.19379 2.66842 2.66622 2.66842z" fill="none" stroke="#000" stroke-width="1.006399"/><path d="m343.78283 196.92916c1.47242 0 2.66622-1.1937 2.66622-2.66601s-1.1938-2.66601-2.66622-2.66601c-1.47243 0-2.66862 1.1937-2.66862 2.66601s1.19619 2.66601 2.66862 2.66601" fill="#fff"/><path d="m343.78283 196.92916c1.47242 0 2.66622-1.1937 2.66622-2.66601s-1.1938-2.66601-2.66622-2.66601c-1.47243 0-2.66862 1.1937-2.66862 2.66601s1.19619 2.66601 2.66862 2.66601z" fill="none" stroke="#000" stroke-width="1.006399"/><path d="m337.87391 194.03738c1.47243 0 2.66622-1.1937 2.66622-2.66601s-1.19379-2.66602-2.66622-2.66602c-1.47482 0-2.66862 1.19371-2.66862 2.66602s1.1938 2.66601 2.66862 2.66601" fill="#fff"/><path d="m337.87391 194.03738c1.47243 0 2.66622-1.1937 2.66622-2.66601s-1.19379-2.66602-2.66622-2.66602c-1.47482 0-2.66862 1.19371-2.66862 2.66602s1.1938 2.66601 2.66862 2.66601z" fill="none" stroke="#000" stroke-width="1.006399"/><path d="m331.14591 192.49782c1.47483 0 2.66863-1.1937 2.66863-2.66602 0-1.4699-1.1938-2.666-2.66863-2.666-1.47243 0-2.66622 1.1937-2.66622 2.666 0 1.47232 1.19379 2.66602 2.66622 2.66602" fill="#fff"/><path d="m331.14591 192.49782c1.47483 0 2.66863-1.1937 2.66863-2.66602 0-1.4699-1.1938-2.666-2.66863-2.666-1.47243 0-2.66622 1.1937-2.66622 2.666 0 1.47232 1.19379 2.66602 2.66622 2.66602z" fill="none" stroke="#000" stroke-width="1.006399"/><path d="m324.98479 191.99584c1.47482 0 2.66861-1.1937 2.66861-2.66841 0-1.46992-1.19379-2.66602-2.66861-2.66602-1.47243 0-2.66622 1.1937-2.66622 2.66602 0 1.47471 1.19379 2.66841 2.66622 2.66841" fill="#fff"/><path d="m324.98479 191.99584c1.47482 0 2.66861-1.1937 2.66861-2.66841 0-1.46992-1.19379-2.66602-2.66861-2.66602-1.47243 0-2.66622 1.1937-2.66622 2.66602 0 1.47471 1.19379 2.66841 2.66622 2.66841z" fill="none" stroke="#000" stroke-width="1.006399"/><path d="m319.40014 191.26088c1.47483 0 2.66862-1.1937 2.66862-2.666 0-1.47232-1.19379-2.66602-2.66862-2.66602-1.47243 0-2.66622 1.1937-2.66622 2.66602 0 1.4723 1.19379 2.666 2.66622 2.666" fill="#fff"/><path d="m319.40014 191.26088c1.47483 0 2.66862-1.1937 2.66862-2.666 0-1.47232-1.19379-2.66602-2.66862-2.66602-1.47243 0-2.66622 1.1937-2.66622 2.66602 0 1.4723 1.19379 2.666 2.66622 2.666z" fill="none" stroke="#000" stroke-width="1.006399"/><path d="m323.00554 213.08617c1.47243 0 2.66622-1.1961 2.66622-2.66842 0-1.4699-1.19379-2.66601-2.66622-2.66601-1.47242 0-2.66622 1.1937-2.66622 2.66601 0 1.47232 1.1938 2.66842 2.66622 2.66842" fill="#fff"/><path d="m323.00554 213.08617c1.47243 0 2.66622-1.1961 2.66622-2.66842 0-1.4699-1.19379-2.66601-2.66622-2.66601-1.47242 0-2.66622 1.1937-2.66622 2.66601 0 1.47232 1.1938 2.66842 2.66622 2.66842z" fill="none" stroke="#000" stroke-width="1.006399"/><path d="m324.38909 207.92947c1.47243 0 2.66622-1.1937 2.66622-2.66601s-1.19379-2.66602-2.66622-2.66602c-1.47482 0-2.66861 1.19371-2.66861 2.66602s1.19379 2.66601 2.66861 2.66601" fill="#fff"/><path d="m324.38909 207.92947c1.47243 0 2.66622-1.1937 2.66622-2.66601s-1.19379-2.66602-2.66622-2.66602c-1.47482 0-2.66861 1.19371-2.66861 2.66602s1.19379 2.66601 2.66861 2.66601z" fill="none" stroke="#000" stroke-width="1.006399"/><path d="m301.97604 190.86458c1.47483 0 2.66863-1.1961 2.66863-2.66841s-1.1938-2.66601-2.66863-2.66601c-1.47243 0-2.66622 1.1937-2.66622 2.66601s1.19379 2.66841 2.66622 2.66841" fill="#fff"/><path d="m301.97604 190.86458c1.47483 0 2.66863-1.1961 2.66863-2.66841s-1.1938-2.66601-2.66863-2.66601c-1.47243 0-2.66622 1.1937-2.66622 2.66601s1.19379 2.66841 2.66622 2.66841z" fill="none" stroke="#000" stroke-width="1.006399"/><path d="m288.92599 190.14164c1.47482 0 2.66862-1.1937 2.66862-2.66842 0-1.4699-1.1938-2.66361-2.66862-2.66361-1.47243 0-2.66622 1.19131-2.66622 2.66361 0 1.47472 1.19379 2.66842 2.66622 2.66842" fill="#fff"/><path d="m288.92599 190.14164c1.47482 0 2.66862-1.1937 2.66862-2.66842 0-1.4699-1.1938-2.66361-2.66862-2.66361-1.47243 0-2.66622 1.19131-2.66622 2.66361 0 1.47472 1.19379 2.66842 2.66622 2.66842z" fill="none" stroke="#000" stroke-width="1.006399"/><path d="m285.78416 190.01434c1.47243 0 2.66622-1.1937 2.66622-2.66601s-1.19379-2.66601-2.66622-2.66601c-1.47242 0-2.66621 1.1937-2.66621 2.66601s1.19379 2.66601 2.66621 2.66601" fill="#fff"/><path d="m285.78416 190.01434c1.47243 0 2.66622-1.1937 2.66622-2.66601s-1.19379-2.66601-2.66622-2.66601c-1.47242 0-2.66621 1.1937-2.66621 2.66601s1.19379 2.66601 2.66621 2.66601z" fill="none" stroke="#000" stroke-width="1.006399"/><path d="m268.84047 213.14861c1.47242 0 2.66862-1.19369 2.66862-2.66841 0-1.47231-1.1962-2.66602-2.66862-2.66602-1.47243 0-2.66622 1.19371-2.66622 2.66602 0 1.47472 1.19379 2.66841 2.66622 2.66841" fill="#fff"/><path d="m268.84047 213.14861c1.47242 0 2.66862-1.19369 2.66862-2.66841 0-1.47231-1.1962-2.66602-2.66862-2.66602-1.47243 0-2.66622 1.19371-2.66622 2.66602 0 1.47472 1.19379 2.66841 2.66622 2.66841z" fill="none" stroke="#000" stroke-width="1.006399"/><path d="m268.05502 206.76699c1.47242 0 2.66862-1.19369 2.66862-2.66601 0-1.47231-1.1962-2.66602-2.66862-2.66602-1.47243 0-2.66622 1.19371-2.66622 2.66602 0 1.47232 1.19379 2.66601 2.66622 2.66601" fill="#fff"/><path d="m268.05502 206.76699c1.47242 0 2.66862-1.19369 2.66862-2.66601 0-1.47231-1.1962-2.66602-2.66862-2.66602-1.47243 0-2.66622 1.19371-2.66622 2.66602 0 1.47232 1.19379 2.66601 2.66622 2.66601z" fill="none" stroke="#000" stroke-width="1.006399"/><path d="m269.94059 200.60635c1.47482 0 2.66861-1.19371 2.66861-2.66602s-1.19379-2.66601-2.66861-2.66601c-1.47243 0-2.66622 1.1937-2.66622 2.66601s1.19379 2.66602 2.66622 2.66602" fill="#fff"/><path d="m269.94059 200.60635c1.47482 0 2.66861-1.19371 2.66861-2.66602s-1.19379-2.66601-2.66861-2.66601c-1.47243 0-2.66622 1.1937-2.66622 2.66601s1.19379 2.66602 2.66622 2.66602z" fill="none" stroke="#000" stroke-width="1.006399"/><path d="m281.66474 190.61239c1.47483 0 2.66862-1.1937 2.66862-2.666 0-1.47472-1.19379-2.66842-2.66862-2.66842-1.47242 0-2.66622 1.1937-2.66622 2.66842 0 1.4723 1.1938 2.666 2.66622 2.666" fill="#fff"/><path d="m281.66474 190.61239c1.47483 0 2.66862-1.1937 2.66862-2.666 0-1.47472-1.19379-2.66842-2.66862-2.66842-1.47242 0-2.66622 1.1937-2.66622 2.66842 0 1.4723 1.1938 2.666 2.66622 2.666z" fill="none" stroke="#000" stroke-width="1.006399"/><path d="m277.23305 192.43537c1.47483 0 2.66862-1.1937 2.66862-2.66601 0-1.47471-1.19379-2.66841-2.66862-2.66841-1.47242 0-2.66622 1.1937-2.66622 2.66841 0 1.47231 1.1938 2.66601 2.66622 2.66601" fill="#fff"/><path d="m277.23305 192.43537c1.47483 0 2.66862-1.1937 2.66862-2.66601 0-1.47471-1.19379-2.66841-2.66862-2.66841-1.47242 0-2.66622 1.1937-2.66622 2.66841 0 1.47231 1.1938 2.66601 2.66622 2.66601z" fill="none" stroke="#000" stroke-width="1.006399"/><path d="m272.99112 196.01888c1.47243 0 2.66622-1.1961 2.66622-2.66842 0-1.47231-1.19379-2.666-2.66622-2.666-1.47482 0-2.66862 1.19369-2.66862 2.666 0 1.47232 1.1938 2.66842 2.66862 2.66842" fill="#fff"/><path d="m272.99112 196.01888c1.47243 0 2.66622-1.1961 2.66622-2.66842 0-1.47231-1.19379-2.666-2.66622-2.666-1.47482 0-2.66862 1.19369-2.66862 2.666 0 1.47232 1.1938 2.66842 2.66862 2.66842z" fill="none" stroke="#000" stroke-width="1.006399"/><path d="m296.19203 194.44809c1.47243 0 2.66862-1.1961 2.66862-2.66842 0-1.4699-1.19619-2.66601-2.66862-2.66601s-2.66622 1.19371-2.66622 2.66601c0 1.47232 1.19379 2.66842 2.66622 2.66842" fill="#fff"/><path d="m296.19203 194.44809c1.47243 0 2.66862-1.1961 2.66862-2.66842 0-1.4699-1.19619-2.66601-2.66862-2.66601s-2.66622 1.19371-2.66622 2.66601c0 1.47232 1.19379 2.66842 2.66622 2.66842z" fill="none" stroke="#000" stroke-width="1.006399"/><path d="m296.19203 199.47509c1.47243 0 2.66862-1.1937 2.66862-2.66601 0-1.47232-1.19619-2.66601-2.66862-2.66601s-2.66622 1.19369-2.66622 2.66601c0 1.47231 1.19379 2.66601 2.66622 2.66601" fill="#fff"/><path d="m296.19203 199.47509c1.47243 0 2.66862-1.1937 2.66862-2.66601 0-1.47232-1.19619-2.66601-2.66862-2.66601s-2.66622 1.19369-2.66622 2.66601c0 1.47231 1.19379 2.66601 2.66622 2.66601z" fill="none" stroke="#000" stroke-width="1.006399"/><path d="m296.19203 204.88157c1.47243 0 2.66862-1.1937 2.66862-2.66602 0-1.4699-1.19619-2.666-2.66862-2.666s-2.66622 1.1937-2.66622 2.666c0 1.47232 1.19379 2.66602 2.66622 2.66602" fill="#fff"/><path d="m296.19203 204.88157c1.47243 0 2.66862-1.1937 2.66862-2.66602 0-1.4699-1.19619-2.666-2.66862-2.666s-2.66622 1.1937-2.66622 2.666c0 1.47232 1.19379 2.66602 2.66622 2.66602z" fill="none" stroke="#000" stroke-width="1.006399"/><path d="m305.43492 190.17287c1.47242 0 2.66622-1.19611 2.66622-2.66842 0-1.46991-1.1938-2.66601-2.66622-2.66601-1.47483 0-2.66862 1.1937-2.66862 2.66601s1.19379 2.66842 2.66862 2.66842" fill="#fff"/><path d="m305.43492 190.17287c1.47242 0 2.66622-1.19611 2.66622-2.66842 0-1.46991-1.1938-2.66601-2.66622-2.66601-1.47483 0-2.66862 1.1937-2.66862 2.66601s1.19379 2.66842 2.66862 2.66842z" fill="none" stroke="#000" stroke-width="1.006399"/><path d="m309.08116 189.41869c1.47242 0 2.66622-1.1961 2.66622-2.66841 0-1.46991-1.1938-2.66602-2.66622-2.66602-1.47483 0-2.66862 1.19371-2.66862 2.66602s1.19379 2.66841 2.66862 2.66841" fill="#fff"/><path d="m309.08116 189.41869c1.47242 0 2.66622-1.1961 2.66622-2.66841 0-1.46991-1.1938-2.66602-2.66622-2.66602-1.47483 0-2.66862 1.19371-2.66862 2.66602s1.19379 2.66841 2.66862 2.66841z" fill="none" stroke="#000" stroke-width="1.006399"/><path d="m313.19818 190.07919c1.47242 0 2.66622-1.1961 2.66622-2.66841s-1.1938-2.66602-2.66622-2.66602c-1.47243 0-2.66622 1.19371-2.66622 2.66602s1.19379 2.66841 2.66622 2.66841" fill="#fff"/><path d="m313.19818 190.07919c1.47242 0 2.66622-1.1961 2.66622-2.66841s-1.1938-2.66602-2.66622-2.66602c-1.47243 0-2.66622 1.19371-2.66622 2.66602s1.19379 2.66841 2.66622 2.66841z" fill="none" stroke="#000" stroke-width="1.006399"/><path d="m323.50756 201.39174c1.47242 0 2.66862-1.1937 2.66862-2.66602 0-1.47231-1.1962-2.66601-2.66862-2.66601-1.47243 0-2.66622 1.1937-2.66622 2.66601 0 1.47232 1.19379 2.66602 2.66622 2.66602" fill="#fff"/><path d="m323.50756 201.39174c1.47242 0 2.66862-1.1937 2.66862-2.66602 0-1.47231-1.1962-2.66601-2.66862-2.66601-1.47243 0-2.66622 1.1937-2.66622 2.66601 0 1.47232 1.19379 2.66602 2.66622 2.66602z" fill="none" stroke="#000" stroke-width="1.006399"/><path d="m317.34643 192.4666c1.47483 0 2.66862-1.1937 2.66862-2.66602 0-1.47471-1.19379-2.66841-2.66862-2.66841-1.47242 0-2.66621 1.1937-2.66621 2.66841 0 1.47232 1.19379 2.66602 2.66621 2.66602" fill="#fff"/><path d="m317.34643 192.4666c1.47483 0 2.66862-1.1937 2.66862-2.66602 0-1.47471-1.19379-2.66841-2.66862-2.66841-1.47242 0-2.66621 1.1937-2.66621 2.66841 0 1.47232 1.19379 2.66602 2.66621 2.66602z" fill="none" stroke="#000" stroke-width="1.006399"/><path d="m321.11997 196.11255c1.47243 0 2.66622-1.1937 2.66622-2.66841 0-1.47232-1.19379-2.66602-2.66622-2.66602-1.47482 0-2.66862 1.1937-2.66862 2.66602 0 1.47471 1.1938 2.66841 2.66862 2.66841" fill="#fff"/><path d="m321.11997 196.11255c1.47243 0 2.66622-1.1937 2.66622-2.66841 0-1.47232-1.19379-2.66602-2.66622-2.66602-1.47482 0-2.66862 1.1937-2.66862 2.66602 0 1.47471 1.1938 2.66841 2.66862 2.66841z" fill="none" stroke="#000" stroke-width="1.006399"/><path d="m296.02148 236.04991-7.04026 3.52105 6.33648 3.98943 7.51105-3.75404z" fill="#fff"/><path d="m296.02148 236.04991-7.04026 3.52105 6.33648 3.98943 7.51105-3.75404z" fill="none" stroke="#000" stroke-width=".501998"/><path d="m280.62948 236.78967-10.56159 1.63323s-.1273 5.65868.37711 7.04212l10.8114-1.51074s.50442-5.27918-.62692-7.16461" fill="#fff"/><path d="m280.62948 236.78967-10.56159 1.63323s-.1273 5.65868.37711 7.04212l10.8114-1.51074s.50442-5.27918-.62692-7.16461z" fill="none" stroke="#000" stroke-width=".501998"/><path d="m279.4549 238.79999s-6.3701.58604-7.96263 1.17449l.08408 3.85491s4.19149-.75418 8.04669-1.09043z" fill="#058e6e" fill-opacity=".941176"/><path d="m279.4549 238.79999s-6.3701.58604-7.96263 1.17449l.08408 3.85491s4.19149-.75418 8.04669-1.09043z" fill="none" stroke="#000" stroke-width=".501998"/><path d="m310.74334 237.09229 10.55918 1.63565s.12731 5.65626-.37711 7.03971l-10.81139-1.50834s-.50442-5.28159.62932-7.16702" fill="#fff"/><path d="m310.74334 237.09229 10.55918 1.63565s.12731 5.65626-.37711 7.03971l-10.81139-1.50834s-.50442-5.28159.62932-7.16702z" fill="none" stroke="#000" stroke-width=".501998"/><path d="m311.91551 239.10501s6.3701.58605 7.96263 1.17209l-.08407 3.85491s-4.19149-.75416-8.04669-1.08802z" fill="#058e6e" fill-opacity=".941176"/><path d="m311.91551 239.10501s6.3701.58605 7.96263 1.17209l-.08407 3.85491s-4.19149-.75416-8.04669-1.08802z" fill="none" stroke="#000" stroke-width=".501998"/><path d="m254.22431 241.81907s37.04843-13.75759 84.15883 1.16248m-82.65037 6.75629s35.83541-13.40211 80.02979.59566m-79.86166-9.01882 7.2084 2.09438-5.02978 5.36566" fill="none" stroke="#000" stroke-width=".501998"/><path d="m256.06904 247.76836 4.10742-3.437-4.6935-.9223s.63893.72535.50682 1.39066c-.12971.6653.03843 2.38259.07926 2.96864" fill="#f00"/><path d="m256.06904 247.76836 4.10742-3.437-4.6935-.9223s.63893.72535.50682 1.39066c-.12971.6653.03843 2.38259.07926 2.96864z" fill="none" stroke="#000" stroke-width=".501998"/><path d="m337.58567 242.69813-7.66958 1.38345 5.15469 6.03335" fill="none" stroke="#000" stroke-width=".501998"/><path d="m335.32299 247.97971-2.892-3.01907 4.14824-.37709s-1.13134.75417-1.13134 1.38345c0 .62927.12731 1.50834-.1249 2.01271" fill="#f00"/><path d="m335.32299 247.97971-2.892-3.01907 4.14824-.37709s-1.13134.75417-1.13134 1.38345c0 .62927.12731 1.50834-.1249 2.01271z" fill="none" stroke="#000" stroke-width=".501998"/><path d="m265.29031 241.84548c.65335 0 1.18419-.42511 1.18419-.95111 0-.52119-.53084-.94632-1.18419-.94632-.65574 0-1.18658.42513-1.18658.94632 0 .526.53084.95111 1.18658.95111zm20.60675-2.34897c.65575 0 1.18659-.42512 1.18659-.94631 0-.526-.53084-.94872-1.18659-.94872-.65334 0-1.18418.42272-1.18418.94872 0 .52119.53084.94631 1.18418.94631zm0 3.35294c.65575 0 1.18659-.42513 1.18659-.94872 0-.5236-.53084-.94631-1.18659-.94631-.65334 0-1.18418.42271-1.18418.94631 0 .52359.53084.94872 1.18418.94872zm20.28488-3.18481c.65574 0 1.18658-.42272 1.18658-.94872 0-.52119-.53084-.94631-1.18658-.94631-.65334 0-1.18418.42271-1.18418.94631 0 .526.53084.94872 1.18418.94872zm20.11674 3.68918c.65575 0 1.18659-.42511 1.18659-.95111 0-.5212-.53084-.94632-1.18659-.94632-.65334 0-1.18418.42512-1.18418.94632 0 .526.53084.95111 1.18418.95111zm-.33387 2.68043c.65574 0 1.18658-.42512 1.18658-.94632 0-.52119-.53084-.95112-1.18658-.95112-.65575 0-1.1866.42753-1.1866.95112 0 .5212.53085.94632 1.1866.94632zm-19.78287-3.01668c.65574 0 1.18658-.42512 1.18658-.94871 0-.5212-.53084-.94632-1.18658-.94632-.65334 0-1.18418.42272-1.18418.94632 0 .52359.53084.94871 1.18418.94871zm-39.8972 3.01668c.65334 0 1.18419-.42512 1.18419-.94632 0-.52119-.53085-.95112-1.18419-.95112-.65575 0-1.18659.42753-1.18659.95112 0 .5212.53084.94632 1.18659.94632z" fill="none" stroke="#000" stroke-width=".501998"/><path d="m253.55415 231.0061s.16814 7.20785 4.86165 6.20148c4.6935-1.00635 4.19148-6.87398 4.52776-7.20784.33388-.33626.8359-.33626.8359-.33626s.67015 5.69951 5.02738 5.02941c4.35963-.67011 4.19149-7.70983 3.68947-8.88432l1.00644-.33625s1.67419 8.2142 6.70398 7.04212c5.02978-1.17449 4.52776-6.36961 4.52776-6.36961h.38672s1.12175 5.53137 5.14509 5.19512c4.02095-.33385 4.86165-1.67647 4.35722-7.20784l2.68303-.50198s-1.00643 8.04607 3.85281 7.87795c4.86405-.16813 5.02978-4.02304 5.36607-4.69314h.73261s.27383 5.6995 4.29718 5.6995c4.02334 0 4.85923-4.86127 4.85923-6.70587l3.92967.17534s-4.0954 7.53689 1.94082 8.54325c6.03382 1.00395 6.20196-4.86368 6.20196-4.86368h1.17217s-.16813 7.5441 3.18506 7.71223c3.35078.16812 5.36366-1.00636 5.69753-6.53774l1.84475.67011s-1.59974 8.94195-7.87856 7.37357c-3.35319-.83583-4.35963-4.69074-4.19149-5.69711 0 0-2.34435 4.18877-6.87212 2.84856-4.52536-1.34021-4.02334-4.52502-4.02334-5.53138 0 0-2.72147 4.99817-6.53825 3.85251-3.35078-1.00396-4.69351-2.17845-4.69351-4.52502 0 0-1.67658 3.85491-5.02978 3.68919-3.35319-.16813-5.02738-2.18085-5.19552-4.02304 0 0-.66536 3.60272-5.19792 3.85491-3.01691.16813-4.69351-1.3378-5.36367-3.35293 0 0-.86712 3.65076-5.19552 4.19117-2.68063.33625-5.36366-1.17209-6.03623-3.68679 0 0-.66775 4.85887-5.02738 5.53138-4.35963.6701-5.36606-2.34658-5.36606-2.34658s-.8359 3.85731-4.35723 4.69315c-3.52133.83823-5.86808-.6677-6.70638-4.18876-.83829-3.52106-.50201-5.0294-.50201-5.0294l1.34031 1.84219" fill="#fc0"/><path d="m253.55415 231.0061s.16814 7.20785 4.86165 6.20148c4.6935-1.00635 4.19148-6.87398 4.52776-7.20784.33388-.33626.8359-.33626.8359-.33626s.67015 5.69951 5.02738 5.02941c4.35963-.67011 4.19149-7.70983 3.68947-8.88432l1.00644-.33625s1.67419 8.2142 6.70398 7.04212c5.02978-1.17449 4.52776-6.36961 4.52776-6.36961h.38672s1.12175 5.53137 5.14509 5.19512c4.02095-.33385 4.86165-1.67647 4.35722-7.20784l2.68303-.50198s-1.00643 8.04607 3.85281 7.87795c4.86405-.16813 5.02978-4.02304 5.36607-4.69314h.73261s.27383 5.6995 4.29718 5.6995c4.02334 0 4.85923-4.86127 4.85923-6.70587l3.92967.17534s-4.0954 7.53689 1.94082 8.54325c6.03382 1.00395 6.20196-4.86368 6.20196-4.86368h1.17217s-.16813 7.5441 3.18506 7.71223c3.35078.16812 5.36366-1.00636 5.69753-6.53774l1.84475.67011s-1.59974 8.94195-7.87856 7.37357c-3.35319-.83583-4.35963-4.69074-4.19149-5.69711 0 0-2.34435 4.18877-6.87212 2.84856-4.52536-1.34021-4.02334-4.52502-4.02334-5.53138 0 0-2.72147 4.99817-6.53825 3.85251-3.35078-1.00396-4.69351-2.17845-4.69351-4.52502 0 0-1.67658 3.85491-5.02978 3.68919-3.35319-.16813-5.02738-2.18085-5.19552-4.02304 0 0-.66536 3.60272-5.19792 3.85491-3.01691.16813-4.69351-1.3378-5.36367-3.35293 0 0-.86712 3.65076-5.19552 4.19117-2.68063.33625-5.36366-1.17209-6.03623-3.68679 0 0-.66775 4.85887-5.02738 5.53138-4.35963.6701-5.36606-2.34658-5.36606-2.34658s-.8359 3.85731-4.35723 4.69315c-3.52133.83823-5.86808-.6677-6.70638-4.18876-.83829-3.52106-.50201-5.0294-.50201-5.0294l1.34031 1.84219z" fill="#bcac0b" stroke="#000" stroke-width=".653319"/><path d="m263.27744 231.32314c.91756 0 1.65978-.74216 1.65978-1.65966 0-.91509-.74222-1.65965-1.65978-1.65965-.91757 0-1.65978.74456-1.65978 1.65965 0 .9175.74221 1.65966 1.65978 1.65966" fill="#fc0"/><path d="m263.27744 231.32314c.91756 0 1.65978-.74216 1.65978-1.65966 0-.91509-.74222-1.65965-1.65978-1.65965-.91757 0-1.65978.74456-1.65978 1.65965 0 .9175.74221 1.65966 1.65978 1.65966z" fill="#bcac0b" stroke="#000" stroke-width=".653319"/><path d="m285.12362 227.8261c.91756 0 1.65978-.74456 1.65978-1.65965 0-.91749-.74222-1.65966-1.65978-1.65966-.91757 0-1.65978.74217-1.65978 1.65966 0 .91509.74221 1.65965 1.65978 1.65965" fill="#fc0"/><path d="m285.12362 227.8261c.91756 0 1.65978-.74456 1.65978-1.65965 0-.91749-.74222-1.65966-1.65978-1.65966-.91757 0-1.65978.74217-1.65978 1.65966 0 .91509.74221 1.65965 1.65978 1.65965z" fill="#bcac0b" stroke="#000" stroke-width=".653319"/><path d="m307.26284 228.47459c.91757 0 1.65978-.74456 1.65978-1.65965 0-.91749-.74221-1.65966-1.65978-1.65966-.91756 0-1.65978.74217-1.65978 1.65966 0 .91509.74222 1.65965 1.65978 1.65965" fill="#fc0"/><path d="m307.26284 228.47459c.91757 0 1.65978-.74456 1.65978-1.65965 0-.91749-.74221-1.65966-1.65978-1.65966-.91756 0-1.65978.74217-1.65978 1.65966 0 .91509.74222 1.65965 1.65978 1.65965z" fill="#bcac0b" stroke="#000" stroke-width=".653319"/><path d="m329.23393 232.00525c.91756 0 1.65977-.74456 1.65977-1.65965 0-.91749-.74221-1.65966-1.65977-1.65966-.91517 0-1.65739.74217-1.65739 1.65966 0 .91509.74222 1.65965 1.65739 1.65965" fill="#fc0"/><path d="m329.23393 232.00525c.91756 0 1.65977-.74456 1.65977-1.65965 0-.91749-.74221-1.65966-1.65977-1.65966-.91517 0-1.65739.74217-1.65739 1.65966 0 .91509.74222 1.65965 1.65739 1.65965z" fill="#bcac0b" stroke="#000" stroke-width=".653319"/><path d="m295.21441 225.9767h-1.50845c-.37712 1.50834-3.58378 2.45226-3.58378 2.45226-.37712-1.19371.43957-2.89179.43957-2.89179-3.70869-.94391-3.70869-2.26491-3.70869-2.26491.56447-1.25615 3.9609-1.44349 3.9609-1.44349-.88154-1.13125-.69178-2.95423-.69178-2.95423 2.26268.1273 4.14825 2.38741 4.14825 2.38741s-2.26268-1.12886-2.01047-5.1543c0 0 1.25624-.06004 2.01047.75417 0 0 0-4.33527 1.82312-4.83725h.18735c1.82312.50198 1.82312 4.83725 1.82312 4.83725.75423-.81421 2.01047-.75417 2.01047-.75417.25221 4.02304-2.01047 5.1543-2.01047 5.1543s1.88557-2.26011 4.14825-2.38741c0 0 .18976 1.82058-.69178 2.95423 0 0 3.39643.18734 3.9609 1.44349 0 0 0 1.321-3.70869 2.26491 0 0 .81669 1.69808.43957 2.89179 0 0-3.20666-.94392-3.58378-2.45226h-3.45648" fill="#fc0"/><path d="m295.21441 225.9767h-1.50845c-.37712 1.50834-3.58378 2.45226-3.58378 2.45226-.37712-1.19371.43957-2.89179.43957-2.89179-3.70869-.94391-3.70869-2.26491-3.70869-2.26491.56447-1.25615 3.9609-1.44349 3.9609-1.44349-.88154-1.13125-.69178-2.95423-.69178-2.95423 2.26268.1273 4.14825 2.38741 4.14825 2.38741s-2.26268-1.12886-2.01047-5.1543c0 0 1.25624-.06004 2.01047.75417 0 0 0-4.33527 1.82312-4.83725h.18735c1.82312.50198 1.82312 4.83725 1.82312 4.83725.75423-.81421 2.01047-.75417 2.01047-.75417.25221 4.02304-2.01047 5.1543-2.01047 5.1543s1.88557-2.26011 4.14825-2.38741c0 0 .18976 1.82058-.69178 2.95423 0 0 3.39643.18734 3.9609 1.44349 0 0 0 1.321-3.70869 2.26491 0 0 .81669 1.69808.43957 2.89179 0 0-3.20666-.94392-3.58378-2.45226h-3.45648z" fill="#bcac0b" stroke="#000" stroke-width=".653319"/><path d="m296.07193 226.83415c1.679 0 3.03853-1.35943 3.03853-3.0383 0-1.67646-1.35953-3.03589-3.03853-3.03589-1.67659 0-3.03612 1.35943-3.03612 3.03589 0 1.67887 1.35953 3.0383 3.03612 3.0383" fill="#fff"/><path d="m296.07193 226.83415c1.679 0 3.03853-1.35943 3.03853-3.0383 0-1.67646-1.35953-3.03589-3.03853-3.03589-1.67659 0-3.03612 1.35943-3.03612 3.03589 0 1.67887 1.35953 3.0383 3.03612 3.0383z" fill="none" stroke="#000" stroke-width=".40352"/><path d="m296.07193 225.45551c.91756 0 1.66219-.74216 1.66219-1.65966 0-.91509-.74463-1.65725-1.66219-1.65725-.91516 0-1.65738.74216-1.65738 1.65725 0 .9175.74222 1.65966 1.65738 1.65966" fill="#fff"/><path d="m296.07193 225.45551c.91756 0 1.66219-.74216 1.66219-1.65966 0-.91509-.74463-1.65725-1.66219-1.65725-.91516 0-1.65738.74216-1.65738 1.65725 0 .9175.74222 1.65966 1.65738 1.65966z" fill="none" stroke="#000" stroke-width=".2522"/><path d="m319.10709 227.94379 1.47483.31944c.04564 1.55397 2.98569 3.15118 2.98569 3.15118.61731-1.08802.17775-2.9182.17775-2.9182 3.82398-.13931 4.1002-1.42908 4.1002-1.42908-.28583-1.34982-3.56456-2.2505-3.56456-2.2505 1.09772-.9199 1.29949-2.74288 1.29949-2.74288-2.23867-.35306-4.5614 1.4603-4.5614 1.4603s2.45243-.62686 3.05534-4.61387c0 0-1.21781-.32425-2.12337.31222 0 0 .91276-4.2392-.76143-5.11345l-.18495-.04084c-1.88797.10809-2.80313 4.34729-2.80313 4.34729-.56448-.95833-1.80631-1.16248-1.80631-1.16248-1.09531 3.87893.87913 5.46413.87913 5.46413s-1.36674-2.61077-3.55255-3.21122c0 0-.56928 1.74131.05284 3.03348 0 0-3.358-.5308-4.17707.57884 0 0-.27624 1.28978 3.14902 2.99506 0 0-1.15777 1.48673-1.04007 2.73327 0 0 3.33397-.24499 4.02095-1.64044l1.47242.31704z" fill="#fc0"/><path d="m319.10709 227.94379 1.47483.31944c.04564 1.55397 2.98569 3.15118 2.98569 3.15118.61731-1.08802.17775-2.9182.17775-2.9182 3.82398-.13931 4.1002-1.42908 4.1002-1.42908-.28583-1.34982-3.56456-2.2505-3.56456-2.2505 1.09772-.9199 1.29949-2.74288 1.29949-2.74288-2.23867-.35306-4.5614 1.4603-4.5614 1.4603s2.45243-.62686 3.05534-4.61387c0 0-1.21781-.32425-2.12337.31222 0 0 .91276-4.2392-.76143-5.11345l-.18495-.04084c-1.88797.10809-2.80313 4.34729-2.80313 4.34729-.56448-.95833-1.80631-1.16248-1.80631-1.16248-1.09531 3.87893.87913 5.46413.87913 5.46413s-1.36674-2.61077-3.55255-3.21122c0 0-.56928 1.74131.05284 3.03348 0 0-3.358-.5308-4.17707.57884 0 0-.27624 1.28978 3.14902 2.99506 0 0-1.15777 1.48673-1.04007 2.73327 0 0 3.33397-.24499 4.02095-1.64044l1.47242.31704z" fill="#bcac0b" stroke="#000" stroke-width=".653319"/><path d="m318.08385 228.60188c-1.63816-.35306-2.68063-1.96948-2.32754-3.60992.35309-1.63803 1.96963-2.68282 3.6102-2.32736 1.64057.35307 2.68304 1.96949 2.32994 3.60992-.35549 1.63805-1.97204 2.68284-3.6126 2.32736" fill="#fff"/><path d="m318.08385 228.60188c-1.63816-.35306-2.68063-1.96948-2.32754-3.60992.35309-1.63803 1.96963-2.68282 3.6102-2.32736 1.64057.35307 2.68304 1.96949 2.32994 3.60992-.35549 1.63805-1.97204 2.68284-3.6126 2.32736z" fill="none" stroke="#000" stroke-width=".40352"/><path d="m318.37689 227.25447c-.89835-.19214-1.46762-1.07602-1.27306-1.97189.19216-.89347 1.07609-1.46511 1.97204-1.27056.89595.19215 1.46522 1.07841 1.27306 1.97189-.19456.89588-1.0785 1.46511-1.97204 1.27056" fill="#fff"/><path d="m318.37689 227.25447c-.89835-.19214-1.46762-1.07602-1.27306-1.97189.19216-.89347 1.07609-1.46511 1.97204-1.27056.89595.19215 1.46522 1.07841 1.27306 1.97189-.19456.89588-1.0785 1.46511-1.97204 1.27056z" fill="none" stroke="#000" stroke-width=".2522"/><path d="m272.26572 227.64837-1.49645.19695c-.17534 1.54676-3.23068 2.90379-3.23068 2.90379-.53084-1.13366.05525-2.92301.05525-2.92301-3.79997-.44674-3.97531-1.75573-3.97531-1.75573.39633-1.31859 3.7351-1.95508 3.7351-1.95508-1.02085-1.00395-1.07369-2.83653-1.07369-2.83653 2.26028-.17054 4.42928 1.82057 4.42928 1.82057s-2.39238-.82382-2.67342-4.84446c0 0 1.23943-.22817 2.09454.48277 0 0-.57167-4.29925 1.16497-5.03901l.18736-.02162c1.87356.25459 2.44524 4.55624 2.44524 4.55624.64133-.90788 1.89517-1.01356 1.89517-1.01356.78065 3.95578-1.31389 5.37286-1.31389 5.37286s1.57091-2.48828 3.79756-2.911c0 0 .42755 1.77975-.29545 3.01668 0 0 3.38922-.2618 4.11702.91029 0 0 .17295 1.30899-3.3796 2.73326 0 0 1.03525 1.57319.81907 2.80772 0 0-3.30274-.51158-3.87682-1.95748l-1.49644.19935z" fill="#fc0"/><path d="m272.26572 227.64837-1.49645.19695c-.17534 1.54676-3.23068 2.90379-3.23068 2.90379-.53084-1.13366.05525-2.92301.05525-2.92301-3.79997-.44674-3.97531-1.75573-3.97531-1.75573.39633-1.31859 3.7351-1.95508 3.7351-1.95508-1.02085-1.00395-1.07369-2.83653-1.07369-2.83653 2.26028-.17054 4.42928 1.82057 4.42928 1.82057s-2.39238-.82382-2.67342-4.84446c0 0 1.23943-.22817 2.09454.48277 0 0-.57167-4.29925 1.16497-5.03901l.18736-.02162c1.87356.25459 2.44524 4.55624 2.44524 4.55624.64133-.90788 1.89517-1.01356 1.89517-1.01356.78065 3.95578-1.31389 5.37286-1.31389 5.37286s1.57091-2.48828 3.79756-2.911c0 0 .42755 1.77975-.29545 3.01668 0 0 3.38922-.2618 4.11702.91029 0 0 .17295 1.30899-3.3796 2.73326 0 0 1.03525 1.57319.81907 2.80772 0 0-3.30274-.51158-3.87682-1.95748l-1.49644.19935z" fill="#bcac0b" stroke="#000" stroke-width=".653319"/><path d="m273.22892 228.38572c1.66458-.22097 2.83436-1.74852 2.61097-3.41297-.22098-1.66206-1.74865-2.83174-3.41083-2.60837-1.66459.22096-2.83196 1.74851-2.61097 3.41057.22098 1.66205 1.74864 2.83174 3.41083 2.61077" fill="#fff"/><path d="m273.22892 228.38572c1.66458-.22097 2.83436-1.74852 2.61097-3.41297-.22098-1.66206-1.74865-2.83174-3.41083-2.60837-1.66459.22096-2.83196 1.74851-2.61097 3.41057.22098 1.66205 1.74864 2.83174 3.41083 2.61077z" fill="none" stroke="#000" stroke-width=".40352"/><path d="m273.04877 227.01909c.90796-.12009 1.54689-.95352 1.42439-1.86381-.12011-.90789-.9536-1.54436-1.86156-1.42668-.91035.12249-1.54928.95593-1.42678 1.86381.1201.91029.95599 1.54677 1.86395 1.42668" fill="#fff"/><path d="m273.04877 227.01909c.90796-.12009 1.54689-.95352 1.42439-1.86381-.12011-.90789-.9536-1.54436-1.86156-1.42668-.91035.12249-1.54928.95593-1.42678 1.86381.1201.91029.95599 1.54677 1.86395 1.42668z" fill="none" stroke="#000" stroke-width=".2522"/><path d="m340.16061 234.10444s-.76142-1.99831-2.44283-1.28017c-1.6814.71815-1.50845.97994-3.0121.88868 0 0-.58609-1.79656.15372-2.57235 0 0-2.402-.89828-2.90642-3.00707 0 0 1.28748-1.49393 4.33802-.9367 0 0-.09609-1.51555.32186-2.18326 0 0 3.27633 1.01357 3.29314 2.84135 0 0-.98242-3.5859.74703-6.18947 0 0 1.53487.6581 1.43639 2.29133 0 0 .70619-3.36014 5.24836-2.45706 0 0-2.46204 2.18325-2.58454 3.1824-.1225.99916-2.17622 2.70205-2.21224 3.26887-.03123.56443-.28104 1.55638-.88394 2.14963-.6029.59324-.66295 1.59961-.61491 1.91425.04083.31943-.10329 1.69568-.88154 2.08957" fill="#fc0"/><path d="m340.16061 234.10444s-.76142-1.99831-2.44283-1.28017c-1.6814.71815-1.50845.97994-3.0121.88868 0 0-.58609-1.79656.15372-2.57235 0 0-2.402-.89828-2.90642-3.00707 0 0 1.28748-1.49393 4.33802-.9367 0 0-.09609-1.51555.32186-2.18326 0 0 3.27633 1.01357 3.29314 2.84135 0 0-.98242-3.5859.74703-6.18947 0 0 1.53487.6581 1.43639 2.29133 0 0 .70619-3.36014 5.24836-2.45706 0 0-2.46204 2.18325-2.58454 3.1824-.1225.99916-2.17622 2.70205-2.21224 3.26887-.03123.56443-.28104 1.55638-.88394 2.14963-.6029.59324-.66295 1.59961-.61491 1.91425.04083.31943-.10329 1.69568-.88154 2.08957z" fill="#bcac0b" stroke="#000" stroke-width=".653319"/><path d="m337.70097 230.11743c.32186-1.64524 1.91679-2.72125 3.56216-2.39941.46839.08886.88634.28581 1.24183.55482-.09127.56923-.34588 1.33541-.8455 1.82778-.6029.59324-.66295 1.59961-.61731 1.91425.03362.24978-.05525 1.14806-.46839 1.71729-.15613-.0072-.31466-.02161-.4708-.05284-1.64296-.31944-2.71905-1.91424-2.40199-3.56189" fill="#fff"/><path d="m337.70097 230.11743c.32186-1.64524 1.91679-2.72125 3.56216-2.39941.46839.08886.88634.28581 1.24183.55482-.09127.56923-.34588 1.33541-.8455 1.82778-.6029.59324-.66295 1.59961-.61731 1.91425.03362.24978-.05525 1.14806-.46839 1.71729-.15613-.0072-.31466-.02161-.4708-.05284-1.64296-.31944-2.71905-1.91424-2.40199-3.56189z" fill="none" stroke="#000" stroke-width=".40352"/><path d="m339.05569 230.38162c.17295-.89827 1.04487-1.48671 1.94562-1.31138.40834.07926.74703.30743.98722.61487-.09607.1489-.20417.29301-.32907.41551-.6029.59324-.66295 1.59961-.61731 1.91425.00721.06485.00721.17532-.0048.30502-.21379.04564-.44197.05284-.67017.00721-.90074-.17533-1.48683-1.04479-1.31149-1.94548" fill="#fff"/><path d="m339.05569 230.38162c.17295-.89827 1.04487-1.48671 1.94562-1.31138.40834.07926.74703.30743.98722.61487-.09607.1489-.20417.29301-.32907.41551-.6029.59324-.66295 1.59961-.61731 1.91425.00721.06485.00721.17532-.0048.30502-.21379.04564-.44197.05284-.67017.00721-.90074-.17533-1.48683-1.04479-1.31149-1.94548z" fill="none" stroke="#000" stroke-width=".2522"/><path d="m252.15139 233.26861s.87912-1.94787 2.51248-1.13126c1.63576.81662 1.446 1.06881 2.95687 1.06881 0 0 .68937-1.76053 0-2.57715 0 0 2.45003-.75416 3.07936-2.82933 0 0-1.19379-1.57078-4.27556-1.1937 0 0 .18975-1.51075-.18736-2.20006 0 0-3.33157.81661-3.45888 2.63959 0 0 1.1962-3.52106-.37711-6.2231 0 0-1.57091.56443-1.57091 2.20007 0 0-.50201-3.39617-5.09224-2.7669 0 0 2.32514 2.32736 2.38999 3.33132.06246 1.00636 2.01048 2.82934 2.01048 3.39616 0 .56443.18976 1.57078.75422 2.20006.56688.62928.56688 1.63324.50202 1.94788-.06245.31223 0 1.69568.75664 2.13761" fill="#fc0"/><path d="m252.15139 233.26861s.87912-1.94787 2.51248-1.13126c1.63576.81662 1.446 1.06881 2.95687 1.06881 0 0 .68937-1.76053 0-2.57715 0 0 2.45003-.75416 3.07936-2.82933 0 0-1.19379-1.57078-4.27556-1.1937 0 0 .18975-1.51075-.18736-2.20006 0 0-3.33157.81661-3.45888 2.63959 0 0 1.1962-3.52106-.37711-6.2231 0 0-1.57091.56443-1.57091 2.20007 0 0-.50201-3.39617-5.09224-2.7669 0 0 2.32514 2.32736 2.38999 3.33132.06246 1.00636 2.01048 2.82934 2.01048 3.39616 0 .56443.18976 1.57078.75422 2.20006.56688.62928.56688 1.63324.50202 1.94788-.06245.31223 0 1.69568.75664 2.13761z" fill="#bcac0b" stroke="#000" stroke-width=".653319"/><path d="m254.84162 229.43772c-.22098-1.66447-1.74625-2.83174-3.41083-2.61077-.4708.06244-.90076.23298-1.27307.48035.05765.57404.26422 1.35223.73501 1.87582.56688.62928.56688 1.63324.50202 1.94788-.04804.24498-.01441 1.14807.36751 1.73891.15373.0024.31226 0 .47079-.02162 1.66218-.22096 2.83195-1.74851 2.60857-3.41057" fill="#fff"/><path d="m254.84162 229.43772c-.22098-1.66447-1.74625-2.83174-3.41083-2.61077-.4708.06244-.90076.23298-1.27307.48035.05765.57404.26422 1.35223.73501 1.87582.56688.62928.56688 1.63324.50202 1.94788-.04804.24498-.01441 1.14807.36751 1.73891.15373.0024.31226 0 .47079-.02162 1.66218-.22096 2.83195-1.74851 2.60857-3.41057z" fill="none" stroke="#000" stroke-width=".40352"/><path d="m253.47729 229.61785c-.12011-.90788-.956-1.54677-1.86396-1.42667-.41554.05764-.76623.2642-1.02324.55481.08887.15612.18495.30503.30264.43713.56688.62928.56688 1.63324.50202 1.94788-.01201.06244-.01681.17053-.01441.30263.21138.06004.43957.07926.67016.05043.90795-.12249 1.54689-.95592 1.42679-1.86621" fill="#fff"/><g fill="none" stroke="#000"><path d="m253.47729 229.61785c-.12011-.90788-.956-1.54677-1.86396-1.42667-.41554.05764-.76623.2642-1.02324.55481.08887.15612.18495.30503.30264.43713.56688.62928.56688 1.63324.50202 1.94788-.01201.06244-.01681.17053-.01441.30263.21138.06004.43957.07926.67016.05043.90795-.12249 1.54689-.95592 1.42679-1.86621z" stroke-width=".2522"/><path d="m257.24122 251.62327s33.74808-13.21958 76.38356.28342" stroke-width="1.508397"/><path d="m338.38314 241.09612c-47.1104-14.92007-84.66085-.83823-84.66085-.83823" stroke-width=".501998"/></g><path d="m295.96865 237.79603-3.77354 1.88542 3.39642 2.13762 4.02335-2.01272z" fill="#f00"/><path d="m295.96865 237.79603-3.77354 1.88542 3.39642 2.13762 4.02335-2.01272z" fill="none" stroke="#000" stroke-width=".501998"/></g></g></svg>