<?xml version="1.0" encoding="UTF-8" standalone="no"?>
<!-- Created with Sodipodi ("http://www.sodipodi.com/") -->
<svg
   xmlns:dc="http://purl.org/dc/elements/1.1/"
   xmlns:cc="http://web.resource.org/cc/"
   xmlns:rdf="http://www.w3.org/1999/02/22-rdf-syntax-ns#"
   xmlns:svg="http://www.w3.org/2000/svg"
   xmlns="http://www.w3.org/2000/svg"
   xmlns:sodipodi="http://inkscape.sourceforge.net/DTD/sodipodi-0.dtd"
   xmlns:inkscape="http://www.inkscape.org/namespaces/inkscape"
   id="svg934"
   sodipodi:version="0.32"
   width="600"
   height="400"
   sodipodi:docbase="F:\Mis Documentos - Miaj Dokumentoj\Mis imágenes\++Wiki\Sullpukuna\SVG"
   sodipodi:docname="Flag_of_Galicia.svg"
   inkscape:version="0.43"
   version="1.0">
  <metadata
     id="metadata188">
    <rdf:RDF>
      <cc:Work
         rdf:about="">
        <dc:format>image/svg+xml</dc:format>
        <dc:type
           rdf:resource="http://purl.org/dc/dcmitype/StillImage" />
      </cc:Work>
    </rdf:RDF>
  </metadata>
  <defs
     id="defs936" />
  <sodipodi:namedview
     id="base"
     inkscape:zoom="1"
     inkscape:cx="342.97407"
     inkscape:cy="77.681573"
     inkscape:window-width="1024"
     inkscape:window-height="678"
     inkscape:window-x="-4"
     inkscape:window-y="-4"
     inkscape:current-layer="svg934" />
  <g
     id="g5162"
     transform="matrix(1,0,0,1.000076,-4e-2,-96.05513)">
    <rect
       y="96.04776"
       x="0.040048152"
       height="399.96927"
       width="599.99994"
       id="rect733"
       style="font-size:12px;fill:#ffffff;fill-opacity:1;fill-rule:evenodd;stroke-width:1pt" />
    <path
       id="path556"
       d="M 600.04006,437.79746 L 86.069986,96.048183 L 0.04,96.048183 L 0.04,152.98318 L 515.93648,496.01743 L 600.04006,496.01743 L 600.04006,437.79746"
       style="font-size:12px;fill:#0099cc" />
  </g>
  <g
     id="g4979"
     transform="matrix(1,0,0,1.000076,-4e-2,-96.05513)">
    <path
       id="path558"
       d="M 296.64841,401.23465 C 236.51437,401.23465 238.4672,344.65993 238.4672,344.65993 L 238.4672,257.82715 L 354.82722,257.82715 L 354.82722,344.65993 C 354.82722,344.65993 356.86411,401.23465 296.64841,401.23465"
       style="font-size:12px;fill:#005bbf;fill-opacity:1" />
    <path
       id="path559"
       d="M 296.64841,401.23465 C 236.51437,401.23465 238.4672,344.65993 238.4672,344.65993 L 238.4672,257.82715 L 354.82722,257.82715 L 354.82722,344.65993 C 354.82722,344.65993 356.86411,401.23465 296.64841,401.23465 z "
       style="font-size:12px;fill:none;stroke:#000000;stroke-width:1.0063988" />
    <path
       id="path560"
       d="M 296.13678,203.17868 C 296.13678,203.17868 283.73046,197.14293 271.99429,206.02964 C 271.99429,206.02964 250.87592,202.98174 249.32182,223.20981 C 249.25937,224.02883 249.13207,225.53717 249.50918,225.9767 C 249.8863,226.41624 250.26341,227.23525 250.26341,227.79728 C 250.26341,228.36411 250.64053,228.67874 250.76784,228.92853 C 250.89273,229.18072 251.20739,229.55781 251.26985,230.62661 C 251.3323,231.69543 251.14494,232.1974 252.15139,233.26621 C 253.15542,234.33501 253.21787,237.41654 253.21787,238.29561 C 253.21787,239.17467 253.8472,241.62692 254.28675,242.13131 C 254.72632,242.63328 255.48055,243.88943 255.48055,244.95824 C 255.48055,246.02704 255.92012,248.98128 255.73036,249.73304 C 255.54301,250.48721 256.8617,251.43112 258.05789,251.80821 C 259.25169,252.1853 274.08884,257.02495 295.71403,256.64786 C 317.34162,256.27078 325.12891,255.12031 334.06434,251.87066 C 335.44549,251.36867 335.6977,250.23742 335.5728,249.60814 C 335.44549,248.98128 335.5728,246.97096 335.94991,246.46657 C 336.32702,245.9646 338.84192,241.94156 338.3375,241.18739 C 337.83548,240.43322 337.83548,238.79759 338.3375,238.17071 C 338.84192,237.54143 340.41523,234.51755 340.72509,233.26621 C 341.03735,232.01247 341.07818,230.53535 341.65466,230.09821 C 342.23354,229.66108 342.4281,228.24402 342.5386,227.94859 C 342.65148,227.65077 343.07184,226.72847 343.65793,226.30815 C 343.65793,226.30815 344.74844,221.1971 344.07587,218.6848 C 343.40812,216.1701 339.63458,205.35713 324.29541,207.62204 C 324.29541,207.62204 312.89553,198.98752 296.13198,203.17868"
       style="font-size:12px;fill:#d81126;fill-opacity:1" />
    <path
       id="path561"
       d="M 296.13678,203.17868 C 296.13678,203.17868 283.73046,197.14293 271.99429,206.02964 C 271.99429,206.02964 250.87592,202.98174 249.32182,223.20981 C 249.25937,224.02883 249.13207,225.53717 249.50918,225.9767 C 249.8863,226.41624 250.26341,227.23525 250.26341,227.79728 C 250.26341,228.36411 250.64053,228.67874 250.76784,228.92853 C 250.89273,229.18072 251.20739,229.55781 251.26985,230.62661 C 251.3323,231.69543 251.14494,232.1974 252.15139,233.26621 C 253.15542,234.33501 253.21787,237.41654 253.21787,238.29561 C 253.21787,239.17467 253.8472,241.62692 254.28675,242.13131 C 254.72632,242.63328 255.48055,243.88943 255.48055,244.95824 C 255.48055,246.02704 255.92012,248.98128 255.73036,249.73304 C 255.54301,250.48721 256.8617,251.43112 258.05789,251.80821 C 259.25169,252.1853 274.08884,257.02495 295.71403,256.64786 C 317.34162,256.27078 325.12891,255.12031 334.06434,251.87066 C 335.44549,251.36867 335.6977,250.23742 335.5728,249.60814 C 335.44549,248.98128 335.5728,246.97096 335.94991,246.46657 C 336.32702,245.9646 338.84192,241.94156 338.3375,241.18739 C 337.83548,240.43322 337.83548,238.79759 338.3375,238.17071 C 338.84192,237.54143 340.41523,234.51755 340.72509,233.26621 C 341.03735,232.01247 341.07818,230.53535 341.65466,230.09821 C 342.23354,229.66108 342.4281,228.24402 342.5386,227.94859 C 342.65148,227.65077 343.07184,226.72847 343.65793,226.30815 C 343.65793,226.30815 344.74844,221.1971 344.07587,218.6848 C 343.40812,216.1701 339.63458,205.35713 324.29541,207.62204 C 324.29541,207.62204 312.89553,198.98752 296.13198,203.17868 L 296.13678,203.17868 z "
       style="font-size:12px;fill:none;stroke:#000000;stroke-width:1.50839722" />
    <path
       id="path562"
       d="M 337.64332,240.83432 C 290.53532,225.91426 254.22912,240.09456 254.22912,240.09456 C 254.22912,240.09456 254.56539,241.73981 254.98334,242.24178 C 255.40369,242.74376 255.98978,243.91825 255.98978,244.79972 C 255.98978,245.67878 256.07385,246.93733 256.07385,247.60744 C 256.07385,248.27514 255.55982,251.28221 258.24765,251.24619 C 258.24765,251.24619 290.9893,238.40369 333.62478,251.90669 C 333.62478,251.90669 334.79215,250.8595 334.83539,249.35115 C 334.87622,247.84281 335.12603,246.25041 335.71451,245.41218 C 336.3006,244.57395 337.64092,241.95597 337.64092,240.83432"
       style="font-size:12px;fill:#bcac0b;fill-opacity:1" />
    <path
       id="path563"
       d="M 293.96778,319.34721 L 273.51476,319.34721 C 273.51476,319.34721 271.50188,337.61781 287.2614,343.15159 L 287.2614,344.82806 L 290.61459,344.82806 L 290.61459,347.0065 C 290.61459,347.0065 284.83058,352.20162 289.85796,358.15332 L 289.85796,359.99792 L 290.69866,359.99792 L 290.69866,362.93053 L 291.61862,362.93053 L 291.61862,367.70533 C 291.61862,367.70533 290.86439,384.76302 274.14168,392.93399 L 274.14168,393.94034 L 318.79244,393.94034 L 318.79244,392.93399 C 302.07212,384.76302 301.3155,367.70533 301.3155,367.70533 L 301.3155,362.93053 L 302.23546,362.93053 L 302.23546,359.99792 L 303.07376,359.99792 L 303.07376,358.15332 C 308.10354,352.20162 302.31953,347.0065 302.31953,347.0065 L 302.31953,344.82806 L 305.67271,344.82806 L 305.67271,343.15159 C 321.43223,337.61781 319.41935,319.34721 319.41935,319.34721 L 293.96538,319.34721"
       style="font-size:12px;fill:#c8b100;fill-opacity:0.94117647" />
    <path
       id="path564"
       d="M 293.96778,319.34721 L 273.51476,319.34721 C 273.51476,319.34721 271.50188,337.61781 287.2614,343.15159 L 287.2614,344.82806 L 290.61459,344.82806 L 290.61459,347.0065 C 290.61459,347.0065 284.83058,352.20162 289.85796,358.15332 L 289.85796,359.99792 L 290.69866,359.99792 L 290.69866,362.93053 L 291.61862,362.93053 L 291.61862,367.70533 C 291.61862,367.70533 290.86439,384.76302 274.14168,392.93399 L 274.14168,393.94034 L 318.79244,393.94034 L 318.79244,392.93399 C 302.07212,384.76302 301.3155,367.70533 301.3155,367.70533 L 301.3155,362.93053 L 302.23546,362.93053 L 302.23546,359.99792 L 303.07376,359.99792 L 303.07376,358.15332 C 308.10354,352.20162 302.31953,347.0065 302.31953,347.0065 L 302.31953,344.82806 L 305.67271,344.82806 L 305.67271,343.15159 C 321.43223,337.61781 319.41935,319.34721 319.41935,319.34721 L 293.96538,319.34721 L 293.96778,319.34721 z "
       style="font-size:12px;fill:none;stroke:#000000;stroke-width:1.0063988" />
    <path
       id="path565"
       d="M 286.58884,342.8994 L 306.33087,342.8994 M 287.2614,344.40774 L 305.66071,344.40774 M 290.61459,346.92244 L 302.18261,346.92244 M 289.85796,358.36228 L 303.06174,358.36228 M 290.73949,359.76734 L 302.26668,359.76734 M 290.73949,362.61829 L 302.22345,362.61829 M 283.69924,385.77178 L 309.22287,385.77178 M 276.49084,391.68024 L 316.47451,391.68024 M 274.98238,392.5593 L 318.0238,392.5593"
       style="font-size:12px;fill:none;stroke:#000000;stroke-width:0.25220016" />
    <path
       id="path566"
       d="M 296.6388,318.2688 C 303.83999,318.2688 309.67925,312.42999 309.67925,305.22936 C 309.67925,298.02871 303.83999,292.18991 296.6388,292.18991 C 289.4376,292.18991 283.59835,298.02871 283.59835,305.22936 C 283.59835,312.42999 289.4376,318.2688 296.6388,318.2688"
       style="font-size:12px;fill:#cccccc;fill-opacity:1" />
    <path
       id="path567"
       d="M 296.6388,318.2688 C 303.83999,318.2688 309.67925,312.42999 309.67925,305.22936 C 309.67925,298.02871 303.83999,292.18991 296.6388,292.18991 C 289.4376,292.18991 283.59835,298.02871 283.59835,305.22936 C 283.59835,312.42999 289.4376,318.2688 296.6388,318.2688 z "
       style="font-size:12px;fill:none;stroke:#000000;stroke-width:1.0063988" />
    <path
       id="path568"
       d="M 266.29435,279.95507 L 258.16359,279.95507 L 258.16359,271.82252 L 250.95518,271.82252 L 250.95518,279.95507 L 242.82442,279.95507 L 242.82442,287.1605 L 250.95518,287.1605 L 250.95518,295.29065 L 258.16359,295.29065 L 258.16359,287.1605 L 266.29435,287.1605 L 266.29435,279.95507"
       style="font-size:12px;fill:#cccccc;fill-opacity:1" />
    <path
       id="path569"
       d="M 266.29435,279.95507 L 258.16359,279.95507 L 258.16359,271.82252 L 250.95518,271.82252 L 250.95518,279.95507 L 242.82442,279.95507 L 242.82442,287.1605 L 250.95518,287.1605 L 250.95518,295.29065 L 258.16359,295.29065 L 258.16359,287.1605 L 266.29435,287.1605 L 266.29435,279.95507"
       style="font-size:12px;fill:none;stroke:#000000;stroke-width:1.0063988" />
    <path
       id="path570"
       d="M 350.79906,279.95507 L 342.6683,279.95507 L 342.6683,271.82252 L 335.4575,271.82252 L 335.4575,279.95507 L 327.32914,279.95507 L 327.32914,287.1605 L 335.4575,287.1605 L 335.4575,295.29065 L 342.6683,295.29065 L 342.6683,287.1605 L 350.79906,287.1605 L 350.79906,279.95507"
       style="font-size:12px;fill:#cccccc;fill-opacity:1" />
    <path
       id="path571"
       d="M 350.79906,279.95507 L 342.6683,279.95507 L 342.6683,271.82252 L 335.4575,271.82252 L 335.4575,279.95507 L 327.32914,279.95507 L 327.32914,287.1605 L 335.4575,287.1605 L 335.4575,295.29065 L 342.6683,295.29065 L 342.6683,287.1605 L 350.79906,287.1605 L 350.79906,279.95507"
       style="font-size:12px;fill:none;stroke:#000000;stroke-width:1.0063988" />
    <path
       id="path572"
       d="M 307.97624,269.73775 L 299.84547,269.73775 L 299.84547,261.60761 L 292.63708,261.60761 L 292.63708,269.73775 L 284.50631,269.73775 L 284.50631,276.9456 L 292.63708,276.9456 L 292.63708,285.07573 L 299.84547,285.07573 L 299.84547,276.9456 L 307.97624,276.9456 L 307.97624,269.73775"
       style="font-size:12px;fill:#cccccc;fill-opacity:1" />
    <path
       id="path573"
       d="M 307.97624,269.73775 L 299.84547,269.73775 L 299.84547,261.60761 L 292.63708,261.60761 L 292.63708,269.73775 L 284.50631,269.73775 L 284.50631,276.9456 L 292.63708,276.9456 L 292.63708,285.07573 L 299.84547,285.07573 L 299.84547,276.9456 L 307.97624,276.9456 L 307.97624,269.73775"
       style="font-size:12px;fill:none;stroke:#000000;stroke-width:1.0063988" />
    <path
       id="path574"
       d="M 266.29435,315.15605 L 258.16359,315.15605 L 258.16359,307.02591 L 250.95518,307.02591 L 250.95518,315.15605 L 242.82442,315.15605 L 242.82442,322.36389 L 250.95518,322.36389 L 250.95518,330.49403 L 258.16359,330.49403 L 258.16359,322.36389 L 266.29435,322.36389 L 266.29435,315.15605"
       style="font-size:12px;fill:#cccccc;fill-opacity:1" />
    <path
       id="path575"
       d="M 266.29435,315.15605 L 258.16359,315.15605 L 258.16359,307.02591 L 250.95518,307.02591 L 250.95518,315.15605 L 242.82442,315.15605 L 242.82442,322.36389 L 250.95518,322.36389 L 250.95518,330.49403 L 258.16359,330.49403 L 258.16359,322.36389 L 266.29435,322.36389 L 266.29435,315.15605"
       style="font-size:12px;fill:none;stroke:#000000;stroke-width:1.0063988" />
    <path
       id="path576"
       d="M 350.79906,315.15605 L 342.6683,315.15605 L 342.6683,307.02591 L 335.4575,307.02591 L 335.4575,315.15605 L 327.32914,315.15605 L 327.32914,322.36389 L 335.4575,322.36389 L 335.4575,330.49403 L 342.6683,330.49403 L 342.6683,322.36389 L 350.79906,322.36389 L 350.79906,315.15605"
       style="font-size:12px;fill:#cccccc;fill-opacity:1" />
    <path
       id="path577"
       d="M 350.79906,315.15605 L 342.6683,315.15605 L 342.6683,307.02591 L 335.4575,307.02591 L 335.4575,315.15605 L 327.32914,315.15605 L 327.32914,322.36389 L 335.4575,322.36389 L 335.4575,330.49403 L 342.6683,330.49403 L 342.6683,322.36389 L 350.79906,322.36389 L 350.79906,315.15605"
       style="font-size:12px;fill:none;stroke:#000000;stroke-width:1.0063988" />
    <path
       id="path578"
       d="M 266.29435,350.70529 L 258.16359,350.70529 L 258.16359,342.57275 L 250.95518,342.57275 L 250.95518,350.70529 L 242.82442,350.70529 L 242.82442,357.91314 L 250.95518,357.91314 L 250.95518,366.04087 L 258.16359,366.04087 L 258.16359,357.91314 L 266.29435,357.91314 L 266.29435,350.70529"
       style="font-size:12px;fill:#cccccc;fill-opacity:1" />
    <path
       id="path579"
       d="M 266.29435,350.70529 L 258.16359,350.70529 L 258.16359,342.57275 L 250.95518,342.57275 L 250.95518,350.70529 L 242.82442,350.70529 L 242.82442,357.91314 L 250.95518,357.91314 L 250.95518,366.04087 L 258.16359,366.04087 L 258.16359,357.91314 L 266.29435,357.91314 L 266.29435,350.70529"
       style="font-size:12px;fill:none;stroke:#000000;stroke-width:1.0063988" />
    <path
       id="path580"
       d="M 350.79906,350.70529 L 342.6683,350.70529 L 342.6683,342.57275 L 335.4575,342.57275 L 335.4575,350.70529 L 327.32914,350.70529 L 327.32914,357.91314 L 335.4575,357.91314 L 335.4575,366.04087 L 342.6683,366.04087 L 342.6683,357.91314 L 350.79906,357.91314 L 350.79906,350.70529"
       style="font-size:12px;fill:#cccccc;fill-opacity:1" />
    <path
       id="path581"
       d="M 350.79906,350.70529 L 342.6683,350.70529 L 342.6683,342.57275 L 335.4575,342.57275 L 335.4575,350.70529 L 327.32914,350.70529 L 327.32914,357.91314 L 335.4575,357.91314 L 335.4575,366.04087 L 342.6683,366.04087 L 342.6683,357.91314 L 350.79906,357.91314 L 350.79906,350.70529"
       style="font-size:12px;fill:none;stroke:#000000;stroke-width:1.0063988" />
    <path
       id="path582"
       d="M 296.53311,185.77274 C 300.85431,185.77274 304.35882,182.2709 304.35882,177.95003 C 304.35882,173.62917 300.85431,170.12732 296.53311,170.12732 C 292.21192,170.12732 288.7098,173.62917 288.7098,177.95003 C 288.7098,182.2709 292.21192,185.77274 296.53311,185.77274"
       style="font-size:12px;fill:#005bbf;fill-opacity:1" />
    <path
       id="path583"
       d="M 296.53311,185.77274 C 300.85431,185.77274 304.35882,182.2709 304.35882,177.95003 C 304.35882,173.62917 300.85431,170.12732 296.53311,170.12732 C 292.21192,170.12732 288.7098,173.62917 288.7098,177.95003 C 288.7098,182.2709 292.21192,185.77274 296.53311,185.77274 z "
       style="font-size:12px;fill:none;stroke:#000000;stroke-width:1.0063988" />
    <path
       id="path584"
       d="M 303.82798,176.56659 L 297.41465,176.56659 L 297.41465,166.19556 L 299.86468,166.19556 L 299.86468,164.12039 L 297.41465,164.12039 L 297.41465,161.66813 L 295.33932,161.66813 L 295.33932,164.12039 L 292.88687,164.12039 L 292.88687,166.19556 L 295.33932,166.19556 L 295.33932,176.56659 L 289.24064,176.56659 L 289.24064,177.95003 L 295.33932,177.95003 L 295.33932,178.01248 L 297.41465,178.01248 L 297.41465,177.95003 L 303.82798,177.95003 L 303.82798,176.56659"
       style="font-size:12px;fill:#ffcc00;fill-opacity:1" />
    <path
       id="path585"
       d="M 303.82798,176.56659 L 297.41465,176.56659 L 297.41465,166.19556 L 299.86468,166.19556 L 299.86468,164.12039 L 297.41465,164.12039 L 297.41465,161.66813 L 295.33932,161.66813 L 295.33932,164.12039 L 292.88687,164.12039 L 292.88687,166.19556 L 295.33932,166.19556 L 295.33932,176.56659 L 289.24064,176.56659 L 289.24064,177.95003 L 295.33932,177.95003 L 295.33932,178.01248 L 297.41465,178.01248 L 297.41465,177.95003 L 303.82798,177.95003 L 303.82798,176.56659"
       style="font-size:12px;fill:#bcac0b;fill-opacity:1;stroke:#000000;stroke-width:0.50199842" />
    <path
       id="path586"
       d="M 265.20625,195.13261 C 265.20625,195.13261 270.99026,194.46251 274.34105,195.80272 C 274.34105,195.80272 270.50025,200.17161 271.32414,205.94318 C 271.74448,208.87819 272.33057,210.38653 273.16887,211.81081 C 274.00717,213.23749 274.92713,216.1701 274.42511,218.51666 L 275.51562,218.51666 C 275.51562,218.51666 276.60613,213.73946 274.76139,211.05663 C 272.91666,208.37621 271.99429,204.68702 273.83903,200.83211 C 275.68137,196.9772 278.3644,195.46886 278.3644,195.46886 C 281.46537,196.72501 288.00602,195.55052 289.84835,194.21032 C 291.69068,192.8677 292.61305,191.02551 289.1782,190.85738 C 285.74334,190.68926 279.87525,190.77332 275.8519,193.7924 C 275.8519,193.7924 273.75496,191.35936 263.27744,192.53385 C 252.79993,193.70833 245.22642,198.18292 242.90849,207.62204 C 241.73632,212.39925 246.17761,222.45564 250.28503,224.88628 C 250.28503,224.88628 250.16012,223.25304 250.57808,222.07856 C 250.57808,222.07856 243.57865,214.24144 245.67559,206.94953 C 247.77014,199.65763 256.15311,194.88042 265.20625,195.13261"
       style="font-size:12px;fill:#ffcc00;fill-opacity:1" />
    <path
       id="path587"
       d="M 265.20625,195.13261 C 265.20625,195.13261 270.99026,194.46251 274.34105,195.80272 C 274.34105,195.80272 270.50025,200.17161 271.32414,205.94318 C 271.74448,208.87819 272.33057,210.38653 273.16887,211.81081 C 274.00717,213.23749 274.92713,216.1701 274.42511,218.51666 L 275.51562,218.51666 C 275.51562,218.51666 276.60613,213.73946 274.76139,211.05663 C 272.91666,208.37621 271.99429,204.68702 273.83903,200.83211 C 275.68137,196.9772 278.3644,195.46886 278.3644,195.46886 C 281.46537,196.72501 288.00602,195.55052 289.84835,194.21032 C 291.69068,192.8677 292.61305,191.02551 289.1782,190.85738 C 285.74334,190.68926 279.87525,190.77332 275.8519,193.7924 C 275.8519,193.7924 273.75496,191.35936 263.27744,192.53385 C 252.79993,193.70833 245.22642,198.18292 242.90849,207.62204 C 241.73632,212.39925 246.17761,222.45564 250.28503,224.88628 C 250.28503,224.88628 250.16012,223.25304 250.57808,222.07856 C 250.57808,222.07856 243.57865,214.24144 245.67559,206.94953 C 247.77014,199.65763 256.15311,194.88042 265.20625,195.13261 z "
       style="font-size:12px;fill:#bcac0b;fill-opacity:1;stroke:#000000;stroke-width:0.65331852" />
    <path
       id="path588"
       d="M 284.89783,193.68912 C 286.70894,193.54261 288.15975,193.22798 288.14053,192.98059 C 288.12131,192.738 286.63688,192.65634 284.82577,192.80285 C 283.01466,192.94936 281.56386,193.2664 281.58307,193.51139 C 281.60229,193.75637 283.08672,193.83563 284.89783,193.68912"
       style="font-size:12px;fill:#ffffff" />
    <path
       id="path589"
       d="M 278.30195,195.42563 C 278.30195,195.42563 276.22902,197.3735 278.30195,195.42563 C 280.37727,193.47776 284.71528,192.15676 287.16772,192.72359 C 289.61776,193.28802 286.72575,193.60265 285.90907,193.6651 C 285.09239,193.72755 283.45663,194.04219 281.06904,193.6651"
       style="font-size:12px;fill:none;stroke:#000000;stroke-width:0.65331852" />
    <path
       id="path590"
       d="M 327.73508,195.75948 C 327.73508,195.75948 321.95346,195.09178 318.60028,196.43199 C 318.60028,196.43199 322.44348,200.79849 321.61719,206.57245 C 321.19924,209.50746 320.61315,211.0158 319.77486,212.44008 C 318.93415,213.86195 318.01419,216.79937 318.5162,219.14594 L 317.4257,219.14594 C 317.4257,219.14594 316.33759,214.36874 318.17992,211.68591 C 320.02467,209.00309 320.94703,205.3163 319.10229,201.46139 C 317.25996,197.60408 314.57693,196.09574 314.57693,196.09574 C 311.47594,197.35429 304.9377,196.1798 303.09297,194.83959 C 301.25304,193.49698 300.32827,191.65478 303.76313,191.48666 C 307.20039,191.31853 313.06847,191.4026 317.09182,194.41927 C 317.09182,194.41927 319.18637,191.98864 329.66388,193.16313 C 340.1438,194.33521 347.7149,198.81219 350.03283,208.24892 C 351.20741,213.02612 346.76371,223.08492 342.6563,225.51556 C 342.6563,225.51556 342.78359,223.88232 342.36325,222.70784 C 342.36325,222.70784 349.36267,214.87072 347.26813,207.57881 C 345.17118,200.2869 336.79062,195.5097 327.73508,195.75948"
       style="font-size:12px;fill:#ffcc00;fill-opacity:1" />
    <path
       id="path591"
       d="M 327.73508,195.75948 C 327.73508,195.75948 321.95346,195.09178 318.60028,196.43199 C 318.60028,196.43199 322.44348,200.79849 321.61719,206.57245 C 321.19924,209.50746 320.61315,211.0158 319.77486,212.44008 C 318.93415,213.86195 318.01419,216.79937 318.5162,219.14594 L 317.4257,219.14594 C 317.4257,219.14594 316.33759,214.36874 318.17992,211.68591 C 320.02467,209.00309 320.94703,205.3163 319.10229,201.46139 C 317.25996,197.60408 314.57693,196.09574 314.57693,196.09574 C 311.47594,197.35429 304.9377,196.1798 303.09297,194.83959 C 301.25304,193.49698 300.32827,191.65478 303.76313,191.48666 C 307.20039,191.31853 313.06847,191.4026 317.09182,194.41927 C 317.09182,194.41927 319.18637,191.98864 329.66388,193.16313 C 340.1438,194.33521 347.7149,198.81219 350.03283,208.24892 C 351.20741,213.02612 346.76371,223.08492 342.6563,225.51556 C 342.6563,225.51556 342.78359,223.88232 342.36325,222.70784 C 342.36325,222.70784 349.36267,214.87072 347.26813,207.57881 C 345.17118,200.2869 336.79062,195.5097 327.73508,195.75948 z "
       style="font-size:12px;fill:#bcac0b;fill-opacity:1;stroke:#000000;stroke-width:0.65331852" />
    <path
       id="path592"
       d="M 308.04349,194.31839 C 306.23479,194.17188 304.78158,193.85484 304.80079,193.60986 C 304.82241,193.36488 306.30444,193.28561 308.11555,193.43213 C 309.92666,193.57864 311.37987,193.89568 311.36065,194.14067 C 311.33903,194.38564 309.8546,194.46491 308.04349,194.31839"
       style="font-size:12px;fill:#ffffff" />
    <path
       id="path593"
       d="M 314.63938,196.05491 C 314.63938,196.05491 316.71471,198.00278 314.63938,196.05491 C 312.56645,194.10463 308.22845,192.78604 305.776,193.35046 C 303.32356,193.91729 306.21557,194.23193 307.03225,194.29438 C 307.85133,194.35683 309.48469,194.67146 311.87468,194.29438"
       style="font-size:12px;fill:none;stroke:#000000;stroke-width:0.65331852" />
    <path
       id="path594"
       d="M 291.107,189.34904 L 291.107,211.64508 C 290.85479,213.82353 293.78763,216.92427 295.88457,217.84656 C 295.88457,217.84656 300.83029,216.1701 301.16416,211.64508 L 301.16416,188.09049 L 299.48758,188.09049 L 299.48758,208.45787 C 299.4059,210.55465 298.06319,214.3255 296.21845,214.91395 C 296.21845,214.91395 292.61545,214.3255 292.44732,208.54193 L 292.44732,188.68134 L 291.107,189.34904"
       style="font-size:12px;fill:#ffcc00;fill-opacity:1" />
    <path
       id="path595"
       d="M 291.107,189.34904 L 291.107,211.64508 C 290.85479,213.82353 293.78763,216.92427 295.88457,217.84656 C 295.88457,217.84656 300.83029,216.1701 301.16416,211.64508 L 301.16416,188.09049 L 299.48758,188.09049 L 299.48758,208.45787 C 299.4059,210.55465 298.06319,214.3255 296.21845,214.91395 C 296.21845,214.91395 292.61545,214.3255 292.44732,208.54193 L 292.44732,188.68134 L 291.107,189.34904"
       style="font-size:12px;fill:#bcac0b;fill-opacity:1;stroke:#000000;stroke-width:0.65331852" />
    <path
       id="path596"
       d="M 241.77715,219.84247 C 243.24957,219.84247 244.44337,218.64877 244.44337,217.17646 C 244.44337,215.70654 243.24957,214.51044 241.77715,214.51044 C 240.30472,214.51044 239.11093,215.70414 239.11093,217.17646 C 239.11093,218.64877 240.30472,219.84247 241.77715,219.84247"
       style="font-size:12px;fill:#ffffff" />
    <path
       id="path597"
       d="M 241.77715,219.84247 C 243.24957,219.84247 244.44337,218.64877 244.44337,217.17646 C 244.44337,215.70654 243.24957,214.51044 241.77715,214.51044 C 240.30472,214.51044 239.11093,215.70414 239.11093,217.17646 C 239.11093,218.64877 240.30472,219.84247 241.77715,219.84247 z "
       style="font-size:12px;fill:none;stroke:#000000;stroke-width:1.0063988" />
    <path
       id="path598"
       d="M 240.11016,213.71304 C 241.58499,213.71304 242.77878,212.51935 242.77878,211.04703 C 242.77878,209.57711 241.58499,208.38101 240.11016,208.38101 C 238.63774,208.38101 237.44394,209.57471 237.44394,211.04703 C 237.44394,212.51935 238.63774,213.71304 240.11016,213.71304"
       style="font-size:12px;fill:#ffffff" />
    <path
       id="path599"
       d="M 240.11016,213.71304 C 241.58499,213.71304 242.77878,212.51935 242.77878,211.04703 C 242.77878,209.57711 241.58499,208.38101 240.11016,208.38101 C 238.63774,208.38101 237.44394,209.57471 237.44394,211.04703 C 237.44394,212.51935 238.63774,213.71304 240.11016,213.71304 z "
       style="font-size:12px;fill:none;stroke:#000000;stroke-width:1.0063988" />
    <path
       id="path600"
       d="M 240.9917,206.29624 C 242.46412,206.29624 243.65792,205.10254 243.65792,203.62782 C 243.65792,202.15552 242.46412,200.96181 240.9917,200.96181 C 239.51927,200.96181 238.32548,202.15552 238.32548,203.62782 C 238.32548,205.10254 239.51927,206.29624 240.9917,206.29624"
       style="font-size:12px;fill:#ffffff" />
    <path
       id="path601"
       d="M 240.9917,206.29624 C 242.46412,206.29624 243.65792,205.10254 243.65792,203.62782 C 243.65792,202.15552 242.46412,200.96181 240.9917,200.96181 C 239.51927,200.96181 238.32548,202.15552 238.32548,203.62782 C 238.32548,205.10254 239.51927,206.29624 240.9917,206.29624 z "
       style="font-size:12px;fill:none;stroke:#000000;stroke-width:1.0063988" />
    <path
       id="path602"
       d="M 245.13995,200.13559 C 246.61478,200.13559 247.80857,198.94188 247.80857,197.46958 C 247.80857,195.99486 246.61478,194.80116 245.13995,194.80116 C 243.66753,194.80116 242.47373,195.99486 242.47373,197.46958 C 242.47373,198.94188 243.66753,200.13559 245.13995,200.13559"
       style="font-size:12px;fill:#ffffff" />
    <path
       id="path603"
       d="M 245.13995,200.13559 C 246.61478,200.13559 247.80857,198.94188 247.80857,197.46958 C 247.80857,195.99486 246.61478,194.80116 245.13995,194.80116 C 243.66753,194.80116 242.47373,195.99486 242.47373,197.46958 C 242.47373,198.94188 243.66753,200.13559 245.13995,200.13559 z "
       style="font-size:12px;fill:none;stroke:#000000;stroke-width:1.0063988" />
    <path
       id="path604"
       d="M 250.04483,195.6418 C 251.51725,195.6418 252.71105,194.44809 252.71105,192.97338 C 252.71105,191.50107 251.51725,190.30737 250.04483,190.30737 C 248.57241,190.30737 247.37621,191.50107 247.37621,192.97338 C 247.37621,194.44809 248.57241,195.6418 250.04483,195.6418"
       style="font-size:12px;fill:#ffffff" />
    <path
       id="path605"
       d="M 250.04483,195.6418 C 251.51725,195.6418 252.71105,194.44809 252.71105,192.97338 C 252.71105,191.50107 251.51725,190.30737 250.04483,190.30737 C 248.57241,190.30737 247.37621,191.50107 247.37621,192.97338 C 247.37621,194.44809 248.57241,195.6418 250.04483,195.6418 z "
       style="font-size:12px;fill:none;stroke:#000000;stroke-width:1.0063988" />
    <path
       id="path606"
       d="M 256.36208,193.1271 C 257.83451,193.1271 259.0283,191.9334 259.0283,190.45868 C 259.0283,188.98637 257.83451,187.79266 256.36208,187.79266 C 254.88966,187.79266 253.69586,188.98637 253.69586,190.45868 C 253.69586,191.9334 254.88966,193.1271 256.36208,193.1271"
       style="font-size:12px;fill:#ffffff" />
    <path
       id="path607"
       d="M 256.36208,193.1271 C 257.83451,193.1271 259.0283,191.9334 259.0283,190.45868 C 259.0283,188.98637 257.83451,187.79266 256.36208,187.79266 C 254.88966,187.79266 253.69586,188.98637 253.69586,190.45868 C 253.69586,191.9334 254.88966,193.1271 256.36208,193.1271 z "
       style="font-size:12px;fill:none;stroke:#000000;stroke-width:1.0063988" />
    <path
       id="path608"
       d="M 262.96278,191.9334 C 264.4352,191.9334 265.62899,190.73729 265.62899,189.26498 C 265.62899,187.79266 264.4352,186.59897 262.96278,186.59897 C 261.49035,186.59897 260.29656,187.79266 260.29656,189.26498 C 260.29656,190.73729 261.49035,191.9334 262.96278,191.9334"
       style="font-size:12px;fill:#ffffff" />
    <path
       id="path609"
       d="M 262.96278,191.9334 C 264.4352,191.9334 265.62899,190.73729 265.62899,189.26498 C 265.62899,187.79266 264.4352,186.59897 262.96278,186.59897 C 261.49035,186.59897 260.29656,187.79266 260.29656,189.26498 C 260.29656,190.73729 261.49035,191.9334 262.96278,191.9334 z "
       style="font-size:12px;fill:none;stroke:#000000;stroke-width:1.0063988" />
    <path
       id="path610"
       d="M 269.25121,191.55631 C 270.72364,191.55631 271.91743,190.36021 271.91743,188.88789 C 271.91743,187.41558 270.72364,186.22188 269.25121,186.22188 C 267.77638,186.22188 266.58259,187.41558 266.58259,188.88789 C 266.58259,190.36021 267.77638,191.55631 269.25121,191.55631"
       style="font-size:12px;fill:#ffffff" />
    <path
       id="path611"
       d="M 269.25121,191.55631 C 270.72364,191.55631 271.91743,190.36021 271.91743,188.88789 C 271.91743,187.41558 270.72364,186.22188 269.25121,186.22188 C 267.77638,186.22188 266.58259,187.41558 266.58259,188.88789 C 266.58259,190.36021 267.77638,191.55631 269.25121,191.55631 z "
       style="font-size:12px;fill:none;stroke:#000000;stroke-width:1.0063988" />
    <path
       id="path612"
       d="M 274.90792,192.05829 C 276.38034,192.05829 277.57414,190.86458 277.57414,189.39228 C 277.57414,187.91756 276.38034,186.72386 274.90792,186.72386 C 273.43549,186.72386 272.2417,187.91756 272.2417,189.39228 C 272.2417,190.86458 273.43549,192.05829 274.90792,192.05829"
       style="font-size:12px;fill:#ffffff" />
    <path
       id="path613"
       d="M 274.90792,192.05829 C 276.38034,192.05829 277.57414,190.86458 277.57414,189.39228 C 277.57414,187.91756 276.38034,186.72386 274.90792,186.72386 C 273.43549,186.72386 272.2417,187.91756 272.2417,189.39228 C 272.2417,190.86458 273.43549,192.05829 274.90792,192.05829 z "
       style="font-size:12px;fill:none;stroke:#000000;stroke-width:1.0063988" />
    <path
       id="path614"
       d="M 291.03734,190.04557 C 292.50977,190.04557 293.70596,188.85186 293.70596,187.37956 C 293.70596,185.90964 292.50977,184.71354 291.03734,184.71354 C 289.56491,184.71354 288.37112,185.90724 288.37112,187.37956 C 288.37112,188.85186 289.56491,190.04557 291.03734,190.04557"
       style="font-size:12px;fill:#ffffff" />
    <path
       id="path615"
       d="M 291.03734,190.04557 C 292.50977,190.04557 293.70596,188.85186 293.70596,187.37956 C 293.70596,185.90964 292.50977,184.71354 291.03734,184.71354 C 289.56491,184.71354 288.37112,185.90724 288.37112,187.37956 C 288.37112,188.85186 289.56491,190.04557 291.03734,190.04557 z "
       style="font-size:12px;fill:none;stroke:#000000;stroke-width:1.0063988" />
    <path
       id="path616"
       d="M 296.19203,191.42901 C 297.66446,191.42901 298.86065,190.23531 298.86065,188.763 C 298.86065,187.29069 297.66446,186.09698 296.19203,186.09698 C 294.7196,186.09698 293.52581,187.29069 293.52581,188.763 C 293.52581,190.23531 294.7196,191.42901 296.19203,191.42901"
       style="font-size:12px;fill:#ffffff" />
    <path
       id="path617"
       d="M 296.19203,191.42901 C 297.66446,191.42901 298.86065,190.23531 298.86065,188.763 C 298.86065,187.29069 297.66446,186.09698 296.19203,186.09698 C 294.7196,186.09698 293.52581,187.29069 293.52581,188.763 C 293.52581,190.23531 294.7196,191.42901 296.19203,191.42901 z "
       style="font-size:12px;fill:none;stroke:#000000;stroke-width:1.0063988" />
    <path
       id="path618"
       d="M 296.19203,211.16712 C 297.66446,211.16712 298.86065,209.97341 298.86065,208.50111 C 298.86065,207.02879 297.66446,205.83509 296.19203,205.83509 C 294.7196,205.83509 293.52581,207.02879 293.52581,208.50111 C 293.52581,209.97341 294.7196,211.16712 296.19203,211.16712"
       style="font-size:12px;fill:#ffffff" />
    <path
       id="path619"
       d="M 296.19203,211.16712 C 297.66446,211.16712 298.86065,209.97341 298.86065,208.50111 C 298.86065,207.02879 297.66446,205.83509 296.19203,205.83509 C 294.7196,205.83509 293.52581,207.02879 293.52581,208.50111 C 293.52581,209.97341 294.7196,211.16712 296.19203,211.16712 z "
       style="font-size:12px;fill:none;stroke:#000000;stroke-width:1.0063988" />
    <path
       id="path620"
       d="M 351.32751,221.54055 C 352.79993,221.54055 353.99372,220.34686 353.99372,218.87214 C 353.99372,217.39982 352.79993,216.20612 351.32751,216.20612 C 349.85268,216.20612 348.65889,217.39982 348.65889,218.87214 C 348.65889,220.34686 349.85268,221.54055 351.32751,221.54055"
       style="font-size:12px;fill:#ffffff" />
    <path
       id="path621"
       d="M 351.32751,221.54055 C 352.79993,221.54055 353.99372,220.34686 353.99372,218.87214 C 353.99372,217.39982 352.79993,216.20612 351.32751,216.20612 C 349.85268,216.20612 348.65889,217.39982 348.65889,218.87214 C 348.65889,220.34686 349.85268,221.54055 351.32751,221.54055 z "
       style="font-size:12px;fill:none;stroke:#000000;stroke-width:1.0063988" />
    <path
       id="path622"
       d="M 352.70866,214.90674 C 354.18348,214.90674 355.37728,213.71304 355.37728,212.24073 C 355.37728,210.76842 354.18348,209.57471 352.70866,209.57471 C 351.23623,209.57471 350.04244,210.76842 350.04244,212.24073 C 350.04244,213.71304 351.23623,214.90674 352.70866,214.90674"
       style="font-size:12px;fill:#ffffff" />
    <path
       id="path623"
       d="M 352.70866,214.90674 C 354.18348,214.90674 355.37728,213.71304 355.37728,212.24073 C 355.37728,210.76842 354.18348,209.57471 352.70866,209.57471 C 351.23623,209.57471 350.04244,210.76842 350.04244,212.24073 C 350.04244,213.71304 351.23623,214.90674 352.70866,214.90674 z "
       style="font-size:12px;fill:none;stroke:#000000;stroke-width:1.0063988" />
    <path
       id="path624"
       d="M 351.57731,207.99432 C 353.05214,207.99432 354.24593,206.80062 354.24593,205.32591 C 354.24593,203.8536 353.05214,202.65989 351.57731,202.65989 C 350.10489,202.65989 348.91109,203.8536 348.91109,205.32591 C 348.91109,206.80062 350.10489,207.99432 351.57731,207.99432"
       style="font-size:12px;fill:#ffffff" />
    <path
       id="path625"
       d="M 351.57731,207.99432 C 353.05214,207.99432 354.24593,206.80062 354.24593,205.32591 C 354.24593,203.8536 353.05214,202.65989 351.57731,202.65989 C 350.10489,202.65989 348.91109,203.8536 348.91109,205.32591 C 348.91109,206.80062 350.10489,207.99432 351.57731,207.99432 z "
       style="font-size:12px;fill:none;stroke:#000000;stroke-width:1.0063988" />
    <path
       id="path626"
       d="M 348.68531,201.45659 C 350.16014,201.45659 351.35393,200.26048 351.35393,198.78817 C 351.35393,197.31826 350.16014,196.12216 348.68531,196.12216 C 347.21288,196.12216 346.01909,197.31586 346.01909,198.78817 C 346.01909,200.26048 347.21288,201.45659 348.68531,201.45659"
       style="font-size:12px;fill:#ffffff" />
    <path
       id="path627"
       d="M 348.68531,201.45659 C 350.16014,201.45659 351.35393,200.26048 351.35393,198.78817 C 351.35393,197.31826 350.16014,196.12216 348.68531,196.12216 C 347.21288,196.12216 346.01909,197.31586 346.01909,198.78817 C 346.01909,200.26048 347.21288,201.45659 348.68531,201.45659 z "
       style="font-size:12px;fill:none;stroke:#000000;stroke-width:1.0063988" />
    <path
       id="path628"
       d="M 343.78283,196.92916 C 345.25525,196.92916 346.44905,195.73546 346.44905,194.26315 C 346.44905,192.79084 345.25525,191.59714 343.78283,191.59714 C 342.3104,191.59714 341.11421,192.79084 341.11421,194.26315 C 341.11421,195.73546 342.3104,196.92916 343.78283,196.92916"
       style="font-size:12px;fill:#ffffff" />
    <path
       id="path629"
       d="M 343.78283,196.92916 C 345.25525,196.92916 346.44905,195.73546 346.44905,194.26315 C 346.44905,192.79084 345.25525,191.59714 343.78283,191.59714 C 342.3104,191.59714 341.11421,192.79084 341.11421,194.26315 C 341.11421,195.73546 342.3104,196.92916 343.78283,196.92916 z "
       style="font-size:12px;fill:none;stroke:#000000;stroke-width:1.0063988" />
    <path
       id="path630"
       d="M 337.87391,194.03738 C 339.34634,194.03738 340.54013,192.84368 340.54013,191.37137 C 340.54013,189.89906 339.34634,188.70535 337.87391,188.70535 C 336.39909,188.70535 335.20529,189.89906 335.20529,191.37137 C 335.20529,192.84368 336.39909,194.03738 337.87391,194.03738"
       style="font-size:12px;fill:#ffffff" />
    <path
       id="path631"
       d="M 337.87391,194.03738 C 339.34634,194.03738 340.54013,192.84368 340.54013,191.37137 C 340.54013,189.89906 339.34634,188.70535 337.87391,188.70535 C 336.39909,188.70535 335.20529,189.89906 335.20529,191.37137 C 335.20529,192.84368 336.39909,194.03738 337.87391,194.03738 z "
       style="font-size:12px;fill:none;stroke:#000000;stroke-width:1.0063988" />
    <path
       id="path632"
       d="M 331.14591,192.49782 C 332.62074,192.49782 333.81454,191.30412 333.81454,189.8318 C 333.81454,188.3619 332.62074,187.1658 331.14591,187.1658 C 329.67348,187.1658 328.47969,188.3595 328.47969,189.8318 C 328.47969,191.30412 329.67348,192.49782 331.14591,192.49782"
       style="font-size:12px;fill:#ffffff" />
    <path
       id="path633"
       d="M 331.14591,192.49782 C 332.62074,192.49782 333.81454,191.30412 333.81454,189.8318 C 333.81454,188.3619 332.62074,187.1658 331.14591,187.1658 C 329.67348,187.1658 328.47969,188.3595 328.47969,189.8318 C 328.47969,191.30412 329.67348,192.49782 331.14591,192.49782 z "
       style="font-size:12px;fill:none;stroke:#000000;stroke-width:1.0063988" />
    <path
       id="path634"
       d="M 324.98479,191.99584 C 326.45961,191.99584 327.6534,190.80214 327.6534,189.32743 C 327.6534,187.85751 326.45961,186.66141 324.98479,186.66141 C 323.51236,186.66141 322.31857,187.85511 322.31857,189.32743 C 322.31857,190.80214 323.51236,191.99584 324.98479,191.99584"
       style="font-size:12px;fill:#ffffff" />
    <path
       id="path635"
       d="M 324.98479,191.99584 C 326.45961,191.99584 327.6534,190.80214 327.6534,189.32743 C 327.6534,187.85751 326.45961,186.66141 324.98479,186.66141 C 323.51236,186.66141 322.31857,187.85511 322.31857,189.32743 C 322.31857,190.80214 323.51236,191.99584 324.98479,191.99584 z "
       style="font-size:12px;fill:none;stroke:#000000;stroke-width:1.0063988" />
    <path
       id="path636"
       d="M 319.40014,191.26088 C 320.87497,191.26088 322.06876,190.06718 322.06876,188.59488 C 322.06876,187.12256 320.87497,185.92886 319.40014,185.92886 C 317.92771,185.92886 316.73392,187.12256 316.73392,188.59488 C 316.73392,190.06718 317.92771,191.26088 319.40014,191.26088"
       style="font-size:12px;fill:#ffffff" />
    <path
       id="path637"
       d="M 319.40014,191.26088 C 320.87497,191.26088 322.06876,190.06718 322.06876,188.59488 C 322.06876,187.12256 320.87497,185.92886 319.40014,185.92886 C 317.92771,185.92886 316.73392,187.12256 316.73392,188.59488 C 316.73392,190.06718 317.92771,191.26088 319.40014,191.26088 z "
       style="font-size:12px;fill:none;stroke:#000000;stroke-width:1.0063988" />
    <path
       id="path638"
       d="M 323.00554,213.08617 C 324.47797,213.08617 325.67176,211.89007 325.67176,210.41775 C 325.67176,208.94785 324.47797,207.75174 323.00554,207.75174 C 321.53312,207.75174 320.33932,208.94544 320.33932,210.41775 C 320.33932,211.89007 321.53312,213.08617 323.00554,213.08617"
       style="font-size:12px;fill:#ffffff" />
    <path
       id="path639"
       d="M 323.00554,213.08617 C 324.47797,213.08617 325.67176,211.89007 325.67176,210.41775 C 325.67176,208.94785 324.47797,207.75174 323.00554,207.75174 C 321.53312,207.75174 320.33932,208.94544 320.33932,210.41775 C 320.33932,211.89007 321.53312,213.08617 323.00554,213.08617 z "
       style="font-size:12px;fill:none;stroke:#000000;stroke-width:1.0063988" />
    <path
       id="path640"
       d="M 324.38909,207.92947 C 325.86152,207.92947 327.05531,206.73577 327.05531,205.26346 C 327.05531,203.79115 325.86152,202.59744 324.38909,202.59744 C 322.91427,202.59744 321.72048,203.79115 321.72048,205.26346 C 321.72048,206.73577 322.91427,207.92947 324.38909,207.92947"
       style="font-size:12px;fill:#ffffff" />
    <path
       id="path641"
       d="M 324.38909,207.92947 C 325.86152,207.92947 327.05531,206.73577 327.05531,205.26346 C 327.05531,203.79115 325.86152,202.59744 324.38909,202.59744 C 322.91427,202.59744 321.72048,203.79115 321.72048,205.26346 C 321.72048,206.73577 322.91427,207.92947 324.38909,207.92947 z "
       style="font-size:12px;fill:none;stroke:#000000;stroke-width:1.0063988" />
    <path
       id="path642"
       d="M 301.97604,190.86458 C 303.45087,190.86458 304.64467,189.66848 304.64467,188.19617 C 304.64467,186.72386 303.45087,185.53016 301.97604,185.53016 C 300.50361,185.53016 299.30982,186.72386 299.30982,188.19617 C 299.30982,189.66848 300.50361,190.86458 301.97604,190.86458"
       style="font-size:12px;fill:#ffffff" />
    <path
       id="path643"
       d="M 301.97604,190.86458 C 303.45087,190.86458 304.64467,189.66848 304.64467,188.19617 C 304.64467,186.72386 303.45087,185.53016 301.97604,185.53016 C 300.50361,185.53016 299.30982,186.72386 299.30982,188.19617 C 299.30982,189.66848 300.50361,190.86458 301.97604,190.86458 z "
       style="font-size:12px;fill:none;stroke:#000000;stroke-width:1.0063988" />
    <path
       id="path644"
       d="M 288.92599,190.14164 C 290.40081,190.14164 291.59461,188.94794 291.59461,187.47322 C 291.59461,186.00332 290.40081,184.80961 288.92599,184.80961 C 287.45356,184.80961 286.25977,186.00092 286.25977,187.47322 C 286.25977,188.94794 287.45356,190.14164 288.92599,190.14164"
       style="font-size:12px;fill:#ffffff" />
    <path
       id="path645"
       d="M 288.92599,190.14164 C 290.40081,190.14164 291.59461,188.94794 291.59461,187.47322 C 291.59461,186.00332 290.40081,184.80961 288.92599,184.80961 C 287.45356,184.80961 286.25977,186.00092 286.25977,187.47322 C 286.25977,188.94794 287.45356,190.14164 288.92599,190.14164 z "
       style="font-size:12px;fill:none;stroke:#000000;stroke-width:1.0063988" />
    <path
       id="path646"
       d="M 285.78416,190.01434 C 287.25659,190.01434 288.45038,188.82064 288.45038,187.34833 C 288.45038,185.87602 287.25659,184.68232 285.78416,184.68232 C 284.31174,184.68232 283.11795,185.87602 283.11795,187.34833 C 283.11795,188.82064 284.31174,190.01434 285.78416,190.01434"
       style="font-size:12px;fill:#ffffff" />
    <path
       id="path647"
       d="M 285.78416,190.01434 C 287.25659,190.01434 288.45038,188.82064 288.45038,187.34833 C 288.45038,185.87602 287.25659,184.68232 285.78416,184.68232 C 284.31174,184.68232 283.11795,185.87602 283.11795,187.34833 C 283.11795,188.82064 284.31174,190.01434 285.78416,190.01434 z "
       style="font-size:12px;fill:none;stroke:#000000;stroke-width:1.0063988" />
    <path
       id="path648"
       d="M 268.84047,213.14861 C 270.31289,213.14861 271.50909,211.95492 271.50909,210.4802 C 271.50909,209.00789 270.31289,207.81418 268.84047,207.81418 C 267.36804,207.81418 266.17425,209.00789 266.17425,210.4802 C 266.17425,211.95492 267.36804,213.14861 268.84047,213.14861"
       style="font-size:12px;fill:#ffffff" />
    <path
       id="path649"
       d="M 268.84047,213.14861 C 270.31289,213.14861 271.50909,211.95492 271.50909,210.4802 C 271.50909,209.00789 270.31289,207.81418 268.84047,207.81418 C 267.36804,207.81418 266.17425,209.00789 266.17425,210.4802 C 266.17425,211.95492 267.36804,213.14861 268.84047,213.14861 z "
       style="font-size:12px;fill:none;stroke:#000000;stroke-width:1.0063988" />
    <path
       id="path650"
       d="M 268.05502,206.76699 C 269.52744,206.76699 270.72364,205.5733 270.72364,204.10098 C 270.72364,202.62867 269.52744,201.43496 268.05502,201.43496 C 266.58259,201.43496 265.3888,202.62867 265.3888,204.10098 C 265.3888,205.5733 266.58259,206.76699 268.05502,206.76699"
       style="font-size:12px;fill:#ffffff" />
    <path
       id="path651"
       d="M 268.05502,206.76699 C 269.52744,206.76699 270.72364,205.5733 270.72364,204.10098 C 270.72364,202.62867 269.52744,201.43496 268.05502,201.43496 C 266.58259,201.43496 265.3888,202.62867 265.3888,204.10098 C 265.3888,205.5733 266.58259,206.76699 268.05502,206.76699 z "
       style="font-size:12px;fill:none;stroke:#000000;stroke-width:1.0063988" />
    <path
       id="path652"
       d="M 269.94059,200.60635 C 271.41541,200.60635 272.6092,199.41264 272.6092,197.94033 C 272.6092,196.46802 271.41541,195.27432 269.94059,195.27432 C 268.46816,195.27432 267.27437,196.46802 267.27437,197.94033 C 267.27437,199.41264 268.46816,200.60635 269.94059,200.60635"
       style="font-size:12px;fill:#ffffff" />
    <path
       id="path653"
       d="M 269.94059,200.60635 C 271.41541,200.60635 272.6092,199.41264 272.6092,197.94033 C 272.6092,196.46802 271.41541,195.27432 269.94059,195.27432 C 268.46816,195.27432 267.27437,196.46802 267.27437,197.94033 C 267.27437,199.41264 268.46816,200.60635 269.94059,200.60635 z "
       style="font-size:12px;fill:none;stroke:#000000;stroke-width:1.0063988" />
    <path
       id="path654"
       d="M 281.66474,190.61239 C 283.13957,190.61239 284.33336,189.41869 284.33336,187.94639 C 284.33336,186.47167 283.13957,185.27797 281.66474,185.27797 C 280.19232,185.27797 278.99852,186.47167 278.99852,187.94639 C 278.99852,189.41869 280.19232,190.61239 281.66474,190.61239"
       style="font-size:12px;fill:#ffffff" />
    <path
       id="path655"
       d="M 281.66474,190.61239 C 283.13957,190.61239 284.33336,189.41869 284.33336,187.94639 C 284.33336,186.47167 283.13957,185.27797 281.66474,185.27797 C 280.19232,185.27797 278.99852,186.47167 278.99852,187.94639 C 278.99852,189.41869 280.19232,190.61239 281.66474,190.61239 z "
       style="font-size:12px;fill:none;stroke:#000000;stroke-width:1.0063988" />
    <path
       id="path656"
       d="M 277.23305,192.43537 C 278.70788,192.43537 279.90167,191.24167 279.90167,189.76936 C 279.90167,188.29465 278.70788,187.10095 277.23305,187.10095 C 275.76063,187.10095 274.56683,188.29465 274.56683,189.76936 C 274.56683,191.24167 275.76063,192.43537 277.23305,192.43537"
       style="font-size:12px;fill:#ffffff" />
    <path
       id="path657"
       d="M 277.23305,192.43537 C 278.70788,192.43537 279.90167,191.24167 279.90167,189.76936 C 279.90167,188.29465 278.70788,187.10095 277.23305,187.10095 C 275.76063,187.10095 274.56683,188.29465 274.56683,189.76936 C 274.56683,191.24167 275.76063,192.43537 277.23305,192.43537 z "
       style="font-size:12px;fill:none;stroke:#000000;stroke-width:1.0063988" />
    <path
       id="path658"
       d="M 272.99112,196.01888 C 274.46355,196.01888 275.65734,194.82278 275.65734,193.35046 C 275.65734,191.87815 274.46355,190.68446 272.99112,190.68446 C 271.5163,190.68446 270.3225,191.87815 270.3225,193.35046 C 270.3225,194.82278 271.5163,196.01888 272.99112,196.01888"
       style="font-size:12px;fill:#ffffff" />
    <path
       id="path659"
       d="M 272.99112,196.01888 C 274.46355,196.01888 275.65734,194.82278 275.65734,193.35046 C 275.65734,191.87815 274.46355,190.68446 272.99112,190.68446 C 271.5163,190.68446 270.3225,191.87815 270.3225,193.35046 C 270.3225,194.82278 271.5163,196.01888 272.99112,196.01888 z "
       style="font-size:12px;fill:none;stroke:#000000;stroke-width:1.0063988" />
    <path
       id="path660"
       d="M 296.19203,194.44809 C 297.66446,194.44809 298.86065,193.25199 298.86065,191.77967 C 298.86065,190.30977 297.66446,189.11366 296.19203,189.11366 C 294.7196,189.11366 293.52581,190.30737 293.52581,191.77967 C 293.52581,193.25199 294.7196,194.44809 296.19203,194.44809"
       style="font-size:12px;fill:#ffffff" />
    <path
       id="path661"
       d="M 296.19203,194.44809 C 297.66446,194.44809 298.86065,193.25199 298.86065,191.77967 C 298.86065,190.30977 297.66446,189.11366 296.19203,189.11366 C 294.7196,189.11366 293.52581,190.30737 293.52581,191.77967 C 293.52581,193.25199 294.7196,194.44809 296.19203,194.44809 z "
       style="font-size:12px;fill:none;stroke:#000000;stroke-width:1.0063988" />
    <path
       id="path662"
       d="M 296.19203,199.47509 C 297.66446,199.47509 298.86065,198.28139 298.86065,196.80908 C 298.86065,195.33676 297.66446,194.14307 296.19203,194.14307 C 294.7196,194.14307 293.52581,195.33676 293.52581,196.80908 C 293.52581,198.28139 294.7196,199.47509 296.19203,199.47509"
       style="font-size:12px;fill:#ffffff" />
    <path
       id="path663"
       d="M 296.19203,199.47509 C 297.66446,199.47509 298.86065,198.28139 298.86065,196.80908 C 298.86065,195.33676 297.66446,194.14307 296.19203,194.14307 C 294.7196,194.14307 293.52581,195.33676 293.52581,196.80908 C 293.52581,198.28139 294.7196,199.47509 296.19203,199.47509 z "
       style="font-size:12px;fill:none;stroke:#000000;stroke-width:1.0063988" />
    <path
       id="path664"
       d="M 296.19203,204.88157 C 297.66446,204.88157 298.86065,203.68787 298.86065,202.21555 C 298.86065,200.74565 297.66446,199.54955 296.19203,199.54955 C 294.7196,199.54955 293.52581,200.74325 293.52581,202.21555 C 293.52581,203.68787 294.7196,204.88157 296.19203,204.88157"
       style="font-size:12px;fill:#ffffff" />
    <path
       id="path665"
       d="M 296.19203,204.88157 C 297.66446,204.88157 298.86065,203.68787 298.86065,202.21555 C 298.86065,200.74565 297.66446,199.54955 296.19203,199.54955 C 294.7196,199.54955 293.52581,200.74325 293.52581,202.21555 C 293.52581,203.68787 294.7196,204.88157 296.19203,204.88157 z "
       style="font-size:12px;fill:none;stroke:#000000;stroke-width:1.0063988" />
    <path
       id="path666"
       d="M 305.43492,190.17287 C 306.90734,190.17287 308.10114,188.97676 308.10114,187.50445 C 308.10114,186.03454 306.90734,184.83844 305.43492,184.83844 C 303.96009,184.83844 302.7663,186.03214 302.7663,187.50445 C 302.7663,188.97676 303.96009,190.17287 305.43492,190.17287"
       style="font-size:12px;fill:#ffffff" />
    <path
       id="path667"
       d="M 305.43492,190.17287 C 306.90734,190.17287 308.10114,188.97676 308.10114,187.50445 C 308.10114,186.03454 306.90734,184.83844 305.43492,184.83844 C 303.96009,184.83844 302.7663,186.03214 302.7663,187.50445 C 302.7663,188.97676 303.96009,190.17287 305.43492,190.17287 z "
       style="font-size:12px;fill:none;stroke:#000000;stroke-width:1.0063988" />
    <path
       id="path668"
       d="M 309.08116,189.41869 C 310.55358,189.41869 311.74738,188.22259 311.74738,186.75028 C 311.74738,185.28037 310.55358,184.08426 309.08116,184.08426 C 307.60633,184.08426 306.41254,185.27797 306.41254,186.75028 C 306.41254,188.22259 307.60633,189.41869 309.08116,189.41869"
       style="font-size:12px;fill:#ffffff" />
    <path
       id="path669"
       d="M 309.08116,189.41869 C 310.55358,189.41869 311.74738,188.22259 311.74738,186.75028 C 311.74738,185.28037 310.55358,184.08426 309.08116,184.08426 C 307.60633,184.08426 306.41254,185.27797 306.41254,186.75028 C 306.41254,188.22259 307.60633,189.41869 309.08116,189.41869 z "
       style="font-size:12px;fill:none;stroke:#000000;stroke-width:1.0063988" />
    <path
       id="path670"
       d="M 313.19818,190.07919 C 314.6706,190.07919 315.8644,188.88309 315.8644,187.41078 C 315.8644,185.93847 314.6706,184.74476 313.19818,184.74476 C 311.72575,184.74476 310.53196,185.93847 310.53196,187.41078 C 310.53196,188.88309 311.72575,190.07919 313.19818,190.07919"
       style="font-size:12px;fill:#ffffff" />
    <path
       id="path671"
       d="M 313.19818,190.07919 C 314.6706,190.07919 315.8644,188.88309 315.8644,187.41078 C 315.8644,185.93847 314.6706,184.74476 313.19818,184.74476 C 311.72575,184.74476 310.53196,185.93847 310.53196,187.41078 C 310.53196,188.88309 311.72575,190.07919 313.19818,190.07919 z "
       style="font-size:12px;fill:none;stroke:#000000;stroke-width:1.0063988" />
    <path
       id="path672"
       d="M 323.50756,201.39174 C 324.97998,201.39174 326.17618,200.19804 326.17618,198.72572 C 326.17618,197.25341 324.97998,196.05971 323.50756,196.05971 C 322.03513,196.05971 320.84134,197.25341 320.84134,198.72572 C 320.84134,200.19804 322.03513,201.39174 323.50756,201.39174"
       style="font-size:12px;fill:#ffffff" />
    <path
       id="path673"
       d="M 323.50756,201.39174 C 324.97998,201.39174 326.17618,200.19804 326.17618,198.72572 C 326.17618,197.25341 324.97998,196.05971 323.50756,196.05971 C 322.03513,196.05971 320.84134,197.25341 320.84134,198.72572 C 320.84134,200.19804 322.03513,201.39174 323.50756,201.39174 z "
       style="font-size:12px;fill:none;stroke:#000000;stroke-width:1.0063988" />
    <path
       id="path674"
       d="M 317.34643,192.4666 C 318.82126,192.4666 320.01505,191.2729 320.01505,189.80058 C 320.01505,188.32587 318.82126,187.13217 317.34643,187.13217 C 315.87401,187.13217 314.68022,188.32587 314.68022,189.80058 C 314.68022,191.2729 315.87401,192.4666 317.34643,192.4666"
       style="font-size:12px;fill:#ffffff" />
    <path
       id="path675"
       d="M 317.34643,192.4666 C 318.82126,192.4666 320.01505,191.2729 320.01505,189.80058 C 320.01505,188.32587 318.82126,187.13217 317.34643,187.13217 C 315.87401,187.13217 314.68022,188.32587 314.68022,189.80058 C 314.68022,191.2729 315.87401,192.4666 317.34643,192.4666 z "
       style="font-size:12px;fill:none;stroke:#000000;stroke-width:1.0063988" />
    <path
       id="path676"
       d="M 321.11997,196.11255 C 322.5924,196.11255 323.78619,194.91885 323.78619,193.44414 C 323.78619,191.97182 322.5924,190.77812 321.11997,190.77812 C 319.64515,190.77812 318.45135,191.97182 318.45135,193.44414 C 318.45135,194.91885 319.64515,196.11255 321.11997,196.11255"
       style="font-size:12px;fill:#ffffff" />
    <path
       id="path677"
       d="M 321.11997,196.11255 C 322.5924,196.11255 323.78619,194.91885 323.78619,193.44414 C 323.78619,191.97182 322.5924,190.77812 321.11997,190.77812 C 319.64515,190.77812 318.45135,191.97182 318.45135,193.44414 C 318.45135,194.91885 319.64515,196.11255 321.11997,196.11255 z "
       style="font-size:12px;fill:none;stroke:#000000;stroke-width:1.0063988" />
    <path
       id="path678"
       d="M 296.02148,236.04991 L 288.98122,239.57096 L 295.3177,243.56039 L 302.82875,239.80635 L 296.02148,236.04991"
       style="font-size:12px;fill:#ffffff" />
    <path
       id="path679"
       d="M 296.02148,236.04991 L 288.98122,239.57096 L 295.3177,243.56039 L 302.82875,239.80635 L 296.02148,236.04991"
       style="font-size:12px;fill:none;stroke:#000000;stroke-width:0.50199842" />
    <path
       id="path680"
       d="M 280.62948,236.78967 L 270.06789,238.4229 C 270.06789,238.4229 269.94059,244.08158 270.445,245.46502 L 281.2564,243.95428 C 281.2564,243.95428 281.76082,238.6751 280.62948,236.78967"
       style="font-size:12px;fill:#ffffff" />
    <path
       id="path681"
       d="M 280.62948,236.78967 L 270.06789,238.4229 C 270.06789,238.4229 269.94059,244.08158 270.445,245.46502 L 281.2564,243.95428 C 281.2564,243.95428 281.76082,238.6751 280.62948,236.78967 z "
       style="font-size:12px;fill:none;stroke:#000000;stroke-width:0.50199842" />
    <path
       id="path682"
       d="M 279.4549,238.79999 C 279.4549,238.79999 273.0848,239.38603 271.49227,239.97448 L 271.57635,243.82939 C 271.57635,243.82939 275.76784,243.07521 279.62304,242.73896 L 279.4549,238.79999"
       style="font-size:12px;fill:#058e6e;fill-opacity:0.94117647" />
    <path
       id="path683"
       d="M 279.4549,238.79999 C 279.4549,238.79999 273.0848,239.38603 271.49227,239.97448 L 271.57635,243.82939 C 271.57635,243.82939 275.76784,243.07521 279.62304,242.73896 L 279.4549,238.79999"
       style="font-size:12px;fill:none;stroke:#000000;stroke-width:0.50199842" />
    <path
       id="path684"
       d="M 310.74334,237.09229 L 321.30252,238.72794 C 321.30252,238.72794 321.42983,244.3842 320.92541,245.76765 L 310.11402,244.25931 C 310.11402,244.25931 309.6096,238.97772 310.74334,237.09229"
       style="font-size:12px;fill:#ffffff" />
    <path
       id="path685"
       d="M 310.74334,237.09229 L 321.30252,238.72794 C 321.30252,238.72794 321.42983,244.3842 320.92541,245.76765 L 310.11402,244.25931 C 310.11402,244.25931 309.6096,238.97772 310.74334,237.09229 z "
       style="font-size:12px;fill:none;stroke:#000000;stroke-width:0.50199842" />
    <path
       id="path686"
       d="M 311.91551,239.10501 C 311.91551,239.10501 318.28561,239.69106 319.87814,240.2771 L 319.79407,244.13201 C 319.79407,244.13201 315.60258,243.37785 311.74738,243.04399 L 311.91551,239.10501"
       style="font-size:12px;fill:#058e6e;fill-opacity:0.94117647" />
    <path
       id="path687"
       d="M 311.91551,239.10501 C 311.91551,239.10501 318.28561,239.69106 319.87814,240.2771 L 319.79407,244.13201 C 319.79407,244.13201 315.60258,243.37785 311.74738,243.04399 L 311.91551,239.10501"
       style="font-size:12px;fill:none;stroke:#000000;stroke-width:0.50199842" />
    <path
       id="path688"
       d="M 254.22431,241.81907 C 254.22431,241.81907 291.27274,228.06148 338.38314,242.98155 M 255.73277,249.73784 C 255.73277,249.73784 291.56818,236.33573 335.76256,250.3335 M 255.9009,241.31468 L 263.1093,243.40906 L 258.07952,248.77472"
       style="font-size:12px;fill:none;stroke:#000000;stroke-width:0.50199842" />
    <path
       id="path689"
       d="M 256.06904,247.76836 L 260.17646,244.33136 L 255.48296,243.40906 C 255.48296,243.40906 256.12189,244.13441 255.98978,244.79972 C 255.86007,245.46502 256.02821,247.18231 256.06904,247.76836"
       style="font-size:12px;fill:#ff0000" />
    <path
       id="path690"
       d="M 256.06904,247.76836 L 260.17646,244.33136 L 255.48296,243.40906 C 255.48296,243.40906 256.12189,244.13441 255.98978,244.79972 C 255.86007,245.46502 256.02821,247.18231 256.06904,247.76836 z "
       style="font-size:12px;fill:none;stroke:#000000;stroke-width:0.50199842" />
    <path
       id="path691"
       d="M 337.58567,242.69813 L 329.91609,244.08158 L 335.07078,250.11493"
       style="font-size:12px;fill:none;stroke:#000000;stroke-width:0.50199842" />
    <path
       id="path692"
       d="M 335.32299,247.97971 L 332.43099,244.96064 L 336.57923,244.58355 C 336.57923,244.58355 335.44789,245.33772 335.44789,245.967 C 335.44789,246.59627 335.5752,247.47534 335.32299,247.97971"
       style="font-size:12px;fill:#ff0000" />
    <path
       id="path693"
       d="M 335.32299,247.97971 L 332.43099,244.96064 L 336.57923,244.58355 C 336.57923,244.58355 335.44789,245.33772 335.44789,245.967 C 335.44789,246.59627 335.5752,247.47534 335.32299,247.97971 z "
       style="font-size:12px;fill:none;stroke:#000000;stroke-width:0.50199842" />
    <path
       id="path694"
       d="M 265.29031,241.84548 C 265.94366,241.84548 266.4745,241.42037 266.4745,240.89437 C 266.4745,240.37318 265.94366,239.94805 265.29031,239.94805 C 264.63457,239.94805 264.10373,240.37318 264.10373,240.89437 C 264.10373,241.42037 264.63457,241.84548 265.29031,241.84548 z M 285.89706,239.49651 C 286.55281,239.49651 287.08365,239.07139 287.08365,238.5502 C 287.08365,238.0242 286.55281,237.60148 285.89706,237.60148 C 285.24372,237.60148 284.71288,238.0242 284.71288,238.5502 C 284.71288,239.07139 285.24372,239.49651 285.89706,239.49651 z M 285.89706,242.84945 C 286.55281,242.84945 287.08365,242.42432 287.08365,241.90073 C 287.08365,241.37713 286.55281,240.95442 285.89706,240.95442 C 285.24372,240.95442 284.71288,241.37713 284.71288,241.90073 C 284.71288,242.42432 285.24372,242.84945 285.89706,242.84945 z M 306.18194,239.66464 C 306.83768,239.66464 307.36852,239.24192 307.36852,238.71592 C 307.36852,238.19473 306.83768,237.76961 306.18194,237.76961 C 305.5286,237.76961 304.99776,238.19232 304.99776,238.71592 C 304.99776,239.24192 305.5286,239.66464 306.18194,239.66464 z M 326.29868,243.35382 C 326.95443,243.35382 327.48527,242.92871 327.48527,242.40271 C 327.48527,241.88151 326.95443,241.45639 326.29868,241.45639 C 325.64534,241.45639 325.1145,241.88151 325.1145,242.40271 C 325.1145,242.92871 325.64534,243.35382 326.29868,243.35382 z M 325.96481,246.03425 C 326.62055,246.03425 327.15139,245.60913 327.15139,245.08793 C 327.15139,244.56674 326.62055,244.13681 325.96481,244.13681 C 325.30906,244.13681 324.77821,244.56434 324.77821,245.08793 C 324.77821,245.60913 325.30906,246.03425 325.96481,246.03425 z M 306.18194,243.01757 C 306.83768,243.01757 307.36852,242.59245 307.36852,242.06886 C 307.36852,241.54766 306.83768,241.12254 306.18194,241.12254 C 305.5286,241.12254 304.99776,241.54526 304.99776,242.06886 C 304.99776,242.59245 305.5286,243.01757 306.18194,243.01757 z M 266.28474,246.03425 C 266.93808,246.03425 267.46893,245.60913 267.46893,245.08793 C 267.46893,244.56674 266.93808,244.13681 266.28474,244.13681 C 265.62899,244.13681 265.09815,244.56434 265.09815,245.08793 C 265.09815,245.60913 265.62899,246.03425 266.28474,246.03425 z "
       style="font-size:12px;fill:none;stroke:#000000;stroke-width:0.50199842" />
    <path
       id="path695"
       d="M 253.55415,231.0061 C 253.55415,231.0061 253.72229,238.21395 258.4158,237.20758 C 263.1093,236.20123 262.60728,230.3336 262.94356,229.99974 C 263.27744,229.66348 263.77946,229.66348 263.77946,229.66348 C 263.77946,229.66348 264.44961,235.36299 268.80684,234.69289 C 273.16647,234.02278 272.99833,226.98306 272.49631,225.80857 L 273.50275,225.47232 C 273.50275,225.47232 275.17694,233.68652 280.20673,232.51444 C 285.23651,231.33995 284.73449,226.14483 284.73449,226.14483 L 285.12121,226.14483 C 285.12121,226.14483 286.24296,231.6762 290.2663,231.33995 C 294.28725,231.0061 295.12795,229.66348 294.62352,224.13211 L 297.30655,223.63013 C 297.30655,223.63013 296.30012,231.6762 301.15936,231.50808 C 306.02341,231.33995 306.18914,227.48504 306.52543,226.81494 L 307.25804,226.81494 C 307.25804,226.81494 307.53187,232.51444 311.55522,232.51444 C 315.57856,232.51444 316.41445,227.65317 316.41445,225.80857 L 320.34412,225.98391 C 320.34412,225.98391 316.24872,233.5208 322.28494,234.52716 C 328.31876,235.53111 328.4869,229.66348 328.4869,229.66348 L 329.65907,229.66348 C 329.65907,229.66348 329.49094,237.20758 332.84413,237.37571 C 336.19491,237.54383 338.20779,236.36935 338.54166,230.83797 L 340.38641,231.50808 C 340.38641,231.50808 338.78667,240.45003 332.50785,238.88165 C 329.15466,238.04582 328.14822,234.19091 328.31636,233.18454 C 328.31636,233.18454 325.97201,237.37331 321.44424,236.0331 C 316.91888,234.69289 317.4209,231.50808 317.4209,230.50172 C 317.4209,230.50172 314.69943,235.49989 310.88265,234.35423 C 307.53187,233.35027 306.18914,232.17578 306.18914,229.82921 C 306.18914,229.82921 304.51256,233.68412 301.15936,233.5184 C 297.80617,233.35027 296.13198,231.33755 295.96384,229.49536 C 295.96384,229.49536 295.29848,233.09808 290.76592,233.35027 C 287.74901,233.5184 286.07241,232.01247 285.40225,229.99734 C 285.40225,229.99734 284.53513,233.6481 280.20673,234.18851 C 277.5261,234.52476 274.84307,233.01642 274.1705,230.50172 C 274.1705,230.50172 273.50275,235.36059 269.14312,236.0331 C 264.78349,236.7032 263.77706,233.68652 263.77706,233.68652 C 263.77706,233.68652 262.94116,237.54383 259.41983,238.37967 C 255.8985,239.2179 253.55175,237.71197 252.71345,234.19091 C 251.87516,230.66985 252.21144,229.16151 252.21144,229.16151 L 253.55175,231.0037"
       style="font-size:12px;fill:#ffcc00;fill-opacity:1" />
    <path
       id="path696"
       d="M 253.55415,231.0061 C 253.55415,231.0061 253.72229,238.21395 258.4158,237.20758 C 263.1093,236.20123 262.60728,230.3336 262.94356,229.99974 C 263.27744,229.66348 263.77946,229.66348 263.77946,229.66348 C 263.77946,229.66348 264.44961,235.36299 268.80684,234.69289 C 273.16647,234.02278 272.99833,226.98306 272.49631,225.80857 L 273.50275,225.47232 C 273.50275,225.47232 275.17694,233.68652 280.20673,232.51444 C 285.23651,231.33995 284.73449,226.14483 284.73449,226.14483 L 285.12121,226.14483 C 285.12121,226.14483 286.24296,231.6762 290.2663,231.33995 C 294.28725,231.0061 295.12795,229.66348 294.62352,224.13211 L 297.30655,223.63013 C 297.30655,223.63013 296.30012,231.6762 301.15936,231.50808 C 306.02341,231.33995 306.18914,227.48504 306.52543,226.81494 L 307.25804,226.81494 C 307.25804,226.81494 307.53187,232.51444 311.55522,232.51444 C 315.57856,232.51444 316.41445,227.65317 316.41445,225.80857 L 320.34412,225.98391 C 320.34412,225.98391 316.24872,233.5208 322.28494,234.52716 C 328.31876,235.53111 328.4869,229.66348 328.4869,229.66348 L 329.65907,229.66348 C 329.65907,229.66348 329.49094,237.20758 332.84413,237.37571 C 336.19491,237.54383 338.20779,236.36935 338.54166,230.83797 L 340.38641,231.50808 C 340.38641,231.50808 338.78667,240.45003 332.50785,238.88165 C 329.15466,238.04582 328.14822,234.19091 328.31636,233.18454 C 328.31636,233.18454 325.97201,237.37331 321.44424,236.0331 C 316.91888,234.69289 317.4209,231.50808 317.4209,230.50172 C 317.4209,230.50172 314.69943,235.49989 310.88265,234.35423 C 307.53187,233.35027 306.18914,232.17578 306.18914,229.82921 C 306.18914,229.82921 304.51256,233.68412 301.15936,233.5184 C 297.80617,233.35027 296.13198,231.33755 295.96384,229.49536 C 295.96384,229.49536 295.29848,233.09808 290.76592,233.35027 C 287.74901,233.5184 286.07241,232.01247 285.40225,229.99734 C 285.40225,229.99734 284.53513,233.6481 280.20673,234.18851 C 277.5261,234.52476 274.84307,233.01642 274.1705,230.50172 C 274.1705,230.50172 273.50275,235.36059 269.14312,236.0331 C 264.78349,236.7032 263.77706,233.68652 263.77706,233.68652 C 263.77706,233.68652 262.94116,237.54383 259.41983,238.37967 C 255.8985,239.2179 253.55175,237.71197 252.71345,234.19091 C 251.87516,230.66985 252.21144,229.16151 252.21144,229.16151 L 253.55175,231.0037 L 253.55415,231.0061 z "
       style="font-size:12px;fill:#bcac0b;fill-opacity:1;stroke:#000000;stroke-width:0.65331852" />
    <path
       id="path697"
       d="M 263.27744,231.32314 C 264.195,231.32314 264.93722,230.58098 264.93722,229.66348 C 264.93722,228.74839 264.195,228.00383 263.27744,228.00383 C 262.35987,228.00383 261.61766,228.74839 261.61766,229.66348 C 261.61766,230.58098 262.35987,231.32314 263.27744,231.32314"
       style="font-size:12px;fill:#ffcc00;fill-opacity:1" />
    <path
       id="path698"
       d="M 263.27744,231.32314 C 264.195,231.32314 264.93722,230.58098 264.93722,229.66348 C 264.93722,228.74839 264.195,228.00383 263.27744,228.00383 C 262.35987,228.00383 261.61766,228.74839 261.61766,229.66348 C 261.61766,230.58098 262.35987,231.32314 263.27744,231.32314 z "
       style="font-size:12px;fill:#bcac0b;fill-opacity:1;stroke:#000000;stroke-width:0.65331852" />
    <path
       id="path699"
       d="M 285.12362,227.8261 C 286.04118,227.8261 286.7834,227.08154 286.7834,226.16645 C 286.7834,225.24896 286.04118,224.50679 285.12362,224.50679 C 284.20605,224.50679 283.46384,225.24896 283.46384,226.16645 C 283.46384,227.08154 284.20605,227.8261 285.12362,227.8261"
       style="font-size:12px;fill:#ffcc00;fill-opacity:1" />
    <path
       id="path700"
       d="M 285.12362,227.8261 C 286.04118,227.8261 286.7834,227.08154 286.7834,226.16645 C 286.7834,225.24896 286.04118,224.50679 285.12362,224.50679 C 284.20605,224.50679 283.46384,225.24896 283.46384,226.16645 C 283.46384,227.08154 284.20605,227.8261 285.12362,227.8261 z "
       style="font-size:12px;fill:#bcac0b;fill-opacity:1;stroke:#000000;stroke-width:0.65331852" />
    <path
       id="path701"
       d="M 307.26284,228.47459 C 308.18041,228.47459 308.92262,227.73003 308.92262,226.81494 C 308.92262,225.89745 308.18041,225.15528 307.26284,225.15528 C 306.34528,225.15528 305.60306,225.89745 305.60306,226.81494 C 305.60306,227.73003 306.34528,228.47459 307.26284,228.47459"
       style="font-size:12px;fill:#ffcc00;fill-opacity:1" />
    <path
       id="path702"
       d="M 307.26284,228.47459 C 308.18041,228.47459 308.92262,227.73003 308.92262,226.81494 C 308.92262,225.89745 308.18041,225.15528 307.26284,225.15528 C 306.34528,225.15528 305.60306,225.89745 305.60306,226.81494 C 305.60306,227.73003 306.34528,228.47459 307.26284,228.47459 z "
       style="font-size:12px;fill:#bcac0b;fill-opacity:1;stroke:#000000;stroke-width:0.65331852" />
    <path
       id="path703"
       d="M 329.23393,232.00525 C 330.15149,232.00525 330.8937,231.26069 330.8937,230.3456 C 330.8937,229.42811 330.15149,228.68594 329.23393,228.68594 C 328.31876,228.68594 327.57654,229.42811 327.57654,230.3456 C 327.57654,231.26069 328.31876,232.00525 329.23393,232.00525"
       style="font-size:12px;fill:#ffcc00;fill-opacity:1" />
    <path
       id="path704"
       d="M 329.23393,232.00525 C 330.15149,232.00525 330.8937,231.26069 330.8937,230.3456 C 330.8937,229.42811 330.15149,228.68594 329.23393,228.68594 C 328.31876,228.68594 327.57654,229.42811 327.57654,230.3456 C 327.57654,231.26069 328.31876,232.00525 329.23393,232.00525 z "
       style="font-size:12px;fill:#bcac0b;fill-opacity:1;stroke:#000000;stroke-width:0.65331852" />
    <path
       id="path705"
       d="M 295.21441,225.9767 L 293.70596,225.9767 C 293.32884,227.48504 290.12218,228.42896 290.12218,228.42896 C 289.74506,227.23525 290.56175,225.53717 290.56175,225.53717 C 286.85306,224.59326 286.85306,223.27226 286.85306,223.27226 C 287.41753,222.01611 290.81396,221.82877 290.81396,221.82877 C 289.93242,220.69752 290.12218,218.87454 290.12218,218.87454 C 292.38486,219.00184 294.27043,221.26195 294.27043,221.26195 C 294.27043,221.26195 292.00775,220.13309 292.25996,216.10765 C 292.25996,216.10765 293.5162,216.04761 294.27043,216.86182 C 294.27043,216.86182 294.27043,212.52655 296.09355,212.02457 L 296.2809,212.02457 C 298.10402,212.52655 298.10402,216.86182 298.10402,216.86182 C 298.85825,216.04761 300.11449,216.10765 300.11449,216.10765 C 300.3667,220.13069 298.10402,221.26195 298.10402,221.26195 C 298.10402,221.26195 299.98959,219.00184 302.25227,218.87454 C 302.25227,218.87454 302.44203,220.69512 301.56049,221.82877 C 301.56049,221.82877 304.95692,222.01611 305.52139,223.27226 C 305.52139,223.27226 305.52139,224.59326 301.8127,225.53717 C 301.8127,225.53717 302.62939,227.23525 302.25227,228.42896 C 302.25227,228.42896 299.04561,227.48504 298.66849,225.9767 L 295.21201,225.9767"
       style="font-size:12px;fill:#ffcc00;fill-opacity:1" />
    <path
       id="path706"
       d="M 295.21441,225.9767 L 293.70596,225.9767 C 293.32884,227.48504 290.12218,228.42896 290.12218,228.42896 C 289.74506,227.23525 290.56175,225.53717 290.56175,225.53717 C 286.85306,224.59326 286.85306,223.27226 286.85306,223.27226 C 287.41753,222.01611 290.81396,221.82877 290.81396,221.82877 C 289.93242,220.69752 290.12218,218.87454 290.12218,218.87454 C 292.38486,219.00184 294.27043,221.26195 294.27043,221.26195 C 294.27043,221.26195 292.00775,220.13309 292.25996,216.10765 C 292.25996,216.10765 293.5162,216.04761 294.27043,216.86182 C 294.27043,216.86182 294.27043,212.52655 296.09355,212.02457 L 296.2809,212.02457 C 298.10402,212.52655 298.10402,216.86182 298.10402,216.86182 C 298.85825,216.04761 300.11449,216.10765 300.11449,216.10765 C 300.3667,220.13069 298.10402,221.26195 298.10402,221.26195 C 298.10402,221.26195 299.98959,219.00184 302.25227,218.87454 C 302.25227,218.87454 302.44203,220.69512 301.56049,221.82877 C 301.56049,221.82877 304.95692,222.01611 305.52139,223.27226 C 305.52139,223.27226 305.52139,224.59326 301.8127,225.53717 C 301.8127,225.53717 302.62939,227.23525 302.25227,228.42896 C 302.25227,228.42896 299.04561,227.48504 298.66849,225.9767 L 295.21201,225.9767 L 295.21441,225.9767 z "
       style="font-size:12px;fill:#bcac0b;fill-opacity:1;stroke:#000000;stroke-width:0.65331852" />
    <path
       id="path707"
       d="M 296.07193,226.83415 C 297.75093,226.83415 299.11046,225.47472 299.11046,223.79585 C 299.11046,222.11939 297.75093,220.75996 296.07193,220.75996 C 294.39534,220.75996 293.03581,222.11939 293.03581,223.79585 C 293.03581,225.47472 294.39534,226.83415 296.07193,226.83415"
       style="font-size:12px;fill:#ffffff" />
    <path
       id="path708"
       d="M 296.07193,226.83415 C 297.75093,226.83415 299.11046,225.47472 299.11046,223.79585 C 299.11046,222.11939 297.75093,220.75996 296.07193,220.75996 C 294.39534,220.75996 293.03581,222.11939 293.03581,223.79585 C 293.03581,225.47472 294.39534,226.83415 296.07193,226.83415 z "
       style="font-size:12px;fill:none;stroke:#000000;stroke-width:0.40352026" />
    <path
       id="path709"
       d="M 296.07193,225.45551 C 296.98949,225.45551 297.73412,224.71335 297.73412,223.79585 C 297.73412,222.88076 296.98949,222.1386 296.07193,222.1386 C 295.15677,222.1386 294.41455,222.88076 294.41455,223.79585 C 294.41455,224.71335 295.15677,225.45551 296.07193,225.45551"
       style="font-size:12px;fill:#ffffff" />
    <path
       id="path710"
       d="M 296.07193,225.45551 C 296.98949,225.45551 297.73412,224.71335 297.73412,223.79585 C 297.73412,222.88076 296.98949,222.1386 296.07193,222.1386 C 295.15677,222.1386 294.41455,222.88076 294.41455,223.79585 C 294.41455,224.71335 295.15677,225.45551 296.07193,225.45551 z "
       style="font-size:12px;fill:none;stroke:#000000;stroke-width:0.25220016" />
    <path
       id="path711"
       d="M 319.10709,227.94379 L 320.58192,228.26323 C 320.62756,229.8172 323.56761,231.41441 323.56761,231.41441 C 324.18492,230.32639 323.74536,228.49621 323.74536,228.49621 C 327.56934,228.3569 327.84556,227.06713 327.84556,227.06713 C 327.55973,225.71731 324.281,224.81663 324.281,224.81663 C 325.37872,223.89673 325.58049,222.07375 325.58049,222.07375 C 323.34182,221.72069 321.01909,223.53405 321.01909,223.53405 C 321.01909,223.53405 323.47152,222.90719 324.07443,218.92018 C 324.07443,218.92018 322.85662,218.59593 321.95106,219.2324 C 321.95106,219.2324 322.86382,214.9932 321.18963,214.11895 L 321.00468,214.07811 C 319.11671,214.1862 318.20155,218.4254 318.20155,218.4254 C 317.63707,217.46707 316.39524,217.26292 316.39524,217.26292 C 315.29993,221.14185 317.27437,222.72705 317.27437,222.72705 C 317.27437,222.72705 315.90763,220.11628 313.72182,219.51583 C 313.72182,219.51583 313.15254,221.25714 313.77466,222.54931 C 313.77466,222.54931 310.41666,222.01851 309.59759,223.12815 C 309.59759,223.12815 309.32135,224.41793 312.74661,226.12321 C 312.74661,226.12321 311.58884,227.60994 311.70654,228.85648 C 311.70654,228.85648 315.04051,228.61149 315.72749,227.21604 L 317.19991,227.53308 L 319.10709,227.94379"
       style="font-size:12px;fill:#ffcc00;fill-opacity:1" />
    <path
       id="path712"
       d="M 319.10709,227.94379 L 320.58192,228.26323 C 320.62756,229.8172 323.56761,231.41441 323.56761,231.41441 C 324.18492,230.32639 323.74536,228.49621 323.74536,228.49621 C 327.56934,228.3569 327.84556,227.06713 327.84556,227.06713 C 327.55973,225.71731 324.281,224.81663 324.281,224.81663 C 325.37872,223.89673 325.58049,222.07375 325.58049,222.07375 C 323.34182,221.72069 321.01909,223.53405 321.01909,223.53405 C 321.01909,223.53405 323.47152,222.90719 324.07443,218.92018 C 324.07443,218.92018 322.85662,218.59593 321.95106,219.2324 C 321.95106,219.2324 322.86382,214.9932 321.18963,214.11895 L 321.00468,214.07811 C 319.11671,214.1862 318.20155,218.4254 318.20155,218.4254 C 317.63707,217.46707 316.39524,217.26292 316.39524,217.26292 C 315.29993,221.14185 317.27437,222.72705 317.27437,222.72705 C 317.27437,222.72705 315.90763,220.11628 313.72182,219.51583 C 313.72182,219.51583 313.15254,221.25714 313.77466,222.54931 C 313.77466,222.54931 310.41666,222.01851 309.59759,223.12815 C 309.59759,223.12815 309.32135,224.41793 312.74661,226.12321 C 312.74661,226.12321 311.58884,227.60994 311.70654,228.85648 C 311.70654,228.85648 315.04051,228.61149 315.72749,227.21604 L 317.19991,227.53308 L 319.10709,227.94379"
       style="font-size:12px;fill:#bcac0b;fill-opacity:1;stroke:#000000;stroke-width:0.65331852" />
    <path
       id="path713"
       d="M 318.08385,228.60188 C 316.44569,228.24882 315.40322,226.6324 315.75631,224.99196 C 316.1094,223.35393 317.72594,222.30914 319.36651,222.6646 C 321.00708,223.01767 322.04955,224.63409 321.69645,226.27452 C 321.34096,227.91257 319.72441,228.95736 318.08385,228.60188"
       style="font-size:12px;fill:#ffffff" />
    <path
       id="path714"
       d="M 318.08385,228.60188 C 316.44569,228.24882 315.40322,226.6324 315.75631,224.99196 C 316.1094,223.35393 317.72594,222.30914 319.36651,222.6646 C 321.00708,223.01767 322.04955,224.63409 321.69645,226.27452 C 321.34096,227.91257 319.72441,228.95736 318.08385,228.60188 z "
       style="font-size:12px;fill:none;stroke:#000000;stroke-width:0.40352026" />
    <path
       id="path715"
       d="M 318.37689,227.25447 C 317.47854,227.06233 316.90927,226.17845 317.10383,225.28258 C 317.29599,224.38911 318.17992,223.81747 319.07587,224.01202 C 319.97182,224.20417 320.54109,225.09043 320.34893,225.98391 C 320.15437,226.87979 319.27043,227.44902 318.37689,227.25447"
       style="font-size:12px;fill:#ffffff" />
    <path
       id="path716"
       d="M 318.37689,227.25447 C 317.47854,227.06233 316.90927,226.17845 317.10383,225.28258 C 317.29599,224.38911 318.17992,223.81747 319.07587,224.01202 C 319.97182,224.20417 320.54109,225.09043 320.34893,225.98391 C 320.15437,226.87979 319.27043,227.44902 318.37689,227.25447 z "
       style="font-size:12px;fill:none;stroke:#000000;stroke-width:0.25220016" />
    <path
       id="path717"
       d="M 272.26572,227.64837 L 270.76927,227.84532 C 270.59393,229.39208 267.53859,230.74911 267.53859,230.74911 C 267.00775,229.61545 267.59384,227.8261 267.59384,227.8261 C 263.79387,227.37936 263.61853,226.07037 263.61853,226.07037 C 264.01486,224.75178 267.35363,224.11529 267.35363,224.11529 C 266.33278,223.11134 266.27994,221.27876 266.27994,221.27876 C 268.54022,221.10822 270.70922,223.09933 270.70922,223.09933 C 270.70922,223.09933 268.31684,222.27551 268.0358,218.25487 C 268.0358,218.25487 269.27523,218.0267 270.13034,218.73764 C 270.13034,218.73764 269.55867,214.43839 271.29531,213.69863 L 271.48267,213.67701 C 273.35623,213.9316 273.92791,218.23325 273.92791,218.23325 C 274.56924,217.32537 275.82308,217.21969 275.82308,217.21969 C 276.60373,221.17547 274.50919,222.59255 274.50919,222.59255 C 274.50919,222.59255 276.0801,220.10427 278.30675,219.68155 C 278.30675,219.68155 278.7343,221.4613 278.0113,222.69823 C 278.0113,222.69823 281.40052,222.43643 282.12832,223.60852 C 282.12832,223.60852 282.30127,224.91751 278.74872,226.34178 C 278.74872,226.34178 279.78397,227.91497 279.56779,229.1495 C 279.56779,229.1495 276.26505,228.63792 275.69097,227.19202 L 274.19453,227.39137 L 272.26572,227.64837"
       style="font-size:12px;fill:#ffcc00;fill-opacity:1" />
    <path
       id="path718"
       d="M 272.26572,227.64837 L 270.76927,227.84532 C 270.59393,229.39208 267.53859,230.74911 267.53859,230.74911 C 267.00775,229.61545 267.59384,227.8261 267.59384,227.8261 C 263.79387,227.37936 263.61853,226.07037 263.61853,226.07037 C 264.01486,224.75178 267.35363,224.11529 267.35363,224.11529 C 266.33278,223.11134 266.27994,221.27876 266.27994,221.27876 C 268.54022,221.10822 270.70922,223.09933 270.70922,223.09933 C 270.70922,223.09933 268.31684,222.27551 268.0358,218.25487 C 268.0358,218.25487 269.27523,218.0267 270.13034,218.73764 C 270.13034,218.73764 269.55867,214.43839 271.29531,213.69863 L 271.48267,213.67701 C 273.35623,213.9316 273.92791,218.23325 273.92791,218.23325 C 274.56924,217.32537 275.82308,217.21969 275.82308,217.21969 C 276.60373,221.17547 274.50919,222.59255 274.50919,222.59255 C 274.50919,222.59255 276.0801,220.10427 278.30675,219.68155 C 278.30675,219.68155 278.7343,221.4613 278.0113,222.69823 C 278.0113,222.69823 281.40052,222.43643 282.12832,223.60852 C 282.12832,223.60852 282.30127,224.91751 278.74872,226.34178 C 278.74872,226.34178 279.78397,227.91497 279.56779,229.1495 C 279.56779,229.1495 276.26505,228.63792 275.69097,227.19202 L 274.19453,227.39137 L 272.26572,227.64837"
       style="font-size:12px;fill:#bcac0b;fill-opacity:1;stroke:#000000;stroke-width:0.65331852" />
    <path
       id="path719"
       d="M 273.22892,228.38572 C 274.8935,228.16475 276.06328,226.6372 275.83989,224.97275 C 275.61891,223.31069 274.09124,222.14101 272.42906,222.36438 C 270.76447,222.58534 269.5971,224.11289 269.81809,225.77495 C 270.03907,227.437 271.56673,228.60669 273.22892,228.38572"
       style="font-size:12px;fill:#ffffff" />
    <path
       id="path720"
       d="M 273.22892,228.38572 C 274.8935,228.16475 276.06328,226.6372 275.83989,224.97275 C 275.61891,223.31069 274.09124,222.14101 272.42906,222.36438 C 270.76447,222.58534 269.5971,224.11289 269.81809,225.77495 C 270.03907,227.437 271.56673,228.60669 273.22892,228.38572 z "
       style="font-size:12px;fill:none;stroke:#000000;stroke-width:0.40352026" />
    <path
       id="path721"
       d="M 273.04877,227.01909 C 273.95673,226.899 274.59566,226.06557 274.47316,225.15528 C 274.35305,224.24739 273.51956,223.61092 272.6116,223.7286 C 271.70125,223.85109 271.06232,224.68453 271.18482,225.59241 C 271.30492,226.5027 272.14081,227.13918 273.04877,227.01909"
       style="font-size:12px;fill:#ffffff" />
    <path
       id="path722"
       d="M 273.04877,227.01909 C 273.95673,226.899 274.59566,226.06557 274.47316,225.15528 C 274.35305,224.24739 273.51956,223.61092 272.6116,223.7286 C 271.70125,223.85109 271.06232,224.68453 271.18482,225.59241 C 271.30492,226.5027 272.14081,227.13918 273.04877,227.01909 z "
       style="font-size:12px;fill:none;stroke:#000000;stroke-width:0.25220016" />
    <path
       id="path723"
       d="M 340.16061,234.10444 C 340.16061,234.10444 339.39919,232.10613 337.71778,232.82427 C 336.03638,233.54242 336.20933,233.80421 334.70568,233.71295 C 334.70568,233.71295 334.11959,231.91639 334.8594,231.1406 C 334.8594,231.1406 332.4574,230.24232 331.95298,228.13353 C 331.95298,228.13353 333.24046,226.6396 336.291,227.19683 C 336.291,227.19683 336.19491,225.68128 336.61286,225.01357 C 336.61286,225.01357 339.88919,226.02714 339.906,227.85492 C 339.906,227.85492 338.92358,224.26902 340.65303,221.66545 C 340.65303,221.66545 342.1879,222.32355 342.08942,223.95678 C 342.08942,223.95678 342.79561,220.59664 347.33778,221.49972 C 347.33778,221.49972 344.87574,223.68297 344.75324,224.68212 C 344.63074,225.68128 342.57702,227.38417 342.541,227.95099 C 342.50977,228.51542 342.25996,229.50737 341.65706,230.10062 C 341.05416,230.69386 340.99411,231.70023 341.04215,232.01487 C 341.08298,232.3343 340.93886,233.71055 340.16061,234.10444"
       style="font-size:12px;fill:#ffcc00;fill-opacity:1" />
    <path
       id="path724"
       d="M 340.16061,234.10444 C 340.16061,234.10444 339.39919,232.10613 337.71778,232.82427 C 336.03638,233.54242 336.20933,233.80421 334.70568,233.71295 C 334.70568,233.71295 334.11959,231.91639 334.8594,231.1406 C 334.8594,231.1406 332.4574,230.24232 331.95298,228.13353 C 331.95298,228.13353 333.24046,226.6396 336.291,227.19683 C 336.291,227.19683 336.19491,225.68128 336.61286,225.01357 C 336.61286,225.01357 339.88919,226.02714 339.906,227.85492 C 339.906,227.85492 338.92358,224.26902 340.65303,221.66545 C 340.65303,221.66545 342.1879,222.32355 342.08942,223.95678 C 342.08942,223.95678 342.79561,220.59664 347.33778,221.49972 C 347.33778,221.49972 344.87574,223.68297 344.75324,224.68212 C 344.63074,225.68128 342.57702,227.38417 342.541,227.95099 C 342.50977,228.51542 342.25996,229.50737 341.65706,230.10062 C 341.05416,230.69386 340.99411,231.70023 341.04215,232.01487 C 341.08298,232.3343 340.93886,233.71055 340.16061,234.10444 z "
       style="font-size:12px;fill:#bcac0b;fill-opacity:1;stroke:#000000;stroke-width:0.65331852" />
    <path
       id="path725"
       d="M 337.70097,230.11743 C 338.02283,228.47219 339.61776,227.39618 341.26313,227.71802 C 341.73152,227.80688 342.14947,228.00383 342.50496,228.27284 C 342.41369,228.84207 342.15908,229.60825 341.65946,230.10062 C 341.05656,230.69386 340.99651,231.70023 341.04215,232.01487 C 341.07577,232.26465 340.9869,233.16293 340.57376,233.73216 C 340.41763,233.72496 340.2591,233.71055 340.10296,233.67932 C 338.46,233.35988 337.38391,231.76508 337.70097,230.11743"
       style="font-size:12px;fill:#ffffff" />
    <path
       id="path726"
       d="M 337.70097,230.11743 C 338.02283,228.47219 339.61776,227.39618 341.26313,227.71802 C 341.73152,227.80688 342.14947,228.00383 342.50496,228.27284 C 342.41369,228.84207 342.15908,229.60825 341.65946,230.10062 C 341.05656,230.69386 340.99651,231.70023 341.04215,232.01487 C 341.07577,232.26465 340.9869,233.16293 340.57376,233.73216 C 340.41763,233.72496 340.2591,233.71055 340.10296,233.67932 C 338.46,233.35988 337.38391,231.76508 337.70097,230.11743 z "
       style="font-size:12px;fill:none;stroke:#000000;stroke-width:0.40352026" />
    <path
       id="path727"
       d="M 339.05569,230.38162 C 339.22864,229.48335 340.10056,228.89491 341.00131,229.07024 C 341.40965,229.1495 341.74834,229.37767 341.98853,229.68511 C 341.89246,229.83401 341.78436,229.97812 341.65946,230.10062 C 341.05656,230.69386 340.99651,231.70023 341.04215,232.01487 C 341.04936,232.07972 341.04936,232.19019 341.03735,232.31989 C 340.82356,232.36553 340.59538,232.37273 340.36718,232.3271 C 339.46644,232.15177 338.88035,231.28231 339.05569,230.38162"
       style="font-size:12px;fill:#ffffff" />
    <path
       id="path728"
       d="M 339.05569,230.38162 C 339.22864,229.48335 340.10056,228.89491 341.00131,229.07024 C 341.40965,229.1495 341.74834,229.37767 341.98853,229.68511 C 341.89246,229.83401 341.78436,229.97812 341.65946,230.10062 C 341.05656,230.69386 340.99651,231.70023 341.04215,232.01487 C 341.04936,232.07972 341.04936,232.19019 341.03735,232.31989 C 340.82356,232.36553 340.59538,232.37273 340.36718,232.3271 C 339.46644,232.15177 338.88035,231.28231 339.05569,230.38162 z "
       style="font-size:12px;fill:none;stroke:#000000;stroke-width:0.25220016" />
    <path
       id="path729"
       d="M 252.15139,233.26861 C 252.15139,233.26861 253.03051,231.32074 254.66387,232.13735 C 256.29963,232.95397 256.10987,233.20616 257.62074,233.20616 C 257.62074,233.20616 258.31011,231.44563 257.62074,230.62901 C 257.62074,230.62901 260.07077,229.87485 260.7001,227.79968 C 260.7001,227.79968 259.50631,226.2289 256.42454,226.60598 C 256.42454,226.60598 256.61429,225.09523 256.23718,224.40592 C 256.23718,224.40592 252.90561,225.22253 252.7783,227.04551 C 252.7783,227.04551 253.9745,223.52445 252.40119,220.82241 C 252.40119,220.82241 250.83028,221.38684 250.83028,223.02248 C 250.83028,223.02248 250.32827,219.62631 245.73804,220.25558 C 245.73804,220.25558 248.06318,222.58294 248.12803,223.5869 C 248.19049,224.59326 250.13851,226.41624 250.13851,226.98306 C 250.13851,227.54749 250.32827,228.55384 250.89273,229.18312 C 251.45961,229.8124 251.45961,230.81636 251.39475,231.131 C 251.3323,231.44323 251.39475,232.82668 252.15139,233.26861"
       style="font-size:12px;fill:#ffcc00;fill-opacity:1" />
    <path
       id="path730"
       d="M 252.15139,233.26861 C 252.15139,233.26861 253.03051,231.32074 254.66387,232.13735 C 256.29963,232.95397 256.10987,233.20616 257.62074,233.20616 C 257.62074,233.20616 258.31011,231.44563 257.62074,230.62901 C 257.62074,230.62901 260.07077,229.87485 260.7001,227.79968 C 260.7001,227.79968 259.50631,226.2289 256.42454,226.60598 C 256.42454,226.60598 256.61429,225.09523 256.23718,224.40592 C 256.23718,224.40592 252.90561,225.22253 252.7783,227.04551 C 252.7783,227.04551 253.9745,223.52445 252.40119,220.82241 C 252.40119,220.82241 250.83028,221.38684 250.83028,223.02248 C 250.83028,223.02248 250.32827,219.62631 245.73804,220.25558 C 245.73804,220.25558 248.06318,222.58294 248.12803,223.5869 C 248.19049,224.59326 250.13851,226.41624 250.13851,226.98306 C 250.13851,227.54749 250.32827,228.55384 250.89273,229.18312 C 251.45961,229.8124 251.45961,230.81636 251.39475,231.131 C 251.3323,231.44323 251.39475,232.82668 252.15139,233.26861 z "
       style="font-size:12px;fill:#bcac0b;fill-opacity:1;stroke:#000000;stroke-width:0.65331852" />
    <path
       id="path731"
       d="M 254.84162,229.43772 C 254.62064,227.77325 253.09537,226.60598 251.43079,226.82695 C 250.95999,226.88939 250.53003,227.05993 250.15772,227.3073 C 250.21537,227.88134 250.42194,228.65953 250.89273,229.18312 C 251.45961,229.8124 251.45961,230.81636 251.39475,231.131 C 251.34671,231.37598 251.38034,232.27907 251.76226,232.86991 C 251.91599,232.87231 252.07452,232.86991 252.23305,232.84829 C 253.89523,232.62733 255.065,231.09978 254.84162,229.43772"
       style="font-size:12px;fill:#ffffff" />
    <path
       id="path732"
       d="M 254.84162,229.43772 C 254.62064,227.77325 253.09537,226.60598 251.43079,226.82695 C 250.95999,226.88939 250.53003,227.05993 250.15772,227.3073 C 250.21537,227.88134 250.42194,228.65953 250.89273,229.18312 C 251.45961,229.8124 251.45961,230.81636 251.39475,231.131 C 251.34671,231.37598 251.38034,232.27907 251.76226,232.86991 C 251.91599,232.87231 252.07452,232.86991 252.23305,232.84829 C 253.89523,232.62733 255.065,231.09978 254.84162,229.43772 z "
       style="font-size:12px;fill:none;stroke:#000000;stroke-width:0.40352026" />
    <path
       id="path733"
       d="M 253.47729,229.61785 C 253.35718,228.70997 252.52129,228.07108 251.61333,228.19118 C 251.19779,228.24882 250.8471,228.45538 250.59009,228.74599 C 250.67896,228.90211 250.77504,229.05102 250.89273,229.18312 C 251.45961,229.8124 251.45961,230.81636 251.39475,231.131 C 251.38274,231.19344 251.37794,231.30153 251.38034,231.43363 C 251.59172,231.49367 251.81991,231.51289 252.0505,231.48406 C 252.95845,231.36157 253.59739,230.52814 253.47729,229.61785"
       style="font-size:12px;fill:#ffffff" />
    <path
       id="path734"
       d="M 253.47729,229.61785 C 253.35718,228.70997 252.52129,228.07108 251.61333,228.19118 C 251.19779,228.24882 250.8471,228.45538 250.59009,228.74599 C 250.67896,228.90211 250.77504,229.05102 250.89273,229.18312 C 251.45961,229.8124 251.45961,230.81636 251.39475,231.131 C 251.38274,231.19344 251.37794,231.30153 251.38034,231.43363 C 251.59172,231.49367 251.81991,231.51289 252.0505,231.48406 C 252.95845,231.36157 253.59739,230.52814 253.47729,229.61785 z "
       style="font-size:12px;fill:none;stroke:#000000;stroke-width:0.25220016" />
    <path
       id="path735"
       d="M 257.24122,251.62327 C 257.24122,251.62327 290.9893,238.40369 333.62478,251.90669"
       style="font-size:12px;fill:none;stroke:#000000;stroke-width:1.50839722" />
    <path
       id="path736"
       d="M 338.38314,241.09612 C 291.27274,226.17605 253.72229,240.25789 253.72229,240.25789"
       style="font-size:12px;fill:none;stroke:#000000;stroke-width:0.50199842" />
    <path
       id="path737"
       d="M 295.96865,237.79603 L 292.19511,239.68145 L 295.59153,241.81907 L 299.61488,239.80635 L 295.96865,237.79603"
       style="font-size:12px;fill:#ff0000" />
    <path
       id="path738"
       d="M 295.96865,237.79603 L 292.19511,239.68145 L 295.59153,241.81907 L 299.61488,239.80635 L 295.96865,237.79603"
       style="font-size:12px;fill:none;stroke:#000000;stroke-width:0.50199842" />
  </g>
</svg>
