<?xml version="1.0" encoding="UTF-8"?>
<!-- Created with Sodipodi ("http://www.sodipodi.com/") -->
<svg id="svg934" width="600" height="400" sodipodi:docbase="F:\Mis Documentos - Miaj Dokumentoj\Mis imágenes\++Wiki\Sullpukuna\SVG" sodipodi:docname="Flag_of_Galicia.svg" sodipodi:version="0.32" version="1.0" xmlns="http://www.w3.org/2000/svg" xmlns:cc="http://web.resource.org/cc/" xmlns:dc="http://purl.org/dc/elements/1.1/" xmlns:rdf="http://www.w3.org/1999/02/22-rdf-syntax-ns#" xmlns:sodipodi="http://inkscape.sourceforge.net/DTD/sodipodi-0.dtd">
 <metadata id="metadata188">
  <rdf:RDF>
   <cc:Work rdf:about="">
    <dc:format>image/svg+xml</dc:format>
    <dc:type rdf:resource="http://purl.org/dc/dcmitype/StillImage"/>
   </cc:Work>
  </rdf:RDF>
 </metadata>
 <sodipodi:namedview id="base"/>
 <g id="g5162" transform="matrix(1 0 0 1.0001 -.04 -96.055)">
  <rect id="rect733" x=".040048" y="96.048" width="600" height="399.97" fill="#fff" fill-rule="evenodd" stroke-width="1pt"/>
  <path id="path556" d="m600.04 437.8-513.97-341.75h-86.03v56.935l515.9 343.03h84.104v-58.22" fill="#09c"/>
 </g>
 <g id="g4979" transform="matrix(1 0 0 1.0001 -.04 -96.055)">
  <path id="path558" d="m296.65 401.23c-60.134 0-58.181-56.575-58.181-56.575v-86.833h116.36v86.833s2.0369 56.575-58.179 56.575" fill="#005bbf"/>
  <path id="path559" d="m296.65 401.23c-60.134 0-58.181-56.575-58.181-56.575v-86.833h116.36v86.833s2.0369 56.575-58.179 56.575z" fill="none" stroke="#000" stroke-width="1.0064"/>
  <path id="path560" d="m296.14 203.18s-12.406-6.0358-24.142 2.851c0 0-21.118-3.0479-22.672 17.18-0.06245 0.81902-0.18975 2.3274 0.18736 2.7669 0.37712 0.43954 0.75423 1.2586 0.75423 1.8206 0 0.56683 0.37712 0.88146 0.50443 1.1312 0.12489 0.25219 0.43955 0.62928 0.50201 1.6981 0.06245 1.0688-0.12491 1.5708 0.88154 2.6396 1.004 1.0688 1.0665 4.1503 1.0665 5.0294 0 0.87906 0.62933 3.3313 1.0689 3.8357 0.43957 0.50197 1.1938 1.7581 1.1938 2.8269 0 1.0688 0.43957 4.023 0.24981 4.7748-0.18735 0.75417 1.1313 1.6981 2.3275 2.0752 1.1938 0.37709 16.031 5.2167 37.656 4.8396 21.628-0.37708 29.415-1.5276 38.35-4.7772 1.3812-0.50199 1.6334-1.6332 1.5085-2.2625-0.12731-0.62686 0-2.6372 0.37711-3.1416 0.37711-0.50197 2.892-4.525 2.3876-5.2792-0.50202-0.75417-0.50202-2.3898 0-3.0167 0.50442-0.62928 2.0777-3.6532 2.3876-4.9045 0.31226-1.2537 0.35309-2.7309 0.92957-3.168 0.57888-0.43713 0.77344-1.8542 0.88394-2.1496 0.11288-0.29782 0.53324-1.2201 1.1193-1.6404 0 0 1.0905-5.111 0.41794-7.6234-0.66775-2.5147-4.4413-13.328-19.78-11.063 0 0-11.4-8.6345-28.163-4.4434" fill="#d81126"/>
  <path id="path561" d="m296.14 203.18s-12.406-6.0358-24.142 2.851c0 0-21.118-3.0479-22.672 17.18-0.06245 0.81902-0.18975 2.3274 0.18736 2.7669 0.37712 0.43954 0.75423 1.2586 0.75423 1.8206 0 0.56683 0.37712 0.88146 0.50443 1.1312 0.12489 0.25219 0.43955 0.62928 0.50201 1.6981 0.06245 1.0688-0.12491 1.5708 0.88154 2.6396 1.004 1.0688 1.0665 4.1503 1.0665 5.0294 0 0.87906 0.62933 3.3313 1.0689 3.8357 0.43957 0.50197 1.1938 1.7581 1.1938 2.8269 0 1.0688 0.43957 4.023 0.24981 4.7748-0.18735 0.75417 1.1313 1.6981 2.3275 2.0752 1.1938 0.37709 16.031 5.2167 37.656 4.8396 21.628-0.37708 29.415-1.5276 38.35-4.7772 1.3812-0.50199 1.6334-1.6332 1.5085-2.2625-0.12731-0.62686 0-2.6372 0.37711-3.1416 0.37711-0.50197 2.892-4.525 2.3876-5.2792-0.50202-0.75417-0.50202-2.3898 0-3.0167 0.50442-0.62928 2.0777-3.6532 2.3876-4.9045 0.31226-1.2537 0.35309-2.7309 0.92957-3.168 0.57888-0.43713 0.77344-1.8542 0.88394-2.1496 0.11288-0.29782 0.53324-1.2201 1.1193-1.6404 0 0 1.0905-5.111 0.41794-7.6234-0.66775-2.5147-4.4413-13.328-19.78-11.063 0 0-11.4-8.6345-28.163-4.4434h0.0048z" fill="none" stroke="#000" stroke-width="1.5084"/>
  <path id="path562" d="m337.64 240.83c-47.108-14.92-83.414-0.73976-83.414-0.73976s0.33627 1.6452 0.75422 2.1472c0.42035 0.50198 1.0064 1.6765 1.0064 2.5579 0 0.87906 0.08407 2.1376 0.08407 2.8077 0 0.6677-0.51403 3.6748 2.1738 3.6388 0 0 32.742-12.842 75.377 0.6605 0 0 1.1674-1.0472 1.2106-2.5555 0.04083-1.5083 0.29064-3.1007 0.87912-3.939 0.58609-0.83823 1.9264-3.4562 1.9264-4.5779" fill="#bcac0b"/>
  <path id="path563" d="m293.97 319.35h-20.453s-2.0129 18.271 13.747 23.804v1.6765h3.3532v2.1784s-5.784 5.1951-0.75663 11.147v1.8446h0.8407v2.9326h0.91996v4.7748s-0.75423 17.058-17.477 25.229v1.0064h44.651v-1.0064c-16.72-8.171-17.477-25.229-17.477-25.229v-4.7748h0.91996v-2.9326h0.8383v-1.8446c5.0298-5.9517-0.75423-11.147-0.75423-11.147v-2.1784h3.3532v-1.6765c15.76-5.5338 13.747-23.804 13.747-23.804h-25.454" fill="#c8b100" fill-opacity=".94118"/>
  <path id="path564" d="m293.97 319.35h-20.453s-2.0129 18.271 13.747 23.804v1.6765h3.3532v2.1784s-5.784 5.1951-0.75663 11.147v1.8446h0.8407v2.9326h0.91996v4.7748s-0.75423 17.058-17.477 25.229v1.0064h44.651v-1.0064c-16.72-8.171-17.477-25.229-17.477-25.229v-4.7748h0.91996v-2.9326h0.8383v-1.8446c5.0298-5.9517-0.75423-11.147-0.75423-11.147v-2.1784h3.3532v-1.6765c15.76-5.5338 13.747-23.804 13.747-23.804h-25.454 0.0024z" fill="none" stroke="#000" stroke-width="1.0064"/>
  <path id="path565" d="m286.59 342.9h19.742m-19.069 1.5083h18.399m-15.046 2.5147h11.568m-12.325 11.44h13.204m-12.322 1.4051h11.527m-11.527 2.851h11.484m-18.524 23.153h25.524m-32.732 5.9085h39.984m-41.492 0.87906h43.041" fill="none" stroke="#000" stroke-width=".2522"/>
  <path id="path566" d="m296.64 318.27c7.2012 0 13.04-5.8388 13.04-13.039 0-7.2006-5.8393-13.039-13.04-13.039-7.2012 0-13.04 5.8388-13.04 13.039 0 7.2006 5.8392 13.039 13.04 13.039" fill="#ccc"/>
  <path id="path567" d="m296.64 318.27c7.2012 0 13.04-5.8388 13.04-13.039 0-7.2006-5.8393-13.039-13.04-13.039-7.2012 0-13.04 5.8388-13.04 13.039 0 7.2006 5.8392 13.039 13.04 13.039z" fill="none" stroke="#000" stroke-width="1.0064"/>
  <path id="path568" d="m266.29 279.96h-8.1308v-8.1326h-7.2084v8.1326h-8.1308v7.2054h8.1308v8.1302h7.2084v-8.1302h8.1308v-7.2054" fill="#ccc"/>
  <path id="path569" d="m266.29 279.96h-8.1308v-8.1326h-7.2084v8.1326h-8.1308v7.2054h8.1308v8.1302h7.2084v-8.1302h8.1308v-7.2054" fill="none" stroke="#000" stroke-width="1.0064"/>
  <path id="path570" d="m350.8 279.96h-8.1308v-8.1326h-7.2108v8.1326h-8.1284v7.2054h8.1284v8.1302h7.2108v-8.1302h8.1308v-7.2054" fill="#ccc"/>
  <path id="path571" d="m350.8 279.96h-8.1308v-8.1326h-7.2108v8.1326h-8.1284v7.2054h8.1284v8.1302h7.2108v-8.1302h8.1308v-7.2054" fill="none" stroke="#000" stroke-width="1.0064"/>
  <path id="path572" d="m307.98 269.74h-8.1308v-8.1301h-7.2084v8.1301h-8.1308v7.2078h8.1308v8.1301h7.2084v-8.1301h8.1308v-7.2078" fill="#ccc"/>
  <path id="path573" d="m307.98 269.74h-8.1308v-8.1301h-7.2084v8.1301h-8.1308v7.2078h8.1308v8.1301h7.2084v-8.1301h8.1308v-7.2078" fill="none" stroke="#000" stroke-width="1.0064"/>
  <path id="path574" d="m266.29 315.16h-8.1308v-8.1301h-7.2084v8.1301h-8.1308v7.2078h8.1308v8.1301h7.2084v-8.1301h8.1308v-7.2078" fill="#ccc"/>
  <path id="path575" d="m266.29 315.16h-8.1308v-8.1301h-7.2084v8.1301h-8.1308v7.2078h8.1308v8.1301h7.2084v-8.1301h8.1308v-7.2078" fill="none" stroke="#000" stroke-width="1.0064"/>
  <path id="path576" d="m350.8 315.16h-8.1308v-8.1301h-7.2108v8.1301h-8.1284v7.2078h8.1284v8.1301h7.2108v-8.1301h8.1308v-7.2078" fill="#ccc"/>
  <path id="path577" d="m350.8 315.16h-8.1308v-8.1301h-7.2108v8.1301h-8.1284v7.2078h8.1284v8.1301h7.2108v-8.1301h8.1308v-7.2078" fill="none" stroke="#000" stroke-width="1.0064"/>
  <path id="path578" d="m266.29 350.71h-8.1308v-8.1325h-7.2084v8.1325h-8.1308v7.2078h8.1308v8.1277h7.2084v-8.1277h8.1308v-7.2078" fill="#ccc"/>
  <path id="path579" d="m266.29 350.71h-8.1308v-8.1325h-7.2084v8.1325h-8.1308v7.2078h8.1308v8.1277h7.2084v-8.1277h8.1308v-7.2078" fill="none" stroke="#000" stroke-width="1.0064"/>
  <path id="path580" d="m350.8 350.71h-8.1308v-8.1325h-7.2108v8.1325h-8.1284v7.2078h8.1284v8.1277h7.2108v-8.1277h8.1308v-7.2078" fill="#ccc"/>
  <path id="path581" d="m350.8 350.71h-8.1308v-8.1325h-7.2108v8.1325h-8.1284v7.2078h8.1284v8.1277h7.2108v-8.1277h8.1308v-7.2078" fill="none" stroke="#000" stroke-width="1.0064"/>
  <path id="path582" d="m296.53 185.77c4.3212 0 7.8257-3.5018 7.8257-7.8227 0-4.3209-3.5045-7.8227-7.8257-7.8227-4.3212 0-7.8233 3.5018-7.8233 7.8227 0 4.3209 3.5021 7.8227 7.8233 7.8227" fill="#005bbf"/>
  <path id="path583" d="m296.53 185.77c4.3212 0 7.8257-3.5018 7.8257-7.8227 0-4.3209-3.5045-7.8227-7.8257-7.8227-4.3212 0-7.8233 3.5018-7.8233 7.8227 0 4.3209 3.5021 7.8227 7.8233 7.8227z" fill="none" stroke="#000" stroke-width="1.0064"/>
  <path id="path584" d="m303.83 176.57h-6.4133v-10.371h2.45v-2.0752h-2.45v-2.4523h-2.0753v2.4523h-2.4524v2.0752h2.4524v10.371h-6.0987v1.3834h6.0987v0.06245h2.0753v-0.06245h6.4133v-1.3834" fill="#fc0"/>
  <path id="path585" d="m303.83 176.57h-6.4133v-10.371h2.45v-2.0752h-2.45v-2.4523h-2.0753v2.4523h-2.4524v2.0752h2.4524v10.371h-6.0987v1.3834h6.0987v0.06245h2.0753v-0.06245h6.4133v-1.3834" fill="#bcac0b" stroke="#000" stroke-width=".502"/>
  <path id="path586" d="m265.21 195.13s5.784-0.6701 9.1348 0.67011c0 0-3.8408 4.3689-3.0169 10.14 0.42034 2.935 1.0064 4.4434 1.8447 5.8676 0.8383 1.4267 1.7583 4.3593 1.2562 6.7058h1.0905s1.0905-4.7772-0.75423-7.46c-1.8447-2.6804-2.7671-6.3696-0.92236-10.225 1.8423-3.8549 4.5254-5.3632 4.5254-5.3632 3.101 1.2562 9.6416 0.08166 11.484-1.2585 1.8423-1.3426 2.7647-3.1848-0.67015-3.3529-3.4349-0.16812-9.303-0.08406-13.326 2.935 0 0-2.0969-2.433-12.574-1.2586-10.478 1.1745-18.051 5.6491-20.369 15.088-1.1722 4.7772 3.2691 14.834 7.3765 17.264 0 0-0.12491-1.6332 0.29305-2.8077 0 0-6.9994-7.8371-4.9025-15.129 2.0946-7.2919 10.478-12.069 19.531-11.817" fill="#fc0"/>
  <path id="path587" d="m265.21 195.13s5.784-0.6701 9.1348 0.67011c0 0-3.8408 4.3689-3.0169 10.14 0.42034 2.935 1.0064 4.4434 1.8447 5.8676 0.8383 1.4267 1.7583 4.3593 1.2562 6.7058h1.0905s1.0905-4.7772-0.75423-7.46c-1.8447-2.6804-2.7671-6.3696-0.92236-10.225 1.8423-3.8549 4.5254-5.3632 4.5254-5.3632 3.101 1.2562 9.6416 0.08166 11.484-1.2585 1.8423-1.3426 2.7647-3.1848-0.67015-3.3529-3.4349-0.16812-9.303-0.08406-13.326 2.935 0 0-2.0969-2.433-12.574-1.2586-10.478 1.1745-18.051 5.6491-20.369 15.088-1.1722 4.7772 3.2691 14.834 7.3765 17.264 0 0-0.12491-1.6332 0.29305-2.8077 0 0-6.9994-7.8371-4.9025-15.129 2.0946-7.2919 10.478-12.069 19.531-11.817z" fill="#bcac0b" stroke="#000" stroke-width=".65332"/>
  <path id="path588" d="m284.9 193.69c1.8111-0.14651 3.2619-0.46114 3.2427-0.70853-0.01922-0.24259-1.5036-0.32425-3.3148-0.17774s-3.2619 0.46355-3.2427 0.70854c0.01922 0.24498 1.5036 0.32424 3.3148 0.17773" fill="#fff"/>
  <path id="path589" d="m278.3 195.43s-2.0729 1.9479 0 0c2.0753-1.9479 6.4133-3.2689 8.8658-2.702 2.45 0.56443-0.44197 0.87906-1.2586 0.94151s-2.4524 0.37709-4.84 0" fill="none" stroke="#000" stroke-width=".65332"/>
  <path id="path590" d="m327.74 195.76s-5.7816-0.6677-9.1348 0.67251c0 0 3.8432 4.3665 3.0169 10.14-0.41795 2.935-1.004 4.4434-1.8423 5.8676-0.84071 1.4219-1.7607 4.3593-1.2587 6.7059h-1.0905s-1.0881-4.7772 0.75422-7.46c1.8448-2.6828 2.7671-6.3696 0.92237-10.225-1.8423-3.8573-4.5254-5.3656-4.5254-5.3656-3.101 1.2586-9.6392 0.08406-11.484-1.2562-1.8399-1.3426-2.7647-3.1848 0.67016-3.3529 3.4373-0.16813 9.3053-0.08406 13.329 2.9326 0 0 2.0946-2.4306 12.572-1.2561 10.48 1.1721 18.051 5.6491 20.369 15.086 1.1746 4.7772-3.2691 14.836-7.3765 17.267 0 0 0.12729-1.6332-0.29305-2.8077 0 0 6.9994-7.8371 4.9049-15.129-2.097-7.2919-10.478-12.069-19.533-11.819" fill="#fc0"/>
  <path id="path591" d="m327.74 195.76s-5.7816-0.6677-9.1348 0.67251c0 0 3.8432 4.3665 3.0169 10.14-0.41795 2.935-1.004 4.4434-1.8423 5.8676-0.84071 1.4219-1.7607 4.3593-1.2587 6.7059h-1.0905s-1.0881-4.7772 0.75422-7.46c1.8448-2.6828 2.7671-6.3696 0.92237-10.225-1.8423-3.8573-4.5254-5.3656-4.5254-5.3656-3.101 1.2586-9.6392 0.08406-11.484-1.2562-1.8399-1.3426-2.7647-3.1848 0.67016-3.3529 3.4373-0.16813 9.3053-0.08406 13.329 2.9326 0 0 2.0946-2.4306 12.572-1.2561 10.48 1.1721 18.051 5.6491 20.369 15.086 1.1746 4.7772-3.2691 14.836-7.3765 17.267 0 0 0.12729-1.6332-0.29305-2.8077 0 0 6.9994-7.8371 4.9049-15.129-2.097-7.2919-10.478-12.069-19.533-11.819z" fill="#bcac0b" stroke="#000" stroke-width=".65332"/>
  <path id="path592" d="m308.04 194.32c-1.8087-0.14651-3.2619-0.46355-3.2427-0.70853 0.02162-0.24498 1.5036-0.32425 3.3148-0.17773 1.8111 0.14651 3.2643 0.46355 3.2451 0.70854-0.02162 0.24497-1.506 0.32424-3.3172 0.17772" fill="#fff"/>
  <path id="path593" d="m314.64 196.05s2.0753 1.9479 0 0c-2.0729-1.9503-6.4109-3.2689-8.8634-2.7044-2.4524 0.56683 0.43957 0.88147 1.2562 0.94392 0.81908 0.06245 2.4524 0.37708 4.8424 0" fill="none" stroke="#000" stroke-width=".65332"/>
  <path id="path594" d="m291.11 189.35v22.296c-0.25221 2.1784 2.6806 5.2792 4.7776 6.2015 0 0 4.9457-1.6765 5.2796-6.2015v-23.555h-1.6766v20.367c-0.08168 2.0968-1.4244 5.8676-3.2691 6.4561 0 0-3.603-0.58845-3.7711-6.372v-19.861l-1.3403 0.6677" fill="#fc0"/>
  <path id="path595" d="m291.11 189.35v22.296c-0.25221 2.1784 2.6806 5.2792 4.7776 6.2015 0 0 4.9457-1.6765 5.2796-6.2015v-23.555h-1.6766v20.367c-0.08168 2.0968-1.4244 5.8676-3.2691 6.4561 0 0-3.603-0.58845-3.7711-6.372v-19.861l-1.3403 0.6677" fill="#bcac0b" stroke="#000" stroke-width=".65332"/>
  <path id="path596" d="m241.78 219.84c1.4724 0 2.6662-1.1937 2.6662-2.666 0-1.4699-1.1938-2.666-2.6662-2.666-1.4724 0-2.6662 1.1937-2.6662 2.666 0 1.4723 1.1938 2.666 2.6662 2.666" fill="#fff"/>
  <path id="path597" d="m241.78 219.84c1.4724 0 2.6662-1.1937 2.6662-2.666 0-1.4699-1.1938-2.666-2.6662-2.666-1.4724 0-2.6662 1.1937-2.6662 2.666 0 1.4723 1.1938 2.666 2.6662 2.666z" fill="none" stroke="#000" stroke-width="1.0064"/>
  <path id="path598" d="m240.11 213.71c1.4748 0 2.6686-1.1937 2.6686-2.666 0-1.4699-1.1938-2.666-2.6686-2.666-1.4724 0-2.6662 1.1937-2.6662 2.666s1.1938 2.666 2.6662 2.666" fill="#fff"/>
  <path id="path599" d="m240.11 213.71c1.4748 0 2.6686-1.1937 2.6686-2.666 0-1.4699-1.1938-2.666-2.6686-2.666-1.4724 0-2.6662 1.1937-2.6662 2.666s1.1938 2.666 2.6662 2.666z" fill="none" stroke="#000" stroke-width="1.0064"/>
  <path id="path600" d="m240.99 206.3c1.4724 0 2.6662-1.1937 2.6662-2.6684 0-1.4723-1.1938-2.666-2.6662-2.666-1.4724 0-2.6662 1.1937-2.6662 2.666 0 1.4747 1.1938 2.6684 2.6662 2.6684" fill="#fff"/>
  <path id="path601" d="m240.99 206.3c1.4724 0 2.6662-1.1937 2.6662-2.6684 0-1.4723-1.1938-2.666-2.6662-2.666-1.4724 0-2.6662 1.1937-2.6662 2.666 0 1.4747 1.1938 2.6684 2.6662 2.6684z" fill="none" stroke="#000" stroke-width="1.0064"/>
  <path id="path602" d="m245.14 200.14c1.4748 0 2.6686-1.1937 2.6686-2.666 0-1.4747-1.1938-2.6684-2.6686-2.6684-1.4724 0-2.6662 1.1937-2.6662 2.6684 0 1.4723 1.1938 2.666 2.6662 2.666" fill="#fff"/>
  <path id="path603" d="m245.14 200.14c1.4748 0 2.6686-1.1937 2.6686-2.666 0-1.4747-1.1938-2.6684-2.6686-2.6684-1.4724 0-2.6662 1.1937-2.6662 2.6684 0 1.4723 1.1938 2.666 2.6662 2.666z" fill="none" stroke="#000" stroke-width="1.0064"/>
  <path id="path604" d="m250.04 195.64c1.4724 0 2.6662-1.1937 2.6662-2.6684 0-1.4723-1.1938-2.666-2.6662-2.666s-2.6686 1.1937-2.6686 2.666c0 1.4747 1.1962 2.6684 2.6686 2.6684" fill="#fff"/>
  <path id="path605" d="m250.04 195.64c1.4724 0 2.6662-1.1937 2.6662-2.6684 0-1.4723-1.1938-2.666-2.6662-2.666s-2.6686 1.1937-2.6686 2.666c0 1.4747 1.1962 2.6684 2.6686 2.6684z" fill="none" stroke="#000" stroke-width="1.0064"/>
  <path id="path606" d="m256.36 193.13c1.4724 0 2.6662-1.1937 2.6662-2.6684 0-1.4723-1.1938-2.666-2.6662-2.666-1.4724 0-2.6662 1.1937-2.6662 2.666 0 1.4747 1.1938 2.6684 2.6662 2.6684" fill="#fff"/>
  <path id="path607" d="m256.36 193.13c1.4724 0 2.6662-1.1937 2.6662-2.6684 0-1.4723-1.1938-2.666-2.6662-2.666-1.4724 0-2.6662 1.1937-2.6662 2.666 0 1.4747 1.1938 2.6684 2.6662 2.6684z" fill="none" stroke="#000" stroke-width="1.0064"/>
  <path id="path608" d="m262.96 191.93c1.4724 0 2.6662-1.1961 2.6662-2.6684 0-1.4723-1.1938-2.666-2.6662-2.666-1.4724 0-2.6662 1.1937-2.6662 2.666 0 1.4723 1.1938 2.6684 2.6662 2.6684" fill="#fff"/>
  <path id="path609" d="m262.96 191.93c1.4724 0 2.6662-1.1961 2.6662-2.6684 0-1.4723-1.1938-2.666-2.6662-2.666-1.4724 0-2.6662 1.1937-2.6662 2.666 0 1.4723 1.1938 2.6684 2.6662 2.6684z" fill="none" stroke="#000" stroke-width="1.0064"/>
  <path id="path610" d="m269.25 191.56c1.4724 0 2.6662-1.1961 2.6662-2.6684 0-1.4723-1.1938-2.666-2.6662-2.666-1.4748 0-2.6686 1.1937-2.6686 2.666 0 1.4723 1.1938 2.6684 2.6686 2.6684" fill="#fff"/>
  <path id="path611" d="m269.25 191.56c1.4724 0 2.6662-1.1961 2.6662-2.6684 0-1.4723-1.1938-2.666-2.6662-2.666-1.4748 0-2.6686 1.1937-2.6686 2.666 0 1.4723 1.1938 2.6684 2.6686 2.6684z" fill="none" stroke="#000" stroke-width="1.0064"/>
  <path id="path612" d="m274.91 192.06c1.4724 0 2.6662-1.1937 2.6662-2.666 0-1.4747-1.1938-2.6684-2.6662-2.6684-1.4724 0-2.6662 1.1937-2.6662 2.6684 0 1.4723 1.1938 2.666 2.6662 2.666" fill="#fff"/>
  <path id="path613" d="m274.91 192.06c1.4724 0 2.6662-1.1937 2.6662-2.666 0-1.4747-1.1938-2.6684-2.6662-2.6684-1.4724 0-2.6662 1.1937-2.6662 2.6684 0 1.4723 1.1938 2.666 2.6662 2.666z" fill="none" stroke="#000" stroke-width="1.0064"/>
  <path id="path614" d="m291.04 190.05c1.4724 0 2.6686-1.1937 2.6686-2.666 0-1.4699-1.1962-2.666-2.6686-2.666s-2.6662 1.1937-2.6662 2.666c0 1.4723 1.1938 2.666 2.6662 2.666" fill="#fff"/>
  <path id="path615" d="m291.04 190.05c1.4724 0 2.6686-1.1937 2.6686-2.666 0-1.4699-1.1962-2.666-2.6686-2.666s-2.6662 1.1937-2.6662 2.666c0 1.4723 1.1938 2.666 2.6662 2.666z" fill="none" stroke="#000" stroke-width="1.0064"/>
  <path id="path616" d="m296.19 191.43c1.4724 0 2.6686-1.1937 2.6686-2.666s-1.1962-2.666-2.6686-2.666-2.6662 1.1937-2.6662 2.666 1.1938 2.666 2.6662 2.666" fill="#fff"/>
  <path id="path617" d="m296.19 191.43c1.4724 0 2.6686-1.1937 2.6686-2.666s-1.1962-2.666-2.6686-2.666-2.6662 1.1937-2.6662 2.666 1.1938 2.666 2.6662 2.666z" fill="none" stroke="#000" stroke-width="1.0064"/>
  <path id="path618" d="m296.19 211.17c1.4724 0 2.6686-1.1937 2.6686-2.666 0-1.4723-1.1962-2.666-2.6686-2.666s-2.6662 1.1937-2.6662 2.666c0 1.4723 1.1938 2.666 2.6662 2.666" fill="#fff"/>
  <path id="path619" d="m296.19 211.17c1.4724 0 2.6686-1.1937 2.6686-2.666 0-1.4723-1.1962-2.666-2.6686-2.666s-2.6662 1.1937-2.6662 2.666c0 1.4723 1.1938 2.666 2.6662 2.666z" fill="none" stroke="#000" stroke-width="1.0064"/>
  <path id="path620" d="m351.33 221.54c1.4724 0 2.6662-1.1937 2.6662-2.6684 0-1.4723-1.1938-2.666-2.6662-2.666-1.4748 0-2.6686 1.1937-2.6686 2.666 0 1.4747 1.1938 2.6684 2.6686 2.6684" fill="#fff"/>
  <path id="path621" d="m351.33 221.54c1.4724 0 2.6662-1.1937 2.6662-2.6684 0-1.4723-1.1938-2.666-2.6662-2.666-1.4748 0-2.6686 1.1937-2.6686 2.666 0 1.4747 1.1938 2.6684 2.6686 2.6684z" fill="none" stroke="#000" stroke-width="1.0064"/>
  <path id="path622" d="m352.71 214.91c1.4748 0 2.6686-1.1937 2.6686-2.666s-1.1938-2.666-2.6686-2.666c-1.4724 0-2.6662 1.1937-2.6662 2.666s1.1938 2.666 2.6662 2.666" fill="#fff"/>
  <path id="path623" d="m352.71 214.91c1.4748 0 2.6686-1.1937 2.6686-2.666s-1.1938-2.666-2.6686-2.666c-1.4724 0-2.6662 1.1937-2.6662 2.666s1.1938 2.666 2.6662 2.666z" fill="none" stroke="#000" stroke-width="1.0064"/>
  <path id="path624" d="m351.58 207.99c1.4748 0 2.6686-1.1937 2.6686-2.6684 0-1.4723-1.1938-2.666-2.6686-2.666-1.4724 0-2.6662 1.1937-2.6662 2.666 0 1.4747 1.1938 2.6684 2.6662 2.6684" fill="#fff"/>
  <path id="path625" d="m351.58 207.99c1.4748 0 2.6686-1.1937 2.6686-2.6684 0-1.4723-1.1938-2.666-2.6686-2.666-1.4724 0-2.6662 1.1937-2.6662 2.666 0 1.4747 1.1938 2.6684 2.6662 2.6684z" fill="none" stroke="#000" stroke-width="1.0064"/>
  <path id="path626" d="m348.69 201.46c1.4748 0 2.6686-1.1961 2.6686-2.6684 0-1.4699-1.1938-2.666-2.6686-2.666-1.4724 0-2.6662 1.1937-2.6662 2.666s1.1938 2.6684 2.6662 2.6684" fill="#fff"/>
  <path id="path627" d="m348.69 201.46c1.4748 0 2.6686-1.1961 2.6686-2.6684 0-1.4699-1.1938-2.666-2.6686-2.666-1.4724 0-2.6662 1.1937-2.6662 2.666s1.1938 2.6684 2.6662 2.6684z" fill="none" stroke="#000" stroke-width="1.0064"/>
  <path id="path628" d="m343.78 196.93c1.4724 0 2.6662-1.1937 2.6662-2.666s-1.1938-2.666-2.6662-2.666c-1.4724 0-2.6686 1.1937-2.6686 2.666s1.1962 2.666 2.6686 2.666" fill="#fff"/>
  <path id="path629" d="m343.78 196.93c1.4724 0 2.6662-1.1937 2.6662-2.666s-1.1938-2.666-2.6662-2.666c-1.4724 0-2.6686 1.1937-2.6686 2.666s1.1962 2.666 2.6686 2.666z" fill="none" stroke="#000" stroke-width="1.0064"/>
  <path id="path630" d="m337.87 194.04c1.4724 0 2.6662-1.1937 2.6662-2.666s-1.1938-2.666-2.6662-2.666c-1.4748 0-2.6686 1.1937-2.6686 2.666s1.1938 2.666 2.6686 2.666" fill="#fff"/>
  <path id="path631" d="m337.87 194.04c1.4724 0 2.6662-1.1937 2.6662-2.666s-1.1938-2.666-2.6662-2.666c-1.4748 0-2.6686 1.1937-2.6686 2.666s1.1938 2.666 2.6686 2.666z" fill="none" stroke="#000" stroke-width="1.0064"/>
  <path id="path632" d="m331.15 192.5c1.4748 0 2.6686-1.1937 2.6686-2.666 0-1.4699-1.1938-2.666-2.6686-2.666-1.4724 0-2.6662 1.1937-2.6662 2.666 0 1.4723 1.1938 2.666 2.6662 2.666" fill="#fff"/>
  <path id="path633" d="m331.15 192.5c1.4748 0 2.6686-1.1937 2.6686-2.666 0-1.4699-1.1938-2.666-2.6686-2.666-1.4724 0-2.6662 1.1937-2.6662 2.666 0 1.4723 1.1938 2.666 2.6662 2.666z" fill="none" stroke="#000" stroke-width="1.0064"/>
  <path id="path634" d="m324.98 192c1.4748 0 2.6686-1.1937 2.6686-2.6684 0-1.4699-1.1938-2.666-2.6686-2.666-1.4724 0-2.6662 1.1937-2.6662 2.666 0 1.4747 1.1938 2.6684 2.6662 2.6684" fill="#fff"/>
  <path id="path635" d="m324.98 192c1.4748 0 2.6686-1.1937 2.6686-2.6684 0-1.4699-1.1938-2.666-2.6686-2.666-1.4724 0-2.6662 1.1937-2.6662 2.666 0 1.4747 1.1938 2.6684 2.6662 2.6684z" fill="none" stroke="#000" stroke-width="1.0064"/>
  <path id="path636" d="m319.4 191.26c1.4748 0 2.6686-1.1937 2.6686-2.666 0-1.4723-1.1938-2.666-2.6686-2.666-1.4724 0-2.6662 1.1937-2.6662 2.666 0 1.4723 1.1938 2.666 2.6662 2.666" fill="#fff"/>
  <path id="path637" d="m319.4 191.26c1.4748 0 2.6686-1.1937 2.6686-2.666 0-1.4723-1.1938-2.666-2.6686-2.666-1.4724 0-2.6662 1.1937-2.6662 2.666 0 1.4723 1.1938 2.666 2.6662 2.666z" fill="none" stroke="#000" stroke-width="1.0064"/>
  <path id="path638" d="m323.01 213.09c1.4724 0 2.6662-1.1961 2.6662-2.6684 0-1.4699-1.1938-2.666-2.6662-2.666-1.4724 0-2.6662 1.1937-2.6662 2.666 0 1.4723 1.1938 2.6684 2.6662 2.6684" fill="#fff"/>
  <path id="path639" d="m323.01 213.09c1.4724 0 2.6662-1.1961 2.6662-2.6684 0-1.4699-1.1938-2.666-2.6662-2.666-1.4724 0-2.6662 1.1937-2.6662 2.666 0 1.4723 1.1938 2.6684 2.6662 2.6684z" fill="none" stroke="#000" stroke-width="1.0064"/>
  <path id="path640" d="m324.39 207.93c1.4724 0 2.6662-1.1937 2.6662-2.666s-1.1938-2.666-2.6662-2.666c-1.4748 0-2.6686 1.1937-2.6686 2.666s1.1938 2.666 2.6686 2.666" fill="#fff"/>
  <path id="path641" d="m324.39 207.93c1.4724 0 2.6662-1.1937 2.6662-2.666s-1.1938-2.666-2.6662-2.666c-1.4748 0-2.6686 1.1937-2.6686 2.666s1.1938 2.666 2.6686 2.666z" fill="none" stroke="#000" stroke-width="1.0064"/>
  <path id="path642" d="m301.98 190.86c1.4748 0 2.6686-1.1961 2.6686-2.6684s-1.1938-2.666-2.6686-2.666c-1.4724 0-2.6662 1.1937-2.6662 2.666s1.1938 2.6684 2.6662 2.6684" fill="#fff"/>
  <path id="path643" d="m301.98 190.86c1.4748 0 2.6686-1.1961 2.6686-2.6684s-1.1938-2.666-2.6686-2.666c-1.4724 0-2.6662 1.1937-2.6662 2.666s1.1938 2.6684 2.6662 2.6684z" fill="none" stroke="#000" stroke-width="1.0064"/>
  <path id="path644" d="m288.93 190.14c1.4748 0 2.6686-1.1937 2.6686-2.6684 0-1.4699-1.1938-2.6636-2.6686-2.6636-1.4724 0-2.6662 1.1913-2.6662 2.6636 0 1.4747 1.1938 2.6684 2.6662 2.6684" fill="#fff"/>
  <path id="path645" d="m288.93 190.14c1.4748 0 2.6686-1.1937 2.6686-2.6684 0-1.4699-1.1938-2.6636-2.6686-2.6636-1.4724 0-2.6662 1.1913-2.6662 2.6636 0 1.4747 1.1938 2.6684 2.6662 2.6684z" fill="none" stroke="#000" stroke-width="1.0064"/>
  <path id="path646" d="m285.78 190.01c1.4724 0 2.6662-1.1937 2.6662-2.666s-1.1938-2.666-2.6662-2.666c-1.4724 0-2.6662 1.1937-2.6662 2.666s1.1938 2.666 2.6662 2.666" fill="#fff"/>
  <path id="path647" d="m285.78 190.01c1.4724 0 2.6662-1.1937 2.6662-2.666s-1.1938-2.666-2.6662-2.666c-1.4724 0-2.6662 1.1937-2.6662 2.666s1.1938 2.666 2.6662 2.666z" fill="none" stroke="#000" stroke-width="1.0064"/>
  <path id="path648" d="m268.84 213.15c1.4724 0 2.6686-1.1937 2.6686-2.6684 0-1.4723-1.1962-2.666-2.6686-2.666-1.4724 0-2.6662 1.1937-2.6662 2.666 0 1.4747 1.1938 2.6684 2.6662 2.6684" fill="#fff"/>
  <path id="path649" d="m268.84 213.15c1.4724 0 2.6686-1.1937 2.6686-2.6684 0-1.4723-1.1962-2.666-2.6686-2.666-1.4724 0-2.6662 1.1937-2.6662 2.666 0 1.4747 1.1938 2.6684 2.6662 2.6684z" fill="none" stroke="#000" stroke-width="1.0064"/>
  <path id="path650" d="m268.06 206.77c1.4724 0 2.6686-1.1937 2.6686-2.666 0-1.4723-1.1962-2.666-2.6686-2.666-1.4724 0-2.6662 1.1937-2.6662 2.666 0 1.4723 1.1938 2.666 2.6662 2.666" fill="#fff"/>
  <path id="path651" d="m268.06 206.77c1.4724 0 2.6686-1.1937 2.6686-2.666 0-1.4723-1.1962-2.666-2.6686-2.666-1.4724 0-2.6662 1.1937-2.6662 2.666 0 1.4723 1.1938 2.666 2.6662 2.666z" fill="none" stroke="#000" stroke-width="1.0064"/>
  <path id="path652" d="m269.94 200.61c1.4748 0 2.6686-1.1937 2.6686-2.666s-1.1938-2.666-2.6686-2.666c-1.4724 0-2.6662 1.1937-2.6662 2.666s1.1938 2.666 2.6662 2.666" fill="#fff"/>
  <path id="path653" d="m269.94 200.61c1.4748 0 2.6686-1.1937 2.6686-2.666s-1.1938-2.666-2.6686-2.666c-1.4724 0-2.6662 1.1937-2.6662 2.666s1.1938 2.666 2.6662 2.666z" fill="none" stroke="#000" stroke-width="1.0064"/>
  <path id="path654" d="m281.66 190.61c1.4748 0 2.6686-1.1937 2.6686-2.666 0-1.4747-1.1938-2.6684-2.6686-2.6684-1.4724 0-2.6662 1.1937-2.6662 2.6684 0 1.4723 1.1938 2.666 2.6662 2.666" fill="#fff"/>
  <path id="path655" d="m281.66 190.61c1.4748 0 2.6686-1.1937 2.6686-2.666 0-1.4747-1.1938-2.6684-2.6686-2.6684-1.4724 0-2.6662 1.1937-2.6662 2.6684 0 1.4723 1.1938 2.666 2.6662 2.666z" fill="none" stroke="#000" stroke-width="1.0064"/>
  <path id="path656" d="m277.23 192.44c1.4748 0 2.6686-1.1937 2.6686-2.666 0-1.4747-1.1938-2.6684-2.6686-2.6684-1.4724 0-2.6662 1.1937-2.6662 2.6684 0 1.4723 1.1938 2.666 2.6662 2.666" fill="#fff"/>
  <path id="path657" d="m277.23 192.44c1.4748 0 2.6686-1.1937 2.6686-2.666 0-1.4747-1.1938-2.6684-2.6686-2.6684-1.4724 0-2.6662 1.1937-2.6662 2.6684 0 1.4723 1.1938 2.666 2.6662 2.666z" fill="none" stroke="#000" stroke-width="1.0064"/>
  <path id="path658" d="m272.99 196.02c1.4724 0 2.6662-1.1961 2.6662-2.6684 0-1.4723-1.1938-2.666-2.6662-2.666-1.4748 0-2.6686 1.1937-2.6686 2.666 0 1.4723 1.1938 2.6684 2.6686 2.6684" fill="#fff"/>
  <path id="path659" d="m272.99 196.02c1.4724 0 2.6662-1.1961 2.6662-2.6684 0-1.4723-1.1938-2.666-2.6662-2.666-1.4748 0-2.6686 1.1937-2.6686 2.666 0 1.4723 1.1938 2.6684 2.6686 2.6684z" fill="none" stroke="#000" stroke-width="1.0064"/>
  <path id="path660" d="m296.19 194.45c1.4724 0 2.6686-1.1961 2.6686-2.6684 0-1.4699-1.1962-2.666-2.6686-2.666s-2.6662 1.1937-2.6662 2.666c0 1.4723 1.1938 2.6684 2.6662 2.6684" fill="#fff"/>
  <path id="path661" d="m296.19 194.45c1.4724 0 2.6686-1.1961 2.6686-2.6684 0-1.4699-1.1962-2.666-2.6686-2.666s-2.6662 1.1937-2.6662 2.666c0 1.4723 1.1938 2.6684 2.6662 2.6684z" fill="none" stroke="#000" stroke-width="1.0064"/>
  <path id="path662" d="m296.19 199.48c1.4724 0 2.6686-1.1937 2.6686-2.666 0-1.4723-1.1962-2.666-2.6686-2.666s-2.6662 1.1937-2.6662 2.666c0 1.4723 1.1938 2.666 2.6662 2.666" fill="#fff"/>
  <path id="path663" d="m296.19 199.48c1.4724 0 2.6686-1.1937 2.6686-2.666 0-1.4723-1.1962-2.666-2.6686-2.666s-2.6662 1.1937-2.6662 2.666c0 1.4723 1.1938 2.666 2.6662 2.666z" fill="none" stroke="#000" stroke-width="1.0064"/>
  <path id="path664" d="m296.19 204.88c1.4724 0 2.6686-1.1937 2.6686-2.666 0-1.4699-1.1962-2.666-2.6686-2.666s-2.6662 1.1937-2.6662 2.666c0 1.4723 1.1938 2.666 2.6662 2.666" fill="#fff"/>
  <path id="path665" d="m296.19 204.88c1.4724 0 2.6686-1.1937 2.6686-2.666 0-1.4699-1.1962-2.666-2.6686-2.666s-2.6662 1.1937-2.6662 2.666c0 1.4723 1.1938 2.666 2.6662 2.666z" fill="none" stroke="#000" stroke-width="1.0064"/>
  <path id="path666" d="m305.43 190.17c1.4724 0 2.6662-1.1961 2.6662-2.6684 0-1.4699-1.1938-2.666-2.6662-2.666-1.4748 0-2.6686 1.1937-2.6686 2.666s1.1938 2.6684 2.6686 2.6684" fill="#fff"/>
  <path id="path667" d="m305.43 190.17c1.4724 0 2.6662-1.1961 2.6662-2.6684 0-1.4699-1.1938-2.666-2.6662-2.666-1.4748 0-2.6686 1.1937-2.6686 2.666s1.1938 2.6684 2.6686 2.6684z" fill="none" stroke="#000" stroke-width="1.0064"/>
  <path id="path668" d="m309.08 189.42c1.4724 0 2.6662-1.1961 2.6662-2.6684 0-1.4699-1.1938-2.666-2.6662-2.666-1.4748 0-2.6686 1.1937-2.6686 2.666s1.1938 2.6684 2.6686 2.6684" fill="#fff"/>
  <path id="path669" d="m309.08 189.42c1.4724 0 2.6662-1.1961 2.6662-2.6684 0-1.4699-1.1938-2.666-2.6662-2.666-1.4748 0-2.6686 1.1937-2.6686 2.666s1.1938 2.6684 2.6686 2.6684z" fill="none" stroke="#000" stroke-width="1.0064"/>
  <path id="path670" d="m313.2 190.08c1.4724 0 2.6662-1.1961 2.6662-2.6684s-1.1938-2.666-2.6662-2.666c-1.4724 0-2.6662 1.1937-2.6662 2.666s1.1938 2.6684 2.6662 2.6684" fill="#fff"/>
  <path id="path671" d="m313.2 190.08c1.4724 0 2.6662-1.1961 2.6662-2.6684s-1.1938-2.666-2.6662-2.666c-1.4724 0-2.6662 1.1937-2.6662 2.666s1.1938 2.6684 2.6662 2.6684z" fill="none" stroke="#000" stroke-width="1.0064"/>
  <path id="path672" d="m323.51 201.39c1.4724 0 2.6686-1.1937 2.6686-2.666 0-1.4723-1.1962-2.666-2.6686-2.666-1.4724 0-2.6662 1.1937-2.6662 2.666 0 1.4723 1.1938 2.666 2.6662 2.666" fill="#fff"/>
  <path id="path673" d="m323.51 201.39c1.4724 0 2.6686-1.1937 2.6686-2.666 0-1.4723-1.1962-2.666-2.6686-2.666-1.4724 0-2.6662 1.1937-2.6662 2.666 0 1.4723 1.1938 2.666 2.6662 2.666z" fill="none" stroke="#000" stroke-width="1.0064"/>
  <path id="path674" d="m317.35 192.47c1.4748 0 2.6686-1.1937 2.6686-2.666 0-1.4747-1.1938-2.6684-2.6686-2.6684-1.4724 0-2.6662 1.1937-2.6662 2.6684 0 1.4723 1.1938 2.666 2.6662 2.666" fill="#fff"/>
  <path id="path675" d="m317.35 192.47c1.4748 0 2.6686-1.1937 2.6686-2.666 0-1.4747-1.1938-2.6684-2.6686-2.6684-1.4724 0-2.6662 1.1937-2.6662 2.6684 0 1.4723 1.1938 2.666 2.6662 2.666z" fill="none" stroke="#000" stroke-width="1.0064"/>
  <path id="path676" d="m321.12 196.11c1.4724 0 2.6662-1.1937 2.6662-2.6684 0-1.4723-1.1938-2.666-2.6662-2.666-1.4748 0-2.6686 1.1937-2.6686 2.666 0 1.4747 1.1938 2.6684 2.6686 2.6684" fill="#fff"/>
  <path id="path677" d="m321.12 196.11c1.4724 0 2.6662-1.1937 2.6662-2.6684 0-1.4723-1.1938-2.666-2.6662-2.666-1.4748 0-2.6686 1.1937-2.6686 2.666 0 1.4747 1.1938 2.6684 2.6686 2.6684z" fill="none" stroke="#000" stroke-width="1.0064"/>
  <path id="path678" d="m296.02 236.05-7.0403 3.521 6.3365 3.9894 7.511-3.754-6.8073-3.7564" fill="#fff"/>
  <path id="path679" d="m296.02 236.05-7.0403 3.521 6.3365 3.9894 7.511-3.754-6.8073-3.7564" fill="none" stroke="#000" stroke-width=".502"/>
  <path id="path680" d="m280.63 236.79-10.562 1.6332s-0.1273 5.6587 0.37711 7.0421l10.811-1.5107s0.50442-5.2792-0.62692-7.1646" fill="#fff"/>
  <path id="path681" d="m280.63 236.79-10.562 1.6332s-0.1273 5.6587 0.37711 7.0421l10.811-1.5107s0.50442-5.2792-0.62692-7.1646z" fill="none" stroke="#000" stroke-width=".502"/>
  <path id="path682" d="m279.45 238.8s-6.3701 0.58604-7.9626 1.1745l0.08408 3.8549s4.1915-0.75418 8.0467-1.0904l-0.16814-3.939" fill="#058e6e" fill-opacity=".94118"/>
  <path id="path683" d="m279.45 238.8s-6.3701 0.58604-7.9626 1.1745l0.08408 3.8549s4.1915-0.75418 8.0467-1.0904l-0.16814-3.939" fill="none" stroke="#000" stroke-width=".502"/>
  <path id="path684" d="m310.74 237.09 10.559 1.6356s0.12731 5.6563-0.37711 7.0397l-10.811-1.5083s-0.50442-5.2816 0.62932-7.167" fill="#fff"/>
  <path id="path685" d="m310.74 237.09 10.559 1.6356s0.12731 5.6563-0.37711 7.0397l-10.811-1.5083s-0.50442-5.2816 0.62932-7.167z" fill="none" stroke="#000" stroke-width=".502"/>
  <path id="path686" d="m311.92 239.11s6.3701 0.58605 7.9626 1.1721l-0.08407 3.8549s-4.1915-0.75416-8.0467-1.088l0.16813-3.939" fill="#058e6e" fill-opacity=".94118"/>
  <path id="path687" d="m311.92 239.11s6.3701 0.58605 7.9626 1.1721l-0.08407 3.8549s-4.1915-0.75416-8.0467-1.088l0.16813-3.939" fill="none" stroke="#000" stroke-width=".502"/>
  <path id="path688" d="m254.22 241.82s37.048-13.758 84.159 1.1625m-82.65 6.7563s35.835-13.402 80.03 0.59566m-79.862-9.0188 7.2084 2.0944-5.0298 5.3657" fill="none" stroke="#000" stroke-width=".502"/>
  <path id="path689" d="m256.07 247.77 4.1074-3.437-4.6935-0.9223s0.63893 0.72535 0.50682 1.3907c-0.12971 0.6653 0.03843 2.3826 0.07926 2.9686" fill="#f00"/>
  <path id="path690" d="m256.07 247.77 4.1074-3.437-4.6935-0.9223s0.63893 0.72535 0.50682 1.3907c-0.12971 0.6653 0.03843 2.3826 0.07926 2.9686z" fill="none" stroke="#000" stroke-width=".502"/>
  <path id="path691" d="m337.59 242.7-7.6696 1.3834 5.1547 6.0334" fill="none" stroke="#000" stroke-width=".502"/>
  <path id="path692" d="m335.32 247.98-2.892-3.0191 4.1482-0.37709s-1.1313 0.75417-1.1313 1.3834c0 0.62927 0.12731 1.5083-0.1249 2.0127" fill="#f00"/>
  <path id="path693" d="m335.32 247.98-2.892-3.0191 4.1482-0.37709s-1.1313 0.75417-1.1313 1.3834c0 0.62927 0.12731 1.5083-0.1249 2.0127z" fill="none" stroke="#000" stroke-width=".502"/>
  <path id="path694" d="m265.29 241.85c0.65335 0 1.1842-0.42511 1.1842-0.95111 0-0.52119-0.53084-0.94632-1.1842-0.94632-0.65574 0-1.1866 0.42513-1.1866 0.94632 0 0.526 0.53084 0.95111 1.1866 0.95111zm20.607-2.349c0.65575 0 1.1866-0.42512 1.1866-0.94631 0-0.526-0.53084-0.94872-1.1866-0.94872-0.65334 0-1.1842 0.42272-1.1842 0.94872 0 0.52119 0.53084 0.94631 1.1842 0.94631zm0 3.3529c0.65575 0 1.1866-0.42513 1.1866-0.94872 0-0.5236-0.53084-0.94631-1.1866-0.94631-0.65334 0-1.1842 0.42271-1.1842 0.94631 0 0.52359 0.53084 0.94872 1.1842 0.94872zm20.285-3.1848c0.65574 0 1.1866-0.42272 1.1866-0.94872 0-0.52119-0.53084-0.94631-1.1866-0.94631-0.65334 0-1.1842 0.42271-1.1842 0.94631 0 0.526 0.53084 0.94872 1.1842 0.94872zm20.117 3.6892c0.65575 0 1.1866-0.42511 1.1866-0.95111 0-0.5212-0.53084-0.94632-1.1866-0.94632-0.65334 0-1.1842 0.42512-1.1842 0.94632 0 0.526 0.53084 0.95111 1.1842 0.95111zm-0.33387 2.6804c0.65574 0 1.1866-0.42512 1.1866-0.94632 0-0.52119-0.53084-0.95112-1.1866-0.95112-0.65575 0-1.1866 0.42753-1.1866 0.95112 0 0.5212 0.53085 0.94632 1.1866 0.94632zm-19.783-3.0167c0.65574 0 1.1866-0.42512 1.1866-0.94871 0-0.5212-0.53084-0.94632-1.1866-0.94632-0.65334 0-1.1842 0.42272-1.1842 0.94632 0 0.52359 0.53084 0.94871 1.1842 0.94871zm-39.897 3.0167c0.65334 0 1.1842-0.42512 1.1842-0.94632 0-0.52119-0.53085-0.95112-1.1842-0.95112-0.65575 0-1.1866 0.42753-1.1866 0.95112 0 0.5212 0.53084 0.94632 1.1866 0.94632z" fill="none" stroke="#000" stroke-width=".502"/>
  <path id="path695" d="m253.55 231.01s0.16814 7.2078 4.8616 6.2015c4.6935-1.0064 4.1915-6.874 4.5278-7.2078 0.33388-0.33626 0.8359-0.33626 0.8359-0.33626s0.67015 5.6995 5.0274 5.0294c4.3596-0.67011 4.1915-7.7098 3.6895-8.8843l1.0064-0.33625s1.6742 8.2142 6.704 7.0421c5.0298-1.1745 4.5278-6.3696 4.5278-6.3696h0.38672s1.1218 5.5314 5.1451 5.1951c4.021-0.33385 4.8616-1.6765 4.3572-7.2078l2.683-0.50198s-1.0064 8.0461 3.8528 7.878c4.864-0.16813 5.0298-4.023 5.3661-4.6931h0.73261s0.27383 5.6995 4.2972 5.6995c4.0233 0 4.8592-4.8613 4.8592-6.7059l3.9297 0.17534s-4.0954 7.5369 1.9408 8.5432c6.0338 1.004 6.202-4.8637 6.202-4.8637h1.1722s-0.16813 7.5441 3.1851 7.7122c3.3508 0.16812 5.3637-1.0064 5.6975-6.5377l1.8448 0.67011s-1.5997 8.942-7.8786 7.3736c-3.3532-0.83583-4.3596-4.6907-4.1915-5.6971 0 0-2.3444 4.1888-6.8721 2.8486-4.5254-1.3402-4.0233-4.525-4.0233-5.5314 0 0-2.7215 4.9982-6.5382 3.8525-3.3508-1.004-4.6935-2.1784-4.6935-4.525 0 0-1.6766 3.8549-5.0298 3.6892-3.3532-0.16813-5.0274-2.1808-5.1955-4.023 0 0-0.66536 3.6027-5.1979 3.8549-3.0169 0.16813-4.6935-1.3378-5.3637-3.3529 0 0-0.86712 3.6508-5.1955 4.1912-2.6806 0.33625-5.3637-1.1721-6.0362-3.6868 0 0-0.66775 4.8589-5.0274 5.5314-4.3596 0.6701-5.3661-2.3466-5.3661-2.3466s-0.8359 3.8573-4.3572 4.6932c-3.5213 0.83823-5.8681-0.6677-6.7064-4.1888-0.83829-3.5211-0.50201-5.0294-0.50201-5.0294l1.3403 1.8422" fill="#fc0"/>
  <path id="path696" d="m253.55 231.01s0.16814 7.2078 4.8616 6.2015c4.6935-1.0064 4.1915-6.874 4.5278-7.2078 0.33388-0.33626 0.8359-0.33626 0.8359-0.33626s0.67015 5.6995 5.0274 5.0294c4.3596-0.67011 4.1915-7.7098 3.6895-8.8843l1.0064-0.33625s1.6742 8.2142 6.704 7.0421c5.0298-1.1745 4.5278-6.3696 4.5278-6.3696h0.38672s1.1218 5.5314 5.1451 5.1951c4.021-0.33385 4.8616-1.6765 4.3572-7.2078l2.683-0.50198s-1.0064 8.0461 3.8528 7.878c4.864-0.16813 5.0298-4.023 5.3661-4.6931h0.73261s0.27383 5.6995 4.2972 5.6995c4.0233 0 4.8592-4.8613 4.8592-6.7059l3.9297 0.17534s-4.0954 7.5369 1.9408 8.5432c6.0338 1.004 6.202-4.8637 6.202-4.8637h1.1722s-0.16813 7.5441 3.1851 7.7122c3.3508 0.16812 5.3637-1.0064 5.6975-6.5377l1.8448 0.67011s-1.5997 8.942-7.8786 7.3736c-3.3532-0.83583-4.3596-4.6907-4.1915-5.6971 0 0-2.3444 4.1888-6.8721 2.8486-4.5254-1.3402-4.0233-4.525-4.0233-5.5314 0 0-2.7215 4.9982-6.5382 3.8525-3.3508-1.004-4.6935-2.1784-4.6935-4.525 0 0-1.6766 3.8549-5.0298 3.6892-3.3532-0.16813-5.0274-2.1808-5.1955-4.023 0 0-0.66536 3.6027-5.1979 3.8549-3.0169 0.16813-4.6935-1.3378-5.3637-3.3529 0 0-0.86712 3.6508-5.1955 4.1912-2.6806 0.33625-5.3637-1.1721-6.0362-3.6868 0 0-0.66775 4.8589-5.0274 5.5314-4.3596 0.6701-5.3661-2.3466-5.3661-2.3466s-0.8359 3.8573-4.3572 4.6932c-3.5213 0.83823-5.8681-0.6677-6.7064-4.1888-0.83829-3.5211-0.50201-5.0294-0.50201-5.0294l1.3403 1.8422 0.0024 0.0024z" fill="#bcac0b" stroke="#000" stroke-width=".65332"/>
  <path id="path697" d="m263.28 231.32c0.91756 0 1.6598-0.74216 1.6598-1.6597 0-0.91509-0.74222-1.6596-1.6598-1.6596-0.91757 0-1.6598 0.74456-1.6598 1.6596 0 0.9175 0.74221 1.6597 1.6598 1.6597" fill="#fc0"/>
  <path id="path698" d="m263.28 231.32c0.91756 0 1.6598-0.74216 1.6598-1.6597 0-0.91509-0.74222-1.6596-1.6598-1.6596-0.91757 0-1.6598 0.74456-1.6598 1.6596 0 0.9175 0.74221 1.6597 1.6598 1.6597z" fill="#bcac0b" stroke="#000" stroke-width=".65332"/>
  <path id="path699" d="m285.12 227.83c0.91756 0 1.6598-0.74456 1.6598-1.6596 0-0.91749-0.74222-1.6597-1.6598-1.6597-0.91757 0-1.6598 0.74217-1.6598 1.6597 0 0.91509 0.74221 1.6596 1.6598 1.6596" fill="#fc0"/>
  <path id="path700" d="m285.12 227.83c0.91756 0 1.6598-0.74456 1.6598-1.6596 0-0.91749-0.74222-1.6597-1.6598-1.6597-0.91757 0-1.6598 0.74217-1.6598 1.6597 0 0.91509 0.74221 1.6596 1.6598 1.6596z" fill="#bcac0b" stroke="#000" stroke-width=".65332"/>
  <path id="path701" d="m307.26 228.47c0.91757 0 1.6598-0.74456 1.6598-1.6596 0-0.91749-0.74221-1.6597-1.6598-1.6597-0.91756 0-1.6598 0.74217-1.6598 1.6597 0 0.91509 0.74222 1.6596 1.6598 1.6596" fill="#fc0"/>
  <path id="path702" d="m307.26 228.47c0.91757 0 1.6598-0.74456 1.6598-1.6596 0-0.91749-0.74221-1.6597-1.6598-1.6597-0.91756 0-1.6598 0.74217-1.6598 1.6597 0 0.91509 0.74222 1.6596 1.6598 1.6596z" fill="#bcac0b" stroke="#000" stroke-width=".65332"/>
  <path id="path703" d="m329.23 232.01c0.91756 0 1.6598-0.74456 1.6598-1.6596 0-0.91749-0.74221-1.6597-1.6598-1.6597-0.91517 0-1.6574 0.74217-1.6574 1.6597 0 0.91509 0.74222 1.6596 1.6574 1.6596" fill="#fc0"/>
  <path id="path704" d="m329.23 232.01c0.91756 0 1.6598-0.74456 1.6598-1.6596 0-0.91749-0.74221-1.6597-1.6598-1.6597-0.91517 0-1.6574 0.74217-1.6574 1.6597 0 0.91509 0.74222 1.6596 1.6574 1.6596z" fill="#bcac0b" stroke="#000" stroke-width=".65332"/>
  <path id="path705" d="m295.21 225.98h-1.5084c-0.37712 1.5083-3.5838 2.4523-3.5838 2.4523-0.37712-1.1937 0.43957-2.8918 0.43957-2.8918-3.7087-0.94391-3.7087-2.2649-3.7087-2.2649 0.56447-1.2562 3.9609-1.4435 3.9609-1.4435-0.88154-1.1312-0.69178-2.9542-0.69178-2.9542 2.2627 0.1273 4.1482 2.3874 4.1482 2.3874s-2.2627-1.1289-2.0105-5.1543c0 0 1.2562-0.06004 2.0105 0.75417 0 0 0-4.3353 1.8231-4.8372h0.18735c1.8231 0.50198 1.8231 4.8372 1.8231 4.8372 0.75423-0.81421 2.0105-0.75417 2.0105-0.75417 0.25221 4.023-2.0105 5.1543-2.0105 5.1543s1.8856-2.2601 4.1482-2.3874c0 0 0.18976 1.8206-0.69178 2.9542 0 0 3.3964 0.18734 3.9609 1.4435 0 0 0 1.321-3.7087 2.2649 0 0 0.81669 1.6981 0.43957 2.8918 0 0-3.2067-0.94392-3.5838-2.4523h-3.4565" fill="#fc0"/>
  <path id="path706" d="m295.21 225.98h-1.5084c-0.37712 1.5083-3.5838 2.4523-3.5838 2.4523-0.37712-1.1937 0.43957-2.8918 0.43957-2.8918-3.7087-0.94391-3.7087-2.2649-3.7087-2.2649 0.56447-1.2562 3.9609-1.4435 3.9609-1.4435-0.88154-1.1312-0.69178-2.9542-0.69178-2.9542 2.2627 0.1273 4.1482 2.3874 4.1482 2.3874s-2.2627-1.1289-2.0105-5.1543c0 0 1.2562-0.06004 2.0105 0.75417 0 0 0-4.3353 1.8231-4.8372h0.18735c1.8231 0.50198 1.8231 4.8372 1.8231 4.8372 0.75423-0.81421 2.0105-0.75417 2.0105-0.75417 0.25221 4.023-2.0105 5.1543-2.0105 5.1543s1.8856-2.2601 4.1482-2.3874c0 0 0.18976 1.8206-0.69178 2.9542 0 0 3.3964 0.18734 3.9609 1.4435 0 0 0 1.321-3.7087 2.2649 0 0 0.81669 1.6981 0.43957 2.8918 0 0-3.2067-0.94392-3.5838-2.4523h-3.4565 0.0024z" fill="#bcac0b" stroke="#000" stroke-width=".65332"/>
  <path id="path707" d="m296.07 226.83c1.679 0 3.0385-1.3594 3.0385-3.0383 0-1.6765-1.3595-3.0359-3.0385-3.0359-1.6766 0-3.0361 1.3594-3.0361 3.0359 0 1.6789 1.3595 3.0383 3.0361 3.0383" fill="#fff"/>
  <path id="path708" d="m296.07 226.83c1.679 0 3.0385-1.3594 3.0385-3.0383 0-1.6765-1.3595-3.0359-3.0385-3.0359-1.6766 0-3.0361 1.3594-3.0361 3.0359 0 1.6789 1.3595 3.0383 3.0361 3.0383z" fill="none" stroke="#000" stroke-width=".40352"/>
  <path id="path709" d="m296.07 225.46c0.91756 0 1.6622-0.74216 1.6622-1.6597 0-0.91509-0.74463-1.6572-1.6622-1.6572-0.91516 0-1.6574 0.74216-1.6574 1.6572 0 0.9175 0.74222 1.6597 1.6574 1.6597" fill="#fff"/>
  <path id="path710" d="m296.07 225.46c0.91756 0 1.6622-0.74216 1.6622-1.6597 0-0.91509-0.74463-1.6572-1.6622-1.6572-0.91516 0-1.6574 0.74216-1.6574 1.6572 0 0.9175 0.74222 1.6597 1.6574 1.6597z" fill="none" stroke="#000" stroke-width=".2522"/>
  <path id="path711" d="m319.11 227.94 1.4748 0.31944c0.04564 1.554 2.9857 3.1512 2.9857 3.1512 0.61731-1.088 0.17775-2.9182 0.17775-2.9182 3.824-0.13931 4.1002-1.4291 4.1002-1.4291-0.28583-1.3498-3.5646-2.2505-3.5646-2.2505 1.0977-0.9199 1.2995-2.7429 1.2995-2.7429-2.2387-0.35306-4.5614 1.4603-4.5614 1.4603s2.4524-0.62686 3.0553-4.6139c0 0-1.2178-0.32425-2.1234 0.31222 0 0 0.91276-4.2392-0.76143-5.1134l-0.18495-0.04084c-1.888 0.10809-2.8031 4.3473-2.8031 4.3473-0.56448-0.95833-1.8063-1.1625-1.8063-1.1625-1.0953 3.8789 0.87913 5.4641 0.87913 5.4641s-1.3667-2.6108-3.5526-3.2112c0 0-0.56928 1.7413 0.05284 3.0335 0 0-3.358-0.5308-4.1771 0.57884 0 0-0.27624 1.2898 3.149 2.9951 0 0-1.1578 1.4867-1.0401 2.7333 0 0 3.334-0.24499 4.021-1.6404l1.4724 0.31704 1.9072 0.41071" fill="#fc0"/>
  <path id="path712" d="m319.11 227.94 1.4748 0.31944c0.04564 1.554 2.9857 3.1512 2.9857 3.1512 0.61731-1.088 0.17775-2.9182 0.17775-2.9182 3.824-0.13931 4.1002-1.4291 4.1002-1.4291-0.28583-1.3498-3.5646-2.2505-3.5646-2.2505 1.0977-0.9199 1.2995-2.7429 1.2995-2.7429-2.2387-0.35306-4.5614 1.4603-4.5614 1.4603s2.4524-0.62686 3.0553-4.6139c0 0-1.2178-0.32425-2.1234 0.31222 0 0 0.91276-4.2392-0.76143-5.1134l-0.18495-0.04084c-1.888 0.10809-2.8031 4.3473-2.8031 4.3473-0.56448-0.95833-1.8063-1.1625-1.8063-1.1625-1.0953 3.8789 0.87913 5.4641 0.87913 5.4641s-1.3667-2.6108-3.5526-3.2112c0 0-0.56928 1.7413 0.05284 3.0335 0 0-3.358-0.5308-4.1771 0.57884 0 0-0.27624 1.2898 3.149 2.9951 0 0-1.1578 1.4867-1.0401 2.7333 0 0 3.334-0.24499 4.021-1.6404l1.4724 0.31704 1.9072 0.41071" fill="#bcac0b" stroke="#000" stroke-width=".65332"/>
  <path id="path713" d="m318.08 228.6c-1.6382-0.35306-2.6806-1.9695-2.3275-3.6099 0.35309-1.638 1.9696-2.6828 3.6102-2.3274 1.6406 0.35307 2.683 1.9695 2.3299 3.6099-0.35549 1.638-1.972 2.6828-3.6126 2.3274" fill="#fff"/>
  <path id="path714" d="m318.08 228.6c-1.6382-0.35306-2.6806-1.9695-2.3275-3.6099 0.35309-1.638 1.9696-2.6828 3.6102-2.3274 1.6406 0.35307 2.683 1.9695 2.3299 3.6099-0.35549 1.638-1.972 2.6828-3.6126 2.3274z" fill="none" stroke="#000" stroke-width=".40352"/>
  <path id="path715" d="m318.38 227.25c-0.89835-0.19214-1.4676-1.076-1.2731-1.9719 0.19216-0.89347 1.0761-1.4651 1.972-1.2706 0.89595 0.19215 1.4652 1.0784 1.2731 1.9719-0.19456 0.89588-1.0785 1.4651-1.972 1.2706" fill="#fff"/>
  <path id="path716" d="m318.38 227.25c-0.89835-0.19214-1.4676-1.076-1.2731-1.9719 0.19216-0.89347 1.0761-1.4651 1.972-1.2706 0.89595 0.19215 1.4652 1.0784 1.2731 1.9719-0.19456 0.89588-1.0785 1.4651-1.972 1.2706z" fill="none" stroke="#000" stroke-width=".2522"/>
  <path id="path717" d="m272.27 227.65-1.4964 0.19695c-0.17534 1.5468-3.2307 2.9038-3.2307 2.9038-0.53084-1.1337 0.05525-2.923 0.05525-2.923-3.8-0.44674-3.9753-1.7557-3.9753-1.7557 0.39633-1.3186 3.7351-1.9551 3.7351-1.9551-1.0208-1.004-1.0737-2.8365-1.0737-2.8365 2.2603-0.17054 4.4293 1.8206 4.4293 1.8206s-2.3924-0.82382-2.6734-4.8445c0 0 1.2394-0.22817 2.0945 0.48277 0 0-0.57167-4.2992 1.165-5.039l0.18736-0.02162c1.8736 0.25459 2.4452 4.5562 2.4452 4.5562 0.64133-0.90788 1.8952-1.0136 1.8952-1.0136 0.78065 3.9558-1.3139 5.3729-1.3139 5.3729s1.5709-2.4883 3.7976-2.911c0 0 0.42755 1.7798-0.29545 3.0167 0 0 3.3892-0.2618 4.117 0.91029 0 0 0.17295 1.309-3.3796 2.7333 0 0 1.0352 1.5732 0.81907 2.8077 0 0-3.3027-0.51158-3.8768-1.9575l-3.4252 0.45635" fill="#fc0"/>
  <path id="path718" d="m272.27 227.65-1.4964 0.19695c-0.17534 1.5468-3.2307 2.9038-3.2307 2.9038-0.53084-1.1337 0.05525-2.923 0.05525-2.923-3.8-0.44674-3.9753-1.7557-3.9753-1.7557 0.39633-1.3186 3.7351-1.9551 3.7351-1.9551-1.0208-1.004-1.0737-2.8365-1.0737-2.8365 2.2603-0.17054 4.4293 1.8206 4.4293 1.8206s-2.3924-0.82382-2.6734-4.8445c0 0 1.2394-0.22817 2.0945 0.48277 0 0-0.57167-4.2992 1.165-5.039l0.18736-0.02162c1.8736 0.25459 2.4452 4.5562 2.4452 4.5562 0.64133-0.90788 1.8952-1.0136 1.8952-1.0136 0.78065 3.9558-1.3139 5.3729-1.3139 5.3729s1.5709-2.4883 3.7976-2.911c0 0 0.42755 1.7798-0.29545 3.0167 0 0 3.3892-0.2618 4.117 0.91029 0 0 0.17295 1.309-3.3796 2.7333 0 0 1.0352 1.5732 0.81907 2.8077 0 0-3.3027-0.51158-3.8768-1.9575l-3.4252 0.45635" fill="#bcac0b" stroke="#000" stroke-width=".65332"/>
  <path id="path719" d="m273.23 228.39c1.6646-0.22097 2.8344-1.7485 2.611-3.413-0.22098-1.6621-1.7486-2.8317-3.4108-2.6084-1.6646 0.22096-2.832 1.7485-2.611 3.4106 0.22098 1.662 1.7486 2.8317 3.4108 2.6108" fill="#fff"/>
  <path id="path720" d="m273.23 228.39c1.6646-0.22097 2.8344-1.7485 2.611-3.413-0.22098-1.6621-1.7486-2.8317-3.4108-2.6084-1.6646 0.22096-2.832 1.7485-2.611 3.4106 0.22098 1.662 1.7486 2.8317 3.4108 2.6108z" fill="none" stroke="#000" stroke-width=".40352"/>
  <path id="path721" d="m273.05 227.02c0.90796-0.12009 1.5469-0.95352 1.4244-1.8638-0.12011-0.90789-0.9536-1.5444-1.8616-1.4267-0.91035 0.12249-1.5493 0.95593-1.4268 1.8638 0.1201 0.91029 0.95599 1.5468 1.864 1.4267" fill="#fff"/>
  <path id="path722" d="m273.05 227.02c0.90796-0.12009 1.5469-0.95352 1.4244-1.8638-0.12011-0.90789-0.9536-1.5444-1.8616-1.4267-0.91035 0.12249-1.5493 0.95593-1.4268 1.8638 0.1201 0.91029 0.95599 1.5468 1.864 1.4267z" fill="none" stroke="#000" stroke-width=".2522"/>
  <path id="path723" d="m340.16 234.1s-0.76142-1.9983-2.4428-1.2802c-1.6814 0.71815-1.5084 0.97994-3.0121 0.88868 0 0-0.58609-1.7966 0.15372-2.5724 0 0-2.402-0.89828-2.9064-3.0071 0 0 1.2875-1.4939 4.338-0.9367 0 0-0.09609-1.5156 0.32186-2.1833 0 0 3.2763 1.0136 3.2931 2.8414 0 0-0.98242-3.5859 0.74703-6.1895 0 0 1.5349 0.6581 1.4364 2.2913 0 0 0.70619-3.3601 5.2484-2.4571 0 0-2.462 2.1832-2.5845 3.1824-0.1225 0.99916-2.1762 2.702-2.2122 3.2689-0.03123 0.56443-0.28104 1.5564-0.88394 2.1496-0.6029 0.59324-0.66295 1.5996-0.61491 1.9142 0.04083 0.31943-0.10329 1.6957-0.88154 2.0896" fill="#fc0"/>
  <path id="path724" d="m340.16 234.1s-0.76142-1.9983-2.4428-1.2802c-1.6814 0.71815-1.5084 0.97994-3.0121 0.88868 0 0-0.58609-1.7966 0.15372-2.5724 0 0-2.402-0.89828-2.9064-3.0071 0 0 1.2875-1.4939 4.338-0.9367 0 0-0.09609-1.5156 0.32186-2.1833 0 0 3.2763 1.0136 3.2931 2.8414 0 0-0.98242-3.5859 0.74703-6.1895 0 0 1.5349 0.6581 1.4364 2.2913 0 0 0.70619-3.3601 5.2484-2.4571 0 0-2.462 2.1832-2.5845 3.1824-0.1225 0.99916-2.1762 2.702-2.2122 3.2689-0.03123 0.56443-0.28104 1.5564-0.88394 2.1496-0.6029 0.59324-0.66295 1.5996-0.61491 1.9142 0.04083 0.31943-0.10329 1.6957-0.88154 2.0896z" fill="#bcac0b" stroke="#000" stroke-width=".65332"/>
  <path id="path725" d="m337.7 230.12c0.32186-1.6452 1.9168-2.7212 3.5622-2.3994 0.46839 0.08886 0.88634 0.28581 1.2418 0.55482-0.09127 0.56923-0.34588 1.3354-0.8455 1.8278-0.6029 0.59324-0.66295 1.5996-0.61731 1.9142 0.03362 0.24978-0.05525 1.1481-0.46839 1.7173-0.15613-0.0072-0.31466-0.02161-0.4708-0.05284-1.643-0.31944-2.719-1.9142-2.402-3.5619" fill="#fff"/>
  <path id="path726" d="m337.7 230.12c0.32186-1.6452 1.9168-2.7212 3.5622-2.3994 0.46839 0.08886 0.88634 0.28581 1.2418 0.55482-0.09127 0.56923-0.34588 1.3354-0.8455 1.8278-0.6029 0.59324-0.66295 1.5996-0.61731 1.9142 0.03362 0.24978-0.05525 1.1481-0.46839 1.7173-0.15613-0.0072-0.31466-0.02161-0.4708-0.05284-1.643-0.31944-2.719-1.9142-2.402-3.5619z" fill="none" stroke="#000" stroke-width=".40352"/>
  <path id="path727" d="m339.06 230.38c0.17295-0.89827 1.0449-1.4867 1.9456-1.3114 0.40834 0.07926 0.74703 0.30743 0.98722 0.61487-0.09607 0.1489-0.20417 0.29301-0.32907 0.41551-0.6029 0.59324-0.66295 1.5996-0.61731 1.9142 0.00721 0.06485 0.00721 0.17532-0.0048 0.30502-0.21379 0.04564-0.44197 0.05284-0.67017 0.00721-0.90074-0.17533-1.4868-1.0448-1.3115-1.9455" fill="#fff"/>
  <path id="path728" d="m339.06 230.38c0.17295-0.89827 1.0449-1.4867 1.9456-1.3114 0.40834 0.07926 0.74703 0.30743 0.98722 0.61487-0.09607 0.1489-0.20417 0.29301-0.32907 0.41551-0.6029 0.59324-0.66295 1.5996-0.61731 1.9142 0.00721 0.06485 0.00721 0.17532-0.0048 0.30502-0.21379 0.04564-0.44197 0.05284-0.67017 0.00721-0.90074-0.17533-1.4868-1.0448-1.3115-1.9455z" fill="none" stroke="#000" stroke-width=".2522"/>
  <path id="path729" d="m252.15 233.27s0.87912-1.9479 2.5125-1.1313c1.6358 0.81662 1.446 1.0688 2.9569 1.0688 0 0 0.68937-1.7605 0-2.5772 0 0 2.45-0.75416 3.0794-2.8293 0 0-1.1938-1.5708-4.2756-1.1937 0 0 0.18975-1.5108-0.18736-2.2001 0 0-3.3316 0.81661-3.4589 2.6396 0 0 1.1962-3.5211-0.37711-6.2231 0 0-1.5709 0.56443-1.5709 2.2001 0 0-0.50201-3.3962-5.0922-2.7669 0 0 2.3251 2.3274 2.39 3.3313 0.06246 1.0064 2.0105 2.8293 2.0105 3.3962 0 0.56443 0.18976 1.5708 0.75422 2.2001 0.56688 0.62928 0.56688 1.6332 0.50202 1.9479-0.06245 0.31223 0 1.6957 0.75664 2.1376" fill="#fc0"/>
  <path id="path730" d="m252.15 233.27s0.87912-1.9479 2.5125-1.1313c1.6358 0.81662 1.446 1.0688 2.9569 1.0688 0 0 0.68937-1.7605 0-2.5772 0 0 2.45-0.75416 3.0794-2.8293 0 0-1.1938-1.5708-4.2756-1.1937 0 0 0.18975-1.5108-0.18736-2.2001 0 0-3.3316 0.81661-3.4589 2.6396 0 0 1.1962-3.5211-0.37711-6.2231 0 0-1.5709 0.56443-1.5709 2.2001 0 0-0.50201-3.3962-5.0922-2.7669 0 0 2.3251 2.3274 2.39 3.3313 0.06246 1.0064 2.0105 2.8293 2.0105 3.3962 0 0.56443 0.18976 1.5708 0.75422 2.2001 0.56688 0.62928 0.56688 1.6332 0.50202 1.9479-0.06245 0.31223 0 1.6957 0.75664 2.1376z" fill="#bcac0b" stroke="#000" stroke-width=".65332"/>
  <path id="path731" d="m254.84 229.44c-0.22098-1.6645-1.7462-2.8317-3.4108-2.6108-0.4708 0.06244-0.90076 0.23298-1.2731 0.48035 0.05765 0.57404 0.26422 1.3522 0.73501 1.8758 0.56688 0.62928 0.56688 1.6332 0.50202 1.9479-0.04804 0.24498-0.01441 1.1481 0.36751 1.7389 0.15373 0.0024 0.31226 0 0.47079-0.02162 1.6622-0.22096 2.832-1.7485 2.6086-3.4106" fill="#fff"/>
  <path id="path732" d="m254.84 229.44c-0.22098-1.6645-1.7462-2.8317-3.4108-2.6108-0.4708 0.06244-0.90076 0.23298-1.2731 0.48035 0.05765 0.57404 0.26422 1.3522 0.73501 1.8758 0.56688 0.62928 0.56688 1.6332 0.50202 1.9479-0.04804 0.24498-0.01441 1.1481 0.36751 1.7389 0.15373 0.0024 0.31226 0 0.47079-0.02162 1.6622-0.22096 2.832-1.7485 2.6086-3.4106z" fill="none" stroke="#000" stroke-width=".40352"/>
  <path id="path733" d="m253.48 229.62c-0.12011-0.90788-0.956-1.5468-1.864-1.4267-0.41554 0.05764-0.76623 0.2642-1.0232 0.55481 0.08887 0.15612 0.18495 0.30503 0.30264 0.43713 0.56688 0.62928 0.56688 1.6332 0.50202 1.9479-0.01201 0.06244-0.01681 0.17053-0.01441 0.30263 0.21138 0.06004 0.43957 0.07926 0.67016 0.05043 0.90795-0.12249 1.5469-0.95592 1.4268-1.8662" fill="#fff"/>
  <path id="path734" d="m253.48 229.62c-0.12011-0.90788-0.956-1.5468-1.864-1.4267-0.41554 0.05764-0.76623 0.2642-1.0232 0.55481 0.08887 0.15612 0.18495 0.30503 0.30264 0.43713 0.56688 0.62928 0.56688 1.6332 0.50202 1.9479-0.01201 0.06244-0.01681 0.17053-0.01441 0.30263 0.21138 0.06004 0.43957 0.07926 0.67016 0.05043 0.90795-0.12249 1.5469-0.95592 1.4268-1.8662z" fill="none" stroke="#000" stroke-width=".2522"/>
  <path id="path735" d="m257.24 251.62s33.748-13.22 76.384 0.28342" fill="none" stroke="#000" stroke-width="1.5084"/>
  <path id="path736" d="m338.38 241.1c-47.11-14.92-84.661-0.83823-84.661-0.83823" fill="none" stroke="#000" stroke-width=".502"/>
  <path id="path737" d="m295.97 237.8-3.7735 1.8854 3.3964 2.1376 4.0234-2.0127-3.6462-2.0103" fill="#f00"/>
  <path id="path738" d="m295.97 237.8-3.7735 1.8854 3.3964 2.1376 4.0234-2.0127-3.6462-2.0103" fill="none" stroke="#000" stroke-width=".502"/>
 </g>
</svg>
