<?xml version="1.0" encoding="UTF-8"?>
<svg width="900" height="600" viewBox="0 0 300 200" xmlns="http://www.w3.org/2000/svg" xmlns:xlink="http://www.w3.org/1999/xlink">
 <defs>
  <g id="smallcross">
   <clipPath id="vclip">
    <path d="m-109 104a104 104 0 0 0 0-208h218a104 104 0 0 0 0 208z"/>
   </clipPath>
   <path id="varm" d="m-55 74a55 55 0 0 1 110 0v-148a55 55 0 0 1-110 0z" clip-path="url(#vclip)"/>
   <use transform="rotate(90)" xlink:href="#varm"/>
  </g>
 </defs>
 <rect width="300" height="200" fill="#fff"/>
 <path d="m130 0v80h-130v40h130v80h40v-80h130v-40h-130v-80h-40z" fill="#f00"/>
 <use transform="translate(64.45,39.45)" fill="#f00" xlink:href="#smallcross"/>
 <use transform="translate(235.55,160.55)" fill="#f00" xlink:href="#smallcross"/>
 <use transform="translate(235.55,39.45)" fill="#f00" xlink:href="#smallcross"/>
 <use transform="translate(64.45,160.55)" fill="#f00" xlink:href="#smallcross"/>
</svg>
