<?xml version="1.0" encoding="UTF-8"?>
<svg xmlns="http://www.w3.org/2000/svg" width="900" height="600">
	<rect width="900" height="600" fill="#fff"/>
	<path d="M 533.039,82.561 C 533.68,82.561 534.32,82.561 534.961,82.561 C 536.27,82.931 537.432,83.449 538.801,83.761 C 543.155,95.087 553.701,101.499 557.52,112.561 C 554.756,113.832 552.612,111.34 549.6,111.84 C 547.024,112.269 546.924,114.844 545.28,116.88 C 544.442,117.92 542.805,118.679 541.68,119.761 C 534.713,126.454 528.012,136.79 523.68,145.92 C 524.477,147.823 525.621,148.959 526.321,150.96 C 528.692,157.746 525.305,167.399 527.04,175.2 C 511.958,180.997 505.87,195.789 490.561,201.36 C 490.364,216.123 468.864,209.584 463.2,218.88 C 456.11,220.788 451.333,224.396 450.721,232.801 C 450.467,236.289 451.717,240.943 450.721,243.601 C 449.987,245.557 446.271,245.257 446.16,247.441 C 446.019,250.21 452.824,253.345 455.039,254.641 C 461,258.125 465.135,260.754 468.24,266.401 C 482.396,272.906 483.408,289.769 491.519,302.401 C 495.238,308.19 499.386,314.278 503.279,320.401 C 507.183,326.54 511.633,332.663 514.32,338.881 C 518.433,348.399 518.181,361.363 517.199,373.92 C 516.717,380.108 516.75,385.742 515.519,391.199 C 516.738,392.14 519.603,391.435 520.32,392.881 C 521.156,401.649 518.554,409.246 516,415.92 C 513.596,422.205 510.203,429.602 504.721,432.481 C 496.16,436.973 484.272,433.069 473.039,433.92 C 464.723,434.551 460.543,438.783 454.32,442.561 C 448.223,446.26 441.9,448.159 436.32,451.92 C 433.51,453.815 429.699,458.57 426.72,459.6 C 422.185,461.166 416.906,459.065 414.959,457.44 C 408.779,452.284 406.148,438.225 406.799,426.481 C 407.142,420.301 409.092,416.03 411.36,412.321 C 413.946,408.091 417.864,405.184 418.08,400.321 C 418.346,394.344 413.101,390.717 412.56,383.28 C 412.203,378.372 414.024,370.745 412.799,366.241 C 411.106,360.009 398.954,363.747 401.279,354.481 C 402.354,350.192 411.8,349.653 416.879,351.36 C 420.075,352.436 422.224,355.887 425.999,354.721 C 426.101,350.063 425.784,346.254 423.839,342.961 C 422.796,341.193 420.793,340.428 419.759,338.641 C 418.163,335.879 416.517,329.993 416.159,325.92 C 415.762,321.397 417.693,314.818 415.68,312.24 C 412.127,307.691 395.412,312.256 390.24,309.599 C 389.603,309.273 389.261,308.503 388.56,307.679 C 387.971,306.988 387.238,306.431 386.879,305.999 C 385.761,304.651 384.722,302.505 382.799,303.358 C 380.997,304.159 382.402,308.114 380.4,309.118 C 376.388,311.132 369.889,305.534 366.96,303.598 C 362.013,300.331 353.503,296.338 357.36,287.759 C 359.744,282.457 364.884,280.371 368.64,275.519 C 373.131,274.491 379.334,275.174 380.4,270.719 C 377.333,268.514 370.373,271.208 367.44,268.078 C 366.171,255.505 380.634,248.861 378.72,236.398 C 377.662,229.515 369.173,229.845 361.44,228.958 C 354.237,228.132 348.286,225.905 344.879,220.799 C 344.328,219.973 344.037,219.231 343.44,218.399 C 342.936,217.699 342.948,216.712 342.48,215.279 C 342.48,214.399 342.48,213.519 342.48,212.639 C 344.45,202.446 356.202,197.014 363.839,192.239 C 366.271,190.718 368.361,188.935 370.56,187.679 C 378.348,183.228 386.807,180.277 394.32,175.679 C 397.784,173.558 401.342,170.91 404.64,167.998 C 406.15,166.665 407.373,164.887 408.959,163.438 C 410.636,161.907 412.484,160.804 413.759,159.118 C 420.176,150.63 418.627,139.087 431.999,135.838 C 437.257,142.796 443.099,148.773 452.159,151.198 C 455.407,152.068 458.452,151.705 462.72,152.158 C 464.529,152.35 466.611,153.419 468.96,153.358 C 473.159,153.249 477.276,150.899 477.839,147.598 C 479.107,140.163 469.687,137.37 470.64,130.318 C 471.238,125.888 477.495,124.798 483.359,124.798 C 487.4,124.798 491.65,126.138 494.88,125.997 C 501.183,125.724 504.558,120.478 507.118,116.638 C 508.831,114.071 511.386,108.338 515.278,107.758 C 516.837,107.526 519.303,108.872 521.999,107.997 C 531.164,105.027 523.572,85.596 533.039,82.561 z" fill="#0084c9"/>
	<path d="M 400.08,517.439 C 393.761,508.98 406.834,503.154 414.48,502.56 C 419.076,502.203 425.249,503.499 425.759,506.64 C 426.046,508.398 424.332,510.888 423.36,511.919 C 418.895,516.656 407.891,516.15 400.08,517.439 z" fill="#0084c9"/>
	<path d="M 589.41864,315.84193 C 588.15826,313.01334 590.76581,311.06519 592.29087,310.86657 C 593.20759,310.74719 594.43886,311.18056 594.54058,312.23086 C 594.59782,312.81873 594.25595,313.65135 594.06207,313.99611 C 593.17149,315.58009 590.97663,315.4109 589.41864,315.84193 z" fill="#0084c9"/>
</svg>