<?xml version="1.0" encoding="UTF-8"?>
<svg width="750" height="450" viewBox="0 0 250 150" xmlns="http://www.w3.org/2000/svg" xmlns:xlink="http://www.w3.org/1999/xlink">
 <clipPath id="c">
  <circle r="25"/>
 </clipPath>
 <rect width="250" height="150" fill="#e8112d"/>
 <g transform="translate(125,75)">
  <g id="r20" transform="scale(.25)">
   <g id="r4">
    <path id="r1" d="m-8.4 108c8.4 22-9.6 56 8.4 72-6-24 14-50 8.4-72s-25.2-22-16.8 0z" fill="#ffef00"/>
    <use transform="rotate(90)" xlink:href="#r1"/>
    <use transform="rotate(180)" xlink:href="#r1"/>
    <use transform="rotate(270)" xlink:href="#r1"/>
   </g>
   <use transform="rotate(18)" xlink:href="#r4"/>
   <use transform="rotate(36)" xlink:href="#r4"/>
   <use transform="rotate(54)" xlink:href="#r4"/>
   <use transform="rotate(72)" xlink:href="#r4"/>
  </g>
  <use transform="rotate(9)" xlink:href="#r20"/>
  <circle r="27" fill="#e8112d"/>
  <circle cy="-1.5" r="22.5" fill="#ffef00"/>
  <g id="x" clip-path="url(#c)" fill="#e8112d">
   <path d="m-23.055 18a37.755 37.755 0 1 1 75.51 0h0.30521a36.26 36.26 0 1 0-72.521 0z"/>
   <path d="m-17.601 18a35.301 35.301 0 1 1 70.602 0h0.42338a33.925 33.925 0 1 0-67.849 0z"/>
   <path d="m20.7-15.052a33.052 33.052 0 1 0 0 66.105l1.8-1.2326a31.82 31.82 0 1 1 0-63.64z"/>
  </g>
  <use transform="scale(-1,1)" xlink:href="#x"/>
 </g>
</svg>
