<svg height="600" width="900" xmlns="http://www.w3.org/2000/svg" xmlns:xlink="http://www.w3.org/1999/xlink"><path d="m0 0h900v600h-900z" fill="#cf142b"/><path d="m0 0h450v600h-450z" fill="#fff"/><path d="m22.222 82.828v45.457h45.455c0 7.5741 7.5762 15.151 15.152 15.151v45.454h45.452v-45.454c7.5762 0 15.152-7.5766 15.152-15.151h45.455v-45.457h-45.455c0-7.5741-7.5762-15.151-15.152-15.151v-45.454h-45.452v45.454c-7.5762 0-15.152 7.5766-15.152 15.151z" fill="#e60d2e"/><path d="m25.254 85.857v39.397h45.452c0 7.5738 7.5762 15.15 15.152 15.15v45.454h39.392v-45.454c7.5762 0 15.152-7.5766 15.152-15.15h45.452v-39.397h-45.452c0-7.5741-7.5762-15.151-15.152-15.151v-45.454h-39.392v45.454c-7.5762 0-15.152 7.5766-15.152 15.151h-45.452z" fill="#96877d"/><path d="m26.77 87.373v36.364h45.452c0 7.5741 7.5762 15.153 15.152 15.153v45.454h36.362v-45.454c7.5762 0 15.152-7.5791 15.152-15.153h45.452v-36.364h-45.452c0-7.5738-7.5762-15.15-15.152-15.15v-45.454h-36.362v45.454c-7.5762 0-15.152 7.5766-15.152 15.15h-45.452z" fill="#ccc"/><g id="a" fill="#d0d0d0"><path d="m84.536 71.681c2.6626 2.6628 1.9431 7.6994-1.6071 11.25-3.5502 3.5503-8.5867 4.2698-11.249 1.6072-2.6626-2.6626-1.9431-7.6994 1.6071-11.25 3.5502-3.5501 8.5867-4.2698 11.249-1.6072z" fill="#96877d"/><path d="m71.143 79.715 1.0712-1.0722 4.2856 2.1422-2.143-4.2853 1.0714-1.0722 4.2855 8.5711-8.5708-4.2856z"/><path d="m77.572 73.287 1.0714-1.0714 6.4282 6.4283-1.0714 1.0714z"/></g><use transform="matrix(0 1 -1 0 211.112 .002)" xlink:href="#a"/><use transform="matrix(-1 0 0 -1 211.11 211.114)" xlink:href="#a"/><use transform="matrix(0 -1 1 0 -.002 211.112)" xlink:href="#a"/><g fill="none" stroke="#96877d" stroke-width=".514"><circle cx="105.555" cy="105.557" r="31.822"/><circle cx="105.555" cy="105.557" r="24.245"/></g><g><circle cx="93.434" cy="131.31" r="1.515"/><circle cx="117.675" cy="131.31" r="1.515"/><path d="m104.55 131.31v1.5798h-2.0203c-2.0203 0-2.0203 1.5798 0 1.5798h2.0203v1.5798c.007 1.637 1.7632 1.8358 1.8917.13718l.12826-1.7078h2.0203c2.02 0 2.02-1.5798 0-1.5798h-2.0203v-1.5798c0-1.5798-2.02-1.5798-2.02 0z"/><path d="m75.954 113.4 2.0836-.49669-.23018-.96558c-.05274-.22154-.14029-.37212-.26261-.45176-.12227-.0796-.33208-.10192-.62945-.0669l-.03456-.14462 1.7943-.42772.03456.14462c-.20528.0516-.35004.11445-.43437.18823-.08431.0738-.13986.16141-.16664.26283-.02678.10141-.01904.24072.02319.41794l.23018.96558 1.6653-.39698c.26844-.064.44162-.12317.51955-.17754.05893-.0416.10192-.10968.12895-.20426.03521-.12958.0379-.25691.0081-.38202l-.04572-.19152.14462-.0346.54235 2.2752-.14462.0346-.04465-.18767c-.05228-.21889-.15392-.36268-.30524-.43127-.0983-.0427-.30644-.0261-.62439.0497l-3.4245.81632c-.26844.064-.44161.12317-.51955.17753-.05893.0416-.10222.10838-.1299.20035-.03582.12697-.03853.25431-.0081.38201l.04465.18768-.14462.0346-.94026-3.9444 1.1528-.32851.03261.13683c-.23143.12678-.39442.24896-.48896.3665-.09453.11756-.15218.24837-.17294.39239-.02075.14403.0018.35418.06766.63043l.27863 1.1689zm-1.3422-9.402c.03979-.70618.34243-1.303.90792-1.7904.56549-.48738 1.2495-.70846 2.052-.66326.82656.0466 1.498.34604 2.0143.89839.5163.55236.75358 1.199.71183 1.94-.0422.74898-.34381 1.3633-.90484 1.8428-.56102.47958-1.2642.69556-2.1095.64794-.864-.0487-1.5523-.38264-2.0648-1.0019-.44467-.53759-.64696-1.1622-.6069-1.8737zm.28861.0927c-.02742.48684.13113.88756.47566 1.2021.42874.39179 1.0765.6121 1.9431.66093.88808.05 1.5822-.10137 2.0824-.45424.38022-.27106.58382-.64601.6108-1.1248.02878-.51091-.14672-.94411-.52652-1.2996-.3798-.35548-.99903-.55741-1.8577-.6058-.93088-.0524-1.6353.0917-2.1134.43237-.38036.27376-.58517.67009-.61441 1.189zm7.894-9.9511-.5176 1.3596-3.0375.8174c-.04359.12962-.08066.23448-.11117.3146-.0124.03256-.02636.06738-.04191.10444-.01555.03709-.03221.07518-.04997.11428l1.4798.56335c.3205.12201.5329.16274.63721.12218.14641-.05317.25581-.17496.32826-.36525l.07577-.19905.13896.0529-.83073 2.1821-.13896-.0529.07293-.19155c.08198-.21532.07048-.39601-.03445-.54204-.05761-.08213-.23164-.17848-.52208-.28906l-3.2901-1.2525c-.32049-.12201-.5329-.16274-.63721-.12218-.14736.05566-.25771.17998-.33112.37276l-.07293.19155-.13896-.0529.70634-1.8554c.2059-.54083.39713-.92456.57371-1.1512.17658-.22662.40474-.38916.68447-.48765s.56608-.09195.85903.01957c.31299.11916.54581.32462.69848.61637.15267.29177.19508.66984.12722 1.1342l1.8614-.49542c.42703-.11264.72853-.23431.90446-.36521.17594-.13082.33184-.32948.46769-.59598l.13896.0529zm-3.9947 2.6203c.01811-.04758.03447-.08865.04906-.12322.01461-.03458.02618-.06313.03477-.08567.18493-.48575.21917-.89198.10274-1.2187-.1164-.32671-.3374-.55201-.66291-.67593-.31799-.12105-.6144-.11994-.88925.0033-.27484.12328-.47469.34893-.59956.67693-.05529.14523-.10632.35084-.15312.61683l2.1183.80642zm11.596-18.053 1.0531 1.3672-.11806.07646c-.35222-.2826-.68176-.4538-.98862-.51362-.4425-.08686-.87738.0081-1.3046.28477-.58242.37723-.87613.89464-.88114 1.5522-.0021.55362.17083 1.0991.51894 1.6366.28254.43626.62467.77966 1.0264 1.0302.40168.25056.79339.37113 1.1751.3617.38172-.0094.71651-.10735 1.0043-.29378.16864-.10923.31785-.23619.44759-.38087.12973-.14467.24074-.30595.33302-.48382l-.85639-1.3223c-.14856-.22936-.26321-.36818-.34394-.41644-.08075-.04825-.16966-.06726-.26677-.05704-.09711.01023-.23785.07513-.42227.19448l-.08302-.12817 1.7709-1.147.08302.12817-.08432.05462c-.1754.1136-.25784.25-.24732.40916.0089.11233.09274.29106.2515.53617l.90664 1.3998c-.16831.30692-.35727.57454-.56689.80287-.20962.22834-.46847.44227-.77654.6418-.88375.57238-1.7385.7238-2.5643.45423-.61932-.20217-1.1089-.58098-1.4686-1.1364-.26069-.40252-.41379-.8508-.45924-1.3449-.05463-.58706.04172-1.1283.28906-1.6236.20835-.41264.54077-.7668.99726-1.0625.1664-.10776.32637-.19222.4799-.25335.15351-.0612.38497-.12637.69427-.1959.15647-.03441.25611-.0654.29888-.09297.04269-.02776.06653-.071.07138-.13003.0049-.059-.02647-.14805-.09404-.26709l.1248-.08083zm8.8735.61442-2.039.5422-.1363.92615c-.03364.22797-.03703.39242-.01019.4934.02126.08029.07829.14067.17086.1812s.26812.03612.52668-.01322l.03817.14372-1.6584.44098-.03817-.14372c.20976-.09736.33873-.18572.38694-.26507.099-.1594.17816-.45074.23748-.87404l.70002-4.827.13591-.0362 2.9981 3.8935c.24122.31289.43597.50576.58426.5786.14827.07285.33159.08718.54994.04297l.0382.14372-2.0778.55252-.03817-.14372c.20698-.06609.33943-.13878.39738-.21796.058-.07918.0756-.16149.0529-.24693-.0303-.11391-.12993-.2801-.2989-.49854l-.51986-.67266zm-.18516-.25849-1.4592-1.8908-.35063 2.3721 1.8099-.48127zm9.6209-.02828.13143.03327-.52332 1.4597-4.2165-.16404.006-.14858.20481.008c.23023.009.39779-.0596.50268-.20567.0596-.08349.0954-.28049.10745-.59105l.1367-3.5138c.0132-.34-.016-.55428-.0876-.64287-.0998-.12186-.25281-.18679-.45895-.19481l-.20481-.008.006-.14858 2.4657.09592-.006.14858c-.28903-.01392-.49287.005-.61151.05664-.11865.05169-.20105.11954-.24721.20354-.0462.08402-.0756.28798-.0882.61191l-.1331 3.4214c-.009.2222.007.37563.0465.46029.0299.05749.0778.10089.14374.13026.0659.02938.27418.05088.62489.06453l.39756.01547c.41764.01626.71198-.0031.88304-.05815.17109-.05493.32924-.15811.47454-.30932.1453-.15119.29412-.39275.44646-.72466zm7.2573 1.942.11707.06835-.90692 1.2578-4.0064-1.3248.0467-.14118.1946.06436c.21875.07234.39874.05284.53997-.05847.0803-.06374.16929-.24314.26686-.53821l1.104-3.3386c.10682-.32305.13808-.53705.0938-.642-.0622-.14473-.19123-.24947-.38709-.31424l-.1946-.06436.0467-.14118 2.3428.7747-.0467.14118c-.27388-.09339-.47498-.13166-.60329-.11484-.12831.01684-.22625.05931-.2939.12715-.0676.06794-.15231.25582-.25409.56359l-1.075 3.2509c-.0698.21112-.0974.36285-.0828.45516.0128.06352.0469.11852.10206.16497.0552.04647.24939.12479.58261.23499l.37774.12491c.39682.13122.68503.19407.86463.18856.17959-.0055.36014-.06081.54163-.16584.18148-.10507.39135-.29599.62961-.57275zm5.8487 3.0973-1.7221-1.2189-.79864.48837c-.19664.12013-.32513.22285-.38549.30813-.048.06779-.0579.15021-.0298.24726.0282.09704.14395.22907.34742.39607l-.0859.12138-1.4007-.99138.0859-.12137c.2091.09875.35956.14125.45138.12746.18582-.02604.46028-.15182.82341-.37729l4.1557-2.5533.11481.08126-1.0706 4.796c-.0858.38563-.10928.65872-.0703.81927.039.16053.14539.31051.31915.44992l-.0859.12138-1.7549-1.2421.0859-.12138c.18331.11663.32394.17185.42187.16566.0979-.0062.17241-.04539.22351-.11752.0681-.09623.13193-.27916.19151-.54882l.18376-.83003zm.08-.30775.51785-2.3316-2.0464 1.2496 1.5286 1.0819zm6.4627 1.191.88066 1.1881-1.2996 5.1103 2.5247-1.8714c.26904-.19942.41459-.35399.43665-.46372.0314-.14663-.0168-.30606-.14439-.47825l-.11246-.15174.11946-.08854 1.1295 1.5239-.11946.08854-.11487-.15497c-.13721-.18511-.29049-.27492-.45985-.26945-.10398.0037-.27868.0964-.52401.27837l-3.6903 2.7353-.0862-.11622 1.3862-5.4996-2.6959 1.9982c-.26905.19942-.41539.35292-.43904.4605-.0298.14879.0183.30822.14439.47825l.11487.15497-.11946.08854-1.1295-1.5239.11946-.08854.11247.15174c.13879.18726.29287.27815.46223.27267.10397-.0037.27868-.0964.52402-.27835l3.0445-2.2567c.0544-.23707.0809-.40598.0796-.50673-.001-.10075-.0286-.22977-.0818-.38707-.0269-.07677-.0874-.17867-.18154-.30565l.11946-.08854zm6.871 12.662-1.1847.48309-.0508-.144c.20233-.10285.34047-.19436.41442-.27451.11879-.13013.1899-.27253.21334-.42717.0234-.15465-.002-.33806-.0774-.55022l-.2561-.72361-3.925 1.3887c-.31574.11164-.50066.2155-.55483.3114-.0721.13351-.0729.30003-.002.49957l.0629.17808-.14018.04957-.77076-2.1785.14019-.04957.0644.18184c.0769.2172.19703.34805.36054.39251.10048.02697.2947-.01047.58263-.11236l3.925-1.3887-.2184-.61758c-.0849-.23993-.16291-.40418-.23401-.4927-.0944-.11436-.22643-.19414-.39587-.23933-.16946-.0452-.3735-.03554-.61212.029l-.0508-.144 1.2262-.36564 1.4839 4.194zm-4.3136 9.6659-.0755-1.4528 2.4487-1.9744c-.0125-.13618-.0209-.24707-.0254-.33268-.002-.0348-.003-.0722-.004-.11247-.00067-.0402-.00091-.0818-.00045-.12474l-1.5813.0822c-.34247.0178-.55323.0663-.63228.14555-.11245.10779-.16337.26336-.1528.46671l.0111.21271-.14849.008-.12122-2.3318.14849-.008.0106.20469c.012.2301.0954.39075.25042.48195.0859.0519.28397.0697.59434.0536l3.5157-.18276c.34247-.0178.55323-.0663.63229-.14554.11228-.11047.16309-.26871.15238-.47473l-.0106-.20467.14849-.008.10307 1.9826c.03.57792.01 1.0062-.06 1.2848-.07.27863-.21311.51947-.42924.72253-.21615.20305-.48074.31272-.79378.32899-.33444.0174-.63041-.0765-.8879-.28181-.25749-.20526-.44896-.53401-.57442-.98625l-1.5028 1.2049c-.34518.27549-.57183.50861-.67995.69934s-.17053.43543-.1872.73409l-.14849.008zm2.5964-4.0103c.003.0508.004.095.005.13254.00064.0375.002.0683.003.0924.027.51906.1597.90452.39806 1.1564.23845.25186.53158.36875.87941.35067.33979-.0177.61052-.13838.81217-.36215.20164-.22378.29336-.5109.27514-.8614-.008-.15519-.0444-.3639-.10902-.62613l-2.2635.11767zm1.4941 11.21-.48239 1.8386-.14382-.0377.0265-.10106c.0177-.0674.0137-.17368-.0119-.31889s-.0803-.28555-.16376-.42104c-.0836-.1355-.23063-.31396-.4412-.53539l-1.6684-1.7964-1.3216-.34676c-.32394-.085-.53559-.10174-.63496-.0503-.13468.0699-.2299.21113-.28565.42363l-.0449.17104-.14382-.0377.58744-2.239.14382.0377-.049.1866c-.0585.22285-.0326.39862.0777.52727.068.0788.24967.15691.54509.23442l1.2478.32737 2.5873-.86676c.30401-.10305.49641-.17651.57717-.22043.0807-.044.19165-.14983.33267-.31782.0395-.045.0722-.11677.098-.21525l.14383.0378-.59152 2.2546-.14382-.0377.0306-.11662c.0319-.12181.0328-.24136.003-.35868-.0302-.11731-.10225-.19095-.21628-.22086-.0933-.0245-.28248.0104-.56755.10454l-1.9874.65431 1.3536 1.4603c.20279.21939.3638.34473.48301.37601.0726.019.14227.0172.20915-.005.0669-.0226.12568-.0647.17643-.12614.0508-.0615.0945-.16218.1312-.30212l.14382.0377z"/></g><g fill="#96877d" stroke="#000" stroke-width=".203"><path d="m122.85 110.19c.53163-.13451 1.4092-.0256 1.4092-.0256s.0769.3651-.15373.4868c.25621.14732 1.1786.10248 1.1786.10248s-.3587.27543-.53804.38431c.33307.032.743.46118.743.46118s-.76862.1281-1.1017-.0512c.20497.40993.17935.76863.17935.76863s-1.2426-.30745-1.691-1.1273"/><path d="m120.77 109.49c-.30104.74301-2.5108-.64052-2.5108-.64052s.9736 1.5437 2.434 1.7166"/><path d="m93.181 123.66h25.877l1.9984-1.5885-3.3307-1.7935-5.1242-1.7422-2.0497-1.1273-3.7919.20497-3.177 1.691-4.3556.51242-1.0248 1.1786-3.2282.25621-5.0729-.10248 8.4549 1.3323-6.9689-.3587 1.7935 1.5373z"/><path d="m107.12 116.23c-3.241-1.7422-4.189 2.5493-5.5854 3.5869 1.8831.32026 3.3051-1.4476 4.9192-2.3059 1.224 3.333 3.1514 1.1273 3.1514 1.1273s2.0112 3.1898 4.6886 1.7422c.73019.55085 1.5372.0512 1.5372.0512s.9736.17935 1.1786-.25621c.51241.17935 1.0761-.46117 1.0761-.46117s1.1145.0128 1.3323-.56366c1.6526.29464 3.8431-3.382 3.8431-3.382l.66615-1.281.97359-.20497s.0641-.64052-.46118-.6149c-.0128-.38432-.34588-.58929-.81986-.51242.0897-.23059-.25621-.40994-.25621-.40994-.92236.23059-.9736 2.5621-.9736 2.5621s-1.6141 1.2298-2.2034 1.5372c-.0256-1.3323-2.2546-3.1386-1.7935-3.9969.46117-.8583 1.9088 1.3195 3.177.92235 1.2682-.39712 1.8914-2.0468 1.9472-3.3307-.35869-.87111-1.2298-2.3059-1.2298-2.3059l-.81987-.0512-.71739-1.7422s-1.5116.98641-1.486 1.8447c.0256.8583 1.5885 1.5885 1.5885 1.5885s-.90121.56325-1.7422.30745c-.0769.87111 1.0248.70457 1.4348.71738.20497.62771.81987.9736.81987.9736s.38432.96078-.6149.87111c-.99922-.0897-2.1781-2.3919-3.5869-1.3323-1.4988 1.1273.66614 3.177.66614 3.177s-1.3195.69176-2.1009 2.4596c-3.1898-2.6902-5.0601-1.4348-8.6086-.71739z"/><path d="m102.46 111.67c1.3323 1.2554.40316 3.3422.92235 3.7407.55085.42274 1.3323-.20497 1.3323-.20497 1.3963.37151 3.8944-.40993 3.8944-.40993 1.0994.61473.66541-.29241 1.3323-.25621.58928 1.5116 2.5621 1.2298 2.5621 1.2298s-1.8063-1.8447-2.9208-2.3571c-.8583.51242-3.3564.58928-3.7919.51242-.48533-.0857-.17935-.67896-.40994-1.0248.91849-.89406.19216-3.1129-.30745-3.9456-2.036-1.3563-4.4684.96777-2.6133 2.7158z"/><path d="m93.599 107.92c-1.6758.45291-4.5835-2.165-5.9423-1.1595s-.72467 3.4784.18117 4.7104c.885 1.2036-1.2953 1.6396-1.8841 2.3552-.55353.67276.18117 1.4493.18117 1.4493l.61597.39857-.1087.90583.3261 1.087s.29892.26269.39857-.0725c.28081.28081.02966 1.0928.72467 1.1957-.24887-.52003.18117-1.9566.18117-1.9566s1.2138.0906 1.5218-.4348c.30798-.52539-.28987-1.6667-.28987-1.6667h.36233c-.40763-.28081-.5435-1.1232-.5435-1.1232s1.6849-.53444 1.6667-1.8117c-.01812-1.2772-2.7356-2.636-1.7392-3.2972 1.1051-.73373 3.0255 1.9023 4.6741.68844 1.6315-1.2012.57974-.0362.57974-.0362s.74569-1.6783-.90584-1.2319z"/><path d="m102.25 89.971c-2.2418-.93516-6.8216-.99281-9.3773-2.2546-1.1209.07046-1.6205.95438-1.6654 1.3067-1.1722-.05765-1.9664 1.7871-1.7935 2.1522-2.1329-.86471-3.1258 2.5108-2.434 3.2026-1.8191.07686-1.5949 2.402-1.7678 3.0489-.58288 1.4156.1298 1.8919 1.281 1.3835.17294.6149-.06911.95934-.58928 1.0761 3.1575 3.6133 4.9421-2.2236 7.7119-2.2034 3.4583-1.0124 4.8167-2.7158 4.8167-2.7158l1.3579.17934s2.4596-5.1754 2.4596-5.1754z"/><circle cx="105.145" cy="87.384" r="3.305"/><path d="m99.33 113.41c-2.0497-.37151-5.4444-2.498-5.7903-5.2779 1.9088-7.4941 11.755-3.5807 12.604-9.2173-.21639-3.7187.44951-7.3999 2.5119-10.511.96079-1.217 2.2034-1.5373 2.2034-1.5373s.22257.79372-.10248 1.3323c1.6269-.17935 3.856.7302 5.3804.81987.44837.90954.40994 1.2426.30745 1.7935-.10248.55085-.71738.40993-.71738.40993-.39767.37723-.87565.76105-1.9472.56366-.80706.6149-2.5108.76863-2.5108.76863s3.5613 3.7535 2.972 4.9192c.74301.34588 1.8447 1.9984 1.8447 1.9984s2.434-1.281 3.2282-2.4596c1.4092 0 3.715 1.4732 4.868 1.6397 1.4092 1.1401 2.8183 2.3059 2.8183 2.3059s-1.6782 1.1017-2.4084-.3587c-.88392.0769-2.7927-2.0369-5.4316-1.3835-.0769 2.3443-2.6646 3.9969-2.6646 3.9969s2.4153-.33802 3.7406.46117c1.3707 1.153 3.382 2.7158 3.382 2.7158l1.7935 3.0745s-1.6397.28183-2.2546-1.8447c-.61491 1.7166-.64052-1.0633-3.0745-2.3571-.74301.0897-1.1145.14092-1.7422-.35869-1.755.47399-3.8303 1.4988-6.3028 1.2298-1.755.55085-3.0361 2.0112-4.8167 2.8183-1.7807.80706-2.3059.40993-2.3059.40993l-1.4348.0512c-.20699.86376-.0897 2.1778-.87111 2.4084.49961.53804-.35869 2.8311-1.2298 3.2282.40993 1.4732 1.6108 1.9242 2.8695 2.6646 0 0 1.1145-.51241 1.8447.15373.73019.66614 1.486 2.5621 1.486 2.5621s-1.5197.10268-1.9984-.10248c-.47871-.20516-.52523-.70458-1.0761-.56366-3.4716-3.0873-5.3024-1.8593-5.6366-2.5621-.34252-.72035.81987-2.6005.46118-3.7919z"/><path d="m90.99 99.655c.18117-.22646 1.4493.25363 1.4493.25363l2.3189 1.4493 4.7104 3.0436 1.6667 2.4276-3.0074-.9783-4.1668-3.5871-2.2465-1.4493s-.90584-.93301-.72467-1.1595z"/><path d="m118.85 107.37c-1.6269-.40994-5.6366 4.458-5.6366 4.458l3.0233 3.2795s.0897-5.5854 2.6133-7.7375z"/><path d="m99.023 93.789c-.88723 1.1368-.96662 3.4287.18756 4.3531.10881 1.3911 1.2915 4.1971 2.2208 4.4605 1.0153.28784 5.0729 1.2298 6.6614.97359-.30381 2.5745 1.7164 4.641 3.5869 5.9953-.0136.23103-.0168.51306.19928.79864.20936.27664 1.1923.32734 1.2355.17495.43591.6126 2.5473.88157 2.7003.60869.14884-.26552-3.1056-2.5307-3.8276-3.222-.6133-1.1442-1.7749-3.6938-2.0497-5.7391-1.5973-1.9003-4.3395-1.8623-4.3395-1.8623l.0864-3.7231.15373-4.2018-1.486-.76863s.29956-.13652.46117-.30745c.36089.15517 1.0391-.56988 1.1273-.77484.34187.12113.65138.11952.71117-.06314.0528-.16132.11399-.87942.23863-1.2505 1.1211-.98705-.16365-3.08-1.8778-3.1144-1.6961-.03441-2.0765 2.0232-2.044 2.1796.15932.64556.12499.97102 0 1.1273-.12777.15976-.71739.51242-.71739.51242s-.94797-.44837-2.1009 0-2.4468 1.0505-2.5108 1.7935c-.52523.07686-1.3835.75582-1.5373 1.3323-.46118-.08967-1.0633.29464-2.0497 1.8959-1.7678.78144-1.8703 4.5605-1.8703 4.5605s-.47719.69496-.49961 1.0633c-.02242.3683.16654.70458.39712.64053.02562.24339.34588.46117.4868.38431.05124.2434.40298.37952.6149.34588.01922.16654.70137.12491.75582-.0256.06008-.16611-.0675-.99692.0128-1.0633.07366-.0609.64052.37151.79425.25621.15373-.11529-.02936-.48449-.11529-.62771-.07686-.12811-.56366-.26902-.67895-.87111s.30745-1.4348.30745-1.4348 1.9216-1.5116 2.1393-2.8055c1.4476.14092 2.213-1.1241 2.6261-1.6013z"/><path d="m95.679 88.37c.43876-1.0729 2.0241-.97359 2.0241-.97359s.56686-1.4924 2.703-.60209c.80386-.62131 2.9208.26902 2.9208.26902s.7927-1.0562 1.8319-.93516c1.9248.22418 2.245 1.9888 2.1265 2.2931-1.0537.26582-2.879-.85629-4.2659-.53804-.81026.45797-2.1233.94157-2.6133 1.6013-1.2842.13451-2.655-1.1818-4.7271-1.1145z"/><path d="m99.689 90.151c.4804-.29464 1.6588-.81262 2.4596-.17935.83908.90314 2.1265 1.7422 2.1265 1.7422l1.4604.6149.66614.40994-.43556 6.6871c-1.3518-1.3831-2.6186-1.6253-3.5869-3.2539-.51883-.69817-.1217-2.3763-1.0248-3.4844-.90314-1.1081-1.8639-1.8575-1.6654-2.5365z"/><path d="m103.2 92.082s.76544-.14493.97831.03623c.26722.09058.52538.16758.59785.39857.28987.08605.48915.23552.48915.45292.27175.07247.38045.56162.38045.56162l-.25363.38045s-.28987-.27175-.3261-.56162c-.1834-.09031-.5888-.1857-.68844-.45292-.31704-.0317-.52085-.19476-.57973-.47104-.2944.06794-.59786-.34422-.59786-.34422z"/><path d="m109.68 87.717c-.43556-.4868-1.2042-.1281-1.2042-.1281l-2.0497 3.5357-.89673.74301-.0769 2.7671.743 2.5877-.25621 1.9984s1.0322-.96837 1.153-1.5116c.11529-.51882-.38432-2.2034-.38432-2.2034s-.6149-1.0505.12811-2.9976c.743-1.9472 2.434-3.5613 2.8439-4.7911z"/><path d="m114.74 90.868s-3.2003 4.5733-8.4398 6.2003c-1.4476.34588-.92236-3.382-.92236-3.382l-.35869.10248s-.80706 3.651 1.1273 3.6894c5.2651-1.0376 9.2156-6.5806 9.2156-6.5806l-.63-.028z"/><path d="m116.91 117.16s-.4868.3587-1.1273 0c-.33307-.76862-1.2298-.81987-1.2298-.81987s-.57758-1.6593-1.486-1.1786c-.14091-.8583-1.1273-.40993-1.1273-.40993s-.0256-1.2426-1.1786-1.0761c.38431-1.422-1.5885-1.3323-1.5885-1.3323s-.064-1.6013-2.972-1.281c6.2643-2.8055 11.222 4.4068 11.222 4.4068"/><path d="m119.88 117.77s1.4476 1.6269 2.2034 1.6397c.75582.0128.81987-1.5885.81987-1.5885s.2434.69176.6149.51242c-.0384.48679.46118.6149.46118.6149s-1.3067 3.0361-5.0217.15372"/><path d="m108.55 118.39-.51242 2.1009s-.65333.58928-.46118.71739c.19216.1281 1.2298-.20497 1.2298-.20497s1.6141-.19215 2.1009-.66614c.33308.75582 1.0761.81987 1.0761.81987s.0512-.32026-.0512-.51242c.35869.0641.66615-.0512.66615-.0512s.20496-.58929-.25621-.81987c.0512-.43556.26901-.81987-.51242-.76863-.57647.6149-1.9984 1.3195-2.3571 1.0761-.35869-.2434 1.4092-1.0248.92236-2.0497"/></g></svg>