<?xml version="1.0" encoding="UTF-8"?>
<svg xmlns="http://www.w3.org/2000/svg" width="900" height="600" viewBox="0 0 9 6">
<title>Flag of Slovakia</title>
<rect width="9" height="6" fill="#ee1c25"/>
<rect width="9" height="4" fill="#0b4ea2"/>
<rect width="9" height="2" fill="#fff"/>
<g>
<path fill="#fff" d="M3.16255,4.635c-0.53781-0.25905-1.3071-0.77323-1.3071-1.79033,0-1.01711,0.04863-1.47967,0.04863-1.47967h1.25847,1.2585s0.04864,0.46256,0.04864,1.47967c0,1.0171-0.76929,1.53128-1.30714,1.79033z"/>
<path fill="#ee1c25" d="M3.16255,4.5c-0.4934-0.23766-1.19917-0.70938-1.19917-1.64251,0-0.933128,0.044612-1.35749,0.044612-1.35749h1.15456,1.15459s0.044626,0.424365,0.044626,1.35749c0,0.933128-0.705776,1.40485-1.19921,1.64251z"/>
<path fill="#fff" d="m3.26808,2.61284c0.133599,0.00216,0.394255,0.00739,0.626352-0.070273,0,0-0.00613,0.083055-0.00613,0.179805,0,0.096773,0.00613,0.179822,0.00613,0.179822-0.21289-0.07125-0.4758-0.07273-0.62635-0.07082v0.515391h-0.211033v-0.515391c-0.150545-0.00191-0.41345-0.0004252-0.626352,0.070815,0,0,0.00613-0.083049,0.00613-0.179822,0-0.09675-0.00613-0.179805-0.00613-0.179805,0.2321,0.077665,0.492753,0.072432,0.626352,0.070273v-0.323676c-0.121766-0.00108-0.297234,0.00473-0.49563,0.071126,0,0,0.00613-0.083055,0.00613-0.179822,0-0.096756-0.00613-0.179811-0.00613-0.179811,0.198103,0.066283,0.373356,0.072192,0.495088,0.071137-0.00626-0.20498-0.06597-0.46332-0.06597-0.46332s0.12289,0.00959,0.172016,0.00959c0.049178,0,0.172031-0.00959,0.172031-0.00959s-0.059695,0.258346-0.065964,0.463301c0.121741,0.00106,0.296989-0.00485,0.495086-0.071137,0,0-0.00613,0.083055-0.00613,0.179811,0,0.096767,0.00613,0.179822,0.00613,0.179822-0.198388-0.066392-0.373863-0.072207-0.495627-0.071126v0.323676z"/>
<path fill="#0b4ea2" d="m3.1625,3.29094c-0.24847,0-0.381562,0.344688-0.381562,0.344688s-0.073834-0.163438-0.276562-0.163438c-0.137161,0-0.238243,0.12201-0.3025,0.235,0.24954,0.39705,0.64768,0.64207,0.96062,0.79281,0.31299-0.15075,0.71139-0.39571,0.96094-0.79281-0.064256-0.11299-0.165339-0.235-0.3025-0.235-0.202734,0-0.276875,0.163438-0.276875,0.163438s-0.133073-0.344688-0.381562-0.344688z"/>
</g>
</svg>