<svg height="600" viewBox="0 0 12 6" width="1200" xmlns="http://www.w3.org/2000/svg" xmlns:xlink="http://www.w3.org/1999/xlink"><path d="m0 0h12v6h-12z" fill="#ed1c24"/><path d="m0 0h12v4h-12z" fill="#005da4"/><path d="m0 0h12v2h-12z" fill="#fff"/><svg height="15.459" transform="matrix(.12937 0 0 .12937 2.2238 1)" viewBox="-120 -190.223125 240 309.188274" width="12"><path d="m110.26-19.478 9.74-143.75a280.22 280.22 0 0 0 -240 0l9.74 143.75a155.61 155.61 0 0 0 110.26 138.45 155.61 155.61 0 0 0 110.26-138.45" fill="#005da4"/><path d="m-90 0a138.29 138.29 0 0 0 90 100.77 138.29 138.29 0 0 0 90-100.77l-45-60-18 24-27-54-27 54-18-24z" fill="#fff"/><g id="a" fill="#005da4" transform="matrix(5 0 0 5 0 25.981)"><path d="m-17.196-2.1962a6 6 0 0 0 8.1962 2.1962 6 6 0 0 1 6 0 6 6 0 0 0 6 0 6 6 0 0 1 6 0 6 6 0 0 0 8.1962-2.1962v1.732a6 6 0 0 1 -8.1962 2.1962 6 6 0 0 0 -6 0 6 6 0 0 1 -6 0 6 6 0 0 0 -6 0 6 6 0 0 1 -8.1962-2.1962z"/></g><use transform="translate(0 17.321)" xlink:href="#a"/><g id="b" transform="matrix(2.25 0 0 2.25 0 -120)"><path d="m0-5 1 3.2679 3.3301-.7679-2.3301 2.5 2.3301 2.5-3.3301-.7679-1 3.2679-1-3.2679-3.3301.7679 2.3301-2.5-2.3301-2.5 3.3301.7679z" fill="#fd0" stroke-width=".2"/></g><use transform="translate(-33.75 -45)" xlink:href="#b"/><use transform="translate(33.75 -45)" xlink:href="#b"/><path d="m-111.58-167.05 9.96 146.99a146.95 146.95 0 0 0 101.62 129.95 146.95 146.95 0 0 0 101.62-129.95l9.96-146.99a280.22 280.22 0 0 0 8.42 3.82l-9.74 143.75a155.61 155.61 0 0 1 -110.26 138.45 155.61 155.61 0 0 1 -110.26-138.45l-9.74-143.75a280.22 280.22 0 0 0 8.42-3.82" fill="#ed1c24"/></svg></svg>