/* XPM */
const char * icon[] = {
"22 22 369 2",
"  	c None",
". 	c #9AB17E",
"+ 	c #7B9560",
"@ 	c #92AB72",
"# 	c #B6D390",
"$ 	c #ACCB87",
"% 	c #C0EF88",
"& 	c #A6D371",
"* 	c #AADB73",
"= 	c #AEDF74",
"- 	c #A1CE6D",
"; 	c #9AC565",
"> 	c #A5D36D",
", 	c #B4E082",
"' 	c #BEE092",
") 	c #C1EF8B",
"! 	c #AFDF73",
"~ 	c #BAED7D",
"{ 	c #C6FD84",
"] 	c #BBEF7E",
"^ 	c #B9EC7D",
"/ 	c #B8EA7A",
"( 	c #B8ED7B",
"_ 	c #BCF17E",
": 	c #A6D56D",
"< 	c #C4F883",
"[ 	c #C1F486",
"} 	c #D2F3AB",
"| 	c #C2F488",
"1 	c #C6FE85",
"2 	c #BDEE7E",
"3 	c #BFF37E",
"4 	c #C6FF83",
"5 	c #BEF580",
"6 	c #A3CF6B",
"7 	c #AEDE75",
"8 	c #B6E77A",
"9 	c #A7D570",
"0 	c #BCF07D",
"a 	c #C5FF85",
"b 	c #C0F482",
"c 	c #D3F8A3",
"d 	c #D2B05A",
"e 	c #D4CD53",
"f 	c #D2CF50",
"g 	c #BDBD47",
"h 	c #D2CD4F",
"i 	c #D3C458",
"j 	c #D7B55D",
"k 	c #D3AE61",
"l 	c #D4AE5D",
"m 	c #D3B85D",
"n 	c #C1A654",
"o 	c #D9B75F",
"p 	c #D3AB5B",
"q 	c #D8BB5E",
"r 	c #D8B062",
"s 	c #C29C64",
"t 	c #DDA092",
"u 	c #E52888",
"v 	c #EF205C",
"w 	c #F53144",
"x 	c #F53244",
"y 	c #E22E3F",
"z 	c #E52D43",
"A 	c #DC1583",
"B 	c #8711C3",
"C 	c #5722C9",
"D 	c #5325CC",
"E 	c #6F13C2",
"F 	c #9E0BBA",
"G 	c #B709AC",
"H 	c #CC0C8F",
"I 	c #D60D94",
"J 	c #900CC2",
"K 	c #362AE8",
"L 	c #6E1DD0",
"M 	c #EE4F93",
"N 	c #CD099B",
"O 	c #F51C70",
"P 	c #FE324D",
"Q 	c #FC403E",
"R 	c #F52A51",
"S 	c #C0137F",
"T 	c #522FE1",
"U 	c #229CF3",
"V 	c #45DAF8",
"W 	c #3BD0F8",
"X 	c #1366E2",
"Y 	c #1D4FEA",
"Z 	c #274FF6",
"` 	c #4037E7",
" .	c #3F39EC",
"..	c #195DF9",
"+.	c #0583FC",
"@.	c #1A3CF4",
"#.	c #663ADE",
"$.	c #C42991",
"%.	c #7A0DD5",
"&.	c #C706AE",
"*.	c #DB0B9A",
"=.	c #CD1096",
"-.	c #8C1AC5",
";.	c #2E60F4",
">.	c #3CC3F2",
",.	c #80F2F3",
"'.	c #66E7EB",
").	c #3DD6E8",
"!.	c #19C2F2",
"~.	c #0EA2DF",
"{.	c #19B5E6",
"].	c #22CEF7",
"^.	c #25D2F4",
"/.	c #2EE2FD",
"(.	c #0BADFC",
"_.	c #085AF6",
":.	c #3B2AE8",
"<.	c #2C39EC",
"[.	c #4129F1",
"}.	c #9906CE",
"|.	c #7210DF",
"1.	c #2E38ED",
"2.	c #129AFB",
"3.	c #55EFFD",
"4.	c #7FFCFC",
"5.	c #78F5F6",
"6.	c #24C9ED",
"7.	c #0B91E5",
"8.	c #0690F3",
"9.	c #07A0F7",
"0.	c #10BAEF",
"a.	c #33E6FB",
"b.	c #35E3F3",
"c.	c #2CE1FD",
"d.	c #07A7FD",
"e.	c #0579FC",
"f.	c #095FF3",
"g.	c #4487E0",
"h.	c #54C0F4",
"i.	c #095FF6",
"j.	c #3126FC",
"k.	c #322BFA",
"l.	c #1456FB",
"m.	c #0A9AF4",
"n.	c #27DCFC",
"o.	c #49F0FC",
"p.	c #3BE4FC",
"q.	c #32E4FC",
"r.	c #48EEF9",
"s.	c #4EEDF4",
"t.	c #30D2E5",
"u.	c #2BCEEA",
"v.	c #1FC8F1",
"w.	c #1FC5F1",
"x.	c #20B9E6",
"y.	c #0AACF9",
"z.	c #0388FD",
"A.	c #095BFD",
"B.	c #1A3BF4",
"C.	c #3161E8",
"D.	c #4CCCF6",
"E.	c #1064F2",
"F.	c #6814E7",
"G.	c #263FF7",
"H.	c #0795FD",
"I.	c #0EAEF5",
"J.	c #12C3FA",
"K.	c #16C6FB",
"L.	c #0BB3FD",
"M.	c #069AFC",
"N.	c #0FA2F7",
"O.	c #15AAF7",
"P.	c #17C0FB",
"Q.	c #0EA1F2",
"R.	c #0871FC",
"S.	c #0D5DFB",
"T.	c #0B5BF2",
"U.	c #0760F4",
"V.	c #085EFB",
"W.	c #0E49FC",
"X.	c #1C3AF3",
"Y.	c #4B3AF1",
"Z.	c #51CAF3",
"`.	c #2246E8",
" +	c #A908B7",
".+	c #960AC1",
"++	c #5A1DDC",
"@+	c #4D20D8",
"#+	c #2E3BEF",
"$+	c #125BF1",
"%+	c #076FF4",
"&+	c #0478F5",
"*+	c #075FE9",
"=+	c #0B4DF2",
"-+	c #1A3DEC",
";+	c #2531F3",
">+	c #5017E8",
",+	c #6011E2",
"'+	c #5911DD",
")+	c #5615D9",
"!+	c #6613C8",
"~+	c #8D0BC0",
"{+	c #900BBB",
"]+	c #AE2BC0",
"^+	c #50B4F3",
"/+	c #6322D8",
"(+	c #EB0E90",
"_+	c #F81183",
":+	c #EE1483",
"<+	c #DB0E8D",
"[+	c #CA0AAA",
"}+	c #A20AC5",
"|+	c #7713DA",
"1+	c #5422E8",
"2+	c #4D21E8",
"3+	c #491CEE",
"4+	c #411BF3",
"5+	c #351FF8",
"6+	c #4F17F2",
"7+	c #7809E2",
"8+	c #A906B9",
"9+	c #E21688",
"0+	c #F52965",
"a+	c #EF265A",
"b+	c #F2255F",
"c+	c #F3397D",
"d+	c #3D2EE6",
"e+	c #B206BC",
"f+	c #E80E8F",
"g+	c #FC265E",
"h+	c #F62D4E",
"i+	c #FC2A57",
"j+	c #FB2461",
"k+	c #F92367",
"l+	c #F41F6F",
"m+	c #E11683",
"n+	c #D50D97",
"o+	c #CA0BA6",
"p+	c #A70AB6",
"q+	c #950BCF",
"r+	c #B106BE",
"s+	c #E21086",
"t+	c #FE3C42",
"u+	c #FE4E2E",
"v+	c #F34433",
"w+	c #F65324",
"x+	c #F36F62",
"y+	c #3545F0",
"z+	c #5C11E5",
"A+	c #AA04C1",
"B+	c #E30C91",
"C+	c #F3156F",
"D+	c #FC2A58",
"E+	c #FE314A",
"F+	c #FE403A",
"G+	c #FD5329",
"H+	c #F84C30",
"I+	c #FA4537",
"J+	c #FD3D43",
"K+	c #FA265C",
"L+	c #E9127D",
"M+	c #F50F88",
"N+	c #F31378",
"O+	c #FE334B",
"P+	c #F82756",
"Q+	c #F33444",
"R+	c #F94836",
"S+	c #4D78EB",
"T+	c #6512DE",
"U+	c #D308A4",
"V+	c #F01084",
"W+	c #F5127C",
"X+	c #F3137B",
"Y+	c #FB1E6B",
"Z+	c #FE3E3E",
"`+	c #FD6020",
" @	c #F58412",
".@	c #F3900A",
"+@	c #FA7514",
"@@	c #FD4D2E",
"#@	c #F62854",
"$@	c #F51080",
"%@	c #F5117F",
"&@	c #ED157B",
"*@	c #BD0AA8",
"=@	c #D6118D",
"-@	c #F44F68",
";@	c #C11994",
">@	c #F1265A",
",@	c #F64732",
"'@	c #F54335",
")@	c #ED373F",
"!@	c #F5314C",
"~@	c #F43640",
"{@	c #F65225",
"]@	c #ED7911",
"^@	c #E59508",
"/@	c #EA930D",
"(@	c #EF601B",
"_@	c #EF2E49",
":@	c #E3117A",
"<@	c #CC0A98",
"[@	c #9B09B7",
"}@	c #411BEC",
"|@	c #8C15B3",
"1@	c #F57F80",
"2@	c #F23B3C",
"3@	c #F97916",
"4@	c #F6880D",
"5@	c #F17B11",
"6@	c #FD671B",
"7@	c #FD5A23",
"8@	c #FE5725",
"9@	c #E8990F",
"0@	c #C4CA09",
"a@	c #CBC909",
"b@	c #DE9C0D",
"c@	c #F7701C",
"d@	c #E73E35",
"e@	c #F5314E",
"f@	c #E51886",
"g@	c #7D0CD1",
"h@	c #CE4AB8",
"i@	c #ED9C55",
"j@	c #E6970F",
"k@	c #F09C09",
"l@	c #F19309",
"m@	c #F6691A",
"n@	c #FD4539",
"o@	c #FD314C",
"p@	c #F2741E",
"q@	c #CEC009",
"r@	c #C5CC08",
"s@	c #B3B80E",
"t@	c #D2980D",
"u@	c #F37A16",
"v@	c #FD5626",
"w@	c #EB216A",
"x@	c #D142A8",
"y@	c #D9C366",
"z@	c #E89C1A",
"A@	c #F97814",
"B@	c #F35027",
"C@	c #FD3547",
"D@	c #FC2262",
"E@	c #F83648",
"F@	c #F5701A",
"G@	c #CE9A0D",
"H@	c #BBA90D",
"I@	c #D9950C",
"J@	c #FA7D11",
"K@	c #F2711C",
"L@	c #EB6F65",
"M@	c #E8824A",
"N@	c #EF4642",
"O@	c #EE2A4A",
"P@	c #F52756",
"Q@	c #F1225D",
"R@	c #F03149",
"S@	c #F05828",
"T@	c #D84D20",
"U@	c #EB7A14",
"V@	c #E9A33F",
"W@	c #F18C7C",
"X@	c #E1696A",
"Y@	c #DE5874",
"Z@	c #E56163",
"`@	c #C46A54",
" #	c #E68C6C",
"                  . + @ #                   ",
"            $ % & * = - ; > , '             ",
"          ) ! ~ { ] ^ / ( _ : < [ }         ",
"        | 1 2 3 4 4 5 6 7 8 9 0 a b c       ",
"      d e f g h i j k l m n o p q r s t     ",
"    u v w x y z A B C D E F G H I J K L     ",
"  M N O P Q R S T U V W X Y Z `  ...+.@.#.  ",
"  $.%.&.*.=.-.;.>.,.'.).!.~.{.].^./.(._.:.  ",
"  <.[.}.|.1.2.3.4.5.6.7.8.9.0.a.b.c.d.e.f.g.",
"h.i.j.k.l.m.n.o.p.q.r.s.t.u.v.w.x.y.z.A.B.C.",
"D.E.F.G.H.I.J.K.L.M.N.O.P.Q.R.S.T.U.V.W.X.Y.",
"Z.`. +.+++@+#+$+%+&+*+=+-+;+>+,+'+)+!+~+{+]+",
"^+/+(+_+:+<+[+}+|+1+2+3+4+5+6+7+8+9+0+a+b+c+",
"  d+e+f+g+h+i+j+k+l+m+n+o+p+q+r+s+t+u+v+w+x+",
"  y+z+A+B+C+D+E+F+G+H+I+J+K+L+M+N+O+P+Q+R+  ",
"  S+T+U+V+W+X+Y+Z+`+ @.@+@@@#@$@%@&@*@=@-@  ",
"    ;@>@,@'@)@!@~@{@]@^@/@(@_@:@<@[@}@|@    ",
"    1@2@3@4@5@6@7@8@9@0@a@b@c@d@e@f@g@h@    ",
"      i@j@k@l@m@n@o@p@q@r@s@t@u@v@w@x@      ",
"        y@z@A@B@C@D@E@F@G@H@I@J@K@L@        ",
"            M@N@O@P@Q@R@S@T@U@V@            ",
"                W@X@Y@Z@`@ #                "};
