/* XPM */
static const char *icon_new_mapset[] = {
/* columns rows colors chars-per-pixel */
"22 22 186 2",
"   c #2E7802",
".  c #002186",
"X  c #0025A4",
"o  c #0029A8",
"O  c #002AA9",
"+  c #002CAB",
"@  c #002DAB",
"#  c #002FAC",
"$  c #003CB2",
"%  c #0E42B4",
"&  c #164AB2",
"*  c #1941C4",
"=  c #1960C7",
"-  c #2148C7",
";  c #204ACB",
":  c #204BCD",
">  c #2F68C6",
",  c #2E6AC6",
"<  c #386AC6",
"1  c #396CC7",
"2  c #3C6EC7",
"3  c #3C6FC8",
"4  c #3267DC",
"5  c #3871CA",
"6  c #3978D0",
"7  c #3C7DD5",
"8  c #2B6AE9",
"9  c #336CE3",
"0  c #3674EB",
"q  c #3F7EEB",
"w  c #3F7DEF",
"e  c #4175CD",
"r  c #4276CD",
"t  c #4378CE",
"y  c #4379CE",
"u  c #457ACF",
"i  c #427BD1",
"p  c #437BD0",
"a  c #457DD1",
"s  c #467ED2",
"d  c #477FD4",
"f  c #587AD7",
"g  c #66BE31",
"h  c #4780D4",
"j  c #4980D4",
"k  c #4882D5",
"l  c #5185D6",
"z  c #5286D6",
"x  c #5D88D2",
"c  c #4682EF",
"v  c #4B87F0",
"b  c #4D8DF3",
"n  c #4F97FA",
"m  c #5490F4",
"M  c #529EFF",
"N  c #5B94F4",
"B  c #5C9AF7",
"V  c #5DA6FF",
"C  c #6A91D6",
"Z  c #6288E3",
"A  c #6099F5",
"S  c #7097E9",
"D  c #7598E5",
"F  c #65ACFF",
"G  c #68A2F8",
"H  c #6FA6F8",
"J  c #6FA9FA",
"K  c #6CB0FF",
"L  c #74ABF9",
"P  c #74B6FF",
"I  c #7CBBFF",
"U  c #F7941D",
"Y  c #F7D11D",
"T  c #FFFF1A",
"R  c #FFFF32",
"E  c #FFFF5D",
"W  c #FFFF66",
"Q  c #868EBD",
"!  c #868EC0",
"~  c #8A92C2",
"^  c #8D94C4",
"/  c #8D95C4",
"(  c #9098C3",
")  c #9DA5CA",
"_  c #9FA4CC",
"`  c #80A6EE",
"'  c #8EB6E9",
"]  c #82B8FE",
"[  c #87BFFA",
"{  c #90B5F3",
"}  c #A5ACCD",
"|  c #B5B7C1",
" . c #B1B6D7",
".. c #B5B9D8",
"X. c #84C1FF",
"o. c #8FC1F8",
"O. c #92C5FF",
"+. c #9CC8F7",
"@. c #9ED7FF",
"#. c #BDC2DF",
"$. c #A1D6FF",
"%. c #A6D0FF",
"&. c #A7D1FF",
"*. c #ABD2F3",
"=. c #AED2F7",
"-. c #AED5FF",
";. c #B1D7FF",
":. c #B1DAFF",
">. c #B0DCFF",
",. c #B7DAFF",
"<. c #B9DEFF",
"1. c #ADE2FF",
"2. c #BFE3FF",
"3. c #B8EAFF",
"4. c #BDEDFF",
"5. c #FFFF8C",
"6. c #FFFF98",
"7. c #FFFFB6",
"8. c #D1D2DA",
"9. c #C5C8E2",
"0. c #C6CAE2",
"q. c #D2D2E1",
"w. c #D1D4E8",
"e. c #D5D7EB",
"r. c #D9D9E5",
"t. c #DBDCE3",
"y. c #DBDBE8",
"u. c #D9DBED",
"i. c #DBDDEE",
"p. c #DFDFEA",
"a. c #DCDFF0",
"s. c #C3E4FB",
"d. c #C1E4FF",
"f. c #C4E3FF",
"g. c #CAECFF",
"h. c #CEEBF9",
"j. c #CFEAF9",
"k. c #CCECFF",
"l. c #DFE1F0",
"z. c #D1F3FF",
"x. c #D2F7FF",
"c. c #D2FBFF",
"v. c #D9FAFF",
"b. c #DAFDFF",
"n. c #FFFFCC",
"m. c #E2E2EC",
"M. c #E5E6EB",
"N. c #E4E4EE",
"B. c #E0E1F0",
"V. c #E0E2F0",
"C. c #E1E2F1",
"Z. c #E2E3F1",
"A. c #E2E3F2",
"S. c #E3E4F2",
"D. c #E3E5F3",
"F. c #E4E5F2",
"G. c #E4E5F3",
"H. c #E5E6F3",
"J. c #E6E6F5",
"K. c #E2EDF8",
"L. c #E8E8F0",
"P. c #EBEBF3",
"I. c #E9EAF6",
"U. c #EAEAF7",
"Y. c #EEEEF5",
"T. c #EFEFF4",
"R. c #EEEEF9",
"E. c #EEEFF9",
"W. c #E2F9FF",
"Q. c #E3FFFF",
"!. c #E6FFFF",
"~. c #EBFFFF",
"^. c #EFFFFF",
"/. c #F0F0F7",
"(. c #F0F0FA",
"). c #F2F2FB",
"_. c #F6F6FE",
"`. c #F5FFFF",
"'. c #F6FFFF",
"]. c #F7FFFF",
"[. c #F8F9FF",
"{. c #F9F9FF",
"}. c #FBFFFF",
"|. c #FDFDFF",
" X c gray100",
".X c None",
/* pixels */
".X.X.X.X.X.X.X.X.X.X.X.X.X.X.X.X.X.X.X.X.X.X",
".X.X.X.X.X.X.X.X.X.X.X.X.X.X.X.X.X.X.X.X.X.X",
".X.X.X.X.X.X  g .X.X.X.X_ Q .X.X.X.X.X.X.X.X",
"  g .X.X.X.X  g .X.X0.(   U.~ .X.X.X.X.X.X.X",
"    g .X.X.X  g .X) ..  g (.#. ..X.X.X.X.X.X",
".X  g 6 6 6   g ) H.  g E.U.E.! .X.X.X.X.X.X",
"6 =.  g +.'   g _.  g ).E.U.H.a.^ .X.X.X.X.X",
"j x.    g }   g   g _.C 3 1 < 3 & $ % .X.X.X",
"d x.s.    g   g g _.x z f.,.-.%.&.D # .X.X.X",
"= 7 , 5       g r > z <.I K V M q * + .X.X.X",
"j }.'.K.'.    g k.d.:.X.P F n 4 U ; o 0..X.X",
"h '.~.j.h.v.  g O.] L B b 0 * U R U o ^ .X.X",
"s '.Q.x.*.:.  g L A v 0 U U ; U W U o U U .X",
"s ^.b.3.$.o.  g H N c U T Y U Y 6.Y U Y T U ",
"i ~.4.1.@.[   g G m w 8 U E 5.7.n.7.5.E U .X",
"i v.x.g.2.;.  g { ` S Z f U Y n. Xn.Y U .X.X",
"u  X X X X X  g P.N.p.r.q.U Y n. Xn.Y U .X.X",
"t  X X X X X  g Y.L.m.y.U E 5.7.n.7.5.E U .X",
"t  X X X X X  g T.Y.N.U T Y U Y 6.Y U Y T U ",
"r  X X X X X  g T.M.t.8.U U | U W U X U U .X",
". . . . . .   g . . . . . . . U R U . .X.X.X",
".X.X.X.X.X.X  g .X.X.X.X.X.X.X.XU .X.X.X.X.X"
};
