/* XPM */
static const char *icon_grass_tools[] = {
/* columns rows colors chars-per-pixel */
"22 22 5 1",
"  c #00ff0040",
". c #0080ff40",
"X c #9e770b20",
"o c #dcdcdc25",
"O c None",
/* pixels */
"OOOOOOOOOOOOOOOOOOOOOO",
"OOOOOOOOOOOOOOOOOOOOOO",
"OOOOOOOOOOOOOOOOOOOOOO",
"OOOOOOOOOO  OOOOOOOOOO",
"OOOOOOOOOO  OOOOOOOOOO",
"OOOO OO.OO  OO.OOOOOOO",
"OOOO  ...O  O...OOOOOO",
"OOOOO  ...  .....OOOOO",
"OOOO..  .O  O.....OOOO",
"OOO....  O  OO.....OOO",
"OO.....X    OOX... .OO",
"OO....XXX   OXXX.  .OO",
"OO...OOXXX  XXXO  ..OO",
"OO..OOOOXX  XXO  O..OO",
"OO.OOOOOOX  XO  OOO.OO",
"OOOOOOOOOX  X  OOOOOOO",
"OOOOOOOOXX    OOOOOOOO",
"OOOOOOOXXX   XXOOOOOOO",
"OOOOOOXXXO  OXXXOOOOOO",
"OOOOOXXXOO  OOXXXOOOOO",
"OOOOXXXOOO  OOOXXXOOOO",
"OOOOXXOOOO  OOOOXXOOOO"
};
