/* XPM */
static const char *icon_open_mapset[] = {
/* columns rows colors chars-per-pixel */
"22 22 245 2",
"   c #2E7802",
".  c #0025B7",
"X  c #0528BF",
"o  c #0927BF",
"O  c #0731B6",
"+  c #123BB7",
"@  c #143DBA",
"#  c #1D38BE",
"$  c #0022CA",
"%  c #0025CF",
"&  c #0329C1",
"*  c #0128CB",
"=  c #0E2BCA",
"-  c #0039C7",
";  c #003BC8",
":  c #0E34C0",
">  c #0133D6",
",  c #0133D7",
"<  c #033BDE",
"1  c #063DDD",
"2  c #0A34D1",
"3  c #162FC5",
"4  c #1039D3",
"5  c #2234CE",
"6  c #253ACD",
"7  c #283CD1",
"8  c #1842BD",
"9  c #1A46BF",
"0  c #0D52D3",
"q  c #1E4BC2",
"w  c #1142DC",
"e  c #1F43D1",
"r  c #1353D2",
"t  c #1554D2",
"y  c #1A58D2",
"u  c #195AD4",
"i  c #1E5DD6",
"p  c #0341E4",
"a  c #0443E4",
"s  c #1A52E7",
"d  c #1C5BEE",
"f  c #1F61D7",
"g  c #1D6BF0",
"h  c #224FC5",
"j  c #244AC1",
"k  c #2B48C5",
"l  c #2E49C9",
"z  c #2553C9",
"x  c #2857CB",
"c  c #2057D0",
"v  c #2258D1",
"b  c #344FCB",
"n  c #365AC6",
"m  c #3D59D1",
"M  c #2260D7",
"N  c #2562D7",
"B  c #2760D4",
"V  c #2765D9",
"C  c #2966DA",
"Z  c #2D6ADA",
"A  c #3263D3",
"S  c #3465D5",
"D  c #3467D6",
"F  c #3669D6",
"G  c #376BD7",
"H  c #306CDB",
"J  c #336EDC",
"K  c #3670DC",
"L  c #3973DC",
"P  c #3A77DF",
"I  c #3C75DD",
"U  c #3D76DE",
"Y  c #2261EE",
"T  c #2964E9",
"R  c #2462F0",
"E  c #3270F3",
"W  c #3377F5",
"Q  c #3976F4",
"!  c #397DF6",
"~  c #485BC8",
"^  c #4863CE",
"/  c #4160D7",
"(  c #4771D2",
")  c #566ACC",
"_  c #436AE0",
"`  c #4571E7",
"'  c #4A7FE1",
"]  c #4F78E7",
"[  c #427FF6",
"{  c #6075CA",
"}  c #717BC9",
"|  c #66BE31",
" . c #4684E4",
".. c #478CFC",
"X. c #4884F6",
"o. c #4594FF",
"O. c #4696FF",
"+. c #4796FF",
"@. c #4C99FF",
"#. c #4C9CFF",
"$. c #5788E3",
"%. c #518FE9",
"&. c #508AF8",
"*. c #5C94EB",
"=. c #5792FA",
"-. c #599CFF",
";. c #5F98FB",
":. c #6184DC",
">. c #6689DE",
",. c #668ADF",
"<. c #7786CF",
"1. c #7083D4",
"2. c #7289D8",
"3. c #728AD9",
"4. c #728BDA",
"5. c #658DED",
"6. c #6796E7",
"7. c #6493EA",
"8. c #6A93E6",
"9. c #6D90E3",
"0. c #6F94E4",
"q. c #6D9FED",
"w. c #659EFB",
"e. c #7397E6",
"r. c #759AE7",
"t. c #6FA1ED",
"y. c #6CA6FD",
"u. c #6DABFF",
"i. c #74A0EF",
"p. c #7DA3ED",
"a. c #7EA6ED",
"s. c #73ABFE",
"d. c #7AA4F1",
"f. c #7CA4F2",
"g. c #7EA4F5",
"h. c #7AB1F2",
"j. c #7AB5FF",
"k. c #7DB3FF",
"l. c #8089CC",
"z. c #828BD1",
"x. c #8E95D2",
"c. c #8F9EDF",
"v. c #9198D2",
"b. c #939DD6",
"n. c #979EDA",
"m. c #9FA4DB",
"M. c #81ABF4",
"N. c #84AEF6",
"B. c #85B2F6",
"V. c #86B0F6",
"C. c #85BBF6",
"Z. c #81BBFF",
"A. c #82BBFF",
"S. c #89B6FB",
"D. c #8FB5F9",
"F. c #8DBAF6",
"G. c #9DA7E0",
"H. c #97BFF8",
"J. c #98BAF3",
"K. c #A4A7CB",
"L. c #ABACCF",
"P. c #B0B1D1",
"I. c #B2B2D9",
"U. c #B4B4DB",
"Y. c #B8BAD6",
"T. c #B8B8DC",
"R. c #BCBCDE",
"E. c #A0B8E8",
"W. c #B2BAE3",
"Q. c #B5BAE0",
"!. c #BEBEE0",
"~. c #96C1F6",
"^. c #99CCFF",
"/. c #94D2FF",
"(. c #9CD2FF",
"). c #A1C7F9",
"_. c #ACC1F1",
"`. c #A2D3FE",
"'. c #A6DDFF",
"]. c #AED0F6",
"[. c #BCC0E4",
"{. c #BAC1E8",
"}. c #B0C8F6",
"|. c #B2D0F1",
" X c #B2DAFF",
".X c #BDD5FB",
"XX c #B8E5FF",
"oX c #BFE5FF",
"OX c #BEEAFF",
"+X c #BFEAFF",
"@X c #BEEEFF",
"#X c #C0C1DD",
"$X c #C1C1E1",
"%X c #C6C6E4",
"&X c #C2C8ED",
"*X c #CACBE3",
"=X c #C8C8E6",
"-X c #CBCBE7",
";X c #C8CEEC",
":X c #C8CFED",
">X c #CFCFE9",
",X c #CDD2EF",
"<X c #D3D3EB",
"1X c #D3D4E8",
"2X c #D2D4EB",
"3X c #D5D5ED",
"4X c #D7D9EE",
"5X c #D9D9EF",
"6X c #DCDDEF",
"7X c #D5DAF6",
"8X c #DCDCF1",
"9X c #DDDEF0",
"0X c #DEDFF0",
"qX c #DFDFF2",
"wX c #DCDFF6",
"eX c #DADFF9",
"rX c #C2EFFF",
"tX c #CBEEFF",
"yX c #C6F1FF",
"uX c #CCF5FF",
"iX c #D4E0FA",
"pX c #D7F2FF",
"aX c #D9F6FF",
"sX c #E3E3F4",
"dX c #E6E6F4",
"fX c #E6E6F6",
"gX c #E3E3F8",
"hX c #E5E5F9",
"jX c lavender",
"kX c #E8E8F8",
"lX c #EAEAFB",
"zX c #EEEEFD",
"xX c #EFEFFD",
"cX c #EFEFFE",
"vX c #E3F3FF",
"bX c #E7F6FF",
"nX c #E5FCFF",
"mX c #EFFEFF",
"MX c #F2F2FF",
"NX c #F0FEFF",
"BX c GhostWhite",
"VX c #FAFAFF",
"CX c #FCFCFF",
"ZX c gray100",
"AX c None",
/* pixels */
"AXAXAXAXAXAXAXAXAXAXAXAXAXAXAXAXAXAXAXAXAXAX",
"AXAXAXAXAXAXAX  | AXAXAXAXAXAXAXAXAXAXAXAXAX",
"AX  | AXAXAXAX  | AXAXAX6X  <.0XAXAXAXAXAXAX",
"AX    | AXAXAX  | AXAXT.  | iXv.AXAXAXAXAXAX",
"AXAX  | AXAXAX  | <Xx.  | lXxXn.[.AXAXAXAXAX",
"f t.q.  | *.t   | m.  | xXlXkXxX} 8XAXAXAXAX",
"U uXyX    | ~.  |   | MXcXlXkXhX&X<.;XAXAXAX",
"U uXyX@X    |   | | VXxXcXkXhXhXcXl.W.AXAXAX",
"L uXyX].b.      | CXBXMXcXlX7X>.>.:.n 4.4.4.",
"K uXyXE.,XZX    | CXBXcXcXeXc 7.N.N.M.d.M.O ",
"J uXyX`.( p.p.  | r.e.e.9.v q.k.O.o.#.g 7 / ",
"H uXyX%.6._..X  | ).H.F.B.D.A.@.O.O.! 2 & c.",
"Z uXyX0 bXiXvX  | XX^.A.u.-...W T 4 = 7 X ;X",
"C uXC. .NXaX|.  | k.w.&.Q R s w * $ 5 6 k AX",
"C uX .J.nXrX(.  | s.;.X.E d 1 , > % 5 3 1.AX",
"N +Xy NX+X'./.  | y.=.[ Y a p < > % 5 o {.AX",
"v h.$.pXtXoX X  | D.g.5.] ` / / m b l # AXAX",
"f P }.ZXZXZXVX  | dX8X5X3X-X=XR.R.U.{ ) AXAX",
"r y ZXZXZXZXZX  | kXsX8X3X>X=X$XR.U.h G.AXAX",
"; 8.ZXZXZXZXZX  | dX6X1X*X#XY.P.L.K.. AXAXAX",
"- N F F S S A   | x z h q 9 8 @ + O ~ AXAXAX",
"AXAXAXAXAXAXAX  | AXAXAXAXAXAXAXAXAXAXAXAXAX"
};
