/* XPM */
static const char *icon_close_mapset[] = {
/* columns rows colors chars-per-pixel */
"22 22 127 2",
"   c black",
".  c #2D2D4B",
"X  c #323250",
"o  c #343451",
"O  c #353552",
"+  c #353553",
"@  c #363654",
"#  c #383857",
"$  c #3A3A57",
"%  c #393958",
"&  c #3A3A59",
"*  c #3B3B5A",
"=  c #3E3E5B",
"-  c #3C3C5C",
";  c #3D3D5D",
":  c #3E3E5E",
">  c #3F3F5F",
",  c #41415E",
"<  c #414160",
"1  c #444463",
"2  c #454563",
"3  c #464665",
"4  c #474766",
"5  c #4C4C67",
"6  c #484868",
"7  c #494969",
"8  c #4A4A6A",
"9  c #4D4D6D",
"0  c #4E4E6E",
"q  c #54546F",
"w  c #525272",
"e  c #535373",
"r  c #555571",
"t  c #565671",
"y  c #545474",
"u  c #575777",
"i  c #585878",
"p  c #595979",
"a  c #5C5C79",
"s  c #5C5C7C",
"d  c #5D5D7D",
"f  c #60607F",
"g  c #616180",
"h  c #626281",
"j  c #636382",
"k  c #646483",
"l  c #656584",
"z  c #676786",
"x  c #6B6B8A",
"c  c #6E6E8C",
"v  c #70708E",
"b  c #727290",
"n  c #737391",
"m  c #777794",
"M  c #787895",
"N  c #7A7A97",
"B  c #7D7D99",
"V  c #7E7E9A",
"C  c #86879D",
"Z  c #87889D",
"A  c #88899D",
"S  c #88899E",
"D  c #898A9F",
"F  c #8585A0",
"G  c #8686A1",
"H  c #8989A3",
"J  c #8B8BA6",
"K  c #8B8CA1",
"L  c #8D8EA3",
"P  c #8D8EA5",
"I  c #8E8FA6",
"U  c #8F8FA9",
"Y  c #8F90A5",
"T  c #8F90A6",
"R  c #9091A6",
"E  c #9091A7",
"W  c #9090AA",
"Q  c #9292AC",
"!  c #9898B0",
"~  c #9999B1",
"^  c #9F9FB6",
"/  c #9F9FB7",
"(  c #A0A0B7",
")  c #A2A2B9",
"_  c #A8A8BD",
"`  c #AEAEC2",
"'  c #B3B3C6",
"]  c #B4B4C7",
"[  c #B7B7C8",
"{  c #B7B7C9",
"}  c #B7B8CB",
"|  c #B8B8C9",
" . c #B9B9CB",
".. c #BABACB",
"X. c #BABACC",
"o. c #BBBBCD",
"O. c #BDBDCE",
"+. c #BFBFD0",
"@. c #C0C0D0",
"#. c #C1C1D3",
"$. c #C2C2D2",
"%. c #C2C3D2",
"&. c #C1C2D4",
"*. c #C4C5D4",
"=. c #C5C5D4",
"-. c #C5C6D6",
";. c #C7C7D6",
":. c #C9C9D7",
">. c #CCCCDA",
",. c #CDCDDA",
"<. c #CECEDB",
"1. c #D3D3DF",
"2. c #D5D5E0",
"3. c #D6D6E1",
"4. c #DBDBE5",
"5. c #DCDCE5",
"6. c #DEDEE7",
"7. c #E0E0E8",
"8. c #E1E1E9",
"9. c #E3E3EB",
"0. c #E4E4EC",
"q. c #E6E6ED",
"w. c #EBEBF0",
"e. c #F3F3F6",
"r. c #F5F5F7",
"t. c #FEFEFF",
"y. c None",
/* pixels */
"y.y.y.y.y.y.y.y.y.y.y.y.y.y.y.y.y.y.y.y.y.y.",
"y.y.y.y.y.y.y.y.O.E I E I ..y.y.y.y.y.y.y.y.",
"y.y.y.y.y.y.E 2 - , 3 3 : % , L y.y.y.y.y.y.",
"y.y.y.y.&.a : n $.w.r.r.r.>.G % r $.y.y.y.y.",
"y.y.y.-.3 0 O.q.q.q.q.q.q.q.q.:.a : -.y.y.y.",
"y.y.y.a 0 O.3.1.3.3.3.1.3.3.3.3.>.p q y.y.y.",
"y.y.I : ^ -. .e.w.;.-.=.-. .t.4.-.' : L y.y.",
"y.y.2 h ' { e.t.t.0.' ' ' t.t.t.>.' n @ y.y.",
"y.{ - G ) ) 4.t.t.t.4.' t.t.t.0.V k w X  .y.",
"y.E < J W W E 3.t.t.t.t.t.t.7.a w w w @ A y.",
"y.I 3 V V V V V >.t.t.t.t.6.d w w w w < K y.",
"y.E 3 x x x x x ~ t.t.t.t.$.w w w w w > A y.",
"y.I : p p p p W t.t.t.t.t.t.$.w w w w + A y.",
"y...@ u w u U t.t.t.7.O.t.t.t.O.y w w . [ y.",
"y.y., 8 u x t.t.t.7.h u $.t.t.t.~ u 3 + y.y.",
"y.y.I % f k ^ t.q.c k k k -.t.:.k f X Z y.y.",
"y.y.y.r 8 v v ^ N c v c v v _ c v 3 5 y.y.y.",
"y.y.y.-.= 0 m V V V V V V V V m 8 X %.y.y.y.",
"y.y.y.y.-.q % z H H H H H H j @ 5 $.y.y.y.y.",
"y.y.y.y.y.y.L % @ 3 h h 3 X + C y.y.y.y.y.y.",
"y.y.y.y.y.y.y.y. .A A A A { y.y.y.y.y.y.y.y.",
"y.y.y.y.y.y.y.y.y.y.y.y.y.y.y.y.y.y.y.y.y.y."
};
