/* XPM */
static const char *icon_grass_region_edit[]={
"22 22 3 1",
". c None",
"# c #00c000",
"a c #303030",
"......................",
"......................",
".............##.......",
"...aaaaaaaaaa##aaaa#a.",
"...a.........##..a##a.",
"...a...#.....##..##.a.",
"...a...##....##.##..a.",
"...a....##...####a..a.",
"...a.....##..###.a..a.",
"...a......##.##.....a.",
"...a.......####.....a.",
"...a........###..a..a.",
"...a.........##..a..a.",
"...a.........##.....a.",
"...a.........##.....a.",
"...aaa..aa..a##.aa..a.",
"...a.........##.....a.",
"...a.........##.....a.",
"...a.........##.....a.",
"...a.........##.....a.",
"...aaaaaaaaaaaaaaaaaa.",
"......................"};
