/* XPM */
static const char *icon_new_vector_layer[] = {
/* columns rows colors chars-per-pixel */
"22 22 151 2",
"   c #2E7802",
".  c #66BE31",
"X  c #C87A3E",
"o  c #D3803A",
"O  c #DA9B64",
"+  c #D3A07A",
"@  c #E0994E",
"#  c #E59F4E",
"$  c #E39851",
"%  c #E19761",
"&  c #E4A55B",
"*  c #E9A75F",
"=  c #EEB14B",
"-  c #F1AA4D",
";  c #F0B354",
":  c #F2BA56",
">  c #F2BB5A",
",  c #F2BF5B",
"<  c #E4AB72",
"1  c #F5C358",
"2  c #F4C35D",
"3  c #F5C55D",
"4  c #F7CC5C",
"5  c #F6CD5E",
"6  c #F6CF5F",
"7  c #F7C861",
"8  c #F6CA62",
"9  c #F7CF66",
"0  c #F8CF64",
"q  c #F8CF68",
"w  c #F7D066",
"e  c #F9D467",
"r  c #FADA64",
"t  c #F9D969",
"y  c #FCDC6F",
"u  c #FCE279",
"i  c #FDE77C",
"p  c #FCEB7B",
"a  c #FCED7B",
"s  c #FDEF7D",
"d  c #8F959F",
"f  c #95A1BB",
"g  c #96A2BB",
"h  c #A5918F",
"j  c #A9ADB6",
"k  c #BCC1F1",
"l  c #C6AC9E",
"z  c #C8AA9C",
"x  c #D8A685",
"c  c #D1A195",
"v  c #D8AA9A",
"b  c #DEB299",
"n  c #CEB9B0",
"m  c #D5ABA8",
"M  c #D7B6B9",
"N  c #E3BEAF",
"B  c #EDC2A2",
"V  c #E0C2B8",
"C  c #E2C7B9",
"Z  c #FDEB82",
"A  c #FDED82",
"S  c #FEEF88",
"D  c #FDF182",
"F  c #FEF088",
"G  c #FEF488",
"H  c #FEF48A",
"J  c #FEF688",
"K  c #FEF789",
"L  c #FEF888",
"P  c #FEF988",
"I  c #FFFB91",
"U  c #FFFB92",
"Y  c #FFFE98",
"T  c #CAC7CF",
"R  c #C4C9D4",
"E  c #CCCDD7",
"W  c #CFD0D9",
"Q  c #D7CBCE",
"!  c #DEC9D0",
"~  c #CBCDF8",
"^  c #CBCCFF",
"/  c #CCCDFF",
"(  c #CECEFE",
")  c #CED4E4",
"_  c #CFD0FF",
"`  c #D6D9E8",
"'  c #DADBE6",
"]  c #D9DCEB",
"[  c #DADDEA",
"{  c #D0D3F6",
"}  c #D1D4F6",
"|  c #D2D3FD",
" . c #D3D4FE",
".. c #D5D5FF",
"X. c #D8D9FF",
"o. c #DBDBFE",
"O. c #DDDEFF",
"+. c #DEE0EE",
"@. c #E8D4CF",
"#. c #ECD8CA",
"$. c #EFDCDA",
"%. c #F4E4D8",
"&. c #EBE1E6",
"*. c #E0E1F0",
"=. c #E0E1F1",
"-. c #E0E2F0",
";. c #E1E2F1",
":. c #E2E3F1",
">. c #E3E4F2",
",. c #E3E7F6",
"<. c #E4E5F2",
"1. c #E4E5F3",
"2. c #E5E6F3",
"3. c #E2E3FE",
"4. c #E4E5FF",
"5. c #E5E6FF",
"6. c #E7E7FF",
"7. c #E7EAFA",
"8. c #ECEFF6",
"9. c #E9EBFE",
"0. c #EBEEFA",
"q. c #EBECFF",
"w. c #EDEDFF",
"e. c #EEEEFF",
"r. c #EFEFFF",
"t. c #EFF2FA",
"y. c #F5EFEC",
"u. c #F0F0FF",
"i. c #F1F1FF",
"p. c #F1F2FF",
"a. c #F2F2FE",
"s. c #F2F3FF",
"d. c #F3F3FF",
"f. c #F3F5FA",
"g. c #F3F6FA",
"h. c #F4F4FF",
"j. c #F5F5FF",
"k. c #F7F7FD",
"l. c #F6F6FF",
"z. c #F7F7FF",
"x. c GhostWhite",
"c. c #F9F9FF",
"v. c #FAFAFF",
"b. c #FAFBFF",
"n. c #FBFBFF",
"m. c #FCFBFB",
"M. c #FCFCFF",
"N. c #FDFDFF",
"B. c #FEFEFF",
"V. c gray100",
"C. c None",
/* pixels */
"C.C.C.j j j j j j j j j j j j C.C.C.C.C.C.C.",
"C.C.C.j g.V.  . V.v.i.6.O. .R j C.C.C.C.C.C.",
"  . C.j g.V.  . V.V.v.e.  o.R { j C.C.C.C.C.",
"    . j g.V.  . V.V.V.  . 3.R 6.~ j C.C.C.C.",
"C.  . j g.V.  . V.V.  . d.9.R ,.} k j C.C.C.",
"C.C.  . g.V.  . V.  . V.V.i.R R R R R j C.C.",
"C.C.    . V.  .   . V.V.V.V.v.i.^ ^ ^ f C.C.",
"C.C.C.    .   . . V.V.V.V.V.i...m c | f C.C.",
"C.C.C.j       . V.V.V.V.V.$.M o., 7 | h n C.",
"C.C.C.j 8.    . V.V.V.V.i.& s x 2 9 v u # C.",
"C.C.C.j 7.e.  . i.i.s.e.6.! 6 A 4 e p e l C.",
"C.C.C.j 0.d.  . i.e.e.q.N < $ r I I y X O b ",
"C.C.C.j 0.v.  . h.h.i.u.= P P K Y Y K S S - ",
"C.C.C.j g.V.  . v.v.d.h.&.V O p G G A X z Q ",
"C.C.C.j g.V.  . m.m.v.v.m.N p r 1 9 7 Z + C.",
"C.C.C.j g.V.  . V.V.V.V.m.* 6 C 3 9 @.: @ C.",
"C.C.C.j g.V.  . V.V.V.V.V.m.y.V.; : d.d T C.",
"C.C.C.j g.V.  . V.V.V.V.V.V.V.V.%.#.v.d C.C.",
"C.C.C.j g.V.  . V.V.V.V.V.V.V.V.V.V.V.d C.C.",
"C.C.C.j g.V.  . V.V.V.V.V.V.V.V.V.V.V.d C.C.",
"C.C.C.j g.V.  . V.V.V.V.V.V.V.V.V.V.V.d C.C.",
"C.C.C.j d d   . d d d d d d d d d d d d C.C."
};
