<svg enable-background="new 0 0 580 580" height="580" viewBox="0 0 580 580" width="580" xmlns="http://www.w3.org/2000/svg">
<path d="m204.782 386.69h16.633c.003 0 .006 0 .01 0 1.017.042 1.85-.82 1.85-1.84 0-.413-.136-.795-.366-1.102l-25.29-45.932h13.906c.628 0 1.213-.32 1.551-.85.338-.53.383-1.195.118-1.765l-76.933-165.71c-.323-.696-1.041-1.115-1.784-1.062-.751-.047-1.461.366-1.784 1.063l-76.817 165.71c-.264.569-.219 1.234.119 1.764.338.529.923.85 1.551.85h13.791l-25.408 46.146c-.314.57-.303 1.264.028 1.824.331.56.933.903 1.584.903h16.748l-30.282 50.106c-.369.61-.352 1.379.044 1.973s1.103.904 1.803.799l77.695-11.643v82.731c0 1.017.824 1.84 1.84 1.84h18.975c.039 0 .077-.001.115-.004.038.003.077.004.115.004h18.975c1.016 0 1.84-.823 1.84-1.84v-82.731l77.81 11.643c.091.014.183.021.273.021.006 0 .01 0 .02 0 1.016 0 1.84-.823 1.84-1.84 0-.438-.153-.842-.41-1.157z" fill="param(fill)" fill-opacity="param(fill-opacity)" stroke="param(outline)" stroke-opacity="param(outline-opacity)" stroke-width="param(outline-width)"/>
<path d="m399.336 128.447l-.328-.337-160.55 164.781-.758.777h32.672v212.402h97.049v-125.353h65.37v125.353h94.853v-212.402h32.67z" fill="param(fill)" fill-opacity="param(fill-opacity)" stroke="param(outline)" stroke-opacity="param(outline-opacity)" stroke-width="param(outline-width)"/>
</svg>
