<svg enable-background="new 0 0 580 580" height="580" viewBox="0 0 580 580" width="580" xmlns="http://www.w3.org/2000/svg">
<path d="m269.939 305.951c3.069 2.776 7.104 4.185 11.991 4.185 5.216 0 11.134-2.046 17.59-6.08l.836-.522-.781-.602c-6.047-4.651-13.907-11.544-23.361-20.486l-.407-.384-.458.321c-4.047 2.842-6.67 5.226-8.019 7.287-1.357 2.073-2.046 4.305-2.046 6.633 0 3.607 1.566 6.853 4.655 9.648z" fill="param(fill)" fill-opacity="param(fill-opacity)" stroke="param(outline)" stroke-opacity="param(outline-opacity)" stroke-width="param(outline-width)"/>
<path d="m285.799 258.768l.466-.254c3.76-2.046 6.711-4.312 8.772-6.732 2.114-2.483 3.187-4.892 3.187-7.159 0-2.395-.928-4.446-2.757-6.098-1.81-1.633-4.306-2.462-7.42-2.462-3.07 0-5.616.913-7.566 2.713-1.966 1.815-2.963 3.995-2.963 6.48 0 3.115 2.59 7.408 7.918 13.123z" fill="param(fill)" fill-opacity="param(fill-opacity)" stroke="param(outline)" stroke-opacity="param(outline-opacity)" stroke-width="param(outline-width)"/>
<path d="m182.433 261.415c2.091-1.838 3.151-4.507 3.151-7.932 0-3.193-1.062-5.733-3.154-7.548-2.093-1.816-5.563-2.699-10.609-2.699h-14.748v20.917h14.537c5.188-.001 8.729-.897 10.823-2.738z" fill="param(fill)" fill-opacity="param(fill-opacity)" stroke="param(outline)" stroke-opacity="param(outline-opacity)" stroke-width="param(outline-width)"/>
<path d="m425.98 285.335c-2.375-1.976-6.348-2.936-12.145-2.936h-16.856v22.252h16.927c5.707 0 9.648-1.009 12.05-3.085 2.396-2.071 3.611-4.884 3.611-8.357 0-3.246-1.206-5.895-3.587-7.874z" fill="param(fill)" fill-opacity="param(fill-opacity)" stroke="param(outline)" stroke-opacity="param(outline-opacity)" stroke-width="param(outline-width)"/>
<path d="m422.339 261.415c2.091-1.838 3.15-4.507 3.15-7.932 0-3.193-1.061-5.733-3.153-7.548-2.094-1.816-5.564-2.699-10.609-2.699h-14.747v20.917h14.536c5.189-.001 8.729-.897 10.823-2.738z" fill="param(fill)" fill-opacity="param(fill-opacity)" stroke="param(outline)" stroke-opacity="param(outline-opacity)" stroke-width="param(outline-width)"/>
<path d="m289.488 28.744l-259.967 229.683h52.756v294.603h156.264v-173.865h105.434l.001 173.865h152.723v-294.603h52.756zm-45.332 253.451c3.843-5.101 10.251-9.485 19.045-13.031l.867-.35-.595-.721c-3.69-4.474-6.257-8.403-7.631-11.677-1.364-3.251-2.056-6.604-2.056-9.965 0-7.068 2.733-12.972 8.125-17.548 5.425-4.604 13.816-6.939 24.94-6.939 11.36 0 19.801 2.218 25.087 6.593 5.247 4.342 7.908 9.606 7.908 15.644 0 3.389-.814 6.69-2.421 9.812-1.615 3.141-3.583 5.721-5.849 7.669-2.312 1.987-6.522 4.998-12.517 8.947l-.701.462.594.594c5.011 5.011 10.306 9.736 15.738 14.044l.661.524.377-.754c1.373-2.745 2.573-5.673 3.573-8.713l21.042 4.698c-1.088 3.758-2.145 6.827-3.145 9.131-1.063 2.448-2.588 5.381-4.534 8.717l-.32.55 11.3 7.754c1.159.745 2.626 1.628 4.368 2.628l-14.492 16.676c-2.638-1.426-5.401-3.078-8.222-4.915-3.02-1.965-5.761-3.674-8.147-5.078l-.368-.217-.356.235c-4.891 3.229-9.846 5.613-14.726 7.087-6.795 2.034-14.63 3.065-23.288 3.065-13.502 0-23.667-2.831-30.212-8.414-6.512-5.557-9.814-12.384-9.814-20.292.001-5.679 1.942-11.135 5.769-16.216zm-34.251-18.264c-2.44 2.801-6.079 5.053-10.817 6.693l-2.212.766 2.276.547c7.221 1.737 12.596 4.744 15.975 8.939 3.375 4.191 5.087 9.546 5.087 15.918 0 5.196-1.223 9.93-3.634 14.069-2.412 4.141-5.758 7.464-9.947 9.877-2.581 1.494-6.564 2.601-11.839 3.289-7.109.929-11.881 1.4-14.185 1.4h-54.3v-101.707h58.94c9.713 0 17.257 2.423 22.422 7.201 5.149 4.764 7.761 10.745 7.761 17.778.001 5.895-1.859 11.019-5.527 15.23zm239.907 0c-2.439 2.801-6.079 5.053-10.816 6.693l-2.212.766 2.275.547c7.221 1.737 12.596 4.744 15.975 8.939 3.375 4.191 5.087 9.546 5.087 15.918 0 5.196-1.223 9.93-3.634 14.069-2.412 4.142-5.758 7.464-9.946 9.877-2.581 1.494-6.564 2.601-11.84 3.289-7.108.929-11.881 1.4-14.185 1.4h-54.3v-101.707h58.94c9.713 0 17.257 2.423 22.422 7.201 5.149 4.764 7.761 10.746 7.761 17.778 0 5.895-1.86 11.019-5.527 15.23z" fill="param(fill)" fill-opacity="param(fill-opacity)" stroke="param(outline)" stroke-opacity="param(outline-opacity)" stroke-width="param(outline-width)"/>
<path d="m186.075 285.335c-2.375-1.976-6.348-2.936-12.145-2.936h-16.857v22.252h16.927c5.707 0 9.648-1.009 12.049-3.085 2.397-2.071 3.612-4.884 3.612-8.357.001-3.246-1.206-5.895-3.586-7.874z" fill="param(fill)" fill-opacity="param(fill-opacity)" stroke="param(outline)" stroke-opacity="param(outline-opacity)" stroke-width="param(outline-width)"/>
</svg>
