<?xml version="1.0" encoding="utf-8"?>
<!-- Generator: Adobe Illustrator 16.0.0, SVG Export Plug-In . SVG Version: 6.00 Build 0)  -->
<!DOCTYPE svg PUBLIC "-//W3C//DTD SVG 1.1//EN" "http://www.w3.org/Graphics/SVG/1.1/DTD/svg11.dtd">
<svg version="1.1"
	 id="svg2" xmlns:dc="http://purl.org/dc/elements/1.1/" xmlns:cc="http://creativecommons.org/ns#" xmlns:rdf="http://www.w3.org/1999/02/22-rdf-syntax-ns#" xmlns:svg="http://www.w3.org/2000/svg" xmlns:sodipodi="http://sodipodi.sourceforge.net/DTD/sodipodi-0.dtd" xmlns:inkscape="http://www.inkscape.org/namespaces/inkscape" inkscape:output_extension="org.inkscape.output.svg.inkscape" sodipodi:docbase="s:\Data\FacilityIcons" sodipodi:docname="accommodation_hotel2.svg" inkscape:version="0.46" sodipodi:version="0.32"
	 xmlns="http://www.w3.org/2000/svg" xmlns:xlink="http://www.w3.org/1999/xlink" x="0px" y="0px" width="580px" height="580px"
	 viewBox="0 0 580 580" enable-background="new 0 0 580 580" xml:space="preserve">
<sodipodi:namedview  showgrid="false" inkscape:cy="281.19503" inkscape:cx="331.95305" inkscape:zoom="0.92167712" pagecolor="#ffffff" bordercolor="#666666" guidetolerance="10.0" objecttolerance="10.0" gridtolerance="10.0" borderopacity="1.0" id="base" inkscape:current-layer="svg2" inkscape:window-y="25" inkscape:window-x="91" inkscape:pageopacity="0.0" inkscape:pageshadow="2" inkscape:window-height="947" inkscape:window-width="1048">
	</sodipodi:namedview>
<defs>
	
	
		<inkscape:perspective  inkscape:vp_z="580 : 290 : 1" inkscape:vp_y="0 : 1000 : 0" inkscape:vp_x="0 : 290 : 1" sodipodi:type="inkscape:persp3d" id="perspective2441" inkscape:persp3d-origin="290 : 193.33333 : 1">
		</inkscape:perspective>
	
		<inkscape:perspective  inkscape:vp_z="60 : 30 : 1" inkscape:vp_y="0 : 1000 : 0" inkscape:vp_x="0 : 30 : 1" sodipodi:type="inkscape:persp3d" id="perspective3452" inkscape:persp3d-origin="30 : 20 : 1">
		</inkscape:perspective>
	
		<inkscape:perspective  inkscape:vp_z="744.09448 : 526.18109 : 1" inkscape:vp_y="0 : 1000 : 0" inkscape:vp_x="0 : 526.18109 : 1" sodipodi:type="inkscape:persp3d" id="perspective4471" inkscape:persp3d-origin="372.04724 : 350.78739 : 1">
		</inkscape:perspective>
	
		<inkscape:perspective  inkscape:vp_z="12 : 6 : 1" inkscape:vp_y="0 : 1000 : 0" inkscape:vp_x="0 : 6 : 1" sodipodi:type="inkscape:persp3d" id="perspective4668" inkscape:persp3d-origin="6 : 4 : 1">
		</inkscape:perspective>
	
		<inkscape:perspective  inkscape:vp_z="32 : 16 : 1" inkscape:vp_y="0 : 1000 : 0" inkscape:vp_x="0 : 16 : 1" sodipodi:type="inkscape:persp3d" id="perspective4904" inkscape:persp3d-origin="16 : 10.666667 : 1">
		</inkscape:perspective>
</defs>
<g id="layer3" transform="matrix(48.14969,0,0,48.14969,-536.27327,-33.306752)" inkscape:label="Layout" display="none">
	<rect id="rect4134" x="1" y="1" display="inline" fill="none" stroke="#757575" stroke-width="0.1" width="10" height="10"/>
	<rect id="rect4136" x="2" y="2" display="inline" fill="none" stroke="#757575" stroke-width="0.1" width="8" height="8"/>
</g>
<path fill="param(fill)" fill-opacity="param(fill-opacity)" stroke="param(outline)" stroke-opacity="param(outline-opacity)" stroke-width="param(outline-width)" d="M537.344,251.464c-0.12-0.002-0.239-0.003-0.358-0.003
	c-9.729,0-17.713,7.792-17.904,17.563l-1.285,65.525l-454.115-3.027l1.778-138.693c0.127-9.893-7.791-18.016-17.684-18.143
	c-0.078-0.001-0.156-0.001-0.234-0.001c-9.786,0-17.782,7.87-17.908,17.685l-3.199,249.522c-0.127,9.893,7.791,18.016,17.684,18.143
	c0.078,0.001,0.156,0.001,0.234,0.001c9.786,0,17.782-7.87,17.908-17.685l0.962-75.003l453.872,3.026l-1.212,61.799
	c-0.194,9.893,7.668,18.068,17.56,18.263c0.12,0.002,0.239,0.004,0.358,0.004c9.729,0,17.713-7.792,17.904-17.563l3.199-163.15
	C555.098,259.834,547.235,251.658,537.344,251.464z"/>
<path fill="param(fill)" fill-opacity="param(fill-opacity)" stroke="param(outline)" stroke-opacity="param(outline-opacity)" stroke-width="param(outline-width)" d="M255.485,323.566H463.42c23.707,0,42.994-19.287,42.994-42.995
	c0-23.707-19.287-42.994-42.994-42.994H255.485c-23.708,0-42.995,19.287-42.995,42.994
	C212.49,304.279,231.777,323.566,255.485,323.566z"/>
<path fill="param(fill)" fill-opacity="param(fill-opacity)" stroke="param(outline)" stroke-opacity="param(outline-opacity)" stroke-width="param(outline-width)" d="M161.91,230.538h0.015c9.604-0.003,18.637-3.324,25.437-9.349
	c6.839-6.06,10.604-14.127,10.6-22.74c-0.008-17.667-16.18-32.039-36.065-32.039c-9.603,0.003-18.637,3.324-25.437,9.349
	c-6.839,6.06-10.604,14.127-10.6,22.74C125.867,216.165,142.04,230.538,161.91,230.538z M161.91,229.387L161.91,229.387
	L161.91,229.387L161.91,229.387z"/>
<path fill="param(fill)" fill-opacity="param(fill-opacity)" stroke="param(outline)" stroke-opacity="param(outline-opacity)" stroke-width="param(outline-width)" d="M94.731,319.279h89.572c12.083,0,21.914-9.83,21.914-21.913
	s-9.831-21.914-21.914-21.914H94.731c-12.083,0-21.913,9.831-21.913,21.914S82.648,319.279,94.731,319.279z"/>
</svg>
