<?xml version="1.0" encoding="utf-8"?>
<!-- Generator: Adobe Illustrator 16.0.0, SVG Export Plug-In . SVG Version: 6.00 Build 0)  -->
<!DOCTYPE svg PUBLIC "-//W3C//DTD SVG 1.1//EN" "http://www.w3.org/Graphics/SVG/1.1/DTD/svg11.dtd">
<svg version="1.1"
	 id="svg2" xmlns:dc="http://purl.org/dc/elements/1.1/" xmlns:cc="http://creativecommons.org/ns#" xmlns:rdf="http://www.w3.org/1999/02/22-rdf-syntax-ns#" xmlns:svg="http://www.w3.org/2000/svg" xmlns:sodipodi="http://sodipodi.sourceforge.net/DTD/sodipodi-0.dtd" xmlns:inkscape="http://www.inkscape.org/namespaces/inkscape" inkscape:output_extension="org.inkscape.output.svg.inkscape" sodipodi:docbase="s:\Data\FacilityIcons" sodipodi:docname="accommodation_youth_hostel.svg" inkscape:version="0.46" sodipodi:version="0.32"
	 xmlns="http://www.w3.org/2000/svg" xmlns:xlink="http://www.w3.org/1999/xlink" x="0px" y="0px" width="580px" height="580px"
	 viewBox="0 0 580 580" enable-background="new 0 0 580 580" xml:space="preserve">
<sodipodi:namedview  showgrid="false" inkscape:cy="981.98023" inkscape:cx="506.34091" inkscape:zoom="0.23041928" pagecolor="#ffffff" bordercolor="#666666" guidetolerance="10.0" objecttolerance="10.0" gridtolerance="10.0" borderopacity="1.0" id="base" inkscape:current-layer="svg2" inkscape:window-y="20" inkscape:window-x="0" inkscape:pageopacity="0.0" inkscape:pageshadow="2" inkscape:window-height="1003" inkscape:window-width="1400">
	</sodipodi:namedview>
<defs>
	
	
		<inkscape:perspective  inkscape:vp_z="580 : 290 : 1" inkscape:vp_y="0 : 1000 : 0" inkscape:vp_x="0 : 290 : 1" sodipodi:type="inkscape:persp3d" id="perspective2441" inkscape:persp3d-origin="290 : 193.33333 : 1">
		</inkscape:perspective>
	
		<inkscape:perspective  inkscape:vp_z="744.09448 : 526.18109 : 1" inkscape:vp_y="0 : 1000 : 0" inkscape:vp_x="0 : 526.18109 : 1" sodipodi:type="inkscape:persp3d" id="perspective2466" inkscape:persp3d-origin="372.04724 : 350.78739 : 1">
		</inkscape:perspective>
	
		<inkscape:perspective  inkscape:vp_z="744.09448 : 526.18109 : 1" inkscape:vp_y="0 : 1000 : 0" inkscape:vp_x="0 : 526.18109 : 1" sodipodi:type="inkscape:persp3d" id="perspective3333" inkscape:persp3d-origin="372.04724 : 350.78739 : 1">
		</inkscape:perspective>
	
		<inkscape:perspective  inkscape:vp_z="744.09448 : 526.18109 : 1" inkscape:vp_y="0 : 1000 : 0" inkscape:vp_x="0 : 526.18109 : 1" sodipodi:type="inkscape:persp3d" id="perspective3401" inkscape:persp3d-origin="372.04724 : 350.78739 : 1">
		</inkscape:perspective>
	
		<inkscape:perspective  inkscape:vp_z="744.09448 : 526.18109 : 1" inkscape:vp_y="0 : 1000 : 0" inkscape:vp_x="0 : 526.18109 : 1" sodipodi:type="inkscape:persp3d" id="perspective3464" inkscape:persp3d-origin="372.04724 : 350.78739 : 1">
		</inkscape:perspective>
	
		<inkscape:perspective  inkscape:vp_z="450 : 225 : 1" inkscape:vp_y="0 : 1000 : 0" inkscape:vp_x="0 : 225 : 1" sodipodi:type="inkscape:persp3d" id="perspective3581" inkscape:persp3d-origin="225 : 150 : 1">
		</inkscape:perspective>
	
		<inkscape:perspective  inkscape:vp_z="450 : 225 : 1" inkscape:vp_y="0 : 1000 : 0" inkscape:vp_x="0 : 225 : 1" sodipodi:type="inkscape:persp3d" id="perspective4312" inkscape:persp3d-origin="225 : 150 : 1">
		</inkscape:perspective>
	
		<inkscape:perspective  inkscape:vp_z="744.09448 : 526.18109 : 1" inkscape:vp_y="0 : 1000 : 0" inkscape:vp_x="0 : 526.18109 : 1" sodipodi:type="inkscape:persp3d" id="perspective8860" inkscape:persp3d-origin="372.04724 : 350.78739 : 1">
		</inkscape:perspective>
	
		<inkscape:perspective  inkscape:vp_z="744.09448 : 526.18109 : 1" inkscape:vp_y="0 : 1000 : 0" inkscape:vp_x="0 : 526.18109 : 1" sodipodi:type="inkscape:persp3d" id="perspective8887" inkscape:persp3d-origin="372.04724 : 350.78739 : 1">
		</inkscape:perspective>
	
		<inkscape:perspective  inkscape:vp_z="32 : 16 : 1" inkscape:vp_y="0 : 1000 : 0" inkscape:vp_x="0 : 16 : 1" sodipodi:type="inkscape:persp3d" id="perspective4904" inkscape:persp3d-origin="16 : 10.666667 : 1">
		</inkscape:perspective>
	
		<inkscape:perspective  inkscape:vp_z="12 : 6 : 1" inkscape:vp_y="0 : 1000 : 0" inkscape:vp_x="0 : 6 : 1" sodipodi:type="inkscape:persp3d" id="perspective4668" inkscape:persp3d-origin="6 : 4 : 1">
		</inkscape:perspective>
	
		<inkscape:perspective  inkscape:vp_z="744.09448 : 526.18109 : 1" inkscape:vp_y="0 : 1000 : 0" inkscape:vp_x="0 : 526.18109 : 1" sodipodi:type="inkscape:persp3d" id="perspective4471" inkscape:persp3d-origin="372.04724 : 350.78739 : 1">
		</inkscape:perspective>
	
		<inkscape:perspective  inkscape:vp_z="60 : 30 : 1" inkscape:vp_y="0 : 1000 : 0" inkscape:vp_x="0 : 30 : 1" sodipodi:type="inkscape:persp3d" id="perspective3452" inkscape:persp3d-origin="30 : 20 : 1">
		</inkscape:perspective>
	
		<inkscape:perspective  inkscape:vp_z="580 : 290 : 1" inkscape:vp_y="0 : 1000 : 0" inkscape:vp_x="0 : 290 : 1" sodipodi:type="inkscape:persp3d" id="perspective9479" inkscape:persp3d-origin="290 : 193.33333 : 1">
		</inkscape:perspective>
</defs>
<g id="layer3" transform="matrix(48.14969,0,0,48.14969,-1210.2219,-51.870914)" inkscape:label="Layout" display="none">
	<rect id="rect4134" x="1" y="1" display="inline" fill="none" stroke="#757575" stroke-width="0.1" width="10" height="10"/>
	<rect id="rect4136" x="2" y="2" display="inline" fill="none" stroke="#757575" stroke-width="0.1" width="8" height="8"/>
</g>
<path fill="param(fill) #000" stroke="param(outline) #FFF" stroke-width="param(outline-width) 0" d="M204.782,386.69h16.633c0.003,0,0.006,0,0.01,0
	c1.017,0.042,1.85-0.82,1.85-1.84c0-0.413-0.136-0.795-0.366-1.102l-25.29-45.932h13.906c0.628,0,1.213-0.32,1.551-0.85
	c0.338-0.53,0.383-1.195,0.118-1.765l-76.933-165.71c-0.323-0.696-1.041-1.115-1.784-1.062c-0.751-0.047-1.461,0.366-1.784,1.063
	l-76.817,165.71c-0.264,0.569-0.219,1.234,0.119,1.764c0.338,0.529,0.923,0.85,1.551,0.85h13.791l-25.408,46.146
	c-0.314,0.57-0.303,1.264,0.028,1.824c0.331,0.56,0.933,0.903,1.584,0.903h16.748l-30.282,50.106
	c-0.369,0.61-0.352,1.379,0.044,1.973s1.103,0.904,1.803,0.799l77.695-11.643v82.731c0,1.017,0.824,1.84,1.84,1.84h18.975
	c0.039,0,0.077-0.001,0.115-0.004c0.038,0.003,0.077,0.004,0.115,0.004h18.975c1.016,0,1.84-0.823,1.84-1.84v-82.731l77.81,11.643
	c0.091,0.014,0.183,0.021,0.273,0.021c0.006,0,0.01,0,0.02,0c1.016,0,1.84-0.823,1.84-1.84c0-0.438-0.153-0.842-0.41-1.157
	L204.782,386.69z"/>
<polygon fill="param(fill) #FFF" stroke="param(outline) #000" stroke-width="param(outline-width) 1" points="399.336,128.447 399.008,128.11 238.458,292.891 
	237.7,293.668 270.372,293.668 270.372,506.07 367.421,506.07 367.421,380.717 432.791,380.717 432.791,506.07 527.644,506.07 
	527.644,293.668 560.314,293.668 "/>
</svg>
