<?xml version="1.0" encoding="utf-8"?>
<!-- Generator: Adobe Illustrator 16.0.0, SVG Export Plug-In . SVG Version: 6.00 Build 0)  -->
<!DOCTYPE svg PUBLIC "-//W3C//DTD SVG 1.1//EN" "http://www.w3.org/Graphics/SVG/1.1/DTD/svg11.dtd">
<svg version="1.1"
	 id="svg2" xmlns:dc="http://purl.org/dc/elements/1.1/" xmlns:cc="http://creativecommons.org/ns#" xmlns:rdf="http://www.w3.org/1999/02/22-rdf-syntax-ns#" xmlns:svg="http://www.w3.org/2000/svg" xmlns:sodipodi="http://sodipodi.sourceforge.net/DTD/sodipodi-0.dtd" xmlns:inkscape="http://www.inkscape.org/namespaces/inkscape" inkscape:output_extension="org.inkscape.output.svg.inkscape" sodipodi:docbase="s:\Data\FacilityIcons" sodipodi:docname="caravan.svg" inkscape:version="0.46" sodipodi:version="0.32"
	 xmlns="http://www.w3.org/2000/svg" xmlns:xlink="http://www.w3.org/1999/xlink" x="0px" y="0px" width="580px" height="580px"
	 viewBox="0 0 580 580" enable-background="new 0 0 580 580" xml:space="preserve">
<sodipodi:namedview  showgrid="false" inkscape:cy="281.19503" inkscape:cx="301.5186" inkscape:zoom="0.92167712" pagecolor="#ffffff" bordercolor="#666666" guidetolerance="10.0" objecttolerance="10.0" gridtolerance="10.0" borderopacity="1.0" id="base" inkscape:current-layer="svg2" inkscape:window-y="25" inkscape:window-x="91" inkscape:pageopacity="0.0" inkscape:pageshadow="2" inkscape:window-height="947" inkscape:window-width="1048">
	</sodipodi:namedview>
<defs>
	
	
		<inkscape:perspective  inkscape:vp_z="580 : 290 : 1" inkscape:vp_y="0 : 1000 : 0" inkscape:vp_x="0 : 290 : 1" sodipodi:type="inkscape:persp3d" id="perspective2441" inkscape:persp3d-origin="290 : 193.33333 : 1">
		</inkscape:perspective>
	
		<inkscape:perspective  inkscape:vp_z="60 : 30 : 1" inkscape:vp_y="0 : 1000 : 0" inkscape:vp_x="0 : 30 : 1" sodipodi:type="inkscape:persp3d" id="perspective3452" inkscape:persp3d-origin="30 : 20 : 1">
		</inkscape:perspective>
	
		<inkscape:perspective  inkscape:vp_z="744.09448 : 526.18109 : 1" inkscape:vp_y="0 : 1000 : 0" inkscape:vp_x="0 : 526.18109 : 1" sodipodi:type="inkscape:persp3d" id="perspective4471" inkscape:persp3d-origin="372.04724 : 350.78739 : 1">
		</inkscape:perspective>
	
		<inkscape:perspective  inkscape:vp_z="12 : 6 : 1" inkscape:vp_y="0 : 1000 : 0" inkscape:vp_x="0 : 6 : 1" sodipodi:type="inkscape:persp3d" id="perspective4668" inkscape:persp3d-origin="6 : 4 : 1">
		</inkscape:perspective>
</defs>
<g id="layer3" transform="matrix(48.14969,0,0,48.14969,-536.27327,-33.306752)" inkscape:label="Layout" display="none">
	<rect id="rect4134" x="1" y="1" display="inline" fill="none" stroke="#757575" stroke-width="0.1" width="10" height="10"/>
	<rect id="rect4136" x="2" y="2" display="inline" fill="none" stroke="#757575" stroke-width="0.1" width="8" height="8"/>
</g>
<path fill="param(fill) #FFF" stroke="param(outline) #000" stroke-width="param(outline-width) 1" d="M529.607,383.164h-42.309V236.306
	c0-22.719-7.93-41.91-23.789-57.573c-15.859-15.662-34.952-23.493-57.276-23.494H131.322c-22.72,0-41.911,7.832-57.573,23.494
	c-15.662,15.663-23.493,34.854-23.493,57.573v103.977c0,16.445,5.874,30.542,17.622,42.29s25.845,17.623,42.29,17.623h94.583
	c1.171-16.84,7.828-31.134,19.971-42.883c12.143-11.748,26.831-17.621,44.064-17.621c16.839,0,31.426,5.873,43.76,17.621
	c12.334,11.749,18.896,25.846,19.685,42.291h213.815C546.046,388.644,540.565,383.164,529.607,383.164z M271.727,250.988
	c0,10.959-5.683,16.439-17.049,16.439H128.973c-10.971,0-16.457-5.479-16.457-16.439v-28.199c0-10.971,5.486-16.457,16.457-16.457
	h125.705c11.366,0,17.048,5.486,17.049,16.457V250.988z M437.372,250.396c0,11.354-5.479,17.031-16.438,17.031h-58.155
	c-10.972,0-16.458-5.677-16.457-17.031v-27.607c-0.001-10.971,5.485-16.457,16.457-16.457h58.155
	c10.959,0,16.438,5.486,16.438,16.457V250.396z"/>
<path fill="param(fill) #FFF" stroke="param(outline) #000" stroke-width="param(outline-width) 1" d="M268.786,357.904c-12.932,0-23.9,4.503-32.905,13.508
	c-9.006,9.006-13.508,19.969-13.508,32.888c0,12.537,4.502,23.309,13.508,32.313c9.005,9.006,19.973,13.508,32.905,13.508
	c12.525,0,23.293-4.502,32.305-13.508c9.011-9.005,13.517-19.776,13.518-32.313c-0.001-12.919-4.507-23.882-13.518-32.888
	C292.079,362.407,281.311,357.904,268.786,357.904z M282.877,418.399c-3.92,3.914-8.617,5.871-14.091,5.871
	c-5.486,0-10.186-1.957-14.1-5.871s-5.871-8.614-5.871-14.1c0-5.868,1.957-10.663,5.871-14.386c3.914-3.724,8.614-5.585,14.1-5.585
	c5.474,0,10.17,1.861,14.091,5.585c3.92,3.723,5.88,8.518,5.88,14.386C288.757,409.785,286.797,414.485,282.877,418.399z"/>
</svg>
