<svg enable-background="new 0 0 580 580" height="580" viewBox="0 0 580 580" width="580" xmlns="http://www.w3.org/2000/svg">
<path d="m529.607 383.164h-42.309v-146.858c0-22.719-7.93-41.91-23.789-57.573-15.859-15.662-34.952-23.493-57.276-23.494h-274.911c-22.72 0-41.911 7.832-57.573 23.494-15.662 15.663-23.493 34.854-23.493 57.573v103.977c0 16.445 5.874 30.542 17.622 42.29s25.845 17.623 42.29 17.623h94.583c1.171-16.84 7.828-31.134 19.971-42.883 12.143-11.748 26.831-17.621 44.064-17.621 16.839 0 31.426 5.873 43.76 17.621 12.334 11.749 18.896 25.846 19.685 42.291h213.815c0-10.96-5.481-16.44-16.439-16.44zm-257.88-132.176c0 10.959-5.683 16.439-17.049 16.439h-125.705c-10.971 0-16.457-5.479-16.457-16.439v-28.199c0-10.971 5.486-16.457 16.457-16.457h125.705c11.366 0 17.048 5.486 17.049 16.457zm165.645-.592c0 11.354-5.479 17.031-16.438 17.031h-58.155c-10.972 0-16.458-5.677-16.457-17.031v-27.607c-.001-10.971 5.485-16.457 16.457-16.457h58.155c10.959 0 16.438 5.486 16.438 16.457z" fill="param(fill)" fill-opacity="param(fill-opacity)" stroke="param(outline)" stroke-opacity="param(outline-opacity)" stroke-width="param(outline-width)"/>
<path d="m268.786 357.904c-12.932 0-23.9 4.503-32.905 13.508-9.006 9.006-13.508 19.969-13.508 32.888 0 12.537 4.502 23.309 13.508 32.313 9.005 9.006 19.973 13.508 32.905 13.508 12.525 0 23.293-4.502 32.305-13.508 9.011-9.005 13.517-19.776 13.518-32.313-.001-12.919-4.507-23.882-13.518-32.888-9.012-9.005-19.78-13.508-32.305-13.508zm14.091 60.495c-3.92 3.914-8.617 5.871-14.091 5.871-5.486 0-10.186-1.957-14.1-5.871s-5.871-8.614-5.871-14.1c0-5.868 1.957-10.663 5.871-14.386 3.914-3.724 8.614-5.585 14.1-5.585 5.474 0 10.17 1.861 14.091 5.585 3.92 3.723 5.88 8.518 5.88 14.386 0 5.486-1.96 10.186-5.88 14.1z" fill="param(fill)" fill-opacity="param(fill-opacity)" stroke="param(outline)" stroke-opacity="param(outline-opacity)" stroke-width="param(outline-width)"/>
</svg>
