<svg enable-background="new 0 0 580 580" height="580" viewBox="0 0 580 580" width="580" xmlns="http://www.w3.org/2000/svg">
<path d="m55.84 162.446c2.457 0 4.914-.938 6.789-2.812l78.853-78.853c3.749-3.749 3.749-9.828 0-13.577-3.75-3.75-9.828-3.75-13.577 0l-78.853 78.853c-3.749 3.749-3.749 9.828 0 13.577 1.874 1.875 4.331 2.812 6.788 2.812z" fill="param(fill)" fill-opacity="param(fill-opacity)" stroke="param(outline)" stroke-opacity="param(outline-opacity)" stroke-width="param(outline-width)"/>
<path d="m162.573 132.461c2.457 0 4.914-.938 6.789-2.812l78.853-78.853c3.749-3.749 3.749-9.828 0-13.577-3.75-3.75-9.828-3.749-13.577 0l-78.853 78.853c-3.749 3.749-3.749 9.828 0 13.577 1.875 1.875 4.331 2.812 6.788 2.812z" fill="param(fill)" fill-opacity="param(fill-opacity)" stroke="param(outline)" stroke-opacity="param(outline-opacity)" stroke-width="param(outline-width)"/>
<path d="m121.415 177.314c-3.749-3.749-9.828-3.749-13.577 0l-61.881 61.881c-3.749 3.749-3.749 9.828 0 13.577 1.875 1.875 4.332 2.812 6.789 2.812s4.914-.938 6.789-2.812l61.881-61.881c3.748-3.749 3.748-9.828-.001-13.577z" fill="param(fill)" fill-opacity="param(fill-opacity)" stroke="param(outline)" stroke-opacity="param(outline-opacity)" stroke-width="param(outline-width)"/>
<path d="m190.219 190.682c1.875 1.875 4.332 2.812 6.789 2.812 2.457 0 4.914-.938 6.789-2.812l78.853-78.853c3.749-3.749 3.749-9.828 0-13.577-3.75-3.75-9.828-3.75-13.577 0l-78.853 78.853c-3.75 3.749-3.75 9.828-.001 13.577z" fill="param(fill)" fill-opacity="param(fill-opacity)" stroke="param(outline)" stroke-opacity="param(outline-opacity)" stroke-width="param(outline-width)"/>
<path d="m371.115 173.586c1.874 1.875 4.331 2.812 6.788 2.812s4.914-.938 6.788-2.812l78.854-78.853c3.75-3.749 3.75-9.828 0-13.577-3.748-3.75-9.828-3.749-13.576 0l-78.854 78.853c-3.75 3.749-3.75 9.827 0 13.577z" fill="param(fill)" fill-opacity="param(fill-opacity)" stroke="param(outline)" stroke-opacity="param(outline-opacity)" stroke-width="param(outline-width)"/>
<path d="m487.86 146.446c2.397 0 4.798-.893 6.661-2.688l58.346-56.225c3.817-3.679 3.93-9.757.251-13.575-3.681-3.818-9.756-3.93-13.575-.251l-58.346 56.225c-3.817 3.679-3.93 9.757-.251 13.575 1.885 1.955 4.398 2.939 6.914 2.939z" fill="param(fill)" fill-opacity="param(fill-opacity)" stroke="param(outline)" stroke-opacity="param(outline-opacity)" stroke-width="param(outline-width)"/>
<path d="m555.195 151.088c-3.703-3.792-9.781-3.867-13.576-.161l-60.468 59.053c-3.793 3.705-3.865 9.783-.16 13.576 1.881 1.926 4.373 2.893 6.869 2.893 2.418 0 4.84-.909 6.707-2.732l60.468-59.053c3.793-3.704 3.865-9.783.16-13.576z" fill="param(fill)" fill-opacity="param(fill-opacity)" stroke="param(outline)" stroke-opacity="param(outline-opacity)" stroke-width="param(outline-width)"/>
<path d="m440.24 178.445l-27.231 25.11c-3.898 3.594-4.145 9.668-.55 13.566 1.893 2.052 4.473 3.092 7.06 3.092 2.327 0 4.661-.841 6.506-2.543l27.231-25.11c3.898-3.594 4.145-9.668.55-13.566-3.595-3.898-9.67-4.143-13.566-.549z" fill="param(fill)" fill-opacity="param(fill-opacity)" stroke="param(outline)" stroke-opacity="param(outline-opacity)" stroke-width="param(outline-width)"/>
<path d="m314.713 166.907c2.398 0 4.799-.893 6.662-2.688l39.253-37.838c3.817-3.68 3.929-9.758.249-13.575-3.682-3.818-9.757-3.928-13.575-.25l-39.253 37.838c-3.817 3.68-3.929 9.758-.249 13.575 1.885 1.954 4.397 2.938 6.913 2.938z" fill="param(fill)" fill-opacity="param(fill-opacity)" stroke="param(outline)" stroke-opacity="param(outline-opacity)" stroke-width="param(outline-width)"/>
<path d="m324.23 90.496c2.506 0 5.009-.975 6.891-2.915l46.324-47.739c3.692-3.805 3.602-9.883-.204-13.575-3.806-3.693-9.885-3.6-13.575.204l-46.324 47.739c-3.692 3.805-3.602 9.883.204 13.575 1.865 1.81 4.276 2.711 6.684 2.711z" fill="param(fill)" fill-opacity="param(fill-opacity)" stroke="param(outline)" stroke-opacity="param(outline-opacity)" stroke-width="param(outline-width)"/>
<path d="m509.263 307.088l-209.405-111.684c-3.154-1.683-6.942-1.683-10.098 0l-209.405 111.684c-2.999 1.599-5.062 4.524-5.563 7.886s.62 6.761 3.022 9.165l13.951 13.963c3.043 3.047 7.615 3.977 11.61 2.364l41.128-16.62v203.266c0 6.249 5.066 11.315 11.316 11.315h26.897c6.25 0 11.316-5.066 11.316-11.315v-216.894l100.69-11.916 99.311 11.951v216.858c0 6.249 5.065 11.315 11.315 11.315h26.897c6.249 0 11.315-5.066 11.315-11.315v-203.518l42.617 17.189c1.301.524 2.662.779 4.012.779 2.825 0 5.6-1.117 7.657-3.212l14.021-14.277c2.37-2.413 3.463-5.802 2.95-9.145-.511-3.342-2.57-6.248-5.554-7.839z" fill="param(fill)" fill-opacity="param(fill-opacity)" stroke="param(outline)" stroke-opacity="param(outline-opacity)" stroke-width="param(outline-width)"/>
</svg>
