/* XPM */
static const char *icon[]={
"22 22 234 2",
"Qt c None",
".L c #b40000",
".V c #ba0000",
".B c #bc0000",
"bH c #bc5300",
"br c #bd5400",
".t c #c50000",
".l c #cd0000",
"am c #d26400",
".e c #d60000",
"be c #7c0000",
"bN c #b95000",
"a8 c #7c0000",
"#1 c #840000",
"#0 c #8e0000",
"#N c #970000",
"#y c #9f0000",
"#k c #a80000",
".7 c #b00000",
"aU c #c85c00",
"bq c #7c0000",
"bz c #7c0000",
".W c #ac0000",
"bn c #c35800",
"bM c #b95000",
"ax c #cf6200",
".# c #e00000",
"aw c #7c0000",
"al c #7d0000",
"aa c #830000",
".X c #ac0000",
"bA c #bb5200",
".K c #c00000",
"ab c #7c0000",
"bL c #b85000",
"a9 c #c55a00",
"aJ c #cc5f00",
"#O c #8b0000",
"#z c #930000",
"#l c #9c0000",
".8 c #a50000",
"bG c #bc5300",
"a3 c #7c0000",
"bd c #c65a00",
"#2 c #840000",
"an c #921900",
"bK c #b85000",
"bi c #c25700",
".f c #d80000",
".Y c #ad0000",
".M c #b60000",
"bJ c #b85000",
".C c #bf0000",
"by c #bf5500",
".u c #c70000",
".m c #d00000",
".U c #b70000",
".a c #e30700",
"a7 c #850802",
"a2 c #850a05",
"#Z c #8d0a0c",
"#M c #940a0c",
"bh c #961909",
"#x c #9d0a0c",
"#j c #a50a0c",
".6 c #b30600",
"bI c #b74f00",
".A c #cb0600",
"ay c #d36c0f",
"#3 c #830000",
"aR c #840804",
"aB c #840905",
"aO c #8c201f",
"bp c #951a0d",
"aN c #952f2d",
"aq c #96190b",
"a1 c #9f2c00",
"aC c #a12e16",
"#L c #a38897",
"ar c #a42a10",
"af c #a61707",
"#i c #ac8e9c",
"ao c #ad361c",
"aA c #ad5f5d",
"ac c #ae351a",
"ag c #b22609",
"aZ c #b56d60",
"#w c #b7817c",
"#P c #b8371e",
"#7 c #b91503",
"aP c #b94725",
"#A c #bd3216",
"#8 c #c02202",
".9 c #c2250a",
"#m c #c22e0f",
"#v c #c2c2cf",
"bs c #c76504",
"bF c #c86700",
"#4 c #c9471a",
"#V c #cb1300",
"#W c #cd2103",
"#g c #d1d1da",
".4 c #d1d1db",
"#. c #d45337",
"#h c #d5bdb7",
"aT c #d65d29",
"bo c #d66435",
"aV c #d67809",
".s c #d91700",
".J c #d93c16",
"bm c #d98726",
".5 c #da744c",
"#I c #dd1404",
"a# c #dd8562",
"ak c #dd9881",
".Z c #dd9b9c",
".R c #dddde4",
"aS c #de6025",
"a4 c #de632b",
"bf c #de6833",
"aI c #de7e55",
"av c #de8a6a",
".2 c #dedee5",
".N c #df6e53",
"aK c #df8c23",
".3 c #dfc9c2",
"bE c #e19300",
"bx c #e29415",
".d c #e30600",
".k c #e32300",
".D c #e39b9c",
".g c #e5300b",
".v c #e56646",
"aQ c #e67237",
"bB c #e6a713",
"aY c #e6c8a4",
".1 c #e6e6ec",
".b c #e71700",
"#J c #e74c16",
"#c c #e75006",
"#b c #e78461",
".G c #e7e7ec",
".c c #e81d00",
".n c #e84c1c",
"#a c #e87c54",
"az c #e8b076",
"## c #e97344",
".T c #ea7039",
".Q c #ebc7b4",
"b. c #edac21",
".F c #ededf1",
"#Y c #ee610e",
"bD c #eeac00",
"aE c #ef702a",
".P c #f0c4aa",
".0 c #f0f0f3",
"#X c #f16914",
"#u c #f26b27",
".S c #f2bfa2",
".E c #f3f3f6",
"#d c #f47729",
"#K c #f4792c",
".O c #f4c4a8",
"#t c #f56b1e",
"#e c #f58138",
"#f c #f58844",
".H c #f5c7ad",
"#9 c #f66002",
".h c #f69968",
"a6 c #f7762a",
"aF c #f77b31",
"bg c #f77d37",
"ap c #f78340",
".w c #f7bf9d",
".x c #f7c9ae",
"aM c #f7ead0",
"#H c #f85f08",
"ah c #f86a11",
"#s c #f86c14",
"as c #f87625",
"ae c #f8782d",
"aD c #f88238",
".z c #f8a774",
"bc c #f8d28a",
"#6 c #f96c1a",
".y c #f9c7a8",
".o c #fabe98",
".I c #fabe99",
"#U c #fb6007",
"a. c #fb6c13",
".i c #fbcaaa",
"bC c #fbcb0d",
".p c #fbccae",
".r c #fbd1b7",
".q c #fbd3ba",
"#r c #fc8d48",
".j c #fcdac4",
"aL c #fceebf",
"#G c #fe6302",
"ai c #ff6b0e",
"#T c #ff6d12",
"at c #ff751e",
"#5 c #ff7a26",
"#S c #ff7e2d",
"#F c #ff8031",
"a5 c #ff8132",
"#B c #ff8133",
"#C c #ff8538",
"ad c #ff863a",
"#R c #ff863c",
"#n c #ff8a41",
"#Q c #ff8c47",
"aG c #ff9049",
"#D c #ff904a",
"au c #ff9350",
"#o c #ff9c5e",
"#E c #ff9d5e",
"aH c #ff9d5f",
"#p c #ffaa75",
"aj c #ffaa76",
"#q c #ffbb91",
"bj c #ffda3d",
"bw c #ffdc5d",
"bt c #ffe350",
"bu c #ffe86a",
"bv c #ffe876",
"bk c #ffeb7e",
"aW c #ffed9b",
"b# c #ffee92",
"bl c #fff0ae",
"ba c #fff1a6",
"aX c #fff4b9",
"bb c #fff7cc",
"a0 c #fff7e1",
"QtQtQtQtQtQtQtQtQtQtQtQtQtQtQtQtQt.#.a.b.c.d",
"QtQtQtQtQtQtQtQtQtQtQtQtQtQtQt.e.f.g.h.i.j.k",
"QtQtQtQtQtQtQtQtQtQtQtQtQtQt.l.m.n.o.p.q.r.s",
"QtQtQtQtQtQtQtQtQtQtQtQtQt.t.u.v.w.x.y.p.z.A",
"QtQtQtQtQtQtQtQtQtQtQtQt.B.C.D.E.F.G.H.I.J.K",
"QtQtQtQtQtQtQtQtQtQtQt.L.M.N.O.P.Q.R.S.T.U.V",
"QtQtQtQtQtQt.W.X.X.X.X.Y.Z.0.1.2.3.4.5.6.7Qt",
"QtQtQtQtQt.8.9#.###a#b#c#d#e#f#g#h#i#j#kQtQt",
"QtQtQtQt#l#m#n#o#p#q#r#s#t#u#e#v#w#x#yQtQtQt",
"QtQtQt#z#A#B#C#D#E#F#G#H#I#J#K#L#M#NQtQtQtQt",
"QtQt#O#P#Q#R#B#C#S#T#U#V#W#X#Y#Z#0QtQtQtQtQt",
"Qt#1#2#2#2#2#3#4#5#6#7#8#9a.a#aaQtQtQtQtQtQt",
"QtQtQtQtQtabacadaeafagahaiajakalQtQtQtQtQtQt",
"QtQtQtQtamanaoapaqarasatau#pavawQtQtQtQtQtQt",
"QtQtQtaxayazaAaBaCaDaEaFaGaHaIawQtQtQtQtQtQt",
"QtQtaJaKaLaMaNaOaPaQaRaS#C#DaTawQtQtQtQtQtQt",
"QtaUaVaWaXaYaZa0a1a2a3a4a5a6a7a8QtQtQtQtQtQt",
"Qta9b.b#baaXbbbcbdbeawbfbgbha8QtQtQtQtQtQtQt",
"Qtbibjbkb#bablbmbnQtawbobpbqQtQtQtQtQtQtQtQt",
"brbsbtbubvbwbxbyQtQtawaBbzQtQtQtQtQtQtQtQtQt",
"bAbBbCbDbEbFbGbHQtQtbzbzQtQtQtQtQtQtQtQtQtQt",
"bIbJbKbLbMbNQtQtQtQtQtQtQtQtQtQtQtQtQtQtQtQt"};
