<svg xmlns="http://www.w3.org/2000/svg" viewBox="0 0 600.00001 600.00001" width="600" height="600"><path d="M550.775 380.458V70.122c0-11.494-9.404-20.898-20.898-20.898H70.123c-11.495 0-20.899 9.404-20.899 20.898v310.336z" fill="#40596b"/><path fill="#c8d1dc" stroke="#40596b" stroke-width="3" d="M380.457 458.824l1.046 1.045 8.358 15.673 2.09 3.135 19.853 32.392H189.24l18.808-32.392 2.09-3.135 8.36-15.673 1.044-1.045z"/><path fill="#fff" d="M88.931 84.752h421.094v259.135H88.931z"/><path d="M417.029 511.07H182.972c-21.943 0-39.706 17.763-39.706 39.706h313.469c0-21.943-17.763-39.706-39.706-39.706z" fill="#d2d2d2" stroke="#000" stroke-width="3"/><path fill="#bcc9d4" stroke-width="3" stroke="#40596b" d="M380.457 458.824l1.046 1.045 8.358 15.673H210.138l8.36-15.673 1.044-1.045z"/><path d="M464.048 298.955c-4.18-13.584-9.404-27.167-15.673-38.66l13.584-31.348-45.976-47.02-31.347 13.584c-12.539-7.314-25.078-12.539-38.66-15.673l-12.54-32.394h-65.828l-13.583 32.392c-13.584 4.18-27.167 9.404-38.661 15.673l-31.347-13.584-45.976 47.02 13.584 31.347c-6.27 11.494-12.54 25.078-15.673 38.661l-32.392 12.54v32.391h115.984c0-5.224 1.044-10.449 2.09-16.718 1.045-3.135 1.045-5.224 2.09-7.314 2.09-7.314 5.224-13.584 9.404-19.853 1.045-1.045 1.045-2.09 2.09-3.135 2.09-3.135 5.224-6.269 8.359-9.404 4.18-4.18 7.314-7.314 11.494-9.404 1.045-1.045 3.135-2.09 4.18-2.09 1.045-1.045 2.09-1.045 3.135-2.09 4.18-2.09 9.403-4.18 13.583-5.224 2.09-1.045 5.224-1.045 7.314-2.09 10.45-2.09 21.943-2.09 32.392 0 3.135 1.045 5.224 1.045 7.314 2.09 5.225 1.045 9.405 3.135 13.585 5.224 2.09 1.045 3.135 2.09 5.224 3.135 5.224 3.135 10.449 7.314 14.629 11.494 2.09 2.09 4.18 5.224 6.269 7.314 1.045 2.09 3.135 3.135 4.18 5.224 4.18 6.27 7.314 13.584 9.404 19.853 1.045 2.09 1.045 5.224 2.09 7.314 1.045 5.226 2.09 10.45 2.09 16.719h115.984v-32.392z" fill="#84dbff"/><path d="M385.682 259.248c-47.02-47.02-124.343-47.02-171.363 0-24.033 24.033-35.527 54.335-35.527 85.682h40.75c0-5.224 1.046-10.449 2.09-16.718 1.046-2.09 1.046-5.224 2.09-7.314 2.09-7.314 5.225-13.584 9.405-19.853 1.045-1.045 1.045-2.09 2.09-3.135 2.09-3.135 5.224-6.269 8.359-9.404 4.18-4.18 7.314-7.314 11.494-9.404 1.045-1.045 3.135-2.09 4.18-2.09 1.045-1.045 2.09-2.09 3.135-2.09 4.18-2.09 9.404-4.18 13.584-5.224 2.09-1.044 5.224-2.09 7.314-2.09 10.449-2.09 21.943-2.09 32.392 0 2.09 1.046 5.224 1.046 7.314 2.09 5.224 1.046 9.404 3.136 13.584 5.225 2.09 1.045 3.135 2.09 5.224 3.135 5.224 3.135 10.449 7.314 14.629 11.494 2.09 2.09 4.18 5.224 6.269 7.314 1.045 2.09 3.135 3.135 4.18 5.225 4.18 6.269 7.314 13.584 9.404 19.853 1.045 2.09 1.045 5.224 2.09 7.314 1.045 5.224 2.09 10.449 2.09 16.718h40.75c0-32.392-11.494-63.74-35.527-86.727z" fill="#54c0eb"/><path d="M50.291 380.456v59.561c0 11.495 9.356 20.899 20.791 20.899h457.401c11.435 0 20.791-9.404 20.791-20.899v-59.561z" fill="#e1e1e1" stroke="#40596b" stroke-width="3"/><circle cx="300" cy="420.163" r="13.584" fill="#bec7d2" stroke="#40596b" stroke-width="3"/></svg>