<svg xmlns="http://www.w3.org/2000/svg" viewBox="0 0 68 68" width="68" height="68"><path d="M50 20.5l-4-10H22l-4 10H8.8A3.8 3.8 0 0 0 5 24.299v29.368A3.833 3.833 0 0 0 8.835 57.5h50.333a3.833 3.833 0 0 0 3.832-3.833V24.299A3.8 3.8 0 0 0 59.2 20.5z" fill="#7781a1" stroke="#38454f"/><circle cx="34.001" cy="36.5" r="17" fill="#424a60" stroke="#2b313d" stroke-width="2" stroke-linecap="round" stroke-miterlimit="10"/><circle cx="34.001" cy="36.5" r="11" fill="#7383bf"/><path fill="#38454f" d="M11.001 15.5h4v5h-4z"/><circle cx="56.001" cy="27.5" r="3" fill="#efce4a"/><path d="M37 36.5c0 3.595 1.419 6.778 3.6 8.785 2.668-2.007 4.4-5.19 4.4-8.785 0-3.595-1.732-6.778-4.4-8.785-2.181 2.007-3.6 5.19-3.6 8.785zM23 36.5c0 3.595 1.733 6.778 4.4 8.785 2.183-2.007 3.6-5.19 3.6-8.785 0-3.595-1.417-6.778-3.6-8.785-2.666 2.007-4.4 5.19-4.4 8.785z" fill="#879ad8"/><path d="M34 48.5c-6.616 0-12-5.383-12-12s5.384-12 12-12c6.618 0 12 5.383 12 12s-5.382 12-12 12zm0-22c-5.513 0-10 4.486-10 10s4.487 10 10 10c5.515 0 10-4.486 10-10s-4.485-10-10-10z" fill="#556080"/><circle cx="35.501" cy="33" r="3.5" fill="#4674e8"/><circle cx="33.001" cy="34.5" r="2" fill="#bf4d90"/><circle cx="30" cy="32.5" r="2" fill="#bccef7"/></svg>