<svg xmlns="http://www.w3.org/2000/svg" viewBox="0 0 519.99999 519.99999" width="520" height="520"><defs><filter id="a" x="-.012" width="1.024" y="-.012" height="1.024" color-interpolation-filters="sRGB"><feGaussianBlur stdDeviation="1.288"/></filter><filter id="b" x="-.012" width="1.024" y="-.012" height="1.024" color-interpolation-filters="sRGB"><feGaussianBlur stdDeviation=".394"/></filter></defs><path fill="#d5d6db" stroke="#000" stroke-width="4" d="M347.99 374.023l26.023-26.022-41.17-41.17-26.022 26.023z"/><path d="M415.922 481.03c17.837 18.053 47.166 18.324 65.272.218 18.161-18.162 17.89-47.49-.217-65.272-.488-.488-1.084-1.084-1.68-1.573l-92.157-74.367a7.666 7.666 0 0 0-10.28.508l-36.317 36.316a7.666 7.666 0 0 0-.51 10.278l74.318 92.21c.487.599 1.03 1.14 1.571 1.683z" fill="#3a556a"/><ellipse transform="scale(1 -1) rotate(16.887)" cx="134.091" cy="-250.988" rx="174.808" ry="174.814" fill="#64798a" stroke="#000" stroke-width="4"/><circle cx="318.792" cy="201.214" r="128.805" transform="matrix(-1 0 0 1 520 0)" fill="#b4e6e9" stroke="#000" stroke-width="2.5" filter="url(#a)"/><g transform="matrix(-1 0 0 1 494.693 26.358)" fill="#ebf0f3"><circle cx="300.83" cy="94.358" r="46.005"/><circle cx="271.452" cy="267.117" r="31.219"/></g><path d="M104.078 481.03c-17.837 18.053-47.166 18.324-65.272.218-18.161-18.162-17.89-47.49.217-65.272z" transform="matrix(-1 0 0 1 520 0)" fill="#64798a" stroke="#000" stroke-width="2" filter="url(#b)"/></svg>