<svg width="24" height="24" xmlns="http://www.w3.org/2000/svg"><path d="m7.08.879-.276.344-.0528.277v.000204l.129.421.344.276.277.0223v.0305h1.5l.421-.129.276-.344.0351-.439-.218-.383-.395-.195-.119-.00956h-1.5zm4.5 0-.276.344-.0353.439.218.383.395.195.119.00956h1.5l.421-.129.276-.344.0353-.439-.218-.383-.395-.195-.119-.00956h-1.5zm4.5 0-.276.344-.0351.439.218.383.395.195.119.00956h1.5l.421-.129.276-.344.0353-.439-.218-.383-.395-.195-.119-.00956h-1.5zm4.5 0-.276.344-.0351.439.218.383.395.195.119.00956h1.5l.421-.129.276-.344.0351-.439-.218-.383-.395-.195-.119-.00956h-1.5zm1.38 3.11-.195.395-.0096.119v1.5l.129.421.344.276.439.0353.383-.218.195-.395.00956-.119v-1.5l-.13-.421-.344-.276-.439-.0353zm-15 .000408-.195.395-.00957.119v1.5l.129.421.344.276.439.0351.383-.218.195-.395.00957-.119v-1.5l-.13-.421-.344-.276-.439-.0351zm15 4.5-.195.395-.0096.119v1.5l.129.421.344.276.439.0353.383-.218.195-.395.0096-.119v-1.5l-.13-.421-.344-.276-.439-.0351zm-15 .000204-.195.395-.00957.119v1.5l.129.421.344.276.439.0351.383-.218.195-.395.00957-.119v-1.5l-.13-.421-.344-.276-.439-.0351zm-2.88 1.39-.276.344-.0353.439.218.383.395.195.119.0096h1.5l.421-.129.276-.344.0351-.439-.217-.383-.395-.195-.119-.00956-1.5-.000204zm-3.12.106-.195.395-.00957.119v1.5l.13.421.344.276.439.0353.383-.218.195-.395.00957-.119v-1.5l-.129-.421-.344-.276-.439-.0351zm21 3l-.195.395-.0096.119v1.5l.129.421.344.276.439.0351.383-.218.195-.395.0096-.119v-1.5l-.13-.421-.344-.276-.439-.0351zm-21 1.5-.195.395-.00957.119v1.5l.13.421.344.276.439.0351.383-.218.195-.395.00957-.119v-1.5l-.129-.421-.344-.276-.439-.0351zm21 3-.195.395-.0096.119v1.5l.129.421.344.276.439.0351.383-.218.195-.395.0096-.119v-1.5l-.13-.421-.344-.276-.439-.0351zm-21 1.5-.195.395-.00957.119v1.5l.13.421.344.276.439.0351.383-.218.195-.395.00957-.119v-1.5l-.129-.421-.344-.276-.439-.0351zm6.12 2.89-.276.344-.0351.439.218.383.395.195.119.0096h1.5l.421-.13.276-.344.0353-.439-.218-.383-.395-.195-.119-.00957h-1.5zm4.5 0-.276.344-.0351.439.218.383.395.195.119.0096 1.5-.000204.421-.129.276-.344.0351-.439-.218-.383-.395-.195-.119-.0096h-1.5zm4.5 0-.276.344-.0351.439.218.383.395.195.119.0096h1.5l.421-.129.276-.344.0351-.439-.218-.383-.395-.195-.119-.0096h-1.5zm4.5-.000199-.276.344-.0353.439.218.383.395.195.119.0096h1.5l.421-.13.276-.344.053-.277v-.000204l-.13-.421-.344-.276-.277-.0223v-.0305h-1.5zm-18 .000199-.276.344-.0353.439.218.383.395.195.119.0096h1.5l.421-.13.276-.344.0353-.439-.218-.383-.395-.195-.119-.00937h-1.5z" color="#000000" color-rendering="auto" dominant-baseline="auto" fill="#f3e278" image-rendering="auto" shape-rendering="auto" solid-color="#000000" stroke="#000" stroke-linecap="round" stroke-linejoin="round" stroke-width=".8" style="font-feature-settings:normal;font-variant-alternates:normal;font-variant-caps:normal;font-variant-ligatures:normal;font-variant-numeric:normal;font-variant-position:normal;isolation:auto;mix-blend-mode:normal;shape-padding:0;text-decoration-color:#000000;text-decoration-line:none;text-decoration-style:solid;text-indent:0;text-orientation:mixed;text-transform:none;white-space:normal"/><path d="m10.3 9.24v3.55h2.98v5.65h3.22v-5.65h2.33v-1.35l-1.74-2.21z" fill="#ffa169" stroke="#000" stroke-linecap="round" stroke-linejoin="round" stroke-opacity=".973" stroke-width=".4"/><path d="m7.5 10.5v-9h15v21l-21 .000219v-12z" fill="none" stroke="#f3e278" stroke-dasharray="1.5, 3" stroke-linecap="round" stroke-linejoin="round" stroke-width="1.5"/></svg>
