/* XPM */
static char *zoom_out[]={
"16 16 4 1",
"b c None",
". c None",
"a c #000000",
"# c #ffffff",
".....#####......",
"...##aaaaa##....",
"..#.a.....a.#...",
".#.a.......a.#..",
".#a.........a#..",
"#a...........a#.",
"#a...........a#.",
"#a.aaaa#aaaa.a#.",
"#a...........a#.",
"#a...........a#.",
".#a.........a#..",
".#.a.......aaa#.",
"..#.a.....a#aaa#",
"...##aaaaa###aa#",
".....#####...###",
"..............#."};
