/* XPM */
static char *zoom_in2[]={
"16 16 3 1",
". c None",
"a c #000000",
"# c #ffffff",
".....#####......",
"...##aaaaa##....",
"..#.a.....a.#...",
".#.a...a...a.#..",
".#a....a....a#..",
"#a.....a.....a#.",
"#a.....a.....a#.",
"#a.aaaa#aaaa.a#.",
"#a.....a.....a#.",
"#a.....a.....a#.",
".#a....a....a#..",
".#.a...a...aaa#.",
"..#.a.....a#aaa#",
"...##aaaaa###aa#",
".....#####...###",
"..............#."};
