<svg height="16" viewBox="0 0 16 16" width="16" xmlns="http://www.w3.org/2000/svg" xmlns:xlink="http://www.w3.org/1999/xlink"><linearGradient id="a" gradientTransform="matrix(.65196 0 0 .6516 -26.896692 4.161213)" gradientUnits="userSpaceOnUse" x1="7.373" x2="7.449" y1="10" y2="15"><stop offset="0" stop-color="#6e97c4"/><stop offset="1" stop-color="#aec7e2"/></linearGradient><path d="m-25.592692 10.676213c-.87 9.558-.435 4.779 0 0z" fill="url(#a)"/><g fill="#e41a1c" fill-rule="evenodd"><path d="m13 4v2h1v-2z" stroke-width="1.41421"/><path d="m2 2v1h2v-1z" stroke-width="1.41422"/><path d="m5 2v1h2v-1z" stroke-width="1.41422"/><path d="m8 2v1h2v-1z" stroke-width="1.41422"/><path d="m11.000001 2v1h1.999999v-1z" stroke-width="1.41422"/><path d="m13 7v2h1v-2z" stroke-width="1.41421"/><path d="m13 10v2h1v-2z" stroke-width="1.41421"/><path d="m12.000001 13v1h1.999999v-1z" stroke-width="1.41422"/><path d="m9 13v1h1.999999v-1z" stroke-width="1.41422"/><path d="m6 13v1h1.999999v-1z" stroke-width="1.41422"/><path d="m3.000001 13v1h1.999999v-1z" stroke-width="1.41422"/><path d="m2 4v2h1v-2z" stroke-width="1.41421"/><path d="m2 7v2h1v-2z" stroke-width="1.41421"/><path d="m2 10v2h1v-2z" stroke-width="1.41421"/></g></svg>