/* XPM */
static const char * icon[] = {
"22 22 73 1",
" 	c None",
".	c #EAEAEA",
"+	c #E6E6E6",
"@	c #BDBDBD",
"#	c #909090",
"$	c #707070",
"%	c #818181",
"&	c #ADADAD",
"*	c #A7A7A7",
"=	c #6F6F6F",
"-	c #5F5F5F",
";	c #5D5D5D",
">	c #616161",
",	c #5E5E5E",
"'	c #626262",
")	c #656565",
"!	c #D4D4D4",
"~	c #808080",
"{	c #747474",
"]	c #6E6E6E",
"^	c #737373",
"/	c #8A8A8A",
"(	c #878787",
"_	c #6D6D6D",
":	c #676767",
"<	c #505050",
"[	c #4E4E4E",
"}	c #848484",
"|	c #1B1B1B",
"1	c #1F1F1F",
"2	c #242424",
"3	c #262626",
"4	c #2D2D2D",
"5	c #1D1D1D",
"6	c #1E1E1E",
"7	c #3C3C3C",
"8	c #3F3F3F",
"9	c #434343",
"0	c #4F4F4F",
"a	c #484848",
"b	c #2B2B2B",
"c	c #292929",
"d	c #3A3A3A",
"e	c #5B5B5B",
"f	c #494949",
"g	c #191919",
"h	c #212121",
"i	c #232323",
"j	c #282828",
"k	c #2C2C2C",
"l	c #222222",
"m	c #3B3B3B",
"n	c #404040",
"o	c #1C1C1C",
"p	c #1A1A1A",
"q	c #323232",
"r	c #606060",
"s	c #989898",
"t	c #181818",
"u	c #393939",
"v	c #C0C0C0",
"w	c #7D7D7D",
"x	c #272727",
"y	c #202020",
"z	c #838383",
"A	c #4B4B4B",
"B	c #686868",
"C	c #E4E4E4",
"D	c #C3C3C3",
"E	c #B2B2B2",
"F	c #A2A2A2",
"G	c #919191",
"H	c #AAAAAA",
"                      ",
"                      ",
"                      ",
"                      ",
"                      ",
"                      ",
"         .            ",
"     +@#$%&*=-;>;,')% ",
" !~{]='-)^/(_))::)<[^ ",
" }|123145627890ab5cde ",
" fg61116666hi2jklmcn: ",
" <g61166655o||ppgiqrs ",
" ep611655o||||pptiu=v ",
" wxhy165oo|pp|pptl7&  ",
" .z_,Aux6o||||ppglB   ",
"         C!DEFG~=,H   ",
"                      ",
"                      ",
"                      ",
"                      ",
"                      ",
"                      "};
