<?xml version="1.0" encoding="UTF-8" standalone="no"?>
<!-- Generator: Adobe Illustrator 16.0.0, SVG Export Plug-In . SVG Version: 6.00 Build 0)  -->

<svg
   xmlns:dc="http://purl.org/dc/elements/1.1/"
   xmlns:cc="http://creativecommons.org/ns#"
   xmlns:rdf="http://www.w3.org/1999/02/22-rdf-syntax-ns#"
   xmlns:svg="http://www.w3.org/2000/svg"
   xmlns="http://www.w3.org/2000/svg"
   xmlns:xlink="http://www.w3.org/1999/xlink"
   xmlns:sodipodi="http://sodipodi.sourceforge.net/DTD/sodipodi-0.dtd"
   xmlns:inkscape="http://www.inkscape.org/namespaces/inkscape"
   version="1.1"
   id="Layer_1"
   x="0px"
   y="0px"
   width="369.27341"
   height="172.30077"
   viewBox="0 0 369.27342 172.30078"
   enable-background="new 0 0 722.569 346.291"
   xml:space="preserve"
   inkscape:version="0.91 r13725"
   sodipodi:docname="qgis.se-logo-3.svg"
   inkscape:export-filename="E:\Google Drive\QGIS_Graphics\Logo candidate 3.0 final files\qgis-logo_anita0.png"
   inkscape:export-xdpi="278"
   inkscape:export-ydpi="278"><metadata
     id="metadata46"><rdf:RDF><cc:Work
         rdf:about=""><dc:format>image/svg+xml</dc:format><dc:type
           rdf:resource="http://purl.org/dc/dcmitype/StillImage" /><dc:title></dc:title></cc:Work></rdf:RDF></metadata><defs
     id="defs44"><linearGradient
       inkscape:collect="always"
       xlink:href="#SVGID_5_"
       id="linearGradient4329"
       x1="721.1015"
       y1="248.36922"
       x2="717.75787"
       y2="167.98872"
       gradientUnits="userSpaceOnUse"
       gradientTransform="translate(-100.25588,2.3875393)" /><linearGradient
       inkscape:collect="always"
       xlink:href="#SVGID_5_"
       id="linearGradient4440"
       x1="105.5037"
       y1="98.686951"
       x2="606.49799"
       y2="98.686951"
       gradientUnits="userSpaceOnUse" /></defs><sodipodi:namedview
     pagecolor="#ffffff"
     bordercolor="#666666"
     borderopacity="1"
     objecttolerance="10"
     gridtolerance="10"
     guidetolerance="10"
     inkscape:pageopacity="0"
     inkscape:pageshadow="2"
     inkscape:window-width="2560"
     inkscape:window-height="1355"
     id="namedview42"
     showgrid="false"
     inkscape:zoom="1.776993"
     inkscape:cx="179.94383"
     inkscape:cy="60.476687"
     inkscape:window-x="0"
     inkscape:window-y="1080"
     inkscape:window-maximized="1"
     inkscape:current-layer="Layer_1"
     inkscape:snap-page="false"
     fit-margin-top="0"
     fit-margin-left="0"
     fit-margin-right="0"
     fit-margin-bottom="0" /><linearGradient
     id="SVGID_1_"
     gradientUnits="userSpaceOnUse"
     x1="350.02249"
     y1="247.7832"
     x2="347.78201"
     y2="100.4837"
     gradientTransform="translate(-110.63499,-98.765)"><stop
       offset="0"
       style="stop-color:#589632"
       id="stop6" /><stop
       offset="1"
       style="stop-color:#93B023"
       id="stop8" /></linearGradient><linearGradient
     id="SVGID_2_"
     gradientUnits="userSpaceOnUse"
     x1="459.22171"
     y1="246.1226"
     x2="456.98129"
     y2="98.822403"
     gradientTransform="translate(-110.63499,-98.765)"><stop
       offset="0"
       style="stop-color:#589632"
       id="stop13" /><stop
       offset="1"
       style="stop-color:#93B023"
       id="stop15" /></linearGradient><linearGradient
     id="SVGID_3_"
     gradientUnits="userSpaceOnUse"
     x1="553.50677"
     y1="244.6875"
     x2="551.26642"
     y2="97.388199"
     gradientTransform="translate(-110.63499,-98.765)"><stop
       offset="0"
       style="stop-color:#589632"
       id="stop20" /><stop
       offset="1"
       style="stop-color:#93B023"
       id="stop22" /></linearGradient><linearGradient
     id="SVGID_4_"
     gradientUnits="userSpaceOnUse"
     x1="234.4702"
     y1="250.03419"
     x2="232.211"
     y2="101.4977"><stop
       offset="0"
       style="stop-color:#589632"
       id="stop27" /><stop
       offset="1"
       style="stop-color:#93B023"
       id="stop29" /></linearGradient><linearGradient
     id="SVGID_5_"
     gradientUnits="userSpaceOnUse"
     x1="188.7529"
     y1="250.2354"
     x2="186.5125"
     y2="102.9362"><stop
       offset="0"
       style="stop-color:#589632"
       id="stop36" /><stop
       offset="1"
       style="stop-color:#93B023"
       id="stop38" /></linearGradient><g
     transform="matrix(1.1991717,0,0,1.1991717,11.27498,9.5665406)"
     id="g3618" /><path
     id="rect4317"
     style="fill:#000000;fill-opacity:1"
     d="m -1.525879e-5,0 0,172.30078 369.27343525879,0 L 369.27342,0 -1.525879e-5,0 Z M 320.26951,5.7363281 l 9.18555,0 0,39.4023439 -9.18555,0 0,-3.769531 c -2.01791,2.655133 -4.93943,4.140625 -8.60351,4.140625 -8.07161,0 -13.38086,-5.946303 -13.38086,-14.814454 0,-8.761943 5.25761,-14.550781 13.16992,-14.550781 3.77029,0 6.79654,1.487445 8.81445,4.142578 l 0,-14.5507809 z M 7.6327972,7.5703125 l 160.3632728,0 0,157.9765675 -160.3632728,0 0,-157.9765675 z M 232.29295,16.091797 c 4.67303,0 8.12482,2.442714 9.55859,6.478515 1.8586,-4.248212 5.36371,-6.425415 10.08985,-6.478515 6.26611,0 10.30078,4.301251 10.30078,10.992187 l 0,18.054688 -9.13281,0 0,-15.50586 c -1e-5,-3.398568 -1.9126,-5.470703 -4.93946,-5.470703 -3.45167,0.106206 -5.57422,2.922332 -5.57422,6.798829 l 0,14.177734 -9.1875,0 0,-15.50586 c 0,-3.398568 -1.8579,-5.470703 -4.88476,-5.470703 -3.50477,0.106206 -5.6836,2.922332 -5.6836,6.798829 l 0,14.177734 -9.13281,0 0,-28.623047 9.13281,0 0,4.726563 c 1.9648,-3.398573 5.25801,-5.097291 9.45313,-5.150391 z m 49.33789,0 c 7.8592,0 12.42541,3.87694 12.47852,10.355469 l 0,18.691406 -8.97266,0 0,-3.292969 c -1.85859,2.442724 -4.88717,3.716797 -8.76367,3.716797 -6.10681,0 -9.82227,-3.715492 -9.82227,-8.972656 0,-5.416475 3.87643,-8.60315 10.99219,-8.65625 l 7.53906,0 0,-0.425782 c 0,-2.81444 -1.85703,-4.513671 -5.57422,-4.513671 -2.38962,0 -5.52393,0.850647 -8.55078,2.390625 l -2.60156,-6.054688 c 4.46062,-2.071006 8.49615,-3.238281 13.27539,-3.238281 z m 67.92773,0.105469 c 10.08951,0 15.08059,6.638378 14.44336,17.099609 l -20.12695,0 c 0.90275,3.398572 3.34556,5.310547 6.74414,5.310547 2.49582,0 4.93987,-1.010178 6.85156,-2.921875 l 4.83203,4.726562 c -2.92065,3.186162 -7.22135,5.044922 -12.47851,5.044922 -9.34608,0 -15.1875,-5.841939 -15.1875,-14.550781 0,-8.86815 6.05372,-14.708984 14.92187,-14.708984 z m 0.10547,6.373046 c -3.18616,0 -5.36313,2.335434 -5.94726,5.78711 l 11.4707,0 c 0,-3.504779 -2.23108,-5.78711 -5.52344,-5.78711 z m -35.76758,0.902344 c -3.82339,0 -6.37268,3.02607 -6.42578,7.433594 0.0531,4.407524 2.60239,7.488281 6.42578,7.488281 3.8234,0 6.37305,-3.080757 6.37305,-7.488281 0,-4.407524 -2.54965,-7.433594 -6.37305,-7.433594 z m -34.60156,9.398438 c -2.76134,0 -4.14258,0.95597 -4.14258,3.080078 0,2.071005 1.48623,3.398437 4.03516,3.398437 2.86754,0 5.3104,-1.593169 5.89453,-3.929687 l 0,-2.548828 -5.78711,0 z m 18.68555,23.683594 c 2.81445,0 4.83203,2.019541 4.83203,4.833984 0,2.867546 -2.01758,4.884766 -4.83203,4.884766 -2.81444,0 -4.83203,-2.01722 -4.83203,-4.884766 0,-2.814443 2.01759,-4.833985 4.83203,-4.833984 z m 35.26562,2.285156 9.1875,0 0,15.505859 c 2.01791,-3.398573 5.36312,-5.099244 9.61133,-5.152344 6.31922,0 10.46094,4.301248 10.46094,10.992188 l 0,18.056641 -9.1875,0 0,-15.507813 c 0,-3.34547 -1.91186,-5.416016 -5.04492,-5.416016 -3.61098,0 -5.83985,2.867289 -5.83985,6.796875 l 0,14.126954 -9.1875,0 0,-39.402344 z m -22.0664,4.140625 9.13281,0 0,7.912109 7.48828,0 0,6.054688 -7.48828,0 0,11.205078 c 0,2.230313 0.95696,3.185912 2.65625,3.132812 0.95584,0 2.17597,-0.372902 3.55664,-0.957031 l 1.80664,6.373047 c -2.07101,1.221362 -4.88514,1.964844 -7.64648,1.964844 -5.52268,0 -9.50586,-3.132581 -9.50586,-9.080078 l 0,-12.638672 -3.98242,0 0,-6 3.98242,0 0,-7.966797 z m -71.53125,6.638672 9.3457,0 5.89453,19.80664 5.73438,-19.80664 8.76172,0 5.89453,19.80664 5.78906,-19.80664 8.97461,0 -10.46289,28.623047 -9.08008,0 -5.62891,-18.16211 -5.6289,18.16211 -9.13281,0 -10.46094,-28.623047 z m 53.71289,0 9.13281,0 0,28.623047 -9.13281,0 0,-28.623047 z m -88.10352,40.521479 c 16.49938,0 28.81641,11.55701 28.81641,26.99219 0,4.9461 -1.25463,9.51211 -3.4961,13.43946 l -8.69335,-8.69141 c 0.37526,-1.48454 0.57812,-3.05285 0.57812,-4.68164 0,-10.01502 -7.54844,-17.56836 -17.0293,-17.56836 -9.48085,0 -17.38281,7.55371 -17.38281,17.56836 0,10.01465 7.98986,17.73828 17.38281,17.73828 1.31325,0 2.58633,-0.15186 3.81055,-0.43359 l 7.76563,7.72656 c -3.54946,1.41918 -7.51207,2.19922 -11.75196,2.19922 -16.42349,0 -28.74219,-11.70994 -28.74219,-27.29688 1e-5,-15.51106 12.31832,-26.99219 28.74219,-26.99219 z m 138.85547,0.31836 c 7.43774,-3.7e-4 14.87516,2.27635 20.1875,5.76758 l -4.6289,9.94141 c -5.61625,-3.33947 -12.2949,-5.46289 -16.54493,-5.46289 -4.02238,0 -6.7539,1.44198 -6.7539,4.32617 0,9.79076 28.3083,4.32567 28.23242,23.45117 0,10.39781 -9.03166,16.01367 -20.79492,16.01367 -8.72845,0 -17.45786,-3.33874 -23.45313,-8.42382 l 4.78125,-9.79102 c 5.46486,4.85782 13.20603,7.96875 18.82227,7.96875 4.9337,0 7.89453,-1.8204 7.89453,-5.08398 0,-10.01803 -28.31055,-4.17374 -28.31055,-22.9961 0,-9.63863 8.27281,-15.71094 20.56836,-15.71094 z m -74.5293,0.15235 c 7.89339,0 15.9372,3.03493 21.32618,7.74023 l -6.75391,8.57617 c -3.94688,-3.64298 -9.4113,-5.91992 -14.57227,-5.91992 -9.41174,0 -16.69726,7.20982 -16.69726,16.54492 0,9.41099 7.36282,16.62305 16.77344,16.62305 3.1877,0 6.98309,-1.13915 10.39843,-2.88476 l 0,-13.96485 10.39649,0 0,20.41602 c -5.61624,4.09864 -14.19283,6.90625 -21.55469,6.90625 -16.08992,0 -28.30859,-11.68832 -28.30859,-27.09571 0,-15.33102 12.44633,-26.9414 28.99218,-26.9414 z m 31.34571,0.3789 11.99023,0 0,53.12696 -11.99023,0 0,-53.12696 z m -99.97071,22.9043 8.38086,0 6.83789,6.76172 -8.08007,0 0,8.40234 -7.13868,-7.11328 0,-8.05078 z m 10.51954,10.14258 8.11914,0 14.41796,14.25391 0,7.9082 -8.7207,0 -13.8164,-13.77149 0,-8.39062 z M 93.925491,131.34483 c -1.397035,0.29019 -2.121335,0.18827 -5.618119,0.18827 -25.021917,0 -46.302418,-20.57539 -46.302418,-47.254565 0,-26.679172 21.046662,-46.800074 46.302418,-46.800074 25.255758,0 45.368258,20.122101 45.368258,46.800074 0,4.339802 -0.54082,8.51292 -1.53973,12.468987 l 23.1596,23.157208 c 5.97068,-10.46398 9.31157,-22.627174 9.31157,-35.803672 0,-41.118399 -32.81294,-71.905933 -76.766176,-71.905933 C 44.087915,12.193926 11.27498,42.7788 11.27498,84.099858 c 0,41.521322 32.812935,72.715372 76.564715,72.715372 11.2926,0 19.269485,-1.76158 27.631315,-4.51008 L 93.925491,131.34483 Z m 69.180219,30.06683 0,-21.06705 -38.52339,-37.69237 -21.4352,0 0,22.07436 36.61071,36.68506 z m -69.551962,-45.66086 0,-22.69193 21.918462,0 -18.220217,-17.987575 -22.884992,0 0,21.73019 z" /><flowRoot
     xml:space="preserve"
     id="flowRoot3546"
     style="font-style:normal;font-weight:normal;font-size:40px;line-height:1000%;font-family:sans-serif;letter-spacing:0px;word-spacing:0px;fill:#000000;fill-opacity:1;stroke:none;stroke-width:1px;stroke-linecap:butt;stroke-linejoin:miter;stroke-opacity:1"
     transform="translate(-3.5709357,11.566372)"><flowRegion
       id="flowRegion3548"><rect
         id="rect3550"
         width="118.45854"
         height="130.839"
         x="221.72287"
         y="-6.7825737"
         style="line-height:1000%" /></flowRegion><flowPara
       id="flowPara3552"></flowPara><flowPara
       id="flowPara4295" /><flowPara
       id="flowPara4297" /><flowPara
       id="flowPara4299" /><flowPara
       id="flowPara4301" /><flowPara
       id="flowPara4303" /></flowRoot><g
     style="font-style:normal;font-weight:normal;font-size:53.10269928px;line-height:100%;font-family:sans-serif;letter-spacing:0px;word-spacing:0px;fill:#ffffff;fill-opacity:1;stroke:none;stroke-width:1px;stroke-linecap:butt;stroke-linejoin:miter;stroke-opacity:1"
     id="text3538" /><g
     transform="matrix(0.37564322,0,0,0.37564322,134.84666,73.040001)"
     id="g4242"
     fill="param(fill) #FFF" stroke="param(outline) #000" stroke-width="param(outline-width) 1" />
</svg>
