<svg enable-background="new 0 0 32 32" height="32" viewBox="0 0 32 32" width="32" xmlns="http://www.w3.org/2000/svg"><path d="m16 1c-8.285 0-15 6.716-15 15 0 8.283 6.715 15 15 15 8.283 0 15-6.717 15-15 0-8.284-6.717-15-15-15zm7.76 19.932c.781.781.781 2.047 0 2.828-.391.391-.902.586-1.414.586s-1.023-.195-1.414-.586l-4.932-4.932-4.931 4.932c-.39.391-.902.586-1.414.586s-1.024-.196-1.414-.586c-.781-.781-.781-2.047 0-2.828l4.931-4.932-4.931-4.931c-.781-.781-.781-2.047 0-2.828.78-.781 2.048-.781 2.828 0l4.931 4.931 4.932-4.931c.781-.781 2.047-.781 2.828 0s.781 2.047 0 2.828l-4.932 4.931z" opacity=".75"/><path d="m18.828 16 4.932-4.931c.781-.781.781-2.047 0-2.828s-2.047-.781-2.828 0l-4.932 4.931-4.931-4.931c-.78-.781-2.048-.781-2.828 0-.781.781-.781 2.047 0 2.828l4.931 4.931-4.931 4.932c-.781.781-.781 2.047 0 2.828.39.391.902.586 1.414.586s1.024-.195 1.414-.586l4.931-4.932 4.932 4.932c.391.391.902.586 1.414.586s1.023-.195 1.414-.586c.781-.781.781-2.047 0-2.828z" fill="#fff" opacity=".9"/></svg>