<svg enable-background="new 0 0 580 580" height="580" viewBox="0 0 580 580" width="580" xmlns="http://www.w3.org/2000/svg">
<path d="m468.232 97.93h-.251c.286-.248.444-.498.444-.75 0-5.937-81.066-10.75-181.07-10.75-100.002 0-181.07 4.813-181.07 10.75 0 .252.158.502.446.75h-.446l160.475 148.535v168.073l-103.962 74.32h.255c-.5.27-.765.544-.765.82 0 4.103 55.996 7.426 125.07 7.426 69.075 0 125.07-3.323 125.07-7.426 0-.276-.266-.552-.765-.82h.06l-103.962-74.32v-168.072zm-175.711 119.639c-2.895 2.679-7.63 2.679-10.525 0l-77.535-71.768c-2.895-2.679-2.036-4.872 1.909-4.872h161.779c3.943 0 4.804 2.192 1.908 4.872z" fill="param(fill)" fill-opacity="param(fill-opacity)" stroke="param(outline)" stroke-opacity="param(outline-opacity)" stroke-width="param(outline-width)"/>
</svg>
