<?xml version="1.0" encoding="utf-8"?>
<!-- Generator: Adobe Illustrator 16.0.0, SVG Export Plug-In . SVG Version: 6.00 Build 0)  -->
<!DOCTYPE svg PUBLIC "-//W3C//DTD SVG 1.1//EN" "http://www.w3.org/Graphics/SVG/1.1/DTD/svg11.dtd">
<svg version="1.1"
	 id="svg2" xmlns:dc="http://purl.org/dc/elements/1.1/" xmlns:cc="http://creativecommons.org/ns#" xmlns:rdf="http://www.w3.org/1999/02/22-rdf-syntax-ns#" xmlns:svg="http://www.w3.org/2000/svg" xmlns:sodipodi="http://sodipodi.sourceforge.net/DTD/sodipodi-0.dtd" xmlns:inkscape="http://www.inkscape.org/namespaces/inkscape" sodipodi:version="0.32" sodipodi:docname="food_fastfood2.svg" inkscape:output_extension="org.inkscape.output.svg.inkscape" inkscape:version="0.47 r22583"
	 xmlns="http://www.w3.org/2000/svg" xmlns:xlink="http://www.w3.org/1999/xlink" x="0px" y="0px" width="580px" height="580px"
	 viewBox="0 0 580 580" enable-background="new 0 0 580 580" xml:space="preserve">
<path id="path4780" sodipodi:nodetypes="ccccccsccccccccscccccccscccccc" opacity="0.5" fill="#FFFB3D" enable-background="new    " d="
	M290.375,61.094c-51.811,0.008-105.41,13.894-149.969,37.5c-44.207,23.438-79.648,56.464-95.063,95.5
	c-8.024,7.344-13.897,15.25-17.125,23.719c-4.322,10.579-6.523,23.496-6.531,36.875c0,12.438,1.931,25.274,6,37.031
	c-1.308,7.955-1.875,15.971-1.875,23.781c0,12.943,1.577,25.345,4.094,36.031c2.532,10.709,5.928,19.688,9.875,25.969l0.281,0.469
	c1.079,1.882,2.254,3.734,3.531,5.563c1.01,14.672,3.361,30.705,8.563,41.406l1.031,2.156h0.031
	c12.553,25.021,42.724,45.837,83.688,60.938c42.233,15.498,96.175,24.75,155,24.75s112.798-9.252,155.031-24.75
	c40.964-15.101,71.104-35.916,83.656-60.938h0.031l1.063-2.156c3.098-6.326,5.085-14.435,6.5-23.094
	c1.347-8.3,2.101-17.051,2.406-24.969c3.778-6.25,7.028-14.971,9.469-25.313c2.509-10.694,4.094-23.088,4.094-36.031
	c0-7.795-0.582-15.794-1.875-23.719c4.085-11.78,6.023-24.656,6.031-37.125c-0.008-13.486-2.242-26.492-6.625-37.125
	c-2.868-7.405-7.804-14.342-14.375-20.875c-13.907-40.589-49.282-74.278-94.063-97.969
	C398.117,74.867,343.279,61.102,290.375,61.094z"/>
<sodipodi:namedview  showgrid="false" inkscape:cy="170.17714" inkscape:cx="386.22617" inkscape:zoom="0.65172414" pagecolor="#ffffff" bordercolor="#666666" guidetolerance="10.0" objecttolerance="10.0" gridtolerance="10.0" borderopacity="1.0" id="base" inkscape:window-maximized="0" inkscape:current-layer="svg2" inkscape:window-y="13" inkscape:window-x="11" inkscape:pageopacity="0.0" inkscape:pageshadow="2" inkscape:window-height="947" inkscape:window-width="1048">
	</sodipodi:namedview>
<defs>
	
	
		<inkscape:perspective  inkscape:vp_z="580 : 290 : 1" inkscape:vp_y="0 : 1000 : 0" inkscape:vp_x="0 : 290 : 1" sodipodi:type="inkscape:persp3d" id="perspective2441" inkscape:persp3d-origin="290 : 193.33333 : 1">
		</inkscape:perspective>
	
		<inkscape:perspective  inkscape:vp_z="60 : 30 : 1" inkscape:vp_y="0 : 1000 : 0" inkscape:vp_x="0 : 30 : 1" sodipodi:type="inkscape:persp3d" id="perspective3452" inkscape:persp3d-origin="30 : 20 : 1">
		</inkscape:perspective>
	
		<inkscape:perspective  inkscape:vp_z="744.09448 : 526.18109 : 1" inkscape:vp_y="0 : 1000 : 0" inkscape:vp_x="0 : 526.18109 : 1" sodipodi:type="inkscape:persp3d" id="perspective4471" inkscape:persp3d-origin="372.04724 : 350.78739 : 1">
		</inkscape:perspective>
	
		<inkscape:perspective  inkscape:vp_z="12 : 6 : 1" inkscape:vp_y="0 : 1000 : 0" inkscape:vp_x="0 : 6 : 1" sodipodi:type="inkscape:persp3d" id="perspective4668" inkscape:persp3d-origin="6 : 4 : 1">
		</inkscape:perspective>
	
		<inkscape:perspective  inkscape:vp_z="32 : 16 : 1" inkscape:vp_y="0 : 1000 : 0" inkscape:vp_x="0 : 16 : 1" sodipodi:type="inkscape:persp3d" id="perspective4904" inkscape:persp3d-origin="16 : 10.666667 : 1">
		</inkscape:perspective>
	
		<inkscape:perspective  inkscape:vp_z="32 : 16 : 1" inkscape:vp_y="0 : 1000 : 0" inkscape:vp_x="0 : 16 : 1" sodipodi:type="inkscape:persp3d" id="perspective5233" inkscape:persp3d-origin="16 : 10.666667 : 1">
		</inkscape:perspective>
	
		<inkscape:perspective  inkscape:vp_z="500 : 250 : 1" inkscape:vp_y="0 : 1000 : 0" inkscape:vp_x="0 : 250 : 1" sodipodi:type="inkscape:persp3d" id="perspective5412" inkscape:persp3d-origin="250 : 166.66667 : 1">
		</inkscape:perspective>
	
		<inkscape:perspective  inkscape:vp_z="405.71429 : 204.28572 : 1" inkscape:vp_y="0 : 1000 : 0" inkscape:vp_x="0 : 204.28572 : 1" sodipodi:type="inkscape:persp3d" id="perspective5571" inkscape:persp3d-origin="202.85715 : 136.19048 : 1">
		</inkscape:perspective>
	
		<inkscape:perspective  inkscape:vp_z="128 : 64 : 1" inkscape:vp_y="0 : 1000 : 0" inkscape:vp_x="0 : 64 : 1" sodipodi:type="inkscape:persp3d" id="perspective6552" inkscape:persp3d-origin="64 : 42.666667 : 1">
		</inkscape:perspective>
	
		<inkscape:perspective  inkscape:vp_z="1 : 0.5 : 1" inkscape:vp_y="0 : 1000 : 0" inkscape:vp_x="0 : 0.5 : 1" sodipodi:type="inkscape:persp3d" id="perspective4729" inkscape:persp3d-origin="0.5 : 0.33333333 : 1">
		</inkscape:perspective>
</defs>
<path id="path5" fill="#FFFB3D" stroke="#1EFF31" stroke-width="4.4444" d="M290.375,61.094
	c-51.811,0.008-105.41,13.894-149.969,37.5c-44.207,23.438-79.648,56.464-95.063,95.5c-8.024,7.344-13.897,15.25-17.125,23.719
	c-4.322,10.579-6.523,23.496-6.531,36.875c0,12.438,1.931,25.274,6,37.031c-1.308,7.955-1.875,15.971-1.875,23.781
	c0,12.943,1.577,25.345,4.094,36.031c2.532,10.709,5.928,19.688,9.875,25.969l0.281,0.469c1.079,1.882,2.254,3.734,3.531,5.563
	c1.01,14.672,3.361,30.705,8.563,41.406l1.031,2.156h0.031c12.553,25.021,42.724,45.837,83.688,60.938
	c42.233,15.498,96.175,24.75,155,24.75s112.798-9.252,155.031-24.75c40.964-15.101,71.104-35.916,83.656-60.938h0.031l1.063-2.156
	c3.098-6.326,5.085-14.435,6.5-23.094c1.347-8.3,2.101-17.051,2.406-24.969c3.779-6.25,7.028-14.971,9.469-25.313
	c2.509-10.694,4.094-23.088,4.094-36.031c0-7.795-0.582-15.794-1.875-23.719c4.085-11.78,6.023-24.656,6.031-37.125
	c-0.008-13.486-2.242-26.492-6.625-37.125c-2.868-7.405-7.804-14.342-14.375-20.875c-13.907-40.589-49.282-74.278-94.063-97.969
	C398.117,74.867,343.279,61.102,290.375,61.094z M290.375,68.75c58.909-0.015,120.675,17.623,167.406,47.219
	c23.354,14.779,42.964,32.525,56.656,52.438c13.692,19.927,21.5,41.964,21.5,65.594c-0.008,9.019-2.505,17.041-7.125,24.438
	c-4.245,6.823-10.397,13.066-18.031,18.75c-0.826-0.543-1.56-0.706-2.156-0.844c-0.712-0.138-1.307-0.156-1.781-0.156
	c-0.581,0-0.955,0.047-1.063,0.063h-0.156l-0.125,0.031c-7.198,1.308-12.4,3.427-17.281,5.5c-4.903,2.081-9.483,4.087-16.063,5.625
	c-5.584,1.323-12.635,2.502-18.969,5.531c-3.159,1.522-6.185,3.562-8.594,6.438c-1.82,2.157-3.276,4.775-4.156,7.813
	c-17.931,4.644-36.971,8.221-55.75,10.875c-36.45,5.164-71.924,6.938-96.594,6.938c-36.542,0.016-96.173-6.702-147.219-20.969
	c-0.673-1.217-1.473-2.34-2.406-3.281c-4.001-4.069-9.43-5.931-14.563-7.438c-5.141-1.461-10.21-2.496-13.125-3.75
	c-4.023-1.667-9.396-5.289-15.125-8.563c-5.768-3.243-11.971-6.321-18.656-6.375c-1.637,0-3.293,0.221-4.938,0.688
	c-0.313-0.207-0.655-0.418-0.969-0.625c-8.346-5.661-14.97-11.746-19.438-18.156c-4.475-6.426-6.805-13.083-6.813-20.25
	c0.008-23.224,7.792-45.201,21.5-65.281c20.539-30.101,54.435-55.759,94.281-73.781C200.464,79.173,246.229,68.742,290.375,68.75z
	 M77,282.25c4.108-0.054,9.482,2.27,14.875,5.375c5.431,3.067,10.821,6.781,15.969,8.969c2.769,1.155,5.897,1.916,9.125,2.75
	c4.827,1.225,9.822,2.59,13.188,4.594c1.683,0.994,2.947,2.104,3.75,3.313c0.704,1.07,1.174,2.229,1.281,3.844h-0.031
	c-4.551,0.046-10.199-1.834-15.875-2.5c-5.653-0.619-11.691-0.938-17.719-0.938c-2.395,0-4.792,0.049-7.156,0.156
	c-6.969,0.299-13.523,2.264-19.75,5.094c-3.32,1.529-5.973,3.697-8.375,5.281c-1.247,0.842-2.357,1.485-3.375,1.906
	c-0.428-1.209-0.883-2.279-1.281-3.281c-0.765-1.904-1.349-3.52-1.594-5.531C60.008,311.06,60,310.846,60,310.594
	c-0.015-1.323,0.451-3.221,1.094-5.156c0.627-1.958,1.408-3.902,1.875-5.938c1.102-4.873,2.028-6.813,3.344-8.688
	c1.262-1.805,3.329-3.812,6.281-7.438l0.75-0.469C74.491,282.462,75.677,282.25,77,282.25z M505.313,284.125
	c-0.069,1.652-0.198,3.87-0.313,6.219c-0.199,3.771-0.398,7.927-0.406,11.094c0,0.681,0.04,1.324,0.063,1.906
	c0.092,2.264,0.509,5.073,0.906,8.156c0.405,3.06,0.781,6.307,0.781,8.938c0.038,2.287-0.396,4.108-0.656,4.438
	c-0.513,0.864-1.059,1.329-1.969,1.75c-0.896,0.398-2.183,0.633-3.781,0.625c-3.603,0.023-8.502-1.278-13-2.969
	c-4.521-1.684-8.64-3.682-11.156-4.844c-5.867-2.708-11.913-6.32-19.219-7.781c-1.606-0.321-3.107-0.414-4.469-0.406
	c-1.958,0.008-3.633,0.189-4.75,0.25v-0.031c0.489-3.145,1.571-5.359,3.094-7.188c2.279-2.73,5.801-4.64,10.031-6.063
	c4.215-1.423,9.009-2.311,13.438-3.344c7.274-1.698,12.462-3.988,17.281-6.031C495.616,286.962,499.736,285.288,505.313,284.125z
	 M39.094,306.969c0.979,1.553,2.023,3.063,3.125,4.5c29.803,43.74,129.442,75.844,247.781,75.844
	c118.309,0,217.924-32.096,247.75-75.813h0.031c1.094-1.445,2.114-2.947,3.094-4.5c-16.714,47.955-92.47,86.359-190.469,97.719
	c0.161-0.497,0.268-1.02,0.344-1.563l0.281-2.094l-1.625-1.344c-4.299-3.496-9.752-4.219-15-4.25
	c-6.356,0.008-12.794,1.216-17.063,1.813c-9.011,1.293-18.777,3.352-27.781,3.344c-1.614,0-3.229-0.073-4.781-0.219
	c-10.38-0.926-20.632-3.807-31.969-5.375c-2.096-0.291-4.186-0.531-6.313-0.531c-3.427-0.008-7.027,0.649-10.5,2.531
	c-1.331,0.727-2.938,1.756-4.438,3.156c-0.742,0.703-1.474,1.482-2.094,2.469c-0.344,0.559-0.653,1.227-0.875,1.969
	C131.046,393.104,55.716,354.771,39.094,306.969z M532.656,382.219c-0.298,4.728-0.756,9.625-1.406,14.406
	c-1.171,8.629-3.006,16.892-5.469,22.813h-0.063l-1,2.25c-10.189,22.85-39.206,44.079-80.438,59.156
	c-41.178,15.131-94.353,24.281-152.375,24.281c-58.022,0-111.189-9.15-152.375-24.281c-41.231-15.069-70.248-36.307-80.438-59.156
	l-1-2.25h-0.063c-2.463-5.921-4.306-14.184-5.469-22.813c-0.405-2.983-0.74-6.002-1-9C87.554,430.188,180.726,460.5,290,460.5
	C403.856,460.5,500.207,427.596,532.656,382.219z M246.5,402.156c1.583,0,3.354,0.17,5.281,0.438
	c10.664,1.453,20.999,4.39,32.313,5.438c1.813,0.16,3.617,0.219,5.438,0.219c10.098-0.016,20.216-2.158,28.875-3.375
	c4.514-0.65,10.583-1.758,15.969-1.75c2.922-0.023,5.55,0.32,7.531,1.031c-0.206,0.199-0.428,0.41-0.688,0.625
	c-2.073,1.721-5.864,3.514-9.781,5.281c-3.924,1.82-8.004,3.592-11.125,6.406c-3.901,3.618-7.542,8.363-11.344,12.594
	c-3.771,4.238-7.678,7.843-11.25,9.281c-1.469,0.604-2.931,0.867-4.438,0.875c-3.81,0.03-8.198-1.858-12.344-4.75
	c-4.154-2.868-8.015-6.629-10.906-9.75c-3.764-4.055-8.468-8.49-13.938-12.094c-5.469-3.588-11.74-6.354-18.594-6.781l-0.75-0.063
	c0.191-0.191,0.419-0.402,0.656-0.594c0.734-0.582,1.607-1.108,2.219-1.438C241.843,402.572,243.922,402.172,246.5,402.156z"/>
</svg>
