/* XPM */
static const char * line_layer_xpm[] = {
"16 16 2 1",
" 	c None",
".	c #5272FF",
"                ",
" ..          .  ",
"  ..        ..  ",
"   .     ....   ",
"    .    .      ",
"    ...  .      ",
"      ....      ",
"      ..        ",
"      ..        ",
"      .         ",
"     ..         ",
"    ..          ",
"   ..           ",
"  ..            ",
"  .             ",
"                "};

