/* XPM */
static char *pan[]={
"22 22 3 1",
". c None",
"# c #000000",
"a c #ffffff",
"......................",
"......................",
"......###.####........",
".....##a###aa#........",
".....#aaa##aa###......",
".....#aaaa#aa#aa#.....",
".....##aaa#aaaaa###...",
"..###.#aaaaaaaaa#a#...",
"..#a###aaaaaaaaa#a#...",
"..#aa##aaaaaaaaaaa#...",
"..#aaaaaaaaaaaaaaa#...",
"..##aaaaaaaaaaaaaa#...",
"...#aaaaaaaaaaaaa##...",
"...#aaaaaaaaaaaaa#....",
"...##aaaaaaaaaaa##....",
"....##aaaaaaaaa##.....",
".....##aaaaaaaa#......",
"......#aaaaaaa##......",
"......#aaaaaa#........",
"......##aaaa##........",
".......######.........",
"......................"};
