/* XPM */
static char *zoom[]={
"24 24 197 2",
"Qt c None",
"ac c #000000",
"a0 c #363637",
"aW c #3c3938",
"#9 c #4091a0",
"#W c #4092a0",
"aE c #414142",
"aq c #424243",
"aR c #434343",
"ad c #434344",
"aS c #454545",
"#8 c #46a2b3",
"#V c #46a4b4",
"aT c #474747",
"#M c #474748",
"#I c #4799a7",
"aU c #494949",
"a. c #4996a5",
"#x c #4a4a4b",
"aV c #4b4b4b",
"#H c #4ca1b1",
"#j c #4d4d4e",
"aF c #4e5052",
"ak c #4e9ba9",
"#t c #4ea2b2",
".8 c #505050",
"#X c #509ca9",
"aM c #525252",
".W c #535353",
"#1 c #535556",
"aj c #54a5b3",
"aL c #555858",
"#7 c #55b2c4",
"aA c #565657",
"al c #56a0ae",
"#U c #59b9cc",
".y c #5b5b5b",
"ap c #5b5b5c",
"#s c #5cb2c5",
"#G c #5cb8cb",
".n c #5f5f60",
"ab c #606263",
"#f c #60b0c2",
"ai c #62b2c0",
"aN c #635920",
"#0 c #636364",
".K c #636464",
".e c #646465",
"#L c #666666",
"aB c #675b22",
"#6 c #68baca",
"#w c #696969",
".# c #6b6b6b",
"#u c #6bb7c4",
"#i c #6c6c6c",
".a c #6d6d6d",
".f c #6e6e6f",
"#e c #6ec0d3",
".b c #6f6f6f",
"#T c #6fc5d8",
".V c #707272",
".c c #717171",
"#F c #71c8db",
"a# c #72b8c5",
"#J c #72bcc7",
".d c #737373",
"#r c #73c5d9",
".x c #747474",
".m c #747475",
".l c #747576",
"ah c #75bdcc",
"#5 c #75c1d0",
"ar c #777f81",
"az c #778284",
"a4 c #7898b5",
"ae c #798182",
"ao c #798486",
"am c #79bccb",
".5 c #7ac2d1",
"aK c #819092",
"#S c #81cbdc",
"aG c #828e90",
"#g c #82c3cf",
".4 c #82c9d8",
"#4 c #83c9d6",
"aO c #84682e",
"#d c #85cfe0",
"#E c #86d0e1",
"#q c #86d1e1",
"#Z c #889699",
"av c #88cad7",
"aD c #896d4f",
".z c #8b8f90",
".J c #8b9294",
"aC c #8c6f4f",
"a6 c #8c877f",
"#N c #8c9496",
".o c #8d9192",
"#R c #8dd0df",
".w c #8e9495",
"aw c #8ecedc",
".S c #8ecfda",
"bb c #906741",
".7 c #919c9e",
"#Q c #91d3e0",
"ag c #92ccd7",
".3 c #93d4e2",
".X c #959b9c",
"#D c #95d7e6",
"#c c #97d8e6",
"#Y c #98d0da",
"#P c #98d4e0",
".R c #98d6e2",
".T c #99d4de",
"au c #9ad2dd",
".k c #9ba3a4",
".g c #9ca2a3",
"#3 c #9cd5df",
"#C c #a2dce9",
".6 c #a4d6e1",
".2 c #a5dde9",
".G c #a6dce8",
"a1 c #a76848",
"#B c #a7dee9",
"#p c #a8dfeb",
".Q c #aadfea",
"ax c #acdce6",
".H c #acdde7",
"#A c #afe0e9",
"a3 c #b0c2d3",
"an c #b2dfe8",
"a2 c #b37548",
"at c #b3dee7",
"aX c #b47648",
"aJ c #b4ccd1",
".F c #b5e3ee",
"aH c #b6cdd1",
"#K c #b8cfd3",
"#o c #bae7ef",
"#h c #bbd2d4",
".1 c #bce6ef",
"aa c #bee4ea",
"aY c #bf8248",
"#b c #c0e8f0",
"#O c #c1e2ea",
"#z c #c1e3ea",
"af c #c1e4ed",
"#m c #c3e8f0",
".E c #c3ebf3",
"#y c #c5d2d5",
"ay c #c6e8ed",
".9 c #c8d4d6",
"#l c #c9e8ef",
"#n c #c9ebf2",
".P c #c9ecf2",
"aP c #ca8f49",
".j c #cad7d8",
".U c #cae8ed",
"aZ c #cb9049",
".h c #ccd7d9",
"as c #cce8ee",
"aI c #cce9ed",
".I c #cceaef",
"#v c #cee9ed",
"#2 c #cee9ee",
"bc c #cfc7ba",
"#. c #d2ecf3",
"ba c #d4cec3",
"## c #d4edf4",
".t c #d4f0f7",
".D c #d4f1f7",
".u c #d5eff5",
"aQ c #d79d49",
"b# c #dad5cb",
".0 c #daf2f6",
".s c #daf3f9",
".v c #dceff3",
".r c #ddf2f7",
"#k c #dfeef0",
".q c #dff1f4",
"b. c #e0dcd4",
".i c #e1eef1",
".p c #e4eff1",
".L c #e4f2f4",
".A c #e6f3f5",
"a8 c #e7e3dd",
".Y c #ebf7fa",
".O c #ebf9fb",
"#a c #ecf8fa",
"a7 c #edeae5",
".C c #eef9fb",
"a9 c #f2f1ee",
".Z c #f3fbfc",
"a5 c #f8f8f6",
".B c #f8fcfc",
".N c #fcfefe",
".M c #ffffff",
"QtQtQtQtQt.#.a.b.c.dQtQtQtQtQtQtQtQtQtQtQtQtQtQt",
"QtQtQt.e.f.g.h.i.j.k.l.mQtQtQtQtQtQtQtQtQtQtQtQt",
"QtQt.n.o.p.q.r.s.t.u.v.w.xQtQtQtQtQtQtQtQtQtQtQt",
"Qt.y.z.A.B.C.D.E.F.G.H.I.J.dQtQtQtQtQtQtQtQtQtQt",
"Qt.K.L.B.M.N.O.P.Q.R.S.T.U.VQtQtQtQtQtQtQtQtQtQt",
".W.X.q.Y.N.Z.0.1.2.3.4.5.6.7.bQtQtQtQtQtQtQtQtQt",
".8.9#.###a.0#b.Q#c#d#e#f#g#h#iQtQtQtQtQtQtQtQtQt",
"#j#k#l#m#n#o#p#c#q#r#s#t#u#v#wQtQtQtQtQtQtQtQtQt",
"#x#y#z#A#B#C#D#E#F#G#H#I#J#K#LQtQtQtQtQtQtQtQtQt",
"#M#N#O#P#Q#R#S#T#U#V#W#X#Y#Z#0QtQtQtQtQtQtQtQtQt",
"Qt#1#2#3#4#5#6#7#8#9a.a#aaabacQtQtQtQtQtQtQtQtQt",
"QtadaeafagahaiajakalamanaoapacacQtQtQtQtQtQtQtQt",
"QtQtaqarasatauavawaxayazaAaBaCaDacQtQtQtQtQtQtQt",
"QtQtQtaEaFaGaHaIaJaKaLaMaNaOaPaQaDacQtQtQtQtQtQt",
"QtQtQtQtQtaRaSaTaUaVacacaWaXaYaZaQaDacQtQtQtQtQt",
"QtQtQtQtQtacacacacacacaca0a1a2aYaZaQaDacQtQtQtQt",
"Qta3a4a4a4a4a4a3acQtQtQtQta0a1a2aYaZaQaDacQtQtQt",
"Qta4.Ma5a6a7a8a4acQtQtQtQtQta0a1a2aYaZaQaDacQtQt",
"Qta4a5a9aca8b.a4acQtQtQtQtQtQta0a1a2aYaZaQaDacQt",
"Qta4a6acacaca6a4acQtQtQtQtQtQtQta0a1a2aYaZaDacQt",
"Qta4a7a8acb#baa4acQtQtQtQtQtQtQtQta0a1a2bba0acQt",
"Qta4a8b.a6babca4acQtQtQtQtQtQtQtQtQta0a0a0acacQt",
"Qta3a4a4a4a4a4a3acQtQtQtQtQtQtQtQtQtQtacacacQtQt",
"QtacacacacacacacacQtQtQtQtQtQtQtQtQtQtQtQtQtQtQt"};
