<svg enable-background="new 0 0 1224 792" height="580" viewBox="0 0 580 580" width="580" xmlns="http://www.w3.org/2000/svg">
<path d="m475.34965 266.89079c-5.94573-6.10064-14.2535-9.3216-22.74301-8.85686l-102.74926 5.7195 56.54541-64.39994c8.05546-9.17359 10.35691-21.40249 7.24255-32.32996-1.64345-7.48796-6.1781-14.30104-13.14456-18.65394-.21397-.15261-135.16281-78.547602-135.16281-78.547602-11.0195-6.401266-24.90489-4.990947-34.41438 3.490903l-65.92069 58.802379c-12.1453 10.83315-13.20898 29.46101-2.37507 41.60708 10.83468 12.14454 29.46331 13.21129 41.60785 2.3743l49.97696-44.58032 41.31566 23.99228-72.92858 83.05848c-30.24094 4.9319-57.45034 18.86713-78.80988 38.95899l38.08397 38.08397c17.21601-15.65385 40.07482-25.20858 65.12312-25.20858 53.42722 0 96.89402 43.46756 96.89402 96.89555 0 25.0483-9.55474 47.90558-25.20705 65.12159l38.08167 38.08396c25.36886-26.9686 40.93834-63.2565 40.93834-103.20555 0-23.80056-5.52547-46.30814-15.35015-66.32255l39.7719-2.21555-9.67514 118.67688c-1.32289 16.22134 10.75723 30.44186 26.97934 31.76629.81214.0659 1.62275.0974 2.42569.0974 15.1891 0 28.08443-11.67136 29.33907-27.07596l12.41832-152.37038c.69327-8.49029-2.32063-16.86324-8.26329-22.96235z" fill="param(fill)" fill-opacity="param(fill-opacity)" stroke="param(outline)" stroke-opacity="param(outline-opacity)" stroke-width="param(outline-width)"/>
<path d="m420.76826 140.6531c27.24238 0 49.32433-22.08425 49.32433-49.328165 0-27.242383-22.08195-49.328936-49.32433-49.328936-27.24546 0-49.32894 22.086553-49.32894 49.328936 0 27.243915 22.08272 49.328165 49.32894 49.328165z" fill="param(fill)" fill-opacity="param(fill-opacity)" stroke="param(outline)" stroke-opacity="param(outline-opacity)" stroke-width="param(outline-width)"/>
<path d="m246.9977 484.1918c-53.42799 0-96.89555-43.46756-96.89555-96.89555 0-20.13557 6.1781-38.85086 16.73133-54.36283l-38.49502-38.49425c-20.05812 25.59663-32.04928 57.81845-32.04928 92.85708 0 83.23486 67.47365 150.70775 150.70852 150.70775 35.04016 0 67.25892-11.99116 92.85478-32.05004l-38.49425-38.49272c-15.51121 10.55016-34.22649 16.73056-54.36053 16.73056z" fill="param(fill)" fill-opacity="param(fill-opacity)" stroke="param(outline)" stroke-opacity="param(outline-opacity)" stroke-width="param(outline-width)"/>
</svg>
