<svg enable-background="new 0 0 580 580" height="580" viewBox="0 0 580 580" width="580" xmlns="http://www.w3.org/2000/svg">
<path d="m146.09876 248.45926c-44.36689 27.68711-73.970694 76.94092-73.970694 132.94727 0 86.30769 70.289964 156.59766 156.597654 156.59766 66.64409 0 123.72709-41.915 146.28319-100.74805l-21.3164-36.95117c-9.079 60.95021-61.4248 107.46484-124.96679 107.46484-69.96746 0-126.36329-56.39583-126.36329-126.36328 0-39.15672 17.66629-74.05971 45.48633-97.20899z" fill="param(fill)" overflow="visible" stroke="param(outline)" stroke-width="param(outline-width)"/>
<path d="m200.21595 122.79911a40.758163 40.758163 0 0 0 -40.74609 40.51367h-.0215l.0117.22266a40.758163 40.758163 0 0 0 -.002.0215 40.758163 40.758163 0 0 0  .17187 3.46289l7.41016 151.27539a36.346786 36.346786 0 0 0 -.37305 4.89648 36.346786 36.346786 0 0 0  36.34766 36.34766 36.346786 36.346786 0 0 0  3.00586-.14453l144.29887.0469 72.457 125.5918 17.4492-10.06836 58.627-33.76953a16.469 16.469 0 0 0 1.5039-.86719l.125-.0723-.008-.0117a16.469 16.469 0 0 0 7.3984-13.73633 16.469 16.469 0 0 0 -16.4688-16.46875 16.469 16.469 0 0 0 -7.3574 1.74024l-.004-.006-.0605.0352a16.469 16.469 0 0 0 -1.5371.88477l-27.2325 15.6875-62.7656-108.79492a29.02318 29.02318 0 0 0 -2.2891-3.9668l-.3964-.6875-.0664.0391a29.02318 29.02318 0 0 0 -23.4336-11.95898 29.02318 29.02318 0 0 0 -2.2286.0957v-.0684l-116.28902-.0371-1.61132-32.89453 80.51564-.14063a16.469 16.469 0 0 0 1.4785.0742 16.469 16.469 0 0 0  16.4687-16.46875 16.469 16.469 0 0 0 -16.4687-16.46875 16.469 16.469 0 0 0 -1.7383.10938l-81.85936.14258-3.58594-73.18555a40.758163 40.758163 0 0 0  .0312-.61328 40.758163 40.758163 0 0 0 -40.75781-40.75781z" fill="param(fill)" fill-opacity="param(fill-opacity)" stroke="param(outline)" stroke-opacity="param(outline-opacity)" stroke-width="param(outline-width)"/>
<path d="m194.72099 114.68981c9.87233 0 18.40065-3.59066 25.58298-10.77299 7.18232-7.18232 10.77298-15.70965 10.77398-25.58397-.001-10.31071-3.59166-18.94464-10.77398-25.9018-7.18233-6.95616-15.71065-10.43424-25.58298-10.43524-9.87433.001-18.39867 3.47908-25.57402 10.43524-7.17535 6.95716-10.76402 15.59109-10.76302 25.9018-.001 9.87432 3.58767 18.40165 10.76302 25.58397 7.17635 7.18233 15.69969 10.77399 25.57402 10.77299z" fill="param(fill)" fill-opacity="param(fill-opacity)" stroke="param(outline)" stroke-opacity="param(outline-opacity)" stroke-width="param(outline-width)"/>
</svg>
