<?xml version="1.0" encoding="UTF-8"?>
<svg width="580" height="580" enable-background="new 0 0 1224 792" viewBox="0 0 580 580" xmlns="http://www.w3.org/2000/svg">
 <path d="m475.35 266.89c-5.9457-6.1006-14.254-9.3216-22.743-8.8569l-102.75 5.7195 56.545-64.4c8.0555-9.1736 10.357-21.402 7.2426-32.33-1.6434-7.488-6.1781-14.301-13.145-18.654-0.21397-0.15261-135.16-78.548-135.16-78.548-11.02-6.4013-24.905-4.9909-34.414 3.4909l-65.921 58.802c-12.145 10.833-13.209 29.461-2.3751 41.607 10.835 12.145 29.463 13.211 41.608 2.3743l49.977-44.58 41.316 23.992-72.929 83.058c-30.241 4.9319-57.45 18.867-78.81 38.959l38.084 38.084c17.216-15.654 40.075-25.209 65.123-25.209 53.427 0 96.894 43.468 96.894 96.896 0 25.048-9.5547 47.906-25.207 65.122l38.082 38.084c25.369-26.969 40.938-63.256 40.938-103.21 0-23.801-5.5255-46.308-15.35-66.323l39.772-2.2156-9.6751 118.68c-1.3229 16.221 10.757 30.442 26.979 31.766 0.81214 0.0659 1.6228 0.0974 2.4257 0.0974 15.189 0 28.084-11.671 29.339-27.076l12.418-152.37c0.69327-8.4903-2.3206-16.863-8.2633-22.962z" fill="param(fill)" fill-opacity="param(fill-opacity)" stroke="param(outline)" stroke-opacity="param(outline-opacity)" stroke-width="param(outline-width)"/>
 <path d="m420.77 140.65c27.242 0 49.324-22.084 49.324-49.328 0-27.242-22.082-49.329-49.324-49.329-27.245 0-49.329 22.087-49.329 49.329 0 27.244 22.083 49.328 49.329 49.328z" fill="param(fill)" fill-opacity="param(fill-opacity)" stroke="param(outline)" stroke-opacity="param(outline-opacity)" stroke-width="param(outline-width)"/>
 <path d="m247 484.19c-53.428 0-96.896-43.468-96.896-96.896 0-20.136 6.1781-38.851 16.731-54.363l-38.495-38.494c-20.058 25.597-32.049 57.818-32.049 92.857 0 83.235 67.474 150.71 150.71 150.71 35.04 0 67.259-11.991 92.855-32.05l-38.494-38.493c-15.511 10.55-34.226 16.731-54.361 16.731z" fill="param(fill)" fill-opacity="param(fill-opacity)" stroke="param(outline)" stroke-opacity="param(outline-opacity)" stroke-width="param(outline-width)"/>
</svg>
