<?xml version="1.0" encoding="UTF-8"?>
<svg width="580" height="580" enable-background="new 0 0 580 580" viewBox="0 0 580 580" xmlns="http://www.w3.org/2000/svg">
 <path d="m146.1 248.46c-44.367 27.687-73.971 76.941-73.971 132.95 0 86.308 70.29 156.6 156.6 156.6 66.644 0 123.73-41.915 146.28-100.75l-21.316-36.951c-9.079 60.95-61.425 107.46-124.97 107.46-69.967 0-126.36-56.396-126.36-126.36 0-39.157 17.666-74.06 45.486-97.209z" fill="param(fill)" overflow="visible" stroke="param(outline)" stroke-width="param(outline-width)"/>
 <path d="m200.22 122.8a40.758 40.758 0 0 0-40.746 40.514h-0.0215l0.0117 0.22266a40.758 40.758 0 0 0-2e-3 0.0215 40.758 40.758 0 0 0 0.17187 3.4629l7.4102 151.28a36.347 36.347 0 0 0-0.37305 4.8965 36.347 36.347 0 0 0 36.348 36.348 36.347 36.347 0 0 0 3.0059-0.14453l144.3 0.0469 72.457 125.59 17.449-10.068 58.627-33.77a16.469 16.469 0 0 0 1.5039-0.86719l0.125-0.0723-8e-3 -0.0117a16.469 16.469 0 0 0 7.3984-13.736 16.469 16.469 0 0 0-16.469-16.469 16.469 16.469 0 0 0-7.3574 1.7402l-4e-3 -6e-3 -0.0605 0.0352a16.469 16.469 0 0 0-1.5371 0.88477l-27.232 15.688-62.766-108.79a29.023 29.023 0 0 0-2.2891-3.9668l-0.3964-0.6875-0.0664 0.0391a29.023 29.023 0 0 0-23.434-11.959 29.023 29.023 0 0 0-2.2286 0.0957v-0.0684l-116.29-0.0371-1.6113-32.895 80.516-0.14063a16.469 16.469 0 0 0 1.4785 0.0742 16.469 16.469 0 0 0 16.469-16.469 16.469 16.469 0 0 0-16.469-16.469 16.469 16.469 0 0 0-1.7383 0.10938l-81.859 0.14258-3.5859-73.186a40.758 40.758 0 0 0 0.0312-0.61328 40.758 40.758 0 0 0-40.758-40.758z" fill="param(fill)" fill-opacity="param(fill-opacity)" stroke="param(outline)" stroke-opacity="param(outline-opacity)" stroke-width="param(outline-width)"/>
 <path d="m194.72 114.69c9.8723 0 18.401-3.5907 25.583-10.773 7.1823-7.1823 10.773-15.71 10.774-25.584-1e-3 -10.311-3.5917-18.945-10.774-25.902-7.1823-6.9562-15.711-10.434-25.583-10.435-9.8743 1e-3 -18.399 3.4791-25.574 10.435-7.1754 6.9572-10.764 15.591-10.763 25.902-1e-3 9.8743 3.5877 18.402 10.763 25.584 7.1764 7.1823 15.7 10.774 25.574 10.773z" fill="param(fill)" fill-opacity="param(fill-opacity)" stroke="param(outline)" stroke-opacity="param(outline-opacity)" stroke-width="param(outline-width)"/>
</svg>
