<?xml version="1.0" encoding="utf-8"?>
<!-- Generator: Adobe Illustrator 16.0.0, SVG Export Plug-In . SVG Version: 6.00 Build 0)  -->
<!DOCTYPE svg PUBLIC "-//W3C//DTD SVG 1.1//EN" "http://www.w3.org/Graphics/SVG/1.1/DTD/svg11.dtd">
<svg version="1.1"
	 id="svg2" xmlns:dc="http://purl.org/dc/elements/1.1/" xmlns:cc="http://creativecommons.org/ns#" xmlns:rdf="http://www.w3.org/1999/02/22-rdf-syntax-ns#" xmlns:svg="http://www.w3.org/2000/svg" xmlns:sodipodi="http://sodipodi.sourceforge.net/DTD/sodipodi-0.dtd" xmlns:inkscape="http://www.inkscape.org/namespaces/inkscape" inkscape:output_extension="org.inkscape.output.svg.inkscape" sodipodi:docname="landuse_grass.svg" inkscape:version="0.47 r22583" sodipodi:version="0.32"
	 xmlns="http://www.w3.org/2000/svg" xmlns:xlink="http://www.w3.org/1999/xlink" x="0px" y="0px" width="580px" height="580px"
	 viewBox="0 0 580 580" enable-background="new 0 0 580 580" xml:space="preserve">
<sodipodi:namedview  showgrid="false" inkscape:cy="-102.60565" inkscape:cx="209.44222" inkscape:zoom="0.5" pagecolor="#ffffff" bordercolor="#666666" guidetolerance="10.0" objecttolerance="10.0" gridtolerance="10.0" borderopacity="1.0" id="base" inkscape:window-maximized="0" inkscape:current-layer="svg2" inkscape:window-y="20" inkscape:window-x="0" inkscape:pageopacity="0.0" inkscape:pageshadow="2" inkscape:window-width="1400" inkscape:window-height="1003" inkscape:guide-bbox="true" showguides="true">
	</sodipodi:namedview>
<defs>
	
	
		<inkscape:perspective  inkscape:vp_z="580 : 290 : 1" inkscape:vp_y="0 : 1000 : 0" inkscape:vp_x="0 : 290 : 1" sodipodi:type="inkscape:persp3d" id="perspective12" inkscape:persp3d-origin="290 : 193.33333 : 1">
		</inkscape:perspective>
	
		<inkscape:perspective  inkscape:vp_z="58.232063 : 29.116032 : 1" inkscape:vp_y="0 : 1000 : 0" inkscape:vp_x="0 : 29.116032 : 1" sodipodi:type="inkscape:persp3d" id="perspective6807" inkscape:persp3d-origin="29.116032 : 19.410688 : 1">
		</inkscape:perspective>
	
		<inkscape:perspective  inkscape:vp_z="580 : 290 : 1" inkscape:vp_y="0 : 1000 : 0" inkscape:vp_x="0 : 290 : 1" sodipodi:type="inkscape:persp3d" id="perspective6954" inkscape:persp3d-origin="290 : 193.33333 : 1">
		</inkscape:perspective>
	
		<inkscape:perspective  inkscape:vp_z="480 : 240 : 1" inkscape:vp_y="0 : 1000 : 0" inkscape:vp_x="0 : 240 : 1" sodipodi:type="inkscape:persp3d" id="perspective2541" inkscape:persp3d-origin="240 : 160 : 1">
		</inkscape:perspective>
	
		<inkscape:perspective  inkscape:vp_z="430 : 215 : 1" inkscape:vp_y="0 : 1000 : 0" inkscape:vp_x="0 : 215 : 1" sodipodi:type="inkscape:persp3d" id="perspective2750" inkscape:persp3d-origin="215 : 143.33333 : 1">
		</inkscape:perspective>
	
		<inkscape:perspective  inkscape:vp_z="1 : 0.5 : 1" inkscape:vp_y="0 : 1000 : 0" inkscape:vp_x="0 : 0.5 : 1" sodipodi:type="inkscape:persp3d" id="perspective2830" inkscape:persp3d-origin="0.5 : 0.33333333 : 1">
		</inkscape:perspective>
	
		<inkscape:perspective  inkscape:vp_z="1 : 0.5 : 1" inkscape:vp_y="0 : 1000 : 0" inkscape:vp_x="0 : 0.5 : 1" sodipodi:type="inkscape:persp3d" id="perspective3648" inkscape:persp3d-origin="0.5 : 0.33333333 : 1">
		</inkscape:perspective>
	
		<inkscape:perspective  inkscape:vp_z="1 : 0.5 : 1" inkscape:vp_y="0 : 1000 : 0" inkscape:vp_x="0 : 0.5 : 1" sodipodi:type="inkscape:persp3d" id="perspective3675" inkscape:persp3d-origin="0.5 : 0.33333333 : 1">
		</inkscape:perspective>
	
		<inkscape:perspective  inkscape:vp_z="1 : 0.5 : 1" inkscape:vp_y="0 : 1000 : 0" inkscape:vp_x="0 : 0.5 : 1" sodipodi:type="inkscape:persp3d" id="perspective3736" inkscape:persp3d-origin="0.5 : 0.33333333 : 1">
		</inkscape:perspective>
</defs>
<path fill="param(fill)" fill-opacity="param(fill-opacity)" stroke="param(outline)" stroke-opacity="param(outline-opacity)" stroke-width="param(outline-width)" d="M185.985,194.892c-0.01,0-0.021,0-0.031,0
	c-4.286,0-7.769,3.466-7.786,7.756l-0.33,83.398c-0.017,4.3,3.456,7.801,7.756,7.817c0.01,0,0.021,0,0.031,0
	c4.286,0,7.769-3.466,7.786-7.756l0.33-83.398C193.758,198.409,190.286,194.909,185.985,194.892z"/>
<path fill="param(fill)" fill-opacity="param(fill-opacity)" stroke="param(outline)" stroke-opacity="param(outline-opacity)" stroke-width="param(outline-width)" d="M205.229,293.188c1.099,0.536,2.263,0.79,3.408,0.79
	c2.884,0,5.655-1.608,7.004-4.375l26.371-54.06c1.885-3.865,0.28-8.527-3.584-10.413c-3.866-1.886-8.527-0.28-10.413,3.584
	l-26.371,54.06C199.759,286.641,201.364,291.303,205.229,293.188z"/>
<path fill="param(fill)" fill-opacity="param(fill-opacity)" stroke="param(outline)" stroke-opacity="param(outline-opacity)" stroke-width="param(outline-width)" d="M262.473,247.663l-32.304,32.963
	c-3.01,3.071-2.96,8.001,0.111,11.011c1.516,1.485,3.483,2.226,5.45,2.226c2.019,0,4.037-0.78,5.562-2.337l32.304-32.963
	c3.01-3.071,2.96-8.001-0.111-11.012C270.413,244.542,265.482,244.592,262.473,247.663z"/>
<path fill="param(fill)" fill-opacity="param(fill-opacity)" stroke="param(outline)" stroke-opacity="param(outline-opacity)" stroke-width="param(outline-width)" d="M147.88,226.909c-1.609-3.989-6.147-5.917-10.134-4.307
	c-3.988,1.609-5.917,6.146-4.307,10.134l22.745,56.368c1.224,3.033,4.142,4.875,7.223,4.875c0.97,0,1.957-0.183,2.911-0.567
	c3.988-1.609,5.917-6.147,4.307-10.135L147.88,226.909z"/>
<path fill="param(fill)" fill-opacity="param(fill-opacity)" stroke="param(outline)" stroke-opacity="param(outline-opacity)" stroke-width="param(outline-width)" d="M109.849,248.596c-3.041-3.041-7.971-3.041-11.012,0
	c-3.041,3.041-3.041,7.971,0,11.012l31.975,31.975c1.521,1.521,3.513,2.28,5.506,2.28s3.985-0.76,5.506-2.28
	c3.041-3.041,3.041-7.972,0-11.012L109.849,248.596z"/>
<path fill="param(fill)" fill-opacity="param(fill-opacity)" stroke="param(outline)" stroke-opacity="param(outline-opacity)" stroke-width="param(outline-width)" d="M385.986,98.892c-0.011,0-0.021,0-0.032,0
	c-4.286,0-7.769,3.466-7.785,7.756l-0.33,83.398c-0.018,4.3,3.455,7.8,7.755,7.817c0.011,0,0.021,0,0.032,0
	c4.286,0,7.769-3.466,7.785-7.756l0.33-83.398C393.759,102.409,390.286,98.909,385.986,98.892z"/>
<path fill="param(fill)" fill-opacity="param(fill-opacity)" stroke="param(outline)" stroke-opacity="param(outline-opacity)" stroke-width="param(outline-width)" d="M438.428,129.131c-3.867-1.887-8.527-0.279-10.412,3.585
	l-26.37,54.06c-1.886,3.865-0.281,8.526,3.584,10.412c1.1,0.536,2.263,0.79,3.408,0.79c2.884,0,5.655-1.609,7.004-4.375l26.37-54.06
	C443.897,135.679,442.293,131.017,438.428,129.131z"/>
<path fill="param(fill)" fill-opacity="param(fill-opacity)" stroke="param(outline)" stroke-opacity="param(outline-opacity)" stroke-width="param(outline-width)" d="M473.484,151.552c-3.072-3.011-8.002-2.959-11.012,0.111
	l-32.305,32.963c-3.01,3.071-2.96,8.001,0.111,11.011c1.516,1.485,3.483,2.226,5.449,2.226c2.02,0,4.037-0.781,5.563-2.336
	l32.305-32.963C476.605,159.492,476.556,154.562,473.484,151.552z"/>
<path fill="param(fill)" fill-opacity="param(fill-opacity)" stroke="param(outline)" stroke-opacity="param(outline-opacity)" stroke-width="param(outline-width)" d="M356.184,193.104c1.224,3.034,4.142,4.875,7.224,4.875
	c0.97,0,1.956-0.183,2.911-0.568c3.987-1.609,5.916-6.146,4.307-10.134l-22.745-56.368c-1.609-3.988-6.145-5.917-10.135-4.307
	c-3.987,1.609-5.916,6.146-4.307,10.134L356.184,193.104z"/>
<path fill="param(fill)" fill-opacity="param(fill-opacity)" stroke="param(outline)" stroke-opacity="param(outline-opacity)" stroke-width="param(outline-width)" d="M336.317,197.863c1.993,0,3.985-0.76,5.506-2.281
	c3.041-3.041,3.041-7.971,0-11.012l-31.975-31.975c-3.041-3.041-7.971-3.041-11.012,0c-3.041,3.041-3.041,7.971,0,11.012
	l31.975,31.975C332.332,197.103,334.324,197.863,336.317,197.863z"/>
<path fill="param(fill)" fill-opacity="param(fill-opacity)" stroke="param(outline)" stroke-opacity="param(outline-opacity)" stroke-width="param(outline-width)" d="M289.985,344.893c-0.01,0-0.021-0.001-0.031-0.001
	c-4.286,0-7.769,3.467-7.786,7.756l-0.33,83.398c-0.017,4.301,3.456,7.801,7.756,7.817c0.01,0,0.021,0.001,0.031,0.001
	c4.287,0,7.769-3.467,7.786-7.756l0.33-83.398C297.758,348.409,294.286,344.909,289.985,344.893z"/>
<path fill="param(fill)" fill-opacity="param(fill-opacity)" stroke="param(outline)" stroke-opacity="param(outline-opacity)" stroke-width="param(outline-width)" d="M342.428,375.132c-3.868-1.886-8.528-0.28-10.412,3.584
	l-26.37,54.06c-1.886,3.865-0.281,8.527,3.584,10.412c1.1,0.536,2.263,0.79,3.408,0.79c2.884,0,5.655-1.608,7.004-4.374l26.37-54.06
	C347.897,381.679,346.293,377.017,342.428,375.132z"/>
<path fill="param(fill)" fill-opacity="param(fill-opacity)" stroke="param(outline)" stroke-opacity="param(outline-opacity)" stroke-width="param(outline-width)" d="M366.473,397.663l-32.305,32.964
	c-3.01,3.071-2.96,8.002,0.111,11.012c1.516,1.485,3.483,2.226,5.449,2.226c2.02,0,4.037-0.781,5.563-2.337l32.305-32.964
	c3.01-3.071,2.96-8.002-0.111-11.012C374.412,394.541,369.482,394.593,366.473,397.663z"/>
<path fill="param(fill)" fill-opacity="param(fill-opacity)" stroke="param(outline)" stroke-opacity="param(outline-opacity)" stroke-width="param(outline-width)" d="M251.88,376.908c-1.609-3.988-6.147-5.918-10.134-4.307
	c-3.988,1.609-5.917,6.146-4.307,10.135l22.745,56.367c1.224,3.033,4.142,4.875,7.223,4.875c0.97,0,1.957-0.183,2.911-0.568
	c3.988-1.609,5.917-6.146,4.307-10.135L251.88,376.908z"/>
<path fill="param(fill)" fill-opacity="param(fill-opacity)" stroke="param(outline)" stroke-opacity="param(outline-opacity)" stroke-width="param(outline-width)" d="M213.849,398.596c-3.041-3.041-7.972-3.042-11.012,0
	c-3.041,3.041-3.041,7.971,0,11.012l31.975,31.976c1.521,1.521,3.513,2.281,5.506,2.281c1.993,0,3.986-0.761,5.506-2.281
	c3.041-3.041,3.041-7.971,0-11.012L213.849,398.596z"/>
</svg>
