<svg enable-background="new 0 0 580 580" height="580" viewBox="0 0 580 580" width="580" xmlns="http://www.w3.org/2000/svg">
<path d="m412.203 390.938l-43.753-64.439 27.66 6.701c.166.04.334.06.501.06.007 0 .021 0 .02 0 1.177 0 2.13-.953 2.13-2.129 0-.501-.174-.962-.463-1.326l-36.178-59.671 22.456 6.487c.803.234 1.665-.026 2.207-.66.543-.633.666-1.525.315-2.282l-89.026-191.761c-.374-.806-1.2-1.281-2.064-1.229-.854-.053-1.69.423-2.064 1.229l-88.894 191.76c-.348.751-.229 1.635.304 2.268.533.632 1.385.899 2.184.683l24.256-6.564-38.185 59.92c-.467.732-.442 1.675.063 2.382.505.706 1.389 1.035 2.232.832l27.799-6.707-43.9 64.655c-.475.7-.491 1.614-.041 2.33.451.716 1.28 1.095 2.118.972l89.909-13.474v95.737c0 1.176.954 2.129 2.129 2.129h21.958c.045 0 .089-.001.133-.004.044.003.088.004.133.004h21.957c1.176 0 2.129-.953 2.129-2.129v-95.737l90.042 13.474c.105.016.211.023.315.023.009 0 .017 0 .02 0 1.177 0 2.13-.953 2.13-2.129-.002-.538-.202-1.03-.532-1.405z" fill="param(fill)" fill-opacity="param(fill-opacity)" stroke="param(outline)" stroke-opacity="param(outline-opacity)" stroke-width="param(outline-width)"/>
</svg>
