<?xml version="1.0" encoding="utf-8"?>
<!-- Generator: Adobe Illustrator 16.0.0, SVG Export Plug-In . SVG Version: 6.00 Build 0)  -->
<!DOCTYPE svg PUBLIC "-//W3C//DTD SVG 1.1//EN" "http://www.w3.org/Graphics/SVG/1.1/DTD/svg11.dtd">
<svg version="1.1"
	 id="svg2" xmlns:dc="http://purl.org/dc/elements/1.1/" xmlns:cc="http://creativecommons.org/ns#" xmlns:rdf="http://www.w3.org/1999/02/22-rdf-syntax-ns#" xmlns:svg="http://www.w3.org/2000/svg" xmlns:sodipodi="http://sodipodi.sourceforge.net/DTD/sodipodi-0.dtd" xmlns:inkscape="http://www.inkscape.org/namespaces/inkscape" inkscape:output_extension="org.inkscape.output.svg.inkscape" sodipodi:docname="landuse_hills.svg" inkscape:version="0.47 r22583" sodipodi:version="0.32"
	 xmlns="http://www.w3.org/2000/svg" xmlns:xlink="http://www.w3.org/1999/xlink" x="0px" y="0px" width="580px" height="580px"
	 viewBox="0 0 580 580" enable-background="new 0 0 580 580" xml:space="preserve">
<sodipodi:namedview  showgrid="false" inkscape:cy="24.040265" inkscape:cx="584.12743" inkscape:zoom="0.70710678" pagecolor="#ffffff" bordercolor="#666666" guidetolerance="10.0" objecttolerance="10.0" gridtolerance="10.0" borderopacity="1.0" id="base" inkscape:window-maximized="0" inkscape:current-layer="svg2" inkscape:window-y="20" inkscape:window-x="0" inkscape:pageopacity="0.0" inkscape:pageshadow="2" inkscape:window-width="1400" inkscape:window-height="1003" inkscape:guide-bbox="true" showguides="true">
	</sodipodi:namedview>
<defs>
	
	
		<inkscape:perspective  inkscape:vp_z="580 : 290 : 1" inkscape:vp_y="0 : 1000 : 0" inkscape:vp_x="0 : 290 : 1" sodipodi:type="inkscape:persp3d" id="perspective12" inkscape:persp3d-origin="290 : 193.33333 : 1">
		</inkscape:perspective>
	
		<inkscape:perspective  inkscape:vp_z="58.232063 : 29.116032 : 1" inkscape:vp_y="0 : 1000 : 0" inkscape:vp_x="0 : 29.116032 : 1" sodipodi:type="inkscape:persp3d" id="perspective6807" inkscape:persp3d-origin="29.116032 : 19.410688 : 1">
		</inkscape:perspective>
	
		<inkscape:perspective  inkscape:vp_z="580 : 290 : 1" inkscape:vp_y="0 : 1000 : 0" inkscape:vp_x="0 : 290 : 1" sodipodi:type="inkscape:persp3d" id="perspective6954" inkscape:persp3d-origin="290 : 193.33333 : 1">
		</inkscape:perspective>
	
		<inkscape:perspective  inkscape:vp_z="480 : 240 : 1" inkscape:vp_y="0 : 1000 : 0" inkscape:vp_x="0 : 240 : 1" sodipodi:type="inkscape:persp3d" id="perspective2541" inkscape:persp3d-origin="240 : 160 : 1">
		</inkscape:perspective>
	
		<inkscape:perspective  inkscape:vp_z="430 : 215 : 1" inkscape:vp_y="0 : 1000 : 0" inkscape:vp_x="0 : 215 : 1" sodipodi:type="inkscape:persp3d" id="perspective2750" inkscape:persp3d-origin="215 : 143.33333 : 1">
		</inkscape:perspective>
	
		<inkscape:perspective  inkscape:vp_z="1 : 0.5 : 1" inkscape:vp_y="0 : 1000 : 0" inkscape:vp_x="0 : 0.5 : 1" sodipodi:type="inkscape:persp3d" id="perspective2830" inkscape:persp3d-origin="0.5 : 0.33333333 : 1">
		</inkscape:perspective>
	
		<inkscape:perspective  inkscape:vp_z="1 : 0.5 : 1" inkscape:vp_y="0 : 1000 : 0" inkscape:vp_x="0 : 0.5 : 1" sodipodi:type="inkscape:persp3d" id="perspective3648" inkscape:persp3d-origin="0.5 : 0.33333333 : 1">
		</inkscape:perspective>
</defs>
<path fill="param(fill) #FFF" stroke="param(outline) #000" stroke-width="param(outline-width) 1" d="M417.673,191.683c-14.715-13.834-35.855-12.629-54.69-12.934
	c-18.371,0.595-37.24,3.302-53.875,11.219c-11.255,7.221-22.362,14.503-33.406,22.031c-1.469,1.06-6.639,5.093-2.094,3.063
	c23.149-7.605,43.811-22.259,68.192-26.477c20.609-5.155,44.554-7.485,63.058,4.883c12.343,7.709,22.995,18.057,36.313,24.25
	c14.277,7.771,24.718,24.761,41.094,26.75C465.876,221.336,437.517,211.421,417.673,191.683z"/>
<path fill="param(fill) #FFF" stroke="param(outline) #000" stroke-width="param(outline-width) 1" d="M101.669,121.968c13.177-9.537,29.872-12.009,45.261-16.373
	c24.519-5.322,49.91-8.779,74.994-6.653c17.924,4.576,29.13,21.095,44.844,29.969c15.176,9.893,31.525,18.737,45.25,30.25
	c1.116-1.924-0.915-5.534-1.156-7.844c-3.152-7.062-11.434-9.867-17.188-14.531c-15.563-9.479-31.548-18.77-44.281-31.813
	c-7.392-7.119-17.214-11.069-27.5-10.469c-8.387-0.443-16.793-0.332-25.188-0.25c-39.221-0.837-81.185,5.735-111.324,32.742
	c-17.847,15.206-33.764,33.63-55.27,43.758c-2.651,3.01,2.8,3.759,4.906,3c9.019-2.279,15.955-9.352,24.077-13.843
	C75.081,149.295,88.771,135.981,101.669,121.968z"/>
<path fill="param(fill) #FFF" stroke="param(outline) #000" stroke-width="param(outline-width) 1" d="M291.28,269.351c-9.359-7.951-17.805-19.737-31.381-19.944
	c-9.723-1.541-19.366-3.618-29.244-3.399c-31.624,2.612-64.409,9.423-89.712,29.655c-17.035,12.839-31.042,29.795-50.069,39.688
	c-1.921,2.781,2.842,7.286,4.938,3.781c24.245-13.165,41.551-35.816,64.844-50.219c22.749-11.924,48.953-14.498,74.094-17.625
	c17.573-0.897,36.199,4.805,47.563,18.719c15.265,12.857,34.814,19.832,48.813,34.188c6.339,5.221,11.499,13.496,19.438,15.438
	c-0.531-5.862-6.281-9.815-9.531-14.344C327.004,290.005,308.179,280.817,291.28,269.351z"/>
</svg>
