<svg enable-background="new 0 0 580 580" height="580" viewBox="0 0 580 580" width="580" xmlns="http://www.w3.org/2000/svg">
<path d="m417.673 191.683c-14.715-13.834-35.855-12.629-54.69-12.934-18.371.595-37.24 3.302-53.875 11.219-11.255 7.221-22.362 14.503-33.406 22.031-1.469 1.06-6.639 5.093-2.094 3.063 23.149-7.605 43.811-22.259 68.192-26.477 20.609-5.155 44.554-7.485 63.058 4.883 12.343 7.709 22.995 18.057 36.313 24.25 14.277 7.771 24.718 24.761 41.094 26.75-16.389-23.132-44.748-33.047-64.592-52.785z" fill="param(fill)" fill-opacity="param(fill-opacity)" stroke="param(outline)" stroke-opacity="param(outline-opacity)" stroke-width="param(outline-width)"/>
<path d="m101.669 121.968c13.177-9.537 29.872-12.009 45.261-16.373 24.519-5.322 49.91-8.779 74.994-6.653 17.924 4.576 29.13 21.095 44.844 29.969 15.176 9.893 31.525 18.737 45.25 30.25 1.116-1.924-.915-5.534-1.156-7.844-3.152-7.062-11.434-9.867-17.188-14.531-15.563-9.479-31.548-18.77-44.281-31.813-7.392-7.119-17.214-11.069-27.5-10.469-8.387-.443-16.793-.332-25.188-.25-39.221-.837-81.185 5.735-111.324 32.742-17.847 15.206-33.764 33.63-55.27 43.758-2.651 3.01 2.8 3.759 4.906 3 9.019-2.279 15.955-9.352 24.077-13.843 15.987-10.616 29.677-23.93 42.575-37.943z" fill="param(fill)" fill-opacity="param(fill-opacity)" stroke="param(outline)" stroke-opacity="param(outline-opacity)" stroke-width="param(outline-width)"/>
<path d="m291.28 269.351c-9.359-7.951-17.805-19.737-31.381-19.944-9.723-1.541-19.366-3.618-29.244-3.399-31.624 2.612-64.409 9.423-89.712 29.655-17.035 12.839-31.042 29.795-50.069 39.688-1.921 2.781 2.842 7.286 4.938 3.781 24.245-13.165 41.551-35.816 64.844-50.219 22.749-11.924 48.953-14.498 74.094-17.625 17.573-.897 36.199 4.805 47.563 18.719 15.265 12.857 34.814 19.832 48.813 34.188 6.339 5.221 11.499 13.496 19.438 15.438-.531-5.862-6.281-9.815-9.531-14.344-14.029-15.284-32.854-24.472-49.753-35.938z" fill="param(fill)" fill-opacity="param(fill-opacity)" stroke="param(outline)" stroke-opacity="param(outline-opacity)" stroke-width="param(outline-width)"/>
</svg>
