<?xml version="1.0" encoding="utf-8"?>
<!-- Generator: Adobe Illustrator 16.0.0, SVG Export Plug-In . SVG Version: 6.00 Build 0)  -->
<!DOCTYPE svg PUBLIC "-//W3C//DTD SVG 1.1//EN" "http://www.w3.org/Graphics/SVG/1.1/DTD/svg11.dtd">
<svg version="1.1"
	 id="svg2" xmlns:dc="http://purl.org/dc/elements/1.1/" xmlns:cc="http://creativecommons.org/ns#" xmlns:rdf="http://www.w3.org/1999/02/22-rdf-syntax-ns#" xmlns:svg="http://www.w3.org/2000/svg" xmlns:sodipodi="http://sodipodi.sourceforge.net/DTD/sodipodi-0.dtd" xmlns:inkscape="http://www.inkscape.org/namespaces/inkscape" inkscape:output_extension="org.inkscape.output.svg.inkscape" sodipodi:docname="landuse_hills.svg" inkscape:version="0.47 r22583" sodipodi:version="0.32"
	 xmlns="http://www.w3.org/2000/svg" xmlns:xlink="http://www.w3.org/1999/xlink" x="0px" y="0px" width="580px" height="580px"
	 viewBox="0 0 580 580" enable-background="new 0 0 580 580" xml:space="preserve">
<sodipodi:namedview  showgrid="false" inkscape:cy="241.60156" inkscape:cx="125.94155" inkscape:zoom="1" pagecolor="#ffffff" bordercolor="#666666" guidetolerance="10.0" objecttolerance="10.0" gridtolerance="10.0" borderopacity="1.0" id="base" inkscape:window-maximized="0" inkscape:current-layer="svg2" inkscape:window-y="20" inkscape:window-x="0" inkscape:pageopacity="0.0" inkscape:pageshadow="2" inkscape:window-width="1400" inkscape:window-height="1003" inkscape:guide-bbox="true" showguides="true">
	</sodipodi:namedview>
<defs>
	
	
		<inkscape:perspective  inkscape:vp_z="580 : 290 : 1" inkscape:vp_y="0 : 1000 : 0" inkscape:vp_x="0 : 290 : 1" sodipodi:type="inkscape:persp3d" id="perspective12" inkscape:persp3d-origin="290 : 193.33333 : 1">
		</inkscape:perspective>
	
		<inkscape:perspective  inkscape:vp_z="58.232063 : 29.116032 : 1" inkscape:vp_y="0 : 1000 : 0" inkscape:vp_x="0 : 29.116032 : 1" sodipodi:type="inkscape:persp3d" id="perspective6807" inkscape:persp3d-origin="29.116032 : 19.410688 : 1">
		</inkscape:perspective>
	
		<inkscape:perspective  inkscape:vp_z="580 : 290 : 1" inkscape:vp_y="0 : 1000 : 0" inkscape:vp_x="0 : 290 : 1" sodipodi:type="inkscape:persp3d" id="perspective6954" inkscape:persp3d-origin="290 : 193.33333 : 1">
		</inkscape:perspective>
	
		<inkscape:perspective  inkscape:vp_z="480 : 240 : 1" inkscape:vp_y="0 : 1000 : 0" inkscape:vp_x="0 : 240 : 1" sodipodi:type="inkscape:persp3d" id="perspective2541" inkscape:persp3d-origin="240 : 160 : 1">
		</inkscape:perspective>
	
		<inkscape:perspective  inkscape:vp_z="430 : 215 : 1" inkscape:vp_y="0 : 1000 : 0" inkscape:vp_x="0 : 215 : 1" sodipodi:type="inkscape:persp3d" id="perspective2750" inkscape:persp3d-origin="215 : 143.33333 : 1">
		</inkscape:perspective>
	
		<inkscape:perspective  inkscape:vp_z="1 : 0.5 : 1" inkscape:vp_y="0 : 1000 : 0" inkscape:vp_x="0 : 0.5 : 1" sodipodi:type="inkscape:persp3d" id="perspective2830" inkscape:persp3d-origin="0.5 : 0.33333333 : 1">
		</inkscape:perspective>
	
		<inkscape:perspective  inkscape:vp_z="1 : 0.5 : 1" inkscape:vp_y="0 : 1000 : 0" inkscape:vp_x="0 : 0.5 : 1" sodipodi:type="inkscape:persp3d" id="perspective3648" inkscape:persp3d-origin="0.5 : 0.33333333 : 1">
		</inkscape:perspective>
</defs>
<path fill="#FFFB3D" stroke="#1EFF31" stroke-width="4.4444" d="M184.592,135.511c-1.139-8.429-8.145-13.298-13.774-17.21
	c-1.151-0.8-2.239-1.556-3.226-2.302c-0.31-0.234-0.649-0.426-1.009-0.57c-1.324-0.529-3.057-1.068-4.987-0.844
	c-0.183,0.021-0.365,0.054-0.543,0.098c-1.843,0.455-4.118,0.493-6.29,0.493l-2.165-0.005c-4.931,0-12.383,0-17.266,6.201
	c-0.402,0.511-0.685,1.106-0.827,1.741c-1.047,4.68,0.229,9.706,3.5,13.791c3.293,4.112,8.138,6.567,12.958,6.567
	c1.198,0,2.388-0.148,3.548-0.441c1.688,0.082,3.474,0.271,5.353,0.47c2.725,0.29,5.543,0.588,8.393,0.588
	c3.903,0,9.681-0.479,14.77-4.621C184.202,138.511,184.795,137.013,184.592,135.511z M168.257,135.389
	c-2.389,0-4.975-0.274-7.475-0.54c-2.186-0.232-4.447-0.472-6.647-0.54c-0.045-0.001-0.09-0.002-0.135-0.002
	c-0.44,0-0.877,0.067-1.298,0.198c-2.684,0.837-5.806-0.417-7.907-3.04c-1.338-1.671-2.027-3.648-1.934-5.46
	c1.951-1.783,4.933-2.134,9.736-2.134l2.165,0.005c2.538,0,5.225-0.051,7.85-0.625c0.058,0.014,0.138,0.037,0.251,0.075
	c0.975,0.719,1.997,1.429,2.99,2.12c3.781,2.627,7.666,5.327,9.337,8.722C173.334,135.003,171.097,135.389,168.257,135.389z"/>
<path fill="#FFFB3D" stroke="#1EFF31" stroke-width="4.4444" d="M221.818,306.301c-1.151-0.8-2.239-1.556-3.226-2.302
	c-0.31-0.234-0.649-0.426-1.009-0.569c-1.324-0.529-3.058-1.067-4.987-0.845c-0.183,0.021-0.365,0.054-0.543,0.098
	c-1.844,0.455-4.12,0.493-6.293,0.493l-2.159-0.005c-4.932,0-12.386,0-17.269,6.2c-0.402,0.512-0.685,1.106-0.827,1.741
	c-1.047,4.68,0.229,9.706,3.5,13.791c3.294,4.112,8.138,6.567,12.958,6.567c1.198,0,2.388-0.148,3.548-0.44
	c1.687,0.081,3.473,0.271,5.352,0.47c2.726,0.289,5.544,0.589,8.394,0.589c0,0,0.001,0,0.001,0c3.903,0,9.68-0.479,14.769-4.621
	c1.175-0.956,1.768-2.455,1.565-3.956C234.454,315.082,227.447,310.214,221.818,306.301z M219.258,323.389c0,0-0.001,0-0.001,0
	c-2.389,0-4.975-0.274-7.475-0.54c-2.186-0.231-4.446-0.472-6.646-0.54c-0.045-0.002-0.09-0.002-0.136-0.002
	c-0.44,0-0.877,0.066-1.298,0.198c-2.682,0.833-5.806-0.416-7.907-3.04c-1.338-1.672-2.027-3.647-1.934-5.46
	c1.951-1.783,4.934-2.134,9.739-2.134l2.159,0.005c2.539,0,5.227-0.051,7.853-0.625c0.058,0.014,0.138,0.037,0.251,0.074
	c0.975,0.72,1.997,1.43,2.99,2.12c3.781,2.627,7.666,5.327,9.337,8.723C224.334,323.003,222.098,323.389,219.258,323.389z"/>
<path fill="#FFFB3D" stroke="#1EFF31" stroke-width="4.4444" d="M336.605,236.569c1.537-1.128,2.16-3.126,1.537-4.929
	c-2.985-8.63-11.634-13.393-17.356-16.545c-0.461-0.253-0.961-0.42-1.477-0.495c-0.261-0.061-0.656-0.132-1.133-0.132
	c-0.728,0-1.429,0.164-2.063,0.473c-1.303,0.226-2.719,0.259-3.857,0.259c-0.75,0-1.506-0.016-2.262-0.031
	c-0.814-0.017-1.629-0.033-2.438-0.033c-4.646,0-9.951,0.574-14.085,4.833c-0.641,0.66-1.056,1.507-1.185,2.418
	c-0.589,4.152,0.668,8.261,3.541,11.57c3.032,3.493,7.517,5.578,11.996,5.578c1.252,0,2.487-0.159,3.684-0.475
	c1.554,0.078,3.216,0.268,4.964,0.466c2.536,0.289,5.159,0.587,7.813,0.587C329.323,240.116,333.354,238.956,336.605,236.569z
	 M311.095,230.339c-0.042-0.001-0.084-0.002-0.126-0.002c-0.461,0-0.92,0.073-1.358,0.218c-2.392,0.785-5.397-0.208-7.212-2.299
	c-0.527-0.607-1.3-1.718-1.502-3.178c1.648-1.015,3.782-1.241,6.66-1.241c0.75,0,1.506,0.015,2.262,0.031
	c0.814,0.016,1.629,0.032,2.438,0.032c1.587,0,3.608-0.055,5.663-0.444c4.053,2.279,7.771,4.649,10.095,7.609
	c-1.078,0.238-2.306,0.351-3.729,0.351c-2.159,0-4.533-0.27-6.829-0.531C315.364,230.646,313.202,230.4,311.095,230.339z"/>
<path fill="#FFFB3D" stroke="#1EFF31" stroke-width="4.4444" d="M187.786,224.451c0.987-0.052,1.919-0.101,2.819-0.101
	c1.502,0,2.602,0.138,3.563,0.447c0.088,0.028,0.178,0.054,0.268,0.077c1.153,0.291,2.058,0.427,2.846,0.427c0,0,0,0,0,0
	c2.872,0,4.4-1.861,4.836-3.455c1.051-3.843-2.949-6.358-4.502-7.281c-3.182-2.213-6.57-2.501-9.18-2.501
	c-1.039,0-2.055,0.051-3.038,0.101c-1.861,0.094-3.595,0.139-4.807-0.054c-0.07-0.011-0.141-0.021-0.211-0.029
	c-0.353-0.039-0.688-0.056-1.005-0.056c-3.675,0-5.782,2.28-6.24,4.54c-0.426,2.106,0.394,5.123,4.099,6.687
	c2.757,1.173,5.494,1.309,7.312,1.309C185.657,224.562,186.739,224.505,187.786,224.451z"/>
<path fill="#FFFB3D" stroke="#1EFF31" stroke-width="4.4444" d="M380.146,348.522c0.875-12.831-10.685-19.888-19.124-25.04
	l-1.427-0.873c-0.334-0.206-0.693-0.365-1.07-0.475c-1.76-0.51-3.442-0.704-5.086-0.563c-0.118,0.011-0.236,0.025-0.354,0.045
	c-2.098,0.356-4.565,0.421-7.178,0.49c-7.871,0.206-17.668,0.464-22.721,9.676c-0.155,0.282-0.279,0.582-0.368,0.893
	c-1.624,5.663-0.333,11.861,3.542,17.004c4.188,5.559,10.522,8.877,16.944,8.877c1.348,0,2.686-0.149,3.989-0.444
	c1.07,0.093,2.18,0.208,3.316,0.326c3.113,0.323,6.332,0.658,9.629,0.658c0.008,0,0.015,0,0.022,0c3.306,0,13.259-0.02,19.107-8.376
	C379.823,350.072,380.092,349.313,380.146,348.522z M360.239,350.396c-2.846,0-5.837-0.311-8.73-0.611
	c-1.462-0.152-2.883-0.299-4.236-0.403c-0.111-0.009-0.224-0.013-0.335-0.013c-0.389,0-0.777,0.052-1.153,0.155
	c-4.26,1.17-9.378-0.969-12.476-5.08c-2.102-2.789-2.907-6.006-2.248-8.9c2.548-4.11,7.444-4.539,15.075-4.74
	c2.726-0.071,5.541-0.146,8.184-0.572c0.393-0.016,0.808,0.026,1.274,0.129l0.895,0.548c8.253,5.038,14.648,9.455,14.987,15.788
	C369.175,349.246,365.644,350.396,360.239,350.396z"/>
<path fill="#FFFB3D" stroke="#1EFF31" stroke-width="4.4444" d="M284.399,287.165c-1.86,0.094-3.594,0.14-4.807-0.054
	c-0.07-0.011-0.141-0.021-0.211-0.029c-0.353-0.039-0.688-0.056-1.006-0.056c-3.674,0-5.781,2.28-6.239,4.54
	c-0.427,2.105,0.393,5.122,4.098,6.688c2.757,1.173,5.494,1.309,7.312,1.309c1.11,0,2.193-0.057,3.24-0.111
	c0.987-0.051,1.919-0.1,2.819-0.1c1.502,0,2.602,0.138,3.563,0.447c0.089,0.028,0.179,0.054,0.269,0.076
	c1.153,0.291,2.059,0.427,2.846,0.427c2.873,0,4.401-1.862,4.837-3.456c1.051-3.843-2.949-6.357-4.503-7.28
	c-3.182-2.213-6.57-2.5-9.179-2.5C286.398,287.064,285.382,287.115,284.399,287.165z"/>
<path fill="#FFFB3D" stroke="#1EFF31" stroke-width="4.4444" d="M103.594,269.589c1.412,0,2.862-0.152,4.232-0.442
	c1.126,0.057,2.484,0.249,3.912,0.449c2.068,0.292,4.207,0.593,6.298,0.593c0,0,0,0,0.001,0c2.624,0,4.73-0.496,6.44-1.515
	c1.1-0.655,1.854-1.762,2.064-3.024c0.209-1.263-0.148-2.554-0.977-3.529c-3.137-3.69-8.134-8.262-14.128-9.086
	c-0.531-0.073-1.069-0.047-1.591,0.076c-1.151,0.273-3.076,0.202-5.163,0.062c-1.154-0.077-2.347-0.156-3.563-0.156
	c-2.598,0-6.41,0.333-9.493,3.21c-1.102,1.028-1.593,2.554-1.298,4.032C91.477,266.013,96.56,269.589,103.594,269.589z"/>
<path fill="#FFFB3D" stroke="#1EFF31" stroke-width="4.4444" d="M126.436,399.034c-0.53-0.074-1.07-0.047-1.59,0.075
	c-1.152,0.272-3.077,0.202-5.163,0.063c-1.154-0.077-2.347-0.156-3.563-0.156c-2.599,0-6.41,0.332-9.494,3.21
	c-1.102,1.028-1.593,2.554-1.298,4.032c1.148,5.755,6.232,9.33,13.267,9.33c1.412,0,2.862-0.151,4.231-0.441
	c1.126,0.058,2.485,0.249,3.913,0.45c2.068,0.291,4.206,0.592,6.297,0.592c0,0,0,0,0,0c2.624,0,4.73-0.495,6.44-1.515
	c1.1-0.655,1.854-1.762,2.064-3.024c0.209-1.264-0.148-2.554-0.977-3.529C137.427,404.43,132.43,399.858,126.436,399.034z"/>
<path fill="#FFFB3D" stroke="#1EFF31" stroke-width="4.4444" d="M89.818,509.301c-1.151-0.8-2.239-1.556-3.226-2.302
	c-0.31-0.234-0.649-0.426-1.009-0.569c-1.325-0.529-3.058-1.067-4.987-0.845c-0.183,0.021-0.365,0.054-0.543,0.098
	c-1.844,0.455-4.12,0.493-6.293,0.493l-2.159-0.005c-4.932,0-12.386,0-17.269,6.2c-0.402,0.512-0.685,1.106-0.827,1.741
	c-1.047,4.68,0.229,9.706,3.5,13.791c3.294,4.112,8.138,6.567,12.958,6.567c1.198,0,2.388-0.148,3.548-0.44
	c1.687,0.081,3.473,0.271,5.352,0.47c2.726,0.289,5.544,0.589,8.394,0.589c0,0,0.001,0,0.001,0c3.903,0,9.68-0.479,14.769-4.621
	c1.175-0.956,1.768-2.455,1.565-3.956C102.454,518.082,95.447,513.214,89.818,509.301z M87.258,526.389c0,0-0.001,0-0.001,0
	c-2.389,0-4.975-0.274-7.475-0.54c-2.186-0.231-4.446-0.472-6.646-0.54c-0.045-0.002-0.09-0.002-0.136-0.002
	c-0.44,0-0.877,0.066-1.298,0.198c-2.681,0.835-5.805-0.416-7.907-3.04c-1.338-1.672-2.027-3.647-1.934-5.46
	c1.951-1.783,4.934-2.134,9.739-2.134l2.159,0.005c2.539,0,5.227-0.051,7.853-0.625c0.058,0.014,0.138,0.037,0.251,0.074
	c0.975,0.72,1.997,1.43,2.99,2.12c3.781,2.627,7.666,5.327,9.337,8.723C92.334,526.003,90.098,526.389,87.258,526.389z"/>
<path fill="#FFFB3D" stroke="#1EFF31" stroke-width="4.4444" d="M202.617,490.564c-3.182-2.213-6.57-2.5-9.18-2.5
	c-1.039,0-2.055,0.051-3.038,0.101c-1.86,0.095-3.594,0.14-4.807-0.055c-0.07-0.011-0.141-0.021-0.211-0.028
	c-0.353-0.038-0.688-0.056-1.006-0.056c-3.675,0-5.781,2.279-6.239,4.539c-0.427,2.106,0.393,5.122,4.098,6.688
	c2.757,1.173,5.494,1.309,7.312,1.309c1.11,0,2.193-0.057,3.24-0.111c0.987-0.051,1.919-0.1,2.819-0.1
	c1.502,0,2.602,0.138,3.563,0.447c0.088,0.028,0.178,0.054,0.268,0.076c1.154,0.291,2.058,0.427,2.846,0.427
	c2.873,0,4.401-1.861,4.836-3.456C208.169,494.002,204.169,491.487,202.617,490.564z"/>
<path fill="#FFFB3D" stroke="#1EFF31" stroke-width="4.4444" d="M61.287,339.389c-0.589,4.152,0.668,8.262,3.542,11.571
	c3.032,3.492,7.517,5.577,11.996,5.577c1.251,0,2.487-0.159,3.684-0.475c1.554,0.078,3.217,0.268,4.965,0.467
	c2.536,0.288,5.159,0.587,7.813,0.587c5.039,0,9.068-1.16,12.32-3.547c1.537-1.129,2.16-3.126,1.537-4.929
	c-2.984-8.631-11.634-13.394-17.357-16.545c-0.46-0.254-0.961-0.421-1.477-0.495c-0.26-0.06-0.655-0.131-1.131-0.131
	c-0.727,0-1.428,0.164-2.063,0.472c-1.302,0.227-2.72,0.259-3.858,0.259c-0.75,0-1.506-0.016-2.262-0.03
	c-0.814-0.017-1.629-0.032-2.438-0.032c-4.646,0-9.951,0.574-14.084,4.833C61.831,337.631,61.416,338.478,61.287,339.389z
	 M76.557,340.837c0.75,0,1.506,0.016,2.262,0.031c0.814,0.017,1.629,0.032,2.438,0.032c1.587,0,3.608-0.055,5.663-0.444
	c4.054,2.279,7.772,4.648,10.095,7.609c-1.078,0.237-2.306,0.351-3.729,0.351c-2.16,0-4.533-0.271-6.829-0.531
	c-2.091-0.238-4.254-0.484-6.362-0.546c-0.042-0.001-0.084-0.001-0.126-0.001c-0.461,0-0.92,0.073-1.359,0.217
	c-2.392,0.786-5.397-0.208-7.211-2.299c-0.527-0.607-1.3-1.718-1.501-3.177C71.545,341.064,73.679,340.837,76.557,340.837z"/>
<path fill="#FFFB3D" stroke="#1EFF31" stroke-width="4.4444" d="M489.592,298.512c-1.139-8.429-8.145-13.298-13.773-17.21
	c-1.151-0.8-2.239-1.556-3.227-2.302c-0.31-0.234-0.649-0.426-1.01-0.57c-1.324-0.529-3.063-1.068-4.986-0.844
	c-0.184,0.021-0.364,0.054-0.544,0.098c-1.843,0.455-4.117,0.493-6.289,0.493l-2.165-0.005c-4.932,0-12.384,0-17.266,6.201
	c-0.402,0.511-0.685,1.106-0.827,1.741c-1.047,4.679,0.229,9.707,3.5,13.791c3.294,4.112,8.139,6.567,12.958,6.567
	c1.198,0,2.389-0.148,3.549-0.44c1.687,0.081,3.473,0.271,5.352,0.47c2.726,0.289,5.544,0.589,8.394,0.589h0.001
	c3.903,0,9.681-0.479,14.77-4.621C489.202,301.512,489.795,300.013,489.592,298.512z M473.258,298.389L473.258,298.389
	c-2.391,0-4.976-0.274-7.477-0.54c-2.186-0.231-4.446-0.472-6.646-0.54c-0.045-0.002-0.091-0.002-0.136-0.002
	c-0.439,0-0.878,0.066-1.298,0.197c-2.682,0.836-5.805-0.416-7.906-3.039c-1.339-1.672-2.027-3.647-1.935-5.46
	c1.951-1.783,4.933-2.134,9.736-2.134l2.165,0.005c2.537,0,5.225-0.051,7.85-0.624c0.058,0.014,0.139,0.037,0.251,0.074
	c0.975,0.719,1.997,1.43,2.99,2.12c3.78,2.627,7.665,5.327,9.337,8.723C478.334,298.003,476.098,298.389,473.258,298.389z"/>
<path fill="#FFFB3D" stroke="#1EFF31" stroke-width="4.4444" d="M53.272,185.097c3.314,0,13.254-0.027,19.097-8.376
	c0.454-0.648,0.722-1.408,0.776-2.198c0.875-12.832-10.684-19.888-19.124-25.041l-1.427-0.874c-0.333-0.206-0.693-0.365-1.069-0.474
	c-1.759-0.51-3.444-0.704-5.084-0.563c-0.119,0.01-0.238,0.025-0.355,0.045c-2.098,0.355-4.564,0.42-7.177,0.489
	c-7.872,0.207-17.669,0.464-22.722,9.677c-0.155,0.283-0.278,0.582-0.367,0.892c-1.625,5.664-0.334,11.861,3.541,17.004
	c4.188,5.558,10.522,8.876,16.945,8.876c1.348,0,2.686-0.149,3.989-0.444c1.07,0.093,2.18,0.208,3.316,0.326
	c3.114,0.324,6.333,0.658,9.629,0.658C53.25,185.097,53.261,185.097,53.272,185.097z M40.272,175.382
	c-0.112-0.009-0.223-0.013-0.335-0.013c-0.389,0-0.777,0.052-1.153,0.156c-4.265,1.172-9.379-0.97-12.476-5.08
	c-2.102-2.79-2.908-6.005-2.248-8.9c2.548-4.111,7.445-4.54,15.076-4.74c2.725-0.072,5.54-0.146,8.182-0.572
	c0.393-0.018,0.808,0.027,1.275,0.129l0.895,0.547c8.252,5.038,14.648,9.456,14.987,15.789c-2.3,2.55-5.832,3.7-11.235,3.7
	c-2.846,0-5.837-0.311-8.731-0.612C43.047,175.633,41.626,175.486,40.272,175.382z"/>
<path fill="#FFFB3D" stroke="#1EFF31" stroke-width="4.4444" d="M528.021,502.482l-1.427-0.873c-0.334-0.206-0.693-0.365-1.07-0.475
	c-1.761-0.511-3.443-0.705-5.086-0.563c-0.118,0.011-0.236,0.025-0.354,0.045c-2.097,0.355-4.563,0.421-7.176,0.489
	c-7.872,0.206-17.669,0.464-22.723,9.677c-0.155,0.282-0.279,0.582-0.368,0.893c-1.624,5.663-0.333,11.861,3.542,17.004
	c4.188,5.559,10.522,8.877,16.944,8.877c1.348,0,2.686-0.149,3.989-0.444c1.07,0.093,2.181,0.208,3.317,0.326
	c3.126,0.325,6.346,0.702,9.669,0.658c3.321,0,13.251-0.033,19.09-8.376c0.453-0.648,0.722-1.408,0.775-2.198
	C548.021,514.691,536.461,507.635,528.021,502.482z M527.242,529.396c0,0-0.001,0-0.002,0c-2.846,0-5.837-0.311-8.73-0.611
	c-1.462-0.151-2.884-0.299-4.237-0.403c-0.111-0.009-0.224-0.013-0.335-0.013c-0.389,0-0.777,0.052-1.153,0.155
	c-4.259,1.172-9.378-0.97-12.476-5.08c-2.102-2.79-2.908-6.006-2.248-8.9c2.548-4.111,7.445-4.54,15.077-4.74
	c2.725-0.072,5.539-0.146,8.182-0.572c0.392-0.014,0.809,0.027,1.274,0.129l0.895,0.548c8.253,5.038,14.648,9.455,14.987,15.788
	C536.175,528.247,532.645,529.396,527.242,529.396z"/>
<path fill="#FFFB3D" stroke="#1EFF31" stroke-width="4.4444" d="M505.438,455.064c-1.039,0-2.056,0.051-3.038,0.101
	c-1.858,0.095-3.593,0.141-4.808-0.055c-0.07-0.011-0.141-0.021-0.211-0.028c-0.353-0.038-0.688-0.056-1.006-0.056
	c-3.675,0-5.781,2.279-6.239,4.539c-0.427,2.106,0.394,5.122,4.099,6.688c2.757,1.173,5.493,1.309,7.312,1.309
	c1.11,0,2.193-0.057,3.24-0.111c0.986-0.051,1.919-0.1,2.818-0.1c1.503,0,2.603,0.138,3.563,0.447
	c0.089,0.028,0.179,0.054,0.269,0.076c1.153,0.291,2.059,0.427,2.846,0.427c2.873,0,4.401-1.862,4.837-3.456
	c1.051-3.843-2.949-6.357-4.503-7.28C511.435,455.352,508.047,455.064,505.438,455.064z"/>
<path fill="#FFFB3D" stroke="#1EFF31" stroke-width="4.4444" d="M398.437,510.034c-0.533-0.074-1.07-0.049-1.592,0.076
	c-1.152,0.271-3.076,0.202-5.164,0.062c-1.153-0.077-2.346-0.156-3.563-0.156c-2.598,0-6.408,0.333-9.492,3.21
	c-1.102,1.028-1.593,2.554-1.298,4.032c1.148,5.756,6.232,9.331,13.267,9.331c1.412,0,2.861-0.152,4.231-0.442
	c1.126,0.058,2.484,0.249,3.91,0.45c2.068,0.291,4.207,0.592,6.3,0.593c2.624,0,4.731-0.496,6.441-1.516
	c1.1-0.655,1.854-1.762,2.063-3.024c0.21-1.264-0.147-2.554-0.977-3.529C409.427,515.43,404.43,510.858,398.437,510.034z"/>
<path fill="#FFFB3D" stroke="#1EFF31" stroke-width="4.4444" d="M410.786,414.096c-0.461-0.254-0.962-0.421-1.479-0.495
	c-0.261-0.06-0.655-0.131-1.131-0.131c-0.727,0-1.428,0.164-2.063,0.472c-1.302,0.227-2.719,0.259-3.857,0.259
	c-0.75,0-1.506-0.016-2.262-0.03c-0.814-0.017-1.629-0.032-2.438-0.032c-4.646,0-9.951,0.574-14.085,4.833
	c-0.641,0.66-1.056,1.507-1.185,2.418c-0.59,4.152,0.668,8.262,3.541,11.571c3.032,3.492,7.517,5.577,11.996,5.577
	c1.252,0,2.487-0.159,3.684-0.475c1.553,0.078,3.215,0.268,4.962,0.466c2.537,0.289,5.16,0.588,7.814,0.588
	c5.039,0,9.069-1.16,12.321-3.547c1.537-1.128,2.16-3.126,1.537-4.929C425.157,422.011,416.509,417.247,410.786,414.096z
	 M414.284,430.416c-2.16,0-4.535-0.271-6.831-0.531c-2.09-0.238-4.251-0.484-6.357-0.546c-0.043-0.001-0.085-0.001-0.127-0.001
	c-0.461,0-0.92,0.073-1.358,0.217c-2.392,0.785-5.397-0.208-7.212-2.298c-0.527-0.607-1.301-1.718-1.502-3.178
	c1.648-1.015,3.782-1.242,6.66-1.242c0.75,0,1.506,0.016,2.262,0.031c0.814,0.017,1.629,0.032,2.438,0.032
	c1.587,0,3.608-0.055,5.663-0.444c4.053,2.279,7.771,4.648,10.095,7.608C416.936,430.303,415.708,430.416,414.284,430.416z"/>
<path fill="#FFFB3D" stroke="#1EFF31" stroke-width="4.4444" d="M292.818,450.301c-1.151-0.8-2.239-1.556-3.226-2.302
	c-0.31-0.234-0.649-0.426-1.009-0.569c-1.325-0.529-3.058-1.067-4.987-0.845c-0.183,0.021-0.365,0.054-0.543,0.098
	c-1.844,0.455-4.12,0.493-6.293,0.493l-2.159-0.005c-4.932,0-12.386,0-17.269,6.2c-0.402,0.512-0.685,1.106-0.827,1.741
	c-1.047,4.68,0.229,9.706,3.5,13.791c3.294,4.112,8.138,6.567,12.958,6.567c1.198,0,2.388-0.148,3.548-0.44
	c1.687,0.081,3.473,0.271,5.352,0.47c2.726,0.289,5.544,0.589,8.394,0.589c0,0,0.001,0,0.001,0c3.903,0,9.68-0.479,14.769-4.621
	c1.175-0.956,1.768-2.455,1.564-3.956C305.453,459.082,298.447,454.214,292.818,450.301z M290.258,467.389c0,0-0.001,0-0.001,0
	c-2.389,0-4.975-0.274-7.475-0.54c-2.186-0.231-4.446-0.472-6.646-0.54c-0.045-0.002-0.09-0.002-0.136-0.002
	c-0.44,0-0.877,0.066-1.298,0.198c-2.682,0.834-5.805-0.416-7.907-3.04c-1.338-1.672-2.027-3.647-1.934-5.46
	c1.951-1.783,4.934-2.134,9.739-2.134l2.159,0.005c2.539,0,5.227-0.051,7.853-0.625c0.058,0.014,0.138,0.037,0.251,0.074
	c0.975,0.72,1.997,1.43,2.99,2.12c3.781,2.627,7.666,5.327,9.337,8.723C295.334,467.003,293.098,467.389,290.258,467.389z"/>
<path fill="#FFFB3D" stroke="#1EFF31" stroke-width="4.4444" d="M472.332,136.372c-0.402,0.511-0.685,1.106-0.827,1.741
	c-1.047,4.68,0.229,9.707,3.5,13.791c3.294,4.112,8.138,6.567,12.958,6.567c1.198,0,2.389-0.148,3.549-0.441
	c1.688,0.082,3.474,0.271,5.353,0.47c2.726,0.29,5.543,0.588,8.393,0.588c0.001,0,0,0,0.001,0c3.902,0,9.68-0.479,14.77-4.621
	c1.175-0.957,1.768-2.455,1.564-3.957c-1.139-8.429-8.145-13.298-13.773-17.21c-1.151-0.8-2.239-1.556-3.227-2.302
	c-0.31-0.234-0.649-0.426-1.01-0.57c-1.11-0.444-2.462-0.897-4.059-0.897c-0.308,0-0.617,0.017-0.928,0.053
	c-0.184,0.021-0.364,0.054-0.544,0.098c-1.843,0.455-4.117,0.493-6.289,0.493l-2.165-0.005
	C484.666,130.17,477.214,130.17,472.332,136.372z M489.598,138.871l2.165,0.005c2.537,0,5.225-0.051,7.85-0.624
	c0.058,0.014,0.139,0.037,0.251,0.074c0.975,0.719,1.997,1.43,2.99,2.12c3.78,2.627,7.665,5.327,9.336,8.722
	c-1.855,0.835-4.092,1.221-6.933,1.221c-2.389,0-4.975-0.274-7.475-0.54c-2.186-0.232-4.446-0.472-6.646-0.54
	c-0.046-0.001-0.091-0.002-0.136-0.002c-0.439,0-0.878,0.067-1.298,0.198c-2.683,0.837-5.806-0.417-7.906-3.04
	c-1.339-1.671-2.027-3.648-1.935-5.46C481.813,139.222,484.794,138.871,489.598,138.871z"/>
<path fill="#FFFB3D" stroke="#1EFF31" stroke-width="4.4444" d="M454.234,96.252c2.757,1.173,5.493,1.309,7.312,1.309
	c1.11,0,2.193-0.056,3.24-0.111c0.986-0.052,1.919-0.101,2.818-0.101c1.503,0,2.603,0.138,3.563,0.447
	c0.089,0.028,0.179,0.054,0.269,0.077c1.153,0.291,2.058,0.427,2.846,0.427c0.001,0,0,0,0.001,0c2.872,0,4.4-1.861,4.836-3.456
	c1.051-3.842-2.949-6.357-4.502-7.28c-3.183-2.213-6.57-2.501-9.18-2.501c-1.039,0-2.056,0.051-3.038,0.101
	c-1.858,0.094-3.593,0.139-4.808-0.054c-0.07-0.011-0.141-0.021-0.211-0.029c-0.353-0.039-0.688-0.056-1.006-0.056
	c-3.675,0-5.781,2.28-6.239,4.54C449.71,91.672,450.53,94.688,454.234,96.252z"/>
<path fill="#FFFB3D" stroke="#1EFF31" stroke-width="4.4444" d="M380.595,186.589c1.411,0,2.861-0.152,4.231-0.442
	c1.127,0.057,2.485,0.249,3.912,0.449c2.068,0.292,4.206,0.593,6.298,0.593c0.001,0,0.001,0,0.002,0
	c2.623,0,4.729-0.496,6.439-1.515c1.1-0.655,1.854-1.762,2.063-3.024c0.21-1.263-0.147-2.554-0.977-3.529
	c-3.137-3.69-8.134-8.262-14.128-9.086c-0.532-0.073-1.07-0.047-1.591,0.076c-1.15,0.272-3.074,0.202-5.164,0.062
	c-1.153-0.077-2.347-0.156-3.563-0.156c-2.599,0-6.409,0.333-9.493,3.21c-1.102,1.028-1.593,2.554-1.298,4.032
	C368.477,183.013,373.56,186.589,380.595,186.589z"/>
<path fill="#FFFB3D" stroke="#1EFF31" stroke-width="4.4444" d="M267.369,46.721c0.454-0.648,0.722-1.408,0.776-2.198
	c0.875-12.832-10.684-19.888-19.124-25.041l-1.427-0.874c-0.333-0.206-0.693-0.365-1.069-0.474c-1.758-0.51-3.444-0.703-5.084-0.563
	c-0.119,0.01-0.238,0.025-0.355,0.045c-2.098,0.355-4.564,0.42-7.177,0.489c-7.872,0.207-17.669,0.464-22.722,9.677
	c-0.155,0.283-0.278,0.582-0.367,0.892c-1.625,5.664-0.334,11.861,3.541,17.004c4.188,5.558,10.522,8.876,16.945,8.876
	c1.348,0,2.686-0.149,3.989-0.444c1.07,0.093,2.18,0.208,3.316,0.326c3.114,0.324,6.333,0.658,9.629,0.658c0.011,0,0.021,0,0.033,0
	C251.587,55.097,261.527,55.069,267.369,46.721z M248.24,46.397c-2.846,0-5.837-0.311-8.731-0.612
	c-1.462-0.152-2.883-0.299-4.237-0.403c-0.112-0.009-0.223-0.013-0.335-0.013c-0.389,0-0.777,0.052-1.153,0.156
	c-4.264,1.173-9.379-0.97-12.476-5.08c-2.102-2.79-2.908-6.005-2.248-8.9c2.548-4.111,7.445-4.54,15.076-4.74
	c2.725-0.072,5.54-0.146,8.182-0.572c0.393-0.015,0.808,0.027,1.275,0.129l0.895,0.547c8.252,5.038,14.648,9.456,14.987,15.789
	C257.175,45.247,253.644,46.397,248.24,46.397z"/>
<path fill="#FFFB3D" stroke="#1EFF31" stroke-width="4.4444" d="M264.136,73.566c-0.427,2.106,0.394,5.122,4.098,6.687
	c2.757,1.173,5.494,1.309,7.312,1.309c1.11,0,2.193-0.056,3.24-0.111c0.987-0.052,1.919-0.101,2.819-0.101
	c1.502,0,2.602,0.138,3.563,0.447c0.088,0.028,0.178,0.054,0.268,0.077c1.154,0.291,2.058,0.427,2.846,0.427c0,0,0,0,0,0
	c2.872,0,4.401-1.861,4.836-3.455c1.051-3.842-2.95-6.358-4.502-7.281c-3.182-2.213-6.57-2.501-9.18-2.501
	c-1.039,0-2.055,0.051-3.038,0.101c-1.861,0.094-3.595,0.139-4.807-0.054c-0.07-0.011-0.141-0.021-0.211-0.029
	c-0.353-0.039-0.688-0.056-1.005-0.056C266.701,69.026,264.594,71.306,264.136,73.566z"/>
<path fill="#FFFB3D" stroke="#1EFF31" stroke-width="4.4444" d="M156.594,62.589c1.412,0,2.862-0.152,4.232-0.442
	c1.126,0.057,2.484,0.249,3.912,0.449c2.068,0.292,4.207,0.593,6.298,0.593c0,0,0,0,0.001,0c2.624,0,4.73-0.496,6.44-1.515
	c1.1-0.655,1.854-1.762,2.064-3.024c0.209-1.263-0.148-2.554-0.977-3.529c-3.137-3.69-8.134-8.262-14.128-9.086
	c-0.53-0.073-1.069-0.047-1.591,0.076c-1.151,0.273-3.076,0.202-5.163,0.062c-1.154-0.077-2.347-0.156-3.563-0.156
	c-2.598,0-6.41,0.333-9.493,3.21c-1.102,1.028-1.593,2.554-1.298,4.032C144.477,59.013,149.56,62.589,156.594,62.589z"/>
<path fill="#FFFB3D" stroke="#1EFF31" stroke-width="4.4444" d="M568.564,176.12c-3.137-3.69-8.134-8.262-14.128-9.086
	c-0.532-0.072-1.071-0.047-1.591,0.076c-1.151,0.272-3.074,0.202-5.164,0.062c-1.153-0.077-2.347-0.156-3.563-0.156
	c-2.599,0-6.409,0.333-9.493,3.21c-1.102,1.028-1.593,2.554-1.298,4.032c1.148,5.755,6.231,9.331,13.267,9.331
	c1.411,0,2.861-0.152,4.231-0.442c1.127,0.057,2.485,0.249,3.912,0.449c2.068,0.292,4.206,0.593,6.298,0.593
	c0.001,0,0.001,0,0.002,0c2.623,0,4.729-0.496,6.439-1.515c1.1-0.655,1.854-1.762,2.063-3.024
	C569.751,178.386,569.394,177.096,568.564,176.12z"/>
</svg>
