<svg enable-background="new 0 0 580 580" height="580" viewBox="0 0 580 580" width="580" xmlns="http://www.w3.org/2000/svg">
<path d="m134.639 99.167h306.307c11.094 0 20.087 8.994 20.087 20.088v112.559c0 11.094-8.993 20.088-20.087 20.088h-306.307c-11.094 0-20.088-8.994-20.088-20.088v-112.559c0-11.094 8.994-20.088 20.088-20.088z" fill="param(fill)" opacity=".25"/>
<path d="m465.793 50.074c-6.903 0-12.5 5.597-12.5 12.5v18.653c-14.698 5.56-31.304 6.816-46.137.898-18.026-5.888-37.567-14.063-56.399-7.006-18.064 5.243-37.83 13.609-56.538 6.1-12.047-3.717-23.725-10.379-36.688-10.031-23.396 1.433-43.654 20.159-67.781 15.375-18.406-3.499-35.774-17.696-55.156-11.344-4.18 1.004-8.258 2.337-12.302 3.775v-16.42c0-6.903-5.597-12.5-12.5-12.5-6.904 0-12.5 5.597-12.5 12.5v197.249c0 6.903 5.596 12.5 12.5 12.5h45.524l-19.514 268.237c-.601 8.262 5.61 15.447 13.872 16.049.371.026.738.04 1.104.04 7.789 0 14.371-6.021 14.945-13.913l1.411-19.395 120.135-62.638 123.854 64.577c.479.249.973.431 1.472.569l1.229 16.887c.573 7.892 7.155 13.912 14.944 13.912.365 0 .733-.014 1.104-.04 8.263-.602 14.474-7.787 13.873-16.049l-19.516-268.237h41.563c6.903 0 12.5-5.597 12.5-12.5v-197.248c.001-6.903-5.596-12.5-12.499-12.5zm-281.814 241.722l85.858 39.9-91.867 42.694zm103.654 48.171l105.09 48.839-105.453 54.982-105.111-54.804zm114.093 36.481l-96.296-44.752 89.998-41.825zm-7.576-104.125l.113 1.549-106.631 49.554-102.49-47.63.253-3.473zm-225.737 233.435l7.501-103.112 95.132 49.601zm135.079-53.512l99.957-52.116 7.882 108.343zm-181.2-204.923v-138.083c14.357-4.792 30.059-7.174 44.052-.302 14.213 5.725 29.892 13.107 45.25 6.938 19.469-6.251 40.229-18.895 61.344-11.656 16.817 5.052 34.481 15.365 52.368 8.85 19.549-5.565 40.534-14.264 60.944-7.1 18.851 5.225 38.758 15.874 58.375 8.406 2.242-1.294 6.16-1.526 8.668-2.769v135.717h-331.001z" fill="param(fill)" fill-opacity="param(fill-opacity)" stroke="param(outline)" stroke-opacity="param(outline-opacity)" stroke-width="param(outline-width)"/>
</svg>
