<?xml version="1.0" encoding="utf-8"?>
<!-- Generator: Adobe Illustrator 16.0.0, SVG Export Plug-In . SVG Version: 6.00 Build 0)  -->
<!DOCTYPE svg PUBLIC "-//W3C//DTD SVG 1.1//EN" "http://www.w3.org/Graphics/SVG/1.1/DTD/svg11.dtd">
<svg version="1.1"
	 id="svg2" xmlns:dc="http://purl.org/dc/elements/1.1/" xmlns:cc="http://creativecommons.org/ns#" xmlns:rdf="http://www.w3.org/1999/02/22-rdf-syntax-ns#" xmlns:svg="http://www.w3.org/2000/svg" xmlns:sodipodi="http://sodipodi.sourceforge.net/DTD/sodipodi-0.dtd" xmlns:inkscape="http://www.inkscape.org/namespaces/inkscape" inkscape:output_extension="org.inkscape.output.svg.inkscape" sodipodi:docbase="s:\Data\FacilityIcons" sodipodi:docname="place_city.svg" inkscape:version="0.46" sodipodi:version="0.32"
	 xmlns="http://www.w3.org/2000/svg" xmlns:xlink="http://www.w3.org/1999/xlink" x="0px" y="0px" width="580px" height="580px"
	 viewBox="0 0 580 580" enable-background="new 0 0 580 580" xml:space="preserve">
<sodipodi:namedview  showgrid="false" inkscape:cy="-261.30412" inkscape:cx="593.57911" inkscape:zoom="0.23041928" pagecolor="#ffffff" bordercolor="#666666" guidetolerance="10.0" objecttolerance="10.0" gridtolerance="10.0" borderopacity="1.0" id="base" inkscape:current-layer="svg2" inkscape:window-y="27" inkscape:window-x="1397" inkscape:pageopacity="0.0" inkscape:pageshadow="2" inkscape:window-width="1048" inkscape:window-height="947">
	</sodipodi:namedview>
<defs>
	
	
		<inkscape:perspective  inkscape:vp_z="580 : 290 : 1" inkscape:vp_y="0 : 1000 : 0" inkscape:vp_x="0 : 290 : 1" sodipodi:type="inkscape:persp3d" id="perspective2441" inkscape:persp3d-origin="290 : 193.33333 : 1">
		</inkscape:perspective>
	
		<inkscape:perspective  inkscape:vp_z="60 : 30 : 1" inkscape:vp_y="0 : 1000 : 0" inkscape:vp_x="0 : 30 : 1" sodipodi:type="inkscape:persp3d" id="perspective3452" inkscape:persp3d-origin="30 : 20 : 1">
		</inkscape:perspective>
	
		<inkscape:perspective  inkscape:vp_z="744.09448 : 526.18109 : 1" inkscape:vp_y="0 : 1000 : 0" inkscape:vp_x="0 : 526.18109 : 1" sodipodi:type="inkscape:persp3d" id="perspective4471" inkscape:persp3d-origin="372.04724 : 350.78739 : 1">
		</inkscape:perspective>
	
		<inkscape:perspective  inkscape:vp_z="12 : 6 : 1" inkscape:vp_y="0 : 1000 : 0" inkscape:vp_x="0 : 6 : 1" sodipodi:type="inkscape:persp3d" id="perspective4668" inkscape:persp3d-origin="6 : 4 : 1">
		</inkscape:perspective>
</defs>
<g id="layer3" transform="matrix(48.14969,0,0,48.14969,-536.27327,-33.306752)" inkscape:label="Layout" display="none">
	<rect id="rect4134" x="1" y="1" display="inline" fill="none" stroke="#757575" stroke-width="0.1" width="10" height="10"/>
	<rect id="rect4136" x="2" y="2" display="inline" fill="none" stroke="#757575" stroke-width="0.1" width="8" height="8"/>
</g>
<path fill="#FFFB3D" stroke="#1EFF31" stroke-width="4.4444" d="M498.523,207.016l-34.72-33.092
	c-1.446-1.379-3.295-2.261-5.277-2.518l-138.872-18.002v-3.292l98.878-26.703c2.294-0.62,4.251-2.12,5.444-4.175l20.986-36.122
	c2.34-4.026,1.228-9.171-2.565-11.873l-21.726-15.47c-2.173-1.546-4.915-2.051-7.495-1.382L319.654,78.67V44.019
	c0-5.163-4.186-9.349-9.349-9.349h-45.572c-2.481,0-4.86,0.986-6.614,2.741c-1.753,1.755-2.737,4.135-2.735,6.616l0.04,41.955
	l-95.201-24.718c-2.583-0.67-5.324-0.164-7.495,1.382l-21.725,15.471c-3.793,2.701-4.905,7.846-2.566,11.873l20.986,36.122
	c1.194,2.055,3.151,3.555,5.445,4.175l100.624,27.175l0.006,6.101l-147.795,39.412c-1.882,0.502-3.562,1.576-4.807,3.074
	L68.177,247.82c-1.778,2.14-2.518,4.958-2.019,7.695c0.5,2.737,2.186,5.113,4.605,6.487l33.905,19.259
	c1.43,0.813,3.031,1.227,4.643,1.227c0.964,0,1.933-0.148,2.869-0.449l143.387-45.972l0.292,307.055
	c0.005,5.159,4.189,9.34,9.349,9.34h45.097c5.163,0,9.349-4.186,9.349-9.349v-318.42l136.702,26.297
	c0.59,0.113,1.185,0.169,1.775,0.169c2.163,0,4.28-0.747,5.978-2.146l33.906-27.938c2.075-1.71,3.319-4.228,3.416-6.915
	C501.529,211.472,500.471,208.871,498.523,207.016z"/>
<path fill="#FFFB3D" stroke="#1EFF31" stroke-width="4.4444" d="M152.863-175.071c1.811,0,3.606-0.545,5.137-1.606
	c2.475-1.716,3.93-4.554,3.878-7.565l-0.986-56.982c-0.074-4.234-3.083-7.847-7.235-8.682l-111.59-22.465
	c-3.13-0.629-6.361,0.443-8.493,2.821l-13.045,14.555c-2.655,2.962-3.055,7.313-0.984,10.709l12.306,20.187
	c1.022,1.676,2.563,2.973,4.389,3.694L149.555-175.7C150.624-175.278,151.746-175.071,152.863-175.071z"/>
</svg>
