<?xml version="1.0" encoding="utf-8"?>
<!-- Generator: Adobe Illustrator 16.0.0, SVG Export Plug-In . SVG Version: 6.00 Build 0)  -->
<!DOCTYPE svg PUBLIC "-//W3C//DTD SVG 1.1//EN" "http://www.w3.org/Graphics/SVG/1.1/DTD/svg11.dtd">
<svg version="1.1"
	 id="svg2" xmlns:dc="http://purl.org/dc/elements/1.1/" xmlns:cc="http://creativecommons.org/ns#" xmlns:rdf="http://www.w3.org/1999/02/22-rdf-syntax-ns#" xmlns:svg="http://www.w3.org/2000/svg" xmlns:sodipodi="http://sodipodi.sourceforge.net/DTD/sodipodi-0.dtd" xmlns:inkscape="http://www.inkscape.org/namespaces/inkscape" inkscape:output_extension="org.inkscape.output.svg.inkscape" sodipodi:docname="tower_power.svg" inkscape:version="0.46" sodipodi:version="0.32"
	 xmlns="http://www.w3.org/2000/svg" xmlns:xlink="http://www.w3.org/1999/xlink" x="0px" y="0px" width="580px" height="580px"
	 viewBox="0 0 580 580" enable-background="new 0 0 580 580" xml:space="preserve">
<g opacity="0.5">
	<path fill="param(fill) #FFF" stroke="param(outline) #000" stroke-width="param(outline-width) 1" d="M172.065,131.27c9.719,0,19.332-0.57,28.799-1.712
		c32.468-3.916,63.303-14.61,91.741-31.779c9.934,5.615,39.271,20.814,79.619,29.44c18.855,4.031,37.541,6.051,55.842,6.051
		c9.719,0,19.332-0.57,28.799-1.712c34.175-4.122,66.545-15.738,96.21-34.526l-5.35-8.448
		c-64.201,40.66-129.551,38.175-173.07,28.929c-47.458-10.083-80.089-30.162-80.411-30.362l-1.072,1.719l-1.447-2.286
		c-64.202,40.661-129.553,38.174-173.069,28.929C71.196,105.429,38.566,85.35,38.244,85.15l-5.292,8.485
		c1.373,0.856,34.188,21.09,83.271,31.583C135.079,129.249,153.765,131.27,172.065,131.27z"/>
	<path fill="param(fill) #FFF" stroke="param(outline) #000" stroke-width="param(outline-width) 1" d="M374.654,157.512c-47.458-10.083-80.089-30.162-80.411-30.362
		l-1.072,1.719l-1.447-2.286c-64.202,40.661-129.553,38.173-173.069,28.929c-47.458-10.083-80.089-30.162-80.411-30.362
		l-5.292,8.485c1.373,0.856,34.188,21.09,83.271,31.583c18.855,4.031,37.541,6.051,55.841,6.051c9.719,0,19.332-0.57,28.799-1.712
		c32.468-3.916,63.303-14.61,91.741-31.779c9.934,5.615,39.271,20.814,79.619,29.44c18.855,4.031,37.541,6.051,55.842,6.051
		c9.719,0,19.332-0.57,28.799-1.712c34.175-4.122,66.545-15.738,96.21-34.526l-5.35-8.448
		C483.523,169.243,418.174,166.757,374.654,157.512z"/>
	<path fill="param(fill) #FFF" stroke="param(outline) #000" stroke-width="param(outline-width) 1" d="M374.654,197.512c-47.458-10.083-80.089-30.162-80.411-30.362
		l-1.072,1.719l-1.447-2.286c-64.202,40.661-129.553,38.173-173.069,28.929c-47.458-10.083-80.089-30.162-80.411-30.362
		l-5.292,8.485c1.373,0.856,34.188,21.09,83.271,31.583c18.855,4.031,37.541,6.051,55.841,6.051c9.719,0,19.332-0.57,28.799-1.712
		c32.468-3.916,63.303-14.61,91.741-31.779c9.934,5.615,39.271,20.814,79.619,29.44c18.855,4.031,37.541,6.051,55.842,6.051
		c9.719,0,19.332-0.57,28.799-1.712c34.175-4.122,66.545-15.738,96.21-34.526l-5.35-8.448
		C483.523,209.243,418.174,206.757,374.654,197.512z"/>
</g>
<sodipodi:namedview  showgrid="false" inkscape:cy="259.98847" inkscape:cx="191.9039" inkscape:zoom="0.70710678" pagecolor="#ffffff" bordercolor="#666666" guidetolerance="10.0" objecttolerance="10.0" gridtolerance="10.0" borderopacity="1.0" id="base" inkscape:current-layer="svg2" inkscape:window-y="1" inkscape:window-x="1" inkscape:pageopacity="0.0" inkscape:pageshadow="2" inkscape:window-width="1014" inkscape:window-height="711">
	</sodipodi:namedview>
<defs>
	
	
		<inkscape:perspective  inkscape:vp_z="580 : 290 : 1" inkscape:vp_y="0 : 1000 : 0" inkscape:vp_x="0 : 290 : 1" sodipodi:type="inkscape:persp3d" id="perspective12" inkscape:persp3d-origin="290 : 193.33333 : 1">
		</inkscape:perspective>
	
		<inkscape:perspective  inkscape:vp_z="58.232063 : 29.116032 : 1" inkscape:vp_y="0 : 1000 : 0" inkscape:vp_x="0 : 29.116032 : 1" sodipodi:type="inkscape:persp3d" id="perspective6807" inkscape:persp3d-origin="29.116032 : 19.410688 : 1">
		</inkscape:perspective>
	
		<inkscape:perspective  inkscape:vp_z="580 : 290 : 1" inkscape:vp_y="0 : 1000 : 0" inkscape:vp_x="0 : 290 : 1" sodipodi:type="inkscape:persp3d" id="perspective6954" inkscape:persp3d-origin="290 : 193.33333 : 1">
		</inkscape:perspective>
	
		<inkscape:perspective  inkscape:vp_z="480 : 240 : 1" inkscape:vp_y="0 : 1000 : 0" inkscape:vp_x="0 : 240 : 1" sodipodi:type="inkscape:persp3d" id="perspective2541" inkscape:persp3d-origin="240 : 160 : 1">
		</inkscape:perspective>
	
		<inkscape:perspective  inkscape:vp_z="430 : 215 : 1" inkscape:vp_y="0 : 1000 : 0" inkscape:vp_x="0 : 215 : 1" sodipodi:type="inkscape:persp3d" id="perspective2750" inkscape:persp3d-origin="215 : 143.33333 : 1">
		</inkscape:perspective>
	
		<inkscape:perspective  inkscape:vp_z="177.85829 : 151.79668 : 1" inkscape:vp_y="0 : 1000 : 0" inkscape:vp_x="0 : 151.79668 : 1" sodipodi:type="inkscape:persp3d" id="perspective3730" inkscape:persp3d-origin="88.929146 : 101.19778 : 1">
		</inkscape:perspective>
</defs>
<path fill="param(fill) #FFF" stroke="param(outline) #000" stroke-width="param(outline-width) 1" d="M420.606,502.339c-53.384-71.258-82.473-173.455-97.476-246.641
	c-14.682-71.618-19.542-131.487-20.685-154.148v-8.03c0-2.085-0.648-4.016-1.749-5.612c-1.722-2.816-4.802-4.712-8.335-4.751
	c-5.476-0.042-10.017,4.396-10.017,9.903v8.949c-1.143,22.661-6.003,82.53-20.685,154.148
	c-15.003,73.186-44.092,175.383-97.476,246.641c-3.28,4.378-2.39,10.586,1.988,13.865c1.781,1.334,3.865,1.979,5.931,1.979
	c3.013,0,5.989-1.37,7.935-3.967c13.182-17.596,25.519-37.721,36.934-60.15c1.102-0.326,2.148-0.899,3.047-1.732l72.42-67.038
	l72.421,67.038c0.946,0.877,2.054,1.467,3.218,1.782c11.343,22.225,23.592,42.179,36.674,59.641
	c1.945,2.598,4.921,3.967,7.935,3.967c2.065,0,4.15-0.645,5.931-1.979C422.996,512.925,423.887,506.717,420.606,502.339z
	 M272.583,297.997l10.807,10.004l-17.601,16.293C268.145,315.688,270.41,306.92,272.583,297.997z M292.612,316.538l26.252,24.301
	c-0.747,0.335-1.456,0.788-2.09,1.376L292.44,364.74l-24.333-22.525c-0.569-0.526-1.197-0.948-1.859-1.271L292.612,316.538z
	 M319.024,323.912l-17.189-15.911l10.546-9.762C314.508,306.947,316.724,315.507,319.024,323.912z M292.43,195.341
	c2.913,19.779,6.613,41.493,11.296,64.335c1.702,8.303,3.485,16.486,5.338,24.56l-16.451,15.228l-16.722-15.479
	c1.794-7.844,3.524-15.788,5.176-23.848C285.786,237.116,289.507,215.243,292.43,195.341z M233.231,419.549
	c3.759-8.863,7.396-18.007,10.899-27.439c4.63-12.469,9.039-25.439,13.216-38.869c0.095,0.098,0.184,0.198,0.284,0.291
	l23.459,21.716L233.231,419.549z M303.791,375.247l23.46-21.716c0.114-0.105,0.217-0.22,0.323-0.331
	c4.139,13.281,8.504,26.11,13.087,38.449c3.587,9.656,7.315,19.007,11.17,28.067L303.791,375.247z"/>
</svg>
