<svg enable-background="new 0 0 580 580" height="580" viewBox="0 0 580 580" width="580" xmlns="http://www.w3.org/2000/svg">
<path d="m37.149 370.738c-.085-1.025 69.225 24.162 69.225 24.162l-43.502 31.944 55.828 35.66-54.235 16.14 55.727 34.902 52.38-14.945 13.312 21.121 54.454 17.902 92.459-6.283 57.504-17.74 70.888 8.263 15.724-15.81 31.859-4.176 34.077-28.23-37.702-52.746-123.982-46.802 127.607-28.23-55.828-14.115-95.705.742-107.307 9.658-71.054-2.229-25.376 12.629c0 0-94.203 15.238-116.353 18.183" fill="param(fill)" opacity=".2"/>
<path d="m36.24-220.405l113.315 44.705c1.069.422 2.191.629 3.308.629 1.811 0 3.606-.545 5.137-1.606 2.475-1.716 3.93-4.554 3.878-7.565l-.986-56.982c-.074-4.234-3.083-7.847-7.235-8.682l-111.59-22.465c-3.13-.629-6.361.443-8.493 2.821l-13.045 14.555c-2.655 2.962-3.055 7.313-.984 10.709l12.306 20.187c1.022 1.677 2.563 2.974 4.389 3.694z" fill="param(fill)" stroke="param(outline)" stroke-miterlimit="10" stroke-width="param(outline-width)"/>
<path d="m550.788 467.975l-37.702-52.746c-1.123-1.571-2.686-2.773-4.492-3.455l-93.317-35.227 95.604-21.15c4.416-.977 7.581-4.859 7.649-9.381.067-4.522-2.98-8.498-7.365-9.606l-55.828-14.115c-.807-.203-1.658-.333-2.467-.297l-95.705.742c-.268.002-.534.015-.8.038l-48.951 4.406v-137.033l111.295 21.409c.59.113 1.184.169 1.775.169 2 0 3.965-.639 5.597-1.848l25.01-18.533c2.054-1.521 3.398-3.814 3.726-6.349.328-2.535-.392-5.093-1.991-7.086l-25.684-32.007c-1.52-1.895-3.714-3.127-6.123-3.439l-113.606-14.727v-.134l80.681-21.789c2.294-.62 4.251-2.12 5.444-4.175l17.379-29.914c2.339-4.026 1.228-9.171-2.565-11.872l-17.99-12.812c-2.171-1.547-4.916-2.054-7.495-1.383l-75.453 19.591v-26.676c0-5.163-4.186-9.349-9.349-9.349h-37.739c-2.481 0-4.86.986-6.614 2.741-1.753 1.755-2.737 4.135-2.735 6.616l.031 32.724-76.84-19.951c-2.583-.67-5.325-.164-7.495 1.382l-17.991 12.811c-3.793 2.701-4.905 7.846-2.566 11.873l17.379 29.914c1.194 2.055 3.151 3.555 5.445 4.175l82.128 22.18.002 2.638-121.202 32.32c-1.882.502-3.562 1.576-4.807 3.074l-28.752 34.592c-1.778 2.14-2.518 4.958-2.019 7.695.5 2.737 2.186 5.113 4.605 6.487l28.078 15.948c1.43.813 3.031 1.227 4.643 1.227.964 0 1.933-.148 2.869-.449l116.645-37.397.126 132.411-1.609.145-70.463-2.21c-1.609-.046-3.21.299-4.653 1.018l-24.049 11.968c-11.897 1.921-92.57 14.925-113.934 17.815-2.489.175-4.879 1.302-6.574 3.144-1.848 2.008-2.775 4.712-2.549 7.432.222 2.661 1.525 5.116 3.606 6.791 1.439 1.158 3.163 1.873 4.965 2.088 4.689 1.327 26.562 9.039 49.866 17.43l-28.766 21.121c-2.594 1.905-4.082 4.966-3.977 8.182.104 3.217 1.788 6.175 4.5 7.907l37.842 24.172-33.78 10.052c-3.675 1.094-6.369 4.238-6.885 8.038-.517 3.799 1.24 7.549 4.489 9.584l55.727 34.902c2.343 1.468 5.197 1.873 7.856 1.113l45.348-12.938 9.413 14.935c1.21 1.92 3.051 3.357 5.208 4.066l54.454 17.902c.985.324 2.014.488 3.047.488.22 0 .441-.008.662-.022l92.459-6.283c.752-.051 1.495-.189 2.216-.411l55.539-17.135 68.846 8.025c2.972.343 5.938-.69 8.048-2.812l13.376-13.448 28.558-3.743c1.822-.239 3.541-.988 4.956-2.161l34.077-28.23c3.942-3.266 4.69-9.023 1.713-13.188zm-46.073 24.594l-29.069 3.811c-2.142.28-4.128 1.263-5.65 2.794l-12.383 12.45-66.181-7.715c-1.346-.153-2.71-.031-4.007.368l-56.42 17.406-89.428 6.077-49.31-16.211-11.44-18.151c-2.312-3.666-6.763-5.367-10.932-4.18l-48.204 13.754-33.745-21.135 33.537-9.98c3.66-1.09 6.348-4.214 6.879-7.995s-1.192-7.525-4.41-9.581l-43.832-27.997 32.029-23.519c2.902-2.131 4.395-5.687 3.883-9.25-.511-3.563-2.942-6.557-6.326-7.786-12.576-4.57-22.902-8.291-31.381-11.319 33.566-5.243 74.191-11.812 76.735-12.223.97-.157 1.91-.46 2.789-.897l23.178-11.534 68.6 2.151c.395.012.788.001 1.18-.034l.468-.042.095 100.066c.005 5.159 4.189 9.34 9.349 9.34h37.345c5.163 0 9.349-4.186 9.349-9.349v-105.111l50.302-4.527 94.052-.729 14.694 3.716-87.403 19.336c-4.215.933-7.316 4.523-7.625 8.829s2.248 8.303 6.286 9.827l121.212 45.757 30.697 42.945z" fill="param(fill)" stroke="param(outline)" stroke-miterlimit="10" stroke-width="param(outline-width)"/>
</svg>
