<svg enable-background="new 0 0 580 580" height="580" viewBox="0 0 580 580" width="580" xmlns="http://www.w3.org/2000/svg">
<path d="m536.084 514.837c-25.686-53.9-50.498-89.879-78.088-113.228-25.651-21.71-51.198-29.845-75.165-36.316-5.69-1.536-8.177-1.563-10.371-1.588-1.522-.018-2.985-.033-5.656-.626 21.857-15.601 33.75-48.503 31.251-87.408-3.172-49.366-30.86-112.423-99.061-141.349-.535-.227-1.142-.223-1.673.012-.532.234-.944.678-1.139 1.227-28.001 79.147-16.946 150.916 32.85 213.472-23.416-11.202-67.422-36.71-107.08-84.437 25.194-26.126 37.132-54.21 35.493-83.503-2.135-38.132-26.727-76.532-73.093-114.131-.502-.407-1.164-.56-1.795-.419-.631.144-1.161.568-1.438 1.152-17.106 36.042-23.477 67.806-19.478 97.108 2.661 19.494 9.671 36.346 17.836 51.008l-27-29.655c-.117-16.179-3.286-46.232-22.496-71.655-20.484-27.11-59.241-49.883-75.791-59.608-3.08-1.81-6.005-3.529-6.96-4.221-.133-.229-.311-.436-.529-.605-.702-.544-1.67-.593-2.421-.117-.413.261-.717.669-.876 1.127l0 0c-.001.003-.009.027-.016.05-.001.003-.002.007-.003.01-.003.009-.006.019-.008.025-.001.004-.002.008-.004.012-.666 2.099-15.994 51.813 11.454 88.458 13.636 20.64 48.166 43.473 82.296 54.453l38.044 41.722c-6.673-3.563-13.571-6.625-20.623-9.152-11.277-4.041-24.679-6.09-39.833-6.09-21.984 0-42.104 4.254-51.773 6.298-2.045.433-3.994.845-4.832.963-.151-.042-.31-.068-.471-.076-.865-.044-1.658.449-2.015 1.233-.228.5-.237 1.063-.071 1.568l0 0c .001.004.032.09.033.094.832 2.33 20.846 57.209 63.826 72.818 8.379 3.613 19.636 5.602 31.708 5.602 22.453 0 50.482-7.215 63.708-27.232 23.444 27.215 46.721 48.024 70.849 63.316-13.322-1.294-26.348-1.947-38.836-1.947-12.193 0-24.216.622-35.736 1.85-.033.004-.066.008-.1.013-24.47 3.797-41.435 15.897-61.078 29.909-11.168 7.967-22.717 16.204-36.974 23.915-.06.032-.118.067-.174.105-.983.662-2.531 1.979-4.491 3.646-3 2.552-9.244 7.863-11.061 8.088-.898.11-1.625.781-1.808 1.667s.22 1.789 1.001 2.246c11.022 6.446 22.191 14.111 32.992 21.523 25.097 17.224 51.049 35.033 76.113 37.907 4.795.55 9.677.829 14.508.829 34.492 0 67.649-13.795 90.969-37.849 18.433-19.012 28.519-42.58 28.605-66.666 10.57 3.466 20.678 6.136 30.479 8.726 2.809.742 5.589 1.477 8.343 2.221 23.111 6.24 39.167 13.066 62.783 33.051 23.193 19.63 41.714 52.989 67.777 107.682.355.746 1.104 1.201 1.902 1.201.159 0 .319-.018.479-.055l23.292-5.417c.622-.145 1.146-.563 1.422-1.139.278-.571.28-1.242.004-1.818z" fill="param(fill)" fill-opacity="param(fill-opacity)" stroke="param(outline)" stroke-opacity="param(outline-opacity)" stroke-width="param(outline-width)"/>
</svg>
