<?xml version="1.0" encoding="utf-8"?>
<!-- Generator: Adobe Illustrator 16.0.0, SVG Export Plug-In . SVG Version: 6.00 Build 0)  -->
<!DOCTYPE svg PUBLIC "-//W3C//DTD SVG 1.1//EN" "http://www.w3.org/Graphics/SVG/1.1/DTD/svg11.dtd">
<svg version="1.1"
	 id="svg2" xmlns:dc="http://purl.org/dc/elements/1.1/" xmlns:cc="http://creativecommons.org/ns#" xmlns:rdf="http://www.w3.org/1999/02/22-rdf-syntax-ns#" xmlns:svg="http://www.w3.org/2000/svg" xmlns:sodipodi="http://sodipodi.sourceforge.net/DTD/sodipodi-0.dtd" xmlns:inkscape="http://www.inkscape.org/namespaces/inkscape" inkscape:output_extension="org.inkscape.output.svg.inkscape" sodipodi:docbase="s:\Data\FacilityIcons" sodipodi:docname="point_of_interest.svg" inkscape:version="0.46" sodipodi:version="0.32"
	 xmlns="http://www.w3.org/2000/svg" xmlns:xlink="http://www.w3.org/1999/xlink" x="0px" y="0px" width="580px" height="580px"
	 viewBox="0 0 580 580" enable-background="new 0 0 580 580" xml:space="preserve">
<sodipodi:namedview  showgrid="false" inkscape:cy="281.19503" inkscape:cx="301.5186" inkscape:zoom="0.92167712" pagecolor="#ffffff" bordercolor="#666666" guidetolerance="10.0" objecttolerance="10.0" gridtolerance="10.0" borderopacity="1.0" id="base" inkscape:current-layer="svg2" inkscape:window-y="25" inkscape:window-x="91" inkscape:pageopacity="0.0" inkscape:pageshadow="2" inkscape:window-width="1048" inkscape:window-height="947">
	</sodipodi:namedview>
<defs>
	
	
		<inkscape:perspective  inkscape:vp_z="580 : 290 : 1" inkscape:vp_y="0 : 1000 : 0" inkscape:vp_x="0 : 290 : 1" sodipodi:type="inkscape:persp3d" id="perspective2441" inkscape:persp3d-origin="290 : 193.33333 : 1">
		</inkscape:perspective>
	
		<inkscape:perspective  inkscape:vp_z="60 : 30 : 1" inkscape:vp_y="0 : 1000 : 0" inkscape:vp_x="0 : 30 : 1" sodipodi:type="inkscape:persp3d" id="perspective3452" inkscape:persp3d-origin="30 : 20 : 1">
		</inkscape:perspective>
	
		<inkscape:perspective  inkscape:vp_z="744.09448 : 526.18109 : 1" inkscape:vp_y="0 : 1000 : 0" inkscape:vp_x="0 : 526.18109 : 1" sodipodi:type="inkscape:persp3d" id="perspective4471" inkscape:persp3d-origin="372.04724 : 350.78739 : 1">
		</inkscape:perspective>
	
		<inkscape:perspective  inkscape:vp_z="12 : 6 : 1" inkscape:vp_y="0 : 1000 : 0" inkscape:vp_x="0 : 6 : 1" sodipodi:type="inkscape:persp3d" id="perspective4668" inkscape:persp3d-origin="6 : 4 : 1">
		</inkscape:perspective>
</defs>
<g id="layer3" transform="matrix(48.14969,0,0,48.14969,-536.27327,-33.306752)" inkscape:label="Layout" display="none">
	<rect id="rect4134" x="1" y="1" display="inline" fill="none" stroke="#757575" stroke-width="0.1" width="10" height="10"/>
	<rect id="rect4136" x="2" y="2" display="inline" fill="none" stroke="#757575" stroke-width="0.1" width="8" height="8"/>
</g>
<path fill="#FFFB3D" stroke="#1EFF31" stroke-width="4.4444" d="M273.36,254.502l0.592-141.57c0-5.868-2.155-10.956-6.463-15.265
	c-4.309-4.309-9.397-6.463-15.265-6.463c-5.88,0-10.975,2.154-15.283,6.463c-4.309,4.309-6.463,9.397-6.463,15.265v89.294
	L104.183,75.93c-4.303-4.302-9.394-6.454-15.274-6.454c-5.868,0-10.858,2.151-14.969,6.454c-4.111,4.303-6.167,9.394-6.167,15.274
	c0,5.868,1.954,10.96,5.862,15.274l126.296,126.296h-89.276c-5.88,0-10.975,2.056-15.283,6.167
	c-4.308,4.111-6.462,9.298-6.462,15.561c0,5.88,2.154,10.876,6.462,14.987c4.309,4.112,9.403,6.167,15.283,6.167h141.57
	c5.868,0,10.857-2.055,14.969-6.167C271.304,265.378,273.36,260.382,273.36,254.502z"/>
<path fill="#FFFB3D" stroke="#1EFF31" stroke-width="4.4444" d="M520.969,379.919c-4.112-4.11-9.102-6.167-14.97-6.167
	l-61.095-0.573l42.881-42.882c4.303-4.314,6.453-9.405,6.454-15.273c-0.001-5.88-2.154-10.876-6.463-14.987
	s-9.397-6.167-15.265-6.167c-5.881,0-10.972,1.961-15.274,5.881l-42.881,43.455v-61.078c-0.001-5.88-2.057-10.974-6.167-15.283
	c-4.111-4.308-9.305-6.462-15.579-6.462c-5.868,0-10.857,2.154-14.969,6.462c-4.111,4.309-6.167,9.403-6.167,15.283v61.078
	l-43.473-43.455c-3.921-3.92-8.814-5.881-14.683-5.881c-6.274,0-11.468,2.056-15.578,6.167c-4.112,4.111-6.167,9.107-6.167,14.987
	c0,5.868,2.156,10.959,6.472,15.273l42.881,43.455h-61.095c-5.88,0-10.972,2.057-15.274,6.167
	c-4.303,4.111-6.454,9.107-6.454,14.987s2.151,10.971,6.454,15.273c4.302,4.303,9.394,6.454,15.274,6.454h61.095l-42.881,42.882
	c-4.315,4.314-6.472,9.405-6.472,15.273c0,5.88,2.055,10.975,6.167,15.283c4.11,4.308,9.304,6.462,15.578,6.462
	c5.868,0,10.762-2.157,14.683-6.472l43.473-42.881v60.504c0,6.274,2.056,11.467,6.167,15.578s9.101,6.167,14.969,6.167
	c6.274,0,11.468-2.056,15.579-6.167c4.11-4.111,6.166-9.304,6.167-15.578v-60.504l42.881,42.881
	c4.303,4.314,9.394,6.472,15.274,6.472c6.262,0,11.449-2.154,15.561-6.462c4.11-4.309,6.166-9.403,6.167-15.283
	c-0.001-5.868-2.151-10.959-6.454-15.273l-42.881-42.882h61.095c5.868,0,10.857-2.151,14.97-6.454
	c4.11-4.303,6.166-9.394,6.167-15.273C527.135,389.026,525.079,384.03,520.969,379.919z"/>
</svg>
