<svg enable-background="new 0 0 580 580" height="580" viewBox="0 0 580 580" width="580" xmlns="http://www.w3.org/2000/svg">
<path d="m465.779 444.078c-4.064-3.806-8.268-7.741-12.31-11.688-31.939-30.567-63.913-61.205-95.905-91.861-56.944-54.566-115.783-110.947-173.756-166.27.477-.367.933-.795 1.337-1.301 9.131-6.766 18.578-13.479 27.72-19.975 15.532-11.036 31.592-22.448 46.694-34.533.766-.613 1.335-1.438 1.636-2.372 2.84-8.824-2.811-15.082-6.937-19.651-1.718-1.902-3.34-3.698-4.256-5.41-.153-.287-.334-.558-.541-.81-3.698-4.516-7.244-9.444-10.672-14.21-6.554-9.112-13.332-18.534-21.94-26.303-.574-.518-1.26-.896-2.004-1.104-1.19-.332-2.457-.424-3.673-.269-.599.078-1.178.262-1.71.546-9.261 4.933-17.764 11.095-25.987 17.054-5.075 3.678-10.324 7.481-15.621 10.892-.052.033-.103.067-.153.103-33.064 23.048-74.474 55.097-101.481 98.741-4.259 6.494-8.677 13.083-12.949 19.456-8.063 12.026-16.399 24.461-24.115 36.91-.56.903-.817 1.962-.735 3.021.686 8.812 7.36 12.827 12.724 16.054 2.351 1.414 4.572 2.75 6.044 4.286.249.26.526.492.825.693 4.658 3.123 9.324 6.714 13.836 10.188 8.57 6.598 17.433 13.421 27.462 18.122 1.025.481 2.184.599 3.285.335 7.981-1.908 11.865-8.543 14.985-13.874 1.51-2.58 2.936-5.017 4.621-6.761.176-.182.338-.378.485-.585 5.622-7.945 11.224-16.104 16.641-23.996 7.795-11.355 15.825-23.053 24.066-34.324.563.671 1.123 1.381 1.692 2.104 1.946 2.471 4.14 5.256 7.238 7.422 61.144 61.033 123.036 123.344 182.899 183.612 36.192 36.438 73.616 74.114 110.483 111.115.34.341.728.632 1.151.862 2.044 1.113 4.169 1.678 6.315 1.678.001 0 0 0 .001 0 7.011 0 11.936-5.848 15.53-10.118.602-.714 1.177-1.398 1.729-2.013.057-.063.112-.128.166-.194 1.319-1.626 3.145-3.226 5.078-4.92 4.599-4.03 10.322-9.047 10.885-16.875.092-1.282-.313-2.55-1.131-3.54-8.959-10.864-19.479-20.712-29.652-30.237z" fill="param(fill)" opacity=".3"/>
<path d="m261.85 343.052c-1.778-1.439-3.457-2.799-4.543-4.1-.054-.064-.109-.128-.167-.189-.477-.516-.961-1.079-1.461-1.659-3.007-3.487-7.125-8.264-13.433-8.264-1.054 0-2.124.141-3.179.42-.505.133-.986.345-1.426.627-6.124 3.932-10.701 9.249-15.127 14.391-2.838 3.297-5.519 6.411-8.526 9.104-.114.103-.223.209-.327.321-14.699 15.813-29.723 31.841-44.251 47.34-23.607 25.185-48.018 51.226-71.72 77.079-.513.56-.893 1.229-1.108 1.958-2.866 9.667 4.522 15.488 9.41 19.34 1.565 1.233 3.044 2.398 4.035 3.483.205.226.431.431.674.615 1.372 1.039 2.809 2.547 4.329 4.144 3.909 4.103 8.773 9.21 15.949 9.21.658 0 1.329-.045 1.994-.134 1.098-.146 2.116-.652 2.895-1.439 14.849-15.011 28.939-31.108 42.567-46.676 8.958-10.232 18.22-20.813 27.571-30.938.029-.031.057-.063.085-.094 7.871-8.968 15.99-18.025 23.842-26.784 13.53-15.094 27.521-30.701 40.768-46.43.529-.627.895-1.375 1.066-2.178 2.02-9.482-4.879-15.068-9.917-19.147z" fill="param(fill)" opacity=".3"/>
<path d="m543.524 256.567c-7.448-14.142-14.017-29.117-20.371-43.606-7.876-17.958-16.021-36.527-26.003-53.947-.232-.407-.521-.778-.857-1.104-5.858-5.678-12.068-11.149-18.073-16.441-2.054-1.81-4.149-3.656-6.229-5.51.278-.241.561-.483.845-.728 5.072-4.359 10.821-9.3 11.727-17.293.152-1.344-.246-2.692-1.104-3.738-6.432-7.825-13.706-15.352-23.305-17.431-.99-.213-2.021-.123-2.959.262-5.621 2.31-9.524 6.557-12.968 10.304-.577.628-1.144 1.244-1.706 1.839-20.849-19.38-40.119-38.081-58.8-57.057-.376-.381-.81-.7-1.286-.943-2.176-1.114-4.43-1.543-6.591-1.255-.669.088-1.313.312-1.892.655-7.044 4.174-12.977 9.693-18.715 15.03-3.786 3.521-7.361 6.846-11.229 9.813-.106.082-.21.168-.31.258-2.427 2.194-4.923 4.309-7.565 6.548-6.894 5.84-14.021 11.879-19.629 19.258-.64.84-.995 1.861-1.019 2.917-.179 8.244 5.582 13.108 10.212 17.017 2.082 1.758 4.049 3.419 5.281 5.146.166.232.352.45.555.65l48.682 48.114c-10.012 10.888-20.242 21.814-30.169 32.417-13.7 14.633-27.867 29.764-41.535 44.872-.477.527-.836 1.15-1.053 1.826-3.025 9.426 4.099 15.276 8.813 19.147 1.176.965 2.292 1.882 3.14 2.729 3.54 5 9.873 9.921 16.359 9.921 3.738 0 7.067-1.586 9.643-4.603 22.73-26.883 47.074-53.647 70.221-78.873 6.263 3.787 11.53 9.064 17.061 14.604 5.893 5.903 11.985 12.007 19.604 16.481.087.051.176.1.266.146 10.261 5.218 20.628 10.765 30.654 16.13 16.372 8.761 33.302 17.82 50.39 25.784.542.253 1.125.406 1.721.453.302.023.598.035.887.035 4.386 0 8.102-2.652 9.698-6.921 1.675-4.486.684-9.633-2.391-12.906z" fill="param(fill)" opacity=".3"/>
<path d="m465.779 444.078c-4.064-3.806-8.268-7.741-12.31-11.688-31.939-30.567-63.913-61.205-95.905-91.861-56.944-54.566-115.783-110.947-173.756-166.27.477-.367.933-.795 1.337-1.301 9.131-6.766 18.578-13.479 27.72-19.975 15.532-11.036 31.592-22.448 46.694-34.533.766-.613 1.335-1.438 1.636-2.372 2.84-8.824-2.811-15.082-6.937-19.651-1.718-1.902-3.34-3.698-4.256-5.41-.153-.287-.334-.558-.541-.81-3.698-4.516-7.244-9.444-10.672-14.21-6.554-9.112-13.332-18.534-21.94-26.303-.574-.518-1.26-.896-2.004-1.104-1.19-.332-2.457-.424-3.673-.269-.599.078-1.178.262-1.71.546-9.261 4.933-17.764 11.095-25.987 17.054-5.075 3.678-10.324 7.481-15.621 10.892-.052.033-.103.067-.153.103-33.064 23.048-74.474 55.097-101.481 98.741-4.259 6.494-8.677 13.083-12.949 19.456-8.063 12.026-16.399 24.461-24.115 36.91-.56.903-.817 1.962-.735 3.021.686 8.812 7.36 12.827 12.724 16.054 2.351 1.414 4.572 2.75 6.044 4.286.249.26.526.492.825.693 4.658 3.123 9.324 6.714 13.836 10.188 8.57 6.598 17.433 13.421 27.462 18.122 1.025.481 2.184.599 3.285.335 7.981-1.908 11.865-8.543 14.985-13.874 1.51-2.58 2.936-5.017 4.621-6.761.176-.182.338-.378.485-.585 5.622-7.945 11.224-16.104 16.641-23.996 7.795-11.355 15.825-23.053 24.066-34.324.563.671 1.123 1.381 1.692 2.104 1.946 2.471 4.14 5.256 7.238 7.422 61.144 61.033 123.036 123.344 182.899 183.612 36.192 36.438 73.616 74.114 110.483 111.115.34.341.728.632 1.151.862 2.044 1.113 4.169 1.678 6.315 1.678.001 0 0 0 .001 0 7.011 0 11.936-5.848 15.53-10.118.602-.714 1.177-1.398 1.729-2.013.057-.063.112-.128.166-.194 1.319-1.626 3.145-3.226 5.078-4.92 4.599-4.03 10.322-9.047 10.885-16.875.092-1.282-.313-2.55-1.131-3.54-8.959-10.864-19.479-20.712-29.652-30.237z" fill="none" stroke="param(outline)" stroke-width="param(outline-width)"/>
<path d="m261.85 343.052c-1.778-1.439-3.457-2.799-4.543-4.1-.054-.064-.109-.128-.167-.189-.477-.516-.961-1.079-1.461-1.659-3.007-3.487-7.125-8.264-13.433-8.264-1.054 0-2.124.141-3.179.42-.505.133-.986.345-1.426.627-6.124 3.932-10.701 9.249-15.127 14.391-2.838 3.297-5.519 6.411-8.526 9.104-.114.103-.223.209-.327.321-14.699 15.813-29.723 31.841-44.251 47.34-23.607 25.185-48.018 51.226-71.72 77.079-.513.56-.893 1.229-1.108 1.958-2.866 9.667 4.522 15.488 9.41 19.34 1.565 1.233 3.044 2.398 4.035 3.483.205.226.431.431.674.615 1.372 1.039 2.809 2.547 4.329 4.144 3.909 4.103 8.773 9.21 15.949 9.21.658 0 1.329-.045 1.994-.134 1.098-.146 2.116-.652 2.895-1.439 14.849-15.011 28.939-31.108 42.567-46.676 8.958-10.232 18.22-20.813 27.571-30.938.029-.031.057-.063.085-.094 7.871-8.968 15.99-18.025 23.842-26.784 13.53-15.094 27.521-30.701 40.768-46.43.529-.627.895-1.375 1.066-2.178 2.02-9.482-4.879-15.068-9.917-19.147z" fill="none" stroke="param(outline)" stroke-width="param(outline-width)"/>
<path d="m543.524 256.567c-7.448-14.142-14.017-29.117-20.371-43.606-7.876-17.958-16.021-36.527-26.003-53.947-.232-.407-.521-.778-.857-1.104-5.858-5.678-12.068-11.149-18.073-16.441-2.054-1.81-4.149-3.656-6.229-5.51.278-.241.561-.483.845-.728 5.072-4.359 10.821-9.3 11.727-17.293.152-1.344-.246-2.692-1.104-3.738-6.432-7.825-13.706-15.352-23.305-17.431-.99-.213-2.021-.123-2.959.262-5.621 2.31-9.524 6.557-12.968 10.304-.577.628-1.144 1.244-1.706 1.839-20.849-19.38-40.119-38.081-58.8-57.057-.376-.381-.81-.7-1.286-.943-2.176-1.114-4.43-1.543-6.591-1.255-.669.088-1.313.312-1.892.655-7.044 4.174-12.977 9.693-18.715 15.03-3.786 3.521-7.361 6.846-11.229 9.813-.106.082-.21.168-.31.258-2.427 2.194-4.923 4.309-7.565 6.548-6.894 5.84-14.021 11.879-19.629 19.258-.64.84-.995 1.861-1.019 2.917-.179 8.244 5.582 13.108 10.212 17.017 2.082 1.758 4.049 3.419 5.281 5.146.166.232.352.45.555.65l48.682 48.114c-10.012 10.888-20.242 21.814-30.169 32.417-13.7 14.633-27.867 29.764-41.535 44.872-.477.527-.836 1.15-1.053 1.826-3.025 9.426 4.099 15.276 8.813 19.147 1.176.965 2.292 1.882 3.14 2.729 3.54 5 9.873 9.921 16.359 9.921 3.738 0 7.067-1.586 9.643-4.603 22.73-26.883 47.074-53.647 70.221-78.873 6.263 3.787 11.53 9.064 17.061 14.604 5.893 5.903 11.985 12.007 19.604 16.481.087.051.176.1.266.146 10.261 5.218 20.628 10.765 30.654 16.13 16.372 8.761 33.302 17.82 50.39 25.784.542.253 1.125.406 1.721.453.302.023.598.035.887.035 4.386 0 8.102-2.652 9.698-6.921 1.675-4.486.684-9.633-2.391-12.906z" fill="none" stroke="param(outline)" stroke-width="param(outline-width)"/>
</svg>
