<?xml version="1.0" encoding="utf-8"?>
<!-- Generator: Adobe Illustrator 16.0.0, SVG Export Plug-In . SVG Version: 6.00 Build 0)  -->
<!DOCTYPE svg PUBLIC "-//W3C//DTD SVG 1.1//EN" "http://www.w3.org/Graphics/SVG/1.1/DTD/svg11.dtd">
<svg version="1.1"
	 id="svg2" xmlns:dc="http://purl.org/dc/elements/1.1/" xmlns:cc="http://creativecommons.org/ns#" xmlns:rdf="http://www.w3.org/1999/02/22-rdf-syntax-ns#" xmlns:svg="http://www.w3.org/2000/svg" xmlns:sodipodi="http://sodipodi.sourceforge.net/DTD/sodipodi-0.dtd" xmlns:inkscape="http://www.inkscape.org/namespaces/inkscape" inkscape:output_extension="org.inkscape.output.svg.inkscape" sodipodi:docname="poi_embassy2.svg" inkscape:version="0.47 r22583" sodipodi:version="0.32"
	 xmlns="http://www.w3.org/2000/svg" xmlns:xlink="http://www.w3.org/1999/xlink" x="0px" y="0px" width="580px" height="580px"
	 viewBox="0 0 580 580" enable-background="new 0 0 580 580" xml:space="preserve">
<sodipodi:namedview  showgrid="false" inkscape:cy="116.99857" inkscape:cx="626.73397" inkscape:zoom="0.70710678" pagecolor="#ffffff" bordercolor="#666666" guidetolerance="10.0" objecttolerance="10.0" gridtolerance="10.0" borderopacity="1.0" id="base" inkscape:window-maximized="1" inkscape:current-layer="svg2" inkscape:window-y="-4" inkscape:window-x="-4" inkscape:pageopacity="0.0" inkscape:pageshadow="2" inkscape:window-width="1280" inkscape:window-height="1005" inkscape:object-paths="true" inkscape:guide-bbox="true" showguides="true">
	</sodipodi:namedview>
<defs>
	
	
		<inkscape:perspective  inkscape:vp_z="580 : 290 : 1" inkscape:vp_y="0 : 1000 : 0" inkscape:vp_x="0 : 290 : 1" sodipodi:type="inkscape:persp3d" id="perspective2441" inkscape:persp3d-origin="290 : 193.33333 : 1">
		</inkscape:perspective>
	
		<inkscape:perspective  inkscape:vp_z="744.09448 : 526.18109 : 1" inkscape:vp_y="0 : 1000 : 0" inkscape:vp_x="0 : 526.18109 : 1" sodipodi:type="inkscape:persp3d" id="perspective2466" inkscape:persp3d-origin="372.04724 : 350.78739 : 1">
		</inkscape:perspective>
	
		<inkscape:perspective  inkscape:vp_z="744.09448 : 526.18109 : 1" inkscape:vp_y="0 : 1000 : 0" inkscape:vp_x="0 : 526.18109 : 1" sodipodi:type="inkscape:persp3d" id="perspective3333" inkscape:persp3d-origin="372.04724 : 350.78739 : 1">
		</inkscape:perspective>
	
		<inkscape:perspective  inkscape:vp_z="744.09448 : 526.18109 : 1" inkscape:vp_y="0 : 1000 : 0" inkscape:vp_x="0 : 526.18109 : 1" sodipodi:type="inkscape:persp3d" id="perspective3401" inkscape:persp3d-origin="372.04724 : 350.78739 : 1">
		</inkscape:perspective>
	
		<inkscape:perspective  inkscape:vp_z="744.09448 : 526.18109 : 1" inkscape:vp_y="0 : 1000 : 0" inkscape:vp_x="0 : 526.18109 : 1" sodipodi:type="inkscape:persp3d" id="perspective3464" inkscape:persp3d-origin="372.04724 : 350.78739 : 1">
		</inkscape:perspective>
	
		<inkscape:perspective  inkscape:vp_z="450 : 225 : 1" inkscape:vp_y="0 : 1000 : 0" inkscape:vp_x="0 : 225 : 1" sodipodi:type="inkscape:persp3d" id="perspective3581" inkscape:persp3d-origin="225 : 150 : 1">
		</inkscape:perspective>
	
		<inkscape:perspective  inkscape:vp_z="450 : 225 : 1" inkscape:vp_y="0 : 1000 : 0" inkscape:vp_x="0 : 225 : 1" sodipodi:type="inkscape:persp3d" id="perspective4312" inkscape:persp3d-origin="225 : 150 : 1">
		</inkscape:perspective>
	
		<inkscape:perspective  inkscape:vp_z="744.09448 : 526.18109 : 1" inkscape:vp_y="0 : 1000 : 0" inkscape:vp_x="0 : 526.18109 : 1" sodipodi:type="inkscape:persp3d" id="perspective8860" inkscape:persp3d-origin="372.04724 : 350.78739 : 1">
		</inkscape:perspective>
	
		<inkscape:perspective  inkscape:vp_z="744.09448 : 526.18109 : 1" inkscape:vp_y="0 : 1000 : 0" inkscape:vp_x="0 : 526.18109 : 1" sodipodi:type="inkscape:persp3d" id="perspective8887" inkscape:persp3d-origin="372.04724 : 350.78739 : 1">
		</inkscape:perspective>
	
		<inkscape:perspective  inkscape:vp_z="32 : 16 : 1" inkscape:vp_y="0 : 1000 : 0" inkscape:vp_x="0 : 16 : 1" sodipodi:type="inkscape:persp3d" id="perspective4904" inkscape:persp3d-origin="16 : 10.666667 : 1">
		</inkscape:perspective>
	
		<inkscape:perspective  inkscape:vp_z="12 : 6 : 1" inkscape:vp_y="0 : 1000 : 0" inkscape:vp_x="0 : 6 : 1" sodipodi:type="inkscape:persp3d" id="perspective4668" inkscape:persp3d-origin="6 : 4 : 1">
		</inkscape:perspective>
	
		<inkscape:perspective  inkscape:vp_z="744.09448 : 526.18109 : 1" inkscape:vp_y="0 : 1000 : 0" inkscape:vp_x="0 : 526.18109 : 1" sodipodi:type="inkscape:persp3d" id="perspective4471" inkscape:persp3d-origin="372.04724 : 350.78739 : 1">
		</inkscape:perspective>
	
		<inkscape:perspective  inkscape:vp_z="60 : 30 : 1" inkscape:vp_y="0 : 1000 : 0" inkscape:vp_x="0 : 30 : 1" sodipodi:type="inkscape:persp3d" id="perspective3452" inkscape:persp3d-origin="30 : 20 : 1">
		</inkscape:perspective>
	
		<inkscape:perspective  inkscape:vp_z="580 : 290 : 1" inkscape:vp_y="0 : 1000 : 0" inkscape:vp_x="0 : 290 : 1" sodipodi:type="inkscape:persp3d" id="perspective9479" inkscape:persp3d-origin="290 : 193.33333 : 1">
		</inkscape:perspective>
	
		<inkscape:perspective  inkscape:vp_z="744.09448 : 526.18109 : 1" inkscape:vp_y="0 : 1000 : 0" inkscape:vp_x="0 : 526.18109 : 1" sodipodi:type="inkscape:persp3d" id="perspective9690" inkscape:persp3d-origin="372.04724 : 350.78739 : 1">
		</inkscape:perspective>
	
		<inkscape:perspective  inkscape:vp_z="580 : 290 : 1" inkscape:vp_y="0 : 1000 : 0" inkscape:vp_x="0 : 290 : 1" sodipodi:type="inkscape:persp3d" id="perspective9819" inkscape:persp3d-origin="290 : 193.33333 : 1">
		</inkscape:perspective>
	
		<inkscape:perspective  inkscape:vp_z="60 : 30 : 1" inkscape:vp_y="0 : 1000 : 0" inkscape:vp_x="0 : 30 : 1" sodipodi:type="inkscape:persp3d" id="perspective9817" inkscape:persp3d-origin="30 : 20 : 1">
		</inkscape:perspective>
	
		<inkscape:perspective  inkscape:vp_z="744.09448 : 526.18109 : 1" inkscape:vp_y="0 : 1000 : 0" inkscape:vp_x="0 : 526.18109 : 1" sodipodi:type="inkscape:persp3d" id="perspective9805" inkscape:persp3d-origin="372.04724 : 350.78739 : 1">
		</inkscape:perspective>
	
		<inkscape:perspective  inkscape:vp_z="12 : 6 : 1" inkscape:vp_y="0 : 1000 : 0" inkscape:vp_x="0 : 6 : 1" sodipodi:type="inkscape:persp3d" id="perspective9803" inkscape:persp3d-origin="6 : 4 : 1">
		</inkscape:perspective>
	
		<inkscape:perspective  inkscape:vp_z="32 : 16 : 1" inkscape:vp_y="0 : 1000 : 0" inkscape:vp_x="0 : 16 : 1" sodipodi:type="inkscape:persp3d" id="perspective9801" inkscape:persp3d-origin="16 : 10.666667 : 1">
		</inkscape:perspective>
	
		<inkscape:perspective  inkscape:vp_z="744.09448 : 526.18109 : 1" inkscape:vp_y="0 : 1000 : 0" inkscape:vp_x="0 : 526.18109 : 1" sodipodi:type="inkscape:persp3d" id="perspective9799" inkscape:persp3d-origin="372.04724 : 350.78739 : 1">
		</inkscape:perspective>
	
		<inkscape:perspective  inkscape:vp_z="744.09448 : 526.18109 : 1" inkscape:vp_y="0 : 1000 : 0" inkscape:vp_x="0 : 526.18109 : 1" sodipodi:type="inkscape:persp3d" id="perspective9797" inkscape:persp3d-origin="372.04724 : 350.78739 : 1">
		</inkscape:perspective>
	
		<inkscape:perspective  inkscape:vp_z="450 : 225 : 1" inkscape:vp_y="0 : 1000 : 0" inkscape:vp_x="0 : 225 : 1" sodipodi:type="inkscape:persp3d" id="perspective9795" inkscape:persp3d-origin="225 : 150 : 1">
		</inkscape:perspective>
	
		<inkscape:perspective  inkscape:vp_z="450 : 225 : 1" inkscape:vp_y="0 : 1000 : 0" inkscape:vp_x="0 : 225 : 1" sodipodi:type="inkscape:persp3d" id="perspective9793" inkscape:persp3d-origin="225 : 150 : 1">
		</inkscape:perspective>
	
		<inkscape:perspective  inkscape:vp_z="744.09448 : 526.18109 : 1" inkscape:vp_y="0 : 1000 : 0" inkscape:vp_x="0 : 526.18109 : 1" sodipodi:type="inkscape:persp3d" id="perspective9791" inkscape:persp3d-origin="372.04724 : 350.78739 : 1">
		</inkscape:perspective>
	
		<inkscape:perspective  inkscape:vp_z="744.09448 : 526.18109 : 1" inkscape:vp_y="0 : 1000 : 0" inkscape:vp_x="0 : 526.18109 : 1" sodipodi:type="inkscape:persp3d" id="perspective9789" inkscape:persp3d-origin="372.04724 : 350.78739 : 1">
		</inkscape:perspective>
	
		<inkscape:perspective  inkscape:vp_z="744.09448 : 526.18109 : 1" inkscape:vp_y="0 : 1000 : 0" inkscape:vp_x="0 : 526.18109 : 1" sodipodi:type="inkscape:persp3d" id="perspective9787" inkscape:persp3d-origin="372.04724 : 350.78739 : 1">
		</inkscape:perspective>
	
		<inkscape:perspective  inkscape:vp_z="744.09448 : 526.18109 : 1" inkscape:vp_y="0 : 1000 : 0" inkscape:vp_x="0 : 526.18109 : 1" sodipodi:type="inkscape:persp3d" id="perspective9785" inkscape:persp3d-origin="372.04724 : 350.78739 : 1">
		</inkscape:perspective>
	
		<inkscape:perspective  inkscape:vp_z="580 : 290 : 1" inkscape:vp_y="0 : 1000 : 0" inkscape:vp_x="0 : 290 : 1" sodipodi:type="inkscape:persp3d" id="perspective9783" inkscape:persp3d-origin="290 : 193.33333 : 1">
		</inkscape:perspective>
	
		<sodipodi:namedview  inkscape:cy="250.37448" inkscape:cx="475.26707" inkscape:zoom="0.61399264" pagecolor="#ffffff" bordercolor="#666666" borderopacity="1.0" id="namedview4258" inkscape:window-y="26" inkscape:window-x="0" inkscape:pageopacity="0.0" inkscape:pageshadow="2" inkscape:window-width="1012" inkscape:window-height="739">
		</sodipodi:namedview>
	
		<inkscape:perspective  inkscape:vp_z="200 : 100 : 1" inkscape:vp_y="0 : 1000 : 0" inkscape:vp_x="0 : 100 : 1" sodipodi:type="inkscape:persp3d" id="perspective11483" inkscape:persp3d-origin="100 : 66.666667 : 1">
		</inkscape:perspective>
	
		<inkscape:perspective  inkscape:vp_z="744.09448 : 526.18109 : 1" inkscape:vp_y="0 : 1000 : 0" inkscape:vp_x="0 : 526.18109 : 1" sodipodi:type="inkscape:persp3d" id="perspective34" inkscape:persp3d-origin="372.04724 : 350.78739 : 1">
		</inkscape:perspective>
	
		<inkscape:perspective  inkscape:vp_z="744.09448 : 526.18109 : 1" inkscape:vp_y="0 : 1000 : 0" inkscape:vp_x="0 : 526.18109 : 1" sodipodi:type="inkscape:persp3d" id="perspective13933" inkscape:persp3d-origin="372.04724 : 350.78739 : 1">
		</inkscape:perspective>
	
		<inkscape:perspective  inkscape:vp_z="744.09448 : 526.18109 : 1" inkscape:vp_y="0 : 1000 : 0" inkscape:vp_x="0 : 526.18109 : 1" sodipodi:type="inkscape:persp3d" id="perspective13955" inkscape:persp3d-origin="372.04724 : 350.78739 : 1">
		</inkscape:perspective>
	
		<inkscape:perspective  inkscape:vp_z="744.09448 : 526.18109 : 1" inkscape:vp_y="0 : 1000 : 0" inkscape:vp_x="0 : 526.18109 : 1" sodipodi:type="inkscape:persp3d" id="perspective2446" inkscape:persp3d-origin="372.04724 : 350.78739 : 1">
		</inkscape:perspective>
	
		<inkscape:perspective  inkscape:vp_z="405.71429 : 204.28572 : 1" inkscape:vp_y="0 : 1000 : 0" inkscape:vp_x="0 : 204.28572 : 1" sodipodi:type="inkscape:persp3d" id="perspective5571" inkscape:persp3d-origin="202.85715 : 136.19048 : 1">
		</inkscape:perspective>
	
		<inkscape:perspective  inkscape:vp_z="500 : 250 : 1" inkscape:vp_y="0 : 1000 : 0" inkscape:vp_x="0 : 250 : 1" sodipodi:type="inkscape:persp3d" id="perspective5412" inkscape:persp3d-origin="250 : 166.66667 : 1">
		</inkscape:perspective>
	
		<inkscape:perspective  inkscape:vp_z="32 : 16 : 1" inkscape:vp_y="0 : 1000 : 0" inkscape:vp_x="0 : 16 : 1" sodipodi:type="inkscape:persp3d" id="perspective5233" inkscape:persp3d-origin="16 : 10.666667 : 1">
		</inkscape:perspective>
	
		<inkscape:perspective  inkscape:vp_z="32 : 16 : 1" inkscape:vp_y="0 : 1000 : 0" inkscape:vp_x="0 : 16 : 1" sodipodi:type="inkscape:persp3d" id="perspective14642" inkscape:persp3d-origin="16 : 10.666667 : 1">
		</inkscape:perspective>
	
		<inkscape:perspective  inkscape:vp_z="12 : 6 : 1" inkscape:vp_y="0 : 1000 : 0" inkscape:vp_x="0 : 6 : 1" sodipodi:type="inkscape:persp3d" id="perspective14640" inkscape:persp3d-origin="6 : 4 : 1">
		</inkscape:perspective>
	
		<inkscape:perspective  inkscape:vp_z="744.09448 : 526.18109 : 1" inkscape:vp_y="0 : 1000 : 0" inkscape:vp_x="0 : 526.18109 : 1" sodipodi:type="inkscape:persp3d" id="perspective14638" inkscape:persp3d-origin="372.04724 : 350.78739 : 1">
		</inkscape:perspective>
	
		<inkscape:perspective  inkscape:vp_z="60 : 30 : 1" inkscape:vp_y="0 : 1000 : 0" inkscape:vp_x="0 : 30 : 1" sodipodi:type="inkscape:persp3d" id="perspective14626" inkscape:persp3d-origin="30 : 20 : 1">
		</inkscape:perspective>
	
		<inkscape:perspective  inkscape:vp_z="580 : 290 : 1" inkscape:vp_y="0 : 1000 : 0" inkscape:vp_x="0 : 290 : 1" sodipodi:type="inkscape:persp3d" id="perspective14624" inkscape:persp3d-origin="290 : 193.33333 : 1">
		</inkscape:perspective>
	
		<inkscape:perspective  inkscape:vp_z="744.09448 : 526.18109 : 1" inkscape:vp_y="0 : 1000 : 0" inkscape:vp_x="0 : 526.18109 : 1" sodipodi:type="inkscape:persp3d" id="perspective14775" inkscape:persp3d-origin="372.04724 : 350.78739 : 1">
		</inkscape:perspective>
	
		<inkscape:perspective  inkscape:vp_z="744.09448 : 526.18109 : 1" inkscape:vp_y="0 : 1000 : 0" inkscape:vp_x="0 : 526.18109 : 1" sodipodi:type="inkscape:persp3d" id="perspective14839" inkscape:persp3d-origin="372.04724 : 350.78739 : 1">
		</inkscape:perspective>
	
		<inkscape:perspective  inkscape:vp_z="744.09448 : 526.18109 : 1" inkscape:vp_y="0 : 1000 : 0" inkscape:vp_x="0 : 526.18109 : 1" sodipodi:type="inkscape:persp3d" id="perspective15123" inkscape:persp3d-origin="372.04724 : 350.78739 : 1">
		</inkscape:perspective>
	
		<inkscape:perspective  inkscape:vp_z="1 : 0.5 : 1" inkscape:vp_y="0 : 1000 : 0" inkscape:vp_x="0 : 0.5 : 1" sodipodi:type="inkscape:persp3d" id="perspective5089" inkscape:persp3d-origin="0.5 : 0.33333333 : 1">
		</inkscape:perspective>
</defs>
<g id="layer3" transform="matrix(48.14969,0,0,48.14969,-1210.2219,-51.870914)" inkscape:label="Layout" display="none">
	<rect id="rect4134" x="1" y="1" display="inline" fill="none" stroke="#757575" stroke-width="0.1" width="10" height="10"/>
	<rect id="rect4136" x="2" y="2" display="inline" fill="none" stroke="#757575" stroke-width="0.1" width="8" height="8"/>
</g>
<g id="g9828" transform="matrix(48.14969,0,0,48.14969,-1870.5198,102.97115)" inkscape:label="Layout" display="none">
	<rect id="rect9830" x="1" y="1" display="inline" fill="none" stroke="#757575" stroke-width="0.1" width="10" height="10"/>
	<rect id="rect9832" x="2" y="2" display="inline" fill="none" stroke="#757575" stroke-width="0.1" width="8" height="8"/>
</g>
<g id="g14695" transform="matrix(48.14969,0,0,48.14969,-1210.2219,-182.06834)" inkscape:label="Layout" display="none">
	<rect id="rect14697" x="1" y="1" display="inline" fill="none" stroke="#757575" stroke-width="0.1" width="10" height="10"/>
	<rect id="rect14699" x="2" y="2" display="inline" fill="none" stroke="#757575" stroke-width="0.1" width="8" height="8"/>
</g>
<path fill="#FFFB3D" stroke="#1EFF31" stroke-width="4.4444" d="M536.084,514.837c-25.686-53.9-50.498-89.879-78.088-113.228
	c-25.651-21.71-51.198-29.845-75.165-36.316c-5.69-1.536-8.177-1.563-10.371-1.588c-1.522-0.018-2.985-0.033-5.656-0.626
	c21.857-15.601,33.75-48.503,31.251-87.408c-3.172-49.366-30.86-112.423-99.061-141.349c-0.535-0.227-1.142-0.223-1.673,0.012
	c-0.532,0.234-0.944,0.678-1.139,1.227c-28.001,79.147-16.946,150.916,32.85,213.472c-23.416-11.202-67.422-36.71-107.08-84.437
	c25.194-26.126,37.132-54.21,35.493-83.503c-2.135-38.132-26.727-76.532-73.093-114.131c-0.502-0.407-1.164-0.56-1.795-0.419
	c-0.631,0.144-1.161,0.568-1.438,1.152c-17.106,36.042-23.477,67.806-19.478,97.108c2.661,19.494,9.671,36.346,17.836,51.008
	l-27-29.655c-0.117-16.179-3.286-46.232-22.496-71.655c-20.484-27.11-59.241-49.883-75.791-59.608
	c-3.08-1.81-6.005-3.529-6.96-4.221c-0.133-0.229-0.311-0.436-0.529-0.605c-0.702-0.544-1.67-0.593-2.421-0.117
	c-0.413,0.261-0.717,0.669-0.876,1.127l0,0c-0.001,0.003-0.009,0.027-0.016,0.05c-0.001,0.003-0.002,0.007-0.003,0.01
	c-0.003,0.009-0.006,0.019-0.008,0.025c-0.001,0.004-0.002,0.008-0.004,0.012c-0.666,2.099-15.994,51.813,11.454,88.458
	c13.636,20.64,48.166,43.473,82.296,54.453l38.044,41.722c-6.673-3.563-13.571-6.625-20.623-9.152
	c-11.277-4.041-24.679-6.09-39.833-6.09c-21.984,0-42.104,4.254-51.773,6.298c-2.045,0.433-3.994,0.845-4.832,0.963
	c-0.151-0.042-0.31-0.068-0.471-0.076c-0.865-0.044-1.658,0.449-2.015,1.233c-0.228,0.5-0.237,1.063-0.071,1.568l0,0
	c0.001,0.004,0.032,0.09,0.033,0.094c0.832,2.33,20.846,57.209,63.826,72.818c8.379,3.613,19.636,5.602,31.708,5.602
	c22.453,0,50.482-7.215,63.708-27.232c23.444,27.215,46.721,48.024,70.849,63.316c-13.322-1.294-26.348-1.947-38.836-1.947
	c-12.193,0-24.216,0.622-35.736,1.85c-0.033,0.004-0.066,0.008-0.1,0.013c-24.47,3.797-41.435,15.897-61.078,29.909
	c-11.168,7.967-22.717,16.204-36.974,23.915c-0.06,0.032-0.118,0.067-0.174,0.105c-0.983,0.662-2.531,1.979-4.491,3.646
	c-3,2.552-9.244,7.863-11.061,8.088c-0.898,0.11-1.625,0.781-1.808,1.667s0.22,1.789,1.001,2.246
	c11.022,6.446,22.191,14.111,32.992,21.523c25.097,17.224,51.049,35.033,76.113,37.907c4.795,0.55,9.677,0.829,14.508,0.829
	c34.492,0,67.649-13.795,90.969-37.849c18.433-19.012,28.519-42.58,28.605-66.666c10.57,3.466,20.678,6.136,30.479,8.726
	c2.809,0.742,5.589,1.477,8.343,2.221c23.111,6.24,39.167,13.066,62.783,33.051c23.193,19.63,41.714,52.989,67.777,107.682
	c0.355,0.746,1.104,1.201,1.902,1.201c0.159,0,0.319-0.018,0.479-0.055l23.292-5.417c0.622-0.145,1.146-0.563,1.422-1.139
	C536.358,516.084,536.36,515.413,536.084,514.837z"/>
</svg>
