<svg enable-background="new 0 0 580 580" height="580" viewBox="0 0 580 580" width="580" xmlns="http://www.w3.org/2000/svg">
<path d="m468.144 102.857l-34.719-33.092c-1.786-1.703-4.171-2.612-6.641-2.595l-154.869 2.553v-23.534c0-5.163-4.186-9.349-9.349-9.349h-45.572c-2.481 0-4.86.986-6.614 2.741-1.753 1.755-2.737 4.135-2.735 6.616l.476 499.093c.005 5.16 4.189 9.34 9.349 9.34h45.096c5.163 0 9.349-4.186 9.349-9.349v-404.633l155.454 6.345c.129.005.256.008.384.008 2.177 0 4.292-.756 5.978-2.146l33.905-27.938c2.076-1.71 3.319-4.228 3.416-6.915.097-2.688-.961-5.289-2.908-7.145z" fill="param(fill)" fill-opacity="param(fill-opacity)" stroke="param(outline)" stroke-opacity="param(outline-opacity)" stroke-width="param(outline-width)"/>
</svg>
