<?xml version="1.0" encoding="utf-8"?>
<!-- Generator: Adobe Illustrator 16.0.0, SVG Export Plug-In . SVG Version: 6.00 Build 0)  -->
<!DOCTYPE svg PUBLIC "-//W3C//DTD SVG 1.1//EN" "http://www.w3.org/Graphics/SVG/1.1/DTD/svg11.dtd">
<svg version="1.1"
	 id="svg2" xmlns:dc="http://purl.org/dc/elements/1.1/" xmlns:cc="http://creativecommons.org/ns#" xmlns:rdf="http://www.w3.org/1999/02/22-rdf-syntax-ns#" xmlns:svg="http://www.w3.org/2000/svg" xmlns:sodipodi="http://sodipodi.sourceforge.net/DTD/sodipodi-0.dtd" xmlns:inkscape="http://www.inkscape.org/namespaces/inkscape" inkscape:output_extension="org.inkscape.output.svg.inkscape" sodipodi:docname="poi_mine_abandoned.svg" inkscape:version="0.47 r22583" sodipodi:version="0.32"
	 xmlns="http://www.w3.org/2000/svg" xmlns:xlink="http://www.w3.org/1999/xlink" x="0px" y="0px" width="580px" height="580px"
	 viewBox="0 0 580 580" enable-background="new 0 0 580 580" xml:space="preserve">
<path opacity="0.3" fill="#FFFB3D" d="M465.779,444.078c-4.064-3.806-8.268-7.741-12.31-11.688
	c-31.939-30.567-63.913-61.205-95.905-91.861c-56.944-54.566-115.783-110.947-173.756-166.27c0.477-0.367,0.933-0.795,1.337-1.301
	c9.131-6.766,18.578-13.479,27.72-19.975c15.532-11.036,31.592-22.448,46.694-34.533c0.766-0.613,1.335-1.438,1.636-2.372
	c2.84-8.824-2.811-15.082-6.937-19.651c-1.718-1.902-3.34-3.698-4.256-5.41c-0.153-0.287-0.334-0.558-0.541-0.81
	c-3.698-4.516-7.244-9.444-10.672-14.21c-6.554-9.112-13.332-18.534-21.94-26.303c-0.574-0.518-1.26-0.896-2.004-1.104
	c-1.19-0.332-2.457-0.424-3.673-0.269c-0.599,0.078-1.178,0.262-1.71,0.546c-9.261,4.933-17.764,11.095-25.987,17.054
	c-5.075,3.678-10.324,7.481-15.621,10.892c-0.052,0.033-0.103,0.067-0.153,0.103c-33.064,23.048-74.474,55.097-101.481,98.741
	c-4.259,6.494-8.677,13.083-12.949,19.456c-8.063,12.026-16.399,24.461-24.115,36.91c-0.56,0.903-0.817,1.962-0.735,3.021
	c0.686,8.812,7.36,12.827,12.724,16.054c2.351,1.414,4.572,2.75,6.044,4.286c0.249,0.26,0.526,0.492,0.825,0.693
	c4.658,3.123,9.324,6.714,13.836,10.188c8.57,6.598,17.433,13.421,27.462,18.122c1.025,0.481,2.184,0.599,3.285,0.335
	c7.981-1.908,11.865-8.543,14.985-13.874c1.51-2.58,2.936-5.017,4.621-6.761c0.176-0.182,0.338-0.378,0.485-0.585
	c5.622-7.945,11.224-16.104,16.641-23.996c7.795-11.355,15.825-23.053,24.066-34.324c0.563,0.671,1.123,1.381,1.692,2.104
	c1.946,2.471,4.14,5.256,7.238,7.422c61.144,61.033,123.036,123.344,182.899,183.612c36.192,36.438,73.616,74.114,110.483,111.115
	c0.34,0.341,0.728,0.632,1.151,0.862c2.044,1.113,4.169,1.678,6.315,1.678c0.001,0,0,0,0.001,0c7.011,0,11.936-5.848,15.53-10.118
	c0.602-0.714,1.177-1.398,1.729-2.013c0.057-0.063,0.112-0.128,0.166-0.194c1.319-1.626,3.145-3.226,5.078-4.92
	c4.599-4.03,10.322-9.047,10.885-16.875c0.092-1.282-0.313-2.55-1.131-3.54C486.472,463.451,475.952,453.603,465.779,444.078z"/>
<path opacity="0.3" fill="#FFFB3D" d="M261.85,343.052c-1.778-1.439-3.457-2.799-4.543-4.1c-0.054-0.064-0.109-0.128-0.167-0.189
	c-0.477-0.516-0.961-1.079-1.461-1.659c-3.007-3.487-7.125-8.264-13.433-8.264c-1.054,0-2.124,0.141-3.179,0.42
	c-0.505,0.133-0.986,0.345-1.426,0.627c-6.124,3.932-10.701,9.249-15.127,14.391c-2.838,3.297-5.519,6.411-8.526,9.104
	c-0.114,0.103-0.223,0.209-0.327,0.321c-14.699,15.813-29.723,31.841-44.251,47.34c-23.607,25.185-48.018,51.226-71.72,77.079
	c-0.513,0.56-0.893,1.229-1.108,1.958c-2.866,9.667,4.522,15.488,9.41,19.34c1.565,1.233,3.044,2.398,4.035,3.483
	c0.205,0.226,0.431,0.431,0.674,0.615c1.372,1.039,2.809,2.547,4.329,4.144c3.909,4.103,8.773,9.21,15.949,9.21
	c0.658,0,1.329-0.045,1.994-0.134c1.098-0.146,2.116-0.652,2.895-1.439c14.849-15.011,28.939-31.108,42.567-46.676
	c8.958-10.232,18.22-20.813,27.571-30.938c0.029-0.031,0.057-0.063,0.085-0.094c7.871-8.968,15.99-18.025,23.842-26.784
	c13.53-15.094,27.521-30.701,40.768-46.43c0.529-0.627,0.895-1.375,1.066-2.178C273.787,352.717,266.888,347.131,261.85,343.052z"/>
<path opacity="0.3" fill="#FFFB3D" d="M543.524,256.567c-7.448-14.142-14.017-29.117-20.371-43.606
	c-7.876-17.958-16.021-36.527-26.003-53.947c-0.232-0.407-0.521-0.778-0.857-1.104c-5.858-5.678-12.068-11.149-18.073-16.441
	c-2.054-1.81-4.149-3.656-6.229-5.51c0.278-0.241,0.561-0.483,0.845-0.728c5.072-4.359,10.821-9.3,11.727-17.293
	c0.152-1.344-0.246-2.692-1.104-3.738c-6.432-7.825-13.706-15.352-23.305-17.431c-0.99-0.213-2.021-0.123-2.959,0.262
	c-5.621,2.31-9.524,6.557-12.968,10.304c-0.577,0.628-1.144,1.244-1.706,1.839c-20.849-19.38-40.119-38.081-58.8-57.057
	c-0.376-0.381-0.81-0.7-1.286-0.943c-2.176-1.114-4.43-1.543-6.591-1.255c-0.669,0.088-1.313,0.312-1.892,0.655
	c-7.044,4.174-12.977,9.693-18.715,15.03c-3.786,3.521-7.361,6.846-11.229,9.813c-0.106,0.082-0.21,0.168-0.31,0.258
	c-2.427,2.194-4.923,4.309-7.565,6.548c-6.894,5.84-14.021,11.879-19.629,19.258c-0.64,0.84-0.995,1.861-1.019,2.917
	c-0.179,8.244,5.582,13.108,10.212,17.017c2.082,1.758,4.049,3.419,5.281,5.146c0.166,0.232,0.352,0.45,0.555,0.65l48.682,48.114
	c-10.012,10.888-20.242,21.814-30.169,32.417c-13.7,14.633-27.867,29.764-41.535,44.872c-0.477,0.527-0.836,1.15-1.053,1.826
	c-3.025,9.426,4.099,15.276,8.813,19.147c1.176,0.965,2.292,1.882,3.14,2.729c3.54,5,9.873,9.921,16.359,9.921
	c3.738,0,7.067-1.586,9.643-4.603c22.73-26.883,47.074-53.647,70.221-78.873c6.263,3.787,11.53,9.064,17.061,14.604
	c5.893,5.903,11.985,12.007,19.604,16.481c0.087,0.051,0.176,0.1,0.266,0.146c10.261,5.218,20.628,10.765,30.654,16.13
	c16.372,8.761,33.302,17.82,50.39,25.784c0.542,0.253,1.125,0.406,1.721,0.453c0.302,0.023,0.598,0.035,0.887,0.035
	c4.386,0,8.102-2.652,9.698-6.921C547.59,264.987,546.599,259.84,543.524,256.567z"/>
<sodipodi:namedview  showgrid="false" inkscape:cy="-34.972495" inkscape:cx="441.97214" inkscape:zoom="0.35355339" pagecolor="#ffffff" bordercolor="#666666" guidetolerance="10.0" objecttolerance="10.0" gridtolerance="10.0" borderopacity="1.0" id="base" inkscape:window-maximized="0" inkscape:current-layer="svg2" inkscape:window-y="20" inkscape:window-x="0" inkscape:pageopacity="0.0" inkscape:pageshadow="2" inkscape:window-width="1400" inkscape:window-height="1003" inkscape:guide-bbox="true" showguides="true">
	</sodipodi:namedview>
<defs>
	
	
		<inkscape:perspective  inkscape:vp_z="580 : 290 : 1" inkscape:vp_y="0 : 1000 : 0" inkscape:vp_x="0 : 290 : 1" sodipodi:type="inkscape:persp3d" id="perspective12" inkscape:persp3d-origin="290 : 193.33333 : 1">
		</inkscape:perspective>
	
		<inkscape:perspective  inkscape:vp_z="58.232063 : 29.116032 : 1" inkscape:vp_y="0 : 1000 : 0" inkscape:vp_x="0 : 29.116032 : 1" sodipodi:type="inkscape:persp3d" id="perspective6807" inkscape:persp3d-origin="29.116032 : 19.410688 : 1">
		</inkscape:perspective>
	
		<inkscape:perspective  inkscape:vp_z="580 : 290 : 1" inkscape:vp_y="0 : 1000 : 0" inkscape:vp_x="0 : 290 : 1" sodipodi:type="inkscape:persp3d" id="perspective6954" inkscape:persp3d-origin="290 : 193.33333 : 1">
		</inkscape:perspective>
	
		<inkscape:perspective  inkscape:vp_z="480 : 240 : 1" inkscape:vp_y="0 : 1000 : 0" inkscape:vp_x="0 : 240 : 1" sodipodi:type="inkscape:persp3d" id="perspective2541" inkscape:persp3d-origin="240 : 160 : 1">
		</inkscape:perspective>
	
		<inkscape:perspective  inkscape:vp_z="430 : 215 : 1" inkscape:vp_y="0 : 1000 : 0" inkscape:vp_x="0 : 215 : 1" sodipodi:type="inkscape:persp3d" id="perspective2750" inkscape:persp3d-origin="215 : 143.33333 : 1">
		</inkscape:perspective>
</defs>
<path fill="none" stroke="#1EFF31" stroke-width="4.4444" d="M465.779,444.078c-4.064-3.806-8.268-7.741-12.31-11.688
	c-31.939-30.567-63.913-61.205-95.905-91.861c-56.944-54.566-115.783-110.947-173.756-166.27c0.477-0.367,0.933-0.795,1.337-1.301
	c9.131-6.766,18.578-13.479,27.72-19.975c15.532-11.036,31.592-22.448,46.694-34.533c0.766-0.613,1.335-1.438,1.636-2.372
	c2.84-8.824-2.811-15.082-6.937-19.651c-1.718-1.902-3.34-3.698-4.256-5.41c-0.153-0.287-0.334-0.558-0.541-0.81
	c-3.698-4.516-7.244-9.444-10.672-14.21c-6.554-9.112-13.332-18.534-21.94-26.303c-0.574-0.518-1.26-0.896-2.004-1.104
	c-1.19-0.332-2.457-0.424-3.673-0.269c-0.599,0.078-1.178,0.262-1.71,0.546c-9.261,4.933-17.764,11.095-25.987,17.054
	c-5.075,3.678-10.324,7.481-15.621,10.892c-0.052,0.033-0.103,0.067-0.153,0.103c-33.064,23.048-74.474,55.097-101.481,98.741
	c-4.259,6.494-8.677,13.083-12.949,19.456c-8.063,12.026-16.399,24.461-24.115,36.91c-0.56,0.903-0.817,1.962-0.735,3.021
	c0.686,8.812,7.36,12.827,12.724,16.054c2.351,1.414,4.572,2.75,6.044,4.286c0.249,0.26,0.526,0.492,0.825,0.693
	c4.658,3.123,9.324,6.714,13.836,10.188c8.57,6.598,17.433,13.421,27.462,18.122c1.025,0.481,2.184,0.599,3.285,0.335
	c7.981-1.908,11.865-8.543,14.985-13.874c1.51-2.58,2.936-5.017,4.621-6.761c0.176-0.182,0.338-0.378,0.485-0.585
	c5.622-7.945,11.224-16.104,16.641-23.996c7.795-11.355,15.825-23.053,24.066-34.324c0.563,0.671,1.123,1.381,1.692,2.104
	c1.946,2.471,4.14,5.256,7.238,7.422c61.144,61.033,123.036,123.344,182.899,183.612c36.192,36.438,73.616,74.114,110.483,111.115
	c0.34,0.341,0.728,0.632,1.151,0.862c2.044,1.113,4.169,1.678,6.315,1.678c0.001,0,0,0,0.001,0c7.011,0,11.936-5.848,15.53-10.118
	c0.602-0.714,1.177-1.398,1.729-2.013c0.057-0.063,0.112-0.128,0.166-0.194c1.319-1.626,3.145-3.226,5.078-4.92
	c4.599-4.03,10.322-9.047,10.885-16.875c0.092-1.282-0.313-2.55-1.131-3.54C486.472,463.451,475.952,453.603,465.779,444.078z"/>
<path fill="none" stroke="#1EFF31" stroke-width="4.4444" d="M261.85,343.052c-1.778-1.439-3.457-2.799-4.543-4.1
	c-0.054-0.064-0.109-0.128-0.167-0.189c-0.477-0.516-0.961-1.079-1.461-1.659c-3.007-3.487-7.125-8.264-13.433-8.264
	c-1.054,0-2.124,0.141-3.179,0.42c-0.505,0.133-0.986,0.345-1.426,0.627c-6.124,3.932-10.701,9.249-15.127,14.391
	c-2.838,3.297-5.519,6.411-8.526,9.104c-0.114,0.103-0.223,0.209-0.327,0.321c-14.699,15.813-29.723,31.841-44.251,47.34
	c-23.607,25.185-48.018,51.226-71.72,77.079c-0.513,0.56-0.893,1.229-1.108,1.958c-2.866,9.667,4.522,15.488,9.41,19.34
	c1.565,1.233,3.044,2.398,4.035,3.483c0.205,0.226,0.431,0.431,0.674,0.615c1.372,1.039,2.809,2.547,4.329,4.144
	c3.909,4.103,8.773,9.21,15.949,9.21c0.658,0,1.329-0.045,1.994-0.134c1.098-0.146,2.116-0.652,2.895-1.439
	c14.849-15.011,28.939-31.108,42.567-46.676c8.958-10.232,18.22-20.813,27.571-30.938c0.029-0.031,0.057-0.063,0.085-0.094
	c7.871-8.968,15.99-18.025,23.842-26.784c13.53-15.094,27.521-30.701,40.768-46.43c0.529-0.627,0.895-1.375,1.066-2.178
	C273.787,352.717,266.888,347.131,261.85,343.052z"/>
<path fill="none" stroke="#1EFF31" stroke-width="4.4444" d="M543.524,256.567c-7.448-14.142-14.017-29.117-20.371-43.606
	c-7.876-17.958-16.021-36.527-26.003-53.947c-0.232-0.407-0.521-0.778-0.857-1.104c-5.858-5.678-12.068-11.149-18.073-16.441
	c-2.054-1.81-4.149-3.656-6.229-5.51c0.278-0.241,0.561-0.483,0.845-0.728c5.072-4.359,10.821-9.3,11.727-17.293
	c0.152-1.344-0.246-2.692-1.104-3.738c-6.432-7.825-13.706-15.352-23.305-17.431c-0.99-0.213-2.021-0.123-2.959,0.262
	c-5.621,2.31-9.524,6.557-12.968,10.304c-0.577,0.628-1.144,1.244-1.706,1.839c-20.849-19.38-40.119-38.081-58.8-57.057
	c-0.376-0.381-0.81-0.7-1.286-0.943c-2.176-1.114-4.43-1.543-6.591-1.255c-0.669,0.088-1.313,0.312-1.892,0.655
	c-7.044,4.174-12.977,9.693-18.715,15.03c-3.786,3.521-7.361,6.846-11.229,9.813c-0.106,0.082-0.21,0.168-0.31,0.258
	c-2.427,2.194-4.923,4.309-7.565,6.548c-6.894,5.84-14.021,11.879-19.629,19.258c-0.64,0.84-0.995,1.861-1.019,2.917
	c-0.179,8.244,5.582,13.108,10.212,17.017c2.082,1.758,4.049,3.419,5.281,5.146c0.166,0.232,0.352,0.45,0.555,0.65l48.682,48.114
	c-10.012,10.888-20.242,21.814-30.169,32.417c-13.7,14.633-27.867,29.764-41.535,44.872c-0.477,0.527-0.836,1.15-1.053,1.826
	c-3.025,9.426,4.099,15.276,8.813,19.147c1.176,0.965,2.292,1.882,3.14,2.729c3.54,5,9.873,9.921,16.359,9.921
	c3.738,0,7.067-1.586,9.643-4.603c22.73-26.883,47.074-53.647,70.221-78.873c6.263,3.787,11.53,9.064,17.061,14.604
	c5.893,5.903,11.985,12.007,19.604,16.481c0.087,0.051,0.176,0.1,0.266,0.146c10.261,5.218,20.628,10.765,30.654,16.13
	c16.372,8.761,33.302,17.82,50.39,25.784c0.542,0.253,1.125,0.406,1.721,0.453c0.302,0.023,0.598,0.035,0.887,0.035
	c4.386,0,8.102-2.652,9.698-6.921C547.59,264.987,546.599,259.84,543.524,256.567z"/>
</svg>
