/* XPM */
static const char * icon_buffer[] = {
"22 22 278 2",
"  	c None",
". 	c #9CBBFE",
"+ 	c #8EB2FE",
"@ 	c #729FFE",
"# 	c #6B9AFE",
"$ 	c #89AFFE",
"% 	c #99B9FE",
"& 	c #93B5FE",
"* 	c #6A98FE",
"= 	c #7EA4FE",
"- 	c #96B3FE",
"; 	c #9FB9FE",
"> 	c #83A7FE",
", 	c #6E9AFE",
"' 	c #6696FE",
") 	c #91B3FE",
"! 	c #ABC5FE",
"~ 	c #6C9BFE",
"{ 	c #90AFFE",
"] 	c #BFCFFE",
"^ 	c #D0DCFE",
"/ 	c #D6E1FE",
"( 	c #D8E1FE",
"_ 	c #D1DCFE",
": 	c #C3D1FD",
"< 	c #94B2FC",
"[ 	c #6F9AFC",
"} 	c #6495FC",
"| 	c #A2BFFD",
"1 	c #ACC6FE",
"2 	c #6697FE",
"3 	c #79A0FE",
"4 	c #AFC4FE",
"5 	c #C4D4FE",
"6 	c #C9D8FE",
"7 	c #CADBFE",
"8 	c #CADDFE",
"9 	c #CADCFE",
"0 	c #C8DAFC",
"a 	c #C8D7F6",
"b 	c #C1CDDB",
"c 	c #B2C0CD",
"d 	c #81A1DB",
"e 	c #6293F6",
"f 	c #A0BEFC",
"g 	c #6798FE",
"h 	c #739CFE",
"i 	c #A5BEFE",
"j 	c #B5CBFE",
"k 	c #B7CEFE",
"l 	c #B8D0FE",
"m 	c #B8D1FE",
"n 	c #B7D1FC",
"o 	c #B7D0F3",
"p 	c #B2BBA9",
"q 	c #D8D26D",
"r 	c #E9DF66",
"s 	c #C3BF66",
"t 	c #7992AD",
"u 	c #6193F7",
"v 	c #A8C3FD",
"w 	c #83ABFE",
"x 	c #6393FE",
"y 	c #92B1FE",
"z 	c #A2BEFE",
"A 	c #A4C2FE",
"B 	c #A5C4FE",
"C 	c #A6C4FE",
"D 	c #A6C4FD",
"E 	c #A5C4FB",
"F 	c #A6C4F4",
"G 	c #9EABA4",
"H 	c #D9D161",
"I 	c #F8EB5C",
"J 	c #E9DC55",
"K 	c #B3B167",
"L 	c #6C95E4",
"M 	c #77A2FD",
"N 	c #6093FE",
"O 	c #739DFE",
"P 	c #8DB0FE",
"Q 	c #90B4FE",
"R 	c #91B7FE",
"S 	c #92B7FC",
"T 	c #93B7F9",
"U 	c #95B5E9",
"V 	c #92A9C4",
"W 	c #97A18E",
"X 	c #D2CA60",
"Y 	c #A59C3B",
"Z 	c #474318",
"` 	c #F2E559",
" .	c #C9C361",
"..	c #7A9BDA",
"+.	c #5A8FFD",
"@.	c #A5C1FE",
"#.	c #89AEFE",
"$.	c #598DFE",
"%.	c #7BA5FD",
"&.	c #7DAAFC",
"*.	c #7FACFA",
"=.	c #84ACF1",
"-.	c #8BA3B9",
";.	c #A7AA70",
">.	c #D4CD5D",
",.	c #F0E45E",
"'.	c #F8EB5B",
").	c #B1A73F",
"!.	c #25230C",
"~.	c #B5AB41",
"{.	c #F7EB5D",
"].	c #B0B270",
"^.	c #779DE8",
"/.	c #5A8EFD",
"(.	c #7BA5FE",
"_.	c #78A3FE",
":.	c #6695FC",
"<.	c #6B9CF7",
"[.	c #75A2EA",
"}.	c #85A4C3",
"|.	c #A4AE86",
"1.	c #D7D061",
"2.	c #F7EA5D",
"3.	c #ECDF56",
"4.	c #C5BA47",
"5.	c #736D28",
"6.	c #28260D",
"7.	c #AAA03C",
"8.	c #F7EA5C",
"9.	c #D1CD68",
"0.	c #7E9EBE",
"a.	c #6292F8",
"b.	c #588DFD",
"c.	c #6899FE",
"d.	c #5E92FE",
"e.	c #548CFC",
"f.	c #6091EE",
"g.	c #8BA5AD",
"h.	c #B8BD79",
"i.	c #DDD663",
"j.	c #F5E95E",
"k.	c #F4E759",
"l.	c #A99F3C",
"m.	c #2E2B0F",
"n.	c #0E0D04",
"o.	c #676224",
"p.	c #CDC24A",
"q.	c #D6D26A",
"r.	c #83A1B6",
"s.	c #5A8FF5",
"t.	c #558CFC",
"u.	c #548CFE",
"v.	c #568DFE",
"w.	c #8FB2FE",
"x.	c #558DF7",
"y.	c #88A3AE",
"z.	c #E3DB63",
"A.	c #AEA43E",
"B.	c #494519",
"C.	c #302D10",
"D.	c #403C16",
"E.	c #4D491B",
"F.	c #F1E65F",
"G.	c #C6C773",
"H.	c #7E9EBD",
"I.	c #588EF4",
"J.	c #8BB0FE",
"K.	c #6295FD",
"L.	c #5A8FF1",
"M.	c #B1BA83",
"N.	c #978E35",
"O.	c #312E10",
"P.	c #3A3714",
"Q.	c #968E35",
"R.	c #E5D852",
"S.	c #635E23",
"T.	c #8C8432",
"U.	c #F8EB5D",
"V.	c #B2BA82",
"W.	c #6A96DA",
"X.	c #568DF7",
"Y.	c #598FFE",
"Z.	c #A7C2FE",
"`.	c #79A4FD",
" +	c #598EF2",
".+	c #AAB68A",
"++	c #F6EA5D",
"@+	c #C9BF49",
"#+	c #F2E558",
"$+	c #FDEF5C",
"%+	c #E2D551",
"&+	c #322F11",
"*+	c #AFA53E",
"=+	c #F4E85F",
"-+	c #92A8A2",
";+	c #558CF8",
">+	c #548CFD",
",+	c #8DB1FE",
"'+	c #558CF9",
")+	c #7A9DC3",
"!+	c #CFCD6D",
"~+	c #F0E560",
"{+	c #F5E95F",
"]+	c #FAED5E",
"^+	c #625C22",
"/+	c #605B21",
"(+	c #F3E659",
"_+	c #DDD766",
":+	c #769BC7",
"<+	c #548CFA",
"[+	c #82AAFE",
"}+	c #6697FC",
"|+	c #578DF5",
"1+	c #6F98D2",
"2+	c #87A2AF",
"3+	c #A6B289",
"4+	c #F2E65F",
"5+	c #D1C64B",
"6+	c #514C1C",
"7+	c #D3C84C",
"8+	c #9DAE97",
"9+	c #548CFB",
"0+	c #548CF9",
"a+	c #7098D0",
"b+	c #D3D06A",
"c+	c #F6E95B",
"d+	c #F4E85E",
"e+	c #C1C475",
"f+	c #6A96DB",
"g+	c #80A8FE",
"h+	c #709EFE",
"i+	c #6693F4",
"j+	c #8DA4B3",
"k+	c #B6B771",
"l+	c #BEBB69",
"m+	c #A5AC86",
"n+	c #83A2D2",
"o+	c #6B98F8",
"p+	c #6796FD",
"q+	c #6594FE",
"r+	c #6191FE",
"s+	c #6D9CFE",
"t+	c #739BFC",
"u+	c #87A8F7",
"v+	c #96B0EA",
"w+	c #9AB2E5",
"x+	c #9AB4F1",
"y+	c #95B1FA",
"z+	c #93B0FD",
"A+	c #8FAEFE",
"B+	c #86A8FE",
"C+	c #769DFE",
"D+	c #5B8EFE",
"E+	c #6597FE",
"F+	c #B0C9FE",
"G+	c #76A2FE",
"H+	c #5B8FFE",
"I+	c #6C98FD",
"J+	c #97B3FD",
"K+	c #AAC0FD",
"L+	c #B6C7FD",
"M+	c #B7C8FE",
"N+	c #ACC1FE",
"O+	c #9AB5FE",
"P+	c #719BFE",
"Q+	c #5C8FFE",
"R+	c #719EFE",
"S+	c #A8C3FE",
"T+	c #75A1FE",
"U+	c #6193FE",
"V+	c #6997FE",
"W+	c #81A6FE",
"X+	c #86A9FE",
"Y+	c #6B98FE",
"Z+	c #A2BFFE",
"`+	c #9DBCFE",
" @	c #8CB1FE",
".@	c #9ABAFE",
"                                            ",
"                . + @ # $ %                 ",
"            & # * = - ; > , ' )             ",
"        ! ~ * { ] ^ / ( _ : < [ } |         ",
"      1 2 3 4 5 6 7 8 9 0 a b c d e f       ",
"      g h i j k l m m n o p q r s t u v     ",
"    w x y z A B C D E F G H I J I K L M     ",
"    N O P Q R S T U V W X I Y Z `  ...+.@.  ",
"  #.$.O %.&.*.=.-.;.>.,.'.).!.~.{.].^./.(.  ",
"  _.$.:.<.[.}.|.1.2.3.4.5.6.7.8.9.0.a.b.c.  ",
"  d.e.f.g.h.i.j.k.l.m.n.o.p.8.q.r.s.t.u.v.% ",
"w.u.x.y.z.8.3.A.B.C.D.E.k.F.G.H.I.e.u.u.u.J.",
"  K.L.M.{.N.O.P.Q.R.S.T.U.V.W.X.e.u.u.u.Y.Z.",
"  `. +.+++@+4.#+$+%+&+*+=+-+;+>+u.u.u.u.~   ",
"  ,+'+)+!+~+{+]+k.^+/+(+_+:+<+u.u.u.u.u.[+  ",
"    }+|+1+2+3+4+5+6+7+4+8+L.e.u.u.u.u.d.    ",
"    #.>+9+0+a+b+8.c+d+e+f+9+u.u.u.u.u.g+    ",
"      h+u.b.i+j+k+l+m+n+o+p+q+r+$.u.2       ",
"        s+$.t+u+v+w+x+y+z+A+B+C+D+E+F+      ",
"          G+H+I+J+K+L+M+N+O+P+Q+R+          ",
"            S+T+U+V+W+X+Y+U+h+Z+            ",
"                  `+ @ @.@                  "};
