<?xml version="1.0" encoding="UTF-8" standalone="no"?>
<!-- Generator: Adobe Illustrator 9.0, SVG Export Plug-In  -->

<svg
   xmlns:dc="http://purl.org/dc/elements/1.1/"
   xmlns:cc="http://creativecommons.org/ns#"
   xmlns:rdf="http://www.w3.org/1999/02/22-rdf-syntax-ns#"
   xmlns:svg="http://www.w3.org/2000/svg"
   xmlns="http://www.w3.org/2000/svg"
   xmlns:sodipodi="http://sodipodi.sourceforge.net/DTD/sodipodi-0.dtd"
   xmlns:inkscape="http://www.inkscape.org/namespaces/inkscape"
   width="112.02pt"
   height="113.641pt"
   viewBox="0 0 112.02 113.641"
   xml:space="preserve"
   id="svg2495"
   sodipodi:version="0.32"
   inkscape:version="0.47 r22583"
   sodipodi:docname="NorthArrow12.svg"
   inkscape:output_extension="org.inkscape.output.svg.inkscape"
   version="1.1"><metadata
   id="metadata2509"><rdf:RDF><cc:Work
       rdf:about=""><dc:format>image/svg+xml</dc:format><dc:type
         rdf:resource="http://purl.org/dc/dcmitype/StillImage" /></cc:Work></rdf:RDF></metadata><defs
   id="defs2507"><inkscape:perspective
     sodipodi:type="inkscape:persp3d"
     inkscape:vp_x="0 : 71.025627 : 1"
     inkscape:vp_y="0 : 1000 : 0"
     inkscape:vp_z="140.02499 : 71.025627 : 1"
     inkscape:persp3d-origin="70.012497 : 47.350418 : 1"
     id="perspective2511" /></defs><sodipodi:namedview
   inkscape:window-height="882"
   inkscape:window-width="1440"
   inkscape:pageshadow="2"
   inkscape:pageopacity="0.0"
   guidetolerance="10.0"
   gridtolerance="10.0"
   objecttolerance="10.0"
   borderopacity="1.0"
   bordercolor="#666666"
   pagecolor="#ffffff"
   id="base"
   showgrid="false"
   inkscape:zoom="4.4535136"
   inkscape:cx="28.007869"
   inkscape:cy="78.16933"
   inkscape:window-x="0"
   inkscape:window-y="1047"
   inkscape:current-layer="g3115"
   showguides="true"
   inkscape:guide-bbox="true"
   inkscape:window-maximized="1" />
	
<g
   id="g3725"><g
     transform="matrix(0.9967843,0,0,0.9968324,0.1611099,0.3592317)"
     id="g3115"><path
       sodipodi:type="arc"
       style="fill:#ffff00;fill-opacity:1;fill-rule:nonzero;stroke:none"
       id="path3021"
       sodipodi:cx="59.679817"
       sodipodi:cy="57.638145"
       sodipodi:rx="52.89159"
       sodipodi:ry="53.74012"
       d="m 112.57141,57.638145 a 52.89159,53.74012 0 1 1 -105.7831829,0 52.89159,53.74012 0 1 1 105.7831829,0 z"
       transform="matrix(1.0561497,0,0,1.0552631,-7.0017583,-4.1827247)" /><path
       style="fill:#000000;fill-opacity:1;fill-rule:nonzero;stroke:none"
       d="m 55.929063,11.640064 -37.1,37.275 21.2,-0.1 0,48.25 0,1.549996 c -0.004,0.05513 -0.025,0.09452 -0.025,0.15 0,0.0555 0.02099,0.11988 0.025,0.175 l 0,0.15 0.025,0 c 0.42852,3.16033 7.39928,5.67499 15.95,5.675 8.5495,10e-6 15.51968,-2.5153 15.95,-5.675 l 0.05,0 0,-0.325 0,-1.499996 c 0.01378,-0.06903 0.025,-0.130096 0.025,-0.2 0,-0.06992 0.01382,-0.155968 0,-0.225 l 0,-48.2 21.2,-0.1 -37.3,-36.9 z"
       id="path3086" /></g></g></svg>