/* XPM */
static const char *mIconAddWfsLayer[]={
"22 22 274 2",
"Qt c None",
".Q c None",
"#L c #000000",
"#K c #000000",
"#r c #000001",
"cf c #010102",
".i c #000001",
".# c #000002",
"cc c #030305",
"cd c #030305",
"ce c #030306",
"bp c #000000",
".P c #000107",
".u c #01040c",
"b6 c #000101",
"bF c #000001",
".G c #000410",
"cb c #0b0b0e",
"aT c #000002",
".7 c #00030a",
".j c #010613",
".F c #010611",
".Z c #030917",
".v c #020817",
".h c #050c1d",
".a c #050e23",
"b5 c #0a0c13",
"ak c #151c30",
"aB c #010715",
"ca c #242428",
"#e c #071025",
"bT c #0a0e19",
".8 c #101b3d",
"b. c #020919",
"ck c #06121f",
".Y c #101b3d",
"b4 c #1b1f2f",
"aj c #05112e",
"#4 c #1e2b4f",
".g c #253358",
".t c #313d5c",
"#q c #131e40",
".R c #162652",
"bU c #121b26",
"bV c #1a232d",
".b c #23345d",
"#f c #182855",
".k c #2e3d63",
"bE c #0b1531",
"bo c #05112f",
"#3 c #07173f",
"#J c #132149",
"aC c #61676e",
"#M c #2b3a67",
"#s c #2c3c6c",
".O c #394872",
".E c #4f5d81",
"bS c #29365a",
".H c #3a4c7f",
".f c #4c5e89",
"aS c #1c2d5c",
".w c #4c5c88",
".c c #4b5d89",
"cg c #031f51",
".6 c #384a81",
"c# c #8e8e92",
".e c #63739c",
".d c #63739c",
".0 c #384d8c",
"cl c #051d40",
"aD c #737b91",
".l c #8e9aba",
"bR c #526192",
"bD c #2b417e",
"a9 c #0e2970",
"aA c #495b96",
"c. c #d0d0d2",
"al c #6a79b0",
"bn c #16327b",
"#d c #5d6da9",
".X c #8a96c3",
"bQ c #717eb1",
".D c #cdd3e6",
".x c #cad1e6",
".m c #cfd5e6",
"b7 c #032562",
"cm c #052351",
"bP c #0a293e",
"aa c #0a2979",
"bi c #0b3a54",
"bz c #0b3b54",
"as c #0d2c7b",
"aO c #0e2c79",
"bZ c #0e96be",
"ax c #0f2a6f",
"ch c #0f5a7d",
"bh c #0f8eb6",
"b8 c #106e93",
"ci c #107ea6",
"#U c #12307d",
"a3 c #133348",
"a2 c #13688c",
"by c #138fb7",
"bg c #1397be",
"b0 c #157296",
"cn c #173156",
"bY c #1799bf",
"bW c #192b47",
"a1 c #197397",
"a6 c #1c3a85",
"#0 c #1d3575",
"af c #1e3779",
"a8 c #1e3b86",
"bX c #1e7699",
"a7 c #213e87",
"bO c #217294",
"a5 c #233f88",
"at c #244087",
"aP c #264187",
"bx c #27a0c3",
"co c #2b3e58",
"a4 c #2b468d",
"ag c #2c4079",
"aQ c #2c4589",
"#2 c #2c4790",
"bL c #2ca2c4",
"ai c #2d478f",
"#x c #2f4989",
"#y c #304b8f",
"bm c #304b91",
"ay c #334579",
"bN c #3685a3",
"aJ c #374552",
"aN c #375194",
"bG c #3b5160",
"#O c #3b659f",
"bM c #3b88a5",
"bl c #3e5697",
"aL c #3f5f7c",
"b1 c #40515d",
"bf c #41abca",
"#1 c #425896",
"aw c #425997",
"b3 c #42617b",
"bk c #445b9a",
"#I c #455c9f",
"bI c #4588a5",
"#H c #465993",
"aM c #485e9c",
"bj c #495f9d",
"a0 c #4a8fab",
"bC c #4b62a0",
"#h c #4b639d",
"aR c #4c62a2",
"#z c #4c639c",
"#g c #4c649c",
"bK c #4dafcc",
"aI c #4e8ea8",
"#6 c #4f6e9c",
"aK c #506d80",
"ab c #51669d",
"#w c #526393",
"bw c #56b4d0",
"bH c #578da6",
"ah c #5a6ca7",
"am c #5a77a4",
"b2 c #5c7c90",
"bJ c #5e9ab2",
"bv c #5eb7d2",
"#A c #5f72a2",
"bB c #5f72aa",
"aq c #629ab2",
"#G c #6574a5",
"#Z c #6677a9",
"#p c #6878b4",
"ar c #687e8c",
"bA c #6a7baf",
"be c #6cbdd4",
"cj c #6e757f",
"#S c #707d88",
"bd c #73bed4",
"#V c #7485af",
"a# c #748997",
"bu c #76c0d6",
"b9 c #777d84",
"#o c #7783b4",
"#T c #7992a0",
"aZ c #79c2d6",
"#5 c #7d89c0",
"cp c #7e889a",
"#N c #828dc3",
"#t c #828ec4",
"aE c #8291a9",
"aY c #82c5d7",
"bq c #83949c",
"aH c #84c6d8",
"a. c #86a6b7",
"bs c #87c8da",
".S c #8894c3",
"#Q c #8b9ca5",
"az c #8c96c7",
"bt c #8eccdd",
"aU c #8f98a1",
"bc c #8fcadb",
"ae c #919ec7",
"#P c #92a0a9",
"#v c #949dc7",
"#u c #949dcc",
"#R c #95a1a8",
"#n c #99a2c5",
"#c c #99a2ce",
"b# c #9ca6ae",
"ap c #9ed0e0",
".T c #9fabc9",
".5 c #a2aad3",
"aG c #a2d3e1",
"aX c #a7c9d5",
"#7 c #a8bfc9",
"av c #aab3d4",
"br c #aad3e1",
"au c #acb4d4",
"#F c #afb6d7",
"an c #b0cad4",
"bb c #b1d8e4",
"aF c #b2ced8",
"#B c #b5bdd4",
"#8 c #b5d3db",
"#m c #b7bdd8",
"#9 c #b8d5e0",
"ao c #badde6",
".K c #bbc2d4",
"#b c #bec4e0",
".J c #bfc4d4",
"aW c #c1d5de",
".I c #c2cae2",
"#Y c #c3c9e2",
"#a c #c4cae1",
".N c #c4cce3",
"aV c #c4d4db",
".4 c #c8cde4",
".1 c #cacfe0",
"#E c #cbd0e6",
"ad c #ccd0e6",
".3 c #cfd3e7",
"#l c #cfd3e8",
".L c #cfd4e2",
"ba c #cfe4ec",
"## c #d1d5e8",
".W c #d2d6e9",
".U c #d3d7e7",
".2 c #d3d7e9",
"#X c #d4d8ea",
".V c #d5d9ea",
"ac c #d7daeb",
"#D c #d9dcec",
"#k c #dadded",
"#. c #dbdeed",
".M c #e0e3f0",
".9 c #e1e4f0",
".A c #e3e6f0",
"#j c #e4e7f2",
"#W c #e5e7f2",
".B c #e6e8f1",
".n c #e7ebf3",
"#i c #e9ebf3",
"#C c #e9ebf5",
".z c #eaecf4",
".q c #ebeef5",
".C c #edeef6",
".y c #eeeff7",
".o c #eff1f7",
".p c #f1f3f8",
".s c #ff0000",
".r c #ffc0c0",
"QtQtQtQtQtQt.#.a.b.c.d.e.f.g.h.iQtQtQtQtQtQt",
"QtQtQtQtQt.j.k.l.m.n.o.p.q.r.s.t.uQtQtQtQtQt",
"QtQtQtQt.v.w.x.y.z.A.B.C.r.s.s.D.E.FQtQtQtQt",
"QtQtQt.G.H.I.r.r.J.K.L.r.s.s.r.M.N.O.PQtQtQt",
"QtQt.Q.R.S.r.s.s.r.T.r.s.s.r.U.V.W.X.YQtQtQt",
"QtQt.Z.0.r.s.s.s.s.r.s.s.r.1.2.3.4.5.6.7QtQt",
"QtQt.8.r.s.s.r.r.s.s.s.r.9#.###a#b#c#d#eQtQt",
"QtQt#f.s.s.r#g#h.r.r.r#i#j#k#l#m#n#o#p#qQtQt",
"Qt#r#s#t#u#v#w#x#y#z#A#B#C#D#E#F#G#H#I#J#KQt",
"Qt#L#M#N#O#P#Q#R#S#T#U#V#W#X#Y#Z#0#1#2#3#KQt",
"QtQt#4#5#6#7#8#9a.a#aaabacadaeafagahaiajQtQt",
"QtQtakalamanaoapaqarasatauavawaxayazaAaBQtQt",
"QtQtaCaDaEaFaGaHaIaJaKaLaMaNaOaPaQaRaSaTQtQt",
"QtQtaUaVaWaXaYaZa0a1a2a3a4a5a6a7a8a9b.QtQtQt",
"QtQtb#babbbcbdbebfbgbhbibjbkblbmbnbobpQtQtQt",
"QtQtbqbrbsbtbubvbwbxbybzbAbBbCbDbEbFQtQtQtQt",
"QtQtbGbHbIbJbKbLbMbNbObPbQbRbSbTbpQtQtQtQtQt",
"QtQtbUbVbWbXbYbZb0b1b2b3b4b5b6#LQtQtQtQtQtQt",
"QtQtQtQtb7b8bZbZb8b9c.c#cacbcccdcecfQtQtQtQt",
"QtQtQtQtcgchcicichcjQtQtQtQtQtQtQtQtQtQtQtQt",
"QtQtQtQtckclcmcncocpQtQtQtQtQtQtQtQtQtQtQtQt",
"QtQtQtQtQtQtQtQtQtQtQtQtQtQtQtQtQtQtQtQtQtQt"};
