<?xml version="1.0" encoding="iso-8859-1"?>
<!-- Generator: Adobe Illustrator 9.0, SVG Export Plug-In  -->
<!DOCTYPE svg PUBLIC "-//W3C//DTD SVG 20000303 Stylable//EN"   "http://www.w3.org/TR/2000/03/WD-SVG-20000303/DTD/svg-20000303-stylable.dtd" [
	<!ENTITY st0 "fill:#FFFF00;">
	<!ENTITY st1 "fill:#008C00;stroke:#008900;">
	<!ENTITY st2 "fill-rule:nonzero;clip-rule:nonzero;fill:#FF0000;stroke:#000000;stroke-miterlimit:4;">
]>
<svg  width="93.349pt" height="115.089pt" viewBox="0 0 93.349 115.089" xml:space="preserve">
	<g id="Layer_x0020_1" style="&st2;">
		<path style="&st1;" d="M48.958,114.589h-3.29V52.882h3.29v61.707z"/>
		<g>
			<path d="M47.242,30.881c0,4.558-6.689,8.253-14.941,8.253c-8.251,0-14.941-3.695-14.941-8.253c0-4.558,6.689-8.253,14.941-8.253c8.252,0,14.941,3.695,14.941,8.253z"/>
			<path d="M77.359,30.999c0,4.559-6.689,8.253-14.94,8.253c-8.252,0-14.941-3.694-14.941-8.253c0-4.557,6.689-8.252,14.941-8.252c8.251,0,14.94,3.695,14.94,8.252z"/>
			<path d="M47.417,30.881c-4.483,0-8.117-6.801-8.117-15.191c0-8.389,3.634-15.19,8.118-15.19c4.483,0,8.118,6.801,8.118,15.19c0,8.39-3.636,15.191-8.119,15.191z"/>
			<path d="M47.302,61.5c-4.483,0-8.118-6.802-8.118-15.19c0-8.391,3.635-15.19,8.118-15.19c4.482,0,8.117,6.8,8.117,15.19c0,8.388-3.635,15.19-8.117,15.19z"/>
			<path d="M46.382,31.111c-3.295,3.091-10.502,0.599-16.098-5.567c-5.596-6.166-7.462-13.669-4.167-16.76c3.295-3.091,10.502-0.599,16.099,5.566c5.596,6.166,7.461,13.669,4.167,16.76z"/>
			<path d="M66.722,53.694c-3.296,3.089-10.503,0.599-16.098-5.567c-5.597-6.165-7.462-13.668-4.167-16.759c3.294-3.091,10.501-0.598,16.097,5.566c5.596,6.165,7.461,13.669,4.168,16.76z"/>
			<path d="M47.01,30.012c-3.409-2.96-1.828-10.53,3.531-16.909c5.36-6.379,12.469-9.151,15.877-6.19c3.41,2.96,1.828,10.531-3.532,16.91c-5.359,6.378-12.467,9.149-15.875,6.189z"/>
			<path d="M27.36,53.219c-3.409-2.961-1.828-10.532,3.532-16.91c5.359-6.379,12.468-9.15,15.876-6.189c3.408,2.959,1.826,10.529-3.533,16.909c-5.359,6.379-12.468,9.149-15.876,6.19z"/>
			<path style="&st0;" d="M58.237,30.119c0-6.44-5.135-11.66-11.468-11.66c-6.334,0-11.468,5.22-11.468,11.66c0,6.439,5.134,11.659,11.468,11.659c6.333,0,11.468-5.22,11.468-11.659z"/>
		</g>
		<path style="&st1;" d="M48.608,107.526c-2.704-2.521,4.889-15.057,16.958-28s24.043-21.394,26.747-18.871c2.702,2.519-4.89,15.054-16.959,27.999c-12.068,12.943-24.043,21.392-26.746,18.872z"/>
		<path style="&st1;" d="M47.813,109.11c-2.52,2.704-15.057-4.889-28-16.958C6.87,80.083-1.58,68.11,0.942,65.405c2.519-2.701,15.054,4.891,28,16.959c12.943,12.068,21.391,24.043,18.871,26.746z"/>
	</g>
</svg>
