<?xml version="1.0" encoding="UTF-8" standalone="no"?>
<svg
   xmlns:dc="http://purl.org/dc/elements/1.1/"
   xmlns:cc="http://creativecommons.org/ns#"
   xmlns:rdf="http://www.w3.org/1999/02/22-rdf-syntax-ns#"
   xmlns:svg="http://www.w3.org/2000/svg"
   xmlns="http://www.w3.org/2000/svg"
   xmlns:sodipodi="http://sodipodi.sourceforge.net/DTD/sodipodi-0.dtd"
   xmlns:inkscape="http://www.inkscape.org/namespaces/inkscape"
   height="48"
   width="48"
   version="1.1"
   id="svg13"
   sodipodi:docname="temporalVcrSettings2.svg"
   inkscape:version="0.92.4 (unknown)">
  <metadata
     id="metadata19">
    <rdf:RDF>
      <cc:Work
         rdf:about="">
        <dc:format>image/svg+xml</dc:format>
        <dc:type
           rdf:resource="http://purl.org/dc/dcmitype/StillImage" />
        <dc:title />
      </cc:Work>
    </rdf:RDF>
  </metadata>
  <defs
     id="defs17" />
  <sodipodi:namedview
     pagecolor="#ffffff"
     bordercolor="#666666"
     borderopacity="1"
     objecttolerance="10"
     gridtolerance="10"
     guidetolerance="10"
     inkscape:pageopacity="0"
     inkscape:pageshadow="2"
     inkscape:window-width="1299"
     inkscape:window-height="713"
     id="namedview15"
     showgrid="false"
     inkscape:zoom="9.8333333"
     inkscape:cx="12.152543"
     inkscape:cy="24.20339"
     inkscape:window-x="67"
     inkscape:window-y="27"
     inkscape:window-maximized="1"
     inkscape:current-layer="svg13" />
  <linearGradient
     id="a"
     gradientUnits="userSpaceOnUse"
     x1="9.5"
     x2="15.5"
     y1="15.5"
     y2="23.5">
    <stop
       offset="0"
       stop-color="#fef5af"
       id="stop2" />
    <stop
       offset=".1986319"
       stop-color="#fbe741"
       id="stop4" />
    <stop
       offset=".71306628"
       stop-color="#fbe21e"
       id="stop6" />
    <stop
       offset="1"
       stop-color="#e3ca04"
       id="stop8" />
  </linearGradient>
  <path
     d="m 19.509474,3.1570395 v 7.8692355 c -0.41701,0.148573 -0.835395,0.318124 -1.233315,0.505364 L 12.689967,5.9726373 6.0881036,12.542367 11.674297,18.101371 c -0.186562,0.394619 -0.358956,0.812057 -0.507837,1.22731 H 3.2587339 v 9.240942 H 11.16646 c 0.147582,0.413347 0.322688,0.833591 0.507837,1.22731 l -5.5861934,5.559004 6.6018634,6.56973 5.586192,-5.559001 c 0.398255,0.186945 0.816471,0.356876 1.233315,0.505363 v 7.869236 h 9.286138 v -7.869236 c 0.416844,-0.148473 0.835059,-0.318431 1.233313,-0.505363 l 5.586193,5.559001 6.601864,-6.56973 -5.586193,-5.559004 c 0.185141,-0.393719 0.360247,-0.813963 0.507836,-1.22731 h 7.907726 v -9.240942 h -7.907726 c -0.149201,-0.414814 -0.319988,-0.830997 -0.507836,-1.22731 l 5.586193,-5.559004 -6.601864,-6.5697297 -5.586193,5.5590017 c -0.395647,-0.18424 -0.817942,-0.358493 -1.233313,-0.505364 V 3.1570395 Z M 24.152543,18.39015 c 3.081903,0 5.586193,2.492098 5.586193,5.559004 0,3.066902 -2.50429,5.559001 -5.586193,5.559001 -3.081904,0 -5.586192,-2.492099 -5.586192,-5.559001 0,-3.066906 2.504288,-5.559004 5.586192,-5.559004 z"
     style="overflow:visible;opacity:1;fill:#ffffff;fill-opacity:1;fill-rule:evenodd;stroke:#000000;stroke-width:1.99299085;stroke-linecap:round;stroke-linejoin:round;stroke-opacity:1"
     id="path11"
     inkscape:connector-curvature="0" />
</svg>
