/* XPM */
static const char *icon[]={
"22 22 134 2",
"Qt c None",
".b c #000000",
"a. c #030202",
"#5 c #070707",
".K c #080809",
".C c #0b0704",
".s c #0e0b09",
".0 c #0f0806",
".O c #0f0a07",
".D c #100c09",
"ab c #100c0b",
"#U c #100f0e",
".P c #110d08",
"#b c #130c09",
".1 c #130f0c",
"#a c #140704",
".t c #14100d",
"#k c #160f0d",
".m c #160f0e",
".B c #16110c",
"#A c #171715",
"#u c #18100e",
"#I c #181817",
"#P c #1c1a19",
".Q c #1d1d14",
"#C c #1e1512",
".2 c #1e1e15",
".N c #1f1509",
"#c c #1f1f16",
".E c #23201a",
".r c #232421",
"#l c #27291e",
"#J c #29211c",
".i c #292a2c",
".u c #2a2929",
".8 c #2a2b29",
"#K c #2b2820",
"ad c #2b2826",
".d c #2c221d",
"#j c #2c2521",
"#2 c #2c2625",
"#X c #2f2b2d",
".n c #2f2d37",
"#3 c #303030",
".h c #312f2b",
"#v c #313329",
"#d c #323625",
".l c #35312f",
"#T c #372b27",
"#t c #382d2a",
"#D c #38362c",
".3 c #393c2e",
"#1 c #3a2a1f",
"#S c #3a2b1f",
".W c #3c3f3e",
".Z c #3e2e1d",
"#9 c #3e2f27",
"#q c #3f4037",
"#0 c #402f24",
".e c #403525",
"#L c #403b32",
"#m c #40412c",
".9 c #413934",
"#e c #41452f",
".R c #424839",
".A c #433d2e",
".o c #435159",
"ac c #464040",
".k c #464742",
"#n c #464831",
"#8 c #47352a",
"#R c #493a2b",
"#Z c #4b362f",
"#. c #4c413a",
"aa c #4d3f36",
"#s c #4d473f",
".q c #4d4e44",
"#7 c #4e3d31",
".M c #4e3f29",
".v c #4f575d",
".H c #4f5851",
".4 c #505745",
".F c #51544d",
".z c #525354",
"#o c #53523a",
".w c #53696a",
"#H c #544c3a",
".# c #554b3f",
"#4 c #555052",
"#y c #555131",
"#x c #555238",
"#f c #55573c",
"#V c #57504e",
"#w c #585a42",
"#z c #5d5842",
"#Y c #5f4f49",
"## c #5f523e",
"#p c #606047",
"#O c #61534c",
"a# c #61534d",
"#g c #626344",
"#6 c #635348",
"#E c #63644e",
"#B c #64605d",
".5 c #666851",
"#Q c #685647",
".I c #6b736f",
".x c #6c7f7d",
"#W c #6d6564",
".G c #6d7068",
"#M c #6e6861",
"#G c #6f6148",
".Y c #705d46",
".X c #716055",
".L c #716b64",
".S c #717869",
"#F c #726a4e",
".6 c #72715a",
"#i c #746b5b",
".f c #757443",
".J c #797e7f",
"#N c #7c6d63",
".a c #827d59",
".T c #90938d",
".y c #969f9f",
".7 c #999789",
".U c #9b9f9e",
".p c #9ba4a7",
"#r c #9e9083",
".V c #a5a6a2",
"#h c #aaa48b",
".j c #aab082",
".c c #b5be86",
".g c #c0c0ff",
"QtQtQtQtQtQtQtQtQtQtQtQtQtQtQtQtQtQtQtQtQtQt",
"QtQtQtQtQtQtQtQtQtQtQtQtQtQtQtQtQt.#.a.b.cQt",
"QtQtQtQtQtQtQtQtQtQtQtQtQtQtQtQt.d.e.f.b.b.g",
"QtQtQtQtQtQtQtQtQtQtQtQtQtQt.h.i.b.b.b.j.k.g",
"QtQtQtQtQtQtQtQtQtQtQtQt.l.m.n.o.b.b.p.q.gQt",
"QtQtQtQtQtQtQtQtQtQt.r.s.t.u.v.w.x.y.z.g.gQt",
"QtQtQtQtQtQtQtQt.A.B.C.D.E.F.G.H.I.J.K.gQtQt",
"QtQtQtQtQtQt.L.M.N.O.P.Q.R.S.T.U.V.W.gQtQtQt",
"QtQtQtQtQt.X.Y.Z.0.1.2.3.4.5.6.7.8.g.gQtQtQt",
"QtQtQtQt.9#.###a#b#c#d#e#f#g#h#i.g.gQtQtQtQt",
"QtQtQtQtQtQt#j#k#l#m#n#o#p#q#r#s.gQtQtQtQtQt",
"QtQtQtQtQt#t#u#v#w#x#y#z#A.g#B.g.gQtQtQtQtQt",
"QtQtQtQtQt#C#D#E#F#G#H#I.g.g.g.gQtQtQtQtQtQt",
"QtQtQtQt#J#K#L#M#N#O#P.g.gQtQtQtQtQtQtQtQtQt",
"QtQt#Q#R#S#T#U#V#W#X.g.gQtQtQtQtQtQtQtQtQtQt",
"Qt#Y#Z#0#1#2#3.g#4#5.gQtQtQtQtQtQtQtQtQtQtQt",
"Qt#6#7#8#9a..g.g.g.g.gQtQtQtQtQtQtQtQtQtQtQt",
"QtQta#aaab.g.gQtQtQtQtQtQtQtQtQtQtQtQtQtQtQt",
"Qt.gacad.g.gQtQtQtQtQtQtQtQtQtQtQtQtQtQtQtQt",
"Qt.g.g.g.gQtQtQtQtQtQtQtQtQtQtQtQtQtQtQtQtQt",
"QtQtQtQtQtQtQtQtQtQtQtQtQtQtQtQtQtQtQtQtQtQt",
"QtQtQtQtQtQtQtQtQtQtQtQtQtQtQtQtQtQtQtQtQtQt"};
