<?xml version="1.0" encoding="UTF-8"?>
<svg id="svg2" width="24" height="24" version="1.1" viewBox="0 0 24 24" xmlns="http://www.w3.org/2000/svg" xmlns:cc="http://creativecommons.org/ns#" xmlns:dc="http://purl.org/dc/elements/1.1/" xmlns:rdf="http://www.w3.org/1999/02/22-rdf-syntax-ns#" xmlns:xlink="http://www.w3.org/1999/xlink">
 <title id="title3854">Configure icon</title>
 <metadata id="metadata122">
  <rdf:RDF>
   <cc:Work rdf:about="">
    <dc:format>image/svg+xml</dc:format>
    <dc:type rdf:resource="http://purl.org/dc/dcmitype/StillImage"/>
    <dc:title>Configure icon</dc:title>
    <dc:creator>
     <cc:Agent>
      <dc:title>slarosa</dc:title>
     </cc:Agent>
    </dc:creator>
    <cc:license rdf:resource="http://creativecommons.org/licenses/by-sa/3.0/"/>
   </cc:Work>
   <cc:License rdf:about="http://creativecommons.org/licenses/by-sa/3.0/">
    <cc:permits rdf:resource="http://creativecommons.org/ns#Reproduction"/>
    <cc:permits rdf:resource="http://creativecommons.org/ns#Distribution"/>
    <cc:requires rdf:resource="http://creativecommons.org/ns#Notice"/>
    <cc:requires rdf:resource="http://creativecommons.org/ns#Attribution"/>
    <cc:permits rdf:resource="http://creativecommons.org/ns#DerivativeWorks"/>
    <cc:requires rdf:resource="http://creativecommons.org/ns#ShareAlike"/>
   </cc:License>
  </rdf:RDF>
 </metadata>
 <defs id="defs12">
  <linearGradient id="linearGradient3673-3" x1="304.76" x2="335.3" y1="64.295" y2="81.926" gradientTransform="matrix(-.10787 .87849 .87408 .10732 -1.8116 758.66)" gradientUnits="userSpaceOnUse">
   <stop id="stop4436-7-6" stop-color="#d3d7cf" offset="0"/>
   <stop id="stop4438-4-4" stop-color="#babdb6" offset=".18304"/>
   <stop id="stop4440-7-2" stop-color="#fff" offset=".31893"/>
   <stop id="stop4442-1-1" stop-color="#babdb6" offset=".87644"/>
   <stop id="stop4444-03-9" stop-color="#eeeeec" offset="1"/>
  </linearGradient>
  <linearGradient id="linearGradient3675-5" x1="-6.3078" x2="-9.7747" y1="44.229" y2="44.14" gradientTransform="matrix(-.34112 .2669 .34709 .44633 7.386 1027.6)" gradientUnits="userSpaceOnUse">
   <stop id="stop6223-6-6" offset="0"/>
   <stop id="stop6225-69-3" stop-opacity="0" offset="1"/>
  </linearGradient>
  <linearGradient id="linearGradient3677-9" x1="97.442" x2="90.221" y1="35.152" y2="35.079" gradientTransform="matrix(-.67482 .52737 .29432 .37836 77.718 981.12)" gradientUnits="userSpaceOnUse">
   <stop id="stop4958-5-9-2" stop-color="#f8e27e" offset="0"/>
   <stop id="stop4960-0-7-1" stop-color="#e3d189" offset="1"/>
  </linearGradient>
 </defs>
 <g id="g3501" transform="matrix(.88685 -.15697 .15638 .89021 -169.36 -909.74)">
  <path id="path6912-5" d="m10.457 1032.3c-0.0557-0.8562 0.63412-0.2492 0.87549 0 1.0248 0.7434 2.0304 1.5156 3.0673 2.2407 0.72504 0.2552 1.4215-0.3125 1.9044-0.793 0.69153-0.772 1.3654-1.7692 1.2391-2.855-0.0999-0.5511-0.67819-0.7556-1.06-1.087-0.94865-0.7006-1.9052-1.3938-2.8487-2.099 0.0499-0.5363 0.9211-0.4312 1.3522-0.4538 1.7995 0.032 3.7609 0.6193 4.8477 2.1483 0.89379 1.2432 1.096 2.9098 0.64509 4.3593 0.24876 1.355 0.74913 2.6839 1.6054 3.7751-1.055 0.7755-2.11 1.5509-3.165 2.3264-0.74403-0.9699-1.6664-1.8128-2.7437-2.3982-1.5973 0.2334-3.2306-0.5195-4.1936-1.7921-0.76244-0.9748-1.3275-2.1438-1.5259-3.3671z" enable-background="new" fill="url(#linearGradient3673-3)" fill-rule="evenodd" stroke="#1f1b1e" stroke-dashoffset=".3612" stroke-linecap="round" stroke-linejoin="round" stroke-width="1.0266"/>
  <path id="rect6533-1" d="m20.57 1039c-0.37796 0.2957-0.44983 0.8327-0.16115 1.2039l5.2765 7.7275c0.28868 0.3713 1.2811 0.076 1.6591-0.2199 0.37796-0.2957 0.90583-1.1891 0.61712-1.5603l-6.1817-7.0148c-0.28868-0.3712-0.82539-0.432-1.2034-0.1363z" fill="url(#linearGradient3675-5)" opacity=".23106"/>
  <path id="path7379-2" d="m10.776 1032.4c0.0041 0.017 0.02652 0.01 0.02736 0l3.2809 2.4093c0.44196 0.3249 1.0262 0.2014 1.5327-0.063 0.5115-0.2667 1.0302-0.7135 1.4658-1.3248 0.43653-0.6127 0.69199-1.2801 0.78226-1.8547 0.09008-0.5733-0.0071-1.1337-0.43239-1.4464l-3.3083-2.4126c-3.27e-4 -0.012 0.0053-0.029 0.0034-0.028-0.02145 0.016 0.01356 0.01 0.02736 0 1.6077-0.1726 3.391 0.2382 4.5009 1.0542 1.5183 1.1161 2.0624 3.1241 1.4962 4.9767-0.56733 1.8439-2.3985 3.2549-4.0023 3.466-1.0378 0.1302-2.106-0.1107-2.9848-0.7566-1.1067-0.8138-2.0463-2.4203-2.3891-4.0275h-9.3e-5z" enable-background="new" fill="#f0f3f2" fill-rule="evenodd"/>
  <path id="path6899-9-0" d="m21.97 1036.9 9.5816 11.101c0.57073 0.7337-0.03271 2.1379-1.3412 3.1605-1.3085 1.0226-2.8142 1.2668-3.385 0.5331l-8.3994-12.025 3.5461-2.7701zm6.3457 11.821c-0.65048 0.5084-0.78586 1.4312-0.46147 1.8482 0.32441 0.4169 1.2822 0.4855 1.9327-0.023 0.65048-0.5084 0.75474-1.407 0.43036-1.8239-0.32441-0.417-1.2511-0.5098-1.9016 0z" enable-background="new" fill="url(#linearGradient3677-9)" stroke="#1d1b21" stroke-dashoffset=".7" stroke-linecap="round" stroke-linejoin="round" stroke-width=".867"/>
  <rect id="rect4406" transform="matrix(.82456 -.56578 .66206 .74945 0 0)" x="-679.11" y="874.67" width="3.571" height=".57711" fill="#fff" fill-opacity=".57759" stroke="#1f1b1e" stroke-width="1.2894"/>
 </g>
</svg>
