<?xml version="1.0" encoding="UTF-8"?>
<svg id="svg2" width="24" height="24" version="1.1" viewBox="0 0 24 24" xmlns="http://www.w3.org/2000/svg" xmlns:cc="http://creativecommons.org/ns#" xmlns:dc="http://purl.org/dc/elements/1.1/" xmlns:rdf="http://www.w3.org/1999/02/22-rdf-syntax-ns#" xmlns:xlink="http://www.w3.org/1999/xlink">
 <title id="title4232">Topology Checker icon</title>
 <metadata id="metadata122">
  <rdf:RDF>
   <cc:Work rdf:about="">
    <dc:format>image/svg+xml</dc:format>
    <dc:type rdf:resource="http://purl.org/dc/dcmitype/StillImage"/>
    <dc:title>Topology Checker icon</dc:title>
    <dc:creator>
     <cc:Agent>
      <dc:title>slarosa</dc:title>
     </cc:Agent>
    </dc:creator>
    <cc:license rdf:resource="http://creativecommons.org/licenses/by-sa/3.0/"/>
   </cc:Work>
   <cc:License rdf:about="http://creativecommons.org/licenses/by-sa/3.0/">
    <cc:permits rdf:resource="http://creativecommons.org/ns#Reproduction"/>
    <cc:permits rdf:resource="http://creativecommons.org/ns#Distribution"/>
    <cc:requires rdf:resource="http://creativecommons.org/ns#Notice"/>
    <cc:requires rdf:resource="http://creativecommons.org/ns#Attribution"/>
    <cc:permits rdf:resource="http://creativecommons.org/ns#DerivativeWorks"/>
    <cc:requires rdf:resource="http://creativecommons.org/ns#ShareAlike"/>
   </cc:License>
  </rdf:RDF>
 </metadata>
 <path id="rect3054" d="m4.6832 8.661c0.56363-2.1136 5.284-4.2272 5.284-4.2272 2.8032-1.6203 11.437-1.7379 11.437-1.7379s2.3015 7.0219-1.9257 8.0787c0 0-6.3408 0-6.0922 2.4894 0 0 0.8082 4.9083-3.419 4.9083 0 0-6.3408-2.1136-5.8476-4.7897z" fill="#6e97c4" stroke="#284361" stroke-width=".85043"/>
 <path id="path3887" d="m11.893 7.98-9.5112-5.284" fill="none" stroke="#415a75" stroke-width="1.0568px"/>
 <path id="path3826" transform="matrix(1.3205 0 0 1.3205 -5.8016 -4.3451)" d="m8 5.5a1.5 1.5 0 1 1-3 0 1.5 1.5 0 1 1 3 0z" fill="#fce94f" stroke="#415a75" stroke-width=".75949"/>
 <path id="path3885" d="m3.4385 20.662 8.4544-12.682 9.5112-5.284" fill="none" stroke="#415a75" stroke-width="1.0568px"/>
 <path id="path3826-8" transform="matrix(1.4091 0 0 1.4091 -6.1205 13.267)" d="m8 5.5a1.5 1.5 0 1 1-3 0 1.5 1.5 0 1 1 3 0z" fill="#fce94f" stroke="#415a75" stroke-width=".71175"/>
 <path id="path3826-2" transform="matrix(1.4091 0 0 1.4091 12.015 -4.7671)" d="m8 5.5a1.5 1.5 0 1 1-3 0 1.5 1.5 0 1 1 3 0z" fill="#fce94f" stroke="#415a75" stroke-width=".71175"/>
 <path id="path3826-87" transform="matrix(1.3205 0 0 1.3205 3.1768 .71719)" d="m8 5.5a1.5 1.5 0 1 1-3 0 1.5 1.5 0 1 1 3 0z" fill="#fce94f" stroke="#415a75" stroke-width=".75949"/>
 <path id="path3053" d="m12.163 15.794 3.2973 7.2712 7.4869-10.767-7.1895 5.8259z" fill="#fce94f" stroke="#262626" stroke-linecap="round" stroke-linejoin="round" stroke-width=".81412"/>
</svg>
