mtllib instanced_trs_dd_export.mtl
o points Z_instance_point
usemtl points Z_instance_point_material
s off
v -0.389 -0.389 0.0307
vn 1.19 0.368 0.468
v -0.443 -0.403 0.18
vn 1.19 0.368 0.468
v -0.377 -0.429 0.0313
vn 1.19 0.368 0.468
v -0.377 -0.429 0.0313
vn 1.19 0.368 0.468
v -0.443 -0.403 0.18
vn 1.19 0.368 0.468
v -0.431 -0.443 0.181
vn 1.19 0.368 0.468
v -0.433 -0.446 0.00912
vn -1.19 -0.368 -0.468
v -0.488 -0.46 0.159
vn -1.19 -0.368 -0.468
v -0.446 -0.406 0.00845
vn -1.19 -0.368 -0.468
v -0.446 -0.406 0.00845
vn -1.19 -0.368 -0.468
v -0.488 -0.46 0.159
vn -1.19 -0.368 -0.468
v -0.5 -0.42 0.158
vn -1.19 -0.368 -0.468
v -0.488 -0.46 0.159
vn -0.18 -0.046 0.494
v -0.431 -0.443 0.181
vn -0.18 -0.046 0.494
v -0.5 -0.42 0.158
vn -0.18 -0.046 0.494
v -0.5 -0.42 0.158
vn -0.18 -0.046 0.494
v -0.431 -0.443 0.181
vn -0.18 -0.046 0.494
v -0.443 -0.403 0.18
vn -0.18 -0.046 0.494
v -0.446 -0.406 0.00845
vn 0.18 0.046 -0.494
v -0.389 -0.389 0.0307
vn 0.18 0.046 -0.494
v -0.433 -0.446 0.00912
vn 0.18 0.046 -0.494
v -0.433 -0.446 0.00912
vn 0.18 0.046 -0.494
v -0.389 -0.389 0.0307
vn 0.18 0.046 -0.494
v -0.377 -0.429 0.0313
vn 0.18 0.046 -0.494
v -0.433 -0.446 0.00912
vn 0.577 -1.91 0.0319
v -0.377 -0.429 0.0313
vn 0.577 -1.91 0.0319
v -0.488 -0.46 0.159
vn 0.577 -1.91 0.0319
v -0.488 -0.46 0.159
vn 0.577 -1.91 0.0319
v -0.377 -0.429 0.0313
vn 0.577 -1.91 0.0319
v -0.431 -0.443 0.181
vn 0.577 -1.91 0.0319
v -0.389 -0.389 0.0307
vn -0.577 1.91 -0.0319
v -0.446 -0.406 0.00845
vn -0.577 1.91 -0.0319
v -0.443 -0.403 0.18
vn -0.577 1.91 -0.0319
v -0.443 -0.403 0.18
vn -0.577 1.91 -0.0319
v -0.446 -0.406 0.00845
vn -0.577 1.91 -0.0319
v -0.5 -0.42 0.158
vn -0.577 1.91 -0.0319
f -36//-36 -35//-35 -34//-34
f -33//-33 -32//-32 -31//-31
f -30//-30 -29//-29 -28//-28
f -27//-27 -26//-26 -25//-25
f -24//-24 -23//-23 -22//-22
f -21//-21 -20//-20 -19//-19
f -18//-18 -17//-17 -16//-16
f -15//-15 -14//-14 -13//-13
f -12//-12 -11//-11 -10//-10
f -9//-9 -8//-8 -7//-7
f -6//-6 -5//-5 -4//-4
f -3//-3 -2//-2 -1//-1
o points Z_instance_point2
usemtl points Z_instance_point2_material
s off
v 0.252 0.46 0.169
vn 0.488 0.136 0.264
v 0.245 0.447 0.189
vn 0.488 0.136 0.264
v 0.27 0.426 0.153
vn 0.488 0.136 0.264
v 0.27 0.426 0.153
vn 0.488 0.136 0.264
v 0.245 0.447 0.189
vn 0.488 0.136 0.264
v 0.263 0.413 0.173
vn 0.488 0.136 0.264
v 0.144 0.391 0.0848
vn -0.488 -0.136 -0.264
v 0.137 0.378 0.105
vn -0.488 -0.136 -0.264
v 0.126 0.425 0.1
vn -0.488 -0.136 -0.264
v 0.126 0.425 0.1
vn -0.488 -0.136 -0.264
v 0.137 0.378 0.105
vn -0.488 -0.136 -0.264
v 0.118 0.412 0.121
vn -0.488 -0.136 -0.264
v 0.137 0.378 0.105
vn -0.979 -1.71 2.69
v 0.263 0.413 0.173
vn -0.979 -1.71 2.69
v 0.118 0.412 0.121
vn -0.979 -1.71 2.69
v 0.118 0.412 0.121
vn -0.979 -1.71 2.69
v 0.263 0.413 0.173
vn -0.979 -1.71 2.69
v 0.245 0.447 0.189
vn -0.979 -1.71 2.69
v 0.126 0.425 0.1
vn 0.979 1.71 -2.69
v 0.252 0.46 0.169
vn 0.979 1.71 -2.69
v 0.144 0.391 0.0848
vn 0.979 1.71 -2.69
v 0.144 0.391 0.0848
vn 0.979 1.71 -2.69
v 0.252 0.46 0.169
vn 0.979 1.71 -2.69
v 0.27 0.426 0.153
vn 0.979 1.71 -2.69
v 0.144 0.391 0.0848
vn 0.857 -1.65 -0.737
v 0.27 0.426 0.153
vn 0.857 -1.65 -0.737
v 0.137 0.378 0.105
vn 0.857 -1.65 -0.737
v 0.137 0.378 0.105
vn 0.857 -1.65 -0.737
v 0.27 0.426 0.153
vn 0.857 -1.65 -0.737
v 0.263 0.413 0.173
vn 0.857 -1.65 -0.737
v 0.252 0.46 0.169
vn -0.857 1.65 0.737
v 0.126 0.425 0.1
vn -0.857 1.65 0.737
v 0.245 0.447 0.189
vn -0.857 1.65 0.737
v 0.245 0.447 0.189
vn -0.857 1.65 0.737
v 0.126 0.425 0.1
vn -0.857 1.65 0.737
v 0.118 0.412 0.121
vn -0.857 1.65 0.737
f -36//-36 -35//-35 -34//-34
f -33//-33 -32//-32 -31//-31
f -30//-30 -29//-29 -28//-28
f -27//-27 -26//-26 -25//-25
f -24//-24 -23//-23 -22//-22
f -21//-21 -20//-20 -19//-19
f -18//-18 -17//-17 -16//-16
f -15//-15 -14//-14 -13//-13
f -12//-12 -11//-11 -10//-10
f -9//-9 -8//-8 -7//-7
f -6//-6 -5//-5 -4//-4
f -3//-3 -2//-2 -1//-1
o points Z_instance_point3
usemtl points Z_instance_point3_material
s off
v 0.343 -0.153 -0.138
vn 0.687 0.939 -0.651
v 0.462 -0.167 -0.0321
vn 0.687 0.939 -0.651
v 0.381 -0.216 -0.189
vn 0.687 0.939 -0.651
v 0.381 -0.216 -0.189
vn 0.687 0.939 -0.651
v 0.462 -0.167 -0.0321
vn 0.687 0.939 -0.651
v 0.5 -0.23 -0.0834
vn 0.687 0.939 -0.651
v 0.348 -0.261 -0.158
vn -0.687 -0.939 0.651
v 0.467 -0.275 -0.0525
vn -0.687 -0.939 0.651
v 0.31 -0.197 -0.107
vn -0.687 -0.939 0.651
v 0.31 -0.197 -0.107
vn -0.687 -0.939 0.651
v 0.467 -0.275 -0.0525
vn -0.687 -0.939 0.651
v 0.429 -0.211 -0.00119
vn -0.687 -0.939 0.651
v 0.467 -0.275 -0.0525
vn 0.393 -0.046 0.349
v 0.5 -0.23 -0.0834
vn 0.393 -0.046 0.349
v 0.429 -0.211 -0.00119
vn 0.393 -0.046 0.349
v 0.429 -0.211 -0.00119
vn 0.393 -0.046 0.349
v 0.5 -0.23 -0.0834
vn 0.393 -0.046 0.349
v 0.462 -0.167 -0.0321
vn 0.393 -0.046 0.349
v 0.31 -0.197 -0.107
vn -0.393 0.046 -0.349
v 0.343 -0.153 -0.138
vn -0.393 0.046 -0.349
v 0.348 -0.261 -0.158
vn -0.393 0.046 -0.349
v 0.348 -0.261 -0.158
vn -0.393 0.046 -0.349
v 0.343 -0.153 -0.138
vn -0.393 0.046 -0.349
v 0.381 -0.216 -0.189
vn -0.393 0.046 -0.349
v 0.348 -0.261 -0.158
vn 0.396 -0.661 -0.535
v 0.381 -0.216 -0.189
vn 0.396 -0.661 -0.535
v 0.467 -0.275 -0.0525
vn 0.396 -0.661 -0.535
v 0.467 -0.275 -0.0525
vn 0.396 -0.661 -0.535
v 0.381 -0.216 -0.189
vn 0.396 -0.661 -0.535
v 0.5 -0.23 -0.0834
vn 0.396 -0.661 -0.535
v 0.343 -0.153 -0.138
vn -0.396 0.661 0.535
v 0.31 -0.197 -0.107
vn -0.396 0.661 0.535
v 0.462 -0.167 -0.0321
vn -0.396 0.661 0.535
v 0.462 -0.167 -0.0321
vn -0.396 0.661 0.535
v 0.31 -0.197 -0.107
vn -0.396 0.661 0.535
v 0.429 -0.211 -0.00119
vn -0.396 0.661 0.535
f -36//-36 -35//-35 -34//-34
f -33//-33 -32//-32 -31//-31
f -30//-30 -29//-29 -28//-28
f -27//-27 -26//-26 -25//-25
f -24//-24 -23//-23 -22//-22
f -21//-21 -20//-20 -19//-19
f -18//-18 -17//-17 -16//-16
f -15//-15 -14//-14 -13//-13
f -12//-12 -11//-11 -10//-10
f -9//-9 -8//-8 -7//-7
f -6//-6 -5//-5 -4//-4
f -3//-3 -2//-2 -1//-1
