<?xml version="1.0" encoding="UTF-8"?>
<svg xmlns="http://www.w3.org/2000/svg" width="560" height="180">
  <path
     d="M 306.5 43.900391 C 301.2 43.900391 296.5 44.899609 292.5 47.099609 C 288.4 49.299609 285.3 52.299219 283 56.199219 C 280.7 60.099219 279.59961 64.499609 279.59961 69.599609 C 279.59961 76.799609 281.60039 82.3 285.40039 86 C 289.20039 89.7 293.9 92.799219 299.5 95.199219 L 303.09961 96.699219 C 306.99961 98.299219 309.99961 99.599219 312.09961 100.69922 C 314.09961 101.79922 315.8 103.09961 317 104.59961 C 318.3 106.19961 318.90039 108.10078 318.90039 110.30078 C 318.90039 113.70078 317.59961 116.49961 315.09961 118.59961 C 312.59961 120.69961 309.20078 121.80078 304.80078 121.80078 C 299.40078 121.80078 293.7 119.9 287.5 116 C 286.9 115.7 286.29961 115.5 285.59961 115.5 C 284.59961 115.5 283.80078 116 283.30078 117 L 279 124.80078 C 278.8 125.30078 278.70039 125.9 278.90039 126.5 C 279.10039 127.1 279.40078 127.60078 279.80078 127.80078 C 283.50078 130.30078 287.50078 132.40078 291.80078 133.80078 C 296.10078 135.20078 300.5 136.00078 305 135.80078 C 310.7 135.80078 315.69961 134.70039 320.09961 132.40039 C 324.49961 130.10039 327.90078 127 330.30078 123 C 332.70078 119 333.90039 114.40078 333.90039 109.30078 C 333.90039 104.00078 332.49961 99.4 329.59961 95.5 C 326.69961 91.6 322.80039 88.599609 317.90039 86.599609 C 313.00039 84.599609 310.10039 83.399219 309.40039 83.199219 C 304.20039 80.999219 300.49961 78.900781 298.09961 76.800781 C 295.79961 74.700781 294.59961 72.000781 294.59961 68.800781 C 294.59961 65.600781 295.70078 63 297.80078 61 C 300.00078 59 302.89961 58 306.59961 58 C 308.89961 58 311.50039 58.500391 314.40039 59.400391 C 317.30039 60.300391 320.39961 61.800391 323.59961 63.900391 C 324.19961 64.200391 324.8 64.400391 325.5 64.400391 C 326.6 64.400391 327.40039 63.900391 327.90039 62.900391 L 332 55.099609 C 332.2 54.599609 332.29961 54.000391 332.09961 53.400391 C 331.89961 52.800391 331.59922 52.299609 331.19922 52.099609 C 327.69922 49.599609 323.8 47.599609 319.5 46.099609 C 315.2 44.599609 310.9 43.900391 306.5 43.900391 z M 235.09961 44 C 229.19961 44 223.69922 45.500391 218.69922 48.400391 C 213.69922 51.300391 209.70078 55.300781 206.80078 60.300781 C 203.90078 65.300781 202.40039 70.800781 202.40039 76.800781 L 202.40039 103.30078 C 202.40039 109.30078 203.90078 114.80078 206.80078 119.80078 C 209.70078 124.80078 213.69922 128.79922 218.69922 131.69922 C 223.69922 134.59922 229.19961 136.09961 235.09961 136.09961 C 240.99961 136.09961 246.5 134.59922 251.5 131.69922 C 256.5 128.79922 260.50039 124.80078 263.40039 119.80078 C 266.30039 114.80078 267.80078 109.30078 267.80078 103.30078 L 267.80078 76.800781 C 267.80078 70.800781 266.30039 65.300781 263.40039 60.300781 C 260.50039 55.300781 256.5 51.300391 251.5 48.400391 C 246.5 45.500391 240.99961 44 235.09961 44 z M 235.09961 58.5 C 238.29961 58.5 241.20039 59.3 243.90039 61 C 246.60039 62.6 248.80039 64.899219 250.40039 67.699219 C 252.00039 70.499219 252.80078 73.600781 252.80078 76.800781 L 252.80078 103.30078 C 252.80078 106.60078 252.00039 109.60039 250.40039 112.40039 C 248.80039 115.20039 246.60039 117.39961 243.90039 119.09961 C 241.20039 120.69961 238.19961 121.49961 235.09961 121.59961 C 231.89961 121.59961 229.00078 120.79961 226.30078 119.09961 C 223.60078 117.49961 221.40078 115.20039 219.80078 112.40039 C 218.20078 109.60039 217.40039 106.50078 217.40039 103.30078 L 217.40039 76.800781 C 217.40039 73.500781 218.20078 70.499219 219.80078 67.699219 C 221.40078 64.899219 223.60078 62.7 226.30078 61 C 229.00078 59.3 231.99961 58.5 235.09961 58.5 z "
     style="fill:#4db05b" />
  <path
     d="M 378.19922 44 C 372.19922 44 366.80078 45.500391 361.80078 48.400391 C 356.80078 51.300391 352.80039 55.300781 349.90039 60.300781 C 347.00039 65.300781 345.5 70.800781 345.5 76.800781 L 345.5 103.30078 C 345.5 109.30078 347.00039 114.80078 349.90039 119.80078 C 352.90039 124.80078 356.80078 128.79922 361.80078 131.69922 C 366.80078 134.59922 372.19922 136.09961 378.19922 136.09961 C 383.99922 136.09961 389.40039 134.59922 394.40039 131.69922 C 399.40039 128.79922 403.40078 124.80078 406.30078 119.80078 C 409.20078 114.80078 410.69922 109.30078 410.69922 103.30078 L 410.69922 88.900391 C 410.69922 87.400391 410.19922 86.099609 409.19922 85.099609 C 408.09922 84.099609 406.90039 83.599609 405.40039 83.599609 L 379.30078 83.599609 C 378.50078 83.599609 377.90039 83.800781 377.40039 84.300781 C 376.90039 84.800781 376.69922 85.499219 376.69922 86.199219 L 376.69922 95.099609 C 376.69922 95.899609 376.90039 96.5 377.40039 97 C 377.90039 97.5 378.60078 97.699219 379.30078 97.699219 L 395.90039 97.699219 L 395.90039 103.80078 C 395.90039 107.00078 395.19961 109.99922 393.59961 112.69922 C 392.09961 115.49922 389.89922 117.59922 387.19922 119.19922 C 384.49922 120.79922 381.50039 121.59961 378.40039 121.59961 C 375.20039 121.59961 372.29961 120.79961 369.59961 119.09961 C 366.89961 117.49961 364.69961 115.20039 363.09961 112.40039 C 361.49961 109.60039 360.69922 106.50078 360.69922 103.30078 L 360.69922 76.800781 C 360.69922 73.500781 361.49961 70.499219 363.09961 67.699219 C 364.69961 64.899219 366.89961 62.7 369.59961 61 C 372.29961 59.3 375.30039 58.5 378.40039 58.5 C 384.80039 58.5 390.09922 60.699609 394.19922 65.099609 C 394.79922 65.799609 395.60039 66.199219 396.40039 66.199219 C 397.10039 66.199219 397.70039 65.899219 398.40039 65.199219 L 403.80078 59.5 C 404.50078 58.7 404.80078 57.8 404.80078 57 C 404.80078 56.2 404.59961 55.500391 404.09961 54.900391 C 400.89961 51.400391 397.09922 48.700781 392.69922 46.800781 C 388.19922 44.900781 383.39922 44 378.19922 44 z M 452.80078 61.699219 C 447.40078 61.699219 442.5 63.099219 438 65.699219 C 433.5 68.299219 429.90078 72 427.30078 76.5 C 424.60078 81 423.30078 86.000391 423.30078 91.400391 L 423.30078 104.80078 C 423.30078 110.20078 424.70078 115.19922 427.30078 119.69922 C 429.90078 124.19922 433.5 127.9 438 130.5 C 442.4 133.1 447.40039 134.49961 452.90039 134.59961 L 472.5 134.59961 C 473.3 134.59961 473.90039 134.40039 474.40039 133.90039 C 474.90039 133.40039 475.09961 132.7 475.09961 132 L 475.09961 123 C 475.09961 122.2 474.90039 121.59961 474.40039 121.09961 C 473.90039 120.59961 473.2 120.30078 472.5 120.30078 L 452.90039 120.30078 C 448.90039 120.30078 445.49961 118.9 442.59961 116 C 439.69961 113.1 438.30078 109.69961 438.30078 105.59961 L 438.30078 105 L 477 105 C 478.5 105 479.80078 104.5 480.80078 103.5 C 481.80078 102.4 482.30078 101.19922 482.30078 99.699219 L 482.30078 91.400391 C 482.30078 86.000391 480.90078 81.1 478.30078 76.5 C 475.70078 72 472.09961 68.299219 467.59961 65.699219 C 463.09961 62.999219 458.20078 61.699219 452.80078 61.699219 z M 522.80078 61.699219 C 517.40078 61.699219 512.5 62.999609 508 65.599609 C 503.5 68.199609 499.90078 71.699219 497.30078 76.199219 C 494.70078 80.599219 493.40039 85.499219 493.40039 90.699219 L 493.40039 107.09961 C 493.40039 112.29961 494.70078 117.09961 497.30078 121.59961 C 499.90078 126.09961 503.5 129.59922 508 132.19922 C 512.4 134.79922 517.40078 136.1 522.80078 136 C 528.20078 136 533.09961 134.69961 537.59961 132.09961 C 542.09961 129.49961 545.70078 126 548.30078 121.5 C 551.00078 117.1 552.30078 112.2 552.30078 107 L 552.30078 90.699219 C 552.30078 85.499219 550.90078 80.699219 548.30078 76.199219 C 545.70078 71.799219 542.09961 68.199609 537.59961 65.599609 C 533.09961 62.999609 528.20078 61.699219 522.80078 61.699219 z M 452.69922 75.800781 C 456.69922 75.800781 460.2 77.199609 463 80.099609 C 465.9 82.999609 467.30078 86.4 467.30078 90.5 L 467.30078 91.599609 L 438.09961 91.599609 L 438.09961 90.5 C 438.09961 86.4 439.60039 82.999609 442.40039 80.099609 C 445.20039 77.199609 448.69922 75.800781 452.69922 75.800781 z M 522.69922 76 C 526.69922 76 530.2 77.400781 533 80.300781 C 535.9 83.200781 537.30078 86.599219 537.30078 90.699219 L 537.30078 107 C 537.30078 111.1 535.8 114.50039 533 117.40039 C 530.2 120.20039 526.79922 121.69922 522.69922 121.69922 C 518.69922 121.69922 515.20039 120.30039 512.40039 117.40039 C 509.50039 114.50039 508.09961 111.1 508.09961 107 L 508.09961 90.699219 C 508.09961 86.599219 509.60039 83.200781 512.40039 80.300781 C 515.20039 77.400781 518.69922 76 522.69922 76 z "
     style="fill:#003a40" />
  <path
     d="M 85.5 0 L 74.199219 19.800781 C 43.399219 26.700781 20.099609 53.199609 18.099609 85.599609 L 36.199219 85.599609 C 38.399219 59.299609 59.3 38.399219 85.5 36.199219 L 85.5 0 z M 90 42.800781 L 84.400391 77 L 95.599609 84.5 L 103.09961 95.699219 L 137.30078 90 L 103.09961 84.400391 L 117.90039 62.199219 L 95.699219 77 L 90 42.800781 z M 77 84.400391 L 42.800781 90.099609 L 77 95.699219 L 62.199219 117.90039 L 84.300781 103.09961 L 90 137.30078 L 95.699219 103.09961 L 84.5 95.599609 L 77 84.400391 z M 143.90039 94.599609 C 141.70039 120.79961 120.79961 141.70039 94.599609 143.90039 L 94.599609 180.19922 L 105.90039 160.40039 C 136.70039 153.50039 160 126.99961 162 94.599609 L 143.90039 94.599609 z "
     style="fill:#4db05b" />
  <path
     d="M 94.599609 18.099609 L 94.599609 36.199219 C 120.79961 38.399219 141.70039 59.3 143.90039 85.5 L 180.19922 85.5 L 160.40039 74.199219 C 153.50039 43.399219 126.99961 20.099609 94.599609 18.099609 z M 62.199219 62.199219 L 84.5 95.599609 L 117.90039 117.90039 L 95.599609 84.5 L 62.199219 62.199219 z M 90 86.099609 C 92.1 86.099609 93.900391 87.9 93.900391 90 C 93.900391 92.1 92.2 93.900391 90 93.900391 C 87.8 93.900391 86.099609 92.1 86.099609 90 C 86.099609 87.8 87.9 86.099609 90 86.099609 z M 0 94.599609 L 19.800781 105.90039 C 26.700781 136.70039 53.199609 160 85.599609 162 L 85.599609 143.90039 C 59.299609 141.70039 38.399219 120.79961 36.199219 94.599609 L 0 94.599609 z "
     style="fill:#003a40" />
</svg>
