<svg xmlns="http://www.w3.org/2000/svg" viewBox="0 0 560 180"><path d="M306.5 43.9c-5.3 0-10 1-14 3.2-4.1 2.2-7.2 5.2-9.5 9.1-2.3 3.9-3.4 8.3-3.4 13.4 0 7.2 2 12.7 5.8 16.4 3.8 3.7 8.5 6.8 14.1 9.2l3.6 1.5c3.9 1.6 6.9 2.9 9 4 2 1.1 3.7 2.4 4.9 3.9 1.3 1.6 1.9 3.5 1.9 5.7 0 3.4-1.3 6.2-3.8 8.3-2.5 2.1-5.9 3.2-10.3 3.2-5.4 0-11.1-1.9-17.3-5.8-.6-.3-1.2-.5-1.9-.5-1 0-1.8.5-2.3 1.5l-4.3 7.8c-.2.5-.3 1.1-.1 1.7.2.6.5 1.1.9 1.3 3.7 2.5 7.7 4.6 12 6 4.3 1.4 8.7 2.2 13.2 2 5.7 0 10.7-1.1 15.1-3.4s7.8-5.4 10.2-9.4c2.4-4 3.6-8.6 3.6-13.7 0-5.3-1.4-9.9-4.3-13.8-2.9-3.9-6.8-6.9-11.7-8.9-4.9-2-7.8-3.2-8.5-3.4-5.2-2.2-8.9-4.3-11.3-6.4-2.3-2.1-3.5-4.8-3.5-8s1.1-5.8 3.2-7.8c2.2-2 5.1-3 8.8-3 2.3 0 4.9.5 7.8 1.4 2.9.9 6 2.4 9.2 4.5.6.3 1.2.5 1.9.5 1.1 0 1.9-.5 2.4-1.5l4.1-7.8c.2-.5.3-1.1.1-1.7-.2-.6-.5-1.1-.9-1.3-3.5-2.5-7.4-4.5-11.7-6-4.3-1.5-8.6-2.2-13-2.2zm-71.4.1c-5.9 0-11.4 1.5-16.4 4.4-5 2.9-9 6.9-11.9 11.9-2.9 5-4.4 10.5-4.4 16.5v26.5c0 6 1.5 11.5 4.4 16.5 2.9 5 6.9 9 11.9 11.9 5 2.9 10.5 4.4 16.4 4.4 5.9 0 11.4-1.5 16.4-4.4 5-2.9 9-6.9 11.9-11.9 2.9-5 4.4-10.5 4.4-16.5V76.8c0-6-1.5-11.5-4.4-16.5-2.9-5-6.9-9-11.9-11.9-5-2.9-10.5-4.4-16.4-4.4zm0 14.5c3.2 0 6.1.8 8.8 2.5 2.7 1.6 4.9 3.9 6.5 6.7 1.6 2.8 2.4 5.9 2.4 9.1v26.5c0 3.3-.8 6.3-2.4 9.1-1.6 2.8-3.8 5-6.5 6.7-2.7 1.6-5.7 2.4-8.8 2.5-3.2 0-6.1-.8-8.8-2.5-2.7-1.6-4.9-3.9-6.5-6.7-1.6-2.8-2.4-5.9-2.4-9.1V76.8c0-3.3.8-6.3 2.4-9.1 1.6-2.8 3.8-5 6.5-6.7 2.7-1.7 5.7-2.5 8.8-2.5z" fill="#4db05b"/><path d="M378.2 44c-6 0-11.4 1.5-16.4 4.4-5 2.9-9 6.9-11.9 11.9-2.9 5-4.4 10.5-4.4 16.5v26.5c0 6 1.5 11.5 4.4 16.5 3 5 6.9 9 11.9 11.9 5 2.9 10.4 4.4 16.4 4.4 5.8 0 11.2-1.5 16.2-4.4 5-2.9 9-6.9 11.9-11.9 2.9-5 4.4-10.5 4.4-16.5V88.9c0-1.5-.5-2.8-1.5-3.8-1.1-1-2.3-1.5-3.8-1.5h-26.1c-.8 0-1.4.2-1.9.7-.5.5-.7 1.2-.7 1.9v8.9c0 .8.2 1.4.7 1.9.5.5 1.2.7 1.9.7h16.6v6.1c0 3.2-.7 6.2-2.3 8.9-1.5 2.8-3.7 4.9-6.4 6.5-2.7 1.6-5.7 2.4-8.8 2.4-3.2 0-6.1-.8-8.8-2.5-2.7-1.6-4.9-3.9-6.5-6.7-1.6-2.8-2.4-5.9-2.4-9.1V76.8c0-3.3.8-6.3 2.4-9.1 1.6-2.8 3.8-5 6.5-6.7 2.7-1.7 5.7-2.5 8.8-2.5 6.4 0 11.7 2.2 15.8 6.6.6.7 1.4 1.1 2.2 1.1.7 0 1.3-.3 2-1l5.4-5.7c.7-.8 1-1.7 1-2.5s-.2-1.5-.7-2.1c-3.2-3.5-7-6.2-11.4-8.1-4.5-1.9-9.3-2.8-14.5-2.8zm74.6 17.7c-5.4 0-10.3 1.4-14.8 4s-8.1 6.3-10.7 10.8c-2.7 4.5-4 9.5-4 14.9v13.4c0 5.4 1.4 10.4 4 14.9s6.2 8.2 10.7 10.8c4.4 2.6 9.4 4 14.9 4.1h19.6c.8 0 1.4-.2 1.9-.7.5-.5.7-1.2.7-1.9v-9c0-.8-.2-1.4-.7-1.9-.5-.5-1.2-.8-1.9-.8h-19.6c-4 0-7.4-1.4-10.3-4.3-2.9-2.9-4.3-6.3-4.3-10.4v-.6H477c1.5 0 2.8-.5 3.8-1.5 1-1.1 1.5-2.3 1.5-3.8v-8.3c0-5.4-1.4-10.3-4-14.9-2.6-4.5-6.2-8.2-10.7-10.8-4.5-2.7-9.4-4-14.8-4zm70 0c-5.4 0-10.3 1.3-14.8 3.9-4.5 2.6-8.1 6.1-10.7 10.6-2.6 4.4-3.9 9.3-3.9 14.5v16.4c0 5.2 1.3 10 3.9 14.5 2.6 4.5 6.2 8 10.7 10.6 4.4 2.6 9.4 3.9 14.8 3.8 5.4 0 10.3-1.3 14.8-3.9 4.5-2.6 8.1-6.1 10.7-10.6 2.7-4.4 4-9.3 4-14.5V90.7c0-5.2-1.4-10-4-14.5-2.6-4.4-6.2-8-10.7-10.6-4.5-2.6-9.4-3.9-14.8-3.9zm-70.1 14.1c4 0 7.5 1.4 10.3 4.3 2.9 2.9 4.3 6.3 4.3 10.4v1.1h-29.2v-1.1c0-4.1 1.5-7.5 4.3-10.4 2.8-2.9 6.3-4.3 10.3-4.3zm70 .2c4 0 7.5 1.4 10.3 4.3 2.9 2.9 4.3 6.3 4.3 10.4V107c0 4.1-1.5 7.5-4.3 10.4-2.8 2.8-6.2 4.3-10.3 4.3-4 0-7.5-1.4-10.3-4.3-2.9-2.9-4.3-6.3-4.3-10.4V90.7c0-4.1 1.5-7.5 4.3-10.4 2.8-2.9 6.3-4.3 10.3-4.3z" fill="#003a40"/><path d="M85.5 0L74.2 19.8c-30.8 6.9-54.1 33.4-56.1 65.8h18.1c2.2-26.3 23.1-47.2 49.3-49.4V0zM90 42.8L84.4 77l11.2 7.5 7.5 11.2 34.2-5.7-34.2-5.6 14.8-22.2L95.7 77 90 42.8zM77 84.4l-34.2 5.7L77 95.7l-14.8 22.2 22.1-14.8 5.7 34.2 5.7-34.2-11.2-7.5L77 84.4zm66.9 10.2c-2.2 26.2-23.1 47.1-49.3 49.3v36.3l11.3-19.8c30.8-6.9 54.1-33.4 56.1-65.8h-18.1z" fill="#4db05b"/><path d="M94.6 18.1v18.1c26.2 2.2 47.1 23.1 49.3 49.3h36.3l-19.8-11.3c-6.9-30.8-33.4-54.1-65.8-56.1zM62.2 62.2l22.3 33.4 33.4 22.3-22.3-33.4-33.4-22.3zM90 86.1c2.1 0 3.9 1.8 3.9 3.9 0 2.1-1.7 3.9-3.9 3.9s-3.9-1.8-3.9-3.9c0-2.2 1.8-3.9 3.9-3.9zM0 94.6l19.8 11.3c6.9 30.8 33.4 54.1 65.8 56.1v-18.1c-26.3-2.2-47.2-23.1-49.4-49.3H0z" fill="#003a40"/></svg>