<svg xmlns="http://www.w3.org/2000/svg" height="172.301" width="369.273"><path d="M0 0v172.3h369.273V0zm320.27 5.736h9.185V45.14h-9.185v-3.77c-2.018 2.655-4.94 4.14-8.604 4.14-8.072 0-13.38-5.946-13.38-14.814 0-8.762 5.257-14.55 13.17-14.55 3.77 0 6.796 1.487 8.814 4.142zM7.633 7.57h160.363v157.977H7.633zm224.66 8.522c4.673 0 8.125 2.443 9.559 6.478 1.858-4.248 5.363-6.425 10.09-6.478 6.266 0 10.3 4.301 10.3 10.992v18.055h-9.133V29.633c0-3.399-1.912-5.47-4.94-5.47-3.45.105-5.573 2.921-5.573 6.798v14.178h-9.188V29.633c0-3.399-1.858-5.47-4.885-5.47-3.504.105-5.683 2.921-5.683 6.798v14.178h-9.133V16.516h9.133v4.726c1.965-3.398 5.258-5.097 9.453-5.15zm49.338 0c7.86 0 12.425 3.877 12.478 10.355V45.14h-8.972v-3.293c-1.859 2.442-4.887 3.717-8.764 3.717-6.107 0-9.822-3.716-9.822-8.973 0-5.417 3.876-8.603 10.992-8.656h7.539v-.426c0-2.815-1.857-4.514-5.574-4.514-2.39 0-5.524.85-8.551 2.39l-2.602-6.054c4.461-2.07 8.497-3.238 13.276-3.238zm67.928.105c10.09 0 15.08 6.639 14.443 17.1h-20.127c.903 3.398 3.346 5.31 6.744 5.31 2.496 0 4.94-1.01 6.852-2.921l4.832 4.726c-2.92 3.186-7.222 5.045-12.479 5.045-9.346 0-15.187-5.842-15.187-14.55 0-8.869 6.053-14.71 14.922-14.71zm.105 6.373c-3.186 0-5.363 2.336-5.947 5.787h11.47c0-3.504-2.23-5.787-5.523-5.787zm-35.768.903c-3.823 0-6.372 3.026-6.425 7.433.053 4.408 2.602 7.489 6.425 7.489 3.824 0 6.374-3.081 6.374-7.489 0-4.407-2.55-7.433-6.374-7.433zm-34.601 9.398c-2.761 0-4.143.956-4.143 3.08 0 2.071 1.487 3.399 4.035 3.399 2.868 0 5.31-1.594 5.895-3.93v-2.55zm18.685 23.684c2.815 0 4.832 2.02 4.832 4.834 0 2.867-2.017 4.884-4.832 4.884-2.814 0-4.832-2.017-4.832-4.884 0-2.815 2.018-4.834 4.832-4.834zm35.266 2.285h9.188v15.506c2.017-3.399 5.363-5.1 9.61-5.153 6.32 0 10.462 4.302 10.462 10.993v18.056h-9.188V82.734c0-3.345-1.911-5.416-5.045-5.416-3.61 0-5.84 2.868-5.84 6.797v14.127h-9.187zm-22.066 4.14h9.132v7.913h7.489v6.054h-7.489v11.205c0 2.23.957 3.186 2.657 3.133.956 0 2.176-.373 3.556-.957l1.807 6.373c-2.071 1.222-4.885 1.965-7.646 1.965-5.523 0-9.506-3.133-9.506-9.08V76.947h-3.983v-6h3.983zm-71.532 6.64h9.346l5.895 19.806 5.734-19.807h8.762l5.894 19.807 5.79-19.807h8.974L279.58 98.242h-9.08l-5.629-18.162-5.629 18.162h-9.133zm53.713 0h9.133v28.622h-9.133zm-88.103 40.52c16.5 0 28.816 11.558 28.816 26.993 0 4.946-1.254 9.512-3.496 13.44l-8.693-8.692c.375-1.485.578-3.053.578-4.682 0-10.015-7.549-17.568-17.03-17.568-9.48 0-17.382 7.554-17.382 17.568 0 10.015 7.99 17.739 17.383 17.739 1.313 0 2.586-.152 3.81-.434l7.766 7.726c-3.55 1.42-7.512 2.2-11.752 2.2-16.424 0-28.742-11.71-28.742-27.297 0-15.511 12.318-26.992 28.742-26.992zm138.855.319c7.438 0 14.875 2.276 20.188 5.768l-4.63 9.941c-5.615-3.34-12.294-5.463-16.544-5.463-4.022 0-6.754 1.442-6.754 4.326 0 9.791 28.308 4.326 28.232 23.451 0 10.398-9.031 16.014-20.794 16.014-8.729 0-17.458-3.339-23.454-8.424l4.782-9.79c5.465 4.857 13.206 7.968 18.822 7.968 4.934 0 7.894-1.82 7.894-5.084 0-10.018-28.31-4.174-28.31-22.996 0-9.639 8.273-15.711 20.568-15.711zm-74.529.152c7.893 0 15.937 3.035 21.326 7.74l-6.754 8.577c-3.947-3.643-9.411-5.92-14.572-5.92-9.412 0-16.697 7.21-16.697 16.545 0 9.41 7.363 16.623 16.773 16.623 3.188 0 6.983-1.14 10.399-2.885v-13.965h10.396v20.416c-5.616 4.099-14.193 6.906-21.555 6.906-16.09 0-28.308-11.688-28.308-27.095 0-15.331 12.446-26.942 28.992-26.942zm31.346.38h11.99v53.126h-11.99zm-99.971 22.904h8.38l6.839 6.761h-8.08v8.403l-7.139-7.114zm10.52 10.142h8.119l14.418 14.254v7.908h-8.721l-13.816-13.771zM93.926 131.345c-1.398.29-2.122.188-5.619.188-25.022 0-46.302-20.575-46.302-47.254 0-26.68 21.047-46.8 46.302-46.8 25.256 0 45.369 20.122 45.369 46.8 0 4.34-.541 8.512-1.54 12.469l23.16 23.157c5.97-10.464 9.311-22.627 9.311-35.804 0-41.118-32.813-71.906-76.766-71.906-43.753 0-76.566 30.584-76.566 71.905 0 41.521 32.813 72.715 76.565 72.715 11.292 0 19.27-1.761 27.631-4.51zm69.18 30.067v-21.067l-38.524-37.693h-21.435v22.075l36.61 36.685zM93.554 115.75V93.059h21.918L97.252 75.07H74.367V96.8z" fill="param(fill)" fill-opacity="param(fill-opacity)" stroke="param(outline)" stroke-opacity="param(outline-opacity)" stroke-width="param(outline-width) 0"/></svg>
