<svg xmlns="http://www.w3.org/2000/svg" width="500.713" height="149.235"><path fill="#ee7913" d="M87.378 63.235H65.072v21.433l19 18.937v-22.37h21.513z"/><linearGradient id="a" gradientUnits="userSpaceOnUse" x1="350.022" y1="247.783" x2="347.782" y2="100.484" gradientTransform="translate(-110.928 -98.765)"><stop offset="0" stop-color="#589632"/><stop offset="1" stop-color="#93b023"/></linearGradient><path fill="url(#a)" d="M303.318 72.37v54.35c-14.951 10.911-37.782 18.386-57.38 18.386-42.833 0-75.362-31.113-75.362-72.129 0-40.813 33.135-71.725 77.182-71.725 21.013 0 42.427 8.082 56.773 20.608l-17.982 22.832c-10.507-9.698-25.052-15.76-38.791-15.76-25.055 0-44.451 19.194-44.451 44.045 0 25.053 19.599 44.249 44.651 44.249 8.486 0 18.589-3.031 27.681-7.678V72.371h27.679z"/><linearGradient id="b" gradientUnits="userSpaceOnUse" x1="459.222" y1="246.123" x2="456.981" y2="98.822" gradientTransform="translate(-110.928 -98.765)"><stop offset="0" stop-color="#589632"/><stop offset="1" stop-color="#93b023"/></linearGradient><path fill="url(#b)" d="M331.201 143.691V2.261h31.922v141.43z"/><linearGradient id="c" gradientUnits="userSpaceOnUse" x1="553.507" y1="244.688" x2="551.266" y2="97.388" gradientTransform="translate(-110.928 -98.765)"><stop offset="0" stop-color="#589632"/><stop offset="1" stop-color="#93b023"/></linearGradient><path fill="url(#c)" d="M499.903 16.202l-12.324 26.467c-14.951-8.89-32.731-14.547-44.045-14.547-10.708 0-17.981 3.839-17.981 11.517 0 26.064 75.362 11.517 75.16 62.431 0 27.68-24.045 42.631-55.36 42.631-23.236 0-46.471-8.89-62.431-22.427l12.728-26.063c14.548 12.932 35.155 21.215 50.106 21.215 13.134 0 21.013-4.849 21.013-13.537 0-26.669-75.362-11.112-75.362-61.219 0-25.659 22.023-41.823 54.755-41.823 19.8-.001 39.599 6.061 53.741 15.355z"/><linearGradient id="d" gradientUnits="userSpaceOnUse" x1="234.47" y1="250.034" x2="232.211" y2="101.498"><stop offset="0" stop-color="#589632"/><stop offset="1" stop-color="#93b023"/></linearGradient><path fill="url(#d)" transform="translate(-110.928 -98.765)" d="M204 189v22.34L240.782 248H264v-21.054L225.617 189z"/><path fill="#f0e64a" d="M105.585 81.235H84.072v22.37l9 8.97v-22.34h21.617z"/><linearGradient id="e" gradientUnits="userSpaceOnUse" x1="188.753" y1="250.235" x2="186.512" y2="102.936" gradientTransform="translate(-110.928 -98.765)"><stop offset="0" stop-color="#589632"/><stop offset="1" stop-color="#93b023"/></linearGradient><path fill="url(#e)" d="M87.124 118.099a45.146 45.146 0 01-10.144 1.157c-25.005 0-46.271-20.562-46.271-47.222S51.741 25.265 76.98 25.265s45.336 20.108 45.336 46.769c0 4.336-.54 8.508-1.539 12.46l23.144 23.14c5.967-10.455 9.305-22.611 9.305-35.778C153.226 30.766 120.435 0 76.512 0 32.79 0 0 30.564 0 71.856c0 41.494 32.791 72.666 76.512 72.666 11.287 0 21.835-2.076 31.284-5.854z"/><path d="M65.072 63.235l88 86V128.18l-38.383-37.945-9.103-9-18.207-18z" fill="#fff" fill-opacity=".173"/></svg>