<?xml version="1.0" encoding="UTF-8" standalone="no"?>
<svg
   xmlns:dc="http://purl.org/dc/elements/1.1/"
   xmlns:cc="http://creativecommons.org/ns#"
   xmlns:rdf="http://www.w3.org/1999/02/22-rdf-syntax-ns#"
   xmlns:svg="http://www.w3.org/2000/svg"
   xmlns="http://www.w3.org/2000/svg"
   xmlns:xlink="http://www.w3.org/1999/xlink"
   id="svg27"
   version="1.1"
   width="369.273"
   height="172.301">
  <metadata
     id="metadata31">
    <rdf:RDF>
      <cc:Work
         rdf:about="">
        <dc:format>image/svg+xml</dc:format>
        <dc:type
           rdf:resource="http://purl.org/dc/dcmitype/StillImage" />
        <dc:title></dc:title>
      </cc:Work>
    </rdf:RDF>
  </metadata>
  <defs
     id="defs3">
    <linearGradient
       xlink:href="#a"
       id="c"
       gradientUnits="userSpaceOnUse"
       x1="188.753"
       y1="250.235"
       x2="186.512"
       y2="102.936"
       gradientTransform="translate(-100.206 -87.199)" />
    <linearGradient
       gradientUnits="userSpaceOnUse"
       y2="1.1185583"
       x2="187.37103"
       y1="171.93472"
       x1="187.37103"
       id="linearGradient934"
       xlink:href="#a" />
  </defs>
  <linearGradient
     id="b"
     gradientUnits="userSpaceOnUse"
     x1="234.47"
     y1="250.034"
     x2="232.211"
     y2="101.498">
    <stop
       id="stop5"
       stop-color="#589632"
       offset="0" />
    <stop
       id="stop7"
       stop-color="#93b023"
       offset="1" />
  </linearGradient>
  <linearGradient
     id="a"
     gradientUnits="userSpaceOnUse"
     x1="188.753"
     y1="250.235"
     x2="186.512"
     y2="102.936">
    <stop
       id="stop10"
       stop-color="#589632"
       offset="0" />
    <stop
       id="stop12"
       stop-color="#93b023"
       offset="1" />
  </linearGradient>
  <path
     style="fill-opacity:1;fill:url(#linearGradient934)"
     id="path15"
     d="M 0 0 L 0 172.30078 L 369.27344 172.30078 L 369.27344 0 L 0 0 z M 320.26953 5.7363281 L 329.45508 5.7363281 L 329.45508 45.140625 L 320.26953 45.140625 L 320.26953 41.369141 C 318.25153 44.024141 315.33002 45.509766 311.66602 45.509766 C 303.59402 45.509766 298.28516 39.563313 298.28516 30.695312 C 298.28516 21.933312 303.54208 16.146484 311.45508 16.146484 C 315.22508 16.146484 318.25153 17.632109 320.26953 20.287109 L 320.26953 5.7363281 z M 7.6328125 7.5703125 L 167.99609 7.5703125 L 167.99609 165.54688 L 7.6328125 165.54688 L 7.6328125 7.5703125 z M 87.234375 11.566406 C 43.512375 11.566406 10.722656 42.129875 10.722656 83.421875 C 10.722656 124.91587 43.513375 156.08789 87.234375 156.08789 C 98.521375 156.08789 109.06858 154.01238 118.51758 150.23438 L 97.845703 129.66406 A 45.146 45.146 0 0 1 87.701172 130.82227 C 62.696172 130.82227 41.431641 110.25961 41.431641 83.599609 C 41.431641 56.939609 62.462172 36.830078 87.701172 36.830078 C 112.94117 36.830078 133.03711 56.939562 133.03711 83.601562 C 133.03711 87.936562 132.49705 92.107547 131.49805 96.060547 L 154.64258 119.20117 C 160.60958 108.74517 163.94727 96.588875 163.94727 83.421875 C 163.94727 42.331875 131.15838 11.566406 87.234375 11.566406 z M 232.29297 16.091797 C 236.96597 16.091797 240.41756 18.535312 241.85156 22.570312 C 243.70956 18.322312 247.21441 16.144797 251.94141 16.091797 C 258.20741 16.091797 262.24219 20.392984 262.24219 27.083984 L 262.24219 45.138672 L 253.10938 45.138672 L 253.10938 29.632812 C 253.10938 26.233812 251.19792 24.162109 248.16992 24.162109 C 244.71992 24.267109 242.5957 27.083938 242.5957 30.960938 L 242.5957 45.138672 L 233.4082 45.138672 L 233.4082 29.632812 C 233.4082 26.233812 231.55044 24.162109 228.52344 24.162109 C 225.01944 24.267109 222.83984 27.083938 222.83984 30.960938 L 222.83984 45.138672 L 213.70703 45.138672 L 213.70703 16.515625 L 222.83984 16.515625 L 222.83984 21.242188 C 224.80484 17.844188 228.09797 16.144797 232.29297 16.091797 z M 281.63086 16.091797 C 289.49086 16.091797 294.05637 19.969266 294.10938 26.447266 L 294.10938 45.140625 L 285.13672 45.140625 L 285.13672 41.847656 C 283.27772 44.289656 280.25005 45.564453 276.37305 45.564453 C 270.26605 45.564453 266.55078 41.848797 266.55078 36.591797 C 266.55078 31.174797 270.42697 27.988547 277.54297 27.935547 L 285.08203 27.935547 L 285.08203 27.509766 C 285.08203 24.694766 283.22481 22.994141 279.50781 22.994141 C 277.11781 22.994141 273.98403 23.844766 270.95703 25.384766 L 268.35547 19.330078 C 272.81647 17.260078 276.85186 16.09375 281.63086 16.09375 L 281.63086 16.091797 z M 349.55859 16.197266 C 359.64859 16.197266 364.63895 22.835875 364.00195 33.296875 L 343.875 33.296875 C 344.778 36.694875 347.22114 38.607422 350.61914 38.607422 C 353.11514 38.607422 355.5587 37.596547 357.4707 35.685547 L 362.30273 40.412109 C 359.38273 43.598109 355.08122 45.457031 349.82422 45.457031 C 340.47822 45.457031 334.63672 39.61425 334.63672 30.90625 C 334.63672 22.03725 340.68959 16.197266 349.55859 16.197266 z M 349.66406 22.570312 C 346.47806 22.570312 344.3008 24.906422 343.7168 28.357422 L 355.1875 28.357422 C 355.1875 24.853422 352.95706 22.570312 349.66406 22.570312 z M 313.89648 23.472656 C 310.07348 23.472656 307.5237 26.49925 307.4707 30.90625 C 307.5237 35.31425 310.07348 38.394531 313.89648 38.394531 C 317.72048 38.394531 320.26953 35.31425 320.26953 30.90625 C 320.26953 26.49925 317.72048 23.472656 313.89648 23.472656 z M 285.08203 32.869141 L 279.29492 32.871094 C 276.53392 32.871094 275.15234 33.827172 275.15234 35.951172 C 275.15234 38.022172 276.6395 39.349609 279.1875 39.349609 C 282.0555 39.349609 284.49703 37.755922 285.08203 35.419922 L 285.08203 32.869141 z M 297.98047 56.554688 C 300.79547 56.554688 302.8125 58.574672 302.8125 61.388672 C 302.8125 64.255672 300.79547 66.273437 297.98047 66.273438 C 295.16647 66.273438 293.14844 64.255672 293.14844 61.388672 C 293.14844 58.573672 295.16647 56.554688 297.98047 56.554688 z M 333.24609 58.839844 L 342.43359 58.839844 L 342.43359 74.345703 C 344.45059 70.946703 347.79792 69.246359 352.04492 69.193359 C 358.36492 69.193359 362.50586 73.494547 362.50586 80.185547 L 362.50586 98.242188 L 353.31836 98.242188 L 353.31836 82.734375 C 353.31836 79.389375 351.40744 77.318359 348.27344 77.318359 C 344.66344 77.318359 342.43359 80.186234 342.43359 84.115234 L 342.43359 98.242188 L 333.24609 98.242188 L 333.24609 58.839844 z M 311.17969 62.980469 L 320.3125 62.980469 L 320.3125 70.892578 L 327.80078 70.892578 L 327.80078 76.947266 L 320.3125 76.947266 L 320.3125 88.152344 C 320.3125 90.382344 321.26875 91.338156 322.96875 91.285156 C 323.92475 91.285156 325.14539 90.912125 326.52539 90.328125 L 328.33203 96.701172 C 326.26103 97.923172 323.44655 98.666016 320.68555 98.666016 C 315.16255 98.666016 311.17969 95.532938 311.17969 89.585938 L 311.17969 76.947266 L 307.19727 76.947266 L 307.19727 70.947266 L 311.17969 70.947266 L 311.17969 62.980469 z M 239.64844 69.619141 L 248.99414 69.619141 L 254.88867 89.425781 L 260.62305 69.619141 L 269.38477 69.619141 L 275.2793 89.425781 L 281.06836 69.619141 L 290.04297 69.619141 L 279.58008 98.242188 L 270.5 98.242188 L 264.87109 80.080078 L 259.24219 98.242188 L 250.10938 98.242188 L 239.64844 69.619141 z M 293.36133 69.619141 L 302.49414 69.619141 L 302.49414 98.242188 L 293.36133 98.242188 L 293.36133 69.619141 z M 205.25781 110.14062 C 221.75781 110.14062 234.07422 121.69781 234.07422 137.13281 C 234.07422 142.07881 232.82012 146.64427 230.57812 150.57227 L 221.88477 141.88086 C 222.25977 140.39586 222.46289 138.82822 222.46289 137.19922 C 222.46289 127.18422 214.91459 119.63086 205.43359 119.63086 C 195.95359 119.63086 188.05078 127.18522 188.05078 137.19922 C 188.05078 147.21422 196.04059 154.9375 205.43359 154.9375 A 16.96 16.96 0 0 0 209.24414 154.50391 L 217.00977 162.23047 C 213.45977 163.65047 209.49781 164.42969 205.25781 164.42969 C 188.83381 164.42969 176.51562 152.71981 176.51562 137.13281 C 176.51562 121.62181 188.83381 110.14062 205.25781 110.14062 z M 344.11328 110.45898 C 351.55128 110.45898 358.98778 112.73456 364.30078 116.22656 L 359.67188 126.16797 C 354.05687 122.82797 347.37695 120.70508 343.12695 120.70508 C 339.10495 120.70508 336.37305 122.14725 336.37305 125.03125 C 336.37305 134.82225 364.68147 129.35742 364.60547 148.48242 C 364.60547 158.88042 355.57355 164.49609 343.81055 164.49609 C 335.08155 164.49609 326.35342 161.15727 320.35742 156.07227 L 325.13867 146.28125 C 330.60367 151.13825 338.34494 154.25 343.96094 154.25 C 348.89494 154.25 351.85547 152.43002 351.85547 149.16602 C 351.85547 139.14802 323.54492 144.99192 323.54492 126.16992 C 323.54492 116.53092 331.81828 110.45898 344.11328 110.45898 z M 269.58398 110.61133 C 277.47698 110.61133 285.52116 113.64656 290.91016 118.35156 L 284.15625 126.92773 C 280.20925 123.28473 274.74498 121.00781 269.58398 121.00781 C 260.17198 121.00781 252.88672 128.21969 252.88672 137.55469 C 252.88672 146.96469 260.25016 154.17578 269.66016 154.17578 C 272.84816 154.17578 276.64259 153.03702 280.05859 151.29102 L 280.05859 137.32617 L 290.45508 137.32617 L 290.45508 157.74219 C 284.83908 161.84119 276.26239 164.64844 268.90039 164.64844 C 252.81039 164.64844 240.5918 152.96169 240.5918 137.55469 C 240.5918 122.22369 253.03798 110.61133 269.58398 110.61133 z M 300.92969 110.99023 L 312.91992 110.99023 L 312.91992 164.11719 L 300.92969 164.11719 L 300.92969 110.99023 z M 200.95898 133.89453 L 209.33984 133.89453 L 216.17773 140.65625 L 208.09766 140.65625 L 208.09766 149.05859 L 200.95898 141.94531 L 200.95898 133.89453 z M 211.47852 144.03711 L 219.59766 144.03711 L 234.01562 158.29102 L 234.01562 166.19922 L 225.29492 166.19922 L 211.47852 152.42773 L 211.47852 144.03711 z " />
  <path
     id="path17"
     d="M98.1 74.801H75.794v21.433l19 18.937v-22.37h21.513z"
     fill="#ee7913" />
  <path
     id="path19"
     d="M204 189v22.34L240.782 248H264v-21.054L225.617 189z"
     fill="url(#b)"
     transform="translate(-100.206 -87.199)" />
  <path
     id="path21"
     d="M116.307 92.801H94.794v22.37l9 8.97v-22.34h21.617z"
     fill="#f0e64a" />
  <path
     id="path25"
     fill-opacity=".173"
     fill="#fff"
     d="M75.794 74.801l88 86v-21.054L125.411 101.8l-9.103-9-18.207-18z" />
</svg>
