<?xml version="1.0" encoding="UTF-8" standalone="no"?>
<!-- Created with Inkscape (http://www.inkscape.org/) -->

<svg
   width="30.506662mm"
   height="37.969185mm"
   viewBox="0 0 30.506662 37.969185"
   version="1.1"
   id="svg1"
   inkscape:version="1.4.3 (0d15f75042, 2025-12-25)"
   sodipodi:docname="qgis-2-logo.svg"
   xmlns:inkscape="http://www.inkscape.org/namespaces/inkscape"
   xmlns:sodipodi="http://sodipodi.sourceforge.net/DTD/sodipodi-0.dtd"
   xmlns="http://www.w3.org/2000/svg"
   xmlns:svg="http://www.w3.org/2000/svg">
  <sodipodi:namedview
     id="namedview1"
     pagecolor="#ffffff"
     bordercolor="#000000"
     borderopacity="0.25"
     inkscape:showpageshadow="2"
     inkscape:pageopacity="0.0"
     inkscape:pagecheckerboard="0"
     inkscape:deskcolor="#d1d1d1"
     inkscape:document-units="mm"
     inkscape:zoom="4.0466586"
     inkscape:cx="87.726698"
     inkscape:cy="64.868333"
     inkscape:window-width="1853"
     inkscape:window-height="1011"
     inkscape:window-x="0"
     inkscape:window-y="0"
     inkscape:window-maximized="1"
     inkscape:current-layer="layer1" />
  <defs
     id="defs1" />
  <g
     inkscape:label="Calque 1"
     inkscape:groupmode="layer"
     id="layer1"
     transform="translate(-38.364582,-57.150005)">
    <path
       fill="#129300"
       d="m 68.701707,57.550291 q -0.449792,0.187854 -0.738188,0.560916 L 52.316061,78.25129 q -0.433917,0.555625 -1.082146,0.762 -0.129646,0.04233 -0.232833,-0.04762 l -0.785813,-0.68527 6.873875,-8.855605 0.912813,-1.219729 2.989792,-3.820583 0.39952,-0.494771 0.693209,-0.9525 q 0.07938,-0.108479 -0.0344,-0.179916 L 59.75614,61.365587 q -0.09525,-0.05821 0.0079,-0.105833 l 8.800041,-4.090458 q 0.137584,-0.0635 0.185209,0.08202 0.04233,0.127 -0.04762,0.29898 z"
       id="path179"
       style="stroke-width:0.264583" />
    <path
       fill="#0d7200"
       d="m 68.701707,57.550291 q 0,0.150812 -0.05027,0.224895 -0.851958,4.431771 -1.616604,8.871479 -0.0344,0.198438 -0.187854,0.214313 L 66.28077,66.318582 64.910229,64.995666 q -0.113771,-0.10848 -0.206375,0.01852 l -0.878417,1.243542 q -0.113771,0.219604 -0.269875,0.3175 l -2.362729,3.013604 -2.479146,3.217333 -4.868333,6.294438 -2.891896,0.404812 -1.420813,0.484188 q -0.14552,0.04762 -0.203729,-0.0926 -0.0926,-0.230188 0.0026,-0.621771 0.206375,-0.148167 0.306917,-0.378354 l 0.576791,-0.616479 0.785813,0.68527 q 0.103187,0.08996 0.232833,0.04762 0.648229,-0.206375 1.082146,-0.762 L 67.963519,58.111207 q 0.288396,-0.373062 0.738188,-0.560916 z"
       id="path182"
       style="stroke-width:0.264583" />
    <path
       fill="#e2e1e2"
       d="m 61.391269,63.889707 -0.39952,0.494771 Q 59.973103,63.879124 58.93329,63.413457 C 56.694915,62.410686 54.173436,62.281041 51.768374,62.64352 q -0.129646,0.02117 -0.23548,0.09525 -0.08731,0.0635 -0.224895,0.08996 c -3.852334,0.732896 -7.117292,3.667125 -8.874125,7.085542 q -0.04763,-0.06615 -0.298979,0.111125 1.330854,-3.376084 4.161895,-5.357813 c 0.5715,-0.399521 1.439334,-0.555625 2.016125,-1.264708 q 0.07938,-0.100542 0.201084,-0.140229 c 0.992187,-0.320146 1.939395,-0.965729 3.151187,-0.965729 q 0.124354,0 0.206375,-0.09525 c 0.105833,-0.127 0.230188,-0.246063 0.41275,-0.23548 q 1.3335,0.0635 2.669646,0.0053 c 0.724958,-0.03175 1.383771,0.291042 2.169583,0.254 q 0.664104,-0.0291 1.026584,0.07673 1.706562,0.494771 3.241145,1.5875 z"
       id="path191"
       style="stroke-width:0.264583" />
    <path
       fill="#e4f363"
       d="m 60.991749,64.384478 -2.989792,3.820583 -0.889,-1.791229 Q 56.753124,65.522186 56.01229,64.58027 c -1.484312,-1.897063 -3.6195,-1.293813 -4.654021,0.619125 -0.838729,1.54252 -1.590145,3.188229 -1.87325,4.934479 q -0.711729,4.423833 -0.275166,8.903229 0.01587,0.153458 0.121708,0.238125 -0.09525,0.391583 -0.0026,0.621771 0.05821,0.140229 0.203729,0.0926 l 1.420813,-0.484188 q -0.177271,0.330729 0.219604,0.447146 l -1.539875,0.693208 a 0.238125,0.24077083 72 0 0 -0.137583,0.264584 c 0.415396,2.121958 1.407583,5.831416 3.622146,6.723062 q 0.87577,0.679979 2.0955,-0.124354 c 1.748895,-1.153583 1.267354,-3.325812 1.195916,-5.140854 q 0.03704,-0.259292 0.182563,-0.346604 a 0.21166666,0.20902083 52.9 0 1 0.261937,0.03704 q 1.135063,1.209146 2.574396,0.261938 a 0.29897916,0.29633333 77.5 0 0 0.132292,-0.209021 q 0.238125,-1.867958 1.132416,-3.513666 c 0.230188,-0.423334 0.256646,-0.93398 0.492125,-1.381125 q 0.3175,-0.60325 0.396875,-0.968375 c 0.161396,-0.71173 0.449792,-1.412875 0.502709,-2.090209 q 0.1905,-2.378604 -0.891646,-4.569354 l 2.362729,-3.013604 q 4.114271,4.717521 3.466042,10.895542 c -0.420688,3.984624 -2.537355,7.236354 -5.680604,9.554104 a 0.31485416,0.31220833 76.6 0 0 -0.119063,0.195791 q -0.232833,1.3335 -0.05292,2.677584 0.01852,0.129645 0.119063,0.216958 0.264583,0.230187 0.66675,0.267229 c 1.886479,0.455083 4.736041,-0.03175 5.453062,-2.042583 q 0.132292,-0.375709 0.489479,-0.298979 l -0.523875,2.833687 c -2.103437,3.201458 -6.775979,4.262437 -9.953624,2.153708 -0.986896,-0.936625 -0.978959,-2.188104 -1.06098,-3.436937 l 0.07937,-0.351896 q 0.03704,-0.164042 -0.129645,-0.145521 c -3.39725,0.362479 -6.06425,-0.01852 -8.966729,-1.793875 l -1.66423,-1.288521 -0.71702,-0.701145 c -4.087813,-4.365625 -4.884209,-9.988021 -2.526771,-15.396104 1.756833,-3.418417 5.021791,-6.352646 8.874125,-7.085542 q 0.137583,-0.02646 0.224895,-0.08996 0.105834,-0.07408 0.23548,-0.09525 c 2.405062,-0.362479 4.926541,-0.232834 7.164916,0.769937 q 1.039813,0.465667 2.058459,0.971021 z M 46.553436,81.950165 c -0.156104,-2.436812 -1.695979,-4.534958 -1.651,-6.887104 q 0.0291,-1.513416 -0.01852,-3.026833 c -0.0344,-1.076854 0.687917,-2.100792 0.497417,-3.177646 A 0.238125,0.238125 0 0 0 44.98975,68.720999 c -0.687917,0.611187 -1.415521,1.105958 -1.801813,1.971146 -0.587375,1.32027 -1.060979,2.550583 -1.095375,4.066645 -0.02117,0.96573 -0.357187,2.262188 0.05821,3.132667 0.425979,0.899583 3.000375,4.908021 4.28625,4.262437 q 0.127,-0.0635 0.116416,-0.203729 z"
       id="path192"
       style="stroke-width:0.264583" />
    <path
       fill="#808179"
       d="m 57.112957,66.413832 q -0.722313,-0.669396 -1.256771,-1.489604 c -0.616479,-0.949854 -1.423458,-1.164167 -2.484437,-0.875771 q -0.132292,0.0344 -0.206375,0.150813 l -0.621771,0.957791 c -0.727604,0.523875 -0.658813,1.066271 -1.039813,1.690688 -0.370416,0.605896 -0.616479,1.209146 -0.759354,1.902354 q -0.09525,0.460375 -0.314854,0.878417 -0.209021,0.407458 -0.381,0.867833 c -0.806979,2.521479 -0.600604,5.603875 -0.410104,8.400521 q -0.100542,0.230187 -0.306917,0.378354 -0.105833,-0.08467 -0.121708,-0.238125 -0.436563,-4.479396 0.275166,-8.903229 c 0.283105,-1.74625 1.034521,-3.391959 1.87325,-4.934479 1.034521,-1.912938 3.169709,-2.516188 4.654021,-0.619125 q 0.740834,0.941916 1.100667,1.833562 z"
       id="path195"
       style="stroke-width:0.264583" />
    <path
       fill="#ffffff"
       d="m 57.089144,69.42479 -6.873875,8.855605 -0.576791,0.616479 c -0.1905,-2.796646 -0.396875,-5.879042 0.410104,-8.400521 q -0.07408,1.182687 -0.238125,2.362729 -0.01852,0.137583 0.07673,0.216958 0.113771,0.08996 0.132292,-0.05292 l 0.134937,-1.105959 -0.127,4.709584 q -0.0053,0.137583 0.05027,0.264583 l 0.171979,0.396875 q 0.01588,0.03969 0.01852,-0.0026 c 0.214313,-1.960562 0.04233,-3.749146 0.502708,-5.606521 q 0.15875,-0.637645 0.67998,-2.521479 c 0.322791,-1.161521 1.431395,-4.556125 3.22527,-4.048125 q 0.124355,0.0344 0.185209,0.148167 0.1905,0.367771 0.576791,0.333375 0.132292,-0.01058 0.20373,0.100542 c 0.386291,0.582083 0.849312,1.209145 1.0795,1.836208 q 0.386291,1.050396 0.36777,1.897062 z"
       id="path199"
       style="stroke-width:0.264583" />
    <path
       fill="#b6b6b6"
       d="m 52.543603,65.157061 -0.47625,1.031875 q -0.09525,0.209021 0.08996,0.07144 0.193146,-0.145521 0.264583,-0.410104 0.05027,-0.187855 0.214313,-0.240771 0.140229,-0.04498 0.07408,0.08467 -0.500062,1.016 -1.280583,1.820334 a 0.54504166,0.55562499 74.1 0 0 -0.137583,0.240771 q -0.288396,1.095375 -0.402167,1.389062 -0.661458,1.688042 -0.735542,2.772833 l -0.134937,1.105959 q -0.01852,0.142875 -0.132292,0.05292 -0.09525,-0.07938 -0.07673,-0.216958 0.164042,-1.180042 0.238125,-2.362729 0.171979,-0.460375 0.381,-0.867833 0.219604,-0.418042 0.314854,-0.878417 c 0.142875,-0.693208 0.388938,-1.296458 0.759354,-1.902354 0.381,-0.624417 0.312209,-1.166813 1.039813,-1.690688 z"
       id="path200"
       style="stroke-width:0.264583" />
    <path
       fill="#808179"
       d="m 63.825436,66.257728 c 2.164292,2.569104 3.71475,6.006042 3.698875,9.392708 -0.0026,0.709084 0.06615,1.415521 -0.05556,2.092854 -0.611187,3.362854 -2.174875,6.622521 -4.738687,8.739188 q -0.992188,0.817562 -0.978958,1.770062 -0.373063,0.989542 0.203729,2.129896 -0.402167,-0.03704 -0.66675,-0.267229 -0.100542,-0.08731 -0.119063,-0.216958 -0.179916,-1.344084 0.05292,-2.677584 a 0.31485416,0.31220833 76.6 0 1 0.119063,-0.195791 c 3.143249,-2.31775 5.259916,-5.56948 5.680604,-9.554104 q 0.648229,-6.178021 -3.466042,-10.895542 0.156104,-0.0979 0.269875,-0.3175 z"
       id="path201"
       style="stroke-width:0.264583" />
    <path
       fill="#eef89d"
       d="m 44.902436,75.063061 c -0.04498,2.352146 1.494896,4.450292 1.651,6.887104 q 0.01058,0.140229 -0.116416,0.203729 C 45.151145,82.799478 42.576749,78.79104 42.15077,77.891457 41.735374,77.020978 42.0714,75.72452 42.09256,74.75879 c 0.0344,-1.516062 0.508,-2.746375 1.095375,-4.066645 0.386292,-0.865188 1.113896,-1.359959 1.801813,-1.971146 a 0.238125,0.238125 0 0 1 0.391583,0.137583 c 0.1905,1.076854 -0.531812,2.100792 -0.497417,3.177646 q 0.04762,1.513417 0.01852,3.026833 z m 16.290396,-5.474229 q 1.082146,2.19075 0.891646,4.569354 c -0.05292,0.677334 -0.341313,1.378479 -0.502709,2.090209 q -0.07937,0.365125 -0.396875,0.968375 c -0.235479,0.447145 -0.261937,0.957791 -0.492125,1.381125 q -0.894291,1.645708 -1.132416,3.513666 a 0.29897916,0.29633333 77.5 0 1 -0.132292,0.209021 q -1.439333,0.947208 -2.574396,-0.261938 a 0.21166666,0.20902083 52.9 0 0 -0.261937,-0.03704 q -0.145521,0.08731 -0.182563,0.346604 c 0.362479,-2.405063 -2.090208,-2.759604 -3.796771,-2.656417 l -1.439333,0.240771 q -0.396875,-0.116417 -0.219604,-0.447146 l 2.891896,-0.404812 q 2.423583,-0.01058 4.426479,0.748771 a 0.206375,0.20372916 14.8 0 0 0.275167,-0.15875 q 0.550333,-3.407834 0.166687,-6.884459 z"
       id="path203"
       style="stroke-width:0.264583" />
    <path
       fill="#b6b6b6"
       d="m 42.433874,69.91427 c -2.357438,5.408083 -1.561042,11.030479 2.526771,15.396104 l -1.063625,0.478895 q 0.156104,-0.896937 -0.07937,-1.217083 -4.992688,-6.768041 -1.68275,-14.546791 0.251354,-0.177271 0.298979,-0.111125 z"
       id="path204"
       style="stroke-width:0.264583" />
    <path
       fill="#b6b6b6"
       d="m 58.713686,72.806165 q 0.383646,3.476625 -0.166687,6.884459 a 0.206375,0.20372916 14.8 0 1 -0.275167,0.15875 q -2.002896,-0.759355 -4.426479,-0.748771 z m -0.497417,2.674938 a 0.20902083,0.20372916 77.6 0 1 -0.137583,0.219604 c -0.785812,0.280458 -0.960437,0.801688 -1.423458,1.399646 -0.391584,0.508 -1.084792,0.799042 -0.889,1.55575 q 0.03704,0.145521 0.177271,0.206375 0.947208,0.407458 1.981729,0.3175 a 0.52652083,0.52652083 0 0 0 0.478896,-0.521229 l 0.01852,-3.249084 A 0.09789583,0.09789583 0 0 0 58.26654,75.33029 q -0.06085,0.04762 -0.05027,0.150813 z"
       id="path208"
       style="stroke-width:0.264583" />
    <path
       fill="#ffffff"
       d="m 58.216269,75.481103 q -0.01058,-0.103188 0.05027,-0.150813 a 0.09789583,0.09789583 0 0 1 0.156104,0.07937 l -0.01852,3.249084 a 0.52652083,0.52652083 0 0 1 -0.478896,0.521229 q -1.034521,0.08996 -1.981729,-0.3175 -0.14023,-0.06085 -0.177271,-0.206375 c -0.195792,-0.756708 0.497416,-1.04775 0.889,-1.55575 0.463021,-0.597958 0.637646,-1.119188 1.423458,-1.399646 a 0.20902083,0.20372916 77.6 0 0 0.137583,-0.219604 z"
       id="path210"
       style="stroke-width:0.264583" />
    <path
       fill="#b6b6b6"
       d="m 56.409165,82.368207 c 0.07144,1.815042 0.552979,3.987271 -1.195916,5.140854 q -1.21973,0.804333 -2.0955,0.124354 -1.865313,-1.860021 -2.598209,-4.079875 a 0.32808333,0.333375 54.5 0 1 0.05292,-0.306916 l 2.542646,-3.262313 A 0.14816666,0.1508125 21.1 0 0 53.009269,79.74354 l -0.396875,-0.03175 c 1.706563,-0.103187 4.15925,0.251354 3.796771,2.656417 z m -4.847166,2.473854 c 0.66675,0.941917 2.473854,4.085167 3.865562,1.915583 q 0.07144,-0.108479 0.177271,-0.182562 0.386292,-0.261938 0.378354,-0.6985 -0.02381,-1.613958 0.05292,-3.230563 0.03175,-0.703791 -0.256646,-1.100666 c -0.338667,-0.468313 -1.439333,-1.100667 -1.905,-0.484188 q -0.301625,0.396875 -0.373063,0.460375 c -0.767291,0.679979 -1.283229,1.441979 -1.907645,2.235729 q -0.423334,0.534459 -0.03175,1.084792 z"
       id="path214"
       style="stroke-width:0.264583" />
    <path
       fill="#0d1e02"
       d="m 52.612394,79.71179 0.396875,0.03175 a 0.14816666,0.1508125 21.1 0 1 0.105834,0.240771 l -2.542646,3.262313 a 0.32808333,0.333375 54.5 0 0 -0.05292,0.306916 q 0.732896,2.219854 2.598209,4.079875 C 50.903183,86.741769 49.910996,83.032311 49.4956,80.910353 a 0.238125,0.24077083 72 0 1 0.137583,-0.264584 l 1.539875,-0.693208 z"
       id="path215"
       style="stroke-width:0.264583" />
    <path
       fill="#0c4000"
       d="m 44.960645,85.310374 0.71702,0.701145 -0.148166,0.01587 a 0.16933333,0.16933333 0 0 0 -0.08467,0.304271 q 0.436563,0.325438 0.04763,0.775229 -0.867833,0.99748 -1.616604,2.047875 l -5.511271,-1.037166 1.034521,-0.410104 q 0.296333,-0.05027 0.455083,-0.277813 l 4.042834,-1.640417 z"
       id="path225"
       style="stroke-width:0.264583" />
    <path
       fill="#0d1e02"
       d="m 45.677665,86.011519 1.66423,1.288521 -0.156105,0.986896 -0.928687,5.677958 q 0.0291,0.108479 0,0.15875 -0.04233,0.07408 -0.07937,-0.0053 L 43.875858,89.15476 q 0.748771,-1.050395 1.616604,-2.047875 0.388938,-0.449791 -0.04763,-0.775229 a 0.16933333,0.16933333 0 0 1 0.08467,-0.304271 z"
       id="path227"
       style="stroke-width:0.264583" />
    <path
       fill="#808179"
       d="m 47.341895,87.30004 c 2.902479,1.775354 5.569479,2.156354 8.966729,1.793875 q 0.166687,-0.01852 0.129645,0.145521 l -0.07937,0.351896 -0.05292,0.293687 a 0.1825625,0.1825625 0 0 1 -0.256646,0.132292 l -0.547688,-0.256646 q -0.134937,-0.0635 -0.283104,-0.05027 -3.722687,0.293688 -6.95325,-1.521354 a 0.37570833,0.38629166 55.7 0 0 -0.238125,-0.04233 l -0.841375,0.140229 z"
       id="path229"
       style="stroke-width:0.264583" />
    <path
       fill="#b6b6b6"
       d="m 39.854186,87.429686 q -0.15875,0.227542 -0.455083,0.277813 -0.05292,-0.01587 -0.100542,-0.02646 -0.09525,-0.02117 -0.02117,-0.08467 0.251354,-0.211667 0.576791,-0.166688 z m 28.043187,0.611188 c 1.246188,0.330729 1.034521,1.905 0.777875,3.018895 l 0.03969,-0.672041 q 0.06085,-0.989542 -0.214313,-0.03704 c -0.124354,0.423333 -0.11377,0.844021 -0.378354,1.251479 q -0.521229,0.801688 -0.560916,0.841375 -0.624417,0.608542 -1.27,1.002771 l -2.442105,1.49225 c -1.12977,0.0926 -2.309812,0.293687 -3.421062,0.0979 -1.436687,-0.251354 -3.870854,-1.034521 -4.217458,-2.727854 -0.169334,-0.814917 -0.238125,-2.415646 -1.606021,-1.87325 a 0.30691666,0.30427083 43.4 0 1 -0.219604,0.0053 q -0.727604,-0.254 -1.838854,-0.259291 -1.299105,-0.0079 -2.643188,-0.743479 -0.127,-0.06879 -0.267229,-0.03704 -0.227542,0.05027 -0.365125,-0.134938 -0.103188,-0.142875 -0.277813,-0.171979 l -1.090083,-0.1905 a 0.18785416,0.18785416 0 0 0 -0.216958,0.140229 l -0.365125,1.436688 q -0.03704,0.148167 -0.02646,0.301625 0.03969,0.597958 -0.3175,1.034521 -0.08731,0.105833 -0.105834,0.24077 l -0.261937,1.8415 -0.351896,0.06615 0.928687,-5.677958 0.841375,-0.140229 a 0.37570833,0.38629166 55.7 0 1 0.238125,0.04233 q 3.230563,1.815042 6.95325,1.521354 0.148167,-0.01323 0.283104,0.05027 l 0.547688,0.256646 a 0.1825625,0.1825625 0 0 0 0.256646,-0.132292 l 0.05292,-0.293687 c 0.08202,1.248833 0.07408,2.500312 1.06098,3.436937 q 0.428625,1.031875 2.010833,1.322917 4.979458,0.910167 8.061854,-2.764896 0.394229,-0.468312 0.428625,-1.719791 0.0026,-0.153459 -0.0635,-0.01588 l -0.484188,1.023937 z"
       id="path230"
       style="stroke-width:0.264583" />
    <path
       fill="#e2e1e2"
       d="m 38.364582,88.117603 5.511271,1.037166 2.301875,4.963584 q 0.03704,0.07937 0.07937,0.0053 0.0291,-0.05027 0,-0.15875 l 0.351896,-0.06615 -0.497417,0.669396 A 0.33866666,0.33602083 51 0 1 45.53479,94.50729 C 45.061186,93.480707 44.960645,92.454123 44.553186,91.453999 44.166895,90.509436 44.23304,89.855915 43.010665,89.615144 q -2.248958,-0.4445 -4.482041,-0.918104 -0.124354,-0.02646 -0.132292,-0.153458 z m 23.889229,0.132291 -0.0026,1.09273 q -0.41275,-0.502709 0.0026,-1.09273 z"
       id="path231"
       style="stroke-width:0.264583" />
    <path
       fill="#808179"
       d="m 57.419874,93.028269 c 3.177645,2.108729 7.850187,1.04775 9.953624,-2.153708 l 0.484188,-1.023937 q 0.06615,-0.137584 0.0635,0.01588 -0.0344,1.251479 -0.428625,1.719791 -3.082396,3.675063 -8.061854,2.764896 -1.582208,-0.291042 -2.010833,-1.322917 z"
       id="path236"
       style="stroke-width:0.264583" />
    <path
       fill="#e2e1e2"
       d="m 68.675248,91.059769 q -0.806979,1.846792 -2.69875,3.055938 c -0.627062,0.399521 -1.378479,0.534458 -2.12725,0.822854 l 2.442105,-1.49225 q 0.645583,-0.394229 1.27,-1.002771 0.03969,-0.03969 0.560916,-0.841375 c 0.264584,-0.407458 0.254,-0.828146 0.378354,-1.251479 q 0.275167,-0.9525 0.214313,0.03704 z"
       id="path237"
       style="stroke-width:0.264583" />
  </g>
</svg>
