<?xml version="1.0" encoding="UTF-8" standalone="no"?>
<svg
   xmlns:dc="http://purl.org/dc/elements/1.1/"
   xmlns:cc="http://creativecommons.org/ns#"
   xmlns:rdf="http://www.w3.org/1999/02/22-rdf-syntax-ns#"
   xmlns:svg="http://www.w3.org/2000/svg"
   xmlns="http://www.w3.org/2000/svg"
   xmlns:xlink="http://www.w3.org/1999/xlink"
   xml:space="preserve"
   enable-background="new 0 0 722.569 346.291"
   viewBox="0 0 369.27272 172.30075"
   height="172.30074"
   width="369.27271"
   y="0px"
   x="0px"
   id="Layer_1"
   version="1.1"><metadata
     id="metadata46"><rdf:RDF><cc:Work
         rdf:about=""><dc:format>image/svg+xml</dc:format><dc:type
           rdf:resource="http://purl.org/dc/dcmitype/StillImage" /><dc:title></dc:title></cc:Work></rdf:RDF></metadata><defs
     id="defs44"><linearGradient
       gradientTransform="translate(-100.25588,2.3875393)"
       gradientUnits="userSpaceOnUse"
       y2="167.98872"
       x2="717.75787"
       y1="248.36922"
       x1="721.1015"
       id="linearGradient4329"
       xlink:href="#SVGID_5_" /><linearGradient
       gradientTransform="translate(-100.20591,-87.198628)"
       y2="102.9362"
       x2="186.5125"
       y1="250.2354"
       x1="188.7529"
       gradientUnits="userSpaceOnUse"
       id="linearGradient4331"
       xlink:href="#SVGID_5_" /><linearGradient
       gradientUnits="userSpaceOnUse"
       y2="98.686951"
       x2="606.49799"
       y1="98.686951"
       x1="105.5037"
       id="linearGradient4440"
       xlink:href="#SVGID_5_" /></defs><linearGradient
     gradientTransform="translate(-110.63499,-98.765)"
     y2="100.4837"
     x2="347.78201"
     y1="247.7832"
     x1="350.02249"
     gradientUnits="userSpaceOnUse"
     id="SVGID_1_"><stop
       id="stop6"
       style="stop-color:#589632"
       offset="0" /><stop
       id="stop8"
       style="stop-color:#93B023"
       offset="1" /></linearGradient><linearGradient
     gradientTransform="translate(-110.63499,-98.765)"
     y2="98.822403"
     x2="456.98129"
     y1="246.1226"
     x1="459.22171"
     gradientUnits="userSpaceOnUse"
     id="SVGID_2_"><stop
       id="stop13"
       style="stop-color:#589632"
       offset="0" /><stop
       id="stop15"
       style="stop-color:#93B023"
       offset="1" /></linearGradient><linearGradient
     gradientTransform="translate(-110.63499,-98.765)"
     y2="97.388199"
     x2="551.26642"
     y1="244.6875"
     x1="553.50677"
     gradientUnits="userSpaceOnUse"
     id="SVGID_3_"><stop
       id="stop20"
       style="stop-color:#589632"
       offset="0" /><stop
       id="stop22"
       style="stop-color:#93B023"
       offset="1" /></linearGradient><linearGradient
     y2="101.4977"
     x2="232.211"
     y1="250.03419"
     x1="234.4702"
     gradientUnits="userSpaceOnUse"
     id="SVGID_4_"><stop
       id="stop27"
       style="stop-color:#589632"
       offset="0" /><stop
       id="stop29"
       style="stop-color:#93B023"
       offset="1" /></linearGradient><linearGradient
     y2="102.9362"
     x2="186.5125"
     y1="250.2354"
     x1="188.7529"
     gradientUnits="userSpaceOnUse"
     id="SVGID_5_"><stop
       id="stop36"
       style="stop-color:#589632"
       offset="0" /><stop
       id="stop38"
       style="stop-color:#93B023"
       offset="1" /></linearGradient><path
     id="rect4317"
     transform="translate(-1.525879e-5,0)"
     d="M 0 0 L 0 172.30078 L 369.27344 172.30078 L 369.27344 0 L 0 0 z M 320.26953 5.7363281 L 329.45508 5.7363281 L 329.45508 45.138672 L 320.26953 45.138672 L 320.26953 41.369141 C 318.25162 44.024264 315.3301 45.509766 311.66602 45.509766 C 303.59441 45.509766 298.28516 39.563463 298.28516 30.695312 C 298.28516 21.933379 303.54277 16.144531 311.45508 16.144531 C 315.22537 16.144531 318.25162 17.631986 320.26953 20.287109 L 320.26953 5.7363281 z M 7.6328125 7.5703125 L 167.99609 7.5703125 L 167.99609 165.54688 L 7.6328125 165.54688 L 7.6328125 7.5703125 z M 232.29297 16.091797 C 236.966 16.091797 240.41779 18.534521 241.85156 22.570312 C 243.71016 18.32211 247.21527 16.144897 251.94141 16.091797 C 258.20752 16.091797 262.24219 20.393058 262.24219 27.083984 L 262.24219 45.138672 L 253.10938 45.138672 L 253.10938 29.632812 C 253.10937 26.234254 251.19678 24.162109 248.16992 24.162109 C 244.71825 24.268315 242.5957 27.084441 242.5957 30.960938 L 242.5957 45.138672 L 233.4082 45.138672 L 233.4082 29.632812 C 233.4082 26.234254 231.5503 24.162109 228.52344 24.162109 C 225.01867 24.268315 222.83984 27.084441 222.83984 30.960938 L 222.83984 45.138672 L 213.70703 45.138672 L 213.70703 16.515625 L 222.83984 16.515625 L 222.83984 21.242188 C 224.80464 17.843615 228.09785 16.144897 232.29297 16.091797 z M 281.63086 16.091797 C 289.49006 16.091797 294.05627 19.968737 294.10938 26.447266 L 294.10938 45.138672 L 285.13672 45.138672 L 285.13672 41.845703 C 283.27813 44.288427 280.24955 45.5625 276.37305 45.5625 C 270.26624 45.5625 266.55078 41.846998 266.55078 36.589844 C 266.55078 31.173369 270.42721 27.986694 277.54297 27.933594 L 285.08203 27.933594 L 285.08203 27.507812 C 285.08203 24.693382 283.225 22.994141 279.50781 22.994141 C 277.11819 22.994141 273.98388 23.844788 270.95703 25.384766 L 268.35547 19.330078 C 272.81609 17.259072 276.85162 16.091797 281.63086 16.091797 z M 349.55859 16.197266 C 359.6481 16.197266 364.63918 22.835654 364.00195 33.296875 L 343.875 33.296875 C 344.77775 36.695447 347.22056 38.607422 350.61914 38.607422 C 353.11496 38.607422 355.55901 37.597244 357.4707 35.685547 L 362.30273 40.412109 C 359.38208 43.598271 355.08138 45.457031 349.82422 45.457031 C 340.47814 45.457031 334.63672 39.615082 334.63672 30.90625 C 334.63672 22.03811 340.69044 16.197266 349.55859 16.197266 z M 349.66406 22.570312 C 346.4779 22.570312 344.30093 24.905746 343.7168 28.357422 L 355.1875 28.357422 C 355.1875 24.852643 352.95642 22.570313 349.66406 22.570312 z M 313.89648 23.472656 C 310.07309 23.472656 307.5238 26.498726 307.4707 30.90625 C 307.52381 35.313774 310.07309 38.394531 313.89648 38.394531 C 317.71988 38.394531 320.26953 35.313774 320.26953 30.90625 C 320.26953 26.498726 317.71988 23.472656 313.89648 23.472656 z M 279.29492 32.871094 C 276.53358 32.871094 275.15234 33.827064 275.15234 35.951172 C 275.15234 38.022177 276.63857 39.349609 279.1875 39.349609 C 282.05504 39.349609 284.4979 37.75644 285.08203 35.419922 L 285.08203 32.871094 L 279.29492 32.871094 z M 297.98047 56.554688 C 300.79492 56.554688 302.8125 58.574229 302.8125 61.388672 C 302.8125 64.256218 300.79492 66.273438 297.98047 66.273438 C 295.16603 66.273438 293.14844 64.256218 293.14844 61.388672 C 293.14844 58.574229 295.16603 56.554687 297.98047 56.554688 z M 333.24609 58.839844 L 342.43359 58.839844 L 342.43359 74.345703 C 344.4515 70.94713 347.79671 69.246459 352.04492 69.193359 C 358.36414 69.193359 362.50586 73.494607 362.50586 80.185547 L 362.50586 98.242188 L 353.31836 98.242188 L 353.31836 82.734375 C 353.31836 79.388905 351.4065 77.318359 348.27344 77.318359 C 344.66246 77.318359 342.43359 80.185641 342.43359 84.115234 L 342.43359 98.242188 L 333.24609 98.242188 L 333.24609 58.839844 z M 311.17969 62.980469 L 320.3125 62.980469 L 320.3125 70.892578 L 327.80078 70.892578 L 327.80078 76.947266 L 320.3125 76.947266 L 320.3125 88.152344 C 320.3125 90.382657 321.26946 91.338256 322.96875 91.285156 C 323.92459 91.285156 325.14472 90.912254 326.52539 90.328125 L 328.33203 96.701172 C 326.26102 97.922534 323.44689 98.666016 320.68555 98.666016 C 315.16287 98.666016 311.17969 95.533432 311.17969 89.585938 L 311.17969 76.947266 L 307.19727 76.947266 L 307.19727 70.947266 L 311.17969 70.947266 L 311.17969 62.980469 z M 239.64844 69.619141 L 248.99414 69.619141 L 254.88867 89.425781 L 260.62305 69.619141 L 269.38477 69.619141 L 275.2793 89.425781 L 281.06836 69.619141 L 290.04297 69.619141 L 279.58008 98.242188 L 270.5 98.242188 L 264.87109 80.080078 L 259.24219 98.242188 L 250.10938 98.242188 L 239.64844 69.619141 z M 293.36133 69.619141 L 302.49414 69.619141 L 302.49414 98.242188 L 293.36133 98.242188 L 293.36133 69.619141 z M 205.25781 110.14062 C 221.75718 110.14063 234.07422 121.69763 234.07422 137.13281 C 234.07422 142.07891 232.81958 146.64492 230.57812 150.57227 L 221.88477 141.88086 C 222.26004 140.39632 222.46289 138.82801 222.46289 137.19922 C 222.46289 127.18419 214.91445 119.63086 205.43359 119.63086 C 195.95273 119.63086 188.05078 127.18457 188.05078 137.19922 C 188.05078 147.21387 196.04063 154.9375 205.43359 154.9375 C 206.74683 154.9375 208.01992 154.78564 209.24414 154.50391 L 217.00977 162.23047 C 213.46031 163.64965 209.49769 164.42969 205.25781 164.42969 C 188.83431 164.42969 176.51562 152.71975 176.51562 137.13281 C 176.51563 121.62175 188.83393 110.14062 205.25781 110.14062 z M 344.11328 110.45898 C 351.55102 110.45861 358.98844 112.73533 364.30078 116.22656 L 359.67188 126.16797 C 354.05563 122.82851 347.37698 120.70508 343.12695 120.70508 C 339.10456 120.70508 336.37305 122.14706 336.37305 125.03125 C 336.37305 134.82201 364.68135 129.35692 364.60547 148.48242 C 364.60547 158.88022 355.57381 164.49609 343.81055 164.49609 C 335.0821 164.49609 326.35269 161.15735 320.35742 156.07227 L 325.13867 146.28125 C 330.60353 151.13907 338.3447 154.25 343.96094 154.25 C 348.89464 154.25 351.85547 152.42961 351.85547 149.16602 C 351.85547 139.14799 323.54492 144.99227 323.54492 126.16992 C 323.54492 116.53129 331.81773 110.45898 344.11328 110.45898 z M 269.58398 110.61133 C 277.47737 110.61133 285.52118 113.64626 290.91016 118.35156 L 284.15625 126.92773 C 280.20937 123.28474 274.74495 121.00781 269.58398 121.00781 C 260.17224 121.00781 252.88672 128.21958 252.88672 137.55469 C 252.88672 146.96568 260.24955 154.17578 269.66016 154.17578 C 272.84787 154.17578 276.64324 153.03663 280.05859 151.29102 L 280.05859 137.32617 L 290.45508 137.32617 L 290.45508 157.74219 C 284.83884 161.84084 276.26225 164.64844 268.90039 164.64844 C 252.81047 164.64844 240.5918 152.96207 240.5918 137.55469 C 240.5918 122.22356 253.03808 110.61133 269.58398 110.61133 z M 300.92969 110.99023 L 312.91992 110.99023 L 312.91992 164.11719 L 300.92969 164.11719 L 300.92969 110.99023 z M 200.95898 133.89453 L 209.33984 133.89453 L 216.17773 140.65625 L 208.09766 140.65625 L 208.09766 149.05859 L 200.95898 141.94531 L 200.95898 133.89453 z M 211.47852 144.03711 L 219.59766 144.03711 L 234.01562 158.29102 L 234.01562 166.19922 L 225.29492 166.19922 L 211.47852 152.42773 L 211.47852 144.03711 z "
     style="fill:#5b9731;fill-opacity:1" /><polygon
     transform="translate(-100.20591,-87.198628)"
     id="polygon3"
     points="195,180 216.513,180 198.306,162 176,162 176,183.433 195,202.37 "
     style="fill:#ee7913" /><polygon
     transform="translate(-100.20591,-87.198628)"
     id="polygon31"
     points="264,226.946 225.617,189 204,189 204,211.34 240.782,248 264,248 "
     style="fill:url(#SVGID_4_)" /><polygon
     transform="translate(-100.20591,-87.198628)"
     id="polygon33"
     points="204,189 225.617,189 216.513,180 195,180 195,202.37 204,211.34 "
     style="fill:#f0e64a" /><path
     id="path40"
     d="m 97.84609,129.66537 c -3.259,0.75 -6.648,1.157 -10.144,1.157 -25.005,0 -46.271,-20.562 -46.271,-47.221998 0,-26.66 21.032,-46.769 46.271,-46.769 25.239,0 45.336,20.108 45.336,46.769 0,4.336 -0.54,8.508 -1.539,12.46 l 23.144,23.139998 c 5.967,-10.455 9.305,-22.610998 9.305,-35.777998 0,-41.09 -32.791,-71.856 -76.714,-71.856 -43.722,0 -76.511999,30.564 -76.511999,71.856 0,41.493998 32.790999,72.665998 76.511999,72.665998 11.287,0 21.835,-2.076 31.284,-5.854 l -20.672,-20.569 z"
     style="fill:url(#linearGradient4331)" /><path
     style="fill:#ffffff;fill-opacity:0.17254902"
     id="polygon4174"
     d="m 75.79409,74.801372 88,85.999998 0,-21.05469 -38.38281,-37.94531 -9.10352,-8.999998 -18.20703,-18 z" />
</svg>
