/* XPM */
static char *remove_selection[]={
"32 32 245 2",
".# c None",
"Qt c None",
".D c #000000",
".9 c #000000",
".C c #000000",
"bY c #000000",
"#A c #000000",
".8 c #000000",
"bW c #000000",
"#Y c #000000",
"ag c #000000",
"#z c #000000",
"bX c #000000",
".a c #3892e1",
"#X c #000000",
".B c #023199",
"af c #000000",
".b c #3790de",
".A c #04359e",
".z c #0638a1",
".y c #083ca3",
".x c #0940a5",
".w c #0b43a8",
".v c #0d47a9",
".u c #104aac",
".t c #124dae",
".s c #1451b1",
".r c #1655b3",
".q c #1858b6",
".p c #195cb8",
".o c #1b5fb9",
".n c #1e63bc",
".m c #2067be",
".l c #2269c1",
".k c #246dc3",
".j c #2671c6",
".i c #2875c8",
".h c #2a78ca",
".g c #2c7bcc",
".f c #2e7fcf",
".e c #3083d1",
".d c #3286d3",
".c c #3489d6",
".E c #3893e2",
".7 c #002c8f",
"#y c #0032a4",
".6 c #0133a5",
"#x c #0231c5",
"bV c #0235a6",
"#W c #0330d9",
".5 c #033abb",
"#w c #0347fd",
"#v c #0349ff",
"bU c #0438a8",
"#V c #044aff",
".4 c #053fbf",
"#u c #054bff",
"bT c #063cab",
".3 c #0641c1",
"bS c #0840ad",
".2 c #0844c3",
"ae c #094fff",
"bR c #0a44b0",
".1 c #0a48c5",
"#U c #0b50ff",
"bQ c #0c47b2",
"#t c #0c52ff",
"bP c #0e4bb5",
".0 c #0e4cc7",
"ad c #0f55ff",
"bO c #114fb7",
".Z c #1151c8",
"#T c #1157ff",
"bN c #1352b9",
"#s c #1359ff",
".Y c #1455ca",
"bM c #1556bc",
"ac c #165bff",
"bL c #175abe",
".X c #185acc",
"#S c #185eff",
"bK c #195ec1",
"#r c #1a5fff",
".W c #1b5ece",
"bJ c #1b62c3",
"ab c #1c62ff",
"bI c #1d65c6",
".V c #1e63d0",
"#R c #1e64ff",
"#q c #2066ff",
"bH c #2069c8",
".U c #2167d2",
"bG c #226dcb",
"aa c #2368ff",
"bF c #2470cd",
".T c #256bd3",
"#Q c #256bff",
"bE c #2674cf",
"#p c #276cff",
".S c #2870d5",
"bD c #2878d2",
"a# c #296fff",
"bk c #2979d3",
"bj c #2a7bd4",
".R c #2b74d7",
"bi c #2b7cd5",
"#P c #2c71ff",
"bh c #2c7ed6",
"bf c #2c7fd7",
"bd c #2d81d8",
"#o c #2e73ff",
".Q c #2e79d9",
"bc c #2e82d9",
"bb c #2f83da",
"a. c #3075ff",
"b# c #3085da",
"a9 c #3186db",
"a7 c #3188dc",
"#O c #3277ff",
".P c #327ddb",
"a4 c #3289dd",
"a1 c #338bde",
"#n c #347aff",
"a0 c #348cdf",
".O c #3582dd",
"aY c #358ee0",
"#9 c #367bff",
"aW c #368fe1",
"aU c #3690e2",
"aQ c #3792e3",
".N c #3886de",
"aO c #3893e4",
"#N c #397eff",
"aI c #3994e5",
".F c #3995e5",
"#m c #3b80ff",
".M c #3b8ae0",
"#8 c #3c82ff",
"#M c #3f84ff",
".L c #3f8fe2",
"#l c #4186ff",
".K c #4293e4",
"#7 c #4388ff",
"#L c #458bff",
".J c #4597e6",
"#k c #488dff",
".I c #489be8",
"#6 c #498eff",
".H c #4ba0e9",
"#K c #4c91ff",
"#j c #4e93ff",
".G c #4ea4eb",
"#5 c #4f94ff",
"#J c #5297ff",
"#i c #559aff",
"#I c #589dff",
"#h c #5ba0ff",
"#H c #5ea3ff",
"#g c #61a6ff",
"#G c #64a9ff",
"#4 c #67abff",
"#f c #68acff",
"#F c #6aafff",
"#3 c #6cb1ff",
"#e c #6eb2ff",
"#. c #6ebbf5",
"#E c #70b5ff",
"#2 c #71b6ff",
"#d c #74b8ff",
"aH c #768ce3",
"#D c #76baff",
"#1 c #77bbff",
"#c c #7abeff",
"#C c #7bbfff",
"#0 c #7bc0ff",
"aG c #7da0fc",
"aF c #7da0fd",
"aE c #7ea1fd",
"aD c #7fa2fe",
"a3 c #808080",
"#b c #80c4ff",
"#B c #80c5ff",
"aV c #818181",
"aC c #82a5fe",
"#Z c #84c8ff",
"a2 c #857d7d",
"aB c #85a8ff",
"#a c #85c9ff",
"aA c #89acff",
"## c #8aceff",
"az c #8db0ff",
"ay c #90b3ff",
"ax c #93b6ff",
"aw c #96b9ff",
"av c #9abcff",
"au c #9dbfff",
"at c #a0c2ff",
"as c #a3c5ff",
"ar c #a6c8ff",
"aq c #a9cbff",
"ap c #acceff",
"ao c #afd1ff",
"an c #b1d4ff",
"am c #b4d6ff",
"al c #b7d9ff",
"ak c #b9dbff",
"aj c #bbdeff",
"ai c #bde0ff",
"ah c #bfe1ff",
"bB c #d1d0da",
"bA c #d6d4df",
"bz c #d8d6e0",
"by c #dad8e2",
"bx c #dbdae3",
"bC c #dcdcdc",
"bw c #dddce5",
"bv c #dfdee6",
"bu c #e1e0e8",
"bt c #e3e2e9",
"bs c #e5e4eb",
"br c #e7e6ec",
"bq c #e9e8ed",
"bp c #ebeaef",
"bo c #ececf0",
"bn c #eeeef2",
"bm c #f0f0f3",
"bl c #f2f2f5",
"aT c #f5f5f9",
"bg c #f6f6f9",
"aP c #f6f6fa",
"be c #f7f7fa",
"aS c #f8f8fb",
"aR c #f9f9fb",
"aX c #faf5f7",
"a8 c #faf6f7",
"aN c #fafafc",
"aZ c #fbf3f5",
"ba c #fbfbfc",
"aM c #fbfbfd",
"a6 c #fcf2f2",
"b. c #fcfcfd",
"aL c #fdfdfe",
"aK c #fefefe",
"a5 c #fefeff",
"aJ c #ffffff",
"QtQtQtQtQtQtQtQtQtQtQtQtQtQtQtQtQtQtQtQtQtQtQtQtQtQtQtQtQtQtQtQt",
".#.a.b.c.d.e.f.g.h.i.j.k.l.m.n.o.p.q.r.s.t.u.v.w.x.y.z.A.B.C.D.#",
".E.F.G.H.I.J.K.L.M.N.O.P.Q.R.S.T.U.V.W.X.Y.Z.0.1.2.3.4.5.6.7.8.9",
".F#.###a#b#c#d#e#f#g#h#i#j#k#l#m#n#o#p#q#r#s#t#u#v#v#v#w#x#y#z#A",
".F###a#B#C#D#E#F#G#H#I#J#K#L#M#N#O#P#Q#R#S#T#U#V#v#v#v#v#W#y#X#Y",
".F#Z#b#0#1#2#3#4#g#h#i#5#6#7#8#9a.a#aaabacadae#v#v#v#v#v#W#yafag",
".FahaiajakalamanaoapaqarasatauavawaxayazaAaBaCaDaEaEaFaGaH#yafag",
"aIaJaJaJaJaJaJaJaJaJaJaJaJaJaJaJaJaJaJaJaKaLaMaNaJaJaJaJaJ#yafag",
"aOaJaJaJaJaJaJaJaJaJaJaJaJaJaJaJaJaJaJaKaLaMaJaJaJaPaJaJaJ#yafag",
"aQaJaJaJaJaJaJaJaJaJaJaJaJaJaJaJaJaJaKaLaMaNaRaSaPaTaJaJaJ#yafag",
"aUaJaJaVaVaVaVaVaVaVaJaJaJaVaVaVaVaVaVaVaVaVaVaVaVaVaJaJaJ#yafag",
"aWaJaJaJaJaJaJaJaJaJaJaJaJaJaJaJaKaLaXaJaJaJaJaJaJaJaJaJaJ#yafag",
"aYaJaJaJaJaJaJaJaJaJaJaJaJaJaJaKaZaJaJaJaJaJaJaJaJaJaJaJaJ#yafag",
"a0aJaJaJaJaJaJaJaJaJaJaJaJaJaKaJaJaJaJaJaJaJaJaJaJaJaJaJaJ#yafag",
"a1aJaJaVaVaVaVaVaVaVaJaJaJaVa2a3a3a3a3a3a3a3a3a3a3a3aJaJaJ#yafag",
"a4aJaJaJaJaJaJaJaJaJaJaJa5aLaJaJaJaJaJaJaJaJaJaJa6aJaJaJaJ#yafag",
"a7aJaJaJaJaJaJaJaJaJaJa5aLa8aJaJaJaJaJaJaJaJaJaJaJaJaJaJaJ#yafag",
"a9aJaJaJaJaJaJaJaJaJa5aLb.aJaJaJaJaJaJaJaJaJaJaJaJaJaJaJaJ#yafag",
"b#aJaJaVaVaVaVaVaVaVaLb.baa3a3a3a3a3a3a3a3a3a3a3a3a3aJaJaJ#yafag",
"bbaJaJaJaJaJaJaJa5aLaJaJaJaJaJaJaJaJaJaJaJaJaJaJaJaJaJaJaJ#yafag",
"bcaJaJaJaJaJaJa5aLb.aJaJaJaJaJaJaJaJaJaJaJaJaJaJaJaJaJaJaJ#yafag",
"bdaJaJaJaJaJaJaLb.baaJaJbeaJaJaJaJaJaJaJaJaJaJaJaJaJaJaJaJ#yafag",
"bfaJaJaVaVaVaVaVaVaVaJaJbgaVa3a3a3a3a3a3a3a3a3a3a3a3aJaJaJ#yafag",
"bhaJaJaJaJaLb.baaNaSbeaJaJaJaJaJaJaJaJaJaJaJaJaJaJaJaJaJaJ#yafag",
"biaJaJaJaLb.baaJaJaJaJaJaJaJaJaJaJaJaJaJaJaJaJaJaJaJaJaJaJ#yafag",
"bjaJaJaLb.baaNaJaJaJaJaJaJaJaJaJaJaJaJaJaJaJaJaJaJaJaJaJaJ#yafag",
"bkblbmbnbobpbqbrbsbtbubvbwbxbybzbAbBbCbCbCbCbCbCbCbCbCbCbC#yafag",
"bDbEbFbGbHbIbJbKbLbMbNbObPbQbRbSbTbUbV#y#y#y#y#y#y#y#y#y#y#yafag",
"bWbXafafafafafafafafafafafafafafafafafafafafafafafafafafafafbXbW",
"bYbWagagagagagagagagagagagagagagagagagagagagagagagagagagagagbWbY",
"QtQtQtQtQtQtQtQtQtQtQtQtQtQtQtQtQtQtQtQtQtQtQtQtQtQtQtQtQtQtQtQt",
"QtQtQtQtQtQtQtQtQtQtQtQtQtQtQtQtQtQtQtQtQtQtQtQtQtQtQtQtQtQtQtQt"};
