/* XPM */
static const char *point_layer_xpm[]={
"16 16 4 1",
". c None",
"b c #008080",
"a c #00c0c0",
"# c #00ffff",
"................",
"................",
"................",
"................",
"................",
"......#aa.......",
".....###ab......",
"....####abb.....",
"....####aab.....",
"....####abb.....",
".....ababb......",
"......bbb.......",
"................",
"................",
"................",
"................"};
