/* XPM */
static const char * icon[] = {
"22 22 11 1",
" 	c None",
".	c #FFFFFF",
"+	c #000000",
"@	c #717171",
"#	c #AAAAAA",
"$	c #C6C6C6",
"%	c #555555",
"&	c #E2E2E2",
"*	c #383838",
"=	c #1C1C1C",
"-	c #8D8D8D",
"......................",
".++++++++++++++++++++.",
".++++++++++++++++++++.",
".+++++++@#...$@++++++.",
".+++++%&..###..&%++++.",
".++++%.&@+++++@&.%+++.",
".+++*.&=+*-##@*=&.*++.",
".+++$.=+#..#$..%=.$++.",
".++*.-+-.$=++@.%+-.*+.",
".++@.*+..*++++.%+*.-+.",
".++#.+%..+++++++++.#+.",
".++#.+%..+++++++++.#+.",
".++-.=*..*+++++++=.-+.",
".++%.@+$.$++++-*+@.%+.",
".+++&&+*..$%%$#++&&++.",
".+++@.#+=#..&-++#.@++.",
".++++#.#=+++++=#.#+++.",
".+++++#..#%%%#..#++++.",
".++++++*$.....$*+++++.",
".++++++++=%%%++++++++.",
".++++++++++++++++++++.",
"......................"};
