/* XPM */
static const char * icon[] = {
"22 22 66 1",
" 	c None",
".	c #323842",
"+	c #515969",
"@	c #535A6A",
"#	c #545C6B",
"$	c #6999BE",
"%	c #6A9ABE",
"&	c #6B9BBF",
"*	c #709EC3",
"=	c #73A0C6",
"-	c #76A2C7",
";	c #FFFFFF",
">	c #729FC5",
",	c #6F9DC2",
"'	c #6899BD",
")	c #555D6C",
"!	c #6D9CBF",
"~	c #719FC3",
"{	c #7AA5CB",
"]	c #AAAAAA",
"^	c #E2E2E2",
"/	c #6F9DC1",
"(	c #6C9BBF",
"_	c #565E6D",
":	c #6F9DC0",
"<	c #73A0C4",
"[	c #79A5C9",
"}	c #717171",
"|	c #000000",
"1	c #719EC2",
"2	c #575F6E",
"3	c #74A1C4",
"4	c #7AA5C9",
"5	c #1C1C1C",
"6	c #383838",
"7	c #8D8D8D",
"8	c #72A0C2",
"9	c #596170",
"0	c #7AA5C8",
"a	c #C6C6C6",
"b	c #555555",
"c	c #5A6271",
"d	c #80A9CD",
"e	c #3C4557",
"f	c #578EBD",
"g	c #5B6372",
"h	c #3A4355",
"i	c #4F88BA",
"j	c #5C6473",
"k	c #5E6674",
"l	c #4D87B9",
"m	c #5F6775",
"n	c #4A84B6",
"o	c #41495B",
"p	c #4481B2",
"q	c #3D7CAD",
"r	c #4A85B7",
"s	c #3677A8",
"t	c #407EAF",
"u	c #4B86B7",
"v	c #3A7AAB",
"w	c #4984B6",
"x	c #3C7BAC",
"y	c #4380B1",
"z	c #3878A9",
"A	c #222833",
"                      ",
"                      ",
"  .+@@@@######@@@++.  ",
"  @$$%&*=-;;;>,%%$'@  ",
"  )!!~-{;;]]];;^/!(#  ",
"  _:<[;^}|||||}^;1:_  ",
"  234;^5|67]]}65^;82  ",
"  90a;5|];;]a;;b5;a9  ",
"  cd;7|7;abbb};bb7;9  ",
"  ef;6|;;bbbbb;bb6;g  ",
"  hi;|b;;bbbbbbbbb;j  ",
"  hi;|b;;bbbbbbbbb;k  ",
"  hl;56;;bbbbbbbb5;m  ",
"  hn;}|a;abbbb7bb};o  ",
"  hp^^|6;;abba]bb;;h  ",
"  hqr;]|5];;^7bb];sh  ",
"  hstu;]5|||||5];vsh  ",
"  hsstw;;]bbb];;xssh  ",
"  hsssxyw;;;;;tzsssh  ",
"  AhhhhhhhhhhhhhhhhA  ",
"                      ",
"                      "};
