/* XPM */
static char *icon[]={
"22 22 11 1",
". c None",
"d c #000000",
"e c #1c1c1c",
"f c #383838",
"i c #555555",
"c c #717171",
"g c #8d8d8d",
"a c #aaaaaa",
"h c #c6c6c6",
"b c #e2e2e2",
"# c #ffffff",
"......................",
"......................",
"......................",
"..........###.........",
"........##aaa##b......",
"......#bcdddddcb#.....",
".....#bedfgaacfeb#....",
"....h#eda##ah##ie#h...",
"....#gdg#hiiic#iig#...",
"....#fd##iiiii#iif#...",
"....#di##iiiiiiiii#...",
"....#di##iiiiiiiii#...",
"....#ef##iiiiiiiie#...",
"....#cdh#hiiiigiic#...",
"....bbdf##hiihaii##...",
".....#adea##bgiia#....",
"......#aedddddea#.....",
".......##aiiia##......",
".........#####........",
"......................",
"......................",
"......................"};
