
<svg width="36" height="36" xmlns="http://www.w3.org/2000/svg">
  <path
    d="M 0.0 32.0 L 0.6530612244897959 31.999998187451816 L 1.3061224489795917 31.999941998458066 L 1.9591836734693877 31.999559550790945 L 2.6122448979591835 31.998143950658132 L 3.265306122448979 31.994335786920573 L 3.9183673469387754 31.985905625310203 L 4.571428571428571 31.969536502647706 L 5.224489795918367 31.940606421060274 L 5.877551020408163 31.892970842199347 L 6.530612244897958 31.818745181458358 L 7.183673469387754 31.708087302190503 L 7.836734693877551 31.548980009926463 L 8.489795918367346 31.327013546592184 L 9.142857142857142 31.0251680847266 L 9.795918367346937 30.62359622169941 L 10.448979591836734 30.099405473928798 L 11.10204081632653 29.426440771099205 L 11.755102040816325 28.575066950379078 L 12.408163265306122 27.5119512506386 L 13.061224489795917 26.199845806667476 L 13.714285714285714 24.597370143392638 L 14.367346938775508 22.65879367009604 L 15.020408163265305 20.33381817463236 L 15.673469387755102 17.567360317646806 L 16.3265306122449 14.432639682353194 L 16.97959183673469 11.666181825367655 L 17.632653061224488 9.341206329903976 L 18.285714285714285 7.402629856607369 L 18.93877551020408 5.800154193332531 L 19.591836734693874 4.488048749361404 L 20.24489795918367 3.424933049620929 L 20.897959183673468 2.5735592289007982 L 21.551020408163264 1.9005945260712025 L 22.20408163265306 1.3764037783005918 L 22.857142857142854 0.9748319152733984 L 23.51020408163265 0.6729864534078196 L 24.163265306122447 0.45101999007353655 L 24.816326530612244 0.2919126978095008 L 25.469387755102037 0.1812548185416425 L 26.122448979591834 0.10702915780065325 L 26.77551020408163 0.05939357893972641 L 27.428571428571427 0.0304634973522937 L 28.081632653061224 0.014094374689797462 L 28.734693877551017 0.005664213079427327 L 29.387755102040813 0.0018560493418675605 L 30.04081632653061 0.00044044920905506046 L 30.693877551020407 5.8001541933805356e-05 L 31.346938775510203 1.8125481844322167e-06 L 32.0 0.0"
    style="fill:none;stroke-width:4;stroke-linecap:round;stroke-linejoin:round;stroke:#212121" 
    transform="translate(2, 2)"
    />
</svg>
