
<svg width="36" height="36" xmlns="http://www.w3.org/2000/svg">
  <path
    d="M 0.0 32.0 L 0.6530612244897959 30.974876480308595 L 1.3061224489795917 29.953965413047904 L 1.9591836734693877 28.941461940778044 L 2.6122448979591835 27.94152665744788 L 3.265306122448979 26.95826851162207 L 3.9183673469387754 25.995727921930015 L 4.571428571428571 25.05786017411907 L 5.224489795918367 24.148519167936996 L 5.877551020408163 23.271441580631222 L 6.530612244897958 22.430231512140544 L 7.183673469387754 21.628345675075387 L 7.836734693877551 20.869079190344216 L 8.489795918367346 20.155552046794952 L 9.142857142857142 19.49069628051152 L 9.795918367346937 18.877243926448706 L 10.448979591836734 18.317715791914463 L 11.10204081632653 17.814411098032 L 11.755102040816325 17.369398031747004 L 12.408163265306122 16.984505247203835 L 13.061224489795917 16.66131435141343 L 13.714285714285714 16.401153405090824 L 14.367346938775508 16.2050914653688 L 15.020408163265305 16.07393419281283 L 15.673469387755102 16.008220540788994 L 16.3265306122449 15.991779459211006 L 16.97959183673469 15.926065807187172 L 17.632653061224488 15.794908534631205 L 18.285714285714285 15.598846594909176 L 18.93877551020408 15.33868564858657 L 19.591836734693874 15.015494752796169 L 20.24489795918367 14.630601968253004 L 20.897959183673468 14.185588901968003 L 21.551020408163264 13.682284208085541 L 22.20408163265306 13.122756073551294 L 22.857142857142854 12.509303719488479 L 23.51020408163265 11.844447953205052 L 24.163265306122447 11.130920809655784 L 24.816326530612244 10.371654324924616 L 25.469387755102037 9.569768487859463 L 26.122448979591834 8.728558419368781 L 26.77551020408163 7.851480832063011 L 27.428571428571427 6.942139825880933 L 28.081632653061224 6.004272078069988 L 28.734693877551017 5.041731488377934 L 29.387755102040813 4.058473342552123 L 30.04081632653061 3.0585380592219593 L 30.693877551020407 2.0460345869521 L 31.346938775510203 1.0251235196914052 L 32.0 0.0"
    style="fill:none;stroke-width:4;stroke-linecap:round;stroke-linejoin:round;stroke:#212121" 
    transform="translate(2, 2)"
    />
</svg>
