
<svg width="36" height="36" xmlns="http://www.w3.org/2000/svg">
  <path
    d="M 0.0 32.0 L 0.6530612244897959 28.053372025200346 L 1.3061224489795917 25.07926355411393 L 1.9591836734693877 22.838028440425006 L 2.6122448979591835 21.149073621303266 L 3.265306122448979 19.87630738468144 L 3.9183673469387754 18.91717344294174 L 4.571428571428571 18.194387206374977 L 5.224489795918367 17.649708386206473 L 5.877551020408163 17.2392481392746 L 6.530612244897958 16.92993261593692 L 7.183673469387754 16.69683795282927 L 7.836734693877551 16.521181970927742 L 8.489795918367346 16.38881075501731 L 9.142857142857142 16.289058166964672 L 9.795918367346937 16.21388639525614 L 10.448979591836734 16.15723828845396 L 11.10204081632653 16.114549285237253 L 11.755102040816325 16.08237961358344 L 12.408163265306122 16.058137122629496 L 13.061224489795917 16.039868413704625 L 13.714285714285714 16.026101440400783 L 14.367346938775508 16.015726894792323 L 15.020408163265305 16.007908822206105 L 15.673469387755102 16.00201726210601 L 16.3265306122449 15.998000737156836 L 16.97959183673469 15.992115062731166 L 17.632653061224488 15.984304800407273 L 18.285714285714285 15.97394061898024 L 18.93877551020408 15.96018739889648 L 19.591836734693874 15.941936940430075 L 20.24489795918367 15.917718667748812 L 20.897959183673468 15.885581133629124 L 21.551020408163264 15.842934776769276 L 22.20408163265306 15.786343261482383 L 22.857142857142854 15.711246586448883 L 23.51020408163265 15.611593651331358 L 24.163265306122447 15.479354674397864 L 24.816326530612244 15.303874172997734 L 25.469387755102037 15.071012371691396 L 26.122448979591834 14.76200585487053 L 26.77551020408163 14.351955658135395 L 27.428571428571427 13.807820972652376 L 28.081632653061224 13.085756800258007 L 28.734693877551017 12.127581034284287 L 29.387755102040813 10.856086292404335 L 30.04081632653061 9.168818740834169 L 30.693877551020407 6.929822623262815 L 31.346938775510203 3.95868528951015 L 32.0 0.0"
    style="fill:none;stroke-width:4;stroke-linecap:round;stroke-linejoin:round;stroke:#212121" 
    transform="translate(2, 2)"
    />
</svg>
