
<svg width="36" height="36" xmlns="http://www.w3.org/2000/svg">
  <path
    d="M 0.0 32.0 L 0.6530612244897959 27.475459114922117 L 1.3061224489795917 25.668336512762345 L 1.9591836734693877 24.32826767381503 L 2.6122448979591835 23.2382642514294 L 3.265306122448979 22.31353666991587 L 3.9183673469387754 21.51028349112881 L 4.571428571428571 20.802332604419757 L 5.224489795918367 20.172558186922558 L 5.877551020408163 19.609034474442268 L 6.530612244897958 19.103074182444736 L 7.183673469387754 18.648131722278613 L 7.836734693877551 18.239146118722953 L 8.489795918367346 17.87212561450845 L 9.142857142857142 17.54387355351598 L 9.795918367346937 17.25180108978127 L 10.448979591836734 16.99379553557413 L 11.10204081632653 16.76812566244493 L 11.755102040816325 16.573372328466654 L 12.408163265306122 16.408376964815254 L 13.061224489795917 16.27220299912843 L 13.714285714285714 16.16410690222741 L 14.367346938775508 16.083516594998933 L 15.020408163265305 16.030015659575533 L 15.673469387755102 16.003332292028226 L 16.3265306122449 15.996667707971774 L 16.97959183673469 15.969984340424467 L 17.632653061224488 15.916483405001067 L 18.285714285714285 15.83589309777259 L 18.93877551020408 15.727797000871568 L 19.591836734693874 15.591623035184746 L 20.24489795918367 15.426627671533346 L 20.897959183673468 15.23187433755507 L 21.551020408163264 15.00620446442587 L 22.20408163265306 14.74819891021873 L 22.857142857142854 14.45612644648402 L 23.51020408163265 14.127874385491552 L 24.163265306122447 13.760853881277047 L 24.816326530612244 13.351868277721387 L 25.469387755102037 12.896925817555267 L 26.122448979591834 12.390965525557732 L 26.77551020408163 11.827441813077442 L 27.428571428571427 11.197667395580243 L 28.081632653061224 10.48971650887119 L 28.734693877551017 9.686463330084138 L 29.387755102040813 8.761735748570608 L 30.04081632653061 7.671732326184969 L 30.693877551020407 6.331663487237659 L 31.346938775510203 4.524540885077883 L 32.0 0.0"
    style="fill:none;stroke-width:4;stroke-linecap:round;stroke-linejoin:round;stroke:#212121" 
    transform="translate(2, 2)"
    />
</svg>
