<?xml version="1.0" encoding="iso-8859-1"?>
<!-- Generator: Adobe Illustrator 9.0, SVG Export Plug-In  -->
<!DOCTYPE svg PUBLIC "-//W3C//DTD SVG 20000303 Stylable//EN"   "http://www.w3.org/TR/2000/03/WD-SVG-20000303/DTD/svg-20000303-stylable.dtd" [
	<!ENTITY st0 "fill:none;stroke-width:5;">
	<!ENTITY st1 "fill-rule:nonzero;clip-rule:nonzero;fill:#000400;stroke:#000000;stroke-miterlimit:4;">
]>
<svg  width="92.989pt" height="119.391pt" viewBox="0 0 92.989 119.391" xml:space="preserve">
	<g id="Layer_x0020_1" style="&st1;">
		<path d="M92.489,118.891h-65v-13h65v13z"/>
		<path d="M70.695,21.891H50.566L39.821,91.886v16.338h41.667v-16.34L70.695,21.891z"/>
		<path d="M0.593,26.376L53.08,15.18l0.987,4.626L1.58,31.002l-0.987-4.626z"/>
		<path d="M1.784,0.573l52.981,8.553l-0.755,4.669L1.03,5.243l0.754-4.67z"/>
		<path style="&st0;" d="M68.656,22.308c0-8.699-3.619-15.75-8.083-15.75c-4.465,0-8.084,7.051-8.084,15.75s3.619,15.75,8.084,15.75c4.464,0,8.083-7.051,8.083-15.75z"/>
	</g>
</svg>
