<?xml version="1.0" encoding="iso-8859-1"?>
<!-- Generator: Adobe Illustrator 9.0, SVG Export Plug-In  -->
<!DOCTYPE svg PUBLIC "-//W3C//DTD SVG 20000303 Stylable//EN"   "http://www.w3.org/TR/2000/03/WD-SVG-20000303/DTD/svg-20000303-stylable.dtd" [
	<!ENTITY st0 "fill-rule:nonzero;clip-rule:nonzero;fill:#000400;stroke:#000000;stroke-miterlimit:4;">
]>
<svg  width="66.251pt" height="58.167pt" viewBox="0 0 66.251 58.167" xml:space="preserve">
	<g id="Layer_x0020_1" style="&st0;">
		<path d="M65.751,43.833c0,7.318-6.156,13.25-13.75,13.25s-13.75-5.932-13.75-13.25s6.156-13.25,13.75-13.25s13.75,5.932,13.75,13.25z"/>
		<path d="M47.083,13.75c0,7.318-6.156,13.25-13.75,13.25s-13.75-5.932-13.75-13.25S25.74,0.5,33.333,0.5s13.75,5.932,13.75,13.25z"/>
		<path d="M28,44.417c0,7.318-6.156,13.25-13.75,13.25S0.5,51.735,0.5,44.417s6.156-13.25,13.75-13.25S28,37.099,28,44.417z"/>
	</g>
</svg>
