/* XPM */
static const char * icon[] = {
"22 22 41 1",
" 	c None",
".	c #C6C6C6",
"+	c #272727",
"@	c #252525",
"#	c #9E9E9E",
"$	c #BCBCBC",
"%	c #1D1D1D",
"&	c #000000",
"*	c #1B1B1B",
"=	c #999999",
"-	c #B1B1B1",
";	c #131313",
">	c #121212",
",	c #959595",
"'	c #737373",
")	c #656565",
"!	c #646464",
"~	c #232323",
"{	c #323232",
"]	c #626262",
"^	c #6B6B6B",
"/	c #979797",
"(	c #4C4C4C",
"_	c #676767",
":	c #686868",
"<	c #494949",
"[	c #7B7B7B",
"}	c #808080",
"|	c #030303",
"1	c #010101",
"2	c #898989",
"3	c #8E8E8E",
"4	c #707070",
"5	c #6E6E6E",
"6	c #787878",
"7	c #484848",
"8	c #636363",
"9	c #6D6D6D",
"0	c #474747",
"a	c #616161",
"b	c #777777",
"                      ",
"         .+@#         ",
"        $%&&*=        ",
"       -;&&&&>,       ",
"       ')!~{]]^/      ",
"          (_&         ",
"          (:          ",
"          (:          ",
"          (:          ",
"          (:          ",
"          (:          ",
"          (:          ",
"          <)[         ",
" }||||||||11||||||||2 ",
"  345555567!895555550 ",
"          (_          ",
"          (:          ",
"          (:          ",
"          (:          ",
"          (:          ",
"          ab     &    ",
"                  &   "};
