/* XPM */
static const char *icon[]={
"22 22 180 2",
"Qt c None",
"#g c #33383b",
"#h c #394044",
"#i c #434847",
"#p c #444746",
"#. c #4a4e4f",
"#o c #4c5151",
".8 c #4d5051",
".0 c #4f5251",
"#f c #504749",
"#e c #50524e",
"#r c #505452",
"#q c #515758",
"#j c #555959",
"an c #566a4d",
"## c #575a58",
"#w c #585a57",
"#n c #585b56",
"aw c #596b54",
".9 c #5a5c5a",
".J c #5d5e59",
"#H c #5d636d",
"#s c #606464",
"#G c #606b73",
"au c #60a945",
".O c #61635b",
"av c #61a84d",
"at c #62ae43",
"ak c #62ae44",
"#I c #636565",
"am c #63ab47",
"#R c #64696d",
".B c #656765",
".1 c #656863",
"ae c #656e61",
"#F c #656e73",
"al c #65aa49",
"#m c #676963",
"#v c #676a64",
"#d c #686a65",
".6 c #696c67",
"#E c #696e70",
".7 c #6a6c66",
"#L c #6a6d66",
".X c #6a6d67",
"#1 c #6d6e68",
"#z c #6d706b",
"#a c #6d706e",
".w c #6f7374",
"#M c #6f7676",
"#2 c #70716d",
"a. c #70726b",
".Z c #70736e",
".E c #707575",
"ai c #707a6a",
"as c #70a85c",
"ar c #717e6a",
".P c #72736c",
"#x c #72746f",
"aj c #72af5a",
".F c #73746c",
"#D c #737570",
"ah c #74766f",
".N c #747979",
".2 c #757975",
"#U c #757a78",
"#T c #77797b",
"#y c #787b76",
"#0 c #787b7c",
"#Z c #787c7c",
"aF c #787d7d",
"#K c #797c7d",
"#P c #798fa8",
"#7 c #7a7a78",
"#9 c #7a7c7d",
"ab c #7aaf64",
"aq c #7b7d77",
"a# c #7b7d79",
"ag c #7b7e7e",
"ap c #7b7e7f",
"ay c #7b7f7f",
".W c #7b7f80",
"#A c #7c7f7a",
".5 c #7c8080",
"#c c #7f8284",
".Q c #81827b",
".Y c #81847d",
"aU c #82837e",
"#l c #828587",
".f c #83857f",
"az c #848580",
".I c #85857d",
".x c #85867d",
"#Q c #858ea0",
"#u c #868a8c",
"aR c #878682",
"aH c #878a89",
".n c #878b8b",
"aA c #878c8a",
".G c #88887e",
".A c #898a84",
".s c #8a8c89",
"aS c #8b8b86",
"aV c #8b8c88",
"#C c #8b8f90",
".R c #8c8d86",
"aM c #8c8f8c",
"aT c #8d8e88",
".o c #8d8f86",
"#J c #8d8f89",
"aL c #8d9090",
".S c #8e9089",
"#S c #8e908a",
"aI c #8f8f89",
"#B c #8f918c",
"ad c #8fb57e",
"#O c #90a2b8",
".3 c #92948e",
"#8 c #939590",
"af c #949791",
"aK c #949b9b",
".r c #959792",
"aE c #959b9e",
"aW c #969591",
"#b c #969791",
"#t c #969892",
"#N c #96a5b6",
"ao c #979a94",
".H c #98978d",
"ac c #98b58b",
"#k c #999b95",
".T c #9b9c96",
".4 c #9c9d97",
"aJ c #9da09c",
".V c #9e9f96",
"ax c #9fa09b",
".U c #a0a199",
"#V c #a3a7a9",
"aX c #a4a3a0",
"aB c #a5acad",
".y c #a6a69c",
"aD c #a7b0b5",
"aG c #a8a9a4",
".K c #a9aaa2",
"aN c #a9aba6",
".z c #aaaaa1",
"aO c #aaaba6",
"aC c #b2bdbf",
"aP c #b4b4b0",
"#W c #b4b8ba",
".p c #babcb1",
".g c #bfc1b7",
".L c #c1c2bb",
".C c #c1c3bd",
".M c #c2c3bc",
".q c #c4c6bd",
"#X c #cacfd3",
"#Y c #cbced0",
"aa c #cbd4c5",
"aQ c #cdcdcd",
".h c #d5d8cf",
".i c #d9dcd5",
".e c #dadbdb",
"#3 c #dcdbd9",
".D c #dddfd9",
".t c #dfe2dc",
".a c #e2e3e0",
".j c #e2e4e0",
"#5 c #e3e2e0",
"#6 c #e4e4e1",
"#4 c #e5e4e2",
".b c #e6e7e4",
".# c #eaeae9",
".c c #ebebe9",
".v c #ecedea",
".d c #f0f0ef",
".l c #f0f1ef",
".u c #f0f2ef",
".k c #f4f7f3",
".m c #f5f5f3",
"QtQtQtQtQtQtQtQtQt.#.a.b.c.dQtQtQtQtQtQtQtQt",
"QtQtQtQtQtQtQt.e.f.g.h.i.j.k.l.mQtQtQtQtQtQt",
"QtQtQtQtQtQtQt.n.o.p.q.r.s.t.u.vQtQtQtQtQtQt",
"QtQtQtQtQtQtQt.w.x.y.z.A.B.C.D.DQtQtQtQtQtQt",
"QtQtQtQtQtQtQt.E.F.G.H.I.J.K.L.MQtQtQtQtQtQt",
"QtQtQtQtQtQtQt.N.O.P.Q.R.S.T.U.VQtQtQtQtQtQt",
"QtQtQtQtQtQtQt.W.X.Y.Z.0.1.2.3.4QtQtQtQtQtQt",
"QtQtQtQtQtQtQt.5.6.7.8.9#.###a#bQtQtQtQtQtQt",
"QtQtQtQtQtQtQt#c#d#e#f#g#h#i#j#kQtQtQtQtQtQt",
"QtQtQtQtQtQtQt#l#m#n#o#p#q#r#s#tQtQtQtQtQtQt",
"QtQtQtQtQtQtQt#u#m#v#w#x#y#z#A#BQtQtQtQtQtQt",
"QtQtQtQtQtQtQt#C.7#D#E#F#G#H#I#JQtQtQtQtQtQt",
"QtQtQtQtQtQtQt#K#L#M#N#O#P#Q#R#SQtQtQtQtQtQt",
"QtQtQtQtQtQtQt#T#L#U#V#W#X#Y#Z.3QtQtQtQtQtQt",
"QtQtQtQtQtQtQt#0#1#2#3#4#5#6#7#8QtQtQtQtQtQt",
"QtQtQtQtQtQtQt#9a.a#aaabacadaeafQtQtQtQtQtQt",
"QtQtQtQtQtQtQtagahaiajakalamanaoQtQtQtQtQtQt",
"QtQtQtQtQtQtQtapaqarasatauavawaxQtQtQtQtQtQt",
"QtQtQtQtQtQtQtayazaAaBaCaDaEaFaGQtQtQtQtQtQt",
"QtQtQtQtQtQtQtaHaIaJaKaLaMaNaOaPQtQtQtQtQtQt",
"QtQtQtQtQtQtQtaQaRaSaTaUaVaWaXQtQtQtQtQtQtQt",
"QtQtQtQtQtQtQtQtQtQtQtQtQtQtQtQtQtQtQtQtQtQt"};
