/* XPM */
static char * qgis_icon_xpm[] = {
"32 32 220 2",
"  	c None",
". 	c #324A00",
"+ 	c #257700",
"@ 	c #0F3700",
"# 	c #316E00",
"$ 	c #177B00",
"% 	c #0E7200",
"& 	c #0C2A00",
"* 	c #414202",
"= 	c #2C6000",
"- 	c #167800",
"; 	c #0F7400",
"> 	c #0E7100",
", 	c #0E7000",
"' 	c #0D2900",
") 	c #100F00",
"! 	c #1F5C00",
"~ 	c #103100",
"{ 	c #167A00",
"] 	c #0E6A00",
"^ 	c #106800",
"/ 	c #113B00",
"( 	c #5B55E0",
"_ 	c #4E49D6",
": 	c #423CCE",
"< 	c #403BC9",
"[ 	c #4440B9",
"} 	c #484297",
"| 	c #2A7003",
"1 	c #0F7300",
"2 	c #0E6E00",
"3 	c #0B2C00",
"4 	c #122000",
"5 	c #173D00",
"6 	c #4A43E0",
"7 	c #3C37BB",
"8 	c #2E2A7F",
"9 	c #15143C",
"0 	c #11102A",
"a 	c #191748",
"b 	c #282573",
"c 	c #384A53",
"d 	c #137B00",
"e 	c #0C5200",
"f 	c #040800",
"g 	c #1D1E00",
"h 	c #4942DC",
"i 	c #3833AA",
"j 	c #1E1D4C",
"k 	c #1F5F16",
"l 	c #091D02",
"m 	c #4841DB",
"n 	c #3934B2",
"o 	c #232163",
"p 	c #356701",
"q 	c #0B4300",
"r 	c #1A174A",
"s 	c #4F49D8",
"t 	c #3B35B8",
"u 	c #3631A6",
"v 	c #16152B",
"w 	c #197C00",
"x 	c #0C5B02",
"y 	c #0C1615",
"z 	c #302B99",
"A 	c #2B287A",
"B 	c #423CCC",
"C 	c #3631AB",
"D 	c #343093",
"E 	c #2F6C00",
"F 	c #0F7500",
"G 	c #0E6F00",
"H 	c #0C2A02",
"I 	c #282578",
"J 	c #3530A9",
"K 	c #3530A5",
"L 	c #1C1A3C",
"M 	c #4640C3",
"N 	c #3A35B7",
"O 	c #3631AA",
"P 	c #2A2776",
"Q 	c #147C00",
"R 	c #0B5700",
"S 	c #060A00",
"T 	c #3F3BA7",
"U 	c #282664",
"V 	c #3B36B5",
"W 	c #3833AF",
"X 	c #1B1950",
"Y 	c #247600",
"Z 	c #0E6D00",
"` 	c #092300",
" .	c #423EA7",
"..	c #2F2C7C",
"+.	c #4640CA",
"@.	c #3732AC",
"#.	c #1C1A53",
"$.	c #386401",
"%.	c #127900",
"&.	c #0C4A00",
"*.	c #040500",
"=.	c #423DA0",
"-.	c #3832AE",
";.	c #2E2B7A",
">.	c #3E39B4",
",.	c #1D7B00",
"'.	c #0D6600",
").	c #071700",
"!.	c #4641AA",
"~.	c #2D2A79",
"{.	c #332F99",
"].	c #307203",
"^.	c #0F7600",
"/.	c #0B3A00",
"(.	c #4D48C3",
"_.	c #2D2A78",
":.	c #37339E",
"<.	c #3732AB",
"[.	c #27246D",
"}.	c #3A6B73",
"|.	c #4250AA",
"1.	c #3E48A3",
"2.	c #35347E",
"3.	c #4641B5",
"4.	c #232257",
"5.	c #2E2B83",
"6.	c #4D5AB0",
"7.	c #423CC9",
"8.	c #2B2D7A",
"9.	c #212161",
"0.	c #332F9C",
"a.	c #3B36AD",
"b.	c #413CC1",
"c.	c #3530A6",
"d.	c #14132B",
"e.	c #343194",
"f.	c #3631A9",
"g.	c #3631A2",
"h.	c #3B4262",
"i.	c #433DCE",
"j.	c #1B2444",
"k.	c #083400",
"l.	c #040600",
"m.	c #1E1C48",
"n.	c #322E9D",
"o.	c #322E92",
"p.	c #3F39C5",
"q.	c #292673",
"r.	c #342F9F",
"s.	c #3A38A8",
"t.	c #3634A2",
"u.	c #093807",
"v.	c #061800",
"w.	c #342F91",
"x.	c #3F3AB4",
"y.	c #3C36BA",
"z.	c #35309E",
"A.	c #121129",
"B.	c #2D2A72",
"C.	c #3530A4",
"D.	c #342FA1",
"E.	c #0D2912",
"F.	c #010100",
"G.	c #423EAC",
"H.	c #3530A2",
"I.	c #161439",
"J.	c #213E3F",
"K.	c #2F2C90",
"L.	c #2F2C84",
"M.	c #4842CF",
"N.	c #3732AD",
"O.	c #1A183F",
"P.	c #297500",
"Q.	c #0E7300",
"R.	c #114C15",
"S.	c #24265C",
"T.	c #2F2B8E",
"U.	c #3832AD",
"V.	c #3C37BC",
"W.	c #3B36B2",
"X.	c #1E1C4D",
"Y.	c #287700",
"Z.	c #0D5A00",
"`.	c #050800",
" +	c #020206",
".+	c #28265F",
"++	c #2E2A7D",
"@+	c #433DD4",
"#+	c #454902",
"$+	c #286800",
"%+	c #147300",
"&+	c #0E6700",
"*+	c #0E6C00",
"=+	c #0C4000",
"-+	c #3732A9",
";+	c #242252",
">+	c #3934AE",
",+	c #080E00",
"'+	c #070F00",
")+	c #050A00",
"!+	c #193400",
"~+	c #0F7000",
"{+	c #0E3500",
"]+	c #342F93",
"^+	c #3732A7",
"/+	c #433DCB",
"(+	c #312D89",
"_+	c #186000",
":+	c #0F3600",
"<+	c #322E95",
"[+	c #3530A7",
"}+	c #3530A8",
"|+	c #302D8E",
"1+	c #0F0E1F",
"2+	c #1F3A00",
"3+	c #123E00",
"4+	c #17163F",
"5+	c #131132",
"6+	c #080812",
"7+	c #192100",
"                                                                ",
"                                                .               ",
"                                              + @               ",
"                                          # $ % &               ",
"                                    * = - ; > , '               ",
"                                      ) ! > > , ~               ",
"                                        { > ] ^ /               ",
"                        ( _ : < < [ } | 1 2 3 4 5               ",
"                      6 7 8 9 0 a b c d > e f   g               ",
"                    h i j           k % ] l                     ",
"                  m n o           p % , q r                     ",
"                s t u v           w > x y z A                   ",
"                B C D           E F G H I J K L                 ",
"              M N O P           Q > R S T C O U                 ",
"              V W O X         Y % Z `    .C O ..                ",
"              +.@.O #.      $.%.> &.*.  =.-.O ;.                ",
"              >.O O #.      ,.% '.).    !.W O ~.                ",
"              {.C O #.    ].^., /.      (.W O _.                ",
"              :.<.O [.    }.|.1.2.      3.<.O 4.                ",
"                <.O 5.  6.7.8.9.0.a.    b.C c.d.                ",
"                e.f.g.h.i.j.k.l.m.n.o.  p.O q.                  ",
"                  r.O s.t.u.v.    w.O x.y.z.A.                  ",
"                  B.C.O D.E.F.    G.@.O H.I.                    ",
"                    J.K.f.L.      M.N.f.O.                      ",
"                  P.Q.R.S.T.U.y.V.W.O f.X.                      ",
"                Y.^.> Z.`.     + +.+@.O ++    @+                ",
"          #+$+%+&+*+> =+            -+O C.;+  >+                ",
"            ,+'+)+!+~+{+            ]+f.O ^+/+(+                ",
"                    _+:+              <+[+}+|+1+                ",
"                    2+3+                4+5+6+                  ",
"                      7+                                        ",
"                                                                "};
