/* XPM */
static char * qgis_new_icon64x64_xpm[] = {
"64 64 427 2",
"  	c None",
". 	c #95BFDC",
"+ 	c #81B2D3",
"@ 	c #74A9CB",
"# 	c #6CA2C7",
"$ 	c #679DC3",
"% 	c #639BC1",
"& 	c #629AC0",
"* 	c #6199BF",
"= 	c #6299C0",
"- 	c #639AC0",
"; 	c #679DC2",
"> 	c #6CA0C4",
", 	c #74A7C8",
"' 	c #81AFCE",
") 	c #94BBD7",
"! 	c #83B4D6",
"~ 	c #69A2C8",
"{ 	c #5D97BF",
"] 	c #5A92B9",
"^ 	c #5B91B6",
"/ 	c #5A90B5",
"( 	c #598FB3",
"_ 	c #4F88AF",
": 	c #4884AC",
"< 	c #4380A9",
"[ 	c #4481AA",
"} 	c #4783AC",
"| 	c #4B86AD",
"1 	c #538BB1",
"2 	c #5B92B7",
"3 	c #5D94BA",
"4 	c #6A9EC1",
"5 	c #84AFCD",
"6 	c #85B6D8",
"7 	c #649DC6",
"8 	c #5A93BB",
"9 	c #4E88AF",
"0 	c #3A7AA5",
"a 	c #296F9E",
"b 	c #226A9B",
"c 	c #176396",
"d 	c #105E93",
"e 	c #115E93",
"f 	c #125F93",
"g 	c #236A9B",
"h 	c #2E72A0",
"i 	c #3B7AA6",
"j 	c #5B91B7",
"k 	c #6498BC",
"l 	c #88B1CC",
"m 	c #7AAFD4",
"n 	c #5D97C0",
"o 	c #5A90B6",
"p 	c #528AB0",
"q 	c #3677A3",
"r 	c #186396",
"s 	c #125F94",
"t 	c #1A6597",
"u 	c #3C7BA6",
"v 	c #578DB2",
"w 	c #5D92B7",
"x 	c #7DA8C6",
"y 	c #87B9DA",
"z 	c #5E98C1",
"A 	c #1D6799",
"B 	c #417FA9",
"C 	c #5A90B4",
"D 	c #5E92B6",
"E 	c #8AB0CA",
"F 	c #67A2CB",
"G 	c #5A91B7",
"H 	c #206899",
"I 	c #136094",
"J 	c #146094",
"K 	c #146194",
"L 	c #146195",
"M 	c #6898B9",
"N 	c #5E99C2",
"O 	c #598FB4",
"P 	c #3778A4",
"Q 	c #105D92",
"R 	c #166296",
"S 	c #166396",
"T 	c #186397",
"U 	c #156296",
"V 	c #3576A3",
"W 	c #5E91B4",
"X 	c #91BFDE",
"Y 	c #5C96BE",
"Z 	c #558CB2",
"` 	c #1E6798",
" .	c #196397",
"..	c #196497",
"+.	c #1A6497",
"@.	c #20689A",
"#.	c #5B90B3",
"$.	c #91B2C8",
"%.	c #5C95BC",
"&.	c #1C6699",
"*.	c #1B6699",
"=.	c #5B8FB3",
"-.	c #8EAFC6",
";.	c #176295",
">.	c #1E689A",
",.	c #1F689A",
"'.	c #1F699A",
").	c #20699A",
"!.	c #1B6698",
"~.	c #166295",
"{.	c #518AB0",
"].	c #5B8FB2",
"^.	c #21699A",
"/.	c #226A9C",
"(.	c #236A9C",
"_.	c #236B9C",
":.	c #21699B",
"<.	c #1E6899",
"[.	c #0E5C92",
"}.	c #0D5C92",
"|.	c #568DB3",
"1.	c #5B8EB0",
"2.	c #68A2CB",
"3.	c #286E9D",
"4.	c #176397",
"5.	c #1D6699",
"6.	c #1E679A",
"7.	c #256C9D",
"8.	c #256D9D",
"9.	c #266D9D",
"0.	c #0F5D93",
"a.	c #0E5D92",
"b.	c #6290B0",
"c.	c #86B8D9",
"d.	c #5A92B8",
"e.	c #3E7DA7",
"f.	c #286E9E",
"g.	c #296E9E",
"h.	c #2A6F9E",
"i.	c #2A6E9E",
"j.	c #286D9E",
"k.	c #256C9C",
"l.	c #136095",
"m.	c #105E94",
"n.	c #3A7AA6",
"o.	c #598EB3",
"p.	c #7B9FB8",
"q.	c #5D99C1",
"r.	c #2B709F",
"s.	c #2C70A0",
"t.	c #2C71A0",
"u.	c #2D71A0",
"v.	c #246B9C",
"w.	c #5A8CAE",
"x.	c #7BB0D4",
"y.	c #3376A3",
"z.	c #2F73A1",
"A.	c #2B70A0",
"B.	c #2B6F9F",
"C.	c #276D9E",
"D.	c #196498",
"E.	c #186497",
"F.	c #146196",
"G.	c #6F97B2",
"H.	c #5D98C1",
"I.	c #246B9D",
"J.	c #2F74A1",
"K.	c #3174A3",
"L.	c #3275A3",
"M.	c #3174A2",
"N.	c #3074A2",
"O.	c #296F9F",
"P.	c #1A6598",
"Q.	c #156195",
"R.	c #0F5D92",
"S.	c #598BAD",
"T.	c #89B9D9",
"U.	c #3879A5",
"V.	c #3476A3",
"W.	c #3577A4",
"X.	c #407EA9",
"Y.	c #3C7BA7",
"Z.	c #2C72A0",
"`.	c #115F94",
" +	c #0E5D93",
".+	c #3073A1",
"++	c #7A9DB5",
"@+	c #67A0C8",
"#+	c #1C6698",
"$+	c #3477A4",
"%+	c #3878A5",
"&+	c #3F7EA8",
"*+	c #4681AB",
"=+	c #4581AB",
"-+	c #3175A2",
";+	c #20699B",
">+	c #126095",
",+	c #5E8BAA",
"'+	c #5C95BD",
")+	c #528AB1",
"!+	c #3074A1",
"~+	c #3B7BA7",
"{+	c #427FA9",
"]+	c #4883AC",
"^+	c #3B7BA6",
"/+	c #3678A4",
"(+	c #216A9B",
"_+	c #156196",
":+	c #4682AB",
"<+	c #598CAE",
"[+	c #8FBCDB",
"}+	c #3C7CA7",
"|+	c #3D7CA7",
"1+	c #3E7CA8",
"2+	c #4582AB",
"3+	c #4B85AD",
"4+	c #4A84AC",
"5+	c #3E7DA8",
"6+	c #266C9D",
"7+	c #246C9C",
"8+	c #1B6598",
"9+	c #0F5E93",
"0+	c #7C9DB3",
"a+	c #74A9CE",
"b+	c #5B90B5",
"c+	c #276D9D",
"d+	c #3979A5",
"e+	c #3D7CA8",
"f+	c #407FA8",
"g+	c #4E87AF",
"h+	c #4E86AE",
"i+	c #407EA8",
"j+	c #3275A2",
"k+	c #2A6F9F",
"l+	c #246C9D",
"m+	c #668FAC",
"n+	c #659EC4",
"o+	c #3274A3",
"p+	c #4380AA",
"q+	c #4480AA",
"r+	c #5089B0",
"s+	c #2E72A1",
"t+	c #2A709F",
"u+	c #588EB3",
"v+	c #5A89A8",
"w+	c #125E93",
"x+	c #3375A3",
"y+	c #417FA8",
"z+	c #4280A9",
"A+	c #4580AA",
"B+	c #4782AB",
"C+	c #4783AB",
"D+	c #4E86AF",
"E+	c #2F72A1",
"F+	c #2D72A0",
"G+	c #588AAB",
"H+	c #5B94BB",
"I+	c #568CB2",
"J+	c #4A85AC",
"K+	c #3274A2",
"L+	c #146095",
"M+	c #598CAF",
"N+	c #5B92B9",
"O+	c #1E6799",
"P+	c #3F7DA8",
"Q+	c #4984AC",
"R+	c #4D87AE",
"S+	c #548AB1",
"T+	c #4883AB",
"U+	c #3777A4",
"V+	c #1D679A",
"W+	c #1A6498",
"X+	c #115E94",
"Y+	c #598EB1",
"Z+	c #90A8B9",
"`+	c #5C92B8",
" @	c #4F87AF",
".@	c #5D90B4",
"+@	c #5C90B4",
"@@	c #3F7CA7",
"#@	c #3577A3",
"$@	c #276E9E",
"%@	c #3778A5",
"&@	c #598EB2",
"*@	c #85A1B4",
"=@	c #95BEDA",
"-@	c #5C92B7",
";@	c #4580AB",
">@	c #4D86AE",
",@	c #5F92B5",
"'@	c #588DB3",
")@	c #3677A4",
"!@	c #176296",
"~@	c #7F9CB1",
"{@	c #93BCD9",
"]@	c #3D7BA6",
"^@	c #4C85AD",
"/@	c #5B90B4",
"(@	c #5E91B5",
"_@	c #6194B6",
":@	c #5189AE",
"<@	c #4882AB",
"[@	c #176297",
"}@	c #7E9CB0",
"|@	c #94BDD9",
"1@	c #5D91B5",
"2@	c #6093B6",
"3@	c #5D91B4",
"4@	c #4B85AC",
"5@	c #4A84AB",
"6@	c #7D9BB0",
"7@	c #9AC0DC",
"8@	c #437FA9",
"9@	c #3578A4",
"0@	c #3879A4",
"a@	c #3C7DA7",
"b@	c #4884AB",
"c@	c #4E87AE",
"d@	c #588EB2",
"e@	c #4E86AD",
"f@	c #4983AB",
"g@	c #3D7CA6",
"h@	c #3B7BA5",
"i@	c #3375A2",
"j@	c #3174A1",
"k@	c #819DB0",
"l@	c #3A79A5",
"m@	c #20689B",
"n@	c #8AA3B3",
"o@	c #5C94B9",
"p@	c #126094",
"q@	c #5C94BB",
"r@	c #135F93",
"s@	c #3475A3",
"t@	c #588AAC",
"u@	c #1F6899",
"v@	c #3073A2",
"w@	c #3A79A6",
"x@	c #5886A5",
"y@	c #72A4C6",
"z@	c #2C709F",
"A@	c #2B719F",
"B@	c #196598",
"C@	c #6189A5",
"D@	c #8DB6D3",
"E@	c #156095",
"F@	c #1D6698",
"G@	c #3C7AA6",
"H@	c #7192A8",
"I@	c #578EB3",
"J@	c #93A8B6",
"K@	c #669BBF",
"L@	c #166397",
"M@	c #5986A4",
"N@	c #8CB4D0",
"O@	c #5990B5",
"P@	c #2E73A1",
"Q@	c #6C8EA5",
"R@	c #548CB2",
"S@	c #80ABC9",
"T@	c #4D87AF",
"U@	c #2B71A0",
"V@	c #6188A1",
"W@	c #5F94B9",
"X@	c #91B5CF",
"Y@	c #678AA2",
"Z@	c #6C9CBD",
"`@	c #1B6599",
" #	c #5A87A5",
".#	c #5F93B7",
"+#	c #8AA0B0",
"@#	c #397AA6",
"##	c #598DB1",
"$#	c #728FA4",
"%#	c #5A8FB3",
"&#	c #98B7CD",
"*#	c #5C90B2",
"=#	c #6191B3",
"-#	c #749DB9",
";#	c #5A8EB2",
">#	c #97B6CB",
",#	c #6391B1",
"'#	c #94B0C4",
")#	c #6390B0",
"!#	c #4A85AD",
"~#	c #5989AA",
"{#	c #5E8DAD",
"]#	c #7199B3",
"^#	c #5C8BAC",
"/#	c #5987A6",
"(#	c #688DA6",
"_#	c #8BA2B2",
":#	c #7CA4BF",
"<#	c #95AEBE",
"[#	c #7C9EB5",
"}#	c #6791AE",
"|#	c #5C8AAA",
"1#	c #598CB0",
"2#	c #588BAD",
"3#	c #5988A8",
"4#	c #5C88A5",
"5#	c #678DA8",
"6#	c #7998AD",
"7#	c #7FA7C1",
"8#	c #7E9CB1",
"9#	c #95ADBD",
"0#	c #89A5B7",
"a#	c #829FB4",
"b#	c #7F9EB3",
"c#	c #7E9DB2",
"d#	c #829FB3",
"e#	c #8EA6B7",
"f#	c #83A9C3",
"g#	c #87A0B1",
"h#	c #86ACC5",
"i#	c #5887A6",
"j#	c #8BAFC7",
"k#	c #588CAE",
"l#	c #7A95A8",
"m#	c #90B2C8",
"n#	c #5B8EB1",
"o#	c #5988A9",
"p#	c #7793A7",
"q#	c #7198B4",
"r#	c #5D8BAA",
"s#	c #5887A7",
"t#	c #6C8FA6",
"                                                                                                                                ",
"                                                                                                                                ",
"                                                . + @ # $ % & * = - ; > , ' )                                                   ",
"                                        ! ~ { ] ^ / ( _ : < [ [ [ } | _ 1 / / 2 3 4 5                                           ",
"                                  6 7 8 / 9 0 a b c d d d d d e e d d d d f g h i _ / j k l                                     ",
"                              m n o p q r d d d e e e e e e e e s e e e e e e e d d t u v / w x                                 ",
"                          y z / | a d d d e e e s s s s s s s s s s s s s s s s e e e d d A B C D E                             ",
"                        F G p H d d d e e s s s s I I I J K L L L K K J I I I I s s s e e e d b _ C M                           ",
"                      N O P Q d d e e s s s I J L R R S c c c T r c c c S R U L J I I s s e e e e V ( W                         ",
"                  X Y Z ` d d e e s s I I L R c c  .....+.+.+.+.+.+.+.+.....T c S R K I I s s e e d @.Z #.$.                    ",
"                X %.p r d d e s s I I L R c ....+.&.&.&.A A A A A A A A &.&.*.+.....c R U I I s s e e ..Z =.-.                  ",
"                Y p ;.d e e s s I L R c ..+.&.&.A >.,.'.).).).).).).).).'.,.>.A &.!.+...c R K I s s e e ~.{.].                  ",
"              N v r d e e s s J R c ..+.&.A A '.).^././.(._._._._._.(.(././.:.).,.<.&.&.+. .c U s d [.}.}.c |.1.                ",
"            2./ 3.d e e s I K R 4...&.5.6.'.)./.(._.7.8.9.9.9.9.9.9.9.9.7.7._.(./.).'.<.&.*.c f 0.a.}.}.}.}._.( b.              ",
"          c.d.e.d e e s I L S  .+.&.A '.)./._.7.9.9.f.g.g.g.g.h.h.i.g.g.f.j.9.9.k.(./.).5.~.l.s m.0.[.}.}.}.}.n.o.p.            ",
"          q.Z J d e s I L c  .+.&.6.)./.(.7.9.j.g.g.r.s.t.t.u.u.u.u.t.s.s.r.g.g.j.9.v.5.c R L l.s m.0.a.}.}.}.d 1 w.            ",
"        x.^ y.d e s s K S ..t &.,.)./._.9.j.g.h.s.t.h z.z.z.z.z.z.z.z.z.z.h t.A.B.C.A D.E.4.R F.l.s m.0.[.}.}.}.t.( G.          ",
"        H.Z J e s s J R  .+.&.,.)./.I.9.f.h.s.u.z.z.J.K.K.L.L.L.L.L.L.K.M.N.z.h O.6.&.*.P.E.4.R Q.l.s m.0.}.}.}.R.1 S.          ",
"      T.2 U.d e s I R 4.+.&.,.).(.7.9.g.h.t.h z.M.K.L.V.W.W.U.X.Y.W.W.W.V.L.K.Z.:.,.>.A *.P...4.R L l.`.d  +}.}.}..+o.++        ",
"      @+C #+e s s K c ..&.A )./.I.9.g.A.u.z.J.K.L.$+W.P %+U.&+*+=+U.%+%+P W.-+_./.:.;+>.A *.P...4.U L >+`.0.a.}.}.L O ,+        ",
"      '+)+d e s I R ..P.A './.v.9.g.r.u.z.!+L.$+W.P U.n.~+Y.{+]+} Y.~+^+n./+9.7.v._.(+;+>.A *.P.E.4._+l.s d 0.}.}.}.:+<+        ",
"    [+2 n.e s s L c +.&.,.)._.9.f.h.u.z.M.L.W.P U.n.Y.}+|+1+2+3+4+5+1+|+Y.A.f.C.6+7+_.(+;+>.5.8+D.T R L l.`.9+a.}.}.z.o.0+      ",
"    a+b+f.e s I R  .P.A )./.7.c+g.t.z.J.L.W.P d+~+Y.e+5+f+B } g+h+B B i+j+r.k+g.C.9.l+(.(+,.6.&.P...4.U l.s m.0.}.}.#+O m+      ",
"    n+b++.e s J c ..&.,.)._.9.g.A.u.z.o+$+P d+~+|+5+f+{+p+q+| r+_ =+q+u s+u.t.t+a C.7.v./.;+,.A *.D.T R L l.`.0.}.}.[.u+v+      ",
"    { O w+s I L 4.+.5.'./.I.c+g.t.z.M.x+W.U.^+}+5+y+z+A+B+C+D+1 p } [ M..+E+F+t.k+g.C.7._.(+).6.&.P...4._+l.`.d a.}.}.9 G+      ",
"    H+_ e s I R  .t A ).(.9.f.r.u.z.L.W.P n.Y.5+y+z+=+C+]+4+r+|.I+J+i x+K+M.E+u.r.k+f.9.7+/.;+,.A 8+D.4.U L+s d  +}.}.p+M+      ",
"    N+} e s J S ..&.O+)._.9.g.s.E+!+L.W.U.~+|+P+z+=+C+Q+3+R+S+O u+T+U+W.V.K+.+s+u.r.a C.7._.:.,.V+*.W+T R L >+X+0.}.}.}+Y+Z+    ",
"    `+z+e s J c ..&.,.(+v.9.g.t.z.K.V./+d+Y.5+y+q+B+: 3+R+ @I+.@+@@@U.P #@x+M.z.F+A.O.$@7._.b ;+6.&.P.E.R F.l.`.0.}.}.%@&@*@    ",
"  =@-@e.e s K c ..&.,./.v.c+h.t.z.K.$+P n.}+5+B ;@C+4+>@ @r+( ,@'@u 0 %+)@V.j+.+s+t.k+f.9.v.b ;+>.&.P.E.!@_+l.`.0.[.}.j+o.~@    ",
"  {@-@]@e s L c +.&.'./.7.c+h.u.z.d+{+q+B+4+^@g+r+1 I+u+/@(@,@_@:@4+<@:+q+{+i+e+Y.n.%+)@M.7+/.;+>.&.P.E.[@_+l.`.9+[.}.M.o.}@    ",
"  |@-@P+e s K c +.&.'./.7.c+h.u.z.n.B ;@B+4+^@g+r+1 I+u+/@1@2@3@4@5@<@:+[ {+&+|+Y.n.%+)@j+v./.;+>.&.P.E.4._+l.`.9+[.}.x+o.6@    ",
"  7@-@8@e s K c ..&.,./.v.c+i.u.z.K.9@0@^+a@&+z+2+b@J+c@_ {.d@e@f@g@h@d+P #@i@j@z.F+r.a 9.v./.;+6.&.P.E.R _+l.`.9+}.}.%@o.k@    ",
"    `+} e s J S ..&.,.(+v.9.g.t.z.K.V.P d+Y.5+y+q+B+Q+3+R+c@B+<@:+l@%+P V x+M.z.u.r.O.$@7._.b m@6.&.P.E.R F.l.`.0.}.}.}+Y+n@    ",
"    o@)+e s J S ..&.6.)._.9.g.s.z.N.L.W.%+~+|+i+{+=+C+Q+B+0 @@=+q+P )@V V.K+.+s+t.r.g.C.7._.(+,.A *.P.T R L p@X+0.}.}.[ M+      ",
"    q@C r@s I R  .P.A ).(.7.f.r.u.z.L.W.P n.Y.5+y+p+X.0@s@V Y.p+{+W.V.x+K+N.E+u.r.k+f.9.v./.;+,.A 8+D.4.U L s m. +}.}._ t@      ",
"    - b+u@s I L 4.+.5.'./.7.j.g.t.z.K.V.W.%+^+d+W..+z.v@K+j+w@X.P+x+j+M.v@E+u.s.k+f.C.7._.(+).6.&.P.E.[@_+l.`.d a.}.R.u+x@      ",
"    y@b+K+s s K c ..&.,.)._.9.g.A.z@t.s.A@a f.O.r.t.F+s+z.v@U.5+|+M..+z.s+u.s.k+g.C.6+v./.;+,.A *.B@T R L l.`.9+}.}.5.O C@      ",
"    D@/ :+R.d d s E@R r +.P.&.F@5.>.;+(+_.l+9.$@a t+r.t.u.s+W.Y.G@s+h u.t.r.k+g.C.6+v.(.:.,.6.&.P...4.U L+s m. +}.}..+o.H@      ",
"      d.I@d }.}. +d `.l._+!@E.P.*.A >.;+b _.l+9.C.f.O.k+r.s.y.n.d+t.A.r.k+O.f.C.7.l+_.(+;+>.5.8+D.T R L l.`.9+a.}.}.} M+J@      ",
"      K@O t.}.}.}.0.`.s L U 4...P.&.A ,.;+b _.I.7.9.$@f.a O.M.%+%@k+O.a f.C.9.7.v./.(+;+>.A *.P.E.L@_+l.s d 0.}.}.s u+M@        ",
"      N@O@9 }.}.}. +d `.l.L R 4.D.P.&.A >.;+(+/._.l+7.9.C.C.P@)@W.$@C.9.9.7.I._./.:.,.>.A *.P...4.U L >+`.9+[.}.}.j+o.Q@        ",
"        3 O _.}.}.}.0.d s l._+R T D.P.&.A >.,.;+(+/._.v.7.7.t.x+L.7.7.l+v._./.(+;+,.6.A *.P...4.R L l.`.d  +}.}.R.R@t@          ",
"        S@O@T@[.}.}.[.0.m.s l._+R 4.D.P.*.&.6.,.;+;+(+/./._.7+U@$@_._./.b :.;+,.>.V+&.!.P.E.4.R L l.s m.0.}.}.}..+( V@          ",
"          W@O s+}.}.}.a.9+`.s l._+R 4.E.P.8+&.A 6.>.,.;+;+:.:.:.:.:.;+;+,.,.>.V+&.*.P.D.E.4.R F.l.s m.0.[.}.}.s |.t@            ",
"          X@O@|.Q.}.}.}. +9+X+s l.L R 4.T D.P.8+&.&.A 6.6.>.,.,.,.,.>.6.V+A &.*.8+P...T [@U L l.s m.0.[.}.}.}.X.o.Y@            ",
"            Z@O T@R.}.}.}. +9+X+s l.L _+R 4.E...P.P.`@*.&.&.&.5.A &.&.&.*.8+P.W+..T 4.R _+L l.`.d 0.[.}.}.}.t.O  #              ",
"              .#O P+}.}.}.}.a.0.d `.>+l.F.U R 4.T E.D.D.P.P.P.P.P.P.P.P.D.D.E.T 4.R _+L l.s `.d 0.[.}.}.}.8+I@t@+#              ",
"                /@O @#}.}.}.}.[.0.d `.s l.l.L U R R 4.4.T T T E.E.E.T T 4.4.R R _+L l.>+`.m.9+ +}.}.}.}.}.=+##$#                ",
"                  %#O ~+}.}.}.}.}.a.0.d `.s >+l.L F._+U R R R R R R R R U _+L L l.>+`.X+d 0.a.}.}.}.}.}.}.)+M+                  ",
"                  &#%#O {+R.}.}.}.}.}. +0.d X+`.s >+l.l.L L L L L L L L+l.l.>+s `.m.d 0.a.}.}.}.}.}.}.}.}.k+O ].                ",
"                      *#( )+E.}.}.}.}.}.}. +0.9+d m.`.`.s s s s s s s `.`.`.m.d 0.0. +}.}.}.}.}.}.}.}.}.}.}.M.O ].              ",
"                        =#( |.g.[.}.}.}.}.}.}.[. +0.0.9+d d d d d d d d 9+0. +a.}.}.}.}.}.}.}.}.}.}.}.}.}.}.}.u.O ].            ",
"                          -#Y+( r+7+}.}.}.}.}.}.}.}.}.}.[.a.a.a.a.a.a.[.}.}.}.}.}.}.}.}.}.}.}.}.}.}.}.}.}.}.}.}.t.O ;#>#        ",
"                              ,#&@O )+.+s }.}.}.}.}.}.}.}.}.}.}.}.}.}.}.}.}.}.}.}.}.I u.: u+9 ,.}.}.}.}.}.}.}.}.}.g.O ;#        ",
"                                '#)###( O } x+9.8+}.}.}.}.}.}.}.}.}.}.}.}.}.R f.%@!#O ( ##~#o.u+7.}.}.}.}.}.}.}.}.}.u.O {#      ",
"                                      ]#^###( O O u+9 [ 5+@#/+%@U.n.P+:+_ I@O O o.M+/#(#_#  :#( u+9.}.}.}.}.}.}.}.}.}.: ##<#    ",
"                                            [#}#|#t@1#&@o.o.o.o.o.o.&@##2#3#4#5#6#            7#o.O g.}.}.}.}.}.}.}.}.j+o.8#    ",
"                                                      9#0#a#b#c#d#*@e#                          f#( O r.}.}.}.}.}.}.}.5+Y+g#    ",
"                                                                                                  h#( O s+}.}.}.}.}.O+u+i#      ",
"                                                                                                    j#( O n.R }.Q.V.u+k#l#      ",
"                                                                                                      m#n#( O u+O ( o#p#        ",
"                                                                                                          q#r#s#4#t#            ",
"                                                                                                                                ",
"                                                                                                                                "};
