/* XPM */
static char *qgis_icon[] = {
/* columns rows colors chars-per-pixel */
"32 32 132 2",
"   c #070C05",
".  c #0B2605",
"X  c #072E01",
"o  c #0A2F04",
"O  c #063300",
"+  c #083602",
"@  c #1F3E11",
"#  c #203115",
"$  c #0A4301",
"%  c #094A00",
"&  c #1A4A0D",
"*  c #095100",
"=  c #0A5B00",
"-  c #1C550D",
";  c #1E4810",
":  c #31431F",
">  c #0B6300",
",  c #0C6A00",
"<  c #156707",
"1  c #1C660B",
"2  c #1A6A09",
"3  c #0E7400",
"4  c #0F7B00",
"5  c #147605",
"6  c #147A04",
"7  c #187D07",
"8  c #20720F",
"9  c #266614",
"0  c #267B11",
"q  c #327A1A",
"w  c #364E21",
"e  c #44472C",
"r  c #505334",
"t  c #555837",
"y  c #5C5F3C",
"u  c #426E26",
"i  c #427F26",
"p  c #47722B",
"a  c #646740",
"s  c #6C6F48",
"d  c #717549",
"f  c #74794A",
"g  c #797E4E",
"h  c #7B7E51",
"j  c #7C7E5B",
"k  c #0F8001",
"l  c #118401",
"z  c #118A01",
"x  c #1A8C07",
"c  c #1C8109",
"v  c #1C8B09",
"b  c #2D8E15",
"n  c #2F9315",
"m  c #549431",
"M  c #67903F",
"N  c #53A62F",
"B  c #60A738",
"V  c #6A8F41",
"C  c #728D47",
"Z  c #78914F",
"A  c #7E8251",
"S  c #7DAD57",
"D  c #7CB255",
"F  c #808352",
"G  c #858A56",
"H  c #91975E",
"J  c #959D5F",
"K  c #83AD51",
"L  c #90A75C",
"P  c #94A85E",
"I  c #969A60",
"U  c #9EA266",
"Y  c #95A866",
"T  c #9BAC62",
"R  c #A2AA69",
"E  c #A1B866",
"W  c #A6B36A",
"Q  c #ACB26F",
"!  c #A9AD73",
"~  c #ACB672",
"^  c #B1B477",
"/  c #B7BE77",
"(  c #B8BE76",
")  c #B9BF79",
"_  c #B9C476",
"`  c #BCC47A",
"'  c #BCCD79",
"]  c #C3CB7D",
"[  c #BCBF86",
"{  c #B9C887",
"}  c #BEC98B",
"|  c #C1C483",
" . c #C7CE80",
".. c #C8CF80",
"X. c #C4CA8D",
"o. c #CCD383",
"O. c #C7DC80",
"+. c #D0D786",
"@. c #D2DB87",
"#. c #D2D788",
"$. c #D4DC88",
"%. c #C6C792",
"&. c #D1D396",
"*. c #D9DE93",
"=. c #DCDE9B",
"-. c #DCE38D",
";. c #DEE491",
":. c #DEE19B",
">. c #E4EC93",
",. c #E4E69D",
"<. c #E7E89E",
"1. c #E8E99C",
"2. c #EAF296",
"3. c #EDF599",
"4. c #F1F69D",
"5. c #F5F99F",
"6. c #D5D6A0",
"7. c #DADBA2",
"8. c #ECEEA1",
"9. c #E2E4AD",
"0. c #EEF2A3",
"q. c #F2F7A3",
"w. c #F5F9A3",
"e. c #FAFCA4",
"r. c #F2F5AB",
"t. c #F7FBAA",
"y. c #F9FAAC",
"u. c #F9FCB1",
"i. c #F3F4BA",
"p. c #FAFBBB",
"a. c #FCFCC4",
"s. c None",
/* pixels */
"s.s.s.s.s.s.s.s.s.s.s.s.s.s.s.s.s.s.s.s.s.s.s.s.s.l s.s.s.s.s.s.",
"s.s.s.s.s.s.s.s.s.s.s.s.s.s.s.s.s.s.s.s.s.s.s.z z 4 s.s.s.s.s.s.",
"s.s.s.s.s.s.s.s.s.s.s.s.s.s.s.s.s.s.s.s.s.s.z z z 3 s.s.s.s.s.s.",
"s.s.s.s.s.s.s.s.s.s.s.s.s.s.s.s.s.s.s.4 z z z 4 3 = s.s.s.s.s.s.",
"s.s.s.s.s.s.s.s.s.s.s.s.s.s.s.s.s.s.s.s.< , 4 3 , * s.s.s.s.s.s.",
"s.s.s.s.s.s.s.s.s.s.s.s.s.9.6.%.&.=.:.Z 9 = 3 , > % s.s.s.s.s.s.",
"s.s.s.s.s.s.s.s.s.s.a.p.u.! h s.s.` ;.O.N l 4 > * O s.s.s.s.s.s.",
"s.s.s.s.s.s.s.s.s.a.u.0.;.s s.s.s.s.' B n l 1 $ X s.s.s.s.s.s.s.",
"s.s.s.s.s.s.s.s.p.p.w.>.o.e s.s.s.s.K n v c u w s.s.s.s.s.s.s.s.",
"s.s.s.s.s.s.s.a.p.w.3.$.Q s.s.s.s.s.5 z 7 q J H s.s.s.s.s.s.s.s.",
"s.s.s.s.s.s.s.u.t.3.2.o.H s.s.s.s.l l l i C o.o.` s.s.s.s.s.s.s.",
"s.s.s.s.s.s.p.y.w.3.2.o.G s.s.s.s.l l 0 M T >.-. .s.s.s.s.s.s.s.",
"s.s.s.s.s.s.p.w.4.3.2...g s.s.s.4 l x p T o.3.>.+.s.s.s.s.s.s.s.",
"s.s.s.s.s.s.u.4.3.3.2...d s.s.3 z 3 2 U o.>.3.2.@.A s.s.s.s.s.s.",
"s.s.s.s.s.s.y.4.3.3.2...d s.s.k l , - | ;.3.3.2.@.G s.s.s.s.s.s.",
"s.s.s.s.s.s.e.4.3.3.2...d s.6 z 4 * # 1.3.3.3.2.$.G s.s.s.s.s.s.",
"s.s.s.s.s.s.w.3.3.3.2.] f 5 l x + s.s.y.4.3.3.2.o.d s.s.s.s.s.s.",
"s.s.s.s.s.s.4.3.3.3.2.@.R S D D Y ~ s.y.4.3.3.>...y s.s.s.s.s.s.",
"s.s.s.s.s.s.2.2.3.3.2.-.` { } X.,.<.8.y.q.3.3.-.` e s.s.s.s.s.s.",
"s.s.s.s.s.s.s.>.3.3.3.@.W & o   I #.5.w.3.3.2.] U s.s.s.s.s.s.s.",
"s.s.s.s.s.s.s.-.>.2.2.-._ @ . s.s.>.5.3.3.2.-.U f s.s.s.s.s.s.s.",
"s.s.s.s.s.s.s.] @.>.2.-.o.: s.s.s.4.w.3.2.>.o.A s.s.s.s.s.s.s.s.",
"s.s.s.s.s.s.s.s.L o.>.>.>.A s.s.s.w.w.3.>.o.g s.s.s.s.s.s.s.s.s.",
"s.s.s.s.s.s.z x b m E ] -.] / s.s.q.w.3.o.~ s.s.s.s.s.s.s.s.s.s.",
"s.s.s.s.s.s.4 4 6 8 V P ] ] ) s.7.8.w.3.o.Q s.s.s.s.s.s.s.s.s.s.",
"s.s.s.s.s.s.$ $ % = % ; t G U ^ [ *.4.3.-.] s.s.s.i.j s.s.s.s.s.",
"s.s.s.s.s.s.s.s.s.= $ s.s.s.s.s.s.-.3.3.>.>.3.r.:.! s.s.s.s.s.s.",
"s.s.s.s.s.s.s.s.s.> $ s.s.s.s.s.s.+.-.>.>.>.3.*.| h s.s.s.s.s.s.",
"s.s.s.s.s.s.s.s.s.> s.s.s.s.s.s.s.s.( $.-.-.$.R F s.s.s.s.s.s.s.",
"s.s.s.s.s.s.s.s.s.s.s.s.s.s.s.s.s.s.s.s.a a r s.s.s.s.s.s.s.s.s.",
"s.s.s.s.s.s.s.s.s.s.s.s.s.s.s.s.s.s.s.s.s.s.s.s.s.s.s.s.s.s.s.s.",
"s.s.s.s.s.s.s.s.s.s.s.s.s.s.s.s.s.s.s.s.s.s.s.s.s.s.s.s.s.s.s.s."
};
