/* XPM */
static const char * icon_spit[] = {
"64 64 672 2",
"  	c None",
". 	c #96AF6C",
"+ 	c #87B064",
"@ 	c #489025",
"# 	c #406328",
"$ 	c #9A9B98",
"% 	c #CECECE",
"& 	c #858C63",
"* 	c #4B7C22",
"= 	c #468E20",
"- 	c #3C911B",
"; 	c #2F8B10",
"> 	c #1E8506",
", 	c #137E01",
"' 	c #126002",
") 	c #515A49",
"! 	c #737373",
"~ 	c #CBCBCB",
"{ 	c #BABBB7",
"] 	c #5F6D50",
"^ 	c #1C6906",
"/ 	c #0E7800",
"( 	c #0E7700",
"_ 	c #0E7600",
": 	c #0E7400",
"< 	c #235114",
"[ 	c #636360",
"} 	c #969696",
"| 	c #9CAD87",
"1 	c #257A0A",
"2 	c #0F6C00",
"3 	c #405434",
"4 	c #6F6E6E",
"5 	c #C3C3C3",
"6 	c #B1B4BF",
"7 	c #8990A3",
"8 	c #7985A1",
"9 	c #808FAB",
"0 	c #9BADC3",
"a 	c #C3D7E4",
"b 	c #D4E4E8",
"c 	c #A3C087",
"d 	c #2F8F15",
"e 	c #107B00",
"f 	c #126202",
"g 	c #575F4F",
"h 	c #838383",
"i 	c #C0CAC6",
"j 	c #869193",
"k 	c #5F6B73",
"l 	c #475663",
"m 	c #475971",
"n 	c #6C83A7",
"o 	c #657FA4",
"p 	c #617E9C",
"q 	c #6988A0",
"r 	c #7796A5",
"s 	c #A4BDC7",
"t 	c #CBD8D3",
"u 	c #8AB065",
"v 	c #29890D",
"w 	c #0F7B00",
"x 	c #0E6D00",
"y 	c #125401",
"z 	c #116701",
"A 	c #1A5A0A",
"B 	c #61625B",
"C 	c #9D9D9D",
"D 	c #BACBBF",
"E 	c #73877C",
"F 	c #5C756D",
"G 	c #446260",
"H 	c #335359",
"I 	c #436470",
"J 	c #5C809A",
"K 	c #698FBB",
"L 	c #6B94C2",
"M 	c #6B95BE",
"N 	c #6590B2",
"O 	c #6089A3",
"P 	c #658797",
"Q 	c #629051",
"R 	c #208706",
"S 	c #0F7A00",
"T 	c #0E6900",
"U 	c #173F0C",
"V 	c #555A4E",
"W 	c #3A5F27",
"X 	c #2A5417",
"Y 	c #6C6C69",
"Z 	c #B5B5B5",
"` 	c #BCD1C3",
" .	c #627F6E",
"..	c #274C3C",
"+.	c #3E6A5E",
"@.	c #4B7C77",
"#.	c #3D7174",
"$.	c #4A7F89",
"%.	c #679CB7",
"&.	c #679DCF",
"*.	c #639AD1",
"=.	c #6098CA",
"-.	c #6097C4",
";.	c #6595B2",
">.	c #4C8D51",
",.	c #1C8109",
"'.	c #0F7901",
").	c #0D6500",
"!.	c #1B3E11",
"~.	c #5A5C57",
"{.	c #646363",
"].	c #747A67",
"^.	c #475431",
"/.	c #71716F",
"(.	c #C9C9C9",
"_.	c #789482",
":.	c #39634E",
"<.	c #3F745E",
"[.	c #357261",
"}.	c #34766D",
"|.	c #418584",
"1.	c #3F848B",
"2.	c #3D809A",
"3.	c #5A9BD0",
"4.	c #5C9CD8",
"5.	c #5B9CD7",
"6.	c #609ABC",
"7.	c #459349",
"8.	c #188304",
"9.	c #0E7900",
"0.	c #0E6100",
"a.	c #1D3A0F",
"b.	c #545651",
"c.	c #676767",
"d.	c #A4A4A4",
"e.	c #C2C1BD",
"f.	c #838179",
"g.	c #828282",
"h.	c #9BADA3",
"i.	c #759886",
"j.	c #6EA28A",
"k.	c #71B499",
"l.	c #47917A",
"m.	c #368474",
"n.	c #64B3AB",
"o.	c #64B1B2",
"p.	c #3D869D",
"q.	c #5AA0D4",
"r.	c #5EA3DF",
"s.	c #5C9DC0",
"t.	c #3D903A",
"u.	c #148202",
"v.	c #0D5D00",
"w.	c #253D16",
"x.	c #6C7870",
"y.	c #818689",
"z.	c #A5A5A5",
"A.	c #C2C2C2",
"B.	c #B9B9B9",
"C.	c #C9D1D3",
"D.	c #637974",
"E.	c #537E6D",
"F.	c #7DBAA0",
"G.	c #78C3A5",
"H.	c #69BB9F",
"I.	c #65BAA2",
"J.	c #7DD0BF",
"K.	c #6FBEB6",
"L.	c #4A92A1",
"M.	c #63A7D3",
"N.	c #67A6B0",
"O.	c #338F29",
"P.	c #128001",
"Q.	c #0F7900",
"R.	c #0E7500",
"S.	c #0E5601",
"T.	c #2B4124",
"U.	c #607677",
"V.	c #5D788F",
"W.	c #98A8B4",
"X.	c #B4B5B6",
"Y.	c #A5AAB7",
"Z.	c #698284",
"`.	c #3E6D60",
" +	c #70B299",
".+	c #75C4A4",
"++	c #7AD0AF",
"@+	c #7FD4B6",
"#+	c #84D5BD",
"$+	c #7DC8B7",
"%+	c #65A8AB",
"&+	c #639E8E",
"*+	c #319426",
"=+	c #0E4F02",
"-+	c #304437",
";+	c #5E81A1",
">+	c #5D89B0",
",+	c #4C7390",
"'+	c #748D9E",
")+	c #ABAFB2",
"!+	c #838A9F",
"~+	c #668089",
"{+	c #4C7D75",
"]+	c #73B8A0",
"^+	c #74C6A4",
"/+	c #7DD4AF",
"(+	c #82D4B1",
"_+	c #89D5B6",
":+	c #97DAC2",
"<+	c #83C094",
"[+	c #37981E",
"}+	c #178406",
"|+	c #117B02",
"1+	c #0F7300",
"2+	c #104B04",
"3+	c #424F44",
"4+	c #5782B1",
"5+	c #568EC6",
"6+	c #578BB7",
"7+	c #5181A2",
"8+	c #5C7D90",
"9+	c #AFB6BA",
"0+	c #BDBDBD",
"a+	c #8089A6",
"b+	c #5A7785",
"c+	c #467A75",
"d+	c #7BC2AC",
"e+	c #78CAA8",
"f+	c #81D6AF",
"g+	c #8DDCB5",
"h+	c #9DE2BF",
"i+	c #A3DEC0",
"j+	c #84BF9B",
"k+	c #34992A",
"l+	c #1B860C",
"m+	c #137304",
"n+	c #134407",
"o+	c #485652",
"p+	c #7298C2",
"q+	c #528CCF",
"r+	c #548ECA",
"s+	c #5189BB",
"t+	c #578BB3",
"u+	c #4E7289",
"v+	c #A1AAAF",
"w+	c #A8A8A8",
"x+	c #BBC1D4",
"y+	c #6F829C",
"z+	c #6A8F9D",
"A+	c #336C69",
"B+	c #62AC9A",
"C+	c #7ACAAF",
"D+	c #80D0AF",
"E+	c #99E2BE",
"F+	c #A8E4C2",
"G+	c #90C2A4",
"H+	c #80A6A0",
"I+	c #75AD99",
"J+	c #2A8323",
"K+	c #1C4911",
"L+	c #55615E",
"M+	c #6E95BC",
"N+	c #6097D1",
"O+	c #568CCB",
"P+	c #5589C9",
"Q+	c #5583C6",
"R+	c #5D88CA",
"S+	c #4A6693",
"T+	c #969CA7",
"U+	c #929293",
"V+	c #BDC8D6",
"W+	c #59758A",
"X+	c #67939E",
"Y+	c #498686",
"Z+	c #3E887E",
"`+	c #6BB9A7",
" @	c #88D3BD",
".@	c #92D4BA",
"+@	c #88BCA3",
"@@	c #729B83",
"#@	c #769599",
"$@	c #A0BBE8",
"%@	c #688891",
"&@	c #677579",
"*@	c #81A6C1",
"=@	c #6EA1C1",
"-@	c #5B90B4",
";@	c #6092BF",
">@	c #608DC8",
",@	c #587DC7",
"'@	c #5E7DD1",
")@	c #5467A6",
"!@	c #9BA0AE",
"~@	c #8D8D8D",
"{@	c #BAC9DC",
"]@	c #6A859B",
"^@	c #65909D",
"/@	c #629CA1",
"(@	c #3D8280",
"_@	c #468F88",
":@	c #7AC1B8",
"<@	c #88C5BB",
"[@	c #7CACA5",
"}@	c #84A9A3",
"|@	c #88A7B0",
"1@	c #8BAACB",
"2@	c #7A9CBB",
"3@	c #6E97A9",
"4@	c #5A8E98",
"5@	c #4A8387",
"6@	c #346F75",
"7@	c #376E7F",
"8@	c #457694",
"9@	c #4E77A6",
"0@	c #5D7EBB",
"a@	c #5A6E9E",
"b@	c #9FA4AF",
"c@	c #8B8B8B",
"d@	c #7E96AC",
"e@	c #628899",
"f@	c #6195A1",
"g@	c #55939B",
"h@	c #45878F",
"i@	c #52919A",
"j@	c #6CA3AF",
"k@	c #6A96A6",
"l@	c #65889B",
"m@	c #6A8B9E",
"n@	c #628897",
"o@	c #709CA2",
"p@	c #79ADA7",
"q@	c #64A08E",
"r@	c #56987E",
"s@	c #4F9179",
"t@	c #3E7D6D",
"u@	c #376F6D",
"v@	c #3D6E7C",
"w@	c #507793",
"x@	c #536C85",
"y@	c #989EA4",
"z@	c #939393",
"A@	c #8699AD",
"B@	c #5A788D",
"C@	c #6994A7",
"D@	c #5E92A5",
"E@	c #679EB6",
"F@	c #5A90AB",
"G@	c #5E8FB0",
"H@	c #5D85AD",
"I@	c #5979A5",
"J@	c #6689A8",
"K@	c #5E8990",
"L@	c #6C9F96",
"M@	c #85BEA9",
"N@	c #77B895",
"O@	c #6CB287",
"P@	c #6CB386",
"Q@	c #68AB85",
"R@	c #508C73",
"S@	c #295B51",
"T@	c #3E696C",
"U@	c #688289",
"V@	c #878C8E",
"W@	c #A1A1A1",
"X@	c #878787",
"Y@	c #727272",
"Z@	c #797979",
"`@	c #8C8C8C",
" #	c #707070",
".#	c #929292",
"+#	c #DEDEDE",
"@#	c #B8C4D1",
"##	c #647B8F",
"$#	c #6B8BA3",
"%#	c #5F88A4",
"&#	c #618EB1",
"*#	c #6B98C2",
"=#	c #6C96C7",
"-#	c #6F92CC",
";#	c #7C9BDA",
">#	c #7FA3D0",
",#	c #6996A3",
"'#	c #4D827D",
")#	c #609B87",
"!#	c #6AAB89",
"~#	c #68AE82",
"{#	c #69B080",
"]#	c #67A77D",
"^#	c #528B6B",
"/#	c #30614E",
"(#	c #4D7570",
"_#	c #7A9292",
":#	c #717474",
"<#	c #B8B8B8",
"[#	c #8E8E8E",
"}#	c #6B6B6B",
"|#	c #686868",
"1#	c #A9A9A9",
"2#	c #888888",
"3#	c #636363",
"4#	c #919191",
"5#	c #B2B2B2",
"6#	c #BEBEBE",
"7#	c #7C7C7C",
"8#	c #D3D3D3",
"9#	c #B8CDB1",
"0#	c #8294A2",
"a#	c #667D95",
"b#	c #62809F",
"c#	c #5D80A7",
"d#	c #5F84B5",
"e#	c #6287C0",
"f#	c #6A8CCD",
"g#	c #6F90D6",
"h#	c #6D90CA",
"i#	c #6995B1",
"j#	c #4D7F8B",
"k#	c #366D6A",
"l#	c #4C8977",
"m#	c #65A585",
"n#	c #6CAC87",
"o#	c #619B7A",
"p#	c #41725A",
"q#	c #3A6155",
"r#	c #5E7D7D",
"s#	c #7A898B",
"t#	c #838484",
"u#	c #858585",
"v#	c #AEAEAE",
"w#	c #A7A7A7",
"x#	c #747474",
"y#	c #7B7B7B",
"z#	c #949494",
"A#	c #6C6C6C",
"B#	c #7E7E7E",
"C#	c #B3B3B3",
"D#	c #BBBBBB",
"E#	c #979797",
"F#	c #BACD9F",
"G#	c #A0BB7A",
"H#	c #6B9D39",
"I#	c #59A034",
"J#	c #288E0F",
"K#	c #619A67",
"L#	c #667788",
"M#	c #607691",
"N#	c #6681A6",
"O#	c #5F7EAC",
"P#	c #5C7DB3",
"Q#	c #5C7EBC",
"R#	c #6183C6",
"S#	c #6486C5",
"T#	c #6085B4",
"U#	c #5983A4",
"V#	c #427282",
"W#	c #3B6F6E",
"X#	c #5D9485",
"Y#	c #6A9F8A",
"Z#	c #54846F",
"`#	c #365B4F",
" $	c #496363",
".$	c #74848C",
"+$	c #696C6E",
"@$	c #AFAFAF",
"#$	c #767676",
"$$	c #BFBFBF",
"%$	c #C0C0C0",
"&$	c #9C9C9C",
"*$	c #8A8A8A",
"=$	c #ABABAB",
"-$	c #5A733A",
";$	c #25710A",
">$	c #1C7E03",
",$	c #158101",
"'$	c #107F00",
")$	c #0F7C00",
"!$	c #187F0A",
"~$	c #5B8864",
"{$	c #5B6B7D",
"]$	c #566B88",
"^$	c #5E789C",
"/$	c #607EAA",
"($	c #5A7DB0",
"_$	c #587EB5",
":$	c #5A7DB7",
"<$	c #5C7BB4",
"[$	c #6181B1",
"}$	c #4A708E",
"|$	c #3A646F",
"1$	c #527F7B",
"2$	c #4D776B",
"3$	c #34574B",
"4$	c #39524D",
"5$	c #7A888D",
"6$	c #6A6D71",
"7$	c #9E9E9E",
"8$	c #808080",
"9$	c #606060",
"0$	c #B0B0AE",
"a$	c #5F6959",
"b$	c #334F29",
"c$	c #1E4F12",
"d$	c #136802",
"e$	c #0F7700",
"f$	c #1D4D11",
"g$	c #727A7E",
"h$	c #687889",
"i$	c #586F88",
"j$	c #567593",
"k$	c #53799C",
"l$	c #4F79A0",
"m$	c #5175A5",
"n$	c #617AB5",
"o$	c #566FA2",
"p$	c #2D4B6C",
"q$	c #335662",
"r$	c #3B5F5C",
"s$	c #305144",
"t$	c #506A5C",
"u$	c #727F78",
"v$	c #6A6D6E",
"w$	c #D0D0D0",
"x$	c #B4B4B4",
"y$	c #C1C1C1",
"z$	c #5F5F5F",
"A$	c #7A7A78",
"B$	c #47692F",
"C$	c #107900",
"D$	c #116501",
"E$	c #4B5543",
"F$	c #646565",
"G$	c #8B9399",
"H$	c #738794",
"I$	c #49677A",
"J$	c #40667C",
"K$	c #4B768F",
"L$	c #54789C",
"M$	c #576CA0",
"N$	c #3B4F7D",
"O$	c #1E3652",
"P$	c #345159",
"Q$	c #506D65",
"R$	c #627C6A",
"S$	c #7F8E80",
"T$	c #6A6D6A",
"U$	c #8F908F",
"V$	c #D1D1D1",
"W$	c #BABABA",
"X$	c #909090",
"Y$	c #616161",
"Z$	c #879B71",
"`$	c #127801",
" %	c #1E4F0C",
".%	c #70706D",
"+%	c #ADB1B3",
"@%	c #7A878D",
"#%	c #576D76",
"$%	c #526D78",
"%%	c #5B7184",
"&%	c #5E6A88",
"*%	c #5A647F",
"=%	c #626F7F",
"-%	c #748386",
";%	c #7D8A85",
">%	c #6C736E",
",%	c #777877",
"'%	c #BCBCBC",
")%	c #A2A2A2",
"!%	c #ADADAD",
"~%	c #B1B1B1",
"{%	c #CACACA",
"]%	c #879A6D",
"^%	c #167203",
"/%	c #405732",
"(%	c #6E6E6D",
"_%	c #C8C8C8",
":%	c #999A9B",
"<%	c #686B6C",
"[%	c #67696C",
"}%	c #717377",
"|%	c #76777B",
"1%	c #6F7072",
"2%	c #707171",
"3%	c #595959",
"4%	c #CCCCCC",
"5%	c #C7C7C7",
"6%	c #C4C4C4",
"7%	c #717171",
"8%	c #B6B6B6",
"9%	c #A3A3A3",
"0%	c #25640D",
"a%	c #5F6854",
"b%	c #B7B7B7",
"c%	c #626262",
"d%	c #404040",
"e%	c #6E6E6E",
"f%	c #5A5A5A",
"g%	c #585858",
"h%	c #9F9F9F",
"i%	c #B0B0B0",
"j%	c #7D7D7D",
"k%	c #999999",
"l%	c #5D5D5D",
"m%	c #506237",
"n%	c #64655C",
"o%	c #C5C5C5",
"p%	c #787878",
"q%	c #464646",
"r%	c #898989",
"s%	c #565656",
"t%	c #C6C6C6",
"u%	c #646464",
"v%	c #959595",
"w%	c #868686",
"x%	c #ADABA5",
"y%	c #777775",
"z%	c #A6A6A6",
"A%	c #E0E0E0",
"B%	c #D6D6D6",
"C%	c #656565",
"D%	c #757575",
"E%	c #6A6A6A",
"F%	c #444444",
"G%	c #848484",
"H%	c #E9E9E9",
"I%	c #DCDCDC",
"J%	c #6D6D6D",
"K%	c #6F6F6F",
"L%	c #555555",
"M%	c #8F8F8F",
"N%	c #D5D5D5",
"O%	c #EEEEEE",
"P%	c #D4D4D4",
"Q%	c #7F7F7F",
"R%	c #5E5E5E",
"S%	c #DFDFDF",
"T%	c #CDCDCD",
"U%	c #DDDDDD",
"V%	c #696969",
"W%	c #777777",
"X%	c #D9D9D9",
"Y%	c #D7D7D7",
"Z%	c #5C5C5C",
"`%	c #818181",
" &	c #9B9B9B",
".&	c #D8D8D8",
"+&	c #AAAAAA",
"@&	c #989898",
"#&	c #CFCFCF",
"$&	c #E6E6E6",
"%&	c #ACACAC",
"&&	c #F9F9F9",
"*&	c #525252",
"=&	c #9A9A9A",
"-&	c #7A7A7A",
";&	c #FBFBFB",
">&	c #515151",
",&	c #535353",
"'&	c #F5F5F5",
")&	c #EAEAEA",
"!&	c #3A3A3A",
"~&	c #F2F2F2",
"{&	c #F3F3F3",
"]&	c #A0A0A0",
"^&	c #666666",
"/&	c #3F3F3F",
"(&	c #D2D2D2",
"_&	c #FCFCFC",
":&	c #4C4C4C",
"<&	c #313131",
"[&	c #494949",
"}&	c #EDEDED",
"                                                                                                                                ",
"                                                                                                                                ",
"                                                                                                                                ",
"                                                                                                                                ",
"                                                                                                                                ",
"                                                                                                                                ",
"                                                                                                                                ",
"                                                                                                                                ",
"                                                                                                                                ",
"                                                          . + @ # $ %                                                           ",
"                                                & * = - ; > , ' ) ! ~                                                           ",
"                                                { ] ^ / ( _ : < [ }                                                             ",
"                                                  | 1 ( _ _ 2 3 4 5                                                             ",
"                            6 7 8 9 0 a b       c d e ( _ _ f g h                                                               ",
"                      i j k l m n o p q r s t u v w ( x y z A B C                                                               ",
"                  D E F G H I J K L M N O P Q R S ( T U V W X Y Z                                                               ",
"                `  ...+.@.#.$.%.&.*.=.-.;.>.,.'.( ).!.~.{.].^./.(.                                                              ",
"                _.:.<.[.}.|.1.2.3.4.5.6.7.8.9.( 0.a.b.c.d.e.f.g.                                                                ",
"              h.i.j.k.l.m.n.o.p.q.r.s.t.u.9._ v.w.x.y.z.    A.B.                                                                ",
"            C.D.E.F.G.H.I.J.K.L.M.N.O.P.Q.R.S.T.U.V.W.X.                                                                        ",
"            Y.Z.`. +.+++@+#+$+%+&+*+P.Q.: =+-+;+>+,+'+)+                                                                        ",
"            !+~+{+]+^+/+(+_+:+<+[+}+|+1+2+3+4+5+6+7+8+9+0+                                                                      ",
"            a+b+c+d+e+f+g+h+i+j+k+l+m+n+o+p+q+r+s+t+u+v+w+                                                                      ",
"          x+y+z+A+B+C+D+E+F+G+H+I+J+K+L+M+N+O+P+Q+R+S+T+U+                                                                      ",
"          V+W+X+Y+Z+`+ @.@+@@@#@$@%@&@*@=@-@;@>@,@'@)@!@~@                                                                      ",
"          {@]@^@/@(@_@:@<@[@}@|@1@2@3@4@5@6@7@8@9@0@a@b@c@                                                                      ",
"            d@e@f@g@h@i@j@k@l@m@n@o@p@q@r@s@t@u@v@w@x@y@z@                                                                      ",
"            A@B@C@D@E@F@G@H@I@J@K@L@M@N@O@P@Q@R@S@T@U@V@W@                                                X@Y@Z@c@`@ #.#+#      ",
"            @###$#%#&#*#=#-#;#>#,#'#)#!#~#{#]#^#/#(#_#:#<#                    [#}# #|#1#              2#3#4#5#0+6#6#<#7#X@8#    ",
"            9#0#a#b#c#d#e#f#g#h#i#j#k#l#m#n#o#p#q#r#s#t#                    c.u#v#B.w#7#x#y#[#z#    A#B#C#6#6#6#6#6#6#D#Z@E#    ",
"    F#G#H#I#J#K#L#M#N#O#P#Q#R#S#T#U#V#W#X#Y#Z#`# $.$+$@$                  #$4#$$%$%$%$6#C#d.&$c@*$*$W@0+$$6#6#6#6#6#6#6#=$c.$$  ",
"  -$;$>$,$'$)$!$~${$]$^$/$($_$:$<$[$}$|$1$2$3$4$5$6$z@                  7$8$$$%$%$%$%$%$%$%$$$$$$$$$$$$$$$$$6#6#6#6#6#6#v#9$C#  ",
"  0$a$b$c$d$w e$f$g$h$i$j$k$l$m$n$o$p$q$r$s$t$u$v$*$w$                  7#x$y$y$%$%$%$%$%$%$%$$$$$$$$$$$$$$$$$6#6#6#6#6#v#z$C#  ",
"    B.C A$B$C$D$E$F$G$H$I$J$K$L$M$N$O$P$Q$R$S$T$U$V$                  ~@z@A.y$y$y$%$%$%$%$%$%$%$$$W$B.$$$$$$$$6#6#6#6#6#X$Y$$$  ",
"        % Z$`$ %.%*$~ +%@%#%$%%%&%*%=%-%;%>%,%=$                      ! B.5 A.y$y$y$%$%$%$%$%$%$'%)%!%~%<#$$$$$$6#6#6#'%x#A#{%  ",
"          ]%^%/%(%<#    _%:%<%[%}%|%1%2%3%} 4%                        [#5%6%5 A.y$y$%$%$%$%$%$%$1#7%8%9%8%$$$$$$$$6#6#Z 3%2#    ",
"            0%a%Y@V$      b%c%d%e%f%X$Y$g%h%                        z@~%~ 5%6%A.8%C#i%w#6#%$%$%$E#j%<#)%W$$$$$$$$$$$6#k%l%8%    ",
"            m%n%.#          o%p%q%r%r%s%X@6%                        X$w$w${%t%v#u%|#9$#$'%%$%$%$v%w%B.)%W$$$$$6#$$$$6#Z@! o%    ",
"            x%y%Z             '%y#b%~@e%~                           z%A%B%% A.C%D%E%F%e%%$%$%$%$v%w%B.)%W$$$$$$$$$$$0+D%Y@      ",
"              D#                g.A.`@G%                          <#t%H%I%V$5 J%K%e%L%.#$$%$%$%$E#X@B.9%b%$$$$$$$$$$b%c%[#      ",
"                                #$y$M%X@                          ~ N%O%A%P%~ 0+Q%}#C%8$W$y$%$%$E#w%<#w+5#$$$$$$$$$$z%R%~%      ",
"                                7%A.4#G%                          $$5 S%+#N%T%5%6%%$8%b%y$y$y$%$} u#b%=$v#%$$$$$$$$$C A#o%      ",
"                                A#A.4#7#P%                        7$)%6%~ w$4%5%6%A.A.y$y$y$y$%$E#G%b%@$w#6#%$$$$$$$v%e%A.      ",
"                                A#A.w+x#%$                        8%U%.#k%6%~ 5%6%A.A.y$y$$$0+y$7$D%~%'%~%6#%$$$$$0+! V%5%      ",
"                                E%6#y$W%i%                        w+X%Y%Z {%(.A.5 A.y$y$y$C z#y$Z K%w#$$%$%$%$%$$$@$Z%[#        ",
"                                p%<#D#`%h                       z. &W@.&P%T%x$g.+&r%W%E#6##$k%%$0+e%@&b%%$%$%$%$6#j%R%6#        ",
"                                g.9%h%p%C%z%                  w%t%U%#&N%#&t%G%Z@Q%~%$&j%G%9$h h%0+ &K%%&%$%$%$%$w#c%`%          ",
"                                  7#$$W$v# #@$            +&y#! C##&P%#&(.~%C%#$C%w$&&B#*&[#R%@&} x$K%} '%%$%$Z A#C%5           ",
"                                  j%=&5 6%=$q%Y@7#h *$Z@8$`@y$Z 8%w$% {%'%v%}#-&[#;&#&>&>&,&s%! c%W@~@7%b%%$<#j%l%z.            ",
"                                  {%D%=&B.%$c.~@9$.#9%&$$$T%% % T%~ _%6#W@A#W@h%'&)& #l%`@X@e%>&*&c%R%3#i%8%} s%e%#&            ",
"                                    6#e%g.=$v#C#`%r%d.!&Z@x$A._%5%B.v#4#s%W%@&~&{&u#3%=&+#  (.i%]&8$p%^&&$`%l%l%w+              ",
"                                      _%G%^&C%W%z@z.@$u#/&C%}#p%8$Z@W%C%M%(&_&'&E#Z%X@8#              y#9$f%V%d.                ",
"                                        8#~%E#8$C%c%c%u%:&<&[&p%M%w#t%S%}&}&P%G%f%g.6%                w$ &k%y$                  ",
"                                                o%=$} 4#g.8$B#w%w%W%|#R%W%D%f%u%} 4%                                            ",
"                                                                    t%6%<#w#=$t%                                                ",
"                                                                                                                                ",
"                                                                                                                                ",
"                                                                                                                                ",
"                                                                                                                                ",
"                                                                                                                                ",
"                                                                                                                                ",
"                                                                                                                                ",
"                                                                                                                                ",
"                                                                                                                                "};
