/* XPM */
static const char *spitIcon[]={
"22 22 293 2",
"Qt c None",
".i c None",
".A c #000000",
".# c #0031e0",
"cd c #000000",
"ch c #001bab",
".B c #0039e4",
"#d c #000000",
".j c #002ee0",
"#M c #000000",
".h c #0017ab",
"bX c #000000",
".U c #000d28",
"bE c #0015c6",
"bD c #000000",
"bi c #0019ad",
"bY c #001dcf",
"bh c #000000",
"bz c #000000",
".g c #002acb",
"cv c #000000",
"#0 c #000104",
"co c #000000",
"#x c #000000",
".f c #0027cc",
".V c #0027d8",
"b6 c #000000",
"cD c #000414",
".k c #0024d8",
"cx c #000001",
".z c #062bbc",
"b7 c #000000",
"cw c #00020b",
".e c #0015c6",
".a c #0b35de",
"cc c #000000",
"b5 c #000000",
"aY c #01247e",
"cH c #000000",
".l c #0947e5",
"cI c #000000",
"aX c #000000",
"cp c #0032bc",
"ae c #000b4b",
".d c #1a3fc2",
"bT c #000000",
"#e c #023ce2",
"cy c #0d287d",
"cg c #000823",
"#L c #000831",
"bd c #001065",
"bW c #010a27",
"bC c #000721",
".m c #1856e7",
"by c #000105",
".T c #0331b5",
".y c #2955d4",
"cE c #001153",
"ci c #1949c8",
"cG c #090b14",
"#c c #0d379c",
"#y c #0f53e7",
"bg c #010a22",
"ce c #0642c9",
"bc c #000629",
".C c #094be8",
"cC c #0a1a40",
"ay c #00168b",
"cF c #020f58",
".n c #175de7",
".b c #4969e3",
"cu c #051540",
"#N c #1465ec",
"aW c #03173b",
".c c #7a8be8",
"aC c #011858",
"aS c #001363",
".x c #3c6be0",
"#Z c #000f88",
"bK c #10257b",
".o c #1560e9",
"cn c #073384",
"bM c #142984",
"b8 c #0039d4",
"bL c #152d90",
"bF c #2d6bea",
"b4 c #093586",
"aD c #0943a9",
"#1 c #1668ee",
"ax c #00177b",
"bj c #2669e6",
"cb c #183e87",
"bZ c #3874ec",
"cz c #4378cc",
"ad c #00119b",
"cf c #0434bb",
"bJ c #083797",
".w c #497be4",
"cq c #0745ce",
"cB c #1a54ab",
"aT c #0019b8",
"#w c #3469c7",
"af c #196aec",
".S c #4d88e9",
"bS c #2c60b3",
"cA c #4b92cd",
"bU c #1366e8",
".W c #2b7ef2",
"aZ c #287de9",
"bN c #0831c1",
".D c #3a8bf2",
".v c #4e8ae9",
"ct c #2260c1",
".p c #2879f2",
"aB c #115ac2",
"cj c #5888e1",
"az c #196fec",
".u c #5091ed",
"bB c #1664cf",
"#b c #5896e9",
"bV c #125ed4",
".t c #488ded",
".E c #3c99f5",
"bx c #4079d3",
"#f c #3799f7",
"bf c #196fd7",
"aU c #197bf0",
".s c #6a9dee",
"bA c #1777ef",
"#K c #598fe2",
"cr c #1573e9",
"be c #187ff3",
"ai c #2084e6",
"#z c #3ba4f8",
"bb c #5896e6",
".F c #3b9ef7",
".R c #86bef5",
"cs c #1f85ed",
"aj c #238ef2",
"aV c #1f88ee",
".q c #4998fa",
"aR c #6cb2ef",
"bo c #4a8eef",
"cm c #2594ef",
"aE c #2d99f7",
"#O c #37a8fa",
"b3 c #2293f3",
".r c #91b9fa",
"aw c #78c1f6",
"bI c #1d8ff5",
"ac c #7cc4f6",
"b9 c #0d7dfc",
"ca c #379ef6",
"bp c #76abf5",
"#Y c #79c0f7",
"bG c #89d9fc",
"ah c #2da7fa",
"bk c #69c8fc",
"bs c #7eadf6",
".G c #36a5f9",
"b0 c #a6e5fd",
"bO c #036afb",
"ck c #91dffc",
"br c #8eb9f9",
"#a c #ace3fd",
"bn c #309dfd",
".Q c #9bdcfc",
"#2 c #35adfd",
"a0 c #4ebdfe",
"cl c #5ecafe",
".X c #66cefe",
"bq c #8abbfb",
".4 c #0c80ff",
"bP c #0d83ff",
".J c #118aff",
"#n c #128bff",
"#E c #1893ff",
"c. c #1b98ff",
"bv c #1b99ff",
".3 c #1e99ff",
"bQ c #1e9aff",
"#V c #1e9bff",
"bu c #2394ff",
"#8 c #25a2ff",
"#m c #25a3ff",
"c# c #25a6ff",
".I c #27a4ff",
".2 c #28a7ff",
"al c #28a8ff",
"bm c #29a8ff",
"#U c #29a9ff",
"am c #29abff",
"#6 c #29acff",
"#7 c #2aabff",
"#t c #2ab0ff",
"#l c #2badff",
"#q c #2bb0ff",
"ak c #2caaff",
".7 c #2cb0ff",
"#T c #2daeff",
"#s c #2db1ff",
".K c #2e86ff",
"#5 c #2eadff",
"#9 c #2eaeff",
"#D c #2eafff",
"#H c #2eb2ff",
"an c #2fb0ff",
"#k c #2fb1ff",
"#r c #2fb2ff",
".1 c #30afff",
"#C c #30b2ff",
"#I c #30b3ff",
".H c #31a9fe",
"aA c #31b0ff",
".8 c #31b2ff",
"#j c #31b3ff",
"a1 c #33b0ff",
"#Q c #33b2ff",
"#S c #33b3ff",
"a. c #33b4ff",
"ao c #34b2ff",
"ag c #34b3ff",
"#R c #34b4ff",
"#3 c #34b6ff",
"a# c #35b4ff",
"aF c #36b2ff",
"#i c #36b4ff",
".9 c #36b5ff",
"#W c #37acff",
"aa c #37b5ff",
"#B c #37b6ff",
".0 c #38b7ff",
"ap c #39b5ff",
"#P c #39b6ff",
"aG c #3ab5ff",
"a2 c #3bb2ff",
"#4 c #3bb9ff",
"#G c #3dbaff",
".6 c #3ebaff",
"aq c #3fb9ff",
"#h c #3fbaff",
"b# c #40b5ff",
"aQ c #40bcff",
"ba c #41b9ff",
"aH c #43b9ff",
"b2 c #43baff",
".Z c #43bdff",
"bl c #44baff",
"ar c #44bbff",
"#A c #44bdff",
"#F c #46aaff",
"bw c #47b9ff",
"bR c #48b3fe",
"as c #48beff",
"#p c #4ac1ff",
"ab c #4ac2ff",
"at c #4cc0ff",
"#. c #4cc1ff",
"aI c #4dbdff",
"au c #50c2ff",
"av c #51c2ff",
"bt c #53a8fe",
"#g c #53c5ff",
".Y c #54c5ff",
".M c #58cbff",
"aJ c #59c3ff",
"#o c #5aaeff",
"#u c #60c9ff",
"#X c #60ccff",
"a3 c #61c2ff",
"aK c #61c7ff",
"bH c #62caff",
"aP c #66cdff",
"aL c #6acdff",
".N c #6dd4ff",
"aM c #72d1ff",
"aN c #7ad6ff",
"a4 c #7bd0ff",
"aO c #7fd9ff",
"## c #81dbff",
".O c #82ddff",
"b1 c #83dcff",
".5 c #86c1ff",
"#J c #8ee1ff",
"a5 c #94dcff",
"b. c #96e2ff",
".P c #96e4ff",
"a6 c #a2e4ff",
"#v c #a4defc",
"a7 c #b0ebff",
".L c #b2e2ff",
"a8 c #baf2ff",
"a9 c #bcf4ff",
"QtQtQtQtQtQtQtQtQtQtQtQtQtQtQtQtQtQtQtQtQtQt",
"QtQtQtQtQtQtQtQtQtQtQtQtQtQtQtQtQtQtQtQtQtQt",
"QtQtQtQtQtQtQtQtQtQtQtQtQtQtQtQtQtQtQtQtQtQt",
"QtQtQtQtQtQt.#.a.b.c.d.e.f.g.h.iQtQtQtQtQtQt",
"Qt.j.k.l.m.n.o.p.q.r.s.t.u.v.w.x.y.z.AQtQtQt",
".B.C.D.E.F.G.H.I.J.K.L.M.N.O.P.Q.R.S.T.UQtQt",
".V.W.X.Y.Z.0.1.2.3.4.5.6.7.8.9#.###a#b#c#dQt",
"#e#f#g#h#i#j#k#l#m#n#o#p#q#r#r#s#t#u#v#w#x.A",
"#y#z#A#B#j#r#C#D.2#E#F#G#s#r#r#r#H#I#J#K#L#M",
"#N#O#P#Q.8#R#S#T#U#V#W#r#r#C#C#C#C#s#X#Y#Z#0",
"#1#2#R#3#4#P#5#6#7#8#9#ja.a#aa#B#B.8abacadae",
"afagahaiajakalamanaoapaqarasatauavas.Zawaxay",
"azaAaBaCaDaEaF#DaGaHaIaJaKaLaMaNaOaPaQaRaSaT",
"aUaVaWaXaYaZa0a1a2a3a4a5a6a7a8a9b.b#babbbcbd",
"bebfbgbhbibjbkblbmbnbobpbqbrbsbtbubvbwbxbybz",
"bAbBbCbDbEbFbGbHa1bIbJbKbLbMbNbObPbQbRbSbT#M",
"bUbVbWbXbYbZb0b1b2b3b4b5b6b7b8b9c.c#cacbcccd",
"cecfcgbXchcicjckclcmcnco.A.AcpcqcrcsctcucvQt",
"#Mcwcx#dQt#McyczcAcBcCbzQtQtcdcDcEcFcGcH#dQt",
"QtcdcdQtQtQt#d#xcIaXb7#dQtQtQt.AbXbhbh#dQtQt",
"QtQtQtQtQtQtQtQtQtQtQtQtQtQtQtQtQtQtQtQtQtQt",
"QtQtQtQtQtQtQtQtQtQtQtQtQtQtQtQtQtQtQtQtQtQt"};
