<?xml version="1.0" encoding="utf-8"?>
<!-- Generator: Adobe Illustrator 16.0.0, SVG Export Plug-In . SVG Version: 6.00 Build 0)  -->
<!DOCTYPE svg PUBLIC "-//W3C//DTD SVG 1.1//EN" "http://www.w3.org/Graphics/SVG/1.1/DTD/svg11.dtd">
<svg version="1.1"
	 id="svg2" xmlns:dc="http://purl.org/dc/elements/1.1/" xmlns:cc="http://creativecommons.org/ns#" xmlns:rdf="http://www.w3.org/1999/02/22-rdf-syntax-ns#" xmlns:svg="http://www.w3.org/2000/svg" xmlns:sodipodi="http://sodipodi.sourceforge.net/DTD/sodipodi-0.dtd" xmlns:inkscape="http://www.inkscape.org/namespaces/inkscape" sodipodi:version="0.32" sodipodi:docname="money_atm2.svg" inkscape:output_extension="org.inkscape.output.svg.inkscape" inkscape:version="0.46" sodipodi:docbase="s:\Data\FacilityIcons"
	 xmlns="http://www.w3.org/2000/svg" xmlns:xlink="http://www.w3.org/1999/xlink" x="0px" y="0px" width="580px" height="580px"
	 viewBox="0 0 580 580" enable-background="new 0 0 580 580" xml:space="preserve">
<path opacity="0.25" fill="#FFFB3D" enable-background="new    " d="M229.212,263.331c0,11.392,4.456,20.378,13.368,26.959
	c7.668,5.663,17.817,10.196,30.434,13.606V223.52c-13.127,2.457-23.425,6.959-30.879,13.515
	C233.52,244.611,229.212,253.377,229.212,263.331z"/>
<path opacity="0.25" fill="#FFFB3D" enable-background="new    " d="M345.399,355.325c-7.126-6.336-19.833-11.784-38.107-16.345
	v89.526c13.753-2.148,25.234-7.014,34.432-14.617c10.1-8.351,15.149-18.886,15.15-31.604
	C356.873,371.113,353.049,362.127,345.399,355.325z"/>
<path opacity="0.25" fill="#FFFB3D" enable-background="new    " d="M420.906,110.436l-261.63,1.736
	c-1.832,10.622-99.786,429.767-99.786,429.767l461.435-3.899L420.906,110.436z M372.915,430.729
	c-15.999,13.601-37.883,21.257-65.623,22.999v28.077c0,9.466-7.673,17.14-17.139,17.14c-9.466,0-17.139-7.674-17.139-17.14v-28.138
	c-27.223-2.994-48.365-10.11-63.407-21.363c-16.19-12.11-25.324-29.061-27.404-50.85l40.103-5.309
	c3.119,16.369,9.432,28.979,18.938,37.826c8.208,7.64,18.801,12.429,31.771,14.379V332.91
	c-26.997-4.952-47.471-12.712-61.402-23.292c-15.001-11.392-22.502-26.047-22.502-43.965c0-17.807,7.426-33.098,22.279-45.873
	c13.804-11.872,34.352-19.08,61.625-21.638V178.96c0-9.466,7.673-17.139,17.139-17.139c9.466,0,17.139,7.673,17.139,17.139v19.025
	c23.305,2.203,41.842,8.054,55.597,17.565c14.556,10.065,23.69,24.167,27.404,42.306l-41.663,4.479
	c-2.376-11.281-7.352-20.212-14.927-26.794c-6.742-5.857-15.55-9.848-26.411-11.981v86.343c30.06,4.449,52.683,12.48,67.851,24.103
	c15.299,11.725,22.948,27.099,22.948,46.122C398.091,399.594,389.698,416.461,372.915,430.729z"/>
<sodipodi:namedview  showgrid="false" inkscape:cy="91.206074" inkscape:cx="1063.2002" inkscape:zoom="0.46083857" pagecolor="#ffffff" bordercolor="#666666" guidetolerance="10.0" objecttolerance="10.0" gridtolerance="10.0" borderopacity="1.0" id="base" inkscape:current-layer="svg2" inkscape:window-y="18" inkscape:window-x="112" inkscape:pageopacity="0.0" inkscape:pageshadow="2" inkscape:window-height="1005" inkscape:window-width="1280">
	</sodipodi:namedview>
<defs>
	
	
		<inkscape:perspective  inkscape:vp_z="580 : 290 : 1" inkscape:vp_y="0 : 1000 : 0" inkscape:vp_x="0 : 290 : 1" sodipodi:type="inkscape:persp3d" id="perspective2441" inkscape:persp3d-origin="290 : 193.33333 : 1">
		</inkscape:perspective>
</defs>
<path id="path3243" sodipodi:nodetypes="ccccc" fill="none" stroke="#1EFF31" stroke-width="4.4444" d="M159.276,112.172
	c-1.832,10.622-99.786,429.767-99.786,429.767l461.435-3.899L420.906,110.436L159.276,112.172z"/>
<g id="g4372" transform="translate(-130.0802,122.26983)">
</g>
<path fill="none" stroke="#1EFF31" stroke-width="4.4444" d="M229.212,263.331c0,11.392,4.456,20.378,13.368,26.959
	c7.668,5.663,17.817,10.196,30.434,13.606V223.52c-13.127,2.457-23.425,6.959-30.879,13.515
	C233.52,244.611,229.212,253.377,229.212,263.331z"/>
<path fill="none" stroke="#1EFF31" stroke-width="4.4444" d="M345.399,355.325c-7.126-6.336-19.833-11.784-38.107-16.345v89.526
	c13.753-2.148,25.234-7.014,34.432-14.617c10.1-8.351,15.149-18.886,15.15-31.604C356.873,371.113,353.049,362.127,345.399,355.325z
	"/>
<path fill="none" stroke="#1EFF31" stroke-width="4.4444" d="M420.906,110.436l-261.63,1.736
	c-1.832,10.622-99.786,429.767-99.786,429.767l461.435-3.899L420.906,110.436z M372.915,430.729
	c-15.999,13.601-37.883,21.257-65.623,22.999v28.077c0,9.466-7.673,17.14-17.139,17.14c-9.466,0-17.139-7.674-17.139-17.14v-28.138
	c-27.223-2.994-48.365-10.11-63.407-21.363c-16.19-12.11-25.324-29.061-27.404-50.85l40.103-5.309
	c3.119,16.369,9.432,28.979,18.938,37.826c8.208,7.64,18.801,12.429,31.771,14.379V332.91
	c-26.997-4.952-47.471-12.712-61.402-23.292c-15.001-11.392-22.502-26.047-22.502-43.965c0-17.807,7.426-33.098,22.279-45.873
	c13.804-11.872,34.352-19.08,61.625-21.638V178.96c0-9.466,7.673-17.139,17.139-17.139c9.466,0,17.139,7.673,17.139,17.139v19.025
	c23.305,2.203,41.842,8.054,55.597,17.565c14.556,10.065,23.69,24.167,27.404,42.306l-41.663,4.479
	c-2.376-11.281-7.352-20.212-14.927-26.794c-6.742-5.857-15.55-9.848-26.411-11.981v86.343c30.06,4.449,52.683,12.48,67.851,24.103
	c15.299,11.725,22.948,27.099,22.948,46.122C398.091,399.594,389.698,416.461,372.915,430.729z"/>
<path opacity="0.75" fill="#FFFB3D" stroke="#1EFF31" stroke-width="4.4444" d="M516.188,35.719H63.813
	c-9.958,0-18.031,8.073-18.031,18.031v104.438c0,9.958,8.073,18.031,18.031,18.031h80.854c8.48-36.667,14.181-61.559,14.609-64.046
	l261.63-1.736l15.387,65.783h79.895c9.958,0,18.031-8.073,18.031-18.031V53.75C534.219,43.792,526.146,35.719,516.188,35.719z"/>
</svg>
