<svg enable-background="new 0 0 580 580" height="580" viewBox="0 0 580 580" width="580" xmlns="http://www.w3.org/2000/svg">
<path d="m310.509 331.185v105.209c12.192-3.161 24.725-8.354 32.715-15.865 10.904-10.253 16.435-23.382 16.436-39.022-.001-13.7-4.16-24.853-12.361-33.146-5.599-5.661-17.699-11.317-36.79-17.176z" fill="param(fill)" fill-opacity="param(fill-opacity)" stroke="param(outline)" stroke-opacity="param(outline-opacity)" stroke-width="param(outline-width)"/>
<path d="m545.062 217.953l-252.06-191.908c-3.58-2.725-8.537-2.725-12.116 0l-252.059 191.908c-3.414 2.6-4.79 7.087-3.418 11.153 1.372 4.065 5.185 6.803 9.476 6.803h40.412v307.861c0 5.522 4.477 10 10 10h403.295c5.522 0 10-4.478 10-10v-307.861h40.412c4.291 0 8.104-2.738 9.476-6.803 1.371-4.066-.004-8.554-3.418-11.153zm-164.518 226.518c-15.444 14.93-40.462 25.108-70.035 28.781v20.368c0 12.748-10.334 23.082-23.083 23.082-12.748 0-23.083-10.334-23.083-23.082v-19.837c-29.376-4.064-52.603-13.194-69.102-27.23-18.415-15.665-28.948-37.856-31.306-65.96-.076-.901.561-1.707 1.456-1.842l44.938-6.765c.927-.135 1.794.49 1.949 1.414 3.421 20.419 10.411 36.334 20.775 47.306 8.173 8.65 18.671 14.392 31.291 17.151v-118.176c-29.105-6.386-51.582-16.272-66.864-29.47-17.126-14.79-25.811-34.076-25.811-57.322 0-23.064 8.574-43.143 25.482-59.681 15.179-14.845 37.769-24.135 67.193-27.71v-14.184c0-12.748 10.334-23.083 23.083-23.083 12.749 0 23.083 10.334 23.083 23.083v14.968c24.945 3.773 45.847 11.331 58.669 21.413 16.574 13.033 27.117 31.522 31.335 54.954.084.465-.027.943-.308 1.323-.28.38-.705.628-1.174.686l-46.685 5.708c-.9.103-1.731-.5-1.896-1.392-2.585-13.957-8.051-25.138-16.246-33.233-5.76-5.69-15.268-9.573-23.695-12.087v105.829c32.655 6.504 58.154 16.739 72.467 29.21 17.453 15.211 26.303 35.42 26.303 60.065-.002 25.172-9.669 47.28-28.736 65.713z" fill="param(fill)" fill-opacity="param(fill-opacity)" stroke="param(outline)" stroke-opacity="param(outline-opacity)" stroke-width="param(outline-width)"/>
<path d="m220.041 229.929c0 13.918 4.834 25.034 14.367 33.038 7.643 6.418 17.686 11.734 29.937 15.864v-97.154c-12.73 3.195-22.907 8.539-30.326 15.958-9.276 9.277-13.978 20.142-13.978 32.294z" fill="param(fill)" fill-opacity="param(fill-opacity)" stroke="param(outline)" stroke-opacity="param(outline-opacity)" stroke-width="param(outline-width)"/>
</svg>
