<?xml version="1.0" encoding="UTF-8"?>
<svg width="48" height="48" xmlns="http://www.w3.org/2000/svg" xmlns:xlink="http://www.w3.org/1999/xlink">
 <linearGradient id="a" x1="64" x2="64" y1="21.941" y2="104.06" gradientUnits="userSpaceOnUse">
  <stop stop-color="#dadada" offset="0"/>
  <stop stop-color="#ccc" offset="1"/>
 </linearGradient>
 <linearGradient id="b" x1="64" x2="64" y1="21.523" y2="103.07" gradientUnits="userSpaceOnUse" xlink:href="#a">
  <stop stop-color="#d9d9d9" offset="0"/>
  <stop stop-color="#ccc" offset="1"/>
 </linearGradient>
 <linearGradient id="c" x1="64" x2="64" y1="21.523" y2="103.07" gradientTransform="matrix(.40118 0 0 .38355 -1.6714 -1.0248)" gradientUnits="userSpaceOnUse" xlink:href="#b"/>
 <linearGradient id="d" x1="49.273" x2="49.374" y1="22.275" y2="102.05" gradientTransform="matrix(.40118 0 0 .38355 -1.6714 -1.0248)" gradientUnits="userSpaceOnUse" xlink:href="#b"/>
 <linearGradient id="e" x1="64" x2="64" y1="21.941" y2="104.06" gradientTransform="matrix(.34761 0 0 .33233 1.7572 2.4929)" gradientUnits="userSpaceOnUse" xlink:href="#a"/>
 <linearGradient id="f" x1="86.133" x2="84.639" y1="105.1" y2="20.895" gradientTransform="matrix(.34761 0 0 .33233 1.7572 2.4929)" gradientUnits="userSpaceOnUse">
  <stop stop-color="#fff" offset="0"/>
  <stop stop-color="#959595" offset="1"/>
 </linearGradient>
 <linearGradient id="g" x1="64" x2="64" y1="6.8743" y2="117.23" gradientTransform="matrix(.4051 0 0 .38795 -1.9289 -.65499)" gradientUnits="userSpaceOnUse">
  <stop stop-color="#f2f2f2" offset="0"/>
  <stop stop-color="#d8d8d8" offset="1"/>
 </linearGradient>
 <radialGradient id="h" cx="6.7027" cy="73.616" r="7.2284" gradientTransform="matrix(3.2878 0 0 1.0032 1.9601 -32.104)" gradientUnits="userSpaceOnUse">
  <stop offset="0"/>
  <stop stop-opacity="0" offset="1"/>
 </radialGradient>
 <path d="m47.764 41.75c0 4.0057-10.641 7.252-23.766 7.252-13.125 0-23.766-3.2463-23.766-7.252 0-4.0051 10.64-7.2518 23.766-7.2518 13.126 0 23.766 3.2468 23.766 7.2518z" fill="url(#h)" opacity=".4"/>
 <path d="m45.648 18.177h-1.8326c-0.49461 0-1.0665-0.39352-1.2237-0.84165-0.0088-0.02329-1.1373-2.6352-1.1373-2.6352-0.23227-0.44667-0.11994-1.1104 0.2296-1.4448l1.2958-1.2388c0.29775-0.28504 0.46225-0.6651 0.46225-1.0702 0-0.40517-0.16448-0.78522-0.46225-1.0699l-5.1021-4.877c-0.29816-0.2846-0.69569-0.44154-1.1192-0.44195-0.42379 0-0.82131 0.1569-1.1191 0.44194l-1.2952 1.2388c-0.35001 0.33384-1.0446 0.44154-1.4865 0.23039-0.024843-0.010814-2.7569-1.0896-2.7569-1.0896-0.49368-0.15901-0.90527-0.70586-0.90527-1.1787v-1.7525c-0.0011-0.83466-0.71082-1.5136-1.5837-1.5136h-7.2147c-0.8731 0-1.5832 0.67893-1.5832 1.5136v1.7525c0 0.47288-0.41161 1.0197-0.88032 1.17-0.02437 0.00879-2.7563 1.0874-2.7563 1.0874-0.4672 0.22206-1.1617 0.11431-1.5113-0.21988l-1.2952-1.2385c-0.29815-0.28501-0.69569-0.44195-1.1192-0.44195-0.42379 0-0.82131 0.15726-1.1191 0.44194l-5.1027 4.878c-0.61722 0.5901-0.61722 1.55 0 2.1401l1.2958 1.2388c0.34916 0.33418 0.46187 0.99818 0.24102 1.4208-0.011416 0.02366-1.14 2.6357-1.14 2.6357-0.16639 0.47179-0.73792 0.86495-1.2325 0.86495h-1.3578c-0.87275 0-2.0581 0.67968-2.0581 1.5145v6.8974c0 0.83473 0.71013 1.5136 1.5832 1.5136h1.833c0.49461 0 1.0665 0.39316 1.2234 0.84165 0.00918 0.02329 1.1377 2.6352 1.1377 2.6352 0.23227 0.44667 0.11957 1.1104-0.2296 1.4448l-1.2958 1.2388c-0.61722 0.5901-0.61722 1.55 0 2.1401l5.1022 4.8777c0.29776 0.28468 0.69527 0.44195 1.1191 0.44195 0.42417 0 0.82169-0.15727 1.1195-0.44195l1.2958-1.2388c0.34954-0.33382 1.0441-0.44158 1.4861-0.23044 0.02474 0.01093 2.7567 1.0899 2.7567 1.0899 0.49309 0.15908 0.9047 0.7055 0.9047 1.1784v1.7521c0 0.83473 0.71013 1.5136 1.5832 1.5136h7.2144c0.87271 0 1.5828-0.67892 1.5828-1.5136v-1.7521c0-0.47288 0.41161-1.0197 0.88071-1.17 0.02437-0.0084 2.7563-1.0874 2.7563-1.0874 0.4672-0.22206 1.162-0.11466 1.5113 0.21952l1.2958 1.2388c0.29776 0.28468 0.69527 0.44195 1.1191 0.44195 0.42379 0 0.82131-0.15727 1.1191-0.44195l5.1019-4.8777c0.29777-0.28468 0.46225-0.66472 0.46225-1.0699 0-0.40517-0.16448-0.78522-0.46225-1.0699l-1.2958-1.2388c-0.34954-0.33418-0.46187-0.99818-0.24102-1.4208 0.01142-0.02366 1.14-2.6357 1.14-2.6357 0.1664-0.47142 0.73792-0.86495 1.2326-0.86495h1.8326c0.8731 0 1.5832-0.67893 1.5832-1.5136v-6.8981c0.0012-0.83473-0.70898-1.5136-1.5821-1.5136zm-21.643 11.403c-3.7144 0-6.7365-2.889-6.7365-6.4401s3.0222-6.4405 6.7365-6.4405c3.7147 0 6.7361 2.8893 6.7361 6.4405 0 3.5515-3.0214 6.4401-6.7361 6.4401z" fill="#030303" opacity=".1" stroke-width="2.6667"/>
 <path d="m45.642 18.168h-1.8326c-0.49461 0-1.0665-0.39425-1.2237-0.84311-0.0088-0.02329-1.1373-2.6393-1.1373-2.6393-0.23227-0.4474-0.11994-1.1121 0.2296-1.447l1.2958-1.241c0.29776-0.28541 0.46225-0.66618 0.46225-1.0721 0-0.40554-0.16449-0.78631-0.46225-1.0718l-5.1021-4.885c-0.29776-0.2854-0.69527-0.44266-1.1191-0.44266-0.42379 0-0.82131 0.15726-1.1191 0.44266l-1.2952 1.2406c-0.35001 0.33457-1.0446 0.44226-1.4865 0.2308-0.024843-0.010933-2.7569-1.0914-2.7569-1.0914-0.49368-0.15942-0.90527-0.70689-0.90527-1.1805v-1.7554c-0.001079-0.83621-0.71082-1.5162-1.5837-1.5162h-7.2147c-0.8731 0-1.5832 0.68002-1.5832 1.5162v1.7554c0 0.47361-0.4116 1.0215-0.88032 1.1718-0.02437 0.00879-2.7563 1.0892-2.7563 1.0892-0.4672 0.22242-1.1617 0.11466-1.5113-0.21988l-1.2952-1.2406c-0.29813-0.2854-0.69565-0.44266-1.1195-0.44266-0.42379 0-0.82131 0.15763-1.1191 0.44266l-5.1027 4.8861c-0.61722 0.59119-0.61722 1.5529 0 2.1438l1.2958 1.241c0.34916 0.33454 0.46187 0.99964 0.24102 1.4234-0.011416 0.02366-1.14 2.64-1.14 2.64-0.1664 0.47252-0.73792 0.86641-1.2325 0.86641h-1.3578c-0.87271-3.63e-4 -2.058 0.67965-2.058 1.5159v6.909c0 0.83583 0.71013 1.5159 1.5832 1.5159h1.833c0.49461 0 1.0665 0.39388 1.2234 0.84311 0.00918 0.0233 1.1377 2.6393 1.1377 2.6393 0.23227 0.4474 0.11956 1.1125-0.2296 1.4474l-1.2958 1.241c-0.61722 0.59083-0.61722 1.5529 0 2.1438l5.1022 4.8858c0.29776 0.2854 0.69527 0.44266 1.1191 0.44266 0.42417 0 0.82169-0.15726 1.1195-0.44266l1.2958-1.2406c0.34954-0.33454 1.0441-0.44267 1.4861-0.2308 0.02474 0.01058 2.7567 1.0914 2.7567 1.0914 0.49309 0.15944 0.9047 0.70659 0.9047 1.1806v1.755c0 0.83619 0.71013 1.5162 1.5832 1.5162h7.2144c0.87271 0 1.5828-0.68003 1.5828-1.5162v-1.755c0-0.47398 0.4116-1.0215 0.8807-1.1722 0.02437-0.0084 2.7563-1.0891 2.7563-1.0891 0.4672-0.22243 1.162-0.11431 1.5113 0.21988l1.2958 1.2406c0.29776 0.2854 0.69527 0.44266 1.1191 0.44266 0.42379 0 0.82131-0.15726 1.1191-0.44266l5.1019-4.8858c0.29777-0.28504 0.46225-0.66582 0.46225-1.0718 0-0.4059-0.16448-0.78667-0.46225-1.0718l-1.2958-1.241c-0.34953-0.33454-0.46187-1-0.24102-1.423 0.01142-0.02403 1.14-2.64 1.14-2.64 0.16639-0.47288 0.73792-0.86677 1.2326-0.86677h1.8326c0.87308 0 1.5832-0.68002 1.5832-1.5159v-6.909c0.0012-0.83619-0.70898-1.5162-1.5821-1.5162zm-21.643 11.921c-4.0296 0-7.3076-3.134-7.3076-6.9862 0-3.8526 3.278-6.9866 7.3076-6.9866 4.0292 0 7.3073 3.134 7.3073 6.9866 0 3.8523-3.278 6.9862-7.3073 6.9862z" fill="url(#g)" stroke="#262626" stroke-linecap="round" stroke-linejoin="round" stroke-width="1.4572"/>
 <path d="m24.004 9.6032c-7.9745 0-14.463 6.2027-14.463 13.826 0 7.6242 6.4878 13.826 14.463 13.826 7.9745 0 14.463-6.2027 14.463-13.826 0-7.6242-6.4878-13.826-14.463-13.826zm0 23.996c-5.8749 0-10.637-4.5523-10.637-10.17 0-5.6172 4.7619-10.169 10.637-10.169 5.8749 0 10.637 4.5526 10.637 10.169 0 5.6169-4.7619 10.17-10.637 10.17z" fill="url(#e)" stroke="url(#f)" stroke-width="1.0567"/>
 <path d="m24.004 11.249c-6.8686 0-12.436 5.3234-12.436 11.89 0 6.5669 5.5679 11.89 12.436 11.89 6.8686 0 12.436-5.3234 12.436-11.89 0-6.5669-5.5679-11.89-12.436-11.89zm0 19.753c-4.5425 0-8.2242-3.5203-8.2242-7.8628 0-4.3429 3.6817-7.8628 8.2242-7.8628 4.5421 0 8.2242 3.5199 8.2242 7.8628 0 4.3426-3.682 7.8628-8.2242 7.8628z" fill="url(#c)" stroke="url(#d)" stroke-width="1.0567"/>
 <path transform="matrix(.88341 0 0 1.0345 -10.809 12.811)" d="m54.915 10.22a15.356 12.864 0 1 1-30.712 0 15.356 12.864 0 1 1 30.712 0z" fill="#6d97c4" stroke="#000" stroke-linecap="round" stroke-linejoin="round"/>
 <path transform="matrix(1.5883 .07637 -.083239 1.4572 56.566 -31.13)" d="m-14.746 38.136-5.773 3.7398-0.35228-6.8695z" fill="#fff" stroke="#fff" stroke-linejoin="round" stroke-width="1.5243"/>
</svg>
