<svg height="24" width="24" xmlns="http://www.w3.org/2000/svg">
<path d="m23.693877 4.0311468l.024873 16.0063532-21.4078125-.054688c-.8 0-2.0109375-.182812-2.0109375-.982812l.10557979-14.9987825z" fill="none" stroke="#000" stroke-width=".60000002"/>
<g fill="#e8e8e8" stroke="#000" stroke-width="1.65666655" transform="matrix(.02809391 0 0 .03242333 1.21690817 5.59140787)">
<path d="m346.72501 131.37601l-3.37699 4.501-2.25 2.251-4.501 2.475-.676 2.026c0 0-1.80102 1.801-1.57501 2.92701.22601 1.12601.22601 3.151.22601 3.151 0 0-3.151 2.92599-4.50201 3.82598-1.35099.90001-3.15201 2.92601-3.15201 2.92601 0 0-1.125 1.351-1.79999 1.801-.67499.449-1.79999 1.8-2.70099 3.151-.901 1.351-1.80102 2.25-2.251 2.925-.45002.67501-1.801 2.251-2.47602 4.72699-.67499 2.47701-2.47598 5.40201-2.47598 5.40201l-.45102 1.125c.22601 3.827.22501 4.502.676 5.853.45001 1.35.901.899.45001 3.826-.45001 2.92501-.45001 4.051-.9 5.402-.45001 1.34899-1.80099 3.82501-2.25 4.95201-.45099 1.125.9 3.14999.9 3.14999 0 0 .67599 2.927.225 3.60201-.45001.67599.22501 2.026.22501 2.026 0 0 2.70099 1.57499 3.60199 2.47599.89999.9 2.47601 2.251 2.70099 2.926.22601.67599 2.026 3.82699 2.25101 4.502.22501.67501 2.026 3.15001 2.47601 3.826.44998.676 2.70099 3.15199 2.70099 3.15199 0 0 2.92599 2.24901 3.60199 3.15001.67502.9 2.70102 1.34999 3.375 2.025.67602.675 2.251.449 3.151 1.126.901.67499 2.70102-.451 3.60202 0 .89999.45 3.37698-.45001 4.052-.9.67499-.45 2.25-2.025 3.37598-1.351 1.125.67399 1.80002 0 2.70102.225.89898.22499 2.25-.899 3.14999-.899.901 0 3.151-.901 3.82599-.901.67602 0 2.927-1.352 3.828-1.352.89902 0 2.025-.898 3.15-.44899 1.125.44899.67501-.89901 2.70101-.22501 2.02601.674 2.70099 0 3.37601.674.676.67601 1.577.002 2.25199.902.67501.89901 1.80001 1.57399 2.02499 2.47499.224.90101 1.57501 1.80201 1.57501 1.80201l1.35101.224c0 0 1.80198-1.35 2.25098-.44899.45001.89999 2.47601.67599 2.47601.67599l2.025 2.25.67599.89999c0 0 1.35102 3.60201 1.125 4.95202-.225 1.34999-.225 4.276-.89999 4.95098-.67499.67601-1.125 3.60201-1.125 3.60201 0 0-.901.89999 1.125 2.701 2.026 1.80201 3.37701 3.376 4.052 4.275.676.901 2.47699 3.378 2.70001 4.953.22599 1.575.676 2.47499 1.577 4.50099.89999 2.026 2.02499 2.25101 2.25 4.50302.22598 2.25.67499 2.25098.44998 3.82499-.225 1.57601-.89999 1.80099-.225 2.92599.67501 1.12601 1.574 3.15201 1.35101 3.827-.22501.67501-.676 3.60101-.676 3.60101l-.45001 1.35101-2.02499 3.82801-1.35099 2.02398c-.45001 1.57501-1.35 3.151-1.125 5.40201.224 2.25098-1.125 2.25.67499 4.5 1.801 2.25198 2.70001 4.728 3.82599 6.754 1.12601 2.02499 1.801 4.05099 2.025 5.401.22601 1.35098 1.126 1.802 1.57601 3.60199.44901 1.80099.67499 2.70001.67499 3.82599 0 1.125-.22598 4.052.22602 4.72702.449.67499.67498 2.70199.89999 3.60199.22501.901-.676 1.126.67499 2.70199 1.35101 1.57502 2.251 2.47501 3.151 3.60102.9 1.12601.67502.67498 1.35101 2.251.67499 1.57499 1.57501 2.47699 1.801 3.82599.225 1.35001.449 4.72598 1.125 6.302.67501 1.57599 1.57501 3.15201 1.57501 3.15201 0 0 2.47699 1.57498 3.37698 1.34998.89902-.22498 2.70102-2.249 4.052-1.57498 1.35102.67498 2.47602 0 3.60102 0 1.125 0 2.251-1.35102 3.37698-1.35102 1.125 0 2.70001-1.80099 3.60202-1.35.89999.449 2.02399-.452 3.14999-1.577 1.12601-1.12399 1.801-2.02399 3.82599-3.82498 2.026-1.801 1.801-1.802 3.151-2.927 1.35102-1.12601 2.702-3.60202 4.27701-4.052 1.57501-.44998 2.025-2.02402 2.47501-3.15.45099-1.12601.67499-1.80102 1.35098-2.70202.676-.89899.22501.22802 1.35101-2.69999 1.12601-2.927 2.478-4.05099 3.603-4.72699 1.125-.67501 1.79999-2.02502 2.47501-2.251.67502-.22598 1.80099.67498 1.35098-1.35102-.449-2.02499 0-4.95099-.449-5.626-.45099-.67698-1.12699 1.574-.90098-1.80298.22699-3.375 2.70099-6.75202 2.70099-6.75202 0 0 3.37601-4.276 4.50199-4.95099 1.12598-.67499 1.35-1.35 2.927-2.251 1.574-.89899 4.95102-3.15 4.95102-4.276 0-1.126 1.35098-4.05201 1.35098-4.728 0-.67499 0-1.35001-.449-5.177-.45099-3.82501.449-2.926-.90101-6.52701-1.34997-3.60098-1.57699-8.103-2.47598-9.228-.901-1.126-.45099-4.05298-.45099-4.95199 0-.9 1.577-3.151 2.25199-4.051.67498-.901 3.60101-4.503 3.60101-4.503 0 0 4.50098-5.176 6.077-7.651 1.57598-2.47699 3.151-4.72699 4.276-5.627 1.126-.9 3.82699-2.928 5.40201-5.178 1.57598-2.25 4.72698-6.526 4.95297-7.203.224-.674 2.02401-2.925 2.02401-2.925 0 0 2.47599-2.92701 2.92701-4.502.449-1.57601 2.699-10.35401 2.24899-9.90399-.448.45099-3.14999.89999-4.051 1.125-.89901.22599 1.35199 1.125-5.177.67599-6.526-.451-9.90201.675-9.90201.675-2.027-.451-3.60198 1.80001-4.27798-1.35099-.67502-3.15001-1.12601-4.95101-2.47501-7.20201-1.35101-2.251-2.25201-3.15101-4.276-6.07799-2.02499-2.92501-1.802-1.57601-3.60299-3.82501-1.80002-2.251-2.25101-1.577-3.37601-4.502-1.125-2.926-2.02499-1.80001-3.37601-5.85199-1.35098-4.05301-2.251-4.50301-2.92599-6.75301-.676-2.25-1.57501-2.927-2.026-4.952-.44999-2.026-5.62601-12.37899-6.30201-13.055-.67599-.674-1.80099-4.277-1.57598-3.601.22598.675 3.37698 2.92599 3.37698 2.92599 0 0 1.80002-.67599 2.47601-.67599.67499 0 3.37601 2.477 3.37601 3.37601 0 .901 4.729 5.17799 5.853 8.32899 1.125 3.151 2.47799 5.40199 2.70099 6.302.223.90001 2.47601 4.502 3.37701 5.853.89899 1.351 3.82498 4.05099 4.27499 5.40201.45001 1.35102 4.728 5.85199 4.728 8.778 0 2.92599 2.02399 6.752 2.25 7.65199.22601.89999 4.276 2.02699 4.276 2.02699l5.40299-1.35099c0 0 8.10202-5.178 9.00302-5.178.89898 0 8.104-3.37601 8.104-3.37601 0 0 2.92499-2.69999 4.94998-4.27499 2.026-1.576 4.27698-4.50101 4.72803-5.853.44897-1.35099 1.34998-1.57499 3.14996-3.602 1.80103-2.026 4.27704-4.051 2.70203-5.40199-1.57599-1.35001-2.47699-.90001-4.72699-3.15101-2.25104-2.25-2.026-1.8-3.60199-4.727-1.57605-2.925.22498-6.302-3.15204-2.925-3.375 3.376-2.02499 4.276-5.40198 4.953-3.375.674-4.72702 2.925-6.302.674-1.57498-2.251-3.15002-.9-4.052-4.277-.90002-3.376-1.57602-3.602-1.80002-4.951-.224-1.351 0-1.351-1.80099-4.728-1.79999-3.37601-.44998-8.55301.67502-5.627 1.12597 2.926 2.92599 3.37599 5.85299 5.402 2.92499 2.02501 4.27698 3.602 6.97699 3.82701 2.70099.224 4.952 0 5.40201.44899.44998.451.89999-.224 2.02597.225 1.12604.45101 1.57404-.67399 2.02502 1.125.45002 1.801 2.92603 2.026 4.05103 3.151 1.12598 1.125 1.12598.676 4.05298 1.125 2.927.45099 6.979.45099 6.979.45099l4.27497-.226 4.95202.44901c0 0 3.60303 2.026 4.50202 2.026.89996 0 1.125 2.47701 3.37597 3.827 2.25098 1.35099 2.70099 1.57499 4.05103 3.151 1.35296 1.576 1.12597 2.251 2.92596 3.826 1.802 1.577 4.72901-.224 5.17902-.89799.448-.67601 2.69897-1.80101 2.25098 0-.45099 1.79998 2.24902 1.12399 1.57403 5.40199-.67499 4.27499-1.12604 3.14999 0 6.077 1.125 2.92601 6.07697 11.929 6.30298 14.63.22601 2.701 1.57501 1.801 1.79999 4.278.22601 2.47501 1.57501 3.375 1.57501 5.176 0 1.801 1.57703 2.25 1.80102 3.602.22699 1.351 2.70197.224 3.37702 0 .67596-.226 3.82599-3.15199 3.82599-3.15199 0 0 1.35296-.44901 1.12597-2.70101-.22601-2.249 0-1.8 0-5.17601 0-3.37601-1.34997-3.37599-.67498-6.75099.67498-3.37601 2.47497-5.403 2.92596-6.978.45001-1.57499 2.25104-4.276 3.15003-4.50199.90002-.22501 5.85302-2.70002 6.979-4.27701 1.125-1.575 2.92602-3.37599 4.72699-5.176 1.79999-1.8 4.95099-4.05101 5.62701-3.376.67499.675.45002.44999 1.57599.44999 1.125 0 3.151.901 4.72602 1.12601 1.57598.22501 4.72796 4.05099 5.40301 6.077.67499 2.026.22498 1.57501 2.70099 4.50199 2.47601 2.92501 4.72699 1.12401 4.72699 4.72602 0 3.60201 0 3.37599 1.12598 4.72699 1.125 1.351 2.47503-2.476 3.82501-2.025 1.34998.451 1.57501-.44999 2.70001 3.151 1.125 3.60199 1.79999 3.60199 2.02698 7.20301.224 3.601-.22595.22499-.22595 3.14999 0 2.927-.22602 3.15199.22595 5.85201.44903 2.70298 2.02301 3.60299 1.80005 4.05299 0 0 1.34997-3.826.89898-6.528-.448-2.7 0-6.526 1.12598-7.651 1.125-1.127 2.25201-2.25099 3.151.675.901 2.92501 1.35101.67501 3.37604 4.051 2.02698 3.377 3.82696 2.69999 4.052 4.276.22504 1.57601 1.35297 1.802 2.92596 3.151 1.57599 1.351 2.92603-.224 4.72699-1.575 1.80201-1.351 6.75202-6.30301 6.97901-8.32899.224-2.02501 2.25-1.57601-1.35199-6.75101-3.60199-5.177-3.60199-6.978-7.42798-10.129-3.82404-3.151-6.07605-3.376-3.14905-7.42801 2.92603-4.05198 4.27704-6.752 6.07703-5.62599 1.80102 1.125 4.95001.899 4.95001 5.40199 0 4.50101-.90002 9.45301 2.25098 4.05101 3.151-5.402 4.72802-8.553 3.82599-7.651-.89899.9 2.026-1.80101 2.026-1.80101 0 0 .22601-2.02598 4.05304-2.92599 3.82501-.90199 4.95001-1.351 6.302-2.026 1.34997-.676 5.177-5.178 5.85199-7.20301.67499-2.026 2.47601-5.62699 2.026-7.20199-.45001-1.577-2.70203-9.228-3.15204-9.004-.44897.226-.224.226-3.14899-2.925-2.92797-3.151-4.953-5.40199-5.40295-6.75299-.45001-1.35102-1.57605-1.57601-.22601-3.37601 1.35199-1.8 2.02697-1.575 2.25195-3.151.22406-1.575 2.02405-2.926-1.35199-1.8-3.375 1.125-.89996.451-3.82599.226-2.92596-.226-10.578 1.57501-6.75098-3.151 3.82502-4.727 4.94898-7.652 5.625-7.652.67701 0 4.05298-3.827 4.27698-.226.22602 3.601 1.57501 2.7 1.80103 4.951.22602 2.251 4.72699-2.475 4.72699-2.475 0 0 1.57501.45 2.70001 1.575 1.12598 1.125 1.12598 4.727 1.12598 4.727 0 0-.90003-1.126 1.57598.675 2.47699 1.802 5.17603.9 5.17603 4.72699 0 3.82601 0 4.05201 1.57599 4.95202 1.57703.89999 3.15002.45098 4.50299-.67501 1.35004-1.125 3.60004-5.177 3.60004-5.177 0 0 .22497-1.576-3.37604-3.827-3.60101-2.25-5.85199-3.825-7.20099-4.951-1.35199-1.125-.901-4.501.448-5.853 1.35303-1.351 2.026-2.026 1.57599-3.826-.45099-1.802.67602-3.152 4.052-2.927 3.37604.226 4.05102-.224 4.05102-.224 0 0 .67701.449.67701-.901 0-1.35 4.27496-7.653 3.14898-7.653-1.125 0 .22803-1.575-.45001-4.051-.67499-2.477 2.25104-6.302-.224-8.103-2.47601-1.801-3.15198-2.702-4.72699-5.402-1.57501-2.702-1.35199-3.151-7.203-3.827-5.85199-.675-8.55298 1.351-9.90399-.449-1.35102-1.801-2.02503 2.7-2.92499-2.702-.90003-5.402 1.35095-9.004 1.35095-9.004 0 0 3.60101-2.25 4.5-3.826.90003-1.576 4.50104-2.251 7.43006-1.125 2.92596 1.125 7.20098.9 10.80395 1.577 3.60101.674 3.37604 2.925 5.177 0 1.79999-2.928 0-4.277 1.35004-5.853 1.35199-1.576 2.92596-4.052 4.05096-2.477 1.125 1.577 3.37903 3.151 5.18 1.125 1.80004-2.025 2.47503-2.25 2.47503-2.25l.89801.901c0 0 2.026-1.127 2.026.898 0 2.027 2.02698 4.278.901 5.853-1.12701 1.577-2.70001 1.351-2.70001 5.177 0 3.828 0 3.152 2.474 6.304 2.47699 3.15 4.052.449 4.50202 3.826.45098 3.376.89898 2.702 3.37695 4.952 2.47601 2.25 2.02405 2.25 3.82605 3.601 1.80096 1.351 2.70196 2.702 2.70196.451 0-2.251.22504-3.376 0-5.402-.22699-2.025 1.80103-3.602.448-6.978-1.34997-3.376-.224-3.151-2.92499-5.627-2.70202-2.475-4.50299.451-5.401-3.151-.901-3.601 4.27503-5.177 5.62702-5.627 1.34997-.449 3.37396-3.151 3.82397-1.35.45099 1.8-3.375 8.328 3.15302 1.35 6.526-6.977 3.60101-4.051 3.60101-4.051 0 0 3.37598-.45 4.05096 0 .67402.451 2.47803-2.026 1.79999-1.8-.67499.226-7.19995-3.602-7.19995-3.602l-4.729-2.7c0 0 1.57696-1.126 2.70196-.9 1.12604.225 1.35199-2.251 2.47803-2.477 1.125-.225 8.77698 1.577 10.354 2.477 1.57502.9 7.20099 1.125 6.52497.675-.67499-.451-4.27497-3.151-4.50098-4.052-.224-.9-8.10303-2.701-10.578-2.476-2.47699.224-4.72602.899-6.75202.224-2.02697-.675-4.95196-2.476-6.52795-2.476-1.57501 0-21.38202-3.826-22.28204-3.601-.90002.225-2.25202 4.501-2.92701 3.826-.67498-.675-1.79998-.676-4.953-1.576-3.14899-.9-7.427-1.576-13.05499-2.025-5.62598-.45-9.45099.45-11.02698-1.351-1.57599-1.8-4.95099-1.125-8.77801-1.351-3.82599-.224-8.32801 0-10.35401 0-2.026 0-6.75097-.224-7.87701-.45-1.12604-.226-2.47595-1.801-3.82599-2.025-1.35199-.226-1.12702-.675-3.82697-1.125-2.70105-.451-2.47601-3.376-3.37603-.901-.89997 2.477-.45099 1.801-1.80097 2.701-1.35101.901-2.70105 2.701-3.60205 2.701-.89899 0-4.5.225-5.17694-.225-.67603-.45-1.80103-.9-4.052-.9-2.25097 0-2.25104.224-5.177-.226-2.92596-.45-5.17701-.226-7.87806-1.575-2.70098-1.351-2.70098-2.251-4.95196-2.026-2.24902.226-2.24902-.45-5.40204-.45-3.14996 0-6.97595 1.801-9.00299 2.026-2.02399.225-6.526-.226-8.10199-.901-1.57697-.675-2.026-2.25-7.87897-1.576-5.85205.676-9.22802.676-8.10302-1.125 1.12597-1.8 2.47601-3.601 3.151-3.826.67602-.225 2.25-1.35 1.12402-1.8-1.12402-.451-2.25-1.125-4.95001-1.351-2.70203-.225-2.47803.9-6.52802.45-4.05096-.45 2.25104-1.575-6.07599-1.35-8.328.226-10.354.9-11.25402.9-.90101 0-2.02698-1.8-4.27698.9-2.25098 2.701-5.40399 4.276-9.90399 4.501-4.50098.226-4.72699-.45-9.00202 1.125-4.27698 1.575-6.979-.45-6.078 3.151.89899 3.601 2.026 4.952 2.026 5.627 0 .675-2.026 5.177-4.50098 2.476-2.47802-2.701-6.979-13.28-4.953-6.077 2.02496 7.202 6.526 9.679 2.25098 10.804-4.276 1.125-3.82801-.45-4.50299-.901-.67401-.45 0-3.601-.22501-5.402-.22598-1.8-.67499-2.926-1.57498-3.826-.89902-.901-.676-2.251-2.47601-2.701-1.801-.45-.22501-1.351-3.15101-1.351-2.92599 0-5.401-1.801-4.72598 2.251.67398 4.051 1.349 1.351 3.14899 5.177 1.79999 3.826 5.177 1.125 2.70199 3.826-2.47598 2.701-9.00299 1.801-10.57898.676-1.57601-1.126-1.125.45-4.053-1.576-2.926-2.026-2.02402-3.602-5.4-2.026-3.37601 1.576-4.50201 4.502-5.85299 3.376-1.35098-1.126-4.50101 1.575-5.62702.226-1.12601-1.351-5.62799-1.351-6.52701 0-.901 1.35-3.60199 1.125-7.42798 2.926-3.82601 1.8-2.70202.224-7.428 4.051-4.728 3.826-7.42902 6.977-9.003 4.501-1.57601-2.475-10.13-6.752-6.75302-7.428 3.37702-.675 4.952-2.025 6.75302-.45 1.80102 1.575 4.728 1.126 5.176 0 .44998-1.126 2.47699-2.251-.22501-3.601-2.70099-1.351-2.92599-.451-7.20199-2.026-4.27701-1.576 0-1.125-5.853-2.026-5.85202-.9-8.32901-1.35-9.90402-1.8-1.57398-.45-3.82599 0-6.07599-.225-2.25201-.225-3.82599-.675-5.853-.45-2.02499.225-3.14999-.225-5.85199 1.801-2.70202 2.026-4.72802 2.926-6.52801 4.501-1.79999 1.575-6.526 4.727-7.87699 5.853-1.35101 1.125-6.078 4.726-6.52801 6.077-.45001 1.351.45001 2.476-1.35101 3.376-1.801.9-3.60099.9-4.952 1.125-1.35098.225 0-2.026-1.35098.225-1.35001 2.251-.9 10.354.225 9.228 1.125-1.126.44999-4.726 5.40198-1.349 4.952 3.375 8.10401 2.925 7.87802 6.076-.225 3.151 3.37598 2.926 3.82599 3.602.45001.674 2.70099-.901 2.70099-.901 0 0 4.952-3.151 4.952-4.726 0-1.576 3.151-5.177 3.151-5.177 0 0-2.25199-1.125-2.25199-3.376 0-2.25.67701-2.927 1.12601-5.178.44998-2.25-2.47601.001 4.27698-4.277 6.751-4.276 7.20202-1.349 7.20202-1.349 0 0 .89899.9-.22601 2.25-1.125 1.351-3.151 4.953-3.60101 5.402-.45099.451 2.026 4.052 3.15002 4.052 1.12598 0 3.37699-.901 4.728-.676 1.35098.226 3.60098-.674 4.276-.224.67599.45 2.25098 1.8 1.125 2.926-1.125 1.125-3.60202 2.475-5.401 2.026-1.802-.449-4.50302-3.602-2.927.9 1.57599 4.502-.22501 5.627-1.57602 5.402-1.349-.225-4.276-2.475-3.82599.901.45099 3.375-2.92499 5.626-3.60101 5.626-.67602 0-2.025-.225-2.025-.225 0 0-2.02698-.226-3.151-.226-1.12598 0-3.37698 1.125-4.052 2.026-.676.9-1.57599.226-2.70099.226-1.125 0 0-1.351-2.25101-1.801-2.25-.45-3.60098-.9-4.95099 0-1.35101.9-3.376 1.35-4.277.675-.9-.675.45099-2.252-1.35099-1.35-1.80001.9-3.151 3.376-3.82602 3.602-.67498.224 2.02601 0-.67498.224-2.70102.226-3.82602.902-5.17701 1.351-1.35101.451.44999 3.151-2.026 4.051-2.47601.9-.67401-1.125-3.151.9-2.47601 2.027-2.927 3.827-3.82599 4.052-.901.226-.67501.675-2.70102.9-2.026.225-1.79998.45-2.927.675-1.125.225.22602.676-2.25.225-2.47699-.45-4.27697.451-3.82699 1.351.45001.9 8.77801 3.376 2.47601 3.151-6.302-.225-4.276.9-2.92599 1.8 1.35098.9 2.02499 1.8 2.70098 2.026.676.225 1.79999 2.927 1.79999 2.927 0 0 1.801-.226.676 1.35-1.125 1.576.45001 2.026-.676 4.052-1.125 2.026-1.125.675-2.02499 1.125-.9.449-2.25101 2.026-4.728.675-2.47601-1.351-4.27499-2.026-7.20199-2.25-2.926-.226-.90101-.675-2.926.899-2.026 1.577-2.47601 3.377-2.25 5.402.22498 2.025.44998 4.727-.22601 6.078-.67499 1.35-.67499 2.701-.22599 4.727.45099 2.025 1.80198 2.927 1.80198 2.927 0 0 3.151.449 3.82602.675.67498.225 2.026-.45 3.82598.674 1.801 1.12599 3.60202 1.577 4.72702.226 1.125-1.35 5.62699-2.926 6.97898-4.276 1.35-1.351 2.25-1.8 1.57501-3.151-.67499-1.351 1.35101-4.727 2.47601-5.402 1.125-.675 3.60099-1.351 3.60099-1.351l2.70101-4.051c0 0 2.25098-2.477 3.37598-2.251 1.125.225 7.427 2.477 6.978-.449-.44998-2.927.45001-3.827 1.125-2.702.67502 1.125 2.47601.675 2.47601.675 0 0 .9-.449 1.57501.226.67499.674 1.57499 3.602 2.926 4.276 1.35098.676 2.47598 1.351 3.37698 1.8.9.451 1.801 0 3.60202 1.576 1.79999 1.576 3.60099 2.477 3.82498 3.151.22702.675 1.80201 2.251 1.80201 2.251 0 0 1.57501.45 1.125 1.351-.44999.9-2.69999 3.602-3.82599 4.051-1.12601.45-4.051-.451-2.926.45 1.124.9 2.70099 2.026 3.37598 1.35.67602-.675 4.95102-5.177 4.95102-5.177 0 0-.22501.225 0-1.126.22598-1.349 0-2.925 1.12597-2.25 1.125.676 1.80103 1.576 2.25101.676.45001-.901.9-.45-.22598-1.125-1.12601-.676-3.82602-4.502-5.177-4.727-1.35102-.226-4.728-2.477-4.728-2.477 0 0-.67401-.675-2.25-2.475-1.57602-1.801-2.02502-1.351-2.47702-2.927-.449-1.575-1.80099-3.601.676-3.151 2.47702.45 4.05102 2.025 6.302 3.376 2.251 1.351 1.802 1.8 3.82702 3.151 2.025 1.351 2.25199 2.702 3.82599 2.477 1.57501-.225 3.37699.9 3.37699 2.926 0 2.026.449 4.276.89901 4.727.45099.451 1.79999 1.351 2.25101 2.251.44998.9 1.35098 3.151 2.02499 4.051.676.9 1.35099 1.576 2.02601 2.702.67498 1.12499.89999-.226 1.57498.225.67602.45 1.57602.224 1.57602-.676 0-.9.224-2.476.224-2.476 0 0 3.15298-.9 2.25299-1.351-.90101-.45-3.603-3.151-3.37699-4.051.22498-.9 0-2.7 1.124-2.475 1.126.224 2.25198 2.25 4.72799.449 2.47601-1.801 5.40201-2.701 4.50101 0-.89902 2.701.22699 3.15 0 6.077-.224 2.927.90198 2.026 2.478 3.602 1.57498 1.576 2.69998 1.802 3.82498 2.25101 1.126.45098 2.92602.22599 4.72802.45098 1.801.22501 2.926-.67599 4.50199-.22499 1.574.45 5.17599-.22599 5.85199.22499.67602.45002 3.37701-.89999 3.60101.67501.22501 1.576 1.12601-.22499.45099 3.37601-.67502 3.601-1.57599 6.07699-1.57599 6.07699-2.47601 4.72701-3.37601 5.853-4.50201 6.078-1.124.22499-1.79999.9-3.82498.67501-2.02601-.22602-4.50202 0-7.42801-.67501-2.926-.67601-8.32901.67501-10.57901-.67601-2.25098-1.34999-5.40198-.22499-6.754-1.79998-1.34998-1.57601-3.59998-1.35102-4.50098-2.25101-.90002-.9-1.35-3.375-1.35.226 0 3.602-2.026 3.826-2.47602 5.627-.45099 1.8.67401.9-1.802.675-2.47598-.226-3.151 1.125-6.75198-1.575-3.60202-2.701-5.40201-2.701-7.202-3.82699-1.802-1.12601-3.60202 2.02499-5.40201-1.57502-1.80099-3.60199-4.277-.67599-4.50201-3.60199-.22498-2.927 0-2.69999.22501-4.501.22699-1.801 2.70101-3.37599 1.57601-4.051-1.126-.675-.22601-1.801-1.80102-1.125-1.57599.675-3.82599.9-5.62698 1.575-1.801.67599 4.05099 0-4.72702.67599-8.77799.67501-11.25498 1.57502-11.25498 1.57502 0 0-.67502-.45002-1.80102.44999-1.125.9-2.70099 2.25099-4.27597 1.57601-1.57502-.67601-2.47602-.45101-3.82602-.22501-1.35099.22501-2.25-1.125-3.82599 0-1.57602 1.12399-3.37601 1.575-4.052 1.12399-.67701-.45601-1.80301-2.25599-1.80301-2.25599z"/>
<path d="m497.30499 279.479c-.67499 2.47699-3.151 6.077-3.151 6.077l-4.50299 2.25101c0 0-1.573 1.35098-2.47501 1.57599-.89999.22399-3.151 1.35101-3.151 1.35101 0 0-2.02499-.45102-1.35101 1.574.67502 2.026.901 4.50299.67502 5.17698-.224.67602-.224 2.027-.224 3.828 0 1.80002-.67502 4.05002-1.80099 4.5-1.125.45102-2.25101.901-2.02601 2.47702.22599 1.57599.22599 6.302.22599 6.302l2.927 4.50198c0 0 .89999-.67498 2.70099-.67498 1.79901 0 3.60101-1.57401 3.60101-1.57401 0 0 2.02701.448 1.79999-2.026-.22498-2.47699.90201-5.40201.67502-6.078-.224-.67499 2.027-3.60199 2.027-4.276 0-.676 2.25098-3.82499 2.25098-4.952 0-1.125 1.57501-2.92599 1.80002-4.27499.22498-1.35202.44998-4.50202.89999-5.40201.45099-.9.676-1.801.676-2.70099 0-.89999 0-2.70102 0-2.70102z"/>
<path d="m673.54401 309.866c-.67499.89901-1.125 10.57901-1.57502 11.70401-.45002 1.125-1.35101 6.97799-.89898 8.32699.44897 1.35199 1.12402 6.30301.67499 7.879-.45099 1.57501.22503 6.52701-.90198 6.302-1.12403-.22601-1.573.22599-1.573.9 0 .67599 1.573 2.02499 1.573 2.02499 0 0 2.703.001 3.828-.22497 1.125-.22501 3.37598-1.35102 5.177-1.35102 1.80102 0 2.927-1.35101 4.50098-1.35101 1.57599 0 4.953-1.12399 5.85303-.67499.89996.44901 2.25-2.70099 3.82599-2.02499 1.57598.67498 4.953-1.57602 6.52801-1.57602 1.57397 0 2.25098-2.47699 4.052-2.025 1.79999.45002 5.177-.89999 6.75299-.22699 1.573.67701 4.05097-2.25 5.17597 0 1.12603 2.25199 4.50305 3.15201 4.50305 4.27701 0 1.125-.22803 3.60199-.22803 3.60199l2.70203-.22601c0 0 4.27496-2.70099 4.95196-2.70099.67499 0 2.25098-2.25 2.25098-1.12399 0 1.12399-1.35199 3.60199-1.80096 4.72598-.45002 1.12601.44897 2.47702.44897 2.47702 0 0 2.25299 1.125 1.35199 3.14999-.90094 2.026.22406 1.577 0 3.151-.22595 1.57599 0 .9.89801 1.79999.90204.901 2.479 2.47901 3.828 2.25202 1.35199-.22602 1.79999-1.57502 2.92603-.9 1.125.67499 3.375.22498 4.04999 1.12598.67797.89902-4.27503 3.15002 4.27801-.67499 8.55298-3.828 9.45099-4.728 10.57697-6.07901 1.12903-1.35 2.479-2.69998 3.37701-3.60098.901-.89999.22699-.67502 2.92603-2.70102 2.70099-2.02499 2.70099-1.125 5.17895-4.952 2.47601-3.82498 4.27503-5.17599 4.72705-5.85199.44995-.67599 1.34998-.89999 1.57495-3.60299.22504-2.70001 2.02503-5.176 2.02503-6.07602 0-.89899.67499-2.24899.45001-3.82599-.22504-1.57599.901-3.82501-.45001-6.07599-1.35102-2.25201.67499-3.15002-1.35102-4.05301-2.026-.89999-3.37597-.449-3.82598-2.02499-.45099-1.57602-2.25202-1.35102-2.92701-5.62702-.67499-4.276-3.37597-4.72799-3.37597-4.72799 0 0-2.70099-1.125-2.026-1.57401.677-.45099.901-3.603.677-4.50299-.22601-.89999-.22601-2.92599-.90003-4.27499-.67498-1.35202-1.12597-3.151-1.80096-4.728-.67505-1.57501-1.80005-2.026-2.25104-3.82602-.45099-1.80002-1.12597-2.47699-1.34997-2.92599-.22699-.44999-.67804-2.69999-1.12604-.22599-.44995 2.47599-1.35199 7.202-1.35199 7.202 0 0-1.80097 3.828-2.47601 4.953-.67499 1.12399-1.34998 4.051-2.47498 3.82498-1.12598-.225-1.80298 1.12702-2.70099.9-.901-.22599-2.25104.22601-2.92602-.44898-.67499-.67602-2.47602-2.47601-3.37702-2.70202-.89996-.224-1.57495-2.02399-2.25097-2.02399-.67701 0-1.80103-1.577-1.57502-2.47699.224-.90002.44904-2.92502.67499-3.82602.224-.89999 1.57605-2.927 1.57605-2.927 0 0 0-1.34998-1.12604-1.34998-1.125 0-1.35101 0-3.82696-.22601-2.47504-.22601-3.14905-.45001-4.052-.45001-.89801 0 .90197-.44998-1.57502.225-2.47497.67701-3.60101 2.47702-5.177 4.05301-1.573 1.57502-.224 1.124-1.573 1.57502-1.35302.45098-1.12597-1.12601-2.02697 1.35098-.901 2.47601.45098 3.14999-.22705 3.60101-.67499.45099-5.39997-1.57501-5.39997-1.57501 0 0 1.125-.22601.224-1.35101-.89899-1.12598-1.79999-2.69999-3.14899-2.025-1.35302.67502-2.479 1.12601-3.37701 2.25101-.901 1.125-.901 2.02499-1.57599 2.92499-.67505.90002-2.47504.90002-2.70105 1.80102-.22497.901-.22497 3.151-.89899 3.37598-.67498.22601-.89996-.89798-1.57501-1.12399-.67499-.22501-.45099-2.02601-.89996-.9-.45001 1.125-.90003.89899-1.57501 2.70001-.67701 1.801-.901 3.37699-1.57599 3.60199-.67499.22599 0 .44999-2.02704 1.57599-2.02399 1.125-2.47498 1.125-5.39996 2.47602-2.92499 1.35098-2.25 1.35098-4.276 1.57498-2.02503.22601-2.47699.901-3.82703 1.126-1.35199.22501-2.25.44901-3.60199 1.80002-1.34998 1.35099-2.47498 1.79999-3.375 2.026-.90002.22601-1.80499 1.12699-1.80499 1.12699z"/>
<path d="m686.823 220.95799c-.89899 1.35201-3.82501 5.402-4.95001 5.62799-1.12598.22402-2.25202 1.35102-3.15198 1.125-.89996-.22602-2.92603 0-3.60101 2.92601-.67498 2.92601-1.80103 4.502-2.47797 4.276-.67505-.225 1.125 4.27601-2.70001 2.47699-3.82502-1.80099-2.47504 1.57601-2.92603 2.47701-.45001.899.67499 3.37601.90003 4.276.22699.89999.89996 2.476 1.80096 3.825.90002 1.35099 1.57501 2.92601 3.151 2.47799 1.57599-.45199 6.526 0 6.526 0 0 0 1.80304.67501 2.927.67501 1.125 0 1.35102-.45 2.02503-.45.67401 0 2.02496-2.252 1.80096-2.476-.22497-.227-.89898-.901.45001-2.252 1.35102-1.35099 2.92603-1.8 3.15204-3.376.22498-1.575-.45001-1.575.22498-2.47699.67499-.90001 2.25-.67301 1.80102-1.57502-.45105-.89999.44898-.67498-.45105-2.47699-.89898-1.8-2.026-2.47599-1.12597-4.727.901-2.25 1.80298-2.701 1.57702-4.051-.22601-1.352 1.125-1.80101-.45105-3.37699-1.57397-1.57401-2.25-2.02501-3.37597-2.47701-1.125-.448-1.125-.448-1.125-.448z"/>
<path d="m730.93903 243.467c.90197-.225 4.052-2.476 4.27801 1.576.22498 4.05099.448 2.925 1.80097 5.17599 1.35003 2.25101 2.24804 2.92801 3.82403 1.80201 1.57501-1.127 3.37598-1.127 3.82599-3.151.45099-2.02601.45099-2.02601 1.80103-2.02601 1.35296 0 1.80096-.22499 2.479.67701.67395.89801 1.12195-.002 4.04999 1.574 2.92596 1.57601 5.401 1.12399 7.20398 2.70101 1.80102 1.57499 2.70099 1.35198 5.17602 2.25099 2.47595.90001 1.34998-.45 3.60095 2.026 2.25202 2.475 1.35303 3.14999 2.47602 4.276 1.125 1.125 2.02704-.901 1.57599 1.79999-.45105 2.70099-3.60096 0 1.12603 3.82501 4.72602 3.828 5.40198 4.504 6.97602 5.62799 1.57696 1.12601 2.70196 2.47702 1.35296 2.47702-1.35296 0-5.62799 0-6.07696-.67599-.45105-.67502-2.47602-1.12601-3.82801-2.70102-1.34899-1.57401-4.27502-2.70099-4.94903-4.051-.677-1.35199-1.57697-1.80099-2.70197-1.80099-1.125 0-2.25 1.35-3.82702 2.92599-1.57599 1.57501-.89801-.89899-2.92603-.22501-2.02698.676-4.27496-.22598-5.40198-1.126-1.12597-.9-.89898-2.25-2.69897-1.57498-1.80304.67498-2.92603.225-2.25104-1.125.67499-1.35202.224-3.15201.224-3.15201 0 0 .677-2.25101-.89801-2.70001-1.57599-.44898-1.57599-2.02498-3.15198-2.47699-1.57696-.44899-4.05096-1.575-4.05096-1.575 0 0-.22504 0-.901-.22501-.67505-.22599-.67505-.22599-2.47602-.67498-1.79998-.45101-3.15203-.002-4.05102-1.12601-.90198-1.125-.45099-2.70101-.45099-2.70101 0 0 3.60101.45002 0-2.25099-3.60101-2.69999-3.60101-2.69999-3.60101-2.69999 0 0 .448-.226.224-.67601-.22699-.452 2.24701 0 2.24701 0z"/>
<path d="m629.65302 224.784c0 0 1.125 1.127 2.92602.901 1.79999-.226 3.14899 3.601 4.27698 4.951 1.12402 1.351 1.80102 2.026 4.276 3.60201 2.47497 1.57499 2.25-1.35102 5.62701 3.37599 3.37598 4.726 1.79999 1.80099 3.37598 4.726 1.57501 2.929 2.47601 4.503 3.37598 5.18.89904.67501 1.57605 2.474 1.802 3.15.224.675 1.79901 2.7 1.79901 3.37601 0 .67498.45105 2.47599-.89899 4.05097-1.35101 1.57602-2.47699 1.80103-2.47699 1.80103 0 0-2.70099-1.35101-3.60101-2.70102-.901-1.34999-2.02502-2.476-3.60199-5.17599-1.57501-2.702-3.37598-5.62799-4.276-6.978-.90003-1.35201-2.25098-2.703-2.92603-4.052-.67498-1.35199-2.47601-5.402-3.37597-5.853-.89996-.451-1.12604-1.8-2.70203-3.37601-1.57397-1.57599-1.34997-2.92599-2.02496-3.82599-.67499-.9-2.25-2.928-2.25-2.928z"/>
<path d="m191.868 400.35001c-1.57599-.9-4.952-2.47599-6.077-3.37601-1.125-.89999-4.50101-5.854-4.50101-5.854l-2.47699-4.72699c0 0-2.925-3.60099-2.25-4.95099.67501-1.35102 2.026-2.25101 2.026-2.926 0-.67499 1.35-2.47702.224-3.151-1.125-.67602-1.125-.90002-1.80101-2.92602-.67498-2.025-.67498-3.82798-1.57499-4.27698-.901-.44901-1.57601-3.37601-2.476-3.60102-.9-.22598-1.801-1.80099-1.801-1.80099l-1.35099-18.23199c0 0-.45101-8.327-.90001-10.129-.45101-1.80002.675-5.62601-.45101-9.00302-1.125-3.37598.22602-7.42701-.44999-8.77799-.67501-1.35101.44999-5.17599-.225-8.77701-.67499-3.60102 2.70099-8.10299 0-9.453-2.701-1.35199-.675-3.37701-2.92601-3.37701-2.25 0-3.82598-1.12598-5.85199-2.69999-2.026-1.57601-5.85301-4.50299-6.97801-5.62899-1.125-1.124-4.72699-4.051-5.85199-4.95102-1.125-.9-2.251-4.72699-3.151-5.853-.90001-1.12399-1.35-4.5-2.701-6.526-1.351-2.02499-3.151-5.401-3.60201-6.077-.44999-.67498-5.40199-6.527-5.40199-6.527l.45-3.60099c0 0 3.376-2.026 2.92601-2.701-.45001-.676.226-1.35201-1.35102-2.701-1.57598-1.35199-1.35099-3.82799 0-4.952 1.35102-1.127 3.37601-4.728 3.37601-4.728l3.37599-5.626c0 0 2.70201-2.928 2.70201-4.95301 0-2.02501 3.82599-3.375 1.575-5.17599-2.25101-1.802-1.125-3.377-1.80099-4.728-.67601-1.35001-.22501-2.25 1.80099-3.601 2.026-1.351 5.62698-6.302 5.62698-6.302 0 0 2.70101-.67599 3.37601-.67599.675 0 1.801-7.20401 3.82701-2.47701 2.026 4.72701 2.70099 2.25099 2.026 5.627-.67601 3.37601.9 2.702 1.79999 1.802.90001-.90201-.451.675 1.35001-3.378 1.79999-4.051 1.126-5.40101 2.25099-4.275 1.125 1.12599 1.575 1.351 3.60101 2.026 2.025.67501 2.70099.44899 3.375 1.80001.67501 1.35099.45101-.45002 4.277.22599 3.82598.676 9.22799-1.35099 8.553.89901-.675 2.25099-2.026-.22501 1.125 2.25099 3.15101 2.477 3.60199 2.92599 5.402 3.377 1.8.44999 3.376.225 6.078 2.92601 2.701 2.69999 3.37601 2.92599 4.051 4.27499.675 1.35201 1.8.451 2.92601 1.801 1.125 1.352 2.70098 1.352 4.276 1.352 1.57499 0 0-1.352 2.47599.45 2.47699 1.8 4.277 2.024 5.402 5.626 1.125 3.60399 3.376 3.377 1.57499 6.97899-1.79998 3.60201-5.401 5.17701-3.82598 4.95201 1.57499-.22599 4.50199-1.57701 5.40199-1.35099.90001.224 1.35-.67501 2.701 0 1.351.67501 1.57601-.90001 1.351.67498-.226 1.57601-.226 0-.226 1.57601 0 1.575-.44999-1.57601 2.25099-.9 2.70101.67501 1.125-1.352 4.276 1.575 3.15201 2.927 3.15201 2.02699 4.27601 3.60201 1.126 1.57399 2.251-.89901 2.927-.22501.676.674 2.701.224 4.727.675 2.026.44899.67501-1.35 3.827.67501 3.14999 2.02499 6.302 1.34999 6.977 3.151.67501 1.79999 2.47699 1.125 3.376 2.25099.89901 1.12599 1.34999-.451 2.25099 1.12599.90002 1.57401 3.60202 1.12402 3.151 2.69901-.45099 1.57699.67401.67599.224 2.92599-.44898 2.25302-2.026 5.854-3.375 6.75302-1.35099.901-1.34998 2.026-2.25099 3.151-.9 1.12699-.67501-1.125-1.801 2.026-1.125 3.15198-.89999 3.60199-1.8 6.52698-.90001 2.92499-.22499 0-.9 2.926-.675 2.92602-.225 4.72702-.90001 8.104-.67498 3.375-.44999 3.37601-.89999 5.85202-.45 2.47598 1.125-1.12402-.901 4.051-2.02499 5.178-2.25 4.95098-2.925 7.203-.676 2.25198.225.44998-2.251 1.80099-2.47599 1.35199-1.125.9-4.052 1.801-2.925.89999-6.52701 1.802-7.65201 2.026-1.125.224-5.62699 1.57501-4.276 4.27499 1.35102 2.702 1.35102 3.15201 0 6.52899-1.35099 3.375-3.37599 4.50202-3.37599 6.07602 0 1.57499-.901 3.15-1.125 4.27601-.226 1.126 2.025-1.12601-.675 2.251-2.70101 3.37598-2.926 2.47598-3.827 4.50199-.90001 2.02499 0 .449-.90001 2.02499-.89999 1.57501-3.151 2.25-3.151 2.25 0 0 .22402 1.12601-.67599.67603-.901-.44901-.67501.22497-4.052-.67603-3.376-.89999-3.82599-3.14899-4.276-1.57498-.45 1.57498.225 2.47699 2.251 4.052 2.025 1.57599 5.40199 2.02499 4.50099 3.60199-.89999 1.57599-.89999 1.57599-1.57499 2.47601-.676.901.90001.22498-.676.901-1.57499.67499-2.476 3.60199-3.151 3.60199-.675 0-1.12601 1.125-2.026.67499-.89999-.45099-3.14999-2.026-3.601-1.12598-.44999.89899-1.351-1.126-1.126 2.025.22599 3.151.67601 4.95199-.45 5.62799-1.125.67499-3.827 0-3.827 0l-.44999-1.12601-1.57502.45001c0 0-.67498 2.70099.45002 3.15101 1.125.44998.89999.89898 2.02499 2.25 1.12601 1.35098.451 3.82699.451 3.82699 0 0 0 .676-1.125 1.801-1.125 1.125-1.576 2.026-1.80101 2.70099-.22599.67501-1.57599 3.60202.45002 3.376 2.02499-.22598 3.60199-1.35098 3.60199 2.25101 0 3.60101.9 2.702-.225 5.177-1.126 2.47601-2.026 2.70099-2.251 4.95102-.224 2.25098.226 2.47598.67601 3.827.44999 1.35098 1.57599.67498.44999 1.35098-1.123.67499-4.499.001-4.499.001z"/>
<path d="m133.79601 217.132l-1.575-2.25c0 0-.675-1.352-1.801-1.576-1.126-.224-3.602-3.151-3.602-3.151 0 0-1.125-.9-1.125-2.47501 0-1.57599-.901-4.05099-.226-6.752.676-2.69999.901-6.07699.676-6.97799-.226-.9 1.125-1.125-.45-2.026-1.576-.9-4.72701-1.125-6.75301-1.125-2.025 0-4.50199.67601-4.952.90001-.45.22499 2.476-6.752 2.926-7.877.45-1.125 2.476-6.07801 2.476-6.752 0-.67601.675-.901-.675-1.80001-1.35-.901-3.601-1.35099-4.952-.67601-1.35.67601-1.125-.89999-2.25 1.80001-1.125 2.70199-2.251 5.628-3.602 6.078-1.35.451-4.051 1.80099-4.051 1.80099 0 0-3.376-.22499-4.502-.44999-1.125-.22499-5.852-2.70101-6.752-4.276-.9-1.57601-1.35-4.95301-1.35-6.527 0-1.576 2.475-6.302 2.25-7.428-.225-1.125 2.477-5.627 2.251-6.303-.226-.675.45-2.92599 1.125-3.826.675-.90001 4.052-2.026 4.95201-2.926.9-.901 2.476-2.02501 4.051-2.476 1.575-.45099 2.927-.9 4.052-.9 1.125 0 4.051-2.476 4.501 0 .451 2.475 2.477 1.57499 3.602 1.8 1.125.226 1.351 1.351 3.151-1.575 1.801-2.927 3.601-3.82699 3.601-3.15201 0 .67601 2.926-.224 3.376.45101.45.67501 1.351-.45101 2.926.90001 1.576 1.35099 3.826 1.57599 3.601 2.25-.22499.67498.90001.67498.90001 1.35099 0 .67499.901-1.576.901 2.475 0 4.052 1.125 6.528 1.125 6.528 0 0 1.57499 3.37699 2.25 2.701.67499-.675 2.02499-2.47501 2.02499-2.47501 0 0 2.25099-1.35099.676-6.07798-1.57599-4.72602-.45-6.07702-.9-7.653-.451-1.57601-.451-2.47701 2.25-4.502 2.70101-2.02501 9.228-6.52701 10.804-7.42701 1.575-.9 5.176-3.376 5.176-3.376 0 0 1.35-.67501 1.576-2.476.22499-1.8 4.50099-4.952 4.72701-5.852.226-.9 3.15199-3.15 3.15199-3.15 0 0 3.14999-1.802 2.925-2.926-.225-1.125 4.052-3.15 4.72699-3.15.67501 0 4.27701 1.124 4.27701-.902 0-2.025 0-2.476 2.25099-4.276 2.25-1.8 5.17601-4.502 6.302-4.502 1.125 0 4.95202-2.024 6.52701-2.475 1.57601-.451 6.528-2.702 2.026 0-4.502 2.7-1.576 1.125-2.47599 3.376-.89901 2.25-1.57601 5.177 2.70098 1.8 4.27701-3.376 4.05101-4.052 5.627-4.276 1.57601-.225.45002.675 3.82601-.451 3.377-1.125 3.602-1.575 3.602-1.575 0 0 1.57601-1.351.67501-2.025-.90001-.676.901-1.576-2.476-.226-3.37601 1.351-3.151 1.576-5.40201.9-2.25-.675-5.627-.451-3.151-2.702 2.476-2.25 5.627-2.926 3.601-3.826-2.025-.9-7.202.226-7.877.45-.676.225-2.25099-.225-3.60201 0-1.34999.225-.89999-1.799 0-2.25.901-.451 3.82701-1.802 7.42801-2.702 3.601-.9 12.38001-1.125 14.405-1.125 2.02499 0 4.726.451 6.302-.675 1.575-1.125 4.72701-2.925 5.177-3.827.45099-.9 2.251-2.25 2.251-2.25 0 0 2.02501-2.026.90001-2.926-1.125-.9-2.25101-2.926-3.15101-2.476-.9.45-.22399 3.152-2.025.225-1.801-2.925-1.57599-3.376-2.476-4.051-.9-.675-1.801-.226-1.125-3.376.675-3.151.44999-4.502.44999-4.502 0 0 .67501-2.7 0-2.925-.67599-.226-1.125-.9-2.25-.226-1.12599.675-7.42799 3.827-8.778 4.502-1.35099.675-3.15199-2.701-2.47699-4.276.676-1.577.225-.676-.675-2.926-.89999-2.251-4.50101-2.702-5.852-2.702-1.35099 0-4.501-2.026-5.402-.675-.90001 1.35-5.626 5.626-6.528 6.077-.90001.451-2.25-3.826-2.925 3.151-.67599 6.979 2.476 9.004-1.125 9.454-3.601.45-6.75301 2.475-6.75301 2.475 0 0-2.92498.226-2.92498 2.026 0 1.802-1.125 6.077-2.47701 6.527-1.35.451-4.727-.224-5.852-1.575-1.125-1.351.22499-6.302.22499-6.302l2.026-2.026c0 0-14.40498-2.25-14.18099-3.151.226-.9-4.276-2.475-4.72599-3.826-.45002-1.351-.67601-4.277-.22501-5.402.45-1.125 6.52699-6.527 9.67799-7.652 3.151-1.126 8.55301-3.601 10.12902-4.052 1.57599-.45 4.27598-.225 5.17698-1.35.90001-1.126 1.125-3.151 1.125-3.151 0 0-.44999-3.152.45002-2.702.89999.451 2.47599 1.126 2.70098 1.801.226.675.226 2.251 1.80101.449 1.57599-1.8 3.60199-2.476 5.402-3.375 1.80099-.901 4.501-.675 6.078-1.575 1.575-.9 4.276-1.801 4.50101-4.052.22499-2.25-.67501-1.575-1.80101-1.801-1.125-.224.44999.226-3.37599 2.026-3.82702 1.8-2.70101.45-5.40201 1.8-2.70101 1.351-2.927 1.576-3.151.451-.226-1.126.44999-2.926.44999-2.926 0 0 .22602-.226-1.34999-.675-1.576-.45-1.576.225-1.80101-1.8-.22499-2.026 1.125-4.952-1.125-4.052-2.25099.9-4.27598-.675-5.85199 3.826-1.576 4.501-6.97799 9.229-8.32901 8.103-1.35-1.125-1.57499-1.351-2.701-1.351-1.12601 0-2.70101-1.35-4.72701-1.575-2.026-.225-8.10398-.225-9.67799 0-1.576.226-3.37601-.9-4.728.451-1.35 1.35-3.375 3.151-3.375 3.827 0 .675-2.026-2.477-2.701-2.251-.675.225-2.47701-.9-4.50099-.9-2.026 0-3.37702-1.126-4.05101-1.126-.67501 0 .67399-1.801 0-2.026-.67501-.224-15.307-.675-15.307-.675 0 0-4.726-1.8-6.526-1.575-1.801.225-6.752.449-10.58 1.125-3.827.675-9.454 2.926-11.254 3.151-1.801.226-5.852.226-6.527-.9-.676-1.125.225-.9-.676-1.125-.9-.224-.224-.675-2.25-2.25-2.026-1.576.901-2.926-3.151-2.926-4.051 0-6.527-.226-10.128 0-3.602.225-11.029 2.025-11.929 1.8-.9-.225-8.103 1.126-9.229.451-1.125-.676-6.753 2.475-7.877 2.25-1.125-.225-5.402.226-6.527.901-1.126.676-6.528 2.025-4.727 3.151 1.8 1.125 1.575 2.25 1.8 2.926.226.675-1.8 2.25-1.8 2.25 0 0-.451 0-2.926-.9-2.476-.901-5.177-1.35-6.303-.675-1.125.675-3.151 2.027-2.701 2.927.451.9 3.601 2.926 4.052 2.25.45-.675 1.576-2.025 2.926-1.8 1.351.226 3.377-.9 1.576 1.351-1.801 2.25-3.377 3.376-4.502 3.602-1.125.224-3.826.449-6.302.675-2.477.226-2.252-.9-4.502 1.351-2.25 2.25-3.151.9-3.601 3.376-.45 2.475-.9 2.475 0 3.151.9.675-1.801.9.225 1.575 2.025.676 4.501 1.351 4.276 2.025-.226.676 2.251-.899.9.9-1.351 1.802-2.25 3.376.45 1.576 2.701-1.8 4.276-.451 6.527-1.576 2.251-1.125 4.502-1.35 5.852-2.25 1.351-.901 2.026-2.25 4.052-2.927 2.026-.675.675.226.9 1.351.225 1.125 0 1.35 1.351.449 1.35-.9 1.35-.224 3.151-1.35 1.8-1.125 3.826-2.251 5.177-1.576 1.35.676 1.8.676 2.701.676.9 0-1.125-.226.9 0 2.026.224-.9-.676 5.852.9 6.75301 1.575 8.554.45 9.00301 2.926.451 2.476 1.351-.226 2.476 1.35 1.125 1.575 1.801.226 2.476 2.926.675 2.702 0 10.129-.45 11.029-.45.9-.675.9-.45 2.926.225 2.025 2.926 11.705 2.026 12.379-.9.674-2.926.9-2.926.9l-1.125 4.051c0 0-1.8 3.376-3.376 5.177-1.576 1.8-3.601 4.052-4.72701 5.626-1.125 1.576-2.026 4.278-3.601 5.853-1.575 1.575-2.926.9-2.476 4.276.45 3.376 0 6.977.45 9.454.451 2.47599 1.576 5.85202 2.476 7.203.9 1.35 1.576 1.35 3.151 2.475 1.576 1.125 3.602 2.47699 3.376 3.60199-.225 1.125.225 8.10401.225 8.10401 0 0 1.351 2.25 1.575 4.726.226 2.477 1.801 4.95201 1.801 4.95201l1.35101 2.92698c0 0 .675.22602 1.57599 2.02501.90001 1.801.90001 1.801 1.125 2.70002.226.90199.226.67599.226.90199 0 .224-.226-3.82701-.676-4.953-.45-1.125-.45-2.475-.9-3.82599-.45-1.35102.225-2.92702-1.125-4.95201-1.35-2.02501-1.35-2.25101-2.025-4.27701-.675-2.025-1.576-4.276-.675-4.72701.9-.44899 1.575-3.375 3.376 0 1.8 3.37601 2.026 2.47701 2.251 5.17801.224 2.70101.9 3.60201 1.575 4.726.675 1.125 2.25 4.953 3.151 6.52701.9 1.57599 0-.90001 2.025 2.25099 2.026 3.151 2.252 3.826 3.377 6.302 1.125 2.476 1.801 2.476 2.47601 4.276.675 1.802.225 1.351-.226 3.37599-.45 2.02501.45 4.27701.45 4.27701 0 0 3.151 1.125 3.37599 1.80001.225.67498 3.376 1.79998 3.82701 2.70098.45.901 3.376 2.02501 3.376 2.02501 0 0 2.476 1.57601 3.375 2.026.901.45 3.603.90101 3.603.90101 0 0 1.8.45098 2.475.67498.675.22501 2.701.22501 2.701.22501 0 0 1.801-1.35001 2.476-.89999.675.44898 2.251-.90101 2.926.22399.675 1.126 2.026 1.126 2.701 2.027.675.90001 1.35.90001 2.476 2.02501 1.126 1.125 2.251.89999 3.376 1.79998 1.125.90001 2.025.90001 3.376.90001 1.35 0 1.35 0 2.251.226.899.22501 1.35-.67599 2.25.451.9 1.125 1.575 1.79999 2.25 2.92499.675 1.125 2.251 1.125 2.476 2.92601.225 1.80001.675 1.577.675 3.151 0 1.57599.9 2.251 1.576 2.702.674.449 3.15 2.699 3.15 2.699l3.37601.676 2.70098 2.026z"/>
<path d="m205.935 8.03l13.505-1.688c0 0 4.726 0 7.09-1.688 2.36301-1.688 0-1.688 7.09-3.038 7.09001-1.351 5.065-2.026 8.779-1.351 3.713.676 4.726.676 8.778 1.351 4.051.675 5.064-.337 8.77701.675 3.71399 1.013 5.40198.675 8.44098.675 3.03802 0 4.72702 0 9.453 0 4.72702 0 9.116-2.701 10.80402-1.013 1.68802 1.688 2.70099 1.013 8.44098 1.688 5.73901.675 8.10302-.676 10.466 0 2.36401.675 6.41602-.337 11.142 0 4.72601.337 7.09-.337 8.77801-.337 1.68801 0 3.375-2.364 5.73899-.338 2.36401 2.026 5.40201-.675 5.73901 2.026.33801 2.701 4.72699.675.33801 2.701-4.389 2.026-3.71402 1.688-6.75302 4.389-3.03799 2.701 2.026 5.064-4.38897 7.428-6.41501 2.363-7.42801-1.351-9.11603 2.701-1.68799 4.051 0 5.064-.33698 7.09-.33801 2.025-1.013 2.363-3.039 4.051-2.02502 1.688-2.02502 0-6.75201 1.013-4.72699 1.013-8.103 2.026-10.12799 2.026-2.02601 0-6.41501 1.688-7.766 2.363-1.35101.676 2.36399 1.688-4.72702 3.714-7.08999 2.026-8.77899 1.689-10.80398 4.389-2.026 2.702-1.35101 3.04-2.70102 4.728-1.35098 1.688-5.40198 8.441-7.42798 6.753-2.02502-1.688-3.039-1.351-4.72702-3.039-1.68799-1.688-2.70099-4.051-3.71399-5.402-1.013-1.351-1.351-4.727-1.688-6.753-.337-2.026-3.377-6.752 0-6.077 3.37599.675 5.40199.338 6.41499-.337 1.013-.676 2.026-3.039 2.026-3.039 0 0-.337-3.714-1.35098-5.74-1.013-2.026-.33701-3.714-2.02502-5.739-1.68799-2.026-1.68799-1.688-4.05198-3.714-2.363-2.026-1.68802-3.039-5.402-3.376-3.71401-.337-4.72701-1.351-6.07801-1.013-1.35.337-5.739-2.364-1.013-2.701 4.72701-.338 9.116.337 9.116.337 0 0 6.077-2.701 4.052-3.038-2.02499-.338 3.038-3.377-1.688-2.364-4.72701 1.013-10.12799 2.364-11.47901 2.701-1.34999.337-4.72699.675-8.10299 1.688-3.375 1.013-7.428.676-9.45301 3.039-2.026 2.363 0 2.701-2.026 2.363-2.02499-.337 1.68801-2.363-3.03799 0-4.72701 2.364-3.37599 2.026-5.739 1.351-2.364-.675-4.052-1.688-4.052-1.688 0 0 3.04001-.338-1.35001-.675-4.38899-.337-4.38899-.337-6.07699-2.364-1.68801-2.026-.67501-2.026.337-2.701 1.01399-.676 1.689-2.027 1.689-2.027z"/>
<path d="m198.507 23.223c-1.688 1.688-5.74 4.052-4.72599 5.065 1.013 1.013 1.68798 4.727 3.71399 3.714 2.025-1.013-.338-4.389 7.427-1.688 7.766 2.701 7.08999-.337 8.778 3.714 1.688 4.051 3.03801 7.089 2.02501 8.103-1.01201 1.013-1.35001 2.026-4.72701 3.039-3.37601 1.013-4.727 2.364-2.36301 4.051 2.36301 1.688 6.75301 3.376 8.778 4.39 2.02601 1.012 8.10302 1.351 5.06402-2.025-3.039-3.376.67498-4.39.67498-4.39 0 0 5.74001 4.39 3.71501-.675-2.026-5.064-3.37699-5.064-2.026-5.064 1.35099 0 4.051 1.688 4.051 1.688l1.351-2.701-1.351-4.389-4.38899-4.389c0 0 3.71299-3.376-1.35102-4.051-5.06399-.675-4.72699-.675-7.42799-2.364-2.70101-1.688-3.038-2.363-8.103-1.35-5.06399 1.013-6.752 1.688-6.752 1.688z"/>
<path d="m123.218 27.275c2.026-2.026 7.428-6.752 9.454-5.402 2.02501 1.35 5.063-1.013 7.427 1.013 2.36301 2.026 5.06399 4.389 7.09 5.064 2.026.675 4.389-1.688 6.415-.675 2.025 1.013 9.11499-5.064 7.765-.337-1.35099 4.727 1.68801 6.077-2.026 6.415-3.714.338-7.765 3.039-9.45399 2.026-1.68801-1.013-3.039-2.026-5.74001-.675-2.701 1.35-1.35 1.35-4.38901.675-3.03799-.675-3.71299.675-4.388-.338-.67599-1.012-2.70098-.675-2.36399-3.714.337-3.038 1.35-2.701-.676-2.701-2.02499 0-3.713.338-5.064-.675-1.35-1.013-4.05-.676-4.05-.676z"/>
</g>
<path d="m1.9 18c .8 0 1.6.2 1.6.8v-15.2c0-.6-.8-.8-1.6-.8-.8 0-1.59999999.2-1.59999999.8v15.2c0-.8.79999999-.8 1.59999999-.8z" fill="#fff" stroke="#000" stroke-linecap="round" stroke-linejoin="round" stroke-width=".60000002"/>
</svg>
