<?xml version="1.0" encoding="utf-8"?>
<!-- Generator: Adobe Illustrator 16.0.0, SVG Export Plug-In . SVG Version: 6.00 Build 0)  -->
<!DOCTYPE svg PUBLIC "-//W3C//DTD SVG 1.1//EN" "http://www.w3.org/Graphics/SVG/1.1/DTD/svg11.dtd">
<svg version="1.1"
	 id="svg2" xmlns:dc="http://purl.org/dc/elements/1.1/" xmlns:cc="http://creativecommons.org/ns#" xmlns:rdf="http://www.w3.org/1999/02/22-rdf-syntax-ns#" xmlns:svg="http://www.w3.org/2000/svg" xmlns:sodipodi="http://sodipodi.sourceforge.net/DTD/sodipodi-0.dtd" xmlns:inkscape="http://www.inkscape.org/namespaces/inkscape" inkscape:output_extension="org.inkscape.output.svg.inkscape" sodipodi:docbase="s:\Data\FacilityIcons" sodipodi:docname="place_of_worship_islamic3.svg" inkscape:version="0.46" sodipodi:version="0.32"
	 xmlns="http://www.w3.org/2000/svg" xmlns:xlink="http://www.w3.org/1999/xlink" x="0px" y="0px" width="580px" height="580px"
	 viewBox="0 0 580 580" enable-background="new 0 0 580 580" xml:space="preserve">
<sodipodi:namedview  showgrid="false" inkscape:cy="172.10413" inkscape:cx="-57.954519" inkscape:zoom="0.65172414" pagecolor="#ffffff" bordercolor="#666666" guidetolerance="10.0" objecttolerance="10.0" gridtolerance="10.0" borderopacity="1.0" id="base" inkscape:current-layer="svg2" inkscape:window-y="20" inkscape:window-x="0" inkscape:pageopacity="0.0" inkscape:pageshadow="2" inkscape:window-width="1400" inkscape:window-height="1003">
	</sodipodi:namedview>
<defs>
	
	
		<inkscape:perspective  inkscape:vp_z="580 : 290 : 1" inkscape:vp_y="0 : 1000 : 0" inkscape:vp_x="0 : 290 : 1" sodipodi:type="inkscape:persp3d" id="perspective2441" inkscape:persp3d-origin="290 : 193.33333 : 1">
		</inkscape:perspective>
	
		<inkscape:perspective  inkscape:vp_z="744.09448 : 526.18109 : 1" inkscape:vp_y="0 : 1000 : 0" inkscape:vp_x="0 : 526.18109 : 1" sodipodi:type="inkscape:persp3d" id="perspective2466" inkscape:persp3d-origin="372.04724 : 350.78739 : 1">
		</inkscape:perspective>
	
		<inkscape:perspective  inkscape:vp_z="744.09448 : 526.18109 : 1" inkscape:vp_y="0 : 1000 : 0" inkscape:vp_x="0 : 526.18109 : 1" sodipodi:type="inkscape:persp3d" id="perspective3333" inkscape:persp3d-origin="372.04724 : 350.78739 : 1">
		</inkscape:perspective>
	
		<inkscape:perspective  inkscape:vp_z="744.09448 : 526.18109 : 1" inkscape:vp_y="0 : 1000 : 0" inkscape:vp_x="0 : 526.18109 : 1" sodipodi:type="inkscape:persp3d" id="perspective3401" inkscape:persp3d-origin="372.04724 : 350.78739 : 1">
		</inkscape:perspective>
	
		<inkscape:perspective  inkscape:vp_z="744.09448 : 526.18109 : 1" inkscape:vp_y="0 : 1000 : 0" inkscape:vp_x="0 : 526.18109 : 1" sodipodi:type="inkscape:persp3d" id="perspective3464" inkscape:persp3d-origin="372.04724 : 350.78739 : 1">
		</inkscape:perspective>
	
		<inkscape:perspective  inkscape:vp_z="450 : 225 : 1" inkscape:vp_y="0 : 1000 : 0" inkscape:vp_x="0 : 225 : 1" sodipodi:type="inkscape:persp3d" id="perspective3581" inkscape:persp3d-origin="225 : 150 : 1">
		</inkscape:perspective>
	
		<inkscape:perspective  inkscape:vp_z="450 : 225 : 1" inkscape:vp_y="0 : 1000 : 0" inkscape:vp_x="0 : 225 : 1" sodipodi:type="inkscape:persp3d" id="perspective4312" inkscape:persp3d-origin="225 : 150 : 1">
		</inkscape:perspective>
</defs>
<path fill="#FFFB3D" stroke="#1EFF31" stroke-width="4.4444" d="M390.258,489.962c-36.356,7.307-46.516,7.916-68.67,4.121
	c-71.386-12.228-136.021-67.692-161.537-138.616c-12.325-34.258-12.277-96.262,0.1-130.741
	c26.238-73.088,91.889-128.085,164.867-138.112c25.345-3.482,36.219-2.849,68.998,4.019c40.96,8.582,48.691,8.242,40.38-1.773
	c-16.259-19.59-96.565-46.405-138.978-46.405c-28.456,0-77.686,9.129-99.847,18.516C134.568,86.81,79.247,146.312,57.375,209.61
	c-8.003,23.163-12.566,44.967-12.862,78.955c-0.304,33.962,4.859,59.185,12.862,82.348c22.941,66.395,84.42,129.41,148.085,151.787
	c12.422,4.366,29.978,9.408,39.011,11.204c44.176,8.783,105.794,1.254,148.049-18.091c28.617-13.102,48.133-26.989,43.794-31.166
	C434.451,482.854,413.726,485.245,390.258,489.962z"/>
<path fill="#FFFB3D" stroke="#1EFF31" stroke-width="4.4444" d="M518.53,256.977c-17.291-1.109-34.631-0.393-51.943-0.597
	c-8.201-21.146-11.944-44.899-25.374-63.386c-1.05-0.843-2.43-1.493-3.831-1.095c-8.732,6.287-10.413,18.609-15.025,27.813
	c-4.197,11.5-8.092,23.133-12.19,34.679c-22.088,1.882-45.491-1.019-66.72,5.871c-5.359,6.326,5.563,11.272,9.155,15.374
	c13.529,11.098,28.266,20.534,41.942,31.495c-5.818,21.219-16.548,41.761-17.763,63.883c3.651,9.818,14.808,1.773,19.916-2.102
	c13.953-9.212,27-21.287,42.028-28.148c19.214,10.274,35.542,25.931,54.729,36.52c8.572,0.246,6.089-11.844,5.075-17.314
	c-3.166-17.604-11.967-34.746-14.827-51.893c15.766-16.222,36.706-26.405,51.744-43.336
	C536.411,256.241,523.934,258.294,518.53,256.977z"/>
</svg>
