<svg enable-background="new 0 0 580 580" height="580" viewBox="0 0 580 580" width="580" xmlns="http://www.w3.org/2000/svg">
<path d="m553.247 273.267c-3.185-8.298-21.919-17.202-33.355-15.853-8.664 1.022-9.885-.325-12.159-13.417-14.367-82.726-87.998-156.698-169.991-173.558-13.637-2.804-16.194-3.037-24.072-3.809-.095-23.273-2.287-37.299-25.258-38.1-29.062-.997-27.415 20.203-29.223 39.211-13.684 3.053-14.617.729-26.773 3.741-40.009 9.913-67.723 26.546-100.833 59.669-32.306 32.318-48.263 59.753-59.01 101.457l-6.441 24.997-13.648.822c-18.214 1.097-28.194 10.595-28.194 26.832 0 17.863 11.731 29.688 29.453 29.688 5.666 0 8.631.209 13.993.623 17.58 87.983 90.03 172.896 171.946 189.011l21.11 4.153v14.081c0 9.229 2.507 16.588 7.277 21.357 9.349 9.349 32.913 9.871 41.009.909 3.165-3.502 6.284-12.868 6.932-20.813l1.179-14.447 27.289-7.576c53.001-14.715 98.652-46.804 127.937-89.927 16.616-24.468 31.497-58.526 35.289-80.769 2.422-14.201 3.148-14.867 18.469-16.924 23.398-3.142 34.961-20.803 27.074-41.358zm-128.283-82.029c1.577 0 10.595 11.697 16.54 24.953 5.883 13.12 8.699 27.774 9.287 32.561 1.009 8.207.582 8.292-45.373 9.042-25.515.416-46.391-.096-46.391-1.138.001-2.612 63.306-65.418 65.937-65.418zm-108.789-20.011l1.011-47.3 9.096 1.137c5.003.625 20.614 2.755 34.203 9.134l24.307 15.198-34.813 34.566-34.813 34.565zm-65.392-46.999l10.006-2.26v47.37c0 26.053-.443 47.37-.985 47.37-2.45 0-63.951-64.196-64.507-66.666-.887-3.934 37.251-25.016 55.486-25.814zm-105.905 78.901l7.761-12.558 32.244 32.094c17.734 17.652 32.244 32.947 32.244 33.989s-20.467 1.895-45.481 1.895c-39.548 0-43.48.43-45.881.092 4.8-26.163 10.394-41.404 19.113-55.512zm7.038 176.445c-3.548 1.432-21.273-36.438-24.095-51.478l-2.467-13.149h48.176 48.176l-33.714 31.837c-18.543 17.51-34.777 32.266-36.076 32.79zm73.787 62.566c-19.341-7.951-27.069-16.64-31.472-19.863 3.572-5.155 13.181-15.659 30.197-32.765 16.908-16.996 32.006-30.902 33.551-30.902s2.809 20.467 2.809 45.481c0 28.539-.421 39.94.59 47.542-6.112-.922-19.469-2.831-35.675-9.493zm76.015-122.815c-13.179 6.815-29.685 1.756-39.885-10.182-8.894-10.408-12.729-30.904 2.935-45.663 16.052-15.125 34.845-15.03 49.312.832 9.071 9.946 12.027 22.18 7.197 33.74-3.031 7.253-13.301 18.038-19.559 21.273zm68.34 114.27c-12.892 6.03-28.761 12.026-35.265 13.325l-19.427 3.562v-45.936c0-25.266 1.262-45.937 2.805-45.937s17.411 14.675 35.265 32.61l32.459 32.611zm81.45-106.641c-1.243 5.503-3.718 15.838-9.412 28.346-5.694 12.507-14.902 25.141-16.55 25.141s-17.663-14.736-35.591-32.746l-32.595-32.747h48.204 48.203z" fill="param(fill)" fill-opacity="param(fill-opacity)" stroke="param(outline)" stroke-opacity="param(outline-opacity)" stroke-width="param(outline-width)"/>
</svg>
