<?xml version="1.0" encoding="utf-8"?>
<!-- Generator: Adobe Illustrator 16.0.0, SVG Export Plug-In . SVG Version: 6.00 Build 0)  -->
<!DOCTYPE svg PUBLIC "-//W3C//DTD SVG 1.1//EN" "http://www.w3.org/Graphics/SVG/1.1/DTD/svg11.dtd">
<svg version="1.1"
	 id="svg2" xmlns:dc="http://purl.org/dc/elements/1.1/" xmlns:cc="http://creativecommons.org/ns#" xmlns:rdf="http://www.w3.org/1999/02/22-rdf-syntax-ns#" xmlns:svg="http://www.w3.org/2000/svg" xmlns:sodipodi="http://sodipodi.sourceforge.net/DTD/sodipodi-0.dtd" xmlns:inkscape="http://www.inkscape.org/namespaces/inkscape" inkscape:output_extension="org.inkscape.output.svg.inkscape" sodipodi:docbase="s:\Data\FacilityIcons" sodipodi:docname="place_of_worship_shinto3.svg" inkscape:version="0.46" sodipodi:version="0.32"
	 xmlns="http://www.w3.org/2000/svg" xmlns:xlink="http://www.w3.org/1999/xlink" x="0px" y="0px" width="580px" height="580px"
	 viewBox="0 0 580 580" enable-background="new 0 0 580 580" xml:space="preserve">
<sodipodi:namedview  showgrid="false" inkscape:cy="172.10413" inkscape:cx="-57.954519" inkscape:zoom="0.65172414" pagecolor="#ffffff" bordercolor="#666666" guidetolerance="10.0" objecttolerance="10.0" gridtolerance="10.0" borderopacity="1.0" id="base" inkscape:current-layer="svg2" inkscape:window-y="20" inkscape:window-x="0" inkscape:pageopacity="0.0" inkscape:pageshadow="2" inkscape:window-width="1400" inkscape:window-height="1003">
	</sodipodi:namedview>
<defs>
	
	
		<inkscape:perspective  inkscape:vp_z="580 : 290 : 1" inkscape:vp_y="0 : 1000 : 0" inkscape:vp_x="0 : 290 : 1" sodipodi:type="inkscape:persp3d" id="perspective2441" inkscape:persp3d-origin="290 : 193.33333 : 1">
		</inkscape:perspective>
	
		<inkscape:perspective  inkscape:vp_z="744.09448 : 526.18109 : 1" inkscape:vp_y="0 : 1000 : 0" inkscape:vp_x="0 : 526.18109 : 1" sodipodi:type="inkscape:persp3d" id="perspective2466" inkscape:persp3d-origin="372.04724 : 350.78739 : 1">
		</inkscape:perspective>
	
		<inkscape:perspective  inkscape:vp_z="744.09448 : 526.18109 : 1" inkscape:vp_y="0 : 1000 : 0" inkscape:vp_x="0 : 526.18109 : 1" sodipodi:type="inkscape:persp3d" id="perspective3333" inkscape:persp3d-origin="372.04724 : 350.78739 : 1">
		</inkscape:perspective>
	
		<inkscape:perspective  inkscape:vp_z="744.09448 : 526.18109 : 1" inkscape:vp_y="0 : 1000 : 0" inkscape:vp_x="0 : 526.18109 : 1" sodipodi:type="inkscape:persp3d" id="perspective3401" inkscape:persp3d-origin="372.04724 : 350.78739 : 1">
		</inkscape:perspective>
	
		<inkscape:perspective  inkscape:vp_z="744.09448 : 526.18109 : 1" inkscape:vp_y="0 : 1000 : 0" inkscape:vp_x="0 : 526.18109 : 1" sodipodi:type="inkscape:persp3d" id="perspective3464" inkscape:persp3d-origin="372.04724 : 350.78739 : 1">
		</inkscape:perspective>
	
		<inkscape:perspective  inkscape:vp_z="450 : 225 : 1" inkscape:vp_y="0 : 1000 : 0" inkscape:vp_x="0 : 225 : 1" sodipodi:type="inkscape:persp3d" id="perspective3581" inkscape:persp3d-origin="225 : 150 : 1">
		</inkscape:perspective>
	
		<inkscape:perspective  inkscape:vp_z="450 : 225 : 1" inkscape:vp_y="0 : 1000 : 0" inkscape:vp_x="0 : 225 : 1" sodipodi:type="inkscape:persp3d" id="perspective4312" inkscape:persp3d-origin="225 : 150 : 1">
		</inkscape:perspective>
</defs>
<path fill="param(fill)" fill-opacity="param(fill-opacity)" stroke="param(outline)" stroke-opacity="param(outline-opacity)" stroke-width="param(outline-width)" d="M515.53,65.441c-12.425,5.814-32.899,12.2-45.499,14.189
	s-30.192,5.359-39.095,7.486s-60.698,4.66-115.101,5.627c-81.591,1.451-106.159,0.68-140.279-4.404
	c-22.75-3.389-46.599-6.732-52.997-7.429c-15.435-1.681-44.109-10.32-57.867-17.435c-12.377-6.401-27.875-7.531-31.126-2.271
	c-1.174,1.901,2.576,9.959,8.334,17.908s12.251,21.531,14.43,30.183c3.086,12.255,7.14,17.834,18.354,25.254
	c7.916,5.239,15.973,9.524,17.904,9.524s4.552,5.55,5.825,12.333c2.539,13.536,2.336,13.462,50.866,18.422
	c25.25,2.581,30.597,9.481,16.241,20.958c-7.09,5.668-12.753,6.475-35.291,5.029c-16.455-1.056-27.732-0.286-29.139,1.99
	c-2.941,4.759-1.452,39.385,1.835,42.681c1.371,1.374,18.273,2.87,37.562,3.326l35.07,0.828v18.803
	c0,17.658-0.657,19.032-10.791,22.565c-12.559,4.378-12.609,4.572-4.975,19.336c4.966,9.602,5.728,24.805,5.214,104.029
	c-0.396,60.98,0.737,95.283,3.303,100.078c5.182,9.684,30.571,10.4,35.422,1.002c1.787-3.463,4.128-64.287,5.204-135.166
	c1.075-70.877,2.515-129.429,3.198-130.112s38.056-1.771,83.05-2.417l81.807-1.173l-0.003,25.358
	c-0.002,13.947-1.772,27.127-3.934,29.289c-2.61,2.609-2.774,6.172-0.489,10.609c1.893,3.676,4.52,49.467,5.838,101.762
	c1.511,59.955,3.848,96.83,6.324,99.814c6.086,7.332,37.845,6.188,42.158-1.52c2.169-3.875,2.71-41.387,1.424-98.637l-2.075-92.385
	l9.748-11.586c10.946-13.008,9.349-16.853-9.538-22.958c-10.954-3.541-11.76-4.943-12.765-22.227l-1.071-18.448l35.222-0.595
	c19.372-0.328,36.236-1.738,37.477-3.134c4.752-5.351,6.409-39.732,2.081-43.181c-2.64-2.103-13.931-2.228-29.297-0.325
	c-22.987,2.847-25.668,2.47-33.271-4.672c-4.549-4.273-8.27-9.712-8.27-12.087c0-4.879,15.305-8.642,37.317-9.173
	c24.772-0.599,32.12-4.092,35.424-16.842c1.649-6.366,4.607-11.575,6.573-11.575c7.791,0,35.786-29.835,35.786-38.138
	c0-4.646,3.231-13.747,7.18-20.224C554.917,59.327,545.711,51.317,515.53,65.441z M272.673,190.835v14.388l-20.682-0.114
	c-16.396-0.09-22.64-1.838-30.128-8.437c-7.092-6.249-8.616-9.806-6.116-14.274c2.633-4.706,8.936-5.951,30.128-5.951h26.798
	V190.835z M366.151,195.432c-4.941,4.23-13.495,6.195-26.977,6.195h-19.742v-12.589v-12.589h26.977
	c23.455,0,26.977,0.835,26.977,6.395C373.386,186.359,370.13,192.024,366.151,195.432z"/>
</svg>
