<svg enable-background="new 0 0 580 580" height="580" viewBox="0 0 580 580" width="580" xmlns="http://www.w3.org/2000/svg">
<path d="m287.652 86.95l17.871 18.818 17.566-15.788c9.662-8.684 18.454-17.636 19.538-19.894 1.085-2.258-6.846-12.814-17.624-23.458l-19.596-19.352-18.839 17.622c-10.361 9.692-18.377 18.885-17.813 20.428.564 1.543 9.068 11.274 18.897 21.624z" fill="param(fill)" fill-opacity="param(fill-opacity)" stroke="param(outline)" stroke-opacity="param(outline-opacity)" stroke-width="param(outline-width)"/>
<path d="m254.492 152.905c8.431 5.801 22.771 13.15 31.866 16.333 22.834 7.989 51.191 7.523 74.573-1.225 21.62-8.089 59.788-39.956 55.181-46.07-4.78-6.343-43.926-38.551-46.854-38.551-1.515 0-6.01 4.14-9.99 9.201-12.915 16.418-38.328 28.648-59.431 28.602-23.553-.052-41.371-7.33-60.703-24.796-14.589-13.18-15.102-13.334-24.322-7.293-5.18 3.394-9.418 8.079-9.418 10.411-.002 6.72 32.264 41.806 49.098 53.388z" fill="param(fill)" fill-opacity="param(fill-opacity)" stroke="param(outline)" stroke-opacity="param(outline-opacity)" stroke-width="param(outline-width)"/>
<path d="m539.376 307.832c-1.878-58.74-9.587-85.35-31.112-107.394-16.305-16.698-32.191-22.508-60.449-22.107-37.854.537-66.095 23.016-76.757 61.096-4.467 15.955-5.273 16.667-21.622 19.12-22.674 3.4-36.635 9.574-57.273 25.327-18.889 14.418-25.964 14.305-20.401-.328 5.223-13.739 4.305-41.706-2.075-63.189-7.822-26.34-25.656-48.179-49.645-60.792-19.087-10.036-22.143-10.528-56.962-9.168-37.964 1.482-60.709 8.68-60.709 19.21 0 6.139 20.972 53.599 23.685 53.599 1.054 0 14.247-4.139 29.317-9.198 30.954-10.391 56.494-11.748 71.833-3.815 11.913 6.16 14.98 12.229 14.98 29.632 0 26.742-15.098 45.019-50.591 61.247-12.647 5.782-22.996 12.826-22.996 15.652 0 9.652 21.756 53.657 26.521 53.644 7.925-.022 27.566-13.559 43.503-29.981l15.07-15.528 8.916 10.804c25.086 30.401 39.519 81.76 31.327 111.48-6.354 23.05-27.474 44.303-49.613 49.925-74.23 18.846-150.534-57.696-174.892-175.438-4.674-22.593-10.181-26.265-24.113-16.077-6.801 4.974-6.789 5.883.597 43.233 12.949 65.484 34.816 109.475 74.852 150.579 25.135 25.805 51.865 41.958 82.786 50.027 23.768 6.202 67.704 3.41 88.064-5.596 64.65-28.598 75.273-113.2 23.971-190.895l-7.897-11.959 19.68-9.161c24.003-11.174 29.454-11.4 38.332-1.592 5.736 6.34 7.301 15.903 9.178 56.111 2.923 62.591 9.639 80.066 35.1 91.328 30.169 13.346 68.837 2.998 93.418-24.998 28.515-32.479 38.307-71.887 35.977-144.798zm-69.913 110.374c-18.032 10.994-40.781 9.898-50.48-2.431-10.175-12.936-10.735-16.487-12.1-76.669-.973-42.862-2.355-53.502-8.24-63.37l-7.072-11.859 9.014-9.647c20.29-21.717 51.243-26.629 73.777-11.708 16.645 11.021 32.817 43.769 35.337 71.55 3.854 42.504-13.711 87.962-40.236 104.134z" fill="param(fill)" fill-opacity="param(fill-opacity)" stroke="param(outline)" stroke-opacity="param(outline-opacity)" stroke-width="param(outline-width)"/>
</svg>
