<svg enable-background="new 0 0 580 580" height="580" viewBox="0 0 580 580" width="580" xmlns="http://www.w3.org/2000/svg">
<path d="m267.254 312.97l-23.754-41.214-46.734-.021c-29.125-.013-47.33-.984-48.315-2.578-.869-1.406 8.753-20.522 21.383-42.481 15.661-27.228 22.431-41.323 21.289-44.325-.921-2.421-11.172-20.817-22.781-40.881s-21.106-37.786-21.106-39.381c0-2.101 13.279-2.902 48.132-2.905l48.132-.004 23.688-41.253c13.028-22.689 24.484-41.253 25.458-41.253 2.672 0 9.342 10.345 31.035 48.132l19.737 34.38h48.182c36.937 0 48.155.729 48.071 3.125-.06 1.719-10.562 21.093-23.337 43.054l-23.229 39.929 23.338 40.431c12.835 22.237 23.337 41.681 23.337 43.209 0 1.942-14.512 2.779-48.181 2.779h-48.181l-19.737 34.38c-21.587 37.602-28.373 48.144-30.969 48.111-.937-.011-12.394-18.567-25.458-41.234zm34.822-24.683c4.227-7.387 7.685-14.139 7.685-15.002 0-.864-7.313-1.571-16.253-1.571-8.939 0-16.252.707-16.252 1.571 0 2.033 15.09 28.434 16.252 28.434.486-.001 4.342-6.045 8.568-13.432zm-82.857-59.051c-4.523-8.235-8.787-14.973-9.474-14.973-.688 0-4.951 6.738-9.475 14.973l-8.224 14.973h17.699 17.699zm117.634-1.905c5.396-9.282 12.986-22.605 16.87-29.605l7.06-12.729-16.197-28.528-16.197-28.528h-34.769-34.768l-15.802 27.211c-8.691 14.966-15.802 28.396-15.802 29.845 0 2.591 25.924 49.98 30.682 56.086 1.731 2.222 12.069 3.125 35.773 3.125h33.34zm49.892 1.905c-4.523-8.235-8.786-14.973-9.475-14.973-.688 0-4.951 6.738-9.474 14.973l-8.225 14.973h17.698 17.699zm-167.69-87.585l8.06-14.961h-17.535-17.534l8.224 14.973c4.523 8.235 8.787 14.968 9.475 14.961.688-.007 4.877-6.744 9.31-14.973zm167.526 0l8.06-14.961h-17.534-17.534l8.225 14.973c4.522 8.235 8.786 14.968 9.474 14.961.687-.007 4.875-6.744 9.309-14.973zm-76.82-44.036c0-2.033-15.091-28.434-16.253-28.434s-16.252 26.4-16.252 28.434c0 .864 7.313 1.571 16.252 1.571 8.939.001 16.253-.707 16.253-1.571z" fill="param(fill)" fill-opacity="param(fill-opacity)" stroke="param(outline)" stroke-opacity="param(outline-opacity)" stroke-width="param(outline-width)"/>
<path d="m375.979 362.932h-168.92c-5.561 0-10.068 4.508-10.068 10.068v168.921c0 5.561 4.507 10.068 10.068 10.068h168.92c5.561 0 10.068-4.508 10.068-10.068v-168.921c.001-5.561-4.507-10.068-10.068-10.068z" fill="param(fill)" opacity=".5"/>
<path d="m375.979 362.932h-168.92c-5.561 0-10.068 4.508-10.068 10.068v168.921c0 5.561 4.507 10.068 10.068 10.068h168.92c5.561 0 10.068-4.508 10.068-10.068v-168.921c.001-5.561-4.507-10.068-10.068-10.068z" fill="none" stroke="param(outline)" stroke-width="param(outline-width)"/>
</svg>
