<svg enable-background="new 0 0 580 580" height="580" viewBox="0 0 580 580" width="580" xmlns="http://www.w3.org/2000/svg">
<path d="m473.527 185.484c-17.474-.047-34.951-.022-52.435.002-10.235.014-20.47.029-30.701.029-19.678 0-35.269-.055-49.788-.178-.029-1.289.071-2.963.142-4.13.132-2.198.268-4.467.098-6.818-.044-27.959-.037-56.385-.031-83.879.005-17.177.009-34.354.001-51.53-.003-5.521-4.479-9.996-10-9.996h-86.219c-5.523 0-10 4.477-10 10v146.741c-.333.024-.732.04-1.207.04-1.59 0-3.355-.169-5.063-.332l-1.376-.128c-.337-.03-.677-.042-1.014-.038-13.723.176-28.244.255-47.083.255-8.907 0-17.815-.017-26.723-.035-15.225-.029-30.444-.057-45.665-.002-5.509.021-9.963 4.492-9.963 10v77c0 5.512 4.46 9.984 9.972 10 16.9.047 33.814.023 50.719-.002 9.897-.015 19.794-.029 29.691-.029 18.931 0 33.945.055 47.921.177.029 1.289-.072 2.964-.142 4.131-.132 2.197-.268 4.464-.099 6.815.044 50.967.038 102.782.031 152.897-.004 31.515-.008 63.03 0 94.545.001 5.521 4.478 9.997 10 9.997h86.219c5.518 0 9.992-4.469 10-9.985.048-33.449.022-67.461-.002-100.353-.039-51.932-.079-105.583.167-158.401.174-.005.363-.008.571-.008 1.067 0 2.269.072 3.54.148 1.448.087 2.946.177 4.493.177.828 0 1.594-.026 2.325-.078 15.945-.028 31.893-.036 47.839-.036l54.383.01c6.461 0 12.916-.001 19.376-.004 5.521-.003 9.995-4.479 9.995-10v-77c .001-5.514-4.46-9.986-9.972-10.002z" fill="param(fill)" fill-opacity="param(fill-opacity)" stroke="param(outline)" stroke-opacity="param(outline-opacity)" stroke-width="param(outline-width)"/>
</svg>
