<svg enable-background="new 0 0 580 580" height="580" viewBox="0 0 580 580" width="580" xmlns="http://www.w3.org/2000/svg">
<path d="m478.859 351.89l-35.853-62.111 35.685-61.341c19.627-33.737 35.761-63.501 35.853-66.142.129-3.681-17.106-4.802-73.85-4.802h-74.018l-30.322-52.817c-33.327-58.052-43.573-73.944-47.678-73.944-1.496 0-19.096 28.519-39.111 63.375l-36.391 63.375-73.944.005c-53.543.004-73.943 1.235-73.943 4.462 0 2.451 14.591 29.676 32.425 60.5 17.834 30.823 33.583 59.085 34.997 62.804 1.754 4.612-8.646 26.266-32.705 68.094-19.403 33.734-34.185 63.102-32.85 65.262 1.513 2.448 29.48 3.941 74.224 3.961l71.796.033 36.492 63.314c20.071 34.823 37.67 63.329 39.111 63.348 3.989.05 14.413-16.145 47.576-73.911l30.322-52.817h74.018c51.724 0 74.018-1.285 74.018-4.268.001-2.347-16.133-32.218-35.852-66.38zm-60.43-152.143h26.937l-12.382 22.983c-6.81 12.641-13.246 22.992-14.302 23.002-1.057.01-7.606-10.333-14.556-22.983l-12.635-23.002zm-128.429-88.348c1.785 0 24.969 40.558 24.969 43.681 0 1.328-11.236 2.414-24.969 2.414s-24.968-1.086-24.968-2.414c0-3.123 23.183-43.681 24.968-43.681zm-128.934 88.348h26.937l-12.381 22.983c-6.81 12.641-13.246 22.992-14.302 23.002-1.057.01-7.606-10.333-14.555-22.983l-12.635-23.002zm.253 180.538h-27.19l12.635-23.002c6.949-12.651 13.499-23.002 14.555-23.002 1.056 0 7.606 10.351 14.555 23.002l12.635 23.002zm141.843 67.714c-6.492 11.35-12.416 20.635-13.162 20.635-1.785 0-24.968-40.559-24.968-43.682 0-1.327 11.235-2.414 24.968-2.414s24.969 1.087 24.969 2.414-5.313 11.699-11.807 23.047zm53.426-93.643l-15.07 25.929h-51.217c-36.417 0-52.298-1.388-54.958-4.802-7.309-9.381-47.135-82.182-47.135-86.162 0-2.226 10.924-22.859 24.275-45.851l24.275-41.803h53.413 53.413l24.884 43.826 24.884 43.827-10.847 19.554c-5.966 10.756-17.628 31.223-25.917 45.482zm62.094 25.929h-27.19l12.635-23.002c6.949-12.651 13.499-23.002 14.556-23.002 1.056 0 7.605 10.351 14.555 23.002l12.635 23.002z" fill="param(fill)" fill-opacity="param(fill-opacity)" stroke="param(outline)" stroke-opacity="param(outline-opacity)" stroke-width="param(outline-width)"/>
</svg>
