<?xml version="1.0" encoding="utf-8"?>
<!-- Generator: Adobe Illustrator 16.0.0, SVG Export Plug-In . SVG Version: 6.00 Build 0)  -->
<!DOCTYPE svg PUBLIC "-//W3C//DTD SVG 1.1//EN" "http://www.w3.org/Graphics/SVG/1.1/DTD/svg11.dtd">
<svg version="1.1"
	 id="svg2" xmlns:dc="http://purl.org/dc/elements/1.1/" xmlns:cc="http://creativecommons.org/ns#" xmlns:rdf="http://www.w3.org/1999/02/22-rdf-syntax-ns#" xmlns:svg="http://www.w3.org/2000/svg" xmlns:sodipodi="http://sodipodi.sourceforge.net/DTD/sodipodi-0.dtd" xmlns:inkscape="http://www.inkscape.org/namespaces/inkscape" inkscape:output_extension="org.inkscape.output.svg.inkscape" sodipodi:docbase="s:\Data\FacilityIcons" sodipodi:docname="place_of_worship_shinto.svg" inkscape:version="0.46" sodipodi:version="0.32"
	 xmlns="http://www.w3.org/2000/svg" xmlns:xlink="http://www.w3.org/1999/xlink" x="0px" y="0px" width="580px" height="580px"
	 viewBox="0 0 580 580" enable-background="new 0 0 580 580" xml:space="preserve">
<sodipodi:namedview  showgrid="false" inkscape:cy="172.10413" inkscape:cx="-57.954519" inkscape:zoom="0.65172414" pagecolor="#ffffff" bordercolor="#666666" guidetolerance="10.0" objecttolerance="10.0" gridtolerance="10.0" borderopacity="1.0" id="base" inkscape:current-layer="svg2" inkscape:window-y="20" inkscape:window-x="0" inkscape:pageopacity="0.0" inkscape:pageshadow="2" inkscape:window-width="1400" inkscape:window-height="1003">
	</sodipodi:namedview>
<defs>
	
	
		<inkscape:perspective  inkscape:vp_z="580 : 290 : 1" inkscape:vp_y="0 : 1000 : 0" inkscape:vp_x="0 : 290 : 1" sodipodi:type="inkscape:persp3d" id="perspective2441" inkscape:persp3d-origin="290 : 193.33333 : 1">
		</inkscape:perspective>
	
		<inkscape:perspective  inkscape:vp_z="744.09448 : 526.18109 : 1" inkscape:vp_y="0 : 1000 : 0" inkscape:vp_x="0 : 526.18109 : 1" sodipodi:type="inkscape:persp3d" id="perspective2466" inkscape:persp3d-origin="372.04724 : 350.78739 : 1">
		</inkscape:perspective>
	
		<inkscape:perspective  inkscape:vp_z="744.09448 : 526.18109 : 1" inkscape:vp_y="0 : 1000 : 0" inkscape:vp_x="0 : 526.18109 : 1" sodipodi:type="inkscape:persp3d" id="perspective3333" inkscape:persp3d-origin="372.04724 : 350.78739 : 1">
		</inkscape:perspective>
	
		<inkscape:perspective  inkscape:vp_z="744.09448 : 526.18109 : 1" inkscape:vp_y="0 : 1000 : 0" inkscape:vp_x="0 : 526.18109 : 1" sodipodi:type="inkscape:persp3d" id="perspective3401" inkscape:persp3d-origin="372.04724 : 350.78739 : 1">
		</inkscape:perspective>
	
		<inkscape:perspective  inkscape:vp_z="744.09448 : 526.18109 : 1" inkscape:vp_y="0 : 1000 : 0" inkscape:vp_x="0 : 526.18109 : 1" sodipodi:type="inkscape:persp3d" id="perspective3464" inkscape:persp3d-origin="372.04724 : 350.78739 : 1">
		</inkscape:perspective>
	
		<inkscape:perspective  inkscape:vp_z="450 : 225 : 1" inkscape:vp_y="0 : 1000 : 0" inkscape:vp_x="0 : 225 : 1" sodipodi:type="inkscape:persp3d" id="perspective3581" inkscape:persp3d-origin="225 : 150 : 1">
		</inkscape:perspective>
	
		<inkscape:perspective  inkscape:vp_z="450 : 225 : 1" inkscape:vp_y="0 : 1000 : 0" inkscape:vp_x="0 : 225 : 1" sodipodi:type="inkscape:persp3d" id="perspective4312" inkscape:persp3d-origin="225 : 150 : 1">
		</inkscape:perspective>
</defs>
<path id="path1873" sodipodi:nodetypes="cssscccsssssssssssssssssssssssssssscccscccssssscccsssccccssccccscccccc" fill="#FFFB3D" stroke="#1EFF31" stroke-width="4.4444" d="
	M209.967,335.29c-1.661-3.104-2.394-25.307-2.138-64.777c0.333-51.279-0.161-61.119-3.375-67.334
	c-4.941-9.555-4.909-9.682,3.22-12.515c6.559-2.287,6.984-3.176,6.984-14.605v-12.17l-22.7-0.536
	c-12.484-0.294-23.425-1.263-24.312-2.153c-2.128-2.133-3.092-24.545-1.188-27.625c0.911-1.473,8.21-1.972,18.861-1.288
	c14.587,0.936,18.253,0.414,22.842-3.255c9.292-7.428,5.831-11.895-10.512-13.565c-31.412-3.21-31.28-3.163-32.924-11.924
	c-0.824-4.391-2.521-7.982-3.77-7.982c-1.25,0-6.465-2.774-11.589-6.165c-7.258-4.803-9.882-8.414-11.879-16.346
	c-1.41-5.6-5.613-14.391-9.34-19.536s-6.154-10.361-5.394-11.591c2.104-3.405,12.135-2.673,20.147,1.47
	c8.905,4.605,27.465,10.197,37.455,11.285c4.141,0.451,19.578,2.615,34.303,4.809c22.084,3.29,37.986,3.79,90.797,2.85
	c35.214-0.626,68.738-2.265,74.501-3.642c5.762-1.377,17.149-3.558,25.305-4.846s21.407-5.421,29.45-9.185
	c19.535-9.142,25.493-3.957,15.08,13.122c-2.556,4.192-4.647,10.083-4.647,13.09c0,5.375-18.12,24.686-23.162,24.686
	c-1.272,0-3.188,3.371-4.255,7.492c-2.139,8.252-6.895,10.514-22.929,10.901c-14.248,0.344-24.154,2.779-24.154,5.938
	c0,1.538,2.408,5.058,5.353,7.824c4.921,4.623,6.656,4.867,21.535,3.024c9.945-1.231,17.254-1.15,18.962,0.21
	c2.802,2.232,1.729,24.486-1.347,27.949c-0.803,0.904-11.718,1.816-24.257,2.028l-22.798,0.385l0.693,11.941
	c0.65,11.187,1.172,12.095,8.263,14.387c12.224,3.951,13.258,6.44,6.173,14.86l-6.31,7.499l1.344,59.797
	c0.832,37.056,0.481,61.336-0.922,63.844c-2.792,4.989-23.349,5.729-27.287,0.983c-1.604-1.932-3.116-25.799-4.094-64.606
	c-0.854-33.848-2.554-63.488-3.778-65.866c-1.479-2.872-1.373-5.178,0.316-6.868c1.398-1.399,2.545-9.93,2.546-18.957l0.002-16.413
	l-52.951,0.759c-29.122,0.417-53.312,1.121-53.755,1.564c-0.442,0.442-1.374,38.34-2.07,84.218
	c-0.696,45.877-2.211,85.246-3.368,87.487C229.755,342.021,213.321,341.558,209.967,335.29z M277.519,125.824v-9.313h-17.345
	c-13.717,0-17.796,0.806-19.501,3.852c-1.618,2.892-0.632,5.194,3.958,9.239c4.847,4.271,8.889,5.402,19.501,5.46l13.387,0.074
	V125.824z M338.023,128.799c2.576-2.206,4.684-5.872,4.684-8.149c0-3.598-2.28-4.139-17.462-4.139h-17.461v8.148v8.148h12.778
	C329.289,132.808,334.826,131.537,338.023,128.799z"/>
<path opacity="0.5" fill="#FFFB3D" d="M375.979,362.932h-168.92c-5.561,0-10.068,4.508-10.068,10.068v168.921
	c0,5.561,4.507,10.068,10.068,10.068h168.92c5.561,0,10.068-4.508,10.068-10.068V373
	C386.048,367.439,381.54,362.932,375.979,362.932z"/>
<path fill="none" stroke="#1EFF31" stroke-width="4.4444" d="M375.979,362.932h-168.92c-5.561,0-10.068,4.508-10.068,10.068v168.921
	c0,5.561,4.507,10.068,10.068,10.068h168.92c5.561,0,10.068-4.508,10.068-10.068V373
	C386.048,367.439,381.54,362.932,375.979,362.932z"/>
</svg>
