<?xml version="1.0" encoding="utf-8"?>
<!-- Generator: Adobe Illustrator 16.0.0, SVG Export Plug-In . SVG Version: 6.00 Build 0)  -->
<!DOCTYPE svg PUBLIC "-//W3C//DTD SVG 1.1//EN" "http://www.w3.org/Graphics/SVG/1.1/DTD/svg11.dtd">
<svg version="1.1"
	 id="svg2" xmlns:dc="http://purl.org/dc/elements/1.1/" xmlns:cc="http://creativecommons.org/ns#" xmlns:rdf="http://www.w3.org/1999/02/22-rdf-syntax-ns#" xmlns:svg="http://www.w3.org/2000/svg" xmlns:sodipodi="http://sodipodi.sourceforge.net/DTD/sodipodi-0.dtd" xmlns:inkscape="http://www.inkscape.org/namespaces/inkscape" inkscape:output_extension="org.inkscape.output.svg.inkscape" sodipodi:docbase="s:\Data\FacilityIcons" sodipodi:docname="place_of_worship_buddhist.svg" inkscape:version="0.46" sodipodi:version="0.32"
	 xmlns="http://www.w3.org/2000/svg" xmlns:xlink="http://www.w3.org/1999/xlink" x="0px" y="0px" width="580px" height="580px"
	 viewBox="0 0 580 580" enable-background="new 0 0 580 580" xml:space="preserve">
<sodipodi:namedview  showgrid="false" inkscape:cy="172.10413" inkscape:cx="-57.954519" inkscape:zoom="0.65172414" pagecolor="#ffffff" bordercolor="#666666" guidetolerance="10.0" objecttolerance="10.0" gridtolerance="10.0" borderopacity="1.0" id="base" inkscape:current-layer="svg2" inkscape:window-y="20" inkscape:window-x="0" inkscape:pageopacity="0.0" inkscape:pageshadow="2" inkscape:window-width="1400" inkscape:window-height="1003">
	</sodipodi:namedview>
<defs>
	
	
		<inkscape:perspective  inkscape:vp_z="580 : 290 : 1" inkscape:vp_y="0 : 1000 : 0" inkscape:vp_x="0 : 290 : 1" sodipodi:type="inkscape:persp3d" id="perspective2441" inkscape:persp3d-origin="290 : 193.33333 : 1">
		</inkscape:perspective>
	
		<inkscape:perspective  inkscape:vp_z="744.09448 : 526.18109 : 1" inkscape:vp_y="0 : 1000 : 0" inkscape:vp_x="0 : 526.18109 : 1" sodipodi:type="inkscape:persp3d" id="perspective2466" inkscape:persp3d-origin="372.04724 : 350.78739 : 1">
		</inkscape:perspective>
	
		<inkscape:perspective  inkscape:vp_z="744.09448 : 526.18109 : 1" inkscape:vp_y="0 : 1000 : 0" inkscape:vp_x="0 : 526.18109 : 1" sodipodi:type="inkscape:persp3d" id="perspective3333" inkscape:persp3d-origin="372.04724 : 350.78739 : 1">
		</inkscape:perspective>
	
		<inkscape:perspective  inkscape:vp_z="744.09448 : 526.18109 : 1" inkscape:vp_y="0 : 1000 : 0" inkscape:vp_x="0 : 526.18109 : 1" sodipodi:type="inkscape:persp3d" id="perspective3401" inkscape:persp3d-origin="372.04724 : 350.78739 : 1">
		</inkscape:perspective>
	
		<inkscape:perspective  inkscape:vp_z="744.09448 : 526.18109 : 1" inkscape:vp_y="0 : 1000 : 0" inkscape:vp_x="0 : 526.18109 : 1" sodipodi:type="inkscape:persp3d" id="perspective3464" inkscape:persp3d-origin="372.04724 : 350.78739 : 1">
		</inkscape:perspective>
	
		<inkscape:perspective  inkscape:vp_z="450 : 225 : 1" inkscape:vp_y="0 : 1000 : 0" inkscape:vp_x="0 : 225 : 1" sodipodi:type="inkscape:persp3d" id="perspective3581" inkscape:persp3d-origin="225 : 150 : 1">
		</inkscape:perspective>
	
		<inkscape:perspective  inkscape:vp_z="450 : 225 : 1" inkscape:vp_y="0 : 1000 : 0" inkscape:vp_x="0 : 225 : 1" sodipodi:type="inkscape:persp3d" id="perspective4312" inkscape:persp3d-origin="225 : 150 : 1">
		</inkscape:perspective>
</defs>
<path id="path1873" sodipodi:nodetypes="cccccsscccsscscssssssscccsccsscscccccscccccccccscccccccsccssssccccccsccssssccccssccccccccc" fill="#FFFB3D" stroke="#1EFF31" stroke-width="4.4444" d="
	M280.452,351.086c-3.018-3.019-4.604-7.675-4.604-13.515v-8.909l-13.357-2.629c-51.833-10.197-97.677-63.926-108.801-119.598
	c-3.393-0.262-5.269-0.394-8.854-0.394c-11.213,0-18.637-7.482-18.637-18.786c0-10.274,6.315-16.284,17.84-16.978l8.636-0.52
	l4.076-15.817c6.8-26.389,16.897-43.749,37.339-64.198c20.951-20.959,38.487-31.484,63.803-37.756
	c7.692-1.906,8.283-0.436,16.941-2.367c1.144-12.028,0.102-25.442,18.491-24.812c14.534,0.507,15.922,9.382,15.982,24.108
	c4.984,0.488,6.603,0.636,15.231,2.41c51.883,10.668,98.473,57.475,107.564,109.821c1.438,8.285,2.211,9.137,7.693,8.49
	c7.236-0.854,19.091,4.78,21.105,10.031c4.991,13.006-2.326,24.181-17.134,26.169c-9.694,1.301-10.153,1.723-11.686,10.709
	c-2.4,14.073-11.816,35.625-22.33,51.107c-18.53,27.286-47.416,47.591-80.953,56.902l-17.268,4.794l-0.745,9.141
	c-0.41,5.028-2.384,10.955-4.387,13.171C301.278,357.332,286.368,357.001,280.452,351.086z M275.848,262.447
	c0-15.828-0.8-28.779-1.777-28.779s-10.531,8.799-21.23,19.554c-10.767,10.824-16.848,17.47-19.107,20.732
	c2.786,2.04,7.676,7.538,19.914,12.569c10.254,4.215,18.706,5.423,22.574,6.006C275.581,287.72,275.848,280.506,275.848,262.447z
	 M344.988,281.116l10.021-6.178l-20.539-20.635c-11.297-11.349-21.338-20.635-22.313-20.635c-0.977,0-1.775,13.08-1.775,29.066
	v29.067l12.293-2.254C326.79,288.726,336.831,284.932,344.988,281.116z M229.785,226.186l21.333-20.145h-30.484H190.15l1.561,8.32
	c1.786,9.517,13.001,33.479,15.247,32.573C207.779,246.603,218.052,237.266,229.785,226.186z M390.571,231.574
	c3.604-7.914,5.17-14.454,5.956-17.936l1.43-7.597h-30.501h-30.502l20.625,20.721c11.344,11.396,21.478,20.721,22.521,20.721
	S386.969,239.488,390.571,231.574z M301.746,208.812c3.959-2.048,10.458-8.872,12.376-13.461c3.056-7.314,1.186-15.055-4.555-21.349
	c-9.153-10.037-21.045-10.097-31.202-0.527c-9.911,9.339-7.484,22.308-1.857,28.894
	C282.963,209.922,293.406,213.124,301.746,208.812z M248.22,169.156c0-0.66-9.181-10.338-20.402-21.507l-20.403-20.308l-4.911,7.946
	c-5.517,8.927-9.057,18.571-12.095,35.126c1.519,0.214,4.007-0.058,29.032-0.058C235.27,170.355,248.22,169.816,248.22,169.156z
	 M396.074,164.155c-0.372-3.028-2.154-12.302-5.878-20.604c-3.761-8.388-9.467-15.789-10.465-15.789
	c-1.665,0-41.722,39.741-41.722,41.393c-0.001,0.66,13.209,0.983,29.354,0.72C396.442,169.402,396.712,169.348,396.074,164.155z
	 M275.848,113.905V83.932l-6.331,1.43c-11.538,0.505-35.671,13.845-35.11,16.334c0.352,1.563,39.268,42.183,40.818,42.183
	C275.567,143.879,275.848,130.391,275.848,113.905z M338.931,91.67c-8.598-4.036-18.476-5.384-21.642-5.78l-5.756-0.72l-0.64,29.93
	l-0.64,29.93l22.028-21.872l22.029-21.872L338.931,91.67z"/>
<path opacity="0.5" fill="#FFFB3D" d="M375.979,362.932h-168.92c-5.561,0-10.068,4.508-10.068,10.068v168.921
	c0,5.561,4.507,10.068,10.068,10.068h168.92c5.561,0,10.068-4.508,10.068-10.068V373
	C386.048,367.439,381.54,362.932,375.979,362.932z"/>
<path fill="none" stroke="#1EFF31" stroke-width="4.4444" d="M375.979,362.932h-168.92c-5.561,0-10.068,4.508-10.068,10.068v168.921
	c0,5.561,4.507,10.068,10.068,10.068h168.92c5.561,0,10.068-4.508,10.068-10.068V373
	C386.048,367.439,381.54,362.932,375.979,362.932z"/>
</svg>
