<svg enable-background="new 0 0 580 580" height="580" viewBox="0 0 580 580" width="580" xmlns="http://www.w3.org/2000/svg">
<path d="m375.979 362.932h-168.92c-5.561 0-10.068 4.508-10.068 10.068v168.921c0 5.561 4.507 10.068 10.068 10.068h168.92c5.561 0 10.068-4.508 10.068-10.068v-168.921c.001-5.561-4.507-10.068-10.068-10.068z" fill="param(fill)" opacity=".5"/>
<path d="m220.437 301.799c0 7.343 7.226 4.316 22.059-9.24 14.139-12.923 14.796-13.21 21.805-9.538l7.227 3.786-10.832 5.525c-18.073 9.221-27.952 30.072-18.653 39.371 8.633 8.633 24.929-1.477 22.538-13.982-1.041-5.446.172-7.55 6.131-10.631 4.086-2.113 8.081-3.843 8.878-3.843 3.172 0 1.035 22.722-2.588 27.511-5.181 6.85-4.888 10.005 1.703 18.385 7.541 9.586 21.779 8.748 29.577-1.74 5.157-6.938 5.193-7.596.92-16.557-4.165-8.735-6.218-27.599-3.002-27.599.796 0 4.791 1.729 8.877 3.843 5.96 3.081 7.173 5.185 6.132 10.631-2.391 12.506 13.905 22.615 22.538 13.982 4.955-4.955 3.71-19.144-2.356-26.856-3.036-3.858-10.381-9.496-16.323-12.528l-10.805-5.512 7.227-3.786c7.009-3.672 7.665-3.385 21.805 9.538 8.019 7.328 16.074 13.324 17.901 13.324 1.828 0 4.688-4.555 6.355-10.121 1.667-5.566 8.764-17.719 15.769-27.007 28.121-37.283 38.59-64.854 38.424-101.201-.152-33.612-10.334-54.061-36.271-72.85-17.291-12.526-27.936-7.829-13.281 5.861 3.761 3.513 9.985 11.723 13.833 18.244 6.016 10.198 6.949 14.622 6.668 31.618-.535 32.391-13.06 59.168-39.623 84.719-12.935 12.441-42.102 33.848-46.118 33.848-1.209 0-2.198-2.859-2.198-6.353 0-6.717 11.537-18.284 21.341-21.396 4.497-1.428 5.27-3.215 4.042-9.352-1.19-5.953-.316-8.23 4.057-10.57 11.191-5.989 29.171-24.904 35.983-37.855 6.057-11.514 6.986-16.434 6.986-36.993 0-20.559-.93-25.479-6.986-36.993-6.771-12.873-24.778-31.857-35.822-37.769-3.348-1.792-4.944-4.685-4.186-7.585.832-3.182-2.056-7.157-8.983-12.368-5.615-4.224-13.615-12.208-17.778-17.742-9.001-11.966-12.322-12.473-18.469-2.817-2.537 3.985-10.42 12.412-17.518 18.726-8.671 7.713-12.447 12.921-11.51 15.874.977 3.078-1.453 5.928-8.109 9.513-11.477 6.181-25.257 22.465-32.476 38.377-7.394 16.297-7.394 49.27 0 65.568 7.222 15.92 21 32.197 32.493 38.386 8.604 4.634 9.37 5.933 7.952 13.492-1.3 6.93-.622 8.665 3.96 10.119 9.776 3.103 21.31 14.678 21.31 21.386 0 3.494-1 6.353-2.222 6.353-5.254 0-39.884-26.906-53.352-41.452-16.749-18.091-24.458-32.849-30.36-58.115-6.588-28.208-.414-51.198 18.494-68.862 14.809-13.834 3.959-18.35-13.574-5.649-23.8 17.241-35.906 41.805-35.796 72.638.119 33.705 10.778 62.898 35.113 96.171 13.976 19.11 21.093 31.956 21.093 38.073zm96.347-192.798l4.314-19.031 7.499 3.877c15.444 7.986 28.85 32.451 28.85 52.648 0 14.553-7.047 29.244-21.602 45.033-15.453 16.765-15.297 16.859-21.919-13.116-5.001-22.642-4.393-37.428 2.858-69.411zm-45.104 74.467c-2.249 8.637-4.96 16.578-6.026 17.646-3.813 3.821-20.479-10.817-28.117-24.696-14.651-26.621-9.084-55.732 14.779-77.292 13.053-11.792 12.526-12.356 19.366 20.757 5.177 25.066 5.176 43.692-.002 63.585z" fill="param(fill)" fill-opacity="param(fill-opacity)" stroke="param(outline)" stroke-opacity="param(outline-opacity)" stroke-width="param(outline-width)"/>
<path d="m375.979 362.932h-168.92c-5.561 0-10.068 4.508-10.068 10.068v168.921c0 5.561 4.507 10.068 10.068 10.068h168.92c5.561 0 10.068-4.508 10.068-10.068v-168.921c.001-5.561-4.507-10.068-10.068-10.068z" fill="none" stroke="param(outline)" stroke-width="param(outline-width)"/>
</svg>
