<?xml version="1.0" encoding="utf-8"?>
<!-- Generator: Adobe Illustrator 16.0.0, SVG Export Plug-In . SVG Version: 6.00 Build 0)  -->
<!DOCTYPE svg PUBLIC "-//W3C//DTD SVG 1.1//EN" "http://www.w3.org/Graphics/SVG/1.1/DTD/svg11.dtd">
<svg version="1.1"
	 id="svg2" xmlns:dc="http://purl.org/dc/elements/1.1/" xmlns:cc="http://creativecommons.org/ns#" xmlns:rdf="http://www.w3.org/1999/02/22-rdf-syntax-ns#" xmlns:svg="http://www.w3.org/2000/svg" xmlns:sodipodi="http://sodipodi.sourceforge.net/DTD/sodipodi-0.dtd" xmlns:inkscape="http://www.inkscape.org/namespaces/inkscape" inkscape:output_extension="org.inkscape.output.svg.inkscape" sodipodi:docbase="s:\Data\FacilityIcons" sodipodi:docname="place_of_worship_bahai.svg" inkscape:version="0.46" sodipodi:version="0.32"
	 xmlns="http://www.w3.org/2000/svg" xmlns:xlink="http://www.w3.org/1999/xlink" x="0px" y="0px" width="580px" height="580px"
	 viewBox="0 0 580 580" enable-background="new 0 0 580 580" xml:space="preserve">
<sodipodi:namedview  showgrid="false" inkscape:cy="172.10413" inkscape:cx="-57.954519" inkscape:zoom="0.65172414" pagecolor="#ffffff" bordercolor="#666666" guidetolerance="10.0" objecttolerance="10.0" gridtolerance="10.0" borderopacity="1.0" id="base" inkscape:current-layer="svg2" inkscape:window-y="20" inkscape:window-x="0" inkscape:pageopacity="0.0" inkscape:pageshadow="2" inkscape:window-width="1400" inkscape:window-height="1003">
	</sodipodi:namedview>
<defs>
	
	
		<inkscape:perspective  inkscape:vp_z="580 : 290 : 1" inkscape:vp_y="0 : 1000 : 0" inkscape:vp_x="0 : 290 : 1" sodipodi:type="inkscape:persp3d" id="perspective2441" inkscape:persp3d-origin="290 : 193.33333 : 1">
		</inkscape:perspective>
	
		<inkscape:perspective  inkscape:vp_z="744.09448 : 526.18109 : 1" inkscape:vp_y="0 : 1000 : 0" inkscape:vp_x="0 : 526.18109 : 1" sodipodi:type="inkscape:persp3d" id="perspective2466" inkscape:persp3d-origin="372.04724 : 350.78739 : 1">
		</inkscape:perspective>
	
		<inkscape:perspective  inkscape:vp_z="744.09448 : 526.18109 : 1" inkscape:vp_y="0 : 1000 : 0" inkscape:vp_x="0 : 526.18109 : 1" sodipodi:type="inkscape:persp3d" id="perspective3333" inkscape:persp3d-origin="372.04724 : 350.78739 : 1">
		</inkscape:perspective>
	
		<inkscape:perspective  inkscape:vp_z="744.09448 : 526.18109 : 1" inkscape:vp_y="0 : 1000 : 0" inkscape:vp_x="0 : 526.18109 : 1" sodipodi:type="inkscape:persp3d" id="perspective3401" inkscape:persp3d-origin="372.04724 : 350.78739 : 1">
		</inkscape:perspective>
	
		<inkscape:perspective  inkscape:vp_z="744.09448 : 526.18109 : 1" inkscape:vp_y="0 : 1000 : 0" inkscape:vp_x="0 : 526.18109 : 1" sodipodi:type="inkscape:persp3d" id="perspective3464" inkscape:persp3d-origin="372.04724 : 350.78739 : 1">
		</inkscape:perspective>
	
		<inkscape:perspective  inkscape:vp_z="450 : 225 : 1" inkscape:vp_y="0 : 1000 : 0" inkscape:vp_x="0 : 225 : 1" sodipodi:type="inkscape:persp3d" id="perspective3581" inkscape:persp3d-origin="225 : 150 : 1">
		</inkscape:perspective>
	
		<inkscape:perspective  inkscape:vp_z="450 : 225 : 1" inkscape:vp_y="0 : 1000 : 0" inkscape:vp_x="0 : 225 : 1" sodipodi:type="inkscape:persp3d" id="perspective4312" inkscape:persp3d-origin="225 : 150 : 1">
		</inkscape:perspective>
</defs>
<path id="path1873" sodipodi:nodetypes="cssscccssssssssssssssssssssssssssssssssccscccssssssssssssssssssssssssssscccscccsc" fill="param(fill) #FFF" stroke="param(outline) #000" stroke-width="param(outline-width) 1" d="
	M231.99,308.725c-0.198-22.225-0.762-40.811-1.253-41.302c-0.936-0.936-41.061,4.717-65.01,9.159
	c-13.754,2.551-18.741,1.837-18.741-2.68c0-1.268,11.361-16.398,25.247-33.623l25.247-31.317l-8.435-4.977
	c-4.639-2.737-8.935-4.977-9.545-4.977s-6.813-3.665-13.785-8.144c-6.971-4.479-17.916-11.101-24.32-14.715
	c-9.032-5.096-11.478-7.741-10.896-11.785c0.61-4.242,3.008-5.554,12.856-7.035c25.375-3.816,64.167-12.418,64.167-14.229
	c0-1.04-5.549-17.804-12.33-37.253c-12.088-34.669-13.197-42.438-6.057-42.438c1.957,0,17.646,8.172,34.865,18.161
	s32.353,18.161,33.63,18.161s5.419-8.894,9.203-19.763c15.167-43.569,19.994-54.058,25.251-54.865
	c2.777-0.426,5.521,0.664,6.098,2.421c1.066,3.249,15.388,43.158,22.218,61.916c2.062,5.66,4.643,10.291,5.736,10.291
	s15.44-7.979,31.883-17.73c34.283-20.333,36.413-21.296,40.917-18.513c2.681,1.657,0.863,9.176-9.458,39.124
	c-7.026,20.39-12.978,38.069-13.224,39.287c-0.421,2.085,41.542,11.33,66.746,14.704c9.787,1.31,11.489,2.33,11.416,6.839
	c-0.068,4.202-6.839,9.298-32.689,24.603c-17.931,10.617-32.603,20.227-32.603,21.356s10.896,15.468,24.214,31.864
	c13.318,16.396,24.214,31.03,24.214,32.52c0,3.832-9.4,3.396-46.006-2.135c-17.631-2.663-33.56-4.843-35.398-4.843
	c-2.713,0-3.344,7.767-3.344,41.164c0,52.312-0.037,52.325-33.899,12.106c-13.456-15.98-25.449-29.057-26.652-29.057
	s-12.816,13.076-25.807,29.057c-16.985,20.896-25.09,29.057-28.857,29.057C232.441,349.133,232.343,348.426,231.99,308.725z
	 M273.048,271.648c8.544-10.654,17.182-19.362,19.194-19.352s10.741,8.704,19.397,19.318l15.739,19.299l0.604-21.134
	c0.835-29.171,1.705-32.033,9.732-32.017c3.637,0.007,10.427,0.993,15.088,2.19c12.911,3.316,29.057,4.828,29.057,2.721
	c0-1.033-6.648-10.207-14.774-20.387c-8.125-10.179-14.206-19.986-13.514-21.792c0.693-1.806,10.115-8.513,20.938-14.903
	c10.823-6.391,20.152-12.387,20.732-13.325c0.579-0.938-4.646-2.561-11.613-3.607c-6.966-1.047-13.211-2.055-13.877-2.24
	s-6.386-1.168-12.712-2.184c-14.186-2.276-14.488-4.641-4.229-33.05c4-11.077,6.799-20.613,6.219-21.192
	c-0.579-0.58-10.492,4.501-22.028,11.292c-11.536,6.79-21.923,12.345-23.083,12.345c-3.017,0-5.811-5.931-13.434-28.515
	c-3.697-10.952-7.404-19.913-8.237-19.913c-0.834,0-5.257,10.46-9.828,23.245c-4.571,12.785-9.587,23.764-11.146,24.399
	c-2.646,1.078-11.413-3.215-36.513-17.878c-5.66-3.307-10.291-4.906-10.291-3.554s3.269,11.72,7.265,23.04
	c3.995,11.319,7.264,22.253,7.264,24.297c0,3.9-5.773,5.479-36.98,10.12c-6.355,0.945-12.075,2.558-12.709,3.584
	c-0.635,1.026,2.432,3.879,6.814,6.34c24.614,13.818,33.187,19.297,34.2,21.859c0.622,1.572-2.015,7.02-5.857,12.107
	c-3.843,5.087-10.929,14.501-15.746,20.921l-8.758,11.672l11.648-1.595c6.407-0.877,15.462-2.582,20.124-3.789
	c4.661-1.207,11.471-2.201,15.133-2.208l6.659-0.014l0.033,21.188c0.028,17.976,1.546,32.083,3.453,32.083
	C257.288,291.02,264.503,282.303,273.048,271.648z"/>
<path opacity="0.5" fill="param(fill) #FFF" d="M375.979,362.932h-168.92c-5.561,0-10.068,4.508-10.068,10.068v168.921
	c0,5.561,4.507,10.068,10.068,10.068h168.92c5.561,0,10.068-4.508,10.068-10.068V373
	C386.048,367.439,381.54,362.932,375.979,362.932z"/>
<path fill="none" stroke="param(outline) #000" stroke-width="param(outline-width) 1" d="M375.979,362.932h-168.92c-5.561,0-10.068,4.508-10.068,10.068v168.921
	c0,5.561,4.507,10.068,10.068,10.068h168.92c5.561,0,10.068-4.508,10.068-10.068V373
	C386.048,367.439,381.54,362.932,375.979,362.932z"/>
</svg>
