<?xml version="1.0" encoding="utf-8"?>
<!-- Generator: Adobe Illustrator 16.0.0, SVG Export Plug-In . SVG Version: 6.00 Build 0)  -->
<!DOCTYPE svg PUBLIC "-//W3C//DTD SVG 1.1//EN" "http://www.w3.org/Graphics/SVG/1.1/DTD/svg11.dtd">
<svg version="1.1"
	 id="svg2" xmlns:dc="http://purl.org/dc/elements/1.1/" xmlns:cc="http://creativecommons.org/ns#" xmlns:rdf="http://www.w3.org/1999/02/22-rdf-syntax-ns#" xmlns:svg="http://www.w3.org/2000/svg" xmlns:sodipodi="http://sodipodi.sourceforge.net/DTD/sodipodi-0.dtd" xmlns:inkscape="http://www.inkscape.org/namespaces/inkscape" inkscape:output_extension="org.inkscape.output.svg.inkscape" sodipodi:docbase="s:\Data\FacilityIcons" sodipodi:docname="place_of_worship_jain.svg" inkscape:version="0.46" sodipodi:version="0.32"
	 xmlns="http://www.w3.org/2000/svg" xmlns:xlink="http://www.w3.org/1999/xlink" x="0px" y="0px" width="580px" height="580px"
	 viewBox="0 0 580 580" enable-background="new 0 0 580 580" xml:space="preserve">
<sodipodi:namedview  showgrid="false" inkscape:cy="408.16687" inkscape:cx="216.85731" inkscape:zoom="2.6068966" pagecolor="#ffffff" bordercolor="#666666" guidetolerance="10.0" objecttolerance="10.0" gridtolerance="10.0" borderopacity="1.0" id="base" inkscape:current-layer="svg2" inkscape:window-y="20" inkscape:window-x="0" inkscape:pageopacity="0.0" inkscape:pageshadow="2" inkscape:window-width="1400" inkscape:window-height="1003">
	</sodipodi:namedview>
<defs>
	
	
		<inkscape:perspective  inkscape:vp_z="580 : 290 : 1" inkscape:vp_y="0 : 1000 : 0" inkscape:vp_x="0 : 290 : 1" sodipodi:type="inkscape:persp3d" id="perspective2441" inkscape:persp3d-origin="290 : 193.33333 : 1">
		</inkscape:perspective>
	
		<inkscape:perspective  inkscape:vp_z="744.09448 : 526.18109 : 1" inkscape:vp_y="0 : 1000 : 0" inkscape:vp_x="0 : 526.18109 : 1" sodipodi:type="inkscape:persp3d" id="perspective2466" inkscape:persp3d-origin="372.04724 : 350.78739 : 1">
		</inkscape:perspective>
	
		<inkscape:perspective  inkscape:vp_z="744.09448 : 526.18109 : 1" inkscape:vp_y="0 : 1000 : 0" inkscape:vp_x="0 : 526.18109 : 1" sodipodi:type="inkscape:persp3d" id="perspective3333" inkscape:persp3d-origin="372.04724 : 350.78739 : 1">
		</inkscape:perspective>
	
		<inkscape:perspective  inkscape:vp_z="744.09448 : 526.18109 : 1" inkscape:vp_y="0 : 1000 : 0" inkscape:vp_x="0 : 526.18109 : 1" sodipodi:type="inkscape:persp3d" id="perspective3401" inkscape:persp3d-origin="372.04724 : 350.78739 : 1">
		</inkscape:perspective>
	
		<inkscape:perspective  inkscape:vp_z="744.09448 : 526.18109 : 1" inkscape:vp_y="0 : 1000 : 0" inkscape:vp_x="0 : 526.18109 : 1" sodipodi:type="inkscape:persp3d" id="perspective3464" inkscape:persp3d-origin="372.04724 : 350.78739 : 1">
		</inkscape:perspective>
	
		<inkscape:perspective  inkscape:vp_z="450 : 225 : 1" inkscape:vp_y="0 : 1000 : 0" inkscape:vp_x="0 : 225 : 1" sodipodi:type="inkscape:persp3d" id="perspective3581" inkscape:persp3d-origin="225 : 150 : 1">
		</inkscape:perspective>
	
		<inkscape:perspective  inkscape:vp_z="450 : 225 : 1" inkscape:vp_y="0 : 1000 : 0" inkscape:vp_x="0 : 225 : 1" sodipodi:type="inkscape:persp3d" id="perspective4312" inkscape:persp3d-origin="225 : 150 : 1">
		</inkscape:perspective>
</defs>
<path id="path1873" sodipodi:nodetypes="cscssscccssssscccsscsscscsccssssscccccsscccccscccccssssccccccsc" fill="param(fill) #FFF" stroke="param(outline) #000" stroke-width="param(outline-width) 1" d="
	M265.7,346.179c-5.82-1.698-13.98-4.853-18.133-7.009c-12.983-6.74-33.326-28.609-40.137-43.146c0,0-5.576-13.388-5.883-20.384
	c-1.081-24.608-0.728-34.059-0.517-77.937c0.224-46.562,0.782-87.444,1.738-90.847c2.121-7.55,15.871-14.686,25.558-13.264
	l6.803,0.999V73.18c0-15.245,1.018-22.864,3.535-26.457c4.069-5.809,18.161-11.135,24.841-9.388c3.35,0.876,4.548-0.021,4.548-3.406
	c0-2.528,2.8-7.191,6.223-10.363c4.946-4.584,8.73-5.767,18.448-5.767c15.89,0,20.729,4.991,22.354,23.052l1.185,13.171l9.993,0.241
	c6.095,0.147,12.518,2.124,16.462,5.066c6.395,4.769,6.116,5.176,7.128,34.783c0.593,17.071,0.27,27.538,1.235,31.293
	c11.568-12.02,46.901-4.47,48.204,4.489c0.393,2.7-1.974,8.868-5.258,13.707c-10.143,14.945-11.471,23.304-12.901,81.205
	c0,0,0.413,24.853-1.885,42.654c-2.299,17.802-7.308,28.554-7.308,28.554c-9.51,19.301-26.285,36.617-43.756,45.165
	C312.541,348.83,282.908,351.201,265.7,346.179z M317.958,324.938c18.604-8.442,32.432-23.324,40.657-43.752
	c3.526-8.759,4.523-20.509,5.783-68.198c1.255-47.519,2.219-58.935,5.5-65.142c2.188-4.139,3.979-8.49,3.979-9.668
	c0-3.961-11.336-0.021-16.862,5.863c-4.731,5.036-5.637,8.921-6.653,28.569l-1.177,22.74h-6.844h-6.844l0.546-59.522
	c0.567-61.911-0.049-66.292-9.319-66.292c-2.336,0-5.91,1.663-7.943,3.695c-3.135,3.135-3.695,11.519-3.695,55.264v51.569h-7.055
	h-7.055v-70.262c0-75.193-0.434-77.96-11.646-74.401c-4.712,1.496-4.816,3.044-4.816,71.92v70.392h-8.231h-8.231v-59.851
	c0-53.056-0.438-60.096-3.861-62.012c-2.124-1.188-5.69-1.683-7.926-1.098c-3.568,0.933-4.269,6.021-5.746,41.696
	c-0.925,22.348-1.493,50.569-1.261,62.712c0.571,29.899,0.929,28.38-6.487,27.527l-6.467-0.744l-0.654-35.177
	c-0.686-36.936-1.25-38.795-11.803-38.865l-5.402-0.036l0.698,84.072c0.689,82.892,0.776,84.217,6.181,94.347
	C243.64,324.613,284.771,340,317.958,324.938z"/>
<path id="path5122" fill="param(fill) #FFF" stroke="param(outline) #000" stroke-width="param(outline-width) 1" d="M292.188,195.813
	c-17.556-1.156-34.953,6.269-46.188,19.844c-15.888,17.593-19.028,44.494-10.656,66.219c6.078,13.65,18.084,24.236,30.93,31.408
	c14.519,7.115,32.19,5.367,46.789-0.033c15.682-7.039,27.452-21.633,33.686-37.284c5.335-17.175,6.701-37.7-3.436-53.498
	C331.766,206.131,312.363,195.291,292.188,195.813z"/>
<path opacity="0.5" fill="param(fill) #FFF" d="M375.979,362.932h-168.92c-5.561,0-10.068,4.508-10.068,10.068v168.921
	c0,5.561,4.507,10.068,10.068,10.068h168.92c5.561,0,10.068-4.508,10.068-10.068V373
	C386.048,367.439,381.54,362.932,375.979,362.932z"/>
<path fill="none" stroke="param(outline) #000" stroke-width="param(outline-width) 1" d="M375.979,362.932h-168.92c-5.561,0-10.068,4.508-10.068,10.068v168.921
	c0,5.561,4.507,10.068,10.068,10.068h168.92c5.561,0,10.068-4.508,10.068-10.068V373
	C386.048,367.439,381.54,362.932,375.979,362.932z"/>
</svg>
