<svg enable-background="new 0 0 580 580" height="580" viewBox="0 0 580 580" width="580" xmlns="http://www.w3.org/2000/svg">
<path d="m357.839 310.867c-22.835 4.59-29.216 4.973-43.131 2.589-44.837-7.681-85.434-42.517-101.46-87.064-7.741-21.517-7.711-60.461.063-82.117 16.48-45.906 57.715-80.45 103.552-86.747 15.919-2.187 22.749-1.79 43.337 2.524 25.727 5.39 30.583 5.177 25.362-1.114-10.212-12.305-60.651-29.146-87.291-29.146-17.873 0-48.794 5.734-62.713 11.63-38.315 16.229-73.063 53.602-86.8 93.359-5.027 14.548-7.892 28.244-8.079 49.591-.191 21.332 3.052 37.174 8.079 51.722 14.409 41.702 53.023 81.281 93.011 95.336 7.803 2.742 18.829 5.91 24.503 7.037 27.747 5.518 66.449.788 92.989-11.361 17.974-8.229 30.231-16.953 27.507-19.576-1.171-1.127-14.189.375-28.929 3.337z" fill="param(fill)" fill-opacity="param(fill-opacity)" stroke="param(outline)" stroke-opacity="param(outline-opacity)" stroke-width="param(outline-width)"/>
<path d="m438.406 164.531c-10.86-.697-21.751-.247-32.625-.375-5.151-13.282-7.503-28.201-15.938-39.813-.659-.529-1.526-.938-2.406-.688-5.484 3.949-6.54 11.688-9.438 17.469-2.636 7.223-5.082 14.529-7.656 21.781-13.873 1.182-28.573-.64-41.906 3.688-3.366 3.973 3.494 7.08 5.75 9.656 8.498 6.97 17.753 12.897 26.344 19.781-3.654 13.328-10.394 26.229-11.156 40.125 2.293 6.166 9.301 1.114 12.509-1.321 8.764-5.786 16.959-13.37 26.397-17.679 12.068 6.453 22.324 16.287 34.375 22.938 5.384.154 3.824-7.439 3.188-10.875-1.988-11.057-7.516-21.824-9.313-32.594 9.902-10.189 23.055-16.584 32.5-27.219.607-5.336-7.231-4.046-10.625-4.874z" fill="param(fill)" fill-opacity="param(fill-opacity)" stroke="param(outline)" stroke-opacity="param(outline-opacity)" stroke-width="param(outline-width)"/>
<path d="m375.979 362.932h-168.92c-5.561 0-10.068 4.508-10.068 10.068v168.921c0 5.561 4.507 10.068 10.068 10.068h168.92c5.561 0 10.068-4.508 10.068-10.068v-168.921c.001-5.561-4.507-10.068-10.068-10.068z" fill="param(fill)" opacity=".5"/>
<path d="m375.979 362.932h-168.92c-5.561 0-10.068 4.508-10.068 10.068v168.921c0 5.561 4.507 10.068 10.068 10.068h168.92c5.561 0 10.068-4.508 10.068-10.068v-168.921c.001-5.561-4.507-10.068-10.068-10.068z" fill="none" stroke="param(outline)" stroke-width="param(outline-width)"/>
</svg>
