<?xml version="1.0" encoding="utf-8"?>
<!-- Generator: Adobe Illustrator 16.0.0, SVG Export Plug-In . SVG Version: 6.00 Build 0)  -->
<!DOCTYPE svg PUBLIC "-//W3C//DTD SVG 1.1//EN" "http://www.w3.org/Graphics/SVG/1.1/DTD/svg11.dtd">
<svg version="1.1"
	 id="svg2" xmlns:dc="http://purl.org/dc/elements/1.1/" xmlns:cc="http://creativecommons.org/ns#" xmlns:rdf="http://www.w3.org/1999/02/22-rdf-syntax-ns#" xmlns:svg="http://www.w3.org/2000/svg" xmlns:sodipodi="http://sodipodi.sourceforge.net/DTD/sodipodi-0.dtd" xmlns:inkscape="http://www.inkscape.org/namespaces/inkscape" inkscape:output_extension="org.inkscape.output.svg.inkscape" sodipodi:docbase="s:\Data\FacilityIcons" sodipodi:docname="place_of_worship_islamic.svg" inkscape:version="0.46" sodipodi:version="0.32"
	 xmlns="http://www.w3.org/2000/svg" xmlns:xlink="http://www.w3.org/1999/xlink" x="0px" y="0px" width="580px" height="580px"
	 viewBox="0 0 580 580" enable-background="new 0 0 580 580" xml:space="preserve">
<sodipodi:namedview  showgrid="false" inkscape:cy="172.10413" inkscape:cx="-57.954519" inkscape:zoom="0.65172414" pagecolor="#ffffff" bordercolor="#666666" guidetolerance="10.0" objecttolerance="10.0" gridtolerance="10.0" borderopacity="1.0" id="base" inkscape:current-layer="svg2" inkscape:window-y="20" inkscape:window-x="0" inkscape:pageopacity="0.0" inkscape:pageshadow="2" inkscape:window-width="1400" inkscape:window-height="1003">
	</sodipodi:namedview>
<defs>
	
	
		<inkscape:perspective  inkscape:vp_z="580 : 290 : 1" inkscape:vp_y="0 : 1000 : 0" inkscape:vp_x="0 : 290 : 1" sodipodi:type="inkscape:persp3d" id="perspective2441" inkscape:persp3d-origin="290 : 193.33333 : 1">
		</inkscape:perspective>
	
		<inkscape:perspective  inkscape:vp_z="744.09448 : 526.18109 : 1" inkscape:vp_y="0 : 1000 : 0" inkscape:vp_x="0 : 526.18109 : 1" sodipodi:type="inkscape:persp3d" id="perspective2466" inkscape:persp3d-origin="372.04724 : 350.78739 : 1">
		</inkscape:perspective>
	
		<inkscape:perspective  inkscape:vp_z="744.09448 : 526.18109 : 1" inkscape:vp_y="0 : 1000 : 0" inkscape:vp_x="0 : 526.18109 : 1" sodipodi:type="inkscape:persp3d" id="perspective3333" inkscape:persp3d-origin="372.04724 : 350.78739 : 1">
		</inkscape:perspective>
	
		<inkscape:perspective  inkscape:vp_z="744.09448 : 526.18109 : 1" inkscape:vp_y="0 : 1000 : 0" inkscape:vp_x="0 : 526.18109 : 1" sodipodi:type="inkscape:persp3d" id="perspective3401" inkscape:persp3d-origin="372.04724 : 350.78739 : 1">
		</inkscape:perspective>
	
		<inkscape:perspective  inkscape:vp_z="744.09448 : 526.18109 : 1" inkscape:vp_y="0 : 1000 : 0" inkscape:vp_x="0 : 526.18109 : 1" sodipodi:type="inkscape:persp3d" id="perspective3464" inkscape:persp3d-origin="372.04724 : 350.78739 : 1">
		</inkscape:perspective>
	
		<inkscape:perspective  inkscape:vp_z="450 : 225 : 1" inkscape:vp_y="0 : 1000 : 0" inkscape:vp_x="0 : 225 : 1" sodipodi:type="inkscape:persp3d" id="perspective3581" inkscape:persp3d-origin="225 : 150 : 1">
		</inkscape:perspective>
	
		<inkscape:perspective  inkscape:vp_z="450 : 225 : 1" inkscape:vp_y="0 : 1000 : 0" inkscape:vp_x="0 : 225 : 1" sodipodi:type="inkscape:persp3d" id="perspective4312" inkscape:persp3d-origin="225 : 150 : 1">
		</inkscape:perspective>
</defs>
<g>
	<path fill="#FFFB3D" stroke="#1EFF31" stroke-width="4.4444" d="M357.839,310.867c-22.835,4.59-29.216,4.973-43.131,2.589
		c-44.837-7.681-85.434-42.517-101.46-87.064c-7.741-21.517-7.711-60.461,0.063-82.117c16.48-45.906,57.715-80.45,103.552-86.747
		c15.919-2.187,22.749-1.79,43.337,2.524c25.727,5.39,30.583,5.177,25.362-1.114c-10.212-12.305-60.651-29.146-87.291-29.146
		c-17.873,0-48.794,5.734-62.713,11.63c-38.315,16.229-73.063,53.602-86.8,93.359c-5.027,14.548-7.892,28.244-8.079,49.591
		c-0.191,21.332,3.052,37.174,8.079,51.722c14.409,41.702,53.023,81.281,93.011,95.336c7.803,2.742,18.829,5.91,24.503,7.037
		c27.747,5.518,66.449,0.788,92.989-11.361c17.974-8.229,30.231-16.953,27.507-19.576
		C385.597,306.403,372.579,307.905,357.839,310.867z"/>
	<path fill="#FFFB3D" stroke="#1EFF31" stroke-width="4.4444" d="M438.406,164.531c-10.86-0.697-21.751-0.247-32.625-0.375
		c-5.151-13.282-7.503-28.201-15.938-39.813c-0.659-0.529-1.526-0.938-2.406-0.688c-5.484,3.949-6.54,11.688-9.438,17.469
		c-2.636,7.223-5.082,14.529-7.656,21.781c-13.873,1.182-28.573-0.64-41.906,3.688c-3.366,3.973,3.494,7.08,5.75,9.656
		c8.498,6.97,17.753,12.897,26.344,19.781c-3.654,13.328-10.394,26.229-11.156,40.125c2.293,6.166,9.301,1.114,12.509-1.321
		c8.764-5.786,16.959-13.37,26.397-17.679c12.068,6.453,22.324,16.287,34.375,22.938c5.384,0.154,3.824-7.439,3.188-10.875
		c-1.988-11.057-7.516-21.824-9.313-32.594c9.902-10.189,23.055-16.584,32.5-27.219C449.638,164.069,441.8,165.359,438.406,164.531z
		"/>
</g>
<path opacity="0.5" fill="#FFFB3D" d="M375.979,362.932h-168.92c-5.561,0-10.068,4.508-10.068,10.068v168.921
	c0,5.561,4.507,10.068,10.068,10.068h168.92c5.561,0,10.068-4.508,10.068-10.068V373
	C386.048,367.439,381.54,362.932,375.979,362.932z"/>
<path fill="none" stroke="#1EFF31" stroke-width="4.4444" d="M375.979,362.932h-168.92c-5.561,0-10.068,4.508-10.068,10.068v168.921
	c0,5.561,4.507,10.068,10.068,10.068h168.92c5.561,0,10.068-4.508,10.068-10.068V373
	C386.048,367.439,381.54,362.932,375.979,362.932z"/>
</svg>
