<?xml version="1.0" encoding="UTF-8" standalone="no"?>
<!-- Created with Inkscape (http://www.inkscape.org/) -->
<svg
   xmlns:dc="http://purl.org/dc/elements/1.1/"
   xmlns:cc="http://creativecommons.org/ns#"
   xmlns:rdf="http://www.w3.org/1999/02/22-rdf-syntax-ns#"
   xmlns:svg="http://www.w3.org/2000/svg"
   xmlns="http://www.w3.org/2000/svg"
   xmlns:sodipodi="http://sodipodi.sourceforge.net/DTD/sodipodi-0.dtd"
   xmlns:inkscape="http://www.inkscape.org/namespaces/inkscape"
   version="1.0"
   width="580"
   height="580"
   id="svg2"
   sodipodi:version="0.32"
   inkscape:version="0.46"
   sodipodi:docname="place_of_worship_jain3.svg"
   sodipodi:docbase="s:\Data\FacilityIcons"
   inkscape:output_extension="org.inkscape.output.svg.inkscape">
  <metadata
     id="metadata2975">
    <rdf:RDF>
      <cc:Work
         rdf:about="">
        <dc:format>image/svg+xml</dc:format>
        <dc:type
           rdf:resource="http://purl.org/dc/dcmitype/StillImage" />
        <cc:license
           rdf:resource="http://web.resource.org/cc/PublicDomain" />
        <dc:language>en</dc:language>
      </cc:Work>
    </rdf:RDF>
  </metadata>
  <sodipodi:namedview
     inkscape:window-height="1003"
     inkscape:window-width="1400"
     inkscape:pageshadow="2"
     inkscape:pageopacity="0.0"
     guidetolerance="10.0"
     gridtolerance="10.0"
     objecttolerance="10.0"
     borderopacity="1.0"
     bordercolor="#666666"
     pagecolor="#ffffff"
     id="base"
     inkscape:zoom="0.65172414"
     inkscape:cx="-57.954519"
     inkscape:cy="172.10413"
     inkscape:window-x="0"
     inkscape:window-y="20"
     inkscape:current-layer="svg2"
     showgrid="false" />
  <defs
     id="defs4">
    <inkscape:perspective
       sodipodi:type="inkscape:persp3d"
       inkscape:vp_x="0 : 290 : 1"
       inkscape:vp_y="0 : 1000 : 0"
       inkscape:vp_z="580 : 290 : 1"
       inkscape:persp3d-origin="290 : 193.33333 : 1"
       id="perspective2441" />
    <inkscape:perspective
       id="perspective2466"
       inkscape:persp3d-origin="372.04724 : 350.78739 : 1"
       inkscape:vp_z="744.09448 : 526.18109 : 1"
       inkscape:vp_y="0 : 1000 : 0"
       inkscape:vp_x="0 : 526.18109 : 1"
       sodipodi:type="inkscape:persp3d" />
    <inkscape:perspective
       id="perspective3333"
       inkscape:persp3d-origin="372.04724 : 350.78739 : 1"
       inkscape:vp_z="744.09448 : 526.18109 : 1"
       inkscape:vp_y="0 : 1000 : 0"
       inkscape:vp_x="0 : 526.18109 : 1"
       sodipodi:type="inkscape:persp3d" />
    <inkscape:perspective
       id="perspective3401"
       inkscape:persp3d-origin="372.04724 : 350.78739 : 1"
       inkscape:vp_z="744.09448 : 526.18109 : 1"
       inkscape:vp_y="0 : 1000 : 0"
       inkscape:vp_x="0 : 526.18109 : 1"
       sodipodi:type="inkscape:persp3d" />
    <inkscape:perspective
       id="perspective3464"
       inkscape:persp3d-origin="372.04724 : 350.78739 : 1"
       inkscape:vp_z="744.09448 : 526.18109 : 1"
       inkscape:vp_y="0 : 1000 : 0"
       inkscape:vp_x="0 : 526.18109 : 1"
       sodipodi:type="inkscape:persp3d" />
    <inkscape:perspective
       id="perspective3581"
       inkscape:persp3d-origin="225 : 150 : 1"
       inkscape:vp_z="450 : 225 : 1"
       inkscape:vp_y="0 : 1000 : 0"
       inkscape:vp_x="0 : 225 : 1"
       sodipodi:type="inkscape:persp3d" />
    <inkscape:perspective
       id="perspective4312"
       inkscape:persp3d-origin="225 : 150 : 1"
       inkscape:vp_z="450 : 225 : 1"
       inkscape:vp_y="0 : 1000 : 0"
       inkscape:vp_x="0 : 225 : 1"
       sodipodi:type="inkscape:persp3d" />
  </defs>
  <g
     id="g1327">
    <path
       d="M 66.275,1.768 C 24.94,1.768 1.704,23.139 1.704,66.804 L 1.704,516.927 C 1.704,557.771 22.599,579.156 63.896,579.156 L 515.92,579.156 C 557.227,579.156 578.149,558.841 578.149,516.927 L 578.149,66.804 C 578.149,24.203 557.227,1.768 514.628,1.768 C 514.624,1.768 66.133,1.625 66.275,1.768 z "
       style="fill:#111;stroke:#eee;stroke-width:3.40799999"
       id="path1329" />
  </g>
  <g
     id="g6659"
     transform="matrix(1.5591179,0,0,1.5591179,42.229719,-235.69855)"
     style="opacity:0.25">
    <path
       style="fill:#ffffff"
       d="M 142.0916,514.24122 C 136.27122,512.54268 128.11121,509.38869 123.95824,507.23238 C 110.97519,500.49127 90.632431,478.6231 83.821171,464.08558 C 83.821171,464.08558 78.245041,450.69745 77.937891,443.70143 C 76.857441,419.09291 77.209881,409.64263 77.420711,365.76472 C 77.644451,319.20278 78.202921,278.32047 79.158971,274.91758 C 81.280031,267.36807 95.030121,260.23235 104.71693,261.65408 L 111.51991,262.65253 L 111.51991,241.24223 C 111.51991,225.99732 112.5378,218.37869 115.0547,214.78529 C 119.12339,208.97644 133.21558,203.65063 139.89529,205.39743 C 143.24566,206.27357 144.44327,205.37662 144.44327,201.99127 C 144.44327,199.46377 147.24343,194.80072 150.66584,191.62893 C 155.61205,187.04494 159.39624,185.86205 169.11473,185.86205 C 185.00359,185.86205 189.84351,190.85337 191.46788,208.9144 L 192.65249,222.08565 L 202.64581,222.3271 C 208.74011,222.47433 215.16285,224.45077 219.10749,227.39278 C 225.50208,232.16201 225.22357,232.56882 226.23571,262.17608 C 226.82812,279.2467 226.50516,289.71414 227.47104,293.46882 C 239.03916,281.44942 274.37195,288.99896 275.67444,297.95827 C 276.06689,300.65775 273.70092,306.82597 270.41677,311.66545 C 260.27468,326.61065 258.94669,334.96929 257.5153,392.87006 C 257.5153,392.87006 257.92844,417.72252 255.63037,435.52444 C 253.33227,453.32636 248.32296,464.07772 248.32296,464.07772 C 238.81382,483.37933 222.03833,500.69521 204.56708,509.2431 C 188.93255,516.89235 159.29971,519.26302 142.0916,514.24122 z M 194.34919,493.00059 C 212.95277,484.55789 226.78158,469.67672 235.00673,449.24897 C 238.53362,440.48966 239.52993,428.74013 240.78967,381.05057 C 242.0449,333.53206 243.00884,322.1157 246.28999,315.90854 C 248.4781,311.76915 250.26838,307.41836 250.26838,306.24005 C 250.26838,302.27841 238.93291,306.21973 233.40571,312.10316 C 228.67453,317.13926 227.76986,321.02417 226.75289,340.67246 L 225.57585,363.41305 L 218.73235,363.41305 L 211.88886,363.41305 L 212.43444,303.89031 C 213.00195,241.97969 212.38605,237.59876 203.11501,237.59876 C 200.77894,237.59876 197.20464,239.26172 195.17213,241.29425 C 192.03731,244.42907 191.47665,252.81336 191.47665,296.55847 L 191.47665,348.1272 L 184.42164,348.1272 L 177.36664,348.1272 L 177.36664,277.86507 C 177.36664,202.67138 176.93365,199.90504 165.72115,203.46375 C 161.00864,204.95943 160.90496,206.50791 160.90496,275.38394 L 160.90496,345.77553 L 152.67411,345.77553 L 144.44327,345.77553 L 144.44327,285.92483 C 144.44327,232.86847 144.0049,225.8288 140.58176,223.91311 C 138.45792,222.72455 134.89152,222.23032 132.6564,222.81481 C 129.0885,223.74786 128.38732,228.83595 126.9105,264.51082 C 125.98538,286.85912 125.41815,315.07986 125.65005,327.22357 C 126.22097,357.12264 126.57891,355.60382 119.16283,354.75049 L 112.69574,354.00638 L 112.04214,318.82955 C 111.35588,281.89365 110.79145,280.03517 100.23869,279.96481 L 94.836651,279.9288 L 95.535351,364.00097 C 96.224251,446.8922 96.311051,448.21746 101.71594,458.34772 C 120.031,492.67517 161.16185,508.06169 194.34919,493.00059 z"
       id="path1873"
       sodipodi:nodetypes="cscssscccssssscccsscsscscsccssssscccccsscccccscccccssssccccccsc" />
    <path
       id="path5122"
       d="M 168.57903,363.87475 C 151.02289,362.71866 133.62626,370.14323 122.39153,383.7185 C 106.50365,401.31187 103.36295,428.21291 111.73528,449.93725 C 117.81329,463.5876 129.81977,474.1734 142.6651,481.34484 C 157.18414,488.46096 174.85499,486.71329 189.45403,481.31225 C 205.13536,474.27318 216.90639,459.67879 223.13952,444.02871 C 228.47481,426.85354 229.84087,406.32818 219.70403,390.531 C 208.15737,374.19347 188.75469,363.35271 168.57903,363.87475 z"
       style="fill:#ffffff" />
  </g>
  <g
     style="opacity:1"
     transform="matrix(1.5591179,0,0,1.5591179,2.229719,-275.69855)"
     id="g6700">
    <path
       sodipodi:nodetypes="cscssscccssssscccsscsscscsccssssscccccsscccccscccccssssccccccsc"
       id="path6702"
       d="M 142.0916,514.24122 C 136.27122,512.54268 128.11121,509.38869 123.95824,507.23238 C 110.97519,500.49127 90.632431,478.6231 83.821171,464.08558 C 83.821171,464.08558 78.245041,450.69745 77.937891,443.70143 C 76.857441,419.09291 77.209881,409.64263 77.420711,365.76472 C 77.644451,319.20278 78.202921,278.32047 79.158971,274.91758 C 81.280031,267.36807 95.030121,260.23235 104.71693,261.65408 L 111.51991,262.65253 L 111.51991,241.24223 C 111.51991,225.99732 112.5378,218.37869 115.0547,214.78529 C 119.12339,208.97644 133.21558,203.65063 139.89529,205.39743 C 143.24566,206.27357 144.44327,205.37662 144.44327,201.99127 C 144.44327,199.46377 147.24343,194.80072 150.66584,191.62893 C 155.61205,187.04494 159.39624,185.86205 169.11473,185.86205 C 185.00359,185.86205 189.84351,190.85337 191.46788,208.9144 L 192.65249,222.08565 L 202.64581,222.3271 C 208.74011,222.47433 215.16285,224.45077 219.10749,227.39278 C 225.50208,232.16201 225.22357,232.56882 226.23571,262.17608 C 226.82812,279.2467 226.50516,289.71414 227.47104,293.46882 C 239.03916,281.44942 274.37195,288.99896 275.67444,297.95827 C 276.06689,300.65775 273.70092,306.82597 270.41677,311.66545 C 260.27468,326.61065 258.94669,334.96929 257.5153,392.87006 C 257.5153,392.87006 257.92844,417.72252 255.63037,435.52444 C 253.33227,453.32636 248.32296,464.07772 248.32296,464.07772 C 238.81382,483.37933 222.03833,500.69521 204.56708,509.2431 C 188.93255,516.89235 159.29971,519.26302 142.0916,514.24122 z M 194.34919,493.00059 C 212.95277,484.55789 226.78158,469.67672 235.00673,449.24897 C 238.53362,440.48966 239.52993,428.74013 240.78967,381.05057 C 242.0449,333.53206 243.00884,322.1157 246.28999,315.90854 C 248.4781,311.76915 250.26838,307.41836 250.26838,306.24005 C 250.26838,302.27841 238.93291,306.21973 233.40571,312.10316 C 228.67453,317.13926 227.76986,321.02417 226.75289,340.67246 L 225.57585,363.41305 L 218.73235,363.41305 L 211.88886,363.41305 L 212.43444,303.89031 C 213.00195,241.97969 212.38605,237.59876 203.11501,237.59876 C 200.77894,237.59876 197.20464,239.26172 195.17213,241.29425 C 192.03731,244.42907 191.47665,252.81336 191.47665,296.55847 L 191.47665,348.1272 L 184.42164,348.1272 L 177.36664,348.1272 L 177.36664,277.86507 C 177.36664,202.67138 176.93365,199.90504 165.72115,203.46375 C 161.00864,204.95943 160.90496,206.50791 160.90496,275.38394 L 160.90496,345.77553 L 152.67411,345.77553 L 144.44327,345.77553 L 144.44327,285.92483 C 144.44327,232.86847 144.0049,225.8288 140.58176,223.91311 C 138.45792,222.72455 134.89152,222.23032 132.6564,222.81481 C 129.0885,223.74786 128.38732,228.83595 126.9105,264.51082 C 125.98538,286.85912 125.41815,315.07986 125.65005,327.22357 C 126.22097,357.12264 126.57891,355.60382 119.16283,354.75049 L 112.69574,354.00638 L 112.04214,318.82955 C 111.35588,281.89365 110.79145,280.03517 100.23869,279.96481 L 94.836651,279.9288 L 95.535351,364.00097 C 96.224251,446.8922 96.311051,448.21746 101.71594,458.34772 C 120.031,492.67517 161.16185,508.06169 194.34919,493.00059 z"
       style="fill:#ffffff" />
    <path
       style="fill:#ffffff"
       d="M 168.57903,363.87475 C 151.02289,362.71866 133.62626,370.14323 122.39153,383.7185 C 106.50365,401.31187 103.36295,428.21291 111.73528,449.93725 C 117.81329,463.5876 129.81977,474.1734 142.6651,481.34484 C 157.18414,488.46096 174.85499,486.71329 189.45403,481.31225 C 205.13536,474.27318 216.90639,459.67879 223.13952,444.02871 C 228.47481,426.85354 229.84087,406.32818 219.70403,390.531 C 208.15737,374.19347 188.75469,363.35271 168.57903,363.87475 z"
       id="path6704" />
  </g>
</svg>
