<?xml version="1.0" encoding="utf-8"?>
<!-- Generator: Adobe Illustrator 16.0.0, SVG Export Plug-In . SVG Version: 6.00 Build 0)  -->
<!DOCTYPE svg PUBLIC "-//W3C//DTD SVG 1.1//EN" "http://www.w3.org/Graphics/SVG/1.1/DTD/svg11.dtd">
<svg version="1.1"
	 id="svg2" xmlns:dc="http://purl.org/dc/elements/1.1/" xmlns:cc="http://creativecommons.org/ns#" xmlns:rdf="http://www.w3.org/1999/02/22-rdf-syntax-ns#" xmlns:svg="http://www.w3.org/2000/svg" xmlns:sodipodi="http://sodipodi.sourceforge.net/DTD/sodipodi-0.dtd" xmlns:inkscape="http://www.inkscape.org/namespaces/inkscape" inkscape:output_extension="org.inkscape.output.svg.inkscape" sodipodi:docbase="s:\Data\FacilityIcons" sodipodi:docname="place_of_worship_jewish.svg" inkscape:version="0.46" sodipodi:version="0.32"
	 xmlns="http://www.w3.org/2000/svg" xmlns:xlink="http://www.w3.org/1999/xlink" x="0px" y="0px" width="580px" height="580px"
	 viewBox="0 0 580 580" enable-background="new 0 0 580 580" xml:space="preserve">
<sodipodi:namedview  showgrid="false" inkscape:cy="268.06428" inkscape:cx="314.14947" inkscape:zoom="1.3034483" pagecolor="#ffffff" bordercolor="#666666" guidetolerance="10.0" objecttolerance="10.0" gridtolerance="10.0" borderopacity="1.0" id="base" inkscape:current-layer="svg2" inkscape:window-y="20" inkscape:window-x="0" inkscape:pageopacity="0.0" inkscape:pageshadow="2" inkscape:window-width="1400" inkscape:window-height="1003">
	</sodipodi:namedview>
<defs>
	
	
		<inkscape:perspective  inkscape:vp_z="580 : 290 : 1" inkscape:vp_y="0 : 1000 : 0" inkscape:vp_x="0 : 290 : 1" sodipodi:type="inkscape:persp3d" id="perspective2441" inkscape:persp3d-origin="290 : 193.33333 : 1">
		</inkscape:perspective>
	
		<inkscape:perspective  inkscape:vp_z="744.09448 : 526.18109 : 1" inkscape:vp_y="0 : 1000 : 0" inkscape:vp_x="0 : 526.18109 : 1" sodipodi:type="inkscape:persp3d" id="perspective2466" inkscape:persp3d-origin="372.04724 : 350.78739 : 1">
		</inkscape:perspective>
	
		<inkscape:perspective  inkscape:vp_z="744.09448 : 526.18109 : 1" inkscape:vp_y="0 : 1000 : 0" inkscape:vp_x="0 : 526.18109 : 1" sodipodi:type="inkscape:persp3d" id="perspective3333" inkscape:persp3d-origin="372.04724 : 350.78739 : 1">
		</inkscape:perspective>
	
		<inkscape:perspective  inkscape:vp_z="744.09448 : 526.18109 : 1" inkscape:vp_y="0 : 1000 : 0" inkscape:vp_x="0 : 526.18109 : 1" sodipodi:type="inkscape:persp3d" id="perspective3401" inkscape:persp3d-origin="372.04724 : 350.78739 : 1">
		</inkscape:perspective>
	
		<inkscape:perspective  inkscape:vp_z="744.09448 : 526.18109 : 1" inkscape:vp_y="0 : 1000 : 0" inkscape:vp_x="0 : 526.18109 : 1" sodipodi:type="inkscape:persp3d" id="perspective3464" inkscape:persp3d-origin="372.04724 : 350.78739 : 1">
		</inkscape:perspective>
	
		<inkscape:perspective  inkscape:vp_z="450 : 225 : 1" inkscape:vp_y="0 : 1000 : 0" inkscape:vp_x="0 : 225 : 1" sodipodi:type="inkscape:persp3d" id="perspective3581" inkscape:persp3d-origin="225 : 150 : 1">
		</inkscape:perspective>
</defs>
<path id="path3648" sodipodi:nodetypes="cccssssscccscccscccscccsccssssccscccccccccccccssccccsccccccccccsccccccsccsssc" fill="param(fill) #FFF" stroke="param(outline) #000" stroke-width="param(outline-width) 1" d="
	M267.254,312.97L243.5,271.756l-46.734-0.021c-29.125-0.013-47.33-0.984-48.315-2.578c-0.869-1.406,8.753-20.522,21.383-42.481
	c15.661-27.228,22.431-41.323,21.289-44.325c-0.921-2.421-11.172-20.817-22.781-40.881s-21.106-37.786-21.106-39.381
	c0-2.101,13.279-2.902,48.132-2.905L243.5,99.18l23.688-41.253c13.028-22.689,24.484-41.253,25.458-41.253
	c2.672,0,9.342,10.345,31.035,48.132l19.737,34.38H391.6c36.937,0,48.155,0.729,48.071,3.125
	c-0.06,1.719-10.562,21.093-23.337,43.054l-23.229,39.929l23.338,40.431c12.835,22.237,23.337,41.681,23.337,43.209
	c0,1.942-14.512,2.779-48.181,2.779h-48.181l-19.737,34.38c-21.587,37.602-28.373,48.144-30.969,48.111
	C291.775,354.193,280.318,335.637,267.254,312.97z M302.076,288.287c4.227-7.387,7.685-14.139,7.685-15.002
	c0-0.864-7.313-1.571-16.253-1.571c-8.939,0-16.252,0.707-16.252,1.571c0,2.033,15.09,28.434,16.252,28.434
	C293.994,301.718,297.85,295.674,302.076,288.287z M219.219,229.236c-4.523-8.235-8.787-14.973-9.474-14.973
	c-0.688,0-4.951,6.738-9.475,14.973l-8.224,14.973h17.699h17.699L219.219,229.236z M336.853,227.331
	c5.396-9.282,12.986-22.605,16.87-29.605l7.06-12.729l-16.197-28.528l-16.197-28.528h-34.769h-34.768l-15.802,27.211
	c-8.691,14.966-15.802,28.396-15.802,29.845c0,2.591,25.924,49.98,30.682,56.086c1.731,2.222,12.069,3.125,35.773,3.125h33.34
	L336.853,227.331z M386.745,229.236c-4.523-8.235-8.786-14.973-9.475-14.973c-0.688,0-4.951,6.738-9.474,14.973l-8.225,14.973
	h17.698h17.699L386.745,229.236z M219.055,141.651l8.06-14.961H209.58h-17.534l8.224,14.973c4.523,8.235,8.787,14.968,9.475,14.961
	C210.433,156.617,214.622,149.88,219.055,141.651z M386.581,141.651l8.06-14.961h-17.534h-17.534l8.225,14.973
	c4.522,8.235,8.786,14.968,9.474,14.961C377.959,156.617,382.147,149.88,386.581,141.651z M309.761,97.615
	c0-2.033-15.091-28.434-16.253-28.434s-16.252,26.4-16.252,28.434c0,0.864,7.313,1.571,16.252,1.571
	C302.447,99.187,309.761,98.479,309.761,97.615z"/>
<path opacity="0.5" fill="param(fill) #FFF" d="M375.979,362.932h-168.92c-5.561,0-10.068,4.508-10.068,10.068v168.921
	c0,5.561,4.507,10.068,10.068,10.068h168.92c5.561,0,10.068-4.508,10.068-10.068V373
	C386.048,367.439,381.54,362.932,375.979,362.932z"/>
<path fill="none" stroke="param(outline) #000" stroke-width="param(outline-width) 1" d="M375.979,362.932h-168.92c-5.561,0-10.068,4.508-10.068,10.068v168.921
	c0,5.561,4.507,10.068,10.068,10.068h168.92c5.561,0,10.068-4.508,10.068-10.068V373
	C386.048,367.439,381.54,362.932,375.979,362.932z"/>
</svg>
