<svg enable-background="new 0 0 580 580" height="580" viewBox="0 0 580 580" width="580" xmlns="http://www.w3.org/2000/svg">
<path d="m209.967 335.29c-1.661-3.104-2.394-25.307-2.138-64.777.333-51.279-.161-61.119-3.375-67.334-4.941-9.555-4.909-9.682 3.22-12.515 6.559-2.287 6.984-3.176 6.984-14.605v-12.17l-22.7-.536c-12.484-.294-23.425-1.263-24.312-2.153-2.128-2.133-3.092-24.545-1.188-27.625.911-1.473 8.21-1.972 18.861-1.288 14.587.936 18.253.414 22.842-3.255 9.292-7.428 5.831-11.895-10.512-13.565-31.412-3.21-31.28-3.163-32.924-11.924-.824-4.391-2.521-7.982-3.77-7.982-1.25 0-6.465-2.774-11.589-6.165-7.258-4.803-9.882-8.414-11.879-16.346-1.41-5.6-5.613-14.391-9.34-19.536s-6.154-10.361-5.394-11.591c2.104-3.405 12.135-2.673 20.147 1.47 8.905 4.605 27.465 10.197 37.455 11.285 4.141.451 19.578 2.615 34.303 4.809 22.084 3.29 37.986 3.79 90.797 2.85 35.214-.626 68.738-2.265 74.501-3.642 5.762-1.377 17.149-3.558 25.305-4.846s21.407-5.421 29.45-9.185c19.535-9.142 25.493-3.957 15.08 13.122-2.556 4.192-4.647 10.083-4.647 13.09 0 5.375-18.12 24.686-23.162 24.686-1.272 0-3.188 3.371-4.255 7.492-2.139 8.252-6.895 10.514-22.929 10.901-14.248.344-24.154 2.779-24.154 5.938 0 1.538 2.408 5.058 5.353 7.824 4.921 4.623 6.656 4.867 21.535 3.024 9.945-1.231 17.254-1.15 18.962.21 2.802 2.232 1.729 24.486-1.347 27.949-.803.904-11.718 1.816-24.257 2.028l-22.798.385.693 11.941c.65 11.187 1.172 12.095 8.263 14.387 12.224 3.951 13.258 6.44 6.173 14.86l-6.31 7.499 1.344 59.797c.832 37.056.481 61.336-.922 63.844-2.792 4.989-23.349 5.729-27.287.983-1.604-1.932-3.116-25.799-4.094-64.606-.854-33.848-2.554-63.488-3.778-65.866-1.479-2.872-1.373-5.178.316-6.868 1.398-1.399 2.545-9.93 2.546-18.957l.002-16.413-52.951.759c-29.122.417-53.312 1.121-53.755 1.564-.442.442-1.374 38.34-2.07 84.218-.696 45.877-2.211 85.246-3.368 87.487-3.139 6.079-19.573 5.616-22.927-.652zm67.552-209.466v-9.313h-17.345c-13.717 0-17.796.806-19.501 3.852-1.618 2.892-.632 5.194 3.958 9.239 4.847 4.271 8.889 5.402 19.501 5.46l13.387.074zm60.504 2.975c2.576-2.206 4.684-5.872 4.684-8.149 0-3.598-2.28-4.139-17.462-4.139h-17.461v8.148 8.148h12.778c8.727.001 14.264-1.27 17.461-4.008z" fill="param(fill)" fill-opacity="param(fill-opacity)" stroke="param(outline)" stroke-opacity="param(outline-opacity)" stroke-width="param(outline-width)"/>
<path d="m375.979 362.932h-168.92c-5.561 0-10.068 4.508-10.068 10.068v168.921c0 5.561 4.507 10.068 10.068 10.068h168.92c5.561 0 10.068-4.508 10.068-10.068v-168.921c.001-5.561-4.507-10.068-10.068-10.068z" fill="param(fill)" opacity=".5"/>
<path d="m375.979 362.932h-168.92c-5.561 0-10.068 4.508-10.068 10.068v168.921c0 5.561 4.507 10.068 10.068 10.068h168.92c5.561 0 10.068-4.508 10.068-10.068v-168.921c.001-5.561-4.507-10.068-10.068-10.068z" fill="none" stroke="param(outline)" stroke-width="param(outline-width)"/>
</svg>
