<?xml version="1.0" encoding="UTF-8" standalone="no"?>
<!-- Created with Inkscape (http://www.inkscape.org/) -->
<svg
   xmlns:i="http://ns.adobe.com/AdobeIllustrator/10.0/"
   xmlns:dc="http://purl.org/dc/elements/1.1/"
   xmlns:cc="http://creativecommons.org/ns#"
   xmlns:rdf="http://www.w3.org/1999/02/22-rdf-syntax-ns#"
   xmlns:svg="http://www.w3.org/2000/svg"
   xmlns="http://www.w3.org/2000/svg"
   xmlns:sodipodi="http://sodipodi.sourceforge.net/DTD/sodipodi-0.dtd"
   xmlns:inkscape="http://www.inkscape.org/namespaces/inkscape"
   version="1.0"
   width="580"
   height="580"
   id="svg2"
   sodipodi:version="0.32"
   inkscape:version="0.46"
   sodipodi:docname="tourisum_fountain.svg"
   sodipodi:docbase="s:\Data\FacilityIcons"
   inkscape:output_extension="org.inkscape.output.svg.inkscape">
  <metadata
     id="metadata1976">
    <rdf:RDF>
      <cc:Work
         rdf:about="">
        <dc:format>image/svg+xml</dc:format>
        <dc:type
           rdf:resource="http://purl.org/dc/dcmitype/StillImage" />
        <cc:license
           rdf:resource="http://web.resource.org/cc/PublicDomain" />
        <dc:language>en</dc:language>
      </cc:Work>
    </rdf:RDF>
  </metadata>
  <sodipodi:namedview
     inkscape:window-height="1005"
     inkscape:window-width="1280"
     inkscape:pageshadow="2"
     inkscape:pageopacity="0.0"
     guidetolerance="10.0"
     gridtolerance="10.0"
     objecttolerance="10.0"
     borderopacity="1.0"
     bordercolor="#666666"
     pagecolor="#ffffff"
     id="base"
     inkscape:zoom="0.46083856"
     inkscape:cx="237.38504"
     inkscape:cy="671.39261"
     inkscape:window-x="44"
     inkscape:window-y="18"
     inkscape:current-layer="svg2"
     showgrid="false" />
  <defs
     id="defs4">
    <inkscape:perspective
       sodipodi:type="inkscape:persp3d"
       inkscape:vp_x="0 : 290 : 1"
       inkscape:vp_y="0 : 1000 : 0"
       inkscape:vp_z="580 : 290 : 1"
       inkscape:persp3d-origin="290 : 193.33333 : 1"
       id="perspective3653" />
  </defs>
  <g
     id="g1327">
    <path
       d="M 66.275,1.768 C 24.94,1.768 1.704,23.139 1.704,66.804 L 1.704,516.927 C 1.704,557.771 22.6,579.156 63.896,579.156 L 515.92,579.156 C 557.227,579.156 578.149,558.842 578.149,516.927 L 578.149,66.804 C 578.149,24.203 557.227,1.768 514.628,1.768 C 514.624,1.768 66.133,1.625 66.275,1.768 z "
       style="fill:#111;stroke:#eee;stroke-width:3.40799999"
       id="path1329" />
  </g>
  <path
     clip-rule="evenodd"
     d="M 520.67002,490.848 C 516.5973,491.96842 511.33749,491.7928 504.43807,490.316 C 497.42585,488.78151 491.03409,481.21806 479.38379,481.75007 C 467.45018,482.16285 450.59521,492.85296 434.30939,492.85296 C 417.79285,492.50042 399.24314,481.27831 382.38944,481.27831 C 365.59215,481.39753 350.32165,493.03245 334.2038,493.38497 C 317.80261,493.44522 301.45785,482.51923 285.3964,482.28207 C 269.10803,481.86799 253.66832,491.96842 238.45423,491.85049 C 223.46703,491.55564 210.17586,480.80527 195.30147,481.27831 C 180.03097,481.86799 163.29009,493.67982 148.35931,494.39131 C 133.31571,494.6259 119.68482,483.40377 106.39492,483.28583 C 92.9922,483.05123 77.947335,491.49539 68.898104,493.38626 C 59.848858,495.21943 54.136528,495.15791 51.987986,493.8593 L 51.987986,525.16176 C 54.136528,526.46036 59.848858,526.5219 68.898104,524.68873 C 77.947335,522.79658 92.990929,514.35371 106.39492,514.58831 C 119.6861,514.70624 133.31571,525.92836 148.35931,525.69376 C 163.29009,524.98229 180.03097,513.17047 195.30147,512.58078 C 210.17586,512.10775 223.46575,522.85811 238.45423,523.15296 C 253.66832,523.2709 269.10803,513.17047 285.3964,513.58453 C 301.45785,513.8217 317.80261,524.7477 334.2038,524.68745 C 350.32165,524.3349 365.59215,512.69616 382.38944,512.58078 C 399.24314,512.58078 417.79285,523.8029 434.30939,524.15544 C 450.59521,524.15544 467.45147,513.46532 479.38379,513.05252 C 491.03409,512.63846 497.42585,520.07885 504.43807,521.67615 C 511.33749,523.15296 516.5973,523.39011 520.67002,522.15049 L 520.67002,490.848 z"
     i:knockout="Off"
     id="path121"
     style="fill:#ffffff;fill-opacity:1;fill-rule:evenodd" />
  <path
     style="fill:#ffffff;fill-opacity:1;fill-rule:evenodd;stroke:none;stroke-width:15;stroke-linecap:round;stroke-linejoin:round;stroke-miterlimit:4;stroke-dasharray:30, 15;stroke-dashoffset:0;stroke-opacity:1"
     d="M 170.15625,103.65625 L 169.75,103.65625 L 168.625,103.78125 L 168.21875,103.8125 L 167.0625,104 L 166.65625,104.0625 L 165.46875,104.3125 L 165.0625,104.40625 L 163.90625,104.71875 L 163.5,104.8125 L 162.3125,105.21875 L 161.9375,105.34375 L 160.71875,105.8125 L 160.34375,105.96875 L 159.125,106.5 L 158.78125,106.65625 L 157.5625,107.28125 L 157.21875,107.46875 L 156,108.1875 L 155.6875,108.375 L 154.4375,109.15625 L 154.125,109.375 L 152.875,110.25 L 152.59375,110.46875 L 151.34375,111.4375 L 151.09375,111.65625 L 150.5625,112.09375 L 148.1875,115.75 L 148.25,120.125 L 150.75,123.71875 L 154.84375,125.3125 L 159.09375,124.34375 L 160.21875,123.5625 L 160.53125,123.3125 L 161.53125,122.5 L 161.65625,122.40625 L 161.78125,122.3125 L 162.5,121.8125 L 162.6875,121.6875 L 162.78125,121.625 L 163.4375,121.1875 L 163.59375,121.09375 L 163.75,121 L 164.6875,120.5 L 165.25,120.21875 L 166.09375,119.8125 L 166.3125,119.71875 L 166.46875,119.65625 L 166.90625,119.5 L 167.3125,119.34375 L 167.71875,119.21875 L 167.875,119.1875 L 168.125,119.09375 L 168.5,119 L 168.78125,118.9375 L 168.90625,118.90625 L 169.25,118.84375 L 170,118.71875 L 170.0625,118.71875 L 170.40625,118.65625 L 170.71875,118.625 L 170.875,118.625 L 171.4375,118.59375 L 171.625,118.59375 L 171.84375,118.59375 L 172.5,118.625 L 172.53125,118.625 L 173.21875,118.6875 L 173.53125,118.71875 L 173.78125,118.75 L 173.90625,118.78125 L 174.53125,118.90625 L 174.59375,118.90625 L 175.84375,119.21875 L 177.15625,119.65625 L 178.65625,120.34375 L 178.8125,120.40625 L 179.625,120.84375 L 183.9375,121.6875 L 187.9375,119.96875 L 190.34375,116.3125 L 190.28125,111.9375 L 187.78125,108.34375 L 186.625,107.59375 L 185.3125,106.90625 L 184.8125,106.65625 L 182.90625,105.8125 L 182.34375,105.59375 L 180.375,104.90625 L 179.75,104.71875 L 177.6875,104.21875 L 177.15625,104.125 L 176.09375,103.9375 L 175.71875,103.875 L 174.65625,103.75 L 174.28125,103.71875 L 173.1875,103.625 L 172.78125,103.625 L 171.6875,103.59375 L 171.28125,103.59375 L 170.15625,103.65625 z M 192.1875,116.71875 L 188.625,119.21875 L 187.03125,123.3125 L 188,127.5625 L 188.78125,128.6875 L 189.53125,129.5625 L 189.6875,129.75 L 189.78125,129.875 L 190.75,131.125 L 190.8125,131.1875 L 190.9375,131.375 L 191.4375,132.15625 L 191.59375,132.34375 L 191.65625,132.46875 L 191.75,132.59375 L 194.125,136.4375 L 194.21875,136.5625 L 196.5625,140.5 L 196.65625,140.625 L 198.96875,144.71875 L 199.03125,144.8125 L 201.34375,149.03125 L 201.40625,149.125 L 203.4375,152.96875 L 206.53125,156.0625 L 210.8125,156.90625 L 214.84375,155.25 L 217.25,151.59375 L 217.21875,147.21875 L 216.6875,145.9375 L 214.625,142 L 214.5625,141.90625 L 212.125,137.46875 L 212.0625,137.375 L 209.59375,133.0625 L 209.53125,132.9375 L 207,128.75 L 206.9375,128.625 L 204.40625,124.53125 L 204.3125,124.40625 L 204.03125,123.96875 L 203.875,123.75 L 203.03125,122.53125 L 202.84375,122.28125 L 201.46875,120.46875 L 201.21875,120.1875 L 200.25,119 L 196.5625,116.65625 L 192.1875,116.71875 z M 140.28125,123.5625 L 139.375,124.59375 L 139.34375,124.625 L 139.25,124.78125 L 137.90625,126.75 L 137.78125,126.9375 L 135.125,131.09375 L 135,131.3125 L 132.40625,135.65625 L 132.3125,135.84375 L 129.78125,140.375 L 129.6875,140.53125 L 127.25,145.21875 L 127.15625,145.375 L 124.78125,150.1875 L 124.71875,150.3125 L 123.96875,151.9375 L 123.34375,156.25 L 125.25,160.1875 L 129,162.40625 L 133.375,162.15625 L 136.84375,159.5 L 137.53125,158.3125 L 138.21875,156.84375 L 138.28125,156.6875 L 140.53125,152.1875 L 140.59375,152.03125 L 142.875,147.65625 L 142.96875,147.5 L 145.3125,143.3125 L 145.40625,143.125 L 147.75,139.15625 L 147.875,138.96875 L 150.28125,135.1875 L 150.34375,135.09375 L 150.40625,135 L 151.5,133.40625 L 151.53125,133.40625 L 151.53125,133.375 L 151.625,133.25 L 151.59375,133.21875 L 152.9375,129.25 L 151.8125,125.03125 L 148.53125,122.15625 L 144.1875,121.59375 L 140.28125,123.5625 z M 212.21875,156.90625 L 209.65625,160.4375 L 209.5,164.8125 L 209.96875,166.125 L 210.53125,167.28125 L 210.5625,167.375 L 212.71875,172.0625 L 212.78125,172.15625 L 214.90625,176.9375 L 214.9375,177.03125 L 217.03125,181.875 L 217.0625,181.96875 L 219.125,186.90625 L 219.15625,186.96875 L 221.1875,191.96875 L 221.21875,192.03125 L 221.6875,193.1875 L 224.40625,196.59375 L 228.5625,197.90625 L 232.75,196.6875 L 235.5625,193.34375 L 236,189 L 235.625,187.65625 L 235.15625,186.46875 L 235.125,186.40625 L 233.03125,181.25 L 233,181.1875 L 230.875,176.09375 L 230.84375,176 L 228.6875,171 L 228.625,170.90625 L 226.4375,165.96875 L 226.40625,165.875 L 224.15625,161 L 224.09375,160.90625 L 223.5,159.65625 L 220.5625,156.4375 L 216.3125,155.40625 L 212.21875,156.90625 z M 121.6875,161.9375 L 118.375,164.78125 L 117.71875,166 L 115.78125,170.8125 L 115.71875,170.90625 L 113.71875,176.0625 L 113.6875,176.15625 L 111.75,181.3125 L 111.71875,181.375 L 109.875,186.5 L 109.84375,186.59375 L 108.0625,191.6875 L 108.03125,191.75 L 107.09375,194.53125 L 106.96875,198.90625 L 109.28125,202.59375 L 113.28125,204.375 L 117.59375,203.625 L 120.75,200.59375 L 121.3125,199.34375 L 122.21875,196.625 L 122.25,196.5625 L 123.96875,191.625 L 124,191.53125 L 125.78125,186.5625 L 125.8125,186.5 L 127.6875,181.53125 L 127.71875,181.4375 L 129.65625,176.46875 L 129.6875,176.375 L 131.625,171.65625 L 132.03125,167.3125 L 129.9375,163.46875 L 126.03125,161.4375 L 121.6875,161.9375 z M 230.03125,198.0625 L 227.15625,201.375 L 226.625,205.71875 L 227,207.0625 L 227.15625,207.5 L 227.1875,207.59375 L 230.96875,218.09375 L 231,218.1875 L 234.59375,228.78125 L 236.65625,235.09375 L 239.15625,238.6875 L 243.21875,240.28125 L 247.5,239.3125 L 250.5,236.125 L 251.21875,231.8125 L 250.9375,230.46875 L 248.875,224.15625 L 248.84375,224.0625 L 245.15625,213.25 L 245.125,213.125 L 241.28125,202.4375 L 241.25,202.34375 L 241.0625,201.8125 L 238.40625,198.34375 L 234.25,196.9375 L 230.03125,198.0625 z M 106,204.625 L 102.96875,207.75 L 102.4375,209.03125 L 100.3125,216.0625 L 100.28125,216.15625 L 97.8125,224.75 L 97.78125,224.84375 L 95.6875,232.59375 L 95.65625,232.6875 L 94.21875,238.1875 L 94.40625,242.5625 L 97,246.09375 L 101.09375,247.5625 L 105.34375,246.53125 L 108.28125,243.28125 L 108.75,241.96875 L 110.15625,236.53125 L 110.15625,236.46875 L 112.21875,228.90625 L 112.25,228.8125 L 114.65625,220.40625 L 114.6875,220.3125 L 116.78125,213.375 L 116.78125,209.03125 L 114.34375,205.40625 L 110.28125,203.75 L 106,204.625 z M 244.65625,240.53125 L 241.625,243.65625 L 240.8125,247.96875 L 241.125,249.3125 L 241.4375,250.40625 L 241.46875,250.5 L 244.625,261.21875 L 244.65625,261.28125 L 247.65625,271.96875 L 247.6875,272.0625 L 249.25,277.90625 L 251.59375,281.59375 L 255.5625,283.375 L 259.875,282.65625 L 263.03125,279.625 L 263.96875,275.34375 L 263.75,274 L 262.15625,268.0625 L 262.125,268 L 259.0625,257.15625 L 259.03125,257.0625 L 255.84375,246.15625 L 255.8125,246.0625 L 255.4375,244.875 L 253,241.28125 L 248.9375,239.625 L 244.65625,240.53125 z M 257,283.71875 L 253.8125,286.71875 L 252.8125,290.96875 L 253.03125,292.34375 L 253.25,293.1875 L 253.28125,293.25 L 255.8125,303.5625 L 255.84375,303.625 L 258.21875,313.78125 L 258.25,313.78125 L 259.9375,321.3125 L 262.09375,325.09375 L 266.03125,327.03125 L 270.34375,326.46875 L 273.625,323.59375 L 274.75,319.34375 L 274.5625,318 L 272.84375,310.375 L 272.84375,310.3125 L 270.40625,300.09375 L 270.40625,300.03125 L 267.8125,289.59375 L 267.8125,289.53125 L 267.5625,288.59375 L 265.28125,284.84375 L 261.3125,283.03125 L 257,283.71875 z M 267.46875,327.40625 L 264.125,330.25 L 262.9375,334.4375 L 263.09375,335.8125 L 264.4375,342.40625 L 264.46875,342.46875 L 266.1875,351.25 L 267.8125,359.65625 L 267.78125,359.65625 L 268.75,365.0625 L 270.75,368.96875 L 274.5625,371.09375 L 278.9375,370.71875 L 282.34375,367.96875 L 283.65625,363.8125 L 283.53125,362.4375 L 282.5625,357 L 282.53125,356.9375 L 280.9375,348.46875 L 280.9375,348.40625 L 279.15625,339.46875 L 279.15625,339.40625 L 277.78125,332.78125 L 275.6875,328.9375 L 271.8125,326.9375 L 267.46875,327.40625 z M 275.96875,371.53125 L 272.5,374.1875 L 271.125,378.34375 L 271.21875,379.71875 L 271.5625,381.84375 L 271.5625,381.9375 L 272.46875,388.09375 L 273.25,393.6875 L 273.21875,393.6875 L 273.8125,398.5625 L 273.8125,398.6875 L 274.21875,402.625 L 274.25,402.84375 L 274.46875,406.15625 L 274.5625,408.5625 L 275.96875,412.71875 L 279.4375,415.34375 L 283.78125,415.625 L 287.5625,413.40625 L 289.46875,409.46875 L 289.53125,408.09375 L 289.46875,405.375 L 289.4375,405.0625 L 289.1875,401.53125 L 289.15625,401.34375 L 288.75,397.0625 L 288.71875,396.90625 L 288.125,391.90625 L 288.125,391.78125 L 287.34375,386.09375 L 287.34375,386 L 286.40625,379.65625 L 286.375,379.59375 L 286.03125,377.375 L 284.125,373.4375 L 280.34375,371.25 L 275.96875,371.53125 z"
     id="path9955" />
  <path
     style="fill:#ffffff;fill-opacity:1;fill-rule:evenodd;stroke:none;stroke-width:15;stroke-linecap:round;stroke-linejoin:round;stroke-miterlimit:4;stroke-dasharray:30, 15;stroke-dashoffset:0;stroke-opacity:1"
     d="M 406.71875,103.625 L 406.3125,103.625 L 405.21875,103.71875 L 404.84375,103.75 L 403.78125,103.875 L 403.40625,103.9375 L 402.34375,104.125 L 401.8125,104.21875 L 399.78125,104.71875 L 399.125,104.90625 L 397.15625,105.59375 L 396.59375,105.8125 L 394.6875,106.65625 L 394.1875,106.90625 L 392.875,107.59375 L 389.78125,110.65625 L 388.90625,114.96875 L 390.59375,119 L 394.21875,121.40625 L 398.59375,121.375 L 399.875,120.84375 L 400.71875,120.40625 L 402.375,119.65625 L 403.65625,119.21875 L 404.90625,118.90625 L 404.96875,118.90625 L 405.59375,118.78125 L 405.71875,118.75 L 405.96875,118.71875 L 406.28125,118.6875 L 406.96875,118.625 L 407.03125,118.625 L 407.65625,118.59375 L 407.875,118.59375 L 408.0625,118.59375 L 408.625,118.625 L 408.78125,118.625 L 409.09375,118.65625 L 409.375,118.6875 L 409.53125,118.71875 L 410.25,118.84375 L 410.625,118.90625 L 410.875,118.96875 L 411,119 L 411.75,119.21875 L 411.78125,119.21875 L 412.59375,119.5 L 413.0625,119.65625 L 413.375,119.8125 L 413.40625,119.8125 L 413.90625,120.03125 L 414.28125,120.21875 L 414.8125,120.5 L 415.75,121 L 415.90625,121.09375 L 416.0625,121.1875 L 416.71875,121.625 L 416.875,121.71875 L 417,121.8125 L 417.71875,122.3125 L 418.75,123.09375 L 418.96875,123.3125 L 419,123.3125 L 419.28125,123.5625 L 423.28125,125.28125 L 427.59375,124.46875 L 430.71875,121.40625 L 431.59375,117.125 L 429.9375,113.0625 L 428.96875,112.09375 L 428.4375,111.65625 L 428.1875,111.4375 L 426.90625,110.46875 L 426.625,110.25 L 425.375,109.375 L 425.09375,109.15625 L 423.84375,108.375 L 423.53125,108.1875 L 422.28125,107.46875 L 421.9375,107.28125 L 420.71875,106.65625 L 420.375,106.5 L 419.15625,105.96875 L 418.78125,105.8125 L 417.59375,105.34375 L 417.1875,105.21875 L 416,104.8125 L 415.625,104.71875 L 414.4375,104.40625 L 414.03125,104.3125 L 412.875,104.0625 L 412.46875,104 L 411.3125,103.8125 L 410.90625,103.78125 L 409.75,103.65625 L 409.34375,103.65625 L 408.21875,103.59375 L 407.8125,103.59375 L 406.71875,103.625 z M 380.25,118.03125 L 379.25,119 L 378.28125,120.1875 L 378.03125,120.46875 L 376.65625,122.28125 L 376.46875,122.53125 L 375.625,123.75 L 375.46875,123.96875 L 375.1875,124.40625 L 375.125,124.53125 L 372.5625,128.625 L 372.5,128.75 L 370,132.9375 L 369.90625,133.0625 L 367.4375,137.375 L 367.375,137.46875 L 364.96875,141.90625 L 364.90625,142 L 362.8125,145.9375 L 361.96875,150.21875 L 363.6875,154.25 L 367.34375,156.65625 L 371.71875,156.59375 L 375.3125,154.125 L 376.0625,152.96875 L 378.09375,149.125 L 378.15625,149.03125 L 380.46875,144.8125 L 380.53125,144.71875 L 382.875,140.625 L 382.9375,140.5 L 385.3125,136.5625 L 385.375,136.4375 L 387.75,132.59375 L 387.84375,132.46875 L 387.90625,132.34375 L 388.0625,132.15625 L 388.59375,131.375 L 388.75,131.1875 L 388.78125,131.125 L 389.71875,129.875 L 389.84375,129.71875 L 389.96875,129.5625 L 390.71875,128.6875 L 392.4375,124.6875 L 391.625,120.375 L 388.5625,117.28125 L 384.28125,116.375 L 380.25,118.03125 z M 428.53125,123.9375 L 426.65625,127.875 L 427.28125,132.21875 L 427.90625,133.25 L 427.875,133.25 L 428,133.40625 L 429.09375,135 L 429.15625,135.09375 L 429.21875,135.1875 L 431.625,138.96875 L 431.75,139.15625 L 434.09375,143.125 L 434.21875,143.3125 L 436.53125,147.5 L 436.625,147.65625 L 438.90625,152.03125 L 438.96875,152.1875 L 441.21875,156.6875 L 441.28125,156.84375 L 441.96875,158.3125 L 444.90625,161.53125 L 449.125,162.59375 L 453.25,161.125 L 455.84375,157.59375 L 456,153.21875 L 455.53125,151.9375 L 454.78125,150.3125 L 454.71875,150.1875 L 452.34375,145.375 L 452.28125,145.21875 L 449.8125,140.53125 L 449.71875,140.375 L 447.21875,135.84375 L 447.09375,135.65625 L 444.5,131.3125 L 444.375,131.09375 L 441.75,126.9375 L 441.625,126.75 L 440.28125,124.78125 L 440.15625,124.625 L 440.125,124.59375 L 436.65625,121.96875 L 432.28125,121.71875 L 428.53125,123.9375 z M 360.1875,155.84375 L 356.6875,158.46875 L 356,159.65625 L 355.40625,160.90625 L 355.34375,161 L 353.125,165.875 L 353.0625,165.96875 L 350.875,170.90625 L 350.84375,171 L 348.65625,176 L 348.625,176.09375 L 346.5,181.1875 L 346.46875,181.25 L 344.375,186.40625 L 344.34375,186.46875 L 343.875,187.65625 L 343.53125,192.03125 L 345.65625,195.84375 L 349.5625,197.8125 L 353.90625,197.28125 L 357.21875,194.40625 L 357.84375,193.1875 L 358.28125,192.03125 L 358.3125,191.96875 L 360.34375,186.96875 L 360.375,186.90625 L 362.4375,181.96875 L 362.46875,181.875 L 364.5625,177.03125 L 364.59375,176.9375 L 366.75,172.15625 L 366.78125,172.0625 L 368.9375,167.375 L 368.96875,167.28125 L 369.53125,166.125 L 370.1875,161.78125 L 368.3125,157.84375 L 364.5625,155.59375 L 360.1875,155.84375 z M 450.65625,162.59375 L 447.90625,165.96875 L 447.5,170.34375 L 447.875,171.65625 L 449.8125,176.375 L 449.84375,176.46875 L 451.78125,181.4375 L 451.8125,181.53125 L 453.6875,186.5 L 453.71875,186.5625 L 455.5,191.53125 L 455.53125,191.625 L 457.25,196.5625 L 457.28125,196.625 L 458.1875,199.34375 L 460.75,202.875 L 464.84375,204.40625 L 469.09375,203.40625 L 472.0625,200.1875 L 472.71875,195.875 L 472.40625,194.53125 L 471.46875,191.75 L 471.4375,191.6875 L 469.6875,186.59375 L 469.65625,186.5 L 467.78125,181.375 L 467.75,181.3125 L 465.8125,176.15625 L 465.78125,176.0625 L 463.78125,170.90625 L 463.75,170.8125 L 461.78125,166 L 459.03125,162.59375 L 454.84375,161.3125 L 450.65625,162.59375 z M 342.3125,197.625 L 339.0625,200.5625 L 338.46875,201.8125 L 338.25,202.34375 L 338.21875,202.4375 L 334.375,213.125 L 334.34375,213.25 L 330.65625,224.0625 L 330.625,224.15625 L 328.59375,230.46875 L 328.5,234.84375 L 330.875,238.53125 L 334.90625,240.25 L 339.1875,239.4375 L 342.3125,236.375 L 342.84375,235.09375 L 344.875,228.90625 L 344.90625,228.78125 L 348.5,218.1875 L 348.53125,218.09375 L 352.3125,207.59375 L 352.34375,207.5 L 352.5,207.0625 L 352.78125,202.6875 L 350.5625,198.90625 L 346.625,197 L 342.3125,197.625 z M 466.3125,204.625 L 463.25,207.75 L 462.4375,212.03125 L 462.71875,213.375 L 464.8125,220.3125 L 464.84375,220.40625 L 467.25,228.8125 L 467.28125,228.90625 L 469.34375,236.46875 L 469.375,236.53125 L 470.78125,241.96875 L 473.0625,245.6875 L 477.03125,247.53125 L 481.34375,246.8125 L 484.53125,243.8125 L 485.5,239.5625 L 485.28125,238.1875 L 483.84375,232.6875 L 483.84375,232.59375 L 481.71875,224.84375 L 481.6875,224.75 L 479.21875,216.15625 L 479.1875,216.0625 L 477.0625,209.03125 L 474.625,205.40625 L 470.59375,203.75 L 466.3125,204.625 z M 327.65625,240.5 L 324.59375,243.625 L 324.0625,244.875 L 323.6875,246.0625 L 323.6875,246.15625 L 320.46875,257.0625 L 320.4375,257.15625 L 317.375,268 L 317.34375,268.0625 L 315.75,274 L 315.90625,278.375 L 318.46875,281.90625 L 322.5625,283.4375 L 326.8125,282.40625 L 329.78125,279.1875 L 330.25,277.90625 L 331.8125,272.0625 L 331.84375,271.96875 L 334.84375,261.28125 L 334.875,261.21875 L 338.03125,250.5 L 338.0625,250.40625 L 338.40625,249.3125 L 338.40625,244.9375 L 336,241.3125 L 331.9375,239.625 L 327.65625,240.5 z M 315.34375,284.03125 L 312.40625,287.28125 L 311.9375,288.59375 L 311.71875,289.53125 L 311.6875,289.59375 L 309.09375,300.03125 L 309.09375,300.09375 L 306.6875,310.3125 L 306.65625,310.375 L 304.9375,318 L 305.25,322.34375 L 307.9375,325.78125 L 312.125,327.125 L 316.3125,325.9375 L 319.125,322.625 L 319.5625,321.3125 L 321.25,313.78125 L 321.28125,313.78125 L 323.6875,303.625 L 323.6875,303.5625 L 326.21875,293.25 L 326.25,293.1875 L 326.46875,292.34375 L 326.28125,287.96875 L 323.6875,284.4375 L 319.5625,282.96875 L 315.34375,284.03125 z M 304.90625,328.0625 L 302.125,331.46875 L 301.71875,332.78125 L 300.34375,339.40625 L 300.34375,339.46875 L 298.59375,348.40625 L 298.5625,348.46875 L 296.96875,356.9375 L 296.96875,357 L 295.96875,362.4375 L 296.5,366.78125 L 299.34375,370.09375 L 303.5625,371.25 L 307.71875,369.875 L 310.375,366.40625 L 310.75,365.0625 L 311.71875,359.71875 L 311.71875,359.65625 L 313.3125,351.25 L 315.03125,342.46875 L 315.0625,342.40625 L 316.40625,335.8125 L 316.03125,331.46875 L 313.25,328.09375 L 309.09375,326.8125 L 304.90625,328.0625 z M 296.40625,372.53125 L 293.8125,376.03125 L 293.46875,377.375 L 293.125,379.59375 L 293.125,379.65625 L 292.1875,386 L 292.15625,386.09375 L 291.40625,391.78125 L 291.375,391.90625 L 290.78125,396.90625 L 290.78125,397.0625 L 290.34375,401.34375 L 290.3125,401.53125 L 290.0625,405.0625 L 290.0625,405.375 L 289.96875,408.09375 L 291.09375,412.3125 L 294.40625,415.1875 L 298.75,415.71875 L 302.65625,413.75 L 304.78125,409.9375 L 304.96875,408.5625 L 305.03125,406.15625 L 305.28125,402.84375 L 305.6875,398.6875 L 305.6875,398.5625 L 306.28125,393.6875 L 306.25,393.6875 L 307.03125,388.1875 L 307.03125,388.09375 L 307.9375,381.9375 L 307.9375,381.84375 L 308.28125,379.71875 L 307.6875,375.40625 L 304.78125,372.125 L 300.53125,371.0625 L 296.40625,372.53125 z"
     id="path10468" />
  <path
     style="fill:#ffffff;fill-opacity:1;fill-rule:evenodd;stroke:none;stroke-width:13.39000416;stroke-linecap:round;stroke-linejoin:round;stroke-miterlimit:4;stroke-dasharray:26.78000749, 13.39000374;stroke-dashoffset:0;stroke-opacity:1"
     d="M 373.78125,252.40625 L 373.25,252.4375 L 371.875,252.625 L 371.34375,252.6875 L 370,252.96875 L 369.53125,253.0625 L 368.25,253.40625 L 367.8125,253.5625 L 366.59375,253.96875 L 366.1875,254.125 L 365,254.625 L 364.65625,254.78125 L 363.53125,255.3125 L 363.21875,255.5 L 362.15625,256.0625 L 361.875,256.25 L 360.875,256.84375 L 360.53125,257.09375 L 358.71875,258.375 L 358.34375,258.65625 L 357.40625,259.4375 L 355.21875,262.875 L 355.40625,266.9375 L 357.9375,270.125 L 361.84375,271.28125 L 365.6875,269.9375 L 365.9375,269.75 L 366.875,269 L 367.9375,268.25 L 368.65625,267.78125 L 368.9375,267.625 L 369.40625,267.375 L 370.1875,266.96875 L 370.40625,266.875 L 370.53125,266.8125 L 370.96875,266.625 L 371.03125,266.59375 L 371.78125,266.34375 L 372.96875,266.03125 L 373.0625,266 L 373.90625,265.84375 L 373.9375,265.84375 L 374.5625,265.78125 L 375.09375,265.75 L 375.28125,265.75 L 376.375,265.8125 L 376.90625,265.875 L 377,265.90625 L 378.15625,266.15625 L 378.90625,266.375 L 379,266.40625 L 380.25,266.9375 L 381.46875,267.59375 L 381.65625,267.6875 L 382.6875,268.375 L 386.625,269.40625 L 390.4375,268 L 392.71875,264.625 L 392.625,260.53125 L 390.15625,257.28125 L 389.90625,257.09375 L 388.40625,256.15625 L 387.9375,255.875 L 386.3125,255 L 385.8125,254.75 L 384.1875,254.0625 L 383.625,253.84375 L 382.0625,253.34375 L 381.5,253.1875 L 379.9375,252.8125 L 379.34375,252.71875 L 377.84375,252.5 L 377.25,252.4375 L 375.78125,252.375 L 375.21875,252.375 L 373.78125,252.40625 z M 390.28125,268.21875 L 388.96875,272.09375 L 390.125,276 L 390.28125,276.25 L 391.25,277.53125 L 391.375,277.71875 L 392.8125,279.71875 L 392.90625,279.875 L 394.3125,281.96875 L 394.40625,282.125 L 395.78125,284.34375 L 395.84375,284.46875 L 397.1875,286.75 L 397.28125,286.875 L 398.59375,289.21875 L 398.65625,289.3125 L 399.9375,291.71875 L 400,291.8125 L 401.25,294.25 L 401.3125,294.34375 L 402.5,296.78125 L 402.5625,296.90625 L 403.125,298.09375 L 405.875,301.09375 L 409.875,301.9375 L 413.59375,300.3125 L 415.6875,296.8125 L 415.375,292.75 L 415.25,292.46875 L 414.625,291.125 L 414.5625,291 L 413.25,288.34375 L 413.21875,288.21875 L 411.84375,285.59375 L 411.78125,285.46875 L 410.375,282.875 L 410.3125,282.75 L 408.875,280.15625 L 408.78125,280.03125 L 407.28125,277.5 L 407.21875,277.375 L 405.65625,274.875 L 405.5625,274.75 L 403.96875,272.34375 L 403.875,272.1875 L 402.21875,269.84375 L 402.09375,269.65625 L 401,268.21875 L 397.6875,265.84375 L 393.59375,265.84375 L 390.28125,268.21875 z M 347.78125,270.75 L 347.59375,271 L 346.25,272.96875 L 346.125,273.125 L 343.03125,277.8125 L 342.9375,278 L 339.9375,282.90625 L 339.84375,283.0625 L 336.9375,288.125 L 336.84375,288.28125 L 334.0625,293.5 L 333.96875,293.65625 L 333.40625,294.78125 L 332.75,298.78125 L 334.5625,302.4375 L 338.15625,304.375 L 342.21875,303.875 L 345.21875,301.09375 L 345.34375,300.8125 L 345.84375,299.84375 L 345.9375,299.6875 L 348.5625,294.78125 L 348.65625,294.625 L 351.34375,289.90625 L 351.46875,289.71875 L 354.25,285.1875 L 357.21875,280.625 L 357.34375,280.46875 L 358.59375,278.65625 L 359.8125,274.75 L 358.5,270.875 L 355.21875,268.46875 L 351.15625,268.40625 L 347.78125,270.75 z M 410.375,302.3125 L 408.09375,305.6875 L 408.21875,309.78125 L 408.34375,310.0625 L 409.09375,311.90625 L 409.125,312.03125 L 410.875,316.5625 L 410.90625,316.6875 L 412.4375,320.90625 L 412.46875,321 L 413.78125,324.78125 L 413.8125,324.84375 L 413.8125,324.875 L 414.875,328.15625 L 414.90625,328.25 L 416.40625,333.03125 L 416.375,333.03125 L 416.875,334.6875 L 419.125,338.09375 L 422.96875,339.53125 L 426.90625,338.5 L 429.5,335.34375 L 429.8125,331.28125 L 429.75,331 L 429.25,329.3125 L 429.21875,329.1875 L 427.6875,324.1875 L 427.65625,324.09375 L 426.5,320.625 L 426.46875,320.53125 L 425.09375,316.53125 L 425.0625,316.4375 L 423.46875,312 L 423.40625,311.875 L 421.59375,307.125 L 421.53125,306.96875 L 420.75,305.03125 L 418.125,301.90625 L 414.1875,300.875 L 410.375,302.3125 z M 330.46875,303.90625 L 327.59375,306.8125 L 327.46875,307.09375 L 326.0625,310.1875 L 326,310.3125 L 323.59375,315.875 L 323.5625,316 L 321.25,321.59375 L 321.21875,321.71875 L 319.03125,327.34375 L 319,327.4375 L 317.1875,332.3125 L 317,336.375 L 319.1875,339.8125 L 322.96875,341.3125 L 326.9375,340.34375 L 329.59375,337.28125 L 329.71875,336.96875 L 331.5,332.1875 L 331.53125,332.09375 L 333.65625,326.6875 L 333.6875,326.5625 L 335.875,321.1875 L 335.90625,321.1875 L 338.25,315.71875 L 338.3125,315.59375 L 339.65625,312.625 L 340.125,308.5625 L 338.15625,305 L 334.5,303.21875 L 330.46875,303.90625 z M 315.3125,341.71875 L 312.78125,344.90625 L 312.6875,345.21875 L 311.15625,349.9375 L 311.125,350 L 309.4375,355.375 L 309.4375,355.46875 L 307.84375,360.71875 L 307.84375,360.8125 L 306.375,365.9375 L 306.34375,366 L 304.96875,370.96875 L 304.96875,371.0625 L 304.90625,371.25 L 305.125,375.3125 L 307.65625,378.5 L 311.59375,379.625 L 315.4375,378.28125 L 317.78125,374.9375 L 317.875,374.625 L 317.90625,374.5 L 317.90625,374.4375 L 319.21875,369.625 L 319.25,369.625 L 320.65625,364.5625 L 320.6875,364.5625 L 322.21875,359.375 L 322.25,359.28125 L 323.875,354.0625 L 323.90625,354 L 325.40625,349.34375 L 325.4375,345.28125 L 323.09375,341.9375 L 319.25,340.59375 L 315.3125,341.71875 z M 303.96875,380.6875 L 301.6875,384.0625 L 301.625,384.375 L 301.46875,384.9375 L 301.46875,385.03125 L 300.53125,389.15625 L 300.5,389.28125 L 298.96875,396.71875 L 298.9375,396.84375 L 298.3125,400.09375 L 298.3125,400.21875 L 297.8125,403.15625 L 297.78125,403.28125 L 297.40625,405.84375 L 297.375,406 L 297.09375,408.21875 L 297.0625,408.4375 L 296.90625,410.25 L 296.875,410.625 L 296.8125,412 L 297.90625,415.9375 L 301.0625,418.5 L 305.15625,418.78125 L 308.625,416.625 L 310.1875,412.84375 L 310.21875,412.53125 L 310.25,411.5 L 310.375,409.90625 L 310.40625,409.6875 L 310.625,407.84375 L 310.65625,407.6875 L 311,405.375 L 311.03125,405.25 L 311.46875,402.5625 L 311.5,402.5625 L 312.0625,399.4375 L 312.09375,399.34375 L 312.09375,399.28125 L 313.59375,392.09375 L 313.625,392 L 314.5,388.0625 L 314.53125,387.96875 L 314.625,387.46875 L 314.34375,383.40625 L 311.71875,380.28125 L 307.78125,379.25 L 303.96875,380.6875 z"
     id="path10470" />
  <path
     style="fill:#ffffff;fill-opacity:1;fill-rule:evenodd;stroke:none;stroke-width:13.39000416;stroke-linecap:round;stroke-linejoin:round;stroke-miterlimit:4;stroke-dasharray:26.78000749, 13.39000374;stroke-dashoffset:0;stroke-opacity:1"
     d="M 199.59375,252.4375 L 199.03125,252.5 L 197.5,252.71875 L 196.90625,252.8125 L 195.375,253.1875 L 194.8125,253.34375 L 193.21875,253.84375 L 192.6875,254.0625 L 191.0625,254.75 L 190.5625,255 L 188.90625,255.875 L 188.4375,256.15625 L 186.96875,257.09375 L 184.34375,260.25 L 184.0625,264.3125 L 186.1875,267.78125 L 189.9375,269.40625 L 193.90625,268.53125 L 194.1875,268.375 L 195.21875,267.6875 L 195.40625,267.59375 L 196.34375,267.0625 L 196.53125,267 L 197.78125,266.4375 L 197.9375,266.375 L 198.65625,266.15625 L 199.78125,265.90625 L 199.9375,265.875 L 200.5,265.8125 L 201.5625,265.75 L 201.75,265.75 L 202.28125,265.78125 L 202.9375,265.84375 L 203.03125,265.84375 L 203.8125,266 L 203.90625,266.03125 L 205.09375,266.34375 L 205.5,266.46875 L 205.6875,266.5625 L 205.90625,266.625 L 206.34375,266.8125 L 206.5,266.875 L 206.6875,266.96875 L 207.46875,267.375 L 207.9375,267.625 L 208.21875,267.78125 L 208.9375,268.25 L 210,269 L 210.09375,269.09375 L 210.90625,269.75 L 214.71875,271.28125 L 218.65625,270.3125 L 221.34375,267.21875 L 221.71875,263.15625 L 219.6875,259.625 L 219.4375,259.4375 L 218.53125,258.65625 L 218.125,258.375 L 216.34375,257.09375 L 215.96875,256.84375 L 214.96875,256.25 L 214.6875,256.0625 L 213.625,255.5 L 213.3125,255.3125 L 212.1875,254.78125 L 211.84375,254.625 L 210.65625,254.125 L 210.28125,253.96875 L 209.03125,253.5625 L 208.625,253.40625 L 207.3125,253.0625 L 206.84375,252.96875 L 205.5,252.6875 L 205,252.625 L 203.625,252.4375 L 203.0625,252.40625 L 201.65625,252.375 L 201.0625,252.375 L 199.59375,252.4375 z M 176.0625,267.96875 L 175.84375,268.21875 L 174.75,269.65625 L 174.625,269.84375 L 173,272.1875 L 172.90625,272.34375 L 171.3125,274.75 L 171.21875,274.875 L 169.65625,277.375 L 169.5625,277.5 L 168.0625,280.03125 L 168,280.15625 L 166.53125,282.75 L 166.46875,282.875 L 165.0625,285.46875 L 165.03125,285.59375 L 163.65625,288.21875 L 163.59375,288.34375 L 162.3125,291 L 162.21875,291.125 L 161.625,292.46875 L 161.09375,296.5 L 163.03125,300.09375 L 166.6875,301.90625 L 170.71875,301.25 L 173.625,298.375 L 173.75,298.09375 L 174.3125,296.90625 L 174.375,296.78125 L 175.5625,294.34375 L 175.625,294.25 L 176.875,291.8125 L 176.9375,291.71875 L 178.21875,289.3125 L 178.28125,289.21875 L 179.59375,286.875 L 179.65625,286.75 L 181,284.46875 L 181.09375,284.34375 L 182.46875,282.125 L 182.5625,281.96875 L 183.96875,279.875 L 184.0625,279.71875 L 185.46875,277.71875 L 185.59375,277.53125 L 186.5625,276.25 L 187.90625,272.40625 L 186.75,268.46875 L 183.5625,265.96875 L 179.46875,265.75 L 176.0625,267.96875 z M 218.53125,270.625 L 217.0625,274.4375 L 218.09375,278.375 L 218.25,278.65625 L 219.53125,280.46875 L 219.625,280.625 L 222.5,285 L 222.625,285.1875 L 225.40625,289.71875 L 225.5,289.90625 L 228.21875,294.625 L 228.3125,294.78125 L 230.9375,299.6875 L 231.03125,299.84375 L 231.5,300.8125 L 234.375,303.71875 L 238.375,304.4375 L 242.0625,302.65625 L 244.03125,299.09375 L 243.59375,295.0625 L 243.46875,294.78125 L 242.875,293.65625 L 242.8125,293.5 L 240,288.28125 L 239.9375,288.125 L 237.03125,283.0625 L 236.9375,282.90625 L 233.9375,278 L 233.8125,277.8125 L 230.71875,273.125 L 230.625,272.96875 L 229.25,271 L 226.03125,268.53125 L 221.9375,268.375 L 218.53125,270.625 z M 159,301.75 L 156.25,304.75 L 156.125,305.03125 L 155.3125,306.96875 L 155.28125,307.125 L 153.4375,311.875 L 153.40625,312 L 151.8125,316.4375 L 151.75,316.53125 L 150.375,320.53125 L 150.34375,320.625 L 149.21875,324.09375 L 149.1875,324.1875 L 147.65625,329.1875 L 147.59375,329.3125 L 147.125,331 L 147.25,335.0625 L 149.71875,338.3125 L 153.59375,339.53125 L 157.46875,338.28125 L 159.90625,335 L 160,334.6875 L 160.4375,333.125 L 160.46875,333.03125 L 161.9375,328.25 L 161.96875,328.15625 L 163.0625,324.875 L 163.09375,324.78125 L 164.4375,320.90625 L 164.40625,320.90625 L 165.9375,316.6875 L 166,316.5625 L 167.71875,312.03125 L 167.78125,311.90625 L 168.53125,310.0625 L 168.84375,306 L 166.71875,302.5 L 163,300.875 L 159,301.75 z M 238.9375,304.78125 L 236.8125,308.25 L 237.09375,312.3125 L 237.21875,312.625 L 238.5625,315.59375 L 238.625,315.71875 L 240.90625,321.0625 L 240.96875,321.1875 L 243.15625,326.5625 L 243.21875,326.6875 L 245.34375,332.09375 L 245.3125,332.09375 L 247.125,336.96875 L 249.65625,340.1875 L 253.5625,341.34375 L 257.4375,340 L 259.78125,336.6875 L 259.78125,332.59375 L 259.6875,332.3125 L 257.875,327.4375 L 257.84375,327.34375 L 255.65625,321.71875 L 255.59375,321.59375 L 253.3125,316 L 253.25,315.875 L 250.875,310.3125 L 250.8125,310.1875 L 249.40625,307.09375 L 246.65625,304.0625 L 242.6875,303.1875 L 238.9375,304.78125 z M 254.03125,341.75 L 251.53125,345 L 251.34375,349.0625 L 251.4375,349.34375 L 252.96875,354 L 252.96875,354.0625 L 253,354.0625 L 254.59375,359.28125 L 254.625,359.375 L 256.15625,364.46875 L 256.1875,364.5625 L 257.59375,369.53125 L 257.625,369.625 L 258.9375,374.4375 L 258.96875,374.5 L 259,374.625 L 261.1875,378.09375 L 264.96875,379.625 L 268.9375,378.6875 L 271.625,375.59375 L 272.03125,371.5625 L 271.96875,371.25 L 271.90625,371.0625 L 271.875,370.96875 L 270.53125,366 L 270.5,365.9375 L 269.03125,360.8125 L 269,360.71875 L 267.4375,355.46875 L 267.40625,355.375 L 265.75,350 L 265.71875,349.9375 L 264.1875,345.21875 L 261.78125,341.90625 L 257.9375,340.59375 L 254.03125,341.75 z M 265.40625,380.125 L 262.65625,383.125 L 262.15625,387.1875 L 262.21875,387.46875 L 262.34375,387.96875 L 262.375,388.0625 L 263.25,392 L 263.28125,392.09375 L 264.78125,399.4375 L 264.8125,399.4375 L 265.34375,402.4375 L 265.375,402.5625 L 265.84375,405.375 L 265.875,405.375 L 266.21875,407.84375 L 266.25,407.84375 L 266.46875,409.90625 L 266.5,409.90625 L 266.59375,411.15625 L 266.625,411.5 L 266.65625,412.53125 L 268.0625,416.375 L 271.40625,418.6875 L 275.5,418.625 L 278.78125,416.1875 L 280.03125,412.3125 L 280.03125,412 L 279.96875,410.625 L 279.96875,410.25 L 279.78125,408.4375 L 279.78125,408.21875 L 279.5,406 L 279.46875,405.84375 L 279.0625,403.28125 L 279.0625,403.15625 L 278.5625,400.21875 L 278.53125,400.09375 L 277.9375,396.84375 L 277.90625,396.71875 L 276.375,389.28125 L 276.34375,389.15625 L 275.40625,385.03125 L 275.375,384.9375 L 275.25,384.375 L 273.125,380.875 L 269.40625,379.28125 L 265.40625,380.125 z"
     id="path10472" />
  <path
     style="fill:#ffffff;fill-opacity:1;fill-rule:evenodd;stroke:none;stroke-width:19.17499924;stroke-linecap:round;stroke-linejoin:miter;stroke-miterlimit:4;stroke-dasharray:38.34999847, 19.17499924;stroke-dashoffset:116.96749534;stroke-opacity:1"
     d="M 286.125,46.90625 L 282.6875,50.59375 L 281.5625,55.09375 L 281.5625,93.4375 L 282.875,98.28125 L 286.46875,101.8125 L 291.34375,103.03125 L 296.1875,101.59375 L 299.625,97.9375 L 300.75,93.4375 L 300.75,55.09375 L 299.4375,50.21875 L 295.84375,46.71875 L 290.96875,45.5 L 286.125,46.90625 z M 286.125,104.4375 L 282.6875,108.09375 L 281.5625,112.625 L 281.5625,150.96875 L 282.875,155.8125 L 286.46875,159.34375 L 291.34375,160.53125 L 296.1875,159.125 L 299.625,155.46875 L 300.75,150.96875 L 300.75,112.625 L 299.4375,107.75 L 295.84375,104.25 L 290.96875,103.03125 L 286.125,104.4375 z M 286.125,161.96875 L 282.6875,165.625 L 281.5625,170.125 L 281.5625,208.5 L 282.875,213.34375 L 286.46875,216.84375 L 291.34375,218.0625 L 296.1875,216.65625 L 299.625,213 L 300.75,208.5 L 300.75,170.125 L 299.4375,165.28125 L 295.84375,161.78125 L 290.96875,160.5625 L 286.125,161.96875 z M 286.125,219.5 L 282.6875,223.15625 L 281.5625,227.65625 L 281.5625,266 L 282.875,270.875 L 286.46875,274.375 L 291.34375,275.59375 L 296.1875,274.1875 L 299.625,270.5 L 300.75,266 L 300.75,227.65625 L 299.4375,222.8125 L 295.84375,219.28125 L 290.96875,218.0625 L 286.125,219.5 z M 286.125,277.03125 L 282.6875,280.6875 L 281.5625,285.1875 L 281.5625,323.53125 L 282.875,328.375 L 286.46875,331.90625 L 291.34375,333.125 L 296.1875,331.6875 L 299.625,328.03125 L 300.75,323.53125 L 300.75,285.1875 L 299.4375,280.34375 L 295.84375,276.8125 L 290.96875,275.59375 L 286.125,277.03125 z M 286.125,334.53125 L 282.6875,338.21875 L 281.5625,342.71875 L 281.5625,379.15625 L 282.875,384 L 286.46875,387.5 L 291.34375,388.71875 L 296.1875,387.3125 L 299.625,383.65625 L 300.75,379.15625 L 300.75,342.71875 L 299.4375,337.84375 L 295.84375,334.34375 L 290.96875,333.125 L 286.125,334.53125 z"
     id="path10474" />
  <rect
     style="opacity:1;fill:#ffffff;fill-opacity:1;stroke:#ffffff;stroke-width:20;stroke-linecap:round;stroke-linejoin:bevel;stroke-miterlimit:4;stroke-dasharray:none;stroke-dashoffset:0;stroke-opacity:1"
     id="rect10483"
     width="164.1799"
     height="96.666664"
     x="206.3492"
     y="398.9418" />
  <rect
     y="445.1792"
     x="168.19507"
     height="48.689228"
     width="245.09135"
     id="rect10485"
     style="opacity:1;fill:#ffffff;fill-opacity:1;stroke:#ffffff;stroke-width:17.34251404;stroke-linecap:round;stroke-linejoin:bevel;stroke-miterlimit:4;stroke-dasharray:none;stroke-dashoffset:0;stroke-opacity:1" />
</svg>
