<?xml version="1.0" encoding="UTF-8" standalone="no"?>
<!-- Created with Inkscape (http://www.inkscape.org/) -->
<svg
   xmlns:dc="http://purl.org/dc/elements/1.1/"
   xmlns:cc="http://creativecommons.org/ns#"
   xmlns:rdf="http://www.w3.org/1999/02/22-rdf-syntax-ns#"
   xmlns:svg="http://www.w3.org/2000/svg"
   xmlns="http://www.w3.org/2000/svg"
   xmlns:sodipodi="http://sodipodi.sourceforge.net/DTD/sodipodi-0.dtd"
   xmlns:inkscape="http://www.inkscape.org/namespaces/inkscape"
   version="1.0"
   width="580"
   height="580"
   id="svg2"
   sodipodi:version="0.32"
   inkscape:version="0.46"
   sodipodi:docname="tourist_art_gallery.svg"
   sodipodi:docbase="s:\Data\FacilityIcons"
   inkscape:output_extension="org.inkscape.output.svg.inkscape">
  <metadata
     id="metadata2975">
    <rdf:RDF>
      <cc:Work
         rdf:about="">
        <dc:format>image/svg+xml</dc:format>
        <dc:type
           rdf:resource="http://purl.org/dc/dcmitype/StillImage" />
        <cc:license
           rdf:resource="http://web.resource.org/cc/PublicDomain" />
        <dc:language>en</dc:language>
      </cc:Work>
    </rdf:RDF>
  </metadata>
  <sodipodi:namedview
     inkscape:window-height="1003"
     inkscape:window-width="1400"
     inkscape:pageshadow="2"
     inkscape:pageopacity="0.0"
     guidetolerance="10.0"
     gridtolerance="10.0"
     objecttolerance="10.0"
     borderopacity="1.0"
     bordercolor="#666666"
     pagecolor="#ffffff"
     id="base"
     inkscape:zoom="0.65172414"
     inkscape:cx="290"
     inkscape:cy="348.04571"
     inkscape:window-x="-4"
     inkscape:window-y="-4"
     inkscape:current-layer="svg2"
     showgrid="false" />
  <defs
     id="defs4">
    <inkscape:perspective
       sodipodi:type="inkscape:persp3d"
       inkscape:vp_x="0 : 290 : 1"
       inkscape:vp_y="0 : 1000 : 0"
       inkscape:vp_z="580 : 290 : 1"
       inkscape:persp3d-origin="290 : 193.33333 : 1"
       id="perspective2441" />
    <inkscape:perspective
       id="perspective3452"
       inkscape:persp3d-origin="30 : 20 : 1"
       inkscape:vp_z="60 : 30 : 1"
       inkscape:vp_y="0 : 1000 : 0"
       inkscape:vp_x="0 : 30 : 1"
       sodipodi:type="inkscape:persp3d" />
  </defs>
  <g
     id="g1327">
    <path
       d="M 66.275,1.768 C 24.94,1.768 1.704,23.139 1.704,66.804 L 1.704,516.927 C 1.704,557.771 22.599,579.156 63.896,579.156 L 515.92,579.156 C 557.227,579.156 578.149,558.841 578.149,516.927 L 578.149,66.804 C 578.149,24.203 557.227,1.768 514.628,1.768 C 514.624,1.768 66.133,1.625 66.275,1.768 z "
       style="fill:#111;stroke:#eee;stroke-width:3.40799999"
       id="path1329" />
  </g>
  <path
     d="M 23.159867,530.46638 L 557.64236,529.5373 L 528.55835,479.16233 L 54.205081,479.16233 L 23.159867,530.46638 z"
     id="path828"
     sodipodi:nodetypes="ccccc"
     sodipodi:stroke-cmyk="(0.0000000 0.0000000 0.0000000 0.80000001)"
     style="fill:#ffffff;fill-opacity:1;fill-rule:evenodd;stroke:none;stroke-width:22.61511803;stroke-linecap:round;stroke-linejoin:round;stroke-dasharray:none;stroke-opacity:0.58139535" />
  <path
     d="M 93.351206,489.96205 L 93.351206,144.63384"
     id="path829"
     sodipodi:stroke-cmyk="(0.0000000 0.0000000 0.0000000 0.80000001)"
     style="fill:#ffffff;fill-opacity:1;fill-rule:evenodd;stroke:#ffffff;stroke-width:60.79834747;stroke-opacity:1" />
  <path
     d="M 489.52906,498.70513 L 489.52906,155.89076"
     id="path833"
     sodipodi:stroke-cmyk="(0.0000000 0.0000000 0.0000000 0.80000001)"
     style="fill:#ffffff;fill-opacity:1;fill-rule:evenodd;stroke:#ffffff;stroke-width:60.57665253;stroke-opacity:1" />
  <path
     d="M 24.452984,108.9176 L 557.89553,108.9176 L 293.67923,19.311399 L 24.452984,108.9176 z"
     id="path837"
     sodipodi:stroke-cmyk="(0.0000000 0.0000000 0.0000000 0.80000001)"
     style="fill:#ffffff;fill-opacity:1;fill-rule:evenodd;stroke:none;stroke-width:22.61511803;stroke-linecap:round;stroke-linejoin:round;stroke-dasharray:none;stroke-opacity:0.58139535" />
  <rect
     style="opacity:1;fill:#ffffff;fill-opacity:1;stroke:#ffffff;stroke-width:29.52299118;stroke-linecap:square;stroke-miterlimit:4;stroke-dasharray:none;stroke-dashoffset:0;stroke-opacity:1"
     id="rect3475"
     width="496.41064"
     height="44.06712"
     x="42.874058"
     y="106.99475"
     rx="0" />
  <g
     id="g5381"
     transform="matrix(1.4565783,0,0,1.4565783,-130.4077,-165.48761)">
    <path
       id="path4864"
       d="M 277.22001,277.32986 C 270.92631,277.38594 264.50858,278.42203 257.45634,282.2972 C 256.27899,282.63539 253.79407,286.52048 251.52458,289.03481 C 244.19303,297.15743 242.8451,308.67236 248.07651,318.40289 C 253.51422,328.5173 252.60058,335.49271 245.55322,337.66456 C 242.56874,338.58432 241.25461,338.3375 234.66733,335.74896 C 230.5472,334.12987 225.69246,332.81764 223.88716,332.82932 C 218.7863,332.86236 213.86843,335.9322 211.19137,340.7295 C 209.18215,344.33016 208.83577,345.92774 208.81339,352.17024 C 208.78483,360.15176 209.75804,362.95776 216.25119,373.95521 C 222.84726,385.12693 232.6058,395.1546 243.8622,402.31925 C 251.60143,407.2452 265.83604,412.45358 274.31358,413.56182 C 282.79117,414.67008 295.78799,416.61807 317.43433,412.822 C 333.56586,409.06435 349.52606,398.88498 358.11104,389.04218 C 366.69597,379.19938 368.20295,374.81313 370.34443,364.24511 C 372.95321,351.37085 369.37285,333.68539 361.4402,320.22601 C 356.23002,311.38589 346.82732,300.93866 339.77414,296.16876 C 327.7189,288.01605 306.04053,279.83891 291.92386,278.10932 C 286.9369,277.83561 282.11509,277.28624 277.22001,277.32986 z M 274.23432,289.57647 C 282.84277,289.57647 289.82331,296.55701 289.82331,305.16546 C 289.82331,313.77392 282.84277,320.76767 274.23432,320.76767 C 265.62586,320.76767 258.63212,313.77392 258.63212,305.16546 C 258.63212,296.55701 265.62586,289.57647 274.23432,289.57647 z M 317.98919,296.71042 C 318.31482,296.7085 318.66355,296.71878 319.05928,296.73684 C 323.68557,296.94799 327.85587,298.54165 329.61488,300.7662 C 331.63128,303.31624 334.5627,316.20039 333.9613,319.86932 C 333.4822,322.79216 327.00133,330.87409 325.13635,330.87409 C 324.69884,330.87409 323.84018,331.05799 323.22075,331.28364 C 322.60127,331.50927 320.75332,331.10274 319.12534,330.38529 C 317.49735,329.66778 315.13778,329.05183 313.88057,329.01134 C 310.03254,328.8874 307.58303,326.99176 305.70294,322.68327 C 302.79913,316.02886 303.27065,312.08908 307.51285,307.22637 C 309.48968,304.96037 312.0845,301.63724 313.28607,299.84142 C 314.96929,297.32583 315.70994,296.72385 317.98919,296.71042 z M 345.6002,335.63005 C 346.19524,335.63579 346.85917,335.67705 347.60828,335.73575 C 357.12856,336.48162 359.88187,340.22115 357.39764,349.02602 C 356.64925,351.67854 355.84599,355.52209 355.61415,357.58676 C 354.66154,366.06966 349.641,369.83335 343.10332,366.94016 C 331.79304,361.93487 331.81993,361.94745 330.43396,356.02787 C 329.02879,350.02583 329.52893,348.73352 335.67874,342.59226 C 337.34577,340.92763 339.55343,338.60571 340.58002,337.43996 C 341.75307,336.10786 343.02161,335.60517 345.6002,335.63005 z M 232.76495,350.14896 C 232.84939,350.14468 232.92103,350.14415 233.00274,350.14896 C 234.09149,350.21303 237.64696,350.38172 240.90294,350.51886 C 244.15891,350.65603 247.30131,351.12722 247.89156,351.54933 C 249.3148,352.56709 253.16279,361.30916 253.16276,363.53172 C 253.16275,366.30384 250.86386,369.37636 245.30221,374.00805 C 240.89913,377.67485 239.54515,378.30162 236.08092,378.30162 C 231.92627,378.30163 228.64311,376.01427 228.64311,373.12291 C 228.64314,372.40365 227.65532,369.69292 226.45009,367.09869 C 224.53545,362.97746 224.37891,361.95113 225.16862,358.93428 C 226.27256,354.71732 230.14763,350.28152 232.76495,350.14896 z M 307.69781,363.96767 C 309.35776,363.98167 311.51761,364.71254 314.91102,366.0418 C 317.00416,366.86174 319.84367,367.87949 321.23909,368.3141 C 323.20155,368.92532 324.30022,370.31419 326.06112,374.4308 C 330.25686,384.23984 328.80021,388.84584 320.89561,390.78603 C 318.51427,391.37053 315.20213,392.4936 313.52387,393.29612 C 306.62872,396.59344 301.27353,393.49416 300.19396,385.56768 C 298.32625,371.85477 298.32325,371.89454 302.10955,367.56107 C 304.14906,365.22689 305.44804,364.07895 307.38075,363.98089 C 307.48736,363.97548 307.58713,363.96675 307.69781,363.96767 z M 272.70184,364.9453 C 274.52835,364.92555 276.08105,365.54827 278.96386,367.21758 C 283.50584,369.84763 287.84163,374.90649 287.84166,377.56181 C 287.84166,378.28328 287.08087,380.57291 286.15065,382.66127 C 285.22036,384.74961 284.4479,387.12662 284.43323,387.94567 C 284.41854,388.76471 283.43484,390.70149 282.2534,392.23925 C 280.3721,394.68827 279.37882,395.08322 274.26075,395.50236 C 269.41253,395.89938 268.34039,395.7271 267.90624,394.43227 C 267.61846,393.57396 265.65192,391.87596 263.53339,390.66714 C 260.91919,389.17549 259.29926,387.45697 258.52643,385.34309 C 256.07679,378.6424 258.29827,369.45794 262.52936,368.77648 C 263.65708,368.59489 265.16184,367.84974 265.87175,367.12511 C 266.58157,366.40049 268.77468,365.51514 270.7334,365.15667 C 271.46611,365.02258 272.09306,364.95187 272.70184,364.9453 z"
       style="fill:#ffffff" />
    <g
       transform="matrix(0.5018055,0,0,0.467669,156.21692,188.3788)"
       id="g4887">
      <path
         style="fill:#ffffff;fill-rule:evenodd;stroke:none;stroke-width:1.06162941px;stroke-linecap:butt;stroke-linejoin:miter;stroke-opacity:1"
         d="M 191.89532,151.62707 L 303.04839,513.03901 C 304.77318,519.6929 317.43558,515.96635 316.29461,509.58347 L 209.37359,146.31002 L 191.89532,151.62707 z"
         id="path4883"
         sodipodi:nodetypes="ccccc" />
      <path
         style="fill:#ffffff;fill-rule:evenodd;stroke:none;stroke-width:1.06162941px;stroke-linecap:butt;stroke-linejoin:miter;stroke-opacity:1"
         d="M 191.62309,148.81514 C 177.88017,131.02933 183.00356,113.92865 186.43978,100.43763 C 191.9508,107.20951 196.19787,110.80017 205.21421,122.78988 C 211.65922,131.36028 207.68574,137.24789 208.32485,144.78367 L 191.62309,148.81514 z"
         id="path4885"
         sodipodi:nodetypes="ccscc" />
    </g>
    <g
       transform="matrix(0.5402522,6.6340066e-2,-7.7419051e-2,0.4629399,174.92367,177.36543)"
       id="g4891">
      <path
         sodipodi:nodetypes="ccccc"
         id="path4893"
         d="M 191.89532,151.62707 L 303.04839,513.03901 C 304.77318,519.6929 317.43558,515.96635 316.29461,509.58347 L 209.37359,146.31002 L 191.89532,151.62707 z"
         style="fill:#ffffff;fill-rule:evenodd;stroke:none;stroke-width:1.06162941px;stroke-linecap:butt;stroke-linejoin:miter;stroke-opacity:1" />
      <path
         sodipodi:nodetypes="ccscc"
         id="path4895"
         d="M 191.62309,148.81514 C 177.88017,131.02933 183.00356,113.92865 186.43978,100.43763 C 191.9508,107.20951 196.19787,110.80017 205.21421,122.78988 C 211.65922,131.36028 207.68574,137.24789 208.32485,144.78367 L 191.62309,148.81514 z"
         style="fill:#ffffff;fill-rule:evenodd;stroke:none;stroke-width:1.06162941px;stroke-linecap:butt;stroke-linejoin:miter;stroke-opacity:1" />
    </g>
  </g>
</svg>
