<?xml version="1.0" encoding="UTF-8" standalone="no"?>
<!-- Created with Inkscape (http://www.inkscape.org/) -->
<svg
   xmlns:dc="http://purl.org/dc/elements/1.1/"
   xmlns:cc="http://creativecommons.org/ns#"
   xmlns:rdf="http://www.w3.org/1999/02/22-rdf-syntax-ns#"
   xmlns:svg="http://www.w3.org/2000/svg"
   xmlns="http://www.w3.org/2000/svg"
   xmlns:sodipodi="http://sodipodi.sourceforge.net/DTD/sodipodi-0.dtd"
   xmlns:inkscape="http://www.inkscape.org/namespaces/inkscape"
   version="1.0"
   width="580"
   height="580"
   id="svg2"
   sodipodi:version="0.32"
   inkscape:version="0.46"
   sodipodi:docname="tourist_art_gallery2.svg"
   sodipodi:docbase="s:\Data\FacilityIcons"
   inkscape:output_extension="org.inkscape.output.svg.inkscape">
  <metadata
     id="metadata2975">
    <rdf:RDF>
      <cc:Work
         rdf:about="">
        <dc:format>image/svg+xml</dc:format>
        <dc:type
           rdf:resource="http://purl.org/dc/dcmitype/StillImage" />
        <cc:license
           rdf:resource="http://web.resource.org/cc/PublicDomain" />
        <dc:language>en</dc:language>
      </cc:Work>
    </rdf:RDF>
  </metadata>
  <sodipodi:namedview
     inkscape:window-height="1003"
     inkscape:window-width="1400"
     inkscape:pageshadow="2"
     inkscape:pageopacity="0.0"
     guidetolerance="10.0"
     gridtolerance="10.0"
     objecttolerance="10.0"
     borderopacity="1.0"
     bordercolor="#666666"
     pagecolor="#ffffff"
     id="base"
     inkscape:zoom="0.65172414"
     inkscape:cx="290"
     inkscape:cy="348.04571"
     inkscape:window-x="0"
     inkscape:window-y="20"
     inkscape:current-layer="svg2"
     showgrid="false" />
  <defs
     id="defs4">
    <inkscape:perspective
       sodipodi:type="inkscape:persp3d"
       inkscape:vp_x="0 : 290 : 1"
       inkscape:vp_y="0 : 1000 : 0"
       inkscape:vp_z="580 : 290 : 1"
       inkscape:persp3d-origin="290 : 193.33333 : 1"
       id="perspective2441" />
    <inkscape:perspective
       id="perspective3452"
       inkscape:persp3d-origin="30 : 20 : 1"
       inkscape:vp_z="60 : 30 : 1"
       inkscape:vp_y="0 : 1000 : 0"
       inkscape:vp_x="0 : 30 : 1"
       sodipodi:type="inkscape:persp3d" />
  </defs>
  <g
     id="g1327">
    <path
       d="M 66.275,1.768 C 24.94,1.768 1.704,23.139 1.704,66.804 L 1.704,516.927 C 1.704,557.771 22.599,579.156 63.896,579.156 L 515.92,579.156 C 557.227,579.156 578.149,558.841 578.149,516.927 L 578.149,66.804 C 578.149,24.203 557.227,1.768 514.628,1.768 C 514.624,1.768 66.133,1.625 66.275,1.768 z "
       style="fill:#111;stroke:#eee;stroke-width:3.40799999"
       id="path1329" />
  </g>
  <path
     style="fill:#ffffff"
     d="M 258.85228,128.34807 C 241.54324,128.5023 223.89309,131.35177 204.4979,142.00933 C 201.25993,142.93943 194.42587,153.62427 188.18428,160.53922 C 168.02092,182.87819 164.31382,214.54674 178.70134,241.30781 C 193.65622,269.12463 191.14351,288.30852 171.76174,294.28158 C 163.55377,296.81112 159.93963,296.13231 141.82318,289.01326 C 130.49193,284.56041 117.14035,280.95149 112.17538,280.98362 C 98.146908,281.07448 84.621699,289.51721 77.259204,302.71083 C 71.733413,312.61342 70.780793,317.00711 70.719243,334.17534 C 70.640697,356.12625 73.317236,363.84336 91.174806,394.08873 C 109.31543,424.81338 136.15353,452.39165 167.11107,472.09599 C 188.39563,485.64342 227.54389,499.96759 250.85897,503.0155 C 274.17418,506.06345 309.91825,511.42085 369.45038,500.98083 C 413.81558,490.64648 457.70959,462.651 481.32015,435.58117 C 504.93057,408.51134 509.07509,396.4482 514.96462,367.38385 C 522.13933,331.97684 512.29257,283.338 490.47606,246.32178 C 476.14694,222.00954 450.28747,193.27739 430.8897,180.15913 C 397.73517,157.73741 338.11496,135.2485 299.29105,130.49175 C 285.57583,129.73899 272.31481,128.22811 258.85228,128.34807 z M 250.64098,162.0289 C 274.31609,162.0289 293.51409,181.2269 293.51409,204.902 C 293.51409,228.57714 274.31609,247.81146 250.64098,247.81146 C 226.96585,247.81146 207.73155,228.57714 207.73155,204.902 C 207.73155,181.2269 226.96585,162.0289 250.64098,162.0289 z M 370.97636,181.64881 C 371.87192,181.64353 372.831,181.6718 373.91934,181.72147 C 386.64264,182.30218 398.11187,186.68509 402.94953,192.80309 C 408.49507,199.81625 416.55711,235.25045 414.90313,245.34081 C 413.5855,253.37925 395.7617,275.60631 390.6326,275.60631 C 389.42935,275.60631 387.06785,276.11208 385.36429,276.73266 C 383.66058,277.35319 378.57832,276.23515 374.10102,274.26201 C 369.6237,272.2887 363.13437,270.5947 359.67677,270.48334 C 349.09385,270.14248 342.35717,264.92906 337.18651,253.07978 C 329.2004,234.77871 330.49719,223.94346 342.16416,210.56995 C 347.60087,204.33796 354.73718,195.19863 358.04176,190.25974 C 362.67098,183.34132 364.70793,181.68575 370.97636,181.64881 z M 446.91263,288.68623 C 448.54912,288.70202 450.37507,288.81549 452.43528,288.97693 C 478.61812,291.02823 486.19031,301.31275 479.35814,325.52805 C 477.29991,332.82306 475.09077,343.39365 474.45316,349.07194 C 471.83328,372.40176 458.0257,382.75272 440.04566,374.79582 C 408.93994,361.03019 409.0139,361.06479 405.20218,344.78466 C 401.33766,328.27775 402.71315,324.72362 419.62646,307.83382 C 424.21115,303.25573 430.2827,296.86994 433.10604,293.66388 C 436.33218,290.00031 439.82094,288.61781 446.91263,288.68623 z M 136.59123,328.61638 C 136.82345,328.60461 137.02048,328.60315 137.2452,328.61638 C 140.2395,328.79259 150.01781,329.25652 158.97246,329.63369 C 167.92709,330.01093 176.56937,331.30681 178.19268,332.4677 C 182.1069,335.26676 192.68971,359.30935 192.68963,365.42187 C 192.6896,373.0458 186.36715,381.4959 171.07141,394.23405 C 158.96198,404.31855 155.23825,406.0423 145.71086,406.0423 C 134.28467,406.04233 125.25527,399.75159 125.25527,391.79973 C 125.25535,389.8216 122.53864,382.36651 119.22399,375.23181 C 113.95832,363.89754 113.5278,361.07491 115.69967,352.77792 C 118.73575,341.18036 129.39303,328.98095 136.59123,328.61638 z M 342.67284,366.62083 C 347.23806,366.65933 353.17811,368.66938 362.51073,372.32514 C 368.26732,374.58015 376.07658,377.37918 379.91429,378.57446 C 385.31148,380.25544 388.33306,384.07514 393.17592,395.39671 C 404.71511,422.37369 400.70901,435.04119 378.96965,440.37713 C 372.42045,441.98464 363.31134,445.07332 358.69576,447.28043 C 339.73261,456.34877 325.00467,447.82508 322.03562,426.02554 C 316.89901,388.31207 316.89076,388.42144 327.30391,376.50346 C 332.913,370.08396 336.48548,366.92687 341.80085,366.65719 C 342.09405,366.64231 342.36844,366.6183 342.67284,366.62083 z M 246.42633,369.30953 C 251.44963,369.25521 255.71989,370.96782 263.64824,375.55879 C 276.13967,382.792 288.06404,396.70496 288.06412,404.00766 C 288.06412,405.99186 285.97178,412.28884 283.41347,418.03228 C 280.85498,423.77567 278.73054,430.31296 278.6902,432.56553 C 278.6498,434.81807 275.94441,440.14463 272.69519,444.3738 C 267.52121,451.10914 264.78947,452.19534 250.71367,453.34806 C 237.38002,454.43996 234.4314,453.96615 233.23739,450.40509 C 232.44593,448.04455 227.03752,443.37468 221.21111,440.05016 C 214.02149,435.9478 209.56633,431.2215 207.44088,425.40787 C 200.70384,406.97952 206.81339,381.72026 218.44981,379.8461 C 221.55128,379.34669 225.6897,377.29736 227.6421,375.30448 C 229.59426,373.31161 235.62579,370.87671 241.0127,369.89084 C 243.02781,369.52206 244.75205,369.32759 246.42633,369.30953 z"
     id="path4864" />
  <g
     id="g4887"
     transform="matrix(1.364208,-0.2086637,0.1944689,1.2714045,-123.82941,-61.202369)">
    <path
       style="fill:#ffffff;fill-rule:evenodd;stroke:none;stroke-width:1.06162941px;stroke-linecap:butt;stroke-linejoin:miter;stroke-opacity:1"
       d="M 190.25 81.125 L 167.4375 91.53125 L 265.84375 285 L 287.875 279.3125 L 190.25 81.125 z M 376.375 459 L 357.0625 464.28125 L 389.375 527.84375 C 393.02195 535.94364 409.54779 528.56464 406.75 520.6875 L 376.375 459 z "
       transform="matrix(0.7162686,0.1175544,-0.1095575,0.7685511,81.989933,61.593845)"
       id="path4883" />
    <path
       sodipodi:nodetypes="ccscc"
       id="path4885"
       d="M 191.62309,148.81514 C 177.88017,131.02933 183.00356,113.92865 186.43978,100.43763 C 191.9508,107.20951 196.19787,110.80017 205.21421,122.78988 C 211.65922,131.36028 207.68574,137.24789 208.32485,144.78367 L 191.62309,148.81514 z"
       style="fill:#ffffff;fill-rule:evenodd;stroke:none;stroke-width:1.06162941px;stroke-linecap:butt;stroke-linejoin:miter;stroke-opacity:1" />
  </g>
  <g
     id="g4891"
     transform="matrix(1.4858107,0.1824496,-0.2129192,1.2731851,-22.484834,-146.57578)">
    <path
       style="fill:#ffffff;fill-rule:evenodd;stroke:none;stroke-width:1.06162941px;stroke-linecap:butt;stroke-linejoin:miter;stroke-opacity:1"
       d="M 191.89532,151.62707 L 303.04839,513.03901 C 304.77318,519.6929 317.43558,515.96635 316.29461,509.58347 L 209.37359,146.31002 L 191.89532,151.62707 z"
       id="path4893"
       sodipodi:nodetypes="ccccc" />
    <path
       style="fill:#ffffff;fill-rule:evenodd;stroke:none;stroke-width:1.06162941px;stroke-linecap:butt;stroke-linejoin:miter;stroke-opacity:1"
       d="M 191.62309,148.81514 C 177.88017,131.02933 183.00356,113.92865 186.43978,100.43763 C 191.9508,107.20951 196.19787,110.80017 205.21421,122.78988 C 211.65922,131.36028 207.68574,137.24789 208.32485,144.78367 L 191.62309,148.81514 z"
       id="path4895"
       sodipodi:nodetypes="ccscc" />
  </g>
  <path
     style="fill:#ffffff;fill-rule:evenodd;stroke:none;stroke-width:1px;stroke-linecap:butt;stroke-linejoin:miter;stroke-opacity:1;fill-opacity:1;opacity:0.1"
     d="M 98.201058,309.94709 L 92.063492,371.32275 L 131.95767,420.42328 L 248.57143,477.19577 L 377.46032,477.19577 L 454.17989,423.49206 L 486.40211,368.25397 L 497.14286,299.20635 L 441.90476,220.95238 L 409.68254,177.98942 L 332.96296,161.11111 L 294.60317,302.27513 L 211.74603,314.55027 L 98.201058,309.94709 z"
     id="path3185" />
  <path
     style="fill:#ffffff;fill-rule:evenodd;stroke:none;stroke-width:1px;stroke-linecap:butt;stroke-linejoin:miter;stroke-opacity:1;fill-opacity:1;opacity:0.1"
     d="M 165.71429,429.62963 L 260.84656,302.27513 L 357.51323,314.55027 L 446.50794,253.1746 L 483.33333,271.5873 L 500.21164,340.63492 L 467.98942,411.21693 L 331.42857,331.42857 L 299.20635,369.78836 L 305.34391,472.59259 L 239.36508,475.66138 L 165.71429,429.62963 z"
     id="path3187" />
</svg>
