<?xml version="1.0" encoding="UTF-8" standalone="no"?>
<!DOCTYPE svg PUBLIC "-//W3C//DTD SVG 1.0//EN"
"http://www.w3.org/TR/2001/REC-SVG-20010904/DTD/svg10.dtd">
<!-- Created with Sodipodi ("http://www.sodipodi.com/") -->
<svg
   xmlns="http://www.w3.org/2000/svg"
   xmlns:xlink="http://www.w3.org/1999/xlink"
   version="1.0"
   x="0"
   y="0"
   width="109.13385"
   height="109.13385"
   id="svg602"
   xml:space="preserve"><defs
   id="defs604" /><g
   transform="matrix(1.152545,0,0,1.141886,1.090167,-3.677095)"
   style="font-size:12;stroke:#000000;"
   id="g763"><path
   d="M 29.41794 11.63438 C 30.35184 16.67746 30.7254 27.0438 33.90067 27.0438 C 36.88916 26.95041 36.5156 16.77086 37.82306 11.63439 C 37.82306 11.63439 40.90494 26.76363 40.90494 32.92738 C 40.90494 39.09114 33.06015 46.09541 33.06015 52.53934 C 33.06015 58.98327 37.54289 62.62549 37.54289 72.1513 C 37.54289 81.67711 29.13776 92.88394 29.41793 92.88394 C 29.69811 92.88394 21.29298 81.67711 21.29298 72.1513 C 21.29298 62.62549 25.77572 58.98327 25.77572 52.53934 C 25.77572 46.09541 17.93093 39.09114 17.93093 32.92738 C 17.93093 26.76363 21.01281 11.63439 21.01281 11.63439 C 22.32027 16.77086 21.94671 26.95041 24.9352 27.0438 C 28.11047 27.0438 27.64352 17.2378 29.41793 11.63438 "
   style="fill-rule:evenodd;"
   id="path761" /><path
   d="M 70.04271 93.44428 C 73.8717 93.53767 75.17918 76.54064 74.80561 65.98754 C 74.61883 58.88988 73.31137 51.79222 72.56425 44.69456 C 72.37746 32.64721 72.19068 20.59987 72.0039 8.552523 C 67.42778 8.926086 56.12756 7.898788 54.91348 33.20755 C 55.38044 40.95895 61.4508 42.54658 64.71946 47.2161 C 64.06573 53.66003 62.57149 60.10395 62.75827 66.54788 C 62.10453 80.55642 66.77406 94.00462 70.04271 93.44428 z "
   style="fill-rule:evenodd;stroke-width:1;"
   id="path762" /></g></svg>
