<?xml version="1.0" encoding="UTF-8" standalone="no"?>
<!DOCTYPE svg PUBLIC "-//W3C//DTD SVG 1.0//EN"
"http://www.w3.org/TR/2001/REC-SVG-20010904/DTD/svg10.dtd">
<!-- Created with Sodipodi ("http://www.sodipodi.com/") -->
<svg
   xmlns="http://www.w3.org/2000/svg"
   xmlns:xlink="http://www.w3.org/1999/xlink"
   version="1.0"
   x="0"
   y="0"
   width="109.13385"
   height="109.13385"
   id="svg602"
   xml:space="preserve"><defs
   id="defs604" /><g
   transform="translate(4.768372e-6,-3.814697e-6)"
   style="font-size:12;"
   id="g752"><rect
   width="35.8618393"
   height="78.4477692"
   x="26.8963795"
   y="20.5999336"
   transform="translate(-1.270123,-5.396984)"
   style="fill-rule:evenodd;stroke:#000000;"
   id="rect739" /><rect
   width="24.0946732"
   height="18.2110939"
   x="32.7799644"
   y="27.3240242"
   transform="translate(-1.270123,-5.396984)"
   style="fill:#ffffff;fill-rule:evenodd;stroke:#000000;"
   id="rect740" /><path
   d="M 61.55444 36.00599 C 61.55444 36.00599 67.43803 35.29086 67.15785 40.5351 C 67.15785 46.9712 67.43803 93.9309 67.43803 93.9309 L 76.12331 93.9309 C 76.12331 93.9309 75.00263 44.68344 74.72246 37.05547 C 74.72247 28.77117 61.83461 30.04663 61.83461 30.04663 L 61.55444 36.00599 z "
   style="fill-rule:evenodd;stroke:#000000;stroke-width:0.922398;"
   id="path741" /><path
   d="M 75.56297 48.54326 C 75.56297 48.54326 82.8474 46.02172 83.12759 54.14667 C 83.12759 70.67674 82.84742 51.62514 83.40776 69.83623 C 84.52844 76.8405 75.84314 75.15947 75.84314 75.15947 L 75.56297 48.54326 z "
   style="fill-rule:evenodd;stroke:#000000;"
   id="path742" /></g></svg>
