<?xml version="1.0" encoding="UTF-8" standalone="no"?>
<!DOCTYPE svg PUBLIC "-//W3C//DTD SVG 1.0//EN"
"http://www.w3.org/TR/2001/REC-SVG-20010904/DTD/svg10.dtd">
<!-- Created with Sodipodi ("http://www.sodipodi.com/") -->
<svg
   xmlns="http://www.w3.org/2000/svg"
   xmlns:xlink="http://www.w3.org/1999/xlink"
   version="1.0"
   x="0"
   y="0"
   width="109.13385"
   height="109.13385"
   id="svg644"
   xml:space="preserve"><defs
   id="defs646" /><g
   transform="matrix(1.070204,0,0,1.074902,-2.851691e-2,-4.370884)"
   style="font-size:12;"
   id="g668"><path
   d="M 83.45206 98.45599 L 71.07975 80.08751 C 70.9042 53.98903 70.72875 51.99913 66.34137 43.80991 C 61.16425 36.99821 59.67262 36.15636 54.23234 31.64075 L 41.59672 34.85515 C 37.12161 40.28919 34.22597 47.56011 29.75086 50.46845 C 26.24098 52.45835 17.72953 51.92255 13.16667 52.30519 L 12.64019 44.95783 L 7.112126 44.95783 L 8.165082 99.14482 L 12.90344 98.6856 L 12.64019 59.65268 C 19.7477 59.49953 29.75086 59.11689 34.22597 58.50464 C 38.52556 57.28001 40.98249 54.90747 44.49236 52.76454 L 45.54533 74.34741 C 45.54533 74.34741 25.01252 99.14482 30.80383 99.14482 C 36.59513 99.14482 40.01727 99.14482 40.01727 99.14482 L 55.54852 83.99087 L 70.81647 98.45599 L 83.45206 98.45599 z "
   style="fill-rule:evenodd;"
   id="path782" /><ellipse
   cx="356.205231"
   cy="165.826538"
   rx="94.5755615"
   ry="94.5755692"
   transform="matrix(0.148912,0,0,0.129885,-11.31477,1.26248)"
   style="fill-rule:evenodd;"
   id="path783" /><path
   d="M 58.13026 29.1001 L 80.33144 62.56598 L 94.91598 56.64055 L 72.29293 22.90077 L 58.13026 29.1001 z "
   style="fill-rule:evenodd;"
   id="path785" /></g></svg>
