<svg enable-background="new 0 0 579.997 579.997" height="579.997" viewBox="0 0 579.997 579.997" width="579.997" xmlns="http://www.w3.org/2000/svg">
<path d="m493.03 419.592l-.399.328c-10.239 8.396-15.304 13.916-19.001 17.947-8.217 8.959-10.426 11.365-49.361 24.254-44.644 8.766-76.78 14.518-118.552 15.818v-267.155h134.419v-34.252h-134.42v-12.362c17.839-7.012 30.586-25.576 30.586-47.383 0-27.82-20.748-50.373-46.35-50.373-25.598 0-46.351 22.553-46.351 50.373 0 21.809 12.753 40.375 30.593 47.383v12.361h-134.418v34.252h134.419v267.492c-55.312-.137-78.865-5.439-122.192-18.162-24.612-8.355-36.679-20.352-48.349-31.953-6.879-6.838-13.377-13.297-22.004-18.365l-.463-.271-19.052 31.051.315.307c3.749 3.621 7.27 7.096 10.674 10.457 41.966 41.434 63.03 62.23 215.902 62.23 2.179.01 4.352.014 6.479.014.009 0 .011 0 .021 0 148.477 0 171.416-20.861 209.407-55.42 3.967-3.607 8.068-7.338 12.506-11.221l.422-.369z" fill="param(fill) #000" fill-opacity="255" stroke="param(outline) #FFF" stroke-opacity="255" stroke-width="param(outline-width) 0"/>
</svg>
