<svg enable-background="new -235.433 -235.433 579.997 579.997" height="579.997" viewBox="-235.433 -235.433 579.997 579.997" width="579.997" xmlns="http://www.w3.org/2000/svg">
<path d="m182.057 63.58c-21.412-18.028-54.73-30.601-99.955-37.714l-4.08-.691v-123.414c14.383.854 29.148 2.933 44.303 6.249 20.409 4.466 42.123 11.25 65.135 20.347v-48.881c-22.814-6.285-45.125-10.998-66.938-14.142-14.339-2.067-28.504-3.44-42.5-4.148v-29.225h-52.885v30.06c-34.487 3.262-62.626 12.222-84.409 26.882-27.814 18.859-41.721 44.662-41.721 77.416 0 28.285 10.106 50.368 30.316 66.246 19.858 15.604 51.803 27.132 95.814 34.588v136.536c-17.109-1.105-34.44-3.809-51.992-8.111-23.612-5.788-47.723-14.391-72.338-25.803v51.61c25.615 7.774 50.328 13.647 74.14 17.619 17.475 2.887 34.199 4.709 50.19 5.494v28.883h52.885v-29.783c39.14-3.186 70.016-11.994 92.628-26.43 29.215-18.532 43.822-45.742 43.822-81.63 0-30.108-10.805-54.09-32.415-71.958zm-204.409-64.013c-11.807-8.438-17.708-20.843-17.708-37.22 0-19.518 8.903-34.57 26.713-45.158 10.347-6.081 23.184-10.406 38.484-12.994v111.864c-22.29-4.541-38.12-10.039-47.489-16.492zm145.274 187.822c-11.833 7.077-26.805 11.926-44.9 14.551v-125.868c23.786 5.006 41.37 11.836 52.707 20.511 13.605 10.255 20.41 24.48 20.41 42.674 0 20.842-9.402 36.885-28.217 48.132z" fill="param(fill) #000" fill-opacity="255" stroke="param(outline) #FFF" stroke-opacity="255" stroke-width="param(outline-width) 0"/>
</svg>
