<?xml version="1.0" encoding="UTF-8"?>
<svg width="580" height="580" enable-background="new 0 0 579.997 579.997" viewBox="0 0 580 580" xmlns="http://www.w3.org/2000/svg">
 <path d="m483.3 384.9v-138.34l-438.06 1.798s35.76 131.16 165.39 134.75c272.67 5.389 272.67 5.389 272.67 1.796z" fill="param(fill) #000" opacity=".25"/>
 <path d="m542.9 216.01h-56.621v16.455l-459.44 1.885 4.827 17.705c0.395 1.445 9.959 35.813 36.438 70.817 35.566 47.017 84.719 72.709 142.14 74.3l0.111 3e-3c149.48 2.954 217.71 4.303 248.18 4.303h6e-3c12.717 0 19.548-0.225 23.573-0.776 4.646-0.636 7.875-2.249 10.127-4.221v33.333h10.43v-107.8h40.229v-106zm-73.677 157.23c-2.724 0.049-6.213 0.08-10.683 0.08h-5e-3c-30.191 0-98.315-1.347-247.57-4.296-48.933-1.37-89.252-22.362-119.84-62.394-12.384-16.204-20.667-32.481-25.742-44.288l403.84-1.657z" fill="param(fill) #000" fill-opacity="255" stroke="param(outline) #FFF" stroke-opacity="255" stroke-width="param(outline-width) 0"/>
</svg>
