<svg enable-background="new -235.433 -235.433 579.997 579.997" height="579.997" viewBox="-235.433 -235.433 579.997 579.997" width="579.997" xmlns="http://www.w3.org/2000/svg">
<path d="m125.788-42.707v-62.611h-154.476v62.611h-58.462v-22.383h-48.975v22.383h-37.724v257.159h460.021v-257.159zm-77.238 69.148c40.267 0 73.026 32.759 73.026 73.026s-32.76 73.026-73.026 73.026-73.026-32.76-73.026-73.026 32.76-73.026 73.026-73.026zm-45.478-39.096v-65.911h90.958v65.911z" fill="param(fill) #000" fill-opacity="255" stroke="param(outline) #FFF" stroke-opacity="255" stroke-width="param(outline-width) 0"/>
<path d="m48.55 148.282c26.865 0 48.722-21.854 48.722-48.717s-21.856-48.716-48.722-48.716c-26.864 0-48.719 21.854-48.719 48.716s21.856 48.717 48.719 48.717z" fill="param(fill) #000" fill-opacity="255" stroke="param(outline) #FFF" stroke-opacity="255" stroke-width="param(outline-width) 0"/>
</svg>
