<?xml version="1.0" encoding="UTF-8" standalone="no"?>
<!DOCTYPE svg PUBLIC "-//W3C//DTD SVG 1.0//EN"
"http://www.w3.org/TR/2001/REC-SVG-20010904/DTD/svg10.dtd">
<!-- Created with Sodipodi ("http://www.sodipodi.com/") -->
<svg
   xmlns="http://www.w3.org/2000/svg"
   xmlns:xlink="http://www.w3.org/1999/xlink"
   version="1.0"
   x="0"
   y="0"
   width="109.13385"
   height="109.13385"
   id="svg602"
   xml:space="preserve"><g
   transform="matrix(1.24524,0,0,1.221374,-6.631602,-7.167601)"
   style="font-size:12;"
   id="g864"><path
   d="M 32.11112 86.88141 C 32.11112 86.88141 36.89962 63.22058 32.11112 58.71376 C 27.32262 54.20693 15.77388 54.48862 14.08382 53.08023 C 12.39377 51.67184 10.98538 48.01005 12.39377 46.88335 C 13.80215 45.75664 21.12573 45.75663 24.50585 44.62993 C 27.60429 43.22155 24.50586 35.33459 34.36453 35.33461 C 44.78658 34.48958 37.18129 43.22155 42.53315 47.16503 C 47.885 47.16503 77.46103 47.16502 81.12283 50.54514 C 84.78462 53.92526 84.50294 87.44476 84.50294 87.44476 L 76.05265 87.44476 C 76.05265 87.44476 77.17936 64.06561 73.79924 62.09387 C 70.41912 60.12214 47.32165 60.12214 45.06824 62.93891 C 42.81483 65.75567 39.99806 87.44476 39.99806 87.44476 L 32.11112 86.88141 z "
   style="fill-rule:evenodd;stroke:#000000;stroke-width:1;"
   id="path861" /><path
   d="M 32.95615 35.33461 C 32.95615 35.33461 31.82944 23.22252 31.82944 22.65916 C 31.82944 22.09581 29.57603 13.9272 29.57603 13.9272 L 34.92789 13.64552 L 36.61794 27.16599 L 41.68812 19.8424 L 45.34991 23.78587 L 37.46297 35.33461 L 32.95615 35.33461 z "
   style="fill-rule:evenodd;stroke:#000000;stroke-width:1;"
   id="path862" /><ellipse
   cx="82.9537277"
   cy="49.2775993"
   rx="3.52095795"
   ry="3.52095795"
   style="fill-rule:evenodd;stroke:#000000;stroke-width:1;"
   id="path863" /></g></svg>
