<svg enable-background="new 0 0 579.997 579.997" height="579.997" viewBox="0 0 579.997 579.997" width="579.997" xmlns="http://www.w3.org/2000/svg">
<path d="m132.746 290.713c-.054-.542-.1-1.083-.134-1.623.206 3.533.203 3.185.134 1.623z" fill="param(fill) #000" fill-opacity="255" stroke="param(outline) #FFF" stroke-opacity="255" stroke-width="param(outline-width) 0"/>
<path d="m535.653 523.704c-4.89-7.799-11.77-14.093-18.49-17.542-3.059-1.497-5.964-2.998-9.018-4.499-2.752-1.497-5.811-2.398-9.018-2.994l-1.683-.302c-1.223-.451-2.445-1.353-3.059-2.398-1.069-1.65-1.985-3.296-2.901-5.1-.92-2.101-2.296-4.192-3.518-5.996-1.679-2.398-3.055-4.648-4.431-7.195-3.979-7.493-7.493-15.293-10.245-23.232-2.751-7.8-4.731-16.046-6.107-24.138-.158-1.502-.465-2.85-.767-4.347-.307-2.101-1.223-3.899-2.445-5.698-.915-1.199-2.292-2.102-3.36-2.399-4.588-1.05-9.324-2.249-14.373-3.3-3.82-.897-7.79-2.097-11.611-3.746-1.375-.447-2.752-1.349-3.979-2.25-3.514-2.548-5.806-6.146-6.414-9.594-1.837-9.144-3.975-18.139-6.573-27.435-.921-3.449-1.989-6.591-3.207-9.892-.614-1.348-1.228-2.696-2.144-3.896l-2.143-3.598c2.604.446 5.197-.307 7.033-2.249 1.836-1.953 2.752-4.352 2.752-6.898 0-1.199-.154-2.398-.609-3.449-2.752-7.642-7.642-14.242-14.065-19.188-7.642-5.997-16.199-10.794-25.37-14.54-7.949-3.301-16.204-5.848-24.455-7.498-4.736-1.048-9.626-1.947-14.674-2.847-10.85-2.099-22.006-3.149-32.706-3.449-13.907-.448-27.971-1.799-42.031-3.897-8.711-1.499-17.117-4.046-24.913-8.095-14.825-7.347-27.053-18.889-35.306-33.131-2.141-3.749-3.974-7.795-4.893-11.844-3.362-13.492-6.419-26.983-9.476-41.525-1.375-6.596-3.209-13.191-5.35-19.787-.916-2.398-1.987-4.798-3.21-7.196l-1.069-2.099c4.279-1.199 8.711-1.949 13.144-2.099 2.599 0 5.046-.45 7.644-.899 1.069-.3 2.139-.75 3.057-1.351l1.987-1.199 2.292-1.348 2.293-1.351 1.681-.748c-.307-.899-.918-1.801-1.529-2.55-2.902-2.849-6.57-5.248-10.544-6.744-6.42-2.55-13.299-4.049-20.33-4.648h-1.833c-2.445-5.097-6.42-9.294-11.31-12.144l-1.987-1.049c0-.45 0-.898 0-1.35 0-6.297 1.223-12.441 3.668-18.289 1.833-4.049 3.82-7.946 6.114-11.844 1.374-2.099 2.445-4.497 3.515-6.896 2.294-6.747 3.516-13.792 3.516-20.838 0-5.997-.765-11.842-2.598-17.541-.308-1.199-.918-2.096-1.987-2.696-1.071-.6-2.294-1.051-3.363-1.502-1.069-.448-2.141-.448-3.363-.448-1.068.151-1.986.899-2.291 1.95-.611 1.048-1.069 2.398-1.683 3.746-.305.899-.458 1.95-.305 2.998.458 3.598.918 7.047 1.376 10.194 0 1.05 0 1.949 0 2.998 0 7.646-2.905 14.99-7.948 20.689l-.916 1.199c-4.435-2.25-8.713-4.648-12.841-7.498l-6.112-3.896c-.611-.6-1.529-.901-2.445-.901-2.141 0-4.128 1.501-4.433 3.598-.307 1.502 0 2.998 1.069 4.197 4.739 6.147 10.547 11.396 17.271 15.593l1.376.748-.611 3.749-1.222 7.345-1.987 8.996-.458 1.048h-5.962c-4.738.301-9.476 1.2-13.756 2.85-5.959 2.248-11.768 5.098-17.425 8.396-4.278 2.698-9.018 4.646-12.073 5.545-3.975 1.051-7.948 1.95-12.074 3.149-3.821.899-7.642 2.247-8.864 2.847-2.294 1.051-4.738 2.102-7.795 3.449-1.683.749-3.517 1.349-5.35 2.099-1.681.449-3.21 1.799-4.128 3.298-.763 1.351-.916 2.998-.151 4.349.765 1.799 2.291 2.998 4.125 3.897 1.987.899 3.517 2.398 4.433 4.347.765 1.35 1.683 2.698 2.752 3.748 1.528 1.349 3.362 2.548 5.35 3.447 4.278 1.949 8.711 3.598 13.297 4.648 3.517.899 7.184 1.348 10.851 1.348h3.21c6.573 7.498 14.675 13.494 23.844 17.54l2.447 1.051c1.681 6.596 2.444 13.191 2.444 19.938 0 2.099 0 4.047-.153 5.996-.458 4.498-.61 8.994-.765 13.792 0 5.396-.457 10.793-1.068 16.341-.918 7.645-1.072 15.29-.307 30.133.05 1.027.1 2.065.134 2.822.184 1.864.498 3.748 1.088 5.721 2.447 9.745 5.657 19.186 9.171 28.185l1.529 4.044c-8.713-2.547-18.035-4.192-27.359-4.494l-7.795-.303h-6.112-7.338-6.112l-8.253-.297-5.196-.298-9.629-.302c-1.225 0-2.599.152-3.67.45-2.599.6-5.044 1.646-7.184 3.147-.763.45-1.527.748-2.292.896-1.223.303-2.292.604-3.363 1.051-1.987 1.051-3.515 2.398-4.736 4.202-1.529 2.547-2.141 5.694-1.529 8.692.304 2.547 1.222 5.243 2.444 7.642 1.529 2.854 2.906 5.55 4.586 8.246 3.21 5.55 6.727 10.793 10.547 16.194 4.279 5.699 8.406 11.389 12.99 16.938 5.503 6.749 11.311 13.341 20.939 23.083 3.363 3.598 6.725 7.047 7.949 8.246 2.291 2.398 4.89 4.5 7.642 6.299 3.514 2.25 7.184 4.197 11.005 5.996 2.902 1.353 5.959 2.398 8.864 3.295 1.681.604 3.514.754 5.501.604 2.294-.148 4.432-.302 6.572-.45 1.834 0 3.517-.154 5.197-.303.458-.148 1.069-.297 1.376-.446 1.529-.753 3.056-1.649 4.432-2.398.765-.45 1.223-1.348 1.223-2.101 0-.6-.153-1.199-.611-1.646-.458-.604-1.069-1.353-1.376-1.952-1.376-3.147-3.667-5.699-6.266-7.795-7.795-5.844-16.506-10.492-25.677-14.09-2.294-.901-4.739-1.501-7.185-1.803l-3.209-.596-.153-.455-12.688-23.226-12.38-23.539-2.141-3.746c3.67.753 7.184 1.646 13.145 3.301 3.975 1.199 7.795 2.398 11.616 3.448l5.197 1.646 5.808 1.799 4.128 1.354 4.125 1.199 8.406 2.244c9.782 2.85 20.022 3.9 30.109 3.449 3.21-.302 6.269-1.051 9.018-2.398l2.294-.896c7.488 3.295 15.13 6.591 22.926 9.44 4.585 1.799 9.475 3.146 16.506 5.099 6.726 1.646 13.451 3.147 18.495 4.5 4.278 1.046 8.711 1.496 12.992 1.794 7.182.302 14.519.901 21.549 1.501 18.953 1.8 37.598 6.447 55.024 13.644 6.266 2.547 11.922 6.145 16.813 10.793 9.934 9.144 20.02 17.989 30.414 25.933 6.419 5.1 13.754 8.994 21.554 11.542 5.196 1.804 10.695 3.003 16.199 3.751 3.36.6 6.874.451 10.394 0 2.747-.6 5.499-.897 7.488-1.353 1.683-.149 3.059-.595 4.583-1.349.307-.148.613-.148 1.069-.148.767 0 1.533.446 2.143 1.348 7.943 12.598 17.119 24.441 32.25 40.929 4.43 4.644 8.711 9.44 12.531 13.643 12.992 14.093 31.334 21.884 50.592 21.438 1.984 0 3.975-1.05 4.891-2.85.307-.748.46-1.501.46-2.096-.001-.905-.309-1.807-.615-2.402z" fill="param(fill) #000" fill-opacity="255" stroke="param(outline) #FFF" stroke-opacity="255" stroke-width="param(outline-width) 0"/>
</svg>
