<?xml version="1.0" encoding="UTF-8" standalone="no"?>
<!DOCTYPE svg PUBLIC "-//W3C//DTD SVG 1.0//EN"
"http://www.w3.org/TR/2001/REC-SVG-20010904/DTD/svg10.dtd">
<!-- Created with Sodipodi ("http://www.sodipodi.com/") -->
<svg
   xmlns="http://www.w3.org/2000/svg"
   xmlns:xlink="http://www.w3.org/1999/xlink"
   version="1.0"
   x="0"
   y="0"
   width="109.13385"
   height="109.13385"
   id="svg602"
   xml:space="preserve"><g
   transform="translate(0.189977,-3.814697e-6)"
   style="font-size:12;"
   id="g608"><path
   d="M 15.78666 85.45386 L 22.30723 74.12865 C 22.30723 74.12865 42.89854 78.93329 45.64404 79.27647 C 49.76229 79.96284 59.71476 80.64923 63.14663 79.61966 C 70.0104 77.21735 75.50142 74.81503 76.18779 67.26489 C 74.47185 60.40112 68.98084 61.43069 63.14663 59.71475 C 62.46025 58.68519 54.22374 58.68518 45.64404 56.62605 C 27.11186 51.82141 24.36636 50.44867 17.15941 41.86896 C 15.10028 39.12346 15.78666 29.51418 19.21854 27.11186 C 25.73912 20.93448 36.72113 17.84578 45.98722 17.15941 C 50.10548 16.47305 59.71474 16.12986 65.54895 17.5026 C 74.47185 18.53216 87.85619 22.30723 87.85619 22.30723 L 82.70836 34.662 C 82.70836 34.662 66.23533 30.54375 63.14663 30.54375 C 59.37156 29.17099 49.41909 28.14144 45.30085 29.51418 C 41.52578 30.20056 34.31882 31.9165 34.66201 37.06432 C 35.0052 41.52578 40.83939 43.92809 45.98722 43.92809 C 48.73273 43.92809 63.83301 44.95765 66.9217 46.33041 C 70.0104 47.70316 88.54257 51.13504 90.60169 58.68518 C 94.37676 66.92169 95.06315 79.27647 81.6788 86.14024 C 75.15821 89.91531 64.51939 91.97444 57.65562 91.97444 C 50.79185 91.97444 30.88694 90.2585 28.14143 89.57212 C 25.39593 88.88574 16.47303 86.48343 15.78666 85.45386 z "
   style="fill-rule:evenodd;stroke:#000000;stroke-width:1;"
   id="path606" /><rect
   width="18.1889725"
   height="90.6016922"
   x="45.3008461"
   y="9.26607704"
   style="fill-rule:evenodd;stroke:#000000;"
   id="rect607" /></g></svg>
