<?xml version="1.0" encoding="utf-8"?>
<!-- Generator: Adobe Illustrator 16.0.0, SVG Export Plug-In . SVG Version: 6.00 Build 0)  -->
<!DOCTYPE svg PUBLIC "-//W3C//DTD SVG 1.1//EN" "http://www.w3.org/Graphics/SVG/1.1/DTD/svg11.dtd">
<svg version="1.1" id="svg602" xmlns="http://www.w3.org/2000/svg" xmlns:xlink="http://www.w3.org/1999/xlink" x="0px" y="0px"
	 width="579.997px" height="579.997px" viewBox="-235.433 -235.433 579.997 579.997"
	 enable-background="new -235.433 -235.433 579.997 579.997" xml:space="preserve">
<path fill="param(fill) #000" stroke="param(outline) #FFF" stroke-width="param(outline-width) 0" d="M242.743,74.804c-8.929-31.852-70.883-49.511-104.2-59.008
	c-8.628-2.46-15.443-4.402-18.604-5.807c-3.264-1.451-8.953-2.817-16.074-4.077v-71.658c22.621,2.583,94.586,20.534,95.367,20.729
	l2.141,0.535l28.355-68.061l-2.782-0.785c-0.688-0.194-69.212-19.432-114.647-24.701c-2.714-0.635-5.545-1.183-8.434-1.668v-40.601
	H5.461v40.978c-54.789,5.083-104.099,23.996-132.813,51.111c-7.655,5.472-13.519,17.862-16.102,34.044
	c-2.97,18.609-0.864,37.178,5.121,45.157l0.088,0.11c36.791,43.8,50.697,51.338,143.706,75.546v111.314
	c-24.457-4.524-113.79-25.35-114.764-25.577l-1.854-0.433l-35.181,61.099l0.883,1.323c0.906,1.357,2.791,4.184,29.1,12.247
	c13.851,4.245,28.999,8.246,35.768,9.94c8.552,2.136,48.006,6.096,86.049,8.967v43.902h98.403v-42.829
	c31.264-4.13,67.268-13.617,91.935-27.879C263.093,184.173,264.188,121.768,242.743,74.804z M103.864,84.793
	c5.471,1.365,10.814,2.355,16.021,3.317c20.964,3.87,37.547,6.93,43.932,31.769c-3.332,34.655-26.771,46.965-59.953,58.9V84.793z
	 M5.461-2.781c-24.134-1.735-47.976-13.644-49.433-32.575c-1.125-16.869,15.505-28.788,49.433-35.451V-2.781z"/>
</svg>
