<?xml version="1.0" encoding="UTF-8"?>
<svg width="580" height="580" enable-background="new 0 0 579.997 579.997" viewBox="0 0 580 580" xmlns="http://www.w3.org/2000/svg">
 <path d="m48.741 308.75c0-1.601 80.855 110.2 193.2 110.2s170.56-52.08 187.21-63.763l76.11 52.553v-210.27l-77.471 57.262c-17.322-11.545-46.426-71.053-185.85-66.35-125.94 3.204-191.77 123.57-193.2 120.37z" fill="param(fill) #000" fill-opacity="255" stroke="param(outline) #FFF" stroke-opacity="255" stroke-width="param(outline-width) 0"/>
 <path d="m170.5 275.64c3e-3 9.807-7.941 17.761-17.748 17.764-9.807 5e-3 -17.758-7.942-17.763-17.748v-0.016c-5e-3 -9.804 7.941-17.758 17.748-17.76 9.806-6e-3 17.758 7.941 17.763 17.748v0.012z" fill="param(fill) #000"/>
</svg>
