<svg enable-background="new 0 0 579.997 579.997" height="579.997" viewBox="0 0 579.997 579.997" width="579.997" xmlns="http://www.w3.org/2000/svg">
<path d="m232.579 71.326c-2.586 10.068-4.073 23.513-5.511 36.514-2.61 23.602-5.569 50.353-14.917 50.643-12.017 0-16.714-36.309-20.144-62.82-1.155-8.929-2.246-17.362-3.519-24.171l-2.488.464-2.411-.771c-3.806 11.907-5.843 26.804-7.813 41.209-3.098 22.658-6.302 46.088-15.848 46.089-9.426-.291-12.385-27.041-14.995-50.642-1.438-13.002-2.925-26.446-5.512-36.516l-4.93.12c-.736 3.581-18.03 88.099-18.03 123.57 0 18.31 11.618 37.836 22.854 56.719 11.262 18.926 22.907 38.496 22.907 56.631 0 16.751-.59 30.486-1.214 45.029-.766 17.836-1.633 38.051-1.633 68.315 0 29.445 2.313 58.973 6.349 81.011 5.094 27.817 12.174 41.34 21.646 41.34 9.351 0 16.634-13.677 21.646-40.649 4.036-21.716 6.351-50.997 6.351-80.337 0-30.312-1.705-50.969-3.21-69.194-1.224-14.817-2.38-28.813-2.38-45.515 0-18.135 11.646-37.705 22.907-56.631 11.235-18.883 22.854-38.409 22.854-56.719 0-35.472-17.294-119.989-18.03-123.57z" fill="param(fill) #000" fill-opacity="255" stroke="param(outline) #FFF" stroke-opacity="255" stroke-width="param(outline-width) 0"/>
<path d="m443.7 386.017c-.354-13.346-.386-26.931-.416-40.069-.063-27.208-.127-55.34-3.063-83.077-1.092-69.589-2.185-139.179-3.271-208.765l-.042-2.7-2.692.217c-2.192.177-4.399.278-6.737.386-12.732.584-27.163 1.247-39.458 15.364-13.557 15.566-22.399 45.661-27.031 92.004l-.019.189.01.189c2.515 50.214 8.313 89.633 28.335 118.523-2.772 28.047-1.429 58.166-.128 87.305.432 9.683.84 18.829 1.104 27.859.147 41.13 2.9 78.9 7.75 106.354 5.658 32.032 13.415 47.604 23.713 47.606.001 0 .002 0 .003 0 .465 0 .938-.035 1.407-.103 2.863 0 5.474-1.2 7.758-3.567 15.73-16.301 15.091-92.86 12.777-157.715z" fill="param(fill) #000" fill-opacity="255" stroke="param(outline) #FFF" stroke-opacity="255" stroke-width="param(outline-width) 0"/>
</svg>
