<?xml version="1.0" encoding="utf-8"?>
<!-- Generator: Adobe Illustrator 16.0.0, SVG Export Plug-In . SVG Version: 6.00 Build 0)  -->
<!DOCTYPE svg PUBLIC "-//W3C//DTD SVG 1.1//EN" "http://www.w3.org/Graphics/SVG/1.1/DTD/svg11.dtd">
<svg version="1.1"
	 id="svg602" xmlns:dc="http://purl.org/dc/elements/1.1/" xmlns:cc="http://web.resource.org/cc/" xmlns:rdf="http://www.w3.org/1999/02/22-rdf-syntax-ns#" xmlns:svg="http://www.w3.org/2000/svg" xmlns:sodipodi="http://inkscape.sourceforge.net/DTD/sodipodi-0.dtd" xmlns:inkscape="http://www.inkscape.org/namespaces/inkscape" sodipodi:docbase="/usr/share/qgis/svg/Garmin_Symbols" sodipodi:version="0.32" sodipodi:docname="gas.svg" inkscape:version="0.43"
	 xmlns="http://www.w3.org/2000/svg" xmlns:xlink="http://www.w3.org/1999/xlink" x="0px" y="0px" width="579.997px"
	 height="579.997px" viewBox="0 0 579.997 579.997" enable-background="new 0 0 579.997 579.997" xml:space="preserve">
<sodipodi:namedview  inkscape:cy="54.566925" inkscape:cx="54.566925" borderopacity="1.0" pagecolor="#ffffff" bordercolor="#666666" inkscape:zoom="3.6927131" id="base" inkscape:current-layer="g752" inkscape:window-y="36" inkscape:window-x="0" inkscape:pageshadow="2" inkscape:window-width="1024" inkscape:pageopacity="0.0" inkscape:window-height="683">
	</sodipodi:namedview>
<path fill="#FFFB3D" stroke="#1EFF31" stroke-width="4.4444" d="M474.745,442.244c-0.019-0.663-0.038-1.254-0.039-1.77
	c-0.145-51.109-47.358-80.054-71.962-91.67l-1.613-146.978l-69.726-58.711v-96.91h-226.23v487.584h226.23v-1.215
	c0.376,0.001,0.762,0.008,1.136,0.008c59.265,0,99.231-11.302,122.063-34.484C475.716,476.661,475.01,451.657,474.745,442.244z
	 M289.152,93.61v105.627H147.417V93.61H289.152z M423.995,467.955c-8.114,8.24-30.886,21.834-92.59,21.665V199.278l26.983,22.721
	l1.72,156.604l14.412,4.888c0.571,0.194,57.122,20.399,57.225,57.102c0.003,0.829,0.026,1.789,0.057,2.864
	C431.994,450.254,432.256,459.565,423.995,467.955z"/>
</svg>
