<svg enable-background="new 0 0 579.997 579.997" height="579.997" viewBox="0 0 579.997 579.997" width="579.997" xmlns="http://www.w3.org/2000/svg">
<path d="m452.462 354.12c-41.711-17.62-96.268-27.667-154.382-28.521v-287.275h-20.46v287.352c-56.504 1.275-109.403 11.259-150.086 28.444-47.759 20.174-74.061 48.591-74.061 80.018 0 31.426 26.302 59.844 74.061 80.018 43.641 18.435 101.338 28.588 162.464 28.588s118.824-10.153 162.465-28.588c47.759-20.174 74.062-48.592 74.062-80.018-.001-31.428-26.304-59.845-74.063-80.018zm-162.464 158.529c-121.653 0-206.432-41.377-206.432-78.512 0-35.861 79.068-75.675 194.054-78.363v89.535h20.461v-89.615c117.307 1.783 198.35 42.138 198.35 78.443-.001 37.135-84.779 78.512-206.433 78.512z" fill="param(fill) #000" fill-opacity="255" stroke="param(outline) #FFF" stroke-opacity="255" stroke-width="param(outline-width) 0"/>
<path d="m299.49 37.254v134.089l168.947-67.046z" fill="param(fill) #000" fill-opacity="255" stroke="param(outline) #FFF" stroke-opacity="255" stroke-width="param(outline-width) 0"/>
</svg>
