<svg enable-background="new 0 0 579.997 579.997" height="579.997" viewBox="0 0 579.997 579.997" width="579.997" xmlns="http://www.w3.org/2000/svg">
<path d="m486.968 249.016c.256.463-394.516.303-393.939 0 0-106.551 88.186-192.93 196.97-192.93 108.781 0 196.969 86.379 196.969 192.93z" fill="param(fill) #000" opacity=".25"/>
<path d="m502.655 259.913l-3.586-3.336c.065-.104.135-.196.198-.305l1.98-3.358v-3.897c0-114.255-94.766-207.208-211.249-207.208-116.482 0-211.249 92.954-211.249 207.208v1.736l.415 1.685c.262 1.062.778 2.588 1.738 4.162l-3.562 3.313 146.401 157.35v121.314h136.695v-125.811zm-284.325 3.637l37.389 144.136h-2.63l.97-.902-133.38-143.354c12.123.027 27.656.053 45.471.074 15.804.018 33.504.034 52.18.046zm67.692 144.136l-37.385-144.118c23.515.012 47.758.018 71.124.018 4.977 0 9.872 0 14.69-.001l-37.381 144.102h-11.048zm150.15-144.168c8.62-.013 16.385-.027 23.104-.045l-131.023 140.824 36.504-140.72c27.871-.01 52.104-.03 71.415-.059zm-146.173-193.152c95.873 0 174.733 72.583 182.124 164.511-24.382.095-78.661.15-152.361.15-90.996 0-178.356-.083-211.884-.189 7.416-91.903 86.266-164.472 182.121-164.472zm41.107 438.879h-78.031v-72.227h78.031z" fill="param(fill) #000" fill-opacity="255" stroke="param(outline) #FFF" stroke-opacity="255" stroke-width="param(outline-width) 0"/>
</svg>
