<?xml version="1.0" encoding="utf-8"?>
<!-- Generator: Adobe Illustrator 16.0.0, SVG Export Plug-In . SVG Version: 6.00 Build 0)  -->
<!DOCTYPE svg PUBLIC "-//W3C//DTD SVG 1.1//EN" "http://www.w3.org/Graphics/SVG/1.1/DTD/svg11.dtd">
<svg version="1.1" id="svg644" xmlns="http://www.w3.org/2000/svg" xmlns:xlink="http://www.w3.org/1999/xlink" x="0px" y="0px"
	 width="579.997px" height="579.997px" viewBox="0 0 579.997 579.997" enable-background="new 0 0 579.997 579.997"
	 xml:space="preserve">
<path fill="param(fill) #000" stroke="param(outline) #FFF" stroke-width="param(outline-width) 0" d="M528.901,139.101c-9.126-13.34-33.822-24.771-71.419-33.056
	c-41.506-9.146-96.509-14.283-163.39-15.264c-9.728-0.48-19.745-0.725-29.772-0.725c-46.731,0-94.885,5.201-135.591,14.646
	c-39.076,9.066-66.344,21.104-74.853,33.04c-21.535,26.169-28.923,98.123-6.516,141.842l0.997,1.945l104.128-29.979l-1.158-2.755
	c-5.914-14.064-19.028-53.017-8.836-64.208c9.413-10.331,90.746-18.499,143.178-21.473c1.898,0.021,33.947,0.398,66.807,2.785
	c60.462,4.392,71.054,11.636,72.802,14.546c8.046,13.396-2.723,54.929-7.551,69.801l-0.856,2.637l116.726,32.434l0.832-2.326
	C552.104,233.542,549.748,171.713,528.901,139.101z"/>
<path fill="param(fill) #000" stroke="param(outline) #FFF" stroke-width="param(outline-width) 0" d="M387.214,252.36v-69.49h-33.401v60.773
	c-26.414-5.868-50.742-8.885-67.604-8.885c-16.301,0-35.65,2.414-55.558,6.744V182.87h-33.398v67.592
	c-2.308,0.74-4.606,1.498-6.888,2.283c-27.701,9.536-66.307,26.789-92.922,54.842C53.809,354.184,60.74,441.446,63.017,470.121
	c0.276,3.473,0.536,6.753,0.463,7.452c0.087-0.826,1.028-2.021,2.504-2.021v5.311c378.671,0,434.566,1.8,442.791,2.31l2.844,6.768
	l1.604-8.775c0.053-0.287,5.265-29.165,5.784-63.893c0.701-46.921-7.023-81.655-22.96-103.238
	C475.745,286.533,431.66,265.739,387.214,252.36z M290.146,437.078c-65.296,0-118.418-31.104-118.418-69.338
	c0-38.23,53.122-69.334,118.418-69.334c65.295,0,118.416,31.104,118.416,69.334C408.562,405.973,355.441,437.078,290.146,437.078z"
	/>
<path fill="param(fill) #000" stroke="param(outline) #FFF" stroke-width="param(outline-width) 0" d="M337.238,335.598c-12.666-7.618-29.449-11.813-47.26-11.813
	s-34.594,4.195-47.26,11.813c-13.087,7.872-20.294,18.481-20.294,29.875s7.207,22.001,20.295,29.87
	c12.664,7.615,29.447,11.809,47.259,11.809s34.595-4.193,47.259-11.809c13.088-7.869,20.295-18.477,20.295-29.87
	S350.325,343.47,337.238,335.598z"/>
</svg>
