<svg enable-background="new 0 0 579.997 579.997" height="579.997" viewBox="0 0 579.997 579.997" width="579.997" xmlns="http://www.w3.org/2000/svg">
<path d="m528.901 139.101c-9.126-13.34-33.822-24.771-71.419-33.056-41.506-9.146-96.509-14.283-163.39-15.264-9.728-.48-19.745-.725-29.772-.725-46.731 0-94.885 5.201-135.591 14.646-39.076 9.066-66.344 21.104-74.853 33.04-21.535 26.169-28.923 98.123-6.516 141.842l.997 1.945 104.128-29.979-1.158-2.755c-5.914-14.064-19.028-53.017-8.836-64.208 9.413-10.331 90.746-18.499 143.178-21.473 1.898.021 33.947.398 66.807 2.785 60.462 4.392 71.054 11.636 72.802 14.546 8.046 13.396-2.723 54.929-7.551 69.801l-.856 2.637 116.726 32.434.832-2.326c17.675-49.449 15.319-111.278-5.528-143.89z" fill="param(fill) #000" fill-opacity="255" stroke="param(outline) #FFF" stroke-opacity="255" stroke-width="param(outline-width) 0"/>
<path d="m387.214 252.36v-69.49h-33.401v60.773c-26.414-5.868-50.742-8.885-67.604-8.885-16.301 0-35.65 2.414-55.558 6.744v-58.632h-33.398v67.592c-2.308.74-4.606 1.498-6.888 2.283-27.701 9.536-66.307 26.789-92.922 54.842-43.634 46.597-36.703 133.859-34.426 162.534.276 3.473.536 6.753.463 7.452.087-.826 1.028-2.021 2.504-2.021v5.311c378.671 0 434.566 1.8 442.791 2.31l2.844 6.768 1.604-8.775c.053-.287 5.265-29.165 5.784-63.893.701-46.921-7.023-81.655-22.96-103.238-20.302-27.502-64.387-48.296-108.833-61.675zm-97.068 184.718c-65.296 0-118.418-31.104-118.418-69.338 0-38.23 53.122-69.334 118.418-69.334 65.295 0 118.416 31.104 118.416 69.334 0 38.233-53.121 69.338-118.416 69.338z" fill="param(fill) #000" fill-opacity="255" stroke="param(outline) #FFF" stroke-opacity="255" stroke-width="param(outline-width) 0"/>
<path d="m337.238 335.598c-12.666-7.618-29.449-11.813-47.26-11.813s-34.594 4.195-47.26 11.813c-13.087 7.872-20.294 18.481-20.294 29.875s7.207 22.001 20.295 29.87c12.664 7.615 29.447 11.809 47.259 11.809s34.595-4.193 47.259-11.809c13.088-7.869 20.295-18.477 20.295-29.87s-7.207-22.003-20.294-29.875z" fill="param(fill) #000" fill-opacity="255" stroke="param(outline) #FFF" stroke-opacity="255" stroke-width="param(outline-width) 0"/>
</svg>
