<?xml version="1.0" encoding="utf-8"?>
<!-- Generator: Adobe Illustrator 16.0.0, SVG Export Plug-In . SVG Version: 6.00 Build 0)  -->
<!DOCTYPE svg PUBLIC "-//W3C//DTD SVG 1.1//EN" "http://www.w3.org/Graphics/SVG/1.1/DTD/svg11.dtd">
<svg version="1.1"
	 id="svg602" xmlns:dc="http://purl.org/dc/elements/1.1/" xmlns:cc="http://web.resource.org/cc/" xmlns:rdf="http://www.w3.org/1999/02/22-rdf-syntax-ns#" xmlns:svg="http://www.w3.org/2000/svg" xmlns:sodipodi="http://inkscape.sourceforge.net/DTD/sodipodi-0.dtd" xmlns:inkscape="http://www.inkscape.org/namespaces/inkscape" sodipodi:docbase="/usr/share/qgis/svg/custom" sodipodi:version="0.32" sodipodi:docname="plane.svg" inkscape:version="0.43"
	 xmlns="http://www.w3.org/2000/svg" xmlns:xlink="http://www.w3.org/1999/xlink" x="0px" y="0px" width="579.997px"
	 height="579.997px" viewBox="0 0 579.997 579.997" enable-background="new 0 0 579.997 579.997" xml:space="preserve">
<sodipodi:namedview  inkscape:cy="54.566925" inkscape:cx="54.566925" borderopacity="1.0" pagecolor="#ffffff" bordercolor="#666666" inkscape:zoom="3.6927131" id="base" inkscape:current-layer="g841" inkscape:window-y="36" inkscape:window-x="0" inkscape:pageshadow="2" inkscape:window-width="1024" inkscape:pageopacity="0.0" inkscape:window-height="683">
	</sodipodi:namedview>
<path fill="#FFFB3D" stroke="#1EFF31" stroke-width="4.4444" d="M548.001,366.048l-92.479-58.519v-14.999
	c0-14.438-10.072-26.144-22.484-26.144c-8.735,0-16.299,5.79-20.024,14.243l-100.531-63.612V69.522
	c0-14.439-10.062-26.148-22.484-26.148c-12.418,0-22.485,11.709-22.485,26.148v147.496l-101.74,64.379
	c-3.597-8.869-11.354-15.01-20.349-15.01c-12.418,0-22.484,11.705-22.484,26.144v15.97l-90.944,57.548
	c-6.506,4.117-9.509,12.037-7.365,19.433s8.915,12.484,16.615,12.484h226.268v67.148l-90.849,57.49
	c-2.858,1.808-4.178,5.287-3.236,8.535c0.941,3.249,3.917,5.484,7.299,5.484h218.546c3.381,0,6.357-2.235,7.299-5.484
	c0.941-3.248-0.378-6.728-3.236-8.535l-90.853-57.49v-67.148h226.269c7.699,0,14.472-5.089,16.615-12.484
	S554.507,370.166,548.001,366.048z"/>
</svg>
