<svg enable-background="new -235.433 -235.433 579.997 579.997" height="579.997" viewBox="-235.433 -235.433 579.997 579.997" width="579.997" xmlns="http://www.w3.org/2000/svg">
<path d="m-176.61-176.61v462.354h462.354v-462.354zm435 435h-407.647v-407.647h407.647z" fill="param(fill) #000" fill-opacity="255" stroke="param(outline) #FFF" stroke-opacity="255" stroke-width="param(outline-width) 0"/>
<path d="m39.196 160.123c-11.713 0-20.863 4.245-27.451 12.741-5.857 6.877-8.784 13.95-8.784 21.23s2.562 14.354 7.687 21.231c7.32 8.49 16.835 12.74 28.549 12.74 12.445 0 21.958-4.25 28.549-12.74 5.859-6.474 8.786-13.548 8.786-21.231s-2.927-14.762-8.786-21.23c-7.324-8.496-16.839-12.741-28.55-12.741z" fill="param(fill) #000" fill-opacity="255" stroke="param(outline) #FFF" stroke-opacity="255" stroke-width="param(outline-width) 0"/>
<path d="m56.763-61.906c35.14 0 52.707 11.93 52.707 35.792 0 11.728-4.757 22.242-14.274 31.544-4.396 4.449-16.104 13.346-35.14 26.692-33.671 23.457-50.509 55.611-50.509 96.455v4.245h61.496c2.195-21.433 10.61-39.629 25.251-54.593 5.859-6.07 19.031-15.775 39.53-29.122 17.572-11.324 29.281-21.433 35.135-30.332 6.591-11.324 9.889-27.5 9.889-48.53 0-25.075-9.522-45.497-28.554-61.27-21.958-18.604-54.536-27.904-97.726-27.904-56.366 0-98.458 13.547-126.277 40.642l34.042 43.679c27.817-18.197 59.293-27.298 94.43-27.298z" fill="param(fill) #000" fill-opacity="255" stroke="param(outline) #FFF" stroke-opacity="255" stroke-width="param(outline-width) 0"/>
</svg>
