<svg enable-background="new 0 0 579.997 579.997" height="579.997" viewBox="0 0 579.997 579.997" width="579.997" xmlns="http://www.w3.org/2000/svg">
<path d="m200.219 415.273l189.988-179.146c0 0 39.525 102.376 11.1 139.92-1.923 2.542-45.411 40.047-45.411 40.047z" fill="param(fill) #000" opacity=".25"/>
<path d="m484.083 383.822l-50.021.337c11.641-23.316 12.918-55.805 3.945-98.751-6.787-32.485-17.251-59.759-17.693-60.904l-17.301-44.811-124.717 117.6-111.748-124.894-55.283 49.471 113.04 126.334-39.917 37.638-88.91.6.436 64.545 388.605-2.619zm-109.257-85.213c7.024 33.62 4.365 50.992 1.491 56.732-5.027 4.605-18.508 16.411-32.363 28.416l-62.916-.332 93.143-87.827c.219.998.434 2.001.645 3.011z" fill="param(fill) #000" fill-opacity="255" stroke="param(outline) #FFF" stroke-opacity="255" stroke-width="param(outline-width) 0"/>
</svg>
