<?xml version="1.0" encoding="UTF-8" standalone="no"?>
<!DOCTYPE svg PUBLIC "-//W3C//DTD SVG 1.0//EN"
"http://www.w3.org/TR/2001/REC-SVG-20010904/DTD/svg10.dtd">
<!-- Created with Sodipodi ("http://www.sodipodi.com/") -->
<svg
   xmlns="http://www.w3.org/2000/svg"
   xmlns:xlink="http://www.w3.org/1999/xlink"
   version="1.0"
   x="0"
   y="0"
   width="109.13385"
   height="109.13385"
   id="svg644"
   xml:space="preserve"><g
   transform="matrix(0.154958,0,0,0.156539,-3.084763,-18.40856)"
   style="font-size:12;"
   id="g815"><path
   d="M 372.4783 698.9125 C 394.783 698.9125 410.1203 696.2448 427.665 683.8819 C 432.368 680.5679 447.2477 670.0646 446.9128 663.5879 C 446.7483 660.4064 452.8763 654.0337 455.453 649.4442 C 460.7691 639.9757 466.0246 621.7004 466.7558 610.8598 C 468.441 585.8761 468.6902 573.8735 480.991 557.2472 C 485.4381 554.1006 500.6211 543.7622 502.5976 541.825 C 510.1539 534.4189 523.183 529.674 531.1301 522.232 C 561.9151 493.4037 553.7417 442.4778 553.7417 403.6067 C 553.7417 398.2467 550.2135 380.2308 546.2531 376.252 C 532.1254 362.0583 518.1502 348.8393 500.596 337.7049 C 482.884 326.4704 475.6617 320.8021 443.255 313.3414 C 433.3642 310.2647 325.0733 309.3257 302.4175 313.3414 C 270.0107 320.8021 262.7884 326.4704 245.0764 337.7049 C 227.5223 348.8393 213.547 362.0583 199.4193 376.252 C 195.4589 380.2308 191.9307 398.2467 191.9307 403.6067 C 191.9307 442.4778 183.7574 493.4037 214.5423 522.232 C 222.4894 529.674 235.5186 534.4189 243.0748 541.825 C 245.0513 543.7622 260.2343 554.1006 264.6814 557.2472 C 276.9822 573.8735 277.2314 585.8761 278.9166 610.8598 C 279.6479 621.7004 284.9033 639.9757 290.2194 649.4442 C 292.7961 654.0337 298.9242 660.4064 298.7597 663.5879 C 298.4247 670.0646 313.3044 680.5679 318.0074 683.8819 C 335.5521 696.2448 350.8895 698.9125 373.1942 698.9125 "
   style="fill-rule:evenodd;stroke-width:0.715095;"
   id="path796" /><g
   transform="translate(-4.620323,127.5001)"
   id="g804"><path
   d="M 297.5003 587.3617 C 172.5002 687.3618 162.5002 722.3618 162.5002 722.3618 C 160.8335 734.0285 172.9169 753.8202 164.3752 760.4869 C 157.9168 767.5703 138.9585 764.0286 133.1251 757.9869 C 123.3334 747.9868 123.5418 731.7368 112.5001 722.3618 C 97.5001 714.2368 95.62509 724.8618 78.75009 722.3618 C 66.25007 712.5701 61.87507 695.9034 63.75007 692.9868 C 65.8334 683.1951 89.16676 673.4035 98.75009 675.4868 C 108.7501 677.5701 116.2501 681.5285 125.6252 679.2368 C 131.2502 676.1118 146.8752 659.8618 272.5003 557.3617 L 297.5003 587.3617 z "
   transform="translate(0,-134.7039)"
   style="fill-rule:evenodd;"
   id="path797" /><path
   d="M 455.8347 584.8617 C 580.8348 684.8618 590.8348 719.8618 590.8348 719.8618 C 592.5015 731.5285 580.4181 751.3202 588.9598 757.9869 C 595.4182 765.0703 614.3765 761.5286 620.2099 755.4869 C 630.0016 745.4868 629.7932 729.2368 640.8349 719.8618 C 655.8349 711.7368 657.7099 722.3618 674.5849 719.8618 C 687.085 710.0701 691.46 693.4034 689.585 690.4868 C 687.5016 680.6951 664.1683 670.9035 654.5849 672.9868 C 644.5849 675.0701 637.0849 679.0285 627.7098 676.7368 C 622.0848 673.6118 606.4598 657.3618 480.8347 554.8617 L 455.8347 584.8617 z "
   transform="translate(0,-132.2039)"
   style="fill-rule:evenodd;"
   id="path798" /></g><g
   transform="matrix(1,0,0,-1,-4.620285,804.8616)"
   id="g807"><path
   d="M 297.5003 587.3617 C 172.5002 687.3618 162.5002 722.3618 162.5002 722.3618 C 160.8335 734.0285 172.9169 753.8202 164.3752 760.4869 C 157.9168 767.5703 138.9585 764.0286 133.1251 757.9869 C 123.3334 747.9868 123.5418 731.7368 112.5001 722.3618 C 97.5001 714.2368 95.62509 724.8618 78.75009 722.3618 C 66.25007 712.5701 61.87507 695.9034 63.75007 692.9868 C 65.8334 683.1951 89.16676 673.4035 98.75009 675.4868 C 108.7501 677.5701 116.2501 681.5285 125.6252 679.2368 C 131.2502 676.1118 146.8752 659.8618 272.5003 557.3617 L 297.5003 587.3617 z "
   transform="translate(0,-134.7039)"
   style="fill-rule:evenodd;"
   id="path808" /><path
   d="M 455.8347 584.8617 C 580.8348 684.8618 590.8348 719.8618 590.8348 719.8618 C 592.5015 731.5285 580.4181 751.3202 588.9598 757.9869 C 595.4182 765.0703 614.3765 761.5286 620.2099 755.4869 C 630.0016 745.4868 629.7932 729.2368 640.8349 719.8618 C 655.8349 711.7368 657.7099 722.3618 674.5849 719.8618 C 687.085 710.0701 691.46 693.4034 689.585 690.4868 C 687.5016 680.6951 664.1683 670.9035 654.5849 672.9868 C 644.5849 675.0701 637.0849 679.0285 627.7098 676.7368 C 622.0848 673.6118 606.4598 657.3618 480.8347 554.8617 L 455.8347 584.8617 z "
   transform="translate(0,-132.2039)"
   style="fill-rule:evenodd;"
   id="path809" /></g><g
   transform="translate(-1.340904,-100.0002)"
   style="fill:#ffffff;"
   id="g812"><path
   d="M 340.0004 454.8615 C 359.8694 404.8687 320.0003 377.3614 277.5003 379.8614 C 258.0459 379.8614 244.2213 411.0426 237.5003 429.8615 C 231.7213 446.0427 251.6557 471.6089 292.5003 477.3616 C 310.8224 479.9422 334.036 469.8687 340.0004 454.8615 z "
   transform="translate(0,97.44626)"
   style="fill-rule:evenodd;"
   id="path810" /><path
   d="M 406.7759 459.8615 C 386.9069 409.8687 426.776 382.3614 469.276 384.8614 C 488.7304 384.8614 502.555 416.0426 509.276 434.8615 C 515.055 451.0427 495.1206 476.6089 454.276 482.3616 C 435.9539 484.9422 412.7403 474.8687 406.7759 459.8615 z "
   transform="translate(0,92.44626)"
   style="fill-rule:evenodd;"
   id="path811" /></g></g></svg>
