<svg enable-background="new -235.433 -235.433 579.997 579.997" height="579.997" viewBox="-235.433 -235.433 579.997 579.997" width="579.997" xmlns="http://www.w3.org/2000/svg">
<path d="m271.478 213.915c-7.806 1.643-13.659 4.762-20.979 2.961-4.306-2.423-16.14-14.813-109.26-91.667 4.608-3.242 13.871-9.661 15.224-10.997 5.893-5.843 16.064-9.581 22.268-15.449 24.027-22.729 17.648-62.884 17.648-93.532 0-4.225-2.755-18.431-5.849-21.566-7.455-7.57-14.861-14.786-23.111-21.381 74.664-61.943 79.088-67.779 83.08-70.021 7.319-1.805 13.173 1.316 20.979 2.958 7.481 1.641 25.69-6.077 27.318-13.799 1.461-2.299-1.952-15.44-11.711-23.16-13.168-1.97-14.629 6.406-26.335 0-8.617-7.393-8.46-20.204-16.104-28.089-4.55-4.764-19.351-7.555-24.388-1.972-6.67 5.258 2.765 20.863 1.466 30.061 0 0-6.469 22.827-81.006 86.257-7.1-3.831-15.209-6.884-30.575-10.457-7.718-2.425-92.238-3.168-109.921 0-15.909 3.7-24.041 6.841-31.325 10.866-74.99-63.739-81.486-86.666-81.486-86.666-1.301-9.198 8.131-24.803 1.463-30.061-5.039-5.583-19.837-2.792-24.389 1.972-7.644 7.885-7.479 20.696-16.099 28.089-11.707 6.406-13.17-1.97-26.34 0-9.756 7.72-13.172 20.86-11.709 23.16 1.628 7.722 19.839 15.44 27.318 13.799 7.804-1.643 13.66-4.764 20.976-2.958 3.95 2.218 10.905 10.08 83.7 70.519-8.002 6.46-15.228 13.502-22.499 20.883-3.091 3.135-5.846 17.341-5.846 21.566 0 30.648-6.377 70.803 17.648 93.532 6.202 5.868 16.372 9.606 22.27 15.449 1.289 1.274 9.775 7.175 14.555 10.529-93.641 77.276-105.511 89.707-109.828 92.135-7.316 1.801-13.172-1.318-20.976-2.961-7.479-1.643-25.69 6.08-27.318 13.802-1.463 2.297 1.953 15.435 11.709 23.157 13.17 1.968 14.633-6.404 26.34 0 8.62 7.393 8.455 20.206 16.099 28.086 4.552 4.767 19.35 7.556 24.389 1.978 6.667-5.263-2.764-20.865-1.463-30.063 0 0 7.168-25.301 93.398-96.653.423 4.21.703 8.916 1.071 14.423.571 8.543 4.673 22.95 8.822 30.417 2.009 3.62 6.792 8.647 6.665 11.155-.26 5.105 11.353 13.389 15.022 15.996 13.619 9.696 25.541 11.828 42.794 11.852 17.257-.023 29.178-2.155 42.797-11.852 3.669-2.607 15.277-10.891 15.021-15.996-.128-2.508 4.653-7.535 6.66-11.155 4.151-7.467 8.254-21.874 8.824-30.417.341-5.101.608-9.511.98-13.479 85.161 70.638 92.259 95.71 92.259 95.71 1.299 9.198-8.136 24.801-1.466 30.063 5.037 5.578 19.838 2.789 24.388-1.978 7.644-7.88 7.486-20.693 16.104-28.086 11.706-6.404 13.167 1.968 26.335 0 9.759-7.723 13.172-20.86 11.711-23.157-1.628-7.723-19.837-15.446-27.318-13.803zm-242.97-170.287c-4.655 11.834-22.771 19.773-37.072 17.742-31.879-4.537-47.436-24.695-42.926-37.451 5.243-14.84 16.035-39.423 31.219-39.423 33.169-1.971 64.288 19.716 48.779 59.132zm52.118 0c-15.508-39.416 15.613-61.103 48.78-59.132 15.184 0 25.976 24.583 31.219 39.421 4.516 12.759-11.047 32.916-42.926 37.453-14.298 2.031-32.419-5.91-37.073-17.742z" fill="param(fill) #000" fill-opacity="255" stroke="param(outline) #FFF" stroke-opacity="255" stroke-width="param(outline-width) 0"/>
<path d="m55.462 238.065c-.095 0-.185-.002-.279-.002s-.184.002-.279.002z" fill="param(fill) #000" fill-opacity="255" stroke="param(outline) #FFF" stroke-opacity="255" stroke-width="param(outline-width) 0"/>
</svg>
