<svg enable-background="new 0 0 579.997 579.997" height="579.997" viewBox="0 0 579.997 579.997" width="579.997" xmlns="http://www.w3.org/2000/svg">
<path d="m24.821 395.411h530.354c0 0-22.014-71.586-48.723-70.197-28.096 1.458-30.599 43.988-52.263 43.988-23.088 0-26.943-43.988-54.96-43.988s-26.764 44.317-50.605 43.988c-23.786-.33-32.161-45.297-56.617-43.988-25.837 1.383-26.471 44.313-48.949 43.988-22.541-.33-33.883-43.918-58.271-43.988-24.355-.075-23.027 45.371-47.294 43.988-24.318-1.389-32.404-43.988-59.929-43.988-28.908-.001-52.743 75.08-52.743 70.197z" fill="param(fill) #000" opacity=".25"/>
<path d="m179.191 286.292c37.86-11.531 51.489-19.769 68.149-24.71 16.657 3.293 30.289 11.531 30.289 11.531s-8.347 15.882-70.875 64.575c11.796 12.931 21.699 31.3 36.304 31.514 22.479.324 23.112-42.605 48.949-43.988 18.545-.992 27.844 24.619 41.627 37.205 9.062-9.833 8.958-10.936 24.255-26.707 6.563 3.845 5.554 10.986 12.115 14.832.067.229.131.434.197.651 5.621-9.957 11.017-21.035 21.392-24.714-1.975-3.905-4.12-7.977-6.441-12.185-16.655-21.415-7.571-19.77-25.744-34.595 16.66-3.845 33.32 2.195 48.462-19.769 12.62-31.85 8.58-42.285-10.603-64.249-20.19-15.376-28.271-14.277-60.572-1.647-24.232 31.3-13.635 32.948-16.661 52.718 0 0-6.063 0-18.179-4.942-12.112-4.941-16.654-14.827-43.915-14.827-27.26 0-37.86 11.531-80.265 26.358-42.402 14.825-51.489 36.242-51.489 36.242l16.658 13.18c0 0 19.689-4.939 36.347-16.473z" fill="param(fill) #000" fill-opacity="255" stroke="param(outline) #FFF" stroke-opacity="255" stroke-width="param(outline-width) 0"/>
<path d="m24.821 395.411h530.354c0 0-22.014-71.586-48.723-70.197-28.096 1.458-30.599 43.988-52.263 43.988-23.088 0-26.943-43.988-54.96-43.988s-26.764 44.317-50.605 43.988c-23.786-.33-32.161-45.297-56.617-43.988-25.837 1.383-26.471 44.313-48.949 43.988-22.541-.33-33.883-43.918-58.271-43.988-24.355-.075-23.027 45.371-47.294 43.988-24.318-1.389-32.404-43.988-59.929-43.988-28.908-.001-52.743 75.08-52.743 70.197z" fill="none" stroke="param(outline) #FFF" stroke-width="param(outline-width) 0"/>
</svg>
