<?xml version="1.0" encoding="utf-8"?>
<!-- Generator: Adobe Illustrator 16.0.0, SVG Export Plug-In . SVG Version: 6.00 Build 0)  -->
<!DOCTYPE svg PUBLIC "-//W3C//DTD SVG 1.1//EN" "http://www.w3.org/Graphics/SVG/1.1/DTD/svg11.dtd">
<svg version="1.1"
	 id="svg644" xmlns:dc="http://purl.org/dc/elements/1.1/" xmlns:cc="http://web.resource.org/cc/" xmlns:rdf="http://www.w3.org/1999/02/22-rdf-syntax-ns#" xmlns:svg="http://www.w3.org/2000/svg" xmlns:sodipodi="http://inkscape.sourceforge.net/DTD/sodipodi-0.dtd" xmlns:inkscape="http://www.inkscape.org/namespaces/inkscape" sodipodi:docbase="/usr/share/qgis/svg/Garmin_Symbols" sodipodi:version="0.32" sodipodi:docname="swimming_area.svg" inkscape:version="0.43"
	 xmlns="http://www.w3.org/2000/svg" xmlns:xlink="http://www.w3.org/1999/xlink" x="0px" y="0px" width="579.997px"
	 height="579.997px" viewBox="0 0 579.997 579.997" enable-background="new 0 0 579.997 579.997" xml:space="preserve">
<sodipodi:namedview  inkscape:cy="54.566925" inkscape:cx="54.566925" borderopacity="1.0" pagecolor="#ffffff" bordercolor="#666666" inkscape:zoom="3.6927131" id="base" inkscape:current-layer="svg644" inkscape:window-y="36" inkscape:window-x="0" inkscape:pageshadow="2" inkscape:window-width="1024" inkscape:pageopacity="0.0" inkscape:window-height="683">
	</sodipodi:namedview>
<path id="path726_1_" sodipodi:nodetypes="cczzzzzzzzzc" opacity="0.25" fill="param(fill) #000" fill-opacity="param(fill-opacity)" d="M24.821,395.411h530.354
	c0,0-22.014-71.586-48.723-70.197c-28.096,1.458-30.599,43.988-52.263,43.988c-23.088,0-26.943-43.988-54.96-43.988
	s-26.764,44.317-50.605,43.988c-23.786-0.33-32.161-45.297-56.617-43.988c-25.837,1.383-26.471,44.313-48.949,43.988
	c-22.541-0.33-33.883-43.918-58.271-43.988c-24.355-0.075-23.027,45.371-47.294,43.988c-24.318-1.389-32.404-43.988-59.929-43.988
	C48.656,325.213,24.821,400.294,24.821,395.411z"/>
<path fill="param(fill) #000" fill-opacity="param(fill-opacity)" stroke="param(outline) #FFF" stroke-opacity="param(outline-opacity)" stroke-width="param(outline-width) 0" d="M179.191,286.292c37.86-11.531,51.489-19.769,68.149-24.71
	c16.657,3.293,30.289,11.531,30.289,11.531s-8.347,15.882-70.875,64.575c11.796,12.931,21.699,31.3,36.304,31.514
	c22.479,0.324,23.112-42.605,48.949-43.988c18.545-0.992,27.844,24.619,41.627,37.205c9.062-9.833,8.958-10.936,24.255-26.707
	c6.563,3.845,5.554,10.986,12.115,14.832c0.067,0.229,0.131,0.434,0.197,0.651c5.621-9.957,11.017-21.035,21.392-24.714
	c-1.975-3.905-4.12-7.977-6.441-12.185c-16.655-21.415-7.571-19.77-25.744-34.595c16.66-3.845,33.32,2.195,48.462-19.769
	c12.62-31.85,8.58-42.285-10.603-64.249c-20.19-15.376-28.271-14.277-60.572-1.647c-24.232,31.3-13.635,32.948-16.661,52.718
	c0,0-6.063,0-18.179-4.942c-12.112-4.941-16.654-14.827-43.915-14.827c-27.26,0-37.86,11.531-80.265,26.358
	c-42.402,14.825-51.489,36.242-51.489,36.242l16.658,13.18C142.844,302.765,162.533,297.826,179.191,286.292z"/>
<path id="path726_2_" sodipodi:nodetypes="cczzzzzzzzzc" fill="none" stroke="param(outline) #FFF" stroke-opacity="param(outline-opacity)" stroke-width="param(outline-width) 0" d="M24.821,395.411
	h530.354c0,0-22.014-71.586-48.723-70.197c-28.096,1.458-30.599,43.988-52.263,43.988c-23.088,0-26.943-43.988-54.96-43.988
	s-26.764,44.317-50.605,43.988c-23.786-0.33-32.161-45.297-56.617-43.988c-25.837,1.383-26.471,44.313-48.949,43.988
	c-22.541-0.33-33.883-43.918-58.271-43.988c-24.355-0.075-23.027,45.371-47.294,43.988c-24.318-1.389-32.404-43.988-59.929-43.988
	C48.656,325.213,24.821,400.294,24.821,395.411z"/>
</svg>
