<?xml version="1.0" encoding="UTF-8" standalone="no"?>
<!-- Created with Inkscape (http://www.inkscape.org/) -->

<svg
   xmlns:osb="http://www.openswatchbook.org/uri/2009/osb"
   xmlns:dc="http://purl.org/dc/elements/1.1/"
   xmlns:cc="http://creativecommons.org/ns#"
   xmlns:rdf="http://www.w3.org/1999/02/22-rdf-syntax-ns#"
   xmlns:svg="http://www.w3.org/2000/svg"
   xmlns="http://www.w3.org/2000/svg"
   xmlns:sodipodi="http://sodipodi.sourceforge.net/DTD/sodipodi-0.dtd"
   xmlns:inkscape="http://www.inkscape.org/namespaces/inkscape"
   width="24"
   height="24"
   id="svg5692"
   version="1.1"
   inkscape:version="0.92.2 (5c3e80d, 2017-08-06)"
   sodipodi:docname="MetaSearch.svg"
   inkscape:export-filename="/media/home1/robert/svn/graphics/trunk/toolbar-icons/32x32/layer-vector.png"
   inkscape:export-xdpi="90"
   inkscape:export-ydpi="90">
  <title
     id="title2829">GIS icon theme 0.2</title>
  <defs
     id="defs5694">
    <linearGradient
       id="linearGradient5625"
       osb:paint="gradient">
      <stop
         style="stop-color:#7a0000;stop-opacity:1;"
         offset="0"
         id="stop5627" />
      <stop
         style="stop-color:#7a0000;stop-opacity:0;"
         offset="1"
         id="stop5629" />
    </linearGradient>
    <inkscape:perspective
       sodipodi:type="inkscape:persp3d"
       inkscape:vp_x="0 : 16 : 1"
       inkscape:vp_y="0 : 1000 : 0"
       inkscape:vp_z="32 : 16 : 1"
       inkscape:persp3d-origin="16 : 10.666667 : 1"
       id="perspective3486" />
    <inkscape:perspective
       id="perspective3496"
       inkscape:persp3d-origin="0.5 : 0.33333333 : 1"
       inkscape:vp_z="1 : 0.5 : 1"
       inkscape:vp_y="0 : 1000 : 0"
       inkscape:vp_x="0 : 0.5 : 1"
       sodipodi:type="inkscape:persp3d" />
    <inkscape:perspective
       id="perspective3600"
       inkscape:persp3d-origin="0.5 : 0.33333333 : 1"
       inkscape:vp_z="1 : 0.5 : 1"
       inkscape:vp_y="0 : 1000 : 0"
       inkscape:vp_x="0 : 0.5 : 1"
       sodipodi:type="inkscape:persp3d" />
    <inkscape:perspective
       id="perspective7871"
       inkscape:persp3d-origin="0.5 : 0.33333333 : 1"
       inkscape:vp_z="1 : 0.5 : 1"
       inkscape:vp_y="0 : 1000 : 0"
       inkscape:vp_x="0 : 0.5 : 1"
       sodipodi:type="inkscape:persp3d" />
    <inkscape:perspective
       id="perspective8710"
       inkscape:persp3d-origin="0.5 : 0.33333333 : 1"
       inkscape:vp_z="1 : 0.5 : 1"
       inkscape:vp_y="0 : 1000 : 0"
       inkscape:vp_x="0 : 0.5 : 1"
       sodipodi:type="inkscape:persp3d" />
    <inkscape:perspective
       id="perspective9811"
       inkscape:persp3d-origin="0.5 : 0.33333333 : 1"
       inkscape:vp_z="1 : 0.5 : 1"
       inkscape:vp_y="0 : 1000 : 0"
       inkscape:vp_x="0 : 0.5 : 1"
       sodipodi:type="inkscape:persp3d" />
    <inkscape:perspective
       id="perspective4762"
       inkscape:persp3d-origin="0.5 : 0.33333333 : 1"
       inkscape:vp_z="1 : 0.5 : 1"
       inkscape:vp_y="0 : 1000 : 0"
       inkscape:vp_x="0 : 0.5 : 1"
       sodipodi:type="inkscape:persp3d" />
    <inkscape:perspective
       sodipodi:type="inkscape:persp3d"
       inkscape:vp_x="0 : 0.5 : 1"
       inkscape:vp_y="0 : 1000 : 0"
       inkscape:vp_z="1 : 0.5 : 1"
       inkscape:persp3d-origin="0.5 : 0.33333333 : 1"
       id="perspective4762-4" />
    <inkscape:perspective
       sodipodi:type="inkscape:persp3d"
       inkscape:vp_x="0 : 0.5 : 1"
       inkscape:vp_y="0 : 1000 : 0"
       inkscape:vp_z="1 : 0.5 : 1"
       inkscape:persp3d-origin="0.5 : 0.33333333 : 1"
       id="perspective9811-2" />
    <inkscape:perspective
       sodipodi:type="inkscape:persp3d"
       inkscape:vp_x="0 : 0.5 : 1"
       inkscape:vp_y="0 : 1000 : 0"
       inkscape:vp_z="1 : 0.5 : 1"
       inkscape:persp3d-origin="0.5 : 0.33333333 : 1"
       id="perspective8710-0" />
    <inkscape:perspective
       sodipodi:type="inkscape:persp3d"
       inkscape:vp_x="0 : 0.5 : 1"
       inkscape:vp_y="0 : 1000 : 0"
       inkscape:vp_z="1 : 0.5 : 1"
       inkscape:persp3d-origin="0.5 : 0.33333333 : 1"
       id="perspective7871-7" />
    <inkscape:perspective
       sodipodi:type="inkscape:persp3d"
       inkscape:vp_x="0 : 0.5 : 1"
       inkscape:vp_y="0 : 1000 : 0"
       inkscape:vp_z="1 : 0.5 : 1"
       inkscape:persp3d-origin="0.5 : 0.33333333 : 1"
       id="perspective3600-9" />
    <inkscape:perspective
       sodipodi:type="inkscape:persp3d"
       inkscape:vp_x="0 : 0.5 : 1"
       inkscape:vp_y="0 : 1000 : 0"
       inkscape:vp_z="1 : 0.5 : 1"
       inkscape:persp3d-origin="0.5 : 0.33333333 : 1"
       id="perspective3496-4" />
    <inkscape:perspective
       id="perspective3486-0"
       inkscape:persp3d-origin="16 : 10.666667 : 1"
       inkscape:vp_z="32 : 16 : 1"
       inkscape:vp_y="0 : 1000 : 0"
       inkscape:vp_x="0 : 16 : 1"
       sodipodi:type="inkscape:persp3d" />
    <inkscape:perspective
       id="perspective3952"
       inkscape:persp3d-origin="12 : 8 : 1"
       inkscape:vp_z="24 : 12 : 1"
       inkscape:vp_y="0 : 1000 : 0"
       inkscape:vp_x="0 : 12 : 1"
       sodipodi:type="inkscape:persp3d" />
  </defs>
  <sodipodi:namedview
     id="base"
     pagecolor="#ffffff"
     bordercolor="#666666"
     borderopacity="1.0"
     inkscape:pageopacity="0.0"
     inkscape:pageshadow="2"
     inkscape:zoom="8.58"
     inkscape:cx="12.265211"
     inkscape:cy="14.238138"
     inkscape:current-layer="layer2"
     showgrid="true"
     inkscape:grid-bbox="true"
     inkscape:document-units="px"
     borderlayer="false"
     inkscape:window-width="1920"
     inkscape:window-height="1017"
     inkscape:window-x="-4"
     inkscape:window-y="-4"
     inkscape:window-maximized="1"
     inkscape:snap-global="true"
     showguides="true"
     inkscape:guide-bbox="true"
     inkscape:snap-object-midpoints="true"
     inkscape:snap-grids="false"
     inkscape:object-paths="false"
     inkscape:snap-bbox="true">
    <inkscape:grid
       type="xygrid"
       id="grid5700"
       empspacing="5"
       visible="true"
       enabled="true"
       snapvisiblegridlinesonly="true"
       dotted="true"
       originx="2.5"
       originy="2.5"
       spacingx="1"
       spacingy="1" />
  </sodipodi:namedview>
  <metadata
     id="metadata5697">
    <rdf:RDF>
      <cc:Work
         rdf:about="">
        <dc:format>image/svg+xml</dc:format>
        <dc:type
           rdf:resource="http://purl.org/dc/dcmitype/StillImage" />
        <dc:title>GIS icon theme 0.2</dc:title>
        <dc:creator>
          <cc:Agent>
            <dc:title>Robert Szczepanek</dc:title>
          </cc:Agent>
        </dc:creator>
        <dc:rights>
          <cc:Agent>
            <dc:title>Robert Szczepanek</dc:title>
          </cc:Agent>
        </dc:rights>
        <dc:subject>
          <rdf:Bag>
            <rdf:li>GIS icons</rdf:li>
          </rdf:Bag>
        </dc:subject>
        <dc:coverage>GIS icons</dc:coverage>
        <dc:description>http://robert.szczepanek.pl/</dc:description>
        <cc:license
           rdf:resource="http://creativecommons.org/licenses/by-sa/3.0/" />
      </cc:Work>
      <cc:License
         rdf:about="http://creativecommons.org/licenses/by-sa/3.0/">
        <cc:permits
           rdf:resource="http://creativecommons.org/ns#Reproduction" />
        <cc:permits
           rdf:resource="http://creativecommons.org/ns#Distribution" />
        <cc:requires
           rdf:resource="http://creativecommons.org/ns#Notice" />
        <cc:requires
           rdf:resource="http://creativecommons.org/ns#Attribution" />
        <cc:permits
           rdf:resource="http://creativecommons.org/ns#DerivativeWorks" />
        <cc:requires
           rdf:resource="http://creativecommons.org/ns#ShareAlike" />
      </cc:License>
    </rdf:RDF>
  </metadata>
  <g
     inkscape:groupmode="layer"
     id="layer2"
     inkscape:label="Layer"
     style="display:inline"
     transform="translate(0,-8)">
    <g
       id="g3023"
       transform="matrix(0.75006372,0,0,0.75006372,-0.00101991,8.0000004)">
      <path
         transform="matrix(1.2561421,0,0,1.0872616,22.464897,-1.0130123)"
         d="M 6.9656949,13.809332 A 12.112323,12.156691 0 0 1 -5.1466279,25.966022 12.112323,12.156691 0 0 1 -17.258951,13.809332 12.112323,12.156691 0 0 1 -5.1466279,1.6526413 12.112323,12.156691 0 0 1 6.9656949,13.809332 Z"
         sodipodi:ry="12.156691"
         sodipodi:rx="12.112323"
         sodipodi:cy="13.809332"
         sodipodi:cx="-5.1466279"
         id="path3003-2"
         style="fill:#aec7e2;fill-opacity:1;stroke:#2e4e72;stroke-width:1.34144199;stroke-miterlimit:4;stroke-opacity:1;stroke-dasharray:none;display:inline"
         sodipodi:type="arc" />
      <path
         style="fill:#2e4e72;fill-opacity:1;stroke:#ffffff;stroke-width:0.1;stroke-miterlimit:4;stroke-dasharray:none;stroke-opacity:1"
         inkscape:connector-curvature="0"
         d="m 14.370253,10.736582 -0.117061,0.246611 -0.078,0.123333 -0.156025,0.135606 -0.02343,0.111005 c 0,0 -0.06243,0.09868 -0.0546,0.160372 0.0078,0.06169 0.0078,0.172644 0.0078,0.172644 0,0 -0.109228,0.160316 -0.15606,0.209627 -0.04683,0.04931 -0.109263,0.160317 -0.109263,0.160317 0,0 -0.039,0.07402 -0.0624,0.09868 -0.0234,0.0246 -0.0624,0.09862 -0.09363,0.172644 -0.03123,0.07402 -0.06243,0.123279 -0.07803,0.160262 -0.0156,0.03698 -0.06243,0.123333 -0.08583,0.258993 -0.0234,0.135716 -0.08583,0.295978 -0.08583,0.295978 l -0.01563,0.06164 c 0.0078,0.209683 0.0078,0.246666 0.02343,0.320688 0.0156,0.07397 0.03123,0.04926 0.0156,0.209628 -0.0156,0.160262 -0.0156,0.221955 -0.0312,0.295977 -0.0156,0.07391 -0.06243,0.209573 -0.078,0.271322 -0.01563,0.06164 0.0312,0.172589 0.0312,0.172589 0,0 0.02343,0.160371 0.0078,0.197355 -0.0156,0.03704 0.0078,0.111005 0.0078,0.111005 0,0 0.09363,0.08629 0.124861,0.135661 0.0312,0.04931 0.08583,0.123333 0.09363,0.160316 0.0078,0.03704 0.07023,0.209682 0.07803,0.246666 0.0078,0.03698 0.07023,0.17259 0.08583,0.209628 0.0156,0.03704 0.09363,0.172698 0.09363,0.172698 0,0 0.101428,0.123224 0.124861,0.17259 0.0234,0.04931 0.09363,0.07397 0.116993,0.110951 0.02343,0.03698 0.07803,0.0246 0.109228,0.06169 0.03123,0.03698 0.09363,-0.02471 0.124863,0 0.0312,0.02465 0.117061,-0.02466 0.140461,-0.04931 0.0234,-0.02465 0.07799,-0.11095 0.117026,-0.07402 0.039,0.03693 0.0624,0 0.09363,0.01233 0.03116,0.01233 0.07799,-0.04926 0.109193,-0.04926 0.03123,0 0.109228,-0.04937 0.132626,-0.04937 0.02343,0 0.101464,-0.07408 0.132696,-0.07408 0.03116,0 0.0702,-0.0492 0.109194,-0.0246 0.039,0.0246 0.0234,-0.04926 0.09363,-0.01233 0.07023,0.03693 0.09363,0 0.117028,0.03693 0.02343,0.03704 0.05467,1.1e-4 0.07806,0.04942 0.0234,0.04926 0.0624,0.08624 0.0702,0.135606 0.0078,0.04937 0.0546,0.09873 0.0546,0.09873 l 0.04683,0.01227 c 0,0 0.06246,-0.07397 0.07803,-0.0246 0.0156,0.04931 0.08583,0.03704 0.08583,0.03704 l 0.0702,0.123278 0.02343,0.04931 c 0,0 0.04683,0.197355 0.039,0.271322 -0.0078,0.07397 -0.0078,0.234284 -0.0312,0.271266 -0.0234,0.03704 -0.039,0.197355 -0.039,0.197355 0,0 -0.03123,0.04931 0.039,0.147989 0.07023,0.09873 0.117062,0.184972 0.14046,0.234229 0.02343,0.04937 0.08586,0.185081 0.09359,0.271376 0.0078,0.08629 0.02343,0.135605 0.05467,0.246611 0.0312,0.111005 0.0702,0.123333 0.078,0.246721 0.0078,0.123279 0.0234,0.123332 0.0156,0.209573 -0.0078,0.08635 -0.0312,0.09868 -0.0078,0.160316 0.0234,0.06169 0.05456,0.172699 0.04683,0.209682 -0.0078,0.03698 -0.02343,0.197301 -0.02343,0.197301 l -0.0156,0.07402 -0.0702,0.209738 -0.04683,0.110894 c -0.0156,0.0863 -0.0468,0.172645 -0.039,0.295978 0.0078,0.123332 -0.039,0.123278 0.0234,0.246557 0.06243,0.123386 0.09359,0.259048 0.132626,0.370053 0.03903,0.11095 0.06243,0.221955 0.0702,0.295923 0.0078,0.07402 0.03903,0.09873 0.05463,0.197354 0.01556,0.09868 0.0234,0.147934 0.0234,0.209627 0,0.06164 -0.0078,0.22201 0.0078,0.258995 0.01556,0.03698 0.0234,0.148043 0.0312,0.197354 0.0078,0.04937 -0.02343,0.06169 0.0234,0.148043 0.04683,0.0863 0.07803,0.135607 0.109228,0.197301 0.0312,0.06169 0.0234,0.03698 0.04683,0.123333 0.0234,0.08629 0.0546,0.135715 0.06243,0.209627 0.0078,0.07397 0.01556,0.258938 0.039,0.345289 0.0234,0.08635 0.0546,0.172699 0.0546,0.172699 0,0 0.08586,0.08629 0.117062,0.07397 0.03116,-0.01233 0.09363,-0.123223 0.140461,-0.08629 0.04683,0.03698 0.08583,0 0.124827,0 0.039,0 0.07803,-0.07402 0.117062,-0.07402 0.039,0 0.0936,-0.09868 0.124862,-0.07397 0.0312,0.0246 0.07016,-0.02476 0.109194,-0.0864 0.03903,-0.06158 0.06243,-0.110895 0.132626,-0.209571 0.07023,-0.09868 0.06243,-0.09873 0.109228,-0.160372 0.04683,-0.06169 0.09366,-0.197355 0.148261,-0.22201 0.0546,-0.02465 0.07019,-0.110897 0.0858,-0.172589 0.01563,-0.06169 0.0234,-0.09868 0.04683,-0.148045 0.02343,-0.04926 0.0078,0.01249 0.04683,-0.147933 0.03903,-0.160371 0.0859,-0.221955 0.124897,-0.258993 0.039,-0.03699 0.06239,-0.110952 0.08579,-0.123333 0.0234,-0.01238 0.06243,0.03698 0.04683,-0.07402 -0.01556,-0.11095 0,-0.271267 -0.01556,-0.308251 -0.01563,-0.03709 -0.03907,0.08624 -0.03123,-0.09878 0.0079,-0.184918 0.09363,-0.369946 0.09363,-0.369946 0,0 0.117028,-0.234283 0.15606,-0.271266 0.03903,-0.03698 0.0468,-0.07397 0.101463,-0.123333 0.05456,-0.04926 0.171625,-0.172589 0.171625,-0.234283 0,-0.06169 0.04683,-0.222011 0.04683,-0.259049 0,-0.03698 0,-0.07397 -0.01557,-0.283649 -0.01563,-0.209574 0.01557,-0.160317 -0.03123,-0.357617 -0.0468,-0.197299 -0.05466,-0.443966 -0.08583,-0.505605 -0.03123,-0.06169 -0.01563,-0.222064 -0.01563,-0.271321 0,-0.04931 0.05467,-0.172645 0.07806,-0.221956 0.0234,-0.04937 0.124828,-0.246721 0.124828,-0.246721 0,0 0.156024,-0.283594 0.210656,-0.4192 0.05463,-0.135715 0.109229,-0.258993 0.148226,-0.308305 0.03903,-0.04931 0.132661,-0.160426 0.187259,-0.283705 0.05463,-0.123278 0.163858,-0.357561 0.171692,-0.394654 0.0078,-0.03693 0.07016,-0.160262 0.07016,-0.160262 0,0 0.08583,-0.160372 0.101463,-0.246666 0.01556,-0.08635 0.09356,-0.567299 0.07796,-0.542642 -0.01553,0.02471 -0.109193,0.04931 -0.140426,0.06164 -0.03116,0.01238 0.04687,0.06164 -0.179458,0.03704 -0.226221,-0.02471 -0.343249,0.03698 -0.343249,0.03698 -0.07026,-0.02471 -0.124861,0.09862 -0.148295,-0.07402 -0.0234,-0.17259 -0.03903,-0.271268 -0.0858,-0.394601 -0.04683,-0.123333 -0.07807,-0.172645 -0.148225,-0.333015 -0.0702,-0.160262 -0.06247,-0.08635 -0.124896,-0.209573 -0.0624,-0.123333 -0.07803,-0.0864 -0.117028,-0.246666 -0.039,-0.160317 -0.0702,-0.09862 -0.117028,-0.320632 -0.04683,-0.222066 -0.07803,-0.246722 -0.101429,-0.37 -0.02343,-0.123278 -0.0546,-0.160371 -0.07023,-0.271322 -0.0156,-0.111005 -0.195023,-0.678248 -0.218456,-0.715287 -0.02343,-0.03693 -0.06243,-0.234338 -0.05463,-0.1973 0.0078,0.03698 0.117061,0.160316 0.117061,0.160316 0,0 0.0624,-0.03704 0.08583,-0.03704 0.0234,0 0.117028,0.135716 0.117028,0.184973 0,0.04937 0.163929,0.283703 0.202892,0.456348 0.039,0.172644 0.0859,0.295976 0.09363,0.345288 0.0077,0.04931 0.08583,0.246666 0.117062,0.320688 0.03116,0.07402 0.132591,0.221955 0.148191,0.295978 0.0156,0.07402 0.163894,0.320632 0.163894,0.480949 0,0.160316 0.07016,0.369944 0.07799,0.419255 0.0078,0.04931 0.148226,0.111059 0.148226,0.111059 l 0.187292,-0.07402 c 0,0 0.280853,-0.283704 0.312086,-0.283704 0.03116,0 0.280922,-0.184973 0.280922,-0.184973 0,0 0.101393,-0.147933 0.171589,-0.234228 0.07023,-0.08635 0.148259,-0.246611 0.163895,-0.320687 0.01556,-0.07402 0.0468,-0.08629 0.109192,-0.197355 0.06243,-0.111005 0.148262,-0.221956 0.09366,-0.295977 -0.05463,-0.07397 -0.08586,-0.04931 -0.16386,-0.172645 -0.07803,-0.123278 -0.07023,-0.09862 -0.124861,-0.258993 -0.05463,-0.160262 0.0078,-0.345289 -0.109264,-0.160262 -0.116993,0.184972 -0.0702,0.234283 -0.187257,0.271376 -0.116993,0.03693 -0.163861,0.160262 -0.218457,0.03693 -0.0546,-0.123333 -0.109194,-0.04931 -0.14046,-0.234338 -0.0312,-0.184972 -0.05463,-0.197355 -0.0624,-0.271267 -0.0078,-0.07402 0,-0.07402 -0.06243,-0.259048 -0.0624,-0.184973 -0.0156,-0.468623 0.0234,-0.308306 0.03903,0.160317 0.101429,0.184972 0.202892,0.295978 0.101393,0.110951 0.14826,0.197354 0.241854,0.209683 0.09363,0.01227 0.171659,0 0.187259,0.0246 0.0156,0.02471 0.0312,-0.01227 0.07023,0.01233 0.03903,0.02471 0.05456,-0.03693 0.0702,0.06164 0.0156,0.09868 0.10143,0.111005 0.140428,0.172644 0.03903,0.06164 0.03903,0.03704 0.140494,0.06164 0.101464,0.02471 0.241924,0.02471 0.241924,0.02471 l 0.14819,-0.01238 0.17166,0.0246 c 0,0 0.124898,0.111005 0.156061,0.111005 0.0312,0 0.039,0.135716 0.117026,0.209683 0.07803,0.07402 0.09363,0.08629 0.140427,0.172644 0.0469,0.08635 0.03903,0.123333 0.101428,0.209628 0.06246,0.0864 0.163929,-0.01227 0.179528,-0.0492 0.01553,-0.03704 0.09356,-0.09868 0.07803,0 -0.01563,0.09862 0.07796,0.06158 0.05456,0.295976 -0.0234,0.234228 -0.03903,0.172589 0,0.332961 0.039,0.160317 0.210656,0.653594 0.218491,0.801582 0.0078,0.147989 0.0546,0.09868 0.0624,0.234393 0.0078,0.135607 0.0546,0.184917 0.0546,0.283595 0,0.09868 0.05467,0.123278 0.06243,0.197355 0.0079,0.07402 0.09366,0.01227 0.117063,0 0.02343,-0.01238 0.132626,-0.172699 0.132626,-0.172699 0,0 0.0469,-0.0246 0.03903,-0.147989 -0.0078,-0.123224 0,-0.09862 0,-0.283595 0,-0.184973 -0.0468,-0.184972 -0.0234,-0.369889 0.0234,-0.184973 0.08579,-0.296032 0.101427,-0.382327 0.0156,-0.08629 0.07803,-0.234283 0.109194,-0.246665 0.0312,-0.01233 0.202893,-0.147935 0.241924,-0.234339 0.039,-0.08629 0.101429,-0.184972 0.163859,-0.283595 0.0624,-0.09862 0.171624,-0.221956 0.195058,-0.184972 0.0234,0.03698 0.0156,0.02466 0.05463,0.02466 0.039,0 0.109228,0.04937 0.163826,0.06169 0.05463,0.01233 0.163892,0.221955 0.187293,0.33296 0.0234,0.111006 0.0078,0.0863 0.09363,0.246666 0.08583,0.160262 0.163859,0.06158 0.163859,0.25894 0,0.197355 0,0.184971 0.03903,0.258993 0.039,0.07402 0.0858,-0.135661 0.132592,-0.11095 0.0468,0.02471 0.0546,-0.02466 0.0936,0.172644 0.039,0.197354 0.0624,0.197354 0.07026,0.394655 0.0078,0.1973 -0.0078,0.01233 -0.0078,0.172589 0,0.160371 -0.0078,0.172699 0.0078,0.320634 0.01557,0.148097 0.07013,0.197409 0.0624,0.222064 0,0 0.0468,-0.209628 0.03116,-0.357671 -0.01553,-0.147934 0,-0.357562 0.03903,-0.419201 0.039,-0.06175 0.07806,-0.123332 0.109228,0.03698 0.03123,0.160262 0.04683,0.03698 0.117029,0.221955 0.07026,0.185027 0.13266,0.147934 0.140461,0.234284 0.0078,0.08635 0.0469,0.09873 0.101427,0.172644 0.05463,0.07402 0.101429,-0.01227 0.163859,-0.08629 0.06247,-0.07402 0.234056,-0.345344 0.241924,-0.456348 0.0078,-0.110951 0.078,-0.08635 -0.04687,-0.36989 -0.124861,-0.283649 -0.124861,-0.382326 -0.257488,-0.554971 -0.132558,-0.172644 -0.210623,-0.184972 -0.10916,-0.406983 0.101429,-0.222009 0.148262,-0.369944 0.210658,-0.308249 0.06243,0.06164 0.171589,0.04926 0.171589,0.295976 0,0.246612 -0.0312,0.517934 0.07803,0.221956 0.109228,-0.295977 0.163895,-0.468621 0.132626,-0.4192 -0.03116,0.04931 0.07023,-0.09868 0.07023,-0.09868 0,0 0.0078,-0.111004 0.140497,-0.160316 0.132593,-0.04942 0.17159,-0.07402 0.218456,-0.111005 0.0468,-0.03704 0.179459,-0.283704 0.202857,-0.394655 0.0234,-0.111006 0.08583,-0.308305 0.07023,-0.3946 -0.0156,-0.0864 -0.09366,-0.505605 -0.109265,-0.493332 -0.01556,0.01238 -0.0078,0.01238 -0.109158,-0.160261 -0.101497,-0.172644 -0.171694,-0.295977 -0.187291,-0.369999 -0.0156,-0.07402 -0.05463,-0.08635 -0.0078,-0.184972 0.04687,-0.09862 0.07026,-0.08629 0.07806,-0.172645 0.0078,-0.08629 0.07016,-0.160316 -0.04687,-0.09862 -0.116993,0.06164 -0.0312,0.02471 -0.132626,0.01238 -0.101427,-0.01238 -0.366682,0.08629 -0.23402,-0.172645 0.132593,-0.258994 0.171555,-0.4192552 0.194988,-0.4192552 0.02347,0 0.140495,-0.2096825 0.14826,-0.012383 0.0078,0.1973002 0.0546,0.1479342 0.06243,0.2712672 0.0078,0.123333 0.163859,-0.135606 0.163859,-0.135606 0,0 0.0546,0.02466 0.09359,0.08629 0.03903,0.06164 0.03903,0.258994 0.03903,0.258994 0,0 -0.0312,-0.06169 0.05463,0.03698 0.08586,0.09873 0.179425,0.04931 0.179425,0.258993 0,0.209629 0,0.222011 0.05463,0.271323 0.05467,0.04931 0.109194,0.02471 0.156094,-0.03698 0.0468,-0.06164 0.124794,-0.28365 0.124794,-0.28365 0,0 0.0078,-0.08635 -0.117029,-0.209682 -0.124827,-0.123278 -0.202857,-0.209573 -0.249619,-0.271267 -0.04687,-0.06164 -0.03123,-0.2466114 0.01553,-0.3206879 0.0469,-0.074022 0.07023,-0.1110052 0.05463,-0.2096278 -0.01563,-0.098732 0.02343,-0.172699 0.14046,-0.1603712 0.117029,0.012383 0.140427,-0.012273 0.140427,-0.012273 0,0 0.02347,0.024601 0.02347,-0.049366 0,-0.073967 0.148189,-0.4193102 0.109158,-0.4193102 -0.039,0 0.0079,-0.086295 -0.0156,-0.2219556 -0.0234,-0.1357156 0.07803,-0.3452885 -0.0078,-0.4439659 -0.08583,-0.098677 -0.109262,-0.1480434 -0.163859,-0.2959772 -0.0546,-0.1480434 -0.04687,-0.1726443 -0.249689,-0.2096825 -0.202856,-0.036983 -0.296485,0.074022 -0.343317,-0.024601 -0.04683,-0.098677 -0.0702,0.1479339 -0.101394,-0.1480434 -0.0312,-0.2959773 0.04683,-0.4933319 0.04683,-0.4933319 0,0 0.124828,-0.1232782 0.155991,-0.2096278 0.0312,-0.086349 0.156027,-0.123333 0.25756,-0.061639 0.101427,0.061639 0.249619,0.049311 0.374514,0.086404 0.124827,0.036929 0.117029,0.1602617 0.179459,0 0.0624,-0.160426 0,-0.2343381 0.0468,-0.3206876 0.04687,-0.08635 0.101427,-0.2220104 0.140425,-0.1357156 0.039,0.086404 0.117132,0.1726442 0.179562,0.061639 0.0624,-0.1109504 0.0858,-0.1232782 0.0858,-0.1232782 l 0.03113,0.049366 c 0,0 0.07023,-0.061749 0.07023,0.049202 0,0.11106 0.07026,0.234393 0.03123,0.3206877 -0.03907,0.086404 -0.09359,0.074022 -0.09359,0.2836495 0,0.2097373 0,0.172699 0.08576,0.3453981 0.08586,0.1725894 0.140461,0.024601 0.156061,0.2096277 0.01563,0.1849721 0.03116,0.1480434 0.11706,0.2713216 0.08583,0.1232782 0.07016,0.1232782 0.132628,0.1972999 0.06243,0.074022 0.09366,0.1480434 0.09366,0.02471 0,-0.1233329 0.0078,-0.184972 0,-0.2959772 -0.0079,-0.1109504 0.06243,-0.1973547 0.01553,-0.3823268 -0.0468,-0.1849721 -0.0078,-0.1726443 -0.101393,-0.3083051 -0.09366,-0.135606 -0.156094,0.024711 -0.187223,-0.1726442 -0.03123,-0.1972999 0.148192,-0.2836495 0.195058,-0.3083051 0.0468,-0.024601 0.116957,-0.1726443 0.132556,-0.073967 0.01563,0.098623 -0.116993,0.4562937 0.109298,0.073967 0.226221,-0.382272 0.124828,-0.2219556 0.124828,-0.2219556 0,0 0.117027,-0.024656 0.140424,0 0.02336,0.024711 0.0859,-0.1110051 0.0624,-0.098623 C 28.578543,6.4083197 28.35236,6.198582 28.35236,6.198582 L 28.188522,6.0506405 c 0,0 0.05466,-0.061694 0.09366,-0.049311 0.03903,0.012328 0.04687,-0.123333 0.0859,-0.1357156 0.039,-0.012328 0.30425,0.086404 0.358916,0.1357156 0.0546,0.049311 0.24962,0.061639 0.226186,0.036983 -0.0234,-0.02471 -0.14819,-0.1726442 -0.156025,-0.2220103 -0.0078,-0.049311 -0.280888,-0.1479886 -0.366682,-0.1356608 -0.08586,0.012273 -0.163825,0.049257 -0.234055,0.012273 -0.07027,-0.036983 -0.171658,-0.1356608 -0.226289,-0.1356608 -0.0546,0 -0.741199,-0.2096277 -0.772397,-0.1972999 -0.0312,0.012328 -0.07807,0.2466112 -0.101464,0.2096277 -0.0234,-0.036983 -0.06239,-0.037038 -0.171694,-0.086349 C 26.81542,5.4339214 26.667125,5.3968834 26.472033,5.372282 26.277011,5.347626 26.144418,5.396938 26.089787,5.29826 26.035157,5.199638 25.918163,5.236621 25.785501,5.224238 c -0.132626,-0.012273 -0.288687,0 -0.358917,0 -0.07023,0 -0.234019,-0.012273 -0.273053,-0.024656 -0.03903,-0.012383 -0.08583,-0.098677 -0.132626,-0.1109504 -0.04687,-0.012383 -0.03907,-0.036983 -0.132661,-0.061639 -0.09363,-0.02471 -0.08583,-0.1849721 -0.117028,-0.049366 -0.0312,0.1357156 -0.01563,0.098677 -0.06243,0.1479886 -0.04683,0.049366 -0.09363,0.1479887 -0.124864,0.1479887 -0.03116,0 -0.15599,0.012328 -0.179456,-0.012328 -0.02343,-0.024656 -0.06243,-0.049311 -0.140461,-0.049311 -0.07803,0 -0.07803,0.012273 -0.179458,-0.012383 -0.101428,-0.024656 -0.179459,-0.012383 -0.27309,-0.086295 -0.09363,-0.074022 -0.09363,-0.123333 -0.171658,-0.1110051 -0.07796,0.012383 -0.07796,-0.024656 -0.187259,-0.024656 -0.109192,0 -0.241818,0.098677 -0.312085,0.1110052 -0.07016,0.012328 -0.226221,-0.012383 -0.280852,-0.049366 -0.05466,-0.036983 -0.07023,-0.1232782 -0.273121,-0.086349 -0.202859,0.037038 -0.319885,0.037038 -0.280887,-0.061639 0.03903,-0.098623 0.08583,-0.1972999 0.109228,-0.2096277 0.02343,-0.012328 0.07799,-0.073967 0.03896,-0.098623 -0.03896,-0.02471 -0.078,-0.061639 -0.17159,-0.074022 -0.09366,-0.012328 -0.0859,0.049311 -0.226291,0.024656 -0.140425,-0.024656 0.07803,-0.086295 -0.210621,-0.073967 -0.288687,0.012383 -0.358917,0.049311 -0.390116,0.049311 -0.03123,0 -0.07026,-0.098623 -0.14826,0.049311 -0.07803,0.1479886 -0.187327,0.2342833 -0.343317,0.2466112 -0.156025,0.012383 -0.163859,-0.024656 -0.312051,0.061639 -0.14826,0.086295 -0.241924,-0.024656 -0.210692,0.1726442 0.03116,0.1972999 0.07023,0.2713216 0.07023,0.3083051 0,0.036983 -0.07023,0.2836494 -0.156025,0.1356608 -0.0859,-0.1479886 -0.241924,-0.7276153 -0.171693,-0.3329607 0.07019,0.3945998 0.226221,0.5303154 0.07803,0.5919545 -0.148226,0.061639 -0.132697,-0.024656 -0.156094,-0.049366 -0.02336,-0.024656 0,-0.1972999 -0.0078,-0.2959772 -0.0078,-0.098623 -0.0234,-0.1603165 -0.0546,-0.2096277 -0.03116,-0.049366 -0.02343,-0.123333 -0.08583,-0.1479887 -0.06243,-0.024656 -0.0078,-0.074022 -0.109229,-0.074022 -0.101428,0 -0.187223,-0.098677 -0.163824,0.123333 0.02336,0.2219556 0.04676,0.074022 0.109159,0.2836494 0.0624,0.2096278 0.179458,0.061639 0.09366,0.2096278 -0.08583,0.1479886 -0.312085,0.098677 -0.366716,0.037038 -0.05463,-0.061694 -0.039,0.024656 -0.140495,-0.086349 -0.101429,-0.1110052 -0.07016,-0.1973547 -0.187189,-0.1110052 -0.117028,0.08635 -0.15606,0.246666 -0.202891,0.1849721 -0.04683,-0.061694 -0.156026,0.086295 -0.195058,0.012383 -0.03903,-0.074022 -0.195092,-0.074022 -0.226256,0 -0.03123,0.073967 -0.124862,0.061639 -0.257488,0.1603165 -0.132627,0.098623 -0.09367,0.012273 -0.257489,0.2219555 -0.163894,0.2096277 -0.257523,0.382272 -0.312085,0.2466112 -0.05463,-0.135606 -0.351152,-0.3699442 -0.23409,-0.4069824 0.117063,-0.036983 0.171659,-0.1109504 0.23409,-0.024656 0.06243,0.086295 0.163894,0.061694 0.179424,0 0.0156,-0.061694 0.08586,-0.123333 -0.0078,-0.1972999 -0.09363,-0.074022 -0.101428,-0.02471 -0.249654,-0.1110051 -0.14826,-0.08635 0,-0.061639 -0.202891,-0.1110052 -0.202858,-0.049311 -0.288722,-0.073967 -0.343319,-0.098623 -0.05456,-0.024656 -0.132626,0 -0.210622,-0.012328 -0.07807,-0.012328 -0.132626,-0.036983 -0.202891,-0.024656 -0.0702,0.012328 -0.109193,-0.012328 -0.202857,0.098677 -0.09366,0.1110052 -0.163895,0.1603165 -0.226291,0.2466112 -0.0624,0.086295 -0.226221,0.2589938 -0.273052,0.3206877 -0.04683,0.061639 -0.210691,0.258939 -0.226291,0.3329607 -0.0156,0.074022 0.0156,0.1356608 -0.04683,0.1849721 -0.06243,0.049311 -0.124827,0.049311 -0.171659,0.061639 -0.04683,0.012328 0,-0.1110052 -0.04683,0.012328 -0.0468,0.123333 -0.0312,0.5672989 0.0078,0.505605 0.039,-0.061694 0.0156,-0.258939 0.187258,-0.073912 0.171659,0.1849173 0.280922,0.1602616 0.273088,0.3329059 -0.0078,0.1726443 0.117027,0.1603164 0.132626,0.1973547 0.0156,0.036929 0.09363,-0.049366 0.09363,-0.049366 0,0 0.171659,-0.1726443 0.171659,-0.258939 0,-0.086349 0.109228,-0.2836494 0.109228,-0.2836494 0,0 -0.07806,-0.061639 -0.07806,-0.1849721 0,-0.1232782 0.02347,-0.1603712 0.03903,-0.2837042 0.0156,-0.1232782 -0.08583,5.48e-5 0.14826,-0.2343382 0.23402,-0.2342834 0.249655,-0.073912 0.249655,-0.073912 0,0 0.03116,0.049311 -0.0078,0.1232782 -0.039,0.074022 -0.109228,0.2713764 -0.124827,0.2959772 -0.01563,0.024711 0.07023,0.2220104 0.109194,0.2220104 0.03903,0 0.117062,-0.049366 0.163894,-0.037038 0.04683,0.012383 0.124826,-0.036929 0.148226,-0.012273 0.02343,0.024656 0.07803,0.098623 0.039,0.1603164 -0.039,0.061639 -0.124862,0.1356061 -0.187223,0.1110052 -0.06246,-0.024601 -0.156095,-0.1973547 -0.101463,0.049311 0.05463,0.246666 -0.0078,0.3083051 -0.05463,0.2959772 -0.04676,-0.012328 -0.148226,-0.135606 -0.132626,0.049366 0.01563,0.1849173 -0.101394,0.3082503 -0.124828,0.3082503 -0.02343,0 -0.0702,-0.012328 -0.0702,-0.012328 0,0 -0.07026,-0.012383 -0.109228,-0.012383 -0.03903,0 -0.117061,0.061639 -0.140461,0.1110051 -0.02343,0.049311 -0.05463,0.012383 -0.09363,0.012383 -0.039,0 0,-0.074022 -0.07803,-0.098677 -0.07799,-0.024656 -0.124826,-0.049311 -0.171623,0 -0.04683,0.049311 -0.117028,0.073967 -0.148261,0.036983 -0.0312,-0.036983 0.01563,-0.1233878 -0.04683,-0.073967 -0.0624,0.049311 -0.109228,0.1849721 -0.132628,0.1973547 -0.0234,0.012273 0.07023,0 -0.0234,0.012273 -0.09363,0.012383 -0.132627,0.049421 -0.179458,0.074022 -0.04683,0.02471 0.0156,0.1726442 -0.07023,0.2219555 -0.08583,0.049311 -0.02336,-0.061639 -0.109228,0.049311 -0.08583,0.1110599 -0.101463,0.2096825 -0.132626,0.2220103 -0.03123,0.012383 -0.0234,0.036983 -0.09363,0.049311 -0.07023,0.012328 -0.06239,0.024656 -0.101463,0.036984 -0.039,0.012328 0.0078,0.037038 -0.07799,0.012328 -0.08586,-0.024656 -0.14826,0.02471 -0.132661,0.074022 0.0156,0.049311 0.304286,0.1849721 0.08583,0.1726443 -0.218456,-0.012328 -0.148225,0.049311 -0.101428,0.098623 0.04683,0.049311 0.0702,0.098623 0.09363,0.1110052 0.02343,0.012328 0.0624,0.1603712 0.0624,0.1603712 0,0 0.06243,-0.012383 0.02343,0.073967 -0.039,0.08635 0.0156,0.1110052 -0.02343,0.2220104 -0.039,0.1110051 -0.039,0.036983 -0.0702,0.061639 -0.0312,0.024601 -0.07803,0.1110051 -0.163894,0.036983 -0.08583,-0.074022 -0.148191,-0.1110051 -0.249654,-0.1232782 -0.101428,-0.012383 -0.03123,-0.036983 -0.101428,0.049257 -0.07023,0.086404 -0.08583,0.1850269 -0.078,0.2959773 0.0078,0.1109504 0.0156,0.2589934 -0.0078,0.3330154 -0.0234,0.07397 -0.0234,0.147988 -0.0078,0.258993 0.01563,0.110951 0.06247,0.160372 0.06247,0.160372 0,0 0.109228,0.0246 0.132627,0.03698 0.0234,0.01233 0.07023,-0.02465 0.132626,0.03693 0.06243,0.06169 0.124863,0.0864 0.16386,0.01238 0.039,-0.07397 0.195057,-0.160316 0.241924,-0.234283 0.0468,-0.07402 0.078,-0.09862 0.0546,-0.172644 -0.0234,-0.07402 0.04683,-0.2589936 0.08583,-0.295977 0.039,-0.036983 0.124827,-0.074022 0.124827,-0.074022 l 0.09363,-0.2219556 c 0,0 0.07803,-0.1357156 0.117026,-0.123333 0.039,0.012328 0.257454,0.1357156 0.24189,-0.024601 -0.0156,-0.1603713 0.0156,-0.2096825 0.039,-0.1480434 0.0234,0.061639 0.08583,0.036983 0.08583,0.036983 0,0 0.0312,-0.024601 0.0546,0.012383 0.0234,0.036929 0.0546,0.1973547 0.101429,0.2342834 0.04683,0.037038 0.08583,0.074022 0.117061,0.098623 0.0312,0.02471 0.06243,0 0.124863,0.086349 0.0624,0.08635 0.124827,0.1357156 0.132591,0.1726443 0.0079,0.036983 0.06247,0.1233333 0.06247,0.1233333 0,0 0.0546,0.02466 0.039,0.07402 -0.0156,0.04931 -0.09359,0.197354 -0.132627,0.221955 -0.03903,0.02466 -0.140426,-0.02471 -0.101428,0.02466 0.03896,0.04931 0.09363,0.111005 0.117027,0.07397 0.02343,-0.03698 0.171625,-0.28365 0.171625,-0.28365 0,0 -0.0078,0.01233 0,-0.06169 0.0078,-0.07391 0,-0.1602615 0.03903,-0.1232781 0.039,0.037038 0.06243,0.08635 0.07803,0.037038 0.0156,-0.049366 0.0312,-0.024655 -0.0078,-0.061639 -0.03903,-0.037038 -0.132628,-0.246666 -0.179459,-0.2589938 -0.04683,-0.012383 -0.163894,-0.1357156 -0.163894,-0.1357156 0,0 -0.02336,-0.036983 -0.07799,-0.135606 -0.05463,-0.098677 -0.0702,-0.074022 -0.08587,-0.1603713 -0.01556,-0.086295 -0.06243,-0.1972999 0.02343,-0.1726442 0.08587,0.024656 0.140427,0.1109503 0.218456,0.1849721 0.07803,0.074022 0.06247,0.098623 0.132662,0.1726442 0.0702,0.074022 0.07807,0.1480434 0.132627,0.1357156 0.0546,-0.012328 0.117062,0.049311 0.117062,0.1603165 0,0.1110051 0.01556,0.2342833 0.03116,0.2589946 0.01563,0.02471 0.0624,0.07402 0.07803,0.123333 0.0156,0.04931 0.04683,0.172644 0.07019,0.221955 0.02343,0.04931 0.04683,0.08635 0.07023,0.148044 0.0234,0.06164 0.0312,-0.01238 0.0546,0.01233 0.02343,0.02466 0.05463,0.01227 0.05463,-0.03704 0,-0.04931 0.0078,-0.135661 0.0078,-0.135661 0,0 0.109297,-0.04931 0.0781,-0.07402 -0.03123,-0.02466 -0.124897,-0.172645 -0.117062,-0.221956 0.0078,-0.049311 0,-0.1479342 0.03896,-0.1356064 0.03903,0.012273 0.07806,0.1232784 0.163894,0.024601 0.08583,-0.098677 0.187258,-0.1479887 0.156025,0 -0.03116,0.1479884 0.0079,0.1725894 0,0.3329614 -0.0078,0.160371 0.03127,0.111005 0.0859,0.197354 0.0546,0.08635 0.09359,0.09873 0.132591,0.123334 0.03903,0.02471 0.10143,0.01238 0.163895,0.02471 0.06243,0.01233 0.101429,-0.03704 0.15606,-0.01233 0.05456,0.02465 0.179423,-0.01238 0.202856,0.01233 0.02343,0.02466 0.117063,-0.04931 0.124828,0.03698 0.0078,0.08635 0.03903,-0.01233 0.01563,0.184973 -0.0234,0.1973 -0.05463,0.33296 -0.05463,0.33296 -0.08583,0.258994 -0.117028,0.320688 -0.15606,0.333015 -0.03896,0.01233 -0.0624,0.04931 -0.132591,0.03698 -0.07023,-0.01238 -0.156061,0 -0.257489,-0.03698 -0.101429,-0.03704 -0.288722,0.03698 -0.366717,-0.03704 -0.07803,-0.07397 -0.187257,-0.01233 -0.234124,-0.09862 -0.0468,-0.08635 -0.124792,-0.07402 -0.156025,-0.123333 -0.0312,-0.04931 -0.0468,-0.184918 -0.0468,0.01238 0,0.197355 -0.07023,0.209628 -0.08583,0.308305 -0.01563,0.09862 0.02336,0.04931 -0.06247,0.03698 -0.08583,-0.01238 -0.109228,0.06164 -0.234054,-0.08629 -0.124863,-0.147989 -0.187259,-0.147989 -0.249655,-0.209682 -0.06246,-0.06169 -0.124862,0.11095 -0.187258,-0.0863 -0.06243,-0.197354 -0.14826,-0.03704 -0.15606,-0.197354 -0.0078,-0.160371 0,-0.147933 0.0078,-0.246611 0.0079,-0.09868 0.09363,-0.184972 0.05463,-0.221956 -0.03903,-0.03698 -0.0078,-0.09868 -0.06243,-0.06164 -0.05463,0.03698 -0.132627,0.04931 -0.195057,0.08629 -0.06243,0.03704 0.140426,0 -0.16386,0.03704 -0.304285,0.03698 -0.390149,0.0863 -0.390149,0.0863 0,0 -0.0234,-0.02466 -0.06243,0.02466 -0.039,0.04931 -0.09363,0.123332 -0.148224,0.08635 -0.0546,-0.03704 -0.08583,-0.02471 -0.132628,-0.01233 -0.04683,0.01233 -0.07799,-0.06164 -0.132626,0 -0.05463,0.06158 -0.117028,0.0863 -0.140461,0.06158 -0.02347,-0.02499 -0.0625,-0.123606 -0.0625,-0.123606 z"
         id="imagebot_3" />
      <path
         style="fill:#2e4e72;fill-opacity:1;stroke:#ffffff;stroke-width:0.1;stroke-miterlimit:4;stroke-dasharray:none;stroke-opacity:1"
         inkscape:connector-curvature="0"
         d="m 19.590044,18.85119 c -0.0234,0.135715 -0.109228,0.332961 -0.109228,0.332961 l -0.156095,0.123334 c 0,0 -0.05453,0.07402 -0.0858,0.08635 -0.0312,0.01227 -0.109228,0.07402 -0.109228,0.07402 0,0 -0.0702,-0.02471 -0.04683,0.08624 0.0234,0.111005 0.03123,0.24672 0.0234,0.283648 -0.0078,0.03704 -0.0078,0.11106 -0.0078,0.209738 0,0.09862 -0.0234,0.221901 -0.06243,0.246556 -0.039,0.02471 -0.07803,0.04937 -0.07023,0.135717 0.0078,0.08635 0.0078,0.345288 0.0078,0.345288 l 0.101463,0.246665 c 0,0 0.0312,-0.03698 0.09363,-0.03698 0.06236,0 0.124827,-0.08624 0.124827,-0.08624 0,0 0.07027,0.02455 0.0624,-0.111005 -0.0078,-0.135715 0.03127,-0.295978 0.0234,-0.333016 -0.0078,-0.03698 0.07027,-0.197354 0.07027,-0.234283 0,-0.03704 0.07803,-0.209572 0.07803,-0.271321 0,-0.06164 0.0546,-0.160316 0.0624,-0.234229 0.0078,-0.07408 0.0156,-0.246667 0.0312,-0.295977 0.01563,-0.04931 0.02343,-0.09868 0.02343,-0.147988 0,-0.04931 0,-0.14799 0,-0.14799 l -0.05467,-0.271486 z"
         id="imagebot_4" />
      <path
         style="fill:#2e4e72;fill-opacity:1;stroke:#ffffff;stroke-width:0.1;stroke-miterlimit:4;stroke-dasharray:none;stroke-opacity:1"
         inkscape:connector-curvature="0"
         d="m 25.699294,20.516104 c -0.0234,0.04926 -0.039,0.579627 -0.0546,0.641266 -0.0156,0.06164 -0.04683,0.382326 -0.03116,0.456238 0.01556,0.07408 0.03896,0.345344 0.0234,0.431693 -0.01563,0.08629 0.0078,0.357617 -0.03127,0.345289 -0.03896,-0.01238 -0.05453,0.01238 -0.05453,0.04931 0,0.03704 0.05453,0.11095 0.05453,0.11095 0,0 0.0937,5.5e-5 0.132696,-0.01233 0.039,-0.01233 0.117027,-0.07402 0.179458,-0.07402 0.06243,0 0.101464,-0.07402 0.156025,-0.07402 0.05463,0 0.171694,-0.06158 0.202893,-0.03698 0.0312,0.0246 0.07799,-0.147988 0.132626,-0.11095 0.05463,0.03698 0.171694,-0.08635 0.226291,-0.08635 0.05456,0 0.07803,-0.135715 0.14046,-0.11095 0.0624,0.02466 0.179459,-0.04931 0.23409,-0.01244 0.05453,0.03709 0.140425,-0.123278 0.179423,0 0.03903,0.123387 0.156096,0.1727 0.156096,0.234339 0,0.06164 -0.0079,0.197354 -0.0079,0.197354 l 0.09367,-0.01238 c 0,0 0.14819,-0.147988 0.171658,-0.147988 0.0234,0 0.07803,-0.123279 0.07803,-0.06158 0,0.06158 -0.04687,0.197354 -0.06243,0.258938 -0.0156,0.06169 0.01556,0.135716 0.01556,0.135716 0,0 0.0781,0.06164 0.04687,0.172589 -0.03123,0.111006 0.0078,0.0864 0,0.172645 -0.0078,0.08635 0,0.04931 0.03113,0.09862 0.03127,0.04937 0.08593,0.135825 0.132696,0.123388 0.04687,-0.01238 0.0624,-0.08629 0.10143,-0.04931 0.039,0.03698 0.116993,0.01233 0.140391,0.06169 0.0235,0.04926 -0.148192,0.172591 0.148295,-0.03698 0.296486,-0.209737 0.327615,-0.259048 0.366646,-0.333071 0.03914,-0.07397 0.08593,-0.147932 0.117063,-0.197299 0.03123,-0.04931 0.0079,-0.03698 0.10143,-0.147989 0.09363,-0.11095 0.09363,-0.06164 0.179526,-0.271322 0.08583,-0.209572 0.148192,-0.283594 0.163861,-0.320632 0.0156,-0.03704 0.0468,-0.04931 0.05459,-0.197409 0.0078,-0.147935 0.0702,-0.283595 0.0702,-0.332907 0,-0.04926 0.0234,-0.123223 0.0156,-0.209627 -0.0078,-0.08635 0.03123,-0.209574 -0.0156,-0.332906 -0.04683,-0.123388 0.0234,-0.17259 -0.04683,-0.222065 -0.07023,-0.04931 -0.117027,-0.0246 -0.132626,-0.11095 -0.01563,-0.08635 -0.07806,-0.07402 -0.101464,-0.308306 -0.0234,-0.234284 -0.117026,-0.259048 -0.117026,-0.259048 0,0 -0.09363,-0.06164 -0.07023,-0.08624 0.02347,-0.02471 0.03123,-0.197409 0.02347,-0.24672 -0.0078,-0.04931 -0.0078,-0.160316 -0.0312,-0.234228 -0.0234,-0.07408 -0.03903,-0.172644 -0.06243,-0.259049 -0.0234,-0.08629 -0.0624,-0.111005 -0.07803,-0.209629 -0.01563,-0.09862 -0.03903,-0.135715 -0.0468,-0.160316 -0.0079,-0.02465 -0.0235,-0.147933 -0.03903,-0.01238 -0.0156,0.135661 -0.04687,0.3946 -0.04687,0.3946 0,0 -0.06243,0.209738 -0.08583,0.271377 -0.0234,0.06158 -0.0468,0.221955 -0.08579,0.209571 -0.03903,-0.01233 -0.0625,0.06175 -0.09363,0.04931 -0.03123,-0.01238 -0.07803,0.01238 -0.101429,-0.0246 -0.0234,-0.03704 -0.08583,-0.135661 -0.117063,-0.148045 -0.0312,-0.01227 -0.0546,-0.110895 -0.07803,-0.110895 -0.02347,0 -0.06243,-0.0864 -0.0546,-0.135715 0.0078,-0.04931 0.01557,-0.160262 0.0234,-0.209628 0.0078,-0.04931 0.05463,-0.160372 0.05463,-0.160372 0,0 0,-0.07397 -0.03903,-0.07397 -0.039,0 -0.04683,0 -0.13266,-0.01238 -0.0858,-0.01238 -0.10916,-0.02466 -0.140461,-0.02466 -0.03113,0 0.03127,-0.02465 -0.0546,0.01233 -0.08579,0.03709 -0.124828,0.135717 -0.179459,0.222066 -0.05453,0.0863 -0.0078,0.06158 -0.05453,0.0863 -0.0469,0.02471 -0.03903,-0.0617 -0.07026,0.07402 -0.03123,0.135661 0.01563,0.172589 -0.0079,0.197301 -0.0234,0.02471 -0.187187,-0.0863 -0.187187,-0.0863 0,0 0.039,-0.01238 0.0078,-0.07402 -0.03116,-0.06169 -0.0624,-0.147933 -0.109159,-0.11095 -0.0469,0.03698 -0.08593,0.06169 -0.117062,0.123333 -0.03123,0.06164 -0.03123,0.11095 -0.05463,0.160261 -0.0234,0.04931 -0.0858,0.04931 -0.09363,0.09868 -0.0078,0.04937 -0.0078,0.172644 -0.03116,0.184971 -0.0234,0.01238 -0.0312,-0.0492 -0.0546,-0.06158 -0.0234,-0.01233 -0.01563,-0.111006 -0.0312,-0.04931 -0.0156,0.06164 -0.0312,0.04926 -0.0546,0.147934 -0.02347,0.09868 -0.03123,0.185026 -0.05463,0.197354 -0.0234,0.01238 0,0.02465 -0.07027,0.08635 -0.07016,0.06164 -0.08579,0.06164 -0.187187,0.135662 -0.101393,0.07402 -0.07799,0.07402 -0.148226,0.08629 -0.0702,0.01238 -0.08586,0.04937 -0.132662,0.06169 -0.04687,0.01233 -0.078,0.0246 -0.124861,0.09862 -0.0468,0.07402 -0.08579,0.09862 -0.116993,0.111005 -0.0312,0.01238 -0.06257,0.06175 -0.06257,0.06175 z"
         id="imagebot_5" />
      <path
         style="fill:#2e4e72;fill-opacity:1;stroke:#ffffff;stroke-width:0.1;stroke-miterlimit:4;stroke-dasharray:none;stroke-opacity:1"
         inkscape:connector-curvature="0"
         d="m 26.159604,15.644806 c -0.03116,0.07408 -0.132592,0.295977 -0.17159,0.308359 -0.03903,0.01227 -0.07806,0.07402 -0.109262,0.06164 -0.0312,-0.01238 -0.10143,0 -0.124827,0.160317 -0.0234,0.160317 -0.06243,0.246666 -0.0859,0.234283 -0.0234,-0.01233 0.039,0.234284 -0.09359,0.135715 -0.132593,-0.09868 -0.0858,0.08635 -0.101429,0.135716 -0.0156,0.04926 0.0234,0.184973 0.0312,0.234284 0.0079,0.04931 0.0312,0.13566 0.06243,0.209572 0.0312,0.07402 0.0546,0.160317 0.109228,0.13577 0.05463,-0.02476 0.226221,0 0.226221,0 0,0 0.0625,0.03698 0.101463,0.03698 0.039,0 0.04683,-0.02465 0.0702,-0.02465 0.02336,0 0.07019,-0.123388 0.06243,-0.135661 -0.0078,-0.01244 -0.03116,-0.04937 0.0156,-0.123388 0.04683,-0.07402 0.10143,-0.09862 0.109264,-0.184972 0.0078,-0.08629 -0.0156,-0.08629 0.0078,-0.135715 0.0234,-0.04931 0.078,-0.03687 0.06243,-0.0863 -0.01564,-0.04931 0.01556,-0.03698 -0.01564,-0.135715 -0.03116,-0.09862 -0.07023,-0.13566 -0.03903,-0.258994 0.03123,-0.123278 0.0625,-0.147988 0.05467,-0.221955 -0.0078,-0.07408 0.039,-0.09868 -0.01564,-0.185027 -0.05456,-0.08624 -0.078,-0.110951 -0.117026,-0.135716 -0.039,-0.02455 -0.039,-0.02455 -0.039,-0.02455 z"
         id="imagebot_6" />
      <path
         style="fill:#2e4e72;fill-opacity:1;stroke:#ffffff;stroke-width:0.1;stroke-miterlimit:4;stroke-dasharray:none;stroke-opacity:1"
         inkscape:connector-curvature="0"
         d="m 27.688867,16.878082 c 0.03127,-0.01233 0.140461,-0.135661 0.148296,0.08635 0.0078,0.221955 0.01553,0.160262 0.06243,0.283594 0.0468,0.123334 0.07793,0.160427 0.132559,0.09873 0.0546,-0.06175 0.117027,-0.06175 0.132626,-0.172644 0.01563,-0.111006 0.01563,-0.111006 0.06243,-0.111006 0.0469,0 0.06243,-0.01233 0.08593,0.03709 0.02336,0.0492 0.03889,-1.1e-4 0.140391,0.08624 0.101427,0.08635 0.187223,0.06158 0.249723,0.147989 0.06243,0.08629 0.09363,0.07408 0.179424,0.123332 0.08583,0.04931 0.0468,-0.02465 0.124825,0.111005 0.07807,0.135606 0.0469,0.172589 0.08583,0.234284 0.039,0.06164 0.07027,-0.04937 0.05463,0.09862 -0.01564,0.147988 -0.124826,0 0.03903,0.209573 0.163825,0.209738 0.187257,0.246776 0.241821,0.30836 0.05466,0.06169 0.09366,0.135716 0.0469,0.135716 -0.0469,0 -0.195092,0 -0.210656,-0.03704 -0.01563,-0.03699 -0.08583,-0.0617 -0.132696,-0.14799 -0.04676,-0.08624 -0.148192,-0.147988 -0.171556,-0.221956 -0.02347,-0.07408 -0.05466,-0.09868 -0.09366,-0.09868 -0.039,0 -0.078,0.07397 -0.132662,0.160315 -0.05463,0.0863 -0.03113,-0.04926 -0.101429,-0.01233 -0.07026,0.03704 -0.14819,-0.01238 -0.187258,-0.06169 -0.03903,-0.04931 -0.03116,-0.123278 -0.09356,-0.08629 -0.0625,0.03698 -0.10143,0.01233 -0.07803,-0.06164 0.0234,-0.07408 0.0078,-0.172699 0.0078,-0.172699 0,0 0.02347,-0.123334 -0.03113,-0.147935 -0.05463,-0.0246 -0.05463,-0.110949 -0.109262,-0.135715 -0.05466,-0.0246 -0.140425,-0.08629 -0.140425,-0.08629 0,0 -0.0078,0 -0.03123,-0.01233 -0.0234,-0.01238 -0.0234,-0.01238 -0.08583,-0.03698 -0.0624,-0.02471 -0.109263,-1.1e-4 -0.140426,-0.06169 -0.03127,-0.06164 -0.01563,-0.14799 -0.01563,-0.14799 0,0 0.124828,0.02466 0,-0.123332 -0.124827,-0.147933 -0.124827,-0.147933 -0.124827,-0.147933 0,0 0.01553,-0.01238 0.0078,-0.03704 -0.0079,-0.02476 0.07789,0 0.07789,0 z"
         id="imagebot_7" />
      <path
         style="fill:#2e4e72;fill-opacity:1;stroke:#ffffff;stroke-width:0.1;stroke-miterlimit:4;stroke-dasharray:none;stroke-opacity:1"
         inkscape:connector-curvature="0"
         d="m 24.177831,15.854434 c 0,0 0.039,0.06175 0.10143,0.04937 0.06239,-0.01238 0.109158,0.197299 0.148259,0.271266 0.03896,0.07402 0.06243,0.111006 0.148226,0.197356 0.08579,0.08629 0.078,-0.07402 0.195058,0.184971 0.117027,0.258939 0.0624,0.09868 0.117027,0.258939 0.0546,0.160481 0.08583,0.246721 0.117027,0.283814 0.03116,0.03698 0.05463,0.135551 0.06246,0.172589 0.0078,0.03698 0.06236,0.147934 0.06236,0.184973 0,0.03698 0.01564,0.13566 -0.03116,0.221954 -0.04683,0.08635 -0.08586,0.09868 -0.08586,0.09868 0,0 -0.09363,-0.07402 -0.124827,-0.14799 -0.03123,-0.07397 -0.0702,-0.135661 -0.124862,-0.283594 -0.0546,-0.148043 -0.117027,-0.308359 -0.148225,-0.382327 -0.0312,-0.07408 -0.07803,-0.148098 -0.10143,-0.22201 -0.0234,-0.07408 -0.08583,-0.295977 -0.117027,-0.320688 -0.0312,-0.02471 -0.03903,-0.09862 -0.09366,-0.184972 -0.05456,-0.08635 -0.0468,-0.160316 -0.0702,-0.209627 -0.0234,-0.04931 -0.07799,-0.160427 -0.07799,-0.160427 l 0.0234,-0.01227 z"
         id="imagebot_8" />
      <path
         style="fill:#2e4e72;fill-opacity:1;stroke:#ffffff;stroke-width:0.1;stroke-miterlimit:4;stroke-dasharray:none;stroke-opacity:1"
         inkscape:connector-curvature="0"
         d="M 9.0022018,25.473751 C 8.9475708,25.424439 8.8305429,25.33809 8.7915452,25.288778 8.7525476,25.239467 8.6355196,24.968035 8.6355196,24.968035 l -0.085864,-0.258993 c 0,0 -0.1013939,-0.197299 -0.077995,-0.271266 0.023399,-0.07402 0.07023,-0.123334 0.07023,-0.160317 0,-0.03698 0.046797,-0.135716 0.00776,-0.172644 -0.038998,-0.03704 -0.038998,-0.04931 -0.062431,-0.160317 -0.023398,-0.110951 -0.023398,-0.209737 -0.054596,-0.234337 -0.031233,-0.0246 -0.054632,-0.184973 -0.085829,-0.197301 -0.031198,-0.01238 -0.062431,-0.09868 -0.062431,-0.09868 l -0.046831,-0.998937 c 0,0 -0.015634,-0.456238 -0.031198,-0.554971 -0.015634,-0.09862 0.023398,-0.30825 -0.015634,-0.493278 -0.038998,-0.184971 0.00783,-0.406928 -0.015599,-0.480949 -0.023399,-0.07402 0.015599,-0.283594 -0.0078,-0.480895 -0.023398,-0.197301 0.093629,-0.443965 0,-0.517933 -0.093629,-0.07408 -0.023399,-0.185027 -0.1014288,-0.185027 -0.077995,0 -0.132626,-0.06169 -0.2028567,-0.147933 C 7.7927896,19.46791 7.660128,19.307539 7.6211303,19.245846 7.5821327,19.184261 7.4572713,19.02389 7.4182736,18.974578 7.379276,18.925266 7.3402437,18.715584 7.3090456,18.65389 7.2778471,18.592306 7.2622484,18.407334 7.2154166,18.296328 7.1685847,18.185379 7.1061885,18.000406 7.0905544,17.963368 7.0749557,17.926385 6.9032968,17.605751 6.9032968,17.605751 l 0.015599,-0.197299 c 0,0 0.1170276,-0.111005 0.1014289,-0.147989 -0.015599,-0.03704 0.00783,-0.07408 -0.046832,-0.147988 -0.054631,-0.07408 -0.046831,-0.209737 0,-0.271322 0.046832,-0.06175 0.1170279,-0.259048 0.1170279,-0.259048 l 0.1170273,-0.308251 c 0,0 0.093664,-0.160426 0.093664,-0.271377 0,-0.110951 0.1326263,-0.184917 0.054597,-0.283594 -0.07803,-0.09873 -0.038998,-0.185027 -0.062431,-0.259048 -0.023434,-0.07397 -0.0078,-0.123279 0.062431,-0.1973 0.07023,-0.07402 0.1950568,-0.345289 0.1950568,-0.345289 0,0 0.093629,-0.03704 0.1170279,-0.03704 0.023399,0 0.062431,-0.394709 0.1326617,-0.135716 0.07023,0.258995 0.093629,0.123333 0.07023,0.308305 -0.023434,0.184973 0.031198,0.148044 0.062396,0.09873 0.031199,-0.04942 -0.015634,0.03698 0.046798,-0.185082 0.062396,-0.221956 0.039032,-0.295923 0.07803,-0.234229 0.038998,0.06169 0.054597,0.07402 0.1248275,0.111005 0.070196,0.03698 0.093629,0.0246 0.1169929,0.09862 0.023399,0.07402 0.015634,-0.02466 0.1482604,0.01238 0.1326259,0.03704 0.3198843,-0.07402 0.296486,0.04926 -0.023399,0.123332 -0.07023,-0.01233 0.038998,0.123332 0.1092284,0.135716 0.1248614,0.160316 0.187258,0.185027 0.062396,0.02466 0.1170276,0.01233 0.2106912,0.160317 0.093629,0.147933 0.117028,0.160316 0.1404262,0.234228 0.023399,0.07408 0.062396,0.02471 0.1014289,0.09868 0.038998,0.07408 0.093628,0.07408 0.1482257,0.07408 0.054596,0 0,-0.07408 0.085829,0.02466 0.085864,0.09862 0.1482604,0.110895 0.187258,0.30825 0.038998,0.197464 0.1170276,0.185027 0.054596,0.382381 -0.062396,0.197355 -0.1872234,0.28365 -0.132626,0.271322 0.054596,-0.01238 0.1560596,-0.0864 0.1872577,-0.07402 0.031198,0.01227 0.046797,-0.03698 0.093629,0 0.04683,0.03698 0.05463,-0.04931 0.04683,0.03698 -0.0078,0.08635 -0.0078,0 -0.0078,0.08635 0,0.08629 -0.0156,-0.08635 0.07803,-0.04931 0.09363,0.03698 0.039,-0.07408 0.148226,0.08629 0.109263,0.160371 0.109263,0.111059 0.148226,0.197355 0.03903,0.08624 0.07803,-0.04926 0.101463,-0.01233 0.02343,0.03693 0.09363,0.01227 0.163859,0.03698 0.07023,0.0246 0.0234,-0.07397 0.132662,0.03698 0.109193,0.11095 0.218456,0.07397 0.241854,0.172644 0.0234,0.09862 0.08586,0.06164 0.117028,0.123333 0.03116,0.06169 0.0468,-0.02471 0.07803,0.06169 0.0312,0.08624 0.124863,0.06159 0.109228,0.14788 -0.01563,0.0864 0.02337,0.03704 0.0078,0.160316 -0.01556,0.123443 -0.07023,0.320742 -0.116993,0.37 -0.04683,0.04937 -0.0468,0.111005 -0.07803,0.172644 -0.0312,0.06175 -0.0234,-0.06164 -0.06243,0.111005 -0.039,0.172698 -0.0312,0.197354 -0.0624,0.357615 -0.0312,0.160261 -0.0078,0 -0.0312,0.160317 -0.0234,0.160317 -0.0078,0.258995 -0.0312,0.44402 -0.0234,0.184918 -0.0156,0.184973 -0.0312,0.320634 -0.0156,0.13566 0.039,-0.06159 -0.03123,0.221956 -0.0702,0.283704 -0.078,0.271266 -0.101394,0.394655 -0.02343,0.123386 0.0078,0.02465 -0.07803,0.09868 -0.08583,0.07408 -0.039,0.04931 -0.140461,0.09868 -0.101394,0.04931 -0.226256,0.09873 -0.265254,0.111005 -0.039,0.01227 -0.195057,0.08629 -0.148225,0.234228 0.04683,0.148043 0.04683,0.1727 0,0.357725 -0.04683,0.184918 -0.117028,0.246667 -0.117028,0.332907 0,0.0863 -0.03123,0.17259 -0.039,0.234284 -0.0078,0.06169 0.0702,-0.06169 -0.0234,0.123333 -0.093629,0.184971 -0.1014286,0.13566 -0.1326614,0.246666 -0.031198,0.11095 0,0.0246 -0.031198,0.11095 -0.031198,0.08629 -0.109228,0.123278 -0.109228,0.123278 0,0 0.00777,0.06169 -0.023433,0.03704 -0.031233,-0.0246 -0.023399,0.01233 -0.1404609,-0.03704 -0.1170275,-0.04931 -0.1326263,-0.172534 -0.1482257,-0.08629 -0.015599,0.08629 0.0078,0.135715 0.07803,0.22201 0.070196,0.08635 0.1872576,0.11095 0.1560249,0.197355 -0.031198,0.08635 -0.031198,0.08635 -0.054596,0.135661 -0.023433,0.04937 0.031199,0.01233 -0.023433,0.04937 -0.054596,0.03698 -0.08583,0.197354 -0.1092281,0.197354 -0.023399,0 -0.039033,0.06164 -0.07023,0.03698 -0.031198,-0.02471 -0.1091931,-0.111005 -0.1248271,-0.06169 -0.015599,0.04926 -0.046832,-0.06169 -0.039032,0.110951 0.00783,0.172644 0.023434,0.271321 -0.015599,0.308359 -0.038998,0.03698 -0.1326613,0 -0.1326613,0 l -0.015599,-0.06169 -0.054597,0.02466 c 0,0 -0.023398,0.147988 0.0156,0.172645 0.038998,0.02465 0.031198,0.04926 0.070195,0.123278 0.039033,0.07402 0.015634,0.209682 0.015634,0.209682 0,0 0,0.03704 -0.038998,0.09868 -0.038998,0.06164 -0.054631,0.111005 -0.062431,0.147988 -0.00783,0.03698 -0.054631,0.197356 0.0156,0.184972 0.070195,-0.01238 0.1248614,-0.07402 0.1248614,0.123334 0,0.1973 0.031198,0.148043 -0.0078,0.283649 -0.039032,0.135662 -0.07023,0.147988 -0.07803,0.271268 -0.00776,0.123332 0.00783,0.13566 0.023434,0.209683 0.015599,0.07402 0.054631,0.03698 0.015599,0.07402 -0.038928,0.03698 -0.1559559,5.5e-5 -0.1559559,5.5e-5 z"
         id="imagebot_9" />
      <path
         style="fill:#2e4e72;fill-opacity:1;stroke:#ffffff;stroke-width:0.1;stroke-miterlimit:4;stroke-dasharray:none;stroke-opacity:1"
         inkscape:connector-curvature="0"
         d="m 6.9891613,15.435179 -0.054597,-0.123278 c 0,0 -0.023399,-0.07408 -0.062431,-0.08635 -0.039032,-0.01227 -0.1248618,-0.172644 -0.1248618,-0.172644 0,0 -0.038998,-0.04931 -0.038998,-0.135607 0,-0.08635 -0.031233,-0.221955 -0.00783,-0.369944 0.023433,-0.147933 0.031233,-0.33296 0.023433,-0.382326 -0.00783,-0.04931 0.038998,-0.06164 -0.015599,-0.111005 -0.054631,-0.04931 -0.1638597,-0.06164 -0.2340901,-0.06164 -0.070196,0 -0.1560596,0.03704 -0.171659,0.04931 -0.015599,0.01233 0.08583,-0.369945 0.1014285,-0.431584 0.015599,-0.06164 0.08583,-0.333016 0.08583,-0.369944 0,-0.03704 0.023399,-0.04937 -0.023399,-0.09862 -0.046797,-0.04937 -0.1248271,-0.07402 -0.1716589,-0.03704 -0.046797,0.03704 -0.038998,-0.04931 -0.077995,0.09862 -0.038998,0.148043 -0.07803,0.30836 -0.1248618,0.333016 -0.046797,0.02471 -0.1404262,0.09868 -0.1404262,0.09868 0,0 -0.1170275,-0.01233 -0.1560599,-0.02465 -0.038998,-0.01233 -0.202857,-0.14799 -0.2340551,-0.234284 -0.031198,-0.08635 -0.046797,-0.271377 -0.046797,-0.357616 0,-0.08635 0.085795,-0.345289 0.077995,-0.406983 -0.0078,-0.06164 0.085864,-0.308305 0.07803,-0.345343 -0.00783,-0.03698 0.015599,-0.160316 0.038998,-0.209628 0.023399,-0.04931 0.1404608,-0.111005 0.1716593,-0.160316 0.031198,-0.04937 0.085829,-0.110951 0.1404261,-0.135661 0.054597,-0.02471 0.1014632,-0.04931 0.1404609,-0.04931 0.038998,0 0.1404262,-0.135661 0.1560252,0 0.015634,0.135606 0.085864,0.08629 0.1248618,0.09862 0.038998,0.01238 0.046832,0.07402 0.109228,-0.08629 0.062431,-0.160372 0.1248272,-0.209682 0.1248272,-0.1727 0,0.03704 0.1014285,-0.01227 0.1170276,0.02471 0.015599,0.03698 0.046832,-0.02471 0.1014285,0.04931 0.054631,0.07402 0.1326266,0.08635 0.1248271,0.123278 -0.0078,0.03698 0.031199,0.03698 0.031199,0.07402 0,0.03698 0.031233,-0.08635 0.031233,0.135606 0,0.222011 0.038998,0.357671 0.038998,0.357671 0,0 0.054596,0.185027 0.077995,0.147989 0.023398,-0.03698 0.070195,-0.135607 0.070195,-0.135607 0,0 0.07803,-0.07402 0.023433,-0.333014 -0.054631,-0.25894 -0.015599,-0.332962 -0.031198,-0.41931 -0.015634,-0.08635 -0.015634,-0.135716 0.077995,-0.246666 0.093629,-0.110951 0.3198846,-0.357617 0.374516,-0.406928 0.054597,-0.04931 0.1794238,-0.184972 0.1794238,-0.184972 0,0 0.046797,-0.03698 0.054631,-0.135661 0.0078,-0.09862 0.1560249,-0.271322 0.1638598,-0.320633 0.00783,-0.04931 0.1092623,-0.17259 0.1092623,-0.17259 0,0 0.1091931,-0.09873 0.1013939,-0.1603161 -0.0078,-0.061639 0.1404608,-0.1725895 0.1638591,-0.1725895 0.023399,0 0.1482607,0.061584 0.1482607,-0.049421 0,-0.1109504 0,-0.1356608 0.07803,-0.2342834 0.077995,-0.098622 0.1794241,-0.246666 0.2184561,-0.246666 0.038998,0 0.1716596,-0.1108956 0.226256,-0.135606 0.054632,-0.02471 0.2262903,-0.1480434 0.07023,0 -0.1560599,0.1479339 -0.054631,0.061639 -0.085829,0.1849721 -0.031164,0.1232782 -0.054632,0.2836494 0.093628,0.098623 0.1482607,-0.1849721 0.1404265,-0.2220104 0.1950575,-0.2342834 0.054632,-0.012328 0.0156,0.036983 0.132627,-0.02471 0.1170623,-0.061639 0.1248618,-0.086295 0.1248618,-0.086295 0,0 0.054632,-0.074022 0.023399,-0.1109503 -0.031198,-0.037038 0.031233,-0.08635 -0.085829,-0.012383 -0.117028,0.074022 -0.1092281,0.08635 -0.1872584,0.049311 -0.077995,-0.036983 -0.1950575,-0.02471 -0.1092281,-0.1480434 0.08583,-0.1232782 0.1950576,-0.1603164 0.1248272,-0.2096277 -0.070196,-0.049311 -0.2496543,0.012383 -0.2730529,0.024656 -0.023433,0.012328 -0.07803,-0.012328 -0.1248621,0 -0.046797,0.012328 -0.031198,-0.098568 0,-0.1232782 0.031233,-0.02471 0.1326617,-0.098732 0.2574888,-0.1480434 0.1248271,-0.049311 0.4291477,-0.061639 0.4993431,-0.061639 0.070195,0 0.1638248,0.02471 0.2184567,-0.036983 0.0546,-0.061639 0.163859,-0.1602616 0.179458,-0.2096825 0.01563,-0.049311 0.07803,-0.1232782 0.07803,-0.1232782 0,0 0.0702,-0.1110051 0.0312,-0.1603164 -0.039,-0.049311 -0.07803,-0.1603165 -0.109228,-0.1356608 -0.0312,0.024656 -0.0078,0.172699 -0.0702,0.012328 -0.06243,-0.1602617 -0.05463,-0.1849721 -0.08583,-0.2219556 -0.0312,-0.036983 -0.062431,-0.012383 -0.039,-0.184972 0.0234,-0.1726443 0.0156,-0.246666 0.0156,-0.246666 0,0 0.0234,-0.1479339 0,-0.1602617 -0.02343,-0.012383 -0.038998,-0.049311 -0.077995,-0.012383 C 9.9149896,6.8644404 9.6965335,7.0371394 9.649736,7.0741229 9.6029045,7.1111064 9.5404736,6.9261343 9.5638722,6.8398395 9.5873054,6.7534352 9.5716717,6.8028013 9.5404736,6.6795231 9.5092758,6.5561901 9.384448,6.5314797 9.3376165,6.5314797 c -0.046831,0 -0.1560252,-0.1110052 -0.187258,-0.036983 -0.031198,0.073967 -0.1950228,0.3082503 -0.2262903,0.3329607 -0.031198,0.02471 -0.077995,-0.2096277 -0.1013938,0.1726443 -0.023433,0.3823816 0.085829,0.4933319 -0.038998,0.5179876 -0.1248271,0.024656 -0.2340902,0.135606 -0.2340902,0.135606 0,0 -0.1013931,0.012383 -0.1013931,0.1110052 0,0.098732 -0.038998,0.3329607 -0.085864,0.3576163 -0.046797,0.02471 -0.1638595,-0.012273 -0.2028571,-0.086295 -0.038998,-0.074022 0.0078,-0.3452886 0.0078,-0.3452886 l 0.07023,-0.1110051 c 0,0 -0.4993424,-0.1232782 -0.4915779,-0.1726443 0.00783,-0.049311 -0.1482257,-0.135606 -0.1638244,-0.2096277 -0.0156,-0.074022 -0.023434,-0.2343382 -0.0078,-0.2959773 C 7.5898987,6.8398398 7.800555,6.5438625 7.9097831,6.4822234 8.0190111,6.4205294 8.2062695,6.2849235 8.2609012,6.260213 8.3155322,6.235557 8.4091262,6.247885 8.440359,6.186246 8.471557,6.124552 8.479357,6.0136018 8.479357,6.0136018 c 0,0 -0.015599,-0.1726991 0.0156,-0.1480435 0.031198,0.024711 0.085829,0.061694 0.093628,0.098677 0.00783,0.036983 0.00783,0.123333 0.062431,0.024601 C 8.705647,5.8902133 8.7758774,5.8531755 8.838274,5.803919 8.900705,5.754553 8.9942992,5.766936 9.0489653,5.717624 9.1035623,5.668313 9.197191,5.618947 9.2049908,5.4956137 c 0.0078,-0.1232782 -0.023399,-0.086295 -0.062431,-0.098677 -0.038998,-0.012273 0.015599,0.012383 -0.1170272,0.1110052 -0.132662,0.098623 -0.093629,0.024656 -0.1872584,0.098623 -0.093629,0.074022 -0.1014632,0.08635 -0.109228,0.024711 -0.00783,-0.061694 0.015599,-0.1603165 0.015599,-0.1603165 0,0 0.00783,-0.012383 -0.046797,-0.036983 -0.054631,-0.024656 -0.054631,0.012328 -0.062431,-0.098623 -0.0078,-0.1110052 0.038998,-0.2713216 -0.038998,-0.2220103 -0.07803,0.049311 -0.148225,-0.036983 -0.2028568,0.2096277 -0.054631,0.2466112 -0.241889,0.5056598 -0.2887215,0.4439659 -0.046797,-0.061639 -0.054596,-0.074022 -0.093629,-0.074022 -0.039033,0 -0.093629,-0.073967 -0.1638598,-0.086295 -0.07023,-0.012328 -0.280921,-0.012328 -0.3354833,0 -0.054631,0.012383 -0.117028,-0.049311 -0.1638941,0.024711 -0.046797,0.073967 -0.116993,0.1726442 -0.116993,0.2096825 0,0.036983 -0.07023,-0.1357156 -0.093629,-0.123333 -0.023398,0.012328 -0.085864,-0.049311 -0.1560248,-0.049311 -0.070231,0 -0.117063,-0.061694 -0.1404266,-0.061694 -0.023399,0 0.023364,-0.098677 0,-0.1110051 -0.0234,-0.012274 -0.5306113,-0.036985 -0.5306113,-0.036985 0,0 -0.1638248,-0.098623 -0.226221,-0.086295 -0.062431,0.012328 -0.2340552,0.024601 -0.3667512,0.061639 -0.1326613,0.036983 -0.3277188,0.1603164 -0.390115,0.1726442 -0.062431,0.012383 -0.2028571,0.012383 -0.2262557,-0.049311 -0.023433,-0.061639 0.0078,-0.049311 -0.023433,-0.061639 -0.031198,-0.012273 -0.00776,-0.036983 -0.077995,-0.1232782 -0.07023,-0.086349 0.031233,-0.1603164 -0.1092281,-0.1603164 -0.1404261,0 -0.2262556,-0.012383 -0.3510827,0 C 4.414346,5.2244568 4.1568922,5.3230794 4.1256941,5.3107516 4.094496,5.2984237 3.8448071,5.3724454 3.8057748,5.335462 3.7667771,5.2984237 3.5716849,5.471068 3.532722,5.4587402 3.4937243,5.4464124 3.345464,5.4711228 3.3064663,5.5081063 3.267434,5.5451445 3.080176,5.6190566 3.1426069,5.6807505 c 0.062396,0.061639 0.054597,0.1232782 0.062396,0.1603165 0.00783,0.036983 -0.062396,0.1232782 -0.062396,0.1232782 0,0 -0.015634,0 -0.1014285,-0.049311 -0.08583,-0.049366 -0.1794585,-0.073967 -0.2184908,-0.036983 -0.038998,0.036983 -0.1092281,0.11106 -0.093629,0.1603713 0.015634,0.049311 0.1248271,0.1603164 0.1404608,0.1232782 0.015599,-0.036984 0.054631,-0.1109504 0.1014285,-0.098623 0.046832,0.012383 0.1170623,-0.049311 0.054631,0.074022 C 2.9631479,6.2603779 2.9085167,6.3220718 2.869519,6.3344544 2.830521,6.3467274 2.7368924,6.3590554 2.6510629,6.3714374 2.5651989,6.3838204 2.5729979,6.3221264 2.495003,6.4454594 2.417008,6.5687376 2.3857749,6.4947704 2.3701759,6.6304315 c -0.015599,0.135606 -0.031198,0.135606 0,0.1726442 0.031198,0.036983 -0.062431,0.049311 0.0078,0.086295 0.070196,0.037038 0.1560252,0.074022 0.1482257,0.1109503 -0.00783,0.037038 0.07803,-0.049256 0.031198,0.049311 -0.046832,0.098732 -0.077995,0.1849721 0.015599,0.08635 0.093629,-0.098623 0.1482257,-0.02471 0.2262556,-0.08635 0.07803,-0.061639 0.1560599,-0.073967 0.2028571,-0.1232782 0.046832,-0.049366 0.07023,-0.1232782 0.1404608,-0.1603712 0.070231,-0.036983 0.023399,0.012383 0.031198,0.074022 0.0078,0.061639 0,0.073967 0.046832,0.024601 0.046797,-0.049311 0.046797,-0.012273 0.109228,-0.073967 0.062396,-0.061639 0.1326267,-0.123333 0.1794585,-0.086349 0.046797,0.037038 0.062396,0.037038 0.093629,0.037038 0.031198,0 -0.038998,-0.012383 0.031198,0 0.070231,0.012273 -0.031198,-0.037038 0.2028571,0.049311 0.2340902,0.086295 0.2965207,0.024656 0.3120855,0.1603165 0.015634,0.1356608 0.046832,-0.012383 0.085829,0.073967 0.038998,0.086295 0.062431,0.012383 0.08583,0.1603164 0.023399,0.1480435 0,0.5549711 -0.015599,0.6042824 -0.015599,0.049311 -0.023399,0.049311 -0.015599,0.1603164 0.0078,0.1109504 0.1014285,0.6413206 0.07023,0.6782493 -0.031198,0.036929 -0.1014285,0.049311 -0.1014285,0.049311 l -0.038998,0.2219556 c 0,0 -0.062396,0.1849721 -0.1170276,0.2836494 -0.054631,0.098623 -0.1248272,0.2220104 -0.1638598,0.3082503 -0.038998,0.08635 -0.07023,0.234393 -0.1248271,0.3206877 -0.054597,0.086295 -0.1014286,0.049311 -0.08583,0.2342834 0.015599,0.184972 0,0.382272 0.015599,0.517988 0.015634,0.13566 0.054631,0.320634 0.085829,0.394654 0.031198,0.07397 0.054631,0.07397 0.1092281,0.135606 0.054631,0.06164 0.1248618,0.135716 0.1170276,0.197355 -0.0078,0.06164 0.0078,0.444021 0.0078,0.444021 0,0 0.046832,0.123278 0.054597,0.258939 0.00783,0.135715 0.062431,0.271322 0.062431,0.271322 l 0.046832,0.16037 c 0,0 0.023399,0.01238 0.054631,0.110951 0.031198,0.09868 0.031198,0.09868 0.038998,0.147935 0.00783,0.04942 0.00783,0.03704 0.00783,0.04942 0,0.01227 -0.00783,-0.209683 -0.023433,-0.271376 -0.015599,-0.06164 -0.015599,-0.135606 -0.031198,-0.209627 -0.015599,-0.07402 0.0078,-0.160373 -0.038998,-0.271322 -0.046797,-0.110951 -0.046797,-0.123334 -0.070196,-0.234339 -0.023399,-0.110951 -0.054631,-0.234283 -0.023399,-0.258994 0.031198,-0.0246 0.054597,-0.184918 0.1170276,0 0.062396,0.184972 0.07023,0.135716 0.07803,0.283704 0.00776,0.147989 0.031198,0.197356 0.054597,0.258939 0.023399,0.06164 0.077995,0.271377 0.1092281,0.357617 0.031198,0.08635 0,-0.04931 0.070196,0.123333 0.070231,0.172644 0.078065,0.209627 0.1170623,0.345288 0.038998,0.135661 0.062431,0.135661 0.08583,0.234284 0.023399,0.09873 0.0078,0.07402 -0.00783,0.184971 -0.015599,0.110951 0.015599,0.234339 0.015599,0.234339 0,0 0.109228,0.06164 0.1170272,0.09862 0.0078,0.03698 0.1170276,0.09862 0.1326617,0.147987 0.015599,0.04937 0.1170276,0.110951 0.1170276,0.110951 0,0 0.085829,0.08635 0.1169929,0.111006 0.031233,0.02465 0.1248964,0.04937 0.1248964,0.04937 0,0 0.062396,0.02471 0.085795,0.03698 0.023399,0.01233 0.093629,0.01233 0.093629,0.01233 0,0 0.062431,-0.07397 0.08583,-0.04931 0.023399,0.0246 0.07803,-0.04937 0.1014286,0.01227 0.023398,0.06169 0.07023,0.06169 0.093629,0.11106 0.023398,0.04931 0.046797,0.04931 0.085829,0.110951 0.039032,0.06164 0.07803,0.04931 0.1170276,0.09862 0.038998,0.04931 0.070196,0.04931 0.1170276,0.04931 0.046797,0 0.046797,0 0.07803,0.01238 0.031163,0.01233 0.046797,-0.03704 0.077995,0.02471 0.031198,0.06164 0.054597,0.09862 0.077995,0.160261 0.023399,0.06164 0.07803,0.06164 0.08583,0.160317 0.0078,0.09862 0.023399,0.0864 0.023399,0.172644 0,0.08635 0.031198,0.123333 0.054631,0.148044 0.023364,0.0246 0.1091934,0.147879 0.1091934,0.147879 l 0.117028,0.03704 0.093628,0.111005 0.1015329,0.04915 z"
         id="imagebot_10" />
      <path
         style="fill:#2e4e72;fill-opacity:1;stroke:#ffffff;stroke-width:0.1;stroke-miterlimit:4;stroke-dasharray:none;stroke-opacity:1"
         inkscape:connector-curvature="0"
         d="m 9.4898283,3.9784156 0.468145,-0.092486 c 0,0 0.1638247,0 0.2457717,-0.092486 0.08191,-0.092486 0,-0.092486 0.245772,-0.166453 0.245772,-0.074022 0.175576,-0.1110051 0.30432,-0.074022 0.12871,0.037038 0.163825,0.037038 0.304286,0.074022 0.140426,0.036984 0.175541,-0.018464 0.304251,0.036984 0.128744,0.055503 0.187257,0.036983 0.292603,0.036983 0.105312,0 0.16386,0 0.327684,0 0.16386,0 0.316002,-0.1479887 0.374517,-0.055503 0.05851,0.092486 0.09363,0.055503 0.292603,0.092486 0.19894,0.036984 0.280888,-0.037038 0.362799,0 0.08195,0.036984 0.222409,-0.018464 0.386233,0 0.163825,0.018464 0.245772,-0.018464 0.304286,-0.018464 0.05851,0 0.116993,-0.1295243 0.198939,-0.018519 0.08195,0.1110051 0.187259,-0.036983 0.198941,0.1110051 0.01172,0.1479887 0.163859,0.036983 0.01172,0.1479887 -0.152143,0.1110051 -0.128745,0.092486 -0.234091,0.2404746 -0.10531,0.1479887 0.07023,0.2774582 -0.152142,0.4069824 -0.222373,0.1294696 -0.257488,-0.074022 -0.316003,0.1479887 -0.05851,0.2219555 0,0.2774581 -0.01168,0.3884633 -0.01172,0.1109504 -0.03511,0.1294695 -0.105346,0.2219555 -0.0702,0.092486 -0.0702,0 -0.234055,0.055503 -0.163859,0.055503 -0.280887,0.1110052 -0.351083,0.1110052 -0.07023,0 -0.222373,0.092486 -0.269205,0.1294695 -0.04683,0.037038 0.08195,0.092486 -0.16386,0.2034912 -0.245771,0.1110052 -0.30432,0.092541 -0.374515,0.2404747 -0.07023,0.1480434 -0.04683,0.1665625 -0.09363,0.2590485 -0.04683,0.092486 -0.187257,0.462485 -0.257488,0.369999 -0.0702,-0.092486 -0.105345,-0.074022 -0.16386,-0.1665077 -0.05851,-0.092486 -0.09363,-0.2219556 -0.128744,-0.2959773 -0.03511,-0.074022 -0.04683,-0.2589938 -0.05851,-0.369999 -0.01168,-0.1110051 -0.117063,-0.3699441 0,-0.3329607 0.117027,0.036983 0.187257,0.018519 0.222373,-0.018464 0.03512,-0.037038 0.07023,-0.1665078 0.07023,-0.1665078 0,0 -0.01168,-0.2034912 -0.04683,-0.3144963 C 11.40914,4.958889 11.43258,4.8664029 11.37406,4.7554526 11.31555,4.6444474 11.31555,4.6629666 11.2336,4.5519614 11.15169,4.4409562 11.17509,4.3854536 11.046342,4.3669893 c -0.128744,-0.018464 -0.16386,-0.074022 -0.210691,-0.055503 -0.0468,0.018464 -0.19894,-0.1295243 -0.03512,-0.1479886 0.16386,-0.018519 0.316003,0.018464 0.316003,0.018464 0,0 0.210656,-0.1479886 0.14046,-0.166453 -0.0702,-0.018519 0.105311,-0.1850268 -0.05851,-0.1295243 -0.16386,0.055503 -0.351083,0.1295243 -0.397915,0.1479887 -0.0468,0.018464 -0.163859,0.036983 -0.280887,0.092486 -0.116993,0.055503 -0.257488,0.037038 -0.327684,0.1665078 -0.07023,0.1294695 0,0.1479886 -0.07023,0.1294695 -0.0702,-0.018464 0.05851,-0.1294695 -0.105311,0 -0.1638643,0.1295242 -0.1170318,0.111005 -0.1989445,0.074022 -0.081947,-0.036983 -0.1404608,-0.092486 -0.1404608,-0.092486 0,0 0.1053806,-0.018519 -0.046798,-0.036983 C 9.4781117,4.3485241 9.4781117,4.3485241 9.4195979,4.2374642 9.3610838,4.126459 9.396199,4.126459 9.4312799,4.0894755 c 0.03515,-0.037038 0.058548,-0.1110599 0.058548,-0.1110599 z"
         id="imagebot_11" />
      <path
         style="fill:#2e4e72;fill-opacity:1;stroke:#ffffff;stroke-width:0.1;stroke-miterlimit:4;stroke-dasharray:none;stroke-opacity:1"
         inkscape:connector-curvature="0"
         d="M 9.2323399,4.8108448 C 9.1738261,4.9033308 9.0333653,5.0328551 9.0685155,5.0883577 9.1036307,5.1438603 9.1270286,5.3473515 9.1972594,5.2918489 9.2674551,5.2363463 9.1855427,5.0513742 9.4547131,5.1993629 9.7239182,5.3473515 9.7004846,5.1808985 9.7589987,5.4028541 9.8175125,5.6248096 9.86431,5.7912626 9.8291948,5.84682 9.7941139,5.9023225 9.7823973,5.9578251 9.665335,6.0133277 9.5483071,6.0688303 9.5014756,6.142852 9.5834223,6.2352832 c 0.081913,0.092486 0.2340902,0.1849721 0.3042856,0.2405295 0.070231,0.055448 0.2808881,0.074022 0.1755421,-0.1109504 -0.1053456,-0.1849721 0.0234,-0.2405294 0.0234,-0.2405294 0,0 0.198975,0.2405294 0.128779,-0.036983 -0.07023,-0.2774581 -0.117062,-0.2774581 -0.07023,-0.2774581 0.04683,0 0.140426,0.092486 0.140426,0.092486 L 10.332455,5.7543887 10.285623,5.513914 10.13348,5.2734394 c 0,0 0.12871,-0.1849721 -0.04683,-0.2219556 C 9.9111068,5.0145004 9.9227888,5.0145004 9.8291598,4.9219595 9.7355304,4.8294735 9.7238488,4.79249 9.5482728,4.8479926 9.3727318,4.9034952 9.3142176,4.9404786 9.3142176,4.9404786 L 9.2323399,4.8108448 Z"
         id="imagebot_12" />
      <path
         style="fill:#2e4e72;fill-opacity:1;stroke:#ffffff;stroke-width:0.1;stroke-miterlimit:4;stroke-dasharray:none;stroke-opacity:1"
         inkscape:connector-curvature="0"
         d="m 6.6224791,5.0328551 c 0.07023,-0.1110052 0.2574884,-0.3699442 0.3277188,-0.2959772 0.070196,0.073967 0.1755067,-0.055503 0.2574538,0.055503 0.081913,0.1110052 0.175541,0.2404747 0.2457718,0.2774582 0.07023,0.036983 0.1521428,-0.092486 0.2223732,-0.036983 0.070196,0.055503 0.3159672,-0.2774581 0.2691704,-0.018464 -0.046832,0.2589938 0.058514,0.3329607 -0.07023,0.3514798 C 7.7459925,5.3843897 7.6055663,5.5323784 7.5470182,5.4768758 7.488504,5.4213732 7.4416726,5.3658706 7.3480432,5.4398923 7.2544142,5.5138592 7.301246,5.5138592 7.1959001,5.4768758 7.0905894,5.4398923 7.0671909,5.5138592 7.0437919,5.4583567 7.020359,5.4029089 6.9501636,5.4213732 6.9618452,5.2548654 6.9735272,5.0884125 7.0086424,5.1068768 6.938412,5.1068768 c -0.070195,0 -0.1287096,0.018519 -0.1755414,-0.036983 -0.046797,-0.055503 -0.1403915,-0.037038 -0.1403915,-0.037038 z"
         id="imagebot_13" />
      <path
         sodipodi:nodetypes="cc"
         inkscape:connector-curvature="0"
         id="path3775"
         d="m 16.000001,1.0775636 c 9.466985,4.6995561 8.114558,22.3228934 0,25.8475614"
         style="fill:none;stroke:#ffffff;stroke-width:0.60000002;stroke-linecap:butt;stroke-linejoin:miter;stroke-miterlimit:4;stroke-opacity:1;stroke-dasharray:none" />
      <path
         inkscape:connector-curvature="0"
         id="path3773"
         d="m 1.1233094,14.001344 29.7533836,0"
         style="fill:none;stroke:#ffffff;stroke-width:0.60000002;stroke-linecap:butt;stroke-linejoin:miter;stroke-miterlimit:4;stroke-opacity:1;stroke-dasharray:none" />
      <path
         sodipodi:nodetypes="cc"
         inkscape:connector-curvature="0"
         id="path3773-1"
         d="m 2.9490863,6.9344511 c 7.5735877,1.009556 18.3930007,1.009556 25.9665897,0"
         style="fill:none;stroke:#ffffff;stroke-width:0.60000002;stroke-linecap:butt;stroke-linejoin:miter;stroke-miterlimit:4;stroke-opacity:1;stroke-dasharray:none;display:inline" />
      <path
         sodipodi:nodetypes="cc"
         inkscape:connector-curvature="0"
         id="path3773-4"
         d="m 2.9490863,21.068234 c 7.5735877,-1.009555 18.3930007,-1.009555 25.9665897,0"
         style="fill:none;stroke:#ffffff;stroke-width:0.60000002;stroke-linecap:butt;stroke-linejoin:miter;stroke-miterlimit:4;stroke-opacity:1;stroke-dasharray:none;display:inline" />
      <path
         sodipodi:nodetypes="cc"
         inkscape:connector-curvature="0"
         id="path3777"
         d="m 16.000001,1.0775636 c -8.1145594,3.5246672 -9.4669857,21.1480034 0,25.8475614"
         style="fill:none;stroke:#ffffff;stroke-width:0.60000002;stroke-linecap:butt;stroke-linejoin:miter;stroke-miterlimit:4;stroke-opacity:1;stroke-dasharray:none" />
      <ellipse
         id="path3003"
         style="fill:none;stroke:#6e96c4;stroke-width:1.34144199;stroke-miterlimit:4;stroke-opacity:1;stroke-dasharray:none"
         transform="matrix(1.2561421,0,0,1.0872616,22.464896,-1.0130118)"
         d="M 6.9656949,13.809332 A 12.112323,12.156691 0 0 1 -5.1466279,25.966022 12.112323,12.156691 0 0 1 -17.258951,13.809332 12.112323,12.156691 0 0 1 -5.1466279,1.6526413 12.112323,12.156691 0 0 1 6.9656949,13.809332 Z"
         sodipodi:type="arc"
         sodipodi:ry="12.156691"
         sodipodi:rx="12.112323"
         sodipodi:cy="13.809332"
         sodipodi:cx="-5.1466279" />
    </g>
    <path
       inkscape:connector-curvature="0"
       d="m 23.017552,27.078622 -0.600237,-0.775629 -1.233818,-1.57342 -1.233819,-1.57342 -0.900353,-1.174524 c -0.233425,-0.709147 -1.200472,-1.218846 -2.334251,-1.218846 -1.333859,0 -2.400945,0.709146 -2.400945,1.57342 0,0.08864 0,0.177287 0.03334,0.265929 H 13.78058 c 0.03334,-0.08864 0.03334,-0.177286 0.03334,-0.265929 0,-0.864274 -1.067085,-1.57342 -2.400943,-1.57342 -1.13378,0 -2.1008264,0.531859 -2.3342514,1.218846 l -0.9003538,1.152364 -1.2338181,1.57342 -1.2671651,1.59558 -0.600236,0.775629 c -0.6335824,0.509699 -1.0337398,1.152363 -1.0337398,1.861511 0,1.595581 1.9674403,2.903069 4.4017305,2.903069 2.4342897,0 4.4017307,-1.307488 4.4017307,-2.903069 0,-0.199449 -0.03334,-0.398896 -0.100045,-0.598343 0.333464,0.199447 0.800314,0.310252 1.300511,0.310252 0.500196,0 0.9337,-0.110807 1.300511,-0.310252 -0.0667,0.199447 -0.100045,0.398894 -0.100045,0.598343 0,1.595581 1.967441,2.903069 4.401731,2.903069 2.434289,0 4.401731,-1.307488 4.401731,-2.903069 0,-0.709148 -0.400158,-1.373973 -1.033741,-1.861511 z m -14.5723961,3.70086 c -1.5339361,0 -2.8011009,-0.81995 -2.8011009,-1.839349 0,-1.019399 1.2671648,-1.839351 2.8011009,-1.839351 1.533936,0 2.8011021,0.819952 2.8011021,1.839351 0,1.019399 -1.2671661,1.839349 -2.8011021,1.839349 z M 14.047358,27.78777 c -0.366811,0 -0.666928,-0.199449 -0.666928,-0.443218 0,-0.24377 0.300117,-0.443217 0.666928,-0.443217 0.366811,0 0.66693,0.199447 0.66693,0.443217 0,0.243769 -0.300119,0.443218 -0.66693,0.443218 z m 5.602202,2.991712 c -1.533936,0 -2.8011,-0.81995 -2.8011,-1.839349 0,-1.019399 1.267164,-1.839351 2.8011,-1.839351 1.533937,0 2.801102,0.819952 2.801102,1.839351 0,1.019399 -1.267165,1.839349 -2.801102,1.839349 z"
       id="path4981"
       style="stroke-width:0.27184284" />
  </g>
</svg>
