<svg height="24" width="24" xmlns="http://www.w3.org/2000/svg"><g transform="translate(0 -8)"><g transform="matrix(.75006372 0 0 .75006372 -.00102 8)"><path d="m6.9656949 13.809332a12.112323 12.156691 0 0 1 -12.1123228 12.15669 12.112323 12.156691 0 0 1 -12.1123231-12.15669 12.112323 12.156691 0 0 1 12.1123231-12.1566907 12.112323 12.156691 0 0 1 12.1123228 12.1566907z" fill="#aec7e2" stroke="#2e4e72" stroke-width="1.341442" transform="matrix(1.2561421 0 0 1.0872616 22.464897 -1.013012)"/><g stroke="#fff"><path d="m14.370253 10.736582-.117061.246611-.078.123333-.156025.135606-.02343.111005s-.06243.09868-.0546.160372c.0078.06169.0078.172644.0078.172644s-.109228.160316-.15606.209627c-.04683.04931-.109263.160317-.109263.160317s-.039.07402-.0624.09868c-.0234.0246-.0624.09862-.09363.172644-.03123.07402-.06243.123279-.07803.160262-.0156.03698-.06243.123333-.08583.258993-.0234.135716-.08583.295978-.08583.295978l-.01563.06164c.0078.209683.0078.246666.02343.320688.0156.07397.03123.04926.0156.209628-.0156.160262-.0156.221955-.0312.295977-.0156.07391-.06243.209573-.078.271322-.01563.06164.0312.172589.0312.172589s.02343.160371.0078.197355c-.0156.03704.0078.111005.0078.111005s.09363.08629.124861.135661c.0312.04931.08583.123333.09363.160316.0078.03704.07023.209682.07803.246666.0078.03698.07023.17259.08583.209628.0156.03704.09363.172698.09363.172698s.101428.123224.124861.17259c.0234.04931.09363.07397.116993.110951.02343.03698.07803.0246.109228.06169.03123.03698.09363-.02471.124863 0 .0312.02465.117061-.02466.140461-.04931s.07799-.11095.117026-.07402c.039.03693.0624 0 .09363.01233.03116.01233.07799-.04926.109193-.04926.03123 0 .109228-.04937.132626-.04937.02343 0 .101464-.07408.132696-.07408.03116 0 .0702-.0492.109194-.0246.039.0246.0234-.04926.09363-.01233s.09363 0 .117028.03693c.02343.03704.05467.00011.07806.04942.0234.04926.0624.08624.0702.135606.0078.04937.0546.09873.0546.09873l.04683.01227s.06246-.07397.07803-.0246c.0156.04931.08583.03704.08583.03704l.0702.123278.02343.04931s.04683.197355.039.271322c-.0078.07397-.0078.234284-.0312.271266-.0234.03704-.039.197355-.039.197355s-.03123.04931.039.147989c.07023.09873.117062.184972.14046.234229.02343.04937.08586.185081.09359.271376.0078.08629.02343.135605.05467.246611.0312.111005.0702.123333.078.246721.0078.123279.0234.123332.0156.209573-.0078.08635-.0312.09868-.0078.160316.0234.06169.05456.172699.04683.209682-.0078.03698-.02343.197301-.02343.197301l-.0156.07402-.0702.209738-.04683.110894c-.0156.0863-.0468.172645-.039.295978.0078.123332-.039.123278.0234.246557.06243.123386.09359.259048.132626.370053.03903.11095.06243.221955.0702.295923.0078.07402.03903.09873.05463.197354.01556.09868.0234.147934.0234.209627 0 .06164-.0078.22201.0078.258995.01556.03698.0234.148043.0312.197354.0078.04937-.02343.06169.0234.148043.04683.0863.07803.135607.109228.197301.0312.06169.0234.03698.04683.123333.0234.08629.0546.135715.06243.209627.0078.07397.01556.258938.039.345289.0234.08635.0546.172699.0546.172699s.08586.08629.117062.07397c.03116-.01233.09363-.123223.140461-.08629.04683.03698.08583 0 .124827 0 .039 0 .07803-.07402.117062-.07402.039 0 .0936-.09868.124862-.07397.0312.0246.07016-.02476.109194-.0864.03903-.06158.06243-.110895.132626-.209571.07023-.09868.06243-.09873.109228-.160372.04683-.06169.09366-.197355.148261-.22201.0546-.02465.07019-.110897.0858-.172589.01563-.06169.0234-.09868.04683-.148045.02343-.04926.0078.01249.04683-.147933.03903-.160371.0859-.221955.124897-.258993.039-.03699.06239-.110952.08579-.123333.0234-.01238.06243.03698.04683-.07402-.01556-.11095 0-.271267-.01556-.308251-.01563-.03709-.03907.08624-.03123-.09878.0079-.184918.09363-.369946.09363-.369946s.117028-.234283.15606-.271266c.03903-.03698.0468-.07397.101463-.123333.05456-.04926.171625-.172589.171625-.234283 0-.06169.04683-.222011.04683-.259049 0-.03698 0-.07397-.01557-.283649-.01563-.209574.01557-.160317-.03123-.357617-.0468-.197299-.05466-.443966-.08583-.505605-.03123-.06169-.01563-.222064-.01563-.271321 0-.04931.05467-.172645.07806-.221956.0234-.04937.124828-.246721.124828-.246721s.156024-.283594.210656-.4192c.05463-.135715.109229-.258993.148226-.308305.03903-.04931.132661-.160426.187259-.283705.05463-.123278.163858-.357561.171692-.394654.0078-.03693.07016-.160262.07016-.160262s.08583-.160372.101463-.246666c.01556-.08635.09356-.567299.07796-.542642-.01553.02471-.109193.04931-.140426.06164-.03116.01238.04687.06164-.179458.03704-.226221-.02471-.343249.03698-.343249.03698-.07026-.02471-.124861.09862-.148295-.07402-.0234-.17259-.03903-.271268-.0858-.394601-.04683-.123333-.07807-.172645-.148225-.333015-.0702-.160262-.06247-.08635-.124896-.209573-.0624-.123333-.07803-.0864-.117028-.246666-.039-.160317-.0702-.09862-.117028-.320632-.04683-.222066-.07803-.246722-.101429-.37-.02343-.123278-.0546-.160371-.07023-.271322-.0156-.111005-.195023-.678248-.218456-.715287-.02343-.03693-.06243-.234338-.05463-.1973.0078.03698.117061.160316.117061.160316s.0624-.03704.08583-.03704c.0234 0 .117028.135716.117028.184973 0 .04937.163929.283703.202892.456348.039.172644.0859.295976.09363.345288.0077.04931.08583.246666.117062.320688.03116.07402.132591.221955.148191.295978.0156.07402.163894.320632.163894.480949 0 .160316.07016.369944.07799.419255.0078.04931.148226.111059.148226.111059l.187292-.07402s.280853-.283704.312086-.283704c.03116 0 .280922-.184973.280922-.184973s.101393-.147933.171589-.234228c.07023-.08635.148259-.246611.163895-.320687.01556-.07402.0468-.08629.109192-.197355.06243-.111005.148262-.221956.09366-.295977-.05463-.07397-.08586-.04931-.16386-.172645-.07803-.123278-.07023-.09862-.124861-.258993-.05463-.160262.0078-.345289-.109264-.160262-.116993.184972-.0702.234283-.187257.271376-.116993.03693-.163861.160262-.218457.03693-.0546-.123333-.109194-.04931-.14046-.234338-.0312-.184972-.05463-.197355-.0624-.271267-.0078-.07402 0-.07402-.06243-.259048-.0624-.184973-.0156-.468623.0234-.308306.03903.160317.101429.184972.202892.295978.101393.110951.14826.197354.241854.209683.09363.01227.171659 0 .187259.0246.0156.02471.0312-.01227.07023.01233.03903.02471.05456-.03693.0702.06164.0156.09868.10143.111005.140428.172644.03903.06164.03903.03704.140494.06164.101464.02471.241924.02471.241924.02471l.14819-.01238.17166.0246s.124898.111005.156061.111005c.0312 0 .039.135716.117026.209683.07803.07402.09363.08629.140427.172644.0469.08635.03903.123333.101428.209628.06246.0864.163929-.01227.179528-.0492.01553-.03704.09356-.09868.07803 0-.01563.09862.07796.06158.05456.295976-.0234.234228-.03903.172589 0 .332961.039.160317.210656.653594.218491.801582.0078.147989.0546.09868.0624.234393.0078.135607.0546.184917.0546.283595 0 .09868.05467.123278.06243.197355.0079.07402.09366.01227.117063 0 .02343-.01238.132626-.172699.132626-.172699s.0469-.0246.03903-.147989c-.0078-.123224 0-.09862 0-.283595 0-.184973-.0468-.184972-.0234-.369889.0234-.184973.08579-.296032.101427-.382327.0156-.08629.07803-.234283.109194-.246665.0312-.01233.202893-.147935.241924-.234339.039-.08629.101429-.184972.163859-.283595.0624-.09862.171624-.221956.195058-.184972.0234.03698.0156.02466.05463.02466.039 0 .109228.04937.163826.06169.05463.01233.163892.221955.187293.33296.0234.111006.0078.0863.09363.246666.08583.160262.163859.06158.163859.25894 0 .197355 0 .184971.03903.258993.039.07402.0858-.135661.132592-.11095.0468.02471.0546-.02466.0936.172644.039.197354.0624.197354.07026.394655.0078.1973-.0078.01233-.0078.172589 0 .160371-.0078.172699.0078.320634.01557.148097.07013.197409.0624.222064 0 0 .0468-.209628.03116-.357671-.01553-.147934 0-.357562.03903-.419201.039-.06175.07806-.123332.109228.03698.03123.160262.04683.03698.117029.221955.07026.185027.13266.147934.140461.234284.0078.08635.0469.09873.101427.172644.05463.07402.101429-.01227.163859-.08629.06247-.07402.234056-.345344.241924-.456348.0078-.110951.078-.08635-.04687-.36989-.124861-.283649-.124861-.382326-.257488-.554971-.132558-.172644-.210623-.184972-.10916-.406983.101429-.222009.148262-.369944.210658-.308249.06243.06164.171589.04926.171589.295976 0 .246612-.0312.517934.07803.221956.109228-.295977.163895-.468621.132626-.4192-.03116.04931.07023-.09868.07023-.09868s.0078-.111004.140497-.160316c.132593-.04942.17159-.07402.218456-.111005.0468-.03704.179459-.283704.202857-.394655.0234-.111006.08583-.308305.07023-.3946-.0156-.0864-.09366-.505605-.109265-.493332-.01556.01238-.0078.01238-.109158-.160261-.101497-.172644-.171694-.295977-.187291-.369999-.0156-.07402-.05463-.08635-.0078-.184972.04687-.09862.07026-.08629.07806-.172645.0078-.08629.07016-.160316-.04687-.09862-.116993.06164-.0312.02471-.132626.01238-.101427-.01238-.366682.08629-.23402-.172645.132593-.258994.171555-.4192552.194988-.4192552.02347 0 .140495-.2096825.14826-.012383.0078.1973002.0546.1479342.06243.2712672.0078.123333.163859-.135606.163859-.135606s.0546.02466.09359.08629c.03903.06164.03903.258994.03903.258994s-.0312-.06169.05463.03698c.08586.09873.179425.04931.179425.258993 0 .209629 0 .222011.05463.271323.05467.04931.109194.02471.156094-.03698.0468-.06164.124794-.28365.124794-.28365s.0078-.08635-.117029-.209682c-.124827-.123278-.202857-.209573-.249619-.271267-.04687-.06164-.03123-.2466114.01553-.3206879.0469-.074022.07023-.1110052.05463-.2096278-.01563-.098732.02343-.172699.14046-.1603712.117029.012383.140427-.012273.140427-.012273s.02347.024601.02347-.049366.148189-.4193102.109158-.4193102c-.039 0 .0079-.086295-.0156-.2219556-.0234-.1357156.07803-.3452885-.0078-.4439659-.08583-.098677-.109262-.1480434-.163859-.2959772-.0546-.1480434-.04687-.1726443-.249689-.2096825-.202856-.036983-.296485.074022-.343317-.024601-.04683-.098677-.0702.1479339-.101394-.1480434-.0312-.2959773.04683-.4933319.04683-.4933319s.124828-.1232782.155991-.2096278c.0312-.086349.156027-.123333.25756-.061639.101427.061639.249619.049311.374514.086404.124827.036929.117029.1602617.179459 0 .0624-.160426 0-.2343381.0468-.3206876.04687-.08635.101427-.2220104.140425-.1357156.039.086404.117132.1726442.179562.061639.0624-.1109504.0858-.1232782.0858-.1232782l.03113.049366s.07023-.061749.07023.049202c0 .11106.07026.234393.03123.3206877-.03907.086404-.09359.074022-.09359.2836495 0 .2097373 0 .172699.08576.3453981.08586.1725894.140461.024601.156061.2096277.01563.1849721.03116.1480434.11706.2713216.08583.1232782.07016.1232782.132628.1972999.06243.074022.09366.1480434.09366.02471 0-.1233329.0078-.184972 0-.2959772-.0079-.1109504.06243-.1973547.01553-.3823268-.0468-.1849721-.0078-.1726443-.101393-.3083051-.09366-.135606-.156094.024711-.187223-.1726442-.03123-.1972999.148192-.2836495.195058-.3083051.0468-.024601.116957-.1726443.132556-.073967.01563.098623-.116993.4562937.109298.073967.226221-.382272.124828-.2219556.124828-.2219556s.117027-.024656.140424 0c.02336.024711.0859-.1110051.0624-.098623-.0234.012383-.249583-.1973547-.249583-.1973547l-.163838-.1479415s.05466-.061694.09366-.049311c.03903.012328.04687-.123333.0859-.1357156.039-.012328.30425.086404.358916.1357156.0546.049311.24962.061639.226186.036983-.0234-.02471-.14819-.1726442-.156025-.2220103-.0078-.049311-.280888-.1479886-.366682-.1356608-.08586.012273-.163825.049257-.234055.012273-.07027-.036983-.171658-.1356608-.226289-.1356608-.0546 0-.741199-.2096277-.772397-.1972999-.0312.012328-.07807.2466112-.101464.2096277-.0234-.036983-.06239-.037038-.171694-.086349-.109158-.049311-.257453-.086349-.452545-.1109504-.195022-.024656-.327615.024656-.382246-.074022-.05463-.098622-.171624-.061639-.304286-.074022-.132626-.012273-.288687 0-.358917 0s-.234019-.012273-.273053-.024656c-.03903-.012383-.08583-.098677-.132626-.1109504-.04687-.012383-.03907-.036983-.132661-.061639-.09363-.02471-.08583-.1849721-.117028-.049366-.0312.1357156-.01563.098677-.06243.1479886-.04683.049366-.09363.1479887-.124864.1479887-.03116 0-.15599.012328-.179456-.012328-.02343-.024656-.06243-.049311-.140461-.049311-.07803 0-.07803.012273-.179458-.012383s-.179459-.012383-.27309-.086295c-.09363-.074022-.09363-.123333-.171658-.1110051-.07796.012383-.07796-.024656-.187259-.024656-.109192 0-.241818.098677-.312085.1110052-.07016.012328-.226221-.012383-.280852-.049366-.05466-.036983-.07023-.1232782-.273121-.086349-.202859.037038-.319885.037038-.280887-.061639.03903-.098623.08583-.1972999.109228-.2096277.02343-.012328.07799-.073967.03896-.098623-.03896-.02471-.078-.061639-.17159-.074022-.09366-.012328-.0859.049311-.226291.024656-.140425-.024656.07803-.086295-.210621-.073967-.288687.012383-.358917.049311-.390116.049311-.03123 0-.07026-.098623-.14826.049311-.07803.1479886-.187327.2342833-.343317.2466112-.156025.012383-.163859-.024656-.312051.061639-.14826.086295-.241924-.024656-.210692.1726442.03116.1972999.07023.2713216.07023.3083051 0 .036983-.07023.2836494-.156025.1356608-.0859-.1479886-.241924-.7276153-.171693-.3329607.07019.3945998.226221.5303154.07803.5919545-.148226.061639-.132697-.024656-.156094-.049366-.02336-.024656 0-.1972999-.0078-.2959772-.0078-.098623-.0234-.1603165-.0546-.2096277-.03116-.049366-.02343-.123333-.08583-.1479887-.06243-.024656-.0078-.074022-.109229-.074022-.101428 0-.187223-.098677-.163824.123333.02336.2219556.04676.074022.109159.2836494.0624.2096278.179458.061639.09366.2096278-.08583.1479886-.312085.098677-.366716.037038-.05463-.061694-.039.024656-.140495-.086349-.101429-.1110052-.07016-.1973547-.187189-.1110052-.117028.08635-.15606.246666-.202891.1849721-.04683-.061694-.156026.086295-.195058.012383-.03903-.074022-.195092-.074022-.226256 0-.03123.073967-.124862.061639-.257488.1603165-.132627.098623-.09367.012273-.257489.2219555-.163894.2096277-.257523.382272-.312085.2466112-.05463-.135606-.351152-.3699442-.23409-.4069824.117063-.036983.171659-.1109504.23409-.024656.06243.086295.163894.061694.179424 0 .0156-.061694.08586-.123333-.0078-.1972999-.09363-.074022-.101428-.02471-.249654-.1110051-.14826-.08635 0-.061639-.202891-.1110052-.202858-.049311-.288722-.073967-.343319-.098623-.05456-.024656-.132626 0-.210622-.012328-.07807-.012328-.132626-.036983-.202891-.024656-.0702.012328-.109193-.012328-.202857.098677-.09366.1110052-.163895.1603165-.226291.2466112-.0624.086295-.226221.2589938-.273052.3206877-.04683.061639-.210691.258939-.226291.3329607-.0156.074022.0156.1356608-.04683.1849721-.06243.049311-.124827.049311-.171659.061639-.04683.012328 0-.1110052-.04683.012328-.0468.123333-.0312.5672989.0078.505605.039-.061694.0156-.258939.187258-.073912.171659.1849173.280922.1602616.273088.3329059-.0078.1726443.117027.1603164.132626.1973547.0156.036929.09363-.049366.09363-.049366s.171659-.1726443.171659-.258939c0-.086349.109228-.2836494.109228-.2836494s-.07806-.061639-.07806-.1849721c0-.1232782.02347-.1603712.03903-.2837042.0156-.1232782-.08583.0000548.14826-.2343382.23402-.2342834.249655-.073912.249655-.073912s.03116.049311-.0078.1232782c-.039.074022-.109228.2713764-.124827.2959772-.01563.024711.07023.2220104.109194.2220104.03903 0 .117062-.049366.163894-.037038.04683.012383.124826-.036929.148226-.012273.02343.024656.07803.098623.039.1603164-.039.061639-.124862.1356061-.187223.1110052-.06246-.024601-.156095-.1973547-.101463.049311.05463.246666-.0078.3083051-.05463.2959772-.04676-.012328-.148226-.135606-.132626.049366.01563.1849173-.101394.3082503-.124828.3082503-.02343 0-.0702-.012328-.0702-.012328s-.07026-.012383-.109228-.012383c-.03903 0-.117061.061639-.140461.1110051-.02343.049311-.05463.012383-.09363.012383s0-.074022-.07803-.098677c-.07799-.024656-.124826-.049311-.171623 0-.04683.049311-.117028.073967-.148261.036983-.0312-.036983.01563-.1233878-.04683-.073967-.0624.049311-.109228.1849721-.132628.1973547-.0234.012273.07023 0-.0234.012273-.09363.012383-.132627.049421-.179458.074022-.04683.02471.0156.1726442-.07023.2219555-.08583.049311-.02336-.061639-.109228.049311-.08583.1110599-.101463.2096825-.132626.2220103-.03123.012383-.0234.036983-.09363.049311s-.06239.024656-.101463.036984c-.039.012328.0078.037038-.07799.012328-.08586-.024656-.14826.02471-.132661.074022.0156.049311.304286.1849721.08583.1726443-.218456-.012328-.148225.049311-.101428.098623.04683.049311.0702.098623.09363.1110052.02343.012328.0624.1603712.0624.1603712s.06243-.012383.02343.073967.0156.1110052-.02343.2220104c-.039.1110051-.039.036983-.0702.061639-.0312.024601-.07803.1110051-.163894.036983-.08583-.074022-.148191-.1110051-.249654-.1232782-.101428-.012383-.03123-.036983-.101428.049257-.07023.086404-.08583.1850269-.078.2959773.0078.1109504.0156.2589934-.0078.3330154-.0234.07397-.0234.147988-.0078.258993.01563.110951.06247.160372.06247.160372s.109228.0246.132627.03698c.0234.01233.07023-.02465.132626.03693.06243.06169.124863.0864.16386.01238.039-.07397.195057-.160316.241924-.234283.0468-.07402.078-.09862.0546-.172644-.0234-.07402.04683-.2589936.08583-.295977.039-.036983.124827-.074022.124827-.074022l.09363-.2219556s.07803-.1357156.117026-.123333c.039.012328.257454.1357156.24189-.024601-.0156-.1603713.0156-.2096825.039-.1480434.0234.061639.08583.036983.08583.036983s.0312-.024601.0546.012383c.0234.036929.0546.1973547.101429.2342834.04683.037038.08583.074022.117061.098623.0312.02471.06243 0 .124863.086349.0624.08635.124827.1357156.132591.1726443.0079.036983.06247.1233333.06247.1233333s.0546.02466.039.07402c-.0156.04931-.09359.197354-.132627.221955-.03903.02466-.140426-.02471-.101428.02466.03896.04931.09363.111005.117027.07397.02343-.03698.171625-.28365.171625-.28365s-.0078.01233 0-.06169c.0078-.07391 0-.1602615.03903-.1232781.039.037038.06243.08635.07803.037038.0156-.049366.0312-.024655-.0078-.061639-.03903-.037038-.132628-.246666-.179459-.2589938-.04683-.012383-.163894-.1357156-.163894-.1357156s-.02336-.036983-.07799-.135606c-.05463-.098677-.0702-.074022-.08587-.1603713-.01556-.086295-.06243-.1972999.02343-.1726442.08587.024656.140427.1109503.218456.1849721.07803.074022.06247.098623.132662.1726442.0702.074022.07807.1480434.132627.1357156.0546-.012328.117062.049311.117062.1603165 0 .1110051.01556.2342833.03116.2589946.01563.02471.0624.07402.07803.123333.0156.04931.04683.172644.07019.221955.02343.04931.04683.08635.07023.148044.0234.06164.0312-.01238.0546.01233.02343.02466.05463.01227.05463-.03704s.0078-.135661.0078-.135661.109297-.04931.0781-.07402c-.03123-.02466-.124897-.172645-.117062-.221956.0078-.049311 0-.1479342.03896-.1356064.03903.012273.07806.1232784.163894.024601.08583-.098677.187258-.1479887.156025 0-.03116.1479884.0079.1725894 0 .3329614-.0078.160371.03127.111005.0859.197354.0546.08635.09359.09873.132591.123334.03903.02471.10143.01238.163895.02471.06243.01233.101429-.03704.15606-.01233.05456.02465.179423-.01238.202856.01233.02343.02466.117063-.04931.124828.03698.0078.08635.03903-.01233.01563.184973-.0234.1973-.05463.33296-.05463.33296-.08583.258994-.117028.320688-.15606.333015-.03896.01233-.0624.04931-.132591.03698-.07023-.01238-.156061 0-.257489-.03698-.101429-.03704-.288722.03698-.366717-.03704-.07803-.07397-.187257-.01233-.234124-.09862-.0468-.08635-.124792-.07402-.156025-.123333-.0312-.04931-.0468-.184918-.0468.01238 0 .197355-.07023.209628-.08583.308305-.01563.09862.02336.04931-.06247.03698-.08583-.01238-.109228.06164-.234054-.08629-.124863-.147989-.187259-.147989-.249655-.209682-.06246-.06169-.124862.11095-.187258-.0863-.06243-.197354-.14826-.03704-.15606-.197354-.0078-.160371 0-.147933.0078-.246611.0079-.09868.09363-.184972.05463-.221956-.03903-.03698-.0078-.09868-.06243-.06164-.05463.03698-.132627.04931-.195057.08629-.06243.03704.140426 0-.16386.03704-.304285.03698-.390149.0863-.390149.0863s-.0234-.02466-.06243.02466c-.039.04931-.09363.123332-.148224.08635-.0546-.03704-.08583-.02471-.132628-.01233-.04683.01233-.07799-.06164-.132626 0-.05463.06158-.117028.0863-.140461.06158-.02347-.02499-.0625-.123606-.0625-.123606z" fill="#2e4e72" stroke-width=".1"/><path d="m19.590044 18.85119c-.0234.135715-.109228.332961-.109228.332961l-.156095.123334s-.05453.07402-.0858.08635c-.0312.01227-.109228.07402-.109228.07402s-.0702-.02471-.04683.08624c.0234.111005.03123.24672.0234.283648-.0078.03704-.0078.11106-.0078.209738 0 .09862-.0234.221901-.06243.246556-.039.02471-.07803.04937-.07023.135717.0078.08635.0078.345288.0078.345288l.101463.246665s.0312-.03698.09363-.03698c.06236 0 .124827-.08624.124827-.08624s.07027.02455.0624-.111005c-.0078-.135715.03127-.295978.0234-.333016-.0078-.03698.07027-.197354.07027-.234283 0-.03704.07803-.209572.07803-.271321 0-.06164.0546-.160316.0624-.234229.0078-.07408.0156-.246667.0312-.295977.01563-.04931.02343-.09868.02343-.147988 0-.04931 0-.14799 0-.14799l-.05467-.271486z" fill="#2e4e72" stroke-width=".1"/><path d="m25.699294 20.516104c-.0234.04926-.039.579627-.0546.641266-.0156.06164-.04683.382326-.03116.456238.01556.07408.03896.345344.0234.431693-.01563.08629.0078.357617-.03127.345289-.03896-.01238-.05453.01238-.05453.04931 0 .03704.05453.11095.05453.11095s.0937.000055.132696-.01233c.039-.01233.117027-.07402.179458-.07402.06243 0 .101464-.07402.156025-.07402.05463 0 .171694-.06158.202893-.03698.0312.0246.07799-.147988.132626-.11095.05463.03698.171694-.08635.226291-.08635.05456 0 .07803-.135715.14046-.11095.0624.02466.179459-.04931.23409-.01244.05453.03709.140425-.123278.179423 0 .03903.123387.156096.1727.156096.234339 0 .06164-.0079.197354-.0079.197354l.09367-.01238s.14819-.147988.171658-.147988c.0234 0 .07803-.123279.07803-.06158 0 .06158-.04687.197354-.06243.258938-.0156.06169.01556.135716.01556.135716s.0781.06164.04687.172589c-.03123.111006.0078.0864 0 .172645-.0078.08635 0 .04931.03113.09862.03127.04937.08593.135825.132696.123388.04687-.01238.0624-.08629.10143-.04931.039.03698.116993.01233.140391.06169.0235.04926-.148192.172591.148295-.03698.296486-.209737.327615-.259048.366646-.333071.03914-.07397.08593-.147932.117063-.197299.03123-.04931.0079-.03698.10143-.147989.09363-.11095.09363-.06164.179526-.271322.08583-.209572.148192-.283594.163861-.320632.0156-.03704.0468-.04931.05459-.197409.0078-.147935.0702-.283595.0702-.332907 0-.04926.0234-.123223.0156-.209627-.0078-.08635.03123-.209574-.0156-.332906-.04683-.123388.0234-.17259-.04683-.222065-.07023-.04931-.117027-.0246-.132626-.11095-.01563-.08635-.07806-.07402-.101464-.308306-.0234-.234284-.117026-.259048-.117026-.259048s-.09363-.06164-.07023-.08624c.02347-.02471.03123-.197409.02347-.24672-.0078-.04931-.0078-.160316-.0312-.234228-.0234-.07408-.03903-.172644-.06243-.259049-.0234-.08629-.0624-.111005-.07803-.209629-.01563-.09862-.03903-.135715-.0468-.160316-.0079-.02465-.0235-.147933-.03903-.01238-.0156.135661-.04687.3946-.04687.3946s-.06243.209738-.08583.271377c-.0234.06158-.0468.221955-.08579.209571-.03903-.01233-.0625.06175-.09363.04931-.03123-.01238-.07803.01238-.101429-.0246-.0234-.03704-.08583-.135661-.117063-.148045-.0312-.01227-.0546-.110895-.07803-.110895-.02347 0-.06243-.0864-.0546-.135715.0078-.04931.01557-.160262.0234-.209628.0078-.04931.05463-.160372.05463-.160372s0-.07397-.03903-.07397c-.039 0-.04683 0-.13266-.01238-.0858-.01238-.10916-.02466-.140461-.02466-.03113 0 .03127-.02465-.0546.01233-.08579.03709-.124828.135717-.179459.222066-.05453.0863-.0078.06158-.05453.0863-.0469.02471-.03903-.0617-.07026.07402-.03123.135661.01563.172589-.0079.197301-.0234.02471-.187187-.0863-.187187-.0863s.039-.01238.0078-.07402c-.03116-.06169-.0624-.147933-.109159-.11095-.0469.03698-.08593.06169-.117062.123333-.03123.06164-.03123.11095-.05463.160261-.0234.04931-.0858.04931-.09363.09868-.0078.04937-.0078.172644-.03116.184971-.0234.01238-.0312-.0492-.0546-.06158-.0234-.01233-.01563-.111006-.0312-.04931-.0156.06164-.0312.04926-.0546.147934-.02347.09868-.03123.185026-.05463.197354-.0234.01238 0 .02465-.07027.08635-.07016.06164-.08579.06164-.187187.135662-.101393.07402-.07799.07402-.148226.08629-.0702.01238-.08586.04937-.132662.06169-.04687.01233-.078.0246-.124861.09862-.0468.07402-.08579.09862-.116993.111005-.0312.01238-.06257.06175-.06257.06175z" fill="#2e4e72" stroke-width=".1"/><path d="m26.159604 15.644806c-.03116.07408-.132592.295977-.17159.308359-.03903.01227-.07806.07402-.109262.06164-.0312-.01238-.10143 0-.124827.160317-.0234.160317-.06243.246666-.0859.234283-.0234-.01233.039.234284-.09359.135715-.132593-.09868-.0858.08635-.101429.135716-.0156.04926.0234.184973.0312.234284.0079.04931.0312.13566.06243.209572.0312.07402.0546.160317.109228.13577.05463-.02476.226221 0 .226221 0s.0625.03698.101463.03698c.039 0 .04683-.02465.0702-.02465.02336 0 .07019-.123388.06243-.135661-.0078-.01244-.03116-.04937.0156-.123388.04683-.07402.10143-.09862.109264-.184972.0078-.08629-.0156-.08629.0078-.135715.0234-.04931.078-.03687.06243-.0863-.01564-.04931.01556-.03698-.01564-.135715-.03116-.09862-.07023-.13566-.03903-.258994.03123-.123278.0625-.147988.05467-.221955-.0078-.07408.039-.09868-.01564-.185027-.05456-.08624-.078-.110951-.117026-.135716-.039-.02455-.039-.02455-.039-.02455z" fill="#2e4e72" stroke-width=".1"/><path d="m27.688867 16.878082c.03127-.01233.140461-.135661.148296.08635.0078.221955.01553.160262.06243.283594.0468.123334.07793.160427.132559.09873.0546-.06175.117027-.06175.132626-.172644.01563-.111006.01563-.111006.06243-.111006.0469 0 .06243-.01233.08593.03709.02336.0492.03889-.00011.140391.08624.101427.08635.187223.06158.249723.147989.06243.08629.09363.07408.179424.123332.08583.04931.0468-.02465.124825.111005.07807.135606.0469.172589.08583.234284.039.06164.07027-.04937.05463.09862-.01564.147988-.124826 0 .03903.209573.163825.209738.187257.246776.241821.30836.05466.06169.09366.135716.0469.135716-.0469 0-.195092 0-.210656-.03704-.01563-.03699-.08583-.0617-.132696-.14799-.04676-.08624-.148192-.147988-.171556-.221956-.02347-.07408-.05466-.09868-.09366-.09868s-.078.07397-.132662.160315c-.05463.0863-.03113-.04926-.101429-.01233-.07026.03704-.14819-.01238-.187258-.06169-.03903-.04931-.03116-.123278-.09356-.08629-.0625.03698-.10143.01233-.07803-.06164.0234-.07408.0078-.172699.0078-.172699s.02347-.123334-.03113-.147935c-.05463-.0246-.05463-.110949-.109262-.135715-.05466-.0246-.140425-.08629-.140425-.08629s-.0078 0-.03123-.01233c-.0234-.01238-.0234-.01238-.08583-.03698-.0624-.02471-.109263-.00011-.140426-.06169-.03127-.06164-.01563-.14799-.01563-.14799s.124828.02466 0-.123332c-.124827-.147933-.124827-.147933-.124827-.147933s.01553-.01238.0078-.03704c-.0079-.02476.07789 0 .07789 0z" fill="#2e4e72" stroke-width=".1"/><path d="m24.177831 15.854434s.039.06175.10143.04937c.06239-.01238.109158.197299.148259.271266.03896.07402.06243.111006.148226.197356.08579.08629.078-.07402.195058.184971.117027.258939.0624.09868.117027.258939.0546.160481.08583.246721.117027.283814.03116.03698.05463.135551.06246.172589.0078.03698.06236.147934.06236.184973 0 .03698.01564.13566-.03116.221954-.04683.08635-.08586.09868-.08586.09868s-.09363-.07402-.124827-.14799c-.03123-.07397-.0702-.135661-.124862-.283594-.0546-.148043-.117027-.308359-.148225-.382327-.0312-.07408-.07803-.148098-.10143-.22201-.0234-.07408-.08583-.295977-.117027-.320688-.0312-.02471-.03903-.09862-.09366-.184972-.05456-.08635-.0468-.160316-.0702-.209627-.0234-.04931-.07799-.160427-.07799-.160427l.0234-.01227z" fill="#2e4e72" stroke-width=".1"/><path d="m9.0022018 25.473751c-.054631-.049312-.1716589-.135661-.2106566-.184973-.0389976-.049311-.1560256-.320743-.1560256-.320743l-.085864-.258993s-.1013939-.197299-.077995-.271266c.023399-.07402.07023-.123334.07023-.160317 0-.03698.046797-.135716.00776-.172644-.038998-.03704-.038998-.04931-.062431-.160317-.023398-.110951-.023398-.209737-.054596-.234337-.031233-.0246-.054632-.184973-.085829-.197301-.031198-.01238-.062431-.09868-.062431-.09868l-.046831-.998937s-.015634-.456238-.031198-.554971c-.015634-.09862.023398-.30825-.015634-.493278-.038998-.184971.00783-.406928-.015599-.480949-.023399-.07402.015599-.283594-.0078-.480895-.023398-.197301.093629-.443965 0-.517933-.093629-.07408-.023399-.185027-.1014288-.185027-.077995 0-.132626-.06169-.2028567-.147933-.0702265-.086347-.2028881-.246718-.2418858-.308411-.0389976-.061585-.163859-.221956-.2028567-.271268-.0389976-.049312-.0780299-.258994-.109228-.320688-.0311985-.061584-.0467972-.246556-.093629-.357562-.0468319-.110949-.1092281-.295922-.1248622-.33296-.0155987-.036983-.1872576-.357617-.1872576-.357617l.015599-.197299s.1170276-.111005.1014289-.147989c-.015599-.03704.00783-.07408-.046832-.147988-.054631-.07408-.046831-.209737 0-.271322.046832-.06175.1170279-.259048.1170279-.259048l.1170273-.308251s.093664-.160426.093664-.271377.1326263-.184917.054597-.283594c-.07803-.09873-.038998-.185027-.062431-.259048-.023434-.07397-.0078-.123279.062431-.1973.07023-.07402.1950568-.345289.1950568-.345289s.093629-.03704.1170279-.03704c.023399 0 .062431-.394709.1326617-.135716.07023.258995.093629.123333.07023.308305-.023434.184973.031198.148044.062396.09873.031199-.04942-.015634.03698.046798-.185082.062396-.221956.039032-.295923.07803-.234229.038998.06169.054597.07402.1248275.111005.070196.03698.093629.0246.1169929.09862.023399.07402.015634-.02466.1482604.01238.1326259.03704.3198843-.07402.296486.04926-.023399.123332-.07023-.01233.038998.123332.1092284.135716.1248614.160316.187258.185027.062396.02466.1170276.01233.2106912.160317.093629.147933.117028.160316.1404262.234228.023399.07408.062396.02471.1014289.09868.038998.07408.093628.07408.1482257.07408.054596 0 0-.07408.085829.02466.085864.09862.1482604.110895.187258.30825.038998.197464.1170276.185027.054596.382381-.062396.197355-.1872234.28365-.132626.271322.054596-.01238.1560596-.0864.1872577-.07402.031198.01227.046797-.03698.093629 0 .04683.03698.05463-.04931.04683.03698-.0078.08635-.0078 0-.0078.08635 0 .08629-.0156-.08635.07803-.04931.09363.03698.039-.07408.148226.08629.109263.160371.109263.111059.148226.197355.03903.08624.07803-.04926.101463-.01233.02343.03693.09363.01227.163859.03698.07023.0246.0234-.07397.132662.03698.109193.11095.218456.07397.241854.172644.0234.09862.08586.06164.117028.123333.03116.06169.0468-.02471.07803.06169.0312.08624.124863.06159.109228.14788-.01563.0864.02337.03704.0078.160316-.01556.123443-.07023.320742-.116993.37-.04683.04937-.0468.111005-.07803.172644-.0312.06175-.0234-.06164-.06243.111005-.039.172698-.0312.197354-.0624.357615s-.0078 0-.0312.160317-.0078.258995-.0312.44402c-.0234.184918-.0156.184973-.0312.320634-.0156.13566.039-.06159-.03123.221956-.0702.283704-.078.271266-.101394.394655-.02343.123386.0078.02465-.07803.09868-.08583.07408-.039.04931-.140461.09868-.101394.04931-.226256.09873-.265254.111005-.039.01227-.195057.08629-.148225.234228.04683.148043.04683.1727 0 .357725-.04683.184918-.117028.246667-.117028.332907 0 .0863-.03123.17259-.039.234284-.0078.06169.0702-.06169-.0234.123333-.093629.184971-.1014286.13566-.1326614.246666-.031198.11095 0 .0246-.031198.11095-.031198.08629-.109228.123278-.109228.123278s.00777.06169-.023433.03704c-.031233-.0246-.023399.01233-.1404609-.03704-.1170275-.04931-.1326263-.172534-.1482257-.08629-.015599.08629.0078.135715.07803.22201.070196.08635.1872576.11095.1560249.197355-.031198.08635-.031198.08635-.054596.135661-.023433.04937.031199.01233-.023433.04937-.054596.03698-.08583.197354-.1092281.197354-.023399 0-.039033.06164-.07023.03698-.031198-.02471-.1091931-.111005-.1248271-.06169-.015599.04926-.046832-.06169-.039032.110951.00783.172644.023434.271321-.015599.308359-.038998.03698-.1326613 0-.1326613 0l-.015599-.06169-.054597.02466s-.023398.147988.0156.172645c.038998.02465.031198.04926.070195.123278.039033.07402.015634.209682.015634.209682s0 .03704-.038998.09868-.054631.111005-.062431.147988c-.00783.03698-.054631.197356.0156.184972.070195-.01238.1248614-.07402.1248614.123334 0 .1973.031198.148043-.0078.283649-.039032.135662-.07023.147988-.07803.271268-.00776.123332.00783.13566.023434.209683.015599.07402.054631.03698.015599.07402-.038928.03698-.1559559.000055-.1559559.000055z" fill="#2e4e72" stroke-width=".1"/><path d="m6.9891613 15.435179-.054597-.123278s-.023399-.07408-.062431-.08635-.1248618-.172644-.1248618-.172644-.038998-.04931-.038998-.135607c0-.08635-.031233-.221955-.00783-.369944.023433-.147933.031233-.33296.023433-.382326-.00783-.04931.038998-.06164-.015599-.111005-.054631-.04931-.1638597-.06164-.2340901-.06164-.070196 0-.1560596.03704-.171659.04931-.015599.01233.08583-.369945.1014285-.431584.015599-.06164.08583-.333016.08583-.369944 0-.03704.023399-.04937-.023399-.09862-.046797-.04937-.1248271-.07402-.1716589-.03704-.046797.03704-.038998-.04931-.077995.09862-.038998.148043-.07803.30836-.1248618.333016-.046797.02471-.1404262.09868-.1404262.09868s-.1170275-.01233-.1560599-.02465c-.038998-.01233-.202857-.14799-.2340551-.234284-.031198-.08635-.046797-.271377-.046797-.357616 0-.08635.085795-.345289.077995-.406983-.0078-.06164.085864-.308305.07803-.345343-.00783-.03698.015599-.160316.038998-.209628.023399-.04931.1404608-.111005.1716593-.160316.031198-.04937.085829-.110951.1404261-.135661.054597-.02471.1014632-.04931.1404609-.04931.038998 0 .1404262-.135661.1560252 0 .015634.135606.085864.08629.1248618.09862.038998.01238.046832.07402.109228-.08629.062431-.160372.1248272-.209682.1248272-.1727 0 .03704.1014285-.01227.1170276.02471.015599.03698.046832-.02471.1014285.04931.054631.07402.1326266.08635.1248271.123278-.0078.03698.031199.03698.031199.07402 0 .03698.031233-.08635.031233.135606 0 .222011.038998.357671.038998.357671s.054596.185027.077995.147989c.023398-.03698.070195-.135607.070195-.135607s.07803-.07402.023433-.333014c-.054631-.25894-.015599-.332962-.031198-.41931-.015634-.08635-.015634-.135716.077995-.246666.093629-.110951.3198846-.357617.374516-.406928.054597-.04931.1794238-.184972.1794238-.184972s.046797-.03698.054631-.135661c.0078-.09862.1560249-.271322.1638598-.320633.00783-.04931.1092623-.17259.1092623-.17259s.1091931-.09873.1013939-.1603161c-.0078-.061639.1404608-.1725895.1638591-.1725895.023399 0 .1482607.061584.1482607-.049421 0-.1109504 0-.1356608.07803-.2342834.077995-.098622.1794241-.246666.2184561-.246666.038998 0 .1716596-.1108956.226256-.135606.054632-.02471.2262903-.1480434.07023 0-.1560599.1479339-.054631.061639-.085829.1849721-.031164.1232782-.054632.2836494.093628.098623.1482607-.1849721.1404265-.2220104.1950575-.2342834.054632-.012328.0156.036983.132627-.02471.1170623-.061639.1248618-.086295.1248618-.086295s.054632-.074022.023399-.1109503c-.031198-.037038.031233-.08635-.085829-.012383-.117028.074022-.1092281.08635-.1872584.049311-.077995-.036983-.1950575-.02471-.1092281-.1480434.08583-.1232782.1950576-.1603164.1248272-.2096277-.070196-.049311-.2496543.012383-.2730529.024656-.023433.012328-.07803-.012328-.1248621 0-.046797.012328-.031198-.098568 0-.1232782.031233-.02471.1326617-.098732.2574888-.1480434.1248271-.049311.4291477-.061639.4993431-.061639.070195 0 .1638248.02471.2184567-.036983.0546-.061639.163859-.1602616.179458-.2096825.01563-.049311.07803-.1232782.07803-.1232782s.0702-.1110051.0312-.1603164c-.039-.049311-.07803-.1603165-.109228-.1356608-.0312.024656-.0078.172699-.0702.012328-.06243-.1602617-.05463-.1849721-.08583-.2219556-.0312-.036983-.062431-.012383-.039-.184972.0234-.1726443.0156-.246666.0156-.246666s.0234-.1479339 0-.1602617c-.02343-.012383-.038998-.049311-.077995-.012383-.0390324.0369799-.2574885.2096789-.304286.2466624-.0468315.0369835-.1092624-.1479886-.0858638-.2342834.0234332-.0864043.0077995-.0370382-.0233986-.1603164-.0311978-.123333-.1560256-.1480434-.2028571-.1480434-.046831 0-.1560252-.1110052-.187258-.036983-.031198.073967-.1950228.3082503-.2262903.3329607-.031198.02471-.077995-.2096277-.1013938.1726443-.023433.3823816.085829.4933319-.038998.5179876-.1248271.024656-.2340902.135606-.2340902.135606s-.1013931.012383-.1013931.1110052c0 .098732-.038998.3329607-.085864.3576163-.046797.02471-.1638595-.012273-.2028571-.086295-.038998-.074022.0078-.3452886.0078-.3452886l.07023-.1110051s-.4993424-.1232782-.4915779-.1726443c.00783-.049311-.1482257-.135606-.1638244-.2096277-.0156-.074022-.023434-.2343382-.0078-.2959773.015599-.061639.2262553-.3576163.3354834-.4192554.109228-.061694.2964864-.1972999.3511181-.2220104.054631-.024656.148225-.012328.1794578-.073967.031198-.061694.038998-.1726442.038998-.1726442s-.015599-.1726991.0156-.1480435c.031198.024711.085829.061694.093628.098677.00783.036983.00783.123333.062431.024601.054631-.098623.1248614-.1356608.187258-.1849173.062431-.049366.1560252-.036983.2106913-.086295.054597-.049311.1482257-.098677.1560255-.2220103.0078-.1232782-.023399-.086295-.062431-.098677-.038998-.012273.015599.012383-.1170272.1110052-.132662.098623-.093629.024656-.1872584.098623-.093629.074022-.1014632.08635-.109228.024711-.00783-.061694.015599-.1603165.015599-.1603165s.00783-.012383-.046797-.036983c-.054631-.024656-.054631.012328-.062431-.098623-.0078-.1110052.038998-.2713216-.038998-.2220103-.07803.049311-.148225-.036983-.2028568.2096277-.054631.2466112-.241889.5056598-.2887215.4439659-.046797-.061639-.054596-.074022-.093629-.074022s-.093629-.073967-.1638598-.086295c-.07023-.012328-.280921-.012328-.3354833 0-.054631.012383-.117028-.049311-.1638941.024711-.046797.073967-.116993.1726442-.116993.2096825 0 .036983-.07023-.1357156-.093629-.123333-.023398.012328-.085864-.049311-.1560248-.049311-.070231 0-.117063-.061694-.1404266-.061694-.023399 0 .023364-.098677 0-.1110051-.0234-.012274-.5306113-.036985-.5306113-.036985s-.1638248-.098623-.226221-.086295c-.062431.012328-.2340552.024601-.3667512.061639-.1326613.036983-.3277188.1603164-.390115.1726442-.062431.012383-.2028571.012383-.2262557-.049311-.023433-.061639.0078-.049311-.023433-.061639-.031198-.012273-.00776-.036983-.077995-.1232782-.07023-.086349.031233-.1603164-.1092281-.1603164-.1404261 0-.2262556-.012383-.3510827 0-.1248623.0123281-.3823161.1109507-.4135142.0986229-.0311981-.0123279-.280887.0616938-.3199193.0247104-.0389977-.0370383-.2340899.135606-.2730528.1232782-.0389977-.0123278-.187258.0123826-.2262557.0493661-.0390323.0370382-.2262903.1109503-.1638594.1726442.062396.061639.054597.1232782.062396.1603165.00783.036983-.062396.1232782-.062396.1232782s-.015634 0-.1014285-.049311c-.08583-.049366-.1794585-.073967-.2184908-.036983-.038998.036983-.1092281.11106-.093629.1603713.015634.049311.1248271.1603164.1404608.1232782.015599-.036984.054631-.1109504.1014285-.098623.046832.012383.1170623-.049311.054631.074022-.062431.1232782-.1170622.1849721-.1560599.1973547-.038998.012273-.1326266.024601-.2184561.036983-.085864.012383-.078065-.049311-.1560599.074022-.077995.1232782-.1092281.049311-.1248271.1849721-.015599.135606-.031198.135606 0 .1726442.031198.036983-.062431.049311.0078.086295.070196.037038.1560252.074022.1482257.1109503-.00783.037038.07803-.049256.031198.049311-.046832.098732-.077995.1849721.015599.08635.093629-.098623.1482257-.02471.2262556-.08635.07803-.061639.1560599-.073967.2028571-.1232782.046832-.049366.07023-.1232782.1404608-.1603712.070231-.036983.023399.012383.031198.074022.0078.061639 0 .073967.046832.024601.046797-.049311.046797-.012273.109228-.073967.062396-.061639.1326267-.123333.1794585-.086349.046797.037038.062396.037038.093629.037038.031198 0-.038998-.012383.031198 0 .070231.012273-.031198-.037038.2028571.049311.2340902.086295.2965207.024656.3120855.1603165.015634.1356608.046832-.012383.085829.073967.038998.086295.062431.012383.08583.1603164.023399.1480435 0 .5549711-.015599.6042824-.015599.049311-.023399.049311-.015599.1603164.0078.1109504.1014285.6413206.07023.6782493-.031198.036929-.1014285.049311-.1014285.049311l-.038998.2219556s-.062396.1849721-.1170276.2836494c-.054631.098623-.1248272.2220104-.1638598.3082503-.038998.08635-.07023.234393-.1248271.3206877-.054597.086295-.1014286.049311-.08583.2342834.015599.184972 0 .382272.015599.517988.015634.13566.054631.320634.085829.394654.031198.07397.054631.07397.1092281.135606.054631.06164.1248618.135716.1170276.197355-.0078.06164.0078.444021.0078.444021s.046832.123278.054597.258939c.00783.135715.062431.271322.062431.271322l.046832.16037s.023399.01238.054631.110951c.031198.09868.031198.09868.038998.147935.00783.04942.00783.03704.00783.04942 0 .01227-.00783-.209683-.023433-.271376-.015599-.06164-.015599-.135606-.031198-.209627-.015599-.07402.0078-.160373-.038998-.271322-.046797-.110951-.046797-.123334-.070196-.234339-.023399-.110951-.054631-.234283-.023399-.258994.031198-.0246.054597-.184918.1170276 0 .062396.184972.07023.135716.07803.283704.00776.147989.031198.197356.054597.258939.023399.06164.077995.271377.1092281.357617.031198.08635 0-.04931.070196.123333.070231.172644.078065.209627.1170623.345288.038998.135661.062431.135661.08583.234284.023399.09873.0078.07402-.00783.184971-.015599.110951.015599.234339.015599.234339s.109228.06164.1170272.09862c.0078.03698.1170276.09862.1326617.147987.015599.04937.1170276.110951.1170276.110951s.085829.08635.1169929.111006c.031233.02465.1248964.04937.1248964.04937s.062396.02471.085795.03698c.023399.01233.093629.01233.093629.01233s.062431-.07397.08583-.04931c.023399.0246.07803-.04937.1014286.01227.023398.06169.07023.06169.093629.11106.023398.04931.046797.04931.085829.110951.039032.06164.07803.04931.1170276.09862.038998.04931.070196.04931.1170276.04931.046797 0 .046797 0 .07803.01238.031163.01233.046797-.03704.077995.02471.031198.06164.054597.09862.077995.160261.023399.06164.07803.06164.08583.160317.0078.09862.023399.0864.023399.172644 0 .08635.031198.123333.054631.148044.023364.0246.1091934.147879.1091934.147879l.117028.03704.093628.111005.1015329.04915z" fill="#2e4e72" stroke-width=".1"/><path d="m9.4898283 3.9784156.468145-.092486s.1638247 0 .2457717-.092486c.08191-.092486 0-.092486.245772-.166453.245772-.074022.175576-.1110051.30432-.074022.12871.037038.163825.037038.304286.074022.140426.036984.175541-.018464.304251.036984.128744.055503.187257.036983.292603.036983h.327684c.16386 0 .316002-.1479887.374517-.055503.05851.092486.09363.055503.292603.092486.19894.036984.280888-.037038.362799 0 .08195.036984.222409-.018464.386233 0 .163825.018464.245772-.018464.304286-.018464.05851 0 .116993-.1295243.198939-.018519.08195.1110051.187259-.036983.198941.1110051.01172.1479887.163859.036983.01172.1479887-.152143.1110051-.128745.092486-.234091.2404746-.10531.1479887.07023.2774582-.152142.4069824-.222373.1294696-.257488-.074022-.316003.1479887-.05851.2219555 0 .2774581-.01168.3884633-.01172.1109504-.03511.1294695-.105346.2219555-.0702.092486-.0702 0-.234055.055503-.163859.055503-.280887.1110052-.351083.1110052-.07023 0-.222373.092486-.269205.1294695-.04683.037038.08195.092486-.16386.2034912-.245771.1110052-.30432.092541-.374515.2404747-.07023.1480434-.04683.1665625-.09363.2590485-.04683.092486-.187257.462485-.257488.369999-.0702-.092486-.105345-.074022-.16386-.1665077-.05851-.092486-.09363-.2219556-.128744-.2959773-.03511-.074022-.04683-.2589938-.05851-.369999-.01168-.1110051-.117063-.3699441 0-.3329607.117027.036983.187257.018519.222373-.018464.03512-.037038.07023-.1665078.07023-.1665078s-.01168-.2034912-.04683-.3144963c-.03512-.1110052-.01168-.2034913-.0702-.3144416-.05851-.1110052-.05851-.092486-.14046-.2034912-.08191-.1110052-.05851-.1665078-.187258-.1849721-.128744-.018464-.16386-.074022-.210691-.055503-.0468.018464-.19894-.1295243-.03512-.1479886.16386-.018519.316003.018464.316003.018464s.210656-.1479886.14046-.166453c-.0702-.018519.105311-.1850268-.05851-.1295243-.16386.055503-.351083.1295243-.397915.1479887-.0468.018464-.163859.036983-.280887.092486-.116993.055503-.257488.037038-.327684.1665078-.07023.1294695 0 .1479886-.07023.1294695-.0702-.018464.05851-.1294695-.105311 0-.1638643.1295242-.1170318.111005-.1989445.074022-.081947-.036983-.1404608-.092486-.1404608-.092486s.1053806-.018519-.046798-.036983c-.152142-.0184653-.152142-.0184653-.2106558-.1295252-.0585141-.1110052-.0233989-.1110052.011682-.1479887.03515-.037038.058548-.1110599.058548-.1110599z" fill="#2e4e72" stroke-width=".1"/><path d="m9.2323399 4.8108448c-.0585138.092486-.1989746.2220103-.1638244.2775129.0351152.0555026.0585131.2589938.1287439.2034912.0701957-.0555026-.0117167-.2404747.2574537-.092486.2692051.1479886.2457715-.0184644.3042856.2034912.0585138.2219555.1053113.3884085.0701961.4439659-.0350809.0555025-.0467975.1110051-.1638598.1665077-.1170279.0555026-.1638594.1295243-.0819127.2219555.081913.092486.2340902.1849721.3042856.2405295.070231.055448.2808881.074022.1755421-.1109504-.1053456-.1849721.0234-.2405294.0234-.2405294s.198975.2405294.128779-.036983c-.07023-.2774581-.117062-.2774581-.07023-.2774581.04683 0 .140426.092486.140426.092486l.04683-.1479891-.046832-.2404747-.152143-.2404746s.12871-.1849721-.04683-.2219556c-.1755432-.0369834-.1638612-.0369834-.2574902-.1295243-.0936294-.092486-.105311-.1294695-.280887-.0739669-.175541.0555026-.2340552.092486-.2340552.092486z" fill="#2e4e72" stroke-width=".1"/><path d="m6.6224791 5.0328551c.07023-.1110052.2574884-.3699442.3277188-.2959772.070196.073967.1755067-.055503.2574538.055503.081913.1110052.175541.2404747.2457718.2774582.07023.036983.1521428-.092486.2223732-.036983.070196.055503.3159672-.2774581.2691704-.018464-.046832.2589938.058514.3329607-.07023.3514798-.1287446.0185178-.2691708.1665065-.3277189.1110039-.0585142-.0555026-.1053456-.1110052-.198975-.0369835-.093629.0739669-.0467972.0739669-.1521431.0369835-.1053107-.0369835-.1287092.0369834-.1521082-.0185191-.0234329-.0554478-.0936283-.0369835-.0819467-.2034913.011682-.1664529.0467972-.1479886-.0234332-.1479886-.070195 0-.1287096.018519-.1755414-.036983-.046797-.055503-.1403915-.037038-.1403915-.037038z" fill="#2e4e72" stroke-width=".1"/><path d="m16.000001 1.0775636c9.466985 4.6995561 8.114558 22.3228934 0 25.8475614" fill="none" stroke-width=".6"/><path d="m1.1233094 14.001344h29.7533836" fill="none" stroke-width=".6"/><path d="m2.9490863 6.9344511c7.5735877 1.009556 18.3930007 1.009556 25.9665897 0" fill="none" stroke-width=".6"/><path d="m2.9490863 21.068234c7.5735877-1.009555 18.3930007-1.009555 25.9665897 0" fill="none" stroke-width=".6"/><path d="m16.000001 1.0775636c-8.1145594 3.5246672-9.4669857 21.1480034 0 25.8475614" fill="none" stroke-width=".6"/></g><ellipse fill="none" stroke="#6e96c4" stroke-width="1.341442" transform="matrix(1.2561421 0 0 1.0872616 22.464896 -1.013012)"/></g><path d="m23.017552 27.078622-.600237-.775629-1.233818-1.57342-1.233819-1.57342-.900353-1.174524c-.233425-.709147-1.200472-1.218846-2.334251-1.218846-1.333859 0-2.400945.709146-2.400945 1.57342 0 .08864 0 .177287.03334.265929h-.566889c.03334-.08864.03334-.177286.03334-.265929 0-.864274-1.067085-1.57342-2.400943-1.57342-1.13378 0-2.1008264.531859-2.3342514 1.218846l-.9003538 1.152364-1.2338181 1.57342-1.2671651 1.59558-.600236.775629c-.6335824.509699-1.0337398 1.152363-1.0337398 1.861511 0 1.595581 1.9674403 2.903069 4.4017305 2.903069 2.4342897 0 4.4017307-1.307488 4.4017307-2.903069 0-.199449-.03334-.398896-.100045-.598343.333464.199447.800314.310252 1.300511.310252.500196 0 .9337-.110807 1.300511-.310252-.0667.199447-.100045.398894-.100045.598343 0 1.595581 1.967441 2.903069 4.401731 2.903069 2.434289 0 4.401731-1.307488 4.401731-2.903069 0-.709148-.400158-1.373973-1.033741-1.861511zm-14.5723961 3.70086c-1.5339361 0-2.8011009-.81995-2.8011009-1.839349s1.2671648-1.839351 2.8011009-1.839351c1.533936 0 2.8011021.819952 2.8011021 1.839351s-1.2671661 1.839349-2.8011021 1.839349zm5.6022021-2.991712c-.366811 0-.666928-.199449-.666928-.443218 0-.24377.300117-.443217.666928-.443217s.66693.199447.66693.443217c0 .243769-.300119.443218-.66693.443218zm5.602202 2.991712c-1.533936 0-2.8011-.81995-2.8011-1.839349s1.267164-1.839351 2.8011-1.839351c1.533937 0 2.801102.819952 2.801102 1.839351s-1.267165 1.839349-2.801102 1.839349z" stroke-width=".271843"/></g></svg>