/* XPM */
static const char * icon[] = {
"22 22 203 2",
"  	c None",
". 	c #323842",
"+ 	c #515969",
"@ 	c #535A6A",
"# 	c #545C6B",
"$ 	c #6999BE",
"% 	c #6A9ABE",
"& 	c #6B9BBF",
"* 	c #709EC3",
"= 	c #73A0C6",
"- 	c #76A2C7",
"; 	c #76A3C8",
"> 	c #75A2C7",
", 	c #729FC5",
"' 	c #6F9DC2",
") 	c #6899BD",
"! 	c #555D6C",
"~ 	c #6D9CBF",
"{ 	c #719FC3",
"] 	c #7AA5CB",
"^ 	c #7CA6CD",
"/ 	c #7EA7CF",
"( 	c #7FA9D0",
"_ 	c #7EA8CF",
": 	c #7DA7CE",
"< 	c #7BA5CC",
"[ 	c #78A3C9",
"} 	c #75A1C6",
"| 	c #6F9DC1",
"1 	c #6C9BBF",
"2 	c #565E6D",
"3 	c #6F9DC0",
"4 	c #73A0C4",
"5 	c #79A5C9",
"6 	c #7DA8CD",
"7 	c #81ABD2",
"8 	c #85ADD4",
"9 	c #86AED6",
"0 	c #87AED7",
"a 	c #86ADD5",
"b 	c #83ACD3",
"c 	c #80AAD0",
"d 	c #7BA6CB",
"e 	c #719EC2",
"f 	c #575F6E",
"g 	c #74A1C4",
"h 	c #7AA5C9",
"i 	c #80A9CF",
"j 	c #84ACD4",
"k 	c #88B0D7",
"l 	c #8BB1DA",
"m 	c #8DB2DC",
"n 	c #8EB3DD",
"o 	c #8CB2DC",
"p 	c #8AB0D9",
"q 	c #86AED5",
"r 	c #82ABD2",
"s 	c #7DA7CC",
"t 	c #78A3C7",
"u 	c #72A0C2",
"v 	c #596170",
"w 	c #7AA5C8",
"x 	c #8BB1D9",
"y 	c #8EB3DC",
"z 	c #91B6DF",
"A 	c #93B7E1",
"B 	c #94B8E2",
"C 	c #92B7E0",
"D 	c #90B4DE",
"E 	c #8DB2DA",
"F 	c #88AFD6",
"G 	c #83ACD1",
"H 	c #7DA7CB",
"I 	c #76A2C5",
"J 	c #5A6271",
"K 	c #80A9CD",
"L 	c #86ADD2",
"M 	c #8BB1D7",
"N 	c #8FB3DC",
"O 	c #93B7E0",
"P 	c #96B9E3",
"Q 	c #98BBE6",
"R 	c #99BBE7",
"S 	c #99BBE6",
"T 	c #97BAE5",
"U 	c #91B6DE",
"V 	c #8DB2D9",
"W 	c #88AFD5",
"X 	c #82AACF",
"Y 	c #7BA6C9",
"Z 	c #2E3544",
"` 	c #467299",
" .	c #577FA4",
"..	c #6488AD",
"+.	c #6E90B5",
"@.	c #7D9BBF",
"#.	c #829FC4",
"$.	c #84A1C7",
"%.	c #86A2C8",
"&.	c #83A0C5",
"*.	c #809EC2",
"=.	c #7D9BBD",
"-.	c #7897B8",
";.	c #7494B3",
">.	c #6F8FAE",
",.	c #6A8BA7",
"'.	c #49505C",
").	c #000000",
"!.	c #383838",
"~.	c #707070",
"{.	c #3F3F3F",
"].	c #4D4D4D",
"^.	c #2A2A2A",
"/.	c #626262",
"(.	c #151515",
"_.	c #545454",
":.	c #464646",
"<.	c #7F7F7F",
"[.	c #FFFFFF",
"}.	c #8F8F8F",
"|.	c #AFAFAF",
"1.	c #606060",
"2.	c #DFDFDF",
"3.	c #303030",
"4.	c #BFBFBF",
"5.	c #9F9F9F",
"6.	c #505050",
"7.	c #5A5A5A",
"8.	c #6E6E6E",
"9.	c #3C3C3C",
"0.	c #8B8B8B",
"a.	c #1E1E1E",
"b.	c #787878",
"c.	c #646464",
"d.	c #1E232C",
"e.	c #294966",
"f.	c #31516D",
"g.	c #395775",
"h.	c #405D7B",
"i.	c #466281",
"j.	c #4B6686",
"k.	c #4F6A8A",
"l.	c #526C8C",
"m.	c #516B8B",
"n.	c #4E6888",
"o.	c #496584",
"p.	c #435F7E",
"q.	c #415E7B",
"r.	c #3D5B76",
"s.	c #35536E",
"t.	c #2C4C66",
"u.	c #222730",
"v.	c #3A4355",
"w.	c #4481B2",
"x.	c #528ABC",
"y.	c #5C92C4",
"z.	c #6598CA",
"A.	c #6E9ED0",
"B.	c #74A2D5",
"C.	c #78A5D8",
"D.	c #7AA6D9",
"E.	c #76A4D7",
"F.	c #71A0D3",
"G.	c #6A9BCD",
"H.	c #6195C7",
"I.	c #578EC0",
"J.	c #4A85B7",
"K.	c #3D7CAD",
"L.	c #548CBE",
"M.	c #5E93C5",
"N.	c #6B9CCE",
"O.	c #6F9FD1",
"P.	c #709FD2",
"Q.	c #6D9DD0",
"R.	c #689ACC",
"S.	c #6295C8",
"T.	c #598FC1",
"U.	c #5089BA",
"V.	c #4480B2",
"W.	c #3677A8",
"X.	c #407EAF",
"Y.	c #4B86B7",
"Z.	c #5C91C3",
"`.	c #6698CB",
" +	c #6396C9",
".+	c #5F93C5",
"++	c #588FC1",
"@+	c #5089BB",
"#+	c #4682B3",
"$+	c #3A7AAB",
"%+	c #4984B6",
"&+	c #568DBF",
"*+	c #5A90C2",
"=+	c #588EC0",
"-+	c #538BBD",
";+	c #4D87B9",
">+	c #4581B3",
",+	c #3C7BAC",
"'+	c #4380B1",
")+	c #4C86B8",
"!+	c #4D87B8",
"~+	c #3878A9",
"{+	c #222833",
"                                            ",
"                                            ",
"    . + @ @ @ @ # # # # # # @ @ @ + + .     ",
"    @ $ $ % & * = - ; ; > , ' % % $ ) @     ",
"    ! ~ ~ { - ] ^ / ( _ : < [ } | ~ 1 #     ",
"    2 3 4 5 6 7 8 9 0 0 a b c d - e 3 2     ",
"    f g h i j k l m n n o p q r s t u f     ",
"    v w i 8 x y z A B B C D E F G H I v     ",
"    J K L M N O P Q R S T B U V W X Y v     ",
"    Z `  ...+.@.#.$.%.%.&.*.=.-.;.>.,.'.    ",
"  ).).).).!.~.{.).).].~.^.).)./.~.(.)._.:.  ",
"  ).).).).<.[.}.).).|.[.1.).).2.[.3.).4.5.  ",
"  ).).).).6.5.7.).).8.5.9.).).0.5.a.).b.c.  ",
"    d.e.f.g.h.i.j.k.l.m.n.o.p.q.r.s.t.u.    ",
"    v.w.x.y.z.A.B.C.D.D.E.F.G.H.I.J.K.v.    ",
"    v.K.J.L.M.z.N.O.F.P.Q.R.S.T.U.V.W.v.    ",
"    v.W.X.Y.L.Z.H.z.`.z. +.+++@+#+$+W.v.    ",
"    v.W.W.X.%+@+&+T.*+*+=+-+;+>+,+W.W.v.    ",
"    v.W.W.W.,+'+%+)+;+!+J.#+X.~+W.W.W.v.    ",
"    {+v.v.v.v.v.v.v.v.v.v.v.v.v.v.v.v.{+    ",
"                                            ",
"                                            "};
