<?xml version="1.0" encoding="utf-8"?>
<!-- Generator: Adobe Illustrator 10.0, SVG Export Plug-In . SVG Version: 3.0.0 Build 77)  --><svg enable-background="new 0 0 281.875 478.268" height="478.268" i:pageBounds="0 792 612 0" i:rulerOrigin="0 0" i:viewOrigin="164 635" overflow="visible" space="preserve" viewBox="0 0 281.875 478.268" width="281.875" xmlns="http://www.w3.org/2000/svg" xmlns:a="http://ns.adobe.com/AdobeSVGViewerExtensions/3.0/" xmlns:graph="http://ns.adobe.com/Graphs/1.0/" xmlns:i="http://ns.adobe.com/AdobeIllustrator/10.0/" xmlns:x="http://ns.adobe.com/Extensibility/1.0/" xmlns:xlink="http://www.w3.org/1999/xlink">
  <metadata>
    <rdf:RDF xmlns:cc="http://web.resource.org/cc/" xmlns:dc="http://purl.org/dc/elements/1.1/" xmlns:rdf="http://www.w3.org/1999/02/22-rdf-syntax-ns#">
      <cc:Work rdf:about="">
        <dc:title>Backpacker Heavy Load</dc:title>
        <dc:description>Backpacker Heavy Load</dc:description>
        <dc:subject>
          <rdf:Bag>
            <rdf:li>people</rdf:li>
            <rdf:li>sports</rdf:li>
            <rdf:li>backpacking</rdf:li>
          </rdf:Bag>
        </dc:subject>
        <dc:publisher>
          <cc:Agent rdf:about="http://www.openclipart.org/">
            <dc:title>Open Clip Art Project</dc:title>
          </cc:Agent>
        </dc:publisher>
        <dc:creator>
          <cc:Agent rdf:about="http://web.resource.org/cc/PublicDomain">
            <dc:title>AbiClipart</dc:title>
          </cc:Agent>
        </dc:creator>
        <dc:rights>
          <cc:Agent rdf:about="http://web.resource.org/cc/PublicDomain">
            <dc:title>Public Domain</dc:title>
          </cc:Agent>
        </dc:rights>
        <dc:date>2005/05/13</dc:date>
        <dc:format>image/svg+xml</dc:format>
        <dc:type rdf:resource="http://purl.org/dc/dcmitype/StillImage"/>
        <cc:license rdf:resource="http://web.resource.org/cc/PublicDomain"/>
        <dc:language>en</dc:language>
      </cc:Work>
      <cc:License rdf:about="http://web.resource.org/cc/PublicDomain">
        <cc:permits rdf:resource="http://web.resource.org/cc/Reproduction"/>
        <cc:permits rdf:resource="http://web.resource.org/cc/Distribution"/>
        <cc:permits rdf:resource="http://web.resource.org/cc/DerivativeWorks"/>
      </cc:License>
    </rdf:RDF>
  </metadata>
  <g i:dimmedPercent="50" i:layer="yes" i:rgbTrio="#4F008000FFFF" id="Layer_1">
    <g>
      <path clip-rule="evenodd" d="     M62.69,462.807c7.596-1.477,18.36-1.908,32.58-1.439c14.22,0.432,52.524,2.088,52.272,4.283     c-0.648,2.125-18.468,4.932-54.828,8.568c23.616-3.133,32.544-5.508,27.324-7.561c-5.472-2.051-24.912-3.492-59.292-4.463     L62.69,462.807z" fill-rule="evenodd" i:knockout="Off" stroke="#000000" stroke-miterlimit="10" stroke-width="0.036"/>
      <path clip-rule="evenodd" d="     M168.53,469.719c5.724-1.08,13.752-1.439,24.372-1.08c10.619,0.359,39.239,1.477,39.06,3.205     c-0.468,1.619-13.86,3.707-41.004,6.406c17.712-2.34,24.3-4.176,20.448-5.65c-4.104-1.514-18.648-2.629-44.316-3.35     L168.53,469.719z" fill-rule="evenodd" i:knockout="Off" stroke="#000000" stroke-miterlimit="10" stroke-width="0.036"/>
      <path clip-rule="evenodd" d="     M77.342,438.723H54.734c-6.984-10.801-11.016-19.115-11.952-25.236c-1.008-6.156,0.936-9.828,5.976-11.303     c-12.06,1.475-19.908,0.898-23.94-2.018c-4.032-2.986-4.032-7.883,0-15.264c-11.196-1.547-16.776-4.428-17.28-8.639     c-0.432-4.32,4.392-9.721,14.616-16.633c-6.156,2.951-10.044,2.951-11.952,0c-1.944-3.023-1.62-8.965,0.684-17.965     c-8.64-0.863-12.24-2.482-10.656-5.291c1.548-2.771,8.1-6.588,19.944-11.305c-6.732-6.119-8.82-10.332-6.66-12.635     c2.268-2.305,8.784-2.846,19.944-1.332c-7.776-9.289-11.268-16.416-10.62-21.924c0.684-5.58,10.368-12.098,14.616-10.656     c4.104,1.439,7.38,7.775,9.972,19.295c4.428-11.736,7.92-18.072,10.62-19.295c2.664-1.152,4.392,2.664,5.328,11.988     c12.852-1.693,20.556-1.08,23.256,1.979c2.628,3.096-5.688,12.025-7.308,15.949c-1.656,3.707-2.592,5.975-2.664,6.66     c5.652-2.197,9.648-2.521,11.988-0.686c2.268,1.801,3.024,5.473,1.98,11.305c9.036,9.18,12.888,16.271,11.988,21.275     c-1.044,4.969-6.984,7.85-17.964,8.641c14.148,7.451,21.06,12.672,21.276,15.947c0,3.205-6.696,4.32-20.628,3.35     c9.36,7.344,13.428,12.779,12.636,16.596c-0.972,3.744-6.804,5.688-17.928,5.975c2.88,8.137,4.212,15.084,3.996,21.277     c-0.288,6.119-4.284,11.916-5.328,15.299C77.522,437.391,77.126,438.939,77.342,438.723z" fill-rule="evenodd" i:knockout="Off" stroke="#000000" stroke-miterlimit="10" stroke-width="0.036"/>
      <path clip-rule="evenodd" d="     M47.426,396.855c-8.532,1.764-13.896,1.15-15.948-1.98c-2.16-3.205-1.008-8.568,3.312-16.633     c-12.42,0.217-18.432-1.115-18.612-3.996c-0.036-2.986,5.76-7.271,17.964-13.283l-2.016-11.305     c-11.664,5.186-18.036,6.732-19.26,4.645c-1.26-2.232,2.772-7.813,11.952-17.279c-9.792,1.547-14.004,1.332-12.636-0.648     c1.404-2.053,8.1-5.725,20.628-11.305c-9.396-4.248-13.068-6.912-11.304-7.992c1.836-1.08,8.964-0.684,21.924,1.332     c-8.244-18.791-11.736-28.656-10.62-30.563c1.152-1.729,6.732,4.787,17.28,19.943c3.024-12.168,5.328-18.721,7.308-19.943     c1.836-1.152,3.168,2.879,3.996,12.635c9.18-5.184,13.824-5.939,14.616-2.664c0.612,3.42-2.88,10.729-10.62,22.609     c11.088-1.152,17.46-0.721,19.26,1.295c1.728,2.016-1.152,5.473-8.64,10.656c7.632,0.396,13.176,1.549,16.632,3.996     c3.456,2.375,6.948,6.623,3.96,9.973c-3.132,3.168-10.656,6.264-22.572,9.287c11.232,5.867,16.668,10.08,16.596,12.637     c-0.216,2.592-5.832,3.383-17.28,2.664c8.712,7.631,12.528,13.787,11.304,18.611c-1.26,4.752-7.416,8.027-18.612,9.973     c7.632,5.543,11.124,10.15,10.62,13.967c-0.576,3.781-11.7,9.9-13.932,8.641c-2.34-1.367-2.34-6.912,0-16.633     c-5.328,8.748-8.604,12.24-9.972,10.621c-1.404-1.764-0.648-8.496,1.98-20.592C52.322,395.955,49.874,396.387,47.426,396.855z" fill="#239B59" fill-rule="evenodd" i:knockout="Off" stroke="#000000" stroke-miterlimit="10" stroke-width="0.036"/>
      <path clip-rule="evenodd" d="     M24.134,440.199c7.596-1.477,18.36-1.908,32.58-1.439c14.22,0.432,52.524,2.088,52.272,4.283     c-0.612,2.123-18.576,4.932-54.864,8.568c23.688-3.025,32.58-5.58,27.36-7.525c-5.472-2.016-24.912-3.563-59.292-4.5     L24.134,440.199z" fill-rule="evenodd" i:knockout="Off" stroke="#000000" stroke-miterlimit="10" stroke-width="0.036"/>
      <path clip-rule="evenodd" d="     M47.426,349.658c1.188,3.744,2.736,5.293,4.644,4.645c1.944-0.684,4.032-3.564,6.66-8.641c7.992,1.369,12.6,0.613,13.968-1.979     c1.26-2.773-0.612-7.236-6.012-13.969c1.764,5.363,1.764,8.82,0,10.656c-1.836,1.764-5.328,1.764-10.62,0     C53.186,343.467,50.306,346.563,47.426,349.658z" fill-rule="evenodd" i:knockout="Off" stroke="#000000" stroke-miterlimit="10" stroke-width="0.036"/>
      <path clip-rule="evenodd" d="     M42.098,366.939c2.304,10.439,4.968,15.623,7.992,15.947c2.988,0.18,6.264-4.645,9.972-14.615     c-3.708,3.707-6.984,5.58-9.972,5.328C47.066,373.311,44.402,371.188,42.098,366.939z" fill-rule="evenodd" i:knockout="Off" stroke="#000000" stroke-miterlimit="10" stroke-width="0.036"/>
      <path clip-rule="evenodd" d="     M42.782,327.734c-4.14,6.732-7.2,10.549-9.324,11.305c-2.088,0.791-3.24-1.477-3.312-6.66c0.54,1.225,1.872,1.404,3.996,0.684     C36.302,332.234,39.002,330.506,42.782,327.734z" fill-rule="evenodd" i:knockout="Off" stroke="#000000" stroke-miterlimit="10" stroke-width="0.036"/>
      <path clip-rule="evenodd" d="     M149.882,384.795c-1.764,0.469-3.708,1.801-5.544,3.852c-1.872,2.016-3.924,4.896-5.868,8.496v8.316     c-0.468-2.988-1.908-5.4-4.464-7.236c-2.7-1.908-6.624-4.645-10.8-4.031c-4.212,0.576-12.132,1.799-13.896,7.271     c-1.872,5.508,1.332,18.324,3.24,24.984c1.944,6.443,4.896,9.719,8.028,13.572c2.988,3.744,7.056,5.58,9.864,8.818     c2.628,3.168,2.844,8.461,6.336,10.189c3.528,1.547,10.584,1.295,14.22-0.469c3.42-1.836,5.472-6.48,6.443-10.188     c0.828-3.779,0.576-7.668-1.044-12.061c0.864-1.656,1.368-3.707,1.513-6.012c0.071-2.412,0.611-5.363-0.9-8.172     c-1.548-2.881-4.428-5.76-8.496-8.783c0.396-1.766,0.648-3.422,0.612-5.113c-0.072-1.656-0.432-3.348-0.937-4.932     c0.252-2.232,1.584-4.572,3.853-7.416c2.268-2.844,5.472-5.977,9.756-9.396C157.838,385.947,153.878,385.371,149.882,384.795z" fill-rule="evenodd" i:knockout="Off" stroke="#000000" stroke-miterlimit="10" stroke-width="0.036"/>
      <path clip-rule="evenodd" d="     M140.63,427.059c0.072-1.225,0.072-3.023,0-5.4c-0.216-2.447-0.648-6.623-0.756-8.928c-0.144-2.268-0.144-3.6,0-4.967     c0.072-1.514-0.612-3.492,0.468-3.996c1.008-0.686,4.104-0.721,5.4,0.467c0.972,1.152,1.008,3.744,1.367,6.949     c0.36,3.131,0.973,9.18,1.261,11.879c0.288,2.629,0.432,3.816,0.432,3.709c-2.556,1.332-4.5,2.051-5.832,2.16     C141.638,428.932,140.81,428.355,140.63,427.059z" fill="#FFFFFF" fill-rule="evenodd" i:knockout="Off" stroke="#000000" stroke-miterlimit="10" stroke-width="0.036"/>
      <path clip-rule="evenodd" d="     M137.246,404.379c-3.384-3.889-6.624-6.408-9.72-7.561c-3.276-1.223-6.408-0.324-9.108,0.613     c-2.664,0.828-5.94,0.432-6.624,4.643c-0.72,4.176,0.324,13.824,2.16,20.053c1.728,6.012,5.004,12.385,8.028,16.199     c2.916,3.709,5.868,5.725,9.252,6.193c0.144,1.26,0.756,2.771,1.836,4.932c0.936,2.051,1.728,6.516,4.464,7.561     c2.736,0.863,9.252-0.506,12.205-2.018c2.771-1.584,4.248-4.463,5.111-7.234c0.828-2.953,0.828-6.121,0-9.9     c-2.088,4.031-4.355,6.047-6.804,6.336c-2.592,0.18-6.48-1.512-8.172-5.076c-1.764-3.709-2.484-9.037-2.16-16.523l0.288-3.385     c-2.088,3.168-3.78,5.221-5.22,6.156c-1.476,0.863-3.312,1.26-3.42-0.756c-0.072-2.197,0.756-6.012,2.772-11.881     c-2.52,3.816-4.464,6.049-5.832,7.092c-1.512,0.865-2.484,0.217-2.484-1.404c0.036-1.764,1.044-6.264,2.628-8.639     c1.512-2.484,4.788-5.076,6.336-5.4c1.44-0.287,2.16,0.9,2.304,3.707h2.448C137.462,406.863,137.354,405.639,137.246,404.379z" fill="#A16121" fill-rule="evenodd" i:knockout="Off" stroke="#000000" stroke-miterlimit="10" stroke-width="0.036"/>
      <path clip-rule="evenodd" d="     M131.522,407.006c-0.756,0.324-3.348,3.854-4.32,5.725c-1.08,1.836-2.196,5.293-1.548,5.076c0.612-0.432,4.176-5.436,5.256-7.236     C131.846,408.662,132.098,406.646,131.522,407.006z" fill="#FFFFFF" fill-rule="evenodd" i:knockout="Off" stroke="#000000" stroke-miterlimit="10" stroke-width="0.036"/>
      <path clip-rule="evenodd" d="     M136.166,411.471c-1.944,3.096-3.276,5.725-3.852,7.74c-0.684,2.016-0.684,4.752,0.144,4.32c0.756-0.613,2.304-2.953,4.644-7.416     l0.288-5.725C136.994,410.75,136.598,411.111,136.166,411.471z" fill="#FFFFFF" fill-rule="evenodd" i:knockout="Off" stroke="#000000" stroke-miterlimit="10" stroke-width="0.036"/>
      <path clip-rule="evenodd" d="     M140.018,428.932c1.08,1.836,2.52,2.664,4.32,2.627c1.836-0.145,5.148-1.367,6.192-3.096c0.899-1.801,0.684-4.176-0.648-7.271     l-0.9-5.076c1.908,0.215,3.313,1.656,4.608,4.32c1.188,2.664,3.313,7.955,2.628,11.412c-0.936,3.311-4.968,6.982-7.236,8.496     c-2.304,1.367-4.644,1.043-6.191,0c-1.692-1.225-2.916-4.934-3.384-6.805C138.902,431.559,139.154,430.119,140.018,428.932z" fill="#A1A1A1" fill-rule="evenodd" i:knockout="Off" stroke="#000000" stroke-miterlimit="10" stroke-width="0.036"/>
      <path clip-rule="evenodd" d="     M141.098,396.207c-1.152,2.305-0.936,5.076-0.936,5.076c0.684-0.504,1.62-0.756,2.808-0.613c1.08,0.072,2.412,0.541,3.996,1.262     c2.88-4.572,5.4-7.85,7.704-10.369c2.268-2.484,4.176-3.924,5.868-4.32l-11.412-1.223l-5.256,5.867     C143.87,391.887,142.25,393.902,141.098,396.207z" fill="#E8BDB1" fill-rule="evenodd" i:knockout="Off" stroke="#000000" stroke-miterlimit="10" stroke-width="0.036"/>
      <path clip-rule="evenodd" d="     M211.802,385.406c0.36,2.484,0.252,5.256-0.324,8.316c-0.611,3.096-1.691,6.301-3.239,10.045c-0.54-1.117-1.261-0.865-2.16,0.756     c-0.973,1.619-2.053,4.463-3.384,8.82c-2.736-0.648-4.896-0.289-6.337,1.223c-1.548,1.512-2.376,3.889-2.628,7.561     c-2.52,2.699-4.319,5.221-5.544,7.703c-1.224,2.484-1.836,4.682-1.836,6.984c-2.987,3.168-4.284,6.121-4.031,9.396     c0.18,3.096,2.592,7.703,5.436,9.539c2.844,1.693,6.12-0.07,11.484,1.225c5.22,1.297,14.832,6.156,19.943,6.516     c5.04,0.18,8.028-2.016,10.368-4.932c2.232-3.061,3.492-9.215,3.24-12.348c-0.433-2.988-3.528-4.572-5.112-5.867     c-1.691-1.441-2.304-0.973-4.32-2.629c-2.052-1.729-4.571-4.248-7.703-7.561c0.468-3.203,0.575-5.832,0.468-7.883     c-0.108-2.16-0.576-3.564-1.26-4.609c1.296-2.447,2.124-4.607,2.628-6.479c0.468-1.98,0.468-3.529,0.144-4.934     c1.656-6.551,2.7-11.268,3.276-14.688c0.504-3.383,0.396-5.184-0.181-5.4C217.778,385.91,214.79,385.658,211.802,385.406z" fill-rule="evenodd" i:knockout="Off" stroke="#000000" stroke-miterlimit="10" stroke-width="0.036"/>
      <path clip-rule="evenodd" d="     M213.35,429.688c1.044-3.924,1.044-6.877,0-9.252c-1.044-2.377-4.031-3.924-6.336-4.789c-2.52-1.043-6.264-1.764-8.172-0.756     c-1.872,1.115-2.952,3.348-3.096,7.092c4.5,0.828,8.063,1.908,11.088,3.24C209.786,426.52,211.91,427.959,213.35,429.688z" fill="#A1A1A1" fill-rule="evenodd" i:knockout="Off" stroke="#000000" stroke-miterlimit="10" stroke-width="0.036"/>
      <path clip-rule="evenodd" d="     M204.53,413.344c0.504-2.16,0.972-3.781,1.548-5.258c0.504-1.475,0.611-2.879,1.691-3.383c0.973-0.576,2.736-0.576,4.32,0     c1.404,0.467,4.248,1.367,4.645,3.383c0.323,1.98-0.505,4.861-2.484,8.641c-0.864-0.215-2.052-0.721-3.708-1.225     C208.85,414.928,206.941,414.207,204.53,413.344z" fill="#FFFFFF" fill-rule="evenodd" i:knockout="Off" stroke="#000000" stroke-miterlimit="10" stroke-width="0.036"/>
      <path clip-rule="evenodd" d="     M210.722,402.688c0.648-0.289,1.332-0.145,2.448,0.287c1.044,0.396,2.232,1.225,3.708,2.34c1.44-4.104,2.52-7.561,3.096-10.656     c0.504-3.131,0.648-5.652,0.288-7.703l-7.092-0.324c-0.108,4.068-0.36,7.271-0.756,10.043     C211.946,399.303,211.478,401.355,210.722,402.688z" fill="#E8BDB1" fill-rule="evenodd" i:knockout="Off" stroke="#000000" stroke-miterlimit="10" stroke-width="0.036"/>
      <path clip-rule="evenodd" d="     M211.802,430.91c-3.168-2.303-6.012-3.996-8.964-4.932c-2.916-1.008-5.796-1.26-8.496-0.9c-1.404,1.477-2.592,2.988-3.708,4.934     c-1.152,1.871-1.979,3.924-2.771,6.299c4.031,0.863,7.235,2.125,9.899,3.924c2.484,1.693,4.212,4.824,5.725,6.625     c1.548,1.764,2.735,3.023,3.563,3.924c0.972,2.592,2.664,4.607,4.932,6.047c2.232,1.404,6.337,2.521,8.713,2.521     c2.34-0.217,3.6-1.404,5.292-3.133c1.512-1.801,4.428-4.859,4.319-7.236c-0.107-2.375-1.8-4.787-4.932-7.092     c-0.36,1.008-0.828,1.908-1.548,2.305c-0.721,0.359-2.34,0.791-2.772,0.324c-0.576-0.469-0.684-1.549-0.324-3.098     c-1.691,1.441-2.88,2.053-3.708,1.838c-0.792-0.254-1.296-1.801-1.367-3.24c-0.181-1.549-0.181-3.457,0.144-5.869     C214.466,433.07,213.134,431.99,211.802,430.91z" fill="#A16121" fill-rule="evenodd" i:knockout="Off" stroke="#000000" stroke-miterlimit="10" stroke-width="0.036"/>
      <path clip-rule="evenodd" d="     M217.634,435.23c-0.612,1.584-0.864,2.771-0.756,3.564c0,0.721,0.684,1.225,1.224,1.08c0.433-0.252,1.008-0.973,1.729-2.305     C219.109,436.814,218.39,436.023,217.634,435.23z" fill="#FFFFFF" fill-rule="evenodd" i:knockout="Off" stroke="#000000" stroke-miterlimit="10" stroke-width="0.036"/>
      <path clip-rule="evenodd" d="     M221.342,439.264c-0.072,1.654,0.036,2.592,0.324,3.096c0.216,0.432,1.008-0.18,1.404-0.469c0.323-0.359,0.575-0.828,0.756-1.547     C222.998,439.982,222.17,439.623,221.342,439.264z" fill="#FFFFFF" fill-rule="evenodd" i:knockout="Off" stroke="#000000" stroke-miterlimit="10" stroke-width="0.036"/>
      <path clip-rule="evenodd" d="     M194.198,443.295c0.611,0.252,1.151,0.648,1.62,1.188c0.432,0.469,0.684,1.152,0.899,1.908c-1.439,1.08-2.628,1.656-3.276,1.729     c-0.72,0-1.188-0.793-1.008-1.549C192.578,445.742,193.118,444.699,194.198,443.295z" fill="#A16121" fill-rule="evenodd" i:knockout="Off" stroke="#000000" stroke-miterlimit="10" stroke-width="0.036"/>
      <path clip-rule="evenodd" d="     M192.506,441.783l-2.628-1.656c-0.432,1.619-0.612,2.879-0.396,3.779c0.145,0.828,0.721,1.764,1.297,1.441     C191.282,444.879,191.857,443.871,192.506,441.783z" fill="#A16121" fill-rule="evenodd" i:knockout="Off" stroke="#000000" stroke-miterlimit="10" stroke-width="0.036"/>
      <path clip-rule="evenodd" d="     M186.746,441.604c-0.433,0.252-0.828,0.684-1.044,1.295c-0.288,0.613-0.54,1.297-0.612,2.197c1.584,0.574,2.664,0.791,3.24,0.504     c0.468-0.324,0.288-1.621,0.036-2.232C188.078,442.646,187.538,442.107,186.746,441.604z" fill="#A16121" fill-rule="evenodd" i:knockout="Off" stroke="#000000" stroke-miterlimit="10" stroke-width="0.036"/>
      <path clip-rule="evenodd" d="     M184.729,446.715c-0.288,0.504-0.432,0.973-0.288,1.549c0.072,0.504,0.288,1.08,0.792,1.727c0.757-0.324,1.332-0.646,1.729-1.115     c0.396-0.469,0.864-1.404,0.576-1.691C187.07,446.787,186.278,446.68,184.729,446.715z" fill="#A16121" fill-rule="evenodd" i:knockout="Off" stroke="#000000" stroke-miterlimit="10" stroke-width="0.036"/>
      <path clip-rule="evenodd" d="     M186.494,450.891c0.071,0.072,0.071,0.359,0.396,0.721c0.216,0.359,0.576,0.863,1.08,1.512c0.468-0.756,0.828-1.584,0.937-2.088     c0.071-0.721,0.144-1.439-0.217-1.477C188.33,449.559,187.466,449.955,186.494,450.891z" fill="#A16121" fill-rule="evenodd" i:knockout="Off" stroke="#000000" stroke-miterlimit="10" stroke-width="0.036"/>
      <path clip-rule="evenodd" d="     M189.986,453.447l2.231,0.467c0.145-1.115,0.288-1.943,0.036-2.482c-0.216-0.648-0.9-1.08-1.224-0.758     C190.67,451.035,190.273,451.863,189.986,453.447z" fill="#A16121" fill-rule="evenodd" i:knockout="Off" stroke="#000000" stroke-miterlimit="10" stroke-width="0.036"/>
      <path clip-rule="evenodd" d="     M191.102,447.471c-0.216-0.432-0.899-0.611-1.224-0.539c-0.432,0-1.116,0.035-0.937,0.504c0.145,0.432,1.477,1.691,1.908,1.836     C191.174,449.199,191.21,447.902,191.102,447.471z" fill="#A16121" fill-rule="evenodd" i:knockout="Off" stroke="#000000" stroke-miterlimit="10" stroke-width="0.036"/>
      <path clip-rule="evenodd" d="     M102.902,309.338c-3.348-0.07-6.48-5.975-9.792-18c-3.348-12.131-8.1-38.088-9.792-53.855     c-1.836-15.84-2.988-31.896-0.396-40.536c2.52-8.604,5.328-9.072,16.056-11.124c10.836-2.232,31.428-1.692,48.167-2.124     c16.561-0.504,33.156-1.08,50.904-0.612c17.748,0.324,42.769,2.016,54.648,3.132c11.52,0.972,11.52,0.144,14.867,3.348     c3.421,3.132,5.005,8.352,5.292,15.66c2.269-0.612,4.213-0.396,5.688,0.792s3.096,4.176,3.312,6.048     c0,1.62-1.079,4.536-2.556,4.32c-1.584-0.288-3.492-2.088-6.264-5.688c0.071,11.592-0.036,22.968-0.181,34.668     c-0.252,11.771,0.252,24.551-0.972,34.848c-1.404,10.08-3.563,18.324-6.876,25.271c3.564,2.484,6.084,4.752,7.848,7.236     c1.62,2.377,1.801,4.355,2.341,7.057c0.504,2.627,0.72,5.4,0.792,8.604c1.548,0.793,2.268,2.16,2.159,4.104     c-0.18,1.801-1.619,5.832-2.951,7.236c-1.404,1.404-3.168,1.691-5.292,1.008c0.684,4.393,0.359,8.496-0.973,12.313     c-1.403,3.779-4.824,8.172-7.056,10.404c-2.34,2.16-4.356,2.844-6.444,2.34c-0.288,7.164-1.476,12.313-3.708,15.84     c-2.304,3.348-1.26,3.637-9.792,4.896c-8.676,1.295-27.432,2.412-41.544,2.771c-14.147,0.18-32.076-0.217-42.66-1.188     c-10.62-1.008-15.696-0.828-20.771-4.717c-5.184-4.031-8.316-10.225-9.792-18.973c-2.88,1.729-6.012,2.521-9.396,2.521     c-3.456-0.145-7.812-0.613-10.98-2.916c-3.24-2.377-5.868-5.941-8.028-10.98c-2.808-0.756-4.896-2.844-6.264-6.264     c-1.476-3.6-2.304-9.289-1.944-14.293c0.396-5.039,2.16-11.375,4.32-15.264C96.926,313.334,99.554,310.707,102.902,309.338z" fill-rule="evenodd" i:knockout="Off" stroke="#000000" stroke-miterlimit="10" stroke-width="0.036"/>
      <path clip-rule="evenodd" d="     M103.874,313.119c-2.556,2.16-4.644,5.039-6.264,8.783c-1.764,3.781-3.528,9.072-3.744,13.537     c-0.36,4.32,0.432,10.115,2.376,12.527c1.98,2.232,6.732,1.871,9.396,1.549c2.52-0.434,5.184-1.656,6.048-3.529     c0.72-1.871-1.08-3.959-1.368-7.631c-0.36-3.889-1.188-10.693-0.396-14.869c0.864-4.211,2.484-7.559,5.292-10.188     C111.434,313.264,107.654,313.191,103.874,313.119z" fill="#FB0F0C" fill-rule="evenodd" i:knockout="Off" stroke="#000000" stroke-miterlimit="10" stroke-width="0.036"/>
      <path clip-rule="evenodd" d="     M96.818,341.307c0,3.023,1.764,5.473,3.924,5.473c2.16,0,3.924-2.449,3.924-5.473s-1.764-5.473-3.924-5.473     C98.582,335.834,96.818,338.283,96.818,341.307z" fill-rule="evenodd" i:knockout="Off" stroke="#000000" stroke-miterlimit="10" stroke-width="0.036"/>
      <path clip-rule="evenodd" d="     M98.582,341.486c0,1.945,1.116,3.529,2.52,3.529c1.368,0,2.52-1.584,2.52-3.529c0-1.943-1.152-3.492-2.52-3.492     C99.698,337.994,98.582,339.543,98.582,341.486z" fill="#616161" fill-rule="evenodd" i:knockout="Off" stroke="#000000" stroke-miterlimit="10" stroke-width="0.036"/>
      <path clip-rule="evenodd" d="     M116.798,314.271c1.8,0,3.204-0.182,4.5-0.396c1.224-0.252,2.196-0.684,2.916-1.152c0,1.873,0.612,5.004,1.98,9.396     c1.404,4.355,3.24,9.973,6.048,16.848c-1.332,3.313-2.448,6.443-3.492,9.396c-1.08,2.879-2.16,6.084-2.556,8.207     c-0.432,2.053-0.324,3.492,0.18,4.32c-3.06,1.801-6.012,2.701-9,2.557c-3.024-0.18-6.48-1.621-8.82-3.348     c-2.376-1.801-4.248-4.285-5.472-7.453c4.752,0.217,7.92-0.576,9.792-2.52c1.692-2.125,1.224-5.004,0.972-9.035     c-0.324-4.033-3.312-10.01-2.736-14.473C111.65,322.119,113.414,318.051,116.798,314.271z" fill="#FB0F0C" fill-rule="evenodd" i:knockout="Off" stroke="#000000" stroke-miterlimit="10" stroke-width="0.036"/>
      <path clip-rule="evenodd" d="     M137.93,337.6c-1.764,2.123-3.24,4.176-4.284,6.443c-1.116,2.195-3.636,5.076-2.16,6.84c1.332,1.619,0.18,2.16,10.584,3.133     c10.44,0.863,36.216,2.051,51.66,2.158c15.336-0.035,30.492-0.359,39.78-1.943c9.145-1.656,12.853-4.068,14.868-7.631     c1.836-3.672,0.756-8.209-3.528-13.896c-3.312,0.18-11.16,0.432-24.084,0.756c-13.067,0.324-39.6,0.936-53.063,1.008     c-13.464-0.035-22.393-0.324-27.216-1.008C139.658,334.826,138.794,336.195,137.93,337.6z" fill="#FB0F0C" fill-rule="evenodd" i:knockout="Off" stroke="#000000" stroke-miterlimit="10" stroke-width="0.036"/>
      <path clip-rule="evenodd" d="     M131.09,355.023c-1.332,7.416-0.36,13.355,3.312,18.215c3.636,4.789,3.6,8.533,18.216,10.549     c14.688,1.871,52.452,1.477,68.724,1.188c15.948-0.432,21.853,0.324,27.036-3.131c5.004-3.637,2.988-12.35,3.528-17.82     c0.432-5.473,0.432-10.441-0.396-14.904c-1.656,3.203-5.688,5.508-12.528,7.055c-6.84,1.514-14.615,1.729-28.188,2.16     c-13.86,0.289-41.472-0.143-53.676-0.18c-12.132-0.143-14.509,0.252-18.792-0.215     C133.934,357.363,131.522,356.391,131.09,355.023z" fill="#FB0F0C" fill-rule="evenodd" i:knockout="Off" stroke="#000000" stroke-miterlimit="10" stroke-width="0.036"/>
      <path clip-rule="evenodd" d="     M144.194,370.863c4.896,0.756,11.411,1.475,19.979,2.16c8.496,0.719,18.324,1.871,30.744,1.943     c12.456-0.035,26.496-0.863,43.092-2.34c-0.072,2.088,0.612,3.133,1.764,3.133c1.152-0.109,4.032-1.262,5.292-3.313     c1.08-2.16,2.196-8.281,1.549-9.217c-0.792-0.936-4.465,2.52-5.868,3.709c-1.477,1.115-2.34,2.051-2.736,2.951     c-5.4,1.297-12.744,2.016-22.32,2.16c-9.72,0.072-23.075-0.756-35.063-1.367c-12.061-0.686-24.12-1.369-36.612-2.34     C144.05,369.17,144.122,369.998,144.194,370.863z" fill-rule="evenodd" i:knockout="Off" stroke="#000000" stroke-miterlimit="10" stroke-width="0.036"/>
      <path clip-rule="evenodd" d="     M240.53,371.26c0.396-1.297,1.943-4.609,2.556-4.682c0.504-0.143,0.684,3.35,0.396,4.5c-0.432,1.08-2.268,2.232-2.735,2.34     C240.17,373.311,240.098,372.447,240.53,371.26z" fill="#A1A1A1" fill-rule="evenodd" i:knockout="Off" stroke="#000000" stroke-miterlimit="10" stroke-width="0.036"/>
      <path clip-rule="evenodd" d="     M256.226,360.314c2.628-0.107,4.824-1.584,6.444-4.141c1.584-2.699,2.844-7.199,3.348-11.555     c0.36-4.607-0.036-10.404-0.611-14.869c-0.612-4.463-1.261-8.711-2.916-11.34c-1.801-2.627-4.824-4.139-7.272-4.535     c-2.448-0.576-4.968-0.072-7.416,1.367c-0.468,0.938-0.792,2.773-0.972,5.508c-0.216,2.736-0.288,6.121-0.216,10.584     c1.872,2.988,3.456,5.832,4.896,8.389c1.477,2.484,2.556,3.385,3.528,6.877C255.794,350.02,256.189,354.592,256.226,360.314z" fill="#FB0F0C" fill-rule="evenodd" i:knockout="Off" stroke="#000000" stroke-miterlimit="10" stroke-width="0.036"/>
      <path clip-rule="evenodd" d="     M267.962,334.467l1.944-0.791c-0.217-2.125,0.216-3.744,1.008-4.717c0.792-1.008,2.088-1.512,3.888-1.367     c0.612-4.105,0.18-7.633-1.152-10.586c-1.403-3.096-4.176-5.939-7.056-7.416c-3.06-1.584-7.884-1.979-10.584-1.584     c-2.664,0.324-4.428,1.729-5.292,3.926c3.672-0.828,6.372-0.721,8.64,0.18c2.124,0.828,2.772,1.332,4.284,5.111     C265.046,320.895,266.486,326.691,267.962,334.467z" fill="#FB0F0C" fill-rule="evenodd" i:knockout="Off" stroke="#000000" stroke-miterlimit="10" stroke-width="0.036"/>
      <path clip-rule="evenodd" d="     M272.282,336.016c0.071-1.332,1.115-5.041,1.764-5.689c0.504-0.684,1.332,0.504,1.368,1.766c-0.216,1.26-0.973,4.715-1.584,5.508     C273.29,338.139,272.174,337.238,272.282,336.016z" fill="#A1A1A1" fill-rule="evenodd" i:knockout="Off" stroke="#000000" stroke-miterlimit="10" stroke-width="0.036"/>
      <path clip-rule="evenodd" d="     M141.854,328.887c0.792-7.848,1.692-17.207,3.132-28.225c1.296-11.16,3.527-28.619,4.896-37.799     c1.224-9.18,2.34-14.688,2.952-16.813c11.448,0.035,21.528,0.145,30.528,0.18c8.964-0.035,15.552,0.289,23.111,0     c7.524-0.359,14.364-1.008,21.349-1.943c0.18,5.256,0.647,11.52,1.548,19.188c0.792,7.633,1.943,15.732,3.744,26.244     c1.764,10.477,4.104,22.141,7.02,35.82c-13.212,1.691-25.524,2.771-37.764,3.527c-12.42,0.613-24.805,0.576-35.064,0.576     C157.118,329.57,148.766,329.318,141.854,328.887z" fill="#FB0F0C" fill-rule="evenodd" i:knockout="Off" stroke="#000000" stroke-miterlimit="10" stroke-width="0.036"/>
      <path clip-rule="evenodd" d="     M165.938,311.822c-2.592-6.047-3.491-22.463-4.5-31.32c-1.151-8.963-3.636-16.775-1.764-21.348     c1.872-4.535,4.752-4.463,12.924-5.471c8.172-1.08,26.928-1.297,35.46-0.793c8.316,0.359,12.168-1.691,14.473,3.709     c2.124,5.543-0.145,19.223-0.973,28.799c-0.792,9.396-0.432,22.141-3.924,27.396c-3.744,5.076-10.979,2.809-17.82,3.348     c-6.983,0.396-17.424,0.359-23.111-0.396C170.978,314.918,168.494,317.691,165.938,311.822z" fill-rule="evenodd" i:knockout="Off" stroke="#000000" stroke-miterlimit="10" stroke-width="0.036"/>
      <path clip-rule="evenodd" d="     M168.494,309.303c-2.664-5.328-3.276-18.287-4.32-26.244c-1.188-8.027-4.104-16.344-2.34-20.771     c1.764-4.32,4.824-4.572,12.924-5.473c8.172-1.08,27.756-1.295,35.424-0.791c7.488,0.395,8.028-1.477,9.396,3.707     c1.151,5.184-0.612,18.865-1.548,27.432c-0.864,8.496-1.08,18.756-3.708,23.293c-2.772,4.32-7.021,2.592-12.744,3.131     c-5.977,0.576-16.092,0.576-21.744,0C174.254,312.795,171.122,314.379,168.494,309.303z" fill="#FB0F0C" fill-rule="evenodd" i:knockout="Off" stroke="#000000" stroke-miterlimit="10" stroke-width="0.036"/>
      <path clip-rule="evenodd" d="     M172.418,285.146l32.112-1.225c0.035,2.09,0.575,3.133,1.764,3.133c1.152-0.107,4.068-1.26,5.256-3.313     c1.152-2.16,2.232-8.279,1.584-9.215c-0.792-0.938-4.464,2.52-5.868,3.707c-1.476,1.117-2.34,2.053-2.735,2.953     c-6.265,0.611-12.024,0.971-17.425,1.223c-5.436,0.217-10.403,0.324-14.903,0.18     C172.273,283.418,172.346,284.283,172.418,285.146z" fill-rule="evenodd" i:knockout="Off" stroke="#000000" stroke-miterlimit="10" stroke-width="0.036"/>
      <path clip-rule="evenodd" d="     M207.05,282.555c0.396-1.295,1.944-4.607,2.556-4.68c0.504-0.145,0.685,3.348,0.396,4.5c-0.432,1.08-2.269,2.232-2.736,2.34     C206.689,284.607,206.618,283.742,207.05,282.555z" fill="#A1A1A1" fill-rule="evenodd" i:knockout="Off" stroke="#000000" stroke-miterlimit="10" stroke-width="0.036"/>
      <path clip-rule="evenodd" d="     M150.854,239.427c-4.428-4.824-7.704-10.98-9.972-18.612c-2.34-7.74-3.528-16.668-3.708-27.216     c13.608-3.024,26.136-4.896,38.16-5.472c11.88-0.576,21.96,0.288,33.3,1.764c11.34,1.296,22.572,3.312,34.272,6.048     c0.792,5.76,1.008,11.196,0.792,16.848c-0.217,5.508-0.864,12.132-2.376,16.272c-1.801,4.068-2.772,5.976-7.633,8.208     c-4.896,2.196-11.34,3.672-21.132,4.715c-9.899,1.008-26.892,1.439-37.224,1.152     C165.002,242.738,156.938,241.406,150.854,239.427z" fill="#FB0F0C" fill-rule="evenodd" i:knockout="Off" stroke="#000000" stroke-miterlimit="10" stroke-width="0.036"/>
      <path clip-rule="evenodd" d="     M164.57,233.595c0,3.024,2.483,5.508,5.579,5.508c3.097,0,5.58-2.484,5.58-5.508s-2.483-5.472-5.58-5.472     C167.054,228.123,164.57,230.571,164.57,233.595z" fill-rule="evenodd" i:knockout="Off" stroke="#000000" stroke-miterlimit="10" stroke-width="0.036"/>
      <path clip-rule="evenodd" d="     M167.09,233.811c0,1.944,1.584,3.528,3.564,3.528c1.979,0,3.6-1.584,3.6-3.528c0-1.944-1.62-3.528-3.6-3.528     C168.674,230.283,167.09,231.867,167.09,233.811z" fill="#616161" fill-rule="evenodd" i:knockout="Off" stroke="#000000" stroke-miterlimit="10" stroke-width="0.036"/>
      <path clip-rule="evenodd" d="     M206.294,233.595c0,3.024,2.484,5.508,5.544,5.508c3.096,0,5.616-2.484,5.616-5.508s-2.521-5.472-5.616-5.472     C208.778,228.123,206.294,230.571,206.294,233.595z" fill-rule="evenodd" i:knockout="Off" stroke="#000000" stroke-miterlimit="10" stroke-width="0.036"/>
      <path clip-rule="evenodd" d="     M208.778,233.811c0,1.944,1.619,3.528,3.6,3.528c1.979,0,3.563-1.584,3.563-3.528c0-1.944-1.584-3.528-3.563-3.528     C210.397,230.283,208.778,231.867,208.778,233.811z" fill="#616161" fill-rule="evenodd" i:knockout="Off" stroke="#000000" stroke-miterlimit="10" stroke-width="0.036"/>
      <path clip-rule="evenodd" d="     M168.674,215.451l32.112-1.224c-0.072,2.088,0.611,3.132,1.764,3.132c1.152-0.072,4.032-1.332,5.292-3.348     c1.152-2.16,2.232-8.316,1.584-9.18c-0.9-0.828-4.392,2.448-5.904,3.708c-1.476,1.116-2.34,2.052-2.735,2.952     c-6.372,0.612-11.952,0.972-17.424,1.224c-5.473,0.216-10.297,0.324-14.868,0.18C168.53,213.723,168.602,214.587,168.674,215.451     z" fill-rule="evenodd" i:knockout="Off" stroke="#000000" stroke-miterlimit="10" stroke-width="0.036"/>
      <path clip-rule="evenodd" d="     M203.342,212.859c0.396-1.26,1.944-4.68,2.556-4.716c0.505-0.144,0.685,3.348,0.396,4.5c-0.576,1.152-2.196,2.268-2.772,2.376     C203.018,214.911,202.91,214.047,203.342,212.859z" fill="#A1A1A1" fill-rule="evenodd" i:knockout="Off" stroke="#000000" stroke-miterlimit="10" stroke-width="0.036"/>
      <path clip-rule="evenodd" d="     M243.481,319.922c-0.144-8.352-0.071-19.584-0.18-34.271c-0.107-14.832-0.18-32.328-0.216-53.459     c-0.612,3.06-1.872,5.4-3.924,7.416c-2.053,1.944-4.788,3.276-8.208,4.139c0.216,7.525,0.684,15.049,1.548,23.113     c0.72,7.92,1.656,15.768,3.348,24.66c1.584,8.891,3.78,18.215,6.444,28.402H243.481z" fill="#FB0F0C" fill-rule="evenodd" i:knockout="Off" stroke="#000000" stroke-miterlimit="10" stroke-width="0.036"/>
      <path clip-rule="evenodd" d="     M140.666,322.082c0.54-13.283,1.476-25.883,2.952-38.771c1.403-12.959,3.348-25.236,5.688-37.799     c-2.483-0.072-4.644-2.449-6.876-7.273c-2.232-4.932-4.32-12.024-6.264-21.708c0,17.1,0.072,31.463,0.216,44.065     c0,12.49-0.288,20.123,0.396,30.527C137.462,301.49,138.758,311.535,140.666,322.082z" fill="#FB0F0C" fill-rule="evenodd" i:knockout="Off" stroke="#000000" stroke-miterlimit="10" stroke-width="0.036"/>
      <path clip-rule="evenodd" d="     M137.75,324.855c-3.06-12.205-4.824-25.309-5.688-40.141c-0.828-14.939,0.36-32.615,0.792-48.168     c0.396-15.588,0.864-30.06,1.548-44.244c10.26-2.844,19.728-4.608,29.376-5.688c9.611-1.008,26.531-0.36,27.432-0.576     c0.504-0.54-12.276-1.62-23.328-1.584c-11.088,0.18-25.056,0.828-42.48,2.34c-1.116,2.916-1.584,9.648-1.548,20.196     c0.036,10.656,1.008,28.332,1.944,42.876c0.936,14.508,2.196,31.32,3.348,43.055c0.936,11.521,1.98,20.412,2.736,25.85     c0.684,5.363,0.72,5.184,1.764,6.264C134.618,325.971,135.986,326.043,137.75,324.855z" fill="#FB0F0C" fill-rule="evenodd" i:knockout="Off" stroke="#000000" stroke-miterlimit="10" stroke-width="0.036"/>
      <path clip-rule="evenodd" d="     M198.842,185.247c9.576,0.072,18.288,0.396,26.82,0.972c8.424,0.468,16.128,1.188,23.508,2.16     c0.396,2.808,0.612,9.756,0.792,21.132c0.072,11.412,0.576,31.212,0,46.62c-0.612,15.301-1.908,29.951-3.744,44.641     c0.036-12.42,0.036-24.877,0-38.197c-0.072-13.283-0.036-29.52-0.18-40.931c-0.108-11.52-0.504-20.52-0.792-27.576     c-7.668-2.52-15.12-4.392-22.896-5.904C214.538,186.687,206.834,185.715,198.842,185.247z" fill="#FB0F0C" fill-rule="evenodd" i:knockout="Off" stroke="#000000" stroke-miterlimit="10" stroke-width="0.036"/>
      <path clip-rule="evenodd" d="     M250.538,302.932c2.628,1.402,5.184,1.332,7.812,0.18c2.592-1.369,5.796-0.721,7.668-7.633c1.692-7.092,2.088-20.34,2.736-33.48     c0.504-13.176,1.332-33.371,0.972-44.459c-0.432-11.088-1.548-17.316-3.348-21.744c-1.836-4.428-5.184-4.5-7.416-4.68     c-2.304-0.288-5.112,2.556-6.084,3.132c-1.044,0.504-1.044,0.504,0,0c0.792,8.028,1.188,17.676,1.188,29.376     c-0.107,11.628-0.756,26.963-1.367,40.32C252.05,277.299,251.33,289.971,250.538,302.932z" fill="#FB0F0C" fill-rule="evenodd" i:knockout="Off" stroke="#000000" stroke-miterlimit="10" stroke-width="0.036"/>
      <path clip-rule="evenodd" d="     M274.802,206.775c0.828,0.288,3.672,3.312,4.5,4.5c0.54,1.08-0.036,2.16-0.756,1.98c-0.828-0.396-3.096-2.412-3.744-3.528     C274.118,208.575,273.974,206.487,274.802,206.775z" fill="#A1A1A1" fill-rule="evenodd" i:knockout="Off" stroke="#000000" stroke-miterlimit="10" stroke-width="0.036"/>
      <path clip-rule="evenodd" d="     M260.726,288.818l4.572-61.308c2.088,0.108,3.168-0.36,3.24-1.548c-0.036-1.26-0.937-4.248-2.988-5.508     c-2.124-1.332-8.063-2.88-9.072-2.16c-1.008,0.684,2.232,4.536,3.313,6.12c0.972,1.476,1.944,2.448,2.771,2.916     c0.757,1.44,0.721,7.128,0.036,17.46c-0.756,10.404-2.231,24.768-4.428,44.064C258.998,288.855,259.862,288.855,260.726,288.818z     " fill-rule="evenodd" i:knockout="Off" stroke="#000000" stroke-miterlimit="10" stroke-width="0.036"/>
      <path clip-rule="evenodd" d="     M264.074,224.883c-1.188-0.54-4.536-2.412-4.5-2.844c-0.036-0.54,3.312-0.576,4.5-0.108c1.115,0.468,2.016,2.268,2.16,2.88     C266.09,225.243,265.189,225.315,264.074,224.883z" fill="#A1A1A1" fill-rule="evenodd" i:knockout="Off" stroke="#000000" stroke-miterlimit="10" stroke-width="0.036"/>
      <path clip-rule="evenodd" d="     M126.374,308.006c0,0-5.148,2.342-7.416,0.613c-2.304-1.801-3.996-0.648-5.688-12.744c-1.728-12.275-3.204-42.877-4.5-59.724     c-1.332-16.812-2.952-32.22-3.348-40.356c-0.396-7.992,0-6.084,1.008-7.632c0.972-1.548,2.592-1.404,4.896-1.548     c2.304-0.18,7.308-1.548,8.784,0.576c1.476,2.16-0.288,4.356,0,12.132c0.324,7.848,0.864,19.152,1.764,34.272     c0.9,15.192,2.7,43.487,3.528,55.8C126.23,301.6,126.374,308.006,126.374,308.006z" fill="#FB0F0C" fill-rule="evenodd" i:knockout="Off" stroke="#000000" stroke-miterlimit="10" stroke-width="0.036"/>
      <path clip-rule="evenodd" d="     M121.334,283.238l-3.996-61.379c2.052-0.18,3.096-0.792,2.988-1.98c-0.288-1.188-1.8-4.104-3.708-5.004     c-1.98-0.936-6.552-1.476-7.452-0.648c-0.864,0.828,1.296,3.852,2.304,5.328c0.864,1.296,1.908,2.088,3.132,2.52     c0.9,1.296,1.728,6.912,2.484,17.28c0.648,10.368,1.224,24.84,1.728,44.245C119.642,283.49,120.47,283.383,121.334,283.238z" fill-rule="evenodd" i:knockout="Off" stroke="#000000" stroke-miterlimit="10" stroke-width="0.036"/>
      <path clip-rule="evenodd" d="     M115.79,219.447c-1.116-0.648-3.852-2.916-3.888-3.456c-0.18-0.432,2.448-0.108,3.456,0.54c1.008,0.468,2.376,2.016,2.556,2.556     C117.878,219.519,116.798,219.915,115.79,219.447z" fill="#A1A1A1" fill-rule="evenodd" i:knockout="Off" stroke="#000000" stroke-miterlimit="10" stroke-width="0.036"/>
      <path clip-rule="evenodd" d="     M115.034,308.402c0,0-4.32-7.164-5.688-14.867c-1.332-7.775-1.656-19.117-2.34-31.141c-0.684-12.061-0.936-28.728-1.764-40.536     c-0.864-11.772-0.792-24.336-3.348-29.556c-2.556-5.184-9.108-2.916-11.916-1.404c-2.844,1.584-4.212,3.708-4.896,10.584     c-0.684,6.948-0.396,18.828,0.756,30.564c1.188,11.771,3.816,27.469,6.084,39.348c2.268,11.844,3.564,24.877,7.452,31.141     C103.262,308.727,115.034,308.402,115.034,308.402z" fill="#FB0F0C" fill-rule="evenodd" i:knockout="Off" stroke="#000000" stroke-miterlimit="10" stroke-width="0.036"/>
      <path clip-rule="evenodd" d="     M104.45,298.611c0,0-7.272-27.145-9.576-47.773c-2.34-20.627,0.324-34.703,0.324-34.703c1.656-3.276,1.836-5.148,0.828-6.012     c-1.152-0.756-5.004,0-7.236,1.152c-2.376,0.972-5.976,4.104-6.084,5.112c0,0.828,4.176,0.756,5.868,0.756     c1.584-0.036,2.88-0.216,3.888-0.684c-1.584,8.856-1.44,19.764,0.036,33.408c1.476,13.607,4.5,29.268,9.072,47.664     C102.506,297.891,103.478,298.25,104.45,298.611z" fill-rule="evenodd" i:knockout="Off" stroke="#000000" stroke-miterlimit="10" stroke-width="0.036"/>
      <path clip-rule="evenodd" d="     M92.966,214.371c-1.44,0.504-5.796,1.332-6.408,1.08c-0.612-0.36,1.908-2.412,3.24-2.952c1.332-0.612,3.852-0.828,4.5-0.504     C94.766,212.283,94.19,213.723,92.966,214.371z" fill="#A1A1A1" fill-rule="evenodd" i:knockout="Off" stroke="#000000" stroke-miterlimit="10" stroke-width="0.036"/>
      <path clip-rule="evenodd" d="     M252.878,121.419c-10.116-0.108-17.496-0.108-22.716-0.396c-5.185-0.288-7.92-0.648-8.208-1.08     c-1.692,0.684-3.313,1.008-4.716,0.972c-1.477-0.036-2.736-0.432-3.925-1.188c-1.115,0.648-4.067,1.188-9,1.476     c-5.04,0.216-14.76,0.576-20.556,0.396c-5.868-0.145-10.584-0.648-14.292-1.368c-1.728,0.936-3.168,1.548-4.32,1.548     c-1.151-0.036-2.159-0.396-2.735-1.368l-11.34,0.792c-2.089-0.036-5.616,0.144-10.584,0.396     c-5.076,0.324-14.04,1.512-19.404,1.188c-5.436-0.504-9.216-0.648-12.888-3.924c-3.816-3.312-7.38-8.244-9.432-16.056     c-2.124-8.1-2.808-20.16-2.736-31.32c0.072-11.232,0.684-26.676,3.348-35.064c2.556-8.388,6.552-13.212,12.132-14.868     c0.648-4.608,3.06-8.64,7.236-11.952c4.176-3.42,11.484-8.532,17.64-8.244c6.12,0.216,12.24,3.42,18.792,9.612     c2.016-0.468,3.744-0.54,5.472-0.216c1.692,0.324,3.097,1.044,4.5,2.16c3.925-6.084,8.425-10.008,13.896-11.916     c5.364-1.872,13.355-0.936,18.432,0.576c5.076,1.404,8.893,4.032,11.736,8.028c0.324-1.512,1.26-2.052,2.952-1.764     c1.691,0.252,3.996,1.476,7.056,3.528c3.528-3.492,7.524-5.148,12.132-5.508c4.536-0.324,10.548-0.648,15.265,3.744     c4.644,4.464,8.892,11.736,12.743,22.5c3.78,3.636,6.696,8.604,8.604,14.904c1.944,6.372,2.556,14.544,2.952,22.716     c0.216,8.028,1.764,16.488-1.188,25.236C266.63,103.635,261.158,112.311,252.878,121.419z" fill-rule="evenodd" i:knockout="Off" stroke="#000000" stroke-miterlimit="10" stroke-width="0.036"/>
      <path clip-rule="evenodd" d="     M164.39,49.347c-0.18-5.796-0.972-11.268-2.376-16.848c-1.404-5.616-3.348-12.168-6.264-16.452     c-3.132-4.392-7.452-7.704-12.132-9.396c-4.788-1.728-11.052-3.096-15.876-0.792c-4.86,2.268-9.072,6.984-12.924,14.292     c1.764-0.936,3.564,0.54,5.688,4.716c2.088,4.104,5.004,11.736,6.66,19.98c1.44,8.244,2.16,18.18,2.556,28.98     c0.396,10.728,0.324,26.928-0.216,34.848c-0.576,7.704-1.62,11.556-3.132,11.556c2.412-0.684,5.436-1.044,9.216-1.368     c3.708-0.36,8.928-0.216,13.32-0.396c4.392-0.216,8.496-0.432,12.708-0.792c1.836-4.356,2.952-9.072,3.744-14.292     c0.611-5.436,0.756-11.16,0.575-17.028c-0.216-5.904-0.54-11.7-1.367-17.82c-2.124-0.432-3.744-1.26-4.717-2.34     c-1.08-1.152-1.403-2.7-1.367-4.5c0.071-1.872,0.504-4.212,1.584-6.876c-2.736-1.008-4.896-2.016-6.48-3.312     c-1.728-1.368-3.42-2.628-3.132-4.32c0.36-1.836,2.448-6.444,4.896-6.048C157.694,41.463,160.609,44.199,164.39,49.347z" fill="#215B4D" fill-rule="evenodd" i:knockout="Off" stroke="#000000" stroke-miterlimit="10" stroke-width="0.036"/>
      <path clip-rule="evenodd" d="     M167.306,14.679c-0.324-1.188,0.756-2.736,2.952-4.5c2.232-1.944,6.192-5.328,10.368-6.264c4.104-1.008,9.18-0.828,14.112,0.972     c4.932,1.872,10.584,4.104,14.867,10.008c4.032,5.868,7.236,13.896,9.612,24.66c-2.664-0.324-4.932-0.288-6.66,0.396     c-1.872,0.648-4.248,1.656-3.924,3.312c0.324,1.584,2.34,3.672,6.048,6.264c-1.691,2.16-2.268,4.14-1.728,6.084     c0.504,1.944,2.016,3.564,4.68,5.292c-0.504,1.44-0.396,2.808,0.18,4.104c0.54,1.188,1.656,2.304,3.349,3.348     c0.756,6.804,0.684,13.608,0.18,20.952c-0.612,7.308-1.296,17.532-3.708,22.5c-2.556,4.788-6.048,5.328-11.16,6.479     c-5.184,1.08-14.328,0.036-19.368,0.18c-4.968,0.108-7.991,0.468-10.584,0.396c-2.771-0.144-4.571-0.648-5.688-1.368     c0.792-3.852,1.512-8.244,2.16-13.716c0.611-5.58,1.548-13.14,1.548-18.792c-0.072-5.688-0.72-10.512-1.944-14.868     c2.736,1.8,5.004,2.772,6.66,2.916c1.584,0.108,2.556-0.108,3.313-2.16c0.756-2.232,1.943-9.036,1.188-10.548     c-0.864-1.512-2.952-1.044-6.264,1.548c1.26-3.924,1.403-6.876,0.576-9c-0.864-2.16-2.7-3.348-5.652-3.708     c0-4.212-0.252-8.316-0.612-12.744c-0.396-4.536-1.08-9.828-1.764-13.5C169.322,19.251,168.313,16.551,167.306,14.679z" fill="#215B4D" fill-rule="evenodd" i:knockout="Off" stroke="#000000" stroke-miterlimit="10" stroke-width="0.036"/>
      <path clip-rule="evenodd" d="     M221.738,14.283c3.239-3.24,6.876-4.932,10.764-5.076c3.888-0.216,8.208-1.224,12.563,3.924     c4.356,5.184,10.152,15.372,12.925,26.82c2.592,11.34,2.916,28.944,2.52,40.716c-0.504,11.592-3.168,22.536-5.472,28.8     c-2.412,6.192-4.933,6.732-8.82,8.424c-3.996,1.439-10.836,1.404-14.688,1.152c-3.96-0.216-6.624-1.044-8.425-2.34     c3.276-4.644,5.437-10.8,6.48-18.612c1.044-7.92,0.972-17.136-0.216-28.188c1.62,0.972,3.06,1.008,4.319,0.396     c1.225-0.756,2.664-2.16,2.952-4.5c0.108-2.448-0.468-8.028-1.584-9.396c-1.116-1.404-2.808-0.972-5.076,1.152     c1.152-1.836,1.477-3.456,1.368-5.256c-0.288-1.8-1.008-3.564-2.556-5.292c0.036-6.084-0.648-11.736-1.764-17.244     C225.842,24.255,224.078,19.143,221.738,14.283z" fill="#215B4D" fill-rule="evenodd" i:knockout="Off" stroke="#000000" stroke-miterlimit="10" stroke-width="0.036"/>
      <path clip-rule="evenodd" d="     M257.198,112.599c2.808-2.304,5.04-6.048,6.84-11.376c1.728-5.4,3.168-13.032,3.744-20.556c0.54-7.596,0.432-17.532-0.612-24.66     c-1.26-7.236-3.168-13.32-6.264-18.396c1.367,2.844,2.268,8.1,2.556,16.056c0.252,7.92,0.216,21.168-0.792,31.14     C261.626,94.635,259.754,103.851,257.198,112.599z" fill="#215B4D" fill-rule="evenodd" i:knockout="Off" stroke="#000000" stroke-miterlimit="10" stroke-width="0.036"/>
      <path clip-rule="evenodd" d="     M125.978,63.063c0.792-6.768,0.468-12.96-0.972-19.008c-1.476-6.048-5.004-13.572-7.632-16.848     c-2.628-3.204-5.004-5.184-8.028-2.34c-3.024,2.88-8.604,7.704-9.972,19.404c-1.368,11.772-1.62,40.248,0.36,52.668     c2.016,12.312,7.812,16.956,11.592,20.736c3.744,3.744,9.936,5.256,12.132-0.756c2.16-6.156,1.764-24.696,0.756-35.46     c-1.008-10.728-2.844-28.656-5.472-34.452c-2.628-5.796-6.876-11.844-9-9.216c-2.124,2.7-6.48,19.152-6.084,28.008     c0.468,8.856,4.896,30.456,7.452,33.876c2.592,3.312,8.424-5.436,9-10.764c0.54-5.4-4.32-21.816-5.652-21.168     c-1.368,0.828,3.024,14.688,2.124,20.196c-0.864,5.472-3.312,9-4.896,5.076c-1.548-3.924-2.412-15.732-2.52-21.528     c-0.108-5.796,1.26-10.908,2.34-12.744c1.08-1.8,2.232-1.692,4.104,1.944c1.908,3.672,5.94,11.736,7.056,19.8     c1.08,8.064-1.548,17.172-2.736,23.508c-1.224,6.228-3.996,7.02-7.056,5.256c-3.096-1.8-5.508-3.204-8.028-11.52     c-2.484-8.352-2.376-17.136-2.556-27.432c-0.144-10.332,0.288-21.06,2.16-28.008c1.872-6.876,5.58-10.944,8.424-10.584     c2.808,0.432,4.068,2.88,6.48,11.196c2.376,8.352,4.824,16.92,6.624,33.876C125.978,72.207,125.978,67.635,125.978,63.063z" fill="#215B4D" fill-rule="evenodd" i:knockout="Off" stroke="#000000" stroke-miterlimit="10" stroke-width="0.036"/>
      <path clip-rule="evenodd" d="     M158.486,12.735c2.088-0.72,3.924,0.252,5.508,2.916c1.476,2.664,2.771,7.2,3.888,12.924c1.116,5.616,1.836,12.348,2.556,20.592     c-0.359-0.144-0.611,0.18-1.151,0.972c-0.433,0.792-1.152,1.98-1.765,3.708c0-4.68-0.575-9.792-1.584-15.48     c-1.188-5.904-3.348-14.184-4.68-18.576C159.926,15.471,159.134,13.167,158.486,12.735z" fill="#A16121" fill-rule="evenodd" i:knockout="Off" stroke="#000000" stroke-miterlimit="10" stroke-width="0.036"/>
      <path clip-rule="evenodd" d="     M169.286,66.591c0.899,0.432,4.392-3.672,5.472-5.904c0.864-2.268,0.9-5.832,0.396-7.236c-0.54-1.512-2.484-2.016-3.349-1.368     c-0.972,0.612-1.836,2.592-2.16,5.112C169.142,59.643,168.422,65.871,169.286,66.591z" fill="#A16121" fill-rule="evenodd" i:knockout="Off" stroke="#000000" stroke-miterlimit="10" stroke-width="0.036"/>
      <path clip-rule="evenodd" d="     M167.126,59.535c-0.504-1.368-2.521-4.104-3.528-3.348c-0.936,0.756-2.376,6.516-1.979,7.848c0.252,1.26,2.987,0.252,3.924-0.396     C166.37,62.775,167.45,60.759,167.126,59.535z" fill="#A16121" fill-rule="evenodd" i:knockout="Off" stroke="#000000" stroke-miterlimit="10" stroke-width="0.036"/>
      <path clip-rule="evenodd" d="     M160.646,48.555c0.54,1.188-0.396,3.456-1.548,3.348c-1.224-0.216-5.004-3.132-5.508-4.32c-0.648-1.404,0.756-3.24,1.98-3.132     C156.866,44.667,159.854,47.151,160.646,48.555z" fill="#A16121" fill-rule="evenodd" i:knockout="Off" stroke="#000000" stroke-miterlimit="10" stroke-width="0.036"/>
      <path clip-rule="evenodd" d="     M175.154,67.347c0.611-1.188,4.428-4.5,5.472-4.104c0.899,0.396,0.684,5.076,0.18,6.264c-0.647,1.08-2.808,0.504-3.708,0.216     C176.054,69.219,174.578,68.427,175.154,67.347z" fill="#A16121" fill-rule="evenodd" i:knockout="Off" stroke="#000000" stroke-miterlimit="10" stroke-width="0.036"/>
      <path clip-rule="evenodd" d="     M168.098,72.243c0.252,3.708,0.216,8.1,0.181,13.32c-0.181,5.148-0.108,12.132-0.757,17.64     c-0.72,5.364-1.836,10.368-3.348,14.868c0.324,1.152,0.828,1.584,1.368,1.584c0.396,0.036,0.936,0.72,1.764-1.98     c0.864-3.096,2.232-9.756,3.132-15.264c0.757-5.472,1.261-11.592,1.368-16.848c0-5.328-0.828-11.952-1.368-14.472     c-0.756-2.556-2.159-0.864-2.556-0.612C167.45,70.659,167.521,71.199,168.098,72.243z" fill="#A16121" fill-rule="evenodd" i:knockout="Off" stroke="#000000" stroke-miterlimit="10" stroke-width="0.036"/>
      <path clip-rule="evenodd" d="     M226.058,44.631c0.54-3.348,0.36-6.876-0.396-11.16c-0.937-4.392-2.809-10.332-4.5-14.076c-1.765-3.78-4.141-6.552-5.868-8.028     c-1.764-1.512-3.384-1.62-4.716-0.612c2.016,2.844,3.852,6.372,5.508,10.584c1.692,4.176,3.312,10.584,4.284,14.508     c0.828,3.852-0.252,6.84,0.792,8.424C222.134,45.675,223.718,45.891,226.058,44.631z" fill="#A16121" fill-rule="evenodd" i:knockout="Off" stroke="#000000" stroke-miterlimit="10" stroke-width="0.036"/>
      <path clip-rule="evenodd" d="     M220.189,49.347c-2.195,1.476-3.312,3.024-3.743,4.5c-0.433,1.512,0.071,2.808,1.367,4.32c1.801-1.296,2.916-2.664,3.349-4.104     C221.521,52.515,221.198,51.075,220.189,49.347z" fill="#A16121" fill-rule="evenodd" i:knockout="Off" stroke="#000000" stroke-miterlimit="10" stroke-width="0.036"/>
      <path clip-rule="evenodd" d="     M221.162,60.507c0-1.188,0.504-2.376,1.368-4.104c0.827-1.692,2.016-3.6,3.708-5.868c0.611,2.952,0.792,5.508,0.396,7.812     c-0.504,2.196-1.836,5.292-2.736,5.688C223.034,64.395,221.99,63.171,221.162,60.507z" fill="#A16121" fill-rule="evenodd" i:knockout="Off" stroke="#000000" stroke-miterlimit="10" stroke-width="0.036"/>
      <path clip-rule="evenodd" d="     M229.586,60.687c1.224-1.764,2.124-2.34,3.132-2.124c0.937,0.252,2.232,2.088,2.34,3.708c-0.036,1.548-1.08,5.58-2.16,5.868     c-1.188,0.144-2.592-1.116-4.5-4.32C228.794,62.775,229.189,61.731,229.586,60.687z" fill="#A16121" fill-rule="evenodd" i:knockout="Off" stroke="#000000" stroke-miterlimit="10" stroke-width="0.036"/>
      <path clip-rule="evenodd" d="     M217.238,44.271c-1.584-1.656-2.772-2.628-3.708-2.772c-1.044-0.18-2.305,0.396-1.98,1.584c0.324,1.08,1.584,2.664,3.924,4.896     C216.05,46.755,216.626,45.531,217.238,44.271z" fill="#A16121" fill-rule="evenodd" i:knockout="Off" stroke="#000000" stroke-miterlimit="10" stroke-width="0.036"/>
      <path clip-rule="evenodd" d="     M223.322,88.695c-0.217,4.464-0.721,9.864-1.368,14.112c-0.937,4.284-2.952,8.496-3.528,10.979     c-0.54,2.34-0.36,3.313,0.396,2.916c0.72-0.54,2.34-2.556,3.888-6.048c1.332-3.6,3.815-9.684,4.536-15.48     c0.72-5.904,0.144-15.444-0.216-19.584c-0.469-4.212-1.801-5.616-2.341-5.472c-0.647,0-1.044,2.7-1.188,5.868     C223.25,79.083,223.466,84.159,223.322,88.695z" fill="#A16121" fill-rule="evenodd" i:knockout="Off" stroke="#000000" stroke-miterlimit="10" stroke-width="0.036"/>
      <path clip-rule="evenodd" d="     M96.998,137.187c0.432-2.952,1.548-5.76,3.348-8.028c1.692-2.412,2.952-4.716,7.236-6.084c4.212-1.44,12.6-1.404,18.216-1.98     c5.544-0.648,11.196-1.584,14.868-1.548c3.528,0,5.688,0.36,6.479,1.368h10.98c0.972-1.044,4.212-1.692,9.576-1.944     c5.436-0.324,16.848-0.072,22.716,0.18c5.688,0.072,8.352,0.468,11.736,0.792c3.312,0.36,6.119,0.648,8.424,1.152     c2.412,0.396,4.536,0.504,6.66,0.612c2.088-0.036,3.888-0.072,5.688-0.396c0.072-0.684,1.224-0.612,5.472-0.576     c4.32,0,14.292,0.504,19.009,1.152c4.644,0.684,5.58-0.792,8.819,2.736c3.204,3.6,8.208,12.276,10.368,18.432     c2.124,6.084,2.916,11.124,2.34,18c-0.611,6.912-2.987,17.568-5.868,22.932c-2.916,5.256-5.724,7.128-11.34,8.604     c-5.724,1.404-10.188,0.972-16.271,0.576s-8.028-2.16-8.028-2.16l-7.632-0.396c0,0-1.08,1.476-10.584,1.764     c-9.504,0.324-11.521-0.612-27.396-0.576c0,0-7.02,0.648-11.159,0.396c-4.177-0.252-5.112-1.764-5.112-1.764h-5.076     c0,0-1.62,1.188-8.028,1.764c-6.407,0.576-6.191,0-17.64,0.576c-11.34,0.612-15.264,3.528-20.736,2.556     c-5.472-1.008-8.568-3.888-11.772-8.424c-3.168-4.536-6.336-10.26-7.236-18.612C94.19,159.939,94.802,149.715,96.998,137.187z" fill-rule="evenodd" i:knockout="Off" stroke="#000000" stroke-miterlimit="10" stroke-width="0.036"/>
      <path clip-rule="evenodd" d="     M120.722,124.047c4.104-0.684,7.92-1.332,11.736-1.548c3.78-0.36,8.064-0.612,10.764-0.216c2.521,0.396,4.141,1.044,4.716,2.34     c0.9,1.008,2.269,2.52,4.104,4.536c1.836,1.908,4.752,4.104,6.66,7.416c1.764,3.276,3.132,7.272,4.104,12.132     c-1.296-0.36-2.196,0.18-2.556,1.764c-0.432,1.548,0.107,5.004,0.216,7.452c-0.108,2.376-0.504,4.788-0.216,6.66     c0.18,1.764,0.899,2.952,1.764,3.708c0.433,1.368,0.252,3.672-0.396,7.056c-0.756,3.348-1.944,10.692-3.708,13.14     c-1.872,2.304-3.276,0.828-6.84,0.972c-3.673,0.072-10.081-0.504-14.508-0.216c-4.5,0.18-8.352,0.756-11.952,1.584     c2.196-6.552,3.456-13.752,3.924-22.14c0.396-8.46-0.108-20.268-1.368-27.792C125.87,133.407,123.674,127.791,120.722,124.047z" fill="#1AA6B6" fill-rule="evenodd" i:knockout="Off" stroke="#000000" stroke-miterlimit="10" stroke-width="0.036"/>
      <path clip-rule="evenodd" d="     M163.382,123.075c4.608-0.648,9.576-1.152,15.3-1.368c5.688-0.432,12.42-0.828,18.396-0.216     c5.903,0.648,11.16,1.908,16.452,3.924c2.771,1.692,4.68,3.672,6.264,6.084c1.44,2.448,2.016,5.004,2.556,8.208     c0.433,2.988,0.756,6.372,0.576,10.008c-1.188,0-2.016,0.36-2.34,1.368c-0.396,0.864,0.216,2.016,0.18,4.284     c-0.18,2.196-1.044,6.84-0.792,9.216c0.216,2.376,0.937,3.816,2.16,4.716c0.145,2.052-0.18,4.68-0.972,8.028     c-0.828,3.24-2.088,7.2-3.924,11.736c-1.656,0.36-4.788,0.72-9.396,0.792c-4.788-0.036-12.816-0.108-18.396-0.216     c-5.616-0.144-10.872-0.072-14.509-0.18c-3.563-0.108-6.012-0.18-7.056-0.216c-0.072-0.144,0-0.612,0.216-1.548     c0.181-0.936,0.396-2.196,0.792-3.924l3.528,1.584l6.84-5.904c-1.836-1.836-3.276-3.456-4.32-5.256s-1.691-3.564-1.943-5.292     c1.439,0.252,2.16-0.648,2.556-2.556c0.216-2.124-0.36-6.444-0.612-9.216c-0.288-2.808-0.359-5.868-0.756-7.236     c-0.504-1.368-1.116-1.692-1.979-0.972c0.071-3.276-0.252-6.444-0.973-9.792c-0.863-3.456-2.376-7.452-3.708-10.188     S164.857,124.299,163.382,123.075z" fill="#1AA6B6" fill-rule="evenodd" i:knockout="Off" stroke="#000000" stroke-miterlimit="10" stroke-width="0.036"/>
      <path clip-rule="evenodd" d="     M225.481,124.263c-0.899-1.044,0.973-1.512,5.473-1.404c4.5,0.072,11.628,0.612,21.527,1.764     c2.772,2.088,5.148,5.436,7.272,10.188c2.052,4.752,4.5,11.7,5.256,18.216c0.612,6.444,0.252,14.184-1.368,20.16     c-1.764,5.976-4.823,11.736-8.604,14.904c-3.924,2.844-9.648,2.556-14.112,2.736c-4.464,0.216-8.64-0.36-12.528-1.584     l1.188-5.652c0.072,0.54,0.396,1.044,0.972,1.368c0.504,0.324,1.332,0.468,2.34,0.576l7.057-7.236     c-1.656-1.512-2.916-2.7-3.924-4.104c-1.009-1.368-1.765-2.628-2.124-3.924c0.504,0.18,1.008-0.432,1.367-1.98     c0.396-1.692,0.9-4.248,0.973-7.236c-0.108-3.06-0.756-8.28-1.368-10.368c-0.648-2.196-1.548-2.88-2.556-2.34     c0.72-4.428,0.575-8.568-0.576-12.564C230.486,131.715,228.578,127.971,225.481,124.263z" fill="#1AA6B6" fill-rule="evenodd" i:knockout="Off" stroke="#000000" stroke-miterlimit="10" stroke-width="0.036"/>
      <path clip-rule="evenodd" d="     M150.674,123.867l9.18-0.396c1.944,1.8,3.385,3.996,4.717,6.444c1.044,2.448,2.088,5.472,2.735,8.244     c0.685,2.7,1.368,5.112,1.765,7.632l-4.32,0.396c-0.36-3.924-1.477-7.668-3.888-11.376     C158.486,131.031,155.138,127.431,150.674,123.867z" fill="#A1A1A1" fill-rule="evenodd" i:knockout="Off" stroke="#000000" stroke-miterlimit="10" stroke-width="0.036"/>
      <path clip-rule="evenodd" d="     M165.362,152.055c1.188-0.324,4.571-0.54,5.688,0.18c0.937,0.648,0.432,1.836,0.576,4.14c0.072,2.304,1.224,7.668,0.396,9.576     c-0.936,1.764-3.996,1.044-5.292,1.188c-1.367,0.036-2.231,0.468-2.735-0.792c-0.54-1.44-0.648-4.896-0.612-7.056     c-0.108-2.304,0.072-4.392,0.396-5.688C163.958,152.379,164.21,152.235,165.362,152.055z" fill="#A1A1A1" fill-rule="evenodd" i:knockout="Off" stroke="#000000" stroke-miterlimit="10" stroke-width="0.036"/>
      <path clip-rule="evenodd" d="     M165.542,170.451l5.688-0.576c-0.107,1.404,0.288,2.844,1.188,4.32c0.864,1.476,2.231,2.772,4.104,4.284l-4.104,5.112     c-2.736-1.908-4.608-3.492-5.904-4.896s-1.691-2.052-1.764-3.348C164.498,173.907,164.894,172.323,165.542,170.451z" fill="#A1A1A1" fill-rule="evenodd" i:knockout="Off" stroke="#000000" stroke-miterlimit="10" stroke-width="0.036"/>
      <path clip-rule="evenodd" d="     M163.382,179.271c-0.504,1.44-0.792,2.808-1.152,4.5c-0.288,1.548-0.647,3.24-0.792,5.076l4.104,0.396l1.368-6.264     c-0.324-0.36-0.828-0.72-1.368-1.368C164.894,180.927,164.174,180.243,163.382,179.271z" fill="#A1A1A1" fill-rule="evenodd" i:knockout="Off" stroke="#000000" stroke-miterlimit="10" stroke-width="0.036"/>
      <path clip-rule="evenodd" d="     M224.87,170.451l5.688-0.576c-0.107,1.404,0.288,2.844,1.188,4.32c0.863,1.476,2.231,2.772,4.104,4.284l-4.104,5.112     c-2.664-1.908-4.572-3.492-5.868-4.896c-1.368-1.404-1.584-2.052-1.764-3.348C223.897,173.907,224.149,172.323,224.87,170.451z" fill="#A1A1A1" fill-rule="evenodd" i:knockout="Off" stroke="#000000" stroke-miterlimit="10" stroke-width="0.036"/>
      <path clip-rule="evenodd" d="     M223.105,179.847c-0.504,1.44-0.792,2.808-1.151,4.5c-0.288,1.62-0.648,3.276-0.792,5.112l4.104,0.396l1.368-6.264     c-0.324-0.36-0.828-0.72-1.368-1.368C224.618,181.575,223.897,180.783,223.105,179.847z" fill="#A1A1A1" fill-rule="evenodd" i:knockout="Off" stroke="#000000" stroke-miterlimit="10" stroke-width="0.036"/>
      <path clip-rule="evenodd" d="     M225.662,151.479c1.188-0.324,4.572-0.54,5.688,0.18c0.937,0.684,0.433,1.728,0.576,4.104c0.072,2.268,1.224,7.74,0.396,9.612     c-0.937,1.836-3.996,0.972-5.292,1.152c-1.368,0.036-2.232,0.432-2.736-0.756c-0.54-1.44-0.685-4.896-0.576-7.056     c-0.108-2.304,0.072-4.392,0.396-5.688C224.33,151.803,224.474,151.659,225.662,151.479z" fill="#A1A1A1" fill-rule="evenodd" i:knockout="Off" stroke="#000000" stroke-miterlimit="10" stroke-width="0.036"/>
      <path clip-rule="evenodd" d="     M215.078,124.047l6.876,0.396c1.8,1.8,3.492,3.996,4.68,6.444c1.152,2.448,2.196,5.328,2.736,8.244     c0.504,2.88,0.899,5.688,0.792,8.82l-5.076,0.18c0.288-4.536-0.324-8.64-1.98-12.708     C221.378,131.355,218.75,127.611,215.078,124.047z" fill="#A1A1A1" fill-rule="evenodd" i:knockout="Off" stroke="#000000" stroke-miterlimit="10" stroke-width="0.036"/>
      <path clip-rule="evenodd" d="     M125.618,151.659c-0.396-7.452-1.332-13.212-2.952-17.424c-1.584-4.248-3.528-7.092-6.66-7.848     c-3.348-0.864-9.576-1.116-12.708,3.132c-3.168,4.284-5.184,14.544-5.904,22.32c-0.612,7.74,0.072,17.46,1.764,23.724     c1.656,6.12,4.14,10.332,7.452,12.924c3.06,2.556,8.172,5.148,11.16,2.34c2.952-3.06,5.796-12.816,6.444-19.98     c0.324-7.308-1.296-17.1-3.312-23.112c-2.052-6.12-5.436-11.592-8.208-12.924c-2.808-1.332-6.66-0.072-8.244,5.292     c-1.656,5.4-2.016,19.368-1.368,26.64c0.576,7.128,2.34,15.444,4.896,16.056c2.556,0.468,8.892-7.128,9.972-12.924     c0.756-5.976-2.664-18.324-4.284-21.924c-1.692-3.6-4.104-3.276-4.896,0.396c-0.756,3.636-0.576,19.26,0.396,21.312     c0.792,1.98,4.392-8.388,4.68-9.576c0.18-1.332-2.772,2.88-3.312,1.944c-0.756-1.188-0.828-7.2-0.216-8.028     c0.684-0.756,3.24,1.188,3.924,3.348c0.432,2.016,0.036,6.12-0.792,8.82c-0.9,2.628-2.916,7.56-4.104,7.02     c-1.296-0.756-2.808-6.372-3.132-11.16c-0.324-4.86,0.072-14.328,1.188-17.424c0.972-3.168,3.132-3.744,5.076-1.152     c1.98,2.52,5.436,10.764,6.48,16.416c0.9,5.616,0.756,12.744-1.008,17.064c-2.016,4.284-7.488,8.46-10.152,8.208     c-2.664-0.54-4.356-4.968-5.508-10.764c-1.332-6.012-1.8-17.424-1.548-24.084c0.288-6.732,1.368-12.24,3.528-15.264     c2.196-3.024,6.768-3.6,9.396-2.556c2.412,0.936,4.032,5.04,5.688,8.424c1.62,3.168,2.988,6.948,4.104,11.34     c1.044,4.5,1.872,9.468,2.34,15.3C125.762,162.243,125.69,156.951,125.618,151.659z" fill="#1AA6B6" fill-rule="evenodd" i:knockout="Off" stroke="#000000" stroke-miterlimit="10" stroke-width="0.036"/>
    </g>
  </g>
</svg>
