<?xml version="1.0" encoding="UTF-8" standalone="no"?>
<!DOCTYPE svg PUBLIC "-//W3C//DTD SVG 20010904//EN"
"http://www.w3.org/TR/2001/REC-SVG-20010904/DTD/svg10.dtd">
<!-- Created with Inkscape (http://www.inkscape.org/) --><svg height="297mm" id="svg1" inkscape:version="0.40" sodipodi:docbase="/junior/inkscape-files" sodipodi:docname="cronometro.svg" sodipodi:version="0.32" width="210mm" xmlns="http://www.w3.org/2000/svg" xmlns:cc="http://web.resource.org/cc/" xmlns:dc="http://purl.org/dc/elements/1.1/" xmlns:inkscape="http://www.inkscape.org/namespaces/inkscape" xmlns:rdf="http://www.w3.org/1999/02/22-rdf-syntax-ns#" xmlns:sodipodi="http://sodipodi.sourceforge.net/DTD/sodipodi-0.dtd" xmlns:xlink="http://www.w3.org/1999/xlink" xmlns:xml="http://www.w3.org/XML/1998/namespace">
  <metadata>
    <rdf:RDF xmlns:cc="http://web.resource.org/cc/" xmlns:dc="http://purl.org/dc/elements/1.1/" xmlns:rdf="http://www.w3.org/1999/02/22-rdf-syntax-ns#">
      <cc:Work rdf:about="">
        <dc:title>cronometro</dc:title>
        <dc:description>create with the inkscape</dc:description>
        <dc:subject>
          <rdf:Bag>
            <rdf:li>sports</rdf:li>
          </rdf:Bag>
        </dc:subject>
        <dc:publisher>
          <cc:Agent rdf:about="http://www.openclipart.org">
            <dc:title>Mauro Olivo</dc:title>
          </cc:Agent>
        </dc:publisher>
        <dc:creator>
          <cc:Agent>
            <dc:title>Mauro Olivo</dc:title>
          </cc:Agent>
        </dc:creator>
        <dc:rights>
          <cc:Agent>
            <dc:title>Mauro Olivo</dc:title>
          </cc:Agent>
        </dc:rights>
        <dc:date></dc:date>
        <dc:format>image/svg+xml</dc:format>
        <dc:type rdf:resource="http://purl.org/dc/dcmitype/StillImage"/>
        <cc:license rdf:resource="http://web.resource.org/cc/PublicDomain"/>
        <dc:language>en</dc:language>
      </cc:Work>
      <cc:License rdf:about="http://web.resource.org/cc/PublicDomain">
        <cc:permits rdf:resource="http://web.resource.org/cc/Reproduction"/>
        <cc:permits rdf:resource="http://web.resource.org/cc/Distribution"/>
        <cc:permits rdf:resource="http://web.resource.org/cc/DerivativeWorks"/>
      </cc:License>
    </rdf:RDF>
  </metadata>
  <defs id="defs3">
    <marker id="Dot_l" inkscape:stockid="Dot_l" orient="auto" refX="0.0" refY="0.0" style="overflow:visible;">
      <path d="M -2.5,-1.0 C -2.5,1.7600000 -4.7400000,4.0 -7.5,4.0 C -10.260000,4.0 -12.5,1.7600000 -12.5,-1.0 C -12.5,-3.7600000 -10.260000,-6.0 -7.5,-6.0 C -4.7400000,-6.0 -2.5,-3.7600000 -2.5,-1.0 z " id="path41" style="fill-rule:evenodd;stroke:#000000;stroke-width:1.0pt;marker-start:none;marker-end:none;" transform="scale(0.8) translate(7.125493, 1)"/>
    </marker>
    <linearGradient id="linearGradient2182">
      <stop id="stop2183" offset="0.0000000" style="stop-color:#5e5e5e;stop-opacity:1.0000000;"/>
      <stop id="stop2184" offset="1.0000000" style="stop-color:#474747;stop-opacity:0.45360824;"/>
    </linearGradient>
    <linearGradient id="linearGradient1712">
      <stop id="stop1713" offset="0.0000000" style="stop-color:#000000;stop-opacity:1.0000000;"/>
      <stop id="stop1714" offset="1.0000000" style="stop-color:#ffffff;stop-opacity:1.0000000;"/>
    </linearGradient>
    <linearGradient id="linearGradient1702" inkscape:collect="always">
      <stop id="stop1703" offset="0" style="stop-color:#cacaca;stop-opacity:1;"/>
      <stop id="stop1704" offset="1" style="stop-color:#cacaca;stop-opacity:0;"/>
    </linearGradient>
    <radialGradient cx="376.01102" cy="509.72693" fx="376.01102" fy="509.72693" gradientTransform="scale(1.000023,0.999977)" gradientUnits="userSpaceOnUse" id="radialGradient1706" inkscape:collect="always" r="497.32242" xlink:href="#linearGradient1702"/>
    <radialGradient cx="376.01102" cy="509.72693" fx="376.01102" fy="509.72693" gradientTransform="matrix(0.998034,0.000000,0.000000,0.996000,2.572305,2.109895)" gradientUnits="userSpaceOnUse" id="radialGradient1711" inkscape:collect="always" r="497.32242" xlink:href="#linearGradient1702"/>
    <radialGradient cx="378.60052" cy="530.60614" fx="378.60052" fy="530.60614" gradientTransform="scale(1.000023,0.999977)" gradientUnits="userSpaceOnUse" id="radialGradient1716" inkscape:collect="always" r="432.16794" xlink:href="#linearGradient1712"/>
    <radialGradient cx="488.17316" cy="57.465031" fx="488.17316" fy="57.465031" gradientTransform="matrix(0.392815,-0.391524,0.577150,0.579053,-400.4880,533.7718)" gradientUnits="userSpaceOnUse" id="radialGradient2439" inkscape:collect="always" r="60.889591" xlink:href="#linearGradient2182"/>
    <linearGradient gradientTransform="matrix(0.849149,0.000000,0.000000,1.177650,-1.141480,1.331726)" gradientUnits="userSpaceOnUse" id="linearGradient2472" inkscape:collect="always" x1="398.92209" x2="562.05591" xlink:href="#linearGradient1712" y1="23.035074" y2="22.349941"/>
    <linearGradient gradientTransform="scale(1.873989,0.533621)" gradientUnits="userSpaceOnUse" id="linearGradient2571" inkscape:collect="always" x1="182.43839" x2="222.02640" xlink:href="#linearGradient2182" y1="350.02600" y2="350.02600"/>
    <linearGradient gradientTransform="matrix(0.571792,1.109586e-16,-1.144574e-16,0.792995,-357.8353,245.5806)" gradientUnits="userSpaceOnUse" id="linearGradient2584" inkscape:collect="always" x1="398.92209" x2="562.05591" xlink:href="#linearGradient1712" y1="23.035074" y2="22.349941"/>
  </defs>
  <sodipodi:namedview bordercolor="#666666" borderopacity="1.0" id="base" inkscape:current-layer="layer1" inkscape:cx="297.63778" inkscape:cy="420.94487" inkscape:grid-bbox="false" inkscape:guide-bbox="true" inkscape:pageopacity="0.0" inkscape:pageshadow="2" inkscape:window-height="1024" inkscape:window-width="1280" inkscape:window-x="0" inkscape:window-y="0" inkscape:zoom="1.0072578" pagecolor="#ffffff" showgrid="false" showguides="true"/>
  <g id="layer1" inkscape:groupmode="layer" inkscape:label="Layer 1">
    <g id="g1565">
      <g id="g2572" transform="matrix(0.801762,0.000000,0.000000,0.801762,62.01824,112.0001)">
        <g id="g2450" transform="translate(3.301504,-1.238065)">
          <rect height="103.27541" id="rect1719" rx="2.9807506" ry="2.9807506" style="fill:url(#linearGradient2472);fill-opacity:1.0000000;stroke:#000000;stroke-width:1.8625000;stroke-miterlimit:4.0000000;stroke-opacity:1.0000000" transform="matrix(1.258842,0.000000,0.000000,1.258842,-93.91017,76.97726)" width="74.467148" x="337.60275" y="-23.178738"/>
          <rect height="118.30826" id="rect2190" rx="3.7522941" ry="3.7522941" style="fill:#5e5e5e;fill-opacity:0.84360188;stroke:none;stroke-width:2.8625000;stroke-miterlimit:4.0000000;stroke-opacity:1.0000000" width="8.3821640" x="335.42981" y="52.004631"/>
          <rect height="118.30826" id="rect2191" rx="3.7522941" ry="3.7522941" style="fill:#5e5e5e;fill-opacity:1.0000000;stroke:none;stroke-width:2.8625000;stroke-miterlimit:4.0000000;stroke-opacity:1.0000000" width="8.3821640" x="348.94070" y="52.004631"/>
          <rect height="118.30826" id="rect2192" rx="3.7522941" ry="3.7522941" style="fill:#5e5e5e;fill-opacity:0.68246448;stroke:none;stroke-width:2.8625000;stroke-miterlimit:4.0000000;stroke-opacity:1.0000000" width="8.3821640" x="364.23495" y="52.004631"/>
          <rect height="118.30826" id="rect2193" rx="3.7522941" ry="3.7522941" style="fill:#5e5e5e;fill-opacity:1.0000000;stroke:none;stroke-width:2.8625000;stroke-miterlimit:4.0000000;stroke-opacity:1.0000000" width="8.3821640" x="380.98489" y="52.004631"/>
          <rect height="118.30826" id="rect2194" rx="3.7522941" ry="3.7522941" style="fill:#454545;fill-opacity:1.0000000;stroke:none;stroke-width:2.8625000;stroke-miterlimit:4.0000000;stroke-opacity:1.0000000" width="8.3821640" x="395.16983" y="52.004631"/>
          <rect height="118.30826" id="rect2195" rx="3.7522941" ry="3.7522941" style="fill:#5e5e5e;fill-opacity:1.0000000;stroke:none;stroke-width:2.8625000;stroke-miterlimit:4.0000000;stroke-opacity:1.0000000" width="8.3821640" x="409.63867" y="52.004631"/>
        </g>
        <path d="M 342.51251,176.84375 L 342.51251,181.84375 C 342.51252,184.91018 344.97731,187.40625 348.04376,187.40625 L 352.26251,187.40625 L 352.26251,196.71875 L 405.70001,196.71875 L 405.70001,187.40625 L 409.88751,187.40625 C 412.95395,187.40625 415.45002,184.91018 415.45001,181.84375 L 415.45001,176.84375 L 342.51251,176.84375 z " id="rect1717" style="fill:url(#linearGradient2571);fill-opacity:1.0000000;stroke:#000000;stroke-width:1.2500000;stroke-miterlimit:4.0000000;stroke-opacity:1.0000000" transform="translate(2.269788,0.825378)"/>
      </g>
      <path d="M 378.62500,197.15625 C 194.55556,197.15625 45.156249,346.53233 45.156250,530.59375 C 45.156250,714.65517 194.55555,864.03128 378.62500,864.03125 C 562.69444,864.03125 712.06249,714.65517 712.06250,530.59375 C 712.06250,346.53233 562.69443,197.15625 378.62500,197.15625 z M 378.62500,242.81250 C 537.48882,242.81250 666.40625,371.73676 666.40625,530.59375 C 666.40625,689.45074 537.48883,818.37500 378.62500,818.37500 C 219.76116,818.37497 90.812500,689.45074 90.812500,530.59375 C 90.812500,371.73676 219.76117,242.81250 378.62500,242.81250 z " id="path1078" style="fill:url(#radialGradient1706);fill-opacity:1.0000000;stroke:url(#radialGradient1716);stroke-width:2.8625000;stroke-miterlimit:4.0000000;stroke-opacity:1.0000000;" transform="matrix(0.801762,0.000000,0.000000,0.801762,62.01824,112.0001)"/>
      <path d="M 380.44732,198.48844 C 196.74401,198.48844 47.632238,347.27975 47.632238,530.60925 C 47.632228,713.93874 196.74400,862.69859 380.44732,862.69856 C 564.15063,862.69859 713.23082,713.93875 713.23083,530.60925 C 713.23082,347.27974 564.15062,198.48844 380.44732,198.48844 z M 379.72134,203.78070 C 544.58477,203.78070 678.38373,350.50339 678.38373,531.27078 C 678.38373,712.03816 544.58477,858.72937 379.72134,858.72937 C 214.85790,858.72934 81.058942,712.03817 81.058942,531.27078 C 81.058932,350.50337 214.85790,203.78070 379.72134,203.78070 z " id="path1707" style="fill:url(#radialGradient1711);fill-opacity:1.0000000;stroke:none;stroke-width:1.2388747;stroke-miterlimit:4.0000000;stroke-opacity:1.0000000;" transform="matrix(0.801762,0.000000,0.000000,0.801762,62.01824,112.0001)"/>
      <path d="M 624.21954 562.16992 A 224.61975 210.96883 0 1 1  174.98004,562.16992 A 224.61975 210.96883 0 1 1  624.21954 562.16992 z" id="path2396" sodipodi:cx="399.59979" sodipodi:cy="562.16992" sodipodi:rx="224.61975" sodipodi:ry="210.96883" sodipodi:type="arc" style="fill:none;fill-opacity:1.0000000;stroke:#ff0000;stroke-width:17.328644;stroke-linecap:butt;stroke-linejoin:miter;stroke-miterlimit:4.0000000;stroke-dasharray:415.88745 415.88745;stroke-dashoffset:136.89629;stroke-opacity:1.0000000;marker-start:none;marker-mid:none;marker-end:none;" transform="matrix(0.917289,-0.372169,0.400453,0.970133,-225.9076,141.3010)"/>
      <g id="g2585" transform="matrix(0.801762,0.000000,0.000000,0.801762,62.01824,112.0001)">
        <path d="M -228.04904,371.13932 C -229.21080,372.29726 -229.21388,374.17358 -228.05594,375.33534 L -195.16690,408.33280 C -194.00896,409.49455 -192.13264,409.49765 -190.97088,408.33970 L -189.37615,406.75021 L -185.85551,410.28246 L -165.61588,390.10933 L -169.13652,386.57708 L -167.54179,384.98759 C -166.38003,383.82965 -166.37695,381.95332 -167.53489,380.79157 L -200.42393,347.79411 C -201.58187,346.63236 -203.45820,346.62927 -204.61995,347.78721 L -228.04904,371.13932 z " id="path2208" style="fill:url(#radialGradient2439);fill-opacity:1.0000000;stroke:#000000;stroke-width:0.84171367;stroke-miterlimit:4.0000000;stroke-opacity:1.0000000" transform="translate(320.1762,-107.9664)"/>
        <rect height="69.542633" id="rect2209" rx="3.7522871" ry="3.7522871" style="fill:url(#linearGradient2584);fill-opacity:1.0000000;stroke:#000000;stroke-width:1.2541527;stroke-miterlimit:4.0000000;stroke-opacity:1.0000000" transform="matrix(0.708269,-0.705942,0.705942,0.708269,0.000000,0.000000)" width="50.143990" x="-129.73492" y="229.07599"/>
      </g>
      <path d="M 624.21954 562.16992 A 224.61975 210.96883 0 1 1  174.98004,562.16992 A 224.61975 210.96883 0 1 1  624.21954 562.16992 z" id="path2257" sodipodi:cx="399.59979" sodipodi:cy="562.16992" sodipodi:rx="224.61975" sodipodi:ry="210.96883" sodipodi:type="arc" style="fill:none;fill-opacity:1.0000000;stroke:#000000;stroke-width:26.894588;stroke-linecap:butt;stroke-linejoin:miter;stroke-miterlimit:4.0000000;stroke-dasharray:6.7236470 6.7236470;stroke-dashoffset:8.0683760;stroke-opacity:0.14218010;marker-start:none;marker-mid:none;marker-end:none;" transform="matrix(0.968423,0.000000,0.000000,1.026231,-21.71594,-38.99101)"/>
      <path d="M 624.21954 562.16992 A 224.61975 210.96883 0 1 1  174.98004,562.16992 A 224.61975 210.96883 0 1 1  624.21954 562.16992 z" id="path2258" sodipodi:cx="399.59979" sodipodi:cy="562.16992" sodipodi:rx="224.61975" sodipodi:ry="210.96883" sodipodi:type="arc" style="fill:none;fill-opacity:1.0000000;stroke:#000000;stroke-width:0.0000000;stroke-miterlimit:4.0000000;stroke-dasharray:0.0000000 0.0000000;stroke-dashoffset:0.0000000;stroke-opacity:1.0000000;" transform="matrix(0.934194,0.000000,0.000000,0.996563,-8.535148,-23.27102)"/>
      <rect height="48.398731" id="rect2404" style="fill:#ff0000;fill-opacity:1.0000000;stroke:none;stroke-width:26.900000;stroke-linecap:butt;stroke-linejoin:miter;stroke-miterlimit:4.0000000;stroke-dashoffset:8.0699996;stroke-opacity:0.19905211;" transform="matrix(0.801762,0.000000,0.000000,0.801762,62.01824,112.0001)" width="9.9279451" x="377.91977" y="244.47566"/>
      <rect height="48.398735" id="rect2405" style="fill:#ff0000;fill-opacity:1.0000000;stroke:none;stroke-width:26.900000;stroke-linecap:butt;stroke-linejoin:miter;stroke-miterlimit:4.0000000;stroke-dashoffset:8.0699996;stroke-opacity:0.19905211;" transform="matrix(1.360819e-2,0.801647,-0.801647,1.360819e-2,62.01824,112.0001)" width="9.9279461" x="522.69025" y="-130.67126"/>
      <rect height="48.398735" id="rect2406" style="fill:#ff0000;fill-opacity:1.0000000;stroke:none;stroke-width:26.900000;stroke-linecap:butt;stroke-linejoin:miter;stroke-miterlimit:4.0000000;stroke-dashoffset:8.0699996;stroke-opacity:0.19905211;" transform="matrix(1.360819e-2,0.801647,-0.801647,1.360819e-2,62.01824,112.0001)" width="9.9279461" x="531.62103" y="-656.77655"/>
      <rect height="48.398731" id="rect2407" style="fill:#ff0000;fill-opacity:1.0000000;stroke:none;stroke-width:26.900000;stroke-linecap:butt;stroke-linejoin:miter;stroke-miterlimit:4.0000000;stroke-dashoffset:8.0699996;stroke-opacity:0.19905211;" transform="matrix(-0.801698,1.013843e-2,-1.013843e-2,-0.801698,62.01824,112.0001)" width="9.9279461" x="-375.16318" y="-822.55957"/><text id="text2408" sodipodi:linespacing="100%" style="font-size:40.000000;font-style:normal;font-variant:normal;font-weight:normal;font-stretch:normal;fill:#ff0000;fill-opacity:1.0000000;stroke:none;stroke-width:1.0000000pt;stroke-linecap:butt;stroke-linejoin:miter;stroke-opacity:1.0000000;font-family:Arial Black;text-anchor:start;writing-mode:lr;" transform="matrix(0.801762,0.000000,0.000000,0.801762,490.8551,421.4393)" x="-181.185" xml:space="preserve" y="378.5029"><tspan id="tspan2409" sodipodi:role="line" x="-181.18500" y="378.50290">30</tspan></text><text id="text2411" sodipodi:linespacing="100%" style="font-size:40.000000;font-style:normal;font-variant:normal;font-weight:normal;font-stretch:normal;fill:#ff0000;fill-opacity:1.0000000;stroke:none;stroke-width:1.0000000pt;stroke-linecap:butt;stroke-linejoin:miter;stroke-opacity:1.0000000;font-family:Arial Black;text-anchor:start;writing-mode:lr;" transform="matrix(0.801762,0.000000,0.000000,0.801762,462.9956,31.40666)" x="-143.9552" xml:space="preserve" y="426.90164"><tspan id="tspan2412" sodipodi:role="line" x="-143.95520" y="426.90164">60</tspan></text><text id="text2414" sodipodi:linespacing="100%" style="font-size:40.000000;font-style:normal;font-variant:normal;font-weight:normal;font-stretch:normal;fill:#ff0000;fill-opacity:1.0000000;stroke:none;stroke-width:1.0000000pt;stroke-linecap:butt;stroke-linejoin:miter;stroke-opacity:1.0000000;font-family:Arial Black;text-anchor:start;writing-mode:lr;" transform="matrix(0.801762,0.000000,0.000000,0.801762,564.4837,279.1569)" x="-68.254623" xml:space="preserve" y="330.10419"><tspan id="tspan2415" sodipodi:role="line" x="-68.254623" y="330.10419">15</tspan></text><text id="text2417" sodipodi:linespacing="100%" style="font-size:40.000000;font-style:normal;font-variant:normal;font-weight:normal;font-stretch:normal;fill:#ff0000;fill-opacity:1.0000000;stroke:none;stroke-width:1.0000000pt;stroke-linecap:butt;stroke-linejoin:miter;stroke-opacity:1.0000000;font-family:Arial Black;text-anchor:start;writing-mode:lr;" transform="matrix(0.801762,0.000000,0.000000,0.801762,216.2403,211.4982)" x="-45.916744" xml:space="preserve" y="414.4917"><tspan id="tspan2418" sodipodi:role="line" x="-45.916744" y="414.49170">45</tspan></text>
      <path d="M 579.06569,368.70750 L 388.76264,507.64488 C 382.40672,504.70506 374.68507,505.28533 368.79805,509.92048 C 362.58070,514.81573 360.20016,522.77012 362.09775,529.95205 L 319.73682,551.01488 L 341.73681,577.64322 L 371.34722,541.80066 C 377.90613,545.41909 386.27238,545.00428 392.53746,540.07144 C 398.37634,535.47420 400.75010,528.19906 399.45676,521.37885 L 580.22559,370.18067 L 579.06569,368.70750 z " id="path2420" style="fill:#000000;fill-opacity:1.0000000;stroke:none;stroke-width:26.900000;stroke-linecap:butt;stroke-linejoin:miter;stroke-miterlimit:4.0000000;stroke-dashoffset:8.0699996;stroke-opacity:1.0000000;" transform="matrix(0.801762,0.000000,0.000000,0.801762,62.01824,112.0001)"/>
      <path d="M 170.01605 426.28116 A 8.6869516 8.0664558 0 1 1  152.64215,426.28116 A 8.6869516 8.0664558 0 1 1  170.01605 426.28116 z" id="path2400" sodipodi:cx="161.32910" sodipodi:cy="426.28116" sodipodi:rx="8.6869516" sodipodi:ry="8.0664558" sodipodi:type="arc" style="fill:#f6c600;fill-opacity:1.0000000;stroke:#000000;stroke-width:1.8013955;stroke-miterlimit:4.0000000;stroke-dashoffset:0.0000000;stroke-opacity:1.0000000;" transform="matrix(0.801762,0.000000,0.000000,0.857583,238.2152,167.8586)"/>
      <path d="M 428.14264 459.16745 A 63.290649 60.808662 0 1 1  301.56134,459.16745 A 63.290649 60.808662 0 1 1  428.14264 459.16745 z" id="path2394" sodipodi:cx="364.85199" sodipodi:cy="459.16745" sodipodi:rx="63.290649" sodipodi:ry="60.808662" sodipodi:type="arc" style="fill:none;fill-opacity:1.0000000;stroke:#000000;stroke-width:13.703172;stroke-miterlimit:4.0000000;stroke-dasharray:3.4257931 3.4257931;stroke-dashoffset:16.443808;stroke-opacity:0.12796207;" transform="matrix(0.820697,0.000000,0.000000,0.854470,70.28128,47.77688)"/>
      <g id="g2484" transform="matrix(0.693878,0.401691,-0.401691,0.693878,532.6226,404.1523)">
        <path d="M -153.96304,75.670651 L -156.71066,136.65853 C -158.71354,137.48091 -160.10005,139.14524 -160.10005,141.08591 C -160.10005,143.13548 -158.56714,144.89441 -156.37974,145.65898 L -159.47833,157.65421 L -148.39761,157.44377 L -151.55636,145.67517 C -149.34209,144.92020 -147.78591,143.15122 -147.78591,141.08591 C -147.78591,139.16111 -149.14891,137.51239 -151.12517,136.68280 L -153.36137,75.670651 L -153.96304,75.670651 z " id="path2474" style="fill:#000000;fill-opacity:1.0000000;stroke:none;stroke-width:26.900000;stroke-linecap:butt;stroke-linejoin:miter;stroke-miterlimit:4.0000000;stroke-dashoffset:8.0699996;stroke-opacity:1.0000000"/>
        <path d="M 170.01605 426.28116 A 8.6869516 8.0664558 0 1 1  152.64215,426.28116 A 8.6869516 8.0664558 0 1 1  170.01605 426.28116 z" id="path2475" sodipodi:cx="161.32910" sodipodi:cy="426.28116" sodipodi:rx="8.6869516" sodipodi:ry="8.0664558" sodipodi:type="arc" style="fill:#f6c600;fill-opacity:1.0000000;stroke:#000000;stroke-width:1.8013955;stroke-miterlimit:4.0000000;stroke-dashoffset:0.0000000;stroke-opacity:1.0000000" transform="matrix(0.418183,0.000000,0.000000,0.447298,-221.4932,-49.68201)"/>
      </g><text id="text2476" sodipodi:linespacing="100%" style="font-size:20.000000;font-style:normal;font-variant:normal;font-weight:normal;font-stretch:normal;fill:#ff0000;fill-opacity:1.0000000;stroke:none;stroke-width:1.0000000pt;stroke-linecap:butt;stroke-linejoin:miter;stroke-opacity:1.0000000;font-family:Arial Black;text-anchor:start;writing-mode:lr;" transform="matrix(0.801762,0.000000,0.000000,0.801762,475.2881,64.91222)" x="-143.9552" xml:space="preserve" y="426.90164"><tspan id="tspan2477" sodipodi:role="line" x="-143.95520" y="426.90164">60</tspan></text><text id="text2487" sodipodi:linespacing="100%" style="font-size:20.000000;font-style:normal;font-variant:normal;font-weight:normal;font-stretch:normal;fill:#ff0000;fill-opacity:1.0000000;stroke:none;stroke-width:1.0000000pt;stroke-linecap:butt;stroke-linejoin:miter;stroke-opacity:1.0000000;font-family:Arial Black;text-anchor:start;writing-mode:lr;" transform="matrix(0.801762,0.000000,0.000000,0.801762,505.1141,180.3065)" x="-181.185" xml:space="preserve" y="378.5029"><tspan id="tspan2488" sodipodi:role="line" x="-181.18500" y="378.50290">30</tspan></text><text id="text2490" sodipodi:linespacing="100%" style="font-size:20.000000;font-style:normal;font-variant:normal;font-weight:normal;font-stretch:normal;fill:#ff0000;fill-opacity:1.0000000;stroke:none;stroke-width:1.0000000pt;stroke-linecap:butt;stroke-linejoin:miter;stroke-opacity:1.0000000;font-family:Arial Black;text-anchor:start;writing-mode:lr;" transform="matrix(0.801762,0.000000,0.000000,0.801762,446.9664,179.8789)" x="-68.254623" xml:space="preserve" y="330.10419"><tspan id="tspan2491" sodipodi:role="line" x="-68.254623" y="330.10419">15</tspan></text><text id="text2493" sodipodi:linespacing="100%" style="font-size:20.000000;font-style:normal;font-variant:normal;font-weight:normal;font-stretch:normal;fill:#ff0000;fill-opacity:1.0000000;stroke:none;stroke-width:1.0000000pt;stroke-linecap:butt;stroke-linejoin:miter;stroke-opacity:1.0000000;font-family:Arial Black;text-anchor:start;writing-mode:lr;" transform="matrix(0.801762,0.000000,0.000000,0.801762,362.3461,112.2202)" x="-45.916744" xml:space="preserve" y="414.4917"><tspan id="tspan2494" sodipodi:role="line" x="-45.916744" y="414.49170">45</tspan></text>
      <rect height="14.883137" id="rect2497" style="fill:#000000;fill-opacity:0.65402842;stroke:none;stroke-width:26.900000;stroke-linecap:butt;stroke-linejoin:miter;stroke-miterlimit:4.0000000;stroke-dashoffset:8.0699996;stroke-opacity:0.18009479;" transform="matrix(0.801762,0.000000,0.000000,0.801762,492.8740,326.9160)" width="5.8566680" x="-155.50171" y="69.012680"/>
      <rect height="14.325668" id="rect2500" style="fill:#000000;fill-opacity:0.65402842;stroke:none;stroke-width:26.900000;stroke-linecap:butt;stroke-linejoin:miter;stroke-miterlimit:4.0000000;stroke-dashoffset:8.0699996;stroke-opacity:0.18009479;" transform="matrix(8.945780e-3,0.801712,-0.801659,1.284508e-2,492.8740,326.9160)" width="5.8565135" x="133.18933" y="212.65562"/>
      <rect height="14.312397" id="rect2501" style="fill:#000000;fill-opacity:0.65402842;stroke:none;stroke-width:26.900000;stroke-linecap:butt;stroke-linejoin:miter;stroke-miterlimit:4.0000000;stroke-dashoffset:8.0699996;stroke-opacity:0.18009479;" transform="matrix(0.801762,0.000000,0.000000,0.801762,492.8740,326.9160)" width="5.8566680" x="-155.90854" y="198.93062"/>
      <rect height="14.893756" id="rect2503" style="fill:#000000;fill-opacity:0.65402842;stroke:none;stroke-width:26.900000;stroke-linecap:butt;stroke-linejoin:miter;stroke-miterlimit:4.0000000;stroke-dashoffset:8.0699996;stroke-opacity:0.18009479;" transform="matrix(9.300551e-3,0.801708,-0.801667,1.235513e-2,492.8740,326.9160)" width="5.8565454" x="135.11626" y="82.994469"/><text id="text2525" sodipodi:linespacing="100%" style="font-size:28.000000;font-style:normal;font-variant:normal;font-weight:normal;font-stretch:normal;fill:#000000;fill-opacity:0.31372550;stroke:none;stroke-width:1.0000000pt;stroke-linecap:butt;stroke-linejoin:miter;stroke-opacity:1.0000000;font-family:Arial Black;text-anchor:start;writing-mode:lr;" transform="matrix(0.801762,0.000000,0.000000,0.801762,562.4937,214.4832)" x="-135.26825" xml:space="preserve" y="209.72784"><tspan id="tspan2526" sodipodi:role="line" x="-135.26825" y="209.72784">5</tspan></text><text id="text2528" sodipodi:linespacing="100%" style="font-size:28.000000;font-style:normal;font-variant:normal;font-weight:normal;font-stretch:normal;fill:#000000;fill-opacity:0.31372550;stroke:none;stroke-width:1.0000000pt;stroke-linecap:butt;stroke-linejoin:miter;stroke-opacity:1.0000000;font-family:Arial Black;text-anchor:start;writing-mode:lr;" transform="matrix(0.801762,0.000000,0.000000,0.801762,622.1926,253.2874)" x="-136.50925" xml:space="preserve" y="254.40359"><tspan id="tspan2529" sodipodi:role="line" x="-136.50925" y="254.40359">10</tspan></text><text id="text2531" sodipodi:linespacing="100%" style="font-size:28.000000;font-style:normal;font-variant:normal;font-weight:normal;font-stretch:normal;fill:#000000;fill-opacity:0.31372550;stroke:none;stroke-width:1.0000000pt;stroke-linecap:butt;stroke-linejoin:miter;stroke-opacity:1.0000000;font-family:Arial Black;text-anchor:start;writing-mode:lr;" transform="matrix(0.801762,0.000000,0.000000,0.801762,622.1926,384.6249)" x="-129.06329" xml:space="preserve" y="297.83835"><tspan id="tspan2532" sodipodi:role="line" x="-129.06329" y="297.83835">20</tspan></text><text id="text2534" sodipodi:linespacing="100%" style="font-size:28.000000;font-style:normal;font-variant:normal;font-weight:normal;font-stretch:normal;fill:#000000;fill-opacity:0.31372550;stroke:none;stroke-width:1.0000000pt;stroke-linecap:butt;stroke-linejoin:miter;stroke-opacity:1.0000000;font-family:Arial Black;text-anchor:start;writing-mode:lr;" transform="matrix(0.801762,0.000000,0.000000,0.801762,542.5941,438.3539)" x="-122.85832" xml:space="preserve" y="333.82715"><tspan id="tspan2535" sodipodi:role="line" x="-122.85832" y="333.82715">25</tspan></text><text id="text2537" sodipodi:linespacing="100%" style="font-size:28.000000;font-style:normal;font-variant:normal;font-weight:normal;font-stretch:normal;fill:#000000;fill-opacity:0.31372550;stroke:none;stroke-width:1.0000000pt;stroke-linecap:butt;stroke-linejoin:miter;stroke-opacity:1.0000000;font-family:Arial Black;text-anchor:start;writing-mode:lr" transform="matrix(0.801762,0.000000,0.000000,0.801762,356.9645,420.8067)" x="-120.37633" xml:space="preserve" y="361.129"><tspan id="tspan2538" sodipodi:role="line" x="-120.37633" y="361.12900">35</tspan></text><text id="text2540" sodipodi:linespacing="100%" style="font-size:28.000000;font-style:normal;font-variant:normal;font-weight:normal;font-stretch:normal;fill:#000000;fill-opacity:0.31372550;stroke:none;stroke-width:1.0000000pt;stroke-linecap:butt;stroke-linejoin:miter;stroke-opacity:1.0000000;font-family:Arial Black;text-anchor:start;writing-mode:lr" transform="matrix(0.801762,0.000000,0.000000,0.801762,281.0180,321.0386)" x="-116.65336" xml:space="preserve" y="387.18985"><tspan id="tspan2541" sodipodi:role="line" x="-116.65336" y="387.18985">40</tspan></text><text id="text2543" sodipodi:linespacing="100%" style="font-size:28.000000;font-style:normal;font-variant:normal;font-weight:normal;font-stretch:normal;fill:#000000;fill-opacity:0.31372550;stroke:none;stroke-width:1.0000000pt;stroke-linecap:butt;stroke-linejoin:miter;stroke-opacity:1.0000000;font-family:Arial Black;text-anchor:start;writing-mode:lr;" transform="matrix(0.801762,0.000000,0.000000,0.801762,277.9291,126.9248)" x="-111.68938" xml:space="preserve" y="414.4917"><tspan id="tspan2544" sodipodi:role="line" x="-111.68938" y="414.49170">50</tspan></text><text id="text2546" sodipodi:linespacing="100%" style="font-size:28.000000;font-style:normal;font-variant:normal;font-weight:normal;font-stretch:normal;fill:#000000;fill-opacity:0.31372550;stroke:none;stroke-width:1.0000000pt;stroke-linecap:butt;stroke-linejoin:miter;stroke-opacity:1.0000000;font-family:Arial Black;text-anchor:start;writing-mode:lr;" transform="matrix(0.801762,0.000000,0.000000,0.801762,337.6280,31.40650)" x="-105.48442" xml:space="preserve" y="438.07059"><tspan id="tspan2547" sodipodi:role="line" x="-105.48442" y="438.07059">55</tspan></text>
      <rect height="33.477543" id="rect2549" style="fill:#000000;fill-opacity:0.31372550;stroke:none;stroke-width:26.900000;stroke-linecap:butt;stroke-linejoin:miter;stroke-miterlimit:4.0000000;stroke-dashoffset:8.0699996;stroke-opacity:0.18009479;" transform="matrix(0.697476,0.395411,-0.395411,0.697476,62.01824,112.0001)" width="8.6781645" x="587.43616" y="-11.517067"/>
      <rect height="33.477554" id="rect2550" style="fill:#000000;fill-opacity:0.31372550;stroke:none;stroke-width:26.900000;stroke-linecap:butt;stroke-linejoin:miter;stroke-miterlimit:4.0000000;stroke-dashoffset:8.0699996;stroke-opacity:0.18009479;" transform="matrix(0.406210,0.691242,-0.691242,0.406210,62.01824,112.0001)" width="8.6781673" x="654.99670" y="-343.95798"/>
      <rect height="33.477551" id="rect2551" style="fill:#000000;fill-opacity:0.31372550;stroke:none;stroke-width:26.900000;stroke-linecap:butt;stroke-linejoin:miter;stroke-miterlimit:4.0000000;stroke-dashoffset:8.0699996;stroke-opacity:0.18009479;" transform="matrix(0.709475,-0.373454,0.373454,0.709475,62.01824,112.0001)" width="8.6781664" x="70.896873" y="359.21295"/>
      <rect height="33.477558" id="rect2552" style="fill:#000000;fill-opacity:0.31372550;stroke:none;stroke-width:26.900000;stroke-linecap:butt;stroke-linejoin:miter;stroke-miterlimit:4.0000000;stroke-dashoffset:8.0699996;stroke-opacity:0.18009479;" transform="matrix(0.377047,-0.707572,0.707572,0.377047,62.01824,112.0001)" width="8.6781683" x="-296.48474" y="297.49442"/>
      <rect height="25.550714" id="rect2553" style="fill:#000000;fill-opacity:0.31372550;stroke:none;stroke-width:26.900000;stroke-linecap:butt;stroke-linejoin:miter;stroke-miterlimit:4.0000000;stroke-dashoffset:8.0699996;stroke-opacity:0.18009479" transform="matrix(-0.421080,-0.907024,0.907024,-0.421080,0.000000,0.000000)" width="6.6233444" x="-647.39587" y="-124.36662"/>
      <rect height="25.882277" id="rect2554" style="fill:#000000;fill-opacity:0.31372550;stroke:none;stroke-width:26.900000;stroke-linecap:butt;stroke-linejoin:miter;stroke-miterlimit:4.0000000;stroke-dashoffset:8.0699996;stroke-opacity:0.18009479" transform="matrix(-0.891684,-0.452658,0.452658,-0.891684,0.000000,0.000000)" width="6.7092929" x="-564.58319" y="-543.37616"/>
      <rect height="33.477570" id="rect2555" style="fill:#000000;fill-opacity:0.31372550;stroke:none;stroke-width:26.900000;stroke-linecap:butt;stroke-linejoin:miter;stroke-miterlimit:4.0000000;stroke-dashoffset:8.0699996;stroke-opacity:0.18009479;" transform="matrix(-0.315871,0.736918,-0.736918,-0.315871,62.01824,112.0001)" width="8.6781712" x="335.62317" y="-845.32733"/>
      <rect height="33.477570" id="rect2556" style="fill:#000000;fill-opacity:0.31372550;stroke:none;stroke-width:26.900000;stroke-linecap:butt;stroke-linejoin:miter;stroke-miterlimit:4.0000000;stroke-dashoffset:8.0699996;stroke-opacity:0.18009479;" transform="matrix(-0.683505,0.419099,-0.419099,-0.683505,62.01824,112.0001)" width="8.6781712" x="-47.401344" y="-936.55487"/><text id="text34335" style="font-size:12.000000;font-style:normal;font-weight:normal;fill:#000000;fill-opacity:1.0000000;stroke:none;stroke-width:1.0000000pt;stroke-linecap:butt;stroke-linejoin:miter;stroke-opacity:1.0000000;font-family:Bitstream Vera Sans;" transform="matrix(0.801762,0.000000,0.000000,0.801762,162.5113,-76.05133)" x="212.20982" xml:space="preserve" y="914.61194"><tspan id="tspan34336" sodipodi:role="line" x="212.20982" y="914.61194">MADE IN ITALY</tspan></text>
      <rect height="708.66101" id="rect171" style="font-size:12.000000;fill:#ffffff;fill-rule:evenodd;stroke-width:1.0000000pt;" transform="matrix(2.553751e-2,0.000000,0.000000,2.553751e-2,359.9445,630.6337)" width="1062.9900" x="-250.48463" y="-152.59409"/>
      <rect height="708.66101" id="rect403" style="font-size:12.000000;fill:#009500;fill-opacity:1.0000000;fill-rule:evenodd;stroke-width:1.0000000pt;" transform="matrix(2.553751e-2,0.000000,0.000000,2.553751e-2,359.9445,630.6337)" width="354.33099" x="-250.48463" y="-152.59409"/>
      <rect height="708.66101" id="rect135" style="font-size:12.000000;fill:#fc0000;fill-rule:evenodd;stroke-width:1.0000000pt;" transform="matrix(2.553751e-2,0.000000,0.000000,2.553751e-2,359.9445,630.6337)" width="354.33099" x="458.17636" y="-152.59409"/>
    </g>
  </g>
</svg>
