<?xml version="1.0" encoding="utf-8"?>
<!-- Generator: Adobe Illustrator 10.0, SVG Export Plug-In . SVG Version: 3.0.0 Build 77)  --><svg enable-background="new 0 0 473.683 382.146" height="382.146" i:pageBounds="0 792 612 0" i:rulerOrigin="0 0" i:viewOrigin="68 586" overflow="visible" space="preserve" viewBox="0 0 473.683 382.146" width="473.683" xmlns="http://www.w3.org/2000/svg" xmlns:a="http://ns.adobe.com/AdobeSVGViewerExtensions/3.0/" xmlns:graph="http://ns.adobe.com/Graphs/1.0/" xmlns:i="http://ns.adobe.com/AdobeIllustrator/10.0/" xmlns:x="http://ns.adobe.com/Extensibility/1.0/" xmlns:xlink="http://www.w3.org/1999/xlink">
  <metadata>
    <rdf:RDF xmlns:cc="http://web.resource.org/cc/" xmlns:dc="http://purl.org/dc/elements/1.1/" xmlns:rdf="http://www.w3.org/1999/02/22-rdf-syntax-ns#">
      <cc:Work rdf:about="">
        <dc:title>Hiker Hiking</dc:title>
        <dc:description>Hiker Hiking</dc:description>
        <dc:subject>
          <rdf:Bag>
            <rdf:li>people</rdf:li>
            <rdf:li>sports</rdf:li>
            <rdf:li>hiking</rdf:li>
          </rdf:Bag>
        </dc:subject>
        <dc:publisher>
          <cc:Agent rdf:about="http://www.openclipart.org/">
            <dc:title>Open Clip Art Project</dc:title>
          </cc:Agent>
        </dc:publisher>
        <dc:creator>
          <cc:Agent rdf:about="http://web.resource.org/cc/PublicDomain">
            <dc:title>AbiClipart</dc:title>
          </cc:Agent>
        </dc:creator>
        <dc:rights>
          <cc:Agent rdf:about="http://web.resource.org/cc/PublicDomain">
            <dc:title>Public Domain</dc:title>
          </cc:Agent>
        </dc:rights>
        <dc:date>2005/05/13</dc:date>
        <dc:format>image/svg+xml</dc:format>
        <dc:type rdf:resource="http://purl.org/dc/dcmitype/StillImage"/>
        <cc:license rdf:resource="http://web.resource.org/cc/PublicDomain"/>
        <dc:language>en</dc:language>
      </cc:Work>
      <cc:License rdf:about="http://web.resource.org/cc/PublicDomain">
        <cc:permits rdf:resource="http://web.resource.org/cc/Reproduction"/>
        <cc:permits rdf:resource="http://web.resource.org/cc/Distribution"/>
        <cc:permits rdf:resource="http://web.resource.org/cc/DerivativeWorks"/>
      </cc:License>
    </rdf:RDF>
  </metadata>
  <g i:dimmedPercent="50" i:layer="yes" i:rgbTrio="#4F008000FFFF" id="Layer_1">
    <g>
      <path clip-rule="evenodd" d="     M77.354,100.032c-3.024-1.44-8.136-1.44-15.48,0.144c-7.524,1.512-19.296,4.464-28.512,9     c-9.216,4.536-21.384,11.448-25.956,17.424c-4.572,5.724-11.412,11.052-1.224,17.1c10.296,6.012,30.6,12.168,62.028,18.756     c-0.468,1.728,0.432,4.68,2.556,8.856c2.124,4.176,5.472,9.36,10.188,15.948l70.56-16.848c0.288-7.776,0.144-13.788-0.576-18.612     c-0.684-4.824-1.944-8.028-3.636-9.9c2.844-9.432,2.304-17.892-1.62-25.812c-4.104-8.1-16.524-17.712-22.104-21.492     c-5.652-3.708-9.252-3.852-11.232-0.576c-0.288,2.016-3.168,3.42-9.036,4.5C97.334,99.492,88.911,99.996,77.354,100.032z" fill-rule="evenodd" i:knockout="Off" stroke="#000000" stroke-miterlimit="10" stroke-width="0.036"/>
      <path clip-rule="evenodd" d="     M90.423,145.824c3.348,0.576,6.804,0.324,10.8-0.612c3.852-0.972,8.1-2.772,12.6-5.256c-0.396,2.952,0.36,4.752,2.124,5.4     c1.692,0.612,5.508,1.26,8.388-1.8c2.844-3.168,8.568-12.888,8.568-17.1c-0.216-4.284-5.724-6.3-9.144-8.424     c-3.456-2.376-7.668-5.184-11.124-4.932c-3.6,0.288-5.328,4.572-9.756,6.732c-4.5,2.088-9.972,3.996-16.812,5.868     c-1.62-2.16-4.428-3.888-8.856-5.724c-4.536-1.872-10.62-5.688-17.424-4.932c-6.912,0.684-23.184,8.64-23.256,9.432     c-0.036,0.612,15.156-5.472,22.824-5.076c7.632,0.432,14.94,2.88,22.5,7.488c-0.288,2.448-0.18,5.256,0.324,8.568     s1.296,6.876,2.52,11.088c1.62,3.204,0.576,5.436-3.132,7.236c-3.888,1.728-9.144,4.104-19.368,2.844     c-10.368-1.548-33.084-7.524-41.904-11.268c-8.748-3.816-9.756-7.416-10.656-10.944c-1.008-3.564,0.144-5.904,4.968-9.936     c4.86-4.212,13.788-10.44,23.724-14.4c9.792-3.996,21.204-6.912,34.668-9.144c2.34,0.648,5.868,1.08,11.124,0.9     c5.22-0.144,14.364-0.648,19.656-1.656c5.004-1.188,7.308-4.176,10.656-4.68c3.348-0.432,5.292-0.648,9.324,1.98     c3.924,2.556,10.44,7.884,14.256,13.212c3.708,5.328,6.732,12.672,7.956,18.288c1.08,5.544,0.576,10.224-1.368,14.58     c1.764,1.368,3.024,4.176,3.78,8.712c0.648,4.464,0.792,10.512,0.432,18.144L82.323,186.18c-2.088-2.628-3.852-5.832-5.58-9.756     c-1.728-3.924-3.276-8.568-4.644-13.788c5.256-0.252,9.36-1.764,12.456-4.536C87.615,155.22,89.522,151.26,90.423,145.824z" fill="#137F40" fill-rule="evenodd" i:knockout="Off" stroke="#000000" stroke-miterlimit="10" stroke-width="0.036"/>
      <path clip-rule="evenodd" d="     M86.679,129.588c-0.18,2.484-0.216,4.788,0.288,6.912c0.396,2.16,1.152,3.924,2.268,5.688c3.888,0.612,7.56,0.288,11.556-0.576     c3.924-0.972,8.604-3.42,11.7-5.112c2.916-1.764,4.968-3.564,6.012-5.4c-1.548,3.852-2.196,6.696-1.656,8.388     c0.504,1.62,2.556,3.06,4.5,1.8c1.908-1.404,5.076-6.588,6.444-9.288c1.224-2.808,1.8-4.644,0.612-6.768     c-1.44-2.124-6.012-4.392-8.424-5.832c-2.34-1.62-3.816-3.276-5.688-3.168c-2.016-0.072-3.276,2.052-6.156,3.6     c-3.096,1.512-8.1,4.212-11.7,5.868C92.727,127.284,89.703,128.58,86.679,129.588z" fill="#E8BDB1" fill-rule="evenodd" i:knockout="Off" stroke="#000000" stroke-miterlimit="10" stroke-width="0.036"/>
      <path clip-rule="evenodd" d="     M77.535,105c-0.576-3.744-2.232-7.056-5.256-10.08c-3.06-3.024-8.82-5.364-12.708-7.848c-4.068-2.52-8.784-3.852-10.8-7.452     c-1.98-3.744-2.412-8.676-1.152-14.94l1.512-7.848c-1.224,0.54-2.196,0.036-2.628-1.512c-0.468-1.656-0.684-5.616-0.36-7.848     c0.18-2.304,0.9-4.968,1.872-5.22c0.972-0.288,2.088,1.008,3.744,3.744v-14.58l-4.86,2.628c-0.54-1.188-0.396-2.52,0.72-4.14     c1.044-1.62,2.916-3.528,5.616-5.58h-5.976c0.828-2.592,1.944-4.536,3.348-5.976c1.332-1.476,2.952-2.304,4.86-2.628     l-2.592-1.872c0.792-2.772,2.412-4.644,4.86-5.616c2.448-1.044,5.58-1.116,9.684-0.36l1.152-5.616l7.452,3.384     c0.108-2.952,0.864-4.572,1.872-4.86c1.116-0.36,2.484,0.684,4.5,2.988l2.592-3.744c5.112,2.844,8.712,5.688,11.232,8.964     c2.376,3.168,3.492,6.48,3.348,10.08c1.656,2.088,2.88,4.212,4.104,6.372c1.116,2.16,1.944,4.14,2.628,6.336     c1.008-1.296,1.872-1.692,2.592-1.116c0.756,0.576,1.152,0.792,1.872,4.5c0.756,3.708-0.54,7.668,1.512,13.176     c2.052,5.508,5.544,7.776,6.192,10.296c0.612,2.52,0.144,5.112-1.332,9.036c-1.548,3.888-5.724,6.732-7.092,12.672     c-1.404,6.012-1.764,13.464-1.152,22.824C98.451,103.775,88.011,104.388,77.535,105z" fill-rule="evenodd" i:knockout="Off" stroke="#000000" stroke-miterlimit="10" stroke-width="0.036"/>
      <path clip-rule="evenodd" d="     M52.515,78.324c-1.728-1.908-2.592-3.708-3.024-5.94c-0.396-2.268,0.288-4.068,0.684-7.056c0.324-3.024,0.684-6.588,1.224-10.836     c-1.368,1.44-2.448,1.692-3.096,0.36c-0.792-1.368-1.116-6.516-0.972-8.1c0.036-1.656,0.54-1.944,1.512-1.692     c0.9,0.108,2.196,1.188,3.888,2.844c0.252-1.404,0.36-3.348,0.468-6.12c0.036-2.736,0-6.156-0.108-10.26     c2.484-1.332,4.176-2.628,5.076-3.888c0.828-1.368,0.972-2.52,0.288-3.852c1.224-1.008,2.232-2.088,2.628-3.096     c0.396-1.044,0.396-2.16,0-3.204c5.004-0.288,8.532-0.828,10.728-1.62c2.124-0.828,2.88-1.872,2.268-3.276     c0.972,0.252,2.34,0.468,4.248,0.648c1.908,0.18,5.184,0.504,7.056,0.396c1.764-0.216,3.024-0.792,3.78-1.728     c0.9,1.224,2.16,2.376,3.78,3.6c1.512,1.152,3.384,2.34,5.616,3.563c0.684,1.08,1.548,2.916,2.736,5.364     c1.152,2.484,2.484,5.58,4.14,9.432c0.792-1.728,1.44-2.124,2.088-1.044c0.576,1.008,1.08,4.824,1.512,7.164     c0.36,2.196,0.216,4.248,0.828,6.3c0.468,1.944,1.368,3.024,2.556,5.76c1.08,2.736,4.788,7.092,4.608,10.584     c-0.288,3.456-4.068,6.66-5.652,9.756c-1.692,2.88-3.312,5.22-4.032,7.848c-0.756,2.556-0.576,4.176-0.576,7.92     c-0.108,3.708-0.072,8.424,0.108,14.292l-27.972,1.26c-0.036-3.312-1.368-6.408-4.14-9.72c-2.88-3.312-8.568-7.308-12.348-9.9     C58.707,81.456,55.359,79.583,52.515,78.324z" fill="#E8BDB1" fill-rule="evenodd" i:knockout="Off" stroke="#000000" stroke-miterlimit="10" stroke-width="0.036"/>
      <path clip-rule="evenodd" d="     M81.279,43.656c2.88,1.224,5.364,1.728,7.848,1.512c2.484-0.432,4.932-1.584,6.516-3.168c1.332-1.62,3.564-4.608,2.124-5.904     c-1.476-1.332-5.004-1.98-10.728-1.944c-1.8-3.456-2.052-5.832-0.756-7.416c1.224-1.584,5.94-2.7,8.46-1.98     c2.376,0.648,5.832,4.464,6.192,5.904c0.288,1.368-1.224,2.124-4.392,2.412c2.16,0.108,3.672,0.684,4.248,2.124     c0.576,1.404,1.152,3.564-0.612,6.048c-1.98,2.268-7.128,7.056-10.584,7.848c-3.492,0.612-8.568-2.484-9.972-3.456     C78.146,44.7,78.831,44.088,81.279,43.656z" fill-rule="evenodd" i:knockout="Off" stroke="#000000" stroke-miterlimit="10" stroke-width="0.036"/>
      <path clip-rule="evenodd" d="     M93.843,26.88c-0.936-0.504-1.8-0.504-2.592-0.144c-0.792,0.36-1.548,1.116-2.124,2.268l0.612,3.024l3.024-0.324     c-0.936-1.152-1.188-1.764-0.756-2.232c0.288-0.576,2.412-0.684,3.024-0.324c0.504,0.396,0.792,1.152,0.468,2.556     c0.972,0.252,1.44,0.108,1.8-0.432c0.324-0.648,0.324-2.304-0.144-3.024C96.507,27.456,95.535,27.096,93.843,26.88z" fill="#FFFFFF" fill-rule="evenodd" i:knockout="Off" stroke="#000000" stroke-miterlimit="10" stroke-width="0.036"/>
      <path clip-rule="evenodd" d="     M69.651,33.972c-1.26-1.332-1.764-2.448-1.656-3.78c0.144-1.332,1.044-3.06,2.412-3.924c1.296-1.008,3.564-1.836,5.292-1.656     c1.62,0.18,3.456,0.936,4.392,2.412c0.864,1.296,1.26,3.06,1.044,5.436c-1.08,0.936-2.628,1.476-4.5,1.764     C74.727,34.439,72.351,34.404,69.651,33.972z" fill-rule="evenodd" i:knockout="Off" stroke="#000000" stroke-miterlimit="10" stroke-width="0.036"/>
      <path clip-rule="evenodd" d="     M75.555,27.636c-0.936-0.504-1.8-0.504-2.592-0.144c-0.792,0.36-1.548,1.116-2.124,2.268l0.612,3.024l3.024-0.288     c-0.936-1.116-1.188-1.872-0.756-2.268c0.288-0.576,2.412-0.684,3.024-0.324c0.504,0.36,0.792,1.224,0.468,2.592     c0.972,0.324,1.44,0.036,1.8-0.468c0.324-0.648,0.324-2.304-0.144-3.024C78.219,28.212,77.247,27.852,75.555,27.636z" fill="#FFFFFF" fill-rule="evenodd" i:knockout="Off" stroke="#000000" stroke-miterlimit="10" stroke-width="0.036"/>
      <path clip-rule="evenodd" d="     M94.527,20.364c-0.252-0.54-4.392-2.124-6.048-2.52c-1.692-0.468-3.6-0.864-3.924-0.216c-0.36,0.504,0.72,3.168,1.584,3.708     c0.756,0.504,1.656-0.468,3.096-0.576C90.639,20.616,94.527,20.76,94.527,20.364z" fill-rule="evenodd" i:knockout="Off" stroke="#000000" stroke-miterlimit="10" stroke-width="0.036"/>
      <path clip-rule="evenodd" d="     M105.651,50.388c-0.756,1.872-2.844,3.348-6.264,4.428c-3.564,1.044-9.504,2.232-14.364,1.764     c-4.932-0.612-9.648-2.376-14.58-5.292c4.212-2.412,5.472-3.78,3.78-4.104c-1.728-0.396-12.744,1.008-13.896,2.124     c-1.224,1.08,1.044,2.448,6.804,4.248c6.696,5.94,13.104,9.036,19.224,9.432c6.12,0.288,13.968-5.076,17.316-7.2     C106.911,53.592,107.522,51.936,105.651,50.388z" fill-rule="evenodd" i:knockout="Off" stroke="#000000" stroke-miterlimit="10" stroke-width="0.036"/>
      <path clip-rule="evenodd" d="     M71.774,54.132C71.559,54.528,77.931,60,82.683,60.54c4.716,0.288,17.244-3.708,17.46-4.068c0.036-0.396-11.772,2.34-16.56,1.98     C78.831,57.948,71.847,53.771,71.774,54.132z" fill="#B64738" fill-rule="evenodd" i:knockout="Off" stroke="#000000" stroke-miterlimit="10" stroke-width="0.036"/>
      <path clip-rule="evenodd" d="     M63.71,49.488c0.468-0.468,5.688-1.188,6.372-1.044c0.468,0.144-1.836,1.872-2.88,2.124C66.086,50.676,63.17,49.812,63.71,49.488     z" fill="#B64738" fill-rule="evenodd" i:knockout="Off" stroke="#000000" stroke-miterlimit="10" stroke-width="0.036"/>
      <path clip-rule="evenodd" d="     M65.834,21.768c1.476-2.268,3.168-3.42,5.616-3.456c2.34-0.144,5.076,0.828,8.352,2.916c-2.556-0.828-4.68-1.08-6.516-0.612     c-1.872,0.324-3.384,2.808-4.536,3.024C67.491,23.855,66.519,23.136,65.834,21.768z" fill-rule="evenodd" i:knockout="Off" stroke="#000000" stroke-miterlimit="10" stroke-width="0.036"/>
      <path clip-rule="evenodd" d="     M66.699,21.624c1.116-1.584,2.484-2.304,4.248-2.592c1.656-0.252,3.708,0.072,6.012,1.116c-1.764-0.396-3.276-0.54-4.536-0.036     c-1.404,0.468-2.376,2.16-3.312,2.556C68.139,22.848,67.383,22.596,66.699,21.624z" fill="#A16121" fill-rule="evenodd" i:knockout="Off" stroke="#000000" stroke-miterlimit="10" stroke-width="0.036"/>
      <path clip-rule="evenodd" d="     M93.051,20.04c-0.18-0.396-3.42-1.692-4.716-1.944c-1.332-0.432-2.7-0.612-2.988-0.144c-0.288,0.396,0.432,2.412,1.188,2.844     c0.612,0.324,1.224-0.324,2.412-0.432C89.955,20.184,93.123,20.399,93.051,20.04z" fill="#A16121" fill-rule="evenodd" i:knockout="Off" stroke="#000000" stroke-miterlimit="10" stroke-width="0.036"/>
      <path clip-rule="evenodd" d="     M49.779,22.956c0.792,0.612,5.58-0.072,7.272-0.54c1.62-0.648,2.484-1.728,2.448-2.664c-0.144-0.972-2.016-2.7-3.132-2.808     c-1.368-0.216-3.096,0.756-4.212,1.8C50.895,19.751,48.987,22.271,49.779,22.956z" fill="#A16121" fill-rule="evenodd" i:knockout="Off" stroke="#000000" stroke-miterlimit="10" stroke-width="0.036"/>
      <path clip-rule="evenodd" d="     M54.675,13.092c0.072,0.936,4.68,1.548,7.452,1.692s7.812-0.108,9.144-0.756c1.116-0.756,0.072-2.484-1.62-3.384     c-1.764-0.936-5.976-2.232-8.46-1.8C58.67,9.204,54.458,12.048,54.675,13.092z" fill="#A16121" fill-rule="evenodd" i:knockout="Off" stroke="#000000" stroke-miterlimit="10" stroke-width="0.036"/>
      <path clip-rule="evenodd" d="     M69.867,7.224c1.296,1.008,2.736,1.728,4.32,2.556c1.44,0.72,2.7,1.62,4.896,1.872c2.16,0.18,4.968-0.036,8.28-0.647     c-1.26-1.656-2.808-3.168-4.248-4.536c-1.548-1.512-4.104-3.996-4.896-3.852c-0.828,0.108-0.936,1.728-0.18,4.716     c-1.44-0.792-2.808-1.26-4.248-1.8c-1.476-0.432-2.916-0.936-4.32-1.116C69.579,5.352,69.723,6.288,69.867,7.224z" fill="#A16121" fill-rule="evenodd" i:knockout="Off" stroke="#000000" stroke-miterlimit="10" stroke-width="0.036"/>
      <path clip-rule="evenodd" d="     M97.623,17.016c0.036-2.016-0.54-3.96-1.584-5.832c-1.116-1.98-3.168-3.924-4.896-5.544c-1.836-1.656-3.708-2.88-5.76-3.96     l-1.296,2.844c1.584,2.484,3.132,4.5,4.5,5.904c1.368,1.296,2.088,1.332,3.672,2.448C93.807,13.956,95.499,15.288,97.623,17.016z     " fill="#A16121" fill-rule="evenodd" i:knockout="Off" stroke="#000000" stroke-miterlimit="10" stroke-width="0.036"/>
      <path clip-rule="evenodd" d="     M55.646,25.404c-1.692-0.036-3.096,0.504-4.356,1.62c-1.26,1.08-2.376,2.664-3.204,4.896c2.592-0.54,4.464-1.332,5.76-2.376     C55.071,28.428,55.719,27.096,55.646,25.404z" fill="#A16121" fill-rule="evenodd" i:knockout="Off" stroke="#000000" stroke-miterlimit="10" stroke-width="0.036"/>
      <path clip-rule="evenodd" d="     M79.695,70.224c0.252,0.576,4.248,4.428,7.272,3.78c2.988-0.9,10.116-7.884,10.116-8.46c-0.324-0.612-8.208,4.212-11.16,5.04     C82.971,71.304,79.551,69.612,79.695,70.224z" fill-rule="evenodd" i:knockout="Off" stroke="#000000" stroke-miterlimit="10" stroke-width="0.036"/>
      <path clip-rule="evenodd" d="     M49.131,49.488c0.036,0.9-0.036,2.484,0.468,3.096c0.432,0.468,1.944,0.252,2.16,0.18c0.072-0.18-1.152-0.54-1.296-0.936     c-0.324-0.54-0.216-1.296,0.18-1.692c0.396-0.36,2.772,0.108,2.556-0.396c-0.288-0.684-3.6-2.772-4.248-2.808     S48.878,48.444,49.131,49.488z" fill-rule="evenodd" i:knockout="Off" stroke="#000000" stroke-miterlimit="10" stroke-width="0.036"/>
      <path clip-rule="evenodd" d="     M62.019,95.315c-1.188-3.348-3.276-5.4-6.408-6.588c-3.132-1.152-7.308-1.296-12.384-0.288c0.9,3.384,2.052,6.048,3.744,7.992     c1.656,1.836,3.564,2.952,6.012,3.348c-0.684,0.252-2.448,0.684-5.436,1.44c-3.06,0.684-7.092,1.692-12.492,2.88     c4.284,3.132,8.568,4.896,13.284,5.58c4.644,0.54,9.288,0,14.364-1.908c1.44,0.684,2.7,1.044,4.176,0.936     c1.404-0.108,2.736-0.684,4.14-1.584c7.272,1.548,14.364,2.556,21.276,2.88c6.84,0.36,14.976,0.972,19.98-0.792     c4.788-1.908,7.884-7.056,9.432-10.152c1.548-3.168,1.872-6.264,0-8.46c-2.052-2.34-5.832-3.924-11.736-5.148     c-1.008,0.936-1.476,2.016-1.692,3.384c-0.216,1.296-0.036,2.736,0.54,4.464c-2.376,1.008-5.652,1.944-9.972,2.952     c-4.464,0.9-11.628,2.376-16.056,2.88c-4.464,0.432-7.74,0.504-10.224,0.072c-0.576-0.864-1.332-1.656-2.268-2.232     c-1.008-0.648-2.124-1.296-3.492-1.512C65.475,95.136,63.747,95.136,62.019,95.315z" fill-rule="evenodd" i:knockout="Off" stroke="#000000" stroke-miterlimit="10" stroke-width="0.036"/>
      <path clip-rule="evenodd" d="     M63.135,98.088c-1.008,0.18-1.62,1.152-1.692,2.232c-0.072,1.008,0.252,3.492,1.116,4.392c0.756,0.828,2.304,1.332,3.672,0.972     c1.26-0.468,3.708-1.872,3.996-3.096c0.144-1.188-1.548-3.348-2.7-3.996C66.267,97.8,64.106,97.764,63.135,98.088z" fill="#FB0F0C" fill-rule="evenodd" i:knockout="Off" stroke="#000000" stroke-miterlimit="10" stroke-width="0.036"/>
      <path clip-rule="evenodd" d="     M60.579,95.928c-0.72-2.34-2.304-4.068-4.896-5.184c-2.628-1.116-6.192-1.62-10.692-1.512c1.296,3.168,2.952,5.472,5.256,7.344     c2.268,1.764,4.896,2.808,8.172,3.276c-0.36-0.792-0.288-1.512,0.072-2.16C58.851,96.972,59.499,96.432,60.579,95.928z" fill="#FB0F0C" fill-rule="evenodd" i:knockout="Off" stroke="#000000" stroke-miterlimit="10" stroke-width="0.036"/>
      <path clip-rule="evenodd" d="     M39.951,104.496l15.48-3.348l2.484,0.396c-0.252,0.684,0.036,1.296,0.576,2.232c0.612,0.9,1.476,1.728,2.88,2.88     c-3.528,1.368-6.948,1.944-10.548,1.584C47.187,107.88,43.659,106.583,39.951,104.496z" fill="#FB0F0C" fill-rule="evenodd" i:knockout="Off" stroke="#000000" stroke-miterlimit="10" stroke-width="0.036"/>
      <path clip-rule="evenodd" d="     M73.179,101.292c4.644,0.72,9.684,0.9,14.976,0.396c5.292-0.612,12.456-1.872,16.776-3.348c4.212-1.476,6.984-3.24,8.46-5.292     l-3.348-0.216c-0.36-1.008-0.468-1.944-0.18-2.952c0.216-1.116,0.684-2.016,1.548-3.132c3.816,0.396,6.48,1.368,8.136,3.204     c1.584,1.764,2.52,4.392,1.44,7.344c-1.26,2.808-2.916,7.956-8.46,9.756c-5.796,1.656-18,1.152-24.948,0.972     c-6.84-0.18-12.24-0.828-16.056-1.944c0.72-0.576,1.296-1.188,1.584-1.98C73.323,103.308,73.395,102.372,73.179,101.292z" fill="#FB0F0C" fill-rule="evenodd" i:knockout="Off" stroke="#000000" stroke-miterlimit="10" stroke-width="0.036"/>
      <path clip-rule="evenodd" d="     M93.555,226.392c-6.408,4.284-11.412,6.984-15.444,8.496c-4.104,1.332-5.832,1.332-8.532,0c-2.808-1.404-5.292-4.032-7.848-8.028     c-3.456-3.023-5.94-5.615-7.74-8.208c-1.944-2.592-2.844-5.508-2.844-7.092c0-1.656,1.836-2.592,3.168-2.664     c1.296-0.144,2.772,0.54,4.572,2.052c1.332-1.512,2.7-2.304,4.248-2.52c1.512-0.324,3.132-0.288,4.716,1.08     c1.44,1.26,2.808,3.527,4.104,6.804c0.648-2.304,1.8-3.78,3.312-4.428c1.44-0.72,3.24-0.612,5.688,0.468     c2.412,1.116,5.4,2.88,8.964,5.832C91.106,220.92,92.331,223.655,93.555,226.392z" fill-rule="evenodd" i:knockout="Off" stroke="#000000" stroke-miterlimit="10" stroke-width="0.036"/>
      <path clip-rule="evenodd" d="     M80.955,227.472c-1.26-0.504-4.68-3.096-5.688-4.716c-1.08-1.692-1.008-3.601-0.612-5.04c0.432-1.584,1.656-3.816,2.988-3.924     c1.188-0.108,3.492,1.224,4.392,3.312c0.72,2.016,0.684,6.66,0.468,8.496C82.359,227.328,82.035,227.903,80.955,227.472z" fill="#E8BDB1" fill-rule="evenodd" i:knockout="Off" stroke="#000000" stroke-miterlimit="10" stroke-width="0.036"/>
      <path clip-rule="evenodd" d="     M77.175,229.848c-0.432-1.548-3.348-3.528-4.428-5.364c-1.188-1.908-1.656-3.275-2.52-5.364     c-0.972-2.123-2.268-5.544-3.312-6.911c-1.296-1.477-2.592-2.053-3.456-1.44c-0.828,0.648-1.548,2.808-1.584,5.22     c-0.144,2.269-0.432,6.084,0.936,8.677c1.332,2.556,4.608,4.932,6.768,6.443c2.052,1.477,4.176,2.16,5.544,2.053     C76.418,232.907,77.427,231.252,77.175,229.848z" fill="#E8BDB1" fill-rule="evenodd" i:knockout="Off" stroke="#000000" stroke-miterlimit="10" stroke-width="0.036"/>
      <path clip-rule="evenodd" d="     M60.291,223.08c-0.432-0.757-0.648-1.908-0.936-3.456c-0.288-1.656-0.504-3.528-0.648-6.013c-1.512-1.224-2.664-1.8-3.456-1.872     c-0.828-0.107-1.728,0.54-1.584,1.549c-0.036,0.936,0.828,2.556,1.908,4.283C56.655,219.155,58.274,220.991,60.291,223.08z" fill="#E8BDB1" fill-rule="evenodd" i:knockout="Off" stroke="#000000" stroke-miterlimit="10" stroke-width="0.036"/>
      <path clip-rule="evenodd" d="     M72.603,180.996l4.248,9.144c-0.252,5.724,0.432,12.24,2.052,19.836c1.62,7.524,5.112,17.928,7.704,25.38     c2.448,7.416,4.716,14.544,7.092,18.612c2.304,3.888,3.276,5.292,6.948,4.896c3.636-0.504,8.532-2.844,14.832-7.416l-2.7-3.312     c2.376-2.484,5.688-4.752,10.08-7.092c4.428-2.376,10.476-5.185,15.912-6.769c5.328-1.62,10.44-2.664,15.768-2.987     c0.936,0,1.728,0.72,2.52,2.016c0.72,1.224,1.404,3.168,2.052,5.688c1.656-0.54,3.24-1.331,4.896-2.52     c1.548-1.26,3.168-2.736,4.716-4.716c1.584-4.141,2.016-10.116,1.44-18.468c-0.72-8.425-2.736-22.896-5.22-31.176     c-2.592-8.28-5.616-14.184-9.612-18l-0.792-6.228c-4.284-2.268-10.08-2.952-17.784-2.052c-7.812,0.756-17.496,3.168-28.224,7.38     C97.659,167.459,85.958,173.256,72.603,180.996z" fill-rule="evenodd" i:knockout="Off" stroke="#000000" stroke-miterlimit="10" stroke-width="0.036"/>
      <path clip-rule="evenodd" d="     M75.123,182.292c1.404-0.792,2.844-1.728,4.716-2.664c1.8-1.008,3.744-2.016,5.976-3.168c0.792,0.972,1.296,2.052,1.908,2.844     c0.576,0.756,0.864,1.62,1.26,2.196c-2.448,1.404-4.5,2.664-6.3,3.636c-1.836,0.972-3.312,1.656-4.428,2.196     C77.21,185.676,76.167,183.983,75.123,182.292z" fill="#A16121" fill-rule="evenodd" i:knockout="Off" stroke="#000000" stroke-miterlimit="10" stroke-width="0.036"/>
      <path clip-rule="evenodd" d="     M88.659,175.667c3.528-1.764,6.732-3.24,9.468-4.572c2.736-1.404,5.148-2.376,7.092-3.312l1.404,4.572     c-3.564,1.872-6.552,3.348-8.964,4.572c-2.52,1.188-4.284,1.98-5.688,2.52C90.891,178.188,89.774,176.928,88.659,175.667z" fill="#A16121" fill-rule="evenodd" i:knockout="Off" stroke="#000000" stroke-miterlimit="10" stroke-width="0.036"/>
      <path clip-rule="evenodd" d="     M108.063,166.704c3.384-1.728,6.336-3.096,9.288-4.104c2.808-1.008,5.436-1.872,7.884-2.196c-0.72,0.972-1.188,2.016-1.26,3.132     c-0.144,1.08,0.108,2.232,0.612,3.456c-4.14,1.044-7.344,1.8-9.756,2.556c-2.412,0.612-4.14,1.224-4.896,1.548     C109.323,169.656,108.71,168.18,108.063,166.704z" fill="#A16121" fill-rule="evenodd" i:knockout="Off" stroke="#000000" stroke-miterlimit="10" stroke-width="0.036"/>
      <path clip-rule="evenodd" d="     M126.387,162.672c0.216,2.304,4.752,3.744,10.08,3.204c5.292-0.54,9.432-2.844,9.216-5.148c-0.252-2.304-4.752-3.744-10.08-3.204     C130.275,158.063,126.135,160.368,126.387,162.672z" fill="#137F40" fill-rule="evenodd" i:knockout="Off" stroke="#000000" stroke-miterlimit="10" stroke-width="0.036"/>
      <path clip-rule="evenodd" d="     M145.719,156.912c1.404,1.44,2.304,2.7,2.844,3.78c0.468,0.972,0.468,1.944,0,2.521l5.184,0.648l-0.288-5.976     c-1.548-0.504-3.024-0.828-4.284-0.972C147.771,156.731,146.799,156.731,145.719,156.912z" fill="#A16121" fill-rule="evenodd" i:knockout="Off" stroke="#000000" stroke-miterlimit="10" stroke-width="0.036"/>
      <path clip-rule="evenodd" d="     M79.19,189.384c1.512-0.54,2.952-1.116,4.608-1.728c1.548-0.684,3.168-1.368,4.86-2.196c0.756,1.26,1.656,1.836,2.7,1.728     c1.008-0.108,2.16-0.9,3.456-2.376c0.432,3.78,0.072,7.416-0.936,11.052c-1.044,3.601-5.976,10.404-5.364,10.692     c0.432,0.144,6.732-4.896,8.352-9.432c1.584-4.608,1.8-10.404,0.936-17.676c2.196-1.44,5.724-3.168,10.728-5.04     c5.004-1.908,11.232-4.104,19.08-6.444c2.34,0.864,4.644,1.332,6.768,1.404c2.016-0.072,3.816-0.54,5.976-1.26     c2.124-0.684,4.68-1.872,7.272-3.168c0.54-1.368,1.908-0.684,4.248,1.764c2.268,2.34,6.948,6.696,9.468,13.068     c2.412,6.444,4.14,17.964,5.184,25.38c0.936,7.272,1.476,16.452,0.792,17.964c-0.828,1.404-2.52-3.779-5.364-9.287     c-2.88-5.688-10.188-22.572-11.52-24.265c-1.332-1.656,0.936,7.272,3.312,14.004c2.268,6.66,5.544,15.048,10.116,25.704     c-3.384-2.376-8.388-3.06-15.3-1.908c-7.056,1.152-17.892,3.816-25.992,8.677c-8.136,4.823-15.264,11.159-22.068,19.691     c-1.656,0.072-3.708-2.556-6.156-8.027c-2.628-5.509-6.264-14.904-8.82-24.589C83.007,213.252,80.847,202.235,79.19,189.384z" fill="#1C7AB5" fill-rule="evenodd" i:knockout="Off" stroke="#000000" stroke-miterlimit="10" stroke-width="0.036"/>
      <path clip-rule="evenodd" d="     M109.179,250.512l4.176,6.768l-5.256,3.96c-0.612-0.72-1.584-0.72-3.06,0c-1.62,0.685-2.988,2.736-5.904,4.356     c-2.988,1.656-8.028,4.212-11.376,5.04c-3.384,0.684-6.12,0.216-8.496-1.116c-1.008-1.979-2.52-3.24-4.392-3.924     c-2.052-0.756-5.616-0.648-7.2-0.216c-1.62,0.432-2.376,1.332-2.412,2.844c-2.124-1.224-5.472-0.792-10.044,1.296     c-4.608,2.088-10.44,5.76-17.496,11.16c-2.124-0.576-4.212-0.216-6.12,1.08c-2.088,1.296-4.824,3.852-5.688,6.552     c-0.9,2.521-0.288,5.437,0.432,8.748c0.576,3.348,1.8,8.424,3.276,10.944c1.476,2.34,3.204,3.6,5.472,3.492     c0.072,2.052,0.288,4.212,0.648,6.336c0.252,2.124,0,4.355,1.332,6.552c1.296,2.088,4.896,3.924,6.336,6.336     c1.188,2.34,1.116,4.968,1.728,7.884c0.648,3.024-0.108,7.021,2.196,9.612c2.232,2.34,5.904,3.924,11.16,4.607     c0.18,3.492,1.8,5.797,5.004,6.769c3.168,0.972,7.668,0.684,13.788-0.864c-0.504,0.396,0.108,0.756,1.98,1.08     c1.836,0.252,5.616,1.116,8.964,0.648c3.168-0.576,6.588-1.836,10.26-3.925c1.188,0.504,2.52,0.648,4.14,0.433     c1.584-0.252,3.708,0.611,5.256-1.98c1.404-2.735,2.592-9.684,3.276-14.184c0.576-4.608,4.032-7.488,0.648-12.924     c-3.492-5.544-10.296-11.952-20.988-19.656c1.728-1.584,2.196-2.988,1.548-4.356c-0.792-1.476-3.384-3.096-5.688-3.743     c-2.412-0.685-4.932-0.685-8.1,0l-0.216-1.08l2.844-1.296c4.464,0.539,9.036,0.432,13.572-0.469     c4.608-0.899,9.792-2.771,13.752-4.788c3.78-2.088,6.768-4.644,8.964-7.668l7.452-0.432l4.356,8.964     c-1.656,4.464-2.772,8.353-3.492,11.809c-0.792,3.384-1.8,5.796-0.648,8.747c1.152,2.809,4.968,6.553,7.416,8.316     c2.268,1.62,4.5,2.196,6.552,1.728c-0.612,4.753,0.144,9.324,2.412,14.005c2.16,4.68,7.56,10.008,10.944,13.752     c3.42,3.563,6.3,6.191,9.18,7.884c1.044,4.068,3.528,7.164,7.848,9.828c4.248,2.52,10.728,4.536,17.496,5.472     c6.66,0.756,16.74,1.404,22.32-0.432c5.328-1.908,7.632-7.885,10.26-10.729c2.664-2.916,4.392-2.88,5.472-6.552     c1.008-3.852-0.396-10.62,0.648-15.732c0.864-5.111,0.648-8.604,5.04-14.651c4.464-6.229,17.388-16.849,21.419-21.853     c3.854-4.968,4.43-7.596,1.729-7.884c4.176,0.216,7.271-1.62,9.828-5.652c2.412-4.031,4.068-10.115,4.824-18.396     c4.932-1.224,7.92-4.248,9.396-8.928c1.295-4.824,2.879-12.097-1.08-19.477c-4.105-7.56-13.824-20.124-22.752-24.912     c-9.145-4.716-21.564-5.76-30.601-3.275c-8.964,2.412-13.788,9.18-22.932,18.359c-9.324,9.288-19.764,21.133-32.148,36.504     l-3.708-3.06c-0.036-4.392-0.108-8.352-0.216-12.024c-0.144-3.708-0.36-8.027-0.648-10.044c-0.396-2.088-1.188-3.06-1.98-2.628     c0.792-1.368,0.792-3.312,0-5.688c-0.864-2.521-2.376-5.256-4.824-8.748c-6.084-0.072-11.844,0.54-17.676,1.979     c-5.868,1.332-12.06,3.024-17.064,6.336C117.207,240.684,112.958,245.004,109.179,250.512z" fill-rule="evenodd" i:knockout="Off" stroke="#000000" stroke-miterlimit="10" stroke-width="0.036"/>
      <path clip-rule="evenodd" d="     M114.867,248.315c1.44-2.052,3.924-4.14,7.452-6.12c3.564-2.052,8.028-4.392,13.536-5.903c5.4-1.584,11.448-2.628,18.576-3.276     c1.224,0.828,2.052,1.944,2.628,3.492c0.504,1.548,0.648,3.348,0.432,5.688c-5.364,0.504-9.972,1.261-13.968,2.412     c-4.068,1.044-6.516,2.196-9.828,4.141c-3.384,1.943-6.768,4.212-10.296,7.235l-4.572-5.04L114.867,248.315z" fill="#E8BDB1" fill-rule="evenodd" i:knockout="Off" stroke="#000000" stroke-miterlimit="10" stroke-width="0.036"/>
      <path clip-rule="evenodd" d="     M118.179,258.611c-1.08,1.62-1.404,3.313-1.116,5.221c0.288,1.907,1.836,3.996,2.844,6.119c0.936,1.908,2.484,4.068,2.844,5.904     c0.288,1.765,0,3.492-0.864,5.04c0.468-0.072,0.468-0.072,0,0c-0.54,0.072-1.836,1.008-3.06,0.433     c-1.44-0.828-2.952-2.629-4.392-4.572c-1.512-2.017-2.7-4.356-3.708-6.588c-1.008-2.232-1.62-4.536-1.98-6.769     c1.044-1.296,2.412-2.268,3.96-3.06C114.254,259.512,116.126,258.936,118.179,258.611z" fill="#E8BDB1" fill-rule="evenodd" i:knockout="Off" stroke="#000000" stroke-miterlimit="10" stroke-width="0.036"/>
      <path clip-rule="evenodd" d="     M78.831,274.128c1.548,0.936,4.14,0.936,7.632,0c3.492-1.08,7.884-2.916,13.32-5.904c-0.324,1.08,0.108,1.584,0.9,1.512     c0.828-0.144,3.276-1.907,4.14-1.943c0.792-0.072,1.008,0.432,0.648,1.512c-0.468,1.008-1.512,2.268-3.276,4.176     c2.664-1.512,4.392-2.196,5.472-2.196c1.008,0,1.044,1.188,0.648,2.196c-0.54,0.9-1.728,1.944-3.708,3.276     c2.736-0.576,4.608-0.648,5.472-0.216c0.828,0.432,0.108,1.728-0.216,2.628c-0.396,0.756-1.008,1.476-1.98,2.16     c2.556-0.576,4.176-0.648,5.256-0.217c0.9,0.396,2.088,1.296,0.648,2.845c-1.476,1.548-4.464,4.535-9.396,6.336     c-5.148,1.728-11.88,2.987-20.772,3.924c-4.284-3.313-6.876-6.408-7.632-9.828C75.195,280.932,76.095,277.691,78.831,274.128z" fill="#FFFFFF" fill-rule="evenodd" i:knockout="Off" stroke="#000000" stroke-miterlimit="10" stroke-width="0.036"/>
      <path clip-rule="evenodd" d="     M131.283,290.508c-2.7-7.416-5.004-13.464-6.768-18.145c-1.872-4.68-4.212-7.523-3.96-10.044c0.252-2.735,3.024-3.96,5.688-5.903     c2.628-2.053,5.796-4.068,10.044-5.904c4.176-1.908,10.98-4.464,14.868-5.04c3.852-0.684,6.3-0.216,7.884,1.548     c1.332,1.656,0.504,4.824,0.864,8.964c0.324,4.141,0.972,9.288,1.548,15.732c-3.672,0.792-7.272,1.979-10.944,3.708     c-3.852,1.728-7.884,3.708-11.124,6.336C136.179,284.315,133.479,287.088,131.283,290.508z" fill="#FFFFFF" fill-rule="evenodd" i:knockout="Off" stroke="#000000" stroke-miterlimit="10" stroke-width="0.036"/>
      <path clip-rule="evenodd" d="     M126.675,268.655c-1.008-0.756-2.412-3.06-2.844-4.14c-0.468-1.188-0.504-3.096,0.432-2.412c0.9,0.685,4.32,5.112,4.824,6.336     C129.339,269.412,127.611,269.304,126.675,268.655z" fill-rule="evenodd" i:knockout="Off" stroke="#000000" stroke-miterlimit="10" stroke-width="0.036"/>
      <path clip-rule="evenodd" d="     M130.851,266.46c-1.008-0.756-2.412-3.061-2.844-4.141c-0.54-1.188-0.396-3.096,0.432-2.412c0.936,0.685,4.248,5.112,4.788,6.337     C133.479,267.216,131.715,267.107,130.851,266.46z" fill-rule="evenodd" i:knockout="Off" stroke="#000000" stroke-miterlimit="10" stroke-width="0.036"/>
      <path clip-rule="evenodd" d="     M135.639,263.184c-1.008-0.756-2.412-3.06-2.844-4.14c-0.468-1.188-0.504-3.097,0.432-2.412c0.9,0.684,4.32,5.112,4.824,6.336     C138.303,263.939,136.575,263.832,135.639,263.184z" fill-rule="evenodd" i:knockout="Off" stroke="#000000" stroke-miterlimit="10" stroke-width="0.036"/>
      <path clip-rule="evenodd" d="     M139.851,260.808c-0.936-0.792-1.98-3.384-2.304-4.464c-0.252-1.188-0.144-3.132,0.72-2.34c0.828,0.647,3.6,5.76,3.996,6.876     C142.479,262.031,140.571,261.456,139.851,260.808z" fill-rule="evenodd" i:knockout="Off" stroke="#000000" stroke-miterlimit="10" stroke-width="0.036"/>
      <path clip-rule="evenodd" d="     M144.567,258.071c-0.864-0.756-1.98-3.456-2.232-4.5c-0.252-1.188-0.036-3.132,0.792-2.34c0.684,0.864,3.636,5.652,3.852,6.984     C147.195,259.296,145.287,258.792,144.567,258.071z" fill-rule="evenodd" i:knockout="Off" stroke="#000000" stroke-miterlimit="10" stroke-width="0.036"/>
      <path clip-rule="evenodd" d="     M149.895,255.731c-0.756-0.936-1.764-3.456-1.908-4.644c-0.144-1.225,0.108-3.097,0.9-2.269c0.684,0.864,3.168,5.904,3.42,7.2     C152.451,257.027,150.579,256.56,149.895,255.731z" fill-rule="evenodd" i:knockout="Off" stroke="#000000" stroke-miterlimit="10" stroke-width="0.036"/>
      <path clip-rule="evenodd" d="     M154.25,254.328c-0.612-1.045-1.368-3.637-1.296-4.86c0-1.26,0.54-2.988,1.224-2.124s2.232,6.3,2.412,7.56     C156.482,255.983,154.863,255.191,154.25,254.328z" fill-rule="evenodd" i:knockout="Off" stroke="#000000" stroke-miterlimit="10" stroke-width="0.036"/>
      <path clip-rule="evenodd" d="     M160.551,275.208c-0.216-1.225-9.828,2.699-11.772,4.823c-1.944,1.944-1.62,7.956,0.432,7.2     C151.299,286.296,160.407,276.504,160.551,275.208z" fill="#FFFFFF" fill-rule="evenodd" i:knockout="Off" stroke="#000000" stroke-miterlimit="10" stroke-width="0.036"/>
      <path clip-rule="evenodd" d="     M70.73,299.688c-0.864-0.756-6.804-1.584-8.532-1.512c-1.908,0.107-3.312,1.476-2.412,2.16c0.9,0.611,5.472,1.548,7.452,1.548     C69.075,301.739,71.487,300.228,70.73,299.688z" fill="#FFFFFF" fill-rule="evenodd" i:knockout="Off" stroke="#000000" stroke-miterlimit="10" stroke-width="0.036"/>
      <path clip-rule="evenodd" d="     M79.695,302.531c0.144-0.611,5.724-0.468,7.416,0c1.584,0.433,2.52,1.44,2.412,2.196c-0.252,0.612-1.62,1.548-3.276,1.296     C84.519,305.556,79.551,303.144,79.695,302.531z" fill="#FFFFFF" fill-rule="evenodd" i:knockout="Off" stroke="#000000" stroke-miterlimit="10" stroke-width="0.036"/>
      <path clip-rule="evenodd" d="     M77.283,305.592c-0.036-0.612-4.248-0.288-5.688,0c-1.512,0.288-2.736,0.899-2.844,1.548c-0.036,0.504,0.648,1.872,2.196,1.728     C72.351,308.58,77.103,306.06,77.283,305.592z" fill="#FFFFFF" fill-rule="evenodd" i:knockout="Off" stroke="#000000" stroke-miterlimit="10" stroke-width="0.036"/>
      <path clip-rule="evenodd" d="     M79.047,310.416c-0.252-0.469-3.924,0.611-5.04,1.296c-1.332,0.54-2.088,1.728-1.98,2.195c0.18,0.324,1.8,0.973,3.06,0.433     C76.274,313.62,79.119,310.884,79.047,310.416z" fill="#FFFFFF" fill-rule="evenodd" i:knockout="Off" stroke="#000000" stroke-miterlimit="10" stroke-width="0.036"/>
      <path clip-rule="evenodd" d="     M62.847,269.951c-2.484,4.572-3.96,8.929-4.14,12.925c-0.324,4.067,0.648,7.596,2.628,11.124     c-3.492,1.332-5.472,2.592-6.336,4.176c-0.864,1.476-0.36,3.672,1.512,4.788c1.836,0.972,5.04,1.62,9.612,1.548     c-0.504,0.864-0.504,1.944,0,2.844c0.504,0.864,1.404,1.944,2.844,2.844c-1.08,1.297-1.656,2.412-1.728,3.492     c-0.18,1.008-0.396,2.017,1.296,2.628c1.8,0.504,4.68,0.721,9.18,0.648c1.296,1.584,3.096,2.628,5.256,2.844     c2.088,0.18,4.86-1.332,7.632-1.332c2.592-0.036,5.616-0.684,8.532,1.116c2.844,1.728,7.632,4.716,8.964,8.964     c1.296,4.176,0.936,9.36-1.08,15.948c-3.852,2.016-8.892,2.916-15.516,2.844c-6.732-0.216-16.992-1.152-23.832-3.492     c-6.876-2.447-12.744-4.752-16.632-10.512c-3.96-5.94-4.896-18.216-6.984-24.048c-2.268-5.76-5.328-5.94-6.12-10.26     c-0.864-4.5-0.324-9.757,1.332-16.164c1.044-2.017,3.42-3.925,7.416-6.12C50.643,274.56,55.935,272.292,62.847,269.951z" fill="#A16121" fill-rule="evenodd" i:knockout="Off" stroke="#000000" stroke-miterlimit="10" stroke-width="0.036"/>
      <path clip-rule="evenodd" d="     M162.099,354.768c-5.796-3.888-10.188-8.424-13.32-13.752c-3.24-5.436-5.364-11.16-5.256-18.144     c0.144-7.164,2.7-16.776,6.12-23.832c3.312-7.057,7.848-13.177,13.752-18.36c-2.052,6.048-2.34,9.792-0.864,11.376     c1.44,1.476,7.632,0.612,9.396-2.196c1.62-2.808,1.764-7.739,0.432-14.651c0.396,4.536,1.62,7.308,3.528,8.315     c1.908,0.9,6.516-0.828,7.848-2.412c1.224-1.655,1.08-3.852-0.432-6.983c2.088,1.907,3.96,2.268,5.472,1.08     c1.584-1.296,2.952-3.889,3.708-8.316c0.576-4.464,0.576-10.584,0-18.36c4.212-5.724,8.46-10.439,12.888-14.832     c4.32-4.428,8.028-8.352,13.356-10.943c5.364-2.664,12.384-4.356,18.144-4.393c5.543,0.108,11.268,2.412,15.084,4.393     c3.707,1.836,5.939,3.815,6.984,6.336c-6.84-1.477-13.861-0.864-21.637,1.979c-7.74,2.7-18.072,7.164-24.48,14.652     c-6.48,7.488-9.9,20.052-14.004,30.348c-4.248,10.332-6.732,22.104-10.944,30.853c-4.284,8.532-10.152,12.456-14.4,20.52     C169.119,335.436,165.375,344.399,162.099,354.768z" fill="#A16121" fill-rule="evenodd" i:knockout="Off" stroke="#000000" stroke-miterlimit="10" stroke-width="0.036"/>
      <path clip-rule="evenodd" d="     M167.571,277.836c-2.376,3.996-3.348,6.84-3.06,8.531c0.324,1.62,3.996,3.097,4.788,1.513c0.612-1.62,0.324-5.328-0.864-11.124     C168.146,277.115,167.859,277.476,167.571,277.836z" fill="#FFFFFF" fill-rule="evenodd" i:knockout="Off" stroke="#000000" stroke-miterlimit="10" stroke-width="0.036"/>
      <path clip-rule="evenodd" d="     M173.259,271.067c-0.144,4.068,0.432,6.769,1.728,8.101c1.296,1.26,5.256,2.195,5.904-0.252     c0.504-2.521-0.324-7.345-2.628-14.616C176.606,266.531,174.951,268.8,173.259,271.067z" fill="#FFFFFF" fill-rule="evenodd" i:knockout="Off" stroke="#000000" stroke-miterlimit="10" stroke-width="0.036"/>
      <path clip-rule="evenodd" d="     M183.303,259.476c-0.252,5.904,0.18,9.396,1.296,10.476c0.972,0.973,4.464-1.476,5.04-4.14c0.54-2.7,0.072-6.588-1.548-11.808     C186.507,255.804,184.923,257.64,183.303,259.476z" fill="#FFFFFF" fill-rule="evenodd" i:knockout="Off" stroke="#000000" stroke-miterlimit="10" stroke-width="0.036"/>
      <path clip-rule="evenodd" d="     M215.199,294.216l-16.38,4.176c-0.684-3.132-0.756-6.12-0.216-8.964c0.54-2.916,1.656-5.688,3.492-8.316     c5.4-0.432,9.144,0.396,11.376,2.628C215.631,285.899,216.207,289.392,215.199,294.216z" fill="#A16121" fill-rule="evenodd" i:knockout="Off" stroke="#000000" stroke-miterlimit="10" stroke-width="0.036"/>
      <path clip-rule="evenodd" d="     M205.586,273.912c-0.612-1.477-0.396-3.492,0.648-6.337c1.044-2.88,2.772-6.336,5.472-10.512     c6.156,4.5,10.116,8.388,12.024,11.809c1.8,3.42,2.16,7.56-0.864,8.531C219.735,278.231,214.119,277.115,205.586,273.912z" fill="#A16121" fill-rule="evenodd" i:knockout="Off" stroke="#000000" stroke-miterlimit="10" stroke-width="0.036"/>
      <path clip-rule="evenodd" d="     M216.962,250.296c0.396-1.188,1.8-2.592,4.356-4.356c2.52-1.728,6.048-3.815,10.728-6.12c2.52,7.704,3.852,13.5,3.708,17.677     c-0.072,4.14-1.296,8.1-4.356,7.02C228.195,263.256,223.479,258.647,216.962,250.296z" fill="#A16121" fill-rule="evenodd" i:knockout="Off" stroke="#000000" stroke-miterlimit="10" stroke-width="0.036"/>
      <path clip-rule="evenodd" d="     M241.227,257.712c-1.729-2.916-3.024-10.188-1.512-14.185c1.547-3.96,7.057-9.036,10.691-9.396     c3.492-0.36,10.332,2.268,10.26,6.768c-0.18,4.356-8.172,16.057-11.34,19.008C246.016,262.68,242.811,260.376,241.227,257.712z" fill="#A16121" fill-rule="evenodd" i:knockout="Off" stroke="#000000" stroke-miterlimit="10" stroke-width="0.036"/>
      <path clip-rule="evenodd" d="     M254.115,262.319c-0.289-2.52,2.771-6.336,6.119-8.1c3.275-1.98,11.557-4.356,13.572-2.844c1.98,1.584-0.107,9.18-1.98,12.239     c-2.123,2.952-7.092,5.616-10.043,5.473C258.723,268.764,254.367,264.84,254.115,262.319z" fill="#A16121" fill-rule="evenodd" i:knockout="Off" stroke="#000000" stroke-miterlimit="10" stroke-width="0.036"/>
      <path clip-rule="evenodd" d="     M263.943,274.775c-0.396,5.544-1.369,9.648-3.061,12.456c-1.764,2.736-4.068,4.176-7.199,4.176     c-4.789-3.888-7.309-7.128-8.102-9.863c-0.719-2.845,0.576-5.4,3.744-6.553C252.387,273.804,257.211,273.731,263.943,274.775z" fill="#A16121" fill-rule="evenodd" i:knockout="Off" stroke="#000000" stroke-miterlimit="10" stroke-width="0.036"/>
      <path clip-rule="evenodd" d="     M249.975,297.96c-0.973,2.88-2.592,5.147-5.256,7.2c-2.664,2.016-6.156,3.42-10.476,4.607c-2.844-4.572-3.96-8.316-3.492-11.376     c0.432-3.096,3.06-6.948,6.336-6.984C240.291,291.372,244.539,293.424,249.975,297.96z" fill="#A16121" fill-rule="evenodd" i:knockout="Off" stroke="#000000" stroke-miterlimit="10" stroke-width="0.036"/>
      <path clip-rule="evenodd" d="     M223.73,285.504c-1.548,0.972-1.656,3.888-1.296,5.436c0.216,1.477,1.296,4.356,2.844,3.492c1.476-1.044,6.336-7.92,6.12-9.396     C231.039,283.596,225.243,284.352,223.73,285.504z" fill="#A16121" fill-rule="evenodd" i:knockout="Off" stroke="#000000" stroke-miterlimit="10" stroke-width="0.036"/>
      <path clip-rule="evenodd" d="     M233.595,271.5c-0.972,1.691-1.296,5.903,0.432,6.12c1.656,0.144,8.352-3.385,9.395-5.04c0.793-1.765-2.016-5.076-3.707-5.221     C237.987,267.107,234.603,269.735,233.595,271.5z" fill="#A16121" fill-rule="evenodd" i:knockout="Off" stroke="#000000" stroke-miterlimit="10" stroke-width="0.036"/>
      <path clip-rule="evenodd" d="     M177.398,334.464c0.684-3.061,1.872-5.473,3.708-7.668c1.8-2.16,4.212-3.96,7.236-5.256c5.724,5.184,8.928,9.216,9.612,12.239     c0.504,2.952-2.232,5.292-5.688,5.473C188.739,339.323,183.915,337.775,177.398,334.464z" fill="#A16121" fill-rule="evenodd" i:knockout="Off" stroke="#000000" stroke-miterlimit="10" stroke-width="0.036"/>
      <path clip-rule="evenodd" d="     M172.359,342.527l-4.788,12.24c7.2,0.396,12.384-0.036,15.948-1.296c3.384-1.404,6.912-4.752,5.04-6.552     C186.579,345.12,181.359,343.607,172.359,342.527z" fill="#A16121" fill-rule="evenodd" i:knockout="Off" stroke="#000000" stroke-miterlimit="10" stroke-width="0.036"/>
      <path clip-rule="evenodd" d="     M176.103,366.575c1.476,1.513,3.42,2.557,6.12,3.276c2.592,0.72,5.796,0.972,9.612,0.9c1.296-7.2,1.152-11.7-0.432-13.788     c-1.728-2.052-6.588-0.108-9.18,1.548C179.667,360.168,177.579,362.724,176.103,366.575z" fill="#A16121" fill-rule="evenodd" i:knockout="Off" stroke="#000000" stroke-miterlimit="10" stroke-width="0.036"/>
      <path clip-rule="evenodd" d="     M198.819,370.968c2.232,0.72,4.284,0.72,6.552,0c2.232-0.864,4.284-2.269,6.552-4.608c-1.728-3.06-3.744-5.04-5.904-6.336     c-2.268-1.368-6.264-2.844-7.416-1.08C197.343,360.779,197.415,364.739,198.819,370.968z" fill="#A16121" fill-rule="evenodd" i:knockout="Off" stroke="#000000" stroke-miterlimit="10" stroke-width="0.036"/>
      <path clip-rule="evenodd" d="     M214.767,360.456c0.432-0.145,1.26-0.864,2.628-2.16c1.368-1.368,3.096-3.168,5.472-5.688c-3.744-1.404-6.876-2.231-9.396-2.195     c-2.628-0.108-6.12,0.323-5.904,1.979C207.747,354.084,210.195,356.676,214.767,360.456z" fill="#A16121" fill-rule="evenodd" i:knockout="Off" stroke="#000000" stroke-miterlimit="10" stroke-width="0.036"/>
      <path clip-rule="evenodd" d="     M222.651,344.075l0.216-9.611c-4.788-0.108-8.208,0.468-10.26,1.728c-2.088,1.225-3.924,4.32-2.196,5.688     C212.103,343.176,216.135,343.859,222.651,344.075z" fill="#A16121" fill-rule="evenodd" i:knockout="Off" stroke="#000000" stroke-miterlimit="10" stroke-width="0.036"/>
      <path clip-rule="evenodd" d="     M197.091,344.075c-1.476,1.009-1.728,3.853-1.332,5.473c0.216,1.584,1.296,4.319,2.844,3.492c1.476-1.044,6.336-7.92,6.12-9.396     C204.471,342.096,198.495,343.031,197.091,344.075z" fill="#A16121" fill-rule="evenodd" i:knockout="Off" stroke="#000000" stroke-miterlimit="10" stroke-width="0.036"/>
      <path clip-rule="evenodd" d="     M1.646,359.592c5.508-2.017,13.428-3.492,24.048-4.824c10.728-1.332,39.168-4.5,39.348-2.844     c-0.252,1.691-13.14,5.796-39.78,12.708c17.208-5.004,23.508-7.92,19.44-8.748c-4.356-0.864-18.936,0.252-44.568,3.492     L1.646,359.592z" fill-rule="evenodd" i:knockout="Off" stroke="#000000" stroke-miterlimit="10" stroke-width="0.036"/>
      <path clip-rule="evenodd" d="     M118.179,355.235c2.664-0.72,8.064-1.764,12.456-1.332c4.284,0.469,15.588,1.8,13.104,3.708     c-2.772,1.801-25.488,6.517-28.872,6.805c-3.348,0.071,8.856-4.86,8.964-5.904c-0.144-1.044-7.992,0-8.964-0.468     C113.967,357.359,115.443,355.92,118.179,355.235z" fill-rule="evenodd" i:knockout="Off" stroke="#000000" stroke-miterlimit="10" stroke-width="0.036"/>
      <path clip-rule="evenodd" d="     M165.591,368.771c-0.504-0.504-17.748,1.62-20.772,2.628c-3.024,0.864-0.9,3.24,2.628,2.844     C150.938,373.703,165.878,369.239,165.591,368.771z" fill-rule="evenodd" i:knockout="Off" stroke="#000000" stroke-miterlimit="10" stroke-width="0.036"/>
      <path clip-rule="evenodd" d="     M175.67,374.424c-0.468-0.433-13.608,1.26-15.948,2.016c-2.304,0.648-0.792,2.484,2.016,2.196     C164.403,378.168,175.851,374.819,175.67,374.424z" fill-rule="evenodd" i:knockout="Off" stroke="#000000" stroke-miterlimit="10" stroke-width="0.036"/>
      <path clip-rule="evenodd" d="     M195.759,377.916c-0.504-0.433-13.536,1.26-15.912,2.016c-2.376,0.648-0.684,2.484,2.016,2.196     C184.599,381.66,195.903,378.312,195.759,377.916z" fill-rule="evenodd" i:knockout="Off" stroke="#000000" stroke-miterlimit="10" stroke-width="0.036"/>
      <path clip-rule="evenodd" d="     M151.334,35.268l26.892-7.884l0.216,52.812l12.636-3.852l-2.016-53.028l25.956-5.184l1.332,46.26l3.852-29.124l26.856-1.584     l2.268,47.412l3.385-61.848l20.088-5.652l-1.115,49.68l19.836-52.848l28.475,0.936l-7.451,26.172l22.32-7.236l9.287,40.176     l2.484-43.092l13.32-0.252l11.268,24.156l-3.816-31.824l27.289-8.1l6.119,28.872c0.541-4.86,3.096-8.352,7.668-10.62     c4.645-2.304,13.32-4.176,19.621-3.132c6.191,1.008,13.211,4.536,17.172,8.784c3.814,4.104,5.723,9.324,5.867,15.804     l-19.656,3.852c-1.152-6.444-3.023-8.856-5.615-7.236c-2.771,1.548-8.568,9.108-10.152,16.704     c-1.584,7.488-1.367,22.86,0.648,28.224c2.016,5.148,7.848,4.608,11.088,3.384c3.059-1.224,5.58-4.716,7.416-10.62l-10.152,0.468     l-2.699-20.34l36.107-4.5c3.168,17.172,4.283,31.32,2.951,43.128c-1.404,11.628-5.219,21.456-10.619,26.856     c-5.58,5.328-13.969,9-21.672,5.184c-7.668-3.96-15.553-13.464-23.939-28.656l6.119,42.444l-35.893,0.9l-10.619-39.528     l-1.584,27.576l-25.057-0.252l-1.115-32.94l-25.309,3.168l-7.199-53.964L289.719,77.28l25.955,62.28l-20.986,5.436     l-18.938-38.844l-3.635,46.08l-19.873,0.216l-4.5-63.216l-1.799,1.368l-1.801,46.476l-20.34-1.584l-6.984-49.644l0.684,46.512     l7.452,32.94l-31.392,3.636l-1.368-69.084l-11.52,3.816l10.404,42.012l-21.888,7.884h0     C163.25,114.144,157.311,74.724,151.334,35.268z" fill-rule="evenodd" i:knockout="Off" stroke="#000000" stroke-miterlimit="10" stroke-width="0.036"/>
      <path clip-rule="evenodd" d="     M162.17,92.616l-8.568-55.98l21.672-6.084l0.468,51.228l18.936-4.5l-2.7-51.48l19.872-4.284l2.484,50.328h4.752l3.384-32.724     l20.305-2.052l4.967,46.08l3.6-0.684l4.285-60.048l14.904-5.436l-1.332,51.948l5.4-4.32l18.756-50.328l20.986,0.468l-7.02,27.54     l23.256-7.452l9.037,26.64c-3.854,0.432-8.172,2.088-13.105,4.968c-4.967,2.916-10.402,6.84-16.451,12.168l-4.969-28.224     L286.119,77.28l7.236,15.552c-5.256,3.276-10.514,5.688-16.057,7.668c-5.615,1.836-12.852,2.952-17.137,3.636     c-4.32,0.648-7.127,0.72-8.568,0.216l-1.584-17.388l-5.867,1.8l-2.053,15.804c-2.807,0.54-6.011,0.396-9.467-0.432     c-3.6-0.9-7.308-2.484-11.52-4.752l-2.268-16.236l-5.4-0.9L214.119,96c-2.736-2.736-6.228-4.824-10.62-6.552     c-4.464-1.8-10.404-3.456-15.588-3.6c-5.292-0.108-11.052,1.44-15.336,2.7C168.219,89.736,164.799,90.959,162.17,92.616z" fill="#137F40" fill-rule="evenodd" i:knockout="Off" stroke="#000000" stroke-miterlimit="10" stroke-width="0.036"/>
      <path clip-rule="evenodd" d="     M348.184,58.992l1.367-27.792l7.236-1.116l13.068,22.788l4.066-0.9l-2.482-30.456l21.023-7.236l6.984,29.34l4.967-0.432     c-0.539-3.96,0.613-7.128,3.602-9.504c2.986-2.448,9.143-4.752,14.004-4.968c4.752-0.36,9.936-0.18,14.436,3.168     c4.463,3.312,8.279,8.712,11.988,16.488l-14.004,4.5c-1.369-3.636-3.025-6.012-4.969-6.984c-2.125-1.116-4.355-1.188-6.984,0.9     c-2.664,2.124-6.875,7.2-8.604,11.736c-1.764,4.392-2.484,9.36-2.016,14.904c-3.709-2.52-8.928-5.004-15.805-7.452     c-6.947-2.628-17.316-6.228-25.271-7.452C362.691,57.372,355.383,57.479,348.184,58.992z" fill="#137F40" fill-rule="evenodd" i:knockout="Off" stroke="#000000" stroke-miterlimit="10" stroke-width="0.036"/>
      <path clip-rule="evenodd" d="     M162.639,96.216l8.568,54.18l16.272-6.3l-10.188-41.328l17.64-5.652l1.8,68.868l23.688-3.168l-5.868-28.656l0.216-34.308     c-4.284-3.636-8.676-6.228-13.32-7.92c-4.68-1.764-9.54-2.34-14.436-2.268c-4.968,0-11.124,1.296-15.12,2.484     C167.75,93.264,164.799,94.523,162.639,96.216z" fill="#1C7AB5" fill-rule="evenodd" i:knockout="Off" stroke="#000000" stroke-miterlimit="10" stroke-width="0.036"/>
      <path clip-rule="evenodd" d="     M222.002,103.236c1.26,1.62,3.564,2.772,6.768,3.6c3.24,0.792,7.236,1.116,12.421,1.116l-1.584,24.624h-12.421     C225.458,122.82,223.73,113.028,222.002,103.236z" fill="#1C7AB5" fill-rule="evenodd" i:knockout="Off" stroke="#000000" stroke-miterlimit="10" stroke-width="0.036"/>
      <path clip-rule="evenodd" d="     M256.094,149.964l-3.168-42.228c5.148-0.504,9.217-1.08,12.637-1.584c3.313-0.576,5.725-1.224,7.236-1.8l-2.699,45.144     C265.455,149.64,260.775,149.784,256.094,149.964z" fill="#1C7AB5" fill-rule="evenodd" i:knockout="Off" stroke="#000000" stroke-miterlimit="10" stroke-width="0.036"/>
      <path clip-rule="evenodd" d="     M297.17,142.043l-18.504-39.06c3.602-1.332,6.588-2.556,9.252-3.816c2.629-1.26,4.645-2.412,6.336-3.6l17.389,42.66     C306.818,139.488,301.994,140.748,297.17,142.043z" fill="#1C7AB5" fill-rule="evenodd" i:knockout="Off" stroke="#000000" stroke-miterlimit="10" stroke-width="0.036"/>
      <path clip-rule="evenodd" d="     M315.459,106.152l-4.068-25.488c4.355-3.816,8.244-6.66,11.52-8.82c3.168-2.196,5.184-2.952,8.137-4.068     c2.988-1.224,6.012-2.196,9.469-2.916l2.482,9.468l-1.584,17.604l3.854-0.432l3.383-29.376c1.477-0.54,3.961-0.792,7.453-0.9     c3.455-0.144,8.314-0.432,13.318,0.252c4.824,0.612,8.82,1.188,16.021,3.816c7.271,2.556,15.947,6.516,26.855,11.736     c-0.863,4.536-0.828,8.604,0.252,12.204c1.08,3.564,2.988,7.668,5.867,9.252c2.736,1.476,7.561,1.08,10.584-0.216     c2.881-1.404,5.148-3.996,6.805-7.92c6.301,3.456,11.195,6.3,15.119,8.82c3.781,2.484,6.408,4.392,7.885,5.868     c-1.115,5.112-2.844,9.828-5.184,14.436c-2.377,4.536-5.111,10.584-9.037,12.888c-4.104,2.232-9.322,3.168-14.688,0.432     c-5.471-2.988-13.248-12.888-17.352-17.604c-4.104-4.752-6.443-8.316-7.02-10.836l-4.285,0.684l5.438,41.076l-28.477,1.8     l-11.484-42.66l-5.652,0.468l-1.115,29.556l-16.957,0.216l-1.584-29.556l2.053-7.236l-4.068-0.216l-1.584,4.5v0     C330.363,104.028,322.91,105.072,315.459,106.152z" fill="#1C7AB5" fill-rule="evenodd" i:knockout="Off" stroke="#000000" stroke-miterlimit="10" stroke-width="0.036"/>
      <path clip-rule="evenodd" d="     M437.822,87.432c2.016,0.54,4.752,2.016,8.352,4.284c3.602,2.196,7.92,5.328,13.105,9.252c0.287-3.06,0.252-7.704-0.252-13.788     c-0.504-6.228-1.404-13.752-2.701-23.004l-30.707,3.384l2.051,14.904l9.938,0.216C437.678,84.264,437.75,85.848,437.822,87.432z" fill="#137F40" fill-rule="evenodd" i:knockout="Off" stroke="#000000" stroke-miterlimit="10" stroke-width="0.036"/>
      <path clip-rule="evenodd" d="     M427.059,85.416c-0.324-3.276-1.691-5.472-3.816-6.732c-2.195-1.26-5.291-1.584-9.287-0.828c0.145,3.384,0.684,6.048,1.619,7.992     c0.936,1.908,2.232,3.096,4.033,3.564c-0.541,0.216-1.98,0.612-4.32,1.188c-2.377,0.576-5.652,1.296-9.828,2.304     c2.771,3.276,5.688,5.148,9.145,6.048c3.383,0.792,7.055,0.324,11.158-1.26c0.973,0.792,1.873,1.116,2.988,1.116     c1.045-0.072,2.16-0.54,3.35-1.404c5.291,1.836,10.439,3.132,15.588,3.744c5.146,0.684,11.088,1.476,15.191,0.036     c3.996-1.692,6.875-6.552,8.641-9.576c1.547-3.06,3.311-6.012,1.26-8.316c-2.053-2.376-6.48-4.284-13.428-5.724     c0.143,1.692,0.395,3.24,0.611,4.644c0.215,1.44,0.504,2.592,0.863,3.744c-1.043,0.576-2.951,1.224-6.119,1.944     c-3.24,0.684-9.145,1.728-12.564,2.16c-3.348,0.252-6.012,0.18-7.703-0.36c-0.252-0.828-0.756-1.728-1.369-2.304     c-0.648-0.684-1.404-1.368-2.412-1.62C429.615,85.488,428.463,85.236,427.059,85.416z" fill-rule="evenodd" i:knockout="Off" stroke="#000000" stroke-miterlimit="10" stroke-width="0.036"/>
      <path clip-rule="evenodd" d="     M427.49,88.188c-0.828,0.216-1.404,0.972-1.584,2.124c-0.287,1.08-0.324,3.384,0.18,4.392c0.434,0.828,1.584,1.332,2.629,1.08     c1.008-0.396,2.988-1.728,3.455-2.88c0.252-1.152-0.646-3.384-1.439-4.068C429.939,87.936,428.211,87.899,427.49,88.188z" fill="#FB0F0C" fill-rule="evenodd" i:knockout="Off" stroke="#000000" stroke-miterlimit="10" stroke-width="0.036"/>
      <path clip-rule="evenodd" d="     M425.871,85.956c-0.109-2.34-1.117-4.104-2.881-5.292c-1.764-1.224-4.428-1.872-7.848-1.944c0.469,3.096,1.477,5.58,2.881,7.452     c1.439,1.8,3.275,2.988,5.65,3.564c-0.143-0.792,0.037-1.548,0.396-2.124C424.395,86.928,425.043,86.424,425.871,85.956z" fill="#FB0F0C" fill-rule="evenodd" i:knockout="Off" stroke="#000000" stroke-miterlimit="10" stroke-width="0.036"/>
      <path clip-rule="evenodd" d="     M409.059,93.516l12.203-2.664l1.801,0.504c-0.324,0.576-0.252,1.368,0.072,2.232c0.287,0.864,0.828,1.8,1.764,2.952     c-2.879,1.26-5.615,1.584-8.207,1.116C413.955,97.116,411.543,95.784,409.059,93.516z" fill="#FB0F0C" fill-rule="evenodd" i:knockout="Off" stroke="#000000" stroke-miterlimit="10" stroke-width="0.036"/>
      <path clip-rule="evenodd" d="     M434.619,91.751c3.455,0.936,7.055,1.332,11.195,1.044c4.141-0.36,9.541-1.368,13.141-2.592c3.348-1.296,5.795-2.808,7.199-4.824     l-4.645,0.072c0.037-0.864-0.07-1.62-0.18-2.664c-0.143-1.044-0.287-2.16-0.576-3.348c4.141,0.972,7.057,2.232,8.748,3.636     c1.656,1.332,2.232,2.16,1.297,4.824c-1.045,2.7-3.061,9.216-7.416,11.196c-4.537,1.728-13.717,0.396-18.936-0.108     c-5.256-0.468-8.965-1.332-11.809-2.592c0.684-0.54,1.08-1.116,1.477-1.872C434.475,93.731,434.547,92.76,434.619,91.751z" fill="#FB0F0C" fill-rule="evenodd" i:knockout="Off" stroke="#000000" stroke-miterlimit="10" stroke-width="0.036"/>
    </g>
  </g>
</svg>
