<?xml version="1.0" encoding="UTF-8" standalone="no"?>
<!-- Created with Inkscape (http://www.inkscape.org/) --><svg height="297mm" id="svg1416" inkscape:version="0.42.2" sodipodi:docbase="/home/bruce/ens" sodipodi:docname="judo_bw.svg" sodipodi:version="0.32" width="210mm" xmlns="http://www.w3.org/2000/svg" xmlns:cc="http://web.resource.org/cc/" xmlns:dc="http://purl.org/dc/elements/1.1/" xmlns:inkscape="http://www.inkscape.org/namespaces/inkscape" xmlns:rdf="http://www.w3.org/1999/02/22-rdf-syntax-ns#" xmlns:sodipodi="http://inkscape.sourceforge.net/DTD/sodipodi-0.dtd" xmlns:svg="http://www.w3.org/2000/svg">
  <metadata>
    <rdf:RDF xmlns:cc="http://web.resource.org/cc/" xmlns:dc="http://purl.org/dc/elements/1.1/" xmlns:rdf="http://www.w3.org/1999/02/22-rdf-syntax-ns#">
      <cc:Work rdf:about="">
        <dc:title>Judo</dc:title>
        <dc:description></dc:description>
        <dc:subject>
          <rdf:Bag>
            <rdf:li>sports</rdf:li>
            <rdf:li>judo</rdf:li>
          </rdf:Bag>
        </dc:subject>
        <dc:publisher>
          <cc:Agent rdf:about="http://www.openclipart.org/">
            <dc:title>Open Clip Art Library</dc:title>
          </cc:Agent>
        </dc:publisher>
        <dc:creator>
          <cc:Agent>
            <dc:title>Brice Boyer</dc:title>
          </cc:Agent>
        </dc:creator>
        <dc:rights>
          <cc:Agent>
            <dc:title>Brice Boyer</dc:title>
          </cc:Agent>
        </dc:rights>
        <dc:date></dc:date>
        <dc:format>image/svg+xml</dc:format>
        <dc:type rdf:resource="http://purl.org/dc/dcmitype/StillImage"/>
        <cc:license rdf:resource="http://web.resource.org/cc/PublicDomain"/>
        <dc:language>en</dc:language>
      </cc:Work>
      <cc:License rdf:about="http://web.resource.org/cc/PublicDomain">
        <cc:permits rdf:resource="http://web.resource.org/cc/Reproduction"/>
        <cc:permits rdf:resource="http://web.resource.org/cc/Distribution"/>
        <cc:permits rdf:resource="http://web.resource.org/cc/DerivativeWorks"/>
      </cc:License>
    </rdf:RDF>
  </metadata>
  <defs id="defs1419"/>
  <sodipodi:namedview bordercolor="#666666" borderopacity="1.0" id="base" inkscape:current-layer="svg1416" inkscape:cx="272.41790" inkscape:cy="781.44232" inkscape:pageopacity="0.0" inkscape:pageshadow="2" inkscape:window-height="514" inkscape:window-width="771" inkscape:window-x="65" inkscape:window-y="111" inkscape:zoom="1.3958714" pagecolor="#ffffff"/>
  <path d="M 179.68769,334.76874 C 180.78888,328.61687 184.83352,317.07695 188.67577,309.12445 C 192.51798,301.17192 195.66164,293.10761 195.66164,291.20372 C 195.66164,289.29984 202.22390,276.79122 210.24446,263.40682 C 219.86770,247.34792 224.85125,234.96742 224.89769,227.00417 C 224.96623,215.25786 225.36342,214.90832 239.82726,213.86653 L 254.68646,212.79629 L 242.84959,201.79917 C 230.38593,190.21977 217.85628,169.18208 221.34537,165.69299 C 222.47694,164.56141 225.54047,166.64500 228.15316,170.32317 C 230.76584,174.00137 238.43255,179.94055 245.19031,183.52138 C 256.67496,189.60692 258.03992,189.66319 266.09799,184.38334 C 270.83946,181.27658 276.10983,178.73471 277.80988,178.73471 C 283.26740,178.73471 277.90180,195.51445 269.56925,204.50546 L 261.49946,213.21289 L 271.47479,213.21289 C 284.32388,213.21289 287.27597,218.31070 280.45518,228.72053 C 276.37662,234.94522 275.84828,239.23120 278.34877,245.80798 C 283.00305,258.04974 276.76374,256.97778 269.24129,244.24326 C 259.55309,227.84247 257.28036,232.24040 266.71794,249.12610 L 275.22808,264.35242 L 267.62065,269.68085 C 260.73552,274.50339 259.62939,274.48442 255.97085,269.48105 C 252.40266,264.60129 250.24605,265.47272 237.58632,276.91003 C 229.69816,284.03654 223.24419,291.08874 223.24419,292.58161 C 223.24419,295.33945 210.19550,311.06275 189.25942,333.53225 L 177.68547,345.95391 L 179.68769,334.76874 z M 247.32613,250.27694 C 247.28607,241.77386 246.46731,240.31875 243.93110,244.24326 C 239.55168,251.01991 239.55168,261.48235 243.93110,261.48235 C 245.82740,261.48235 247.35516,256.43992 247.32613,250.27694 z M 246.54323,226.46072 C 249.56635,223.43761 251.81353,223.53097 255.80756,226.84574 C 258.95766,229.46008 264.69148,230.31576 270.04925,228.97105 C 277.56357,227.08505 278.32074,225.88011 274.71881,221.54007 C 271.56895,217.74471 264.87897,216.63065 249.69151,217.37234 C 223.99416,218.62728 219.09343,225.50430 240.65567,230.05204 C 241.69863,230.27201 244.34804,228.65591 246.54323,226.46072 z M 386.97130,334.63379 C 379.98640,328.67648 354.25212,295.49002 342.93559,277.84612 L 336.84571,268.35127 L 319.20756,277.28919 C 309.50657,282.20505 293.89178,292.29592 284.50803,299.71339 C 275.12424,307.13082 266.40646,313.19963 265.13511,313.19963 C 263.86380,313.19963 258.84722,316.88680 253.98714,321.39331 C 249.12706,325.89985 241.66085,330.69459 237.39555,332.04834 C 229.65085,334.50643 229.64841,334.49433 235.57290,322.99271 C 245.14097,304.41756 257.31487,289.04918 284.94414,260.66629 C 305.29848,239.75675 310.00644,233.08746 306.72729,229.80831 C 304.42649,227.50752 302.54401,222.83231 302.54401,219.41897 C 302.54401,214.04292 305.42601,213.29040 324.09288,213.79247 C 339.33307,214.20238 341.60421,214.74241 331.85047,215.63702 C 310.12642,217.62962 306.45291,219.67149 314.25736,225.41607 C 317.85526,228.06434 322.50981,229.11716 324.60081,227.75569 C 326.69185,226.39418 332.28145,225.39576 337.02220,225.53691 C 341.76295,225.67807 348.41893,225.09301 351.81327,224.23678 C 357.74342,222.74091 357.74342,222.41178 351.81327,215.82182 C 345.85406,209.19956 345.87896,209.00807 352.53738,210.25498 C 357.82396,211.24502 359.68919,214.75776 360.53084,225.30894 C 361.13462,232.87835 362.68614,239.47262 363.97866,239.96286 C 368.25196,241.58372 375.56633,259.33640 385.31483,291.74807 C 401.45824,345.42126 401.52085,347.04294 386.97130,334.63379 z M 314.21354,248.64564 C 318.25555,240.69680 318.60468,238.01626 315.43982,239.23072 C 309.09328,241.66612 301.91958,254.23483 304.49638,258.40418 C 307.11382,262.63930 307.08100,262.67227 314.21354,248.64564 z M 339.14116,247.08054 C 336.80306,235.38995 334.64579,231.67913 331.82654,234.49838 C 328.89617,237.42875 334.19957,258.03454 337.88416,258.03454 C 339.91892,258.03454 340.43409,253.54520 339.14116,247.08054 z M 296.01157,317.43728 L 284.36408,307.71353 L 293.21263,301.91575 C 302.01739,296.14662 302.08083,296.17741 306.02772,308.13665 C 311.85578,325.79586 309.09477,328.35962 296.01157,317.43728 z M 300.82010,208.07054 C 298.92380,207.43797 293.10561,205.97940 287.89078,204.82925 C 272.59723,201.45618 276.93320,196.95277 298.00989,194.31940 C 330.53082,190.25618 333.57438,188.19211 333.57438,170.20049 C 333.57438,153.62690 340.53042,148.61187 346.84397,160.63366 C 351.83989,170.14657 354.63366,193.79219 351.35444,198.80901 C 346.64444,206.01478 313.09155,212.16410 300.82010,208.07054 z M 261.56897,169.25321 C 270.88128,153.92862 274.20974,151.27511 284.20820,151.20494 C 290.68476,151.15950 305.99183,166.63848 305.99183,173.23326 C 305.99183,177.57527 294.16085,175.00944 287.85086,169.29896 C 281.86996,163.88633 280.85017,163.83224 277.23592,168.73579 C 273.33982,174.02178 260.41781,182.18253 255.94392,182.18253 C 254.71646,182.18253 257.24771,176.36433 261.56897,169.25321 z M 230.10255,156.25421 C 226.45500,149.43873 226.35467,146.65069 229.63730,143.32489 C 242.52087,130.27200 257.73854,144.69564 245.43142,158.29487 C 237.60190,166.94641 235.68850,166.69168 230.10255,156.25421 z M 303.61101,148.95962 C 300.96502,142.06426 306.48042,132.57793 313.99581,131.09813 C 319.98218,129.91935 325.59847,144.53204 321.62814,150.95618 C 318.14112,156.59833 306.02710,155.25589 303.61101,148.95962 z " id="path1561" style="fill:#000000"/>
</svg>
