<?xml version="1.0" encoding="utf-8"?>
<!-- Generator: Adobe Illustrator 10.0, SVG Export Plug-In . SVG Version: 3.0.0 Build 77)  --><svg enable-background="new 0 0 272.663 448.457" height="448.457" i:pageBounds="0 792 612 0" i:rulerOrigin="0 0" i:viewOrigin="168.9995 620" overflow="visible" space="preserve" viewBox="0 0 272.663 448.457" width="272.663" xmlns="http://www.w3.org/2000/svg" xmlns:a="http://ns.adobe.com/AdobeSVGViewerExtensions/3.0/" xmlns:graph="http://ns.adobe.com/Graphs/1.0/" xmlns:i="http://ns.adobe.com/AdobeIllustrator/10.0/" xmlns:x="http://ns.adobe.com/Extensibility/1.0/" xmlns:xlink="http://www.w3.org/1999/xlink">
  <metadata>
    <rdf:RDF xmlns:cc="http://web.resource.org/cc/" xmlns:dc="http://purl.org/dc/elements/1.1/" xmlns:rdf="http://www.w3.org/1999/02/22-rdf-syntax-ns#">
      <cc:Work rdf:about="">
        <dc:title>Rollerblading Beginner</dc:title>
        <dc:description>Rollerblading Beginner</dc:description>
        <dc:subject>
          <rdf:Bag>
            <rdf:li>people</rdf:li>
            <rdf:li>sports</rdf:li>
            <rdf:li>activities</rdf:li>
          </rdf:Bag>
        </dc:subject>
        <dc:publisher>
          <cc:Agent rdf:about="http://www.openclipart.org/">
            <dc:title>Open Clip Art Project</dc:title>
          </cc:Agent>
        </dc:publisher>
        <dc:creator>
          <cc:Agent rdf:about="http://web.resource.org/cc/PublicDomain">
            <dc:title>AbiClipart</dc:title>
          </cc:Agent>
        </dc:creator>
        <dc:rights>
          <cc:Agent rdf:about="http://web.resource.org/cc/PublicDomain">
            <dc:title>Public Domain</dc:title>
          </cc:Agent>
        </dc:rights>
        <dc:date>2005/05/16</dc:date>
        <dc:format>image/svg+xml</dc:format>
        <dc:type rdf:resource="http://purl.org/dc/dcmitype/StillImage"/>
        <cc:license rdf:resource="http://web.resource.org/cc/PublicDomain"/>
        <dc:language>en</dc:language>
      </cc:Work>
      <cc:License rdf:about="http://web.resource.org/cc/PublicDomain">
        <cc:permits rdf:resource="http://web.resource.org/cc/Reproduction"/>
        <cc:permits rdf:resource="http://web.resource.org/cc/Distribution"/>
        <cc:permits rdf:resource="http://web.resource.org/cc/DerivativeWorks"/>
      </cc:License>
    </rdf:RDF>
  </metadata>
  <g i:dimmedPercent="50" i:layer="yes" i:rgbTrio="#4F008000FFFF" id="Layer_1">
    <g>
      <path clip-rule="evenodd" d="     M161.51,417.21c-2.27,2.088-3.168,3.204-3.672,7.164c-0.504,3.924-0.434,9.144,1.439,12.636c1.871,3.492,6.191,6.912,9.648,7.74     c3.492,0.792,7.74-0.756,11.016-2.988c3.275-2.304,7.164-7.056,8.459-10.512c1.225-3.456,0.686-6.876-0.936-10.008     c-1.619-3.096-4.32-7.849-8.676-8.496c0,0-6.516,0.396-9.791,1.116C165.721,414.546,163.237,415.59,161.51,417.21z" fill-rule="evenodd" i:knockout="Off" stroke="#000000" stroke-miterlimit="10" stroke-width="0.036"/>
      <path clip-rule="evenodd" d="     M175.334,414.33c2.051-0.324,3.852-0.036,5.543,0.864c1.621,0.827,3.275,2.628,4.393,4.283c1.043,1.513,1.764,3.169,2.016,5.257     c0.287,2.052,0.217,4.859-0.359,7.02c-0.721,2.052-1.945,3.744-3.672,5.22c0.971-1.26,1.619-3.023,1.547-5.292     c-0.107-2.447-0.863-6.191-1.691-8.46c-0.9-2.231-1.801-3.239-3.133-4.68C178.682,416.958,177.133,415.698,175.334,414.33z" fill="#90BCD8" fill-rule="evenodd" i:knockout="Off" stroke="#000000" stroke-miterlimit="10" stroke-width="0.036"/>
      <path clip-rule="evenodd" d="     M162.77,419.262c-1.943,1.8-3.529,3.889-3.637,7.092c0.037,3.133,1.297,8.496,3.205,11.376c1.727,2.736,4.031,4.645,7.055,5.04     c2.988,0.108,7.957-1.188,10.332-3.455c2.125-2.341,3.492-6.372,2.988-10.009c-0.611-3.852-3.852-9.828-5.977-12.096     c-2.195-2.268-4.57-1.908-6.84-1.44C167.45,416.094,164.569,417.39,162.77,419.262z" fill="#90BCD8" fill-rule="evenodd" i:knockout="Off" stroke="#000000" stroke-miterlimit="10" stroke-width="0.036"/>
      <path clip-rule="evenodd" d="     M166.801,423.186c-0.791,0.612-1.295,1.513-1.367,2.7c-0.037,1.225,0.467,3.24,1.223,4.393c0.613,1.008,1.514,1.8,2.701,1.943     c1.08,0.036,3.061-0.54,3.996-1.332c0.756-0.936,1.332-2.412,1.152-3.852c-0.289-1.584-1.512-3.744-2.305-4.68     c-0.9-0.9-1.729-0.757-2.629-0.54C168.674,421.926,167.377,422.43,166.801,423.186z" fill-rule="evenodd" i:knockout="Off" stroke="#000000" stroke-miterlimit="10" stroke-width="0.036"/>
      <path clip-rule="evenodd" d="     M168.495,425.598c-0.361,0.288-0.721,0.648-0.648,1.225c-0.037,0.468,0.252,1.439,0.576,1.943c0.215,0.504,0.756,0.756,1.223,0.9     c0.469,0,1.332-0.252,1.766-0.612c0.359-0.432,0.539-1.188,0.539-1.728c-0.145-0.72-0.721-1.692-1.045-2.088     c-0.432-0.36-0.826-0.396-1.188-0.252C169.286,425.021,168.782,425.274,168.495,425.598z" fill="#A1A1A1" fill-rule="evenodd" i:knockout="Off" stroke="#000000" stroke-miterlimit="10" stroke-width="0.036"/>
      <path clip-rule="evenodd" d="     M179.977,415.842c-2.268,2.088-3.168,3.204-3.672,7.128s-0.432,9.181,1.441,12.672c1.871,3.492,6.191,6.912,9.646,7.74     c3.492,0.756,7.74-0.756,11.053-2.988c3.24-2.304,7.127-7.056,8.424-10.512c1.225-3.456,0.684-6.912-0.936-10.008     c-1.621-3.132-4.32-7.848-8.676-8.496c0,0-6.518,0.396-9.793,1.08S181.706,414.222,179.977,415.842z" fill-rule="evenodd" i:knockout="Off" stroke="#000000" stroke-miterlimit="10" stroke-width="0.036"/>
      <path clip-rule="evenodd" d="     M193.801,412.962c2.053-0.324,3.852-0.036,5.545,0.864c1.619,0.828,3.275,2.628,4.391,4.284c1.045,1.512,1.766,3.168,2.018,5.256     c0.287,2.052,0.215,4.859-0.361,7.02c-0.719,2.017-1.943,3.744-3.672,5.185c0.973-1.261,1.621-3.024,1.549-5.292     c-0.107-2.412-0.865-6.192-1.691-8.425c-0.9-2.231-1.801-3.239-3.133-4.68C197.149,415.59,195.602,414.33,193.801,412.962z" fill="#90BCD8" fill-rule="evenodd" i:knockout="Off" stroke="#000000" stroke-miterlimit="10" stroke-width="0.036"/>
      <path clip-rule="evenodd" d="     M181.237,417.894c-1.943,1.801-3.527,3.889-3.635,7.093c0.035,3.132,1.295,8.496,3.203,11.376     c1.729,2.735,4.033,4.644,7.057,5.04c2.988,0.107,7.955-1.188,10.332-3.456c2.123-2.34,3.492-6.336,2.988-10.044     c-0.613-3.889-3.852-9.721-5.977-12.061c-2.195-2.34-4.572-1.8-6.84-1.439C185.918,414.726,183.038,416.021,181.237,417.894z" fill="#90BCD8" fill-rule="evenodd" i:knockout="Off" stroke="#000000" stroke-miterlimit="10" stroke-width="0.036"/>
      <path clip-rule="evenodd" d="     M185.27,421.782c-0.793,0.576-1.297,1.584-1.369,2.735c-0.035,1.225,0.469,3.24,1.225,4.393c0.611,1.008,1.512,1.8,2.701,1.943     c1.078,0.036,3.059-0.539,3.994-1.332c0.758-0.936,1.332-2.411,1.152-3.852c-0.287-1.584-1.512-3.744-2.303-4.68     c-0.9-0.9-1.729-0.756-2.629-0.54C187.141,420.594,185.846,420.99,185.27,421.782z" fill-rule="evenodd" i:knockout="Off" stroke="#000000" stroke-miterlimit="10" stroke-width="0.036"/>
      <path clip-rule="evenodd" d="     M186.961,424.194c-0.359,0.288-0.721,0.647-0.648,1.224c-0.035,0.576,0.252,1.368,0.576,1.98c0.217,0.432,0.756,0.72,1.225,0.863     c0.469-0.036,1.332-0.18,1.764-0.576c0.359-0.504,0.541-1.079,0.541-1.728c-0.145-0.72-0.721-1.692-1.045-2.088     c-0.432-0.36-0.828-0.396-1.188-0.252C187.754,423.689,187.25,423.834,186.961,424.194z" fill="#A1A1A1" fill-rule="evenodd" i:knockout="Off" stroke="#000000" stroke-miterlimit="10" stroke-width="0.036"/>
      <path clip-rule="evenodd" d="     M203.09,415.734c-2.232,2.088-3.168,3.203-3.672,7.164c-0.504,3.924-0.396,9.144,1.475,12.636     c1.873,3.492,6.156,6.912,9.648,7.74c3.492,0.792,7.74-0.721,11.016-2.988c3.277-2.304,7.164-7.057,8.461-10.512     c1.225-3.456,0.648-6.876-0.936-10.009c-1.621-3.096-4.32-7.848-8.678-8.46c0,0-6.516,0.396-9.791,1.08     C207.338,413.07,204.854,414.114,203.09,415.734z" fill-rule="evenodd" i:knockout="Off" stroke="#000000" stroke-miterlimit="10" stroke-width="0.036"/>
      <path clip-rule="evenodd" d="     M216.95,412.854c2.053-0.323,3.852-0.035,5.545,0.864c1.619,0.828,3.275,2.628,4.391,4.284c1.045,1.512,1.764,3.168,2.016,5.256     c0.289,2.052,0.217,4.86-0.359,7.021c-0.721,2.052-1.943,3.743-3.672,5.22c0.973-1.26,1.619-3.024,1.549-5.292     c-0.109-2.448-0.865-6.192-1.693-8.46c-0.898-2.232-1.799-3.24-3.131-4.68C220.297,415.482,218.75,414.222,216.95,412.854z" fill="#90BCD8" fill-rule="evenodd" i:knockout="Off" stroke="#000000" stroke-miterlimit="10" stroke-width="0.036"/>
      <path clip-rule="evenodd" d="     M204.35,417.822c-1.801,1.691-3.6,3.996-3.6,7.056c-0.109,3.132,1.402,8.496,3.168,11.376c1.619,2.736,4.104,4.645,7.055,5.04     c2.953,0.108,8.029-1.188,10.369-3.456c2.23-2.34,3.42-6.372,2.988-10.008c-0.613-3.853-3.854-9.828-5.977-12.096     c-2.197-2.269-4.572-1.908-6.84-1.44C209.102,414.582,206.114,415.986,204.35,417.822z" fill="#90BCD8" fill-rule="evenodd" i:knockout="Off" stroke="#000000" stroke-miterlimit="10" stroke-width="0.036"/>
      <path clip-rule="evenodd" d="     M208.418,421.71c-0.756,0.612-1.404,1.512-1.404,2.7c-0.037,1.224,0.467,3.24,1.223,4.392c0.686,1.008,1.549,1.8,2.736,1.944     c1.08,0.036,3.061-0.54,3.996-1.332c0.756-0.937,1.332-2.412,1.152-3.853c-0.287-1.619-1.512-3.672-2.305-4.644     c-0.898-0.864-1.727-0.828-2.627-0.576C210.29,420.45,208.995,420.954,208.418,421.71z" fill-rule="evenodd" i:knockout="Off" stroke="#000000" stroke-miterlimit="10" stroke-width="0.036"/>
      <path clip-rule="evenodd" d="     M210.11,424.122c-0.359,0.288-0.721,0.647-0.648,1.224c-0.035,0.469,0.252,1.44,0.576,1.944c0.252,0.504,0.648,0.756,1.188,0.899     c0.576,0,1.225-0.252,1.801-0.611c0.432-0.432,0.469-1.188,0.504-1.729c-0.18-0.72-0.648-1.691-1.008-2.088     c-0.432-0.359-0.828-0.396-1.188-0.252C210.901,423.546,210.397,423.798,210.11,424.122z" fill="#A1A1A1" fill-rule="evenodd" i:knockout="Off" stroke="#000000" stroke-miterlimit="10" stroke-width="0.036"/>
      <path clip-rule="evenodd" d="     M220.37,414.294c-2.268,2.052-3.168,3.204-3.672,7.128s-0.432,9.145,1.439,12.672c1.908,3.456,6.193,6.912,9.684,7.704     c3.457,0.792,7.74-0.72,11.018-2.988c3.275-2.268,7.127-7.056,8.424-10.476c1.26-3.456,0.684-6.912-0.936-10.008     c-1.621-3.132-4.32-7.884-8.678-8.496c0,0-6.516,0.396-9.791,1.08C224.618,411.594,222.098,412.674,220.37,414.294z" fill-rule="evenodd" i:knockout="Off" stroke="#000000" stroke-miterlimit="10" stroke-width="0.036"/>
      <path clip-rule="evenodd" d="     M234.229,411.378c2.053-0.252,3.854,0,5.545,0.9c1.656,0.863,3.203,2.556,4.355,4.248c1.045,1.512,1.764,3.168,2.016,5.256     c0.289,2.016,0.217,4.968-0.359,7.056c-0.721,2.016-1.943,3.744-3.672,5.184c1.115-1.26,1.512-3.023,1.584-5.292     c-0.107-2.411-0.863-6.191-1.691-8.424c-0.865-2.231-1.873-3.239-3.168-4.68C237.542,414.078,235.958,412.71,234.229,411.378z" fill="#90BCD8" fill-rule="evenodd" i:knockout="Off" stroke="#000000" stroke-miterlimit="10" stroke-width="0.036"/>
      <path clip-rule="evenodd" d="     M221.629,416.346c-1.799,1.692-3.6,3.996-3.6,7.057c-0.107,3.132,1.404,8.496,3.168,11.376c1.619,2.808,4.104,4.644,7.057,5.075     c2.951,0.108,8.027-1.188,10.367-3.455c2.16-2.341,3.42-6.337,2.951-10.045c-0.611-3.888-3.852-9.72-5.975-12.06     c-2.232-2.34-4.5-1.8-6.805-1.44C226.381,413.142,223.393,414.582,221.629,416.346z" fill="#90BCD8" fill-rule="evenodd" i:knockout="Off" stroke="#000000" stroke-miterlimit="10" stroke-width="0.036"/>
      <path clip-rule="evenodd" d="     M225.698,420.234c-0.756,0.575-1.404,1.584-1.404,2.735c-0.035,1.225,0.469,3.24,1.225,4.393c0.684,1.008,1.547,1.8,2.736,1.943     c1.15,0.145,2.988-0.576,3.959-1.332c0.756-1.008,1.332-2.447,1.152-3.888c-0.287-1.584-1.512-3.78-2.305-4.644     c-0.898-0.864-1.727-0.828-2.627-0.576C227.499,418.974,226.309,419.478,225.698,420.234z" fill-rule="evenodd" i:knockout="Off" stroke="#000000" stroke-miterlimit="10" stroke-width="0.036"/>
      <path clip-rule="evenodd" d="     M227.354,422.646c-0.396,0.287-0.648,0.647-0.611,1.224c-0.109,0.576,0.215,1.368,0.539,1.979     c0.217,0.36,0.756,0.828,1.225,0.864c0.539,0,1.332-0.252,1.799-0.612c0.432-0.432,0.469-1.188,0.504-1.728     c-0.143-0.72-0.719-1.692-1.043-2.088c-0.361-0.36-0.793-0.396-1.152-0.252C228.11,422.07,227.641,422.322,227.354,422.646z" fill="#A1A1A1" fill-rule="evenodd" i:knockout="Off" stroke="#000000" stroke-miterlimit="10" stroke-width="0.036"/>
      <path clip-rule="evenodd" d="     M174.434,366.954c-1.152,3.168-3.6,6.84-7.885,11.16c-4.32,4.248-14.977,8.315-17.387,14.544     c-2.449,6.228-1.621,13.571,2.627,22.428c11.412-2.304,20.016-3.672,26.641-3.96c6.443-0.36,5.436,1.296,12.24,2.052     c6.695,0.648,18.971,2.988,28.223,2.017c9.289-1.116,22.248-5.473,27.072-8.496c4.645-3.24,4.355-6.624,1.225-10.009     c-3.205-3.348-12.348-7.308-20.053-9.647c-7.811-2.376-22.139-1.944-26.316-4.68c-4.176-2.916-3.887-6.912,1.152-12.385     L174.434,366.954z" fill-rule="evenodd" i:knockout="Off" stroke="#000000" stroke-miterlimit="10" stroke-width="0.036"/>
      <path clip-rule="evenodd" d="     M177.241,369.474c-0.18,3.024-1.979,5.977-5.543,9.252c-3.637,3.204-12.527,6.948-15.84,9.828c-3.385,2.7-3.816,2.7-4.213,6.66     c-0.467,3.888-0.035,9.54,1.441,16.956c10.115-3.78,18.936-5.652,26.891-5.76c7.85-0.181,12.781,4.319,20.197,5.147     c7.416,0.757,16.02,1.009,23.723-0.216c7.525-1.296,18.613-4.716,21.313-7.2c2.484-2.592-1.115-5.363-5.795-7.92     c-4.682-2.628-11.988-5.075-22.068-7.487c-2.305,3.708-4.428,5.796-6.373,6.119c-2.051,0.324-3.779-1.044-5.471-4.104     c-2.629,2.808-4.717,4.824-6.66,6.192c-2.053,1.296-4.285,3.384-4.752,1.691c-0.469-1.872,0.18-5.76,2.088-12.24     c-5.869,3.925-10.008,6.192-12.816,6.66c-2.844,0.324-5.076-2.016-3.637-3.815c1.512-1.729,5.4-3.96,12.24-6.553     c-8.027,1.044-11.951,1.044-12.168,0c-0.145-1.079,3.42-3.203,11.088-6.371l1.117-5.509     C187.106,370.374,182.174,369.942,177.241,369.474z" fill="#C0C0C0" fill-rule="evenodd" i:knockout="Off" stroke="#000000" stroke-miterlimit="10" stroke-width="0.036"/>
      <path clip-rule="evenodd" d="     M195.17,377.07c-3.889,0.611-6.697,1.296-8.568,2.052c-1.945,0.828-4.176,2.268-2.52,2.52c1.654,0.072,5.76-0.54,12.455-1.836     C196.106,378.906,195.637,378.006,195.17,377.07z" fill="#FFFFFF" fill-rule="evenodd" i:knockout="Off" stroke="#000000" stroke-miterlimit="10" stroke-width="0.036"/>
      <path clip-rule="evenodd" d="     M195.098,381.858c-4.141,1.584-7.201,3.096-9.324,4.535c-2.195,1.332-3.816,3.421-3.492,3.889     c0.287,0.396,2.699-0.145,5.436-1.225c2.736-1.115,6.156-2.916,10.656-5.399C197.293,383.082,196.213,382.47,195.098,381.858z" fill="#FFFFFF" fill-rule="evenodd" i:knockout="Off" stroke="#000000" stroke-miterlimit="10" stroke-width="0.036"/>
      <path clip-rule="evenodd" d="     M203.09,385.242c-2.305,1.979-3.961,3.815-5.256,5.651c-1.297,1.801-3.025,5.04-2.412,5.148c0.646-0.036,4.139-3.384,6.012-4.896     c1.691-1.62,3.131-2.917,4.32-4.284C204.889,386.322,203.989,385.782,203.09,385.242z" fill="#FFFFFF" fill-rule="evenodd" i:knockout="Off" stroke="#000000" stroke-miterlimit="10" stroke-width="0.036"/>
      <path clip-rule="evenodd" d="     M209.678,387.366c-0.936,1.728-1.152,3.06-0.793,3.996c0.361,0.899,2.016,1.8,2.881,1.296c0.756-0.648,1.367-2.34,1.836-5.076     C212.305,387.51,211.01,387.438,209.678,387.366z" fill="#FFFFFF" fill-rule="evenodd" i:knockout="Off" stroke="#000000" stroke-miterlimit="10" stroke-width="0.036"/>
      <path clip-rule="evenodd" d="     M157.549,412.314c3.277,3.779,6.049,6.623,8.316,8.676c2.123,1.943,2.447,3.636,5.004,3.275     c2.557-0.504,6.553-5.436,10.332-5.615c3.744-0.036,8.783,4.535,11.809,4.823c2.844-0.036,2.555-4.176,5.508-4.212     c2.879-0.036,8.676,3.349,11.988,4.176c3.168,0.648,5.471,1.045,7.451,0.217c1.873-0.828,2.016-5.148,4.176-5.185     c2.016-0.144,5.545,4.824,8.496,4.5c2.953-0.396,6.912-3.852,9.252-6.624c2.232-2.987,3.564-6.264,4.141-10.512     c-5.797,2.628-10.836,4.464-15.66,5.652c-4.859,1.115-6.877,1.224-12.852,1.296c-6.049-0.036-17.029-0.864-23.076-1.368     c-6.121-0.648-7.668-2.016-13.393-1.872C173.209,409.65,166.045,410.622,157.549,412.314z" fill-rule="evenodd" i:knockout="Off" stroke="#000000" stroke-miterlimit="10" stroke-width="0.036"/>
      <path clip-rule="evenodd" d="     M50.27,412.422c-2.592,1.692-3.672,2.628-4.824,6.444c-1.152,3.78-1.98,8.928-0.72,12.708c1.26,3.744,4.932,7.848,8.208,9.252     c3.312,1.368,7.776,0.576,11.376-1.08c3.636-1.729,8.244-5.76,10.08-8.928c1.836-3.204,1.836-6.696,0.792-10.044     c-1.08-3.349-2.952-8.46-7.128-9.828c0,0-6.516-0.685-9.828-0.576C54.878,410.514,52.25,411.126,50.27,412.422z" fill-rule="evenodd" i:knockout="Off" stroke="#000000" stroke-miterlimit="10" stroke-width="0.036"/>
      <path clip-rule="evenodd" d="     M64.382,411.918c2.088,0.036,3.816,0.684,5.328,1.8c1.44,1.08,2.772,3.097,3.6,4.933c0.756,1.655,1.116,3.456,1.08,5.544     c-0.108,2.052-0.612,4.896-1.512,6.876c-1.08,1.872-2.484,3.42-4.5,4.5c1.224-1.08,2.088-2.736,2.448-4.969     c0.36-2.412,0.072-6.3-0.288-8.604c-0.468-2.269-1.332-3.564-2.304-5.148C67.154,415.194,65.966,413.502,64.382,411.918z" fill="#90BCD8" fill-rule="evenodd" i:knockout="Off" stroke="#000000" stroke-miterlimit="10" stroke-width="0.036"/>
      <path clip-rule="evenodd" d="     M51.134,414.689c-2.196,1.404-4.104,3.24-4.752,6.337c-0.576,2.987-0.072,8.676,1.224,11.771c1.26,2.952,3.204,5.328,6.12,6.156     c2.88,0.792,8.1,0.107,10.8-1.656c2.592-1.908,4.356-5.688,4.608-9.396c-0.072-3.889-2.052-10.225-3.852-12.889     c-1.8-2.664-4.14-2.556-6.48-2.592C56.39,412.278,53.186,413.214,51.134,414.689z" fill="#90BCD8" fill-rule="evenodd" i:knockout="Off" stroke="#000000" stroke-miterlimit="10" stroke-width="0.036"/>
      <path clip-rule="evenodd" d="     M54.481,419.189c-0.864,0.54-1.62,1.225-1.836,2.448c-0.288,1.152-0.036,3.313,0.468,4.536c0.432,1.08,1.224,2.052,2.376,2.376     c1.08,0.252,3.06,0.036,4.14-0.647c1.008-0.721,1.656-2.196,1.8-3.601c-0.072-1.512-0.792-3.996-1.476-4.968     c-0.684-1.044-1.656-1.008-2.52-1.008C56.498,418.254,55.238,418.542,54.481,419.189z" fill-rule="evenodd" i:knockout="Off" stroke="#000000" stroke-miterlimit="10" stroke-width="0.036"/>
      <path clip-rule="evenodd" d="     M55.742,421.854c-0.36,0.253-0.828,0.576-0.828,1.116c-0.108,0.54-0.036,1.44,0.216,2.017c0.18,0.504,0.576,0.863,1.044,1.08     c0.54,0.035,1.296,0.071,1.872-0.288c0.468-0.36,0.684-1.044,0.792-1.62c-0.144-0.721-0.36-1.836-0.648-2.232     c-0.396-0.504-0.72-0.468-1.116-0.432C56.605,421.494,56.066,421.566,55.742,421.854z" fill="#A1A1A1" fill-rule="evenodd" i:knockout="Off" stroke="#000000" stroke-miterlimit="10" stroke-width="0.036"/>
      <path clip-rule="evenodd" d="     M68.702,414.186c-2.592,1.656-3.672,2.629-4.824,6.408c-1.152,3.816-1.98,8.964-0.72,12.744c1.296,3.744,4.932,7.848,8.244,9.252     c3.276,1.368,7.74,0.576,11.34-1.116c3.636-1.691,8.244-5.724,10.116-8.928c1.8-3.168,1.8-6.66,0.756-10.008     c-1.08-3.349-2.952-8.46-7.128-9.828c0,0-6.48-0.72-9.828-0.576C73.31,412.278,70.682,412.89,68.702,414.186z" fill-rule="evenodd" i:knockout="Off" stroke="#000000" stroke-miterlimit="10" stroke-width="0.036"/>
      <path clip-rule="evenodd" d="     M82.813,413.682c2.088,0.036,3.816,0.685,5.328,1.801c1.44,1.079,2.772,3.096,3.6,4.932c0.792,1.656,1.116,3.456,1.116,5.544     c-0.108,2.052-0.576,4.896-1.548,6.876c-1.08,1.872-2.484,3.42-4.5,4.5c1.224-1.08,2.088-2.736,2.448-4.968     c0.324-2.412,0.144-6.3-0.252-8.604c-0.432-2.268-1.404-3.563-2.34-5.147C85.622,416.958,84.29,415.266,82.813,413.682z" fill="#90BCD8" fill-rule="evenodd" i:knockout="Off" stroke="#000000" stroke-miterlimit="10" stroke-width="0.036"/>
      <path clip-rule="evenodd" d="     M69.602,416.454c-2.196,1.404-4.104,3.24-4.752,6.336c-0.54,2.988-0.144,8.676,1.188,11.771c1.26,2.952,3.204,5.328,6.12,6.156     c2.88,0.792,8.1,0.108,10.8-1.656c2.592-1.907,4.356-5.688,4.608-9.396c-0.072-3.852-2.052-10.296-3.852-12.924     c-1.8-2.7-4.14-2.484-6.48-2.557C74.786,414.042,71.689,414.978,69.602,416.454z" fill="#90BCD8" fill-rule="evenodd" i:knockout="Off" stroke="#000000" stroke-miterlimit="10" stroke-width="0.036"/>
      <path clip-rule="evenodd" d="     M72.914,420.954c-0.9,0.54-1.548,1.224-1.8,2.448c-0.288,1.151-0.036,3.312,0.468,4.535c0.432,1.08,1.26,2.053,2.34,2.377     c1.08,0.252,3.06,0.035,4.14-0.648c1.008-0.72,1.656-2.196,1.8-3.6c-0.072-1.477-0.792-4.068-1.476-5.005     c-0.684-0.936-1.656-1.115-2.52-0.972C74.93,420.018,73.67,420.306,72.914,420.954z" fill-rule="evenodd" i:knockout="Off" stroke="#000000" stroke-miterlimit="10" stroke-width="0.036"/>
      <path clip-rule="evenodd" d="     M74.174,423.618c-0.36,0.252-0.828,0.576-0.828,1.116c-0.108,0.54-0.036,1.439,0.216,2.016c0.18,0.504,0.576,0.864,1.044,1.08     c0.54,0.036,1.296,0.072,1.872-0.288c0.468-0.36,0.684-1.044,0.792-1.62c-0.144-0.72-0.36-1.836-0.648-2.232     c-0.396-0.432-0.72-0.539-1.116-0.468C75.038,423.186,74.498,423.366,74.174,423.618z" fill="#A1A1A1" fill-rule="evenodd" i:knockout="Off" stroke="#000000" stroke-miterlimit="10" stroke-width="0.036"/>
      <path clip-rule="evenodd" d="     M91.526,418.002c-2.592,1.656-3.672,2.628-4.824,6.408c-1.152,3.779-1.98,8.964-0.72,12.708c1.296,3.78,4.932,7.884,8.244,9.252     c3.276,1.368,7.74,0.576,11.34-1.08c3.636-1.692,8.244-5.724,10.116-8.928c1.8-3.204,1.8-6.696,0.756-10.009     c-1.08-3.348-2.952-8.495-7.128-9.827c0,0-6.48-0.721-9.828-0.576C96.134,416.058,93.506,416.706,91.526,418.002z" fill-rule="evenodd" i:knockout="Off" stroke="#000000" stroke-miterlimit="10" stroke-width="0.036"/>
      <path clip-rule="evenodd" d="     M105.638,417.462c2.088,0.036,3.816,0.685,5.328,1.8c1.44,1.044,2.772,3.168,3.6,4.968c0.792,1.692,1.116,3.385,1.116,5.509     c-0.108,2.052-0.576,4.896-1.548,6.876c-1.08,1.872-2.484,3.42-4.5,4.5c1.224-1.008,2.088-2.7,2.448-4.933     c0.324-2.304,0.144-6.336-0.252-8.604c-0.432-2.269-1.404-3.564-2.34-5.148C108.446,420.63,107.114,419.154,105.638,417.462z" fill="#90BCD8" fill-rule="evenodd" i:knockout="Off" stroke="#000000" stroke-miterlimit="10" stroke-width="0.036"/>
      <path clip-rule="evenodd" d="     M92.426,420.234c-2.196,1.332-4.104,3.312-4.752,6.372c-0.54,3.023-0.144,8.604,1.188,11.735c1.26,3.024,3.204,5.364,6.12,6.192     c2.88,0.72,8.1,0.107,10.8-1.692c2.592-1.943,4.356-5.616,4.608-9.359c-0.072-3.853-2.052-10.297-3.852-12.925     c-1.8-2.699-4.14-2.483-6.48-2.556C97.61,417.858,94.514,418.83,92.426,420.234z" fill="#90BCD8" fill-rule="evenodd" i:knockout="Off" stroke="#000000" stroke-miterlimit="10" stroke-width="0.036"/>
      <path clip-rule="evenodd" d="     M95.738,424.77c-0.9,0.54-1.548,1.225-1.8,2.448c-0.288,1.152-0.036,3.313,0.468,4.536c0.432,1.08,1.26,2.052,2.34,2.376     c1.08,0.252,3.06,0.036,4.14-0.647c1.008-0.793,1.656-2.232,1.8-3.637c-0.072-1.512-0.792-3.996-1.476-4.968     c-0.684-0.936-1.656-1.116-2.52-0.972C97.754,423.834,96.494,424.122,95.738,424.77z" fill-rule="evenodd" i:knockout="Off" stroke="#000000" stroke-miterlimit="10" stroke-width="0.036"/>
      <path clip-rule="evenodd" d="     M96.998,427.434c-0.36,0.181-0.828,0.54-0.828,1.08c-0.108,0.54-0.036,1.404,0.216,2.053c0.18,0.54,0.576,0.792,1.044,1.044     c0.54,0.036,1.296,0.071,1.872-0.288c0.468-0.36,0.684-1.044,0.792-1.62c-0.144-0.72-0.36-1.836-0.648-2.232     c-0.396-0.432-0.72-0.576-1.116-0.432C97.862,427.002,97.322,427.182,96.998,427.434z" fill="#A1A1A1" fill-rule="evenodd" i:knockout="Off" stroke="#000000" stroke-miterlimit="10" stroke-width="0.036"/>
      <path clip-rule="evenodd" d="     M108.77,419.442c-2.556,1.691-3.636,2.664-4.824,6.443c-1.152,3.78-1.944,8.964-0.684,12.708c1.26,3.744,4.932,7.849,8.208,9.252     c3.312,1.368,7.776,0.576,11.376-1.08c3.6-1.728,8.244-5.76,10.08-8.928c1.8-3.204,1.836-6.696,0.792-10.044     c-1.08-3.348-2.952-8.46-7.128-9.828c0,0-6.516-0.684-9.828-0.576C113.414,417.534,110.75,418.146,108.77,419.442z" fill-rule="evenodd" i:knockout="Off" stroke="#000000" stroke-miterlimit="10" stroke-width="0.036"/>
      <path clip-rule="evenodd" d="     M122.917,418.938c2.088,0.036,3.816,0.685,5.328,1.801c1.44,1.044,2.772,3.168,3.6,4.968c0.756,1.692,1.116,3.384,1.08,5.508     c-0.036,2.052-0.684,4.896-1.548,6.876c-1.08,1.872-2.484,3.42-4.5,4.5c1.224-1.08,2.088-2.736,2.448-4.968     c0.324-2.412,0.144-6.3-0.252-8.604c-0.468-2.304-1.332-3.491-2.304-5.111C125.689,422.106,124.501,420.63,122.917,418.938z" fill="#90BCD8" fill-rule="evenodd" i:knockout="Off" stroke="#000000" stroke-miterlimit="10" stroke-width="0.036"/>
      <path clip-rule="evenodd" d="     M109.67,421.71c-2.196,1.332-4.104,3.312-4.752,6.372c-0.576,3.024-0.072,8.604,1.224,11.736c1.26,2.951,3.204,5.328,6.12,6.155     c2.916,0.685,8.028,0.181,10.764-1.655c2.556-1.944,4.428-5.616,4.644-9.36c0.036-3.852-2.088-10.296-3.852-12.924     c-1.8-2.664-4.14-2.557-6.48-2.592C114.926,419.298,111.722,420.234,109.67,421.71z" fill="#90BCD8" fill-rule="evenodd" i:knockout="Off" stroke="#000000" stroke-miterlimit="10" stroke-width="0.036"/>
      <path clip-rule="evenodd" d="     M113.018,426.21c-0.864,0.468-1.62,1.296-1.836,2.484c-0.288,1.224-0.036,3.239,0.468,4.5c0.432,1.08,1.224,2.052,2.376,2.376     c1.08,0.323,3.06,0.071,4.14-0.612c1.008-0.792,1.656-2.232,1.8-3.636c-0.036-1.513-0.864-3.996-1.512-4.969     c-0.684-1.044-1.692-1.008-2.484-1.008C115.034,425.274,113.773,425.562,113.018,426.21z" fill-rule="evenodd" i:knockout="Off" stroke="#000000" stroke-miterlimit="10" stroke-width="0.036"/>
      <path clip-rule="evenodd" d="     M114.278,428.874c-0.36,0.252-0.828,0.576-0.828,1.116c-0.108,0.54-0.036,1.439,0.216,2.016c0.18,0.504,0.576,0.864,1.044,1.08     c0.54,0.036,1.296,0.072,1.872-0.288c0.468-0.36,0.684-1.044,0.792-1.62c-0.144-0.72-0.324-1.836-0.684-2.231     c-0.396-0.504-0.72-0.469-1.116-0.433C115.178,428.514,114.565,428.586,114.278,428.874z" fill="#A1A1A1" fill-rule="evenodd" i:knockout="Off" stroke="#000000" stroke-miterlimit="10" stroke-width="0.036"/>
      <path clip-rule="evenodd" d="     M71.474,365.082c-1.62,2.916-4.788,6.084-9.648,9.647c-5.004,3.456-16.128,5.688-19.62,11.412     c-3.528,5.725-3.816,13.104-1.152,22.536c11.592-0.396,20.376-0.144,26.928,0.612c6.372,0.792,5.184,2.196,11.7,4.068     c6.516,1.728,18.144,6.191,27.504,6.731c9.324,0.396,22.752-1.512,28.08-3.78c5.112-2.34,5.436-5.939,2.917-9.684     c-2.665-3.888-10.836-9.144-18.108-12.852c-7.38-3.637-21.456-5.688-25.164-9.072c-3.708-3.528-2.592-7.524,3.204-11.988     L71.474,365.082z" fill-rule="evenodd" i:knockout="Off" stroke="#000000" stroke-miterlimit="10" stroke-width="0.036"/>
      <path clip-rule="evenodd" d="     M73.813,367.998c-0.756,2.916-2.916,5.652-7.02,8.208c-4.212,2.592-13.392,4.752-17.244,7.02c-3.78,2.16-4.248,1.944-5.292,5.868     c-1.08,3.853-1.692,9.324-1.44,16.956c10.62-1.979,19.656-2.412,27.504-1.151c7.776,1.188,11.844,6.371,19.008,8.46     c7.128,2.016,15.624,3.708,23.4,3.815c7.668-0.072,19.116-1.439,22.248-3.527c2.88-2.196-0.252-5.437-4.392-8.748     c-4.212-3.421-10.908-6.948-20.484-11.124c-2.952,3.312-5.256,4.968-7.308,4.968c-2.052,0-3.564-1.656-4.68-4.968     c-2.916,2.34-5.58,3.995-7.596,4.968c-2.16,0.899-4.932,2.664-5.004,0.864c-0.18-1.872,1.188-5.725,4.104-11.7     c-6.444,2.952-10.98,4.319-13.752,4.392c-2.88-0.18-4.68-2.844-2.916-4.392s6.012-2.88,13.176-4.393     c-8.064-0.324-12.024-1.008-12.024-2.052c0-1.152,3.96-2.52,12.024-4.392l2.052-5.257v0.001     C83.39,370.554,78.602,369.294,73.813,367.998z" fill="#C0C0C0" fill-rule="evenodd" i:knockout="Off" stroke="#000000" stroke-miterlimit="10" stroke-width="0.036"/>
      <path clip-rule="evenodd" d="     M90.194,378.546c-3.924-0.036-6.84,0.108-8.748,0.576c-2.016,0.396-4.572,1.548-2.952,2.052c1.656,0.36,5.724,0.504,12.6,0.288     C90.806,380.49,90.518,379.518,90.194,378.546z" fill="#FFFFFF" fill-rule="evenodd" i:knockout="Off" stroke="#000000" stroke-miterlimit="10" stroke-width="0.036"/>
      <path clip-rule="evenodd" d="     M89.33,383.226c-4.32,0.9-7.632,1.872-9.936,2.916c-2.484,1.044-4.32,2.628-4.104,3.24c0.216,0.36,2.664,0.396,5.544-0.288     c2.88-0.72,6.552-1.764,11.412-3.527C91.273,384.81,90.302,384.018,89.33,383.226z" fill="#FFFFFF" fill-rule="evenodd" i:knockout="Off" stroke="#000000" stroke-miterlimit="10" stroke-width="0.036"/>
      <path clip-rule="evenodd" d="     M96.638,387.906c-2.592,1.476-4.536,3.168-6.12,4.68c-1.656,1.548-3.852,4.5-3.24,4.68c0.648,0,4.644-2.556,6.732-3.779     c2.016-1.297,3.492-2.376,4.968-3.528C98.222,389.274,97.43,388.59,96.638,387.906z" fill="#FFFFFF" fill-rule="evenodd" i:knockout="Off" stroke="#000000" stroke-miterlimit="10" stroke-width="0.036"/>
      <path clip-rule="evenodd" d="     M102.794,391.146c-1.152,1.548-1.692,2.808-1.476,3.779c0.216,0.9,1.692,2.232,2.628,1.764c0.936-0.539,1.692-2.052,2.664-4.68     C105.35,391.722,104.09,391.434,102.794,391.146z" fill="#FFFFFF" fill-rule="evenodd" i:knockout="Off" stroke="#000000" stroke-miterlimit="10" stroke-width="0.036"/>
      <path clip-rule="evenodd" d="     M47.209,406.95c2.664,4.248,4.86,7.56,6.732,9.936c1.8,2.376,1.764,3.889,4.356,4.104c2.556-0.108,7.38-4.248,11.124-3.816     c3.6,0.54,7.956,5.977,10.836,6.732c2.772,0.468,3.204-3.708,6.156-3.204c2.916,0.468,7.92,4.824,11.124,6.12     c3.132,1.296,5.112,1.836,7.308,1.476c1.908-0.576,2.916-4.68,4.968-4.392c2.088,0.216,4.572,5.688,7.596,5.868     c3.024,0.035,7.416-2.557,10.26-5.005c2.664-2.483,4.608-5.651,5.832-9.647c-6.12,1.584-11.484,2.556-16.38,2.916     c-4.968,0.288-6.984,0.144-12.852-0.864c-6.084-1.008-16.56-3.78-22.536-5.256c-5.976-1.729-7.164-3.24-12.888-4.104     C62.978,406.95,55.958,406.662,47.209,406.95z" fill-rule="evenodd" i:knockout="Off" stroke="#000000" stroke-miterlimit="10" stroke-width="0.036"/>
      <path clip-rule="evenodd" d="     M91.094,222.594c1.08,4.5,1.224,9.576,0.576,15.229c-0.828,5.58-4.608,12.744-4.68,18.432c-0.036,5.616,1.332,11.304,4.68,15.12     c3.312,3.708,10.512,2.376,15.228,7.092c4.608,4.681,11.34,14.652,12.276,20.772c0.792,5.903-2.34,9.359-7.308,15.228     c-5.148,5.76-14.004,12.528-22.536,19.62c-8.64,7.021-23.004,17.424-28.08,22.464c-5.076,4.896-4.176,4.824-1.764,7.021     c2.412,2.016,10.872,2.987,16.092,5.832c5.004,2.916,9.684,10.332,14.616,11.412c4.932,0.899,6.444,2.987,15.228-5.545     c8.748-8.819,27.756-36.216,37.151-45.647c9.217-9.288,15.193-5.58,18.469-9.972c3.061-4.536,2.232-9.864,0.863-16.956     c-1.367-7.236-4.248-15.624-8.783-25.74c9.217,10.008,15.229,18.899,18.432,27.504c3.096,8.388,2.916,11.7,0.289,23.112     c-2.773,11.52-15.264,36.216-16.381,44.783c-1.188,8.316,2.16,4.788,9.648,5.257c7.596,0.359,29.305,0.504,35.137-2.628     c5.471-3.168-1.873-8.389-1.477-16.093c0.324-7.956,2.52-20.231,3.816-30.456c1.15-10.26,6.156-20.304,3.492-30.42     c-2.701-10.296-13.393-20.483-19.584-30.132c-6.301-9.756-13.645-19.476-17.857-26.928c-4.283-7.344-6.768-12.96-7.596-16.992     C137.75,223.53,114.422,223.062,91.094,222.594z" fill-rule="evenodd" i:knockout="Off" stroke="#000000" stroke-miterlimit="10" stroke-width="0.036"/>
      <path clip-rule="evenodd" d="     M71.654,105.882c-3.924,0.612-8.064,1.224-12.96,1.692c-4.968,0.432-10.908,0.972-16.02,1.224     c-5.148,0.18-10.404-0.972-14.22,0.288c-3.996,1.116-8.1,2.808-8.712,7.02c-0.576,4.14,1.26,10.044,5.508,17.856     c-0.288,8.208-0.036,15.444,0.468,22.14c0.468,6.66,0.504,12.384,2.736,17.568c2.304,5.076,5.688,9.252,10.692,12.672l3.96,5.328     c-1.548,2.196-2.808,4.752-3.636,7.956c-0.9,3.204-2.34,7.092-1.548,10.836c0.72,3.636,3.78,9.54,6.264,10.62     c2.484,0.936,5.256-0.9,8.46-5.22c4.428,3.6,7.848,5.652,10.404,6.012c2.484,0.324,4.032-0.9,4.644-3.816     c1.008-2.124,3.276-3.528,6.804-4.356c3.528-0.864,8.172-1.008,14.22-0.576c-0.792,2.484-1.836,4.68-2.988,6.588     c-1.332,1.8-3.672,3.168-4.104,4.644c-0.396,1.404,0.432,1.008,1.908,3.816c1.368,2.664,3.6,6.769,6.552,12.313     c5.22-4.5,14.004-7.416,26.784-8.748c12.744-1.404,28.943-1.225,49.176,0.54c0.756-1.801,1.404-3.168,1.656-4.393     c0.252-1.188,0.252-2.088,0-2.7c2.16,5.473,4.932,10.44,8.461,15.301c3.527,4.823,8.963,10.728,12.563,13.392     c3.457,2.521,6.336,3.204,8.496,1.908l3.816,3.275c-1.295,2.521-1.477,4.213-0.539,5.473c0.898,1.116,5.219,0.036,6.012,1.62     c0.646,1.548-1.332,5.256-1.908,7.92c-0.613,2.628-2.088,5.688-1.656,7.668c0.324,1.872,1.871,4.032,3.816,3.563     c1.799-0.575,4.176-2.808,7.127-6.84c1.332,4.068,2.701,5.796,4.105,5.185c1.402-0.721,2.627-3.601,4.066-9.036     c2.773,2.34,5.148,3.348,7.129,3.023c1.908-0.359,4.428-2.376,4.645-4.932c0.143-2.556-1.045-6.012-3.564-10.368     c5.904,5.328,10.188,8.424,13.393,9.288c2.986,0.72,5.363-1.584,5.184-4.392c-0.324-2.881-2.377-6.841-6.553-12.276     c5.688-2.052,9.145-4.32,10.656-7.092c1.439-2.809,0.936-8.46-1.908-9.324c-2.951-0.937-10.547,3.96-15.299,3.852     c-4.861-0.359-10.297-4.176-13.393-4.932c-3.096-0.72-4.824-0.396-5.184,0.828l-2.736-3.564c2.34-2.34,2.484-5.256,0.287-8.748     c-2.34-3.636-7.271-6.479-13.391-12.275c-6.229-5.94-17.496-15.084-22.969-22.428c-5.4-7.38-7.201-14.112-9.289-21.312     c-2.088-7.344-1.547-16.164-3.814-21.6c-2.592-5.472-6.014-8.892-10.945-10.656l-1.367-8.712l-13.104,2.16l-13.681-8.748     l-10.656,0.288h0c-3.06-2.52-6.336-4.932-10.116-7.38c-3.744-2.484-6.732-5.544-12.276-7.092     C87.386,106.674,80.366,105.846,71.654,105.882z M68.882,154.482c4.86,1.584,8.496,2.736,11.052,3.312     c2.592,0.576,3.78,0.684,4.104,0.324c2.592,2.232,4.356,4.464,5.688,7.236c1.26,2.664,1.836,5.508,1.872,8.676     c-2.664-1.548-5.076-2.592-7.236-3.132c-2.196-0.612-4.14-0.576-5.832-0.18c-0.576-0.972-1.476-1.764-2.844-2.52     c-1.368-0.756-3.06-1.44-5.22-2.052c-0.432-1.692-0.648-3.384-0.936-5.364C69.242,158.766,69.026,156.714,68.882,154.482z      M160.393,202.866c-0.971,1.224-1.404,2.232-1.584,3.456c-0.287,1.08-0.072,1.908,0.648,3.312     c0.684,1.332,1.943,2.808,3.779,4.572c-0.863-2.232-1.402-4.284-1.906-6.156C160.79,206.142,160.573,204.414,160.393,202.866z      M91.67,187.422c-1.332,0.504-2.592,0.828-3.924,0.972c-1.44,0.144-2.664,0.036-4.104-0.18c-1.62,1.296-2.772,2.916-3.312,4.572     c-0.612,1.62-0.72,3.564-0.324,5.544c1.116-0.648,2.592-1.116,4.428-1.26c1.872-0.18,3.888-0.036,6.444,0.288     C91.13,194.046,91.382,190.734,91.67,187.422z" fill-rule="evenodd" i:knockout="Off" stroke="#000000" stroke-miterlimit="10" stroke-width="0.036"/>
      <path clip-rule="evenodd" d="     M44.293,193.578c-1.872,3.276-2.772,6.912-2.988,10.908c-0.18,4.068,0.504,10.548,1.908,12.924     c1.332,2.124,4.536,0.936,6.12,0.324c1.512-0.648,2.52-2.016,3.024-4.104c-0.972-2.484-1.872-5.436-2.556-9     c-0.756-3.636-1.332-7.74-1.728-12.456C46.813,192.642,45.554,193.11,44.293,193.578z" fill="#E2B79C" fill-rule="evenodd" i:knockout="Off" stroke="#000000" stroke-miterlimit="10" stroke-width="0.036"/>
      <path clip-rule="evenodd" d="     M49.802,192.642c-0.396,1.512,0.072,3.996,1.116,7.884c1.188,3.78,2.844,11.772,5.364,14.832c2.34,2.844,6.48,3.888,8.532,3.132     c1.908-0.828,2.952-4.14,2.988-7.56c-0.036-3.564-1.404-9.072-2.988-13.068c-1.62-4.032-3.78-7.416-6.624-10.584     c-1.908-0.576-3.492-0.468-4.896,0.468C51.854,188.646,50.738,190.23,49.802,192.642z" fill="#E2B79C" fill-rule="evenodd" i:knockout="Off" stroke="#000000" stroke-miterlimit="10" stroke-width="0.036"/>
      <path clip-rule="evenodd" d="     M69.674,213.45c1.8-1.296,4.536-1.98,8.064-2.196c3.528-0.288,10.152,1.548,13.068,0.792c2.772-0.828,3.708-3.6,3.636-5.544     c-0.18-2.052-1.404-5.4-4.248-6.3c-2.916-0.936-7.128-0.468-12.924,1.116c-0.396-3.348-0.396-5.832,0-7.74     c0.324-1.908,1.152-3.06,2.34-3.6c-1.368-0.72-2.844-0.936-4.572-0.792c-1.764,0.108-3.708,0.684-5.832,1.728     c1.008,0.144,1.116-0.756,0.324-2.7c-0.9-2.16-5.544-8.496-5.04-9.144c0.396-0.54,5.112,4.464,7.884,5.688     c2.772,1.008,6.768,1.872,8.496,0.792c1.548-1.152,2.664-4.32,0.972-7.272c-1.872-3.096-8.64-9.756-11.7-10.692     c-3.132-0.936-5.184,3.564-6.588,5.04c-1.476,1.332-2.268,2.376-2.232,3.132c-0.108,1.764-0.36,3.636-0.612,5.22     c-0.324,1.548-0.648,3.204-1.116,4.572c2.52,4.032,4.572,7.668,6.3,11.052c1.656,3.276,3.096,6.12,3.78,8.964     C70.286,208.338,70.286,210.966,69.674,213.45z" fill="#E2B79C" fill-rule="evenodd" i:knockout="Off" stroke="#000000" stroke-miterlimit="10" stroke-width="0.036"/>
      <path clip-rule="evenodd" d="     M81.986,174.21c4.536,1.332,7.488,2.808,9.144,4.572c1.476,1.764,1.584,4.68,0.468,5.832c-1.08,1.044-3.492,1.044-7.092,0.288     c1.008-2.016,1.368-3.852,0.936-5.652C85.01,177.378,83.858,175.83,81.986,174.21z" fill="#E2B79C" fill-rule="evenodd" i:knockout="Off" stroke="#000000" stroke-miterlimit="10" stroke-width="0.036"/>
      <path clip-rule="evenodd" d="     M224.977,253.518c2.629-0.72,5.473-1.151,8.965-1.439c3.385-0.288,8.604,0.252,11.375-0.324c2.664-0.792,3.961-1.944,4.861-3.6     c0.756-1.584,0.863-4.933,0.18-6.013c-0.793-1.151-1.98-1.332-4.248-0.936c-2.34,0.288-6.373,2.628-9.18,2.844     c-2.844,0.036-4.393-1.296-7.705-1.908c-3.42-0.647-7.523-1.08-12.455-1.584c-1.549,3.097-3.348,6.156-5.545,9.181     c-2.268,3.023-4.787,5.867-7.703,8.819c-0.721,1.188-1.188,2.089-1.117,2.845c-0.07,0.54,0.252,1.008,1.117,1.403     c0.973,0.288,3.455,0.288,4.248,1.116c0.576,0.792,0.145,1.584-0.324,3.924c-0.541,2.376-2.305,7.164-2.52,9.792     c-0.396,2.376-0.072,4.896,0.971,5.04c1.045,0.072,4.033-2.592,5.652-4.248c1.621-1.691,3.023-3.42,3.781-6.012     c0.611-2.7,0.611-6.012,0-9.936c0.539-1.297,1.691-2.664,3.311-4.104C220.19,256.83,222.35,255.21,224.977,253.518z" fill="#E2B79C" fill-rule="evenodd" i:knockout="Off" stroke="#000000" stroke-miterlimit="10" stroke-width="0.036"/>
      <path clip-rule="evenodd" d="     M226.85,255.858c0.684,0.899,2.412,2.376,5.039,4.571c2.592,2.053,8.209,7.38,10.729,8.208c2.484,0.756,4.969-1.044,4.104-3.456     c-1.008-2.556-4.176-6.3-9.791-11.52c-2.809-0.396-5.113-0.396-6.768,0C228.506,254.058,227.354,254.742,226.85,255.858z" fill="#E2B79C" fill-rule="evenodd" i:knockout="Off" stroke="#000000" stroke-miterlimit="10" stroke-width="0.036"/>
      <path clip-rule="evenodd" d="     M222.422,258.558c1.619,0.469,4.752,2.521,6.336,5.04c1.404,2.376,3.168,7.524,2.664,9.469c-0.613,1.836-3.602,2.592-5.508,1.728     c-1.873-0.972-4.609-4.968-5.689-7.272c-1.188-2.447-1.656-5.22-1.26-6.768C219.327,259.206,220.657,258.018,222.422,258.558z" fill="#E2B79C" fill-rule="evenodd" i:knockout="Off" stroke="#000000" stroke-miterlimit="10" stroke-width="0.036"/>
      <path clip-rule="evenodd" d="     M217.381,266.442c0.973,2.987,1.656,5.508,2.053,7.704c0.287,2.159,0.287,3.852,0,5.22c-0.469,1.368-1.621,2.808-2.34,2.52     c-0.721-0.396-1.404-2.124-1.908-5.04c0.756-1.008,1.332-2.376,1.729-4.104C217.202,270.942,217.489,268.89,217.381,266.442z" fill="#E2B79C" fill-rule="evenodd" i:knockout="Off" stroke="#000000" stroke-miterlimit="10" stroke-width="0.036"/>
      <path clip-rule="evenodd" d="     M199.094,253.05l2.988,3.132c0.574-0.611,0.971-1.188,1.584-1.584c0.576-0.504,0.971-0.863,1.584-1.08l-4.248-3.491     C200.389,251.034,199.743,252.042,199.094,253.05z" fill="#C27EBC" fill-rule="evenodd" i:knockout="Off" stroke="#000000" stroke-miterlimit="10" stroke-width="0.036"/>
      <path clip-rule="evenodd" d="     M203.342,247.974l2.844,2.7l3.313-2.988l-3.781-2.699L203.342,247.974z" fill="#C27EBC" fill-rule="evenodd" i:knockout="Off" stroke="#000000" stroke-miterlimit="10" stroke-width="0.036"/>
      <path clip-rule="evenodd" d="     M207.301,242.466l4.248,2.988l1.584-3.132l-4.104-2.232L207.301,242.466z" fill="#C27EBC" fill-rule="evenodd" i:knockout="Off" stroke="#000000" stroke-miterlimit="10" stroke-width="0.036"/>
      <path clip-rule="evenodd" d="     M211.225,238.362l3.168,2.195l1.441-2.195l-2.232-2.845L211.225,238.362z" fill="#C27EBC" fill-rule="evenodd" i:knockout="Off" stroke="#000000" stroke-miterlimit="10" stroke-width="0.036"/>
      <path clip-rule="evenodd" d="     M198.77,247.686c3.6-3.06,6.264-6.012,8.387-9c1.98-3.023,3.889-6.012,3.926-8.819c-0.109-2.916-0.648-4.356-4.105-8.208     c-3.6-4.032-11.627-10.008-16.848-15.156c-5.291-5.184-10.404-9.828-14.363-15.444c-3.996-5.724-7.092-11.772-9.289-18.432     c0.469,2.556,0.613,5.58,0.289,9.468c-0.432,3.852-1.439,10.08-2.197,13.392c-0.756,3.096-1.691,4.932-2.52,5.508     c2.197,7.74,4.248,13.968,6.156,19.224c1.873,5.076,2.447,7.021,5.184,11.521c2.629,4.536,7.453,11.628,10.584,15.3     c2.988,3.384,4.861,5.364,7.416,5.508C193.874,252.618,196.286,250.998,198.77,247.686z" fill="#C27EBC" fill-rule="evenodd" i:knockout="Off" stroke="#000000" stroke-miterlimit="10" stroke-width="0.036"/>
      <path clip-rule="evenodd" d="     M88.897,231.414l2.664,5.544l3.96-1.44l-2.232-5.832L88.897,231.414z" fill="#C27EBC" fill-rule="evenodd" i:knockout="Off" stroke="#000000" stroke-miterlimit="10" stroke-width="0.036"/>
      <path clip-rule="evenodd" d="     M95.342,229.866l2.052,4.104l4.248-1.296l-2.196-5.328L95.342,229.866z" fill="#C27EBC" fill-rule="evenodd" i:knockout="Off" stroke="#000000" stroke-miterlimit="10" stroke-width="0.036"/>
      <path clip-rule="evenodd" d="     M101.642,227.49l3.168,4.896l2.844-0.792l-0.324-5.363L101.642,227.49z" fill="#C27EBC" fill-rule="evenodd" i:knockout="Off" stroke="#000000" stroke-miterlimit="10" stroke-width="0.036"/>
      <path clip-rule="evenodd" d="     M110.966,226.23v4.247l4.104-0.611v-4.284L110.966,226.23z" fill="#C27EBC" fill-rule="evenodd" i:knockout="Off" stroke="#000000" stroke-miterlimit="10" stroke-width="0.036"/>
      <path clip-rule="evenodd" d="     M117.338,223.782l0.612,6.12h4.176l-0.036-6.229L117.338,223.782z" fill="#C27EBC" fill-rule="evenodd" i:knockout="Off" stroke="#000000" stroke-miterlimit="10" stroke-width="0.036"/>
      <path clip-rule="evenodd" d="     M138.866,222.666l0.145,6.12l4.176,0.36l0.396-6.229L138.866,222.666z" fill="#C27EBC" fill-rule="evenodd" i:knockout="Off" stroke="#000000" stroke-miterlimit="10" stroke-width="0.036"/>
      <path clip-rule="evenodd" d="     M124.322,223.746l0.18,4.572l4.392,0.611l0.216-5.796L124.322,223.746z" fill="#C27EBC" fill-rule="evenodd" i:knockout="Off" stroke="#000000" stroke-miterlimit="10" stroke-width="0.036"/>
      <path clip-rule="evenodd" d="     M131.486,222.486l0.936,5.76l2.916,0.396l1.872-5.04L131.486,222.486z" fill="#C27EBC" fill-rule="evenodd" i:knockout="Off" stroke="#000000" stroke-miterlimit="10" stroke-width="0.036"/>
      <path clip-rule="evenodd" d="     M146.209,222.81l-0.324,6.12l4.141,0.648l0.863-6.156L146.209,222.81z" fill="#C27EBC" fill-rule="evenodd" i:knockout="Off" stroke="#000000" stroke-miterlimit="10" stroke-width="0.036"/>
      <path clip-rule="evenodd" d="     M152.653,223.278l-0.287,6.121l4.104,0.647l0.9-6.156L152.653,223.278z" fill="#C27EBC" fill-rule="evenodd" i:knockout="Off" stroke="#000000" stroke-miterlimit="10" stroke-width="0.036"/>
      <path clip-rule="evenodd" d="     M159.458,223.89l-0.324,6.156l4.141,0.648l0.863-6.156L159.458,223.89z" fill="#C27EBC" fill-rule="evenodd" i:knockout="Off" stroke="#000000" stroke-miterlimit="10" stroke-width="0.036"/>
      <path clip-rule="evenodd" d="     M90.77,213.774c-0.576,1.656-1.368,3.24-2.52,4.896c-1.26,1.548-3.924,2.988-4.248,4.86c-0.324,1.764,0.612,3.816,2.664,6.012     c6.732-2.628,12.708-4.392,18.468-5.688c5.652-1.296,10.008-1.368,15.444-1.872c5.292-0.72,9.432-1.476,16.704-1.44     c7.236,0.072,16.02,0.756,26.641,2.052c0.359-1.152,0-2.52-0.938-4.248c-1.043-1.692-3.6-4.068-4.895-6.012     c-1.441-2.052-3.025-3.672-2.809-6.12c0.252-2.592,2.592-4.428,4.248-8.856c1.549-4.608,4.428-13.464,5.039-17.964     c0.434-4.572-0.432-5.292-1.906-8.82c-1.621-3.636-6.518-10.692-6.912-12.132c-0.396-1.368,4.463,4.608,4.859,3.924     c0.287-0.864-2.916-7.956-2.664-8.496c0.324-0.468,2.988,4.14,4.248,5.508c1.152,1.26,1.801,1.8,2.34,1.908     c0.539-5.22-0.145-9.468-2.053-13.176c-1.979-3.708-5.076-6.624-9.432-8.748c-1.584,0.648-3.313,1.332-5.039,2.196     c-1.908,0.756-2.629,3.492-5.508,2.664c-2.846-0.972-6.733-3.456-11.521-7.884c-2.376,1.98-4.896,4.14-7.416,6.48     c-2.664,2.34-5.112,4.86-7.884,7.56c0-3.492-0.216-7.38-0.936-11.664c-0.648-4.356-1.8-9.036-3.168-14.184     c-4.212-5.22-9.432-9.216-15.804-11.844c-6.444-2.736-14.508-3.924-22.536-4.248c-8.28-0.324-21.384,1.188-25.704,2.052     c-4.248,0.756,1.548,1.728,0.468,2.376c-1.26,0.504-5.076,0.936-7.416,0.612c-2.448-0.54-3.636-3.204-6.624-2.988     c-3.204,0.216-9.756,1.692-11.34,4.428c-1.44,2.664,1.116,8.352,2.376,11.664c1.116,3.204,2.484,5.724,4.248,7.56     c-1.476,5.004-2.16,10.476-1.908,16.56c0.216,6.012,1.08,14.472,3.024,19.692c1.836,5.22,4.464,8.964,8.028,11.52     c2.628-2.736,5.58-4.788,9.288-6.156c3.636-1.404,7.596-2.232,12.312-2.34c0.432-0.9,1.224-2.052,2.52-3.312     c1.296-1.404,2.844-2.7,5.04-4.428c-0.972-2.844-1.548-5.832-1.872-8.82c-0.36-3.132,0.468-5.688,0-9.324     c-0.576-3.744-1.404-8.208-3.312-12.276c-2.052-4.068-8.208-11.304-8.208-11.844c-0.036-0.54,7.236,8.46,8.352,8.676     c1.08,0.036-2.412-7.92-1.728-7.884c0.684-0.108,3.996,3.672,5.364,7.884c1.152,4.212,1.728,9.9,1.728,17.208     c2.232,2.196,4.86,3.672,7.884,4.716c2.952,0.9,5.724,1.692,10.26,1.116c4.464-0.648,14.04-4.644,16.38-4.752     c2.124-0.18-0.864,2.376-3.132,3.78c-2.304,1.26-5.724,2.628-10.404,3.96c2.34,2.952,5.004,5.148,7.704,6.3     c2.664,1.116,8.424,0.36,8.676,0.792c0.108,0.396-5.328,1.764-7.416,1.872c-2.088,0-3.816-0.576-5.04-1.728     c0.072,1.548,0.18,3.132,0.324,4.752c0.072,1.584,0.18,3.204,0.324,4.86c1.368,1.188,2.196,2.772,2.196,4.752     c0,2.016-0.684,4.284-2.052,7.092l-0.144,11.052c2.088,2.88,3.528,5.292,3.924,7.236c0.324,1.872-0.144,2.772-1.26,4.248     C94.946,210.858,93.218,212.154,90.77,213.774z" fill="#C27EBC" fill-rule="evenodd" i:knockout="Off" stroke="#000000" stroke-miterlimit="10" stroke-width="0.036"/>
      <path clip-rule="evenodd" d="     M116.114,200.994c5.112-1.656,9.324-4.284,12.636-8.028c3.312-3.852,5.58-8.46,7.092-14.364     c-0.324,6.84-1.224,12.276-2.844,16.74c-1.692,4.32-6.552,9.36-6.948,9.432c-0.54,0,4.86-8.604,4.104-9.144     c-0.972-0.54-6.372,4.5-8.82,5.544C118.922,202.074,117.229,201.966,116.114,200.994z" fill-rule="evenodd" i:knockout="Off" stroke="#000000" stroke-miterlimit="10" stroke-width="0.036"/>
      <path clip-rule="evenodd" d="     M126.374,124.062c-1.872-0.072-3.816,0.036-5.832,0.324c-2.088,0.288-4.248,0.612-6.48,1.26c1.368,2.628,2.376,5.616,3.024,8.964     c0.612,3.348,0.864,6.84,0.756,10.872c1.008-2.376,2.556-4.536,5.076-6.624c2.412-2.196,5.508-3.96,9.432-5.832     C130.37,130.038,128.39,127.05,126.374,124.062z" fill="#C27EBC" fill-rule="evenodd" i:knockout="Off" stroke="#000000" stroke-miterlimit="10" stroke-width="0.036"/>
      <path clip-rule="evenodd" d="     M150.637,131.154l-17.027,3.636c3.492,4.068,6.336,6.48,8.389,7.236c2.051,0.72,2.303-2.124,4.066-2.844     c1.729-0.756,3.602-1.332,6.014-1.728C151.61,135.366,151.141,133.278,150.637,131.154z" fill="#C27EBC" fill-rule="evenodd" i:knockout="Off" stroke="#000000" stroke-miterlimit="10" stroke-width="0.036"/>
      <path clip-rule="evenodd" d="     M39.974,183.138l4.392,6.624c0.468-0.504,0.9-0.792,1.44-1.26c0.468-0.504,1.044-0.792,1.584-1.26l-4.104-6.624     C42.206,181.446,41.09,182.274,39.974,183.138z" fill="#C27EBC" fill-rule="evenodd" i:knockout="Off" stroke="#000000" stroke-miterlimit="10" stroke-width="0.036"/>
      <path clip-rule="evenodd" d="     M45.59,179.214l3.168,7.308c0.504-0.288,1.044-0.756,1.62-1.008c0.576-0.36,1.116-0.684,1.764-0.972l-2.844-7.236     C48.074,177.918,46.85,178.566,45.59,179.214z" fill="#C27EBC" fill-rule="evenodd" i:knockout="Off" stroke="#000000" stroke-miterlimit="10" stroke-width="0.036"/>
      <path clip-rule="evenodd" d="     M52.07,176.658l1.944,7.704c0.504-0.18,1.08-0.54,1.728-0.684c0.576-0.18,1.26-0.54,1.908-0.684l-1.62-7.596     C54.734,175.794,53.402,176.226,52.07,176.658z" fill="#C27EBC" fill-rule="evenodd" i:knockout="Off" stroke="#000000" stroke-miterlimit="10" stroke-width="0.036"/>
      <path clip-rule="evenodd" d="     M93.65,110.814c-2.268-0.288-4.5-0.72-6.696-1.44c-2.232-0.756-4.428-1.692-6.588-2.808c-3.132,0.72-5.616,0.612-7.596-0.18     c-2.088-0.9-3.6-1.332-4.248-4.788c-0.72-3.492-3.276-7.56,0.54-15.948c3.924-8.568,12.384-22.032,22.32-34.704     c9.792-12.852,26.496-33.408,36.108-41.112c9.54-7.596,16.272-8.964,20.735-4.248c4.824-4.392,9.686-6.228,14.869-5.508     c5.184,0.648,10.764,1.44,15.768,9.576c4.824,8.208,10.871,22.392,13.283,38.808c2.27,16.344,2.34,43.92,0.361,58.284     c-2.088,14.112-5.941,22.356-12.385,26.532c-6.48,4.068-15.119,3.348-26.207-2.16c-4.789,0.864-8.174,1.872-10.297,3.024     c-2.16,1.044-1.691,3.204-2.484,3.708c-0.9,0.432,0.145,1.332-2.844-1.044c-3.096-2.592-8.244-7.02-15.588-13.824     c-3.528,1.692-7.308,1.584-11.484-0.18c-4.248-1.836-8.748-5.436-13.644-10.8C96.278,111.606,94.981,111.21,93.65,110.814z" fill-rule="evenodd" i:knockout="Off" stroke="#000000" stroke-miterlimit="10" stroke-width="0.036"/>
      <path clip-rule="evenodd" d="     M77.738,92.346c-1.08,1.477-1.692,3.24-1.44,5.292c0.144,2.016,0.972,4.32,2.484,6.912c-3.24,1.332-5.544,0.792-6.912-1.764     c-1.404-2.628-4.788-5.688-1.404-13.464c3.348-8.028,11.772-20.88,21.24-33.3c9.504-12.528,25.668-32.148,34.74-40.392     c8.712-8.1,13.535-9.036,18.072-8.496c4.5,0.396,9,5.616,9.215,10.8c0.072,5.148-4.5,12.132-8.172,19.836     c-3.887,7.668-9.792,17.388-13.823,25.704c-4.068,8.208-7.632,16.848-9.72,22.86c-2.088,5.832-2.916,8.172-2.484,12.024     c0.324,3.78,2.304,8.424,4.968,10.62c2.592,2.088,6.192,2.7,10.8,1.98c-2.592,3.312-5.292,5.796-8.496,7.596     c-3.312,1.8-6.948,3.348-10.476,2.844c-3.6-0.684-7.344-3.06-10.26-6.732c-2.88-3.78-5.184-9.036-6.912-15.768     c-0.36,3.816-1.116,6.372-2.124,7.956c-1.044,1.476-2.088,1.512-4.248,1.08c-2.268-0.576-6.768-1.476-9.216-4.068     C80.942,101.202,79.178,97.458,77.738,92.346z" fill="#EDEF01" fill-rule="evenodd" i:knockout="Off" stroke="#000000" stroke-miterlimit="10" stroke-width="0.036"/>
      <path clip-rule="evenodd" d="     M163.274,123.162c2.16-2.7,4.176-6.372,6.047-11.16c1.801-4.824,3.926-12.096,5.113-17.532c1.115-5.58,1.764-10.62,1.799-15.408     c3.42-2.232,5.293-4.608,5.473-7.272c0.18-2.7-1.295-5.544-4.428-8.676l0.721-6.552c1.26-1.26,1.799-3.276,1.764-6.192     c-0.145-3.024-1.836-8.172-2.305-11.16c-0.576-2.952-0.828-5.076-0.9-6.372c-4.932-2.196-8.676-4.392-11.664-6.732     c-2.951-2.376-4.967-4.644-6.047-7.092c0.504-2.988-0.037-5.472-1.225-7.452c-1.295-2.088-3.42-3.528-6.371-4.608     c2.23-2.664,5.076-3.996,8.676-3.852c3.563,0,8.639,0.18,12.744,4.428c4.031,4.248,8.279,10.944,11.34,20.916     c3.023,9.9,5.436,26.28,6.551,37.908c0.973,11.412,0.324,20.592-0.539,30.456c-0.9,9.72-2.232,21.708-5.111,27.648     c-3.098,5.796-8.965,7.38-12.602,7.236C168.637,131.478,165.721,128.634,163.274,123.162z" fill="#EDEF01" fill-rule="evenodd" i:knockout="Off" stroke="#000000" stroke-miterlimit="10" stroke-width="0.036"/>
      <path clip-rule="evenodd" d="     M161.331,125.826c0.395,1.224,1.295,2.52,2.844,3.888c1.512,1.332,3.527,2.7,6.191,4.248c-4.355-0.432-7.561-0.972-9.756-1.764     c-2.232-0.792-3.457-1.692-3.527-2.844C158.485,128.202,159.889,127.014,161.331,125.826z" fill="#EDEF01" fill-rule="evenodd" i:knockout="Off" stroke="#000000" stroke-miterlimit="10" stroke-width="0.036"/>
      <path clip-rule="evenodd" d="     M127.13,121.938c0.864,1.98,2.232,3.816,4.104,5.652c1.836,1.8,4.32,4.392,7.056,5.148c2.664,0.54,6.084-0.144,8.893-1.08     c2.736-0.972,5.4-2.448,7.416-4.428c1.871-2.124,3.924-6.516,4.068-7.776c0.107-1.26-1.117-0.972-3.529,0.18     c-2.52,1.08-9.863,5.688-11.34,6.192c-1.656,0.288-0.504-1.548,1.943-3.564c2.412-2.052,9.721-7.74,12.602-8.316     c2.736-0.576,4.139,0.972,4.068,4.788c1.906-2.412,3.672-5.58,5.291-9.936c1.619-4.464,3.313-11.16,4.248-15.912     c0.863-4.752,1.115-8.784,0.9-12.24c-3.061,0.18-5.725-0.072-8.137-0.9c-2.52-0.936-5.795-3.06-6.371-3.888     c-0.648-0.756-0.324-1.044,2.627-0.864c2.844,0,11.736,1.548,14.725,1.044c2.844-0.684,2.809-2.484,2.809-4.428     c-0.145-1.944-1.189-4.896-2.988-6.912c-1.801-2.124-5.76-2.916-7.453-5.292c-1.836-2.556-3.023-5.904-2.988-9.216     c-0.107-3.384,1.766-8.244,2.988-10.296c1.225-2.052,2.881-2.304,4.428-1.584c1.441,0.648,2.701,2.592,4.068,5.688     c0.037-1.332-0.072-2.808-0.324-4.428c-0.322-1.692-0.756-3.528-1.439-5.508c-3.816-1.476-7.092-3.204-10.26-5.328     c-3.133-2.124-6.012-4.644-8.496-7.416c-1.549,3.132-3.527,7.236-6.229,12.744c-2.771,5.436-6.191,12.816-9.719,19.656     c-3.529,6.732-8.317,13.716-11.161,20.376c-3.06,6.516-5.364,13.464-6.228,18.612c-0.792,5.112,0.252,9,1.62,11.664     c1.296,2.52,3.492,3.06,6.012,3.564c2.448,0.36,5.292,0,8.677-1.08c-0.721,3.816-2.125,6.768-4.068,9.396     C132.926,118.734,130.37,120.678,127.13,121.938z" fill="#E2B79C" fill-rule="evenodd" i:knockout="Off" stroke="#000000" stroke-miterlimit="10" stroke-width="0.036"/>
      <path clip-rule="evenodd" d="     M169.321,56.922c-1.547-0.864-2.23-2.412-2.482-4.788c-0.217-2.448,0.324-7.38,1.223-9.396c0.828-2.088,2.34-3.168,3.709-2.844     c1.295,0.288,2.879,2.52,3.924,4.608c0.9,2.016,2.088,5.328,1.764,7.452c-0.287,2.052-1.619,3.492-3.707,4.608     c0.898-2.16,1.188-3.816,0.863-4.968c-0.469-1.224-2.016-2.304-2.988-2.124c-1.008,0.108-2.268,1.512-2.664,2.844     C168.565,53.502,168.637,55.086,169.321,56.922z" fill="#FFFFFF" fill-rule="evenodd" i:knockout="Off" stroke="#000000" stroke-miterlimit="10" stroke-width="0.036"/>
      <path clip-rule="evenodd" d="     M171.625,52.134c-0.432,0.036-0.721,1.08-0.721,1.584c-0.107,0.324-0.035,0.9,0.361,0.9c0.287-0.18,1.656-0.792,1.764-1.26     C172.958,52.89,172.022,52.026,171.625,52.134z" fill="#FFFFFF" fill-rule="evenodd" i:knockout="Off" stroke="#000000" stroke-miterlimit="10" stroke-width="0.036"/>
      <path clip-rule="evenodd" d="     M176.557,57.606c-1.332,0.396-2.375,0.864-2.988,1.26c-0.684,0.324-0.936,0.72-0.898,1.044l3.023,1.98     C175.981,60.486,176.27,59.046,176.557,57.606z" fill="#E2B79C" fill-rule="evenodd" i:knockout="Off" stroke="#000000" stroke-miterlimit="10" stroke-width="0.036"/>
      <path clip-rule="evenodd" d="     M160.969,36.726c-3.348,1.332-6.408,3.564-9.035,7.092c-2.809,3.42-5.617,9.576-6.912,13.608     c-1.439,3.924-2.053,7.884-0.865,9.936c1.225,1.98,3.889,2.52,8.137,1.764c-3.707,2.088-6.588,2.628-8.496,1.62     c-1.98-1.044-3.635-3.492-3.168-7.632c0.396-4.32,3.637-13.608,5.832-17.712c2.125-4.176,4.428-5.508,6.912-6.912     C155.786,37.086,158.27,36.366,160.969,36.726z" fill-rule="evenodd" i:knockout="Off" stroke="#000000" stroke-miterlimit="10" stroke-width="0.036"/>
      <path clip-rule="evenodd" d="     M157.262,51.054c-1.26,0.468-3.672,4.068-3.348,5.508c0.215,1.404,3.707,3.276,4.932,2.844c1.043-0.756,2.195-4.536,1.943-6.048     C160.465,51.882,158.415,50.514,157.262,51.054z" fill-rule="evenodd" i:knockout="Off" stroke="#000000" stroke-miterlimit="10" stroke-width="0.036"/>
      <path clip-rule="evenodd" d="     M157.442,54.978c-0.432,0.036-0.721,1.08-0.721,1.584c-0.107,0.324-0.035,0.9,0.361,0.9c0.287-0.18,1.654-0.792,1.764-1.26     C158.774,55.734,157.838,54.87,157.442,54.978z" fill="#FFFFFF" fill-rule="evenodd" i:knockout="Off" stroke="#000000" stroke-miterlimit="10" stroke-width="0.036"/>
      <path clip-rule="evenodd" d="     M63.554,75.822c-3.024-6.732-2.16-14.4,3.132-23.688c5.184-9.288,14.436-19.656,27.9-31.536     c-12.132,7.92-20.88,15.624-26.82,23.652c-5.868,7.992-7.848,18.252-8.424,23.688C58.622,73.194,60.026,75.822,63.554,75.822z" fill-rule="evenodd" i:knockout="Off" stroke="#000000" stroke-miterlimit="10" stroke-width="0.036"/>
      <path clip-rule="evenodd" d="     M48.83,74.238c-3.024-6.732-2.16-14.4,3.132-23.688c5.184-9.288,14.436-19.656,27.9-31.536     c-12.132,7.92-20.88,15.624-26.82,23.652c-5.868,7.992-7.848,18.252-8.424,23.688C43.897,71.61,45.302,74.238,48.83,74.238z" fill-rule="evenodd" i:knockout="Off" stroke="#000000" stroke-miterlimit="10" stroke-width="0.036"/>
      <path clip-rule="evenodd" d="     M17.258,159.45c-3.96-2.988-6.192-8.46-6.84-16.848c-0.684-8.46,0.468-19.224,3.168-33.12     c-3.132,11.268-4.968,20.376-5.796,27.864c-0.792,7.308-0.576,12.564,1.044,16.308C10.382,157.29,13.189,159.27,17.258,159.45z" fill-rule="evenodd" i:knockout="Off" stroke="#000000" stroke-miterlimit="10" stroke-width="0.036"/>
      <path clip-rule="evenodd" d="     M9.878,168.378c-3.96-2.88-6.192-8.532-6.84-16.812c-0.684-8.424,0.468-19.332,3.168-33.156     c-3.132,11.34-4.968,20.412-5.796,27.9c-0.792,7.308-0.612,12.564,1.08,16.308C3.038,166.29,5.882,168.162,9.878,168.378z" fill-rule="evenodd" i:knockout="Off" stroke="#000000" stroke-miterlimit="10" stroke-width="0.036"/>
      <path clip-rule="evenodd" d="     M28.813,197.826c-2.052,15.156-1.872,26.064,0.54,33.695c2.376,7.416,6.84,11.089,13.68,11.017     c-3.672,1.548-7.056,1.548-10.008,0c-3.096-1.62-7.164-2.052-7.884-9.468C24.386,225.51,25.61,213.99,28.813,197.826z" fill-rule="evenodd" i:knockout="Off" stroke="#000000" stroke-miterlimit="10" stroke-width="0.036"/>
      <path clip-rule="evenodd" d="     M18.302,220.47c-2.052,10.404-1.872,17.893,0.54,23.148c2.376,5.147,6.84,7.632,13.68,7.596c-3.672,1.044-7.056,1.044-10.008,0     c-3.096-1.116-7.164-1.439-7.884-6.516C13.874,239.514,15.098,231.486,18.302,220.47z" fill-rule="evenodd" i:knockout="Off" stroke="#000000" stroke-miterlimit="10" stroke-width="0.036"/>
      <path clip-rule="evenodd" d="     M79.862,249.378c-2.7,3.924-3.708,8.964-3.168,15.264c0.504,6.265,2.556,13.536,6.3,22.104c-5.436-6.12-8.46-12.132-8.928-18.432     C73.49,262.05,75.47,255.786,79.862,249.378z" fill-rule="evenodd" i:knockout="Off" stroke="#000000" stroke-miterlimit="10" stroke-width="0.036"/>
      <path clip-rule="evenodd" d="     M65.642,256.758c-2.628,2.809-3.672,6.408-3.132,10.944c0.504,4.5,2.556,9.647,6.3,15.876c-5.436-4.356-8.46-8.712-8.928-13.212     C59.342,265.866,61.214,261.33,65.642,256.758z" fill-rule="evenodd" i:knockout="Off" stroke="#000000" stroke-miterlimit="10" stroke-width="0.036"/>
      <path clip-rule="evenodd" d="     M101.426,307.266c-1.872,4.645-7.092,10.549-15.804,17.856c-8.892,7.38-29.232,19.116-36.288,25.776     c-7.02,6.479-8.64,10.871-5.256,13.176c-3.816-4.284-3.384-9.108,1.584-14.76c5.004-5.725,18.324-11.845,27.864-18.937     C82.922,323.25,91.994,315.69,101.426,307.266z" fill-rule="evenodd" i:knockout="Off" stroke="#000000" stroke-miterlimit="10" stroke-width="0.036"/>
      <path clip-rule="evenodd" d="     M91.417,298.842c-1.944,4.716-7.02,10.548-15.768,17.893c-8.892,7.416-29.232,19.044-36.288,25.739     c-7.02,6.48-8.64,10.872-5.256,13.177c-3.888-4.32-3.42-9.036,1.548-14.725c4.968-5.724,18.432-11.844,27.9-18.936     C72.914,314.862,82.058,307.338,91.417,298.842z" fill-rule="evenodd" i:knockout="Off" stroke="#000000" stroke-miterlimit="10" stroke-width="0.036"/>
      <path clip-rule="evenodd" d="     M257.594,251.07c1.547,4.5,1.332,9.54-0.648,15.552c-2.125,5.904-5.76,12.492-11.447,19.908     c6.803-4.608,11.051-9.792,13.139-15.696C260.583,264.822,260.366,258.378,257.594,251.07z" fill-rule="evenodd" i:knockout="Off" stroke="#000000" stroke-miterlimit="10" stroke-width="0.036"/>
      <path clip-rule="evenodd" d="     M269.583,261.654c1.836,3.384,1.979,7.128,0.432,11.376c-1.621,4.212-4.896,8.784-9.973,13.859     c6.301-2.987,10.26-6.407,11.881-10.655C273.434,271.986,272.786,267.126,269.583,261.654z" fill-rule="evenodd" i:knockout="Off" stroke="#000000" stroke-miterlimit="10" stroke-width="0.036"/>
      <path clip-rule="evenodd" d="     M208.202,327.75l9.973,44.208c0.611-8.856,0.143-16.74-1.549-24.192C214.934,340.278,212.125,333.798,208.202,327.75z" fill-rule="evenodd" i:knockout="Off" stroke="#000000" stroke-miterlimit="10" stroke-width="0.036"/>
      <path clip-rule="evenodd" d="     M218.174,323.574l10.547,34.164c-0.756-9.145-1.943-16.309-3.707-22.068C223.213,329.946,220.981,325.914,218.174,323.574z" fill-rule="evenodd" i:knockout="Off" stroke="#000000" stroke-miterlimit="10" stroke-width="0.036"/>
      <path clip-rule="evenodd" d="     M159.278,334.086c-2.125,4.104-14.256,36.144-14.725,38.916c-0.467,2.412,9.541-17.1,12.096-23.688     C159.17,342.689,161.149,330.162,159.278,334.086z" fill-rule="evenodd" i:knockout="Off" stroke="#000000" stroke-miterlimit="10" stroke-width="0.036"/>
      <path clip-rule="evenodd" d="     M145.598,343.014c-2.125,2.809-12.132,26.208-12.097,28.404c-0.036,1.944,9.972-11.592,12.097-16.308     C147.579,350.286,147.579,340.278,145.598,343.014z" fill-rule="evenodd" i:knockout="Off" stroke="#000000" stroke-miterlimit="10" stroke-width="0.036"/>
      <path clip-rule="evenodd" d="     M40.406,375.63c1.332-0.432-10.548,9.828-13.14,15.769c-2.628,5.76-1.332,17.783-2.628,18.432     c-1.476,0.396-8.46-9.504-5.796-15.264C21.542,388.842,38.822,376.098,40.406,375.63z" fill-rule="evenodd" i:knockout="Off" stroke="#000000" stroke-miterlimit="10" stroke-width="0.036"/>
      <path clip-rule="evenodd" d="     M22.37,376.17c0.72-0.36-6.696,6.408-8.496,10.188c-1.728,3.672-0.864,11.483-1.692,11.916c-0.936,0.216-5.472-6.12-3.744-9.864     C10.202,384.702,21.326,376.458,22.37,376.17z" fill-rule="evenodd" i:knockout="Off" stroke="#000000" stroke-miterlimit="10" stroke-width="0.036"/>
    </g>
  </g>
</svg>
