<svg enable-background="new 0 0 580 580" height="580" viewBox="0 0 580 580" width="580" xmlns="http://www.w3.org/2000/svg">
<path d="m304.187 289.491c8.983 0 16.803-3.243 23.457-9.73s9.981-14.39 9.981-23.709c0-9.308-3.327-17.206-9.981-23.693s-14.474-9.73-23.457-9.73c-9.31 0-17.207 3.244-23.693 9.73-6.487 6.487-9.73 14.385-9.73 23.693 0 9.319 3.243 17.222 9.73 23.709 6.486 6.487 14.383 9.73 23.693 9.73z" fill="param(fill)" stroke="param(outline)" stroke-miterlimit="10" stroke-width="param(outline-width)"/>
<path d="m403.724 319.902c6.428-5.305 3.68-4.353 7.669-8.342l38.788-69.436c2.994-3.665 4.492-7.659 4.491-11.984.001-11.643-5.653-17.465-16.963-17.465-5.318 0-9.974 2.163-13.963 6.487l-36.563 64.35-55.172 13.577c-.762-.073-1.542-.123-2.366-.123h-63.375l-47.765-13.454-36.563-64.35c-3.99-4.324-8.644-6.486-13.963-6.487-11.309 0-16.963 5.822-16.963 17.465 0 4.325 1.498 8.319 4.492 11.984l38.788 69.436c3.99 3.989 1.242 3.037 7.669 8.342l58.823 16.634v92.663l-98.904 93.918c-1.005 2.335-1.508 4.664-1.507 6.989 0 6.648 2.494 12.387 7.484 17.214 4.989 4.827 10.813 7.24 17.473 7.24 11.968 0 11.938-1.146 20.094-5.504l97.266-86.435 81.635 85.759c10.807 11.419 14.828 13.739 26.797 13.739 6.658 0 12.483-2.41 17.473-7.232s7.483-10.558 7.484-17.206c-.001-2.335-.336-4.665-1.005-6.989l-89.475-98.996v-95.359z" fill="param(fill)" stroke="param(outline)" stroke-miterlimit="10" stroke-width="param(outline-width)"/>
<path d="m137.413 151.303h4.125c2.441 0 4.42 1.979 4.42 4.42v74.85c0 2.441-1.979 4.42-4.42 4.42h-4.125c-2.441 0-4.42-1.979-4.42-4.42v-74.85c0-2.441 1.979-4.42 4.42-4.42z" fill="param(fill)" fill-opacity="param(fill-opacity)" stroke="param(outline)" stroke-opacity="param(outline-opacity)" stroke-width="param(outline-width)"/>
<path d="m463.34 151.303h4.126c2.441 0 4.42 1.979 4.42 4.42v74.85c0 2.441-1.979 4.42-4.42 4.42h-4.126c-2.44 0-4.42-1.979-4.42-4.42v-74.85c0-2.441 1.979-4.42 4.42-4.42z" fill="param(fill)" fill-opacity="param(fill-opacity)" stroke="param(outline)" stroke-opacity="param(outline-opacity)" stroke-width="param(outline-width)"/>
<path d="m135.881 20.902h8v128.483h-8z" fill="param(fill)" opacity=".5" stroke="param(outline)" stroke-miterlimit="10" stroke-width="param(outline-width)"/>
<path d="m461.808 20.902h8v128.483h-8z" fill="param(fill)" opacity=".5" stroke="param(outline)" stroke-miterlimit="10" stroke-width="param(outline-width)"/>
</svg>
