<?xml version="1.0" encoding="utf-8"?>
<!-- Generator: Adobe Illustrator 16.0.0, SVG Export Plug-In . SVG Version: 6.00 Build 0)  -->
<!DOCTYPE svg PUBLIC "-//W3C//DTD SVG 1.1//EN" "http://www.w3.org/Graphics/SVG/1.1/DTD/svg11.dtd">
<svg version="1.1"
	 id="svg2" xmlns:dc="http://purl.org/dc/elements/1.1/" xmlns:cc="http://creativecommons.org/ns#" xmlns:rdf="http://www.w3.org/1999/02/22-rdf-syntax-ns#" xmlns:svg="http://www.w3.org/2000/svg" xmlns:sodipodi="http://sodipodi.sourceforge.net/DTD/sodipodi-0.dtd" xmlns:inkscape="http://www.inkscape.org/namespaces/inkscape" inkscape:output_extension="org.inkscape.output.svg.inkscape" sodipodi:docbase="s:\Data\FacilityIcons" sodipodi:docname="swimming.svg" inkscape:version="0.46" sodipodi:version="0.32"
	 xmlns="http://www.w3.org/2000/svg" xmlns:xlink="http://www.w3.org/1999/xlink" x="0px" y="0px" width="580px" height="580px"
	 viewBox="0 0 580 580" enable-background="new 0 0 580 580" xml:space="preserve">
<sodipodi:namedview  showgrid="false" inkscape:cy="290" inkscape:cx="66.746032" inkscape:zoom="0.65172414" pagecolor="#ffffff" bordercolor="#666666" guidetolerance="10.0" objecttolerance="10.0" gridtolerance="10.0" borderopacity="1.0" id="base" inkscape:current-layer="svg2" inkscape:window-y="-4" inkscape:window-x="-4" inkscape:pageopacity="0.0" inkscape:pageshadow="2" inkscape:window-width="1280" inkscape:window-height="1005">
	</sodipodi:namedview>
<defs>
	
	
		<inkscape:perspective  inkscape:vp_z="580 : 290 : 1" inkscape:vp_y="0 : 1000 : 0" inkscape:vp_x="0 : 290 : 1" sodipodi:type="inkscape:persp3d" id="perspective3653" inkscape:persp3d-origin="290 : 193.33333 : 1">
		</inkscape:perspective>
</defs>
<path fill="param(fill) #FFF" stroke="param(outline) #000" stroke-width="param(outline-width) 1" d="M547.919,115.72l-1.137-0.579l-239.476-78.33
	c-3.902-1.646-7.727-2.017-10.374-2.017c-3.376,0-6.652,0.593-9.575,1.724L34.89,111.823l-1.121,0.529
	c-8.058,3.802-13.686,12.68-13.686,21.59v21.123c0,4.849,1.666,9.458,4.692,12.98c3.573,4.159,8.792,6.544,14.321,6.544
	c2.43,0,4.826-0.447,7.143-1.33l250.635-74.757l237.695,77.746c2.465,1.023,5.027,1.541,7.64,1.541
	c10.588,0,18.882-8.542,18.882-19.445V137.22C561.09,128.514,555.674,119.673,547.919,115.72z"/>
<path fill="param(fill) #FFF" stroke="param(outline) #000" stroke-width="param(outline-width) 1" d="M504.438,417.987c-7.013-1.597-13.404-9.036-25.055-8.625
	c-11.934,0.414-28.789,11.104-45.074,11.104c-16.517-0.352-35.066-11.578-51.92-11.578c-16.798,0.119-32.068,11.754-48.186,12.108
	c-16.401,0.058-32.746-10.866-48.808-11.102c-16.289-0.413-31.728,9.688-46.942,9.567c-14.987-0.294-28.278-11.045-43.153-10.574
	c-15.271,0.594-32.011,12.404-46.942,13.113c-15.043,0.237-28.675-10.983-41.964-11.104c-13.403-0.236-28.448,8.209-37.497,10.1
	c-9.049,1.716-14.761,1.893-16.91,0.532v31.304c2.149,1.357,7.861,1.183,16.91-0.532c9.049-1.891,24.093-10.336,37.497-10.1
	c13.291,0.119,26.921,11.34,41.964,11.102c14.931-0.589,31.671-12.698,46.942-13.112c14.875-0.59,28.165,10.396,43.153,10.632
	c15.214,0.12,30.654-9.92,46.942-9.625c16.062,0.234,32.406,11.159,48.808,11.103c16.117-0.354,31.388-11.991,48.186-12.109
	c16.854-0.056,35.403,11.342,51.92,11.639c16.285,0,33.142-10.693,45.074-11.105c11.65-0.533,18.042,7.028,25.055,8.563
	c6.899,1.477,12.159,1.713,16.231,0.472v-31.303C516.598,419.701,511.338,419.463,504.438,417.987z"/>
<path fill="param(fill) #FFF" stroke="param(outline) #000" stroke-width="param(outline-width) 1" d="M290.37,395.252c13.235,1.297,25.79,14.053,41.626,14.113
	c15.778-0.294,35.46-15.059,52.71-15.121c17.305,0.063,35.855,13.293,49.769,14.647c13.687,1.007,23.811-1.536,31.445-8.091
	l-59.213-130.288c16.457-6.144,30.708-11.694,43.661-16.655c12.781-5.198,29.635-6.852,32.917-13.406
	c2.997-6.734,3.731-26.697-14.367-25.752c-18.493,1.122-75.163,24.156-94.107,32.188c-18.947,7.736-15.497,8.622-17.985,14.469
	c-2.432,5.67-0.623,8.328,3.677,20.258c4.186,11.99,11.369,28.82,21.547,51.146l-129.399,69.043
	C264.583,396.133,277.082,393.948,290.37,395.252z"/>
<path fill="param(fill) #FFF" stroke="param(outline) #000" stroke-width="param(outline-width) 1" d="M485.134,289.063c-19.95,0-36.14,16.906-36.14,37.739
	c0,20.832,16.19,37.738,36.14,37.738c19.948,0,36.138-16.906,36.138-37.738C521.271,305.97,505.083,289.063,485.134,289.063z"/>
<path fill="param(fill) #FFF" stroke="param(outline) #000" stroke-width="param(outline-width) 1" d="M117.425,391.23c16.966,5.911,32.575,10.277,47.902,13.113
	c11.99-5.61,23.019-8.445,33.538-8.268c10.463,0.234,20.756,7.735,28.9,9.096c8.031,1.182,14.309,0.354,19.06-2.244
	c-38.629-15.887-71.375-28.584-99.991-38.745c-28.788-10.277-56.5-22.681-70.469-21.912c-13.914,0.768-18.947,17.659-12.047,26.104
	C71.218,376.584,100.344,384.973,117.425,391.23z"/>
<path fill="param(fill) #FFF" stroke="param(outline) #000" stroke-width="param(outline-width) 1" d="M504.438,470.316c-7.013-1.535-13.404-9.099-25.055-8.566
	c-11.934,0.413-28.789,11.103-45.074,11.103c-16.517-0.353-35.066-11.574-51.92-11.574c-16.798,0.119-32.068,11.754-48.186,12.106
	c-16.401,0.061-32.746-10.865-48.808-11.103c-16.289-0.414-31.728,9.687-46.942,9.568c-14.987-0.295-28.278-11.045-43.153-10.572
	c-15.271,0.59-32.011,12.401-46.942,13.113c-15.043,0.234-28.675-10.988-41.964-11.105c-13.403-0.234-28.448,8.209-37.497,10.1
	c-9.049,1.834-14.761,1.772-16.91,0.474v31.303c2.149,1.298,7.861,1.359,16.91-0.474c9.049-1.892,24.093-10.335,37.497-10.101
	c13.291,0.118,26.921,11.341,41.964,11.105c14.931-0.711,31.671-12.522,46.942-13.112c14.875-0.474,28.165,10.277,43.153,10.572
	c15.214,0.117,30.654-9.982,46.942-9.568c16.062,0.236,32.406,11.163,48.808,11.103c16.117-0.353,31.388-11.991,48.186-12.106
	c16.854,0,35.403,11.222,51.92,11.574c16.285,0,33.142-10.689,45.074-11.103c11.65-0.414,18.042,7.026,25.055,8.623
	c6.899,1.478,12.159,1.714,16.231,0.475v-31.303C516.598,471.969,511.338,471.793,504.438,470.316z"/>
</svg>
