<?xml version="1.0" encoding="UTF-8" standalone="no"?>
<!DOCTYPE svg PUBLIC "-//W3C//DTD SVG 20010904//EN"
"http://www.w3.org/TR/2001/REC-SVG-20010904/DTD/svg10.dtd">
<!-- Created with Inkscape (http://www.inkscape.org/) --><svg height="297mm" id="svg1" inkscape:version="0.40" sodipodi:docbase="/home/kurumin/docs/inkscape" sodipodi:docname="car_sport.svg" sodipodi:version="0.32" width="210mm" xmlns="http://www.w3.org/2000/svg" xmlns:cc="http://web.resource.org/cc/" xmlns:dc="http://purl.org/dc/elements/1.1/" xmlns:inkscape="http://www.inkscape.org/namespaces/inkscape" xmlns:rdf="http://www.w3.org/1999/02/22-rdf-syntax-ns#" xmlns:sodipodi="http://sodipodi.sourceforge.net/DTD/sodipodi-0.dtd" xmlns:xlink="http://www.w3.org/1999/xlink">
  <metadata>
    <rdf:RDF xmlns:cc="http://web.resource.org/cc/" xmlns:dc="http://purl.org/dc/elements/1.1/" xmlns:rdf="http://www.w3.org/1999/02/22-rdf-syntax-ns#">
      <cc:Work rdf:about="">
        <dc:title>sportcar</dc:title>
        <dc:description>Um carro esporte, voyeg3r@gmail.com</dc:description>
        <dc:subject>
          <rdf:Bag>
            <rdf:li>holiday</rdf:li>
            <rdf:li>sports</rdf:li>
            <rdf:li>transport</rdf:li>
          </rdf:Bag>
        </dc:subject>
        <dc:publisher>
          <cc:Agent rdf:about="http://www.openclipart.org">
            <dc:title>Sergio Luiz Araujo Silva</dc:title>
          </cc:Agent>
        </dc:publisher>
        <dc:creator>
          <cc:Agent>
            <dc:title>Sergio Luiz Araujo Silva</dc:title>
          </cc:Agent>
        </dc:creator>
        <dc:rights>
          <cc:Agent>
            <dc:title>Sergio Luiz Araujo Silva</dc:title>
          </cc:Agent>
        </dc:rights>
        <dc:date></dc:date>
        <dc:format>image/svg+xml</dc:format>
        <dc:type rdf:resource="http://purl.org/dc/dcmitype/StillImage"/>
        <cc:license rdf:resource="http://web.resource.org/cc/PublicDomain"/>
        <dc:language>en</dc:language>
      </cc:Work>
      <cc:License rdf:about="http://web.resource.org/cc/PublicDomain">
        <cc:permits rdf:resource="http://web.resource.org/cc/Reproduction"/>
        <cc:permits rdf:resource="http://web.resource.org/cc/Distribution"/>
        <cc:permits rdf:resource="http://web.resource.org/cc/DerivativeWorks"/>
      </cc:License>
    </rdf:RDF>
  </metadata>
  <defs id="defs3">
    <linearGradient id="linearGradient26126" inkscape:collect="always">
      <stop id="stop26127" offset="0" style="stop-color:#fde2e2;stop-opacity:1;"/>
      <stop id="stop26128" offset="1" style="stop-color:#fde2e2;stop-opacity:0;"/>
    </linearGradient>
    <linearGradient id="linearGradient23621" inkscape:collect="always">
      <stop id="stop23622" offset="0" style="stop-color:#e5e5e5;stop-opacity:1;"/>
      <stop id="stop23623" offset="1" style="stop-color:#e5e5e5;stop-opacity:0;"/>
    </linearGradient>
    <linearGradient id="linearGradient7464" inkscape:collect="always">
      <stop id="stop7465" offset="0" style="stop-color:#c80000;stop-opacity:1;"/>
      <stop id="stop7466" offset="1" style="stop-color:#c80000;stop-opacity:0;"/>
    </linearGradient>
    <linearGradient id="linearGradient2491">
      <stop id="stop2492" offset="0.0000000" style="stop-color:#ffffff;stop-opacity:1.0000000;"/>
      <stop id="stop2493" offset="1.0000000" style="stop-color:#ffffff;stop-opacity:0.78378379;"/>
    </linearGradient>
    <linearGradient id="linearGradient5061">
      <stop id="stop5062" offset="0.0000000" style="stop-color:#ffffff;stop-opacity:1.0000000;"/>
      <stop id="stop5063" offset="1.0000000" style="stop-color:#ffffff;stop-opacity:0.88288289;"/>
    </linearGradient>
    <linearGradient gradientTransform="matrix(1.140139,0.000000,0.000000,0.877086,-0.855250,-0.427626)" gradientUnits="userSpaceOnUse" id="linearGradient5064" inkscape:collect="always" x1="808.65209" x2="868.91012" xlink:href="#linearGradient5061" y1="405.64940" y2="405.64940"/>
    <linearGradient gradientTransform="scale(2.069259,0.483265)" gradientUnits="userSpaceOnUse" id="linearGradient2494" inkscape:collect="always" x1="544.79810" x2="497.10864" xlink:href="#linearGradient2491" y1="718.09961" y2="724.06897"/>
    <linearGradient gradientTransform="scale(1.423543,0.702472)" gradientUnits="userSpaceOnUse" id="linearGradient7467" inkscape:collect="always" x1="754.19787" x2="826.89126" xlink:href="#linearGradient7464" y1="678.49248" y2="678.49248"/>
    <linearGradient gradientTransform="scale(1.140139,0.877086)" gradientUnits="userSpaceOnUse" id="linearGradient13679" inkscape:collect="always" x1="793.42322" x2="793.42322" xlink:href="#linearGradient5061" y1="416.07425" y2="449.52493"/>
    <linearGradient gradientTransform="scale(1.123079,0.890410)" gradientUnits="userSpaceOnUse" id="linearGradient23624" inkscape:collect="always" x1="805.19714" x2="804.87048" xlink:href="#linearGradient23621" y1="360.75806" y2="434.65924"/>
    <linearGradient gradientTransform="scale(1.256178,0.796066)" gradientUnits="userSpaceOnUse" id="linearGradient28009" inkscape:collect="always" x1="939.14911" x2="960.72424" xlink:href="#linearGradient26126" y1="508.44946" y2="508.81094"/>
    <linearGradient gradientTransform="matrix(1.140139,0.000000,0.000000,0.877086,100.3978,-171.9896)" gradientUnits="userSpaceOnUse" id="linearGradient28662" inkscape:collect="always" x1="808.65209" x2="868.91012" xlink:href="#linearGradient5061" y1="405.64940" y2="405.64940"/>
    <linearGradient gradientTransform="scale(1.423543,0.702472)" gradientUnits="userSpaceOnUse" id="linearGradient29330" inkscape:collect="always" x1="754.19787" x2="826.89126" xlink:href="#linearGradient7464" y1="678.49248" y2="678.49248"/>
    <linearGradient gradientTransform="scale(1.423543,0.702472)" gradientUnits="userSpaceOnUse" id="linearGradient29332" inkscape:collect="always" x1="754.19787" x2="826.89126" xlink:href="#linearGradient7464" y1="678.49248" y2="678.49248"/>
    <linearGradient gradientTransform="matrix(1.378227,1.734758e-18,-6.471993e-18,0.415895,-1413.274,727.2758)" gradientUnits="userSpaceOnUse" id="linearGradient29334" inkscape:collect="always" x1="754.19787" x2="826.89126" xlink:href="#linearGradient7464" y1="678.49248" y2="678.49248"/>
    <linearGradient gradientTransform="scale(1.423543,0.702472)" gradientUnits="userSpaceOnUse" id="linearGradient29336" inkscape:collect="always" x1="754.19787" x2="826.89126" xlink:href="#linearGradient7464" y1="678.49248" y2="678.49248"/>
    <linearGradient gradientTransform="matrix(0.953472,6.109056e-19,-3.792808e-18,0.287720,-1125.822,639.5058)" gradientUnits="userSpaceOnUse" id="linearGradient29339" inkscape:collect="always" x1="754.19787" x2="826.89126" xlink:href="#linearGradient7464" y1="678.49248" y2="678.49248"/>
    <linearGradient gradientTransform="scale(1.423543,0.702472)" gradientUnits="userSpaceOnUse" id="linearGradient29340" inkscape:collect="always" x1="754.19787" x2="826.89126" xlink:href="#linearGradient7464" y1="678.49248" y2="678.49248"/>
    <linearGradient gradientTransform="scale(2.069259,0.483265)" gradientUnits="userSpaceOnUse" id="linearGradient29525" inkscape:collect="always" x1="544.79810" x2="497.10864" xlink:href="#linearGradient2491" y1="718.09961" y2="724.06897"/>
    <linearGradient gradientTransform="matrix(1.140139,0.000000,0.000000,0.877086,-0.855250,-0.427626)" gradientUnits="userSpaceOnUse" id="linearGradient29526" inkscape:collect="always" x1="808.65209" x2="868.91012" xlink:href="#linearGradient5061" y1="405.64940" y2="405.64940"/>
    <linearGradient gradientTransform="scale(1.423543,0.702472)" gradientUnits="userSpaceOnUse" id="linearGradient29527" inkscape:collect="always" x1="754.19787" x2="826.89126" xlink:href="#linearGradient7464" y1="678.49248" y2="678.49248"/>
    <linearGradient gradientTransform="scale(1.256178,0.796066)" gradientUnits="userSpaceOnUse" id="linearGradient29528" inkscape:collect="always" x1="939.14911" x2="960.72424" xlink:href="#linearGradient26126" y1="508.44946" y2="508.81094"/>
    <linearGradient gradientTransform="matrix(1.140139,0.000000,0.000000,0.877086,-0.855250,-0.427626)" gradientUnits="userSpaceOnUse" id="linearGradient29529" inkscape:collect="always" x1="808.65209" x2="868.91012" xlink:href="#linearGradient5061" y1="405.64940" y2="405.64940"/>
    <linearGradient gradientTransform="matrix(1.140139,0.000000,0.000000,0.877086,-0.855250,-0.427626)" gradientUnits="userSpaceOnUse" id="linearGradient29530" inkscape:collect="always" x1="808.65209" x2="868.91012" xlink:href="#linearGradient5061" y1="405.64940" y2="405.64940"/>
    <linearGradient gradientTransform="scale(2.069259,0.483265)" gradientUnits="userSpaceOnUse" id="linearGradient29531" inkscape:collect="always" x1="544.79810" x2="497.10864" xlink:href="#linearGradient2491" y1="718.09961" y2="724.06897"/>
    <linearGradient gradientTransform="scale(1.140139,0.877086)" gradientUnits="userSpaceOnUse" id="linearGradient29532" inkscape:collect="always" x1="793.42322" x2="793.42322" xlink:href="#linearGradient5061" y1="416.07425" y2="449.52493"/>
    <linearGradient gradientTransform="scale(1.423543,0.702472)" gradientUnits="userSpaceOnUse" id="linearGradient29533" inkscape:collect="always" x1="754.19787" x2="826.89126" xlink:href="#linearGradient7464" y1="678.49248" y2="678.49248"/>
    <linearGradient gradientTransform="scale(1.123079,0.890410)" gradientUnits="userSpaceOnUse" id="linearGradient29534" inkscape:collect="always" x1="805.19714" x2="804.87048" xlink:href="#linearGradient23621" y1="360.75806" y2="434.65924"/>
    <linearGradient gradientTransform="matrix(1.140139,0.000000,0.000000,0.877086,100.3978,-171.9896)" gradientUnits="userSpaceOnUse" id="linearGradient29535" inkscape:collect="always" x1="808.65209" x2="868.91012" xlink:href="#linearGradient5061" y1="405.64940" y2="405.64940"/>
    <linearGradient gradientTransform="scale(1.423543,0.702472)" gradientUnits="userSpaceOnUse" id="linearGradient29536" inkscape:collect="always" x1="754.19787" x2="826.89126" xlink:href="#linearGradient7464" y1="678.49248" y2="678.49248"/>
    <linearGradient gradientTransform="matrix(1.378227,3.581590e-18,-6.672791e-18,0.415895,-1413.274,727.2758)" gradientUnits="userSpaceOnUse" id="linearGradient29537" inkscape:collect="always" x1="754.19787" x2="826.89126" xlink:href="#linearGradient7464" y1="678.49248" y2="678.49248"/>
    <linearGradient gradientTransform="scale(1.423543,0.702472)" gradientUnits="userSpaceOnUse" id="linearGradient29538" inkscape:collect="always" x1="754.19787" x2="826.89126" xlink:href="#linearGradient7464" y1="678.49248" y2="678.49248"/>
    <linearGradient gradientTransform="matrix(0.953472,-6.473698e-19,-3.590042e-18,0.287720,-1125.822,639.5058)" gradientUnits="userSpaceOnUse" id="linearGradient29539" inkscape:collect="always" x1="754.19787" x2="826.89126" xlink:href="#linearGradient7464" y1="678.49248" y2="678.49248"/>
    <linearGradient gradientTransform="scale(1.423543,0.702472)" gradientUnits="userSpaceOnUse" id="linearGradient29540" inkscape:collect="always" x1="754.19787" x2="826.89126" xlink:href="#linearGradient7464" y1="678.49248" y2="678.49248"/>
  </defs>
  <sodipodi:namedview bordercolor="#666666" borderopacity="1.0" id="base" inkscape:current-layer="svg1" inkscape:cx="294.67234" inkscape:cy="638.45678" inkscape:guide-bbox="false" inkscape:pageopacity="0.0" inkscape:pageshadow="2" inkscape:window-height="699" inkscape:window-width="1018" inkscape:window-x="0" inkscape:window-y="0" inkscape:zoom="1.2358499" pagecolor="#ffffff" showguides="false">
    <sodipodi:guide id="guide24878" orientation="horizontal" position="551.28853"/>
    <sodipodi:guide id="guide28652" orientation="horizontal" position="523.59798"/>
    <sodipodi:guide id="guide28653" orientation="vertical" position="951.87109"/>
  </sodipodi:namedview>
  <g id="layer1" inkscape:groupmode="layer" inkscape:label="Layer 1"/>
  <g id="g29413" transform="translate(-710.9827,-145.6230)">
    <path d="M 825.87237,496.09350 C 828.33630,503.13699 834.11205,514.26249 846.62671,518.10168 C 856.78496,518.10168 866.94321,518.10168 877.10146,518.10168 C 880.59336,516.83190 884.08526,515.56212 887.57716,514.29234 C 888.84694,512.38767 890.11672,510.48299 891.38650,508.57832 L 891.38650,451.43816 L 872.33978,416.20173 L 850.16440,410.68476 L 825.67532,429.53443 L 820.91364,453.34283 L 822.81831,477.15123 L 825.87237,496.09350 z " id="path28665" sodipodi:nodetypes="cccccccccccc" style="fill:#000000;fill-opacity:1.0000000;fill-rule:evenodd;stroke:#000000;stroke-width:0.25000000pt;stroke-linecap:butt;stroke-linejoin:miter;stroke-opacity:1.0000000"/>
    <path d="M 1009.7682,508.25236 L 1015.4921,514.98639 L 1022.5628,520.71032 L 1031.6538,522.39383 L 1072.0580,519.36351 L 1080.8122,514.98639 L 1083.1691,510.60927 L 1085.1893,506.56885 L 1089.9032,484.00984 L 1088.5564,448.65617 L 1062.6303,387.03977 L 996.63681,394.78391 L 990.91288,459.43062 L 1002.3607,481.31623 L 1002.6974,497.81461 L 1009.7682,508.25236 z " id="path28663" style="fill:#000000;fill-opacity:1.0000000;fill-rule:evenodd;stroke:#000000;stroke-width:0.25000000pt;stroke-linecap:butt;stroke-linejoin:miter;stroke-opacity:1.0000000"/>
    <path d="M 1061.3090,506.88839 L 1124.7184,504.96689 L 1153.5408,502.08465 L 1163.1483,502.08465 L 1194.8530,496.32016 L 1233.2829,490.55568 L 1271.7128,486.71269 L 1311.1034,482.86970 L 1338.0044,482.86970 L 1359.1408,482.86970 L 1369.7090,480.94820 L 1369.7090,476.14446 L 1366.8268,437.71455 L 1355.2978,430.02857 L 1345.6904,419.46035 L 1334.1614,403.12764 L 1326.4754,388.71642 L 1324.5539,386.79493 L 1315.9072,381.99119 L 1308.2212,376.22670 L 1299.5745,374.30521 L 1263.0661,367.57998 L 1247.6941,364.69773 L 1237.1259,362.77624 L 1230.4006,361.81549 L 1227.5184,357.97250 L 1219.8324,355.09026 L 1211.1857,351.24727 L 1163.7653,329.13317 L 1143.9333,320.50334 C 1133.4966,316.24241 1124.9475,313.68042 1113.1894,312.81736 L 1074.7595,310.89586 L 1020.9576,310.89586 L 986.37073,312.81736 C 974.85336,313.80598 966.39911,314.99881 953.65650,317.62110 C 945.89563,320.17975 942.01783,321.12046 933.28619,325.29706 C 922.51031,330.34290 912.60082,335.53314 901.82494,342.60054 L 883.57073,357.97250 L 875.88475,366.61923 L 861.47354,382.95194 L 855.70905,384.87343 L 833.61185,398.32390 L 832.65111,403.12764 L 830.72961,411.77437 L 828.80812,420.42110 C 827.52712,422.34259 826.24613,424.26409 824.96513,426.18558 C 823.36388,430.34882 821.76264,434.51206 820.16139,438.67530 L 818.23989,452.12577 L 816.31840,464.61549 L 817.27914,482.86970 L 817.27914,492.47717 L 826.87360,497.97381 L 824.94560,479.02670 C 823.51982,469.64662 826.18396,460.02892 826.89685,447.32203 C 828.19831,432.73456 832.11369,426.93938 837.45485,421.38184 C 839.86183,419.48080 842.74407,419.24317 846.10157,421.38184 L 851.85583,426.19581 C 857.82726,433.39630 859.04609,439.40865 860.50256,446.37151 C 863.60538,460.57316 863.14376,465.98251 863.39503,476.14446 L 863.39503,490.55568 L 863.39503,502.08465 L 862.43428,508.80988 L 867.23802,507.84913 L 1009.4287,507.84913 L 1003.6642,490.55568 L 1000.7819,473.26222 L 998.86045,455.96876 L 999.82120,434.83231 L 1003.6642,419.46035 L 1010.3894,405.04913 L 1017.1147,397.36315 L 1026.7221,394.48091 L 1035.3689,397.36315 L 1044.0156,402.16689 L 1050.7408,411.77437 L 1057.4661,426.18558 L 1060.3483,439.63605 L 1063.2305,453.08652 L 1064.1913,467.49773 L 1064.1913,483.83044 L 1063.2305,491.51642 L 1061.3090,506.88839 z " id="path1260" sodipodi:nodetypes="cccccccccccccccccccccccccccccccccccccccccccccccccccccccccccccccccccccccccccccccccc" style="fill:#ef0000;fill-opacity:1.0000000;fill-rule:evenodd;stroke:#000000;stroke-width:0.25000000pt;stroke-linecap:butt;stroke-linejoin:miter;stroke-opacity:1.0000000"/>
    <path d="M 863.85851,385.11377 L 876.93115,372.04113 L 894.61766,354.35462 L 912.30417,339.74402 L 924.60783,332.82321 L 933.06660,328.97832 L 945.37026,325.13342 L 954.59800,322.82649 L 965.36371,322.05751 C 967.92697,322.57016 973.67694,322.93828 980.74328,328.97832 L 988.43307,338.20606 L 996.89184,349.74074 L 1005.3506,363.58236 L 1007.6575,372.04113 L 1006.8886,381.57304 L 1003.7629,382.65189 L 997.66081,384.34479 L 928.45272,386.65173 L 911.53519,386.65173 L 902.30745,385.88275 L 863.85851,385.11377 z " id="path1261" sodipodi:nodetypes="ccccccccccccccccccccc" style="fill:#000000;fill-opacity:1.0000000;fill-rule:evenodd;stroke:#000000;stroke-width:0.25000000pt;stroke-linecap:butt;stroke-linejoin:miter;stroke-opacity:1.0000000"/>
    <path d="M 1183.7537,414.33496 L 1168.3741,401.26232 L 1162.9912,398.18641 L 1152.2255,395.11049 L 1127.6182,392.03458 L 1111.4697,392.03458 L 1100.7040,393.57253 L 1093.7832,395.11049 L 1090.7072,398.18641 L 1089.9383,402.80028 L 1089.9383,412.79700 L 1089.9383,420.48679 L 1100.7040,419.71781 L 1111.4697,419.71781 L 1117.6215,418.94883 L 1124.5423,418.94883 L 1183.7537,414.33496 z " id="path1262" style="fill:#000000;fill-opacity:1.0000000;fill-rule:evenodd;stroke:#000000;stroke-width:0.25000000pt;stroke-linecap:butt;stroke-linejoin:miter;stroke-opacity:1.0000000"/>
    <path d="M 1305.2523,408.18313 L 1306.7903,389.72764 L 1317.5560,383.57581 L 1327.5527,388.18968 L 1336.0115,402.80028 C 1336.0695,404.70092 1334.5799,406.13731 1332.9356,406.64517 L 1324.4768,406.64517 L 1305.2523,408.18313 z " id="path1263" sodipodi:nodetypes="cccccccc" style="fill:#000000;fill-opacity:1.0000000;fill-rule:evenodd;stroke:#000000;stroke-width:0.25000000pt;stroke-linecap:butt;stroke-linejoin:miter;stroke-opacity:1.0000000"/>
    <path d="M 998.42979,385.11377 L 994.58490,389.72764 L 992.27796,392.80356 L 993.81592,397.41743 L 887.69685,401.26232 L 866.93442,401.26232 L 857.70668,401.26232 L 851.55485,401.26232 L 842.32710,404.33824 L 831.56140,405.87619 L 834.63731,401.26232 L 860.01361,385.88275 L 916.91804,388.18968 L 998.42979,385.11377 z " id="path1264" style="color:#000000;fill:url(#linearGradient29525);fill-opacity:1.0000000;fill-rule:evenodd;stroke:none;stroke-width:0.25000000pt;stroke-linecap:butt;stroke-linejoin:miter;stroke-miterlimit:4.0000000;stroke-dashoffset:0.0000000;stroke-opacity:1.0000000;marker:none;marker-start:none;marker-mid:none;marker-end:none;visibility:visible;display:block"/>
    <path d="M 1106.8558,421.25577 L 1116.8525,422.79373 L 1114.5456,425.10066 L 1116.8525,428.94556 L 1123.0044,434.32841 L 1132.2321,435.86637 L 1242.1961,428.94556 L 1132.2321,432.02147 L 1126.8492,428.94556 L 1122.2354,425.10066 L 1122.2354,421.25577 L 1121.4664,419.71781 L 1106.8558,421.25577 z " id="path1265" style="color:#000000;fill:#fabbbb;fill-opacity:1.0000000;fill-rule:evenodd;stroke:none;stroke-width:0.24172204pt;stroke-linecap:butt;stroke-linejoin:miter;stroke-miterlimit:4.0000000;stroke-dashoffset:0.0000000;stroke-opacity:1.0000000;marker:none;marker-start:none;marker-mid:none;marker-end:none;visibility:visible;display:block"/>
    <path d="M 1152.2255,462.78062 L 1167.6051,476.62224 L 1172.9880,481.23612 L 1179.1398,482.77407 L 1186.8296,482.77407 L 1195.2884,482.00509 L 1274.4932,475.08429 L 1326.7837,469.70143 L 1332.1666,468.16348 L 1336.0115,465.08756 L 1339.8564,460.47369 L 1349.8531,445.09411 L 1296.7936,449.70799 L 1218.3577,456.62879 L 1152.2255,462.78062 z " id="path1266" style="fill:#000000;fill-opacity:1.0000000;fill-rule:evenodd;stroke:#000000;stroke-width:0.25000000pt;stroke-linecap:butt;stroke-linejoin:miter;stroke-opacity:1.0000000"/>
    <path d="M 1067.2429,441.98265 L 1073.5666,462.98015 L 1075.5786,456.00038 L 1075.5786,453.24794 L 1076.9549,453.13326 L 1075.8335,454.60673 L 1067.2429,441.98265 z " id="path1268" sodipodi:nodetypes="ccccccc" style="fill:#000000;fill-opacity:1.0000000;fill-rule:evenodd;stroke:#000000;stroke-width:0.25000000pt;stroke-linecap:butt;stroke-linejoin:miter;stroke-opacity:1.0000000"/>
    <path d="M 994.55419,319.99741 L 1041.9135,316.75362 L 1081.4877,315.45611 L 1107.4380,316.10486 L 1128.1982,316.75362 L 1146.3634,325.18747 L 1161.9336,331.67504 L 1178.1525,339.46013 L 1189.8301,347.24521 L 1198.9127,351.78651 L 1206.6978,356.97657 L 1154.7972,356.97657 L 1109.3842,358.92285 L 1069.1613,363.46415 L 1049.0498,364.76166 L 1033.4796,364.76166 L 1026.3433,360.86912 L 1017.2607,348.54273 L 994.55419,319.99741 z " id="path1269" style="fill:#040001;fill-opacity:1.0000000;fill-rule:evenodd;stroke:#000000;stroke-width:0.25000000pt;stroke-linecap:butt;stroke-linejoin:miter;stroke-opacity:1.0000000"/>
    <path d="M 1190.4789,400.44331 L 1190.4789,400.44331 z " id="path1271" style="fill:none;fill-opacity:0.75000000;fill-rule:evenodd;stroke:#000000;stroke-width:0.25000000pt;stroke-linecap:butt;stroke-linejoin:miter;stroke-opacity:1.0000000"/>
    <path d="M 1194.3714,396.55077 L 1227.4581,393.30698 L 1258.5984,392.00947 L 1278.0611,391.36071 L 1292.3338,391.36071 C 1292.8383,391.86545 1293.3428,392.58621 1293.6313,393.30698 C 1294.2797,395.03700 1294.4238,396.69501 1294.2801,398.49704 C 1293.4149,402.46024 1292.4776,404.33518 1291.0363,406.28213 C 1289.8108,407.50696 1288.4412,407.93969 1287.1437,408.22840 L 1276.7636,408.87716 L 1222.2680,410.82343 L 1209.2929,411.47219 L 1200.8590,410.82343 L 1196.3443,406.59323 L 1190.8211,400.84319 C 1190.2626,399.94859 1189.6730,399.48952 1189.8301,397.84828 C 1189.9439,397.26023 1191.2710,396.85883 1194.3714,396.55077 z " id="path1272" sodipodi:nodetypes="ccccccccccccccccc" style="fill:#000000;fill-opacity:1.0000000;fill-rule:evenodd;stroke:#000000;stroke-width:0.25000000pt;stroke-linecap:butt;stroke-linejoin:miter;stroke-opacity:1.0000000"/>
    <path d="M 1285.1975,417.31100 L 1293.6313,417.31100 L 1299.4701,417.31100 L 1306.6064,420.55479 L 1313.0940,423.14982 L 1320.2304,423.14982 L 1329.9617,421.85230 L 1334.5030,418.60852 L 1334.5030,414.71597 L 1332.5567,411.47219 L 1329.3130,407.57964 L 1306.6064,409.52591 L 1307.2552,412.12094 L 1304.6602,415.36473 L 1299.4701,415.36473 L 1289.0900,416.01349 L 1285.1975,417.31100 z " id="path1273" style="color:#000000;fill:#fabbbb;fill-opacity:1.0000000;fill-rule:evenodd;stroke:none;stroke-width:0.24172204pt;stroke-linecap:butt;stroke-linejoin:miter;stroke-miterlimit:4.0000000;stroke-dashoffset:0.0000000;stroke-opacity:1.0000000;marker:none;marker-start:none;marker-mid:none;marker-end:none;visibility:visible;display:block"/>
    <path d="M 1347.4782,438.07124 L 1353.9657,436.77372 L 1355.9120,434.17869 L 1354.6145,431.58366 L 1352.0195,427.04236 L 1345.5319,421.85230 L 1346.8294,427.69112 L 1346.8294,432.23242 L 1347.4782,438.07124 z " id="path1274" style="color:#000000;fill:url(#linearGradient29526);fill-opacity:1.0000000;fill-rule:evenodd;stroke:none;stroke-width:0.24172204pt;stroke-linecap:butt;stroke-linejoin:miter;stroke-miterlimit:4.0000000;stroke-dashoffset:0.0000000;stroke-opacity:1.0000000;marker:none;marker-start:none;marker-mid:none;marker-end:none;visibility:visible;display:block"/>
    <path d="M 987.03279,379.68308 L 990.67183,353.73279 L 983.39376,342.05516 L 977.32871,335.56758 L 974.29618,332.32380 L 968.83762,329.72877 L 962.77257,329.72877 L 956.84769,330.00911 L 942.89806,332.60414 L 934.49591,335.72388 L 931.04559,343.86126 L 926.75152,356.73221 L 924.27967,365.48237 L 922.55180,374.86144 L 922.27146,381.48918 L 954.28150,382.27811 L 972.47666,382.27811 L 987.03279,379.68308 z " id="path1275" sodipodi:nodetypes="cccccccccccccccccc" style="fill:#040001;fill-opacity:1.0000000;fill-rule:evenodd;stroke:#000000;stroke-width:0.24172204pt;stroke-linecap:butt;stroke-linejoin:miter;stroke-opacity:1.0000000"/>
    <path d="M 957.62092,329.62457 L 948.79013,330.46560 L 939.81917,332.28782 L 933.51146,334.25022 L 926.92341,349.66906 L 922.85845,364.52722 L 920.75588,375.04006 L 920.33536,381.90845 L 921.45673,381.76828 L 922.43793,372.93749 L 924.11999,364.80756 L 926.64307,354.99557 L 929.16615,348.26735 L 932.24992,340.97844 L 934.07215,335.51176 L 952.71493,330.32542 L 957.62092,329.62457 z " id="path1276" style="fill:none;fill-opacity:0.75000000;fill-rule:evenodd;stroke:#000000;stroke-width:0.25000000pt;stroke-linecap:butt;stroke-linejoin:miter;stroke-opacity:1.0000000"/>
    <path d="M 927.40293,338.49863 L 921.59794,350.27934 L 918.18324,361.20638 L 913.74413,374.86517 L 912.03678,380.32869 L 888.30463,379.98722 L 877.20686,379.64575 L 885.57287,370.59680 L 895.13403,361.37711 L 906.23180,352.66963 L 913.91487,346.52317 L 919.54912,342.59627 L 927.40293,338.49863 z " id="path1277" style="fill:#000000;fill-opacity:1.0000000;fill-rule:evenodd;stroke:#000000;stroke-width:0.25000000pt;stroke-linecap:butt;stroke-linejoin:miter;stroke-opacity:1.0000000"/>
    <path d="M 998.24534,381.52695 L 980.61908,383.21714 L 965.16592,383.45860 L 932.56941,384.66587 L 888.38303,384.66587 L 870.27385,383.45860 L 867.37639,382.97568 L 869.06657,381.76841 L 884.27828,382.25132 L 914.21878,383.45860 L 935.22542,383.45860 L 951.16149,382.49277 L 968.54630,381.52695 L 981.10199,381.52695 C 981.10199,381.52695 989.55294,380.07822 990.51876,380.07822 C 991.48458,380.07822 996.07224,379.59531 996.07224,379.59531 L 998.24534,381.52695 z " id="path1278" style="fill:none;fill-opacity:0.75000000;fill-rule:evenodd;stroke:#000000;stroke-width:0.25000000pt;stroke-linecap:butt;stroke-linejoin:miter;stroke-opacity:1.0000000"/>
    <path d="M 975.70340,459.23342 L 972.98741,460.78541 L 968.13744,461.75541 L 903.14780,466.41138 L 898.68583,465.63539 L 894.41785,464.66539 L 890.53787,462.33741 L 887.23989,458.84543 C 887.23989,458.84543 884.52391,455.93544 884.13591,455.15945 C 883.74791,454.38345 881.41992,449.72748 881.41992,449.72748 L 873.65997,434.78956 L 869.77999,427.22360 C 869.77999,427.22360 874.82396,432.65557 875.01796,433.43157 C 875.21196,434.20756 879.67393,442.93751 879.86793,443.71351 C 880.06193,444.48951 884.52391,451.27947 884.52391,451.27947 L 890.14988,459.62142 L 895.19385,462.91940 L 899.46182,464.66539 L 905.86379,465.05339 L 910.32576,464.85939 L 964.83946,460.39742 L 969.88343,460.39742 L 973.18141,459.62142 L 975.70340,459.23342 z " id="path1279" style="fill:#ffffff;fill-opacity:0.48679242;fill-rule:evenodd;stroke:none;stroke-width:0.25000000pt;stroke-linecap:butt;stroke-linejoin:miter;stroke-opacity:1.0000000"/>
    <path d="M 887.18066,505.53343 L 891.57035,505.53343 L 889.92422,470.41588 L 887.18066,470.96459 L 885.53452,478.09785 L 885.53452,486.32852 L 886.08323,495.65662 L 886.08323,501.69245 L 887.18066,505.53343 z " id="path1280" style="fill:#000000;fill-opacity:1.0000000;fill-rule:evenodd;stroke:#000000;stroke-width:0.25000000pt;stroke-linecap:butt;stroke-linejoin:miter;stroke-opacity:1.0000000"/>
    <path d="M 894.86262,470.41588 L 900.34974,470.41588 L 901.99587,470.96459 L 902.54459,477.54913 L 904.73943,504.98472 L 897.05747,505.53343 L 894.86262,470.41588 z " id="path1281" style="fill:#000000;fill-opacity:1.0000000;fill-rule:evenodd;stroke:#000000;stroke-width:0.25000000pt;stroke-linecap:butt;stroke-linejoin:miter;stroke-opacity:1.0000000"/>
    <path d="M 1332.7346,479.74398 L 1339.8679,478.09785 L 1344.8063,473.70815 L 1348.0986,468.22103 L 1350.8421,461.08778 L 1354.1344,452.85710 L 1356.3292,447.91870 L 1358.5241,445.72385 L 1361.2676,446.27256 L 1359.6215,449.56483 L 1356.8779,455.60066 L 1354.1344,464.92876 L 1350.8421,473.15944 L 1346.4524,477.54913 L 1340.4166,480.29269 L 1332.7346,479.74398 z " id="path1283" style="fill:#ffffff;fill-opacity:0.60000002;fill-rule:evenodd;stroke:none;stroke-width:0.25000000pt;stroke-linecap:butt;stroke-linejoin:miter;stroke-opacity:1.0000000"/>
    <path d="M 1343.0773,479.81427 L 1353.2835,479.97375 L 1359.8219,479.49533 L 1364.6061,478.69797 L 1368.1145,478.06008 L 1368.9118,477.10324 L 1368.7524,472.31906 L 1367.4766,456.05285 L 1367.1576,446.80344 L 1366.3603,442.33820 L 1366.3603,440.58401 L 1363.1708,442.97609 L 1360.4598,444.73029 L 1362.0545,446.80344 L 1359.8219,449.67395 L 1356.9514,455.41496 L 1355.1972,461.15598 L 1354.0809,466.25910 L 1351.5293,471.04328 L 1348.9777,474.87062 L 1345.9478,478.06008 L 1343.0773,479.81427 z " id="path1284" style="color:#000000;fill:url(#linearGradient29527);fill-opacity:1.0000000;fill-rule:evenodd;stroke:none;stroke-width:0.25000000pt;stroke-linecap:butt;stroke-linejoin:miter;stroke-miterlimit:4.0000000;stroke-dashoffset:0.0000000;stroke-opacity:1.0000000;marker:none;marker-start:none;marker-mid:none;marker-end:none;visibility:visible;display:block"/>
    <path d="M 1046.6433,382.53303 L 1040.9219,380.50285 L 1032.4320,378.10354 L 1025.6032,375.15054 L 1018.9590,370.53648 L 1012.1301,364.99960 L 1008.6235,359.83186 L 1002.1638,351.89567 L 996.81147,343.77493 L 978.53979,324.76500 L 985.73773,332.33206 L 991.09004,339.71455 L 997.54972,349.12724 L 1004.1940,359.46273 L 1007.7007,364.63048 L 1008.2543,367.58348 L 1009.9154,370.53648 L 1012.6838,373.85860 L 1016.7442,375.70422 L 1022.0965,377.91897 L 1027.2643,381.05653 L 1029.8481,382.34847 L 1046.6433,382.53303 z " id="path1285" style="fill:none;fill-opacity:0.75000000;fill-rule:evenodd;stroke:#000000;stroke-width:0.25000000pt;stroke-linecap:butt;stroke-linejoin:miter;stroke-opacity:1.0000000"/>
    <path d="M 1028.3547,382.20845 L 1016.7205,382.39610 L 1007.3381,376.57900 L 1007.5257,366.44600 L 1012.4046,374.13958 L 1025.5399,379.76902 L 1028.3547,382.20845 z " id="path1286" style="fill:none;fill-opacity:0.75000000;fill-rule:evenodd;stroke:#000000;stroke-width:0.25000000pt;stroke-linecap:butt;stroke-linejoin:miter;stroke-opacity:1.0000000"/>
    <path d="M 1176.5697,358.41954 L 1150.0501,360.06234 L 1121.8877,362.40921 L 1097.0109,365.22545 L 1073.5423,367.10294 L 1058.2876,368.98043 L 1044.9105,370.85793 L 1036.4618,370.85793 L 1033.1762,367.33763 C 1033.1762,367.33763 1031.2987,365.22545 1032.2374,365.22545 C 1033.1762,365.22545 1044.2064,365.92951 1044.2064,365.92951 L 1063.2160,364.28670 C 1063.2160,364.28670 1080.1135,363.11327 1081.2869,362.87858 C 1082.4603,362.64390 1099.1231,359.82766 1099.1231,359.82766 L 1119.0714,358.88891 L 1133.8567,357.95017 C 1133.8567,357.95017 1148.1726,357.95017 1149.3460,357.71548 C 1150.5194,357.48079 1159.9069,357.48079 1162.4885,357.48079 C 1165.0700,357.48079 1176.5697,358.41954 1176.5697,358.41954 z " id="path1290" style="fill:none;fill-opacity:0.75000000;fill-rule:evenodd;stroke:#000000;stroke-width:0.25000000pt;stroke-linecap:butt;stroke-linejoin:miter;stroke-opacity:1.0000000"/>
    <path d="M 1117.5057,391.71918 L 1104.3399,386.26310 L 1090.9369,383.29784 L 1080.6178,379.97674 L 1066.2660,378.07897 L 1053.4560,376.53704 L 1043.9672,374.75788 C 1043.9672,374.75788 1039.3414,373.45316 1038.7483,373.21594 C 1038.1553,372.97872 1036.6133,371.55540 1036.0203,371.31818 C 1035.4272,371.08095 1032.2247,367.28542 1032.2247,367.28542 L 1032.5806,367.64125" id="path1291" style="fill:none;fill-opacity:0.75000000;fill-rule:evenodd;stroke:#000000;stroke-width:0.25000000pt;stroke-linecap:butt;stroke-linejoin:miter;stroke-opacity:1.0000000"/>
    <path d="M 1196.4375,358.43750 C 1194.9988,358.43750 1184.4376,358.68751 1184.4375,358.68750 C 1184.4375,358.68750 1175.0739,358.90624 1173.8750,358.90625 C 1172.6761,358.90625 1163.2451,359.99202 1163.2450,359.99202 L 1141.4258,362.15066 L 1141.4258,363.86941 L 1157.5276,362.14827 L 1172.4694,361.32779 L 1188.6329,361.92952 L 1204.3277,361.37866 L 1222.8125,360.12500 L 1220.8750,358.68750 L 1208.9062,358.43750 C 1208.9062,358.43750 1197.8762,358.43750 1196.4375,358.43750 z " id="path1292" sodipodi:nodetypes="cccccccccccccc" style="fill:#ffffff;fill-opacity:1.0000000;fill-rule:evenodd;stroke:none;stroke-width:0.25000000pt;stroke-linecap:butt;stroke-linejoin:miter;stroke-opacity:1.0000000"/>
    <path d="M 1307.1172,407.17872 C 1311.6986,407.33073 1317.6781,405.61304 1319.4368,399.50004 C 1320.8377,394.63077 1326.1230,393.09373 1325.5580,388.48758 L 1324.6402,387.90348 L 1322.3872,385.98431 L 1319.2164,384.81611 L 1317.6310,383.64791 L 1311.2059,386.90217 L 1308.9465,388.90756 L 1307.7792,391.24119 L 1307.1970,395.99741 L 1307.1960,401.33866 L 1306.8586,405.51263 L 1306.6111,406.76704 L 1307.1172,407.17872 z " id="path1293" sodipodi:nodetypes="csccccccccccccc" style="fill:#eeeff6;fill-opacity:1.0000000;fill-rule:evenodd;stroke:#000000;stroke-width:0.25000000pt;stroke-linecap:butt;stroke-linejoin:miter;stroke-opacity:1.0000000"/>
    <path d="M 1300.2220,446.82986 L 1299.0231,428.69625 L 1297.9741,427.49733 L 1236.6795,431.84340 L 1226.0391,431.99327 L 1221.2434,432.59273 L 1218.8456,434.99056 C 1218.8456,434.99056 1219.2952,441.73446 1219.2952,442.33392 C 1219.2952,442.93338 1220.0445,450.87620 1220.0445,450.87620 L 1221.2434,454.62282 L 1232.1835,453.72363 L 1277.4426,449.97702 L 1293.4781,448.47837 L 1299.7725,448.02878 L 1300.2220,446.82986 z " id="path1294" sodipodi:nodetypes="ccccccccccccccc" style="fill:none;fill-opacity:0.75000000;fill-rule:evenodd;stroke:#000000;stroke-width:0.25000000pt;stroke-linecap:butt;stroke-linejoin:miter;stroke-opacity:1.0000000"/>
    <path d="M 876.32337,364.62544 L 840.94754,365.02743 L 840.34454,359.90196 L 840.34454,356.18348 L 839.44005,355.68098 L 836.42506,355.37948 L 831.70158,356.28398 L 827.98310,357.99247 L 827.98310,363.21844 L 828.18410,367.64042 L 830.89759,375.17789 L 832.50558,376.28338 L 835.42007,375.88138 L 838.93755,374.97689 L 840.64604,373.77089 L 840.64604,371.55990 L 848.58550,371.35890 L 870.59490,370.95691 L 872.30339,369.44941 L 876.32337,364.62544 z " id="path1295" style="fill:#424348;fill-opacity:1.0000000;fill-rule:evenodd;stroke:#000000;stroke-width:0.25000000pt;stroke-linecap:butt;stroke-linejoin:miter;stroke-opacity:1.0000000"/>
    <path d="M 840.29506,365.08648 L 840.37146,366.84381 L 873.53153,366.23256 C 873.53153,366.23256 873.98996,366.38537 874.29558,366.00334 C 874.60121,365.62132 875.67089,364.70445 875.67089,364.70445 L 873.45512,364.62804 L 840.82990,364.85726 L 840.29506,365.08648 z " id="path1296" style="fill:none;fill-opacity:0.75000000;fill-rule:evenodd;stroke:#000000;stroke-width:0.25000000pt;stroke-linecap:butt;stroke-linejoin:miter;stroke-opacity:1.0000000"/>
    <path d="M 838.46439,357.33765 L 835.75060,357.52699 L 833.73103,357.65321 L 830.82791,358.53677 L 828.80835,358.78922 L 828.05101,357.84255 L 830.89102,357.02210 C 830.89102,357.02210 833.35237,356.01232 833.66792,355.94920 C 833.98348,355.88609 835.56126,355.69676 835.87682,355.69676 C 836.19238,355.69676 837.26527,355.69676 837.58083,355.69676 C 837.89639,355.69676 839.53728,355.88609 839.53728,355.88609 L 840.23151,356.45409 L 840.29462,357.27454 L 838.46439,357.33765 z " id="path1297" style="fill:none;fill-opacity:0.75000000;fill-rule:evenodd;stroke:#000000;stroke-width:0.25000000pt;stroke-linecap:butt;stroke-linejoin:miter;stroke-opacity:1.0000000"/>
    <path d="M 1005.5866,366.77336 L 997.62454,355.27253 L 987.89306,340.67531 L 981.25797,332.49203 L 975.72872,327.84746 L 967.98777,324.52991 L 960.02566,324.52991 L 951.17886,325.41459 L 942.55323,327.84746 L 935.91814,329.61682 L 932.15825,330.94384 L 920.87858,336.69426 L 912.03179,342.44467 L 904.06967,348.41626 L 897.65575,353.28200 L 888.14544,362.12879 L 881.28917,368.76389 L 875.75993,374.29314 L 870.89419,379.82238 L 869.34600,381.59174 L 870.23068,381.81291 L 886.81842,364.78283 L 896.32873,355.71487 L 908.49307,346.20456 L 918.44572,339.34829 L 927.07134,334.48256 L 934.36995,331.16501 L 943.88025,328.06863 L 951.62120,326.29927 L 957.59279,325.19342 L 964.22788,325.19342 L 970.64181,326.29927 L 975.94989,329.17448 L 981.03680,333.37671 L 985.23902,338.90595 L 989.88359,345.54105 L 994.74933,352.61849 L 999.39390,359.25358 L 1002.7114,365.00400 L 1004.7020,367.87921 L 1005.5866,366.77336 z " id="path1298" style="fill:none;fill-opacity:0.75000000;fill-rule:evenodd;stroke:#000000;stroke-width:0.25000000pt;stroke-linecap:butt;stroke-linejoin:miter;stroke-opacity:1.0000000"/>
    <path d="M 1092.1442,396.85040 C 1099.2486,396.36176 1102.6975,398.06276 1106.3889,400.69029 C 1110.7680,406.26367 1115.1470,411.83706 1119.5261,417.41044 L 1182.7045,414.35088 L 1166.1072,399.04724 C 1153.2585,394.67285 1134.2173,390.93908 1114.7489,392.33022 C 1104.4380,393.05397 1098.3979,393.35065 1092.1442,396.85040 z " id="path1299" sodipodi:nodetypes="ccccccc" style="fill:#eeeff6;fill-opacity:1.0000000;fill-rule:evenodd;stroke:#000000;stroke-width:0.25000000pt;stroke-linecap:butt;stroke-linejoin:miter;stroke-opacity:1.0000000"/>
    <path d="M 1183.8767,413.07941 C 1185.2988,412.90658 1186.7559,413.33439 1188.1591,412.98908 C 1188.7165,412.49219 1187.4492,411.57451 1187.2700,410.89637 C 1185.5165,407.91435 1183.8102,404.89623 1181.7659,402.09945 C 1180.8728,400.76219 1179.9914,399.41704 1179.1245,398.06265 C 1178.5212,396.84030 1179.9825,396.19593 1180.9858,396.50883 C 1183.5264,396.77174 1185.4195,398.70146 1187.2156,400.33011 C 1190.0984,402.84797 1193.0840,405.30115 1195.4310,408.35197 C 1196.6613,409.79020 1197.8814,411.23729 1199.0835,412.69922 C 1200.5966,413.59566 1201.9659,414.86255 1203.7452,415.20064 C 1204.5612,415.82937 1205.0761,415.02364 1204.2400,414.46611 C 1203.1747,412.51270 1201.3485,411.19379 1199.6720,409.80800 C 1195.6831,406.39054 1192.1892,402.45559 1188.5801,398.65277 C 1186.7459,397.19341 1184.8766,395.70115 1182.6742,394.83464 C 1180.7177,395.16699 1178.4897,394.55357 1176.7682,395.79363 C 1175.9493,396.59926 1176.5558,397.85454 1177.0839,398.66812 C 1178.0690,400.47428 1179.1810,402.20720 1180.2650,403.95529 C 1180.7023,405.04419 1179.6073,405.95714 1178.5682,405.74429 C 1177.5819,405.74564 1176.7168,405.26775 1175.9599,404.67826 C 1174.8137,403.88742 1173.7352,402.97933 1172.5348,402.27871 C 1173.2524,403.27065 1174.2232,404.09667 1175.0352,405.02674 C 1176.4498,406.49215 1177.3899,408.42949 1179.1787,409.50656 C 1180.7629,410.67311 1182.3512,411.83615 1183.8767,413.07941 z " id="path1300" style="fill:url(#linearGradient29528);fill-opacity:1.0000000;fill-rule:evenodd;stroke:none;stroke-width:0.25000000pt;stroke-linecap:butt;stroke-linejoin:miter;stroke-opacity:1.0000000"/>
    <path d="M 1205.1486,415.10055 L 1212.7783,415.10055 L 1221.7349,415.26641 L 1229.0328,415.10055 L 1232.5159,414.60296 L 1236.6625,413.93951 L 1239.6480,413.27606 L 1234.1746,412.94433 L 1226.2132,412.94433 L 1220.4080,413.27606 C 1220.4080,413.27606 1215.2662,413.27606 1214.2710,413.27606 C 1213.2758,413.27606 1208.9634,413.27606 1208.9634,413.27606 L 1206.4755,413.27606 L 1204.1534,413.27606 L 1205.1486,415.10055 z " id="path1301" style="fill:#f9abab;fill-opacity:1.0000000;fill-rule:evenodd;stroke:#f45151;stroke-width:0.25000000pt;stroke-linecap:butt;stroke-linejoin:miter;stroke-opacity:1.0000000"/>
    <path d="M 1051.0689,439.47281 L 1047.2475,445.05791 L 1052.8326,444.17605 L 1052.2447,441.82443 L 1051.0689,439.47281 z " id="path1303" style="fill:#eeeff6;fill-opacity:1.0000000;fill-rule:evenodd;stroke:#000000;stroke-width:0.25000000pt;stroke-linecap:butt;stroke-linejoin:miter;stroke-opacity:1.0000000"/>
    <path d="M 1054.0084,452.40672 L 1051.0689,452.70067 L 1048.7173,454.75834 L 1047.5415,456.81601 L 1047.8354,458.87368 L 1049.5991,460.34344 L 1049.5991,462.69506 L 1049.8931,465.34063 L 1048.7173,467.69225 L 1047.5415,469.16202 L 1047.8354,471.80759 L 1049.5991,473.27735 L 1052.2447,473.57131 L 1054.0084,473.57131 L 1054.5963,470.63178 L 1054.5963,468.86806 L 1052.5387,467.69225 L 1052.2447,465.92854 L 1051.6568,461.22530 L 1052.2447,458.87368 L 1054.0084,457.69787 L 1054.0084,454.17044 L 1052.2447,452.70067 L 1054.0084,452.40672 z " id="path1304" style="fill:#eeeff6;fill-opacity:1.0000000;fill-rule:evenodd;stroke:#000000;stroke-width:0.25000000pt;stroke-linecap:butt;stroke-linejoin:miter;stroke-opacity:1.0000000"/>
    <path d="M 1037.9759,515.34124 L 1043.6189,509.69825 L 1050.1084,500.66946 L 1054.3406,486.27984 L 1055.7514,474.71171 L 1055.7514,464.83647 L 1054.9049,452.98619 L 1052.6477,438.31442 L 1049.2619,425.05339 L 1045.0297,419.12825 L 1039.3867,413.76741 L 1032.0508,412.63881 L 1025.8435,412.35667 L 1018.2255,417.71751 L 1012.5825,426.18199 L 1009.4788,433.23573 L 1006.6573,444.52171 L 1004.9644,454.67909 L 1004.9644,464.83647 L 1006.0930,481.76544 L 1007.5038,490.51208 L 1010.8896,500.38731 L 1015.6861,509.13395 L 1021.0470,513.64834 L 1023.5863,516.18768 L 1027.8186,517.03413 L 1032.3329,517.03413 L 1037.9759,515.34124 z " id="path1311" style="fill:#eeeff6;fill-opacity:1.0000000;fill-rule:evenodd;stroke:#000000;stroke-width:0.25000000pt;stroke-linecap:butt;stroke-linejoin:miter;stroke-opacity:1.0000000"/>
    <path d="M 1002.9382,504.50804 L 998.48720,492.57122 L 995.25009,483.06224 L 993.02459,475.98108 L 989.98980,464.24658 L 966.31850,464.24658 L 940.01704,466.26977 L 927.87791,466.47209 L 916.54805,467.68600 L 905.21820,467.68600 L 896.11385,467.68600 L 890.44892,468.29296 L 886.20022,471.12542 L 884.78399,478.40890 L 885.18863,485.69238 L 885.79558,493.38050 L 885.79558,499.04543 L 885.99790,505.11499 L 887.81877,506.93586 L 897.93472,507.13818 L 946.28893,506.32891 L 971.57879,506.32891 C 971.57879,506.32891 984.52719,506.12659 985.33647,506.12659 C 986.14574,506.12659 993.63154,506.12659 993.63154,506.12659 L 1002.9382,504.50804 z " id="path1320" style="fill:none;fill-opacity:0.75000000;fill-rule:evenodd;stroke:#000000;stroke-width:0.25000000pt;stroke-linecap:butt;stroke-linejoin:miter;stroke-opacity:1.0000000"/>
    <path d="M 884.58167,476.18339 L 883.36776,481.64600 L 883.16544,487.31093 L 883.97471,491.96427 L 883.97471,496.41528 L 883.97471,500.66398 L 883.97471,503.29412 L 882.76080,504.71036 L 875.67964,503.69876 L 869.81239,503.90108 L 865.96834,503.90108 L 864.55210,499.45006 L 864.34978,496.81992 L 863.74283,505.11499 L 864.34978,506.93586 L 872.03790,507.34050 L 884.58167,507.34050 L 887.00950,507.34050 L 885.18863,504.30572 L 885.18863,499.24775 L 884.98631,491.15499 L 884.37935,486.29934 L 884.58167,476.18339 z " id="path1321" style="fill:none;fill-opacity:0.75000000;fill-rule:evenodd;stroke:#000000;stroke-width:0.25000000pt;stroke-linecap:butt;stroke-linejoin:miter;stroke-opacity:1.0000000"/>
    <path d="M 913.62678,388.42777 L 906.97725,396.10030 L 904.93124,400.19232 L 904.41974,400.19232" id="path1322" style="fill:none;fill-opacity:0.75000000;fill-rule:evenodd;stroke:#000000;stroke-width:0.25000000pt;stroke-linecap:butt;stroke-linejoin:miter;stroke-opacity:1.0000000"/>
    <path d="M 1001.7526,413.16361 L 1001.7526,396.79574 L 1002.0209,390.08759 L 1006.0458,384.18443 L 1003.3625,384.18443 L 1000.4109,392.23420 L 1000.4109,407.79710 L 1000.4109,413.96859 L 1001.7526,415.04189 L 1001.7526,413.16361 z " id="path1323" style="fill:none;fill-opacity:0.75000000;fill-rule:evenodd;stroke:#000000;stroke-width:0.25000000pt;stroke-linecap:butt;stroke-linejoin:miter;stroke-opacity:1.0000000"/>
    <path d="M 868.12058,433.48352 L 863.11419,425.97393 L 859.77659,421.80194 L 856.93964,418.13059 L 854.26956,416.29491 L 852.10012,415.12675 L 851.43260,415.46051 L 856.27212,420.30002 L 849.59693,415.46051 L 847.59437,414.12547 L 844.42366,412.79044 L 842.58798,412.95731 L 841.75358,412.95731 L 839.91790,412.95731 L 838.24910,413.45795 L 836.74719,414.79299 L 836.07967,415.29363 L 834.74463,415.62739 L 834.91151,414.45923 L 837.91535,413.12419 L 840.91918,411.45540 L 844.08989,410.62100 L 847.59437,410.62100 L 850.26445,410.62100 L 854.77020,409.95348 L 858.27467,409.61972 L 861.77915,409.45284 L 863.61482,410.78788 C 863.61482,410.78788 865.61738,411.95604 866.45178,413.12419 C 867.28618,414.29235 868.62122,416.79555 869.28874,417.46307 C 869.95625,418.13059 872.12569,421.80194 872.12569,421.80194 L 866.28490,414.95987 L 863.28106,412.12292 L 861.44539,412.28980 C 861.44539,412.28980 862.61355,414.45923 863.44794,414.95987 C 864.28234,415.46051 866.95242,418.79811 866.95242,418.79811 L 869.62249,421.46818 C 869.62249,421.46818 871.12441,423.63762 871.45817,424.47202 C 871.79193,425.30642 872.96009,427.30897 872.96009,427.30897 L 873.62761,428.64401 L 868.95498,425.13954 C 868.95498,425.13954 866.45178,422.30258 866.11802,421.63506 C 865.78426,420.96754 864.11546,419.29874 863.44794,418.29747 C 862.78043,417.29619 860.94475,414.95987 860.94475,414.95987 L 860.77787,415.12675 L 862.11291,419.46562 C 862.11291,419.46562 864.44922,421.96882 865.11674,422.63634 C 865.78426,423.30386 867.61994,425.97393 867.61994,425.97393 L 867.78682,430.47969 L 868.12058,433.48352 z " id="path1324" sodipodi:nodetypes="cccccccccccccccccccccccccccccccccccccccccccccccccc" style="fill:#fcc8c8;fill-opacity:1.0000000;fill-rule:evenodd;stroke:none;stroke-width:0.25000000pt;stroke-linecap:butt;stroke-linejoin:miter;stroke-opacity:1.0000000"/>
    <path d="M 1129.8912,456.41518 L 1117.2452,453.83916 L 1109.2830,450.79477 L 1101.0866,446.57947 L 1094.7636,440.25650 L 1090.5483,433.46518 L 1083.7570,421.28762 L 1080.9468,413.79374 L 1077.6682,406.53404 L 1074.3896,401.14782 L 1072.2820,397.16669 L 1071.3452,397.40088 L 1073.6871,401.61618 L 1077.9024,410.51517 L 1081.6493,419.41415 L 1085.1621,426.43966 L 1087.7381,432.29426 L 1091.4850,438.14885 L 1094.5294,443.30089 L 1098.2764,446.81365 L 1102.9600,450.09222 L 1107.8779,452.43406 L 1113.2641,454.07335 L 1117.2452,455.47845 L 1121.4606,456.41518 L 1124.2708,456.88355 L 1126.6126,457.35192 L 1129.8912,456.41518 z " id="path1325" style="fill:#bd0000;fill-opacity:1.0000000;fill-rule:evenodd;stroke:none;stroke-width:0.25000000pt;stroke-linecap:butt;stroke-linejoin:miter;stroke-opacity:1.0000000"/>
    <path d="M 1090.0799,396.69833 L 1081.4151,395.99577 L 1074.6238,395.52741 L 1071.8136,395.52741 L 1070.6427,396.69833 L 1069.7059,396.69833 L 1069.7059,393.41975 L 1068.7692,389.67281 L 1067.5983,386.86261 L 1064.7881,384.28659 L 1062.6804,383.81822 L 1057.9968,382.88148 L 1053.0789,383.11567 L 1047.6927,382.64730 L 1045.3508,381.71057 L 1021.4641,372.34321 L 1017.0146,368.59627 L 1011.6766,365.07388 L 1009.8609,363.67842 L 1017.0146,362.03913 L 1022.7632,360.46731 L 1027.2801,364.40988 L 1031.7585,369.07428 L 1035.5151,372.34321 L 1045.3508,376.09015 C 1045.3508,376.09015 1054.4840,377.49526 1055.4207,377.49526 L 1066.1932,380.30547 L 1071.5794,382.41312 L 1077.6682,384.75495 L 1083.2886,387.33098 L 1087.5039,389.20445 L 1093.5927,391.07792 L 1095.4662,392.95139 L 1094.9978,394.59067 L 1088.9090,397.16669 L 1090.0799,396.69833 z " id="path1326" sodipodi:nodetypes="cccccccccccccccccccccccccccccccccccc" style="color:#000000;fill:#fefefe;fill-opacity:0.73584908;fill-rule:evenodd;stroke:none;stroke-width:0.25000000pt;stroke-linecap:butt;stroke-linejoin:miter;stroke-miterlimit:4.0000000;stroke-dashoffset:0.0000000;stroke-opacity:1.0000000;marker:none;marker-start:none;marker-mid:none;marker-end:none;visibility:visible;display:block"/>
    <path d="M 1328.9663,482.12864 L 1323.6673,489.41473 L 1317.0436,494.71370 L 1311.7447,497.36319 L 1303.1338,499.35031 L 1296.5101,500.01268 L 1287.8993,500.01268 L 1278.6261,500.01268 L 1273.3271,500.01268 L 1269.3529,499.35031 L 1263.3915,496.70082 L 1258.0925,492.72659 L 1256.7678,490.73947 L 1229.6106,494.71370 L 1213.0513,494.71370 L 1198.4791,496.70082 L 1229.6106,490.07710 L 1252.1312,487.42762 L 1274.6518,484.77813 L 1289.2240,482.79101 L 1302.4714,482.12864 L 1319.0307,482.12864 L 1328.9663,482.12864 z " id="path1327" sodipodi:nodetypes="ccccccccccccccccccccccc" style="fill:#000000;fill-opacity:1.0000000;fill-rule:evenodd;stroke:#000000;stroke-width:0.25000000pt;stroke-linecap:butt;stroke-linejoin:miter;stroke-opacity:1.0000000"/>
    <path d="M 1176.8646,482.83072 L 1172.3002,481.21975 L 1169.6152,480.41426 L 1166.2590,478.40055 L 1163.5741,477.05808 L 1161.1576,475.58136 L 1159.8151,474.37313 L 1158.2042,473.03066 C 1158.2042,473.03066 1156.7275,471.68818 1157.3987,471.68818 C 1158.0699,471.68818 1160.0836,471.68818 1160.0836,471.68818 L 1162.5001,474.10463 L 1165.1850,476.25259 L 1167.7357,477.86356 L 1169.7495,479.20604 L 1171.3604,480.41426 L 1174.5824,482.15948 L 1176.8646,482.83072 z " id="path1328" style="fill:#ff0000;fill-opacity:1.0000000;fill-rule:evenodd;stroke:none;stroke-width:0.25000000pt;stroke-linecap:butt;stroke-linejoin:miter;stroke-opacity:1.0000000"/>
    <path d="M 1135.6379,463.02884 L 1136.7357,463.02884 L 1138.9311,465.38114 L 1142.3812,469.45848 L 1149.4381,476.04494 L 1154.1427,480.59274 L 1157.7496,483.57233 L 1160.8860,485.61100 L 1164.1793,487.80648 L 1166.8452,489.68833 L 1169.8248,491.72700 L 1173.1180,493.60884 L 1175.7840,494.70659 L 1177.8226,495.49069 L 1178.1363,496.43161 L 1177.5090,496.90208 L 1176.4113,496.27479 L 1174.0589,495.64751 L 1164.9634,490.31561 L 1154.1427,482.47458 L 1147.5563,476.20176 L 1142.2244,471.02668 L 1138.6175,467.10617 L 1136.1084,464.59704 L 1134.6970,462.87201 L 1135.6379,463.02884 z " id="path1329" style="fill:#ff0000;fill-opacity:1.0000000;fill-rule:evenodd;stroke:none;stroke-width:0.25000000pt;stroke-linecap:butt;stroke-linejoin:miter;stroke-opacity:1.0000000"/>
    <path d="M 1331.5928,479.48958 L 1304.0832,481.16955 L 1278.2535,483.26953 L 1245.4939,487.25948 L 1202.0245,492.50941 L 1189.4247,492.71940 L 1181.4448,493.55939 L 1177.8748,493.97939 L 1178.5048,496.28936 L 1179.5548,497.75934 L 1184.8047,497.54934 L 1194.0446,496.07936 L 1204.7545,494.60938 L 1254.7338,488.30946 L 1276.9935,485.57950 L 1287.2834,484.73951 L 1299.2532,483.89952 L 1310.8031,483.05953 L 1315.6330,482.21954 L 1325.0829,482.21954 L 1329.9128,481.79955 L 1331.5928,479.48958 z " id="path1330" style="color:#000000;fill:url(#linearGradient29529);fill-opacity:1.0000000;fill-rule:evenodd;stroke:none;stroke-width:0.24172204pt;stroke-linecap:butt;stroke-linejoin:miter;stroke-miterlimit:4.0000000;stroke-dashoffset:0.0000000;stroke-opacity:1.0000000;marker:none;marker-start:none;marker-mid:none;marker-end:none;visibility:visible;display:block"/>
    <path d="M 986.03275,379.04151 C 988.01772,371.03471 989.10207,362.25595 989.67179,353.09122 C 985.43341,346.60140 975.14804,331.49139 967.69318,329.37599 C 953.91294,327.54697 944.63578,331.25031 937.15985,335.08231 L 933.70953,343.21969 L 929.41546,356.09064 L 926.94361,364.84080 L 925.21574,374.21987 L 924.93540,380.84761 L 953.28146,381.63654 L 971.47662,381.63654 L 986.03275,379.04151 z " id="path2576" sodipodi:nodetypes="cccccccccccc" style="fill:url(#linearGradient29530);fill-opacity:1.0000000;fill-rule:evenodd;stroke:none;stroke-width:0.24172204pt;stroke-linecap:butt;stroke-linejoin:miter;stroke-opacity:1.0000000"/>
    <path d="M 994.55419,319.99741 L 1041.9135,316.75362 L 1081.4877,315.45611 L 1107.4380,316.10486 L 1128.1982,316.75362 L 1146.3634,325.18747 L 1161.9336,331.67504 L 1178.1525,339.46013 L 1189.8301,347.24521 L 1198.9127,351.78651 L 1206.6978,356.97657 L 1154.7972,356.97657 L 1109.3842,358.92285 L 1069.1613,363.46415 L 1049.0498,364.76166 L 1033.4796,364.76166 L 1026.3433,360.86912 L 1017.2607,348.54273 L 994.55419,319.99741 z " id="path1869" style="fill:url(#linearGradient29531);fill-opacity:1.0000000;fill-rule:evenodd;stroke:#000000;stroke-width:0.25000000pt;stroke-linecap:butt;stroke-linejoin:miter;stroke-opacity:1.0000000"/>
    <path d="M 1217.7267,356.97657 L 1205.4003,356.97657 L 1182.0450,341.40640 L 1162.5823,331.67504 L 1141.8221,322.59244 L 1130.7932,316.75362 L 1140.5246,319.34865 L 1150.1257,323.15875 L 1174.3424,333.91640 L 1193.7227,342.70391 L 1208.6441,350.48900 L 1217.7267,356.97657 z " id="path1270" sodipodi:nodetypes="cccccccccccc" style="fill:none;fill-opacity:0.75000000;fill-rule:evenodd;stroke:#000000;stroke-width:0.25000000pt;stroke-linecap:butt;stroke-linejoin:miter;stroke-opacity:1.0000000"/>
    <path d="M 1203.7242,355.77230 L 1193.0306,355.77230 C 1178.9235,343.47699 1154.2599,328.11726 1123.9503,316.48884 L 1127.8762,316.99108 L 1138.3811,321.75101 L 1161.9170,331.87843 L 1179.3962,340.05477 L 1194.6416,349.28473 L 1203.7242,355.77230 z " id="path3116" sodipodi:nodetypes="ccccccccc" style="fill:#040001;fill-opacity:1.0000000;fill-rule:evenodd;stroke:#000000;stroke-width:0.25000000pt;stroke-linecap:butt;stroke-linejoin:miter;stroke-opacity:1.0000000"/>
    <path d="M 927.40293,338.49863 L 921.59794,350.27934 L 918.18324,361.20638 L 913.74413,374.86517 L 912.03678,380.32869 L 888.30463,379.98722 L 877.20686,379.64575 L 885.57287,370.59680 L 895.13403,361.37711 L 906.23180,352.66963 L 913.91487,346.52317 L 919.54912,342.59627 L 927.40293,338.49863 z " id="path11815" style="color:#000000;fill:url(#linearGradient29532);fill-opacity:1.0000000;fill-rule:evenodd;stroke:none;stroke-width:0.24172204pt;stroke-linecap:butt;stroke-linejoin:miter;stroke-miterlimit:4.0000000;stroke-dashoffset:0.0000000;stroke-opacity:1.0000000;marker:none;marker-start:none;marker-mid:none;marker-end:none;visibility:visible;display:block"/>
    <path d="M 1081.1025,497.47007 L 1077.3430,496.37569 L 1075.8778,495.59521 L 1074.8550,494.14325 L 1074.3619,492.76996 L 1073.4965,491.51117 L 1070.9789,491.51117 L 1068.2253,491.51117 L 1066.3371,491.82587 C 1066.3371,491.82587 1066.3371,493.47802 1066.7305,493.63537 C 1067.1239,493.79272 1068.1466,494.34344 1068.5400,494.65814 C 1068.9334,494.97283 1071.2149,496.38897 1071.2149,496.38897 C 1071.2149,496.38897 1073.5120,497.05494 1073.9841,497.29096 C 1074.4561,497.52699 1079.2173,498.02705 1081.1025,497.47007 z " id="path18648" sodipodi:nodetypes="cccccccccccccc" style="fill:#ffffff;fill-opacity:0.72830188;fill-rule:evenodd;stroke:none;stroke-width:0.25000000pt;stroke-linecap:butt;stroke-linejoin:miter;stroke-opacity:1.0000000"/>
    <path d="M 1340.8446,476.03318 L 1345.6131,473.78919 L 1348.1376,469.02071 L 1350.9426,464.81323 L 1352.3451,459.20326 L 1354.5891,454.71529 L 1355.7111,450.78831 L 1356.5526,448.82482 L 1358.5160,446.01983 L 1359.3575,445.17834 L 1358.2355,444.61734 L 1354.8696,446.01983 L 1351.5036,447.42233 L 1348.9791,450.78831 L 1347.0156,454.99579 L 1344.2106,460.04476 L 1343.0886,463.13024 L 1341.1251,467.33772 L 1340.5641,470.14271 L 1340.0031,472.38669 L 1339.1616,474.06969 L 1340.8446,476.03318 z " id="path19891" style="fill:#000000;fill-opacity:1.0000000;fill-rule:evenodd;stroke:#000000;stroke-width:0.25000000pt;stroke-linecap:butt;stroke-linejoin:miter;stroke-opacity:1.0000000"/>
    <path d="M 1176.9594,497.08615 L 1143.7668,501.22956 L 1112.2386,501.99854 L 1094.5521,501.22956 L 1083.7864,498.15365 L 1076.0966,495.84671 L 1073.7897,492.00182 L 1073.7897,451.24594 L 1082.2485,458.93573 L 1091.4762,461.24267 L 1103.0109,462.78062 L 1113.7766,463.54960 L 1124.5423,464.31858 L 1134.6656,462.93744 L 1142.2137,470.94087 L 1151.2846,480.13838 L 1160.2139,487.23113 L 1168.0605,492.33058 L 1176.9594,497.08615 z " id="path1267" sodipodi:nodetypes="ccccccccccccccccccc" style="fill:url(#linearGradient29533);fill-opacity:1.0000000;fill-rule:evenodd;stroke:none;stroke-width:0.25000000pt;stroke-linecap:butt;stroke-linejoin:miter;stroke-opacity:1.0000000"/>
    <path d="M 957.96875,322.71875 C 955.43946,322.88978 952.94939,323.31938 950.53125,324.15625 C 946.24288,325.00174 943.19157,326.12427 936.34375,328.06250 L 930.96875,330.50323 L 915.93750,338.50000 L 905.12500,346.31250 L 891.59375,358.03125 L 876.25000,373.37500 L 868.12500,382.09375 L 872.65625,381.50000 L 887.68750,366.15625 L 905.71875,349.62500 L 918.34375,340.90625 L 926.18750,336.68750 L 928.28125,336.37500 C 921.46526,350.20745 916.43393,365.65988 912.62500,380.09375 L 920.15625,380.28125 C 922.61828,364.77955 927.18115,349.95235 933.62500,333.90625 C 937.89525,332.33311 943.31720,329.99654 947.18750,328.87500 C 954.95396,327.29988 959.23548,326.72106 965.68750,327.28125 C 968.47564,328.37892 971.82239,328.55681 973.84375,331.06250 C 978.58214,335.40940 982.60065,340.47065 986.65625,345.43750 C 988.27795,347.77453 989.97224,350.14733 990.84375,352.87500 C 991.48288,355.43902 990.39746,357.99014 990.28125,360.56250 C 989.49610,366.44304 989.02259,372.41404 987.62500,378.18750 C 988.88498,379.78381 992.36606,378.20475 994.50000,378.65625 C 997.93299,378.57547 1001.3795,378.48703 1004.8125,378.40625 C 1006.4725,375.53154 1005.5684,372.04626 1005.1250,368.96875 C 1004.3347,365.94056 1003.3920,362.95830 1002.4688,359.96875 C 996.40815,351.42515 983.55017,329.69710 974.75000,325.81250 C 971.85114,324.38628 968.98779,322.42730 965.59375,322.75000 C 963.06930,322.62522 960.49804,322.54772 957.96875,322.71875 z " id="path22999" sodipodi:nodetypes="cccccccccccccccccccccccccccccccc" style="fill:url(#linearGradient29534);fill-opacity:1.0000000;fill-rule:evenodd;stroke:#000000;stroke-width:0.25000000pt;stroke-linecap:butt;stroke-linejoin:miter;stroke-opacity:1.0000000"/>
    <path d="M 996.51136,367.96756 L 985.09900,369.23560 L 980.02683,368.60158 L 977.17374,366.06550 L 973.68663,364.48045 C 971.43019,363.62947 966.77508,363.04500 961.53363,363.89973 C 959.18643,364.40844 957.53218,365.18367 956.25106,366.06550 C 953.38672,367.75622 952.22810,369.50024 951.65582,371.13766 C 951.21256,372.03539 951.08912,373.25295 950.96569,373.99076 C 950.79547,377.49100 953.23712,379.33881 954.66601,380.01395 L 957.51911,381.59900 L 961.64024,381.91601 L 967.02941,381.91601 L 970.51653,381.28199 L 974.32065,379.69694 L 977.17374,377.79488 L 979.39281,375.57581 L 981.61188,372.40571 L 986.36704,372.40571 L 990.80518,372.40571 L 994.29229,372.08870 L 994.92631,373.67375 L 996.19435,374.94179 L 997.77941,373.99076 L 998.73044,370.50364 L 996.51136,367.96756 z " id="path1288" sodipodi:nodetypes="cccccccccccccccccccccccccc" style="fill:#000000;fill-opacity:1.0000000;fill-rule:evenodd;stroke:#000000;stroke-width:0.25000000pt;stroke-linecap:butt;stroke-linejoin:miter;stroke-opacity:1.0000000"/>
    <path d="M 951.22540,373.28381 C 952.45962,373.15628 953.72297,372.99592 954.81611,372.36835 C 956.08207,372.33293 956.53925,371.25613 956.88196,370.21698 C 957.32538,368.83488 958.89401,368.74072 960.10103,368.46804 C 961.56875,368.41936 963.04323,368.38063 964.51463,368.34985 C 965.67751,368.52172 966.77199,369.10866 967.78879,369.66677 C 968.98459,370.37730 968.53115,372.27656 969.84610,372.75087 C 971.34041,373.29020 971.66512,371.56124 972.61515,370.99244 C 973.66256,370.68599 974.49490,371.81801 975.57153,371.63943 C 977.34294,371.60345 976.13462,369.88204 976.25488,368.95828 C 976.79862,367.97118 978.97879,369.22428 978.75317,367.72305 C 978.13902,366.83337 976.98277,366.56554 976.08864,366.04163 C 973.91510,364.97179 971.59398,364.09688 969.14344,364.04003 C 966.44322,363.83864 963.67548,363.73253 961.01575,364.30872 C 957.12207,365.37534 953.28617,367.74004 951.61556,371.56147 C 951.48551,372.13559 951.35545,372.70970 951.22540,373.28381 z " id="path1289" style="fill:#c3c4cf;fill-opacity:1.0000000;fill-rule:evenodd;stroke:none;stroke-width:0.25000000pt;stroke-linecap:butt;stroke-linejoin:miter;stroke-opacity:1.0000000"/>
    <path d="M 862.04207,383.50296 L 862.04207,383.50296 z " id="path23630" style="fill:none;fill-opacity:0.75000000;fill-rule:evenodd;stroke:#000000;stroke-width:0.25000000pt;stroke-linecap:butt;stroke-linejoin:miter;stroke-opacity:1.0000000"/>
    <path d="M 879.51589,367.32350 L 897.96049,349.52608 L 906.37381,343.37788 L 918.67021,335.28815 L 927.73071,330.43431 L 940.02711,325.58047 C 944.23377,324.50184 948.44043,323.42320 952.64709,322.34457 C 955.23581,322.02098 957.82452,321.69740 960.41324,321.37381 L 969.15015,321.69740 L 974.00399,322.34457 L 978.21065,324.28611 L 982.74090,328.49277 L 988.88910,335.28815 L 993.09576,341.43635 L 998.27319,348.87890 L 1002.8034,355.67428 L 1005.7157,360.20453 L 1008.3045,363.44042 L 1023.8231,359.53671 L 991.83662,318.99679 L 1085.3187,313.93125 L 1102.4690,314.90202 L 1109.2643,313.93125 L 1103.7633,312.31330 L 1042.2813,311.66613 L 1004.7450,311.98971 L 981.20779,313.84642 C 975.01351,314.13650 969.63607,314.83499 962.82918,316.35031 C 954.76248,317.04324 945.06212,320.79929 936.79121,324.14692 L 915.90230,334.75057 L 899.43404,345.20982 L 883.07538,359.23376 L 874.33846,369.26503 L 863.66002,380.59066 L 862.04207,384.47373 L 879.51589,367.32350 z " id="path23631" sodipodi:nodetypes="cccccccccccccccccccccccccccccccccccc" style="fill:#fcc8c8;fill-opacity:1.0000000;fill-rule:evenodd;stroke:none;stroke-width:0.25000000pt;stroke-linecap:butt;stroke-linejoin:miter;stroke-opacity:1.0000000"/>
    <path d="M 1007.8972,365.06322 L 1019.4202,362.31966 L 1002.9588,339.27376 L 997.47173,331.04309 L 991.43590,323.36112 L 988.36389,319.95288" id="path1282" sodipodi:nodetypes="cccccc" style="fill:none;fill-opacity:0.75000000;fill-rule:evenodd;stroke:#000000;stroke-width:0.25000000pt;stroke-linecap:butt;stroke-linejoin:miter;stroke-opacity:1.0000000"/>
    <path d="M 1348.7771,438.91213 L 1342.4532,440.43956 L 1326.5463,443.17725 L 1304.0077,446.09639 L 1301.8496,446.42632 L 1301.9627,445.61058 L 1323.1516,442.86381 L 1333.9306,440.80817 L 1344.9839,438.88047 L 1347.5443,438.40411 L 1348.7771,438.91213 z " id="path24883" style="color:#000000;fill:#bd0000;fill-opacity:1.0000000;fill-rule:evenodd;stroke:none;stroke-width:0.25000000pt;stroke-linecap:butt;stroke-linejoin:miter;stroke-miterlimit:4.0000000;stroke-dashoffset:0.0000000;stroke-opacity:1.0000000;marker:none;marker-start:none;marker-mid:none;marker-end:none;visibility:visible;display:block"/>
    <path d="M 1141.5000,362.21875 L 1102.9062,365.40625 C 1102.9062,365.40625 1085.8864,368.28126 1084.6875,368.28125 C 1083.4886,368.28125 1074.6155,368.97897 1073.6562,369.21875 C 1072.6971,369.45853 1065.0314,369.93749 1065.0312,369.93750 C 1065.0312,369.93750 1058.0102,371.20733 1058.2500,372.40625 C 1058.4898,373.60516 1067.0269,375.40888 1071.7812,375.62500 L 1074.2500,376.50000 L 1088.5938,379.50000 L 1105.3750,380.78125 L 1163.3438,381.21875 L 1181.5625,381.21875 L 1210.3438,381.21875 L 1268.3750,384.81250 L 1292.8125,388.40625 L 1295.6875,391.53125 L 1298.0938,394.65625 L 1299.3125,396.71875 L 1299.0625,393.96875 L 1297.7812,391.40625 L 1294.5312,387.18750 L 1289.8438,383.78125 L 1285.8750,381.37500 L 1288.4375,382.06250 L 1290.1250,383.21875 L 1293.5312,385.62500 L 1296.5000,387.87500 L 1298.9062,390.84375 L 1301.3125,394.53125 C 1301.9438,396.03050 1302.2076,397.43277 1302.3438,398.81250 L 1304.8125,398.96875 L 1305.5312,396.31250 L 1305.5312,390.81250 L 1306.9688,389.37500 L 1308.8750,386.50000 L 1314.8750,384.34375 L 1313.1875,383.12500 L 1306.7188,381.68750 L 1292.8125,377.87500 L 1274.5938,373.78125 L 1253.9688,372.34375 C 1253.9688,372.34375 1230.6990,370.65626 1229.5000,370.65625 C 1228.3011,370.65625 1185.4064,368.28126 1185.4062,368.28125 L 1128.5625,369.21875 L 1136.9688,367.78125 L 1151.3438,366.12500 L 1171.9688,364.68750 L 1131.4375,365.15625 L 1141.2812,364.18750 L 1141.5000,364.15625 L 1141.5000,362.21875 z " id="path24255" style="fill:#fefefe;fill-opacity:0.73584908;fill-rule:evenodd;stroke:none;stroke-width:0.25000000pt;stroke-linecap:butt;stroke-linejoin:miter;stroke-opacity:1.0000000"/>
    <path d="M 1284.5934,381.32439 L 1290.0361,384.14149 L 1294.7066,387.53820 L 1297.9618,391.78409 L 1299.2355,394.33163 L 1299.5186,397.30375 L 1299.4222,399.78358 L 1297.4293,408.06163 L 1302.1102,407.47116 C 1302.5217,403.12632 1303.3942,399.39630 1301.5000,394.89775 L 1299.0940,391.21797 L 1296.6880,388.24585 L 1293.7159,385.98137 L 1290.3191,383.57537 L 1286.0720,381.20985 L 1284.5934,381.32439 z " id="path26752" sodipodi:nodetypes="cccccccccccccccc" style="fill:#d00000;fill-opacity:1.0000000;fill-rule:evenodd;stroke:none;stroke-width:0.25000000pt;stroke-linecap:butt;stroke-linejoin:miter;stroke-opacity:1.0000000"/>
    <path d="M 870.62231,417.76160 C 874.72539,421.22009 879.73455,423.92224 882.18630,428.94309 C 886.01430,434.73616 890.47142,440.10454 894.14852,445.97664 C 897.27043,449.17743 900.37927,452.37307 901.09983,456.93981 C 902.60560,460.76535 907.31157,461.32165 909.72765,464.13619 C 907.80580,466.29729 902.87937,463.97755 899.80097,464.53969 C 895.37711,463.41985 892.70128,459.27510 888.96300,456.93740 C 885.20856,452.93810 883.34524,447.60830 880.44876,443.01369 C 876.59497,435.58687 872.04241,428.15945 871.01216,419.70226 C 870.88983,419.05388 870.76217,418.40645 870.62231,417.76160 z " id="path26754" style="fill:#ff2e25;fill-opacity:1.0000000;fill-rule:evenodd;stroke:none;stroke-width:0.25000000pt;stroke-linecap:butt;stroke-linejoin:miter;stroke-opacity:1.0000000"/>
    <path d="M 1170.9081,491.49534 C 1171.7570,486.98514 1174.0826,485.71104 1170.9746,482.87347 C 1164.4677,477.16754 1155.5838,469.00527 1149.3810,462.96237 L 1138.9924,463.14075 C 1141.5397,466.05983 1149.0469,474.68649 1151.8516,477.43933 C 1155.0450,480.82841 1167.0751,488.95284 1170.9081,491.49534 z " id="path28654" sodipodi:nodetypes="cccccc" style="fill:#000000;fill-opacity:1.0000000;fill-rule:evenodd;stroke:#000000;stroke-width:0.25000000pt;stroke-linecap:butt;stroke-linejoin:miter;stroke-opacity:1.0000000"/>
    <path d="M 1218.9670,455.97714 L 1164.9560,461.15185 L 1147.4914,462.12210 L 1135.8483,462.76894 L 1109.0045,460.50501 L 1100.2722,459.53475 L 1089.5994,456.94740 L 1079.8968,450.80243 L 1076.0157,446.27456 L 1065.9898,429.45676 L 1058.2277,414.57948 C 1058.2277,414.57948 1050.4656,403.25981 1049.8188,401.96613 C 1049.1720,400.67245 1045.2909,396.14458 1045.2909,396.14458 L 1042.3801,392.58697 L 1041.7333,389.99962 L 1043.0270,387.08885 L 1043.6738,386.44201 L 1058.2277,387.73568 L 1062.4321,386.44201 L 1066.6366,387.41226 L 1068.2537,392.26355 L 1074.0752,403.90664 L 1080.2202,417.49025 L 1085.0715,428.16309 L 1092.8335,441.42327 L 1098.9785,448.21508 L 1106.7406,452.09611 L 1115.7963,455.33030 L 1124.5286,456.94740 L 1129.3799,457.91765 L 1135.8483,459.21133 L 1145.5509,460.50501 L 1161.0750,458.88791 L 1175.6289,457.91765 L 1189.5359,457.27082 L 1200.5321,455.97714 L 1209.5879,455.00688 L 1215.0860,455.00688 L 1219.2905,454.68346 L 1218.9670,455.97714 z " id="path28658" style="fill:#ff2e25;fill-opacity:1.0000000;fill-rule:evenodd;stroke:#ff2e25;stroke-width:0.25000000pt;stroke-linecap:butt;stroke-linejoin:miter;stroke-opacity:1.0000000"/>
    <path d="M 1110.2275,461.10361 C 1104.7894,460.64400 1099.2652,460.70595 1093.8825,459.90236 C 1090.0266,458.37407 1085.3262,458.27295 1082.4478,454.98052 C 1079.4069,452.21245 1075.8943,449.77762 1074.0222,446.00642 C 1070.1769,440.27005 1066.7160,434.29444 1063.8025,428.03068 C 1060.7658,422.08970 1057.9290,416.01130 1054.4773,410.30573 C 1051.4460,405.94808 1048.3134,401.65059 1044.3807,398.05235 C 1041.7179,395.15236 1037.8598,393.86947 1034.4869,391.99122 C 1031.1307,390.06905 1027.3934,390.71181 1023.7869,391.25319 C 1019.8867,391.48203 1016.8672,394.24847 1013.4916,395.90680 C 1015.8155,393.77052 1021.5855,390.80048 1021.7028,389.19806 C 1016.6338,388.54935 1011.5172,388.38555 1006.4305,387.90430 C 1007.1678,382.92935 1013.3378,385.62195 1016.7914,384.67538 C 1030.4911,384.08847 1044.2056,384.63248 1057.9128,384.58656 C 1059.7334,384.25078 1063.3436,384.66231 1062.5716,386.92362 C 1057.4485,387.90901 1052.2199,386.89531 1047.0455,386.88902 C 1043.6561,385.76435 1042.4316,387.95886 1041.7357,390.96408 C 1043.9033,395.02168 1046.2740,398.97754 1049.4938,402.29906 C 1052.3869,405.53465 1055.2469,408.84442 1056.8484,412.93821 C 1060.3371,420.48209 1064.7637,427.51020 1069.0091,434.63449 C 1072.6947,440.87032 1076.1091,447.56277 1081.9932,452.04839 C 1085.7686,455.26889 1090.2278,457.96722 1095.2313,458.58687 C 1100.1956,459.62377 1105.2437,460.17677 1110.2275,461.10361 z " id="path21755" style="color:#000000;fill:url(#linearGradient29535);fill-opacity:1.0000000;fill-rule:evenodd;stroke:none;stroke-width:0.24172204pt;stroke-linecap:butt;stroke-linejoin:miter;stroke-miterlimit:4.0000000;stroke-dashoffset:0.0000000;stroke-opacity:1.0000000;marker:none;marker-start:none;marker-mid:none;marker-end:none;visibility:visible;display:block"/>
    <path d="M 1040.4866,421.24775 L 1037.2531,425.65704 L 1036.6652,428.89051 L 1036.6652,432.12399 L 1036.9592,436.53328 L 1039.3108,442.11838 L 1041.3685,436.82723 L 1044.8959,432.12399 L 1047.5415,427.12680 L 1044.0140,423.59937 L 1040.4866,421.24775 z " id="path28668" style="color:#000000;fill:#000000;fill-opacity:1.0000000;fill-rule:evenodd;stroke:#000000;stroke-width:0.25000000pt;stroke-linecap:butt;stroke-linejoin:miter;stroke-miterlimit:4.0000000;stroke-dashoffset:0.0000000;stroke-opacity:1.0000000;marker:none;marker-start:none;marker-mid:none;marker-end:none;visibility:visible;display:block"/>
    <path d="M 1051.0689,439.47281 L 1047.2475,445.05791 L 1052.8326,444.17605 L 1052.2447,441.82443 L 1051.0689,439.47281 z " id="path28669" style="color:#000000;fill:#000000;fill-opacity:1.0000000;fill-rule:evenodd;stroke:#000000;stroke-width:0.25000000pt;stroke-linecap:butt;stroke-linejoin:miter;stroke-miterlimit:4.0000000;stroke-dashoffset:0.0000000;stroke-opacity:1.0000000;marker:none;marker-start:none;marker-mid:none;marker-end:none;visibility:visible;display:block"/>
    <path d="M 1054.0084,452.40672 L 1051.0689,452.70067 L 1048.7173,454.75834 L 1047.5415,456.81601 L 1047.8354,458.87368 L 1049.5991,460.34344 L 1049.5991,462.69506 L 1049.8931,465.34063 L 1048.7173,467.69225 L 1047.5415,469.16202 L 1047.8354,471.80759 L 1049.5991,473.27735 L 1052.2447,473.57131 L 1054.0084,473.57131 L 1054.5963,470.63178 L 1054.5963,468.86806 L 1052.5387,467.69225 L 1052.2447,465.92854 L 1051.6568,461.22530 L 1052.2447,458.87368 L 1054.0084,457.69787 L 1054.0084,454.17044 L 1052.2447,452.70067 L 1054.0084,452.40672 z " id="path28670" style="color:#000000;fill:#000000;fill-opacity:1.0000000;fill-rule:evenodd;stroke:#000000;stroke-width:0.25000000pt;stroke-linecap:butt;stroke-linejoin:miter;stroke-miterlimit:4.0000000;stroke-dashoffset:0.0000000;stroke-opacity:1.0000000;marker:none;marker-start:none;marker-mid:none;marker-end:none;visibility:visible;display:block"/>
    <path d="M 1054.0084,481.21407 L 1049.3052,480.92012 L 1045.1899,481.50802 L 1044.8959,481.80198 L 1045.4838,482.97779 L 1048.1294,486.21127 L 1049.8931,489.44474 L 1050.4810,489.73870 L 1051.3629,486.21127 L 1051.9508,483.56569 L 1054.0084,481.21407 z " id="path28671" style="color:#000000;fill:#000000;fill-opacity:1.0000000;fill-rule:evenodd;stroke:#000000;stroke-width:0.25000000pt;stroke-linecap:butt;stroke-linejoin:miter;stroke-miterlimit:4.0000000;stroke-dashoffset:0.0000000;stroke-opacity:1.0000000;marker:none;marker-start:none;marker-mid:none;marker-end:none;visibility:visible;display:block"/>
    <path d="M 1047.2475,499.73308 L 1044.8959,495.32380 L 1042.5443,492.67822 L 1041.3685,490.32660 L 1039.8987,487.97498 L 1038.4289,492.38427 L 1037.2531,496.49961 L 1037.8410,500.02704 L 1039.3108,502.37866 L 1041.6624,505.02423 L 1044.6020,503.84842 L 1046.3657,502.08471 L 1047.2475,499.73308 z " id="path28672" style="color:#000000;fill:#000000;fill-opacity:1.0000000;fill-rule:evenodd;stroke:#000000;stroke-width:0.25000000pt;stroke-linecap:butt;stroke-linejoin:miter;stroke-miterlimit:4.0000000;stroke-dashoffset:0.0000000;stroke-opacity:1.0000000;marker:none;marker-start:none;marker-mid:none;marker-end:none;visibility:visible;display:block"/>
    <path d="M 1024.0253,499.43913 L 1024.3192,495.32380 L 1024.3192,492.38427 L 1025.4950,489.73870 L 1027.2587,487.38708 L 1028.1406,485.03546 L 1029.3164,483.56569 L 1031.6680,480.33221 L 1025.4950,484.74150 L 1021.9676,487.38708 L 1020.2039,489.44474 L 1019.9099,492.67822 L 1019.9099,494.73589 L 1024.0253,499.43913 z " id="path28673" style="color:#000000;fill:#000000;fill-opacity:1.0000000;fill-rule:evenodd;stroke:#000000;stroke-width:0.25000000pt;stroke-linecap:butt;stroke-linejoin:miter;stroke-miterlimit:4.0000000;stroke-dashoffset:0.0000000;stroke-opacity:1.0000000;marker:none;marker-start:none;marker-mid:none;marker-end:none;visibility:visible;display:block"/>
    <path d="M 1011.9918,457.58337 L 1011.4039,465.52009 L 1011.4039,469.63543 L 1011.6979,472.28100 L 1014.3435,470.81124 L 1014.3435,465.22614 L 1014.6374,460.52290 L 1014.6374,458.17128 L 1011.9918,457.58337 z " id="path28674" style="color:#000000;fill:#000000;fill-opacity:1.0000000;fill-rule:evenodd;stroke:#000000;stroke-width:0.25000000pt;stroke-linecap:butt;stroke-linejoin:miter;stroke-miterlimit:4.0000000;stroke-dashoffset:0.0000000;stroke-opacity:1.0000000;marker:none;marker-start:none;marker-mid:none;marker-end:none;visibility:visible;display:block"/>
    <path d="M 1017.5583,458.87368 L 1017.5583,465.04668 L 1016.9704,470.33783 L 1021.6737,468.28016 L 1024.6132,466.81040 L 1024.9071,462.40111 L 1017.5583,458.87368 z " id="path28675" style="color:#000000;fill:#ff2e25;fill-opacity:1.0000000;fill-rule:evenodd;stroke:#000000;stroke-width:0.25000000pt;stroke-linecap:butt;stroke-linejoin:miter;stroke-miterlimit:4.0000000;stroke-dashoffset:0.0000000;stroke-opacity:1.0000000;marker:none;marker-start:none;marker-mid:none;marker-end:none;visibility:visible;display:block"/>
    <path d="M 1023.1434,430.94818 L 1019.3220,435.65142 L 1019.6160,440.64862 L 1022.8495,443.88209 L 1026.6708,445.35186 L 1029.6104,445.93976 L 1025.4950,440.94257 L 1024.9071,437.70909 L 1023.1434,430.94818 z " id="path28676" style="color:#000000;fill:#000000;fill-opacity:1.0000000;fill-rule:evenodd;stroke:#000000;stroke-width:0.25000000pt;stroke-linecap:butt;stroke-linejoin:miter;stroke-miterlimit:4.0000000;stroke-dashoffset:0.0000000;stroke-opacity:1.0000000;marker:none;marker-start:none;marker-mid:none;marker-end:none;visibility:visible;display:block"/>
    <path d="M 1035.7187,513.93049 L 1034.3080,508.85180 L 1033.1794,505.46600 L 1032.0508,502.08021 L 1031.2043,498.97656 L 1031.2043,494.18002 L 1031.7686,491.07638 L 1033.1794,487.40843 L 1033.7437,485.15124 L 1035.7187,483.17619 L 1038.5402,480.91900 L 1039.6688,481.76544 L 1036.8473,484.02264 L 1033.7437,491.07638 L 1031.7686,497.00152 L 1032.6151,499.82301 L 1033.7437,503.77311 L 1035.1544,506.59460 L 1036.2830,509.13395 L 1037.9759,509.98040 L 1039.9510,508.00535 L 1041.6439,506.59460 L 1042.4903,507.15890 L 1043.9011,505.74815 L 1046.7226,502.92666 L 1047.5690,501.79806 L 1046.1583,504.05526 L 1043.3368,507.15890 L 1042.4903,508.85180 L 1040.5153,509.98040 L 1038.2581,511.67329 L 1035.7187,513.93049 z " id="path28679" style="color:#000000;fill:#000000;fill-opacity:1.0000000;fill-rule:evenodd;stroke:#000000;stroke-width:0.25000000pt;stroke-linecap:butt;stroke-linejoin:miter;stroke-miterlimit:4.0000000;stroke-dashoffset:0.0000000;stroke-opacity:1.0000000;marker:none;marker-start:none;marker-mid:none;marker-end:none;visibility:visible;display:block"/>
    <path d="M 1042.2082,481.76544 L 1043.0546,486.27984 L 1046.1583,491.35853 L 1048.6976,495.30862 L 1049.2619,497.56582 L 1050.9548,494.46217 L 1053.7763,486.27984 L 1050.6727,491.92283 L 1049.2619,491.92283 L 1047.0047,488.25488 L 1044.4654,485.15124 L 1042.2082,481.76544 z " id="path28680" style="color:#000000;fill:#000000;fill-opacity:1.0000000;fill-rule:evenodd;stroke:#000000;stroke-width:0.25000000pt;stroke-linecap:butt;stroke-linejoin:miter;stroke-miterlimit:4.0000000;stroke-dashoffset:0.0000000;stroke-opacity:1.0000000;marker:none;marker-start:none;marker-mid:none;marker-end:none;visibility:visible;display:block"/>
    <path d="M 1017.0969,485.71554 L 1021.6113,482.32974 L 1023.5863,481.48329 L 1026.4078,480.63685 L 1028.6650,479.50825 L 1029.5114,478.66180 L 1028.6650,478.09750 L 1024.7149,479.50825 L 1021.3291,481.20115 L 1019.6362,482.89404 L 1017.0969,485.71554 z " id="path28681" style="color:#000000;fill:#000000;fill-opacity:1.0000000;fill-rule:evenodd;stroke:#000000;stroke-width:0.25000000pt;stroke-linecap:butt;stroke-linejoin:miter;stroke-miterlimit:4.0000000;stroke-dashoffset:0.0000000;stroke-opacity:1.0000000;marker:none;marker-start:none;marker-mid:none;marker-end:none;visibility:visible;display:block"/>
    <path d="M 1030.0757,451.29330 L 1028.6650,452.98619 L 1025.5614,451.29330 L 1019.9184,447.62535 L 1016.2504,444.52171 L 1014.2754,442.26451 L 1013.1468,438.87872 L 1012.3003,434.08218 L 1011.4539,430.97853 L 1011.7360,429.84993 L 1013.9932,429.84993 L 1015.9683,432.38928 L 1017.6612,433.23573 L 1020.4827,433.23573 L 1018.7898,434.64648 L 1015.9683,433.51788 L 1013.9932,432.67143 L 1013.9932,436.05722 L 1014.5575,440.85377 L 1016.2504,443.39311 C 1016.2504,443.39311 1017.9433,445.08601 1019.0719,445.65031 C 1020.2005,446.21461 1022.7399,447.34320 1022.7399,447.34320 L 1025.8435,448.75395 L 1028.1007,450.44685 L 1030.0757,451.29330 z " id="path28682" style="color:#000000;fill:#000000;fill-opacity:1.0000000;fill-rule:evenodd;stroke:#000000;stroke-width:0.25000000pt;stroke-linecap:butt;stroke-linejoin:miter;stroke-miterlimit:4.0000000;stroke-dashoffset:0.0000000;stroke-opacity:1.0000000;marker:none;marker-start:none;marker-mid:none;marker-end:none;visibility:visible;display:block"/>
    <path d="M 1036.5652,416.30676 L 1035.1544,421.66760 L 1033.4615,425.89984 L 1032.0508,429.84993 L 1031.7686,433.23573 L 1032.0508,437.75012 L 1034.3080,440.57162 L 1036.2830,443.39311 L 1037.9759,446.77891 L 1038.5402,448.47180 L 1037.4116,448.47180 L 1035.7187,444.52171 L 1033.7437,441.70021 L 1031.2043,438.31442 L 1030.6400,433.23573 L 1030.3579,430.97853 L 1030.3579,428.15704 L 1031.2043,425.61769 L 1032.8972,421.94975 L 1034.0258,419.69255 L 1034.8723,417.43536 L 1036.5652,416.30676 z " id="path28683" style="color:#000000;fill:#000000;fill-opacity:1.0000000;fill-rule:evenodd;stroke:#000000;stroke-width:0.25000000pt;stroke-linecap:butt;stroke-linejoin:miter;stroke-miterlimit:4.0000000;stroke-dashoffset:0.0000000;stroke-opacity:1.0000000;marker:none;marker-start:none;marker-mid:none;marker-end:none;visibility:visible;display:block"/>
    <path d="M 1029.5114,426.74629 L 1028.3829,430.13208 L 1026.9721,431.26068 L 1025.8435,429.56779 L 1025.8435,426.18199 L 1025.8435,422.79620 L 1024.9971,418.84610 L 1025.2792,416.30676 L 1025.5614,415.17816 L 1028.1007,417.43536 L 1030.0757,420.53900 L 1029.7936,421.10330 L 1027.2543,419.41040 L 1026.9721,421.94975 L 1026.9721,425.61769 L 1026.6900,427.87489 L 1027.2543,429.28564 L 1029.5114,426.74629 z " id="path28684" style="color:#000000;fill:#000000;fill-opacity:1.0000000;fill-rule:evenodd;stroke:#000000;stroke-width:0.25000000pt;stroke-linecap:butt;stroke-linejoin:miter;stroke-miterlimit:4.0000000;stroke-dashoffset:0.0000000;stroke-opacity:1.0000000;marker:none;marker-start:none;marker-mid:none;marker-end:none;visibility:visible;display:block"/>
    <path d="M 857.98415,454.88861 L 855.70431,458.81575 L 859.03638,458.19566 L 858.68563,456.54214 L 857.98415,454.88861 z " id="path29310" style="fill:#eeeff6;fill-opacity:1.0000000;fill-rule:evenodd;stroke:#000000;stroke-width:0.16192099pt;stroke-linecap:butt;stroke-linejoin:miter;stroke-opacity:1.0000000"/>
    <path d="M 859.73785,463.98301 L 857.98415,464.18970 L 856.58119,465.63653 L 855.87971,467.08338 L 856.05505,468.53021 L 857.10727,469.56366 L 857.10727,471.21720 L 857.28267,473.07740 L 856.58119,474.73094 L 855.87971,475.76440 L 856.05505,477.62462 L 857.10727,478.65808 L 858.68563,478.86477 L 859.73785,478.86477 L 860.08859,476.79785 L 860.08859,475.55770 L 858.86104,474.73094 L 858.68563,473.49080 L 858.33488,470.18374 L 858.68563,468.53021 L 859.73785,467.70345 L 859.73785,465.22316 L 858.68563,464.18970 L 859.73785,463.98301 z " id="path29311" style="fill:#eeeff6;fill-opacity:1.0000000;fill-rule:evenodd;stroke:#000000;stroke-width:0.16192099pt;stroke-linecap:butt;stroke-linejoin:miter;stroke-opacity:1.0000000"/>
    <path d="M 850.17289,508.23504 L 853.53950,504.26721 L 857.41112,497.91867 L 859.93604,487.80069 L 860.77772,479.66663 L 860.77772,472.72291 L 860.27270,464.39046 L 858.92606,454.07409 L 856.90610,444.74967 L 854.38117,440.58345 L 851.01457,436.81401 L 846.63799,436.02044 L 842.93472,435.82205 L 838.38984,439.59150 L 835.02323,445.54324 L 833.17158,450.50304 L 831.48827,458.43871 L 830.47829,465.58081 L 830.47829,472.72291 L 831.15161,484.62642 L 831.99329,490.77657 L 834.01326,497.72028 L 836.87484,503.87043 L 840.07313,507.04469 L 841.58808,508.83021 L 844.11306,509.42539 L 846.80628,509.42539 L 850.17289,508.23504 z " id="path29312" style="fill:#eeeff6;fill-opacity:1.0000000;fill-rule:evenodd;stroke:#000000;stroke-width:0.16192099pt;stroke-linecap:butt;stroke-linejoin:miter;stroke-opacity:1.0000000"/>
    <path d="M 851.67077,442.07376 L 849.74166,445.17413 L 849.39093,447.44772 L 849.39093,449.72133 L 849.56632,452.82169 L 850.96929,456.74883 L 852.19691,453.02839 L 854.30135,449.72133 L 855.87971,446.20758 L 853.77521,443.72729 L 851.67077,442.07376 z " id="path29313" style="color:#000000;fill:#000000;fill-opacity:1.0000000;fill-rule:evenodd;stroke:#000000;stroke-width:0.16192099pt;stroke-linecap:butt;stroke-linejoin:miter;stroke-miterlimit:4.0000000;stroke-dashoffset:0.0000000;stroke-opacity:1.0000000;marker:none;marker-start:none;marker-mid:none;marker-end:none;visibility:visible;display:block"/>
    <path d="M 857.98415,454.88861 L 855.70431,458.81575 L 859.03638,458.19566 L 858.68563,456.54214 L 857.98415,454.88861 z " id="path29314" style="color:#000000;fill:#000000;fill-opacity:1.0000000;fill-rule:evenodd;stroke:#000000;stroke-width:0.16192099pt;stroke-linecap:butt;stroke-linejoin:miter;stroke-miterlimit:4.0000000;stroke-dashoffset:0.0000000;stroke-opacity:1.0000000;marker:none;marker-start:none;marker-mid:none;marker-end:none;visibility:visible;display:block"/>
    <path d="M 859.73785,463.98301 L 857.98415,464.18970 L 856.58119,465.63653 L 855.87971,467.08338 L 856.05505,468.53021 L 857.10727,469.56366 L 857.10727,471.21720 L 857.28267,473.07740 L 856.58119,474.73094 L 855.87971,475.76440 L 856.05505,477.62462 L 857.10727,478.65808 L 858.68563,478.86477 L 859.73785,478.86477 L 860.08859,476.79785 L 860.08859,475.55770 L 858.86104,474.73094 L 858.68563,473.49080 L 858.33488,470.18374 L 858.68563,468.53021 L 859.73785,467.70345 L 859.73785,465.22316 L 858.68563,464.18970 L 859.73785,463.98301 z " id="path29315" style="color:#000000;fill:#000000;fill-opacity:1.0000000;fill-rule:evenodd;stroke:#000000;stroke-width:0.16192099pt;stroke-linecap:butt;stroke-linejoin:miter;stroke-miterlimit:4.0000000;stroke-dashoffset:0.0000000;stroke-opacity:1.0000000;marker:none;marker-start:none;marker-mid:none;marker-end:none;visibility:visible;display:block"/>
    <path d="M 859.73785,484.23873 L 856.93193,484.03204 L 854.47675,484.44542 L 854.30135,484.65212 L 854.65209,485.47888 L 856.23045,487.75247 L 857.28267,490.02607 L 857.63341,490.23277 L 858.15954,487.75247 L 858.51029,485.89225 L 859.73785,484.23873 z " id="path29316" style="color:#000000;fill:#000000;fill-opacity:1.0000000;fill-rule:evenodd;stroke:#000000;stroke-width:0.16192099pt;stroke-linecap:butt;stroke-linejoin:miter;stroke-miterlimit:4.0000000;stroke-dashoffset:0.0000000;stroke-opacity:1.0000000;marker:none;marker-start:none;marker-mid:none;marker-end:none;visibility:visible;display:block"/>
    <path d="M 855.70431,497.26026 L 854.30135,494.15990 L 852.89839,492.29967 L 852.19691,490.64614 L 851.32003,488.99262 L 850.44315,492.09299 L 849.74166,494.98667 L 850.09241,497.46696 L 850.96929,499.12048 L 852.37225,500.98070 L 854.12601,500.15393 L 855.17823,498.91380 L 855.70431,497.26026 z " id="path29317" style="color:#000000;fill:#000000;fill-opacity:1.0000000;fill-rule:evenodd;stroke:#000000;stroke-width:0.16192099pt;stroke-linecap:butt;stroke-linejoin:miter;stroke-miterlimit:4.0000000;stroke-dashoffset:0.0000000;stroke-opacity:1.0000000;marker:none;marker-start:none;marker-mid:none;marker-end:none;visibility:visible;display:block"/>
    <path d="M 841.84998,497.05356 L 842.02532,494.15990 L 842.02532,492.09299 L 842.72681,490.23277 L 843.77903,488.57924 L 844.30517,486.92572 L 845.00665,485.89225 L 846.40960,483.61866 L 842.72681,486.71902 L 840.62237,488.57924 L 839.57015,490.02607 L 839.39475,492.29967 L 839.39475,493.74652 L 841.84998,497.05356 z " id="path29318" style="color:#000000;fill:#000000;fill-opacity:1.0000000;fill-rule:evenodd;stroke:#000000;stroke-width:0.16192099pt;stroke-linecap:butt;stroke-linejoin:miter;stroke-miterlimit:4.0000000;stroke-dashoffset:0.0000000;stroke-opacity:1.0000000;marker:none;marker-start:none;marker-mid:none;marker-end:none;visibility:visible;display:block"/>
    <path d="M 836.06269,467.49675 L 835.71195,473.07740 L 835.71195,475.97109 L 835.88735,477.83131 L 837.46570,476.79785 L 837.46570,472.87073 L 837.64104,469.56366 L 837.64104,467.91014 L 836.06269,467.49675 z " id="path29319" style="color:#000000;fill:#000000;fill-opacity:1.0000000;fill-rule:evenodd;stroke:#000000;stroke-width:0.16192099pt;stroke-linecap:butt;stroke-linejoin:miter;stroke-miterlimit:4.0000000;stroke-dashoffset:0.0000000;stroke-opacity:1.0000000;marker:none;marker-start:none;marker-mid:none;marker-end:none;visibility:visible;display:block"/>
    <path d="M 837.99179,468.53021 L 837.99179,472.87073 L 837.64104,476.59116 L 840.44703,475.14432 L 842.20073,474.11088 L 842.37607,471.01051 L 837.99179,468.53021 z " id="path29320" style="color:#000000;fill:#000000;fill-opacity:1.0000000;fill-rule:evenodd;stroke:#000000;stroke-width:0.16192099pt;stroke-linecap:butt;stroke-linejoin:miter;stroke-miterlimit:4.0000000;stroke-dashoffset:0.0000000;stroke-opacity:1.0000000;marker:none;marker-start:none;marker-mid:none;marker-end:none;visibility:visible;display:block"/>
    <path d="M 841.32385,448.89457 L 839.04401,452.20161 L 839.21941,455.71537 L 841.14851,457.98896 L 843.42829,459.02242 L 845.18204,459.43581 L 842.72681,455.92207 L 842.37607,453.64846 L 841.32385,448.89457 z " id="path29321" style="color:#000000;fill:#000000;fill-opacity:1.0000000;fill-rule:evenodd;stroke:#000000;stroke-width:0.16192099pt;stroke-linecap:butt;stroke-linejoin:miter;stroke-miterlimit:4.0000000;stroke-dashoffset:0.0000000;stroke-opacity:1.0000000;marker:none;marker-start:none;marker-mid:none;marker-end:none;visibility:visible;display:block"/>
    <path d="M 848.82625,507.24308 L 847.98463,503.67203 L 847.31130,501.29132 L 846.63799,498.91063 L 846.13296,496.72833 L 846.13296,493.35565 L 846.46963,491.17335 L 847.31130,488.59426 L 847.64796,487.00712 L 848.82625,485.61838 L 850.50954,484.03126 L 851.18287,484.62642 L 849.49957,486.21356 L 847.64796,491.17335 L 846.46963,495.33958 L 846.97465,497.32349 L 847.64796,500.10099 L 848.48959,502.08490 L 849.16291,503.87043 L 850.17289,504.46560 L 851.35124,503.07685 L 852.36121,502.08490 L 852.86617,502.48168 L 853.70786,501.48972 L 855.39116,499.50581 L 855.89611,498.71224 L 855.05450,500.29937 L 853.37119,502.48168 L 852.86617,503.67203 L 851.68789,504.46560 L 850.34126,505.65595 L 848.82625,507.24308 z " id="path29322" style="color:#000000;fill:#000000;fill-opacity:1.0000000;fill-rule:evenodd;stroke:#000000;stroke-width:0.16192099pt;stroke-linecap:butt;stroke-linejoin:miter;stroke-miterlimit:4.0000000;stroke-dashoffset:0.0000000;stroke-opacity:1.0000000;marker:none;marker-start:none;marker-mid:none;marker-end:none;visibility:visible;display:block"/>
    <path d="M 852.69787,484.62642 L 853.20284,487.80069 L 855.05450,491.37175 L 856.56944,494.14923 L 856.90610,495.73636 L 857.91608,493.55405 L 859.59937,487.80069 L 857.74777,491.76853 L 856.90610,491.76853 L 855.55946,489.18943 L 854.04451,487.00712 L 852.69787,484.62642 z " id="path29323" style="color:#000000;fill:#000000;fill-opacity:1.0000000;fill-rule:evenodd;stroke:#000000;stroke-width:0.16192099pt;stroke-linecap:butt;stroke-linejoin:miter;stroke-miterlimit:4.0000000;stroke-dashoffset:0.0000000;stroke-opacity:1.0000000;marker:none;marker-start:none;marker-mid:none;marker-end:none;visibility:visible;display:block"/>
    <path d="M 837.71652,487.40391 L 840.40980,485.02320 L 841.58808,484.42803 L 843.27138,483.83286 L 844.61803,483.03929 L 845.12299,482.44411 L 844.61803,482.04733 L 842.26141,483.03929 L 840.24144,484.22964 L 839.23146,485.41999 L 837.71652,487.40391 z " id="path29324" style="color:#000000;fill:#000000;fill-opacity:1.0000000;fill-rule:evenodd;stroke:#000000;stroke-width:0.16192099pt;stroke-linecap:butt;stroke-linejoin:miter;stroke-miterlimit:4.0000000;stroke-dashoffset:0.0000000;stroke-opacity:1.0000000;marker:none;marker-start:none;marker-mid:none;marker-end:none;visibility:visible;display:block"/>
    <path d="M 845.45964,463.20012 L 844.61803,464.39046 L 842.76643,463.20012 L 839.39982,460.62103 L 837.21150,458.43871 L 836.03322,456.85157 L 835.35989,454.47087 L 834.85487,451.09821 L 834.34992,448.91590 L 834.51822,448.12234 L 835.86486,448.12234 L 837.04320,449.90786 L 838.05318,450.50304 L 839.73647,450.50304 L 838.72650,451.49499 L 837.04320,450.70144 L 835.86486,450.10626 L 835.86486,452.48696 L 836.20152,455.85962 L 837.21150,457.64515 C 837.21150,457.64515 838.22147,458.83550 838.89480,459.23228 C 839.56812,459.62906 841.08312,460.42263 841.08312,460.42263 L 842.93472,461.41458 L 844.28136,462.60494 L 845.45964,463.20012 z " id="path29325" style="color:#000000;fill:#000000;fill-opacity:1.0000000;fill-rule:evenodd;stroke:#000000;stroke-width:0.16192099pt;stroke-linecap:butt;stroke-linejoin:miter;stroke-miterlimit:4.0000000;stroke-dashoffset:0.0000000;stroke-opacity:1.0000000;marker:none;marker-start:none;marker-mid:none;marker-end:none;visibility:visible;display:block"/>
    <path d="M 849.33127,438.59953 L 848.48959,442.36899 L 847.47961,445.34485 L 846.63799,448.12234 L 846.46963,450.50304 L 846.63799,453.67731 L 847.98463,455.66122 L 849.16291,457.64515 L 850.17289,460.02585 L 850.50954,461.21620 L 849.83623,461.21620 L 848.82625,458.43871 L 847.64796,456.45480 L 846.13296,454.07409 L 845.79630,450.50304 L 845.62801,448.91590 L 845.62801,446.93198 L 846.13296,445.14647 L 847.14294,442.56737 L 847.81627,440.98024 L 848.32129,439.39311 L 849.33127,438.59953 z " id="path29326" style="color:#000000;fill:#000000;fill-opacity:1.0000000;fill-rule:evenodd;stroke:#000000;stroke-width:0.16192099pt;stroke-linecap:butt;stroke-linejoin:miter;stroke-miterlimit:4.0000000;stroke-dashoffset:0.0000000;stroke-opacity:1.0000000;marker:none;marker-start:none;marker-mid:none;marker-end:none;visibility:visible;display:block"/>
    <path d="M 845.12299,445.94003 L 844.44972,448.32073 L 843.60804,449.11430 L 842.93472,447.92396 L 842.93472,445.54324 L 842.93472,443.16254 L 842.42976,440.38506 L 842.59806,438.59953 L 842.76643,437.80596 L 844.28136,439.39311 L 845.45964,441.57541 L 845.29134,441.97219 L 843.77641,440.78184 L 843.60804,442.56737 L 843.60804,445.14647 L 843.43975,446.73360 L 843.77641,447.72556 L 845.12299,445.94003 z " id="path29327" style="color:#000000;fill:#000000;fill-opacity:1.0000000;fill-rule:evenodd;stroke:#000000;stroke-width:0.16192099pt;stroke-linecap:butt;stroke-linejoin:miter;stroke-miterlimit:4.0000000;stroke-dashoffset:0.0000000;stroke-opacity:1.0000000;marker:none;marker-start:none;marker-mid:none;marker-end:none;visibility:visible;display:block"/>
    <path d="M 1332.1333,478.38593 L 1335.8718,478.13670 L 1337.8656,476.89055 L 1339.6102,475.89363 L 1338.8626,473.89979 L 1338.8626,471.90595 L 1340.6072,467.41981 L 1340.6072,464.92752 L 1336.6195,464.42906 L 1333.1303,468.41673 L 1314.4380,471.40749 L 1282.0382,474.14902 L 1231.6937,479.38284 L 1194.8077,482.62283 L 1181.1001,483.37052 L 1176.3647,482.37360 L 1173.6232,482.37360 L 1172.6263,484.11821 L 1172.8755,487.10897 L 1171.3801,490.84742 C 1171.3801,490.84742 1171.1309,492.59202 1172.1278,492.59202 C 1173.1247,492.59202 1175.6170,493.58894 1175.6170,493.58894 L 1178.3586,493.58894 L 1195.0569,492.59202 L 1199.7923,492.59202 L 1204.2785,492.34279 L 1210.7584,491.59511 L 1261.3521,485.11513 L 1281.7889,482.87206 L 1305.7150,480.87822 L 1323.1611,480.13053 L 1332.1333,478.38593 z " id="path29328" style="color:#000000;fill:url(#linearGradient29536);fill-opacity:1.0000000;fill-rule:evenodd;stroke:none;stroke-width:0.25000000pt;stroke-linecap:butt;stroke-linejoin:miter;stroke-miterlimit:4.0000000;stroke-dashoffset:0.0000000;stroke-opacity:1.0000000;marker:none;marker-start:none;marker-mid:none;marker-end:none;visibility:visible;display:block"/>
    <rect height="10.308916" id="rect29333" rx="7.6220179" ry="4.0771332" style="color:#000000;fill:url(#linearGradient29537);fill-opacity:1.0000000;fill-rule:evenodd;stroke:none;stroke-width:0.25000000pt;stroke-linecap:butt;stroke-linejoin:miter;stroke-miterlimit:4.0000000;stroke-dashoffset:0.0000000;stroke-opacity:1.0000000;marker:none;marker-start:none;marker-mid:none;marker-end:none;visibility:visible;display:block" transform="matrix(1.539259e-2,-0.999882,0.999882,1.539259e-2,0.000000,0.000000)" width="15.244036" x="-458.27911" y="1036.5570"/>
    <path d="M 1034.9268 465.89749 A 1.3892878 5.0014362 0 1 1  1032.1482,465.89749 A 1.3892878 5.0014362 0 1 1  1034.9268 465.89749 z" id="path29335" sodipodi:cx="1033.5375" sodipodi:cy="465.89749" sodipodi:rx="1.3892878" sodipodi:ry="5.0014362" sodipodi:type="arc" style="color:#000000;fill:url(#linearGradient29538);fill-opacity:1.0000000;fill-rule:evenodd;stroke:#000000;stroke-width:0.25000000pt;stroke-linecap:butt;stroke-linejoin:miter;stroke-miterlimit:4.0000000;stroke-dashoffset:0.0000000;stroke-opacity:1.0000000;marker:none;marker-start:none;marker-mid:none;marker-end:none;visibility:visible;display:block" transform="matrix(2.085111,0.000000,0.000000,1.383184,-1122.408,-177.7837)"/>
    <rect height="7.1318140" id="rect29337" rx="5.2729902" ry="2.8206024" style="color:#000000;fill:url(#linearGradient29539);fill-opacity:1.0000000;fill-rule:evenodd;stroke:none;stroke-width:0.25000000pt;stroke-linecap:butt;stroke-linejoin:miter;stroke-miterlimit:4.0000000;stroke-dashoffset:0.0000000;stroke-opacity:1.0000000;marker:none;marker-start:none;marker-mid:none;marker-end:none;visibility:visible;display:block" transform="matrix(1.539257e-2,-0.999882,0.999882,1.539257e-2,0.000000,0.000000)" width="10.545980" x="-465.14636" y="853.46967"/>
    <path d="M 1034.9268 465.89749 A 1.3892878 5.0014362 0 1 1  1032.1482,465.89749 A 1.3892878 5.0014362 0 1 1  1034.9268 465.89749 z" id="path29338" sodipodi:cx="1033.5375" sodipodi:cy="465.89749" sodipodi:rx="1.3892878" sodipodi:ry="5.0014362" sodipodi:type="arc" style="color:#000000;fill:url(#linearGradient29540);fill-opacity:1.0000000;fill-rule:evenodd;stroke:#000000;stroke-width:0.25000000pt;stroke-linecap:butt;stroke-linejoin:miter;stroke-miterlimit:4.0000000;stroke-dashoffset:0.0000000;stroke-opacity:1.0000000;marker:none;marker-start:none;marker-mid:none;marker-end:none;visibility:visible;display:block" transform="matrix(1.442500,0.000000,0.000000,0.956900,-642.4198,27.19324)"/>
  </g>
</svg>
