<?xml version="1.0" encoding="utf-8"?>
<!-- Generator: Adobe Illustrator 16.0.0, SVG Export Plug-In . SVG Version: 6.00 Build 0)  -->
<!DOCTYPE svg PUBLIC "-//W3C//DTD SVG 1.1//EN" "http://www.w3.org/Graphics/SVG/1.1/DTD/svg11.dtd">
<svg version="1.1"
	 id="svg2" xmlns:dc="http://purl.org/dc/elements/1.1/" xmlns:cc="http://creativecommons.org/ns#" xmlns:rdf="http://www.w3.org/1999/02/22-rdf-syntax-ns#" xmlns:svg="http://www.w3.org/2000/svg" xmlns:sodipodi="http://sodipodi.sourceforge.net/DTD/sodipodi-0.dtd" xmlns:inkscape="http://www.inkscape.org/namespaces/inkscape" inkscape:output_extension="org.inkscape.output.svg.inkscape" sodipodi:docname="shopping_alcohol.svg" inkscape:version="0.47 r22583" sodipodi:version="0.32"
	 xmlns="http://www.w3.org/2000/svg" xmlns:xlink="http://www.w3.org/1999/xlink" x="0px" y="0px" width="580px" height="580px"
	 viewBox="0 0 580 580" enable-background="new 0 0 580 580" xml:space="preserve">
<sodipodi:namedview  showgrid="false" inkscape:cy="451.23755" inkscape:cx="294.77108" inkscape:zoom="0.65172414" pagecolor="#ffffff" bordercolor="#666666" guidetolerance="10.0" objecttolerance="10.0" gridtolerance="10.0" borderopacity="1.0" id="base" inkscape:window-maximized="1" inkscape:current-layer="svg2" inkscape:window-y="-4" inkscape:window-x="1276" inkscape:pageopacity="0.0" inkscape:pageshadow="2" inkscape:window-width="1280" inkscape:window-height="941">
	</sodipodi:namedview>
<defs>
	
	
		<inkscape:perspective  inkscape:vp_z="580 : 290 : 1" inkscape:vp_y="6.1230318e-14 : 1000 : 0" inkscape:vp_x="0 : 290 : 1" sodipodi:type="inkscape:persp3d" id="perspective2441" inkscape:persp3d-origin="290 : 193.33333 : 1">
		</inkscape:perspective>
	
		<inkscape:perspective  inkscape:vp_z="60 : 30 : 1" inkscape:vp_y="0 : 1000 : 0" inkscape:vp_x="0 : 30 : 1" sodipodi:type="inkscape:persp3d" id="perspective3452" inkscape:persp3d-origin="30 : 20 : 1">
		</inkscape:perspective>
	
		<inkscape:perspective  inkscape:vp_z="744.09448 : 526.18109 : 1" inkscape:vp_y="0 : 1000 : 0" inkscape:vp_x="0 : 526.18109 : 1" sodipodi:type="inkscape:persp3d" id="perspective4471" inkscape:persp3d-origin="372.04724 : 350.78739 : 1">
		</inkscape:perspective>
	
		<inkscape:perspective  inkscape:vp_z="12 : 6 : 1" inkscape:vp_y="0 : 1000 : 0" inkscape:vp_x="0 : 6 : 1" sodipodi:type="inkscape:persp3d" id="perspective4668" inkscape:persp3d-origin="6 : 4 : 1">
		</inkscape:perspective>
	
		<inkscape:perspective  inkscape:vp_z="1 : 0.5 : 1" inkscape:vp_y="0 : 1000 : 0" inkscape:vp_x="0 : 0.5 : 1" sodipodi:type="inkscape:persp3d" id="perspective3826" inkscape:persp3d-origin="0.5 : 0.33333333 : 1">
		</inkscape:perspective>
	
		<inkscape:perspective  inkscape:vp_z="1 : 0.5 : 1" inkscape:vp_y="0 : 1000 : 0" inkscape:vp_x="0 : 0.5 : 1" sodipodi:type="inkscape:persp3d" id="perspective3855" inkscape:persp3d-origin="0.5 : 0.33333333 : 1">
		</inkscape:perspective>
	
		<inkscape:perspective  inkscape:vp_z="1 : 0.5 : 1" inkscape:vp_y="0 : 1000 : 0" inkscape:vp_x="0 : 0.5 : 1" sodipodi:type="inkscape:persp3d" id="perspective3909" inkscape:persp3d-origin="0.5 : 0.33333333 : 1">
		</inkscape:perspective>
	
		<inkscape:perspective  inkscape:vp_z="1 : 0.5 : 1" inkscape:vp_y="0 : 1000 : 0" inkscape:vp_x="0 : 0.5 : 1" sodipodi:type="inkscape:persp3d" id="perspective11014" inkscape:persp3d-origin="0.5 : 0.33333333 : 1">
		</inkscape:perspective>
</defs>
<g id="layer3" transform="matrix(48.14969,0,0,48.14969,-536.27327,-33.306752)" inkscape:label="Layout" display="none">
	<rect id="rect4134" x="1" y="1" display="inline" fill="none" stroke="#757575" stroke-width="0.1" width="10" height="10"/>
	<rect id="rect4136" x="2" y="2" display="inline" fill="none" stroke="#757575" stroke-width="0.1" width="8" height="8"/>
</g>
<g id="g3338" transform="matrix(1.3973279,-0.2437849,0.2437849,1.3973279,-185.07402,-56.183307)">
</g>
<path fill="#FFFB3D" stroke="#1EFF31" stroke-width="4.4444" d="M509.627,492.694c-9.144-4.145-19.507-6.644-30.296-6.644
	s-21.151,2.499-30.295,6.644c-8.961,4.023-19.019,6.4-29.442,6.4s-20.542-2.377-29.442-6.4c-9.143-4.145-19.506-6.644-30.355-6.644
	c-10.729,0-21.092,2.499-30.296,6.644c-8.899,4.023-18.958,6.4-29.442,6.4c-10.362,0-20.481-2.377-29.381-6.4
	c-9.204-4.145-19.506-6.644-30.356-6.644c-10.789,0-21.091,2.499-30.295,6.644c-8.961,4.023-19.019,6.4-29.442,6.4
	c-10.423,0-20.481-2.377-29.442-6.4c-9.144-4.145-19.506-6.644-30.295-6.644c-10.85,0-21.152,2.499-30.295,6.644
	c-8.96,4.023-18.958,6.4-29.442,6.4v44.194c10.424,0,20.481-2.378,29.442-6.4c9.144-4.268,19.445-6.767,30.295-6.767
	c10.79,0,21.152,2.499,30.295,6.767c8.96,4.022,19.019,6.4,29.442,6.4c10.424,0,20.481-2.378,29.442-6.4
	c9.204-4.268,19.506-6.767,30.295-6.767c10.851,0,21.152,2.499,30.356,6.767c8.9,4.022,18.958,6.4,29.381,6.4
	c10.424,0,20.543-2.378,29.442-6.4c9.204-4.268,19.567-6.767,30.296-6.767c10.85,0,21.213,2.499,30.355,6.767
	c8.9,4.022,19.019,6.4,29.442,6.4s20.481-2.378,29.442-6.4c9.144-4.268,19.506-6.767,30.295-6.767s21.152,2.499,30.296,6.767
	c8.96,4.022,19.019,6.4,29.441,6.4v-44.194C528.706,499.095,518.587,496.718,509.627,492.694z"/>
<path fill="#FFFB3D" stroke="#1EFF31" stroke-width="4.4444" d="M203.93,320.736l50.228-22.615c3.718-2.621,6.218-7.01,6.218-11.886
	c0-7.863-6.461-14.386-14.386-14.386c-2.012,0-3.901,0.488-4.633,0.975l-46.205,20.969l-67.296,0.123
	c-16.702,0-30.295,13.593-30.295,30.355c0,2.5,0.305,4.877,0.914,7.254l30.661,69.856c4.755,10.484,15.361,17.738,27.553,17.738
	h82.84l47.668,45.778c7.681,7.132,19.688,6.645,26.882-0.976c7.132-7.741,6.705-19.75-0.976-26.882l-54.861-52.117
	c-3.414-2.987-7.253-4.877-12.801-4.877h-56.019l-25.358-56.324h30.234C194.298,323.723,200.577,323.357,203.93,320.736z"/>
<path fill="#FFFB3D" stroke="#1EFF31" stroke-width="4.4444" d="M521.574,333.355C511.09,166.09,329.439,55.148,186.557,36.191
	L346.202,443.93L521.574,333.355z M305.361,265.144c-4.633,0-8.473-3.84-8.473-8.473c0-3.23,1.646-6.4,4.511-7.498
	c17.129-6.461,156.963-35.842,208.775,62.968c0.976,1.95,2.073,3.962,2.073,6.218c0,4.754-3.841,8.595-8.474,8.595
	c-2.377,0-4.938-0.731-6.034-2.499c-7.315-12.496-51.936-90.582-188.966-59.799C307.495,265.022,306.764,265.144,305.361,265.144z"
	/>
<circle fill="#FFFB3D" stroke="#1EFF31" stroke-width="4.4444" cx="112.19" cy="258.862" r="28.953"/>
</svg>
