<svg enable-background="new 0 0 580 580" height="580" viewBox="0 0 580 580" width="580" xmlns="http://www.w3.org/2000/svg">
<path d="m319.044 304.938c-1.021-1.625-12.027-19.432-12.027-32.917 0-14.004 11.658-40.1 11.885-40.604.196-.172.402-.328.595-.509l74.945-71.611c7.971-7.562 8.303-20.154.74-28.125l-1.521-1.602c-7.563-7.971-20.154-8.304-28.125-.742l-70.365 67.234c-1.36-.35-2.749-.537-4.153-.537h-28.188l-55.046-75.82c-6.352-8.965-18.769-11.085-27.734-4.734l-1.802 1.277c-8.966 6.351-11.085 18.768-4.734 27.734l57.508 79.21v94.25l-45.275 126.521c-3.702 10.344 1.684 21.732 12.028 25.435l2.08.743c10.345 3.702 21.732-1.685 25.434-12.027l44.05-123.098h20.193l86.695 100.358c7.183 8.314 19.746 9.23 28.061 2.049l1.672-1.443c8.313-7.18 9.229-19.745 2.049-28.059z" fill="param(fill)" fill-opacity="param(fill-opacity)" stroke="param(outline)" stroke-opacity="param(outline-opacity)" stroke-width="param(outline-width)"/>
<path d="m470.747 105.791c-48.208-48.208-112.304-74.757-180.48-74.757-68.177 0-132.272 26.549-180.48 74.757-48.208 48.208-74.758 112.304-74.758 180.48 0 68.176 26.549 132.272 74.758 180.48 48.208 48.208 112.304 74.758 180.48 74.758 68.176 0 132.272-26.55 180.48-74.758s74.758-112.304 74.758-180.48c0-68.177-26.55-132.272-74.758-180.48zm-180.48 415.718c-129.711 0-235.238-105.527-235.238-235.238s105.527-235.238 235.238-235.238c129.71 0 235.238 105.527 235.238 235.238s-105.527 235.238-235.238 235.238z" fill="param(fill)" fill-opacity="param(fill-opacity)" stroke="param(outline)" stroke-opacity="param(outline-opacity)" stroke-width="param(outline-width)"/>
<circle cx="285.427" cy="143.93" fill="param(fill)" r="35" stroke="param(outline)" stroke-width="param(outline-width)"/>
</svg>
