<?xml version="1.0" encoding="utf-8"?>
<!-- Generator: Adobe Illustrator 16.0.0, SVG Export Plug-In . SVG Version: 6.00 Build 0)  -->
<!DOCTYPE svg PUBLIC "-//W3C//DTD SVG 1.1//EN" "http://www.w3.org/Graphics/SVG/1.1/DTD/svg11.dtd">
<svg version="1.1"
	 id="svg2" xmlns:dc="http://purl.org/dc/elements/1.1/" xmlns:cc="http://creativecommons.org/ns#" xmlns:rdf="http://www.w3.org/1999/02/22-rdf-syntax-ns#" xmlns:svg="http://www.w3.org/2000/svg" xmlns:sodipodi="http://sodipodi.sourceforge.net/DTD/sodipodi-0.dtd" xmlns:inkscape="http://www.inkscape.org/namespaces/inkscape" inkscape:output_extension="org.inkscape.output.svg.inkscape" sodipodi:docbase="s:\Data\FacilityIcons" sodipodi:docname="sport_hillclimbing.svg" inkscape:version="0.46" sodipodi:version="0.32"
	 xmlns="http://www.w3.org/2000/svg" xmlns:xlink="http://www.w3.org/1999/xlink" x="0px" y="0px" width="580px" height="580px"
	 viewBox="0 0 580 580" enable-background="new 0 0 580 580" xml:space="preserve">
<sodipodi:namedview  showgrid="false" inkscape:cy="281.19503" inkscape:cx="301.5186" inkscape:zoom="0.92167712" pagecolor="#ffffff" bordercolor="#666666" guidetolerance="10.0" objecttolerance="10.0" gridtolerance="10.0" borderopacity="1.0" id="base" inkscape:current-layer="svg2" inkscape:window-y="25" inkscape:window-x="91" inkscape:pageopacity="0.0" inkscape:pageshadow="2" inkscape:window-width="1048" inkscape:window-height="947">
	</sodipodi:namedview>
<defs>
	
	
		<inkscape:perspective  inkscape:vp_z="580 : 290 : 1" inkscape:vp_y="0 : 1000 : 0" inkscape:vp_x="0 : 290 : 1" sodipodi:type="inkscape:persp3d" id="perspective2441" inkscape:persp3d-origin="290 : 193.33333 : 1">
		</inkscape:perspective>
	
		<inkscape:perspective  inkscape:vp_z="60 : 30 : 1" inkscape:vp_y="0 : 1000 : 0" inkscape:vp_x="0 : 30 : 1" sodipodi:type="inkscape:persp3d" id="perspective3452" inkscape:persp3d-origin="30 : 20 : 1">
		</inkscape:perspective>
	
		<inkscape:perspective  inkscape:vp_z="744.09448 : 526.18109 : 1" inkscape:vp_y="0 : 1000 : 0" inkscape:vp_x="0 : 526.18109 : 1" sodipodi:type="inkscape:persp3d" id="perspective4471" inkscape:persp3d-origin="372.04724 : 350.78739 : 1">
		</inkscape:perspective>
	
		<inkscape:perspective  inkscape:vp_z="12 : 6 : 1" inkscape:vp_y="0 : 1000 : 0" inkscape:vp_x="0 : 6 : 1" sodipodi:type="inkscape:persp3d" id="perspective4668" inkscape:persp3d-origin="6 : 4 : 1">
		</inkscape:perspective>
</defs>
<g id="layer3" transform="matrix(48.14969,0,0,48.14969,-536.27327,-33.306752)" inkscape:label="Layout" display="none">
	<rect id="rect4134" x="1" y="1" display="inline" fill="none" stroke="#757575" stroke-width="0.1" width="10" height="10"/>
	<rect id="rect4136" x="2" y="2" display="inline" fill="none" stroke="#757575" stroke-width="0.1" width="8" height="8"/>
</g>
<path fill="param(fill) #FFF" stroke="param(outline) #000" stroke-width="param(outline-width) 1" d="M232.95,138.191c10.577,0,19.779-3.818,27.607-11.456
	c7.828-7.637,11.742-16.935,11.743-27.895c0-10.577-3.915-19.782-11.743-27.617c-7.828-7.833-17.031-11.75-27.607-11.751
	c-10.972,0-20.276,3.917-27.913,11.751c-7.637,7.834-11.456,17.04-11.455,27.617c0,10.96,3.818,20.258,11.455,27.895
	C212.674,134.373,221.979,138.191,232.95,138.191z"/>
<path fill="param(fill) #FFF" stroke="param(outline) #000" stroke-width="param(outline-width) 1" d="M80.212,249.805c6.657,3.92,11.748,2.552,15.273-4.105
	l58.747-101.037c3.92-6.657,2.552-11.748-4.105-15.274l-18.806-11.168c-6.657-3.908-11.749-2.534-15.274,4.123L57.301,223.38
	c-3.908,6.657-2.534,11.749,4.124,15.274L80.212,249.805z"/>
<path fill="param(fill) #FFF" stroke="param(outline) #000" stroke-width="param(outline-width) 1" d="M474.392,68.293l-24.094,109.266l-41.125,17.031l-35.836,100.446
	l34.079,76.96l-9.394,29.956l-79.31,23.503l-4.696,35.244l-126.296,31.14l1.166,21.136h308.398c5.485,0,10.09-1.858,13.813-5.575
	c3.722-3.717,5.583-8.318,5.584-13.804V77.687L474.392,68.293z"/>
<path fill="param(fill) #FFF" stroke="param(outline) #000" stroke-width="param(outline-width) 1" d="M225.314,360.826l11.15,70.508
	c1.577,11.748,8.629,18.597,21.154,20.544c8.617,1.184,16.155-1.261,22.615-7.332c6.459-6.071,9.104-13.415,7.933-22.032
	l-13.517-85.172c-1.566-9.011-6.46-15.279-14.682-18.805l-61.095-27.607l38.776-67.55l19.379,24.668
	c1.565,2.354,3.919,4.117,7.063,5.289l73.429,21.154c1.948,0.777,3.705,1.166,5.271,1.165c5.485,0,10.188-2.154,14.108-6.462
	s5.88-9.206,5.881-14.691c-0.001-9.788-4.704-16.248-14.109-19.379l-63.443-18.788l-48.17-58.173
	c-6.657-7.828-16.057-12.722-28.199-14.682c-21.143-3.131-37.002,4.309-47.579,22.319l-53.458,92.235
	c-3.526,5.88-5.091,13.123-4.697,21.728l1.757,116.902l-40.533,86.946c-1.565,3.525-2.54,6.46-2.922,8.802
	c-1.183,7.446,0.379,14.007,4.688,19.685c4.308,5.677,10.186,9.106,17.631,10.29c12.525,1.947,21.333-2.36,26.425-12.926
	l44.656-95.175c1.565-3.525,2.348-7.242,2.348-11.15l-0.591-72.264L225.314,360.826z"/>
</svg>
