<?xml version="1.0" encoding="utf-8"?>
<!-- Generator: Adobe Illustrator 16.0.0, SVG Export Plug-In . SVG Version: 6.00 Build 0)  -->
<!DOCTYPE svg PUBLIC "-//W3C//DTD SVG 1.1//EN" "http://www.w3.org/Graphics/SVG/1.1/DTD/svg11.dtd">
<svg version="1.1"
	 id="svg2" xmlns:dc="http://purl.org/dc/elements/1.1/" xmlns:cc="http://creativecommons.org/ns#" xmlns:rdf="http://www.w3.org/1999/02/22-rdf-syntax-ns#" xmlns:svg="http://www.w3.org/2000/svg" xmlns:sodipodi="http://sodipodi.sourceforge.net/DTD/sodipodi-0.dtd" xmlns:inkscape="http://www.inkscape.org/namespaces/inkscape" inkscape:output_extension="org.inkscape.output.svg.inkscape" sodipodi:docbase="s:\Data\FacilityIcons" sodipodi:docname="sport_jetski.svg" inkscape:version="0.46" sodipodi:version="0.32"
	 xmlns="http://www.w3.org/2000/svg" xmlns:xlink="http://www.w3.org/1999/xlink" x="0px" y="0px" width="580px" height="580px"
	 viewBox="0 0 580 580" enable-background="new 0 0 580 580" xml:space="preserve">
<sodipodi:namedview  showgrid="false" inkscape:cy="281.19503" inkscape:cx="301.5186" inkscape:zoom="0.92167712" pagecolor="#ffffff" bordercolor="#666666" guidetolerance="10.0" objecttolerance="10.0" gridtolerance="10.0" borderopacity="1.0" id="base" inkscape:current-layer="svg2" inkscape:window-y="25" inkscape:window-x="91" inkscape:pageopacity="0.0" inkscape:pageshadow="2" inkscape:window-width="1048" inkscape:window-height="947">
	</sodipodi:namedview>
<defs>
	
	
		<inkscape:perspective  inkscape:vp_z="580 : 290 : 1" inkscape:vp_y="0 : 1000 : 0" inkscape:vp_x="0 : 290 : 1" sodipodi:type="inkscape:persp3d" id="perspective2441" inkscape:persp3d-origin="290 : 193.33333 : 1">
		</inkscape:perspective>
	
		<inkscape:perspective  inkscape:vp_z="60 : 30 : 1" inkscape:vp_y="0 : 1000 : 0" inkscape:vp_x="0 : 30 : 1" sodipodi:type="inkscape:persp3d" id="perspective3452" inkscape:persp3d-origin="30 : 20 : 1">
		</inkscape:perspective>
	
		<inkscape:perspective  inkscape:vp_z="744.09448 : 526.18109 : 1" inkscape:vp_y="0 : 1000 : 0" inkscape:vp_x="0 : 526.18109 : 1" sodipodi:type="inkscape:persp3d" id="perspective4471" inkscape:persp3d-origin="372.04724 : 350.78739 : 1">
		</inkscape:perspective>
	
		<inkscape:perspective  inkscape:vp_z="12 : 6 : 1" inkscape:vp_y="0 : 1000 : 0" inkscape:vp_x="0 : 6 : 1" sodipodi:type="inkscape:persp3d" id="perspective4668" inkscape:persp3d-origin="6 : 4 : 1">
		</inkscape:perspective>
</defs>
<g id="layer3" transform="matrix(48.14969,0,0,48.14969,-536.27327,-33.306752)" inkscape:label="Layout" display="none">
	<rect id="rect4134" x="1" y="1" display="inline" fill="none" stroke="#757575" stroke-width="0.1" width="10" height="10"/>
	<rect id="rect4136" x="2" y="2" display="inline" fill="none" stroke="#757575" stroke-width="0.1" width="8" height="8"/>
</g>
<path fill="param(fill) #FFF" stroke="param(outline) #000" stroke-width="param(outline-width) 1" d="M461.343,449.53c-7.052,0-16.843,2.154-29.373,6.462
	c-12.531,4.309-22.125,6.463-28.782,6.463c-7.052,0-16.843-2.154-29.373-6.463c-12.531-4.308-22.126-6.462-28.782-6.462
	c-7.052,0-16.843,2.154-29.373,6.462c-12.531,4.309-22.323,6.463-29.374,6.463c-7.04,0-16.729-2.154-29.069-6.463
	c-12.34-4.308-22.036-6.462-29.087-6.462c-7.04,0-16.729,2.154-29.068,6.462c-12.34,4.309-22.036,6.463-29.087,6.463
	c-7.04,0-16.729-2.154-29.068-6.463c-12.34-4.308-22.036-6.462-29.087-6.462s-16.842,2.154-29.374,6.462
	c-12.531,4.309-22.322,6.463-29.374,6.463v42.882c7.051,0,16.843-2.154,29.374-6.463c12.531-4.309,22.322-6.463,29.374-6.463
	c6.657,0,16.254,2.154,28.791,6.463c12.537,4.309,22.325,6.463,29.364,6.463c7.051,0,16.747-2.154,29.087-6.463
	c12.339-4.309,22.029-6.463,29.068-6.463c7.051,0,16.747,2.154,29.087,6.463c12.339,4.309,22.029,6.463,29.069,6.463
	c7.05,0,16.842-2.154,29.374-6.463c12.53-4.309,22.321-6.463,29.373-6.463c6.656,0,16.251,2.154,28.782,6.463
	c12.53,4.309,22.321,6.463,29.373,6.463c6.657,0,16.251-2.154,28.782-6.463c12.53-4.309,22.321-6.463,29.373-6.463
	c7.051,0,16.744,2.154,29.078,6.463c12.333,4.309,22.025,6.463,29.077,6.463v-42.882c-7.052,0-16.744-2.154-29.077-6.463
	C478.087,451.685,468.394,449.53,461.343,449.53z"/>
<path fill="param(fill) #FFF" stroke="param(outline) #000" stroke-width="param(outline-width) 1" d="M180.848,158.753c8.419,6.657,18.115,9.4,29.086,8.229
	c10.959-1.565,19.768-6.558,26.424-14.978c6.657-8.419,9.203-18.115,7.637-29.086c-1.171-10.564-5.967-19.274-14.387-26.129
	c-8.42-6.854-18.115-9.498-29.086-7.933c-10.959,1.172-19.768,6.066-26.424,14.683c-6.657,8.617-9.203,18.214-7.637,28.791
	C167.632,143.288,172.428,152.097,180.848,158.753z"/>
<path fill="param(fill) #FFF" stroke="param(outline) #000" stroke-width="param(outline-width) 1" d="M533.016,352.024c-0.396-0.394-54.439-27.811-162.133-82.249
	l-41.124-53.44c-6.657-5.88-13.117-5.492-19.379,1.165c-3.921,4.697-4.507,9.789-1.758,15.274l30.548,39.35l-25.276,57.581
	l-66.366-16.457l-2.94-24.076l54.624-6.472c11.748-1.565,17.622-7.828,17.622-18.788c0-5.091-2.154-9.597-6.463-13.517
	c-4.309-3.919-9.009-5.485-14.099-4.697l-55.808,6.454l-5.271-41.107c-1.184-10.577-6.083-19.292-14.7-26.146
	c-8.617-6.854-18.208-9.499-28.773-7.933c-10.972,1.172-19.786,6.066-26.442,14.683c-6.657,8.617-9.4,18.214-8.229,28.791
	l11.76,95.749c1.565,12.537,7.637,22.134,18.214,28.791l-87.538,10.577L72.47,423.106c13.708-6.263,26.825-9.394,39.35-9.395
	c12.143,0.001,24.088,2.737,35.836,8.211c7.051,3.132,14.491,4.697,22.319,4.697c7.84,0,15.286-1.565,22.337-4.697
	c11.354-5.474,23.293-8.21,35.818-8.211c7.446,0.001,17.335,2.152,29.669,6.455c12.333,4.302,21.829,6.453,28.486,6.453
	c7.839,0,15.286-1.565,22.336-4.697c11.748-5.474,23.885-8.21,36.41-8.211c7.84,0.001,15.381,1.175,22.624,3.523
	c7.242,2.349,14.389,4.891,21.44,7.628c99.865-26.628,149.798-47.973,149.799-64.036
	C538.895,356.919,536.935,353.984,533.016,352.024z"/>
</svg>
