<?xml version="1.0" encoding="utf-8"?>
<!-- Generator: Adobe Illustrator 16.0.0, SVG Export Plug-In . SVG Version: 6.00 Build 0)  -->
<!DOCTYPE svg PUBLIC "-//W3C//DTD SVG 1.1//EN" "http://www.w3.org/Graphics/SVG/1.1/DTD/svg11.dtd">
<svg version="1.1"
	 id="svg2" xmlns:dc="http://purl.org/dc/elements/1.1/" xmlns:cc="http://web.resource.org/cc/" xmlns:rdf="http://www.w3.org/1999/02/22-rdf-syntax-ns#" xmlns:svg="http://www.w3.org/2000/svg" xmlns:sodipodi="http://sodipodi.sourceforge.net/DTD/sodipodi-0.dtd" xmlns:inkscape="http://www.inkscape.org/namespaces/inkscape" sodipodi:docbase="s:\Data\FacilityIcons" sodipodi:docname="1_1064_snooker_table.svg" inkscape:version="0.44.1" sodipodi:version="0.32"
	 xmlns="http://www.w3.org/2000/svg" xmlns:xlink="http://www.w3.org/1999/xlink" x="0px" y="0px" width="580px" height="580px"
	 viewBox="0 0 580 580" enable-background="new 0 0 580 580" xml:space="preserve">
<sodipodi:namedview  inkscape:cy="290" inkscape:cx="290" inkscape:zoom="0.92167711" pagecolor="#ffffff" bordercolor="#666666" guidetolerance="10.0" objecttolerance="10.0" gridtolerance="10.0" borderopacity="1.0" id="base" inkscape:current-layer="svg2" inkscape:window-y="0" inkscape:window-x="0" inkscape:pageopacity="0.0" inkscape:pageshadow="2" inkscape:window-width="1277" inkscape:window-height="1005">
	</sodipodi:namedview>
<circle fill="param(fill) #FFF" stroke="param(outline) #000" stroke-width="param(outline-width) 1" cx="143.873" cy="454.941" r="33.689"/>
<circle fill="param(fill) #FFF" stroke="param(outline) #000" stroke-width="param(outline-width) 1" cx="216.252" cy="454.941" r="33.689"/>
<circle fill="param(fill) #FFF" stroke="param(outline) #000" stroke-width="param(outline-width) 1" cx="288.631" cy="454.941" r="33.689"/>
<circle fill="param(fill) #FFF" stroke="param(outline) #000" stroke-width="param(outline-width) 1" cx="361.01" cy="454.941" r="33.689"/>
<circle fill="param(fill) #FFF" stroke="param(outline) #000" stroke-width="param(outline-width) 1" cx="433.389" cy="454.941" r="33.689"/>
<circle fill="param(fill) #FFF" stroke="param(outline) #000" stroke-width="param(outline-width) 1" cx="178.999" cy="391.101" r="33.689"/>
<circle fill="param(fill) #FFF" stroke="param(outline) #000" stroke-width="param(outline-width) 1" cx="251.377" cy="391.101" r="33.689"/>
<circle fill="param(fill) #FFF" stroke="param(outline) #000" stroke-width="param(outline-width) 1" cx="323.757" cy="391.101" r="33.689"/>
<circle fill="param(fill) #FFF" stroke="param(outline) #000" stroke-width="param(outline-width) 1" cx="396.136" cy="391.101" r="33.689"/>
<circle fill="param(fill) #FFF" stroke="param(outline) #000" stroke-width="param(outline-width) 1" cx="215.621" cy="328.19" r="33.689"/>
<circle fill="param(fill) #FFF" stroke="param(outline) #000" stroke-width="param(outline-width) 1" cx="288" cy="328.19" r="33.689"/>
<circle fill="param(fill) #FFF" stroke="param(outline) #000" stroke-width="param(outline-width) 1" cx="360.379" cy="328.19" r="33.689"/>
<circle fill="param(fill) #FFF" stroke="param(outline) #000" stroke-width="param(outline-width) 1" cx="251.345" cy="265.884" r="33.689"/>
<circle fill="param(fill) #FFF" stroke="param(outline) #000" stroke-width="param(outline-width) 1" cx="323.724" cy="265.884" r="33.689"/>
<circle fill="param(fill) #FFF" stroke="param(outline) #000" stroke-width="param(outline-width) 1" cx="288" cy="204.646" r="33.689"/>
<path fill="param(fill) #FFF" stroke="param(outline) #000" stroke-width="param(outline-width) 1" d="M485.368,430.94c-6.329-10.965-11.255-19.225-18.118-30.608
	l-55.035-95.801l-69.229-121.448c-6.169-10.799-13.846-24.239-27.15-31.921c-8.45-4.878-18.052-7.458-27.767-7.458
	c-19.85,0-38.336,10.662-48.245,27.825c-3.533,6.119-6.062,11.239-8.508,16.191c-2.249,4.552-4.372,8.852-7.189,13.772
	c-0.029,0.05-0.057,0.101-0.084,0.152l-56.805,104.491L98.483,417.438c-0.889,1.478-1.806,2.947-2.725,4.42
	c-5.811,9.316-12.397,19.876-12.397,33.41c0,30.762,26.984,57.745,57.746,57.745c5.994,0,11.014,0.195,15.869,0.384
	c5.798,0.225,11.265,0.438,17.966,0.331l143.864-0.25l105.986,1.396l1.561,0.003c12.609,0,25.98-0.612,38.648-7.925
	C491.573,491.61,500.709,457.511,485.368,430.94z M457.122,493.304c-9.3,5.368-19.861,5.813-30.769,5.813l-1.432-0.002
	l-105.969-1.396c-0.035-0.001-0.07-0.001-0.105-0.001c-0.004,0-0.008,0-0.012,0l-143.973,0.25c-0.038,0-0.075,0-0.113,0.001
	c-6.317,0.103-11.552-0.102-17.162-0.32c-5.005-0.194-10.182-0.396-16.481-0.396c-21.974,0-41.986-20.012-41.986-41.985
	c0-9.022,4.862-16.817,10.01-25.069c0.964-1.546,1.926-3.089,2.81-4.559l68.818-111.407c0.076-0.124,0.149-0.25,0.219-0.378
	l56.868-104.607c3.035-5.308,5.355-10.004,7.599-14.547c2.335-4.727,4.75-9.615,8.027-15.292
	c7.103-12.302,20.359-19.945,34.597-19.945c6.953,0,13.829,1.849,19.886,5.346c9.614,5.551,15.578,15.992,21.343,26.083
	l69.239,121.465l55.089,95.895c0.028,0.049,0.056,0.097,0.085,0.144c6.835,11.338,11.729,19.544,18.01,30.424
	C482.716,457.865,476.167,482.307,457.122,493.304z"/>
<circle fill="param(fill) #FFF" stroke="param(outline) #000" stroke-width="param(outline-width) 1" cx="286" cy="90.27" r="33.689"/>
</svg>
