<svg enable-background="new 0 0 580 580" height="580" viewBox="0 0 580 580" width="580" xmlns="http://www.w3.org/2000/svg">
<path d="m392.531 198.438c-8.013-7.81-17.434-11.718-28.25-11.719-10.36 0-19.262 3.328-26.719 10 .22 7.023.475 14.05.813 21.063 4.179 15.444 12.086 29.946 18.031 44.906.46 1.386 1.003 2.73 1.563 4.094 2.041.292 4.145.438 6.313.438 10.816 0 20.237-3.908 28.25-11.719 8.012-7.81 12-17.311 12-28.531-.001-11.209-3.989-20.722-12.001-28.532z" fill="param(fill)" fill-opacity="param(fill-opacity)" stroke="param(outline)" stroke-opacity="param(outline-opacity)" stroke-width="param(outline-width)"/>
<path d="m353.531 270.817c-.01-.002-.02-.004-.029-.007l-21.002-49.154-2.934-74.797c2.001.257 4.025-.31 5.594-1.599 10.757-8.846 16.927-21.88 16.927-35.76 0-20.997-14.053-38.763-33.243-44.417v-56.552h-24.563v56.112c-19.97 5.129-34.774 23.295-34.774 44.856 0 15.963 8.064 30.594 21.571 39.138 1.187.75 2.548 1.136 3.922 1.136.748 0 1.499-.114 2.227-.346.085-.027.165-.064.248-.094l3.087 77.917c.105 2.561.678 5.082 1.688 7.438l22.959 53.749c-1.026 2.132-1.836 4.4-2.396 6.782l-33.281 132.625c-.008.03-.015.062-.023.092l-102.696 84.377c-11.775 9.233-13.836 26.264-4.603 38.039 9.233 11.774 26.264 13.836 38.039 4.603.33-.258.653-.524.971-.798l102.898-84.543c13.472-1.094 25.445-10.434 29.236-24.221.133-.482.255-.968.365-1.455l33.281-132.625c4.702-17.664-5.806-35.794-23.469-40.496zm-70.558-139.426c-5.598-5.815-8.792-13.589-8.792-21.891 0-17.442 14.176-31.632 31.601-31.632 17.442 0 31.632 14.19 31.632 31.632 0 6.881-2.224 13.46-6.259 18.863-6.398-6.315-15.299-9.928-24.368-9.446-9.285.203-17.945 4.883-23.814 12.474z" fill="param(fill)" fill-opacity="param(fill-opacity)" stroke="param(outline)" stroke-opacity="param(outline-opacity)" stroke-width="param(outline-width)"/>
</svg>
