<?xml version="1.0" encoding="utf-8"?>
<!-- Generator: Adobe Illustrator 16.0.0, SVG Export Plug-In . SVG Version: 6.00 Build 0)  -->
<!DOCTYPE svg PUBLIC "-//W3C//DTD SVG 1.1//EN" "http://www.w3.org/Graphics/SVG/1.1/DTD/svg11.dtd">
<svg version="1.1"
	 id="svg2" xmlns:dc="http://purl.org/dc/elements/1.1/" xmlns:cc="http://creativecommons.org/ns#" xmlns:rdf="http://www.w3.org/1999/02/22-rdf-syntax-ns#" xmlns:svg="http://www.w3.org/2000/svg" xmlns:sodipodi="http://sodipodi.sourceforge.net/DTD/sodipodi-0.dtd" xmlns:inkscape="http://www.inkscape.org/namespaces/inkscape" inkscape:output_extension="org.inkscape.output.svg.inkscape" sodipodi:docname="sport_baseball.svg" inkscape:version="0.47 r22583" sodipodi:version="0.32"
	 xmlns="http://www.w3.org/2000/svg" xmlns:xlink="http://www.w3.org/1999/xlink" x="0px" y="0px" width="580px" height="580px"
	 viewBox="0 0 580 580" enable-background="new 0 0 580 580" xml:space="preserve">
<sodipodi:namedview  showgrid="false" inkscape:cy="190.80361" inkscape:cx="717.33064" inkscape:zoom="0.46083856" pagecolor="#ffffff" bordercolor="#666666" guidetolerance="10.0" objecttolerance="10.0" gridtolerance="10.0" borderopacity="1.0" id="base" inkscape:window-maximized="0" inkscape:current-layer="svg2" inkscape:window-y="25" inkscape:window-x="91" inkscape:pageopacity="0.0" inkscape:pageshadow="2" inkscape:window-width="1048" inkscape:window-height="947">
	</sodipodi:namedview>
<defs>
	
	
		<inkscape:perspective  inkscape:vp_z="580 : 290 : 1" inkscape:vp_y="0 : 1000 : 0" inkscape:vp_x="0 : 290 : 1" sodipodi:type="inkscape:persp3d" id="perspective2441" inkscape:persp3d-origin="290 : 193.33333 : 1">
		</inkscape:perspective>
	
		<inkscape:perspective  inkscape:vp_z="60 : 30 : 1" inkscape:vp_y="0 : 1000 : 0" inkscape:vp_x="0 : 30 : 1" sodipodi:type="inkscape:persp3d" id="perspective3452" inkscape:persp3d-origin="30 : 20 : 1">
		</inkscape:perspective>
	
		<inkscape:perspective  inkscape:vp_z="744.09448 : 526.18109 : 1" inkscape:vp_y="0 : 1000 : 0" inkscape:vp_x="0 : 526.18109 : 1" sodipodi:type="inkscape:persp3d" id="perspective4471" inkscape:persp3d-origin="372.04724 : 350.78739 : 1">
		</inkscape:perspective>
	
		<inkscape:perspective  inkscape:vp_z="12 : 6 : 1" inkscape:vp_y="0 : 1000 : 0" inkscape:vp_x="0 : 6 : 1" sodipodi:type="inkscape:persp3d" id="perspective4668" inkscape:persp3d-origin="6 : 4 : 1">
		</inkscape:perspective>
	
		<inkscape:perspective  inkscape:vp_z="1 : 0.5 : 1" inkscape:vp_y="0 : 1000 : 0" inkscape:vp_x="0 : 0.5 : 1" sodipodi:type="inkscape:persp3d" id="perspective19499" inkscape:persp3d-origin="0.5 : 0.33333333 : 1">
		</inkscape:perspective>
</defs>
<g id="layer3" transform="matrix(48.14969,0,0,48.14969,-536.27327,-33.306752)" inkscape:label="Layout" display="none">
	<rect id="rect4134" x="1" y="1" display="inline" fill="none" stroke="#757575" stroke-width="0.1" width="10" height="10"/>
	<rect id="rect4136" x="2" y="2" display="inline" fill="none" stroke="#757575" stroke-width="0.1" width="8" height="8"/>
</g>
<g>
	<path fill="param(fill) #FFF" stroke="param(outline) #000" stroke-width="param(outline-width) 1" stroke-miterlimit="10" d="M304.187,289.491
		c8.983,0,16.803-3.243,23.457-9.73s9.981-14.39,9.981-23.709c0-9.308-3.327-17.206-9.981-23.693s-14.474-9.73-23.457-9.73
		c-9.31,0-17.207,3.244-23.693,9.73c-6.487,6.487-9.73,14.385-9.73,23.693c0,9.319,3.243,17.222,9.73,23.709
		C286.98,286.248,294.877,289.491,304.187,289.491z"/>
	<path fill="param(fill) #FFF" stroke="param(outline) #000" stroke-width="param(outline-width) 1" stroke-miterlimit="10" d="M403.724,319.902
		c6.428-5.305,3.68-4.353,7.669-8.342l38.788-69.436c2.994-3.665,4.492-7.659,4.491-11.984c0.001-11.643-5.653-17.465-16.963-17.465
		c-5.318,0-9.974,2.163-13.963,6.487l-36.563,64.35l-55.172,13.577c-0.762-0.073-1.542-0.123-2.366-0.123h-63.375l-47.765-13.454
		l-36.563-64.35c-3.99-4.324-8.644-6.486-13.963-6.487c-11.309,0-16.963,5.822-16.963,17.465c0,4.325,1.498,8.319,4.492,11.984
		l38.788,69.436c3.99,3.989,1.242,3.037,7.669,8.342l58.823,16.634v92.663l-98.904,93.918c-1.005,2.335-1.508,4.664-1.507,6.989
		c0,6.648,2.494,12.387,7.484,17.214c4.989,4.827,10.813,7.24,17.473,7.24c11.968,0,11.938-1.146,20.094-5.504l97.266-86.435
		l81.635,85.759c10.807,11.419,14.828,13.739,26.797,13.739c6.658,0,12.483-2.41,17.473-7.232s7.483-10.558,7.484-17.206
		c-0.001-2.335-0.336-4.665-1.005-6.989l-89.475-98.996v-95.359L403.724,319.902z"/>
</g>
<path id="rect20031" fill="param(fill) #FFF" stroke="param(outline) #000" stroke-width="param(outline-width) 1" d="M137.413,151.303h4.125
	c2.441,0,4.42,1.979,4.42,4.42v74.85c0,2.441-1.979,4.42-4.42,4.42h-4.125c-2.441,0-4.42-1.979-4.42-4.42v-74.85
	C132.993,153.282,134.972,151.303,137.413,151.303z"/>
<path id="rect20033" fill="param(fill) #FFF" stroke="param(outline) #000" stroke-width="param(outline-width) 1" d="M463.34,151.303h4.126c2.441,0,4.42,1.979,4.42,4.42
	v74.85c0,2.441-1.979,4.42-4.42,4.42h-4.126c-2.44,0-4.42-1.979-4.42-4.42v-74.85C458.92,153.282,460.899,151.303,463.34,151.303z"
	/>
<g id="path20035" opacity="0.5" enable-background="new    ">
	
		<rect x="135.881" y="20.902" fill="param(fill) #FFF" stroke="param(outline) #000" stroke-width="param(outline-width) 1" stroke-miterlimit="10" width="8" height="128.483"/>
</g>
<g id="path20037" opacity="0.5" enable-background="new    ">
	
		<rect x="461.808" y="20.902" fill="param(fill) #FFF" stroke="param(outline) #000" stroke-width="param(outline-width) 1" stroke-miterlimit="10" width="8" height="128.483"/>
</g>
</svg>
