<?xml version="1.0" encoding="utf-8"?>
<!-- Generator: Adobe Illustrator 16.0.0, SVG Export Plug-In . SVG Version: 6.00 Build 0)  -->
<!DOCTYPE svg PUBLIC "-//W3C//DTD SVG 1.1//EN" "http://www.w3.org/Graphics/SVG/1.1/DTD/svg11.dtd">
<svg version="1.1"
	 id="svg2" xmlns:dc="http://purl.org/dc/elements/1.1/" xmlns:cc="http://creativecommons.org/ns#" xmlns:rdf="http://www.w3.org/1999/02/22-rdf-syntax-ns#" xmlns:svg="http://www.w3.org/2000/svg" xmlns:sodipodi="http://sodipodi.sourceforge.net/DTD/sodipodi-0.dtd" xmlns:inkscape="http://www.inkscape.org/namespaces/inkscape" inkscape:output_extension="org.inkscape.output.svg.inkscape" sodipodi:docbase="s:\Data\FacilityIcons" sodipodi:docname="sport_diving.svg" inkscape:version="0.46" sodipodi:version="0.32"
	 xmlns="http://www.w3.org/2000/svg" xmlns:xlink="http://www.w3.org/1999/xlink" x="0px" y="0px" width="580px" height="580px"
	 viewBox="0 0 580 580" enable-background="new 0 0 580 580" xml:space="preserve">
<sodipodi:namedview  showgrid="false" inkscape:cy="281.19503" inkscape:cx="301.5186" inkscape:zoom="0.92167712" pagecolor="#ffffff" bordercolor="#666666" guidetolerance="10.0" objecttolerance="10.0" gridtolerance="10.0" borderopacity="1.0" id="base" inkscape:current-layer="svg2" inkscape:window-y="25" inkscape:window-x="91" inkscape:pageopacity="0.0" inkscape:pageshadow="2" inkscape:window-width="1048" inkscape:window-height="947">
	</sodipodi:namedview>
<defs>
	
	
		<inkscape:perspective  inkscape:vp_z="580 : 290 : 1" inkscape:vp_y="0 : 1000 : 0" inkscape:vp_x="0 : 290 : 1" sodipodi:type="inkscape:persp3d" id="perspective2441" inkscape:persp3d-origin="290 : 193.33333 : 1">
		</inkscape:perspective>
	
		<inkscape:perspective  inkscape:vp_z="60 : 30 : 1" inkscape:vp_y="0 : 1000 : 0" inkscape:vp_x="0 : 30 : 1" sodipodi:type="inkscape:persp3d" id="perspective3452" inkscape:persp3d-origin="30 : 20 : 1">
		</inkscape:perspective>
	
		<inkscape:perspective  inkscape:vp_z="744.09448 : 526.18109 : 1" inkscape:vp_y="0 : 1000 : 0" inkscape:vp_x="0 : 526.18109 : 1" sodipodi:type="inkscape:persp3d" id="perspective4471" inkscape:persp3d-origin="372.04724 : 350.78739 : 1">
		</inkscape:perspective>
	
		<inkscape:perspective  inkscape:vp_z="12 : 6 : 1" inkscape:vp_y="0 : 1000 : 0" inkscape:vp_x="0 : 6 : 1" sodipodi:type="inkscape:persp3d" id="perspective4668" inkscape:persp3d-origin="6 : 4 : 1">
		</inkscape:perspective>
</defs>
<g id="layer3" transform="matrix(48.14969,0,0,48.14969,-536.27327,-33.306752)" inkscape:label="Layout" display="none">
	<rect id="rect4134" x="1" y="1" display="inline" fill="none" stroke="#757575" stroke-width="0.1" width="10" height="10"/>
	<rect id="rect4136" x="2" y="2" display="inline" fill="none" stroke="#757575" stroke-width="0.1" width="8" height="8"/>
</g>
<path fill="#FFFB3D" stroke="#1EFF31" stroke-width="4.4444" d="M150.127,447.182c0,5.88,2.25,11.072,6.75,15.578
	c4.5,4.506,9.689,6.759,15.569,6.759c8.617,0,15.077-3.723,19.379-11.169l63.444-110.43l138.63-85.781
	c5.88-3.908,10.385-8.605,13.517-14.091l95.749-162.724c2.354-3.908,3.53-8.408,3.531-13.5c-0.001-7.445-2.645-13.908-7.933-19.388
	c-5.289-5.479-11.656-8.219-19.102-8.219c-10.565,0-18.591,4.697-24.076,14.09l-79.883,135.69l-116.902,70.507
	c-6.274,3.908-10.978,8.605-14.108,14.091L153.049,436.03C151.101,439.162,150.127,442.879,150.127,447.182z"/>
<path fill="#FFFB3D" stroke="#1EFF31" stroke-width="4.4444" d="M491.127,483.896c-12.341-4.11-22.036-6.166-29.087-6.166
	c-7.04,0-16.828,2.056-29.364,6.166c-12.538,4.111-22.135,6.167-28.791,6.167c-7.04,0-16.828-2.056-29.364-6.167
	c-12.538-4.11-22.135-6.166-28.791-6.166c-7.04,0-16.828,2.056-29.365,6.166c-12.537,4.111-22.325,6.167-29.364,6.167
	c-6.669,0-16.269-2.056-28.8-6.167c-12.531-4.11-22.316-6.166-29.355-6.166c-7.051,0-16.747,2.056-29.086,6.166
	c-12.34,4.111-22.036,6.167-29.086,6.167c-7.04,0-16.729-2.056-29.069-6.167c-12.34-4.11-22.036-6.166-29.087-6.166
	c-7.04,0-16.828,2.056-29.364,6.166c-12.537,4.111-22.134,6.167-28.791,6.167v43.474c6.657,0,16.254-2.154,28.791-6.463
	c12.537-4.309,22.325-6.463,29.364-6.463c7.051,0,16.747,2.154,29.087,6.463c12.339,4.309,22.029,6.463,29.069,6.463
	c7.051,0,16.747-2.154,29.086-6.463c12.339-4.309,22.035-6.463,29.086-6.463c7.039,0,16.824,2.154,29.355,6.463
	c12.531,4.309,22.131,6.463,28.8,6.463c7.039,0,16.827-2.154,29.364-6.463s22.325-6.463,29.365-6.463
	c6.656,0,16.253,2.154,28.791,6.463c12.536,4.309,22.324,6.463,29.364,6.463c7.051,0,16.746-2.154,29.087-6.463
	c12.339-4.309,22.028-6.463,29.068-6.463c7.051,0,16.746,2.154,29.087,6.463c12.339,4.309,22.028,6.463,29.068,6.463v-43.474
	C513.155,490.063,503.466,488.007,491.127,483.896z"/>
<path fill="#FFFB3D" stroke="#1EFF31" stroke-width="4.4444" d="M185.945,322.068c10.971,0,20.275-3.818,27.913-11.455
	c7.637-7.637,11.455-16.941,11.456-27.913c0-10.565-3.819-19.666-11.456-27.303c-7.637-7.637-16.941-11.455-27.913-11.456
	c-10.959,0-20.258,3.819-27.895,11.456c-7.637,7.637-11.456,16.738-11.455,27.303c0,10.971,3.818,20.276,11.455,27.913
	S174.986,322.068,185.945,322.068z"/>
</svg>
