<svg enable-background="new 0 0 580 580" height="580" viewBox="0 0 580 580" width="580" xmlns="http://www.w3.org/2000/svg">
<path d="m86.092 310.9c-7.446 0-13.714 2.352-18.806 7.054-5.091 4.703-7.637 10.771-7.637 18.205 0 7.052 2.545 13.024 7.637 17.918 5.091 4.895 11.163 7.341 18.214 7.341h106.326c4.314 0 8.228-.388 11.742-1.165 9.011-1.565 15.279-4.308 18.805-8.229l52.275-58.155 61.096 58.747-24.668 109.839c-.789 2.354-1.184 4.314-1.183 5.88-.001 7.052 2.545 13.123 7.637 18.214 5.091 5.092 11.162 7.638 18.214 7.638 13.313 0 21.542-6.854 24.686-20.563l29.956-133.342c3.525-14.103 1.959-24.481-4.697-31.14l-53.458-53.458 58.155-67.549 37.593 37.593c3.92 3.908 8.425 5.862 13.517 5.862 6.657 0 13.116-2.934 19.38-8.802l61.095-61.095c3.131-3.92 4.696-8.229 4.697-12.926-.001-5.868-2.057-10.762-6.167-14.682-4.111-3.919-8.91-5.88-14.395-5.88-5.486 0-9.795 1.566-12.925 4.697l-50.519 50.536-61.096-61.095c-4.697-4.708-10.571-7.063-17.622-7.063h-95.749c-5.88 0-10.972 2.354-15.274 7.063l-65.792 75.778c-4.697 3.908-7.046 8.802-7.045 14.682 0 5.486 1.957 10.186 5.871 14.1 3.914 3.915 8.614 5.871 14.1 5.871 5.868 0 10.959-2.348 15.274-7.045l61.095-71.081 35.245.591-134.525 156.253z" fill="param(fill)" fill-opacity="param(fill-opacity)" stroke="param(outline)" stroke-opacity="param(outline-opacity)" stroke-width="param(outline-width)"/>
<path d="m412.113 125.857c10.576 0 19.782-3.818 27.616-11.456 7.834-7.636 11.751-16.935 11.752-27.895-.001-10.971-3.918-20.275-11.752-27.912-7.834-7.637-17.04-11.455-27.616-11.456-10.96 0-20.258 3.819-27.895 11.456-7.638 7.637-11.456 16.941-11.455 27.912-.001 10.96 3.817 20.258 11.455 27.895 7.637 7.638 16.935 11.456 27.895 11.456z" fill="param(fill)" fill-opacity="param(fill-opacity)" stroke="param(outline)" stroke-opacity="param(outline-opacity)" stroke-width="param(outline-width)"/>
<path d="m392.143 490.654l152.146-305.459-15.273-6.471-153.905 311.93z" fill="param(fill)" fill-opacity="param(fill-opacity)" stroke="param(outline)" stroke-opacity="param(outline-opacity)" stroke-width="param(outline-width)"/>
<path d="m529.016 490.063c-.001 6.657-2.35 12.238-7.046 16.744-4.697 4.506-10.38 6.759-17.048 6.759h-391.223v16.457h391.223c10.971 0 20.373-3.917 28.208-11.751 7.833-7.835 11.75-17.237 11.751-28.209z" fill="param(fill)" fill-opacity="param(fill-opacity)" stroke="param(outline)" stroke-opacity="param(outline-opacity)" stroke-width="param(outline-width)"/>
<path d="m169.506 484.201c7.051 0 14.491-2.743 22.319-8.229l-11.742-12.334c-3.526 2.342-6.854 3.514-9.985 3.514-3.132 0-5.486-.783-7.063-2.349l-.574-.573-130.419-131.011v22.911l121.599 122.19c4.314 3.921 9.603 5.881 15.865 5.881z" fill="param(fill)" fill-opacity="param(fill-opacity)" stroke="param(outline)" stroke-opacity="param(outline-opacity)" stroke-width="param(outline-width)"/>
<path d="m33.225 216.908h133.341v15.866h-133.341z" fill="param(fill)" fill-opacity="param(fill-opacity)" stroke="param(outline)" stroke-opacity="param(outline-opacity)" stroke-width="param(outline-width)"/>
</svg>
