<svg enable-background="new 0 0 580 580" height="580" viewBox="0 0 580 580" width="580" xmlns="http://www.w3.org/2000/svg">
<circle cx="478.049" cy="87.691" fill="param(fill)" r="45.353" stroke="param(outline)" stroke-width="param(outline-width)"/>
<path d="m475.238 502.403v9.279c0 9.279-8.888 8.365-8.888 8.365h-117.171v17.056h123.707c23.656-3.006 19.67-34.7 19.67-34.7z" fill="param(fill)" fill-opacity="param(fill-opacity)" stroke="param(outline)" stroke-opacity="param(outline-opacity)" stroke-width="param(outline-width)"/>
<path d="m151.952 512.663c-6.6 6.47-12.155-.327-12.155-.327l-82.929-82.863-11.959 12.155 87.373 87.438c18.821 14.573 38.491-10.717 38.491-10.717l-12.22-12.286z" fill="param(fill)" fill-opacity="param(fill-opacity)" stroke="param(outline)" stroke-opacity="param(outline-opacity)" stroke-width="param(outline-width)"/>
<path d="m183.908 161.995l158.343.262-66.722 66.396c-9.541 9.737-14.377 20.716-14.377 35.093 0 13.789 5.49 26.075 14.639 35.093l100.965 101.75.131 82.145c0 15.423 12.481 27.97 28.035 27.97 14.115 0 27.904-16.337 27.904-27.97v-114.298c0-7.973-3.333-15.161-8.691-20.324l-67.049-66.853 88.941-88.941c16.729-20.847 7.907-45.875 7.907-45.875-9.28-27.774-40.713-28.688-40.713-28.688l-229.313-.065c-12.22 0-22.153 9.868-22.153 22.154 0 12.284 9.933 22.151 22.153 22.151z" fill="param(fill)" fill-opacity="param(fill-opacity)" stroke="param(outline)" stroke-opacity="param(outline-opacity)" stroke-width="param(outline-width)"/>
<path d="m255.793 304.589l-132.268 132.529c-9.999 8.038-13.266 22.219-7.254 34.048 6.862 13.527 23.526 18.886 37.054 11.959 1.83-.98 3.529-2.092 5.097-3.398l135.797-135.993-32.609-32.479c-2.092-2.026-4.052-4.248-5.817-6.666z" fill="param(fill)" fill-opacity="param(fill-opacity)" stroke="param(outline)" stroke-opacity="param(outline-opacity)" stroke-width="param(outline-width)"/>
</svg>
