<?xml version="1.0" encoding="UTF-8" standalone="no"?>
<!-- Generator: Adobe Illustrator 12.0.0, SVG Export Plug-In . SVG Version: 6.00 Build 51448)  --><svg height="386.136" id="Layer_1" inkscape:version="0.42" sodipodi:docbase="F:\openclip\wmf\01" sodipodi:docname="sport_Harnsasana.svg" sodipodi:version="0.32" space="preserve" style="overflow:visible;enable-background:new 0 0 410.506 386.136;" version="1.1" viewBox="0 0 410.506 386.136" width="410.506" xmlns="http://www.w3.org/2000/svg" xmlns:cc="http://web.resource.org/cc/" xmlns:dc="http://purl.org/dc/elements/1.1/" xmlns:inkscape="http://www.inkscape.org/namespaces/inkscape" xmlns:rdf="http://www.w3.org/1999/02/22-rdf-syntax-ns#" xmlns:sodipodi="http://inkscape.sourceforge.net/DTD/sodipodi-0.dtd" xmlns:svg="http://www.w3.org/2000/svg">
  <metadata>
    <rdf:RDF xmlns:cc="http://web.resource.org/cc/" xmlns:dc="http://purl.org/dc/elements/1.1/" xmlns:rdf="http://www.w3.org/1999/02/22-rdf-syntax-ns#">
      <cc:Work rdf:about="">
        <dc:title>Various Cliparts</dc:title>
        <dc:description></dc:description>
        <dc:subject>
          <rdf:Bag>
            <rdf:li></rdf:li>
          </rdf:Bag>
        </dc:subject>
        <dc:publisher>
          <cc:Agent rdf:about="http://www.openclipart.org/">
            <dc:title></dc:title>
          </cc:Agent>
        </dc:publisher>
        <dc:creator>
          <cc:Agent>
            <dc:title>Architetto Francesco Rollandin</dc:title>
          </cc:Agent>
        </dc:creator>
        <dc:rights>
          <cc:Agent>
            <dc:title>Architetto Francesco Rollandin</dc:title>
          </cc:Agent>
        </dc:rights>
        <dc:date></dc:date>
        <dc:format>image/svg+xml</dc:format>
        <dc:type rdf:resource="http://purl.org/dc/dcmitype/StillImage"/>
        <cc:license rdf:resource="http://web.resource.org/cc/PublicDomain"/>
        <dc:language>en</dc:language>
      </cc:Work>
      <cc:License rdf:about="http://web.resource.org/cc/PublicDomain">
        <cc:permits rdf:resource="http://web.resource.org/cc/Reproduction"/>
        <cc:permits rdf:resource="http://web.resource.org/cc/Distribution"/>
        <cc:permits rdf:resource="http://web.resource.org/cc/DerivativeWorks"/>
      </cc:License>
    </rdf:RDF>
  </metadata>
  <defs id="defs12"/>
  <sodipodi:namedview bordercolor="#666666" borderopacity="1.0" id="base" inkscape:current-layer="Layer_1" inkscape:cx="205.25301" inkscape:cy="193.06799" inkscape:pageopacity="0.0" inkscape:pageshadow="2" inkscape:window-height="510" inkscape:window-width="787" inkscape:window-x="88" inkscape:window-y="116" inkscape:zoom="0.93231404" pagecolor="#ffffff"/>
  <path d="M208.618,20.192c-11.541,33.326-53.975,35.751-80.755,53.837  C101.01,27.638,173.084-14.678,208.618,20.192z" id="path3" style="fill-rule:evenodd;clip-rule:evenodd;fill:#FFFFFF;"/>
  <path d="M148.051,154.784c7.821-1.098,11.975,1.485,13.459,6.729  c-46.345,63.577-27.537,192.299-121.133,208.618C113.602,335.681,101.292,215.699,148.051,154.784z" id="path5" style="fill-rule:evenodd;clip-rule:evenodd;"/>
  <path d="M141.322,13.462c86.241-59.574,120.186,97.685,33.647,100.944  C118.031,116.555,94.425,45.862,141.322,13.462z M127.863,74.029c26.781-18.086,69.215-20.511,80.755-53.837  C173.084-14.678,101.01,27.638,127.863,74.029z" id="path7" style="fill-rule:evenodd;clip-rule:evenodd;"/>
  <path d="M410.506,208.621c-53.205,32.241-59.555,100.813-40.377,174.969  c-85.665,12.599-226.868-20.24-235.537-127.861c5.81-41.298,42.487-51.728,33.648-107.674C73.29,171.995,98.29,315.886,0,336.483  c55.638-45.313,93.163-108.725,100.944-201.888c36.54,5.133,52.154-10.659,87.484-6.729  c-6.386,127.52,43.145,199.12,134.593,228.806c44.058-12.342-6.474-83.93,0-121.132c3.391-19.486,44.176-68.821,33.647-26.919  C361.742,221.949,394.451,186.02,410.506,208.621z" id="path9" style="fill-rule:evenodd;clip-rule:evenodd;"/>
</svg>
