<?xml version="1.0" encoding="utf-8"?>
<!-- Generator: Adobe Illustrator 16.0.0, SVG Export Plug-In . SVG Version: 6.00 Build 0)  -->
<!DOCTYPE svg PUBLIC "-//W3C//DTD SVG 1.1//EN" "http://www.w3.org/Graphics/SVG/1.1/DTD/svg11.dtd">
<svg version="1.1"
	 id="svg2" xmlns:dc="http://purl.org/dc/elements/1.1/" xmlns:cc="http://creativecommons.org/ns#" xmlns:rdf="http://www.w3.org/1999/02/22-rdf-syntax-ns#" xmlns:svg="http://www.w3.org/2000/svg" xmlns:sodipodi="http://sodipodi.sourceforge.net/DTD/sodipodi-0.dtd" xmlns:inkscape="http://www.inkscape.org/namespaces/inkscape" inkscape:output_extension="org.inkscape.output.svg.inkscape" sodipodi:docbase="s:\Data\FacilityIcons" sodipodi:docname="sport_cricket.svg" inkscape:version="0.46" sodipodi:version="0.32"
	 xmlns="http://www.w3.org/2000/svg" xmlns:xlink="http://www.w3.org/1999/xlink" x="0px" y="0px" width="580px" height="580px"
	 viewBox="0 0 580 580" enable-background="new 0 0 580 580" xml:space="preserve">
<sodipodi:namedview  showgrid="false" inkscape:cy="110.18246" inkscape:cx="188.65113" inkscape:zoom="1.3034483" pagecolor="#ffffff" bordercolor="#666666" guidetolerance="10.0" objecttolerance="10.0" gridtolerance="10.0" borderopacity="1.0" id="base" inkscape:current-layer="svg2" inkscape:window-y="25" inkscape:window-x="91" inkscape:pageopacity="0.0" inkscape:pageshadow="2" inkscape:window-width="1048" inkscape:window-height="947">
	</sodipodi:namedview>
<defs>
	
	
		<inkscape:perspective  inkscape:vp_z="580 : 290 : 1" inkscape:vp_y="0 : 1000 : 0" inkscape:vp_x="0 : 290 : 1" sodipodi:type="inkscape:persp3d" id="perspective2441" inkscape:persp3d-origin="290 : 193.33333 : 1">
		</inkscape:perspective>
	
		<inkscape:perspective  inkscape:vp_z="60 : 30 : 1" inkscape:vp_y="0 : 1000 : 0" inkscape:vp_x="0 : 30 : 1" sodipodi:type="inkscape:persp3d" id="perspective3452" inkscape:persp3d-origin="30 : 20 : 1">
		</inkscape:perspective>
	
		<inkscape:perspective  inkscape:vp_z="744.09448 : 526.18109 : 1" inkscape:vp_y="0 : 1000 : 0" inkscape:vp_x="0 : 526.18109 : 1" sodipodi:type="inkscape:persp3d" id="perspective4471" inkscape:persp3d-origin="372.04724 : 350.78739 : 1">
		</inkscape:perspective>
	
		<inkscape:perspective  inkscape:vp_z="12 : 6 : 1" inkscape:vp_y="0 : 1000 : 0" inkscape:vp_x="0 : 6 : 1" sodipodi:type="inkscape:persp3d" id="perspective4668" inkscape:persp3d-origin="6 : 4 : 1">
		</inkscape:perspective>
	
		<inkscape:perspective  inkscape:vp_z="580 : 290 : 1" inkscape:vp_y="0 : 1000 : 0" inkscape:vp_x="0 : 290 : 1" sodipodi:type="inkscape:persp3d" id="perspective10" inkscape:persp3d-origin="290 : 193.33333 : 1">
		</inkscape:perspective>
</defs>
<g id="layer3" transform="matrix(48.14969,0,0,48.14969,-536.27327,-33.306752)" inkscape:label="Layout" display="none">
	<rect id="rect4134" x="1" y="1" display="inline" fill="none" stroke="#757575" stroke-width="0.1" width="10" height="10"/>
	<rect id="rect4136" x="2" y="2" display="inline" fill="none" stroke="#757575" stroke-width="0.1" width="8" height="8"/>
</g>
<path fill="param(fill) #FFF" stroke="param(outline) #000" stroke-width="param(outline-width) 1" d="M322.792,184.322c9.735,0,18.117-3.543,25.146-10.632
	c7.029-7.088,10.544-15.797,10.544-26.129c0-10.342-3.515-19.058-10.544-26.146c-7.029-7.087-15.411-10.632-25.146-10.632
	c-9.724,0-18.013,3.544-24.865,10.632c-6.854,7.088-10.28,15.804-10.28,26.146c0,10.332,3.426,19.041,10.28,26.129
	C304.779,180.779,313.068,184.323,322.792,184.322z"/>
<path fill="param(fill) #FFF" stroke="param(outline) #000" stroke-width="param(outline-width) 1" d="M420.154,339.268c-0.401-5.088-2.24-9.771-5.12-13.637
	l-41.609-110.552c-6.527-17.34-25.872-26.109-43.216-19.581c-10.646,4.007-18.053,12.849-20.68,23.09l-18.042,7.935l-26.822-40.906
	c-5.551-8.466-16.035-11.719-25.174-8.503l-4.771-9.814l6.786-9.547c0.477-0.67,0.53-1.554,0.139-2.277L174.199,30.979
	c-0.279-0.515-0.756-0.895-1.32-1.051c-0.565-0.157-1.168-0.077-1.673,0.221l-28.272,16.692c-0.978,0.578-1.34,1.815-0.829,2.829
	l63.915,126.581c0.4,0.792,1.24,1.255,2.13,1.175l11.016-1.05l7.404,13.191c-2.462,6.287-1.959,13.625,2.024,19.701l36.831,56.171
	c4.094,6.244,10.959,9.743,18.045,9.743c2.913,0,5.863-0.592,8.673-1.827l27.046-11.895l38.022,101.023
	c2.186,5.806,5.812,10.644,10.314,14.274v146.463c0,14.558,11.802,26.359,26.359,26.359s26.359-11.802,26.359-26.359V361.818
	C422.738,354.76,422.891,346.836,420.154,339.268z"/>
<path fill="param(fill) #FFF" stroke="param(outline) #000" stroke-width="param(outline-width) 1" d="M254.55,358.582c0-5.522-4.477-10-10-10h-24.667
	c-5.523,0-10,4.478-10,10s4.477,10,10,10h24.667C250.073,368.582,254.55,364.105,254.55,358.582z"/>
<path fill="param(fill) #FFF" stroke="param(outline) #000" stroke-width="param(outline-width) 1" d="M217.894,372.582c-0.003,0-0.007,0-0.01,0
	c-5.519,0-9.995,4.471-10,9.99l-0.159,165.661c-0.005,5.523,4.468,10.005,9.99,10.01c0.003,0,0.007,0,0.01,0
	c5.519,0,9.995-4.471,10-9.99l0.159-165.661C227.889,377.068,223.416,372.587,217.894,372.582z"/>
<path fill="param(fill) #FFF" stroke="param(outline) #000" stroke-width="param(outline-width) 1" d="M257.894,372.582c-0.003,0-0.007,0-0.01,0
	c-5.519,0-9.995,4.471-10,9.99l-0.159,165.661c-0.005,5.523,4.468,10.005,9.99,10.01c0.003,0,0.007,0,0.01,0
	c5.519,0,9.995-4.471,10-9.99l0.159-165.661C267.889,377.068,263.416,372.587,257.894,372.582z"/>
<path fill="param(fill) #FFF" stroke="param(outline) #000" stroke-width="param(outline-width) 1" d="M297.894,372.582c-0.004,0-0.007,0-0.01,0
	c-5.519,0-9.995,4.471-10,9.99l-0.159,165.661c-0.005,5.523,4.468,10.005,9.99,10.01c0.004,0,0.007,0,0.01,0
	c5.519,0,9.995-4.471,10-9.99l0.159-165.661C307.889,377.068,303.416,372.587,297.894,372.582z"/>
<path fill="param(fill) #FFF" stroke="param(outline) #000" stroke-width="param(outline-width) 1" d="M306.551,358.582c0-5.522-4.478-10-10-10h-24.667
	c-5.523,0-10,4.478-10,10s4.477,10,10,10h24.667C302.073,368.582,306.551,364.105,306.551,358.582z"/>
</svg>
