<svg enable-background="new 0 0 580 580" height="580" viewBox="0 0 580 580" width="580" xmlns="http://www.w3.org/2000/svg">
<circle cx="98.928" cy="285.783" fill="param(fill)" r="57.534" stroke="param(outline)" stroke-width="param(outline-width)"/>
<path d="m429.705 443.527c-1.956-2.607-5.506-3.115-8.188-1.304l-78.111 56.735c-2.608 1.957-3.116 5.652-1.305 8.188l10.58 14.71c1.956 2.607 5.65 3.115 8.188 1.304l78.111-56.735c2.608-1.957 3.115-5.652 1.305-8.188z" fill="param(fill)" fill-opacity="param(fill-opacity)" stroke="param(outline)" stroke-opacity="param(outline-opacity)" stroke-width="param(outline-width)"/>
<path d="m285.945 326.578l31.013 54.634 16.304-12.173-31.012-54.345z" fill="param(fill)" fill-opacity="param(fill-opacity)" stroke="param(outline)" stroke-opacity="param(outline-opacity)" stroke-width="param(outline-width)"/>
<path d="m260.947 242.09l-120.5-211.582-23.114.145 127.165 223.465z" fill="param(fill)" fill-opacity="param(fill-opacity)" stroke="param(outline)" stroke-opacity="param(outline-opacity)" stroke-width="param(outline-width)"/>
<path d="m509.846 345.417l-111.95-.146c-8.913 0-16.666 3.841-23.477 8.768l-86.662 60.939-59.562-58.91 82.966-60.721c12.898-10.797 14.564-29.999 3.841-42.896-10.941-12.753-29.999-14.419-42.896-3.695l-129.558 92.241c-18.839 15.868-22.245 51.663-6.521 70.503l93.618 93.69c0 0 25.506 33.259 67.532 2.971l119.269-84.198 93.4.146c21.81 0 39.346-17.536 39.346-39.346-.001-21.665-17.537-39.346-39.346-39.346z" fill="param(fill)" fill-opacity="param(fill-opacity)" stroke="param(outline)" stroke-opacity="param(outline-opacity)" stroke-width="param(outline-width)"/>
</svg>
