<svg enable-background="new 0 0 580 580" height="580" viewBox="0 0 580 580" width="580" xmlns="http://www.w3.org/2000/svg">
<path d="m504.438 337.987c-7.013-1.597-13.404-9.036-25.055-8.625-11.934.414-28.789 11.104-45.074 11.104-16.517-.352-35.066-11.578-51.92-11.578-16.798.119-32.068 11.754-48.186 12.108-16.401.058-32.746-10.866-48.808-11.102-16.289-.413-31.728 9.688-46.942 9.567-14.987-.294-28.278-11.045-43.153-10.574-15.271.594-32.011 12.404-46.942 13.113-15.043.237-28.675-10.983-41.964-11.104-13.403-.236-28.448 8.209-37.497 10.1-9.049 1.716-14.761 1.893-16.91.532v31.304c2.149 1.357 7.861 1.182 16.91-.531 9.049-1.892 24.093-10.337 37.497-10.102 13.291.119 26.921 11.341 41.964 11.102 14.931-.588 31.671-12.697 46.942-13.111 14.875-.59 28.165 10.396 43.153 10.631 15.214.121 30.654-9.919 46.942-9.624 16.062.234 32.406 11.159 48.808 11.103 16.117-.355 31.388-11.991 48.186-12.109 16.854-.057 35.403 11.342 51.92 11.639 16.285 0 33.142-10.693 45.074-11.105 11.65-.533 18.042 7.027 25.055 8.563 6.899 1.478 12.159 1.713 16.231.472v-31.303c-4.071 1.244-9.331 1.006-16.231-.47z" fill="param(fill)" fill-opacity="param(fill-opacity)" stroke="param(outline)" stroke-opacity="param(outline-opacity)" stroke-width="param(outline-width)"/>
<path d="m290.37 315.252c13.235 1.297 25.79 14.053 41.626 14.113 15.778-.294 35.46-15.059 52.71-15.121 17.305.063 35.855 13.293 49.769 14.647 13.687 1.007 23.811-1.536 31.445-8.091l-59.213-130.288c16.457-6.144 30.708-11.694 43.661-16.655 12.781-5.198 29.635-6.852 32.917-13.406 2.997-6.734 3.731-26.697-14.367-25.752-18.493 1.122-75.163 24.156-94.107 32.188-18.947 7.736-15.497 8.622-17.985 14.469-2.432 5.67-.623 8.328 3.677 20.258 4.186 11.99 11.369 28.821 21.547 51.147l-129.399 69.042c11.932-5.67 24.431-7.855 37.719-6.551z" fill="param(fill)" fill-opacity="param(fill-opacity)" stroke="param(outline)" stroke-opacity="param(outline-opacity)" stroke-width="param(outline-width)"/>
<path d="m448.994 246.803c0 20.833 16.19 37.739 36.14 37.739 19.948 0 36.138-16.906 36.138-37.739 0-20.833-16.188-37.739-36.138-37.739-19.95-.001-36.14 16.906-36.14 37.739z" fill="param(fill)" fill-opacity="param(fill-opacity)" stroke="param(outline)" stroke-opacity="param(outline-opacity)" stroke-width="param(outline-width)"/>
<path d="m117.425 311.23c16.966 5.911 32.575 10.277 47.902 13.113 11.99-5.61 23.019-8.445 33.538-8.268 10.463.234 20.756 7.735 28.9 9.096 8.031 1.182 14.309.354 19.06-2.244-38.629-15.887-71.375-28.584-99.991-38.745-28.788-10.277-56.5-22.68-70.469-21.912-13.914.768-18.947 17.659-12.047 26.104 6.9 8.21 36.026 16.599 53.107 22.856z" fill="param(fill)" fill-opacity="param(fill-opacity)" stroke="param(outline)" stroke-opacity="param(outline-opacity)" stroke-width="param(outline-width)"/>
<path d="m504.438 390.316c-7.013-1.535-13.404-9.099-25.055-8.566-11.934.413-28.789 11.104-45.074 11.104-16.517-.354-35.066-11.575-51.92-11.575-16.798.119-32.068 11.754-48.186 12.106-16.401.061-32.746-10.865-48.808-11.103-16.289-.414-31.728 9.687-46.942 9.568-14.987-.295-28.278-11.046-43.153-10.572-15.271.59-32.011 12.401-46.942 13.112-15.043.235-28.675-10.986-41.964-11.105-13.403-.234-28.448 8.21-37.497 10.102-9.049 1.832-14.761 1.771-16.91.473v31.303c2.149 1.298 7.861 1.359 16.91-.474 9.049-1.892 24.093-10.335 37.497-10.101 13.291.118 26.921 11.341 41.964 11.105 14.931-.711 31.671-12.523 46.942-13.112 14.875-.474 28.165 10.277 43.153 10.572 15.214.117 30.654-9.983 46.942-9.569 16.062.238 32.406 11.164 48.808 11.104 16.117-.353 31.388-11.991 48.186-12.106 16.854 0 35.403 11.222 51.92 11.574 16.285 0 33.142-10.69 45.074-11.103 11.65-.414 18.042 7.026 25.055 8.623 6.899 1.478 12.159 1.714 16.231.475v-31.303c-4.071 1.121-9.331.945-16.231-.532z" fill="param(fill)" fill-opacity="param(fill-opacity)" stroke="param(outline)" stroke-opacity="param(outline-opacity)" stroke-width="param(outline-width)"/>
<path d="m502.755 441.69c-7.013-1.535-13.404-9.098-25.055-8.566-11.934.413-28.788 11.104-45.074 11.104-16.517-.353-35.066-11.575-51.92-11.575-16.798.119-32.068 11.755-48.186 12.106-16.401.061-32.746-10.865-48.808-11.103-16.289-.414-31.728 9.687-46.942 9.568-14.987-.295-28.278-11.045-43.152-10.572-15.271.59-32.012 12.401-46.942 13.113-15.043.234-28.674-10.987-41.964-11.105-13.403-.234-28.448 8.21-37.497 10.101-9.049 1.833-14.762 1.771-16.91.473v31.303c2.148 1.299 7.861 1.36 16.91-.473 9.049-1.893 24.093-10.336 37.497-10.101 13.291.117 26.921 11.34 41.964 11.105 14.931-.712 31.672-12.523 46.942-13.113 14.874-.473 28.164 10.277 43.152 10.572 15.214.118 30.654-9.982 46.942-9.568 16.062.237 32.406 11.163 48.808 11.103 16.117-.353 31.388-11.991 48.186-12.106 16.854 0 35.403 11.222 51.92 11.574 16.286 0 33.142-10.689 45.074-11.103 11.65-.414 18.042 7.026 25.055 8.624 6.899 1.477 12.159 1.714 16.231.474v-31.302c-4.072 1.12-9.332.944-16.231-.533z" fill="param(fill)" fill-opacity="param(fill-opacity)" stroke="param(outline)" stroke-opacity="param(outline-opacity)" stroke-width="param(outline-width)"/>
</svg>
