<svg enable-background="new 0 0 580 580" height="580" viewBox="0 0 580 580" width="580" xmlns="http://www.w3.org/2000/svg">
<path d="m461.343 449.53c-7.052 0-16.843 2.154-29.373 6.462-12.531 4.309-22.125 6.463-28.782 6.463-7.052 0-16.843-2.154-29.373-6.463-12.531-4.308-22.126-6.462-28.782-6.462-7.052 0-16.843 2.154-29.373 6.462-12.531 4.309-22.323 6.463-29.374 6.463-7.04 0-16.729-2.154-29.069-6.463-12.34-4.308-22.036-6.462-29.087-6.462-7.04 0-16.729 2.154-29.068 6.462-12.34 4.309-22.036 6.463-29.087 6.463-7.04 0-16.729-2.154-29.068-6.463-12.34-4.308-22.036-6.462-29.087-6.462s-16.842 2.154-29.374 6.462c-12.531 4.309-22.322 6.463-29.374 6.463v42.882c7.051 0 16.843-2.154 29.374-6.463 12.531-4.309 22.322-6.463 29.374-6.463 6.657 0 16.254 2.154 28.791 6.463 12.537 4.309 22.325 6.463 29.364 6.463 7.051 0 16.747-2.154 29.087-6.463 12.339-4.309 22.029-6.463 29.068-6.463 7.051 0 16.747 2.154 29.087 6.463 12.339 4.309 22.029 6.463 29.069 6.463 7.05 0 16.842-2.154 29.374-6.463 12.53-4.309 22.321-6.463 29.373-6.463 6.656 0 16.251 2.154 28.782 6.463 12.53 4.309 22.321 6.463 29.373 6.463 6.657 0 16.251-2.154 28.782-6.463 12.53-4.309 22.321-6.463 29.373-6.463 7.051 0 16.744 2.154 29.078 6.463 12.333 4.309 22.025 6.463 29.077 6.463v-42.882c-7.052 0-16.744-2.154-29.077-6.463-12.334-4.307-22.027-6.462-29.078-6.462z" fill="param(fill)" fill-opacity="param(fill-opacity)" stroke="param(outline)" stroke-opacity="param(outline-opacity)" stroke-width="param(outline-width)"/>
<path d="m180.848 158.753c8.419 6.657 18.115 9.4 29.086 8.229 10.959-1.565 19.768-6.558 26.424-14.978 6.657-8.419 9.203-18.115 7.637-29.086-1.171-10.564-5.967-19.274-14.387-26.129-8.42-6.854-18.115-9.498-29.086-7.933-10.959 1.172-19.768 6.066-26.424 14.683-6.657 8.617-9.203 18.214-7.637 28.791 1.171 10.958 5.967 19.767 14.387 26.423z" fill="param(fill)" fill-opacity="param(fill-opacity)" stroke="param(outline)" stroke-opacity="param(outline-opacity)" stroke-width="param(outline-width)"/>
<path d="m533.016 352.024c-.396-.394-54.439-27.811-162.133-82.249l-41.124-53.44c-6.657-5.88-13.117-5.492-19.379 1.165-3.921 4.697-4.507 9.789-1.758 15.274l30.548 39.35-25.276 57.581-66.366-16.457-2.94-24.076 54.624-6.472c11.748-1.565 17.622-7.828 17.622-18.788 0-5.091-2.154-9.597-6.463-13.517-4.309-3.919-9.009-5.485-14.099-4.697l-55.808 6.454-5.271-41.107c-1.184-10.577-6.083-19.292-14.7-26.146-8.617-6.854-18.208-9.499-28.773-7.933-10.972 1.172-19.786 6.066-26.442 14.683-6.657 8.617-9.4 18.214-8.229 28.791l11.76 95.749c1.565 12.537 7.637 22.134 18.214 28.791l-87.538 10.577-27.015 67.549c13.708-6.263 26.825-9.394 39.35-9.395 12.143.001 24.088 2.737 35.836 8.211 7.051 3.132 14.491 4.697 22.319 4.697 7.84 0 15.286-1.565 22.337-4.697 11.354-5.474 23.293-8.21 35.818-8.211 7.446.001 17.335 2.152 29.669 6.455 12.333 4.302 21.829 6.453 28.486 6.453 7.839 0 15.286-1.565 22.336-4.697 11.748-5.474 23.885-8.21 36.41-8.211 7.84.001 15.381 1.175 22.624 3.523 7.242 2.349 14.389 4.891 21.44 7.628 99.865-26.628 149.798-47.973 149.799-64.036.001-3.907-1.959-6.842-5.878-8.802z" fill="param(fill)" fill-opacity="param(fill-opacity)" stroke="param(outline)" stroke-opacity="param(outline-opacity)" stroke-width="param(outline-width)"/>
</svg>
