<?xml version="1.0" encoding="UTF-8" standalone="no"?>
<!-- Created with Inkscape (http://www.inkscape.org/) -->
<svg
   xmlns:svg="http://www.w3.org/2000/svg"
   xmlns="http://www.w3.org/2000/svg"
   version="1.0"
   width="580"
   height="580"
   id="svg2">
  <metadata
     id="metadata2975">
    <rdf:RDF>
      <cc:Work
         rdf:about="">
        <dc:format>image/svg+xml</dc:format>
        <dc:type
           rdf:resource="http://purl.org/dc/dcmitype/StillImage" />
			  <cc:license
           rdf:resource="http://web.resource.org/cc/PublicDomain" />
        <dc:language>en</dc:language>
      </cc:Work>
    </rdf:RDF>
  </metadata>
  <defs
     id="defs4" />
  <g
     id="layer1">
    <g
       id="g2450">
			<g
   id="g1327">
				<path
   d="M 66.275,1.768 C 24.94,1.768 1.704,23.139 1.704,66.804 L 1.704,516.927 C 1.704,557.771 22.6,579.156 63.896,579.156 L 515.92,579.156 C 557.227,579.156 578.149,558.842 578.149,516.927 L 578.149,66.804 C 578.149,24.203 557.227,1.768 514.628,1.768 C 514.624,1.768 66.133,1.625 66.275,1.768 z "
   style="fill:#111;stroke:#eee;stroke-width:3.40799999"
   id="path1329" />

			</g>

			<circle
   cx="171.591"
   cy="397.92999"
   r="50.546001"
   style="fill:white;"
   id="circle2441" />
 
			<path
   d="M 285.113,104.116 C 231.611,50.615 157.245,39.652 111.872,83.61 C 62.435,131.506 78.876,203.349 132.378,256.851 C 174.279,298.752 224.279,320.122 269.467,301.948 C 288.072,308.314 319.572,321.276 349.999,343.891 C 348.983,348.69 350.33,353.887 354.057,357.614 L 444.567,448.124 C 450.424,453.982 459.922,453.982 465.78,448.125 L 476.386,437.519 C 482.243,431.661 482.243,422.164 476.386,416.305 L 385.876,325.796 C 382.149,322.069 376.953,320.724 372.154,321.738 C 349.445,291.183 336.47,259.552 330.132,240.977 C 347.794,196.069 326.855,145.859 285.113,104.116 z M 343.999,315.739 C 324.142,304.885 305.302,296.181 288.65,289.31 C 293.758,285.077 298.807,280.499 303.782,275.524 C 308.758,270.549 313.332,265.491 317.558,260.365 C 324.434,277.023 333.14,295.871 343.999,315.739 z "
   style="fill:white;"
   id="path2443" />

		</g>
  </g>
</svg>
