<?xml version="1.0" encoding="UTF-8" standalone="no"?>
<!-- Created with Inkscape (http://www.inkscape.org/) -->
<svg
   xmlns:svg="http://www.w3.org/2000/svg"
   xmlns="http://www.w3.org/2000/svg"
   version="1.0"
   width="580"
   height="580"
   id="svg2">
  <metadata
     id="metadata2975">
    <rdf:RDF>
      <cc:Work
         rdf:about="">
        <dc:format>image/svg+xml</dc:format>
        <dc:type
           rdf:resource="http://purl.org/dc/dcmitype/StillImage" />
			  <cc:license
           rdf:resource="http://web.resource.org/cc/PublicDomain" />
        <dc:language>en</dc:language>
      </cc:Work>
    </rdf:RDF>
  </metadata>
  <defs
     id="defs4" />
  <g
     id="layer1">
    <g
       id="g2055">
			<g
   id="g1327">
				<path
   d="M 66.275,1.768 C 24.94,1.768 1.704,23.139 1.704,86.804 L 1.704,536.927 C 1.704,557.771 22.6,579.156 63.896,579.156 L 515.92,579.156 C 557.227,579.156 578.149,558.843 578.149,516.927 L 578.149,66.804 C 578.149,24.203 557.227,1.768 514.628,1.768 C 514.624,1.768 66.133,1.625 66.275,1.768 z "
   style="fill:#111;stroke:#eee;stroke-width:3.40799999"
   id="path1329" />

			</g>

			<path
   d="M 408.008,407.921 L 319.044,304.937 C 318.023,303.313 307.017,285.506 307.017,272.021 C 307.017,258.017 318.675,231.921 318.901,231.417 C 319.098,231.245 319.304,231.089 319.496,230.908 L 394.441,159.297 C 402.412,151.735 402.744,139.143 395.182,131.172 L 393.661,129.57 C 386.099,121.599 373.507,121.266 365.536,128.828 L 295.171,196.062 C 293.81,195.712 292.422,195.525 291.017,195.525 L 262.829,195.525 L 207.783,119.705 C 201.431,110.74 189.014,108.62 180.049,114.971 L 178.247,116.248 C 169.281,122.599 167.162,135.016 173.513,143.982 L 231.021,223.192 L 231.021,317.442 L 185.746,443.963 C 182.044,454.307 187.43,465.695 197.774,469.397 L 199.854,470.141 C 210.199,473.843 221.586,468.456 225.288,458.113 L 269.338,335.015 L 289.531,335.015 L 376.227,435.374 C 383.409,443.688 395.973,444.605 404.287,437.423 L 405.959,435.979 C 414.272,428.8 415.189,416.234 408.008,407.921 z "
   style="fill:white;"
   id="path2044" />

			<circle
   cx="290.267"
   cy="286.271"
   r="245.23801"
   style="fill:none;stroke:white;stroke-width:20"
   id="circle2046" />
 
			<circle
   cx="285.427"
   cy="143.92999"
   r="35"
   style="fill:white;"
   id="circle2048" />
 
		</g>
  </g>
</svg>
