<?xml version="1.0" encoding="UTF-8" standalone="no"?>
<!DOCTYPE svg PUBLIC "-//W3C//DTD SVG 1.0//EN"
"http://www.w3.org/TR/2001/REC-SVG-20010904/DTD/svg10.dtd">
<!-- Created with Inkscape (http://www.inkscape.org/) --><svg height="1052.3622" id="svg1" version="1.0" width="744.09448" x="0.00000000" xmlns="http://www.w3.org/2000/svg" xmlns:xlink="http://www.w3.org/1999/xlink" y="0.00000000">
  <metadata>
    <rdf:RDF xmlns:cc="http://web.resource.org/cc/" xmlns:dc="http://purl.org/dc/elements/1.1/" xmlns:rdf="http://www.w3.org/1999/02/22-rdf-syntax-ns#">
      <cc:Work rdf:about="">
        <dc:title>table tennis</dc:title>
        <dc:description></dc:description>
        <dc:subject>
          <rdf:Bag>
            <rdf:li>sports</rdf:li>
            <rdf:li>table</rdf:li>
            <rdf:li>tennis</rdf:li>
          </rdf:Bag>
        </dc:subject>
        <dc:publisher>
          <cc:Agent rdf:about="http://www.openclipart.org/">
            <dc:title>Open Clip Art Library</dc:title>
          </cc:Agent>
        </dc:publisher>
        <dc:creator>
          <cc:Agent>
            <dc:title>Omar Abo-Namous</dc:title>
          </cc:Agent>
        </dc:creator>
        <dc:rights>
          <cc:Agent>
            <dc:title>Omar Abo-Namous</dc:title>
          </cc:Agent>
        </dc:rights>
        <dc:date></dc:date>
        <dc:format>image/svg+xml</dc:format>
        <dc:type rdf:resource="http://purl.org/dc/dcmitype/StillImage"/>
        <cc:license rdf:resource="http://web.resource.org/cc/PublicDomain"/>
        <dc:language>en</dc:language>
      </cc:Work>
      <cc:License rdf:about="http://web.resource.org/cc/PublicDomain">
        <cc:permits rdf:resource="http://web.resource.org/cc/Reproduction"/>
        <cc:permits rdf:resource="http://web.resource.org/cc/Distribution"/>
        <cc:permits rdf:resource="http://web.resource.org/cc/DerivativeWorks"/>
      </cc:License>
    </rdf:RDF>
  </metadata>
  <defs id="defs3"/>
  <g id="layer1"/>
  <g id="g1080">
    <path d="M 94.375742,101.32530 C 92.225556,104.55058 77.950719,138.65490 78.607719,140.74536 C 79.264720,142.83582 76.166186,146.60376 82.295244,151.25225 C 88.587043,156.02417 198.61753,192.97546 205.46864,193.06653 C 212.06526,193.15760 225.17867,190.73716 236.64632,185.89924 C 248.11397,181.06133 262.09017,174.78995 274.27455,164.03903 C 286.45893,153.28810 299.77815,136.74362 309.75262,121.39369 C 319.72710,106.04376 329.94046,85.497548 334.12138,71.939436 C 338.30230,58.381324 338.30230,49.243037 334.83810,40.045023 C 331.37390,30.847008 321.93700,22.485178 313.33627,16.751352 C 304.73554,11.017525 297.92661,6.8963370 283.23367,5.6420620 C 268.54074,4.3877876 243.27606,5.7017900 225.17867,9.2257040 C 207.08128,12.749618 189.93952,18.244534 174.64932,26.785547 C 159.35911,35.326561 146.93582,47.630399 133.43744,60.471782 C 119.93905,73.313166 106.91849,89.379825 93.659014,103.83385" id="path2311" style="fill:#ff0000;fill-opacity:1.0000000;fill-rule:evenodd;stroke:none;stroke-width:0.25000000pt;stroke-linecap:butt;stroke-linejoin:miter;stroke-opacity:1.0000000"/>
    <path d="M 185.13907,212.03584 C 190.37604,222.50978 194.43047,234.16626 200.84998,243.45765 C 207.26949,252.74905 212.71763,259.50643 223.65614,267.78422 C 234.59465,276.06203 260.69038,295.81118 266.48103,293.12442 C 271.96165,290.58153 424.99354,230.78826 430.93876,228.76035 C 436.71093,226.79146 439.13209,208.23482 440.06123,198.85895 C 440.99037,189.48308 439.76559,181.37423 436.51361,172.50517 C 433.26163,163.63610 426.96881,154.55588 420.54929,145.64458 C 414.12979,136.73329 406.44326,127.48412 397.99653,119.03740 C 389.54980,110.59067 378.86472,101.25704 369.86896,94.964232 C 360.87319,88.671422 349.30119,82.125212 344.02197,81.280539 C 338.74276,80.435866 342.07923,82.632016 338.19373,89.896199 C 334.30825,97.160380 327.08629,114.68733 320.70901,124.86564 C 314.33173,135.04394 307.37052,142.64530 299.93007,150.96602 C 292.48965,159.28674 285.29969,167.83293 276.06639,174.78995 C 266.83309,181.74698 253.45957,188.25848 244.53033,192.70816 C 235.60109,197.15785 231.50977,198.83022 222.49094,201.48809 C 213.47211,204.14595 201.10854,206.26628 190.41734,208.65537" id="path4175" style="fill:#007fff;fill-opacity:1.0000000;fill-rule:evenodd;stroke:none;stroke-width:0.25000000pt;stroke-linecap:butt;stroke-linejoin:miter;stroke-opacity:1.0000000"/>
    <path d="M 146.58156,76.996765 C 146.58636,83.429902 140.94516,88.647346 133.98471,88.647346 C 127.02426,88.647346 121.38306,83.429902 121.38786,76.996765 C 121.38306,70.563628 127.02426,65.346184 133.98471,65.346184 C 140.94516,65.346184 146.58636,70.563628 146.58156,76.996765 L 146.58156,76.996765 z " id="path4797" style="fill:#ffffff;fill-opacity:1.0000000;fill-rule:nonzero;stroke:none;stroke-width:0.31250000;stroke-linecap:round;stroke-linejoin:round;stroke-miterlimit:4.0000000;stroke-dasharray:2.5000000 2.5000000 ;stroke-dashoffset:0.00000000;stroke-opacity:1.0000000" transform="matrix(2.816422,0.000000,0.000000,2.816422,-41.80265,-40.09442)"/>
    <path d="M 425.76474,447.30576 C 424.20047,445.36947 415.12765,428.18766 405.60296,409.12392 C 390.53180,378.95905 371.18051,345.98303 356.10476,324.77540 C 348.74835,314.42688 331.83374,307.70053 300.80567,302.78486 C 262.66505,296.74237 249.96371,292.21292 228.78841,277.10253 C 208.66725,262.74437 199.78010,252.93327 188.02018,232.09583 C 180.14489,218.14159 179.14560,217.38157 170.71477,218.93399 C 165.03865,219.97917 155.84630,226.34199 145.57285,236.33688 C 128.48838,252.95812 125.25259,253.75435 135.65857,238.77648 C 148.56312,220.20230 155.25931,214.65058 167.04173,212.75712 C 173.43498,211.72972 181.47285,209.10982 184.90367,206.93513 C 188.33449,204.76044 195.74377,202.98115 201.36873,202.98115 C 227.52803,202.98115 270.88473,180.47093 293.99466,154.89101 C 306.83718,140.67588 327.84698,108.50752 335.31478,91.625333 C 338.79912,83.748463 342.68778,79.058579 345.73470,79.058579 C 355.59913,79.058579 386.85415,100.77101 405.99289,120.91916 C 431.35201,147.61572 443.43319,171.87497 443.35355,195.94009 C 443.28150,217.70494 437.97807,230.69240 428.26673,232.88584 C 424.20297,233.80369 404.28732,240.75822 384.00968,248.34034 C 346.66662,262.30348 334.51264,265.41602 344.91213,258.35290 C 347.96761,256.27769 365.62892,249.63213 384.15945,243.58499 C 423.73990,230.66856 431.79937,224.91800 436.15669,206.48415 C 438.84713,195.10206 438.52375,190.97997 433.97289,178.64685 C 422.22644,146.81330 392.28804,112.92594 359.18582,93.995138 L 343.44320,84.992110 L 332.29045,108.07725 C 317.93926,137.78284 283.21230,177.73053 262.15181,188.76026 C 252.15158,193.99756 208.94736,208.60789 203.31479,208.65712 C 190.65992,208.76773 190.15265,212.99292 200.56498,231.56107 C 206.08292,241.40114 214.18577,252.75085 218.57129,256.78264 C 239.94210,276.42966 275.10168,294.42834 297.59948,297.23831 C 345.15682,303.17818 352.23846,305.22622 359.94969,315.27043 C 374.40446,334.09843 394.44652,368.22572 412.80979,405.27975 C 434.20727,448.45632 431.13194,447.03332 465.61474,429.71348 C 491.32955,416.79760 482.79410,426.73743 456.14531,440.74099 C 435.43405,451.62443 430.17221,452.76142 425.76474,447.30576 z M 437.11661,430.47530 C 431.83097,423.86839 415.93109,388.64859 417.51775,387.06193 C 418.37951,386.20013 424.22615,395.98466 430.51027,408.80527 C 441.25331,430.72283 443.67828,438.67722 437.11661,430.47530 z M 411.58391,377.03603 C 409.72507,375.17719 408.20420,372.20634 408.20420,370.43416 C 408.20420,366.13830 375.25443,313.29966 367.00857,304.37234 C 352.11161,288.24427 340.61008,272.57572 340.61008,268.40965 C 340.61008,264.96723 342.26112,265.50546 347.90700,270.78845 C 354.63011,277.07938 371.59072,300.20502 371.59072,303.08095 C 371.59072,303.76441 376.13195,310.27291 381.68232,317.54432 C 390.35031,328.90002 418.33589,380.41573 415.83682,380.41573 C 415.35656,380.41573 413.44275,378.89487 411.58391,377.03603 z M 33.681803,347.29985 C 22.142196,341.61780 -0.17698550,320.94076 -0.17698550,315.93226 C -0.17698550,314.01399 5.2094220,316.79893 11.792808,322.12101 C 27.227355,334.59849 46.912653,346.82472 56.019711,349.58966 C 62.598706,351.58706 62.376451,351.78210 53.335033,351.94531 C 47.913420,352.04318 39.069466,349.95272 33.681803,347.29985 z M 42.150908,335.46299 C 39.872223,334.02191 38.741074,332.10959 39.637251,331.21343 C 40.533426,330.31725 42.869839,331.51572 44.829280,333.87670 C 48.892231,338.77226 48.113192,339.23364 42.150908,335.46299 z M -0.17698550,308.87656 C -0.17698550,307.57827 10.347852,295.45622 23.211540,281.93869 C 36.075232,268.42116 55.521503,245.44266 66.425478,230.87536 C 86.710461,203.77539 95.581360,194.27594 95.581360,199.65365 C 95.581360,201.30094 94.396902,203.38075 92.949230,204.27546 C 91.501556,205.17017 79.144504,220.64392 65.489116,238.66158 C 37.592726,275.46957 40.749152,271.81870 17.276382,294.42671 C 7.6770300,303.67240 -0.17698550,310.17484 -0.17698550,308.87656 z M 341.44253,292.39145 C 330.58857,280.47413 324.38067,262.94962 333.77487,270.74612 C 338.70848,274.84063 350.08810,295.83312 348.32811,297.59310 C 347.70983,298.21142 344.61131,295.87066 341.44253,292.39145 z M 290.67308,281.58487 C 299.47711,276.45920 326.52797,267.98411 326.52797,270.35147 C 326.52797,273.47346 299.04763,284.67800 291.65123,284.57174 C 286.20700,284.49353 286.12214,284.23441 290.67308,281.58487 z M 309.29808,203.31249 C 299.16012,193.17453 294.64193,180.44977 301.18017,180.44977 C 302.72920,180.44977 303.99659,181.61992 303.99659,183.05010 C 303.99659,189.18791 319.36741,203.14115 329.45972,206.16487 C 341.96142,209.91047 341.63258,214.24684 328.84684,214.24684 C 322.59545,214.24684 317.23304,211.24745 309.29808,203.31249 z M 353.92497,205.37575 C 353.92497,204.81901 360.64988,195.00609 363.61320,188.38728 C 369.58405,175.05097 367.37366,167.06205 357.04280,156.03254 C 347.02586,145.33816 337.18427,142.83854 325.05256,147.90749 C 299.60080,160.46850 309.21069,152.39322 318.42357,144.11948 C 326.07452,136.99152 342.73279,136.24362 354.80442,142.48611 C 370.95012,150.83538 378.14434,177.02378 368.99079,194.12736 C 366.52690,198.73117 353.92497,208.33484 353.92497,205.37575 z M 84.940272,174.07008 C 66.756410,139.48641 74.999196,111.51376 115.94034,68.868517 C 139.70911,44.110404 169.04932,23.561606 194.36614,13.941971 C 229.10455,0.74241480 267.77400,-3.0042528 294.85677,4.2054732 C 326.28525,12.572080 338.18229,24.869476 340.06792,50.938047 C 341.22048,66.871873 340.38392,69.810731 326.93553,97.072010 C 312.30182,126.73604 296.09974,147.62518 274.96080,164.08228 C 263.19392,173.24304 263.20536,173.21586 278.77134,155.03293 C 302.01467,127.88190 314.22200,110.07822 324.16733,88.825587 C 340.36451,54.212972 334.75468,33.220503 305.37557,18.505506 C 289.98033,10.794553 286.16827,10.082192 261.75026,10.353237 C 211.96325,10.905884 168.50106,31.053156 126.22593,73.176704 C 98.915010,100.38971 84.315675,124.91792 84.315675,143.58975 C 84.315675,149.73864 85.464082,155.47929 86.867691,156.34677 C 88.271300,157.21425 88.757763,160.45528 87.948721,163.54906 C 87.139678,166.64285 88.604511,172.41999 91.203899,176.38716 C 93.803291,180.35433 95.534760,185.40690 95.051610,187.61509 C 94.568456,189.82328 90.018357,183.72802 84.940272,174.07008 z M 173.86629,187.39149 C 166.57946,185.39781 157.74258,181.75294 154.22877,179.29177 C 150.71497,176.83061 145.27041,174.79752 142.12976,174.77380 C 135.32410,174.72240 127.41908,170.20462 129.86137,167.76233 C 132.01068,165.61302 162.51410,174.28467 164.58370,177.63335 C 165.41548,178.97919 173.04324,182.09995 181.53429,184.56837 C 196.85025,189.02084 201.51434,192.03756 192.04382,191.36591 C 189.33301,191.17366 181.15313,189.38517 173.86629,187.39149 z M 104.03063,163.55124 C 101.70708,162.04965 101.07339,160.82107 102.62242,160.82107 C 104.17145,160.82107 107.33992,162.04965 109.66347,163.55124 C 111.98702,165.05283 112.62072,166.28141 111.07168,166.28141 C 109.52265,166.28141 106.35418,165.05283 104.03063,163.55124 z M 424.07080,248.61298 C 424.48890,249.32970 410.57239,263.54480 407.94439,270.83154 C 405.31639,278.11827 403.88294,281.10467 408.30275,292.33340 C 412.72256,303.56214 420.72604,318.79262 434.46334,338.20402 C 448.20064,357.61542 484.81350,400.61911 490.72652,408.80177 C 496.63955,416.98444 479.97562,399.54403 469.94141,387.29991 C 459.90721,375.05580 440.12471,351.94131 429.25434,335.33710 C 417.11155,318.73288 408.59954,298.92047 403.70445,287.67359 C 392.95627,276.42671 379.42612,260.79038 379.84422,260.61120 C 381.28025,260.17754 400.56421,282.11491 402.29631,280.62172 C 404.02841,279.12854 404.01542,273.60760 406.82261,267.27650 C 409.62979,260.94540 423.65270,247.89625 424.07080,248.61298 z " id="path1062"/>
  </g>
</svg>
