/* XPM */
static char *add[]={
"22 22 7 1",
". c None",
"# c #0000ff",
"b c #008000",
"c c #00c000",
"d c #00ffff",
"e c #800000",
"a c #ffff00",
"......................",
"......................",
".......###############",
"......#aaaaaaaaaaaaba#",
".....#abbbbaaaaaaabba#",
"....#aaaaabbabbbbbbaa#",
"...#aaaaaaabbbaaaaaa#c",
"..#aaaabbbbbbaaaaaaa#.",
".#aaaabbaaaaaaaaaaa###",
".#aaaaaaaaaaaaaaaaa#c#",
".###################c#",
"....#cccdddddddddcccc#",
"....#cdddedddddeddcc#.",
"...#dddeddddeedddccc#.",
"..#cdddddddddddcccc#..",
".#ccccccccccccccccc#..",
".###################..",
"......................",
"......................",
"......................",
"......................",
"......................"};
