/* XPM */
static char *addlayericon[]={
"22 22 6 1",
". c None",
"d c #000080",
"# c #585858",
"a c #a0a0a0",
"c c #c3c3c3",
"b c #ffffff",
"......................",
"......................",
"......#########.......",
"....##aaaaaaaaa##.....",
"....##aaaaaaaaa##.....",
"....#b#########a#.....",
"....#bbbbbbbbcca#.....",
"....#bbbbbbbddba#.....",
"....#bbbbbbbddba#.....",
"....#bbbbbbbddba#.....",
"....#bbbbbbbddba#.....",
"....#bbbddddddddddb...",
"....#bbbddddddddddb...",
"....#bbbbbbbddbbbbb...",
"....#bbbbb.cddba#.....",
"....#bbbbbb.ddba#.....",
"....#bbbbb.bddba#.....",
"....#bbbb.b.bbba#.....",
"....#bbbbb.aaaaa#.....",
"....##aaaaaaaaa##.....",
"......#########.......",
"......................"};
