/* XPM */
static const char *cursorzoomin[]={
"32 32 2 1",
". c None",
"# c #000000",
"................................",
"................................",
"................................",
"........#####...................",
"......##.....##.................",
".....##...#...##................",
".....#....#....#................",
"....#.....#.....#...............",
"....#.....#.....#...............",
"....#..#######..#...............",
"....#.....#.....#...............",
"....#.....#.....#...............",
".....#....#....#................",
".....##...#...###...............",
"......##.....##.#...............",
"........######...#..............",
"..............#...#.............",
"...............#...#............",
"................#...#...........",
".................#...#..........",
"..................#...#.........",
"...................#..#.........",
"....................###.........",
"................................",
"................................",
"................................",
"................................",
"................................",
"................................",
"................................",
"................................",
"................................"};
