/* XPM */
static char *identify_cursor[]={
"16 16 3 1",
"# c None",
"a c #000000",
". c #ffffff",
".###########..##",
"...########.aa.#",
".aa..######.aa.#",
"#.aaa..#####..##",
"#.aaaaa..##.aa.#",
"##.aaaaaa...aa.#",
"##.aaaaaa...aa.#",
"##.aaaaa.##.aa.#",
"###.aaaaa.#.aa.#",
"###.aa.aaa..aa.#",
"####..#..aa.aa.#",
"####.####.aa.a.#",
"##########.aa..#",
"###########.aa..",
"############.a.#",
"#############.##"};
