/* XPM */
static char *mIconInterpolation[]={
"32 28 2 1",
". c None",
"# c #000000",
"................................",
"................................",
"..............##................",
"..............##................",
"..............##................",
"..............##................",
"..............##................",
"..............##................",
"..............##................",
"..............##................",
"..............###............#..",
"..............###............#..",
".......#.....####............#..",
".......#.....#####...........#..",
".......#....######..........##..",
".......#....######..........##..",
".......#....#######.........##..",
"......##....#######.........##..",
"...#..##....########.......###..",
"...#..##....########.......###..",
"..###.##....#########.....####..",
"..######...###########....####..",
"..#######..###################..",
"..########.###################..",
".##############################.",
".##############################.",
"################################",
"################################"};
