/* XPM */
static const char *reload_xpm[]={
"22 22 143 2",
"Qt c None",
".9 c #000000",
"#V c #010101",
"#Q c #030303",
"#7 c #070707",
"a. c #080808",
"#P c #0a0a0a",
"a# c #0b0b0b",
"aj c #0d0d0d",
".D c #101800",
".w c #112405",
"ak c #121212",
".x c #121600",
".f c #141400",
"#9 c #141414",
".P c #142908",
".z c #142b0a",
"#q c #151515",
".X c #161600",
".8 c #16310c",
"#. c #171717",
".H c #17320c",
"#i c #191919",
".W c #192c0b",
"#2 c #1a1a1a",
".e c #1a330d",
".q c #1b3e0f",
"aa c #1c1c1c",
".b c #1c3f10",
".c c #1c4110",
"am c #1d1d1d",
".g c #1d4613",
".p c #1e4917",
"ae c #1f1f1f",
".y c #212106",
"al c #212121",
".d c #213b14",
".# c #215017",
"#D c #222222",
".a c #225118",
"#U c #242424",
"#Z c #252525",
"#f c #256022",
"#H c #282828",
".Q c #284919",
"#E c #292929",
".L c #296c27",
"#K c #2a2a2a",
".I c #2a6f2b",
".h c #2a732f",
"#O c #2c2c2c",
".Y c #2c7f39",
".7 c #2c813a",
"#t c #2d823b",
"#M c #2e2e2e",
"#L c #2f2f2f",
".v c #2f833c",
"#s c #2f8b40",
"#j c #2f8f46",
".S c #2fa057",
".R c #305020",
".K c #31843e",
"#c c #319e52",
".V c #32843f",
"#a c #32a65c",
".r c #32a85d",
".G c #337f3a",
"#k c #33b364",
"#b c #34b464",
"#C c #353535",
"## c #366d2f",
".4 c #378843",
"#w c #383838",
"#d c #3a924c",
"#1 c #3b3b3b",
"#S c #3c3c3c",
".m c #3d8f4b",
"#6 c #404040",
"#r c #407438",
"#X c #414141",
".o c #417036",
".3 c #419652",
"#8 c #424242",
"#5 c #434343",
"#p c #454545",
"#G c #464646",
".O c #46914f",
".u c #46b670",
"#h c #474747",
".n c #477d40",
".B c #47b671",
"#x c #484848",
"af c #4b4b4b",
"#z c #4c4c4c",
"#F c #4d4d4d",
"ad c #505050",
".C c #50854a",
"#T c #515151",
".U c #55bd7a",
"#Y c #575757",
"ai c #5e5e5e",
".F c #63c284",
".N c #63c385",
"#e c #64c280",
".i c #65c284",
"#J c #686868",
"#4 c #6a6a6a",
"#l c #6ac684",
"#n c #6d6d6d",
"#v c #6e6e6e",
"#B c #6f6f6f",
".2 c #6fc386",
"#N c #717171",
"#R c #757575",
"ab c #797979",
".5 c #7dcb8f",
"ag c #818181",
"ac c #828282",
".l c #82cd91",
"#o c #848484",
"#W c #898989",
"#y c #8d8d8d",
"#I c #9b9b9b",
"#g c #a0a0a0",
"#0 c #a3a3a3",
".J c #a3daae",
"ah c #a5a5a5",
"#3 c #afafaf",
".Z c #b0e1b5",
".A c #b2e0b8",
"#A c #b5b5b5",
"#m c #b8b8b8",
".t c #b8e2be",
".k c #b9e4bd",
".T c #bee5c1",
"#u c #c3c3c3",
".E c #cbe9cb",
".6 c #ceecce",
".1 c #d4f4d4",
".j c #d8f0d6",
".0 c #dff3dd",
".M c #e0f3dd",
".s c #ffffff",
"QtQtQtQtQtQtQtQt.#.a.b.c.d.e.fQtQtQtQtQtQtQt",
"QtQtQtQtQtQt.g.h.i.j.k.l.m.n.o.p.qQtQtQtQtQt",
"QtQtQtQtQt.g.r.s.t.u.v.g.w.x.y.f.p.zQtQtQtQt",
"QtQtQtQtQt.h.s.A.B.C.f.fQtQtQtQt.f.z.DQtQtQt",
"QtQtQtQt.g.i.E.F.G.HQtQtQtQtQtQtQtQt.z.fQtQt",
"QtQtQtQt.I.s.J.K.fQtQtQtQtQtQtQtQtQtQt.fQtQt",
"QtQtQtQt.L.M.N.O.PQtQtQtQtQtQtQtQtQtQtQtQtQt",
".f.q.Q.R.S.T.U.V.W.X.f.fQtQtQtQtQtQtQtQtQtQt",
".f.Y.Z.0.1.2.3.4.5.6.7.8QtQtQt.9#.QtQtQtQtQt",
"Qt.f###a#b#c#d#e.7#f.fQtQtQt.9#g#h#iQtQtQtQt",
"QtQt.f###j#k#l.7#f.fQtQtQt.9#m#n#o#p#qQtQtQt",
"QtQtQt.f#r#s#t#f.fQtQtQt.9#u#v#w#x#y#z#iQtQt",
"QtQtQtQt.f###f.fQtQtQt.9#A#B#C#D#E#F#y#G#qQt",
"QtQtQtQtQt.f.fQtQtQt#H#I#J#p#p#K#L#M#G#N#O#P",
"QtQtQtQtQtQtQtQtQtQt.9.9#Q.9#R#S#T#U#V.9.9.9",
"QtQtQtQtQtQtQtQtQtQtQtQtQt.9#W#X#Y#ZQtQtQtQt",
"QtQt.9QtQtQtQtQtQtQtQtQtQt.9#0#1#T#2QtQtQtQt",
"QtQt.9.9QtQtQtQtQtQtQtQt.9#3#4#5#6#7QtQtQtQt",
"QtQtQt.9.9.9QtQtQtQt.9.9#3#o#8#x#9QtQtQtQtQt",
"QtQtQtQta.#Da#aa.9.9ab#3acadad#O#7QtQtQtQtQt",
"QtQtQtQtQt.9aeaf#4agahai#8adaj.9QtQtQtQtQtQt",
"QtQtQtQtQtQtQt#Pak#iaealam.9QtQtQtQtQtQtQtQt"};
