<svg xmlns="http://www.w3.org/2000/svg" height="16" width="16"><rect width="16" height="16" rx="2" ry="2" fill="#fff" fill-opacity=".502"/><path d="M0 14l2.178-1 1.335-3.74 1.923-4.773L7 2.653l1.574-.11L10 4l1.579 3 1.171 3.454.972 2.32L16 14z" fill="#d3bf2c" fill-opacity=".502"/><path d="M10.5 2v12m-5-12v12M.5 2v12m15-12v12" fill="#6389b8" stroke="#6389b8"/><path d="M0 13.5c4.983 0 4-11.063 8-11.063S11 13.5 16 13.5" fill="none" stroke="#d3c02d"/><path d="M2 10h2v2H2zm5-6h2v2H7zm0 3h2v2H7zm0 3h2v2H7zm5 0h2v2h-2z"/></svg>
