<?xml version="1.0" encoding="UTF-8"?>
<svg width="16" height="16" xmlns="http://www.w3.org/2000/svg">
 <rect width="16" height="16" rx="2" ry="2" fill="#fff" fill-opacity=".502"/>
 <path d="m0.5 2v12m15-12v12m-5-12v12m-5-12v12" fill="#6389b8" stroke="#6389b8"/>
 <path d="m2 4h2v2h-2zm0 3h2v2h-2zm0 3h2v2h-2zm5 0h2v2h-2zm5-3h2v2h-2zm0 3h2v2h-2z"/>
 <g fill="none" stroke="#d3c02d">
  <path d="M.5 4V2.5h15V4M5.5 2.5V4M10.5 2.5V4"/>
 </g>
 <g fill="none" stroke="#d3c02d">
  <path d="M15.5 12v1.5H.5V12M10.5 13.5V12M5.5 13.5V12"/>
 </g>
</svg>
