<svg height="16" width="16" xmlns="http://www.w3.org/2000/svg"><rect fill="#fff" fill-opacity=".502" height="16" rx="2" width="16"/><path d="m.5 2v12m15-12v12m-3-12v12" fill="#6389b8" stroke="#6389b8"/><path d="m12.5 9.5h3v3h-3z" fill="#d3bf2c" fill-opacity=".502" stroke="#d3c02d" stroke-linecap="round"/><path d="m3.5 2v12" fill="#6389b8" stroke="#6389b8"/><path d="m.5 6.5h3v6h-3z" fill="#d3bf2c" fill-opacity=".502" stroke="#d3c02d" stroke-linecap="round"/><path d="m1 7h2v2h-2zm0 3h2v2h-2z"/><path d="m6.5 3.5h3v9h-3z" fill="#d3bf2c" fill-opacity=".502" stroke="#d3c02d" stroke-linecap="round"/><path d="m7 4h2v2h-2zm0 3h2v2h-2zm0 3h2v2h-2zm6 0h2v2h-2z"/></svg>