<svg xmlns="http://www.w3.org/2000/svg" height="16" width="16"><rect width="16" height="16" rx="2" ry="2" fill="#fff" fill-opacity=".502"/><path d="M.5 2v12M15.5 2v12M12.5 2v12" fill="#6389b8" stroke="#6389b8"/><path fill="#d3bf2c" fill-opacity=".502" stroke="#d3c02d" stroke-linecap="round" d="M12.5 9.5h3v3h-3z"/><path d="M3.5 2v12" fill="#6389b8" stroke="#6389b8"/><path fill="#d3bf2c" fill-opacity=".502" stroke="#d3c02d" stroke-linecap="round" d="M.5 6.5h3v6h-3z"/><path d="M1 7h2v2H1zM1 10h2v2H1z"/><path fill="#d3bf2c" fill-opacity=".502" stroke="#d3c02d" stroke-linecap="round" d="M6.5 3.5h3v9h-3z"/><path d="M7 4h2v2H7zM7 7h2v2H7zM7 10h2v2H7zM13 10h2v2h-2z"/></svg>
