/* XPM */
static char *mapserver[]={
"16 16 153 2",
"Qt c None",
"#d c #c9bda9",
".d c #867963",
".c c #a68e7a",
".b c #c9a680",
".a c #c9bca9",
".e c #d3c8b5",
".# c #e6dac4",
"#T c #c9bca8",
"#K c #e6dac4",
".g c #c9bca8",
".f c #eff2f4",
".A c #a58d79",
"ah c #ae875c",
"al c #d3c8b5",
".p c #eff2f4",
"ag c #a58d79",
"ab c #c9bca8",
"as c #422510",
"an c #65432a",
"am c #857862",
".Z c #828881",
"aa c #857862",
".M c #c4cbd6",
"#5 c #d3c8b5",
"#4 c #a18a76",
"#U c #d5cab6",
"aq c #4d2e18",
"ar c #564433",
".W c #5d6a7e",
"av c #5f3e26",
".9 c #617388",
"ap c #65432a",
"a. c #684b32",
".K c #6f5b43",
".Y c #716149",
"au c #72634b",
".y c #756951",
"#3 c #756952",
"#I c #756b56",
"#p c #756f5d",
"#. c #756f5f",
"#2 c #766851",
"#a c #766a53",
"#1 c #766c56",
"#0 c #776b54",
".X c #786c54",
"ao c #795a43",
"#R c #79715e",
".L c #7c5e47",
".V c #7d735b",
"#A c #7e7460",
"aj c #7f613f",
"a# c #7f7059",
".J c #7f725c",
"aw c #806f59",
".n c #80735c",
"#S c #81745d",
"#P c #817560",
"#n c #817764",
"#k c #818e9d",
"## c #827660",
"#l c #828881",
"#c c #837863",
"#Q c #838479",
"ad c #847253",
"#b c #847761",
".8 c #848880",
"#o c #857862",
"ae c #867660",
".x c #887553",
"#G c #897b69",
"#j c #898675",
"#9 c #8a7a5f",
"#m c #8d7d68",
".I c #8e7c5d",
"ak c #8e856c",
"#x c #908a7d",
"#H c #92816b",
"#z c #97846f",
".E c #98999d",
".z c #99826c",
"#Z c #9b8256",
"ac c #9d8356",
".7 c #9da5b0",
".R c #9da6b1",
"#O c #9e8c6e",
"at c #a08975",
"ai c #a18868",
"af c #a19580",
".m c #a28a6e",
".6 c #a28f7e",
".F c #a29e9c",
".T c #a2a2a5",
".H c #a38458",
"#v c #a48458",
"#w c #a4a397",
".w c #a58559",
"#y c #a58d79",
".D c #a88b6e",
".l c #a88b70",
".s c #a98a6b",
"#N c #ab956f",
".U c #ac927a",
"#Y c #ad885d",
".S c #adb6c3",
".v c #ae875c",
".k c #b0947b",
"#B c #b2b0ad",
"#M c #b58f65",
".o c #b5aa95",
"#F c #b6b5b2",
".t c #b8997c",
"#D c #b8a592",
".u c #bc966e",
"#q c #beb6aa",
".G c #bf9a72",
"#8 c #bf9e76",
"#L c #bfaf9b",
".Q c #c1b29e",
"#E c #c3ac8f",
"#7 c #c3b098",
".N c #c5c7cc",
"#X c #c6b6a0",
".j c #c9a57f",
".r c #c9b194",
".C c #c9b399",
".i c #c9b49b",
"#J c #c9bca8",
"#t c #cac9c8",
"#g c #cfc8bd",
"#i c #d0bea6",
".P c #d0c0a9",
"#6 c #d0c5b2",
".5 c #d0c6b4",
".h c #d1c1ac",
".0 c #d2c8b6",
".3 c #d3c8b5",
".B c #d7cfc4",
"#f c #d8ccb9",
"#e c #d9d7d4",
"#u c #dad7d3",
".O c #dadadb",
".1 c #dadcdf",
"#r c #dbcfbb",
".4 c #dbdbdd",
"#h c #dcdee2",
".q c #ddcdbc",
"#C c #ded2bd",
"#W c #e2d5c0",
".2 c #e3d8c4",
"#V c #e5d9c3",
"#s c #e6dac4",
"QtQtQtQt.#.a.b.c.c.c.d.eQtQtQtQt",
"QtQt.f.g.h.i.j.k.l.m.n.o.gQtQtQt",
"Qt.p.q.r.s.t.t.u.v.w.x.y.z.AQtQt",
"Qt.B.C.j.D.E.F.D.G.H.I.J.K.LQtQt",
".M.N.O.P.Q.R.S.T.U.V.W.X.y.Y.ZQt",
".0.1.2.3.4.5.6.7.8.9#.###a#b#c#d",
".3#e#f#g#h#i#j#k#l#l#m#n#o#o#p#q",
"#r#r#s#t#u.j#v#w#x#x#y#z#A#A#p#B",
"#s#s#s#C#D.j#E#F#G#H#H#o#p#I#p#J",
"#K#s#s#s#L#M#N#O#P#Q#o#R#p#S#P#T",
"Qt#U#V#V#W#X#Y#Z#0#1#2#3#3#0#4Qt",
"QtQt#5#6#6#7#8#9#9.ya..Xa#aaQtQt",
"QtQtQtabab.vacacacadaeafagQtQtQt",
"QtQtQtQtQtahaiajajak.AalQtQtQtQt",
"QtQtQtQtamanaoapaqarasanQtQtQtQt",
"QtQtQtQtatauauapavavavawQtQtQtQt"};
