<?xml version="1.0" encoding="UTF-8" standalone="no"?>
<!DOCTYPE svg PUBLIC "-//W3C//DTD SVG 1.0//EN"
"http://www.w3.org/TR/2001/REC-SVG-20010904/DTD/svg10.dtd">
<!-- Created with Sodipodi ("http://www.sodipodi.com/") -->
<svg
   xmlns="http://www.w3.org/2000/svg"
   xmlns:xlink="http://www.w3.org/1999/xlink"
   version="1.0"
   x="0"
   y="0"
   width="109.13385"
   height="109.13385"
   id="svg602"
   xml:space="preserve"><rect
   width="90.559166"
   height="90.5591583"
   x="8.90745831"
   y="10.409523"
   transform="translate(0.379882,-1.122183)"
   style="font-size:12;fill:#ffffff;fill-rule:evenodd;stroke:#000000;stroke-width:5.6945;"
   id="rect645" /><path
   d="M 22.14072 18.09836 C 22.14072 20.31703 21.94872 22.0237 21.56472 23.21836 C 21.22338 24.15703 20.54072 25.2237 19.51672 26.41836 C 18.32205 27.82636 17.55405 28.85036 17.21272 29.49036 C 16.35938 31.06903 15.86872 32.98903 15.74072 35.25036 L 12.15672 35.25036 L 12.15672 34.80236 C 12.15672 30.49303 13.13805 27.10103 15.10072 24.62636 C 16.21005 23.21836 16.89272 22.2797 17.14872 21.81036 C 17.70338 20.82903 17.98072 19.7197 17.98072 18.48236 C 17.98072 15.96503 16.95672 14.70636 14.90872 14.70636 C 12.86072 14.70636 11.02605 15.66636 9.404717 17.58636 L 7.420717 12.97836 C 9.04205 10.1197 11.49538 8.690363 14.78072 8.690363 C 17.29805 8.690363 19.19672 9.671696 20.47672 11.63436 C 21.58605 13.29836 22.14072 15.45303 22.14072 18.09836 z M 16.06072 41.71436 C 16.06072 42.52503 15.89005 43.2717 15.54872 43.95436 C 15.16472 44.85036 14.61005 45.29836 13.88472 45.29836 C 13.20205 45.29836 12.64738 44.85036 12.22072 43.95436 C 11.92205 43.22903 11.77272 42.48236 11.77272 41.71436 C 11.77272 40.94636 11.94338 40.1997 12.28472 39.47436 C 12.66872 38.57836 13.20205 38.13036 13.88472 38.13036 C 14.56738 38.13036 15.12205 38.57836 15.54872 39.47436 C 15.89005 40.15703 16.06072 40.9037 16.06072 41.71436 z "
   transform="matrix(3.571787,0,0,1.97328,1.773343,1.299492)"
   style="font-size:64;font-weight:bold;font-family:Blue Highway Condensed;"
   id="path655" /></svg>
