# Blender v2.79 (sub 0) OBJ File: 'Bush_1.blend'
# www.blender.org
mtllib Bush_1.mtl
o Bush_1_Cube.045
v 0.473081 0.611962 -0.526088
v -0.024986 0.620561 -0.702021
v -0.484454 0.633920 0.562045
v 0.046226 0.620360 0.752317
v 0.570132 1.007543 -0.017244
v 0.507290 0.995659 0.463148
v -0.530500 0.629611 0.021374
v 0.567972 0.617965 0.539125
v 0.052468 1.148084 0.358213
v 0.034918 1.205483 0.008525
v 0.071486 0.969922 0.676602
v 0.000059 0.973662 -0.669954
v -0.395608 0.984050 0.490444
v -0.386282 0.984670 -0.436185
v -0.048666 -0.023293 -0.607675
v 0.552784 0.362494 0.545136
v -0.643561 0.403176 0.017812
v 0.023610 0.419705 0.780921
v -0.489806 0.425103 0.556387
v -0.046684 0.437200 -0.745131
v 0.433482 0.431657 -0.529571
v 0.624299 0.196199 -0.041532
v -0.563340 0.212216 0.598497
v -0.560362 0.194027 -0.532476
v -0.056671 0.222151 -0.797355
v 0.013556 0.205962 0.845013
v 0.555421 0.189761 0.546951
v -0.395010 0.836740 -0.492296
v -0.448320 0.801400 0.532943
v -0.014674 0.776620 -0.716143
v 0.064894 0.793689 0.771739
v 0.519203 0.824371 0.502098
v 0.596777 0.794680 -0.008018
v 0.432027 0.763208 -0.479010
v -0.490441 0.837804 0.014962
v -0.630772 0.203880 0.017555
v 0.439580 0.231085 -0.556013
v 0.608716 0.360490 -0.032241
v -0.553436 0.401088 -0.537434
v -0.010109 -0.036265 0.295008
v -0.443294 0.987642 0.020829
v 0.020793 1.171504 -0.351636
v -0.437854 0.634848 -0.493511
v 0.415869 0.955912 -0.454579
v 0.617858 0.605201 -0.019143
v 0.376359 0.628105 0.741668
v 0.379400 0.753211 -0.449917
v -0.010516 0.758780 -0.688269
v -0.410016 0.779270 0.506921
v 0.050847 0.769903 0.731185
v 0.489776 0.773546 0.487460
v -0.452727 0.793526 0.018924
v 0.349623 0.976938 0.614421
v 0.282558 1.113912 -0.394709
v 0.010450 1.107122 -0.488626
v -0.193627 1.081120 0.375529
v 0.062389 1.089020 0.503082
v 0.307441 1.101838 0.366470
v -0.275247 1.137230 0.022834
v 0.042901 1.173932 0.214662
v 0.593337 0.813426 0.262023
v 0.271797 0.744950 -0.652046
v -0.212441 0.963316 0.622360
v -0.265512 0.828645 -0.644604
v -0.443147 0.986799 0.268735
v -0.663226 0.207331 0.316524
v 0.278373 0.239331 -0.727652
v -0.416422 0.200873 -0.753683
v -0.330709 0.213578 0.773810
v 0.332123 0.196692 0.718795
v 0.635144 0.189450 0.258928
v 0.435857 0.023325 0.500134
v -0.462812 0.027096 -0.578722
v 0.011196 0.031370 0.729317
v -0.444942 0.025010 0.540075
v -0.057768 0.039497 -0.782423
v 0.341023 0.401337 0.718318
v 0.286424 0.616761 -0.686680
v -0.308677 0.634947 -0.663073
v -0.280327 0.630066 0.740252
v -0.551782 0.632746 0.301621
v 0.635877 0.608041 0.266089
v 0.602137 0.431013 0.569516
v -0.531976 0.474336 -0.545550
v 0.040592 0.462530 0.826637
v -0.510438 0.463957 0.580075
v -0.040288 0.467516 -0.845013
v 0.645763 0.419672 -0.024054
v 0.270282 0.447888 -0.690436
v -0.385380 0.402605 -0.735153
v -0.299744 0.424970 0.736863
v -0.634197 0.403622 0.315381
v 0.613402 0.357150 0.261319
v 0.488507 0.022648 0.041452
v 0.526549 0.352370 -0.029933
v -0.048917 0.392631 -0.720387
v -0.465212 0.383106 0.530405
v 0.009883 0.370764 0.762050
v -0.488568 0.355612 -0.489045
v 0.461362 0.345800 0.490904
v 0.373237 0.805157 0.701658
v 0.584517 1.016160 0.244051
v 0.271511 0.945000 -0.588333
v -0.255826 0.789720 0.709794
v -0.278916 0.988340 -0.600155
v -0.486000 0.833991 0.283916
v -0.436698 0.869186 -0.518775
v -0.476987 0.845425 0.554258
v -0.014055 0.825546 -0.713601
v 0.076159 0.841047 0.805320
v 0.577429 0.859478 0.526615
v 0.604499 0.850956 -0.007820
v 0.509099 0.770002 -0.005012
v -0.373378 0.790736 -0.457713
v 0.359432 1.161296 -0.010193
v -0.260058 1.130786 -0.359620
v -0.559439 0.002618 0.086471
v -0.663867 0.464189 0.019403
v 0.480035 0.446584 -0.550153
v 0.372360 0.033552 -0.613725
v 0.443861 0.395443 -0.546364
v -0.622097 0.365882 0.015347
v -0.531646 0.868541 0.013820
v 0.447730 0.807441 -0.489398
v 0.510346 0.791714 -0.260825
v -0.447099 0.838745 -0.256951
v -0.610695 0.198999 -0.271111
v 0.552724 0.210877 -0.322223
v 0.530132 0.391650 -0.304422
v -0.609353 0.403156 -0.272456
v -0.031484 -0.028652 -0.245541
v -0.425817 0.988877 -0.230320
v 0.030456 1.165267 -0.195436
v -0.522429 0.638455 -0.260054
v 0.469881 0.972413 -0.251559
v 0.548422 0.606059 -0.286903
v 0.332370 0.773781 0.657491
v 0.232820 0.752396 -0.578105
v -0.247176 0.769470 0.685097
v -0.279436 0.776813 -0.647269
v 0.545940 0.771074 0.252468
v -0.450589 0.790866 0.276033
v 0.346413 1.140592 0.213608
v 0.205088 1.066670 -0.501620
v -0.174702 1.061708 -0.455894
v -0.268484 1.137776 0.243337
v -0.123766 1.043991 0.488002
v 0.245535 1.046086 0.467659
v 0.294099 0.066671 0.697632
v 0.585239 0.048462 0.269581
v -0.603935 0.061128 0.320895
v -0.291929 0.058923 0.751559
v -0.327049 0.075355 -0.704327
v 0.219604 0.094282 -0.724211
v 0.399655 0.449844 0.792229
v 0.311316 0.457222 -0.750853
v -0.370431 0.476867 -0.729860
v -0.300678 0.465277 0.761172
v -0.664214 0.461441 0.328021
v 0.632107 0.422734 0.270356
v 0.266795 0.412992 -0.703697
v -0.369207 0.357637 -0.692479
v -0.292702 0.383629 0.703967
v -0.609772 0.370907 0.302854
v 0.519091 0.343817 0.243619
v 0.304028 0.356482 0.675507
v 0.407374 0.852145 0.730131
v 0.664214 0.856945 0.269128
v 0.303390 0.788768 -0.693351
v -0.269925 0.834245 0.742555
v -0.307803 0.857595 -0.704064
v -0.520965 0.863410 0.291148
v 0.499278 0.756131 -0.263078
v -0.440169 0.791274 -0.243553
v 0.303736 1.115486 -0.222708
v -0.260880 1.124913 -0.191595
v -0.529341 0.007188 -0.279204
v -0.589686 0.468782 -0.276017
v 0.606248 0.425086 -0.315754
v 0.424037 0.037624 -0.313699
v 0.470015 0.375797 -0.293533
v -0.550022 0.362788 -0.255982
v -0.521799 0.865866 -0.274475
v 0.574378 0.827047 -0.279586
vn 0.9011 0.2251 -0.3705
vn 0.6954 0.2510 -0.6733
vn 0.5028 0.6487 -0.5713
vn 0.7849 0.5071 -0.3561
vn 0.1475 0.5495 -0.8223
vn -0.1772 0.5800 -0.7951
vn -0.1349 0.1248 -0.9830
vn 0.2073 0.4235 -0.8818
vn -0.8463 0.3904 0.3623
vn -0.6447 0.1758 0.7439
vn -0.6036 0.4758 0.6397
vn -0.8262 0.5294 0.1927
vn -0.1051 0.2893 0.9514
vn 0.0636 0.3505 0.9344
vn 0.1216 0.3478 0.9296
vn -0.0855 0.2648 0.9605
vn 0.8678 0.4158 -0.2721
vn 0.5635 0.7558 -0.3336
vn 0.5260 0.8503 0.0197
vn 0.9363 0.3231 -0.1377
vn 0.8121 0.5014 0.2984
vn 0.3889 0.8832 0.2622
vn 0.1788 0.8906 0.4182
vn 0.5405 0.6399 0.5462
vn -0.8503 0.5149 -0.1092
vn -0.8084 0.5879 -0.0301
vn -0.8748 0.4834 -0.0316
vn -0.8917 0.4518 -0.0283
vn 0.7176 0.2564 0.6475
vn 0.9817 0.0955 0.1649
vn 0.8502 0.4887 0.1957
vn 0.6319 0.5168 0.5776
vn -0.1461 0.9346 0.3244
vn -0.2277 0.8868 0.4021
vn 0.2049 0.8697 0.4491
vn 0.1347 0.9653 0.2237
vn -0.1800 0.9755 -0.1267
vn -0.1600 0.9841 0.0770
vn 0.1254 0.9847 0.1211
vn 0.1350 0.9663 -0.2191
vn 0.1361 0.7046 0.6965
vn 0.1646 0.8747 0.4559
vn -0.1675 0.8462 0.5058
vn -0.1444 0.7023 0.6971
vn -0.0825 0.4760 -0.8756
vn -0.1644 0.8578 -0.4870
vn 0.2043 0.7300 -0.6522
vn 0.2003 0.4394 -0.8757
vn -0.4481 0.6525 0.6111
vn -0.1928 0.8912 0.4106
vn -0.4460 0.8447 0.2960
vn -0.8141 0.5530 0.1773
vn -0.7767 0.5916 -0.2162
vn -0.6797 0.7301 -0.0701
vn -0.3414 0.8202 -0.4590
vn -0.6735 0.5718 -0.4685
vn 0.1377 -0.9903 -0.0162
vn -0.0938 -0.9946 -0.0450
vn -0.1767 -0.8966 -0.4060
vn 0.1734 -0.8641 -0.4726
vn 0.1946 -0.9242 0.3287
vn 0.1423 -0.9888 0.0453
vn 0.8671 -0.4764 0.1459
vn 0.3773 -0.7745 0.5076
vn -0.6764 -0.7260 -0.1240
vn -0.8322 -0.5532 0.0360
vn -0.9202 -0.3912 0.0122
vn -0.9833 -0.0078 -0.1820
vn -0.1546 -0.4828 0.8620
vn 0.1589 -0.6010 0.7833
vn 0.0471 -0.8081 0.5872
vn -0.1345 -0.6231 0.7705
vn -0.6327 -0.6399 0.4362
vn -0.5530 -0.6105 0.5670
vn -0.5659 -0.5347 0.6276
vn -0.7075 -0.5414 0.4542
vn 0.1181 -0.1503 -0.9816
vn 0.0173 -0.5997 -0.8000
vn -0.1153 -0.6533 -0.7483
vn 0.0508 -0.9729 -0.2256
vn 0.7122 -0.6504 -0.2641
vn 0.6589 0.3461 -0.6679
vn 0.1102 -0.9786 -0.1739
vn 0.2932 -0.9186 -0.2651
vn 0.8508 0.4989 -0.1653
vn 0.8236 0.5671 0.0103
vn 0.8312 -0.5354 -0.1499
vn 0.7556 -0.6266 -0.1909
vn -0.5689 0.4934 0.6580
vn -0.8078 0.4571 0.3722
vn -0.7901 -0.4824 0.3781
vn -0.6164 -0.4378 0.6545
vn -0.8914 0.4009 -0.2114
vn -0.7672 0.4401 -0.4665
vn -0.6669 -0.4327 -0.6066
vn -0.8890 -0.4136 -0.1962
vn -0.1288 0.4040 -0.9056
vn 0.1104 0.2808 -0.9534
vn 0.2141 -0.0936 -0.9723
vn -0.1895 -0.2522 -0.9489
vn 0.3174 0.3706 0.8729
vn -0.1646 0.4234 0.8908
vn -0.0906 -0.3933 0.9149
vn 0.2471 -0.4242 0.8712
vn 0.7894 0.5803 0.2002
vn 0.6234 0.4436 0.6438
vn 0.5964 -0.4668 0.6530
vn 0.8083 -0.4849 0.3339
vn -0.8901 -0.3917 -0.2332
vn -0.4155 -0.9015 -0.1213
vn -0.3926 -0.8854 -0.2489
vn -0.8205 -0.2347 -0.5212
vn -0.3959 -0.8512 0.3447
vn -0.5522 -0.6123 0.5659
vn -0.7444 -0.6656 0.0530
vn -0.6528 -0.7566 0.0368
vn -0.2403 -0.3003 -0.9231
vn -0.2091 -0.6475 -0.7328
vn 0.0807 -0.4081 -0.9094
vn -0.0341 -0.9930 -0.1130
vn 0.1386 -0.8686 0.4757
vn 0.1969 -0.6031 0.7730
vn -0.1403 -0.5824 0.8007
vn -0.0923 -0.8218 0.5622
vn 0.7247 -0.6539 0.2172
vn 0.4796 -0.8592 0.1784
vn 0.5056 -0.7911 0.3443
vn 0.5347 -0.7440 0.4007
vn 0.5193 -0.8518 -0.0698
vn 0.7660 -0.6279 -0.1380
vn 0.7864 -0.6155 -0.0531
vn 0.4443 -0.8959 0.0055
vn 0.0461 -0.9988 0.0163
vn 0.6422 -0.6142 -0.4586
vn 0.6451 -0.7296 -0.2269
vn 0.5177 -0.8345 -0.1886
vn -0.7669 -0.6417 0.0017
vn -0.6196 -0.7849 0.0043
vn -0.4412 -0.8965 -0.0391
vn -0.8885 -0.4497 -0.0918
vn -0.9820 0.1856 -0.0364
vn -0.9639 0.2116 -0.1616
vn -0.9261 -0.3707 -0.0708
vn -0.9257 -0.3672 -0.0909
vn 0.6980 0.0858 -0.7110
vn 0.9357 0.2517 -0.2472
vn 0.8638 -0.4193 -0.2794
vn 0.6489 -0.1196 -0.7514
vn 0.1224 -0.9923 -0.0202
vn 0.1521 -0.9787 -0.1381
vn 0.6201 -0.7637 -0.1794
vn 0.9122 -0.4095 0.0137
vn -0.4881 -0.7965 -0.3567
vn -0.5263 -0.8434 -0.1084
vn -0.9441 0.2629 -0.1990
vn -0.7468 0.1720 -0.6425
vn 0.1416 -0.9898 0.0177
vn 0.0828 -0.9787 0.1877
vn -0.0568 -0.9838 0.1700
vn -0.1575 -0.9836 0.0883
vn -0.0679 -0.9976 -0.0141
vn 0.1180 -0.9924 -0.0363
vn -0.8240 0.5661 0.0234
vn -0.6589 0.7521 0.0102
vn -0.6454 0.7613 -0.0623
vn -0.7907 0.6108 -0.0417
vn -0.1812 0.8274 -0.5316
vn -0.1405 0.9892 0.0408
vn 0.1962 0.9806 -0.0045
vn 0.1340 0.8820 -0.4519
vn -0.6601 0.5238 -0.5384
vn -0.8520 0.4657 -0.2392
vn -0.8445 0.4505 -0.2897
vn -0.7937 0.3375 -0.5061
vn 0.6711 0.4206 -0.6105
vn 0.4741 0.6499 -0.5940
vn 0.6733 0.7197 -0.1697
vn 0.8005 0.4549 -0.3901
vn 0.9979 0.0650 -0.0082
vn 0.9534 0.2399 -0.1830
vn 0.8776 0.4574 -0.1436
vn 0.8517 0.5163 -0.0898
usemtl Green
s off
f 1//1 136//1 179//1 119//1
f 1//2 119//2 156//2 78//2
f 1//3 78//3 138//3 47//3
f 1//4 47//4 173//4 136//4
f 2//5 78//5 156//5 87//5
f 2//6 87//6 157//6 79//6
f 2//7 79//7 140//7 48//7
f 2//8 48//8 138//8 78//8
f 3//9 81//9 159//9 86//9
f 3//10 86//10 158//10 80//10
f 3//11 80//11 139//11 49//11
f 3//12 49//12 142//12 81//12
f 4//13 80//13 158//13 85//13
f 4//14 85//14 155//14 46//14
f 4//15 46//15 137//15 50//15
f 4//16 50//16 139//16 80//16
f 5//17 112//17 184//17 135//17
f 5//18 135//18 175//18 115//18
f 5//19 115//19 143//19 102//19
f 5//20 102//20 168//20 112//20
f 6//21 111//21 168//21 102//21
f 6//22 102//22 143//22 58//22
f 6//23 58//23 148//23 53//23
f 6//24 53//24 167//24 111//24
f 7//25 134//25 178//25 118//25
f 7//26 118//26 159//26 81//26
f 7//27 81//27 142//27 52//27
f 7//28 52//28 174//28 134//28
f 8//29 46//29 155//29 83//29
f 8//30 83//30 160//30 82//30
f 8//31 82//31 141//31 51//31
f 8//32 51//32 137//32 46//32
f 9//33 60//33 146//33 56//33
f 9//34 56//34 147//34 57//34
f 9//35 57//35 148//35 58//35
f 9//36 58//36 143//36 60//36
f 10//37 133//37 176//37 59//37
f 10//38 59//38 146//38 60//38
f 10//39 60//39 143//39 115//39
f 10//40 115//40 175//40 133//40
f 11//41 110//41 167//41 53//41
f 11//42 53//42 148//42 57//42
f 11//43 57//43 147//43 63//43
f 11//44 63//44 170//44 110//44
f 12//45 109//45 171//45 105//45
f 12//46 105//46 145//46 55//46
f 12//47 55//47 144//47 103//47
f 12//48 103//48 169//48 109//48
f 13//49 108//49 170//49 63//49
f 13//50 63//50 147//50 56//50
f 13//51 56//51 146//51 65//51
f 13//52 65//52 172//52 108//52
f 14//53 107//53 183//53 132//53
f 14//54 132//54 176//54 116//54
f 14//55 116//55 145//55 105//55
f 14//56 105//56 171//56 107//56
f 15//57 120//57 180//57 131//57
f 15//58 131//58 177//58 73//58
f 15//59 73//59 153//59 76//59
f 15//60 76//60 154//60 120//60
f 16//61 77//61 166//61 100//61
f 16//62 100//62 165//62 93//62
f 16//63 93//63 160//63 83//63
f 16//64 83//64 155//64 77//64
f 17//65 130//65 182//65 122//65
f 17//66 122//66 164//66 92//66
f 17//67 92//67 159//67 118//67
f 17//68 118//68 178//68 130//68
f 18//69 91//69 163//69 98//69
f 18//70 98//70 166//70 77//70
f 18//71 77//71 155//71 85//71
f 18//72 85//72 158//72 91//72
f 19//73 92//73 164//73 97//73
f 19//74 97//74 163//74 91//74
f 19//75 91//75 158//75 86//75
f 19//76 86//76 159//76 92//76
f 20//77 89//77 161//77 96//77
f 20//78 96//78 162//78 90//78
f 20//79 90//79 157//79 87//79
f 20//80 87//80 156//80 89//80
f 21//81 129//81 181//81 121//81
f 21//82 121//82 161//82 89//82
f 21//83 89//83 156//83 119//83
f 21//84 119//84 179//84 129//84
f 22//85 128//85 181//85 95//85
f 22//86 95//86 165//86 71//86
f 22//87 71//87 150//87 94//87
f 22//88 94//88 180//88 128//88
f 23//89 69//89 163//89 97//89
f 23//90 97//90 164//90 66//90
f 23//91 66//91 151//91 75//91
f 23//92 75//92 152//92 69//92
f 24//93 127//93 182//93 99//93
f 24//94 99//94 162//94 68//94
f 24//95 68//95 153//95 73//95
f 24//96 73//96 177//96 127//96
f 25//97 68//97 162//97 96//97
f 25//98 96//98 161//98 67//98
f 25//99 67//99 154//99 76//99
f 25//100 76//100 153//100 68//100
f 26//101 70//101 166//101 98//101
f 26//102 98//102 163//102 69//102
f 26//103 69//103 152//103 74//103
f 26//104 74//104 149//104 70//104
f 27//105 71//105 165//105 100//105
f 27//106 100//106 166//106 70//106
f 27//107 70//107 149//107 72//107
f 27//108 72//108 150//108 71//108
f 28//109 114//109 174//109 126//109
f 28//110 126//110 183//110 107//110
f 28//111 107//111 171//111 64//111
f 28//112 64//112 140//112 114//112
f 29//113 49//113 139//113 104//113
f 29//114 104//114 170//114 108//114
f 29//115 108//115 172//115 106//115
f 29//116 106//116 142//116 49//116
f 30//117 48//117 140//117 64//117
f 30//118 64//118 171//118 109//118
f 30//119 109//119 169//119 62//119
f 30//120 62//120 138//120 48//120
f 31//121 50//121 137//121 101//121
f 31//122 101//122 167//122 110//122
f 31//123 110//123 170//123 104//123
f 31//124 104//124 139//124 50//124
f 32//125 51//125 141//125 61//125
f 32//126 61//126 168//126 111//126
f 32//127 111//127 167//127 101//127
f 32//128 101//128 137//128 51//128
f 33//129 113//129 173//129 125//129
f 33//130 125//130 184//130 112//130
f 33//131 112//131 168//131 61//131
f 33//132 61//132 141//132 113//132
f 34//133 47//133 138//133 62//133
f 34//134 62//134 169//134 124//134
f 34//135 124//135 184//135 125//135
f 34//136 125//136 173//136 47//136
f 35//137 52//137 142//137 106//137
f 35//138 106//138 172//138 123//138
f 35//139 123//139 183//139 126//139
f 35//140 126//140 174//140 52//140
f 36//141 66//141 164//141 122//141
f 36//142 122//142 182//142 127//142
f 36//143 127//143 177//143 117//143
f 36//144 117//144 151//144 66//144
f 37//145 67//145 161//145 121//145
f 37//146 121//146 181//146 128//146
f 37//147 128//147 180//147 120//147
f 37//148 120//148 154//148 67//148
f 38//149 93//149 165//149 95//149
f 38//150 95//150 181//150 129//150
f 38//151 129//151 179//151 88//151
f 38//152 88//152 160//152 93//152
f 39//153 90//153 162//153 99//153
f 39//154 99//154 182//154 130//154
f 39//155 130//155 178//155 84//155
f 39//156 84//156 157//156 90//156
f 40//157 94//157 150//157 72//157
f 40//158 72//158 149//158 74//158
f 40//159 74//159 152//159 75//159
f 40//160 75//160 151//160 117//160
f 40//161 117//161 177//161 131//161
f 40//162 131//162 180//162 94//162
f 41//163 123//163 172//163 65//163
f 41//164 65//164 146//164 59//164
f 41//165 59//165 176//165 132//165
f 41//166 132//166 183//166 123//166
f 42//167 55//167 145//167 116//167
f 42//168 116//168 176//168 133//168
f 42//169 133//169 175//169 54//169
f 42//170 54//170 144//170 55//170
f 43//171 79//171 157//171 84//171
f 43//172 84//172 178//172 134//172
f 43//173 134//173 174//173 114//173
f 43//174 114//174 140//174 79//174
f 44//175 124//175 169//175 103//175
f 44//176 103//176 144//176 54//176
f 44//177 54//177 175//177 135//177
f 44//178 135//178 184//178 124//178
f 45//179 82//179 160//179 88//179
f 45//180 88//180 179//180 136//180
f 45//181 136//181 173//181 113//181
f 45//182 113//182 141//182 82//182
