# Created by Kenney (www.kenney.nl)

mtllib cone.mtl

g cone

v -0.06209837 0.3571459 -0.1075575 1 1 1
v -0.03214448 0.3571459 -0.1199648 1 1 1
v -0.0328756 0.5952431 -0.05694222 1 1 1
v -0.01701767 0.5952431 -0.0635108 1 1 1
v -0.06209837 0.3571459 0.1075575 1 1 1
v -0.08782035 0.3571459 0.08782035 1 1 1
v -0.0328756 0.5952431 0.05694222 1 1 1
v -0.04649313 0.5952431 0.04649313 1 1 1
v -0.2380972 0 -0.1880973 1 1 1
v -0.2380972 0.1190486 -0.1880973 1 1 1
v -0.2380972 0 0.1880973 1 1 1
v -0.2380972 0.1190486 0.1880973 1 1 1
v 1.010676E-14 0.3571459 0.1241967 1 1 1
v -0.03214448 0.3571459 0.1199648 1 1 1
v 1.010676E-14 0.5952431 0.06575121 1 1 1
v -0.01701767 0.5952431 0.0635108 1 1 1
v -0.1199648 0.3571459 -0.03214448 1 1 1
v -0.0635108 0.5952431 -0.01701767 1 1 1
v -0.1241967 0.3571459 6.452083E-15 1 1 1
v -0.06575121 0.5952431 1.71454E-15 1 1 1
v -0.1075575 0.3571459 -0.06209837 1 1 1
v -0.05694222 0.5952431 -0.0328756 1 1 1
v 0.03214448 0.3571459 -0.1199648 1 1 1
v 0.06209837 0.3571459 -0.1075575 1 1 1
v 0.01701767 0.5952431 -0.0635108 1 1 1
v 0.0328756 0.5952431 -0.05694222 1 1 1
v 0.1075575 0.3571459 -0.06209837 1 1 1
v 0.1199648 0.3571459 -0.03214448 1 1 1
v 0.05694222 0.5952431 -0.0328756 1 1 1
v 0.0635108 0.5952431 -0.01701767 1 1 1
v 1.010676E-14 0.3571459 -0.1241967 1 1 1
v 1.010676E-14 0.5952431 -0.06575121 1 1 1
v -0.1880973 0 -0.2380972 1 1 1
v 0.1880973 0 -0.2380972 1 1 1
v -0.1880973 0.1190486 -0.2380972 1 1 1
v 0.1880973 0.1190486 -0.2380972 1 1 1
v 0.1241967 0.3571459 -3.068124E-15 1 1 1
v 0.1199648 0.3571459 0.03214448 1 1 1
v 0.06575121 0.5952431 1.71454E-15 1 1 1
v 0.0635108 0.5952431 0.01701767 1 1 1
v 0.08782035 0.3571459 -0.08782035 1 1 1
v 0.04649313 0.5952431 -0.04649313 1 1 1
v 0.2380972 0 0.1880973 1 1 1
v 0.1880973 0 0.2380972 1 1 1
v 0.2380972 0.1190486 0.1880973 1 1 1
v 0.1880973 0.1190486 0.2380972 1 1 1
v -0.1880973 0 0.2380972 1 1 1
v -0.1880973 0.1190486 0.2380972 1 1 1
v 0.03214448 0.3571459 0.1199648 1 1 1
v 0.01701767 0.5952431 0.0635108 1 1 1
v 0.2380972 0 -0.1880973 1 1 1
v 0.05694222 0.5952431 0.0328756 1 1 1
v 0.1075575 0.3571459 0.06209837 1 1 1
v 0.04649313 0.5952431 0.04649313 1 1 1
v 0.08782035 0.3571459 0.08782035 1 1 1
v -0.0635108 0.5952431 0.01701767 1 1 1
v -0.05694222 0.5952431 0.0328756 1 1 1
v -0.1199648 0.3571459 0.03214448 1 1 1
v -0.1075575 0.3571459 0.06209837 1 1 1
v 0.06209837 0.3571459 0.1075575 1 1 1
v 0.0328756 0.5952431 0.05694222 1 1 1
v -0.04649313 0.5952431 -0.04649313 1 1 1
v -0.08782035 0.3571459 -0.08782035 1 1 1
v 0.2380972 0.1190486 -0.1880973 1 1 1
v 0.1826423 0.1190486 1.71454E-15 1 1 1
v 0.1764189 0.1190486 -0.0472713 1 1 1
v 0.1764189 0.1190486 0.0472713 1 1 1
v 0.1581728 0.1190486 -0.09132113 1 1 1
v 0.1581728 0.1190486 0.09132113 1 1 1
v 0.1291476 0.1190486 -0.1291476 1 1 1
v 0.09132113 0.1190486 -0.1581728 1 1 1
v 0.0472713 0.1190486 -0.1764189 1 1 1
v 1.010676E-14 0.1190486 -0.1826423 1 1 1
v -0.0472713 0.1190486 -0.1764189 1 1 1
v 0.1291476 0.1190486 0.1291476 1 1 1
v 0.09132113 0.1190486 0.1581728 1 1 1
v 0.0472713 0.1190486 0.1764189 1 1 1
v 1.010676E-14 0.1190486 0.1826423 1 1 1
v -0.0472713 0.1190486 0.1764189 1 1 1
v -0.09132113 0.1190486 0.1581728 1 1 1
v -0.09132113 0.1190486 -0.1581728 1 1 1
v -0.1291476 0.1190486 0.1291476 1 1 1
v -0.1291476 0.1190486 -0.1291476 1 1 1
v -0.1581728 0.1190486 0.09132113 1 1 1
v -0.1581728 0.1190486 -0.09132113 1 1 1
v -0.1764189 0.1190486 0.0472713 1 1 1
v -0.1764189 0.1190486 -0.0472713 1 1 1
v -0.1826423 0.1190486 1.71454E-15 1 1 1
v 0.06209837 0.3571458 -0.1075575 1 1 1
v 0.08782035 0.3571458 -0.08782035 1 1 1
v 0.03214448 0.3571458 -0.1199648 1 1 1
v 0.1199648 0.3571458 0.03214448 1 1 1
v 0.1075575 0.3571458 0.06209837 1 1 1
v -0.06209837 0.3571458 0.1075575 1 1 1
v -0.08782035 0.3571458 0.08782035 1 1 1
v -0.1199648 0.3571458 -0.03214448 1 1 1
v -0.1826423 0.1190486 1.69198E-15 1 1 1
v -0.1241967 0.3571458 6.429523E-15 1 1 1
v 0.1075575 0.3571458 -0.06209837 1 1 1
v 0.1199648 0.3571458 -0.03214448 1 1 1
v -0.1075575 0.3571458 0.06209837 1 1 1
v -0.1199648 0.3571458 0.03214448 1 1 1
v 9.384849E-15 0.1190486 -0.1826423 1 1 1
v -0.03214448 0.3571458 -0.1199648 1 1 1
v 9.384849E-15 0.3571458 -0.1241967 1 1 1
v 0.1241967 0.3571458 -3.090683E-15 1 1 1
v 0.1826423 0.1190486 1.69198E-15 1 1 1
v 9.384849E-15 0.1190486 0.1826423 1 1 1
v 0.03214448 0.3571458 0.1199648 1 1 1
v 9.384849E-15 0.3571458 0.1241967 1 1 1
v -0.03214448 0.3571458 0.1199648 1 1 1
v -0.06209837 0.3571458 -0.1075575 1 1 1
v 0.08782035 0.3571458 0.08782035 1 1 1
v 0.06209837 0.3571458 0.1075575 1 1 1
v -0.08782035 0.3571458 -0.08782035 1 1 1
v -0.1075575 0.3571458 -0.06209837 1 1 1

vn -0.4855845 0.238392 -0.8410571
vn -0.2513571 0.238392 -0.9380772
vn -0.4855845 0.238392 0.8410571
vn -0.6867202 0.238392 0.6867202
vn -0.9238795 0 -0.3826834
vn -0.9238795 0 0.3826834
vn 0 0.238392 0.971169
vn -0.2513571 0.238392 0.9380772
vn -0.9380773 0.238392 -0.251357
vn -0.971169 0.238392 0
vn -0.8410571 0.238392 -0.4855845
vn 0.2513571 0.238392 -0.9380772
vn 0.4855845 0.238392 -0.8410571
vn 0.8410571 0.238392 -0.4855845
vn 0.9380773 0.238392 -0.251357
vn 0 0.238392 -0.971169
vn -0.3826834 0 -0.9238795
vn 0.3826834 0 -0.9238795
vn 0.971169 0.238392 0
vn 0.9380773 0.238392 0.251357
vn 0.6867202 0.238392 -0.6867202
vn 0.9238795 0 0.3826834
vn 0.3826834 0 0.9238795
vn -0.3826834 0 0.9238795
vn 0.2513571 0.238392 0.9380772
vn 0 -1 0
vn 0.8410571 0.238392 0.4855845
vn 0.6867202 0.238392 0.6867202
vn -0.9380773 0.238392 0.251357
vn -0.8410571 0.238392 0.4855845
vn 0.4855845 0.238392 0.8410571
vn 0 1 0
vn -0.6867202 0.238392 -0.6867202
vn 0.9238795 0 -0.3826834

vt 0.71875 0.645
vt 0.71875 0.725
vt 0.71875 0.525
vt 0.71875 0.565
vt 0.84375 0.275
vt 0.84375 0.475

usemtl colormap

f 3/2/1 2/1/2 1/1/1
f 2/1/2 3/2/1 4/2/2
f 7/2/3 6/1/4 5/1/3
f 6/1/4 7/2/3 8/2/4
f 11/3/6 10/4/5 9/3/5
f 10/4/5 11/3/6 12/4/6
f 15/2/7 14/1/8 13/1/7
f 14/1/8 15/2/7 16/2/8
f 19/1/10 18/2/9 17/1/9
f 18/2/9 19/1/10 20/2/10
f 17/1/9 22/2/11 21/1/11
f 22/2/11 17/1/9 18/2/9
f 25/2/12 24/1/13 23/1/12
f 24/1/13 25/2/12 26/2/13
f 29/2/14 28/1/15 27/1/14
f 28/1/15 29/2/14 30/2/15
f 4/2/2 31/1/16 2/1/2
f 31/1/16 4/2/2 32/2/16
f 35/4/17 34/3/18 33/3/17
f 34/3/18 35/4/17 36/4/18
f 39/2/19 38/1/20 37/1/19
f 38/1/20 39/2/19 40/2/20
f 42/2/21 27/1/14 41/1/21
f 27/1/14 42/2/21 29/2/14
f 45/4/22 44/3/23 43/3/22
f 44/3/23 45/4/22 46/4/23
f 48/4/24 11/3/6 47/3/24
f 11/3/6 48/4/24 12/4/6
f 50/2/25 13/1/7 49/1/25
f 13/1/7 50/2/25 15/2/7
f 44/3/26 51/3/26 43/3/26
f 51/3/26 44/3/26 34/3/26
f 34/3/26 44/3/26 47/3/26
f 34/3/26 47/3/26 33/3/26
f 33/3/26 47/3/26 11/3/26
f 33/3/26 11/3/26 9/3/26
f 26/2/13 41/1/21 24/1/13
f 41/1/21 26/2/13 42/2/21
f 54/2/28 53/1/27 52/2/27
f 53/1/27 54/2/28 55/1/28
f 52/2/27 38/1/20 40/2/20
f 38/1/20 52/2/27 53/1/27
f 58/1/29 57/2/30 56/2/29
f 57/2/30 58/1/29 59/1/30
f 61/2/31 49/1/25 60/1/31
f 49/1/25 61/2/31 50/2/25
f 30/2/32 40/2/32 39/2/32
f 40/2/32 30/2/32 29/2/32
f 40/2/32 29/2/32 52/2/32
f 52/2/32 29/2/32 42/2/32
f 52/2/32 42/2/32 54/2/32
f 54/2/32 42/2/32 26/2/32
f 54/2/32 26/2/32 61/2/32
f 61/2/32 26/2/32 25/2/32
f 61/2/32 25/2/32 50/2/32
f 50/2/32 25/2/32 32/2/32
f 50/2/32 32/2/32 15/2/32
f 15/2/32 32/2/32 4/2/32
f 15/2/32 4/2/32 16/2/32
f 16/2/32 4/2/32 3/2/32
f 16/2/32 3/2/32 7/2/32
f 7/2/32 3/2/32 62/2/32
f 7/2/32 62/2/32 8/2/32
f 8/2/32 62/2/32 22/2/32
f 8/2/32 22/2/32 57/2/32
f 57/2/32 22/2/32 18/2/32
f 57/2/32 18/2/32 56/2/32
f 56/2/32 18/2/32 20/2/32
f 16/2/8 5/1/3 14/1/8
f 5/1/3 16/2/8 7/2/3
f 62/2/33 1/1/1 63/1/33
f 1/1/1 62/2/33 3/2/1
f 45/4/22 51/3/34 64/4/34
f 51/3/34 45/4/22 43/3/22
f 46/4/23 47/3/24 44/3/23
f 47/3/24 46/4/23 48/4/24
f 36/4/32 45/4/32 64/4/32
f 45/4/32 36/4/32 46/4/32
f 46/4/32 36/4/32 65/4/32
f 65/4/32 36/4/32 66/4/32
f 67/4/32 46/4/32 65/4/32
f 66/4/32 36/4/32 68/4/32
f 69/4/32 46/4/32 67/4/32
f 68/4/32 36/4/32 70/4/32
f 70/4/32 36/4/32 71/4/32
f 71/4/32 36/4/32 72/4/32
f 72/4/32 36/4/32 35/4/32
f 72/4/32 35/4/32 73/4/32
f 73/4/32 35/4/32 74/4/32
f 75/4/32 46/4/32 69/4/32
f 76/4/32 46/4/32 75/4/32
f 77/4/32 46/4/32 76/4/32
f 46/4/32 77/4/32 48/4/32
f 48/4/32 77/4/32 78/4/32
f 48/4/32 78/4/32 79/4/32
f 48/4/32 79/4/32 80/4/32
f 74/4/32 35/4/32 81/4/32
f 48/4/32 80/4/32 82/4/32
f 81/4/32 35/4/32 83/4/32
f 48/4/32 82/4/32 84/4/32
f 83/4/32 35/4/32 85/4/32
f 48/4/32 84/4/32 86/4/32
f 85/4/32 35/4/32 87/4/32
f 87/4/32 35/4/32 88/4/32
f 48/4/32 86/4/32 88/4/32
f 48/4/32 88/4/32 35/4/32
f 48/4/32 35/4/32 10/4/32
f 48/4/32 10/4/32 12/4/32
f 19/1/10 56/2/29 20/2/10
f 56/2/29 19/1/10 58/1/29
f 10/4/5 33/3/17 9/3/5
f 33/3/17 10/4/5 35/4/17
f 21/1/11 62/2/33 63/1/33
f 62/2/33 21/1/11 22/2/11
f 36/4/18 51/3/34 34/3/18
f 51/3/34 36/4/18 64/4/34
f 30/2/15 37/1/19 28/1/15
f 37/1/19 30/2/15 39/2/19
f 59/1/30 8/2/4 57/2/30
f 8/2/4 59/1/30 6/1/4
f 54/2/28 60/1/31 55/1/28
f 60/1/31 54/2/28 61/2/31
f 32/2/16 23/1/12 31/1/16
f 23/1/12 32/2/16 25/2/12
f 89/6/13 70/5/21 71/5/13
f 70/5/21 89/6/13 90/6/21
f 91/6/12 71/5/13 72/5/12
f 71/5/13 91/6/12 89/6/13
f 93/6/27 67/5/20 92/6/20
f 67/5/20 93/6/27 69/5/27
f 94/6/3 82/5/4 80/5/3
f 82/5/4 94/6/3 95/6/4
f 97/5/10 96/6/9 87/5/9
f 96/6/9 97/5/10 98/6/10
f 99/6/14 66/5/15 68/5/14
f 66/5/15 99/6/14 100/6/15
f 84/5/30 95/6/4 101/6/30
f 95/6/4 84/5/30 82/5/4
f 86/5/29 98/6/10 97/5/10
f 98/6/10 86/5/29 102/6/29
f 104/6/2 103/5/16 74/5/2
f 103/5/16 104/6/2 105/6/16
f 86/5/29 101/6/30 102/6/29
f 101/6/30 86/5/29 84/5/30
f 92/6/20 107/5/19 106/6/19
f 107/5/19 92/6/20 67/5/20
f 109/6/25 108/5/7 77/5/25
f 108/5/7 109/6/25 110/6/7
f 110/6/7 79/5/8 108/5/7
f 79/5/8 110/6/7 111/6/8
f 112/6/1 74/5/2 81/5/1
f 74/5/2 112/6/1 104/6/2
f 113/6/28 76/5/31 75/5/28
f 76/5/31 113/6/28 114/6/31
f 113/6/28 69/5/27 93/6/27
f 69/5/27 113/6/28 75/5/28
f 105/6/16 72/5/12 103/5/16
f 72/5/12 105/6/16 91/6/12
f 90/6/21 68/5/14 70/5/21
f 68/5/14 90/6/21 99/6/14
f 100/6/15 107/5/19 66/5/15
f 107/5/19 100/6/15 106/6/19
f 111/6/8 80/5/3 79/5/8
f 80/5/3 111/6/8 94/6/3
f 85/5/11 115/6/33 83/5/33
f 115/6/33 85/5/11 116/6/11
f 115/6/33 81/5/1 83/5/33
f 81/5/1 115/6/33 112/6/1
f 87/5/9 116/6/11 85/5/11
f 116/6/11 87/5/9 96/6/9
f 114/6/31 77/5/25 76/5/31
f 77/5/25 114/6/31 109/6/25

g cone




usemtl colormap

f 3/2/1 2/1/2 1/1/1
f 2/1/2 3/2/1 4/2/2
f 7/2/3 6/1/4 5/1/3
f 6/1/4 7/2/3 8/2/4
f 11/3/6 10/4/5 9/3/5
f 10/4/5 11/3/6 12/4/6
f 15/2/7 14/1/8 13/1/7
f 14/1/8 15/2/7 16/2/8
f 19/1/10 18/2/9 17/1/9
f 18/2/9 19/1/10 20/2/10
f 17/1/9 22/2/11 21/1/11
f 22/2/11 17/1/9 18/2/9
f 25/2/12 24/1/13 23/1/12
f 24/1/13 25/2/12 26/2/13
f 29/2/14 28/1/15 27/1/14
f 28/1/15 29/2/14 30/2/15
f 4/2/2 31/1/16 2/1/2
f 31/1/16 4/2/2 32/2/16
f 35/4/17 34/3/18 33/3/17
f 34/3/18 35/4/17 36/4/18
f 39/2/19 38/1/20 37/1/19
f 38/1/20 39/2/19 40/2/20
f 42/2/21 27/1/14 41/1/21
f 27/1/14 42/2/21 29/2/14
f 45/4/22 44/3/23 43/3/22
f 44/3/23 45/4/22 46/4/23
f 48/4/24 11/3/6 47/3/24
f 11/3/6 48/4/24 12/4/6
f 50/2/25 13/1/7 49/1/25
f 13/1/7 50/2/25 15/2/7
f 44/3/26 51/3/26 43/3/26
f 51/3/26 44/3/26 34/3/26
f 34/3/26 44/3/26 47/3/26
f 34/3/26 47/3/26 33/3/26
f 33/3/26 47/3/26 11/3/26
f 33/3/26 11/3/26 9/3/26
f 26/2/13 41/1/21 24/1/13
f 41/1/21 26/2/13 42/2/21
f 54/2/28 53/1/27 52/2/27
f 53/1/27 54/2/28 55/1/28
f 52/2/27 38/1/20 40/2/20
f 38/1/20 52/2/27 53/1/27
f 58/1/29 57/2/30 56/2/29
f 57/2/30 58/1/29 59/1/30
f 61/2/31 49/1/25 60/1/31
f 49/1/25 61/2/31 50/2/25
f 30/2/32 40/2/32 39/2/32
f 40/2/32 30/2/32 29/2/32
f 40/2/32 29/2/32 52/2/32
f 52/2/32 29/2/32 42/2/32
f 52/2/32 42/2/32 54/2/32
f 54/2/32 42/2/32 26/2/32
f 54/2/32 26/2/32 61/2/32
f 61/2/32 26/2/32 25/2/32
f 61/2/32 25/2/32 50/2/32
f 50/2/32 25/2/32 32/2/32
f 50/2/32 32/2/32 15/2/32
f 15/2/32 32/2/32 4/2/32
f 15/2/32 4/2/32 16/2/32
f 16/2/32 4/2/32 3/2/32
f 16/2/32 3/2/32 7/2/32
f 7/2/32 3/2/32 62/2/32
f 7/2/32 62/2/32 8/2/32
f 8/2/32 62/2/32 22/2/32
f 8/2/32 22/2/32 57/2/32
f 57/2/32 22/2/32 18/2/32
f 57/2/32 18/2/32 56/2/32
f 56/2/32 18/2/32 20/2/32
f 16/2/8 5/1/3 14/1/8
f 5/1/3 16/2/8 7/2/3
f 62/2/33 1/1/1 63/1/33
f 1/1/1 62/2/33 3/2/1
f 45/4/22 51/3/34 64/4/34
f 51/3/34 45/4/22 43/3/22
f 46/4/23 47/3/24 44/3/23
f 47/3/24 46/4/23 48/4/24
f 36/4/32 45/4/32 64/4/32
f 45/4/32 36/4/32 46/4/32
f 46/4/32 36/4/32 65/4/32
f 65/4/32 36/4/32 66/4/32
f 67/4/32 46/4/32 65/4/32
f 66/4/32 36/4/32 68/4/32
f 69/4/32 46/4/32 67/4/32
f 68/4/32 36/4/32 70/4/32
f 70/4/32 36/4/32 71/4/32
f 71/4/32 36/4/32 72/4/32
f 72/4/32 36/4/32 35/4/32
f 72/4/32 35/4/32 73/4/32
f 73/4/32 35/4/32 74/4/32
f 75/4/32 46/4/32 69/4/32
f 76/4/32 46/4/32 75/4/32
f 77/4/32 46/4/32 76/4/32
f 46/4/32 77/4/32 48/4/32
f 48/4/32 77/4/32 78/4/32
f 48/4/32 78/4/32 79/4/32
f 48/4/32 79/4/32 80/4/32
f 74/4/32 35/4/32 81/4/32
f 48/4/32 80/4/32 82/4/32
f 81/4/32 35/4/32 83/4/32
f 48/4/32 82/4/32 84/4/32
f 83/4/32 35/4/32 85/4/32
f 48/4/32 84/4/32 86/4/32
f 85/4/32 35/4/32 87/4/32
f 87/4/32 35/4/32 88/4/32
f 48/4/32 86/4/32 88/4/32
f 48/4/32 88/4/32 35/4/32
f 48/4/32 35/4/32 10/4/32
f 48/4/32 10/4/32 12/4/32
f 19/1/10 56/2/29 20/2/10
f 56/2/29 19/1/10 58/1/29
f 10/4/5 33/3/17 9/3/5
f 33/3/17 10/4/5 35/4/17
f 21/1/11 62/2/33 63/1/33
f 62/2/33 21/1/11 22/2/11
f 36/4/18 51/3/34 34/3/18
f 51/3/34 36/4/18 64/4/34
f 30/2/15 37/1/19 28/1/15
f 37/1/19 30/2/15 39/2/19
f 59/1/30 8/2/4 57/2/30
f 8/2/4 59/1/30 6/1/4
f 54/2/28 60/1/31 55/1/28
f 60/1/31 54/2/28 61/2/31
f 32/2/16 23/1/12 31/1/16
f 23/1/12 32/2/16 25/2/12
f 89/6/13 70/5/21 71/5/13
f 70/5/21 89/6/13 90/6/21
f 91/6/12 71/5/13 72/5/12
f 71/5/13 91/6/12 89/6/13
f 93/6/27 67/5/20 92/6/20
f 67/5/20 93/6/27 69/5/27
f 94/6/3 82/5/4 80/5/3
f 82/5/4 94/6/3 95/6/4
f 97/5/10 96/6/9 87/5/9
f 96/6/9 97/5/10 98/6/10
f 99/6/14 66/5/15 68/5/14
f 66/5/15 99/6/14 100/6/15
f 84/5/30 95/6/4 101/6/30
f 95/6/4 84/5/30 82/5/4
f 86/5/29 98/6/10 97/5/10
f 98/6/10 86/5/29 102/6/29
f 104/6/2 103/5/16 74/5/2
f 103/5/16 104/6/2 105/6/16
f 86/5/29 101/6/30 102/6/29
f 101/6/30 86/5/29 84/5/30
f 92/6/20 107/5/19 106/6/19
f 107/5/19 92/6/20 67/5/20
f 109/6/25 108/5/7 77/5/25
f 108/5/7 109/6/25 110/6/7
f 110/6/7 79/5/8 108/5/7
f 79/5/8 110/6/7 111/6/8
f 112/6/1 74/5/2 81/5/1
f 74/5/2 112/6/1 104/6/2
f 113/6/28 76/5/31 75/5/28
f 76/5/31 113/6/28 114/6/31
f 113/6/28 69/5/27 93/6/27
f 69/5/27 113/6/28 75/5/28
f 105/6/16 72/5/12 103/5/16
f 72/5/12 105/6/16 91/6/12
f 90/6/21 68/5/14 70/5/21
f 68/5/14 90/6/21 99/6/14
f 100/6/15 107/5/19 66/5/15
f 107/5/19 100/6/15 106/6/19
f 111/6/8 80/5/3 79/5/8
f 80/5/3 111/6/8 94/6/3
f 85/5/11 115/6/33 83/5/33
f 115/6/33 85/5/11 116/6/11
f 115/6/33 81/5/1 83/5/33
f 81/5/1 115/6/33 112/6/1
f 87/5/9 116/6/11 85/5/11
f 116/6/11 87/5/9 96/6/9
f 114/6/31 77/5/25 76/5/31
f 77/5/25 114/6/31 109/6/25

