/* XPM */
static const char *icon_om[]={
"22 22 278 2",
"Qt c None",
".Z c #3e629e",
".u c #6485ba",
".h c #c0cde2",
".J c #b3c3dc",
"ch c #1a2536",
"bT c #1c2637",
"bv c #222c3c",
"cr c #192334",
"b6 c #233654",
"bG c #2f4c7b",
"bk c #3c619d",
"ci c #182436",
"aG c #587bb4",
"cs c #151f31",
"aa c #6a89bc",
"at c #5b7cb5",
".g c #7f9ac5",
".# c #b7c6de",
"ct c #101a2c",
"#A c #213d6a",
".t c #5a7db4",
"#b c #2b5191",
"#l c #90a6cc",
".i c #b9c8df",
".0 c #a8bad8",
"bj c #0c1729",
"bF c #0d182a",
"a8 c #2e579a",
"bw c #24467c",
"cg c #0d182a",
"cq c #0d1829",
".I c #4a6fad",
"b7 c #142644",
"cj c #0d192b",
".Y c #2f5a9d",
".v c #b7c6de",
".K c #b1c1db",
".f c #859fc8",
".a c #b3c3dd",
"bS c #0c1729",
"b5 c #0c1728",
"bH c #1f3b6a",
"bU c #193056",
"#R c #1b3661",
"#B c #86a0c7",
"a7 c #0c1729",
"aR c #3761a4",
"cp c #0b1628",
"ck c #0c172a",
".e c #91a7cd",
".b c #abbcd8",
"a# c #183057",
"aQ c #0e1d34",
".d c #99aed1",
".c c #a3b6d5",
"#S c #7794c1",
"as c #162b4d",
"aF c #122340",
".s c #6786ba",
".j c #b6c5dd",
"#k c #254882",
"aH c #4970ad",
"#c c #9cb0d2",
"co c #0c1629",
"cl c #0c182b",
"ab c #6989bb",
"bu c #0b1729",
"au c #577ab3",
"bl c #274d8a",
"cf c #0b1628",
"b8 c #12233f",
"cn c #0c172a",
"cm c #0c182a",
".H c #5075b0",
"#a c #2a5496",
".w c #b2c2db",
".1 c #a5b8d6",
".X c #3962a5",
"bE c #0c172a",
".L c #aabcd8",
".r c #728fbf",
"b4 c #0c172a",
".k c #adbeda",
"bx c #23447b",
"bV c #182f54",
"#z c #22447a",
"#m c #8da5cb",
"bR c #0c182c",
"bI c #1e3c6a",
"bi c #0e1b31",
"a9 c #2d579a",
"ce c #0c182c",
"b9 c #122542",
".q c #7894c2",
".l c #a1b4d4",
"#Q c #214174",
"a6 c #132542",
"#C c #7c97c3",
"cd c #0f1d35",
"#j c #295090",
"aS c #3861a4",
".G c #5b7db4",
".p c #7e99c4",
".m c #93a9cd",
".x c #a3b6d5",
"c. c #152849",
"a. c #203f71",
"#d c #90a7cd",
"b3 c #0f1e37",
"bt c #10213b",
"cc c #132543",
"bQ c #132645",
"bD c #132746",
"cb c #152a4b",
"c# c #162b4f",
"ca c #162c50",
"b2 c #172e54",
"aP c #183056",
"bh c #1a325a",
"bW c #1b355f",
"aE c #1c3762",
"ar c #1f3d6c",
"bX c #1f3f70",
"bP c #203f70",
"bs c #203f71",
"a5 c #204074",
"bJ c #224378",
"bC c #224379",
"bY c #23467d",
"b1 c #25477f",
"aO c #254a85",
"by c #264b86",
"b0 c #274b87",
"bZ c #274d89",
"bK c #274d8a",
"aD c #284f8c",
"bO c #284f8e",
"#y c #294f8f",
"#P c #295090",
"aq c #295190",
"#9 c #295191",
"bz c #2a5395",
"br c #2a5496",
"bL c #2b5597",
"bm c #2c5699",
"bA c #2d579d",
"bM c #2d589d",
"bn c #2d589e",
"#x c #2d589f",
"#O c #2d599f",
"b. c #2e599e",
"bN c #2e599f",
"bB c #2e59a0",
"bq c #2e5a9f",
"bo c #2e5aa0",
".6 c #2e5aa1",
".7 c #2e5ba1",
"bg c #2f5592",
"#i c #2f5a9f",
"#8 c #2f5aa0",
".8 c #2f5aa1",
"bp c #2f5ba1",
"#h c #2f5ba2",
"#g c #305ba1",
".R c #305ca2",
".S c #315ca2",
".5 c #315da2",
"## c #325da1",
".Q c #325da2",
".9 c #335ea3",
"be c #345ea3",
"#t c #345fa3",
"ap c #355fa3",
"ba c #3560a4",
".T c #3660a4",
"#. c #3862a5",
"bc c #3963a6",
"#u c #3a63a6",
".P c #3b64a6",
"af c #3d65a7",
".U c #3d66a7",
"#f c #3e66a8",
".4 c #4068a8",
"aw c #4269a9",
".W c #456cab",
".V c #456dab",
"#w c #466cab",
"aC c #466daa",
"bd c #466dab",
"aI c #466dac",
"bf c #476dab",
"bb c #476dac",
"ac c #476eac",
"#p c #486eac",
"#o c #486fac",
"#s c #4a70ad",
"b# c #4b71ae",
".O c #4c72ae",
"#U c #4d73ae",
"ae c #4e73af",
"#N c #4e74af",
"#q c #5074b0",
"#r c #5075b0",
"av c #5175b0",
"#v c #5176b1",
".C c #5276b0",
".D c #5478b2",
".B c #5579b2",
"a1 c #597cb4",
".E c #5a7cb4",
"#D c #5b7db5",
".F c #5e7fb5",
".A c #5e7fb6",
"aN c #6182b5",
".3 c #6182b8",
"a4 c #6381b3",
"a2 c #6384b8",
"#e c #6485b9",
"#T c #6a89bc",
".N c #6d8bbd",
"aK c #6d8cbd",
"aT c #6e8cbd",
".z c #718fbf",
"#n c #7390bf",
"#E c #7592c1",
"az c #7793c1",
"aY c #7994c2",
"#7 c #809ac5",
"#K c #809ac6",
".o c #819cc6",
".n c #89a1c9",
".y c #89a2ca",
"#J c #8aa2ca",
"aX c #8ba3ca",
".2 c #8da5cb",
"aZ c #91a7cd",
".M c #93aace",
"am c #9aafd1",
"aL c #9eb3d3",
"ao c #a7b9d6",
"#1 c #a8bad8",
"ai c #acbdd9",
"ag c #b2c1db",
"#Y c #b7c6de",
"ay c #b9c8e0",
"ak c #bbc9e0",
"#V c #bdcae1",
"#X c #becbe1",
"a0 c #c3d0e3",
"#M c #c4d0e4",
"ad c #c4d1e4",
"aA c #c9d4e6",
"a3 c #cdd8e8",
"#F c #cfd9e8",
"aU c #d0d9e9",
"aB c #d3dceb",
"#0 c #d6dfed",
"#I c #d7dfec",
"aW c #d8e0ec",
"ah c #dbe2ee",
"#G c #dde4ef",
"aV c #dee4ef",
"#H c #dee5f0",
"#5 c #dfe5ef",
"#L c #dfe6f0",
"aJ c #e2e8f1",
"#Z c #e2e8f2",
"#3 c #e3e9f2",
"an c #e9ecf3",
"al c #e9edf5",
"ax c #eaeff5",
"aj c #ebeff5",
"aM c #eef1f7",
"#6 c #f0f2f7",
"#W c #f0f3f8",
"#4 c #f6f8fa",
"#2 c #f6f8fb",
"QtQtQtQtQtQtQtQtQtQtQtQtQtQtQtQtQtQtQtQtQtQt",
"QtQtQtQtQtQtQt.#.a.b.c.d.e.f.gQtQtQtQtQtQtQt",
"QtQtQtQt.h.i.j.k.l.m.n.o.p.q.r.s.t.uQtQtQtQt",
"QtQtQtQt.v.w.x.y.z.A.B.C.D.E.F.G.H.IQtQtQtQt",
"QtQt.J.K.L.M.N.O.P.Q.R.R.S.T.U.V.W.X.Y.ZQtQt",
"QtQt.0.1.2.3.4.5.6.6.6.7.6.6.8.9#.###a#bQtQt",
"QtQt#c#d#e#f#g.6.6#h#h.6.6.6.6.6#g#i#j#kQtQt",
"Qt#l#m#n#o#p#q#r#s#t#u#r#v#v#v#w.R#x#y#z#AQt",
"Qt#B#C#D#E#F#G#H#I#J#K#L#L#L#L#M#N#O#P#Q#RQt",
"Qt#S#T#U#V#W#X#Y#Z#0#1#2#3#4#5#6#7#8#9a.a#Qt",
"aaab.Aacad#IaeafagahaiajakalamanaoapaqarasQt",
"atauavaw#M#IaeafagahaiaxayalazaAaBaCaDaEaFQt",
"aGaHaIafak#W#X#YaJ#0#1axayalaKaLaMaNaOaPaQQt",
"QtaRaSapaTaUaV#HaWaXaY#MaZa0a1a2a3a4a5a6a7Qt",
"Qta8a9b..S.W#r#vb#apbabbbcbd.9bebfbgbhbibjQt",
"Qtbkbl#Pbmbnbo.6.8#h#h.8#h.8bpbqbrbsbtbubvQt",
"QtQtbwbxbybzbAbB.7#h#h#h#hbo#ObrbCbDbEbFQtQt",
"QtQtbGbHbIbJbKbLbMbN.8#8bNbmbObPbQbRbSbTQtQt",
"QtQtQtQtbUbVbWbXbYbybZb0b1arb2b3b4b5QtQtQtQt",
"QtQtQtQtb6b7b8b9c.c#cacbcccdcecfcgchQtQtQtQt",
"QtQtQtQtQtQtcicjckclcmcncocpcqcrQtQtQtQtQtQt",
"QtQtQtQtQtQtQtQtQtcsctctcsQtQtQtQtQtQtQtQtQt"};
