<svg width="24" height="24" xmlns="http://www.w3.org/2000/svg" xmlns:xlink="http://www.w3.org/1999/xlink"><defs><linearGradient id="a" x1="97.4" x2="90.2" y1="35.2" y2="35.1" gradientTransform="matrix(-.554 .615 .344 .311 55.9 -52.8)" gradientUnits="userSpaceOnUse"><stop stop-color="#f8e27e" offset="0"/><stop stop-color="#e3d189" offset="1"/></linearGradient><linearGradient id="b" x1="305" x2="335" y1="64.3" y2="81.9" gradientTransform="matrix(.0448 .854 .85 -.0445 -57.1 -251)" gradientUnits="userSpaceOnUse"><stop stop-color="#d3d7cf" offset="0"/><stop stop-color="#babdb6" offset=".183"/><stop stop-color="#fff" offset=".319"/><stop stop-color="#babdb6" offset=".876"/><stop stop-color="#eeeeec" offset="1"/></linearGradient></defs><path d="m.516 7.19c-.196-.806.561-.344.834-.147 1.1.534 2.19 1.1 3.29 1.62.733.121 1.3-.537 1.68-1.07.527-.851 1-1.91.701-2.93-.187-.507-.774-.605-1.19-.857-1.02-.507-2.05-1.01-3.06-1.52-.0424-.519.803-.564 1.21-.658 1.72-.272 3.68-.0409 4.97 1.23 1.06 1.03 1.53 2.59 1.35 4.04.465 1.25 1.16 2.43 2.16 3.32l-2.62 2.74c-.871-.798-1.89-1.44-3.01-1.82-1.48.49-3.16.123-4.29-.925-.889-.799-1.62-1.89-2.02-3.02z" fill="url(#b)" fill-rule="evenodd" stroke="#404040"/><path d="m.827 7.18c.006.016.026.005.026-.004l3.53 1.74c.475.235 1.01.02 1.45-.317.442-.34.86-.852 1.17-1.51.313-.656.444-1.33.434-1.9-.01-.56-.197-1.08-.655-1.3l-3.55-1.74c-.002-.012 0-.03-.002-.028-.017.02.015.008.027-.004 1.5-.434 3.27-.343 4.46.248 1.63.81 2.49 2.63 2.26 4.49-.23 1.85-1.74 3.5-3.23 3.97-.966.3-2.02.25-2.97-.22-1.19-.588-2.35-1.96-2.95-3.43z" fill="#f0f3f2" fill-rule="evenodd"/><path d="m12.2 9.64 11 8.96c.668.604.331 2.04-.745 3.23-1.07 1.19-2.47 1.68-3.13 1.08l-10-10 2.91-3.23zm7.46 10c-.533.594-.508 1.5-.127 1.84.377.343 1.3.247 1.83-.346.533-.594.481-1.47.103-1.81-.379-.342-1.28-.276-1.81.319z" fill="url(#a)" stroke="#404040" stroke-linejoin="round"/><path d="m10 12.8 2.46-2.42.437.348-2.46 2.42z" fill="#fff" stroke="#404040"/></svg>
