<svg width="24" height="24" xmlns="http://www.w3.org/2000/svg"><path d="m20.6 5.4c-.301.126-.596.273-.902.385-.293.0689-.573-.0975-.753-.326-.328-.344-.677-.669-.993-1.02-.166-.237-.147-.549-.0209-.797.103-.289.245-.565.314-.865.0618-.395-.21-.781-.576-.885-1.07-.442-2.13-.894-3.2-1.33-.4-.133-.851.142-.96.555-.114.278-.21.566-.338.838-.16.263-.472.348-.755.319-.467-.00286-.937.0236-1.4.00332-.28-.0464-.48-.281-.561-.549-.126-.281-.214-.582-.374-.845-.228-.322-.682-.394-1.01-.201-1.06.467-2.12.923-3.17 1.4-.373.199-.502.721-.297 1.09.11.281.239.554.335.84.0668.302-.0944.591-.315.777-.333.339-.648.699-.991 1.02-.229.172-.532.152-.772.0216-.28-.106-.547-.253-.837-.324-.382-.0638-.756.217-.857.595-.429 1.1-.867 2.2-1.29 3.31-.127.413.139.877.538.989.27.118.548.217.812.349.254.165.337.487.309.78-.00277.483.0227.967.00308 1.45-.045.289-.272.495-.532.579-.329.148-.7.262-.905.593-.177.233-.259.568-.107.836.452 1.09.894 2.19 1.35 3.28.193.385.699.519 1.06.307.272-.114.537-.247.813-.346.293-.0691.572.0976.752.326.328.344.677.669.993 1.02.166.237.147.549.021.798-.103.29-.247.568-.314.87-.0596.394.212.776.577.88 1.07.442 2.13.894 3.2 1.33.4.133.851-.142.96-.555.114-.278.21-.566.338-.838.16-.263.472-.348.755-.319.467.0028.937-.0235 1.4-.0032.28.0465.48.281.561.55.126.281.214.582.373.844.227.322.682.394 1.01.201 1.06-.467 2.12-.923 3.17-1.4.373-.199.502-.721.297-1.09-.11-.281-.239-.554-.335-.84-.0668-.302.0945-.591.316-.777.333-.339.648-.699.991-1.02.229-.172.532-.152.772-.0216.28.106.547.253.837.324.382.0638.756-.217.856-.595.428-1.1.866-2.2 1.29-3.3.129-.413-.137-.879-.537-.992-.27-.118-.548-.217-.812-.349-.254-.165-.337-.487-.308-.78.0028-.483-.0226-.967-.0031-1.45.0449-.289.272-.496.532-.579.272-.13.564-.221.818-.385.312-.235.382-.704.195-1.04-.452-1.09-.894-2.19-1.35-3.28-.178-.35-.62-.506-.969-.346z" fill="#ccc" stroke="#262626" stroke-linecap="round" stroke-linejoin="round"/><path d="m18.5 11.1a6.56 6.62 45.5 1 1 -13.1 1.89 6.56 6.62 45.5 1 1 13.1 -1.89z" fill="#6d97c4" stroke="#000" stroke-linecap="round" stroke-linejoin="round"/><path d="m13.4 15.3c-1.8.765-3.88-.0764-4.65-1.88-.763-1.8.0809-3.89 1.88-4.65 1.8-.765 3.88.0764 4.65 1.88.763 1.8-.081 3.89-1.88 4.65z" fill="#fff" stroke="#262626" stroke-linecap="round" stroke-linejoin="round"/></svg>
