<svg width="16" height="16" xmlns="http://www.w3.org/2000/svg"><path d="m9.45.709c-.281.0276-.439.308-.505.554-.075.207-.155.48-.404.529-.365.0558-.735.00547-1.1.0356-.272-.0283-.434-.291-.494-.534-.084-.228-.204-.512-.477-.55-.325-.0399-.591.193-.886.284-.541.234-1.09.444-1.62.704-.241.183-.224.552-.069.785.0856.213.245.452.127.684-.219.311-.529.541-.773.83-.211.173-.512.103-.726-.0261-.22-.102-.505-.217-.725-.0517-.26.201-.283.555-.428.829-.217.548-.457 1.09-.648 1.65-.0423.299.229.55.503.604.211.0902.494.146.574.394.0624.379.0112.765.0396 1.15-.038.259-.283.43-.525.476-.28.106-.557.353-.549.675.144.459.375.885.546 1.33.148.346.277.706.471 1.03.196.199.528.173.747.0283.212-.0873.451-.246.683-.129.311.219.541.53.83.775.172.212.103.514-.0268.728-.103.22-.219.506-.0523.726.202.258.554.282.827.426.547.217 1.09.458 1.64.65.3.0422.55-.23.604-.505.089-.211.146-.493.393-.573.376-.0643.759-.0116 1.14-.0394.257.0237.42.264.479.495.0825.232.189.519.459.581.303.0653.56-.154.833-.242.568-.247 1.15-.467 1.7-.74.241-.183.224-.552.069-.785-.0856-.213-.245-.452-.127-.684.221-.312.531-.545.778-.834.208-.159.498-.105.706.0239.219.0985.492.222.718.0738.273-.187.296-.545.439-.818.22-.557.464-1.1.659-1.67.0429-.299-.228-.552-.503-.606-.211-.0902-.493-.146-.574-.393-.0631-.378-.0102-.763-.0401-1.14.0346-.26.278-.426.516-.483.225-.0855.506-.191.561-.457.0589-.325-.177-.594-.268-.887-.244-.555-.452-1.13-.729-1.67-.187-.226-.54-.206-.768-.056-.211.0909-.45.247-.682.132-.313-.218-.542-.531-.832-.775-.171-.211-.104-.511.0249-.725.102-.217.22-.494.0626-.715-.189-.264-.54-.287-.809-.429-.546-.219-1.09-.451-1.64-.655-.0492-.00981-.1-.0112-.15-.00471zm-1.45 4.21c1.36-.0263 2.7.927 3.06 2.25.355 1.2-.129 2.58-1.15 3.3-1.01.748-2.47.831-3.55.179-.995-.579-1.64-1.74-1.52-2.9.103-1.19.953-2.27 2.09-2.65.343-.121.707-.184 1.07-.184z" fill="#95b3d7" stroke="#477bbe" stroke-linecap="round" stroke-linejoin="round"/></svg>
