<svg width="24" height="24" xmlns="http://www.w3.org/2000/svg"><path d="m3.38 0-3.38 3.3v16.7h16l4.04-4.1v-15.9z" fill="#41cd52" style="paint-order:stroke markers fill"/><g transform="matrix(.916 0 0 .916 -1.01 -1.07)" fill="#fff"><path d="m17.5 5.54h2.18v2.46h2.95l-.0636 1.91h-2.89v5.09c0 1.1.23 1.55 1.16 1.54l1.69-.0625.107 1.77-1.22.188c-.981.23-1.98.201-2.68-.243-.949-.597-1.13-1.19-1.19-2.43-.0166-.315-.0488-5.86-.0488-5.86l-1.55.00526-.00149-1.91h1.55z"/><path d="m4.3 5.34c-1.54 1.52-1.73 3.59-1.83 4.66s-.103 3.32.289 5 1.24 2.89 3 3.46 3.7.199 3.7.199l1.85 3.05 2.13-1.02-1.69-2.75c1.2-.845 1.83-2.39 2-3.5.34-2.21.234-4.59-.0938-5.99-.18-.938-.672-2.54-2.02-3.45-1.35-.914-3.41-.832-3.41-.832-1.51-.0145-3.08.379-3.93 1.18zm3.9.803s2.22-.134 2.88 2.01c.663 2.14.354 5.06.354 5.06s.0082 2.99-2.04 3.41c-2.01.412-2.8-.0924-3.13-.287-.823-.488-1.15-1.37-1.31-2.55-.166-1.18-.409-3.15.0215-4.96.431-1.81 1.05-2.61 3.23-2.68z"/></g><path d="m8.62 18.3c-.886.442-1.41 1.3-1.38 2.29.0297 1.18.588 1.92 1.32 2.22.859.348 1.63.109 2.44-.0841v1.04c-.529.163-1.05.208-1.58.213-1.27.0117-2.63-.333-3.22-1.96-.22-.602-.3-1.89.0148-2.76.612-1.68 1.79-2.11 3.25-2.15.497-.0134 1.06.116 1.53.218v1.03c-.796-.285-1.9-.3-2.38-.0594z"/><path d="m14.7 20.8c-.159-.56-.559-.882-1.11-.886-.586-.0045-.978.431-1.1.886-.132.475-.125.926 0 1.35.135.455.519.886 1.11.886.668 0 1.04-.537 1.1-.886.126-.652.122-.914 0-1.35zm1.13 1.7c-.31 1.12-1.34 1.49-2.24 1.49-.9.0014-1.98-.633-2.25-1.49-.16-.499-.244-1.42.0049-2.06.486-1.25 1.34-1.49 2.24-1.49.899-.000914 1.96.565 2.25 1.49.202.656.18 1.41 4.9e-5 2.06z"/><path d="m19.9 20c-.851.000629-1.85.433-1.85 1v3h-1v-5h.97l.109.737c.497-.608.921-.737 1.77-.737z"/><path d="m23.8 22.8v.935c-.499.22-1.01.289-1.53.277-1.6.0117-2.3-.988-2.3-2.44.0307-1.51.704-2.59 2.07-2.55 1.72.0498 1.94 1.54 1.92 3h-2.9c.12 1.29 1.6 1.1 2.74.776zm-1.77-2.91c-.579-.0154-.958.406-.959 1.13h1.89c-.0231-.78-.408-1.12-.936-1.13z"/></svg>
