<svg width="24" height="24" xmlns="http://www.w3.org/2000/svg"><path d="m12.3 7.37c-2.54 0-2.38 1.11-2.38 1.11l.0038.892h2.42v.501h-3.38s-1.63-.0869-1.63 2.49c0 2.58 1.42 2.48 1.42 2.48h.847v-1.19s-.0454-1.43 1.4-1.43h2.4s1.35.0227 1.35-1.31v-2.21c-2.2e-5 0 .206-1.33-2.45-1.33zm-1.34.769c.242 0 .435.197.435.438a.437 .437 0 1 1 -.869 0c0-.242.195-.438.435-.438z" fill="#366c99" overflow="visible"/><path d="m12.3 17.4c2.54 0 2.38-1.11 2.38-1.11l-.0038-1.15h-2.42v-.346h3.38s1.63.185 1.63-2.39c0-2.58-1.42-2.48-1.42-2.48h-.847v1.19s.0454 1.43-1.4 1.43h-2.4s-1.35-.0208-1.35 1.31v2.21s-.206 1.33 2.45 1.33zm1.34-.769a.437 .437 0 0 1 -.435 -.438 .437 .437 0 1 1 .869 0 .437 .437 0 0 1 -.435 .438z" fill="#ffcb3a" overflow="visible" stroke-width="3.78"/><path d="m22.9 15.4c-1.37 5.1-5.53 8.05-10.7 8.12-7.55 0-11-5.38-11.1-11.5 0-5.69 4.68-11.3 11.2-11.4 5.32.139 8.95 3.08 10.3 7.13l-4.83.772c-.741-3.42-3.31-4.23-5.63-4.23-3.69 0-6.75 3.51-6.78 7.3 0 6.34 3.95 8.16 6.9 8.16 3.06 0 5.3-1.99 6.01-5.06z" fill="#8fb4cf" stroke="#0069c9" stroke-opacity=".984" stroke-width=".839"/></svg>
