<svg width="24" height="24" version="1.1" xmlns="http://www.w3.org/2000/svg"><circle cx="12" cy="12" r="11" fill="#6d97c4"/><g fill="#fff" aria-label="?"><path d="m17 8.56c.0457 1.53-.706 3.13-2.09 3.87-.685.396-1.46.616-2.24.719-.0397.747-.0794 1.49-.119 2.24h-2.49c-.0715-1.49-.143-2.99-.214-4.48.881-.0378 1.79.0998 2.65-.131.799-.258 1.32-1.07 1.3-1.9.0294-.992-.639-1.91-1.54-2.28-1.06-.507-2.26-.512-3.41-.5v-2.7c1.8-.0444 3.67.104 5.29.945 1.43.704 2.62 2.04 2.82 3.66.0257.188.0385.378.0383.569z" fill="#fff"/></g><circle cx="11.3" cy="18.6" r="1.67" fill="#fff"/></svg>
