<svg width="24" height="24" xmlns="http://www.w3.org/2000/svg"><path d="m3.38 0-3.38 3.3v16.7h16l4.04-4.1v-15.9z" fill="#41cd52" style="paint-order:stroke markers fill"/><g transform="matrix(.916 0 0 .916 -1.01 -1.07)" fill="#fff"><path d="m17.5 5.54h2.18v2.46h2.95l-.0636 1.91h-2.89v5.09c0 1.1.23 1.55 1.16 1.54l1.69-.0625.107 1.77-1.22.188c-.981.23-1.98.201-2.68-.243-.949-.597-1.13-1.19-1.19-2.43-.0166-.315-.0488-5.86-.0488-5.86l-1.55.00526-.00149-1.91h1.55z"/><path d="m4.3 5.34c-1.54 1.52-1.73 3.59-1.83 4.66s-.103 3.32.289 5 1.24 2.89 3 3.46 3.7.199 3.7.199l1.85 3.05 2.13-1.02-1.69-2.75c1.2-.845 1.83-2.39 2-3.5.34-2.21.234-4.59-.0938-5.99-.18-.938-.672-2.54-2.02-3.45-1.35-.914-3.41-.832-3.41-.832-1.51-.0145-3.08.379-3.93 1.18zm3.9.803s2.22-.134 2.88 2.01c.663 2.14.354 5.06.354 5.06s.0082 2.99-2.04 3.41c-2.01.412-2.8-.0924-3.13-.287-.823-.488-1.15-1.37-1.31-2.55-.166-1.18-.409-3.15.0215-4.96.431-1.81 1.05-2.61 3.23-2.68z"/></g><path d="m14.9 21h-1.39v-1h2.52v3.66c-.624.245-1.29.293-1.94.336-.554 0-1.04-.0814-1.46-.244-.413-.166-.758-.399-1.03-.697-.274-.299-.48-.653-.619-1.06-.135-.414-.203-.871-.203-1.37 0-.353.0354-.689.106-1.01.0739-.322.18-.619.319-.891.142-.275.313-.523.513-.743.2-.221.428-.409.684-.565.259-.156.54-.275.845-.356.308-.0848.637-.127.988-.127.311 0 .607.0254.887.0764.28.0475.51.107.688.178v1.06c-.824-.328-1.58-.367-2.41-.0916-.662.249-1.02.724-1.27 1.28-.408 1.05-.101 2.32.388 2.91.395.416.933.601 1.61.601.274-2.8e-5.513-.0531.767-.0814z"/><path d="m19 24c-.444 0-.758 0-1.11-.241-.673-.472-.809-1.01-.895-1.73v-3.03h1.01v2.9c-.0119.744.259 1.13.988 1.14.819 7.4e-5 1-.552.996-1.12v-2.93h1v3.03c.0245.847-.235 1.28-.854 1.7-.362.225-.734.27-1.15.27z"/><path d="m22 19h.999v5h-.999zm0-2h1v1h-1z"/></svg>
