<svg height="24" width="24" xmlns="http://www.w3.org/2000/svg"><g stroke="#505050"><path d="m2.52 9.41a6.89 6.89 0 0 0 6.89 6.89 6.89 6.89 0 0 0 6.89-6.89 6.89 6.89 0 0 0 -6.89-6.89 6.89 6.89 0 0 0 -6.89 6.89z" style="fill:#e6e6e6;opacity:.8;stroke-dashoffset:7;stroke-linecap:round;stroke-linejoin:round;stroke-width:1.04"/><path d="m15.4 13.7c0 1.72-1.72 1.72-1.72 1.72l6.03 6.03 1.72-1.72z" fill="#ffcc30" fill-rule="evenodd" stroke-linejoin="round" stroke-width="1.04"/><path d="m16.7 15-1.72-1.72-1.72 1.72 1.72 1.72z" fill-rule="evenodd" stroke-linejoin="round" stroke-width="1.04"/></g><path d="m13.3 5.54c-1.72-2.58-3.83-2.93-5.17-1.72-1.34 1.2 1.72.862 3.45 2.58 1.72 1.72 0 5.17 1.72 5.17s1.72-3.45 0-6.03z" fill="#fcffff" fill-rule="evenodd" opacity=".7"/><path d="m20.2 19.3-3.45-3.45" opacity=".5" stroke="#fcffff" stroke-linecap="round" stroke-linejoin="round" stroke-width="1.04"/></svg>