<svg width="24" height="24" xmlns="http://www.w3.org/2000/svg"><path d="m3.5 22.5v-21h10l5 5v16z" fill="#fff" fill-rule="evenodd" stroke="#979797" stroke-linejoin="round"/><path d="m13.5 1.5v5h5z" fill="#f0f0f0" fill-rule="evenodd" stroke="#979797" stroke-linejoin="round"/><rect x="5" y="6" width="6" height="2" rx="0" ry="0" fill="#979797"/><rect x="5" y="10" width="12" height="2" rx="0" ry="0" fill="#979797"/><rect x="5" y="14" width="12" height="2" rx="0" ry="0" fill="#979797"/><rect x="5" y="18" width="12" height="2" rx="0" ry="0" fill="#979797"/><g stroke-dashoffset=".5" stroke-linejoin="round"><path d="m13.9 18.9 3.4 1.96-4.06 2.94z" fill="#505050" overflow="visible" stroke="#505050" stroke-linecap="round" stroke-width=".49"/><path d="m19.5 9.21 3.4 1.96-5.56 9.63-3.4-1.96 5.56-9.63" fill="#de6b37" overflow="visible" stroke="#c04317" stroke-linecap="round" stroke-width=".49"/><path d="m20.5 10.7-5.16 8.94" fill="none" opacity=".5" overflow="visible" stroke="#f8b008" stroke-width="1.38"/><path d="m21.7 11.3-5.33 9.12" fill-opacity=".588" opacity=".25" overflow="visible" stroke="#632923" stroke-width="1.41"/><path d="m21.4 11.1-5.23 9.06" fill="#fc894f" opacity=".5" stroke="#a7481e" stroke-linecap="round" stroke-width=".49"/><path d="m14.1 22.9 2.75-2.15-1.13-.653z" fill="#969696" overflow="visible" stroke="#969696" stroke-linecap="square" stroke-width=".327"/><path d="m20 10.3-5.23 9.06" fill="#db562d" opacity=".5" stroke="#9b3819" stroke-linecap="round" stroke-width=".49"/><path d="m19.7 8.5 3.66 2.11-.712 1.23-3.66-2.11z" fill="#e6e6e6" overflow="visible" stroke="#969696" stroke-linecap="round" stroke-width=".327"/><path d="m13.6 22.8.537-3.54 1.13.653z" fill="#e6e6e6" overflow="visible" stroke="#e6e6e6" stroke-linecap="square" stroke-width=".327"/></g></svg>
