<svg width="24" height="24" xmlns="http://www.w3.org/2000/svg"><path d="m7.5 2.5h14v19h-14z" fill="#6d97c4" stroke="#1e1e1e"/><path d="m2.5 2.5h5v19h-5z" fill="#2d3e4d" stroke="#1f1b1e"/><path d="m14.3 17.7c-.267-1e-6-.495-.091-.685-.273-.185-.187-.277-.408-.277-.664-4e-6-.261.0923-.482.277-.664.19-.182.418-.273.685-.273.267 1e-6.495.091.685.273.195.182.292.404.292.664-5e-6.251-.0949.47-.285.657-.19.187-.421.28-.692.28m.346-3.79v.583h-.631v-1.04c-5e-6-.384.0513-.709.154-.974.103-.266.31-.591.623-.974.0359-.0492.0897-.116.162-.199.728-.891 1.09-1.7 1.09-2.43-6e-6-.64-.151-1.12-.454-1.43-.297-.315-.749-.472-1.35-.472-.369 1.05e-5-.697.0837-.985.251-.287.167-.431.349-.431.546-3e-6.0591.118.192.354.399s.354.453.354.738c-3e-6.261-.0846.472-.254.635-.164.157-.385.236-.662.236-.303 7.8e-6-.546-.106-.731-.317-.185-.212-.277-.492-.277-.841-2e-6-.65.29-1.2.869-1.65.579-.448 1.31-.672 2.18-.672.882 1.12e-5 1.6.239 2.15.716.559.477.838 1.09.838 1.85-9e-6.925-.608 1.9-1.82 2.94-.154.128-.269.226-.346.295-.333.29-.556.566-.669.827-.113.256-.169.586-.169.989" fill="#fff"/></svg>
