<svg enable-background="new 0 0 580 580" height="580" viewBox="0 0 580 580" width="580" xmlns="http://www.w3.org/2000/svg">
<path d="m356.031 137.625c.211.52.508.917.844 1.219s.745.469 1.25.469c.336 0 .616-.043.813-.094s.321-.091.406-.125v-10.813c-.169-.134-.39-.231-.656-.281s-.494-.063-.719-.063c-.953 0-1.618.494-1.969 1.5s-.531 2.381-.531 4.125c0 .804.041 1.563.125 2.25s.226 1.293.437 1.813z" fill="param(fill)" fill-opacity="param(fill-opacity)" stroke="param(outline)" stroke-opacity="param(outline-opacity)" stroke-width="param(outline-width)"/>
<path d="m458.688 431.063v-372c0-15.328-13.047-28.375-28.375-28.375h-270.875c-15.328 0-28.344 13.047-28.344 28.375v372c .058 1.444 327.648.785 327.594 0zm-184.344-84.407h-8.375v-24.031c0-.436.018-1.041.031-1.813s.037-1.374.094-1.844c.364-2.716 1.318-4.793 2.875-6.219 1.556-1.426 3.723-2.156 6.5-2.156.562 0 1.182.041 1.813.125s1.224.207 1.813.375c1.01.302 1.896.771 2.625 1.375.729.604 1.094 1.485 1.094 2.625 0 .502-.194 1.176-.531 2.031s-.749 1.72-1.281 2.625c-.449-.302-1.018-.588-1.719-.906s-1.502-.5-2.344-.5c-.729 0-1.339.235-1.844.688s-.75 1.152-.75 2.125v1.219h6.219v7.5h-6.219v16.781zm-36.906-49.531c-1.739 0-3.095-.15-4.063-.469s-1.752-.664-2.313-1c-.729-.436-1.22-.887-1.5-1.406s-.438-1.086-.438-1.656c0-.872.181-1.725.531-2.563s.771-1.665 1.219-2.469c.336.368.722.712 1.156 1.031s.901.607 1.406.875 1.03.505 1.563.656 1.026.219 1.531.219c.729 0 1.254-.152 1.563-.438s.469-.626.469-1.063c0-.503-.225-.917-.688-1.219s-1.045-.578-1.719-.813-1.406-.511-2.219-.813-1.545-.699-2.219-1.219-1.256-1.208-1.719-2.063-.688-1.969-.688-3.344c0-1.34.242-2.525.719-3.531s1.107-1.815 1.906-2.469 1.712-1.15 2.75-1.469 2.131-.469 3.281-.469c2.3 0 4.32.412 6.031 1.25.757.369 1.384.824 1.875 1.344s.719 1.108.719 1.813c0 .603-.146 1.318-.469 2.156s-.742 1.666-1.219 2.438c-.842-.771-1.731-1.42-2.656-1.906-.925-.486-1.859-.719-2.813-.719-1.206 0-1.813.412-1.813 1.25 0 .536.239.965.688 1.25s1.014.518 1.688.719 1.402.436 2.188.688 1.514.622 2.188 1.125 1.239 1.191 1.688 2.063c.449.872.656 1.998.656 3.406 0 2.684-.791 4.845-2.375 6.438-1.583 1.595-3.876 2.377-6.904 2.377zm1.625 19.156v30.188c-1.149.436-2.196.656-3.094.656-1.29 0-2.285-.193-3-.563s-1.243-.865-1.594-1.469-.555-1.274-.625-2.063-.094-1.628-.094-2.5v-29.156c.336-.033.667-.09 1.031-.156.308-.067.652-.123 1.031-.156s.76-.063 1.125-.063c.674 0 1.307.068 1.938.219s1.211.427 1.688.813.862.938 1.156 1.625.438 1.553.438 2.625zm21.843-86.281c.448.285 1.014.549 1.688.75s1.402.404 2.188.656 1.514.653 2.188 1.156 1.239 1.191 1.688 2.063c.449.872.656 1.998.656 3.406 0 2.683-.791 4.813-2.375 6.406-1.585 1.593-3.877 2.406-6.906 2.406-1.739 0-3.095-.181-4.063-.5s-1.752-.633-2.313-.969c-.729-.436-1.22-.918-1.5-1.438s-.438-1.055-.438-1.625c0-.872.181-1.725.531-2.563s.771-1.665 1.219-2.469c.336.368.722.712 1.156 1.031s.901.607 1.406.875 1.03.474 1.563.625 1.026.219 1.531.219c.729 0 1.254-.121 1.563-.406s.469-.658.469-1.094c0-.503-.225-.917-.688-1.219s-1.045-.547-1.719-.781-1.406-.511-2.219-.813-1.545-.699-2.219-1.219-1.256-1.208-1.719-2.063-.688-1.969-.688-3.344c0-1.34.242-2.525.719-3.531s1.107-1.846 1.906-2.5 1.712-1.119 2.75-1.438 2.131-.5 3.281-.5c2.3 0 4.32.412 6.031 1.25.757.369 1.384.824 1.875 1.344.491.52.719 1.14.719 1.844 0 .603-.146 1.318-.469 2.156s-.742 1.635-1.219 2.406c-.842-.771-1.731-1.389-2.656-1.875-.925-.486-1.859-.719-2.813-.719-1.206 0-1.813.412-1.813 1.25.003.54.242.938.69 1.223zm-11.75 65.719v-23.438c.336-.034.698-.09 1.063-.156.308-.067.652-.123 1.031-.156s.76-.031 1.125-.031c.674 0 1.307.068 1.938.219s1.211.427 1.688.813.862.906 1.156 1.594.438 1.584.438 2.656v17.78c0 .738-.038 1.66-.094 2.75s-.179 2.065-.375 2.938c-.309 1.342-.792 2.47-1.438 3.375s-1.357 1.634-2.156 2.188-1.625.953-2.438 1.188-1.505.344-2.094.344c-1.206 0-2.095-.26-2.656-.813s-.929-1.364-1.125-2.438c-.084-.436-.146-.92-.188-1.406s-.1-1.131-.156-1.969c.898-.101 1.626-.292 2.188-.594s1.004-.718 1.313-1.188.513-1.005.625-1.625.155-1.293.155-2.031zm-.156-31.125c0-1.442.389-2.582 1.188-3.438s1.787-1.313 2.938-1.313c1.149 0 2.138.457 2.938 1.313s1.188 1.996 1.188 3.438-.388 2.568-1.188 3.406-1.788 1.25-2.938 1.25c-1.15 0-2.139-.412-2.938-1.25s-1.188-1.964-1.188-3.406zm3.25-48.063c-.337.855-.749 1.72-1.281 2.625-.449-.302-1.018-.588-1.719-.906s-1.502-.5-2.344-.5c-.729 0-1.339.235-1.844.688s-.75 1.183-.75 2.156v1.188h6.219v7.5h-6.219v16.813h-8.375v-24.063c0-.436.018-1.042.031-1.813s.037-1.374.094-1.844c.364-2.716 1.318-4.793 2.875-6.219 1.556-1.425 3.723-2.125 6.5-2.125.562 0 1.182.041 1.813.125s1.224.207 1.813.375c1.01.302 1.896.74 2.625 1.344.729.604 1.094 1.485 1.094 2.625-.001.502-.195 1.176-.532 2.031zm-13.219-73c-1.149.436-2.196.656-3.094.656-1.29 0-2.285-.193-3-.563s-1.243-.834-1.594-1.438-.555-1.306-.625-2.094-.125-1.628-.125-2.5v-29.156c.336-.034.698-.09 1.063-.156.308-.067.652-.123 1.031-.156s.76-.063 1.125-.063c.674 0 1.307.099 1.938.25s1.211.396 1.688.781.862.938 1.156 1.625.438 1.553.438 2.625v30.189zm3.375 185.219c.435-1.677 1.021-3.023 1.75-4.063s1.578-1.78 2.531-2.25 1.931-.719 2.969-.719c.673 0 1.28.082 1.813.25s.996.376 1.375.594.699.438.938.656.385.369.469.469v-12.313c.337-.033.699-.09 1.063-.156.309-.067.635-.123 1-.156s.729-.063 1.094-.063c.673 0 1.337.068 1.969.219s1.18.427 1.656.813.862.938 1.156 1.625.438 1.553.438 2.625v30.375h-6.313c-.421 0-.789-.109-1.125-.344s-.5-.729-.5-1.5c-.393.603-1.02 1.139-1.875 1.625s-1.929.719-3.219.719c-.954 0-1.887-.162-2.813-.531s-1.788-1.016-2.531-1.938-1.318-2.188-1.781-3.781-.719-3.585-.719-6c-.001-2.414.221-4.479.655-6.156zm19-38.187c-.743-1.761-1.125-4.057-1.125-6.906 0-2.113.303-3.958.906-5.5s1.408-2.807 2.375-3.813c.968-1.006 2.064-1.749 3.313-2.219 1.249-.47 2.488-.688 3.75-.688 1.711 0 3.169.303 4.375.906s2.194 1.4 2.938 2.406 1.289 2.19 1.625 3.531.5 2.743.5 4.219v.656c0 .285-.017.604-.031.906s-.018.576-.031.844-.034.46-.063.594h-11.25c.141 1.274.542 2.361 1.188 3.25s1.695 1.344 3.125 1.344c1.122 0 2.056-.223 2.813-.625.757-.402 1.524-.922 2.281-1.594.365.671.729 1.44 1.094 2.313.365.872.531 1.643.531 2.313 0 .57-.123 1.122-.375 1.625s-.699.968-1.344 1.438c-.617.436-1.448.823-2.5 1.125s-2.367.438-3.938.438c-1.149 0-2.369-.164-3.688-.5-1.318-.336-2.566-.996-3.688-1.969s-2.037-2.334-2.781-4.094zm10.375-50.625v-29.156c.336-.034.667-.09 1.031-.156.308-.067.652-.123 1.031-.156s.76-.063 1.125-.063c.674 0 1.307.099 1.938.25s1.211.396 1.688.781.862.938 1.156 1.625.438 1.553.438 2.625v30.188c-1.149.436-2.196.656-3.094.656-1.29 0-2.285-.193-3-.563-.715-.369-1.243-.834-1.594-1.438s-.555-1.306-.625-2.094-.094-1.627-.094-2.499zm-7.125 121.781c.799-.855 1.787-1.281 2.938-1.281 1.149 0 2.107.426 2.906 1.281s1.219 2.027 1.219 3.469-.419 2.568-1.219 3.406-1.757 1.25-2.906 1.25c-1.15 0-2.139-.412-2.938-1.25s-1.188-1.965-1.188-3.406.389-2.614 1.188-3.469zm54.469-133.219c-.141-.285-.324-.505-.563-.656s-.521-.263-.844-.313c-.322-.05-.667-.063-1.031-.063-.98 0-1.952.15-2.906.469s-2.01.829-3.188 1.5c-.533-.771-.921-1.543-1.188-2.281s-.405-1.288-.405-1.656c0-.503.126-.985.406-1.438s.85-.903 1.719-1.406c.758-.47 1.804-.857 3.094-1.125s2.591-.406 3.938-.406c3.281 0 5.646.77 7.063 2.313s2.125 3.991 2.125 7.344v9.813c0 .838.044 1.761.156 2.75s.272 1.856.469 2.594c-.393.134-.755.229-1.063.313-.309.084-.611.168-.906.219s-.584.077-.906.094-.701.031-1.094.031c-2.271 0-3.573-.77-3.938-2.313-.477.57-1.168 1.062-2.094 1.531s-2.098.719-3.5.719c-.869 0-1.7-.138-2.5-.406s-1.508-.694-2.125-1.281-1.104-1.357-1.469-2.313c-.364-.956-.563-2.125-.563-3.5 0-1.944.426-3.5 1.281-4.656s1.905-2.021 3.125-2.625 2.478-.989 3.781-1.156c1.304-.167 2.418-.25 3.344-.25v-.719c.001-.472-.077-.842-.218-1.127zm17.188-91.812c-.463-.302-1.015-.578-1.688-.813s-1.437-.511-2.25-.813-1.546-.699-2.219-1.219-1.225-1.208-1.688-2.063-.719-1.969-.719-3.344c0-1.34.242-2.525.719-3.531s1.107-1.815 1.906-2.469 1.743-1.15 2.781-1.469 2.131-.469 3.281-.469c2.3 0 4.289.412 6 1.25.757.369 1.384.824 1.875 1.344.491.52.75 1.108.75 1.813 0 .603-.178 1.318-.5 2.156s-.711 1.666-1.188 2.438c-.842-.771-1.731-1.42-2.656-1.906-.925-.486-1.859-.719-2.813-.719-1.206 0-1.813.412-1.813 1.25 0 .536.208.965.656 1.25s1.015.518 1.688.719 1.402.436 2.188.688 1.515.622 2.188 1.125 1.238 1.191 1.688 2.063c.449.872.688 1.998.688 3.406 0 2.683-.79 4.845-2.375 6.438s-3.908 2.375-6.938 2.375c-1.739 0-3.095-.15-4.063-.469s-1.721-.665-2.281-1c-.729-.436-1.251-.918-1.531-1.438s-.406-1.055-.406-1.625c0-.872.181-1.725.531-2.563s.739-1.665 1.188-2.469c.336.368.722.712 1.156 1.031s.901.607 1.406.875 1.029.474 1.563.625 1.058.25 1.563.25c.729 0 1.254-.152 1.563-.438s.469-.658.469-1.094c-.001-.501-.257-.884-.719-1.185zm24.593 143.625c.448.285 1.015.518 1.688.719s1.402.436 2.188.688 1.515.622 2.188 1.125 1.238 1.191 1.688 2.063c.449.872.656 1.998.656 3.406 0 2.684-.79 4.845-2.375 6.438s-3.877 2.375-6.906 2.375c-1.739 0-3.095-.15-4.063-.469s-1.752-.664-2.313-1c-.729-.436-1.22-.887-1.5-1.406s-.438-1.086-.438-1.656c0-.872.181-1.725.531-2.563s.771-1.665 1.219-2.469c.336.368.722.712 1.156 1.031s.901.607 1.406.875.998.505 1.531.656 1.058.219 1.563.219c.729 0 1.254-.152 1.563-.438s.469-.626.469-1.063c0-.503-.225-.917-.688-1.219s-1.046-.578-1.719-.813-1.405-.511-2.219-.813-1.577-.699-2.25-1.219-1.225-1.208-1.688-2.063-.688-1.969-.688-3.344c0-1.34.242-2.525.719-3.531s1.107-1.815 1.906-2.469 1.712-1.15 2.75-1.469 2.131-.469 3.281-.469c2.3 0 4.32.412 6.031 1.25.757.369 1.353.824 1.844 1.344s.75 1.108.75 1.813c0 .603-.146 1.318-.469 2.156s-.742 1.666-1.219 2.438c-.842-.771-1.731-1.42-2.656-1.906-.925-.486-1.859-.719-2.813-.719-1.206 0-1.813.412-1.813 1.25.003.538.242.966.69 1.252zm-2.156-63.782c-.337.855-.78 1.72-1.313 2.625-.448-.302-1.018-.588-1.719-.906s-1.471-.5-2.313-.5c-.729 0-1.339.235-1.844.688s-.75 1.183-.75 2.156v1.188h6.219v7.5h-6.219v16.813h-8.375v-24.063c0-.436-.014-1.042 0-1.813s.068-1.374.125-1.844c.364-2.716 1.318-4.793 2.875-6.219s3.724-2.125 6.5-2.125c.562 0 1.15.041 1.781.125s1.255.207 1.844.375c1.01.302 1.864.74 2.594 1.344s1.094 1.485 1.094 2.625c.001.502-.162 1.176-.499 2.031zm-38.094 112.563c-.141-.285-.324-.506-.563-.656s-.521-.263-.844-.313c-.322-.051-.667-.063-1.031-.063-.98 0-1.952.15-2.906.469s-2.01.828-3.188 1.5c-.533-.771-.952-1.543-1.219-2.281s-.406-1.288-.406-1.656c0-.504.157-.985.438-1.438s.85-.934 1.719-1.438c.758-.47 1.772-.826 3.063-1.094s2.622-.406 3.969-.406c3.281 0 5.614.77 7.031 2.313s2.125 3.99 2.125 7.344v9.813c0 .838.075 1.761.188 2.75s.272 1.855.469 2.594c-.393.134-.755.229-1.063.313-.309.084-.611.137-.906.188-.295.05-.615.108-.938.125s-.67 0-1.063 0c-2.271 0-3.573-.77-3.938-2.313-.477.57-1.199 1.093-2.125 1.563s-2.098.719-3.5.719c-.869 0-1.7-.139-2.5-.406s-1.508-.694-2.125-1.281-1.104-1.357-1.469-2.313-.531-2.125-.531-3.5c0-1.944.426-3.5 1.281-4.656s1.874-2.021 3.094-2.625 2.509-.989 3.813-1.156c1.304-.168 2.418-.25 3.344-.25v-.719c0-.472-.078-.842-.219-1.127zm3.532-32.719v-24.031c0-.436.018-1.042.031-1.813s.037-1.405.094-1.875c.364-2.716 1.318-4.793 2.875-6.219s3.724-2.125 6.5-2.125c.562 0 1.15.041 1.781.125s1.255.207 1.844.375c1.01.302 1.864.771 2.594 1.375.529.438.854.998 1 1.719.11-1.12.49-2.037 1.156-2.75.799-.855 1.787-1.313 2.938-1.313 1.149 0 2.106.457 2.906 1.313s1.188 1.996 1.188 3.438-.388 2.568-1.188 3.406-1.757 1.25-2.906 1.25c-1.15 0-2.139-.412-2.938-1.25-.642-.673-.999-1.532-1.125-2.594-.077.403-.222.858-.438 1.406-.337.855-.749 1.751-1.281 2.656-.448-.302-1.049-.619-1.75-.938s-1.471-.469-2.313-.469c-.729 0-1.339.235-1.844.688s-.75 1.152-.75 2.125v1.219h6.219v7.469h-6.219v16.813zm6.5-50.937v-23.438c.337-.034.667-.09 1.031-.156.309-.067.652-.123 1.031-.156s.761-.063 1.125-.063c.674 0 1.338.099 1.969.25s1.18.396 1.656.781.862.938 1.156 1.625.438 1.553.438 2.625v17.813c0 .738-.038 1.66-.094 2.75s-.179 2.065-.375 2.938c-.309 1.341-.793 2.47-1.438 3.375s-1.356 1.634-2.156 2.188-1.593.953-2.406 1.188-1.536.344-2.125.344c-1.206 0-2.063-.291-2.625-.844-.561-.553-.96-1.364-1.156-2.438-.085-.436-.146-.889-.188-1.375s-.1-1.162-.156-2c .897-.1 1.627-.292 2.188-.594.562-.302 1.004-.687 1.313-1.156s.513-1.005.625-1.625.187-1.295.187-2.032zm-.188-31.157c0-1.442.42-2.582 1.219-3.438s1.756-1.281 2.906-1.281c1.149 0 2.138.426 2.938 1.281s1.188 1.996 1.188 3.438-.388 2.6-1.188 3.438-1.788 1.25-2.938 1.25c-1.15 0-2.107-.412-2.906-1.25s-1.219-1.996-1.219-3.438zm8.438 86.282c.562-.302.973-.718 1.281-1.188s.544-1.005.656-1.625.156-1.293.156-2.031v-23.438c.336-.034.698-.09 1.063-.156.308-.067.652-.123 1.031-.156s.729-.031 1.094-.031c.674 0 1.338.068 1.969.219s1.18.427 1.656.813.862.906 1.156 1.594.438 1.584.438 2.656v17.78c0 .738-.006 1.66-.063 2.75-.056 1.09-.21 2.065-.406 2.938-.309 1.342-.762 2.47-1.406 3.375s-1.388 1.634-2.188 2.188-1.593.953-2.406 1.188-1.505.344-2.094.344c-1.206 0-2.095-.26-2.656-.813s-.96-1.364-1.156-2.438c-.085-.436-.146-.92-.188-1.406s-.068-1.131-.125-1.969c.897-.101 1.626-.293 2.188-.594zm-30.813-28.594c.393-.033.839-.031 1.344-.031 2.524 0 4.102.824 4.719 2.5.14-.302.361-.617.656-.969s.639-.698 1.031-1 .839-.549 1.344-.75 1.033-.281 1.594-.281c.421 0 .844.024 1.25.125s.758.282 1.094.5.633.506.844.875.313.808.313 1.344-.075 1.145-.188 1.781-.255 1.267-.438 1.938-.369 1.332-.594 1.969-.463 1.215-.688 1.719c-.589-.57-1.141-.996-1.688-1.281s-1.168-.438-1.813-.438c-.729 0-1.264.22-1.656.656s-.594 1.015-.594 1.719v14.031h-8.469v-24.031c.253-.067.539-.152.875-.219.309-.068.671-.124 1.064-.157zm-1.25 52.344c.491.52.719 1.14.719 1.844 0 .603-.146 1.318-.469 2.156s-.711 1.635-1.188 2.406c-.842-.771-1.731-1.389-2.656-1.875s-1.859-.75-2.813-.75c-1.206 0-1.813.443-1.813 1.281 0 .536.208.934.656 1.219s1.015.518 1.688.719 1.402.436 2.188.688 1.515.622 2.188 1.125 1.238 1.19 1.688 2.063c.449.871.656 2.029.656 3.438 0 2.683-.79 4.813-2.375 6.406s-3.877 2.375-6.906 2.375c-1.739 0-3.095-.15-4.063-.469s-1.721-.633-2.281-.969c-.729-.436-1.251-.918-1.531-1.438s-.406-1.055-.406-1.625c0-.872.181-1.725.531-2.563s.739-1.664 1.188-2.469c.336.368.722.713 1.156 1.031s.901.607 1.406.875 1.029.475 1.563.625 1.058.219 1.563.219c.729 0 1.223-.121 1.531-.406s.469-.658.469-1.094c0-.504-.225-.917-.688-1.219s-1.046-.547-1.719-.781c-.674-.234-1.406-.511-2.219-.813s-1.545-.73-2.219-1.25-1.256-1.207-1.719-2.062-.688-1.969-.688-3.344c0-1.34.242-2.494.719-3.5s1.107-1.846 1.906-2.5 1.713-1.15 2.75-1.469 2.131-.469 3.281-.469c2.3 0 4.32.412 6.031 1.25.758.37 1.385.825 1.876 1.345zm-4.031-35.344c-.393 1.593-1.02 2.98-1.875 4.188s-1.952 2.154-3.313 2.875-3.037 1.094-5 1.094c-1.936 0-3.561-.357-4.906-1.063s-2.457-1.654-3.313-2.844-1.482-2.565-1.875-4.125-.594-3.194-.594-4.938.239-3.41.688-4.969c.449-1.559 1.12-2.892 2.031-4.031s2.061-2.048 3.406-2.719 2.927-1 4.75-1c1.936 0 3.561.329 4.906 1 1.347.671 2.439 1.579 3.281 2.719s1.465 2.475 1.844 4 .563 3.134.563 4.844-.201 3.376-.593 4.969zm-12.875 83.687v7.5h-6.219v16.813h-8.375v-24.063c0-.436.018-1.01.031-1.781s.037-1.405.094-1.875c.364-2.716 1.318-4.793 2.875-6.219 1.556-1.426 3.723-2.125 6.5-2.125.562 0 1.182.041 1.813.125s1.224.207 1.813.375c1.01.302 1.896.74 2.625 1.344.729.604 1.094 1.485 1.094 2.625 0 .502-.163 1.176-.5 2.031s-.78 1.751-1.313 2.656c-.449-.302-1.018-.619-1.719-.938s-1.471-.469-2.313-.469c-.729 0-1.371.204-1.875.656s-.75 1.184-.75 2.156v1.188h6.219zm20.5 24.469c-.309.084-.58.168-.875.219s-.615.077-.938.094-.67.031-1.063.031c-2.271 0-3.604-.77-3.969-2.313-.477.57-1.168 1.093-2.094 1.563s-2.098.688-3.5.688c-.869 0-1.701-.139-2.5-.406s-1.508-.694-2.125-1.281-1.104-1.357-1.469-2.313c-.365-.956-.563-2.125-.563-3.5 0-1.944.426-3.469 1.281-4.625s1.904-2.053 3.125-2.656 2.478-.989 3.781-1.156c1.304-.168 2.418-.25 3.344-.25v-.72c0-.47-.078-.84-.219-1.125s-.324-.506-.563-.656-.521-.231-.844-.281c-.322-.051-.667-.094-1.031-.094-.98 0-1.952.182-2.906.5s-2.01.797-3.188 1.469c-.533-.771-.922-1.512-1.188-2.25s-.406-1.319-.406-1.688c0-.504.126-.954.406-1.406s.881-.934 1.75-1.438c.758-.47 1.772-.857 3.063-1.125s2.591-.406 3.938-.406c3.281 0 5.646.801 7.063 2.344s2.125 3.959 2.125 7.313v9.813c0 .838.044 1.761.156 2.75s.272 1.855.469 2.594c-.39.133-.753.227-1.06.311zm17.937-1.812c-1.585 1.593-3.908 2.406-6.938 2.406-1.739 0-3.095-.15-4.063-.469s-1.721-.664-2.281-1c-.729-.436-1.22-.918-1.5-1.438s-.438-1.055-.438-1.625c0-.872.181-1.725.531-2.563s.739-1.664 1.188-2.469c.336.368.722.713 1.156 1.031s.933.607 1.438.875.998.475 1.531.625 1.058.25 1.563.25c.729 0 1.254-.152 1.563-.438s.469-.658.469-1.094c0-.504-.225-.886-.688-1.188s-1.046-.578-1.719-.813-1.405-.511-2.219-.813-1.577-.699-2.25-1.219-1.225-1.207-1.688-2.063-.688-1.969-.688-3.344c0-1.34.211-2.525.688-3.531s1.139-1.846 1.938-2.5 1.712-1.119 2.75-1.438 2.131-.5 3.281-.5c2.3 0 4.289.443 6 1.281.757.369 1.384.793 1.875 1.313s.75 1.14.75 1.844c0 .603-.178 1.318-.5 2.156s-.711 1.666-1.188 2.438c-.842-.771-1.731-1.42-2.656-1.906s-1.859-.719-2.813-.719c-1.206 0-1.813.412-1.813 1.25 0 .536.239.965.688 1.25s1.015.518 1.688.719 1.402.436 2.188.688 1.515.622 2.188 1.125 1.207 1.191 1.656 2.063c.449.872.688 1.998.688 3.406 0 2.687-.79 4.817-2.375 6.41zm3.782-72.688c.253-.067.57-.121.906-.188.308-.067.639-.123 1.031-.156s.839-.063 1.344-.063c2.553 0 4.13.797 4.719 2.406.477-.771 1.145-1.444 2-2.031s2.007-.875 3.438-.875c.869 0 1.745.208 2.656.594s1.757 1.016 2.5 1.938 1.35 2.16 1.813 3.719.688 3.499.688 5.813c0 2.717-.242 4.944-.719 6.688s-1.121 3.133-1.906 4.156c-.785 1.022-1.657 1.739-2.625 2.125s-1.925.563-2.906.563c-.757 0-1.422-.098-1.969-.281s-.996-.404-1.375-.656-.696-.47-.906-.688-.315-.369-.344-.469v12.406h-8.344v-35.001zm19 74.875c-1.318 0-2.367-.273-3.125-.844s-1.408-1.314-1.969-2.219l-2.688-4.469c-.477-.771-.845-1.485-1.125-2.156s-.516-1.443-.656-2.281v11.438h-8.406v-35.313c.336-.033.698-.09 1.063-.156.308-.067.652-.123 1.031-.156s.761-.031 1.125-.031c.674 0 1.307.068 1.938.219s1.18.427 1.656.813.862.906 1.156 1.594.438 1.584.438 2.656v16.188c.141-.736.379-1.467.688-2.188s.711-1.451 1.188-2.156l2.25-3.469c.532-.805 1.136-1.476 1.781-2.063s1.535-.906 2.656-.906c.646 0 1.258.126 1.875.344s1.18.451 1.656.719c.532.302 1.023.631 1.5 1l-5.75 9.656 6.813 12.438c-1.853.903-3.554 1.342-5.095 1.342zm15.593-.75c-1.149.436-2.165.656-3.063.656-1.29 0-2.285-.162-3-.531s-1.274-.865-1.625-1.469-.555-1.306-.625-2.094-.094-1.628-.094-2.5v-29.156c.337-.033.667-.09 1.031-.156.309-.067.652-.123 1.031-.156s.761-.031 1.125-.031c.674 0 1.338.068 1.969.219s1.18.427 1.656.813.862.906 1.156 1.594.438 1.584.438 2.656v30.155zm8.5-53.812c-1.809 2.984-4.657 4.469-8.5 4.469-3.87 0-6.694-1.429-8.531-4.313s-2.781-7.204-2.781-12.938c0-2.648.239-5.027.688-7.156s1.137-3.945 2.063-5.438 2.118-2.633 3.563-3.438 3.165-1.219 5.156-1.219c1.963 0 3.629.385 5.031 1.156s2.54 1.914 3.438 3.406 1.562 3.309 1.969 5.438.625 4.534.625 7.25c-.002 5.534-.912 9.798-2.721 12.783zm4.844-46.563h-8.375v-24.031c0-.436.018-1.042.031-1.813s.037-1.405.094-1.875c.364-2.716 1.35-4.793 2.906-6.219s3.724-2.125 6.5-2.125c.562 0 1.15.041 1.781.125s1.224.207 1.813.375c1.01.302 1.896.771 2.625 1.375s1.094 1.454 1.094 2.594c0 .502-.163 1.176-.5 2.031s-.78 1.751-1.313 2.656c-.448-.302-1.018-.619-1.719-.938s-1.471-.469-2.313-.469c-.729 0-1.339.235-1.844.688s-.781 1.152-.781 2.125v1.219h6.25v7.469h-6.25v16.813zm21.063 40.594c-.827 2.447-1.918 4.427-3.25 5.969s-2.849 2.686-4.531 3.406-3.352 1.063-5.063 1.063c-.98 0-1.772-.082-2.375-.25s-1.104-.414-1.469-.75-.624-.732-.75-1.219-.188-1.08-.188-1.75c0-.504.056-1.094.125-1.781s.131-1.277.188-1.781c.561.135 1.011.217 1.375.25s.805.063 1.281.063c.646 0 1.278-.1 1.938-.25s1.286-.381 1.875-.75 1.151-.88 1.656-1.5.913-1.404 1.25-2.344c-.617.47-1.326.816-2.125 1s-1.511.25-2.156.25c-1.347 0-2.521-.303-3.531-.906s-1.858-1.386-2.531-2.375-1.194-2.131-1.531-3.438-.5-2.685-.5-4.094c0-2.18.279-4.047.813-5.656s1.266-2.958 2.219-4.031 2.082-1.887 3.344-2.406 2.607-.781 4.094-.781c1.823 0 3.455.358 4.844 1.063s2.544 1.724 3.469 3.031 1.6 2.904 2.063 4.781c.463 1.878.719 3.965.719 6.313-.003 3.451-.426 6.425-1.253 8.873zm3.468-192.844c0 .738-.038 1.66-.094 2.75s-.179 2.065-.375 2.938c-.309 1.341-.762 2.47-1.406 3.375s-1.388 1.634-2.188 2.188-1.593.953-2.406 1.188-1.505.344-2.094.344c-1.206 0-2.095-.291-2.656-.844-.561-.553-.96-1.364-1.156-2.438-.085-.436-.146-.889-.188-1.375s-.068-1.131-.125-1.969c.897-.1 1.627-.323 2.188-.625.562-.302.973-.687 1.281-1.156s.544-1.005.656-1.625.156-1.293.156-2.031v-23.438c.337-.034.698-.09 1.063-.156.309-.067.652-.123 1.031-.156s.729-.031 1.094-.031c.674 0 1.338.068 1.969.219s1.18.427 1.656.813.862.906 1.156 1.594.438 1.584.438 2.656zm-8.562-30.406c0-1.442.389-2.613 1.188-3.469s1.756-1.281 2.906-1.281c1.149 0 2.138.426 2.938 1.281s1.188 2.027 1.188 3.469-.388 2.568-1.188 3.406-1.788 1.25-2.938 1.25c-1.15 0-2.107-.412-2.906-1.25s-1.188-1.964-1.188-3.406zm17.125 232.375c-.701.889-1.675 1.313-2.938 1.313-1.234 0-2.223-.424-2.938-1.313s-1.063-2.031-1.063-3.406c0-1.374.398-2.488 1.156-3.344s1.694-1.281 2.844-1.281c1.178 0 2.132.426 2.875 1.281s1.125 1.97 1.125 3.344c.001 1.375-.36 2.517-1.061 3.406zm-11.969-272.875c.729-1.039 1.578-1.78 2.531-2.25s1.962-.719 3-.719c.673 0 1.279.082 1.813.25s.965.376 1.344.594.699.438.938.656.385.369.469.469v-12.313c.337-.034.698-.09 1.063-.156.309-.067.636-.123 1-.156s.729-.063 1.094-.063c.673 0 1.338.068 1.969.219s1.18.427 1.656.813.862.938 1.156 1.625.438 1.553.438 2.625v30.375h-6.313c-.421 0-.789-.109-1.125-.344s-.5-.729-.5-1.5c-.393.603-1.02 1.139-1.875 1.625s-1.929.719-3.219.719c-.953 0-1.887-.162-2.813-.531s-1.757-1.016-2.5-1.938-1.35-2.188-1.813-3.781-.688-3.585-.688-6c0-2.414.19-4.479.625-6.156s1.021-3.024 1.75-4.063zm-18.594-3.875c.014-.771.068-1.374.125-1.844.364-2.716 1.318-4.793 2.875-6.219s3.724-2.156 6.5-2.156c.562 0 1.15.041 1.781.125s1.255.207 1.844.375c1.01.302 1.864.771 2.594 1.375s1.094 1.485 1.094 2.625c0 .502-.163 1.176-.5 2.031s-.78 1.72-1.313 2.625c-.448-.302-1.018-.588-1.719-.906s-1.472-.5-2.313-.5c-.729 0-1.339.235-1.844.688s-.75 1.152-.75 2.125v1.219h6.219v7.5h-6.219v16.781h-8.375v-24.032c.001-.436-.012-1.041.001-1.812zm1 54.156c.532-.804 1.104-1.476 1.75-2.063s1.535-.906 2.656-.906c.646 0 1.258.126 1.875.344s1.18.451 1.656.719c.532.302 1.023.631 1.5 1l-5.75 9.656 6.813 12.438c-1.852.904-3.552 1.344-5.094 1.344-1.318 0-2.336-.274-3.094-.844s-1.439-1.314-2-2.219l-2.688-4.469c-.477-.771-.845-1.485-1.125-2.156s-.484-1.443-.625-2.281v11.437h-8.438v-35.313c.336-.034.698-.09 1.063-.156.308-.067.652-.123 1.031-.156s.761-.031 1.125-.031c.674 0 1.307.068 1.938.219s1.18.427 1.656.813.862.906 1.156 1.594.469 1.584.469 2.656v16.188c.141-.737.348-1.467.656-2.188s.711-1.451 1.188-2.156zm-26.156-63.594c.336-.034.698-.09 1.063-.156.308-.067.652-.123 1.031-.156s.729-.063 1.094-.063c.674 0 1.338.068 1.969.219s1.18.427 1.656.813.862.938 1.156 1.625.438 1.553.438 2.625v16.187c.141-.737.379-1.467.688-2.188s.711-1.42 1.188-2.125l2.25-3.469c.532-.804 1.136-1.507 1.781-2.094s1.535-.875 2.656-.875c.646 0 1.258.126 1.875.344s1.18.451 1.656.719c.532.302 1.023.631 1.5 1l-5.75 9.656 6.813 12.438c-1.852.904-3.552 1.344-5.094 1.344-1.318 0-2.367-.274-3.125-.844s-1.408-1.314-1.969-2.219l-2.688-4.469c-.477-.771-.845-1.517-1.125-2.188s-.516-1.412-.656-2.25v11.406h-8.407zm-.875 60.907c.533.168.965.345 1.344.563s.699.438.938.656.385.368.469.469v-12.313c.337-.034.698-.09 1.063-.156.309-.067.636-.123 1-.156s.729-.031 1.094-.031c.673 0 1.338.068 1.969.219s1.18.427 1.656.813.861.906 1.156 1.594c.294.688.438 1.584.438 2.656v30.373h-6.313c-.421 0-.789-.14-1.125-.375s-.5-.729-.5-1.5c-.393.603-1.02 1.138-1.875 1.625-.855.486-1.929.75-3.219.75-.953 0-1.887-.194-2.813-.563-.926-.369-1.757-1.016-2.5-1.938s-1.35-2.188-1.813-3.781-.688-3.585-.688-6c0-2.414.19-4.448.625-6.125s1.021-3.055 1.75-4.094 1.578-1.78 2.531-2.25 1.962-.719 3-.719c.673.001 1.28.115 1.813.283zm-27.625-51.5c.014-.771.068-1.405.125-1.875.364-2.716 1.318-4.793 2.875-6.219s3.724-2.125 6.5-2.125c.562 0 1.15.041 1.781.125s1.255.207 1.844.375c1.01.302 1.864.771 2.594 1.375.547.453.895 1.027 1.031 1.781v-2.844c.336-.034.698-.09 1.063-.156.308-.067.652-.123 1.031-.156s.761-.063 1.125-.063c.674 0 1.307.068 1.938.219s1.18.427 1.656.813.862.938 1.156 1.625.438 1.553.438 2.625v30.187c-1.149.436-2.165.656-3.063.656-1.29 0-2.285-.193-3-.563-.715-.369-1.243-.865-1.594-1.469s-.555-1.274-.625-2.063-.125-1.628-.125-2.5v-24.936c-.074.415-.211.895-.438 1.469-.337.855-.78 1.751-1.313 2.656-.448-.302-1.018-.619-1.719-.938s-1.471-.469-2.313-.469c-.729 0-1.339.235-1.844.688s-.75 1.152-.75 2.125v1.219h6.219v7.469h-6.219v16.813h-8.373v-24.032c0-.436-.014-1.042 0-1.812zm.063 44.281c0 .502-.163 1.176-.5 2.031s-.749 1.75-1.281 2.656c-.448-.302-1.049-.619-1.75-.938s-1.471-.469-2.313-.469c-.729 0-1.339.204-1.844.656s-.75 1.183-.75 2.156v1.188h6.219v7.5h-6.219v16.813h-8.375v-24.063c0-.436.018-1.042.031-1.813s.037-1.374.094-1.844c.364-2.716 1.318-4.793 2.875-6.219s3.724-2.125 6.5-2.125c.562 0 1.15.041 1.781.125s1.255.207 1.844.375c1.01.302 1.864.74 2.594 1.344s1.094 1.487 1.094 2.627zm-23.094-36.656c.435-1.677 1.021-3.055 1.75-4.094s1.578-1.78 2.531-2.25 1.962-.719 3-.719c.673 0 1.279.113 1.813.281s.965.345 1.344.563.699.438.938.656.385.369.469.469v-12.313c.337-.034.698-.09 1.063-.156.309-.067.636-.123 1-.156s.729-.031 1.094-.031c.673 0 1.338.068 1.969.219s1.18.427 1.656.813.861.906 1.156 1.594c.294.688.438 1.584.438 2.656v30.375h-6.313c-.421 0-.789-.14-1.125-.375s-.5-.729-.5-1.5c-.393.603-1.02 1.17-1.875 1.656s-1.929.719-3.219.719c-.953 0-1.887-.193-2.813-.563s-1.757-1.016-2.5-1.938-1.35-2.188-1.813-3.781-.688-3.585-.688-6c0-2.415.19-4.449.625-6.125zm.875 43.093c.617.218 1.148.482 1.625.75.532.302 1.055.63 1.531 1l-5.781 9.656 6.813 12.406c-1.852.904-3.521 1.375-5.063 1.375-1.318 0-2.367-.305-3.125-.875-.758-.57-1.408-1.283-1.969-2.188l-2.719-4.5c-.477-.771-.844-1.485-1.125-2.156s-.484-1.412-.625-2.25v11.406h-8.406v-35.313c.336-.034.667-.09 1.031-.156.308-.067.652-.091 1.031-.125s.76-.063 1.125-.063c.674 0 1.338.068 1.969.219s1.18.427 1.656.813.861.906 1.156 1.594.438 1.584.438 2.656v16.188c.141-.737.348-1.467.656-2.188s.711-1.42 1.188-2.125l2.281-3.469c.532-.804 1.104-1.507 1.75-2.094s1.535-.875 2.656-.875c.646.002 1.29.096 1.907.314zm-11.25-34.5c-.463-.302-1.045-.547-1.719-.781s-1.406-.511-2.219-.813-1.545-.73-2.219-1.25c-.673-.52-1.256-1.208-1.719-2.063s-.688-1.969-.688-3.344c0-1.34.242-2.494.719-3.5s1.107-1.846 1.906-2.5 1.713-1.15 2.75-1.469 2.131-.469 3.281-.469c2.3 0 4.32.412 6.031 1.25.757.369 1.384.824 1.875 1.344.491.52.719 1.14.719 1.844 0 .603-.146 1.318-.469 2.156s-.742 1.635-1.219 2.406c-.842-.771-1.7-1.389-2.625-1.875-.925-.486-1.891-.719-2.844-.719-1.206 0-1.813.412-1.813 1.25 0 .536.239.934.688 1.219s1.014.518 1.688.719c.673.201 1.402.436 2.188.688s1.515.622 2.188 1.125 1.238 1.191 1.688 2.063c.449.872.656 2.029.656 3.438 0 2.683-.79 4.813-2.375 6.406s-3.877 2.406-6.906 2.406c-1.739 0-3.095-.181-4.063-.5s-1.752-.633-2.313-.969c-.729-.436-1.22-.918-1.5-1.438s-.406-1.055-.406-1.625c0-.872.149-1.725.5-2.563s.771-1.665 1.219-2.469c.336.368.722.712 1.156 1.031s.901.607 1.406.875 1.029.474 1.563.625 1.026.219 1.531.219c.729 0 1.254-.121 1.563-.406s.469-.658.469-1.094c0-.501-.224-.915-.687-1.217zm-6.938 125.125c.631.151 1.211.396 1.688.781s.861.938 1.156 1.625.438 1.553.438 2.625v16.219c.141-.737.348-1.467.656-2.188s.711-1.451 1.188-2.156l2.281-3.469c.532-.804 1.104-1.507 1.75-2.094s1.535-.875 2.656-.875c.646 0 1.289.126 1.906.344s1.148.451 1.625.719c.532.302 1.055.631 1.531 1l-5.781 9.656 6.813 12.438c-1.852.904-3.552 1.344-5.094 1.344-1.318 0-2.336-.274-3.094-.844s-1.439-1.314-2-2.219l-2.688-4.469c-.477-.771-.844-1.485-1.125-2.156s-.484-1.443-.625-2.281v11.438h-8.437v-35.313c.336-.034.698-.09 1.063-.156.308-.067.652-.123 1.031-.156s.76-.063 1.125-.063c.674 0 1.306.099 1.937.25zm-2.968-69.25c.112.989.273 1.856.469 2.594-.393.134-.754.229-1.063.313s-.611.168-.906.219-.615.077-.938.094c-.322.017-.67.031-1.063.031-2.271 0-3.604-.77-3.969-2.313-.477.57-1.168 1.093-2.094 1.563s-2.098.688-3.5.688c-.87 0-1.701-.139-2.5-.406-.799-.269-1.508-.695-2.125-1.281-.617-.587-1.104-1.357-1.469-2.313-.365-.956-.531-2.125-.531-3.5 0-1.944.426-3.5 1.281-4.656.855-1.157 1.874-2.021 3.094-2.625 1.22-.604 2.509-.989 3.813-1.156 1.304-.167 2.417-.25 3.344-.25v-.719c0-.47-.079-.84-.219-1.125-.141-.285-.324-.505-.563-.656-.238-.151-.521-.231-.844-.281-.323-.05-.667-.094-1.031-.094-.981 0-1.952.15-2.906.469s-2.01.829-3.188 1.5c-.533-.771-.953-1.543-1.219-2.281s-.406-1.288-.406-1.656c0-.503.157-.985.438-1.438s.849-.903 1.719-1.406c.757-.47 1.772-.857 3.063-1.125s2.623-.406 3.969-.406c3.281 0 5.615.77 7.031 2.313s2.125 3.991 2.125 7.344v9.813c0 .834.075 1.757.188 2.746zm-.407-48.875c0 .738-.038 1.66-.094 2.75s-.179 2.066-.375 2.938c-.309 1.341-.792 2.47-1.438 3.375s-1.357 1.634-2.156 2.188-1.625.922-2.438 1.156-1.505.375-2.094.375c-1.206 0-2.095-.291-2.656-.844s-.929-1.364-1.125-2.438c-.084-.436-.146-.889-.188-1.375s-.1-1.162-.156-2c .898-.1 1.626-.292 2.188-.594s1.004-.687 1.313-1.156.513-1.005.625-1.625.156-1.325.156-2.063v-23.437c.336-.034.698-.059 1.063-.125.308-.067.652-.123 1.031-.156s.76-.063 1.125-.063c.674 0 1.307.068 1.938.219s1.18.427 1.656.813.862.938 1.156 1.625.469 1.553.469 2.625zm-25.093-24.593c.014-.771.068-1.405.125-1.875.365-2.716 1.318-4.762 2.875-6.188s3.724-2.156 6.5-2.156c.562 0 1.15.041 1.781.125s1.255.207 1.844.375c1.01.302 1.864.771 2.594 1.375.422.35.697.79.875 1.313.165-.899.528-1.645 1.094-2.25.799-.855 1.787-1.281 2.938-1.281 1.149 0 2.107.426 2.906 1.281s1.219 1.996 1.219 3.438-.419 2.6-1.219 3.438-1.757 1.25-2.906 1.25c-1.15 0-2.139-.412-2.938-1.25-.557-.584-.894-1.34-1.063-2.219-.08.294-.176.59-.313.938-.337.855-.78 1.72-1.313 2.625-.449-.302-1.018-.619-1.719-.938s-1.471-.469-2.313-.469c-.729 0-1.339.235-1.844.688s-.781 1.152-.781 2.125v1.217h6.25v7.5h-6.25v16.781h-8.344v-24.031c.002-.436-.012-1.042.002-1.812zm-9.844 42.781c.294.688.438 1.553.438 2.625v16.188c.141-.737.379-1.436.688-2.156s.711-1.451 1.188-2.156l2.25-3.469c.532-.804 1.136-1.507 1.781-2.094s1.535-.875 2.656-.875c.646 0 1.258.126 1.875.344s1.18.451 1.656.719c.532.302 1.023.631 1.5 1l-5.75 9.656 6.813 12.438c-1.852.904-3.551 1.344-5.094 1.344-1.318 0-2.368-.274-3.125-.844s-1.408-1.314-1.969-2.219l-2.688-4.469c-.477-.771-.844-1.517-1.125-2.188s-.516-1.412-.656-2.25v11.406h-8.406v-35.281c.336-.034.698-.09 1.063-.156.308-.067.652-.123 1.031-.156s.729-.063 1.094-.063c.674 0 1.338.099 1.969.25s1.18.396 1.656.781.86.937 1.155 1.625zm-9.969-52.438c.336-.034.698-.09 1.063-.156.308-.067.652-.123 1.031-.156s.729-.031 1.094-.031c.674 0 1.338.068 1.969.219s1.18.427 1.656.813.862.906 1.156 1.594.438 1.584.438 2.656v30.156c-1.149.436-2.165.656-3.063.656-1.29 0-2.285-.193-3-.563-.715-.369-1.243-.834-1.594-1.438s-.555-1.306-.625-2.094-.125-1.628-.125-2.5zm-16.969 11.313c0-.436.018-1.01.031-1.781s.037-1.405.094-1.875c.365-2.716 1.318-4.793 2.875-6.219 1.556-1.425 3.724-2.125 6.5-2.125.562 0 1.182.041 1.813.125s1.224.207 1.813.375c1.01.302 1.896.74 2.625 1.344.729.604 1.094 1.485 1.094 2.625 0 .502-.163 1.176-.5 2.031s-.78 1.751-1.313 2.656c-.449-.302-1.018-.619-1.719-.938s-1.471-.469-2.313-.469c-.729 0-1.371.204-1.875.656s-.75 1.183-.75 2.156v1.188h6.219v7.5h-6.219v16.813h-8.375zm-3.468 241.844c.799-.855 1.756-1.281 2.906-1.281 1.149 0 2.138.426 2.938 1.281s1.188 1.996 1.188 3.438-.388 2.6-1.188 3.438-1.788 1.25-2.938 1.25c-1.15 0-2.107-.412-2.906-1.25s-1.219-1.996-1.219-3.438.42-2.583 1.219-3.438zm-2.907-15.282c-.855.486-1.929.719-3.219.719-.954 0-1.918-.193-2.844-.563s-1.757-1.016-2.5-1.938-1.35-2.157-1.813-3.75-.688-3.616-.688-6.031c0-2.414.222-4.448.656-6.125s1.021-3.023 1.75-4.063 1.578-1.812 2.531-2.281 1.931-.688 2.969-.688c.673 0 1.28.082 1.813.25s.996.345 1.375.563.699.438.938.656.385.369.469.469v-12.313c.337-.034.699-.09 1.063-.156.309-.067.635-.123 1-.156s.729-.031 1.094-.031c.673 0 1.337.068 1.969.219s1.18.427 1.656.813.862.906 1.156 1.594.438 1.584.438 2.656v30.375h-6.313c-.421 0-.789-.109-1.125-.344s-.5-.761-.5-1.531c-.393.603-1.019 1.17-1.875 1.656zm4.594-187.843c.673 0 1.306.068 1.938.219s1.18.427 1.656.813.862.938 1.156 1.625.469 1.553.469 2.625v30.375h-6.313c-.421 0-.82-.109-1.156-.344s-.5-.729-.5-1.5c-.393.603-1.02 1.139-1.875 1.625s-1.929.719-3.219.719c-.954 0-1.887-.162-2.813-.531s-1.757-1.016-2.5-1.938-1.35-2.188-1.813-3.781-.688-3.585-.688-6c0-2.414.222-4.479.656-6.156s1.021-3.023 1.75-4.063 1.546-1.78 2.5-2.25 1.962-.719 3-.719c.673 0 1.28.082 1.813.25s.996.376 1.375.594.668.407.906.625.416.4.5.5v-12.344c.337-.034.667-.059 1.031-.125.309-.067.667-.123 1.031-.156s.731-.063 1.096-.063zm-9.219-49.719c.799-.855 1.756-1.281 2.906-1.281 1.149 0 2.138.426 2.938 1.281s1.188 1.996 1.188 3.438-.388 2.568-1.188 3.406-1.788 1.281-2.938 1.281c-1.15 0-2.107-.443-2.906-1.281s-1.219-1.964-1.219-3.406.42-2.583 1.219-3.438zm-1.843 38.25c.309-.47.513-1.036.625-1.656s.188-1.293.188-2.031v-23.438c.336-.034.667-.09 1.031-.156.308-.067.652-.123 1.031-.156s.76-.031 1.125-.031c.674 0 1.338.068 1.969.219s1.18.427 1.656.813.862.906 1.156 1.594.438 1.584.438 2.656v17.813c0 .738-.038 1.629-.094 2.719s-.179 2.066-.375 2.938c-.309 1.341-.792 2.47-1.438 3.375s-1.357 1.634-2.156 2.188-1.593.953-2.406 1.188-1.536.344-2.125.344c-1.206 0-2.064-.259-2.625-.813s-.96-1.364-1.156-2.438c-.084-.436-.146-.889-.188-1.375s-.1-1.162-.156-2c .898-.1 1.626-.292 2.188-.594s1.003-.69 1.312-1.159zm-25.094-37.906c.336-.034.698-.09 1.063-.156.308-.067.652-.091 1.031-.125s.76-.063 1.125-.063c.674 0 1.307.068 1.938.219s1.18.427 1.656.813.893.906 1.188 1.594.438 1.584.438 2.656v16.188c.141-.737.348-1.467.656-2.188s.711-1.42 1.188-2.125l2.281-3.469c.532-.804 1.104-1.507 1.75-2.094s1.535-.875 2.656-.875c.646 0 1.289.095 1.906.313s1.148.451 1.625.719c.532.302 1.023.662 1.5 1.031l-5.75 9.656 6.813 12.406c-1.852.904-3.551 1.375-5.094 1.375-1.318 0-2.336-.305-3.094-.875s-1.439-1.283-2-2.188l-2.688-4.5c-.477-.771-.844-1.485-1.125-2.156s-.484-1.412-.625-2.25v11.406h-8.438zm18.156 61.187v7.469h-6.219v16.813h-8.375v-24.031c0-.436.018-1.042.031-1.813s.037-1.405.094-1.875c.364-2.716 1.318-4.793 2.875-6.219 1.556-1.425 3.724-2.125 6.5-2.125.562 0 1.15.041 1.781.125s1.255.207 1.844.375c1.01.302 1.864.771 2.594 1.375.729.604 1.094 1.454 1.094 2.594 0 .502-.163 1.176-.5 2.031s-.78 1.75-1.313 2.656c-.449-.302-1.018-.619-1.719-.938s-1.471-.469-2.313-.469c-.729 0-1.339.235-1.844.688s-.75 1.152-.75 2.125v1.219zm-29.937-26.969c-.351-.604-.555-1.306-.625-2.094s-.094-1.628-.094-2.5v-29.156c.336-.034.667-.09 1.031-.156.308-.067.652-.123 1.031-.156s.76-.063 1.125-.063c.674 0 1.307.099 1.938.25s1.211.396 1.688.781.862.938 1.156 1.625.438 1.553.438 2.625v30.188c-1.149.436-2.196.656-3.094.656-1.29 0-2.285-.193-3-.563-.716-.368-1.244-.833-1.594-1.437zm19.531 223.969c-.337.855-.749 1.72-1.281 2.625-.449-.302-1.049-.588-1.75-.906s-1.471-.5-2.313-.5c-.729 0-1.339.235-1.844.688s-.75 1.152-.75 2.125v1.219h6.219v7.5h-6.219v16.781h-8.375v-24.031c0-.436.018-1.041.031-1.813s.037-1.374.094-1.844c.364-2.716 1.318-4.793 2.875-6.219 1.556-1.426 3.724-2.156 6.5-2.156.562 0 1.15.041 1.781.125s1.255.207 1.844.375c1.01.302 1.864.771 2.594 1.375.729.604 1.094 1.485 1.094 2.625 0 .502-.163 1.176-.5 2.031zm15.375 29.25c-.757-.57-1.408-1.314-1.969-2.219l-2.688-4.469c-.477-.771-.875-1.517-1.156-2.188s-.484-1.412-.625-2.25v11.406h-8.406v-35.281c.336-.033.698-.09 1.063-.156.308-.067.652-.123 1.031-.156s.729-.063 1.094-.063c.674 0 1.338.068 1.969.219s1.18.427 1.656.813.862.938 1.156 1.625.438 1.553.438 2.625v16.188c.141-.736.379-1.467.688-2.188s.68-1.42 1.156-2.125l2.281-3.469c.532-.805 1.136-1.507 1.781-2.094s1.504-.875 2.625-.875c.646 0 1.289.126 1.906.344s1.18.451 1.656.719c.532.302 1.023.631 1.5 1l-5.75 9.656 6.813 12.438c-1.852.904-3.551 1.344-5.094 1.344-1.318 0-2.368-.274-3.125-.844zm14.656 10.188c-.799.554-1.625.922-2.438 1.156s-1.505.375-2.094.375c-1.206 0-2.095-.291-2.656-.844s-.929-1.364-1.125-2.438c-.084-.436-.146-.889-.188-1.375s-.1-1.162-.156-2c .898-.101 1.626-.292 2.188-.594s1.004-.687 1.313-1.156.513-1.005.625-1.625.188-1.324.188-2.063v-23.438c.336-.033.667-.059 1.031-.125.308-.067.652-.123 1.031-.156s.76-.063 1.125-.063c.674 0 1.307.068 1.938.219s1.211.428 1.688.813.862.938 1.156 1.625.438 1.553.438 2.625v17.813c0 .738-.038 1.66-.094 2.75s-.179 2.065-.375 2.938c-.309 1.342-.792 2.47-1.438 3.375-.646.904-1.358 1.634-2.157 2.188zm16.438 16.093v7.5h-6.219v16.813h-8.375v-24.063c0-.436.018-1.01.031-1.781s.037-1.405.094-1.875c.364-2.716 1.318-4.793 2.875-6.219 1.556-1.426 3.724-2.125 6.5-2.125.562 0 1.182.041 1.813.125s1.224.207 1.813.375c1.01.302 1.896.74 2.625 1.344.729.604 1.094 1.485 1.094 2.625 0 .502-.194 1.176-.531 2.031s-.749 1.751-1.281 2.656c-.449-.302-1.049-.619-1.75-.938s-1.471-.469-2.313-.469c-.729 0-1.339.204-1.844.656s-.75 1.184-.75 2.156v1.188h6.218zm16.843 24.594c-1.052.302-2.367.469-3.938.469-1.149 0-2.4-.164-3.719-.5-1.318-.336-2.535-.996-3.656-1.969s-2.038-2.333-2.781-4.094c-.743-1.761-1.125-4.057-1.125-6.906 0-2.113.303-3.958.906-5.5s1.376-2.807 2.344-3.813c.968-1.006 2.096-1.749 3.344-2.219 1.249-.47 2.488-.719 3.75-.719 1.711 0 3.169.303 4.375.906s2.194 1.432 2.938 2.438 1.257 2.159 1.594 3.5.531 2.774.531 4.25c0 .168 0 .371 0 .656s-.017.573-.031.875c-.014.302-.018.607-.031.875s-.034.46-.063.594h-11.25c.141 1.273.542 2.361 1.188 3.25s1.664 1.344 3.094 1.344c1.122 0 2.087-.223 2.844-.625.757-.402 1.493-.922 2.25-1.594.365.672.729 1.44 1.094 2.313.365.872.563 1.643.563 2.313 0 .57-.123 1.091-.375 1.594s-.699.999-1.344 1.469c-.619.435-1.45.791-2.502 1.093zm2.969 6.469c-.042-.486-.1-1.131-.156-1.969.898-.101 1.626-.323 2.188-.625s1.004-.687 1.313-1.156.513-1.005.625-1.625.156-1.293.156-2.031v-23.438c.336-.033.698-.09 1.063-.156.308-.067.652-.123 1.031-.156s.76-.031 1.125-.031c.674 0 1.307.068 1.938.219s1.18.428 1.656.813.862.906 1.156 1.594.438 1.584.438 2.656v17.781c0 .738-.006 1.66-.063 2.75-.056 1.09-.179 2.065-.375 2.938-.309 1.342-.792 2.47-1.438 3.375s-1.357 1.634-2.156 2.188-1.625.953-2.438 1.188-1.505.344-2.094.344c-1.206 0-2.095-.26-2.656-.813s-.929-1.396-1.125-2.469c-.085-.438-.146-.891-.188-1.377z" fill="param(fill)" fill-opacity="param(fill-opacity)" stroke="param(outline)" stroke-opacity="param(outline-opacity)" stroke-width="param(outline-width)"/>
<path d="m272.125 278.5c-.322-.52-.833-.781-1.563-.781-1.319 0-2 1.211-2 3.625h4.063c0-1.374-.178-2.324-.5-2.844z" fill="param(fill)" fill-opacity="param(fill-opacity)" stroke="param(outline)" stroke-opacity="param(outline-opacity)" stroke-width="param(outline-width)"/>
<path d="m253.156 379.094c-.322-.52-.865-.781-1.594-.781-1.319 0-1.969 1.211-1.969 3.625h4.031c.001-1.375-.145-2.325-.468-2.844z" fill="param(fill)" fill-opacity="param(fill-opacity)" stroke="param(outline)" stroke-opacity="param(outline-opacity)" stroke-width="param(outline-width)"/>
<path d="m316.719 235.688c-.351.251-.634.597-.844 1s-.313.895-.313 1.531c0 .771.181 1.394.531 1.813s.82.625 1.438.625c.505 0 .951-.138 1.344-.406s.594-.682.594-1.219v-4.219c-.532.067-1.022.179-1.5.313-.478.133-.9.311-1.25.562z" fill="param(fill)" fill-opacity="param(fill-opacity)" stroke="param(outline)" stroke-opacity="param(outline-opacity)" stroke-width="param(outline-width)"/>
<path d="m250.906 338.781c.21.52.476.948.813 1.25s.776.438 1.281.438c.336 0 .585-.012.781-.063s.353-.092.438-.125v-10.813c-.168-.135-.39-.231-.656-.281-.267-.051-.526-.063-.75-.063-.119 0-.234-.016-.344 0-.769.109-1.287.62-1.594 1.5-.351 1.006-.531 2.381-.531 4.125 0 .805.041 1.563.125 2.25s.227 1.263.437 1.782z" fill="param(fill)" fill-opacity="param(fill-opacity)" stroke="param(outline)" stroke-opacity="param(outline-opacity)" stroke-width="param(outline-width)"/>
<path d="m368.844 322.688c-.21-.754-.49-1.275-.813-1.594s-.711-.469-1.188-.469c-.505 0-.945.15-1.281.469s-.602.84-.813 1.594-.354 1.745-.438 2.969-.125 2.723-.125 4.5c0 3.521.201 6.013.594 7.438s1.081 2.125 2.063 2.125c.477 0 .865-.15 1.188-.469s.603-.871.813-1.625.37-1.745.469-2.969.125-2.723.125-4.5-.026-3.276-.125-4.5-.259-2.216-.469-2.969z" fill="param(fill)" fill-opacity="param(fill-opacity)" stroke="param(outline)" stroke-opacity="param(outline-opacity)" stroke-width="param(outline-width)"/>
<path d="m274.875 133.75c-.351.251-.603.597-.813 1s-.344.926-.344 1.563c0 .771.181 1.362.531 1.781s.852.625 1.469.625c.505 0 .951-.138 1.344-.406s.594-.682.594-1.219v-4.219c-.532.067-1.054.179-1.531.313-.477.134-.899.311-1.25.562z" fill="param(fill)" fill-opacity="param(fill-opacity)" stroke="param(outline)" stroke-opacity="param(outline-opacity)" stroke-width="param(outline-width)"/>
<path d="m393.375 322.531c-.196-.57-.441-1.04-.75-1.375s-.714-.5-1.219-.5c-.561 0-1.027.414-1.406 1.219s-.563 2.016-.563 3.625c0 1.643.207 2.839.656 3.594.449.754 1.093 1.125 1.906 1.125.646 0 1.214-.082 1.719-.25.056-.502.097-1.012.125-1.531s.031-1.055.031-1.625c0-.805-.023-1.574-.094-2.313s-.209-1.398-.405-1.969z" fill="param(fill)" fill-opacity="param(fill-opacity)" stroke="param(outline)" stroke-opacity="param(outline-opacity)" stroke-width="param(outline-width)"/>
<path d="m408 87.313c.211.52.508.948.844 1.25s.745.437 1.25.437c.336 0 .616-.012.813-.063s.321-.091.406-.125v-10.812c-.169-.134-.39-.231-.656-.281s-.494-.063-.719-.063c-.119 0-.234-.016-.344 0-.769.11-1.318.62-1.625 1.5-.351 1.006-.531 2.381-.531 4.125 0 .804.041 1.531.125 2.219s.226 1.293.437 1.813z" fill="param(fill)" fill-opacity="param(fill-opacity)" stroke="param(outline)" stroke-opacity="param(outline-opacity)" stroke-width="param(outline-width)"/>
<path d="m318.219 336.281c-.351.251-.603.566-.813.969s-.344.926-.344 1.563c0 .771.181 1.362.531 1.781s.852.656 1.469.656c.505 0 .951-.139 1.344-.406s.594-.682.594-1.219v-4.219c-.532.067-1.054.179-1.531.313-.478.135-.9.311-1.25.562z" fill="param(fill)" fill-opacity="param(fill-opacity)" stroke="param(outline)" stroke-opacity="param(outline-opacity)" stroke-width="param(outline-width)"/>
<path d="m342 339.625c.953 0 1.618-.536 1.969-1.625.351-1.09.5-2.506.5-4.25 0-1.51-.184-2.707-.563-3.563s-1.054-1.281-2.063-1.281c-.337 0-.616.043-.813.094-.196.05-.321.091-.406.125v10.156c.169.134.358.23.625.281.268.05.526.063.751.063z" fill="param(fill)" fill-opacity="param(fill-opacity)" stroke="param(outline)" stroke-opacity="param(outline-opacity)" stroke-width="param(outline-width)"/>
<path d="m314.469 86.969c.211.52.508.917.844 1.219s.745.469 1.25.469c.336 0 .616-.043.813-.094s.321-.091.406-.125v-10.813c-.169-.134-.39-.231-.656-.281s-.494-.063-.719-.063c-.953 0-1.618.494-1.969 1.5s-.531 2.381-.531 4.125c0 .804.041 1.563.125 2.25s.226 1.293.437 1.813z" fill="param(fill)" fill-opacity="param(fill-opacity)" stroke="param(outline)" stroke-opacity="param(outline-opacity)" stroke-width="param(outline-width)"/>
<path d="m340.938 265.406c.043-.226.063-.445.063-.625 0-.313-.039-.603-.094-.875-.022.224-.031.447-.031.688-.001.284.03.552.062.812z" fill="param(fill)" fill-opacity="param(fill-opacity)" stroke="param(outline)" stroke-opacity="param(outline-opacity)" stroke-width="param(outline-width)"/>
<path d="m345.813 63.563c0-.285-.017-.561-.063-.813v1.375c.036-.203.063-.397.063-.562z" fill="param(fill)" fill-opacity="param(fill-opacity)" stroke="param(outline)" stroke-opacity="param(outline-opacity)" stroke-width="param(outline-width)"/>
<path d="m217.031 278.813c-.954 0-1.587.525-1.938 1.531s-.531 2.35-.531 4.094v.031c0 .804.041 1.531.125 2.219s.227 1.292.438 1.813c.21.52.476.948.813 1.25s.776.438 1.281.438c.336 0 .585-.012.781-.063s.353-.091.438-.125v-10.844c-.168-.134-.39-.2-.656-.25-.267-.051-.527-.094-.751-.094z" fill="param(fill)" fill-opacity="param(fill-opacity)" stroke="param(outline)" stroke-opacity="param(outline-opacity)" stroke-width="param(outline-width)"/>
<path d="m217.031 126.438c-.119 0-.234-.016-.344 0-.769.11-1.318.62-1.625 1.5-.351 1.006-.5 2.381-.5 4.125 0 .804.041 1.531.125 2.219s.227 1.293.438 1.813.476.948.813 1.25.745.438 1.25.438c.336 0 .616-.012.813-.063s.321-.091.406-.125v-10.813c-.168-.134-.358-.231-.625-.281s-.527-.063-.751-.063z" fill="param(fill)" fill-opacity="param(fill-opacity)" stroke="param(outline)" stroke-opacity="param(outline-opacity)" stroke-width="param(outline-width)"/>
<path d="m300.281 386.563c-.351.251-.634.598-.844 1s-.313.926-.313 1.563c0 .771.181 1.362.531 1.781s.82.625 1.438.625c.505 0 .951-.139 1.344-.406s.594-.682.594-1.219v-4.219c-.532.067-1.022.179-1.5.313-.477.134-.899.311-1.25.562z" fill="param(fill)" fill-opacity="param(fill-opacity)" stroke="param(outline)" stroke-opacity="param(outline-opacity)" stroke-width="param(outline-width)"/>
<path d="m292.75 278.875c-.477 0-.879.136-1.188.438s-.554.716-.75 1.219-.336 1.082-.406 1.719-.094 1.268-.094 1.938c0 .738.023 1.454.094 2.125s.21 1.262.406 1.781.455.949.75 1.25.68.438 1.156.438.848-.15 1.156-.469.551-.73.719-1.25.305-1.142.375-1.813.094-1.356.094-2.094c0-1.475-.164-2.728-.5-3.75s-.943-1.532-1.812-1.532z" fill="param(fill)" fill-opacity="param(fill-opacity)" stroke="param(outline)" stroke-opacity="param(outline-opacity)" stroke-width="param(outline-width)"/>
<path d="m276.813 63.313c.117-.43.188-.827.188-1.125 0-.48-.089-.901-.219-1.281-.068.371-.094.766-.094 1.188 0 .435.051.837.125 1.218z" fill="param(fill)" fill-opacity="param(fill-opacity)" stroke="param(outline)" stroke-opacity="param(outline-opacity)" stroke-width="param(outline-width)"/>
<path d="m111.828 480.428h363.537c.008 0 .015 0 .021 0 3.574 0 6.472-2.898 6.472-6.473 0-1.581-.566-3.029-1.508-4.152l-17.995-24.917c-1.217-1.686-3.169-2.684-5.247-2.684h-327.242c-2.091 0-4.054 1.011-5.269 2.713l-18.038 25.28c-1.408 1.974-1.595 4.568-.486 6.723 1.111 2.155 3.331 3.51 5.755 3.51z" fill="param(fill)" fill-opacity="param(fill-opacity)" stroke="param(outline)" stroke-opacity="param(outline-opacity)" stroke-width="param(outline-width)"/>
<path d="m479.365 492.193h-371.537c-3.562 0-6.454 2.878-6.472 6.44l-.22 43.539c-.009 1.722.669 3.376 1.884 4.598 1.215 1.221 2.866 1.907 4.588 1.907h371.757c3.574 0 6.473-2.898 6.473-6.473v-43.539c0-3.573-2.899-6.472-6.473-6.472z" fill="param(fill)" fill-opacity="param(fill-opacity)" stroke="param(outline)" stroke-opacity="param(outline-opacity)" stroke-width="param(outline-width)"/>
</svg>
