<svg enable-background="new 0 0 580 580" height="580" viewBox="0 0 580 580" width="580" xmlns="http://www.w3.org/2000/svg">
<path d="m97.635 126.286l200.315 416.31 187.958-90.439-200.315-416.31zm32.865-5.786l128.504-61.832 59.275 123.19-128.504 61.832zm-19.896 15.824l13.799-6.64 10.723 22.285-13.799 6.64zm159.037-76.524l13.799-6.64 10.724 22.285-13.8 6.64zm-134.615 127.281l13.8-6.64 10.723 22.285-13.799 6.64zm159.037-76.524l13.8-6.64 10.723 22.285-13.799 6.64zm-134.614 127.28l13.799-6.64 10.723 22.285-13.8 6.64zm159.037-76.524l13.799-6.64 10.724 22.285-13.8 6.64zm-122.86 94.538l128.504-61.832 59.275 123.19-128.504 61.832zm-11.754 32.743l13.799-6.64 10.723 22.285-13.799 6.64zm159.036-76.524l13.8-6.64 10.723 22.285-13.799 6.64zm-134.614 127.28l13.799-6.639 10.723 22.285-13.799 6.64zm159.037-76.523l13.8-6.64 10.723 22.285-13.8 6.64zm-134.615 127.28l13.8-6.641 10.723 22.285-13.799 6.641zm159.038-76.524l13.799-6.64 10.724 22.285-13.8 6.64zm-131.001 77.618l128.503-61.832 59.275 123.19-128.504 61.832zm-3.614 49.662l13.8-6.64 10.723 22.285-13.799 6.64zm159.037-76.523l13.8-6.641 10.723 22.285-13.799 6.641zm-134.614 127.28l13.8-6.641 10.723 22.286-13.8 6.64zm159.037-76.524l13.799-6.64 10.724 22.285-13.8 6.641z" fill="param(fill)" fill-opacity="param(fill-opacity)" stroke="param(outline)" stroke-opacity="param(outline-opacity)" stroke-width="param(outline-width)"/>
<path d="m153.078 82.816h142.605v136.712h-142.605z" fill="param(fill)" opacity=".3317" stroke="param(outline)" stroke-width="param(outline-width)" transform="matrix(-.9011 .4336 -.4336 -.9011 492.1179 190.1048)"/>
<path d="m218.204 218.166h142.605v136.712h-142.605z" fill="param(fill)" opacity=".3317" stroke="param(outline)" stroke-width="param(outline-width)" transform="matrix(-.9011 .4336 -.4336 -.9011 674.6172 419.185)"/>
<path d="m283.331 353.517h142.604v136.712h-142.604z" fill="param(fill)" opacity=".3317" stroke="param(outline)" stroke-width="param(outline-width)" transform="matrix(-.9011 .4336 -.4336 -.9011 857.1152 648.2646)"/>
</svg>
