<?xml version="1.0" encoding="utf-8"?>
<!-- Generator: Adobe Illustrator 16.0.0, SVG Export Plug-In . SVG Version: 6.00 Build 0)  -->
<!DOCTYPE svg PUBLIC "-//W3C//DTD SVG 1.1//EN" "http://www.w3.org/Graphics/SVG/1.1/DTD/svg11.dtd">
<svg version="1.1"
	 id="svg2" xmlns:dc="http://purl.org/dc/elements/1.1/" xmlns:cc="http://creativecommons.org/ns#" xmlns:rdf="http://www.w3.org/1999/02/22-rdf-syntax-ns#" xmlns:svg="http://www.w3.org/2000/svg" xmlns:sodipodi="http://sodipodi.sourceforge.net/DTD/sodipodi-0.dtd" xmlns:inkscape="http://www.inkscape.org/namespaces/inkscape" inkscape:output_extension="org.inkscape.output.svg.inkscape" sodipodi:docbase="s:\Data\FacilityIcons" sodipodi:docname="tourist_waterwheel.svg" inkscape:version="0.46" sodipodi:version="0.32"
	 xmlns="http://www.w3.org/2000/svg" xmlns:xlink="http://www.w3.org/1999/xlink" x="0px" y="0px" width="580px" height="580px"
	 viewBox="0 0 580 580" enable-background="new 0 0 580 580" xml:space="preserve">
<sodipodi:namedview  showgrid="false" inkscape:cy="579.97806" inkscape:cx="-1101.0355" inkscape:zoom="0.65172414" pagecolor="#ffffff" bordercolor="#666666" guidetolerance="10.0" objecttolerance="10.0" gridtolerance="10.0" borderopacity="1.0" id="base" inkscape:current-layer="svg2" inkscape:window-y="20" inkscape:window-x="0" inkscape:pageopacity="0.0" inkscape:pageshadow="2" inkscape:window-width="1400" inkscape:window-height="1003">
	</sodipodi:namedview>
<defs>
	
	
		<inkscape:perspective  inkscape:vp_z="580 : 290 : 1" inkscape:vp_y="0 : 1000 : 0" inkscape:vp_x="0 : 290 : 1" sodipodi:type="inkscape:persp3d" id="perspective2441" inkscape:persp3d-origin="290 : 193.33333 : 1">
		</inkscape:perspective>
	
		<inkscape:perspective  inkscape:vp_z="744.09448 : 526.18109 : 1" inkscape:vp_y="0 : 1000 : 0" inkscape:vp_x="0 : 526.18109 : 1" sodipodi:type="inkscape:persp3d" id="perspective2466" inkscape:persp3d-origin="372.04724 : 350.78739 : 1">
		</inkscape:perspective>
	
		<inkscape:perspective  inkscape:vp_z="744.09448 : 526.18109 : 1" inkscape:vp_y="0 : 1000 : 0" inkscape:vp_x="0 : 526.18109 : 1" sodipodi:type="inkscape:persp3d" id="perspective3333" inkscape:persp3d-origin="372.04724 : 350.78739 : 1">
		</inkscape:perspective>
	
		<inkscape:perspective  inkscape:vp_z="744.09448 : 526.18109 : 1" inkscape:vp_y="0 : 1000 : 0" inkscape:vp_x="0 : 526.18109 : 1" sodipodi:type="inkscape:persp3d" id="perspective3401" inkscape:persp3d-origin="372.04724 : 350.78739 : 1">
		</inkscape:perspective>
	
		<inkscape:perspective  inkscape:vp_z="744.09448 : 526.18109 : 1" inkscape:vp_y="0 : 1000 : 0" inkscape:vp_x="0 : 526.18109 : 1" sodipodi:type="inkscape:persp3d" id="perspective3464" inkscape:persp3d-origin="372.04724 : 350.78739 : 1">
		</inkscape:perspective>
	
		<inkscape:perspective  inkscape:vp_z="450 : 225 : 1" inkscape:vp_y="0 : 1000 : 0" inkscape:vp_x="0 : 225 : 1" sodipodi:type="inkscape:persp3d" id="perspective3581" inkscape:persp3d-origin="225 : 150 : 1">
		</inkscape:perspective>
	
		<inkscape:perspective  inkscape:vp_z="450 : 225 : 1" inkscape:vp_y="0 : 1000 : 0" inkscape:vp_x="0 : 225 : 1" sodipodi:type="inkscape:persp3d" id="perspective4312" inkscape:persp3d-origin="225 : 150 : 1">
		</inkscape:perspective>
	
		<inkscape:perspective  inkscape:vp_z="744.09448 : 526.18109 : 1" inkscape:vp_y="0 : 1000 : 0" inkscape:vp_x="0 : 526.18109 : 1" sodipodi:type="inkscape:persp3d" id="perspective8860" inkscape:persp3d-origin="372.04724 : 350.78739 : 1">
		</inkscape:perspective>
	
		<inkscape:perspective  inkscape:vp_z="744.09448 : 526.18109 : 1" inkscape:vp_y="0 : 1000 : 0" inkscape:vp_x="0 : 526.18109 : 1" sodipodi:type="inkscape:persp3d" id="perspective8887" inkscape:persp3d-origin="372.04724 : 350.78739 : 1">
		</inkscape:perspective>
	
		<inkscape:perspective  inkscape:vp_z="32 : 16 : 1" inkscape:vp_y="0 : 1000 : 0" inkscape:vp_x="0 : 16 : 1" sodipodi:type="inkscape:persp3d" id="perspective4904" inkscape:persp3d-origin="16 : 10.666667 : 1">
		</inkscape:perspective>
	
		<inkscape:perspective  inkscape:vp_z="12 : 6 : 1" inkscape:vp_y="0 : 1000 : 0" inkscape:vp_x="0 : 6 : 1" sodipodi:type="inkscape:persp3d" id="perspective4668" inkscape:persp3d-origin="6 : 4 : 1">
		</inkscape:perspective>
	
		<inkscape:perspective  inkscape:vp_z="744.09448 : 526.18109 : 1" inkscape:vp_y="0 : 1000 : 0" inkscape:vp_x="0 : 526.18109 : 1" sodipodi:type="inkscape:persp3d" id="perspective4471" inkscape:persp3d-origin="372.04724 : 350.78739 : 1">
		</inkscape:perspective>
	
		<inkscape:perspective  inkscape:vp_z="60 : 30 : 1" inkscape:vp_y="0 : 1000 : 0" inkscape:vp_x="0 : 30 : 1" sodipodi:type="inkscape:persp3d" id="perspective3452" inkscape:persp3d-origin="30 : 20 : 1">
		</inkscape:perspective>
	
		<inkscape:perspective  inkscape:vp_z="580 : 290 : 1" inkscape:vp_y="0 : 1000 : 0" inkscape:vp_x="0 : 290 : 1" sodipodi:type="inkscape:persp3d" id="perspective9479" inkscape:persp3d-origin="290 : 193.33333 : 1">
		</inkscape:perspective>
	
		<inkscape:perspective  inkscape:vp_z="744.09448 : 526.18109 : 1" inkscape:vp_y="0 : 1000 : 0" inkscape:vp_x="0 : 526.18109 : 1" sodipodi:type="inkscape:persp3d" id="perspective9690" inkscape:persp3d-origin="372.04724 : 350.78739 : 1">
		</inkscape:perspective>
	
		<inkscape:perspective  inkscape:vp_z="580 : 290 : 1" inkscape:vp_y="0 : 1000 : 0" inkscape:vp_x="0 : 290 : 1" sodipodi:type="inkscape:persp3d" id="perspective9819" inkscape:persp3d-origin="290 : 193.33333 : 1">
		</inkscape:perspective>
	
		<inkscape:perspective  inkscape:vp_z="60 : 30 : 1" inkscape:vp_y="0 : 1000 : 0" inkscape:vp_x="0 : 30 : 1" sodipodi:type="inkscape:persp3d" id="perspective9817" inkscape:persp3d-origin="30 : 20 : 1">
		</inkscape:perspective>
	
		<inkscape:perspective  inkscape:vp_z="744.09448 : 526.18109 : 1" inkscape:vp_y="0 : 1000 : 0" inkscape:vp_x="0 : 526.18109 : 1" sodipodi:type="inkscape:persp3d" id="perspective9805" inkscape:persp3d-origin="372.04724 : 350.78739 : 1">
		</inkscape:perspective>
	
		<inkscape:perspective  inkscape:vp_z="12 : 6 : 1" inkscape:vp_y="0 : 1000 : 0" inkscape:vp_x="0 : 6 : 1" sodipodi:type="inkscape:persp3d" id="perspective9803" inkscape:persp3d-origin="6 : 4 : 1">
		</inkscape:perspective>
	
		<inkscape:perspective  inkscape:vp_z="32 : 16 : 1" inkscape:vp_y="0 : 1000 : 0" inkscape:vp_x="0 : 16 : 1" sodipodi:type="inkscape:persp3d" id="perspective9801" inkscape:persp3d-origin="16 : 10.666667 : 1">
		</inkscape:perspective>
	
		<inkscape:perspective  inkscape:vp_z="744.09448 : 526.18109 : 1" inkscape:vp_y="0 : 1000 : 0" inkscape:vp_x="0 : 526.18109 : 1" sodipodi:type="inkscape:persp3d" id="perspective9799" inkscape:persp3d-origin="372.04724 : 350.78739 : 1">
		</inkscape:perspective>
	
		<inkscape:perspective  inkscape:vp_z="744.09448 : 526.18109 : 1" inkscape:vp_y="0 : 1000 : 0" inkscape:vp_x="0 : 526.18109 : 1" sodipodi:type="inkscape:persp3d" id="perspective9797" inkscape:persp3d-origin="372.04724 : 350.78739 : 1">
		</inkscape:perspective>
	
		<inkscape:perspective  inkscape:vp_z="450 : 225 : 1" inkscape:vp_y="0 : 1000 : 0" inkscape:vp_x="0 : 225 : 1" sodipodi:type="inkscape:persp3d" id="perspective9795" inkscape:persp3d-origin="225 : 150 : 1">
		</inkscape:perspective>
	
		<inkscape:perspective  inkscape:vp_z="450 : 225 : 1" inkscape:vp_y="0 : 1000 : 0" inkscape:vp_x="0 : 225 : 1" sodipodi:type="inkscape:persp3d" id="perspective9793" inkscape:persp3d-origin="225 : 150 : 1">
		</inkscape:perspective>
	
		<inkscape:perspective  inkscape:vp_z="744.09448 : 526.18109 : 1" inkscape:vp_y="0 : 1000 : 0" inkscape:vp_x="0 : 526.18109 : 1" sodipodi:type="inkscape:persp3d" id="perspective9791" inkscape:persp3d-origin="372.04724 : 350.78739 : 1">
		</inkscape:perspective>
	
		<inkscape:perspective  inkscape:vp_z="744.09448 : 526.18109 : 1" inkscape:vp_y="0 : 1000 : 0" inkscape:vp_x="0 : 526.18109 : 1" sodipodi:type="inkscape:persp3d" id="perspective9789" inkscape:persp3d-origin="372.04724 : 350.78739 : 1">
		</inkscape:perspective>
	
		<inkscape:perspective  inkscape:vp_z="744.09448 : 526.18109 : 1" inkscape:vp_y="0 : 1000 : 0" inkscape:vp_x="0 : 526.18109 : 1" sodipodi:type="inkscape:persp3d" id="perspective9787" inkscape:persp3d-origin="372.04724 : 350.78739 : 1">
		</inkscape:perspective>
	
		<inkscape:perspective  inkscape:vp_z="744.09448 : 526.18109 : 1" inkscape:vp_y="0 : 1000 : 0" inkscape:vp_x="0 : 526.18109 : 1" sodipodi:type="inkscape:persp3d" id="perspective9785" inkscape:persp3d-origin="372.04724 : 350.78739 : 1">
		</inkscape:perspective>
	
		<inkscape:perspective  inkscape:vp_z="580 : 290 : 1" inkscape:vp_y="0 : 1000 : 0" inkscape:vp_x="0 : 290 : 1" sodipodi:type="inkscape:persp3d" id="perspective9783" inkscape:persp3d-origin="290 : 193.33333 : 1">
		</inkscape:perspective>
	
		<sodipodi:namedview  inkscape:cy="250.37448" inkscape:cx="475.26707" inkscape:zoom="0.61399264" pagecolor="#ffffff" bordercolor="#666666" borderopacity="1.0" id="namedview4258" inkscape:window-y="26" inkscape:window-x="0" inkscape:pageopacity="0.0" inkscape:pageshadow="2" inkscape:window-width="1012" inkscape:window-height="739">
		</sodipodi:namedview>
	
		<inkscape:perspective  inkscape:vp_z="200 : 100 : 1" inkscape:vp_y="0 : 1000 : 0" inkscape:vp_x="0 : 100 : 1" sodipodi:type="inkscape:persp3d" id="perspective11483" inkscape:persp3d-origin="100 : 66.666667 : 1">
		</inkscape:perspective>
	
		<inkscape:perspective  inkscape:vp_z="744.09448 : 526.18109 : 1" inkscape:vp_y="0 : 1000 : 0" inkscape:vp_x="0 : 526.18109 : 1" sodipodi:type="inkscape:persp3d" id="perspective34" inkscape:persp3d-origin="372.04724 : 350.78739 : 1">
		</inkscape:perspective>
	
		<inkscape:perspective  inkscape:vp_z="744.09448 : 526.18109 : 1" inkscape:vp_y="0 : 1000 : 0" inkscape:vp_x="0 : 526.18109 : 1" sodipodi:type="inkscape:persp3d" id="perspective12300" inkscape:persp3d-origin="372.04724 : 350.78739 : 1">
		</inkscape:perspective>
	
		<inkscape:perspective  inkscape:vp_z="580 : 290 : 1" inkscape:vp_y="0 : 1000 : 0" inkscape:vp_x="0 : 290 : 1" sodipodi:type="inkscape:persp3d" id="perspective3653" inkscape:persp3d-origin="290 : 193.33333 : 1">
		</inkscape:perspective>
</defs>
<g id="layer3" transform="matrix(48.14969,0,0,48.14969,-1210.2219,-51.870914)" inkscape:label="Layout" display="none">
	<rect id="rect4134" x="1" y="1" display="inline" fill="none" stroke="#757575" stroke-width="0.1" width="10" height="10"/>
	<rect id="rect4136" x="2" y="2" display="inline" fill="none" stroke="#757575" stroke-width="0.1" width="8" height="8"/>
</g>
<g id="g9828" transform="matrix(48.14969,0,0,48.14969,-1870.5198,102.97115)" inkscape:label="Layout" display="none">
	<rect id="rect9830" x="1" y="1" display="inline" fill="none" stroke="#757575" stroke-width="0.1" width="10" height="10"/>
	<rect id="rect9832" x="2" y="2" display="inline" fill="none" stroke="#757575" stroke-width="0.1" width="8" height="8"/>
</g>
<path fill="param(fill)" fill-opacity="param(fill-opacity)" stroke="param(outline)" stroke-opacity="param(outline-opacity)" stroke-width="param(outline-width)" d="M78.411,478.928c8.833-2.73,23.02-12.547,36.387-13.567
	c13.244-1.125,27.864,8.771,42.819,7.124c14.81-1.983,30.344-15.606,45.508-17.448c14.754-1.98,29.014,7.713,43.958,6.544
	c15.159-1.305,29.591-12.746,45.835-13.978c16.013-1.27,33.309,8.076,49.633,6.484c16.014-1.862,30.128-14.877,46.84-16.567
	c16.774-1.634,36.31,7.978,52.781,6.728c16.215-1.525,31.996-13.75,43.837-15.277c11.55-1.621,18.621,5.308,25.746,6.181
	c7.008,0.824,12.267,0.566,16.205-1.051l-2.931-31.164c-3.938,1.619-9.197,1.874-16.205,1.051
	c-7.131-0.933-14.19-7.742-25.752-6.241c-11.842,1.529-27.622,13.751-43.836,15.275c-16.478,1.196-35.996-8.243-52.776-6.665
	c-12.001,1.215-22.662,8.267-33.649,12.836l-16.727-39.608c33.99-13.565,61.652-38.611,78.613-71.45
	c4.535-8.781,8.166-17.866,10.897-27.142l36.449,9.268c0.077,0.02,0.154,0.029,0.231,0.029c0.263,0,0.518-0.111,0.698-0.312
	l22.125-24.627c0.235-0.262,0.305-0.632,0.18-0.961s-0.424-0.56-0.772-0.6l-54.005-6.084c2.815-21.79,0.849-44.116-6.024-65.671
	c-7.063-22.154-18.818-41.97-34.489-58.463l26.176-26.133c0.247-0.247,0.337-0.61,0.233-0.943l-9.835-31.611
	c-0.104-0.336-0.388-0.585-0.734-0.646c-0.344-0.061-0.697,0.077-0.91,0.357l-32.668,43.024c-1.264-0.969-2.53-1.936-3.828-2.869
	c-26.144-18.801-56.899-28.739-88.941-28.739c-11.257,0-22.47,1.266-33.48,3.758l-9.828-38.299l-38.821-9.162l22.793,55.773
	c-42.514,17.945-73.234,53.654-86.159,95.508l-37.93-10.853c-0.334-0.094-0.696,0.002-0.938,0.255l-22.847,23.959
	c-0.242,0.254-0.323,0.623-0.208,0.956c0.115,0.332,0.406,0.572,0.754,0.622l55.977,7.996c-3.232,22.129-1.625,45.3,5.613,68.001
	c6.772,21.239,17.853,40.334,32.564,56.41l-28.763,27.794c-0.251,0.242-0.347,0.604-0.249,0.939l9.318,31.768
	c0.099,0.337,0.378,0.591,0.723,0.657c0.06,0.012,0.119,0.017,0.178,0.017c0.285,0,0.559-0.13,0.738-0.358l35.184-44.802
	c2.078,1.663,4.186,3.296,6.361,4.86c26.145,18.801,56.899,28.738,88.941,28.738c11.493,0,22.939-1.316,34.171-3.914l9.42,35.02
	c-11.128-2.205-22.353-6.059-33.009-5.215c-16.255,1.114-30.682,12.616-45.84,13.92c-14.949,1.111-29.188-8.349-43.953-6.486
	c-15.148,2.021-30.709,15.347-45.508,17.45c-14.955,1.645-29.577-8.251-42.819-7.127c-13.366,1.021-27.554,10.837-36.387,13.566
	c-8.849,2.556-14.52,3.267-16.786,2.113l2.931,31.166C63.892,482.19,69.562,481.481,78.411,478.928z M410.256,305.838
	c-16.417,31.788-43.204,56.024-76.117,69.137l-45.314-107.308c8.649-2.761,15.238-9.005,18.716-16.691l113.204,28.782
	C418.108,288.669,414.614,297.398,410.256,305.838z M419.714,193.552c6.656,20.873,8.555,42.494,5.816,63.593l-115.798-13.046
	c0.951-4.905,0.725-10.106-0.897-15.192c-1.109-3.479-2.799-6.634-4.918-9.406l82.587-82.452
	C401.314,152.757,412.81,171.897,419.714,193.552z M279.481,91.009c33.452,0,64.745,11.15,89.832,30.476l-70.464,92.801
	c-5.352-4.334-12.125-6.865-19.398-6.865c-1.074,0-2.145,0.078-3.211,0.19L247.248,94.626
	C257.851,92.237,268.644,91.009,279.481,91.009z M222.038,102.708l44.042,107.766c-6.024,2.88-10.929,7.612-14.046,13.648
	c-0.486,0.94-0.918,1.898-1.302,2.869l-111.938-32.029C151.305,154.541,180.981,120.058,222.038,102.708z M139.173,283.005
	c-7.001-21.959-8.555-44.371-5.428-65.776l115.186,16.455c-0.701,4.624-0.341,9.38,1.122,13.966c1.021,3.2,2.52,6.137,4.403,8.746
	l-83.931,81.105C156.611,322.179,145.786,303.745,139.173,283.005z M279.406,385.547c-34.558,0-66.813-11.9-92.3-32.421
	l71.976-91.652c5.486,4.825,12.644,7.661,20.354,7.661c0.837,0,1.672-0.039,2.505-0.107l30.333,112.766
	C301.469,384.277,290.46,385.547,279.406,385.547z"/>
<path fill="param(fill)" fill-opacity="param(fill-opacity)" stroke="param(outline)" stroke-opacity="param(outline-opacity)" stroke-width="param(outline-width)" d="M529.936,455.096c-3.95,1.496-9.203,1.813-16.211,0.989
	c-7.125-0.871-14.196-7.803-25.746-6.183c-11.843,1.528-27.623,13.75-43.837,15.274c-16.477,1.195-35.996-8.24-52.775-6.663
	c-16.713,1.691-30.827,14.705-46.841,16.565c-16.323,1.596-33.619-7.753-49.633-6.485c-16.255,1.113-30.682,12.614-45.84,13.922
	c-14.949,1.109-29.188-8.35-43.953-6.485c-15.148,2.017-30.709,15.344-45.508,17.45c-14.956,1.642-29.577-8.255-42.82-7.128
	c-13.366,1.021-27.554,10.837-36.386,13.566c-8.838,2.672-14.531,3.146-16.792,2.054l2.931,31.165
	c2.261,1.092,7.954,0.618,16.792-2.054c8.833-2.731,23.02-12.546,36.386-13.566c13.244-1.127,27.864,8.77,42.82,7.128
	c14.799-2.106,30.36-15.434,45.508-17.451c14.765-1.863,29.003,7.596,43.953,6.486c15.158-1.308,29.584-12.809,45.84-13.922
	c16.014-1.268,33.31,8.08,49.633,6.485c16.014-1.86,30.128-14.878,46.841-16.565c16.779-1.578,36.298,7.858,52.775,6.663
	c16.214-1.524,31.995-13.746,43.837-15.274c11.561-1.503,18.621,5.307,25.752,6.24c7.007,0.824,12.266,0.568,16.205-1.047
	L529.936,455.096z"/>
</svg>
