<svg enable-background="new 0 0 580 580" height="580" viewBox="0 0 580 580" width="580" xmlns="http://www.w3.org/2000/svg">
<path d="m553.404 150.86c-3.313-4.506-8.543-6.988-14.729-6.988-1.217 0-2.498.094-3.814.279-10.568.754-21.088 1.83-31.266 2.872-15.517 1.587-30.172 3.087-41.863 3.087-7.179 0-12.742-.581-16.536-1.727l-.29-.083c-47.523-12.804-67.9-28.34-95.856-49.804-6.831-6.367-19.963-16.601-33.777-16.601-8.933 0-16.478 4.147-21.821 11.994l-.904 1.328-.442 1.544c-2.375 8.279-4.914 16.701-7.37 24.846-.641 2.127-1.285 4.267-1.928 6.408-4.838-4.625-10.859-7.045-17.735-7.045-13.827.03-26.928 10.238-33.739 16.586-27.942 21.454-48.31 36.983-95.84 49.789l-.29.083c-3.798 1.147-9.372 1.729-16.566 1.729-11.703 0-26.371-1.499-41.9-3.085-10.161-1.038-20.663-2.111-31.212-2.864-1.317-.186-2.598-.279-3.815-.279-6.185 0-11.416 2.482-14.727 6.988-7.869 10.708-2.181 28.885 3.319 46.463 1.767 5.645 3.435 10.977 4.083 14.494l.115.625.193.606c19.807 62.03 44.72 133.094 89.869 191.423l.469.563c31.185 34.706 67.623 53.82 102.604 53.822.38 0 .755-.002 1.137-.007l.717-.033c33.372-2.782 62.698-27.994 72.477-61.834 13.348 12.876 30.528 21.246 48.943 22.782l.717.033c.381.005.755.007 1.135.007 34.958 0 71.392-19.121 102.59-53.842l.47-.563c45.203-58.399 70.103-129.42 89.895-191.405l.193-.605.115-.625c.646-3.515 2.312-8.841 4.074-14.479 5.495-17.587 11.179-35.771 3.305-46.482zm-82.588 116.941c-1.298 2.831-5.402 3.05-6.629 3.05-1.641 0-3.34-.313-4.786-.879l-.679-.266-.71-.165c-14.593-3.39-25.844-18.539-26.171-35.236l-.014-.685-.106-.677c-.748-4.743.422-10.208 2.912-13.598 1.418-1.932 3.113-3.021 5.182-3.328l.44-.076c.399-.078.82-.122 1.252-.13l.103-.002c.163-.005.327-.007.488-.007 11.055 0 19.573 11.814 21.125 22.76l.179 1.254.484 1.17c.851 2.053 1.795 4.107 2.709 6.093 4.298 9.342 6.728 15.393 4.221 20.722zm-89.741-50.265l-.406.413c-11.366 12.252-26.646 19.566-40.872 19.566-3.175 0-6.299-.371-9.293-1.102-3.814-1.55-7.109-5.612-8.272-10.248-.519-2.067-.988-5.901 1.441-8.964 8.202-6.801 19.457-8.766 31.358-10.843 7.192-1.255 14.61-2.55 21.813-4.974 3.233.554 4.895 3.815 5.487 5.29 1.351 3.355 1.533 8.185-1.256 10.862zm-42.405 117.818l.47-.286.437-.336c11.087-8.552 23.606-13.292 35.264-13.356 16.054.3 32.642 9.687 44.502 25.16 2.678 4.969 3.108 11.912 1.046 17.473-1.025 2.767-3.097 6.336-7.18 8.003-.186.021-.367.033-.547.033-2.627 0-6.086-2.667-9.747-5.49-2.77-2.136-5.63-4.342-8.962-6.121-9.011-5.662-19.853-8.652-31.389-8.652-7.978 0-15.985 1.376-23.805 4.091-1.032.309-2.167.472-3.291.472-.413 0-4.05-.052-4.67-1.852l-.248-.646c-2.732-6.442 1.993-14.763 8.12-18.493zm-55.025 91.813l-.17.612c-6.559 26.804-29.779 47.829-55.296 50.131-.181.001-.361.002-.542.002-39.238-.002-71.562-29.266-87.484-46.919-42.876-55.526-67-124.242-86.224-184.403-.912-4.595-2.676-10.232-4.538-16.184-2.256-7.21-6.704-21.421-6.372-27.351l.716.076c10.365.732 20.84 1.802 30.97 2.837 16.051 1.64 31.211 3.188 43.933 3.188 9.201 0 16.463-.831 22.195-2.538 51.489-13.893 74.252-31.373 103.071-53.5l.402-.309.369-.348c7.391-6.971 15.415-11.483 20.459-11.494 1.288 0 2.774.184 4.453 2.126 1.563 5.414 3.14 10.718 4.481 15.193-.21.775-.409 1.526-.612 2.286-.225.842-.45 1.683-.671 2.526-2.31 8.784-4.156 16.577-5.703 24.065l-.143.892c-4.563 40.096-6.109 76.073-4.597 109.118 1.484 32.593 5.943 62.32 13.43 90.307.304 1.177.627 2.348.961 3.51.253.903.523 1.838.817 2.788.526 2.117 1.142 4.213 1.831 6.287.132.402.275.799.413 1.198.177.507.352 1.015.538 1.52.297.812.609 1.614.928 2.414.013.031.025.063.038.094 1.53 3.815 3.309 7.495 5.322 11.015-.405 1.594-.853 3.309-1.364 5.219-.489 1.894-1.032 3.792-1.611 5.642z" fill="param(fill)" fill-opacity="param(fill-opacity)" stroke="param(outline)" stroke-opacity="param(outline-opacity)" stroke-width="param(outline-width)"/>
<path d="m253.217 341.186c-12.414-2.736-13.344 15.922-20.482 22.763-11.011 18.874-32.136 33.736-54.739 30.878-9.691-.881-21.545-10.224-29.846-1.001 7.496 14.043 22.386 23.286 37.973 25.452 12.826 2.616 25.127-3.227 37.49-5.526 9.667-2.479 15.217-11.046 20.806-18.531 7.095-8.421 12.462-18.351 13.878-29.395 2.186-8.284 3.873-19.685-5.08-24.64z" fill="param(fill)" fill-opacity="param(fill-opacity)" stroke="param(outline)" stroke-opacity="param(outline-opacity)" stroke-width="param(outline-width)"/>
<path d="m156.036 281.4c-8.307-11.133-20.72-18.65-33.846-22.757-11.146-5.188-27.904 3.474-26.02 16.757 8.447 11.675 22.81 16 34.725 23.033 3.077 1.17 6.02 2.688 9.177 3.643 11.908 5.159 21.478-10.658 15.964-20.676z" fill="param(fill)" fill-opacity="param(fill-opacity)" stroke="param(outline)" stroke-opacity="param(outline-opacity)" stroke-width="param(outline-width)"/>
<path d="m216.154 279.686c9.765-.851 15.369-10.448 17.647-18.995 3.771-8.461 12.129-17.424 7.384-27.204-9.041-6.632-21.248-2.771-29.754 2.849-12.951 7.509-12.873 26.561-4.539 37.505 1.839 3.331 5.33 5.943 9.262 5.845z" fill="param(fill)" fill-opacity="param(fill-opacity)" stroke="param(outline)" stroke-opacity="param(outline-opacity)" stroke-width="param(outline-width)"/>
</svg>
