<svg enable-background="new 0 0 580 580" height="580" viewBox="0 0 580 580" width="580" xmlns="http://www.w3.org/2000/svg">
<path d="m519.817 479.162v-313.339h34.229v-56.906h3.849l-3.849-1.305v-15.379h-45.346l-215.02-72.921-219.098 72.921h-46.47v15.467l-3.659 1.218h3.659v56.906h34.84v313.339h-8.747l-31.045 51.304 534.483-.93-29.084-50.375zm-60.576-313.339v313.339h-335.491v-313.339z" fill="param(fill)" fill-opacity="param(fill-opacity)" stroke="param(outline)" stroke-opacity="param(outline-opacity)" stroke-width="param(outline-width)"/>
<path d="m184.579 379.207c9.607 16.273 23.822 30.879 40.218 41.314 11.272 7.176 32.006 14.762 44.354 16.376 7.387.966 17.134 2.368 30.521 2.156l5.331 29.035c.607 4.653 10.992 3.364 10.813-1.05l-4.824-28.524c.351-.027.707-.058 1.062-.088l6.585 19.954c1.261 4.533 10.516 1.994 9.682-2.354l-5.915-18.73c3.052-.408 6.229-.894 9.555-1.477 23.497-5.474 46.744-20.301 59.249-34.638s14.7-20.726 17.819-36.118c3.8-18.753-1.416-44.514-12.97-64.117-7.59-12.877-21.285-28.094-31.559-35.042-17.56-11.875-49.136-23.786-69.697-26.305-5.977-.328-11.79-.921-17.633-1.088l-4.526-26.764-14.354 1.896 4.709 25.65c-.977.159-1.959.35-2.947.564l-9.882-31.292-12.775 3.622 10.504 31.83c-1.091.518-2.189 1.071-3.301 1.682-1.715.493-5.334 6.152-8.64 9.814-10.679 11.832-12.642 28.604-5.022 42.777 7.92 14.732 6.59 24.893-3.675 28.057-4.347 1.34-6.261.98-15.856-2.791-6.001-2.357-13.073-4.27-15.702-4.252-7.43.048-14.593 4.52-18.493 11.507-2.927 5.245-3.431 7.571-3.464 16.665-.042 11.626 1.375 15.713 10.833 31.731zm181.095-53.187c1.709-1.939 3.557-2.672 7.313-2.636.866.009 1.833.068 2.925.154 13.867 1.086 17.877 6.533 14.259 19.358-1.09 3.863-2.26 9.462-2.598 12.469-1.388 12.356-8.7 17.838-18.223 13.624-16.475-7.29-16.436-7.272-18.454-15.895-2.047-8.742-1.318-10.624 7.639-19.569 2.428-2.425 5.644-5.806 7.139-7.505zm-48.165-44.008c2.88-3.301 6.659-8.141 8.409-10.757 2.452-3.664 3.53-4.541 6.851-4.561.475-.003.982.012 1.559.039 6.738.308 12.813 2.629 15.375 5.869 2.938 3.714 7.207 22.481 6.331 27.826-.698 4.257-10.138 16.029-12.854 16.029-.637 0-1.888.268-2.79.596-.902.329-3.594-.264-5.966-1.309-2.371-1.045-5.808-1.941-7.639-2.001-5.605-.181-9.173-2.941-11.912-9.218-4.23-9.692-3.543-15.43 2.636-22.513zm-7.87 87.883c2.971-3.4 4.862-5.072 7.678-5.215.155-.008.301-.021.462-.02 2.418.02 5.563 1.084 10.507 3.021 3.049 1.193 7.185 2.676 9.217 3.309 2.858.891 4.459 2.914 7.023 8.91 6.112 14.287 3.99 20.996-7.523 23.822-3.469.852-8.293 2.487-10.737 3.656-5.194 2.484-9.779 2.457-13.222.272l-7.831-24.795c-.589-7.236.563-8.542 4.426-12.96zm-17.897-90.885c0 5.529-1.979 10.6-5.265 14.543l-5.751-34.01c6.6 3.972 11.016 11.204 11.016 19.467zm-25.586-22.519l1.182 6.44-1.997-6.324c.27-.044.542-.081.815-.116zm-12.287 5.618l13.043 39.525c-11.544-1.074-20.602-10.802-20.602-22.624 0-6.713 2.921-12.744 7.559-16.901zm-1.882 109.555c1.643-.264 3.834-1.35 4.869-2.405 1.034-1.056 4.228-2.345 7.081-2.867 1.067-.195 1.98-.298 2.867-.308 2.661-.029 4.922.878 9.121 3.31 6.616 3.831 12.932 11.2 12.932 15.067 0 1.051-1.108 4.386-2.463 7.428-1.355 3.041-2.48 6.504-2.501 7.697s-1.454 4.014-3.175 6.254c-2.74 3.566-4.187 4.143-11.642 4.753-7.062.578-8.624.327-9.256-1.559-.419-1.251-3.284-3.724-6.37-5.484-3.808-2.173-6.167-4.676-7.293-7.755-3.569-9.76-.333-23.139 5.83-24.131zm-54.419-14.336c1.608-6.143 7.252-12.604 11.065-12.797.123-.006.227-.006.346 0 1.586.094 6.765.34 11.507.539 4.743.2 9.32.887 10.18 1.501 2.073 1.483 7.678 14.216 7.678 17.454 0 4.037-3.349 8.513-11.45 15.259-6.414 5.341-8.385 6.254-13.431 6.254-6.052.001-10.834-3.331-10.834-7.543 0-1.048-1.439-4.996-3.194-8.774-2.789-6.003-3.017-7.498-1.867-11.893z" fill="param(fill)" fill-opacity="param(fill-opacity)" stroke="param(outline)" stroke-opacity="param(outline-opacity)" stroke-width="param(outline-width)"/>
<path d="m249.403 207.527c-.467-5.133 2.438-9.144-2.273-14.982-6.59-8.167-9.694-10.613-13.723-15.226-2.512 9.19-6.256 20.839 3.789 32.955z" fill="param(fill)" fill-opacity="param(fill-opacity)" stroke="param(outline)" stroke-opacity="param(outline-opacity)" stroke-width="param(outline-width)"/>
<path d="m271.99 210.618c.347-5.143 4.138-8.729.033-15.131-5.743-8.956-8.681-11.788-12.253-16.887-4.226 8.765-10.186 19.801-1.376 33.122z" fill="param(fill)" fill-opacity="param(fill-opacity)" stroke="param(outline)" stroke-opacity="param(outline-opacity)" stroke-width="param(outline-width)"/>
</svg>
