<?xml version="1.0" encoding="utf-8"?>
<!-- Generator: Adobe Illustrator 16.0.0, SVG Export Plug-In . SVG Version: 6.00 Build 0)  -->
<!DOCTYPE svg PUBLIC "-//W3C//DTD SVG 1.1//EN" "http://www.w3.org/Graphics/SVG/1.1/DTD/svg11.dtd">
<svg version="1.1"
	 id="svg2" xmlns:dc="http://purl.org/dc/elements/1.1/" xmlns:cc="http://creativecommons.org/ns#" xmlns:rdf="http://www.w3.org/1999/02/22-rdf-syntax-ns#" xmlns:svg="http://www.w3.org/2000/svg" xmlns:sodipodi="http://sodipodi.sourceforge.net/DTD/sodipodi-0.dtd" xmlns:inkscape="http://www.inkscape.org/namespaces/inkscape" inkscape:output_extension="org.inkscape.output.svg.inkscape" sodipodi:docbase="s:\Data\FacilityIcons" sodipodi:docname="theatre.svg" inkscape:version="0.46" sodipodi:version="0.32"
	 xmlns="http://www.w3.org/2000/svg" xmlns:xlink="http://www.w3.org/1999/xlink" x="0px" y="0px" width="580px" height="580px"
	 viewBox="0 0 580 580" enable-background="new 0 0 580 580" xml:space="preserve">
<sodipodi:namedview  showgrid="false" inkscape:cy="163.05342" inkscape:cx="628.59125" inkscape:zoom="0.46083856" pagecolor="#ffffff" bordercolor="#666666" guidetolerance="10.0" objecttolerance="10.0" gridtolerance="10.0" borderopacity="1.0" id="base" inkscape:current-layer="svg2" inkscape:window-y="25" inkscape:window-x="91" inkscape:pageopacity="0.0" inkscape:pageshadow="2" inkscape:window-width="1048" inkscape:window-height="947">
	</sodipodi:namedview>
<defs>
	
	
		<inkscape:perspective  inkscape:vp_z="580 : 290 : 1" inkscape:vp_y="0 : 1000 : 0" inkscape:vp_x="0 : 290 : 1" sodipodi:type="inkscape:persp3d" id="perspective2441" inkscape:persp3d-origin="290 : 193.33333 : 1">
		</inkscape:perspective>
	
		<inkscape:perspective  inkscape:vp_z="60 : 30 : 1" inkscape:vp_y="0 : 1000 : 0" inkscape:vp_x="0 : 30 : 1" sodipodi:type="inkscape:persp3d" id="perspective3452" inkscape:persp3d-origin="30 : 20 : 1">
		</inkscape:perspective>
	
		<inkscape:perspective  inkscape:vp_z="744.09448 : 526.18109 : 1" inkscape:vp_y="0 : 1000 : 0" inkscape:vp_x="0 : 526.18109 : 1" sodipodi:type="inkscape:persp3d" id="perspective4471" inkscape:persp3d-origin="372.04724 : 350.78739 : 1">
		</inkscape:perspective>
	
		<inkscape:perspective  inkscape:vp_z="12 : 6 : 1" inkscape:vp_y="0 : 1000 : 0" inkscape:vp_x="0 : 6 : 1" sodipodi:type="inkscape:persp3d" id="perspective4668" inkscape:persp3d-origin="6 : 4 : 1">
		</inkscape:perspective>
	
		<inkscape:perspective  inkscape:vp_z="744.09448 : 526.18109 : 1" inkscape:vp_y="0 : 1000 : 0" inkscape:vp_x="0 : 526.18109 : 1" sodipodi:type="inkscape:persp3d" id="perspective2543" inkscape:persp3d-origin="372.04724 : 350.78739 : 1">
		</inkscape:perspective>
</defs>
<g id="layer3" transform="matrix(48.14969,0,0,48.14969,-536.27327,-33.306752)" inkscape:label="Layout" display="none">
	<rect id="rect4134" x="1" y="1" display="inline" fill="none" stroke="#757575" stroke-width="0.1" width="10" height="10"/>
	<rect id="rect4136" x="2" y="2" display="inline" fill="none" stroke="#757575" stroke-width="0.1" width="8" height="8"/>
</g>
<path fill="#FFFB3D" stroke="#1EFF31" stroke-width="4.4444" d="M553.404,150.86c-3.313-4.506-8.543-6.988-14.729-6.988
	c-1.217,0-2.498,0.094-3.814,0.279c-10.568,0.754-21.088,1.83-31.266,2.872c-15.517,1.587-30.172,3.087-41.863,3.087
	c-7.179,0-12.742-0.581-16.536-1.727l-0.29-0.083c-47.523-12.804-67.9-28.34-95.856-49.804
	c-6.831-6.367-19.963-16.601-33.777-16.601c-8.933,0-16.478,4.147-21.821,11.994l-0.904,1.328l-0.442,1.544
	c-2.375,8.279-4.914,16.701-7.37,24.846c-0.641,2.127-1.285,4.267-1.928,6.408c-4.838-4.625-10.859-7.045-17.735-7.045
	c-13.827,0.03-26.928,10.238-33.739,16.586c-27.942,21.454-48.31,36.983-95.84,49.789l-0.29,0.083
	c-3.798,1.147-9.372,1.729-16.566,1.729c-11.703,0-26.371-1.499-41.9-3.085c-10.161-1.038-20.663-2.111-31.212-2.864
	c-1.317-0.186-2.598-0.279-3.815-0.279c-6.185,0-11.416,2.482-14.727,6.988c-7.869,10.708-2.181,28.885,3.319,46.463
	c1.767,5.645,3.435,10.977,4.083,14.494l0.115,0.625l0.193,0.606c19.807,62.03,44.72,133.094,89.869,191.423l0.469,0.563
	c31.185,34.706,67.623,53.82,102.604,53.822c0.38,0,0.755-0.002,1.137-0.007l0.717-0.033c33.372-2.782,62.698-27.994,72.477-61.834
	c13.348,12.876,30.528,21.246,48.943,22.782l0.717,0.033c0.381,0.005,0.755,0.007,1.135,0.007c34.958,0,71.392-19.121,102.59-53.842
	l0.47-0.563c45.203-58.399,70.103-129.42,89.895-191.405l0.193-0.605l0.115-0.625c0.646-3.515,2.312-8.841,4.074-14.479
	C555.594,179.755,561.278,161.571,553.404,150.86z M470.816,267.801c-1.298,2.831-5.402,3.05-6.629,3.05
	c-1.641,0-3.34-0.313-4.786-0.879l-0.679-0.266l-0.71-0.165c-14.593-3.39-25.844-18.539-26.171-35.236l-0.014-0.685l-0.106-0.677
	c-0.748-4.743,0.422-10.208,2.912-13.598c1.418-1.932,3.113-3.021,5.182-3.328l0.44-0.076c0.399-0.078,0.82-0.122,1.252-0.13
	l0.103-0.002c0.163-0.005,0.327-0.007,0.488-0.007c11.055,0,19.573,11.814,21.125,22.76l0.179,1.254l0.484,1.17
	c0.851,2.053,1.795,4.107,2.709,6.093C470.893,256.421,473.323,262.472,470.816,267.801z M381.075,217.536l-0.406,0.413
	c-11.366,12.252-26.646,19.566-40.872,19.566c-3.175,0-6.299-0.371-9.293-1.102c-3.814-1.55-7.109-5.612-8.272-10.248
	c-0.519-2.067-0.988-5.901,1.441-8.964c8.202-6.801,19.457-8.766,31.358-10.843c7.192-1.255,14.61-2.55,21.813-4.974
	c3.233,0.554,4.895,3.815,5.487,5.29C383.682,210.029,383.864,214.859,381.075,217.536z M338.67,335.354l0.47-0.286l0.437-0.336
	c11.087-8.552,23.606-13.292,35.264-13.356c16.054,0.3,32.642,9.687,44.502,25.16c2.678,4.969,3.108,11.912,1.046,17.473
	c-1.025,2.767-3.097,6.336-7.18,8.003c-0.186,0.021-0.367,0.033-0.547,0.033c-2.627,0-6.086-2.667-9.747-5.49
	c-2.77-2.136-5.63-4.342-8.962-6.121c-9.011-5.662-19.853-8.652-31.389-8.652c-7.978,0-15.985,1.376-23.805,4.091
	c-1.032,0.309-2.167,0.472-3.291,0.472c-0.413,0-4.05-0.052-4.67-1.852l-0.248-0.646
	C327.818,347.405,332.543,339.084,338.67,335.354z M283.645,427.167l-0.17,0.612c-6.559,26.804-29.779,47.829-55.296,50.131
	c-0.181,0.001-0.361,0.002-0.542,0.002c-39.238-0.002-71.562-29.266-87.484-46.919c-42.876-55.526-67-124.242-86.224-184.403
	c-0.912-4.595-2.676-10.232-4.538-16.184c-2.256-7.21-6.704-21.421-6.372-27.351l0.716,0.076c10.365,0.732,20.84,1.802,30.97,2.837
	c16.051,1.64,31.211,3.188,43.933,3.188c9.201,0,16.463-0.831,22.195-2.538c51.489-13.893,74.252-31.373,103.071-53.5l0.402-0.309
	l0.369-0.348c7.391-6.971,15.415-11.483,20.459-11.494c1.288,0,2.774,0.184,4.453,2.126c1.563,5.414,3.14,10.718,4.481,15.193
	c-0.21,0.775-0.409,1.526-0.612,2.286c-0.225,0.842-0.45,1.683-0.671,2.526c-2.31,8.784-4.156,16.577-5.703,24.065l-0.143,0.892
	c-4.563,40.096-6.109,76.073-4.597,109.118c1.484,32.593,5.943,62.32,13.43,90.307c0.304,1.177,0.627,2.348,0.961,3.51
	c0.253,0.903,0.523,1.838,0.817,2.788c0.526,2.117,1.142,4.213,1.831,6.287c0.132,0.402,0.275,0.799,0.413,1.198
	c0.177,0.507,0.352,1.015,0.538,1.52c0.297,0.812,0.609,1.614,0.928,2.414c0.013,0.031,0.025,0.063,0.038,0.094
	c1.53,3.815,3.309,7.495,5.322,11.015c-0.405,1.594-0.853,3.309-1.364,5.219C284.767,423.419,284.224,425.317,283.645,427.167z"/>
<path fill="#FFFB3D" stroke="#1EFF31" stroke-width="4.4444" d="M253.217,341.186c-12.414-2.736-13.344,15.922-20.482,22.763
	c-11.011,18.874-32.136,33.736-54.739,30.878c-9.691-0.881-21.545-10.224-29.846-1.001c7.496,14.043,22.386,23.286,37.973,25.452
	c12.826,2.616,25.127-3.227,37.49-5.526c9.667-2.479,15.217-11.046,20.806-18.531c7.095-8.421,12.462-18.351,13.878-29.395
	C260.483,357.542,262.17,346.141,253.217,341.186z"/>
<path fill="#FFFB3D" stroke="#1EFF31" stroke-width="4.4444" d="M156.036,281.4c-8.307-11.133-20.72-18.65-33.846-22.757
	c-11.146-5.188-27.904,3.474-26.02,16.757c8.447,11.675,22.81,16,34.725,23.033c3.077,1.17,6.02,2.688,9.177,3.643
	C151.98,307.235,161.55,291.418,156.036,281.4z"/>
<path fill="#FFFB3D" stroke="#1EFF31" stroke-width="4.4444" d="M216.154,279.686c9.765-0.851,15.369-10.448,17.647-18.995
	c3.771-8.461,12.129-17.424,7.384-27.204c-9.041-6.632-21.248-2.771-29.754,2.849c-12.951,7.509-12.873,26.561-4.539,37.505
	C208.731,277.172,212.222,279.784,216.154,279.686z"/>
</svg>
