<svg enable-background="new 0 0 580 580" height="580" viewBox="0 0 580 580" width="580" xmlns="http://www.w3.org/2000/svg">
<path d="m329.403 25.42c-3.771 2.707-7.331 5.738-10.783 8.934l12.498 25.989-19.943 9.611-9.385-19.537c-3.385 3.054-6.835 5.918-10.513 8.393l39.39 81.892-185.532 89.292-49.496-102.874c-.856.347-1.686.724-2.526 1.128-8.334 4.073-15.884 10.901-23.237 18.183l16.108-7.761 15.521 32.17-19.943 9.61-14.844-30.862c-2.646 2.661-5.285 5.363-7.941 7.941l191.893 398.813c3.99-4.011 8.002-8.068 12.092-11.821l-4.873 2.347-15.521-32.171 19.943-9.61 13.942 29.013c1.205-.721 2.461-1.38 3.7-1.985 2.904-1.396 5.903-2.414 8.979-3.204l-41.33-85.952 185.532-89.247 50.443 104.858c12.885-10.383 23.847-24.589 38.396-32.982zm21.477 76.072l15.477 32.17-19.897 9.565-15.477-32.17zm-11.776 56.805l85.592 177.861-185.532 89.247-85.592-177.862zm47.06 16.469l15.476 32.17-19.942 9.565-15.477-32.17zm-264.897 37.178l15.476 32.17-19.897 9.611-15.521-32.17zm300.135 36.096l15.476 32.17-19.897 9.611-15.476-32.215zm-264.897 37.224l15.521 32.17-19.943 9.565-15.476-32.17zm300.181 36.05l15.477 32.17-19.943 9.61-15.476-32.17zm-264.897 37.224l15.476 32.17-19.897 9.565-15.521-32.17zm300.135 36.05l15.477 32.216-19.897 9.565-15.477-32.17zm-264.852 37.224l15.476 32.171-19.943 9.61-15.476-32.216z" fill="param(fill)" fill-opacity="param(fill-opacity)" stroke="param(outline)" stroke-opacity="param(outline-opacity)" stroke-width="param(outline-width)"/>
<path d="m291.277 58.809c-2.452 1.65-5.005 3.129-7.67 4.376-21.626 9.647-49.577 4.75-70.928 13.807-21.754 8.955-36.237 31.301-56.399 40.021-19.1 7.991-41.757 2.46-60.641 10.107l49.497 102.873 185.531-89.293z" fill="param(fill)" opacity=".3317" stroke="param(outline)" stroke-width="param(outline-width)"/>
<path d="m186.173 193.144h205.896v197.389h-205.896z" fill="param(fill)" opacity=".3317" stroke="param(outline)" stroke-width="param(outline-width)" transform="matrix(-.9011 .4336 -.4336 -.9011 676.1891 429.4578)"/>
<path d="m433.134 353.71l-185.532 89.247 41.33 85.907c17.439-4.473 37.173-.886 54.144-7.986 20.162-8.72 34.69-31.065 56.444-40.021 21.351-9.057 49.302-4.159 70.928-13.807 4.711-2.205 9.005-5.159 13.13-8.482z" fill="param(fill)" opacity=".3317" stroke="param(outline)" stroke-width="param(outline-width)"/>
</svg>
