<svg enable-background="new 0 0 580 580" height="580" viewBox="0 0 580 580" width="580" xmlns="http://www.w3.org/2000/svg">
<path d="m35.845 500.614h504.904v18.023h-504.904z" fill="param(fill)" fill-opacity="param(fill-opacity)" stroke="param(outline)" stroke-opacity="param(outline-opacity)" stroke-width="param(outline-width)"/>
<path d="m53.554 464.505h469.233v18.023h-469.233z" fill="param(fill)" fill-opacity="param(fill-opacity)" stroke="param(outline)" stroke-opacity="param(outline-opacity)" stroke-width="param(outline-width)"/>
<path d="m71.617 446.564l433.112-.061-.002-18.023-17.801.003-.027-198.249 17.973-.003-.006-36.045-433.112.061.005 36.045 18.642-.002.028 198.248-18.815.003zm54.829-216.28l36.045-.005.028 198.249-36.046.005zm72.091-.01l36.045-.005.028 198.249-36.045.005zm72.09-.01l36.046-.005.027 198.248-36.046.005zm72.092-.011l36.045-.005.027 198.249-36.045.005zm72.09-.01l36.046-.005.027 198.249-36.046.005z" fill="param(fill)" fill-opacity="param(fill-opacity)" stroke="param(outline)" stroke-opacity="param(outline-opacity)" stroke-width="param(outline-width)"/>
<path d="m196.037 174.702l91.269-30.352 91.529 32.406 61.959.282-152.971-64.6-157.275 62.911z" fill="param(fill)" fill-opacity="param(fill-opacity)" stroke="param(outline)" stroke-opacity="param(outline-opacity)" stroke-width="param(outline-width)"/>
<path d="m502.566 174.873v-32.965l-216.404-88.833-214.188 90.828v32.964l212.216-86.327z" fill="param(fill)" fill-opacity="param(fill-opacity)" stroke="param(outline)" stroke-opacity="param(outline-opacity)" stroke-width="param(outline-width)"/>
</svg>
