<svg enable-background="new 0 0 580 580" height="580" viewBox="0 0 580 580" width="580" xmlns="http://www.w3.org/2000/svg">
<path d="m98.201 309.947l-6.138 61.375 39.894 49.102 116.614 56.772h128.889l76.72-53.704 32.223-55.238 10.74-69.047-55.237-78.255-32.223-42.963-76.72-16.878-38.359 141.164-82.857 12.275z" fill="param(fill)" opacity=".1"/>
<path d="m165.714 429.63l95.132-127.354 96.667 12.275 88.994-61.376 36.825 18.413 16.879 69.047-32.223 70.582-136.561-79.788-32.223 38.359 6.138 102.805-65.979 3.068z" fill="param(fill)" opacity=".1"/>
<path d="m490.476 246.322c-14.328-24.312-40.188-53.044-59.586-66.163-33.154-22.422-92.774-44.911-131.599-49.667-11.283-.619-22.259-1.738-33.292-2.053l-8.546-50.534-27.102 3.581 8.892 48.432c-7.151 1.16-14.446 3.083-21.968 6.07l-27.025-54.863-22.813 10.406 29.553 58.103c-2.773 3.525-5.856 7.636-8.807 10.905-20.163 22.339-23.87 54.008-9.483 80.769 14.955 27.817 12.442 47.001-6.939 52.974-8.208 2.529-11.822 1.852-29.938-5.268-11.332-4.453-24.683-8.062-29.648-8.03-14.028.091-27.554 8.534-34.916 21.728-5.526 9.902-6.479 14.296-6.54 31.465-.079 21.95 2.598 29.668 20.456 59.913 18.141 30.725 44.979 58.303 75.937 78.007 21.284 13.548 60.433 27.872 83.748 30.92 13.948 1.823 32.352 4.47 57.627 4.069l10.065 54.824c1.146 8.786 20.754 6.352 20.417-1.983l-9.108-53.858c11.886-.928 25.021-2.532 39.59-5.087 1.854-.432 3.707-.905 5.558-1.398l14.367 28.262c3.647 8.1 20.173.721 17.375-7.156l-13.286-26.983c35.63-13.206 68.535-35.971 87.856-58.123 23.61-27.069 27.755-39.133 33.645-68.197 7.174-35.41-2.673-84.049-24.49-121.065zm-148.312-35.752c5.437-6.232 12.573-15.371 15.878-20.31 4.629-6.918 6.666-8.574 12.935-8.611.896-.005 1.854.023 2.942.073 12.724.581 24.193 4.963 29.03 11.082 5.546 7.013 13.608 42.447 11.954 52.538-1.317 8.039-19.142 30.266-24.271 30.266-1.203 0-3.565.506-5.269 1.126-1.704.621-6.786-.497-11.264-2.47-4.477-1.974-10.966-3.667-14.424-3.779-10.583-.341-17.319-5.554-22.49-17.404-7.985-18.302-6.688-29.138 4.979-42.511zm-96.961-48.186l8.868 48.304-21.911-44.481c4.039-1.931 8.429-3.238 13.043-3.823zm1.635 85.25c-21.896-1.93-39.106-20.339-39.106-42.732 0-8.08 2.243-15.636 6.136-22.088zm-75.767 146.6c-12.109 10.084-15.833 11.809-25.36 11.809-11.426 0-20.456-6.291-20.456-14.243 0-1.978-2.717-9.433-6.031-16.567-5.266-11.335-5.696-14.157-3.524-22.455 3.036-11.598 13.693-23.797 20.892-24.161.232-.012.429-.013.654 0 2.994.177 12.772.64 21.728 1.018 8.955.377 17.597 1.673 19.22 2.834 3.914 2.799 14.497 26.842 14.497 32.954-.002 7.623-6.324 16.073-21.62 28.811zm112.343 23.798c-2.559 5.743-4.683 12.281-4.723 14.533-.041 2.253-2.746 7.579-5.995 11.809-5.174 6.735-7.906 7.821-21.981 8.974-13.334 1.093-16.282.618-17.477-2.942-.792-2.36-6.2-7.03-12.026-10.355-7.189-4.102-11.645-8.828-13.77-14.642-6.737-18.429-.627-43.688 11.009-45.563 3.102-.499 7.24-2.549 9.192-4.541 1.952-1.993 7.984-4.428 13.371-5.414 2.015-.369 3.739-.563 5.414-.581 5.023-.054 9.293 1.658 17.222 6.249 12.491 7.233 24.416 21.146 24.416 28.449-.002 1.984-2.094 8.281-4.652 14.024zm-10.7-249.886c12.461 7.5 20.8 21.155 20.8 36.756 0 10.44-3.737 20.013-9.94 27.458zm106.256 272.231c-6.549 1.607-15.658 4.696-20.274 6.903-18.963 9.068-33.69.545-36.66-21.255-5.136-37.713-5.145-37.604 5.269-49.521 5.609-6.42 9.182-9.577 14.497-9.847.293-.015.567-.039.872-.036 4.565.038 10.505 2.049 19.838 5.704 5.757 2.255 13.565 5.054 17.403 6.249 5.397 1.682 8.419 5.501 13.262 16.822 11.538 26.978 7.532 39.645-14.207 44.981zm100.388-114.849c-2.059 7.295-4.268 17.865-4.905 23.544-2.62 23.33-16.428 33.681-34.407 25.724-31.105-13.766-31.032-13.731-34.844-30.011-3.864-16.508-2.489-20.062 14.424-36.951 4.585-4.578 10.656-10.964 13.48-14.17 3.226-3.664 6.715-5.046 13.807-4.978 1.636.016 3.462.129 5.522.291 26.183 2.051 33.755 12.336 26.923 36.551z" fill="param(fill)" fill-opacity="param(fill-opacity)" stroke="param(outline)" stroke-opacity="param(outline-opacity)" stroke-width="param(outline-width)"/>
<path d="m166.524 88.017l22-8.611c-2.337-9.447 1.938-17.762-8.521-27.314-14.632-13.362-21.124-17.041-29.959-24.501-2.063 17.87-5.727 40.68 16.48 60.426z" fill="param(fill)" fill-opacity="param(fill-opacity)" stroke="param(outline)" stroke-opacity="param(outline-opacity)" stroke-width="param(outline-width)"/>
<path d="m256.219 75.77c.655-9.711 7.813-16.482.061-28.57-10.844-16.91-16.39-22.256-23.136-31.884-7.979 16.549-19.232 37.387-2.599 62.539z" fill="param(fill)" fill-opacity="param(fill-opacity)" stroke="param(outline)" stroke-opacity="param(outline-opacity)" stroke-width="param(outline-width)"/>
</svg>
