<svg enable-background="new 0 0 580 580" height="580" viewBox="0 0 580 580" width="580" xmlns="http://www.w3.org/2000/svg">
<path d="m53.554 414.505h449.234v18.023h-449.234z" fill="param(fill)" fill-opacity="param(fill-opacity)" stroke="param(outline)" stroke-opacity="param(outline-opacity)" stroke-width="param(outline-width)"/>
<path d="m35.845 450.614h504.904v18.023h-504.904z" fill="param(fill)" fill-opacity="param(fill-opacity)" stroke="param(outline)" stroke-opacity="param(outline-opacity)" stroke-width="param(outline-width)"/>
<path d="m90.429 378.538l-18.815.003.003 18.023 255.424-.042 2.923 4.173 5.96-4.175 108.807-.018-.004-18.023-86.306.015-98.965-141.294-2.347 1.644-3.974-44.208 70.32 5.539 2.83-35.934-253.113-19.939-2.831 35.934 20.061 1.581zm36.018-193.882l36.046 2.839.027 191.031-36.045.006zm72.092 5.679l18.147 1.429 16.789 186.75-34.91.006zm64.535 114.86l51.345 73.306-44.754.008z" fill="param(fill)" fill-opacity="param(fill-opacity)" stroke="param(outline)" stroke-opacity="param(outline-opacity)" stroke-width="param(outline-width)"/>
</svg>
