<svg enable-background="new 0 0 580 580" height="580" viewBox="0 0 580 580" width="580" xmlns="http://www.w3.org/2000/svg">
<path d="m513.985 465.248c-9.634-4.451-20.427-7.073-31.891-7.073-11.28 0-22.135 2.622-31.769 7.073-9.391 4.207-19.879 6.708-30.977 6.708-10.976 0-21.464-2.501-30.977-6.708-9.634-4.451-20.488-7.073-31.769-7.073-11.281 0-22.135 2.622-31.892 7.073-9.269 4.207-19.878 6.708-30.854 6.708-10.977 0-21.586-2.501-30.977-6.708-9.635-4.451-20.428-7.073-31.769-7.073-11.403 0-22.257 2.622-31.891 7.073-9.391 4.207-19.878 6.708-30.854 6.708-11.098 0-21.585-2.501-31.098-6.708-9.512-4.451-20.488-7.073-31.769-7.073s-22.135 2.622-31.769 7.073c-9.39 4.207-20 6.708-30.976 6.708v46.342c10.976 0 21.586-2.438 30.976-6.646 9.634-4.451 20.488-7.073 31.769-7.073s22.257 2.622 31.769 7.073c9.513 4.208 20 6.646 31.098 6.646 10.976 0 21.464-2.438 30.854-6.646 9.634-4.451 20.427-7.073 31.891-7.073 11.281 0 22.134 2.622 31.769 7.073 9.39 4.208 20 6.646 30.977 6.646 10.976 0 21.585-2.438 30.854-6.646 9.757-4.451 20.61-7.073 31.892-7.073 11.28 0 22.135 2.622 31.769 7.073 9.513 4.208 20.001 6.646 30.977 6.646 11.098 0 21.586-2.438 30.977-6.646 9.634-4.451 20.427-7.073 31.769-7.073 11.402 0 22.257 2.622 31.891 7.073 9.391 4.208 19.879 6.646 30.854 6.646v-46.342c-10.975 0-21.463-2.501-30.854-6.708z" fill="param(fill)" fill-opacity="param(fill-opacity)" stroke="param(outline)" stroke-opacity="param(outline-opacity)" stroke-width="param(outline-width)"/>
<path d="m105.379 414.881c11.342 0 22.257 2.622 31.769 7.073 9.513 4.208 20 6.646 31.099 6.646 10.976 0 21.464-2.438 30.854-6.646 9.634-4.451 20.488-7.073 31.891-7.073 11.342 0 22.135 2.622 31.769 7.073 9.391 4.208 20 6.646 30.976 6.646 10.977 0 21.587-2.438 30.854-6.646 9.757-4.451 20.61-7.073 31.892-7.073 11.28 0 22.135 2.622 31.769 7.073 9.513 4.208 20.001 6.646 30.977 6.646 3.109 0 6.098-.67 9.146-1.036 5.488-1.22 11.098-1.707 16.464-3.842.122-.061.244-.122.366-.183 9.938-55.672 32.866-167.138 32.866-167.138s-79.819 32.989-165.675 68.843l-45.366-108.051 45.732-19.208-11.769-28.11c-15.264 6.424-30.533 12.835-45.793 19.269l-22.745-54.147-28.11 11.769 22.745 54.208c-24.025 10.061-49.026 20.61-49.026 20.61l11.769 28.11 49.087-20.61 45.367 107.99c-93.479 39.148-184.457 77.807-178.908 77.807z" fill="param(fill)" fill-opacity="param(fill-opacity)" stroke="param(outline)" stroke-opacity="param(outline-opacity)" stroke-width="param(outline-width)"/>
</svg>
