<svg enable-background="new 0 0 580 580" height="580" viewBox="0 0 580 580" width="580" xmlns="http://www.w3.org/2000/svg">
<path d="m504.438 490.316c-7.013-1.535-13.404-9.099-25.055-8.566-11.934.413-28.789 11.103-45.074 11.103-4.015-.086-8.15-.816-12.353-1.869v-45.805l-8.671-8.671h-32.757v-37.566l-10-10h-56.225l.195-.879.031-.094.094-.5-.281-4.063-2.625-3.125-3.485-.913-.102-.732 3.462.989 3.844-1.344 2.344-3.344.094-.313.031-.125v-.063l1.313-4.813h.031l1.406-5.063h.031l1.531-5.188.031-.094 1.625-5.219.031-.063 1.5-4.656.031-4.063-2.344-3.344-3.844-1.344-3.938 1.125-.147.187 1.241-6.093-.375-4.344-2.781-3.375-4.156-1.281-4.188 1.25-2.781 3.406-.406 1.313-1.375 6.625v.063l-.197 1.008-.709-2.633-3.594-3.5-4.875-1.219-4.844 1.406-3.438 3.688-1.125 4.5v9.071l-.625-3.321v-.063l-1.781-8.938v-.063l-1.375-6.625-2.094-3.844-3.875-2-4.344.469-3.344 2.844-1.188 4.188.156 1.375 1.344 6.594.031.063 1.719 8.781.088.456-.521-1.702-.031-.063-1.531-4.719-2.406-3.313-3.844-1.313-3.906 1.156-2.5 3.25-.188 4.063.094.281 1.531 4.656v.063h.031l1.594 5.219.031.094 1.531 5.094.031.094 1.406 4.969.031.094 1.313 4.813.031.063.031.125 2.188 3.469 3.781 1.531 3.969-.938 2.688-3.094.406-4.031-.063-.313-.063-.188-.031-.094-.437-1.616 3.125 1.741 4.375-.375 2.625-2.119v3.355l-1.219-.705-4.375.281-3.469 2.656-1.375 4.156.094 1.375.059.364-1.872-.802-4 .844-2.75 3-.5 4.063.063.281.125.5.031.094.195.879h-56.221l-10 10v37.566h-28.154l-8.671 8.671v47.043c-3.797 1.165-7.535 1.997-11.165 2.17-15.043.234-28.675-10.988-41.964-11.105-13.403-.234-28.448 8.209-37.497 10.1-9.049 1.834-14.761 1.772-16.91.474v31.303c2.149 1.298 7.861 1.359 16.91-.474 9.049-1.892 24.093-10.335 37.497-10.101 13.291.118 26.921 11.341 41.964 11.105 14.931-.711 31.671-12.522 46.942-13.112 14.875-.474 28.165 10.277 43.153 10.572 15.214.117 30.654-9.982 46.942-9.568 16.062.236 32.406 11.163 48.808 11.103 16.117-.353 31.388-11.991 48.186-12.106 16.854 0 35.403 11.222 51.92 11.574 16.285 0 33.142-10.689 45.074-11.103 11.65-.414 18.042 7.026 25.055 8.623 6.899 1.478 12.159 1.714 16.231.475v-31.303c-4.071 1.122-9.331.946-16.231-.531zm-200.875-119.066l1.462-.483-.056.202v.094l-.063.188.059 1.082-.184-.207-4.031-1.008v-.638zm-12.219 17.469l.485-.141-.048.363h-4.046l-.16-1.165z" fill="param(fill)" fill-opacity="param(fill-opacity)" stroke="param(outline)" stroke-opacity="param(outline-opacity)" stroke-width="param(outline-width)"/>
<path d="m212.219 156.906l-2.563 3.532-.156 4.375.469 1.312.562 1.156.032.094 2.156 4.688.062.093 2.125 4.782.032.093 2.093 4.844.032.094 2.062 4.937.031.063 2.032 5 .031.062.469 1.157 2.718 3.406 4.157 1.312 4.187-1.218 2.813-3.344.437-4.344-.375-1.344-.469-1.187-.031-.063-2.094-5.156-.031-.062-2.125-5.094-.031-.094-2.156-5-.063-.094-2.187-4.937-.032-.094-2.25-4.875-.062-.094-.594-1.25-2.937-3.218-4.25-1.032z" fill="param(fill)" fill-opacity="param(fill-opacity)" stroke="param(outline)" stroke-opacity="param(outline-opacity)" stroke-width="param(outline-width)"/>
<path d="m244.656 240.531l-3.031 3.125-.812 4.313.312 1.344.313 1.093.031.094 3.156 10.719.031.062 3 10.688.032.094 1.562 5.843 2.344 3.688 3.969 1.781 4.312-.719 3.156-3.031.938-4.281-.219-1.344-1.594-5.937-.031-.063-3.062-10.844-.032-.093-3.187-10.907-.031-.093-.375-1.188-2.438-3.594-4.062-1.656z" fill="param(fill)" fill-opacity="param(fill-opacity)" stroke="param(outline)" stroke-opacity="param(outline-opacity)" stroke-width="param(outline-width)"/>
<path d="m230.031 198.063l-2.875 3.312-.531 4.344.375 1.344.156.437.032.094 3.781 10.5.031.094 3.594 10.593 2.062 6.313 2.5 3.594 4.063 1.593 4.281-.968 3-3.188.719-4.312-.281-1.344-2.063-6.313-.031-.093-3.688-10.813-.031-.125-3.844-10.687-.031-.094-.187-.531-2.657-3.469-4.156-1.406z" fill="param(fill)" fill-opacity="param(fill-opacity)" stroke="param(outline)" stroke-opacity="param(outline-opacity)" stroke-width="param(outline-width)"/>
<path d="m257 283.719l-3.187 3-1 4.25.218 1.375.219.844.031.062 2.532 10.313.031.062 2.375 10.156h.031l1.688 7.532 2.156 3.781 3.937 1.937 4.313-.562 3.281-2.875 1.125-4.25-.187-1.344-1.719-7.625v-.062l-2.438-10.219v-.063l-2.593-10.437v-.063l-.25-.937-2.282-3.75-3.968-1.813z" fill="param(fill)" fill-opacity="param(fill-opacity)" stroke="param(outline)" stroke-opacity="param(outline-opacity)" stroke-width="param(outline-width)"/>
<path d="m113.281 204.375l4.313-.75 3.156-3.031.563-1.25.906-2.719.031-.062 1.719-4.938.031-.094 1.781-4.968.032-.063 1.875-4.969.031-.093 1.937-4.969.032-.094 1.937-4.719.406-4.343-2.093-3.844-3.907-2.031-4.343.5-3.313 2.843-.656 1.219-1.938 4.813-.062.093-2 5.157-.031.093-1.938 5.157-.031.062-1.844 5.125-.031.094-1.781 5.094-.032.062-.937 2.781-.125 4.375 2.312 3.688z" fill="param(fill)" fill-opacity="param(fill-opacity)" stroke="param(outline)" stroke-opacity="param(outline-opacity)" stroke-width="param(outline-width)"/>
<path d="m97 246.094l4.094 1.469 4.25-1.032 2.937-3.25.469-1.312 1.406-5.438v-.062l2.063-7.563.031-.093 2.406-8.407.032-.093 2.093-6.938v-4.344l-2.437-3.625-4.063-1.656-4.281.875-3.031 3.125-.531 1.281-2.125 7.032-.032.093-2.468 8.594-.032.094-2.093 7.75-.032.094-1.437 5.5.187 4.375z" fill="param(fill)" fill-opacity="param(fill-opacity)" stroke="param(outline)" stroke-opacity="param(outline-opacity)" stroke-width="param(outline-width)"/>
<path d="m187.031 123.313l.969 4.25.781 1.125.75.875.157.187.093.125.969 1.25.063.063.125.187.5.781.156.188.062.125.094.125 2.375 3.844.094.125 2.344 3.937.093.125 2.313 4.094.062.094 2.313 4.218.062.094 2.032 3.844 3.093 3.094 4.282.843 4.031-1.656 2.406-3.656-.031-4.375-.531-1.281-2.063-3.938-.062-.094-2.438-4.437-.062-.094-2.469-4.312-.063-.125-2.531-4.188-.062-.125-2.532-4.094-.093-.125-.282-.437-.156-.219-.844-1.219-.187-.25-1.375-1.812-.25-.281-.969-1.188-3.687-2.344-4.375.063-3.563 2.5z" fill="param(fill)" fill-opacity="param(fill-opacity)" stroke="param(outline)" stroke-opacity="param(outline-opacity)" stroke-width="param(outline-width)"/>
<path d="m150.75 123.719l4.094 1.594 4.25-.969 1.125-.781.312-.25 1-.813.125-.094.125-.093.719-.5.188-.125.093-.063.657-.437.156-.094.156-.094.938-.5.562-.281.844-.406.219-.094.156-.063.437-.156.407-.156.406-.125.156-.031.25-.094.375-.094.281-.062.125-.032.344-.062.75-.125h.063l.343-.063.313-.031h.156l.563-.031h.187.219l.656.031h.031l.688.063.312.031.25.031.125.031.625.125h.063l1.25.313 1.312.437 1.5.688.157.062.812.438 4.313.844 4-1.719 2.406-3.656-.063-4.375-2.5-3.594-1.156-.75-1.312-.688-.5-.25-1.907-.843-.562-.219-1.969-.688-.625-.187-2.062-.5-.532-.094-1.062-.187-.375-.063-1.063-.125-.375-.031-1.093-.094h-.407l-1.093-.031h-.407l-1.125.062h-.406l-1.125.125-.406.032-1.156.187-.407.063-1.187.25-.406.093-1.157.313-.406.094-1.187.406-.375.125-1.219.469-.375.156-1.219.531-.344.156-1.218.625-.344.188-1.219.719-.312.187-1.25.781-.313.219-1.25.875-.281.219-1.25.969-.25.218-.531.438-2.375 3.656.062 4.375z" fill="param(fill)" fill-opacity="param(fill-opacity)" stroke="param(outline)" stroke-opacity="param(outline-opacity)" stroke-width="param(outline-width)"/>
<path d="m129 162.406l4.375-.25 3.469-2.656.687-1.187.688-1.469.062-.156 2.25-4.5.063-.157 2.281-4.375.094-.156 2.344-4.187.093-.188 2.344-3.969.125-.187 2.406-3.781.063-.094.062-.094 1.094-1.594h.031v-.031l.094-.125-.031-.031 1.344-3.969-1.125-4.219-3.282-2.875-4.343-.562-3.907 1.969-.906 1.031-.031.031-.094.156-1.344 1.969-.125.188-2.656 4.156-.125.219-2.594 4.343-.093.188-2.532 4.531-.093.156-2.438 4.688-.094.156-2.375 4.813-.062.125-.75 1.625-.625 4.312 1.906 3.938z" fill="param(fill)" fill-opacity="param(fill-opacity)" stroke="param(outline)" stroke-opacity="param(outline-opacity)" stroke-width="param(outline-width)"/>
<path d="m394.219 121.406l4.375-.031 1.281-.531.844-.438 1.656-.75 1.281-.437 1.25-.313h.063l.625-.125.125-.031.25-.031.312-.031.688-.063h.062l.625-.031h.219.188l.562.031h.156l.313.031.281.032.156.031.719.125.375.062.25.063.125.031.75.219h.031l.813.281.469.156.312.157h.031l.5.218.375.188.532.281.937.5.156.094.157.094.656.437.156.094.125.094.719.5 1.031.781.219.219h.031l.281.25 4 1.718 4.313-.812 3.125-3.063.875-4.281-1.656-4.062-.969-.969-.531-.438-.25-.218-1.282-.969-.281-.219-1.25-.875-.281-.219-1.25-.781-.313-.187-1.25-.719-.343-.188-1.219-.625-.344-.156-1.219-.531-.375-.156-1.187-.469-.406-.125-1.188-.406-.375-.094-1.187-.313-.407-.093-1.156-.25-.406-.063-1.156-.187-.407-.032-1.156-.125h-.406l-1.125-.062h-.406l-1.094.031h-.406l-1.094.094-.375.031-1.063.125-.375.063-1.062.187-.531.094-2.032.5-.656.187-1.969.688-.562.219-1.906.843-.5.25-1.313.688-3.094 3.062-.875 4.313 1.688 4.031z" fill="param(fill)" fill-opacity="param(fill-opacity)" stroke="param(outline)" stroke-opacity="param(outline-opacity)" stroke-width="param(outline-width)"/>
<path d="m334.906 240.25l4.282-.812 3.125-3.063.531-1.281 2.031-6.188.031-.125 3.594-10.593.031-.094 3.782-10.5.031-.094.156-.437.281-4.375-2.218-3.782-3.938-1.906-4.312.625-3.25 2.938-.594 1.25-.219.531-.031.094-3.844 10.687-.031.125-3.688 10.813-.031.093-2.031 6.313-.094 4.375 2.375 3.687z" fill="param(fill)" fill-opacity="param(fill-opacity)" stroke="param(outline)" stroke-opacity="param(outline-opacity)" stroke-width="param(outline-width)"/>
<path d="m318.469 281.906l4.094 1.532 4.25-1.032 2.968-3.218.469-1.282 1.563-5.843.031-.094 3-10.688.031-.062 3.156-10.719.032-.094.343-1.093v-4.375l-2.406-3.625-4.062-1.688-4.282.875-3.062 3.125-.531 1.25-.375 1.188v.093l-3.219 10.907-.031.093-3.063 10.844-.031.063-1.594 5.937.156 4.375z" fill="param(fill)" fill-opacity="param(fill-opacity)" stroke="param(outline)" stroke-opacity="param(outline-opacity)" stroke-width="param(outline-width)"/>
<path d="m307.938 325.781l4.187 1.344 4.188-1.187 2.812-3.313.438-1.312 1.687-7.532h.031l2.407-10.156v-.062l2.531-10.313.031-.062.219-.844-.188-4.375-2.593-3.531-4.125-1.469-4.219 1.062-2.938 3.25-.468 1.313-.219.937-.031.063-2.594 10.437v.063l-2.406 10.219-.032.062-1.718 7.625.312 4.344z" fill="param(fill)" fill-opacity="param(fill-opacity)" stroke="param(outline)" stroke-opacity="param(outline-opacity)" stroke-width="param(outline-width)"/>
<path d="m349.563 197.813l4.343-.532 3.313-2.875.625-1.218.437-1.157.032-.062 2.031-5 .031-.063 2.063-4.937.031-.094 2.094-4.844.031-.093 2.156-4.782.031-.093 2.157-4.688.031-.094.562-1.156.657-4.344-1.875-3.937-3.75-2.25-4.375.25-3.5 2.625-.688 1.187-.594 1.25-.062.094-2.219 4.875-.062.094-2.188 4.937-.031.094-2.188 5-.031.094-2.125 5.094-.031.062-2.094 5.156-.031.063-.469 1.187-.344 4.375 2.125 3.813z" fill="param(fill)" fill-opacity="param(fill-opacity)" stroke="param(outline)" stroke-opacity="param(outline-opacity)" stroke-width="param(outline-width)"/>
<path d="m426.656 127.875l.625 4.344.625 1.031h-.031l.125.156 1.094 1.594.062.094.063.094 2.406 3.781.125.187 2.344 3.969.125.188 2.312 4.187.094.156 2.281 4.375.063.157 2.25 4.5.062.156.688 1.469 2.937 3.218 4.219 1.063 4.125-1.469 2.594-3.531.156-4.375-.469-1.281-.75-1.625-.062-.125-2.375-4.813-.063-.156-2.468-4.688-.094-.156-2.5-4.531-.125-.188-2.594-4.343-.125-.219-2.625-4.156-.125-.188-1.344-1.969-.125-.156-.031-.031-3.469-2.625-4.375-.25-3.75 2.219z" fill="param(fill)" fill-opacity="param(fill-opacity)" stroke="param(outline)" stroke-opacity="param(outline-opacity)" stroke-width="param(outline-width)"/>
<path d="m450.656 162.594l-2.75 3.375-.406 4.375.375 1.312 1.938 4.719.031.094 1.937 4.969.032.093 1.875 4.969.031.063 1.781 4.968.031.094 1.719 4.938.031.062.907 2.719 2.562 3.531 4.094 1.531 4.25-1 2.969-3.218.656-4.313-.313-1.344-.937-2.781-.031-.062-1.75-5.094-.032-.094-1.875-5.125-.031-.062-1.937-5.157-.032-.093-2-5.157-.031-.093-1.969-4.813-2.75-3.406-4.187-1.281z" fill="param(fill)" fill-opacity="param(fill-opacity)" stroke="param(outline)" stroke-opacity="param(outline-opacity)" stroke-width="param(outline-width)"/>
<path d="m466.313 204.625l-3.063 3.125-.812 4.281.281 1.344 2.094 6.938.031.093 2.406 8.407.031.093 2.063 7.563.031.062 1.406 5.438 2.282 3.719 3.968 1.843 4.313-.718 3.187-3 .969-4.25-.219-1.375-1.437-5.5v-.094l-2.125-7.75-.031-.094-2.469-8.594-.031-.093-2.125-7.032-2.438-3.625-4.031-1.656z" fill="param(fill)" fill-opacity="param(fill-opacity)" stroke="param(outline)" stroke-opacity="param(outline-opacity)" stroke-width="param(outline-width)"/>
<path d="m367.344 156.656l4.375-.062 3.594-2.469.75-1.156 2.031-3.844.062-.094 2.313-4.218.062-.094 2.344-4.094.063-.125 2.375-3.937.062-.125 2.375-3.844.094-.125.062-.125.157-.188.531-.781.156-.187.031-.063.938-1.25.125-.156.125-.156.75-.875 1.719-4-.813-4.313-3.062-3.094-4.282-.906-4.031 1.656-1 .969-.969 1.188-.25.281-1.375 1.812-.187.25-.844 1.219-.156.219-.281.437-.063.125-2.562 4.094-.063.125-2.5 4.188-.094.125-2.468 4.312-.063.094-2.406 4.437-.063.094-2.093 3.938-.844 4.281 1.719 4.031z" fill="param(fill)" fill-opacity="param(fill-opacity)" stroke="param(outline)" stroke-opacity="param(outline-opacity)" stroke-width="param(outline-width)"/>
<path d="m345.219 301.094l.125-.281.5-.969.094-.156 2.625-4.907.093-.156 2.688-4.719.125-.187 2.781-4.531 2.969-4.563.125-.156 1.25-1.813 1.219-3.906-1.313-3.875-3.281-2.406-4.063-.063-3.375 2.344-.187.25-1.344 1.969-.125.156-3.094 4.688-.093.187-3 4.906-.094.157-2.906 5.062-.094.156-2.781 5.219-.094.156-.563 1.125-.656 4 1.813 3.657 3.593 1.937 4.063-.5z" fill="param(fill)" fill-opacity="param(fill-opacity)" stroke="param(outline)" stroke-opacity="param(outline-opacity)" stroke-width="param(outline-width)"/>
<path d="m334.5 303.219l-4.031.687-2.875 2.907-.125.281-1.406 3.094-.063.125-2.406 5.562-.031.125-2.313 5.594-.031.125-2.188 5.625-.031.094-1.812 4.875-.188 4.062 2.188 3.438 3.781 1.5 3.969-.969 2.656-3.063.125-.312 1.781-4.781.031-.094 2.125-5.406.032-.125 2.187-5.375h.031l2.344-5.469.063-.125 1.343-2.969.469-4.062-1.969-3.563z" fill="param(fill)" fill-opacity="param(fill-opacity)" stroke="param(outline)" stroke-opacity="param(outline-opacity)" stroke-width="param(outline-width)"/>
<path d="m390.281 276.25l.969 1.281.125.188 1.438 2 .093.156 1.407 2.094.093.156 1.375 2.219.063.125 1.344 2.281.093.125 1.313 2.344.062.094 1.282 2.406.062.094 1.25 2.437.063.094 1.187 2.437.063.125.562 1.188 2.75 3 4 .844 3.719-1.625 2.094-3.5-.313-4.063-.125-.281-.625-1.344-.062-.125-1.313-2.656-.031-.125-1.375-2.625-.063-.125-1.406-2.594-.062-.125-1.438-2.594-.094-.125-1.5-2.531-.062-.125-1.563-2.5-.093-.125-1.594-2.406-.094-.156-1.656-2.344-.125-.188-1.094-1.437-3.312-2.375h-4.094l-3.313 2.375-1.312 3.875 1.156 3.906z" fill="param(fill)" fill-opacity="param(fill-opacity)" stroke="param(outline)" stroke-opacity="param(outline-opacity)" stroke-width="param(outline-width)"/>
<path d="m416.875 334.688l2.25 3.406 3.844 1.437 3.937-1.031 2.594-3.156.313-4.063-.063-.281-.5-1.687-.031-.125-1.531-5-.032-.094-1.156-3.469-.031-.094-1.375-4-.031-.093-1.594-4.438-.063-.125-1.812-4.75-.063-.156-.781-1.938-2.625-3.125-3.937-1.031-3.813 1.438-2.281 3.375.125 4.093.125.282.75 1.843.031.125 1.75 4.532.031.125 1.532 4.218.031.094 1.312 3.781.032.063v.031l1.062 3.281.031.094 1.5 4.781h-.031z" fill="param(fill)" fill-opacity="param(fill-opacity)" stroke="param(outline)" stroke-opacity="param(outline-opacity)" stroke-width="param(outline-width)"/>
<path d="m365.688 269.938l.25-.188.937-.75 1.063-.75.718-.469.282-.156.468-.25.782-.406.218-.094.125-.062.438-.188.062-.031.75-.25 1.188-.313.094-.031.843-.156h.032l.625-.063.531-.031h.187l1.094.063.531.062.094.031 1.156.25.75.219.094.031 1.25.532 1.219.656.187.094 1.032.687 3.937 1.031 3.813-1.406 2.281-3.375-.094-4.094-2.469-3.25-.25-.187-1.5-.938-.468-.281-1.625-.875-.5-.25-1.625-.687-.563-.219-1.562-.5-.563-.156-1.562-.375-.594-.094-1.5-.219-.594-.062-1.469-.063h-.562l-1.438.031-.531.032-1.375.187-.531.063-1.344.281-.469.094-1.281.343-.437.157-1.219.406-.406.156-1.188.5-.344.156-1.125.532-.312.187-1.063.563-.281.187-1 .594-.344.25-1.812 1.281-.375.281-.938.782-2.187 3.437.187 4.063 2.532 3.187 3.906 1.156z" fill="param(fill)" fill-opacity="param(fill-opacity)" stroke="param(outline)" stroke-opacity="param(outline-opacity)" stroke-width="param(outline-width)"/>
<path d="m247.125 336.969l2.531 3.219 3.907 1.156 3.875-1.344 2.343-3.312v-4.094l-.093-.281-1.813-4.875-.031-.094-2.188-5.625-.062-.125-2.281-5.594-.063-.125-2.375-5.562-.062-.125-1.407-3.094-2.75-3.031-3.968-.875-3.75 1.593-2.125 3.469.281 4.063.125.312 1.344 2.969.062.125 2.281 5.344.063.125 2.187 5.375.063.125 2.125 5.406h-.031z" fill="param(fill)" fill-opacity="param(fill-opacity)" stroke="param(outline)" stroke-opacity="param(outline-opacity)" stroke-width="param(outline-width)"/>
<path d="m193.906 268.531l.282-.156 1.031-.687.187-.094.938-.531.187-.063 1.25-.562.157-.063.718-.219 1.125-.25.157-.031.562-.062 1.063-.063h.187l.531.031.657.063h.093l.782.156.093.031 1.188.313.406.125.188.094.218.062.438.188.156.062.188.094.781.406.469.25.281.156.719.469 1.062.75.094.094.812.656 3.813 1.531 3.937-.968 2.688-3.094.375-4.063-2.031-3.531-.25-.187-.907-.782-.406-.281-1.781-1.281-.375-.25-1-.594-.281-.187-1.063-.563-.312-.187-1.125-.532-.344-.156-1.188-.5-.375-.156-1.25-.406-.406-.157-1.312-.343-.469-.094-1.344-.281-.5-.063-1.375-.187-.562-.032-1.407-.031h-.593l-1.469.063-.563.062-1.531.219-.594.094-1.531.375-.562.156-1.594.5-.531.219-1.625.687-.5.25-1.657.875-.468.281-1.469.938-2.625 3.156-.281 4.063 2.125 3.468 3.75 1.625z" fill="param(fill)" fill-opacity="param(fill-opacity)" stroke="param(outline)" stroke-opacity="param(outline-opacity)" stroke-width="param(outline-width)"/>
<path d="m173.625 298.375l.125-.281.563-1.188.062-.125 1.188-2.437.062-.094 1.25-2.437.063-.094 1.281-2.406.062-.094 1.313-2.344.062-.125 1.344-2.281.094-.125 1.375-2.219.094-.156 1.406-2.094.094-.156 1.406-2 .125-.188.969-1.281 1.343-3.844-1.156-3.937-3.187-2.5-4.094-.219-3.406 2.219-.219.25-1.094 1.437-.125.188-1.625 2.344-.094.156-1.593 2.406-.094.125-1.563 2.5-.093.125-1.5 2.531-.063.125-1.469 2.594-.062.125-1.406 2.594-.032.125-1.375 2.625-.062.125-1.281 2.656-.094.125-.594 1.344-.531 4.031 1.937 3.594 3.657 1.812 4.031-.656z" fill="param(fill)" fill-opacity="param(fill-opacity)" stroke="param(outline)" stroke-opacity="param(outline-opacity)" stroke-width="param(outline-width)"/>
<path d="m166 316.563l1.719-4.532.062-.125.75-1.843.313-4.063-2.125-3.5-3.719-1.625-4 .875-2.75 3-.125.281-.812 1.938-.032.156-1.843 4.75-.032.125-1.593 4.438-.063.093-1.375 4-.031.094-1.125 3.469-.031.094-1.532 5-.062.125-.469 1.687.125 4.063 2.469 3.25 3.875 1.218 3.875-1.25 2.437-3.281.094-.312.438-1.563.031-.094 1.469-4.781.031-.094 1.094-3.281.031-.094 1.344-3.875h-.032l1.532-4.218z" fill="param(fill)" fill-opacity="param(fill-opacity)" stroke="param(outline)" stroke-opacity="param(outline-opacity)" stroke-width="param(outline-width)"/>
<path d="m218.25 278.656l1.281 1.813.094.156 2.875 4.375.125.188 2.781 4.531.094.187 2.719 4.719.094.156 2.625 4.907.093.156.469.969 2.875 2.906 4 .719 3.688-1.782 1.968-3.562-.437-4.031-.125-.282-.594-1.125-.062-.156-2.813-5.219-.062-.156-2.907-5.062-.093-.157-3-4.906-.125-.187-3.094-4.688-.094-.156-1.375-1.969-3.219-2.469-4.093-.156-3.407 2.25-1.468 3.813 1.031 3.937z" fill="param(fill)" fill-opacity="param(fill-opacity)" stroke="param(outline)" stroke-opacity="param(outline-opacity)" stroke-width="param(outline-width)"/>
<path d="m286.469 101.813l4.875 1.218 4.844-1.437 3.437-3.656 1.125-4.5v-38.344l-1.312-4.875-3.594-3.5-4.875-1.219-4.844 1.406-3.437 3.688-1.125 4.5v38.344l1.312 4.843z" fill="param(fill)" fill-opacity="param(fill-opacity)" stroke="param(outline)" stroke-opacity="param(outline-opacity)" stroke-width="param(outline-width)"/>
<path d="m286.469 159.344l4.875 1.187 4.844-1.406 3.437-3.656 1.125-4.5v-38.344l-1.312-4.875-3.594-3.5-4.875-1.219-4.844 1.407-3.437 3.656-1.125 4.531v38.344l1.312 4.844z" fill="param(fill)" fill-opacity="param(fill-opacity)" stroke="param(outline)" stroke-opacity="param(outline-opacity)" stroke-width="param(outline-width)"/>
<path d="m286.469 216.844l4.875 1.219 4.844-1.407 3.437-3.656 1.125-4.5v-38.375l-1.312-4.844-3.594-3.5-4.875-1.218-4.844 1.406-3.437 3.656-1.125 4.5v38.375l1.312 4.844z" fill="param(fill)" fill-opacity="param(fill-opacity)" stroke="param(outline)" stroke-opacity="param(outline-opacity)" stroke-width="param(outline-width)"/>
<path d="m286.469 331.906l4.875 1.219 4.844-1.437 3.437-3.657 1.125-4.5v-38.343l-1.312-4.844-3.594-3.531-4.875-1.219-4.844 1.437-3.437 3.657-1.125 4.5v38.343l1.312 4.844z" fill="param(fill)" fill-opacity="param(fill-opacity)" stroke="param(outline)" stroke-opacity="param(outline-opacity)" stroke-width="param(outline-width)"/>
<path d="m286.469 274.375l4.875 1.219 4.844-1.406 3.437-3.688 1.125-4.5v-38.344l-1.312-4.843-3.594-3.532-4.875-1.218-4.844 1.437-3.437 3.656-1.125 4.5v38.344l1.312 4.875z" fill="param(fill)" fill-opacity="param(fill-opacity)" stroke="param(outline)" stroke-opacity="param(outline-opacity)" stroke-width="param(outline-width)"/>
</svg>
