<?xml version="1.0" encoding="utf-8"?>
<!-- Generator: Adobe Illustrator 16.0.0, SVG Export Plug-In . SVG Version: 6.00 Build 0)  -->
<!DOCTYPE svg PUBLIC "-//W3C//DTD SVG 1.1//EN" "http://www.w3.org/Graphics/SVG/1.1/DTD/svg11.dtd">
<svg version="1.1"
	 id="svg2" xmlns:dc="http://purl.org/dc/elements/1.1/" xmlns:cc="http://creativecommons.org/ns#" xmlns:rdf="http://www.w3.org/1999/02/22-rdf-syntax-ns#" xmlns:svg="http://www.w3.org/2000/svg" xmlns:sodipodi="http://sodipodi.sourceforge.net/DTD/sodipodi-0.dtd" xmlns:inkscape="http://www.inkscape.org/namespaces/inkscape" inkscape:output_extension="org.inkscape.output.svg.inkscape" sodipodi:docbase="s:\Data\FacilityIcons" sodipodi:docname="zoo.svg" inkscape:version="0.46" sodipodi:version="0.32"
	 xmlns="http://www.w3.org/2000/svg" xmlns:xlink="http://www.w3.org/1999/xlink" x="0px" y="0px" width="580px" height="580px"
	 viewBox="0 0 580 580" enable-background="new 0 0 580 580" xml:space="preserve">
<sodipodi:namedview  showgrid="false" inkscape:cy="281.19503" inkscape:cx="444.97685" inkscape:zoom="0.92167712" pagecolor="#ffffff" bordercolor="#666666" guidetolerance="10.0" objecttolerance="10.0" gridtolerance="10.0" borderopacity="1.0" id="base" inkscape:current-layer="svg2" inkscape:window-y="13" inkscape:window-x="11" inkscape:pageopacity="0.0" inkscape:pageshadow="2" inkscape:window-width="1048" inkscape:window-height="947">
	</sodipodi:namedview>
<defs>
	
	
		<inkscape:perspective  inkscape:vp_z="580 : 290 : 1" inkscape:vp_y="0 : 1000 : 0" inkscape:vp_x="0 : 290 : 1" sodipodi:type="inkscape:persp3d" id="perspective2441" inkscape:persp3d-origin="290 : 193.33333 : 1">
		</inkscape:perspective>
	
		<inkscape:perspective  inkscape:vp_z="60 : 30 : 1" inkscape:vp_y="0 : 1000 : 0" inkscape:vp_x="0 : 30 : 1" sodipodi:type="inkscape:persp3d" id="perspective3452" inkscape:persp3d-origin="30 : 20 : 1">
		</inkscape:perspective>
	
		<inkscape:perspective  inkscape:vp_z="744.09448 : 526.18109 : 1" inkscape:vp_y="0 : 1000 : 0" inkscape:vp_x="0 : 526.18109 : 1" sodipodi:type="inkscape:persp3d" id="perspective4471" inkscape:persp3d-origin="372.04724 : 350.78739 : 1">
		</inkscape:perspective>
	
		<inkscape:perspective  inkscape:vp_z="12 : 6 : 1" inkscape:vp_y="0 : 1000 : 0" inkscape:vp_x="0 : 6 : 1" sodipodi:type="inkscape:persp3d" id="perspective4668" inkscape:persp3d-origin="6 : 4 : 1">
		</inkscape:perspective>
	
		<inkscape:perspective  inkscape:vp_z="32 : 16 : 1" inkscape:vp_y="0 : 1000 : 0" inkscape:vp_x="0 : 16 : 1" sodipodi:type="inkscape:persp3d" id="perspective4904" inkscape:persp3d-origin="16 : 10.666667 : 1">
		</inkscape:perspective>
	
		<inkscape:perspective  inkscape:vp_z="32 : 16 : 1" inkscape:vp_y="0 : 1000 : 0" inkscape:vp_x="0 : 16 : 1" sodipodi:type="inkscape:persp3d" id="perspective5233" inkscape:persp3d-origin="16 : 10.666667 : 1">
		</inkscape:perspective>
	
		<inkscape:perspective  inkscape:vp_z="500 : 250 : 1" inkscape:vp_y="0 : 1000 : 0" inkscape:vp_x="0 : 250 : 1" sodipodi:type="inkscape:persp3d" id="perspective5412" inkscape:persp3d-origin="250 : 166.66667 : 1">
		</inkscape:perspective>
	
		<inkscape:perspective  inkscape:vp_z="405.71429 : 204.28572 : 1" inkscape:vp_y="0 : 1000 : 0" inkscape:vp_x="0 : 204.28572 : 1" sodipodi:type="inkscape:persp3d" id="perspective5571" inkscape:persp3d-origin="202.85715 : 136.19048 : 1">
		</inkscape:perspective>
	
		<inkscape:perspective  inkscape:vp_z="128 : 64 : 1" inkscape:vp_y="0 : 1000 : 0" inkscape:vp_x="0 : 64 : 1" sodipodi:type="inkscape:persp3d" id="perspective6552" inkscape:persp3d-origin="64 : 42.666667 : 1">
		</inkscape:perspective>
	
		<inkscape:perspective  inkscape:vp_z="477 : 171.5 : 1" inkscape:vp_y="0 : 1000 : 0" inkscape:vp_x="0 : 171.5 : 1" sodipodi:type="inkscape:persp3d" id="perspective8761" inkscape:persp3d-origin="238.5 : 114.33333 : 1">
		</inkscape:perspective>
</defs>
<g id="layer3" transform="matrix(48.14969,0,0,48.14969,-536.27327,-33.306752)" inkscape:label="Layout" display="none">
	<rect id="rect4134" x="1" y="1" display="inline" fill="none" stroke="#757575" stroke-width="0.1" width="10" height="10"/>
	<rect id="rect4136" x="2" y="2" display="inline" fill="none" stroke="#757575" stroke-width="0.1" width="8" height="8"/>
</g>
<path fill="param(fill) #FFF" stroke="param(outline) #000" stroke-width="param(outline-width) 1" d="M531.756,383.49c-3.262-13.698-9.172-25.809-9.204-40.35
	c-0.016-7.23,3.288-14.682,4.097-21.902c4.771-42.646,11.436-101.951-25.167-133.221c-16.322-13.943-34.002-24.128-51.873-35.672
	c-13.984-9.035-28.297-19.582-44.96-23.178c-12.222-2.637-25.62,1.261-38.043,0.657c-27.086-1.317-53.692-6.444-80.697-8.98
	c-12.289-1.155-24.461,1.215-36.89-1.123c-26.705-5.022-46.456-25.203-72.627-31.803c-8.29-2.09-22.656-0.658-31.126,0.83
	c-7.999,1.405-12.234,7.008-18.462,11.443c-18.088,12.88-41.81,33.535-51.825,53.888c-6.148,12.494-6.808,29.191-10.752,42.655
	c-5.749,19.625-16.67,35.952-19.903,56.488c-3.386,21.508,1.801,44.101,1.799,65.71c-0.001,16.246-9.089,36.118-3.305,51.877
	c8.085,22.029,51.007,29.309,54.029,0c5.645,1.665,19.51,0.265,14.758-9.102c-2.637-5.196-15.042-11.738-20.522-13.291
	c-8.257-2.338-22.13,7.813-11.528,14.323l-2.306,6.917c-8.878-4.242-11.408-17.226-10.686-26.516
	c0.508-6.532,6.407-13.422,8.744-19.598c6.384-16.871,11.627-33.452,16.593-50.724c1.985-6.904,2.573-19.97,8.575-24.522
	c5.624-4.267,14.261-4.888,20.576-8.031c4.655-2.317,7.696-7.084,12.703-8.632c10.75-3.324,21.341-2.467,26.497-14.15
	c10.888,16.436,19.976,31.751,21.783,51.877c1.284,14.308-8.482,28.977-11.779,42.655c-2.305,9.561-1.595,19.298-4.105,28.82
	c-3.132,11.874-9.241,22.849-12.221,34.584c-1.798,7.08-0.187,15.135-2.396,21.902c-3.955,12.115-26.536,19.355-23.851,34.58
	c1.24,7.036,9.444,8.419,15.278,9.613c13.548,2.772,28.132,1.063,41.501-1.031c4.452-0.697,9.858,0.163,13.333-3.313
	c8.391-8.39-1.523-24.244,1.195-34.084c1.947-7.052,8.617-13.196,12.101-19.598c7.574-13.922,13.987-28.587,18.33-43.808h1.153
	c0.276,13.417,3.515,30.231,8.662,42.654c3.25,7.844,11.618,19.098,11.39,27.668c-0.392,14.687-22.645,24.293-11.972,41.479
	c10.737,17.289,36.115-0.104,49.561-3.147c7.371-1.668,17.256,0.516,20.873-8.408c4.994-12.316-5.143-23.993-6.843-35.688
	c-1.947-13.384,0.567-26.85-1.885-40.348c-1.794-9.879-9.835-21.374-9.565-31.127c0.189-6.862,5.062-14.988,6.643-21.903
	l43.808,20.572l18.444,10.554c0.081,9.799-0.188,21.508,1.532,31.127c0.822,4.594,5.136,9.234,3.82,13.982
	c-2.564,9.253-25.212,18.746-20.115,28.551c2.802,5.388,10.534,7.233,15.916,8.616c13.629,3.505,49.335,8.77,59.354-4.009
	c4.416-5.632,4.049-15.002,4.052-21.779c0.007-17.082,1.808-35.181-2.306-51.877c14.834,9.148,18.207,27.531,25.643,42.654
	c2.576,5.238,7.942,13.546,6.187,19.581c-2.709,9.308-30.478,23.841-17.629,36.408c3.563,3.484,10.037,3.744,14.62,5.139
	c13.26,4.035,53.508,10.62,59.775-6.963c5.857-16.432,4.362-45.45,0.286-62.234c-2.398-9.879-7.972-18.448-8.945-28.821
	c-0.896-9.543,5.715-19.203,6.421-28.82c0.98-13.387-3.157-25.144-3.569-38.042c-0.264-8.298,2.521-16.843,2.521-25.362
	c12.662,33.565-0.593,69.678,8.624,103.754c1.342,4.96,1.866,33.092,11.803,30.259C531.402,393.09,532.505,386.629,531.756,383.49z"
	/>
</svg>
