<svg enable-background="new 0 0 580 580" height="580" viewBox="0 0 580 580" width="580" xmlns="http://www.w3.org/2000/svg">
<path d="m527.785 287.529c-1.968-10.362-5.808-20.846-9.555-26.087-5.512-7.709-9.122-11.141-17.56-16.692-3.001-1.975-11.564-6.206-14.024-6.262-.034-.001-.093-.011-.145-.023-.551-.391-1.892-.858-8.711-1.799-1.415-.195-2.635-.375-3.645-.53 2.492-2.431 6.419-5.709 7.513-6.119.25.002 1.171.268 4.315 2.671 3.226 2.463 5.672 3.02 8.799 2.031.703-.223 5.511-1.465 11.156-2.832 16.381-3.965 16.381-3.965 16.941-6.057.596-2.224-.578-3.713-6.909-11.251-2.882-3.43-5.663-6.769-6.133-7.347-3.218-3.954-11.881-12.467-29.902-29.387-21.073-19.785-85.766-79.407-88.423-81.39-.691-.516-5.686-4.85-11.749-10.247-16.719-14.88-36.393-31.051-41.277-33.927-.913-.537-1.816-1.02-2.843-1.02-2.931 0-3.408 2.948-3.962 6.362-.32 1.978-1.212 5.567-1.947 7.838-3.912 12.076-4.082 14.162-4.138 14.847-.265 3.236 2.454 7.669 5.266 10.628.777.819 1.347 1.551 1.634 1.975-.299.939-1.619 3.584-5.397 8.147l-.08.097c-.117.142-.234.282-.349.42-.86-4.978-2.41-12.697-2.992-14.207-2.194-5.688-7.164-13.114-12.971-19.379-4.561-4.921-14.928-12.166-21.333-14.909-2.713-1.162-8.521-3.237-10.436-3.237-.107 0-.21.005-.309.015-2.644-1.332-9.799-1.458-10.624-1.467l-.568-.003c-1.204 0-2.408.045-3.578.135-6.595.507-14.595 2.589-17.832 4.641-1.248.792-3.732 2.263-5.412 3.228-5.08 2.92-16.481 15.3-21.785 23.656-3.124 4.921-6.702 10.792-7.976 13.085-.168.296-1.294 1.966-3.27 4.752-1.596 2.25-3.598 5.388-4.464 6.995-.475.88-.912 1.557-1.151 1.89-.701.533-1.702 1.88-3.963 5.515-7.878 12.664-16.019 21.954-18.387 23.04-5.072 2.325-13.327 9.817-18.026 16.361-1.599 2.226-4.288 5.897-5.955 8.168-3.847 5.241-10.023 15.905-12.239 21.131l-.962 2.274c-.764 1.806-1.631 3.858-2.253 5.313-1.771 4.144-5.355 13.744-5.631 15.537-.047.293-.437 1.816-.982 3.561-.507 1.62-1.264 4.246-1.687 5.854-.386 1.467-1.258 4.759-1.993 7.534l-.131.493c-.772 2.917-1.575 6.218-1.788 7.358-.18.962-.327 1.535-.37 1.662.008-.023.062-.176.191-.374-.383.632-.917 2.452-2.512 11.289-.132.734-.251 1.236-.315 1.464-.366.768-.734 2.703-1.798 10.235-1.347 9.533-1.23 10.321-1.181 10.656.005.035.009.069.011.1-.235.657-.445 1.93-.685 4.932-.111 1.386-.244 2.967-.35 4.225l-.15 1.804c-.091 1.117-.243 3.437-.347 5.141-.102 1.671-.267 4.029-.371 5.257-.279 3.295-.383 5.095-.445 7.706-.019.787-.063 1.412-.094 1.72-.205.729-.306 2.174-.457 5.845-.098 2.376-.192 5.658-.136 7.084.051 1.285.104 3.124.124 4.112.201 9.714 1.331 21.765 3.183 33.931 1.056 6.938 1.691 13.007 1.723 16.409-.543-.253-1.152-.554-1.744-.872-1.512-.813-3.751-1.747-5.099-2.129-.859-.243-1.521-.488-1.785-.604-.488-.355-1.554-.749-6.808-1.639-3.189-.541-5.695-1.17-6.125-1.348-2.675-1.233-9.794-2.881-13.603-3.148-.671-.048-1.356-.071-2.038-.071-7.938 0-15.289 3.094-18.291 7.698-2.717 4.168-4.373 10.854-3.937 15.896.456 5.272 3.487 18.499 5.846 21.558.091.188.276.623.461 1.163.408 1.184 1.469 3.529 5.961 10.205 1.096 1.628 1.948 3.143 2.079 3.463.764 1.916 8.464 11.933 12.987 17.733 2.323 2.979 4.35 5.615 4.82 6.27.241.335.689.959 12.623 12.039l.729.677.993-.05c7.752-.383 15.365-.578 22.629-.578 12.096 0 23.616.539 34.238 1.601 33.589 3.359 59.341 5.737 84.907 5.737 21.903 0 44.082-1.773 71.911-5.749 12.852-1.836 27.059-3.578 42.227-5.177l.465-.097c6.574-2.083 11.48-3.882 15.44-5.659 1.288-.578 3.35-1.41 4.521-1.851 7.291-2.737 23.886-12.099 30.097-16.979 1.773-1.394 3.504-2.59 3.963-2.835 3.72-1.979 8.582-6.42 16.783-15.328 8.711-9.461 9.051-9.831 14.302-19.4 3.358-6.122 15.295-18.484 22.02-22.807 1.086-.697 3.224-2.237 4.765-3.433 4.816-3.736 7.537-5.724 9.098-6.646 1.02-.603 2.438-1.628 3.298-2.387.621-.548 2.338-1.913 3.807-2.995 13.208-9.722 22.561-18.491 27.046-25.359 2.735-4.19 4.566-9.656 5.761-17.202.92-5.818.884-6.751-.545-14.275zm-23.689 10.119c-1.384 3.422-1.438 3.556-7.734 10.379-5.024 5.444-7.051 7.357-9.428 8.903-1.858 1.208-4.562 3.039-6.001 4.043-1.36.948-4.188 2.835-6.228 4.131-2.056 1.306-5.042 3.232-6.742 4.379-4.584 3.092-9.551 5.45-11.033 5.758-.021-.229-.039-.438-.049-.556-.207-2.554-3.951-17.689-5.387-22.156-1.124-3.498-3.646-15.907-4.087-20.118-1.135-10.825 2.579-20.599 9.242-24.32 6.092-3.403 13.645-5.277 21.269-5.277.364 0 .727.004 1.088.013 7.778.186 14.817 2.406 19.312 6.091 4.105 3.366 7.314 8.245 7.984 12.139.702 4.089-.349 11.997-2.206 16.591zm-218.364-166.215c-4.802.42-8.162.6-11.232.6-6.349 0-11.938-.765-23.003-3.149-2.486-.536-5.107-1.09-6.313-1.345l-.445-.094c-.681-.144-2.415-.554-4.19-.973l-1.258-.297c-2.358-.556-5.535-1.135-7.126-1.354-1.596-.219-3.208-.612-3.555-.753-.209-.085-.366-.154-.483-.209.273-1.215 1.452-4.359 2.48-5.956 1.133-1.761 3.523-6.008 5.327-9.468.481-.923 1.882-3.273 3.122-5.238 1.216-1.927 3.087-5.049 4.23-7.008 7.038-12.063 16.851-22.331 24.417-25.55 1.485-.631 3.451-.988 5.685-1.031l.442-.004c3.674 0 7.521.87 10.291 2.327 3.092 1.627 3.504 1.9 7.892 6.167 4.485 4.362 4.519 4.428 6.258 7.873 3.44 6.814 4.807 12.055 4.716 18.089-.067 4.444-1.213 11.199-1.755 12.568-.571.72-1.005 1.745-1.105 2.64-.118 1.045-2.435 5.26-5.425 8.514-2.866 3.116-2.866 3.116-8.97 3.651z" fill="param(fill)" fill-opacity="param(fill-opacity)" stroke="param(outline)" stroke-opacity="param(outline-opacity)" stroke-width="param(outline-width)"/>
<path d="m325.921 477.743c-59.424 8.489-89.364 6.104-151.419-.102-46.626-4.663-96.254 1.294-121.688 5.259l-19.761 3.082 6.163 39.522 19.761-3.082c23.546-3.671 69.347-9.196 111.545-4.98 63.7 6.37 97.156 9.026 161.056-.102 50.133-7.163 124.21-13.437 168.384-10.292l19.949 1.421 2.842-39.898-19.949-1.421c-47.365-3.374-122.966 2.889-176.883 10.593z" fill="param(fill)" fill-opacity="param(fill-opacity)" stroke="param(outline)" stroke-opacity="param(outline-opacity)" stroke-width="param(outline-width)"/>
</svg>
