<?xml version="1.0" encoding="utf-8"?>
<!-- Generator: Adobe Illustrator 16.0.0, SVG Export Plug-In . SVG Version: 6.00 Build 0)  -->
<!DOCTYPE svg PUBLIC "-//W3C//DTD SVG 1.1//EN" "http://www.w3.org/Graphics/SVG/1.1/DTD/svg11.dtd">
<svg version="1.1"
	 id="svg2" xmlns:dc="http://purl.org/dc/elements/1.1/" xmlns:cc="http://creativecommons.org/ns#" xmlns:rdf="http://www.w3.org/1999/02/22-rdf-syntax-ns#" xmlns:svg="http://www.w3.org/2000/svg" xmlns:sodipodi="http://sodipodi.sourceforge.net/DTD/sodipodi-0.dtd" xmlns:inkscape="http://www.inkscape.org/namespaces/inkscape" inkscape:output_extension="org.inkscape.output.svg.inkscape" sodipodi:docname="sport_sailing.svg" inkscape:version="0.47 r22583" sodipodi:version="0.32"
	 xmlns="http://www.w3.org/2000/svg" xmlns:xlink="http://www.w3.org/1999/xlink" x="0px" y="0px" width="580px" height="580px"
	 viewBox="0 0 580 580" enable-background="new 0 0 580 580" xml:space="preserve">
<sodipodi:namedview  showgrid="false" inkscape:cy="281.19503" inkscape:cx="301.5186" inkscape:zoom="0.92167712" pagecolor="#ffffff" bordercolor="#666666" guidetolerance="10.0" objecttolerance="10.0" gridtolerance="10.0" borderopacity="1.0" id="base" inkscape:window-maximized="0" inkscape:current-layer="svg2" inkscape:window-y="25" inkscape:window-x="91" inkscape:pageopacity="0.0" inkscape:pageshadow="2" inkscape:window-width="1048" inkscape:window-height="947">
	</sodipodi:namedview>
<defs>
	
	
		<inkscape:perspective  inkscape:vp_z="580 : 290 : 1" inkscape:vp_y="0 : 1000 : 0" inkscape:vp_x="0 : 290 : 1" sodipodi:type="inkscape:persp3d" id="perspective2441" inkscape:persp3d-origin="290 : 193.33333 : 1">
		</inkscape:perspective>
	
		<inkscape:perspective  inkscape:vp_z="60 : 30 : 1" inkscape:vp_y="0 : 1000 : 0" inkscape:vp_x="0 : 30 : 1" sodipodi:type="inkscape:persp3d" id="perspective3452" inkscape:persp3d-origin="30 : 20 : 1">
		</inkscape:perspective>
	
		<inkscape:perspective  inkscape:vp_z="744.09448 : 526.18109 : 1" inkscape:vp_y="0 : 1000 : 0" inkscape:vp_x="0 : 526.18109 : 1" sodipodi:type="inkscape:persp3d" id="perspective4471" inkscape:persp3d-origin="372.04724 : 350.78739 : 1">
		</inkscape:perspective>
	
		<inkscape:perspective  inkscape:vp_z="12 : 6 : 1" inkscape:vp_y="0 : 1000 : 0" inkscape:vp_x="0 : 6 : 1" sodipodi:type="inkscape:persp3d" id="perspective4668" inkscape:persp3d-origin="6 : 4 : 1">
		</inkscape:perspective>
	
		<inkscape:perspective  inkscape:vp_z="1 : 0.5 : 1" inkscape:vp_y="0 : 1000 : 0" inkscape:vp_x="0 : 0.5 : 1" sodipodi:type="inkscape:persp3d" id="perspective19376" inkscape:persp3d-origin="0.5 : 0.33333333 : 1">
		</inkscape:perspective>
</defs>
<g id="layer3" transform="matrix(48.14969,0,0,48.14969,-536.27327,-33.306752)" inkscape:label="Layout" display="none">
	<rect id="rect4134" x="1" y="1" display="inline" fill="none" stroke="#757575" stroke-width="0.1" width="10" height="10"/>
	<rect id="rect4136" x="2" y="2" display="inline" fill="none" stroke="#757575" stroke-width="0.1" width="8" height="8"/>
</g>
<path fill="param(fill)" fill-opacity="param(fill-opacity)" stroke="param(outline)" stroke-opacity="param(outline-opacity)" stroke-width="param(outline-width)" d="M513.985,465.248c-9.634-4.451-20.427-7.073-31.891-7.073
	c-11.28,0-22.135,2.622-31.769,7.073c-9.391,4.207-19.879,6.708-30.977,6.708c-10.976,0-21.464-2.501-30.977-6.708
	c-9.634-4.451-20.488-7.073-31.769-7.073c-11.281,0-22.135,2.622-31.892,7.073c-9.269,4.207-19.878,6.708-30.854,6.708
	c-10.977,0-21.586-2.501-30.977-6.708c-9.635-4.451-20.428-7.073-31.769-7.073c-11.403,0-22.257,2.622-31.891,7.073
	c-9.391,4.207-19.878,6.708-30.854,6.708c-11.098,0-21.585-2.501-31.098-6.708c-9.512-4.451-20.488-7.073-31.769-7.073
	s-22.135,2.622-31.769,7.073c-9.39,4.207-20,6.708-30.976,6.708v46.342c10.976,0,21.586-2.438,30.976-6.646
	c9.634-4.451,20.488-7.073,31.769-7.073s22.257,2.622,31.769,7.073c9.513,4.208,20,6.646,31.098,6.646
	c10.976,0,21.464-2.438,30.854-6.646c9.634-4.451,20.427-7.073,31.891-7.073c11.281,0,22.134,2.622,31.769,7.073
	c9.39,4.208,20,6.646,30.977,6.646c10.976,0,21.585-2.438,30.854-6.646c9.757-4.451,20.61-7.073,31.892-7.073
	c11.28,0,22.135,2.622,31.769,7.073c9.513,4.208,20.001,6.646,30.977,6.646c11.098,0,21.586-2.438,30.977-6.646
	c9.634-4.451,20.427-7.073,31.769-7.073c11.402,0,22.257,2.622,31.891,7.073c9.391,4.208,19.879,6.646,30.854,6.646v-46.342
	C533.864,471.956,523.376,469.455,513.985,465.248z"/>
<path fill="param(fill)" fill-opacity="param(fill-opacity)" stroke="param(outline)" stroke-opacity="param(outline-opacity)" stroke-width="param(outline-width)" d="M105.379,414.881c11.342,0,22.257,2.622,31.769,7.073
	c9.513,4.208,20,6.646,31.099,6.646c10.976,0,21.464-2.438,30.854-6.646c9.634-4.451,20.488-7.073,31.891-7.073
	c11.342,0,22.135,2.622,31.769,7.073c9.391,4.208,20,6.646,30.976,6.646c10.977,0,21.587-2.438,30.854-6.646
	c9.757-4.451,20.61-7.073,31.892-7.073c11.28,0,22.135,2.622,31.769,7.073c9.513,4.208,20.001,6.646,30.977,6.646
	c3.109,0,6.098-0.67,9.146-1.036c5.488-1.22,11.098-1.707,16.464-3.842c0.122-0.061,0.244-0.122,0.366-0.183
	c9.938-55.672,32.866-167.138,32.866-167.138s-79.819,32.989-165.675,68.843l-45.366-108.051l45.732-19.208l-11.769-28.11
	c-15.264,6.424-30.533,12.835-45.793,19.269l-22.745-54.147l-28.11,11.769l22.745,54.208c-24.025,10.061-49.026,20.61-49.026,20.61
	l11.769,28.11l49.087-20.61l45.367,107.99C190.808,376.222,99.83,414.881,105.379,414.881z"/>
</svg>
