<?xml version="1.0" encoding="utf-8"?>
<!-- Generator: Adobe Illustrator 16.0.0, SVG Export Plug-In . SVG Version: 6.00 Build 0)  -->
<!DOCTYPE svg PUBLIC "-//W3C//DTD SVG 1.1//EN" "http://www.w3.org/Graphics/SVG/1.1/DTD/svg11.dtd">
<svg version="1.1"
	 id="svg2" xmlns:dc="http://purl.org/dc/elements/1.1/" xmlns:cc="http://creativecommons.org/ns#" xmlns:rdf="http://www.w3.org/1999/02/22-rdf-syntax-ns#" xmlns:svg="http://www.w3.org/2000/svg" xmlns:sodipodi="http://sodipodi.sourceforge.net/DTD/sodipodi-0.dtd" xmlns:inkscape="http://www.inkscape.org/namespaces/inkscape" inkscape:output_extension="org.inkscape.output.svg.inkscape" sodipodi:docname="beach.svg" inkscape:version="0.46" sodipodi:version="0.32"
	 xmlns="http://www.w3.org/2000/svg" xmlns:xlink="http://www.w3.org/1999/xlink" x="0px" y="0px" width="580px" height="580px"
	 viewBox="0 0 580 580" enable-background="new 0 0 580 580" xml:space="preserve">
<sodipodi:namedview  showgrid="false" inkscape:cy="209.12086" inkscape:cx="-308.95575" inkscape:zoom="0.5" pagecolor="#ffffff" bordercolor="#666666" guidetolerance="10.0" objecttolerance="10.0" gridtolerance="10.0" borderopacity="1.0" id="base" inkscape:current-layer="svg2" inkscape:window-y="121" inkscape:window-x="151" inkscape:pageopacity="0.0" inkscape:pageshadow="2" inkscape:window-width="718" inkscape:window-height="675">
	</sodipodi:namedview>
<defs>
	
	
		<inkscape:perspective  inkscape:vp_z="580 : 290 : 1" inkscape:vp_y="0 : 1000 : 0" inkscape:vp_x="0 : 290 : 1" sodipodi:type="inkscape:persp3d" id="perspective12" inkscape:persp3d-origin="290 : 193.33333 : 1">
		</inkscape:perspective>
</defs>
<path fill="#FFFB3D" stroke="#1EFF31" stroke-width="4.4444" d="M534.347,530.68l-72.888-315.532
	c-0.521-2.25-2.513-3.851-4.821-3.874l-49.068-0.499c-0.018,0-0.034,0-0.051,0c-2.183,0-4.116,1.417-4.771,3.503l-22.107,70.463
	l-40.657-1.528l-22.081-69.636c-0.66-2.08-2.59-3.489-4.766-3.489c-0.021,0-0.043,0-0.063,0l-18.084,0.228v-68.247
	c52.191,19.688,98.972-7.523,148.876-7.665c0-29.292,0-58.583,0-87.875c-54.729-9.595-109.458,28.515-164.188,1.344
	c-0.063,29-0.125,58-0.188,87c0.167,0.092,0.333,0.177,0.499,0.269v75.363l-16.142,0.203c-2.157,0.027-4.053,1.435-4.704,3.491
	l-21.988,69.498h-41.897l-23.195-70.178c-0.677-2.048-2.591-3.431-4.748-3.431h-47.422c-2.324,0-4.341,1.601-4.869,3.864
	L41.468,529.306c-0.346,1.482,0.002,3.042,0.947,4.236s2.381,1.894,3.904,1.899l483.239,1.804c0.006,0,0.013,0,0.019,0
	c0.008,0.002,0.013,0,0.02,0c2.762,0,5-2.238,5-5C534.596,531.698,534.509,531.173,534.347,530.68z"/>
</svg>
