<?xml version="1.0" encoding="UTF-8" standalone="no"?>
<!-- Created with Inkscape (http://www.inkscape.org/) -->
<svg
   xmlns:dc="http://purl.org/dc/elements/1.1/"
   xmlns:cc="http://creativecommons.org/ns#"
   xmlns:rdf="http://www.w3.org/1999/02/22-rdf-syntax-ns#"
   xmlns:svg="http://www.w3.org/2000/svg"
   xmlns="http://www.w3.org/2000/svg"
   xmlns:xlink="http://www.w3.org/1999/xlink"
   xmlns:sodipodi="http://sodipodi.sourceforge.net/DTD/sodipodi-0.dtd"
   xmlns:inkscape="http://www.inkscape.org/namespaces/inkscape"
   version="1.0"
   width="580"
   height="580"
   id="svg2"
   sodipodi:version="0.32"
   inkscape:version="0.46"
   sodipodi:docname="amenity_firestation2.svg"
   sodipodi:docbase="s:\Data\FacilityIcons"
   inkscape:output_extension="org.inkscape.output.svg.inkscape">
  <metadata
     id="metadata1976">
    <rdf:RDF>
      <cc:Work
         rdf:about="">
        <dc:format>image/svg+xml</dc:format>
        <dc:type
           rdf:resource="http://purl.org/dc/dcmitype/StillImage" />
        <cc:license
           rdf:resource="http://web.resource.org/cc/PublicDomain" />
        <dc:language>en</dc:language>
      </cc:Work>
    </rdf:RDF>
  </metadata>
  <sodipodi:namedview
     inkscape:window-height="1003"
     inkscape:window-width="1400"
     inkscape:pageshadow="2"
     inkscape:pageopacity="0.0"
     guidetolerance="10.0"
     gridtolerance="10.0"
     objecttolerance="10.0"
     borderopacity="1.0"
     bordercolor="#666666"
     pagecolor="#ffffff"
     id="base"
     inkscape:zoom="1.1952453"
     inkscape:cx="305.74659"
     inkscape:cy="290.00963"
     inkscape:window-x="0"
     inkscape:window-y="20"
     inkscape:current-layer="svg2"
     showgrid="false" />
  <defs
     id="defs4">
    <inkscape:perspective
       sodipodi:type="inkscape:persp3d"
       inkscape:vp_x="0 : 290 : 1"
       inkscape:vp_y="0 : 1000 : 0"
       inkscape:vp_z="580 : 290 : 1"
       inkscape:persp3d-origin="290 : 193.33333 : 1"
       id="perspective3653" />
    <marker
       viewBox="0 0 10 10"
       refY="5"
       refX="10"
       orient="auto"
       markerWidth="4"
       markerUnits="strokeWidth"
       markerHeight="3"
       id="ArrowStart">
      <path
         id="path2111"
         d="M 10 0 L 0 5 L 10 10 z" />
    </marker>
    <marker
       viewBox="0 0 10 10"
       refY="5"
       refX="0"
       orient="auto"
       markerWidth="4"
       markerUnits="strokeWidth"
       markerHeight="3"
       id="ArrowEnd">
      <path
         id="path2108"
         d="M 0 0 L 10 5 L 0 10 z" />
    </marker>
    <inkscape:perspective
       id="perspective2512"
       inkscape:persp3d-origin="177.51199 : 145.02 : 1"
       inkscape:vp_z="355.02399 : 217.53 : 1"
       inkscape:vp_y="0 : 1000 : 0"
       inkscape:vp_x="0 : 217.53 : 1"
       sodipodi:type="inkscape:persp3d" />
    <inkscape:perspective
       id="perspective3305"
       inkscape:persp3d-origin="372.04724 : 350.78739 : 1"
       inkscape:vp_z="744.09448 : 526.18109 : 1"
       inkscape:vp_y="0 : 1000 : 0"
       inkscape:vp_x="0 : 526.18109 : 1"
       sodipodi:type="inkscape:persp3d" />
    <inkscape:perspective
       id="perspective3354"
       inkscape:persp3d-origin="372.04724 : 350.78739 : 1"
       inkscape:vp_z="744.09448 : 526.18109 : 1"
       inkscape:vp_y="0 : 1000 : 0"
       inkscape:vp_x="0 : 526.18109 : 1"
       sodipodi:type="inkscape:persp3d" />
    <inkscape:perspective
       id="perspective3569"
       inkscape:persp3d-origin="372.04724 : 350.78739 : 1"
       inkscape:vp_z="744.09448 : 526.18109 : 1"
       inkscape:vp_y="0 : 1000 : 0"
       inkscape:vp_x="0 : 526.18109 : 1"
       sodipodi:type="inkscape:persp3d" />
    <inkscape:perspective
       id="perspective3604"
       inkscape:persp3d-origin="372.04724 : 350.78739 : 1"
       inkscape:vp_z="744.09448 : 526.18109 : 1"
       inkscape:vp_y="0 : 1000 : 0"
       inkscape:vp_x="0 : 526.18109 : 1"
       sodipodi:type="inkscape:persp3d" />
    <inkscape:perspective
       id="perspective4346"
       inkscape:persp3d-origin="372.04724 : 350.78739 : 1"
       inkscape:vp_z="744.09448 : 526.18109 : 1"
       inkscape:vp_y="0 : 1000 : 0"
       inkscape:vp_x="0 : 526.18109 : 1"
       sodipodi:type="inkscape:persp3d" />
  </defs>
  <g
     id="g1327">
    <path
       d="M 66.275,1.768 C 24.94,1.768 1.704,23.139 1.704,66.804 L 1.704,516.927 C 1.704,557.771 22.6,579.156 63.896,579.156 L 515.92,579.156 C 557.227,579.156 578.149,558.842 578.149,516.927 L 578.149,66.804 C 578.149,24.203 557.227,1.768 514.628,1.768 C 514.624,1.768 66.133,1.625 66.275,1.768 z"
       style="fill:#111111;stroke:#eeeeee;stroke-width:3.40799999"
       id="path1329" />
  </g>
  <g
     id="g2117"
     transform="matrix(1.1975036,0,0,1.1975036,80.128205,34.575832)"
     style="fill:#000000">
    <g
       id="g2119"
       style="fill:#000000">
      <g
         id="g2121"
         style="fill:#000000">
        <path
           id="path2125"
           style="fill:#000000;stroke:none"
           d="" />
      </g>
      <g
         id="g2127"
         style="fill:#000000">
        <path
           id="path2131"
           style="fill:#000000;stroke:none"
           d="" />
      </g>
    </g>
  </g>
  <image
     y="573.99469"
     x="-1801.1931"
     id="image3356"
     height="190"
     width="239"
     sodipodi:absref="U:\svn.openstreetmap.org\applications\share\map-icons\svg-twotone\pastedpic_10102008_233747.png"
     xlink:href="pastedpic_10102008_233747.png" />
  <path
     style="fill:#ffffff"
     d="M 289.9375 4.84375 C 275.5532 4.811408 258.79554 9.2025283 246.78125 16.125 C 245.12495 17.079322 242.06189 18.802219 239.96875 19.96875 C 237.87554 21.135282 232.47189 24.277691 227.96875 26.9375 C 215.39214 34.365923 204.32209 39.745937 195.875 42.5625 C 179.05895 48.169582 164.10423 50.481359 145.59375 50.28125 C 129.82378 50.110766 122.59594 50.993751 116.96875 53.8125 C 112.95011 55.825499 110.6796 57.976504 109 61.375 C 107.69699 64.011451 107.56153 64.544331 107.40625 68.3125 C 107.22127 72.801546 107.67898 75.81366 108.90625 78.125 C 109.74226 79.699338 112.36514 83.044054 116.46875 87.8125 C 117.83059 89.394942 120.12848 92.125229 121.59375 93.875 C 123.05895 95.624759 126.08341 99.115221 128.28125 101.625 C 130.47909 104.13479 132.94398 106.99964 133.78125 108 C 135.5552 110.11952 143.01714 118.43319 146.375 122.03125 C 147.6506 123.39803 150.97442 127.07901 153.75 130.21875 C 156.80884 133.67892 159.90839 137.1378 163.0625 140.65625 C 168.42348 136.12477 174.0484 131.85522 179.875 127.90625 C 179.57836 127.56681 179.38505 127.36441 179.09375 127.03125 C 173.86765 121.05422 167.13367 113.32872 164.125 109.875 C 157.11705 101.83041 152.18284 96.188691 149.78125 93.5 C 148.73472 92.328295 146.48703 89.780505 144.8125 87.8125 C 143.13796 85.844495 140.98639 83.369976 140.03125 82.3125 C 139.07608 81.255021 137.88504 79.838468 137.375 79.1875 C 136.86495 78.53653 135.35771 76.771109 134.03125 75.25 C 131.95107 72.864606 131.69149 72.402274 132.15625 71.9375 C 132.78523 71.308536 137.09358 71.135266 158.34375 70.875 C 178.65164 70.626272 180.44199 70.369463 194.28125 65.8125 C 202.23139 63.194709 208.40933 60.451258 218.09375 55.21875 C 226.13259 50.875317 235.51026 45.76069 239.59375 43.46875 C 249.76199 37.76158 260.47057 32.580354 265.84375 30.78125 C 270.17054 29.332513 277.73757 27.284185 281.875 26.46875 C 287.42869 25.37418 297.30431 25.275504 302.5625 26.25 C 314.85166 28.527546 330.93041 34.80229 342.5625 41.84375 C 345.15972 43.416012 348.19841 45.156329 349.3125 45.71875 C 350.42651 46.281172 354.6937 48.648646 358.8125 50.96875 C 362.93137 53.288856 367.17222 55.644512 368.21875 56.21875 C 369.26535 56.792984 372.42422 58.558316 375.25 60.15625 C 386.7526 66.660832 398.87151 71.956019 409.78125 75.21875 C 417.68865 77.58358 421.87888 78.218521 432.53125 78.65625 C 450.46883 79.393323 458.22633 80.058895 458.75 80.90625 C 458.84524 81.060364 454.78161 85.378084 449.71875 90.5 C 441.09474 99.224638 422.63659 117.51545 407.59375 132.3125 C 413.56528 136.70219 419.2842 141.41985 424.71875 146.4375 C 430.50585 140.64159 436.18311 134.92621 443.1875 127.9375 C 466.8925 104.28557 479.88993 91.056824 480.75 89.6875 C 482.90429 86.257451 483.06219 85.622524 483.09375 79.53125 C 483.11736 74.961723 482.97316 73.483901 482.375 71.65625 C 481.46669 68.880969 479.02979 66.064014 476.375 64.71875 C 469.43914 61.20407 462.98894 59.872269 449.09375 59.0625 C 432.67351 58.105584 429.63457 57.799959 422.5 56.40625 C 411.61625 54.280139 400.82382 50.643899 389.15625 45.1875 C 384.60291 43.058112 382.63521 41.936301 369.40625 33.96875 C 364.56509 31.053016 358.82283 27.657917 356.625 26.40625 C 354.42723 25.154584 350.65709 22.946941 348.25 21.5 C 336.27809 14.303626 320.36743 7.9868128 309.6875 6.1875 C 304.84932 5.372371 297.40992 4.8605508 289.9375 4.84375 z M 80.40625 95.875 C 76.779581 95.784943 72.646878 96.306649 69.875 97.34375 C 63.000055 99.91598 60.301187 108.02832 59.375 129.09375 C 58.614286 146.39807 58.476911 147.48237 55.375 158.8125 C 52.612451 168.90318 49.753185 176.19138 43.59375 188.8125 C 39.012488 197.69408 34.209166 207.09194 28.1875 214.90625 C 28.1875 215.59993 25.315633 221.48363 24.375 222.71875 C 23.16456 224.30816 15.004088 240.22214 13.0625 244.78125 C 7.7670688 257.21586 5.082409 268.04897 4.1875 280.8125 C 3.356263 292.6679 4.784594 301.97826 9.78125 317.46875 C 11.812948 323.76746 16.399521 333.61075 25.40625 350.96875 C 38.327956 375.87162 41.615464 383.06644 45.4375 394.84375 C 50.685791 411.0157 51.718198 418.35392 51.5 437.75 C 51.40855 445.87725 51.522986 451.67049 51.78125 453.34375 C 53.555802 464.83928 59.514737 471.37664 68.8125 472.03125 C 71.611167 472.22831 71.898233 472.17607 74.5 470.90625 C 78.078222 469.15986 80.393233 467.65764 87.75 462.34375 C 93.472295 458.2104 96.529111 455.81258 104.03125 449.625 C 105.74354 448.21269 108.09876 446.34826 109.25 445.46875 C 110.40123 444.5893 112.63328 442.66336 114.21875 441.1875 C 115.80422 439.71158 119.19833 436.69782 121.78125 434.5 C 129.75125 427.71817 134.36926 423.73584 139.46875 419.21875 C 134.76385 413.64571 130.35607 407.79321 126.28125 401.71875 C 126.1664 401.82254 125.90332 402.07279 125.8125 402.15625 C 124.55098 403.31544 122.64028 404.95681 121.59375 405.78125 C 120.54715 406.60569 117.70697 408.99573 115.28125 411.09375 C 109.31879 416.25084 102.38208 422.17222 97.28125 426.4375 C 93.317719 429.75178 91.949471 430.93251 83.75 438 C 81.968896 439.53524 78.916789 442.09655 77 443.71875 C 75.083284 445.34095 73.443542 446.68749 73.34375 446.6875 C 72.669422 446.6875 72.503231 443.46945 72.46875 428.78125 C 72.443132 417.84513 72.300787 411.32235 72 409.5625 C 70.65194 401.67581 67.567318 391.54859 63.78125 382.5625 C 61.866247 378.01726 55.961795 366.40491 46.78125 349.0625 C 35.339267 327.44797 32.260604 320.70972 29 310.0625 C 23.491435 292.07443 23.408507 280.32239 28.625 263.4375 C 32.290872 251.5717 37.267815 241.15735 47.46875 224.03125 C 62.55836 198.69749 66.618697 190.9672 72.34375 176.75 C 78.492833 161.47993 78.866815 159.12101 80.21875 127.75 C 80.470981 121.89538 80.542234 121.47916 81.25 121.34375 C 81.832581 121.23229 90.158496 129.37518 117.125 156.5 C 122.95973 162.36897 128.16802 167.62735 132.90625 172.4375 C 137.23642 166.72362 141.89993 161.26783 146.8125 156.0625 C 146.37469 155.62039 146.07842 155.33343 145.625 154.875 C 126.15133 135.19563 107.07012 114.62287 85.96875 96.71875 C 84.576789 96.216171 82.582251 95.929034 80.40625 95.875 z M 505.65625 107.65625 C 503.36366 107.71429 501.97684 108.12561 500.75 108.9375 C 499.90975 109.49355 495.80285 113.04371 491.625 116.84375 C 487.44714 120.64379 482.97853 124.69102 481.6875 125.8125 C 480.39649 126.93398 476.28455 130.70404 472.53125 134.1875 C 459.19012 146.56967 454.10148 151.21175 450.03125 154.78125 C 447.76385 156.76975 444.76051 159.43162 443.375 160.6875 C 442.62382 161.36837 441.58839 162.27356 440.75 163.03125 C 445.53274 168.60322 450.00869 174.44723 454.15625 180.53125 C 455.48154 179.31131 457.01088 177.91912 457.96875 177.03125 C 460.67865 174.51945 464.63014 170.95325 466.75 169.09375 C 468.86987 167.23425 472.89296 163.54819 475.71875 160.90625 C 478.54452 158.26432 482.2317 154.89912 483.90625 153.4375 C 485.58079 151.9759 489.37064 148.56731 492.3125 145.84375 C 503.69938 135.30155 506.72003 132.72062 507.125 133.125 C 507.37895 133.37856 507.57994 139.49017 507.71875 150.3125 C 507.9925 171.6582 508.0575 172.08305 512.53125 186.375 C 515.83006 196.91352 517.27825 200.12142 531.21875 228.21875 C 543.1486 252.26345 544.32923 254.9345 549 268 C 554.51326 283.42181 556.0412 295.49768 553.96875 307.3125 C 552.74998 314.26096 552.19087 316.32829 549.96875 322.125 C 545.28532 334.34217 542.25954 340.17696 529.46875 361.625 C 525.59912 368.11381 521.49285 375.04275 520.34375 377.03125 C 519.1946 379.01975 517.66472 381.68159 516.9375 382.9375 C 513.16565 389.45135 505.70182 406.17283 504.125 411.65625 C 502.19793 418.35769 501.18772 424.81947 500.84375 432.78125 C 500.31709 444.9727 499.65272 455.50424 499.34375 456.5625 C 499.191 457.08579 498.8106 457.56471 498.5 457.625 C 497.51646 457.81593 497.55199 457.85013 480.46875 441.53125 C 475.86724 437.13562 465.52576 427.29627 457.46875 419.65625 C 453.71762 416.09928 451.27299 413.75809 448.375 411 C 444.1905 416.52497 439.72964 421.82442 435 426.875 C 440.25118 431.93759 445.73728 437.22811 447.40625 438.875 C 449.10312 440.54952 453.70902 445.01357 457.65625 448.78125 C 461.60339 452.54894 466.91327 457.60736 469.4375 460.03125 C 471.96182 462.45516 478.48174 468.62422 483.9375 473.75 C 495.37762 484.49815 494.70432 484.11293 501.65625 483.90625 C 505.66462 483.78709 506.20004 483.68017 508.53125 482.53125 C 510.20333 481.7072 511.7395 480.56959 513.03125 479.15625 C 517.64536 474.10762 519.37042 467.75206 520.25 452.78125 C 521.25059 435.75079 521.32676 435.18672 522.71875 429 C 526.55731 411.9394 533.1513 396.3486 545.1875 375.90625 C 552.04099 364.26629 555.60453 358.2418 557.46875 355.1875 C 560.14395 350.80458 564.41731 342.61059 565.9375 338.96875 C 570.25693 328.62038 570.79714 327.17487 572.375 320.875 C 576.8491 303.01125 576.46036 286.26096 571.1875 268.75 C 567.78399 257.44714 564.8796 250.80806 550.71875 221.75 C 541.6181 203.07555 542.05814 204.0719 538.375 194.375 C 533.57442 181.73612 531.07274 173.05245 529.34375 163.09375 C 528.65387 159.11999 528.488 156.13693 528.25 143.75 C 527.9828 129.84362 527.92941 128.8657 526.96875 124.53125 C 525.16971 116.41389 523.96998 113.60341 521.28125 111.125 C 519.12593 109.1383 516.88253 108.43047 510.9375 107.90625 C 508.74645 107.71305 507.0318 107.62143 505.65625 107.65625 z M 154.15625 434.84375 C 142.4194 446.9859 128.13826 461.62452 119.4375 470.375 C 99.588867 490.33706 97.683343 492.69567 96.65625 498.59375 C 95.656413 504.33533 96.757022 509.09683 99.9375 512.8125 C 104.44802 518.08209 111.62429 520.51422 124.28125 521.0625 C 144.85001 521.95355 147.90188 522.37308 160.0625 525.84375 C 175.00749 530.10904 191.92363 538.17419 212.9375 551.03125 C 214.82137 552.18386 217.40031 553.70555 218.65625 554.40625 C 219.91211 555.10701 222.98819 556.88191 225.5 558.375 C 243.00193 568.77901 257.3234 573.68905 273.84375 574.9375 C 276.98073 575.17456 279.61143 575.44976 279.71875 575.5625 C 280.08359 575.94562 295.11711 575.30374 298.75 574.75 C 310.44221 572.96784 320.44126 570.01756 329.96875 565.5 C 332.16659 564.45787 337.12762 562.10438 341 560.28125 C 344.8723 558.45814 351.63557 555.21882 356.03125 553.0625 C 365.06301 548.63181 375.16573 543.87036 377.15625 543.125 C 377.88889 542.85068 379.77392 542.09316 381.34375 541.4375 C 392.11535 536.9388 400.84983 534.32096 413.3125 531.8125 C 422.83606 529.89566 422.56949 529.89355 436.1875 529.96875 C 448.11377 530.03463 448.7799 530.01019 453.6875 529.0625 C 459.10708 528.01589 465.39206 526.17931 466.96875 525.1875 C 469.1534 523.81322 470.84825 521.04361 471.46875 517.84375 C 471.69193 516.69251 471.98752 513.62174 472.125 511 C 472.32377 507.20936 472.26237 505.95155 471.8125 504.875 C 471.2758 503.59041 463.66429 494.52346 458.25 488.71875 C 455.28549 485.54053 447.28175 476.57302 436.3125 464.1875 C 431.95606 459.26857 425.30577 451.90928 421.53125 447.84375 C 420.22313 446.43473 418.83284 444.92315 417.46875 443.4375 C 412.16321 447.87964 406.6313 452.0317 400.875 455.90625 C 403.65906 458.95723 405.98556 461.439 408.03125 463.59375 C 409.8274 465.48566 414.49714 470.63561 418.4375 475.03125 C 422.37787 479.42689 427.09476 484.55366 428.90625 486.4375 C 430.71774 488.32135 433.22554 491.06733 434.46875 492.53125 C 435.71203 493.9952 438.114 496.65707 439.8125 498.4375 C 443.89742 502.7195 447.95221 507.6222 447.71875 508 C 447.17124 508.88582 443.71867 509.11564 430.1875 509.09375 C 415.89017 509.07061 415.74759 509.06439 409.28125 510.1875 C 398.87015 511.99576 386.90659 515.47543 377.71875 519.375 C 375.83488 520.17455 364.63891 525.61921 352.8125 531.46875 C 323.77267 545.83237 324.97477 545.29853 312.375 549.46875 C 304.97794 551.91699 300.01548 553.14572 294 554.03125 C 290.41195 554.55942 287.23638 554.75884 282.40625 554.71875 C 275.23894 554.65927 275.41027 554.66916 269.5 553.78125 C 261.72486 552.61319 246.12628 546.95827 237.5 542.1875 C 234.07832 540.29512 222.1528 533.41232 221.6875 533.0625 C 220.90988 532.4779 199.64231 520.1211 194.6875 517.375 C 187.39783 513.33481 176.68311 508.71474 167.96875 505.84375 C 158.70442 502.79167 154.16056 502.19523 131.25 501.0625 C 126.29647 500.81755 122.04263 500.47405 121.78125 500.3125 C 121.43049 500.09572 121.56404 499.68787 122.34375 498.75 C 123.68317 497.13879 134.4895 485.89036 148.8125 471.1875 C 152.47556 467.42734 160.34721 459.29246 166.3125 453.125 C 167.78892 451.59853 168.9106 450.45082 170.5 448.8125 C 164.80526 444.44857 159.33916 439.78868 154.15625 434.84375 z "
     id="path3575" />
  <path
     style="opacity:1;fill:#ffffff;fill-opacity:1;stroke:none;stroke-width:19.46786499;stroke-linecap:round;stroke-linejoin:round;stroke-miterlimit:4;stroke-dasharray:none;stroke-dashoffset:0;stroke-opacity:1"
     d="M 295.3125 81.875 C 295.98336 86.674514 296.55505 91.494035 297.65625 96.03125 C 298.36201 99.57597 299.32356 103.01112 300.46875 106.375 C 398.48471 111.48539 476.28125 192.45285 476.28125 291.75 C 476.28126 357.23625 442.43915 414.74243 391.28125 447.78125 C 391.2701 447.79024 391.26117 447.80355 391.25 447.8125 C 390.42961 448.46946 389.5316 449.04164 388.59375 449.5 C 388.53155 449.5304 388.46886 449.56423 388.40625 449.59375 C 378.60253 455.67355 368.19199 460.87004 357.28125 465.0625 C 348.32469 477.08891 338.1557 488.11101 327.25 498.46875 C 425.60747 481.09974 500.56253 395.00869 500.5625 291.75 C 500.56251 177.57501 408.89866 84.379835 295.3125 81.875 z M 259.5 84.09375 C 158.45862 99.178395 80.71875 186.57731 80.71875 291.75 C 80.718748 398.82749 161.31959 487.42595 265.03125 500.09375 C 251.33317 490.81502 238.68304 479.68882 228.4375 466.71875 C 156.47526 441.17282 105 372.5274 105 291.75 C 105 201.27351 169.57287 126.026 255.1875 109.5 C 256.19478 100.9088 257.69937 92.406298 259.5 84.09375 z M 281.34375 477.125 C 280.48172 485.18865 280.2489 493.30545 280.71875 501.40625 C 282.60863 501.49454 284.50379 501.55601 286.40625 501.59375 C 288.80626 493.54568 291.08361 485.47293 293.03125 477.34375 C 292.2269 477.35399 291.43179 477.375 290.625 477.375 C 287.51293 477.375 284.41803 477.276 281.34375 477.125 z "
     id="path4317" />
  <g
     id="g5215"
     transform="translate(0,-4)">
    <path
       sodipodi:nodetypes="cscccccccccccc"
       id="path4356"
       d="M 198.67153,429.13471 C 170.76633,413.39548 153.75886,376.59539 166.31692,321.59521 C 175.12657,283.01183 200.79728,235.39384 181.12334,195.74395 C 204.98888,212.23957 229.80152,251.46543 254.82571,295.76857 C 256.55123,247.85766 231.69001,216.46647 249.56127,150.9961 C 261.82395,231.9913 311.01355,237.01146 335.98601,310.68452 C 346.60804,276.04563 368.70387,264.64458 357.92122,178.63449 C 466.50279,326.92467 404.61684,379.60225 382.92735,432.64436 L 389.94665,358.94202 C 355.8916,457.3837 328.60647,475.54491 303.96059,497.57261 C 317.73499,451.36242 323.16655,405.15221 295.18647,358.94202 C 288.39346,434.81375 269.22097,419.02488 265.3546,480.02443 C 227.01966,451.09097 219.14637,421.41099 212.27136,372.98055 C 207.05583,378.64764 198.24926,402.33441 198.67153,429.13471 z"
       style="fill:#ffffff;fill-opacity:1;fill-rule:evenodd;stroke:none;stroke-width:1px;stroke-linecap:butt;stroke-linejoin:miter;stroke-opacity:1" />
    <path
       sodipodi:nodetypes="ccc"
       id="path4358"
       d="M 278.07704,75.100248 C 249.68045,190.40668 301.5257,189.3936 330.28289,257.16259 C 350.4538,152.66532 290.11046,176.17723 278.07704,75.100248 z"
       style="fill:#ffffff;fill-opacity:1;fill-rule:evenodd;stroke:none;stroke-width:1px;stroke-linecap:butt;stroke-linejoin:miter;stroke-opacity:1" />
  </g>
</svg>
