/* XPM */
static const char *icon[] = {
/* columns rows colors chars-per-pixel */
"48 48 257 2",
"   c #4E4E57",
".  c #555555",
"X  c #55555E",
"o  c #5B5B5B",
"O  c #4F4F63",
"+  c #585868",
"@  c #5A5A7C",
"#  c #437761",
"$  c #4D7373",
"%  c gray39",
"&  c #6A6A6A",
"*  c #646476",
"=  c #79617B",
"-  c gray46",
";  c #72727C",
":  c #7C7C7C",
">  c #006BD1",
",  c #0075DB",
"<  c #1E7CD6",
"1  c #007FE4",
"2  c #5E5E85",
"3  c #5F74A9",
"4  c #5B7DB6",
"5  c #62638A",
"6  c #676899",
"7  c #706F98",
"8  c #767788",
"9  c #72729F",
"0  c #6C6EA2",
"q  c #6575AA",
"w  c #617FB3",
"e  c #7676A8",
"r  c #7C7CB4",
"t  c #019A01",
"y  c #0D9313",
"u  c #1A8C26",
"i  c #15A70E",
"p  c #1AAA11",
"a  c #25B118",
"s  c #31AE34",
"d  c #32BA21",
"f  c #33804D",
"g  c #3DC128",
"h  c #49B550",
"j  c #43AF60",
"k  c #49CA31",
"l  c #51C52F",
"z  c #59D43B",
"x  c #66DD44",
"c  c #73E54C",
"v  c #0088ED",
"b  c #0598FC",
"n  c #129FFF",
"m  c #1BA2FE",
"M  c #28A6FE",
"N  c #37A1EF",
"B  c #38ABFC",
"V  c #56B28F",
"C  c #7D85AF",
"Z  c #7884B6",
"A  c #73BBBF",
"S  c #528FCF",
"D  c #539FDF",
"F  c #4BB2FD",
"G  c #52B1F1",
"H  c #55B5FF",
"J  c #5AB2F5",
"K  c #5AB7FF",
"L  c #5EBDFE",
"P  c #6493D1",
"I  c #7691C9",
"U  c #68ACE6",
"Y  c #6DB8EB",
"T  c #64BAFE",
"R  c #6EB7F2",
"E  c #69BCFF",
"W  c #79B7EA",
"Q  c #70BEFD",
"!  c #74C680",
"~  c #77C3F6",
"^  c #75C0FF",
"/  c #78C4F7",
"(  c #7BC2FF",
")  c #7CC8FB",
"_  c #866979",
"`  c #A65646",
"'  c #B56E4E",
"]  c #A66D60",
"[  c #DF6923",
"{  c #D26D30",
"}  c #CE7E5A",
"|  c #A99020",
" . c #88F35A",
".. c #A2EA5B",
"X. c #B3E85C",
"o. c #FA9535",
"O. c #FFA23C",
"+. c #EEA85E",
"@. c #ECBE4F",
"#. c #FFA842",
"$. c #FFB14B",
"%. c #CCD555",
"&. c #DBC54F",
"*. c #848484",
"=. c #8B8B8B",
"-. c #868597",
";. c #989898",
":. c #8383AA",
">. c #8787BA",
",. c #8F9DAA",
"<. c #9999BB",
"1. c #99A5B2",
"2. c #9AA8B8",
"3. c gray64",
"4. c #A3A4AF",
"5. c #ACACAC",
"6. c #A5A9B6",
"7. c #A6ACBF",
"8. c #A9A9B9",
"9. c #A6B0B9",
"0. c #B2B2B2",
"q. c #B4B4BA",
"w. c #BBBBBB",
"e. c #8788C6",
"r. c #898BD7",
"t. c #9394C6",
"y. c #929FD2",
"u. c #9F9FD2",
"i. c #9C9CDA",
"p. c #9999E5",
"a. c #9B9BFE",
"s. c #83A0C6",
"d. c #98AAC9",
"f. c #93A7DA",
"g. c #9DB2CC",
"h. c #8CB7E7",
"j. c #87B4FC",
"k. c #99A6FF",
"l. c #95B0E3",
"z. c #96BDE3",
"x. c #97B9EC",
"c. c #94BBFF",
"v. c #A5A5C9",
"b. c #A4A8DB",
"n. c #ACACD9",
"m. c #AFB3C1",
"M. c #ADB3CC",
"N. c #A1B9D8",
"B. c #B2B2C9",
"V. c #B3B4D1",
"C. c #BABAD3",
"Z. c #BEBED9",
"A. c #ACACE9",
"S. c #A7A7FE",
"D. c #A5BFE5",
"F. c #A9B2E5",
"G. c #ADBDF0",
"H. c #B3A9FF",
"J. c #B3B3E6",
"K. c #BBBCE5",
"L. c #B7B6FE",
"P. c #AEDDBF",
"I. c #9FC5DF",
"U. c #84C5FF",
"Y. c #89C7FF",
"T. c #8FCBFC",
"R. c #9BCBEB",
"E. c #96C2F9",
"W. c #96CFF6",
"Q. c #94CAFF",
"!. c #98C2F5",
"~. c #99C5FF",
"^. c #9BCCFF",
"/. c #99D1FB",
"(. c #B6C4CF",
"). c #BBCEDB",
"_. c #A6C4EC",
"`. c #A4CCFF",
"'. c #ACC1F4",
"]. c #ABCCFF",
"[. c #ADD2EC",
"{. c #A6D3FD",
"}. c #B2CDE6",
"|. c #B0CFE8",
" X c #BFC2EB",
".X c #B3CCFF",
"XX c #BBCCFF",
"oX c #B2D0E7",
"OX c #B6DAF5",
"+X c #B2D9FF",
"@X c #BBDDFF",
"#X c #BEE1FC",
"$X c #DCAF81",
"%X c #D1B392",
"&X c #C4BBFF",
"*X c #C2C0B9",
"=X c #D0CEA7",
"-X c #E9E7A7",
";X c #C3C3C4",
":X c #C0C0CD",
">X c #CBCBCB",
",X c #C0C0D6",
"<X c #C6C6D9",
"1X c #CFCFD6",
"2X c #CECEDD",
"3X c LightGray",
"4X c #D1D1DE",
"5X c #D5D8D9",
"6X c gray86",
"7X c #C4C4E5",
"8X c #C2C2EC",
"9X c #C8C8E6",
"0X c #C5C5F2",
"qX c #C4C4FE",
"wX c #C3CCFF",
"eX c #CDC4FF",
"rX c #CDCFF6",
"tX c #CBCBFE",
"yX c #C9DCEC",
"uX c #D2CCFD",
"iX c #D3D3E1",
"pX c #D6D7EE",
"aX c #D6DDE4",
"sX c #D6DFE8",
"dX c #DADCE4",
"fX c #D8DCE9",
"gX c #D1D2F2",
"hX c #D3D3FF",
"jX c #DBDBFF",
"kX c #CDE0ED",
"lX c #C8E2FB",
"zX c #D5E0EB",
"xX c #DDE3E9",
"cX c #D6E9FC",
"vX c #EAC5FF",
"bX c #EED7FF",
"nX c #FDCCFF",
"mX c #FAD8FF",
"MX c gray89",
"NX c #E2E4ED",
"BX c #E4E8EC",
"VX c gray93",
"CX c #E3E3F3",
"ZX c #E3E3FE",
"AX c #E3EDF3",
"SX c #EBEDF3",
"DX c #EBEBFF",
"FX c #E9F4FE",
"GX c #FDE8FE",
"HX c #F3F3F3",
"JX c #F4F4FC",
"KX c #F3F8FF",
"LX c #FEF1FF",
"PX c #FDFDFE",
"IX c black",
"UX c black",
"YX c None",
/* pixels */
"YXYXYXYXYXYXYXYXYXYXYXYXYXYXYXYXYXYXYXYXYX5X3X>Xw.>XMXYXYXBXYXYXYXYXYXYXYXYXYXYXYXYXYXYXYXYXYXYX",
"YXYXYXYXYXYXYXYXYXYX5X3X>Xw.w.0.5.m.6.7.M.M.K.K.8X8.0.6X>Xw.;Xw.0.;X>XMXYXYXYXYXYXYXYXYXYXYXYXYX",
"YXYX>Xw.5.3.9.1.2.g.g.N.D.D.]..X.X.XXXXXXXwXwXwXtXV.: >X5.KXPXPXPXMX3X*X5.*XMXYXYXYXYXYXYXYXYXYX",
";X>X3.R ^ U.Q.^.^.^.`.`.`.].].]..X.X.XXXXXXXwXwXwX X- 5.4XJXKXPXPXPXPXPXq.*.*XMXYXYXYXYXYXYXYXYX",
"q.5Xq.H E ^ U.Q.^.^.^.`.`.`.].].]..X.X.XXXXXXXwXwXwX*.4.ZXDXJXJXPXPXPXHX: & w.BXYXYXYXYXYXYXYXYX",
"3X3XPXKX#X/.^ U.Q.^.^.^.`.`.`.].].]..X.X.XXXXXXXwXwX4.9XjXZXDXDXJXPXPX>Xo *.3XYXYXYXYXYXYXYXYXYX",
"MX0.HXHXHXHXT.^ U.Q.^.^.^.`.`.`.].].]..X.X.XXXXXXXwXK.hXhXjXZXDXDXJXPX=.o 5.MXYXYXYXYXYXYXYXYXYX",
"YXw.MXYXYXYXOXE ^ U.Q.^.^.^.`.`.`.].].]..X'.G.F.F.b.fXZXZXjXjXZXDXDX1X% - >XYXYXYXYXYXYXYXYXYXYX",
"YX6Xq.BXBXBXxXT E ^ U.Q.^.!.x.l.f.y.t.e.>.t.t.t.t.t.iXHXPXPXKXJXDXDX5.. ;.6XYXYXYXYXYXYXYXYXYXYX",
"YXBX3.MXMXMXMXh.P I Z Z e r r r r >.>.>.>.>.t.t.t.t.2XBXHXHXJXYXYXMX;.% w.BXYXYXYXYXYXYXYXYXYXYX",
"YXYXw.;X6X6X6X:X0 0 9 e e e r r r r >.>.>.>.>.v.V.C.dXMXMX6X6X6X6X5X3X3.3.6XYXYXYXYXYXYXYXYXYXYX",
"YXYX>X;XYX6X5X5Xe 0 0 9 e e e r >.<.C.,XiXBXYXBXMXMXMXMX6X6X6X6X5X3X3X3X5.;.5XYXYXYXYXYXYXYXYXYX",
"YXYX>X;XPXPXYX3X<.0 <.<.V.2XiXHXHXHXYXYXYXYXBXMXMXMXMX6X6X6X6X5X3X3X3X3X>X0.=.>XBXYXYXYXYXYXYXYX",
"YXYX>X;XPXPXPXJXyXKXPXPXJXHXHXHXHXYXYXYXYXBXMXMXMXMX6X6X6X6X5X).I.Y 3.=.& & - 3.6XYXYXYXYXYXYXYX",
"YXYX>X;X6XMXJXHXlXL PXJXHXHXHXHXYXYXYXYXBXMXMXMXMXoXR.Y G B b n m M - . - ;.3.;XMXYXYXYXYXYXYXYX",
"YXYX>X;X3X3.0.MXlXB ) HXHXHXHXYXYXYXYX[.R.~ F M b n M M N S 4 3 6 6 5 5 -.q.5XMXYXYXYXYXYXYXYXYX",
"YXYX>X;X6X6X;X;XlXF M /.AXOXW.~ B m n n M B B F F F D 3 6 <.V.9X7XgXK.n.t.0 9 m.MXYXYXYXYXYXYXYX",
"YXYX>X*X3X3.0.BXkXK H n n m M B F K K K K K K K J w 6 B.CXDXDXZXZXjXhXhXtXqXt.0 :.3XBXYXYXYXYXYX",
"YXYX>Xw.yXxX;X3XkXT T T T T T T T T T T T T T U q :.SXPXDXDXZXZXjXhXhXtXtXqX&XA.e 7 ;XMXYXYXYXYX",
"YXYX>Xw.W < z.YXkXQ Q Q Q Q Q Q Q Q Q Q Q Q U 6 <.PXPXPXDXZXZXjXhXhXtXtXqX&XL.L.S.e 7 *XMXYXYXYX",
"YXYX>Xw.W , > }.kX( ( ( ( ( ( ( ( ( ( ( ( j.0 <.PXPXPXPXJXZXjXhXhXtXtXqX&XL.L.H.S.a.e 8 >XBXYXYX",
"YXYX>Xw.W 1 , }.zXY.Y.Y.Y.Y.Y.Y.Y.Y.Y.Y.c.e >.PXPXPXPXPXPXjXhXhXtXtXqX&XL.L.H.S.a.a.p.0 -.3XYXYX",
"YXYX>Xw.~ v 1 |.zXQ.Q.Q.Q.Q.Q.Q.Q.Q.Q.c.r.9 JXPXPXPXPXPXPXZXhXtXtXqX&XL.L.H.S.a.a.a.a.e.5 5.MXYX",
"YXYX>Xw./ b v |.zX^.^.^.^.^.^.^.^.^.~.k.0 <XPXPXPXPXPXPXPXKXtXtXqX&XL.L.H.S.a.a.a.a.S.S.0 8 >XYX",
"YXYX>Xq.{.b b [.zX^.^.^.^.^.^.(.*X%X} ` e PXPXPXPXPXPXPXPXPXhXeXeX&XL.H.S.a.a.a.a.S.S.H.>.2 0.MX",
"YXYX>X0.YXkXB [.zX{.{.{.$X+.O.#.#.O.[ = V.PXPXPXPXPXPXPXPXPXmXnXnXmXmX&Xa.a.a.a.S.S.H.L.i.5 ;.6X",
"YXYX>X0.YXBXBXMXzX{.{.{.O.O.#.#.$.o.{ 6 qXhXDXPXPXPXPXPXPXGXmXnXvXbXGXLX&Xa.a.S.S.H.L.L.L.6 - >X",
"YXYX>X0.BXBXMXMXzX{.{.{.O.#.#.$.$.o.' e tXtXtXtXjXDXPXPXLXGXLX0Xe.p.&XLXJXS.S.S.H.L.L.qXqX9 * ;X",
"YXYX>X0.BXMXMXMXzX+X+X+XX.%.@.$.$.o.] t.tXtXtXtXtXtXuXDXLXLX<X0 Z 0 e.uXPXqXS.H.L.L.qXqXtXC + 0.",
"YXYX>X0.MXMXMXMXsX+X+X+X . . ...&.o._ u.tXtXtXtXtXtXtXDXLXuX9 =X+X_.6 L.PXhXH.L.qXqXtXrXgX:.+ 5.",
"YXYX>X5.MXMXMXMXsX@X@X@X . . . .l | _ J.tXtXtXtXtXtXtXJXLXA.-.-X@X@X6 pXPXSXfXfXfXfXfXfXfX:.+ 5.",
"YXYX>X5.MXMXMXMXaX@X@X@Xc c c c g t $ K.hXhXtXtXqX&XL.DXLXp.7 -X@Xd.9 SXPXHXNXNXNXNXNXNXNX:.+ 5.",
"YXYX>X5.MXMXMX6XaX#X#X#Xx x x x d t $ K.hXtXtXqX&XL.L.ZXLX&Xr 9 C 6 <XLXPXJXSXSXSXSXSXSXSX6 o 0.",
"YXYX>X5.MXMX6X6XaXlXlXlXz z z z d t # u.tXtXqX&XL.L.H.&XLXmXH.r.r. XGXLXPXPXPXPXJXJXJXJXiX5 % ;X",
"YXYX>X5.MX6X6X6XaXlXlXlXk k k k a t f >.tXqX&XL.L.H.S.a.uXGXmXvXvXmXGXLXPXPXPXPXPXPXPXPXv.@ - >X",
"YXYX;X5.6X6X6X6XaXcXcXcXg g g g p t u e qX&XL.L.H.S.a.a.a.&XbXnXnXmXbXPXPXPXPXPXPXPXPXPXe X =.5X",
"YXYX;X3.6X6X6X6XaXcXcXcXd d d d p t t 5 A.L.L.H.S.a.a.a.a.S.S.L.&XL.qXPXPXPXPXPXPXPXPX<X5 o 5.MX",
"YXYX;X3.;X3X6X5XsXcXcXcXa a a a p t t # >.L.H.S.a.a.a.a.S.S.H.L.L.qXqXDXPXPXPXPXPXPXPXe O - >XYX",
"YXYX;X3.;X;.0.3XxXcXcXcXi i i i i t t y 6 S.S.a.a.a.a.S.S.H.L.L.qXqXtXjXPXPXPXPXPXPXB.2 . 3.6XYX",
"YXYX;X3.>X>X0.w.xXFXFXFXt t t t s j V A I r a.a.a.a.S.S.H.L.L.qXqXtXhXjXPXPXPXPXPXdX6   : >XYXYX",
"YXYX;X3.0.3.;X3XxXFXFXFXh ! P.SXFXlX~.~.E.0 e.a.a.S.S.H.L.L.qXqXtXhXjXjXDXPXPXPXNX9 O & 0.MXYXYX",
"YXYX;X3.5Xw.;.;XxXFXFXFXFXFXFXFXFXFX^.^.^.h.0 r.S.S.H.L.L.qXqXtXhXjXjXZXDXPXPXNX9 O % 3.6XYXYXYX",
"YXYX3X*.;X3X>X>XxXKXKXKXKXKXKXKXKXKXcX^.^.^.s.6 r S.L.L.qXqXtXhXjXjXZXDXDXPXB.6 O % 3.3XYXYXYXYX",
"YXYXBX0.- 0.3X3XMXKXKXKXKXKXKXKXKXBX;X,.8 % o X 2 0 i.qXqXtXhXjXjXZXDXCXZ.e 2   % 3.3XYXYXYXYXYX",
"YXYXYX6X5.& ;.>XMXPXPXPXPX5Xw.;.: % . . . o & *.=.8 5 0 >.u.K.K.7Xv.>.6 5 O . : 5.6XYXYXYXYXYXYX",
"YXYXYXYXMXw.- : 6X>X0.=.% o . . o % - =.3.w.>X3X5X>X3.; * 2 2 2 2 @ + X o - 3.>XMXYXYXYXYXYXYXYX",
"YXYXYXYXYXMX>X*.% o . . o & : ;.5.;X>X5X6XBXYXYXYXYX6X>X0.;.*.: : : *.;.0.>X6XYXYXYXYXYXYXYXYXYX",
"YXYXYXYXYXYXBX3X5.*.=.;.0.;X3X6XMXYXYXYXYXYXYXYXYXYXYXYXMX6X3X3X3X3X3X6XMXYXYXYXYXYXYXYXYXYXYXYX"
};
