<svg height="24" width="24" xmlns="http://www.w3.org/2000/svg" xmlns:xlink="http://www.w3.org/1999/xlink"><linearGradient id="a" gradientUnits="userSpaceOnUse" x1="13" x2="23.492" y1="14" y2="21"><stop offset="0" stop-color="#323232"/><stop offset="1" stop-color="#999" stop-opacity="0"/></linearGradient><path d="m2.5 22.5v-21h19v21z" fill="#fff" fill-rule="evenodd" stroke="#979797" stroke-linejoin="round"/><path d="m4 8.5h5m2 0h9m-16 2h5m2 0h9m-16-6h5m2 0h9m-16 2h5m2 0h9m-16 10h5m2 0h9m-16 2h5m2 0h9m-16-6h5m2 0h9m-16 2h5m2 0h9" fill="#999" stroke="#ccc"/><path d="m10.024 13.102c-.147-.584.421-.25.626-.107.826.387 1.645.797 2.47 1.174.551.087.977-.39 1.262-.775.396-.617.751-1.384.527-2.122-.14-.368-.582-.439-.894-.621-.766-.367-1.54-.732-2.298-1.1-.032-.377.603-.41.909-.477 1.291-.197 2.763-.03 3.732.89.796.746 1.149 1.876 1.014 2.926.349.906.87 1.76 1.621 2.405l1.007.665v4.04l-2.974-2.72a6.482 6.482 0 0 0 -2.26-1.319c-1.111.355-2.373.09-3.221-.67a5.47 5.47 0 0 1 -1.517-2.187z" fill="url(#a)" fill-rule="evenodd"/><path d="m4 20.5h5m2 0h9" fill="#999" stroke="#ccc"/></svg>