/* XPM */
static char * tables_xpm[] = {
"16 16 63 1",
" 	c None",
".	c #2195E7",
"+	c #8ACEFE",
"@	c #94CFF9",
"#	c #ADD5F2",
"$	c #CADCEA",
"%	c #DEE3E7",
"&	c #E6E7E7",
"*	c #E6E6E6",
"=	c #C5D8E6",
"-	c #76B9E8",
";	c #309CE8",
">	c #88CDFE",
",	c #52B0F2",
"'	c #B3D5ED",
")	c #DDDDDD",
"!	c #83CBFE",
"~	c #7AC6FB",
"{	c #6FC0F9",
"]	c #63B9F6",
"^	c #56B2F3",
"/	c #49ABF0",
"(	c #3DA5ED",
"_	c #319EEB",
":	c #2799E9",
"<	c #DEDEDE",
"[	c #83CBFD",
"}	c #4AABF0",
"|	c #3DA4ED",
"1	c #2899E9",
"2	c #DFDFDF",
"3	c #E2E2E2",
"4	c #E3E3E3",
"5	c #E5E5E5",
"6	c #87C0E7",
"7	c #E0E0E0",
"8	c #A7A7A7",
"9	c #ACACAC",
"0	c #ECECEC",
"a	c #EEEEEE",
"b	c #E9E9E9",
"c	c #E1E1E1",
"d	c #A6A6A6",
"e	c #A8A8A8",
"f	c #ADADAD",
"g	c #AFAFAF",
"h	c #EAEAEA",
"i	c #90CAF3",
"j	c #E7E7E7",
"k	c #EBEBEB",
"l	c #E8E8E8",
"m	c #A9A9A9",
"n	c #EFEFEF",
"o	c #F1F1F1",
"p	c #EDEDED",
"q	c #AAAAAA",
"r	c #B0B0B0",
"s	c #B2B2B2",
"t	c #E4E4E4",
"u	c #F0F0F0",
"v	c #7BC6FB",
"w	c #6FC0F8",
"x	c #2899E8",
"...........     ",
".+@#$%&**=-;    ",
".>,..........   ",
".>.+@#$%&**=-;  ",
".'.>,.......... ",
".).>.+@#$%&**=-;",
".).'.>!~{]^/(_:.",
".<.).>[~{]^}|_1.",
".2.).'))<2345*6.",
".7.<.)**87490ab.",
".c.2.)d8ec59fgh.",
"ii.7.<27c3*jbhk.",
"  .c.2lbm4jgnop.",
"  ii.7mmq5bgrsa.",
"    .c3t5*k0pau.",
"    i>!vw]^}|_x."};
