/* XPM */
static char * user_xpm[] = {
"16 16 69 1",
" 	c None",
".	c #999999",
"+	c #6A6A6A",
"@	c #BDBDBD",
"#	c #7E7A77",
"$	c #B7AEA7",
"%	c #E4D8CE",
"&	c #E4D8D0",
"*	c #B6AEAA",
"=	c #7E7A79",
"-	c #D7CCC3",
";	c #F8EADF",
">	c #F8EAE1",
",	c #F7EAE2",
"'	c #F7EAE4",
")	c #D7CCC9",
"!	c #7E7A7A",
"~	c #F7EAE6",
"{	c #F7EAE8",
"]	c #B6AEAE",
"^	c #F7EAEA",
"/	c #E3D8DA",
"(	c #F7EAEC",
"_	c #E3D8DB",
":	c #F7EAEE",
"<	c #B6AEB1",
"[	c #D6CCD0",
"}	c #7D7A7C",
"|	c #5B5C5C",
"1	c #5A5C5C",
"2	c #6A6D6D",
"3	c #A6B4B7",
"4	c #B4C5C9",
"5	c #879093",
"6	c #646768",
"7	c #636768",
"8	c #838E93",
"9	c #A8BFCA",
"0	c #99ADB7",
"a	c #656B6D",
"b	c #5A5A5A",
"c	c #A3B0B3",
"d	c #D4EAF0",
"e	c #D1E9F0",
"f	c #CEE7F0",
"g	c #CBE6F1",
"h	c #C7E4F1",
"i	c #C4E3F1",
"j	c #C1E1F1",
"k	c #BDE0F1",
"l	c #92A8B4",
"m	c #585A5B",
"n	c #838A8C",
"o	c #BADEF2",
"p	c #B7DDF2",
"q	c #77858C",
"r	c #949494",
"s	c #A5B3B7",
"t	c #B4DCF2",
"u	c #90AAB8",
"v	c #6E6E6E",
"w	c #BFD3D9",
"x	c #B2DBF2",
"y	c #A3C6DB",
"z	c #585858",
"A	c #CCE5EE",
"B	c #B1DAF2",
"C	c #B0D8F0",
"D	c #555555",
"      .++.      ",
"    @#$%&*=@    ",
"    #-;>,')!    ",
"   .$;>,'~{].   ",
"   +%>,'~{^/+   ",
"   +&,'~{^(_+   ",
"   .*'~{^(:<.   ",
"    =){^(:[}    ",
"    |!]/_<}1    ",
"   234567890a   ",
"  bcdefghijklm  ",
"  ndefghijkopq  ",
" rsefghijkoptur ",
" vwfghijkoptxyv ",
" zAghijkoptxBCz ",
" DzDDDDDDDDDDzD "};
