/* XPM */
static const char *icon_om[]={
"22 22 7 1",
". c None",
"c c #000000",
"# c #0058c0",
"b c #0080ff",
"d c #58a8ff",
"a c #a8dcff",
"e c #c3c3c3",
"........#a#.a.........",
".....a#b.a#abbaa......",
"....a.ab.aaba#a#......",
"...#aaaa.a.ba#.b#a....",
"..aaba.aaabbaa#aaba...",
"..bbb#a##bba#ab#a##b..",
"..bccccabbccaabbbcca..",
"b.ccccccbacccbbacccda.",
"b#ccbbccabccccdcccca.e",
"#bccabccbbccbcccbccdbe",
"b.cc#bccbbccabcbbcca.e",
"a#ccbaccaacc#aabbcc#ae",
"a.ccb#ccaaccaabaaccdbe",
"b#cccccca#ccadab#cc##e",
".##ccccaaacca#a#bccaee",
".a#aabb#aa#b###aa#a#e.",
"..a#aaa#daa###bbb#aee.",
"...caaaa#baaaa#abdee..",
"....##bd#aaabddaaee...",
"....eaa#aaaa#abaee....",
"....eee##.#ba#eee.....",
".....eeeeeeeeeee......"};
