<?xml version="1.0" encoding="UTF-8" standalone="no"?>
<!-- Created with Inkscape (http://www.inkscape.org/) -->
<svg
   xmlns:dc="http://purl.org/dc/elements/1.1/"
   xmlns:cc="http://creativecommons.org/ns#"
   xmlns:rdf="http://www.w3.org/1999/02/22-rdf-syntax-ns#"
   xmlns:svg="http://www.w3.org/2000/svg"
   xmlns="http://www.w3.org/2000/svg"
   xmlns:sodipodi="http://sodipodi.sourceforge.net/DTD/sodipodi-0.dtd"
   xmlns:inkscape="http://www.inkscape.org/namespaces/inkscape"
   version="1.0"
   width="580"
   height="580"
   id="svg2"
   sodipodi:version="0.32"
   inkscape:version="0.46"
   sodipodi:docname="transport_rental_car.svg"
   inkscape:output_extension="org.inkscape.output.svg.inkscape">
  <defs
     id="defs22">
    <inkscape:perspective
       sodipodi:type="inkscape:persp3d"
       inkscape:vp_x="0 : 290 : 1"
       inkscape:vp_y="0 : 1000 : 0"
       inkscape:vp_z="580 : 290 : 1"
       inkscape:persp3d-origin="290 : 193.33333 : 1"
       id="perspective24" />
  </defs>
  <metadata
     id="metadata10">
    <rdf:RDF>
      <cc:Work
         rdf:about="">
        <dc:format>image/svg+xml</dc:format>
        <dc:type
           rdf:resource="http://purl.org/dc/dcmitype/StillImage" />
        <cc:license
           rdf:resource="http://web.resource.org/cc/PublicDomain" />
        <dc:language>en</dc:language>
      </cc:Work>
    </rdf:RDF>
  </metadata>
  <sodipodi:namedview
     inkscape:window-height="1003"
     inkscape:window-width="1400"
     inkscape:pageshadow="2"
     inkscape:pageopacity="0.0"
     guidetolerance="10.0"
     gridtolerance="10.0"
     objecttolerance="10.0"
     borderopacity="1.0"
     bordercolor="#666666"
     pagecolor="#ffffff"
     id="base"
     showgrid="false"
     inkscape:zoom="0.70710678"
     inkscape:cx="636.47492"
     inkscape:cy="415.25176"
     inkscape:window-x="0"
     inkscape:window-y="20"
     inkscape:current-layer="svg2" />
  <g
     id="g1327">
    <path
       d="M 66.275,1.768 C 24.94,1.768 1.704,23.139 1.704,66.804 L 1.704,516.927 C 1.704,557.771 22.598,579.156 63.896,579.156 L 515.92,579.156 C 557.227,579.156 578.149,558.84 578.149,516.927 L 578.149,66.804 C 578.149,24.203 557.227,1.768 514.627,1.768 C 514.624,1.768 66.133,1.625 66.275,1.768 z"
       style="fill:#111111;stroke:#eeeeee;stroke-width:3.40799999"
       id="path1329" />
  </g>
  <g
     id="g2319"
     transform="translate(879.29125,36.805119)">
    <path
       id="path2323"
       style="fill:#ffffff;stroke:none"
       d="" />
  </g>
  <g
     id="g2325"
     transform="translate(879.29125,36.805119)">
    <path
       id="path2329"
       style="fill:#ffffff;stroke:none"
       d="" />
  </g>
  <g
     id="g2303"
     transform="matrix(1.1575693,0,0,1.1575693,83.723001,38.80318)"
     style="fill:#ffffff;fill-opacity:1;stroke:#ffffff;stroke-width:10;stroke-linecap:round;stroke-linejoin:round;stroke-miterlimit:4;stroke-dasharray:none;stroke-opacity:1">
    <g
       id="g2305"
       style="fill:#ffffff;fill-opacity:1;stroke:#ffffff;stroke-width:10;stroke-linecap:round;stroke-linejoin:round;stroke-miterlimit:4;stroke-dasharray:none;stroke-opacity:1">
      <path
         style="fill:#ffffff;fill-opacity:1;stroke:#ffffff;stroke-width:10.00000095;stroke-linecap:round;stroke-linejoin:round;stroke-miterlimit:4;stroke-dasharray:none;stroke-opacity:1"
         d="M 100.25,5.75 C 60.335317,5.4974281 26.826507,47.079175 35.324049,86.079571 C 40.899839,118.70779 72.527534,145.59302 106.15625,142.28125 C 128.63909,140.89286 149.66527,127.49806 160.96875,108.1875 C 171.22308,100.14266 186.5403,110.7971 196.625,102.125 C 203.52011,94.990233 209.28493,85.495716 219,82.28125 C 226.79207,84.482581 230.2873,92.927779 236.71875,96.84375 C 243.17665,92.70632 246.9099,82.864282 255.75,82.90625 C 262.00373,86.670488 265.96886,93.31314 271.875,97.25 C 278.58404,92.957363 282.56064,82.699357 291.6875,82.6875 C 298.0679,86.28521 301.59369,93.796619 308.25,96.65625 C 317.51043,88.304078 326.98735,79.656571 334.71875,69.71875 C 334.69063,64.095915 327.08245,60.980337 324.06234,56.381768 C 317.78098,50.838171 312.47635,40.600972 302.59375,42.71875 C 289.22865,43.785674 275.56059,42.397209 262.0625,42.9375 C 229.36594,42.923262 196.41274,43.721279 163.875,42.125 C 154.95723,34.457888 150.20766,22.500694 139.25,17.0625 C 127.86772,9.4689786 114.03062,5.323508 100.25,5.75 z M 73.09375,50.53125 C 92.620948,50.045026 104.27829,77.77724 90.09375,91.25 C 78.614364,103.88316 54.044314,99.821659 49.21875,82.875 C 43.869693,67.719648 56.328438,48.853256 73.09375,50.53125 z"
         id="path2307" />
      <path
         style="fill:#ffffff;fill-opacity:1;stroke:#ffffff;stroke-width:10;stroke-linecap:round;stroke-linejoin:round;stroke-miterlimit:4;stroke-dasharray:none;stroke-opacity:1"
         id="path2309"
         d="" />
    </g>
  </g>
  <path
     style="fill:#ffffff;stroke:none"
     d="M 215.56971,239.19325 C 191.79503,239.19325 179.18309,252.17267 173.36066,267.36556 L 142.4535,347.17063 C 130.20133,348.74169 108.48197,363.12345 108.48197,390.36817 L 108.48197,491.85439 L 138.56539,491.85439 L 138.56539,524.31022 C 138.56539,564.24042 195.07474,563.77015 195.07476,524.31022 L 195.07476,491.85439 L 296.72573,491.85439 L 296.75873,491.85439 L 398.40965,491.85439 L 398.40965,524.31022 C 398.40965,563.77015 454.91876,564.24042 454.91908,524.31022 L 454.91908,491.85439 L 485.00244,491.85439 L 485.00244,390.36817 C 485.00244,363.12347 463.28323,348.74169 451.03085,347.17063 L 420.09081,267.36556 C 414.2684,252.17267 401.65657,239.19325 377.88171,239.19325 L 334.19002,239.19325 L 259.78864,239.19325 L 215.56971,239.19325 z M 215.20724,268.25521 L 296.65983,268.25521 L 296.72573,268.25521 L 296.75873,268.25521 L 378.24421,268.25521 C 388.43288,268.35009 392.79654,274.72185 395.70774,283.54403 L 419.00339,346.34688 L 296.75873,346.34688 L 296.72573,346.34688 L 296.65983,346.34688 L 174.44802,346.34688 L 197.74371,283.54403 C 200.65494,274.72185 205.0175,268.35009 215.20724,268.25521 z M 167.72621,376.8916 C 182.14305,376.8916 193.82266,388.9202 193.82266,403.77885 C 193.82265,418.63854 182.14305,430.69905 167.72621,430.69905 C 153.31042,430.69905 141.62974,418.63853 141.62974,403.77885 C 141.62974,388.92023 153.31042,376.8916 167.72621,376.8916 z M 425.7582,376.8916 C 440.17506,376.8916 451.85476,388.92023 451.85467,403.77885 C 451.85467,418.63853 440.17506,430.69905 425.7582,430.69905 C 411.34242,430.69905 399.62874,418.63854 399.62874,403.77885 C 399.62874,388.9202 411.34242,376.8916 425.7582,376.8916 z"
     id="path2301" />
</svg>
