/* XPM */
static const char *icon[]={
"22 22 248 2",
"Qt c None",
".j c #7d8074",
"bY c #404d2e",
"#. c #5c5c4c",
".H c #5c6050",
"a0 c #767672",
".V c #5a5c4c",
".c c #6b6e61",
".d c #296414",
".W c #9ea155",
".i c #6c6f62",
"bS c #99a454",
".I c #c6ca57",
".k c #505e25",
"bO c #164c0d",
"#w c #666a47",
"aa c #6b6d4a",
"#P c #15710a",
"#C c #18730d",
"aO c #7c7e3d",
"bc c #2d591e",
".9 c #525241",
".G c #535746",
"#e c #17630d",
"bZ c #283715",
".U c #525443",
".b c #636658",
".e c #215e0a",
".X c #b5b94d",
"#B c #54654c",
"a1 c #1c620d",
".l c #295b10",
".# c #3f6117",
"bC c #295519",
"bI c #a7b43e",
"bX c #68695b",
"bT c #aab445",
"#K c #616541",
"aN c #63635f",
"#Y c #666944",
".q c #48561b",
"#Q c #126f07",
"bD c #1c4d13",
"bb c #7a8348",
"#2 c #9ba434",
"#O c #9fac30",
"#o c #696a55",
"aP c #7d892b",
"b1 c #374023",
"## c #979a48",
"aB c #acb236",
"#v c #7d8156",
".w c #827f32",
".a c #3f6119",
"ba c #6f774b",
"bE c #10480b",
"bn c #9e9a2b",
"aZ c #6f754e",
"#3 c #066901",
".J c #c4c851",
".8 c #41462b",
"bd c #135c08",
"b0 c #353f21",
"aU c #615d2a",
"bR c #2d4821",
".f c #0c6802",
"#k c #a7b424",
"#A c #929a3a",
"bo c #848b42",
"bv c #1f4119",
"a2 c #24690c",
"bH c #27491e",
"aA c #717454",
"#d c #73774d",
"bN c #787b52",
"b# c #7a7e40",
"bW c #8e934c",
".m c #145a06",
"bJ c #b3bd39",
"#j c #8f9d2b",
"ao c #b4c224",
"bP c #104606",
"#J c #81864e",
".x c #90902e",
"bw c #b0bd36",
".A c #92a329",
"#7 c #4e5b2e",
".r c #2a580f",
"#x c #b1c11f",
"an c #787b4a",
"bp c #7c8547",
"ab c #b8c421",
".B c #4f8317",
"bQ c #26481b",
"aH c #63673c",
"bU c #b2bb40",
"#n c #909640",
".g c #115b06",
"a# c #7f833f",
"#X c #858c46",
".y c #9fa32a",
".z c #a3b02e",
".2 c #696f48",
"aj c #767d35",
"#p c #096301",
"aM c #95a03a",
"#a c #a5a943",
"aC c #b0b72f",
"#L c #b9c921",
"#Z c #bcc520",
"ae c #829131",
"bV c #9da446",
".K c #a7ac32",
".7 c #354623",
".T c #1f4413",
"#6 c #154612",
"#u c #b2bb2b",
"be c #0c5e03",
"aY c #7c8444",
".h c #15530a",
"af c #5a881e",
"#f c #046501",
"a7 c #7f8038",
".N c #878f3c",
"#8 c #8e9536",
"ak c #979f2a",
"bq c #255315",
".1 c #77774c",
"bG c #1f4a16",
".O c #6d8f26",
".n c #076401",
".Y c #c8cd4a",
".M c #898b3c",
".L c #999d33",
"bM c #949746",
"az c #aab32d",
"ai c #607a26",
"bF c #0a4c03",
"bu c #154710",
"#c c #959b45",
"aw c #99a131",
"ax c #a7b223",
"aV c #a7ad1d",
"#I c #bac329",
".P c #428112",
"#U c #8b9242",
"bB c #8c914a",
"am c #b3ba28",
"av c #8e9c2e",
"#l c #abb823",
"bx c #bdc82e",
".S c #174310",
"aI c #a5b229",
"a. c #b8c024",
"#W c #bbc527",
".3 c #4b7e20",
".0 c #9ca237",
"#q c #035a00",
"#D c #056401",
".o c #0a5804",
".p c #0d4f07",
".v c #0f4d09",
"bj c #898d3e",
"ar c #8a9a2c",
"bi c #8d9944",
"a8 c #a5a223",
".F c #104408",
"#4 c #056900",
"br c #194a10",
"au c #859d23",
"as c #6d8c22",
".Z c #b1b933",
".C c #046501",
".6 c #2a491c",
"#i c #7d9125",
"ap c #b3c024",
"#G c #6e7d29",
"bK c #bec636",
"bh c #507126",
"bk c #a39d2a",
"#y c #b7c71c",
".Q c #016000",
".R c #10470d",
"#T c #2b4c19",
"bA c #a1a23a",
"#E c #065204",
"al c #d1db15",
"#9 c #d7e115",
"ag c #4b900b",
"bg c #235d10",
"ay c #c3ce1c",
"#V c #d6e318",
"#t c #b4c11b",
"#F c #1f550e",
"bl c #aea11e",
".D c #035002",
"bL c #a4a83f",
"#H c #cbd718",
"bf c #006100",
"#R c #006500",
"#5 c #024b01",
".5 c #025700",
".t c #025f01",
"bt c #035301",
"#g c #055d00",
".u c #075604",
".E c #094804",
"#S c #0b4a09",
"#h c #0d4500",
".s c #0d5a05",
"bs c #0e460b",
"#r c #145b05",
"aG c #153908",
".4 c #31790d",
"a3 c #3b7a0c",
"#s c #4c6816",
"aT c #546528",
"ah c #578413",
"at c #598a0f",
"a4 c #6b9012",
"aF c #6f8619",
"a6 c #758238",
"a5 c #798f21",
"aQ c #809918",
"aS c #98a61c",
"#1 c #9ba433",
"#N c #9fac2f",
"ad c #a3ad2c",
"aL c #a3b230",
"bm c #a6941d",
"b. c #a9a71e",
"aE c #acba20",
"aq c #aeb923",
"#z c #b0bd26",
"aR c #b0c016",
"a9 c #b1ad1b",
"aX c #b5c620",
"aW c #b6c01b",
"bz c #b9b729",
"ac c #bbc820",
"aJ c #bccc24",
"aK c #bcce26",
"aD c #c2cd16",
"#m c #c3ce26",
"#M c #c7d91d",
"#0 c #c9d31b",
"#b c #dbe435",
"by c #dee41a",
"QtQtQtQtQtQtQtQtQtQtQtQtQtQtQtQt.#.a.b.cQtQt",
"QtQtQtQtQtQtQtQtQtQtQtQtQt.d.e.f.g.h.i.jQtQt",
"QtQtQtQtQtQtQtQtQtQtQtQt.k.l.m.n.o.pQtQtQtQt",
"QtQtQtQtQtQtQtQtQtQtQtQt.q.r.s.t.u.vQtQtQtQt",
"QtQtQtQtQtQtQtQt.w.x.y.z.A.B.C.D.E.F.G.HQtQt",
"QtQtQtQtQtQt.I.J.K.L.M.N.O.P.Q.R.S.T.U.VQtQt",
"QtQtQtQtQt.W.X.Y.Z.0.1.2.3.4.5.6.7.8.9#.QtQt",
"QtQtQtQtQt###a#b#c#dQt#e#f#g#h#i#jQtQtQtQtQt",
"QtQtQtQtQt#k#l#m#n#oQt#p#q#r#s#t#u#vQtQtQtQt",
"QtQtQtQt#w#x#y#z#A#B#C#D#E#F#G#H#I#JQtQtQtQt",
"QtQtQtQt#K#L#M#N#O#P#Q#R#S#T#U#V#W#XQtQtQtQt",
"QtQtQtQt#Y#Z#0#1#2#3#4#5#6#7#8#9a.a#QtQtQtQt",
"QtQtQtQtaaabacadaeafagahaiajakalamanQtQtQtQt",
"QtQtQtQtQtaoapaqarasatauavawaxayazaAQtQtQtQt",
"QtQtQtQtQtaBaCaDaEaFaGaHaIaJaKaLaMaNQtQtQtQt",
"QtQtQtQtQtaOaPaQaRaSaTaUaVaWaXaYaZa0QtQtQtQt",
"QtQtQtQtQta1a2a3a4a5a6a7a8a9b.b#babbQtQtQtQt",
"QtQtQtQtbcbdbebfbgbhbibjbkblbmbnbobpQtQtQtQt",
"QtQtQtQtbqbrbsbtbubvQtQtbwbxbybzbAbBQtQtQtQt",
"QtQtQtQtbCbDbEbFbGbHQtQtbIbJbKbLbMbNQtQtQtQt",
"QtQtQtQtQtQtbObPbQbRQtQtbSbTbUbVbWbXQtQtQtQt",
"QtQtQtQtQtQtbYbZb0b1QtQtQtQtQtQtQtQtQtQtQtQt"};
