<?xml version="1.0" encoding="UTF-8"?>
<!-- Created with Inkscape (http://www.inkscape.org/) -->
<svg id="svg5692" width="32px" height="32px" version="1.1" xmlns="http://www.w3.org/2000/svg" xmlns:cc="http://creativecommons.org/ns#" xmlns:dc="http://purl.org/dc/elements/1.1/" xmlns:rdf="http://www.w3.org/1999/02/22-rdf-syntax-ns#">
 <metadata id="metadata5697">
  <rdf:RDF>
   <cc:Work rdf:about="">
    <dc:format>image/svg+xml</dc:format>
    <dc:type rdf:resource="http://purl.org/dc/dcmitype/StillImage"/>
    <dc:title/>
   </cc:Work>
  </rdf:RDF>
 </metadata>
 <g id="layer1">
  <g id="g3771" transform="translate(2 7.8667)" enable-background="new" fill-rule="evenodd">
   <path id="path3685" d="m9.2 12.3v-8.4s0-1.2 4.8-1.2 4.8 1.2 4.8 1.2v8.4s0 1.2-4.8 1.2-4.7423-1.1466-4.8-1.2z" fill="#82a0b4" stroke="#82a0b4" stroke-width="1px"/>
   <path id="path3669" d="m8 4.5c2.4 2.4 9.6 2.4 12 0v-1.2c-2.4 2.4-9.6 2.4-12 0v1.2z" enable-background="accumulate" fill="#3c5a6e"/>
   <path id="path3671" d="m20 3.3c-2.4-2.4-9.6-2.4-12 0v1.2c2.4-2.4 9.6-2.4 12 0v-1.2z" enable-background="accumulate" fill="#3c5a6e"/>
   <path id="path3678" d="m8 12.9c2.4 2.4 9.6 2.4 12 0v-1.2c-2.4 2.4-9.6 2.4-12 0v1.2z" enable-background="accumulate" fill="#3c5a6e"/>
   <path id="path3680" d="m8 8.7c2.4 2.4 9.6 2.4 12 0v-1.2c-2.4 2.4-9.6 2.4-12 0v1.2z" enable-background="accumulate" fill="#3c5a6e"/>
   <path id="path3683" d="m19.5 12.5v-8" fill="#3c5a6e" stroke="#3c5a6e" stroke-width="1px"/>
   <path id="path3769" d="m8.5 12.5v-8" fill="#3c5a6e" stroke="#3c5a6e" stroke-width="1px"/>
   <path id="path3689" d="m8 3.3v9.6c3.6 2.4 6 1.8 6 1.8v-9.6c-1.2 0-2.4 0.6-6-1.8z" fill="#fcffff" opacity=".2"/>
  </g>
  <rect id="rect7388" x="21" y="21" width="11" height="11" ry="1.8814" enable-background="new" fill="#204a87" opacity=".9"/>
  <path id="path4077" d="m21.5 27h10v-3.2999c0-2.1999-1.1111-2.1999-5-2.1999s-5 0-5 2.1999 0.03588 3.3512 0 3.2999z" enable-background="new" fill="#fcffff" fill-rule="evenodd" opacity=".3"/>
  <path id="path4884" d="m22.5 26.5h4" enable-background="new" fill="#eeeeec" stroke="#eeeeec" stroke-linecap="round" stroke-linejoin="round" stroke-width="1px"/>
  <path id="path5690" d="m30.5 24.5c-3 0-4 0-4 2s1 2 4 2" enable-background="new" fill="none" stroke="#eeeeec" stroke-linecap="round" stroke-linejoin="round" stroke-width="1px"/>
 </g>
</svg>
