<svg height="32" width="32" xmlns="http://www.w3.org/2000/svg"><g enable-background="new" fill-rule="evenodd" transform="translate(2 7.866667)"><path d="m9.2 12.3v-8.4s0-1.2 4.8-1.2 4.8 1.2 4.8 1.2v8.4s0 1.2-4.8 1.2-4.742286-1.146586-4.8-1.2z" fill="#82a0b4" stroke="#82a0b4"/><g fill="#3c5a6e"><path d="m8 4.5c2.4 2.4 9.6 2.4 12 0v-1.2c-2.4 2.4-9.6 2.4-12 0z"/><path d="m20 3.3c-2.4-2.4-9.6-2.4-12 0v1.2c2.4-2.4 9.6-2.4 12 0z"/><path d="m8 12.9c2.4 2.4 9.6 2.4 12 0v-1.2c-2.4 2.4-9.6 2.4-12 0z"/><path d="m8 8.7c2.4 2.4 9.6 2.4 12 0v-1.2c-2.4 2.4-9.6 2.4-12 0z"/><path d="m19.5 12.5v-8" stroke="#3c5a6e"/><path d="m8.5 12.5v-8" stroke="#3c5a6e"/></g><path d="m8 3.3v9.6c3.6 2.4 6 1.8 6 1.8v-9.6c-1.2 0-2.4.6-6-1.8z" fill="#fcffff" opacity=".2"/></g><rect fill="#204a87" height="11" opacity=".9" ry="1.881395" width="11" x="21" y="21"/><path d="m21.5 26.999851h10s0-1.099971 0-3.299911-1.111112-2.19994-5-2.19994-5 0-5 2.19994.03588 3.351238 0 3.299911z" fill="#fcffff" fill-rule="evenodd" opacity=".3"/><g stroke="#eeeeec" stroke-linecap="round" stroke-linejoin="round"><path d="m22.5 26.5h4" fill="#eeeeec"/><path d="m30.5 24.5c-3 0-4 0-4 2s1 2 4 2" fill="none"/></g></svg>