<svg height="32" width="32" xmlns="http://www.w3.org/2000/svg"><g><g fill="#729fcf" stroke-linejoin="round"><path d="m6.5 7.5h19v15h-19z" stroke="#729fcf" stroke-linecap="square"/><path d="m25.5 7.5a9.5 2 0 1 1 -19 0 9.5 2 0 1 1 19 0z" stroke="#204a87" stroke-linecap="square"/><path d="m6.5 7.5v15" fill-opacity=".784314" stroke="#204a87" stroke-linecap="round"/><path d="m25.5 7.5v15" fill-opacity=".784314" stroke="#204a87" stroke-linecap="round"/><path d="m6.5 12.5c6 3 13 3 19 0" stroke="#204a87" stroke-linecap="round"/><path d="m6.5 17.5c6 3 13 3 19 0" stroke="#204a87" stroke-linecap="round"/><path d="m6.5 22.5c6 3 13 3 19 0" stroke="#204a87" stroke-linecap="round"/></g><path d="m6.0695622 7.165215s-.047827 13.573917-.047827 15.573917c3.5251728 2.182423 5.6326868 2.009567 5.6326868 2.009567l-.039334-15.6466178c-1.139437-.98081.004754-2.9024279 5.837086-3.9846922-2.042525-.125348-10.4418929-.477285-11.3826118 2.047826z" fill="#fcffff" fill-rule="evenodd" opacity=".2"/></g><g><text x="-2.059406" y="13.782178"><tspan x="-2.059406" y="13.782178"/></text><g><rect fill="#8f5902" height="12" opacity=".9" ry=".857143" stroke="#8f5902" stroke-linecap="square" stroke-linejoin="round" width="12" x="19.5" y="19.5"/><path d="m19.5 25.5h12v-4c0-2 0-2-3-2-.698149 0-6.072237 0-7 0-2 0-2 0-2 2z" fill="#fcffff" fill-rule="evenodd" opacity=".3"/><g stroke="#eeeeec" stroke-linecap="round" stroke-width="1.705606"><path d="m20.5 25.5h5" fill="#5c3566"/><path d="m29.5 28.5c-5 0-5-6 0-6" fill="none"/></g></g></g></svg>