<svg height="32" width="32" xmlns="http://www.w3.org/2000/svg"><g><g fill="#729fcf" stroke-linejoin="round"><path d="m6.5 7.5h19v15h-19z" stroke="#729fcf" stroke-linecap="square"/><path d="m25.5 7.5a9.5 2 0 1 1 -19 0 9.5 2 0 1 1 19 0z" stroke="#204a87" stroke-linecap="square"/><path d="m6.5 7.5v15" fill-opacity=".784314" stroke="#204a87" stroke-linecap="round"/><path d="m25.5 7.5v15" fill-opacity=".784314" stroke="#204a87" stroke-linecap="round"/><path d="m6.5 12.5c6 3 13 3 19 0" stroke="#204a87" stroke-linecap="round"/><path d="m6.5 17.5c6 3 13 3 19 0" stroke="#204a87" stroke-linecap="round"/><path d="m6.5 22.5c6 3 13 3 19 0" stroke="#204a87" stroke-linecap="round"/></g><path d="m6.0695622 7.165215s-.047827 13.573917-.047827 15.573917c3.5251728 2.182423 5.6326868 2.009567 5.6326868 2.009567l-.039334-15.6466178c-1.139437-.98081.004754-2.9024279 5.837086-3.9846922-2.042525-.125348-10.4418929-.477285-11.3826118 2.047826z" fill="#fcffff" fill-rule="evenodd" opacity=".2"/></g><g><text x="-2.059406" y="13.782178"><tspan x="-2.059406" y="13.782178"/></text><g transform="translate(0 -9)"><rect fill="#eeeeec" fill-opacity=".784314" height="8" ry=".857143" stroke="#555753" stroke-linecap="square" stroke-linejoin="round" width="25" x="3.5" y="21.5"/><text fill="#2e3436" font-family="Monospace" font-size="14" letter-spacing="0" word-spacing="0" x="7.492188" y="31.945313"><tspan fill="#2e3436" font-family="Georgia" font-size="12" x="7.492188" y="31.945313">***</tspan></text></g></g></svg>