<svg height="500" width="500" xmlns="http://www.w3.org/2000/svg" xmlns:xlink="http://www.w3.org/1999/xlink"><clipPath id="a"><path d="m0 0h500v500h-500z"/></clipPath><path d="m0 0h500v500h-500z" fill="#fff"/><g clip-path="url(#a)" fill="none" stroke="#000" stroke-width=".9"><path d="m381 126v-40h40v40z" fill="#00f" stroke="none"/><path d="m381 126v-40h40v40z" fill="none" stroke="#00f" stroke-width="15"/><path d="m342 206v-80h39v80z" fill="#00f" stroke="none"/><path d="m342 206v-80h39v80z" fill="none" stroke="#00f" stroke-width="15"/><path d="m147 286v-40h117v-40h78v40h-39v40z" fill="#00f" stroke="none"/><path d="m147 286v-40h117v-40h78v40h-39v40z" fill="none" stroke="#00f" stroke-width="15"/><path d="m108 367v-81h39v81z" fill="#00f" stroke="none"/><path d="m108 367v-81h39v81z" fill="none" stroke="#00f" stroke-width="15"/><path d="m108 367v40h-40v-40z" fill="#00f" stroke="none"/><path d="m108 367v40h-40v-40z" fill="none" stroke="#00f" stroke-width="15"/></g></svg>