<?xml version="1.0" encoding="UTF-8"?>
<!DOCTYPE svg  PUBLIC '-//W3C//DTD SVG 20001102//EN'  'http://www.w3.org/TR/2000/CR-SVG-20001102/DTD/svg-20001102.dtd'>
<svg id="/putrela0/mpasol/blazek/inst/qgiscvs07/plugins/grass/modules/r.buffer.1" width="500" height="500" xmlns="http://www.w3.org/2000/svg">
 <rect width="500" height="500" fill="#fff" stroke-width="0"/>
 <g fill="none" stroke="#000" stroke-width=".9">
  <clipPath id="clip1">
   <rect width="500" height="500"/>
  </clipPath>
  <g clip-path="url(#clip1)">
   <polygon points="381 126 381 86 421 86 421 126" fill="#00f" stroke-width="0"/>
   <polygon points="381 126 381 86 421 86 421 126" fill="none" stroke="#00f" stroke-width="15"/>
   <polygon points="342 206 342 126 381 126 381 206" fill="#00f" stroke-width="0"/>
   <polygon points="342 206 342 126 381 126 381 206" fill="none" stroke="#00f" stroke-width="15"/>
   <polygon points="147 286 147 246 264 246 264 206 342 206 342 246 303 246 303 286" fill="#00f" stroke-width="0"/>
   <polygon points="147 286 147 246 264 246 264 206 342 206 342 246 303 246 303 286" fill="none" stroke="#00f" stroke-width="15"/>
   <polygon points="108 367 108 286 147 286 147 367" fill="#00f" stroke-width="0"/>
   <polygon points="108 367 108 286 147 286 147 367" fill="none" stroke="#00f" stroke-width="15"/>
   <polygon points="108 367 108 407 68 407 68 367" fill="#00f" stroke-width="0"/>
   <polygon points="108 367 108 407 68 407 68 367" fill="none" stroke="#00f" stroke-width="15"/>
  </g>
 </g>
</svg>
