<svg height="24" width="24" xmlns="http://www.w3.org/2000/svg"><g enable-background="new" stroke-linecap="round" stroke-linejoin="round" transform="matrix(1.0952381 0 0 1.0952381 -.047619 -.047619)"><path d="m.5.5h21v18h-21z" fill="#e6e6e6" stroke="#969696"/><g stroke="#505050"><path d="m3.4443423 3.4535751.0556577 4.0464249" fill="none"/><g transform="translate(-1)"><path d="m11.444342 3.4535751.055658 4.0464249" fill="none"/><path d="m18.444342 3.453575.055658 4.046425" fill="none"/><g fill="#fcffff"><path d="m9.4999999 5.4973421c0 1.1060376-.6978875 2.0026581-1.5587753 2.0026581-.8608879 0-1.5587753-.8966205-1.5587753-2.0026581 0-1.1060375.6978874-2.0026581 1.5587753-2.0026581.8608878 0 1.5587753.8966206 1.5587753 2.0026581z"/><path d="m9.4999999 5.4973421c0 1.1060376-.6978875 2.0026581-1.5587753 2.0026581-.8608879 0-1.5587753-.8966205-1.5587753-2.0026581 0-1.1060375.6978874-2.0026581 1.5587753-2.0026581.8608878 0 1.5587753.8966206 1.5587753 2.0026581z" transform="translate(7 .002658)"/></g></g><path d="m8.5618926 9.4535751.055658 4.0464249" fill="none"/><path d="m9.4999999 5.4973421c0 1.1060376-.6978875 2.0026581-1.5587753 2.0026581-.8608879 0-1.5587753-.8966205-1.5587753-2.0026581 0-1.1060375.6978874-2.0026581 1.5587753-2.0026581.8608878 0 1.5587753.8966206 1.5587753 2.0026581z" fill="#fcffff" transform="translate(-2.882449 6)"/><path d="m9.4999999 5.4973421c0 1.1060376-.6978875 2.0026581-1.5587753 2.0026581-.8608879 0-1.5587753-.8966205-1.5587753-2.0026581 0-1.1060375.6978874-2.0026581 1.5587753-2.0026581.8608878 0 1.5587753.8966206 1.5587753 2.0026581z" fill="#fcffff" transform="translate(4.117551 6.002658)"/></g></g></svg>