<svg height="32" width="32" xmlns="http://www.w3.org/2000/svg"><g><g transform="matrix(1 0 0 -1 -20.5 -4.5)"><path d="m27.5-28.5h6v5.999999h-6z" fill="#204a87" opacity=".8"/><path d="m27.5-22.5h6v6h-6z" fill="#729fcf" opacity=".8"/><path d="m27.5-16.5h6v5.999999h-6z" fill="#204a87" opacity=".8"/><path d="m33.5-16.5h6v6h-6z" fill="#729fcf" opacity=".8"/><g fill="#204a87"><path d="m33.5-22.5h6v5.999999h-6z" opacity=".8"/><path d="m39.5-16.5h6v5.999999h-6z" opacity=".8"/><path d="m33.5-28.5h6v5.999999h-6z" opacity=".8"/></g><path d="m39.5-22.5h6v6h-6z" fill="#729fcf" opacity=".8"/></g><g stroke-linecap="round" stroke-linejoin="round"><path d="m4.484547 30.606478c-.984547-1.106478-.984547-4.106478-.984547-6.106478" fill="none" stroke="#73d216"/><path d="m7.5 30.5c1.0311178-2.010373.0311178-8.010373-.9688822-9.010373" fill="none" stroke="#73d216"/><path d="m.5 31.5h21v-1h-21z" fill="#4e9a06" stroke="#4e9a06"/><path d="m5.5 30.5c1.0311178-2.010373.0311178-8.010373-.9688822-9.010373" fill="none" stroke="#4e9a06"/><path d="m9.5 29.5c-.123624-4.010373-.123624-3.010373.876376-6.010373" fill="none" stroke="#8ae234"/><path d="m11.484547 30.606478c-.984547-1.106478-.984547-4.106478-.984547-6.106478" fill="none" stroke="#4e9a06"/><path d="m15.5 29.5c-.04678-1.15453-2.046782-4.15453-.04678-6.15453" fill="none" stroke="#8ae234"/><path d="m14.511854 30.510373c1.988146-3.010373.988146-7.010373-.011854-8.010373" fill="none" stroke="#4e9a06"/><path d="m20.5 30.5c-.123624-4.010373-.123624-3.010373.876376-6.010373" fill="none" stroke="#4e9a06"/><path d="m18.546782 30.65453c-.046782-1.15453-2.046782-4.15453-.046782-6.15453" fill="none" stroke="#4e9a06"/><path d="m12.546782 29.65453c-.046782-1.15453-2.046782-4.15453-.046782-6.15453" fill="none" stroke="#8ae234"/><path d="m18.515453 23.393522c.984547 1.106478.984547 4.106478.984547 6.106478" fill="none" stroke="#73d216"/><path d="m12.5 30.606478c.984547-1.106478.984547-4.106478.984547-6.106478" fill="none" stroke="#4e9a06"/><path d="m1.484547 30.606478c-.984547-1.106478-.984547-4.106478-.984547-6.106478" fill="none" stroke="#4e9a06"/><path d="m2 29.5c-.123624-4.010373-.123624-3.010373.876376-6.010373" fill="none" stroke="#8ae234"/><g enable-background="new" transform="translate(-15 6)"><rect fill="#505050" height="8" opacity=".8" rx="2" stroke="#505050" width="8" x="15.5" y=".5"/><g fill="none" stroke="#fcffff" stroke-width=".75"><path d="m19.5.5v1.0779993 2.9220007h4"/><path d="m19.435754 4.4636869-2.935754 3.0363131"/></g></g></g></g></svg>