<svg height="32" width="32" xmlns="http://www.w3.org/2000/svg"><g><g transform="matrix(1 0 0 -1 -20.5 -4.5)"><path d="m27.5-28.5h6v5.999999h-6z" fill="#204a87" opacity=".8"/><path d="m27.5-22.5h6v6h-6z" fill="#729fcf" opacity=".8"/><path d="m27.5-16.5h6v5.999999h-6z" fill="#204a87" opacity=".8"/><path d="m33.5-16.5h6v6h-6z" fill="#729fcf" opacity=".8"/><g fill="#204a87"><path d="m33.5-22.5h6v5.999999h-6z" opacity=".8"/><path d="m39.5-16.5h6v5.999999h-6z" opacity=".8"/><path d="m33.5-28.5h6v5.999999h-6z" opacity=".8"/></g><path d="m39.5-22.5h6v6h-6z" fill="#729fcf" opacity=".8"/></g><g transform="matrix(1 0 0 -1 -22 -3)"><path d="m27.5-28.5h6v5.999999h-6z" fill="#204a87" opacity=".8"/><path d="m27.5-22.5h6v6h-6z" fill="#729fcf" opacity=".8"/><path d="m27.5-16.5h6v5.999999h-6z" fill="#204a87" opacity=".8"/><path d="m33.5-16.5h6v6h-6z" fill="#729fcf" opacity=".8"/><g fill="#204a87"><path d="m33.5-22.5h6v5.999999h-6z" opacity=".8"/><path d="m39.5-16.5h6v5.999999h-6z" opacity=".8"/><path d="m33.5-28.5h6v5.999999h-6z" opacity=".8"/></g><path d="m39.5-22.5h6v6h-6z" fill="#729fcf" opacity=".8"/></g><g transform="matrix(1 0 0 -1 -24 -1.000001)"><path d="m27.5-28.5h6v5.999999h-6z" fill="#204a87" opacity=".8"/><path d="m27.5-22.5h6v6h-6z" fill="#729fcf" opacity=".8"/><path d="m27.5-16.5h6v5.999999h-6z" fill="#204a87" opacity=".8"/><path d="m33.5-16.5h6v6h-6z" fill="#729fcf" opacity=".8"/><g fill="#204a87"><path d="m33.5-22.5h6v5.999999h-6z" opacity=".8"/><path d="m39.5-16.5h6v5.999999h-6z" opacity=".8"/><path d="m33.5-28.5h6v5.999999h-6z" opacity=".8"/></g><path d="m39.5-22.5h6v6h-6z" fill="#729fcf" opacity=".8"/></g><g transform="matrix(1 0 0 -1 -26 .999999)"><path d="m27.5-28.5h6v5.999999h-6z" fill="#204a87" opacity=".8"/><path d="m27.5-22.5h6v6h-6z" fill="#729fcf" opacity=".8"/><path d="m27.5-16.5h6v5.999999h-6z" fill="#204a87" opacity=".8"/><path d="m33.5-16.5h6v6h-6z" fill="#729fcf" opacity=".8"/><g fill="#204a87"><path d="m33.5-22.5h6v5.999999h-6z" opacity=".8"/><path d="m39.5-16.5h6v5.999999h-6z" opacity=".8"/><path d="m33.5-28.5h6v5.999999h-6z" opacity=".8"/></g><path d="m39.5-22.5h6v6h-6z" fill="#729fcf" opacity=".8"/></g><g stroke-linecap="round" stroke-linejoin="round"><path d="m4.484547 30.606478c-.984547-1.106478-.984547-4.106478-.984547-6.106478" fill="none" stroke="#73d216"/><path d="m7.5 30.5c1.0311178-2.010373.0311178-8.010373-.9688822-9.010373" fill="none" stroke="#73d216"/><path d="m.5 31.5h21v-1h-21z" fill="#4e9a06" stroke="#4e9a06"/><path d="m5.5 30.5c1.0311178-2.010373.0311178-8.010373-.9688822-9.010373" fill="none" stroke="#4e9a06"/><path d="m9.5 29.5c-.123624-4.010373-.123624-3.010373.876376-6.010373" fill="none" stroke="#8ae234"/><path d="m11.484547 30.606478c-.984547-1.106478-.984547-4.106478-.984547-6.106478" fill="none" stroke="#4e9a06"/><path d="m15.5 29.5c-.04678-1.15453-2.046782-4.15453-.04678-6.15453" fill="none" stroke="#8ae234"/><path d="m14.511854 30.510373c1.988146-3.010373.988146-7.010373-.011854-8.010373" fill="none" stroke="#4e9a06"/><path d="m20.5 30.5c-.123624-4.010373-.123624-3.010373.876376-6.010373" fill="none" stroke="#4e9a06"/><path d="m18.546782 30.65453c-.046782-1.15453-2.046782-4.15453-.046782-6.15453" fill="none" stroke="#4e9a06"/><path d="m12.546782 29.65453c-.046782-1.15453-2.046782-4.15453-.046782-6.15453" fill="none" stroke="#8ae234"/><path d="m18.515453 23.393522c.984547 1.106478.984547 4.106478.984547 6.106478" fill="none" stroke="#73d216"/><path d="m12.5 30.606478c.984547-1.106478.984547-4.106478.984547-6.106478" fill="none" stroke="#4e9a06"/><path d="m1.484547 30.606478c-.984547-1.106478-.984547-4.106478-.984547-6.106478" fill="none" stroke="#4e9a06"/><path d="m2 29.5c-.123624-4.010373-.123624-3.010373.876376-6.010373" fill="none" stroke="#8ae234"/><g stroke="#555753" stroke-width=".25" transform="matrix(.43929632376 -.43929632376 .43929632376 .43929632376 2.72321773493 23.78070012)"><path d="m24.5 7.5-8.5 8.5h12c0-3.313708-1.328427-6.3284271-3.5-8.5z" fill="#fce94f"/><path d="m16 3.9791847v12.0208153l8.485281-8.4852814c-2.343145-2.3431454-5.414213-3.535534-8.485281-3.5355339z" fill="#8ae234"/><path d="m7.5 7.5 8.5 8.5v-11.9999997c-3.313708-.0000003-6.3284271 1.3284266-8.5 3.4999997z" fill="#3eae35"/><path d="m28.020815 16h-12.020815l8.485281 8.485281c2.343146-2.343145 3.535534-5.414213 3.535534-8.485281z" fill="#e4972d"/><path d="m24.5 24.5-8.5-8.5v11.999999c3.313708.000001 6.328427-1.328426 8.5-3.499999z" fill="#eb3131"/><path d="m16 28.020815v-12.020815l-8.4852807 8.485281c2.3431447 2.343146 5.4142127 3.535534 8.4852807 3.535534z" fill="#b11c2d"/><path d="m7.5000002 24.5 8.4999998-8.5h-11.9999992c-.000001 3.313708 1.3284264 6.328427 3.4999994 8.5z" fill="#e47acd"/><path d="m3.9791847 16h12.0208153l-8.4852812-8.4852811c-2.3431456 2.3431451-3.5355343 5.4142131-3.5355341 8.4852811z" fill="#6994d3"/></g></g></g></svg>