<?xml version="1.0" encoding="UTF-8"?>
<!-- Created with Inkscape (http://www.inkscape.org/) -->
<svg id="svg5692" width="24" height="24" version="1.1" xmlns="http://www.w3.org/2000/svg" xmlns:cc="http://creativecommons.org/ns#" xmlns:dc="http://purl.org/dc/elements/1.1/" xmlns:rdf="http://www.w3.org/1999/02/22-rdf-syntax-ns#" xmlns:xlink="http://www.w3.org/1999/xlink">
 <title id="title3126">data-add</title>
 <metadata id="metadata5697">
  <rdf:RDF>
   <cc:Work rdf:about="">
    <dc:format>image/svg+xml</dc:format>
    <dc:type rdf:resource="http://purl.org/dc/dcmitype/StillImage"/>
    <dc:title>data-add</dc:title>
    <dc:date>2012-08-16</dc:date>
    <dc:creator>
     <cc:Agent>
      <dc:title>Robert Szczepanek</dc:title>
     </cc:Agent>
    </dc:creator>
    <dc:rights>
     <cc:Agent>
      <dc:title>Robert Szczepanek</dc:title>
     </cc:Agent>
    </dc:rights>
    <dc:subject>
     <rdf:Bag>
      <rdf:li>data-add</rdf:li>
     </rdf:Bag>
    </dc:subject>
    <dc:coverage>GIS icons 0.2</dc:coverage>
    <cc:license rdf:resource="http://creativecommons.org/licenses/by-sa/3.0/"/>
    <dc:description/>
   </cc:Work>
   <cc:License rdf:about="http://creativecommons.org/licenses/by-sa/3.0/">
    <cc:permits rdf:resource="http://creativecommons.org/ns#Reproduction"/>
    <cc:permits rdf:resource="http://creativecommons.org/ns#Distribution"/>
    <cc:requires rdf:resource="http://creativecommons.org/ns#Notice"/>
    <cc:requires rdf:resource="http://creativecommons.org/ns#Attribution"/>
    <cc:permits rdf:resource="http://creativecommons.org/ns#DerivativeWorks"/>
    <cc:requires rdf:resource="http://creativecommons.org/ns#ShareAlike"/>
   </cc:License>
  </rdf:RDF>
 </metadata>
 <g id="layer4" transform="translate(0,-8)">
  <g id="g8027" transform="matrix(1.0952 0 0 1.0952 -.047619 7.9524)" enable-background="new" stroke-linecap="round" stroke-linejoin="round">
   <rect id="rect7366" x=".5" y=".5" width="21" height="18" color="#000000" enable-background="accumulate" fill="#e6e6e6" stroke="#969696"/>
   <path id="path8176" d="M 3.4443423,3.4535751 3.5,7.5" fill="none" stroke="#505050" stroke-width="1px"/>
   <g id="g8188" transform="translate(-1)" stroke="#505050">
    <path id="path8178" d="m11.444 3.4536 0.055658 4.0464" fill="none" stroke-width="1px"/>
    <path id="path8180" d="M 18.444342,3.453575 18.5,7.5" fill="none" stroke-width="1px"/>
    <path id="path8184" d="m9.5 5.4973c0 1.106-0.69789 2.0027-1.5588 2.0027-0.86089 0-1.5588-0.89662-1.5588-2.0027 0-1.106 0.69789-2.0027 1.5588-2.0027 0.86089 0 1.5588 0.89662 1.5588 2.0027z" color="#000000" enable-background="accumulate" fill="#fcffff"/>
    <path id="path8186" transform="translate(7 .0026579)" d="m9.5 5.4973c0 1.106-0.69789 2.0027-1.5588 2.0027-0.86089 0-1.5588-0.89662-1.5588-2.0027 0-1.106 0.69789-2.0027 1.5588-2.0027 0.86089 0 1.5588 0.89662 1.5588 2.0027z" color="#000000" enable-background="accumulate" fill="#fcffff"/>
   </g>
   <path id="path8196" d="m8.5619 9.4536 0.055658 4.0464" fill="none" stroke="#505050" stroke-width="1px"/>
   <path id="path8200" transform="translate(-2.8824 6)" d="m9.5 5.4973c0 1.106-0.69789 2.0027-1.5588 2.0027-0.86089 0-1.5588-0.89662-1.5588-2.0027 0-1.106 0.69789-2.0027 1.5588-2.0027 0.86089 0 1.5588 0.89662 1.5588 2.0027z" color="#000000" enable-background="accumulate" fill="#fcffff" stroke="#505050"/>
   <path id="path8202" transform="translate(4.1176 6.0027)" d="m9.5 5.4973c0 1.106-0.69789 2.0027-1.5588 2.0027-0.86089 0-1.5588-0.89662-1.5588-2.0027 0-1.106 0.69789-2.0027 1.5588-2.0027 0.86089 0 1.5588 0.89662 1.5588 2.0027z" color="#000000" enable-background="accumulate" fill="#fcffff" stroke="#505050"/>
  </g>
 </g>
</svg>
