<svg height="1052.362205" width="744.094488" xmlns="http://www.w3.org/2000/svg"><g stroke-linecap="round" stroke-linejoin="round"><path d="m281.63397 340.44254-9 16-9-16v-5l9 10 9-10z" fill="#c8e6fa" fill-rule="evenodd" stroke="#204a87"/><path d="m4 20a1 1 0 1 1 -2 0 1 1 0 1 1 2 0z" fill="#c8e6fa" stroke="#204a87" stroke-width=".75" transform="translate(269.63397 325.44254)"/><path d="m4 20a1 1 0 1 1 -2 0 1 1 0 1 1 2 0z" fill="#c8e6fa" stroke="#204a87" stroke-width=".75" transform="translate(260.63397 315.44254)"/><path d="m4 20a1 1 0 1 1 -2 0 1 1 0 1 1 2 0z" fill="#c8e6fa" stroke="#204a87" stroke-width=".75" transform="translate(278.63397 315.44254)"/><path d="m4 20a1 1 0 1 1 -2 0 1 1 0 1 1 2 0z" fill="#c8e6fa" stroke="#204a87" stroke-width=".75" transform="translate(269.63397 336.44254)"/><path d="m4 20a1 1 0 1 1 -2 0 1 1 0 1 1 2 0z" fill="#c8e6fa" stroke="#204a87" stroke-width=".75" transform="translate(260.63397 320.44254)"/><path d="m4 20a1 1 0 1 1 -2 0 1 1 0 1 1 2 0z" fill="#c8e6fa" stroke="#204a87" stroke-width=".75" transform="translate(278.63397 320.44254)"/><g fill="#c8e6fa" stroke="#204a87" transform="translate(-2.749793 1.766826)"><path d="m281.63397 340.44254-9 16-9-16v-5l9 10 9-10z" fill-rule="evenodd"/><g stroke-width=".75"><path d="m4 20c0 .552285-.4477153 1-1 1s-1-.447715-1-1 .4477153-1 1-1 1 .447715 1 1z" transform="translate(269.63397 325.44254)"/><path d="m4 20c0 .552285-.4477153 1-1 1s-1-.447715-1-1 .4477153-1 1-1 1 .447715 1 1z" transform="translate(260.63397 315.44254)"/><path d="m4 20c0 .552285-.4477153 1-1 1s-1-.447715-1-1 .4477153-1 1-1 1 .447715 1 1z" transform="translate(278.63397 315.44254)"/><path d="m4 20c0 .552285-.4477153 1-1 1s-1-.447715-1-1 .4477153-1 1-1 1 .447715 1 1z" transform="translate(269.63397 336.44254)"/><path d="m4 20c0 .552285-.4477153 1-1 1s-1-.447715-1-1 .4477153-1 1-1 1 .447715 1 1z" transform="translate(260.63397 320.44254)"/><path d="m4 20c0 .552285-.4477153 1-1 1s-1-.447715-1-1 .4477153-1 1-1 1 .447715 1 1z" transform="translate(278.63397 320.44254)"/></g></g><g fill="#c8e6fa" stroke="#204a87" transform="translate(-5.614235 3.677313)"><path d="m281.63397 340.44254-9 16-9-16v-5l9 10 9-10z" fill-rule="evenodd"/><g stroke-width=".75"><path d="m4 20c0 .552285-.4477153 1-1 1s-1-.447715-1-1 .4477153-1 1-1 1 .447715 1 1z" transform="translate(269.63397 325.44254)"/><path d="m4 20c0 .552285-.4477153 1-1 1s-1-.447715-1-1 .4477153-1 1-1 1 .447715 1 1z" transform="translate(260.63397 315.44254)"/><path d="m4 20c0 .552285-.4477153 1-1 1s-1-.447715-1-1 .4477153-1 1-1 1 .447715 1 1z" transform="translate(278.63397 315.44254)"/><path d="m4 20c0 .552285-.4477153 1-1 1s-1-.447715-1-1 .4477153-1 1-1 1 .447715 1 1z" transform="translate(269.63397 336.44254)"/><path d="m4 20c0 .552285-.4477153 1-1 1s-1-.447715-1-1 .4477153-1 1-1 1 .447715 1 1z" transform="translate(260.63397 320.44254)"/><path d="m4 20c0 .552285-.4477153 1-1 1s-1-.447715-1-1 .4477153-1 1-1 1 .447715 1 1z" transform="translate(278.63397 320.44254)"/></g></g><g fill="#c8e6fa" stroke="#204a87" transform="translate(-8.29965 5.257866)"><path d="m281.63397 340.44254-9 16-9-16v-5l9 10 9-10z" fill-rule="evenodd"/><g stroke-width=".75"><path d="m4 20c0 .552285-.4477153 1-1 1s-1-.447715-1-1 .4477153-1 1-1 1 .447715 1 1z" transform="translate(269.63397 325.44254)"/><path d="m4 20c0 .552285-.4477153 1-1 1s-1-.447715-1-1 .4477153-1 1-1 1 .447715 1 1z" transform="translate(260.63397 315.44254)"/><path d="m4 20c0 .552285-.4477153 1-1 1s-1-.447715-1-1 .4477153-1 1-1 1 .447715 1 1z" transform="translate(278.63397 315.44254)"/><path d="m4 20c0 .552285-.4477153 1-1 1s-1-.447715-1-1 .4477153-1 1-1 1 .447715 1 1z" transform="translate(269.63397 336.44254)"/><path d="m4 20c0 .552285-.4477153 1-1 1s-1-.447715-1-1 .4477153-1 1-1 1 .447715 1 1z" transform="translate(260.63397 320.44254)"/><path d="m4 20c0 .552285-.4477153 1-1 1s-1-.447715-1-1 .4477153-1 1-1 1 .447715 1 1z" transform="translate(278.63397 320.44254)"/></g></g><path d="m258.61852 363.54902c-.98455-1.10648-.98455-4.10648-.98455-6.10648" fill="none" stroke="#73d216"/><path d="m261.63397 363.44254c1.03112-2.01037.0311-8.01037-.96888-9.01037" fill="none" stroke="#73d216"/><path d="m254.63397 364.44254h21v-1h-21z" fill="#4e9a06" stroke="#4e9a06"/><g fill="none"><path d="m259.63397 363.44254c1.03112-2.01037.0311-8.01037-.96888-9.01037" stroke="#4e9a06"/><path d="m263.63397 362.44254c-.12362-4.01037-.12362-3.01037.87638-6.01037" stroke="#8ae234"/><path d="m265.61852 363.54902c-.98455-1.10648-.98455-4.10648-.98455-6.10648" stroke="#4e9a06"/><path d="m269.63397 362.44254c-.0468-1.15453-2.04678-4.15453-.0468-6.15453" stroke="#8ae234"/><path d="m268.64582 363.45291c1.98815-3.01037.98815-7.01037-.0119-8.01037" stroke="#4e9a06"/><path d="m274.63397 363.44254c-.12362-4.01037-.12362-3.01037.87638-6.01037" stroke="#4e9a06"/><path d="m272.68075 363.59707c-.0468-1.15453-2.04678-4.15453-.0468-6.15453" stroke="#4e9a06"/><path d="m266.68075 362.59707c-.0468-1.15453-2.04678-4.15453-.0468-6.15453" stroke="#8ae234"/><path d="m272.64942 356.33606c.98455 1.10648.98455 4.10648.98455 6.10648" stroke="#73d216"/><path d="m266.63397 363.54902c.98455-1.10648.98455-4.10648.98455-6.10648" stroke="#4e9a06"/><path d="m255.61852 363.54902c-.98455-1.10648-.98455-4.10648-.98455-6.10648" stroke="#4e9a06"/><path d="m256.13397 362.44254c-.12362-4.01037-.12362-3.01037.87638-6.01037" stroke="#8ae234"/></g></g></svg>