<?xml version="1.0" standalone="no"?>
<!DOCTYPE svg PUBLIC "-//W3C//DTD SVG 20001102//EN" "http://www.w3.org/TR/2000/CR-SVG-20001102/DTD/svg-20001102.dtd">
<svg xmlns="http://www.w3.org/2000/svg" width="500" x="0" y="0" height="500" id="/putrela0/mpasol/blazek/inst/qgiscvs07/plugins/grass/modules/v.delaunay.area.2" >
 <rect width="500" x="0" y="0" height="500" style="stroke:rgb(0,0,0);stroke-width:0;fill:rgb(255,255,255);" />
 <g style="stroke:rgb(0,0,0);stroke-width:0.9;fill:none;" >
  <clipPath id="clip1" >
   <rect width="500" x="0" y="0" height="500" />
  </clipPath>
  <g style="clip-path:url(#clip1)" >
   <polygon points="409 261 238 240 155 117 409 261" style="stroke:rgb(0,0,0);stroke-width:0;fill:rgb(170,255,255);" />
   <polygon points="409 261 238 240 155 117 409 261" style="stroke:rgb(0,0,255);stroke-width:15;fill:none;" />
   <polygon points="238 240 409 261 92 372 238 240" style="stroke:rgb(0,0,0);stroke-width:0;fill:rgb(170,255,255);" />
   <polygon points="238 240 409 261 92 372 238 240" style="stroke:rgb(0,0,255);stroke-width:15;fill:none;" />
   <polygon points="238 240 92 372 155 117 238 240" style="stroke:rgb(0,0,0);stroke-width:0;fill:rgb(170,255,255);" />
   <polygon points="238 240 92 372 155 117 238 240" style="stroke:rgb(0,0,255);stroke-width:15;fill:none;" />
  </g>
 </g>
</svg>
