<svg height="500" width="500" xmlns="http://www.w3.org/2000/svg" xmlns:xlink="http://www.w3.org/1999/xlink"><clipPath id="a"><path d="m0 0h500v500h-500z"/></clipPath><path d="m0 0h500v500h-500z" fill="#fff"/><g clip-path="url(#a)" fill="none" stroke="#000" stroke-width=".9"><path d="m70 466h-36v-108h36 36 36v108h-36z" fill="#aff" stroke="none"/><path d="m70 466h-36v-108h36 36 36v108h-36z" fill="none" stroke="#00f" stroke-width="15"/><path d="m178 466h-36v-108h36 36 36v108h-36z" fill="#aff" stroke="none"/><path d="m178 466h-36v-108h36 36 36v108h-36z" fill="none" stroke="#00f" stroke-width="15"/><path d="m286 466h-36v-108h36 36 36v108h-36z" fill="#aff" stroke="none"/><path d="m286 466h-36v-108h36 36 36v108h-36z" fill="none" stroke="#00f" stroke-width="15"/><path d="m394 466h-36v-108h36 36 36v108h-36z" fill="#aff" stroke="none"/><path d="m394 466h-36v-108h36 36 36v108h-36z" fill="none" stroke="#00f" stroke-width="15"/><path d="m70 358h-36v-108h36 36 36v108h-36z" fill="#aff" stroke="none"/><path d="m70 358h-36v-108h36 36 36v108h-36z" fill="none" stroke="#00f" stroke-width="15"/><path d="m178 358h-36v-108h36 36 36v108h-36z" fill="#aff" stroke="none"/><path d="m178 358h-36v-108h36 36 36v108h-36z" fill="none" stroke="#00f" stroke-width="15"/><path d="m286 358h-36v-108h36 36 36v108h-36z" fill="#aff" stroke="none"/><path d="m286 358h-36v-108h36 36 36v108h-36z" fill="none" stroke="#00f" stroke-width="15"/><path d="m394 358h-36v-108h36 36 36v108h-36z" fill="#aff" stroke="none"/><path d="m394 358h-36v-108h36 36 36v108h-36z" fill="none" stroke="#00f" stroke-width="15"/><path d="m70 250h-36v-108h36 36 36v108h-36z" fill="#aff" stroke="none"/><path d="m70 250h-36v-108h36 36 36v108h-36z" fill="none" stroke="#00f" stroke-width="15"/><path d="m178 250h-36v-108h36 36 36v108h-36z" fill="#aff" stroke="none"/><path d="m178 250h-36v-108h36 36 36v108h-36z" fill="none" stroke="#00f" stroke-width="15"/><path d="m286 250h-36v-108h36 36 36v108h-36z" fill="#aff" stroke="none"/><path d="m286 250h-36v-108h36 36 36v108h-36z" fill="none" stroke="#00f" stroke-width="15"/><path d="m394 250h-36v-108h36 36 36v108h-36z" fill="#aff" stroke="none"/><path d="m394 250h-36v-108h36 36 36v108h-36z" fill="none" stroke="#00f" stroke-width="15"/><path d="m70 142h-36v-108h36 36 36v108h-36z" fill="#aff" stroke="none"/><path d="m70 142h-36v-108h36 36 36v108h-36z" fill="none" stroke="#00f" stroke-width="15"/><path d="m178 142h-36v-108h36 36 36v108h-36z" fill="#aff" stroke="none"/><path d="m178 142h-36v-108h36 36 36v108h-36z" fill="none" stroke="#00f" stroke-width="15"/><path d="m286 142h-36v-108h36 36 36v108h-36z" fill="#aff" stroke="none"/><path d="m286 142h-36v-108h36 36 36v108h-36z" fill="none" stroke="#00f" stroke-width="15"/><path d="m394 142h-36v-108h36 36 36v108h-36z" fill="#aff" stroke="none"/><path d="m394 142h-36v-108h36 36 36v108h-36z" fill="none" stroke="#00f" stroke-width="15"/></g></svg>