<?xml version="1.0" encoding="UTF-8"?>
<!DOCTYPE svg  PUBLIC '-//W3C//DTD SVG 20001102//EN'  'http://www.w3.org/TR/2000/CR-SVG-20001102/DTD/svg-20001102.dtd'>
<svg id="/hardmnt/tigre0/ssi/blazek/devel/qgis/cvs/plugins/grass/modules/v.net.salesman.2" width="500" height="500" xmlns="http://www.w3.org/2000/svg">
 <rect width="500" height="500" fill="#fff" stroke-width="0"/>
 <g fill="none" stroke="#000" stroke-width=".9">
  <clipPath id="clip1">
   <rect width="495" height="495"/>
  </clipPath>
  <g clip-path="url(#clip1)" fill="none" stroke-width="15">
   <polyline points="257 224 132 112" stroke="#000"/>
   <polyline points="257 224 389 220" stroke="#000"/>
   <polyline points="257 224 214 381" stroke="#000"/>
   <polyline points="214 381 93 272" stroke="#000"/>
   <polyline points="93 272 132 112" stroke="#000"/>
   <polyline points="132 112 27 9" stroke="#000"/>
   <polyline points="132 112 243 78" stroke="#000"/>
   <polyline points="243 78 352 103" stroke="#000"/>
   <polyline points="352 103 389 220" stroke="#000"/>
   <polyline points="352 103 465 17" stroke="#000"/>
   <polyline points="243 78 237 14" stroke="#000"/>
   <polyline points="389 220 355 375" stroke="#000"/>
   <polyline points="355 375 214 381" stroke="#000"/>
   <polyline points="355 375 442 483" stroke="#000"/>
   <polyline points="214 381 122 468" stroke="#000"/>
   <polyline points="93 272 30 306" stroke="#000"/>
   <polyline points="389 220 471 217" stroke="#000"/>
   <polyline points="214 381 93 272" stroke="#f00"/>
   <polyline points="93 272 132 112" stroke="#f00"/>
   <polyline points="132 112 243 78" stroke="#f00"/>
   <polyline points="243 78 352 103" stroke="#f00"/>
   <polyline points="352 103 389 220" stroke="#f00"/>
   <polyline points="389 220 355 375" stroke="#f00"/>
   <polyline points="355 375 214 381" stroke="#f00"/>
  </g>
 </g>
</svg>
