<svg height="500" width="500" xmlns="http://www.w3.org/2000/svg" xmlns:xlink="http://www.w3.org/1999/xlink"><clipPath id="a"><path d="m0 0h495v495h-495z"/></clipPath><path d="m0 0h500v500h-500z" fill="#fff"/><g clip-path="url(#a)" fill="none" stroke="#000" stroke-width=".9"><path d="m255 78v4l-2 3-2 2-3 2-4 1h-3l-3-1-3-2-2-3-2-3v-4-3l2-3 2-3 3-2 3-1h4l3 2 3 1 2 3 2 3z" fill="#ff0" stroke="none"/><path d="m255 78v4l-2 3-2 2-3 2-4 1h-3l-3-1-3-2-2-3-2-3v-4-3l2-3 2-3 3-2 3-1h4l3 2 3 1 2 3 2 3z" fill="none" stroke="#ff0" stroke-width="15"/><path d="m367 375v1l-1 4-2 3-2 2-3 2-3 1h-4l-3-2-3-2-2-2-1-3-1-4 1-3 1-3 3-3 3-2 3-1h3l4 1 3 2 2 3 1 3z" fill="#ff0" stroke="none"/><path d="m367 375v1l-1 4-2 3-2 2-3 2-3 1h-4l-3-2-3-2-2-2-1-3-1-4 1-3 1-3 3-3 3-2 3-1h3l4 1 3 2 2 3 1 3z" fill="none" stroke="#ff0" stroke-width="15"/><path d="m105 272v1 3l-2 3-2 3-3 1-4 1h-3l-3-1-3-2-2-3-2-3v-3l1-4 1-3 2-2 3-2 4-1h3l3 1 3 2 3 2 1 4z" fill="#ff0" stroke="none"/><g fill="none" stroke-width="15"><path d="m105 272v1 3l-2 3-2 3-3 1-4 1h-3l-3-1-3-2-2-3-2-3v-3l1-4 1-3 2-2 3-2 4-1h3l3 1 3 2 3 2 1 4z" stroke="#ff0"/><path d="m257 224-125-112" stroke="#000"/><path d="m257 224 132-4" stroke="#000"/><path d="m257 224-43 157" stroke="#000"/><path d="m214 381-121-109" stroke="#000"/><path d="m93 272 39-160" stroke="#000"/><path d="m132 112-105-103" stroke="#000"/><path d="m132 112 111-34" stroke="#000"/><path d="m243 78 109 25" stroke="#000"/><path d="m352 103 37 117" stroke="#000"/><path d="m352 103 113-86" stroke="#000"/><path d="m243 78-6-64" stroke="#000"/><path d="m389 220-34 155" stroke="#000"/><path d="m355 375-141 6" stroke="#000"/><path d="m355 375 87 108" stroke="#000"/><path d="m214 381-92 87" stroke="#000"/><path d="m93 272-63 34" stroke="#000"/><path d="m389 220 82-3" stroke="#000"/><path d="m243 78 109 25" stroke="#f00"/><path d="m352 103 113-86" stroke="#f00"/><path d="m243 78-6-64" stroke="#f00"/><path d="m132 112 111-34" stroke="#f00"/><path d="m132 112-105-103" stroke="#f00"/><path d="m352 103 26 81" stroke="#f00"/><path d="m126 135 6-23" stroke="#f00"/><path d="m257 224h3" stroke="#f00"/><path d="m257 224-125-112" stroke="#f00"/><path d="m257 224-2 9" stroke="#f00"/><path d="m389 220 82-3" stroke="#00f"/><path d="m378 184 11 36" stroke="#00f"/><path d="m389 220-34 155" stroke="#00f"/><path d="m355 375 87 108" stroke="#00f"/><path d="m355 375-141 6" stroke="#00f"/><path d="m214 381-8-7" stroke="#00f"/><path d="m214 381-92 87" stroke="#00f"/><path d="m260 224 129-4" stroke="#00f"/><path d="m255 233-41 148" stroke="#00f"/><path d="m206 374-113-102" stroke="#0f0"/><path d="m93 272 33-137" stroke="#0f0"/><path d="m93 272-63 34" stroke="#0f0"/></g></g></svg>