<svg height="500" width="500" xmlns="http://www.w3.org/2000/svg" xmlns:xlink="http://www.w3.org/1999/xlink"><clipPath id="a"><path d="m0 0h500v500h-500z"/></clipPath><path d="m0 0h500v500h-500z" fill="#fff"/><g clip-path="url(#a)" fill="none" stroke="#000" stroke-width=".9"><path d="m279 150 15 15 15 26v16l-7 26-5 44v33l-3 28-16 35-39 12h-9l-3-1-19-33-3-21-8-35-14-35-9-39 1-50 11-36 34-24 4-2 5 4 28 18z" fill="#aff" stroke="none"/><path d="m279 150 15 15 15 26v16l-7 26-5 44v33l-3 28-16 35-39 12h-9l-3-1-19-33-3-21-8-35-14-35-9-39 1-50 11-36 34-24 4-2 5 4 28 18z" fill="none" stroke="#00f" stroke-width="15"/></g></svg>