<svg height="500" width="500" xmlns="http://www.w3.org/2000/svg" xmlns:xlink="http://www.w3.org/1999/xlink"><clipPath id="a"><path d="m0 0h500v500h-500z"/></clipPath><path d="m0 0h500v500h-500z" fill="#fff"/><g clip-path="url(#a)" fill="none" stroke="#000" stroke-width=".9"><path d="m281 146 17 16 17 29v19l-8 28-5 49v37l-4 31-18 40-43 12h-10l-4-1-21-36-4-24-8-39-16-38-10-45 1-55 13-40 37-27 5-2 5 4 32 20z" fill="#aff" stroke="none"/><path d="m281 146 17 16 17 29v19l-8 28-5 49v37l-4 31-18 40-43 12h-10l-4-1-21-36-4-24-8-39-16-38-10-45 1-55 13-40 37-27 5-2 5 4 32 20z" fill="none" stroke="#00f" stroke-width="15"/><path d="m307 238 8-28v-19l-17-29-17-16-24-22-32-20-5-4 41-15 50-13 61 2 31 7 36 13 26 23 16 48 4 20 3 40v50l-8 47-22 44-36 33-53 24-90 4-52-20h10l43-12 18-40 4-31v-37z" fill="#aff" stroke="none"/><path d="m307 238 8-28v-19l-17-29-17-16-24-22-32-20-5-4 41-15 50-13 61 2 31 7 36 13 26 23 16 48 4 20 3 40v50l-8 47-22 44-36 33-53 24-90 4-52-20h10l43-12 18-40 4-31v-37z" fill="none" stroke="#00f" stroke-width="15"/><path d="m227 407-55 1-64-17-41-24-20-34-28-50-8-45 1-44 9-42 12-29 25-25 32-11 47-14 28-2 23 6 32 23-5 2-37 27-13 40-1 55 10 45 16 38 8 39 4 24 21 36z" fill="#aff" stroke="none"/><path d="m227 407-55 1-64-17-41-24-20-34-28-50-8-45 1-44 9-42 12-29 25-25 32-11 47-14 28-2 23 6 32 23-5 2-37 27-13 40-1 55 10 45 16 38 8 39 4 24 21 36z" fill="none" stroke="#00f" stroke-width="15"/></g></svg>