<?xml version="1.0" standalone="no"?>
<!DOCTYPE svg PUBLIC "-//W3C//DTD SVG 20001102//EN" "http://www.w3.org/TR/2000/CR-SVG-20001102/DTD/svg-20001102.dtd">
<svg xmlns="http://www.w3.org/2000/svg" width="500" x="0" y="0" height="500" id="/putrela0/mpasol/blazek/inst/qgiscvs07/plugins/grass/modules/v.overlay.or.2" >
 <rect width="500" x="0" y="0" height="500" style="stroke:rgb(0,0,0);stroke-width:0;fill:rgb(255,255,255);" />
 <g style="stroke:rgb(0,0,0);stroke-width:0.9;fill:none;" >
  <clipPath id="clip1" >
   <rect width="500" x="0" y="0" height="500" />
  </clipPath>
  <g style="clip-path:url(#clip1)" >
   <polygon points="319 79 356 91 382 115 398 162 402 182 404 223 404 272 397 319 375 364 339 397 285 421 195 424 140 404 118 367 115 343 107 305 91 266 81 222 82 166 94 126 132 99 177 82 227 70 289 72 319 79" style="stroke:rgb(0,0,0);stroke-width:0;fill:rgb(170,255,255);" />
   <polygon points="319 79 356 91 382 115 398 162 402 182 404 223 404 272 397 319 375 364 339 397 285 421 195 424 140 404 118 367 115 343 107 305 91 266 81 222 82 166 94 126 132 99 177 82 227 70 289 72 319 79" style="stroke:rgb(0,0,255);stroke-width:15;fill:none;" />
  </g>
 </g>
</svg>
