<?xml version="1.0" standalone="no"?>
<!DOCTYPE svg PUBLIC "-//W3C//DTD SVG 20001102//EN" "http://www.w3.org/TR/2000/CR-SVG-20001102/DTD/svg-20001102.dtd">
<svg xmlns="http://www.w3.org/2000/svg" width="500" x="0" y="0" height="500" id="/putrela0/mpasol/blazek/inst/qgiscvs07/plugins/grass/modules/v.overlay.or.3" >
 <rect width="500" x="0" y="0" height="500" style="stroke:rgb(0,0,0);stroke-width:0;fill:rgb(255,255,255);" />
 <g style="stroke:rgb(0,0,0);stroke-width:0.9;fill:none;" >
  <clipPath id="clip1" >
   <rect width="500" x="0" y="0" height="500" />
  </clipPath>
  <g style="clip-path:url(#clip1)" >
   <polygon points="281 146 298 162 315 191 315 210 307 238 302 287 302 324 298 355 280 395 237 407 227 407 223 406 202 370 198 346 190 307 174 269 164 224 165 169 178 129 215 102 220 100 225 104 257 124 281 146" style="stroke:rgb(0,0,0);stroke-width:0;fill:rgb(170,255,255);" />
   <polygon points="281 146 298 162 315 191 315 210 307 238 302 287 302 324 298 355 280 395 237 407 227 407 223 406 202 370 198 346 190 307 174 269 164 224 165 169 178 129 215 102 220 100 225 104 257 124 281 146" style="stroke:rgb(0,0,255);stroke-width:15;fill:none;" />
   <polygon points="307 238 315 210 315 191 298 162 281 146 257 124 225 104 220 100 261 85 311 72 372 74 403 81 439 94 465 117 481 165 485 185 488 225 488 275 480 322 458 366 422 399 369 423 279 427 227 407 237 407 280 395 298 355 302 324 302 287 307 238" style="stroke:rgb(0,0,0);stroke-width:0;fill:rgb(170,255,255);" />
   <polygon points="307 238 315 210 315 191 298 162 281 146 257 124 225 104 220 100 261 85 311 72 372 74 403 81 439 94 465 117 481 165 485 185 488 225 488 275 480 322 458 366 422 399 369 423 279 427 227 407 237 407 280 395 298 355 302 324 302 287 307 238" style="stroke:rgb(0,0,255);stroke-width:15;fill:none;" />
   <polygon points="227 407 172 408 108 391 67 367 47 333 19 283 11 238 12 194 21 152 33 123 58 98 90 87 137 73 165 71 188 77 220 100 215 102 178 129 165 169 164 224 174 269 190 307 198 346 202 370 223 406 227 407" style="stroke:rgb(0,0,0);stroke-width:0;fill:rgb(170,255,255);" />
   <polygon points="227 407 172 408 108 391 67 367 47 333 19 283 11 238 12 194 21 152 33 123 58 98 90 87 137 73 165 71 188 77 220 100 215 102 178 129 165 169 164 224 174 269 190 307 198 346 202 370 223 406 227 407" style="stroke:rgb(0,0,255);stroke-width:15;fill:none;" />
  </g>
 </g>
</svg>
