<svg height="500" width="500" xmlns="http://www.w3.org/2000/svg" xmlns:xlink="http://www.w3.org/1999/xlink"><clipPath id="a"><path d="m0 0h500v500h-500z"/></clipPath><path d="m0 0h500v500h-500z" fill="#fff"/><g clip-path="url(#a)" fill="none" stroke="#000" stroke-width=".9"><path d="m306 234 7-26v-16l-15-26-15-15-22-19-28-18-5-4 36-14 45-11 55 2 28 6 32 11 24 22 14 42 4 18 2 36v45l-7 42-19 40-33 29-48 22-80 3-47-17 9-1 39-11 16-35 3-28v-34z" fill="#aff" stroke="none"/><path d="m306 234 7-26v-16l-15-26-15-15-22-19-28-18-5-4 36-14 45-11 55 2 28 6 32 11 24 22 14 42 4 18 2 36v45l-7 42-19 40-33 29-48 22-80 3-47-17 9-1 39-11 16-35 3-28v-34z" fill="none" stroke="#00f" stroke-width="15"/><path d="m234 386h-49l-57-15-37-21-18-31-25-45-7-40 1-40 8-38 11-25 22-22 29-11 42-12 25-2 20 5 29 21-4 2-34 24-11 36-1 50 9 39 14 35 7 34 4 22 19 32z" fill="#aff" stroke="none"/><path d="m234 386h-49l-57-15-37-21-18-31-25-45-7-40 1-40 8-38 11-25 22-22 29-11 42-12 25-2 20 5 29 21-4 2-34 24-11 36-1 50 9 39 14 35 7 34 4 22 19 32z" fill="none" stroke="#00f" stroke-width="15"/></g></svg>