<svg height="500" width="500" xmlns="http://www.w3.org/2000/svg" xmlns:xlink="http://www.w3.org/1999/xlink"><clipPath id="a"><path d="m0 0h500v500h-500z"/></clipPath><path d="m0 0h500v500h-500z" fill="#fff"/><g clip-path="url(#a)" fill="none" stroke="#000" stroke-width=".9"><path d="m365 149 17 16 17 30v18l-8 28-6 49v38l-3 30-19 40-43 12-65 2-63-17-41-24-21-34-28-50-8-46 1-44 9-42 13-29 25-25 32-11 46-14 29-2 22 6 38 27 32 21z" fill="#aff" stroke="none"/><path d="m365 149 17 16 17 30v18l-8 28-6 49v38l-3 30-19 40-43 12-65 2-63-17-41-24-21-34-28-50-8-46 1-44 9-42 13-29 25-25 32-11 46-14 29-2 22 6 38 27 32 21z" fill="none" stroke="#00f" stroke-width="15"/></g></svg>