<svg height="500" width="500" xmlns="http://www.w3.org/2000/svg" xmlns:xlink="http://www.w3.org/1999/xlink"><clipPath id="a"><path d="m0 0h500v500h-500z"/></clipPath><path d="m0 0h500v500h-500z" fill="#fff"/><g clip-path="url(#a)" fill="none" stroke="#000" stroke-width=".9"><path d="m328 386h-49l-57-15-36-21-19-31-25-45-7-40 1-40 8-38 11-25 22-22 29-11 42-12 25-2 20 5 29 21-4 2-34 24-11 36-1 50 9 39 14 35 8 34 3 22 19 32z" fill="#aff" stroke="none"/><path d="m328 386h-49l-57-15-36-21-19-31-25-45-7-40 1-40 8-38 11-25 22-22 29-11 42-12 25-2 20 5 29 21-4 2-34 24-11 36-1 50 9 39 14 35 8 34 3 22 19 32z" fill="none" stroke="#00f" stroke-width="15"/></g></svg>