<svg height="500" width="500" xmlns="http://www.w3.org/2000/svg" xmlns:xlink="http://www.w3.org/1999/xlink"><clipPath id="a"><path d="m0 0h500v500h-500z"/></clipPath><path d="m0 0h500v500h-500z" fill="#fff"/><g clip-path="url(#a)" fill="none" stroke="#00f" stroke-width="15"><path d="m108 256 160 203" transform="translate(0 -.994036)"/><path d="m108 256 223-88" transform="translate(0 -.994036)"/><path d="m268 459 63-291" transform="translate(0 -.994036)"/><path d="m108 256-74-18" transform="translate(0 -.994036)"/><path d="m331 168 99-134" transform="translate(0 -.994036)"/><path d="m268 459 1 5" transform="translate(0 -.994036)"/><path d="m269 464h-235" transform="translate(0 -.994036)"/><path d="m464 464h-195" transform="translate(0 -.994036)"/><path d="m464 34v430" transform="translate(0 -.994036)"/><path d="m430 34h34" transform="translate(0 -.994036)"/><path d="m34 34h396" transform="translate(0 -.994036)"/><path d="m34 238v-204" transform="translate(0 -.994036)"/><path d="m34 464v-226" transform="translate(0 -.994036)"/></g></svg>