<svg height="500" width="500" xmlns="http://www.w3.org/2000/svg" xmlns:xlink="http://www.w3.org/1999/xlink"><clipPath id="a"><path d="m0 0h500v500h-500z"/></clipPath><path d="m0 0h500v500h-500z" fill="#fff"/><g clip-path="url(#a)" fill="none" stroke="#000" stroke-width=".9"><path d="m331 168-223 88-74-18v-204h396z" fill="#aff" stroke="none" transform="translate(0 -.994036)"/><path d="m331 168-223 88-74-18v-204h396z" fill="none" stroke="#00f" stroke-width="15" transform="translate(0 -.994036)"/><path d="m268 459 63-291 99-134h34v430h-195z" fill="#aff" stroke="none" transform="translate(0 -.994036)"/><path d="m268 459 63-291 99-134h34v430h-195z" fill="none" stroke="#00f" stroke-width="15" transform="translate(0 -.994036)"/><path d="m108 256 160 203 1 5h-235v-226z" fill="#aff" stroke="none" transform="translate(0 -.994036)"/><path d="m108 256 160 203 1 5h-235v-226z" fill="none" stroke="#00f" stroke-width="15" transform="translate(0 -.994036)"/><path d="m268 459-160-203 223-88z" fill="#aff" stroke="none" transform="translate(0 -.994036)"/><path d="m268 459-160-203 223-88z" fill="none" stroke="#00f" stroke-width="15" transform="translate(0 -.994036)"/></g></svg>