<svg enable-background="new 0 0 579.997 579.997" height="579.997" viewBox="0 0 579.997 579.997" width="579.997" xmlns="http://www.w3.org/2000/svg">
<path d="m454.12 145.156c-12.162-15.193-22.692-22.461-44.958-31.023-6.95-2.678-24.465-7.801-26.593-7.801-.638 0 2.341 2.305 6.631 5.105 27.266 17.924 45.171 44.355 52.19 77.1 1.454 6.701 1.667 10.07 1.667 23.17 0 18.137-.957 23.863-7.41 43.293-6.631 20.014-12.658 31.359-25.883 48.609-3.298 4.326-6.418 8.189-6.879 8.615-.461.391-6.063 6.453-12.374 13.438-12.232 13.439-22.976 23.791-33.399 32.018-3.475 2.766-7.162 5.744-8.155 6.631-2.162 1.879-43.185 31.236-43.646 31.236-.178 0-.319-6.063-.319-13.438v-13.438l1.896-1.348c1.046-.709 5.975-4.469 10.974-8.332 4.999-3.865 11.807-8.828 15.14-10.992l5.992-3.971-2.092-10.318c-2.376-11.984-2.481-12.906-1.135-12.906 2.163 0 20.601-9.998 27.302-14.766 9.076-6.49 22.124-19.555 28.471-28.596 30.457-43.186 30.457-100.27 0-143.455-6.347-9.023-19.395-22.09-28.471-28.596-3.9-2.766-11.56-7.285-17.09-10.051-5.531-2.748-10.212-5.088-10.354-5.178-.142-.105.567-3.705 1.56-8.012l1.809-7.836-24.642-24.73-24.678-24.73-7.428 8.332c-4.077 4.572-14.022 14.785-22.089 22.691-8.049 7.889-15.513 15.387-16.576 16.646l-1.932 2.305 1.507 6.771c.815 3.74 1.488 7.375 1.488 8.102 0 .922-1.507 1.916-5.017 3.352-12.002 4.875-25.315 13.846-36.2 24.428-17.587 17.072-28.666 36.928-34.464 61.713-2.003 8.49-2.109 9.873-2.109 26.52s.106 18.029 2.109 26.539c5.798 24.783 16.877 44.621 34.464 61.693 10.813 10.514 23.737 19.271 35.863 24.305 2.748 1.135 5.248 2.27 5.549 2.518.302.248-.479 5.639-1.702 11.914-1.24 6.311-2.162 11.523-2.038 11.629.106.107 3.563 2.305 7.658 4.93 4.096 2.623 10.46 7.125 14.147 10.033 3.687 2.908 7.959 6.063 9.502 6.984l2.783 1.738v14.111 14.111l-21.132-15.105c-34.445-24.605-44.462-33.293-67.101-57.969-24.482-26.699-33.577-41.023-42.121-66.32-7.057-20.92-7.801-25.264-7.801-45.119 0-14.855.195-17.727 1.72-24.553 3.527-15.795 9.307-29.482 18.064-42.742 6.364-9.645 23.082-26.326 32.496-32.441 3.775-2.447 6.754-4.574 6.612-4.717-1.011-1.01-23.26 6.293-34.782 11.418-16.328 7.268-23.791 12.924-34.357 26.076-19.217 23.934-30.669 50.969-34.8 82.135-.993 7.535-.993 30.828 0 38.381 3.652 27.514 13.048 51.961 28.542 74.121 8.953 12.834 16.788 21.486 44.781 49.426 25.244 25.209 35.189 36.307 37.955 40.703 2.837 4.502 3.563 13.084 3.776 13.084.195 0 10.406-7.34 22.674-16.346l22.319-16.381 7.836 5.566c4.326 3.084 7.995 5.814 8.155 6.098.177.285-12.817 9.857-28.879 21.238-26.291 18.721-29.464 21.203-31.946 24.961-3.475 5.318-4.521 9.148-4.06 14.963.621 7.801 5.142 14.324 12.676 18.367 2.553 1.346 4.344 1.666 9.467 1.666 5.141 0 6.932-.32 9.484-1.666 4.68-2.482 7.854-5.604 10.3-10.035 1.95-3.51 2.198-4.68 2.181-10.316 0-5.107-.337-6.951-1.631-9.432l-1.631-3.049 15.423-10.566 15.406-10.566.212 26.309.195 26.379-1.684 1.064c-3.333 2.127-9.255 8.721-10.921 12.195-3.794 7.873-3.847 18.545-.124 26.238 3.51 7.268 11.009 13.58 18.686 15.742 11.771 3.334 26.574-1.631 33.382-11.133 9.218-12.906 6.453-32.088-6.027-41.271l-3.542-2.622v-26.449c0-14.537.177-26.451.407-26.451.515 0 28.666 19.217 29.943 20.494.779.709.709 1.523-.497 4.184-2.092 4.609-2.092 13.26 0 17.904 2.021 4.504 6.205 8.758 10.743 10.922 4.929 2.34 13.332 2.445 18.26.248 4.468-2.057 8.723-6.24 10.85-10.779 2.695-5.744 2.553-13.615-.425-19.537-1.206-2.445-3.12-5.354-4.255-6.416-1.135-1.064-14.467-10.744-29.642-21.521-15.175-10.744-27.833-19.82-28.152-20.176-.354-.283 3.12-3.227 7.729-6.523 8.227-5.814 8.403-5.922 9.928-4.609.852.709 10.921 8.191 22.408 16.594l20.849 15.246c0 0 1.276-9.502 6.665-16.807 5.461-7.232 15.885-17.408 33.542-35.279 33.789-34.178 37.229-38.043 47.476-53.076 7.623-11.133 12.764-20.637 17.196-31.734 21.699-54.339 12.658-115.428-23.897-161.079zm-129.84 26.131c1.276-20.439 5.318-56.197 6.523-57.438.532-.586 8.581 3.688 15.176 8.029 8.226 5.461 21.521 18.811 26.946 27.055 11.842 18.064 16.983 35.207 16.983 56.781 0 12.906-1.241 21.115-4.857 31.875-5.212 15.707-12.552 27.479-24.536 39.533-4.786 4.787-10.885 10-14.536 12.428-3.511 2.305-8.438 5.213-10.921 6.471l-4.609 2.305-.426-1.648c-.673-2.818-3.368-24.182-4.608-36.785-1.596-16.186-2.269-70.168-1.135-88.606zm-73.713 120.551c-.479 3.191-1.082 5.779-1.348 5.779-1.011-.053-11.133-5.779-15.353-8.705-21.202-14.643-35.687-36.412-41.466-62.33-1.472-6.543-1.737-9.893-1.737-20.867 0-14.182 1.348-22.709 5.372-33.932 8.438-23.596 26.805-44.691 48.415-55.629l4.645-2.357.372 1.684c.745 3.262 3.387 24.217 4.468 35.314 4.326 44.691 3.049 98.213-3.368 141.043z" fill="param(fill)" fill-opacity="param(fill-opacity)" stroke="param(outline)" stroke-opacity="param(outline-opacity)" stroke-width="param(outline-width)"/>
</svg>
