<svg enable-background="new 0 0 579.997 579.997" height="579.997" viewBox="0 0 579.997 579.997" width="579.997" xmlns="http://www.w3.org/2000/svg">
<path d="m426.849 174.811c27.352-10.223 62.035-33.398 62.035-41.451-6.063-19.07-24.391-32.482-34.965-48.906-.775-1.041-9.235 4.369-18.752 12.037-43.319 34.824-82.973 42.455-122.098 23.527-21.766-13.395-42.104-32.586-52.025-54.105-8.442 0-.688 40.129 11.913 61.631 40.042 59.073 86.146 66.794 153.892 47.267z" fill="param(fill)" fill-opacity="param(fill-opacity)" stroke="param(outline)" stroke-opacity="param(outline-opacity)" stroke-width="param(outline-width)"/>
<path d="m352.194 120.439c19.174-10.873 31.3-32.32 48.077-46.139l-49.064-45.38-44.13 48.924c7.402 18.275 29.995 31.424 45.117 42.595z" fill="param(fill)" fill-opacity="param(fill-opacity)" stroke="param(outline)" stroke-opacity="param(outline-opacity)" stroke-width="param(outline-width)"/>
<path d="m476.513 205.053c-15.897-11.139-23.651-13.43-45.435-13.395-46.809.07-66.936 15.791-97.953 76.523-22.453 43.9-41.204 54.475-71.94 40.586l-18.1-8.141 13.112-8.283c15.174-9.623 34.842-43.955 39.195-68.469 6.433-36.252-17.677-79.254-50.51-90.094-36.041-11.896-99.381 2.01-135.862 29.838l-14.575 11.102 34.737 58.213c68.82-36.412 102.799-41.98 121.728-19.969 13.13 15.244 13.376 21.043 1.586 36.023-12.53 15.949-36.711 23.035-68.715 20.127l-26.595-2.414c8.266 49.574 34.208 77.49 34.208 77.49 42.297-5.568 65.014 2.504 75.042 26.684 12.953 31.299.863 63.445-28.938 76.98-38.243 17.377-104.633 6.344-131.438-21.854-16.144-16.99-32.851-51.674-42.649-88.613-4.459-16.848-9.746-30.646-11.72-30.646-5.957 0-3.931 50.314 3.261 80.734 15.808 67.076 55.744 116 110.748 135.633 19.826 7.084 55.92 7.895 78.091 1.727 22.752-6.344 51.232-32.217 63.569-57.807 13.923-28.938 14.557-76.486 1.374-105.742l-9.199-20.479h28.479c25.449 0 29.996-1.445 42.721-13.641 7.825-7.473 20.303-24.215 27.704-37.15 21.431-37.451 36.729-51.445 56.185-51.445 9.165 0 20.374 1.992 24.886 4.406 21.712 11.613 30.172 77.352 14.381 111.471-20.796 44.906-73.351 68.697-109.973 49.77-14.91-7.719-31.159-30.947-31.652-45.223-.247-7.789-.987-7.438-4.97 2.291-8.319 20.232-1.798 66.266 12.688 89.459 16.496 26.471 37.187 37.75 69.332 37.75 58.547 0 97.707-50.158 103.699-132.813 4.757-65.278-16.849-122.836-56.502-150.629z" fill="param(fill)" fill-opacity="param(fill-opacity)" stroke="param(outline)" stroke-opacity="param(outline-opacity)" stroke-width="param(outline-width)"/>
</svg>
