<?xml version="1.0" encoding="UTF-8" standalone="no"?>
<!-- Created with Inkscape (http://www.inkscape.org/) -->
<svg
   xmlns:dc="http://purl.org/dc/elements/1.1/"
   xmlns:cc="http://creativecommons.org/ns#"
   xmlns:rdf="http://www.w3.org/1999/02/22-rdf-syntax-ns#"
   xmlns:svg="http://www.w3.org/2000/svg"
   xmlns="http://www.w3.org/2000/svg"
   xmlns:sodipodi="http://sodipodi.sourceforge.net/DTD/sodipodi-0.dtd"
   xmlns:inkscape="http://www.inkscape.org/namespaces/inkscape"
   width="16px"
   height="16px"
   id="svg3427"
   sodipodi:version="0.32"
   inkscape:version="0.46"
   sodipodi:docname="religion=sikh.svg"
   inkscape:output_extension="org.inkscape.output.svg.inkscape"
   inkscape:export-filename="/home/matt/Programming/openstreetmap/icons/religion=buddhist.png"
   inkscape:export-xdpi="90"
   inkscape:export-ydpi="90">
  <defs
     id="defs3429">
    <inkscape:perspective
       sodipodi:type="inkscape:persp3d"
       inkscape:vp_x="0 : 8 : 1"
       inkscape:vp_y="0 : 1000 : 0"
       inkscape:vp_z="16 : 8 : 1"
       inkscape:persp3d-origin="8 : 5.3333333 : 1"
       id="perspective3435" />
  </defs>
  <sodipodi:namedview
     id="base"
     pagecolor="#ffffff"
     bordercolor="#666666"
     borderopacity="1.0"
     inkscape:pageopacity="0.0"
     inkscape:pageshadow="2"
     inkscape:zoom="31.875"
     inkscape:cx="8"
     inkscape:cy="8"
     inkscape:current-layer="layer2"
     showgrid="true"
     inkscape:grid-bbox="true"
     inkscape:document-units="px"
     inkscape:window-width="1280"
     inkscape:window-height="723"
     inkscape:window-x="0"
     inkscape:window-y="0" />
  <metadata
     id="metadata3432">
    <rdf:RDF>
      <cc:Work
         rdf:about="">
        <dc:format>image/svg+xml</dc:format>
        <dc:type
           rdf:resource="http://purl.org/dc/dcmitype/StillImage" />
        <cc:license
           rdf:resource="http://creativecommons.org/licenses/publicdomain/" />
        <dc:title>religion=sikh</dc:title>
        <dc:creator>
          <cc:Agent>
            <dc:title>Matt Amos</dc:title>
          </cc:Agent>
        </dc:creator>
        <dc:rights>
          <cc:Agent>
            <dc:title>Matt Amos asserts the moral right to be identified as the author of this work.</dc:title>
          </cc:Agent>
        </dc:rights>
      </cc:Work>
      <cc:License
         rdf:about="http://creativecommons.org/licenses/publicdomain/">
        <cc:permits
           rdf:resource="http://creativecommons.org/ns#Reproduction" />
        <cc:permits
           rdf:resource="http://creativecommons.org/ns#Distribution" />
        <cc:permits
           rdf:resource="http://creativecommons.org/ns#DerivativeWorks" />
      </cc:License>
    </rdf:RDF>
  </metadata>
  <g
     id="layer1"
     inkscape:label="Layer 1"
     inkscape:groupmode="layer"
     sodipodi:insensitive="true">
    <rect
       style="fill:#535353;fill-opacity:1;stroke:none;stroke-width:1;stroke-linejoin:round;stroke-miterlimit:4;stroke-dasharray:none;stroke-opacity:1"
       id="rect3946"
       width="16"
       height="16"
       x="0"
       y="0"
       rx="4" />
  </g>
  <g
     inkscape:groupmode="layer"
     id="layer2"
     inkscape:label="import"
     style="display:inline">
    <path
       d="M 7.7445337,15.287267 C 7.5332043,15.227785 7.3264452,15.053634 7.2300994,14.853966 C 7.1275967,14.641534 7.1288689,14.347082 7.2332218,14.130817 C 7.2793741,14.03517 7.4423726,13.853079 7.5341049,13.794691 L 7.5807863,13.76498 L 7.5751345,13.039375 L 7.5694805,12.313769 L 7.1448129,12.604832 L 6.7201451,12.895894 L 6.765042,12.98055 C 6.8010065,13.048363 6.8099879,13.100013 6.810185,13.240149 C 6.8104045,13.395588 6.803692,13.427297 6.749986,13.524563 C 6.6824062,13.646958 6.5950743,13.731923 6.4662369,13.800623 C 6.3960537,13.838048 6.3465348,13.846812 6.2052438,13.846812 C 6.0639524,13.846812 6.0144338,13.838048 5.9442501,13.800623 C 5.7366121,13.689903 5.6122445,13.509527 5.5952186,13.294409 C 5.5825521,13.134372 5.611193,13.028818 5.7068067,12.883159 C 5.7751571,12.779032 5.8627621,12.710627 6.5868192,12.196008 C 7.0290765,11.881678 7.3870954,11.618186 7.382414,11.610471 C 7.3777345,11.602755 7.2766578,11.527195 7.1577989,11.442558 L 6.9416953,11.288672 L 6.3271526,11.739581 C 5.9891534,11.987581 5.7080557,12.19049 5.7024909,12.19049 C 5.696926,12.19049 5.6765288,11.954268 5.5985905,11.830313 C 5.5226658,11.709561 5.2486535,11.403129 4.5531652,10.708619 C 3.7824711,9.9390083 3.5665744,9.7007523 3.3196444,9.3473482 C 2.893213,8.7370432 2.6341931,8.0641454 2.5338748,7.3060282 C 2.5063943,7.0983561 2.5063943,6.4567286 2.5338748,6.2490566 C 2.6474691,5.3906111 2.9628674,4.6461053 3.4921555,3.9870094 C 3.7831112,3.6246967 3.9887576,3.468548 4.4383352,3.2685681 C 4.7559966,3.1272667 5.3685263,2.9263367 5.3963926,2.9542938 C 5.4002379,2.9581515 5.3183916,3.0165082 5.2145123,3.0839754 C 4.95524,3.252366 4.4947433,3.7120831 4.3194921,3.9774797 C 4.0782074,4.3428763 3.9188473,4.7198219 3.821753,5.1548161 C 3.7797666,5.3429204 3.7742341,5.4216204 3.7742341,5.830791 C 3.7742341,6.3779091 3.7949303,6.4974446 3.989412,7.0736039 C 4.2245902,7.7703292 4.4751267,8.1648838 5.149481,8.9005274 C 5.7728647,9.5805682 6.049018,9.819106 6.9975572,10.496872 L 7.5797381,10.912863 L 7.5797381,10.524278 L 7.5797381,10.135692 L 7.5028074,10.088518 C 7.4604954,10.062572 7.3427915,9.9758084 7.241243,9.8957105 C 7.1396945,9.8156126 6.9642926,9.6910539 6.8514608,9.6189133 C 6.738629,9.5467728 6.6436967,9.4858273 6.6404985,9.4834789 C 6.6373001,9.4811305 6.662548,9.3370574 6.6966045,9.1633165 C 6.7306612,8.9895759 6.7517403,8.8418194 6.7434482,8.8349689 C 6.7351559,8.8281184 6.6664804,8.7968321 6.590832,8.7654439 C 6.2566733,8.6267909 5.9008009,8.3857808 5.6029295,8.0963985 C 5.1188388,7.6261041 4.8134861,7.0794198 4.6536035,6.3967836 C 4.5987771,6.1626968 4.5957577,6.1245588 4.5957577,5.6661384 C 4.5957577,5.2077182 4.5987771,5.1695801 4.6536035,4.9354935 C 4.8134861,4.2528571 5.1188388,3.7061728 5.6029295,3.2358785 C 5.9028033,2.9445511 6.2692919,2.6971888 6.5998645,2.5629953 C 6.6966536,2.523705 6.7382003,2.4960012 6.7383769,2.4706344 C 6.7385162,2.4507048 6.719977,2.3503887 6.6971809,2.2477093 L 6.6557307,2.0610195 L 6.7088745,1.9976572 C 6.7381018,1.9628077 6.9436977,1.7563328 7.1657505,1.5388238 C 7.387801,1.3213147 7.6615123,1.0400777 7.7739931,0.91385262 L 7.9785057,0.68435226 L 8.6578161,1.3656452 L 9.3371282,2.0469381 L 9.2869531,2.2625591 C 9.2593584,2.3811506 9.240136,2.4804102 9.2442392,2.4831357 C 9.248342,2.4858614 9.376328,2.5501623 9.5286508,2.6260258 C 9.6809734,2.7018897 9.8931423,2.8265172 10.000135,2.9029753 C 10.250359,3.081785 10.608922,3.4419274 10.784374,3.6906663 C 11.623188,4.8798649 11.623188,6.452412 10.784374,7.6416107 C 10.608844,7.8904604 10.250246,8.2505966 10.000135,8.4292145 C 9.8154344,8.5611197 9.307792,8.8356976 9.2486271,8.8356976 C 9.2114605,8.8356976 9.2137704,8.8620064 9.279896,9.1917744 L 9.3368533,9.475816 L 9.1711877,9.5849805 C 9.080071,9.6450205 8.8928424,9.7811605 8.755124,9.8875131 C 8.6174059,9.9938656 8.4812386,10.097521 8.4525301,10.11786 L 8.4003342,10.154838 L 8.4003342,10.524345 C 8.4003342,10.727574 8.4042199,10.893852 8.4089689,10.893852 C 8.4220492,10.893852 9.551849,10.085596 9.6107102,10.034129 C 9.6389186,10.009465 9.7404669,9.9271988 9.8363736,9.8513146 C 10.122468,9.6249496 10.419112,9.3403163 10.755422,8.9694777 C 10.929945,8.7770401 11.083533,8.6103296 11.096732,8.5990098 C 11.109931,8.5876898 11.195207,8.4811805 11.286234,8.362322 C 11.650096,7.887213 11.816609,7.5745786 11.999224,7.0236621 C 12.176733,6.4881532 12.203731,6.3306757 12.203731,5.830791 C 12.203731,5.4702745 12.196987,5.3774174 12.157395,5.1927627 C 11.964041,4.2909556 11.471198,3.5631723 10.719593,3.0695509 C 10.601715,2.9921334 10.519364,2.9287919 10.536591,2.9287919 C 10.596416,2.9287919 11.078611,3.0699962 11.269328,3.1433642 C 11.882894,3.379401 12.172899,3.5795272 12.508236,3.9983092 C 13.51473,5.2552539 13.764233,6.9378539 13.166038,8.4343574 C 13.0437,8.7404088 12.902405,9.0014439 12.692558,9.3090734 C 12.410011,9.723282 12.315308,9.8291515 11.385401,10.770364 C 10.898901,11.262777 10.610756,11.542337 10.461414,11.742841 C 10.312072,11.943346 10.277443,12.2046 10.277443,12.2046 L 9.7030271,11.784743 C 9.3870983,11.553821 9.1093642,11.34828 9.0858418,11.327986 C 9.0439383,11.291835 9.0384054,11.294415 8.812619,11.455359 C 8.68587,11.545707 8.5897189,11.626752 8.5989528,11.635461 C 8.6081844,11.644168 8.9573123,11.893932 9.3747896,12.190494 C 9.7922666,12.487056 10.159499,12.753928 10.190862,12.783542 C 10.222225,12.813157 10.275308,12.892441 10.308823,12.95973 C 10.390166,13.123042 10.394975,13.340308 10.320723,13.497418 C 10.261577,13.622569 10.144911,13.73812 10.021007,13.794273 C 9.8854925,13.855687 9.6548397,13.852725 9.5183936,13.787819 C 9.3936487,13.728482 9.2784702,13.611436 9.2224995,13.487129 C 9.1651277,13.359705 9.1649061,13.120933 9.2220444,12.994575 C 9.2554691,12.920658 9.2583021,12.898619 9.2369811,12.878351 C 9.2009916,12.844141 8.4256248,12.313979 8.4115805,12.313979 C 8.4053953,12.313979 8.4003342,12.641981 8.4003342,13.042872 L 8.4003342,13.771763 L 8.4982064,13.843844 C 8.8413192,14.096532 8.9184777,14.624935 8.6641449,14.98024 C 8.4763909,15.242531 8.0689207,15.378571 7.7445337,15.287267 z M 9.5286508,7.9750438 C 9.6299225,7.9081378 9.7980008,7.7645567 9.9295706,7.63256 C 10.260419,7.3006348 10.461888,6.9764278 10.605929,6.5441502 C 10.704689,6.2477606 10.739027,6.0212542 10.739027,5.6661384 C 10.739027,5.0718483 10.597735,4.5996733 10.270967,4.1019405 C 10.121887,3.8748643 9.7556682,3.5073103 9.5286508,3.3569178 C 9.348272,3.2374229 9.1259628,3.1197278 9.1108904,3.1357476 C 9.0784935,3.1701817 8.9671347,4.1546204 8.9319129,4.7179494 C 8.9001765,5.2255483 8.9191239,6.7126051 8.963005,7.1583012 C 8.9971581,7.505179 9.0713051,8.0939858 9.0905562,8.1712058 L 9.1019175,8.2167776 L 9.2280961,8.1535124 C 9.2974938,8.1187166 9.4327439,8.0384053 9.5286508,7.9750438 z M 6.9011724,8.0381626 C 7.0781397,6.8584252 7.113339,5.3842452 6.9939304,4.1533943 C 6.9642966,3.8479233 6.8915059,3.2704655 6.8713335,3.1808288 L 6.8608936,3.134433 L 6.733088,3.1991361 C 6.1377926,3.5005125 5.6317924,4.0817397 5.3991865,4.7313494 C 5.2884647,5.0405677 5.2513257,5.2753629 5.2513257,5.6661384 C 5.2513257,5.9683734 5.2590212,6.0608119 5.299163,6.2407504 C 5.4584175,6.9546214 5.8571926,7.5541225 6.4411637,7.9575872 C 6.557719,8.0381145 6.8365836,8.1959617 6.8643543,8.197128 C 6.8714443,8.1974258 6.8880142,8.1258913 6.9011724,8.0381626 z"
       style="fill:#ffffff;fill-opacity:1"
       id="path1317" />
  </g>
</svg>
