<?xml version="1.0" encoding="utf-8"?>
<!-- Generator: Adobe Illustrator 16.0.0, SVG Export Plug-In . SVG Version: 6.00 Build 0)  -->
<!DOCTYPE svg PUBLIC "-//W3C//DTD SVG 1.1//EN" "http://www.w3.org/Graphics/SVG/1.1/DTD/svg11.dtd">
<svg version="1.1"
	 id="svg3427" xmlns:dc="http://purl.org/dc/elements/1.1/" xmlns:cc="http://creativecommons.org/ns#" xmlns:rdf="http://www.w3.org/1999/02/22-rdf-syntax-ns#" xmlns:svg="http://www.w3.org/2000/svg" xmlns:sodipodi="http://sodipodi.sourceforge.net/DTD/sodipodi-0.dtd" xmlns:inkscape="http://www.inkscape.org/namespaces/inkscape" sodipodi:version="0.32" sodipodi:docname="religion=buddhist.svg" inkscape:output_extension="org.inkscape.output.svg.inkscape" inkscape:version="0.46" inkscape:export-filename="/home/matt/Programming/openstreetmap/icons/religion=buddhist.png" inkscape:export-xdpi="90" inkscape:export-ydpi="90"
	 xmlns="http://www.w3.org/2000/svg" xmlns:xlink="http://www.w3.org/1999/xlink" x="0px" y="0px" width="579.997px" height="580px"
	 viewBox="-282 -282 579.997 580" enable-background="new -282 -282 579.997 580" xml:space="preserve">
<defs>
	
	
		<inkscape:perspective  inkscape:vp_z="16 : 8 : 1" inkscape:vp_y="0 : 1000 : 0" inkscape:vp_x="0 : 8 : 1" sodipodi:type="inkscape:persp3d" id="perspective3435" inkscape:persp3d-origin="8 : 5.3333333 : 1">
		</inkscape:perspective>
</defs>
<sodipodi:namedview  showgrid="true" inkscape:cy="8" inkscape:cx="1.6784314" inkscape:zoom="31.875" pagecolor="#ffffff" bordercolor="#666666" borderopacity="1.0" id="base" inkscape:current-layer="layer4" inkscape:window-y="0" inkscape:window-x="0" inkscape:pageopacity="0.0" inkscape:pageshadow="2" inkscape:window-height="723" inkscape:window-width="1280" inkscape:document-units="px" inkscape:grid-bbox="true">
	</sodipodi:namedview>
<path fill="param(fill) #FFF" stroke="param(outline) #000" stroke-width="param(outline-width) 1" d="M245.497-3.363c-4.617-7.191-13.14-11.471-21.591-10.229
	c0,0-13.57,0-34.498,0c-9.935-84.513-77.422-151.664-162.09-161.082c0-18.472,0-31.394,0-35.506
	c0.354-6.533-1.972-12.641-6.818-17.045c-4.848-4.402-11.701-6.641-18.182-5.682C-9.099-231.592-17.55-221.666-17-210.18
	c0,4.113,0,17.218,0,35.909c-83.066,10.816-148.879,77.302-158.68,160.679c-19.764,0-33.593,0-37.908,0
	c-1.509-0.158-3.036-0.158-4.545,0c-10.974,2.291-18.218,12.713-17.046,23.863s10.388,19.391,21.591,19.318
	c4.286,0,18.144,0,37.908,0c9.8,83.378,75.613,149.865,158.68,160.681c0,21.714,0,35.907,0,35.907
	c0,12.217,10.494,21.592,22.728,21.592s21.591-9.375,21.591-21.592c0,0,0-13.982,0-35.504
	c84.669-9.418,152.156-76.57,162.09-161.084c20.897,0,34.498,0,34.498,0c8.451,1.244,16.974-3.053,21.591-10.227
	C250.113,12.172,250.113,3.828,245.497-3.363z M145.384-13.592c-27.524,0-58.717,0-87.385,0
	c21.928-21.914,43.616-43.609,61.613-61.61C132.779-57.407,141.842-36.401,145.384-13.592z M88.094-106.187
	C70.235-88.333,48.961-67.065,27.318-45.408c0-29.637,0-59.344,0-85.277C49.726-127.395,70.428-118.79,88.094-106.187z M-38.59,8
	c0-25.195,20.259-45.455,45.453-45.455c25.213,0,45.454,20.26,45.454,45.455c0,25.213-20.241,45.453-45.454,45.453
	C-18.331,53.453-38.59,33.213-38.59,8z M-17-47.682c-20.559-20.56-40.875-40.876-58.025-58.025
	C-58.11-117.922-38.376-126.46-17-130.142C-17-104.912-17-76.216-17-47.682z M-106.363-74.546
	c17.869,17.869,39.31,39.31,60.955,60.955c-30.033,0-60.02,0-86.247,0C-128.157-36.123-119.27-56.891-106.363-74.546z
	 M-131.656,29.59c25.65,0,54.835,0,83.975,0c-19.844,19.845-42.523,42.515-59.645,59.638
	C-119.715,71.86-128.245,51.561-131.656,29.59z M-76.342,120.745C-59.279,103.685-36.788,81.21-17,61.408c0,27.73,0,57.888,0,84.732
	C-38.934,142.363-59.139,133.475-76.342,120.745z M27.318,59.135c20.9,20.873,44.452,44.439,62.094,62.09
	c-17.952,13.123-39.125,22.087-62.094,25.46C27.318,119.117,27.318,87.912,27.318,59.135z M120.57,89.889
	C103.372,72.691,80.371,49.69,60.272,29.59c27.802,0,58.167,0,85.111,0C141.93,51.842,133.219,72.376,120.57,89.889z"/>
</svg>
