<svg enable-background="new -282 -282 579.997 580" height="580" viewBox="-282 -282 579.997 580" width="579.997" xmlns="http://www.w3.org/2000/svg">
<path d="m245.497-3.363c-4.617-7.191-13.14-11.471-21.591-10.229 0 0-13.57 0-34.498 0-9.935-84.513-77.422-151.664-162.09-161.082 0-18.472 0-31.394 0-35.506.354-6.533-1.972-12.641-6.818-17.045-4.848-4.402-11.701-6.641-18.182-5.682-11.417 1.315-19.868 11.241-19.318 22.727 0 4.113 0 17.218 0 35.909-83.066 10.816-148.879 77.302-158.68 160.679-19.764 0-33.593 0-37.908 0-1.509-.158-3.036-.158-4.545 0-10.974 2.291-18.218 12.713-17.046 23.863s10.388 19.391 21.591 19.318c4.286 0 18.144 0 37.908 0 9.8 83.378 75.613 149.865 158.68 160.681 0 21.714 0 35.907 0 35.907 0 12.217 10.494 21.592 22.728 21.592s21.591-9.375 21.591-21.592c0 0 0-13.982 0-35.504 84.669-9.418 152.156-76.57 162.09-161.084 20.897 0 34.498 0 34.498 0 8.451 1.244 16.974-3.053 21.591-10.227 4.615-7.19 4.615-15.534-.001-22.725zm-100.113-10.229c-27.524 0-58.717 0-87.385 0 21.928-21.914 43.616-43.609 61.613-61.61 13.167 17.795 22.23 38.801 25.772 61.61zm-57.29-92.595c-17.859 17.854-39.133 39.122-60.776 60.779 0-29.637 0-59.344 0-85.277 22.408 3.29 43.11 11.895 60.776 24.498zm-126.684 114.187c0-25.195 20.259-45.455 45.453-45.455 25.213 0 45.454 20.26 45.454 45.455 0 25.213-20.241 45.453-45.454 45.453-25.194 0-45.453-20.24-45.453-45.453zm21.59-55.682c-20.559-20.56-40.875-40.876-58.025-58.025 16.915-12.215 36.649-20.753 58.025-24.435 0 25.23 0 53.926 0 82.46zm-89.363-26.864c17.869 17.869 39.31 39.31 60.955 60.955-30.033 0-60.02 0-86.247 0 3.498-22.532 12.385-43.3 25.292-60.955zm-25.293 104.136c25.65 0 54.835 0 83.975 0-19.844 19.845-42.523 42.515-59.645 59.638-12.389-17.368-20.919-37.667-24.33-59.638zm55.314 91.155c17.063-17.06 39.554-39.535 59.342-59.337 0 27.73 0 57.888 0 84.732-21.934-3.777-42.139-12.665-59.342-25.395zm103.66-61.61c20.9 20.873 44.452 44.439 62.094 62.09-17.952 13.123-39.125 22.087-62.094 25.46 0-27.568 0-58.773 0-87.55zm93.252 30.754c-17.198-17.198-40.199-40.199-60.298-60.299 27.802 0 58.167 0 85.111 0-3.453 22.252-12.164 42.786-24.813 60.299z" fill="param(fill)" fill-opacity="param(fill-opacity)" stroke="param(outline)" stroke-opacity="param(outline-opacity)" stroke-width="param(outline-width)"/>
</svg>
