<svg enable-background="new 0 0 579.997 579.997" height="579.997" viewBox="0 0 579.997 579.997" width="579.997" xmlns="http://www.w3.org/2000/svg">
<path d="m355.362 414.504l148.542.068-74.291-128.807 74.29-128.806-148.545.062-74.096-128.47-74.285 128.53-148.701.062 74.331 128.616-74.331 128.609 148.697.068 74.289 128.544zm91.904-32.666l-73.043-.033 36.512-63.306zm-110.793-.051l-110.619-.05-55.468-95.978 55.471-95.977 110.613-.045 55.385 96.027zm110.794-192.095l-36.532 63.34-36.515-63.31zm-166.034-95.724l36.376 63.069-72.845.029zm-166.289 95.861l73.124-.03-36.572 63.277zm0 191.858l36.552-63.243 36.569 63.276zm129.817 32.766l72.853.034-36.38 63.075z" fill="param(fill)" fill-opacity="param(fill-opacity)" stroke="param(outline)" stroke-opacity="param(outline-opacity)" stroke-width="param(outline-width)"/>
</svg>
