<svg enable-background="new 0 0 579.997 579.997" height="579.997" viewBox="0 0 579.997 579.997" width="579.997" xmlns="http://www.w3.org/2000/svg">
<path d="m557.992 286.147c-.224-1.538-2.404-15.438-9.869-29.688-11.264-21.501-29.22-33.31-50.598-33.31-.198 0-.399.001-.6.003-21.622.204-39.302 10.283-49.781 28.379-.735 1.27-1.407 2.536-2.027 3.791-18.014-19.915-39.404-36.078-62.975-47.803l5.405-12.836c27.037-.474 48.888-22.592 48.888-49.747 0-27.415-22.303-49.742-49.734-49.77-27.424 0-49.734 22.318-49.734 49.733-.026 13.279 5.124 25.773 14.503 35.181.713.715 1.449 1.396 2.196 2.063l-5.115 12.146c-19.19-5.722-39.298-8.747-59.803-8.747-22.474 0-44.471 3.625-65.302 10.461l-5.852-13.895c10.254-9.127 16.731-22.414 16.731-37.189 0-27.434-22.326-49.752-49.788-49.752-27.414.027-49.717 22.354-49.717 49.787 0 27.144 21.861 49.266 48.906 49.73l6.513 15.464c-21.407 11.385-40.89 26.487-57.514 44.778-.713-1.491-1.502-3.004-2.379-4.52-10.472-18.099-28.146-28.186-49.772-28.401-.19-.002-.379-.003-.568-.003-21.401 0-39.367 11.817-50.635 33.326-7.465 14.251-9.645 28.15-9.868 29.688-1.437 9.862 5.389 19.063 15.252 20.499.886.129 1.766.191 2.635.191 8.81 0 16.511-6.432 17.818-15.409.05-.322 5.223-32.202 24.833-32.202.06 0 .118 0 .178.001 8.66.086 14.348 3.061 18.44 9.644 3.748 6.026 4.546 12.621 4.554 12.687l-.019-.183 10.393-.975-6.784 10.039 6.824 10.104c3.354 4.965 6.914 9.744 10.641 14.359-.21.06-.419.117-.629.178-26.337 7.566-42.169 18.023-48.412 31.993-8.634 19.389 3.708 38.63 14.598 55.605 3.796 5.918 9.913 15.454 11.104 20.082-2.33 1.805-9.014 5.181-23.102 7.575-12.354 2.101-23.619 2.293-23.714 2.295-9.967.131-17.939 8.316-17.808 18.282.13 9.886 8.184 17.81 18.04 17.81.081 0 .162-.001.242-.002.607-.008 15.062-.229 30.968-3.096 25.65-4.623 41.461-13.529 48.341-27.24 9.521-19.007-2.812-38.232-13.692-55.194-4.189-6.532-11.061-17.243-11.675-21.82 1.856-2.092 8.876-7.038 25.878-11.828 7.536-2.123 14.778-3.584 19.772-4.47 12.552 10.318 26.231 19.143 40.776 26.288 6.866 10.514 19.637 35.863 13.319 54.189-2.637 7.648-8.983 11.054-20.911 16.897-15.155 7.425-35.912 17.594-42.945 45.727-2.418 9.669 3.462 19.468 13.131 21.885 1.47.367 2.941.543 4.391.543 8.086 0 15.444-5.474 17.494-13.674 2.832-11.328 10.111-15.357 23.81-22.067 14.05-6.884 31.536-15.45 39.154-37.547 5.851-16.973 4.017-34.452-.348-49.398 15.147 3.391 30.791 5.167 46.696 5.167 16.595 0 32.903-1.94 48.663-5.627-4.461 15.047-6.393 32.713-.481 49.859 7.618 22.096 25.107 30.662 39.16 37.545 13.698 6.709 20.978 10.738 23.803 22.061 2.047 8.204 9.406 13.682 17.496 13.682 1.446 0 2.916-.175 4.383-.541 9.671-2.413 15.554-12.209 13.141-21.879-7.021-28.141-27.785-38.311-42.945-45.736-11.93-5.843-18.277-9.249-20.914-16.896-6.629-19.228 7.752-46.177 14.282-55.62 13.556-6.913 26.342-15.28 38.123-24.982 4.898.851 12.278 2.308 20.09 4.488 17.288 4.826 24.402 9.831 26.269 11.939-.611 4.574-7.485 15.289-11.678 21.822-10.881 16.959-23.215 36.182-13.688 55.199 6.874 13.699 22.685 22.605 48.335 27.229 15.906 2.867 30.361 3.088 30.969 3.096.081.001.161.002.242.002 9.855-.001 17.91-7.925 18.04-17.81.132-9.966-7.841-18.151-17.808-18.282-.108-.002-11.172-.199-23.308-2.226-14.357-2.397-21.151-5.817-23.508-7.643 1.192-4.627 7.309-14.159 11.104-20.074 10.896-16.982 23.245-36.23 14.587-55.638-6.233-13.947-22.068-24.405-48.412-31.972-.439-.126-.877-.249-1.314-.372 3.67-4.554 7.18-9.267 10.487-14.161l6.83-10.106-5.968-8.828 9.555.901-.019.183c.008-.066.809-6.661 4.56-12.688 4.096-6.581 9.784-9.552 18.459-9.634.063-.001.125-.001.187-.001 19.598 0 24.769 31.861 24.807 32.104 1.308 8.981 9.02 15.449 17.836 15.448.865 0 1.742-.063 2.623-.19 9.864-1.433 16.695-10.592 15.258-20.456zm-171.309-154.885c7.532.008 13.659 6.143 13.659 13.693 0 7.53-6.134 13.657-13.674 13.658-3.643-.008-7.064-1.434-9.638-4.015-2.567-2.575-3.978-5.993-3.97-9.679.001-7.53 6.12-13.657 13.623-13.657zm-215.768 13.676c0-7.533 6.128-13.668 13.642-13.676 7.541 0 13.676 6.127 13.676 13.676 0 7.527-6.118 13.659-13.643 13.676-7.541-.002-13.675-6.129-13.675-13.676zm-20.02 144.363c33.309-42.587 83.969-67.664 137.854-67.664 53.865 0 104.527 25.08 137.85 67.664-32.936 41.895-83.581 66.559-137.85 66.559-54.284-.001-104.933-24.667-137.854-66.559z" fill="param(fill)" fill-opacity="param(fill-opacity)" stroke="param(outline)" stroke-opacity="param(outline-opacity)" stroke-width="param(outline-width)"/>
</svg>
