<?xml version="1.0" encoding="UTF-8"?>
<svg width="580" height="580" enable-background="new 0 0 579.997 579.997" viewBox="0 0 580 580" xmlns="http://www.w3.org/2000/svg">
 <path d="m504.77 154.19 7.089-34.708-222.61-94.895-222.61 94.895 7.089 34.708zm-215.52-90.298 127.01 54.143h-254.03z" fill="param(fill)" fill-opacity="param(fill-opacity)" stroke="param(outline)" stroke-opacity="param(outline-opacity)" stroke-width="param(outline-width)"/>
 <path d="m107.28 347.36h363.94v30.932h-363.94z" fill="param(fill)" fill-opacity="param(fill-opacity)" stroke="param(outline)" stroke-opacity="param(outline-opacity)" stroke-width="param(outline-width)"/>
 <path d="m83.663 403.08h411.19v36.439h-411.19z" fill="param(fill)" fill-opacity="param(fill-opacity)" stroke="param(outline)" stroke-opacity="param(outline-opacity)" stroke-width="param(outline-width)"/>
 <path d="m53.033 466.78h472.43v39.971h-472.43z" fill="param(fill)" fill-opacity="param(fill-opacity)" stroke="param(outline)" stroke-opacity="param(outline-opacity)" stroke-width="param(outline-width)"/>
 <path d="m139.49 164.47s-12.446 61.119-12.446 170.01h52.469c0-108.89-13.488-170.01-13.488-170.01z" fill="param(fill)" fill-opacity="param(fill-opacity)" stroke="param(outline)" stroke-opacity="param(outline-opacity)" stroke-width="param(outline-width)"/>
 <path d="m230.23 164.47s-12.446 61.119-12.446 170.01h52.469c0-108.89-13.487-170.01-13.487-170.01z" fill="param(fill)" fill-opacity="param(fill-opacity)" stroke="param(outline)" stroke-opacity="param(outline-opacity)" stroke-width="param(outline-width)"/>
 <path d="m320.96 164.47s-12.429 61.119-12.429 170.01h52.469c0-108.89-13.487-170.01-13.487-170.01z" fill="param(fill)" fill-opacity="param(fill-opacity)" stroke="param(outline)" stroke-opacity="param(outline-opacity)" stroke-width="param(outline-width)"/>
 <path d="m411.7 164.47s-12.429 61.119-12.429 170.01h52.469c0-108.89-13.487-170.01-13.487-170.01z" fill="param(fill)" fill-opacity="param(fill-opacity)" stroke="param(outline)" stroke-opacity="param(outline-opacity)" stroke-width="param(outline-width)"/>
</svg>
