<?xml version="1.0" encoding="UTF-8" standalone="no"?>
<!-- Created with Inkscape (http://www.inkscape.org/) -->
<svg
   xmlns:dc="http://purl.org/dc/elements/1.1/"
   xmlns:cc="http://web.resource.org/cc/"
   xmlns:rdf="http://www.w3.org/1999/02/22-rdf-syntax-ns#"
   xmlns:svg="http://www.w3.org/2000/svg"
   xmlns="http://www.w3.org/2000/svg"
   xmlns:sodipodi="http://sodipodi.sourceforge.net/DTD/sodipodi-0.dtd"
   xmlns:inkscape="http://www.inkscape.org/namespaces/inkscape"
   width="744.09448819"
   height="1052.3622047"
   id="svg2"
   sodipodi:version="0.32"
   inkscape:version="0.44.1"
   sodipodi:docbase="F:\QGIS_N_ARROWS\NORD_EST"
   sodipodi:docname="FINALE1.svg"
   inkscape:export-filename="F:\QGIS_N_ARROWS\NORD_EST\FINALE.png"
   inkscape:export-xdpi="300"
   inkscape:export-ydpi="300">
  <defs
     id="defs4" />
  <sodipodi:namedview
     id="base"
     pagecolor="#ffffff"
     bordercolor="#666666"
     borderopacity="1.0"
     inkscape:pageopacity="0.0"
     inkscape:pageshadow="2"
     inkscape:zoom="0.7"
     inkscape:cx="243.96161"
     inkscape:cy="609.75044"
     inkscape:document-units="px"
     inkscape:current-layer="layer1"
     showgrid="true"
     inkscape:window-width="1280"
     inkscape:window-height="744"
     inkscape:window-x="-4"
     inkscape:window-y="-4" />
  <metadata
     id="metadata7">
    <rdf:RDF>
      <cc:Work
         rdf:about="">
        <dc:format>image/svg+xml</dc:format>
        <dc:type
           rdf:resource="http://purl.org/dc/dcmitype/StillImage" />
      </cc:Work>
    </rdf:RDF>
  </metadata>
  <g
     inkscape:label="Livello 1"
     inkscape:groupmode="layer"
     id="layer1">
    <rect
       style="fill:white;fill-opacity:1;stroke:black;stroke-width:3.33699989;stroke-miterlimit:4;stroke-dasharray:none;stroke-opacity:1"
       id="rect1904"
       width="2.1465743"
       height="0"
       x="-672.29156"
       y="401.89316" />
    <g
       id="g4840"
       inkscape:export-filename="F:\QGIS_N_ARROWS\NORD_EST\FINALE1.png"
       inkscape:export-xdpi="300"
       inkscape:export-ydpi="300">
      <path
         id="path3529"
         d="M 177.91726,479.62195 L 273.16028,236.95149 L 367.21291,479.62195 L 271.96965,722.29239 L 177.91726,479.62195 z "
         style="fill:none;fill-rule:evenodd;stroke:black;stroke-width:21.39176559px;stroke-linecap:butt;stroke-linejoin:miter;stroke-opacity:1" />
      <path
         transform="matrix(1.392512,0,0,1.788155,-328.1151,-313.3048)"
         d="M 495 441.29074 A 62.5 32.5 0 1 1  370,441.29074 A 62.5 32.5 0 1 1  495 441.29074 z"
         sodipodi:ry="32.5"
         sodipodi:rx="62.5"
         sodipodi:cy="441.29074"
         sodipodi:cx="432.5"
         id="path3531"
         style="fill:none;fill-opacity:1;stroke:black;stroke-width:5.22312641;stroke-linejoin:bevel;stroke-miterlimit:4;stroke-dasharray:none;stroke-opacity:1"
         sodipodi:type="arc" />
      <path
         sodipodi:nodetypes="cccc"
         id="path4418"
         d="M 265.57607,548.15921 L 269.27997,682.97184 L 227.60822,540.9371 C 239.89966,542.63637 236.74992,545.93153 265.57607,548.15921 z "
         style="fill:none;fill-rule:evenodd;stroke:black;stroke-width:1.96700001;stroke-linecap:butt;stroke-linejoin:miter;stroke-miterlimit:4;stroke-dasharray:none;stroke-opacity:1" />
      <path
         sodipodi:nodetypes="cccc"
         id="path5305"
         d="M 277.70574,407.40837 L 273.35686,268.96422 L 316.01565,415.11196 C 303.72421,413.41269 306.53189,409.63605 277.70574,407.40837 z "
         style="fill:none;fill-rule:evenodd;stroke:black;stroke-width:2.06699991;stroke-linecap:butt;stroke-linejoin:miter;stroke-miterlimit:4;stroke-dasharray:none;stroke-opacity:1" />
      <path
         d="M 212.36406,446.64598 C 212.67435,446.09349 212.97114,446.08438 213.68449,445.682 C 214.0297,445.55048 214.34285,445.63393 214.68796,445.69122 C 215.06813,445.81617 215.38576,446.04908 215.7151,446.2623 C 216.02197,446.53429 216.39016,446.55598 216.77225,446.62444 C 217.19077,446.5513 217.53835,446.73537 217.90038,446.8333 C 218.09154,447.03195 218.21488,447.27738 218.36788,447.49818 C 218.47446,447.8185 218.74906,447.76056 218.99062,447.8736 C 219.35234,447.8858 219.67801,448.03062 220.00884,448.15485 C 220.30413,448.24782 220.5221,448.44585 220.7651,448.62368 C 221.08348,448.84443 221.31241,448.68426 221.6233,448.64743 C 221.57095,448.58977 220.70446,449.31485 221.65228,448.44327 C 222.21969,447.93197 222.88144,447.69238 223.58449,447.49662 C 223.60583,447.48568 223.53618,447.50358 223.51477,447.51439 C 224.87925,446.66557 224.40076,446.78091 224.90487,447.39838 C 225.03897,447.68405 225.03865,447.99754 225.08107,448.30233 C 225.11227,448.65834 225.09154,449.01481 225.08073,449.36994 C 225.00569,449.72343 224.98161,450.08329 224.9409,450.44106 C 224.90472,450.78765 224.93099,451.13618 224.93647,451.48159 C 225.06321,451.79556 225.29089,451.74414 225.57429,451.82046 C 225.92341,451.84358 226.27357,451.83498 226.62318,451.83343 C 226.98206,451.83022 227.34095,451.82958 227.69985,451.82853 C 228.308,451.9179 229.18454,451.37895 227.74828,452.17764 C 228.05682,451.9694 228.17072,451.64583 228.32358,451.32894 C 228.4314,450.98533 228.42724,450.62573 228.44344,450.27035 C 228.41737,449.92393 228.46655,449.58137 228.48834,449.23907 C 228.55741,448.87058 228.84807,448.71268 229.09342,448.47631 C 229.44677,448.29371 229.70687,448.00249 229.98369,447.7275 C 230.42603,447.1476 231.21738,447.12155 231.77121,446.89683 C 232.04021,446.95967 232.24966,447.13823 232.48273,447.2659 C 232.56652,447.55367 232.84361,447.63839 233.01815,447.80966 C 233.48324,447.90455 233.8677,448.17012 234.25763,448.4248 C 234.73281,448.68341 234.88158,449.09369 235.09731,449.5525 C 235.31381,450.02547 235.35884,450.5361 235.42784,451.04286 C 235.36926,451.55768 235.54783,451.77807 235.82587,452.13755 C 236.26906,452.33806 236.76326,452.34815 237.2401,452.39617 C 237.79599,452.41092 238.06022,452.7181 238.4343,453.05928 C 238.6048,453.42543 238.80284,453.79148 238.97327,454.14805 C 239.10814,454.15407 238.84241,454.40719 238.71997,454.46405 C 239.10164,453.89578 239.83211,453.74666 240.39867,453.46995 C 241.25172,452.98571 239.3643,454.27521 240.50085,453.29835 C 241.05741,452.75328 241.76086,452.43833 242.49184,452.22867 C 242.9346,452.07496 243.12843,452.31611 243.46461,452.47536 C 243.71612,452.81336 243.57435,453.08912 243.54895,453.44946 C 243.42096,453.7459 243.25176,454.02473 243.08882,454.30218 C 243.03298,454.58435 242.86897,454.81375 242.73882,455.06026 C 242.15956,455.69634 241.66006,455.74195 240.95989,455.83703 C 240.56737,455.85133 240.17452,455.84652 239.78184,455.84561 C 239.41928,455.84372 239.05671,455.84331 238.69415,455.84268 C 238.33722,455.84232 237.98029,455.84241 237.62336,455.84236 C 237.264,455.79951 236.92566,455.91304 236.58255,455.98421 C 236.28411,456.052 236.01523,456.18881 235.73401,456.29922 C 237.14886,455.29241 236.16796,456.22062 235.88294,456.64029 C 235.67921,456.88975 235.55091,457.18364 235.40151,457.46551 C 235.25272,457.74205 235.03306,457.9644 234.83213,458.2011 C 234.57446,458.47983 234.51885,458.82548 234.42905,459.17592 C 234.42332,459.51387 234.16109,459.65872 233.99279,459.89162 C 233.20317,460.47194 232.00858,461.0807 233.35299,460.3271 C 233.13443,460.45757 232.96001,460.64367 232.76743,460.80631 C 232.23649,461.31571 231.67897,461.45168 231.03354,461.57787 C 230.9524,461.52409 231.22981,461.59588 231.32556,461.57838 C 231.17235,461.80419 231.24514,462.09185 231.22931,462.31177 C 231.47368,462.37828 231.73715,462.38036 231.9893,462.40021 C 232.4158,462.49731 232.47499,462.80737 232.6816,463.11524 C 232.78169,463.46267 232.77125,463.82464 232.78193,464.18205 C 232.80231,464.6226 232.72799,465.05738 232.67128,465.49257 C 232.69912,465.91179 232.47338,466.20995 232.30616,466.55659 C 232.07598,466.86335 231.83499,467.16112 231.59306,467.4584 C 231.39717,467.73436 231.18452,467.99754 230.97912,468.26595 C 230.69595,468.46383 230.6444,468.75966 230.51416,469.04516 C 230.42012,469.41657 230.48554,469.78112 230.52637,470.15287 C 230.52259,470.50777 230.70764,470.78284 230.84491,471.08866 C 230.97522,471.42804 231.25224,471.65044 231.4814,471.91054 C 231.75575,472.13393 232.06522,472.31236 232.36103,472.50517 C 232.67163,472.76353 232.65708,473.10364 232.74149,473.45255 C 232.5974,474.35697 231.57158,474.00397 231.05378,474.15537 C 230.70584,474.1502 230.44047,473.95383 230.14457,473.80979 C 229.90029,473.59676 229.67864,473.35978 229.44785,473.13286 C 229.23139,472.92197 229.06004,472.66683 228.87511,472.42755 C 228.73406,472.1943 228.58064,471.96873 228.42997,471.74249 C 228.36329,471.48624 228.11801,471.38936 227.96842,471.23475 C 227.73893,471.15354 227.53236,471.02236 227.31549,470.91902 C 227.08445,470.73204 226.79959,470.73812 226.52558,470.68329 C 226.22972,470.73855 225.93058,470.77049 225.63281,470.81194 C 225.73351,470.61537 224.81576,471.14391 225.01079,471.04025 C 225.26975,470.89842 225.52872,470.7566 225.78768,470.61477 C 225.7471,470.64934 225.70653,470.68391 225.66595,470.71848 C 225.13733,471.1999 223.00019,472.28357 224.85274,471.25016 C 224.35558,471.69111 223.70882,471.91636 223.13796,472.20655 C 222.80934,472.30241 222.48073,472.39645 222.15087,472.48507 C 222.26256,472.326 221.44775,472.81513 221.61702,472.71959 C 221.87224,472.57519 222.12747,472.43079 222.3827,472.28639 C 222.33332,472.31706 222.28393,472.34773 222.23455,472.37841 C 221.93208,472.60939 221.67871,472.8933 221.41555,473.16566 C 220.95069,473.73926 220.18058,473.79059 219.58146,474.04684 C 219.25245,473.99663 218.94959,473.81208 218.65273,473.6617 C 218.7212,473.4681 217.86259,473.83943 218.04154,473.73873 C 218.30259,473.59491 218.56363,473.45109 218.82467,473.30727 C 218.78391,473.3386 218.74315,473.36993 218.70239,473.40126 C 218.43843,473.60902 218.39655,473.91722 218.28716,474.2132 C 218.19791,474.57768 218.13697,474.94846 218.06229,475.31639 C 217.97407,475.77768 217.97429,476.24762 217.95692,476.71488 C 217.91749,477.10455 217.9746,477.48992 218.00008,477.87461 C 218.08349,478.19149 218.08979,478.51852 218.12048,478.84212 C 218.13614,479.19496 218.13237,479.5482 218.13438,479.90127 C 218.13412,480.25869 218.13372,480.61612 218.13338,480.97355 C 218.11729,481.33905 218.2282,481.6891 218.30622,482.04091 C 218.43604,482.41813 218.66378,482.39449 218.97786,482.52125 C 219.04972,482.51624 218.95283,482.68667 218.88783,482.71769 C 219.15073,482.49985 219.25307,482.17755 219.39956,481.88188 C 219.53269,481.55052 219.63034,481.20239 219.73011,480.86199 C 220.75111,479.98524 220.67055,479.99238 221.22844,480.56692 C 221.35324,480.9763 221.33457,481.40641 221.34824,481.82904 C 221.35217,482.25351 221.34995,482.67801 221.34896,483.1025 C 221.30789,483.49425 221.46163,483.81946 221.59729,484.17098 C 221.71489,484.528 221.97838,484.61135 222.24083,484.79759 C 222.57617,484.7774 222.83348,484.94896 223.12048,485.04923 C 223.40648,485.32972 223.41049,485.67692 223.47073,486.04759 C 223.49972,486.43605 223.49373,486.8258 223.49446,487.21499 C 223.43033,487.54432 223.55783,487.81661 223.64,488.11703 C 223.78843,488.39929 223.78674,488.71429 223.8321,489.02002 C 223.79302,489.39252 223.8922,489.7481 223.94424,490.10624 C 224.04966,490.44296 224.32866,490.58409 224.55842,490.79862 C 224.8362,490.85982 225.12455,490.80801 225.40559,490.78865 C 225.77617,490.76214 226.1477,490.7637 226.51892,490.75937 C 227.07006,490.74216 227.61653,490.7616 228.16469,490.8139 C 228.57517,490.81212 228.91691,491.00437 229.2831,491.15113 C 229.65635,491.29308 229.97999,491.51445 230.3142,491.72335 C 230.67751,492.00687 231.00903,492.32966 231.3456,492.64197 C 231.6994,492.81315 232.07482,492.74337 232.44872,492.72457 C 232.82351,492.63473 233.2058,492.60186 233.58765,492.56273 C 234.251,492.48267 234.87608,492.61179 235.51509,492.76843 C 236.1566,492.8786 236.57065,493.24375 236.99936,493.69447 C 237.37655,494.11897 237.50202,494.62511 237.63072,495.15968 C 237.79964,496.02494 237.85531,496.90476 237.91381,497.78247 C 237.917,498.34676 237.96863,498.90355 238.03329,499.46287 C 238.05355,499.93678 238.24662,500.36551 238.40473,500.8036 C 238.56903,501.19592 238.60324,501.6139 238.65358,502.02977 C 238.67698,502.39944 238.67114,502.76999 238.67124,503.14013 C 238.66805,503.58573 238.66823,504.03133 238.66805,504.47692 C 238.66783,504.94466 238.66681,505.4124 238.66585,505.88013 C 238.71933,506.3844 238.62857,506.8609 238.54174,507.35007 C 238.44209,507.68751 238.22661,507.96039 238.03795,508.24976 C 237.87321,508.54432 237.78148,508.87182 237.66715,509.18749 C 237.56882,509.49395 237.42194,509.77898 237.29151,510.07121 C 237.16579,510.36248 236.97324,510.61794 236.79788,510.88066 C 236.60613,511.1702 236.46947,511.49066 236.3202,511.80278 C 236.23345,512.1332 236.12683,512.45646 236.02005,512.7809 C 235.90406,513.15163 235.59623,513.32617 235.32871,513.56889 C 235.03467,513.71581 234.85999,513.97896 234.64378,514.20315 C 234.55903,514.56284 234.32649,514.83508 234.1504,515.13507 C 231.41905,516.74465 234.31981,514.97596 233.44181,515.72504 C 233.30693,516.0368 233.32213,516.37555 233.30606,516.70739 C 233.30143,517.15368 233.30572,517.59999 233.30818,518.04629 C 233.40526,518.42707 233.22238,518.65658 233.09731,518.95528 C 232.03371,519.60626 232.14742,519.57359 231.46729,519.05443 C 231.20417,518.8387 230.95324,518.60874 230.70141,518.38196 C 230.38556,518.18215 230.37316,517.88099 230.25953,517.56945 C 230.21223,517.22196 230.22588,516.87074 230.22149,516.52122 C 230.17905,516.08631 230.37531,515.74679 230.55377,515.3731 C 230.78498,515.07236 230.81736,514.7126 230.90914,514.36337 C 230.95107,514.01179 230.94031,513.65738 230.94509,513.30423 C 230.94388,512.94701 230.94278,512.5898 230.94178,512.23259 C 230.94056,511.85825 230.94149,511.48392 230.94205,511.10958 C 230.95286,510.71512 230.93592,510.32077 230.92275,509.92766 C 230.8397,509.57883 230.70808,509.24535 230.59416,508.9069 C 230.52411,508.60145 230.25148,508.54328 230.05524,508.3688 C 229.84011,508.20903 229.58611,508.13028 229.35114,508.00994 C 229.09548,507.85711 228.91017,507.61925 228.70408,507.40995 C 228.49743,507.24078 228.35748,507.01641 228.18938,506.81472 C 228.05178,506.65481 227.93023,506.48986 227.80175,506.3288 C 227.68007,506.05191 227.49854,505.81182 227.33502,505.5615 C 227.14695,505.22978 226.83887,505.03349 226.55687,504.79721 C 226.27976,504.61714 225.96009,504.63567 225.64799,504.59502 C 225.29754,504.65429 224.94559,504.69741 224.59288,504.73947 C 224.23519,504.76996 224.09563,504.56559 223.84641,504.37951 C 223.65073,504.20817 223.52081,503.98507 223.36365,503.78289 C 223.22586,503.53655 223.07629,503.29759 222.92577,503.05889 C 222.85454,502.74705 222.68155,502.48842 222.53668,502.21166 C 222.31671,501.94064 222.04365,501.71907 221.78411,501.48753 C 221.48318,501.19339 221.39172,500.80005 221.25527,500.41978 C 221.16025,500.02548 221.13758,499.61882 221.10262,499.21647 C 221.03755,498.76678 220.96455,498.31943 220.88491,497.87201 C 220.80067,497.3303 220.78689,496.78217 220.77076,496.23537 C 220.76123,495.79728 220.76212,495.35909 220.76136,494.92093 C 220.73287,494.5301 220.86046,494.16685 220.95699,493.79765 C 221.13508,493.42987 221.35379,493.08346 221.56006,492.7311 C 221.75584,492.46898 221.87269,492.16696 222.00995,491.87359 C 222.16849,491.60436 222.11911,491.31721 222.1351,491.03014 C 222.07547,490.75689 221.97421,490.49089 221.88307,490.2254 C 221.76824,489.95909 221.56688,489.75594 221.38662,489.53581 C 221.15703,489.38069 221.04609,489.12924 220.88615,488.92363 C 220.72929,488.39615 220.9566,487.98746 221.17037,487.513 C 221.55868,487.18062 221.37576,486.74267 221.406,486.44782 C 221.11443,486.33986 220.79956,486.37513 220.49498,486.36525 C 220.13414,486.36988 219.77329,486.37294 219.41244,486.37598 C 219.03881,486.42722 218.78631,486.21971 218.47828,486.06633 C 218.20368,485.89014 218.01327,485.62503 217.79472,485.39007 C 217.54578,485.13556 217.30184,484.87419 217.05751,484.61742 C 217.00327,484.27899 216.6637,484.36294 216.52357,484.27239 C 216.29363,484.31832 216.16866,484.07348 216.00362,483.98099 C 215.88825,483.72259 215.7234,483.49336 215.57834,483.25258 C 215.40145,483.03811 215.1886,482.84628 214.98194,482.65933 C 214.75835,482.4097 214.61298,482.10892 214.43852,481.82745 C 214.24567,481.47066 214.22708,481.07008 214.1761,480.67775 C 214.14948,480.30412 214.15383,479.9294 214.15228,479.55513 C 214.19532,479.19908 214.09369,478.86066 214.0327,478.51714 C 213.87292,478.20755 213.61684,478.24781 213.32345,478.17141 C 212.96393,478.20493 212.80417,477.99058 212.55278,477.81102 C 212.36,477.60034 212.27405,477.32417 212.16181,477.06783 C 211.90168,476.86797 211.84714,476.57675 211.72113,476.30259 C 211.6477,475.96332 211.66286,475.61543 211.65154,475.27108 C 211.68274,474.94475 211.60386,474.63192 211.54987,474.31359 C 211.49437,473.93007 211.49232,473.54227 211.48,473.15586 C 211.47619,472.73973 211.47673,472.32358 211.47641,471.90743 C 211.51977,471.58139 211.28927,471.39371 211.16805,471.14144 C 210.92785,470.93606 210.66463,470.76451 210.41233,470.57628 C 210.13282,470.42129 209.91018,470.19077 209.67357,469.98179 C 209.44943,469.76725 209.23266,469.54549 209.0104,469.32895 C 208.78428,469.11244 208.71241,468.81235 208.60006,468.53152 C 208.52582,468.36341 208.48674,468.03247 208.46258,467.92607 C 211.26486,465.5936 208.71895,467.90671 209.62815,467.83804 C 209.71629,468.16491 209.72806,468.50627 209.75583,468.84198 C 209.83115,469.24367 209.86236,469.65019 209.89829,470.0564 C 209.91948,470.4217 209.91762,470.78769 209.92007,471.15343 C 209.97617,471.45857 210.016,471.76645 210.06348,472.07288 C 210.09583,472.43216 210.09373,472.79317 210.09847,473.15352 C 209.98323,474.27889 208.95967,473.45513 208.6912,473.48384 C 208.46144,473.22795 208.30136,472.92747 208.12242,472.63706 C 207.99616,472.34832 207.85027,472.07021 207.71189,471.78763 C 207.52216,471.47753 207.4777,471.13045 207.40902,470.78379 C 207.35746,470.38002 207.37782,469.974 207.38593,469.56996 C 207.45457,469.20849 207.48901,468.8434 207.52569,468.47801 C 207.50942,468.10859 207.57966,467.75581 207.64524,467.39701 C 207.78216,467.11208 207.59175,466.96444 207.51503,466.72391 C 207.37318,466.47577 207.17983,466.26395 207.00356,466.04029 C 206.80166,465.83337 206.59813,465.62867 206.39198,465.42624 C 206.23902,465.20674 206.07433,464.99695 205.91271,464.78371 C 205.71406,464.48924 205.55615,464.17114 205.3882,463.85899 C 205.16698,463.49966 205.13588,463.09758 205.07443,462.69336 C 205.04137,462.29716 205.04707,461.89942 205.04544,461.5023 C 205.02742,460.89452 205.0755,460.29104 205.13074,459.68662 C 205.18401,459.22891 205.20095,458.76884 205.22068,458.30897 C 205.162,457.89285 205.29652,457.55259 205.42205,457.17372 C 205.58306,456.83539 205.88433,456.63511 206.15693,456.39856 C 206.40401,456.13296 206.67043,455.89191 206.94277,455.65203 C 207.20463,455.46282 207.39621,455.20685 207.61085,454.97315 C 207.80488,454.74085 207.8471,454.44427 207.93299,454.16373 C 208.03932,453.8194 208.1212,453.47081 208.2012,453.12015 C 208.19576,452.79068 208.36258,452.52789 208.48224,452.23959 C 208.7174,451.94985 208.90203,451.63157 209.08894,451.31046 C 209.29492,451.02069 209.43183,450.69538 209.59379,450.38489 C 209.69346,450.05634 209.67643,449.71264 209.69421,449.37451 C 209.77965,449.04294 209.6296,448.7707 209.55563,448.49074 C 209.07832,448.4729 208.22401,449.05033 209.72302,448.21073 C 209.22238,448.64947 208.50639,448.8482 207.97663,449.08391 C 207.65445,449.02376 207.5072,448.76191 207.30187,448.53507 C 207.14613,448.29764 206.89867,448.16601 206.69181,447.98565 C 206.45196,447.87475 206.16498,447.85992 205.90995,447.83603 C 205.61779,447.67521 205.94604,447.41128 205.95996,447.24739 C 206.32257,446.7144 207.02043,446.58583 207.55226,446.32707 C 207.88228,446.242 208.19168,446.3371 208.51497,446.377 C 208.79414,446.32876 209.08216,446.25291 209.36064,446.18083 C 209.74294,446.14145 210.12851,446.11604 210.51001,446.0868 C 210.87631,445.97299 211.2542,445.99003 211.62932,445.97837 C 212.03066,446.09722 212.43542,446.15796 212.84697,446.21416 C 213.25455,446.35493 213.15267,446.55245 213.23576,446.88119 L 212.27963,447.34079 C 212.21811,447.23374 212.37378,446.74821 211.98355,446.8256 C 211.57695,446.76109 211.17615,446.68675 210.7742,446.59418 C 210.40164,446.61698 210.02804,446.62154 209.66317,446.72097 C 209.28095,446.74457 208.8961,446.7596 208.51678,446.81758 C 208.23247,446.89371 207.94107,447.00308 207.64579,446.98281 C 207.33106,446.95452 207.02573,446.87073 206.70787,446.96663 C 206.77858,446.9129 206.99755,446.76595 206.93729,446.83119 C 206.89749,446.9429 206.62336,447.11275 206.79127,447.24101 C 207.06457,447.26779 207.34673,447.25301 207.58638,447.41531 C 207.80617,447.59702 208.04315,447.75277 208.21081,447.99095 C 208.40548,448.19858 208.52935,448.43534 208.83746,448.46483 C 208.79432,448.50024 208.69259,448.63271 208.73681,448.59864 C 209.54213,448.12236 209.72222,447.8156 210.46561,447.94447 C 210.55498,448.25394 210.73142,448.52983 210.63709,448.89575 C 210.62252,449.24269 210.6385,449.59405 210.55128,449.93388 C 210.39728,450.25507 210.28216,450.59173 210.05175,450.8761 C 209.872,451.2019 209.70131,451.52963 209.45084,451.80955 C 209.32152,452.0864 209.14329,452.33056 209.15096,452.65599 C 209.07584,453.01102 208.99846,453.36279 208.88857,453.7093 C 208.80795,453.99881 208.76033,454.3054 208.58596,454.55628 C 208.37254,454.79707 208.19285,455.06595 207.91975,455.25162 C 207.64485,455.48787 207.37228,455.72304 207.1392,456.00109 C 206.86437,456.22572 206.5613,456.42453 206.38475,456.74297 C 206.23945,457.10698 206.10277,457.41948 206.16312,457.83225 C 206.14276,458.29574 206.12556,458.75949 206.06823,459.22048 C 206.00973,459.82069 205.95727,460.41934 205.98565,461.02334 C 205.98703,461.41749 205.98196,461.81214 206.00971,462.20561 C 206.06549,462.59687 206.09087,462.98547 206.30425,463.33355 C 206.4706,463.6405 206.62624,463.95381 206.82421,464.24237 C 206.98348,464.45238 207.14671,464.65859 207.29792,464.8745 C 207.50545,465.07957 207.71263,465.28478 207.91313,465.49692 C 208.09144,465.723 208.2866,465.93749 208.43081,466.18806 C 208.52191,466.45457 208.73342,466.62662 208.6,466.94408 C 208.54227,467.29572 208.43522,467.63899 208.47105,468.00467 C 208.43695,468.37164 208.4083,468.73892 208.3322,469.10067 C 208.31895,469.49684 208.29283,469.89579 208.34393,470.2929 C 208.4193,470.62597 208.43864,470.97049 208.63479,471.26751 C 208.77122,471.54698 208.91538,471.82208 209.03998,472.10755 C 209.2126,472.38923 209.36399,472.68299 209.59179,472.92696 C 209.43924,473.15826 209.37505,473.80394 209.15573,473.63462 C 209.15216,473.27737 209.15611,472.91949 209.12524,472.56313 C 209.07841,472.25297 209.04215,471.94125 208.97812,471.6336 C 208.97635,471.26962 208.9785,470.90542 208.96014,470.54176 C 208.92711,470.1375 208.90035,469.73262 208.82159,469.33357 C 208.7924,469.00598 208.77612,468.67287 208.69971,468.35179 C 209.26506,467.5293 205.96846,468.79074 209.37603,467.36787 C 209.42504,467.57914 209.45642,467.8056 209.52633,468.01576 C 209.63141,468.28338 209.69768,468.56849 209.91252,468.7739 C 210.13478,468.99151 210.35314,469.21263 210.57632,469.42921 C 210.81117,469.63227 211.03317,469.85403 211.30655,470.00821 C 211.56431,470.20125 211.83427,470.37771 212.07536,470.593 C 212.23308,470.86542 212.43373,471.07912 212.41726,471.42816 C 212.41665,471.84364 212.41431,472.25916 212.42027,472.67462 C 212.4309,473.05577 212.43082,473.43838 212.48532,473.81671 C 212.54217,474.14007 212.62341,474.45882 212.59336,474.79037 C 212.60268,475.12672 212.58799,475.46611 212.65271,475.79842 C 212.77362,476.06618 212.82952,476.34184 213.08025,476.53996 C 213.1902,476.79013 213.27697,477.05928 213.46332,477.26557 C 213.70083,477.38601 213.86013,477.62286 214.18742,477.55981 C 214.51347,477.67061 214.79151,477.64781 214.96119,478.00897 C 215.02808,478.3615 215.13738,478.70887 215.09424,479.07531 C 215.09489,479.44716 215.09019,479.81937 215.11284,480.19076 C 215.1583,480.56955 215.17073,480.95634 215.35655,481.30094 C 215.5268,481.57567 215.66792,481.87019 215.88898,482.11165 C 216.09777,482.29945 216.31764,482.48661 216.48877,482.70996 C 216.63193,482.94671 216.79671,483.17157 216.90968,483.42557 C 217.05577,483.49183 217.17351,483.71806 217.37614,483.63716 C 217.57494,483.76678 217.86564,483.75724 217.96817,484.07652 C 218.21122,484.33145 218.45485,484.59015 218.7006,484.84443 C 218.91375,485.07079 219.09977,485.32747 219.36972,485.49288 C 219.6687,485.62876 219.91002,485.81387 220.26731,485.75398 C 220.62836,485.75068 220.98941,485.74681 221.35046,485.74382 C 221.67687,485.76253 222.01435,485.71726 222.30936,485.88909 C 222.37094,486.32283 222.51881,486.61933 222.12181,487.08344 C 221.91204,487.52697 221.68646,487.90185 221.8095,488.40145 C 221.96462,488.59751 222.07905,488.83644 222.29564,488.9892 C 222.48217,489.2206 222.69071,489.43456 222.80987,489.71302 C 222.90393,489.98445 223.00777,490.25634 223.07269,490.53503 C 223.06638,490.84013 223.13004,491.14129 222.97406,491.43301 C 222.84008,491.73066 222.72656,492.03932 222.52369,492.29979 C 222.32117,492.65122 222.11126,492.99809 221.91289,493.35204 C 221.81205,493.70942 221.67814,494.06032 221.70258,494.44153 C 221.70158,494.87986 221.69892,495.31823 221.70539,495.75654 C 221.71993,496.29854 221.73073,496.84207 221.81375,497.37912 C 221.89528,497.82654 221.96914,498.27413 222.03706,498.72369 C 222.07184,499.12167 222.09509,499.52446 222.18149,499.9161 C 222.31032,500.2761 222.39203,500.65176 222.68078,500.92731 C 222.94495,501.16788 223.22748,501.39326 223.4499,501.67497 C 223.59682,501.9551 223.7764,502.21523 223.84473,502.53209 C 223.99335,502.76652 224.14263,503.00041 224.27746,503.24316 C 224.43287,503.44168 224.56196,503.66092 224.75452,503.82986 C 224.98733,503.9505 225.1144,504.19829 225.44207,504.10968 C 225.7969,504.0634 226.15122,504.00465 226.50784,503.97857 C 226.83447,504.03285 227.16801,504.02185 227.45046,504.22939 C 227.73466,504.47614 228.04828,504.6837 228.24141,505.02115 C 228.41223,505.27759 228.60021,505.52392 228.72898,505.80707 C 228.85079,505.9592 228.98122,506.11272 229.10191,506.27283 C 229.26877,506.47185 229.40971,506.69233 229.61195,506.86186 C 229.80906,507.06045 229.98443,507.29014 230.23576,507.42444 C 230.47612,507.54186 230.72418,507.6375 230.94573,507.79186 C 231.17561,507.97632 231.41896,508.07824 231.51889,508.39129 C 231.6351,508.73871 231.76643,509.08147 231.85863,509.43733 C 231.87485,509.83382 231.8961,510.23205 231.88204,510.63062 C 231.88279,511.00454 231.88358,511.37846 231.88376,511.75238 C 231.8847,512.10964 231.88564,512.46691 231.88716,512.82417 C 231.88551,513.18151 231.89213,513.53971 231.85769,513.89591 C 231.78752,514.26349 231.74095,514.62678 231.51861,514.94443 C 231.33055,515.29983 231.12683,515.61821 231.16368,516.04141 C 231.1669,516.38531 231.15425,516.73055 231.19472,517.07295 C 231.29605,517.36516 231.29882,517.6323 231.59639,517.81744 C 231.85046,518.04676 232.10098,518.28059 232.3676,518.4967 C 232.97139,518.92288 233.22562,518.78806 232.1053,519.33853 C 232.21165,519.0932 232.52482,518.93173 232.36873,518.52544 C 232.3673,518.07871 232.36499,517.63198 232.36456,517.18525 C 232.37619,516.84108 232.3614,516.49115 232.47561,516.16044 C 233.21824,515.60411 234.29481,514.74282 233.16878,515.53243 C 233.36535,515.24659 233.62539,515.01845 233.67656,514.63036 C 233.88658,514.38817 234.02913,514.10276 234.34642,513.96137 C 234.61703,513.73853 234.92338,513.57182 235.06236,513.2279 C 235.16894,512.90246 235.29145,512.5834 235.3586,512.24617 C 235.5059,511.92921 235.64011,511.60346 235.83056,511.30859 C 236.00515,511.04842 236.19352,510.78953 236.32574,510.50621 C 236.46084,510.21782 236.61381,509.93928 236.70637,509.63164 C 236.82287,509.31235 236.92455,508.98493 237.06899,508.67611 C 237.26007,508.39522 237.46556,508.12194 237.59038,507.80307 C 237.6894,507.32135 237.78644,506.85747 237.72967,506.35714 C 237.72879,505.88996 237.72761,505.42279 237.72831,504.95561 C 237.72949,504.51014 237.73075,504.06466 237.73057,503.61919 C 237.73006,503.25157 237.73436,502.88366 237.7158,502.51637 C 237.67127,502.10925 237.64326,501.70007 237.48458,501.31546 C 237.3231,500.87061 237.12451,500.43447 237.10123,499.95348 C 237.03616,499.38957 236.98357,498.82873 236.98997,498.25958 C 236.93874,497.3862 236.8885,496.51024 236.70924,495.65133 C 236.58359,495.13628 236.46167,494.64587 236.09922,494.23614 C 235.66081,493.82765 235.2924,493.44761 234.65524,493.36005 C 234.01835,493.21219 233.39541,493.10016 232.7375,493.1908 C 232.35756,493.23484 231.97811,493.2772 231.60295,493.35573 C 231.20376,493.36285 230.81378,493.42089 230.45238,493.20401 C 230.1187,492.8893 229.79083,492.56352 229.42324,492.28661 C 229.09118,492.08747 228.76788,491.87642 228.40106,491.73809 C 228.04321,491.59886 227.70954,491.41624 227.30929,491.42167 C 226.76228,491.37664 226.21659,491.36162 225.66728,491.37925 C 225.29589,491.38653 224.92412,491.3881 224.55352,491.41699 C 224.25607,491.43088 223.95542,491.49531 223.67099,491.37559 C 223.42857,491.13974 223.13434,490.97235 223.01734,490.61915 C 222.9601,490.2524 222.84948,489.89037 222.89269,489.50726 C 222.85228,489.21317 222.85747,488.91048 222.7163,488.63861 C 222.62649,488.32395 222.48602,488.04041 222.55268,487.69442 C 222.55308,487.30806 222.55974,486.92123 222.53481,486.53538 C 222.48371,486.19489 222.49117,485.87387 222.22644,485.61889 C 221.94632,485.53641 221.66967,485.40657 221.3614,485.38852 C 221.0907,485.17736 220.80039,485.06276 220.67778,484.69012 C 220.53408,484.32644 220.36931,483.98801 220.40761,483.5817 C 220.40987,483.15717 220.41344,482.73263 220.41125,482.3081 C 220.39864,481.89854 220.41621,481.48185 220.30407,481.08337 C 220.32455,481.05227 219.64243,479.88851 220.69633,480.42674 C 220.59146,480.76031 220.46977,481.10336 220.36056,481.4424 C 220.21845,481.74817 220.11001,482.07757 219.87046,482.32391 C 219.31867,482.66171 218.80217,483.26802 218.10931,483.12678 C 217.7813,482.96538 217.50642,482.9597 217.37841,482.5459 C 217.29588,482.18601 217.17913,481.82758 217.19128,481.45349 C 217.1916,481.0961 217.19196,480.73872 217.19231,480.38133 C 217.19065,480.02996 217.19421,479.67844 217.18024,479.32724 C 217.1519,479.00806 217.14796,478.68549 217.06584,478.37298 C 217.0376,477.98068 216.97329,477.5887 217.01816,477.19057 C 217.03419,476.719 217.03148,476.24449 217.11409,475.77821 C 217.18953,475.40754 217.2493,475.03468 217.33102,474.66558 C 217.43171,474.35878 217.48005,474.0314 217.71916,473.79515 C 218.39691,473.37752 218.77925,472.91723 219.53184,473.07373 C 219.8196,473.21624 220.10346,473.40802 220.4302,473.41524 C 220.43356,473.46752 220.42277,473.62144 220.44028,473.57207 C 220.70358,473.29506 220.96526,473.01805 221.24799,472.75975 C 221.81381,472.42604 222.35187,472.02197 222.9877,471.83595 C 223.31851,471.74875 223.64992,471.6621 223.97736,471.56171 C 223.94084,471.5884 223.83229,471.66978 223.86761,471.64153 C 226.85346,469.84955 223.33262,472.04183 224.68472,471.11618 C 225.27043,470.73874 225.77987,470.26919 226.48277,470.18095 C 226.78331,470.13639 227.08575,470.08155 227.38908,470.07078 C 227.67426,470.1399 227.9701,470.14597 228.20933,470.3461 C 228.42317,470.44481 228.63164,470.55965 228.85274,470.64541 C 229.01778,470.82392 229.2671,470.94625 229.34971,471.21364 C 229.49746,471.43602 229.64945,471.65697 229.78679,471.88682 C 229.96913,472.12328 230.13795,472.37461 230.35309,472.58228 C 230.57711,472.80281 230.79059,473.03596 231.03452,473.23516 C 231.32297,473.36707 231.58327,473.54577 231.9182,473.54719 C 231.85695,473.66711 231.91531,473.99695 231.79702,473.93258 C 231.72875,473.61138 231.75867,473.3057 231.46661,473.06845 C 231.16737,472.87927 230.85421,472.7024 230.58496,472.47023 C 230.33762,472.20768 230.07624,471.9604 229.92844,471.61971 C 229.78532,471.30142 229.59041,471.01402 229.59331,470.64478 C 229.54519,470.26298 229.47583,469.8881 229.56049,469.50447 C 229.67784,469.1984 229.70514,468.8861 230.00201,468.67683 C 230.21116,468.41102 230.44048,468.15842 230.61936,467.86829 C 230.86539,467.57614 231.10844,467.28251 231.33295,466.97255 C 231.51794,466.64345 231.75415,466.37756 231.72692,465.95944 C 231.78288,465.52881 231.86101,465.09857 231.84035,464.66284 C 231.82736,464.31677 231.84794,463.96547 231.75556,463.62739 C 231.56461,463.34667 231.52712,463.07938 231.1252,463.01081 C 230.84761,462.98551 230.5464,463.01906 230.31045,462.85024 C 230.31153,462.59553 230.18769,462.29063 230.36145,462.01669 C 230.80074,461.66473 231.13854,460.94151 231.87618,460.93529 C 232.97886,460.68396 231.75596,461.09349 231.78409,461.2059 C 231.97718,461.03958 232.15473,460.85764 232.36279,460.70864 C 232.58428,460.57874 233.25104,460.20421 233.00855,460.28865 C 233.19269,460.07718 233.45073,459.96733 233.47977,459.64038 C 233.5614,459.27715 233.60978,458.91456 233.85516,458.61357 C 234.05918,458.38355 234.27149,458.16184 234.43748,457.90059 C 234.58249,457.6148 234.70608,457.31382 234.91563,457.06714 C 235.36805,456.36874 235.68343,456.00899 236.56169,455.63792 C 236.8464,455.53464 237.1244,455.41175 237.42001,455.33694 C 237.77109,455.27888 238.11679,455.18044 238.47876,455.22088 C 238.8357,455.22095 239.19265,455.22084 239.5496,455.22134 C 239.91203,455.22216 240.27446,455.22276 240.63689,455.22492 C 241.02798,455.22551 241.41941,455.23156 241.81013,455.21078 C 242.92473,454.98591 241.89344,455.34794 241.76356,455.47896 C 241.89485,455.24114 242.09259,455.03345 242.12628,454.74498 C 242.28612,454.46818 242.42904,454.17798 242.59351,453.90124 C 242.63374,453.57228 242.78282,453.34185 242.55864,453.02546 C 242.24979,452.90863 242.03881,452.71185 241.65042,452.86732 C 240.33159,453.31832 242.44678,452.25809 241.47771,452.90469 C 240.91093,453.41112 240.29672,453.88675 239.55535,454.10995 C 239.59538,454.07888 239.72802,454.00888 239.69305,454.04555 C 239.05164,454.48782 238.7383,455.05169 238.06589,454.69482 C 237.87254,454.33816 237.71451,453.96792 237.53187,453.59977 C 237.16741,453.28372 236.90998,453.00934 236.37997,453.00396 C 235.88748,452.95111 235.37952,452.94059 234.9337,452.70025 C 234.64486,452.31228 234.42474,452.07369 234.49369,451.52939 C 234.43114,451.0317 234.39294,450.53057 234.18069,450.06605 C 233.97229,449.62402 233.82861,449.23796 233.37186,448.9884 C 232.98217,448.74165 232.59707,448.49725 232.13771,448.39864 C 231.93885,448.22049 231.6963,448.10971 231.58538,447.83258 C 231.36507,447.7194 231.16658,447.54887 230.90916,447.51433 C 230.92573,447.44999 230.99673,447.26669 230.95887,447.32129 C 230.68622,447.60215 230.43174,447.90592 230.07843,448.09137 C 229.83258,448.29826 229.53739,448.43883 229.44128,448.77619 C 229.4137,449.11318 229.35185,449.4489 229.38637,449.79223 C 229.37276,450.15661 229.37758,450.52467 229.28045,450.87979 C 229.1375,451.21281 229.02831,451.5512 228.73579,451.79372 C 227.91847,452.26417 227.67388,452.50701 226.84462,452.45018 C 226.48583,452.45139 226.12705,452.45227 225.76827,452.45541 C 225.41549,452.45596 225.06163,452.46611 224.70994,452.43197 C 224.38963,452.31564 224.13632,452.35039 223.99942,451.97475 C 223.99069,451.6233 223.958,451.26804 223.99555,450.91448 C 224.02876,450.55419 224.05523,450.19332 224.13313,449.83867 C 224.14308,449.49071 224.17724,449.13943 224.14167,448.78935 C 224.10345,448.49495 224.10709,448.19226 223.97827,447.91627 C 224.49198,447.15218 221.5201,448.43935 224.50376,447.13465 C 223.92768,447.48345 223.37397,447.88959 222.74689,448.14122 C 222.41054,448.24151 221.88813,448.49383 222.62949,448.04591 C 222.07871,448.55931 221.53259,449.03731 220.79361,449.30223 C 220.46424,449.30808 220.1822,449.43409 219.87067,449.19411 C 219.63069,449.02223 219.41743,448.82872 219.12692,448.73879 C 218.79677,448.63676 218.47764,448.48792 218.12231,448.48043 C 217.83871,448.35443 217.57966,448.35419 217.44366,448.01874 C 217.30109,447.81441 217.18649,447.58436 217.00559,447.40238 C 216.65579,447.3272 216.2983,447.19057 215.91218,447.23391 C 215.51747,447.15114 215.13485,447.11391 214.82094,446.82576 C 214.50074,446.62345 214.19137,446.39959 213.82001,446.29171 C 213.48693,446.27563 213.17639,446.16922 212.85416,446.34252 C 214.19211,445.54839 213.67514,445.85958 213.31721,446.16033 L 212.36406,446.64598 z "
         id="path6202"
         style="fill:black;fill-opacity:1;stroke:black;stroke-width:1.10000002;stroke-linejoin:bevel;stroke-miterlimit:4;stroke-dasharray:none;stroke-opacity:1" />
      <path
         d="M 253.57022,430.97431 C 253.34671,431.13945 253.0628,431.2011 252.80908,431.31449 C 253.99371,430.44915 255.26184,429.78 256.64076,429.33064 C 257.4075,429.18168 258.19012,429.20276 258.9669,429.18906 C 259.83974,429.33448 260.68266,429.67029 261.52399,429.93624 C 262.51972,429.8109 263.40924,429.31931 264.3351,428.95942 C 265.18924,428.63189 266.09069,428.57747 266.98848,428.49264 C 267.83742,428.38076 268.02971,428.80676 268.58851,429.28379 C 268.97831,429.70333 269.35747,430.1368 269.75626,430.54722 C 270.15377,431.13381 270.27103,431.83403 270.44067,432.50875 C 270.54972,433.28528 271.11322,433.71188 271.54057,434.25756 C 272.08839,434.43989 272.54207,434.79195 273.02675,435.08189 C 273.42924,435.64366 274.03807,435.94607 274.55874,436.33757 C 275.18086,436.54541 275.26904,437.07587 275.55971,437.56425 C 275.83812,438.30717 275.63207,438.9103 275.46766,439.62119 C 274.74932,440.97732 273.06764,440.97534 271.8909,441.49305 C 271.1004,441.44886 270.36366,441.67478 269.60796,441.85904 C 268.85201,442.0561 268.07125,442.14936 267.30185,442.25794 C 267.56403,442.42666 268.98886,440.61464 268.27512,442.57023 C 268.2107,443.35725 268.23139,444.14774 268.23406,444.93647 C 268.3299,445.72886 268.02522,446.37357 267.74686,447.07672 C 266.96748,448.28175 265.40716,448.56357 264.19807,449.15264 C 263.2981,450.13829 264.23689,447.58648 264.19212,449.39304 C 263.76876,450.01494 263.5892,450.72028 263.37891,451.42526 C 263.42636,452.97053 262.33072,453.01354 261.22246,453.5462 C 261.09247,452.96216 260.85591,452.41452 260.65568,451.85093 C 260.2822,451.27226 260.19706,450.60658 260.01991,449.96395 C 259.9224,449.26785 259.94296,448.56413 259.92838,447.86366 C 259.9276,447.08021 259.93236,446.29677 259.93621,445.51334 C 260.02964,444.31081 260.30545,443.12893 260.52611,441.94469 C 260.88014,441.174 260.69733,440.45409 260.62863,439.71416 C 260.24808,439.21084 259.9149,438.67478 259.57324,438.14349 C 259.19568,437.52878 258.73457,436.9791 258.29282,436.41218 C 257.87913,435.89851 257.36821,435.48381 256.88905,435.04543 C 256.29834,434.89769 255.68147,434.99713 255.08019,435.02294 C 254.48307,435.40897 254.12451,434.98484 253.617,434.89978 C 253.378,434.45502 253.08154,434.02964 252.83124,433.59274 C 252.68673,433.44232 252.60828,433.24577 252.49764,433.07359 L 254.33256,432.01431 C 254.43844,432.17718 254.51175,432.3651 254.65199,432.50564 C 254.89392,432.92411 255.18622,433.32974 255.41094,433.75779 C 255.82992,433.76156 256.31719,434.08026 256.78514,433.77016 C 257.42396,433.75665 258.07579,433.62882 258.67743,433.90753 C 259.16422,434.36587 259.68052,434.8008 260.10656,435.32599 C 260.55086,435.90021 261.01605,436.45658 261.39892,437.07659 C 261.74635,437.61082 262.08555,438.1494 262.46923,438.65753 C 262.56696,439.45676 262.81395,440.19202 262.41448,441.03198 C 262.19208,442.20168 261.91436,443.3694 261.81326,444.5573 C 261.81392,445.33916 261.81433,446.12101 261.8123,446.90286 C 261.82422,447.59337 261.80445,448.28657 261.89061,448.97362 C 262.0579,449.60676 262.13527,450.25884 262.50508,450.82748 C 262.70194,451.36181 262.9506,451.87956 263.05071,452.44304 C 260.94715,453.69243 261.28273,453.92612 261.47628,452.34672 C 261.67268,451.61687 261.84099,450.89354 262.25589,450.24249 C 263.16776,449.06613 264.38071,448.24104 265.87175,447.86566 C 265.85327,447.89139 265.79451,447.96582 265.81631,447.94284 C 266.07191,447.26338 266.47994,446.68216 266.35242,445.89682 C 266.34962,445.1009 266.33371,444.30405 266.38069,443.50901 C 266.76585,442.0353 266.94095,441.59333 268.98901,440.98028 C 269.75812,440.87767 270.53303,440.79249 271.2813,440.57471 C 272.04538,440.40512 272.79468,440.21069 273.58734,440.22951 C 273.57175,440.31739 273.55504,440.58125 273.54057,440.49317 C 273.67618,439.84046 274.01788,439.30218 273.70314,438.5866 C 273.41851,438.18284 273.38716,437.65116 272.79282,437.50861 C 272.23982,437.11492 271.6829,436.7429 271.23166,436.21436 C 270.74235,435.93763 270.27824,435.60715 269.75187,435.39144 C 269.30103,434.79969 268.71253,434.32708 268.58285,433.5116 C 268.42004,432.8669 268.30964,432.19364 267.93514,431.63131 C 267.53937,431.22712 267.15505,430.80481 266.77652,430.38339 C 266.21923,430.05627 266.1104,429.52758 265.28761,429.74504 C 264.40414,429.84363 263.51742,429.91311 262.68164,430.25295 C 261.74225,430.63363 260.82891,431.14157 259.79251,431.13997 C 258.96542,430.86414 258.13414,430.51167 257.26121,430.43078 C 256.49235,430.45314 255.71589,430.43372 254.96217,430.61548 C 252.42096,431.57576 256.61303,429.46898 254.77635,430.53489 C 253.83702,431.12179 253.02416,432.23931 251.83935,432.23186 L 253.57022,430.97431 z "
         id="path6204"
         style="fill:black;fill-opacity:1;stroke:black;stroke-width:1.10000002;stroke-linejoin:bevel;stroke-miterlimit:4;stroke-dasharray:none;stroke-opacity:1" />
      <path
         d="M 276.03962,480.80329 C 275.70201,480.65474 275.31132,480.61763 274.9494,480.52537 C 274.28082,480.37349 273.62492,480.51512 272.96269,480.55415 C 272.23495,480.83499 271.6905,480.53023 271.02895,480.37113 C 270.52446,479.96129 269.91172,479.93131 269.31606,479.78295 C 268.61082,479.63152 267.93726,479.81584 267.24282,479.89388 C 267.17314,479.91952 267.35191,479.78917 267.41928,479.75795 C 266.87218,480.25941 266.47249,480.88665 266.04335,481.48496 C 265.57625,482.02732 265.25874,482.66237 264.89075,483.26749 C 264.56007,483.81862 264.40654,484.44719 264.20516,485.0511 C 264.00532,485.72817 264.01882,486.43389 263.96822,487.12964 C 263.85523,487.74701 263.77022,488.36931 263.67153,488.98883 C 263.60424,489.67654 263.61532,490.36793 263.6027,491.05777 C 263.60045,491.772 263.60219,492.48623 263.603,493.20046 C 263.57727,493.89714 263.62243,494.59503 263.64164,495.28831 C 263.80998,495.96022 264.22825,496.50273 264.60056,497.0688 C 264.92612,497.74414 265.45349,497.7865 266.04618,498.05146 C 266.69184,498.0624 267.30902,498.21366 267.94174,498.31417 C 268.57825,498.40908 269.22382,498.46687 269.86135,498.52846 C 270.35248,498.75924 270.9152,498.85447 271.41361,499.02317 C 271.64787,498.9723 271.20623,499.49632 270.99355,499.60693 C 271.37693,498.99694 271.52075,498.27149 271.71694,497.58461 C 272.06735,496.05275 273.1009,496.12722 274.47057,495.6138 C 274.79259,496.09192 275.0368,496.62585 275.3037,497.13873 C 275.61627,497.80513 275.64494,498.53059 275.72241,499.24714 C 275.83015,500.02372 275.70159,500.77749 275.61651,501.53958 C 275.40166,502.43911 275.00483,503.28035 274.64879,504.1299 C 274.30398,504.87484 274.06099,505.65694 273.80487,506.43309 C 273.58204,507.15438 273.6629,507.8764 273.69587,508.60774 C 273.73223,509.33751 274.19719,509.66065 274.63448,510.17027 C 275.23194,510.72209 275.50965,511.44184 275.8421,512.14954 C 276.06925,512.94348 276.06959,513.7681 276.1078,514.5849 C 276.1823,515.37125 276.34962,516.14272 276.48945,516.91811 C 276.66181,517.7592 277.15657,518.40989 277.61719,519.09702 C 278.17608,519.58143 278.84257,519.50045 279.52191,519.58106 C 279.3906,519.95083 280.99887,519.07484 280.65609,519.26582 C 280.11937,519.56512 279.58264,519.86442 279.04592,520.16372 C 279.11331,520.11032 279.1807,520.05691 279.24809,520.0035 C 279.8592,519.80604 279.88447,519.23787 280.17627,518.81006 C 280.31518,518.14834 280.2817,517.47005 280.30039,516.79894 C 280.20913,515.9535 280.59188,515.31294 280.94616,514.59336 C 281.60115,513.36123 283.06863,513.03278 284.21849,512.42247 C 283.6027,512.80635 285.4821,511.70865 286.11637,511.35615 C 286.93846,511.04264 287.819,511.0431 288.68339,510.98488 C 288.82514,510.96522 288.49065,511.21487 288.35555,511.26204 C 288.55641,510.62812 288.50074,509.95922 288.5227,509.30488 C 288.51828,508.58686 288.51337,507.86885 288.50907,507.15083 C 288.50504,506.4209 288.50663,505.69096 288.50715,504.96103 C 288.55771,504.06108 288.76587,503.18587 288.95296,502.30794 C 289.1265,501.53621 289.30219,500.76657 289.46159,499.992 C 289.4984,499.21632 290.01391,498.8132 290.41991,498.23941 C 290.99824,497.84487 291.49373,497.35525 292.02103,496.90437 C 292.44692,496.23585 292.91773,495.60841 293.38528,494.97541 C 294.02646,494.3724 294.72594,493.83773 295.41871,493.2966 C 295.95037,492.96274 296.18742,492.41058 296.51507,491.92228 C 296.66165,491.28461 296.76953,490.63448 296.87961,489.98773 C 296.96901,489.30327 297.18983,488.64796 297.37072,487.9854 C 297.41556,487.38012 296.78414,488.02804 296.53884,488.04587 C 295.55201,488.59949 297.4095,487.5452 297.85313,487.3101 C 298.18409,487.13472 297.26282,487.77129 296.96766,488.00189 C 295.75474,488.974 294.87321,489.2432 293.59368,489.58517 C 293.06362,489.5543 292.62675,489.22804 292.16175,489.01012 C 291.75686,488.59182 291.21373,488.50479 290.6948,488.31474 C 289.89781,487.99125 289.50211,487.30028 289.00803,486.6604 C 288.63651,485.56728 289.09929,484.67949 289.46552,483.66506 C 289.92633,483.0426 289.8949,482.38565 289.97559,481.68974 C 289.88868,481.13171 289.55241,480.69391 289.27694,480.21827 C 288.9817,479.61105 288.94803,478.93496 288.84219,478.2808 C 288.87839,477.6821 288.46559,477.245 288.27365,476.78003 C 287.74071,476.43759 287.19762,476.61269 286.63062,476.62044 C 286.6521,476.60613 286.67183,476.68033 286.65075,476.69524 C 285.48705,477.80343 284.32331,478.04377 282.92723,478.27935 C 281.87812,478.30477 280.03714,479.48241 283.10894,477.75723 C 282.63801,478.03269 282.33043,478.4849 281.97826,478.88582 C 280.42177,480.09437 280.10737,480.0832 278.60857,480.11125 C 277.90992,480.01597 277.25002,480.23645 276.58133,480.36925 C 276.07087,480.66906 275.5088,480.82433 274.96217,481.03263 L 276.64447,479.74385 C 277.1769,479.51522 277.72296,479.30299 278.25728,479.076 C 278.9424,478.96929 279.61785,478.77948 280.32264,478.86744 C 281.40043,478.79786 283.04911,478.31329 280.01103,479.68848 C 280.36075,479.29156 280.70247,478.85127 281.13339,478.53362 C 282.54557,477.70328 283.16397,477.12726 284.62769,477.02026 C 285.15137,476.90533 286.94292,476.37311 284.68476,477.47523 C 285.82007,476.65604 286.96548,475.74412 288.32479,475.34622 C 288.93994,475.37952 289.53791,475.24195 290.07951,475.66397 C 290.32905,476.18298 290.71735,476.62784 290.70978,477.28153 C 290.80892,477.91538 290.84349,478.57207 291.11498,479.16465 C 291.40281,479.6595 291.75181,480.11446 291.84955,480.69424 C 291.79601,481.43998 291.88332,482.12207 291.37797,482.79195 C 291.01018,483.73288 290.53072,484.57374 290.83525,485.60647 C 291.30668,486.20444 291.67598,486.85323 292.44667,487.1249 C 292.96762,487.33306 293.52137,487.43477 293.93921,487.85026 C 294.38396,488.03788 294.79076,488.36448 295.30251,488.32604 C 296.0868,488.02427 298.30561,487.21155 294.99116,488.7716 C 295.99666,488.00654 297.03098,487.26525 298.192,486.71827 C 298.68462,486.7778 299.19741,486.18765 299.2863,487.07281 C 299.10155,487.73022 298.86907,488.38042 298.78129,489.06266 C 298.66935,489.71988 298.54131,490.37182 298.43818,491.02946 C 298.12393,491.55462 297.93218,492.14643 297.38155,492.51552 C 296.68446,493.04837 295.98976,493.58396 295.33291,494.16764 C 294.84244,494.78275 294.34503,495.37482 293.96986,496.08323 C 293.45553,496.5595 293.00726,497.08983 292.37152,497.42682 C 291.93753,497.96283 291.43381,498.31163 291.35954,499.06176 C 291.20696,499.84298 291.03629,500.61705 290.85079,501.3911 C 290.65916,502.25568 290.45988,503.1172 290.38827,504.00249 C 290.38962,504.73166 290.3908,505.46084 290.39269,506.19002 C 290.39673,506.9083 290.40082,507.62657 290.40694,508.34484 C 290.39183,509.02138 290.43725,509.70698 290.28065,510.37185 C 289.40646,511.04115 288.4071,512.40941 286.9817,512.23254 C 286.12878,512.30274 285.26148,512.31016 284.46516,512.67043 C 287.76923,510.68801 283.73203,513.29514 282.55109,513.72701 C 282.64121,513.66318 282.95216,513.6585 282.88196,513.74376 C 282.5065,514.42393 282.10218,515.015 282.18499,515.83955 C 282.17117,516.52456 282.19971,517.2143 282.08725,517.89337 C 281.85355,518.4329 281.84853,518.94698 281.2183,519.21409 C 280.02945,519.95364 279.17915,520.83587 277.80592,520.81756 C 277.07574,520.6969 276.37967,520.75883 275.80738,520.1838 C 275.33151,519.46696 274.81971,518.786 274.63125,517.91566 C 274.48425,517.12852 274.31461,516.34586 274.22746,515.54797 C 274.19656,514.75011 274.20369,513.94444 273.99275,513.16662 C 273.67489,512.48458 273.40729,511.79496 272.82619,511.2683 C 272.37274,510.72731 271.86092,510.36753 271.82614,509.59483 C 271.77828,508.83841 271.68196,508.09496 271.89865,507.3446 C 272.14671,506.55484 272.38526,505.76243 272.73384,505.00682 C 273.08928,504.16793 273.48956,503.33678 273.71499,502.45153 C 273.81335,501.70993 273.95435,500.98042 273.84476,500.21904 C 273.75989,499.53242 273.7728,498.82659 273.46285,498.18613 C 273.21275,497.70873 272.98232,497.20862 272.68265,496.76498 C 273.75434,496.00267 274.52509,494.98902 273.6241,496.6803 C 273.42536,497.38936 273.2521,498.11152 272.95172,498.78565 C 271.89269,499.44309 270.9955,500.35251 269.6832,500.25363 C 269.1721,500.07619 268.64326,499.90945 268.12626,499.74395 C 267.48468,499.68497 266.83727,499.64821 266.20283,499.52508 C 265.56962,499.4325 264.94339,499.30784 264.30384,499.25588 C 263.70254,498.94395 263.10958,498.84902 262.78152,498.14661 C 262.38993,497.55077 261.95628,496.97737 261.76785,496.27519 C 261.74365,495.57405 261.68584,494.86681 261.71898,494.16068 C 261.71814,493.44607 261.71662,492.73147 261.71788,492.01686 C 261.72801,491.3214 261.71754,490.62478 261.77553,489.93088 C 261.86691,489.31347 261.92326,488.69097 262.08115,488.08397 C 262.11543,487.3727 262.11844,486.65549 262.2946,485.95994 C 262.48953,485.34163 262.64185,484.70045 262.9567,484.12873 C 263.32074,483.51638 263.62385,482.86693 264.10976,482.33181 C 264.53556,481.72431 264.9302,481.08803 265.45768,480.55991 C 266.55995,479.85781 267.60297,478.89482 268.93267,478.62319 C 269.64029,478.53507 270.3331,478.41913 271.04681,478.56412 C 271.65209,478.73812 272.28339,478.79786 272.8018,479.20962 C 273.42788,479.31251 273.9901,479.54213 274.65407,479.28526 C 275.33013,479.26432 276.00802,479.15078 276.68486,479.30604 C 277.0471,479.38602 277.40753,479.50037 277.7705,479.54574 L 276.03962,480.80329 z "
         id="path6208"
         style="fill:black;fill-opacity:1;stroke:black;stroke-width:1.10000002;stroke-linejoin:bevel;stroke-miterlimit:4;stroke-dasharray:none;stroke-opacity:1" />
      <path
         d="M 294.61105,510.44615 C 294.8604,510.24659 295.24765,510.39368 295.56594,510.36745 C 295.07579,510.76979 294.99433,511.32549 294.77499,511.86499 C 294.70655,512.55685 294.58079,513.24007 294.45971,513.92447 C 294.41079,514.62381 294.25152,515.30457 294.11906,515.99087 C 293.78857,516.55993 292.82779,516.28083 292.17022,516.30635 C 292.43299,515.75522 292.5344,515.16016 292.69298,514.5795 C 292.72244,513.94319 292.87545,513.32874 293.00004,512.70718 C 293.16111,512.17349 293.48992,511.69993 293.77463,511.22132 C 293.94905,510.94375 293.97785,510.61142 294.07858,510.30911 L 295.98472,509.38966 C 295.89237,509.70868 295.87104,510.05361 295.70631,510.35144 C 295.43289,510.82387 295.14663,511.29838 294.90488,511.77995 C 294.77209,512.39875 294.62053,513.01362 294.59418,513.64819 C 294.45137,514.23535 294.39633,514.84416 294.07722,515.37902 C 293.74345,515.65971 292.70213,518.38352 292.2091,516.91279 C 292.35165,516.23073 292.52211,515.55408 292.56138,514.85562 C 292.68107,514.16901 292.81807,513.48517 292.86941,512.78962 C 293.06384,512.21203 293.09574,511.62639 293.62008,511.20892 C 294.5743,510.46911 294.3431,509.00292 296.34193,509.1886 L 294.61105,510.44615 z "
         id="path6210"
         style="fill:black;fill-opacity:1;stroke:black;stroke-width:1.10000002;stroke-linejoin:bevel;stroke-miterlimit:4;stroke-dasharray:none;stroke-opacity:1" />
      <path
         d="M 293.21308,471.33145 C 293.61624,471.49079 293.61923,471.96478 293.81303,472.26699 C 294.03551,472.92174 294.24716,473.57859 294.45776,474.23652 C 294.46863,474.9051 294.73859,475.49035 294.91638,476.10199 C 295.28042,476.53874 295.87345,476.6561 296.39049,476.8489 C 296.96083,477.3134 297.07462,478.0312 297.27817,478.70685 C 297.5238,479.43894 298.08791,479.61342 298.64805,479.98401 C 299.19907,480.03718 299.51713,480.46503 299.94998,480.73062 C 300.52474,481.19912 301.05127,481.71366 301.58467,482.22042 C 302.06231,482.82759 302.0412,483.54983 302.16508,484.26473 C 302.15067,484.98525 302.28168,485.69135 302.39183,486.40014 C 302.31903,487.14349 302.76248,487.61054 303.05308,488.17502 C 303.47314,488.62789 304.048,488.47785 304.50439,488.58748 C 302.43057,489.75332 306.12383,487.76012 306.2519,487.69302 C 307.07163,487.44911 307.90536,487.29408 308.74456,487.14216 C 309.33924,487.047 309.93083,487.23191 310.49694,487.32145 C 309.56835,487.6373 308.78021,488.86333 309.20522,487.08188 C 309.04496,486.29617 309.42491,485.76858 309.67261,485.11508 C 310.20513,484.75379 310.56736,484.23081 310.9943,483.77824 C 311.36015,483.07178 311.46666,482.29175 311.61941,481.52466 C 311.9076,480.87552 311.5316,480.24614 311.45514,479.71752 C 310.88638,479.79142 310.31529,479.88486 309.74779,479.9772 C 308.95028,480.22214 308.53225,479.82696 307.87115,479.54983 C 307.12784,479.23822 307.12635,478.6723 306.83278,478.0477 C 306.63735,477.31299 306.51414,476.56204 306.38475,475.81494 C 306.27427,475.05881 305.78317,474.63958 305.30856,474.11804 C 304.56175,473.81337 304.75845,473.1761 304.57108,472.69788 C 305.76843,471.49437 306.69019,471.43102 308.07326,471.33169 C 308.65442,471.52626 309.24714,471.47876 309.83374,471.51481 C 310.44914,471.24273 310.88149,471.65134 311.40829,471.76917 C 312.0724,472.25496 312.87252,472.24412 313.65359,472.35236 C 314.61969,472.38789 315.27928,472.83983 316.01511,473.34485 C 316.4218,473.92035 316.41037,474.61021 316.51243,475.27721 C 316.53091,476.06504 317.04923,475.92823 317.49715,476.26617 C 317.37066,476.65103 319.02503,475.75301 318.67031,475.9487 C 318.16484,476.2307 317.65937,476.5127 317.15389,476.7947 C 317.25662,476.71432 317.35935,476.63393 317.46208,476.55355 C 318.08695,476.10487 318.71498,475.65992 319.34149,475.21513 C 321.82949,473.43861 321.0906,473.91205 322.60178,474.48637 C 322.90361,475.12024 322.86161,475.8177 322.89456,476.50065 C 322.93799,477.43717 323.1397,478.34632 323.33517,479.25884 C 323.53163,480.04869 323.75451,480.82966 323.97302,481.61209 C 324.2542,482.26772 324.71229,482.19818 325.29671,482.38374 C 326.28504,482.54809 327.09499,483.11495 327.90903,483.66244 C 328.73618,484.28298 329.401,485.07124 330.07924,485.84168 C 330.56675,486.21901 329.31997,486.88807 328.75341,487.13108 C 328.61298,486.57638 328.38795,486.04263 328.1948,485.50276 C 327.92636,484.91197 327.64805,484.32774 327.37699,483.73876 C 327.11882,483.0785 327.12945,482.37509 327.08598,481.68046 C 327.06779,480.89236 327.07302,480.104 327.07357,479.31576 C 326.9789,478.57165 327.28146,477.9282 327.47939,477.2412 C 327.72438,476.59845 327.7273,475.91575 327.7788,475.24109 C 327.80306,474.45674 327.79641,473.67192 327.79592,472.88732 C 327.66309,472.11362 328.09742,471.70754 328.4342,471.10831 C 330.37589,469.4836 330.46118,469.65017 331.93466,470.41321 C 332.57572,471.77363 332.97395,473.25631 333.44122,474.68864 C 333.76135,476.02267 334.19519,477.29322 334.77191,478.53284 C 336.23202,480.08339 334.4309,479.90115 334.17709,479.9842 C 334.62157,478.7781 334.91652,477.51472 335.25519,476.27314 C 335.4561,475.41157 335.58362,474.53485 335.73002,473.66392 C 335.8774,473.08972 336.2751,472.66859 336.60831,472.2011 C 337.12456,471.65038 337.58583,471.05316 338.057,470.46687 C 338.44185,469.88748 338.40947,469.21821 338.50038,468.56321 C 338.50843,467.91491 338.11623,467.44212 337.8221,466.90415 C 337.53672,466.32591 337.50969,465.67934 337.41093,465.05481 C 337.20721,464.39394 337.17816,463.70805 337.11651,463.02563 C 337.09655,462.20711 337.06766,461.38761 337.0379,460.57126 C 336.92925,459.91243 336.74025,459.26785 336.55531,458.62745 C 336.39922,457.60036 336.39334,456.55975 336.37222,455.52356 C 336.48608,454.62408 336.22852,453.85024 335.96237,453.02031 C 335.78383,452.39101 335.35072,451.97434 334.96386,451.48169 C 334.60171,450.9447 334.2632,450.39103 333.91785,449.84228 C 333.62265,449.11688 333.06561,449.3603 332.52797,449.17283 C 331.89863,449.49339 331.21795,449.41163 330.5799,449.46708 C 330.10555,449.21688 329.89016,448.73135 329.56899,448.33572 C 329.15986,447.92262 328.73333,447.53018 328.30877,447.13316 C 327.96455,446.63356 327.43807,446.36036 326.98542,446.00869 C 326.15222,445.80229 325.93952,445.2546 325.53967,444.60164 C 325.43435,443.97602 325.27919,443.32226 325.16012,442.72457 C 324.77948,442.60913 324.31792,442.76644 323.916,442.83161 C 323.28003,442.79991 322.89659,442.32338 322.42686,441.95593 C 321.97195,441.50362 321.52284,441.04267 321.07679,440.58098 C 320.72605,440.02725 320.17231,439.8016 319.65435,439.46307 C 319.17395,439.10072 318.73388,438.67739 318.28911,438.27536 C 317.16843,438.04008 316.13175,438.89529 318.6054,437.50459 C 317.77106,438.46774 316.14398,438.76362 315.3146,439.07085 C 314.79019,438.92981 314.36722,438.60926 313.9111,438.33672 C 313.38535,437.9813 312.78984,438.06674 312.20847,438.01063 C 311.52391,438.17884 310.8179,438.15895 310.12839,438.20383 C 309.54873,438.08772 309.01404,437.75553 308.49358,437.47352 C 307.88072,437.25406 307.24269,437.36351 306.60999,437.40129 C 306.00564,437.26581 305.6083,436.79948 305.1461,436.43378 C 304.86292,435.86348 304.28896,435.91038 303.85827,435.68243 C 303.16053,435.84461 302.63312,435.50661 302.01013,435.30738 C 301.33063,434.92583 300.56359,434.8797 299.81189,434.7711 C 299.15666,434.72907 298.5009,434.88399 297.85442,434.98961 C 297.17201,435.07282 296.48408,435.06274 295.79839,435.08104 C 295.08493,435.08596 294.37146,435.08376 293.65799,435.08312 C 292.95806,434.91612 292.42265,435.22136 291.80423,435.38642 C 295.5193,433.42756 291.37011,435.51116 290.11375,436.12712 C 289.5303,436.40221 288.89137,436.40046 288.26843,436.48378 C 287.59238,436.44174 286.93454,436.56985 286.27223,436.63419 C 286.46417,436.87741 288.07459,434.93201 287.19043,436.84263 C 286.93637,437.40524 286.70733,437.97695 286.47468,438.54858 C 285.84403,439.71473 284.37417,440.00193 283.27209,440.58394 C 280.98881,441.37307 283.21284,440.33551 283.27022,440.30513 C 282.71199,440.69109 282.73833,441.23653 282.57102,441.81677 C 282.24424,443.48965 281.92801,443.18905 279.96721,444.26331 C 280.14542,444.03118 280.54578,444.37283 280.83842,444.37174 C 280.71726,445.04302 280.75005,445.72706 280.73645,446.40535 C 280.44184,447.83678 279.41961,447.73739 278.01912,448.30561 C 277.50626,447.99567 277.18327,447.455 276.82224,446.98915 C 276.29735,446.49271 276.20689,445.82839 276.0344,445.1623 C 275.99527,444.29262 275.44054,444.5262 275.03141,444.26538 C 275.08376,444.1317 275.31479,444.31168 275.45648,444.33482 C 274.96731,444.94862 274.87562,445.67096 274.7272,446.40774 C 274.65518,447.12201 274.66959,447.84062 274.66658,448.55735 C 274.67015,449.27212 274.67213,449.9869 274.67419,450.70168 C 274.70034,451.40641 274.65799,452.11182 274.64071,452.81388 C 274.53684,453.39039 274.01993,453.62743 273.6472,454.0028 C 273.02059,454.44067 272.64738,455.07238 272.23456,455.68112 C 271.93589,456.3508 272.91667,456.14628 273.16756,456.31737 C 273.96046,456.45411 274.71511,456.29838 275.47744,456.18061 C 273.66614,457.46588 274.64911,456.11924 274.86876,455.7247 C 275.33933,454.40127 276.59935,454.19239 277.8278,453.55625 C 277.59951,453.53615 276.0839,455.22374 276.99252,453.26615 C 277.01257,452.54147 277.28327,451.86806 277.46664,451.18925 C 279.09862,447.22488 279.73314,450.77716 279.96561,450.75205 C 280.04402,451.53703 280.03084,452.32711 280.03766,453.11489 C 280.06252,453.84829 280.0184,454.58232 279.99906,455.31297 C 279.95876,455.96351 279.64925,456.52344 279.42205,457.11344 C 278.99466,457.65976 278.90242,458.31993 278.70285,458.95273 C 278.79492,459.65529 278.28456,459.96505 277.99548,460.48239 C 277.54998,461.01472 277.72734,461.57347 277.70507,462.18883 C 277.61333,463.61798 276.29572,463.52356 275.13451,463.96268 C 274.44181,463.53738 274.27928,462.89485 274.00873,462.19306 C 273.9046,461.45428 273.66839,460.74806 273.44651,460.03909 C 272.91758,458.44519 272.71537,459.09427 274.82328,458.00458 C 274.65112,458.50833 274.67271,459.08073 274.63614,459.61352 C 274.60119,460.27865 274.2378,460.80998 273.95979,461.38627 C 273.24111,462.46119 271.92918,462.86593 270.81884,463.49234 C 273.28323,461.71151 272.22028,462.8083 271.73703,463.84716 C 271.08099,466.7777 269.4386,464.58644 268.81381,464.7447 C 268.44939,464.24374 268.04453,463.77379 267.65018,463.29639 C 267.37434,462.72586 266.79776,462.64692 266.35042,462.34488 C 265.78055,462.41022 265.20547,462.61685 264.64928,462.78791 C 262.42178,463.37653 264.80995,462.46724 264.93468,462.40843 C 264.80883,462.95306 264.5365,463.42311 264.31027,463.92688 C 264.00887,464.57809 264.11781,465.28013 264.14559,465.97463 C 264.12615,466.76722 263.61572,467.23838 263.20942,467.84185 C 262.77524,468.34162 262.27797,468.79182 261.78963,469.23696 C 261.45218,469.88364 260.9241,470.32092 260.40339,470.79695 C 258.66536,472.06991 258.42415,472.14957 256.86002,471.93051 C 256.90233,471.35059 258.00578,471.7314 258.57785,471.6273 C 259.05609,472.01502 259.66275,471.95768 260.23441,472.04172 C 261.06038,471.82921 261.49803,472.28751 262.11941,472.54008 C 262.497,473.183 262.67377,473.90899 262.8868,474.61615 C 262.87432,475.43645 263.6647,475.55692 263.94877,475.80937 C 261.39448,477.6321 262.43912,476.61953 262.99634,475.62149 C 263.09803,474.93637 263.19245,474.25303 263.30899,473.56921 C 263.44812,472.95269 263.70048,472.37107 263.90848,471.78203 C 265.52268,470.36042 268.03559,469.29507 265.24971,470.68364 C 265.85042,469.26985 266.1284,469.39411 267.84847,468.41711 C 268.3065,468.50135 268.69352,468.75286 269.11288,468.93685 C 269.88752,469.07951 270.58201,469.44605 271.29945,469.75523 C 272.1768,469.93839 272.31765,470.51773 272.75203,471.1287 C 272.92824,471.71756 273.02921,472.32231 273.15942,472.92067 C 273.24772,473.60549 273.2328,474.29665 273.24907,474.98515 C 272.97863,475.4987 273.50226,476.0678 273.56741,476.34638 C 273.9846,476.23048 274.34521,475.98563 274.73838,475.81045 C 269.53306,478.60776 279.45904,473.32826 274.0239,476.23938 C 274.26932,475.74604 274.19767,475.17814 274.22806,474.64368 C 274.20548,474.00568 273.79581,473.54654 273.49663,473.02246 C 272.92652,472.62731 272.89042,472.04346 272.68355,471.49392 C 276.08215,469.22012 273.86365,470.41726 273.81236,470.43866 C 274.09464,469.89851 274.20051,469.27435 274.33989,468.68705 C 274.85972,465.71758 276.7208,467.8505 277.24201,467.70601 C 277.41891,468.2887 277.77825,468.77456 278.06806,469.29631 C 278.58582,469.97215 279.18917,470.57822 279.78136,471.18558 C 280.18498,471.67326 280.62219,472.12884 281.05659,472.58859 C 282.09005,473.51386 282.13221,472.77006 280.40763,473.62734 C 280.44415,473.05314 280.86886,472.67836 281.09818,472.21826 C 281.49232,471.81855 281.58898,471.26708 281.76754,470.7555 C 282.29421,469.52957 283.86027,469.36966 284.92252,468.87351 C 285.15268,469.01488 284.39961,468.69528 284.12971,468.7059 C 284.46032,466.18364 286.25178,468.20254 286.60007,468.15529 C 287.27123,468.5941 286.99175,469.17293 287.11803,469.72495 C 286.39305,471.01814 285.7045,471.15767 284.20373,472.01662 C 283.73124,471.93445 285.12282,471.74068 285.57391,471.57787 C 285.85476,471.5199 285.16321,471.99237 284.90721,472.12161 C 285.25681,471.73716 285.51364,471.28611 285.80864,470.86331 C 286.01549,470.37567 286.3688,469.97028 286.64375,469.53321 C 289.33973,467.75974 288.40684,468.01748 289.25038,469.3237 C 289.4135,469.96433 289.19971,470.55394 289.08724,471.17048 C 288.79963,471.71099 288.76924,472.31161 288.65622,472.89593 C 288.60484,473.59084 288.75547,474.28503 288.85272,474.97196 C 287.76283,476.69558 293.89916,472.88323 287.60669,476.33486 C 288.46222,475.26151 289.87762,475.14183 290.98158,474.62465 C 291.22333,474.67899 290.48445,474.54368 290.2395,474.58102 C 290.50154,474.13271 290.99061,473.87812 291.39822,473.56703 C 291.5674,473.44032 291.63204,473.23083 291.74659,473.06612 L 293.67771,472.19693 C 293.57208,472.38234 293.51927,472.60652 293.35707,472.7597 C 292.95353,473.04643 292.55561,473.41201 292.16712,473.69562 C 291.3644,474.39388 290.76096,475.87841 289.29075,475.89881 C 289.38707,475.77974 289.44957,475.46089 289.57972,475.54162 C 284.38282,478.61189 288.67702,476.42492 286.9804,475.95452 C 286.88203,475.25378 286.73107,474.54607 286.76067,473.83834 C 286.86026,473.23827 286.86924,472.61975 287.16533,472.06681 C 287.30006,471.48579 287.52885,470.93593 287.37783,470.31916 C 288.62006,468.71583 282.22735,471.50831 288.60889,468.73025 C 288.32699,469.14058 287.89755,469.49011 287.75301,470.01271 C 287.46196,470.44318 287.20877,470.89639 286.85941,471.28659 C 285.8888,471.92884 285.01626,473.05634 283.79129,472.74143 C 283.81515,472.71635 283.31117,469.89952 285.85894,470.69135 C 282.99063,472.39512 284.68094,471.54927 285.18843,470.61162 C 285.10935,470.13594 285.44773,469.67044 284.79102,469.25719 C 285.19771,468.75908 285.47778,467.48426 286.04353,467.78994 C 285.29322,468.51262 284.8581,470.22403 283.22841,470.14496 C 283.36942,470.03162 283.80305,469.71698 283.68841,469.85693 C 283.51736,470.38724 283.39764,470.95284 283.05859,471.40404 C 282.79492,471.86644 282.29971,472.12109 282.35409,472.77348 C 280.9121,473.70461 280.54721,474.59296 279.24947,473.69469 C 278.81368,473.22852 278.37125,472.77032 277.97031,472.27304 C 277.37591,471.65939 276.76946,471.04838 276.2472,470.36865 C 275.95365,469.84941 275.58255,469.36989 275.41083,468.78493 C 275.70302,468.46441 275.84732,467.7124 276.27035,467.8081 C 276.12137,468.39401 275.95128,469.01122 275.75744,469.5959 C 273.33785,471.27758 273.22906,471.38614 274.58979,470.55205 C 274.78545,470.99125 274.75249,471.62496 275.32235,471.94994 C 275.64231,472.50962 276.07349,473.00731 276.11469,473.68495 C 276.09408,474.25477 276.13937,474.83771 275.97765,475.39214 C 269.67463,479.38769 279.45435,473.17194 273.08861,477.14216 C 272.67095,477.29871 272.2728,477.62178 271.79902,477.53971 C 271.62787,477.05023 271.11711,476.62609 271.36539,475.94666 C 271.35128,475.26699 271.36589,474.58504 271.28588,473.90842 C 271.16165,473.32165 271.06574,472.72898 270.89656,472.15155 C 270.49252,471.5912 270.35889,471.08747 269.54108,470.91952 C 268.81982,470.61627 268.11485,470.28238 267.34621,470.11267 C 266.96693,469.96423 266.6042,469.65511 266.17679,469.73442 C 268.75853,468.18502 267.63328,468.59579 267.20256,469.85479 C 266.87729,470.07109 263.96706,471.76159 265.84231,470.9159 C 265.62787,471.48335 265.35869,472.04143 265.20934,472.64267 C 265.10421,473.33273 264.96607,474.01343 264.90872,474.7101 C 264.26692,476.15415 264.27778,476.21773 262.24474,477.0832 C 261.73711,476.68133 261.15246,476.46709 261.03431,475.6255 C 260.82992,474.94984 260.66009,474.25599 260.30658,473.63825 C 259.74734,473.46302 259.21742,473.10822 258.51369,473.27264 C 257.88328,473.1528 257.24377,473.19902 256.7496,472.70913 C 257.19154,472.18604 254.28,470.09222 258.61184,470.72507 C 259.54905,470.68517 261.37896,470.5162 258.43274,471.56501 C 258.95313,471.10217 259.5592,470.76151 259.83977,470.06256 C 260.3233,469.61132 260.78527,469.12983 261.26197,468.67048 C 261.67306,468.11314 262.1909,467.67276 262.26188,466.93081 C 262.23116,466.21922 262.1212,465.48347 262.37722,464.80178 C 262.59468,464.28542 262.95259,463.85149 262.99305,463.26489 C 264.03482,462.53666 264.96993,461.5828 266.33282,461.50324 C 266.91188,461.32657 267.49188,461.06212 268.10357,461.15308 C 268.60335,461.46934 269.14553,461.64531 269.46871,462.21028 C 269.8587,462.68084 270.2538,463.14752 270.62354,463.63424 C 270.33401,463.97949 270.23366,464.80689 269.79532,464.70255 C 270.42682,463.29416 270.60237,462.98658 272.46572,462.15952 C 272.33758,462.23678 271.91444,462.35781 272.02841,462.26085 C 272.31149,461.70594 272.67753,461.18881 272.73905,460.54887 C 272.77448,459.98247 272.81603,459.41211 272.85973,458.84416 C 275.18482,457.53898 274.72343,457.32622 275.30119,459.02634 C 275.52546,459.73662 275.76699,460.44525 275.86831,461.18634 C 276.15124,461.80945 276.20656,462.44412 276.90444,462.78892 C 276.90313,462.78988 274.94955,464.83394 275.83035,463.1717 C 275.82805,462.52115 275.63892,461.90911 276.04387,461.31722 C 276.37225,460.82238 276.86762,460.57516 276.80162,459.88081 C 276.98376,459.22623 277.04188,458.54296 277.49164,457.9866 C 277.73225,457.41754 278.04867,456.88475 278.09951,456.24863 C 278.12741,455.52847 278.19012,454.80016 278.15629,454.07383 C 278.1516,453.29781 278.16667,452.51962 278.09162,451.74615 C 278.26321,451.56491 277.86364,449.07532 279.40089,450.32354 C 279.20054,450.97232 278.87882,451.61902 278.89423,452.34043 C 278.39159,453.81463 278.24458,454.2759 276.14636,454.84696 C 276.32621,454.72901 276.92124,454.66504 276.79151,454.83658 C 276.13796,456.20373 275.63979,456.95635 273.80397,457.47317 C 273.02073,457.55361 272.23805,457.67131 271.44117,457.53959 C 270.77054,457.25198 270.38483,457.42455 270.31124,456.56483 C 270.7013,455.9188 271.04743,455.26484 271.67454,454.78665 C 272.05404,454.46616 272.52804,454.21866 272.74095,453.74978 C 272.76616,453.05865 272.82722,452.35932 272.79023,451.66209 C 272.78806,450.94732 272.78682,450.23254 272.78272,449.51776 C 272.78423,448.79332 272.77058,448.06746 272.83226,447.34479 C 272.96637,446.58062 273.04314,445.82473 273.51656,445.17126 C 274.50987,444.43635 275.23488,443.01996 276.73856,443.002 C 277.30605,443.33317 277.76402,443.2968 277.89298,444.15101 C 278.07683,444.7777 278.11204,445.42189 278.63153,445.88653 C 278.96987,446.31936 279.26231,446.84878 279.76537,447.09632 C 279.74908,447.10814 277.76561,449.09382 278.85229,447.36538 C 278.86165,446.67451 278.83389,445.98001 278.93023,445.29342 C 279.45708,443.98714 279.76027,443.45873 281.63622,442.95437 C 279.2268,444.40346 280.41763,444.06634 280.67383,442.75633 C 280.81253,442.14289 280.77745,441.53915 281.29932,441.0849 C 282.49283,440.36644 283.56364,439.54397 284.94278,439.28403 C 284.82628,439.36281 284.45214,439.5358 284.548,439.43289 C 284.77645,438.86544 284.99504,438.29402 285.27714,437.74966 C 285.76467,436.39192 286.07436,435.85091 287.96173,435.35545 C 288.6289,435.30666 289.29682,435.22005 289.97072,435.22611 C 290.5831,435.12353 291.21102,435.10251 291.78314,434.82235 C 294.68051,433.50807 287.35767,437.56664 293.46126,434.06114 C 294.08862,433.94464 294.69381,433.7069 295.36888,433.84036 C 296.08185,433.84074 296.79484,433.84331 297.50778,433.8356 C 298.18924,433.81165 298.8737,433.82061 299.55052,433.72191 C 300.20753,433.62081 300.86544,433.45758 301.53347,433.54801 C 302.30227,433.67579 303.084,433.74522 303.77756,434.14192 C 304.38433,434.30154 304.92199,434.58336 305.5867,434.45307 C 306.08156,434.70385 306.60898,434.7868 306.95291,435.32358 C 307.3848,435.65287 307.74648,436.09396 308.32405,436.15734 C 308.98437,436.13728 309.62532,436.00841 310.25488,436.29701 C 310.76422,436.56847 311.2666,436.90859 311.8487,436.96847 C 312.5354,436.90647 313.2304,436.87862 313.91407,436.75752 C 314.5285,436.84852 315.15843,436.79816 315.6978,437.19173 C 316.15334,437.42981 316.5613,437.76821 317.07876,437.88579 C 316.92884,438.01209 316.48822,438.40159 316.63393,438.27046 C 318.69954,437.0684 318.4484,436.77542 320.08,437.13977 C 320.51671,437.54047 320.94234,437.9697 321.43112,438.30797 C 321.94938,438.66453 322.51913,438.91241 322.87967,439.46849 C 323.32499,439.93186 323.77084,440.39678 324.22969,440.84605 C 324.67554,441.17164 325.01011,441.60977 325.61302,441.56128 C 326.1094,441.53794 326.5728,441.26592 326.99591,441.64933 C 327.12485,442.26407 327.31804,442.91985 327.38641,443.5749 C 327.80771,444.12518 327.93582,444.69586 328.75643,444.84296 C 329.21662,445.21477 329.74218,445.51833 330.10751,446.0139 C 330.53618,446.41777 330.96885,446.81664 331.38422,447.23474 C 331.68099,447.5951 331.86423,448.06067 332.32068,448.25311 C 332.94968,448.1578 333.61268,448.11875 334.23986,447.92512 C 334.87164,448.13721 335.39755,448.05923 335.75285,448.78524 C 336.09022,449.32067 336.41959,449.8631 336.77698,450.38444 C 337.17048,450.89678 337.62152,451.33353 337.80294,451.98315 C 338.08561,452.83996 338.36609,453.63599 338.24235,454.5672 C 338.26169,455.59016 338.26387,456.61776 338.41746,457.63186 C 338.60646,458.27678 338.79802,458.92671 338.90934,459.59073 C 338.9429,460.41009 338.98057,461.23315 338.99231,462.05571 C 339.05093,462.72821 339.07594,463.40463 339.27913,464.05537 C 339.37151,464.65864 339.40092,465.28495 339.6604,465.84823 C 339.97063,466.41835 340.37907,466.92922 340.39006,467.61236 C 340.31223,468.29533 340.3478,468.99486 339.99459,469.61713 C 339.53126,470.21164 339.09391,470.83272 338.55611,471.37103 C 338.21664,471.81007 337.83831,472.22076 337.63782,472.74733 C 337.47552,473.62156 337.33613,474.50054 337.14417,475.3709 C 336.80098,476.62198 336.4792,477.88213 336.10119,479.12077 C 334.42964,480.37636 333.90319,481.60454 332.94978,479.57196 C 332.36738,478.31874 331.93533,477.03631 331.62984,475.68321 C 331.16988,474.2863 330.76567,472.84574 330.13087,471.52039 C 328.34813,470.80903 330.18172,470.57823 330.39045,470.29156 C 330.00852,470.84303 329.57474,471.16566 329.67869,471.92759 C 329.67852,472.71504 329.68309,473.50262 329.66339,474.2899 C 329.62209,474.98141 329.628,475.68084 329.39943,476.34544 C 329.18636,477.01161 328.86866,477.62779 328.95675,478.35687 C 328.95467,479.14327 328.94787,479.92979 328.96377,480.71611 C 329.00295,481.38483 328.98973,482.06384 329.22561,482.70259 C 329.4961,483.29566 329.77248,483.88476 330.04436,484.47783 C 330.2446,485.02639 330.46971,485.56932 330.63248,486.12812 C 330.28493,486.38735 328.93424,488.4186 328.26965,486.92684 C 327.60814,486.16822 326.96221,485.38963 326.13955,484.79416 C 325.3353,484.26592 324.54355,483.72601 323.56447,483.60244 C 322.93618,483.34704 322.40941,483.37254 322.11904,482.63233 C 321.90074,481.8408 321.68144,481.05031 321.47777,480.25331 C 321.27921,479.32931 321.08099,478.40854 321.01602,477.46247 C 320.98764,476.82489 321.03074,476.16728 320.77369,475.5683 C 321.28479,474.51997 315.85297,477.05729 321.31695,474.454 C 320.68534,474.88786 320.05195,475.32495 319.42107,475.76473 C 318.2138,476.52197 317.21385,477.5783 315.75006,477.46687 C 315.19668,477.09638 314.73552,477.07938 314.64222,476.2716 C 314.55319,475.64711 314.56688,474.99156 314.20728,474.44593 C 313.486,474.0686 312.85916,473.53046 311.94022,473.5722 C 311.1309,473.44478 310.31039,473.43209 309.62504,472.91903 C 309.13876,472.84987 308.66984,472.53537 308.12838,472.77694 C 307.54403,472.71722 306.94866,472.70184 306.36575,472.58063 C 304.31363,472.82215 305.92663,472.41224 306.51935,471.84056 C 306.61243,472.02579 306.38411,472.8621 307.09966,472.99538 C 307.59559,473.55498 308.12306,474.01694 308.24763,474.81128 C 308.3758,475.55971 308.49521,476.314 308.6963,477.04891 C 308.96775,477.63652 308.95589,478.11651 309.65664,478.40816 C 310.28043,478.62387 310.70962,478.96135 311.44225,478.71105 C 312.04511,478.61673 312.67791,478.40856 313.26653,478.60617 C 313.43178,479.24791 313.78821,479.8281 313.51365,480.59285 C 313.3687,481.38099 313.26043,482.17613 312.92743,482.91655 C 312.51959,483.40098 312.24051,483.98152 311.62354,484.28205 C 311.3155,484.9121 310.91846,485.32053 311.0955,486.13474 C 310.86294,487.63106 310.86855,487.83407 308.77733,488.57174 C 308.20225,488.48325 307.64971,488.25335 307.05422,488.40797 C 306.22475,488.57235 305.39544,488.73002 304.58726,488.98908 C 306.15544,487.94155 305.46093,488.52444 302.81024,489.867 C 302.27227,489.72701 301.70544,489.72675 301.2499,489.29003 C 300.93409,488.67675 300.45345,488.18072 300.52182,487.38669 C 300.41005,486.67359 300.26969,485.96283 300.28724,485.23787 C 300.18196,484.56482 300.21725,483.883 299.773,483.30944 C 299.24402,482.81594 298.72189,482.31089 298.15179,481.85608 C 297.72872,481.61075 297.39966,481.22382 296.87695,481.15427 C 296.30277,480.73688 295.69064,480.4983 295.43277,479.73738 C 295.24373,479.11501 295.14523,478.43442 294.62119,478.01373 C 294.05241,477.78951 293.44243,477.69355 293.0755,477.15629 C 292.88762,476.52675 292.5941,475.93607 292.59921,475.24371 C 292.39114,474.58629 292.18343,473.93029 291.94836,473.28085 C 291.81045,473.07617 291.83047,472.6006 291.4822,472.58901 L 293.21308,471.33145 z "
         id="path6212"
         style="fill:black;fill-opacity:1;stroke:black;stroke-width:1.10000002;stroke-linejoin:bevel;stroke-miterlimit:4;stroke-dasharray:none;stroke-opacity:1" />
      <path
         d="M 345.04378,464.73158 C 344.86142,465.05439 344.84679,465.4452 344.74844,465.80145 C 344.67437,466.47595 344.68782,467.15518 344.67436,467.83234 C 344.60855,468.51626 344.71947,469.1902 344.76839,469.86414 C 344.88462,470.38234 345.29603,470.71122 345.5865,471.12029 C 346.10984,471.68191 346.19375,472.402 346.36423,473.11267 C 346.56081,474.03072 346.31641,474.86273 346.1009,475.74234 C 345.84151,476.6027 345.84202,477.49531 345.80426,478.37856 C 346.00384,478.95478 344.74681,479.00589 344.16696,479.19464 C 344.14487,478.33365 344.38771,477.52106 344.59112,476.69502 C 344.79195,475.76459 345.43261,475.13383 346.03332,474.44275 C 346.54617,473.87521 346.54814,473.17937 346.69932,472.48494 C 346.82844,471.82178 346.6555,471.19288 346.57575,470.54518 C 346.39088,469.92671 346.18723,469.31536 345.99692,468.6997 C 345.80387,468.20438 345.40406,467.85637 345.09117,467.44582 C 344.69362,467.24355 344.47563,466.84577 344.17631,466.55398 L 346.01063,465.48633 C 346.30449,465.769 346.54697,466.12753 346.91007,466.35151 C 347.23579,466.7838 347.65004,467.15217 347.84999,467.67251 C 348.04288,468.29781 348.24647,468.91935 348.44344,469.54449 C 348.53256,470.21151 348.71688,470.85698 348.59246,471.54141 C 348.45846,472.26915 348.46936,473.00053 347.97436,473.61535 C 347.38023,474.27924 346.72526,474.89719 346.49036,475.78559 C 346.28247,476.59871 346.025,477.39929 346.06836,478.24987 C 345.64345,478.61056 344.14785,480.94303 343.92782,479.34923 C 343.95771,478.44696 343.94598,477.53354 344.19892,476.65091 C 344.42654,475.79917 344.68249,474.99605 344.49712,474.10171 C 344.34235,473.42299 344.27585,472.74304 343.76695,472.21373 C 343.45798,471.77306 343.02882,471.41604 342.89977,470.8628 C 342.84346,470.1754 342.71632,469.49064 342.78965,468.79124 C 342.80004,468.10793 342.78888,467.42332 342.848,466.74168 C 342.93382,466.43373 342.84333,465.86388 343.13749,465.70289 L 345.04378,464.73158 z "
         id="path6214"
         style="fill:black;fill-opacity:1;stroke:black;stroke-width:1.10000002;stroke-linejoin:bevel;stroke-miterlimit:4;stroke-dasharray:none;stroke-opacity:1" />
      <path
         d="M 344.28451,459.90288 C 344.45594,459.84208 344.54726,460.05149 344.65857,460.11445 L 342.84785,461.23769 C 342.75907,461.21438 342.66984,461.10128 342.55363,461.16044 L 344.28451,459.90288 z "
         id="path6216"
         style="fill:black;fill-opacity:1;stroke:black;stroke-width:1.10000002;stroke-linejoin:bevel;stroke-miterlimit:4;stroke-dasharray:none;stroke-opacity:1" />
      <path
         d="M 339.68664,484.73158 C 339.57111,485.13496 339.14629,485.38501 338.86057,485.6752 C 338.38561,486.01877 337.97003,486.43073 337.53651,486.82063 C 337.10318,487.30322 336.69815,487.81161 336.28468,488.31169 C 335.80287,488.74848 335.98757,489.32892 335.89805,489.83424 C 336.39005,490.22294 337.04409,490.21196 337.63987,490.31987 C 338.15325,490.62836 338.72538,490.76501 339.28473,490.95379 C 341.53302,490.82391 339.18377,491.55248 339.17041,491.55891 C 339.61613,490.97329 339.45871,490.34031 339.48983,489.6788 C 339.3489,488.95675 339.16103,488.24321 338.99936,487.52449 C 339.06765,486.86012 338.76081,486.29765 338.58783,485.73495 L 340.4065,484.64053 C 340.60392,485.24867 340.95639,485.81347 340.86604,486.53216 C 341.02392,487.25522 341.2079,487.97169 341.36121,488.69448 C 341.38823,489.40663 341.49204,490.06757 341.1206,490.72997 C 339.77497,491.61035 339.0641,492.57077 337.53334,492.1441 C 336.98398,491.95025 336.42345,491.79988 335.90292,491.52933 C 335.22575,491.38741 334.52989,491.41696 334.03741,490.85766 C 334.0561,490.25788 333.87596,489.69392 334.33517,489.14337 C 334.75331,488.6433 335.16043,488.13517 335.58098,487.63725 C 336.00727,487.23089 336.41275,486.80828 336.89167,486.45902 C 337.16729,486.20366 337.51088,485.91177 337.78035,485.70289 L 339.68664,484.73158 z "
         id="path6218"
         style="fill:black;fill-opacity:1;stroke:black;stroke-width:1.10000002;stroke-linejoin:bevel;stroke-miterlimit:4;stroke-dasharray:none;stroke-opacity:1" />
      <path
         d="M 318.88574,502.31272 C 318.34423,502.55146 317.79479,502.38921 317.23627,502.37122 C 316.54203,502.24006 315.83485,502.29713 315.14198,502.29098 C 315.10492,502.21105 315.31532,502.32269 315.40199,502.33855 C 314.92381,503.01234 314.85281,503.79548 314.71923,504.57976 C 314.65605,505.30891 314.66902,506.04132 314.66696,506.77231 C 314.64403,507.46921 314.6907,508.1671 314.71186,508.8605 C 314.98232,509.50231 315.44097,509.38565 316.02782,509.53758 C 316.97542,509.58769 317.92516,509.57116 318.87369,509.56854 C 320.04203,509.7154 320.93078,509.36411 321.93497,508.83618 C 320.44632,509.86559 322.22705,508.54102 322.65804,508.22589 C 323.50448,507.04504 324.99268,506.68348 326.19982,506.08215 C 326.88648,505.89864 327.41982,506.21739 328.04154,506.42122 C 328.63539,506.83337 329.13004,506.61292 329.71276,506.603 C 326.70411,508.76923 328.94066,506.60398 329.56118,505.80735 C 330.15786,505.09593 330.87826,504.50941 331.57357,503.90056 C 332.14112,503.50549 332.33624,502.91141 332.65164,502.35734 C 332.86989,501.78619 332.56355,501.29745 332.45755,500.76225 C 332.16139,500.02905 332.21803,499.27051 332.2242,498.50068 C 332.22379,497.84977 331.69704,497.69761 331.33323,497.31121 C 330.84974,496.99592 330.27068,496.95394 329.72168,496.83572 C 329.18321,496.57426 329.02976,496.02948 328.77566,495.53137 C 328.40981,495.50772 329.32484,495.02959 329.65578,494.87184 C 329.27441,495.36127 328.98802,495.90845 328.67312,496.43991 C 328.02621,497.57026 326.38363,497.72532 325.47864,498.08937 C 324.85834,497.87476 324.49112,497.31102 324.05233,496.85647 C 323.61732,496.30693 323.64033,495.64462 323.52526,494.99621 C 323.80052,494.14611 322.80862,494.53584 322.62338,494.41684 C 323.10536,494.42156 324.38223,492.81167 323.66777,494.66841 C 323.59646,495.3544 323.09641,495.64375 322.66641,496.0934 C 321.46703,497.01591 320.63867,497.25269 319.35704,497.50875 C 319.26967,497.54334 319.1823,497.57793 319.09493,497.61252 C 319.62561,497.31296 320.15068,497.00323 320.68697,496.71382 C 321.05217,496.51674 320.12087,497.32078 319.83783,497.62426 C 319.51123,498.21916 319.04116,498.70863 318.6159,499.22909 C 318.58294,499.20714 318.27735,499.64623 318.27119,499.65382 L 316.3283,500.50459 C 316.43846,500.35075 316.50124,500.16299 316.65877,500.04308 C 317.08971,499.53662 317.5796,499.0695 317.90152,498.47659 C 318.76586,497.40217 319.40544,496.56386 321.02979,496.20516 C 321.95572,496.0254 323.90535,495.35311 320.69783,496.87924 C 321.134,496.488 321.64327,496.22572 321.7667,495.60094 C 322.17541,494.1758 322.32406,493.76866 324.31662,493.13427 C 324.82824,493.42028 325.33373,493.08679 325.40344,494.02147 C 325.5014,494.62905 325.4666,495.24919 325.86891,495.7657 C 326.28474,496.18921 326.61698,496.71928 327.22229,496.8795 C 327.05752,497.01737 326.58339,497.45393 326.73745,497.30418 C 327.04874,496.76102 327.34912,496.2167 327.70478,495.70093 C 328.67115,495.0449 329.55431,493.65678 330.60722,494.45881 C 330.86467,494.89262 330.94298,495.44353 331.46667,495.63245 C 332.03885,495.76773 332.63594,495.80454 333.12459,496.17277 C 333.56738,496.60453 334.04379,496.83531 334.10496,497.53929 C 334.0903,498.28326 334.02842,499.01737 334.30959,499.72746 C 334.46331,500.30225 334.73741,500.83 334.56552,501.44861 C 334.27091,502.05494 334.12316,502.67107 333.52812,503.10577 C 332.83106,503.70869 332.11564,504.29435 331.49467,504.98009 C 330.44363,506.34438 329.8567,507.1988 328.0423,507.907 C 327.44853,507.85517 326.8542,507.98035 326.28067,507.60291 C 325.67631,507.42938 325.17632,507.14489 324.51898,507.36363 C 324.55075,507.38603 324.63954,507.40125 324.6143,507.43082 C 321.0561,510.14229 323.26819,508.16612 320.30093,510.14904 C 319.27501,510.64196 318.34171,510.93956 317.17618,510.80296 C 316.21883,510.80696 315.25921,510.83173 314.30365,510.76123 C 313.6409,510.52959 313.12906,510.61873 312.83826,509.84777 C 312.8122,509.14645 312.75315,508.43916 312.78323,507.73274 C 312.78425,506.99484 312.77191,506.25583 312.82731,505.51932 C 312.94988,504.70864 313.01481,503.89504 313.46179,503.1766 C 314.32288,502.11926 315.38786,501.17992 316.84247,501.02898 C 317.54729,501.05246 318.25882,501.03035 318.96072,501.14542 C 319.50501,501.13312 320.04747,501.28456 320.55322,500.9789 L 318.88574,502.31272 z "
         id="path6220"
         style="fill:black;fill-opacity:1;stroke:black;stroke-width:1.10000002;stroke-linejoin:bevel;stroke-miterlimit:4;stroke-dasharray:none;stroke-opacity:1" />
      <path
         d="M 333.87491,505.17203 C 334.33504,504.33671 334.90643,503.57012 335.44874,502.78789 C 336.09417,502.07595 336.3533,501.22986 336.6302,500.34754 C 336.70252,499.63102 336.76036,498.91454 336.82861,498.19837 C 336.84966,497.60084 337.05807,497.03343 337.1788,496.46443 C 339.48395,495.00525 339.15832,495.18333 339.30859,496.76153 C 339.2996,497.4567 339.33909,498.15304 339.35877,498.84511 C 339.51527,499.65162 339.56347,500.47103 339.63095,501.28764 C 339.73334,502.0216 339.33763,502.37483 339.00618,502.9237 C 338.14818,503.86824 336.81116,504.16478 335.73473,504.66732 C 335.6206,504.61668 335.98161,504.62987 336.10505,504.61115 C 335.85657,504.93865 335.60713,505.26527 335.35822,505.59227 L 333.40692,506.42037 C 333.65465,506.0918 333.93907,505.78711 334.15237,505.43163 C 335.18092,504.7247 336.0612,503.55332 337.42695,503.39285 C 337.29352,503.49833 336.91494,503.84084 337.04151,503.72722 C 337.34566,503.22428 337.88601,502.99389 337.75632,502.25683 C 337.69351,501.44541 337.65418,500.63024 337.48495,499.83113 C 337.46067,499.134 337.40899,498.43122 337.4254,497.72946 C 338.77572,496.07549 333.88498,497.45598 339.14124,495.62777 C 339.00519,496.11934 338.68054,496.67932 338.72776,497.26897 C 338.66341,497.98697 338.56963,498.70291 338.53126,499.42551 C 338.27149,500.34288 338.03806,501.22007 337.37029,501.95734 C 336.83645,502.72304 336.27093,503.47499 335.82037,504.29184 L 333.87491,505.17203 z "
         id="path6222"
         style="fill:black;fill-opacity:1;stroke:black;stroke-width:1.10000002;stroke-linejoin:bevel;stroke-miterlimit:4;stroke-dasharray:none;stroke-opacity:1" />
      <path
         d="M 264.9832,454.75303 C 265.01391,455.12537 264.9408,455.49026 264.91161,455.85681 C 264.85459,456.27007 264.52515,456.50794 264.30918,456.81696 C 263.91436,457.03906 263.90817,457.39792 263.76461,457.76752 C 263.65958,458.20349 263.7471,458.63998 263.77255,459.06914 C 264.03912,459.08249 264.36089,459.02351 264.64102,458.98419 C 265.13614,459.03648 265.63111,459.08821 266.12686,459.13494 C 266.288,459.20003 265.77894,459.15141 265.60734,459.17895 C 265.69033,458.69191 265.67078,458.1957 265.6743,457.70372 C 265.71742,457.15476 265.63646,456.61242 265.59848,456.0704 C 265.53952,455.67627 265.24859,455.42897 265.05826,455.11785 C 265.01466,455.08158 264.97106,455.04532 264.92745,455.00906 L 266.20144,454.21522 C 266.24836,454.25688 266.29527,454.29855 266.34219,454.34021 C 266.55981,454.67227 266.83804,454.95112 266.91947,455.36651 C 266.97593,455.91816 267.03901,456.46612 267.00414,457.02552 C 267.004,457.52657 267.02219,458.03017 266.9574,458.52844 C 266.44422,458.97851 266.03149,460.23706 264.91044,460.00427 C 264.42095,459.95516 263.93071,459.88735 263.43904,459.87784 C 263.08104,459.90986 262.73305,460.05554 262.45239,459.78741 C 262.41843,459.33757 262.3176,458.88471 262.41898,458.42546 C 262.53906,458.02829 262.52609,457.63117 262.91487,457.37223 C 263.13898,457.0993 263.48624,456.90631 263.56303,456.51038 C 263.5965,456.1547 263.69174,455.80397 263.63525,455.43985 L 264.9832,454.75303 z "
         id="path6251"
         style="fill:black;fill-opacity:1;stroke:black;stroke-width:1.10000002;stroke-linejoin:bevel;stroke-miterlimit:4;stroke-dasharray:none;stroke-opacity:1" />
      <path
         d="M 258.86884,456.77354 C 259.03443,456.60603 259.34056,456.78738 259.57545,456.76982 C 259.2845,457.25172 259.98243,457.20765 260.12568,457.36174 C 259.97766,457.58411 261.09768,456.91987 260.86228,457.04613 C 260.48645,457.25312 260.11062,457.4601 259.73479,457.66708 C 259.77574,457.61826 259.81668,457.56944 259.85763,457.52061 C 259.99936,457.35299 259.99186,457.12414 260.05766,456.92983 L 261.40345,456.27365 C 261.34721,456.48881 261.35451,456.72663 261.2334,456.92424 C 260.52796,457.41205 259.82042,458.14181 258.8933,458.21488 C 258.47575,457.94713 258.20037,458.01157 258.21875,457.40477 C 258.68569,456.53008 258.70137,456.28142 260.09275,455.88431 L 258.86884,456.77354 z "
         id="path6253"
         style="fill:black;fill-opacity:1;stroke:black;stroke-width:1.10000002;stroke-linejoin:bevel;stroke-miterlimit:4;stroke-dasharray:none;stroke-opacity:1" />
      <flowRoot
         transform="translate(-75.457,88.40939)"
         style="font-size:55px;font-family:Arial Black"
         id="flowRoot6364"
         xml:space="preserve"><flowRegion
           id="flowRegion6366"><rect
             style="font-size:55px;font-family:Arial Black"
             y="69.505043"
             x="325.71429"
             height="91.428574"
             width="62.857143"
             id="rect6368" /></flowRegion><flowPara
           id="flowPara6370">N++</flowPara></flowRoot>      <path
         id="path1891"
         d="M 175.37677,496.61717 L 175.37677,461.85482 L 133.41435,478.84097 L 175.37677,496.61717 z "
         style="fill:black;fill-opacity:1;fill-rule:evenodd;stroke:black;stroke-width:2.48766303px;stroke-linecap:butt;stroke-linejoin:miter;stroke-opacity:1" />
      <path
         id="path1893"
         d="M 371.52228,494.726 L 371.52228,459.96519 L 413.538,476.95059 L 371.52228,494.726 z "
         style="fill:black;fill-opacity:1;fill-rule:evenodd;stroke:black;stroke-width:2.48918891px;stroke-linecap:butt;stroke-linejoin:miter;stroke-opacity:1" />
      <flowRoot
         transform="translate(92.5653,179.5179)"
         style="font-size:56px;font-family:Arial Black"
         id="flowRoot2798"
         xml:space="preserve"><flowRegion
           id="flowRegion2800"><rect
             style="font-size:56px;font-family:Arial Black"
             y="270.93362"
             x="321.42856"
             height="74.285713"
             width="68.571426"
             id="rect2802" /></flowRegion><flowPara
           id="flowPara2804">E</flowPara></flowRoot>    </g>
  </g>
</svg>
