<?xml version="1.0" encoding="UTF-8" standalone="no"?>
<!-- Created with Inkscape (http://www.inkscape.org/) -->
<svg
   xmlns:dc="http://purl.org/dc/elements/1.1/"
   xmlns:cc="http://web.resource.org/cc/"
   xmlns:rdf="http://www.w3.org/1999/02/22-rdf-syntax-ns#"
   xmlns:svg="http://www.w3.org/2000/svg"
   xmlns="http://www.w3.org/2000/svg"
   xmlns:sodipodi="http://sodipodi.sourceforge.net/DTD/sodipodi-0.dtd"
   xmlns:inkscape="http://www.inkscape.org/namespaces/inkscape"
   width="744.09448819"
   height="1052.3622047"
   id="svg2"
   sodipodi:version="0.32"
   inkscape:version="0.44.1"
   sodipodi:docbase="F:\QGIS_N_ARROWS\TOT"
   sodipodi:docname="FINALE.svg">
  <defs
     id="defs4" />
  <sodipodi:namedview
     id="base"
     pagecolor="#ffffff"
     bordercolor="#666666"
     borderopacity="1.0"
     inkscape:pageopacity="0.0"
     inkscape:pageshadow="2"
     inkscape:zoom="0.7"
     inkscape:cx="177.76772"
     inkscape:cy="520"
     inkscape:document-units="px"
     inkscape:current-layer="layer1"
     showgrid="true"
     inkscape:window-width="1280"
     inkscape:window-height="744"
     inkscape:window-x="-4"
     inkscape:window-y="-4" />
  <metadata
     id="metadata7">
    <rdf:RDF>
      <cc:Work
         rdf:about="">
        <dc:format>image/svg+xml</dc:format>
        <dc:type
           rdf:resource="http://purl.org/dc/dcmitype/StillImage" />
      </cc:Work>
    </rdf:RDF>
  </metadata>
  <g
     inkscape:label="Livello 1"
     inkscape:groupmode="layer"
     id="layer1">
    <g
       id="g3039"
       transform="translate(248.5297,-119.198)"
       inkscape:export-filename="F:\QGIS_N_ARROWS\TOT\FINALE.png"
       inkscape:export-xdpi="300"
       inkscape:export-ydpi="300">
      <path
         transform="matrix(1.592735,0,0,1.283951,-351.091,-141.3486)"
         d="M 298.50007 514.45593 A 12.121831 12.121831 0 1 1  274.2564,514.45593 A 12.121831 12.121831 0 1 1  298.50007 514.45593 z"
         sodipodi:ry="12.121831"
         sodipodi:rx="12.121831"
         sodipodi:cy="514.45593"
         sodipodi:cx="286.37823"
         id="path1872"
         style="opacity:0.97000002;fill:black;fill-opacity:1;stroke:black;stroke-width:9.39999962;stroke-linecap:square;stroke-linejoin:miter;stroke-miterlimit:4;stroke-dasharray:none;stroke-opacity:1"
         sodipodi:type="arc" />
      <flowRoot
         xml:space="preserve"
         id="flowRoot2029"
         style="font-size:56px;font-family:Arial Black"
         transform="matrix(1.276681,0,0,1.230352,-146.6214,158.5742)"><flowRegion
           id="flowRegion2031"><rect
             id="rect2033"
             width="68.571426"
             height="74.285713"
             x="321.42856"
             y="270.93362"
             style="font-size:56px;font-family:Arial Black" /></flowRegion><flowPara
           id="flowPara2035">E</flowPara></flowRoot>      <flowRoot
         xml:space="preserve"
         id="flowRoot2037"
         style="font-size:56px;font-family:Arial Black"
         transform="matrix(1.276681,0,0,1.230352,-329.281,338.3943)"><flowRegion
           id="flowRegion2039"><rect
             id="rect2041"
             width="68.571426"
             height="74.285713"
             x="321.42856"
             y="270.93362"
             style="font-size:56px;font-family:Arial Black" /></flowRegion><flowPara
           id="flowPara2043">S</flowPara></flowRoot>      <flowRoot
         xml:space="preserve"
         id="flowRoot2045"
         style="font-size:56px;font-family:Arial Black"
         transform="matrix(1.276681,0,0,1.230352,-338.9105,-24.89189)"><flowRegion
           id="flowRegion2047"><rect
             id="rect2049"
             width="68.571426"
             height="74.285713"
             x="321.42856"
             y="270.93362"
             style="font-size:56px;font-family:Arial Black" /></flowRegion><flowPara
           id="flowPara2051">N</flowPara></flowRoot>      <flowRoot
         xml:space="preserve"
         id="flowRoot2053"
         style="font-size:56px;font-family:Arial Black"
         transform="matrix(1.276681,0,0,1.230352,-538.8679,159.7193)"><flowRegion
           id="flowRegion2055"><rect
             id="rect2057"
             width="68.571426"
             height="74.285713"
             x="321.42856"
             y="270.93362"
             style="font-size:56px;font-family:Arial Black" /></flowRegion><flowPara
           id="flowPara2059">W</flowPara></flowRoot>      <g
         transform="matrix(1.137542,1.182307,-3.626093,3.768791,1688.237,-1985.645)"
         id="g2102">
        <path
           style="fill:black;fill-opacity:1;fill-rule:evenodd;stroke-width:1px;stroke-linecap:butt;stroke-linejoin:miter;stroke-opacity:1"
           d="M 365,547.36218 L 365,522.36218 L 355,542.36218 L 365,547.36218 z "
           id="path2104" />
        <path
           style="fill:black;fill-opacity:1;fill-rule:evenodd;stroke-width:1px;stroke-linecap:butt;stroke-linejoin:miter;stroke-opacity:1"
           d="M 364.91071,547.36218 L 364.91071,522.36218 L 374.91071,542.36218 L 364.91071,547.36218 z "
           id="path2106" />
      </g>
      <g
         transform="matrix(1.640381,3.165364e-2,0.100903,5.228973,-549.7224,-2372.035)"
         id="g2108">
        <path
           style="fill:black;fill-opacity:1;fill-rule:evenodd;stroke-width:1px;stroke-linecap:butt;stroke-linejoin:miter;stroke-opacity:1"
           d="M 365,547.36218 L 365,522.36218 L 355,542.36218 L 365,547.36218 z "
           id="path2110" />
        <path
           style="fill:black;fill-opacity:1;fill-rule:evenodd;stroke-width:1px;stroke-linecap:butt;stroke-linejoin:miter;stroke-opacity:1"
           d="M 364.91071,547.36218 L 364.91071,522.36218 L 374.91071,542.36218 L 364.91071,547.36218 z "
           id="path2112" />
      </g>
      <g
         transform="matrix(-1.182307,1.137542,-3.768791,-3.626093,2612.273,2101.293)"
         id="g2114">
        <path
           style="fill:black;fill-opacity:1;fill-rule:evenodd;stroke-width:1px;stroke-linecap:butt;stroke-linejoin:miter;stroke-opacity:1"
           d="M 365,547.36218 L 365,522.36218 L 355,542.36218 L 365,547.36218 z "
           id="path2116" />
        <path
           style="fill:black;fill-opacity:1;fill-rule:evenodd;stroke-width:1px;stroke-linecap:butt;stroke-linejoin:miter;stroke-opacity:1"
           d="M 364.91071,547.36218 L 364.91071,522.36218 L 374.91071,542.36218 L 364.91071,547.36218 z "
           id="path2118" />
      </g>
      <g
         transform="matrix(-1.137542,-1.182307,3.626093,-3.768791,-1479.685,3027.492)"
         id="g2120">
        <path
           style="fill:black;fill-opacity:1;fill-rule:evenodd;stroke-width:1px;stroke-linecap:butt;stroke-linejoin:miter;stroke-opacity:1"
           d="M 365,547.36218 L 365,522.36218 L 355,542.36218 L 365,547.36218 z "
           id="path2122" />
        <path
           style="fill:black;fill-opacity:1;fill-rule:evenodd;stroke-width:1px;stroke-linecap:butt;stroke-linejoin:miter;stroke-opacity:1"
           d="M 364.91071,547.36218 L 364.91071,522.36218 L 374.91071,542.36218 L 364.91071,547.36218 z "
           id="path2124" />
      </g>
      <g
         transform="matrix(-1.137542,1.182307,3.626093,3.768791,-1480.737,-1986.34)"
         id="g2126">
        <path
           style="fill:black;fill-opacity:1;fill-rule:evenodd;stroke-width:1px;stroke-linecap:butt;stroke-linejoin:miter;stroke-opacity:1"
           d="M 365,547.36218 L 365,522.36218 L 355,542.36218 L 365,547.36218 z "
           id="path2128" />
        <path
           style="fill:black;fill-opacity:1;fill-rule:evenodd;stroke-width:1px;stroke-linecap:butt;stroke-linejoin:miter;stroke-opacity:1"
           d="M 364.91071,547.36218 L 364.91071,522.36218 L 374.91071,542.36218 L 364.91071,547.36218 z "
           id="path2130" />
      </g>
      <g
         transform="matrix(3.165364e-2,-1.640381,5.228973,-0.100903,-2792.968,1177.897)"
         id="g2132">
        <path
           style="fill:black;fill-opacity:1;fill-rule:evenodd;stroke-width:1px;stroke-linecap:butt;stroke-linejoin:miter;stroke-opacity:1"
           d="M 365,547.36218 L 365,522.36218 L 355,542.36218 L 365,547.36218 z "
           id="path2134" />
        <path
           style="fill:black;fill-opacity:1;fill-rule:evenodd;stroke-width:1px;stroke-linecap:butt;stroke-linejoin:miter;stroke-opacity:1"
           d="M 364.91071,547.36218 L 364.91071,522.36218 L 374.91071,542.36218 L 364.91071,547.36218 z "
           id="path2136" />
      </g>
      <g
         transform="matrix(-1.640381,-3.165364e-2,-0.100903,-5.228973,759.1061,3415.331)"
         id="g2138">
        <path
           style="fill:black;fill-opacity:1;fill-rule:evenodd;stroke-width:1px;stroke-linecap:butt;stroke-linejoin:miter;stroke-opacity:1"
           d="M 365,547.36218 L 365,522.36218 L 355,542.36218 L 365,547.36218 z "
           id="path2140" />
        <path
           style="fill:black;fill-opacity:1;fill-rule:evenodd;stroke-width:1px;stroke-linecap:butt;stroke-linejoin:miter;stroke-opacity:1"
           d="M 364.91071,547.36218 L 364.91071,522.36218 L 374.91071,542.36218 L 364.91071,547.36218 z "
           id="path2142" />
      </g>
      <g
         transform="matrix(-3.165364e-2,-1.640381,-5.228973,-0.100903,3002.968,1175.754)"
         id="g2144">
        <path
           style="fill:black;fill-opacity:1;fill-rule:evenodd;stroke-width:1px;stroke-linecap:butt;stroke-linejoin:miter;stroke-opacity:1"
           d="M 365,547.36218 L 365,522.36218 L 355,542.36218 L 365,547.36218 z "
           id="path2146" />
        <path
           style="fill:black;fill-opacity:1;fill-rule:evenodd;stroke-width:1px;stroke-linecap:butt;stroke-linejoin:miter;stroke-opacity:1"
           d="M 364.91071,547.36218 L 364.91071,522.36218 L 374.91071,542.36218 L 364.91071,547.36218 z "
           id="path2148" />
      </g>
      <path
         transform="matrix(1.053785,0,0,1.027923,819.2202,87.31735)"
         d="M -533.36052 422.02701 A 143.44167 143.44167 0 1 1  -820.24385,422.02701 A 143.44167 143.44167 0 1 1  -533.36052 422.02701 z"
         sodipodi:ry="143.44167"
         sodipodi:rx="143.44167"
         sodipodi:cy="422.02701"
         sodipodi:cx="-676.80219"
         id="path2150"
         style="opacity:0.97000002;fill:none;fill-opacity:1;stroke:black;stroke-width:7.27700138;stroke-linecap:square;stroke-linejoin:miter;stroke-miterlimit:4;stroke-dasharray:none;stroke-opacity:1"
         sodipodi:type="arc" />
    </g>
  </g>
</svg>
