<?xml version="1.0" encoding="UTF-8" standalone="no"?>
<!-- Created with Inkscape (http://www.inkscape.org/) -->
<svg
   xmlns:dc="http://purl.org/dc/elements/1.1/"
   xmlns:cc="http://web.resource.org/cc/"
   xmlns:rdf="http://www.w3.org/1999/02/22-rdf-syntax-ns#"
   xmlns:svg="http://www.w3.org/2000/svg"
   xmlns="http://www.w3.org/2000/svg"
   xmlns:sodipodi="http://sodipodi.sourceforge.net/DTD/sodipodi-0.dtd"
   xmlns:inkscape="http://www.inkscape.org/namespaces/inkscape"
   width="744.09448819"
   height="1052.3622047"
   id="svg2"
   sodipodi:version="0.32"
   inkscape:version="0.44.1"
   sodipodi:docbase="F:\QGIS_N_ARROWS\TOT"
   sodipodi:docname="FINALE.svg"
   inkscape:export-filename="F:\QGIS_N_ARROWS\TOT\FINALE.png"
   inkscape:export-xdpi="300"
   inkscape:export-ydpi="300">
  <defs
     id="defs4" />
  <sodipodi:namedview
     id="base"
     pagecolor="#ffffff"
     bordercolor="#666666"
     borderopacity="1.0"
     inkscape:pageopacity="0.0"
     inkscape:pageshadow="2"
     inkscape:zoom="0.7"
     inkscape:cx="422.4804"
     inkscape:cy="525.10526"
     inkscape:document-units="px"
     inkscape:current-layer="layer1"
     showgrid="true"
     inkscape:window-width="1280"
     inkscape:window-height="744"
     inkscape:window-x="-4"
     inkscape:window-y="-4" />
  <metadata
     id="metadata7">
    <rdf:RDF>
      <cc:Work
         rdf:about="">
        <dc:format>image/svg+xml</dc:format>
        <dc:type
           rdf:resource="http://purl.org/dc/dcmitype/StillImage" />
      </cc:Work>
    </rdf:RDF>
  </metadata>
  <g
     inkscape:label="Livello 1"
     inkscape:groupmode="layer"
     id="layer1">
    <g
       id="g9071">
      <flowRoot
         transform="matrix(1.005509,0,0,1.005509,213.5616,229.4051)"
         style="font-size:56px;font-family:Arial Black"
         id="flowRoot2798"
         xml:space="preserve"><flowRegion
           id="flowRegion2800"><rect
             style="font-size:56px;font-family:Arial Black"
             y="270.93362"
             x="321.42856"
             height="74.285713"
             width="68.571426"
             id="rect2802" /></flowRegion><flowPara
           id="flowPara2804">E</flowPara></flowRoot>      <flowRoot
         transform="matrix(1.005509,0,0,1.005509,64.42266,84.16993)"
         style="font-size:56px;font-family:Arial Black"
         id="flowRoot2790"
         xml:space="preserve"><flowRegion
           id="flowRegion2792"><rect
             style="font-size:56px;font-family:Arial Black"
             y="270.93362"
             x="321.42856"
             height="74.285713"
             width="68.571426"
             id="rect2794" /></flowRegion><flowPara
           id="flowPara2796">N</flowPara></flowRoot>      <flowRoot
         transform="matrix(1.005509,0,0,1.005509,67.94369,377.9957)"
         style="font-size:56px;font-family:Arial Black"
         id="flowRoot1980"
         xml:space="preserve"><flowRegion
           id="flowRegion1982"><rect
             style="font-size:56px;font-family:Arial Black"
             y="270.93362"
             x="321.42856"
             height="74.285713"
             width="68.571426"
             id="rect1984" /></flowRegion><flowPara
           id="flowPara1986">S</flowPara></flowRoot>      <flowRoot
         transform="matrix(1.005509,0,0,1.005509,-96.24449,232.1767)"
         style="font-size:56px;font-family:Arial Black"
         id="flowRoot1988"
         xml:space="preserve"><flowRegion
           id="flowRegion1990"><rect
             style="font-size:56px;font-family:Arial Black"
             y="270.93362"
             x="321.42856"
             height="74.285713"
             width="68.571426"
             id="rect1992" /></flowRegion><flowPara
           id="flowPara1994">W</flowPara></flowRoot>      <g
         transform="translate(75.71429,35.71429)"
         id="g8901">
        <g
           id="g7056"
           transform="matrix(0.913314,0,0,0.870761,49.74248,-3.284198)">
          <path
             transform="matrix(0.93543,0,0,0.902583,-251.0718,133.9098)"
             d="M 705.08646 481.62601 A 103.54063 110.10663 0 1 1  498.00521,481.62601 A 103.54063 110.10663 0 1 1  705.08646 481.62601 z"
             sodipodi:ry="110.10663"
             sodipodi:rx="103.54063"
             sodipodi:cy="481.62601"
             sodipodi:cx="601.54584"
             id="path4266"
             style="opacity:0.97000002;fill:none;fill-opacity:1;stroke:black;stroke-width:4.8201046;stroke-linecap:square;stroke-linejoin:miter;stroke-miterlimit:4;stroke-dasharray:none;stroke-opacity:1"
             sodipodi:type="arc" />
          <g
             transform="translate(-2.0203,34.36693)"
             id="g5203">
            <g
               id="g5153"
               transform="matrix(0.649211,0,0,0.650927,101.3467,196.6624)">
              <path
                 transform="matrix(0.87031,0,0,0.875059,-76.20417,89.64063)"
                 d="M 510.71429 493.43362 A 43.214287 43.214287 0 1 1  424.28571,493.43362 A 43.214287 43.214287 0 1 1  510.71429 493.43362 z"
                 sodipodi:ry="43.214287"
                 sodipodi:rx="43.214287"
                 sodipodi:cy="493.43362"
                 sodipodi:cx="467.5"
                 id="path2458"
                 style="opacity:0.97000002;fill:none;fill-opacity:1;stroke:black;stroke-width:9.5;stroke-linecap:square;stroke-linejoin:miter;stroke-miterlimit:4;stroke-dasharray:none;stroke-opacity:1"
                 sodipodi:type="arc" />
              <path
                 id="path3345"
                 d="M 329.9926,484.23338 L 329.9926,559.58953"
                 style="fill:none;fill-rule:evenodd;stroke:black;stroke-width:1.57082582;stroke-linecap:butt;stroke-linejoin:miter;stroke-miterlimit:4;stroke-dasharray:none;stroke-opacity:1" />
              <path
                 id="path4232"
                 d="M 369.37143,520.25407 L 294.42428,520.25407"
                 style="fill:none;fill-rule:evenodd;stroke:black;stroke-width:1.57082582;stroke-linecap:butt;stroke-linejoin:miter;stroke-miterlimit:4;stroke-dasharray:none;stroke-opacity:1" />
              <path
                 id="path4234"
                 d="M 358.83525,491.89716 L 305.83961,545.18201"
                 style="fill:none;fill-rule:evenodd;stroke:black;stroke-width:1.57082582;stroke-linecap:butt;stroke-linejoin:miter;stroke-miterlimit:4;stroke-dasharray:none;stroke-opacity:1" />
              <path
                 id="path4238"
                 d="M 304.66659,495.60051 L 357.66223,548.88535"
                 style="fill:none;fill-rule:evenodd;stroke:black;stroke-width:1.57082582;stroke-linecap:butt;stroke-linejoin:miter;stroke-miterlimit:4;stroke-dasharray:none;stroke-opacity:1" />
              <path
                 transform="matrix(0.87031,0,0,0.875059,34.08737,73.38953)"
                 d="M 355.71429 510.57648 A 15.357142 15.357142 0 1 1  325,510.57648 A 15.357142 15.357142 0 1 1  355.71429 510.57648 z"
                 sodipodi:ry="15.357142"
                 sodipodi:rx="15.357142"
                 sodipodi:cy="510.57648"
                 sodipodi:cx="340.35715"
                 id="path2456"
                 style="opacity:0.97000002;fill:black;fill-opacity:1;stroke-width:0.30000001;stroke-linecap:square;stroke-linejoin:miter;stroke-miterlimit:4;stroke-dasharray:none;stroke-opacity:1"
                 sodipodi:type="arc" />
            </g>
            <g
               id="g5181"
               transform="translate(-1.428571,16.42857)">
              <path
                 id="path4250"
                 d="M 317.02424,493.83574 L 317.52932,443.91421 L 336.07336,499.98349 L 317.02424,493.83574 z "
                 style="fill:none;fill-rule:evenodd;stroke:black;stroke-width:1.82929599px;stroke-linecap:butt;stroke-linejoin:miter;stroke-opacity:1"
                 sodipodi:nodetypes="cccc" />
              <path
                 id="path4252"
                 d="M 315.56,493.45015 L 317.07523,443.91421 L 298.53118,499.98349 L 315.56,493.45015 z "
                 style="fill:black;fill-opacity:1;fill-rule:evenodd;stroke:black;stroke-width:1.82929599px;stroke-linecap:butt;stroke-linejoin:miter;stroke-opacity:1"
                 sodipodi:nodetypes="cccc" />
            </g>
            <g
               id="g5185"
               transform="matrix(0,-1,1,0,-204.0918,853.2359)">
              <path
                 id="path5187"
                 d="M 317.02424,493.83574 L 317.52932,443.91421 L 336.07336,499.98349 L 317.02424,493.83574 z "
                 style="fill:none;fill-rule:evenodd;stroke:black;stroke-width:1.82929599px;stroke-linecap:butt;stroke-linejoin:miter;stroke-opacity:1"
                 sodipodi:nodetypes="cccc" />
              <path
                 id="path5189"
                 d="M 315.56,493.45015 L 317.07523,443.91421 L 298.53118,499.98349 L 315.56,493.45015 z "
                 style="fill:black;fill-opacity:1;fill-rule:evenodd;stroke:black;stroke-width:1.82929599px;stroke-linecap:butt;stroke-linejoin:miter;stroke-opacity:1"
                 sodipodi:nodetypes="cccc" />
            </g>
            <g
               id="g5191"
               transform="matrix(0,1,-1,0,834.4488,217.9171)">
              <path
                 id="path5193"
                 d="M 317.02424,493.83574 L 317.52932,443.91421 L 336.07336,499.98349 L 317.02424,493.83574 z "
                 style="fill:none;fill-rule:evenodd;stroke:black;stroke-width:1.82929599px;stroke-linecap:butt;stroke-linejoin:miter;stroke-opacity:1"
                 sodipodi:nodetypes="cccc" />
              <path
                 id="path5195"
                 d="M 315.56,493.45015 L 317.07523,443.91421 L 298.53118,499.98349 L 315.56,493.45015 z "
                 style="fill:black;fill-opacity:1;fill-rule:evenodd;stroke:black;stroke-width:1.82929599px;stroke-linecap:butt;stroke-linejoin:miter;stroke-opacity:1"
                 sodipodi:nodetypes="cccc" />
            </g>
            <g
               id="g5197"
               transform="matrix(-1,0,0,-1,632.6165,1056.097)">
              <path
                 id="path5199"
                 d="M 317.02424,493.83574 L 317.52932,443.91421 L 336.07336,499.98349 L 317.02424,493.83574 z "
                 style="fill:none;fill-rule:evenodd;stroke:black;stroke-width:1.82929599px;stroke-linecap:butt;stroke-linejoin:miter;stroke-opacity:1"
                 sodipodi:nodetypes="cccc" />
              <path
                 id="path5201"
                 d="M 315.56,493.45015 L 317.07523,443.91421 L 298.53118,499.98349 L 315.56,493.45015 z "
                 style="fill:black;fill-opacity:1;fill-rule:evenodd;stroke:black;stroke-width:1.82929599px;stroke-linecap:butt;stroke-linejoin:miter;stroke-opacity:1"
                 sodipodi:nodetypes="cccc" />
            </g>
          </g>
          <path
             id="path5247"
             d="M 294.712,551.32652 L 247.99244,493.74783"
             style="fill:none;fill-rule:evenodd;stroke:black;stroke-width:1px;stroke-linecap:butt;stroke-linejoin:miter;stroke-opacity:1" />
          <path
             id="path5249"
             d="M 332.7521,550.46921 L 377.02834,496.40527"
             style="fill:none;fill-rule:evenodd;stroke:black;stroke-width:0.9433198px;stroke-linecap:butt;stroke-linejoin:miter;stroke-opacity:1" />
          <path
             id="path5251"
             d="M 331.90156,588.3036 L 380.9155,638.93739"
             style="fill:none;fill-rule:evenodd;stroke:black;stroke-width:0.96050525px;stroke-linecap:butt;stroke-linejoin:miter;stroke-opacity:1" />
          <path
             id="path5253"
             d="M 296.09924,587.86391 L 245.50173,641.39854"
             style="fill:none;fill-rule:evenodd;stroke:black;stroke-width:1.00346363px;stroke-linecap:butt;stroke-linejoin:miter;stroke-opacity:1" />
          <path
             id="path5255"
             d="M 387.64604,569.50926 L 408.35417,569.25673 L 408.35417,569.25673"
             style="fill:none;fill-rule:evenodd;stroke:black;stroke-width:1.29999995;stroke-linecap:butt;stroke-linejoin:miter;stroke-miterlimit:4;stroke-dasharray:none;stroke-opacity:1" />
          <path
             id="path6142"
             d="M 216.7474,570.59183 L 237.45553,570.3393 L 237.45553,570.3393"
             style="fill:none;fill-rule:evenodd;stroke:black;stroke-width:1.29999995;stroke-linecap:butt;stroke-linejoin:miter;stroke-miterlimit:4;stroke-dasharray:none;stroke-opacity:1" />
          <path
             id="path6144"
             d="M 313.85727,494.78042 L 313.62736,471.23776 L 313.62736,471.23776"
             style="fill:none;fill-rule:evenodd;stroke:black;stroke-width:1.32261062;stroke-linecap:butt;stroke-linejoin:miter;stroke-miterlimit:4;stroke-dasharray:none;stroke-opacity:1" />
          <path
             id="path6146"
             d="M 313.5261,666.23137 L 313.27357,645.52324 L 313.27357,645.52324"
             style="fill:none;fill-rule:evenodd;stroke:black;stroke-width:1.29999995;stroke-linecap:butt;stroke-linejoin:miter;stroke-miterlimit:4;stroke-dasharray:none;stroke-opacity:1" />
        </g>
        <path
           sodipodi:type="arc"
           style="opacity:0.97000002;fill:none;fill-opacity:1;stroke:black;stroke-width:5.82982922;stroke-linecap:square;stroke-linejoin:miter;stroke-miterlimit:4;stroke-dasharray:none;stroke-opacity:1"
           id="path7054"
           sodipodi:cx="612.65753"
           sodipodi:cy="514.45593"
           sodipodi:rx="101.52033"
           sodipodi:ry="101.52033"
           d="M 714.17786 514.45593 A 101.52033 101.52033 0 1 1  511.1372,514.45593 A 101.52033 101.52033 0 1 1  714.17786 514.45593 z"
           transform="matrix(1.024864,0,0,1.009938,-294.4041,-27.53248)" />
        <path
           sodipodi:type="arc"
           style="opacity:0.97000002;fill:none;fill-opacity:1;stroke:black;stroke-width:6.24100018;stroke-linecap:square;stroke-linejoin:miter;stroke-miterlimit:4;stroke-dasharray:none;stroke-opacity:1"
           id="path8857"
           sodipodi:cx="428.93604"
           sodipodi:cy="589.20721"
           sodipodi:rx="2.1465743"
           sodipodi:ry="4.2931485"
           d="M 431.08261 589.20721 A 2.1465743 4.2931485 0 1 1  426.78946,589.20721 A 2.1465743 4.2931485 0 1 1  431.08261 589.20721 z"
           transform="matrix(0.245116,0,0,1.112072,230.6493,-69.4339)" />
        <path
           sodipodi:type="arc"
           style="opacity:0.97000002;fill:none;fill-opacity:1;stroke:black;stroke-width:6.24100018;stroke-linecap:square;stroke-linejoin:miter;stroke-miterlimit:4;stroke-dasharray:none;stroke-opacity:1"
           id="path8859"
           sodipodi:cx="428.93604"
           sodipodi:cy="589.20721"
           sodipodi:rx="2.1465743"
           sodipodi:ry="4.2931485"
           d="M 431.08261 589.20721 A 2.1465743 4.2931485 0 1 1  426.78946,589.20721 A 2.1465743 4.2931485 0 1 1  431.08261 589.20721 z"
           transform="matrix(0,-0.307545,1.172697,0,-452.3854,624.9073)" />
        <path
           sodipodi:type="arc"
           style="opacity:0.97000002;fill:none;fill-opacity:1;stroke:black;stroke-width:6.24100018;stroke-linecap:square;stroke-linejoin:miter;stroke-miterlimit:4;stroke-dasharray:none;stroke-opacity:1"
           id="path8861"
           sodipodi:cx="428.93604"
           sodipodi:cy="589.20721"
           sodipodi:rx="2.1465743"
           sodipodi:ry="4.2931485"
           d="M 431.08261 589.20721 A 2.1465743 4.2931485 0 1 1  426.78946,589.20721 A 2.1465743 4.2931485 0 1 1  431.08261 589.20721 z"
           transform="matrix(0,-0.36963,0.968446,0,-140.6693,650.4016)" />
        <path
           sodipodi:type="arc"
           style="opacity:0.97000002;fill:none;fill-opacity:1;stroke:black;stroke-width:6.24100018;stroke-linecap:square;stroke-linejoin:miter;stroke-miterlimit:4;stroke-dasharray:none;stroke-opacity:1"
           id="path8863"
           sodipodi:cx="428.93604"
           sodipodi:cy="589.20721"
           sodipodi:rx="2.1465743"
           sodipodi:ry="4.2931485"
           d="M 431.08261 589.20721 A 2.1465743 4.2931485 0 1 1  426.78946,589.20721 A 2.1465743 4.2931485 0 1 1  431.08261 589.20721 z"
           transform="matrix(-0.202867,-0.192674,-0.678216,0.644141,885.9138,126.3354)" />
        <path
           sodipodi:type="arc"
           style="opacity:0.97000002;fill:none;fill-opacity:1;stroke:black;stroke-width:6.24100018;stroke-linecap:square;stroke-linejoin:miter;stroke-miterlimit:4;stroke-dasharray:none;stroke-opacity:1"
           id="path8867"
           sodipodi:cx="428.93604"
           sodipodi:cy="589.20721"
           sodipodi:rx="2.1465743"
           sodipodi:ry="4.2931485"
           d="M 431.08261 589.20721 A 2.1465743 4.2931485 0 1 1  426.78946,589.20721 A 2.1465743 4.2931485 0 1 1  431.08261 589.20721 z"
           transform="matrix(0.192935,-0.201634,0.645011,0.674096,-60.76122,247.0723)" />
        <path
           sodipodi:type="arc"
           style="opacity:0.97000002;fill:none;fill-opacity:1;stroke:black;stroke-width:6.24100018;stroke-linecap:square;stroke-linejoin:miter;stroke-miterlimit:4;stroke-dasharray:none;stroke-opacity:1"
           id="path8869"
           sodipodi:cx="428.93604"
           sodipodi:cy="589.20721"
           sodipodi:rx="2.1465743"
           sodipodi:ry="4.2931485"
           d="M 431.08261 589.20721 A 2.1465743 4.2931485 0 1 1  426.78946,589.20721 A 2.1465743 4.2931485 0 1 1  431.08261 589.20721 z"
           transform="matrix(-0.216837,-0.216837,-0.724921,0.724921,789.091,226.551)" />
        <path
           sodipodi:type="arc"
           style="opacity:0.97000002;fill:none;fill-opacity:1;stroke:black;stroke-width:6.24100018;stroke-linecap:square;stroke-linejoin:miter;stroke-miterlimit:4;stroke-dasharray:none;stroke-opacity:1"
           id="path8871"
           sodipodi:cx="428.93604"
           sodipodi:cy="589.20721"
           sodipodi:rx="2.1465743"
           sodipodi:ry="4.2931485"
           d="M 431.08261 589.20721 A 2.1465743 4.2931485 0 1 1  426.78946,589.20721 A 2.1465743 4.2931485 0 1 1  431.08261 589.20721 z"
           transform="matrix(0.216837,-0.216837,0.724921,0.724921,-249.4171,86.89736)" />
        <path
           sodipodi:type="arc"
           style="opacity:0.97000002;fill:none;fill-opacity:1;stroke:black;stroke-width:6.24100018;stroke-linecap:square;stroke-linejoin:miter;stroke-miterlimit:4;stroke-dasharray:none;stroke-opacity:1"
           id="path8873"
           sodipodi:cx="428.93604"
           sodipodi:cy="589.20721"
           sodipodi:rx="2.1465743"
           sodipodi:ry="4.2931485"
           d="M 431.08261 589.20721 A 2.1465743 4.2931485 0 1 1  426.78946,589.20721 A 2.1465743 4.2931485 0 1 1  431.08261 589.20721 z"
           transform="matrix(0.326338,0,0,0.917389,196.4197,-143.0014)" />
        <g
           id="g8879"
           transform="translate(-122.1429,-88.57143)">
          <path
             sodipodi:nodetypes="cccc"
             id="path8875"
             d="M 459.83675,476.95404 L 459.83675,456.87726 L 475.36606,477.36218 L 459.83675,476.95404 z "
             style="fill:black;fill-opacity:1;fill-rule:evenodd;stroke:black;stroke-width:1px;stroke-linecap:butt;stroke-linejoin:miter;stroke-opacity:1" />
          <path
             id="path8877"
             d="M 459.0503,477.06564 L 459.0503,456.98886 L 443.52099,477.47378 L 459.0503,477.06564 z "
             style="fill:none;fill-rule:evenodd;stroke:black;stroke-width:1px;stroke-linecap:butt;stroke-linejoin:miter;stroke-opacity:1" />
        </g>
        <g
           id="g8883"
           transform="matrix(0,-1,1,0,-247.9738,953.5914)">
          <path
             sodipodi:nodetypes="cccc"
             id="path8885"
             d="M 459.83675,476.95404 L 459.83675,456.87726 L 475.36606,477.36218 L 459.83675,476.95404 z "
             style="fill:black;fill-opacity:1;fill-rule:evenodd;stroke:black;stroke-width:1px;stroke-linecap:butt;stroke-linejoin:miter;stroke-opacity:1" />
          <path
             id="path8887"
             d="M 459.0503,477.06564 L 459.0503,456.98886 L 443.52099,477.47378 L 459.0503,477.06564 z "
             style="fill:none;fill-rule:evenodd;stroke:black;stroke-width:1px;stroke-linecap:butt;stroke-linejoin:miter;stroke-opacity:1" />
        </g>
        <g
           id="g8889"
           transform="matrix(-1,0,0,-1,794.0864,1072.038)">
          <path
             sodipodi:nodetypes="cccc"
             id="path8891"
             d="M 459.83675,476.95404 L 459.83675,456.87726 L 475.36606,477.36218 L 459.83675,476.95404 z "
             style="fill:black;fill-opacity:1;fill-rule:evenodd;stroke:black;stroke-width:1px;stroke-linecap:butt;stroke-linejoin:miter;stroke-opacity:1" />
          <path
             id="path8893"
             d="M 459.0503,477.06564 L 459.0503,456.98886 L 443.52099,477.47378 L 459.0503,477.06564 z "
             style="fill:none;fill-rule:evenodd;stroke:black;stroke-width:1px;stroke-linecap:butt;stroke-linejoin:miter;stroke-opacity:1" />
        </g>
        <g
           id="g8895"
           transform="matrix(0,1,-1,0,916.3773,33.27581)">
          <path
             sodipodi:nodetypes="cccc"
             id="path8897"
             d="M 459.83675,476.95404 L 459.83675,456.87726 L 475.36606,477.36218 L 459.83675,476.95404 z "
             style="fill:black;fill-opacity:1;fill-rule:evenodd;stroke:black;stroke-width:1px;stroke-linecap:butt;stroke-linejoin:miter;stroke-opacity:1" />
          <path
             id="path8899"
             d="M 459.0503,477.06564 L 459.0503,456.98886 L 443.52099,477.47378 L 459.0503,477.06564 z "
             style="fill:none;fill-rule:evenodd;stroke:black;stroke-width:1px;stroke-linecap:butt;stroke-linejoin:miter;stroke-opacity:1" />
        </g>
      </g>
    </g>
  </g>
</svg>
