<?xml version="1.0" encoding="iso-8859-1"?>
<!-- Generator: Adobe Illustrator 9.0, SVG Export Plug-In  -->
<!DOCTYPE svg PUBLIC "-//W3C//DTD SVG 20000303 Stylable//EN"   "http://www.w3.org/TR/2000/03/WD-SVG-20000303/DTD/svg-20000303-stylable.dtd" [
	<!ENTITY st0 "font-family:'Myriad-Roman';">
	<!ENTITY st1 "fill:#FFFFFF;stroke:none;">
	<!ENTITY st2 "fill:#FFFFFF;">
	<!ENTITY st3 "fill:#010303;">
	<!ENTITY st4 "font-size:12;">
	<!ENTITY st5 "fill-rule:nonzero;clip-rule:nonzero;stroke:#000000;stroke-miterlimit:4;">
]>
<svg  width="105.247pt" height="103.828pt" viewBox="0 0 105.247 103.828" xml:space="preserve">
	<g id="Layer_x0020_1" style="&st5;">
		<path style="&st3;" d="M0.5,51.914C0.5,23.519,23.836,0.5,52.624,0.5s52.123,23.019,52.123,51.414c0,28.396-23.336,51.414-52.123,51.414S0.5,80.31,0.5,51.914z"/>
		<path style="&st2;" d="M2.884,52.361c0-26.738,21.975-48.414,49.082-48.414s49.082,21.676,49.082,48.414s-21.975,48.414-49.082,48.414S2.884,79.1,2.884,52.361z"/>
		<path style="&st2;" d="M51.965,8.957l8.305,23.354L82.659,21.67L72.017,44.057l23.354,8.306l-23.354,8.306l10.642,22.387L60.27,72.413l-8.305,23.354L43.66,72.413L21.273,83.055l10.641-22.387L8.56,52.362l23.354-8.306L21.273,21.67L43.66,32.312l8.306-23.354z"/>
		<path d="M60.461,32.271l-16.935-0.077l8.569-22.906l8.366,22.982z"/>
		<path d="M43.664,72.256l16.935,0.076L52.03,95.238l-8.366-22.982z"/>
		<path d="M72.026,60.995l0.076-16.935l22.906,8.568l-22.982,8.366z"/>
		<path d="M32.009,44.144l0.048,16.934L9.088,52.679l22.92-8.535z"/>
		<path style="&st2;" d="M29.094,52.446c0-12.217,10.127-22.121,22.622-22.121c12.492,0,22.621,9.904,22.621,22.121S64.208,74.567,51.715,74.567c-12.494,0-22.622-9.904-22.622-22.121z"/>
		<path d="M52.633,93.597h-1.335v-82.47h1.335v82.47z"/>
		<path style="&st1;" d="M48.871,28.154v-8.088h1.152l2.58,4.092c0.588,0.948,1.067,1.788,1.439,2.628l0.036-0.012c-0.096-1.08-0.12-2.064-0.12-3.312v-3.396h0.984v8.088h-1.056l-2.568-4.104c-0.563-0.9-1.104-1.824-1.5-2.7l-0.036,0.012
			c0.06,1.02,0.072,1.992,0.072,3.336v3.456h-0.984z"/>
		<path style="&st1;" d="M49.633,84.125c0.468,0.301,1.141,0.528,1.86,0.528c1.067,0,1.691-0.552,1.691-1.38c0-0.744-0.432-1.188-1.523-1.596c-1.32-0.48-2.136-1.176-2.136-2.305c0-1.26,1.044-2.195,2.616-2.195c0.816,0,1.429,0.191,1.776,0.396l-0.288,0.853
			c-0.252-0.156-0.792-0.384-1.523-0.384c-1.104,0-1.524,0.659-1.524,1.212c0,0.756,0.492,1.128,1.608,1.56c1.367,0.54,2.052,1.188,2.052,2.376c0,1.248-0.912,2.34-2.82,2.34c-0.78,0-1.632-0.24-2.064-0.527l0.276-0.877z"/>
		<text transform="matrix(1 0 0 1 13.2876 69.5371)"><tspan x="0" y="0" style="&st1; &st0; &st4;">W</tspan></text>
		<path d="M10.709,53.217l0-1.335l82.471-0.041v1.335l-82.47,0.041z"/>
		<path style="&st1;" d="M82.05,52.724h-3.795v2.916h4.246v0.876h-5.525v-8.088h5.307v0.876h-4.027v2.556h3.795v0.864z"/>
		<path style="&st1;" d="M21.601,56.817l-1.85-8.088h0.996l0.865,4.092c0.216,1.021,0.411,2.017,0.541,2.796h0.021c0.119-0.804,0.346-1.764,0.595-2.808l0.973-4.08h0.985l0.887,4.104c0.206,0.973,0.4,1.92,0.508,2.772h0.022c0.151-0.888,0.357-1.788,0.584-2.796
			l0.963-4.08h0.963l-2.066,8.088h-0.984l-0.919-4.2c-0.227-1.044-0.379-1.836-0.476-2.651h-0.021c-0.119,0.815-0.292,1.596-0.563,2.64l-1.039,4.212h-0.984z"/>
	</g>
</svg>
