<?xml version="1.0" encoding="UTF-8" standalone="no"?>
<!-- Generator: Adobe Illustrator 9.0, SVG Export Plug-In  -->

<svg
   xmlns:dc="http://purl.org/dc/elements/1.1/"
   xmlns:cc="http://creativecommons.org/ns#"
   xmlns:rdf="http://www.w3.org/1999/02/22-rdf-syntax-ns#"
   xmlns:svg="http://www.w3.org/2000/svg"
   xmlns="http://www.w3.org/2000/svg"
   xmlns:sodipodi="http://sodipodi.sourceforge.net/DTD/sodipodi-0.dtd"
   xmlns:inkscape="http://www.inkscape.org/namespaces/inkscape"
   width="112.02pt"
   height="113.641pt"
   viewBox="0 0 112.02 113.641"
   xml:space="preserve"
   id="svg2495"
   sodipodi:version="0.32"
   inkscape:version="0.47 r22583"
   sodipodi:docname="NorthArrow_source.svg"
   inkscape:output_extension="org.inkscape.output.svg.inkscape"
   version="1.1"><metadata
   id="metadata2509"><rdf:RDF><cc:Work
       rdf:about=""><dc:format>image/svg+xml</dc:format><dc:type
         rdf:resource="http://purl.org/dc/dcmitype/StillImage" /></cc:Work></rdf:RDF></metadata><defs
   id="defs2507"><inkscape:perspective
     sodipodi:type="inkscape:persp3d"
     inkscape:vp_x="0 : 71.025627 : 1"
     inkscape:vp_y="0 : 1000 : 0"
     inkscape:vp_z="140.02499 : 71.025627 : 1"
     inkscape:persp3d-origin="70.012497 : 47.350418 : 1"
     id="perspective2511" /><inkscape:perspective
     id="perspective2894"
     inkscape:persp3d-origin="0.5 : 0.33333333 : 1"
     inkscape:vp_z="1 : 0.5 : 1"
     inkscape:vp_y="0 : 1000 : 0"
     inkscape:vp_x="0 : 0.5 : 1"
     sodipodi:type="inkscape:persp3d" /><inkscape:perspective
     id="perspective2982"
     inkscape:persp3d-origin="0.5 : 0.33333333 : 1"
     inkscape:vp_z="1 : 0.5 : 1"
     inkscape:vp_y="0 : 1000 : 0"
     inkscape:vp_x="0 : 0.5 : 1"
     sodipodi:type="inkscape:persp3d" /></defs><sodipodi:namedview
   inkscape:window-height="882"
   inkscape:window-width="1440"
   inkscape:pageshadow="2"
   inkscape:pageopacity="0.0"
   guidetolerance="10.0"
   gridtolerance="10.0"
   objecttolerance="10.0"
   borderopacity="1.0"
   bordercolor="#666666"
   pagecolor="#ffffff"
   id="base"
   showgrid="false"
   inkscape:zoom="1.5549242"
   inkscape:cx="70.012497"
   inkscape:cy="58.33813"
   inkscape:window-x="0"
   inkscape:window-y="1047"
   inkscape:current-layer="svg2495"
   showguides="true"
   inkscape:guide-bbox="true"
   inkscape:window-maximized="1" />
	
<path
   style="opacity:0.63101603;fill:#ff0000;fill-opacity:1;fill-rule:nonzero;stroke:none"
   d="m 172.5825,-97.925004 -37.1,37.275 21.2,-0.1 0,48.25 0,1.55 c -0.004,0.0551 -0.025,0.0945 -0.025,0.15 0,0.0555 0.021,0.11987 0.025,0.175 l 0,0.15 0.025,0 c 0.42852,3.1603195 7.39928,5.6749895 15.95,5.6749995 8.5495,0 15.51968,-2.51531 15.95,-5.6749995 l 0.05,0 0,-0.325 0,-1.5 c 0.0138,-0.069 0.025,-0.1301 0.025,-0.2 0,-0.0699 0.0138,-0.15597 0,-0.225 l 0,-48.2 21.2,-0.1 -37.3,-36.9 z"
   id="path3057" /><path
   style="opacity:0.63101603;fill:#008000;fill-opacity:1;fill-rule:nonzero;stroke:none"
   d="m -60.4625,-90.925004 31.2,32.575 -16.225,0 0,53.5499995 -29.975,0 0,-53.5499995 -16.225,0 31.225,-32.575 z"
   id="path3066" /><path
   style="opacity:0.63101603;fill:#ff0000;fill-opacity:1;fill-rule:nonzero;stroke:none"
   d="m 55.910001,-94.275004 -37.100003,37.275 21.200004,-0.1 0,48.2499895 c 0,2.23693 7.1936,4.05 16.024999,4.05001 8.8314,-10e-6 15.975001,-1.81309 15.975001,-4.05001 0,-0.0699 0.01382,-0.15597 0,-0.225 l 0,-48.1999895 21.2,-0.10001 -37.3,-36.89999 z"
   id="path3074"
   sodipodi:nodetypes="ccccsscccc" /><path
   sodipodi:type="arc"
   style="fill:#00ff00;fill-opacity:1;fill-rule:nonzero;stroke:none"
   id="path3021"
   sodipodi:cx="59.679817"
   sodipodi:cy="57.638145"
   sodipodi:rx="52.89159"
   sodipodi:ry="53.74012"
   d="m 112.57141,57.638145 a 52.89159,53.74012 0 1 1 -105.7831829,0 52.89159,53.74012 0 1 1 105.7831829,0 z"
   transform="matrix(1.0527534,0,0,1.0519204,-6.8181305,-3.810241)" /><path
   style="fill:#ff0000;fill-opacity:1;fill-rule:nonzero;stroke:none"
   d="m 55.91032,11.962425 -36.980697,37.156927 21.131827,-0.09968 0,48.097163 0,1.545087 c -0.004,0.05496 -0.02492,0.09422 -0.02492,0.149524 0,0.05532 0.02092,0.119501 0.02492,0.174446 l 0,0.149525 0.02492,0 c 0.427143,3.150313 7.375487,5.657013 15.898709,5.657023 8.522008,1e-5 15.469773,-2.50733 15.89871,-5.657023 l 0.04984,0 0,-0.323971 0,-1.495244 c 0.01374,-0.06881 0.02492,-0.129684 0.02492,-0.199367 0,-0.0697 0.01377,-0.155474 0,-0.224287 l 0,-48.047322 21.131827,-0.09968 -37.180055,-36.783115 z"
   id="path3086" /><path
   style="opacity:0.63101603;fill:#008000;fill-opacity:1;fill-rule:nonzero;stroke:none"
   d="m 55.997499,118.441 c -30.835491,0 -55.8500011,25.42111 -55.8500011,56.72499 -10e-6,31.3039 25.0144901,56.70001 55.8500011,56.70001 30.83552,-1e-5 55.874991,-25.39611 55.875001,-56.70001 C 111.87249,143.8621 86.833019,118.441 55.997499,118.441 z m 0.025,16.85 31.2,32.57499 -16.225,0 0,53.55 -29.975,0 0,-53.55 -16.225001,0 31.225001,-32.57499 z"
   id="path3048" /><path
   style="opacity:0.63101603;fill:#008000;fill-opacity:1;fill-rule:nonzero;stroke:none"
   d="m -60.675,118.441 c -30.8355,0 -55.85,25.4211 -55.85,56.72499 -10e-6,31.30389 25.01449,56.70001 55.85,56.70001 30.83551,-1e-5 55.8749897,-25.39612 55.8749997,-56.70001 C -4.8000103,143.8621 -29.83949,118.441 -60.675,118.441 z"
   id="path3050" /><path
   style="opacity:0.63101603;fill:#008000;fill-opacity:1;fill-rule:nonzero;stroke:none"
   d="m 172.67,118.441 c -30.8355,-1e-5 -55.85,25.4211 -55.85,56.72499 -10e-6,31.30388 25.01449,56.7 55.85,56.7 30.83551,-1e-5 55.87499,-25.39611 55.875,-56.7 -10e-6,-31.3039 -25.0395,-56.72499 -55.875,-56.72499 z m -0.1,10.225 37.3,36.89999 -21.2,0.1 0,48.2 c 0.0138,0.069 0,0.15507 0,0.225 0,0.0699 -0.0112,0.13095 -0.025,0.2 l 0,1.5 0,0.325 -0.05,0 c -0.43032,3.15969 -7.4005,5.675 -15.95,5.675 -8.55072,0 -15.52148,-2.51468 -15.95,-5.675 l -0.025,0 0,-0.15 c -0.004,-0.0551 -0.025,-0.11952 -0.025,-0.175 0,-0.0555 0.021,-0.0949 0.025,-0.15 l 0,-1.55 0,-48.25 -21.2,0.1 37.1,-37.27499 z"
   id="path3090" /><path
   style="fill:#000000;fill-opacity:1;fill-rule:nonzero;stroke:none"
   d="m -60.474993,0.2954937 c -30.752216,0 -55.675007,25.3041623 -55.675007,56.5250003 0,31.220843 24.922791,56.525016 55.675007,56.525016 30.75221,0 55.6749927,-25.304173 55.6749927,-56.525016 0,-31.220838 -24.9227827,-56.5250003 -55.6749927,-56.5250003 z m 0,14.7999993 c 22.703842,0 41.100002,18.675179 41.100002,41.725001 0,23.049822 -18.396161,41.750003 -41.100002,41.750003 -22.703846,0 -41.100007,-18.700181 -41.100007,-41.750003 0,-23.049822 18.396161,-41.725001 41.100007,-41.725001 z"
   id="path3021-6" /><path
   sodipodi:type="arc"
   style="fill:#00ff00;fill-opacity:1;fill-rule:nonzero;stroke:none"
   id="path3021-9"
   sodipodi:cx="59.679817"
   sodipodi:cy="57.638145"
   sodipodi:rx="52.89159"
   sodipodi:ry="53.74012"
   d="m 112.57141,57.638145 a 52.89159,53.74012 0 1 1 -105.7831829,0 52.89159,53.74012 0 1 1 105.7831829,0 z"
   transform="matrix(0.77723025,0,0,0.77661526,126.29754,12.057837)" /></svg>