<?xml version="1.0" encoding="UTF-8" standalone="no"?>
<svg xmlns:rdf="http://www.w3.org/1999/02/22-rdf-syntax-ns#" xmlns="http://www.w3.org/2000/svg" version="1.0" xmlns:cc="http://creativecommons.org/ns#" xmlns:dc="http://purl.org/dc/elements/1.1/" viewBox="0 0 450 500">
	<title>North Arrow 5, Triangular Arrow in Circle</title>
	<metadata>
		<rdf:RDF>
			<cc:Work rdf:about="">
				<dc:format>image/svg+xml</dc:format>
				<dc:type rdf:resource="http://purl.org/dc/dcmitype/StillImage"/>
				<dc:title>North Arrow 5, Triangular Arrow in Circle</dc:title>
				<dc:description>North Arrow 5, Triangular Arrow in Circle, Small N on top</dc:description>
				<dc:date>2009-11-08</dc:date>
				<dc:creator>
					<cc:Agent>
						<dc:title>Silvio Grosso</dc:title>
					</cc:Agent>
				</dc:creator>
				<cc:license rdf:resource="http://creativecommons.org/licenses/publicdomain/"/>
			</cc:Work>
			<cc:License rdf:about="http://creativecommons.org/licenses/publicdomain/">
				<cc:permits rdf:resource="http://creativecommons.org/ns#Reproduction"/>
				<cc:permits rdf:resource="http://creativecommons.org/ns#Distribution"/>
				<cc:permits rdf:resource="http://creativecommons.org/ns#DerivativeWorks"/>
			</cc:License>
		</rdf:RDF>
	</metadata>
	<g transform="matrix(1.3482061,0,0,1.3605643,-75.274102,-93.490101)">
		<g transform="translate(7.8428488,-24.243661)">
			<path id="character_n" fill="black" d="M314.65,483.62h2.47l3.24,4.76v-4.76h2.5v8.59h-2.5l-3.22-4.71v4.71h-2.49v-8.59z" transform="matrix(2.124314,0,0,2.055934,-468.64243,-824.79604)"/>
			<path id="arrow" stroke-linejoin="miter" d="M152.38,298.41l56.37-91.88,62.01,91.88-60.58-30.63-57.8,30.63z" fill="black" stroke="black" stroke-width="6" />
			<path id="circle" d="M587.5,551.29c0,42.41-34.38,76.79-76.79,76.79-42.4,0-76.78-34.38-76.78-76.79s34.38-76.78,76.78-76.78c42.41,0,76.79,34.37,76.79,76.78z" transform="translate(-298.57143,-277.85714)" stroke="black" stroke-width="6.4" fill="none"/>
		</g>
	</g>
</svg>
