<?xml version="1.0" encoding="UTF-8"?>
<svg width="580" height="580" enable-background="new 0 0 580 580" viewBox="0 0 580 580" xmlns="http://www.w3.org/2000/svg">
 <path d="m227.52 92.674c-106.58 0-193.3 86.712-193.3 193.3s86.712 193.3 193.3 193.3c106.58 0 193.3-86.712 193.3-193.3s-86.712-193.3-193.3-193.3zm0 361.46c-92.723 0-168.16-75.437-168.16-168.16 0-92.723 75.436-168.16 168.16-168.16s168.16 75.436 168.16 168.16c0 92.722-75.437 168.16-168.16 168.16z" fill="param(fill)" fill-opacity="param(fill-opacity)" stroke="param(outline)" stroke-opacity="param(outline-opacity)" stroke-width="param(outline-width)"/>
 <path d="m263.66 139.45h-72.289v110.38h-110.38v72.289h110.38v110.38h72.289v-110.38h110.38v-72.289h-110.38z" fill="param(fill)" fill-opacity="param(fill-opacity)" stroke="param(outline)" stroke-opacity="param(outline-opacity)" stroke-width="param(outline-width)"/>
 <path d="m511.34 424.44c-7.311-5.58-16.354-8.37-27.127-8.37-11.287 0-20.842 2.885-28.666 8.653-7.823 5.77-11.735 12.626-11.735 20.57 0 6.432 4.425 12.957 13.274 19.577 8.851 6.62 17.893 9.931 27.127 9.931 8.465 0 16.93-3.405 25.396-10.215 8.465-6.809 12.697-13.808 12.697-20.995s-3.656-13.571-10.966-19.151z" fill="param(fill)" fill-opacity="param(fill-opacity)" stroke="param(outline)" stroke-opacity="param(outline-opacity)" stroke-width="param(outline-width)"/>
 <path d="m463.06 221.71 12.313 163.42c3.591 0.567 6.284 0.852 8.08 0.852 1.282 0 3.206-0.189 5.771-0.568 1.026-2.647 1.668-4.729 1.924-6.241l3.078-68.094c0.514-18.726 5.771-59.487 15.776-122.28 5.13-32.723 7.695-53.435 7.695-62.136 0-9.457-3.463-16.787-10.389-21.989-6.927-5.201-15.392-7.802-25.396-7.802-9.234 0-17.059 2.601-23.472 7.802-6.413 5.202-9.619 12.91-9.619 23.124s2.565 27.049 7.695 50.503c3.593 17.591 5.773 32.061 6.544 43.409z" fill="param(fill)" fill-opacity="param(fill-opacity)" stroke="param(outline)" stroke-opacity="param(outline-opacity)" stroke-width="param(outline-width)"/>
</svg>
