<svg enable-background="new 0 0 580 580" height="580" viewBox="0 0 580 580" width="580" xmlns="http://www.w3.org/2000/svg">
<path d="m290.832 441.674c-31.244 13.811-39.246 29.148-24.407 46.783 9.142 10.865 13.638 9.969 14.894-2.97 1.235-12.734 4.188-15.937 16.896-18.32 27.198-5.103 37.926-16.841 37.926-41.497 0-17.664-18.612-18.242-45.825-1.424-8.21 5.074-2.841 13.001 5.785 8.54 4.719-2.44 8.58-5.948 8.58-7.796 0-2.466.846-2.513 3.183-.175 4.87 4.872.661 9.038-17.032 16.859z" fill="param(fill)" fill-opacity="param(fill-opacity)" stroke="param(outline)" stroke-opacity="param(outline-opacity)" stroke-width="param(outline-width)"/>
<path d="m328.016 486.704c9.092-10.178 8.177-28.52-1.171-23.479-3.539 1.908-13.514 5.662-22.165 8.342-11.871 3.677-15.954 6.358-16.644 10.931-1.164 7.716 1.691 7.67 10.025-.159 5.087-4.778 6.619-5.215 6.619-1.883 0 2.385-12.308 12.253-27.35 21.93-15.043 9.677-26.612 18.79-25.709 20.25 2.659 4.303 67.839-26.354 76.395-35.932z" fill="param(fill)" fill-opacity="param(fill-opacity)" stroke="param(outline)" stroke-opacity="param(outline-opacity)" stroke-width="param(outline-width)"/>
<path d="m234.647 248.256c.992-1.606 8.237-6.594 16.1-11.084 14.295-8.165 14.295-8.165 3.37-10.136-21.112-3.808-35.236-12.577-35.236-21.876 0-10.276 7.745-11.229 19.662-2.417 9.831 7.269 30.959 6.826 35.705-.749 9.846-15.715-15.809-35.339-41.891-32.044-50.051 6.323-60.335 45.334-19.229 72.941 13.044 8.762 18.568 10.139 21.519 5.365z" fill="param(fill)" fill-opacity="param(fill-opacity)" stroke="param(outline)" stroke-opacity="param(outline-opacity)" stroke-width="param(outline-width)"/>
<path d="m196.045 137.979c1.941 2.655 7.089 7.174 11.44 10.042 8.201 5.407 33.668 7.108 51.882 3.466 11.391-2.278 14.536-67.551 3.425-71.077-3.032-.962-8.136-6.197-11.344-11.633-7.323-12.413-15.978-12.881-47.812-2.587-19.814 6.407-29.27 7.505-77.618 9.015-30.28.945-55.055 2.523-55.055 3.508 0 9.766 22.45 24.528 33.198 21.83 5.475-1.374 6.842-.596 6.842 3.896 0 7.437 10.547 14.517 21.627 14.517 6.741 0 9.711 1.749 12.183 7.172 5.74 12.597 20.749 17.614 35.435 11.844 11.506-4.521 12.486-4.521 15.797.007z" fill="param(fill)" fill-opacity="param(fill-opacity)" stroke="param(outline)" stroke-opacity="param(outline-opacity)" stroke-width="param(outline-width)"/>
<path d="m279.074 64.546c4.811 3.37 5.586 7.359 5.594 28.775.004 13.674.851 48.994 1.882 78.488 1.875 53.625 1.875 53.625 10.002 53.625 8.128 0 8.128 0 8.128-76.092 0-76.093 0-76.093 7.151-84.591 13.621-16.188 11.612-35.583-4.552-43.942-27.902-14.429-53.835 25.785-28.205 43.737z" fill="param(fill)" fill-opacity="param(fill-opacity)" stroke="param(outline)" stroke-opacity="param(outline-opacity)" stroke-width="param(outline-width)"/>
<path d="m352.606 264.865c-2.296 1.905-10.224 4.292-17.619 5.306-10.868 1.49-13.08 2.724-11.542 6.438 4.538 10.957 4.128 14.151-2.89 22.491-4.793 5.696-14.751 11.606-28.096 16.675-51.44 19.535-69.171 45.413-49.125 71.695 8.774 11.504 8.5 11.483 26.793 1.992 13.904-7.213 14.323-7.764 8.844-11.602-16.611-11.636-5.79-24.864 30.973-37.865 42.085-14.882 60.284-33.334 56.276-57.055-2.594-15.363-8.09-22.66-13.614-18.075z" fill="param(fill)" fill-opacity="param(fill-opacity)" stroke="param(outline)" stroke-opacity="param(outline-opacity)" stroke-width="param(outline-width)"/>
<path d="m324.77 178.626c-22.994 19.348 4.653 42.035 29.152 23.922 10.3-7.615 17.969-6.507 17.969 2.598 0 13.32-42.002 28.635-79.006 28.808-51.078.239-87.506 50.775-58.652 81.369 11.545 12.241 13.308 12.381 32.104 2.539 14.657-7.674 14.657-7.674 6.48-14.554-22.519-18.949-10.817-30.293 39.161-37.965 58.905-9.042 89.942-30.297 89.942-61.593 0-27.727-53.394-45.115-77.15-25.124z" fill="param(fill)" fill-opacity="param(fill-opacity)" stroke="param(outline)" stroke-opacity="param(outline-opacity)" stroke-width="param(outline-width)"/>
<path d="m466.031 75.286c-48.398-1.435-57.619-2.499-77.787-8.974-34.215-10.985-46.323-9.364-51.483 6.892-.994 3.133-4.979 6.492-8.854 7.465-11.084 2.782-9.524 66.854 1.708 70.189 19.37 5.75 50.716 1.419 60.855-8.409 9.359-9.071 9.926-9.229 18.019-5.008 14.746 7.69 28.329 3.927 36.646-10.151 3.923-6.641 6.927-8.336 14.772-8.336 10.419 0 21.289-8.06 21.289-15.785 0-3.154 1.875-3.874 6.842-2.627 9.167 2.301 23.5-5.45 28.711-15.526 4.189-8.102 4.189-8.102-50.718-9.73z" fill="param(fill)" fill-opacity="param(fill-opacity)" stroke="param(outline)" stroke-opacity="param(outline-opacity)" stroke-width="param(outline-width)"/>
<path d="m292.176 563.509c2.241 3.626 8.107 1.156 8.761-3.689.3-2.229 1.362-13.896 2.361-25.925 1.815-21.873 1.815-21.873 17.663-16.303 17.794 6.254 21.511 5.281 13.525-3.543-25.688-28.385-63.27 15.546-42.31 49.46z" fill="param(fill)" fill-opacity="param(fill-opacity)" stroke="param(outline)" stroke-opacity="param(outline-opacity)" stroke-width="param(outline-width)"/>
<path d="m328.828 340.439c-4.63 2.3-15.818 6.442-24.863 9.206-16.445 5.023-16.445 5.023-16.445 18.908 0 13.886 0 13.886 8.58 10.895 7.795-2.717 8.58-4.152 8.58-15.682 0-11.756.417-12.469 5.654-9.665 18.775 10.048 10.463 24.729-19.646 34.695-33.988 11.251-51.627 39.656-35.615 57.35 5.81 6.42 4.574 6.514 15.875-1.204 7.36-5.027 9.228-8.12 8.533-14.137-1.02-8.835 3.195-11.574 34.491-22.417 37.593-13.024 50.371-40.63 29.852-64.485-6.25-7.266-6.997-7.438-14.996-3.464z" fill="param(fill)" fill-opacity="param(fill-opacity)" stroke="param(outline)" stroke-opacity="param(outline-opacity)" stroke-width="param(outline-width)"/>
<path d="m304.68 288.426c0-14.061-.185-14.371-8.58-14.371-8.58 0-8.58 0-8.58 17.159 0 9.438.56 17.16 1.244 17.16 10.903.001 15.916-6.282 15.916-19.948z" fill="param(fill)" fill-opacity="param(fill-opacity)" stroke="param(outline)" stroke-opacity="param(outline-opacity)" stroke-width="param(outline-width)"/>
</svg>
