<svg enable-background="new 0 0 580 580" height="580" viewBox="0 0 580 580" width="580" xmlns="http://www.w3.org/2000/svg">
<path d="m505.89 275.915c-18.513-13.595-25.836-14.563-54.242-7.169-31.513 8.203-33.944 7.458-60.138-18.42-32.157-31.769-65.267-35.47-88.187-9.857-12.608 14.09-15.814 34.539-19.671 125.502-3.559 83.907-2.245 111.098 5.766 119.333 14.375 14.777 37.8.979 59.914-35.292 22.177-36.374 28.469-30.099 15.9 15.86-7.893 28.864-7.859 38.438.168 47.992 15.331 18.247 28.039 14.43 54.845-16.478 13.495-15.559 24.515-31.708 24.489-35.888s17.664-27.396 39.311-51.591c55.758-62.327 62.567-104.086 21.845-133.992z" fill="param(fill)" fill-opacity="param(fill-opacity)" stroke="param(outline)" stroke-opacity="param(outline-opacity)" stroke-width="param(outline-width)"/>
<path d="m209.37 362.682c6.672-7.469 6.001-20.93-.859-17.231-2.597 1.401-9.917 4.155-16.267 6.122-8.712 2.698-11.708 4.666-12.215 8.021-.854 5.663 1.241 5.63 7.357-.116 3.733-3.507 4.858-3.827 4.858-1.382 0 1.75-9.033 8.992-20.072 16.094s-19.53 13.79-18.868 14.861c1.952 3.158 49.788-19.34 56.066-26.369z" fill="param(fill)" fill-opacity="param(fill-opacity)" stroke="param(outline)" stroke-opacity="param(outline-opacity)" stroke-width="param(outline-width)"/>
<path d="m140.847 187.687c.729-1.179 6.045-4.839 11.815-8.135 10.491-5.992 10.491-5.992 2.473-7.438-15.494-2.795-25.86-9.23-25.86-16.055 0-7.542 5.684-8.241 14.43-1.774 7.215 5.334 22.721 5.009 26.203-.549 7.227-11.533-11.602-25.935-30.743-23.517-36.732 4.64-44.279 33.271-14.112 53.531 9.575 6.43 13.629 7.44 15.794 3.937z" fill="param(fill)" fill-opacity="param(fill-opacity)" stroke="param(outline)" stroke-opacity="param(outline-opacity)" stroke-width="param(outline-width)"/>
<path d="m173.452 52.864c3.531 2.473 4.1 5.401 4.105 21.118.003 10.036.625 35.957 1.381 57.602 1.375 39.355 1.375 39.355 7.34 39.355s5.965 0 5.965-55.843c0-55.844 0-55.844 5.248-62.081 9.997-11.88 8.522-26.114-3.34-32.249-20.476-10.589-39.508 18.923-20.699 32.098z" fill="param(fill)" fill-opacity="param(fill-opacity)" stroke="param(outline)" stroke-opacity="param(outline-opacity)" stroke-width="param(outline-width)"/>
<path d="m182.081 329.635c-22.929 10.136-28.802 21.392-17.912 34.334 6.709 7.973 10.009 7.315 10.931-2.18.907-9.346 3.074-11.696 12.399-13.445 19.96-3.744 27.834-12.359 27.834-30.454 0-12.964-13.66-13.388-33.63-1.045-6.026 3.724-2.085 9.541 4.245 6.267 3.463-1.79 6.297-4.365 6.297-5.721 0-1.81.621-1.844 2.336-.129 3.575 3.575.486 6.633-12.5 12.373z" fill="param(fill)" fill-opacity="param(fill-opacity)" stroke="param(outline)" stroke-opacity="param(outline-opacity)" stroke-width="param(outline-width)"/>
<path d="m112.518 106.755c1.425 1.948 5.203 5.265 8.396 7.37 6.018 3.968 24.708 5.217 38.076 2.543 8.359-1.672 10.667-49.575 2.514-52.163-2.225-.706-5.971-4.548-8.325-8.537-5.375-9.109-11.726-9.453-35.088-1.899-14.542 4.702-21.481 5.508-56.963 6.616-22.222.693-40.404 1.852-40.404 2.574 0 7.167 16.476 18.001 24.364 16.021 4.018-1.008 5.021-.437 5.021 2.859 0 5.458 7.74 10.653 15.872 10.653 4.947 0 7.127 1.284 8.94 5.264 4.212 9.245 15.227 12.926 26.005 8.692 8.443-3.315 9.163-3.315 11.592.007z" fill="param(fill)" fill-opacity="param(fill-opacity)" stroke="param(outline)" stroke-opacity="param(outline-opacity)" stroke-width="param(outline-width)"/>
<path d="m295.323 98.912c2.879-4.874 5.083-6.118 10.841-6.118 7.646 0 15.624-5.915 15.624-11.584 0-2.314 1.376-2.843 5.021-1.928 6.728 1.688 17.246-4 21.07-11.395 3.074-5.946 3.074-5.946-37.221-7.14-35.519-1.053-42.286-1.833-57.087-6.585-25.11-8.062-33.997-6.873-37.783 5.058-.729 2.299-3.654 4.765-6.499 5.479-8.134 2.042-6.99 49.064 1.254 51.511 14.215 4.22 37.22 1.041 44.661-6.171 6.869-6.657 7.284-6.773 13.224-3.675 10.823 5.641 20.791 2.88 26.895-7.452z" fill="param(fill)" fill-opacity="param(fill-opacity)" stroke="param(outline)" stroke-opacity="param(outline-opacity)" stroke-width="param(outline-width)"/>
<path d="m192.244 217.167c0-10.319-.136-10.546-6.297-10.546-6.297 0-6.297 0-6.297 12.594 0 6.926.411 12.593.913 12.593 8.002 0 11.681-4.611 11.681-14.641z" fill="param(fill)" fill-opacity="param(fill-opacity)" stroke="param(outline)" stroke-opacity="param(outline-opacity)" stroke-width="param(outline-width)"/>
<path d="m206.988 136.586c-16.875 14.199 3.415 30.849 21.395 17.556 7.559-5.588 13.187-4.775 13.187 1.907 0 9.775-30.825 21.015-57.982 21.142-37.485.176-64.219 37.264-43.044 59.716 8.473 8.983 9.766 9.086 23.561 1.864 10.757-5.632 10.757-5.632 4.756-10.681-16.526-13.906-7.939-22.231 28.74-27.862 43.23-6.636 66.008-22.234 66.008-45.202-.001-20.35-39.186-33.11-56.621-18.44z" fill="param(fill)" fill-opacity="param(fill-opacity)" stroke="param(outline)" stroke-opacity="param(outline-opacity)" stroke-width="param(outline-width)"/>
<path d="m183.068 419.048c1.645 2.662 5.95.849 6.429-2.707.22-1.636 1-10.198 1.733-19.026 1.333-16.053 1.333-16.053 12.963-11.965 13.059 4.59 15.787 3.876 9.926-2.6-18.853-20.832-46.433 11.409-31.051 36.298z" fill="param(fill)" fill-opacity="param(fill-opacity)" stroke="param(outline)" stroke-opacity="param(outline-opacity)" stroke-width="param(outline-width)"/>
<path d="m227.417 199.876c-1.684 1.398-7.503 3.15-12.93 3.894-7.976 1.093-9.6 1.999-8.47 4.726 3.33 8.041 3.029 10.385-2.121 16.506-3.518 4.181-10.826 8.518-20.619 12.237-37.752 14.337-50.765 33.329-36.053 52.617 6.439 8.442 6.238 8.428 19.664 1.462 10.204-5.294 10.512-5.698 6.49-8.515-12.191-8.539-4.249-18.248 22.731-27.788 30.885-10.922 44.242-24.463 41.301-41.872-1.906-11.276-5.939-16.631-9.993-13.267z" fill="param(fill)" fill-opacity="param(fill-opacity)" stroke="param(outline)" stroke-opacity="param(outline-opacity)" stroke-width="param(outline-width)"/>
<path d="m209.967 255.339c-3.398 1.688-11.609 4.728-18.247 6.756-12.069 3.688-12.069 3.688-12.069 13.877s0 10.19 6.297 7.995c5.721-1.995 6.297-3.047 6.297-11.509 0-8.627.306-9.15 4.15-7.093 13.779 7.375 7.678 18.148-14.418 25.463-24.944 8.258-37.889 29.104-26.138 42.088 4.264 4.712 3.357 4.781 11.65-.884 5.402-3.688 6.772-5.959 6.262-10.374-.749-6.484 2.345-8.494 25.313-16.452 27.589-9.558 36.967-29.817 21.907-47.325-4.586-5.332-5.134-5.458-11.004-2.542z" fill="param(fill)" fill-opacity="param(fill-opacity)" stroke="param(outline)" stroke-opacity="param(outline-opacity)" stroke-width="param(outline-width)"/>
</svg>
