<?xml version="1.0" encoding="utf-8"?>
<!-- Generator: Adobe Illustrator 16.0.0, SVG Export Plug-In . SVG Version: 6.00 Build 0)  -->
<!DOCTYPE svg PUBLIC "-//W3C//DTD SVG 1.1//EN" "http://www.w3.org/Graphics/SVG/1.1/DTD/svg11.dtd">
<svg version="1.1"
	 id="svg2" xmlns:dc="http://purl.org/dc/elements/1.1/" xmlns:cc="http://creativecommons.org/ns#" xmlns:rdf="http://www.w3.org/1999/02/22-rdf-syntax-ns#" xmlns:svg="http://www.w3.org/2000/svg" xmlns:sodipodi="http://sodipodi.sourceforge.net/DTD/sodipodi-0.dtd" xmlns:inkscape="http://www.inkscape.org/namespaces/inkscape" sodipodi:version="0.32" sodipodi:docname="health_veterinary.svg" inkscape:output_extension="org.inkscape.output.svg.inkscape" inkscape:version="0.46" sodipodi:docbase="s:\Data\FacilityIcons"
	 xmlns="http://www.w3.org/2000/svg" xmlns:xlink="http://www.w3.org/1999/xlink" x="0px" y="0px" width="580px" height="580px"
	 viewBox="0 0 580 580" enable-background="new 0 0 580 580" xml:space="preserve">
<sodipodi:namedview  showgrid="false" inkscape:cy="30.49576" inkscape:cx="-367.65768" inkscape:zoom="0.45254834" pagecolor="#ffffff" bordercolor="#666666" guidetolerance="10.0" objecttolerance="10.0" gridtolerance="10.0" borderopacity="1.0" id="base" inkscape:current-layer="svg2" inkscape:window-y="20" inkscape:window-x="0" inkscape:pageopacity="0.0" inkscape:pageshadow="2" inkscape:window-height="1003" inkscape:window-width="1400">
	</sodipodi:namedview>
<defs>
	
	
		<inkscape:perspective  inkscape:vp_z="580 : 290 : 1" inkscape:vp_y="0 : 1000 : 0" inkscape:vp_x="0 : 290 : 1" sodipodi:type="inkscape:persp3d" id="perspective2441" inkscape:persp3d-origin="290 : 193.33333 : 1">
		</inkscape:perspective>
	
		<inkscape:perspective  inkscape:vp_z="744.09448 : 526.18109 : 1" inkscape:vp_y="0 : 1000 : 0" inkscape:vp_x="0 : 526.18109 : 1" sodipodi:type="inkscape:persp3d" id="perspective2466" inkscape:persp3d-origin="372.04724 : 350.78739 : 1">
		</inkscape:perspective>
	
		<inkscape:perspective  inkscape:vp_z="744.09448 : 526.18109 : 1" inkscape:vp_y="0 : 1000 : 0" inkscape:vp_x="0 : 526.18109 : 1" sodipodi:type="inkscape:persp3d" id="perspective3333" inkscape:persp3d-origin="372.04724 : 350.78739 : 1">
		</inkscape:perspective>
	
		<inkscape:perspective  inkscape:vp_z="744.09448 : 526.18109 : 1" inkscape:vp_y="0 : 1000 : 0" inkscape:vp_x="0 : 526.18109 : 1" sodipodi:type="inkscape:persp3d" id="perspective3401" inkscape:persp3d-origin="372.04724 : 350.78739 : 1">
		</inkscape:perspective>
	
		<inkscape:perspective  inkscape:vp_z="744.09448 : 526.18109 : 1" inkscape:vp_y="0 : 1000 : 0" inkscape:vp_x="0 : 526.18109 : 1" sodipodi:type="inkscape:persp3d" id="perspective3464" inkscape:persp3d-origin="372.04724 : 350.78739 : 1">
		</inkscape:perspective>
	
		<inkscape:perspective  inkscape:vp_z="450 : 225 : 1" inkscape:vp_y="0 : 1000 : 0" inkscape:vp_x="0 : 225 : 1" sodipodi:type="inkscape:persp3d" id="perspective3581" inkscape:persp3d-origin="225 : 150 : 1">
		</inkscape:perspective>
	
		<inkscape:perspective  inkscape:vp_z="450 : 225 : 1" inkscape:vp_y="0 : 1000 : 0" inkscape:vp_x="0 : 225 : 1" sodipodi:type="inkscape:persp3d" id="perspective4312" inkscape:persp3d-origin="225 : 150 : 1">
		</inkscape:perspective>
	
		<inkscape:perspective  inkscape:vp_z="744.09448 : 526.18109 : 1" inkscape:vp_y="0 : 1000 : 0" inkscape:vp_x="0 : 526.18109 : 1" sodipodi:type="inkscape:persp3d" id="perspective8860" inkscape:persp3d-origin="372.04724 : 350.78739 : 1">
		</inkscape:perspective>
	
		<inkscape:perspective  inkscape:vp_z="744.09448 : 526.18109 : 1" inkscape:vp_y="0 : 1000 : 0" inkscape:vp_x="0 : 526.18109 : 1" sodipodi:type="inkscape:persp3d" id="perspective8887" inkscape:persp3d-origin="372.04724 : 350.78739 : 1">
		</inkscape:perspective>
	
		<inkscape:perspective  inkscape:vp_z="32 : 16 : 1" inkscape:vp_y="0 : 1000 : 0" inkscape:vp_x="0 : 16 : 1" sodipodi:type="inkscape:persp3d" id="perspective4904" inkscape:persp3d-origin="16 : 10.666667 : 1">
		</inkscape:perspective>
	
		<inkscape:perspective  inkscape:vp_z="12 : 6 : 1" inkscape:vp_y="0 : 1000 : 0" inkscape:vp_x="0 : 6 : 1" sodipodi:type="inkscape:persp3d" id="perspective4668" inkscape:persp3d-origin="6 : 4 : 1">
		</inkscape:perspective>
	
		<inkscape:perspective  inkscape:vp_z="744.09448 : 526.18109 : 1" inkscape:vp_y="0 : 1000 : 0" inkscape:vp_x="0 : 526.18109 : 1" sodipodi:type="inkscape:persp3d" id="perspective4471" inkscape:persp3d-origin="372.04724 : 350.78739 : 1">
		</inkscape:perspective>
	
		<inkscape:perspective  inkscape:vp_z="60 : 30 : 1" inkscape:vp_y="0 : 1000 : 0" inkscape:vp_x="0 : 30 : 1" sodipodi:type="inkscape:persp3d" id="perspective3452" inkscape:persp3d-origin="30 : 20 : 1">
		</inkscape:perspective>
	
		<inkscape:perspective  inkscape:vp_z="580 : 290 : 1" inkscape:vp_y="0 : 1000 : 0" inkscape:vp_x="0 : 290 : 1" sodipodi:type="inkscape:persp3d" id="perspective9479" inkscape:persp3d-origin="290 : 193.33333 : 1">
		</inkscape:perspective>
	
		<inkscape:perspective  inkscape:vp_z="744.09448 : 526.18109 : 1" inkscape:vp_y="0 : 1000 : 0" inkscape:vp_x="0 : 526.18109 : 1" sodipodi:type="inkscape:persp3d" id="perspective9690" inkscape:persp3d-origin="372.04724 : 350.78739 : 1">
		</inkscape:perspective>
	
		<inkscape:perspective  inkscape:vp_z="580 : 290 : 1" inkscape:vp_y="0 : 1000 : 0" inkscape:vp_x="0 : 290 : 1" sodipodi:type="inkscape:persp3d" id="perspective9819" inkscape:persp3d-origin="290 : 193.33333 : 1">
		</inkscape:perspective>
	
		<inkscape:perspective  inkscape:vp_z="60 : 30 : 1" inkscape:vp_y="0 : 1000 : 0" inkscape:vp_x="0 : 30 : 1" sodipodi:type="inkscape:persp3d" id="perspective9817" inkscape:persp3d-origin="30 : 20 : 1">
		</inkscape:perspective>
	
		<inkscape:perspective  inkscape:vp_z="744.09448 : 526.18109 : 1" inkscape:vp_y="0 : 1000 : 0" inkscape:vp_x="0 : 526.18109 : 1" sodipodi:type="inkscape:persp3d" id="perspective9805" inkscape:persp3d-origin="372.04724 : 350.78739 : 1">
		</inkscape:perspective>
	
		<inkscape:perspective  inkscape:vp_z="12 : 6 : 1" inkscape:vp_y="0 : 1000 : 0" inkscape:vp_x="0 : 6 : 1" sodipodi:type="inkscape:persp3d" id="perspective9803" inkscape:persp3d-origin="6 : 4 : 1">
		</inkscape:perspective>
	
		<inkscape:perspective  inkscape:vp_z="32 : 16 : 1" inkscape:vp_y="0 : 1000 : 0" inkscape:vp_x="0 : 16 : 1" sodipodi:type="inkscape:persp3d" id="perspective9801" inkscape:persp3d-origin="16 : 10.666667 : 1">
		</inkscape:perspective>
	
		<inkscape:perspective  inkscape:vp_z="744.09448 : 526.18109 : 1" inkscape:vp_y="0 : 1000 : 0" inkscape:vp_x="0 : 526.18109 : 1" sodipodi:type="inkscape:persp3d" id="perspective9799" inkscape:persp3d-origin="372.04724 : 350.78739 : 1">
		</inkscape:perspective>
	
		<inkscape:perspective  inkscape:vp_z="744.09448 : 526.18109 : 1" inkscape:vp_y="0 : 1000 : 0" inkscape:vp_x="0 : 526.18109 : 1" sodipodi:type="inkscape:persp3d" id="perspective9797" inkscape:persp3d-origin="372.04724 : 350.78739 : 1">
		</inkscape:perspective>
	
		<inkscape:perspective  inkscape:vp_z="450 : 225 : 1" inkscape:vp_y="0 : 1000 : 0" inkscape:vp_x="0 : 225 : 1" sodipodi:type="inkscape:persp3d" id="perspective9795" inkscape:persp3d-origin="225 : 150 : 1">
		</inkscape:perspective>
	
		<inkscape:perspective  inkscape:vp_z="450 : 225 : 1" inkscape:vp_y="0 : 1000 : 0" inkscape:vp_x="0 : 225 : 1" sodipodi:type="inkscape:persp3d" id="perspective9793" inkscape:persp3d-origin="225 : 150 : 1">
		</inkscape:perspective>
	
		<inkscape:perspective  inkscape:vp_z="744.09448 : 526.18109 : 1" inkscape:vp_y="0 : 1000 : 0" inkscape:vp_x="0 : 526.18109 : 1" sodipodi:type="inkscape:persp3d" id="perspective9791" inkscape:persp3d-origin="372.04724 : 350.78739 : 1">
		</inkscape:perspective>
	
		<inkscape:perspective  inkscape:vp_z="744.09448 : 526.18109 : 1" inkscape:vp_y="0 : 1000 : 0" inkscape:vp_x="0 : 526.18109 : 1" sodipodi:type="inkscape:persp3d" id="perspective9789" inkscape:persp3d-origin="372.04724 : 350.78739 : 1">
		</inkscape:perspective>
	
		<inkscape:perspective  inkscape:vp_z="744.09448 : 526.18109 : 1" inkscape:vp_y="0 : 1000 : 0" inkscape:vp_x="0 : 526.18109 : 1" sodipodi:type="inkscape:persp3d" id="perspective9787" inkscape:persp3d-origin="372.04724 : 350.78739 : 1">
		</inkscape:perspective>
	
		<inkscape:perspective  inkscape:vp_z="744.09448 : 526.18109 : 1" inkscape:vp_y="0 : 1000 : 0" inkscape:vp_x="0 : 526.18109 : 1" sodipodi:type="inkscape:persp3d" id="perspective9785" inkscape:persp3d-origin="372.04724 : 350.78739 : 1">
		</inkscape:perspective>
	
		<inkscape:perspective  inkscape:vp_z="580 : 290 : 1" inkscape:vp_y="0 : 1000 : 0" inkscape:vp_x="0 : 290 : 1" sodipodi:type="inkscape:persp3d" id="perspective9783" inkscape:persp3d-origin="290 : 193.33333 : 1">
		</inkscape:perspective>
	
		<sodipodi:namedview  inkscape:cy="250.37448" inkscape:cx="475.26707" inkscape:zoom="0.61399264" pagecolor="#ffffff" bordercolor="#666666" borderopacity="1.0" id="namedview4258" inkscape:window-y="26" inkscape:window-x="0" inkscape:pageopacity="0.0" inkscape:pageshadow="2" inkscape:window-height="739" inkscape:window-width="1012">
		</sodipodi:namedview>
	
		<inkscape:perspective  inkscape:vp_z="200 : 100 : 1" inkscape:vp_y="0 : 1000 : 0" inkscape:vp_x="0 : 100 : 1" sodipodi:type="inkscape:persp3d" id="perspective11483" inkscape:persp3d-origin="100 : 66.666667 : 1">
		</inkscape:perspective>
	
		<inkscape:perspective  inkscape:vp_z="744.09448 : 526.18109 : 1" inkscape:vp_y="0 : 1000 : 0" inkscape:vp_x="0 : 526.18109 : 1" sodipodi:type="inkscape:persp3d" id="perspective34" inkscape:persp3d-origin="372.04724 : 350.78739 : 1">
		</inkscape:perspective>
	
		<inkscape:perspective  inkscape:vp_z="744.09448 : 526.18109 : 1" inkscape:vp_y="0 : 1000 : 0" inkscape:vp_x="0 : 526.18109 : 1" sodipodi:type="inkscape:persp3d" id="perspective13933" inkscape:persp3d-origin="372.04724 : 350.78739 : 1">
		</inkscape:perspective>
	
		<inkscape:perspective  inkscape:vp_z="744.09448 : 526.18109 : 1" inkscape:vp_y="0 : 1000 : 0" inkscape:vp_x="0 : 526.18109 : 1" sodipodi:type="inkscape:persp3d" id="perspective13955" inkscape:persp3d-origin="372.04724 : 350.78739 : 1">
		</inkscape:perspective>
	
		<inkscape:perspective  inkscape:vp_z="744.09448 : 526.18109 : 1" inkscape:vp_y="0 : 1000 : 0" inkscape:vp_x="0 : 526.18109 : 1" sodipodi:type="inkscape:persp3d" id="perspective2446" inkscape:persp3d-origin="372.04724 : 350.78739 : 1">
		</inkscape:perspective>
	
		<inkscape:perspective  inkscape:vp_z="405.71429 : 204.28572 : 1" inkscape:vp_y="0 : 1000 : 0" inkscape:vp_x="0 : 204.28572 : 1" sodipodi:type="inkscape:persp3d" id="perspective5571" inkscape:persp3d-origin="202.85715 : 136.19048 : 1">
		</inkscape:perspective>
	
		<inkscape:perspective  inkscape:vp_z="500 : 250 : 1" inkscape:vp_y="0 : 1000 : 0" inkscape:vp_x="0 : 250 : 1" sodipodi:type="inkscape:persp3d" id="perspective5412" inkscape:persp3d-origin="250 : 166.66667 : 1">
		</inkscape:perspective>
	
		<inkscape:perspective  inkscape:vp_z="32 : 16 : 1" inkscape:vp_y="0 : 1000 : 0" inkscape:vp_x="0 : 16 : 1" sodipodi:type="inkscape:persp3d" id="perspective5233" inkscape:persp3d-origin="16 : 10.666667 : 1">
		</inkscape:perspective>
	
		<inkscape:perspective  inkscape:vp_z="32 : 16 : 1" inkscape:vp_y="0 : 1000 : 0" inkscape:vp_x="0 : 16 : 1" sodipodi:type="inkscape:persp3d" id="perspective14642" inkscape:persp3d-origin="16 : 10.666667 : 1">
		</inkscape:perspective>
	
		<inkscape:perspective  inkscape:vp_z="12 : 6 : 1" inkscape:vp_y="0 : 1000 : 0" inkscape:vp_x="0 : 6 : 1" sodipodi:type="inkscape:persp3d" id="perspective14640" inkscape:persp3d-origin="6 : 4 : 1">
		</inkscape:perspective>
	
		<inkscape:perspective  inkscape:vp_z="744.09448 : 526.18109 : 1" inkscape:vp_y="0 : 1000 : 0" inkscape:vp_x="0 : 526.18109 : 1" sodipodi:type="inkscape:persp3d" id="perspective14638" inkscape:persp3d-origin="372.04724 : 350.78739 : 1">
		</inkscape:perspective>
	
		<inkscape:perspective  inkscape:vp_z="60 : 30 : 1" inkscape:vp_y="0 : 1000 : 0" inkscape:vp_x="0 : 30 : 1" sodipodi:type="inkscape:persp3d" id="perspective14626" inkscape:persp3d-origin="30 : 20 : 1">
		</inkscape:perspective>
	
		<inkscape:perspective  inkscape:vp_z="580 : 290 : 1" inkscape:vp_y="0 : 1000 : 0" inkscape:vp_x="0 : 290 : 1" sodipodi:type="inkscape:persp3d" id="perspective14624" inkscape:persp3d-origin="290 : 193.33333 : 1">
		</inkscape:perspective>
	
		<inkscape:perspective  inkscape:vp_z="744.09448 : 526.18109 : 1" inkscape:vp_y="0 : 1000 : 0" inkscape:vp_x="0 : 526.18109 : 1" sodipodi:type="inkscape:persp3d" id="perspective14775" inkscape:persp3d-origin="372.04724 : 350.78739 : 1">
		</inkscape:perspective>
	
		<inkscape:perspective  inkscape:vp_z="744.09448 : 526.18109 : 1" inkscape:vp_y="0 : 1000 : 0" inkscape:vp_x="0 : 526.18109 : 1" sodipodi:type="inkscape:persp3d" id="perspective14839" inkscape:persp3d-origin="372.04724 : 350.78739 : 1">
		</inkscape:perspective>
	
		<inkscape:perspective  inkscape:vp_z="425.82123 : 199.51877 : 1" inkscape:vp_y="0 : 1000 : 0" inkscape:vp_x="0 : 199.51877 : 1" sodipodi:type="inkscape:persp3d" id="perspective2562" inkscape:persp3d-origin="212.91061 : 133.01251 : 1">
		</inkscape:perspective>
</defs>
<g id="layer3" transform="matrix(48.14969,0,0,48.14969,-1210.2219,-51.870914)" inkscape:label="Layout" display="none">
	<rect id="rect4134" x="1" y="1" display="inline" fill="none" stroke="#757575" stroke-width="0.1" width="10" height="10"/>
	<rect id="rect4136" x="2" y="2" display="inline" fill="none" stroke="#757575" stroke-width="0.1" width="8" height="8"/>
</g>
<g id="g9828" transform="matrix(48.14969,0,0,48.14969,-1870.5198,102.97115)" inkscape:label="Layout" display="none">
	<rect id="rect9830" x="1" y="1" display="inline" fill="none" stroke="#757575" stroke-width="0.1" width="10" height="10"/>
	<rect id="rect9832" x="2" y="2" display="inline" fill="none" stroke="#757575" stroke-width="0.1" width="8" height="8"/>
</g>
<g id="g14695" transform="matrix(48.14969,0,0,48.14969,-1210.2219,-182.06834)" inkscape:label="Layout" display="none">
	<rect id="rect14697" x="1" y="1" display="inline" fill="none" stroke="#757575" stroke-width="0.1" width="10" height="10"/>
	<rect id="rect14699" x="2" y="2" display="inline" fill="none" stroke="#757575" stroke-width="0.1" width="8" height="8"/>
</g>
<path fill="param(fill) #FFF" stroke="param(outline) #000" stroke-width="param(outline-width) 1" d="M429.16,447.247c-2.484-10.55-2.114-21.455-2.747-32.202
	c0.622-17.227-13.469-29.661-25.988-39.22c-6.461-3.684-13.423-6.628-20.756-8.015c-12.47-3.34-23.26,5.221-33.301,11.175
	c-7.898,5.64-17.545,4.964-26.663,4.2c-21.683-1.25-46.045,6.242-57.711,25.802c-8.486,12.604-9.19,29.357-2.422,42.873
	c6.125,11.055,12.892,22.45,23.819,29.45c10.955,8.272,24.779,9.894,37.631,13.343c14.143,3.31,21.557,16.82,31.643,25.905
	c15.205,15.184,38.191,20.521,58.93,16.198c20.047-6.429,36.3-26.681,35.143-48.244C444.465,473.604,437.18,459.855,429.16,447.247z
	"/>
<path fill="param(fill) #FFF" stroke="param(outline) #000" stroke-width="param(outline-width) 1" d="M327.864,272.068c-11.621-5.054-25.304-0.558-34.166,7.823
	c-12.204,12.751-16.486,30.963-16.993,48.129c-0.594,7.888,1.502,15.705,4.914,22.767c5.583,12.127,18.25,20.738,31.701,20.665
	c9.524,1.345,19.568-2.062,25.991-9.307c5.807-5.916,8.646-13.887,10.553-21.786c4.208-16.389,5.292-34.666-2.209-50.298
	C343.016,282.372,336.184,275.661,327.864,272.068z"/>
<path fill="param(fill) #FFF" stroke="param(outline) #000" stroke-width="param(outline-width) 1" d="M396.992,358.107c17.706-1.152,30.608-22.104,30.608-22.104
	c14.656-19.719,16.503-37.129,16.503-37.129c3.429-26.501-13.01-36.397-13.01-36.397c-14.738-8.887-32.277-5.037-32.277-5.037
	c-20.933,4.975-30.726,28.231-30.726,28.231c-9.656,22.381-4.673,45.233-4.673,45.233
	C370.646,363.502,396.992,358.107,396.992,358.107z"/>
<path fill="param(fill) #FFF" stroke="param(outline) #000" stroke-width="param(outline-width) 1" d="M444.975,395.984c16.191,6.554,39.789-7.74,39.789-7.74
	c21.105-10.42,31.017-29.736,31.017-29.736c15.975-21.891-0.761-39.943-0.761-39.943c-21.063-23.885-53.355-4.477-53.355-4.477
	c-24.569,11.422-33.047,45.023-33.047,45.023C425.55,391.334,444.975,395.984,444.975,395.984z"/>
<path fill="param(fill) #FFF" stroke="param(outline) #000" stroke-width="param(outline-width) 1" d="M529.311,407.271c-1.343-1.685-2.9-3.197-4.632-4.479
	c-8.157-6.069-19.028-6.279-28.605-4.319c-12.289,2.009-22.996,9.136-32.687,16.595c-10.762,7.642-17.333,20.326-18.252,33.407
	c-0.486,3.871-0.268,7.819,1.958,11.156c4.586,9.599,13.801,17.673,24.8,18.071c15.088-0.37,30.028-5.74,42.002-14.923
	c7.854-6.479,15.191-14.089,19.498-23.436C538.363,429.047,537.108,415.839,529.311,407.271z"/>
<path fill="param(fill) #FFF" stroke="param(outline) #000" stroke-width="param(outline-width) 1" d="M178.943,64.981c3.423,2.397,3.975,5.236,3.979,20.473
	c0.003,9.729,0.606,34.858,1.339,55.842c1.333,38.153,1.333,38.153,7.116,38.153s5.783,0,5.783-54.137
	c0-54.138,0-54.138,5.088-60.184c9.691-11.518,8.262-25.317-3.238-31.264C179.158,23.598,160.708,52.209,178.943,64.981z"/>
<path fill="param(fill) #FFF" stroke="param(outline) #000" stroke-width="param(outline-width) 1" d="M188.264,419.979c1.595,2.579,5.769,0.822,6.233-2.625
	c0.214-1.586,0.97-9.887,1.68-18.445c1.292-15.562,1.292-15.562,12.567-11.599c12.66,4.449,15.304,3.757,9.623-2.521
	C200.09,364.594,173.352,395.85,188.264,419.979z"/>
<path fill="param(fill) #FFF" stroke="param(outline) #000" stroke-width="param(outline-width) 1" d="M214.901,126.39c13.781,4.091,36.083,1.009,43.297-5.983
	c6.659-6.454,7.062-6.566,12.82-3.563c10.492,5.471,20.155,2.794,26.072-7.222c2.791-4.725,4.929-5.931,10.511-5.931
	c7.412,0,15.146-5.734,15.146-11.23c0-2.244,1.335-2.756,4.868-1.869c6.522,1.637,16.72-3.878,20.427-11.047
	c2.981-5.764,2.981-5.764-36.083-6.922c-34.434-1.021-40.994-1.777-55.343-6.384c-24.343-7.815-32.958-6.662-36.629,4.903
	c-0.708,2.229-3.543,4.619-6.3,5.311C205.8,78.432,206.909,124.017,214.901,126.39z"/>
<path fill="param(fill) #FFF" stroke="param(outline) #000" stroke-width="param(outline-width) 1" d="M231.259,207.501c-1.633,1.355-7.274,3.054-12.535,3.775
	c-7.732,1.06-9.306,1.938-8.211,4.581c3.229,7.795,2.937,10.068-2.056,16.001c-3.41,4.053-10.495,8.258-19.989,11.863
	c-36.598,13.899-49.213,32.311-34.951,51.01c6.242,8.185,6.047,8.17,19.063,1.417c9.892-5.132,10.19-5.524,6.292-8.254
	c-11.818-8.278-4.119-17.69,22.037-26.939c29.942-10.588,42.89-23.716,40.039-40.593
	C239.099,209.432,235.189,204.24,231.259,207.501z"/>
<path fill="param(fill) #FFF" stroke="param(outline) #000" stroke-width="param(outline-width) 1" d="M214.342,261.27c-3.294,1.636-11.254,4.584-17.69,6.55
	c-11.7,3.574-11.7,3.574-11.7,13.453c0,9.879,0,9.879,6.104,7.751c5.546-1.934,6.104-2.955,6.104-11.157
	c0-8.364,0.297-8.871,4.023-6.876c13.358,7.149,7.444,17.594-13.978,24.686c-24.182,8.004-36.732,28.213-25.339,40.803
	c4.133,4.566,3.254,4.634,11.294-0.857c5.237-3.577,6.565-5.777,6.071-10.059c-0.726-6.285,2.273-8.234,24.54-15.949
	c26.746-9.266,35.837-28.906,21.238-45.879C220.564,258.565,220.033,258.443,214.342,261.27z"/>
<path fill="param(fill) #FFF" stroke="param(outline) #000" stroke-width="param(outline-width) 1" d="M213.763,365.334c6.468-7.241,5.818-20.291-0.833-16.705
	c-2.518,1.357-9.615,4.028-15.77,5.935c-8.446,2.616-11.351,4.523-11.841,7.777c-0.828,5.489,1.203,5.457,7.132-0.113
	c3.619-3.4,4.709-3.71,4.709-1.34c0,1.696-8.756,8.718-19.459,15.603c-10.702,6.885-18.933,13.368-18.291,14.407
	C161.302,393.959,207.677,372.148,213.763,365.334z"/>
<path fill="param(fill) #FFF" stroke="param(outline) #000" stroke-width="param(outline-width) 1" d="M184.952,226.25c0,6.715,0.398,12.209,0.885,12.209
	c7.757,0,11.324-4.471,11.324-14.193c0-10.004-0.131-10.225-6.104-10.225C184.952,214.041,184.952,214.041,184.952,226.25z"/>
<path fill="param(fill) #FFF" stroke="param(outline) #000" stroke-width="param(outline-width) 1" d="M187.308,333.296c-22.229,9.826-27.922,20.739-17.365,33.285
	c6.504,7.729,9.704,7.093,10.597-2.112c0.879-9.061,2.98-11.34,12.021-13.035c19.351-3.631,26.983-11.981,26.983-29.523
	c0-12.567-13.242-12.979-32.603-1.014c-5.842,3.61-2.022,9.25,4.115,6.076c3.357-1.736,6.104-4.232,6.104-5.546
	c0-1.755,0.602-1.788,2.265-0.126C202.891,324.768,199.897,327.731,187.308,333.296z"/>
<path fill="param(fill) #FFF" stroke="param(outline) #000" stroke-width="param(outline-width) 1" d="M147.334,195.685c0.706-1.143,5.861-4.691,11.455-7.886
	c10.171-5.809,10.171-5.809,2.397-7.211c-15.021-2.709-25.07-8.948-25.07-15.564c0-7.311,5.51-7.988,13.989-1.72
	c6.995,5.171,22.027,4.856,25.403-0.533c7.005-11.18-11.248-25.143-29.804-22.798c-35.609,4.499-42.927,32.254-13.681,51.896
	C141.304,198.102,145.235,199.082,147.334,195.685z"/>
<path fill="param(fill) #FFF" stroke="param(outline) #000" stroke-width="param(outline-width) 1" d="M169.88,245.208c10.428-5.46,10.428-5.46,4.61-10.355
	c-16.021-13.481-7.696-21.552,27.862-27.011c41.91-6.434,63.991-21.555,63.991-43.821c0-19.727-37.988-32.098-54.89-17.875
	c-16.359,13.766,3.311,29.907,20.741,17.02c7.329-5.418,12.784-4.629,12.784,1.848c0,9.477-29.883,20.373-56.21,20.496
	c-36.34,0.17-62.257,36.125-41.729,57.891C155.253,252.11,156.507,252.209,169.88,245.208z"/>
<path fill="param(fill) #FFF" stroke="param(outline) #000" stroke-width="param(outline-width) 1" d="M119.87,117.226c1.381,1.889,5.044,5.104,8.139,7.145
	c5.834,3.847,23.954,5.058,36.913,2.466c8.104-1.621,10.342-48.061,2.437-50.569c-2.157-0.685-5.789-4.409-8.07-8.276
	c-5.21-8.831-11.368-9.165-34.017-1.841c-14.097,4.559-20.825,5.34-55.223,6.414c-21.543,0.672-39.17,1.795-39.17,2.496
	c0,6.948,15.972,17.451,23.62,15.532c3.895-0.978,4.868-0.424,4.868,2.771c0,5.292,7.504,10.328,15.387,10.328
	c4.796,0,6.91,1.245,8.667,5.103c4.083,8.963,14.762,12.532,25.211,8.427C116.817,114.004,117.514,114.005,119.87,117.226z"/>
</svg>
