<?xml version="1.0" encoding="utf-8"?>
<!-- Generator: Adobe Illustrator 16.0.0, SVG Export Plug-In . SVG Version: 6.00 Build 0)  -->
<!DOCTYPE svg PUBLIC "-//W3C//DTD SVG 1.1//EN" "http://www.w3.org/Graphics/SVG/1.1/DTD/svg11.dtd">
<svg version="1.1"
	 id="svg2" xmlns:dc="http://purl.org/dc/elements/1.1/" xmlns:cc="http://creativecommons.org/ns#" xmlns:rdf="http://www.w3.org/1999/02/22-rdf-syntax-ns#" xmlns:svg="http://www.w3.org/2000/svg" xmlns:sodipodi="http://sodipodi.sourceforge.net/DTD/sodipodi-0.dtd" xmlns:inkscape="http://www.inkscape.org/namespaces/inkscape" sodipodi:version="0.32" sodipodi:docname="hospital_emergency2.svg" inkscape:output_extension="org.inkscape.output.svg.inkscape" inkscape:version="0.46" sodipodi:docbase="s:\Data\FacilityIcons"
	 xmlns="http://www.w3.org/2000/svg" xmlns:xlink="http://www.w3.org/1999/xlink" x="0px" y="0px" width="580px" height="580px"
	 viewBox="0 0 580 580" enable-background="new 0 0 580 580" xml:space="preserve">
<sodipodi:namedview  showgrid="false" inkscape:cy="281.19503" inkscape:cx="117.36066" inkscape:zoom="0.92167712" pagecolor="#ffffff" bordercolor="#666666" guidetolerance="10.0" objecttolerance="10.0" gridtolerance="10.0" borderopacity="1.0" id="base" inkscape:current-layer="svg2" inkscape:window-y="13" inkscape:window-x="11" inkscape:pageopacity="0.0" inkscape:pageshadow="2" inkscape:window-height="947" inkscape:window-width="1048">
	</sodipodi:namedview>
<defs>
	
	
		<inkscape:perspective  inkscape:vp_z="580 : 290 : 1" inkscape:vp_y="0 : 1000 : 0" inkscape:vp_x="0 : 290 : 1" sodipodi:type="inkscape:persp3d" id="perspective2441" inkscape:persp3d-origin="290 : 193.33333 : 1">
		</inkscape:perspective>
	
		<inkscape:perspective  inkscape:vp_z="60 : 30 : 1" inkscape:vp_y="0 : 1000 : 0" inkscape:vp_x="0 : 30 : 1" sodipodi:type="inkscape:persp3d" id="perspective3452" inkscape:persp3d-origin="30 : 20 : 1">
		</inkscape:perspective>
	
		<inkscape:perspective  inkscape:vp_z="744.09448 : 526.18109 : 1" inkscape:vp_y="0 : 1000 : 0" inkscape:vp_x="0 : 526.18109 : 1" sodipodi:type="inkscape:persp3d" id="perspective4471" inkscape:persp3d-origin="372.04724 : 350.78739 : 1">
		</inkscape:perspective>
	
		<inkscape:perspective  inkscape:vp_z="12 : 6 : 1" inkscape:vp_y="0 : 1000 : 0" inkscape:vp_x="0 : 6 : 1" sodipodi:type="inkscape:persp3d" id="perspective4668" inkscape:persp3d-origin="6 : 4 : 1">
		</inkscape:perspective>
	
		<inkscape:perspective  inkscape:vp_z="32 : 16 : 1" inkscape:vp_y="0 : 1000 : 0" inkscape:vp_x="0 : 16 : 1" sodipodi:type="inkscape:persp3d" id="perspective4904" inkscape:persp3d-origin="16 : 10.666667 : 1">
		</inkscape:perspective>
	
		<inkscape:perspective  inkscape:vp_z="32 : 16 : 1" inkscape:vp_y="0 : 1000 : 0" inkscape:vp_x="0 : 16 : 1" sodipodi:type="inkscape:persp3d" id="perspective5233" inkscape:persp3d-origin="16 : 10.666667 : 1">
		</inkscape:perspective>
	
		<inkscape:perspective  inkscape:vp_z="500 : 250 : 1" inkscape:vp_y="0 : 1000 : 0" inkscape:vp_x="0 : 250 : 1" sodipodi:type="inkscape:persp3d" id="perspective5412" inkscape:persp3d-origin="250 : 166.66667 : 1">
		</inkscape:perspective>
</defs>
<g id="layer3" transform="matrix(48.14969,0,0,48.14969,-536.27327,-33.306752)" inkscape:label="Layout" display="none">
	<rect id="rect4134" x="1" y="1" display="inline" fill="none" stroke="#757575" stroke-width="0.1" width="10" height="10"/>
	<rect id="rect4136" x="2" y="2" display="inline" fill="none" stroke="#757575" stroke-width="0.1" width="8" height="8"/>
</g>
<path fill="#FFFB3D" stroke="#1EFF31" stroke-width="4.4444" d="M227.52,92.674c-106.584,0-193.297,86.712-193.297,193.296
	s86.712,193.296,193.297,193.296c106.584,0,193.296-86.712,193.296-193.296S334.104,92.674,227.52,92.674z M227.52,454.13
	c-92.723,0-168.159-75.437-168.159-168.159c0-92.723,75.436-168.159,168.159-168.159c92.723,0,168.159,75.436,168.159,168.159
	C395.679,378.693,320.242,454.13,227.52,454.13z"/>
<polygon fill="#FFFB3D" stroke="#1EFF31" stroke-width="4.4444" points="263.664,139.451 191.375,139.451 191.375,249.826 
	80.999,249.826 80.999,322.115 191.375,322.115 191.375,432.49 263.664,432.49 263.664,322.115 374.039,322.115 374.039,249.826 
	263.664,249.826 "/>
<path fill="#FFFB3D" stroke="#1EFF31" stroke-width="4.4444" d="M511.345,424.435c-7.311-5.58-16.354-8.37-27.127-8.37
	c-11.287,0-20.842,2.885-28.666,8.653c-7.823,5.77-11.735,12.626-11.735,20.57c0,6.432,4.425,12.957,13.274,19.577
	c8.851,6.62,17.893,9.931,27.127,9.931c8.465,0,16.93-3.405,25.396-10.215c8.465-6.809,12.697-13.808,12.697-20.995
	S518.655,430.015,511.345,424.435z"/>
<path fill="#FFFB3D" stroke="#1EFF31" stroke-width="4.4444" d="M463.056,221.713l12.313,163.425
	c3.591,0.567,6.284,0.852,8.08,0.852c1.282,0,3.206-0.189,5.771-0.568c1.026-2.647,1.668-4.729,1.924-6.241l3.078-68.094
	c0.514-18.726,5.771-59.487,15.776-122.285c5.13-32.723,7.695-53.435,7.695-62.136c0-9.457-3.463-16.787-10.389-21.989
	c-6.927-5.201-15.392-7.802-25.396-7.802c-9.234,0-17.059,2.601-23.472,7.802c-6.413,5.202-9.619,12.91-9.619,23.124
	c0,10.214,2.565,27.049,7.695,50.503C460.105,195.895,462.285,210.365,463.056,221.713z"/>
</svg>
