<svg enable-background="new 0 0 580 580" height="580" viewBox="0 0 580 580" width="580" xmlns="http://www.w3.org/2000/svg">
<path d="m429.16 447.247c-2.484-10.55-2.114-21.455-2.747-32.202.622-17.227-13.469-29.661-25.988-39.22-6.461-3.684-13.423-6.628-20.756-8.015-12.47-3.34-23.26 5.221-33.301 11.175-7.898 5.64-17.545 4.964-26.663 4.2-21.683-1.25-46.045 6.242-57.711 25.802-8.486 12.604-9.19 29.357-2.422 42.873 6.125 11.055 12.892 22.45 23.819 29.45 10.955 8.272 24.779 9.894 37.631 13.343 14.143 3.31 21.557 16.82 31.643 25.905 15.205 15.184 38.191 20.521 58.93 16.198 20.047-6.429 36.3-26.681 35.143-48.244-2.273-14.908-9.558-28.657-17.578-41.265z" fill="param(fill)" fill-opacity="param(fill-opacity)" stroke="param(outline)" stroke-opacity="param(outline-opacity)" stroke-width="param(outline-width)"/>
<path d="m327.864 272.068c-11.621-5.054-25.304-.558-34.166 7.823-12.204 12.751-16.486 30.963-16.993 48.129-.594 7.888 1.502 15.705 4.914 22.767 5.583 12.127 18.25 20.738 31.701 20.665 9.524 1.345 19.568-2.062 25.991-9.307 5.807-5.916 8.646-13.887 10.553-21.786 4.208-16.389 5.292-34.666-2.209-50.298-4.639-7.689-11.471-14.4-19.791-17.993z" fill="param(fill)" fill-opacity="param(fill-opacity)" stroke="param(outline)" stroke-opacity="param(outline-opacity)" stroke-width="param(outline-width)"/>
<path d="m396.992 358.107c17.706-1.152 30.608-22.104 30.608-22.104 14.656-19.719 16.503-37.129 16.503-37.129 3.429-26.501-13.01-36.397-13.01-36.397-14.738-8.887-32.277-5.037-32.277-5.037-20.933 4.975-30.726 28.231-30.726 28.231-9.656 22.381-4.673 45.233-4.673 45.233 7.229 32.598 33.575 27.203 33.575 27.203z" fill="param(fill)" fill-opacity="param(fill-opacity)" stroke="param(outline)" stroke-opacity="param(outline-opacity)" stroke-width="param(outline-width)"/>
<path d="m444.975 395.984c16.191 6.554 39.789-7.74 39.789-7.74 21.105-10.42 31.017-29.736 31.017-29.736 15.975-21.891-.761-39.943-.761-39.943-21.063-23.885-53.355-4.477-53.355-4.477-24.569 11.422-33.047 45.023-33.047 45.023-3.068 32.223 16.357 36.873 16.357 36.873z" fill="param(fill)" fill-opacity="param(fill-opacity)" stroke="param(outline)" stroke-opacity="param(outline-opacity)" stroke-width="param(outline-width)"/>
<path d="m529.311 407.271c-1.343-1.685-2.9-3.197-4.632-4.479-8.157-6.069-19.028-6.279-28.605-4.319-12.289 2.009-22.996 9.136-32.687 16.595-10.762 7.642-17.333 20.326-18.252 33.407-.486 3.871-.268 7.819 1.958 11.156 4.586 9.599 13.801 17.673 24.8 18.071 15.088-.37 30.028-5.74 42.002-14.923 7.854-6.479 15.191-14.089 19.498-23.436 4.97-10.296 3.715-23.504-4.082-32.072z" fill="param(fill)" fill-opacity="param(fill-opacity)" stroke="param(outline)" stroke-opacity="param(outline-opacity)" stroke-width="param(outline-width)"/>
<path d="m178.943 64.981c3.423 2.397 3.975 5.236 3.979 20.473.003 9.729.606 34.858 1.339 55.842 1.333 38.153 1.333 38.153 7.116 38.153s5.783 0 5.783-54.137c0-54.138 0-54.138 5.088-60.184 9.691-11.518 8.262-25.317-3.238-31.264-19.852-10.266-38.302 18.345-20.067 31.117z" fill="param(fill)" fill-opacity="param(fill-opacity)" stroke="param(outline)" stroke-opacity="param(outline-opacity)" stroke-width="param(outline-width)"/>
<path d="m188.264 419.979c1.595 2.579 5.769.822 6.233-2.625.214-1.586.97-9.887 1.68-18.445 1.292-15.562 1.292-15.562 12.567-11.599 12.66 4.449 15.304 3.757 9.623-2.521-18.277-20.195-45.015 11.061-30.103 35.19z" fill="param(fill)" fill-opacity="param(fill-opacity)" stroke="param(outline)" stroke-opacity="param(outline-opacity)" stroke-width="param(outline-width)"/>
<path d="m214.901 126.39c13.781 4.091 36.083 1.009 43.297-5.983 6.659-6.454 7.062-6.566 12.82-3.563 10.492 5.471 20.155 2.794 26.072-7.222 2.791-4.725 4.929-5.931 10.511-5.931 7.412 0 15.146-5.734 15.146-11.23 0-2.244 1.335-2.756 4.868-1.869 6.522 1.637 16.72-3.878 20.427-11.047 2.981-5.764 2.981-5.764-36.083-6.922-34.434-1.021-40.994-1.777-55.343-6.384-24.343-7.815-32.958-6.662-36.629 4.903-.708 2.229-3.543 4.619-6.3 5.311-7.887 1.979-6.778 47.564 1.214 49.937z" fill="param(fill)" fill-opacity="param(fill-opacity)" stroke="param(outline)" stroke-opacity="param(outline-opacity)" stroke-width="param(outline-width)"/>
<path d="m231.259 207.501c-1.633 1.355-7.274 3.054-12.535 3.775-7.732 1.06-9.306 1.938-8.211 4.581 3.229 7.795 2.937 10.068-2.056 16.001-3.41 4.053-10.495 8.258-19.989 11.863-36.598 13.899-49.213 32.311-34.951 51.01 6.242 8.185 6.047 8.17 19.063 1.417 9.892-5.132 10.19-5.524 6.292-8.254-11.818-8.278-4.119-17.69 22.037-26.939 29.942-10.588 42.89-23.716 40.039-40.593-1.849-10.93-5.759-16.122-9.689-12.861z" fill="param(fill)" fill-opacity="param(fill-opacity)" stroke="param(outline)" stroke-opacity="param(outline-opacity)" stroke-width="param(outline-width)"/>
<path d="m214.342 261.27c-3.294 1.636-11.254 4.584-17.69 6.55-11.7 3.574-11.7 3.574-11.7 13.453 0 9.879 0 9.879 6.104 7.751 5.546-1.934 6.104-2.955 6.104-11.157 0-8.364.297-8.871 4.023-6.876 13.358 7.149 7.444 17.594-13.978 24.686-24.182 8.004-36.732 28.213-25.339 40.803 4.133 4.566 3.254 4.634 11.294-.857 5.237-3.577 6.565-5.777 6.071-10.059-.726-6.285 2.273-8.234 24.54-15.949 26.746-9.266 35.837-28.906 21.238-45.879-4.445-5.171-4.976-5.293-10.667-2.466z" fill="param(fill)" fill-opacity="param(fill-opacity)" stroke="param(outline)" stroke-opacity="param(outline-opacity)" stroke-width="param(outline-width)"/>
<path d="m213.763 365.334c6.468-7.241 5.818-20.291-.833-16.705-2.518 1.357-9.615 4.028-15.77 5.935-8.446 2.616-11.351 4.523-11.841 7.777-.828 5.489 1.203 5.457 7.132-.113 3.619-3.4 4.709-3.71 4.709-1.34 0 1.696-8.756 8.718-19.459 15.603-10.702 6.885-18.933 13.368-18.291 14.407 1.892 3.061 48.267-18.75 54.353-25.564z" fill="param(fill)" fill-opacity="param(fill-opacity)" stroke="param(outline)" stroke-opacity="param(outline-opacity)" stroke-width="param(outline-width)"/>
<path d="m184.952 226.25c0 6.715.398 12.209.885 12.209 7.757 0 11.324-4.471 11.324-14.193 0-10.004-.131-10.225-6.104-10.225-6.105 0-6.105 0-6.105 12.209z" fill="param(fill)" fill-opacity="param(fill-opacity)" stroke="param(outline)" stroke-opacity="param(outline-opacity)" stroke-width="param(outline-width)"/>
<path d="m187.308 333.296c-22.229 9.826-27.922 20.739-17.365 33.285 6.504 7.729 9.704 7.093 10.597-2.112.879-9.061 2.98-11.34 12.021-13.035 19.351-3.631 26.983-11.981 26.983-29.523 0-12.567-13.242-12.979-32.603-1.014-5.842 3.61-2.022 9.25 4.115 6.076 3.357-1.736 6.104-4.232 6.104-5.546 0-1.755.602-1.788 2.265-.126 3.466 3.467.472 6.43-12.117 11.995z" fill="param(fill)" fill-opacity="param(fill-opacity)" stroke="param(outline)" stroke-opacity="param(outline-opacity)" stroke-width="param(outline-width)"/>
<path d="m147.334 195.685c.706-1.143 5.861-4.691 11.455-7.886 10.171-5.809 10.171-5.809 2.397-7.211-15.021-2.709-25.07-8.948-25.07-15.564 0-7.311 5.51-7.988 13.989-1.72 6.995 5.171 22.027 4.856 25.403-.533 7.005-11.18-11.248-25.143-29.804-22.798-35.609 4.499-42.927 32.254-13.681 51.896 9.281 6.233 13.212 7.213 15.311 3.816z" fill="param(fill)" fill-opacity="param(fill-opacity)" stroke="param(outline)" stroke-opacity="param(outline-opacity)" stroke-width="param(outline-width)"/>
<path d="m169.88 245.208c10.428-5.46 10.428-5.46 4.61-10.355-16.021-13.481-7.696-21.552 27.862-27.011 41.91-6.434 63.991-21.555 63.991-43.821 0-19.727-37.988-32.098-54.89-17.875-16.359 13.766 3.311 29.907 20.741 17.02 7.329-5.418 12.784-4.629 12.784 1.848 0 9.477-29.883 20.373-56.21 20.496-36.34.17-62.257 36.125-41.729 57.891 8.214 8.709 9.468 8.808 22.841 1.807z" fill="param(fill)" fill-opacity="param(fill-opacity)" stroke="param(outline)" stroke-opacity="param(outline-opacity)" stroke-width="param(outline-width)"/>
<path d="m119.87 117.226c1.381 1.889 5.044 5.104 8.139 7.145 5.834 3.847 23.954 5.058 36.913 2.466 8.104-1.621 10.342-48.061 2.437-50.569-2.157-.685-5.789-4.409-8.07-8.276-5.21-8.831-11.368-9.165-34.017-1.841-14.097 4.559-20.825 5.34-55.223 6.414-21.543.672-39.17 1.795-39.17 2.496 0 6.948 15.972 17.451 23.62 15.532 3.895-.978 4.868-.424 4.868 2.771 0 5.292 7.504 10.328 15.387 10.328 4.796 0 6.91 1.245 8.667 5.103 4.083 8.963 14.762 12.532 25.211 8.427 8.185-3.218 8.882-3.217 11.238.004z" fill="param(fill)" fill-opacity="param(fill-opacity)" stroke="param(outline)" stroke-opacity="param(outline-opacity)" stroke-width="param(outline-width)"/>
</svg>
