/* XPM */
static const char *icon[]={
"32 32 7 1",
". c None",
"# c #000000",
"c c #004000",
"b c #008000",
"e c #800000",
"d c #ffff00",
"a c #ffffff",
"................................",
"................................",
"................................",
"................................",
".........#############..........",
".........#############..........",
".........#....###....#..........",
"..............###...............",
"..............###...............",
".............a###...............",
".............a###...............",
".............a###...............",
"..............###...............",
".............a###...............",
".............#####..............",
".............bbbbbbbbbbbbbbbbca.",
"............bbbdddddddddddddbc..",
"...........bbbdddeeddddeeddbc...",
".........bbbdddddeeddddeedbc....",
"........bbbddddddddddddddbc.....",
".......bbdddddeeddddddddbc......",
".....bbbddeeddeedddddddbc.......",
".a..bbddddeedddddddeedbc........",
".abbbddddddddddddddeebc.........",
".abbbbbbbbbbbbbbbbbbbc..........",
"..cccccccccccccccccccc..........",
"................................",
"................................",
"................................",
"................................",
"................................",
"................................"};
