<?xml version="1.0" encoding="utf-8"?>
<!-- Generator: Adobe Illustrator 16.0.0, SVG Export Plug-In . SVG Version: 6.00 Build 0)  -->
<!DOCTYPE svg PUBLIC "-//W3C//DTD SVG 1.1//EN" "http://www.w3.org/Graphics/SVG/1.1/DTD/svg11.dtd">
<svg version="1.1"
	 id="svg3427" xmlns:dc="http://purl.org/dc/elements/1.1/" xmlns:cc="http://creativecommons.org/ns#" xmlns:rdf="http://www.w3.org/1999/02/22-rdf-syntax-ns#" xmlns:svg="http://www.w3.org/2000/svg" xmlns:sodipodi="http://sodipodi.sourceforge.net/DTD/sodipodi-0.dtd" xmlns:inkscape="http://www.inkscape.org/namespaces/inkscape" inkscape:export-filename="/home/matt/Programming/openstreetmap/icons/highway=bus_stop.png" inkscape:export-ydpi="90" inkscape:export-xdpi="90" inkscape:output_extension="org.inkscape.output.svg.inkscape" sodipodi:docname="amenity=ferry_terminal.svg" inkscape:version="0.46" sodipodi:version="0.32"
	 xmlns="http://www.w3.org/2000/svg" xmlns:xlink="http://www.w3.org/1999/xlink" x="0px" y="0px" width="579.997px"
	 height="579.997px" viewBox="0 0 579.997 579.997" enable-background="new 0 0 579.997 579.997" xml:space="preserve">
<defs>
	
	
		<inkscape:perspective  inkscape:vp_z="16 : 8 : 1" inkscape:vp_y="0 : 1000 : 0" inkscape:vp_x="0 : 8 : 1" sodipodi:type="inkscape:persp3d" id="perspective3435" inkscape:persp3d-origin="8 : 5.3333333 : 1">
		</inkscape:perspective>
</defs>
<sodipodi:namedview  showgrid="true" inkscape:cy="8" inkscape:cx="8" inkscape:zoom="31.875" pagecolor="#ffffff" bordercolor="#666666" borderopacity="1.0" id="base" inkscape:document-units="px" inkscape:grid-bbox="true" inkscape:current-layer="layer2" inkscape:window-y="0" inkscape:window-x="0" inkscape:pageopacity="0.0" inkscape:pageshadow="2" inkscape:window-width="1280" inkscape:window-height="723">
	<inkscape:grid  type="xygrid" id="grid4891"></inkscape:grid>
</sodipodi:namedview>
<path fill="param(fill)" fill-opacity="param(fill-opacity)" stroke="param(outline)" stroke-opacity="param(outline-opacity)" stroke-width="param(outline-width)" d="M160.77,450.55c8.937-5.793,16.26-14.225,20.826-24.829h1.128
	c0.563-3.174,1.021-6.662,2.256-9.023c1.463-2.82,4.053-4.441,6.768-6.768v-1.129c3.331-3.453,7.049-6.52,12.407-7.895
	c10.768-2.82,20.778,2.256,27.069,10.15c3.366,4.195,4.106,8.813,4.512,13.535h1.128c6.592,16.742,16.126,25.52,33.838,31.582
	c29.503,10.08,60.838-3.418,72.188-31.582c0.07-0.141,1.022-0.775,1.128-1.127c0.176-1.059-0.247-1.516,0-2.256
	c0.388-1.199,0.951-2.891,1.128-3.385c0.351-0.42,0.702-0.771,1.122-1.121c0.054-0.136,0.553-1.224,1.134-2.262
	c0.493-0.918,0.635-0.494,1.128-1.129c1.798-2.326,3.313-4.477,3.384-4.512c2.044-2.045,5.675-6.168,12.407-7.895
	c10.785-2.82,20.796,2.256,27.07,10.15c0,0,0.775,0.424,1.128,1.129s0.881,0.598,1.128,1.127c0.211,0.354,0,1.129,0,1.129
	c0-0.035-0.106,0.598,0,1.127c0.423,0.74,0.775,1.48,1.128,2.256c0.281,0.211-0.424,0.705,0,1.129
	c0.528,1.232,1.903,2.078,2.256,3.383h1.128c0.281,0.705-0.106,0.564,0,1.129c0.105,0.422-0.071,0.67,0,1.127
	c4.287,10.89,9.904,18.427,18.126,24.023c1.093-11.154,3.17-26.344,7.125-44.221c7.778-35.16,24.631-88.272,60.752-141.623
	l14.515-21.442l-25.142-6.197c-0.238-0.059-16.547-4.1-39.205-10.814v-115.11H360.73V36.619l-143.797,1.346l-1.126,71.242h-69.238
	v114.926c-17.651,5.367-33.237,9.631-43.813,12.288l-24.494,6.155l13.757,21.178C142.084,340.83,156.602,416.359,160.77,450.55z
	 M168.226,130.863h68.898l1.13-71.441l100.82-0.943v72.385h73.598v86.783c-4.573-1.464-9.256-3.001-13.996-4.604
	c-66.246-22.412-88.369-38.751-95.659-46.496l-12.962-13.769l-13.148,13.59c-17.171,17.748-65.341,36.75-108.681,50.935V130.863z"/>
<path fill="param(fill)" fill-opacity="param(fill-opacity)" stroke="param(outline)" stroke-opacity="param(outline-opacity)" stroke-width="param(outline-width)" d="M536.885,408.998c-9.429-3.228-19.69,1.8-22.919,11.229
	c-11.94,34.88-50.048,53.557-84.931,41.645c-19.586-6.715-34.729-21.765-41.545-41.289c-1.507-4.317-4.497-7.683-8.191-9.761
	c-1.164-0.733-2.419-1.359-3.777-1.824c-9.431-3.228-19.69,1.8-22.919,11.229c-11.94,34.878-50.046,53.556-84.931,41.645
	c-18.563-6.365-33.115-20.231-40.371-38.294c-0.916-6.521-5.363-12.306-12.021-14.582c-7.806-2.668-16.163,0.327-20.646,6.78
	c-1.45,1.957-2.481,4.194-3.05,6.565c-12.72,33.509-49.957,51.199-84.135,39.529c-19.585-6.71-34.718-21.755-41.52-41.277
	c-3.279-9.413-13.569-14.383-22.979-11.104c-9.412,3.279-14.384,13.567-11.104,22.979c10.472,30.059,33.765,53.221,63.922,63.553
	c10.996,3.756,22.193,5.538,33.215,5.538c31.061,0,60.674-14.174,80.18-38.247c12.006,14.906,28.088,26.285,46.824,32.709
	c10.994,3.755,22.188,5.536,33.209,5.536c31.36,0,61.247-14.454,80.751-38.953c12.073,15.252,28.37,26.892,47.403,33.417
	c10.994,3.755,22.188,5.536,33.209,5.536c42.829,0,82.936-26.934,97.556-69.641C551.342,422.487,546.314,412.227,536.885,408.998z"
	/>
</svg>
