<svg enable-background="new 0 0 579.997 579.997" height="579.997" viewBox="0 0 579.997 579.997" width="579.997" xmlns="http://www.w3.org/2000/svg">
<path d="m268.552 65.148l-4.154 21.049h8.336z" fill="param(fill)" fill-opacity="param(fill-opacity)" stroke="param(outline)" stroke-opacity="param(outline-opacity)" stroke-width="param(outline-width)"/>
<path d="m461.92 258.642v-91.913c0-32.093-26.118-58.202-58.221-58.202h-24.985v-28.414c0-25.109-20.343-45.453-45.435-45.453h-85.978c-25.092 0-45.435 20.344-45.435 45.453v28.413h-24.896c-32.094 0-58.203 26.109-58.203 58.202v91.908c-20.847 1.969-37.148 19.506-37.148 40.869v124.961c0 22.682 18.375 41.076 41.057 41.076h13.042v45.256c0 13.432 10.898 24.313 24.33 24.313h5.476c13.432 0 24.312-10.881 24.312-24.313v-45.256h199.051v45.256c0 13.432 10.88 24.313 24.312 24.313h5.493c13.396 0 24.313-10.881 24.313-24.313v-45.256h14.955c22.682 0 41.075-18.395 41.075-41.076v-124.96c-.002-21.345-16.292-38.872-37.115-40.864zm-132.961-160.318h8.873v-33.52h-8.873v-8.957h26.559v8.957h-8.873v33.521h8.873v8.957h-26.559zm-40.81-42.477h9.112l8.126 16.364 8.155-16.364h9.112l-12.667 25.321 13.025 26.113h-9.112l-8.514-17.019-8.484 17.019h-9.112l13.085-26.113zm-24.975 0h10.785l12.039 51.435h-8.813l-2.749-12.712h-11.801l-2.688 12.712h-8.813zm-47.173 0h31.459v8.889h-11.323v42.546h-8.813v-42.547h-11.323zm-70.838 113.096c0-19.635 15.912-35.547 35.564-35.547h21.14 176.847 21.193c19.669 0 35.582 15.912 35.582 35.547v89.504h-290.326zm-31.666 148.034c0-19.953 16.161-36.113 36.096-36.113 19.936 0 36.078 16.16 36.078 36.113 0 19.918-16.143 36.078-36.078 36.078-19.935 0-36.096-16.16-36.096-36.078zm241.472 89.31h-129.285c-4.271 0-7.744-4.891-7.744-10.951s3.473-10.951 7.744-10.951h129.285c4.253 0 7.727 4.891 7.727 10.951s-3.474 10.951-7.727 10.951zm0-30.656h-129.285c-4.271 0-7.744-4.926-7.744-10.951 0-6.061 3.473-10.951 7.744-10.951h129.285c4.253 0 7.727 4.891 7.727 10.951-.001 6.025-3.474 10.951-7.727 10.951zm0-30.656h-129.285c-4.271 0-7.744-4.891-7.744-10.951s3.473-10.951 7.744-10.951h129.285c4.253 0 7.727 4.891 7.727 10.951s-3.474 10.951-7.727 10.951zm0-30.657h-129.285c-4.271 0-7.744-4.926-7.744-10.951 0-6.059 3.473-10.949 7.744-10.949h129.285c4.253 0 7.727 4.891 7.727 10.949-.001 6.026-3.474 10.951-7.727 10.951zm74.637 41.006c-20.556 0-37.213-16.658-37.213-37.213 0-20.572 16.657-37.248 37.213-37.248 20.555 0 37.212 16.676 37.212 37.248 0 20.555-16.657 37.213-37.212 37.213z" fill="param(fill)" fill-opacity="param(fill-opacity)" stroke="param(outline)" stroke-opacity="param(outline-opacity)" stroke-width="param(outline-width)"/>
</svg>
