<?xml version="1.0" encoding="utf-8"?>
<!-- Generator: Adobe Illustrator 16.0.0, SVG Export Plug-In . SVG Version: 6.00 Build 0)  -->
<!DOCTYPE svg PUBLIC "-//W3C//DTD SVG 1.1//EN" "http://www.w3.org/Graphics/SVG/1.1/DTD/svg11.dtd">
<svg version="1.1"
	 id="svg3427" xmlns:dc="http://purl.org/dc/elements/1.1/" xmlns:cc="http://creativecommons.org/ns#" xmlns:rdf="http://www.w3.org/1999/02/22-rdf-syntax-ns#" xmlns:svg="http://www.w3.org/2000/svg" xmlns:sodipodi="http://sodipodi.sourceforge.net/DTD/sodipodi-0.dtd" xmlns:inkscape="http://www.inkscape.org/namespaces/inkscape" inkscape:export-filename="/home/matt/Programming/openstreetmap/icons/highway=bus_stop.png" inkscape:export-ydpi="90" inkscape:export-xdpi="90" inkscape:output_extension="org.inkscape.output.svg.inkscape" sodipodi:docname="amenity=taxi.svg" inkscape:version="0.46" sodipodi:version="0.32"
	 xmlns="http://www.w3.org/2000/svg" xmlns:xlink="http://www.w3.org/1999/xlink" x="0px" y="0px" width="579.997px"
	 height="579.997px" viewBox="0 0 579.997 579.997" enable-background="new 0 0 579.997 579.997" xml:space="preserve">
<defs>
	
	
		<inkscape:perspective  inkscape:vp_z="16 : 8 : 1" inkscape:vp_y="0 : 1000 : 0" inkscape:vp_x="0 : 8 : 1" sodipodi:type="inkscape:persp3d" id="perspective3435" inkscape:persp3d-origin="8 : 5.3333333 : 1">
		</inkscape:perspective>
</defs>
<sodipodi:namedview  showgrid="true" inkscape:cy="8" inkscape:cx="8" inkscape:zoom="31.875" pagecolor="#ffffff" bordercolor="#666666" borderopacity="1.0" id="base" inkscape:document-units="px" inkscape:grid-bbox="true" inkscape:current-layer="layer2" inkscape:window-y="0" inkscape:window-x="0" inkscape:pageopacity="0.0" inkscape:pageshadow="2" inkscape:window-width="1280" inkscape:window-height="723">
	</sodipodi:namedview>
<polygon fill="#FFFB3D" stroke="#1EFF31" stroke-width="4.4444" points="268.552,65.148 264.398,86.197 272.734,86.197 "/>
<path fill="#FFFB3D" stroke="#1EFF31" stroke-width="4.4444" d="M461.92,258.642v-91.913c0-32.093-26.118-58.202-58.221-58.202
	h-24.985V80.113c0-25.109-20.343-45.453-45.435-45.453h-85.978c-25.092,0-45.435,20.344-45.435,45.453v28.413h-24.896
	c-32.094,0-58.203,26.109-58.203,58.202v91.908c-20.847,1.969-37.148,19.506-37.148,40.869v124.961
	c0,22.682,18.375,41.076,41.057,41.076h13.042v45.256c0,13.432,10.898,24.313,24.33,24.313h5.476
	c13.432,0,24.312-10.881,24.312-24.313v-45.256h199.051v45.256c0,13.432,10.88,24.313,24.312,24.313h5.493
	c13.396,0,24.313-10.881,24.313-24.313v-45.256h14.955c22.682,0,41.075-18.395,41.075-41.076V299.506
	C499.033,278.161,482.743,260.634,461.92,258.642z M328.959,98.324h8.873V64.804h-8.873v-8.957h26.559v8.957h-8.873v33.521h8.873
	v8.957h-26.559V98.324z M288.149,55.847h9.112l8.126,16.364l8.155-16.364h9.112l-12.667,25.321l13.025,26.113h-9.112l-8.514-17.019
	l-8.484,17.019h-9.112l13.085-26.113L288.149,55.847z M263.174,55.847h10.785l12.039,51.435h-8.813l-2.749-12.712h-11.801
	l-2.688,12.712h-8.813L263.174,55.847z M216.001,55.847h31.459v8.889h-11.323v42.546h-8.813V64.735h-11.323V55.847z
	 M145.163,168.943c0-19.635,15.912-35.547,35.564-35.547h21.14h176.847h21.193c19.669,0,35.582,15.912,35.582,35.547v89.504H145.163
	V168.943z M113.497,316.977c0-19.953,16.161-36.113,36.096-36.113c19.936,0,36.078,16.16,36.078,36.113
	c0,19.918-16.143,36.078-36.078,36.078C129.658,353.055,113.497,336.895,113.497,316.977z M354.969,406.287H225.684
	c-4.271,0-7.744-4.891-7.744-10.951s3.473-10.951,7.744-10.951h129.285c4.253,0,7.727,4.891,7.727,10.951
	S359.222,406.287,354.969,406.287z M354.969,375.631H225.684c-4.271,0-7.744-4.926-7.744-10.951c0-6.061,3.473-10.951,7.744-10.951
	h129.285c4.253,0,7.727,4.891,7.727,10.951C362.695,370.705,359.222,375.631,354.969,375.631z M354.969,344.975H225.684
	c-4.271,0-7.744-4.891-7.744-10.951s3.473-10.951,7.744-10.951h129.285c4.253,0,7.727,4.891,7.727,10.951
	S359.222,344.975,354.969,344.975z M354.969,314.318H225.684c-4.271,0-7.744-4.926-7.744-10.951c0-6.059,3.473-10.949,7.744-10.949
	h129.285c4.253,0,7.727,4.891,7.727,10.949C362.695,309.393,359.222,314.318,354.969,314.318z M429.606,355.324
	c-20.556,0-37.213-16.658-37.213-37.213c0-20.572,16.657-37.248,37.213-37.248c20.555,0,37.212,16.676,37.212,37.248
	C466.818,338.666,450.161,355.324,429.606,355.324z"/>
</svg>
