<?xml version="1.0" encoding="UTF-8" standalone="no"?>
<!-- Created with Inkscape (http://www.inkscape.org/) -->
<svg
   xmlns:dc="http://purl.org/dc/elements/1.1/"
   xmlns:cc="http://creativecommons.org/ns#"
   xmlns:rdf="http://www.w3.org/1999/02/22-rdf-syntax-ns#"
   xmlns:svg="http://www.w3.org/2000/svg"
   xmlns="http://www.w3.org/2000/svg"
   xmlns:xlink="http://www.w3.org/1999/xlink"
   xmlns:sodipodi="http://sodipodi.sourceforge.net/DTD/sodipodi-0.dtd"
   xmlns:inkscape="http://www.inkscape.org/namespaces/inkscape"
   width="16px"
   height="16px"
   id="svg3427"
   sodipodi:version="0.32"
   inkscape:version="0.46"
   sodipodi:docname="amenity=ferry_terminal.svg"
   inkscape:output_extension="org.inkscape.output.svg.inkscape"
   inkscape:export-filename="/home/matt/Programming/openstreetmap/icons/highway=bus_stop.png"
   inkscape:export-xdpi="90"
   inkscape:export-ydpi="90">
  <defs
     id="defs3429">
    <inkscape:perspective
       sodipodi:type="inkscape:persp3d"
       inkscape:vp_x="0 : 8 : 1"
       inkscape:vp_y="0 : 1000 : 0"
       inkscape:vp_z="16 : 8 : 1"
       inkscape:persp3d-origin="8 : 5.3333333 : 1"
       id="perspective3435" />
  </defs>
  <sodipodi:namedview
     id="base"
     pagecolor="#ffffff"
     bordercolor="#666666"
     borderopacity="1.0"
     inkscape:pageopacity="0.0"
     inkscape:pageshadow="2"
     inkscape:zoom="31.875"
     inkscape:cx="8"
     inkscape:cy="8"
     inkscape:current-layer="layer2"
     showgrid="true"
     inkscape:grid-bbox="true"
     inkscape:document-units="px"
     inkscape:window-width="1280"
     inkscape:window-height="723"
     inkscape:window-x="0"
     inkscape:window-y="0">
    <inkscape:grid
       type="xygrid"
       id="grid4891" />
  </sodipodi:namedview>
  <metadata
     id="metadata3432">
    <rdf:RDF>
      <cc:Work
         rdf:about="">
        <dc:format>image/svg+xml</dc:format>
        <dc:type
           rdf:resource="http://purl.org/dc/dcmitype/StillImage" />
        <cc:license
           rdf:resource="http://creativecommons.org/licenses/publicdomain/" />
        <dc:title>amenity=ferry_terminal</dc:title>
        <dc:creator>
          <cc:Agent>
            <dc:title>Matt Amos</dc:title>
          </cc:Agent>
        </dc:creator>
        <dc:rights>
          <cc:Agent>
            <dc:title>Matt Amos asserts the moral right to be identified as the author of this work.</dc:title>
          </cc:Agent>
        </dc:rights>
      </cc:Work>
      <cc:License
         rdf:about="http://creativecommons.org/licenses/publicdomain/">
        <cc:permits
           rdf:resource="http://creativecommons.org/ns#Reproduction" />
        <cc:permits
           rdf:resource="http://creativecommons.org/ns#Distribution" />
        <cc:permits
           rdf:resource="http://creativecommons.org/ns#DerivativeWorks" />
      </cc:License>
    </rdf:RDF>
  </metadata>
  <g
     id="layer1"
     inkscape:label="Layer 1"
     inkscape:groupmode="layer"
     sodipodi:insensitive="true">
    <rect
       style="fill:#6c7be1;fill-opacity:1;stroke:none;stroke-width:1;stroke-linejoin:round;stroke-miterlimit:4;stroke-dasharray:none;stroke-opacity:1"
       id="rect3946"
       width="16"
       height="16"
       x="0"
       y="0"
       rx="4" />
  </g>
  <g
     inkscape:groupmode="layer"
     id="layer2"
     inkscape:label="top">
    <path
       style="fill:#ffffff;fill-rule:evenodd;stroke:#ffffff;stroke-width:1px;stroke-linecap:butt;stroke-linejoin:miter;stroke-opacity:1;fill-opacity:1"
       d="M 5,13 C 5,13 4.9450981,10.078431 2.9686275,7.0352941 C 2.9686275,7.0352941 7,6.0230829 8.0313725,4.9568627 C 9.0352941,6.0235294 13,7 13,7 C 10.960784,10.011765 11,13 11,13 L 5,13 z"
       id="path3171"
       sodipodi:nodetypes="cccccc" />
    <path
       sodipodi:type="inkscape:offset"
       inkscape:radius="0.2593877"
       inkscape:original="M 5.6875 7.90625 C 5.5920634 7.9309548 5.5014714 7.992784 5.4375 8.0625 C 5.3834383 8.1054353 5.3452352 8.156256 5.3125 8.21875 C 5.2751819 8.2899943 5.2505865 8.358769 5.25 8.4375 C 4.8692988 9.3217403 3.8654515 9.754957 2.9375 9.4375 C 2.3600674 9.2399573 2.0133307 8.888797 1.8125 8.3125 C 1.7762243 8.1833713 1.6800247 8.064639 1.5625 8 C 1.4449753 7.9353608 1.3159791 7.930236 1.1875 7.96875 C 1.0509325 8.0042168 0.94047034 8.093761 0.875 8.21875 C 0.80952963 8.3437393 0.7951452 8.492538 0.84375 8.625 C 1.1358785 9.4632823 1.7850673 10.118904 2.625 10.40625 C 3.7925772 10.805684 5.0496938 10.384963 5.78125 9.46875 C 6.1159315 9.8869593 6.5407536 10.227757 7.0625 10.40625 C 8.2300772 10.805684 9.4871943 10.384963 10.21875 9.46875 C 10.554718 9.8945333 11.00308 10.22556 11.53125 10.40625 C 13.016117 10.914231 14.648269 10.109868 15.15625 8.625 C 15.246612 8.4497623 15.216803 8.247801 15.09375 8.09375 C 14.970696 7.9396993 14.784624 7.856841 14.59375 7.90625 C 14.402877 7.9556588 14.251603 8.118092 14.21875 8.3125 C 13.885904 9.2854333 12.816683 9.770345 11.84375 9.4375 C 11.288851 9.2476663 10.95406 8.912026 10.75 8.375 C 10.746634 8.3661403 10.753292 8.352722 10.75 8.34375 C 10.748598 8.3296273 10.721349 8.326464 10.71875 8.3125 C 10.700612 8.2479353 10.665883 8.176507 10.625 8.125 C 10.619359 8.1170203 10.631153 8.101453 10.625 8.09375 C 10.501947 7.9396993 10.315873 7.856841 10.125 7.90625 C 10.038142 7.9287338 9.9676439 8.002081 9.90625 8.0625 C 9.873203 8.0950223 9.8354674 8.11568 9.8125 8.15625 C 9.7985624 8.1755263 9.7924279 8.19741 9.78125 8.21875 C 9.7690359 8.2501023 9.7557493 8.278479 9.75 8.3125 C 9.7391707 8.3441543 9.7311091 8.375641 9.71875 8.40625 C 9.3512297 9.3164703 8.3162794 9.759516 7.375 9.4375 C 6.8292558 9.2507983 6.4864361 8.92777 6.28125 8.40625 C 6.2852911 8.2892103 6.2635036 8.188899 6.1875 8.09375 C 6.0644462 7.9396993 5.8783733 7.856841 5.6875 7.90625 z "
       xlink:href="#path3173"
       style="opacity:1;fill:#6c7be1;fill-opacity:1;stroke:#6c7be1;stroke-width:1;stroke-linecap:round;stroke-linejoin:round;stroke-miterlimit:4;stroke-dasharray:none;stroke-opacity:1"
       id="path3195"
       d="M 5.625,7.65625 C 5.4763275,7.6947355 5.3734452,7.7800534 5.28125,7.875 L 5.28125,7.90625 C 5.2060789,7.9712328 5.1344978,8.0159593 5.09375,8.09375 C 5.0594627,8.1592083 5.0469067,8.2556613 5.03125,8.34375 L 5,8.34375 C 4.6726226,9.1041371 3.8366127,9.4630187 3.03125,9.1875 C 2.522755,9.0135412 2.2433025,8.7502184 2.0625,8.25 C 2.0601678,8.2416982 2.0650857,8.2269203 2.0625,8.21875 L 2.03125,8.21875 C 1.9677373,8.0349231 1.8568108,7.8743715 1.6875,7.78125 C 1.5048211,7.6807757 1.3052853,7.6647061 1.125,7.71875 C 0.91856052,7.7723627 0.75373758,7.9076371 0.65625,8.09375 C 0.5587628,8.2798625 0.51780423,8.511776 0.59375,8.71875 C 0.91134529,9.630111 1.6157155,10.34304 2.53125,10.65625 C 3.7167015,11.061799 4.9677669,10.670186 5.78125,9.8125 C 6.1124315,10.170715 6.4807826,10.489313 6.96875,10.65625 C 8.1542015,11.061799 9.4052672,10.670186 10.21875,9.8125 C 10.558335,10.173453 10.951728,10.490065 11.4375,10.65625 C 13.042743,11.205412 14.805018,10.341887 15.375,8.75 C 15.379988,8.7360678 15.401445,8.7327942 15.40625,8.71875 L 15.375,8.71875 C 15.496195,8.4566291 15.454428,8.1543027 15.28125,7.9375 C 15.106922,7.7192596 14.829823,7.5789624 14.53125,7.65625 C 14.261853,7.7259852 14.070939,7.9515882 14,8.21875 L 13.96875,8.21875 C 13.682428,9.0556891 12.782362,9.4765314 11.9375,9.1875 C 11.451007,9.0210684 11.182559,8.7763651 11,8.3125 C 10.998762,8.3000327 11.002886,8.2927802 11,8.28125 C 10.996848,8.2661849 11.007106,8.2693665 11,8.25 L 10.96875,8.25 C 10.958653,8.2140592 10.920825,8.1903391 10.90625,8.15625 C 10.894022,8.1452989 10.914116,8.1304823 10.90625,8.125 C 10.896266,8.1038485 10.887167,8.0830169 10.875,8.0625 C 10.872261,8.0481204 10.874775,8.0306958 10.875,8.03125 C 10.87509,8.0314717 10.880368,8.0098028 10.875,8 C 10.868052,7.9855734 10.853037,7.9878089 10.84375,7.96875 C 10.834463,7.9496911 10.812796,7.9378703 10.8125,7.9375 C 10.638172,7.7192576 10.361073,7.5789619 10.0625,7.65625 C 9.8761163,7.7044967 9.7760966,7.818564 9.71875,7.875 C 9.7173249,7.8764025 9.6747534,7.9364188 9.625,8 C 9.6110069,8.0178822 9.6078818,8.0062873 9.59375,8.03125 C 9.5754361,8.0641374 9.5593201,8.0998207 9.5625,8.09375 C 9.5512134,8.1032588 9.5407588,8.1137134 9.53125,8.125 C 9.526121,8.1381656 9.5107896,8.1852792 9.5,8.21875 C 9.4932565,8.2396692 9.5049005,8.2522517 9.5,8.28125 C 9.4970636,8.2906039 9.4703095,8.3086377 9.46875,8.3125 C 9.1535855,9.0930532 8.2859911,9.4670819 7.46875,9.1875 C 6.9782268,9.0196897 6.7137576,8.7763783 6.53125,8.3125 L 6.5,8.3125 C 6.4889568,8.1819112 6.4681208,8.0540781 6.375,7.9375 C 6.2006717,7.7192589 5.9235731,7.5789621 5.625,7.65625 z"
       transform="translate(3.125e-2,3.4509804)" />
    <path
       sodipodi:type="arc"
       style="opacity:1;fill:none;fill-opacity:1;stroke:#ffffff;stroke-width:1;stroke-linecap:round;stroke-linejoin:miter;stroke-miterlimit:4;stroke-dasharray:none;stroke-opacity:1"
       id="path4911"
       sodipodi:cx="4.0156865"
       sodipodi:cy="11.043138"
       sodipodi:rx="2.3529413"
       sodipodi:ry="2.3529413"
       d="M 6.2419548,11.804756 A 2.3529413,2.3529413 0 0 1 1.7937955,11.817433"
       sodipodi:start="0.32962439"
       sodipodi:end="2.8062683"
       sodipodi:open="true"
       transform="translate(-0.4392152,0)" />
    <path
       sodipodi:open="true"
       sodipodi:end="2.8062683"
       sodipodi:start="0.32962439"
       d="M 6.2419548,11.804756 A 2.3529413,2.3529413 0 0 1 1.7937955,11.817433"
       sodipodi:ry="2.3529413"
       sodipodi:rx="2.3529413"
       sodipodi:cy="11.043138"
       sodipodi:cx="4.0156865"
       id="path4913"
       style="opacity:1;fill:none;fill-opacity:1;stroke:#ffffff;stroke-width:1;stroke-linecap:round;stroke-linejoin:miter;stroke-miterlimit:4;stroke-dasharray:none;stroke-opacity:1"
       sodipodi:type="arc"
       transform="translate(8.4705875,0)" />
    <path
       transform="translate(4,0)"
       sodipodi:type="arc"
       style="opacity:1;fill:none;fill-opacity:1;stroke:#ffffff;stroke-width:1;stroke-linecap:round;stroke-linejoin:miter;stroke-miterlimit:4;stroke-dasharray:none;stroke-opacity:1"
       id="path4915"
       sodipodi:cx="4.0156865"
       sodipodi:cy="11.043138"
       sodipodi:rx="2.3529413"
       sodipodi:ry="2.3529413"
       d="M 6.2419548,11.804756 A 2.3529413,2.3529413 0 0 1 1.7937955,11.817433"
       sodipodi:start="0.32962439"
       sodipodi:end="2.8062683"
       sodipodi:open="true" />
    <path
       style="fill:none;fill-rule:evenodd;stroke:#ffffff;stroke-width:0.6;stroke-linecap:butt;stroke-linejoin:miter;stroke-opacity:1;stroke-miterlimit:4;stroke-dasharray:none"
       d="M 4.3607843,6.7843138 L 4.3607843,3.3254902 L 6.2745098,3.3254902 L 6.3058824,1.3490197 L 9.6941176,1.3176471 L 9.6941176,3.3254902 L 11.733333,3.3254902 L 11.733333,6.8156863 L 4.3607843,6.7843138 z"
       id="path3197"
       sodipodi:nodetypes="ccccccccc" />
  </g>
</svg>
