<?xml version="1.0" encoding="utf-8"?>
<!-- Generator: Adobe Illustrator 16.0.0, SVG Export Plug-In . SVG Version: 6.00 Build 0)  -->
<!DOCTYPE svg PUBLIC "-//W3C//DTD SVG 1.1//EN" "http://www.w3.org/Graphics/SVG/1.1/DTD/svg11.dtd">
<svg version="1.1"
	 id="svg2" xmlns:dc="http://purl.org/dc/elements/1.1/" xmlns:cc="http://creativecommons.org/ns#" xmlns:rdf="http://www.w3.org/1999/02/22-rdf-syntax-ns#" xmlns:svg="http://www.w3.org/2000/svg" xmlns:sodipodi="http://sodipodi.sourceforge.net/DTD/sodipodi-0.dtd" xmlns:inkscape="http://www.inkscape.org/namespaces/inkscape" inkscape:output_extension="org.inkscape.output.svg.inkscape" sodipodi:docname="barrier_lift_gate.svg" inkscape:version="0.47 r22583" sodipodi:version="0.32"
	 xmlns="http://www.w3.org/2000/svg" xmlns:xlink="http://www.w3.org/1999/xlink" x="0px" y="0px" width="580px" height="580px"
	 viewBox="0 0 580 580" enable-background="new 0 0 580 580" xml:space="preserve">
<defs>
	
	
		<inkscape:perspective  inkscape:vp_z="580 : 290 : 1" inkscape:vp_y="0 : 1000 : 0" inkscape:vp_x="0 : 290 : 1" sodipodi:type="inkscape:persp3d" id="perspective24" inkscape:persp3d-origin="290 : 193.33333 : 1">
		</inkscape:perspective>
	
		<inkscape:perspective  inkscape:vp_z="612.164 : 306.58551 : 1" inkscape:vp_y="0 : 1000 : 0" inkscape:vp_x="0 : 306.58551 : 1" sodipodi:type="inkscape:persp3d" id="perspective2683" inkscape:persp3d-origin="306.082 : 204.39034 : 1">
		</inkscape:perspective>
	
		<inkscape:perspective  inkscape:vp_z="612.164 : 306.58551 : 1" inkscape:vp_y="0 : 1000 : 0" inkscape:vp_x="0 : 306.58551 : 1" sodipodi:type="inkscape:persp3d" id="perspective2953" inkscape:persp3d-origin="306.082 : 204.39034 : 1">
		</inkscape:perspective>
	
		<inkscape:perspective  inkscape:vp_z="361.87201 : 245.89301 : 1" inkscape:vp_y="0 : 1000 : 0" inkscape:vp_x="0 : 245.89301 : 1" sodipodi:type="inkscape:persp3d" id="perspective3071" inkscape:persp3d-origin="180.936 : 163.92867 : 1">
		</inkscape:perspective>
	
		<inkscape:perspective  inkscape:vp_z="1 : 0.5 : 1" inkscape:vp_y="0 : 1000 : 0" inkscape:vp_x="0 : 0.5 : 1" sodipodi:type="inkscape:persp3d" id="perspective3724" inkscape:persp3d-origin="0.5 : 0.33333333 : 1">
		</inkscape:perspective>
	
		<inkscape:perspective  inkscape:vp_z="1 : 0.5 : 1" inkscape:vp_y="0 : 1000 : 0" inkscape:vp_x="0 : 0.5 : 1" sodipodi:type="inkscape:persp3d" id="perspective2861" inkscape:persp3d-origin="0.5 : 0.33333333 : 1">
		</inkscape:perspective>
	
		<inkscape:perspective  inkscape:vp_z="1 : 0.5 : 1" inkscape:vp_y="0 : 1000 : 0" inkscape:vp_x="0 : 0.5 : 1" sodipodi:type="inkscape:persp3d" id="perspective2848" inkscape:persp3d-origin="0.5 : 0.33333333 : 1">
		</inkscape:perspective>
	
		<inkscape:perspective  inkscape:vp_z="1 : 0.5 : 1" inkscape:vp_y="0 : 1000 : 0" inkscape:vp_x="0 : 0.5 : 1" sodipodi:type="inkscape:persp3d" id="perspective2861-7" inkscape:persp3d-origin="0.5 : 0.33333333 : 1">
		</inkscape:perspective>
	
		<inkscape:perspective  inkscape:vp_z="1 : 0.5 : 1" inkscape:vp_y="0 : 1000 : 0" inkscape:vp_x="0 : 0.5 : 1" sodipodi:type="inkscape:persp3d" id="perspective2844" inkscape:persp3d-origin="0.5 : 0.33333333 : 1">
		</inkscape:perspective>
</defs>
<sodipodi:namedview  showgrid="false" inkscape:cy="127.99465" inkscape:cx="289.43356" inkscape:zoom="1" pagecolor="#ffffff" bordercolor="#666666" guidetolerance="10.0" objecttolerance="10.0" gridtolerance="10.0" borderopacity="1.0" id="base" inkscape:window-maximized="1" inkscape:current-layer="svg2" inkscape:window-y="-4" inkscape:window-x="-4" inkscape:pageopacity="0.0" inkscape:pageshadow="2" inkscape:window-width="1400" inkscape:window-height="994">
	</sodipodi:namedview>
<g id="g2319" transform="translate(879.29125,36.805119)">
	<path id="path2323" fill="#FFFB3D" stroke="#1EFF31" stroke-width="4.4444" d="M0,0"/>
</g>
<g id="g2325" transform="translate(879.29125,36.805119)">
	<path id="path2329" fill="#FFFB3D" stroke="#1EFF31" stroke-width="4.4444" d="M0,0"/>
</g>
<path fill="#FFFB3D" stroke="#1EFF31" stroke-width="4.4444" stroke-miterlimit="10" d="M520.941,150.742
	c-3.286-14.739-17.901-24.022-32.637-20.738l-369.528,82.38c-14.739,3.286-24.023,17.898-20.738,32.637
	c2.839,12.736,14.134,21.399,26.662,21.399c1.97,0,3.972-0.215,5.975-0.661l369.527-82.38
	C514.942,180.093,524.228,165.481,520.941,150.742z"/>
<path id="rect3827" sodipodi:nodetypes="csccsccsccscc" opacity="0.75" fill="#FFFB3D" stroke="#1EFF31" stroke-width="4.4444" stroke-miterlimit="10" enable-background="new    " d="
	M458.25,264.906c-3.723-0.002-7.424,1.53-10.056,4.163c-2.633,2.633-4.165,6.333-4.163,10.056v170.531
	c-0.002,3.723,1.53,7.424,4.163,10.056c2.632,2.633,6.333,4.165,10.056,4.163h51.844c3.723,0.002,7.424-1.53,10.056-4.163
	c2.633-2.632,4.165-6.333,4.163-10.056V279.125c0.002-3.723-1.53-7.423-4.163-10.056c-2.632-2.632-6.333-4.164-10.056-4.163H458.25z
	"/>
<path id="rect3925" opacity="0.75" fill="#FFFB3D" stroke="#1EFF31" stroke-width="4.4444" stroke-miterlimit="10" enable-background="new    " d="
	M81.75,121.906c-4.639,0-9.251,1.907-12.531,5.188s-5.188,7.893-5.188,12.531v306.531c0,4.639,1.907,9.251,5.188,12.531
	s7.893,5.188,12.531,5.188h44.844c4.639,0,9.251-1.907,12.531-5.188s5.188-7.893,5.188-12.531V291.688
	c-22.416,6.883-49.301,0.786-63.781-18.25c-21.96-26.269-10.755-72.689,21.625-84.938c14.05-3.254,28.104-6.478,42.156-9.719
	v-39.156c0-4.639-1.907-9.251-5.188-12.531s-7.893-5.188-12.531-5.188H81.75z"/>
</svg>
