<svg enable-background="new 0 0 580 580" height="580" viewBox="0 0 580 580" width="580" xmlns="http://www.w3.org/2000/svg">
<path d="m520.451 332.731h-229.295l84.422-78.886h144.873c15.101 0 27.343-12.241 27.343-27.342s-12.242-27.342-27.343-27.342h-86.351l37.085-34.654c11.033-10.31 11.62-27.613 1.31-38.646-10.31-11.034-27.612-11.62-38.646-1.31l-79.845 74.61h-285.314c-15.101 0-27.343 12.241-27.343 27.342s12.242 27.342 27.343 27.342h226.792l-84.42 78.886h-142.372c-15.101 0-27.343 12.242-27.343 27.343s12.242 27.343 27.343 27.343h83.849l-38.829 36.283c-11.034 10.31-11.62 27.612-1.31 38.646 5.384 5.762 12.674 8.675 19.984 8.675 6.687 0 13.391-2.438 18.662-7.365l81.587-76.238h287.817c15.101 0 27.343-12.242 27.343-27.343s-12.241-27.344-27.342-27.344z" fill="param(fill)" fill-opacity="param(fill-opacity)" stroke="param(outline)" stroke-opacity="param(outline-opacity)" stroke-width="param(outline-width)"/>
</svg>
