<svg enable-background="new 0 0 580 580" height="580" viewBox="0 0 580 580" width="580" xmlns="http://www.w3.org/2000/svg">
<path d="m183.242 107.215h-54.142c-5.884 0-11.525 2.344-15.676 6.514-4.151 4.169-6.469 9.821-6.442 15.705l1.592 350.519c.044 9.758 6.478 18.334 15.833 21.106 2.08.616 4.193.913 6.284.913 7.313 0 14.33-3.64 18.493-9.984l52.551-80.078c2.366-3.605 3.626-7.823 3.626-12.136v-270.441c0-12.215-9.903-22.118-22.119-22.118z" fill="param(fill)" opacity=".5" stroke="param(outline)" stroke-miterlimit="10" stroke-width="param(outline-width)"/>
<path d="m458.335 113.729c-4.151-4.17-9.792-6.514-15.676-6.514h-54.144c-12.216 0-22.118 9.903-22.118 22.119v270.441c0 4.313 1.26 8.53 3.626 12.136l52.552 80.078c4.164 6.345 11.179 9.984 18.493 9.984 2.09 0 4.205-.297 6.284-.913 9.355-2.772 15.789-11.349 15.833-21.106l1.592-350.519c.028-5.885-2.292-11.537-6.442-15.706z" fill="param(fill)" opacity=".5" stroke="param(outline)" stroke-miterlimit="10" stroke-width="param(outline-width)"/>
<path d="m491.332 87.05h-408.695c-6.108 0-11.06 4.951-11.06 11.059v393.125c0 6.107 4.952 11.06 11.06 11.06h54.147c6.108 0 11.059-4.952 11.059-11.06v-352.401h278.283v351.723c0 6.107 4.952 11.06 11.06 11.06h54.146c6.107 0 11.06-4.952 11.06-11.06v-392.447c0-6.108-4.953-11.059-11.06-11.059z" fill="param(fill)" stroke="param(outline)" stroke-miterlimit="10" stroke-width="param(outline-width)"/>
</svg>
