<svg enable-background="new 0 0 579.997 579.997" height="579.997" viewBox="0 0 579.997 579.997" width="579.997" xmlns="http://www.w3.org/2000/svg">
<path d="m454.681 45.215h-332.883c-22.52 0-40.764 18.262-40.764 40.781v335.434c0 22.52 18.244 40.781 40.764 40.781h12.949v44.932c0 13.336 10.819 24.139 24.155 24.139h5.437c13.336 0 24.138-10.803 24.138-24.139v-44.932h197.626v44.932c0 13.336 10.802 24.139 24.138 24.139h5.454c13.3 0 24.138-10.803 24.138-24.139v-44.932h14.849c22.52 0 40.781-18.262 40.781-40.781v-335.434c-.001-22.519-18.263-40.781-40.782-40.781zm-262.369 33.162c0-8.428 6.826-15.254 15.254-15.254h161.365c8.41 0 15.236 6.826 15.236 15.254v15.535c0 8.428-6.826 15.254-15.236 15.254h-161.366c-8.428 0-15.254-6.826-15.254-15.254v-15.535zm-79.627 298.752c0-14.461 11.753-26.178 26.231-26.178 14.479 0 26.214 11.717 26.214 26.178 0 14.496-11.734 26.25-26.214 26.25-14.478 0-26.231-11.754-26.231-26.25zm75.052 4.504h201.004c6.686 0 12.069 4.855 12.069 10.873s-5.384 10.873-12.069 10.873h-201.004c-6.667 0-12.051-4.855-12.051-10.873s5.384-10.873 12.051-10.873zm-12.05-18.578c0-5.982 5.384-10.838 12.051-10.838h201.004c6.686 0 12.069 4.855 12.069 10.838 0 6.053-5.384 10.908-12.069 10.908h-201.005c-6.667 0-12.05-4.856-12.05-10.908zm261.577 40.324c-14.462 0-26.214-11.754-26.214-26.25 0-14.461 11.752-26.178 26.214-26.178 14.461 0 26.214 11.717 26.214 26.178 0 14.496-11.753 26.25-26.214 26.25zm26.214-131.668c0 19.738-15.975 35.748-35.715 35.748h-279.03c-19.722 0-35.732-16.01-35.732-35.748v-111.473c0-19.721 16.011-35.713 35.732-35.713h279.029c19.74 0 35.715 15.992 35.715 35.713v111.473z" fill="param(fill)" fill-opacity="param(fill-opacity)" stroke="param(outline)" stroke-opacity="param(outline-opacity)" stroke-width="param(outline-width)"/>
</svg>
