<svg enable-background="new 0 0 579.997 579.997" height="579.997" viewBox="0 0 579.997 579.997" width="579.997" xmlns="http://www.w3.org/2000/svg">
<path d="m409.197 103.656h-45.916v-36.52h54.744v-36.307h-249.45v36.307h49.054v36.521h-40.226c-49.727 0-90.058 40.313-90.058 90.057v185.383c0 39.607 25.569 73.234 61.091 85.295v74.398h32.495v-69.637h216.104v69.637h37.051v-73.122c37.635-10.797 65.168-45.462 65.168-86.571v-185.384c.001-49.744-40.313-90.057-90.057-90.057zm-155.261-36.52h73.039v36.521h-73.039zm-46.608 318.589c.019 20.246-16.398 36.697-36.644 36.697-20.263 0-36.696-16.381-36.696-36.66 0 0 0 0 0-.037-.019-20.244 16.398-36.695 36.661-36.695 20.245 0 36.679 16.416 36.679 36.66zm244.026-1.133c.035 20.244-16.381 36.695-36.662 36.695-20.21 0-36.661-16.416-36.661-36.66 0 0 0 0 0-.035 0-20.246 16.381-36.697 36.661-36.697 20.246 0 36.662 16.416 36.662 36.66 0 0 0 0 0 .037zm6.595-123.867c0 18.916-15.388 34.252-34.286 34.252h-267.551c-18.934 0-34.269-15.336-34.269-34.252v-79.35c0-18.916 15.335-34.268 34.269-34.268h267.551c18.898 0 34.286 15.352 34.286 34.268z" fill="param(fill)" fill-opacity="param(fill-opacity)" stroke="param(outline)" stroke-opacity="param(outline-opacity)" stroke-width="param(outline-width)"/>
</svg>
