<svg enable-background="new 0 0 580 580" height="580" viewBox="0 0 580 580" width="580" xmlns="http://www.w3.org/2000/svg">
<path d="m290.625 34.563c.676 0 1.379.026 2.063.031.688-.005 1.381-.031 2.063-.031z" fill="param(fill)" fill-opacity="param(fill-opacity)" stroke="param(outline)" stroke-opacity="param(outline-opacity)" stroke-width="param(outline-width)"/>
<path d="m484.625 111.469c-5.738-28.694-24.108-40.178-51.656-51.656-27.161-11.317-92.255-24.841-140.281-25.219-48.025.38-113.092 13.903-140.25 25.219-27.547 11.478-45.918 22.962-51.656 51.656l-20.657 159.094v219.187h35.594v34.375c0 41.913 61.313 41.913 61.313 0v-34.375h113.25.344 117.719v34.375c0 41.913 61.344 41.913 61.344 0v-34.375h35.594v-219.187zm-279.375-36.719h85.375 89.531c17.218 0 17.218 25.813 0 25.813h-89.719-85.187c-17.218 0-17.218-25.813 0-25.813zm-58.844 346.281c-16.248 0-29.438-13.158-29.438-29.406s13.19-29.438 29.438-29.438 29.406 13.189 29.406 29.438-13.158 29.406-29.406 29.406zm144.219-133.718h-156.062c-15.279 0-18.468-10.972-16.969-22.031l16.094-115.375c2.208-14.018 6.938-23.25 25.125-23.25h131.625 136.125c18.188 0 22.948 9.232 25.156 23.25l16.094 115.375c1.499 11.059-1.721 22.031-17 22.031zm148.375 133.718c-16.248 0-29.438-13.158-29.438-29.406s13.189-29.438 29.438-29.438 29.406 13.189 29.406 29.438-13.158 29.406-29.406 29.406z" fill="param(fill)" fill-opacity="param(fill-opacity)" stroke="param(outline)" stroke-opacity="param(outline-opacity)" stroke-width="param(outline-width)"/>
</svg>
