<?xml version="1.0" encoding="utf-8"?>
<!-- Generator: Adobe Illustrator 16.0.0, SVG Export Plug-In . SVG Version: 6.00 Build 0)  -->
<!DOCTYPE svg PUBLIC "-//W3C//DTD SVG 1.1//EN" "http://www.w3.org/Graphics/SVG/1.1/DTD/svg11.dtd">
<svg version="1.1"
	 id="svg2" xmlns:dc="http://purl.org/dc/elements/1.1/" xmlns:cc="http://creativecommons.org/ns#" xmlns:rdf="http://www.w3.org/1999/02/22-rdf-syntax-ns#" xmlns:svg="http://www.w3.org/2000/svg" xmlns:sodipodi="http://sodipodi.sourceforge.net/DTD/sodipodi-0.dtd" xmlns:inkscape="http://www.inkscape.org/namespaces/inkscape" inkscape:output_extension="org.inkscape.output.svg.inkscape" sodipodi:docbase="s:\Data\FacilityIcons" sodipodi:docname="transport_bus_station.svg" inkscape:version="0.46" sodipodi:version="0.32"
	 xmlns="http://www.w3.org/2000/svg" xmlns:xlink="http://www.w3.org/1999/xlink" x="0px" y="0px" width="580px" height="580px"
	 viewBox="0 0 580 580" enable-background="new 0 0 580 580" xml:space="preserve">
<sodipodi:namedview  showgrid="false" inkscape:cy="186.81904" inkscape:cx="242.43387" inkscape:zoom="0.65172414" pagecolor="#ffffff" bordercolor="#666666" guidetolerance="10.0" objecttolerance="10.0" gridtolerance="10.0" borderopacity="1.0" id="base" inkscape:current-layer="svg2" inkscape:window-y="-4" inkscape:window-x="-4" inkscape:pageopacity="0.0" inkscape:pageshadow="2" inkscape:window-width="1400" inkscape:window-height="1003">
	</sodipodi:namedview>
<defs>
	
	
		<inkscape:perspective  inkscape:vp_z="580 : 290 : 1" inkscape:vp_y="0 : 1000 : 0" inkscape:vp_x="0 : 290 : 1" sodipodi:type="inkscape:persp3d" id="perspective3653" inkscape:persp3d-origin="290 : 193.33333 : 1">
		</inkscape:perspective>
	
		<inkscape:perspective  inkscape:vp_z="355.02399 : 217.53 : 1" inkscape:vp_y="0 : 1000 : 0" inkscape:vp_x="0 : 217.53 : 1" sodipodi:type="inkscape:persp3d" id="perspective2512" inkscape:persp3d-origin="177.51199 : 145.02 : 1">
		</inkscape:perspective>
</defs>
<g id="g2121">
</g>
<path id="path3267" sodipodi:type="arc" sodipodi:cx="217.14285" sodipodi:rx="288.57144" sodipodi:cy="305.71429" sodipodi:ry="288.57144" opacity="0.1" fill="#FFFB3D" enable-background="new    " d="
	M563.726,290c0,150.918-122.343,273.261-273.26,273.261C139.548,563.261,17.205,440.918,17.205,290
	c0-150.917,122.343-273.261,273.261-273.261C441.383,16.739,563.726,139.083,563.726,290z"/>
<g>
	<path fill="#FFFB3D" stroke="#1EFF31" stroke-width="4.4444" stroke-miterlimit="10" d="M289.075,74.971
		c0.53,0,1.08,0.021,1.616,0.025c0.539-0.004,1.082-0.025,1.615-0.025H289.075z"/>
	<path fill="#FFFB3D" stroke="#1EFF31" stroke-width="4.4444" stroke-miterlimit="10" d="M400.596,94.753
		c-21.279-8.867-72.278-19.462-109.904-19.758c-37.626,0.298-88.604,10.892-109.881,19.758
		c-21.582,8.993-35.975,17.989-40.471,40.47l-16.183,124.644v171.725h27.886v26.932c0,32.837,48.036,32.837,48.036,0v-26.932h88.727
		h0.27h92.228v26.932c0,32.837,48.061,32.837,48.061,0v-26.932h27.886V259.867l-16.183-124.644
		C436.57,112.743,422.178,103.746,400.596,94.753z M222.187,106.456h66.888h70.144c13.489,0,13.489,20.223,0,20.223h-70.291h-66.741
		C208.698,126.679,208.698,106.456,222.187,106.456z M176.085,377.754c-12.729,0-23.063-10.31-23.063-23.039
		s10.333-23.063,23.063-23.063s23.039,10.333,23.039,23.063S188.815,377.754,176.085,377.754z M289.075,272.99H166.806
		c-11.97,0-14.469-8.596-13.294-17.261l12.608-90.392c1.73-10.982,5.435-18.215,19.685-18.215h103.123h106.648
		c14.25,0,17.979,7.233,19.709,18.215l12.609,90.392c1.175,8.665-1.349,17.261-13.319,17.261H289.075z M405.321,377.754
		c-12.729,0-23.063-10.31-23.063-23.039s10.334-23.063,23.063-23.063c12.729,0,23.038,10.333,23.038,23.063
		S418.05,377.754,405.321,377.754z"/>
	<path fill="#FFFB3D" stroke="#1EFF31" stroke-width="4.4444" stroke-miterlimit="10" d="M492.577,87.888
		C438.591,33.902,366.813,4.17,290.466,4.17c-76.348,0-148.126,29.731-202.112,83.718C34.368,141.874,4.636,213.652,4.636,290
		s29.731,148.126,83.717,202.112c53.986,53.986,125.764,83.717,202.112,83.717c76.348,0,148.125-29.731,202.111-83.717
		c53.986-53.986,83.717-125.765,83.717-202.112S546.563,141.874,492.577,87.888z M290.466,550.692
		C146.72,550.692,29.774,433.746,29.774,290S146.72,29.308,290.466,29.308c143.745,0,260.691,116.946,260.691,260.692
		S434.211,550.692,290.466,550.692z"/>
</g>
</svg>
