<?xml version="1.0" encoding="utf-8"?>
<!-- Generator: Adobe Illustrator 16.0.0, SVG Export Plug-In . SVG Version: 6.00 Build 0)  -->
<!DOCTYPE svg PUBLIC "-//W3C//DTD SVG 1.1//EN" "http://www.w3.org/Graphics/SVG/1.1/DTD/svg11.dtd">
<svg version="1.1"
	 id="svg2" xmlns:dc="http://purl.org/dc/elements/1.1/" xmlns:cc="http://creativecommons.org/ns#" xmlns:rdf="http://www.w3.org/1999/02/22-rdf-syntax-ns#" xmlns:svg="http://www.w3.org/2000/svg" xmlns:sodipodi="http://sodipodi.sourceforge.net/DTD/sodipodi-0.dtd" xmlns:inkscape="http://www.inkscape.org/namespaces/inkscape" inkscape:output_extension="org.inkscape.output.svg.inkscape" sodipodi:docname="car_parking_paid.svg" inkscape:version="0.46" sodipodi:version="0.32"
	 xmlns="http://www.w3.org/2000/svg" xmlns:xlink="http://www.w3.org/1999/xlink" x="0px" y="0px" width="580px" height="580px"
	 viewBox="0 0 580 580" enable-background="new 0 0 580 580" xml:space="preserve">
<sodipodi:namedview  showgrid="false" inkscape:cy="413.63205" inkscape:cx="114.41481" inkscape:zoom="0.35355339" pagecolor="#ffffff" bordercolor="#666666" guidetolerance="10.0" objecttolerance="10.0" gridtolerance="10.0" borderopacity="1.0" id="base" inkscape:current-layer="svg2" inkscape:window-y="0" inkscape:window-x="0" inkscape:pageopacity="0.0" inkscape:pageshadow="2" inkscape:window-width="1280" inkscape:window-height="1005">
	</sodipodi:namedview>
<defs>
	
	
		<inkscape:perspective  inkscape:vp_z="580 : 290 : 1" inkscape:vp_y="0 : 1000 : 0" inkscape:vp_x="0 : 290 : 1" sodipodi:type="inkscape:persp3d" id="perspective12" inkscape:persp3d-origin="290 : 193.33333 : 1">
		</inkscape:perspective>
	
		<inkscape:perspective  inkscape:vp_z="58.232063 : 29.116032 : 1" inkscape:vp_y="0 : 1000 : 0" inkscape:vp_x="0 : 29.116032 : 1" sodipodi:type="inkscape:persp3d" id="perspective6807" inkscape:persp3d-origin="29.116032 : 19.410688 : 1">
		</inkscape:perspective>
	
		<inkscape:perspective  inkscape:vp_z="580 : 290 : 1" inkscape:vp_y="0 : 1000 : 0" inkscape:vp_x="0 : 290 : 1" sodipodi:type="inkscape:persp3d" id="perspective6954" inkscape:persp3d-origin="290 : 193.33333 : 1">
		</inkscape:perspective>
	
		<inkscape:perspective  inkscape:vp_z="357.08099 : 237.7245 : 1" inkscape:vp_y="0 : 1000 : 0" inkscape:vp_x="0 : 237.7245 : 1" sodipodi:type="inkscape:persp3d" id="perspective7597" inkscape:persp3d-origin="178.5405 : 158.483 : 1">
		</inkscape:perspective>
</defs>
<g id="g2319" transform="translate(879.29125,36.805119)">
</g>
<path fill="#FFFB3D" stroke="#1EFF31" stroke-width="4.4444" d="M447.486,407.076l-22.324-57.583
	c-4.201-10.962-13.302-20.327-30.456-20.327h-31.525h-53.685H277.59c-17.154,0-26.254,9.365-30.456,20.327l-22.301,57.583
	c-8.84,1.134-24.512,11.512-24.512,31.169v73.228h21.707v23.419c0,28.812,40.774,28.472,40.774,0v-23.419h73.347h0.023h73.346
	v23.419c0,28.472,40.774,28.812,40.774,0v-23.419h21.707v-73.228C471.999,418.588,456.327,408.21,447.486,407.076z M243.069,467.347
	c-10.402,0-18.83-8.703-18.83-19.425c0-10.721,8.428-19.4,18.83-19.4c10.402,0,18.83,8.68,18.83,19.4
	C261.898,458.644,253.471,467.347,243.069,467.347z M336.172,406.482h-0.023h-0.048h-88.182l16.809-45.315
	c2.101-6.366,5.249-10.964,12.601-11.032h58.772h0.048h0.023h58.796c7.352,0.068,10.5,4.666,12.601,11.032l16.809,45.315H336.172z
	 M429.251,467.347c-10.401,0-18.854-8.703-18.854-19.425c0-10.721,8.452-19.4,18.854-19.4c10.402,0,18.83,8.68,18.83,19.4
	C448.081,458.644,439.653,467.347,429.251,467.347z"/>
<path fill="#FFFB3D" stroke="#1EFF31" stroke-width="4.4444" d="M300.182,245.996c20.016-21.782,30.023-48.399,30.023-79.854
	c0-18.333-3.742-35.154-11.228-50.46c-7.485-15.306-17.367-27.207-29.645-35.701c-12.279-8.494-27.501-14.255-45.667-17.283
	c-12.952-2.354-31.706-3.532-56.263-3.532H47.879v369.875h48.947V278.669h94.866C244.002,278.669,280.165,267.778,300.182,245.996z
	 M259.813,217.359c-13.288,11.774-35.743,17.662-67.365,17.661H96.826V102.814h94.613c22.203,0,37.425,1.094,45.667,3.28
	c12.783,3.532,23.085,10.807,30.907,21.824c7.821,11.018,11.732,24.264,11.732,39.738
	C279.745,189.018,273.101,205.585,259.813,217.359z"/>
<path fill="#FFFB3D" stroke="#1EFF31" stroke-width="4.4444" d="M520.786,175.62c-11.365-9.904-28.18-16.823-50.409-20.774V79.42
	c7.523,1.952,13.71,5.279,18.516,10.026c5.83,5.76,9.659,13.576,11.488,23.449l32.064-3.92
	c-2.857-15.875-9.888-28.216-21.091-37.025c-10.226-8.041-23.893-13.087-40.978-15.159V43.427c0-8.284-6.716-15-15-15
	s-15,6.716-15,15v13.5c-20.087,2.404-35.305,8.637-45.619,18.725c-11.432,11.18-17.146,24.563-17.146,40.146
	c0,15.682,5.772,28.507,17.317,38.477c10.407,8.987,25.567,15.646,45.448,19.993v83.585c-9.163-1.888-16.711-5.97-22.643-12.249
	c-7.316-7.744-12.175-18.778-14.575-33.104l-30.863,4.646c1.6,19.069,8.63,33.903,21.09,44.503
	c11.24,9.562,26.914,15.704,46.991,18.452v28.37c0,8.284,6.716,15,15,15s15-6.716,15-15v-28.213
	c20.493-1.767,36.73-8.423,48.694-19.988c12.917-12.487,19.375-27.249,19.375-44.285C538.446,199.335,532.56,185.88,520.786,175.62z
	 M418.763,137.361c-6.858-5.759-10.288-13.625-10.288-23.595c0-8.711,3.315-16.383,9.945-23.014
	c5.392-5.392,12.711-9.199,21.957-11.422v69.367C431.5,145.783,424.295,142.005,418.763,137.361z M495.065,245.532
	c-6.671,6.271-14.903,10.416-24.688,12.446V180.5c13.093,3.883,22.273,8.474,27.518,13.777c5.888,5.953,8.831,13.818,8.831,23.594
	C506.726,229.004,502.839,238.224,495.065,245.532z"/>
</svg>
