<svg enable-background="new 0 0 580 580" height="580" viewBox="0 0 580 580" width="580" xmlns="http://www.w3.org/2000/svg">
<path d="m447.486 407.076l-22.324-57.583c-4.201-10.962-13.302-20.327-30.456-20.327h-31.525-53.685-31.906c-17.154 0-26.254 9.365-30.456 20.327l-22.301 57.583c-8.84 1.134-24.512 11.512-24.512 31.169v73.228h21.707v23.419c0 28.812 40.774 28.472 40.774 0v-23.419h73.347.023 73.346v23.419c0 28.472 40.774 28.812 40.774 0v-23.419h21.707v-73.228c0-19.657-15.672-30.035-24.513-31.169zm-204.417 60.271c-10.402 0-18.83-8.703-18.83-19.425 0-10.721 8.428-19.4 18.83-19.4 10.402 0 18.83 8.68 18.83 19.4-.001 10.722-8.428 19.425-18.83 19.425zm93.103-60.865h-.023-.048-88.182l16.809-45.315c2.101-6.366 5.249-10.964 12.601-11.032h58.772.048.023 58.796c7.352.068 10.5 4.666 12.601 11.032l16.809 45.315zm93.079 60.865c-10.401 0-18.854-8.703-18.854-19.425 0-10.721 8.452-19.4 18.854-19.4 10.402 0 18.83 8.68 18.83 19.4 0 10.722-8.428 19.425-18.83 19.425z" fill="param(fill)" fill-opacity="param(fill-opacity)" stroke="param(outline)" stroke-opacity="param(outline-opacity)" stroke-width="param(outline-width)"/>
<path d="m300.182 245.996c20.016-21.782 30.023-48.399 30.023-79.854 0-18.333-3.742-35.154-11.228-50.46-7.485-15.306-17.367-27.207-29.645-35.701-12.279-8.494-27.501-14.255-45.667-17.283-12.952-2.354-31.706-3.532-56.263-3.532h-139.523v369.875h48.947v-150.372h94.866c52.31 0 88.473-10.891 108.49-32.673zm-40.369-28.637c-13.288 11.774-35.743 17.662-67.365 17.661h-95.622v-132.206h94.613c22.203 0 37.425 1.094 45.667 3.28 12.783 3.532 23.085 10.807 30.907 21.824 7.821 11.018 11.732 24.264 11.732 39.738 0 21.362-6.644 37.929-19.932 49.703z" fill="param(fill)" fill-opacity="param(fill-opacity)" stroke="param(outline)" stroke-opacity="param(outline-opacity)" stroke-width="param(outline-width)"/>
<path d="m520.786 175.62c-11.365-9.904-28.18-16.823-50.409-20.774v-75.426c7.523 1.952 13.71 5.279 18.516 10.026 5.83 5.76 9.659 13.576 11.488 23.449l32.064-3.92c-2.857-15.875-9.888-28.216-21.091-37.025-10.226-8.041-23.893-13.087-40.978-15.159v-13.364c0-8.284-6.716-15-15-15s-15 6.716-15 15v13.5c-20.087 2.404-35.305 8.637-45.619 18.725-11.432 11.18-17.146 24.563-17.146 40.146 0 15.682 5.772 28.507 17.317 38.477 10.407 8.987 25.567 15.646 45.448 19.993v83.585c-9.163-1.888-16.711-5.97-22.643-12.249-7.316-7.744-12.175-18.778-14.575-33.104l-30.863 4.646c1.6 19.069 8.63 33.903 21.09 44.503 11.24 9.562 26.914 15.704 46.991 18.452v28.37c0 8.284 6.716 15 15 15s15-6.716 15-15v-28.213c20.493-1.767 36.73-8.423 48.694-19.988 12.917-12.487 19.375-27.249 19.375-44.285.001-16.65-5.885-30.105-17.659-40.365zm-102.023-38.259c-6.858-5.759-10.288-13.625-10.288-23.595 0-8.711 3.315-16.383 9.945-23.014 5.392-5.392 12.711-9.199 21.957-11.422v69.367c-8.877-2.914-16.082-6.692-21.614-11.336zm76.302 108.171c-6.671 6.271-14.903 10.416-24.688 12.446v-77.478c13.093 3.883 22.273 8.474 27.518 13.777 5.888 5.953 8.831 13.818 8.831 23.594 0 11.133-3.887 20.353-11.661 27.661z" fill="param(fill)" fill-opacity="param(fill-opacity)" stroke="param(outline)" stroke-opacity="param(outline-opacity)" stroke-width="param(outline-width)"/>
</svg>
