<?xml version="1.0" encoding="utf-8"?>
<!-- Generator: Adobe Illustrator 16.0.0, SVG Export Plug-In . SVG Version: 6.00 Build 0)  -->
<!DOCTYPE svg PUBLIC "-//W3C//DTD SVG 1.1//EN" "http://www.w3.org/Graphics/SVG/1.1/DTD/svg11.dtd">
<svg version="1.1"
	 id="svg2" xmlns:dc="http://purl.org/dc/elements/1.1/" xmlns:cc="http://creativecommons.org/ns#" xmlns:rdf="http://www.w3.org/1999/02/22-rdf-syntax-ns#" xmlns:svg="http://www.w3.org/2000/svg" xmlns:sodipodi="http://sodipodi.sourceforge.net/DTD/sodipodi-0.dtd" xmlns:inkscape="http://www.inkscape.org/namespaces/inkscape" inkscape:output_extension="org.inkscape.output.svg.inkscape" sodipodi:docname="transport_roundabout_clockwise.svg" inkscape:version="0.47 r22583" sodipodi:version="0.32"
	 xmlns="http://www.w3.org/2000/svg" xmlns:xlink="http://www.w3.org/1999/xlink" x="0px" y="0px" width="580px" height="580px"
	 viewBox="0 0 580 580" enable-background="new 0 0 580 580" xml:space="preserve">
<sodipodi:namedview  showgrid="false" inkscape:cy="136.87957" inkscape:cx="182.01476" inkscape:zoom="0.65172414" pagecolor="#ffffff" bordercolor="#666666" guidetolerance="10.0" objecttolerance="10.0" gridtolerance="10.0" borderopacity="1.0" id="base" inkscape:window-maximized="0" inkscape:current-layer="svg2" inkscape:window-y="13" inkscape:window-x="11" inkscape:pageopacity="0.0" inkscape:pageshadow="2" inkscape:window-width="1048" inkscape:window-height="947">
	</sodipodi:namedview>
<defs>
	
	
		<inkscape:perspective  inkscape:vp_z="580 : 290 : 1" inkscape:vp_y="0 : 1000 : 0" inkscape:vp_x="0 : 290 : 1" sodipodi:type="inkscape:persp3d" id="perspective2441" inkscape:persp3d-origin="290 : 193.33333 : 1">
		</inkscape:perspective>
	
		<inkscape:perspective  inkscape:vp_z="60 : 30 : 1" inkscape:vp_y="0 : 1000 : 0" inkscape:vp_x="0 : 30 : 1" sodipodi:type="inkscape:persp3d" id="perspective3452" inkscape:persp3d-origin="30 : 20 : 1">
		</inkscape:perspective>
	
		<inkscape:perspective  inkscape:vp_z="744.09448 : 526.18109 : 1" inkscape:vp_y="0 : 1000 : 0" inkscape:vp_x="0 : 526.18109 : 1" sodipodi:type="inkscape:persp3d" id="perspective4471" inkscape:persp3d-origin="372.04724 : 350.78739 : 1">
		</inkscape:perspective>
	
		<inkscape:perspective  inkscape:vp_z="12 : 6 : 1" inkscape:vp_y="0 : 1000 : 0" inkscape:vp_x="0 : 6 : 1" sodipodi:type="inkscape:persp3d" id="perspective4668" inkscape:persp3d-origin="6 : 4 : 1">
		</inkscape:perspective>
	
		<inkscape:perspective  inkscape:vp_z="32 : 16 : 1" inkscape:vp_y="0 : 1000 : 0" inkscape:vp_x="0 : 16 : 1" sodipodi:type="inkscape:persp3d" id="perspective4904" inkscape:persp3d-origin="16 : 10.666667 : 1">
		</inkscape:perspective>
	
		<inkscape:perspective  inkscape:vp_z="32 : 16 : 1" inkscape:vp_y="0 : 1000 : 0" inkscape:vp_x="0 : 16 : 1" sodipodi:type="inkscape:persp3d" id="perspective5233" inkscape:persp3d-origin="16 : 10.666667 : 1">
		</inkscape:perspective>
	
		<inkscape:perspective  inkscape:vp_z="500 : 250 : 1" inkscape:vp_y="0 : 1000 : 0" inkscape:vp_x="0 : 250 : 1" sodipodi:type="inkscape:persp3d" id="perspective5412" inkscape:persp3d-origin="250 : 166.66667 : 1">
		</inkscape:perspective>
	
		<inkscape:perspective  inkscape:vp_z="405.71429 : 204.28572 : 1" inkscape:vp_y="0 : 1000 : 0" inkscape:vp_x="0 : 204.28572 : 1" sodipodi:type="inkscape:persp3d" id="perspective5571" inkscape:persp3d-origin="202.85715 : 136.19048 : 1">
		</inkscape:perspective>
	
		<inkscape:perspective  inkscape:vp_z="128 : 64 : 1" inkscape:vp_y="0 : 1000 : 0" inkscape:vp_x="0 : 64 : 1" sodipodi:type="inkscape:persp3d" id="perspective6552" inkscape:persp3d-origin="64 : 42.666667 : 1">
		</inkscape:perspective>
	
		<inkscape:perspective  inkscape:vp_z="1 : 0.5 : 1" inkscape:vp_y="0 : 1000 : 0" inkscape:vp_x="0 : 0.5 : 1" sodipodi:type="inkscape:persp3d" id="perspective4729" inkscape:persp3d-origin="0.5 : 0.33333333 : 1">
		</inkscape:perspective>
</defs>
<path fill="param(fill)" fill-opacity="param(fill-opacity)" stroke="param(outline)" stroke-opacity="param(outline-opacity)" stroke-width="param(outline-width)" d="M292.396,215.452c-42.119-0.02-76.279,34.109-76.298,76.228
	c0,0.023,0,0.047,0,0.07c-0.02,42.118,34.109,76.278,76.228,76.297c42.118,0.02,76.278-34.108,76.298-76.227c0-0.023,0-0.047,0-0.07
	C368.644,249.631,334.515,215.471,292.396,215.452z"/>
<path fill="param(fill)" fill-opacity="param(fill-opacity)" stroke="param(outline)" stroke-opacity="param(outline-opacity)" stroke-width="param(outline-width)" d="M564.581,258.531c-0.957-2.309-3.209-3.813-5.708-3.813H485.4
	c-13.466-70.5-64.717-127.757-131.847-149.812c-0.106-1.475-0.735-2.87-1.788-3.923l-78.677-78.677
	c-1.766-1.767-4.423-2.295-6.732-1.339c-2.309,0.956-3.813,3.209-3.813,5.708v70.69c-41.16,6.227-79.134,25.314-109.124,55.289
	c-25.947,25.935-43.738,57.854-52.113,92.644l-77.865,77.865c-1.767,1.767-2.295,4.424-1.339,6.732s3.209,3.813,5.708,3.813h72.47
	c7.877,36.485,26.035,70.002,53.045,97.037c24.894,24.917,55.303,42.315,88.473,51.084c0.293,0.586,0.676,1.128,1.148,1.6
	l78.677,78.677c1.182,1.183,2.762,1.81,4.369,1.81c0.796,0,1.599-0.153,2.363-0.47c2.309-0.957,3.813-3.209,3.813-5.708v-73.382
	c37.301-7.632,71.588-25.975,99.135-53.509c24.094-24.083,41.157-53.326,50.178-85.236c1.159-0.246,2.233-0.819,3.084-1.671
	l78.677-78.677C565.008,263.497,565.537,260.84,564.581,258.531z M332.168,470.915v-69.616c0-2.492-1.497-4.74-3.797-5.7
	c-2.301-0.961-4.95-0.445-6.724,1.307l-73.814,72.956c-31.997-7.942-61.342-24.449-85.243-48.373
	c-24.52-24.541-41.221-54.808-48.883-87.779h70.542c0.007,0,0.013,0,0.02,0c3.412,0,6.178-2.766,6.178-6.178
	c0-1.844-0.808-3.5-2.089-4.632l-74.141-75.013c17.36-70.608,75.722-125.274,148.326-137.215v72.443c0,2.492,1.497,4.74,3.797,5.701
	c0.769,0.321,1.578,0.478,2.379,0.478c1.596,0,3.165-0.619,4.344-1.784l72.306-71.465c63.858,19.311,113.118,72.561,126.691,138.675
	h-69.627c-2.492,0-4.74,1.497-5.7,3.797c-0.961,2.3-0.445,4.951,1.307,6.724l71.882,72.728
	C452.699,404.207,399.289,456.004,332.168,470.915z"/>
</svg>
