<svg enable-background="new 0 0 580 580" height="580" viewBox="0 0 580 580" width="580" xmlns="http://www.w3.org/2000/svg">
<path d="m565.453 347.664v-22.279l-3.158-1.006c-108.581-34.588-184.838-104.306-226.628-207.16-8.799-22.555-26.026-35.814-48.51-37.336l-.153-.01h-193.65c-14.958 0-21.598 13.604-25.165 20.913l-.111.247c-3.361 8.078-6.756 15.828-10.04 23.322-14.707 33.569-28.599 65.276-34.218 115.414l-.026.356c-.296 9.023-.625 18.031-.954 27.039-1.204 33.011-2.45 67.146-2.013 101.546 0 13.318 7.354 30.636 19.191 45.194 12.751 15.683 27.543 24.678 40.584 24.678h484.851v-56.27l-2.86-.699v-34.499zm-280.379-29.267c0 9.756-7.937 17.692-17.693 17.692-9.756 0-17.693-7.937-17.693-17.692 0-9.43 7.373-17.189 16.79-17.665l.144-.003.759.009c9.756-.001 17.693 7.921 17.693 17.659zm-202.066-17.665l.144-.003.759.009c9.756 0 17.693 7.922 17.693 17.659 0 4.724-1.841 9.166-5.184 12.509-3.343 3.343-7.786 5.184-12.509 5.184-9.756 0-17.693-7.937-17.693-17.692 0-9.431 7.373-17.191 16.79-17.666zm-21.061-103.021c-1.042-.52-3.049-5.817-1.323-13.166 3.967-7.907 8.121-18.337 12.141-28.43 3.777-9.484 7.682-19.291 11.323-26.715 4.897-9.984 7.382-11.612 7.896-11.856h186.804c.031 0 3.206.151 8.988 13.245 4.057 9.186 7.875 21.134 11.567 32.688 2.406 7.527 4.678 14.637 6.856 20.461 2.055 5.608.283 12.749-1.166 13.756zm294.957 27.294c1.997 2.089 3.996 4.215 5.966 6.311 8.676 9.225 17.623 18.739 25.966 24.745v71.364l-28.226-12.93c-2.813-28.541-3.443-56.802-3.706-89.49zm61.993 79.806c.092-6.268.193-13.175.195-22.701 5.986 4.678 10.605 7.74 15.418 10.931 3.182 2.109 6.457 4.281 10.312 7.043l.47 53.03-26.297-11.021c-.389-17.589-.254-26.754-.098-37.282zm53.236 56.712v-45.962l25.496 10.396v42.943c-9.893-1.454-18.293-3.886-25.496-7.377zm48.865 13.572v-39.445l18.397 4.732v38.03c-5.839-.43-12.175-1.293-18.397-3.317z" fill="param(fill)" fill-opacity="param(fill-opacity)" stroke="param(outline)" stroke-opacity="param(outline-opacity)" stroke-width="param(outline-width)"/>
<path d="m242.914 468.335h-101.867v-22.847h-69.507v23.123h-46.143l-.069 32.531h324.725c45.694-20.581 125.525-46.529 210.866-50.119v-5.604h-318.005z" fill="param(fill)" fill-opacity="param(fill-opacity)" stroke="param(outline)" stroke-opacity="param(outline-opacity)" stroke-width="param(outline-width)"/>
</svg>
