<svg enable-background="new 0 0 580 580" height="580" viewBox="0 0 580 580" width="580" xmlns="http://www.w3.org/2000/svg">
<path d="m292.396 215.452c-42.119-.02-76.279 34.109-76.298 76.228 0 .023 0 .047 0 .07-.02 42.118 34.109 76.278 76.228 76.297 42.118.02 76.278-34.108 76.298-76.227 0-.023 0-.047 0-.07.02-42.119-34.109-76.279-76.228-76.298z" fill="param(fill)" fill-opacity="param(fill-opacity)" stroke="param(outline)" stroke-opacity="param(outline-opacity)" stroke-width="param(outline-width)"/>
<path d="m564.581 258.531c-.957-2.309-3.209-3.813-5.708-3.813h-73.473c-13.466-70.5-64.717-127.757-131.847-149.812-.106-1.475-.735-2.87-1.788-3.923l-78.677-78.677c-1.766-1.767-4.423-2.295-6.732-1.339-2.309.956-3.813 3.209-3.813 5.708v70.69c-41.16 6.227-79.134 25.314-109.124 55.289-25.947 25.935-43.738 57.854-52.113 92.644l-77.865 77.865c-1.767 1.767-2.295 4.424-1.339 6.732s3.209 3.813 5.708 3.813h72.47c7.877 36.485 26.035 70.002 53.045 97.037 24.894 24.917 55.303 42.315 88.473 51.084.293.586.676 1.128 1.148 1.6l78.677 78.677c1.182 1.183 2.762 1.81 4.369 1.81.796 0 1.599-.153 2.363-.47 2.309-.957 3.813-3.209 3.813-5.708v-73.382c37.301-7.632 71.588-25.975 99.135-53.509 24.094-24.083 41.157-53.326 50.178-85.236 1.159-.246 2.233-.819 3.084-1.671l78.677-78.677c1.766-1.766 2.295-4.423 1.339-6.732zm-232.413 212.384v-69.616c0-2.492-1.497-4.74-3.797-5.7-2.301-.961-4.95-.445-6.724 1.307l-73.814 72.956c-31.997-7.942-61.342-24.449-85.243-48.373-24.52-24.541-41.221-54.808-48.883-87.779h70.542c.007 0 .013 0 .02 0 3.412 0 6.178-2.766 6.178-6.178 0-1.844-.808-3.5-2.089-4.632l-74.141-75.013c17.36-70.608 75.722-125.274 148.326-137.215v72.443c0 2.492 1.497 4.74 3.797 5.701.769.321 1.578.478 2.379.478 1.596 0 3.165-.619 4.344-1.784l72.306-71.465c63.858 19.311 113.118 72.561 126.691 138.675h-69.627c-2.492 0-4.74 1.497-5.7 3.797-.961 2.3-.445 4.951 1.307 6.724l71.882 72.728c-17.223 66.238-70.633 118.035-137.754 132.946z" fill="param(fill)" fill-opacity="param(fill-opacity)" stroke="param(outline)" stroke-opacity="param(outline-opacity)" stroke-width="param(outline-width)"/>
</svg>
