<?xml version="1.0" encoding="utf-8"?>
<!-- Generator: Adobe Illustrator 16.0.0, SVG Export Plug-In . SVG Version: 6.00 Build 0)  -->
<!DOCTYPE svg PUBLIC "-//W3C//DTD SVG 1.1//EN" "http://www.w3.org/Graphics/SVG/1.1/DTD/svg11.dtd">
<svg version="1.1"
	 id="svg2" xmlns:dc="http://purl.org/dc/elements/1.1/" xmlns:cc="http://creativecommons.org/ns#" xmlns:rdf="http://www.w3.org/1999/02/22-rdf-syntax-ns#" xmlns:svg="http://www.w3.org/2000/svg" xmlns:sodipodi="http://sodipodi.sourceforge.net/DTD/sodipodi-0.dtd" xmlns:inkscape="http://www.inkscape.org/namespaces/inkscape" inkscape:output_extension="org.inkscape.output.svg.inkscape" sodipodi:docbase="s:\Data\FacilityIcons" sodipodi:docname="highway_bus_stop.svg" inkscape:version="0.46" sodipodi:version="0.32"
	 xmlns="http://www.w3.org/2000/svg" xmlns:xlink="http://www.w3.org/1999/xlink" x="0px" y="0px" width="580px" height="580px"
	 viewBox="0 0 580 580" enable-background="new 0 0 580 580" xml:space="preserve">
<sodipodi:namedview  showgrid="false" inkscape:cy="186.81904" inkscape:cx="68.469786" inkscape:zoom="0.65172414" pagecolor="#ffffff" bordercolor="#666666" guidetolerance="10.0" objecttolerance="10.0" gridtolerance="10.0" borderopacity="1.0" id="base" inkscape:current-layer="svg2" inkscape:window-y="13" inkscape:window-x="12" inkscape:pageopacity="0.0" inkscape:pageshadow="2" inkscape:window-width="758" inkscape:window-height="1003">
	</sodipodi:namedview>
<defs>
	
	
		<inkscape:perspective  inkscape:vp_z="580 : 290 : 1" inkscape:vp_y="0 : 1000 : 0" inkscape:vp_x="0 : 290 : 1" sodipodi:type="inkscape:persp3d" id="perspective3653" inkscape:persp3d-origin="290 : 193.33333 : 1">
		</inkscape:perspective>
	
		<inkscape:perspective  inkscape:vp_z="355.02399 : 217.53 : 1" inkscape:vp_y="0 : 1000 : 0" inkscape:vp_x="0 : 217.53 : 1" sodipodi:type="inkscape:persp3d" id="perspective2512" inkscape:persp3d-origin="177.51199 : 145.02 : 1">
		</inkscape:perspective>
</defs>
<g id="g2121">
</g>
<path fill="#FFFB3D" stroke="#1EFF31" stroke-width="4.4444" d="M290.625,34.563c0.676,0,1.379,0.026,2.063,0.031
	c0.688-0.005,1.381-0.031,2.063-0.031H290.625z"/>
<path fill="#FFFB3D" stroke="#1EFF31" stroke-width="4.4444" d="M484.625,111.469c-5.738-28.694-24.108-40.178-51.656-51.656
	c-27.161-11.317-92.255-24.841-140.281-25.219c-48.025,0.38-113.092,13.903-140.25,25.219
	c-27.547,11.478-45.918,22.962-51.656,51.656L80.125,270.563V489.75h35.594v34.375c0,41.913,61.313,41.913,61.313,0V489.75h113.25
	h0.344h117.719v34.375c0,41.913,61.344,41.913,61.344,0V489.75h35.594V270.563L484.625,111.469z M205.25,74.75h85.375h89.531
	c17.218,0,17.218,25.813,0,25.813h-89.719H205.25C188.032,100.563,188.032,74.75,205.25,74.75z M146.406,421.031
	c-16.248,0-29.438-13.158-29.438-29.406s13.19-29.438,29.438-29.438s29.406,13.189,29.406,29.438S162.654,421.031,146.406,421.031z
	 M290.625,287.313H134.563c-15.279,0-18.468-10.972-16.969-22.031l16.094-115.375c2.208-14.018,6.938-23.25,25.125-23.25h131.625
	h136.125c18.188,0,22.948,9.232,25.156,23.25l16.094,115.375c1.499,11.059-1.721,22.031-17,22.031H290.625z M439,421.031
	c-16.248,0-29.438-13.158-29.438-29.406s13.189-29.438,29.438-29.438s29.406,13.189,29.406,29.438S455.248,421.031,439,421.031z"/>
</svg>
