<svg enable-background="new 0 0 580 580" height="580" viewBox="0 0 580 580" width="580" xmlns="http://www.w3.org/2000/svg">
<path d="m145.358 505.15v-419.584h158.274c27.857 0 49.132 1.336 63.824 4.007 20.607 3.435 37.875 9.97 51.805 19.604 13.93 9.636 25.139 23.136 33.63 40.499 8.49 17.364 12.735 36.445 12.736 57.242-.001 35.681-11.354 65.876-34.06 90.585-22.706 24.71-63.729 37.064-123.07 37.064h-107.614v170.583zm55.525-220.095h108.474c35.871 0 61.345-6.678 76.418-20.035 15.073-13.356 22.609-32.151 22.61-56.383-.001-17.554-4.437-32.58-13.309-45.078-8.873-12.498-20.562-20.75-35.063-24.757-9.35-2.479-26.616-3.72-51.804-3.721h-107.326z" fill="param(fill)" opacity=".5"/>
<path d="m144.625 74.625c-6.265.001-11.343 5.079-11.344 11.344v419.563c.001 6.265 5.079 11.343 11.344 11.344h55.5c6.265-.001 11.343-5.079 11.344-11.344v-159.22h96.281c60.915 0 105.399-12.414 131.438-40.75 24.546-26.711 37.03-60.163 37.03-98.25 0-22.341-4.6-43.25-13.875-62.219-9.203-18.818-21.712-34.007-37.375-44.844-15.518-10.734-34.405-17.779-56.219-21.438-.058-.01-.13-.021-.188-.031-15.918-2.875-37.568-4.156-65.688-4.156h-158.248zm11.344 22.688h146.906c27.495 0 48.361 1.367 61.813 3.813.052.011.104.021.155.031 19.319 3.22 34.923 9.245 47.22 17.75 12.193 8.436 22.096 20.248 29.875 36.156 7.704 15.758 11.594 32.996 11.594 52.25 0 33.275-10.197 60.2-31.063 82.906-19.375 21.084-56.952 33.406-114.719 33.406h-107.625c-6.265 0-11.343 5.079-11.344 11.344v159.22h-32.813zm44.156 26.812c-6.265.001-11.343 5.079-11.344 11.344v149.969c.001 6.265 5.079 11.343 11.344 11.344h108.469c37.279 0 65.552-6.556 83.97-22.875 17.621-15.615 26.405-38.29 26.405-64.875 0-19.465-5.052-37.114-15.375-51.656-10.229-14.409-24.466-24.47-41.313-29.125-.031-.011-.063-.021-.095-.031-11.788-3.127-29.159-4.093-54.719-4.094zm11.344 22.688h96c24.703 0 41.813 1.491 48.781 3.313.031.008.094.023.125.031 12.092 3.369 21.229 9.795 28.719 20.344 7.421 10.454 11.188 22.889 11.188 38.531 0 21.881-6.257 36.777-18.781 47.875-11.731 10.395-34.442 17.188-68.906 17.188h-97.125z" fill="param(fill)" fill-opacity="param(fill-opacity)" stroke="param(outline)" stroke-opacity="param(outline-opacity)" stroke-width="param(outline-width)"/>
<path d="m145.344 74.219c-2.97 0-5.931 1.212-8.031 3.313-2.1 2.101-3.313 5.061-3.313 8.031v79.531h78.219v-18.656h12.656v-72.219zm173.719 25.031v47.281c18.856.366 32.058 1.677 37.938 3.219.023.006.07.025.094.031 9.945 2.766 17.862 7.606 24.531 15.094h31.594v-72.531c-12.822-6.613-27.463-11.211-43.719-13.938-.058-.01-.13-.021-.188-.031-12.828-2.316-29.381-3.599-50.039-4.009zm94.468 65.938v94.156h54.469c5.959-16.203 8.969-33.766 8.969-52.438 0-14.563-1.946-28.515-5.875-41.719zm-38.437 93.843c-11.108 8.011-29.662 13.407-56.03 14.469v72.25c38.699-.964 70.285-7.337 94.155-20.156v-66.563zm-241.094.219v94.156h78.219v-7.5h12.656v-72.188h-12.656v-14.468zm0 188.313v57.594c0 2.97 1.212 5.932 3.313 8.031 2.101 2.099 5.062 3.313 8.031 3.313h55.531c2.97 0 5.931-1.213 8.031-3.313 2.1-2.101 3.312-5.063 3.313-8.031v-57.594z" fill="#fff" opacity=".75"/>
</svg>
