<svg enable-background="new 0 0 580 580" height="580" viewBox="0 0 580 580" width="580" xmlns="http://www.w3.org/2000/svg">
<path d="m111.239 369.546c0 44.778 63.371 44.251 63.371 0v-36.396h113.994.038 113.994v36.396c0 44.251 63.37 44.778 63.371 0v-36.396h33.735v-113.81c0-30.553-24.356-46.681-38.096-48.443l-34.697-89.495c-6.529-17.038-20.673-31.593-47.334-31.593h-48.997-83.436-49.588c-26.662 0-40.805 14.555-47.334 31.593l-34.66 89.495c-13.74 1.762-38.097 17.89-38.097 48.443v113.809h33.736zm322.065-165.318c16.167 0 29.266 13.489 29.266 30.152 0 16.664-13.099 30.189-29.266 30.189-16.166 0-29.303-13.525-29.303-30.189 0-16.663 13.137-30.152 29.303-30.152zm-255.701-104.683c3.265-9.894 8.157-17.039 19.584-17.146h91.343.074.037 91.38c11.426.106 16.319 7.252 19.584 17.146l26.124 70.428h-137.088-.037-.074-137.051zm-33.662 104.683c16.167 0 29.265 13.489 29.265 30.152 0 16.664-13.098 30.189-29.265 30.189-16.167 0-29.265-13.525-29.265-30.189 0-16.663 13.098-30.152 29.265-30.152z" fill="param(fill)" fill-opacity="param(fill-opacity)" stroke="param(outline)" stroke-opacity="param(outline-opacity)" stroke-width="param(outline-width)"/>
<path d="m517.013 507.345l-16.897-35.096c-.445-.923-1.558-1.313-2.479-.869-35.763 17.154-66.66 25.492-94.459 25.492-7.249 0-14.262-.539-21.438-1.649-28.063-4.339-52.037-17.313-77.42-31.049l-3.263-1.765c-30.897-16.698-59.499-30.705-96.698-32.976-4.598-.281-9.442-.341-14.9-.177-38.102 1.136-79.409 15.195-126.282 42.98-.882.523-1.174 1.662-.651 2.545l19.844 33.535c.251.425.661.731 1.138.854.477.122.984.051 1.409-.201 42.173-24.998 77.91-37.15 109.254-37.15 2.539 0 5.103.078 7.623.231 28.622 1.748 51.724 13.143 78.953 27.856 1.808.978 3.627 1.966 5.461 2.962 25.011 13.59 53.359 28.992 88.985 34.502 8.854 1.369 17.998 2.063 27.178 2.063 35.021 0 72.236-9.685 113.771-29.607.444-.214.786-.595.95-1.061.163-.464.135-.975-.079-1.42z" fill="param(fill)" fill-opacity="param(fill-opacity)" stroke="param(outline)" stroke-opacity="param(outline-opacity)" stroke-width="param(outline-width)"/>
</svg>
