<svg enable-background="new 0 0 580 580" height="580" viewBox="0 0 580 580" width="580" xmlns="http://www.w3.org/2000/svg">
<path d="m196.476 350.072c1.207-4.436 1.557-9.304.978-14.003-.271-2.201-.747-130.863-.643-196.056l15.197.09-.132 222.834h17.438l.156 24.938 160.094-.094.125-24.844 15 .125v-318.624c0-6.796-3.937-12.688-11.344-12.688h-164.345c-8.482 0-16.938 6.131-16.938 15.938l-.01 16.775c-11.361-1.421-22.556 1.513-32.702 31.677.027 17.29.369 34.736.825 52.241-17.695 71.974-53.214 113.291-78.548 174.335-11.539 61.568 69.732 90.63 94.849 27.356zm48.774-273.384c0-6.523 4.52-10.094 10.531-10.094h104.906c5.809 0 10.375 2.366 10.375 10.375v82.875c0 5.614-3.001 9.688-9.406 9.688l-105.594-.281c-6.098 0-11.344-4.505-11.344-11.063zm-65.506 266.75c-15.642 45.063-65.586 31.231-63.751-10.752 21.754-45.422 49.797-99.75 65.725-130.744 1.341 48.164 2.045 96.011-1.974 141.496z" fill="param(fill)" fill-opacity="param(fill-opacity)" stroke="param(outline)" stroke-opacity="param(outline-opacity)" stroke-width="param(outline-width)"/>
<path d="m403.838 476.55v21.445h21.305v9.703c-4.173 2.484-7.875 4.242-11.109 5.273s-6.633 1.547-10.195 1.547c-7.5 0-13.348-2.391-17.543-7.172s-6.293-12.75-6.293-23.906c0-10.5 2.074-18.176 6.223-23.027s9.715-7.277 16.699-7.277c4.688 0 8.543 1.031 11.566 3.094s5.167 5.039 6.434 8.93l30.727-5.484c-1.876-6.656-4.677-12.152-8.402-16.488-3.728-4.336-8.415-7.535-14.063-9.598-5.649-2.063-14.168-3.094-25.559-3.094-11.813 0-21.211 1.664-28.195 4.992-8.953 4.313-15.75 10.629-20.391 18.949s-6.961 18.105-6.961 29.355c0 10.688 2.121 20.156 6.363 28.406s10.219 14.461 17.93 18.633 17.684 6.258 29.918 6.258c9.938 0 18.526-1.16 25.77-3.48 7.241-2.32 15.573-6.691 24.996-13.113v-43.946z" fill="param(fill)" fill-opacity="param(fill-opacity)" stroke="param(outline)" stroke-opacity="param(outline-opacity)" stroke-width="param(outline-width)"/>
<path d="m183.619 432.253h-31.852v103.078h81.563v-25.383h-49.711z" fill="param(fill)" fill-opacity="param(fill-opacity)" stroke="param(outline)" stroke-opacity="param(outline-opacity)" stroke-width="param(outline-width)"/>
<path d="m300.76 432.253h-52.946v103.078h31.992v-38.25h17.438c12.844 0 22.395-2.93 28.652-8.789s9.387-13.992 9.387-24.398c0-10.125-2.871-17.93-8.613-23.414s-14.379-8.227-25.91-8.227zm-.211 40.746c-2.484 2.133-6.797 3.199-12.938 3.199h-7.805v-22.992h9.07c5.954 0 10.008 1.125 12.165 3.375s3.234 4.992 3.234 8.227c0 3.328-1.242 6.058-3.726 8.191z" fill="param(fill)" fill-opacity="param(fill-opacity)" stroke="param(outline)" stroke-opacity="param(outline-opacity)" stroke-width="param(outline-width)"/>
</svg>
