<?xml version="1.0" encoding="utf-8"?>
<!-- Generator: Adobe Illustrator 16.0.0, SVG Export Plug-In . SVG Version: 6.00 Build 0)  -->
<!DOCTYPE svg PUBLIC "-//W3C//DTD SVG 1.1//EN" "http://www.w3.org/Graphics/SVG/1.1/DTD/svg11.dtd">
<svg version="1.1"
	 id="svg2" xmlns:dc="http://purl.org/dc/elements/1.1/" xmlns:cc="http://creativecommons.org/ns#" xmlns:rdf="http://www.w3.org/1999/02/22-rdf-syntax-ns#" xmlns:svg="http://www.w3.org/2000/svg" xmlns:sodipodi="http://sodipodi.sourceforge.net/DTD/sodipodi-0.dtd" xmlns:inkscape="http://www.inkscape.org/namespaces/inkscape" inkscape:output_extension="org.inkscape.output.svg.inkscape" sodipodi:docname="transport_parking.svg" inkscape:version="0.46" sodipodi:version="0.32"
	 xmlns="http://www.w3.org/2000/svg" xmlns:xlink="http://www.w3.org/1999/xlink" x="0px" y="0px" width="580px" height="580px"
	 viewBox="0 0 580 580" enable-background="new 0 0 580 580" xml:space="preserve">
<sodipodi:namedview  showgrid="false" inkscape:cy="413.63205" inkscape:cx="525.95096" inkscape:zoom="0.35355339" pagecolor="#ffffff" bordercolor="#666666" guidetolerance="10.0" objecttolerance="10.0" gridtolerance="10.0" borderopacity="1.0" id="base" inkscape:current-layer="svg2" inkscape:window-y="18" inkscape:window-x="112" inkscape:pageopacity="0.0" inkscape:pageshadow="2" inkscape:window-width="1280" inkscape:window-height="1005">
	</sodipodi:namedview>
<defs>
	
	
		<inkscape:perspective  inkscape:vp_z="580 : 290 : 1" inkscape:vp_y="0 : 1000 : 0" inkscape:vp_x="0 : 290 : 1" sodipodi:type="inkscape:persp3d" id="perspective12" inkscape:persp3d-origin="290 : 193.33333 : 1">
		</inkscape:perspective>
	
		<inkscape:perspective  inkscape:vp_z="58.232063 : 29.116032 : 1" inkscape:vp_y="0 : 1000 : 0" inkscape:vp_x="0 : 29.116032 : 1" sodipodi:type="inkscape:persp3d" id="perspective6807" inkscape:persp3d-origin="29.116032 : 19.410688 : 1">
		</inkscape:perspective>
	
		<inkscape:perspective  inkscape:vp_z="580 : 290 : 1" inkscape:vp_y="0 : 1000 : 0" inkscape:vp_x="0 : 290 : 1" sodipodi:type="inkscape:persp3d" id="perspective6954" inkscape:persp3d-origin="290 : 193.33333 : 1">
		</inkscape:perspective>
	
		<inkscape:perspective  inkscape:vp_z="357.08099 : 237.7245 : 1" inkscape:vp_y="0 : 1000 : 0" inkscape:vp_x="0 : 237.7245 : 1" sodipodi:type="inkscape:persp3d" id="perspective7597" inkscape:persp3d-origin="178.5405 : 158.483 : 1">
		</inkscape:perspective>
</defs>
<path fill="#FFFB3D" stroke="#1EFF31" stroke-width="4.4444" d="M463.082,144.693c-9.316-19.048-21.888-34.135-37.367-44.844
	c-15.23-10.535-34.178-17.752-56.313-21.452c-15.499-2.809-37.015-4.174-65.769-4.174H145.358c-6.265,0-11.344,5.079-11.344,11.344
	V505.15c0,6.265,5.079,11.344,11.344,11.344h55.525c6.265,0,11.344-5.079,11.344-11.344V345.913h96.271
	c63.248,0,106.237-13.323,131.423-40.732c24.584-26.753,37.05-59.813,37.051-98.262
	C476.971,184.476,472.298,163.541,463.082,144.693z M309.356,273.711h-97.129V146.424h95.985
	c29.903,0.001,43.063,1.806,48.838,3.327c11.992,3.327,21.406,9.992,28.777,20.374c7.546,10.629,11.214,23.227,11.215,38.511
	c-0.001,21.025-6.147,36.691-18.791,47.894C365.385,267.931,342.206,273.711,309.356,273.711z"/>
</svg>
