<svg enable-background="new 0 0 580 580" height="580" viewBox="0 0 580 580" width="580" xmlns="http://www.w3.org/2000/svg">
<path d="m257.633 492.351l-97.215-.607c.433 67.569 97.215 67.57 97.215.607z" fill="param(fill)" fill-opacity="param(fill-opacity)" stroke="param(outline)" stroke-opacity="param(outline-opacity)" stroke-width="param(outline-width)"/>
<path d="m458.139 492.331l-97.215-.607c.432 67.569 97.215 67.57 97.215.607z" fill="param(fill)" fill-opacity="param(fill-opacity)" stroke="param(outline)" stroke-opacity="param(outline-opacity)" stroke-width="param(outline-width)"/>
<path d="m343.76 492.199h-68.506c-.485 15.811-2.964 23.147-7.139 30.379h81.417c-4.144-7.177-6.035-14.786-5.772-30.379z" fill="param(fill)" fill-opacity="param(fill-opacity)" stroke="param(outline)" stroke-opacity="param(outline-opacity)" stroke-width="param(outline-width)"/>
<path d="m437.675 205.029l-9.793-10.272h-78.137l114.125-76.872-130.763-87.977-133.674 88.05 116.809 76.799h-81.105l-8.56 10.272h-94.806l.259 29.15h-.309l-65.952 131.266v79.616c0 14.379 16.979 29.327 29.924 29.287h413.344v-105.76-.592-132.177-1.412-29.378zm-104.628-162.864l112.554 75.726-112.473 75.759-115.135-75.7zm-47.721 207.047l-.088 188.167c-1.735 9.831-8.6 11.653-14.109 16.929h-46.806c-5.538-5.413-12.538-7.162-14.292-17.102l-.089-188.167c0-4.237 5.925-8.411 12.777-13.22h49.583c6.957 4.882 13.024 9.104 13.024 13.393zm-178.519 74.103l43.055-87.496h40.278l-.128 132.314h-56.241c-12.95 0-34.804-15.561-26.964-44.818zm388.202-74.424l-.091 102.39c-1.71 9.688-8.393 11.614-13.857 16.716h-160.146c-5.534-5.353-12.691-6.715-14.439-16.617l-.919.011.215-102.568c0-3.788 6.245-8.178 13.106-13.002h163.564c6.764 4.745 12.567 8.875 12.567 13.07z" fill="param(fill)" fill-opacity="param(fill-opacity)" stroke="param(outline)" stroke-opacity="param(outline-opacity)" stroke-width="param(outline-width)"/>
</svg>
