<svg enable-background="new 0 0 580 580" height="580" viewBox="0 0 580 580" width="580" xmlns="http://www.w3.org/2000/svg">
<path d="m381.926 119.683c.011 48.303-39.138 87.469-87.44 87.48-48.303.011-87.469-39.137-87.48-87.44 0-.013 0-.026 0-.04-.011-48.303 39.137-87.469 87.44-87.48 48.304-.011 87.47 39.138 87.48 87.441 0 .012 0 .025 0 .039z" fill="param(fill)" opacity=".6"/>
<path d="m381.926 291.683c.011 48.303-39.138 87.47-87.44 87.479-48.303.012-87.469-39.137-87.48-87.439 0-.014 0-.027 0-.04-.011-48.303 39.137-87.469 87.44-87.48 48.304-.011 87.47 39.137 87.48 87.44 0 .013 0 .027 0 .04z" fill="param(fill)" opacity=".2"/>
<path d="m381.926 461.683c.011 48.303-39.138 87.469-87.44 87.48-48.303.011-87.469-39.138-87.48-87.441 0-.013 0-.025 0-.039-.011-48.304 39.137-87.47 87.44-87.479 48.304-.012 87.47 39.137 87.48 87.439 0 .013 0 .026 0 .04z" fill="param(fill)" opacity=".3"/>
<path d="m296.092 17.83c-1.154-.013-2.315 0-3.47.029-49.731-.086-95.369 42.462-97.875 92.299-1.587 25.614.168 51.293-.504 76.935.213 95.855-.637 191.728.504 287.573 4.148 45.803 43.393 85.555 89.333 89.629 43.417 4.869 88.303-21.282 103.925-62.284 8.26-19.931 8.13-41.869 7.415-63.084-.274-110.329.624-220.675-.534-330.993-4.116-45.501-42.812-85.077-88.443-89.451-3.441-.393-6.888-.616-10.351-.653zm-.029 24.973c42.626 0 77.202 34.576 77.202 77.202s-34.576 77.172-77.202 77.172c-42.627 0-77.173-34.546-77.173-77.172s34.546-77.202 77.173-77.202zm0 170.835c42.626 0 77.202 34.576 77.202 77.202 0 42.627-34.576 77.172-77.202 77.172-42.627 0-77.173-34.545-77.173-77.172 0-42.627 34.546-77.202 77.173-77.202zm0 170.835c42.626 0 77.202 34.576 77.202 77.202 0 42.627-34.576 77.173-77.202 77.173-42.627 0-77.173-34.546-77.173-77.173 0-42.626 34.546-77.202 77.173-77.202z" fill="param(fill)" stroke="param(outline)" stroke-miterlimit="10" stroke-width="param(outline-width)"/>
<path d="m296.092 17.83c-1.154-.013-2.315 0-3.47.029-49.731-.086-95.369 42.462-97.875 92.299-1.587 25.614.168 51.293-.504 76.935.213 95.855-.637 191.728.504 287.573 4.148 45.803 43.393 85.555 89.333 89.629 43.417 4.869 88.303-21.282 103.925-62.284 8.26-19.931 8.13-41.869 7.415-63.084-.274-110.329.624-220.675-.534-330.993-4.116-45.501-42.812-85.077-88.443-89.451-3.441-.393-6.888-.616-10.351-.653zm-.029 24.973c42.626 0 77.202 34.576 77.202 77.202s-34.576 77.172-77.202 77.172c-42.627 0-77.173-34.546-77.173-77.172s34.546-77.202 77.173-77.202zm0 170.835c42.626 0 77.202 34.576 77.202 77.202 0 42.627-34.576 77.172-77.202 77.172-42.627 0-77.173-34.545-77.173-77.172 0-42.627 34.546-77.202 77.173-77.202zm0 170.835c42.626 0 77.202 34.576 77.202 77.202 0 42.627-34.576 77.173-77.202 77.173-42.627 0-77.173-34.546-77.173-77.173 0-42.626 34.546-77.202 77.173-77.202z" fill="param(fill)" fill-opacity="param(fill-opacity)" stroke="param(outline)" stroke-opacity="param(outline-opacity)" stroke-width="param(outline-width)"/>
</svg>
