<svg enable-background="new 0 0 580 580" height="580" viewBox="0 0 580 580" width="580" xmlns="http://www.w3.org/2000/svg">
<path d="m145.358 505.15v-419.584h158.274c27.857 0 49.132 1.336 63.824 4.007 20.607 3.435 37.875 9.97 51.805 19.605 13.929 9.636 25.138 23.136 33.63 40.499 8.49 17.364 12.735 36.445 12.736 57.242-.001 35.681-11.354 65.876-34.06 90.585-22.706 24.71-63.729 37.064-123.07 37.064h-107.614v170.582zm55.525-220.095h108.473c35.872 0 61.345-6.678 76.418-20.035 15.074-13.356 22.61-32.151 22.611-56.383-.001-17.554-4.437-32.58-13.309-45.078-8.873-12.498-20.561-20.75-35.062-24.757-9.35-2.48-26.617-3.72-51.804-3.721h-107.327z" fill="param(fill)" opacity=".5"/>
<path d="m200.883 516.494h-55.525c-6.265 0-11.344-5.079-11.344-11.344v-419.584c0-6.265 5.079-11.344 11.344-11.344h158.274c28.754 0 50.27 1.366 65.769 4.174 22.136 3.7 41.083 10.917 56.313 21.452 15.479 10.709 28.051 25.796 37.367 44.844 9.216 18.848 13.889 39.783 13.89 62.226-.001 38.449-12.467 71.509-37.051 98.262-25.186 27.409-68.175 40.732-131.423 40.732h-96.271v159.238c.001 6.265-5.078 11.344-11.343 11.344zm-44.181-22.687h32.837v-159.238c0-6.265 5.079-11.344 11.344-11.344h107.615c55.758 0 94.354-11.236 114.718-33.396 20.904-22.75 31.067-49.87 31.068-82.911-.001-18.958-3.898-36.541-11.584-52.259-7.589-15.516-17.646-27.68-29.893-36.152-12.479-8.632-28.366-14.603-47.216-17.745-.055-.009-.109-.019-.164-.028-13.955-2.537-34.746-3.824-61.795-3.824h-146.93zm152.658-197.409c-.003 0-.002 0-.004 0h-108.473c-6.265 0-11.344-5.079-11.344-11.344v-149.973c0-6.265 5.079-11.344 11.344-11.344h107.329c26.417 0 44.313 1.341 54.712 4.1.038.01.076.021.113.031 17.016 4.702 30.907 14.501 41.29 29.125 10.22 14.396 15.401 31.771 15.402 51.645-.001 27.509-8.894 49.335-26.433 64.875-17.378 15.398-44.837 22.885-83.936 22.885zm-97.133-22.687h97.129c32.85 0 56.028-5.78 68.895-17.181 12.644-11.202 18.79-26.868 18.791-47.894-.001-15.284-3.669-27.882-11.215-38.511-7.371-10.382-16.785-17.047-28.777-20.374-5.775-1.521-18.935-3.326-48.838-3.327h-95.985z" fill="param(fill)" stroke="param(outline)" stroke-miterlimit="10" stroke-width="param(outline-width)"/>
</svg>
