<svg enable-background="new 0 0 580 580" height="580" viewBox="0 0 580 580" width="580" xmlns="http://www.w3.org/2000/svg">
<path d="m477.031 393.395c-10.333 0-20.189 2.058-29.203 5.762-.617-2.134-1.239-4.287-1.864-6.447-3.464-11.971-6.992-24.125-9.964-34.057-2.928-9.783-5.637-15.809-6.524-20.145-.691-3.379 3.589-3.089 8.1-6.848 3.406-2.838 6.296-7.634 7.181-12.515.736-4.292-.176-8.604-2.172-12.136-6.935-10.594-13.7-10.395-22.651-10.395-11.77 0-31.195 0-31.195.001l.074 19.114 29.928.062c3.571.007 5.424 5.028-1.558 6.981-3.058.846-6.465 4.488-7.604 9.002-1.141 4.512-.288 9.014 1.379 13.183.384.959 1.134 3.904 2.233 8.028l-135.871.687-8.024-19.642c9.058-2.071 29.844-7.056 32.723-9.796 3.418-3.112 0-7.797-2.647-7.797h-70.912c.876 15.642 13.136 19.041 19.77 20.071l7.84 19.191c-.843.692-1.563 1.546-2.098 2.539l-22.646 42.057c-8.939-3.634-18.701-5.654-28.93-5.654-42.503 0-77.082 34.579-77.082 77.082s34.579 77.082 77.082 77.082c40.045 0 73.043-30.699 76.728-69.797h2.475c2.55 8.743 9.009 15.984 17.504 19.964l-2.601 6.053-13.433.123c-2.878.026-5.19 2.381-5.164 5.26.026 2.862 2.354 5.164 5.211 5.164.016 0 .033 0 .049 0l30.152-.276c2.878-.026 5.19-2.381 5.164-5.26-.026-2.862-2.354-5.164-5.211-5.164-.016 0-.032 0-.049 0l-8.566.078 1.525-3.55c2.549.579 5.206.894 7.942.894 18.594 0 33.721-14.181 33.721-31.611 0-3.844-.737-7.528-2.084-10.938l82.198-55.777c.563 1.948 1.12 3.883 1.671 5.793-18.046 14.121-29.679 36.079-29.679 60.716 0 42.503 34.579 77.081 77.082 77.081s77.082-34.578 77.082-77.081-34.579-77.082-77.082-77.082zm-58.966-23.366c1.545 5.216 3.2 10.871 4.897 16.701l-87.587 59.435c-1.343-1.024-2.772-1.95-4.273-2.774l2.682-6.24 13.491-.124c2.879-.026 5.19-2.381 5.164-5.26s-2.38-5.148-5.26-5.164l-30.152.276c-2.879.026-5.19 2.381-5.164 5.26.026 2.862 2.354 5.164 5.211 5.164.016 0 .032 0 .049 0l8.508-.078-1.416 3.297c-3.188-.939-6.578-1.448-10.093-1.448-.636 0-1.268.021-1.895.053l-27.952-68.421zm-153.951 5.369l28.873 70.68c-5.328 4.028-9.32 9.543-11.265 15.865h-2.889c-2.815-22.118-15.028-41.332-32.51-53.505zm-11.588 86.545h-35.013l16.368-30.397c9.471 7.437 16.257 18.137 18.645 30.397zm-50.131 60.864c-28.167 0-51.082-22.915-51.082-51.082s22.916-51.082 51.082-51.082c5.771 0 11.316.977 16.494 2.748l-23.175 43.04c-1.424 2.645-1.353 5.843.187 8.422 1.54 2.578 4.323 4.157 7.326 4.157h49.722c-3.549 24.727-24.862 43.797-50.554 43.797zm274.636-1.249c-28.167 0-51.082-22.915-51.082-51.081 0-12.412 4.453-23.8 11.841-32.661.592 1.982 1.133 3.771 1.608 5.328.944 3.095 1.424 4.829 2.223 6.796l.332.817.485.741c.347.556 3.758 10.154 12.979 18.063l.077.051.051.077c6.627 5.488 12.342 7.457 15.952 8.603 3.802 1.169 9.004.569 11.522-3.338 1.999-2.866.239-8.669-3.546-11.419-1.49-1.041-5.784-4.45-11.058-9.065-4.703-4.199-5.085-7.414-7.889-12.348.071.159-.705-2.078-1.584-4.957-.902-2.955-2.078-6.901-3.424-11.497-.128-.436-.259-.883-.39-1.331 6.642-3.165 14.067-4.942 21.901-4.942 28.167 0 51.082 22.915 51.082 51.082.002 28.166-22.913 51.081-51.08 51.081z" fill="param(fill)" fill-opacity="param(fill-opacity)" stroke="param(outline)" stroke-opacity="param(outline-opacity)" stroke-width="param(outline-width)"/>
<path d="m302.058 241.552c20.016-21.782 30.024-48.4 30.024-79.854 0-18.333-3.743-35.154-11.228-50.46-7.485-15.306-17.367-27.206-29.646-35.701-12.279-8.494-27.501-14.255-45.667-17.283-12.952-2.354-31.707-3.532-56.264-3.532h-139.521v369.875h48.946v-150.372h94.866c52.31.001 88.474-10.891 108.49-32.673zm-203.356-143.181h94.614c22.202 0 37.424 1.093 45.667 3.28 12.783 3.533 23.085 10.807 30.907 21.824 7.821 11.018 11.731 24.263 11.732 39.737 0 21.362-6.644 37.93-19.932 49.704-13.288 11.774-35.743 17.661-67.365 17.661h-95.623z" fill="param(fill)" fill-opacity="param(fill-opacity)" stroke="param(outline)" stroke-opacity="param(outline-opacity)" stroke-width="param(outline-width)"/>
</svg>
