<svg enable-background="new 0 0 580 580" height="580" viewBox="0 0 580 580" width="580" xmlns="http://www.w3.org/2000/svg">
<path d="m447.486 407.076l-22.324-57.583c-4.201-10.962-13.302-20.327-30.456-20.327h-31.525-53.685-31.906c-17.154 0-26.254 9.365-30.456 20.327l-22.301 57.583c-8.84 1.134-24.512 11.512-24.512 31.169v73.228h21.707v23.419c0 28.812 40.774 28.472 40.774 0v-23.419h73.347.023 73.346v23.419c0 28.472 40.774 28.812 40.774 0v-23.419h21.707v-73.228c0-19.657-15.672-30.035-24.513-31.169zm-204.417 60.271c-10.402 0-18.83-8.703-18.83-19.425 0-10.721 8.428-19.4 18.83-19.4 10.402 0 18.83 8.68 18.83 19.4-.001 10.722-8.428 19.425-18.83 19.425zm93.103-60.865h-.023-.048-88.182l16.809-45.315c2.101-6.366 5.249-10.964 12.601-11.032h58.772.048.023 58.796c7.352.068 10.5 4.666 12.601 11.032l16.809 45.315zm93.079 60.865c-10.401 0-18.854-8.703-18.854-19.425 0-10.721 8.452-19.4 18.854-19.4 10.402 0 18.83 8.68 18.83 19.4 0 10.722-8.428 19.425-18.83 19.425z" fill="param(fill)" fill-opacity="param(fill-opacity)" stroke="param(outline)" stroke-opacity="param(outline-opacity)" stroke-width="param(outline-width)"/>
<path d="m300.182 245.996c20.016-21.782 30.023-48.399 30.023-79.854 0-18.333-3.742-35.154-11.228-50.46-7.485-15.306-17.367-27.207-29.645-35.701-12.279-8.494-27.501-14.255-45.667-17.283-12.952-2.354-31.706-3.532-56.263-3.532h-139.523v369.875h48.947v-150.372h94.866c52.31 0 88.473-10.891 108.49-32.673zm-40.369-28.637c-13.288 11.774-35.743 17.662-67.365 17.661h-95.622v-132.206h94.613c22.203 0 37.425 1.094 45.667 3.28 12.783 3.532 23.085 10.807 30.907 21.824 7.821 11.018 11.732 24.264 11.732 39.738 0 21.362-6.644 37.929-19.932 49.703z" fill="param(fill)" fill-opacity="param(fill-opacity)" stroke="param(outline)" stroke-opacity="param(outline-opacity)" stroke-width="param(outline-width)"/>
</svg>
