<?xml version="1.0" encoding="utf-8"?>
<!-- Generator: Adobe Illustrator 16.0.0, SVG Export Plug-In . SVG Version: 6.00 Build 0)  -->
<!DOCTYPE svg PUBLIC "-//W3C//DTD SVG 1.1//EN" "http://www.w3.org/Graphics/SVG/1.1/DTD/svg11.dtd">
<svg version="1.1"
	 id="svg2" xmlns:dc="http://purl.org/dc/elements/1.1/" xmlns:cc="http://creativecommons.org/ns#" xmlns:rdf="http://www.w3.org/1999/02/22-rdf-syntax-ns#" xmlns:svg="http://www.w3.org/2000/svg" xmlns:sodipodi="http://sodipodi.sourceforge.net/DTD/sodipodi-0.dtd" xmlns:inkscape="http://www.inkscape.org/namespaces/inkscape" inkscape:output_extension="org.inkscape.output.svg.inkscape" sodipodi:docname="transport_parking_private3.svg" inkscape:version="0.47 r22583" sodipodi:version="0.32"
	 xmlns="http://www.w3.org/2000/svg" xmlns:xlink="http://www.w3.org/1999/xlink" x="0px" y="0px" width="580px" height="580px"
	 viewBox="0 0 580 580" enable-background="new 0 0 580 580" xml:space="preserve">
<path id="text2419_1_" opacity="0.5" fill="param(fill) #FFF" enable-background="new    " d="M145.358,505.15V85.566h158.274
	c27.857,0,49.132,1.336,63.824,4.007c20.607,3.435,37.875,9.97,51.805,19.604c13.93,9.636,25.139,23.136,33.63,40.499
	c8.49,17.364,12.735,36.445,12.736,57.242c-0.001,35.681-11.354,65.876-34.06,90.585c-22.706,24.71-63.729,37.064-123.07,37.064
	H200.883V505.15H145.358z M200.883,285.055h108.474c35.871,0,61.345-6.678,76.418-20.035c15.073-13.356,22.609-32.151,22.61-56.383
	c-0.001-17.554-4.437-32.58-13.309-45.078c-8.873-12.498-20.562-20.75-35.063-24.757c-9.35-2.479-26.616-3.72-51.804-3.721H200.883
	V285.055z"/>
<sodipodi:namedview  showgrid="false" inkscape:cy="-10.480592" inkscape:cx="785.24592" inkscape:zoom="0.25" pagecolor="#ffffff" bordercolor="#666666" guidetolerance="10.0" objecttolerance="10.0" gridtolerance="10.0" borderopacity="1.0" id="base" inkscape:window-maximized="1" inkscape:current-layer="svg2" inkscape:window-y="-4" inkscape:window-x="-4" inkscape:pageopacity="0.0" inkscape:pageshadow="2" inkscape:window-width="1400" inkscape:window-height="994">
	</sodipodi:namedview>
<defs>
	
	
		<inkscape:perspective  inkscape:vp_z="580 : 290 : 1" inkscape:vp_y="0 : 1000 : 0" inkscape:vp_x="0 : 290 : 1" sodipodi:type="inkscape:persp3d" id="perspective12" inkscape:persp3d-origin="290 : 193.33333 : 1">
		</inkscape:perspective>
	
		<inkscape:perspective  inkscape:vp_z="58.232063 : 29.116032 : 1" inkscape:vp_y="0 : 1000 : 0" inkscape:vp_x="0 : 29.116032 : 1" sodipodi:type="inkscape:persp3d" id="perspective6807" inkscape:persp3d-origin="29.116032 : 19.410688 : 1">
		</inkscape:perspective>
	
		<inkscape:perspective  inkscape:vp_z="580 : 290 : 1" inkscape:vp_y="0 : 1000 : 0" inkscape:vp_x="0 : 290 : 1" sodipodi:type="inkscape:persp3d" id="perspective6954" inkscape:persp3d-origin="290 : 193.33333 : 1">
		</inkscape:perspective>
	
		<inkscape:perspective  inkscape:vp_z="357.08099 : 237.7245 : 1" inkscape:vp_y="0 : 1000 : 0" inkscape:vp_x="0 : 237.7245 : 1" sodipodi:type="inkscape:persp3d" id="perspective7597" inkscape:persp3d-origin="178.5405 : 158.483 : 1">
		</inkscape:perspective>
	
		<inkscape:perspective  inkscape:vp_z="1 : 0.5 : 1" inkscape:vp_y="0 : 1000 : 0" inkscape:vp_x="0 : 0.5 : 1" sodipodi:type="inkscape:persp3d" id="perspective4835" inkscape:persp3d-origin="0.5 : 0.33333333 : 1">
		</inkscape:perspective>
	
		<inkscape:perspective  inkscape:vp_z="1 : 0.5 : 1" inkscape:vp_y="0 : 1000 : 0" inkscape:vp_x="0 : 0.5 : 1" sodipodi:type="inkscape:persp3d" id="perspective4858" inkscape:persp3d-origin="0.5 : 0.33333333 : 1">
		</inkscape:perspective>
</defs>
<g id="g2319" transform="translate(879.29125,36.805119)">
	<path id="path2323" fill="#111111" stroke="#EEEEEE" stroke-width="3.408" d="M0,0"/>
</g>
<g id="g2325" transform="translate(879.29125,36.805119)">
	<path id="path2329" fill="#111111" stroke="#EEEEEE" stroke-width="3.408" d="M0,0"/>
</g>
<path id="text2419-4" fill="param(fill) #FFF" stroke="param(outline) #000" stroke-width="param(outline-width) 1" d="M144.625,74.625
	c-6.265,0.001-11.343,5.079-11.344,11.344v419.563c0.001,6.265,5.079,11.343,11.344,11.344h55.5
	c6.265-0.001,11.343-5.079,11.344-11.344v-159.22h96.281c60.915,0,105.399-12.414,131.438-40.75
	c24.546-26.711,37.03-60.163,37.03-98.25c0-22.341-4.6-43.25-13.875-62.219c-9.203-18.818-21.712-34.007-37.375-44.844
	c-15.518-10.734-34.405-17.779-56.219-21.438c-0.058-0.01-0.13-0.021-0.188-0.031c-15.918-2.875-37.568-4.156-65.688-4.156H144.625z
	 M155.969,97.313h146.906c27.495,0,48.361,1.367,61.813,3.813c0.052,0.011,0.104,0.021,0.155,0.031
	c19.319,3.22,34.923,9.245,47.22,17.75c12.193,8.436,22.096,20.248,29.875,36.156c7.704,15.758,11.594,32.996,11.594,52.25
	c0,33.275-10.197,60.2-31.063,82.906c-19.375,21.084-56.952,33.406-114.719,33.406H200.125c-6.265,0-11.343,5.079-11.344,11.344
	v159.22h-32.813L155.969,97.313L155.969,97.313z M200.125,124.125c-6.265,0.001-11.343,5.079-11.344,11.344v149.969
	c0.001,6.265,5.079,11.343,11.344,11.344h108.469c37.279,0,65.552-6.556,83.97-22.875c17.621-15.615,26.405-38.29,26.405-64.875
	c0-19.465-5.052-37.114-15.375-51.656c-10.229-14.409-24.466-24.47-41.313-29.125c-0.031-0.011-0.063-0.021-0.095-0.031
	c-11.788-3.127-29.159-4.093-54.719-4.094L200.125,124.125L200.125,124.125z M211.469,146.813h96
	c24.703,0,41.813,1.491,48.781,3.313c0.031,0.008,0.094,0.023,0.125,0.031c12.092,3.369,21.229,9.795,28.719,20.344
	c7.421,10.454,11.188,22.889,11.188,38.531c0,21.881-6.257,36.777-18.781,47.875c-11.731,10.395-34.442,17.188-68.906,17.188H211.47
	L211.469,146.813L211.469,146.813z"/>
<path id="text2419" sodipodi:nodetypes="cscccccccccssccccscccccscccccccccccccccccccsccsccc" opacity="0.75" fill="#FFFFFF" enable-background="new    " d="
	M145.344,74.219c-2.97,0-5.931,1.212-8.031,3.313c-2.1,2.101-3.313,5.061-3.313,8.031v79.531h78.219v-18.656h12.656V74.219H145.344z
	 M319.063,99.25v47.281c18.856,0.366,32.058,1.677,37.938,3.219c0.023,0.006,0.07,0.025,0.094,0.031
	c9.945,2.766,17.862,7.606,24.531,15.094h31.594V92.344c-12.822-6.613-27.463-11.211-43.719-13.938
	c-0.058-0.01-0.13-0.021-0.188-0.031c-12.828-2.316-29.381-3.599-50.039-4.009L319.063,99.25z M413.531,165.188v94.156H468
	c5.959-16.203,8.969-33.766,8.969-52.438c0-14.563-1.946-28.515-5.875-41.719L413.531,165.188L413.531,165.188z M375.094,259.031
	c-11.108,8.011-29.662,13.407-56.03,14.469v72.25c38.699-0.964,70.285-7.337,94.155-20.156v-66.563H375.094z M134,259.25v94.156
	h78.219v-7.5h12.656v-72.188h-12.656V259.25H134z M134,447.563v57.594c0,2.97,1.212,5.932,3.313,8.031
	c2.101,2.099,5.062,3.313,8.031,3.313h55.531c2.97,0,5.931-1.213,8.031-3.313c2.1-2.101,3.312-5.063,3.313-8.031v-57.594H134z"/>
</svg>
