<svg enable-background="new 0 0 580 580" height="580" viewBox="0 0 580 580" width="580" xmlns="http://www.w3.org/2000/svg">
<path d="m454.753 474.386c-13.381 21.126-33.521 39.685-58.943 45.864-33.907 9.226-71.918-9.687-86.941-39.835-14.202-26.534-9.28-62.05 13.187-82.871 3.184-4.386 11.877-6.128 10.598-12.474-.859-7.313 2.37-18.411-2.431-22.711-30.249 14.533-53.094 44.488-54.786 77.588-3.491 29.194 9.607 58.72 32.278 77.834 15.854 13.774 36.636 22.364 66.35 25.562 33.035 2.206 65.729-13.342 86.136-38.132 12.071-8.107.147-26.485-5.448-30.825z" fill="param(fill)" fill-opacity="param(fill-opacity)" stroke="param(outline)" stroke-opacity="param(outline-opacity)" stroke-width="param(outline-width)"/>
<path d="m540.849 477.709c-5.759.356-16.757 8.638-31.907 10.408-14.423-28.238-28.169-57.034-42.455-85.435-24.851-.019-65.525.051-90.448-.065.035-.941-3.828-10.148 1.063-21.08 22.068 0 44.137 0 66.205 0 0-7.027 0-14.053 0-21.079-22.529-.298-45.228.984-67.621-.757-1.009-15.965-.643-32.008-.244-47.995 5.553-7.548 22.01-10.88 21.288-24.57 2.682-17.329-17.64-32.084-34.111-25.521-16.638 4.722-22.903 26.704-10.941 38.861.354 40.409.504 80.821 1.097 121.227 19.224.003 85.707-2.327 98.402.467 12.773 25.412 43.526 87.917 46.957 93.294 13.606-4.503 34.96-14.686 48.49-19.397.696.579.534-18.885-5.775-18.358z" fill="param(fill)" fill-opacity="param(fill-opacity)" stroke="param(outline)" stroke-opacity="param(outline-opacity)" stroke-width="param(outline-width)"/>
<path d="m303.473 239.652c20.016-21.782 30.023-48.399 30.023-79.854 0-18.333-3.742-35.154-11.228-50.46-7.485-15.306-17.367-27.207-29.646-35.701-12.279-8.494-27.501-14.255-45.667-17.283-12.952-2.354-31.706-3.532-56.264-3.532h-139.521v369.875h48.947v-150.371h94.866c52.309 0 88.473-10.891 108.49-32.674zm-40.369-28.636c-13.288 11.774-35.743 17.662-67.365 17.661h-95.623v-132.206h94.613c22.202 0 37.424 1.094 45.667 3.28 12.783 3.532 23.085 10.807 30.907 21.824 7.821 11.018 11.732 24.263 11.732 39.737.001 21.362-6.643 37.93-19.931 49.704z" fill="param(fill)" fill-opacity="param(fill-opacity)" stroke="param(outline)" stroke-opacity="param(outline-opacity)" stroke-width="param(outline-width)"/>
</svg>
