<?xml version="1.0" encoding="utf-8"?>
<!-- Generator: Adobe Illustrator 16.0.0, SVG Export Plug-In . SVG Version: 6.00 Build 0)  -->
<!DOCTYPE svg PUBLIC "-//W3C//DTD SVG 1.1//EN" "http://www.w3.org/Graphics/SVG/1.1/DTD/svg11.dtd">
<svg version="1.1"
	 id="svg2" xmlns:dc="http://purl.org/dc/elements/1.1/" xmlns:cc="http://creativecommons.org/ns#" xmlns:rdf="http://www.w3.org/1999/02/22-rdf-syntax-ns#" xmlns:svg="http://www.w3.org/2000/svg" xmlns:sodipodi="http://sodipodi.sourceforge.net/DTD/sodipodi-0.dtd" xmlns:inkscape="http://www.inkscape.org/namespaces/inkscape" inkscape:output_extension="org.inkscape.output.svg.inkscape" sodipodi:docname="fuel.svg" inkscape:version="0.46" sodipodi:version="0.32"
	 xmlns="http://www.w3.org/2000/svg" xmlns:xlink="http://www.w3.org/1999/xlink" x="0px" y="0px" width="580px" height="580px"
	 viewBox="0 0 580 580" enable-background="new 0 0 580 580" xml:space="preserve">
<sodipodi:namedview  showgrid="false" inkscape:cy="447.56013" inkscape:cx="58.821176" inkscape:zoom="0.70710678" pagecolor="#ffffff" bordercolor="#666666" guidetolerance="10.0" objecttolerance="10.0" gridtolerance="10.0" borderopacity="1.0" id="base" inkscape:current-layer="svg2" inkscape:window-y="0" inkscape:window-x="0" inkscape:pageopacity="0.0" inkscape:pageshadow="2" inkscape:window-width="1280" inkscape:window-height="1005">
	</sodipodi:namedview>
<defs>
	
	
		<inkscape:perspective  inkscape:vp_z="580 : 290 : 1" inkscape:vp_y="0 : 1000 : 0" inkscape:vp_x="0 : 290 : 1" sodipodi:type="inkscape:persp3d" id="perspective12" inkscape:persp3d-origin="290 : 193.33333 : 1">
		</inkscape:perspective>
	
		<inkscape:perspective  inkscape:vp_z="58.232063 : 29.116032 : 1" inkscape:vp_y="0 : 1000 : 0" inkscape:vp_x="0 : 29.116032 : 1" sodipodi:type="inkscape:persp3d" id="perspective6807" inkscape:persp3d-origin="29.116032 : 19.410688 : 1">
		</inkscape:perspective>
	
		<inkscape:perspective  inkscape:vp_z="580 : 290 : 1" inkscape:vp_y="0 : 1000 : 0" inkscape:vp_x="0 : 290 : 1" sodipodi:type="inkscape:persp3d" id="perspective6954" inkscape:persp3d-origin="290 : 193.33333 : 1">
		</inkscape:perspective>
	
		<inkscape:perspective  inkscape:vp_z="357.08099 : 237.7245 : 1" inkscape:vp_y="0 : 1000 : 0" inkscape:vp_x="0 : 237.7245 : 1" sodipodi:type="inkscape:persp3d" id="perspective7597" inkscape:persp3d-origin="178.5405 : 158.483 : 1">
		</inkscape:perspective>
	
		<inkscape:perspective  inkscape:vp_z="411.93304 : 197.4393 : 1" inkscape:vp_y="0 : 1000 : 0" inkscape:vp_x="0 : 197.4393 : 1" sodipodi:type="inkscape:persp3d" id="perspective8018" inkscape:persp3d-origin="205.96652 : 131.6262 : 1">
		</inkscape:perspective>
	
		<inkscape:perspective  inkscape:vp_z="198.17545 : 116.00951 : 1" inkscape:vp_y="0 : 1000 : 0" inkscape:vp_x="0 : 116.00951 : 1" sodipodi:type="inkscape:persp3d" id="perspective8269" inkscape:persp3d-origin="99.087723 : 77.339676 : 1">
		</inkscape:perspective>
</defs>
<path fill="param(fill) #FFF" stroke="param(outline) #000" stroke-width="param(outline-width) 1" d="M413.344,111.75H249c-8.482,0-16.938,6.131-16.938,15.938
	l-0.01,16.775c-11.361-1.421-22.556,1.513-32.702,31.677c0.027,17.29,0.369,34.736,0.825,52.241
	c-17.695,71.973-53.214,113.291-78.548,174.335c-11.54,61.568,69.732,90.63,94.848,27.356c1.207-4.436,1.557-9.304,0.978-14.003
	c-0.271-2.201-0.747-130.863-0.643-196.056l15.197,0.09l-0.132,222.834h17.438l0.156,24.938l160.094-0.094l0.125-24.844l15,0.125
	V124.438C424.688,117.642,420.751,111.75,413.344,111.75z M199.744,423.438c-15.642,45.063-65.586,31.231-63.751-10.752
	c21.754-45.423,49.797-99.75,65.725-130.744C203.059,330.106,203.763,377.953,199.744,423.438z M391.063,239.844
	c0,5.614-3.001,9.688-9.406,9.688l-105.594-0.281c-6.098,0-11.344-4.505-11.344-11.063l0.531-81.5
	c0-6.523,4.52-10.094,10.531-10.094h104.906c5.809,0,10.375,2.365,10.375,10.375V239.844z"/>
</svg>
