<svg enable-background="new 0 0 580 580" height="580" viewBox="0 0 580 580" width="580" xmlns="http://www.w3.org/2000/svg">
<path d="m413.344 111.75h-164.344c-8.482 0-16.938 6.131-16.938 15.938l-.01 16.775c-11.361-1.421-22.556 1.513-32.702 31.677.027 17.29.369 34.736.825 52.241-17.695 71.973-53.214 113.291-78.548 174.335-11.54 61.568 69.732 90.63 94.848 27.356 1.207-4.436 1.557-9.304.978-14.003-.271-2.201-.747-130.863-.643-196.056l15.197.09-.132 222.834h17.438l.156 24.938 160.094-.094.125-24.844 15 .125v-318.624c0-6.796-3.937-12.688-11.344-12.688zm-213.6 311.688c-15.642 45.063-65.586 31.231-63.751-10.752 21.754-45.423 49.797-99.75 65.725-130.744 1.341 48.164 2.045 96.011-1.974 141.496zm191.319-183.594c0 5.614-3.001 9.688-9.406 9.688l-105.594-.281c-6.098 0-11.344-4.505-11.344-11.063l.531-81.5c0-6.523 4.52-10.094 10.531-10.094h104.906c5.809 0 10.375 2.365 10.375 10.375v82.875z" fill="param(fill)" fill-opacity="param(fill-opacity)" stroke="param(outline)" stroke-opacity="param(outline-opacity)" stroke-width="param(outline-width)"/>
</svg>
