<?xml version="1.0" encoding="utf-8"?>
<!-- Generator: Adobe Illustrator 16.0.0, SVG Export Plug-In . SVG Version: 6.00 Build 0)  -->
<!DOCTYPE svg PUBLIC "-//W3C//DTD SVG 1.1//EN" "http://www.w3.org/Graphics/SVG/1.1/DTD/svg11.dtd">
<svg version="1.1"
	 id="svg2" xmlns:dc="http://purl.org/dc/elements/1.1/" xmlns:cc="http://creativecommons.org/ns#" xmlns:rdf="http://www.w3.org/1999/02/22-rdf-syntax-ns#" xmlns:svg="http://www.w3.org/2000/svg" xmlns:sodipodi="http://sodipodi.sourceforge.net/DTD/sodipodi-0.dtd" xmlns:inkscape="http://www.inkscape.org/namespaces/inkscape" inkscape:output_extension="org.inkscape.output.svg.inkscape" sodipodi:docname="transport_parking_private2.svg" inkscape:version="0.47 r22583" sodipodi:version="0.32"
	 xmlns="http://www.w3.org/2000/svg" xmlns:xlink="http://www.w3.org/1999/xlink" x="0px" y="0px" width="580px" height="580px"
	 viewBox="0 0 580 580" enable-background="new 0 0 580 580" xml:space="preserve">
<path id="text2419" opacity="0.5" fill="#FFFB3D" enable-background="new    " d="M145.358,505.15V85.566h158.274
	c27.857,0,49.132,1.336,63.824,4.007c20.607,3.435,37.875,9.97,51.805,19.605c13.929,9.636,25.138,23.136,33.63,40.499
	c8.49,17.364,12.735,36.445,12.736,57.242c-0.001,35.681-11.354,65.876-34.06,90.585c-22.706,24.71-63.729,37.064-123.07,37.064
	H200.883V505.15H145.358z M200.883,285.055h108.473c35.872,0,61.345-6.678,76.418-20.035c15.074-13.356,22.61-32.151,22.611-56.383
	c-0.001-17.554-4.437-32.58-13.309-45.078c-8.873-12.498-20.561-20.75-35.062-24.757c-9.35-2.48-26.617-3.72-51.804-3.721H200.883
	V285.055z"/>
<sodipodi:namedview  showgrid="false" inkscape:cy="413.63205" inkscape:cx="110.17217" inkscape:zoom="0.35355339" pagecolor="#ffffff" bordercolor="#666666" guidetolerance="10.0" objecttolerance="10.0" gridtolerance="10.0" borderopacity="1.0" id="base" inkscape:window-maximized="0" inkscape:current-layer="svg2" inkscape:window-y="11" inkscape:window-x="22" inkscape:pageopacity="0.0" inkscape:pageshadow="2" inkscape:window-width="1280" inkscape:window-height="1005">
	</sodipodi:namedview>
<defs>
	
	
		<inkscape:perspective  inkscape:vp_z="580 : 290 : 1" inkscape:vp_y="0 : 1000 : 0" inkscape:vp_x="0 : 290 : 1" sodipodi:type="inkscape:persp3d" id="perspective12" inkscape:persp3d-origin="290 : 193.33333 : 1">
		</inkscape:perspective>
	
		<inkscape:perspective  inkscape:vp_z="58.232063 : 29.116032 : 1" inkscape:vp_y="0 : 1000 : 0" inkscape:vp_x="0 : 29.116032 : 1" sodipodi:type="inkscape:persp3d" id="perspective6807" inkscape:persp3d-origin="29.116032 : 19.410688 : 1">
		</inkscape:perspective>
	
		<inkscape:perspective  inkscape:vp_z="580 : 290 : 1" inkscape:vp_y="0 : 1000 : 0" inkscape:vp_x="0 : 290 : 1" sodipodi:type="inkscape:persp3d" id="perspective6954" inkscape:persp3d-origin="290 : 193.33333 : 1">
		</inkscape:perspective>
	
		<inkscape:perspective  inkscape:vp_z="357.08099 : 237.7245 : 1" inkscape:vp_y="0 : 1000 : 0" inkscape:vp_x="0 : 237.7245 : 1" sodipodi:type="inkscape:persp3d" id="perspective7597" inkscape:persp3d-origin="178.5405 : 158.483 : 1">
		</inkscape:perspective>
	
		<inkscape:perspective  inkscape:vp_z="1 : 0.5 : 1" inkscape:vp_y="0 : 1000 : 0" inkscape:vp_x="0 : 0.5 : 1" sodipodi:type="inkscape:persp3d" id="perspective2868" inkscape:persp3d-origin="0.5 : 0.33333333 : 1">
		</inkscape:perspective>
</defs>
<path id="path2323" fill="#FFFB3D" stroke="#1EFF31" stroke-width="4.4444" d="M879.291,36.805"/>
<path id="path2329" fill="#FFFB3D" stroke="#1EFF31" stroke-width="4.4444" d="M879.291,36.805"/>
<g id="text2419_2_">
	<path fill="#FFFB3D" stroke="#1EFF31" stroke-width="4.4444" stroke-miterlimit="10" d="M200.883,516.494h-55.525
		c-6.265,0-11.344-5.079-11.344-11.344V85.566c0-6.265,5.079-11.344,11.344-11.344h158.274c28.754,0,50.27,1.366,65.769,4.174
		c22.136,3.7,41.083,10.917,56.313,21.452c15.479,10.709,28.051,25.796,37.367,44.844c9.216,18.848,13.889,39.783,13.89,62.226
		c-0.001,38.449-12.467,71.509-37.051,98.262c-25.186,27.409-68.175,40.732-131.423,40.732h-96.271V505.15
		C212.227,511.415,207.148,516.494,200.883,516.494z M156.702,493.807h32.837V334.569c0-6.265,5.079-11.344,11.344-11.344h107.615
		c55.758,0,94.354-11.236,114.718-33.396c20.904-22.75,31.067-49.87,31.068-82.911c-0.001-18.958-3.898-36.541-11.584-52.259
		c-7.589-15.516-17.646-27.68-29.893-36.152c-12.479-8.632-28.366-14.603-47.216-17.745c-0.055-0.009-0.109-0.019-0.164-0.028
		c-13.955-2.537-34.746-3.824-61.795-3.824H156.702V493.807z M309.36,296.398c-0.003,0-0.002,0-0.004,0H200.883
		c-6.265,0-11.344-5.079-11.344-11.344V135.081c0-6.265,5.079-11.344,11.344-11.344h107.329c26.417,0,44.313,1.341,54.712,4.1
		c0.038,0.01,0.076,0.021,0.113,0.031c17.016,4.702,30.907,14.501,41.29,29.125c10.22,14.396,15.401,31.771,15.402,51.645
		c-0.001,27.509-8.894,49.335-26.433,64.875C375.918,288.911,348.459,296.398,309.36,296.398z M212.227,273.711h97.129
		c32.85,0,56.028-5.78,68.895-17.181c12.644-11.202,18.79-26.868,18.791-47.894c-0.001-15.284-3.669-27.882-11.215-38.511
		c-7.371-10.382-16.785-17.047-28.777-20.374c-5.775-1.521-18.935-3.326-48.838-3.327h-95.985V273.711z"/>
</g>
</svg>
