<?xml version="1.0" encoding="UTF-8"?>
<svg width="580" height="580" enable-background="new 0 0 580 580" viewBox="0 0 580 580" xmlns="http://www.w3.org/2000/svg">
 <path d="m289.075 74.971c.53 0 1.08.021 1.616.025.539-.004 1.082-.025 1.615-.025z"/>
 <path d="m400.6 94.753c-21.278-8.867-72.277-19.462-109.9-19.758-37.625 0.298-88.604 10.892-109.88 19.758-21.582 8.993-35.975 17.989-40.471 40.47l-16.183 124.64v171.72h27.886v26.933c0 32.837 48.036 32.837 48.036 0v-26.933h181.22v26.933c0 32.837 48.062 32.837 48.062 0v-26.933h27.886v-171.72l-16.183-124.64c-4.5-22.48-18.892-31.477-40.474-40.47zm-178.41 11.703h137.03c13.489 0 13.489 20.223 0 20.223h-137.03c-13.489 0-13.489-20.223 0-20.223zm-46.102 271.3c-12.729 0-23.063-10.311-23.063-23.039s10.333-23.063 23.063-23.063 23.039 10.332 23.039 23.063-10.309 23.039-23.039 23.039zm112.99-104.76h-122.27c-11.97 0-14.469-8.596-13.294-17.261l12.608-90.392c1.73-10.982 5.435-18.215 19.685-18.215h209.77c14.25 0 17.979 7.233 19.709 18.215l12.608 90.392c1.176 8.665-1.349 17.261-13.318 17.261zm116.25 104.76c-12.729 0-23.063-10.311-23.063-23.039s10.334-23.063 23.063-23.063 23.038 10.332 23.038 23.063-10.309 23.039-23.038 23.039z"/>
 <path d="m492.58 87.888c-53.986-53.986-125.76-83.718-202.11-83.718s-148.13 29.731-202.11 83.718c-53.986 53.986-83.718 125.76-83.718 202.11s29.731 148.13 83.717 202.11c53.986 53.985 125.76 83.717 202.11 83.717 76.349 0 148.12-29.731 202.11-83.717 53.985-53.986 83.717-125.76 83.717-202.11s-29.73-148.13-83.716-202.11zm-202.11 462.8c-143.75 0-260.69-116.95-260.69-260.69s116.95-260.69 260.69-260.69c143.74 0 260.69 116.95 260.69 260.69s-116.95 260.69-260.69 260.69z"/>
</svg>
