<?xml version="1.0" encoding="utf-8"?>
<!-- Generator: Adobe Illustrator 16.0.0, SVG Export Plug-In . SVG Version: 6.00 Build 0)  -->
<!DOCTYPE svg PUBLIC "-//W3C//DTD SVG 1.1//EN" "http://www.w3.org/Graphics/SVG/1.1/DTD/svg11.dtd">
<svg version="1.1"
	 id="svg2" xmlns:dc="http://purl.org/dc/elements/1.1/" xmlns:cc="http://creativecommons.org/ns#" xmlns:rdf="http://www.w3.org/1999/02/22-rdf-syntax-ns#" xmlns:svg="http://www.w3.org/2000/svg" xmlns:sodipodi="http://sodipodi.sourceforge.net/DTD/sodipodi-0.dtd" xmlns:inkscape="http://www.inkscape.org/namespaces/inkscape" inkscape:output_extension="org.inkscape.output.svg.inkscape" sodipodi:docbase="s:\Data\FacilityIcons" sodipodi:docname="transport_aerodrome.svg" inkscape:version="0.46" sodipodi:version="0.32"
	 xmlns="http://www.w3.org/2000/svg" xmlns:xlink="http://www.w3.org/1999/xlink" x="0px" y="0px" width="580px" height="580px"
	 viewBox="0 0 580 580" enable-background="new 0 0 580 580" xml:space="preserve">
<sodipodi:namedview  showgrid="false" inkscape:cy="55.113521" inkscape:cx="176.72974" inkscape:zoom="0.46083856" pagecolor="#ffffff" bordercolor="#666666" guidetolerance="10.0" objecttolerance="10.0" gridtolerance="10.0" borderopacity="1.0" id="base" inkscape:current-layer="svg2" inkscape:window-y="13" inkscape:window-x="11" inkscape:pageopacity="0.0" inkscape:pageshadow="2" inkscape:window-width="1048" inkscape:window-height="947">
	</sodipodi:namedview>
<defs>
	
	
		<inkscape:perspective  inkscape:vp_z="580 : 290 : 1" inkscape:vp_y="0 : 1000 : 0" inkscape:vp_x="0 : 290 : 1" sodipodi:type="inkscape:persp3d" id="perspective2441" inkscape:persp3d-origin="290 : 193.33333 : 1">
		</inkscape:perspective>
	
		<inkscape:perspective  inkscape:vp_z="60 : 30 : 1" inkscape:vp_y="0 : 1000 : 0" inkscape:vp_x="0 : 30 : 1" sodipodi:type="inkscape:persp3d" id="perspective3452" inkscape:persp3d-origin="30 : 20 : 1">
		</inkscape:perspective>
	
		<inkscape:perspective  inkscape:vp_z="744.09448 : 526.18109 : 1" inkscape:vp_y="0 : 1000 : 0" inkscape:vp_x="0 : 526.18109 : 1" sodipodi:type="inkscape:persp3d" id="perspective4471" inkscape:persp3d-origin="372.04724 : 350.78739 : 1">
		</inkscape:perspective>
	
		<inkscape:perspective  inkscape:vp_z="12 : 6 : 1" inkscape:vp_y="0 : 1000 : 0" inkscape:vp_x="0 : 6 : 1" sodipodi:type="inkscape:persp3d" id="perspective4668" inkscape:persp3d-origin="6 : 4 : 1">
		</inkscape:perspective>
	
		<inkscape:perspective  inkscape:vp_z="32 : 16 : 1" inkscape:vp_y="0 : 1000 : 0" inkscape:vp_x="0 : 16 : 1" sodipodi:type="inkscape:persp3d" id="perspective4904" inkscape:persp3d-origin="16 : 10.666667 : 1">
		</inkscape:perspective>
	
		<inkscape:perspective  inkscape:vp_z="32 : 16 : 1" inkscape:vp_y="0 : 1000 : 0" inkscape:vp_x="0 : 16 : 1" sodipodi:type="inkscape:persp3d" id="perspective5233" inkscape:persp3d-origin="16 : 10.666667 : 1">
		</inkscape:perspective>
	
		<inkscape:perspective  inkscape:vp_z="500 : 250 : 1" inkscape:vp_y="0 : 1000 : 0" inkscape:vp_x="0 : 250 : 1" sodipodi:type="inkscape:persp3d" id="perspective5412" inkscape:persp3d-origin="250 : 166.66667 : 1">
		</inkscape:perspective>
	
		<inkscape:perspective  inkscape:vp_z="405.71429 : 204.28572 : 1" inkscape:vp_y="0 : 1000 : 0" inkscape:vp_x="0 : 204.28572 : 1" sodipodi:type="inkscape:persp3d" id="perspective5571" inkscape:persp3d-origin="202.85715 : 136.19048 : 1">
		</inkscape:perspective>
	
		<inkscape:perspective  inkscape:vp_z="128 : 64 : 1" inkscape:vp_y="0 : 1000 : 0" inkscape:vp_x="0 : 64 : 1" sodipodi:type="inkscape:persp3d" id="perspective6552" inkscape:persp3d-origin="64 : 42.666667 : 1">
		</inkscape:perspective>
	
		<inkscape:perspective  inkscape:vp_z="477 : 171.5 : 1" inkscape:vp_y="0 : 1000 : 0" inkscape:vp_x="0 : 171.5 : 1" sodipodi:type="inkscape:persp3d" id="perspective8761" inkscape:persp3d-origin="238.5 : 114.33333 : 1">
		</inkscape:perspective>
	
		<inkscape:perspective  inkscape:vp_z="105.66 : 50.309502 : 1" inkscape:vp_y="0 : 1000 : 0" inkscape:vp_x="0 : 50.309502 : 1" sodipodi:type="inkscape:persp3d" id="perspective10479" inkscape:persp3d-origin="52.830002 : 33.539668 : 1">
		</inkscape:perspective>
	
		<inkscape:perspective  inkscape:vp_z="447.94901 : 230.3335 : 1" inkscape:vp_y="0 : 1000 : 0" inkscape:vp_x="0 : 230.3335 : 1" sodipodi:type="inkscape:persp3d" id="perspective10853" inkscape:persp3d-origin="223.9745 : 153.55566 : 1">
		</inkscape:perspective>
</defs>
<g id="layer3" transform="matrix(48.14969,0,0,48.14969,-536.27327,-33.306752)" inkscape:label="Layout" display="none">
	<rect id="rect4134" x="1" y="1" display="inline" fill="none" stroke="#757575" stroke-width="0.1" width="10" height="10"/>
	<rect id="rect4136" x="2" y="2" display="inline" fill="none" stroke="#757575" stroke-width="0.1" width="8" height="8"/>
</g>
<path fill="param(fill) #FFF" stroke="param(outline) #000" stroke-width="param(outline-width) 1" d="M536.217,384.28c-0.009-3.236,0.208-6.665,0.438-10.27
	c0.771-12.148,1.646-25.918-6.153-38.41c-0.687-1.1-1.58-2.056-2.632-2.814c-20.864-15.05-43.24-28.091-64.88-40.703
	c-14.432-8.411-29.354-17.109-43.533-26.244c-0.09-0.058-0.18-0.114-0.271-0.168c-28.777-17.267-55.657-33.458-82.021-49.405
	c-0.837-7.729-0.503-15.749-0.152-24.16c0.361-8.64,0.733-17.568-0.191-26.656c-0.027-8.041,0.112-15.964,0.247-23.632
	c0.411-23.459,0.801-45.618-3.242-70.23c-0.14-0.845-0.386-1.668-0.734-2.451c-7.122-15.975-23.892-26.708-41.728-26.708
	c-0.511,0-1.02,0.009-1.53,0.027c-13.175-0.164-25.74,6.275-34.505,17.538c-8.992,11.555-12.542,26.236-9.626,39.541
	c-0.062,14.939-0.021,29.525,0.017,43.643c0.067,24.682,0.131,48.078-0.299,73.121c-6.607,4.938-13.988,9.021-21.733,13.303
	c-8.199,4.534-16.672,9.22-24.567,15.185c-17.119,10.681-34.75,21.275-51.805,31.524c-29.652,17.818-60.314,36.242-89.562,55.877
	c-1.399,0.939-2.538,2.217-3.311,3.713c-7.173,13.888-6.351,28.664-5.625,41.7c0.389,6.994,0.757,13.601-0.004,19.755
	c-0.128,1.035-0.093,2.084,0.103,3.108c2.105,11.003,12.093,18.688,24.287,18.688c5.039,0,9.914-1.391,13.938-3.946
	c25.466-7.898,51.091-16.483,75.886-24.791c27.577-9.24,55.971-18.753,84.307-27.37c0.048,5.342,0.139,10.652,0.228,15.868
	c0.209,12.229,0.425,24.874,0.062,37.204c-0.179,2.628-0.16,5.19-0.142,7.672c0.023,3.146,0.045,6.157-0.357,8.604
	c-4.143,4.151-9.332,7.75-14.788,11.535c-10.383,7.201-22.152,15.363-28.254,29.261c-0.261,0.595-0.463,1.213-0.604,1.847
	c-1.956,8.78-1.688,17.277-1.428,25.495c0.146,4.615,0.283,8.975,0.021,13.182c-0.036,0.577-0.022,1.157,0.042,1.732
	c1.385,12.395,12.123,22.478,23.937,22.478c2.883,0,5.698-0.584,8.378-1.735c5.75-1.824,11.651-3.592,17.363-5.304
	c11.071-3.317,22.519-6.747,33.651-10.809c2.321-0.846,4.822-1.274,7.435-1.274c3.813,0,7.948,0.929,11.957,2.685
	c0.356,0.156,0.723,0.292,1.095,0.405c4.537,1.385,9.046,2.953,13.82,4.614c14.827,5.158,30.22,10.495,46.877,10.267
	c1.42-0.02,2.819-0.341,4.105-0.943c15.56-7.291,14.018-24.621,12.931-34.443c1.231-9.446,3.562-33.249-14.317-45.179
	c-4.032-3.232-8.179-6.337-12.192-9.341c-6.608-4.947-12.905-9.66-18.678-14.856l-0.006-0.23
	c-0.571-22.898-1.158-46.449-0.34-68.866c6.422,2.075,12.84,4.075,19.129,6.035c11.92,3.716,24.246,7.558,36.129,11.773
	c0.071,0.025,0.144,0.05,0.216,0.073c9.5,3.129,19.163,6.394,28.508,9.55c29.875,10.093,60.767,20.528,91.977,28.464
	c1.348,0.342,2.752,0.401,4.124,0.17c6.371-1.072,11.758-4.811,15.168-10.525C537.4,401.711,538.46,392.402,536.217,384.28z
	 M516.204,398.202c-0.101,0.168-0.196,0.309-0.288,0.425c-29.436-7.648-58.889-17.599-87.405-27.231
	c-9.346-3.157-19.008-6.422-28.546-9.563c-12.214-4.33-24.69-8.219-36.757-11.979c-10.269-3.2-20.886-6.51-31.159-10.038
	c-2.949-1.016-6.199-0.593-8.792,1.134c-2.594,1.728-4.234,4.565-4.437,7.676c-1.757,27.081-1.04,55.84-0.347,83.651l0.11,4.431
	c0.065,2.629,1.163,5.126,3.056,6.951c7.451,7.185,15.623,13.302,23.526,19.218c4.187,3.134,8.141,6.094,12.018,9.216
	c0.278,0.225,0.568,0.434,0.869,0.626c5.831,3.745,7.618,12.396,5.624,27.228c-0.108,0.808-0.118,1.626-0.027,2.437l0.057,0.511
	c0.512,4.582,1.247,11.171-0.412,13.84c-12.151-0.481-24.231-4.684-36.975-9.117c-4.569-1.59-9.289-3.231-14.017-4.688
	c-6.432-2.738-12.966-4.126-19.427-4.126c-4.955,0-9.759,0.835-14.285,2.483c-10.586,3.862-21.748,7.207-32.542,10.441
	c-5.969,1.788-12.142,3.638-18.223,5.574c-0.418,0.133-0.827,0.293-1.224,0.479c-0.27,0.127-0.438,0.144-0.554,0.144
	c-1.226,0-3.398-1.86-3.954-4.108c0.233-4.747,0.086-9.401-0.056-13.914c-0.219-6.926-0.425-13.487,0.755-19.539
	c3.978-8.234,11.86-13.702,20.94-19.999c6.879-4.771,13.992-9.705,19.937-16.373c0.932-1.046,1.634-2.275,2.061-3.61
	c1.831-5.728,1.787-11.577,1.749-16.738c-0.017-2.259-0.033-4.392,0.106-6.303c0.01-0.141,0.017-0.281,0.021-0.422
	c0.386-12.864,0.164-25.818-0.05-38.346c-0.163-9.477-0.33-19.276-0.227-28.847c0.034-3.17-1.437-6.168-3.965-8.081
	c-2.528-1.915-5.816-2.515-8.855-1.62c-32.928,9.681-65.927,20.736-97.839,31.429c-25.16,8.43-51.177,17.146-76.901,25.1
	c-1.127,0.349-2.184,0.894-3.122,1.61c-0.823,0.63-2.08,0.991-3.447,0.991c-1.345,0-3.437-0.462-4.293-1.647
	c0.65-7.143,0.258-14.184-0.123-21.015c-0.59-10.596-1.149-20.65,2.416-29.237c28.147-18.787,57.754-36.578,86.414-53.799
	c17.255-10.369,35.098-21.09,52.482-31.942c0.264-0.165,0.521-0.342,0.768-0.531c6.837-5.214,14.445-9.421,22.5-13.876
	c9.564-5.289,19.455-10.759,28.381-18.224c2.219-1.856,3.526-4.583,3.583-7.476c0.529-27.063,0.461-51.942,0.389-78.281
	c-0.04-14.455-0.081-29.402-0.012-44.682c0.003-0.843-0.099-1.683-0.306-2.5c-1.925-7.596,0.264-16.663,5.711-23.663
	c4.858-6.243,11.534-9.823,18.315-9.823l0.355,0.003c0.2,0.003,0.397,0.001,0.594-0.007c9.844-0.406,19.608,5.31,23.936,13.761
	c3.513,22.307,3.146,43.182,2.759,65.256c-0.14,7.933-0.283,16.136-0.248,24.565c0.002,0.342,0.021,0.684,0.057,1.024
	c0.836,7.791,0.503,15.769,0.15,24.217c-0.443,10.626-0.901,21.615,1.044,32.805c0.496,2.85,2.2,5.345,4.675,6.842
	c27.647,16.731,55.785,33.684,86.012,51.819c14.513,9.344,29.584,18.128,44.159,26.623c20.607,12.011,41.895,24.417,61.488,38.381
	c3.44,6.854,2.88,15.687,2.288,25c-0.276,4.345-0.562,8.839-0.454,13.329c0.024,1.016,0.203,2.021,0.53,2.982
	C517.75,391.934,517.496,396.038,516.204,398.202z"/>
</svg>
