/* XPM */
static char *add[]={
"22 22 6 1",
". c None",
"# c #000080",
"c c #0000c0",
"b c #a0a0a0",
"d c #c0ffc0",
"a c #ffffff",
"......................",
"......................",
"............##a.......",
"............##a.......",
"............##a.......",
".........########a....",
".........########a....",
"............##aaaa....",
"............##a.......",
"............##a.......",
"............aaa.......",
"......................",
"........bbbbbbbbbbbbb.",
".......bcdddddddccdba.",
"......bdccddddccddba..",
".....bdddccccccddba...",
"....bddddcddddddba....",
"...bddddcddddddba.....",
"..bddddccdddddba......",
".bbbbbbbbbbbbba.......",
".aaaaaaaaaaaaa........",
"......................"};
