/* XPM */
static char * add_raster_xpm[] = {
"22 22 70 1",
" 	c None",
".	c #000080",
"+	c #FFFFFF",
"@	c #A0A0A0",
"#	c #FFE6E6",
"$	c #FFCCCC",
"%	c #FFB2B2",
"&	c #FF9999",
"*	c #FF8080",
"=	c #FF6666",
"-	c #FF4D4D",
";	c #FF3333",
">	c #FF1919",
",	c #FF0000",
"'	c #E60000",
")	c #FEE6FF",
"!	c #FDCDFF",
"~	c #FCB3FF",
"{	c #FB9AFF",
"]	c #FB80FF",
"^	c #FA67FF",
"/	c #F94DFF",
"(	c #F834FF",
"_	c #F71AFF",
":	c #F601FF",
"<	c #DD00E6",
"[	c #E6E8FF",
"}	c #CDD0FF",
"|	c #B3B8FF",
"1	c #9AA1FF",
"2	c #8089FF",
"3	c #6771FF",
"4	c #4D5AFF",
"5	c #3442FF",
"6	c #1A2AFF",
"7	c #0112FF",
"8	c #0011E6",
"9	c #E7FFE6",
"0	c #CDFFCC",
"a	c #B4FFB2",
"b	c #9BFF99",
"c	c #82FF80",
"d	c #6AFF66",
"e	c #51FF4D",
"f	c #38FF33",
"g	c #1FFF19",
"h	c #06FF00",
"i	c #05E600",
"j	c #FFFFE6",
"k	c #FEFFCD",
"l	c #FEFFB3",
"m	c #FEFF9A",
"n	c #FEFF80",
"o	c #FDFF67",
"p	c #FDFF4D",
"q	c #FDFF34",
"r	c #FCFF1A",
"s	c #FCFF01",
"t	c #E3E600",
"u	c #FFF6E6",
"v	c #FFEECD",
"w	c #FFE5B3",
"x	c #FFDC9A",
"y	c #FFD480",
"z	c #FFCB67",
"A	c #FFC24D",
"B	c #FFBA34",
"C	c #FFB11A",
"D	c #FFA801",
"E	c #E69700",
"                      ",
"                      ",
"            ..+       ",
"            ..+       ",
"            ..+       ",
"         ........+    ",
"         ........+    ",
"            ..++++    ",
"            ..+       ",
"            ..+       ",
"            +++       ",
"                      ",
"        @@@@@@@@@@@@@ ",
"       @#$%&*=-;>,'@+ ",
"      @)!~{]^/(_:<@+  ",
"     @[}|12345678@+   ",
"    @90abcdefghi@+    ",
"   @jklmnopqrst@+     ",
"  @uvwxyzABCDE@+      ",
" @@@@@@@@@@@@@+       ",
" +++++++++++++        ",
"                      "};
