/* XPM */
static char *addlayericon[]={
"22 22 3 1",
". c None",
"# c #000080",
"a c #ffffff",
"......................",
"..........##a.........",
"..........##aa........",
"..........##aa........",
"..........##aa........",
"..........##aa........",
"..........##aa........",
"..........##aa........",
"..........##aa........",
"..##################a.",
"..##################a.",
"..aaaaaaaa##aaaaaaaaa.",
"..aaaaaaaa##aaaaaaaaa.",
"..........##aa........",
"..........##aa........",
"..........##aa........",
"..........##aa........",
"..........##aa........",
"..........##aa........",
"..........##aa........",
"..........aaaa........",
"..........aaa........."};
