/* XPM */
static const char *cursorzoomin_mask[]={
"32 32 2 1",
". c None",
"# c #000000",
"................................",
"................................",
"................................",
"........#####...................",
"......#########.................",
".....###..#..###................",
".....##...#...##................",
"....##....#....##...............",
"....##....#....##...............",
"....##.#######.##...............",
"....##....#....##...............",
"....##....#....##...............",
".....##...#...###...............",
".....###..#..####...............",
"......###########...............",
"........##########..............",
"..............#####.............",
"...............#####............",
"................#####...........",
".................#####..........",
"..................#####.........",
"...................####.........",
"....................###.........",
"................................",
"................................",
"................................",
"................................",
"................................",
"................................",
"................................",
"................................",
"................................"};
