/* XPM */
static char *identify[]={
"16 16 3 1",
"# c None",
"a c #000000",
". c #ffffff",
".###############",
"...##########.##",
".aa..#######.a.#",
"#.aaa..######.##",
"#.aaaaa..#######",
"##.aaaaaa..#...#",
"##.aaaaaa....a.#",
"##.aaaaa.###.a.#",
"###.aaaaa.##.a.#",
"###.aa.aaa.#.a.#",
"####..#..aa..a.#",
"####.####.aa.a.#",
"##########.aa..#",
"###########.aa..",
"############.a.#",
"#############.##"};
