/* XPM */
static char *identify[]={
"22 22 5 1",
". c None",
"b c #000000",
"# c #0000c0",
"c c #00c0c0",
"a c #00ffff",
"......................",
"........######........",
"......##aaaaaa##......",
"....##aaaaaaaaaa#.....",
"...#aaaaabbaaaaaa#....",
"..#aaaaaabbaaaaaa#....",
"..#aaaaaaaaaaaaaac#...",
".#aaaaaaabbaaaaaac#...",
".#aaaaaaabbaaaaaacc#..",
".#aaaaaaabbaaaaaacc#..",
".#aaaaaaabbaaaaaacc#..",
".#aaaaaaabbaaaaaacc#..",
".#aaaaaaabbaaaaaacc#..",
"..#aaaaaabbaaaaaccc#..",
"..#aaabbbbbbbbccccc#..",
"...#aabbbbbbbbcccc#...",
"...#aaaaaaaaacccc#....",
"....#aaaaaccccc##.....",
".....##cccccc##.......",
".......######.........",
"......................",
"......................"};
