/* XPM */
static char *open[]={
"24 24 100 2",
"Qt c None",
".# c #000000",
".a c #093759",
"#H c #164774",
"#F c #194b78",
"#D c #1d507c",
"#E c #20537f",
"#B c #245783",
"#C c #275b86",
"#y c #285c87",
"#z c #2b5f8a",
".X c #2c7097",
"#A c #2d628c",
".J c #2d7198",
"#v c #2e648e",
".8 c #2f7399",
".Y c #30749a",
"#w c #316791",
".K c #31759b",
"#m c #326892",
".9 c #32779c",
".Z c #33789e",
".R c #343434",
"#x c #346a93",
"#n c #356b95",
".L c #35799f",
".C c #367b9f",
".w c #367d9b",
".0 c #377ca0",
"#o c #386f98",
".M c #387ea1",
"#e c #397099",
".D c #3a7fa2",
".B c #3b5b70",
"#p c #3b729a",
".1 c #3b80a4",
"#f c #3c739c",
".N c #3c82a5",
"#. c #3d759d",
".E c #3d83a6",
".z c #3e84a7",
"#g c #3f779f",
".O c #3f86a7",
".F c #4187a8",
".2 c #4288a9",
".A c #4288aa",
".P c #438aab",
".G c #448bac",
".Q c #468dad",
".x c #4987a5",
".y c #4a88a5",
".t c #4b88a5",
".u c #4c89a5",
".v c #4d89a6",
".q c #4d8aa6",
".r c #4e8aa6",
".n c #4f8ba6",
".o c #508ba6",
".p c #518ca7",
".j c #528ca7",
".s c #528da7",
".f c #538da7",
".k c #548da7",
".g c #548ea7",
".l c #558ea7",
".h c #558ea8",
".d c #568ea8",
".i c #568fa8",
".b c #578fa8",
".m c #588fa8",
".c c #5890a8",
".e c #5990a8",
"#G c #5b5b5b",
"#u c #727272",
"#t c #bebebe",
"#s c #c0c0c0",
"#l c #c2c2c2",
"#r c #c4c4c4",
"#k c #c7c7c7",
"#q c #c9c9c9",
"#j c #cbcbcb",
"#d c #cdcdcd",
"#i c #d0d0d0",
"#c c #d2d2d2",
"#h c #d4d4d4",
"#b c #d7d7d7",
".7 c #d9d9d9",
"#a c #dbdbdb",
".6 c #dddddd",
"## c #e0e0e0",
".5 c #e2e2e2",
".W c #e4e4e4",
".4 c #e7e7e7",
".V c #e9e9e9",
".3 c #ebebeb",
".U c #ededed",
".I c #f0f0f0",
".T c #f2f2f2",
".H c #f4f4f4",
".S c #f7f7f7",
"QtQtQtQtQtQtQtQtQtQtQtQtQtQtQtQtQt.#.#.#.#QtQtQt",
"QtQtQtQtQtQt.a.aQtQtQtQtQtQt.#Qt.#.#.#.#.#.#.#Qt",
"QtQtQtQtQt.a.b.c.a.aQtQtQtQt.#.#.#.#QtQtQtQt.#.#",
"QtQtQtQtQt.a.d.b.c.e.a.aQtQt.#.#.#QtQtQtQtQtQt.#",
"QtQtQtQt.a.f.g.h.i.b.c.e.aQt.#.#.#.#QtQtQtQtQt.#",
"QtQtQtQt.a.j.f.k.l.d.b.m.a.#QtQtQtQtQtQtQtQtQt.#",
"QtQtQt.a.n.o.p.j.f.k.h.i.b.a.aQtQtQtQtQtQtQt.#Qt",
"QtQtQt.a.q.r.n.f.k.s.f.g.h.i.b.a.aQtQtQtQtQt.#Qt",
"QtQt.a.t.u.v.o.p.j.w.w.f.k.l.d.b.c.a.aQtQt.#QtQt",
"QtQt.a.x.y.q.r.n.w.z.A.w.w.f.g.h.i.b.c.aQtQtQtQt",
"Qt.a.B.B.t.u.v.w.C.D.E.F.G.w.w.k.l.d.b.a.#QtQtQt",
"Qt.a.H.I.B.B.w.J.K.L.M.N.O.P.Q.w.w.k.a.#.#QtQtQt",
".R.S.T.U.V.W.B.B.X.Y.Z.0.1.z.2.Q.Q.w.a.#QtQtQtQt",
".R.H.I.3.4.5.6.7.B.B.8.9.C.D.E.F.G.a#..a.aQtQtQt",
".R.T.U.V.W###a#b#c#d.B.B.K.L.M.N.O.a#e#f#g.aQtQt",
".R.I.3.4.5.6.7#h#i#j#k#l.B.B.Z.0.a#m#n#o#p.a.#Qt",
"Qt.R.R.W###a#b#c#d#q#r#s#t#u.B.B.a#v#w#x.a.#.#Qt",
"QtQt.#.R.R.7#h#i#j#k#l#u#u#t#t.a#y#z#A.a.#.#QtQt",
"QtQtQtQt.#.R.R#d#q#u#u#t#t#u#u.a#B#C.a.#.#QtQtQt",
"QtQtQtQtQtQt.#.R.R#t#t#u#u#t.R#D#E.a.#.#QtQtQtQt",
"QtQtQtQtQtQtQtQt.#.R.R#t#t#u.R#F.a.#.#QtQtQtQtQt",
"QtQtQtQtQtQtQtQtQtQt.#.R.R#G#H.a.#.#QtQtQtQtQtQt",
"QtQtQtQtQtQtQtQtQtQtQtQt.#.R.R.#.#QtQtQtQtQtQtQt",
"QtQtQtQtQtQtQtQtQtQtQtQtQtQtQtQtQtQtQtQtQtQtQtQt"};
