/* XPM */
static const char * point_layer_xpm[] = {
"16 16 14 1",
" 	c None",
".	c #60EE0E",
"+	c #60EF0E",
"@	c #60ED0E",
"#	c #5FEE0E",
"$	c #5DE70E",
"%	c #5FEB0E",
"&	c #5CE70D",
"*	c #5DE70D",
"=	c #5AE00D",
"-	c #5CE70E",
";	c #60EC0E",
">	c #58DB0D",
",	c #5BE40E",
"                ",
"                ",
"                ",
"                ",
"                ",
"      .++       ",
"     +++++      ",
"    +++++++     ",
"    +++++@+     ",
"    ##.+$%+     ",
"     &*=-;      ",
"      >,%       ",
"                ",
"                ",
"                ",
"                "};