/* XPM */
static const char *point_layer_xpm[]={
"16 16 6 1",
". c None",
"c c #008000",
"b c #54d10c",
"d c #5fee0e",
"# c #60ee0e",
"a c #60ef0e",
"................",
"................",
"................",
"................",
"................",
"......#ab.......",
".....aaabc......",
"....aaaabcc.....",
"....aaaabbc.....",
"....dd#abcc.....",
".....bcbcc......",
"......ccc.......",
"................",
"................",
"................",
"................"};
