/* XPM */
static const char *polygon_layer_xpm[]={
"16 16 3 1",
". c None",
"a c #00c000",
"# c #ddfcc9",
".........###....",
".......######...",
"....####aaa##...",
"..#####aaaaa##..",
"..##aaaaaaaa##..",
".##aaaaaaaa###..",
".##aaaaaaaaa###.",
".###aaaaaaaaa##.",
"...###aaaaaaaa##",
"....##aaaaaaaa##",
"....##aaaaaaaa##",
".....##aaaaaa###",
".....###aaaa####",
"......########..",
"........#####...",
"................"};
