/* XPM */
static const char * polygon_layer_xpm[] = {
"16 16 3 1",
" 	c None",
".	c #D86652",
"+	c #ddfcc9",
"                ",
"          ..    ",
"   .... ......  ",
"   .++...++++.  ",
"   ..++++++++.  ",
"    ...++++..   ",
"      .++++.    ",
"    ..+++++..   ",
"   ..+++++++.   ",
"  ..++++++++..  ",
"  .++++++++...  ",
"  .++...+++.    ",
"  .......+++.   ",
"        .....   ",
"          ..    ",
"                "};
