/* XPM */
static const char * qgis_xpm[] = {
"16 16 56 1",
" 	c None",
".	c #FFFFFF",
"+	c #F5F7FE",
"@	c #D5DDFD",
"#	c #C7D0F5",
"$	c #D6DBEE",
"%	c #F6F6F7",
"&	c #D6E0FE",
"*	c #E6EDFF",
"=	c #D3DFFF",
"-	c #8EA2F6",
";	c #697AC3",
">	c #D3D6E1",
",	c #FEFFFF",
"'	c #EFF3FD",
")	c #95A1D9",
"!	c #445393",
"~	c #EEEFF1",
"{	c #FBFBFB",
"]	c #BEC2D6",
"^	c #4F5B92",
"/	c #A9ADBD",
"(	c #FDFEFF",
"_	c #F9FBFE",
":	c #ECECEF",
"<	c #B3B6C3",
"[	c #4F5882",
"}	c #868A9D",
"|	c #EAEBEE",
"1	c #F4F5F6",
"2	c #FAFBFD",
"3	c #DFE5FC",
"4	c #B1BDF0",
"5	c #AAB2D0",
"6	c #8389A3",
"7	c #323C65",
"8	c #A8ABBA",
"9	c #F5F5F7",
"0	c #B2B5C3",
"a	c #D1D3D8",
"b	c #A5AFD6",
"c	c #5F72C3",
"d	c #4B5CA3",
"e	c #323E74",
"f	c #30385C",
"g	c #D3D5E1",
"h	c #666E93",
"i	c #5D6792",
"j	c #3E4B82",
"k	c #2A3565",
"l	c #31395C",
"m	c #CBCCD4",
"n	c #F0F0F1",
"o	c #B5B6BD",
"p	c #93949B",
"q	c #B7B7BA",
"................",
"................",
"................",
"................",
"......+@#$%.....",
"......&*=-;>....",
"........,')!~...",
".........{]^/...",
".......(_:<[}...",
"....|12345678...",
"....90abcdef~...",
".....ghijklm....",
"......nopqn.....",
"................",
"................",
"................"};
