/* XPM */
static const char *qgis_xpm[]={
"48 48 652 2",
"aa c None",
"Qt c None",
"eN c #002500",
"#W c #002a00",
"cP c #002b00",
"aX c #002c00",
"#i c #002f00",
".4 c #003000",
"aw c #003300",
"bK c #003600",
"#9 c #003800",
"bb c #003c00",
".t c #003e00",
"cw c #003f00",
".H c #004100",
".l c #004200",
".M c #004300",
"aI c #004400",
".Q c #004500",
"b2 c #004700",
".3 c #004900",
"bt c #004c00",
"gn c #004d00",
"#V c #004e00",
"hO c #005000",
"aW c #005100",
".g c #005200",
".P c #005400",
"hg c #005500",
"av c #005600",
"gY c #005800",
"#8 c #005900",
"#B c #005b00",
".B c #005c00",
".s c #005d00",
".L c #005f00",
".A c #006000",
"#A c #006200",
".z c #006300",
".2 c #006400",
"bs c #006600",
".r c #006700",
".k c #006900",
"au c #006a00",
"ba c #006d00",
".y c #006f00",
".q c #007000",
".1 c #007200",
"b1 c #007300",
"br c #007500",
"e8 c #012000",
"aj c #012800",
"bu c #012900",
"he c #013000",
"hf c #013400",
"hd c #013600",
".5 c #013900",
".G c #014c00",
"f7 c #016300",
".x c #016a00",
"aV c #016f00",
".j c #017200",
"cO c #017300",
"b3 c #022801",
"hh c #023501",
"hc c #023f00",
"at c #026d00",
".p c #026f00",
"#h c #027000",
"gE c #027200",
"cf c #027300",
"#U c #027a00",
"eq c #032001",
"aJ c #032700",
"i. c #033800",
"hA c #033801",
"h1 c #033c01",
"hP c #033c02",
"gX c #036600",
"f6 c #046000",
".O c #046a00",
".f c #046c00",
"bJ c #047200",
"c4 c #047500",
"cx c #052703",
"#C c #052803",
"go c #053401",
"e7 c #053901",
"bc c #062403",
"hN c #065100",
"a. c #072203",
"cv c #076200",
"b# c #076400",
"gm c #076700",
"eO c #092205",
"h9 c #0a4701",
"aH c #0a5d00",
"#7 c #0a7001",
"dj c #0a8300",
"gF c #0b2c07",
"ep c #0c3b03",
"#l c #0c4202",
"c5 c #0e2e08",
".F c #0f4803",
".i c #0f6400",
"bL c #102d0a",
".o c #106700",
".6 c #113d08",
".0 c #115b00",
".w c #115f00",
"fo c #123704",
"hb c #124e03",
"f8 c #137303",
"fp c #142a0e",
"eM c #144904",
"fP c #147303",
"ax c #153600",
"gW c #155100",
"ai c #155901",
".K c #155b02",
"gD c #156000",
"aU c #164301",
"h0 c #164403",
"b0 c #166601",
"ig c #173303",
"#j c #18320e",
"#m c #183c06",
".R c #183e0c",
"bq c #185c02",
".b c #185f00",
"cg c #193212",
"cN c #195801",
"fO c #1b4105",
"hz c #1d4a08",
"if c #1e2d08",
".h c #1e4510",
"aY c #1f3404",
".e c #205401",
".n c #214a02",
"di c #216703",
"dk c #218904",
".m c #223f14",
"gZ c #243d1b",
"gl c #244702",
"#z c #249a00",
".N c #254513",
"cQ c #26391f",
"hM c #283710",
"#X c #283c20",
"hw c #293520",
"hx c #2b3624",
"e9 c #2c3b24",
".u c #2d471f",
"er c #2e3623",
"ak c #2f4409",
".I c #304c1f",
"bv c #324227",
"b4 c #333f2b",
".C c #344d23",
"ii c #353520",
"#F c #364119",
"#6 c #364915",
"hy c #37432b",
".c c #375d10",
"#G c #394315",
"hv c #39472f",
".v c #395204",
"hi c #3b4a2f",
"#k c #3b5422",
"dn c #3b730d",
"cy c #3c4236",
"ih c #3f4728",
".J c #414a29",
"i# c #42542e",
".E c #425b14",
"#Q c #43433f",
"#D c #434c3d",
"dl c #438e08",
"fQ c #439b0a",
"ch c #444541",
"dm c #449109",
"fq c #454841",
"#Z c #474334",
"#H c #484837",
"#E c #48483f",
"fH c #494944",
"#P c #494a47",
"#n c #494d3c",
"#Y c #4a4c48",
"gp c #4a5830",
"#T c #4a880a",
".S c #4c4a2c",
"dE c #4c4d24",
"eP c #4c4e47",
"ij c #4d4a3c",
"a# c #4d5144",
"fh c #4e4e35",
"gG c #4e524a",
"c6 c #4e544a",
"hu c #4e5944",
"gH c #50504d",
"ah c #50504e",
"hB c #505d43",
"h2 c #50603f",
"fY c #51491e",
"dN c #515439",
"ha c #515c19",
".D c #52502c",
"fX c #525423",
"dq c #525923",
"bU c #545839",
"gC c #555841",
"bM c #555b50",
"hQ c #556347",
"dD c #56554e",
"cF c #565648",
"eZ c #565655",
".Z c #565b28",
"dV c #565c32",
"fG c #565c43",
"do c #566736",
"am c #585b43",
"bC c #59594e",
"aK c #597304",
"#R c #5b5b51",
"dU c #5b5b56",
"cX c #5b5c4c",
"co c #5b5d4d",
"c7 c #5b602e",
"bd c #5b642c",
"d6 c #5b7a15",
"#g c #5b890e",
"f9 c #5b9512",
"#5 c #5c5c5b",
"gK c #5c5d56",
"gV c #5d5f59",
".d c #5d6051",
"dp c #5d6052",
"dF c #5d8c16",
"b. c #5f5f58",
"bp c #5f5f5c",
"hZ c #5f5f5d",
"cz c #5f6048",
"ci c #606047",
"ie c #60605f",
"fz c #60623e",
"cG c #60623f",
"cR c #606442",
"fF c #607220",
"gk c #625f49",
"#4 c #626252",
"as c #62625c",
".# c #626327",
"ea c #62634c",
"gI c #63635f",
"ht c #636362",
"g7 c #636644",
"a4 c #636c2e",
"eo c #638314",
"aT c #646459",
"gL c #64645f",
"ia c #646654",
"b5 c #646948",
".7 c #666336",
"db c #666758",
"gJ c #666762",
"eQ c #66693e",
"fN c #676959",
".a c #676a42",
"gB c #67703f",
"h8 c #696963",
"#O c #696964",
"#M c #696a4e",
"f5 c #696c4e",
"ca c #696d43",
"g0 c #69704a",
"eD c #6a6a63",
"hY c #6a6c4c",
"c# c #6a6c5b",
"id c #6c6d62",
"fg c #6c6d67",
"es c #6c6f4d",
"ag c #6c6f56",
"#N c #6d6c63",
"hL c #6d6d5d",
"fy c #6d6f63",
"dw c #6d6f64",
"ef c #6d7058",
".T c #6d7234",
"aA c #6d7251",
"d7 c #6d801f",
"aG c #6f7056",
"bT c #707360",
"bI c #707551",
"al c #707645",
"hC c #70783e",
"eE c #727543",
"dO c #727630",
"ff c #727b44",
"gA c #736c45",
"c3 c #737564",
"ex c #73785b",
"gS c #738133",
"cM c #757667",
"dh c #757a5b",
"g6 c #76703d",
"a3 c #76765d",
"cu c #767a67",
"h# c #787a75",
"fZ c #7a6f27",
"#t c #7a7b45",
"fx c #7a8539",
"dT c #7b7e49",
"#u c #7b814a",
".Y c #7b8534",
"dx c #7b8835",
"dC c #7d8152",
"#S c #7d8154",
"ib c #7e8166",
"hs c #7e8356",
"fW c #7e8b3d",
"fr c #7e8e2a",
"ar c #808847",
"bo c #80894d",
"fM c #808e33",
".U c #818332",
"bN c #818958",
"bj c #81912b",
"aB c #83853f",
".V c #83882b",
".X c #838e32",
"d5 c #83a119",
"dG c #83b813",
"ic c #858670",
"#v c #858c4c",
"#3 c #858e38",
"fI c #858e39",
"#s c #868536",
"gu c #868f41",
"gq c #868f56",
".W c #86942c",
"eC c #88913e",
"a9 c #89913e",
"#L c #899236",
"e6 c #89ac18",
"hK c #8b8830",
"gM c #8b945c",
"gt c #8b9541",
"gR c #8c8135",
"el c #8c8b52",
"d0 c #8c914a",
"h3 c #8c944c",
"fA c #8c9f26",
"eb c #8e922f",
"gv c #8e9239",
"cL c #8e9b23",
"eJ c #8e9e2d",
"ay c #8ea50d",
"d2 c #8f8e44",
"c2 c #8f8f20",
"bi c #8f945d",
"dM c #8f9a41",
"gs c #8f9d45",
"ab c #918f6a",
"dv c #919a3c",
"hR c #919d44",
"gr c #919d4e",
"bw c #929a60",
"h. c #929d52",
"gU c #929e54",
"ct c #92a225",
"ew c #949d4e",
"fn c #949e15",
"fi c #958f34",
"gj c #97881b",
"aS c #979730",
"h7 c #97a142",
"bB c #97a249",
"ce c #98a924",
"dg c #9aa41d",
"eU c #9aa647",
"dc c #9aa935",
"d1 c #9b977d",
"aO c #9ba129",
"aN c #9ba450",
".8 c #9d9734",
"ek c #9d9f2f",
"f4 c #9dab20",
"e# c #9e9f3e",
"#w c #9ea848",
"f. c #9eaf2c",
"gz c #9f7a0e",
"em c #9f9e30",
"cE c #9fa22b",
"e0 c #9fa544",
"bZ c #9fb024",
"eY c #9fb228",
"bD c #9fb22d",
"eL c #9fb618",
"et c #a2a633",
"aZ c #a2a80e",
"cn c #a2a92e",
"cW c #a2af2e",
"da c #a2af33",
"bS c #a2b13b",
"af c #a4b130",
"g. c #a4be21",
"ee c #a5ac28",
"hX c #a5af33",
"d8 c #a5b428",
"fV c #a5b63c",
"d3 c #a5b822",
"f0 c #a69b20",
"eg c #a6b13e",
"#r c #a8a526",
"c. c #a8b534",
"dB c #a8ba18",
"fR c #a8cf18",
"hj c #a9b642",
"az c #abb933",
"cY c #abba2c",
"gg c #ac7301",
"gh c #ad6900",
"gy c #ad6d00",
"ey c #afbe2e",
"bH c #afc31e",
"gd c #b0ac20",
"aF c #b0b829",
"a2 c #b1b234",
"dZ c #b1bd13",
"eK c #b1c320",
"eT c #b1c52b",
"d4 c #b1c918",
"g5 c #b2a61c",
"g8 c #b2c335",
"fe c #b2c620",
"gi c #b48602",
"fj c #b4a911",
"gc c #b4be25",
"dL c #b4c42b",
"#f c #b5c332",
"a5 c #b5c81b",
"gT c #b5c830",
"#y c #b5ce12",
"dH c #b5cf18",
"gf c #b8ad15",
"ej c #b8ba0e",
"en c #b8be19",
"hr c #b8bf23",
"bV c #b8c92e",
"cj c #b9bd34",
"eI c #b9ce19",
"f1 c #ba9d08",
".9 c #bab627",
"cA c #babd35",
"h4 c #bac544",
"#x c #bac735",
"gw c #bbb913",
"ge c #bbbe1e",
"eR c #bbcd25",
"fw c #bbd11d",
"#a c #bdc424",
"b6 c #bdc934",
"gb c #bdd226",
"ho c #beb226",
"hp c #beb53f",
"cH c #bec42a",
"h6 c #bec73d",
"dK c #bed31b",
"fU c #bed41f",
"gx c #bf9b02",
"dS c #bfc51a",
"#b c #bfce2a",
"dW c #bfd228",
"g# c #bfd622",
"cS c #c0cd32",
"e4 c #c0d218",
"an c #c1c759",
"fE c #c1c915",
"bh c #c1cd21",
"bO c #c1d22c",
"g1 c #c1d337",
"eH c #c1d50e",
"fL c #c1d817",
"cp c #c3c826",
"#o c #c3c82c",
"ev c #c3cd1f",
"be c #c3cf1d",
"dI c #c3d118",
"cb c #c3d328",
"dJ c #c3d518",
"fB c #c3d615",
"ga c #c3db23",
"c8 c #c4d227",
"#c c #c4d22d",
"dr c #c4d51d",
"fb c #c5d91f",
"gQ c #c6c012",
"## c #c6c721",
"e2 c #c6d310",
"bn c #c6da1b",
"gN c #c6da26",
"bG c #c6dc0e",
"eV c #c6dc20",
"e. c #c7cd20",
"#e c #c7d52c",
"#K c #c7d624",
"fJ c #c7d81b",
"bx c #c7da26",
"aC c #c8ce1f",
"h5 c #c8d23e",
"e1 c #c8d321",
"bl c #c8df0d",
"eF c #c9cb29",
"#. c #c9cd23",
"aP c #c9d210",
"g9 c #c9dc24",
"eB c #c9dd17",
"bk c #c9df15",
"f2 c #cbbe07",
"dP c #cbd319",
"d9 c #cbd81e",
"bY c #cbdd10",
"aL c #cbde0e",
"e5 c #cbde16",
"a6 c #cbe10e",
"fk c #ccc709",
"eu c #cdd115",
"#q c #cdd11d",
"#d c #cdda2c",
"hD c #cdda34",
"aq c #cddc21",
"e3 c #cdde0f",
"#2 c #cdde21",
"cd c #cde010",
"hJ c #cec91b",
"hS c #cede30",
"dy c #cee21a",
"fa c #cee317",
"fs c #cee517",
"fl c #cfcb09",
"fm c #cfcd0c",
"aM c #cfe11f",
"cs c #cfe211",
"bA c #cfe31a",
"hq c #d1d021",
"cK c #d1e210",
"a8 c #d1e317",
"bm c #d1e80f",
"c1 c #d2d40e",
"f3 c #d2da0f",
"eS c #d2e815",
"eX c #d2e912",
"fS c #d2e91a",
"ec c #d3d814",
"df c #d3d90d",
"du c #d3e216",
"bF c #d3e90e",
"f# c #d3e915",
"hn c #d5cb10",
"#I c #d5e02a",
"dA c #d5e90e",
"fd c #d5eb13",
"eG c #d6e013",
"dd c #d6e715",
"fc c #d6eb15",
"ei c #d7da0e",
"aR c #d7dc12",
"#p c #d7e01d",
"fK c #d7eb10",
"bE c #d7ec14",
"fT c #d7ec19",
"fv c #d7ed12",
"gP c #d8d70d",
"cZ c #d8e210",
"fC c #d8e311",
"dY c #d8e80f",
"ez c #d8eb12",
"ft c #d8ee11",
"cD c #d9dd12",
"bR c #d9eb18",
"fu c #d9ee12",
"cI c #dae00e",
"cm c #dae212",
"hW c #dae626",
"cV c #daeb13",
"eW c #daf010",
"a0 c #dbe00e",
"a1 c #dbe012",
"fD c #dbe210",
"d# c #dbec14",
"hI c #dcd617",
"g4 c #dce815",
"eA c #dcef0e",
"a7 c #dcf00f",
"bW c #dcf012",
"hH c #ddd412",
"aQ c #dde40e",
"aE c #dde411",
"cq c #ddea10",
"bX c #ddf110",
"cB c #dee214",
"ck c #dee313",
"dR c #dee50e",
"aD c #dee512",
"eh c #dee51a",
"ed c #dee60d",
"#J c #deed1c",
"b9 c #deee15",
"c0 c #dfe10e",
"de c #dfe40e",
"dQ c #dfe70f",
"cJ c #dfeb0e",
"bg c #dfeb10",
"gO c #dfeb14",
"cT c #dfee14",
"cr c #dff110",
"dz c #dff210",
"ae c #e0ee20",
"ds c #e0f010",
"bP c #e0f214",
"c9 c #e1f012",
"b7 c #e1f015",
"dt c #e1f110",
"cc c #e1f210",
"dX c #e1f214",
"ac c #e2e291",
"cC c #e2e410",
"cl c #e2e810",
"bf c #e2ec12",
"hk c #e2f125",
"cU c #e2f210",
"d. c #e2f310",
"by c #e2f414",
"bz c #e2f511",
"bQ c #e3f512",
"g2 c #e3f51d",
"#0 c #e5e869",
"b8 c #e5f412",
"g3 c #e5f618",
"hG c #e6e815",
"hm c #e8f31a",
"#1 c #e8f422",
"ap c #e8f423",
"hT c #e8f425",
"hV c #e9f223",
"hE c #e9f622",
"ao c #eaf047",
"hU c #ebf524",
"hl c #ebf81e",
"hF c #ecf71f",
"ad c #f0f554",
"QtQtQtQtQtQtQtQtQtQtQtQtQtQtQtQtQtQtQtQtQtQtQtQtQtQtQtQtQtQtQtQtQtQtQtQtQtQtQtQtQtQtQtQtQtQtQtQt",
"QtQtQtQtQtQtQtQtQtQtQtQtQtQtQtQtQtQtQtQtQtQtQtQtQtQtQtQtQtQtQtQtQtQtQtQtQtQt.#.aQtQtQtQtQtQtQtQt",
"QtQtQtQtQtQtQtQtQtQtQtQtQtQtQtQtQtQtQtQtQtQtQtQtQtQtQtQtQtQtQtQtQtQtQtQtQt.b.c.dQtQtQtQtQtQtQtQt",
"QtQtQtQtQtQtQtQtQtQtQtQtQtQtQtQtQtQtQtQtQtQtQtQtQtQtQtQtQtQtQtQtQtQtQt.e.f.g.hQtQtQtQtQtQtQtQtQt",
"QtQtQtQtQtQtQtQtQtQtQtQtQtQtQtQtQtQtQtQtQtQtQtQtQtQtQtQtQtQtQtQtQt.a.i.j.k.l.mQtQtQtQtQtQtQtQtQt",
"QtQtQtQtQtQtQtQtQtQtQtQtQtQtQtQtQtQtQtQtQtQtQtQtQtQtQtQtQtQtQt.n.o.p.q.r.s.t.uQtQtQtQtQtQtQtQtQt",
"QtQtQtQtQtQtQtQtQtQtQtQtQtQtQtQtQtQtQtQtQtQtQtQtQtQtQtQtQt.v.w.x.y.k.z.A.B.t.CQtQtQtQtQtQtQtQtQt",
"QtQtQtQtQtQtQtQtQtQtQtQtQtQtQtQtQtQtQtQtQtQtQtQtQtQtQtQt.D.E.F.G.B.A.A.A.B.H.IQtQtQtQtQtQtQtQtQt",
"QtQtQtQtQtQtQtQtQtQtQtQtQtQtQtQtQtQtQtQtQtQtQtQtQtQtQtQtQtQt.J.K.L.A.L.L.B.M.NQtQtQtQtQtQtQtQtQt",
"QtQtQtQtQtQtQtQtQtQtQtQtQtQtQtQtQtQtQtQtQt.a.a.a.a.a.a.aQtQtQt.O.r.A.B.P.P.Q.RQtQtQtQtQtQtQtQtQt",
"QtQtQtQtQtQtQtQtQtQtQtQtQtQtQtQtQtQtQt.a.S.T.U.V.W.X.Y.Z.a.a.0.1.2.s.3.4.5.t.6QtQtQtQtQtQtQtQtQt",
"QtQtQtQtQtQtQtQtQtQtQtQtQtQtQtQtQt.a.7.8.9#.###a#b#c#d#e#f#g#h.k.A.P#i#j#k#l#m#nQtQtQtQtQtQtQtQt",
"QtQtQtQtQtQtQtQtQtQtQtQtQtQtQtQt.a.a#o#p#q#r#s#t#u#v#w#x#y#z.q#A#B.H#C#D#E#F#G#HQtQtQtQtQtQtQtQt",
"QtQtQtQtQtQtQtQtQtQtQtQtQtQtQt.a.a#I#J#K#L#M#N#O#P#Q#R#S#T#U.r.L#V#W#X#Y.aQt#Z.aQtQtQtQtQtQtQtQt",
"QtQtQtQtQtQtQtQtQtQtQtQtQtQt.a.a#0#1#2#3#4#5QtQtQtQtQt#6#7.k.A#8#9a.a#.aaaQtQtQtQtQtQtQtQtQtQtQt",
"QtQtQtQtQtQtQtQtQtQtQtQtQt.aabacadaeafagahQtQtQtQtQtQtai.1.2.s.3ajakal.aQtQtQtQtQtQtQtQtQtQtQtQt",
"QtQtQtQtQtQtQtQtQtQtQtQtQtamanaoapaqarasQtQtQtQtQtQtQtatau.AavawaxayazaAQtQtQtQtQtQtQtQtQtQtQtQt",
"QtQtQtQtQtQtQtQtQtQtQtQt.aaBaCaDaEaFaG.aQtQtQtQtQtQtaH.q.z.BaIaJaKaLaMaN.aQtQtQtQtQtQtQtQtQtQtQt",
"QtQtQtQtQtQtQtQtQtQtQtQt.aaOaPaQaRaSaTQtQtQtQtQtQtaUaV.r.LaWaXaYaZa0a1a2a3QtQtQtQtQtQtQtQtQtQtQt",
"QtQtQtQtQtQtQtQtQtQtQt.aa4a5a6a7a8a9b.QtQtQtQtQt.ab#ba#A#8bbbcbdbebfbgbhbi.aQtQtQtQtQtQtQtQtQtQt",
"QtQtQtQtQtQtQtQtQtQtQt.abjbkblbmbnbobpQtQtQtQtQtbqbrbs.LbtbubvbwbxbybzbAbBbCQtQtQtQtQtQtQtQtQtQt",
"QtQtQtQtQtQtQtQtQtQtQt.abDbEbFbGbHbI.aQtQtQtQt.abJba.AavbKbLbMbNbObPbQbRbSbTQtQtQtQtQtQtQtQtQtQt",
"QtQtQtQtQtQtQtQtQtQtQtbUbVbWbXbYbZ.aQtQtQtQtQtb0b1.2.sb2b3b4.ab5b6b7b8b9c.c#QtQtQtQtQtQtQtQtQtQt",
"QtQtQtQtQtQtQtQtQtQtQtcacbbXcccdce.aQtQtQtQt.acf.k.A.P#icgchQtcicjckclcmcncoQtQtQtQtQtQtQtQtQtQt",
"QtQtQtQtQtQtQtQtQtQtQt.acpcqcrcsctcuQtQtQt.acv.q.z#Bcwcxcy.aQtczcAcBcCcDcEcFQtQtQtQtQtQtQtQtQtQt",
"QtQtQtQtQtQtQtQtQtQtQtcGcHcIcJcKcLcMQtQt.acNcO.r.L#VcPcQ.aQtQtcRcScTcUcVcWcXQtQtQtQtQtQtQtQtQtQt",
"QtQtQtQtQtQtQtQtQtQtQt.acYcZc0c1c2c3QtQt.ac4.y.z.s.Hc5c6QtQtQtc7c8c9d.d#dadbQtQtQtQtQtQtQtQtQtQt",
"QtQtQtQtQtQtQtQtQtQtQt.adcdddedfdgdhQt.adidjdkdldmdndodpQtQtQtdqdrdsdtdudvdwQtQtQtQtQtQtQtQtQtQt",
"QtQtQtQtQtQtQtQtQtQtQt.adxdydzdAdBdCdDdEdFdGdHdIdJdKdLdMdNQtQtdOdPdQdRdSdTdUQtQtQtQtQtQtQtQtQtQt",
"QtQtQtQtQtQtQtQtQtQtQtQtdVdWdXdYdZd0d1d2d3d4d5d6d7d8d9e.e#eaQtebecedcZeeef.aQtQtQtQtQtQtQtQtQtQt",
"QtQtQtQtQtQtQtQtQtQtQtQt.aegeheiejekelemeneoepeqereseteuevewexeyezeAeBeCeD.aQtQtQtQtQtQtQtQtQtQt",
"QtQtQtQtQtQtQtQtQtQtQtQtQteEeFeGeHeIeJeKeLeMeNeOeP.aeQeReSeTeUeVeWeXeYdheZQtQtQtQtQtQtQtQtQtQtQt",
"QtQtQtQtQtQtQtQtQtQtQtQtQt.ae0e1e2e3e4e5e6e7e8e9.aQtQtf.f#fafbfcfdfefffg.aQtQtQtQtQtQtQtQtQtQtQt",
"QtQtQtQtQtQtQtQtQtQtQtQtQtQtfhfifjfkflfmfnfofpfqQtQtQtfrfsftfufvfwfxfy.aQtQtQtQtQtQtQtQtQtQtQtQt",
"QtQtQtQtQtQtQtQtQtQtQtQtQtQt.afzfAfBfCfDfEfFfGfHQtQtQtfIfJfKfufLfMfNeZQtQtQtQtQtQtQtQtQtQtQtQtQt",
"QtQtQtQtQtQtQtQtQtQtQtQtQtQtQtfOfPfQfRfSfTfUfVfWfXfYfZf0f1f2f3f4f5ahQtQtQtQtQtQtQtQtQtQtQtQtQtQt",
"QtQtQtQtQtQtQtQtQtQtQtQtQtQt.af6baf7f8f9g.g#gagbgcgdgegfggghgigjgkQtQtQtQtQtQtQtQtQtQtQtQtQtQtQt",
"QtQtQtQtQtQtQtQtQtQtQtQt.aglgm.ybs.sgngogpgqgrgsgta9gugvgwgxgygzgAQtQtQtgBgC.aQtQtQtQtQtQtQtQtQt",
"QtQtQtQtQtQtQtQtQtQtQt.agDgE.y.2.A.B.tgFgGgHgIgJgKdUgLgMgNgOgPgQgR.aQtgSgTgUgVQtQtQtQtQtQtQtQtQt",
"QtQtQtQtQtQtQtQtQtQtgWgX.r.Lav#8.sgYbKgZ.aQtQtQtQtQtQtg0g1g2g3g4g5g6g7g8g9h.h#QtQtQtQtQtQtQtQtQt",
"QtQtQtQtQtQtQtQtQthahbhchdhehf.lavhghhhiQtQtQtQtQtQtQtQthjhkhlhmhnhohphqhrhshtQtQtQtQtQtQtQtQtQt",
"QtQtQtQtQtQtQtQtQtQthuhvhwhxhyhz.P.ghAhBQtQtQtQtQtQtQtQthChDhEhFhGhHhIhJhKhL.aQtQtQtQtQtQtQtQtQt",
"QtQtQtQtQtQtQtQtQtQtQtQtQtQtQthMhNhOhPhQQtQtQtQtQtQtQtQtQthRhShThUhVhWhXhYhZQtQtQtQtQtQtQtQtQtQt",
"QtQtQtQtQtQtQtQtQtQtQtQtQtQtQtQth0bth1h2QtQtQtQtQtQtQtQtQtQth3h4h5h6h7aAh8QtQtQtQtQtQtQtQtQtQtQt",
"QtQtQtQtQtQtQtQtQtQtQtQtQtQtQtQt.ah9i.i#QtQtQtQtQtQtQtQtQtQtQtiaibicidieQtQtQtQtQtQtQtQtQtQtQtQt",
"QtQtQtQtQtQtQtQtQtQtQtQtQtQtQtQtQtifigihQtQtQtQtQtQtQtQtQtQtQtQtQtQtQtQtQtQtQtQtQtQtQtQtQtQtQtQt",
"QtQtQtQtQtQtQtQtQtQtQtQtQtQtQtQtQtQtiiijQtQtQtQtQtQtQtQtQtQtQtQtQtQtQtQtQtQtQtQtQtQtQtQtQtQtQtQt",
"QtQtQtQtQtQtQtQtQtQtQtQtQtQtQtQtQtQtQtQtQtQtQtQtQtQtQtQtQtQtQtQtQtQtQtQtQtQtQtQtQtQtQtQtQtQtQtQt"};
