/* XPM */
static char *select[]={
"16 16 3 1",
"# c None",
"a c #000000",
". c #ffffff",
".###############",
"...#############",
".aa..###########",
"#.aaa..a.a.a.a.#",
"#.aaaaa..#####a#",
"#a.aaaaaa..###.#",
"#..aaaaaa...##a#",
"#a.aaaaa.#####.#",
"#.#.aaaaa.####a#",
"#a#.aa.aaa.###.#",
"#.##..#..aa.##a#",
"#a##.####.aa.#.#",
"#.########.aa.a#",
"#a#########.aa..",
"#.a.a.a.a.a..a.#",
"#############.##"};
