/* XPM */
static char *table[]={
"22 22 6 1",
". c None",
"d c #000000",
"# c #000080",
"b c #585858",
"a c #c3c3c3",
"c c #ffffff",
"......................",
".####################.",
".#aaaaaaaabaaaaaaaaa#c",
".#aaaaaaaabaaaaaaaaa#c",
".#cccccccccccccccccc#c",
".#cdddddddccdddddddc#c",
".#cccccccccccccccccc#c",
".#cdddddddccdddddddc#c",
".#cccccccccccccccccc#c",
".#cdddddddccdddddddc#c",
".#cccccccccccccccccc#c",
".#cdddddddccdddddddc#c",
".#cccccccccccccccccc#c",
".#cdddddddccdddddddc#c",
".#cccccccccccccccccc#c",
".#cdddddddccdddddddc#c",
".#cccccccccccccccccc#c",
".#cdddddddccdddddddc#c",
".#cccccccccccccccccc#c",
".####################c",
".ccccccccccccccccccccc",
"......................"};
