#define zoomin_width 32
#define zoomin_height 32
static unsigned char zoomin_bits[] = {
   0x00, 0x00, 0x00, 0x00, 0xf8, 0x00, 0x00, 0x00, 0x06, 0x03, 0x00, 0x00,
   0x22, 0x02, 0x00, 0x00, 0x21, 0x04, 0x00, 0x00, 0x21, 0x04, 0x00, 0x00,
   0xfd, 0x05, 0x00, 0x00, 0x21, 0x04, 0x00, 0x00, 0x21, 0x04, 0x00, 0x00,
   0x22, 0x06, 0x00, 0x00, 0x06, 0x0b, 0x00, 0x00, 0xf8, 0x11, 0x00, 0x00,
   0x00, 0x21, 0x00, 0x00, 0x00, 0x42, 0x00, 0x00, 0x00, 0x84, 0x00, 0x00,
   0x00, 0x08, 0x01, 0x00, 0x00, 0x10, 0x02, 0x00, 0x00, 0x20, 0x04, 0x00,
   0x00, 0x40, 0x04, 0x00, 0x00, 0x80, 0x07, 0x00, 0x00, 0x00, 0x00, 0x00,
   0x00, 0x00, 0x00, 0x00, 0x00, 0x00, 0x00, 0x00, 0x00, 0x00, 0x00, 0x00,
   0x00, 0x00, 0x00, 0x00, 0x00, 0x00, 0x00, 0x00, 0x00, 0x00, 0x00, 0x00,
   0x00, 0x00, 0x00, 0x00, 0x00, 0x00, 0x00, 0x00, 0x00, 0x00, 0x00, 0x00,
   0x00, 0x00, 0x00, 0x00, 0x00, 0x00, 0x00, 0x00};
