/* XPM */
static char *zoomprevious[]={
"22 22 13 1",
". c None",
"i c #000080",
"g c #0000c0",
"f c #0000ff",
"a c #008000",
"d c #00ff00",
"# c #800000",
"j c #c0c000",
"c c #c0ffc0",
"h c #ff0000",
"b c #ffc0c0",
"k c #ffff00",
"e c #ffffff",
"......................",
"......................",
"......................",
"......................",
"......................",
"......#...............",
"......##aaaaaaaaaaaaaa",
"......#b#ccccccccccdae",
"......#bb#ccdcccfcdae.",
".######bbb#gfffffdae..",
".#bbbbbbbbb#cdccdae...",
".#hhhhhhbbh#cccaaiiiie",
".######hbh#cccaadddie.",
".aaaaa#hh#aaaaahjkie..",
".eeeih#h#dkjddkjkie...",
"...ijk##dhjddhhkie....",
"..ijkd#jhhkdkhhie.....",
".ihhjkjkjkddjjie......",
".iiiiiiiiiiiiiie......",
".eeeeeeeeeeeeeee......",
"......................",
"......................"};
