/* XPM */
static char *zoomfull[]={
"22 22 13 1",
". c None",
"i c #000080",
"e c #0000ff",
"c c #008000",
"h c #00c000",
"f c #00ff00",
"# c #800000",
"j c #c0c000",
"d c #c0ffc0",
"b c #ff0000",
"a c #ffc0c0",
"k c #ffff00",
"g c #ffffff",
"......................",
"..........#####.......",
"..........#aab#.......",
"..........#aab#.......",
"..........#aab#.......",
"........###aab###.....",
".......cc#aaabb#cccccc",
"......cdee#abb#ddddfcg",
".....cdddeh#b#ddedfcg.",
"....cddfdeee#eeeefcg..",
"...cddddeeeddfddfcg...",
"..cddfeeeddddddcciiiig",
".chfddehfdfdddccfffig.",
".ccccccccccccccbjkig..",
".gggibbjffkjffkjkig...",
"...ijkfffbjffbbkig....",
"..ijkffjbbkfkbbig.....",
".ibbjkjkjkffjjig......",
".iiiiiiiiiiiiiig......",
".ggggggggggggggg......",
"......................",
"......................"};
