/* XPM */
static const char * icon[] = {
"22 22 256 2",
"  	c None",
". 	c #0C4692",
"+ 	c #073E8B",
"@ 	c #FFFF00",
"# 	c #15529D",
"$ 	c #1C5BA5",
"% 	c #2060A9",
"& 	c #1F5EA7",
"* 	c #1A59A3",
"= 	c #16519C",
"- 	c #1A4F8C",
"; 	c #396B80",
"> 	c #F8FA03",
", 	c #124D9A",
"' 	c #124D99",
") 	c #124E9A",
"! 	c #134E9A",
"~ 	c #134F9B",
"{ 	c #14509C",
"] 	c #F6F803",
"^ 	c #355B3C",
"/ 	c #083F8C",
"( 	c #406F7B",
"_ 	c #2161AA",
": 	c #1958A2",
"< 	c #17549F",
"[ 	c #26556E",
"} 	c #1E4E78",
"| 	c #E9EF0D",
"1 	c #114D99",
"2 	c #104C99",
"3 	c #104B98",
"4 	c #134E9B",
"5 	c #2E5A46",
"6 	c #DDE618",
"7 	c #D4DF1C",
"8 	c #124E99",
"9 	c #21537D",
"0 	c #184B85",
"a 	c #114B97",
"b 	c #104C98",
"c 	c #0F4B98",
"d 	c #8FA62D",
"e 	c #144E98",
"f 	c #1D5288",
"g 	c #235781",
"h 	c #274F64",
"i 	c #144C8F",
"j 	c #114C99",
"k 	c #19538E",
"l 	c #255169",
"m 	c #F7F800",
"n 	c #34522E",
"o 	c #254A49",
"p 	c #184D85",
"q 	c #114D9A",
"r 	c #F6F805",
"s 	c #124E9B",
"t 	c #29566C",
"u 	c #61795A",
"v 	c #F6F802",
"w 	c #456342",
"x 	c #39686A",
"y 	c #366562",
"z 	c #336561",
"A 	c #30585F",
"B 	c #124C95",
"C 	c #476A66",
"D 	c #8B966E",
"E 	c #F7F904",
"F 	c #749475",
"G 	c #778D73",
"H 	c #4F6A4D",
"I 	c #315F33",
"J 	c #265061",
"K 	c #5A705D",
"L 	c #748E5B",
"M 	c #F9FA05",
"N 	c #547454",
"O 	c #4B6C41",
"P 	c #597445",
"Q 	c #305A59",
"R 	c #114C96",
"S 	c #396B7F",
"T 	c #2F5C73",
"U 	c #4D6D47",
"V 	c #EFF208",
"W 	c #596D3F",
"X 	c #7A8454",
"Y 	c #658168",
"Z 	c #476C6E",
"` 	c #225689",
" .	c #2C6287",
"..	c #F6F804",
"+.	c #49716A",
"@.	c #275068",
"#.	c #E9EC0C",
"$.	c #B5B540",
"%.	c #ADB239",
"&.	c #8E9164",
"*.	c #718D5C",
"=.	c #6A8252",
"-.	c #285B79",
";.	c #275D89",
">.	c #3D6E7C",
",.	c #ECF00B",
"'.	c #2E6286",
").	c #175296",
"!.	c #F0F407",
"~.	c #F5F603",
"{.	c #EBED0A",
"].	c #F9FA03",
"^.	c #F8F902",
"/.	c #F0F308",
"(.	c #F5F706",
"_.	c #DEE714",
":.	c #E7ED0E",
"<.	c #E9EE0D",
"[.	c #E7ED0F",
"}.	c #F4F706",
"|.	c #DBE516",
"1.	c #F1F409",
"2.	c #598760",
"3.	c #184E8B",
"4.	c #1F5A90",
"5.	c #7A9067",
"6.	c #70955E",
"7.	c #717548",
"8.	c #618753",
"9.	c #769243",
"0.	c #52795F",
"a.	c #295F8A",
"b.	c #3D6D7C",
"c.	c #295E8A",
"d.	c #175195",
"e.	c #134B8F",
"f.	c #527E6E",
"g.	c #FAFB02",
"h.	c #2A5F93",
"i.	c #668955",
"j.	c #5B7445",
"k.	c #6E8557",
"l.	c #658550",
"m.	c #59774A",
"n.	c #124C94",
"o.	c #285E8A",
"p.	c #ECF10B",
"q.	c #618E6C",
"r.	c #3B697D",
"s.	c #53786D",
"t.	c #758D5C",
"u.	c #6E8354",
"v.	c #577344",
"w.	c #7B8E5B",
"x.	c #66834F",
"y.	c #134E97",
"z.	c #275C8B",
"A.	c #144E94",
"B.	c #3E6C7B",
"C.	c #6A7D4D",
"D.	c #587544",
"E.	c #6E8B57",
"F.	c #66804D",
"G.	c #69834F",
"H.	c #768956",
"I.	c #687C4B",
"J.	c #65816B",
"K.	c #688265",
"L.	c #396684",
"M.	c #2D5D7E",
"N.	c #EAF00D",
"O.	c #3E7070",
"P.	c #788556",
"Q.	c #5E7A48",
"R.	c #5B7B45",
"S.	c #748553",
"T.	c #687F4B",
"U.	c #63834D",
"V.	c #798954",
"W.	c #6B814D",
"X.	c #627D48",
"Y.	c #3A6270",
"Z.	c #2E5F84",
"`.	c #587955",
" +	c #527C76",
".+	c #446B5E",
"++	c #768462",
"@+	c #64734C",
"#+	c #688357",
"$+	c #68834C",
"%+	c #637A4A",
"&+	c #758954",
"*+	c #788952",
"=+	c #667E53",
"-+	c #35617C",
";+	c #114C98",
">+	c #134E98",
",+	c #356180",
"'+	c #57735B",
")+	c #5D7C49",
"!+	c #4C7973",
"~+	c #F3F607",
"{+	c #396C8B",
"]+	c #597C79",
"^+	c #527668",
"/+	c #6A8751",
"(+	c #677D49",
"_+	c #708051",
":+	c #7D8F5B",
"<+	c #82943D",
"[+	c #4C7073",
"}+	c #185196",
"|+	c #285B92",
"1+	c #476F84",
"2+	c #688270",
"3+	c #6D7F62",
"4+	c #6B7D52",
"5+	c #E3E80F",
"6+	c #809A3D",
"7+	c #44737A",
"8+	c #7D984B",
"9+	c #697D4C",
"0+	c #597E5F",
"a+	c #3C6874",
"b+	c #496B73",
"c+	c #355B74",
"d+	c #3E6286",
"e+	c #51756F",
"f+	c #456F6E",
"g+	c #175194",
"h+	c #7E9765",
"i+	c #909966",
"j+	c #8A9667",
"k+	c #7B8A5D",
"l+	c #6E8753",
"m+	c #6E8152",
"n+	c #82993F",
"o+	c #FAFB03",
"p+	c #F9FB03",
"q+	c #C6D418",
"r+	c #D8E218",
"s+	c #275C89",
"t+	c #164E95",
"u+	c #1A5396",
"v+	c #557F76",
"w+	c #255890",
"x+	c #1A5397",
"y+	c #7E9165",
"z+	c #82915E",
"A+	c #7B905A",
"B+	c #889262",
"C+	c #7A8F5B",
"D+	c #678851",
"E+	c #738C59",
"F+	c #6D8F58",
"G+	c #527544",
". + @ # $ % & * = - ; > , , ' ) ! ~ , { ] ^ ",
"/ ( @ _ : < ~ ! [ } ) | , ( ) ~ 1 2 3 4 @ 5 ",
"@ 6 @ @ @ @ @ @ @ @ @ @ @ 7 @ @ @ @ @ @ @ @ ",
"! ) @ 8 ~ 9 0 1 a b ~ @ 1 b 1 ) 1 1 c 1 @ d ",
"1 e ] f g h i 2 ) 1 ) @ 1 , ) 4 ) ' j ' @ k ",
"1 l m n o p 1 q , ) ) r ~ 4 4 ) ) ) ! s @ ! ",
"t u v w x y z A B ) ! @ ) ) ) 1 , 1 ) ) @ ) ",
"C D E F G H I J 1 ) q @ 1 ' j ) ! ) 1 ~ @ ) ",
"K L M N O P Q R ) 1 S @ 1 ' , ) ) ' ) ( @ ) ",
"T U V W X Y Z ` ) )  ...) s ) ' ) ) ) ) @ ) ",
"+.@.#.$.%.&.*.=.-.;.>.,.'.; ).S 4 ! ) ) @ ) ",
"!.@ ~.{.].@ @ ^.]./.(.@ _.:.<.[.@ }.|.1.@ 7 ",
"2.k @ 3.4.5.6.7.8.9.0.@ a.b.c.S d.( , ) @ ) ",
"e.f.g.d.) h.i.j.k.l.m.@ ) ) ) 1 1 ) ) 1 @ 4 ",
"n.o.p.q.r.s.t.u.v.w.x.@ y.' ' ) ) , q ) @ z.",
"A.1 }.B.C.D.E.F.G.H.I.@ J.K.L.1 ) ' ) ) @ M.",
"3 ! N.O.P.Q.R.S.T.U.V.@ W.X.Y.1 ) 4 s Z.@ `.",
"1  +@ .+++@+#+$+%+&+*+@ =+-+;+1 ! >+,+'+@ )+",
") !+~+{+]+^+/+(+_+:+<+@ =.[+}+|+1+2+3+4+5+6+",
"~ 7+@ 8+9+0+a+b+c+d+e+/.f+g+h+i+j+k+l+m+@ n+",
"@ @ @ @ @ @ @ @ r @ @ @ @ @ o+@ @ @ p+@ @ q+",
"j ;.r+s+) q t+u+v+w+x+@ y+z+A+B+C+D+E+F+@ G+"};
