/* XPM */
static const char *icon_add_raster[]={
"22 22 162 2",
"Qt c None",
".j c #000000",
".n c #00c000",
"aB c #010101",
"aA c #03060a",
"aq c #0a293e",
"#1 c #0b3a54",
"ad c #0b3b54",
"#x c #0d141e",
"az c #0d151c",
"aw c #0e96be",
"aE c #0f5a7d",
"#0 c #0f8eb6",
"aD c #106e93",
"aF c #107ea6",
"#N c #133348",
"#M c #13688c",
"ac c #138fb7",
"#Z c #1397be",
"ay c #141e28",
"#2 c #144303",
"ax c #157296",
"av c #1799bf",
"#L c #197397",
"#P c #1b1b1b",
".b c #1b4260",
".c c #1e4869",
".e c #1e4a6b",
".d c #1e4b6d",
"au c #1e7699",
"#q c #1f5a06",
".f c #204f73",
"#p c #205b07",
".g c #215175",
"ap c #217294",
".p c #235174",
"#3 c #236308",
".k c #255b84",
"#y c #262b32",
".x c #275478",
"ab c #27a0c3",
"ae c #286f0c",
".l c #296491",
"#4 c #2b780a",
".q c #2c6894",
"am c #2ca2c4",
"#z c #2d3238",
".H c #2d5b80",
"#l c #2f343b",
"ag c #308c09",
"af c #31840e",
"#C c #318a0c",
".h c #325c7c",
".T c #326088",
".y c #326d9b",
".K c #336893",
".r c #3375a7",
".I c #366e9d",
".s c #3677a8",
"ao c #3685a3",
"#B c #36960d",
".i c #37607e",
".V c #396d99",
".J c #3974a3",
"#O c #3b3c3d",
"ah c #3b5160",
"an c #3b88a5",
".z c #3c81b7",
"#m c #3d3d3d",
".5 c #3d6b94",
".L c #3d7db0",
".Q c #3e6688",
"#Y c #41abca",
".R c #42749d",
".w c #42759d",
".6 c #4279a9",
".U c #4380b5",
".4 c #447aa5",
".A c #447fae",
"aj c #4588a5",
"#K c #4a8fab",
"#a c #4c5258",
".m c #4d7ca0",
".G c #4d7ea4",
"al c #4dafcc",
".t c #4e8bba",
"#w c #4e8ea8",
".2 c #525a61",
".B c #5390bf",
".M c #5592c3",
"aC c #565656",
"aa c #56b4d0",
"ai c #578da6",
".N c #5792c3",
"#R c #585858",
".C c #5994c2",
"#Q c #5b5b5b",
".1 c #5b6368",
".D c #5c95c2",
"#e c #5e8ab4",
"ak c #5e9ab2",
"a# c #5eb7d2",
"#k c #629ab2",
"#b c #636363",
".3 c #64696e",
".Y c #65696c",
"#n c #6a6a6a",
".o c #6a90ab",
".W c #6c9fca",
"#X c #6cbdd4",
"#A c #6d6e6e",
".0 c #6d7f8d",
".7 c #6e7276",
"#d c #6fa3d4",
"#W c #73bed4",
"a. c #76c0d6",
".# c #777777",
"#J c #79c2d6",
"#c c #7a7a7a",
"#g c #7a7c80",
".u c #81adce",
"#I c #82c5d7",
"#5 c #838383",
"#6 c #83949c",
"#v c #84c6d8",
"## c #86a6b7",
"#8 c #87c8da",
".O c #89b3d5",
".X c #8cb6d8",
"#9 c #8eccdd",
"#E c #8f98a1",
"#V c #8fcadb",
"#s c #92959a",
".E c #92b8d6",
"#o c #94bce2",
"at c #989898",
"#D c #999999",
"#S c #9ca6ae",
"#j c #9ed0e0",
"#u c #a2d3e1",
".Z c #a5abaf",
"#H c #a7c9d5",
".8 c #a8bfc9",
"#7 c #aad3e1",
".v c #afcbe0",
"#h c #b0cad4",
"#U c #b1d8e4",
"#t c #b2ced8",
".P c #b4cfe4",
".9 c #b5d3db",
"#. c #b8d5e0",
"#i c #badde6",
".S c #bdbdbd",
"#G c #c1d5de",
"#F c #c4d4db",
".F c #c8dbea",
"#T c #cfe4ec",
"#r c #d6d6d6",
"ar c #e9eaeb",
"#f c #f3f3f3",
"as c #f6f6f6",
".a c #ffffff",
"QtQtQtQtQtQtQtQtQtQtQtQtQtQtQtQtQtQtQtQtQtQt",
"QtQtQtQt.#.#.#.#.#.#.#.#.#.#.#.#.#.#.#.#.#Qt",
"QtQtQtQt.#.a.a.a.a.a.a.a.a.a.a.a.a.a.a.a.a.#",
"QtQtQtQt.#.a.b.c.d.e.f.g.g.g.g.h.i.h.g.g.a.j",
"QtQtQtQt.#.a.d.k.l.l.l.l.l.l.m.n.n.o.m.l.a.j",
"QtQtQtQt.#.a.p.q.r.r.s.s.r.t.u.n.n.v.u.w.a.n",
"QtQtQtQt.#.a.x.y.z.z.A.B.C.D.E.n.n.F.E.G.n.n",
"QtQtQtQt.#.a.H.I.J.a.K.L.M.N.O.n.n.P.O.n.n.j",
"QtQtQtQt.#.a.Q.R.a.S.n.T.U.V.W.n.n.X.n.n.a.j",
"QtQtQtQt.Y.Z.0.1.2.3.n.n.4.a.5.n.n.n.n.6.a.j",
"QtQtQtQt.7.8.9#.###a#b.n.n#c.a.n.n.n#d#e#f.j",
"QtQtQtQt#g#h#i#j#k#l#m.j.n.n#n.n.n#o#p#q#r.j",
"QtQtQtQt#s#t#u#v#w#x#y#z#A.n.n.n.n#p#B#C#D.j",
"QtQt#E#F#G#H#I#J#K#L#M#N#O#P.n.n.n#Q#Q#Q.j#R",
"QtQt#S#T#U#V#W#X#Y#Z#0#1#2#3#4.n.n#Q.a.a#D#5",
"QtQt#6#7#8#9a.a#aaabacadaeafag.n.n#Q.a#D#RQt",
"QtQtahaiajakalamanaoapaqar.aas.n.n.jat#RQtQt",
"QtQtQtQtQtauavawaxayazaAaB.j.j.n.naC#5QtQtQt",
"QtQtQtQtQtaDawawaDQtQtQtQtQtQt.n.nQtQtQtQtQt",
"QtQtQtQtQtaEaFaFaEQtQtQtQtQtQt.n.nQtQtQtQtQt",
"QtQtQtQtQtQtQtQtQtQtQtQtQtQtQtQtQtQtQtQtQtQt",
"QtQtQtQtQtQtQtQtQtQtQtQtQtQtQtQtQtQtQtQtQtQt"};
