/* XPM */
static const char *icon_grass_region[]={
"22 22 3 1",
". c None",
"# c #00c000",
"a c #303030",
"......................",
"......................",
".............##.......",
"...aaaaaaaaaa##aaa.#..",
"...a.........##..a##..",
"...a...#.....##..##...",
"...a...##....##.##....",
"...a....##...####a....",
"...a.....##..###.a....",
"...a......##.##..a....",
"...a.......####..a....",
"...a........###..a....",
"...a.........##..a....",
"...a.........##..a....",
"...a.........##..a....",
"...aaaaaaaaaa##aaa....",
".............##.......",
".............##.......",
".............##.......",
".............##.......",
"......................",
"......................"};
