/* XPM */
static const char *icon_grass_edit[]={
"22 22 3 1",
". c None",
"# c #00c000",
"a c #303030",
"......................",
"......................",
".............##.......",
".............##....#..",
".............##...##..",
".......#.....##..##...",
".......##....##.##....",
"........##...####...a.",
".........##..###...a..",
"......aa..##.##....a..",
".....a..a..####...a...",
"....a....a..###...a...",
"...a......a..##..a....",
"...a......a..##..a....",
"..a........a.##.a.....",
"..a.........a##a......",
".a...........##.......",
".a...........##.......",
".............##.......",
".............##.......",
"......................",
"......................"};
