/* XPM */
static const char *icon[]={
"32 32 4 1",
"a c None",
". c None",
"# c #000000",
"b c #ffffff",
"................................",
".###........................###.",
".###........................###a",
".##############################a",
".##############################a",
".###aaaaaaaaaaaaaaaaaaaaaaaa###a",
".###aaaaaaaaaaaaaaaaaaaaaaaa###a",
".###aa............aaaa......###a",
"..aaaa.......................aaa",
"...............................a",
"...............................a",
"................................",
".##############################a",
".##############################a",
".##############################a",
".###aaaa###aa..###aa..###aa.###a",
".###aaa.###aa..###a...###aa.###a",
".###a...###aa..###a...###aa.###a",
".###a....aaa...aaaa....aaa..###a",
".###a....aaa...........aa...###a",
".###a....a..................###a",
".###a.......................###a",
"aaaaa........................aaa",
"..aaa...........................",
"................................",
"................................",
".##############################.",
".#######bbb####bbb####bbb###bb#.",
".#######bbb####bbb####bbb###bb#.",
".#######bbb####bbb####bbb###bb#.",
".##############################.",
"................................"};
